version 1
nodes
0 "ShinIK.R" -1
1 "ShinIK.L" -1
2 "All.000" -1
3 "ForearmIK.R" 2
4 "ForearmIK.L" 2
5 "UpperarmIK.R" 2
6 "UpperarmIK.L" 2
7 "KneeIK.R" 2
8 "KneeIK.L" 2
9 "Spine.009" 2
10 "Spine.001" 9
11 "Spine.002" 10
12 "Spine.004" 11
13 "Arm.R.001" 11
14 "Arm.R.002" 13
15 "Arm.R.003" 14
16 "Arm.R.004" 15
17 "Arm.R.005" 16
18 "Arm.R.006" 15
19 "Arm.R.007" 18
20 "Wep.000" 15
21 "Arm.L.001" 11
22 "Arm.L.002" 21
23 "Arm.L.003" 22
24 "Arm.L.004" 23
25 "Arm.L.005" 24
26 "Arm.L.006" 23
27 "Arm.L.007" 26
28 "Spine.000" 9
29 "Leg.R.001" 28
30 "Leg.R.002" 29
31 "Leg.R.003" 30
32 "Leg.R.004" 31
33 "Leg.R.005" 32
34 "Leg.L.001" 28
35 "Leg.L.002" 34
36 "Leg.L.003" 35
37 "Leg.L.004" 36
38 "Leg.L.005" 37
39 "Loincloth.000" 28
40 "Loincloth.001" 39
end
skeleton
  time 0
  0 7.268086 -3.119072 -20.022829 0.000000 -0.000000 -3.141593
  1 -7.755937 -13.152498 -20.022829 0.000000 -0.000000 3.141593
  2 0.907535 -3.182838 55.465324 -1.570796 0.000000 1.570796
  3 5.116445 45.084656 -20.605093 1.570796 -1.570795 0.000000
  4 6.503564 46.997601 20.840397 1.570796 -1.570796 0.000000
  5 -17.141829 38.067543 -16.689768 1.570796 -1.570796 0.000000
  6 -17.141844 38.067539 16.711023 1.570796 -1.570796 0.000000
  7 17.202442 59.971519 -5.658659 1.570796 1.570796 0.000000
  8 17.202438 59.971519 6.168211 1.570796 1.570796 0.000000
  9 17.187601 41.854366 0.000009 1.570796 1.570796 0.000000
  10 -0.000001 -17.187595 -0.000000 1.534642 -0.299018 1.693221
  11 0.000001 9.251828 0.000001 0.025781 0.231942 -0.098196
  12 3.332967 6.058992 0.446929 -0.040595 -0.223927 -0.408146
  13 -0.000000 4.780092 -0.000000 1.284319 0.253606 -2.959958
  14 -0.000001 10.318098 0.000002 0.280586 -0.382881 -1.001184
  15 -0.000000 10.229107 -0.000001 -0.433919 0.484398 1.578385
  16 -0.000007 17.897516 -0.000003 0.464951 -0.693813 0.023495
  17 -0.000001 4.707229 -0.000000 -1.495870 -0.016242 -0.207689
  18 1.054334 19.031311 -1.957864 -0.491403 -0.440951 0.483856
  19 -0.000002 2.947697 0.000001 0.591003 0.259473 -0.900673
  20 3.390315 20.424328 2.537592 1.149897 -2.500746 0.436933
  21 0.002826 4.780094 -0.021077 -1.880463 -0.127749 -0.177834
  22 -0.000001 10.318099 -0.000001 0.150583 2.671143 0.112164
  23 -0.000000 10.229099 -0.000000 1.114404 -0.347799 0.542794
  24 -0.000006 17.897511 0.000004 -0.342122 -0.071393 0.243666
  25 -0.000000 5.176013 0.000003 0.349166 0.058343 -0.327910
  26 0.755608 18.921986 0.960406 0.381248 -0.147234 0.149823
  27 -0.000001 3.158196 -0.000001 -0.694310 -0.195412 -0.702197
  28 -0.000001 -17.187595 -0.000000 -1.661412 -0.099027 1.774270
  29 0.000002 3.905661 -4.525524 -0.100229 0.194001 -0.170870
  30 0.000002 13.357014 0.000000 0.128772 -0.035102 0.559767
  31 0.000001 18.158876 -0.000002 -1.477040 1.609456 -1.571261
  32 0.000001 2.542065 0.000001 1.558254 0.000018 -0.000000
  33 0.000000 3.135156 0.000002 -0.086398 0.000000 0.000000
  34 -0.000002 3.905660 4.546789 0.338221 0.165248 0.262330
  35 0.000001 13.407274 0.000000 -0.120022 0.020188 0.286699
  36 -0.000001 18.158878 0.000003 1.475899 -1.609462 -1.570119
  37 0.000000 2.542062 0.000000 1.558254 -3.141546 0.000000
  38 -0.000000 3.135156 -0.000001 -0.091756 0.342973 -0.030933
  39 4.301485 1.405969 0.000001 -0.084543 -0.230217 -0.783667
  40 0.000000 7.030432 0.000000 0.020871 -0.019348 -0.632813
  time 1
  0 8.375205 6.297794 -14.740913 -0.041476 0.000000 -3.141593
  1 -7.836723 -16.950384 -20.283030 0.189101 0.075445 -2.997947
  2 0.907535 -3.182838 55.465324 -1.570796 0.000000 1.570796
  3 -5.893592 34.603210 -28.119892 1.570796 -1.570795 0.000000
  4 4.577485 42.457878 30.008322 1.570796 -1.570796 0.000000
  5 -17.141829 39.025482 -17.031240 1.570796 -1.570796 0.000000
  6 -16.724581 38.908020 17.025503 1.570796 -1.570796 0.000000
  7 17.213577 61.396812 -6.005486 1.570796 1.570796 0.000000
  8 17.391165 60.939137 5.595947 1.570796 1.570796 0.000000
  9 17.187601 41.983871 0.000009 1.570796 1.570796 0.000000
  10 -0.000001 -17.187595 -0.000000 1.533590 -0.354788 1.668159
  11 -0.000000 9.251827 0.000001 -0.070555 0.179434 0.334867
  12 3.332966 6.058992 0.446929 -0.046801 -0.226559 -0.431461
  13 0.000000 4.780092 0.000000 1.284319 0.253606 -2.959958
  14 0.000001 10.318096 0.000000 0.829250 0.272809 -1.240633
  15 -0.000002 10.229103 0.000001 -0.433930 0.479898 1.567423
  16 -0.000003 17.897516 0.000004 0.520176 -0.660579 -0.035597
  17 0.000002 4.707229 -0.000002 -1.498000 -0.015302 -0.209202
  18 0.984184 19.129673 -1.923047 -0.435502 -0.425192 0.425607
  19 0.000001 2.947696 0.000000 0.591004 0.259473 -0.900673
  20 3.493530 20.134830 2.444231 1.032840 -2.500530 0.450248
  21 0.002827 4.780092 -0.021077 -1.880463 -0.127749 -0.177833
  22 -0.000002 10.318098 -0.000001 -0.348250 2.822661 0.132455
  23 0.000004 10.229095 -0.000001 0.924672 -0.245945 0.477357
  24 0.000002 17.897501 -0.000003 -0.303529 -0.076435 0.148035
  25 -0.000001 5.176009 -0.000001 -0.087866 0.090287 0.138219
  26 0.755614 18.921974 0.960400 0.381247 -0.147234 0.149822
  27 0.000000 3.158194 -0.000000 -0.225177 0.330715 -1.040211
  28 -0.000001 -17.187595 -0.000000 -1.676801 -0.162293 1.875061
  29 0.000001 3.905660 -4.525524 -0.368616 0.068341 -0.777760
  30 -0.000000 13.357020 -0.000002 0.223575 -0.144882 1.159946
  31 -0.000000 18.158886 0.000001 -1.435556 1.609456 -1.571259
  32 -0.000000 2.542065 -0.000001 1.558254 0.000018 0.000000
  33 0.000001 3.135157 0.000002 -0.086398 0.000000 0.000000
  34 -0.000003 3.905661 4.546789 0.358085 0.189779 0.608863
  35 -0.000001 13.407279 -0.000002 -0.003137 0.002856 0.007410
  36 -0.000000 18.158882 -0.000001 0.834227 -1.756584 -0.742124
  37 -0.000001 2.542067 -0.000002 1.558254 -3.141546 0.000000
  38 0.000000 3.135156 0.000002 -0.091756 0.342973 -0.030933
  39 4.301486 1.405968 0.000001 -0.071711 -0.116598 -0.480645
  40 0.000000 7.030433 -0.000000 -0.004392 -0.034973 -0.437287
  time 2
  0 10.413314 8.892239 -20.022829 -0.112484 0.000000 -3.141593
  1 -8.029365 -18.998688 -20.628599 0.368800 0.125177 -2.627185
  2 0.907535 -3.182838 55.465324 -1.570796 0.000000 1.570796
  3 -5.844677 34.642296 -28.115191 1.570796 -1.570795 0.000000
  4 4.736804 42.998520 28.947189 1.570796 -1.570796 0.000000
  5 -17.141829 39.279625 -17.238365 1.570796 -1.570796 0.000000
  6 -15.580478 41.212574 17.887787 1.570796 -1.570796 0.000000
  7 17.246233 64.889557 -6.900749 1.570796 1.570796 0.000000
  8 17.841204 63.491673 4.231319 1.570796 1.570796 0.000000
  9 17.187601 42.890415 0.000009 1.570796 1.570796 0.000000
  10 -0.000001 -17.187595 -0.000000 1.551346 -0.272728 1.580582
  11 0.000000 9.251828 0.000000 -0.086902 0.089898 0.237188
  12 3.332965 6.058990 0.446929 -0.062796 -0.226364 -0.488339
  13 -0.000001 4.780090 -0.000000 1.284319 0.253606 -2.959958
  14 0.000000 10.318097 0.000002 0.683573 0.233015 -1.030738
  15 -0.000001 10.229105 -0.000000 -0.433900 0.476322 1.558729
  16 -0.000005 17.897524 0.000003 0.643807 -0.591409 -0.177048
  17 -0.000000 4.707229 0.000000 -1.500065 -0.014389 -0.210664
  18 0.853880 19.378344 -1.848106 -0.306565 -0.409915 0.302601
  19 0.000001 2.947697 0.000001 0.591004 0.259473 -0.900673
  20 3.605762 19.816420 2.346577 0.903588 -2.502658 0.467344
  21 0.002827 4.780092 -0.021077 -1.880463 -0.127749 -0.177834
  22 -0.000000 10.318099 -0.000001 -0.337602 2.498398 0.460269
  23 -0.000001 10.229096 0.000000 1.118343 -0.350034 0.543955
  24 0.000001 17.897495 -0.000004 -0.273399 -0.040292 0.050652
  25 -0.000002 5.176010 -0.000003 0.083193 0.079764 -0.017269
  26 0.755613 18.921970 0.960395 0.381247 -0.147234 0.149823
  27 0.000001 3.158192 0.000003 -0.360353 0.175304 -1.000859
  28 -0.000001 -17.187595 -0.000000 -1.700697 -0.238569 1.940572
  29 0.000001 3.905660 -4.525525 -0.193941 0.200111 -0.148906
  30 -0.000001 13.357021 -0.000001 0.050231 -0.003314 0.209133
  31 0.000006 18.158886 -0.000003 -1.364542 1.609455 -1.571252
  32 0.000000 2.542065 -0.000000 1.558254 0.000018 -0.000000
  33 -0.000000 3.135156 -0.000001 -0.086398 0.000000 0.000000
  34 -0.000001 3.905661 4.546789 0.427123 0.261268 0.791422
  35 0.000001 13.407272 0.000000 -0.003142 0.002856 0.007422
  36 0.000001 18.158882 0.000002 0.644563 -2.112623 -0.393042
  37 0.000001 2.542060 0.000002 1.558254 -3.141546 -0.000000
  38 0.000000 3.135158 -0.000001 -0.091756 0.342973 -0.030933
  39 4.301485 1.405968 0.000000 0.048479 0.073178 0.125894
  40 0.000000 7.030430 -0.000000 -0.073073 -0.048356 0.046527
  time 3
  0 10.413314 8.892239 -20.022829 -0.112484 0.000000 -3.141593
  1 -8.259291 -19.963856 -20.977278 0.526597 0.104906 -2.166749
  2 0.907535 -3.182838 55.465324 -1.570796 0.000000 1.570796
  3 -5.110960 35.228596 -28.044668 1.570796 -1.570795 0.000000
  4 5.852037 46.783031 21.519224 1.570796 -1.570796 0.000000
  5 -17.141829 39.299179 -17.344725 1.570796 -1.570796 0.000000
  6 -13.871047 44.655846 19.176142 1.570796 -1.570796 0.000000
  7 17.299295 69.275009 -8.126627 1.570796 1.570796 0.000000
  8 18.378347 67.103630 2.602569 1.570796 1.570796 0.000000
  9 17.187601 45.351032 0.000009 1.570796 1.570796 0.000000
  10 -0.000001 -17.187595 -0.000000 1.564679 -0.062510 1.468058
  11 -0.000000 9.251827 -0.000000 -0.087858 0.015486 0.000665
  12 3.332967 6.058994 0.446929 -0.085923 -0.226101 -0.559045
  13 -0.000001 4.780090 0.000000 1.284319 0.253606 -2.959958
  14 -0.000002 10.318094 0.000002 0.391552 0.341428 -0.841562
  15 -0.000001 10.229106 -0.000000 -0.433747 0.469624 1.542489
  16 0.000000 17.897520 -0.000000 0.770441 -0.496729 -0.327888
  17 -0.000002 4.707226 -0.000000 -1.502067 -0.013501 -0.212078
  18 0.706940 19.678398 -1.760532 -0.156976 -0.381386 0.162901
  19 -0.000000 2.947696 0.000001 0.591003 0.259473 -0.900673
  20 3.707200 19.503309 2.285278 0.784861 -2.507416 0.483105
  21 0.002826 4.780090 -0.021077 -1.880463 -0.127749 -0.177834
  22 0.000001 10.318097 -0.000000 -0.013022 2.402694 1.143524
  23 -0.000001 10.229101 -0.000002 1.614720 -0.641967 0.612446
  24 0.000003 17.897507 0.000004 -0.255954 0.016061 -0.038823
  25 0.000002 5.176011 0.000000 0.528424 0.174401 -0.425978
  26 0.755615 18.921980 0.960404 0.381247 -0.147234 0.149822
  27 0.000000 3.158195 0.000001 -0.705887 -0.160038 -0.827089
  28 -0.000001 -17.187595 -0.000000 -1.732222 -0.311416 1.981702
  29 0.000002 3.905659 -4.525525 -0.361521 0.192714 -0.408506
  30 0.000000 13.357020 -0.000000 0.168570 -0.066160 0.766648
  31 0.000001 18.158880 -0.000005 -1.364545 1.609454 -1.571257
  32 -0.000000 2.542063 -0.000001 1.558254 0.000018 0.000000
  33 -0.000001 3.135158 0.000003 -0.086398 0.000000 0.000000
  34 -0.000001 3.905660 4.546788 0.498615 0.297716 0.972387
  35 0.000001 13.407271 0.000002 -0.003128 0.002855 0.007388
  36 -0.000000 18.158875 0.000002 0.630279 -2.557851 -0.233347
  37 -0.000001 2.542061 -0.000001 1.558254 -3.141546 -0.000000
  38 0.000001 3.135158 -0.000002 -0.091756 0.342973 -0.030933
  39 4.301485 1.405968 0.000001 0.147108 0.132115 0.443964
  40 -0.000000 7.030431 0.000000 -0.138574 -0.028611 0.522011
  time 4
  0 10.413314 8.892239 -20.022829 -0.112484 0.000000 -3.141593
  1 -8.451933 -20.512327 -21.246805 0.619504 0.043097 -1.802867
  2 0.907535 -3.182838 55.465324 -1.570796 0.000000 1.570796
  3 -1.931516 37.769234 -27.739079 1.570796 -1.570795 0.000000
  4 8.825984 55.932034 18.355288 1.570796 -1.570796 0.000000
  5 -17.141830 39.553322 -17.383911 1.570796 -1.570796 0.000000
  6 -11.757818 48.912483 20.768833 1.570796 -1.570796 0.000000
  7 17.371637 73.378448 -9.465300 1.570796 1.570796 0.000000
  8 18.828386 71.249535 1.237941 1.570796 1.570796 0.000000
  9 17.187601 50.142761 0.000009 1.570796 1.570796 0.000000
  10 -0.000001 -17.187595 -0.000000 1.550322 0.206922 1.369586
  11 -0.000000 9.251829 0.000000 -0.075748 -0.034303 -0.282085
  12 3.332968 6.058992 0.446929 -0.113244 -0.227771 -0.623558
  13 0.000001 4.780091 -0.000001 1.284319 0.253606 -2.959958
  14 -0.000001 10.318098 -0.000002 0.173080 0.558014 -0.728031
  15 -0.000000 10.229102 0.000002 -0.433868 0.488134 1.587505
  16 -0.000005 17.897522 0.000001 0.859461 -0.408773 -0.438777
  17 -0.000002 4.707226 -0.000001 -1.504005 -0.012637 -0.213443
  18 0.586862 19.930958 -1.687821 -0.037818 -0.346739 0.053066
  19 -0.000001 2.947698 0.000000 0.591003 0.259473 -0.900673
  20 3.778011 19.229752 2.300983 0.699732 -2.513608 0.492712
  21 0.002828 4.780091 -0.021078 -1.880463 -0.127749 -0.177834
  22 0.000002 10.318099 0.000001 0.449175 2.382052 1.158199
  23 -0.000001 10.229104 0.000001 1.535115 -0.596382 0.612677
  24 -0.000008 17.897507 0.000009 -0.250487 0.071191 -0.112555
  25 0.000003 5.176012 0.000001 0.906102 0.413655 -0.761495
  26 0.755603 18.921980 0.960408 0.381247 -0.147234 0.149823
  27 -0.000000 3.158196 0.000001 -1.135626 -0.404659 -0.528971
  28 -0.000001 -17.187595 -0.000000 -1.770377 -0.365293 2.007727
  29 0.000002 3.905660 -4.525523 -0.559542 0.114852 -0.700462
  30 -0.000004 13.357017 -0.000002 0.234791 -0.175807 1.294027
  31 0.000004 18.158882 -0.000004 -1.364534 1.609455 -1.571246
  32 0.000000 2.542062 0.000000 1.558254 0.000018 -0.000000
  33 -0.000000 3.135157 -0.000001 -0.086398 0.000000 0.000000
  34 -0.000000 3.905660 4.546790 0.612325 0.530928 0.742574
  35 0.000000 13.407266 0.000001 -0.308797 0.134345 0.800608
  36 -0.000005 18.158882 0.000001 0.656504 -2.914788 -0.134885
  37 -0.000001 2.542062 0.000000 1.558254 -3.141546 0.000000
  38 0.000001 3.135158 -0.000001 -0.091756 0.342973 -0.030934
  39 4.301486 1.405968 0.000001 0.051342 0.109132 0.117981
  40 -0.000000 7.030430 0.000000 -0.161637 -0.011724 0.718984
  time 5
  0 10.413314 8.892239 -20.022829 -0.112484 0.000000 -3.141593
  1 -8.532717 -21.310543 -21.354929 0.657875 -0.000000 -1.665647
  2 0.907535 -3.182838 55.465324 -1.570796 0.000000 1.570796
  3 6.628526 44.609417 -26.916340 1.570796 -1.570795 0.000000
  4 11.799929 65.081039 15.191349 1.570796 -1.570796 0.000000
  5 -17.141830 40.511261 -17.389509 1.570796 -1.570796 0.000000
  6 -9.402304 53.657150 22.544123 1.570796 -1.570796 0.000000
  7 17.462149 76.025131 -10.698947 1.570796 1.570796 0.000000
  8 19.017115 75.403870 0.665678 1.570796 1.570796 0.000000
  9 17.187603 58.042633 0.000010 1.570796 1.570796 0.000000
  10 -0.000001 -17.187595 -0.000000 1.516232 0.459586 1.316665
  11 0.000001 9.251827 0.000001 -0.070295 -0.055017 -0.513521
  12 3.332967 6.058994 0.446929 -0.141746 -0.231979 -0.661884
  13 -0.000000 4.780093 0.000000 1.284319 0.253606 -2.959958
  14 0.000001 10.318101 -0.000001 0.259370 0.861283 -0.458437
  15 0.000000 10.229107 0.000001 -0.432286 0.515565 1.655151
  16 -0.000007 17.897532 -0.000004 0.893394 -0.370507 -0.482190
  17 -0.000001 4.707228 -0.000001 -1.505882 -0.011799 -0.214760
  18 0.537167 20.037134 -1.657477 0.010425 -0.330029 0.008931
  19 -0.000001 2.947697 0.000000 0.591003 0.259473 -0.900673
  20 3.798406 19.030006 2.434329 0.669955 -2.519382 0.492243
  21 0.002826 4.780093 -0.021077 -1.880463 -0.127749 -0.177834
  22 0.000003 10.318097 0.000001 0.727756 2.120412 1.225817
  23 -0.000000 10.229103 0.000004 1.673704 -0.674652 0.609408
  24 0.000002 17.897493 0.000004 -0.252317 0.104425 -0.162934
  25 -0.000001 5.176007 -0.000002 1.037772 0.534690 -0.871957
  26 0.755613 18.921968 0.960402 0.381247 -0.147234 0.149822
  27 -0.000001 3.158194 0.000000 -1.347757 -0.463783 -0.366745
  28 -0.000001 -17.187595 -0.000000 -1.814879 -0.384288 2.026010
  29 0.000004 3.905656 -4.525524 -0.775164 -0.161098 -1.109391
  30 -0.000002 13.357017 -0.000002 0.231847 -0.316996 1.888030
  31 -0.000002 18.158886 0.000001 -1.364548 1.609455 -1.571253
  32 0.000000 2.542066 -0.000000 1.558254 0.000018 -0.000000
  33 -0.000000 3.135158 0.000000 -0.086398 0.000000 0.000000
  34 -0.000000 3.905660 4.546789 0.777722 0.627490 0.766450
  35 0.000000 13.407266 -0.000002 -0.420451 0.324884 1.301727
  36 0.000003 18.158875 -0.000000 0.684027 -3.049982 -0.085254
  37 0.000001 2.542063 -0.000001 1.558254 -3.141546 0.000000
  38 0.000001 3.135157 -0.000001 -0.091756 0.342973 -0.030934
  39 4.301486 1.405966 0.000000 -0.029108 0.042219 -0.202024
  40 0.000001 7.030431 -0.000000 -0.092615 -0.017387 -0.097586
  time 6
  0 10.322341 7.970633 -20.083143 -0.093724 0.057679 -2.846279
  1 -8.461324 -21.590488 -21.317926 0.656868 0.001709 -1.700523
  2 0.907535 -3.182838 55.465324 -1.570796 0.000000 1.570796
  3 6.628526 44.203213 -26.253561 1.570796 -1.570795 0.000000
  4 14.773877 74.230042 12.027412 1.570796 -1.570796 0.000000
  5 -17.188070 45.078766 -18.884039 1.570796 -1.570796 0.000000
  6 -6.966032 58.564495 24.380281 1.570796 -1.570796 0.000000
  7 17.568026 77.311554 -11.653722 1.570796 1.570796 0.000000
  8 19.016300 75.413773 0.669924 1.570796 1.570796 0.000000
  9 17.246185 58.172676 0.000010 1.570796 1.570796 0.000000
  10 -0.000001 -17.187595 -0.000000 1.462415 0.595903 1.334791
  11 -0.000000 9.251829 0.000001 -0.129376 -0.060867 -0.610687
  12 3.332968 6.058994 0.446928 -0.165953 -0.238479 -0.677442
  13 -0.000001 4.780092 0.000000 1.284319 0.253606 -2.959958
  14 0.000001 10.318100 -0.000001 -0.604970 0.812381 -1.192317
  15 -0.000001 10.229104 -0.000000 -0.428517 0.542830 1.723919
  16 -0.000002 17.897518 -0.000004 0.911941 -0.592157 -0.460506
  17 -0.000003 4.707223 -0.000000 -1.507697 -0.010983 -0.216030
  18 0.919031 19.820902 -1.896420 -0.095070 -0.532488 0.080470
  19 -0.000000 2.947696 0.000001 0.591003 0.259473 -0.900673
  20 3.291745 19.288166 2.860155 0.869227 -2.665750 0.418508
  21 0.002827 4.780092 -0.021077 -1.880463 -0.127748 -0.177834
  22 0.000002 10.318097 0.000004 -0.199354 1.755556 -0.548886
  23 0.000001 10.229100 0.000004 1.062046 -0.318488 0.526546
  24 -0.000001 17.897507 0.000003 -0.256593 0.116194 -0.190943
  25 0.000001 5.176009 0.000001 1.037773 0.534690 -0.871957
  26 0.755610 18.921978 0.960404 0.381247 -0.147234 0.149822
  27 0.000002 3.158198 -0.000003 -1.347757 -0.463783 -0.366745
  28 -0.000001 -17.187595 -0.000000 -1.850871 -0.243810 2.021739
  29 0.000001 3.905662 -4.525524 -0.899962 -0.055185 -1.254319
  30 -0.000001 13.357021 -0.000002 0.229236 -0.324155 1.920165
  31 0.000001 18.158897 -0.000002 0.048290 1.278338 -0.153868
  32 0.000000 2.542065 0.000000 1.558254 0.000018 -0.000000
  33 0.000001 3.135157 0.000002 -0.086398 0.000000 0.000000
  34 -0.000001 3.905659 4.546789 0.879457 0.622315 0.664634
  35 -0.000003 13.407276 -0.000002 -0.423558 0.336119 1.328181
  36 -0.000001 18.158882 -0.000000 0.683384 -3.015199 -0.088336
  37 0.000001 2.542064 0.000000 1.558254 -3.141546 0.000000
  38 0.000001 3.135157 -0.000001 -0.091756 0.342973 -0.030933
  39 4.301486 1.405967 0.000000 -0.006380 0.020018 -0.138275
  40 0.000000 7.030432 0.000001 -0.019260 0.037893 -0.912097
  time 7
  0 10.231365 6.623671 -20.171289 0.004928 0.182162 -2.537061
  1 -8.247143 -22.430336 -21.206915 0.653415 0.006721 -1.807551
  2 0.907535 -3.182838 55.465324 -1.570796 0.000000 1.570796
  3 6.628525 44.089664 -23.896288 1.570796 -1.570795 0.000000
  4 14.769242 74.230659 12.028666 1.570796 -1.570796 0.000000
  5 -17.349916 37.577721 -24.497896 1.570796 -1.570796 0.000000
  6 -4.610520 63.309162 26.155575 1.570796 -1.570796 0.000000
  7 17.679754 78.173874 -12.331684 1.570796 1.570796 0.000000
  8 19.004080 75.562286 0.733610 1.570796 1.570796 0.000000
  9 17.656252 59.082985 0.000010 1.570796 1.570796 0.000000
  10 -0.000001 -17.187595 -0.000000 1.486307 0.565430 1.387468
  11 -0.000001 9.251828 0.000002 -0.138244 -0.041465 -0.590984
  12 3.332966 6.058993 0.446928 -0.183074 -0.246421 -0.687611
  13 -0.000000 4.780092 -0.000000 1.284319 0.253606 -2.959958
  14 0.000001 10.318099 -0.000000 -0.338088 0.759087 -1.404599
  15 -0.000002 10.229103 -0.000001 -0.404016 0.620488 1.933327
  16 -0.000002 17.897520 -0.000002 1.120784 -0.403734 -0.390442
  17 -0.000001 4.707224 0.000001 -1.509453 -0.010191 -0.217253
  18 0.552450 20.201788 -1.566385 0.193478 -0.460168 0.116081
  19 -0.000001 2.947696 -0.000000 0.591004 0.259473 -0.900674
  20 3.509296 19.004498 2.701679 0.580036 -2.717826 0.715325
  21 0.002826 4.780091 -0.021077 -1.880463 -0.127749 -0.177834
  22 0.000002 10.318096 0.000003 -0.307700 1.877871 -0.638161
  23 0.000002 10.229098 0.000004 1.093499 -0.336002 0.536483
  24 -0.000001 17.897499 0.000002 -0.264409 0.121036 -0.206097
  25 0.000001 5.176007 -0.000001 1.037772 0.534690 -0.871957
  26 0.755611 18.921972 0.960403 0.381247 -0.147234 0.149822
  27 0.000001 3.158194 0.000000 -1.347757 -0.463783 -0.366745
  28 -0.000001 -17.187595 -0.000000 -1.859092 0.129853 1.983203
  29 0.000002 3.905663 -4.525524 -1.016402 -0.056887 -1.661461
  30 -0.000003 13.357017 -0.000001 0.220147 -0.344644 2.015000
  31 -0.000007 18.158888 -0.000004 -0.186893 0.956678 -0.344694
  32 0.000000 2.542061 -0.000000 1.558254 0.000018 0.000000
  33 0.000002 3.135156 -0.000000 -0.086398 0.000000 0.000000
  34 -0.000002 3.905662 4.546789 1.014838 0.666891 0.320325
  35 -0.000002 13.407274 -0.000001 -0.429717 0.363138 1.391427
  36 -0.000000 18.158880 0.000005 0.682071 -2.908458 -0.097780
  37 -0.000004 2.542063 -0.000001 1.558254 -3.141546 0.000000
  38 -0.000001 3.135158 -0.000002 -0.091756 0.342973 -0.030934
  39 4.301485 1.405967 0.000000 0.037352 0.008758 0.001981
  40 0.000001 7.030431 -0.000001 0.023965 0.030794 -0.756087
  time 8
  0 11.924326 5.570783 -20.240191 -0.328200 0.437131 -2.908870
  1 -7.890175 -23.830074 -21.021902 0.646244 0.014425 -1.992877
  2 0.907535 -3.182838 55.465324 -1.570796 0.000000 1.570796
  3 6.628523 43.976120 -21.539013 1.570796 -1.570795 0.000000
  4 14.625578 74.249893 12.067546 1.570796 -1.570796 0.000000
  5 -18.390362 36.779175 -22.434391 1.570796 -1.570796 0.000000
  6 -2.497287 67.565811 27.748266 1.570796 -1.570796 0.000000
  7 17.786142 78.696922 -12.778860 1.570796 1.570796 0.000000
  8 18.951124 76.205833 1.009586 1.570796 1.570796 0.000000
  9 18.769297 61.553810 0.000010 1.570796 1.570796 0.000000
  10 -0.000001 -17.187595 -0.000000 1.503604 0.532883 1.417299
  11 -0.000001 9.251826 0.000001 -0.140146 -0.023376 -0.525074
  12 3.332969 6.058993 0.446929 -0.194333 -0.254532 -0.693540
  13 0.000001 4.780092 0.000001 1.284319 0.253606 -2.959958
  14 0.000000 10.318097 0.000000 -0.433723 0.810372 -1.837562
  15 0.000000 10.229105 -0.000002 -0.375627 0.669137 2.081199
  16 -0.000002 17.897520 -0.000001 0.958278 -0.382441 -0.240364
  17 -0.000001 4.707226 0.000000 -1.511150 -0.009420 -0.218431
  18 0.263052 19.829088 -1.652884 0.063913 -0.362361 0.252358
  19 -0.000001 2.947696 0.000000 0.591003 0.259473 -0.900673
  20 3.564607 19.473850 2.484909 0.637282 -2.577590 0.770185
  21 0.002827 4.780091 -0.021077 -1.880463 -0.127749 -0.177834
  22 0.000003 10.318096 0.000001 -0.187926 1.993612 -0.315251
  23 -0.000000 10.229104 0.000000 1.292078 -0.451759 0.586224
  24 -0.000002 17.897509 -0.000003 -0.278631 0.120276 -0.212997
  25 0.000001 5.176011 -0.000001 1.037773 0.534690 -0.871957
  26 0.755613 18.921984 0.960398 0.381247 -0.147234 0.149822
  27 -0.000002 3.158195 0.000002 -1.347757 -0.463783 -0.366746
  28 -0.000001 -17.187595 -0.000000 -1.824869 0.640648 1.943541
  29 0.000002 3.905660 -4.525524 -0.803490 -0.435481 -2.137327
  30 -0.000003 13.357022 -0.000000 0.204165 -0.371384 2.147343
  31 0.000001 18.158895 0.000003 -0.687334 1.114860 -1.165221
  32 0.000002 2.542060 0.000000 1.558254 0.000018 -0.000000
  33 0.000001 3.135158 -0.000001 -0.086398 0.000000 0.000000
  34 -0.000000 3.905661 4.546789 1.052494 0.717856 -0.180016
  35 0.000002 13.407273 -0.000002 -0.432381 0.378367 1.426949
  36 -0.000002 18.158882 -0.000006 0.682273 -2.723669 -0.114632
  37 -0.000002 2.542064 -0.000002 1.558254 -3.141546 -0.000000
  38 -0.000003 3.135155 -0.000001 -0.091756 0.342973 -0.030933
  39 4.301485 1.405968 0.000001 0.079417 -0.000317 0.142100
  40 0.000001 7.030433 0.000001 0.054438 -0.016769 -0.412226
  time 9
  0 13.617288 -0.098012 -20.611170 -0.781487 0.367952 2.726887
  1 -7.390420 -25.789711 -20.762884 0.633594 0.022967 -2.262181
  2 0.907535 -3.182838 55.465324 -1.570796 0.000000 1.570796
  3 20.139809 47.956192 -22.087343 1.570796 -1.570795 0.000000
  4 13.647728 74.380806 12.332179 1.570796 -1.570796 0.000000
  5 -25.230196 40.618183 -17.039640 1.570796 -1.570796 0.000000
  6 -0.787857 71.009079 29.036619 1.570796 -1.570796 0.000000
  7 17.875992 78.965515 -13.041283 1.570796 1.570796 0.000000
  8 18.808556 77.938461 1.752598 1.570796 1.570796 0.000000
  9 20.936802 66.365425 0.000012 1.570796 1.570796 0.000000
  10 -0.000001 -17.187595 -0.000000 1.502442 0.564694 1.419800
  11 0.000001 9.251827 0.000000 -0.135062 -0.008167 -0.404698
  12 3.332967 6.058994 0.446929 -0.200932 -0.261659 -0.696380
  13 -0.000000 4.780092 0.000001 1.284319 0.253606 -2.959958
  14 0.000001 10.318100 -0.000001 1.015727 1.023804 0.076602
  15 0.000002 10.229108 -0.000001 -0.433638 0.495870 1.606455
  16 -0.000007 17.897526 -0.000001 0.914916 -0.137510 -0.683551
  17 -0.000001 4.707225 0.000001 -1.512789 -0.008671 -0.219563
  18 0.193668 20.610147 -1.217371 0.150246 -0.094480 -0.223657
  19 0.000000 2.947699 -0.000002 0.591004 0.259473 -0.900674
  20 3.769142 18.393776 1.845510 0.369382 -2.404943 0.459548
  21 0.002827 4.780093 -0.021076 -1.880463 -0.127748 -0.177834
  22 0.000001 10.318094 0.000004 -0.161128 2.144068 0.283796
  23 -0.000002 10.229097 0.000002 1.759758 -0.720298 0.600656
  24 -0.000006 17.897507 0.000000 -0.302309 0.115220 -0.216213
  25 0.000000 5.176009 -0.000000 1.037772 0.534690 -0.871957
  26 0.755609 18.921982 0.960401 0.381247 -0.147234 0.149822
  27 -0.000001 3.158195 0.000000 -1.347757 -0.463783 -0.366746
  28 -0.000001 -17.187595 -0.000000 1.432971 2.023846 -1.152553
  29 0.000001 3.905659 -4.525524 -0.854538 -0.774399 -2.182847
  30 -0.000004 13.357016 -0.000000 0.153084 -0.423760 2.459376
  31 -0.000004 18.158888 -0.000002 1.419061 2.094427 0.630008
  32 0.000002 2.542063 -0.000000 1.558254 0.000018 -0.000000
  33 0.000000 3.135159 0.000001 -0.086398 0.000000 0.000000
  34 -0.000003 3.905660 4.546789 1.011882 0.607699 -0.549514
  35 -0.000001 13.407265 0.000002 -0.424859 0.341210 1.340131
  36 0.000001 18.158875 -0.000006 0.689708 -2.455351 -0.143027
  37 0.000002 2.542063 0.000002 1.558254 -3.141546 0.000000
  38 0.000002 3.135157 -0.000000 -0.091756 0.342973 -0.030933
  39 4.301483 1.405968 0.000000 0.097883 -0.004827 0.205121
  40 0.000000 7.030430 -0.000000 0.055230 -0.072355 -0.061807
  time 10
  0 10.735297 -16.165110 -21.669634 -0.176878 0.212338 2.625134
  1 -6.747878 -28.309242 -20.429861 0.614642 0.028511 -2.611395
  2 0.907535 -3.182838 55.465324 -1.570796 0.000000 1.570796
  3 31.117729 58.530670 -24.995337 1.570796 -1.570795 0.000000
  4 10.028303 74.865364 13.311696 1.570796 -1.570796 0.000000
  5 -20.559172 77.103188 -16.733501 1.570796 -1.570796 0.000000
  6 0.356248 73.313644 29.898905 1.570796 -1.570796 0.000000
  7 17.938110 79.064468 -13.164980 1.570796 1.570796 0.000000
  8 18.507942 81.591827 3.319292 1.570796 1.570796 0.000000
  9 24.510260 74.298088 0.000014 1.570796 1.570796 0.000000
  10 -0.000001 -17.187595 -0.000000 1.496414 0.792263 1.438311
  11 -0.000000 9.251828 0.000001 -0.066874 -0.043055 -0.270146
  12 3.332967 6.058992 0.446928 -0.204045 -0.266713 -0.697267
  13 -0.000000 4.780093 0.000000 1.284319 0.253606 -2.959958
  14 0.000002 10.318097 0.000000 1.075453 1.058977 1.232683
  15 -0.000003 10.229107 -0.000001 -0.368213 0.260773 1.027711
  16 -0.000004 17.897512 0.000002 0.912146 -0.542185 -0.426004
  17 -0.000001 4.707225 0.000001 -1.514371 -0.007942 -0.220650
  18 0.707272 19.913250 -1.771042 -0.039351 -0.445972 0.081006
  19 -0.000000 2.947694 0.000001 0.591004 0.259473 -0.900674
  20 3.325315 19.276798 2.650117 0.791559 -2.636030 0.467852
  21 0.002827 4.780091 -0.021077 -1.880463 -0.127749 -0.177834
  22 0.000001 10.318098 0.000000 -1.116577 2.651282 0.854260
  23 -0.000007 10.229104 -0.000003 2.513568 -0.987176 0.344887
  24 0.000009 17.897516 0.000001 -0.318983 0.018626 0.012982
  25 0.000001 5.176015 0.000005 0.715804 0.251061 -0.633959
  26 0.755623 18.921989 0.960401 0.381247 -0.147234 0.149822
  27 0.000003 3.158194 -0.000000 -1.001140 -0.355443 -0.562018
  28 -0.000001 -17.187595 -0.000000 1.941660 1.730230 -0.695001
  29 0.000002 3.905660 -4.525523 -1.184505 0.683076 -1.156996
  30 0.000000 13.357018 0.000001 0.239664 -0.288356 1.763294
  31 -0.000001 18.158888 -0.000004 0.474002 2.114086 0.269580
  32 -0.000000 2.542064 -0.000002 1.558254 0.000018 0.000000
  33 0.000000 3.135157 0.000001 -0.086398 0.000000 0.000000
  34 0.000003 3.905661 4.546789 1.031519 0.124066 -0.596585
  35 0.000002 13.407276 -0.000002 -0.350003 0.182809 0.943916
  36 -0.000001 18.158886 0.000002 0.725504 -2.108256 -0.202396
  37 0.000000 2.542063 0.000000 1.558254 -3.141546 -0.000000
  38 -0.000000 3.135158 0.000000 -0.091756 0.342973 -0.030933
  39 4.301483 1.405968 0.000001 0.085537 -0.003452 0.187270
  40 0.000001 7.030430 0.000001 0.046805 -0.094963 0.091393
  time 11
  0 7.502175 -27.190941 -22.398188 0.000000 -0.000000 2.640319
  1 -5.962548 -31.388672 -20.022829 0.591947 0.026423 -3.015186
  2 0.907535 -3.182838 55.465324 -1.570796 0.000000 1.570796
  3 33.651096 76.396858 -22.635675 1.570796 -1.570795 0.000000
  4 0.291538 76.168892 15.946735 1.570796 -1.570796 0.000000
  5 -33.318554 83.565521 -16.689772 1.570796 -1.570796 0.000000
  6 0.773510 74.154121 30.213383 1.570796 -1.570796 0.000000
  7 17.961304 79.078606 -13.195984 1.570796 1.570796 0.000000
  8 17.961298 88.235222 6.168213 1.570796 1.570796 0.000000
  9 24.510260 74.298088 0.000014 1.570796 1.570796 0.000000
  10 -0.000001 -17.187595 -0.000000 1.570794 1.413603 1.570794
  11 0.000000 9.251829 0.000000 -0.004102 -0.086477 -0.138549
  12 3.332966 6.058994 0.446928 -0.204827 -0.268631 -0.697318
  13 0.000001 4.780091 -0.000000 1.284319 0.253606 -2.959958
  14 0.000001 10.318099 -0.000001 0.265942 1.478742 0.841460
  15 0.000000 10.229111 0.000000 -0.416972 0.368260 1.298872
  16 -0.000003 17.897520 -0.000002 0.865939 -0.335273 -0.520857
  17 -0.000001 4.707226 0.000000 -1.515897 -0.007232 -0.221693
  18 0.419596 20.041754 -1.706771 0.029632 -0.245310 -0.059078
  19 -0.000001 2.947696 -0.000002 0.591004 0.259473 -0.900673
  20 3.754226 18.847490 2.088169 0.612110 -2.472527 0.451586
  21 0.002827 4.780091 -0.021077 -1.880463 -0.127749 -0.177833
  22 -0.000000 10.318099 0.000001 -0.341090 -2.812490 0.106574
  23 -0.000002 10.229100 -0.000004 1.450407 -0.546510 0.608040
  24 0.000003 17.897505 -0.000001 -0.342122 -0.071393 0.243665
  25 -0.000000 5.176010 0.000000 0.349165 0.058343 -0.327910
  26 0.755617 18.921978 0.960401 0.381247 -0.147234 0.149822
  27 -0.000002 3.158193 -0.000002 -0.694310 -0.195412 -0.702197
  28 -0.000001 -17.187595 -0.000000 2.806317 1.719676 0.112623
  29 0.000002 3.905660 -4.525523 0.078306 1.204711 -0.089746
  30 -0.000001 13.357023 -0.000000 0.143055 -0.044765 0.630446
  31 -0.000000 18.158878 0.000001 -0.067058 2.076551 -0.151411
  32 -0.000002 2.542064 0.000000 1.558254 0.000018 -0.000000
  33 0.000002 3.135157 -0.000000 -0.086398 0.000000 0.000000
  34 0.000003 3.905663 4.546791 0.728949 0.027297 -0.440205
  35 0.000004 13.407280 -0.000001 -0.204179 0.055078 0.499384
  36 -0.000001 18.158886 -0.000001 1.043697 -1.715714 -0.545244
  37 -0.000001 2.542064 -0.000002 1.558254 -3.141546 0.000000
  38 -0.000001 3.135158 -0.000003 -0.091756 0.342973 -0.030933
  39 4.301486 1.405969 0.000000 0.000000 0.000000 0.063895
  40 -0.000003 7.030430 0.000001 -0.000000 0.000000 -0.151285
end
