version 1
nodes
0 "ShinIK.R" -1
1 "ShinIK.L" -1
2 "All.000" -1
3 "ForearmIK.R" 2
4 "ForearmIK.L" 2
5 "UpperarmIK.R" 2
6 "UpperarmIK.L" 2
7 "KneeIK.R" 2
8 "KneeIK.L" 2
9 "Spine.009" 2
10 "Spine.001" 9
11 "Spine.002" 10
12 "Spine.004" 11
13 "Arm.R.001" 11
14 "Arm.R.002" 13
15 "Arm.R.003" 14
16 "Arm.R.004" 15
17 "Arm.R.005" 16
18 "Arm.R.006" 15
19 "Arm.R.007" 18
20 "Wep.000" 15
21 "Arm.L.001" 11
22 "Arm.L.002" 21
23 "Arm.L.003" 22
24 "Arm.L.004" 23
25 "Arm.L.005" 24
26 "Arm.L.006" 23
27 "Arm.L.007" 26
28 "Spine.000" 9
29 "Leg.R.001" 28
30 "Leg.R.002" 29
31 "Leg.R.003" 30
32 "Leg.R.004" 31
33 "Leg.R.005" 32
34 "Leg.L.001" 28
35 "Leg.L.002" 34
36 "Leg.L.003" 35
37 "Leg.L.004" 36
38 "Leg.L.005" 37
39 "Loincloth.000" 28
40 "Loincloth.001" 39
end
skeleton
  time 0
  0 7.268085 -21.130533 -15.931740 -0.029194 0.000000 -3.141593
  1 -5.962544 18.873014 -12.099874 0.413855 0.000000 3.141593
  2 0.907535 -3.182838 55.465324 -1.570796 0.000000 1.570796
  3 12.817963 53.337929 -13.892647 1.570796 -1.570795 0.000000
  4 16.558933 47.218704 15.967008 1.570796 -1.570796 0.000000
  5 -17.141827 32.869919 -21.823339 1.570796 -1.570796 0.000000
  6 -11.850057 43.138416 22.623577 1.570796 -1.570796 0.000000
  7 36.492535 78.911888 -13.130214 1.570796 1.570796 0.000000
  8 26.355848 59.971516 5.158387 1.570796 1.570796 0.000000
  9 17.187601 41.430359 0.000009 1.570796 1.570796 0.000000
  10 -0.000001 -17.187595 -0.000000 1.500912 0.239201 1.554213
  11 -0.000001 9.251829 0.000000 -0.079380 0.116535 -0.406281
  12 3.332968 6.058992 0.446928 0.136712 -0.021957 -0.341728
  13 -0.000000 4.780091 0.000000 1.284319 0.253606 -2.959958
  14 0.000001 10.318099 0.000002 -0.684106 0.127591 0.584800
  15 -0.000001 10.229102 0.000000 -0.268529 0.148318 0.682886
  16 -0.000004 17.897509 0.000003 0.557683 -0.540881 0.100091
  17 0.000000 4.707226 -0.000000 -1.528300 -0.001082 -0.229836
  18 0.728844 19.043217 -1.873962 -0.344405 -0.342683 0.561142
  19 -0.000001 2.947695 0.000000 0.591003 0.259473 -0.900673
  20 3.428581 20.943239 2.264679 1.104894 -2.377475 0.684445
  21 0.002827 4.780091 -0.021077 -1.880463 -0.127749 -0.177834
  22 0.000000 10.318098 -0.000000 0.151528 1.890181 -0.157772
  23 -0.000001 10.229100 -0.000000 1.218792 -0.408243 0.570607
  24 0.000002 17.897503 0.000004 0.200150 1.177644 0.736645
  25 -0.000001 5.176008 0.000000 0.639256 0.043897 -0.897213
  26 1.018114 18.909685 0.424827 0.948147 0.856632 0.665099
  27 0.000000 3.158195 -0.000000 -0.837782 -0.199800 -0.549748
  28 -0.000001 -17.187595 -0.000000 -1.570796 -0.000000 1.416035
  29 0.000001 3.905659 -4.525525 -0.179681 0.013801 0.438196
  30 0.000002 13.357018 -0.000002 0.053980 -0.004141 0.224988
  31 0.000001 18.158888 -0.000001 -1.447843 1.609456 -1.571261
  32 -0.000001 2.542064 -0.000001 1.558254 0.000018 0.000000
  33 0.000001 3.135159 0.000002 -0.086398 0.000000 0.000000
  34 -0.000002 3.905660 4.546789 0.258076 0.110106 -0.952734
  35 0.000000 13.407273 -0.000001 -0.156421 0.032723 0.376782
  36 0.000002 18.158886 -0.000003 -1.251787 -1.532149 1.571420
  37 -0.000000 2.542064 -0.000000 1.558254 -3.141546 0.000000
  38 -0.000000 3.135158 -0.000000 -0.091756 0.342973 -0.030933
  39 4.301485 1.405968 0.000001 -0.028807 0.386164 -0.228675
  40 0.000000 7.030431 -0.000000 0.125731 0.011013 -0.067506
  time 1
  0 7.268085 -15.485830 -8.454771 -0.029194 0.000000 -3.141593
  1 -5.962544 16.518490 -19.847342 0.476577 0.000000 3.141593
  2 0.907535 -3.182838 55.465324 -1.570796 0.000000 1.570796
  3 11.052246 44.453773 3.623977 1.570796 -1.570795 0.000000
  4 -7.145574 53.388931 16.892733 1.570796 -1.570796 0.000000
  5 2.850858 35.779690 -22.828856 1.570796 -1.570796 0.000000
  6 -17.141836 50.224304 5.335395 1.570796 -1.570796 0.000000
  7 36.492531 78.659683 -13.030717 1.570796 1.570796 0.000000
  8 26.355850 59.971516 3.282995 1.570796 1.570796 0.000000
  9 17.187601 47.009056 0.000009 1.570796 1.570796 0.000000
  10 -0.000001 -17.187595 -0.000000 1.444803 0.256546 1.644833
  11 -0.000000 9.251827 0.000001 -0.208543 0.271976 -0.403641
  12 3.332968 6.058993 0.446929 0.284758 -0.209126 -0.332635
  13 -0.000000 4.780091 0.000000 1.284319 0.253606 -2.959958
  14 -0.000001 10.318096 0.000001 -0.367931 -0.029181 0.721701
  15 0.000001 10.229101 0.000000 -0.411149 0.603940 1.886502
  16 0.000002 17.897516 -0.000004 0.501053 -0.709393 -0.007064
  17 -0.000001 4.707227 -0.000002 -1.529278 -0.000547 -0.230436
  18 1.074862 19.060043 -1.941355 -0.472039 -0.472270 0.471468
  19 0.000000 2.947696 0.000000 0.591003 0.259473 -0.900673
  20 3.290202 20.779575 2.548908 1.266015 -2.501701 0.439650
  21 0.002825 4.780093 -0.021076 -1.880463 -0.127749 -0.177833
  22 0.000001 10.318095 0.000000 -2.283386 0.459495 -1.469903
  23 -0.000001 10.229099 -0.000001 1.581177 -0.622944 0.613087
  24 -0.000002 17.897501 -0.000002 -0.436901 0.982949 0.199939
  25 0.000001 5.176010 -0.000001 0.471437 -0.027953 -0.775141
  26 0.879481 19.063446 0.435578 0.189216 0.612755 0.209354
  27 0.000000 3.158195 0.000000 -0.837782 -0.199801 -0.549748
  28 -0.000001 -17.187595 -0.000000 -1.668767 -0.060554 1.162550
  29 0.000001 3.905659 -4.525524 -0.112207 -0.484020 -0.582997
  30 -0.000000 13.357018 -0.000000 0.225715 -0.332772 1.959486
  31 -0.000001 18.158884 -0.000000 -1.447843 1.609456 -1.571259
  32 -0.000000 2.542062 0.000002 1.558254 0.000018 0.000000
  33 0.000000 3.135158 -0.000002 -0.086430 0.005087 0.005998
  34 -0.000000 3.905660 4.546788 0.576409 0.060072 -0.861042
  35 0.000000 13.407271 -0.000003 -0.232603 0.071989 0.575698
  36 -0.000000 18.158876 -0.000003 -1.189040 -1.532152 1.571394
  37 -0.000000 2.542062 0.000001 1.558254 -3.141546 -0.000000
  38 -0.000000 3.135157 0.000001 -0.091756 0.342973 -0.030933
  39 4.301485 1.405968 -0.000000 0.085870 -0.242698 -0.399134
  40 0.000001 7.030430 0.000001 -0.061160 0.026285 0.169375
  time 2
  0 7.691066 -6.827881 -8.629215 0.059104 0.000000 -3.141593
  1 -6.275075 1.563380 -19.518499 -0.157063 0.022359 -3.004887
  2 0.907535 -3.182838 55.465324 -1.570796 0.000000 1.570796
  3 10.799992 42.224323 13.362224 1.570796 -1.570795 0.000000
  4 -1.959949 54.400764 15.988155 1.570796 -1.570796 0.000000
  5 11.211088 38.689461 -22.972504 1.570796 -1.570796 0.000000
  6 -16.668415 48.303429 9.982673 1.570796 -1.570796 0.000000
  7 36.492493 78.404716 -12.930131 1.570796 1.570796 0.000000
  8 26.355850 59.971519 2.273167 1.570796 1.570796 0.000000
  9 17.187601 45.562725 0.000009 1.570796 1.570796 0.000000
  10 -0.000001 -17.187595 -0.000000 1.390253 0.278725 1.734792
  11 -0.000001 9.251828 -0.000000 -0.346268 0.427993 -0.423101
  12 3.332967 6.058992 0.446928 0.197516 -0.190405 -0.347809
  13 0.000001 4.780090 -0.000000 1.284319 0.253606 -2.959958
  14 0.000001 10.318099 -0.000000 -0.446660 0.386590 1.214500
  15 -0.000001 10.229101 -0.000001 -0.426921 0.408844 1.396474
  16 -0.000002 17.897511 0.000001 0.782839 -0.898228 -0.387199
  17 0.000001 4.707227 -0.000000 -1.530211 -0.000024 -0.231000
  18 1.574814 19.338343 -1.892701 -0.391125 -0.734778 0.249435
  19 -0.000000 2.947695 0.000000 0.591003 0.259472 -0.900673
  20 2.658722 20.040966 2.841328 1.192570 -2.764790 0.300027
  21 0.002828 4.780089 -0.021078 -1.880463 -0.127749 -0.177834
  22 -0.000001 10.318098 0.000002 0.377145 2.261457 0.594995
  23 0.000002 10.229098 0.000001 1.535633 -0.596683 0.612690
  24 0.000001 17.897499 -0.000005 -0.443769 0.964198 0.133106
  25 -0.000000 5.176010 -0.000003 0.511378 -0.030585 -0.712583
  26 0.921242 19.017221 0.421488 0.170808 0.764385 -0.027528
  27 0.000000 3.158194 -0.000001 -0.815324 -0.200531 -0.573608
  28 -0.000001 -17.187595 -0.000000 -1.639203 -0.049100 1.284332
  29 0.000001 3.905660 -4.525526 -0.085596 -0.335753 -1.181434
  30 0.000001 13.357018 -0.000001 0.209191 -0.363857 2.108879
  31 -0.000002 18.158880 -0.000001 1.605452 1.532135 1.570332
  32 -0.000000 2.542063 0.000000 1.558254 0.000018 0.000000
  33 -0.000000 3.135155 -0.000000 -0.086366 0.017914 0.021096
  34 -0.000001 3.905660 4.546789 0.532260 0.120752 -0.705063
  35 -0.000002 13.407273 -0.000000 -0.393695 0.255294 1.133718
  36 0.000002 18.158880 -0.000005 0.240935 -1.723342 -0.491144
  37 -0.000000 2.542063 0.000000 1.558254 -3.141546 0.000000
  38 -0.000000 3.135158 -0.000002 -0.037749 0.332707 0.044513
  39 4.301486 1.405967 0.000001 0.315572 -0.850151 -0.587369
  40 0.000001 7.030431 -0.000002 -0.244027 0.074550 0.313279
  time 3
  0 8.621621 3.914846 -9.850306 0.255598 0.000000 -3.141593
  1 -6.587605 -13.391727 -17.435461 0.166695 -0.000000 -2.868101
  2 0.907535 -3.182838 55.465324 -1.570796 0.000000 1.570796
  3 14.284881 45.468975 8.713800 1.570796 -1.570795 0.000000
  4 3.232485 51.018959 12.535671 1.570796 -1.570796 0.000000
  5 -0.244379 38.298592 -19.524094 1.570796 -1.570796 0.000000
  6 -15.528345 44.077499 20.206697 1.570796 -1.570796 0.000000
  7 36.492397 78.147118 -12.828509 1.570796 1.570796 0.000000
  8 26.355848 59.971516 5.158387 1.570796 1.570796 0.000000
  9 17.187601 42.876686 0.000009 1.570796 1.570796 0.000000
  10 -0.000001 -17.187595 -0.000000 1.517003 0.283490 1.831257
  11 0.000002 9.251827 0.000000 -0.498109 0.578198 -0.468942
  12 3.332968 6.058991 0.446929 0.003427 -0.150036 -0.386948
  13 0.000001 4.780090 0.000000 1.284319 0.253606 -2.959958
  14 0.000001 10.318098 0.000000 -1.179849 0.106778 0.193870
  15 0.000001 10.229102 -0.000001 -0.431558 0.439315 1.469484
  16 -0.000004 17.897518 0.000001 1.234214 -0.982103 -0.934161
  17 -0.000000 4.707227 -0.000001 -1.531102 0.000487 -0.231528
  18 2.074770 19.616655 -1.844054 -0.177317 -0.974847 -0.093241
  19 -0.000002 2.947698 0.000000 0.591003 0.259472 -0.900673
  20 2.027249 19.302372 3.133746 1.085107 -3.021761 0.146744
  21 0.002826 4.780092 -0.021077 -1.880463 -0.127749 -0.177834
  22 0.000001 10.318099 -0.000001 -0.477714 2.749755 -0.860803
  23 -0.000002 10.229101 0.000001 1.359387 -0.492082 0.597546
  24 0.000001 17.897499 0.000002 -0.361840 0.955383 0.100817
  25 -0.000000 5.176007 -0.000001 0.578225 -0.004015 -0.693097
  26 1.013114 18.915537 0.390505 0.311341 0.981909 0.032978
  27 0.000000 3.158195 0.000001 -0.765877 -0.200287 -0.626141
  28 -0.000001 -17.187595 -0.000000 -1.568921 -0.036002 1.559880
  29 0.000001 3.905661 -4.525523 -0.340529 -0.229526 -1.353808
  30 -0.000002 13.357019 -0.000001 0.241183 -0.280113 1.728269
  31 -0.000001 18.158888 -0.000000 1.408963 1.532132 1.570337
  32 -0.000000 2.542064 0.000000 1.558254 0.000018 0.000000
  33 0.000001 3.135159 -0.000001 -0.085974 0.034828 0.040960
  34 -0.000001 3.905660 4.546789 0.300658 0.077317 -0.074841
  35 -0.000001 13.407275 -0.000002 -0.321826 0.148227 0.843587
  36 -0.000005 18.158890 0.000003 0.294342 -1.850071 -0.216564
  37 0.000000 2.542064 -0.000001 1.558254 -3.141546 -0.000000
  38 0.000000 3.135157 -0.000001 0.515089 0.285440 0.104458
  39 4.301485 1.405969 0.000000 0.180225 -0.750857 -0.576335
  40 0.000001 7.030430 -0.000001 -0.149199 0.092192 0.077689
  time 4
  0 9.552177 12.930452 -13.164692 0.452092 0.000000 -3.141593
  1 -7.017333 -20.405918 -13.411840 0.579069 0.000000 3.141593
  2 0.907535 -3.182838 55.465324 -1.570796 0.000000 1.570796
  3 20.756819 46.286156 -1.806702 1.570796 -1.570795 0.000000
  4 19.441843 34.095039 7.158945 1.570796 -1.570796 0.000000
  5 -21.518820 37.572685 -13.119906 1.570796 -1.570796 0.000000
  6 -14.141928 39.851562 30.430729 1.570796 -1.570796 0.000000
  7 36.492203 77.887009 -12.725897 1.570796 1.570796 0.000000
  8 26.355848 59.971516 5.158387 1.570796 1.570796 0.000000
  9 17.187601 41.430359 0.000009 1.570796 1.570796 0.000000
  10 -0.000001 -17.187595 -0.000000 1.725196 0.259672 1.887513
  11 0.000000 9.251829 0.000001 -0.043328 0.216396 -0.278840
  12 3.332968 6.058990 0.446930 -0.190195 -0.108563 -0.433692
  13 0.000001 4.780090 0.000001 1.284319 0.253606 -2.959958
  14 -0.000000 10.318099 0.000001 -1.230079 0.293768 -0.120444
  15 -0.000005 10.229099 0.000001 -0.418632 0.373957 1.312642
  16 -0.000000 17.897518 0.000005 1.170610 -0.629439 -1.096692
  17 -0.000002 4.707227 -0.000000 -1.531952 0.000987 -0.232022
  18 1.898383 20.127192 -1.663447 0.111442 -0.676000 -0.517634
  19 -0.000001 2.947696 0.000000 0.591003 0.259472 -0.900673
  20 2.644171 18.307323 2.735918 0.785990 -2.818173 0.004167
  21 0.002827 4.780091 -0.021076 -1.880463 -0.127749 -0.177833
  22 0.000001 10.318100 0.000000 2.332706 1.008975 1.350255
  23 0.000001 10.229108 0.000002 1.295175 -0.453609 0.586809
  24 -0.000004 17.897520 0.000006 -0.509081 0.929509 -0.100556
  25 -0.000003 5.176013 -0.000002 0.615225 0.024080 -0.587112
  26 1.104977 18.813871 0.359518 0.690597 1.130241 0.434681
  27 0.000001 3.158197 -0.000001 -0.716590 -0.197506 -0.678515
  28 -0.000001 -17.187595 -0.000000 -1.497390 -0.040238 1.835868
  29 0.000001 3.905658 -4.525524 -0.585525 -0.016799 -1.095257
  30 -0.000002 13.357019 -0.000001 0.200545 -0.103722 0.967887
  31 0.000002 18.158886 0.000001 1.212494 1.532128 1.570364
  32 -0.000001 2.542064 -0.000001 1.558254 0.000018 0.000000
  33 -0.000001 3.135159 -0.000001 -0.085199 0.052173 0.061262
  34 -0.000002 3.905661 4.546789 0.261378 0.337710 0.183661
  35 0.000000 13.407280 -0.000001 -0.291954 0.118011 0.747465
  36 -0.000002 18.158888 -0.000001 -1.086490 -1.532156 1.571340
  37 0.000000 2.542063 -0.000001 1.558254 -3.141546 0.000000
  38 0.000000 3.135158 0.000000 -0.091756 0.342973 -0.030933
  39 4.301485 1.405967 0.000001 -0.004376 -0.475595 -0.538904
  40 -0.000001 7.030431 -0.000000 0.017698 0.186739 -0.385481
  time 5
  0 9.975159 16.594872 -19.960665 0.540390 -0.000000 -3.141593
  1 -6.930576 -16.465649 -11.454969 0.579069 0.000000 3.141593
  2 0.907535 -3.182838 55.465324 -1.570796 0.000000 1.570796
  3 24.241714 50.998226 -13.062128 1.570796 -1.570795 0.000000
  4 19.660168 41.088757 5.356388 1.570796 -1.570796 0.000000
  5 -32.974277 37.181816 -9.671501 1.570796 -1.570796 0.000000
  6 -12.929463 37.930687 35.078003 1.570796 -1.570796 0.000000
  7 36.491886 77.624527 -12.622348 1.570796 1.570796 0.000000
  8 26.355848 59.971516 5.158387 1.570796 1.570796 0.000000
  9 17.187601 46.622631 0.000009 1.570796 1.570796 0.000000
  10 -0.000001 -17.187595 -0.000000 1.833041 0.242804 1.903231
  11 0.000001 9.251827 0.000001 0.337456 -0.181351 -0.290207
  12 3.332968 6.058993 0.446928 -0.275365 -0.071265 -0.459520
  13 0.000001 4.780091 -0.000000 1.284319 0.253606 -2.959958
  14 0.000001 10.318100 -0.000000 -0.255716 0.709049 0.940991
  15 -0.000002 10.229106 0.000000 -0.306180 0.182310 0.799357
  16 -0.000001 17.897516 0.000004 1.062523 -0.295965 -1.251875
  17 -0.000000 4.707230 -0.000001 -1.532761 0.001477 -0.232481
  18 1.721994 20.637726 -1.482846 0.208053 -0.339236 -0.769444
  19 0.000003 2.947696 0.000001 0.591004 0.259473 -0.900673
  20 3.261089 17.312273 2.338090 0.497394 -2.588610 -0.076011
  21 0.002827 4.780091 -0.021078 -1.880463 -0.127749 -0.177834
  22 0.000000 10.318099 0.000001 0.157281 1.782566 -0.259550
  23 0.000000 10.229102 -0.000001 1.626533 -0.648595 0.612032
  24 -0.000003 17.897507 0.000004 -0.514106 1.020277 0.027990
  25 -0.000000 5.176011 -0.000001 0.349165 0.058343 -0.327910
  26 1.146741 18.767639 0.345428 0.928167 1.175640 0.670018
  27 -0.000000 3.158194 -0.000001 -0.694310 -0.195412 -0.702197
  28 -0.000001 -17.187595 -0.000000 -1.465636 -0.043053 1.957982
  29 0.000001 3.905660 -4.525525 -0.632261 0.225982 -0.919247
  30 0.000001 13.357019 -0.000001 0.094513 -0.017257 0.400872
  31 0.000001 18.158882 -0.000000 1.124214 1.532127 1.570380
  32 0.000000 2.542061 0.000001 1.558254 0.000018 -0.000000
  33 0.000001 3.135158 -0.000001 -0.084267 0.066314 0.077671
  34 -0.000002 3.905661 4.546789 0.230599 0.593671 -0.405272
  35 0.000001 13.407274 0.000001 -0.437152 0.433582 1.556167
  36 -0.000001 18.158890 -0.000001 -1.086490 -1.532156 1.571336
  37 0.000000 2.542063 -0.000001 1.558254 -3.141546 0.000000
  38 -0.000000 3.135156 -0.000000 -0.091756 0.342973 -0.030933
  39 4.301486 1.405967 0.000001 -0.081273 -0.093520 -0.367480
  40 0.000000 7.030431 -0.000000 0.084508 0.263585 -0.625699
  time 6
  0 9.273325 4.322672 -19.749933 -0.100080 0.000469 3.041112
  1 -6.646048 -5.160594 -11.175419 0.579069 0.000000 3.141593
  2 0.907535 -3.182838 55.465324 -1.570796 0.000000 1.570796
  3 14.563013 49.234406 -20.893602 1.570796 -1.570795 0.000000
  4 21.502914 45.573666 4.713157 1.570796 -1.570796 0.000000
  5 -30.335533 41.084816 -12.187781 1.570796 -1.570796 0.000000
  6 -12.211666 38.161812 32.796402 1.570796 -1.570796 0.000000
  7 36.491417 77.359787 -12.517909 1.570796 1.570796 0.000000
  8 26.355848 59.971516 5.158387 1.570796 1.570796 0.000000
  9 17.187601 45.276485 0.000009 1.570796 1.570796 0.000000
  10 -0.000001 -17.187595 -0.000001 1.763662 0.250683 1.813958
  11 0.000001 9.251828 0.000001 0.290055 -0.165548 -0.322097
  12 3.332968 6.058993 0.446928 -0.220302 -0.034610 -0.444951
  13 0.000001 4.780091 0.000000 1.284319 0.253606 -2.959958
  14 -0.000000 10.318095 0.000001 0.012008 0.436548 0.180542
  15 -0.000002 10.229104 0.000002 -0.425627 0.402384 1.380996
  16 0.000001 17.897514 -0.000001 0.959694 -0.197590 -0.813609
  17 -0.000002 4.707223 -0.000002 -1.533530 0.001956 -0.232908
  18 1.035583 20.340019 -1.465641 0.148167 -0.298891 -0.353875
  19 -0.000001 2.947696 -0.000001 0.591003 0.259473 -0.900673
  20 3.897424 18.116089 2.538530 0.472861 -2.463581 0.329242
  21 0.002827 4.780091 -0.021077 -1.880463 -0.127749 -0.177834
  22 0.000002 10.318098 -0.000001 0.230222 1.894982 -0.539759
  23 0.000004 10.229101 0.000002 1.238649 -0.419970 0.575167
  24 0.000003 17.897507 0.000002 -0.359033 1.110344 0.195831
  25 0.000000 5.176013 0.000000 0.422335 0.038797 -0.473724
  26 1.080846 18.837269 0.366214 0.256342 1.055163 -0.035708
  27 0.000000 3.158196 -0.000001 -0.871418 -0.176914 -0.487299
  28 -0.000001 -17.187595 -0.000000 -1.466811 -0.029487 1.895747
  29 0.000001 3.905661 -4.525525 -0.657619 0.055394 -0.858235
  30 0.000001 13.357018 -0.000003 0.216913 -0.130946 1.097122
  31 0.000002 18.158886 0.000001 -0.240167 1.681160 -0.432508
  32 0.000000 2.542065 -0.000000 1.558254 0.000018 0.000000
  33 0.000001 3.135157 0.000004 0.147289 0.064342 0.095431
  34 -0.000000 3.905661 4.546790 0.053599 0.438407 -1.164930
  35 -0.000001 13.407269 -0.000000 -0.429417 0.515178 1.753747
  36 0.000002 18.158880 -0.000003 -1.086489 -1.532156 1.571338
  37 0.000000 2.542064 -0.000001 1.558254 -3.141546 0.000000
  38 -0.000000 3.135157 -0.000000 -0.091756 0.342973 -0.030933
  39 4.301486 1.405969 0.000001 -0.029925 0.238789 -0.080255
  40 0.000000 7.030429 0.000000 0.106462 0.187076 -0.088553
  time 7
  0 7.969918 -14.973941 -19.135614 -0.109412 -0.000000 2.944412
  1 -6.205409 10.538604 -11.290974 0.496581 0.000000 3.141593
  2 0.907535 -3.182838 55.465324 -1.570796 0.000000 1.570796
  3 -3.411725 44.250099 -25.055336 1.570796 -1.570795 0.000000
  4 15.634194 46.991669 12.163762 1.570796 -1.570796 0.000000
  5 -24.728199 48.333233 -16.860874 1.570796 -1.570796 0.000000
  6 -11.910930 39.550209 27.747154 1.570796 -1.570796 0.000000
  7 36.490761 77.092918 -12.412632 1.570796 1.570796 0.000000
  8 26.355848 59.971516 5.158387 1.570796 1.570796 0.000000
  9 17.187601 42.776505 0.000009 1.570796 1.570796 0.000000
  10 -0.000001 -17.187595 -0.000000 1.619165 0.249725 1.645781
  11 -0.000001 9.251827 -0.000001 0.154331 -0.088712 -0.376237
  12 3.332968 6.058993 0.446929 -0.075215 -0.011149 -0.399832
  13 0.000000 4.780093 0.000000 1.284319 0.253606 -2.959958
  14 -0.000001 10.318099 -0.000002 -0.339212 0.233882 -0.958699
  15 0.000000 10.229105 0.000001 -0.432970 0.454631 1.506292
  16 -0.000002 17.897512 -0.000002 0.912796 -0.269457 -0.352863
  17 -0.000001 4.707228 0.000001 -1.534262 0.002427 -0.233301
  18 0.367282 19.992481 -1.598144 0.087504 -0.249374 0.122768
  19 0.000000 2.947697 0.000000 0.591003 0.259473 -0.900673
  20 4.176806 19.443047 2.036782 0.541354 -2.446821 0.755410
  21 0.002826 4.780093 -0.021077 -1.880463 -0.127749 -0.177834
  22 0.000004 10.318097 -0.000002 0.433761 2.132658 0.290399
  23 -0.000001 10.229106 -0.000003 1.440168 -0.540417 0.607143
  24 -0.000007 17.897514 -0.000000 -0.006661 1.172167 0.538339
  25 0.000001 5.176012 0.000001 0.564397 0.031683 -0.750389
  26 1.013107 18.915556 0.390502 -0.049143 0.803565 -0.350074
  27 -0.000001 3.158196 -0.000000 -1.039950 -0.122131 -0.279692
  28 -0.000001 -17.187595 -0.000000 -1.492547 -0.009299 1.713436
  29 0.000002 3.905660 -4.525525 -0.276645 0.258034 0.096055
  30 0.000001 13.357018 -0.000001 0.121927 -0.030970 0.526962
  31 -0.000001 18.158884 -0.000001 -0.069412 1.774738 -0.269234
  32 0.000000 2.542064 0.000000 1.558254 0.000018 0.000000
  33 -0.000001 3.135158 -0.000001 0.378131 0.054339 0.104622
  34 -0.000001 3.905660 4.546789 0.092251 0.229210 -1.353654
  35 -0.000002 13.407271 -0.000000 -0.403045 0.275960 1.184593
  36 0.000004 18.158884 0.000002 -1.169019 -1.532153 1.571378
  37 0.000001 2.542064 -0.000001 1.558254 -3.141546 -0.000000
  38 0.000000 3.135156 -0.000000 -0.091756 0.342973 -0.030933
  39 4.301485 1.405968 0.000001 0.035451 0.376513 0.080973
  40 0.000000 7.030430 0.000001 0.069974 0.061818 0.421191
  time 8
  0 7.268085 -21.130533 -15.931740 -0.029194 0.000000 -3.141593
  1 -5.962544 18.873014 -12.099874 0.413855 0.000000 3.141593
  2 0.907535 -3.182838 55.465324 -1.570796 0.000000 1.570796
  3 -13.090429 43.008629 -26.279816 1.570796 -1.570795 0.000000
  4 16.558933 47.218704 15.967008 1.570796 -1.570796 0.000000
  5 -19.615641 52.236233 -19.377153 1.570796 -1.570796 0.000000
  6 -11.850057 43.138416 22.623577 1.570796 -1.570796 0.000000
  7 36.489887 76.824051 -12.306563 1.570796 1.570796 0.000000
  8 26.355848 59.971516 5.158387 1.570796 1.570796 0.000000
  9 17.187601 41.430359 0.000009 1.570796 1.570796 0.000000
  10 -0.000001 -17.187595 -0.000000 1.500912 0.239201 1.554213
  11 -0.000001 9.251829 0.000000 -0.079380 0.116535 -0.406281
  12 3.332968 6.058992 0.446928 0.136712 -0.021957 -0.341728
  13 -0.000000 4.780091 0.000000 1.284319 0.253606 -2.959958
  14 0.000001 10.318099 0.000002 -1.127380 0.603062 -1.476873
  15 -0.000000 10.229103 0.000001 -0.193153 0.099445 0.474116
  16 -0.000002 17.897512 0.000006 0.871756 -0.435947 -0.221587
  17 -0.000001 4.707228 -0.000000 -1.534955 0.002888 -0.233662
  18 0.513232 19.691912 -1.810698 0.023074 -0.320726 0.212054
  19 -0.000001 2.947693 0.000001 0.591003 0.259473 -0.900673
  20 2.218632 20.331478 -0.013947 1.055445 -3.034537 0.483101
  21 0.002827 4.780091 -0.021077 -1.880463 -0.127749 -0.177834
  22 0.000000 10.318098 -0.000000 0.151528 1.890181 -0.157772
  23 -0.000001 10.229100 -0.000000 1.218792 -0.408243 0.570607
  24 0.000002 17.897503 0.000004 0.200150 1.177644 0.736645
  25 -0.000001 5.176008 0.000000 0.639256 0.043897 -0.897213
  26 1.018114 18.909685 0.424827 0.948147 0.856632 0.665099
  27 0.000000 3.158195 -0.000000 -0.837782 -0.199800 -0.549748
  28 -0.000001 -17.187595 -0.000000 -1.570796 -0.000000 1.416035
  29 0.000001 3.905659 -4.525525 -0.178296 0.003399 0.439741
  30 0.000002 13.357019 -0.000003 0.053980 -0.004141 0.224988
  31 0.000000 18.158884 -0.000002 -1.447838 1.609456 -1.571258
  32 0.000000 2.542065 -0.000002 1.558254 0.000018 0.000000
  33 -0.000001 3.135159 0.000001 -0.086398 0.000000 0.000000
  34 -0.000002 3.905660 4.546789 0.258076 0.110106 -0.952734
  35 0.000000 13.407273 -0.000001 -0.156421 0.032723 0.376782
  36 0.000002 18.158886 -0.000003 -1.251787 -1.532149 1.571420
  37 -0.000000 2.542064 -0.000000 1.558254 -3.141546 0.000000
  38 -0.000000 3.135158 -0.000000 -0.091756 0.342973 -0.030933
  39 4.301485 1.405968 0.000001 -0.028807 0.386164 -0.228675
  40 0.000000 7.030431 -0.000000 0.125731 0.011013 -0.067506
  time 9
  0 7.268085 -15.485830 -8.454771 -0.029194 0.000000 -3.141593
  1 -5.962544 16.518490 -19.847342 0.476577 0.000000 3.141593
  2 0.907535 -3.182838 55.465324 -1.570796 0.000000 1.570796
  3 -9.662804 43.008629 -26.279814 1.570796 -1.570795 0.000000
  4 8.147272 47.158077 16.892742 1.570796 -1.570796 0.000000
  5 -17.451061 45.062195 -7.581407 1.570796 -1.570796 0.000000
  6 -17.141844 48.209297 20.218109 1.570796 -1.570796 0.000000
  7 36.488766 76.553307 -12.199759 1.570796 1.570796 0.000000
  8 26.355850 59.971516 3.715778 1.570796 1.570796 0.000000
  9 17.187601 47.009056 0.000009 1.570796 1.570796 0.000000
  10 -0.000001 -17.187595 -0.000000 1.457994 0.267313 1.573195
  11 -0.000002 9.251828 0.000001 -0.295963 0.376131 -0.422978
  12 3.332966 6.058994 0.446928 0.284757 -0.209126 -0.332635
  13 -0.000000 4.780092 0.000000 1.284319 0.253606 -2.959958
  14 -0.000001 10.318098 0.000001 -0.668829 0.219190 -1.483696
  15 0.000000 10.229100 -0.000000 -0.274303 0.153044 0.700061
  16 -0.000002 17.897505 -0.000003 0.760811 -0.580914 -0.187891
  17 0.000001 4.707223 0.000001 -1.535612 0.003342 -0.233992
  18 0.831210 19.256563 -1.905125 -0.164916 -0.439411 0.291167
  19 -0.000000 2.947694 -0.000001 0.591003 0.259473 -0.900673
  20 -1.501927 20.691589 -2.540020 0.905511 1.457314 -0.455167
  21 0.002824 4.780093 -0.021077 -1.880463 -0.127748 -0.177833
  22 0.000002 10.318098 -0.000002 -0.166921 1.815250 0.088423
  23 -0.000001 10.229097 -0.000002 1.852114 -0.766178 0.585728
  24 -0.000006 17.897503 -0.000001 -0.436901 0.982949 0.199938
  25 -0.000000 5.176010 -0.000001 0.471437 -0.027953 -0.775142
  26 0.879477 19.063444 0.435579 0.189215 0.612755 0.209354
  27 -0.000001 3.158195 0.000002 -0.837782 -0.199801 -0.549748
  28 -0.000001 -17.187595 -0.000000 -1.668767 -0.060554 1.162550
  29 0.000001 3.905659 -4.525524 -0.103214 -0.486988 -0.584869
  30 -0.000001 13.357020 -0.000000 0.225715 -0.332772 1.959486
  31 -0.000002 18.158884 -0.000001 -1.447841 1.609456 -1.571260
  32 0.000000 2.542062 0.000002 1.558254 0.000018 0.000000
  33 -0.000000 3.135157 0.000000 -0.086601 0.005087 0.005997
  34 -0.000000 3.905660 4.546788 0.585347 0.035334 -0.872496
  35 -0.000000 13.407271 -0.000003 -0.232603 0.071989 0.575698
  36 -0.000004 18.158875 -0.000006 -1.189048 -1.532151 1.571400
  37 -0.000000 2.542063 0.000000 1.558254 -3.141546 -0.000000
  38 -0.000000 3.135156 0.000003 -0.091756 0.342973 -0.030933
  39 4.301485 1.405968 -0.000000 0.084572 -0.241483 -0.400322
  40 0.000000 7.030432 0.000001 -0.061795 0.024826 0.124301
  time 10
  0 7.691066 -5.533962 -8.629215 0.059104 0.000000 -3.141593
  1 -6.275075 1.563380 -19.518499 -0.157065 0.022359 -3.004887
  2 0.907535 -3.182838 55.465324 -1.570796 0.000000 1.570796
  3 -9.287047 36.320591 -18.591246 1.570796 -1.570795 0.000000
  4 3.176377 46.148224 19.414652 1.570796 -1.570796 0.000000
  5 -17.141838 33.635944 4.214339 1.570796 -1.570796 0.000000
  6 -16.483658 50.922802 22.539965 1.570796 -1.570796 0.000000
  7 36.487366 76.280815 -12.092260 1.570796 1.570796 0.000000
  8 26.355850 59.971519 2.273167 1.570796 1.570796 0.000000
  9 17.187601 45.562725 0.000009 1.570796 1.570796 0.000000
  10 -0.000001 -17.187595 -0.000000 1.449760 0.268877 1.682432
  11 -0.000000 9.251826 -0.000000 -0.303651 0.399887 -0.433944
  12 3.332966 6.058992 0.446929 0.197516 -0.190405 -0.347809
  13 0.000000 4.780092 0.000000 1.284319 0.253606 -2.959959
  14 -0.000002 10.318100 -0.000001 -0.101848 -0.203786 -2.128262
  15 -0.000000 10.229102 0.000000 -0.423962 0.394774 1.362740
  16 0.000001 17.897512 -0.000000 0.501053 -0.709393 -0.007064
  17 -0.000001 4.707226 -0.000000 -1.536234 0.003788 -0.234291
  18 1.074861 19.060040 -1.941351 -0.472039 -0.472270 0.471468
  19 0.000000 2.947695 0.000002 0.591004 0.259473 -0.900673
  20 -3.523607 20.117378 -4.247716 1.291876 0.734544 -0.181791
  21 0.002826 4.780093 -0.021077 -1.880463 -0.127749 -0.177834
  22 0.000002 10.318100 0.000000 0.080886 1.818958 0.539522
  23 -0.000000 10.229099 0.000001 1.858099 -0.769032 0.584569
  24 0.000003 17.897501 0.000000 -0.443493 0.963605 0.133572
  25 -0.000001 5.176009 0.000000 0.511379 -0.030586 -0.712584
  26 0.921246 19.017223 0.421493 0.170808 0.764384 -0.027528
  27 0.000000 3.158194 0.000000 -0.815324 -0.200531 -0.573608
  28 -0.000001 -17.187595 -0.000000 -1.639203 -0.049100 1.284332
  29 0.000001 3.905660 -4.525526 -0.063094 -0.317088 -1.278238
  30 -0.000001 13.357017 -0.000001 0.207657 -0.366226 2.120872
  31 -0.000000 18.158878 0.000001 1.605450 1.532135 1.570332
  32 0.000000 2.542063 0.000001 1.558254 0.000018 0.000000
  33 0.000000 3.135156 0.000001 -0.086559 0.017916 0.021094
  34 -0.000001 3.905660 4.546789 0.532260 0.120752 -0.705063
  35 -0.000002 13.407273 -0.000000 -0.393695 0.255294 1.133718
  36 0.000002 18.158880 -0.000005 0.240934 -1.723342 -0.491146
  37 -0.000000 2.542063 -0.000000 1.558254 -3.141546 0.000000
  38 0.000001 3.135157 0.000002 -0.037749 0.332707 0.044513
  39 4.301486 1.405967 0.000001 0.315572 -0.850151 -0.587369
  40 0.000001 7.030431 -0.000002 -0.244027 0.074550 0.313279
  time 11
  0 8.621621 4.675976 -9.850306 0.255598 0.000000 -3.141593
  1 -6.587605 -13.391727 -17.435461 0.166695 -0.000000 -2.868101
  2 0.907535 -3.182838 55.465324 -1.570796 0.000000 1.570796
  3 25.941090 36.769230 -8.703339 1.570796 -1.570795 0.000000
  4 2.861617 39.534664 21.694153 1.570796 -1.570796 0.000000
  5 -17.141829 29.781635 -17.448761 1.570796 -1.570796 0.000000
  6 -15.035651 52.316219 27.648056 1.570796 -1.570796 0.000000
  7 36.485653 76.006706 -11.984124 1.570796 1.570796 0.000000
  8 26.355848 59.971516 5.158387 1.570796 1.570796 0.000000
  9 17.187601 42.876686 0.000009 1.570796 1.570796 0.000000
  10 -0.000001 -17.187595 -0.000000 1.457372 0.265851 1.843652
  11 0.000000 9.251827 0.000001 -0.307986 0.410881 -0.447435
  12 3.332966 6.058994 0.446928 0.003427 -0.150036 -0.386948
  13 -0.000001 4.780092 -0.000000 1.284319 0.253606 -2.959958
  14 0.000001 10.318101 0.000000 -0.160242 0.543834 -0.343575
  15 -0.000003 10.229103 0.000001 -0.433922 0.484036 1.577503
  16 -0.000002 17.897512 0.000004 0.062111 -0.686156 0.462591
  17 0.000002 4.707229 -0.000002 -1.536822 0.004226 -0.234561
  18 1.045295 19.392756 -1.986126 -0.799188 -0.315365 0.778838
  19 0.000001 2.947695 0.000001 0.591003 0.259473 -0.900674
  20 -3.525274 18.965197 -4.808828 0.971678 0.572307 -0.217522
  21 0.002826 4.780092 -0.021077 -1.880463 -0.127749 -0.177834
  22 -0.000001 10.318101 -0.000001 -0.368514 1.495174 -0.193999
  23 0.000001 10.229102 -0.000003 1.779715 -0.730498 0.597907
  24 0.000002 17.897511 0.000001 -0.361840 0.955383 0.100816
  25 -0.000001 5.176012 -0.000001 0.578225 -0.004015 -0.693096
  26 1.013114 18.915550 0.390505 0.311341 0.981909 0.032977
  27 -0.000000 3.158196 0.000000 -0.765877 -0.200287 -0.626141
  28 -0.000001 -17.187595 -0.000000 -1.568921 -0.036002 1.559880
  29 0.000001 3.905661 -4.525523 -0.319257 -0.233938 -1.375188
  30 -0.000002 13.357018 -0.000001 0.242024 -0.274606 1.705037
  31 -0.000002 18.158890 -0.000003 1.408962 1.532132 1.570341
  32 -0.000001 2.542063 -0.000000 1.558254 0.000018 0.000000
  33 0.000000 3.135158 0.000000 -0.086102 0.034830 0.040957
  34 -0.000001 3.905660 4.546789 0.300658 0.077317 -0.074841
  35 -0.000001 13.407275 -0.000002 -0.321826 0.148227 0.843587
  36 -0.000005 18.158890 0.000003 0.294342 -1.850071 -0.216564
  37 0.000000 2.542064 -0.000001 1.558254 -3.141546 -0.000000
  38 0.000000 3.135157 -0.000001 0.515089 0.285440 0.104458
  39 4.301485 1.405969 0.000000 0.180517 -0.752229 -0.575814
  40 0.000000 7.030431 -0.000000 -0.149353 0.092313 0.077938
  time 12
  0 9.552177 12.930452 -13.164692 0.452092 0.000000 -3.141593
  1 -7.017333 -20.405918 -13.411840 0.579069 0.000000 3.141593
  2 0.907535 -3.182838 55.465324 -1.570796 0.000000 1.570796
  3 27.614679 40.502533 2.529639 1.570796 -1.570795 0.000000
  4 -7.673898 35.736908 23.904079 1.570796 -1.570796 0.000000
  5 -5.684283 33.924587 -30.828220 1.570796 -1.570796 0.000000
  6 -13.587646 52.829586 32.756149 1.570796 -1.570796 0.000000
  7 36.483601 75.731087 -11.875397 1.570796 1.570796 0.000000
  8 26.355848 59.971516 5.158387 1.570796 1.570796 0.000000
  9 17.187601 41.430359 0.000009 1.570796 1.570796 0.000000
  10 -0.000001 -17.187595 -0.000000 1.469110 0.259776 1.988815
  11 -0.000002 9.251828 0.000000 -0.307039 0.414450 -0.458835
  12 3.332965 6.058993 0.446929 -0.190195 -0.108563 -0.433692
  13 0.000001 4.780090 -0.000000 1.284319 0.253606 -2.959958
  14 -0.000000 10.318099 -0.000001 -0.290699 0.541094 0.282613
  15 -0.000001 10.229104 0.000004 -0.403269 0.329335 1.203683
  16 -0.000001 17.897528 0.000004 -0.136044 -0.583438 0.709129
  17 -0.000001 4.707229 -0.000001 -1.537377 0.004658 -0.234800
  18 0.953551 19.701782 -2.017349 -0.926323 -0.177133 0.943554
  19 0.000001 2.947695 0.000002 0.591004 0.259472 -0.900673
  20 -3.397400 18.033937 -4.440310 0.671838 0.560368 -0.241679
  21 0.002827 4.780091 -0.021077 -1.880463 -0.127749 -0.177834
  22 -0.000001 10.318097 0.000001 -0.921073 0.587367 -0.918573
  23 -0.000000 10.229103 0.000000 1.717297 -0.698099 0.605607
  24 -0.000004 17.897509 -0.000006 -0.494956 0.944297 -0.099400
  25 -0.000002 5.176012 0.000002 0.615226 0.024081 -0.587111
  26 1.104981 18.813866 0.359506 0.690596 1.130241 0.434681
  27 -0.000001 3.158196 -0.000001 -0.716590 -0.197506 -0.678515
  28 -0.000001 -17.187595 -0.000000 -1.497390 -0.040238 1.835868
  29 0.000001 3.905658 -4.525524 -0.560965 -0.052933 -1.079155
  30 -0.000002 13.357018 -0.000002 0.200545 -0.103722 0.967887
  31 0.000001 18.158886 0.000002 1.212493 1.532128 1.570365
  32 0.000000 2.542065 -0.000001 1.558254 0.000018 0.000000
  33 -0.000001 3.135158 -0.000001 -0.085242 0.052175 0.061261
  34 -0.000002 3.905661 4.546789 0.261378 0.337710 0.183661
  35 0.000000 13.407280 -0.000001 -0.291954 0.118011 0.747465
  36 -0.000002 18.158888 -0.000001 -1.086490 -1.532156 1.571340
  37 0.000000 2.542063 -0.000001 1.558254 -3.141546 0.000000
  38 0.000000 3.135158 0.000000 -0.091756 0.342973 -0.030933
  39 4.301485 1.405967 0.000001 -0.004376 -0.475595 -0.538904
  40 -0.000001 7.030431 -0.000000 0.017695 0.186845 -0.385613
  time 13
  0 9.975159 16.594872 -19.960665 0.540390 -0.000000 -3.141593
  1 -6.930576 -16.465649 -11.454969 0.579069 0.000000 3.141593
  2 0.907535 -3.182838 55.465324 -1.570796 0.000000 1.570796
  3 12.524239 42.891602 12.459993 1.570796 -1.570795 0.000000
  4 1.693982 39.174583 31.902000 1.570796 -1.570796 0.000000
  5 5.773256 38.067543 -32.739571 1.570796 -1.570796 0.000000
  6 -12.929461 52.902924 35.078003 1.570796 -1.570796 0.000000
  7 36.481174 75.454102 -11.766128 1.570796 1.570796 0.000000
  8 26.355848 59.971516 5.158387 1.570796 1.570796 0.000000
  9 17.187599 46.622631 2.378108 1.570796 1.570796 0.000000
  10 -0.000001 -17.187595 -0.000000 1.474933 0.256149 2.051399
  11 0.000000 9.251827 -0.000000 -0.299030 0.415975 -0.463708
  12 3.332968 6.058991 0.446929 -0.275365 -0.071265 -0.459520
  13 0.000000 4.780091 0.000000 1.284319 0.253606 -2.959958
  14 0.000000 10.318096 0.000001 -0.654547 0.225911 0.422356
  15 -0.000002 10.229102 0.000002 -0.418868 0.582170 1.826935
  16 -0.000004 17.897516 0.000006 0.007893 -0.649309 0.544208
  17 0.000001 4.707227 -0.000000 -1.537899 0.005084 -0.235013
  18 0.984998 19.535395 -1.997640 -0.827780 -0.271423 0.840023
  19 0.000001 2.947695 0.000002 0.591004 0.259473 -0.900673
  20 -1.556651 18.419134 -2.187391 -0.355731 0.940087 -1.114675
  21 0.002826 4.780091 -0.021077 -1.880463 -0.127749 -0.177834
  22 -0.000002 10.318099 -0.000001 1.074582 1.066690 0.565156
  23 -0.000001 10.229101 0.000000 1.102444 -0.341035 0.539212
  24 -0.000001 17.897503 0.000002 -0.514107 1.020278 0.027990
  25 -0.000000 5.176007 0.000001 0.349165 0.058344 -0.327910
  26 1.146743 18.767639 0.345425 0.928167 1.175641 0.670018
  27 -0.000001 3.158194 0.000001 -0.694310 -0.195412 -0.702197
  28 -0.000001 -17.187595 -0.000000 -1.465636 -0.043053 1.957982
  29 0.000001 3.905660 -4.525525 -0.624491 0.193820 -0.756793
  30 -0.000002 13.357019 -0.000000 0.046705 -0.002593 0.194268
  31 0.000002 18.158882 -0.000002 1.124212 1.532127 1.570378
  32 -0.000000 2.542066 -0.000000 1.558254 0.000018 0.000000
  33 0.000001 3.135156 -0.000002 -0.084267 0.066314 0.077671
  34 -0.000002 3.905661 4.546789 0.057832 0.562447 -0.445754
  35 -0.000002 13.407274 -0.000003 -0.437199 0.441406 1.574649
  36 0.000002 18.158884 0.000001 -1.086489 -1.532156 1.571337
  37 0.000000 2.542063 -0.000001 1.558254 -3.141546 0.000000
  38 0.000001 3.135154 0.000000 -0.091756 0.342973 -0.030933
  39 4.301485 1.405967 0.000001 -0.083247 -0.084612 -0.367921
  40 0.000000 7.030432 0.000000 0.084509 0.263585 -0.625699
  time 14
  0 9.273325 4.322672 -19.857534 -0.100080 0.000469 3.041112
  1 -6.646048 -5.160594 -11.175419 0.579069 0.000000 3.141593
  2 0.907535 -3.182838 55.465324 -1.570796 0.000000 1.570796
  3 10.658328 46.832153 0.347105 1.570796 -1.570795 0.000000
  4 10.817017 45.119381 23.316223 1.570796 -1.570796 0.000000
  5 -5.684288 36.768135 -22.000204 1.570796 -1.570796 0.000000
  6 -12.929836 45.807999 35.075680 1.570796 -1.570796 0.000000
  7 36.478348 75.175873 -11.656369 1.570796 1.570796 0.000000
  8 26.355848 59.971516 5.158387 1.570796 1.570796 0.000000
  9 17.187599 45.276485 1.761564 1.570796 1.570796 0.000000
  10 -0.000001 -17.187595 -0.000001 1.480651 0.249934 1.922822
  11 0.000000 9.251826 0.000001 -0.233024 0.340731 -0.441870
  12 3.332967 6.058994 0.446929 -0.171906 -0.037219 -0.433083
  13 -0.000001 4.780093 0.000001 1.284319 0.253606 -2.959958
  14 0.000000 10.318098 0.000001 -0.562028 -0.533178 -0.207966
  15 -0.000000 10.229099 0.000005 -0.387065 0.651923 2.026850
  16 0.000004 17.897520 -0.000004 0.323379 -0.712710 0.190641
  17 0.000001 4.707226 -0.000000 -1.538391 0.005504 -0.235197
  18 1.043413 19.226421 -1.961060 -0.607839 -0.416668 0.611529
  19 0.000001 2.947696 0.000001 0.591004 0.259473 -0.900673
  20 1.609845 19.904432 0.957333 -1.772208 -0.077598 -2.478889
  21 0.002826 4.780092 -0.021076 -1.880463 -0.127749 -0.177834
  22 0.000001 10.318098 0.000001 2.036036 0.738071 1.719979
  23 0.000000 10.229103 0.000001 1.243412 -0.422790 0.576225
  24 -0.000004 17.897511 -0.000001 -0.507373 0.946512 0.129027
  25 0.000001 5.176011 -0.000000 0.349491 0.057982 -0.329337
  26 1.083502 18.837637 0.366754 0.255713 1.058690 -0.035877
  27 0.000001 3.158195 0.000000 -0.871418 -0.176914 -0.487299
  28 -0.000001 -17.187595 -0.000000 -1.487297 -0.023092 1.824707
  29 0.000002 3.905661 -4.525524 -0.604868 -0.008781 -0.806379
  30 0.000000 13.357017 0.000001 0.208914 -0.116654 1.030529
  31 0.000005 18.158875 -0.000003 -0.240166 1.681160 -0.432509
  32 -0.000000 2.542063 0.000000 1.558254 0.000018 -0.000000
  33 0.000001 3.135156 -0.000003 0.147289 0.064342 0.095431
  34 -0.000002 3.905662 4.546788 0.070528 0.359422 -1.127520
  35 -0.000004 13.407275 0.000000 -0.427475 0.523768 1.775413
  36 0.000007 18.158876 -0.000003 -1.086486 -1.532156 1.571336
  37 0.000001 2.542063 -0.000001 1.558254 -3.141546 0.000000
  38 0.000001 3.135156 -0.000000 -0.091756 0.342973 -0.030933
  39 4.301485 1.405968 0.000001 -0.031018 0.252788 -0.080709
  40 0.000001 7.030430 0.000000 0.105792 0.161139 -0.090447
  time 15
  0 7.969918 -14.973941 -19.135614 -0.109412 -0.000000 2.944412
  1 -6.205409 10.538604 -11.468845 0.496581 0.000000 3.141593
  2 0.907535 -3.182838 55.465324 -1.570796 0.000000 1.570796
  3 10.391782 50.520920 -13.041903 1.570796 -1.570795 0.000000
  4 15.528619 41.189964 14.730447 1.570796 -1.570796 0.000000
  5 -17.141832 35.468731 -11.131031 1.570796 -1.570796 0.000000
  6 -12.932456 38.713074 35.059414 1.570796 -1.570796 0.000000
  7 36.475082 74.896515 -11.546166 1.570796 1.570796 0.000000
  8 26.355848 59.971516 5.158387 1.570796 1.570796 0.000000
  9 17.187601 42.776505 0.616553 1.570796 1.570796 0.000000
  10 -0.000001 -17.187595 -0.000000 1.493360 0.240993 1.682514
  11 0.000001 9.251827 -0.000000 -0.130463 0.195487 -0.414601
  12 3.332967 6.058993 0.446929 0.022358 -0.020849 -0.375542
  13 0.000000 4.780092 0.000000 1.284319 0.253606 -2.959958
  14 0.000000 10.318099 0.000000 -0.816749 -0.128177 -0.325811
  15 0.000001 10.229104 0.000003 -0.421999 0.386577 1.343049
  16 -0.000005 17.897524 -0.000002 0.501053 -0.709393 -0.007064
  17 0.000002 4.707228 -0.000001 -1.538852 0.005919 -0.235354
  18 1.074854 19.060053 -1.941354 -0.472039 -0.472270 0.471468
  19 -0.000000 2.947697 0.000002 0.591004 0.259472 -0.900673
  20 3.290193 20.779587 2.548910 1.266015 -2.501700 0.439650
  21 0.002826 4.780092 -0.021077 -1.880463 -0.127749 -0.177833
  22 -0.000000 10.318098 -0.000000 1.911519 0.896743 1.816977
  23 -0.000001 10.229103 0.000000 1.549233 -0.604572 0.612961
  24 0.000000 17.897511 0.000004 -0.472556 0.789436 0.256632
  25 -0.000001 5.176011 -0.000001 0.350444 0.056933 -0.333489
  26 1.013113 18.915550 0.390506 -0.049143 0.803565 -0.350074
  27 -0.000001 3.158195 0.000001 -1.039950 -0.122131 -0.279692
  28 -0.000001 -17.187595 -0.000000 -1.536330 -0.003673 1.568862
  29 0.000002 3.905661 -4.525522 -0.257244 0.094061 0.077757
  30 0.000001 13.357017 0.000001 0.123904 -0.032132 0.536371
  31 0.000004 18.158886 -0.000005 -0.069410 1.774738 -0.269232
  32 0.000001 2.542063 -0.000002 1.558254 0.000018 0.000000
  33 -0.000001 3.135159 -0.000001 0.378131 0.054339 0.104622
  34 -0.000001 3.905658 4.546789 0.241386 0.228853 -1.323502
  35 -0.000001 13.407278 -0.000001 -0.409892 0.293138 1.226167
  36 0.000003 18.158888 -0.000004 -1.169013 -1.532153 1.571377
  37 0.000000 2.542065 -0.000001 1.558254 -3.141546 0.000000
  38 -0.000000 3.135160 -0.000003 -0.091756 0.342973 -0.030933
  39 4.301485 1.405968 0.000001 0.035451 0.376513 0.080973
  40 -0.000001 7.030431 -0.000001 0.069974 0.061818 0.421191
end
