version 1
nodes
0 "ShinIK.R" -1
1 "ShinIK.L" -1
2 "All.000" -1
3 "ForearmIK.R" 2
4 "ForearmIK.L" 2
5 "UpperarmIK.R" 2
6 "UpperarmIK.L" 2
7 "KneeIK.R" 2
8 "KneeIK.L" 2
9 "Spine.009" 2
10 "Spine.001" 9
11 "Spine.002" 10
12 "Spine.004" 11
13 "Arm.R.001" 11
14 "Arm.R.002" 13
15 "Arm.R.003" 14
16 "Arm.R.004" 15
17 "Arm.R.005" 16
18 "Arm.R.006" 15
19 "Arm.R.007" 18
20 "Wep.000" 15
21 "Arm.L.001" 11
22 "Arm.L.002" 21
23 "Arm.L.003" 22
24 "Arm.L.004" 23
25 "Arm.L.005" 24
26 "Arm.L.006" 23
27 "Arm.L.007" 26
28 "Spine.000" 9
29 "Leg.R.001" 28
30 "Leg.R.002" 29
31 "Leg.R.003" 30
32 "Leg.R.004" 31
33 "Leg.R.005" 32
34 "Leg.L.001" 28
35 "Leg.L.002" 34
36 "Leg.L.003" 35
37 "Leg.L.004" 36
38 "Leg.L.005" 37
39 "Loincloth.000" 28
40 "Loincloth.001" 39
end
skeleton
  time 0
  0 7.268085 -18.768211 -18.417898 -0.029194 0.000000 -3.141593
  1 -5.962544 11.376813 -19.881636 0.390875 0.000000 3.141593
  2 0.907535 -3.182838 55.465324 -1.570796 0.000000 1.570796
  3 12.817963 53.337929 -13.892647 1.570796 -1.570795 0.000000
  4 6.134447 47.218704 16.426754 1.570796 -1.570796 0.000000
  5 -6.091707 38.669411 -16.689762 1.570796 -1.570796 0.000000
  6 -6.558262 38.067539 9.111264 1.570796 -1.570796 0.000000
  7 26.355852 59.971519 -5.658656 1.570796 1.570796 0.000000
  8 26.355848 59.971516 6.168214 1.570796 1.570796 0.000000
  9 17.187601 44.149719 0.000009 1.570796 1.570796 0.000000
  10 -0.000001 -17.187595 -0.000000 1.500912 0.239201 1.554213
  11 -0.000001 9.251829 0.000001 -0.079380 0.116535 -0.406281
  12 3.332968 6.058992 0.446928 0.136712 -0.021957 -0.341728
  13 -0.000000 4.780091 0.000000 1.284319 0.253606 -2.959958
  14 -0.000000 10.318099 -0.000002 -0.575859 0.025886 0.365611
  15 0.000001 10.229101 -0.000000 -0.370906 0.265139 1.039386
  16 -0.000005 17.897512 0.000003 0.344399 -0.774154 0.193776
  17 -0.000001 4.707228 -0.000000 -1.383524 -0.068536 -0.127042
  18 1.268679 18.805830 -1.919927 -0.620701 -0.478959 0.634470
  19 -0.000000 2.947696 0.000001 0.591003 0.259473 -0.900673
  20 2.953895 21.196636 2.492678 1.427506 -2.523351 0.439321
  21 0.002827 4.780091 -0.021077 -1.880463 -0.127749 -0.177834
  22 -0.000001 10.318095 0.000000 -2.236694 0.563203 -1.675959
  23 -0.000001 10.229101 0.000001 1.874363 -0.776710 0.581305
  24 0.000000 17.897507 0.000002 -0.475825 -1.109409 0.406927
  25 0.000001 5.176010 -0.000002 0.618715 -0.203133 -0.478853
  26 0.410076 18.844082 1.134907 0.413392 -0.886545 0.703143
  27 -0.000000 3.158195 -0.000000 -0.729143 -0.545644 -0.753581
  28 -0.000001 -17.187595 -0.000000 -1.570796 -0.000000 1.416035
  29 0.000001 3.905659 -4.525525 -0.187695 -0.146732 0.154258
  30 0.000002 13.357017 -0.000002 0.144250 -0.045641 0.636512
  31 0.000000 18.158888 0.000001 -1.447841 1.609456 -1.571259
  32 -0.000000 2.542063 0.000000 1.558254 0.000018 0.000000
  33 0.000001 3.135158 0.000001 0.517171 0.027813 0.044814
  34 -0.000002 3.905660 4.546789 0.282751 -0.083494 -0.722460
  35 -0.000001 13.407275 -0.000002 -0.179197 0.042498 0.434508
  36 0.000003 18.158882 0.000004 -1.274771 -1.532148 1.571423
  37 -0.000000 2.542063 -0.000000 1.558254 -3.141546 0.000000
  38 -0.000000 3.135157 -0.000002 -0.091756 0.342973 -0.030933
  39 4.301485 1.405969 0.000001 -0.074294 0.004316 0.052119
  40 -0.000000 7.030429 -0.000001 -0.017910 0.191523 -0.135369
  time 1
  0 7.268085 -18.721180 -17.147411 0.000558 0.000000 -3.141593
  1 -5.962545 7.465147 -19.882082 0.242063 0.000000 3.141593
  2 0.907535 -3.182838 55.465324 -1.570796 0.000000 1.570796
  3 12.664190 52.526310 -14.026258 1.570796 -1.570795 0.000000
  4 6.341112 47.666542 16.426754 1.570796 -1.570796 0.000000
  5 -6.091707 38.669411 -16.689762 1.570796 -1.570796 0.000000
  6 -6.558262 38.067539 9.111264 1.570796 -1.570796 0.000000
  7 26.355852 59.971519 -5.658656 1.570796 1.570796 0.000000
  8 26.355848 59.971516 6.168214 1.570796 1.570796 0.000000
  9 17.187601 43.936272 0.000009 1.570796 1.570796 0.000000
  10 -0.000001 -17.187595 -0.000000 1.490080 0.239013 1.551648
  11 0.000000 9.251827 -0.000000 -0.092332 0.099328 -0.399494
  12 3.332966 6.058992 0.446928 0.135000 -0.024865 -0.341825
  13 -0.000002 4.780093 0.000001 1.284319 0.253606 -2.959958
  14 -0.000000 10.318100 -0.000000 -0.587953 0.013317 0.348930
  15 -0.000001 10.229106 -0.000001 -0.377264 0.275910 1.067855
  16 -0.000001 17.897516 -0.000000 0.394616 -0.810614 0.123594
  17 -0.000001 4.707228 -0.000001 -1.388260 -0.066147 -0.130414
  18 1.296657 18.854092 -1.932184 -0.608285 -0.518133 0.553229
  19 0.000000 2.947696 0.000001 0.591003 0.259472 -0.900673
  20 2.976787 20.995131 2.676556 1.415122 -2.564718 0.398650
  21 0.002825 4.780092 -0.021077 -1.880463 -0.127749 -0.177833
  22 0.000001 10.318100 -0.000000 -2.215646 0.582551 -1.673550
  23 0.000001 10.229104 -0.000001 1.844465 -0.762510 0.587175
  24 -0.000004 17.897503 0.000003 -0.475825 -1.109409 0.406928
  25 0.000002 5.176011 0.000001 0.601987 -0.193404 -0.463895
  26 0.410073 18.844082 1.134908 0.413391 -0.886545 0.703142
  27 0.000002 3.158195 0.000000 -0.726895 -0.539626 -0.710388
  28 -0.000001 -17.187595 -0.000000 -1.570796 -0.000000 1.427498
  29 0.000000 3.905659 -4.525524 -0.199675 -0.153112 0.079930
  30 0.000000 13.357019 0.000000 0.173315 -0.070846 0.793854
  31 0.000001 18.158888 -0.000000 -1.477598 1.609457 -1.571261
  32 0.000000 2.542063 -0.000000 1.558254 0.000018 0.000000
  33 0.000000 3.135158 -0.000000 0.215197 0.017313 0.020290
  34 -0.000002 3.905661 4.546788 0.340610 -0.043239 -0.748124
  35 -0.000003 13.407272 0.000002 -0.273347 0.101808 0.691354
  36 0.000005 18.158882 -0.000003 -1.423621 -1.532141 1.571469
  37 0.000000 2.542063 0.000001 1.558254 -3.141546 0.000000
  38 0.000000 3.135157 0.000001 -0.091756 0.342973 -0.030933
  39 4.301485 1.405968 0.000002 -0.068745 0.003956 0.051014
  40 0.000000 7.030432 -0.000000 -0.092767 0.203036 -0.059305
  time 2
  0 7.268085 -18.391966 -16.295767 0.020501 0.000000 -3.141593
  1 -5.962545 3.553481 -19.882528 0.089650 0.000000 3.141593
  2 0.907535 -3.182838 55.465324 -1.570796 0.000000 1.570796
  3 12.267619 51.944756 -14.383803 1.570796 -1.570795 0.000000
  4 6.547777 48.114372 16.426754 1.570796 -1.570796 0.000000
  5 -6.091707 38.669411 -16.689762 1.570796 -1.570796 0.000000
  6 -6.558262 38.067539 9.111264 1.570796 -1.570796 0.000000
  7 26.355852 59.971519 -5.658656 1.570796 1.570796 0.000000
  8 26.355848 59.971516 6.168214 1.570796 1.570796 0.000000
  9 17.187601 43.402653 0.000009 1.570796 1.570796 0.000000
  10 -0.000001 -17.187595 -0.000000 1.490092 0.239013 1.551651
  11 -0.000001 9.251828 0.000000 -0.087361 0.095452 -0.390830
  12 3.332968 6.058990 0.446929 0.130468 -0.032977 -0.342219
  13 0.000002 4.780089 0.000000 1.284319 0.253606 -2.959958
  14 0.000000 10.318098 0.000001 -0.585977 -0.003904 0.318955
  15 -0.000001 10.229103 0.000000 -0.379858 0.280509 1.079880
  16 -0.000001 17.897514 -0.000003 0.417771 -0.807118 0.079578
  17 -0.000001 4.707228 0.000000 -1.392907 -0.063822 -0.133727
  18 1.289391 18.888916 -1.936756 -0.600100 -0.529783 0.528108
  19 -0.000001 2.947697 0.000000 0.591003 0.259473 -0.900673
  20 3.009873 20.928783 2.676830 1.397573 -2.564939 0.380953
  21 0.002828 4.780089 -0.021077 -1.880463 -0.127749 -0.177834
  22 -0.000001 10.318098 -0.000001 -2.165162 0.581542 -1.716506
  23 0.000000 10.229101 -0.000002 1.757237 -0.718998 0.600984
  24 -0.000004 17.897507 0.000004 -0.475825 -1.109409 0.406927
  25 0.000001 5.176010 0.000001 0.585867 -0.183695 -0.449514
  26 0.410072 18.844084 1.134909 0.413391 -0.886545 0.703143
  27 0.000002 3.158195 0.000000 -0.724350 -0.533684 -0.667247
  28 -0.000001 -17.187595 -0.000000 -1.570796 -0.000000 1.458378
  29 0.000001 3.905660 -4.525523 -0.200440 -0.130853 0.046423
  30 0.000000 13.357021 -0.000001 0.182732 -0.080949 0.850151
  31 -0.000001 18.158892 0.000001 -1.497540 1.609457 -1.571260
  32 0.000001 2.542065 -0.000001 1.558254 0.000018 0.000000
  33 -0.000001 3.135159 -0.000002 -0.086398 0.000000 0.000000
  34 -0.000001 3.905659 4.546790 0.333503 -0.019684 -0.664807
  35 -0.000003 13.407278 -0.000001 -0.299612 0.125227 0.771320
  36 -0.000003 18.158892 -0.000000 -1.576054 -1.532134 1.571482
  37 -0.000000 2.542063 0.000000 1.558254 -3.141546 0.000000
  38 0.000000 3.135156 -0.000000 -0.091756 0.342973 -0.030933
  39 4.301485 1.405968 0.000001 -0.053855 0.003074 0.050127
  40 -0.000000 7.030431 -0.000000 -0.164571 0.214900 0.014030
  time 3
  0 7.268085 -17.498386 -15.779194 0.032596 0.000000 -3.141593
  1 -5.962545 -0.358184 -19.882978 -0.064682 0.000000 3.141593
  2 0.907535 -3.182838 55.465324 -1.570796 0.000000 1.570796
  3 11.725369 51.554920 -14.900334 1.570796 -1.570795 0.000000
  4 6.372775 47.786205 16.164196 1.570796 -1.570796 0.000000
  5 -6.091707 38.669411 -16.689762 1.570796 -1.570796 0.000000
  6 -6.558262 38.067539 9.111264 1.570796 -1.570796 0.000000
  7 26.355852 59.971519 -5.658656 1.570796 1.570796 0.000000
  8 26.355848 59.971516 6.168214 1.570796 1.570796 0.000000
  9 17.187601 42.708946 0.000009 1.570796 1.570796 0.000000
  10 -0.000001 -17.187595 -0.000000 1.490282 0.239017 1.551695
  11 -0.000002 9.251829 0.000000 -0.080843 0.096127 -0.383459
  12 3.332968 6.058991 0.446928 0.123793 -0.045373 -0.342792
  13 0.000001 4.780091 -0.000000 1.284319 0.253606 -2.959958
  14 -0.000001 10.318101 -0.000001 -0.593697 -0.015291 0.294185
  15 -0.000001 10.229102 0.000000 -0.375825 0.273412 1.061292
  16 -0.000002 17.897514 -0.000003 0.402008 -0.811804 0.101743
  17 -0.000000 4.707227 0.000000 -1.397465 -0.061559 -0.136981
  18 1.299423 18.865292 -1.931495 -0.612001 -0.525367 0.548155
  19 -0.000001 2.947697 0.000001 0.591003 0.259473 -0.900673
  20 2.983620 20.971069 2.662072 1.411011 -2.564694 0.385146
  21 0.002826 4.780092 -0.021077 -1.880463 -0.127749 -0.177834
  22 0.000001 10.318101 -0.000000 -2.163122 0.545606 -1.733623
  23 0.000001 10.229100 -0.000001 1.736178 -0.708052 0.603557
  24 -0.000001 17.897516 0.000001 -0.475825 -1.109409 0.406927
  25 0.000001 5.176011 0.000001 0.570747 -0.174284 -0.436056
  26 0.410075 18.844093 1.134907 0.413391 -0.886545 0.703143
  27 0.000001 3.158196 -0.000000 -0.721517 -0.527837 -0.624193
  28 -0.000001 -17.187595 -0.000000 -1.570796 -0.000000 1.503217
  29 0.000001 3.905661 -4.525525 -0.197238 -0.092928 0.005361
  30 0.000003 13.357020 -0.000001 0.187275 -0.086255 0.878598
  31 -0.000001 18.158886 -0.000000 -1.509635 1.609457 -1.571264
  32 -0.000000 2.542066 -0.000001 1.558254 0.000018 0.000000
  33 0.000001 3.135157 0.000002 -0.086398 0.000000 0.000000
  34 -0.000002 3.905660 4.546790 0.296374 0.000898 -0.524836
  35 -0.000000 13.407276 -0.000002 -0.294229 0.120119 0.754500
  36 0.000001 18.158895 -0.000000 1.411228 -1.609465 -1.570129
  37 -0.000000 2.542063 0.000000 1.558254 -3.141546 -0.000000
  38 0.000001 3.135159 -0.000000 -0.091756 0.342973 -0.030933
  39 4.301486 1.405969 0.000001 -0.032281 0.001831 0.049415
  40 0.000000 7.030431 -0.000001 -0.152925 0.196022 0.015912
  time 4
  0 7.268085 -15.758256 -15.513927 0.038806 0.000000 -3.141593
  1 -5.962545 -4.269851 -19.883425 -0.219119 0.000000 3.141593
  2 0.907535 -3.182838 55.465324 -1.570796 0.000000 1.570796
  3 11.134562 51.318466 -15.510913 1.570796 -1.570795 0.000000
  4 5.955460 47.003647 15.531032 1.570796 -1.570796 0.000000
  5 -6.091707 38.669411 -16.689762 1.570796 -1.570796 0.000000
  6 -6.558262 38.067539 9.111264 1.570796 -1.570796 0.000000
  7 26.355852 59.971519 -5.658656 1.570796 1.570796 0.000000
  8 26.355848 59.971516 6.168214 1.570796 1.570796 0.000000
  9 17.187601 42.015244 0.000009 1.570796 1.570796 0.000000
  10 -0.000001 -17.187595 -0.000000 1.491103 0.239032 1.551890
  11 0.000000 9.251825 0.000000 -0.073070 0.097415 -0.377537
  12 3.332966 6.058992 0.446928 0.115477 -0.061113 -0.343421
  13 -0.000000 4.780091 0.000000 1.284319 0.253606 -2.959958
  14 0.000001 10.318095 -0.000001 -0.604331 -0.019777 0.276747
  15 -0.000001 10.229102 0.000003 -0.367383 0.259451 1.024162
  16 -0.000000 17.897512 0.000002 0.362481 -0.819507 0.156437
  17 -0.000001 4.707227 0.000001 -1.401934 -0.059356 -0.140176
  18 1.322884 18.808777 -1.918857 -0.639262 -0.511911 0.595154
  19 -0.000000 2.947696 0.000000 0.591003 0.259473 -0.900673
  20 2.921299 21.075695 2.621735 1.442893 -2.562586 0.395859
  21 0.002826 4.780091 -0.021077 -1.880463 -0.127749 -0.177833
  22 0.000001 10.318100 0.000002 -2.209135 0.480541 -1.745559
  23 -0.000001 10.229099 0.000001 1.766933 -0.723981 0.599697
  24 0.000000 17.897501 -0.000001 -0.475825 -1.109409 0.406927
  25 -0.000000 5.176009 -0.000000 0.556999 -0.165468 -0.423845
  26 0.410076 18.844076 1.134905 0.413391 -0.886545 0.703142
  27 0.000000 3.158195 -0.000000 -0.718406 -0.522099 -0.581265
  28 -0.000001 -17.187595 -0.000000 -1.570796 -0.000000 1.556486
  29 0.000002 3.905660 -4.525525 -0.199149 -0.050068 -0.075394
  30 -0.000000 13.357025 -0.000002 0.194216 -0.094989 0.924010
  31 0.000002 18.158886 -0.000002 -1.515838 1.609457 -1.571260
  32 0.000000 2.542065 0.000002 1.558254 0.000018 0.000000
  33 -0.000000 3.135157 -0.000001 -0.086398 0.000000 0.000000
  34 -0.000002 3.905661 4.546790 0.247397 0.024594 -0.345604
  35 -0.000002 13.407276 -0.000001 -0.263575 0.093991 0.662801
  36 -0.000002 18.158888 -0.000001 1.256831 -1.609473 -1.570170
  37 0.000000 2.542068 0.000000 1.558254 -3.141546 0.000000
  38 0.000001 3.135157 0.000001 -0.091756 0.342973 -0.030933
  39 4.301485 1.405968 0.000001 -0.006691 0.000377 0.048838
  40 0.000000 7.030431 -0.000001 -0.121113 0.143833 0.018818
  time 5
  0 7.268085 -12.889391 -15.416199 0.041094 0.000000 -3.141593
  1 -5.962546 -6.882752 -20.050379 -0.287501 0.000000 3.141593
  2 0.907535 -3.182838 55.465324 -1.570796 0.000000 1.570796
  3 10.592312 51.197041 -16.150597 1.570796 -1.570795 0.000000
  4 5.457375 46.069626 14.759038 1.570796 -1.570796 0.000000
  5 -6.091707 38.669411 -16.689762 1.570796 -1.570796 0.000000
  6 -6.558262 38.067539 9.111264 1.570796 -1.570796 0.000000
  7 26.355852 59.971519 -5.658656 1.570796 1.570796 0.000000
  8 26.355848 59.971516 6.168214 1.570796 1.570796 0.000000
  9 17.187601 41.481625 0.000009 1.570796 1.570796 0.000000
  10 -0.000001 -17.187595 -0.000000 1.493316 0.239072 1.552414
  11 -0.000001 9.251829 0.000000 -0.063474 0.099054 -0.373204
  12 3.332969 6.058992 0.446928 0.105924 -0.079243 -0.344001
  13 0.000001 4.780092 0.000000 1.284319 0.253606 -2.959958
  14 -0.000000 10.318098 -0.000004 -0.607415 -0.020111 0.260255
  15 -0.000001 10.229101 0.000000 -0.358757 0.246263 0.988312
  16 -0.000003 17.897520 -0.000003 0.311953 -0.822294 0.225170
  17 -0.000000 4.707228 0.000000 -1.406315 -0.057213 -0.143311
  18 1.349813 18.740913 -1.903570 -0.670506 -0.493272 0.651480
  19 -0.000001 2.947696 0.000001 0.591004 0.259473 -0.900673
  20 2.847570 21.209324 2.561704 1.480590 -2.556586 0.410189
  21 0.002827 4.780091 -0.021077 -1.880463 -0.127749 -0.177834
  22 0.000002 10.318099 -0.000001 -2.284192 0.405666 -1.755461
  23 0.000001 10.229099 0.000000 1.825323 -0.753223 0.590633
  24 -0.000000 17.897501 0.000003 -0.475825 -1.109409 0.406927
  25 0.000001 5.176010 0.000000 0.544980 -0.157555 -0.413191
  26 0.410075 18.844080 1.134906 0.413392 -0.886545 0.703142
  27 0.000000 3.158195 0.000001 -0.715028 -0.516488 -0.538499
  28 -0.000001 -17.187595 -0.000000 -1.570796 0.000000 1.612570
  29 0.000001 3.905661 -4.525524 -0.217215 -0.012591 -0.218564
  30 -0.000000 13.357020 -0.000001 0.206242 -0.112329 1.009859
  31 0.000002 18.158894 0.000000 -1.518132 1.609457 -1.571260
  32 0.000001 2.542066 0.000001 1.558254 0.000018 0.000000
  33 0.000000 3.135158 -0.000001 -0.086398 0.000000 0.000000
  34 -0.000002 3.905660 4.546789 0.195706 0.052600 -0.174036
  35 0.000001 13.407273 -0.000000 -0.204182 0.055080 0.499393
  36 -0.000001 18.158888 0.000001 1.188474 -1.609475 -1.570199
  37 0.000000 2.542063 0.000001 1.558254 -3.141546 0.000000
  38 -0.000000 3.135156 -0.000002 -0.091756 0.342973 -0.030933
  39 4.301485 1.405968 0.000001 0.020239 -0.001137 0.048367
  40 0.000000 7.030431 -0.000000 -0.075007 0.067149 0.019270
  time 6
  0 7.268086 -8.609608 -15.402237 0.041420 -0.000000 -3.141593
  1 -5.962546 -9.495654 -20.217337 -0.355176 0.000000 3.141593
  2 0.907535 -3.182838 55.465324 -1.570796 0.000000 1.570796
  3 10.195743 51.152306 -16.754442 1.570796 -1.570795 0.000000
  4 5.040061 45.287064 14.079987 1.570796 -1.570796 0.000000
  5 -6.091707 38.669411 -16.689762 1.570796 -1.570796 0.000000
  6 -6.558262 38.067539 9.111264 1.570796 -1.570796 0.000000
  7 26.355852 59.971519 -5.658656 1.570796 1.570796 0.000000
  8 26.355848 59.971516 6.168214 1.570796 1.570796 0.000000
  9 17.187601 41.268177 0.000009 1.570796 1.570796 0.000000
  10 -0.000001 -17.187595 -0.000000 1.497981 0.239153 1.553519
  11 -0.000001 9.251829 0.000001 -0.051493 0.100790 -0.370601
  12 3.332967 6.058991 0.446928 0.095478 -0.098793 -0.344445
  13 -0.000001 4.780093 0.000000 1.284319 0.253606 -2.959958
  14 0.000000 10.318097 -0.000001 -0.590940 -0.022205 0.235947
  15 0.000001 10.229099 0.000001 -0.356238 0.242593 0.978188
  16 -0.000005 17.897514 -0.000006 0.265305 -0.814128 0.287526
  17 -0.000000 4.707227 0.000000 -1.410609 -0.055127 -0.146387
  18 1.370260 18.683224 -1.890354 -0.695569 -0.474864 0.700514
  19 -0.000000 2.947696 0.000001 0.591003 0.259473 -0.900673
  20 2.787107 21.338577 2.487892 1.511403 -2.545005 0.425194
  21 0.002826 4.780092 -0.021077 -1.880463 -0.127749 -0.177833
  22 0.000005 10.318104 -0.000002 -2.364720 0.338915 -1.763127
  23 0.000002 10.229103 -0.000000 1.889453 -0.783732 0.578128
  24 0.000004 17.897507 -0.000004 -0.475825 -1.109409 0.406927
  25 -0.000001 5.176010 -0.000000 0.535033 -0.150860 -0.404390
  26 0.410078 18.844082 1.134901 0.413392 -0.886545 0.703142
  27 -0.000001 3.158196 0.000000 -0.711395 -0.511018 -0.495931
  28 -0.000001 -17.187595 -0.000000 -1.570796 0.000000 1.665820
  29 0.000001 3.905659 -4.525525 -0.257756 0.007674 -0.433916
  30 -0.000000 13.357020 -0.000000 0.220263 -0.137675 1.127685
  31 0.000002 18.158882 0.000002 -1.518460 1.609457 -1.571267
  32 -0.000001 2.542064 0.000000 1.558254 0.000018 0.000000
  33 0.000001 3.135157 -0.000001 -0.086398 0.000000 0.000000
  34 -0.000001 3.905663 4.546790 0.154292 0.080265 0.016408
  35 -0.000000 13.407280 -0.000002 -0.124865 0.021647 0.298556
  36 0.000001 18.158886 -0.000002 1.120837 -1.609478 -1.570233
  37 0.000000 2.542064 0.000000 1.558254 -3.141546 0.000000
  38 -0.000000 3.135157 0.000000 -0.091756 0.342973 -0.030933
  39 4.301486 1.405968 0.000001 0.045828 -0.002567 0.047988
  40 0.000000 7.030431 -0.000000 -0.019998 -0.024422 0.014178
  time 7
  0 7.268086 -2.251929 -16.004665 0.035114 -0.000000 -3.141593
  1 -5.962546 -12.108555 -20.384291 -0.422003 0.000000 3.141593
  2 0.907535 -3.182838 55.465324 -1.570796 0.000000 1.570796
  3 10.041971 51.145912 -17.257509 1.570796 -1.570795 0.000000
  4 4.865058 44.958893 13.725652 1.570796 -1.570796 0.000000
  5 -6.091707 38.669411 -16.689762 1.570796 -1.570796 0.000000
  6 -6.558262 38.067539 9.111264 1.570796 -1.570796 0.000000
  7 26.355852 59.971519 -5.658656 1.570796 1.570796 0.000000
  8 26.355848 59.971516 6.168214 1.570796 1.570796 0.000000
  9 17.187601 41.718418 0.000009 1.570796 1.570796 0.000000
  10 -0.000001 -17.187595 -0.000000 1.506467 0.239287 1.555529
  11 -0.000001 9.251828 0.000001 -0.036572 0.102378 -0.369874
  12 3.332967 6.058994 0.446928 0.084456 -0.118787 -0.344694
  13 -0.000000 4.780092 0.000000 1.284319 0.253606 -2.959958
  14 -0.000001 10.318100 0.000000 -0.529546 -0.038856 0.183683
  15 0.000002 10.229099 0.000002 -0.370863 0.265069 1.039196
  16 0.000001 17.897509 -0.000001 0.237773 -0.791228 0.322838
  17 -0.000000 4.707226 0.000000 -1.414815 -0.053098 -0.149403
  18 1.374272 18.657249 -1.883918 -0.705923 -0.463516 0.727011
  19 -0.000000 2.947696 -0.000000 0.591003 0.259473 -0.900673
  20 2.764575 21.430134 2.406205 1.522410 -2.526564 0.438243
  21 0.002825 4.780093 -0.021077 -1.880463 -0.127749 -0.177833
  22 0.000003 10.318099 -0.000002 -2.434717 0.296504 -1.758973
  23 0.000001 10.229101 -0.000002 1.955987 -0.813517 0.562452
  24 -0.000002 17.897509 0.000002 -0.475825 -1.109409 0.406927
  25 0.000001 5.176011 -0.000001 0.527498 -0.145699 -0.397734
  26 0.410073 18.844086 1.134908 0.413392 -0.886545 0.703142
  27 -0.000001 3.158196 0.000000 -0.716388 -0.511444 -0.501521
  28 -0.000001 -17.187595 -0.000000 -1.570796 -0.000000 1.710636
  29 0.000001 3.905660 -4.525525 -0.306145 0.008075 -0.700421
  30 -0.000001 13.357019 -0.000002 0.225843 -0.150201 1.183471
  31 0.000005 18.158888 0.000005 -1.512152 1.609458 -1.571268
  32 -0.000001 2.542064 -0.000000 1.558254 0.000018 0.000000
  33 0.000001 3.135157 -0.000001 -0.086398 0.000000 0.000000
  34 -0.000000 3.905661 4.546789 0.144152 0.106256 0.166861
  35 -0.000001 13.407273 -0.000000 -0.072428 0.009082 0.171754
  36 0.000002 18.158882 -0.000001 1.054048 -1.609481 -1.570272
  37 0.000000 2.542063 0.000000 1.521270 3.139924 -0.003690
  38 -0.000000 3.135156 -0.000001 -0.009376 0.336831 -0.007290
  39 4.301485 1.405968 0.000001 0.067402 -0.003766 0.047701
  40 -0.000000 7.030432 -0.000000 0.038989 -0.120450 0.001883
  time 8
  0 7.268087 4.695769 -17.418285 0.023401 -0.000000 -3.141593
  1 -5.962546 -14.920834 -19.398535 -0.362511 0.000000 3.141593
  2 0.907535 -3.182838 55.465324 -1.570796 0.000000 1.570796
  3 10.084469 51.801792 -17.608128 1.570796 -1.570795 0.000000
  4 5.356604 45.126595 13.644923 1.570796 -1.570796 0.000000
  5 -6.091707 38.669411 -16.689762 1.570796 -1.570796 0.000000
  6 -6.558262 38.067539 9.111264 1.570796 -1.570796 0.000000
  7 26.355852 59.971519 -5.658656 1.570796 1.570796 0.000000
  8 26.355848 59.971516 6.168214 1.570796 1.570796 0.000000
  9 17.187601 42.708950 0.000009 1.570796 1.570796 0.000000
  10 -0.000001 -17.187595 -0.000000 1.520445 0.239472 1.558844
  11 -0.000000 9.251827 0.000001 -0.019465 0.102625 -0.378666
  12 3.332966 6.058993 0.446928 0.073168 -0.138246 -0.344722
  13 -0.000002 4.780093 0.000000 1.284319 0.253606 -2.959958
  14 -0.000001 10.318098 -0.000002 -0.453703 -0.045892 0.160905
  15 0.000002 10.229099 -0.000001 -0.382227 0.284822 1.091092
  16 0.000003 17.897511 -0.000002 0.236743 -0.751546 0.321478
  17 -0.000002 4.707226 -0.000001 -1.418935 -0.051124 -0.152361
  18 1.314877 18.641214 -1.873565 -0.693536 -0.437765 0.717480
  19 -0.000002 2.947695 0.000001 0.591003 0.259472 -0.900673
  20 2.840479 21.455551 2.322874 1.516108 -2.490312 0.439130
  21 0.002824 4.780093 -0.021077 -1.880463 -0.127749 -0.177833
  22 -0.000000 10.318097 -0.000000 -2.446014 0.299753 -1.766734
  23 0.000001 10.229105 -0.000001 2.002013 -0.832976 0.550074
  24 -0.000002 17.897512 -0.000002 -0.475825 -1.109409 0.406928
  25 0.000001 5.176011 0.000001 0.522717 -0.142384 -0.393514
  26 0.410074 18.844091 1.134903 0.413391 -0.886545 0.703142
  27 0.000000 3.158195 -0.000002 -0.721378 -0.511894 -0.507110
  28 -0.000001 -17.187595 -0.000000 -1.570796 -0.000000 1.741512
  29 0.000001 3.905658 -4.525526 -0.320725 0.024379 -0.857653
  30 -0.000002 13.357018 -0.000001 0.208303 -0.115648 1.025746
  31 0.000000 18.158892 -0.000001 -1.500440 1.609457 -1.571263
  32 0.000000 2.542067 0.000000 1.558254 0.000018 -0.000000
  33 -0.000001 3.135157 0.000000 -0.086398 0.000000 0.000000
  34 -0.000001 3.905662 4.546790 0.225699 0.161643 0.076710
  35 -0.000000 13.407273 -0.000001 -0.206178 0.056174 0.504657
  36 0.000004 18.158882 0.000000 1.113501 -1.609478 -1.570232
  37 -0.000000 2.542065 0.000000 1.439719 3.136633 -0.012032
  38 -0.000000 3.135157 0.000002 0.172019 0.316824 0.042560
  39 4.301486 1.405968 0.000001 0.082295 -0.004592 0.047519
  40 -0.000000 7.030431 -0.000001 0.096975 -0.210343 -0.017299
  time 9
  0 7.268087 9.283383 -19.052588 0.017093 -0.000000 -3.141593
  1 -5.962547 -17.733112 -18.412779 -0.303257 0.000000 3.141593
  2 0.907535 -3.182838 55.465324 -1.570796 0.000000 1.570796
  3 10.181773 53.019848 -17.807722 1.570796 -1.570795 0.000000
  4 6.269473 45.554878 13.615183 1.570796 -1.570796 0.000000
  5 -6.091707 38.669411 -16.689762 1.570796 -1.570796 0.000000
  6 -6.558262 38.067539 9.111264 1.570796 -1.570796 0.000000
  7 26.355852 59.971519 -5.658656 1.570796 1.570796 0.000000
  8 26.355848 59.971516 6.168214 1.570796 1.570796 0.000000
  9 17.187601 43.699478 0.000009 1.570796 1.570796 0.000000
  10 -0.000001 -17.187595 -0.000000 1.541895 0.239668 1.563934
  11 0.000000 9.251826 -0.000000 -0.002617 0.101378 -0.399278
  12 3.332968 6.058992 0.446927 0.061951 -0.156194 -0.344538
  13 0.000001 4.780091 -0.000000 1.284319 0.253606 -2.959958
  14 0.000002 10.318100 -0.000000 -0.393199 -0.037683 0.182662
  15 0.000001 10.229097 0.000002 -0.383458 0.287109 1.097010
  16 0.000004 17.897503 -0.000005 0.249265 -0.709990 0.300059
  17 -0.000002 4.707223 0.000000 -1.422969 -0.049204 -0.155259
  18 1.208913 18.622276 -1.858506 -0.667955 -0.395922 0.689252
  19 -0.000001 2.947694 -0.000000 0.591003 0.259473 -0.900673
  20 2.976523 21.435581 2.253818 1.503461 -2.446853 0.430933
  21 0.002827 4.780091 -0.021077 -1.880463 -0.127749 -0.177834
  22 -0.000001 10.318098 -0.000000 -2.391903 0.337001 -1.803314
  23 0.000001 10.229105 -0.000001 2.000066 -0.832172 0.550622
  24 0.000001 17.897514 0.000001 -0.475825 -1.109409 0.406927
  25 0.000000 5.176013 -0.000001 0.521042 -0.141216 -0.392037
  26 0.410078 18.844093 1.134905 0.413392 -0.886545 0.703142
  27 0.000000 3.158195 0.000000 -0.726368 -0.512368 -0.512699
  28 -0.000001 -17.187595 -0.000000 -1.570796 0.000000 1.753013
  29 0.000001 3.905659 -4.525527 -0.289005 0.067790 -0.827911
  30 -0.000001 13.357019 -0.000002 0.161009 -0.059192 0.724666
  31 0.000001 18.158892 -0.000003 -1.494130 1.609457 -1.571260
  32 -0.000000 2.542067 -0.000001 1.558254 0.000018 0.000000
  33 0.000001 3.135157 0.000001 -0.086398 0.000000 0.000000
  34 -0.000000 3.905661 4.546790 0.271383 0.178899 0.114895
  35 0.000001 13.407271 -0.000001 -0.252054 0.085334 0.629841
  36 0.000001 18.158884 -0.000002 1.172726 -1.609476 -1.570204
  37 -0.000000 2.542065 -0.000002 1.358143 3.134032 -0.020615
  38 -0.000000 3.135155 0.000002 0.350798 0.288684 0.087467
  39 4.301486 1.405968 0.000001 0.087850 -0.004899 0.047456
  40 -0.000000 7.030432 -0.000000 0.148240 -0.284249 -0.040926
  time 10
  0 7.268087 10.091453 -20.022829 0.258569 -0.000000 -3.141593
  1 -5.962547 -20.545395 -17.427021 -0.244342 -0.000000 3.141593
  2 0.907535 -3.182838 55.465324 -1.570796 0.000000 1.570796
  3 10.288605 53.675724 -17.870985 1.570796 -1.570795 0.000000
  4 6.761018 46.131519 13.610934 1.570796 -1.570796 0.000000
  5 -6.091707 38.669411 -16.689762 1.570796 -1.570796 0.000000
  6 -6.558262 38.067539 9.111264 1.570796 -1.570796 0.000000
  7 26.355852 59.971519 -5.658656 1.570796 1.570796 0.000000
  8 26.355848 59.971516 6.168214 1.570796 1.570796 0.000000
  9 17.187601 44.149719 0.000009 1.570796 1.570796 0.000000
  10 -0.000001 -17.187595 -0.000000 1.573094 0.239763 1.571342
  11 0.000002 9.251826 0.000001 0.011971 0.099709 -0.423818
  12 3.332968 6.058992 0.446928 0.051202 -0.171666 -0.344186
  13 -0.000000 4.780092 -0.000000 1.284319 0.253606 -2.959958
  14 0.000001 10.318098 -0.000000 -0.338634 -0.019379 0.183232
  15 -0.000001 10.229101 -0.000002 -0.388454 0.296733 1.121739
  16 0.000000 17.897514 -0.000001 0.261549 -0.688483 0.275818
  17 -0.000002 4.707227 -0.000002 -1.426917 -0.047337 -0.158098
  18 1.142132 18.635464 -1.858341 -0.644447 -0.375679 0.670967
  19 -0.000000 2.947696 0.000000 0.591003 0.259472 -0.900673
  20 3.049175 21.410730 2.219474 1.482650 -2.427130 0.431833
  21 0.002826 4.780092 -0.021077 -1.880463 -0.127749 -0.177834
  22 0.000000 10.318098 0.000001 -2.319047 0.370991 -1.861313
  23 -0.000002 10.229104 -0.000001 1.930060 -0.802141 0.568879
  24 -0.000003 17.897518 0.000006 -0.475825 -1.109409 0.406928
  25 0.000001 5.176012 0.000001 0.527172 -0.143774 -0.394150
  26 0.410070 18.844095 1.134912 0.413391 -0.886545 0.703143
  27 0.000002 3.158196 0.000000 -0.731356 -0.512867 -0.518287
  28 -0.000001 -17.187595 -0.000000 -1.570796 0.000000 1.744240
  29 0.000001 3.905660 -4.525525 -0.254783 0.086598 -0.757591
  30 -0.000002 13.357018 -0.000001 0.130543 -0.036222 0.568361
  31 0.000000 18.158886 0.000001 1.405989 1.532132 1.570337
  32 -0.000000 2.542064 -0.000000 1.558254 0.000018 0.000000
  33 0.000001 3.135155 -0.000002 -0.086398 0.000000 0.000000
  34 -0.000001 3.905661 4.546789 0.285318 0.150331 0.244532
  35 0.000001 13.407274 -0.000002 -0.238262 0.075714 0.591271
  36 -0.000002 18.158884 0.000002 1.231619 -1.609473 -1.570181
  37 0.000001 2.542064 0.000000 1.321130 3.133085 -0.024572
  38 0.000000 3.135157 0.000002 0.430359 0.273613 0.105717
  39 4.301485 1.405969 0.000001 0.082851 -0.004933 0.047543
  40 -0.000000 7.030431 -0.000001 0.185884 -0.333591 -0.064763
  time 11
  0 7.268087 6.546444 -19.973188 0.142675 -0.000000 -3.141593
  1 -5.962547 -18.054005 -16.942890 -0.174764 -0.000000 3.141593
  2 0.907535 -3.182838 55.465324 -1.570796 0.000000 1.570796
  3 10.371957 53.532337 -17.753443 1.570796 -1.570795 0.000000
  4 6.649117 46.736259 13.705842 1.570796 -1.570796 0.000000
  5 -6.091707 38.669411 -16.689762 1.570796 -1.570796 0.000000
  6 -6.558262 38.067539 9.111264 1.570796 -1.570796 0.000000
  7 26.355852 59.971519 -5.658656 1.570796 1.570796 0.000000
  8 26.355848 59.971516 6.168214 1.570796 1.570796 0.000000
  9 17.187601 44.028786 0.000009 1.570796 1.570796 0.000000
  10 -0.000001 -17.187595 -0.000000 1.616601 0.239522 1.581670
  11 0.000001 9.251827 0.000001 0.022255 0.098341 -0.444356
  12 3.332970 6.058990 0.446928 0.041464 -0.183716 -0.343748
  13 0.000001 4.780092 0.000000 1.284319 0.253606 -2.959958
  14 0.000001 10.318096 -0.000001 -0.286628 0.004075 0.140055
  15 0.000002 10.229103 0.000000 -0.400951 0.323743 1.189803
  16 -0.000001 17.897509 -0.000004 0.292294 -0.721599 0.242457
  17 -0.000003 4.707226 0.000000 -1.430781 -0.045521 -0.160878
  18 1.193851 18.711868 -1.887375 -0.632552 -0.420307 0.662609
  19 -0.000001 2.947696 0.000000 0.591003 0.259473 -0.900673
  20 3.003938 21.335018 2.312287 1.455927 -2.465634 0.440484
  21 0.002827 4.780092 -0.021077 -1.880463 -0.127749 -0.177834
  22 0.000002 10.318099 -0.000001 -2.252700 0.391215 -1.930025
  23 -0.000000 10.229101 -0.000002 1.811827 -0.746585 0.592928
  24 -0.000001 17.897514 0.000002 -0.475825 -1.109409 0.406927
  25 0.000001 5.176013 -0.000001 0.543873 -0.150332 -0.400694
  26 0.410075 18.844091 1.134907 0.413392 -0.886545 0.703142
  27 0.000001 3.158196 0.000001 -0.736342 -0.513390 -0.523873
  28 -0.000001 -17.187595 -0.000000 -1.570796 0.000000 1.720334
  29 0.000001 3.905660 -4.525527 -0.268660 0.051402 -0.772529
  30 -0.000003 13.357020 0.000000 0.171852 -0.069374 0.785391
  31 -0.000004 18.158892 -0.000003 1.521877 1.532134 1.570334
  32 0.000001 2.542067 0.000001 1.558254 0.000018 -0.000000
  33 -0.000000 3.135155 0.000003 -0.086398 0.000000 0.000000
  34 -0.000000 3.905662 4.546789 0.311108 0.177804 0.040715
  35 -0.000001 13.407279 -0.000001 -0.317405 0.143385 0.828800
  36 -0.000001 18.158886 0.000000 1.301173 -1.609470 -1.570157
  37 0.000000 2.542063 0.000000 1.439719 3.136633 -0.012032
  38 0.000001 3.135157 0.000002 0.172019 0.316824 0.042560
  39 4.301486 1.405968 0.000000 0.069275 -0.004972 0.047783
  40 0.000000 7.030431 0.000000 0.202054 -0.350787 -0.083835
  time 12
  0 7.268086 3.001437 -19.923548 0.025071 -0.000000 -3.141593
  1 -5.962547 -15.562614 -16.458757 -0.104907 -0.000000 3.141593
  2 0.907535 -3.182838 55.465324 -1.570796 0.000000 1.570796
  3 10.447920 53.162560 -17.435141 1.570796 -1.570795 0.000000
  4 6.441302 47.216728 13.982010 1.570796 -1.570796 0.000000
  5 -6.091707 38.669411 -16.689762 1.570796 -1.570796 0.000000
  6 -6.558262 38.067539 9.111264 1.570796 -1.570796 0.000000
  7 26.355852 59.971519 -5.658656 1.570796 1.570796 0.000000
  8 26.355848 59.971516 6.168214 1.570796 1.570796 0.000000
  9 17.187601 43.726456 0.000009 1.570796 1.570796 0.000000
  10 -0.000001 -17.187595 0.000001 1.629659 0.239364 1.584767
  11 0.000001 9.251828 0.000001 0.026147 0.097776 -0.452963
  12 3.332968 6.058994 0.446928 0.033641 -0.191446 -0.343342
  13 0.000001 4.780092 0.000000 1.284319 0.253606 -2.959958
  14 -0.000000 10.318101 0.000001 -0.279295 0.015058 0.124683
  15 0.000001 10.229103 0.000001 -0.406469 0.337442 1.223703
  16 -0.000004 17.897514 -0.000004 0.344399 -0.774154 0.193776
  17 -0.000001 4.707226 0.000001 -1.434561 -0.043755 -0.163599
  18 1.268682 18.805830 -1.919933 -0.620701 -0.478959 0.634470
  19 -0.000000 2.947696 0.000000 0.591003 0.259473 -0.900673
  20 2.953898 21.196636 2.492671 1.427506 -2.523351 0.439321
  21 0.002827 4.780092 -0.021077 -1.880463 -0.127749 -0.177833
  22 0.000001 10.318101 -0.000001 -2.200930 0.404255 -1.955418
  23 0.000001 10.229099 -0.000000 1.725955 -0.702679 0.604698
  24 -0.000002 17.897505 0.000001 -0.475825 -1.109409 0.406927
  25 0.000000 5.176010 0.000002 0.568644 -0.159124 -0.412002
  26 0.410071 18.844082 1.134907 0.413392 -0.886545 0.703142
  27 0.000001 3.158195 0.000000 -0.741325 -0.513937 -0.529457
  28 -0.000001 -17.187595 -0.000000 -1.570796 0.000000 1.684904
  29 0.000002 3.905659 -4.525524 -0.252210 0.025421 -0.710549
  30 0.000000 13.357020 -0.000002 0.187379 -0.086380 0.879263
  31 0.000001 18.158884 -0.000000 -1.502111 1.609457 -1.571266
  32 -0.000000 2.542062 0.000000 1.558254 0.000018 -0.000000
  33 -0.000000 3.135156 -0.000002 -0.086398 0.000000 0.000000
  34 -0.000002 3.905660 4.546788 0.325354 0.179627 -0.121118
  35 -0.000002 13.407271 -0.000003 -0.358941 0.195380 0.978497
  36 0.000003 18.158882 -0.000003 1.371016 -1.609467 -1.570138
  37 0.000000 2.542063 0.000001 1.558254 -3.141546 0.000000
  38 0.000001 3.135159 -0.000001 -0.091756 0.342973 -0.030933
  39 4.301485 1.405968 0.000001 0.049256 -0.004925 0.048139
  40 0.000001 7.030431 -0.000000 0.194694 -0.326696 -0.095187
  time 13
  0 7.268086 -0.543571 -19.873907 -0.093455 0.000000 -3.141593
  1 -5.962546 -13.071223 -15.974627 -0.034939 -0.000000 3.141593
  2 0.907535 -3.182838 55.465324 -1.570796 0.000000 1.570796
  3 10.544856 52.656937 -16.967560 1.570796 -1.570795 0.000000
  4 6.329401 47.412529 14.426603 1.570796 -1.570796 0.000000
  5 -6.091707 38.669411 -16.689762 1.570796 -1.570796 0.000000
  6 -6.558262 38.067539 9.111264 1.570796 -1.570796 0.000000
  7 26.355852 59.971519 -5.658656 1.570796 1.570796 0.000000
  8 26.355848 59.971516 6.168214 1.570796 1.570796 0.000000
  9 17.187601 43.333424 0.000009 1.570796 1.570796 0.000000
  10 -0.000001 -17.187595 -0.000000 1.629408 0.239368 1.584707
  11 0.000001 9.251828 -0.000000 0.019928 0.099362 -0.439868
  12 3.332967 6.058991 0.446928 0.029874 -0.194109 -0.343143
  13 -0.000001 4.780092 -0.000000 1.284319 0.253606 -2.959958
  14 -0.000001 10.318100 -0.000001 -0.299785 0.002706 0.113130
  15 0.000002 10.229102 0.000002 -0.409431 0.345396 1.243232
  16 -0.000004 17.897522 -0.000004 0.388144 -0.799854 0.144537
  17 -0.000000 4.707228 0.000001 -1.438257 -0.042038 -0.166262
  18 1.287928 18.875862 -1.937330 -0.604327 -0.505813 0.594722
  19 -0.000002 2.947698 0.000000 0.591003 0.259473 -0.900673
  20 2.956895 21.071011 2.618291 1.399204 -2.555433 0.431094
  21 0.002826 4.780091 -0.021077 -1.880463 -0.127749 -0.177833
  22 0.000001 10.318099 0.000000 -2.167871 0.420421 -1.951804
  23 0.000001 10.229104 0.000001 1.667257 -0.671131 0.609857
  24 -0.000004 17.897511 0.000002 -0.475825 -1.109409 0.406928
  25 0.000001 5.176011 0.000002 0.599006 -0.168321 -0.428363
  26 0.410071 18.844088 1.134907 0.413391 -0.886544 0.703143
  27 0.000001 3.158196 -0.000001 -0.746307 -0.514509 -0.535040
  28 -0.000001 -17.187595 -0.000000 -1.570796 -0.000000 1.641590
  29 0.000001 3.905659 -4.525525 -0.222600 0.000358 -0.603096
  30 0.000000 13.357022 0.000000 0.190326 -0.089995 0.898249
  31 0.000003 18.158890 -0.000001 -1.383577 1.609455 -1.571254
  32 0.000001 2.542065 0.000000 1.558254 0.000018 -0.000000
  33 -0.000000 3.135157 0.000002 -0.086398 0.000000 0.000000
  34 -0.000001 3.905660 4.546789 0.341265 0.166493 -0.262782
  35 -0.000001 13.407271 -0.000002 -0.383710 0.235824 1.084715
  36 0.000000 18.158890 -0.000001 1.440962 -1.609464 -1.570122
  37 0.000000 2.542064 0.000001 1.558254 -3.141546 -0.000000
  38 0.000000 3.135158 -0.000001 -0.091756 0.342973 -0.030933
  39 4.301485 1.405969 0.000001 0.024932 -0.004698 0.048572
  40 -0.000000 7.030431 -0.000001 0.170666 -0.265106 -0.100915
  time 14
  0 7.268086 -4.088579 -19.824266 -0.212077 0.000000 -3.141593
  1 -5.962546 -10.579833 -15.490496 0.034967 -0.000000 3.141593
  2 0.907535 -3.182838 55.465324 -1.570796 0.000000 1.570796
  3 10.691132 52.106033 -16.402191 1.570796 -1.570795 0.000000
  4 6.374288 47.201385 15.011559 1.570796 -1.570796 0.000000
  5 -6.091707 38.669411 -16.689762 1.570796 -1.570796 0.000000
  6 -6.558262 38.067539 9.111264 1.570796 -1.570796 0.000000
  7 26.355852 59.971519 -5.658656 1.570796 1.570796 0.000000
  8 26.355848 59.971516 6.168214 1.570796 1.570796 0.000000
  9 17.187601 42.940395 0.000009 1.570796 1.570796 0.000000
  10 -0.000001 -17.187595 -0.000000 1.627649 0.239391 1.584290
  11 0.000001 9.251828 0.000000 0.005126 0.103378 -0.411066
  12 3.332969 6.058990 0.446929 0.031364 -0.184054 -0.343413
  13 0.000001 4.780091 0.000000 1.284319 0.253606 -2.959958
  14 -0.000001 10.318098 -0.000002 -0.331331 -0.026424 0.097044
  15 -0.000000 10.229106 0.000003 -0.412041 0.352835 1.261412
  16 -0.000002 17.897528 -0.000004 0.422047 -0.810439 0.097975
  17 0.000000 4.707229 -0.000001 -1.441871 -0.040368 -0.168866
  18 1.293864 18.932993 -1.948603 -0.590758 -0.524514 0.563778
  19 0.000001 2.947699 0.000001 0.591004 0.259472 -0.900673
  20 2.978245 20.972752 2.679326 1.374830 -2.573001 0.422091
  21 0.002827 4.780090 -0.021077 -1.880463 -0.127749 -0.177834
  22 -0.000001 10.318096 0.000002 -2.154230 0.442678 -1.926706
  23 -0.000002 10.229104 -0.000002 1.638947 -0.655516 0.611492
  24 -0.000002 17.897511 -0.000002 -0.475826 -1.109409 0.406928
  25 0.000001 5.176012 0.000001 0.632473 -0.176092 -0.449951
  26 0.410073 18.844090 1.134902 0.413391 -0.886544 0.703143
  27 0.000001 3.158196 -0.000000 -0.665716 -0.505359 -0.579942
  28 -0.000001 -17.187595 -0.000000 -1.570796 0.000000 1.594082
  29 0.000001 3.905660 -4.525525 -0.190665 -0.027274 -0.463978
  30 0.000002 13.357019 -0.000003 0.184427 -0.082893 0.860658
  31 -0.000004 18.158890 -0.000003 -1.264941 1.609453 -1.571238
  32 0.000000 2.542063 -0.000001 1.558254 0.000018 -0.000000
  33 0.000000 3.135157 -0.000000 -0.086398 0.000000 0.000000
  34 -0.000001 3.905662 4.546790 0.363907 0.146996 -0.393125
  35 -0.000004 13.407275 -0.000002 -0.399765 0.268392 1.166080
  36 0.000001 18.158886 0.000001 1.510862 -1.609461 -1.570117
  37 0.000000 2.542066 -0.000002 1.558254 -3.141546 0.000000
  38 0.000000 3.135157 0.000000 -0.091756 0.342973 -0.030933
  39 4.301486 1.405969 0.000001 -0.001547 -0.004203 0.049036
  40 -0.000000 7.030430 -0.000001 0.135675 -0.177898 -0.104692
  time 15
  0 7.268086 -7.633588 -19.774626 -0.329966 0.000000 -3.141593
  1 -5.962546 -8.088443 -15.006363 0.104643 -0.000000 3.141593
  2 0.907535 -3.182838 55.465324 -1.570796 0.000000 1.570796
  3 10.915107 51.600414 -15.790511 1.570796 -1.570795 0.000000
  4 6.481329 46.697895 15.647905 1.570796 -1.570796 0.000000
  5 -6.091707 38.669411 -16.689762 1.570796 -1.570796 0.000000
  6 -6.558262 38.067539 9.111264 1.570796 -1.570796 0.000000
  7 26.355852 59.971519 -5.658656 1.570796 1.570796 0.000000
  8 26.355848 59.971516 6.168214 1.570796 1.570796 0.000000
  9 17.187601 42.638065 0.000009 1.570796 1.570796 0.000000
  10 -0.000001 -17.187595 -0.000000 1.622874 0.239451 1.583158
  11 0.000002 9.251826 0.000001 -0.012515 0.108461 -0.382297
  12 3.332967 6.058993 0.446928 0.036286 -0.158237 -0.344056
  13 0.000000 4.780092 0.000000 1.284319 0.253606 -2.959958
  14 -0.000001 10.318096 -0.000001 -0.366342 -0.056046 0.088932
  15 0.000000 10.229103 0.000003 -0.413932 0.358519 1.275249
  16 0.000001 17.897518 -0.000004 0.446054 -0.811458 0.059377
  17 -0.000001 4.707226 -0.000001 -1.445403 -0.038746 -0.171412
  18 1.291680 18.975666 -1.955055 -0.578141 -0.536695 0.540919
  19 -0.000001 2.947697 0.000000 0.591003 0.259473 -0.900673
  20 3.007020 20.902147 2.696846 1.355567 -2.580334 0.414016
  21 0.002828 4.780090 -0.021077 -1.880463 -0.127749 -0.177833
  22 0.000001 10.318098 -0.000000 -2.152910 0.467837 -1.882990
  23 0.000003 10.229099 -0.000000 1.641841 -0.657124 0.611351
  24 -0.000011 17.897501 0.000002 -0.475826 -1.109409 0.406928
  25 0.000001 5.176010 0.000001 0.666511 -0.180660 -0.476805
  26 0.410063 18.844078 1.134905 0.413392 -0.886544 0.703142
  27 0.000001 3.158197 0.000001 -0.585982 -0.493076 -0.623690
  28 -0.000001 -17.187595 -0.000000 -1.570796 0.000000 1.546112
  29 0.000002 3.905661 -4.525525 -0.164385 -0.056600 -0.300192
  30 0.000001 13.357017 -0.000001 0.170108 -0.067652 0.775389
  31 0.000003 18.158890 0.000001 -1.147035 1.609451 -1.571223
  32 0.000000 2.542063 0.000001 1.558254 0.000018 0.000000
  33 -0.000000 3.135157 -0.000002 -0.086398 0.000000 0.000000
  34 -0.000001 3.905661 4.546789 0.394558 0.129020 -0.518434
  35 -0.000001 13.407272 0.000000 -0.411154 0.296546 1.234349
  36 0.000004 18.158882 -0.000006 -1.561047 -1.532135 1.571476
  37 -0.000000 2.542063 -0.000000 1.558254 -3.141546 -0.000000
  38 0.000000 3.135156 0.000000 -0.091756 0.342973 -0.030933
  39 4.301485 1.405969 0.000001 -0.028029 -0.003352 0.049483
  40 0.000000 7.030431 -0.000000 0.095203 -0.077619 -0.109467
  time 16
  0 7.268085 -11.178596 -19.724985 -0.446321 0.000000 -3.141593
  1 -5.962546 -5.839691 -15.692829 0.121397 -0.000000 3.141593
  2 0.907535 -3.182838 55.465324 -1.570796 0.000000 1.570796
  3 11.245145 51.230633 -15.184011 1.570796 -1.570795 0.000000
  4 6.609087 46.096954 16.231443 1.570796 -1.570796 0.000000
  5 -6.091707 38.669411 -16.689762 1.570796 -1.570796 0.000000
  6 -6.558262 38.067539 9.111264 1.570796 -1.570796 0.000000
  7 26.355852 59.971519 -5.658656 1.570796 1.570796 0.000000
  8 26.355848 59.971516 6.168214 1.570796 1.570796 0.000000
  9 17.187601 42.517132 0.000009 1.570796 1.570796 0.000000
  10 -0.000001 -17.187595 -0.000000 1.613574 0.239553 1.580952
  11 0.000002 9.251826 0.000000 -0.027460 0.112503 -0.369244
  12 3.332968 6.058993 0.446928 0.045308 -0.123183 -0.344728
  13 -0.000000 4.780092 0.000000 1.284319 0.253606 -2.959958
  14 0.000000 10.318098 -0.000001 -0.398591 -0.068480 0.098541
  15 0.000001 10.229101 0.000000 -0.414984 0.361798 1.283213
  16 0.000001 17.897514 0.000000 0.461368 -0.808292 0.032808
  17 -0.000001 4.707226 -0.000000 -1.448853 -0.037168 -0.173900
  18 1.286558 19.002396 -1.957973 -0.564245 -0.543838 0.525124
  19 0.000001 2.947696 0.000001 0.591004 0.259472 -0.900673
  20 3.032293 20.859564 2.691917 1.342853 -2.581650 0.408283
  21 0.002827 4.780091 -0.021077 -1.880463 -0.127749 -0.177834
  22 -0.000001 10.318098 -0.000002 -2.150607 0.494973 -1.826028
  23 0.000001 10.229101 -0.000003 1.670972 -0.673161 0.609601
  24 -0.000007 17.897512 0.000000 -0.475826 -1.109409 0.406928
  25 -0.000001 5.176012 0.000001 0.698498 -0.180366 -0.508859
  26 0.410068 18.844090 1.134905 0.413391 -0.886544 0.703143
  27 0.000002 3.158196 -0.000001 -0.507546 -0.477805 -0.665860
  28 -0.000001 -17.187595 -0.000000 -1.570796 -0.000000 1.501420
  29 0.000001 3.905660 -4.525525 -0.148271 -0.082683 -0.112778
  30 0.000003 13.357023 -0.000001 0.145708 -0.046726 0.643952
  31 -0.000000 18.158886 0.000000 -1.030652 1.609449 -1.571198
  32 0.000001 2.542063 -0.000001 1.558254 0.000018 0.000000
  33 -0.000000 3.135157 -0.000000 -0.086398 0.000000 0.000000
  34 -0.000002 3.905662 4.546789 0.406867 0.086529 -0.576936
  35 -0.000003 13.407277 0.000001 -0.404263 0.278872 1.191681
  36 0.000002 18.158888 -0.000001 -1.544299 -1.532136 1.571476
  37 0.000000 2.542064 -0.000000 1.558254 -3.141546 -0.000000
  38 0.000000 3.135157 -0.000001 -0.091756 0.342973 -0.030933
  39 4.301486 1.405968 0.000001 -0.052358 -0.002064 0.049860
  40 -0.000000 7.030431 -0.000000 0.054321 0.022434 -0.116455
  time 17
  0 7.268085 -13.075998 -19.398211 -0.342139 0.000000 -3.141593
  1 -5.962546 -3.019635 -17.203054 0.131195 -0.000000 3.141593
  2 0.907535 -3.182838 55.465324 -1.570796 0.000000 1.570796
  3 11.709611 51.087246 -14.634171 1.570796 -1.570795 0.000000
  4 6.716128 45.593460 16.657980 1.570796 -1.570796 0.000000
  5 -6.091707 38.669411 -16.689762 1.570796 -1.570796 0.000000
  6 -6.558262 38.067539 9.111264 1.570796 -1.570796 0.000000
  7 26.355852 59.971519 -5.658656 1.570796 1.570796 0.000000
  8 26.355848 59.971516 6.168214 1.570796 1.570796 0.000000
  9 17.187601 42.695698 0.000009 1.570796 1.570796 0.000000
  10 -0.000001 -17.187595 -0.000000 1.598235 0.239677 1.577312
  11 -0.000001 9.251828 -0.000001 -0.035524 0.113884 -0.374913
  12 3.332970 6.058991 0.446928 0.059118 -0.085448 -0.345025
  13 0.000001 4.780092 -0.000000 1.284319 0.253606 -2.959958
  14 -0.000000 10.318095 -0.000000 -0.420216 -0.057622 0.128878
  15 0.000002 10.229104 -0.000001 -0.415315 0.362847 1.285758
  16 0.000002 17.897511 -0.000002 0.470106 -0.806134 0.021547
  17 -0.000002 4.707225 0.000000 -1.452224 -0.035635 -0.176330
  18 1.283701 19.011639 -1.958659 -0.546578 -0.547330 0.515197
  19 -0.000001 2.947697 0.000000 0.591003 0.259473 -0.900673
  20 3.043148 20.845295 2.685584 1.338260 -2.581156 0.406119
  21 0.002827 4.780092 -0.021077 -1.880463 -0.127749 -0.177834
  22 -0.000001 10.318097 -0.000001 -2.150318 0.518271 -1.760810
  23 -0.000001 10.229098 0.000001 1.725765 -0.702579 0.604718
  24 -0.000002 17.897499 0.000001 -0.475825 -1.109409 0.406927
  25 0.000001 5.176008 -0.000001 0.725672 -0.173703 -0.546026
  26 0.410075 18.844074 1.134905 0.413392 -0.886545 0.703142
  27 -0.000000 3.158194 0.000000 -0.596599 -0.412185 -0.626408
  28 -0.000001 -17.187595 -0.000000 -1.570796 -0.000000 1.463713
  29 0.000002 3.905659 -4.525524 -0.152263 -0.116702 -0.051115
  30 0.000001 13.357018 -0.000003 0.145228 -0.046367 0.641499
  31 0.000002 18.158882 -0.000002 -1.134858 1.609451 -1.571221
  32 0.000000 2.542065 -0.000001 1.558254 0.000018 -0.000000
  33 -0.000001 3.135156 -0.000000 -0.086398 0.000000 0.000000
  34 -0.000002 3.905661 4.546789 0.402968 0.034811 -0.615901
  35 -0.000002 13.407272 0.000000 -0.382701 0.233977 1.080005
  36 -0.000001 18.158890 0.000001 -1.534504 -1.532136 1.571476
  37 -0.000000 2.542063 0.000001 1.558254 -3.141546 -0.000000
  38 0.000000 3.135157 0.000000 -0.091756 0.342973 -0.030933
  39 4.301486 1.405968 0.000002 -0.072388 -0.000261 0.050120
  40 -0.000000 7.030431 -0.000000 0.018098 0.108919 -0.124879
  time 18
  0 7.268085 -14.973403 -19.071440 -0.237510 0.000000 -3.141593
  1 -5.962545 1.943168 -18.713278 0.153958 -0.000000 3.141593
  2 0.907535 -3.182838 55.465324 -1.570796 0.000000 1.570796
  3 12.271646 51.670757 -14.201297 1.570796 -1.570795 0.000000
  4 6.761016 45.382317 16.823315 1.570796 -1.570796 0.000000
  5 -6.091707 38.669411 -16.689762 1.570796 -1.570796 0.000000
  6 -6.558262 38.067539 9.111264 1.570796 -1.570796 0.000000
  7 26.355852 59.971519 -5.658656 1.570796 1.570796 0.000000
  8 26.355848 59.971516 6.168214 1.570796 1.570796 0.000000
  9 17.187601 43.027317 0.000009 1.570796 1.570796 0.000000
  10 -0.000001 -17.187595 -0.000000 1.575346 0.239762 1.571877
  11 0.000002 9.251828 0.000001 -0.041475 0.113885 -0.387419
  12 3.332967 6.058991 0.446928 0.078451 -0.051616 -0.344614
  13 0.000000 4.780091 0.000000 1.284319 0.253606 -2.959958
  14 0.000001 10.318098 0.000000 -0.462790 -0.026700 0.211982
  15 -0.000001 10.229103 0.000002 -0.405620 0.335244 1.218289
  16 0.000001 17.897516 -0.000005 0.442271 -0.788492 0.108383
  17 -0.000001 4.707226 -0.000001 -1.455514 -0.034145 -0.178704
  18 1.221065 18.973331 -1.949687 -0.536494 -0.518911 0.570798
  19 -0.000000 2.947697 0.000001 0.591003 0.259472 -0.900673
  20 2.992126 20.945719 2.646576 1.332254 -2.563727 0.476753
  21 0.002827 4.780090 -0.021077 -1.880463 -0.127749 -0.177834
  22 -0.000001 10.318097 0.000000 -2.159432 0.534449 -1.704324
  23 -0.000000 10.229098 -0.000000 1.790334 -0.735862 0.596335
  24 -0.000002 17.897503 -0.000002 -0.475826 -1.109409 0.406927
  25 0.000001 5.176009 0.000000 0.745080 -0.159349 -0.588331
  26 0.410074 18.844082 1.134901 0.413391 -0.886544 0.703142
  27 0.000001 3.158194 -0.000000 -0.680979 -0.343331 -0.594167
  28 -0.000001 -17.187595 -0.000000 -1.570796 -0.000000 1.436650
  29 0.000002 3.905661 -4.525523 -0.161709 -0.139524 0.012364
  30 0.000001 13.357018 -0.000004 0.145326 -0.046440 0.641996
  31 0.000004 18.158880 -0.000004 -1.239496 1.609452 -1.571236
  32 -0.000001 2.542063 0.000000 1.558254 0.000018 0.000000
  33 -0.000001 3.135155 0.000001 0.155002 0.013803 0.013476
  34 -0.000001 3.905660 4.546789 0.383584 -0.009039 -0.692483
  35 -0.000003 13.407275 -0.000001 -0.341401 0.171503 0.912030
  36 0.000000 18.158888 -0.000003 -1.511735 -1.532137 1.571476
  37 -0.000001 2.542064 0.000000 1.558254 -3.141546 0.000000
  38 -0.000000 3.135158 -0.000001 -0.091756 0.342973 -0.030933
  39 4.301485 1.405968 0.000001 -0.085980 0.002134 0.050226
  40 -0.000000 7.030430 -0.000001 -0.007954 0.169211 -0.132259
  time 19
  0 7.268085 -16.870806 -18.744669 -0.133007 0.000000 -3.141593
  1 -5.962544 10.620152 -19.399744 0.209560 0.000000 3.141593
  2 0.907535 -3.182838 55.465324 -1.570796 0.000000 1.570796
  3 12.633511 52.754421 -13.980978 1.570796 -1.570795 0.000000
  4 6.134447 46.603333 16.426754 1.570796 -1.570796 0.000000
  5 -6.091707 38.669411 -16.689762 1.570796 -1.570796 0.000000
  6 -6.558262 38.067539 9.111264 1.570796 -1.570796 0.000000
  7 26.355852 59.971519 -5.658656 1.570796 1.570796 0.000000
  8 26.355848 59.971516 6.168214 1.570796 1.570796 0.000000
  9 17.187601 43.205879 0.000009 1.570796 1.570796 0.000000
  10 -0.000001 -17.187595 -0.000000 1.543399 0.239677 1.564291
  11 -0.000001 9.251828 0.000001 -0.053379 0.114211 -0.400072
  12 3.332968 6.058993 0.446929 0.104065 -0.028266 -0.343397
  13 0.000001 4.780090 0.000000 1.284319 0.253606 -2.959958
  14 0.000002 10.318101 -0.000000 -0.540398 0.018258 0.328408
  15 -0.000002 10.229101 0.000001 -0.378241 0.277627 1.072353
  16 0.000003 17.897514 0.000003 0.451220 -0.797997 0.174752
  17 -0.000000 4.707226 -0.000001 -1.458726 -0.032696 -0.181020
  18 1.281225 18.948200 -1.949059 -0.550013 -0.531878 0.652251
  19 -0.000000 2.947697 -0.000000 0.591003 0.259472 -0.900673
  20 2.825602 21.067638 2.617960 1.344460 -2.567220 0.535189
  21 0.002826 4.780092 -0.021077 -1.880463 -0.127749 -0.177833
  22 0.000002 10.318099 -0.000001 -2.191769 0.519027 -1.728115
  23 0.000001 10.229102 -0.000003 1.783210 -0.732267 0.597397
  24 -0.000001 17.897514 0.000001 -0.475826 -1.109409 0.406928
  25 0.000000 5.176012 0.000003 0.753485 -0.136197 -0.636095
  26 0.410074 18.844091 1.134906 0.413391 -0.886545 0.703143
  27 -0.000000 3.158197 0.000000 -0.761191 -0.272221 -0.568756
  28 -0.000001 -17.187595 -0.000000 -1.570796 -0.000000 1.423849
  29 0.000002 3.905660 -4.525524 -0.169221 -0.141853 0.109229
  30 0.000000 13.357022 -0.000002 0.133970 -0.038450 0.585117
  31 0.000006 18.158884 -0.000004 -1.344015 1.609454 -1.571250
  32 0.000000 2.542068 -0.000000 1.558254 0.000018 0.000000
  33 0.000000 3.135156 -0.000000 0.396619 0.023982 0.029865
  34 -0.000001 3.905661 4.546789 0.266403 -0.082966 -0.680035
  35 -0.000002 13.407274 -0.000001 -0.169477 0.038136 0.409725
  36 0.000000 18.158884 -0.000003 -1.456133 -1.532140 1.571470
  37 -0.000000 2.542064 0.000001 1.558254 -3.141546 0.000000
  38 -0.000000 3.135157 -0.000002 -0.091756 0.342973 -0.030933
  39 4.301485 1.405969 0.000002 -0.091002 0.005199 0.050157
  40 -0.000000 7.030431 -0.000001 -0.017910 0.191523 -0.135369
end
