version 1
nodes
0 "ShinIK.R" -1
1 "ShinIK.L" -1
2 "All.000" -1
3 "ForearmIK.R" 2
4 "ForearmIK.L" 2
5 "UpperarmIK.R" 2
6 "UpperarmIK.L" 2
7 "KneeIK.R" 2
8 "KneeIK.L" 2
9 "Spine.009" 2
10 "Spine.001" 9
11 "Spine.002" 10
12 "Spine.004" 11
13 "Arm.R.001" 11
14 "Arm.R.002" 13
15 "Arm.R.003" 14
16 "Arm.R.004" 15
17 "Arm.R.005" 16
18 "Arm.R.006" 15
19 "Arm.R.007" 18
20 "Wep.000" 15
21 "Arm.L.001" 11
22 "Arm.L.002" 21
23 "Arm.L.003" 22
24 "Arm.L.004" 23
25 "Arm.L.005" 24
26 "Arm.L.006" 23
27 "Arm.L.007" 26
28 "Spine.000" 9
29 "Leg.R.001" 28
30 "Leg.R.002" 29
31 "Leg.R.003" 30
32 "Leg.R.004" 31
33 "Leg.R.005" 32
34 "Leg.L.001" 28
35 "Leg.L.002" 34
36 "Leg.L.003" 35
37 "Leg.L.004" 36
38 "Leg.L.005" 37
39 "Loincloth.000" 28
40 "Loincloth.001" 39
end
skeleton
  time 0
  0 7.268086 -15.485830 -18.749548 -0.234729 0.162903 3.035374
  1 -5.962544 14.131296 -19.847342 0.476577 0.000000 3.141593
  2 0.907535 -3.182838 55.465324 -1.570796 0.000000 1.570796
  3 13.088736 48.418159 -21.353340 1.570796 -1.570795 0.000000
  4 15.182394 46.168961 10.233483 1.570796 -1.570796 0.000000
  5 -7.618962 46.402866 -16.630964 1.570796 -1.570796 0.000000
  6 -2.277380 45.016056 33.170181 1.570796 -1.570796 0.000000
  7 35.430420 63.409378 -7.014768 1.570796 1.570796 0.000000
  8 26.355848 59.971516 6.696514 1.570796 1.570796 0.000000
  9 17.187599 46.211903 -0.758163 1.570796 1.570796 0.000000
  10 -0.000000 -17.187595 -0.000000 1.682731 0.148002 1.441939
  11 0.000002 9.251826 0.000001 0.100682 0.010613 -0.294609
  12 3.332967 6.058993 0.446927 -0.049594 0.193187 -0.387978
  13 0.000000 4.780091 -0.000000 1.284319 0.253606 -2.959958
  14 0.000001 10.318098 -0.000001 -0.196663 0.297239 0.207224
  15 0.000000 10.229105 0.000002 -0.421853 0.385995 1.341649
  16 -0.000001 17.897516 -0.000001 0.484890 -0.533749 0.120449
  17 -0.000001 4.707226 -0.000002 -1.604203 0.011999 -0.181034
  18 0.730992 18.961933 -1.843558 -0.399951 -0.335535 0.575105
  19 0.000001 2.947696 0.000001 0.402052 0.064298 -1.448050
  20 3.435757 21.026768 2.150173 1.145671 -2.363541 0.669411
  21 0.002826 4.780092 -0.021078 -1.880463 -0.127749 -0.177834
  22 0.000003 10.318099 0.000000 0.055070 2.259046 0.213933
  23 0.000001 10.229100 -0.000001 1.635078 -0.653365 0.611672
  24 0.000006 17.897514 0.000004 -0.342122 -0.071393 0.243665
  25 0.000001 5.176013 -0.000000 0.349165 0.058344 -0.327910
  26 0.755618 18.921988 0.960405 0.381247 -0.147233 0.149822
  27 -0.000001 3.158196 0.000002 -0.963684 -0.110197 -0.272532
  28 -0.000001 -17.187593 -0.000000 -1.567387 -0.005488 1.339822
  29 0.000001 3.905659 -4.525524 -0.169596 -0.260496 -0.209495
  30 -0.000001 13.357018 -0.000001 0.217688 -0.132458 1.104030
  31 0.000004 18.158886 -0.000000 1.093022 1.735996 0.775040
  32 -0.000000 2.542066 0.000001 1.558254 0.000018 0.000000
  33 0.000002 3.135154 0.000004 0.537117 0.016399 0.080449
  34 -0.000002 3.905661 4.546790 0.427678 -0.134231 -0.899192
  35 0.000000 13.407273 0.000002 -0.224069 0.066603 0.552466
  36 -0.000000 18.158886 -0.000005 -1.189037 -1.532152 1.571395
  37 0.000000 2.542066 0.000001 1.558254 -3.141546 0.000000
  38 0.000000 3.135157 0.000001 -0.091756 0.342973 -0.030933
  39 4.301485 1.405969 0.000002 -0.016922 -0.279507 0.067236
  40 -0.000000 7.030431 -0.000000 -0.000000 0.000000 -0.151285
  time 1
  0 7.758504 -2.907307 -12.583496 0.078665 0.133607 3.082133
  1 -6.275075 2.234781 -19.946901 -0.512999 0.095622 -3.041810
  2 0.907535 -3.182838 55.465324 -1.570796 0.000000 1.570796
  3 17.538576 46.076706 -14.476532 1.570796 -1.570795 0.000000
  4 9.462440 48.709698 18.529005 1.570796 -1.570796 0.000000
  5 -2.847304 46.402866 -17.357908 1.570796 -1.570796 0.000000
  6 -11.082483 44.301605 24.683620 1.570796 -1.570796 0.000000
  7 35.375492 63.210060 -6.936142 1.570796 1.570796 0.000000
  8 26.355848 59.971516 6.696514 1.570796 1.570796 0.000000
  9 17.995266 47.384708 -0.657541 1.570796 1.570796 0.000000
  10 -0.000000 -17.187595 -0.000000 1.642771 0.127955 1.604843
  11 0.000001 9.251826 0.000000 -0.128172 0.408852 -0.358228
  12 3.332967 6.058992 0.446929 0.001309 0.103688 -0.382017
  13 -0.000001 4.780093 0.000000 1.284319 0.253606 -2.959958
  14 0.000001 10.318099 -0.000000 -0.307176 0.213795 -0.590306
  15 -0.000000 10.229099 -0.000001 -0.411077 0.604120 1.887004
  16 -0.000000 17.897512 -0.000001 0.430596 -0.527100 0.133684
  17 0.000000 4.707226 -0.000001 -1.608150 0.011923 -0.172432
  18 0.732648 18.904266 -1.820197 -0.439052 -0.328196 0.582493
  19 0.000000 2.947696 0.000001 0.402052 0.064298 -1.448050
  20 3.446127 21.083332 2.066006 1.176370 -2.352112 0.654340
  21 0.002826 4.780092 -0.021077 -1.880463 -0.127749 -0.177833
  22 0.000000 10.318098 -0.000001 -0.241611 2.263024 -0.321825
  23 0.000002 10.229098 0.000001 1.365893 -0.495984 0.598481
  24 -0.000004 17.897507 -0.000001 -0.342122 -0.071393 0.243665
  25 -0.000000 5.176010 0.000001 0.349165 0.058344 -0.327910
  26 0.755609 18.921980 0.960399 0.381247 -0.147234 0.149822
  27 -0.000000 3.158195 -0.000001 -0.950849 -0.109957 -0.272741
  28 -0.000001 -17.187595 -0.000000 -1.567286 -0.005740 1.490182
  29 0.000001 3.905660 -4.525524 -0.206222 -0.281843 -1.220118
  30 -0.000001 13.357018 -0.000001 0.222798 -0.339220 1.989430
  31 0.000002 18.158886 -0.000000 0.921089 1.684486 0.910861
  32 0.000001 2.542063 0.000001 1.558254 0.000018 0.000000
  33 -0.000000 3.135158 0.000000 -0.086398 0.000000 0.000000
  34 -0.000002 3.905659 4.546789 0.479379 0.107334 -0.872362
  35 -0.000004 13.407272 -0.000001 -0.408802 0.290261 1.219242
  36 0.000001 18.158884 -0.000001 0.388698 -1.739854 -0.998924
  37 0.000000 2.542066 0.000001 1.558254 -3.141546 0.000000
  38 0.000001 3.135157 0.000001 -0.091756 0.342973 -0.030933
  39 4.301485 1.405968 0.000001 -0.011828 -0.356395 -0.186233
  40 0.000001 7.030430 -0.000000 -0.034054 -0.045041 -0.148600
  time 2
  0 8.853395 10.761522 -16.255512 0.396776 0.050324 3.128796
  1 -6.587605 -9.661736 -20.046453 -0.662935 0.204055 -2.958213
  2 0.907535 -3.182838 55.465324 -1.570796 0.000000 1.570796
  3 30.888098 39.052330 6.153893 1.570796 -1.570795 0.000000
  4 1.204795 50.725037 22.902206 1.570796 -1.570796 0.000000
  5 1.903531 46.402866 -18.707947 1.570796 -1.570796 0.000000
  6 -16.423277 42.597923 13.651117 1.570796 -1.570796 0.000000
  7 35.318707 63.015419 -6.859362 1.570796 1.570796 0.000000
  8 26.355848 59.971516 6.696514 1.570796 1.570796 0.000000
  9 19.495220 47.980095 -0.470671 1.570796 1.570796 0.000000
  10 -0.000000 -17.187595 -0.000000 1.598065 0.115540 1.780105
  11 0.000000 9.251828 0.000000 -0.256364 0.580585 -0.425956
  12 3.332968 6.058991 0.446928 0.029561 -0.068775 -0.386281
  13 0.000001 4.780090 0.000000 1.284319 0.253606 -2.959958
  14 -0.000000 10.318096 -0.000001 -0.120779 0.848007 0.990165
  15 -0.000003 10.229100 0.000002 -0.316872 0.193500 0.834727
  16 -0.000003 17.897520 0.000003 0.392788 -0.520872 0.139165
  17 0.000000 4.707228 0.000001 -1.611870 0.011917 -0.163350
  18 0.734026 18.866955 -1.800960 -0.464294 -0.319106 0.582011
  19 -0.000002 2.947696 0.000001 0.402052 0.064298 -1.448050
  20 3.464981 21.113808 2.004772 1.199579 -2.340803 0.635328
  21 0.002827 4.780091 -0.021078 -1.880463 -0.127749 -0.177834
  22 -0.000000 10.318097 -0.000001 -0.212812 2.219528 -0.304391
  23 -0.000000 10.229101 0.000000 1.209524 -0.402790 0.568395
  24 -0.000003 17.897507 0.000002 -0.342122 -0.071393 0.243665
  25 -0.000001 5.176012 -0.000001 0.349165 0.058343 -0.327910
  26 0.755608 18.921978 0.960401 0.381247 -0.147234 0.149822
  27 -0.000001 3.158195 0.000002 -0.937295 -0.109823 -0.273067
  28 -0.000001 -17.187595 -0.000000 -1.567224 -0.006003 1.641082
  29 0.000001 3.905660 -4.525525 -0.294628 -0.217677 -1.364553
  30 -0.000001 13.357018 -0.000000 0.243055 -0.218484 1.472214
  31 0.000002 18.158880 -0.000001 0.252588 1.590603 0.555789
  32 0.000001 2.542061 0.000000 1.558254 0.000018 -0.000000
  33 -0.000000 3.135159 -0.000003 -0.086398 0.000000 0.000000
  34 -0.000001 3.905660 4.546789 0.418797 0.167222 -0.334229
  35 0.000001 13.407269 -0.000001 -0.398793 0.266220 1.160744
  36 -0.000002 18.158876 0.000003 0.231104 -1.876171 -1.003897
  37 -0.000000 2.542063 0.000000 1.558254 -3.141546 0.000000
  38 -0.000000 3.135157 -0.000003 -0.091756 0.342973 -0.030933
  39 4.301486 1.405967 0.000001 -0.113294 -0.563441 0.014154
  40 0.000000 7.030431 -0.000001 -0.098880 -0.128160 -0.129529
  time 3
  0 9.975159 17.216537 -19.960665 0.540390 -0.000000 -3.141593
  1 -6.626105 -18.240898 -18.807173 0.083768 0.063529 -3.015306
  2 0.907535 -3.182838 55.465324 -1.570796 0.000000 1.570796
  3 18.744644 23.138088 13.384751 1.570796 -1.570795 0.000000
  4 -7.140422 47.542862 21.494186 1.570796 -1.570796 0.000000
  5 8.694190 46.402863 -19.434893 1.570796 -1.570796 0.000000
  6 -19.165844 40.564495 2.618625 1.570796 -1.570796 0.000000
  7 35.260025 62.825577 -6.784476 1.570796 1.570796 0.000000
  8 26.355848 59.971516 6.696514 1.570796 1.570796 0.000000
  9 20.302885 45.067875 -0.370049 1.570796 1.570796 0.000000
  10 -0.000000 -17.187595 -0.000000 1.557404 0.111926 1.937422
  11 0.000001 9.251827 0.000000 -0.287365 0.616039 -0.444817
  12 3.332966 6.058992 0.446929 0.043090 -0.235792 -0.394360
  13 0.000001 4.780090 0.000000 1.284319 0.253606 -2.959958
  14 -0.000000 10.318097 0.000000 0.315637 1.030078 1.760278
  15 0.000000 10.229107 0.000002 -0.389299 0.298418 1.126041
  16 -0.000008 17.897512 -0.000002 0.369424 -0.514700 0.136168
  17 -0.000002 4.707227 0.000001 -1.615369 0.011977 -0.153831
  18 0.735345 18.846682 -1.782929 -0.478222 -0.306451 0.572240
  19 -0.000001 2.947695 0.000001 0.402052 0.064298 -1.448050
  20 3.497611 21.118992 1.959021 1.218372 -2.327385 0.607969
  21 0.002827 4.780092 -0.021077 -1.880463 -0.127749 -0.177834
  22 0.000002 10.318097 -0.000000 0.241817 2.055588 0.392692
  23 -0.000001 10.229098 0.000001 1.302023 -0.457704 0.588082
  24 -0.000003 17.897505 -0.000001 -0.342122 -0.071393 0.243665
  25 -0.000001 5.176013 -0.000000 0.349165 0.058343 -0.327910
  26 0.755609 18.921982 0.960398 0.381247 -0.147234 0.149823
  27 0.000000 3.158195 -0.000000 -0.923088 -0.109787 -0.273505
  28 -0.000001 -17.187593 -0.000000 -1.567208 -0.006263 1.771664
  29 0.000001 3.905660 -4.525524 -0.275496 0.049585 -0.635380
  30 0.000003 13.357018 0.000001 0.043575 -0.001999 0.181111
  31 0.000003 18.158886 0.000001 1.124214 1.532127 1.570381
  32 0.000001 2.542062 0.000000 1.558254 0.000018 -0.000000
  33 0.000000 3.135158 -0.000002 -0.086398 0.000000 0.000000
  34 -0.000001 3.905660 4.546789 0.299609 0.109817 0.365145
  35 -0.000000 13.407269 -0.000000 -0.164282 0.035922 0.396571
  36 0.000004 18.158886 -0.000002 0.737132 -1.735603 -0.749266
  37 0.000000 2.542061 0.000003 1.558254 -3.141546 0.000000
  38 -0.000000 3.135158 0.000001 0.705434 0.148895 0.029124
  39 4.301486 1.405968 0.000000 -0.243004 -0.712620 0.250758
  40 0.000000 7.030431 -0.000001 -0.138674 -0.171940 -0.086704
  time 4
  0 10.688492 8.137723 -19.982756 0.183193 -0.001136 3.141495
  1 -6.646049 -20.354069 -16.086573 0.249538 0.000000 3.141593
  2 0.907535 -3.182838 55.465324 -1.570796 0.000000 1.570796
  3 17.052107 20.919987 14.392575 1.570796 -1.570795 0.000000
  4 -13.031209 41.633099 18.879295 1.570796 -1.570796 0.000000
  5 17.850361 46.309319 -8.933246 1.570796 -1.570796 0.000000
  6 -20.176262 38.860806 -5.867911 1.570796 -1.570796 0.000000
  7 35.199417 62.640667 -6.711536 1.570796 1.570796 0.000000
  8 26.355848 59.971516 6.696514 1.570796 1.570796 0.000000
  9 18.745243 42.173561 -0.472837 1.570796 1.570796 0.000000
  10 -0.000000 -17.187595 -0.000000 1.528672 0.113553 2.049915
  11 -0.000001 9.251829 -0.000000 -0.263927 0.589444 -0.430479
  12 3.332967 6.058991 0.446929 0.046722 -0.310091 -0.397873
  13 0.000000 4.780090 0.000000 1.284319 0.253606 -2.959958
  14 -0.000001 10.318098 0.000001 0.400693 0.950426 1.639675
  15 -0.000001 10.229110 -0.000001 -0.399267 0.319808 1.179992
  16 -0.000007 17.897526 0.000004 0.358472 -0.507934 0.123882
  17 -0.000001 4.707229 -0.000000 -1.618653 0.012103 -0.143919
  18 0.736824 18.840200 -1.763168 -0.483457 -0.288161 0.551700
  19 0.000000 2.947696 -0.000003 0.402053 0.064298 -1.448050
  20 3.549318 21.099796 1.921365 1.236400 -2.309769 0.567287
  21 0.002826 4.780091 -0.021077 -1.880463 -0.127749 -0.177833
  22 -0.000001 10.318099 0.000001 0.787101 2.030307 1.272205
  23 0.000002 10.229100 0.000002 1.528235 -0.592376 0.612487
  24 0.000001 17.897493 -0.000002 -0.342122 -0.071393 0.243665
  25 -0.000000 5.176008 -0.000002 0.349165 0.058343 -0.327910
  26 0.755613 18.921965 0.960397 0.381247 -0.147234 0.149821
  27 -0.000001 3.158195 -0.000001 -0.908290 -0.109840 -0.274047
  28 -0.000001 -17.187595 -0.000000 -1.567228 -0.006506 1.862542
  29 0.000000 3.905660 -4.525525 -0.332477 0.142017 -0.476664
  30 0.000003 13.357019 0.000000 0.088400 -0.014764 0.373685
  31 0.000006 18.158888 -0.000002 1.481491 1.530993 1.570459
  32 0.000002 2.542064 -0.000000 1.558254 0.000018 -0.000000
  33 0.000001 3.135158 0.000001 -0.086398 0.000000 0.000000
  34 -0.000001 3.905661 4.546789 0.325993 0.191220 0.416647
  35 0.000001 13.407278 -0.000002 -0.133291 0.024335 0.319271
  36 0.000000 18.158888 -0.000002 -1.416146 -1.532142 1.571463
  37 0.000000 2.542063 -0.000000 1.558254 -3.141546 -0.000000
  38 0.000001 3.135157 0.000000 0.252303 0.196598 -0.060304
  39 4.301485 1.405967 0.000001 -0.131316 -0.707115 -0.004082
  40 -0.000001 7.030431 -0.000000 0.356117 0.322884 0.562119
  time 5
  0 10.846501 2.524755 -19.985525 -0.020685 -0.003470 3.141247
  1 -6.726085 -15.017383 -13.375689 -0.022680 0.001277 -3.139523
  2 0.907535 -3.182838 55.465324 -1.570796 0.000000 1.570796
  3 18.182945 22.401970 13.719215 1.570796 -1.570795 0.000000
  4 -15.117471 38.450920 17.471275 1.570796 -1.570796 0.000000
  5 22.757801 46.215775 1.568398 1.570796 -1.570796 0.000000
  6 -20.320612 38.146362 -9.262527 1.570796 -1.570796 0.000000
  7 35.136860 62.460808 -6.640588 1.570796 1.570796 0.000000
  8 26.355848 59.971516 6.696514 1.570796 1.570796 0.000000
  9 17.187599 41.216755 -0.758163 1.570796 1.570796 0.000000
  10 -0.000000 -17.187595 -0.000000 1.517703 0.115062 2.094488
  11 -0.000000 9.251829 -0.000001 -0.243931 0.565722 -0.418634
  12 3.332968 6.058990 0.446929 -0.008819 -0.191882 -0.354071
  13 -0.000001 4.780092 0.000000 1.284319 0.253606 -2.959958
  14 0.000000 10.318098 0.000000 0.117574 1.048077 1.246374
  15 -0.000000 10.229104 0.000000 -0.409924 0.346770 1.246597
  16 -0.000008 17.897514 0.000004 0.357886 -0.499671 0.101453
  17 -0.000001 4.707229 0.000001 -1.621729 0.012288 -0.133657
  18 0.738670 18.844175 -1.738762 -0.482866 -0.261924 0.518890
  19 0.000001 2.947694 -0.000000 0.402053 0.064298 -1.448050
  20 3.625385 21.056992 1.884372 1.258271 -2.286123 0.507401
  21 0.002826 4.780091 -0.021077 -1.880463 -0.127749 -0.177834
  22 0.000003 10.318099 -0.000000 -2.151054 1.076098 -1.479323
  23 0.000002 10.229103 -0.000003 1.692434 -0.684806 0.607936
  24 0.000002 17.897507 0.000003 -0.342122 -0.071393 0.243665
  25 0.000001 5.176008 0.000003 0.349165 0.058343 -0.327910
  26 0.755615 18.921978 0.960406 0.381247 -0.147234 0.149822
  27 -0.000001 3.158195 0.000000 -0.892963 -0.109974 -0.274692
  28 -0.000001 -17.187593 -0.000000 -1.567269 -0.006727 1.896100
  29 0.000001 3.905659 -4.525523 -0.304376 0.212135 -0.333213
  30 0.000004 13.357014 -0.000002 0.084445 -0.013253 0.356247
  31 0.000002 18.158873 -0.000001 -1.454861 1.612943 -1.569771
  32 -0.000000 2.542064 0.000000 1.558254 0.000018 -0.000000
  33 -0.000001 3.135157 -0.000000 -0.086398 0.000000 0.000000
  34 -0.000001 3.905660 4.546789 0.354464 0.421455 -0.229037
  35 -0.000001 13.407271 -0.000001 -0.381488 0.231782 1.074390
  36 0.000001 18.158876 -0.000001 1.404472 -1.610954 -1.521336
  37 -0.000000 2.542062 0.000001 1.558254 -3.141546 0.000000
  38 0.000000 3.135158 -0.000001 -0.091756 0.342973 -0.030933
  39 4.301486 1.405967 0.000001 0.091047 -0.567067 -0.582871
  40 -0.000000 7.030431 -0.000001 0.280890 0.308183 0.367603
  time 6
  0 11.227968 -11.026149 -19.992208 -0.501964 -0.008815 -3.140649
  1 -6.780846 -3.088462 -12.146128 -0.293705 0.003056 -3.137877
  2 0.907535 -3.182838 55.465324 -1.570796 0.000000 1.570796
  3 31.835930 49.923714 -7.483155 1.570796 -1.570795 0.000000
  4 1.244442 41.951973 19.065718 1.570796 -1.570796 0.000000
  5 11.850817 64.651169 -16.809685 1.570796 -1.570796 0.000000
  6 -20.320612 38.146362 -9.262527 1.570796 -1.570796 0.000000
  7 35.072315 62.286133 -6.571685 1.570796 1.570796 0.000000
  8 26.355848 59.971516 6.696514 1.570796 1.570796 0.000000
  9 17.187599 43.954739 -1.075545 1.570796 1.570796 0.000000
  10 -0.000000 -17.187595 -0.000000 1.548009 0.276184 1.627333
  11 -0.000000 9.251826 0.000001 -0.208535 0.605050 -0.466898
  12 3.332967 6.058992 0.446928 -0.114315 0.082001 -0.281648
  13 -0.000001 4.780092 -0.000000 1.284319 0.253606 -2.959958
  14 0.000000 10.318097 0.000000 0.022242 1.053916 1.212210
  15 0.000001 10.229104 0.000002 -0.003671 0.052781 0.008730
  16 -0.000000 17.897511 0.000006 0.365534 -0.488791 0.068040
  17 -0.000001 4.707228 0.000001 -1.624602 0.012530 -0.123087
  18 0.741110 18.855356 -1.706785 -0.479788 -0.225268 0.472275
  19 -0.000000 2.947695 0.000000 0.402052 0.064298 -1.448050
  20 3.731121 20.991468 1.840623 1.290260 -2.255203 0.420902
  21 0.002826 4.780091 -0.021078 -1.880463 -0.127749 -0.177834
  22 -0.000002 10.318098 0.000001 -1.831136 0.682676 -1.739169
  23 -0.000002 10.229102 0.000003 1.748886 -0.714677 0.602040
  24 0.000004 17.897505 -0.000001 -0.342122 -0.071393 0.243665
  25 0.000001 5.176010 -0.000001 0.349165 0.058343 -0.327910
  26 0.755616 18.921980 0.960399 0.381247 -0.147234 0.149822
  27 0.000000 3.158194 0.000001 -0.877174 -0.110178 -0.275431
  28 -0.000001 -17.187593 -0.000000 -1.567061 -0.006955 1.740007
  29 0.000001 3.905660 -4.525524 -0.281030 0.089965 -0.113871
  30 0.000000 13.357020 0.000000 0.163815 -0.061710 0.740064
  31 -0.000002 18.158888 0.000002 -1.009943 1.618186 -1.606158
  32 -0.000000 2.542065 -0.000000 1.558254 0.000018 -0.000000
  33 -0.000001 3.135158 0.000003 -0.086398 0.000000 0.000000
  34 -0.000002 3.905661 4.546789 0.342054 0.438526 -1.026731
  35 -0.000001 13.407273 0.000000 -0.437076 0.449558 1.593982
  36 0.000006 18.158878 -0.000004 1.100373 -1.612968 -1.488230
  37 0.000000 2.542066 -0.000000 1.558254 -3.141546 -0.000000
  38 0.000001 3.135156 -0.000001 -0.091756 0.342973 -0.030933
  39 4.301485 1.405968 0.000001 0.180536 -0.346720 -1.071112
  40 0.000001 7.030431 -0.000001 0.120101 0.221758 -0.080927
  time 7
  0 10.872152 -12.551509 -19.995768 -0.605297 -0.012783 -3.139574
  1 -6.371695 9.154299 -15.996737 0.051654 -0.080540 3.082304
  2 0.907535 -3.182838 55.465324 -1.570796 0.000000 1.570796
  3 18.139484 61.814529 -21.753256 1.570796 -1.570795 0.000000
  4 17.547169 45.687881 20.660156 1.570796 -1.570796 0.000000
  5 6.699107 61.068184 -18.900141 1.570796 -1.570796 0.000000
  6 -20.320612 38.146362 -9.262527 1.570796 -1.570796 0.000000
  7 35.005753 62.116764 -6.504875 1.570796 1.570796 0.000000
  8 26.355848 59.971516 6.696514 1.570796 1.570796 0.000000
  9 17.187599 46.692726 -1.392926 1.570796 1.570796 0.000000
  10 0.000000 -17.187595 -0.000001 1.489275 0.444085 1.095533
  11 -0.000001 9.251828 0.000000 -0.174438 0.645848 -0.514919
  12 3.332968 6.058993 0.446929 -0.205556 0.361621 -0.235655
  13 -0.000001 4.780093 0.000000 1.284319 0.253606 -2.959958
  14 0.000000 10.318098 -0.000000 -0.368401 0.998604 0.652490
  15 0.000001 10.229105 -0.000000 -0.084603 0.061345 0.202363
  16 0.000005 17.897518 0.000002 0.822246 -0.191703 -0.812041
  17 -0.000000 4.707229 0.000001 -1.627278 0.012825 -0.112255
  18 0.791027 20.294378 -1.432472 0.043215 -0.140168 -0.348549
  19 0.000001 2.947697 -0.000001 0.402052 0.064297 -1.448050
  20 4.198548 18.150829 1.709136 0.499438 -2.333341 0.304175
  21 0.002826 4.780093 -0.021077 -1.880463 -0.127749 -0.177834
  22 0.000000 10.318099 -0.000001 -0.740544 0.687318 -1.380242
  23 0.000000 10.229103 -0.000000 1.155682 -0.371420 0.554543
  24 -0.000005 17.897511 0.000002 -0.342122 -0.071393 0.243665
  25 -0.000001 5.176013 0.000002 0.349165 0.058344 -0.327910
  26 0.755606 18.921988 0.960401 0.381247 -0.147234 0.149823
  27 0.000001 3.158198 0.000001 -0.860985 -0.110448 -0.276260
  28 -0.000000 -17.187593 -0.000000 -1.566594 -0.007054 1.448032
  29 0.000000 3.905660 -4.525525 -0.251271 -0.241161 -0.290817
  30 -0.000000 13.357020 0.000001 0.216883 -0.130888 1.096854
  31 -0.000003 18.158882 0.000001 -0.931080 1.622114 -1.630646
  32 -0.000000 2.542064 -0.000001 1.558254 0.000018 -0.000000
  33 -0.000000 3.135156 0.000001 -0.086398 0.000000 0.000000
  34 -0.000003 3.905663 4.546790 0.538337 0.186327 -1.209875
  35 -0.000003 13.407270 -0.000002 -0.414351 0.305588 1.255971
  36 0.000011 18.158884 -0.000005 0.680805 -1.500790 -0.726782
  37 -0.000001 2.542066 -0.000000 1.558254 -3.141546 0.000000
  38 0.000001 3.135157 -0.000001 -0.091756 0.342973 -0.030933
  39 4.301485 1.405969 0.000002 0.181095 -0.246243 -1.258778
  40 -0.000000 7.030431 0.000000 -0.001402 0.071263 -0.511992
  time 8
  0 10.013131 -16.234056 -20.004362 -0.855418 -0.021761 -3.135334
  1 -5.962544 14.804768 -19.847342 0.454377 -0.134061 2.990392
  2 0.907535 -3.182838 55.465324 -1.570796 0.000000 1.570796
  3 -16.007481 48.486481 -24.045990 1.570796 -1.570795 0.000000
  4 20.296064 45.844452 10.419675 1.570796 -1.570796 0.000000
  5 -19.273819 45.530689 -10.153984 1.570796 -1.570796 0.000000
  6 -13.406876 37.537762 11.077364 1.570796 -1.570796 0.000000
  7 34.937145 61.952827 -6.440207 1.570796 1.570796 0.000000
  8 26.355846 59.971516 10.272462 1.570796 1.570796 0.000000
  9 17.187601 49.430710 -1.710309 1.570796 1.570796 0.000000
  10 -0.000000 -17.187595 -0.000000 1.346179 0.553138 0.546603
  11 0.000000 9.251828 -0.000000 -0.141822 0.687875 -0.562652
  12 3.332968 6.058995 0.446929 -0.244893 0.486433 -0.222762
  13 0.000000 4.780092 -0.000000 1.284319 0.253606 -2.959958
  14 0.000000 10.318100 -0.000003 -0.536585 0.494200 -1.466629
  15 -0.000002 10.229105 0.000001 -0.430867 0.433552 1.455663
  16 -0.000002 17.897518 0.000003 0.789900 -0.240095 -0.728321
  17 -0.000000 4.707228 -0.000001 -1.629764 0.013168 -0.101202
  18 0.785473 20.134489 -1.462946 -0.007297 -0.169308 -0.263974
  19 -0.000001 2.947696 0.000000 0.402052 0.064298 -1.448050
  20 4.146605 18.466457 1.723745 0.583002 -2.328133 0.320372
  21 0.002827 4.780091 -0.021078 -1.880463 -0.127749 -0.177834
  22 0.000001 10.318096 0.000001 -1.647405 0.841966 -1.373997
  23 -0.000001 10.229101 0.000000 1.772369 -0.726760 0.598949
  24 -0.000002 17.897503 -0.000001 -0.342122 -0.071393 0.243665
  25 -0.000000 5.176008 -0.000001 0.349165 0.058343 -0.327910
  26 0.755611 18.921976 0.960399 0.381247 -0.147233 0.149823
  27 -0.000001 3.158196 -0.000001 -0.844463 -0.110772 -0.277173
  28 -0.000001 -17.187593 -0.000000 -1.566349 -0.007020 1.293174
  29 -0.000000 3.905658 -4.525526 -0.217960 -0.382541 -0.248704
  30 -0.000001 13.357016 -0.000001 0.231730 -0.165977 1.252045
  31 -0.000001 18.158888 -0.000003 -0.754441 1.631157 -1.704170
  32 0.000000 2.542062 -0.000002 1.558254 0.000018 -0.000000
  33 -0.000001 3.135159 -0.000002 -0.086398 0.000000 0.000000
  34 -0.000003 3.905661 4.546789 0.742335 -0.204009 -1.230718
  35 0.000003 13.407272 -0.000001 -0.333947 0.162264 0.885349
  36 -0.000002 18.158884 -0.000001 1.009321 -1.395127 -0.662030
  37 0.000000 2.542063 -0.000000 1.558254 -3.141546 0.000000
  38 0.000000 3.135157 -0.000002 -0.091756 0.342973 -0.030933
  39 4.301485 1.405969 0.000001 0.151805 -0.287628 -1.073386
  40 -0.000001 7.030430 0.000000 -0.063623 -0.015661 -0.686969
  time 9
  0 8.269368 -16.140530 -19.035040 -0.541659 0.070532 3.107449
  1 -5.962544 14.804768 -19.847342 0.481846 -0.112887 2.996705
  2 0.907535 -3.182838 55.465324 -1.570796 0.000000 1.570796
  3 -13.271323 49.815102 -23.464645 1.570796 -1.570795 0.000000
  4 23.017784 46.001022 0.179193 1.570796 -1.570796 0.000000
  5 -19.263861 45.340202 -11.069879 1.570796 -1.570796 0.000000
  6 -6.493143 36.604050 31.417255 1.570796 -1.570796 0.000000
  7 34.866455 61.794449 -6.377732 1.570796 1.570796 0.000000
  8 26.355846 59.971516 10.272462 1.570796 1.570796 0.000000
  9 17.187599 48.147377 -1.234235 1.570796 1.570796 0.000000
  10 0.000000 -17.187595 -0.000000 1.362307 0.416428 0.695801
  11 -0.000000 9.251827 -0.000000 -0.182945 0.762297 -0.479926
  12 3.332969 6.058992 0.446929 0.451274 -0.381875 -0.533980
  13 0.000000 4.780092 -0.000000 1.284319 0.253606 -2.959958
  14 -0.000000 10.318098 -0.000001 -0.373123 0.200130 -1.339964
  15 -0.000001 10.229112 0.000001 -0.422623 0.389104 1.349123
  16 -0.000002 17.897512 0.000005 0.661760 -0.369398 -0.452372
  17 -0.000001 4.707227 -0.000001 -1.632064 0.013555 -0.089972
  18 0.768835 19.654812 -1.554388 -0.177717 -0.230516 0.007336
  19 -0.000001 2.947696 0.000001 0.402052 0.064298 -1.448050
  20 3.990798 19.413332 1.767576 0.843376 -2.306488 0.366104
  21 0.002827 4.780091 -0.021077 -1.880463 -0.127749 -0.177834
  22 -0.000000 10.318099 -0.000001 2.084910 1.147523 1.439552
  23 0.000001 10.229104 0.000002 1.378974 -0.503827 0.600277
  24 0.000001 17.897511 -0.000000 -0.342122 -0.071393 0.243665
  25 0.000001 5.176012 -0.000002 0.349165 0.058344 -0.327910
  26 0.755613 18.921988 0.960399 0.381247 -0.147234 0.149822
  27 -0.000000 3.158195 0.000001 -0.827673 -0.111143 -0.278162
  28 -0.000000 -17.187593 -0.000000 -1.565977 -0.006712 1.298048
  29 0.000000 3.905659 -4.525524 -0.176577 -0.345539 -0.250790
  30 0.000001 13.357021 0.000001 0.230745 -0.163094 1.239633
  31 0.000001 18.158894 -0.000004 1.263240 1.619892 0.629330
  32 -0.000000 2.542064 -0.000000 1.558254 0.000018 -0.000000
  33 -0.000000 3.135158 0.000001 0.154296 0.033038 -0.012949
  34 -0.000003 3.905661 4.546789 0.666891 -0.269342 -1.141776
  35 -0.000001 13.407276 -0.000002 -0.295489 0.121300 0.758416
  36 0.000004 18.158880 -0.000003 0.947637 -1.411144 -0.570825
  37 -0.000000 2.542066 0.000000 1.558254 -3.141546 -0.000000
  38 0.000000 3.135157 0.000001 -0.091756 0.342973 -0.030933
  39 4.301485 1.405969 0.000001 0.063429 -0.350759 -0.639908
  40 0.000002 7.030431 -0.000000 -0.115194 0.050280 -0.659343
  time 10
  0 7.268086 -15.485830 -18.065718 -0.234729 0.162903 3.035374
  1 -5.962544 14.804768 -19.847342 0.509390 -0.091894 3.003585
  2 0.907535 -3.182838 55.465324 -1.570796 0.000000 1.570796
  3 -5.062849 53.800961 -21.720606 1.570796 -1.570795 0.000000
  4 23.017782 48.007782 5.193068 1.570796 -1.570796 0.000000
  5 -19.235073 45.311840 1.052745 1.570796 -1.570796 0.000000
  6 -6.528161 36.284756 17.099987 1.570796 -1.570796 0.000000
  7 34.793655 61.641758 -6.317501 1.570796 1.570796 0.000000
  8 26.355846 59.971516 10.272462 1.570796 1.570796 0.000000
  9 17.187599 46.211903 -0.758163 1.570796 1.570796 0.000000
  10 -0.000000 -17.187595 -0.000000 1.356345 0.278467 0.836075
  11 0.000001 9.251826 -0.000000 -0.218115 0.839173 -0.394970
  12 3.332969 6.058991 0.446929 0.451274 -0.381875 -0.533981
  13 0.000001 4.780092 0.000001 1.284319 0.253606 -2.959958
  14 0.000001 10.318097 0.000000 -0.672643 -0.020991 -1.166211
  15 -0.000001 10.229098 0.000001 -0.409352 0.345179 1.242703
  16 -0.000002 17.897514 0.000000 0.365534 -0.488791 0.068040
  17 -0.000002 4.707226 0.000002 -1.634185 0.013981 -0.078609
  18 0.741107 18.855360 -1.706790 -0.479788 -0.225268 0.472275
  19 -0.000001 2.947694 -0.000002 0.402052 0.064298 -1.448050
  20 3.731119 20.991468 1.840616 1.290261 -2.255202 0.420902
  21 0.002827 4.780092 -0.021077 -1.880463 -0.127749 -0.177834
  22 0.000001 10.318097 0.000000 -0.206882 1.978813 -1.231594
  23 -0.000001 10.229109 -0.000001 0.998627 -0.284141 0.504965
  24 -0.000001 17.897512 -0.000002 -0.342122 -0.071393 0.243665
  25 -0.000000 5.176011 0.000001 0.349165 0.058344 -0.327910
  26 0.755610 18.921986 0.960398 0.381247 -0.147234 0.149822
  27 0.000001 3.158196 -0.000000 -0.810681 -0.111553 -0.279223
  28 -0.000001 -17.187593 -0.000000 -1.565288 -0.006028 1.306338
  29 0.000001 3.905661 -4.525525 -0.156639 -0.313830 -0.253088
  30 0.000004 13.357020 -0.000002 0.225597 -0.149607 1.180854
  31 0.000002 18.158880 0.000002 1.093022 1.735996 0.775040
  32 -0.000000 2.542062 0.000001 1.558254 0.000018 0.000000
  33 0.000000 3.135158 -0.000003 0.394966 0.068209 -0.017655
  34 -0.000001 3.905660 4.546790 0.519128 -0.372519 -0.960508
  35 -0.000000 13.407278 0.000001 -0.201085 0.053409 0.491250
  36 0.000004 18.158886 -0.000002 0.869590 -1.426065 -0.463293
  37 -0.000000 2.542068 -0.000001 1.558254 -3.141546 0.000000
  38 0.000000 3.135157 0.000002 -0.091756 0.342973 -0.030933
  39 4.301486 1.405968 0.000001 -0.035033 -0.360318 -0.176013
  40 0.000000 7.030430 -0.000001 -0.129326 0.132729 -0.493723
end
