version 1
nodes
0 "ShinIK.R" -1
1 "ShinIK.L" -1
2 "All.000" -1
3 "ForearmIK.R" 2
4 "ForearmIK.L" 2
5 "UpperarmIK.R" 2
6 "UpperarmIK.L" 2
7 "KneeIK.R" 2
8 "KneeIK.L" 2
9 "Spine.009" 2
10 "Spine.001" 9
11 "Spine.002" 10
12 "Spine.004" 11
13 "Arm.R.001" 11
14 "Arm.R.002" 13
15 "Arm.R.003" 14
16 "Arm.R.004" 15
17 "Arm.R.005" 16
18 "Arm.R.006" 15
19 "Arm.R.007" 18
20 "Wep.000" 15
21 "Arm.L.001" 11
22 "Arm.L.002" 21
23 "Arm.L.003" 22
24 "Arm.L.004" 23
25 "Arm.L.005" 24
26 "Arm.L.006" 23
27 "Arm.L.007" 26
28 "Spine.000" 9
29 "Leg.R.001" 28
30 "Leg.R.002" 29
31 "Leg.R.003" 30
32 "Leg.R.004" 31
33 "Leg.R.005" 32
34 "Leg.L.001" 28
35 "Leg.L.002" 34
36 "Leg.L.003" 35
37 "Leg.L.004" 36
38 "Leg.L.005" 37
39 "Loincloth.000" 28
40 "Loincloth.001" 39
end
skeleton
  time 0
  0 7.268086 -3.119072 -20.022829 0.000000 -0.000000 -3.141593
  1 -7.755937 -13.152498 -20.022829 -0.294305 -0.000000 3.141593
  2 0.907535 -3.182838 55.465324 -1.570796 0.000000 1.570796
  3 5.116445 45.084656 -20.605093 1.570796 -1.570795 0.000000
  4 6.503564 46.997601 20.840397 1.570796 -1.570796 0.000000
  5 -17.141829 38.067543 -16.689768 1.570796 -1.570796 0.000000
  6 -17.141844 38.067539 16.711023 1.570796 -1.570796 0.000000
  7 17.202442 59.971519 -5.658659 1.570796 1.570796 0.000000
  8 17.202438 59.971519 6.168211 1.570796 1.570796 0.000000
  9 17.187601 41.854366 0.000009 1.570796 1.570796 0.000000
  10 -0.000001 -17.187595 -0.000000 1.534642 -0.299018 1.693221
  11 0.000001 9.251828 0.000001 0.025781 0.231942 -0.098196
  12 3.332967 6.058992 0.446929 -0.040595 -0.223927 -0.408146
  13 -0.000000 4.780092 -0.000000 1.284319 0.253606 -2.959958
  14 -0.000001 10.318098 0.000002 0.280586 -0.382881 -1.001184
  15 -0.000000 10.229107 -0.000001 -0.433919 0.484398 1.578385
  16 -0.000007 17.897516 -0.000003 0.464951 -0.693813 0.023495
  17 -0.000001 4.707229 -0.000000 -1.517367 -0.006542 -0.222692
  18 1.054334 19.031311 -1.957864 -0.491403 -0.440951 0.483856
  19 -0.000002 2.947697 0.000001 0.591003 0.259473 -0.900673
  20 3.728752 18.863808 2.151969 0.584272 -2.496289 0.495315
  21 0.002826 4.780094 -0.021077 -1.880463 -0.127749 -0.177834
  22 -0.000001 10.318099 -0.000001 0.150583 2.671143 0.112164
  23 -0.000000 10.229099 -0.000000 1.114404 -0.347799 0.542794
  24 -0.000006 17.897511 0.000004 -0.342122 -0.071393 0.243666
  25 -0.000000 5.176013 0.000003 0.349166 0.058343 -0.327910
  26 0.755608 18.921986 0.960406 0.381248 -0.147234 0.149823
  27 -0.000001 3.158196 -0.000001 -0.694310 -0.195412 -0.702197
  28 -0.000001 -17.187595 -0.000000 -1.661412 -0.099027 1.774270
  29 0.000002 3.905661 -4.525524 -0.100229 0.194001 -0.170870
  30 0.000002 13.357014 0.000000 0.128772 -0.035102 0.559767
  31 0.000001 18.158876 -0.000002 -1.477040 1.609456 -1.571261
  32 0.000001 2.542065 0.000001 1.558254 0.000018 -0.000000
  33 0.000000 3.135156 0.000002 -0.086398 0.000000 0.000000
  34 -0.000002 3.905660 4.546789 0.338221 0.165248 0.262330
  35 0.000001 13.407274 0.000000 -0.120022 0.020188 0.286699
  36 -0.000001 18.158878 0.000003 1.181678 -1.609476 -1.570204
  37 0.000000 2.542062 -0.000000 1.558254 -3.141546 0.000000
  38 -0.000000 3.135155 -0.000001 -0.091756 0.342973 -0.030933
  39 4.301485 1.405969 0.000001 -0.084543 -0.230217 -0.783667
  40 0.000000 7.030432 0.000000 0.020871 -0.019348 -0.632813
  time 1
  0 8.840700 0.591204 -20.022829 -0.056244 0.000000 -3.141593
  1 -7.755937 -13.152498 -20.022829 -0.452082 -0.000000 3.141593
  2 0.907535 -3.182838 55.465324 -1.570796 0.000000 1.570796
  3 -5.893592 34.603210 -28.119892 1.570796 -1.570795 0.000000
  4 4.408582 37.641788 9.669813 1.570796 -1.570796 0.000000
  5 -17.145081 37.784363 -17.909788 1.570796 -1.570796 0.000000
  6 -16.372044 40.166706 17.291203 1.570796 -1.570796 0.000000
  7 17.203924 60.792526 -5.982529 1.570796 1.570796 0.000000
  8 17.203920 61.185974 6.168211 1.570796 1.570796 0.000000
  9 17.190651 41.867878 0.000009 1.570796 1.570796 0.000000
  10 -0.000001 -17.187595 -0.000000 1.533590 -0.354788 1.668159
  11 -0.000000 9.251827 0.000001 -0.070555 0.179434 0.334867
  12 3.332966 6.058992 0.446929 -0.047807 -0.224880 -0.420572
  13 0.000000 4.780092 0.000000 1.284319 0.253606 -2.959958
  14 -0.000000 10.318096 -0.000001 0.900135 0.224624 -1.248880
  15 -0.000003 10.229102 -0.000000 -0.433927 0.479101 1.565483
  16 -0.000004 17.897512 0.000004 0.565901 -0.684825 -0.011114
  17 0.000000 4.707227 -0.000000 -1.518784 -0.005871 -0.223649
  18 0.992551 19.220535 -1.900318 -0.390113 -0.453200 0.450704
  19 0.000002 2.947696 0.000001 0.591004 0.259473 -0.900673
  20 3.668006 18.902750 2.304129 0.569321 -2.557348 0.564686
  21 0.002827 4.780092 -0.021077 -1.880463 -0.127749 -0.177833
  22 -0.000002 10.318098 -0.000001 -0.434570 2.902167 0.547475
  23 -0.000000 10.229099 -0.000001 2.288845 -0.932981 0.448205
  24 -0.000001 17.897507 -0.000001 -0.336314 -0.058532 0.209624
  25 0.000000 5.176010 -0.000002 -0.087866 0.090287 0.138219
  26 0.755611 18.921980 0.960399 0.381247 -0.147234 0.149822
  27 0.000001 3.158194 -0.000000 -0.225177 0.330715 -1.040211
  28 -0.000001 -17.187595 -0.000000 -1.686103 -0.087826 1.790111
  29 0.000002 3.905661 -4.525525 -0.122675 0.163532 -0.255885
  30 0.000000 13.357018 -0.000000 0.114344 -0.026739 0.491300
  31 0.000006 18.158890 -0.000003 -1.420778 1.609456 -1.571252
  32 0.000001 2.542064 0.000000 1.558254 0.000018 0.000000
  33 -0.000000 3.135157 0.000002 -0.086398 0.000000 0.000000
  34 -0.000000 3.905661 4.546789 0.375202 0.189222 0.234269
  35 -0.000001 13.407274 -0.000001 -0.137105 0.025615 0.328688
  36 -0.000002 18.158882 -0.000002 1.023987 -1.609482 -1.570292
  37 -0.000000 2.542063 0.000001 1.558254 -3.141546 0.000000
  38 -0.000000 3.135157 -0.000002 -0.091756 0.342973 -0.030933
  39 4.301485 1.405968 0.000001 -0.026214 -0.012800 -0.180428
  40 0.000001 7.030429 -0.000000 -0.022579 -0.058180 -0.295439
  time 2
  0 10.413313 4.301480 -20.022829 -0.112484 0.000000 -3.141593
  1 -7.755937 -13.152498 -20.022829 -0.484997 -0.000000 3.141593
  2 0.907535 -3.182838 55.465324 -1.570796 0.000000 1.570796
  3 -5.844677 34.639824 -28.094187 1.570796 -1.570795 0.000000
  4 4.577494 38.396118 10.570460 1.570796 -1.570796 0.000000
  5 -17.167839 37.638950 -20.593832 1.570796 -1.570796 0.000000
  6 -14.342570 45.700878 18.820768 1.570796 -1.570796 0.000000
  7 17.214300 62.957001 -6.836366 1.570796 1.570796 0.000000
  8 17.214296 64.387718 6.168211 1.570796 1.570796 0.000000
  9 17.236399 42.070568 0.000009 1.570796 1.570796 0.000000
  10 -0.000001 -17.187595 -0.000000 1.544757 -0.344079 1.603108
  11 -0.000001 9.251829 0.000001 -0.084938 0.113597 0.320228
  12 3.332965 6.058993 0.446929 -0.066814 -0.227817 -0.453392
  13 0.000000 4.780094 0.000001 1.284319 0.253606 -2.959958
  14 0.000002 10.318099 -0.000002 0.915441 0.108766 -1.089701
  15 -0.000002 10.229103 0.000002 -0.433922 0.478582 1.564225
  16 -0.000000 17.897524 -0.000000 0.792231 -0.643177 -0.105429
  17 -0.000002 4.707225 -0.000004 -1.520149 -0.005217 -0.224563
  18 0.847758 19.633463 -1.771798 -0.159148 -0.468452 0.359926
  19 -0.000001 2.947697 -0.000000 0.591003 0.259473 -0.900673
  20 3.595513 18.949234 2.485720 0.568329 -2.631020 0.636707
  21 0.002827 4.780093 -0.021076 -1.880463 -0.127749 -0.177834
  22 -0.000002 10.318101 -0.000000 -0.517553 2.869500 0.876563
  23 -0.000001 10.229100 -0.000001 2.378925 -0.957099 0.408828
  24 -0.000002 17.897509 -0.000003 -0.323673 -0.025352 0.124340
  25 -0.000000 5.176012 -0.000003 0.020102 0.082134 0.041085
  26 0.755610 18.921982 0.960396 0.381247 -0.147234 0.149822
  27 0.000000 3.158195 -0.000000 -0.313235 0.228869 -1.017296
  28 -0.000001 -17.187595 -0.000000 -1.743828 -0.037144 1.828924
  29 0.000003 3.905661 -4.525525 -0.079609 0.179048 -0.258004
  30 0.000000 13.357019 0.000003 0.057916 -0.005077 0.241690
  31 -0.000002 18.158892 0.000002 -1.364545 1.609455 -1.571249
  32 -0.000001 2.542064 -0.000001 1.558254 0.000018 0.000000
  33 0.000000 3.135157 -0.000000 -0.086398 0.000000 0.000000
  34 -0.000001 3.905661 4.546788 0.465358 0.267253 0.137206
  35 0.000000 13.407277 -0.000003 -0.185989 0.045719 0.451970
  36 -0.000002 18.158884 -0.000004 0.991093 -1.609484 -1.570311
  37 0.000000 2.542063 -0.000001 1.558254 -3.141546 0.000000
  38 -0.000000 3.135158 -0.000000 -0.091756 0.342973 -0.030933
  39 4.301485 1.405968 0.000000 0.147108 0.132115 0.443964
  40 -0.000000 7.030431 0.000000 -0.122665 -0.045114 0.384341
  time 3
  0 10.411067 4.209571 -20.024664 -0.115477 0.001554 3.140523
  1 -7.746074 -13.252797 -20.022829 -0.488523 -0.007791 -3.124846
  2 0.907535 -3.182838 55.465324 -1.570796 0.000000 1.570796
  3 -5.110960 35.189014 -27.708586 1.570796 -1.570795 0.000000
  4 7.025636 38.415619 10.796562 1.570796 -1.570796 0.000000
  5 -17.229614 37.585373 -23.277874 1.570796 -1.570796 0.000000
  6 -11.473313 53.525055 20.983253 1.570796 -1.570796 0.000000
  7 17.242460 66.017120 -8.043516 1.570796 1.570796 0.000000
  8 17.242458 68.914330 6.168211 1.570796 1.570796 0.000000
  9 17.434639 42.948887 0.000009 1.570796 1.570796 0.000000
  10 -0.000001 -17.187595 -0.000000 1.559432 -0.269370 1.526451
  11 0.000000 9.251829 0.000001 -0.092103 0.081215 0.281925
  12 3.332966 6.058993 0.446929 -0.093609 -0.233022 -0.499882
  13 0.000001 4.780093 0.000000 1.284319 0.253606 -2.959958
  14 0.000002 10.318100 -0.000003 0.885009 0.032225 -0.972895
  15 -0.000003 10.229110 0.000004 -0.433914 0.484912 1.579639
  16 -0.000001 17.897522 -0.000008 1.016864 -0.548932 -0.234535
  17 -0.000002 4.707226 -0.000003 -1.521461 -0.004580 -0.225435
  18 0.680777 20.037930 -1.638443 0.078101 -0.466739 0.237913
  19 0.000001 2.947698 -0.000001 0.591003 0.259473 -0.900673
  20 3.534768 18.988171 2.637868 0.575346 -2.692353 0.692694
  21 0.002826 4.780091 -0.021077 -1.880463 -0.127749 -0.177834
  22 0.000001 10.318098 -0.000003 -0.292132 2.748024 0.979583
  23 -0.000000 10.229103 -0.000000 2.327697 -0.943789 0.431590
  24 -0.000003 17.897511 0.000001 -0.311477 0.019491 0.013334
  25 -0.000003 5.176012 -0.000000 0.336931 0.113596 -0.249534
  26 0.755608 18.921984 0.960401 0.381247 -0.147234 0.149822
  27 0.000001 3.158196 0.000000 -0.546255 -0.019606 -0.919502
  28 -0.000001 -17.187595 -0.000000 -1.807785 0.081849 1.875179
  29 0.000002 3.905660 -4.525523 -0.110667 0.314381 -0.480689
  30 0.000004 13.357018 0.000001 0.106109 -0.022533 0.453291
  31 0.000009 18.158876 -0.000003 -1.329515 1.608012 -1.539199
  32 0.000001 2.542062 0.000001 1.558254 0.000018 -0.000000
  33 0.000000 3.135157 -0.000001 -0.086398 0.000000 0.000000
  34 -0.000002 3.905661 4.546788 0.571179 0.414499 -0.048259
  35 0.000001 13.407271 -0.000002 -0.261032 0.092029 0.655464
  36 -0.000003 18.158878 -0.000001 0.495373 -1.607447 -1.077717
  37 -0.000000 2.542062 -0.000001 1.558254 -3.141546 0.000000
  38 -0.000001 3.135157 -0.000002 -0.091756 0.342973 -0.030933
  39 4.301485 1.405968 0.000002 0.051531 0.115344 0.118162
  40 0.000001 7.030429 -0.000001 -0.161638 -0.011724 0.718983
  time 4
  0 10.377373 2.830950 -20.052153 -0.160673 0.024512 3.123882
  1 -7.677028 -13.954890 -20.022829 -0.517757 -0.062026 -3.003178
  2 0.907535 -3.182838 55.465324 -1.570796 0.000000 1.570796
  3 -1.931517 37.568855 -26.037661 1.570796 -1.570795 0.000000
  4 24.162634 38.552116 12.379262 1.570796 -1.570796 0.000000
  5 -17.349916 37.577721 -24.497896 1.570796 -1.570796 0.000000
  6 -8.184165 62.494232 23.462204 1.570796 -1.570796 0.000000
  7 17.297302 69.525063 -9.427321 1.570796 1.570796 0.000000
  8 17.297298 74.103371 6.168212 1.570796 1.570796 0.000000
  9 17.968359 45.313591 0.000009 1.570796 1.570796 0.000000
  10 -0.000001 -17.187595 -0.000000 1.561288 -0.069051 1.464137
  11 -0.000001 9.251827 0.000001 -0.092485 0.064539 0.229969
  12 3.332967 6.058992 0.446929 -0.124102 -0.240491 -0.553189
  13 0.000000 4.780093 0.000000 1.284319 0.253606 -2.959958
  14 -0.000001 10.318095 0.000000 0.855724 0.005774 -0.917044
  15 -0.000001 10.229102 -0.000000 -0.429243 0.538654 1.713267
  16 -0.000003 17.897514 -0.000001 1.120783 -0.403734 -0.390441
  17 -0.000002 4.707225 0.000001 -1.522722 -0.003959 -0.226268
  18 0.552451 20.201784 -1.566382 0.193478 -0.460168 0.116081
  19 0.000000 2.947697 0.000000 0.591003 0.259473 -0.900673
  20 3.509295 19.004490 2.701680 0.580036 -2.717826 0.715324
  21 0.002826 4.780093 -0.021077 -1.880463 -0.127749 -0.177834
  22 0.000001 10.318097 0.000000 0.624651 2.069664 0.172675
  23 0.000003 10.229101 0.000000 1.022119 -0.296704 0.513194
  24 0.000001 17.897507 0.000000 -0.304303 0.065468 -0.097479
  25 0.000000 5.176010 -0.000000 0.705350 0.271036 -0.583270
  26 0.755612 18.921982 0.960399 0.381247 -0.147234 0.149822
  27 0.000000 3.158195 -0.000001 -0.883212 -0.283886 -0.713204
  28 -0.000001 -17.187595 -0.000000 -1.847187 0.299665 1.913521
  29 0.000003 3.905660 -4.525523 -0.310921 0.436150 -0.917504
  30 -0.000002 13.357015 -0.000000 0.187261 -0.086239 0.878518
  31 -0.000008 18.158894 0.000004 -0.419274 1.595911 -0.673562
  32 0.000001 2.542061 -0.000001 1.558254 0.000018 0.000000
  33 -0.000001 3.135158 -0.000002 -0.086398 0.000000 0.000000
  34 -0.000002 3.905662 4.546789 0.639778 0.623106 -0.342259
  35 -0.000001 13.407278 -0.000001 -0.344708 0.175763 0.924139
  36 -0.000002 18.158882 -0.000003 -0.690920 -1.714139 0.086005
  37 -0.000000 2.542064 0.000001 1.558254 -3.141546 0.000000
  38 -0.000001 3.135157 0.000002 -0.091756 0.342973 -0.030933
  39 4.301485 1.405968 0.000001 -0.029108 0.042218 -0.202024
  40 0.000001 7.030430 -0.000001 -0.100651 -0.017206 -0.097408
  time 5
  0 10.231365 -3.143073 -20.171289 -0.362442 0.114623 3.039695
  1 -7.489620 -15.860569 -20.022829 -0.639480 -0.194607 -2.634041
  2 0.907535 -3.182838 55.465324 -1.570796 0.000000 1.570796
  3 6.628523 43.976120 -21.539013 1.570796 -1.570795 0.000000
  4 24.463066 40.903164 12.810562 1.570796 -1.570796 0.000000
  5 -21.420111 48.844784 -22.545864 1.570796 -1.570796 0.000000
  6 -4.895020 71.463417 25.941153 1.570796 -1.570796 0.000000
  7 17.387714 73.033005 -10.811128 1.570796 1.570796 0.000000
  8 17.387707 79.292412 6.168212 1.570796 1.570796 0.000000
  9 19.093748 50.299732 0.000010 1.570796 1.570796 0.000000
  10 -0.000001 -17.187595 -0.000000 1.537853 0.321000 1.431562
  11 -0.000001 9.251827 0.000001 -0.086237 0.046220 0.174713
  12 3.332968 6.058994 0.446929 -0.154216 -0.249532 -0.606370
  13 0.000000 4.780091 -0.000000 1.284319 0.253606 -2.959958
  14 0.000000 10.318100 0.000000 0.297478 0.130502 -0.945149
  15 -0.000001 10.229104 -0.000001 -0.382401 0.659246 2.049666
  16 0.000000 17.897518 0.000002 0.865939 -0.335273 -0.520857
  17 -0.000001 4.707225 -0.000002 -1.523933 -0.003355 -0.227059
  18 0.419597 20.041748 -1.706769 0.029632 -0.245310 -0.059078
  19 0.000001 2.947696 0.000000 0.591003 0.259473 -0.900673
  20 3.754226 18.847485 2.088165 0.612110 -2.472527 0.451587
  21 0.002826 4.780093 -0.021077 -1.880463 -0.127749 -0.177834
  22 0.000001 10.318099 -0.000001 -1.477131 1.454669 -1.652677
  23 0.000000 10.229100 0.000000 1.491149 -0.570635 0.610895
  24 -0.000000 17.897514 0.000004 -0.302273 0.101043 -0.182375
  25 0.000001 5.176014 -0.000000 0.952689 0.457520 -0.798958
  26 0.755612 18.921988 0.960405 0.381247 -0.147234 0.149822
  27 0.000001 3.158196 -0.000001 -1.211637 -0.430612 -0.473164
  28 -0.000001 -17.187595 -0.000000 -1.824869 0.640648 1.943541
  29 0.000002 3.905660 -4.525524 -0.579607 0.413430 -1.362038
  30 -0.000003 13.357019 -0.000001 0.241185 -0.204273 1.413375
  31 -0.000001 18.158894 0.000001 0.998762 1.700231 0.550087
  32 0.000000 2.542062 -0.000001 1.558254 0.000018 0.000000
  33 -0.000000 3.135158 0.000001 -0.086398 0.000000 0.000000
  34 -0.000001 3.905660 4.546789 0.616230 0.822717 -0.774540
  35 0.000003 13.407273 -0.000001 -0.411186 0.296633 1.234556
  36 -0.000001 18.158882 -0.000006 -0.913594 -2.100926 0.240709
  37 0.000000 2.542061 0.000000 1.558254 -3.141546 0.000000
  38 0.000000 3.135157 0.000002 -0.091756 0.342973 -0.030933
  39 4.301485 1.405968 0.000001 0.037245 0.011495 0.002070
  40 -0.000000 7.030431 0.000000 -0.019260 0.037893 -0.912097
  time 6
  0 9.572210 -12.686397 -20.814615 -0.236242 0.071256 2.905557
  1 -7.124665 -19.571630 -20.022829 -0.992975 -0.282027 -1.834049
  2 0.907535 -3.182838 55.465324 -1.570796 0.000000 1.570796
  3 17.513351 47.105793 -21.823328 1.570796 -1.570795 0.000000
  4 25.364365 47.956310 14.104459 1.570796 -1.570796 0.000000
  5 -25.412271 68.734573 -20.593832 1.570796 -1.570796 0.000000
  6 -2.025763 79.287598 28.103643 1.570796 -1.570796 0.000000
  7 17.522589 76.093124 -12.018279 1.570796 1.570796 0.000000
  8 17.522585 83.819023 6.168212 1.570796 1.570796 0.000000
  9 21.140190 59.366676 0.000011 1.570796 1.570796 0.000000
  10 -0.000001 -17.187595 -0.000000 1.531513 0.453487 1.441151
  11 0.000000 9.251827 0.000001 -0.072178 0.009218 0.126127
  12 3.332967 6.058994 0.446929 -0.180068 -0.258659 -0.652548
  13 -0.000000 4.780091 0.000000 1.284319 0.253606 -2.959958
  14 -0.000002 10.318097 -0.000000 -0.056130 0.635257 -0.251714
  15 -0.000002 10.229101 0.000001 -0.427279 0.549329 1.740594
  16 -0.000001 17.897516 0.000002 0.865939 -0.335273 -0.520857
  17 0.000000 4.707227 -0.000003 -1.525095 -0.002765 -0.227811
  18 0.419598 20.041746 -1.706767 0.029632 -0.245310 -0.059078
  19 -0.000000 2.947696 -0.000000 0.591004 0.259473 -0.900673
  20 3.754227 18.847477 2.088170 0.612110 -2.472527 0.451587
  21 0.002826 4.780091 -0.021077 -1.880463 -0.127749 -0.177833
  22 0.000002 10.318097 0.000000 -0.187942 1.242733 -0.167998
  23 -0.000002 10.229105 -0.000000 1.662670 -0.668619 0.610161
  24 0.000000 17.897509 0.000011 -0.302309 0.115220 -0.216213
  25 -0.000001 5.176009 0.000002 1.037772 0.534690 -0.871958
  26 0.755614 18.921986 0.960411 0.381247 -0.147234 0.149822
  27 0.000001 3.158196 0.000001 -1.347757 -0.463782 -0.366745
  28 -0.000001 -17.187595 -0.000000 1.433931 2.072634 -1.130562
  29 0.000001 3.905661 -4.525524 -0.635845 0.458108 -1.388245
  30 -0.000001 13.357018 0.000000 0.242000 -0.274772 1.705733
  31 -0.000001 18.158880 0.000002 0.377735 1.811830 0.060399
  32 -0.000001 2.542064 0.000001 1.558254 0.000018 0.000000
  33 0.000001 3.135156 0.000002 -0.086398 0.000000 0.000000
  34 -0.000000 3.905661 4.546789 0.706026 0.868565 -1.040731
  35 0.000001 13.407276 0.000001 -0.435962 0.408778 1.497934
  36 -0.000005 18.158888 -0.000002 -1.041241 -2.881109 0.199885
  37 0.000000 2.542064 0.000001 1.558254 -3.141546 -0.000000
  38 0.000000 3.135157 0.000001 -0.091755 0.342973 -0.030933
  39 4.301484 1.405968 -0.000001 0.097883 -0.004827 0.205121
  40 -0.000001 7.030431 0.000001 0.049837 -0.017334 -0.411608
  time 7
  0 8.427868 -22.610655 -21.853834 -0.050707 0.024293 2.728772
  1 -6.834136 -22.525892 -20.022829 -0.585598 -0.395027 -2.147894
  2 0.907535 -3.182838 55.465324 -1.570796 0.000000 1.570796
  3 28.321951 56.291203 -22.351355 1.570796 -1.570795 0.000000
  4 26.866528 59.711552 16.260954 1.570796 -1.570796 0.000000
  5 1.585484 80.461403 -37.777275 1.570796 -1.570796 0.000000
  6 0.003709 84.821762 29.633205 1.570796 -1.570796 0.000000
  7 17.710823 78.257599 -12.872116 1.570796 1.570796 0.000000
  8 17.710815 87.020767 6.168213 1.570796 1.570796 0.000000
  9 24.510260 74.298088 0.000014 1.570796 1.570796 0.000000
  10 -0.000001 -17.187595 -0.000000 1.570794 1.413603 1.570794
  11 0.000000 9.251829 0.000000 -0.070443 0.005968 0.117949
  12 3.332968 6.058991 0.446928 -0.198069 -0.265786 -0.685039
  13 -0.000000 4.780093 0.000000 1.284319 0.253606 -2.959958
  14 -0.000003 10.318098 -0.000003 -0.128868 2.082113 -0.347944
  15 -0.000002 10.229106 -0.000001 -0.413739 0.357924 1.273800
  16 -0.000002 17.897514 0.000003 0.865939 -0.335273 -0.520857
  17 -0.000000 4.707225 0.000001 -1.526210 -0.002191 -0.228524
  18 0.419599 20.041746 -1.706766 0.029632 -0.245310 -0.059078
  19 -0.000000 2.947696 -0.000001 0.591004 0.259473 -0.900673
  20 3.754226 18.847477 2.088168 0.612110 -2.472527 0.451587
  21 0.002824 4.780093 -0.021077 -1.880463 -0.127749 -0.177833
  22 0.000004 10.318099 -0.000001 -0.153958 -0.201680 0.538034
  23 0.000002 10.229103 0.000002 1.543053 -0.600992 0.612853
  24 -0.000001 17.897499 0.000004 -0.299984 -0.024109 -0.118896
  25 -0.000001 5.176011 0.000001 0.715446 0.256788 -0.630661
  26 0.755611 18.921974 0.960404 0.381247 -0.147234 0.149822
  27 -0.000000 3.158195 -0.000001 -0.996740 -0.371893 -0.578118
  28 -0.000001 -17.187595 -0.000000 1.897666 1.750604 -0.729785
  29 0.000002 3.905659 -4.525524 -0.695913 1.123432 -0.678250
  30 -0.000006 13.357021 0.000002 0.227252 -0.153692 1.198792
  31 -0.000002 18.158878 -0.000001 0.022881 1.986788 -0.108853
  32 -0.000003 2.542060 -0.000001 1.558254 0.000018 -0.000000
  33 0.000001 3.135156 -0.000002 -0.086398 0.000000 0.000000
  34 -0.000001 3.905660 4.546790 1.202546 0.460186 -0.725953
  35 0.000000 13.407272 -0.000001 -0.434733 0.395937 1.467932
  36 -0.000003 18.158886 -0.000002 -0.801707 -2.599916 0.358586
  37 0.000002 2.542065 0.000001 1.558254 -3.141546 0.000000
  38 0.000000 3.135158 -0.000000 -0.091756 0.342973 -0.030933
  39 4.301486 1.405969 0.000001 0.048848 -0.002675 0.187333
  40 0.000000 7.030430 0.000000 0.046805 -0.094963 0.091394
  time 8
  0 7.502175 -27.190941 -22.398188 0.000000 -0.000000 2.640319
  1 -5.962548 -31.388672 -20.022829 0.591947 0.026423 -3.015186
  2 0.907535 -3.182838 55.465324 -1.570796 0.000000 1.570796
  3 33.651096 76.396858 -22.635675 1.570796 -1.570795 0.000000
  4 28.969561 76.168884 19.280045 1.570796 -1.570796 0.000000
  5 -33.318554 83.565521 -16.689772 1.570796 -1.570796 0.000000
  6 0.773511 86.920944 30.213383 1.570796 -1.570796 0.000000
  7 17.961304 79.078606 -13.195984 1.570796 1.570796 0.000000
  8 17.961298 88.235222 6.168213 1.570796 1.570796 0.000000
  9 24.510260 74.298088 0.000014 1.570796 1.570796 0.000000
  10 -0.000001 -17.187595 -0.000000 1.570794 1.413603 1.570794
  11 0.000000 9.251829 0.000000 -0.004102 -0.086477 -0.138549
  12 3.332966 6.058994 0.446928 -0.204827 -0.268631 -0.697318
  13 0.000001 4.780091 -0.000000 1.284319 0.253606 -2.959958
  14 0.000001 10.318099 -0.000001 0.265942 1.478742 0.841460
  15 0.000000 10.229111 0.000000 -0.416972 0.368260 1.298872
  16 -0.000003 17.897520 -0.000002 0.865939 -0.335273 -0.520857
  17 -0.000001 4.707226 0.000000 -1.527278 -0.001630 -0.229198
  18 0.419596 20.041754 -1.706771 0.029632 -0.245310 -0.059078
  19 -0.000001 2.947696 -0.000002 0.591004 0.259473 -0.900673
  20 3.754226 18.847490 2.088169 0.612110 -2.472527 0.451586
  21 0.002827 4.780091 -0.021077 -1.880463 -0.127749 -0.177833
  22 -0.000000 10.318099 0.000001 -0.420485 0.358557 -0.154487
  23 -0.000003 10.229100 -0.000001 1.810993 -0.746171 0.593065
  24 0.000001 17.897507 0.000002 -0.342122 -0.071393 0.243665
  25 -0.000004 5.176009 -0.000002 0.349165 0.058344 -0.327910
  26 0.755614 18.921978 0.960399 0.381247 -0.147234 0.149823
  27 -0.000001 3.158193 0.000002 -0.694309 -0.195412 -0.702197
  28 -0.000001 -17.187595 -0.000000 2.806317 1.719676 0.112623
  29 0.000002 3.905660 -4.525523 0.078306 1.204711 -0.089746
  30 -0.000001 13.357023 -0.000000 0.143055 -0.044765 0.630446
  31 -0.000000 18.158878 0.000001 -0.067058 2.076551 -0.151411
  32 -0.000002 2.542064 0.000000 1.558254 0.000018 -0.000000
  33 0.000002 3.135157 -0.000000 -0.086398 0.000000 0.000000
  34 0.000003 3.905663 4.546791 0.728949 0.027297 -0.440205
  35 0.000004 13.407280 -0.000001 -0.204179 0.055078 0.499384
  36 -0.000001 18.158886 -0.000001 1.043697 -1.715714 -0.545244
  37 -0.000001 2.542064 -0.000002 1.558254 -3.141546 0.000000
  38 -0.000001 3.135158 -0.000003 -0.091756 0.342973 -0.030933
  39 4.301486 1.405969 0.000000 0.000000 0.000000 0.063895
  40 -0.000003 7.030430 0.000001 -0.000000 0.000000 -0.151285
end
