version 1
nodes
0 "ShinIK.R" -1
1 "ShinIK.L" -1
2 "All.000" -1
3 "ForearmIK.R" 2
4 "ForearmIK.L" 2
5 "UpperarmIK.R" 2
6 "UpperarmIK.L" 2
7 "KneeIK.R" 2
8 "KneeIK.L" 2
9 "Spine.009" 2
10 "Spine.001" 9
11 "Spine.002" 10
12 "Spine.004" 11
13 "Arm.R.001" 11
14 "Arm.R.002" 13
15 "Arm.R.003" 14
16 "Arm.R.004" 15
17 "Arm.R.005" 16
18 "Arm.R.006" 15
19 "Arm.R.007" 18
20 "Wep.000" 15
21 "Arm.L.001" 11
22 "Arm.L.002" 21
23 "Arm.L.003" 22
24 "Arm.L.004" 23
25 "Arm.L.005" 24
26 "Arm.L.006" 23
27 "Arm.L.007" 26
28 "Spine.000" 9
29 "Leg.R.001" 28
30 "Leg.R.002" 29
31 "Leg.R.003" 30
32 "Leg.R.004" 31
33 "Leg.R.005" 32
34 "Leg.L.001" 28
35 "Leg.L.002" 34
36 "Leg.L.003" 35
37 "Leg.L.004" 36
38 "Leg.L.005" 37
39 "Loincloth.000" 28
40 "Loincloth.001" 39
end
skeleton
  time 0
  0 14.598085 -11.174925 -20.077055 -0.481335 -0.311583 2.927382
  1 -13.595158 3.881110 -19.847342 0.011780 0.166055 -2.783236
  2 0.907535 -3.182838 55.465324 -1.570796 0.000000 1.570796
  3 14.395461 42.242386 -16.650106 1.570796 -1.570795 0.000000
  4 15.058781 47.154739 10.045320 1.570796 -1.570796 0.000000
  5 -17.141829 44.541832 -16.689768 1.570796 -1.570796 0.000000
  6 -8.691089 34.101456 27.635275 1.570796 -1.570796 0.000000
  7 26.355852 59.971519 -5.941226 1.570796 1.570796 0.000000
  8 26.355848 59.971516 6.884823 1.570796 1.570796 0.000000
  9 17.187599 45.133518 -0.758163 1.570796 1.570796 0.000000
  10 -0.000000 -17.187595 -0.000000 1.422544 0.010489 1.133264
  11 -0.000000 9.251829 0.000000 -0.086118 0.223895 -0.315158
  12 3.332967 6.058993 0.446927 -0.147732 0.191495 -0.482716
  13 0.000000 4.780090 -0.000000 1.284319 0.253606 -2.959958
  14 0.000000 10.318099 0.000002 -0.466333 0.215393 0.336244
  15 -0.000001 10.229101 0.000002 -0.421892 0.386148 1.342017
  16 -0.000000 17.897514 -0.000002 0.259425 -0.304296 0.069466
  17 -0.000001 4.707226 -0.000001 -1.649658 0.023958 0.118659
  18 0.373019 18.626915 -1.525763 -0.485928 -0.011317 0.484119
  19 -0.000000 2.947696 0.000001 0.402052 0.064298 -1.448050
  20 4.107178 21.006729 1.429048 1.347495 -2.081898 0.340731
  21 0.002826 4.780091 -0.021077 -1.880463 -0.127749 -0.177834
  22 0.000003 10.318096 0.000001 -0.506316 2.282278 -0.092170
  23 0.000001 10.229100 -0.000004 1.724430 -0.701874 0.604861
  24 0.000004 17.897503 0.000008 -0.342122 -0.071393 0.243665
  25 -0.000000 5.176010 0.000003 0.349166 0.058345 -0.327911
  26 0.755616 18.921978 0.960409 0.381248 -0.147233 0.149821
  27 -0.000003 3.158195 -0.000001 -0.516447 -0.120146 -0.304383
  28 -0.000001 -17.187593 -0.000000 -1.545659 -0.011193 1.753308
  29 0.000001 3.905660 -4.525524 -0.423476 0.035250 -0.090130
  30 0.000002 13.357018 -0.000002 0.168794 -0.066376 0.767915
  31 0.000001 18.158875 -0.000002 -0.506383 1.981206 -1.112164
  32 0.000001 2.542063 -0.000000 1.558254 0.000018 -0.000000
  33 -0.000001 3.135156 -0.000004 -0.086398 0.000000 0.000000
  34 -0.000002 3.905659 4.546789 0.320877 0.442838 -0.636884
  35 -0.000000 13.407280 -0.000000 -0.263829 0.094188 0.663535
  36 -0.000002 18.158888 -0.000003 0.497927 -1.985006 -0.603834
  37 -0.000001 2.542063 0.000000 1.558254 -3.141546 0.000000
  38 0.000002 3.135158 -0.000002 -0.091756 0.342973 -0.030933
  39 4.301485 1.405968 0.000000 -0.000000 0.000000 0.063895
  40 0.000000 7.030432 -0.000001 0.000000 -0.000000 -0.151285
  time 1
  0 14.598085 -11.174925 -20.077055 -0.532616 -0.322799 2.903371
  1 -13.595158 3.881110 -19.847342 0.037023 0.232088 -2.848223
  2 0.907535 -3.182838 55.465324 -1.570796 0.000000 1.570796
  3 -0.153978 42.533180 -19.801079 1.570796 -1.570795 0.000000
  4 19.445688 43.652870 2.448250 1.570796 -1.570796 0.000000
  5 -25.437990 57.107574 -20.526743 1.570796 -1.570796 0.000000
  6 -12.906847 33.825317 25.571373 1.570796 -1.570796 0.000000
  7 26.355852 59.971519 -5.891698 1.570796 1.570796 0.000000
  8 26.355848 59.971516 7.425364 1.570796 1.570796 0.000000
  9 17.187599 45.757343 -2.073711 1.570796 1.570796 0.000000
  10 -0.000001 -17.187595 -0.000000 1.497418 0.050164 0.920596
  11 -0.000001 9.251828 0.000001 -0.027285 0.257799 -0.332709
  12 3.332967 6.058992 0.446927 -0.083029 0.280968 -0.489774
  13 -0.000000 4.780092 0.000001 1.284319 0.253606 -2.959958
  14 0.000003 10.318100 0.000000 -0.052003 0.004991 -0.751588
  15 -0.000002 10.229105 -0.000002 -0.364037 0.684362 2.131567
  16 0.000000 17.897526 -0.000001 0.242365 -0.224110 0.109268
  17 0.000002 4.707229 -0.000001 -1.649644 0.024035 0.120105
  18 0.351732 18.616579 -1.433143 -0.488408 0.063165 0.470802
  19 0.000000 2.947696 0.000002 0.402052 0.064298 -1.448050
  20 4.245528 21.238695 1.014270 1.350235 -1.968192 0.366772
  21 0.002827 4.780090 -0.021076 -1.880463 -0.127749 -0.177834
  22 -0.000000 10.318096 0.000002 0.071500 1.980197 0.070418
  23 0.000002 10.229101 -0.000002 1.640981 -0.656647 0.611394
  24 0.000000 17.897503 -0.000003 -0.378411 0.254924 0.179305
  25 -0.000001 5.176012 -0.000002 0.349165 0.058344 -0.327910
  26 0.884363 18.918758 0.675447 0.206676 0.399814 0.094824
  27 -0.000001 3.158195 -0.000002 -0.514306 -0.120206 -0.304611
  28 -0.000001 -17.187593 -0.000000 -1.418548 0.022980 1.240258
  29 0.000002 3.905659 -4.525524 -0.432878 -0.582225 -0.285133
  30 -0.000001 13.357014 -0.000001 0.208162 -0.115417 1.024640
  31 -0.000003 18.158882 0.000002 -0.419167 2.003201 -1.080993
  32 0.000001 2.542058 -0.000001 1.558254 0.000018 -0.000000
  33 0.000001 3.135156 -0.000002 -0.086398 0.000000 0.000000
  34 -0.000001 3.905660 4.546790 0.555053 -0.098529 -0.527459
  35 0.000003 13.407266 0.000003 -0.271580 0.100362 0.686148
  36 -0.000002 18.158880 -0.000003 0.746783 -1.970551 -0.833163
  37 0.000000 2.542064 -0.000000 1.558254 -3.141546 0.000000
  38 0.000001 3.135156 0.000001 -0.091756 0.342973 -0.030933
  39 4.301486 1.405969 0.000000 0.040871 -0.223064 -0.126413
  40 -0.000000 7.030432 -0.000002 0.098125 -0.109208 -0.295403
  time 2
  0 14.598085 -11.174925 -20.077055 -0.614033 -0.344766 2.840031
  1 -13.595158 3.881110 -19.847342 0.049747 0.273446 -2.885511
  2 0.907535 -3.182838 55.465324 -1.570796 0.000000 1.570796
  3 -14.703415 41.751247 -22.952051 1.570796 -1.570795 0.000000
  4 23.832596 40.151001 -5.148818 1.570796 -1.570796 0.000000
  5 -33.734154 69.489746 -22.972519 1.570796 -1.570796 0.000000
  6 -14.593151 33.727608 24.745810 1.570796 -1.570796 0.000000
  7 26.355852 59.971519 -5.757265 1.570796 1.570796 0.000000
  8 26.355848 59.971516 7.959146 1.570796 1.570796 0.000000
  9 17.187601 46.500484 -3.389259 1.570796 1.570796 0.000000
  10 -0.000001 -17.187595 -0.000000 1.586148 0.086148 0.849719
  11 0.000001 9.251827 0.000000 0.020013 0.268136 -0.340784
  12 3.332965 6.058994 0.446929 0.008617 0.369744 -0.484617
  13 0.000000 4.780092 0.000001 1.284319 0.253606 -2.959958
  14 -0.000000 10.318098 -0.000000 -0.907633 0.334734 -1.760250
  15 -0.000003 10.229106 -0.000001 -0.408638 0.610078 1.903698
  16 -0.000001 17.897520 -0.000001 0.221646 -0.303256 0.190592
  17 -0.000000 4.707230 -0.000001 -1.649638 0.024061 0.120596
  18 0.592773 18.764397 -1.602545 -0.483068 -0.114834 0.472002
  19 0.000002 2.947695 0.000003 0.402052 0.064298 -1.448050
  20 1.655813 20.864925 -0.739724 -1.543013 -0.192203 -2.869209
  21 0.002826 4.780092 -0.021077 -1.880463 -0.127749 -0.177833
  22 0.000002 10.318101 -0.000001 -0.646239 1.845393 -1.128778
  23 0.000003 10.229102 0.000001 1.285637 -0.447912 0.584987
  24 0.000003 17.897518 -0.000003 -0.444886 0.577619 0.091074
  25 -0.000001 5.176011 0.000001 0.349165 0.058343 -0.327910
  26 1.013116 18.915556 0.390500 -0.113296 0.923665 -0.142153
  27 -0.000002 3.158195 0.000001 -0.513579 -0.120227 -0.304688
  28 -0.000001 -17.187593 -0.000000 -1.419142 0.020923 1.240214
  29 0.000002 3.905659 -4.525524 -0.350195 -0.617039 -0.361850
  30 0.000000 13.357020 -0.000003 0.222337 -0.142116 1.147620
  31 -0.000002 18.158880 -0.000000 -0.247657 2.056988 -1.003678
  32 0.000002 2.542061 0.000000 1.558254 0.000018 0.000000
  33 0.000000 3.135157 0.000001 -0.086398 0.000000 0.000000
  34 -0.000001 3.905659 4.546790 0.629473 -0.117643 -0.544405
  35 0.000002 13.407272 0.000002 -0.277078 0.104915 0.702411
  36 0.000003 18.158884 0.000001 0.897808 -1.974602 -0.973257
  37 0.000001 2.542064 -0.000001 1.558254 -3.141546 -0.000000
  38 0.000001 3.135157 0.000002 -0.091756 0.342973 -0.030933
  39 4.301485 1.405967 0.000000 0.146631 -0.557612 -0.361315
  40 0.000001 7.030430 -0.000001 0.274289 -0.142033 -0.370475
  time 3
  0 14.598085 -11.174925 -20.077055 -0.596524 -0.389343 2.873374
  1 -13.595158 3.881110 -19.847342 -0.040351 0.229653 -2.895073
  2 0.907535 -3.182838 55.465324 -1.570796 0.000000 1.570796
  3 -8.349406 36.517052 -22.329575 1.570796 -1.570795 0.000000
  4 23.185659 41.124081 -2.289864 1.570796 -1.570796 0.000000
  5 -33.734150 68.068039 -27.725973 1.570796 -1.570796 0.000000
  6 -14.593150 36.534767 24.745810 1.570796 -1.570796 0.000000
  7 26.355852 59.971519 -5.559152 1.570796 1.570796 0.000000
  8 26.355846 59.971516 8.474359 1.570796 1.570796 0.000000
  9 17.187599 47.140568 -1.564224 1.570796 1.570796 0.000000
  10 -0.000000 -17.187595 -0.000000 1.584032 0.084946 0.886412
  11 -0.000000 9.251827 0.000001 -0.115071 0.252285 -0.352683
  12 3.332966 6.058994 0.446925 0.046594 0.359408 -0.457626
  13 -0.000001 4.780094 -0.000001 1.284319 0.253606 -2.959958
  14 0.000000 10.318097 -0.000002 -0.792194 0.388234 -1.675180
  15 0.000001 10.229101 0.000001 -0.345393 0.705399 2.205473
  16 -0.000005 17.897516 -0.000004 0.193189 -0.381188 0.276792
  17 -0.000001 4.707227 -0.000001 -1.649638 0.024061 0.120596
  18 0.833811 18.912220 -1.771952 -0.477706 -0.294268 0.472258
  19 -0.000001 2.947697 -0.000001 0.402052 0.064298 -1.448050
  20 -0.933905 20.491150 -2.493722 -0.701416 1.258580 -2.127649
  21 0.002826 4.780094 -0.021078 -1.880463 -0.127749 -0.177834
  22 0.000001 10.318098 -0.000001 -0.875857 1.915636 -1.310400
  23 0.000005 10.229105 0.000003 1.332785 -0.476128 0.593425
  24 0.000003 17.897516 -0.000004 -0.444886 0.577619 0.091074
  25 0.000002 5.176013 0.000001 0.349165 0.058344 -0.327910
  26 1.013116 18.915556 0.390497 -0.113296 0.923665 -0.142153
  27 0.000000 3.158197 0.000001 -0.513579 -0.120227 -0.304688
  28 -0.000000 -17.187593 -0.000000 -1.424715 0.015294 1.240488
  29 0.000001 3.905658 -4.525526 -0.442943 -0.613199 -0.347311
  30 0.000003 13.357016 0.000001 0.222901 -0.143365 1.153191
  31 -0.000001 18.158880 -0.000001 -0.372902 2.074036 -1.112463
  32 0.000001 2.542063 -0.000000 1.558254 0.000018 0.000000
  33 -0.000001 3.135156 -0.000002 -0.086398 0.000000 0.000000
  34 -0.000002 3.905661 4.546790 0.646473 -0.056773 -0.645583
  35 0.000001 13.407271 -0.000000 -0.334302 0.162693 0.886601
  36 0.000002 18.158878 -0.000001 0.754297 -1.935933 -0.913086
  37 0.000000 2.542065 -0.000001 1.558254 -3.141546 0.000000
  38 0.000001 3.135159 -0.000001 -0.091756 0.342973 -0.030933
  39 4.301485 1.405968 0.000001 0.030543 -0.765378 -0.202698
  40 -0.000001 7.030432 -0.000001 0.377443 -0.186804 -0.403076
  time 4
  0 14.598085 -11.174925 -20.077055 -0.581651 -0.435504 2.913034
  1 -13.595158 3.881110 -19.847342 -0.064115 0.234970 -2.927049
  2 0.907535 -3.182838 55.465324 -1.570796 0.000000 1.570796
  3 5.629365 38.657875 -19.881096 1.570796 -1.570795 0.000000
  4 20.517216 43.264851 4.510654 1.570796 -1.570796 0.000000
  5 -33.734150 64.652817 -33.797577 1.570796 -1.570796 0.000000
  6 -14.593150 42.710487 24.745811 1.570796 -1.570796 0.000000
  7 26.355852 59.971519 -5.318587 1.570796 1.570796 0.000000
  8 26.355846 59.971516 8.959192 1.570796 1.570796 0.000000
  9 17.187601 47.619236 -0.695050 1.570796 1.570796 0.000000
  10 -0.000001 -17.187595 -0.000000 1.577466 0.081823 0.996061
  11 0.000001 9.251827 0.000000 0.059388 0.296120 -0.343903
  12 3.332968 6.058991 0.446926 0.063567 0.335816 -0.409261
  13 0.000001 4.780092 -0.000000 1.284319 0.253606 -2.959958
  14 0.000001 10.318100 -0.000001 0.107272 0.702645 -0.248151
  15 0.000000 10.229104 -0.000001 -0.373320 0.672326 2.091558
  16 -0.000002 17.897520 0.000000 0.156259 -0.456670 0.368713
  17 -0.000000 4.707225 -0.000002 -1.649637 0.024061 0.120596
  18 1.074858 19.060047 -1.941351 -0.472039 -0.472270 0.471468
  19 0.000001 2.947696 0.000001 0.402052 0.064298 -1.448050
  20 -3.523610 20.117390 -4.247715 1.291877 0.734545 -0.181791
  21 0.002827 4.780091 -0.021077 -1.880463 -0.127749 -0.177834
  22 -0.000001 10.318101 0.000001 0.994064 1.981537 0.725633
  23 0.000001 10.229101 0.000001 1.541036 -0.599822 0.612813
  24 -0.000005 17.897507 -0.000008 -0.444886 0.577618 0.091074
  25 -0.000000 5.176012 -0.000000 0.349165 0.058344 -0.327910
  26 1.013108 18.915546 0.390495 -0.113296 0.923665 -0.142153
  27 -0.000001 3.158195 -0.000001 -0.513579 -0.120227 -0.304688
  28 -0.000001 -17.187595 -0.000000 -1.440960 0.006917 1.241768
  29 0.000001 3.905660 -4.525526 -0.467226 -0.610529 -0.348169
  30 -0.000001 13.357021 -0.000002 0.224059 -0.145987 1.164852
  31 -0.000001 18.158884 -0.000004 -0.500704 2.095391 -1.223848
  32 -0.000000 2.542067 -0.000001 1.558254 0.000018 0.000000
  33 0.000001 3.135158 0.000002 -0.086398 0.000000 0.000000
  34 -0.000001 3.905661 4.546790 0.674465 -0.022015 -0.698188
  35 -0.000001 13.407277 -0.000002 -0.359785 0.196614 0.981845
  36 0.000000 18.158884 0.000001 0.809907 -1.919296 -0.989930
  37 0.000001 2.542066 -0.000000 1.558254 -3.141546 0.000000
  38 0.000001 3.135157 0.000001 -0.091756 0.342973 -0.030933
  39 4.301485 1.405968 0.000000 -0.343612 -0.823809 0.231627
  40 -0.000000 7.030432 0.000000 0.386402 -0.326448 -0.294823
  time 5
  0 14.598085 -11.174925 -20.077055 -0.589753 -0.437023 2.918953
  1 -13.595158 3.881110 -19.847342 -0.088071 0.239544 -2.959187
  2 0.907535 -3.182838 55.465324 -1.570796 0.000000 1.570796
  3 19.608135 41.391796 -14.735035 1.570796 -1.570795 0.000000
  4 14.735806 45.405617 12.588268 1.570796 -1.570796 0.000000
  5 -33.734146 60.518887 -39.025719 1.570796 -1.570796 0.000000
  6 -14.593149 48.886208 24.745811 1.570796 -1.570796 0.000000
  7 26.355852 59.971519 -5.056796 1.570796 1.570796 0.000000
  8 26.355846 59.971516 9.401837 1.570796 1.570796 0.000000
  9 17.187599 47.919159 -1.021072 1.570796 1.570796 0.000000
  10 -0.000000 -17.187595 -0.000000 1.566093 0.078308 1.175691
  11 0.000000 9.251827 0.000000 0.082750 0.352620 -0.343441
  12 3.332968 6.058993 0.446927 0.068473 0.304923 -0.350709
  13 0.000001 4.780091 0.000000 1.284319 0.253606 -2.959958
  14 0.000001 10.318097 0.000000 0.235032 0.308884 0.858791
  15 -0.000001 10.229103 -0.000000 -0.415537 0.363559 1.287484
  16 0.000003 17.897518 -0.000002 0.110150 -0.528379 0.467175
  17 0.000000 4.707227 -0.000001 -1.649638 0.024061 0.120596
  18 1.048263 19.425690 -2.040921 -0.641924 -0.368430 0.693530
  19 -0.000001 2.947696 -0.000001 0.402052 0.064297 -1.448050
  20 -3.589567 18.982897 -4.495483 0.971666 0.675748 -0.182515
  21 0.002828 4.780091 -0.021077 -1.880463 -0.127749 -0.177834
  22 -0.000000 10.318097 0.000003 0.714983 2.232713 0.875751
  23 0.000001 10.229101 0.000002 1.683954 -0.680222 0.608631
  24 0.000002 17.897499 0.000003 -0.444885 0.577618 0.091074
  25 0.000001 5.176008 -0.000001 0.349165 0.058344 -0.327910
  26 1.013115 18.915539 0.390504 -0.113295 0.923665 -0.142152
  27 0.000000 3.158193 0.000001 -0.513579 -0.120226 -0.304688
  28 -0.000000 -17.187593 -0.000000 -1.473594 -0.003324 1.244886
  29 0.000001 3.905659 -4.525524 -0.399450 -0.610652 -0.378757
  30 0.000002 13.357015 -0.000002 0.227288 -0.153783 1.199189
  31 0.000002 18.158876 -0.000002 -0.504570 2.094315 -1.234782
  32 0.000001 2.542061 -0.000000 1.558254 0.000018 -0.000000
  33 0.000000 3.135157 0.000001 -0.086398 0.000000 0.000000
  34 -0.000002 3.905661 4.546790 0.738361 0.002071 -0.708079
  35 -0.000001 13.407273 0.000000 -0.366169 0.206246 1.007727
  36 -0.000005 18.158886 -0.000004 0.871784 -1.904262 -1.072984
  37 0.000001 2.542064 0.000000 1.558254 -3.141546 -0.000000
  38 0.000001 3.135156 -0.000000 -0.091756 0.342973 -0.030933
  39 4.301486 1.405968 0.000002 -0.538579 -0.782748 0.457809
  40 0.000000 7.030432 -0.000001 0.322328 -0.525432 0.006543
  time 6
  0 14.598085 -11.174925 -20.077055 -0.597874 -0.438499 2.924893
  1 -13.595158 3.881110 -19.847342 -0.072744 0.232117 -2.982011
  2 0.907535 -3.182838 55.465324 -1.570796 0.000000 1.570796
  3 25.962135 42.943298 -6.019785 1.570796 -1.570795 0.000000
  4 4.749932 46.378696 19.278534 1.570796 -1.570796 0.000000
  5 -33.734142 56.941067 -41.248802 1.570796 -1.570796 0.000000
  6 -14.593148 51.693363 24.745811 1.570796 -1.570796 0.000000
  7 26.355852 59.971519 -4.795004 1.570796 1.570796 0.000000
  8 26.355846 59.971516 9.790483 1.570796 1.570796 0.000000
  9 17.187599 48.022984 -1.117621 1.570796 1.570796 0.000000
  10 -0.000000 -17.187595 -0.000000 1.550293 0.076870 1.415353
  11 -0.000000 9.251828 -0.000001 0.018213 0.449275 -0.355798
  12 3.332968 6.058992 0.446928 0.071230 0.272437 -0.293022
  13 -0.000000 4.780092 0.000000 1.284319 0.253606 -2.959958
  14 -0.000000 10.318097 -0.000001 -0.000630 0.394119 1.088889
  15 0.000000 10.229106 0.000001 -0.337613 0.217618 0.907271
  16 0.000000 17.897516 -0.000000 0.054296 -0.594946 0.572863
  17 -0.000002 4.707227 -0.000001 -1.649637 0.024061 0.120596
  18 0.974309 19.646141 -2.082791 -0.773896 -0.230773 0.882339
  19 0.000001 2.947697 0.000000 0.402052 0.064298 -1.448050
  20 -3.619631 18.425537 -4.316401 0.809217 0.672738 -0.192307
  21 0.002826 4.780092 -0.021077 -1.880463 -0.127749 -0.177834
  22 0.000001 10.318100 -0.000001 0.432586 2.290347 0.964685
  23 0.000002 10.229102 -0.000000 1.701628 -0.689745 0.607124
  24 -0.000002 17.897511 -0.000000 -0.444886 0.577619 0.091074
  25 0.000001 5.176013 0.000001 0.349165 0.058344 -0.327910
  26 1.013110 18.915548 0.390503 -0.113295 0.923665 -0.142152
  27 0.000001 3.158195 -0.000001 -0.513579 -0.120227 -0.304688
  28 -0.000000 -17.187593 -0.000000 -1.528346 -0.014386 1.250820
  29 0.000002 3.905661 -4.525524 -0.316017 -0.591072 -0.402840
  30 0.000004 13.357018 -0.000000 0.227263 -0.153719 1.198912
  31 -0.000003 18.158886 0.000004 -0.508469 2.093261 -1.245750
  32 0.000002 2.542066 0.000000 1.558254 0.000018 -0.000000
  33 -0.000000 3.135159 0.000000 -0.086398 0.000000 0.000000
  34 -0.000002 3.905661 4.546790 0.806903 0.044069 -0.714253
  35 -0.000001 13.407278 -0.000001 -0.371178 0.214189 1.028750
  36 0.000002 18.158878 0.000000 0.935883 -1.885969 -1.118810
  37 0.000001 2.542065 0.000000 1.558254 -3.141546 -0.000000
  38 0.000001 3.135156 0.000002 -0.091756 0.342973 -0.030933
  39 4.301485 1.405968 0.000001 -0.411604 -0.681604 0.358928
  40 -0.000000 7.030430 -0.000002 0.163086 -0.667612 0.367379
  time 7
  0 14.598085 -11.174925 -20.077055 -0.530739 -0.424723 2.919311
  1 -13.595158 3.881110 -19.847342 -0.066475 0.147430 -2.946231
  2 0.907535 -3.182838 55.465324 -1.570796 0.000000 1.570796
  3 21.585020 39.928635 6.097893 1.570796 -1.570795 0.000000
  4 -8.429591 45.203655 22.610613 1.570796 -1.570796 0.000000
  5 -19.690247 54.884766 -41.248798 1.570796 -1.570796 0.000000
  6 -17.429472 50.547684 24.745810 1.570796 -1.570796 0.000000
  7 26.355852 59.971519 -4.554439 1.570796 1.570796 0.000000
  8 26.355846 59.971516 10.113321 1.570796 1.570796 0.000000
  9 17.187601 47.628265 0.560731 1.570796 1.570796 0.000000
  10 -0.000001 -17.187595 -0.000000 1.532122 0.079944 1.693968
  11 0.000001 9.251826 -0.000001 -0.121870 0.604749 -0.399008
  12 3.332967 6.058990 0.446928 0.082891 0.243079 -0.247411
  13 -0.000000 4.780091 0.000000 1.284319 0.253606 -2.959958
  14 -0.000002 10.318098 0.000001 -0.399260 0.594561 0.566673
  15 -0.000000 10.229103 -0.000000 -0.428545 0.417851 1.418049
  16 -0.000003 17.897518 -0.000004 0.054295 -0.594946 0.572863
  17 -0.000000 4.707226 -0.000000 -1.649637 0.024061 0.120596
  18 0.974306 19.646143 -2.082794 -0.773896 -0.230773 0.882339
  19 0.000001 2.947696 0.000000 0.402052 0.064298 -1.448050
  20 -3.619632 18.425535 -4.316407 0.809217 0.672738 -0.192308
  21 0.002826 4.780091 -0.021077 -1.880463 -0.127749 -0.177834
  22 0.000001 10.318099 -0.000001 0.570089 2.180158 1.272681
  23 0.000001 10.229102 0.000001 1.628146 -0.649497 0.611969
  24 -0.000006 17.897511 0.000000 -0.444885 0.577619 0.091074
  25 0.000001 5.176011 0.000001 0.349165 0.058343 -0.327910
  26 1.013106 18.915550 0.390502 -0.113295 0.923665 -0.142152
  27 -0.000000 3.158195 0.000000 -0.513579 -0.120227 -0.304688
  28 -0.000001 -17.187595 -0.000000 -1.614650 -0.017418 1.384319
  29 0.000001 3.905659 -4.525523 -0.347138 -0.408585 -0.308240
  30 0.000001 13.357014 -0.000001 0.212158 -0.122186 1.056599
  31 0.000003 18.158878 -0.000003 -0.554498 2.083194 -1.224153
  32 -0.000000 2.542061 0.000000 1.558254 0.000018 -0.000000
  33 0.000000 3.135157 -0.000002 -0.086398 0.000000 0.000000
  34 -0.000001 3.905660 4.546789 0.732911 0.216072 -0.771353
  35 -0.000001 13.407270 -0.000003 -0.381611 0.232003 1.074958
  36 0.000003 18.158876 0.000004 0.666627 -1.842407 -0.838266
  37 -0.000002 2.542064 0.000000 1.558254 -3.141546 0.000000
  38 0.000000 3.135157 0.000001 -0.091756 0.342973 -0.030933
  39 4.301485 1.405968 0.000001 -0.173540 -0.394729 0.199763
  40 0.000001 7.030429 -0.000001 0.025498 -0.695750 0.561020
  time 8
  0 14.598085 -11.174925 -20.077055 -0.464131 -0.410646 2.914785
  1 -13.595158 3.881110 -19.847342 -0.063296 0.062526 -2.911281
  2 0.907535 -3.182838 55.465324 -1.570796 0.000000 1.570796
  3 13.456100 35.401108 17.297979 1.570796 -1.570795 0.000000
  4 -15.383162 44.028622 23.388491 1.570796 -1.570796 0.000000
  5 6.391275 54.077618 -41.248783 1.570796 -1.570796 0.000000
  6 -22.696928 48.419998 24.745811 1.570796 -1.570796 0.000000
  7 26.355852 59.971519 -4.356326 1.570796 1.570796 0.000000
  8 26.355846 59.971516 10.358542 1.570796 1.570796 0.000000
  9 17.187599 46.895206 2.120305 1.570796 1.570796 0.000000
  10 -0.000001 -17.187595 -0.000001 1.515030 0.088191 1.980998
  11 -0.000001 9.251828 0.000001 -0.368980 0.822780 -0.525748
  12 3.332967 6.058993 0.446927 0.115399 0.220962 -0.225182
  13 0.000000 4.780092 -0.000000 1.284319 0.253606 -2.959958
  14 -0.000000 10.318101 -0.000001 -0.511689 0.702665 0.518288
  15 -0.000000 10.229108 0.000002 -0.433778 0.491862 1.596624
  16 -0.000002 17.897526 -0.000001 0.054296 -0.594947 0.572863
  17 -0.000000 4.707229 -0.000001 -1.649637 0.024061 0.120596
  18 0.974306 19.646151 -2.082792 -0.773896 -0.230773 0.882339
  19 0.000002 2.947697 0.000000 0.402052 0.064298 -1.448050
  20 -3.619632 18.425545 -4.316404 0.809218 0.672738 -0.192307
  21 0.002826 4.780092 -0.021077 -1.880463 -0.127749 -0.177833
  22 0.000001 10.318098 0.000001 0.150536 1.797135 0.346309
  23 0.000000 10.229099 0.000001 1.371689 -0.499459 0.599291
  24 -0.000002 17.897505 0.000000 -0.444886 0.577618 0.091074
  25 -0.000000 5.176011 -0.000002 0.349165 0.058344 -0.327910
  26 1.013110 18.915543 0.390503 -0.113296 0.923665 -0.142152
  27 -0.000001 3.158194 0.000000 -0.513579 -0.120226 -0.304688
  28 -0.000001 -17.187595 -0.000000 -1.702028 0.004864 1.625046
  29 0.000002 3.905660 -4.525525 -0.349553 -0.098179 -0.152457
  30 0.000001 13.357018 -0.000002 0.177984 -0.075714 0.821351
  31 0.000003 18.158884 -0.000001 -0.600907 2.072651 -1.203147
  32 0.000001 2.542065 0.000000 1.558254 0.000018 -0.000000
  33 -0.000001 3.135158 0.000001 -0.086398 0.000000 0.000000
  34 -0.000001 3.905659 4.546788 0.544980 0.435434 -0.851969
  35 -0.000000 13.407270 0.000000 -0.377479 0.224727 1.056232
  36 -0.000001 18.158878 0.000000 0.329457 -1.825117 -0.489850
  37 -0.000001 2.542064 0.000000 1.558254 -3.141546 0.000000
  38 0.000000 3.135156 -0.000001 -0.091756 0.342973 -0.030933
  39 4.301485 1.405968 0.000001 0.038402 -0.010425 0.111913
  40 -0.000000 7.030430 -0.000001 0.024133 -0.393794 0.465264
  time 9
  0 14.598085 -11.174925 -20.077055 -0.382877 -0.434982 2.862611
  1 -13.595158 3.881110 -19.847342 -0.016658 0.128980 -2.852784
  2 0.907535 -3.182838 55.465324 -1.570796 0.000000 1.570796
  3 9.078993 33.059258 22.222086 1.570796 -1.570795 0.000000
  4 -8.604990 46.042439 21.113611 1.570796 -1.570796 0.000000
  5 20.435171 53.937855 -41.248783 1.570796 -1.570796 0.000000
  6 -25.533249 47.274323 24.745808 1.570796 -1.570796 0.000000
  7 26.355852 59.971519 -4.221893 1.570796 1.570796 0.000000
  8 26.355846 59.971516 10.514337 1.570796 1.570796 0.000000
  9 17.187599 46.500484 2.807605 1.570796 1.570796 0.000000
  10 -0.000001 -17.187595 -0.000000 1.596094 0.093332 1.752066
  11 0.000001 9.251827 0.000001 -0.605609 1.064147 -0.725211
  12 3.332967 6.058991 0.446929 0.220128 0.212923 -0.329815
  13 0.000000 4.780091 0.000001 1.284319 0.253606 -2.959958
  14 -0.000001 10.318099 -0.000000 0.028621 0.518088 1.380165
  15 -0.000001 10.229103 0.000004 -0.384152 0.288412 1.100374
  16 -0.000003 17.897507 -0.000006 0.175829 -0.419316 0.321984
  17 -0.000002 4.707227 -0.000001 -1.649638 0.024061 0.120596
  18 0.663016 19.131346 -1.757972 -0.614925 -0.098409 0.664612
  19 -0.000001 2.947697 -0.000001 0.402052 0.064298 -1.448050
  20 0.312944 19.832098 -1.651071 -1.427964 0.500529 -2.426242
  21 0.002826 4.780091 -0.021077 -1.880463 -0.127749 -0.177833
  22 0.000001 10.318097 -0.000001 -0.579357 2.461772 -0.558989
  23 0.000000 10.229098 0.000002 1.443251 -0.542254 0.607421
  24 -0.000007 17.897503 0.000002 -0.378410 0.254924 0.179305
  25 -0.000002 5.176011 -0.000000 0.349165 0.058344 -0.327910
  26 0.884355 18.918758 0.675453 0.206676 0.399814 0.094824
  27 0.000001 3.158194 -0.000001 -0.513579 -0.120227 -0.304688
  28 -0.000001 -17.187595 -0.000000 -1.738869 0.024451 1.752023
  29 0.000003 3.905660 -4.525523 -0.315866 0.067762 -0.054054
  30 0.000001 13.357013 0.000001 0.150185 -0.050164 0.667046
  31 0.000004 18.158878 -0.000001 -0.610929 2.117679 -1.145614
  32 -0.000001 2.542063 0.000000 1.558254 0.000018 -0.000000
  33 -0.000001 3.135155 0.000004 -0.086398 0.000000 0.000000
  34 -0.000002 3.905660 4.546788 0.435156 0.534634 -0.898940
  35 -0.000000 13.407275 -0.000001 -0.371449 0.214630 1.029908
  36 -0.000000 18.158882 0.000001 0.481853 -1.906868 -0.606129
  37 -0.000001 2.542063 -0.000000 1.558254 -3.141546 0.000000
  38 0.000002 3.135157 0.000001 -0.091756 0.342973 -0.030933
  39 4.301485 1.405968 0.000001 0.192333 0.307237 0.099495
  40 0.000000 7.030432 -0.000001 0.013130 0.169045 0.289914
  time 10
  0 14.598085 -11.174925 -20.077055 -0.538340 -0.428084 2.864981
  1 -13.595158 3.881110 -19.847342 0.023172 0.195883 -2.871186
  2 0.907535 -3.182838 55.465324 -1.570796 0.000000 1.570796
  3 22.498846 39.063255 11.335796 1.570796 -1.570795 0.000000
  4 -1.826819 48.056255 18.838732 1.570796 -1.570796 0.000000
  5 20.435171 58.614338 -41.248783 1.570796 -1.570796 0.000000
  6 -25.533249 51.425797 24.745808 1.570796 -1.570796 0.000000
  7 26.355852 59.971519 -4.172364 1.570796 1.570796 0.000000
  8 26.355846 59.971516 10.568892 1.570796 1.570796 0.000000
  9 17.187601 47.551167 0.717392 1.570796 1.570796 0.000000
  10 -0.000000 -17.187595 -0.000000 1.674190 0.116267 1.525229
  11 0.000003 9.251825 0.000001 -0.079819 0.642981 -0.307142
  12 3.332967 6.058993 0.446928 0.300939 0.221949 -0.437469
  13 -0.000001 4.780092 0.000000 1.284319 0.253606 -2.959958
  14 -0.000002 10.318098 0.000003 0.021372 0.003964 1.718227
  15 0.000001 10.229107 0.000000 -0.224806 0.117317 0.558833
  16 0.000001 17.897520 0.000001 0.242366 -0.224109 0.109268
  17 -0.000000 4.707226 -0.000002 -1.649637 0.024061 0.120596
  18 0.351735 18.616571 -1.433139 -0.488407 0.063165 0.470802
  19 -0.000000 2.947696 -0.000001 0.402052 0.064298 -1.448050
  20 4.245531 21.238689 1.014274 1.350236 -1.968192 0.366772
  21 0.002826 4.780091 -0.021077 -1.880463 -0.127749 -0.177834
  22 0.000001 10.318097 -0.000002 0.079460 2.572265 0.457076
  23 -0.000001 10.229098 -0.000000 1.583891 -0.624493 0.613064
  24 -0.000010 17.897511 -0.000001 -0.342122 -0.071393 0.243666
  25 -0.000001 5.176013 -0.000000 0.349165 0.058343 -0.327910
  26 0.755604 18.921984 0.960400 0.381247 -0.147234 0.149822
  27 0.000001 3.158196 -0.000001 -0.513579 -0.120226 -0.304688
  28 -0.000001 -17.187595 -0.000000 -1.738869 0.024451 1.752023
  29 0.000003 3.905660 -4.525524 -0.282888 -0.002530 -0.187808
  30 -0.000000 13.357017 -0.000001 0.194980 -0.096002 0.929176
  31 0.000003 18.158876 -0.000002 -0.453343 2.110701 -1.141976
  32 -0.000000 2.542063 0.000001 1.558254 0.000018 -0.000000
  33 0.000001 3.135157 -0.000003 -0.086398 0.000000 0.000000
  34 -0.000002 3.905660 4.546788 0.528109 0.561712 -0.911685
  35 -0.000001 13.407276 -0.000003 -0.376932 0.223785 1.053792
  36 -0.000001 18.158888 -0.000000 0.705489 -1.929948 -0.798377
  37 -0.000000 2.542061 -0.000001 1.558254 -3.141546 0.000000
  38 0.000001 3.135156 0.000001 -0.091756 0.342973 -0.030933
  39 4.301485 1.405967 0.000001 0.256681 0.432258 0.108936
  40 0.000000 7.030431 -0.000000 -0.027407 0.452762 0.188188
end
