version 1
nodes
0 "ShinIK.R" -1
1 "ShinIK.L" -1
2 "All.000" -1
3 "ForearmIK.R" 2
4 "ForearmIK.L" 2
5 "UpperarmIK.R" 2
6 "UpperarmIK.L" 2
7 "KneeIK.R" 2
8 "KneeIK.L" 2
9 "Spine.009" 2
10 "Spine.001" 9
11 "Spine.002" 10
12 "Spine.004" 11
13 "Arm.R.001" 11
14 "Arm.R.002" 13
15 "Arm.R.003" 14
16 "Arm.R.004" 15
17 "Arm.R.005" 16
18 "Arm.R.006" 15
19 "Arm.R.007" 18
20 "Wep.000" 15
21 "Arm.L.001" 11
22 "Arm.L.002" 21
23 "Arm.L.003" 22
24 "Arm.L.004" 23
25 "Arm.L.005" 24
26 "Arm.L.006" 23
27 "Arm.L.007" 26
28 "Spine.000" 9
29 "Leg.R.001" 28
30 "Leg.R.002" 29
31 "Leg.R.003" 30
32 "Leg.R.004" 31
33 "Leg.R.005" 32
34 "Leg.L.001" 28
35 "Leg.L.002" 34
36 "Leg.L.003" 35
37 "Leg.L.004" 36
38 "Leg.L.005" 37
39 "Loincloth.000" 28
40 "Loincloth.001" 39
end
skeleton
  time 0
  0 7.308451 -13.033535 -20.050692 -0.624197 -0.044693 2.942474
  1 -6.294398 6.548642 -19.847342 0.058371 -0.122785 3.064943
  2 0.907535 -3.182838 55.465324 -1.570796 0.000000 1.570796
  3 11.441909 53.496216 -21.711012 1.570796 -1.570795 0.000000
  4 19.769197 45.242977 12.433630 1.570796 -1.570796 0.000000
  5 -20.254622 39.304863 -7.664778 1.570796 -1.570796 0.000000
  6 -6.193499 36.104450 17.377916 1.570796 -1.570796 0.000000
  7 34.718716 61.494873 -6.259561 1.570796 1.570796 0.000000
  8 26.355846 59.971516 10.272462 1.570796 1.570796 0.000000
  9 17.178167 45.688435 -0.815652 1.570796 1.570796 0.000000
  10 -0.000000 -17.187595 -0.000000 1.341199 0.250631 0.845105
  11 0.000001 9.251827 -0.000001 -0.159336 0.834633 -0.256092
  12 3.332968 6.058992 0.446929 0.017573 -0.094963 -0.320244
  13 0.000001 4.780092 0.000000 1.284319 0.253606 -2.959958
  14 0.000001 10.318099 -0.000000 -0.598555 0.174304 -0.312015
  15 -0.000000 10.229102 -0.000000 -0.396709 0.314030 1.165530
  16 -0.000007 17.897512 0.000002 0.359816 -0.477812 0.070606
  17 0.000000 4.707229 0.000002 -1.636134 0.014441 -0.067157
  18 0.724880 18.845409 -1.695385 -0.480149 -0.213183 0.472263
  19 -0.000002 2.947695 -0.000001 0.402052 0.064298 -1.448050
  20 3.731110 20.991472 1.840620 1.290261 -2.255203 0.420902
  21 0.002827 4.780092 -0.021077 -1.880463 -0.127749 -0.177834
  22 0.000000 10.318100 -0.000002 -0.539688 2.053226 -0.802601
  23 0.000001 10.229098 -0.000000 1.370821 -0.498939 0.599171
  24 0.000001 17.897505 -0.000003 -0.342122 -0.071393 0.243665
  25 -0.000001 5.176009 -0.000000 0.349165 0.058343 -0.327910
  26 0.755614 18.921978 0.960398 0.381247 -0.147234 0.149822
  27 0.000000 3.158195 0.000001 -0.793554 -0.111997 -0.280346
  28 -0.000000 -17.187593 -0.000000 -1.564965 -0.005263 1.310726
  29 0.000001 3.905661 -4.525523 -0.124725 -0.293776 -0.275463
  30 0.000003 13.357013 0.000000 0.207252 -0.113942 1.017596
  31 -0.000001 18.158886 -0.000005 0.248035 1.789451 -0.471070
  32 0.000001 2.542059 -0.000001 1.558254 0.000018 -0.000000
  33 -0.000001 3.135157 0.000001 -0.086398 0.000000 0.000000
  34 -0.000001 3.905660 4.546790 0.651957 -0.203612 -0.912165
  35 -0.000004 13.407276 0.000000 -0.352363 0.186041 0.952892
  36 0.000003 18.158886 -0.000003 0.897784 -1.459183 -0.939631
  37 -0.000000 2.542064 0.000001 1.558254 -3.141546 -0.000000
  38 -0.000000 3.135157 -0.000000 -0.091756 0.342973 -0.030933
  39 4.301485 1.405968 0.000001 0.000000 0.000000 0.063895
  40 0.000000 7.030431 -0.000000 0.000000 -0.000000 -0.151285
  time 1
  0 7.378516 -13.015839 -20.006662 -0.617545 -0.039000 2.925579
  1 -6.626251 6.349306 -19.847342 0.016884 -0.109341 3.085064
  2 0.907535 -3.182838 55.465324 -1.570796 0.000000 1.570796
  3 10.923690 43.761757 -28.381495 1.570796 -1.570795 0.000000
  4 21.001245 42.659966 3.713165 1.570796 -1.570796 0.000000
  5 -20.054338 38.331299 -7.296728 1.570796 -1.570796 0.000000
  6 -5.356844 35.906368 18.072739 1.570796 -1.570796 0.000000
  7 34.641605 61.353928 -6.203962 1.570796 1.570796 0.000000
  8 26.355846 59.971516 10.272462 1.570796 1.570796 0.000000
  9 17.173452 45.683655 -0.844397 1.570796 1.570796 0.000000
  10 -0.000000 -17.187595 -0.000001 1.338939 0.235437 0.812494
  11 0.000001 9.251826 0.000000 -0.085381 0.466667 -0.314843
  12 3.332968 6.058993 0.446928 0.006365 0.019694 -0.351927
  13 -0.000001 4.780093 0.000001 1.284319 0.253606 -2.959958
  14 0.000003 10.318097 0.000000 -0.129093 0.498371 0.302246
  15 0.000002 10.229105 0.000003 -0.373563 0.269559 1.051121
  16 -0.000002 17.897505 -0.000002 0.354162 -0.466820 0.073088
  17 -0.000000 4.707223 -0.000001 -1.637917 0.014929 -0.055661
  18 0.708657 18.835451 -1.683990 -0.480509 -0.201098 0.472246
  19 0.000001 2.947695 0.000001 0.402052 0.064298 -1.448050
  20 3.731117 20.991461 1.840614 1.290261 -2.255202 0.420902
  21 0.002826 4.780093 -0.021076 -1.880463 -0.127748 -0.177834
  22 0.000001 10.318096 0.000003 -0.482623 1.735505 -0.626207
  23 0.000001 10.229101 0.000001 1.684802 -0.680682 0.608564
  24 -0.000000 17.897512 -0.000002 -0.342122 -0.071393 0.243665
  25 0.000000 5.176012 0.000001 0.349165 0.058343 -0.327910
  26 0.755613 18.921986 0.960398 0.381247 -0.147234 0.149822
  27 0.000000 3.158196 0.000001 -0.776358 -0.112465 -0.281527
  28 -0.000001 -17.187593 -0.000000 -1.566756 -0.004796 1.290326
  29 0.000001 3.905659 -4.525525 -0.116445 -0.315886 -0.286981
  30 0.000003 13.357016 -0.000000 0.208254 -0.115568 1.025362
  31 0.000003 18.158878 0.000003 0.291456 1.803207 -0.420423
  32 -0.000001 2.542066 -0.000000 1.558254 0.000018 0.000000
  33 0.000000 3.135158 -0.000000 -0.038417 0.006111 -0.003186
  34 -0.000002 3.905661 4.546790 0.675852 -0.200124 -0.903881
  35 -0.000003 13.407273 0.000000 -0.353394 0.187472 0.956847
  36 0.000006 18.158886 -0.000004 0.928582 -1.482238 -1.009933
  37 -0.000000 2.542060 -0.000000 1.558254 -3.141546 0.000000
  38 0.000000 3.135157 0.000001 -0.091756 0.342973 -0.030933
  39 4.301486 1.405969 0.000002 0.040782 -0.000404 0.080335
  40 -0.000001 7.030430 -0.000001 0.077709 -0.000134 -0.146778
  time 2
  0 7.415071 -13.013310 -19.937075 -0.571762 -0.012945 2.915196
  1 -6.958103 6.149970 -19.847342 0.032219 -0.093925 3.101996
  2 0.907535 -3.182838 55.465324 -1.570796 0.000000 1.570796
  3 7.296119 34.484409 -35.051975 1.570796 -1.570795 0.000000
  4 21.565466 41.477062 -0.280411 1.570796 -1.570796 0.000000
  5 -18.652348 31.516367 -4.720379 1.570796 -1.570796 0.000000
  6 -4.269194 35.713058 18.976009 1.570796 -1.570796 0.000000
  7 34.562290 61.219048 -6.150757 1.570796 1.570796 0.000000
  8 26.355846 59.971516 10.272462 1.570796 1.570796 0.000000
  9 17.159306 45.669319 -0.930630 1.570796 1.570796 0.000000
  10 -0.000000 -17.187595 -0.000001 1.337196 0.220172 0.780017
  11 0.000001 9.251827 -0.000001 -0.047950 0.299917 -0.348040
  12 3.332967 6.058992 0.446929 -0.008781 0.135182 -0.385559
  13 -0.000002 4.780093 0.000001 1.284319 0.253606 -2.959958
  14 -0.000002 10.318099 -0.000001 0.422768 0.052800 0.929910
  15 0.000001 10.229104 -0.000003 -0.120206 0.070259 0.289231
  16 0.000002 17.897514 0.000002 0.348568 -0.455816 0.075487
  17 0.000000 4.707226 -0.000002 -1.639540 0.015443 -0.044163
  18 0.692438 18.825510 -1.672584 -0.480869 -0.189013 0.472225
  19 0.000002 2.947696 0.000001 0.402052 0.064298 -1.448050
  20 3.731120 20.991470 1.840621 1.290260 -2.255202 0.420902
  21 0.002826 4.780091 -0.021077 -1.880463 -0.127749 -0.177833
  22 -0.000000 10.318099 -0.000001 -1.337059 1.715563 -1.460567
  23 -0.000002 10.229102 -0.000002 1.715857 -0.697336 0.605754
  24 -0.000000 17.897514 0.000003 -0.342122 -0.071393 0.243665
  25 -0.000001 5.176011 0.000001 0.349165 0.058344 -0.327910
  26 0.755612 18.921991 0.960404 0.381247 -0.147234 0.149822
  27 -0.000000 3.158196 -0.000001 -0.759160 -0.112952 -0.282757
  28 -0.000000 -17.187595 -0.000000 -1.571309 -0.004935 1.245355
  29 0.000001 3.905660 -4.525523 -0.092942 -0.359895 -0.308740
  30 0.000001 13.357018 -0.000002 0.209839 -0.118199 1.037849
  31 0.000003 18.158890 -0.000002 0.363199 1.805990 -0.299895
  32 -0.000000 2.542060 -0.000001 1.558254 0.000018 -0.000000
  33 -0.000000 3.135158 -0.000001 0.076714 0.021349 -0.009614
  34 -0.000000 3.905659 4.546788 0.725302 -0.210770 -0.896176
  35 -0.000004 13.407274 -0.000001 -0.354556 0.189100 0.961332
  36 0.000009 18.158882 -0.000005 1.008601 -1.504555 -1.073087
  37 0.000000 2.542060 0.000000 1.558254 -3.141546 -0.000000
  38 -0.000000 3.135157 -0.000002 -0.091756 0.342973 -0.030933
  39 4.301484 1.405968 -0.000000 0.061714 -0.001305 0.088292
  40 -0.000001 7.030431 -0.000002 0.133275 -0.000104 -0.144751
  time 3
  0 7.395752 -13.222879 -19.852808 -0.444901 0.028203 2.915607
  1 -7.289956 5.950634 -19.847342 0.053797 -0.078636 3.118981
  2 0.907535 -3.182838 55.465324 -1.570796 0.000000 1.570796
  3 4.877739 35.411728 -33.934151 1.570796 -1.570795 0.000000
  4 21.688223 41.219696 -1.149293 1.570796 -1.570796 0.000000
  5 -19.183706 31.436892 -5.202579 1.570796 -1.570796 0.000000
  6 -3.181543 35.547066 19.879278 1.570796 -1.570796 0.000000
  7 34.480740 61.090355 -6.099991 1.570796 1.570796 0.000000
  8 26.355846 59.971516 10.272462 1.570796 1.570796 0.000000
  9 17.135727 45.645428 -1.074354 1.570796 1.570796 0.000000
  10 -0.000000 -17.187595 -0.000000 1.335966 0.204862 0.747679
  11 0.000000 9.251826 0.000000 -0.039405 0.264216 -0.355799
  12 3.332967 6.058992 0.446928 -0.028341 0.250495 -0.421894
  13 0.000000 4.780091 0.000000 1.284319 0.253606 -2.959958
  14 0.000002 10.318098 0.000001 0.428461 0.160989 0.742558
  15 0.000002 10.229101 0.000000 -0.252634 0.136113 0.636652
  16 0.000004 17.897514 -0.000002 0.343035 -0.444801 0.077805
  17 0.000002 4.707226 0.000001 -1.641010 0.015975 -0.032707
  18 0.676216 18.815559 -1.661185 -0.481228 -0.176929 0.472200
  19 0.000001 2.947695 0.000002 0.402052 0.064298 -1.448050
  20 1.282793 21.041485 0.249038 1.495583 -2.883263 0.191482
  21 0.002826 4.780093 -0.021076 -1.880463 -0.127749 -0.177834
  22 0.000002 10.318098 0.000000 1.564464 1.273729 1.591533
  23 0.000000 10.229098 -0.000003 1.733445 -0.706619 0.603869
  24 -0.000000 17.897501 0.000004 -0.342122 -0.071393 0.243665
  25 -0.000002 5.176010 0.000000 0.349165 0.058344 -0.327910
  26 0.755611 18.921974 0.960404 0.381247 -0.147234 0.149822
  27 -0.000001 3.158195 0.000002 -0.742028 -0.113451 -0.284027
  28 -0.000001 -17.187593 -0.000000 -1.577629 -0.005795 1.200305
  29 0.000001 3.905658 -4.525524 -0.064928 -0.401652 -0.319511
  30 0.000001 13.357013 -0.000001 0.210434 -0.119206 1.042605
  31 -0.000001 18.158882 0.000002 0.408758 1.800025 -0.122747
  32 -0.000000 2.542065 0.000000 1.558254 0.000018 0.000000
  33 -0.000001 3.135159 -0.000001 0.214617 0.040430 -0.014951
  34 -0.000001 3.905658 4.546788 0.777031 -0.222289 -0.886572
  35 0.000001 13.407267 -0.000003 -0.354754 0.189379 0.962096
  36 -0.000005 18.158876 0.000004 1.160967 -1.526250 -1.202587
  37 0.000000 2.542060 -0.000000 1.558254 -3.141546 0.000000
  38 -0.000000 3.135157 -0.000002 -0.091756 0.342973 -0.030933
  39 4.301485 1.405968 0.000000 0.069419 -0.002815 0.091295
  40 -0.000001 7.030430 -0.000000 0.170462 0.000511 -0.144160
  time 4
  0 7.359872 -13.612080 -19.433371 -0.293311 0.067455 2.930480
  1 -7.621809 5.751297 -19.847342 0.062384 -0.063714 3.136758
  2 0.907535 -3.182838 55.465324 -1.570796 0.000000 1.570796
  3 -2.377402 38.193687 -30.580667 1.570796 -1.570795 0.000000
  4 21.595879 41.413296 -0.495677 1.570796 -1.570796 0.000000
  5 -22.903210 30.880571 -8.577989 1.570796 -1.570796 0.000000
  6 -2.344886 35.430935 20.574104 1.570796 -1.570796 0.000000
  7 34.396927 60.967972 -6.051716 1.570796 1.570796 0.000000
  8 26.355846 59.971516 10.272462 1.570796 1.570796 0.000000
  9 17.102716 45.611973 -1.275565 1.570796 1.570796 0.000000
  10 0.000000 -17.187595 -0.000001 1.335244 0.189532 0.715484
  11 0.000000 9.251827 0.000001 -0.045847 0.291048 -0.349944
  12 3.332967 6.058992 0.446929 -0.052989 0.364574 -0.461826
  13 0.000000 4.780091 -0.000000 1.284319 0.253606 -2.959958
  14 0.000002 10.318101 0.000001 0.332818 0.246054 0.083280
  15 -0.000001 10.229104 0.000001 -0.403586 0.330115 1.205615
  16 -0.000007 17.897520 -0.000001 0.337559 -0.433777 0.080044
  17 -0.000001 4.707227 0.000001 -1.642334 0.016521 -0.021339
  18 0.659980 18.805614 -1.649782 -0.481586 -0.164847 0.472170
  19 0.000000 2.947696 0.000001 0.402052 0.064298 -1.448050
  20 -3.267723 20.904936 -2.875849 1.329037 1.692987 -0.259633
  21 0.002825 4.780093 -0.021077 -1.880463 -0.127749 -0.177834
  22 0.000004 10.318096 -0.000001 1.577503 1.237456 1.737643
  23 -0.000005 10.229101 -0.000002 1.766640 -0.723832 0.599738
  24 0.000000 17.897501 0.000005 -0.342122 -0.071393 0.243665
  25 -0.000001 5.176009 0.000000 0.349165 0.058344 -0.327910
  26 0.755613 18.921974 0.960406 0.381247 -0.147234 0.149822
  27 0.000001 3.158194 0.000000 -0.725029 -0.113956 -0.285332
  28 -0.000000 -17.187595 -0.000000 -1.584740 -0.007155 1.179832
  29 0.000001 3.905660 -4.525522 -0.041485 -0.421533 -0.330967
  30 -0.000002 13.357022 -0.000000 0.214232 -0.125903 1.073902
  31 -0.000002 18.158886 -0.000006 0.434035 1.786685 0.057835
  32 0.000001 2.542064 -0.000000 1.558254 0.000018 -0.000000
  33 -0.000001 3.135157 0.000003 0.329719 0.056791 -0.017361
  34 -0.000000 3.905661 4.546788 0.807959 -0.219887 -0.872521
  35 0.000001 13.407273 -0.000003 -0.353248 0.187269 0.956285
  36 -0.000002 18.158880 0.000003 1.555179 -1.545561 -1.587163
  37 0.000000 2.542062 -0.000000 1.558254 -3.141546 0.000000
  38 0.000000 3.135157 0.000001 -0.091756 0.342973 -0.030933
  39 4.301485 1.405968 0.000001 0.070495 -0.005439 0.092864
  40 0.000000 7.030431 -0.000000 0.193057 0.001949 -0.143970
  time 5
  0 7.340551 -13.821649 -18.275423 -0.220480 0.083879 2.940773
  1 -7.953661 5.551962 -19.847342 0.048049 -0.048756 -3.127901
  2 0.907535 -3.182838 55.465324 -1.570796 0.000000 1.570796
  3 -14.469300 42.830288 -24.991535 1.570796 -1.570795 0.000000
  4 21.514795 41.583294 0.078237 1.570796 -1.570796 0.000000
  5 -32.999004 29.370558 -17.739807 1.570796 -1.570796 0.000000
  6 -2.010226 35.387215 20.852034 1.570796 -1.570796 0.000000
  7 34.310818 60.852036 -6.005982 1.570796 1.570796 0.000000
  8 26.355846 59.971516 10.272462 1.570796 1.570796 0.000000
  9 17.060272 45.568966 -1.534266 1.570796 1.570796 0.000000
  10 0.000000 -17.187595 -0.000001 1.335026 0.174210 0.683436
  11 0.000000 9.251829 0.000001 -0.051433 0.314725 -0.344894
  12 3.332967 6.058992 0.446929 -0.083642 0.476332 -0.506464
  13 -0.000001 4.780092 0.000001 1.284319 0.253606 -2.959958
  14 0.000001 10.318100 -0.000003 0.362101 -0.266565 -0.445760
  15 -0.000001 10.229107 -0.000000 -0.411347 0.350815 1.256484
  16 -0.000005 17.897514 0.000004 0.332139 -0.422745 0.082204
  17 -0.000001 4.707230 0.000001 -1.643519 0.017076 -0.010101
  18 0.643760 18.795664 -1.638372 -0.481944 -0.152768 0.472136
  19 -0.000000 2.947695 0.000001 0.402052 0.064298 -1.448050
  20 -5.728670 20.151909 -5.059277 1.620792 0.989054 0.093209
  21 0.002826 4.780091 -0.021077 -1.880463 -0.127748 -0.177834
  22 0.000002 10.318098 0.000000 -1.523067 1.877056 -1.268423
  23 -0.000001 10.229097 0.000002 1.796540 -0.738978 0.595383
  24 -0.000003 17.897509 0.000003 -0.342122 -0.071393 0.243665
  25 0.000000 5.176011 0.000001 0.349165 0.058344 -0.327910
  26 0.755608 18.921984 0.960404 0.381247 -0.147234 0.149822
  27 -0.000001 3.158195 0.000001 -0.708228 -0.114463 -0.286662
  28 -0.000000 -17.187593 -0.000000 -1.591918 -0.008143 1.227656
  29 0.000001 3.905660 -4.525524 -0.032930 -0.380239 -0.366144
  30 0.000001 13.357015 -0.000001 0.225240 -0.148752 1.177085
  31 -0.000002 18.158878 -0.000003 0.445195 1.779344 0.142956
  32 0.000000 2.542064 0.000001 1.558254 0.000018 0.000000
  33 -0.000000 3.135156 0.000002 0.377683 0.063668 -0.017807
  34 -0.000001 3.905660 4.546788 0.779928 -0.173858 -0.851267
  35 -0.000001 13.407269 -0.000002 -0.349050 0.181519 0.940320
  36 0.000001 18.158880 -0.000002 -0.509230 -1.590511 0.463730
  37 -0.000000 2.542064 0.000000 1.558254 -3.141546 0.000000
  38 0.000000 3.135158 -0.000000 -0.091756 0.342973 -0.030933
  39 4.301485 1.405969 0.000001 0.055368 -0.011221 0.095838
  40 -0.000001 7.030432 -0.000001 0.204798 0.004360 -0.143164
  time 6
  0 7.966988 -12.687897 -15.696035 -0.222137 0.072952 2.941703
  1 -8.300020 3.431962 -19.847342 -0.083379 -0.028922 -3.106079
  2 0.907535 -3.182838 55.465324 -1.570796 0.000000 1.570796
  3 3.405200 40.228352 -22.227764 1.570796 -1.570795 0.000000
  4 17.003603 41.590469 2.679402 1.570796 -1.570796 0.000000
  5 -25.780266 54.316223 -22.474525 1.570796 -1.570796 0.000000
  6 -4.138275 37.212612 15.066814 1.570796 -1.570796 0.000000
  7 34.222378 60.742661 -5.962839 1.570796 1.570796 0.000000
  8 26.355846 59.971516 10.272462 1.570796 1.570796 0.000000
  9 18.541994 44.993984 -1.385771 1.570796 1.570796 0.000000
  10 -0.000000 -17.187595 -0.000001 1.374890 0.176767 0.939150
  11 -0.000001 9.251828 0.000001 -0.160992 0.475456 -0.372064
  12 3.332967 6.058994 0.446928 0.002767 0.300351 -0.463917
  13 -0.000001 4.780093 -0.000000 1.284319 0.253606 -2.959958
  14 -0.000002 10.318099 -0.000001 -0.292081 0.122766 -1.091164
  15 -0.000000 10.229105 0.000004 -0.386062 0.653538 2.031842
  16 -0.000003 17.897526 0.000003 0.266214 -0.373434 0.245872
  17 0.000001 4.707231 0.000000 -1.644571 0.017635 0.000962
  18 0.586268 19.088846 -1.690962 -0.520711 -0.097155 0.617402
  19 0.000000 2.947697 0.000002 0.402052 0.064298 -1.448050
  20 -5.733702 19.100357 -5.407540 1.446363 0.964852 0.136490
  21 0.002826 4.780093 -0.021078 -1.880463 -0.127749 -0.177834
  22 0.000002 10.318098 0.000001 0.954330 2.166389 0.602111
  23 -0.000000 10.229104 0.000000 1.915740 -0.795731 0.572255
  24 -0.000001 17.897512 -0.000004 -0.342122 -0.071393 0.243665
  25 -0.000000 5.176013 -0.000001 0.349165 0.058344 -0.327910
  26 0.755612 18.921988 0.960396 0.381247 -0.147234 0.149822
  27 -0.000000 3.158196 -0.000001 -0.691694 -0.114966 -0.288008
  28 -0.000001 -17.187593 -0.000000 -1.598445 -0.007894 1.347693
  29 0.000001 3.905661 -4.525525 -0.099440 -0.297575 -0.387845
  30 -0.000000 13.357020 -0.000002 0.237129 -0.184513 1.330826
  31 0.000005 18.158876 0.000003 0.396632 1.776400 0.091565
  32 0.000000 2.542062 0.000000 1.558254 0.000018 0.000000
  33 -0.000000 3.135158 -0.000002 0.257751 0.046528 -0.016075
  34 -0.000001 3.905661 4.546789 0.685186 -0.104622 -0.727930
  35 -0.000002 13.407270 -0.000003 -0.352556 0.186309 0.953633
  36 -0.000000 18.158880 -0.000002 0.148435 -1.610648 -0.324795
  37 -0.000001 2.542062 0.000000 1.558254 -3.141546 -0.000000
  38 -0.000000 3.135158 0.000001 -0.091756 0.342973 -0.030933
  39 4.301485 1.405969 0.000000 0.016363 -0.020957 0.100511
  40 -0.000000 7.030431 0.000000 0.209379 0.007882 -0.140737
  time 7
  0 9.130368 -9.122602 -12.646526 -0.224675 0.045902 2.943123
  1 -8.648668 -0.622727 -19.847342 -0.283215 -0.004922 -3.083241
  2 0.907535 -3.182838 55.465324 -1.570796 0.000000 1.570796
  3 21.279701 37.626408 -19.463993 1.570796 -1.570795 0.000000
  4 9.424818 41.640701 8.570961 1.570796 -1.570796 0.000000
  5 -22.551395 51.612057 -22.992424 1.570796 -1.570796 0.000000
  6 -9.385766 40.602627 4.322840 1.570796 -1.570796 0.000000
  7 34.131584 60.639984 -5.922336 1.570796 1.570796 0.000000
  8 26.355846 59.971516 10.272462 1.570796 1.570796 0.000000
  9 21.293766 44.001255 -1.064808 1.570796 1.570796 0.000000
  10 -0.000000 -17.187595 -0.000000 1.448757 0.177149 1.438933
  11 -0.000000 9.251828 0.000000 -0.421537 0.765464 -0.494797
  12 3.332966 6.058992 0.446928 0.079790 0.118284 -0.437965
  13 0.000000 4.780091 -0.000000 1.284319 0.253606 -2.959958
  14 0.000000 10.318099 -0.000000 -0.476401 0.354390 -1.326067
  15 -0.000001 10.229103 -0.000001 -0.415836 0.591340 1.851768
  16 -0.000004 17.897514 -0.000002 0.180612 -0.292918 0.526123
  17 -0.000002 4.707228 -0.000000 -1.645498 0.018194 0.011807
  18 0.478139 19.626690 -1.806366 -0.569103 0.012865 0.869906
  19 -0.000001 2.947695 0.000000 0.402052 0.064298 -1.448050
  20 -5.607873 18.324339 -5.011322 1.324301 1.035296 0.193989
  21 0.002826 4.780092 -0.021078 -1.880463 -0.127749 -0.177834
  22 0.000001 10.318097 0.000000 0.690395 2.674436 0.550616
  23 0.000001 10.229102 0.000002 2.121207 -0.878953 0.512595
  24 0.000002 17.897509 -0.000000 -0.342122 -0.071393 0.243665
  25 0.000000 5.176012 -0.000001 0.349165 0.058344 -0.327910
  26 0.755615 18.921982 0.960400 0.381247 -0.147234 0.149822
  27 0.000000 3.158196 -0.000001 -0.675493 -0.115461 -0.289363
  28 -0.000001 -17.187595 -0.000000 -1.603202 -0.006475 1.504254
  29 0.000001 3.905659 -4.525525 -0.211640 -0.215789 -0.443863
  30 -0.000001 13.357014 -0.000000 0.243621 -0.224941 1.498872
  31 0.000002 18.158884 -0.000001 0.269412 1.772359 -0.041008
  32 0.000000 2.542063 0.000001 1.558254 0.000018 0.000000
  33 0.000001 3.135156 0.000000 0.033572 0.015552 -0.007411
  34 -0.000001 3.905659 4.546787 0.559500 -0.048643 -0.457335
  35 -0.000003 13.407272 -0.000001 -0.331089 0.158848 0.875330
  36 -0.000003 18.158878 -0.000001 0.204990 -1.640902 -0.581151
  37 -0.000000 2.542067 0.000000 1.558254 -3.141546 -0.000000
  38 0.000000 3.135156 0.000003 -0.091756 0.342973 -0.030933
  39 4.301485 1.405969 0.000000 -0.037059 -0.033374 0.106583
  40 0.000000 7.030428 -0.000001 0.210476 0.012657 -0.135672
  time 8
  0 9.756803 -2.879717 -11.174906 -0.224371 0.011266 2.942842
  1 -8.949221 -4.948163 -19.847342 -0.386703 0.019339 -3.067137
  2 0.907535 -3.182838 55.465324 -1.570796 0.000000 1.570796
  3 39.154198 35.024467 2.234931 1.570796 -1.570795 0.000000
  4 1.821690 41.777050 14.885065 1.570796 -1.570796 0.000000
  5 0.050699 32.682896 -26.617716 1.570796 -1.570796 0.000000
  6 -16.047716 42.428017 -1.462378 1.570796 -1.570796 0.000000
  7 34.038399 60.544121 -5.884522 1.570796 1.570796 0.000000
  8 26.355846 59.971516 10.272462 1.570796 1.570796 0.000000
  9 22.775488 43.474060 -0.758161 1.570796 1.570796 0.000000
  10 -0.000000 -17.187595 -0.000000 1.488463 0.134978 1.737367
  11 -0.000001 9.251830 0.000001 -0.612038 0.905610 -0.614813
  12 3.332967 6.058992 0.446928 0.151712 -0.065161 -0.426173
  13 -0.000000 4.780091 -0.000000 1.284319 0.253606 -2.959958
  14 0.000001 10.318101 0.000001 0.296127 0.389835 0.342799
  15 -0.000001 10.229106 0.000003 -0.337154 0.217046 0.905600
  16 0.000001 17.897524 0.000002 0.146849 -0.245367 0.668621
  17 0.000001 4.707228 -0.000001 -1.646308 0.018749 0.022390
  18 0.419793 19.915665 -1.870239 -0.583214 0.074805 1.001381
  19 -0.000002 2.947696 0.000001 0.402052 0.064297 -1.448050
  20 -5.196574 17.778215 -4.372517 1.078417 1.248267 0.121444
  21 0.002826 4.780092 -0.021077 -1.880463 -0.127749 -0.177834
  22 -0.000001 10.318099 0.000001 0.405309 2.079690 0.575131
  23 -0.000000 10.229105 -0.000000 1.930435 -0.802308 0.568789
  24 -0.000001 17.897512 -0.000003 -0.342122 -0.071393 0.243665
  25 -0.000000 5.176014 -0.000002 0.349165 0.058343 -0.327910
  26 0.755611 18.921988 0.960397 0.381247 -0.147234 0.149822
  27 -0.000001 3.158197 -0.000001 -0.659690 -0.115944 -0.290716
  28 -0.000001 -17.187595 -0.000000 -1.605142 -0.004804 1.660876
  29 0.000003 3.905660 -4.525525 -0.324315 -0.173820 -0.701768
  30 -0.000001 13.357019 -0.000001 0.242534 -0.270723 1.688719
  31 0.000002 18.158888 -0.000001 0.100581 1.774450 -0.213030
  32 -0.000000 2.542064 0.000001 1.558254 0.000018 0.000000
  33 0.000001 3.135158 -0.000001 -0.086398 0.000000 0.000000
  34 -0.000001 3.905661 4.546789 0.466774 0.023276 -0.184844
  35 0.000000 13.407276 -0.000002 -0.276102 0.104095 0.699510
  36 -0.000002 18.158886 -0.000003 0.241588 -1.667628 -0.721830
  37 -0.000001 2.542062 0.000001 1.558254 -3.141546 -0.000000
  38 -0.000001 3.135157 0.000002 -0.091756 0.342973 -0.030933
  39 4.301485 1.405968 0.000001 -0.095371 -0.047286 0.113564
  40 0.000002 7.030431 -0.000001 0.179641 0.032604 -0.017508
  time 9
  0 9.206284 5.637120 -13.396177 -0.086164 -0.009513 2.930846
  1 -9.169767 -8.198519 -19.890444 -0.537960 0.046280 -3.063068
  2 0.907535 -3.182838 55.465324 -1.570796 0.000000 1.570796
  3 35.743752 35.048130 10.553669 1.570796 -1.570795 0.000000
  4 -2.762485 42.042568 18.753857 1.570796 -1.570796 0.000000
  5 0.131683 39.459476 -26.594559 1.570796 -1.570796 0.000000
  6 -22.631989 42.330307 -1.145925 1.570796 -1.570796 0.000000
  7 33.942795 60.455208 -5.849449 1.570796 1.570796 0.000000
  8 26.355846 59.971516 10.272462 1.570796 1.570796 0.000000
  9 22.630617 44.631439 -0.577184 1.570796 1.570796 0.000000
  10 -0.000000 -17.187595 -0.000001 1.489803 0.078427 1.792835
  11 -0.000000 9.251828 0.000001 -0.606184 0.907943 -0.604177
  12 3.332968 6.058991 0.446929 0.222141 -0.245473 -0.427433
  13 0.000000 4.780091 0.000000 1.284319 0.253606 -2.959958
  14 0.000000 10.318099 -0.000001 0.016635 0.719661 0.629082
  15 -0.000001 10.229111 0.000001 -0.312566 0.188902 0.820338
  16 -0.000004 17.897520 0.000003 0.149182 -0.247327 0.654673
  17 -0.000001 4.707227 -0.000000 -1.647008 0.019294 0.032666
  18 0.412711 19.780554 -1.824778 -0.580949 0.077778 0.984462
  19 -0.000001 2.947699 0.000001 0.402052 0.064297 -1.448050
  20 -5.121041 17.805897 -4.329418 1.064035 1.265156 0.107016
  21 0.002826 4.780092 -0.021077 -1.880463 -0.127749 -0.177834
  22 0.000001 10.318094 0.000001 -0.609134 1.847736 -0.320045
  23 0.000001 10.229096 0.000003 1.703648 -0.690828 0.606938
  24 -0.000005 17.897495 -0.000003 -0.342122 -0.071393 0.243666
  25 -0.000003 5.176009 -0.000001 0.349165 0.058344 -0.327910
  26 0.755606 18.921970 0.960397 0.381247 -0.147234 0.149823
  27 0.000000 3.158194 -0.000000 -0.644352 -0.116412 -0.292060
  28 -0.000000 -17.187595 -0.000000 -1.605000 -0.003941 1.788997
  29 0.000002 3.905660 -4.525524 -0.419566 -0.140410 -1.058899
  30 -0.000000 13.357018 -0.000001 0.243244 -0.264180 1.661344
  31 -0.000001 18.158876 -0.000001 -0.122995 1.789969 -0.300328
  32 -0.000000 2.542061 -0.000000 1.558254 0.000018 0.000000
  33 0.000001 3.135157 0.000001 -0.086398 0.000000 0.000000
  34 -0.000001 3.905660 4.546789 0.484385 0.147753 -0.114847
  35 -0.000003 13.407273 -0.000002 -0.290603 0.116773 0.743307
  36 0.000000 18.158882 -0.000001 0.253161 -1.688561 -0.885720
  37 0.000000 2.542064 0.000000 1.558254 -3.141546 0.000000
  38 0.000002 3.135157 0.000001 -0.091756 0.342973 -0.030933
  39 4.301485 1.405967 0.000001 -0.149034 -0.061698 0.120628
  40 0.000001 7.030431 -0.000001 0.117680 0.082325 0.237422
  time 10
  0 8.183891 13.425461 -17.541143 0.169451 -0.006778 2.910546
  1 -9.352307 -10.300468 -19.993227 -0.645838 0.070238 -3.065069
  2 0.907535 -3.182838 55.465324 -1.570796 0.000000 1.570796
  3 27.611132 35.213768 15.599465 1.570796 -1.570795 0.000000
  4 -4.327548 43.496300 19.807293 1.570796 -1.570796 0.000000
  5 0.288586 39.341766 -26.549696 1.570796 -1.570796 0.000000
  6 -28.497885 42.054173 -0.046504 1.570796 -1.570796 0.000000
  7 33.844738 60.373360 -5.817164 1.570796 1.570796 0.000000
  8 26.355846 59.971516 10.272462 1.570796 1.570796 0.000000
  9 21.989048 46.780865 -0.331499 1.570796 1.570796 0.000000
  10 -0.000000 -17.187597 -0.000000 1.487020 0.023851 1.827616
  11 -0.000000 9.251827 0.000001 -0.595945 0.904641 -0.594955
  12 3.332968 6.058993 0.446928 0.222141 -0.245473 -0.427433
  13 -0.000001 4.780093 0.000000 1.284319 0.253606 -2.959958
  14 0.000002 10.318099 -0.000002 -0.389455 0.882039 0.515155
  15 -0.000003 10.229108 0.000002 -0.380308 0.281319 1.081990
  16 0.000002 17.897520 0.000004 0.157839 -0.251113 0.605065
  17 0.000003 4.707227 0.000001 -1.647605 0.019827 0.042592
  18 0.395838 19.458384 -1.716374 -0.573141 0.082523 0.930163
  19 0.000001 2.947696 -0.000000 0.402052 0.064298 -1.448050
  20 -4.592278 17.999681 -4.027755 0.875366 1.387332 -0.081994
  21 0.002826 4.780092 -0.021077 -1.880463 -0.127749 -0.177834
  22 -0.000000 10.318095 -0.000000 -1.201441 2.028386 -0.841838
  23 0.000001 10.229098 0.000001 1.647680 -0.660360 0.611048
  24 -0.000000 17.897503 0.000001 -0.342122 -0.071393 0.243666
  25 -0.000001 5.176011 -0.000000 0.349165 0.058344 -0.327910
  26 0.755612 18.921978 0.960401 0.381247 -0.147234 0.149822
  27 0.000000 3.158196 0.000000 -0.629545 -0.116860 -0.293384
  28 -0.000001 -17.187595 -0.000000 -1.604327 -0.003861 1.887091
  29 0.000002 3.905660 -4.525525 -0.489487 -0.018010 -1.153202
  30 0.000002 13.357020 -0.000001 0.234730 -0.175597 1.293135
  31 -0.000001 18.158878 0.000002 -0.349064 1.809277 -0.270162
  32 -0.000000 2.542061 -0.000000 1.558254 0.000018 0.000000
  33 -0.000000 3.135159 -0.000001 -0.086398 0.000000 0.000000
  34 -0.000002 3.905661 4.546789 0.535481 0.288265 -0.162771
  35 0.000000 13.407269 0.000002 -0.346970 0.178738 0.932526
  36 0.000004 18.158880 -0.000002 0.279154 -1.705634 -1.020540
  37 -0.000000 2.542061 -0.000000 1.558254 -3.141546 0.000000
  38 0.000000 3.135157 -0.000001 -0.091756 0.342973 -0.030933
  39 4.301485 1.405968 0.000001 -0.188576 -0.075876 0.126597
  40 0.000000 7.030430 -0.000001 0.069337 0.144549 0.488522
  time 11
  0 7.633373 16.833162 -19.831530 0.305784 0.000289 2.901021
  1 -9.557316 -11.498793 -20.115904 -0.709977 0.090496 -3.065278
  2 0.907535 -3.182838 55.465324 -1.570796 0.000000 1.570796
  3 17.904463 35.663368 18.190550 1.570796 -1.570795 0.000000
  4 -7.753668 46.246704 20.060642 1.570796 -1.570796 0.000000
  5 1.386913 38.517811 -26.235647 1.570796 -1.570796 0.000000
  6 -33.217541 41.625099 2.060973 1.570796 -1.570796 0.000000
  7 33.744198 60.298710 -5.787718 1.570796 1.570796 0.000000
  8 26.355846 59.971516 10.272462 1.570796 1.570796 0.000000
  9 20.540333 47.938244 0.244703 1.570796 1.570796 0.000000
  10 -0.000000 -17.187595 -0.000000 1.483847 -0.023022 1.846847
  11 -0.000000 9.251828 0.000000 -0.571759 0.893441 -0.577149
  12 3.332969 6.058991 0.446928 0.222141 -0.245474 -0.427433
  13 0.000001 4.780091 -0.000000 1.284319 0.253606 -2.959958
  14 -0.000000 10.318099 0.000002 -1.961661 0.663102 -0.261515
  15 0.000002 10.229105 0.000000 -0.412774 0.355008 1.266706
  16 -0.000004 17.897514 0.000000 0.175301 -0.252866 0.507861
  17 0.000000 4.707228 0.000002 -1.648108 0.020341 0.052125
  18 0.375688 19.073847 -1.586998 -0.557921 0.083656 0.832720
  19 -0.000001 2.947696 0.000000 0.402052 0.064298 -1.448050
  20 -3.157083 18.525669 -3.208967 1.627202 1.844100 0.668735
  21 0.002827 4.780091 -0.021077 -1.880463 -0.127749 -0.177834
  22 0.000000 10.318100 0.000000 -1.155177 2.155507 -0.657004
  23 -0.000000 10.229102 -0.000003 1.617466 -0.643511 0.612358
  24 0.000000 17.897507 0.000005 -0.342122 -0.071393 0.243665
  25 -0.000001 5.176009 0.000002 0.349165 0.058344 -0.327910
  26 0.755612 18.921980 0.960408 0.381247 -0.147234 0.149822
  27 0.000001 3.158196 0.000002 -0.615333 -0.117288 -0.294681
  28 -0.000000 -17.187595 -0.000000 -1.603504 -0.004215 1.959441
  29 0.000002 3.905659 -4.525526 -0.527426 0.106787 -1.089921
  30 -0.000002 13.357017 0.000000 0.194943 -0.095952 0.928921
  31 0.000001 18.158878 0.000000 -0.450553 1.817430 -0.234298
  32 0.000000 2.542062 -0.000001 1.558254 0.000018 0.000000
  33 0.000002 3.135155 -0.000002 -0.086398 0.000000 0.000000
  34 -0.000001 3.905659 4.546788 0.520010 0.411441 -0.242544
  35 -0.000002 13.407271 -0.000001 -0.378833 0.227077 1.062300
  36 0.000003 18.158886 -0.000000 0.294842 -1.722328 -1.101170
  37 0.000000 2.542062 0.000001 1.558254 -3.141546 0.000000
  38 -0.000000 3.135157 -0.000002 -0.091756 0.342973 -0.030933
  39 4.301485 1.405967 0.000000 -0.204553 -0.089300 0.129975
  40 -0.000000 7.030432 0.000000 0.052933 0.175424 0.599619
  time 12
  0 7.657087 15.839849 -19.866083 0.393358 0.027071 2.908108
  1 -9.845265 -12.038272 -20.218687 -0.714949 0.106948 -3.055283
  2 0.907535 -3.182838 55.465324 -1.570796 0.000000 1.570796
  3 9.771851 36.538895 19.145151 1.570796 -1.570795 0.000000
  4 -10.822141 48.910988 20.223989 1.570796 -1.570796 0.000000
  5 4.368083 36.281353 -25.383236 1.570796 -1.570796 0.000000
  6 -36.363091 41.068577 5.401598 1.570796 -1.570796 0.000000
  7 33.641148 60.231384 -5.761160 1.570796 1.570796 0.000000
  8 26.355846 59.971516 10.272462 1.570796 1.570796 0.000000
  9 18.375027 47.497662 1.204367 1.570796 1.570796 0.000000
  10 -0.000000 -17.187595 -0.000000 1.483526 -0.056254 1.854941
  11 0.000000 9.251828 0.000000 -0.525231 0.871336 -0.542022
  12 3.332968 6.058991 0.446929 0.235399 -0.257647 -0.434016
  13 -0.000001 4.780093 0.000000 1.284319 0.253606 -2.959958
  14 -0.000001 10.318100 -0.000001 -1.971788 0.456419 0.011760
  15 -0.000000 10.229107 0.000000 -0.419342 0.376494 1.318764
  16 -0.000007 17.897518 0.000007 0.203592 -0.246909 0.348752
  17 0.000001 4.707228 -0.000000 -1.648524 0.020835 0.061221
  18 0.358805 18.751675 -1.478590 -0.531822 0.077468 0.683863
  19 -0.000000 2.947696 0.000001 0.402052 0.064297 -1.448049
  20 -0.362227 19.549971 -1.614473 -1.759443 0.229031 -2.721328
  21 0.002826 4.780092 -0.021077 -1.880463 -0.127749 -0.177833
  22 0.000001 10.318100 -0.000001 -0.921014 2.313961 -0.385920
  23 0.000000 10.229104 -0.000002 1.556766 -0.608926 0.613055
  24 -0.000008 17.897511 0.000002 -0.342122 -0.071393 0.243665
  25 -0.000004 5.176013 0.000002 0.349165 0.058344 -0.327910
  26 0.755604 18.921984 0.960403 0.381247 -0.147234 0.149822
  27 -0.000001 3.158197 0.000000 -0.601780 -0.117692 -0.295939
  28 -0.000000 -17.187595 -0.000000 -1.602819 -0.004597 2.009552
  29 0.000001 3.905661 -4.525524 -0.574105 0.159494 -1.026816
  30 -0.000001 13.357018 -0.000001 0.170549 -0.068084 0.777909
  31 0.000000 18.158890 -0.000003 -0.432945 1.807569 -0.126075
  32 0.000000 2.542064 0.000000 1.558254 0.000018 -0.000000
  33 0.000000 3.135156 0.000000 -0.086398 0.000000 0.000000
  34 -0.000002 3.905660 4.546789 0.421113 0.496909 -0.339037
  35 -0.000002 13.407271 -0.000000 -0.384736 0.237721 1.089544
  36 0.000000 18.158884 0.000003 0.290014 -1.741552 -1.102314
  37 -0.000001 2.542063 -0.000001 1.558254 -3.141546 0.000000
  38 -0.000001 3.135158 0.000002 -0.091756 0.342973 -0.030933
  39 4.301485 1.405968 0.000001 -0.153146 -0.123106 -0.107822
  40 0.000001 7.030432 -0.000001 0.053478 0.115124 0.420673
  time 13
  0 7.680801 14.846536 -19.900637 0.354515 0.061831 2.918389
  1 -10.276632 -12.163705 -20.261789 -0.605664 0.116421 -3.023309
  2 0.907535 -3.182838 55.465324 -1.570796 0.000000 1.570796
  3 6.361415 37.982330 19.281523 1.570796 -1.570795 0.000000
  4 -11.529312 50.106377 21.007414 1.570796 -1.570796 0.000000
  5 10.173516 31.926142 -23.723267 1.570796 -1.570796 0.000000
  6 -37.506683 40.410099 10.200444 1.570796 -1.570796 0.000000
  7 33.535549 60.171509 -5.737542 1.570796 1.570796 0.000000
  8 26.355846 59.971516 10.272462 1.570796 1.570796 0.000000
  9 17.187599 46.897758 1.748999 1.570796 1.570796 0.000000
  10 -0.000000 -17.187595 -0.000000 1.488721 -0.069603 1.856099
  11 -0.000001 9.251827 -0.000000 -0.450568 0.833658 -0.483589
  12 3.332966 6.058994 0.446929 0.235398 -0.257647 -0.434016
  13 -0.000000 4.780092 0.000000 1.284319 0.253606 -2.959958
  14 0.000001 10.318100 -0.000001 -0.266910 0.377127 1.177224
  15 0.000001 10.229105 0.000000 -0.412612 0.354524 1.265525
  16 -0.000006 17.897520 -0.000000 0.242365 -0.224109 0.109269
  17 -0.000000 4.707227 -0.000000 -1.648860 0.021305 0.069837
  18 0.351727 18.616571 -1.433141 -0.488408 0.063165 0.470802
  19 -0.000000 2.947697 0.000002 0.402052 0.064298 -1.448050
  20 4.245522 21.238689 1.014274 1.350236 -1.968192 0.366772
  21 0.002826 4.780092 -0.021077 -1.880463 -0.127749 -0.177833
  22 0.000002 10.318095 -0.000000 -0.801681 2.475390 -0.310479
  23 -0.000001 10.229097 0.000001 1.475185 -0.561209 0.609914
  24 -0.000009 17.897499 -0.000008 -0.342122 -0.071393 0.243666
  25 -0.000004 5.176010 0.000000 0.349165 0.058344 -0.327910
  26 0.755603 18.921972 0.960392 0.381247 -0.147234 0.149823
  27 0.000001 3.158193 0.000000 -0.588952 -0.118071 -0.297151
  28 -0.000001 -17.187595 -0.000000 -1.602517 -0.004576 2.040420
  29 0.000003 3.905659 -4.525523 -0.588476 0.210400 -0.961296
  30 -0.000000 13.357013 -0.000001 0.150060 -0.050066 0.666400
  31 -0.000000 18.158880 0.000000 -0.245440 1.798044 0.026194
  32 0.000000 2.542063 0.000001 1.558254 0.000018 -0.000000
  33 0.000000 3.135154 -0.000002 -0.086398 0.000000 0.000000
  34 -0.000001 3.905660 4.546788 0.361598 0.538698 -0.383739
  35 -0.000003 13.407272 -0.000002 -0.379313 0.227917 1.064466
  36 0.000004 18.158884 0.000002 0.284786 -1.767569 -0.989479
  37 -0.000000 2.542062 -0.000001 1.558254 -3.141546 0.000000
  38 0.000002 3.135158 0.000001 -0.091756 0.342973 -0.030933
  39 4.301485 1.405968 0.000001 -0.023455 -0.130637 -0.569060
  40 0.000001 7.030430 -0.000000 0.096472 -0.019657 -0.000486
  time 14
  0 7.704516 13.853222 -19.935194 0.201365 0.093369 2.922313
  1 -10.859777 -12.143950 -20.019270 -0.488863 0.118239 -2.975787
  2 0.907535 -3.182838 55.465324 -1.570796 0.000000 1.570796
  3 12.742098 40.501778 9.273932 1.570796 -1.570795 0.000000
  4 -4.031048 48.460312 22.337568 1.570796 -1.570796 0.000000
  5 9.104934 32.374565 -23.607491 1.570796 -1.570796 0.000000
  6 -37.141254 40.378666 10.405968 1.570796 -1.570796 0.000000
  7 33.427376 60.119205 -5.716910 1.570796 1.570796 0.000000
  8 26.355846 59.971516 10.272462 1.570796 1.570796 0.000000
  9 18.751694 46.744339 0.931326 1.570796 1.570796 0.000000
  10 -0.000000 -17.187595 -0.000000 1.552184 -0.066894 1.784687
  11 0.000000 9.251828 0.000001 -0.311956 0.711133 -0.372953
  12 3.332968 6.058991 0.446928 0.235398 -0.257647 -0.434016
  13 0.000000 4.780092 0.000000 1.284319 0.253606 -2.959958
  14 0.000002 10.318101 -0.000001 -0.040584 -0.025200 0.658241
  15 -0.000001 10.229104 0.000002 -0.424463 0.562025 1.773534
  16 -0.000002 17.897518 -0.000004 0.362721 -0.170101 -0.213150
  17 0.000001 4.707226 0.000001 -1.649126 0.021746 0.077929
  18 0.324977 18.977982 -1.386663 -0.354586 0.053402 0.190334
  19 -0.000000 2.947695 -0.000000 0.402052 0.064298 -1.448050
  20 4.710736 20.405973 1.192165 1.172083 -1.949668 0.277497
  21 0.002827 4.780091 -0.021077 -1.880463 -0.127749 -0.177834
  22 0.000001 10.318099 -0.000001 -0.575411 2.382726 -0.255703
  23 0.000002 10.229100 -0.000001 1.449752 -0.546122 0.607985
  24 -0.000006 17.897512 0.000000 -0.342122 -0.071393 0.243665
  25 0.000001 5.176011 0.000002 0.349165 0.058344 -0.327910
  26 0.755604 18.921986 0.960399 0.381247 -0.147234 0.149822
  27 -0.000001 3.158195 0.000000 -0.576911 -0.118424 -0.298305
  28 -0.000001 -17.187595 -0.000000 -1.604603 -0.002738 2.056373
  29 0.000002 3.905659 -4.525524 -0.610570 0.191966 -0.995561
  30 -0.000002 13.357021 -0.000000 0.185810 -0.084511 0.869328
  31 0.000001 18.158888 -0.000001 0.045039 1.799375 0.166845
  32 -0.000000 2.542064 -0.000000 1.558254 0.000018 0.000000
  33 -0.000000 3.135156 0.000003 -0.086398 0.000000 0.000000
  34 -0.000002 3.905660 4.546790 0.453715 0.538561 -0.279407
  35 0.000002 13.407274 -0.000001 -0.362654 0.200877 0.993356
  36 0.000001 18.158888 -0.000004 0.241919 -1.801092 -0.831833
  37 -0.000001 2.542062 0.000000 1.558254 -3.141546 0.000000
  38 -0.000000 3.135159 -0.000002 -0.014707 0.261637 -0.045406
  39 4.301485 1.405968 0.000001 0.094603 -0.085010 -0.811428
  40 0.000002 7.030430 0.000001 0.193086 -0.125929 -0.437151
  time 15
  0 7.728231 12.859910 -19.969751 -0.007580 0.111879 2.917076
  1 -11.394612 -12.005663 -19.363379 -0.275296 0.099282 -2.923764
  2 0.907535 -3.182838 55.465324 -1.570796 0.000000 1.570796
  3 24.591938 43.321522 -11.065967 1.570796 -1.570795 0.000000
  4 3.467217 46.814259 23.667721 1.570796 -1.570796 0.000000
  5 1.624858 35.513496 -22.797045 1.570796 -1.570796 0.000000
  6 -34.583252 40.158604 11.844632 1.570796 -1.570796 0.000000
  7 33.316601 60.074608 -5.699317 1.570796 1.570796 0.000000
  8 26.355846 59.971516 10.272462 1.570796 1.570796 0.000000
  9 21.656437 46.732540 -0.587208 1.570796 1.570796 0.000000
  10 -0.000000 -17.187595 -0.000000 1.658362 -0.045493 1.604042
  11 -0.000000 9.251827 -0.000001 -0.161414 0.479315 -0.269235
  12 3.332967 6.058991 0.446929 0.235398 -0.257647 -0.434016
  13 -0.000000 4.780091 0.000001 1.284319 0.253606 -2.959958
  14 -0.000001 10.318097 0.000001 0.393589 -0.121658 0.060385
  15 -0.000000 10.229106 0.000004 -0.433786 0.491586 1.595950
  16 -0.000004 17.897518 -0.000002 0.526297 -0.071377 -0.500062
  17 -0.000003 4.707225 0.000000 -1.649329 0.022158 0.085455
  18 0.275289 19.649172 -1.300341 -0.166560 0.086904 -0.066735
  19 -0.000002 2.947696 -0.000001 0.402052 0.064298 -1.448050
  20 4.855567 19.217110 1.052676 0.628176 -2.002119 0.490063
  21 0.002826 4.780092 -0.021077 -1.880463 -0.127749 -0.177834
  22 0.000000 10.318098 0.000000 -0.152624 2.278908 0.275409
  23 0.000000 10.229101 0.000000 1.356703 -0.490471 0.597150
  24 -0.000001 17.897503 0.000003 -0.342122 -0.071393 0.243665
  25 -0.000001 5.176008 0.000002 0.349165 0.058344 -0.327910
  26 0.755611 18.921974 0.960405 0.381247 -0.147234 0.149822
  27 -0.000000 3.158194 -0.000000 -0.565721 -0.118747 -0.299394
  28 -0.000000 -17.187595 -0.000000 -1.608363 0.000756 2.062556
  29 0.000003 3.905658 -4.525523 -0.588792 0.190673 -1.000986
  30 0.000001 13.357016 -0.000002 0.215988 -0.129175 1.089000
  31 0.000001 18.158882 0.000003 0.322705 1.809310 0.238033
  32 0.000001 2.542061 0.000001 1.558254 0.000018 0.000000
  33 -0.000001 3.135155 -0.000000 -0.086398 0.000000 0.000000
  34 -0.000002 3.905659 4.546788 0.610366 0.477428 -0.113455
  35 -0.000000 13.407269 -0.000001 -0.331816 0.159711 0.877869
  36 -0.000000 18.158873 0.000000 0.264428 -1.831026 -0.640759
  37 -0.000001 2.542063 0.000000 1.558254 -3.141546 -0.000000
  38 -0.000000 3.135156 -0.000000 0.129484 0.113503 -0.088543
  39 4.301485 1.405968 0.000001 0.171289 -0.052463 -0.677449
  40 -0.000001 7.030432 -0.000002 0.247133 -0.156644 -0.629135
  time 16
  0 7.751945 11.866597 -20.004305 -0.165550 0.111094 2.910047
  1 -11.628936 -11.630319 -18.401587 -0.113588 0.069660 -2.900546
  2 0.907535 -3.182838 55.465324 -1.570796 0.000000 1.570796
  3 30.972624 44.657822 -27.213846 1.570796 -1.570795 0.000000
  4 16.797472 43.887932 10.206078 1.570796 -1.570796 0.000000
  5 -18.678204 44.033463 -20.597271 1.570796 -1.570796 0.000000
  6 -27.640099 39.561302 15.749580 1.570796 -1.570796 0.000000
  7 33.203186 60.037830 -5.684809 1.570796 1.570796 0.000000
  8 26.355846 59.971516 10.272462 1.570796 1.570796 0.000000
  9 23.220528 46.579121 -1.404880 1.570796 1.570796 0.000000
  10 0.000000 -17.187595 -0.000001 1.702837 -0.011918 1.364149
  11 -0.000000 9.251827 0.000000 -0.049103 0.215608 -0.225048
  12 3.332968 6.058991 0.446929 0.235399 -0.257647 -0.434016
  13 0.000000 4.780092 -0.000000 1.284319 0.253606 -2.959958
  14 0.000001 10.318100 -0.000002 -0.097580 0.145700 1.214839
  15 -0.000001 10.229110 0.000006 -0.003710 0.052781 0.008824
  16 -0.000003 17.897528 0.000001 0.601005 -0.010943 -0.617102
  17 -0.000001 4.707232 -0.000001 -1.649477 0.022535 0.092372
  18 0.248541 20.010592 -1.253855 -0.075878 0.118446 -0.174865
  19 -0.000001 2.947696 0.000001 0.402052 0.064298 -1.448050
  20 4.863164 18.611975 0.931571 0.368950 -2.058742 0.583409
  21 0.002827 4.780092 -0.021077 -1.880463 -0.127749 -0.177834
  22 0.000002 10.318097 -0.000001 0.506949 2.482221 0.879435
  23 0.000003 10.229100 -0.000002 1.873608 -0.776355 0.581460
  24 0.000003 17.897511 0.000000 -0.342122 -0.071393 0.243665
  25 0.000001 5.176011 -0.000000 0.349165 0.058344 -0.327910
  26 0.755615 18.921982 0.960400 0.381247 -0.147234 0.149822
  27 0.000001 3.158195 0.000000 -0.555444 -0.119043 -0.300407
  28 -0.000000 -17.187595 -0.000000 -1.610006 0.003916 2.062965
  29 0.000002 3.905660 -4.525525 -0.552244 0.212064 -0.960846
  30 -0.000003 13.357018 -0.000003 0.223842 -0.145490 1.162649
  31 0.000006 18.158888 -0.000001 0.468579 1.815763 0.226381
  32 -0.000000 2.542068 -0.000000 1.558254 0.000018 -0.000000
  33 0.000000 3.135156 0.000005 -0.086398 0.000000 0.000000
  34 -0.000002 3.905660 4.546788 0.687887 0.450222 -0.064917
  35 -0.000000 13.407269 -0.000002 -0.325674 0.152560 0.856646
  36 0.000001 18.158880 0.000000 0.287019 -1.837783 -0.498713
  37 0.000002 2.542059 0.000002 1.558254 -3.141546 0.000000
  38 0.000001 3.135157 -0.000002 0.208473 0.037208 -0.120030
  39 4.301485 1.405968 0.000001 0.221341 -0.048487 -0.373671
  40 -0.000000 7.030431 0.000000 0.230624 -0.114287 -0.541038
  time 17
  0 7.914025 7.967998 -20.019777 -0.171643 0.083379 2.896513
  1 -11.286609 -8.610605 -17.262482 -0.023384 0.040596 -2.937886
  2 0.907535 -3.182838 55.465324 -1.570796 0.000000 1.570796
  3 25.325703 44.490086 -32.586605 1.570796 -1.570795 0.000000
  4 30.127726 40.961605 -3.255562 1.570796 -1.570796 0.000000
  5 -18.962486 44.037582 -20.342733 1.570796 -1.570796 0.000000
  6 -14.119223 38.398129 23.353951 1.570796 -1.570796 0.000000
  7 33.087101 60.009010 -5.673441 1.570796 1.570796 0.000000
  8 26.355846 59.971516 10.272462 1.570796 1.570796 0.000000
  9 22.455242 45.559193 -1.303763 1.570796 1.570796 0.000000
  10 -0.000000 -17.187595 -0.000000 1.673956 0.002755 1.106839
  11 0.000001 9.251825 0.000000 0.032384 -0.016319 -0.227298
  12 3.332967 6.058991 0.446929 0.235399 -0.257647 -0.434016
  13 0.000001 4.780090 0.000001 1.284319 0.253606 -2.959958
  14 0.000000 10.318098 0.000001 -0.159954 0.051072 1.515291
  15 -0.000001 10.229108 0.000000 -0.003749 0.052781 0.008917
  16 0.000005 17.897518 0.000000 0.601005 -0.010943 -0.617103
  17 0.000000 4.707228 -0.000002 -1.649578 0.022876 0.098636
  18 0.248543 20.010582 -1.253860 -0.075877 0.118446 -0.174865
  19 0.000001 2.947695 0.000000 0.402052 0.064298 -1.448050
  20 4.863166 18.611963 0.931571 0.368950 -2.058743 0.583409
  21 0.002827 4.780089 -0.021077 -1.880463 -0.127749 -0.177833
  22 0.000000 10.318096 0.000001 1.586431 1.916903 0.833565
  23 0.000004 10.229099 0.000000 1.060737 -0.317767 0.526121
  24 0.000002 17.897505 0.000002 -0.342122 -0.071393 0.243665
  25 0.000001 5.176011 0.000001 0.349165 0.058344 -0.327910
  26 0.755614 18.921978 0.960401 0.381247 -0.147234 0.149822
  27 0.000000 3.158193 0.000003 -0.546142 -0.119307 -0.301336
  28 -0.000001 -17.187595 -0.000000 -1.607720 0.003241 1.946646
  29 0.000001 3.905660 -4.525524 -0.417682 0.183044 -0.815433
  30 -0.000003 13.357015 -0.000002 0.218558 -0.134186 1.111896
  31 -0.000003 18.158895 -0.000004 0.354747 1.822557 0.104026
  32 0.000001 2.542064 -0.000000 1.558254 0.000018 -0.000000
  33 -0.000000 3.135156 0.000002 -0.086398 0.000000 0.000000
  34 -0.000001 3.905660 4.546789 0.627770 0.454699 -0.268528
  35 -0.000000 13.407274 -0.000001 -0.374415 0.219522 1.042713
  36 0.000001 18.158886 -0.000004 0.328007 -1.792251 -0.445887
  37 -0.000001 2.542064 0.000000 1.558254 -3.141546 -0.000000
  38 -0.000000 3.135156 -0.000002 0.057081 0.186806 -0.064406
  39 4.301485 1.405969 0.000000 0.244270 -0.061436 -0.070302
  40 -0.000000 7.030429 -0.000000 0.206504 -0.006689 -0.331466
  time 18
  0 8.178110 2.760370 -20.038492 -0.280769 0.006677 2.868849
  1 -10.384130 -2.660655 -16.159035 0.069485 0.015764 -3.021095
  2 0.907535 -3.182838 55.465324 -1.570796 0.000000 1.570796
  3 0.855878 43.763222 -33.354164 1.570796 -1.570795 0.000000
  4 28.560560 41.605694 -1.872273 1.570796 -1.570796 0.000000
  5 -20.952448 44.066414 -18.560953 1.570796 -1.570796 0.000000
  6 8.171945 36.480473 35.890884 1.570796 -1.570796 0.000000
  7 32.968319 59.988266 -5.665259 1.570796 1.570796 0.000000
  8 26.355846 59.971516 10.272462 1.570796 1.570796 0.000000
  9 20.986111 44.698582 -1.085871 1.570796 1.570796 0.000000
  10 -0.000000 -17.187595 -0.000000 1.626282 -0.004137 0.893553
  11 0.000000 9.251825 0.000000 0.094196 -0.192444 -0.249779
  12 3.332967 6.058992 0.446928 -0.083642 0.370877 -0.568484
  13 -0.000000 4.780093 -0.000000 1.284319 0.253606 -2.959958
  14 0.000001 10.318099 -0.000001 -0.138760 -0.004359 1.281943
  15 -0.000002 10.229104 0.000003 -0.003680 0.052780 0.008754
  16 0.000001 17.897520 0.000004 0.601005 -0.010943 -0.617102
  17 -0.000001 4.707228 -0.000001 -1.649640 0.023179 0.104203
  18 0.248543 20.010582 -1.253855 -0.075878 0.118445 -0.174865
  19 -0.000000 2.947696 0.000001 0.402052 0.064298 -1.448050
  20 4.863163 18.611963 0.931575 0.368950 -2.058743 0.583409
  21 0.002826 4.780092 -0.021077 -1.880463 -0.127749 -0.177833
  22 0.000001 10.318099 0.000001 -0.148363 2.059639 0.014054
  23 0.000001 10.229101 -0.000001 1.362331 -0.493847 0.597972
  24 0.000001 17.897503 0.000003 -0.342122 -0.071393 0.243665
  25 0.000000 5.176010 0.000002 0.349165 0.058343 -0.327910
  26 0.755614 18.921978 0.960403 0.381247 -0.147234 0.149822
  27 -0.000000 3.158195 -0.000001 -0.537879 -0.119541 -0.302171
  28 -0.000001 -17.187595 -0.000000 -1.602508 -0.000481 1.688081
  29 0.000003 3.905659 -4.525525 -0.218966 0.012358 -0.663393
  30 -0.000001 13.357019 -0.000002 0.210531 -0.119369 1.043375
  31 -0.000001 18.158888 -0.000001 0.175930 1.848429 -0.192845
  32 -0.000000 2.542064 -0.000000 1.558254 0.000018 0.000000
  33 -0.000000 3.135157 0.000001 -0.086398 0.000000 0.000000
  34 -0.000001 3.905659 4.546788 0.608560 0.335091 -0.602548
  35 -0.000001 13.407276 -0.000001 -0.413439 0.302943 1.249658
  36 0.000002 18.158886 0.000000 0.470828 -1.705848 -0.494214
  37 0.000000 2.542064 -0.000000 1.558254 -3.141546 0.000000
  38 0.000000 3.135157 -0.000000 -0.091756 0.342973 -0.030933
  39 4.301485 1.405967 0.000000 0.248285 -0.069265 0.063967
  40 0.000000 7.030429 0.000000 0.205084 0.126843 -0.079252
  time 19
  0 8.424411 -2.963902 -20.054258 -0.451725 -0.082302 2.854043
  1 -9.108257 3.155949 -15.325314 0.139558 0.003118 -3.104119
  2 0.907535 -3.182838 55.465324 -1.570796 0.000000 1.570796
  3 -29.260880 42.868614 -25.855589 1.570796 -1.570795 0.000000
  4 24.823463 43.141590 1.426343 1.570796 -1.570796 0.000000
  5 -26.353771 44.144669 -13.724690 1.570796 -1.570796 0.000000
  6 6.485640 35.745525 35.065323 1.570796 -1.570796 0.000000
  7 32.846806 59.975727 -5.660314 1.570796 1.570796 0.000000
  8 26.355846 59.971516 10.272462 1.570796 1.570796 0.000000
  9 19.785110 45.788105 -0.873686 1.570796 1.570796 0.000000
  10 -0.000000 -17.187595 -0.000000 1.559681 -0.030261 0.807600
  11 -0.000001 9.251829 0.000001 0.136273 -0.302233 -0.279262
  12 3.332967 6.058993 0.446928 -0.083642 0.370877 -0.568484
  13 0.000000 4.780092 0.000000 1.284319 0.253606 -2.959958
  14 0.000001 10.318100 -0.000000 0.071498 0.401687 0.568987
  15 0.000001 10.229109 0.000002 -0.003719 0.052781 0.008845
  16 0.000004 17.897524 0.000003 0.601005 -0.010943 -0.617102
  17 0.000001 4.707233 -0.000002 -1.649671 0.023440 0.109032
  18 0.248548 20.010588 -1.253854 -0.075878 0.118445 -0.174865
  19 0.000001 2.947699 0.000002 0.402052 0.064298 -1.448050
  20 4.863173 18.611971 0.931576 0.368949 -2.058743 0.583409
  21 0.002826 4.780093 -0.021077 -1.880463 -0.127749 -0.177833
  22 0.000001 10.318100 -0.000001 0.004402 2.174609 0.858699
  23 -0.000001 10.229097 -0.000001 1.715691 -0.697248 0.605771
  24 0.000004 17.897491 0.000003 -0.342122 -0.071393 0.243665
  25 -0.000001 5.176007 -0.000000 0.349165 0.058343 -0.327910
  26 0.755617 18.921965 0.960402 0.381247 -0.147234 0.149822
  27 0.000000 3.158194 0.000002 -0.530715 -0.119743 -0.302902
  28 -0.000001 -17.187595 -0.000000 -1.595966 -0.003312 1.430721
  29 0.000002 3.905660 -4.525524 -0.103928 -0.214196 -0.629433
  30 0.000003 13.357020 0.000001 0.224109 -0.146102 1.165362
  31 0.000005 18.158875 0.000003 0.076180 1.885369 -0.476248
  32 -0.000001 2.542063 0.000001 1.558254 0.000018 0.000000
  33 -0.000001 3.135157 0.000002 -0.086398 0.000000 0.000000
  34 -0.000001 3.905660 4.546790 0.754756 0.234883 -0.929332
  35 0.000001 13.407273 -0.000003 -0.433110 0.383232 1.438295
  36 0.000003 18.158882 0.000001 0.924786 -1.628991 -0.878786
  37 -0.000000 2.542063 0.000000 1.558254 -3.141546 0.000000
  38 -0.000001 3.135159 -0.000000 -0.091756 0.342973 -0.030933
  39 4.301486 1.405967 0.000001 0.087931 -0.397046 -0.107284
  40 0.000000 7.030429 -0.000000 0.223358 0.234100 0.130775
  time 20
  0 8.533132 -8.412436 -20.060892 -0.639439 -0.136445 2.864317
  1 -7.645739 5.775626 -14.995392 0.164419 0.000000 3.141593
  2 0.907535 -3.182838 55.465324 -1.570796 0.000000 1.570796
  3 -26.036169 42.868614 -23.711781 1.570796 -1.570795 0.000000
  4 20.363049 44.974758 5.363408 1.570796 -1.570796 0.000000
  5 -36.872143 44.297058 -4.306708 1.570796 -1.570796 0.000000
  6 2.269884 35.087048 33.001419 1.570796 -1.570796 0.000000
  7 32.722527 59.971519 -5.658653 1.570796 1.570796 0.000000
  8 32.722523 59.971516 6.168217 1.570796 1.570796 0.000000
  9 18.751692 46.877628 -0.766860 1.570796 1.570796 0.000000
  10 -0.000000 -17.187595 -0.000001 1.483241 -0.040247 1.080864
  11 0.000000 9.251828 0.000001 0.153118 -0.339167 -0.304542
  12 3.332969 6.058994 0.446927 -0.083642 0.370877 -0.568484
  13 0.000001 4.780093 -0.000000 1.284319 0.253606 -2.959958
  14 -0.000001 10.318100 0.000000 0.036670 0.081420 0.174464
  15 0.000002 10.229108 0.000004 -0.085170 0.061462 0.203735
  16 0.000001 17.897522 0.000004 0.536510 -0.210907 -0.331019
  17 0.000000 4.707231 -0.000001 -1.649680 0.023659 0.113080
  18 0.316537 19.492420 -1.498523 -0.235314 -0.042140 0.056713
  19 0.000001 2.947694 -0.000000 0.402052 0.064298 -1.448050
  20 4.417793 19.701368 1.335205 0.789834 -2.101689 0.485419
  21 0.002827 4.780094 -0.021077 -1.880463 -0.127749 -0.177834
  22 0.000002 10.318101 -0.000001 -0.269402 2.227459 0.735443
  23 -0.000004 10.229103 -0.000004 1.925762 -0.800227 0.569906
  24 0.000000 17.897518 0.000006 -0.342122 -0.071393 0.243665
  25 -0.000001 5.176013 0.000000 0.349165 0.058344 -0.327910
  26 0.755613 18.921993 0.960405 0.381247 -0.147233 0.149822
  27 0.000001 3.158197 0.000000 -0.524714 -0.119912 -0.303521
  28 -0.000000 -17.187595 -0.000000 -1.591570 -0.003958 1.316302
  29 0.000001 3.905661 -4.525523 -0.092252 -0.328031 -0.520047
  30 0.000000 13.357020 0.000000 0.229030 -0.158331 1.219016
  31 -0.000001 18.158890 -0.000006 0.104059 1.900730 -0.643529
  32 -0.000000 2.542061 -0.000000 1.558254 0.000018 0.000000
  33 0.000000 3.135159 -0.000001 -0.086398 0.000000 0.000000
  34 -0.000001 3.905660 4.546788 0.703686 0.310948 -1.101823
  35 -0.000001 13.407268 -0.000000 -0.436629 0.418744 1.521276
  36 0.000002 18.158873 -0.000001 -1.501275 -1.532138 1.571474
  37 -0.000000 2.542064 -0.000001 1.558254 -3.141546 0.000000
  38 -0.000000 3.135156 0.000001 -0.091756 0.342973 -0.030933
  39 4.301484 1.405969 -0.000000 -0.034935 -0.745015 -0.248678
  40 0.000001 7.030431 -0.000000 0.223807 0.276189 0.213107
  time 21
  0 7.308451 -11.598782 -20.050692 -0.649771 0.081957 2.941997
  1 -6.650027 5.527619 -17.769524 0.074511 0.054027 -2.960962
  2 0.907535 -3.182838 55.465324 -1.570796 0.000000 1.570796
  3 -8.695398 42.868614 -21.904318 1.570796 -1.570795 0.000000
  4 16.625946 46.510654 8.662035 1.570796 -1.570796 0.000000
  5 -34.405849 44.327656 -5.854590 1.570796 -1.570796 0.000000
  6 -3.210603 34.530525 30.318348 1.570796 -1.570796 0.000000
  7 29.507774 59.971519 -5.799940 1.570796 1.570796 0.000000
  8 32.722523 59.971516 6.168217 1.570796 1.570796 0.000000
  9 17.701515 44.879715 -0.759250 1.570796 1.570796 0.000000
  10 -0.000000 -17.187595 -0.000001 1.445411 -0.017771 1.347647
  11 -0.000001 9.251829 0.000001 0.034375 -0.068225 -0.292906
  12 3.332967 6.058994 0.446928 -0.100991 0.351764 -0.566890
  13 0.000000 4.780091 0.000000 1.284319 0.253606 -2.959958
  14 0.000001 10.318099 0.000001 0.066123 -0.088605 -1.000475
  15 -0.000002 10.229105 -0.000000 -0.432216 0.516277 1.656925
  16 -0.000007 17.897511 -0.000002 0.342523 -0.387256 0.016417
  17 -0.000001 4.707226 0.000000 -1.649673 0.023832 0.116303
  18 0.389412 18.805756 -1.680789 -0.459398 -0.123582 0.407336
  19 -0.000000 2.947696 0.000002 0.402052 0.064298 -1.448050
  20 3.979869 20.889662 1.604466 1.262977 -2.152812 0.381529
  21 0.002825 4.780094 -0.021076 -1.880463 -0.127749 -0.177834
  22 0.000001 10.318097 -0.000001 -0.515743 2.394748 -0.151215
  23 -0.000002 10.229101 0.000000 1.664039 -0.669369 0.610072
  24 0.000002 17.897511 0.000002 -0.342122 -0.071393 0.243665
  25 0.000001 5.176010 0.000002 0.349165 0.058343 -0.327910
  26 0.755616 18.921982 0.960402 0.381247 -0.147234 0.149822
  27 0.000000 3.158195 0.000000 -0.519937 -0.120046 -0.304018
  28 -0.000001 -17.187595 -0.000000 -1.585528 -0.005344 1.533826
  29 0.000001 3.905659 -4.525524 -0.139677 -0.072654 -0.205764
  30 0.000004 13.357015 -0.000000 0.191098 -0.090966 0.903297
  31 0.000003 18.158888 -0.000002 0.866892 1.777758 0.135091
  32 0.000000 2.542062 0.000000 1.558254 0.000018 0.000000
  33 0.000000 3.135156 0.000002 -0.086398 0.000000 0.000000
  34 -0.000002 3.905659 4.546789 0.407148 0.185093 -0.943371
  35 0.000003 13.407270 -0.000002 -0.387489 0.242925 1.102721
  36 -0.000002 18.158880 0.000003 0.526477 -1.776534 -0.547676
  37 0.000000 2.542062 -0.000000 1.558254 -3.141546 -0.000000
  38 -0.000000 3.135156 -0.000001 -0.091756 0.342973 -0.030933
  39 4.301484 1.405968 0.000001 -0.056651 -0.371685 -0.082748
  40 0.000002 7.030428 -0.000001 0.101148 0.187179 0.070225
end
