version 1
nodes
0 "ShinIK.R" -1
1 "ShinIK.L" -1
2 "All.000" -1
3 "ForearmIK.R" 2
4 "ForearmIK.L" 2
5 "UpperarmIK.R" 2
6 "UpperarmIK.L" 2
7 "KneeIK.R" 2
8 "KneeIK.L" 2
9 "Spine.009" 2
10 "Spine.001" 9
11 "Spine.002" 10
12 "Spine.004" 11
13 "Arm.R.001" 11
14 "Arm.R.002" 13
15 "Arm.R.003" 14
16 "Arm.R.004" 15
17 "Arm.R.005" 16
18 "Arm.R.006" 15
19 "Arm.R.007" 18
20 "Wep.000" 15
21 "Arm.L.001" 11
22 "Arm.L.002" 21
23 "Arm.L.003" 22
24 "Arm.L.004" 23
25 "Arm.L.005" 24
26 "Arm.L.006" 23
27 "Arm.L.007" 26
28 "Spine.000" 9
29 "Leg.R.001" 28
30 "Leg.R.002" 29
31 "Leg.R.003" 30
32 "Leg.R.004" 31
33 "Leg.R.005" 32
34 "Leg.L.001" 28
35 "Leg.L.002" 34
36 "Leg.L.003" 35
37 "Leg.L.004" 36
38 "Leg.L.005" 37
39 "Loincloth.000" 28
40 "Loincloth.001" 39
end
skeleton
  time 0
  0 7.268085 -21.130533 -15.931740 -0.029194 0.000000 -3.141593
  1 -5.962544 18.873014 -12.099874 0.413855 0.000000 3.141593
  2 0.907535 -3.182838 55.465324 -1.570796 0.000000 1.570796
  3 12.817963 53.337929 -13.892647 1.570796 -1.570795 0.000000
  4 16.558933 47.218704 15.967008 1.570796 -1.570796 0.000000
  5 -11.616766 35.769665 -19.831139 1.570796 -1.570796 0.000000
  6 -11.850057 43.138416 22.623577 1.570796 -1.570796 0.000000
  7 26.139559 59.971519 -5.658656 1.570796 1.570796 0.000000
  8 26.355848 59.971516 5.158387 1.570796 1.570796 0.000000
  9 17.187601 41.430359 0.000009 1.570796 1.570796 0.000000
  10 -0.000001 -17.187595 -0.000000 1.500912 0.239201 1.554213
  11 -0.000001 9.251829 0.000000 -0.079380 0.116535 -0.406281
  12 3.332968 6.058992 0.446928 0.136712 -0.021957 -0.341728
  13 -0.000000 4.780091 0.000000 1.284319 0.253606 -2.959958
  14 0.000001 10.318099 0.000002 -0.687050 0.130780 0.580866
  15 0.000001 10.229100 0.000000 -0.268529 0.148318 0.682885
  16 -0.000003 17.897512 0.000001 0.557682 -0.540881 0.100091
  17 0.000002 4.707226 0.000001 -1.461859 -0.031289 -0.183280
  18 0.728848 19.043221 -1.873961 -0.344405 -0.342683 0.561142
  19 -0.000001 2.947695 0.000000 0.591003 0.259473 -0.900673
  20 3.428583 20.943243 2.264679 1.104893 -2.377475 0.684445
  21 0.002827 4.780091 -0.021077 -1.880463 -0.127749 -0.177834
  22 0.000000 10.318098 -0.000000 0.151528 1.890181 -0.157772
  23 -0.000001 10.229100 -0.000000 1.218792 -0.408243 0.570607
  24 0.000002 17.897503 0.000004 0.200150 1.177644 0.736645
  25 -0.000001 5.176008 0.000000 0.639256 0.043897 -0.897213
  26 1.018114 18.909685 0.424827 0.948147 0.856632 0.665099
  27 0.000000 3.158195 -0.000000 -0.837782 -0.199800 -0.549748
  28 -0.000001 -17.187595 -0.000000 -1.570796 -0.000000 1.416035
  29 0.000001 3.905659 -4.525525 -0.164918 -0.103840 0.454870
  30 0.000000 13.357020 -0.000001 0.053980 -0.004141 0.224988
  31 -0.000003 18.158888 -0.000000 -1.447844 1.609456 -1.571261
  32 0.000000 2.542066 -0.000000 1.558254 0.000018 0.000000
  33 -0.000000 3.135158 0.000003 -0.086398 0.000000 0.000000
  34 -0.000002 3.905660 4.546789 0.258076 0.110106 -0.952734
  35 0.000000 13.407273 -0.000001 -0.156421 0.032723 0.376782
  36 0.000002 18.158886 -0.000003 -1.251787 -1.532149 1.571420
  37 -0.000000 2.542064 -0.000000 1.558254 -3.141546 0.000000
  38 -0.000000 3.135158 -0.000000 -0.091756 0.342973 -0.030933
  39 4.301485 1.405968 0.000001 -0.028807 0.386164 -0.228675
  40 0.000000 7.030431 -0.000000 0.125731 0.011013 -0.067506
  time 1
  0 7.268085 -15.485830 -8.454771 -0.029194 0.000000 -3.141593
  1 -5.962544 16.518490 -19.847342 0.476577 0.000000 3.141593
  2 0.907535 -3.182838 55.465324 -1.570796 0.000000 1.570796
  3 19.663124 48.991341 -11.022179 1.570796 -1.570795 0.000000
  4 8.147272 47.158077 16.892742 1.570796 -1.570796 0.000000
  5 -17.141825 32.869919 -22.972515 1.570796 -1.570796 0.000000
  6 -17.141844 48.209297 20.218109 1.570796 -1.570796 0.000000
  7 25.569336 59.971519 -5.658656 1.570796 1.570796 0.000000
  8 26.355850 59.971516 3.282994 1.570796 1.570796 0.000000
  9 17.187601 47.009056 0.000009 1.570796 1.570796 0.000000
  10 -0.000001 -17.187595 -0.000000 1.457994 0.267313 1.573195
  11 -0.000002 9.251828 0.000001 -0.295963 0.376131 -0.422978
  12 3.332966 6.058994 0.446928 0.284757 -0.209126 -0.332635
  13 -0.000000 4.780092 0.000000 1.284319 0.253606 -2.959958
  14 -0.000001 10.318098 0.000001 -0.395865 0.146704 -0.063897
  15 0.000001 10.229102 0.000000 -0.432319 0.446735 1.487300
  16 0.000001 17.897512 -0.000005 0.501053 -0.709393 -0.007064
  17 -0.000000 4.707227 -0.000001 -1.464915 -0.029921 -0.185483
  18 1.074861 19.060041 -1.941354 -0.472039 -0.472270 0.471468
  19 -0.000000 2.947696 -0.000000 0.591003 0.259473 -0.900673
  20 3.290197 20.779572 2.548906 1.266015 -2.501701 0.439650
  21 0.002824 4.780093 -0.021077 -1.880463 -0.127748 -0.177833
  22 0.000002 10.318098 -0.000002 -0.166921 1.815250 0.088423
  23 -0.000001 10.229097 -0.000002 1.852114 -0.766178 0.585728
  24 -0.000006 17.897503 -0.000001 -0.436901 0.982949 0.199938
  25 -0.000000 5.176010 -0.000001 0.471437 -0.027953 -0.775142
  26 0.879477 19.063444 0.435579 0.189215 0.612755 0.209354
  27 -0.000001 3.158195 0.000002 -0.837782 -0.199801 -0.549748
  28 -0.000001 -17.187595 -0.000000 -1.668767 -0.060554 1.162550
  29 0.000001 3.905659 -4.525524 -0.005452 -0.517821 -0.607024
  30 -0.000001 13.357019 -0.000001 0.225715 -0.332772 1.959486
  31 -0.000000 18.158878 -0.000000 -1.447836 1.609456 -1.571256
  32 0.000000 2.542061 0.000002 1.558254 0.000018 0.000000
  33 0.000001 3.135155 -0.000000 -0.086601 0.005087 0.005997
  34 -0.000000 3.905660 4.546788 0.576409 0.060072 -0.861042
  35 0.000000 13.407271 -0.000003 -0.232603 0.071989 0.575698
  36 -0.000000 18.158876 -0.000003 -1.189040 -1.532152 1.571394
  37 -0.000000 2.542062 0.000001 1.558254 -3.141546 -0.000000
  38 -0.000000 3.135157 0.000001 -0.091756 0.342973 -0.030933
  39 4.301485 1.405968 -0.000000 0.086267 -0.242363 -0.402907
  40 0.000000 7.030433 0.000001 -0.061105 0.025977 0.164209
  time 2
  0 7.691067 -5.533963 -8.629215 0.059104 0.000000 -3.141593
  1 -6.275075 1.563380 -19.518499 -0.157065 0.022359 -3.004887
  2 0.907535 -3.182838 55.465324 -1.570796 0.000000 1.570796
  3 17.941801 52.013035 -12.578049 1.570796 -1.570795 0.000000
  4 11.301961 46.562737 15.988163 1.570796 -1.570796 0.000000
  5 -17.141829 33.682049 -19.779528 1.570796 -1.570796 0.000000
  6 -16.683580 46.603268 21.490582 1.570796 -1.570796 0.000000
  7 24.763157 59.971519 -5.658656 1.570796 1.570796 0.000000
  8 26.355850 59.971519 2.273167 1.570796 1.570796 0.000000
  9 17.187601 45.562725 0.000009 1.570796 1.570796 0.000000
  10 -0.000001 -17.187595 -0.000000 1.516449 0.267586 1.606287
  11 -0.000002 9.251827 0.000000 -0.183098 0.301383 -0.350190
  12 3.332966 6.058993 0.446929 0.195758 -0.196893 -0.329575
  13 -0.000000 4.780092 0.000000 1.284319 0.253606 -2.959958
  14 0.000003 10.318098 0.000000 -0.544289 0.108607 0.059946
  15 0.000001 10.229109 0.000000 -0.406417 0.337304 1.223362
  16 -0.000004 17.897518 -0.000002 0.390720 -0.729293 0.026982
  17 -0.000001 4.707226 -0.000001 -1.467895 -0.028592 -0.187631
  18 1.107847 18.957272 -1.943468 -0.588998 -0.465977 0.514140
  19 -0.000001 2.947696 -0.000000 0.591003 0.259473 -0.900673
  20 3.205645 20.839317 2.515837 1.338531 -2.506641 0.380633
  21 0.002826 4.780092 -0.021077 -1.880463 -0.127749 -0.177834
  22 -0.000001 10.318098 -0.000000 -0.008677 1.939420 -0.018734
  23 0.000000 10.229099 0.000002 1.647060 -0.660017 0.611081
  24 -0.000008 17.897505 -0.000001 -0.443495 0.963603 0.133568
  25 -0.000002 5.176011 -0.000000 0.512804 -0.038089 -0.716011
  26 0.921232 19.017227 0.421494 0.166747 0.766400 -0.038759
  27 -0.000001 3.158195 0.000001 -0.815324 -0.200531 -0.573608
  28 -0.000001 -17.187595 -0.000000 -1.639325 -0.048151 1.284362
  29 0.000001 3.905660 -4.525524 0.048502 -0.337999 -1.305570
  30 0.000000 13.357017 -0.000001 0.207660 -0.366223 2.120853
  31 -0.000001 18.158882 -0.000004 1.605452 1.532135 1.570335
  32 -0.000000 2.542064 0.000000 1.558254 0.000018 0.000000
  33 0.000000 3.135157 0.000002 -0.086559 0.017916 0.021094
  34 -0.000000 3.905659 4.546789 0.532290 0.120951 -0.706175
  35 0.000000 13.407277 -0.000002 -0.393699 0.255304 1.133742
  36 0.000002 18.158876 -0.000003 0.240933 -1.723342 -0.491146
  37 -0.000000 2.542067 -0.000001 1.558254 -3.141546 0.000000
  38 0.000000 3.135156 0.000003 -0.037750 0.332707 0.044513
  39 4.301485 1.405968 0.000000 0.315572 -0.850151 -0.587369
  40 0.000001 7.030432 -0.000000 -0.244027 0.074550 0.313279
  time 3
  0 8.621623 4.675984 -9.850306 0.255598 0.000000 -3.141593
  1 -6.587605 -13.391727 -17.435461 0.166695 -0.000000 -2.868101
  2 0.907535 -3.182838 55.465324 -1.570796 0.000000 1.570796
  3 14.154887 50.207443 -16.000957 1.570796 -1.570795 0.000000
  4 14.667858 39.534664 12.535675 1.570796 -1.570796 0.000000
  5 -17.141832 35.468731 -12.754967 1.570796 -1.570796 0.000000
  6 -15.568778 43.069992 24.849688 1.570796 -1.570796 0.000000
  7 23.839003 59.971519 -5.658657 1.570796 1.570796 0.000000
  8 26.355848 59.971516 5.158387 1.570796 1.570796 0.000000
  9 17.187601 42.876686 0.000009 1.570796 1.570796 0.000000
  10 -0.000001 -17.187595 -0.000000 1.636993 0.262914 1.635954
  11 0.000001 9.251826 0.000000 0.037812 0.107482 -0.286334
  12 3.332968 6.058991 0.446928 0.000385 -0.162860 -0.336793
  13 0.000001 4.780091 0.000000 1.284319 0.253606 -2.959958
  14 0.000002 10.318095 0.000001 -0.494459 0.142245 -0.070041
  15 0.000002 10.229103 -0.000004 -0.420162 0.379497 1.326003
  16 0.000000 17.897505 -0.000004 0.321389 -0.733330 0.061715
  17 -0.000002 4.707223 0.000000 -1.470799 -0.027300 -0.189722
  18 1.123545 18.885145 -1.939808 -0.634781 -0.458252 0.535748
  19 -0.000002 2.947697 -0.000000 0.591003 0.259473 -0.900673
  20 3.194358 20.934408 2.426040 1.387448 -2.497980 0.351565
  21 0.002827 4.780090 -0.021077 -1.880463 -0.127749 -0.177834
  22 0.000001 10.318098 0.000001 0.603712 1.967491 0.633776
  23 -0.000002 10.229102 0.000001 1.804805 -0.743102 0.594075
  24 -0.000003 17.897520 0.000000 -0.361840 0.955383 0.100816
  25 0.000000 5.176013 0.000001 0.578860 -0.007717 -0.694926
  26 1.013110 18.915560 0.390503 0.288026 0.990036 -0.013516
  27 -0.000001 3.158198 0.000000 -0.765877 -0.200287 -0.626141
  28 -0.000001 -17.187595 -0.000000 -1.568936 -0.033431 1.559889
  29 0.000001 3.905660 -4.525525 -0.167319 -0.323771 -1.393065
  30 -0.000001 13.357019 -0.000000 0.242033 -0.274535 1.704736
  31 0.000003 18.158880 -0.000002 1.408974 1.532132 1.570341
  32 -0.000001 2.542065 0.000001 1.558254 0.000018 0.000000
  33 -0.000000 3.135159 -0.000001 -0.086102 0.034830 0.040957
  34 -0.000002 3.905660 4.546790 0.300789 0.077446 -0.078043
  35 0.000001 13.407274 -0.000003 -0.321980 0.148398 0.844107
  36 0.000002 18.158878 -0.000003 0.294343 -1.850071 -0.216564
  37 0.000000 2.542064 -0.000001 1.558254 -3.141546 -0.000000
  38 0.000000 3.135154 0.000002 0.515089 0.285439 0.104458
  39 4.301485 1.405969 0.000002 0.180517 -0.752229 -0.575813
  40 0.000000 7.030431 -0.000000 -0.149353 0.092313 0.077938
  time 4
  0 9.552177 12.930452 -13.164692 0.452092 0.000000 -3.141593
  1 -7.017333 -20.405918 -13.411840 0.579069 0.000000 3.141593
  2 0.907535 -3.182838 55.465324 -1.570796 0.000000 1.570796
  3 10.367975 48.774899 -19.423866 1.570796 -1.570795 0.000000
  4 19.441843 34.095039 7.158945 1.570796 -1.570796 0.000000
  5 -17.141832 37.255405 -5.730406 1.570796 -1.570796 0.000000
  6 -14.187412 39.536720 29.607975 1.570796 -1.570796 0.000000
  7 22.914846 59.971519 -5.658657 1.570796 1.570796 0.000000
  8 26.355848 59.971516 5.158387 1.570796 1.570796 0.000000
  9 17.187601 41.430359 0.000009 1.570796 1.570796 0.000000
  10 -0.000001 -17.187595 -0.000000 1.755371 0.255394 1.656480
  11 0.000000 9.251827 0.000001 0.244892 -0.093329 -0.278269
  12 3.332968 6.058991 0.446929 -0.191530 -0.117708 -0.376539
  13 0.000001 4.780091 0.000000 1.284319 0.253606 -2.959958
  14 -0.000001 10.318098 0.000001 -0.481517 0.334156 -0.173281
  15 0.000000 10.229101 0.000000 -0.429506 0.423836 1.432383
  16 -0.000002 17.897514 -0.000006 0.278298 -0.742281 0.104310
  17 -0.000002 4.707225 -0.000002 -1.473628 -0.026045 -0.191759
  18 1.146432 18.802797 -1.921078 -0.655439 -0.452777 0.549913
  19 -0.000001 2.947695 0.000001 0.591003 0.259473 -0.900673
  20 3.175081 21.056915 2.355972 1.439111 -2.492708 0.327825
  21 0.002827 4.780091 -0.021077 -1.880463 -0.127748 -0.177834
  22 0.000003 10.318099 0.000001 1.224548 1.886425 1.089395
  23 0.000001 10.229101 0.000001 1.776765 -0.728999 0.598329
  24 -0.000001 17.897507 0.000006 -0.507791 0.948530 -0.089335
  25 -0.000001 5.176008 -0.000000 0.615225 0.024080 -0.587112
  26 1.104983 18.813862 0.359517 0.654955 1.149024 0.369320
  27 -0.000001 3.158195 0.000002 -0.716590 -0.197506 -0.678515
  28 -0.000001 -17.187595 -0.000000 -1.497059 -0.037394 1.835804
  29 0.000000 3.905660 -4.525524 -0.437813 -0.250969 -1.010315
  30 0.000001 13.357021 -0.000001 0.200461 -0.103599 0.967281
  31 0.000009 18.158890 -0.000004 1.212493 1.532128 1.570358
  32 -0.000000 2.542063 0.000000 1.558254 0.000018 0.000000
  33 0.000000 3.135157 0.000001 -0.085242 0.052175 0.061261
  34 -0.000000 3.905660 4.546789 0.260998 0.337593 0.179987
  35 -0.000001 13.407276 -0.000001 -0.292154 0.118195 0.748083
  36 -0.000002 18.158894 -0.000004 -1.086490 -1.532156 1.571332
  37 0.000000 2.542064 -0.000001 1.558254 -3.141546 -0.000000
  38 0.000000 3.135160 -0.000001 -0.091756 0.342973 -0.030933
  39 4.301484 1.405968 0.000001 -0.004376 -0.475594 -0.538904
  40 -0.000000 7.030432 -0.000000 0.017695 0.186845 -0.385614
  time 5
  0 9.975159 16.594872 -19.960665 0.540390 -0.000000 -3.141593
  1 -6.965055 -17.660885 -11.460276 0.579069 0.000000 3.141593
  2 0.907535 -3.182838 55.465324 -1.570796 0.000000 1.570796
  3 8.646651 54.516476 -20.979736 1.570796 -1.570795 0.000000
  4 19.660168 41.088757 5.356388 1.570796 -1.570796 0.000000
  5 -17.141834 38.067539 -2.537421 1.570796 -1.570796 0.000000
  6 -12.929463 37.930687 35.078003 1.570796 -1.570796 0.000000
  7 22.108669 59.971519 -5.658657 1.570796 1.570796 0.000000
  8 26.355848 59.971516 5.158387 1.570796 1.570796 0.000000
  9 17.187601 46.622631 0.000009 1.570796 1.570796 0.000000
  10 -0.000001 -17.187595 -0.000000 1.808431 0.250964 1.663865
  11 0.000001 9.251827 0.000002 0.337456 -0.181350 -0.290207
  12 3.332967 6.058993 0.446929 -0.275365 -0.071265 -0.459520
  13 0.000001 4.780092 0.000001 1.284319 0.253606 -2.959958
  14 0.000000 10.318100 -0.000000 -0.389657 0.431098 -0.087636
  15 -0.000002 10.229103 -0.000003 -0.427418 0.411480 1.402792
  16 0.000000 17.897518 0.000002 0.241070 -0.775448 0.167224
  17 0.000001 4.707226 0.000000 -1.476383 -0.024827 -0.193742
  18 1.201002 18.669289 -1.877976 -0.696630 -0.449918 0.569625
  19 0.000001 2.947696 0.000000 0.591004 0.259473 -0.900673
  20 3.066570 21.198839 2.382071 1.517266 -2.511168 0.287956
  21 0.002825 4.780093 -0.021077 -1.880463 -0.127749 -0.177834
  22 0.000002 10.318095 -0.000001 0.786622 1.928968 0.703214
  23 -0.000000 10.229102 0.000001 1.758593 -0.719697 0.600807
  24 -0.000002 17.897509 -0.000002 -0.514107 1.020277 0.027990
  25 0.000001 5.176011 0.000000 0.349165 0.058344 -0.327910
  26 1.146742 18.767645 0.345419 0.928167 1.175640 0.670018
  27 -0.000000 3.158195 0.000002 -0.694310 -0.195412 -0.702197
  28 -0.000001 -17.187595 -0.000000 -1.465636 -0.043053 1.957982
  29 0.000001 3.905660 -4.525525 -0.559202 0.016493 -0.793525
  30 -0.000001 13.357018 -0.000001 0.094513 -0.017257 0.400872
  31 -0.000003 18.158880 -0.000001 1.124212 1.532127 1.570379
  32 0.000001 2.542061 0.000001 1.558254 0.000018 -0.000000
  33 0.000000 3.135156 -0.000002 -0.084267 0.066314 0.077671
  34 -0.000002 3.905661 4.546789 0.261170 0.588669 -0.306873
  35 -0.000001 13.407275 -0.000002 -0.436041 0.409777 1.500271
  36 -0.000000 18.158884 0.000002 -1.086491 -1.532156 1.571339
  37 -0.000000 2.542063 -0.000002 1.558254 -3.141546 0.000000
  38 -0.000000 3.135159 -0.000000 -0.091756 0.342973 -0.030933
  39 4.301485 1.405967 0.000001 -0.122247 -0.092981 -0.365591
  40 0.000002 7.030430 -0.000001 0.084508 0.263585 -0.625699
  time 6
  0 8.972538 0.810466 -19.548140 -0.099579 0.000492 3.041613
  1 -6.646048 -5.160594 -11.175419 0.579069 0.000000 3.141593
  2 0.907535 -3.182838 55.465324 -1.570796 0.000000 1.570796
  3 9.264622 57.125595 -19.269367 1.570796 -1.570795 0.000000
  4 21.503616 45.574783 4.713157 1.570796 -1.570796 0.000000
  5 -17.141832 37.687351 -5.186415 1.570796 -1.570796 0.000000
  6 -12.123203 40.534550 40.216434 1.570796 -1.570796 0.000000
  7 21.538446 59.971519 -5.658658 1.570796 1.570796 0.000000
  8 26.355848 59.971516 5.158387 1.570796 1.570796 0.000000
  9 17.187601 44.971142 0.000009 1.570796 1.570796 0.000000
  10 -0.000001 -17.187595 -0.000000 1.720564 0.253327 1.650759
  11 0.000002 9.251827 0.000001 0.267962 -0.087573 -0.329090
  12 3.332969 6.058992 0.446929 -0.271961 0.004500 -0.584801
  13 0.000001 4.780091 0.000000 1.284319 0.253606 -2.959958
  14 -0.000000 10.318099 0.000001 -0.565971 0.366335 0.032543
  15 0.000001 10.229103 0.000003 -0.369451 0.262766 1.033051
  16 0.000001 17.897509 -0.000004 0.143631 -0.901949 0.324356
  17 -0.000001 4.707225 0.000000 -1.479065 -0.023642 -0.195670
  18 1.510438 18.570070 -1.841815 -0.817699 -0.542493 0.679327
  19 -0.000002 2.947696 -0.000001 0.591003 0.259473 -0.900673
  20 2.601240 21.379856 2.490701 1.610992 -2.631162 0.306258
  21 0.002827 4.780091 -0.021077 -1.880463 -0.127749 -0.177834
  22 0.000003 10.318095 0.000000 0.222651 1.921569 -0.453438
  23 0.000000 10.229105 0.000000 1.256603 -0.430618 0.579082
  24 0.000003 17.897520 0.000002 -0.514106 1.020277 0.027990
  25 0.000001 5.176013 0.000002 0.349165 0.058344 -0.327910
  26 1.146747 18.767656 0.345425 0.928167 1.175640 0.670018
  27 0.000001 3.158197 -0.000001 -0.871418 -0.176914 -0.487299
  28 -0.000001 -17.187595 -0.000000 -1.508376 -0.025459 1.765005
  29 0.000000 3.905659 -4.525525 -0.435545 -0.064039 -0.734100
  30 0.000001 13.357024 0.000000 0.221261 -0.139783 1.137169
  31 -0.000002 18.158880 -0.000000 -0.242043 1.680682 -0.433893
  32 -0.000001 2.542063 0.000000 1.558254 0.000018 -0.000000
  33 -0.000001 3.135159 -0.000001 0.147289 0.064342 0.095431
  34 0.000000 3.905661 4.546789 0.210119 0.425705 -1.050607
  35 -0.000002 13.407273 -0.000002 -0.430242 0.511183 1.743742
  36 0.000004 18.158886 -0.000003 -1.086490 -1.532156 1.571339
  37 0.000001 2.542065 -0.000001 1.558254 -3.141546 -0.000000
  38 0.000001 3.135157 -0.000000 -0.091756 0.342973 -0.030933
  39 4.301486 1.405967 0.000000 -0.109759 0.246559 -0.090279
  40 -0.000000 7.030432 0.000001 0.107110 0.209030 -0.087393
  time 7
  0 7.969918 -14.973941 -19.135614 -0.109412 -0.000000 2.944412
  1 -6.205409 10.538612 -11.154194 0.496581 0.000000 3.141593
  2 0.907535 -3.182838 55.465324 -1.570796 0.000000 1.570796
  3 9.882594 55.215988 -17.558996 1.570796 -1.570795 0.000000
  4 15.634194 46.991669 12.163762 1.570796 -1.570796 0.000000
  5 -17.141834 36.720009 -7.835409 1.570796 -1.570796 0.000000
  6 -11.850066 43.138416 42.556496 1.570796 -1.570796 0.000000
  7 21.322155 59.971519 -5.658658 1.570796 1.570796 0.000000
  8 26.355848 59.971516 5.158387 1.570796 1.570796 0.000000
  9 17.187601 42.671429 0.000009 1.570796 1.570796 0.000000
  10 -0.000001 -17.187595 -0.000000 1.622817 0.243917 1.588475
  11 0.000002 9.251825 0.000001 0.106894 -0.010961 -0.369163
  12 3.332966 6.058994 0.446928 -0.275405 0.094059 -0.707039
  13 0.000000 4.780091 0.000000 1.284319 0.253606 -2.959958
  14 0.000000 10.318103 -0.000001 -0.767825 0.316375 0.114327
  15 0.000000 10.229099 0.000003 -0.315769 0.192311 0.831023
  16 -0.000005 17.897509 -0.000004 0.036007 -0.996203 0.472573
  17 -0.000001 4.707225 0.000001 -1.481675 -0.022491 -0.197544
  18 1.782353 18.565908 -1.811555 -0.923813 -0.606064 0.825388
  19 -0.000001 2.947693 0.000000 0.591003 0.259473 -0.900673
  20 2.225739 21.482910 2.554253 -1.480615 -0.412925 -2.787549
  21 0.002826 4.780093 -0.021077 -1.880463 -0.127749 -0.177834
  22 -0.000000 10.318096 0.000000 0.017813 2.182039 -0.139403
  23 -0.000000 10.229103 -0.000001 1.400617 -0.516794 0.602997
  24 -0.000004 17.897503 0.000000 -0.514106 1.020277 0.027990
  25 -0.000001 5.176008 -0.000002 0.349165 0.058343 -0.327910
  26 1.146739 18.767637 0.345424 0.928166 1.175641 0.670018
  27 -0.000001 3.158195 0.000001 -1.039950 -0.122131 -0.279692
  28 -0.000001 -17.187595 -0.000000 -1.598262 -0.020528 1.393790
  29 0.000002 3.905660 -4.525524 -0.144707 -0.187572 0.079522
  30 0.000002 13.357012 -0.000002 0.124000 -0.032189 0.536831
  31 0.000002 18.158884 -0.000006 -0.069410 1.774738 -0.269233
  32 0.000000 2.542063 0.000001 1.558254 0.000018 0.000000
  33 0.000001 3.135155 0.000001 0.378131 0.054339 0.104622
  34 -0.000002 3.905660 4.546790 0.470269 0.288930 -1.271735
  35 -0.000001 13.407273 -0.000001 -0.419690 0.322300 1.295626
  36 0.000003 18.158880 -0.000002 -1.169012 -1.532153 1.571376
  37 0.000000 2.542065 -0.000001 1.558254 -3.141546 -0.000000
  38 -0.000000 3.135157 -0.000001 -0.091756 0.342973 -0.030933
  39 4.301485 1.405969 0.000001 0.035451 0.376512 0.080973
  40 -0.000000 7.030430 -0.000001 0.069973 0.061818 0.421191
end
