version 1
nodes
0 "ShinIK.R" -1
1 "ShinIK.L" -1
2 "All.000" -1
3 "ForearmIK.R" 2
4 "ForearmIK.L" 2
5 "UpperarmIK.R" 2
6 "UpperarmIK.L" 2
7 "KneeIK.R" 2
8 "KneeIK.L" 2
9 "Spine.009" 2
10 "Spine.001" 9
11 "Spine.002" 10
12 "Spine.004" 11
13 "Arm.R.001" 11
14 "Arm.R.002" 13
15 "Arm.R.003" 14
16 "Arm.R.004" 15
17 "Arm.R.005" 16
18 "Arm.R.006" 15
19 "Arm.R.007" 18
20 "Wep.000" 15
21 "Arm.L.001" 11
22 "Arm.L.002" 21
23 "Arm.L.003" 22
24 "Arm.L.004" 23
25 "Arm.L.005" 24
26 "Arm.L.006" 23
27 "Arm.L.007" 26
28 "Spine.000" 9
29 "Leg.R.001" 28
30 "Leg.R.002" 29
31 "Leg.R.003" 30
32 "Leg.R.004" 31
33 "Leg.R.005" 32
34 "Leg.L.001" 28
35 "Leg.L.002" 34
36 "Leg.L.003" 35
37 "Leg.L.004" 36
38 "Leg.L.005" 37
39 "Loincloth.000" 28
40 "Loincloth.001" 39
end
skeleton
  time 0
  0 7.268085 -21.130533 -15.931740 -0.029194 0.000000 -3.141593
  1 -5.962544 18.873014 -12.099874 0.413855 0.000000 3.141593
  2 0.907535 -3.182838 55.465324 -1.570796 0.000000 1.570796
  3 12.817963 53.337929 -13.892647 1.570796 -1.570795 0.000000
  4 15.068458 41.219101 14.730545 1.570796 -1.570796 0.000000
  5 -17.024010 35.525795 -10.880588 1.570796 -1.570796 0.000000
  6 -12.952353 38.748543 34.978050 1.570796 -1.570796 0.000000
  7 36.471352 74.616173 -11.435575 1.570796 1.570796 0.000000
  8 26.355848 59.971516 5.158387 1.570796 1.570796 0.000000
  9 17.187601 41.430359 0.000009 1.570796 1.570796 0.000000
  10 -0.000001 -17.187595 -0.000000 1.500912 0.239201 1.554213
  11 -0.000001 9.251829 0.000000 -0.079380 0.116535 -0.406281
  12 3.332968 6.058992 0.446928 0.136712 -0.021957 -0.341728
  13 -0.000000 4.780091 0.000000 1.284319 0.253606 -2.959958
  14 0.000001 10.318099 0.000002 -0.993548 0.352565 0.197074
  15 0.000001 10.229101 0.000002 -0.268529 0.148318 0.682885
  16 -0.000002 17.897511 0.000001 0.501053 -0.709393 -0.007064
  17 -0.000001 4.707226 0.000000 -1.539284 0.006329 -0.235484
  18 1.074854 19.060038 -1.941350 -0.472039 -0.472270 0.471468
  19 0.000000 2.947695 0.000000 0.591004 0.259473 -0.900673
  20 3.290195 20.779572 2.548913 1.299186 -2.486014 0.384006
  21 0.002827 4.780091 -0.021077 -1.880463 -0.127749 -0.177834
  22 0.000000 10.318098 -0.000000 -0.957666 1.953285 -0.742763
  23 -0.000000 10.229098 -0.000000 1.678707 -0.677375 0.609038
  24 0.000003 17.897493 -0.000001 -0.461731 0.702192 0.310928
  25 -0.000001 5.176008 -0.000001 0.351989 0.055253 -0.340178
  26 0.999301 18.930820 0.395160 -0.040195 0.792079 -0.341460
  27 0.000001 3.158194 0.000000 -1.039942 -0.122136 -0.279704
  28 -0.000001 -17.187595 -0.000000 -1.570796 -0.000000 1.416035
  29 0.000001 3.905659 -4.525525 -0.176775 -0.008169 0.441442
  30 0.000001 13.357018 -0.000003 0.053980 -0.004141 0.224988
  31 0.000000 18.158882 -0.000001 -1.447840 1.609456 -1.571257
  32 -0.000000 2.542063 0.000003 1.558254 0.000018 0.000000
  33 0.000000 3.135154 0.000001 -0.086398 0.000000 0.000000
  34 -0.000002 3.905660 4.546789 0.258076 0.110106 -0.952734
  35 0.000000 13.407273 -0.000001 -0.156421 0.032723 0.376782
  36 0.000002 18.158886 -0.000003 -1.251787 -1.532149 1.571420
  37 -0.000000 2.542064 -0.000000 1.558254 -3.141546 0.000000
  38 -0.000000 3.135158 -0.000000 -0.091756 0.342973 -0.030933
  39 4.301485 1.405968 0.000001 0.035382 0.375933 0.080907
  40 -0.000001 7.030433 -0.000002 0.063729 0.056654 0.417471
  time 1
  0 7.268085 -21.130245 -15.131355 -0.029194 0.000000 -3.141593
  1 -5.962544 18.872894 -12.757090 0.414504 0.000000 3.141593
  2 0.907535 -3.182838 55.465324 -1.570796 0.000000 1.570796
  3 14.503012 53.264519 -13.848252 1.570796 -1.570795 0.000000
  4 14.673165 41.297810 14.731236 1.570796 -1.570796 0.000000
  5 -16.682039 35.691422 -10.648023 1.570796 -1.570796 0.000000
  6 -13.001557 38.851501 34.794987 1.570796 -1.570796 0.000000
  7 36.467129 74.334961 -11.324641 1.570796 1.570796 0.000000
  8 26.355848 59.971516 5.147610 1.570796 1.570796 0.000000
  9 17.187601 41.452747 0.000009 1.570796 1.570796 0.000000
  10 -0.000001 -17.187595 -0.000001 1.500680 0.242108 1.554095
  11 0.000000 9.251825 0.000000 -0.087124 0.126138 -0.405875
  12 3.332968 6.058993 0.446929 0.154311 -0.025131 -0.337934
  13 0.000001 4.780091 -0.000000 1.284319 0.253606 -2.959958
  14 0.000001 10.318099 -0.000000 -1.012059 0.471395 0.238042
  15 -0.000004 10.229105 0.000000 -0.232160 0.121986 0.579055
  16 -0.000005 17.897514 0.000000 0.501053 -0.709393 -0.007064
  17 0.000000 4.707227 -0.000000 -1.539689 0.006735 -0.235589
  18 1.074854 19.060040 -1.941350 -0.472039 -0.472270 0.471468
  19 -0.000001 2.947696 0.000000 0.591003 0.259473 -0.900673
  20 3.290189 20.779573 2.548915 1.334388 -2.471619 0.326128
  21 0.002826 4.780092 -0.021077 -1.880463 -0.127749 -0.177834
  22 -0.000000 10.318101 -0.000001 -0.941322 1.953554 -0.711743
  23 0.000001 10.229107 0.000000 1.697809 -0.687697 0.607468
  24 -0.000001 17.897514 0.000004 -0.461103 0.703721 0.311937
  25 0.000000 5.176010 -0.000000 0.354092 0.052999 -0.349217
  26 0.986473 18.945038 0.399492 -0.030532 0.781197 -0.329506
  27 -0.000000 3.158196 -0.000000 -1.039882 -0.122169 -0.279786
  28 -0.000001 -17.187595 -0.000000 -1.582295 -0.001206 1.389051
  29 -0.000000 3.905660 -4.525524 -0.207652 -0.066656 0.310791
  30 0.000001 13.357014 -0.000003 0.110739 -0.024849 0.474572
  31 -0.000004 18.158882 -0.000001 -1.447843 1.609456 -1.571257
  32 -0.000000 2.542061 0.000003 1.558254 0.000018 0.000000
  33 -0.000000 3.135157 -0.000001 -0.086441 0.000003 0.000003
  34 -0.000002 3.905661 4.546788 0.265059 0.070481 -0.868380
  35 0.000001 13.407277 -0.000001 -0.108074 0.016854 0.257591
  36 -0.000000 18.158882 -0.000001 -1.251142 -1.532149 1.571423
  37 -0.000000 2.542062 0.000001 1.558254 -3.141546 0.000000
  38 -0.000000 3.135158 0.000000 -0.091756 0.342973 -0.030933
  39 4.301486 1.405969 0.000000 0.035302 0.375334 0.080790
  40 0.000000 7.030432 -0.000000 0.057966 0.052267 0.411331
  time 2
  0 7.268085 -21.128239 -14.390230 -0.029194 0.000000 -3.141593
  1 -5.962544 18.872057 -13.378872 0.416236 0.000000 3.141593
  2 0.907535 -3.182838 55.465324 -1.570796 0.000000 1.570796
  3 16.063303 53.067188 -13.719575 1.570796 -1.570795 0.000000
  4 14.294209 41.416325 14.733107 1.570796 -1.570796 0.000000
  5 -16.133162 35.957253 -10.432679 1.570796 -1.570796 0.000000
  6 -13.077804 39.016750 34.518127 1.570796 -1.570796 0.000000
  7 36.462376 74.053001 -11.213415 1.570796 1.570796 0.000000
  8 26.355848 59.971516 5.116329 1.570796 1.570796 0.000000
  9 17.187601 41.517654 0.000009 1.570796 1.570796 0.000000
  10 -0.000001 -17.187595 -0.000000 1.500094 0.244795 1.553972
  11 -0.000000 9.251827 0.000001 -0.094880 0.135752 -0.405544
  12 3.332968 6.058993 0.446928 0.170440 -0.029405 -0.334601
  13 -0.000001 4.780093 0.000000 1.284319 0.253606 -2.959958
  14 -0.000000 10.318099 0.000000 -1.024336 0.579315 0.274275
  15 -0.000001 10.229103 0.000000 -0.198538 0.102242 0.488289
  16 -0.000001 17.897524 0.000003 0.501053 -0.709393 -0.007064
  17 0.000000 4.707228 0.000000 -1.540066 0.007138 -0.235669
  18 1.074859 19.060053 -1.941346 -0.472039 -0.472270 0.471468
  19 -0.000000 2.947697 0.000002 0.591004 0.259472 -0.900673
  20 3.290195 20.779583 2.548918 1.371566 -2.458687 0.266074
  21 0.002827 4.780091 -0.021077 -1.880463 -0.127749 -0.177834
  22 0.000000 10.318100 0.000002 -0.923531 1.952966 -0.681072
  23 -0.000001 10.229099 -0.000002 1.715707 -0.697256 0.605769
  24 -0.000003 17.897505 -0.000003 -0.459451 0.708044 0.314503
  25 0.000000 5.176011 -0.000001 0.356725 0.050233 -0.360421
  26 0.974594 18.958174 0.403492 -0.020492 0.770867 -0.315075
  27 -0.000000 3.158194 -0.000000 -1.039718 -0.122258 -0.280010
  28 -0.000001 -17.187595 -0.000000 -1.592857 -0.002906 1.364107
  29 0.000000 3.905661 -4.525524 -0.220386 -0.114158 0.234027
  30 0.000001 13.357019 -0.000000 0.142754 -0.044545 0.628918
  31 0.000001 18.158886 -0.000002 -1.447836 1.609456 -1.571259
  32 0.000000 2.542065 -0.000001 1.558254 0.000018 0.000000
  33 0.000000 3.135159 0.000000 -0.086482 0.000020 0.000023
  34 -0.000001 3.905661 4.546789 0.235263 0.014117 -0.714319
  35 0.000000 13.407274 -0.000001 -0.003125 0.002855 0.007381
  36 0.000000 18.158882 0.000001 -1.249400 -1.532149 1.571414
  37 -0.000000 2.542063 0.000001 1.558254 -3.141546 0.000000
  38 -0.000000 3.135156 0.000002 -0.091756 0.342973 -0.030933
  39 4.301486 1.405969 0.000001 0.035205 0.374658 0.080621
  40 -0.000000 7.030431 -0.000001 0.052659 0.048578 0.402928
  time 3
  0 7.268085 -21.122789 -13.706085 -0.029194 0.000000 -3.141593
  1 -5.962544 18.869783 -13.966057 0.418807 0.000000 3.141593
  2 0.907535 -3.182838 55.465324 -1.570796 0.000000 1.570796
  3 17.503632 52.771431 -13.513353 1.570796 -1.570795 0.000000
  4 13.926499 41.567791 14.736751 1.570796 -1.570796 0.000000
  5 -15.394621 36.314945 -10.233891 1.570796 -1.570796 0.000000
  6 -13.178822 39.239101 34.155365 1.570796 -1.570796 0.000000
  7 36.457062 73.770432 -11.101945 1.570796 1.570796 0.000000
  8 26.355848 59.971516 5.066121 1.570796 1.570796 0.000000
  9 17.187601 41.621674 0.000009 1.570796 1.570796 0.000000
  10 -0.000001 -17.187595 -0.000000 1.499186 0.247273 1.553852
  11 0.000002 9.251826 0.000000 -0.102651 0.145378 -0.405287
  12 3.332966 6.058994 0.446928 0.185164 -0.034671 -0.331724
  13 -0.000002 4.780094 0.000001 1.284319 0.253606 -2.959958
  14 0.000002 10.318098 -0.000000 -1.032282 0.675714 0.304997
  15 0.000000 10.229108 -0.000001 -0.169587 0.088295 0.413069
  16 0.000001 17.897520 0.000001 0.501053 -0.709393 -0.007064
  17 -0.000001 4.707229 0.000001 -1.540419 0.007538 -0.235725
  18 1.074861 19.060047 -1.941349 -0.472039 -0.472270 0.471468
  19 0.000000 2.947697 0.000000 0.591003 0.259472 -0.900673
  20 3.290201 20.779581 2.548918 1.410619 -2.447388 0.203950
  21 0.002824 4.780094 -0.021077 -1.880463 -0.127749 -0.177833
  22 0.000001 10.318100 -0.000000 -0.904190 1.951185 -0.649775
  23 0.000000 10.229100 0.000000 1.733104 -0.706440 0.603907
  24 0.000003 17.897501 0.000005 -0.457015 0.714820 0.318141
  25 -0.000001 5.176008 0.000000 0.359861 0.047017 -0.373604
  26 0.963637 18.970303 0.407200 -0.010283 0.761044 -0.298744
  27 -0.000000 3.158195 0.000001 -1.039401 -0.122433 -0.280446
  28 -0.000001 -17.187595 -0.000000 -1.602515 -0.005014 1.341116
  29 0.000001 3.905660 -4.525524 -0.226171 -0.155844 0.176186
  30 0.000001 13.357013 -0.000002 0.165498 -0.063258 0.749397
  31 0.000000 18.158876 0.000001 -1.447841 1.609456 -1.571260
  32 0.000001 2.542061 -0.000000 1.558254 0.000018 0.000000
  33 -0.000000 3.135157 -0.000001 -0.086519 0.000066 0.000078
  34 -0.000001 3.905660 4.546790 0.257249 -0.004369 -0.702479
  35 0.000000 13.407275 -0.000002 -0.003128 0.002855 0.007389
  36 0.000003 18.158878 -0.000000 -1.246824 -1.532149 1.571411
  37 -0.000001 2.542064 0.000001 1.558254 -3.141546 0.000000
  38 -0.000000 3.135158 -0.000000 -0.091756 0.342973 -0.030933
  39 4.301485 1.405968 0.000001 0.035086 0.373849 0.080404
  40 -0.000000 7.030431 -0.000000 0.047785 0.045517 0.392414
  time 4
  0 7.268085 -21.112179 -13.076641 -0.029194 0.000000 -3.141593
  1 -5.962544 18.865358 -14.519478 0.422046 0.000000 3.141593
  2 0.907535 -3.182838 55.465324 -1.570796 0.000000 1.570796
  3 18.828802 52.394966 -13.236329 1.570796 -1.570795 0.000000
  4 13.568048 41.747185 14.742760 1.570796 -1.570796 0.000000
  5 -14.483656 36.756149 -10.050997 1.570796 -1.570796 0.000000
  6 -13.302345 39.513367 33.714603 1.570796 -1.570796 0.000000
  7 36.451164 73.487373 -10.990283 1.570796 1.570796 0.000000
  8 26.355848 59.971516 4.998565 1.570796 1.570796 0.000000
  9 17.187601 41.761402 0.000009 1.570796 1.570796 0.000000
  10 -0.000001 -17.187595 -0.000000 1.497984 0.249549 1.553741
  11 0.000001 9.251827 0.000001 -0.110437 0.155012 -0.405105
  12 3.332967 6.058992 0.446927 0.198552 -0.040823 -0.329289
  13 -0.000002 4.780093 0.000001 1.284319 0.253606 -2.959958
  14 -0.000001 10.318095 -0.000002 -1.038143 0.758546 0.327645
  15 0.000001 10.229102 -0.000001 -0.147947 0.079541 0.358214
  16 -0.000001 17.897512 -0.000000 0.501053 -0.709393 -0.007064
  17 0.000000 4.707224 -0.000001 -1.540746 0.007935 -0.235758
  18 1.074861 19.060040 -1.941353 -0.472039 -0.472270 0.471468
  19 0.000001 2.947695 -0.000001 0.591004 0.259472 -0.900673
  20 3.290197 20.779572 2.548914 1.451396 -2.437890 0.139910
  21 0.002825 4.780092 -0.021076 -1.880463 -0.127748 -0.177833
  22 0.000002 10.318098 -0.000001 -0.883030 1.948311 -0.617721
  23 -0.000001 10.229098 -0.000003 1.749938 -0.715224 0.601910
  24 0.000003 17.897505 0.000009 -0.453940 0.723755 0.322539
  25 -0.000000 5.176008 -0.000000 0.363472 0.043418 -0.388582
  26 0.953550 18.981472 0.410605 -0.000038 0.751685 -0.280913
  27 -0.000001 3.158194 0.000001 -1.038876 -0.122719 -0.281165
  28 -0.000001 -17.187595 -0.000000 -1.611306 -0.007454 1.319992
  29 0.000001 3.905660 -4.525523 -0.228113 -0.193196 0.128720
  30 0.000000 13.357013 -0.000003 0.182872 -0.081108 0.851015
  31 0.000001 18.158886 -0.000006 -1.447841 1.609456 -1.571260
  32 -0.000000 2.542063 0.000000 1.558254 0.000018 0.000000
  33 -0.000000 3.135158 -0.000001 -0.086554 0.000157 0.000184
  34 -0.000000 3.905660 4.546787 0.277424 -0.019612 -0.691895
  35 0.000001 13.407269 -0.000000 -0.003131 0.002855 0.007395
  36 0.000001 18.158880 0.000001 -1.243587 -1.532149 1.571412
  37 0.000000 2.542061 -0.000001 1.558254 -3.141546 -0.000000
  38 -0.000001 3.135157 0.000000 -0.091756 0.342973 -0.030933
  39 4.301485 1.405967 -0.000000 0.034939 0.372849 0.080139
  40 -0.000000 7.030432 -0.000000 0.043317 0.043017 0.379935
  time 5
  0 7.268085 -21.094685 -12.499620 -0.029194 0.000000 -3.141593
  1 -5.962544 18.858061 -15.039968 0.425822 0.000000 3.141593
  2 0.907535 -3.182838 55.465324 -1.570796 0.000000 1.570796
  3 20.043604 51.950680 -12.895251 1.570796 -1.570795 0.000000
  4 13.217887 41.950695 14.751722 1.570796 -1.570796 0.000000
  5 -13.417513 37.272507 -9.883332 1.570796 -1.570796 0.000000
  6 -13.446110 39.834347 33.203743 1.570796 -1.570796 0.000000
  7 36.444641 73.203949 -10.878476 1.570796 1.570796 0.000000
  8 26.355848 59.971516 4.915236 1.570796 1.570796 0.000000
  9 17.187601 41.933441 0.000009 1.570796 1.570796 0.000000
  10 -0.000001 -17.187595 -0.000000 1.496518 0.251633 1.553648
  11 -0.000000 9.251827 -0.000000 -0.118239 0.164656 -0.404999
  12 3.332967 6.058992 0.446929 0.210670 -0.047759 -0.327280
  13 -0.000000 4.780092 -0.000000 1.284319 0.253606 -2.959958
  14 0.000002 10.318097 -0.000000 -1.045020 0.825087 0.338263
  15 -0.000001 10.229102 0.000002 -0.136446 0.075435 0.329449
  16 0.000004 17.897512 0.000007 0.501053 -0.709394 -0.007064
  17 0.000001 4.707225 -0.000000 -1.541049 0.008330 -0.235767
  18 1.074861 19.060043 -1.941342 -0.472039 -0.472270 0.471468
  19 0.000001 2.947696 0.000001 0.591004 0.259472 -0.900673
  20 3.290200 20.779572 2.548919 1.493698 -2.430346 0.074157
  21 0.002826 4.780092 -0.021077 -1.880463 -0.127749 -0.177833
  22 0.000002 10.318099 -0.000001 -0.859734 1.944256 -0.584239
  23 0.000002 10.229103 -0.000000 1.766448 -0.723733 0.599764
  24 -0.000002 17.897505 0.000001 -0.450322 0.734588 0.327496
  25 0.000001 5.176009 0.000000 0.367530 0.039498 -0.405167
  26 0.944299 18.991707 0.413717 0.010159 0.742751 -0.261872
  27 -0.000000 3.158195 -0.000001 -1.038094 -0.123146 -0.282238
  28 -0.000001 -17.187595 -0.000000 -1.619270 -0.010157 1.300646
  29 0.000001 3.905660 -4.525525 -0.227665 -0.226894 0.088350
  30 0.000003 13.357021 -0.000001 0.196508 -0.098060 0.939601
  31 -0.000002 18.158882 0.000001 -1.447841 1.609456 -1.571258
  32 -0.000001 2.542063 0.000001 1.558254 0.000018 -0.000000
  33 0.000000 3.135156 0.000003 -0.086586 0.000307 0.000359
  34 -0.000000 3.905659 4.546788 0.295897 -0.032007 -0.682300
  35 0.000001 13.407276 0.000000 -0.003133 0.002856 0.007400
  36 -0.000001 18.158888 0.000000 -1.239810 -1.532150 1.571411
  37 0.000000 2.542065 -0.000001 1.558254 -3.141546 0.000000
  38 0.000000 3.135158 -0.000001 -0.091756 0.342973 -0.030933
  39 4.301485 1.405969 -0.000001 0.034760 0.371603 0.079827
  40 0.000000 7.030431 0.000000 0.039225 0.041019 0.365636
  time 6
  0 7.268085 -21.068588 -11.972742 -0.029194 0.000000 -3.141593
  1 -5.962544 18.847176 -15.528362 0.430036 0.000000 3.141593
  2 0.907535 -3.182838 55.465324 -1.570796 0.000000 1.570796
  3 21.152842 51.448303 -12.496856 1.570796 -1.570795 0.000000
  4 12.875514 42.175369 14.764232 1.570796 -1.570796 0.000000
  5 -12.213428 37.855663 -9.730241 1.570796 -1.570796 0.000000
  6 -13.607848 40.196857 32.630680 1.570796 -1.570796 0.000000
  7 36.437466 72.920296 -10.766577 1.570796 1.570796 0.000000
  8 26.355848 59.971516 4.817713 1.570796 1.570796 0.000000
  9 17.187601 42.134392 0.000009 1.570796 1.570796 0.000000
  10 -0.000001 -17.187595 -0.000000 1.494818 0.253533 1.553579
  11 0.000000 9.251827 0.000001 -0.126058 0.174306 -0.404969
  12 3.332967 6.058992 0.446928 0.221587 -0.055378 -0.325674
  13 -0.000000 4.780091 0.000000 1.284319 0.253606 -2.959958
  14 -0.000001 10.318101 -0.000002 -1.056299 0.873896 0.333581
  15 -0.000001 10.229099 0.000001 -0.136567 0.075476 0.329752
  16 0.000000 17.897505 0.000001 0.501053 -0.709393 -0.007064
  17 0.000001 4.707226 0.000002 -1.541330 0.008723 -0.235755
  18 1.074861 19.060032 -1.941349 -0.472039 -0.472270 0.471468
  19 0.000000 2.947696 0.000001 0.591003 0.259473 -0.900673
  20 3.290200 20.779566 2.548914 1.537274 -2.424896 0.006945
  21 0.002827 4.780090 -0.021077 -1.880463 -0.127749 -0.177833
  22 0.000002 10.318099 0.000000 -0.833858 1.939090 -0.548816
  23 -0.000001 10.229100 -0.000002 1.782646 -0.731983 0.597480
  24 -0.000003 17.897509 0.000005 -0.446218 0.747077 0.332873
  25 0.000001 5.176011 -0.000000 0.372003 0.035323 -0.423171
  26 0.935854 19.001057 0.416570 0.020257 0.734209 -0.241832
  27 -0.000001 3.158196 -0.000001 -1.037001 -0.123741 -0.283737
  28 -0.000001 -17.187595 -0.000000 -1.626448 -0.013062 1.282991
  29 -0.000000 3.905659 -4.525526 -0.225698 -0.257442 0.053104
  30 -0.000000 13.357013 -0.000003 0.207387 -0.114158 1.018635
  31 -0.000003 18.158878 0.000001 -1.447846 1.609456 -1.571260
  32 -0.000001 2.542063 0.000000 1.558254 0.000018 0.000000
  33 -0.000000 3.135157 0.000001 -0.086616 0.000531 0.000620
  34 -0.000002 3.905660 4.546788 0.312766 -0.041890 -0.673483
  35 -0.000001 13.407276 -0.000001 -0.003135 0.002855 0.007404
  36 -0.000001 18.158882 -0.000002 -1.235594 -1.532150 1.571409
  37 0.000000 2.542063 -0.000000 1.558254 -3.141546 0.000000
  38 0.000000 3.135156 0.000001 -0.091756 0.342973 -0.030933
  39 4.301485 1.405969 0.000001 0.034545 0.370053 0.079470
  40 0.000000 7.030431 -0.000000 0.035483 0.039467 0.349660
  time 7
  0 7.268085 -21.032166 -11.493725 -0.029194 0.000000 -3.141593
  1 -5.962544 18.831984 -15.985497 0.434608 0.000000 3.141593
  2 0.907535 -3.182838 55.465324 -1.570796 0.000000 1.570796
  3 22.161316 50.895393 -12.047890 1.570796 -1.570795 0.000000
  4 12.540685 42.418854 14.780879 1.570796 -1.570796 0.000000
  5 -10.888651 38.497288 -9.591056 1.570796 -1.570796 0.000000
  6 -13.785293 40.595707 32.003315 1.570796 -1.570796 0.000000
  7 36.429615 72.636520 -10.654634 1.570796 1.570796 0.000000
  8 26.355848 59.971516 4.707572 1.570796 1.570796 0.000000
  9 17.187601 42.360851 0.000009 1.570796 1.570796 0.000000
  10 -0.000001 -17.187595 -0.000000 1.492914 0.255259 1.553545
  11 0.000000 9.251826 -0.000000 -0.133895 0.183961 -0.405016
  12 3.332968 6.058993 0.446928 0.231368 -0.063583 -0.324447
  13 0.000001 4.780091 0.000000 1.284319 0.253606 -2.959958
  14 -0.000001 10.318097 -0.000001 -1.073852 0.906763 0.314000
  15 -0.000003 10.229103 -0.000001 -0.146978 0.079181 0.355780
  16 -0.000000 17.897516 0.000001 0.501053 -0.709393 -0.007064
  17 -0.000001 4.707230 0.000000 -1.541589 0.009116 -0.235721
  18 1.074856 19.060043 -1.941350 -0.472039 -0.472270 0.471468
  19 0.000001 2.947696 0.000000 0.591004 0.259473 -0.900673
  20 3.290196 20.779575 2.548912 1.581828 -2.421659 -0.061423
  21 0.002828 4.780090 -0.021077 -1.880463 -0.127749 -0.177834
  22 -0.000001 10.318098 -0.000000 -0.804908 1.932948 -0.510949
  23 -0.000000 10.229102 -0.000003 1.798488 -0.739953 0.595079
  24 -0.000002 17.897512 0.000008 -0.441668 0.760995 0.338582
  25 0.000000 5.176012 -0.000000 0.376858 0.030957 -0.442403
  26 0.928179 19.009554 0.419163 0.030223 0.726023 -0.220953
  27 -0.000000 3.158195 0.000000 -1.035545 -0.124531 -0.285732
  28 -0.000001 -17.187595 -0.000000 -1.632883 -0.016117 1.266942
  29 0.000000 3.905659 -4.525525 -0.222757 -0.285259 0.021563
  30 0.000001 13.357018 -0.000001 0.216164 -0.129509 1.090536
  31 -0.000002 18.158890 0.000002 -1.447845 1.609456 -1.571259
  32 0.000001 2.542066 0.000001 1.558254 0.000018 0.000000
  33 -0.000000 3.135159 0.000002 -0.086643 0.000843 0.000985
  34 -0.000000 3.905658 4.546787 0.328126 -0.049551 -0.665281
  35 -0.000001 13.407275 -0.000003 -0.003136 0.002855 0.007407
  36 0.000004 18.158888 -0.000000 -1.231022 -1.532150 1.571408
  37 0.000000 2.542066 0.000001 1.558254 -3.141546 -0.000000
  38 -0.000000 3.135158 0.000001 -0.091756 0.342973 -0.030933
  39 4.301485 1.405969 -0.000000 0.034287 0.368144 0.079069
  40 -0.000000 7.030430 -0.000001 0.032062 0.038311 0.332149
  time 8
  0 7.268085 -20.983702 -11.060295 -0.029194 0.000000 -3.141593
  1 -5.962544 18.811768 -16.412201 0.439468 0.000000 3.141593
  2 0.907535 -3.182838 55.465324 -1.570796 0.000000 1.570796
  3 23.073814 50.297951 -11.555096 1.570796 -1.570795 0.000000
  4 12.213321 42.679253 14.802254 1.570796 -1.570796 0.000000
  5 -9.460421 39.189011 -9.465115 1.570796 -1.570796 0.000000
  6 -13.976175 41.025700 31.329550 1.570796 -1.570796 0.000000
  7 36.421043 72.352760 -10.542696 1.570796 1.570796 0.000000
  8 26.355848 59.971516 4.586390 1.570796 1.570796 0.000000
  9 17.187601 42.609417 0.000009 1.570796 1.570796 0.000000
  10 -0.000001 -17.187595 -0.000000 1.490835 0.256820 1.553551
  11 -0.000001 9.251828 0.000000 -0.141751 0.193621 -0.405140
  12 3.332968 6.058991 0.446928 0.240080 -0.072279 -0.323569
  13 0.000000 4.780091 0.000000 1.284319 0.253606 -2.959958
  14 0.000000 10.318097 -0.000001 -1.097114 0.927834 0.283665
  15 -0.000001 10.229104 0.000000 -0.164332 0.086043 0.399654
  16 -0.000004 17.897512 -0.000000 0.501053 -0.709393 -0.007064
  17 -0.000001 4.707227 0.000001 -1.541828 0.009507 -0.235668
  18 1.074857 19.060036 -1.941352 -0.472039 -0.472270 0.471468
  19 -0.000001 2.947696 0.000001 0.591003 0.259473 -0.900673
  20 3.290192 20.779573 2.548911 1.627026 -2.420727 -0.130609
  21 0.002826 4.780091 -0.021077 -1.880463 -0.127749 -0.177833
  22 -0.000001 10.318098 0.000000 -0.772365 1.926028 -0.470168
  23 0.000004 10.229095 0.000001 1.813865 -0.747593 0.592589
  24 0.000002 17.897501 -0.000000 -0.436697 0.776122 0.344559
  25 0.000001 5.176009 0.000000 0.382058 0.026463 -0.462670
  26 0.921237 19.017231 0.421495 0.040042 0.718164 -0.199358
  27 -0.000001 3.158193 0.000000 -1.033673 -0.125540 -0.288297
  28 -0.000001 -17.187595 -0.000000 -1.638618 -0.019274 1.252412
  29 0.000001 3.905659 -4.525524 -0.219199 -0.310619 -0.007006
  30 -0.000000 13.357018 -0.000001 0.223239 -0.144120 1.156558
  31 0.000005 18.158882 -0.000003 -1.447838 1.609456 -1.571262
  32 0.000001 2.542065 0.000003 1.558254 0.000018 0.000000
  33 0.000001 3.135157 -0.000001 -0.086667 0.001258 0.001470
  34 -0.000001 3.905661 4.546789 0.342063 -0.055252 -0.657566
  35 0.000002 13.407276 -0.000000 -0.003137 0.002856 0.007409
  36 0.000001 18.158884 -0.000001 -1.226161 -1.532150 1.571408
  37 0.000000 2.542064 -0.000001 1.558254 -3.141546 -0.000000
  38 -0.000000 3.135158 -0.000000 -0.091756 0.342973 -0.030933
  39 4.301486 1.405968 0.000001 0.033983 0.365818 0.078626
  40 0.000000 7.030431 -0.000000 0.028935 0.037501 0.313244
  time 9
  0 7.268085 -20.921469 -10.670170 -0.029194 0.000000 -3.141593
  1 -5.962544 18.785810 -16.809313 0.444561 0.000000 3.141593
  2 0.907535 -3.182838 55.465324 -1.570796 0.000000 1.570796
  3 23.895142 49.660835 -11.025215 1.570796 -1.570795 0.000000
  4 11.893458 42.955013 14.828948 1.570796 -1.570796 0.000000
  5 -7.945977 39.922489 -9.351759 1.570796 -1.570796 0.000000
  6 -14.178234 41.481651 30.617281 1.570796 -1.570796 0.000000
  7 36.411732 72.069145 -10.430816 1.570796 1.570796 0.000000
  8 26.355848 59.971516 4.455746 1.570796 1.570796 0.000000
  9 17.187601 42.876690 0.000009 1.570796 1.570796 0.000000
  10 -0.000001 -17.187595 -0.000000 1.488612 0.258225 1.553608
  11 -0.000000 9.251827 0.000001 -0.149626 0.203283 -0.405342
  12 3.332967 6.058991 0.446928 0.247790 -0.081372 -0.323013
  13 0.000000 4.780090 0.000000 1.284319 0.253606 -2.959958
  14 0.000001 10.318097 0.000000 -1.124027 0.940814 0.247508
  15 -0.000000 10.229106 -0.000001 -0.185559 0.095661 0.454278
  16 -0.000003 17.897509 0.000005 0.501053 -0.709393 -0.007064
  17 -0.000001 4.707228 -0.000001 -1.542048 0.009899 -0.235594
  18 1.074858 19.060036 -1.941346 -0.472039 -0.472270 0.471468
  19 -0.000001 2.947695 0.000001 0.591004 0.259473 -0.900673
  20 3.290190 20.779572 2.548918 1.672503 -2.422165 -0.200245
  21 0.002827 4.780089 -0.021077 -1.880463 -0.127749 -0.177834
  22 -0.000002 10.318096 0.000002 -0.735737 1.918574 -0.426036
  23 -0.000001 10.229098 0.000001 1.828657 -0.754851 0.590048
  24 0.000000 17.897503 0.000002 -0.431321 0.792246 0.350761
  25 0.000000 5.176009 -0.000000 0.387563 0.021900 -0.483776
  26 0.914984 19.024151 0.423607 0.049707 0.710604 -0.177143
  27 0.000000 3.158195 0.000000 -1.031330 -0.126793 -0.291504
  28 -0.000001 -17.187595 -0.000000 -1.643697 -0.022490 1.239320
  29 -0.000000 3.905659 -4.525525 -0.215270 -0.333753 -0.033164
  30 0.000001 13.357014 -0.000001 0.228911 -0.158010 1.217621
  31 0.000005 18.158880 -0.000002 -1.447845 1.609456 -1.571262
  32 -0.000001 2.542064 0.000001 1.558254 0.000018 0.000000
  33 0.000001 3.135158 0.000000 -0.086689 0.001792 0.002094
  34 -0.000001 3.905659 4.546788 0.354663 -0.059230 -0.650241
  35 0.000001 13.407275 0.000000 -0.003137 0.002856 0.007409
  36 -0.000002 18.158888 0.000000 -1.221066 -1.532150 1.571404
  37 -0.000000 2.542064 0.000001 1.558254 -3.141546 -0.000000
  38 -0.000001 3.135160 0.000002 -0.091756 0.342973 -0.030933
  39 4.301485 1.405968 -0.000000 0.033628 0.363021 0.078142
  40 0.000000 7.030429 -0.000001 0.026075 0.036990 0.293089
  time 10
  0 7.268085 -20.843752 -10.321070 -0.029194 0.000000 -3.141593
  1 -5.962544 18.753391 -17.177660 0.449834 0.000000 3.141593
  2 0.907535 -3.182838 55.465324 -1.570796 0.000000 1.570796
  3 24.630104 48.988052 -10.464993 1.570796 -1.570795 0.000000
  4 11.581241 43.244850 14.861550 1.570796 -1.570796 0.000000
  5 -6.362566 40.689373 -9.250320 1.570796 -1.570796 0.000000
  6 -14.389198 41.958366 29.874413 1.570796 -1.570796 0.000000
  7 36.401638 71.785789 -10.319037 1.570796 1.570796 0.000000
  8 26.355850 59.971516 4.317215 1.570796 1.570796 0.000000
  9 17.187601 43.159264 0.000009 1.570796 1.570796 0.000000
  10 -0.000001 -17.187595 -0.000000 1.486275 0.259482 1.553724
  11 -0.000001 9.251828 -0.000000 -0.157523 0.212947 -0.405622
  12 3.332968 6.058993 0.446929 0.254561 -0.090770 -0.322746
  13 0.000001 4.780092 0.000000 1.284319 0.253606 -2.959958
  14 -0.000001 10.318100 -0.000001 -1.151861 0.948912 0.210348
  15 -0.000003 10.229106 -0.000004 -0.208150 0.107478 0.513817
  16 -0.000001 17.897518 0.000006 0.501053 -0.709393 -0.007064
  17 0.000000 4.707226 -0.000001 -1.542249 0.010291 -0.235500
  18 1.074857 19.060045 -1.941345 -0.472039 -0.472270 0.471468
  19 0.000000 2.947697 0.000001 0.591004 0.259472 -0.900673
  20 3.290195 20.779583 2.548920 1.717886 -2.426000 -0.269951
  21 0.002827 4.780092 -0.021077 -1.880463 -0.127749 -0.177834
  22 0.000000 10.318099 -0.000001 -0.694613 1.910885 -0.378226
  23 -0.000001 10.229107 -0.000002 1.842692 -0.761657 0.587506
  24 0.000005 17.897512 0.000001 -0.425555 0.809158 0.357155
  25 0.000001 5.176011 0.000000 0.393327 0.017327 -0.505520
  26 0.909396 19.030355 0.425494 0.059216 0.703314 -0.154386
  27 0.000000 3.158194 0.000000 -1.028461 -0.128316 -0.295427
  28 -0.000001 -17.187595 -0.000000 -1.648163 -0.025727 1.227582
  29 0.000001 3.905660 -4.525523 -0.211119 -0.354888 -0.057501
  30 0.000001 13.357016 -0.000000 0.233426 -0.171242 1.274594
  31 0.000003 18.158880 0.000002 -1.447842 1.609456 -1.571259
  32 -0.000002 2.542061 0.000000 1.558254 0.000018 0.000000
  33 0.000001 3.135156 -0.000001 -0.086709 0.002458 0.002872
  34 -0.000001 3.905660 4.546789 0.366006 -0.061703 -0.643234
  35 0.000001 13.407273 -0.000001 -0.003137 0.002856 0.007409
  36 -0.000001 18.158882 -0.000002 -1.215791 -1.532151 1.571403
  37 -0.000000 2.542064 0.000001 1.558254 -3.141546 0.000000
  38 -0.000000 3.135157 0.000002 -0.091756 0.342973 -0.030933
  39 4.301485 1.405968 0.000001 0.033217 0.359694 0.077620
  40 0.000000 7.030431 -0.000000 0.023456 0.036732 0.271829
  time 11
  0 7.268085 -20.748827 -10.010717 -0.029194 0.000000 -3.141593
  1 -5.962544 18.713797 -17.518085 0.455242 0.000000 3.141593
  2 0.907535 -3.182838 55.465324 -1.570796 0.000000 1.570796
  3 25.283487 48.282940 -9.881168 1.570796 -1.570795 0.000000
  4 11.276879 43.547703 14.900656 1.570796 -1.570796 0.000000
  5 -4.727429 41.481308 -9.160144 1.570796 -1.570796 0.000000
  6 -14.606801 42.450653 29.108837 1.570796 -1.570796 0.000000
  7 36.390747 71.502831 -10.207417 1.570796 1.570796 0.000000
  8 26.355850 59.971516 4.172376 1.570796 1.570796 0.000000
  9 17.187601 43.453747 0.000009 1.570796 1.570796 0.000000
  10 -0.000001 -17.187595 -0.000000 1.483853 0.260602 1.553907
  11 -0.000001 9.251826 0.000001 -0.165441 0.222612 -0.405981
  12 3.332968 6.058992 0.446927 0.260459 -0.100381 -0.322736
  13 0.000000 4.780091 -0.000000 1.284319 0.253606 -2.959958
  14 0.000001 10.318098 0.000001 -1.177934 0.953837 0.175595
  15 -0.000002 10.229103 -0.000000 -0.230845 0.121136 0.575423
  16 0.000002 17.897512 0.000008 0.501053 -0.709393 -0.007064
  17 0.000000 4.707228 0.000000 -1.542433 0.010683 -0.235389
  18 1.074862 19.060040 -1.941344 -0.472039 -0.472270 0.471468
  19 -0.000000 2.947697 0.000003 0.591003 0.259473 -0.900673
  20 3.290198 20.779575 2.548920 1.762798 -2.432229 -0.339344
  21 0.002826 4.780093 -0.021077 -1.880463 -0.127749 -0.177833
  22 0.000002 10.318101 0.000000 -0.648773 1.903305 -0.326636
  23 -0.000002 10.229100 0.000001 1.855772 -0.767924 0.585022
  24 0.000001 17.897501 0.000002 -0.419410 0.826654 0.363715
  25 -0.000001 5.176009 -0.000001 0.399301 0.012798 -0.527703
  26 0.904417 19.035847 0.427171 0.068572 0.696269 -0.131153
  27 0.000001 3.158194 0.000000 -1.025011 -0.130127 -0.300141
  28 -0.000001 -17.187595 -0.000000 -1.652059 -0.028954 1.217120
  29 0.000000 3.905660 -4.525525 -0.206800 -0.374244 -0.080682
  30 0.000002 13.357018 -0.000002 0.236982 -0.183925 1.328349
  31 0.000000 18.158886 0.000000 -1.447842 1.609456 -1.571260
  32 -0.000000 2.542063 0.000001 1.558254 0.000018 0.000000
  33 -0.000000 3.135157 0.000000 -0.086724 0.003271 0.003822
  34 -0.000001 3.905661 4.546789 0.376169 -0.062874 -0.636490
  35 -0.000001 13.407273 -0.000001 -0.003137 0.002855 0.007409
  36 0.000000 18.158878 0.000002 -1.210376 -1.532151 1.571397
  37 0.000000 2.542062 -0.000001 1.558254 -3.141546 -0.000000
  38 -0.000000 3.135156 0.000002 -0.091756 0.342973 -0.030933
  39 4.301485 1.405969 -0.000000 0.032747 0.355780 0.077060
  40 -0.000000 7.030431 -0.000000 0.021055 0.036684 0.249613
  time 12
  0 7.268085 -20.634975 -9.736834 -0.029194 0.000000 -3.141593
  1 -5.962544 18.666307 -17.831415 0.460741 0.000000 3.141593
  2 0.907535 -3.182838 55.465324 -1.570796 0.000000 1.570796
  3 25.860104 47.548317 -9.280486 1.570796 -1.570795 0.000000
  4 10.980676 43.862679 14.946853 1.570796 -1.570796 0.000000
  5 -3.057806 42.289944 -9.080561 1.570796 -1.570796 0.000000
  6 -14.828778 42.953323 28.328459 1.570796 -1.570796 0.000000
  7 36.379009 71.220390 -10.095999 1.570796 1.570796 0.000000
  8 26.355850 59.971516 4.022805 1.570796 1.570796 0.000000
  9 17.187601 43.756729 0.000009 1.570796 1.570796 0.000000
  10 -0.000001 -17.187595 -0.000000 1.481377 0.261593 1.554167
  11 0.000000 9.251826 0.000000 -0.173382 0.232274 -0.406420
  12 3.332968 6.058993 0.446928 0.265546 -0.110113 -0.322952
  13 0.000000 4.780092 0.000000 1.284319 0.253606 -2.959958
  14 -0.000001 10.318095 -0.000001 -1.199608 0.957342 0.146244
  15 -0.000000 10.229103 0.000001 -0.252635 0.136113 0.636655
  16 -0.000000 17.897512 0.000002 0.501053 -0.709393 -0.007064
  17 -0.000000 4.707226 -0.000001 -1.542601 0.011077 -0.235261
  18 1.074862 19.060034 -1.941349 -0.472039 -0.472270 0.471468
  19 0.000000 2.947697 0.000002 0.591003 0.259473 -0.900673
  20 3.290197 20.779572 2.548917 1.806879 -2.440812 -0.408059
  21 0.002826 4.780091 -0.021077 -1.880463 -0.127749 -0.177834
  22 -0.000000 10.318098 0.000000 -0.598243 1.896203 -0.271423
  23 -0.000002 10.229104 -0.000001 1.867662 -0.773560 0.582670
  24 0.000003 17.897509 0.000008 -0.412901 0.844532 0.370409
  25 -0.000000 5.176010 -0.000001 0.405431 0.008361 -0.550120
  26 0.900031 19.040710 0.428658 0.077781 0.689442 -0.107501
  27 -0.000001 3.158195 -0.000000 -1.020921 -0.132247 -0.305721
  28 -0.000001 -17.187595 -0.000000 -1.655427 -0.032139 1.207853
  29 0.000002 3.905659 -4.525525 -0.202382 -0.391918 -0.102813
  30 0.000003 13.357018 -0.000003 0.239697 -0.196008 1.378984
  31 -0.000007 18.158882 -0.000002 -1.447837 1.609456 -1.571254
  32 0.000000 2.542065 -0.000000 1.558254 0.000018 0.000000
  33 -0.000000 3.135156 0.000002 -0.086737 0.004247 0.004962
  34 -0.000001 3.905660 4.546789 0.385225 -0.062936 -0.629968
  35 0.000001 13.407272 -0.000003 -0.003136 0.002855 0.007407
  36 -0.000002 18.158884 -0.000001 -1.204878 -1.532151 1.571398
  37 0.000000 2.542063 -0.000000 1.558254 -3.141546 0.000000
  38 0.000001 3.135156 -0.000003 -0.091756 0.342973 -0.030933
  39 4.301485 1.405968 0.000001 0.032212 0.351223 0.076466
  40 0.000000 7.030431 -0.000001 0.018850 0.036802 0.226590
  time 13
  0 7.268085 -20.500475 -9.497131 -0.029194 0.000000 -3.141593
  1 -5.962544 18.610205 -18.118486 0.466289 0.000000 3.141593
  2 0.907535 -3.182838 55.465324 -1.570796 0.000000 1.570796
  3 26.364737 46.786591 -8.669691 1.570796 -1.570795 0.000000
  4 10.693004 44.189037 15.000731 1.570796 -1.570796 0.000000
  5 -1.370940 43.106934 -9.010914 1.570796 -1.570796 0.000000
  6 -15.052860 43.461185 27.541178 1.570796 -1.570796 0.000000
  7 36.366405 70.938599 -9.984838 1.570796 1.570796 0.000000
  8 26.355850 59.971516 3.870080 1.570796 1.570796 0.000000
  9 17.187601 44.064816 0.000009 1.570796 1.570796 0.000000
  10 -0.000001 -17.187595 -0.000001 1.478876 0.262465 1.554511
  11 -0.000000 9.251827 -0.000000 -0.181347 0.241935 -0.406939
  12 3.332968 6.058994 0.446928 0.269884 -0.119878 -0.323359
  13 0.000001 4.780092 0.000000 1.284319 0.253606 -2.959958
  14 0.000001 10.318100 -0.000000 -1.214622 0.960554 0.124238
  15 -0.000003 10.229105 -0.000001 -0.273083 0.152032 0.696413
  16 -0.000001 17.897512 0.000001 0.501053 -0.709393 -0.007064
  17 0.000000 4.707226 -0.000001 -1.542753 0.011473 -0.235115
  18 1.074857 19.060043 -1.941350 -0.472039 -0.472270 0.471468
  19 0.000000 2.947697 0.000002 0.591004 0.259473 -0.900673
  20 3.290195 20.779575 2.548913 -1.291796 -0.689914 2.665836
  21 0.002827 4.780092 -0.021077 -1.880463 -0.127749 -0.177834
  22 0.000002 10.318100 0.000000 -0.543432 1.889956 -0.213142
  23 -0.000003 10.229102 -0.000002 1.878103 -0.778459 0.580531
  24 0.000002 17.897507 0.000002 -0.406052 0.862589 0.377203
  25 -0.000000 5.176011 -0.000002 0.411660 0.004062 -0.572566
  26 0.896188 19.044960 0.429948 0.086850 0.682810 -0.083481
  27 0.000000 3.158196 0.000001 -1.016132 -0.134692 -0.312246
  28 -0.000001 -17.187595 -0.000000 -1.658307 -0.035256 1.199707
  29 0.000001 3.905660 -4.525524 -0.197837 -0.408068 -0.124408
  30 0.000001 13.357016 -0.000001 0.241696 -0.207571 1.427060
  31 -0.000001 18.158886 -0.000005 -1.447838 1.609456 -1.571257
  32 -0.000001 2.542063 0.000002 1.558254 0.000018 0.000000
  33 -0.000000 3.135157 -0.000000 -0.086746 0.005399 0.006309
  34 -0.000001 3.905659 4.546788 0.393243 -0.062070 -0.623640
  35 0.000000 13.407271 -0.000001 -0.003135 0.002856 0.007405
  36 0.000002 18.158880 -0.000001 -1.199330 -1.532151 1.571396
  37 0.000000 2.542062 0.000001 1.558254 -3.141546 -0.000000
  38 -0.000001 3.135158 0.000001 -0.091756 0.342973 -0.030933
  39 4.301485 1.405969 0.000001 0.031610 0.345964 0.075840
  40 0.000001 7.030430 -0.000000 0.016820 0.037042 0.202913
end
