version 1
nodes
0 "ShinIK.R" -1
1 "ShinIK.L" -1
2 "All.000" -1
3 "ForearmIK.R" 2
4 "ForearmIK.L" 2
5 "UpperarmIK.R" 2
6 "UpperarmIK.L" 2
7 "KneeIK.R" 2
8 "KneeIK.L" 2
9 "Spine.009" 2
10 "Spine.001" 9
11 "Spine.002" 10
12 "Spine.004" 11
13 "Arm.R.001" 11
14 "Arm.R.002" 13
15 "Arm.R.003" 14
16 "Arm.R.004" 15
17 "Arm.R.005" 16
18 "Arm.R.006" 15
19 "Arm.R.007" 18
20 "Wep.000" 15
21 "Arm.L.001" 11
22 "Arm.L.002" 21
23 "Arm.L.003" 22
24 "Arm.L.004" 23
25 "Arm.L.005" 24
26 "Arm.L.006" 23
27 "Arm.L.007" 26
28 "Spine.000" 9
29 "Leg.R.001" 28
30 "Leg.R.002" 29
31 "Leg.R.003" 30
32 "Leg.R.004" 31
33 "Leg.R.005" 32
34 "Leg.L.001" 28
35 "Leg.L.002" 34
36 "Leg.L.003" 35
37 "Leg.L.004" 36
38 "Leg.L.005" 37
39 "Loincloth.000" 28
40 "Loincloth.001" 39
end
skeleton
  time 0
  0 13.290959 -10.611696 -19.948565 -0.218058 -0.026303 2.947242
  1 -10.769799 5.805278 -20.142885 0.147655 0.174999 3.119510
  2 0.907535 -3.182838 55.465324 -1.570796 0.000000 1.570796
  3 -20.705997 46.671402 -25.297567 1.570796 -1.570795 0.000000
  4 21.562332 36.247841 6.657883 1.570796 -1.570796 0.000000
  5 -25.682554 35.758686 0.772879 1.570796 -1.570796 0.000000
  6 -26.401972 43.138420 22.132637 1.570796 -1.570796 0.000000
  7 21.322155 59.971519 -5.658658 1.570796 1.570796 0.000000
  8 26.355848 59.971516 5.158387 1.570796 1.570796 0.000000
  9 15.237150 42.239281 -2.062838 1.570796 1.570796 0.000000
  10 -0.000001 -17.187595 -0.000000 1.606231 -0.043061 1.280033
  11 -0.000001 9.251827 0.000001 -0.059896 -0.477273 0.232287
  12 3.332966 6.058992 0.446929 -0.280174 0.136912 -0.762334
  13 0.000000 4.780093 0.000000 1.284319 0.253606 -2.959958
  14 -0.000000 10.318098 -0.000001 0.283990 -0.428916 -0.364238
  15 0.000001 10.229106 0.000000 -0.350888 0.235046 0.957141
  16 -0.000002 17.897512 0.000003 0.557683 -0.540881 0.100090
  17 0.000000 4.707228 -0.000000 -1.484214 -0.021373 -0.199365
  18 0.728849 19.043222 -1.873958 -0.344404 -0.342683 0.561142
  19 -0.000001 2.947695 -0.000001 0.591003 0.259473 -0.900673
  20 3.428583 20.943241 2.264679 1.104893 -2.377475 0.684445
  21 0.002826 4.780091 -0.021077 -1.880463 -0.127749 -0.177834
  22 0.000000 10.318096 -0.000000 0.483978 2.235325 1.177050
  23 0.000000 10.229098 -0.000001 1.501453 -0.576700 0.611435
  24 -0.000000 17.897507 0.000003 -0.461731 0.702192 0.310928
  25 -0.000001 5.176011 0.000000 0.349165 0.058344 -0.327910
  26 1.117770 18.779072 0.390980 0.804116 1.095162 0.547320
  27 -0.000001 3.158195 -0.000000 -1.038159 -0.129045 -0.287216
  28 -0.000001 -17.187595 -0.000000 -1.654965 -0.034270 1.185027
  29 0.000002 3.905660 -4.525523 -0.062971 -0.538200 -0.182941
  30 0.000001 13.357018 -0.000001 0.118288 -0.028895 0.509760
  31 0.000001 18.158880 -0.000004 -0.086192 1.778619 -0.397323
  32 -0.000000 2.542061 0.000001 1.558254 0.000018 -0.000000
  33 -0.000001 3.135156 0.000001 -0.086398 0.000000 0.000000
  34 -0.000000 3.905661 4.546789 0.503310 -0.210413 -0.253875
  35 0.000001 13.407269 -0.000001 -0.003131 0.002855 0.007396
  36 0.000001 18.158873 0.000003 -1.346780 -1.356442 1.401456
  37 -0.000000 2.542064 -0.000000 1.558254 -3.141546 -0.000000
  38 -0.000000 3.135157 0.000001 -0.091756 0.342973 -0.030933
  39 4.301486 1.405968 0.000001 0.384410 0.075556 -0.442086
  40 0.000001 7.030430 -0.000000 0.296067 -0.148876 -0.362417
  time 1
  0 13.290959 -10.619791 -19.949373 -0.221006 -0.029138 2.948549
  1 -10.435367 4.365731 -20.108690 0.235036 0.135024 -3.085963
  2 0.907535 -3.182838 55.465324 -1.570796 0.000000 1.570796
  3 -20.446999 46.674240 -25.239838 1.570796 -1.570795 0.000000
  4 21.462830 36.416279 6.880687 1.570796 -1.570796 0.000000
  5 -24.348066 35.472214 0.119978 1.570796 -1.570796 0.000000
  6 -24.955074 42.346092 18.998264 1.570796 -1.570796 0.000000
  7 21.322155 59.971519 -5.658658 1.570796 1.570796 0.000000
  8 25.403893 59.971516 5.263409 1.570796 1.570796 0.000000
  9 15.293234 42.267948 -2.030605 1.570796 1.570796 0.000000
  10 -0.000001 -17.187595 -0.000000 1.603474 -0.018119 1.300449
  11 -0.000000 9.251826 0.000000 -0.038460 -0.445352 0.186099
  12 3.332967 6.058992 0.446929 0.001879 -0.106259 -0.631652
  13 -0.000000 4.780091 0.000000 1.284319 0.253606 -2.959958
  14 0.000001 10.318096 0.000003 0.240116 -0.363003 -0.418696
  15 -0.000002 10.229109 -0.000000 -0.353076 0.238093 0.965675
  16 -0.000004 17.897520 0.000002 0.551979 -0.577302 0.053621
  17 -0.000000 4.707232 -0.000001 -1.486683 -0.020287 -0.201134
  18 0.817087 19.052048 -1.890360 -0.372752 -0.375698 0.535174
  19 -0.000000 2.947698 -0.000001 0.591003 0.259473 -0.900673
  20 3.392672 20.900440 2.338884 1.157600 -2.389556 0.589656
  21 0.002826 4.780091 -0.021077 -1.880463 -0.127749 -0.177834
  22 0.000000 10.318100 0.000000 0.628157 2.210737 1.241164
  23 0.000000 10.229103 -0.000002 1.515010 -0.584651 0.612031
  24 -0.000003 17.897514 0.000001 -0.441557 0.381403 0.423943
  25 0.000000 5.176013 0.000002 0.349165 0.058344 -0.327910
  26 1.045335 18.807661 0.504863 0.618169 0.864974 0.365074
  27 0.000001 3.158197 0.000001 -1.026802 -0.147147 -0.312730
  28 -0.000001 -17.187595 -0.000000 -1.667328 -0.039317 1.169129
  29 0.000001 3.905660 -4.525522 -0.046474 -0.551399 -0.183805
  30 0.000003 13.357015 -0.000001 0.116553 -0.027936 0.501620
  31 -0.000000 18.158884 0.000001 -0.098011 1.778283 -0.412376
  32 0.000000 2.542063 0.000000 1.558254 0.000018 0.000000
  33 0.000001 3.135157 0.000001 -0.086398 0.000000 0.000000
  34 -0.000001 3.905659 4.546789 0.549086 -0.221657 -0.285010
  35 -0.000001 13.407273 -0.000003 -0.056043 0.006568 0.132682
  36 -0.000005 18.158878 -0.000002 1.465026 -1.753992 -1.327114
  37 -0.000000 2.542062 -0.000000 1.558254 -3.141546 0.000000
  38 0.000001 3.135158 -0.000000 -0.091756 0.342973 -0.030933
  39 4.301485 1.405968 0.000000 0.126556 0.000518 -0.189729
  40 0.000000 7.030430 -0.000001 0.227506 -0.548812 -0.284062
  time 2
  0 13.290959 -10.676454 -19.955038 -0.241775 -0.048893 2.957948
  1 -9.648182 4.160082 -20.033461 0.126822 0.057186 -2.932860
  2 0.907535 -3.182838 55.465324 -1.570796 0.000000 1.570796
  3 -18.633995 46.694118 -24.835695 1.570796 -1.570795 0.000000
  4 20.766304 37.595348 8.440307 1.570796 -1.570796 0.000000
  5 -21.412197 35.325104 -2.000927 1.570796 -1.570796 0.000000
  6 -21.771906 40.602978 17.388725 1.570796 -1.570796 0.000000
  7 21.322155 59.971519 -5.658658 1.570796 1.570796 0.000000
  8 23.133848 59.971516 5.513845 1.570796 1.570796 0.000000
  9 15.685827 42.468616 -1.804982 1.570796 1.570796 0.000000
  10 -0.000001 -17.187595 -0.000001 1.599240 0.036711 1.359507
  11 0.000000 9.251827 0.000001 0.004591 -0.346703 0.084507
  12 3.332967 6.058992 0.446931 0.267768 -0.376208 -0.569344
  13 0.000000 4.780089 0.000001 1.284319 0.253606 -2.959958
  14 0.000001 10.318099 0.000000 0.159921 -0.228240 -0.611915
  15 0.000003 10.229108 -0.000000 -0.373684 0.269762 1.051657
  16 -0.000002 17.897512 -0.000003 0.527244 -0.661944 0.008476
  17 0.000001 4.707224 0.000001 -1.489081 -0.019232 -0.202850
  18 0.982223 19.064590 -1.921740 -0.428688 -0.438535 0.490074
  19 -0.000000 2.947695 -0.000001 0.591004 0.259473 -0.900673
  20 3.327791 20.844748 2.444320 1.232275 -2.458437 0.489931
  21 0.002826 4.780090 -0.021076 -1.880463 -0.127749 -0.177833
  22 0.000000 10.318098 0.000000 0.709449 2.171701 1.184775
  23 0.000001 10.229098 -0.000001 1.544265 -0.601694 0.612876
  24 -0.000001 17.897497 0.000001 -0.435229 0.169235 0.445032
  25 -0.000000 5.176009 -0.000002 0.349165 0.058343 -0.327910
  26 0.951177 18.844803 0.652912 0.496641 0.534317 0.249177
  27 0.000000 3.158195 -0.000000 -0.996457 -0.171742 -0.361161
  28 -0.000001 -17.187593 -0.000000 -1.670754 -0.047150 1.163100
  29 0.000001 3.905660 -4.525523 -0.053832 -0.555359 -0.172837
  30 0.000002 13.357018 0.000001 0.120283 -0.030023 0.519169
  31 0.000000 18.158884 -0.000003 -0.181713 1.776969 -0.518744
  32 0.000000 2.542059 0.000000 1.558254 0.000018 -0.000000
  33 -0.000002 3.135156 -0.000001 -0.086398 0.000000 0.000000
  34 -0.000001 3.905660 4.546789 0.629370 -0.171097 -0.420927
  35 -0.000001 13.407276 -0.000003 -0.171262 0.038916 0.414258
  36 0.000000 18.158886 -0.000004 0.535997 -1.803242 -0.505441
  37 -0.000001 2.542065 0.000000 1.558254 -3.141546 0.000000
  38 0.000001 3.135158 0.000001 -0.091756 0.342973 -0.030933
  39 4.301485 1.405969 0.000001 -0.141764 -0.004138 0.099516
  40 0.000000 7.030431 -0.000001 -0.121029 -0.926963 0.091424
  time 3
  0 13.290959 -10.830252 -19.970419 -0.299384 -0.101595 2.985660
  1 -8.732409 3.954432 -19.958227 -0.059019 0.009211 -2.771734
  2 0.907535 -3.182838 55.465324 -1.570796 0.000000 1.570796
  3 -13.712993 46.748077 -23.738743 1.570796 -1.570795 0.000000
  4 18.875742 40.795681 12.673562 1.570796 -1.570796 0.000000
  5 -18.476322 35.270908 -5.833148 1.570796 -1.570796 0.000000
  6 -18.588739 38.859863 16.795736 1.570796 -1.570796 0.000000
  7 21.322155 59.971519 -5.658658 1.570796 1.570796 0.000000
  8 20.424438 59.971516 5.812753 1.570796 1.570796 0.000000
  9 16.751436 43.013287 -1.192574 1.570796 1.570796 0.000000
  10 -0.000000 -17.187595 -0.000000 1.599306 0.091209 1.454592
  11 -0.000000 9.251828 -0.000000 0.037789 -0.179936 -0.019125
  12 3.332967 6.058993 0.446929 0.047384 -0.199740 -0.541374
  13 -0.000000 4.780091 0.000000 1.284319 0.253606 -2.959958
  14 0.000000 10.318099 0.000001 0.162505 -0.190880 -0.927379
  15 -0.000001 10.229103 0.000003 -0.413548 0.357342 1.272387
  16 -0.000002 17.897509 0.000005 0.501053 -0.709393 -0.007064
  17 0.000001 4.707225 0.000001 -1.491411 -0.018207 -0.204514
  18 1.074858 19.060034 -1.941343 -0.472039 -0.472270 0.471468
  19 -0.000001 2.947695 -0.000000 0.591003 0.259473 -0.900673
  20 3.290196 20.779562 2.548918 1.266015 -2.501701 0.439651
  21 0.002826 4.780092 -0.021077 -1.880463 -0.127749 -0.177834
  22 0.000003 10.318099 -0.000000 0.639955 2.186964 0.982698
  23 0.000002 10.229104 0.000001 1.517678 -0.586212 0.612132
  24 0.000004 17.897512 -0.000007 -0.415647 0.040449 0.408035
  25 0.000001 5.176013 -0.000001 0.349165 0.058344 -0.327910
  26 0.857021 18.881973 0.800953 0.428626 0.197053 0.187996
  27 -0.000000 3.158196 -0.000001 -0.937112 -0.196162 -0.438430
  28 -0.000000 -17.187593 -0.000000 -1.668767 -0.060554 1.162550
  29 0.000000 3.905659 -4.525523 -0.095335 -0.550683 -0.134428
  30 0.000002 13.357020 -0.000001 0.129386 -0.035488 0.562741
  31 -0.000003 18.158882 -0.000002 -0.406497 1.782625 -0.805203
  32 0.000000 2.542064 -0.000000 1.558254 0.000018 0.000000
  33 -0.000001 3.135155 0.000001 -0.086398 0.000000 0.000000
  34 -0.000000 3.905659 4.546788 0.677432 -0.139623 -0.519050
  35 -0.000000 13.407269 -0.000004 -0.264165 0.094450 0.664508
  36 0.000004 18.158871 0.000005 0.057048 -1.946806 -0.204815
  37 -0.000001 2.542065 -0.000000 1.558254 -3.141546 0.000000
  38 0.000001 3.135156 0.000000 -0.091756 0.342973 -0.030933
  39 4.301485 1.405968 -0.000000 -0.088711 -0.069554 0.133075
  40 0.000001 7.030431 -0.000001 -0.461374 -1.035596 0.446239
  time 4
  0 13.290957 -11.129752 -20.000372 -0.417059 -0.199088 3.048905
  1 -8.012214 2.514886 -19.924032 -0.154866 -0.000000 -2.697185
  2 0.907535 -3.182838 55.465324 -1.570796 0.000000 1.570796
  3 -4.129987 46.853149 -21.602575 1.570796 -1.570795 0.000000
  4 15.194115 47.027908 20.917269 1.570796 -1.570796 0.000000
  5 -17.141832 35.263168 -11.619990 1.570796 -1.570796 0.000000
  6 -17.141844 38.067539 16.711023 1.570796 -1.570796 0.000000
  7 21.322155 59.971519 -5.658658 1.570796 1.570796 0.000000
  8 18.154394 59.971519 6.063190 1.570796 1.570796 0.000000
  9 18.826574 44.073959 0.000009 1.570796 1.570796 0.000000
  10 -0.000001 -17.187595 -0.000001 1.604537 0.114581 1.583584
  11 0.000001 9.251828 0.000001 0.044672 0.050012 -0.084463
  12 3.332968 6.058993 0.446929 -0.163692 -0.021826 -0.552889
  13 0.000001 4.780091 0.000000 1.284319 0.253606 -2.959958
  14 -0.000002 10.318098 -0.000001 0.376801 -0.241000 -1.252390
  15 -0.000000 10.229101 0.000001 -0.433269 0.503130 1.624324
  16 -0.000002 17.897514 0.000002 0.485413 -0.705876 0.003292
  17 0.000001 4.707227 0.000000 -1.493674 -0.017211 -0.206127
  18 1.070750 19.047857 -1.949324 -0.482072 -0.463700 0.476183
  19 -0.000000 2.947695 0.000001 0.591003 0.259472 -0.900673
  20 3.315931 20.650658 2.586039 1.234006 -2.501743 0.432018
  21 0.002828 4.780091 -0.021076 -1.880463 -0.127749 -0.177834
  22 -0.000002 10.318100 -0.000001 0.495789 2.251485 0.528684
  23 -0.000001 10.229103 0.000001 1.164890 -0.376744 0.557032
  24 -0.000000 17.897503 -0.000001 -0.382125 -0.031512 0.333881
  25 -0.000001 5.176011 -0.000001 0.349165 0.058344 -0.327910
  26 0.784585 18.910545 0.914845 0.393042 -0.052093 0.158752
  27 -0.000000 3.158195 0.000000 -0.838788 -0.209761 -0.550868
  28 -0.000001 -17.187595 -0.000000 -1.661508 -0.070487 1.436053
  29 0.000001 3.905661 -4.525524 -0.216875 -0.252018 0.071561
  30 0.000002 13.357020 -0.000002 0.124214 -0.032317 0.537853
  31 -0.000001 18.158888 -0.000000 -0.754018 1.826805 -1.273109
  32 0.000000 2.542065 0.000000 1.558254 0.000018 0.000000
  33 -0.000001 3.135158 0.000001 -0.086398 0.000000 0.000000
  34 -0.000001 3.905661 4.546788 0.517471 0.112536 -0.555687
  35 0.000000 13.407276 -0.000001 -0.344014 0.174861 0.921583
  36 0.000001 18.158884 0.000000 -0.078547 -2.019930 -0.161833
  37 0.000000 2.542063 -0.000001 1.558254 -3.141546 -0.000000
  38 0.000001 3.135158 -0.000002 -0.091756 0.342973 -0.030933
  39 4.301485 1.405969 0.000000 -0.036655 -0.159062 0.137379
  40 -0.000000 7.030431 -0.000000 -0.036061 -0.070353 0.029899
end
