version 1
nodes
0 "ShinIK.R" -1
1 "ShinIK.L" -1
2 "All.000" -1
3 "ForearmIK.R" 2
4 "ForearmIK.L" 2
5 "UpperarmIK.R" 2
6 "UpperarmIK.L" 2
7 "KneeIK.R" 2
8 "KneeIK.L" 2
9 "Spine.009" 2
10 "Spine.001" 9
11 "Spine.002" 10
12 "Spine.004" 11
13 "Arm.R.001" 11
14 "Arm.R.002" 13
15 "Arm.R.003" 14
16 "Arm.R.004" 15
17 "Arm.R.005" 16
18 "Arm.R.006" 15
19 "Arm.R.007" 18
20 "Wep.000" 15
21 "Arm.L.001" 11
22 "Arm.L.002" 21
23 "Arm.L.003" 22
24 "Arm.L.004" 23
25 "Arm.L.005" 24
26 "Arm.L.006" 23
27 "Arm.L.007" 26
28 "Spine.000" 9
29 "Leg.R.001" 28
30 "Leg.R.002" 29
31 "Leg.R.003" 30
32 "Leg.R.004" 31
33 "Leg.R.005" 32
34 "Leg.L.001" 28
35 "Leg.L.002" 34
36 "Leg.L.003" 35
37 "Leg.L.004" 36
38 "Leg.L.005" 37
39 "Loincloth.000" 28
40 "Loincloth.001" 39
end
skeleton
  time 0
  0 7.268085 -13.339230 -12.115259 0.000000 -0.000000 -3.141593
  1 -5.962546 -4.924384 -20.022829 0.000000 -0.000000 3.141593
  2 0.907535 -3.182838 55.465324 -1.570796 0.000000 1.570796
  3 12.817956 53.337929 -4.912593 1.570796 -1.570795 0.000000
  4 5.035827 45.773640 18.845049 1.570796 -1.570796 0.000000
  5 -17.141827 32.869919 -21.823339 1.570796 -1.570796 0.000000
  6 -13.623226 34.958752 4.484899 1.570796 -1.570796 0.000000
  7 35.884113 65.632065 -7.891548 1.570796 1.570796 0.000000
  8 26.355848 59.971516 6.135972 1.570796 1.570796 0.000000
  9 17.187599 45.133518 -0.758163 1.570796 1.570796 0.000000
  10 -0.000001 -17.187595 -0.000000 1.488583 0.161907 1.318559
  11 -0.000001 9.251828 0.000001 -0.199006 0.357435 -0.407511
  12 3.332968 6.058993 0.446929 0.074446 -0.410697 -0.543114
  13 -0.000001 4.780092 0.000001 1.284319 0.253606 -2.959958
  14 0.000001 10.318097 -0.000003 -0.901256 0.010656 0.537198
  15 -0.000001 10.229102 0.000001 -0.387672 0.295187 1.117785
  16 -0.000006 17.897509 0.000007 0.365535 -0.488791 0.068039
  17 -0.000002 4.707226 0.000001 -1.550798 0.016666 -0.231227
  18 0.741101 18.855354 -1.706784 -0.479787 -0.225269 0.472275
  19 -0.000000 2.947696 0.000001 0.402051 0.064298 -1.448050
  20 3.731113 20.991465 1.840624 1.290260 -2.255202 0.420902
  21 0.002826 4.780092 -0.021077 -1.880463 -0.127749 -0.177833
  22 0.000000 10.318100 -0.000001 -2.308652 0.809747 -1.527789
  23 0.000000 10.229105 -0.000003 1.861770 -0.770773 0.583847
  24 -0.000008 17.897512 0.000001 -0.365063 0.311560 0.201758
  25 0.000001 5.176013 0.000002 0.349165 0.058344 -0.327910
  26 0.900448 18.965624 0.554766 0.165930 0.417650 -0.176990
  27 -0.000001 3.158196 0.000002 -1.039070 -0.120210 -0.278188
  28 -0.000001 -17.187593 -0.000000 -1.568623 -0.003549 1.488894
  29 0.000002 3.905660 -4.525524 -0.254442 -0.188748 -0.500520
  30 -0.000000 13.357023 -0.000001 0.243482 -0.261477 1.650069
  31 -0.000001 18.158890 -0.000003 -1.477035 1.609456 -1.571260
  32 -0.000000 2.542063 -0.000002 1.558254 0.000018 0.000000
  33 -0.000000 3.135157 0.000001 0.418141 0.052232 0.105706
  34 -0.000002 3.905661 4.546790 0.407205 0.026884 -0.511576
  35 -0.000002 13.407275 -0.000001 -0.369889 0.212110 1.023273
  36 -0.000002 18.158888 -0.000000 1.475901 -1.609462 -1.570121
  37 0.000000 2.542064 0.000000 1.558254 -3.141546 -0.000000
  38 0.000000 3.135156 0.000001 0.562286 0.295246 0.074851
  39 4.301485 1.405968 0.000001 0.000000 0.000000 0.063895
  40 -0.000001 7.030432 -0.000002 -0.000000 -0.000000 -0.151285
  time 1
  0 7.268086 2.314322 -16.089025 0.304828 -0.000000 -3.141593
  1 -5.962546 -13.650567 -19.913366 -0.618019 -0.000000 3.141593
  2 0.907535 -3.182838 55.465324 -1.570796 0.000000 1.570796
  3 7.935608 44.062160 6.061495 1.570796 -1.570795 0.000000
  4 -6.814927 40.913918 20.007088 1.570796 -1.570796 0.000000
  5 -1.890049 39.975670 -19.661621 1.570796 -1.570796 0.000000
  6 -13.672104 37.611721 -6.701775 1.570796 -1.570796 0.000000
  7 35.846100 65.392906 -7.797207 1.570796 1.570796 0.000000
  8 26.355848 59.971516 6.287879 1.570796 1.570796 0.000000
  9 18.116508 46.263035 -0.278115 1.570796 1.570796 0.000000
  10 -0.000001 -17.187595 -0.000000 1.501540 0.137515 1.697818
  11 -0.000004 9.251829 0.000002 -0.190452 0.347778 -0.386528
  12 3.332967 6.058992 0.446929 0.223244 -0.531971 -0.589226
  13 0.000001 4.780091 -0.000000 1.284319 0.253606 -2.959958
  14 0.000000 10.318099 -0.000001 -1.194603 -0.227565 0.676521
  15 -0.000001 10.229104 0.000001 -0.428885 0.540757 1.718626
  16 -0.000006 17.897518 0.000007 0.365534 -0.488791 0.068039
  17 -0.000000 4.707228 0.000002 -1.557390 0.015908 -0.229787
  18 0.741102 18.855368 -1.706785 -0.479787 -0.225268 0.472275
  19 0.000001 2.947697 0.000001 0.402053 0.064297 -1.448050
  20 3.731111 20.991476 1.840625 1.290260 -2.255202 0.420902
  21 0.002827 4.780091 -0.021078 -1.880463 -0.127749 -0.177833
  22 0.000002 10.318098 -0.000002 -2.280137 0.852363 -0.738967
  23 0.000000 10.229099 -0.000003 2.070293 -0.860094 0.529524
  24 -0.000000 17.897505 0.000008 -0.347011 0.038847 0.232623
  25 -0.000001 5.176011 0.000001 0.349165 0.058344 -0.327910
  26 0.799423 18.944511 0.820913 0.331481 0.030627 0.045572
  27 0.000000 3.158195 -0.000001 -1.036792 -0.118475 -0.276882
  28 -0.000001 -17.187595 -0.000000 -1.568569 -0.003722 1.644695
  29 0.000001 3.905659 -4.525522 -0.347621 -0.101476 -1.120291
  30 -0.000000 13.357020 -0.000001 0.244261 -0.243663 1.576164
  31 0.000002 18.158884 -0.000001 1.359737 1.532131 1.570339
  32 -0.000001 2.542065 0.000002 1.558254 0.000018 0.000000
  33 -0.000000 3.135155 0.000002 0.450894 0.050333 0.106406
  34 -0.000002 3.905659 4.546789 0.330382 0.113693 -0.122200
  35 -0.000003 13.407277 -0.000001 -0.343054 0.173620 0.918061
  36 0.000001 18.158886 -0.000003 0.858168 -1.609489 -1.570407
  37 0.000000 2.542064 0.000000 1.558254 -3.141546 0.000000
  38 0.000000 3.135158 0.000001 0.488242 0.303854 0.064918
  39 4.301484 1.405968 0.000001 -0.116478 -0.397769 0.090689
  40 -0.000001 7.030432 -0.000000 0.021685 -0.236845 0.032850
  time 2
  0 7.268087 15.515810 -20.062788 0.544455 -0.000000 -3.141593
  1 -5.962547 -16.631084 -16.152933 -0.517970 -0.000000 3.141593
  2 0.907535 -3.182838 55.465324 -1.570796 0.000000 1.570796
  3 7.238119 34.786385 17.035585 1.570796 -1.570795 0.000000
  4 -18.521393 39.090775 20.173090 1.570796 -1.570796 0.000000
  5 13.361729 47.081409 -17.495733 1.570796 -1.570796 0.000000
  6 -13.684363 40.264702 -11.281672 1.570796 -1.570796 0.000000
  7 35.806530 65.157173 -7.704216 1.570796 1.570796 0.000000
  8 26.355848 59.971516 6.409517 1.570796 1.570796 0.000000
  9 19.045418 44.564922 0.201934 1.570796 1.570796 0.000000
  10 -0.000000 -17.187595 -0.000001 1.508341 0.124493 2.084744
  11 -0.000001 9.251829 0.000002 -0.182148 0.337960 -0.365718
  12 3.332967 6.058994 0.446928 0.289239 -0.580064 -0.614128
  13 0.000000 4.780092 0.000000 1.284319 0.253606 -2.959958
  14 0.000000 10.318100 0.000000 -0.746344 0.653593 1.309283
  15 -0.000001 10.229105 0.000001 -0.399965 0.321427 1.184034
  16 -0.000004 17.897520 -0.000002 0.365534 -0.488791 0.068039
  17 -0.000001 4.707229 -0.000000 -1.563683 0.015203 -0.227435
  18 0.741105 18.855368 -1.706795 -0.479788 -0.225268 0.472275
  19 -0.000000 2.947698 0.000001 0.402052 0.064297 -1.448050
  20 3.731112 20.991474 1.840616 1.290261 -2.255202 0.420901
  21 0.002826 4.780091 -0.021077 -1.880463 -0.127749 -0.177834
  22 -0.000001 10.318099 -0.000001 -1.747750 1.127462 -0.720951
  23 -0.000001 10.229098 -0.000004 1.440667 -0.540715 0.607188
  24 0.000000 17.897493 0.000008 -0.342122 -0.071393 0.243665
  25 -0.000001 5.176007 0.000002 0.349165 0.058343 -0.327910
  26 0.755612 18.921967 0.960411 0.381247 -0.147234 0.149822
  27 0.000000 3.158193 0.000001 -1.033177 -0.116920 -0.275764
  28 -0.000001 -17.187595 -0.000000 -1.568543 -0.003909 1.800533
  29 0.000001 3.905662 -4.525525 -0.240344 0.244071 -0.649395
  30 0.000002 13.357021 -0.000002 0.041029 -0.001547 0.170427
  31 0.000005 18.158886 -0.000001 1.120149 1.532126 1.570380
  32 0.000000 2.542063 0.000001 1.558254 0.000018 -0.000000
  33 0.000001 3.135159 0.000001 0.477091 0.048494 0.106647
  34 -0.000001 3.905662 4.546789 0.334351 0.275815 -0.008454
  35 -0.000000 13.407274 -0.000001 -0.354289 0.188725 0.960298
  36 -0.000005 18.158894 0.000006 0.958134 -1.609485 -1.570331
  37 -0.000000 2.542064 0.000001 1.558254 -3.141546 -0.000000
  38 0.000001 3.135157 0.000002 0.408720 0.312441 0.053054
  39 4.301486 1.405969 0.000001 -0.029504 -0.490881 -0.069494
  40 0.000001 7.030429 -0.000001 -0.014603 -0.540880 0.236666
  time 3
  0 7.268087 10.624478 -20.057802 0.368113 -0.000000 -3.141593
  1 -5.962547 -17.056875 -12.556698 -0.005085 0.000000 3.141593
  2 0.907535 -3.182838 55.465324 -1.570796 0.000000 1.570796
  3 12.431851 35.739235 10.593230 1.570796 -1.570795 0.000000
  4 -9.199568 39.714825 20.006830 1.570796 -1.570796 0.000000
  5 13.360178 46.704060 -17.491703 1.570796 -1.570796 0.000000
  6 -13.716507 38.139019 -6.296407 1.570796 -1.570796 0.000000
  7 35.765381 64.924980 -7.612622 1.570796 1.570796 0.000000
  8 26.355848 59.971516 6.504248 1.570796 1.570796 0.000000
  9 18.942507 42.796875 -0.031975 1.570796 1.570796 0.000000
  10 -0.000000 -17.187595 -0.000000 1.647427 0.130001 1.525692
  11 0.000002 9.251827 0.000001 -0.182148 0.337960 -0.365718
  12 3.332968 6.058991 0.446929 0.140330 -0.583119 -0.536909
  13 0.000001 4.780090 0.000001 1.284319 0.253606 -2.959958
  14 0.000001 10.318097 0.000004 -0.361608 0.256483 1.633107
  15 -0.000001 10.229099 0.000002 -0.401659 0.325429 1.193993
  16 -0.000004 17.897514 0.000000 0.552273 -0.434516 -0.249834
  17 0.000000 4.707227 0.000000 -1.569685 0.014558 -0.224216
  18 0.757743 19.335030 -1.615351 -0.300239 -0.244953 0.195870
  19 -0.000001 2.947695 0.000001 0.402052 0.064298 -1.448050
  20 3.783051 20.675842 1.826010 1.201179 -2.266396 0.412844
  21 0.002828 4.780090 -0.021076 -1.880463 -0.127749 -0.177834
  22 0.000002 10.318096 -0.000002 -2.305999 0.562350 -0.925966
  23 -0.000001 10.229098 -0.000001 1.604539 -0.636224 0.612724
  24 -0.000002 17.897503 -0.000000 -0.342122 -0.071393 0.243665
  25 -0.000000 5.176009 -0.000001 0.349165 0.058343 -0.327910
  26 0.755611 18.921976 0.960400 0.381247 -0.147234 0.149823
  27 0.000001 3.158195 -0.000001 -1.028292 -0.115540 -0.274822
  28 -0.000001 -17.187595 -0.000000 -1.568398 -0.003945 1.722620
  29 0.000001 3.905660 -4.525525 -0.204912 0.164684 -0.584376
  30 0.000003 13.357019 -0.000001 0.082626 -0.012584 0.348258
  31 0.000009 18.158884 -0.000004 1.296458 1.532130 1.570343
  32 -0.000000 2.542064 0.000000 1.558254 0.000018 0.000000
  33 0.000001 3.135157 -0.000004 0.497445 0.046560 0.106342
  34 -0.000001 3.905661 4.546790 0.374747 0.223154 -0.021720
  35 -0.000002 13.407278 -0.000000 -0.383003 0.234526 1.081408
  36 0.000003 18.158888 0.000001 1.470815 -1.609463 -1.570121
  37 0.000001 2.542064 -0.000000 1.558254 -3.141546 -0.000000
  38 -0.000000 3.135158 -0.000001 0.326556 0.320423 0.039744
  39 4.301485 1.405967 0.000001 0.149155 -0.497864 -0.385492
  40 0.000001 7.030431 -0.000001 0.057499 -0.656763 -0.019309
  time 4
  0 7.268086 -0.201132 -20.046827 -0.047212 0.000000 -3.141593
  1 -5.962546 -10.648524 -14.204988 0.013969 -0.000000 3.141593
  2 0.907535 -3.182838 55.465324 -1.570796 0.000000 1.570796
  3 22.077360 38.138355 -3.957886 1.570796 -1.570795 0.000000
  4 8.243546 41.593899 18.843002 1.570796 -1.570796 0.000000
  5 13.358186 44.607471 -17.490166 1.570796 -1.570796 0.000000
  6 -13.756863 34.191341 4.517015 1.570796 -1.570796 0.000000
  7 35.722618 64.696449 -7.522475 1.570796 1.570796 0.000000
  8 26.355848 59.971516 6.575437 1.570796 1.570796 0.000000
  9 18.677105 42.176449 -0.589756 1.570796 1.570796 0.000000
  10 -0.000000 -17.187595 -0.000000 1.761032 0.205352 0.981289
  11 -0.000001 9.251829 0.000000 -0.098122 0.223144 -0.325098
  12 3.332969 6.058992 0.446927 -0.132073 -0.544383 -0.397388
  13 0.000002 4.780092 0.000000 1.284319 0.253606 -2.959958
  14 -0.000001 10.318100 0.000002 -0.163540 0.053457 1.916819
  15 -0.000003 10.229104 0.000002 -0.263716 0.144500 0.668729
  16 0.000002 17.897514 0.000001 0.709620 -0.329750 -0.548423
  17 0.000001 4.707226 0.000000 -1.575403 0.013979 -0.220173
  18 0.774384 19.814703 -1.523910 -0.118338 -0.215033 -0.085440
  19 -0.000001 2.947695 -0.000000 0.402052 0.064298 -1.448050
  20 3.938869 19.728958 1.782182 0.932366 -2.297453 0.379691
  21 0.002829 4.780090 -0.021077 -1.880463 -0.127749 -0.177834
  22 0.000003 10.318097 -0.000002 -2.336847 0.421103 -1.348859
  23 0.000000 10.229098 0.000001 1.533374 -0.595369 0.612632
  24 -0.000000 17.897495 0.000004 -0.342122 -0.071393 0.243665
  25 -0.000001 5.176007 0.000002 0.349165 0.058344 -0.327910
  26 0.755610 18.921968 0.960403 0.381247 -0.147234 0.149822
  27 0.000000 3.158193 0.000001 -1.022196 -0.114329 -0.274049
  28 -0.000001 -17.187595 -0.000000 -1.568087 -0.004026 1.538269
  29 0.000000 3.905660 -4.525524 -0.142784 -0.023511 -0.462409
  30 0.000001 13.357017 -0.000000 0.157723 -0.056339 0.706887
  31 0.000007 18.158878 0.000003 -1.429822 1.609456 -1.571262
  32 -0.000001 2.542064 0.000001 1.558254 0.000018 0.000000
  33 0.000000 3.135156 -0.000003 0.512678 0.044371 0.105395
  34 -0.000002 3.905660 4.546790 0.416810 0.075951 -0.301289
  35 -0.000000 13.407273 -0.000001 -0.396742 0.261733 1.149682
  36 0.000002 18.158878 -0.000005 1.489871 -1.609462 -1.570120
  37 0.000000 2.542064 -0.000000 1.558254 -3.141546 0.000000
  38 0.000000 3.135156 0.000001 0.244254 0.327364 0.025643
  39 4.301486 1.405968 0.000001 0.236732 -0.469772 -0.547123
  40 0.000002 7.030430 -0.000001 0.245283 -0.661489 -0.550580
  time 5
  0 7.268085 -11.188406 -20.035856 -0.460767 0.000000 -3.141593
  1 -5.962545 1.252701 -17.402361 0.048376 -0.000000 3.141593
  2 0.907535 -3.182838 55.465324 -1.570796 0.000000 1.570796
  3 27.271099 41.294575 -19.453844 1.570796 -1.570795 0.000000
  4 17.708963 44.738403 15.684030 1.570796 -1.570796 0.000000
  5 13.349778 41.787495 -17.483419 1.570796 -1.570796 0.000000
  6 -13.776701 32.065662 14.945013 1.570796 -1.570796 0.000000
  7 35.678211 64.471718 -7.433824 1.570796 1.570796 0.000000
  8 26.355848 59.971516 6.626446 1.570796 1.570796 0.000000
  9 18.314205 43.613209 -1.255493 1.570796 1.570796 0.000000
  10 -0.000000 -17.187595 -0.000000 1.761032 0.205352 0.981289
  11 0.000000 9.251828 0.000001 0.072776 -0.046440 -0.270291
  12 3.332968 6.058992 0.446930 -0.260962 -0.455318 -0.339620
  13 0.000000 4.780091 0.000000 1.284319 0.253606 -2.959958
  14 -0.000000 10.318097 0.000000 -0.182286 0.485771 2.087255
  15 0.000000 10.229106 0.000000 -0.003739 0.052781 0.008891
  16 0.000002 17.897518 0.000011 0.822246 -0.191704 -0.812041
  17 0.000001 4.707227 -0.000001 -1.580847 0.013468 -0.215349
  18 0.791024 20.294378 -1.432459 0.043215 -0.140168 -0.348548
  19 0.000000 2.947696 0.000001 0.402052 0.064298 -1.448050
  20 4.198545 18.150833 1.709143 0.499438 -2.333341 0.304175
  21 0.002826 4.780093 -0.021077 -1.880463 -0.127749 -0.177833
  22 -0.000001 10.318101 -0.000001 0.813947 2.496728 1.393454
  23 0.000002 10.229103 0.000006 1.281561 -0.445479 0.584190
  24 0.000003 17.897497 -0.000001 -0.342122 -0.071393 0.243665
  25 0.000000 5.176006 -0.000001 0.349165 0.058344 -0.327910
  26 0.755616 18.921970 0.960399 0.381247 -0.147233 0.149822
  27 0.000000 3.158193 0.000001 -1.014954 -0.113279 -0.273436
  28 -0.000001 -17.187593 -0.000000 -1.567788 -0.004163 1.326134
  29 0.000002 3.905660 -4.525525 -0.107653 -0.237078 -0.167642
  30 0.000006 13.357013 -0.000002 0.169149 -0.066719 0.769931
  31 0.000003 18.158876 0.000001 -1.016201 1.609449 -1.571197
  32 0.000001 2.542062 0.000000 1.558254 0.000018 0.000000
  33 -0.000000 3.135156 0.000000 0.523513 0.041765 0.103706
  34 -0.000001 3.905661 4.546790 0.580148 -0.049656 -0.730774
  35 0.000001 13.407270 -0.000003 -0.391939 0.251698 1.124751
  36 0.000000 18.158880 -0.000001 1.524270 -1.609460 -1.570116
  37 0.000000 2.542063 -0.000001 1.558254 -3.141546 0.000000
  38 0.000000 3.135158 -0.000001 0.164245 0.332994 0.011518
  39 4.301485 1.405968 0.000001 0.105440 -0.347946 -0.437877
  40 -0.000000 7.030432 0.000000 0.328059 -0.619335 -0.817445
  time 6
  0 7.268085 -16.564707 -20.030867 -0.638372 0.000000 -3.141593
  1 -5.962544 7.661048 -19.527567 0.067250 0.000000 3.141593
  2 0.907535 -3.182838 55.465324 -1.570796 0.000000 1.570796
  3 5.458777 44.523849 -29.829567 1.570796 -1.570795 0.000000
  4 17.713146 48.629307 5.025054 1.570796 -1.570796 0.000000
  5 -18.511402 52.330173 -17.474018 1.570796 -1.570796 0.000000
  6 -10.352866 39.309006 20.734638 1.570796 -1.570796 0.000000
  7 35.632126 64.250900 -7.346721 1.570796 1.570796 0.000000
  8 26.355848 59.971516 6.660639 1.570796 1.570796 0.000000
  9 17.918810 45.049969 -1.813274 1.570796 1.570796 0.000000
  10 -0.000000 -17.187595 -0.000000 1.761032 0.205352 0.981289
  11 -0.000000 9.251828 0.000001 0.237320 -0.321669 -0.261155
  12 3.332968 6.058991 0.446929 -0.235003 -0.296402 -0.363837
  13 0.000000 4.780091 0.000000 1.284319 0.253606 -2.959958
  14 -0.000000 10.318099 0.000001 0.019663 0.290366 1.283016
  15 -0.000000 10.229104 0.000000 -0.265954 0.146262 0.675293
  16 0.000002 17.897520 0.000005 0.822246 -0.191703 -0.812041
  17 -0.000001 4.707226 -0.000001 -1.586024 0.013028 -0.209788
  18 0.791026 20.294380 -1.432466 0.043215 -0.140168 -0.348548
  19 -0.000000 2.947696 -0.000000 0.402052 0.064298 -1.448050
  20 4.198547 18.150833 1.709138 0.499438 -2.333341 0.304175
  21 0.002827 4.780091 -0.021077 -1.880463 -0.127749 -0.177834
  22 0.000001 10.318097 -0.000001 -2.260778 0.282543 -1.747996
  23 -0.000001 10.229100 -0.000002 1.479891 -0.563992 0.610222
  24 0.000002 17.897511 -0.000002 -0.342122 -0.071393 0.243665
  25 0.000001 5.176011 -0.000001 0.349165 0.058343 -0.327910
  26 0.755615 18.921984 0.960399 0.381247 -0.147234 0.149822
  27 0.000001 3.158195 0.000000 -1.006627 -0.112384 -0.272977
  28 -0.000001 -17.187595 -0.000000 -1.567711 -0.004478 1.157386
  29 0.000002 3.905660 -4.525524 -0.133684 -0.408095 0.005689
  30 0.000002 13.357017 -0.000002 0.165198 -0.062980 0.747729
  31 0.000008 18.158880 0.000004 -0.838549 1.609446 -1.571147
  32 0.000000 2.542062 0.000001 1.558254 0.000018 0.000000
  33 0.000001 3.135154 -0.000000 0.530674 0.038571 0.101170
  34 -0.000001 3.905661 4.546789 0.704648 -0.196565 -0.852121
  35 -0.000003 13.407274 0.000002 -0.341955 0.172209 0.914046
  36 0.000007 18.158880 -0.000006 -1.598450 -1.532133 1.571488
  37 -0.000001 2.542064 0.000001 1.558254 -3.141546 0.000000
  38 -0.000000 3.135156 -0.000001 0.089054 0.337217 -0.001801
  39 4.301485 1.405968 0.000001 -0.097089 -0.086002 -0.256060
  40 -0.000000 7.030432 0.000000 0.070123 -0.676369 -0.573107
  time 7
  0 7.268085 -16.780252 -20.030867 -0.638372 0.000000 -3.141593
  1 -5.962544 6.928677 -19.940287 0.050261 0.000000 3.141593
  2 0.907535 -3.182838 55.465324 -1.570796 0.000000 1.570796
  3 -16.353554 47.162498 -33.415081 1.570796 -1.570795 0.000000
  4 17.706627 50.629871 -3.389385 1.570796 -1.570796 0.000000
  5 -21.679071 46.982094 -17.462711 1.570796 -1.570796 0.000000
  6 -2.985254 46.552345 25.475410 1.570796 -1.570796 0.000000
  7 35.584339 64.034142 -7.261214 1.570796 1.570796 0.000000
  8 26.355848 59.971516 6.681379 1.570796 1.570796 0.000000
  9 17.555914 43.520199 -2.047182 1.570796 1.570796 0.000000
  10 0.000000 -17.187595 -0.000000 1.748236 0.195967 1.083935
  11 -0.000000 9.251828 0.000001 0.314615 -0.442831 -0.272695
  12 3.332966 6.058994 0.446927 -0.200207 -0.074296 -0.392388
  13 -0.000001 4.780092 -0.000001 1.284319 0.253606 -2.959958
  14 -0.000000 10.318097 -0.000002 0.128631 0.347096 1.024784
  15 0.000003 10.229101 0.000005 -0.003684 0.052781 0.008762
  16 0.000008 17.897509 0.000004 0.822246 -0.191703 -0.812041
  17 0.000001 4.707225 0.000000 -1.590941 0.012660 -0.203533
  18 0.791028 20.294367 -1.432465 0.043215 -0.140168 -0.348548
  19 0.000002 2.947694 -0.000000 0.402052 0.064298 -1.448050
  20 4.198548 18.150824 1.709136 0.499437 -2.333341 0.304175
  21 0.002827 4.780092 -0.021077 -1.880463 -0.127749 -0.177834
  22 0.000001 10.318099 0.000000 -1.949753 0.460058 -2.174220
  23 0.000000 10.229102 0.000000 1.260983 -0.433221 0.580007
  24 0.000004 17.897509 -0.000007 -0.342122 -0.071393 0.243665
  25 0.000000 5.176012 -0.000002 0.349165 0.058344 -0.327910
  26 0.755616 18.921984 0.960394 0.381247 -0.147234 0.149822
  27 0.000001 3.158195 -0.000000 -0.997275 -0.111636 -0.272662
  28 -0.000001 -17.187595 -0.000000 -1.567712 -0.004820 1.087031
  29 0.000002 3.905660 -4.525524 -0.147743 -0.463991 0.126136
  30 0.000000 13.357016 -0.000003 0.117720 -0.028579 0.507094
  31 0.000006 18.158882 -0.000000 -0.838546 1.609446 -1.571146
  32 -0.000000 2.542062 0.000000 1.558254 0.000018 0.000000
  33 -0.000001 3.135155 0.000001 0.534886 0.034614 0.097683
  34 -0.000002 3.905661 4.546789 0.659521 -0.355403 -0.712605
  35 -0.000002 13.407275 -0.000002 -0.270374 0.099382 0.682606
  36 0.000000 18.158882 -0.000003 1.526154 -1.609461 -1.570119
  37 0.000000 2.542064 -0.000000 1.558254 -3.141546 -0.000000
  38 -0.000000 3.135156 -0.000001 0.021501 0.340103 -0.013480
  39 4.301485 1.405968 0.000001 -0.180236 0.072964 -0.099063
  40 -0.000000 7.030431 -0.000001 -0.430481 -0.565635 -0.106339
  time 8
  0 7.268085 -16.995796 -20.030867 -0.638372 0.000000 -3.141593
  1 -5.962545 4.791655 -20.004484 0.017803 0.000000 3.141593
  2 0.907535 -3.182838 55.465324 -1.570796 0.000000 1.570796
  3 -14.538939 47.662247 -31.908169 1.570796 -1.570795 0.000000
  4 17.441505 48.224285 -1.304977 1.570796 -1.570796 0.000000
  5 -19.249180 46.574490 -17.231998 1.570796 -1.570796 0.000000
  6 4.107665 41.382164 32.536701 1.570796 -1.570796 0.000000
  7 35.534813 63.821545 -7.177353 1.570796 1.570796 0.000000
  8 26.355848 59.971516 6.692030 1.570796 1.570796 0.000000
  9 17.290510 44.052670 -1.402673 1.570796 1.570796 0.000000
  10 0.000000 -17.187595 -0.000000 1.734523 0.187902 1.186709
  11 0.000000 9.251827 0.000001 0.222657 -0.277667 -0.272800
  12 3.332967 6.058993 0.446927 -0.160825 0.121435 -0.410414
  13 -0.000000 4.780092 0.000000 1.284319 0.253606 -2.959958
  14 0.000000 10.318096 -0.000001 0.029690 0.504122 0.275397
  15 -0.000000 10.229103 0.000001 -0.241405 0.128153 0.604814
  16 0.000002 17.897509 0.000001 0.737733 -0.395028 -0.382629
  17 -0.000000 4.707227 0.000001 -1.595606 0.012367 -0.196628
  18 0.759938 19.668795 -1.653215 -0.124563 -0.285144 0.091868
  19 0.000001 2.947695 0.000001 0.402052 0.064298 -1.448050
  20 3.813565 19.547029 1.986907 0.803905 -2.376277 0.492536
  21 0.002825 4.780093 -0.021078 -1.880463 -0.127749 -0.177834
  22 0.000002 10.318098 -0.000001 0.601527 2.411168 0.397380
  23 0.000000 10.229106 0.000003 1.438268 -0.539286 0.606968
  24 -0.000001 17.897520 -0.000001 -0.342122 -0.071393 0.243665
  25 -0.000002 5.176014 0.000001 0.349165 0.058343 -0.327910
  26 0.755611 18.921997 0.960399 0.381247 -0.147233 0.149822
  27 -0.000000 3.158197 -0.000002 -0.986960 -0.111027 -0.272487
  28 -0.000000 -17.187593 -0.000000 -1.567629 -0.005037 1.120659
  29 0.000001 3.905660 -4.525522 -0.157595 -0.432939 0.071125
  30 0.000000 13.357014 -0.000002 0.138072 -0.041226 0.605415
  31 -0.000001 18.158886 -0.000000 -0.838543 1.609446 -1.571135
  32 0.000000 2.542064 0.000000 1.558254 0.000018 0.000000
  33 0.000000 3.135155 -0.000000 0.536875 0.029718 0.093139
  34 -0.000001 3.905660 4.546790 0.652141 -0.294512 -0.719142
  35 -0.000003 13.407273 -0.000001 -0.314968 0.140774 0.820740
  36 -0.000002 18.158890 0.000001 1.493694 -1.609462 -1.570115
  37 0.000000 2.542061 0.000000 1.558254 -3.141546 -0.000000
  38 0.000000 3.135158 -0.000001 -0.034940 0.341846 -0.022718
  39 4.301485 1.405968 0.000001 -0.087940 0.073813 0.018402
  40 0.000001 7.030431 -0.000000 -0.592968 -0.244805 0.008875
  time 9
  0 7.268085 -20.443890 -18.814981 -0.442756 0.000000 -3.141593
  1 -5.962545 2.699704 -20.022829 0.000000 -0.000000 3.141593
  2 0.907535 -3.182838 55.465324 -1.570796 0.000000 1.570796
  3 -9.095110 49.161484 -27.387442 1.570796 -1.570795 0.000000
  4 17.165331 45.818703 3.645385 1.570796 -1.570796 0.000000
  5 -13.694819 46.424320 -16.839066 1.570796 -1.570796 0.000000
  6 7.256806 36.211983 36.564800 1.570796 -1.570796 0.000000
  7 35.483513 63.613251 -7.095188 1.570796 1.570796 0.000000
  8 26.355848 59.971516 6.695953 1.570796 1.570796 0.000000
  9 17.187599 45.133518 -0.758163 1.570796 1.570796 0.000000
  10 -0.000000 -17.187595 -0.000000 1.710196 0.166568 1.312704
  11 0.000000 9.251828 0.000001 0.133462 -0.112854 -0.288142
  12 3.332967 6.058993 0.446927 -0.113306 0.202761 -0.410854
  13 0.000001 4.780091 -0.000000 1.284319 0.253606 -2.959958
  14 0.000001 10.318093 -0.000001 -0.212709 0.354347 -0.560559
  15 -0.000000 10.229107 0.000001 -0.413104 0.355996 1.269111
  16 0.000000 17.897522 -0.000001 0.557683 -0.540881 0.100091
  17 -0.000002 4.707228 -0.000000 -1.600024 0.012147 -0.189113
  18 0.728851 19.043228 -1.873968 -0.344405 -0.342683 0.561142
  19 0.000000 2.947698 0.000001 0.402052 0.064298 -1.448050
  20 3.428586 20.943256 2.264671 1.104893 -2.377475 0.684446
  21 0.002827 4.780093 -0.021077 -1.880463 -0.127749 -0.177834
  22 0.000002 10.318096 0.000000 -0.207882 2.318711 -0.168142
  23 -0.000001 10.229099 0.000001 1.624370 -0.647384 0.612116
  24 -0.000002 17.897505 0.000006 -0.342122 -0.071393 0.243665
  25 -0.000000 5.176010 0.000001 0.349165 0.058343 -0.327910
  26 0.755610 18.921978 0.960407 0.381247 -0.147234 0.149822
  27 -0.000000 3.158195 -0.000001 -0.975742 -0.110550 -0.272446
  28 -0.000001 -17.187593 -0.000000 -1.567510 -0.005255 1.210488
  29 0.000001 3.905659 -4.525524 -0.224244 -0.330169 0.186957
  30 0.000001 13.357007 -0.000005 0.149149 -0.049353 0.661665
  31 0.000003 18.158875 0.000000 -1.034216 1.609449 -1.571197
  32 -0.000000 2.542061 -0.000001 1.558254 0.000018 0.000000
  33 0.000000 3.135158 -0.000002 0.537373 0.023705 0.087431
  34 -0.000001 3.905660 4.546790 0.615918 -0.179350 -0.743849
  35 -0.000003 13.407274 -0.000002 -0.362305 0.200352 0.991945
  36 0.000004 18.158882 -0.000002 1.475904 -1.609462 -1.570122
  37 -0.000000 2.542062 0.000000 1.558254 -3.141546 -0.000000
  38 0.000001 3.135157 -0.000000 -0.075392 0.342718 -0.028768
  39 4.301486 1.405968 0.000000 -0.000000 0.000000 0.063895
  40 -0.000000 7.030430 -0.000000 0.000000 -0.000000 -0.151284
end
