version 1
nodes
0 "ShinIK.R" -1
1 "ShinIK.L" -1
2 "All.000" -1
3 "ForearmIK.R" 2
4 "ForearmIK.L" 2
5 "UpperarmIK.R" 2
6 "UpperarmIK.L" 2
7 "KneeIK.R" 2
8 "KneeIK.L" 2
9 "Spine.009" 2
10 "Spine.001" 9
11 "Spine.002" 10
12 "Spine.004" 11
13 "Arm.R.001" 11
14 "Arm.R.002" 13
15 "Arm.R.003" 14
16 "Arm.R.004" 15
17 "Arm.R.005" 16
18 "Arm.R.006" 15
19 "Arm.R.007" 18
20 "Wep.000" 15
21 "Arm.L.001" 11
22 "Arm.L.002" 21
23 "Arm.L.003" 22
24 "Arm.L.004" 23
25 "Arm.L.005" 24
26 "Arm.L.006" 23
27 "Arm.L.007" 26
28 "Spine.000" 9
29 "Leg.R.001" 28
30 "Leg.R.002" 29
31 "Leg.R.003" 30
32 "Leg.R.004" 31
33 "Leg.R.005" 32
34 "Leg.L.001" 28
35 "Leg.L.002" 34
36 "Leg.L.003" 35
37 "Leg.L.004" 36
38 "Leg.L.005" 37
39 "Loincloth.000" 28
40 "Loincloth.001" 39
end
skeleton
  time 0
  0 7.268085 -15.485830 -8.454771 -0.029194 0.000000 -3.141593
  1 -5.962544 16.518490 -19.847342 0.476577 0.000000 3.141593
  2 0.907535 -3.182838 55.465324 -1.570796 0.000000 1.570796
  3 28.559214 34.237534 -2.832581 1.570796 -1.570795 0.000000
  4 8.124995 49.960472 16.892742 1.570796 -1.570796 0.000000
  5 14.399951 50.745136 -8.708035 1.570796 -1.570796 0.000000
  6 -17.141844 48.209297 20.218109 1.570796 -1.570796 0.000000
  7 36.081364 67.131691 -8.483106 1.570796 1.570796 0.000000
  8 26.355850 59.971519 2.283945 1.570796 1.570796 0.000000
  9 17.187601 47.009056 0.000009 1.570796 1.570796 0.000000
  10 -0.000001 -17.187595 -0.000000 1.457994 0.267313 1.573195
  11 -0.000002 9.251828 0.000001 -0.295963 0.376131 -0.422978
  12 3.332966 6.058994 0.446928 0.284757 -0.209126 -0.332635
  13 -0.000000 4.780092 0.000000 1.284319 0.253606 -2.959958
  14 -0.000001 10.318098 0.000001 -0.960088 1.253216 0.195129
  15 0.000001 10.229101 -0.000000 -0.400743 0.323251 1.188577
  16 0.000002 17.897511 -0.000007 0.501053 -0.709393 -0.007064
  17 -0.000000 4.707223 -0.000001 -1.543895 0.017471 -0.231712
  18 1.098891 19.000629 -1.932393 -1.093380 -0.173902 0.456183
  19 0.000001 2.947695 0.000001 -0.431443 0.142219 -0.295396
  20 3.290200 20.779572 2.548905 -0.894820 -0.378851 1.910506
  21 0.002824 4.780093 -0.021077 -1.880463 -0.127748 -0.177833
  22 0.000002 10.318098 -0.000002 -0.182860 1.960100 -0.058611
  23 0.000001 10.229097 -0.000002 1.678905 -0.677483 0.609023
  24 -0.000006 17.897499 -0.000004 -0.436901 0.982949 0.199939
  25 -0.000000 5.176010 -0.000001 0.471437 -0.027953 -0.775141
  26 0.879476 19.063442 0.435578 0.189215 0.612755 0.209354
  27 -0.000000 3.158195 0.000001 -0.837781 -0.199801 -0.549748
  28 -0.000001 -17.187595 -0.000000 -1.668767 -0.060554 1.162550
  29 0.000001 3.905659 -4.525524 -0.055456 -0.502383 -0.595284
  30 -0.000000 13.357019 -0.000001 0.225715 -0.332772 1.959486
  31 -0.000000 18.158884 -0.000001 -1.447841 1.609456 -1.571260
  32 0.000000 2.542063 0.000001 1.558254 0.000018 0.000000
  33 -0.000000 3.135158 0.000000 -0.085475 0.048369 0.056586
  34 -0.000000 3.905660 4.546788 0.557141 0.116482 -0.835818
  35 0.000001 13.407270 -0.000002 -0.232603 0.071989 0.575698
  36 -0.000002 18.158878 -0.000003 -1.189040 -1.532152 1.571395
  37 0.000000 2.542061 -0.000001 1.558254 -3.141546 -0.000000
  38 0.000000 3.135155 0.000001 -0.091756 0.342973 -0.030933
  39 4.301485 1.405968 -0.000000 0.014129 0.164970 0.065899
  40 -0.000000 7.030431 -0.000001 0.000940 0.028782 -0.104941
  time 1
  0 7.969920 -6.889860 -11.437782 0.117760 0.000000 -3.141593
  1 -6.275075 1.563380 -19.454393 -0.157063 0.022359 -3.004887
  2 0.907535 -3.182838 55.465324 -1.570796 0.000000 1.570796
  3 27.066782 38.202473 -9.993044 1.570796 -1.570795 0.000000
  4 11.328758 49.300480 17.223595 1.570796 -1.570796 0.000000
  5 -6.115735 49.260452 -8.860049 1.570796 -1.570796 0.000000
  6 -16.049746 46.204903 24.070675 1.570796 -1.570796 0.000000
  7 36.052002 66.874680 -8.381722 1.570796 1.570796 0.000000
  8 26.355850 59.971519 2.273167 1.570796 1.570796 0.000000
  9 17.187601 45.064938 0.000009 1.570796 1.570796 0.000000
  10 -0.000001 -17.187595 -0.000000 1.549189 0.267420 1.598315
  11 0.000000 9.251826 -0.000001 -0.119467 0.243023 -0.351495
  12 3.332968 6.058992 0.446929 0.139160 -0.167947 -0.348190
  13 0.000001 4.780091 0.000001 1.284319 0.253606 -2.959958
  14 -0.000000 10.318097 0.000000 -1.134240 1.040482 -0.003533
  15 -0.000003 10.229101 -0.000001 -0.394025 0.308192 1.150837
  16 0.000003 17.897520 0.000002 0.375000 -0.746588 0.075830
  17 -0.000001 4.707226 -0.000000 -1.147469 -0.003914 -0.145187
  18 1.098891 19.000639 -1.932386 -1.228948 -0.153531 0.480320
  19 0.000002 2.947696 0.000003 -0.431443 0.142219 -0.295396
  20 -0.575453 19.521667 0.010768 -1.972959 -0.204462 1.787271
  21 0.002826 4.780092 -0.021077 -1.880463 -0.127749 -0.177834
  22 0.000000 10.318099 -0.000002 0.117244 2.060825 0.039168
  23 -0.000001 10.229099 -0.000001 1.428355 -0.533374 0.606017
  24 0.000003 17.897511 -0.000001 -0.443720 0.964316 0.133274
  25 0.000001 5.176011 0.000001 0.436289 -0.011036 -0.658506
  26 0.948775 18.986763 0.412207 0.207028 0.830524 -0.018518
  27 -0.000000 3.158196 -0.000000 -0.790370 -0.202587 -0.602604
  28 -0.000001 -17.187595 -0.000000 -1.618793 -0.042622 1.366091
  29 0.000002 3.905660 -4.525525 -0.123336 -0.308694 -0.972276
  30 -0.000002 13.357019 -0.000002 0.234446 -0.308988 1.852588
  31 0.000005 18.158894 0.000000 1.546790 1.532134 1.570328
  32 0.000001 2.542065 0.000001 1.558254 0.000018 0.000000
  33 0.000000 3.135157 0.000000 -0.085141 0.053937 0.063121
  34 -0.000001 3.905661 4.546789 0.439951 0.153244 -0.698856
  35 -0.000002 13.407274 -0.000001 -0.382810 0.234175 1.080510
  36 0.000001 18.158884 -0.000004 0.240934 -1.723342 -0.491145
  37 -0.000000 2.542063 -0.000000 1.558254 -3.141546 0.000000
  38 -0.000000 3.135156 0.000001 -0.037750 0.332707 0.044513
  39 4.301485 1.405967 0.000001 0.012105 0.141882 0.065348
  40 0.000001 7.030431 0.000000 0.000579 0.025600 -0.118389
  time 2
  0 9.273324 8.417031 -16.977657 0.393436 0.000000 -3.141593
  1 -6.587605 -13.391727 -17.435461 0.166695 -0.000000 -2.868101
  2 0.907535 -3.182838 55.465324 -1.570796 0.000000 1.570796
  3 23.368282 34.237534 -17.153511 1.570796 -1.570795 0.000000
  4 14.738783 46.169651 17.620747 1.570796 -1.570796 0.000000
  5 -26.631418 47.775776 -9.652200 1.570796 -1.570796 0.000000
  6 -14.021561 41.916370 31.225437 1.570796 -1.570796 0.000000
  7 36.021282 66.620331 -8.281389 1.570796 1.570796 0.000000
  8 26.355848 59.971516 5.158387 1.570796 1.570796 0.000000
  9 17.187601 43.120823 0.000009 1.570796 1.570796 0.000000
  10 -0.000001 -17.187595 -0.000000 1.718326 0.260779 1.641895
  11 0.000001 9.251827 0.000001 0.182615 -0.032423 -0.289013
  12 3.332968 6.058991 0.446928 -0.132375 -0.098911 -0.400689
  13 0.000001 4.780091 0.000000 1.284319 0.253606 -2.959958
  14 0.000001 10.318101 0.000001 0.221836 0.816018 1.156112
  15 0.000000 10.229106 -0.000001 -0.379593 0.280033 1.078639
  16 0.000004 17.897514 -0.000003 0.241070 -0.775447 0.167224
  17 -0.000001 4.707228 0.000000 -0.353214 -0.135582 -0.027314
  18 1.098890 19.000637 -1.932391 -1.247171 -0.127373 0.508001
  19 -0.000000 2.947696 -0.000002 -0.431443 0.142219 -0.295396
  20 -4.387162 18.978485 -3.498304 -0.318010 -2.818012 -1.405720
  21 0.002827 4.780091 -0.021077 -1.880463 -0.127749 -0.177834
  22 0.000000 10.318100 -0.000001 0.582340 2.201433 0.490638
  23 0.000000 10.229103 0.000002 1.266941 -0.436765 0.581245
  24 -0.000008 17.897511 -0.000001 -0.361840 0.955383 0.100817
  25 -0.000002 5.176013 0.000000 0.376858 0.030957 -0.442403
  26 1.077448 18.844339 0.368794 0.507641 1.113411 0.207493
  27 -0.000000 3.158195 0.000000 -0.726276 -0.199145 -0.669460
  28 -0.000001 -17.187595 -0.000000 -1.518398 -0.035946 1.753914
  29 0.000001 3.905660 -4.525524 -0.426449 -0.077403 -0.909028
  30 0.000001 13.357020 -0.000000 0.201840 -0.105611 0.977198
  31 -0.000002 18.158888 0.000000 1.271143 1.532129 1.570354
  32 0.000000 2.542061 0.000001 1.558254 0.000018 -0.000000
  33 0.000001 3.135157 -0.000003 -0.084742 0.059915 0.070143
  34 -0.000001 3.905662 4.546790 0.218517 0.273167 -0.152300
  35 0.000001 13.407278 -0.000000 -0.334455 0.162879 0.887145
  36 0.000002 18.158884 -0.000002 0.294343 -1.850071 -0.216565
  37 0.000001 2.542062 0.000002 1.558254 -3.141546 -0.000000
  38 0.000001 3.135158 -0.000001 0.515089 0.285439 0.104458
  39 4.301486 1.405968 0.000001 0.009957 0.117106 0.064867
  40 0.000000 7.030431 0.000000 0.000316 0.021834 -0.129775
  time 3
  0 9.975159 16.594872 -19.960665 0.540390 -0.000000 -3.141593
  1 -6.638742 -9.364738 -13.492447 0.590193 -0.028168 -3.010742
  2 0.907535 -3.182838 55.465324 -1.570796 0.000000 1.570796
  3 18.977848 30.061934 -16.169523 1.570796 -1.570795 0.000000
  4 15.971773 49.567112 17.841633 1.570796 -1.570796 0.000000
  5 -11.163260 49.359570 -11.501457 1.570796 -1.570796 0.000000
  6 -12.929463 37.930687 35.078003 1.570796 -1.570796 0.000000
  7 35.989159 66.368767 -8.182155 1.570796 1.570796 0.000000
  8 26.355848 59.971516 5.465003 1.570796 1.570796 0.000000
  9 17.187601 47.508896 -0.118455 1.570796 1.570796 0.000000
  10 -0.000000 -17.187595 -0.000000 1.808431 0.250964 1.663865
  11 0.000002 9.251826 0.000001 0.337456 -0.181350 -0.290207
  12 3.332966 6.058995 0.446928 -0.275365 -0.071265 -0.459520
  13 -0.000001 4.780093 -0.000001 1.284319 0.253606 -2.959958
  14 -0.000001 10.318100 -0.000000 0.799261 0.509719 1.809426
  15 -0.000001 10.229105 -0.000002 -0.383116 0.286471 1.095362
  16 -0.000001 17.897514 -0.000003 1.089990 -0.682560 -0.089573
  17 0.000001 4.707227 -0.000001 0.040342 -0.223769 -0.015113
  18 1.092614 19.015831 -1.935264 -1.055019 -0.307309 0.659132
  19 -0.000001 2.947696 -0.000001 0.402052 0.064298 -1.448050
  20 0.015213 22.550863 -2.550334 1.760666 -0.312708 1.778844
  21 0.002825 4.780093 -0.021078 -1.880463 -0.127749 -0.177834
  22 0.000002 10.318095 -0.000001 0.571346 2.308398 0.502412
  23 0.000003 10.229102 0.000004 1.180411 -0.385758 0.561117
  24 0.000007 17.897503 0.000001 -0.514107 1.020277 0.027989
  25 -0.000002 5.176010 -0.000000 0.349165 0.058344 -0.327910
  26 1.146749 18.767639 0.345424 0.928166 1.175641 0.670018
  27 -0.000001 3.158195 0.000001 -0.694310 -0.195412 -0.702197
  28 -0.000001 -17.187595 -0.000000 -1.465636 -0.043053 1.957982
  29 0.000001 3.905661 -4.525525 -0.604741 0.000022 -0.924615
  30 -0.000000 13.357015 -0.000001 0.133144 -0.037905 0.581063
  31 -0.000001 18.158880 -0.000001 1.124209 1.532127 1.570376
  32 -0.000000 2.542066 -0.000001 1.558254 0.000018 -0.000000
  33 0.000001 3.135158 0.000001 -0.084267 0.066314 0.077671
  34 -0.000002 3.905662 4.546790 0.079988 0.519307 -0.916326
  35 -0.000000 13.407276 -0.000002 -0.433091 0.494979 1.703597
  36 0.000005 18.158888 -0.000001 0.656826 -1.705145 -0.156440
  37 -0.000001 2.542062 -0.000001 1.558254 -3.141546 0.000000
  38 0.000000 3.135154 -0.000000 0.695470 0.277217 0.092397
  39 4.301486 1.405967 0.000001 0.007680 0.090584 0.064466
  40 -0.000000 7.030430 0.000000 0.000142 0.017438 -0.138929
  time 4
  0 9.273325 0.810466 -19.857534 -0.100083 0.000469 3.041110
  1 -6.646048 -5.160594 -11.175419 0.579069 0.000000 3.141593
  2 0.907535 -3.182838 55.465324 -1.570796 0.000000 1.570796
  3 16.793482 26.937737 -9.281578 1.570796 -1.570795 0.000000
  4 14.365262 54.416454 17.367186 1.570796 -1.570796 0.000000
  5 -13.848023 51.622143 -15.029209 1.570796 -1.570796 0.000000
  6 -13.088947 35.839321 30.082806 1.570796 -1.570796 0.000000
  7 35.955616 66.120125 -8.084071 1.570796 1.570796 0.000000
  8 26.355848 59.971516 5.727898 1.570796 1.570796 0.000000
  9 17.187601 45.671055 -0.379077 1.570796 1.570796 0.000000
  10 -0.000001 -17.187595 -0.000000 1.637713 0.234553 1.594170
  11 0.000000 9.251827 0.000001 0.182727 -0.051809 -0.293262
  12 3.332968 6.058991 0.446928 -0.220651 -0.128250 -0.488681
  13 0.000001 4.780090 -0.000000 1.284319 0.253606 -2.959958
  14 -0.000001 10.318099 0.000001 0.322997 0.943076 1.466682
  15 0.000001 10.229108 0.000001 -0.433388 0.461286 1.522337
  16 -0.000001 17.897518 -0.000005 1.805381 -0.455139 -0.181803
  17 0.000001 4.707228 -0.000000 -0.747380 -0.057951 -0.073294
  18 1.080796 19.043213 -1.942865 -0.683698 -0.453366 0.573169
  19 0.000000 2.947698 0.000001 0.402052 0.064298 -1.448050
  20 2.930611 23.176994 -1.639872 0.491029 -0.411085 1.753463
  21 0.002828 4.780090 -0.021077 -1.880463 -0.127749 -0.177834
  22 -0.000001 10.318096 0.000001 0.411253 2.326076 0.002853
  23 0.000002 10.229103 0.000004 0.900264 -0.233826 0.467707
  24 0.000002 17.897514 0.000002 -0.469724 0.912827 0.075690
  25 -0.000002 5.176012 0.000001 0.349165 0.058344 -0.327910
  26 1.105746 18.814373 0.358677 0.275755 1.141069 0.017606
  27 -0.000001 3.158197 0.000000 -0.871381 -0.177388 -0.487763
  28 -0.000001 -17.187595 -0.000000 -1.489786 -0.024315 1.837333
  29 0.000000 3.905660 -4.525525 -0.536721 -0.010297 -0.766938
  30 -0.000000 13.357018 0.000001 0.226478 -0.151754 1.190299
  31 0.000000 18.158894 0.000000 -0.240158 1.681162 -0.432503
  32 0.000000 2.542064 0.000000 1.558254 0.000018 -0.000000
  33 -0.000001 3.135158 0.000001 0.136226 0.063776 0.093561
  34 -0.000001 3.905662 4.546790 0.163978 0.455362 -1.135403
  35 -0.000000 13.407276 -0.000001 -0.426399 0.528126 1.786489
  36 0.000002 18.158884 -0.000005 -1.086478 -1.532156 1.571334
  37 0.000000 2.542064 -0.000002 1.558254 -3.141546 -0.000000
  38 0.000001 3.135158 -0.000001 0.676568 0.280904 0.088193
  39 4.301485 1.405967 0.000001 0.005268 0.062259 0.064160
  40 0.000000 7.030432 -0.000001 0.000045 0.012365 -0.145679
  time 5
  0 7.969918 -14.973941 -19.135614 -0.109412 -0.000000 2.944412
  1 -6.304296 -4.953910 -15.599123 0.226169 0.000000 3.141593
  2 0.907535 -3.182838 55.465324 -1.570796 0.000000 1.570796
  3 22.859148 29.667437 0.602052 1.570796 -1.570795 0.000000
  4 8.124994 47.798023 16.892742 1.570796 -1.570796 0.000000
  5 -16.532784 53.884712 -18.556963 1.570796 -1.570796 0.000000
  6 -13.402599 35.068821 18.289141 1.570796 -1.570796 0.000000
  7 35.920609 65.874512 -7.987185 1.570796 1.570796 0.000000
  8 26.355848 59.971516 5.950433 1.570796 1.570796 0.000000
  9 17.187601 43.833210 -0.639699 1.570796 1.570796 0.000000
  10 -0.000001 -17.187595 -0.000000 1.454798 0.189698 1.440602
  11 -0.000000 9.251827 -0.000000 -0.083957 0.205635 -0.351526
  12 3.332968 6.058994 0.446928 -0.090243 -0.258358 -0.508994
  13 -0.000000 4.780092 0.000000 1.284319 0.253606 -2.959958
  14 0.000002 10.318100 -0.000001 -0.819618 1.089812 0.973764
  15 -0.000002 10.229104 -0.000001 -0.389191 0.298201 1.125487
  16 0.000001 17.897505 -0.000001 1.095850 -0.504282 -0.076722
  17 -0.000000 4.707224 0.000001 -1.543895 0.017471 -0.231713
  18 1.074860 19.060030 -1.941351 -0.472039 -0.472270 0.471468
  19 0.000001 2.947694 0.000000 0.402052 0.064298 -1.448050
  20 3.439052 22.349791 -0.207638 -0.233826 -0.142203 1.979921
  21 0.002827 4.780092 -0.021077 -1.880463 -0.127749 -0.177833
  22 -0.000000 10.318102 0.000000 0.053905 2.217412 0.594871
  23 -0.000003 10.229104 -0.000003 1.700062 -0.688907 0.607267
  24 -0.000002 17.897505 0.000004 -0.404994 0.643362 0.149239
  25 0.000000 5.176009 0.000001 0.349165 0.058344 -0.327910
  26 1.013111 18.915545 0.390508 -0.049142 0.803564 -0.350074
  27 0.000000 3.158195 0.000001 -1.039950 -0.122131 -0.279692
  28 -0.000001 -17.187595 -0.000000 -1.540327 -0.007059 1.610698
  29 0.000002 3.905660 -4.525525 -0.222654 0.055750 0.001627
  30 0.000000 13.357018 -0.000001 0.161708 -0.059811 0.728480
  31 -0.000001 18.158878 -0.000002 -0.069411 1.774739 -0.269233
  32 -0.000001 2.542062 0.000000 1.558254 0.000018 0.000000
  33 0.000002 3.135155 0.000002 0.378131 0.054339 0.104622
  34 -0.000001 3.905659 4.546789 0.365246 0.216391 -0.701854
  35 -0.000001 13.407272 -0.000002 -0.421120 0.327209 1.307212
  36 0.000008 18.158878 -0.000003 -1.439512 -1.532140 1.571465
  37 -0.000000 2.542064 -0.000000 1.558254 -3.141546 -0.000000
  38 0.000000 3.135157 -0.000000 0.627128 0.287317 0.082591
  39 4.301485 1.405968 0.000001 0.002710 0.032081 0.063964
  40 -0.000000 7.030431 -0.000001 0.000006 0.006569 -0.149855
end
