version 1
nodes
0 "root" -1
end
skeleton
time 0
0 0 0 0 0 0 0
end
triangles
wswamp2_2
0 1160.0000 1112.0000 128.0000 1.0000 -0.0000 0.0000 17.375000 2.000000
0 1160.0000 1192.0000 48.0000 1.0000 -0.0000 0.0000 18.625000 0.750000
0 1160.0000 1192.0000 128.0000 1.0000 -0.0000 0.0000 18.625000 2.000000
wswamp2_2
0 1160.0000 1112.0000 128.0000 1.0000 0.0000 0.0000 17.375000 2.000000
0 1160.0000 1112.0000 48.0000 1.0000 0.0000 0.0000 17.375000 0.750000
0 1160.0000 1192.0000 48.0000 1.0000 0.0000 0.0000 18.625000 0.750000
wswamp2_2
0 1160.0000 1192.0000 48.0000 0.0000 -1.0000 0.0000 18.125000 0.750000
0 1176.0000 1192.0000 128.0000 0.0000 -1.0000 0.0000 18.375000 2.000000
0 1160.0000 1192.0000 128.0000 0.0000 -1.0000 0.0000 18.125000 2.000000
wswamp2_2
0 1160.0000 1192.0000 48.0000 0.0000 -1.0000 0.0000 18.125000 0.750000
0 1176.0000 1192.0000 48.0000 0.0000 -1.0000 0.0000 18.375000 0.750000
0 1176.0000 1192.0000 128.0000 0.0000 -1.0000 0.0000 18.375000 2.000000
wswamp2_2
0 1176.0000 1192.0000 48.0000 -1.0000 0.0000 0.0000 18.625000 0.750000
0 1176.0000 1112.0000 128.0000 -1.0000 0.0000 0.0000 17.375000 2.000000
0 1176.0000 1192.0000 128.0000 -1.0000 0.0000 0.0000 18.625000 2.000000
wswamp2_2
0 1176.0000 1192.0000 48.0000 -1.0000 0.0000 0.0000 18.625000 0.750000
0 1176.0000 1112.0000 48.0000 -1.0000 0.0000 0.0000 17.375000 0.750000
0 1176.0000 1112.0000 128.0000 -1.0000 0.0000 0.0000 17.375000 2.000000
wswamp2_2
0 1176.0000 1112.0000 128.0000 0.0000 1.0000 0.0000 18.375000 2.000000
0 1160.0000 1112.0000 48.0000 0.0000 1.0000 0.0000 18.125000 0.750000
0 1160.0000 1112.0000 128.0000 0.0000 1.0000 0.0000 18.125000 2.000000
wswamp2_2
0 1176.0000 1112.0000 128.0000 0.0000 1.0000 0.0000 18.375000 2.000000
0 1176.0000 1112.0000 48.0000 0.0000 1.0000 0.0000 18.375000 0.750000
0 1160.0000 1112.0000 48.0000 0.0000 1.0000 0.0000 18.125000 0.750000
wswamp2_2
0 1176.0000 1192.0000 128.0000 -0.0000 0.0000 -1.0000 18.375000 18.625000
0 1160.0000 1112.0000 128.0000 -0.0000 0.0000 -1.0000 18.125000 17.375000
0 1160.0000 1192.0000 128.0000 -0.0000 0.0000 -1.0000 18.125000 18.625000
wswamp2_2
0 1176.0000 1192.0000 128.0000 0.0000 -0.0000 -1.0000 18.375000 18.625000
0 1176.0000 1112.0000 128.0000 0.0000 -0.0000 -1.0000 18.375000 17.375000
0 1160.0000 1112.0000 128.0000 0.0000 -0.0000 -1.0000 18.125000 17.375000
wswamp2_2
0 1160.0000 1112.0000 48.0000 0.0000 0.0000 1.0000 18.125000 17.375000
0 1176.0000 1192.0000 48.0000 0.0000 0.0000 1.0000 18.375000 18.625000
0 1160.0000 1192.0000 48.0000 0.0000 0.0000 1.0000 18.125000 18.625000
wswamp2_2
0 1160.0000 1112.0000 48.0000 0.0000 0.0000 1.0000 18.125000 17.375000
0 1176.0000 1112.0000 48.0000 0.0000 0.0000 1.0000 18.375000 17.375000
0 1176.0000 1192.0000 48.0000 0.0000 0.0000 1.0000 18.375000 18.625000
end
