version 1
nodes
0 "root" -1
end
skeleton
time 0
0 0 0 0 0 0 0
end
triangles
wmet4_5
0 1224.0000 -8.0000 68.0000 1.0000 0.0000 0.0000 -0.125000 1.062500
0 1224.0000 0.0000 232.0000 1.0000 0.0000 0.0000 0.000000 3.625000
0 1224.0000 -8.0000 232.0000 1.0000 0.0000 0.0000 -0.125000 3.625000
wmet4_5
0 1224.0000 -8.0000 68.0000 1.0000 0.0000 0.0000 -0.125000 1.062500
0 1224.0000 0.0000 68.0000 1.0000 0.0000 0.0000 0.000000 1.062500
0 1224.0000 0.0000 232.0000 1.0000 0.0000 0.0000 0.000000 3.625000
wmet4_5
0 1248.0000 0.0000 68.0000 0.0000 -1.0000 0.0000 19.500000 1.062500
0 1224.0000 0.0000 232.0000 0.0000 -1.0000 0.0000 19.125000 3.625000
0 1224.0000 0.0000 68.0000 0.0000 -1.0000 0.0000 19.125000 1.062500
wmet4_5
0 1248.0000 0.0000 68.0000 0.0000 -1.0000 0.0000 19.500000 1.062500
0 1248.0000 0.0000 232.0000 0.0000 -1.0000 0.0000 19.500000 3.625000
0 1224.0000 0.0000 232.0000 0.0000 -1.0000 0.0000 19.125000 3.625000
wmet4_5
0 1248.0000 0.0000 68.0000 -1.0000 0.0000 0.0000 0.000000 1.062500
0 1248.0000 -8.0000 232.0000 -1.0000 0.0000 0.0000 -0.125000 3.625000
0 1248.0000 0.0000 232.0000 -1.0000 0.0000 0.0000 0.000000 3.625000
wmet4_5
0 1248.0000 0.0000 68.0000 -1.0000 0.0000 0.0000 0.000000 1.062500
0 1248.0000 -8.0000 68.0000 -1.0000 0.0000 0.0000 -0.125000 1.062500
0 1248.0000 -8.0000 232.0000 -1.0000 0.0000 0.0000 -0.125000 3.625000
wmet4_5
0 1248.0000 -8.0000 232.0000 0.0000 1.0000 0.0000 19.500000 3.625000
0 1224.0000 -8.0000 68.0000 0.0000 1.0000 0.0000 19.125000 1.062500
0 1224.0000 -8.0000 232.0000 0.0000 1.0000 0.0000 19.125000 3.625000
wmet4_5
0 1248.0000 -8.0000 232.0000 0.0000 1.0000 0.0000 19.500000 3.625000
0 1248.0000 -8.0000 68.0000 0.0000 1.0000 0.0000 19.500000 1.062500
0 1224.0000 -8.0000 68.0000 0.0000 1.0000 0.0000 19.125000 1.062500
wmet4_5
0 1248.0000 0.0000 232.0000 -0.0000 0.0000 -1.0000 19.500000 -0.000000
0 1224.0000 -8.0000 232.0000 -0.0000 0.0000 -1.0000 19.125000 -0.125000
0 1224.0000 0.0000 232.0000 -0.0000 0.0000 -1.0000 19.125000 -0.000000
wmet4_5
0 1248.0000 0.0000 232.0000 0.0000 -0.0000 -1.0000 19.500000 -0.000000
0 1248.0000 -8.0000 232.0000 0.0000 -0.0000 -1.0000 19.500000 -0.125000
0 1224.0000 -8.0000 232.0000 0.0000 -0.0000 -1.0000 19.125000 -0.125000
wmet4_5
0 1224.0000 -8.0000 68.0000 0.0000 0.0000 1.0000 19.125000 -0.125000
0 1248.0000 0.0000 68.0000 0.0000 0.0000 1.0000 19.500000 -0.000000
0 1224.0000 0.0000 68.0000 0.0000 0.0000 1.0000 19.125000 -0.000000
wmet4_5
0 1224.0000 -8.0000 68.0000 0.0000 0.0000 1.0000 19.125000 -0.125000
0 1248.0000 -8.0000 68.0000 0.0000 0.0000 1.0000 19.500000 -0.125000
0 1248.0000 0.0000 68.0000 0.0000 0.0000 1.0000 19.500000 -0.000000
wmet4_5
0 1296.0000 -8.0000 216.0000 1.0000 0.0000 0.0000 -0.125000 3.375000
0 1296.0000 56.0000 272.0000 1.0000 0.0000 0.0000 0.875000 4.250000
0 1296.0000 32.0000 272.0000 1.0000 0.0000 0.0000 0.500000 4.250000
wmet4_5
0 1296.0000 -8.0000 216.0000 1.0000 0.0000 0.0000 -0.125000 3.375000
0 1296.0000 16.0000 216.0000 1.0000 0.0000 0.0000 0.250000 3.375000
0 1296.0000 56.0000 272.0000 1.0000 0.0000 0.0000 0.875000 4.250000
wmet4_5
0 1320.0000 16.0000 216.0000 0.0000 -0.8137 0.5812 20.625000 3.375000
0 1296.0000 56.0000 272.0000 0.0000 -0.8137 0.5812 20.250000 4.250000
0 1296.0000 16.0000 216.0000 0.0000 -0.8137 0.5812 20.250000 3.375000
wmet4_5
0 1320.0000 16.0000 216.0000 0.0000 -0.8137 0.5812 20.625000 3.375000
0 1320.0000 56.0000 272.0000 0.0000 -0.8137 0.5812 20.625000 4.250000
0 1296.0000 56.0000 272.0000 0.0000 -0.8137 0.5812 20.250000 4.250000
wmet4_5
0 1320.0000 16.0000 216.0000 -1.0000 0.0000 0.0000 0.250000 3.375000
0 1320.0000 32.0000 272.0000 -1.0000 0.0000 0.0000 0.500000 4.250000
0 1320.0000 56.0000 272.0000 -1.0000 0.0000 0.0000 0.875000 4.250000
wmet4_5
0 1320.0000 16.0000 216.0000 -1.0000 0.0000 0.0000 0.250000 3.375000
0 1320.0000 -8.0000 216.0000 -1.0000 0.0000 0.0000 -0.125000 3.375000
0 1320.0000 32.0000 272.0000 -1.0000 0.0000 0.0000 0.500000 4.250000
wmet4_5
0 1320.0000 -8.0000 216.0000 0.0000 0.8137 -0.5812 20.625000 3.375000
0 1296.0000 32.0000 272.0000 0.0000 0.8137 -0.5812 20.250000 4.250000
0 1320.0000 32.0000 272.0000 0.0000 0.8137 -0.5812 20.625000 4.250000
wmet4_5
0 1320.0000 -8.0000 216.0000 0.0000 0.8137 -0.5812 20.625000 3.375000
0 1296.0000 -8.0000 216.0000 0.0000 0.8137 -0.5812 20.250000 3.375000
0 1296.0000 32.0000 272.0000 0.0000 0.8137 -0.5812 20.250000 4.250000
wmet4_5
0 1320.0000 56.0000 272.0000 -0.0000 0.0000 -1.0000 20.625000 0.875000
0 1296.0000 32.0000 272.0000 -0.0000 0.0000 -1.0000 20.250000 0.500000
0 1296.0000 56.0000 272.0000 -0.0000 0.0000 -1.0000 20.250000 0.875000
wmet4_5
0 1320.0000 56.0000 272.0000 0.0000 -0.0000 -1.0000 20.625000 0.875000
0 1320.0000 32.0000 272.0000 0.0000 -0.0000 -1.0000 20.625000 0.500000
0 1296.0000 32.0000 272.0000 0.0000 -0.0000 -1.0000 20.250000 0.500000
wmet4_5
0 1296.0000 -8.0000 216.0000 0.0000 0.0000 1.0000 20.250000 -0.125000
0 1320.0000 16.0000 216.0000 0.0000 0.0000 1.0000 20.625000 0.250000
0 1296.0000 16.0000 216.0000 0.0000 0.0000 1.0000 20.250000 0.250000
wmet4_5
0 1296.0000 -8.0000 216.0000 0.0000 0.0000 1.0000 20.250000 -0.125000
0 1320.0000 -8.0000 216.0000 0.0000 0.0000 1.0000 20.625000 -0.125000
0 1320.0000 16.0000 216.0000 0.0000 0.0000 1.0000 20.625000 0.250000
wmet4_5
0 1224.0000 -8.0000 216.0000 1.0000 0.0000 0.0000 -0.125000 3.375000
0 1224.0000 56.0000 272.0000 1.0000 0.0000 0.0000 0.875000 4.250000
0 1224.0000 32.0000 272.0000 1.0000 0.0000 0.0000 0.500000 4.250000
wmet4_5
0 1224.0000 -8.0000 216.0000 1.0000 0.0000 0.0000 -0.125000 3.375000
0 1224.0000 16.0000 216.0000 1.0000 0.0000 0.0000 0.250000 3.375000
0 1224.0000 56.0000 272.0000 1.0000 0.0000 0.0000 0.875000 4.250000
wmet4_5
0 1248.0000 16.0000 216.0000 0.0000 -0.8137 0.5812 19.500000 3.375000
0 1224.0000 56.0000 272.0000 0.0000 -0.8137 0.5812 19.125000 4.250000
0 1224.0000 16.0000 216.0000 0.0000 -0.8137 0.5812 19.125000 3.375000
wmet4_5
0 1248.0000 16.0000 216.0000 0.0000 -0.8137 0.5812 19.500000 3.375000
0 1248.0000 56.0000 272.0000 0.0000 -0.8137 0.5812 19.500000 4.250000
0 1224.0000 56.0000 272.0000 0.0000 -0.8137 0.5812 19.125000 4.250000
wmet4_5
0 1248.0000 16.0000 216.0000 -1.0000 0.0000 0.0000 0.250000 3.375000
0 1248.0000 32.0000 272.0000 -1.0000 0.0000 0.0000 0.500000 4.250000
0 1248.0000 56.0000 272.0000 -1.0000 0.0000 0.0000 0.875000 4.250000
wmet4_5
0 1248.0000 16.0000 216.0000 -1.0000 0.0000 0.0000 0.250000 3.375000
0 1248.0000 -8.0000 216.0000 -1.0000 0.0000 0.0000 -0.125000 3.375000
0 1248.0000 32.0000 272.0000 -1.0000 0.0000 0.0000 0.500000 4.250000
wmet4_5
0 1248.0000 -8.0000 216.0000 0.0000 0.8137 -0.5812 19.500000 3.375000
0 1224.0000 32.0000 272.0000 0.0000 0.8137 -0.5812 19.125000 4.250000
0 1248.0000 32.0000 272.0000 0.0000 0.8137 -0.5812 19.500000 4.250000
wmet4_5
0 1248.0000 -8.0000 216.0000 0.0000 0.8137 -0.5812 19.500000 3.375000
0 1224.0000 -8.0000 216.0000 0.0000 0.8137 -0.5812 19.125000 3.375000
0 1224.0000 32.0000 272.0000 0.0000 0.8137 -0.5812 19.125000 4.250000
wmet4_5
0 1248.0000 56.0000 272.0000 -0.0000 0.0000 -1.0000 19.500000 0.875000
0 1224.0000 32.0000 272.0000 -0.0000 0.0000 -1.0000 19.125000 0.500000
0 1224.0000 56.0000 272.0000 -0.0000 0.0000 -1.0000 19.125000 0.875000
wmet4_5
0 1248.0000 56.0000 272.0000 0.0000 -0.0000 -1.0000 19.500000 0.875000
0 1248.0000 32.0000 272.0000 0.0000 -0.0000 -1.0000 19.500000 0.500000
0 1224.0000 32.0000 272.0000 0.0000 -0.0000 -1.0000 19.125000 0.500000
wmet4_5
0 1224.0000 -8.0000 216.0000 0.0000 0.0000 1.0000 19.125000 -0.125000
0 1248.0000 16.0000 216.0000 0.0000 0.0000 1.0000 19.500000 0.250000
0 1224.0000 16.0000 216.0000 0.0000 0.0000 1.0000 19.125000 0.250000
wmet4_5
0 1224.0000 -8.0000 216.0000 0.0000 0.0000 1.0000 19.125000 -0.125000
0 1248.0000 -8.0000 216.0000 0.0000 0.0000 1.0000 19.500000 -0.125000
0 1248.0000 16.0000 216.0000 0.0000 0.0000 1.0000 19.500000 0.250000
wmet4_5
0 1208.0000 16.0000 288.0000 1.0000 -0.0000 0.0000 0.250000 4.500000
0 1208.0000 80.0000 272.0000 1.0000 -0.0000 0.0000 1.250000 4.250000
0 1208.0000 80.0000 288.0000 1.0000 -0.0000 0.0000 1.250000 4.500000
wmet4_5
0 1208.0000 16.0000 288.0000 1.0000 0.0000 0.0000 0.250000 4.500000
0 1208.0000 16.0000 272.0000 1.0000 0.0000 0.0000 0.250000 4.250000
0 1208.0000 80.0000 272.0000 1.0000 0.0000 0.0000 1.250000 4.250000
wmet4_5
0 1208.0000 80.0000 272.0000 0.0000 -1.0000 0.0000 18.875000 4.250000
0 1336.0000 80.0000 288.0000 0.0000 -1.0000 0.0000 20.875000 4.500000
0 1208.0000 80.0000 288.0000 0.0000 -1.0000 0.0000 18.875000 4.500000
wmet4_5
0 1208.0000 80.0000 272.0000 0.0000 -1.0000 0.0000 18.875000 4.250000
0 1336.0000 80.0000 272.0000 0.0000 -1.0000 0.0000 20.875000 4.250000
0 1336.0000 80.0000 288.0000 0.0000 -1.0000 0.0000 20.875000 4.500000
wmet4_5
0 1336.0000 80.0000 272.0000 -1.0000 0.0000 0.0000 1.250000 4.250000
0 1336.0000 16.0000 288.0000 -1.0000 0.0000 0.0000 0.250000 4.500000
0 1336.0000 80.0000 288.0000 -1.0000 0.0000 0.0000 1.250000 4.500000
wmet4_5
0 1336.0000 80.0000 272.0000 -1.0000 0.0000 0.0000 1.250000 4.250000
0 1336.0000 16.0000 272.0000 -1.0000 0.0000 0.0000 0.250000 4.250000
0 1336.0000 16.0000 288.0000 -1.0000 0.0000 0.0000 0.250000 4.500000
wmet4_5
0 1336.0000 16.0000 288.0000 0.0000 1.0000 0.0000 20.875000 4.500000
0 1208.0000 16.0000 272.0000 0.0000 1.0000 0.0000 18.875000 4.250000
0 1208.0000 16.0000 288.0000 0.0000 1.0000 0.0000 18.875000 4.500000
wmet4_5
0 1336.0000 16.0000 288.0000 0.0000 1.0000 0.0000 20.875000 4.500000
0 1336.0000 16.0000 272.0000 0.0000 1.0000 0.0000 20.875000 4.250000
0 1208.0000 16.0000 272.0000 0.0000 1.0000 0.0000 18.875000 4.250000
wmet4_5
0 1336.0000 80.0000 288.0000 -0.0000 0.0000 -1.0000 20.875000 1.250000
0 1208.0000 16.0000 288.0000 -0.0000 0.0000 -1.0000 18.875000 0.250000
0 1208.0000 80.0000 288.0000 -0.0000 0.0000 -1.0000 18.875000 1.250000
wmet4_5
0 1336.0000 80.0000 288.0000 0.0000 -0.0000 -1.0000 20.875000 1.250000
0 1336.0000 16.0000 288.0000 0.0000 -0.0000 -1.0000 20.875000 0.250000
0 1208.0000 16.0000 288.0000 0.0000 -0.0000 -1.0000 18.875000 0.250000
wmet4_5
0 1208.0000 16.0000 272.0000 0.0000 0.0000 1.0000 18.875000 0.250000
0 1336.0000 80.0000 272.0000 0.0000 0.0000 1.0000 20.875000 1.250000
0 1208.0000 80.0000 272.0000 0.0000 0.0000 1.0000 18.875000 1.250000
wmet4_5
0 1208.0000 16.0000 272.0000 0.0000 0.0000 1.0000 18.875000 0.250000
0 1336.0000 16.0000 272.0000 0.0000 0.0000 1.0000 20.875000 0.250000
0 1336.0000 80.0000 272.0000 0.0000 0.0000 1.0000 20.875000 1.250000
end
