version 1
nodes
0 "root" -1
end
skeleton
time 0
0 0 0 0 0 0 0
end
triangles
wmet4_5
0 -632.0000 -512.0000 512.0000 1.0000 -0.0000 0.0000 -8.000000 8.000000
0 -632.0000 -480.0000 480.0000 1.0000 -0.0000 0.0000 -7.500000 7.500000
0 -632.0000 -480.0000 512.0000 1.0000 -0.0000 0.0000 -7.500000 8.000000
wmet4_5
0 -632.0000 -512.0000 512.0000 1.0000 0.0000 0.0000 -8.000000 8.000000
0 -632.0000 -512.0000 480.0000 1.0000 0.0000 0.0000 -8.000000 7.500000
0 -632.0000 -480.0000 480.0000 1.0000 0.0000 0.0000 -7.500000 7.500000
wmet4_5
0 -632.0000 -480.0000 480.0000 0.0000 -1.0000 0.0000 -9.875000 7.500000
0 -616.0000 -480.0000 512.0000 0.0000 -1.0000 0.0000 -9.625000 8.000000
0 -632.0000 -480.0000 512.0000 0.0000 -1.0000 0.0000 -9.875000 8.000000
wmet4_5
0 -632.0000 -480.0000 480.0000 0.0000 -1.0000 0.0000 -9.875000 7.500000
0 -616.0000 -480.0000 480.0000 0.0000 -1.0000 0.0000 -9.625000 7.500000
0 -616.0000 -480.0000 512.0000 0.0000 -1.0000 0.0000 -9.625000 8.000000
z_exit
0 -616.0000 -480.0000 480.0000 -1.0000 0.0000 0.0000 -15.000000 15.000000
0 -616.0000 -512.0000 512.0000 -1.0000 0.0000 0.0000 -16.000000 16.000000
0 -616.0000 -480.0000 512.0000 -1.0000 0.0000 0.0000 -15.000000 16.000000
z_exit
0 -616.0000 -480.0000 480.0000 -1.0000 0.0000 0.0000 -15.000000 15.000000
0 -616.0000 -512.0000 480.0000 -1.0000 0.0000 0.0000 -16.000000 15.000000
0 -616.0000 -512.0000 512.0000 -1.0000 0.0000 0.0000 -16.000000 16.000000
wmet4_5
0 -616.0000 -512.0000 512.0000 0.0000 1.0000 0.0000 -9.625000 8.000000
0 -632.0000 -512.0000 480.0000 0.0000 1.0000 0.0000 -9.875000 7.500000
0 -632.0000 -512.0000 512.0000 0.0000 1.0000 0.0000 -9.875000 8.000000
wmet4_5
0 -616.0000 -512.0000 512.0000 0.0000 1.0000 0.0000 -9.625000 8.000000
0 -616.0000 -512.0000 480.0000 0.0000 1.0000 0.0000 -9.625000 7.500000
0 -632.0000 -512.0000 480.0000 0.0000 1.0000 0.0000 -9.875000 7.500000
wmet4_5
0 -616.0000 -480.0000 512.0000 -0.0000 0.0000 -1.0000 -9.625000 -7.500000
0 -632.0000 -512.0000 512.0000 -0.0000 0.0000 -1.0000 -9.875000 -8.000000
0 -632.0000 -480.0000 512.0000 -0.0000 0.0000 -1.0000 -9.875000 -7.500000
wmet4_5
0 -616.0000 -480.0000 512.0000 0.0000 -0.0000 -1.0000 -9.625000 -7.500000
0 -616.0000 -512.0000 512.0000 0.0000 -0.0000 -1.0000 -9.625000 -8.000000
0 -632.0000 -512.0000 512.0000 0.0000 -0.0000 -1.0000 -9.875000 -8.000000
wmet4_5
0 -632.0000 -512.0000 480.0000 0.0000 0.0000 1.0000 -9.875000 -8.000000
0 -616.0000 -480.0000 480.0000 0.0000 0.0000 1.0000 -9.625000 -7.500000
0 -632.0000 -480.0000 480.0000 0.0000 0.0000 1.0000 -9.875000 -7.500000
wmet4_5
0 -632.0000 -512.0000 480.0000 0.0000 0.0000 1.0000 -9.875000 -8.000000
0 -616.0000 -512.0000 480.0000 0.0000 0.0000 1.0000 -9.625000 -8.000000
0 -616.0000 -480.0000 480.0000 0.0000 0.0000 1.0000 -9.625000 -7.500000
wmet4_5
0 -632.0000 -592.0000 456.0000 1.0000 0.0000 0.0000 -9.250000 7.125000
0 -632.0000 -400.0000 480.0000 1.0000 0.0000 0.0000 -6.250000 7.500000
0 -632.0000 -592.0000 480.0000 1.0000 0.0000 0.0000 -9.250000 7.500000
wmet4_5
0 -632.0000 -592.0000 456.0000 1.0000 0.0000 0.0000 -9.250000 7.125000
0 -632.0000 -400.0000 456.0000 1.0000 0.0000 0.0000 -6.250000 7.125000
0 -632.0000 -400.0000 480.0000 1.0000 0.0000 0.0000 -6.250000 7.500000
wmet4_5
0 -632.0000 -400.0000 456.0000 0.0000 -1.0000 0.0000 -9.875000 7.125000
0 -616.0000 -400.0000 480.0000 0.0000 -1.0000 0.0000 -9.625000 7.500000
0 -632.0000 -400.0000 480.0000 0.0000 -1.0000 0.0000 -9.875000 7.500000
wmet4_5
0 -632.0000 -400.0000 456.0000 0.0000 -1.0000 0.0000 -9.875000 7.125000
0 -616.0000 -400.0000 456.0000 0.0000 -1.0000 0.0000 -9.625000 7.125000
0 -616.0000 -400.0000 480.0000 0.0000 -1.0000 0.0000 -9.625000 7.500000
wmet4_5
0 -616.0000 -400.0000 456.0000 -1.0000 0.0000 0.0000 -6.250000 7.125000
0 -616.0000 -592.0000 480.0000 -1.0000 0.0000 0.0000 -9.250000 7.500000
0 -616.0000 -400.0000 480.0000 -1.0000 0.0000 0.0000 -6.250000 7.500000
wmet4_5
0 -616.0000 -400.0000 456.0000 -1.0000 0.0000 0.0000 -6.250000 7.125000
0 -616.0000 -592.0000 456.0000 -1.0000 0.0000 0.0000 -9.250000 7.125000
0 -616.0000 -592.0000 480.0000 -1.0000 0.0000 0.0000 -9.250000 7.500000
wmet4_5
0 -616.0000 -592.0000 480.0000 0.0000 1.0000 0.0000 -9.625000 7.500000
0 -632.0000 -592.0000 456.0000 0.0000 1.0000 0.0000 -9.875000 7.125000
0 -632.0000 -592.0000 480.0000 0.0000 1.0000 0.0000 -9.875000 7.500000
wmet4_5
0 -616.0000 -592.0000 480.0000 0.0000 1.0000 0.0000 -9.625000 7.500000
0 -616.0000 -592.0000 456.0000 0.0000 1.0000 0.0000 -9.625000 7.125000
0 -632.0000 -592.0000 456.0000 0.0000 1.0000 0.0000 -9.875000 7.125000
wmet4_5
0 -616.0000 -400.0000 480.0000 -0.0000 0.0000 -1.0000 -9.625000 -6.250000
0 -632.0000 -592.0000 480.0000 -0.0000 0.0000 -1.0000 -9.875000 -9.250000
0 -632.0000 -400.0000 480.0000 -0.0000 0.0000 -1.0000 -9.875000 -6.250000
wmet4_5
0 -616.0000 -400.0000 480.0000 0.0000 -0.0000 -1.0000 -9.625000 -6.250000
0 -616.0000 -592.0000 480.0000 0.0000 -0.0000 -1.0000 -9.625000 -9.250000
0 -632.0000 -592.0000 480.0000 0.0000 -0.0000 -1.0000 -9.875000 -9.250000
wmet4_5
0 -616.0000 -592.0000 456.0000 0.0000 0.0000 1.0000 -9.625000 -9.250000
0 -632.0000 -400.0000 456.0000 0.0000 0.0000 1.0000 -9.875000 -6.250000
0 -632.0000 -592.0000 456.0000 0.0000 0.0000 1.0000 -9.875000 -9.250000
wmet4_5
0 -616.0000 -592.0000 456.0000 0.0000 -0.0000 1.0000 -9.625000 -9.250000
0 -616.0000 -400.0000 456.0000 0.0000 -0.0000 1.0000 -9.625000 -6.250000
0 -632.0000 -400.0000 456.0000 0.0000 -0.0000 1.0000 -9.875000 -6.250000
end
