version 1
nodes
0 "root" -1
end
skeleton
time 0
0 0 0 0 0 0 0
end
triangles
wmet4_5
0 -196.0000 176.0000 480.0000 1.0000 -0.0000 0.0000 2.750000 7.500000
0 -196.0000 212.0000 436.0000 1.0000 -0.0000 0.0000 3.312500 6.812500
0 -196.0000 212.0000 480.0000 1.0000 -0.0000 0.0000 3.312500 7.500000
wmet4_5
0 -196.0000 176.0000 480.0000 1.0000 0.0000 0.0000 2.750000 7.500000
0 -196.0000 176.0000 436.0000 1.0000 0.0000 0.0000 2.750000 6.812500
0 -196.0000 212.0000 436.0000 1.0000 0.0000 0.0000 3.312500 6.812500
wmet4_5
0 -196.0000 212.0000 436.0000 0.0000 -1.0000 0.0000 -3.062500 6.812500
0 -156.0000 212.0000 480.0000 0.0000 -1.0000 0.0000 -2.437500 7.500000
0 -196.0000 212.0000 480.0000 0.0000 -1.0000 0.0000 -3.062500 7.500000
wmet4_5
0 -196.0000 212.0000 436.0000 0.0000 -1.0000 0.0000 -3.062500 6.812500
0 -156.0000 212.0000 436.0000 0.0000 -1.0000 0.0000 -2.437500 6.812500
0 -156.0000 212.0000 480.0000 0.0000 -1.0000 0.0000 -2.437500 7.500000
wmet4_5
0 -156.0000 176.0000 436.0000 -1.0000 0.0000 0.0000 2.750000 6.812500
0 -156.0000 212.0000 480.0000 -1.0000 0.0000 0.0000 3.312500 7.500000
0 -156.0000 212.0000 436.0000 -1.0000 0.0000 0.0000 3.312500 6.812500
wmet4_5
0 -156.0000 176.0000 436.0000 -1.0000 0.0000 0.0000 2.750000 6.812500
0 -156.0000 176.0000 480.0000 -1.0000 0.0000 0.0000 2.750000 7.500000
0 -156.0000 212.0000 480.0000 -1.0000 0.0000 0.0000 3.312500 7.500000
wmet4_5
0 -156.0000 176.0000 436.0000 0.0000 1.0000 -0.0000 -2.437500 6.812500
0 -196.0000 176.0000 480.0000 0.0000 1.0000 -0.0000 -3.062500 7.500000
0 -156.0000 176.0000 480.0000 0.0000 1.0000 -0.0000 -2.437500 7.500000
wmet4_5
0 -156.0000 176.0000 436.0000 0.0000 1.0000 0.0000 -2.437500 6.812500
0 -196.0000 176.0000 436.0000 0.0000 1.0000 0.0000 -3.062500 6.812500
0 -196.0000 176.0000 480.0000 0.0000 1.0000 0.0000 -3.062500 7.500000
wmet4_5
0 -156.0000 212.0000 480.0000 -0.0000 0.0000 -1.0000 -2.437500 3.312500
0 -196.0000 176.0000 480.0000 -0.0000 0.0000 -1.0000 -3.062500 2.750000
0 -196.0000 212.0000 480.0000 -0.0000 0.0000 -1.0000 -3.062500 3.312500
wmet4_5
0 -156.0000 212.0000 480.0000 0.0000 -0.0000 -1.0000 -2.437500 3.312500
0 -156.0000 176.0000 480.0000 0.0000 -0.0000 -1.0000 -2.437500 2.750000
0 -196.0000 176.0000 480.0000 0.0000 -0.0000 -1.0000 -3.062500 2.750000
wmet4_5
0 -156.0000 176.0000 436.0000 0.0000 0.0000 1.0000 -2.437500 2.750000
0 -196.0000 212.0000 436.0000 0.0000 0.0000 1.0000 -3.062500 3.312500
0 -196.0000 176.0000 436.0000 0.0000 0.0000 1.0000 -3.062500 2.750000
wmet4_5
0 -156.0000 176.0000 436.0000 0.0000 -0.0000 1.0000 -2.437500 2.750000
0 -156.0000 212.0000 436.0000 0.0000 -0.0000 1.0000 -2.437500 3.312500
0 -196.0000 212.0000 436.0000 0.0000 -0.0000 1.0000 -3.062500 3.312500
end
