version 1
nodes
0 "Root" -1
1 "InnerBack.L" 0
2 "UpperBack.L" 1
3 "LowerBack.L" 2
4 "LowerBack.L.001" 3
5 "InnerBack.R" 0
6 "UpperBack.R" 5
7 "LowerBack.R" 6
8 "LowerBack.R.001" 7
9 "InnerFront.L" 0
10 "UpperFront.L" 9
11 "LowerFront.L" 10
12 "LowerFront.L.001" 11
13 "InnerFront.R" 0
14 "UpperFront.R" 13
15 "LowerFront.R" 14
16 "LowerFront.R.001" 15
17 "Root.001" 0
18 "Root.002" 17
19 "Root.003" 18
20 "Flap.L" 0
21 "Flap.R" 0
22 "TargetFront.L" -1
23 "HandFront.L" 22
24 "TargetBack.L" -1
25 "HandBack.L" 24
26 "TargetBack.R" -1
27 "HandBack.R" 26
28 "TargetFront.R" -1
29 "HandFront.R" 28
end
skeleton
  time 0
  0 -0.232995 0.023977 -0.038634 1.570796 0.090026 1.570796
  1 0.000000 0.321328 -0.000000 -1.253787 -0.891792 -0.261188
  2 -0.000000 0.374527 0.000000 -0.213504 -0.242349 -0.148202
  3 -0.000000 0.120617 -0.000000 -0.992721 -0.274482 -0.457517
  4 -0.000000 0.150692 0.000000 -0.161613 -0.022044 -0.207004
  5 0.000000 0.321328 -0.000000 -1.238737 0.881709 0.286536
  6 0.000000 0.369236 -0.000000 -1.009229 -0.000253 -0.061092
  7 -0.000000 0.116096 0.000000 -0.016910 -0.149945 0.007624
  8 -0.000000 0.156429 -0.000000 0.008856 -0.006663 -0.004477
  9 0.000000 0.321328 -0.000000 -1.307232 -2.226397 -0.175260
  10 -0.000000 0.402466 -0.000000 -0.013318 0.756951 0.504333
  11 0.000000 0.184148 0.000000 -0.276403 -0.287954 -0.509716
  12 0.000000 0.111309 -0.000000 -1.184081 -0.257886 -0.414779
  13 0.000000 0.321328 -0.000000 -1.309298 2.233955 0.156545
  14 0.000000 0.402466 0.000000 -0.773088 -0.295853 0.348715
  15 -0.000000 0.186935 -0.000000 -0.235306 0.295121 0.478615
  16 0.000000 0.116940 0.000000 -0.187404 -0.002179 0.052242
  17 0.000000 0.321328 -0.000000 0.000000 0.000000 0.000000
  18 0.000000 0.219037 -0.000000 -0.102240 -0.001576 -0.017110
  19 0.000000 0.258105 -0.000000 -0.338801 -0.010233 -0.024174
  20 0.000000 0.321328 -0.000000 -1.427928 -2.844062 -0.050159
  21 0.000000 0.321328 -0.000000 -1.427619 2.837134 0.035176
  22 0.063015 0.569428 0.034633 0.169557 0.024289 -1.572325
  23 -0.002728 0.000960 -0.000286 -0.303440 -0.000000 0.931209
  24 -0.387402 0.559295 0.019362 0.047658 -0.194342 1.624986
  25 0.000000 0.000000 0.000000 -0.260036 -0.014702 -0.926977
  26 -0.679620 -0.428331 0.026113 0.165051 0.095615 1.602903
  27 0.000000 0.000000 0.000000 -0.260036 0.014702 0.926977
  28 0.297626 -0.391961 0.014977 0.659723 -0.248792 -1.588530
  29 -0.000047 -0.000194 -0.000158 -0.303440 -0.000000 -0.931209
  time 1
  0 -0.232460 0.022647 -0.032613 1.570796 0.077276 1.570796
  1 -0.000000 0.321328 -0.000000 -1.253788 -0.891792 -0.261188
  2 0.000000 0.374527 -0.000000 -0.246549 -0.220097 -0.130125
  3 0.000000 0.120617 0.000000 -0.990165 -0.245121 -0.438204
  4 -0.000000 0.150692 0.000000 -0.155862 -0.018992 -0.186971
  5 -0.000000 0.321328 -0.000000 -1.238737 0.881709 0.286536
  6 -0.000000 0.369236 0.000000 -0.840456 0.009034 -0.049280
  7 -0.000000 0.116096 -0.000000 -0.177878 -0.133452 0.084306
  8 -0.000000 0.156429 0.000000 -0.009774 -0.004777 -0.017302
  9 -0.000000 0.321328 -0.000000 -1.307232 -2.226397 -0.175260
  10 -0.000000 0.402466 0.000000 0.032738 0.727929 0.519619
  11 0.000000 0.184148 0.000000 -0.264221 -0.311434 -0.537329
  12 0.000000 0.111309 -0.000000 -1.195658 -0.289671 -0.435570
  13 -0.000000 0.321328 -0.000000 -1.309298 2.233955 0.156545
  14 0.000000 0.402466 -0.000000 -0.756266 -0.329014 0.316517
  15 0.000000 0.186935 0.000000 -0.253167 0.296481 0.489130
  16 0.000000 0.116940 -0.000000 -0.209394 -0.000743 0.062389
  17 -0.000000 0.321328 -0.000000 -0.000000 0.000000 0.000000
  18 -0.000000 0.219037 -0.000000 -0.096344 -0.004839 -0.054789
  19 0.000000 0.258105 0.000000 -0.345123 -0.033632 -0.078958
  20 -0.000000 0.321328 -0.000000 -1.427928 -2.844062 -0.050159
  21 -0.000000 0.321328 -0.000000 -1.427619 2.837134 0.035176
  22 0.082702 0.561567 0.059833 0.191197 0.035511 -1.580560
  23 -0.002728 0.000960 -0.000286 -0.303440 -0.000000 0.931209
  24 -0.404460 0.550269 0.019120 0.049503 -0.194297 1.620435
  25 0.000000 0.000000 0.000000 -0.260036 -0.014702 -0.926977
  26 -0.665905 -0.450340 0.046565 0.153008 0.116040 1.603748
  27 0.000000 0.000000 0.000000 -0.260036 0.014702 0.926977
  28 0.287075 -0.405129 0.015279 0.489896 -0.212361 -1.576384
  29 -0.000047 -0.000194 -0.000158 -0.303440 0.000000 -0.931209
  time 2
  0 -0.231668 0.020637 -0.024786 1.570796 0.057993 1.570796
  1 0.000000 0.321328 -0.000000 -1.253788 -0.891792 -0.261188
  2 0.000000 0.374527 0.000000 -0.301939 -0.188408 -0.107182
  3 0.000000 0.120617 0.000000 -0.974919 -0.198907 -0.408072
  4 0.000000 0.150692 0.000000 -0.140820 -0.014176 -0.154878
  5 0.000000 0.321328 -0.000000 -1.238737 0.881709 0.286536
  6 -0.000000 0.369236 0.000000 -0.498779 0.002955 -0.076169
  7 0.000000 0.116096 0.000000 -0.416485 -0.078256 0.212604
  8 0.000000 0.156429 0.000000 -0.278991 0.009481 0.059803
  9 0.000000 0.321328 -0.000000 -1.307232 -2.226397 -0.175260
  10 -0.000000 0.402466 -0.000000 0.058032 0.687569 0.515691
  11 -0.000000 0.184148 -0.000000 -0.236507 -0.338483 -0.571984
  12 0.000000 0.111309 0.000000 -1.186694 -0.320958 -0.460656
  13 0.000000 0.321328 -0.000000 -1.309298 2.233955 0.156545
  14 -0.000000 0.402466 -0.000000 -0.719108 -0.384413 0.259520
  15 0.000000 0.186935 0.000000 -0.287241 0.301848 0.511881
  16 -0.000000 0.116940 -0.000000 -0.252955 0.003436 0.083277
  17 0.000000 0.321328 -0.000000 -0.000000 0.000000 -0.000000
  18 0.000000 0.219037 -0.000000 -0.090335 -0.007763 -0.092499
  19 0.000000 0.258105 -0.000000 -0.350733 -0.058913 -0.137766
  20 0.000000 0.321328 -0.000000 -1.427928 -2.844062 -0.050159
  21 0.000000 0.321328 -0.000000 -1.427619 2.837134 0.035176
  22 0.110938 0.549843 0.089911 0.224763 0.052380 -1.591832
  23 -0.002728 0.000960 -0.000286 -0.303440 -0.000000 0.931209
  24 -0.430227 0.536635 0.018756 0.052290 -0.194233 1.613559
  25 0.000000 0.000000 0.000000 -0.260036 -0.014702 -0.926977
  26 -0.645662 -0.478952 0.073152 0.135382 0.142662 1.604133
  27 0.000000 0.000000 0.000000 -0.260036 0.014702 0.926977
  28 0.268629 -0.423316 0.015653 0.318215 -0.166855 -1.572080
  29 -0.000047 -0.000194 -0.000158 -0.303440 0.000000 -0.931209
  time 3
  0 -0.230701 0.018118 -0.016959 1.570796 0.033790 1.570796
  1 0.000000 0.321328 0.000000 -1.253787 -0.891792 -0.261188
  2 -0.000000 0.374527 -0.000000 -0.382155 -0.152237 -0.084656
  3 -0.000000 0.120617 0.000000 -0.936983 -0.140029 -0.366173
  4 -0.000000 0.150692 0.000000 -0.109201 -0.008621 -0.111120
  5 0.000000 0.321328 0.000000 -1.238737 0.881709 0.286536
  6 0.000000 0.369236 -0.000000 -0.292100 0.021848 -0.091850
  7 0.000000 0.116096 0.000000 -0.506064 -0.027024 0.291030
  8 0.000000 0.156429 -0.000000 -0.452764 0.038027 0.133182
  9 0.000000 0.321328 0.000000 -1.307232 -2.226397 -0.175259
  10 0.000000 0.402466 -0.000000 0.030754 0.647847 0.471047
  11 -0.000000 0.184148 0.000000 -0.195599 -0.358292 -0.600919
  12 0.000000 0.111309 -0.000000 -1.143759 -0.333016 -0.479878
  13 0.000000 0.321328 0.000000 -1.309298 2.233955 0.156545
  14 0.000000 0.402466 -0.000000 -0.656739 -0.457380 0.176606
  15 -0.000000 0.186935 -0.000000 -0.338161 0.312019 0.545493
  16 -0.000000 0.116940 -0.000000 -0.319321 0.011718 0.114182
  17 0.000000 0.321328 0.000000 0.000000 0.000000 -0.000000
  18 0.000000 0.219037 0.000000 -0.087584 -0.008746 -0.109664
  19 0.000000 0.258105 -0.000000 -0.354012 -0.074248 -0.174192
  20 0.000000 0.321328 0.000000 -1.427929 -2.844062 -0.050159
  21 0.000000 0.321328 0.000000 -1.427619 2.837134 0.035176
  22 0.143978 0.535381 0.115111 0.274394 0.073476 -1.603830
  23 -0.002728 0.000960 -0.000286 -0.303440 -0.000000 0.931209
  24 -0.462528 0.519543 0.018299 0.055782 -0.194158 1.604939
  25 0.000000 0.000000 0.000000 -0.260036 -0.014702 -0.926977
  26 -0.621035 -0.507564 0.099738 0.114138 0.169378 1.603362
  27 0.000000 0.000000 0.000000 -0.260036 0.014702 0.926977
  28 0.241583 -0.443442 0.015991 0.238032 -0.129640 -1.576652
  29 -0.000047 -0.000194 -0.000158 -0.303440 0.000000 -0.931209
  time 4
  0 -0.229642 0.015258 -0.010938 1.570796 0.006295 1.570796
  1 -0.000000 0.321328 0.000000 -1.253787 -0.891792 -0.261188
  2 0.000000 0.374527 -0.000000 -0.490997 -0.115733 -0.062095
  3 0.000000 0.120617 -0.000000 -0.862878 -0.071149 -0.315252
  4 -0.000000 0.150692 -0.000000 -0.060151 -0.003651 -0.062319
  5 -0.000000 0.321328 0.000000 -1.238737 0.881709 0.286536
  6 -0.000000 0.369236 0.000000 -0.135168 0.047797 -0.115965
  7 -0.000000 0.116096 -0.000000 -0.560661 0.024469 0.362518
  8 0.000000 0.156429 0.000000 -0.589285 0.077485 0.208122
  9 -0.000000 0.321328 0.000000 -1.307232 -2.226397 -0.175259
  10 -0.000000 0.402466 0.000000 -0.067366 0.617682 0.369446
  11 0.000000 0.184148 0.000000 -0.152044 -0.362060 -0.607429
  12 0.000000 0.111309 -0.000000 -1.065681 -0.311124 -0.479332
  13 -0.000000 0.321328 0.000000 -1.309298 2.233955 0.156545
  14 0.000000 0.402466 -0.000000 -0.567738 -0.540106 0.067720
  15 0.000000 0.186936 0.000000 -0.403305 0.325718 0.585148
  16 -0.000000 0.116940 0.000000 -0.404761 0.024767 0.151453
  17 -0.000000 0.321328 0.000000 0.000000 -0.000000 -0.000000
  18 -0.000000 0.219037 0.000000 -0.088124 -0.008004 -0.105746
  19 0.000000 0.258105 -0.000000 -0.355422 -0.078741 -0.185800
  20 -0.000000 0.321328 0.000000 -1.427929 -2.844061 -0.050159
  21 -0.000000 0.321328 0.000000 -1.427619 2.837134 0.035176
  22 0.178078 0.519306 0.125678 0.337777 0.097243 -1.614356
  23 -0.002728 0.000960 -0.000286 -0.303440 -0.000000 0.931209
  24 -0.499183 0.500147 0.017780 0.059744 -0.194081 1.595155
  25 0.000000 0.000000 0.000000 -0.260036 -0.014702 -0.926977
  26 -0.594164 -0.529574 0.120190 0.091259 0.190063 1.601071
  27 0.000000 0.000000 0.000000 -0.260036 0.014702 0.926977
  28 0.205904 -0.462886 0.016224 0.234405 -0.108143 -1.582846
  29 -0.000047 -0.000194 -0.000158 -0.303440 0.000000 -0.931209
  time 5
  0 -0.228574 0.012229 -0.008530 1.570796 -0.022846 1.570796
  1 -0.000000 0.321328 -0.000000 -1.253788 -0.891792 -0.261188
  2 -0.000000 0.374527 0.000000 -0.627145 -0.081385 -0.039369
  3 -0.000000 0.120617 -0.000000 -0.744460 0.000813 -0.253538
  4 0.000000 0.150692 0.000000 0.004120 -0.001037 -0.014056
  5 -0.000000 0.321328 -0.000000 -1.238737 0.881709 0.286536
  6 -0.000000 0.369236 -0.000000 -0.018648 0.074443 -0.146935
  7 -0.000000 0.116096 -0.000000 -0.610612 0.075288 0.424589
  8 0.000000 0.156429 -0.000000 -0.714709 0.125888 0.278862
  9 -0.000000 0.321328 -0.000000 -1.307232 -2.226397 -0.175260
  10 0.000000 0.402466 0.000000 -0.217352 0.587935 0.225344
  11 0.000000 0.184148 0.000000 -0.112480 -0.350419 -0.587352
  12 0.000000 0.111309 -0.000000 -0.964896 -0.260075 -0.453234
  13 -0.000000 0.321328 -0.000000 -1.309298 2.233955 0.156546
  14 0.000000 0.402466 -0.000000 -0.452403 -0.622220 -0.061158
  15 0.000000 0.186935 -0.000000 -0.477900 0.341051 0.618937
  16 -0.000000 0.116940 -0.000000 -0.501861 0.042011 0.187715
  17 -0.000000 0.321328 -0.000000 0.000000 0.000000 0.000000
  18 -0.000000 0.219037 -0.000000 -0.089510 -0.006565 -0.094592
  19 -0.000000 0.258105 0.000000 -0.355929 -0.080405 -0.190086
  20 -0.000000 0.321328 -0.000000 -1.427928 -2.844062 -0.050159
  21 -0.000000 0.321328 -0.000000 -1.427619 2.837134 0.035176
  22 0.210019 0.502693 0.119945 0.408781 0.121979 -1.621902
  23 -0.002728 0.000960 -0.000286 -0.303440 -0.000000 0.931209
  24 -0.538016 0.479599 0.017230 0.063941 -0.194020 1.584787
  25 0.000000 0.000000 0.000000 -0.260036 -0.014702 -0.926977
  26 -0.567190 -0.538378 0.128370 0.068818 0.198601 1.597288
  27 0.000000 0.000000 0.000000 -0.260036 0.014702 0.926977
  28 0.164233 -0.480851 0.016434 0.232340 -0.096828 -1.588095
  29 -0.000047 -0.000194 -0.000158 -0.303440 0.000000 -0.931209
  time 6
  0 -0.227565 0.009200 -0.011367 1.570796 -0.051982 1.570796
  1 0.000000 0.321328 -0.000000 -1.253788 -0.891792 -0.261188
  2 0.000000 0.374527 -0.000000 -0.789452 -0.048838 -0.013529
  3 -0.000000 0.120617 0.000000 -0.570323 0.068805 -0.180277
  4 0.000000 0.150692 0.000000 0.072615 -0.000980 0.024104
  5 0.000000 0.321328 -0.000000 -1.238737 0.881709 0.286536
  6 0.000000 0.369236 0.000000 0.051937 0.098809 -0.169776
  7 -0.000000 0.116096 0.000000 -0.656094 0.120672 0.470200
  8 0.000000 0.156428 -0.000000 -0.815923 0.172332 0.331943
  9 0.000000 0.321328 -0.000000 -1.307232 -2.226397 -0.175260
  10 -0.000000 0.402466 -0.000000 -0.372840 0.545378 0.075983
  11 0.000000 0.184148 0.000000 -0.076751 -0.333070 -0.549347
  12 0.000000 0.111309 -0.000000 -0.858231 -0.200950 -0.410105
  13 0.000000 0.321328 -0.000000 -1.309298 2.233955 0.156545
  14 -0.000000 0.402465 -0.000000 -0.310029 -0.696386 -0.205719
  15 -0.000000 0.186936 0.000000 -0.556774 0.353716 0.644325
  16 -0.000000 0.116940 -0.000000 -0.604888 0.061155 0.218248
  17 0.000000 0.321328 -0.000000 0.000000 -0.000000 0.000000
  18 0.000000 0.219037 -0.000000 -0.091458 -0.004227 -0.077238
  19 0.000000 0.258105 -0.000000 -0.356001 -0.080645 -0.190703
  20 0.000000 0.321328 -0.000000 -1.427928 -2.844062 -0.050159
  21 0.000000 0.321328 -0.000000 -1.427619 2.837134 0.035176
  22 0.238681 0.486405 0.105159 0.482525 0.146319 -1.626197
  23 -0.002728 0.000960 -0.000286 -0.303440 -0.000000 0.931209
  24 -0.576849 0.459050 0.016681 0.068137 -0.194001 1.574418
  25 0.000000 0.000000 0.000000 -0.260036 -0.014702 -0.926977
  26 -0.542028 -0.538334 0.122343 0.048574 0.184226 1.591857
  27 0.000000 0.000000 0.000000 -0.260036 0.014702 0.926977
  28 0.119884 -0.496992 0.016742 0.231381 -0.092302 -1.592282
  29 -0.000047 -0.000194 -0.000158 -0.303440 0.000000 -0.931209
  time 7
  0 -0.226638 0.006341 -0.018460 1.570796 -0.079465 1.570796
  1 -0.000000 0.321328 -0.000000 -1.253788 -0.891792 -0.261188
  2 0.000000 0.374527 -0.000000 -1.051315 -0.024499 0.012946
  3 0.000000 0.120617 0.000000 -0.207518 0.132971 -0.061568
  4 0.000000 0.150692 0.000000 0.091673 -0.000086 0.029657
  5 -0.000000 0.321328 -0.000000 -1.238737 0.881709 0.286536
  6 -0.000000 0.369236 0.000000 0.081959 0.120312 -0.176725
  7 0.000000 0.116096 -0.000000 -0.686075 0.156612 0.501171
  8 0.000000 0.156429 -0.000000 -0.877391 0.206655 0.366012
  9 -0.000000 0.321328 -0.000000 -1.307232 -2.226397 -0.175260
  10 -0.000000 0.402466 0.000000 -0.518566 0.487940 -0.064385
  11 0.000000 0.184148 0.000000 -0.043893 -0.314219 -0.498469
  12 -0.000000 0.111309 -0.000000 -0.748031 -0.141595 -0.353834
  13 -0.000000 0.321328 -0.000000 -1.309298 2.233955 0.156546
  14 -0.000000 0.402466 -0.000000 -0.152842 -0.755620 -0.359121
  15 -0.000000 0.186935 0.000000 -0.631671 0.359024 0.662416
  16 -0.000000 0.116940 -0.000000 -0.703331 0.077926 0.240079
  17 -0.000000 0.321328 -0.000000 -0.000000 0.000000 0.000000
  18 -0.000000 0.219037 -0.000000 -0.093662 -0.000791 -0.054719
  19 0.000000 0.258105 -0.000000 -0.354140 -0.074794 -0.177153
  20 -0.000000 0.321328 -0.000000 -1.427928 -2.844062 -0.050159
  21 -0.000000 0.321328 -0.000000 -1.427619 2.837134 0.035176
  22 0.263467 0.471257 0.084941 0.554258 0.168915 -1.627560
  23 -0.002728 0.000960 -0.000286 -0.303440 -0.000000 0.931209
  24 -0.613505 0.439654 0.016162 0.072098 -0.194060 1.564626
  25 0.000000 0.000000 0.000000 -0.260036 -0.014702 -0.926977
  26 -0.519687 -0.538027 0.107063 0.031343 0.147553 1.585592
  27 0.000000 0.000000 0.000000 -0.260036 0.014702 0.926977
  28 0.076170 -0.510966 0.017265 0.231039 -0.091250 -1.595322
  29 -0.000047 -0.000194 -0.000158 -0.303440 0.000000 -0.931209
  time 8
  0 -0.225804 0.003822 -0.027680 1.570796 -0.103657 1.570796
  1 -0.000000 0.321328 0.000000 -1.253787 -0.891792 -0.261188
  2 0.000000 0.374527 0.000000 -1.142497 0.024242 0.057603
  3 0.000000 0.120617 -0.000000 -0.014692 0.152239 -0.003973
  4 -0.000000 0.150692 0.000000 0.009204 0.002215 0.002595
  5 -0.000000 0.321328 0.000000 -1.238737 0.881709 0.286536
  6 -0.000000 0.369236 0.000000 0.085099 0.136070 -0.173075
  7 -0.000000 0.116096 -0.000000 -0.707102 0.183120 0.520903
  8 -0.000000 0.156429 -0.000000 -0.910033 0.228086 0.385496
  9 -0.000000 0.321328 0.000000 -1.307232 -2.226397 -0.175259
  10 -0.000000 0.402466 -0.000000 -0.647492 0.418773 -0.187330
  11 -0.000000 0.184148 -0.000000 -0.013437 -0.295980 -0.439466
  12 -0.000000 0.111309 -0.000000 -0.634825 -0.087050 -0.289007
  13 -0.000000 0.321328 0.000000 -1.309298 2.233955 0.156545
  14 -0.000000 0.402466 0.000000 -0.000206 -0.797752 -0.504925
  15 0.000000 0.186935 -0.000000 -0.696161 0.355366 0.672669
  16 0.000000 0.116940 -0.000000 -0.789266 0.089591 0.252875
  17 -0.000000 0.321328 0.000000 0.000000 -0.000000 -0.000000
  18 -0.000000 0.219037 0.000000 -0.095801 0.003933 -0.028075
  19 -0.000000 0.258105 0.000000 -0.349529 -0.059911 -0.142407
  20 -0.000000 0.321328 0.000000 -1.427929 -2.844061 -0.050159
  21 -0.000000 0.321328 0.000000 -1.427619 2.837134 0.035176
  22 0.283783 0.458061 0.062913 0.619015 0.188432 -1.626705
  23 -0.002728 0.000960 -0.000286 -0.303440 -0.000000 0.931209
  24 -0.645805 0.422563 0.015705 0.075591 -0.194240 1.555992
  25 0.000000 0.000000 0.000000 -0.260036 -0.014702 -0.926977
  26 -0.500950 -0.537195 0.086732 0.017684 0.099640 1.579746
  27 0.000000 0.000000 0.000000 -0.260036 0.014702 0.926977
  28 0.036403 -0.522433 0.018125 0.230798 -0.090404 -1.597134
  29 -0.000047 -0.000194 -0.000158 -0.303440 0.000000 -0.931209
  time 9
  0 -0.225072 0.001812 -0.036901 1.570796 -0.122935 1.570796
  1 -0.000000 0.321328 -0.000000 -1.253788 -0.891792 -0.261188
  2 0.000000 0.374527 0.000000 -1.124622 0.072574 0.097873
  3 0.000000 0.120617 0.000000 -0.014360 0.161243 -0.003524
  4 -0.000000 0.150692 -0.000000 0.009007 0.002807 0.002309
  5 -0.000000 0.321328 -0.000000 -1.238737 0.881709 0.286536
  6 -0.000000 0.369236 0.000000 0.071884 0.145298 -0.163707
  7 0.000000 0.116096 0.000000 -0.721974 0.199957 0.531258
  8 -0.000000 0.156428 -0.000000 -0.922826 0.238174 0.393972
  9 -0.000000 0.321328 -0.000000 -1.307232 -2.226397 -0.175260
  10 -0.000000 0.402466 -0.000000 -0.753960 0.345405 -0.287337
  11 0.000000 0.184148 -0.000000 0.014250 -0.279965 -0.378010
  12 0.000000 0.111309 -0.000000 -0.525018 -0.042068 -0.221726
  13 -0.000000 0.321328 -0.000000 -1.309298 2.233955 0.156546
  14 -0.000000 0.402466 0.000000 0.129289 -0.824348 -0.626180
  15 -0.000000 0.186936 0.000000 -0.745044 0.344415 0.680328
  16 -0.000000 0.116940 -0.000000 -0.856943 0.094778 0.259031
  17 -0.000000 0.321328 -0.000000 0.000000 -0.000000 0.000000
  18 -0.000000 0.219037 -0.000000 -0.097536 0.010113 0.001651
  19 -0.000000 0.258105 -0.000000 -0.343588 -0.039991 -0.095337
  20 -0.000000 0.321328 -0.000000 -1.427928 -2.844062 -0.050159
  21 -0.000000 0.321328 -0.000000 -1.427619 2.837134 0.035176
  22 0.299031 0.447629 0.042695 0.671685 0.203650 -1.624664
  23 -0.002728 0.000960 -0.000286 -0.303440 -0.000000 0.931209
  24 -0.671573 0.408928 0.015340 0.078383 -0.194593 1.549095
  25 0.000000 0.000000 0.000000 -0.260036 -0.014702 -0.926977
  26 -0.486598 -0.535575 0.065552 0.007870 0.051651 1.575050
  27 0.000000 0.000000 0.000000 -0.260036 0.014702 0.926977
  28 0.003897 -0.531047 0.019439 0.230128 -0.086521 -1.597640
  29 -0.000047 -0.000194 -0.000158 -0.303440 0.000000 -0.931209
  time 10
  0 -0.224452 0.000481 -0.043994 1.570796 -0.135687 1.570796
  1 0.000000 0.321328 -0.000000 -1.253788 -0.891792 -0.261188
  2 -0.000000 0.374527 0.000000 -1.109216 0.103008 0.125184
  3 -0.000000 0.120617 0.000000 -0.014699 0.167435 -0.003384
  4 -0.000000 0.150692 0.000000 0.009221 0.003254 0.002223
  5 0.000000 0.321328 -0.000000 -1.238737 0.881709 0.286536
  6 -0.000000 0.369236 0.000000 0.051584 0.148120 -0.153341
  7 0.000000 0.116096 -0.000000 -0.732726 0.207577 0.533750
  8 -0.000000 0.156429 -0.000000 -0.923850 0.239625 0.394237
  9 0.000000 0.321328 -0.000000 -1.307232 -2.226397 -0.175260
  10 -0.000000 0.402466 -0.000000 -0.829484 0.282326 -0.357781
  11 0.000000 0.184148 -0.000000 0.035996 -0.268411 -0.324476
  12 0.000000 0.111309 -0.000000 -0.435626 -0.011559 -0.163948
  13 0.000000 0.321328 -0.000000 -1.309298 2.233955 0.156545
  14 -0.000000 0.402465 -0.000000 0.223540 -0.836355 -0.716038
  15 -0.000000 0.186935 -0.000000 -0.776156 0.333860 0.687372
  16 -0.000000 0.116940 -0.000000 -0.901964 0.096411 0.262537
  17 0.000000 0.321328 -0.000000 -0.000000 0.000000 0.000000
  18 0.000000 0.219037 -0.000000 -0.098517 0.017889 0.033414
  19 0.000000 0.258105 -0.000000 -0.338134 -0.018857 -0.044875
  20 0.000000 0.321328 -0.000000 -1.427928 -2.844062 -0.050159
  21 0.000000 0.321328 -0.000000 -1.427619 2.837134 0.035176
  22 0.308617 0.440773 0.027909 0.707091 0.213498 -1.622631
  23 -0.002728 0.000960 -0.000286 -0.303440 -0.000000 0.931209
  24 -0.688630 0.399902 0.015099 0.080240 -0.195172 1.544513
  25 0.000000 0.000000 0.000000 -0.260036 -0.014702 -0.926977
  26 -0.477413 -0.532903 0.047723 0.001974 0.014749 1.571940
  27 0.000000 0.000000 0.000000 -0.260036 0.014702 0.926977
  28 -0.018037 -0.536467 0.021329 0.228508 -0.076356 -1.596763
  29 -0.000047 -0.000194 -0.000158 -0.303440 0.000000 -0.931209
  time 11
  0 -0.223955 0.000000 -0.046831 1.570797 -0.140304 1.570796
  1 0.000000 0.321328 -0.000000 -1.253788 -0.891792 -0.261188
  2 -0.000000 0.374527 -0.000000 -1.102732 0.114017 0.135384
  3 0.000000 0.120617 0.000000 -0.014523 0.169657 -0.003262
  4 0.000000 0.150692 0.000000 0.009115 0.003413 0.002145
  5 0.000000 0.321328 -0.000000 -1.238737 0.881709 0.286536
  6 -0.000000 0.369236 -0.000000 0.032097 0.144840 -0.146564
  7 0.000000 0.116096 0.000000 -0.740979 0.206902 0.529916
  8 -0.000000 0.156429 0.000000 -0.920449 0.235594 0.388925
  9 0.000000 0.321328 -0.000000 -1.307232 -2.226397 -0.175260
  10 0.000000 0.402466 0.000000 -0.858332 0.255652 -0.384380
  11 0.000000 0.184148 -0.000000 0.044336 -0.264150 -0.301154
  12 0.000000 0.111309 -0.000000 -0.398666 -0.000703 -0.139672
  13 0.000000 0.321328 -0.000000 -1.309298 2.233955 0.156546
  14 0.000000 0.402466 0.000000 0.269210 -0.838383 -0.755963
  15 -0.000000 0.186935 -0.000000 -0.789098 0.330272 0.692313
  16 0.000000 0.116940 0.000000 -0.923294 0.098110 0.265449
  17 0.000000 0.321328 -0.000000 -0.000000 0.000000 0.000000
  18 0.000000 0.219037 -0.000000 -0.098392 0.027375 0.066177
  19 0.000000 0.258105 -0.000000 -0.335653 0.000001 0.000000
  20 0.000000 0.321328 -0.000000 -1.427928 -2.844062 -0.050159
  21 0.000000 0.321328 -0.000000 -1.427618 2.837134 0.035176
  22 0.311945 0.438308 0.022175 0.720042 0.216999 -1.621744
  23 -0.002728 0.000960 -0.000286 -0.303440 -0.000000 0.931209
  24 -0.694800 0.396638 0.015011 0.080927 -0.196032 1.542826
  25 0.000000 0.000000 0.000000 -0.260036 -0.014702 -0.926977
  26 -0.474177 -0.528918 0.037448 0.000000 -0.000000 1.570796
  27 0.000000 0.000000 0.000000 -0.260036 0.014702 0.926977
  28 -0.026084 -0.538350 0.023913 0.225444 -0.056646 -1.594462
  29 -0.000047 -0.000194 -0.000158 -0.303440 0.000000 -0.931209
  time 12
  0 -0.223586 0.000000 -0.044865 1.573786 -0.138780 1.571439
  1 -0.000000 0.321328 0.000000 -1.253787 -0.891792 -0.261188
  2 -0.000000 0.374527 0.000000 -1.094221 0.095103 0.120111
  3 -0.000000 0.120617 0.000000 -0.014723 0.165655 -0.003454
  4 -0.000000 0.150692 0.000000 0.009234 0.003147 0.002268
  5 -0.000000 0.321328 0.000000 -1.238737 0.881709 0.286536
  6 0.000000 0.369236 -0.000000 0.015339 0.127506 -0.149477
  7 0.000000 0.116096 -0.000000 -0.753452 0.192122 0.512850
  8 0.000000 0.156429 -0.000000 -0.919995 0.224217 0.373170
  9 -0.000000 0.321328 0.000000 -1.307232 -2.226397 -0.175260
  10 -0.000000 0.402466 -0.000000 -0.849366 0.271026 -0.370110
  11 -0.000000 0.184148 -0.000000 0.038410 -0.264861 -0.310540
  12 0.000000 0.111309 -0.000000 -0.417028 -0.004954 -0.150303
  13 -0.000000 0.321328 0.000000 -1.309298 2.233955 0.156546
  14 0.000000 0.402466 -0.000000 0.321309 -0.813643 -0.778971
  15 0.000000 0.186936 -0.000000 -0.790367 0.352841 0.710588
  16 -0.000000 0.116940 0.000000 -0.945323 0.117098 0.285395
  17 -0.000000 0.321328 0.000000 0.000000 -0.000000 -0.000000
  18 -0.000000 0.219037 0.000000 -0.096409 0.038830 0.098397
  19 0.000000 0.258105 -0.000000 -0.335808 0.014712 0.034050
  20 -0.000000 0.321328 0.000000 -1.427928 -2.844062 -0.050159
  21 -0.000000 0.321328 0.000000 -1.427619 2.837134 0.035176
  22 0.307717 0.441165 0.022216 0.669100 0.183428 -1.638731
  23 -0.002728 0.000960 -0.000286 -0.303440 -0.000000 0.931209
  24 -0.688030 0.405449 0.021386 0.074012 -0.205853 1.554011
  25 0.000000 0.000000 0.000000 -0.260036 -0.014702 -0.926977
  26 -0.481275 -0.521102 0.033302 0.010854 0.001459 1.572348
  27 0.000000 0.000000 0.000000 -0.260036 0.014702 0.926977
  28 -0.013441 -0.535172 0.034233 0.216465 -0.023484 -1.563613
  29 -0.000047 -0.000194 -0.000158 -0.303440 0.000000 -0.931209
  time 13
  0 -0.223329 0.000000 -0.039682 1.582114 -0.134506 1.573266
  1 0.000000 0.321328 0.000000 -1.253787 -0.891792 -0.261188
  2 0.000000 0.374527 -0.000000 -1.071859 0.044302 0.077332
  3 -0.000000 0.120617 0.000000 -0.014528 0.154135 -0.003794
  4 -0.000000 0.150692 0.000000 0.009105 0.002327 0.002481
  5 0.000000 0.321328 0.000000 -1.238737 0.881709 0.286536
  6 -0.000000 0.369236 0.000000 -0.010082 0.094287 -0.156496
  7 0.000000 0.116096 -0.000000 -0.768921 0.160347 0.478503
  8 0.000000 0.156429 0.000000 -0.913193 0.200636 0.341636
  9 0.000000 0.321328 0.000000 -1.307232 -2.226397 -0.175260
  10 0.000000 0.402466 -0.000000 -0.826760 0.306994 -0.335939
  11 0.000000 0.184148 -0.000000 0.023502 -0.266767 -0.331434
  12 -0.000000 0.111309 -0.000000 -0.460511 -0.015676 -0.174721
  13 0.000000 0.321328 0.000000 -1.309298 2.233955 0.156545
  14 0.000000 0.402466 -0.000000 0.411377 -0.752490 -0.807782
  15 -0.000000 0.186935 -0.000000 -0.780554 0.405676 0.749878
  16 -0.000000 0.116940 -0.000000 -0.979787 0.161456 0.330011
  17 0.000000 0.321328 0.000000 0.000000 -0.000000 -0.000000
  18 0.000000 0.219037 0.000000 -0.092968 0.050498 0.126539
  19 -0.000000 0.258105 -0.000000 -0.335844 0.028814 0.067067
  20 0.000000 0.321328 0.000000 -1.427929 -2.844062 -0.050159
  21 0.000000 0.321328 0.000000 -1.427619 2.837134 0.035176
  22 0.296436 0.448141 0.022314 0.547831 0.105905 -1.670393
  23 -0.002728 0.000960 -0.000286 -0.303440 -0.000000 0.931209
  24 -0.669762 0.428174 0.037827 0.055564 -0.229224 1.583375
  25 0.000000 0.000000 0.000000 -0.260036 -0.014702 -0.926977
  26 -0.498202 -0.508565 0.030788 0.036754 0.004872 1.576111
  27 0.000000 0.000000 0.000000 -0.260036 0.014702 0.926977
  28 0.019165 -0.526976 0.056068 0.200839 0.021983 -1.488931
  29 -0.000047 -0.000194 -0.000158 -0.303440 0.000000 -0.931209
  time 14
  0 -0.223162 0.000000 -0.032354 1.594820 -0.127967 1.576147
  1 0.000000 0.321328 0.000000 -1.253787 -0.891792 -0.261188
  2 -0.000000 0.374527 0.000000 -1.036438 -0.027532 0.012856
  3 -0.000000 0.120617 -0.000000 -0.014474 0.136726 -0.004341
  4 -0.000000 0.150692 -0.000000 0.009071 0.001033 0.002825
  5 0.000000 0.321328 0.000000 -1.238737 0.881709 0.286536
  6 0.000000 0.369236 0.000000 -0.057953 0.055780 -0.157065
  7 -0.000000 0.116096 -0.000000 -0.776245 0.118207 0.433878
  8 0.000000 0.156429 -0.000000 -0.882785 0.165953 0.297996
  9 0.000000 0.321328 0.000000 -1.307232 -2.226397 -0.175260
  10 0.000000 0.402466 0.000000 -0.794731 0.352742 -0.290579
  11 0.000000 0.184148 -0.000000 0.002296 -0.269652 -0.356932
  12 0.000000 0.111309 -0.000000 -0.517906 -0.031137 -0.205332
  13 0.000000 0.321328 0.000000 -1.309298 2.233955 0.156545
  14 0.000000 0.402466 0.000000 0.495866 -0.662847 -0.829692
  15 0.000000 0.186935 -0.000000 -0.743646 0.469546 0.807347
  16 -0.000000 0.116940 -0.000000 -0.999382 0.217049 0.389941
  17 0.000000 0.321328 0.000000 -0.000000 -0.000000 -0.000000
  18 0.000000 0.219037 0.000000 -0.089641 0.059531 0.146502
  19 -0.000000 0.258105 -0.000000 -0.334559 0.047129 0.112657
  20 0.000000 0.321328 0.000000 -1.427929 -2.844062 -0.050159
  21 0.000000 0.321328 0.000000 -1.427619 2.837134 0.035176
  22 0.280205 0.456842 0.022437 0.400663 0.023174 -1.692557
  23 -0.002728 0.000960 -0.000286 -0.303440 -0.000000 0.931209
  24 -0.643065 0.459247 0.060307 0.028996 -0.259906 1.624592
  25 0.000000 0.000000 0.000000 -0.260036 -0.014702 -0.926978
  26 -0.518405 -0.493482 0.029496 0.067690 0.008816 1.580718
  27 0.000000 0.000000 0.000000 -0.260036 0.014702 0.926977
  28 0.063748 -0.515770 0.084642 0.183231 0.075104 -1.388152
  29 -0.000047 -0.000194 -0.000158 -0.303440 0.000000 -0.931209
  time 15
  0 -0.223064 0.000000 -0.023954 1.610945 -0.119658 1.579962
  1 0.000000 0.321328 0.000000 -1.253788 -0.891792 -0.261188
  2 0.000000 0.374527 -0.000000 -0.970514 -0.104361 -0.063863
  3 -0.000000 0.120617 -0.000000 -0.055534 0.114979 -0.019210
  4 0.000000 0.150692 -0.000000 0.032858 -0.000795 0.011685
  5 0.000000 0.321328 0.000000 -1.238737 0.881709 0.286536
  6 -0.000000 0.369236 0.000000 -0.134823 0.022912 -0.148006
  7 -0.000000 0.116096 -0.000000 -0.768659 0.075198 0.388708
  8 -0.000000 0.156429 -0.000000 -0.823008 0.127605 0.250579
  9 0.000000 0.321328 0.000000 -1.307232 -2.226397 -0.175260
  10 -0.000000 0.402466 -0.000000 -0.756851 0.400357 -0.240200
  11 0.000000 0.184148 -0.000000 -0.022301 -0.273397 -0.383942
  12 -0.000000 0.111309 -0.000000 -0.581606 -0.050215 -0.237651
  13 0.000000 0.321328 0.000000 -1.309298 2.233955 0.156545
  14 -0.000000 0.402466 0.000000 0.543650 -0.563871 -0.836478
  15 -0.000000 0.186935 -0.000000 -0.676324 0.525850 0.873167
  16 -0.000000 0.116940 -0.000000 -0.987190 0.268144 0.454728
  17 0.000000 0.321328 0.000000 -0.000000 -0.000000 0.000000
  18 0.000000 0.219037 0.000000 -0.088152 0.063156 0.154094
  19 0.000000 0.258105 -0.000000 -0.312278 0.068621 0.173924
  20 0.000000 0.321328 0.000000 -1.427928 -2.844062 -0.050159
  21 0.000000 0.321328 0.000000 -1.427619 2.837134 0.035176
  22 0.261128 0.464871 0.022550 0.266528 -0.019697 -1.697402
  23 -0.002728 0.000960 -0.000286 -0.303440 -0.000000 0.931209
  24 -0.611005 0.493103 0.084800 -0.001699 -0.291896 1.670884
  25 0.000000 0.000000 0.000000 -0.260036 -0.014702 -0.926977
  26 -0.535332 -0.478028 0.029021 0.093620 0.012009 1.584670
  27 0.000000 0.000000 0.000000 -0.260036 0.014702 0.926977
  28 0.112323 -0.503560 0.115180 0.166352 0.130062 -1.279327
  29 -0.000047 -0.000194 -0.000158 -0.303440 0.000000 -0.931209
  time 16
  0 -0.223013 0.000000 -0.015554 1.629529 -0.110072 1.584578
  1 0.000000 0.321328 0.000000 -1.253787 -0.891792 -0.261188
  2 0.000000 0.374527 0.000000 -0.807370 -0.151991 -0.122185
  3 0.000000 0.120617 -0.000000 -0.256198 0.081262 -0.101916
  4 -0.000000 0.150692 0.000000 0.099256 -0.003869 0.035286
  5 0.000000 0.321328 0.000000 -1.238737 0.881709 0.286536
  6 -0.000000 0.369236 -0.000000 -0.232892 0.004277 -0.131071
  7 -0.000000 0.116096 -0.000000 -0.749243 0.041958 0.354197
  8 -0.000000 0.156429 -0.000000 -0.745381 0.095650 0.210283
  9 0.000000 0.321328 0.000000 -1.307232 -2.226397 -0.175259
  10 -0.000000 0.402466 0.000000 -0.714931 0.445535 -0.188236
  11 0.000000 0.184148 -0.000000 -0.048555 -0.278175 -0.412484
  12 0.000000 0.111309 -0.000000 -0.647592 -0.072495 -0.270264
  13 0.000000 0.321328 0.000000 -1.309298 2.233955 0.156546
  14 0.000000 0.402466 0.000000 0.551777 -0.478313 -0.830536
  15 -0.000000 0.186935 -0.000000 -0.595739 0.562649 0.934420
  16 -0.000000 0.116940 -0.000000 -0.947475 0.300897 0.511031
  17 0.000000 0.321328 0.000000 0.000000 0.000000 -0.000000
  18 0.000000 0.219037 0.000000 -0.088498 0.061009 0.148801
  19 0.000000 0.258105 -0.000000 -0.291081 0.078443 0.207202
  20 0.000000 0.321328 0.000000 -1.427929 -2.844062 -0.050159
  21 0.000000 0.321328 0.000000 -1.427619 2.837134 0.035176
  22 0.241067 0.470374 0.022639 0.163278 -0.025409 -1.690942
  23 -0.002728 0.000960 -0.000286 -0.303440 -0.000000 0.931209
  24 -0.576650 0.524176 0.107280 -0.031451 -0.319882 1.714630
  25 0.000000 0.000000 0.000000 -0.260036 -0.014702 -0.926977
  26 -0.542430 -0.464380 0.028953 0.104494 0.013317 1.586351
  27 0.000000 0.000000 0.000000 -0.260036 0.014702 0.926977
  28 0.156906 -0.492354 0.142905 0.149863 0.180152 -1.180692
  29 -0.000047 -0.000194 -0.000158 -0.303440 0.000000 -0.931209
  time 17
  0 -0.222989 0.000000 -0.008227 1.649606 -0.099699 1.589841
  1 0.000000 0.321328 0.000000 -1.253787 -0.891792 -0.261188
  2 -0.000000 0.374527 -0.000000 -0.755847 -0.206404 -0.190768
  3 -0.000000 0.120617 -0.000000 -0.280459 0.056146 -0.123083
  4 0.000000 0.150692 0.000000 0.103138 -0.005654 0.036370
  5 0.000000 0.321328 0.000000 -1.238737 0.881709 0.286536
  6 -0.000000 0.369236 0.000000 -0.333018 0.001340 -0.109450
  7 -0.000000 0.116096 -0.000000 -0.727005 0.022727 0.335101
  8 0.000000 0.156429 0.000000 -0.670097 0.074568 0.182978
  9 0.000000 0.321328 0.000000 -1.307232 -2.226397 -0.175260
  10 0.000000 0.402466 -0.000000 -0.669136 0.487571 -0.134845
  11 0.000000 0.184148 -0.000000 -0.075209 -0.283821 -0.442102
  12 0.000000 0.111309 0.000000 -0.713938 -0.097518 -0.302326
  13 0.000000 0.321328 0.000000 -1.309298 2.233955 0.156545
  14 0.000000 0.402466 -0.000000 0.545239 -0.422636 -0.822922
  15 0.000000 0.186935 0.000000 -0.532625 0.579187 0.975510
  16 -0.000000 0.116940 -0.000000 -0.907353 0.314207 0.546328
  17 0.000000 0.321328 0.000000 -0.000000 -0.000000 0.000000
  18 0.000000 0.219037 0.000000 -0.089439 0.055251 0.134614
  19 0.000000 0.258105 -0.000000 -0.291846 0.075131 0.198275
  20 0.000000 0.321328 0.000000 -1.427928 -2.844062 -0.050159
  21 0.000000 0.321328 0.000000 -1.427619 2.837134 0.035176
  22 0.220918 0.473641 0.022765 0.082686 -0.027343 -1.677706
  23 -0.002728 0.000960 -0.000286 -0.303440 -0.000000 0.931209
  24 -0.543065 0.546901 0.123721 -0.054149 -0.339459 1.747372
  25 0.000000 0.000000 0.000000 -0.260036 -0.014702 -0.926977
  26 -0.537742 -0.454123 0.029318 0.100001 0.012779 1.585655
  27 0.000000 0.000000 0.000000 -0.260036 0.014702 0.926977
  28 0.189511 -0.484158 0.163042 0.130386 0.218606 -1.110218
  29 -0.000047 -0.000194 -0.000158 -0.303440 0.000000 -0.931209
  time 18
  0 -0.222969 0.000000 -0.003044 1.670205 -0.089014 1.595561
  1 0.000000 0.321328 0.000000 -1.253787 -0.891792 -0.261188
  2 -0.000000 0.374527 0.000000 -0.699455 -0.235823 -0.230236
  3 -0.000000 0.120617 -0.000000 -0.353781 0.026834 -0.163507
  4 -0.000000 0.150692 0.000000 0.107409 -0.006859 0.032448
  5 0.000000 0.321328 0.000000 -1.238737 0.881709 0.286536
  6 0.000000 0.369236 -0.000000 -0.418891 0.008285 -0.087169
  7 0.000000 0.116096 0.000000 -0.710066 0.014306 0.327080
  8 0.000000 0.156429 0.000000 -0.611340 0.062365 0.166368
  9 0.000000 0.321328 0.000000 -1.307232 -2.226397 -0.175259
  10 -0.000000 0.402466 -0.000000 -0.617319 0.526659 -0.079603
  11 0.000000 0.184148 -0.000000 -0.103559 -0.291539 -0.470522
  12 0.000000 0.111309 -0.000000 -0.779971 -0.125294 -0.333035
  13 0.000000 0.321328 0.000000 -1.309298 2.233955 0.156546
  14 0.000000 0.402466 0.000000 0.554005 -0.404855 -0.830276
  15 0.000000 0.186935 0.000000 -0.516882 0.581343 0.983276
  16 -0.000000 0.116940 0.000000 -0.898887 0.316993 0.554107
  17 0.000000 0.321328 0.000000 -0.000000 -0.000000 -0.000000
  18 -0.000000 0.219037 0.000000 -0.090800 0.046896 0.114078
  19 -0.000000 0.258105 -0.000000 -0.294029 0.066388 0.174734
  20 0.000000 0.321328 0.000000 -1.427929 -2.844062 -0.050159
  21 0.000000 0.321328 0.000000 -1.427619 2.837134 0.035176
  22 0.201333 0.475505 0.023009 0.022095 -0.025865 -1.660109
  23 -0.002728 0.000960 -0.000286 -0.303440 -0.000000 0.931209
  24 -0.513318 0.555712 0.130095 -0.063158 -0.346835 1.760234
  25 0.000000 0.000000 0.000000 -0.260036 -0.014702 -0.926977
  26 -0.525383 -0.446488 0.030280 0.088157 0.011345 1.583830
  27 0.000000 0.000000 0.000000 -0.260036 0.014702 0.926977
  28 0.202154 -0.480980 0.170816 0.102822 0.238602 -1.085325
  29 -0.000047 -0.000194 -0.000158 -0.303440 0.000000 -0.931209
  time 19
  0 -0.222933 0.000000 -0.001078 1.690350 -0.078475 1.601511
  1 0.000000 0.321328 0.000000 -1.253787 -0.891792 -0.261188
  2 0.000000 0.374527 0.000000 -0.551428 -0.198318 -0.171725
  3 -0.000000 0.120617 -0.000000 -0.625203 -0.040604 -0.280157
  4 -0.000000 0.150692 0.000000 0.050114 -0.003473 -0.021574
  5 0.000000 0.321328 0.000000 -1.238737 0.881709 0.286536
  6 0.000000 0.369236 0.000000 -0.479290 0.020030 -0.067784
  7 -0.000000 0.116096 -0.000000 -0.706602 0.015816 0.328499
  8 0.000000 0.156429 0.000000 -0.579772 0.057996 0.160314
  9 0.000000 0.321328 0.000000 -1.307232 -2.226397 -0.175260
  10 -0.000000 0.402466 -0.000000 -0.557197 0.563251 -0.019499
  11 -0.000000 0.184148 -0.000000 -0.131321 -0.300442 -0.499312
  12 -0.000000 0.111309 0.000000 -0.846364 -0.155720 -0.362552
  13 0.000000 0.321328 0.000000 -1.309298 2.233955 0.156546
  14 -0.000000 0.402466 0.000000 0.557966 -0.436049 -0.833917
  15 0.000000 0.186935 0.000000 -0.549489 0.569263 0.955199
  16 -0.000000 0.116940 -0.000000 -0.916020 0.305590 0.530351
  17 0.000000 0.321328 0.000000 0.000000 -0.000000 0.000000
  18 0.000000 0.219037 -0.000000 -0.092425 0.036964 0.089740
  19 -0.000000 0.258105 0.000000 -0.297406 0.053977 0.141456
  20 0.000000 0.321328 0.000000 -1.427928 -2.844062 -0.050159
  21 0.000000 0.321328 0.000000 -1.427619 2.837134 0.035176
  22 0.182968 0.476796 0.023450 -0.021312 -0.021831 -1.640259
  23 -0.002728 0.000960 -0.000286 -0.303440 -0.000000 0.931209
  24 -0.489829 0.534533 0.123233 -0.055939 -0.321748 1.744855
  25 0.000000 0.000000 0.000000 -0.260036 -0.014702 -0.926977
  26 -0.507910 -0.440117 0.031641 0.071412 0.009281 1.581280
  27 0.000000 0.000000 0.000000 -0.260036 0.014702 0.926977
  28 0.196634 -0.481853 0.160482 0.062006 0.229683 -1.125543
  29 -0.000047 -0.000194 -0.000158 -0.303440 0.000000 -0.931209
  time 20
  0 -0.222860 0.000000 -0.009434 1.709058 -0.068520 1.607427
  1 0.000000 0.321328 0.000000 -1.253787 -0.891792 -0.261188
  2 -0.000000 0.374527 0.000000 -0.392883 -0.142016 -0.075975
  3 -0.000000 0.120617 0.000000 -0.930670 -0.127666 -0.357810
  4 -0.000000 0.150692 -0.000000 -0.105149 -0.007708 -0.103630
  5 0.000000 0.321328 0.000000 -1.238737 0.881709 0.286536
  6 0.000000 0.369236 0.000000 -0.469951 0.026691 -0.065067
  7 0.000000 0.116096 0.000000 -0.741431 0.034305 0.344870
  8 0.000000 0.156429 -0.000000 -0.621556 0.069038 0.176677
  9 0.000000 0.321328 0.000000 -1.307232 -2.226397 -0.175260
  10 -0.000000 0.402466 -0.000000 -0.455875 0.603350 0.067697
  11 0.000000 0.184148 -0.000000 -0.163950 -0.316304 -0.535776
  12 -0.000000 0.111309 -0.000000 -0.931160 -0.200816 -0.399850
  13 0.000000 0.321328 0.000000 -1.309298 2.233955 0.156546
  14 0.000000 0.402466 -0.000000 0.546951 -0.490628 -0.827790
  15 0.000000 0.186935 0.000000 -0.597714 0.548973 0.913304
  16 -0.000000 0.116940 0.000000 -0.936081 0.284695 0.492955
  17 0.000000 0.321328 0.000000 -0.000000 0.000000 0.000000
  18 0.000000 0.219037 0.000000 -0.094231 0.026483 0.064150
  19 0.000000 0.258105 -0.000000 -0.301843 0.039669 0.103337
  20 0.000000 0.321328 0.000000 -1.427929 -2.844062 -0.050159
  21 0.000000 0.321328 0.000000 -1.427619 2.837134 0.035176
  22 0.166475 0.478343 0.024170 -0.050391 -0.016306 -1.620041
  23 -0.002728 0.000960 -0.000286 -0.303440 -0.000000 0.931209
  24 -0.472432 0.481585 0.106076 -0.039815 -0.258356 1.707580
  25 0.000000 0.000000 0.000000 -0.260036 -0.014702 -0.926977
  26 -0.487880 -0.433652 0.033201 0.052220 0.006862 1.578399
  27 0.000000 0.000000 0.000000 -0.260036 0.014702 0.926977
  28 0.182831 -0.484034 0.134648 0.013732 0.191320 -1.219293
  29 -0.000047 -0.000194 -0.000158 -0.303440 0.000000 -0.931209
  time 21
  0 -0.222727 0.000000 -0.029493 1.725343 -0.059560 1.613011
  1 0.000000 0.321328 0.000000 -1.253788 -0.891792 -0.261188
  2 -0.000000 0.374527 -0.000000 -0.295400 -0.087906 0.005154
  3 0.000000 0.120617 0.000000 -1.182578 -0.183351 -0.372627
  4 0.000000 0.150692 0.000000 -0.274286 -0.022598 -0.155944
  5 0.000000 0.321328 0.000000 -1.238737 0.881709 0.286536
  6 0.000000 0.369236 -0.000000 -0.392442 0.025461 -0.082156
  7 -0.000000 0.116096 -0.000000 -0.812328 0.068876 0.371774
  8 -0.000000 0.156429 0.000000 -0.735434 0.098013 0.212442
  9 0.000000 0.321328 0.000000 -1.307232 -2.226397 -0.175259
  10 -0.000000 0.402466 -0.000000 -0.306457 0.638976 0.192279
  11 0.000000 0.184148 -0.000000 -0.196275 -0.338348 -0.580168
  12 -0.000000 0.111309 -0.000000 -1.031609 -0.261655 -0.442383
  13 0.000000 0.321328 0.000000 -1.309298 2.233955 0.156546
  14 0.000000 0.402466 -0.000000 0.536676 -0.544039 -0.826975
  15 0.000000 0.186935 -0.000000 -0.645103 0.526247 0.873504
  16 -0.000000 0.116940 -0.000000 -0.956063 0.263222 0.456814
  17 0.000000 0.321328 0.000000 -0.000000 -0.000000 0.000000
  18 0.000000 0.219037 0.000000 -0.096233 0.016496 0.039852
  19 -0.000000 0.258105 -0.000000 -0.307426 0.025258 0.065283
  20 0.000000 0.321328 0.000000 -1.427928 -2.844062 -0.050159
  21 0.000000 0.321328 0.000000 -1.427619 2.837134 0.035176
  22 0.152510 0.480979 0.025248 -0.068007 -0.010393 -1.601223
  23 -0.002728 0.000960 -0.000286 -0.303440 -0.000000 0.931209
  24 -0.460316 0.412753 0.083772 -0.022730 -0.174873 1.661278
  25 0.000000 0.000000 0.000000 -0.260036 -0.014702 -0.926977
  26 -0.467850 -0.425734 0.034760 0.033035 0.004388 1.575565
  27 0.000000 0.000000 0.000000 -0.260036 0.014702 0.926977
  28 0.164889 -0.486869 0.101063 -0.029822 0.133322 -1.337125
  29 -0.000047 -0.000194 -0.000158 -0.303440 0.000000 -0.931209
  time 22
  0 -0.222514 0.000000 -0.053735 1.738213 -0.051989 1.617943
  1 -0.000000 0.321328 -0.000000 -1.253788 -0.891792 -0.261188
  2 -0.000000 0.374527 -0.000000 -0.285466 -0.032206 0.053632
  3 0.000000 0.120617 -0.000000 -1.358587 -0.189416 -0.351038
  4 0.000000 0.150692 0.000000 -0.393984 -0.032687 -0.160548
  5 -0.000000 0.321328 -0.000000 -1.238737 0.881709 0.286536
  6 -0.000000 0.369236 -0.000000 -0.300473 0.021168 -0.107729
  7 -0.000000 0.116096 -0.000000 -0.889487 0.105601 0.394569
  8 0.000000 0.156429 -0.000000 -0.869535 0.135905 0.248239
  9 -0.000000 0.321328 -0.000000 -1.307232 -2.226397 -0.175260
  10 -0.000000 0.402466 0.000000 -0.141847 0.657301 0.328495
  11 -0.000000 0.184148 -0.000000 -0.221266 -0.359695 -0.617899
  12 0.000000 0.111310 -0.000000 -1.124815 -0.323259 -0.477863
  13 -0.000000 0.321328 -0.000000 -1.309298 2.233955 0.156546
  14 -0.000000 0.402466 -0.000000 0.523022 -0.591227 -0.827617
  15 -0.000000 0.186936 0.000000 -0.683826 0.502946 0.840523
  16 0.000000 0.116940 0.000000 -0.969822 0.242129 0.425533
  17 -0.000000 0.321328 -0.000000 -0.000000 0.000000 -0.000000
  18 -0.000000 0.219037 -0.000000 -0.098545 0.008049 0.019382
  19 0.000000 0.258105 0.000000 -0.314513 0.012576 0.032171
  20 -0.000000 0.321328 -0.000000 -1.427928 -2.844062 -0.050159
  21 -0.000000 0.321328 -0.000000 -1.427619 2.837134 0.035176
  22 0.141725 0.485532 0.026765 -0.077031 -0.005122 -1.585548
  23 -0.002728 0.000960 -0.000286 -0.303440 -0.000000 0.931209
  24 -0.452667 0.343920 0.061468 -0.009729 -0.090721 1.616928
  25 0.000000 0.000000 0.000000 -0.260036 -0.014702 -0.926977
  26 -0.450377 -0.415004 0.036121 0.016308 0.002186 1.573133
  27 0.000000 0.000000 0.000000 -0.260036 0.014702 0.926978
  28 0.146946 -0.489705 0.067478 -0.060327 0.070423 -1.451359
  29 -0.000047 -0.000194 -0.000158 -0.303440 0.000000 -0.931209
  time 23
  0 -0.222200 0.000000 -0.074644 1.746675 -0.046185 1.621890
  1 0.000000 0.321328 0.000000 -1.253787 -0.891792 -0.261188
  2 -0.000000 0.374527 0.000000 -0.331417 0.017223 0.077753
  3 0.000000 0.120617 0.000000 -1.454450 -0.165005 -0.327760
  4 0.000000 0.150692 0.000000 -0.446815 -0.031678 -0.140205
  5 0.000000 0.321328 0.000000 -1.238737 0.881709 0.286536
  6 -0.000000 0.369236 0.000000 -0.232599 0.012890 -0.131262
  7 -0.000000 0.116096 -0.000000 -0.958529 0.131432 0.404566
  8 -0.000000 0.156429 -0.000000 -0.987595 0.169172 0.269937
  9 0.000000 0.321328 0.000000 -1.307232 -2.226397 -0.175259
  10 -0.000000 0.402466 0.000000 0.001397 0.657312 0.448528
  11 0.000000 0.184148 -0.000000 -0.233054 -0.374057 -0.641826
  12 0.000000 0.111309 -0.000000 -1.192819 -0.370268 -0.500793
  13 0.000000 0.321328 0.000000 -1.309298 2.233955 0.156546
  14 0.000000 0.402466 0.000000 0.510580 -0.625660 -0.828644
  15 -0.000000 0.186935 0.000000 -0.709656 0.483797 0.817270
  16 -0.000000 0.116940 -0.000000 -0.977549 0.225729 0.403200
  17 0.000000 0.321328 0.000000 0.000000 0.000000 0.000000
  18 0.000000 0.219037 0.000000 -0.101356 0.002193 0.005262
  19 0.000000 0.258105 0.000000 -0.323692 0.003497 0.008826
  20 0.000000 0.321328 0.000000 -1.427929 -2.844062 -0.050159
  21 0.000000 0.321328 0.000000 -1.427619 2.837134 0.035176
  22 0.134774 0.492835 0.028802 -0.080339 -0.001398 -1.574795
  23 -0.002728 0.000960 -0.000286 -0.303440 -0.000000 0.931209
  24 -0.448673 0.290972 0.044311 -0.002342 -0.025892 1.583836
  25 0.000000 0.000000 0.000000 -0.260036 -0.014702 -0.926977
  26 -0.438018 -0.400104 0.037083 0.004484 0.000605 1.571435
  27 0.000000 0.000000 0.000000 -0.260036 0.014702 0.926977
  28 0.133144 -0.491886 0.041644 -0.076245 0.020262 -1.537025
  29 -0.000047 -0.000194 -0.000158 -0.303440 0.000000 -0.931209
  time 24
  0 -0.221763 0.000000 -0.084701 1.749735 -0.042524 1.624522
  1 0.000000 0.321328 -0.000000 -1.253788 -0.891792 -0.261188
  2 0.000000 0.374527 0.000000 -0.352404 0.039862 0.087968
  3 0.000000 0.120617 0.000000 -1.489681 -0.150722 -0.319028
  4 0.000000 0.150692 -0.000000 -0.464085 -0.029803 -0.129570
  5 0.000000 0.321328 -0.000000 -1.238737 0.881709 0.286536
  6 0.000000 0.369236 0.000000 -0.219830 -0.004861 -0.144086
  7 -0.000000 0.116096 -0.000000 -1.012832 0.134483 0.397843
  8 -0.000000 0.156429 -0.000000 -1.055914 0.180371 0.268974
  9 0.000000 0.321328 -0.000000 -1.307232 -2.226397 -0.175260
  10 0.000000 0.402466 -0.000000 0.085190 0.650818 0.518889
  11 -0.000000 0.184148 -0.000000 -0.231958 -0.377239 -0.644273
  12 0.000000 0.111309 -0.000000 -1.219849 -0.387284 -0.507210
  13 0.000000 0.321328 -0.000000 -1.309298 2.233955 0.156546
  14 -0.000000 0.402465 0.000000 0.508307 -0.639082 -0.832119
  15 0.000000 0.186935 -0.000000 -0.720129 0.475099 0.807933
  16 -0.000000 0.116940 -0.000000 -0.981341 0.218887 0.394159
  17 0.000000 0.321328 -0.000000 -0.000000 0.000000 0.000000
  18 0.000000 0.219037 -0.000000 -0.104877 -0.000000 0.000000
  19 0.000000 0.258105 0.000000 -0.335653 0.000000 0.000000
  20 0.000000 0.321328 -0.000000 -1.427928 -2.844062 -0.050159
  21 0.000000 0.321328 -0.000000 -1.427619 2.837134 0.035176
  22 0.132312 0.503717 0.031438 -0.080800 -0.000000 -1.570796
  23 -0.002728 0.000960 -0.000286 -0.303440 -0.000000 0.931209
  24 -0.447522 0.269793 0.037448 0.000000 -0.000000 1.570796
  25 0.000000 0.000000 0.000000 -0.260036 -0.014702 -0.926977
  26 -0.433330 -0.379676 0.037448 0.000000 -0.000000 1.570796
  27 0.000000 0.000000 0.000000 -0.260036 0.014702 0.926977
  28 0.127623 -0.492758 0.031310 -0.080800 -0.000000 -1.570796
  29 -0.000047 -0.000194 -0.000158 -0.303440 0.000000 -0.931209
end
