version 1
nodes
0 "Root" -1
1 "InnerBack.L" 0
2 "UpperBack.L" 1
3 "LowerBack.L" 2
4 "LowerBack.L.001" 3
5 "InnerBack.R" 0
6 "UpperBack.R" 5
7 "LowerBack.R" 6
8 "LowerBack.R.001" 7
9 "InnerFront.L" 0
10 "UpperFront.L" 9
11 "LowerFront.L" 10
12 "LowerFront.L.001" 11
13 "InnerFront.R" 0
14 "UpperFront.R" 13
15 "LowerFront.R" 14
16 "LowerFront.R.001" 15
17 "Root.001" 0
18 "Root.002" 17
19 "Root.003" 18
20 "Flap.L" 0
21 "Flap.R" 0
22 "TargetFront.L" -1
23 "HandFront.L" 22
24 "TargetBack.L" -1
25 "HandBack.L" 24
26 "TargetBack.R" -1
27 "HandBack.R" 26
28 "TargetFront.R" -1
29 "HandFront.R" 28
end
skeleton
  time 0
  0 -0.187900 0.000000 -0.085410 1.691443 -0.039321 1.626908
  1 0.000000 0.321328 -0.000000 -1.253788 -0.891792 -0.261188
  2 0.000000 0.374527 0.000000 -0.166547 0.078598 0.138046
  3 -0.000000 0.120617 0.000000 -1.477015 -0.109497 -0.297021
  4 0.000000 0.150692 0.000000 -0.503371 -0.028376 -0.111966
  5 0.000000 0.321328 -0.000000 -1.238737 0.881709 0.286536
  6 -0.000000 0.369236 0.000000 -0.158377 -0.088285 -0.195628
  7 -0.000000 0.116096 -0.000000 -1.028049 0.046507 0.328083
  8 -0.000000 0.156429 -0.000000 -1.100144 0.139214 0.211825
  9 0.000000 0.321328 -0.000000 -1.307232 -2.226397 -0.175260
  10 0.000000 0.402466 -0.000000 0.154839 0.575955 0.553946
  11 -0.000000 0.184148 -0.000000 -0.147284 -0.399329 -0.677046
  12 0.000000 0.111309 -0.000000 -1.162481 -0.408841 -0.540603
  13 0.000000 0.321328 -0.000000 -1.309298 2.233955 0.156546
  14 -0.000000 0.402466 -0.000000 0.408449 -0.712407 -0.779499
  15 -0.000000 0.186935 0.000000 -0.750405 0.439383 0.772119
  16 -0.000000 0.116940 -0.000000 -0.965675 0.183458 0.354969
  17 0.000000 0.321328 -0.000000 -0.000000 -0.000000 0.000000
  18 0.000000 0.219037 -0.000000 -0.149136 0.013536 0.002358
  19 0.000000 0.258105 0.000000 -0.354396 0.002729 0.001395
  20 0.000000 0.321328 -0.000000 -1.427928 -2.844062 -0.050159
  21 0.000000 0.321328 -0.000000 -1.427618 2.837134 0.035176
  22 0.202903 0.517433 0.076810 -0.064642 -0.000000 -1.570796
  23 -0.002728 0.000960 -0.000286 -0.303440 -0.000000 0.931209
  24 -0.477580 0.291295 0.037448 0.000000 -0.000000 1.570796
  25 0.000000 0.000000 0.000000 -0.260036 -0.014702 -0.926977
  26 -0.463387 -0.358174 0.037448 0.000000 -0.000000 1.570796
  27 0.000000 0.000000 0.000000 -0.260036 0.014702 0.926977
  28 0.127623 -0.492758 0.031310 -0.080800 -0.000000 -1.570796
  29 -0.000047 -0.000194 -0.000158 -0.303440 0.000000 -0.931209
  time 1
  0 -0.153194 0.019217 -0.055968 1.661958 -0.037649 1.628042
  1 0.000000 0.321328 0.000000 -1.253787 -0.891792 -0.261188
  2 0.000000 0.374527 0.000000 -0.323957 0.118222 0.152137
  3 -0.000000 0.120617 0.000000 -1.272853 -0.003607 -0.253880
  4 0.000000 0.150692 0.000000 -0.323073 -0.004553 -0.035434
  5 0.000000 0.321328 0.000000 -1.238737 0.881709 0.286536
  6 0.000000 0.369236 -0.000000 -0.281714 -0.134926 -0.206154
  7 -0.000000 0.116096 -0.000000 -0.900198 -0.047538 0.256158
  8 -0.000000 0.156429 -0.000000 -0.875783 0.061697 0.137025
  9 0.000000 0.321328 0.000000 -1.307232 -2.226397 -0.175260
  10 -0.000000 0.402466 -0.000000 0.096772 0.532215 0.481102
  11 -0.000000 0.184148 -0.000000 -0.079410 -0.407996 -0.703372
  12 0.000000 0.111309 -0.000000 -1.077390 -0.398254 -0.558625
  13 0.000000 0.321328 0.000000 -1.309298 2.233955 0.156546
  14 -0.000000 0.402465 -0.000000 0.184815 -0.803096 -0.655263
  15 -0.000000 0.186935 0.000000 -0.740797 0.360972 0.691784
  16 -0.000000 0.116940 -0.000000 -0.869817 0.107888 0.273383
  17 0.000000 0.321328 0.000000 -0.000000 0.000000 -0.000000
  18 0.000000 0.219037 0.000000 -0.193447 0.027185 0.004117
  19 -0.000000 0.258105 0.000000 -0.373140 0.005484 0.002739
  20 0.000000 0.321328 0.000000 -1.427929 -2.844062 -0.050159
  21 0.000000 0.321328 0.000000 -1.427619 2.837134 0.035176
  22 0.273493 0.531149 0.122182 -0.048481 -0.000000 -1.570796
  23 -0.002728 0.000960 -0.000286 -0.303440 -0.000000 0.931209
  24 -0.507637 0.312798 0.037448 0.000000 -0.000000 1.570796
  25 0.000000 0.000000 0.000000 -0.260036 -0.014702 -0.926977
  26 -0.493445 -0.336672 0.037448 0.000000 -0.000000 1.570796
  27 0.000000 0.000000 0.000000 -0.260036 0.014702 0.926977
  28 0.127623 -0.492758 0.031310 -0.080800 -0.000000 -1.570796
  29 -0.000047 -0.000194 -0.000158 -0.303440 0.000000 -0.931209
  time 2
  0 -0.118487 0.038433 -0.026525 1.632464 -0.035944 1.629127
  1 0.000000 0.321328 -0.000000 -1.253788 -0.891792 -0.261188
  2 -0.000000 0.374527 -0.000000 -0.585219 0.152250 0.169513
  3 0.000000 0.120617 0.000000 -0.949849 0.102478 -0.186812
  4 0.000000 0.150692 0.000000 -0.092922 0.004522 0.028689
  5 0.000000 0.321328 -0.000000 -1.238737 0.881709 0.286536
  6 -0.000000 0.369236 0.000000 -0.488811 -0.172761 -0.224213
  7 0.000000 0.116096 -0.000000 -0.703991 -0.128819 0.179079
  8 -0.000000 0.156429 -0.000000 -0.562128 0.005406 0.058981
  9 0.000000 0.321328 -0.000000 -1.307232 -2.226397 -0.175260
  10 -0.000000 0.402466 -0.000000 0.021522 0.494734 0.384281
  11 -0.000000 0.184148 -0.000000 -0.015111 -0.406381 -0.712064
  12 -0.000000 0.111309 0.000000 -0.982868 -0.367560 -0.559751
  13 0.000000 0.321328 -0.000000 -1.309298 2.233955 0.156546
  14 0.000000 0.402465 -0.000000 0.243144 -0.749846 -0.677444
  15 -0.000000 0.186935 -0.000000 -0.673741 0.366009 0.665169
  16 -0.000000 0.116940 -0.000000 -0.811796 0.103134 0.263411
  17 0.000000 0.321328 -0.000000 -0.000000 -0.000000 -0.000000
  18 0.000000 0.219037 -0.000000 -0.237779 0.040906 0.005271
  19 0.000000 0.258105 0.000000 -0.391882 0.008264 0.004031
  20 0.000000 0.321328 -0.000000 -1.427928 -2.844061 -0.050159
  21 0.000000 0.321328 -0.000000 -1.427618 2.837134 0.035176
  22 0.344083 0.544865 0.167554 -0.032319 0.000000 -1.570796
  23 -0.002728 0.000960 -0.000286 -0.303440 -0.000000 0.931209
  24 -0.537695 0.334300 0.037448 0.000000 -0.000000 1.570796
  25 0.000000 0.000000 0.000000 -0.260036 -0.014702 -0.926977
  26 -0.523502 -0.315170 0.037448 0.000000 -0.000000 1.570796
  27 0.000000 0.000000 0.000000 -0.260036 0.014702 0.926977
  28 0.199382 -0.509221 0.076682 -0.064642 -0.000000 -1.570796
  29 -0.000047 -0.000194 -0.000158 -0.303440 0.000000 -0.931209
  time 3
  0 -0.083781 0.057650 0.002917 1.602974 -0.034208 1.630162
  1 0.000000 0.321328 0.000000 -1.253787 -0.891792 -0.261188
  2 0.000000 0.374527 0.000000 -1.208112 0.209303 0.210217
  3 0.000000 0.120617 -0.000000 -0.014106 0.204159 -0.002911
  4 -0.000000 0.150692 -0.000000 0.008843 0.006754 0.001940
  5 0.000000 0.321328 0.000000 -1.238737 0.881709 0.286536
  6 -0.000000 0.369236 0.000000 -1.134118 -0.229593 -0.256265
  7 -0.000000 0.116096 0.000000 -0.015732 -0.206279 0.003784
  8 0.000000 0.156429 0.000000 0.008622 -0.018428 -0.002391
  9 0.000000 0.321328 0.000000 -1.307232 -2.226397 -0.175260
  10 -0.000000 0.402466 -0.000000 -0.063363 0.460099 0.264023
  11 0.000000 0.184148 -0.000000 0.040032 -0.398880 -0.696952
  12 0.000000 0.111309 -0.000000 -0.884321 -0.320187 -0.537884
  13 0.000000 0.321328 0.000000 -1.309298 2.233955 0.156545
  14 -0.000000 0.402465 -0.000000 0.226904 -0.709729 -0.646293
  15 -0.000000 0.186935 -0.000000 -0.591419 0.356243 0.631687
  16 -0.000000 0.116940 -0.000000 -0.722609 0.084055 0.238723
  17 0.000000 0.321328 0.000000 -0.000000 0.000000 -0.000000
  18 0.000000 0.219037 0.000000 -0.282100 0.054657 0.005816
  19 0.000000 0.258105 0.000000 -0.410620 0.011067 0.005270
  20 0.000000 0.321328 0.000000 -1.427929 -2.844062 -0.050159
  21 0.000000 0.321328 0.000000 -1.427619 2.837134 0.035176
  22 0.414673 0.558582 0.212926 -0.016158 -0.000000 -1.570796
  23 -0.002728 0.000960 -0.000286 -0.303440 -0.000000 0.931209
  24 -0.567752 0.355802 0.037448 0.000000 -0.000000 1.570796
  25 0.000000 0.000000 0.000000 -0.260036 -0.014702 -0.926977
  26 -0.553560 -0.293668 0.037448 0.000000 -0.000000 1.570796
  27 0.000000 0.000000 0.000000 -0.260036 0.014702 0.926977
  28 0.271141 -0.525684 0.122054 -0.048481 -0.000000 -1.570796
  29 -0.000047 -0.000194 -0.000158 -0.303440 0.000000 -0.931209
  time 4
  0 -0.049075 0.076866 0.032359 1.573500 -0.032442 1.631144
  1 0.000000 0.321328 -0.000000 -1.253788 -0.891792 -0.261188
  2 -0.000000 0.374527 0.000000 -1.128085 0.254879 0.248925
  3 0.000000 0.120617 -0.000000 -0.013578 0.196472 -0.002023
  4 -0.000000 0.150692 -0.000000 0.008584 0.005040 0.001360
  5 0.000000 0.321328 -0.000000 -1.238737 0.881709 0.286536
  6 0.000000 0.369236 0.000000 -1.072608 -0.282807 -0.298801
  7 0.000000 0.116096 -0.000000 -0.015191 -0.199769 0.001729
  8 0.000000 0.156429 0.000000 0.008493 -0.016398 -0.001217
  9 0.000000 0.321328 -0.000000 -1.307232 -2.226397 -0.175260
  10 -0.000000 0.402466 -0.000000 -0.155695 0.422514 0.122519
  11 0.000000 0.184148 -0.000000 0.085764 -0.388559 -0.656282
  12 -0.000000 0.111309 -0.000000 -0.779678 -0.259846 -0.490843
  13 0.000000 0.321328 -0.000000 -1.309298 2.233955 0.156546
  14 -0.000000 0.402466 -0.000000 0.142288 -0.681532 -0.568815
  15 -0.000000 0.186935 0.000000 -0.492006 0.330825 0.585948
  16 -0.000000 0.116940 -0.000000 -0.599886 0.053555 0.196471
  17 0.000000 0.321328 -0.000000 0.000000 0.000000 -0.000000
  18 0.000000 0.219037 -0.000000 -0.326379 0.068397 0.005750
  19 0.000000 0.258105 -0.000000 -0.429350 0.013892 0.006457
  20 0.000000 0.321328 -0.000000 -1.427928 -2.844062 -0.050159
  21 0.000000 0.321328 -0.000000 -1.427619 2.837134 0.035176
  22 0.485263 0.572298 0.258298 0.000000 -0.000000 -1.570796
  23 -0.002728 0.000960 -0.000286 -0.303440 -0.000000 0.931209
  24 -0.597810 0.377304 0.037448 0.000000 -0.000000 1.570796
  25 0.000000 0.000000 0.000000 -0.260036 -0.014702 -0.926977
  26 -0.583618 -0.272165 0.037448 0.000000 -0.000000 1.570796
  27 0.000000 0.000000 0.000000 -0.260036 0.014702 0.926977
  28 0.342900 -0.542147 0.167426 -0.032319 0.000000 -1.570796
  29 -0.000047 -0.000194 -0.000158 -0.303440 0.000000 -0.931209
  time 5
  0 -0.055661 0.076866 0.023397 1.596099 -0.034251 1.631751
  1 0.000000 0.321328 0.000000 -1.253787 -0.891792 -0.261188
  2 0.000000 0.374527 -0.000000 -1.101408 0.263283 0.267225
  3 -0.000000 0.120617 -0.000000 -0.013941 0.203289 -0.002144
  4 0.000000 0.150692 0.000000 0.008804 0.005890 0.001445
  5 0.000000 0.321328 0.000000 -1.238737 0.881709 0.286536
  6 0.000000 0.369236 -0.000000 -1.041370 -0.292368 -0.320331
  7 0.000000 0.116096 -0.000000 -0.015237 -0.206084 0.001827
  8 -0.000000 0.156429 0.000000 0.008491 -0.018054 -0.001283
  9 0.000000 0.321328 0.000000 -1.307232 -2.226397 -0.175260
  10 -0.000000 0.402466 0.000000 -0.190662 0.412240 0.080772
  11 -0.000000 0.184148 -0.000000 0.081583 -0.392046 -0.662609
  12 -0.000000 0.111309 0.000000 -0.773159 -0.259092 -0.489686
  13 0.000000 0.321328 0.000000 -1.309298 2.233955 0.156546
  14 -0.000000 0.402466 0.000000 0.238100 -0.575931 -0.585598
  15 -0.000000 0.186935 -0.000000 -0.375345 0.354991 0.622504
  16 -0.000000 0.116940 -0.000000 -0.528240 0.063190 0.227307
  17 0.000000 0.321328 0.000000 0.000000 -0.000000 -0.000000
  18 0.000000 0.219037 0.000000 -0.304081 0.063150 0.005498
  19 -0.000000 0.258105 -0.000000 -0.410620 0.011067 0.005271
  20 0.000000 0.321328 0.000000 -1.427929 -2.844062 -0.050159
  21 0.000000 0.321328 0.000000 -1.427619 2.837134 0.035176
  22 0.487395 0.556574 0.230230 -0.044837 -0.000000 -1.570796
  23 -0.002728 0.000960 -0.000286 -0.303440 -0.000000 0.931209
  24 -0.603614 0.375960 0.060885 0.000000 -0.000000 1.570796
  25 0.000000 0.000000 0.000000 -0.260036 -0.014702 -0.926977
  26 -0.589422 -0.273510 0.060885 0.000000 -0.000000 1.570796
  27 0.000000 0.000000 0.000000 -0.260036 0.014702 0.926977
  28 0.414659 -0.558610 0.212798 -0.016158 -0.000000 -1.570796
  29 -0.000047 -0.000194 -0.000158 -0.303440 0.000000 -0.931209
  time 6
  0 -0.062247 0.076866 0.014435 1.618707 -0.036074 1.632317
  1 0.000000 0.321328 0.000000 -1.253787 -0.891792 -0.261188
  2 -0.000000 0.374527 -0.000000 -1.070717 0.272183 0.288013
  3 -0.000000 0.120617 -0.000000 -0.014324 0.210718 -0.002264
  4 0.000000 0.150692 0.000000 0.009036 0.006821 0.001531
  5 0.000000 0.321328 0.000000 -1.238737 0.881709 0.286536
  6 -0.000000 0.369236 0.000000 -1.006160 -0.302315 -0.344519
  7 -0.000000 0.116096 0.000000 -0.015275 -0.212952 0.001905
  8 -0.000000 0.156429 0.000000 0.008485 -0.019925 -0.001341
  9 0.000000 0.321328 0.000000 -1.307232 -2.226397 -0.175260
  10 -0.000000 0.402466 -0.000000 -0.227581 0.399562 0.035520
  11 -0.000000 0.184148 -0.000000 0.078508 -0.395024 -0.666367
  12 -0.000000 0.111309 -0.000000 -0.763348 -0.255986 -0.486015
  13 0.000000 0.321328 0.000000 -1.309298 2.233955 0.156546
  14 0.000000 0.402466 -0.000000 0.202329 -0.503733 -0.480909
  15 0.000000 0.186935 -0.000000 -0.224690 0.344053 0.587551
  16 -0.000000 0.116940 -0.000000 -0.375255 0.040253 0.192538
  17 0.000000 0.321328 0.000000 0.000000 0.000000 0.000000
  18 0.000000 0.219037 0.000000 -0.281774 0.057907 0.005129
  19 0.000000 0.258105 -0.000000 -0.391883 0.008264 0.004031
  20 0.000000 0.321328 0.000000 -1.427928 -2.844062 -0.050159
  21 0.000000 0.321328 0.000000 -1.427619 2.837134 0.035176
  22 0.489526 0.540850 0.202162 -0.089741 0.000000 -1.570796
  23 -0.002728 0.000960 -0.000286 -0.303440 -0.000000 0.931209
  24 -0.609419 0.374616 0.084322 0.000000 -0.000000 1.570796
  25 0.000000 0.000000 0.000000 -0.260036 -0.014702 -0.926977
  26 -0.595226 -0.274854 0.084322 0.000000 -0.000000 1.570796
  27 0.000000 0.000000 0.000000 -0.260036 0.014702 0.926977
  28 0.486418 -0.575073 0.258171 0.000000 -0.000000 -1.570796
  29 -0.000047 -0.000194 -0.000158 -0.303440 0.000000 -0.931209
  time 7
  0 -0.068833 0.076866 0.005472 1.641319 -0.037910 1.632842
  1 -0.000000 0.321328 -0.000000 -1.253788 -0.891792 -0.261188
  2 0.000000 0.374527 -0.000000 -1.036288 0.281322 0.311348
  3 -0.000000 0.120617 0.000000 -0.013737 0.218687 -0.002222
  4 0.000000 0.150692 0.000000 0.008664 0.007825 0.001508
  5 -0.000000 0.321328 -0.000000 -1.238737 0.881709 0.286536
  6 -0.000000 0.369236 0.000000 -0.966689 -0.311975 -0.371873
  7 -0.000000 0.116096 0.000000 -0.015389 -0.219834 0.001969
  8 0.000000 0.156429 0.000000 0.008510 -0.021829 -0.001391
  9 -0.000000 0.321328 -0.000000 -1.307232 -2.226397 -0.175259
  10 -0.000000 0.402466 -0.000000 -0.265914 0.384200 -0.012729
  11 -0.000000 0.184148 -0.000000 0.076593 -0.397434 -0.667561
  12 0.000000 0.111310 -0.000000 -0.750272 -0.250614 -0.479845
  13 -0.000000 0.321328 -0.000000 -1.309298 2.233955 0.156545
  14 0.000000 0.402466 0.000000 0.221606 -0.491171 -0.494222
  15 -0.000000 0.186935 -0.000000 -0.240370 0.362982 0.635162
  16 -0.000000 0.116940 -0.000000 -0.410473 0.055653 0.230314
  17 -0.000000 0.321328 -0.000000 -0.000000 0.000000 0.000000
  18 -0.000000 0.219037 -0.000000 -0.259464 0.052672 0.004643
  19 -0.000000 0.258105 -0.000000 -0.373140 0.005484 0.002739
  20 -0.000000 0.321328 -0.000000 -1.427928 -2.844062 -0.050159
  21 -0.000000 0.321328 -0.000000 -1.427619 2.837134 0.035176
  22 0.491658 0.525126 0.174094 -0.134669 0.000000 -1.570796
  23 -0.002728 0.000960 -0.000286 -0.303440 -0.000000 0.931209
  24 -0.615223 0.373272 0.107759 0.000000 -0.000000 1.570796
  25 0.000000 0.000000 0.000000 -0.260036 -0.014702 -0.926977
  26 -0.601030 -0.276198 0.107759 0.000000 -0.000000 1.570796
  27 0.000000 0.000000 0.000000 -0.260036 0.014702 0.926977
  28 0.489844 -0.553151 0.230103 -0.044837 -0.000000 -1.570796
  29 -0.000047 -0.000194 -0.000158 -0.303440 0.000000 -0.931209
  time 8
  0 -0.075418 0.076866 -0.003490 1.663928 -0.039756 1.633326
  1 -0.000000 0.321328 -0.000000 -1.253788 -0.891792 -0.261188
  2 0.000000 0.374527 -0.000000 -0.997161 0.290458 0.336898
  3 -0.000000 0.120617 0.000000 -0.014161 0.225678 -0.002301
  4 0.000000 0.150692 0.000000 0.008926 0.008703 0.001568
  5 -0.000000 0.321328 -0.000000 -1.238737 0.881709 0.286536
  6 -0.000000 0.369236 0.000000 -0.923648 -0.322004 -0.400595
  7 0.000000 0.116096 0.000000 -0.015349 -0.225774 0.001877
  8 -0.000000 0.156429 0.000000 0.008472 -0.023522 -0.001351
  9 -0.000000 0.321328 -0.000000 -1.307232 -2.226397 -0.175259
  10 -0.000000 0.402466 -0.000000 -0.305205 0.365878 -0.063452
  11 -0.000000 0.184148 -0.000000 0.075948 -0.399127 -0.666230
  12 0.000000 0.111310 -0.000000 -0.733865 -0.243031 -0.471243
  13 -0.000000 0.321328 -0.000000 -1.309298 2.233955 0.156546
  14 -0.000000 0.402466 0.000000 0.227847 -0.479376 -0.496651
  15 0.000000 0.186935 -0.000000 -0.249817 0.379674 0.677121
  16 -0.000000 0.116940 -0.000000 -0.436480 0.069803 0.263572
  17 -0.000000 0.321328 -0.000000 -0.000000 -0.000000 0.000000
  18 -0.000000 0.219037 -0.000000 -0.237155 0.047449 0.004040
  19 0.000000 0.258105 -0.000000 -0.354396 0.002729 0.001395
  20 -0.000000 0.321328 -0.000000 -1.427928 -2.844061 -0.050159
  21 -0.000000 0.321328 -0.000000 -1.427618 2.837134 0.035176
  22 0.493789 0.509402 0.146026 -0.179573 0.000000 -1.570796
  23 -0.002728 0.000960 -0.000286 -0.303440 -0.000000 0.931209
  24 -0.621027 0.371928 0.131195 0.000000 -0.000000 1.570796
  25 0.000000 0.000000 0.000000 -0.260036 -0.014702 -0.926977
  26 -0.606835 -0.277542 0.131195 0.000000 -0.000000 1.570796
  27 0.000000 0.000000 0.000000 -0.260036 0.014702 0.926977
  28 0.493270 -0.531229 0.202035 -0.089741 0.000000 -1.570796
  29 -0.000047 -0.000194 -0.000158 -0.303440 0.000000 -0.931209
  time 9
  0 -0.082004 0.076866 -0.012452 1.686530 -0.041613 1.633767
  1 0.000000 0.321328 -0.000000 -1.253788 -0.891792 -0.261188
  2 0.000000 0.374527 -0.000000 -0.757750 0.279004 0.347197
  3 -0.000000 0.120617 0.000000 -0.356427 0.223274 -0.049665
  4 0.000000 0.150692 0.000000 0.107330 0.006804 0.038678
  5 0.000000 0.321328 -0.000000 -1.238737 0.881709 0.286536
  6 0.000000 0.369236 0.000000 -0.810834 -0.321621 -0.424979
  7 0.000000 0.116096 0.000000 -0.117010 -0.232169 0.012193
  8 0.000000 0.156429 0.000000 0.017698 -0.025484 -0.009560
  9 0.000000 0.321328 -0.000000 -1.307232 -2.226397 -0.175260
  10 -0.000000 0.402466 -0.000000 -0.345860 0.344020 -0.115645
  11 -0.000000 0.184148 -0.000000 0.077315 -0.399298 -0.662993
  12 -0.000000 0.111309 -0.000000 -0.713382 -0.233034 -0.460884
  13 0.000000 0.321328 -0.000000 -1.309298 2.233955 0.156545
  14 0.000000 0.402466 0.000000 0.223921 -0.468840 -0.489402
  15 0.000000 0.186935 -0.000000 -0.254778 0.394419 0.714404
  16 -0.000000 0.116940 -0.000000 -0.454805 0.082242 0.292274
  17 0.000000 0.321328 -0.000000 -0.000000 -0.000000 0.000000
  18 0.000000 0.219037 -0.000000 -0.214851 0.042240 0.003321
  19 0.000000 0.258105 0.000000 -0.335653 0.000000 0.000000
  20 0.000000 0.321328 -0.000000 -1.427928 -2.844062 -0.050159
  21 0.000000 0.321328 -0.000000 -1.427619 2.837134 0.035176
  22 0.495920 0.493678 0.117958 -0.224410 -0.000000 -1.570796
  23 -0.002728 0.000960 -0.000286 -0.303440 -0.000000 0.931209
  24 -0.626831 0.370584 0.154632 0.000000 -0.000000 1.570796
  25 0.000000 0.000000 0.000000 -0.260036 -0.014702 -0.926977
  26 -0.612639 -0.278886 0.154632 0.000000 -0.000000 1.570796
  27 0.000000 0.000000 0.000000 -0.260036 0.014702 0.926977
  28 0.496696 -0.509307 0.173967 -0.134669 0.000000 -1.570796
  29 -0.000047 -0.000194 -0.000158 -0.303440 0.000000 -0.931209
  time 10
  0 -0.089855 0.077083 -0.030327 1.702412 -0.042608 1.633098
  1 0.000000 0.321328 -0.000000 -1.253788 -0.891792 -0.261188
  2 -0.000000 0.374527 0.000000 -0.454806 0.255844 0.342458
  3 0.000000 0.120617 0.000000 -0.686892 0.208561 -0.083084
  4 0.000000 0.150692 0.000000 0.023655 0.005782 0.072420
  5 0.000000 0.321328 -0.000000 -1.238737 0.881709 0.286536
  6 -0.000000 0.369236 0.000000 -0.484810 -0.287942 -0.406479
  7 -0.000000 0.116096 0.000000 -0.393771 -0.232915 0.028312
  8 -0.000000 0.156429 0.000000 -0.242397 -0.029341 -0.024757
  9 0.000000 0.321328 -0.000000 -1.307232 -2.226397 -0.175260
  10 -0.000000 0.402466 0.000000 -0.289933 0.379223 -0.027624
  11 0.000000 0.184148 -0.000000 0.050601 -0.412633 -0.707789
  12 0.000000 0.111309 -0.000000 -0.786960 -0.281283 -0.506638
  13 0.000000 0.321328 -0.000000 -1.309298 2.233955 0.156546
  14 -0.000000 0.402466 0.000000 0.217596 -0.453323 -0.474775
  15 0.000000 0.186935 -0.000000 -0.249783 0.408787 0.750495
  16 -0.000000 0.116940 -0.000000 -0.463490 0.093571 0.319408
  17 0.000000 0.321328 -0.000000 -0.000000 -0.000000 -0.000000
  18 0.000000 0.219037 -0.000000 -0.171856 0.025021 0.005076
  19 0.000000 0.258105 -0.000000 -0.259282 -0.019957 -0.006926
  20 0.000000 0.321328 -0.000000 -1.427928 -2.844062 -0.050159
  21 0.000000 0.321328 -0.000000 -1.427619 2.837134 0.035176
  22 0.464671 0.495112 0.097638 -0.155504 -0.009168 -1.563916
  23 -0.002728 0.000960 -0.000286 -0.303440 -0.000000 0.931209
  24 -0.630325 0.369922 0.170462 0.000000 -0.000000 1.570796
  25 0.000000 0.000000 0.000000 -0.260036 -0.014702 -0.926977
  26 -0.616133 -0.279547 0.170462 0.000000 -0.000000 1.570796
  27 0.000000 0.000000 0.000000 -0.260036 0.014702 0.926977
  28 0.500122 -0.487385 0.145899 -0.179573 0.000000 -1.570796
  29 -0.000047 -0.000194 -0.000158 -0.303440 0.000000 -0.931209
  time 11
  0 -0.097706 0.077300 -0.048201 1.718298 -0.043593 1.632414
  1 0.000000 0.321328 0.000000 -1.253787 -0.891792 -0.261188
  2 -0.000000 0.374527 0.000000 -0.261998 0.248690 0.347649
  3 -0.000000 0.120617 0.000000 -0.843494 0.201377 -0.093155
  4 -0.000000 0.150692 0.000000 -0.062034 0.007490 0.087779
  5 0.000000 0.321328 0.000000 -1.238737 0.881709 0.286536
  6 -0.000000 0.369236 0.000000 -0.325384 -0.282021 -0.417217
  7 0.000000 0.116096 0.000000 -0.474567 -0.237705 0.030662
  8 -0.000000 0.156429 -0.000000 -0.383251 -0.032579 -0.024005
  9 0.000000 0.321328 0.000000 -1.307232 -2.226397 -0.175260
  10 -0.000000 0.402466 0.000000 -0.237488 0.409828 0.054238
  11 -0.000000 0.184148 -0.000000 0.022306 -0.424786 -0.743811
  12 0.000000 0.111309 -0.000000 -0.854885 -0.326356 -0.542938
  13 0.000000 0.321328 0.000000 -1.309298 2.233955 0.156545
  14 0.000000 0.402466 -0.000000 0.204684 -0.438708 -0.452887
  15 0.000000 0.186935 -0.000000 -0.242170 0.421671 0.782804
  16 -0.000000 0.116940 -0.000000 -0.467177 0.103154 0.342794
  17 0.000000 0.321328 0.000000 0.000000 -0.000000 -0.000000
  18 0.000000 0.219037 0.000000 -0.128853 0.007722 0.006089
  19 -0.000000 0.258105 0.000000 -0.182487 -0.039388 -0.015389
  20 0.000000 0.321328 0.000000 -1.427929 -2.844062 -0.050159
  21 0.000000 0.321328 0.000000 -1.427619 2.837134 0.035176
  22 0.433422 0.496546 0.077318 -0.086462 -0.018814 -1.557666
  23 -0.002728 0.000960 -0.000286 -0.303440 -0.000000 0.931209
  24 -0.633819 0.369261 0.186292 0.000000 -0.000000 1.570796
  25 0.000000 0.000000 0.000000 -0.260036 -0.014702 -0.926977
  26 -0.619627 -0.280209 0.186292 0.000000 -0.000000 1.570796
  27 0.000000 0.000000 0.000000 -0.260036 0.014702 0.926977
  28 0.503549 -0.465463 0.117831 -0.224410 -0.000000 -1.570796
  29 -0.000047 -0.000194 -0.000158 -0.303440 0.000000 -0.931209
  time 12
  0 -0.105557 0.077517 -0.066076 1.734185 -0.044567 1.631714
  1 0.000000 0.321328 -0.000000 -1.253788 -0.891792 -0.261188
  2 0.000000 0.374527 -0.000000 -0.109100 0.246198 0.357933
  3 0.000000 0.120617 0.000000 -0.942659 0.199136 -0.095457
  4 -0.000000 0.150692 0.000000 -0.130603 0.009756 0.099395
  5 0.000000 0.321328 -0.000000 -1.238737 0.881709 0.286536
  6 -0.000000 0.369236 0.000000 -0.205153 -0.280630 -0.431333
  7 0.000000 0.116096 -0.000000 -0.515977 -0.244391 0.026369
  8 -0.000000 0.156428 0.000000 -0.480165 -0.035788 -0.024795
  9 0.000000 0.321328 -0.000000 -1.307232 -2.226397 -0.175260
  10 -0.000000 0.402466 -0.000000 -0.188836 0.437374 0.130764
  11 -0.000000 0.184148 -0.000000 -0.008371 -0.435933 -0.771210
  12 0.000000 0.111309 -0.000000 -0.919476 -0.368206 -0.571108
  13 0.000000 0.321328 -0.000000 -1.309298 2.233955 0.156546
  14 0.000000 0.402466 0.000000 0.306824 -0.429093 -0.575952
  15 0.000000 0.186935 0.000000 -0.290322 0.445605 0.830620
  16 -0.000000 0.116940 -0.000000 -0.550783 0.136873 0.393468
  17 0.000000 0.321328 -0.000000 0.000000 -0.000000 -0.000000
  18 -0.000000 0.219037 -0.000000 -0.085863 -0.009606 0.006358
  19 0.000000 0.258105 0.000000 -0.105459 -0.058111 -0.025327
  20 0.000000 0.321328 -0.000000 -1.427928 -2.844062 -0.050159
  21 0.000000 0.321328 -0.000000 -1.427618 2.837134 0.035176
  22 0.402173 0.497980 0.056998 -0.017443 -0.028872 -1.552094
  23 -0.002728 0.000960 -0.000286 -0.303440 -0.000000 0.931209
  24 -0.637313 0.368599 0.202122 0.000000 -0.000000 1.570796
  25 0.000000 0.000000 0.000000 -0.260036 -0.014702 -0.926977
  26 -0.623121 -0.280870 0.202122 0.000000 -0.000000 1.570796
  27 0.000000 0.000000 0.000000 -0.260036 0.014702 0.926977
  28 0.467091 -0.463790 0.097150 -0.174561 -0.022054 -1.573992
  29 -0.000047 -0.000194 -0.000158 -0.303440 0.000000 -0.931209
  time 13
  0 -0.113408 0.077733 -0.083950 1.750072 -0.045529 1.630998
  1 0.000000 0.321328 -0.000000 -1.253788 -0.891792 -0.261188
  2 -0.000000 0.374527 0.000000 0.015865 0.246833 0.365762
  3 0.000000 0.120617 0.000000 -1.007360 0.202120 -0.090494
  4 -0.000000 0.150692 0.000000 -0.182274 0.012280 0.113778
  5 0.000000 0.321328 -0.000000 -1.238737 0.881709 0.286536
  6 -0.000000 0.369236 -0.000000 -0.108061 -0.280953 -0.447806
  7 -0.000000 0.116096 0.000000 -0.535175 -0.253283 0.018928
  8 -0.000000 0.156429 0.000000 -0.546505 -0.039861 -0.027595
  9 0.000000 0.321328 -0.000000 -1.307232 -2.226397 -0.175260
  10 0.000000 0.402466 0.000000 -0.142287 0.463982 0.201210
  11 -0.000000 0.184148 -0.000000 -0.042432 -0.445667 -0.790346
  12 0.000000 0.111309 -0.000000 -0.982819 -0.406057 -0.590712
  13 0.000000 0.321328 -0.000000 -1.309298 2.233955 0.156546
  14 0.000000 0.402465 -0.000000 0.403019 -0.418145 -0.681831
  15 0.000000 0.186935 0.000000 -0.342886 0.468462 0.859189
  16 -0.000000 0.116940 -0.000000 -0.632298 0.169755 0.428899
  17 0.000000 0.321328 -0.000000 -0.000000 -0.000000 -0.000000
  18 0.000000 0.219037 -0.000000 -0.042906 -0.026913 0.005883
  19 0.000000 0.258105 0.000000 -0.028397 -0.075958 -0.036655
  20 0.000000 0.321328 -0.000000 -1.427928 -2.844062 -0.050159
  21 0.000000 0.321328 -0.000000 -1.427618 2.837134 0.035176
  22 0.370923 0.499414 0.036678 0.051395 -0.039268 -1.547236
  23 -0.002728 0.000960 -0.000286 -0.303440 -0.000000 0.931209
  24 -0.640807 0.367938 0.217952 0.000000 -0.000000 1.570796
  25 0.000000 0.000000 0.000000 -0.260036 -0.014702 -0.926977
  26 -0.626615 -0.281532 0.217952 0.000000 -0.000000 1.570796
  27 0.000000 0.000000 0.000000 -0.260036 0.014702 0.926977
  28 0.430634 -0.462117 0.076469 -0.124486 -0.043974 -1.578297
  29 -0.000047 -0.000194 -0.000158 -0.303440 0.000000 -0.931209
  time 14
  0 -0.136109 0.077733 -0.088649 1.776198 -0.047086 1.629789
  1 0.000000 0.321328 -0.000000 -1.253788 -0.891792 -0.261188
  2 -0.000000 0.374527 -0.000000 0.084135 0.243686 0.305794
  3 -0.000000 0.120617 0.000000 -1.228579 0.158909 -0.125012
  4 0.000000 0.150692 0.000000 -0.350144 0.015765 0.098895
  5 0.000000 0.321328 -0.000000 -1.238737 0.881709 0.286536
  6 0.000000 0.369236 0.000000 0.003266 -0.239728 -0.355441
  7 0.000000 0.116096 -0.000000 -0.701151 -0.203085 0.076517
  8 0.000000 0.156429 -0.000000 -0.804317 -0.018080 0.009976
  9 0.000000 0.321328 -0.000000 -1.307232 -2.226397 -0.175260
  10 -0.000000 0.402466 0.000000 -0.090760 0.452522 0.241603
  11 -0.000000 0.184148 -0.000000 -0.028272 -0.457773 -0.812712
  12 0.000000 0.111309 -0.000000 -0.992121 -0.430805 -0.610767
  13 0.000000 0.321328 -0.000000 -1.309298 2.233955 0.156546
  14 -0.000000 0.402466 0.000000 0.439111 -0.422376 -0.721396
  15 0.000000 0.186935 -0.000000 -0.376956 0.477406 0.863794
  16 -0.000000 0.116940 -0.000000 -0.673744 0.183290 0.437192
  17 0.000000 0.321328 -0.000000 -0.000000 -0.000000 -0.000000
  18 0.000000 0.219037 -0.000000 -0.049101 -0.024204 0.005369
  19 0.000000 0.258105 0.000000 -0.059213 -0.068934 -0.031964
  20 0.000000 0.321328 -0.000000 -1.427928 -2.844062 -0.050159
  21 0.000000 0.321328 -0.000000 -1.427618 2.837134 0.035176
  22 0.355299 0.500131 0.035805 0.029415 -0.032512 -1.550801
  23 -0.002728 0.000960 -0.000286 -0.303440 -0.000000 0.931209
  24 -0.608593 0.351580 0.187868 0.000000 -0.000000 1.570796
  25 0.000000 0.000000 0.000000 -0.260036 -0.014702 -0.926977
  26 -0.594400 -0.297889 0.187868 0.000000 -0.000000 1.570796
  27 0.000000 0.000000 0.000000 -0.260036 0.014702 0.926977
  28 0.394176 -0.460443 0.055788 -0.074211 -0.065670 -1.583706
  29 -0.000047 -0.000194 -0.000158 -0.303440 0.000000 -0.931209
  time 15
  0 -0.158810 0.077733 -0.093348 1.802333 -0.048612 1.628539
  1 -0.000000 0.321328 -0.000000 -1.253788 -0.891792 -0.261188
  2 0.000000 0.374527 0.000000 0.070998 0.235236 0.265853
  3 0.000000 0.120617 0.000000 -1.374662 0.111859 -0.163252
  4 0.000000 0.150692 0.000000 -0.464363 0.012284 0.061072
  5 -0.000000 0.321328 -0.000000 -1.238737 0.881709 0.286536
  6 -0.000000 0.369236 0.000000 0.054912 -0.192524 -0.293765
  7 0.000000 0.116096 -0.000000 -0.812530 -0.137375 0.145344
  8 0.000000 0.156429 0.000000 -0.966704 0.022081 0.064095
  9 -0.000000 0.321328 -0.000000 -1.307232 -2.226397 -0.175260
  10 -0.000000 0.402466 -0.000000 -0.039591 0.438764 0.282150
  11 0.000000 0.184148 0.000000 -0.013279 -0.470075 -0.834359
  12 0.000000 0.111310 -0.000000 -1.000187 -0.455636 -0.630502
  13 -0.000000 0.321328 -0.000000 -1.309298 2.233955 0.156545
  14 -0.000000 0.402466 0.000000 0.469898 -0.430204 -0.753560
  15 -0.000000 0.186936 -0.000000 -0.411520 0.484399 0.863099
  16 -0.000000 0.116940 -0.000000 -0.712735 0.194503 0.440823
  17 -0.000000 0.321328 -0.000000 0.000000 -0.000000 0.000000
  18 -0.000000 0.219037 -0.000000 -0.055296 -0.021499 0.004839
  19 0.000000 0.258105 -0.000000 -0.090043 -0.061755 -0.027485
  20 -0.000000 0.321328 -0.000000 -1.427928 -2.844062 -0.050159
  21 -0.000000 0.321328 -0.000000 -1.427619 2.837134 0.035176
  22 0.339674 0.500848 0.034931 0.007409 -0.025834 -1.554514
  23 -0.002728 0.000960 -0.000286 -0.303440 -0.000000 0.931209
  24 -0.576379 0.335223 0.157784 0.000000 -0.000000 1.570796
  25 0.000000 0.000000 0.000000 -0.260036 -0.014702 -0.926977
  26 -0.562186 -0.314247 0.157784 0.000000 -0.000000 1.570796
  27 0.000000 0.000000 0.000000 -0.260036 0.014702 0.926977
  28 0.357718 -0.458770 0.035107 -0.023768 -0.087053 -1.590208
  29 -0.000047 -0.000194 -0.000158 -0.303440 0.000000 -0.931209
  time 16
  0 -0.181510 0.077733 -0.098047 1.828467 -0.050104 1.627249
  1 0.000000 0.321328 -0.000000 -1.253788 -0.891792 -0.261188
  2 -0.000000 0.374527 -0.000000 -0.010836 0.218913 0.236753
  3 0.000000 0.120617 0.000000 -1.469260 0.061874 -0.204894
  4 -0.000000 0.150692 -0.000000 -0.523992 0.003684 0.014279
  5 0.000000 0.321328 -0.000000 -1.238737 0.881709 0.286536
  6 -0.000000 0.369236 0.000000 0.060927 -0.135526 -0.256702
  7 0.000000 0.116096 0.000000 -0.881116 -0.059006 0.225808
  8 -0.000000 0.156428 -0.000000 -1.053453 0.076526 0.132549
  9 0.000000 0.321328 -0.000000 -1.307232 -2.226397 -0.175260
  10 0.000000 0.402466 -0.000000 0.009025 0.422139 0.323304
  11 0.000000 0.184148 -0.000000 0.002574 -0.482909 -0.854459
  12 0.000000 0.111309 -0.000000 -1.006636 -0.480927 -0.650729
  13 0.000000 0.321328 -0.000000 -1.309298 2.233955 0.156546
  14 0.000000 0.402466 -0.000000 0.494722 -0.441795 -0.778758
  15 -0.000000 0.186935 -0.000000 -0.445883 0.489023 0.858327
  16 -0.000000 0.116940 -0.000000 -0.748702 0.203042 0.440421
  17 0.000000 0.321328 -0.000000 -0.000000 -0.000000 0.000000
  18 0.000000 0.219037 -0.000000 -0.061493 -0.018798 0.004292
  19 -0.000000 0.258105 -0.000000 -0.120874 -0.054431 -0.023225
  20 0.000000 0.321328 -0.000000 -1.427928 -2.844062 -0.050159
  21 0.000000 0.321328 -0.000000 -1.427619 2.837134 0.035176
  22 0.324049 0.501565 0.034058 -0.014620 -0.019238 -1.558373
  23 -0.002728 0.000960 -0.000286 -0.303440 -0.000000 0.931209
  24 -0.544165 0.318865 0.127700 0.000000 -0.000000 1.570796
  25 0.000000 0.000000 0.000000 -0.260036 -0.014702 -0.926977
  26 -0.529972 -0.330604 0.127700 0.000000 -0.000000 1.570796
  27 0.000000 0.000000 0.000000 -0.260036 0.014702 0.926977
  28 0.321261 -0.457097 0.014427 0.026812 -0.108038 -1.597782
  29 -0.000047 -0.000194 -0.000158 -0.303440 0.000000 -0.931209
  time 17
  0 -0.187260 0.066629 -0.096141 1.817221 -0.049008 1.626897
  1 -0.000000 0.321328 0.000000 -1.253787 -0.891792 -0.261188
  2 -0.000000 0.374527 -0.000000 -0.111543 0.191195 0.207378
  3 -0.000000 0.120617 0.000000 -1.509158 0.012901 -0.238040
  4 0.000000 0.150692 0.000000 -0.532191 -0.005564 -0.025782
  5 -0.000000 0.321328 0.000000 -1.238737 0.881709 0.286536
  6 -0.000000 0.369236 0.000000 0.020994 -0.091484 -0.232919
  7 -0.000000 0.116096 -0.000000 -0.918812 0.003969 0.289580
  8 -0.000000 0.156429 0.000000 -1.077473 0.119132 0.187047
  9 -0.000000 0.321328 0.000000 -1.307232 -2.226397 -0.175259
  10 -0.000000 0.402466 -0.000000 0.012131 0.441975 0.341965
  11 -0.000000 0.184148 -0.000000 -0.013234 -0.469880 -0.832550
  12 0.000000 0.111309 0.000000 -1.019453 -0.467708 -0.636779
  13 -0.000000 0.321328 0.000000 -1.309298 2.233955 0.156545
  14 0.000000 0.402466 -0.000000 0.512493 -0.461123 -0.797236
  15 0.000000 0.186935 0.000000 -0.488356 0.495074 0.854491
  16 0.000000 0.116940 -0.000000 -0.791114 0.213117 0.439937
  17 -0.000000 0.321328 0.000000 0.000000 -0.000000 0.000000
  18 -0.000000 0.219037 0.000000 -0.067689 -0.016100 0.003729
  19 -0.000000 0.258105 0.000000 -0.151693 -0.046972 -0.019191
  20 -0.000000 0.321328 0.000000 -1.427929 -2.844061 -0.050159
  21 -0.000000 0.321328 0.000000 -1.427619 2.837134 0.035176
  22 0.308425 0.502282 0.033184 -0.036668 -0.012731 -1.562375
  23 -0.002728 0.000960 -0.000286 -0.303440 -0.000000 0.931209
  24 -0.511951 0.302508 0.097616 0.000000 -0.000000 1.570796
  25 0.000000 0.000000 0.000000 -0.260036 -0.014702 -0.926977
  26 -0.497758 -0.346962 0.097616 0.000000 -0.000000 1.570796
  27 0.000000 0.000000 0.000000 -0.260036 0.014702 0.926977
  28 0.293598 -0.462192 0.016838 0.011208 -0.092796 -1.593202
  29 -0.000047 -0.000194 -0.000158 -0.303440 0.000000 -0.931209
  time 18
  0 -0.193011 0.055524 -0.094234 1.805973 -0.047917 1.626531
  1 0.000000 0.321328 0.000000 -1.253788 -0.891792 -0.261188
  2 0.000000 0.374527 -0.000000 -0.267391 0.157074 0.169680
  3 -0.000000 0.120617 -0.000000 -1.505603 -0.028845 -0.266605
  4 -0.000000 0.150692 -0.000000 -0.491343 -0.010882 -0.055010
  5 0.000000 0.321328 0.000000 -1.238737 0.881709 0.286536
  6 -0.000000 0.369236 -0.000000 -0.062106 -0.045320 -0.199640
  7 0.000000 0.116096 -0.000000 -0.927395 0.061091 0.346455
  8 -0.000000 0.156429 0.000000 -1.043427 0.147915 0.232053
  9 0.000000 0.321328 0.000000 -1.307232 -2.226397 -0.175260
  10 0.000000 0.402466 0.000000 0.013991 0.461861 0.357835
  11 -0.000000 0.184148 0.000000 -0.028816 -0.457011 -0.809334
  12 -0.000000 0.111309 0.000000 -1.030264 -0.453071 -0.621581
  13 0.000000 0.321328 0.000000 -1.309298 2.233955 0.156546
  14 0.000000 0.402466 0.000000 0.526140 -0.483759 -0.811727
  15 -0.000000 0.186935 0.000000 -0.530555 0.498627 0.848270
  16 -0.000000 0.116940 0.000000 -0.831191 0.220766 0.436613
  17 0.000000 0.321328 0.000000 0.000000 0.000000 -0.000000
  18 0.000000 0.219037 -0.000000 -0.073886 -0.013406 0.003148
  19 -0.000000 0.258105 -0.000000 -0.182487 -0.039388 -0.015389
  20 0.000000 0.321328 0.000000 -1.427928 -2.844062 -0.050159
  21 0.000000 0.321328 0.000000 -1.427619 2.837134 0.035176
  22 0.292800 0.502999 0.032311 -0.058729 -0.006317 -1.566517
  23 -0.002728 0.000960 -0.000286 -0.303440 -0.000000 0.931209
  24 -0.479736 0.286151 0.067532 0.000000 -0.000000 1.570796
  25 0.000000 0.000000 0.000000 -0.260036 -0.014702 -0.926977
  26 -0.465544 -0.363319 0.067532 0.000000 -0.000000 1.570796
  27 0.000000 0.000000 0.000000 -0.260036 0.014702 0.926977
  28 0.265936 -0.467286 0.019250 -0.004313 -0.077477 -1.588864
  29 -0.000047 -0.000194 -0.000158 -0.303440 0.000000 -0.931209
  time 19
  0 -0.198761 0.044419 -0.092327 1.794725 -0.046829 1.626154
  1 -0.000000 0.321328 0.000000 -1.253787 -0.891792 -0.261188
  2 0.000000 0.374527 -0.000000 -0.469121 0.113519 0.120348
  3 -0.000000 0.120617 0.000000 -1.456488 -0.057896 -0.288089
  4 0.000000 0.150692 -0.000000 -0.407605 -0.010566 -0.067853
  5 -0.000000 0.321328 0.000000 -1.238737 0.881709 0.286536
  6 -0.000000 0.369236 0.000000 -0.180044 0.003185 -0.149064
  7 -0.000000 0.116096 -0.000000 -0.909121 0.104828 0.390965
  8 -0.000000 0.156429 0.000000 -0.959612 0.155625 0.259576
  9 -0.000000 0.321328 0.000000 -1.307232 -2.226397 -0.175260
  10 -0.000000 0.402466 -0.000000 0.014297 0.481742 0.370905
  11 -0.000000 0.184148 -0.000000 -0.044133 -0.444375 -0.784803
  12 -0.000000 0.111309 -0.000000 -1.038951 -0.437104 -0.605181
  13 -0.000000 0.321328 0.000000 -1.309298 2.233955 0.156546
  14 -0.000000 0.402465 -0.000000 0.534898 -0.509564 -0.822547
  15 0.000000 0.186935 -0.000000 -0.571895 0.499460 0.840591
  16 0.000000 0.116940 0.000000 -0.868419 0.225813 0.431015
  17 -0.000000 0.321328 0.000000 0.000000 -0.000000 -0.000000
  18 -0.000000 0.219037 0.000000 -0.080084 -0.010716 0.002552
  19 0.000000 0.258105 0.000000 -0.213243 -0.031691 -0.011822
  20 -0.000000 0.321328 0.000000 -1.427929 -2.844062 -0.050159
  21 -0.000000 0.321328 0.000000 -1.427619 2.837134 0.035176
  22 0.277175 0.503717 0.031438 -0.080800 -0.000000 -1.570796
  23 -0.002728 0.000960 -0.000286 -0.303440 -0.000000 0.931209
  24 -0.447522 0.269793 0.037448 0.000000 -0.000000 1.570796
  25 0.000000 0.000000 0.000000 -0.260036 -0.014702 -0.926977
  26 -0.433330 -0.379676 0.037448 0.000000 -0.000000 1.570796
  27 0.000000 0.000000 0.000000 -0.260036 0.014702 0.926977
  28 0.238273 -0.472380 0.021662 -0.019755 -0.062089 -1.584768
  29 -0.000047 -0.000194 -0.000158 -0.303440 0.000000 -0.931209
  time 20
  0 -0.204511 0.033314 -0.090421 1.783476 -0.045746 1.625764
  1 -0.000000 0.321328 -0.000000 -1.253788 -0.891792 -0.261188
  2 0.000000 0.374527 -0.000000 -0.435061 0.095190 0.111915
  3 -0.000000 0.120617 0.000000 -1.470524 -0.081975 -0.295474
  4 0.000000 0.150692 -0.000000 -0.426950 -0.015369 -0.083347
  5 -0.000000 0.321328 -0.000000 -1.238737 0.881709 0.286536
  6 -0.000000 0.369236 0.000000 -0.183800 0.001286 -0.149487
  7 -0.000000 0.116096 0.000000 -0.936715 0.113363 0.393623
  8 -0.000000 0.156429 -0.000000 -0.989576 0.163601 0.263503
  9 -0.000000 0.321328 -0.000000 -1.307232 -2.226397 -0.175260
  10 -0.000000 0.402466 -0.000000 0.040612 0.521752 0.420915
  11 0.000000 0.184148 -0.000000 -0.093344 -0.433993 -0.758040
  12 0.000000 0.111309 -0.000000 -1.094107 -0.437590 -0.587871
  13 -0.000000 0.321328 -0.000000 -1.309298 2.233955 0.156546
  14 0.000000 0.402466 -0.000000 0.538058 -0.538264 -0.829982
  15 0.000000 0.186936 0.000000 -0.611851 0.497485 0.832310
  16 -0.000000 0.116940 0.000000 -0.902308 0.228136 0.423639
  17 -0.000000 0.321328 -0.000000 -0.000000 0.000000 -0.000000
  18 -0.000000 0.219037 -0.000000 -0.086282 -0.008030 0.001938
  19 -0.000000 0.258105 -0.000000 -0.243951 -0.023891 -0.008497
  20 -0.000000 0.321328 -0.000000 -1.427928 -2.844062 -0.050159
  21 -0.000000 0.321328 -0.000000 -1.427618 2.837134 0.035176
  22 0.240960 0.503717 0.031438 -0.080800 -0.000000 -1.570796
  23 -0.002728 0.000960 -0.000286 -0.303440 -0.000000 0.931209
  24 -0.447522 0.269793 0.037448 0.000000 -0.000000 1.570796
  25 0.000000 0.000000 0.000000 -0.260036 -0.014702 -0.926977
  26 -0.433330 -0.379676 0.037448 0.000000 -0.000000 1.570796
  27 0.000000 0.000000 0.000000 -0.260036 0.014702 0.926977
  28 0.210611 -0.477475 0.024074 -0.035121 -0.046640 -1.580914
  29 -0.000047 -0.000194 -0.000158 -0.303440 0.000000 -0.931209
  time 21
  0 -0.210262 0.022210 -0.088514 1.772227 -0.044667 1.625362
  1 0.000000 0.321328 -0.000000 -1.253787 -0.891792 -0.261188
  2 0.000000 0.374527 0.000000 -0.404216 0.076819 0.103791
  3 0.000000 0.120617 0.000000 -1.480679 -0.105547 -0.303067
  4 0.000000 0.150692 0.000000 -0.442840 -0.020252 -0.098896
  5 0.000000 0.321328 -0.000000 -1.238737 0.881709 0.286536
  6 0.000000 0.369236 -0.000000 -0.191517 -0.000725 -0.148720
  7 0.000000 0.116096 0.000000 -0.963512 0.121295 0.395604
  8 -0.000000 0.156429 -0.000000 -1.015389 0.170352 0.266175
  9 0.000000 0.321328 -0.000000 -1.307232 -2.226397 -0.175260
  10 -0.000000 0.402466 0.000000 0.063074 0.563578 0.462057
  11 -0.000000 0.184148 -0.000000 -0.142759 -0.419745 -0.724134
  12 -0.000000 0.111309 0.000000 -1.144435 -0.429391 -0.564268
  13 0.000000 0.321328 -0.000000 -1.309298 2.233955 0.156545
  14 0.000000 0.402466 -0.000000 0.535029 -0.569702 -0.834036
  15 -0.000000 0.186935 -0.000000 -0.650078 0.492709 0.823766
  16 -0.000000 0.116940 -0.000000 -0.932634 0.227784 0.414867
  17 0.000000 0.321328 -0.000000 -0.000000 -0.000000 0.000000
  18 0.000000 0.219037 -0.000000 -0.092480 -0.005349 0.001309
  19 0.000000 0.258105 0.000000 -0.274595 -0.016002 -0.005417
  20 0.000000 0.321328 -0.000000 -1.427928 -2.844062 -0.050159
  21 0.000000 0.321328 -0.000000 -1.427619 2.837134 0.035176
  22 0.204744 0.503717 0.031438 -0.080800 -0.000000 -1.570796
  23 -0.002728 0.000960 -0.000286 -0.303440 -0.000000 0.931209
  24 -0.447522 0.269793 0.037448 0.000000 -0.000000 1.570796
  25 0.000000 0.000000 0.000000 -0.260036 -0.014702 -0.926977
  26 -0.433330 -0.379676 0.037448 0.000000 -0.000000 1.570796
  27 0.000000 0.000000 0.000000 -0.260036 0.014702 0.926977
  28 0.182948 -0.482569 0.026486 -0.050415 -0.031137 -1.577302
  29 -0.000047 -0.000194 -0.000158 -0.303440 0.000000 -0.931209
  time 22
  0 -0.216012 0.011105 -0.086608 1.760980 -0.043593 1.624948
  1 -0.000000 0.321328 -0.000000 -1.253788 -0.891792 -0.261188
  2 -0.000000 0.374527 -0.000000 -0.376643 0.058380 0.095856
  3 -0.000000 0.120617 -0.000000 -1.487040 -0.128504 -0.310908
  4 0.000000 0.150692 0.000000 -0.455229 -0.025104 -0.114357
  5 -0.000000 0.321328 -0.000000 -1.238737 0.881709 0.286536
  6 -0.000000 0.369236 0.000000 -0.203606 -0.002777 -0.146883
  7 -0.000000 0.116096 -0.000000 -0.988806 0.128307 0.396957
  8 -0.000000 0.156429 0.000000 -1.037588 0.175980 0.267985
  9 -0.000000 0.321328 -0.000000 -1.307232 -2.226397 -0.175260
  10 -0.000000 0.402466 -0.000000 0.078797 0.606832 0.494464
  11 0.000000 0.184148 0.000000 -0.189821 -0.400879 -0.685444
  12 0.000000 0.111309 -0.000000 -1.187194 -0.412385 -0.536591
  13 -0.000000 0.321328 -0.000000 -1.309298 2.233955 0.156546
  14 0.000000 0.402466 -0.000000 0.525290 -0.603600 -0.834658
  15 -0.000000 0.186935 0.000000 -0.686348 0.485237 0.815265
  16 0.000000 0.116940 -0.000000 -0.959142 0.224772 0.404928
  17 -0.000000 0.321328 -0.000000 -0.000000 -0.000000 0.000000
  18 0.000000 0.219037 -0.000000 -0.098678 -0.002673 0.000663
  19 0.000000 0.258105 -0.000000 -0.305167 -0.008034 -0.002583
  20 -0.000000 0.321328 -0.000000 -1.427928 -2.844061 -0.050159
  21 -0.000000 0.321328 -0.000000 -1.427618 2.837134 0.035176
  22 0.168528 0.503717 0.031438 -0.080800 -0.000000 -1.570796
  23 -0.002728 0.000960 -0.000286 -0.303440 -0.000000 0.931209
  24 -0.447522 0.269793 0.037448 0.000000 -0.000000 1.570796
  25 0.000000 0.000000 0.000000 -0.260036 -0.014702 -0.926977
  26 -0.433330 -0.379676 0.037448 0.000000 -0.000000 1.570796
  27 0.000000 0.000000 0.000000 -0.260036 0.014702 0.926977
  28 0.155286 -0.487664 0.028898 -0.065640 -0.015587 -1.573929
  29 -0.000047 -0.000194 -0.000158 -0.303440 0.000000 -0.931209
  time 23
  0 -0.221763 0.000000 -0.084701 1.749735 -0.042524 1.624522
  1 0.000000 0.321328 -0.000000 -1.253788 -0.891792 -0.261188
  2 0.000000 0.374527 0.000000 -0.352404 0.039862 0.087968
  3 0.000000 0.120617 0.000000 -1.489681 -0.150722 -0.319028
  4 0.000000 0.150692 -0.000000 -0.464085 -0.029803 -0.129570
  5 0.000000 0.321328 -0.000000 -1.238737 0.881709 0.286536
  6 0.000000 0.369236 0.000000 -0.219830 -0.004861 -0.144086
  7 -0.000000 0.116096 -0.000000 -1.012832 0.134483 0.397843
  8 -0.000000 0.156429 -0.000000 -1.055914 0.180371 0.268974
  9 0.000000 0.321328 -0.000000 -1.307232 -2.226397 -0.175260
  10 0.000000 0.402466 -0.000000 0.085190 0.650818 0.518889
  11 -0.000000 0.184148 -0.000000 -0.231958 -0.377239 -0.644273
  12 0.000000 0.111309 -0.000000 -1.219849 -0.387284 -0.507210
  13 0.000000 0.321328 -0.000000 -1.309298 2.233955 0.156546
  14 -0.000000 0.402465 0.000000 0.508307 -0.639082 -0.832119
  15 0.000000 0.186935 -0.000000 -0.720129 0.475099 0.807933
  16 -0.000000 0.116940 -0.000000 -0.981341 0.218887 0.394159
  17 0.000000 0.321328 -0.000000 -0.000000 0.000000 0.000000
  18 0.000000 0.219037 -0.000000 -0.104877 -0.000000 0.000000
  19 0.000000 0.258105 0.000000 -0.335653 0.000000 0.000000
  20 0.000000 0.321328 -0.000000 -1.427928 -2.844062 -0.050159
  21 0.000000 0.321328 -0.000000 -1.427619 2.837134 0.035176
  22 0.132312 0.503717 0.031438 -0.080800 -0.000000 -1.570796
  23 -0.002728 0.000960 -0.000286 -0.303440 -0.000000 0.931209
  24 -0.447522 0.269793 0.037448 0.000000 -0.000000 1.570796
  25 0.000000 0.000000 0.000000 -0.260036 -0.014702 -0.926977
  26 -0.433330 -0.379676 0.037448 0.000000 -0.000000 1.570796
  27 0.000000 0.000000 0.000000 -0.260036 0.014702 0.926977
  28 0.127623 -0.492758 0.031310 -0.080800 -0.000000 -1.570796
  29 -0.000047 -0.000194 -0.000158 -0.303440 0.000000 -0.931209
  time 24
  0 -0.198027 0.000000 -0.031835 1.749735 -0.042524 1.624522
  1 0.000000 0.321328 -0.000000 -1.253788 -0.891792 -0.261188
  2 0.000000 0.374527 -0.000000 -0.760512 0.039031 0.052295
  3 0.000000 0.120617 -0.000000 -1.114206 -0.008238 -0.270369
  4 0.000000 0.150692 0.000000 -0.153122 0.000040 -0.026384
  5 0.000000 0.321328 -0.000000 -1.238737 0.881709 0.286536
  6 0.000000 0.369236 -0.000000 -0.529497 -0.019315 -0.090928
  7 -0.000000 0.116096 0.000000 -0.823356 0.018642 0.325295
  8 0.000000 0.156429 0.000000 -0.675966 0.065846 0.164512
  9 0.000000 0.321328 -0.000000 -1.307232 -2.226397 -0.175260
  10 -0.000000 0.402466 -0.000000 -0.190313 0.646116 0.284198
  11 0.000000 0.184148 -0.000000 -0.192106 -0.346964 -0.587601
  12 0.000000 0.111309 -0.000000 -1.065025 -0.285526 -0.456515
  13 0.000000 0.321328 -0.000000 -1.309298 2.233955 0.156546
  14 -0.000000 0.402466 0.000000 0.195041 -0.698544 -0.589348
  15 -0.000000 0.186935 -0.000000 -0.659946 0.439282 0.751861
  16 -0.000000 0.116940 -0.000000 -0.831531 0.153743 0.334212
  17 0.000000 0.321328 -0.000000 -0.000000 0.000000 0.000000
  18 0.000000 0.219037 -0.000000 -0.126599 0.000686 -0.001322
  19 0.000000 0.258105 -0.000000 -0.440150 0.003701 -0.006137
  20 0.000000 0.321328 -0.000000 -1.427928 -2.844062 -0.050159
  21 0.000000 0.321328 -0.000000 -1.427619 2.837134 0.035176
  22 0.175686 0.503717 0.027128 0.217322 -0.000000 -1.570796
  23 -0.002728 0.000960 -0.000286 -0.303440 -0.000000 0.931209
  24 -0.467692 0.269793 0.029998 0.129450 -0.000000 1.570796
  25 0.000000 0.000000 0.000000 -0.260036 -0.014702 -0.926977
  26 -0.453619 -0.379676 0.028166 0.129450 -0.000000 1.570796
  27 0.000000 0.000000 0.000000 -0.260036 0.014702 0.926977
  28 0.171241 -0.492758 0.025629 0.217322 -0.000000 -1.570796
  29 -0.000047 -0.000194 -0.000158 -0.303440 0.000000 -0.931209
end
