version 1
nodes
0 "Root" -1
1 "InnerBack.L" 0
2 "UpperBack.L" 1
3 "LowerBack.L" 2
4 "LowerBack.L.001" 3
5 "InnerBack.R" 0
6 "UpperBack.R" 5
7 "LowerBack.R" 6
8 "LowerBack.R.001" 7
9 "InnerFront.L" 0
10 "UpperFront.L" 9
11 "LowerFront.L" 10
12 "LowerFront.L.001" 11
13 "InnerFront.R" 0
14 "UpperFront.R" 13
15 "LowerFront.R" 14
16 "LowerFront.R.001" 15
17 "Root.001" 0
18 "Root.002" 17
19 "Root.003" 18
20 "Flap.L" 0
21 "Flap.R" 0
22 "TargetFront.L" -1
23 "HandFront.L" 22
24 "TargetBack.L" -1
25 "HandBack.L" 24
26 "TargetBack.R" -1
27 "HandBack.R" 26
28 "TargetFront.R" -1
29 "HandFront.R" 28
end
skeleton
  time 0
  0 -0.174291 0.000000 0.021031 1.749735 -0.042524 1.624522
  1 0.000000 0.321328 -0.000000 -1.253788 -0.891792 -0.261188
  2 0.000000 0.374527 -0.000000 -1.447439 -0.025581 0.014293
  3 -0.000000 0.120617 0.000000 -0.325093 0.146321 -0.093475
  4 -0.000000 0.150692 0.000000 0.118744 0.001094 0.039165
  5 0.000000 0.321328 -0.000000 -1.238737 0.881709 0.286536
  6 -0.000000 0.369236 0.000000 -0.945435 0.025691 -0.024812
  7 -0.000000 0.116096 0.000000 -0.529760 -0.080411 0.223065
  8 -0.000000 0.156429 0.000000 -0.234643 0.004053 0.040408
  9 0.000000 0.321328 -0.000000 -1.307232 -2.226397 -0.175260
  10 -0.000000 0.402466 -0.000000 -0.443733 0.646308 0.109405
  11 0.000000 0.184148 -0.000000 -0.188913 -0.298606 -0.508047
  12 0.000000 0.111309 -0.000000 -0.955313 -0.188366 -0.384741
  13 0.000000 0.321328 -0.000000 -1.309298 2.233955 0.156546
  14 -0.000000 0.402466 -0.000000 -0.120376 -0.748379 -0.375299
  15 -0.000000 0.186935 0.000000 -0.633738 0.371301 0.674815
  16 -0.000000 0.116940 -0.000000 -0.716418 0.087139 0.252703
  17 0.000000 0.321328 -0.000000 -0.000000 0.000000 0.000000
  18 0.000000 0.219037 -0.000000 -0.148323 0.001345 -0.002660
  19 0.000000 0.258105 0.000000 -0.544669 0.006741 -0.012626
  20 0.000000 0.321328 -0.000000 -1.427928 -2.844062 -0.050159
  21 0.000000 0.321328 -0.000000 -1.427619 2.837134 0.035176
  22 0.175686 0.503717 0.027128 0.217322 -0.000000 -1.570796
  23 -0.002728 0.000960 -0.000286 -0.303440 -0.000000 0.931209
  24 -0.467692 0.269793 0.029998 0.129450 -0.000000 1.570796
  25 0.000000 0.000000 0.000000 -0.260036 -0.014702 -0.926977
  26 -0.453619 -0.379676 0.028166 0.129450 -0.000000 1.570796
  27 0.000000 0.000000 0.000000 -0.260036 0.014702 0.926977
  28 0.171241 -0.492758 0.025629 0.217322 -0.000000 -1.570796
  29 -0.000047 -0.000194 -0.000158 -0.303440 0.000000 -0.931209
  time 1
  0 -0.164581 0.000000 0.063108 1.749735 -0.042524 1.624522
  1 0.000000 0.321328 -0.000000 -1.253788 -0.891792 -0.261188
  2 0.000000 0.374527 -0.000000 -0.824515 0.073573 0.077761
  3 -0.000000 0.120617 0.000000 -0.988749 0.050151 -0.234282
  4 0.000000 0.150692 -0.000000 -0.080497 0.003271 0.004158
  5 0.000000 0.321328 -0.000000 -1.238737 0.881709 0.286536
  6 0.000000 0.369236 -0.000000 -0.585270 -0.050741 -0.108138
  7 -0.000000 0.116096 0.000000 -0.748499 -0.034372 0.278209
  8 -0.000000 0.156429 0.000000 -0.571609 0.036840 0.120003
  9 0.000000 0.321328 -0.000000 -1.307232 -2.226397 -0.175260
  10 -0.000000 0.402466 -0.000000 -0.056517 0.580471 0.358769
  11 -0.000000 0.184148 0.000000 -0.121026 -0.382521 -0.653094
  12 0.000000 0.111309 0.000000 -1.051794 -0.339604 -0.510804
  13 0.000000 0.321328 -0.000000 -1.309298 2.233955 0.156546
  14 -0.000000 0.402465 -0.000000 0.415637 -0.598948 -0.775585
  15 -0.000000 0.186935 0.000000 -0.575587 0.467429 0.784169
  16 -0.000000 0.116940 -0.000000 -0.860806 0.177191 0.413714
  17 0.000000 0.321328 -0.000000 -0.000000 0.000000 0.000000
  18 0.000000 0.219037 -0.000000 -0.152626 0.001472 -0.002926
  19 -0.000000 0.258105 -0.000000 -0.704450 0.010037 -0.023063
  20 0.000000 0.321328 -0.000000 -1.427928 -2.844062 -0.050159
  21 0.000000 0.321328 -0.000000 -1.427619 2.837134 0.035176
  22 0.259264 0.505582 0.159711 0.217322 -0.000000 -1.570796
  23 -0.002728 0.000960 -0.000286 -0.303440 -0.000000 0.931209
  24 -0.475245 0.269793 0.121705 0.129450 -0.000000 1.570796
  25 0.000000 0.000000 0.000000 -0.260036 -0.014702 -0.926977
  26 -0.461171 -0.379676 0.119872 0.129450 -0.000000 1.570796
  27 0.000000 0.000000 0.000000 -0.260036 0.014702 0.926977
  28 0.241038 -0.524059 0.167388 0.217322 -0.000000 -1.570796
  29 -0.000047 -0.000194 -0.000158 -0.303440 0.000000 -0.931209
  time 2
  0 -0.154871 0.000000 0.105185 1.749735 -0.042524 1.624522
  1 0.000000 0.321328 -0.000000 -1.253788 -0.891792 -0.261188
  2 0.000000 0.374527 -0.000000 -0.452208 0.123453 0.140762
  3 -0.000000 0.120617 -0.000000 -1.256237 0.007738 -0.254531
  4 0.000000 0.150692 0.000000 -0.286478 -0.001559 -0.027590
  5 0.000000 0.321328 -0.000000 -1.238737 0.881709 0.286536
  6 -0.000000 0.369236 -0.000000 -0.319696 -0.093360 -0.175143
  7 -0.000000 0.116096 0.000000 -0.863929 -0.018937 0.283374
  8 -0.000000 0.156429 -0.000000 -0.819625 0.069677 0.154828
  9 0.000000 0.321328 -0.000000 -1.307232 -2.226397 -0.175260
  10 0.000000 0.402466 0.000000 0.148451 0.433483 0.482969
  11 -0.000000 0.184148 -0.000000 0.037189 -0.433762 -0.762352
  12 0.000000 0.111309 -0.000000 -0.989892 -0.422093 -0.609553
  13 0.000000 0.321328 -0.000000 -1.309298 2.233955 0.156546
  14 -0.000000 0.402465 0.000000 0.625798 -0.369712 -0.993513
  15 -0.000000 0.186935 0.000000 -0.349307 0.522942 0.865147
  16 -0.000000 0.116940 -0.000000 -0.852671 0.215590 0.587093
  17 0.000000 0.321328 -0.000000 -0.000000 0.000000 0.000000
  18 0.000000 0.219037 -0.000000 -0.156928 0.001597 -0.003193
  19 -0.000000 0.258105 -0.000000 -0.600132 0.008074 -0.016187
  20 0.000000 0.321328 -0.000000 -1.427928 -2.844062 -0.050159
  21 0.000000 0.321328 -0.000000 -1.427619 2.837134 0.035176
  22 0.342842 0.507447 0.292293 0.217322 -0.000000 -1.570796
  23 -0.002728 0.000960 -0.000286 -0.303440 -0.000000 0.931209
  24 -0.482797 0.269793 0.213411 0.129450 -0.000000 1.570796
  25 0.000000 0.000000 0.000000 -0.260036 -0.014702 -0.926977
  26 -0.468723 -0.379676 0.211579 0.129450 -0.000000 1.570796
  27 0.000000 0.000000 0.000000 -0.260036 0.014702 0.926977
  28 0.310834 -0.555360 0.309147 0.217322 -0.000000 -1.570796
  29 -0.000047 -0.000194 -0.000158 -0.303440 0.000000 -0.931209
  time 3
  0 -0.153468 0.000000 0.119103 1.749735 -0.042524 1.624522
  1 0.000000 0.321328 -0.000000 -1.253788 -0.891792 -0.261188
  2 0.000000 0.374527 0.000000 -0.225799 0.138203 0.169300
  3 -0.000000 0.120617 0.000000 -1.405842 -0.020122 -0.257760
  4 0.000000 0.150692 0.000000 -0.433839 -0.009411 -0.047948
  5 0.000000 0.321328 -0.000000 -1.238737 0.881709 0.286536
  6 0.000000 0.369236 0.000000 -0.154471 -0.105448 -0.207104
  7 -0.000000 0.116096 0.000000 -0.932926 -0.005853 0.287015
  8 -0.000000 0.156429 0.000000 -0.987431 0.097358 0.173467
  9 0.000000 0.321328 -0.000000 -1.307232 -2.226397 -0.175260
  10 0.000000 0.402466 -0.000000 0.238226 0.388700 0.563024
  11 -0.000000 0.184148 -0.000000 0.061714 -0.454624 -0.792323
  12 0.000000 0.111309 -0.000000 -1.008210 -0.465939 -0.642630
  13 0.000000 0.321328 -0.000000 -1.309298 2.233955 0.156546
  14 -0.000000 0.402466 -0.000000 0.665173 -0.328681 -1.084515
  15 -0.000000 0.186935 0.000000 -0.259320 0.581458 0.857306
  16 0.000000 0.116940 -0.000000 -0.899905 0.236345 0.693057
  17 0.000000 0.321328 -0.000000 -0.000000 0.000000 0.000000
  18 0.000000 0.219037 -0.000000 -0.161231 0.001722 -0.003461
  19 0.000000 0.258105 -0.000000 -0.495545 0.005396 -0.009536
  20 0.000000 0.321328 -0.000000 -1.427928 -2.844062 -0.050159
  21 0.000000 0.321328 -0.000000 -1.427619 2.837134 0.035176
  22 0.344245 0.507447 0.338793 0.217322 -0.000000 -1.570796
  23 -0.002728 0.000960 -0.000286 -0.303440 -0.000000 0.931209
  24 -0.481394 0.269793 0.259912 0.129450 -0.000000 1.570796
  25 0.000000 0.000000 0.000000 -0.260036 -0.014702 -0.926977
  26 -0.467321 -0.379676 0.258080 0.129450 -0.000000 1.570796
  27 0.000000 0.000000 0.000000 -0.260036 0.014702 0.926977
  28 0.312237 -0.555360 0.355648 0.217322 -0.000000 -1.570796
  29 -0.000047 -0.000194 -0.000158 -0.303440 0.000000 -0.931209
  time 4
  0 -0.152066 0.000000 0.133021 1.749735 -0.042524 1.624522
  1 0.000000 0.321328 -0.000000 -1.253788 -0.891792 -0.261188
  2 0.000000 0.374527 0.000000 -0.012363 0.150219 0.190599
  3 0.000000 0.120617 -0.000000 -1.525715 -0.037222 -0.252020
  4 0.000000 0.150692 -0.000000 -0.579670 -0.018709 -0.060790
  5 0.000000 0.321328 -0.000000 -1.238737 0.881709 0.286536
  6 -0.000000 0.369236 0.000000 -0.001226 -0.114972 -0.235769
  7 -0.000000 0.116096 0.000000 -0.985125 -0.000401 0.284909
  8 -0.000000 0.156429 -0.000000 -1.142568 0.122289 0.182614
  9 0.000000 0.321328 -0.000000 -1.307232 -2.226397 -0.175260
  10 0.000000 0.402466 0.000000 0.319510 0.337403 0.633001
  11 -0.000000 0.184148 0.000000 0.089120 -0.475359 -0.816007
  12 0.000000 0.111309 -0.000000 -1.018288 -0.504811 -0.671168
  13 0.000000 0.321328 -0.000000 -1.309298 2.233955 0.156546
  14 -0.000000 0.402466 -0.000000 0.709593 -0.292892 -1.159484
  15 0.000000 0.186935 0.000000 -0.195065 0.647249 0.832393
  16 -0.000000 0.116940 -0.000000 -0.931920 0.267563 0.771159
  17 0.000000 0.321328 -0.000000 -0.000000 0.000000 0.000000
  18 0.000000 0.219037 -0.000000 -0.165534 0.001845 -0.003729
  19 -0.000000 0.258105 -0.000000 -0.391266 0.002050 -0.003218
  20 0.000000 0.321328 -0.000000 -1.427928 -2.844062 -0.050159
  21 0.000000 0.321328 -0.000000 -1.427619 2.837134 0.035176
  22 0.345647 0.507447 0.385294 0.217322 -0.000000 -1.570796
  23 -0.002728 0.000960 -0.000286 -0.303440 -0.000000 0.931209
  24 -0.479992 0.269793 0.306412 0.129450 -0.000000 1.570796
  25 0.000000 0.000000 0.000000 -0.260036 -0.014702 -0.926977
  26 -0.465918 -0.379676 0.304580 0.129450 -0.000000 1.570796
  27 0.000000 0.000000 0.000000 -0.260036 0.014702 0.926977
  28 0.313640 -0.555360 0.402149 0.217322 -0.000000 -1.570796
  29 -0.000047 -0.000194 -0.000158 -0.303440 0.000000 -0.931209
  time 5
  0 -0.152066 0.000000 0.133021 1.749735 -0.042524 1.624522
  1 0.000000 0.321328 -0.000000 -1.253788 -0.891792 -0.261188
  2 0.000000 0.374527 0.000000 -0.495798 0.234098 0.267151
  3 0.000000 0.120617 0.000000 -0.906249 0.168411 -0.135959
  4 0.000000 0.150692 0.000000 -0.075719 0.007319 0.062073
  5 0.000000 0.321328 -0.000000 -1.238737 0.881709 0.286536
  6 -0.000000 0.369236 0.000000 -0.342799 -0.199699 -0.285825
  7 -0.000000 0.116096 0.000000 -0.629799 -0.161841 0.127306
  8 -0.000000 0.156429 0.000000 -0.548528 -0.006016 0.031868
  9 0.000000 0.321328 -0.000000 -1.307232 -2.226397 -0.175260
  10 0.000000 0.402466 0.000000 -0.839373 1.100814 0.236188
  11 0.000000 0.184148 0.000000 -0.559876 -0.020088 -0.615826
  12 0.000000 0.111309 0.000000 -1.288953 -0.023041 -0.380440
  13 0.000000 0.321328 -0.000000 -1.309298 2.233955 0.156546
  14 -0.000000 0.402466 -0.000000 -0.470195 -1.273887 -0.814311
  15 -0.000000 0.186935 0.000000 -0.612756 0.016733 0.508786
  16 -0.000000 0.116940 0.000000 -0.983920 -0.296394 0.380898
  17 0.000000 0.321328 -0.000000 -0.000000 0.000000 0.000000
  18 0.000000 0.219037 -0.000000 -0.169837 0.001968 -0.003998
  19 0.000000 0.258105 0.000000 -0.855737 0.011590 -0.033309
  20 0.000000 0.321328 -0.000000 -1.427928 -2.844062 -0.050159
  21 0.000000 0.321328 -0.000000 -1.427619 2.837134 0.035176
  22 -0.141133 0.367356 0.296701 -2.501687 -0.690841 -1.073158
  23 -0.002728 0.000960 -0.000286 -0.303440 -0.000000 0.931209
  24 -0.619817 0.269793 0.296055 0.129450 -0.000000 1.570796
  25 0.000000 0.000000 0.000000 -0.260036 -0.014702 -0.926977
  26 -0.601248 -0.379676 0.302494 0.126045 0.000000 1.570796
  27 0.000000 0.000000 0.000000 -0.260036 0.014702 0.926977
  28 -0.178276 -0.407610 0.299631 -1.395671 0.045574 -2.299193
  29 -0.000047 -0.000194 -0.000158 -0.303440 -0.000000 -0.931209
end
