version 1
nodes
0 "root" -1
end
skeleton
time 0
0 0 0 0 0 0 0
end
triangles
wswamp2_1
0 1744.0000 96.0000 -32.0000 1.0000 -0.0000 0.0000 1.500000 -0.500000
0 1744.0000 160.0000 -160.0000 1.0000 -0.0000 0.0000 2.500000 -2.500000
0 1744.0000 160.0000 -32.0000 1.0000 -0.0000 0.0000 2.500000 -0.500000
wswamp2_1
0 1744.0000 96.0000 -32.0000 1.0000 0.0000 0.0000 1.500000 -0.500000
0 1744.0000 96.0000 -160.0000 1.0000 0.0000 0.0000 1.500000 -2.500000
0 1744.0000 160.0000 -160.0000 1.0000 0.0000 0.0000 2.500000 -2.500000
wswamp2_1
0 1744.0000 160.0000 -160.0000 0.0000 -1.0000 0.0000 27.250000 -2.500000
0 1752.0000 160.0000 -32.0000 0.0000 -1.0000 0.0000 27.375000 -0.500000
0 1744.0000 160.0000 -32.0000 0.0000 -1.0000 0.0000 27.250000 -0.500000
wswamp2_1
0 1744.0000 160.0000 -160.0000 0.0000 -1.0000 0.0000 27.250000 -2.500000
0 1752.0000 160.0000 -160.0000 0.0000 -1.0000 0.0000 27.375000 -2.500000
0 1752.0000 160.0000 -32.0000 0.0000 -1.0000 0.0000 27.375000 -0.500000
wswamp2_1
0 1752.0000 160.0000 -160.0000 -1.0000 0.0000 0.0000 2.500000 -2.500000
0 1752.0000 96.0000 -32.0000 -1.0000 0.0000 0.0000 1.500000 -0.500000
0 1752.0000 160.0000 -32.0000 -1.0000 0.0000 0.0000 2.500000 -0.500000
wswamp2_1
0 1752.0000 160.0000 -160.0000 -1.0000 0.0000 0.0000 2.500000 -2.500000
0 1752.0000 96.0000 -160.0000 -1.0000 0.0000 0.0000 1.500000 -2.500000
0 1752.0000 96.0000 -32.0000 -1.0000 0.0000 0.0000 1.500000 -0.500000
wswamp2_1
0 1752.0000 96.0000 -32.0000 0.0000 1.0000 0.0000 27.375000 -0.500000
0 1744.0000 96.0000 -160.0000 0.0000 1.0000 0.0000 27.250000 -2.500000
0 1744.0000 96.0000 -32.0000 0.0000 1.0000 0.0000 27.250000 -0.500000
wswamp2_1
0 1752.0000 96.0000 -32.0000 0.0000 1.0000 0.0000 27.375000 -0.500000
0 1752.0000 96.0000 -160.0000 0.0000 1.0000 0.0000 27.375000 -2.500000
0 1744.0000 96.0000 -160.0000 0.0000 1.0000 0.0000 27.250000 -2.500000
wswamp2_1
0 1752.0000 160.0000 -32.0000 -0.0000 0.0000 -1.0000 27.375000 2.500000
0 1744.0000 96.0000 -32.0000 -0.0000 0.0000 -1.0000 27.250000 1.500000
0 1744.0000 160.0000 -32.0000 -0.0000 0.0000 -1.0000 27.250000 2.500000
wswamp2_1
0 1752.0000 160.0000 -32.0000 0.0000 -0.0000 -1.0000 27.375000 2.500000
0 1752.0000 96.0000 -32.0000 0.0000 -0.0000 -1.0000 27.375000 1.500000
0 1744.0000 96.0000 -32.0000 0.0000 -0.0000 -1.0000 27.250000 1.500000
wswamp2_1
0 1744.0000 96.0000 -160.0000 0.0000 0.0000 1.0000 27.250000 1.500000
0 1752.0000 160.0000 -160.0000 0.0000 0.0000 1.0000 27.375000 2.500000
0 1744.0000 160.0000 -160.0000 0.0000 0.0000 1.0000 27.250000 2.500000
wswamp2_1
0 1744.0000 96.0000 -160.0000 0.0000 0.0000 1.0000 27.250000 1.500000
0 1752.0000 96.0000 -160.0000 0.0000 0.0000 1.0000 27.375000 1.500000
0 1752.0000 160.0000 -160.0000 0.0000 0.0000 1.0000 27.375000 2.500000
end
