version 1
nodes
0 "root" -1
end
skeleton
time 0
0 0 0 0 0 0 0
end
triangles
wizmet1_2
0 16.0000 -252.0000 -132.0000 0.0000 0.0000 -1.0000 0.250000 -3.937500
0 48.0000 -256.0000 -132.0000 0.0000 0.0000 -1.0000 0.750000 -4.000000
0 16.0000 -256.0000 -132.0000 0.0000 0.0000 -1.0000 0.250000 -4.000000
wizmet1_2
0 16.0000 -252.0000 -132.0000 0.0000 0.0000 -1.0000 0.250000 -3.937500
0 48.0000 -252.0000 -132.0000 0.0000 0.0000 -1.0000 0.750000 -3.937500
0 48.0000 -256.0000 -132.0000 0.0000 0.0000 -1.0000 0.750000 -4.000000
wizmet1_2
0 48.0000 -256.0000 -132.0000 0.0000 1.0000 0.0000 0.750000 -2.062500
0 16.0000 -256.0000 -164.0000 0.0000 1.0000 0.0000 0.250000 -2.562500
0 16.0000 -256.0000 -132.0000 0.0000 1.0000 0.0000 0.250000 -2.062500
wizmet1_2
0 48.0000 -256.0000 -132.0000 0.0000 1.0000 0.0000 0.750000 -2.062500
0 48.0000 -256.0000 -164.0000 0.0000 1.0000 0.0000 0.750000 -2.562500
0 16.0000 -256.0000 -164.0000 0.0000 1.0000 0.0000 0.250000 -2.562500
wizmet1_2
0 48.0000 -252.0000 -164.0000 0.0000 0.0000 1.0000 0.750000 -3.937500
0 16.0000 -256.0000 -164.0000 0.0000 0.0000 1.0000 0.250000 -4.000000
0 48.0000 -256.0000 -164.0000 0.0000 0.0000 1.0000 0.750000 -4.000000
wizmet1_2
0 48.0000 -252.0000 -164.0000 0.0000 0.0000 1.0000 0.750000 -3.937500
0 16.0000 -252.0000 -164.0000 0.0000 0.0000 1.0000 0.250000 -3.937500
0 16.0000 -256.0000 -164.0000 0.0000 0.0000 1.0000 0.250000 -4.000000
wizmet1_2
0 16.0000 -252.0000 -164.0000 1.0000 0.0000 0.0000 -3.937500 -2.562500
0 16.0000 -256.0000 -132.0000 1.0000 0.0000 0.0000 -4.000000 -2.062500
0 16.0000 -256.0000 -164.0000 1.0000 0.0000 0.0000 -4.000000 -2.562500
wizmet1_2
0 16.0000 -252.0000 -164.0000 1.0000 0.0000 -0.0000 -3.937500 -2.562500
0 16.0000 -252.0000 -132.0000 1.0000 0.0000 -0.0000 -3.937500 -2.062500
0 16.0000 -256.0000 -132.0000 1.0000 0.0000 -0.0000 -4.000000 -2.062500
wizmet1_2
0 48.0000 -252.0000 -132.0000 -1.0000 -0.0000 0.0000 -3.937500 -2.062500
0 48.0000 -256.0000 -164.0000 -1.0000 -0.0000 0.0000 -4.000000 -2.562500
0 48.0000 -256.0000 -132.0000 -1.0000 -0.0000 0.0000 -4.000000 -2.062500
wizmet1_2
0 48.0000 -252.0000 -132.0000 -1.0000 0.0000 -0.0000 -3.937500 -2.062500
0 48.0000 -252.0000 -164.0000 -1.0000 0.0000 -0.0000 -3.937500 -2.562500
0 48.0000 -256.0000 -164.0000 -1.0000 0.0000 -0.0000 -4.000000 -2.562500
wizmet1_2
0 32.0000 -228.0000 -148.0000 0.0000 -0.5547 -0.8321 0.500000 -3.562500
0 48.0000 -252.0000 -132.0000 0.0000 -0.5547 -0.8321 0.750000 -3.937500
0 16.0000 -252.0000 -132.0000 0.0000 -0.5547 -0.8321 0.250000 -3.937500
wizmet1_2
0 48.0000 -252.0000 -164.0000 0.0000 -0.5547 0.8321 0.750000 -3.937500
0 32.0000 -228.0000 -148.0000 0.0000 -0.5547 0.8321 0.500000 -3.562500
0 16.0000 -252.0000 -164.0000 0.0000 -0.5547 0.8321 0.250000 -3.937500
wizmet1_2
0 16.0000 -252.0000 -164.0000 0.8321 -0.5547 0.0000 -3.937500 -2.562500
0 32.0000 -228.0000 -148.0000 0.8321 -0.5547 0.0000 -3.562500 -2.312500
0 16.0000 -252.0000 -132.0000 0.8321 -0.5547 0.0000 -3.937500 -2.062500
wizmet1_2
0 32.0000 -228.0000 -148.0000 -0.8321 -0.5547 0.0000 -3.562500 -2.312500
0 48.0000 -252.0000 -164.0000 -0.8321 -0.5547 0.0000 -3.937500 -2.562500
0 48.0000 -252.0000 -132.0000 -0.8321 -0.5547 0.0000 -3.937500 -2.062500
wizmet1_2
0 16.0000 -360.0000 -132.0000 1.0000 -0.0000 0.0000 -5.625000 -2.062500
0 16.0000 -256.0000 -164.0000 1.0000 -0.0000 0.0000 -4.000000 -2.562500
0 16.0000 -256.0000 -132.0000 1.0000 -0.0000 0.0000 -4.000000 -2.062500
wizmet1_2
0 16.0000 -360.0000 -132.0000 1.0000 0.0000 0.0000 -5.625000 -2.062500
0 16.0000 -360.0000 -164.0000 1.0000 0.0000 0.0000 -5.625000 -2.562500
0 16.0000 -256.0000 -164.0000 1.0000 0.0000 0.0000 -4.000000 -2.562500
wizmet1_2
0 16.0000 -256.0000 -164.0000 0.0000 -1.0000 0.0000 0.250000 -2.562500
0 48.0000 -256.0000 -132.0000 0.0000 -1.0000 0.0000 0.750000 -2.062500
0 16.0000 -256.0000 -132.0000 0.0000 -1.0000 0.0000 0.250000 -2.062500
wizmet1_2
0 16.0000 -256.0000 -164.0000 0.0000 -1.0000 0.0000 0.250000 -2.562500
0 48.0000 -256.0000 -164.0000 0.0000 -1.0000 0.0000 0.750000 -2.562500
0 48.0000 -256.0000 -132.0000 0.0000 -1.0000 0.0000 0.750000 -2.062500
wizmet1_2
0 48.0000 -256.0000 -164.0000 -1.0000 0.0000 0.0000 -4.000000 -2.562500
0 48.0000 -360.0000 -132.0000 -1.0000 0.0000 0.0000 -5.625000 -2.062500
0 48.0000 -256.0000 -132.0000 -1.0000 0.0000 0.0000 -4.000000 -2.062500
wizmet1_2
0 48.0000 -256.0000 -164.0000 -1.0000 0.0000 0.0000 -4.000000 -2.562500
0 48.0000 -360.0000 -164.0000 -1.0000 0.0000 0.0000 -5.625000 -2.562500
0 48.0000 -360.0000 -132.0000 -1.0000 0.0000 0.0000 -5.625000 -2.062500
wizmet1_2
0 48.0000 -256.0000 -132.0000 -0.0000 0.0000 -1.0000 0.750000 -4.000000
0 16.0000 -360.0000 -132.0000 -0.0000 0.0000 -1.0000 0.250000 -5.625000
0 16.0000 -256.0000 -132.0000 -0.0000 0.0000 -1.0000 0.250000 -4.000000
wizmet1_2
0 48.0000 -256.0000 -132.0000 0.0000 -0.0000 -1.0000 0.750000 -4.000000
0 48.0000 -360.0000 -132.0000 0.0000 -0.0000 -1.0000 0.750000 -5.625000
0 16.0000 -360.0000 -132.0000 0.0000 -0.0000 -1.0000 0.250000 -5.625000
wizmet1_2
0 48.0000 -360.0000 -164.0000 0.0000 0.0000 1.0000 0.750000 -5.625000
0 16.0000 -256.0000 -164.0000 0.0000 0.0000 1.0000 0.250000 -4.000000
0 16.0000 -360.0000 -164.0000 0.0000 0.0000 1.0000 0.250000 -5.625000
wizmet1_2
0 48.0000 -360.0000 -164.0000 0.0000 -0.0000 1.0000 0.750000 -5.625000
0 48.0000 -256.0000 -164.0000 0.0000 -0.0000 1.0000 0.750000 -4.000000
0 16.0000 -256.0000 -164.0000 0.0000 -0.0000 1.0000 0.250000 -4.000000
wizmet1_2
0 32.0000 -384.0000 -148.0000 0.8321 0.5547 0.0000 -6.000000 -2.312500
0 16.0000 -360.0000 -164.0000 0.8321 0.5547 0.0000 -5.625000 -2.562500
0 16.0000 -360.0000 -132.0000 0.8321 0.5547 0.0000 -5.625000 -2.062500
wizmet1_2
0 48.0000 -360.0000 -164.0000 -0.8321 0.5547 0.0000 -5.625000 -2.562500
0 32.0000 -384.0000 -148.0000 -0.8321 0.5547 0.0000 -6.000000 -2.312500
0 48.0000 -360.0000 -132.0000 -0.8321 0.5547 0.0000 -5.625000 -2.062500
wizmet1_2
0 48.0000 -360.0000 -132.0000 0.0000 0.5547 -0.8321 0.750000 -5.625000
0 32.0000 -384.0000 -148.0000 0.0000 0.5547 -0.8321 0.500000 -6.000000
0 16.0000 -360.0000 -132.0000 0.0000 0.5547 -0.8321 0.250000 -5.625000
wizmet1_2
0 32.0000 -384.0000 -148.0000 0.0000 0.5547 0.8321 0.500000 -6.000000
0 48.0000 -360.0000 -164.0000 0.0000 0.5547 0.8321 0.750000 -5.625000
0 16.0000 -360.0000 -164.0000 0.0000 0.5547 0.8321 0.250000 -5.625000
end
