version 1
nodes
0 "root" -1
end
skeleton
time 0
0 0 0 0 0 0 0
end
triangles
xteleport
0 1092.0000 780.0000 640.0000 1.0000 -0.0000 0.0000 12.187500 10.000000
0 1092.0000 820.0000 556.0000 1.0000 -0.0000 0.0000 12.812500 8.687500
0 1092.0000 820.0000 640.0000 1.0000 -0.0000 0.0000 12.812500 10.000000
xteleport
0 1092.0000 780.0000 640.0000 1.0000 0.0000 0.0000 12.187500 10.000000
0 1092.0000 780.0000 556.0000 1.0000 0.0000 0.0000 12.187500 8.687500
0 1092.0000 820.0000 556.0000 1.0000 0.0000 0.0000 12.812500 8.687500
xteleport
0 1096.0000 820.0000 556.0000 0.0000 -1.0000 0.0000 17.125000 8.687500
0 1092.0000 820.0000 640.0000 0.0000 -1.0000 0.0000 17.062500 10.000000
0 1092.0000 820.0000 556.0000 0.0000 -1.0000 0.0000 17.062500 8.687500
xteleport
0 1096.0000 820.0000 556.0000 0.0000 -1.0000 0.0000 17.125000 8.687500
0 1096.0000 820.0000 640.0000 0.0000 -1.0000 0.0000 17.125000 10.000000
0 1092.0000 820.0000 640.0000 0.0000 -1.0000 0.0000 17.062500 10.000000
xteleport
0 1096.0000 780.0000 556.0000 -1.0000 0.0000 0.0000 12.187500 8.687500
0 1096.0000 820.0000 640.0000 -1.0000 0.0000 0.0000 12.812500 10.000000
0 1096.0000 820.0000 556.0000 -1.0000 0.0000 0.0000 12.812500 8.687500
xteleport
0 1096.0000 780.0000 556.0000 -1.0000 0.0000 0.0000 12.187500 8.687500
0 1096.0000 780.0000 640.0000 -1.0000 0.0000 0.0000 12.187500 10.000000
0 1096.0000 820.0000 640.0000 -1.0000 0.0000 0.0000 12.812500 10.000000
xteleport
0 1096.0000 780.0000 640.0000 0.0000 1.0000 0.0000 17.125000 10.000000
0 1092.0000 780.0000 556.0000 0.0000 1.0000 0.0000 17.062500 8.687500
0 1092.0000 780.0000 640.0000 0.0000 1.0000 0.0000 17.062500 10.000000
xteleport
0 1096.0000 780.0000 640.0000 0.0000 1.0000 0.0000 17.125000 10.000000
0 1096.0000 780.0000 556.0000 0.0000 1.0000 0.0000 17.125000 8.687500
0 1092.0000 780.0000 556.0000 0.0000 1.0000 0.0000 17.062500 8.687500
xteleport
0 1096.0000 820.0000 640.0000 -0.0000 0.0000 -1.0000 17.125000 12.812500
0 1092.0000 780.0000 640.0000 -0.0000 0.0000 -1.0000 17.062500 12.187500
0 1092.0000 820.0000 640.0000 -0.0000 0.0000 -1.0000 17.062500 12.812500
xteleport
0 1096.0000 820.0000 640.0000 0.0000 -0.0000 -1.0000 17.125000 12.812500
0 1096.0000 780.0000 640.0000 0.0000 -0.0000 -1.0000 17.125000 12.187500
0 1092.0000 780.0000 640.0000 0.0000 -0.0000 -1.0000 17.062500 12.187500
xteleport
0 1092.0000 780.0000 556.0000 0.0000 0.0000 1.0000 17.062500 12.187500
0 1096.0000 820.0000 556.0000 0.0000 0.0000 1.0000 17.125000 12.812500
0 1092.0000 820.0000 556.0000 0.0000 0.0000 1.0000 17.062500 12.812500
xteleport
0 1092.0000 780.0000 556.0000 0.0000 0.0000 1.0000 17.062500 12.187500
0 1096.0000 780.0000 556.0000 0.0000 0.0000 1.0000 17.125000 12.187500
0 1096.0000 820.0000 556.0000 0.0000 0.0000 1.0000 17.125000 12.812500
end
