version 1
nodes
0 "root" -1
end
skeleton
time 0
0 0 0 0 0 0 0
end
triangles
wbrick1_5
0 1560.0000 -640.0000 -160.0000 1.0000 0.0000 0.0000 -10.000000 -2.500000
0 1560.0000 -624.0000 -24.0000 1.0000 0.0000 0.0000 -9.750000 -0.375000
0 1560.0000 -640.0000 -24.0000 1.0000 0.0000 0.0000 -10.000000 -0.375000
wbrick1_5
0 1560.0000 -640.0000 -160.0000 1.0000 0.0000 0.0000 -10.000000 -2.500000
0 1560.0000 -624.0000 -160.0000 1.0000 0.0000 0.0000 -9.750000 -2.500000
0 1560.0000 -624.0000 -24.0000 1.0000 0.0000 0.0000 -9.750000 -0.375000
wbrick1_5
0 1664.0000 -624.0000 -160.0000 0.0000 -1.0000 0.0000 26.000000 -2.500000
0 1560.0000 -624.0000 -24.0000 0.0000 -1.0000 0.0000 24.375000 -0.375000
0 1560.0000 -624.0000 -160.0000 0.0000 -1.0000 0.0000 24.375000 -2.500000
wbrick1_5
0 1664.0000 -624.0000 -160.0000 0.0000 -1.0000 0.0000 26.000000 -2.500000
0 1664.0000 -624.0000 -24.0000 0.0000 -1.0000 0.0000 26.000000 -0.375000
0 1560.0000 -624.0000 -24.0000 0.0000 -1.0000 0.0000 24.375000 -0.375000
wbrick1_5
0 1664.0000 -624.0000 -160.0000 -1.0000 0.0000 0.0000 -9.750000 -2.500000
0 1664.0000 -640.0000 -24.0000 -1.0000 0.0000 0.0000 -10.000000 -0.375000
0 1664.0000 -624.0000 -24.0000 -1.0000 0.0000 0.0000 -9.750000 -0.375000
wbrick1_5
0 1664.0000 -624.0000 -160.0000 -1.0000 0.0000 0.0000 -9.750000 -2.500000
0 1664.0000 -640.0000 -160.0000 -1.0000 0.0000 0.0000 -10.000000 -2.500000
0 1664.0000 -640.0000 -24.0000 -1.0000 0.0000 0.0000 -10.000000 -0.375000
wbrick1_5
0 1664.0000 -640.0000 -24.0000 0.0000 1.0000 0.0000 26.000000 -0.375000
0 1560.0000 -640.0000 -160.0000 0.0000 1.0000 0.0000 24.375000 -2.500000
0 1560.0000 -640.0000 -24.0000 0.0000 1.0000 0.0000 24.375000 -0.375000
wbrick1_5
0 1664.0000 -640.0000 -24.0000 0.0000 1.0000 0.0000 26.000000 -0.375000
0 1664.0000 -640.0000 -160.0000 0.0000 1.0000 0.0000 26.000000 -2.500000
0 1560.0000 -640.0000 -160.0000 0.0000 1.0000 0.0000 24.375000 -2.500000
wbrick1_5
0 1664.0000 -624.0000 -24.0000 -0.0000 0.0000 -1.0000 26.000000 -9.750000
0 1560.0000 -640.0000 -24.0000 -0.0000 0.0000 -1.0000 24.375000 -10.000000
0 1560.0000 -624.0000 -24.0000 -0.0000 0.0000 -1.0000 24.375000 -9.750000
wbrick1_5
0 1664.0000 -624.0000 -24.0000 0.0000 -0.0000 -1.0000 26.000000 -9.750000
0 1664.0000 -640.0000 -24.0000 0.0000 -0.0000 -1.0000 26.000000 -10.000000
0 1560.0000 -640.0000 -24.0000 0.0000 -0.0000 -1.0000 24.375000 -10.000000
wbrick1_5
0 1560.0000 -640.0000 -160.0000 0.0000 0.0000 1.0000 24.375000 -10.000000
0 1664.0000 -624.0000 -160.0000 0.0000 0.0000 1.0000 26.000000 -9.750000
0 1560.0000 -624.0000 -160.0000 0.0000 0.0000 1.0000 24.375000 -9.750000
wbrick1_5
0 1560.0000 -640.0000 -160.0000 0.0000 0.0000 1.0000 24.375000 -10.000000
0 1664.0000 -640.0000 -160.0000 0.0000 0.0000 1.0000 26.000000 -10.000000
0 1664.0000 -624.0000 -160.0000 0.0000 0.0000 1.0000 26.000000 -9.750000
end
