version 1
nodes
0 "root" -1
end
skeleton
time 0
0 0 0 0 0 0 0
end
triangles
wizmet1_2
0 1360.0000 568.0000 128.0000 -1.0000 0.0000 0.0000 8.875000 2.000000
0 1360.0000 296.0000 144.0000 -1.0000 0.0000 0.0000 4.625000 2.250000
0 1360.0000 568.0000 144.0000 -1.0000 0.0000 0.0000 8.875000 2.250000
wizmet1_2
0 1360.0000 568.0000 128.0000 -1.0000 0.0000 0.0000 8.875000 2.000000
0 1360.0000 296.0000 128.0000 -1.0000 0.0000 0.0000 4.625000 2.000000
0 1360.0000 296.0000 144.0000 -1.0000 0.0000 0.0000 4.625000 2.250000
wizmet1_2
0 1352.0000 568.0000 144.0000 0.0000 -1.0000 0.0000 21.125000 2.250000
0 1360.0000 568.0000 128.0000 0.0000 -1.0000 0.0000 21.250000 2.000000
0 1360.0000 568.0000 144.0000 0.0000 -1.0000 0.0000 21.250000 2.250000
wizmet1_2
0 1352.0000 568.0000 144.0000 0.0000 -1.0000 0.0000 21.125000 2.250000
0 1352.0000 568.0000 128.0000 0.0000 -1.0000 0.0000 21.125000 2.000000
0 1360.0000 568.0000 128.0000 0.0000 -1.0000 0.0000 21.250000 2.000000
wizmet1_2
0 1352.0000 296.0000 128.0000 1.0000 0.0000 0.0000 4.625000 2.000000
0 1352.0000 568.0000 144.0000 1.0000 0.0000 0.0000 8.875000 2.250000
0 1352.0000 296.0000 144.0000 1.0000 0.0000 0.0000 4.625000 2.250000
wizmet1_2
0 1352.0000 296.0000 128.0000 1.0000 0.0000 0.0000 4.625000 2.000000
0 1352.0000 568.0000 128.0000 1.0000 0.0000 0.0000 8.875000 2.000000
0 1352.0000 568.0000 144.0000 1.0000 0.0000 0.0000 8.875000 2.250000
wizmet1_2
0 1360.0000 296.0000 128.0000 0.0000 1.0000 -0.0000 21.250000 2.000000
0 1352.0000 296.0000 144.0000 0.0000 1.0000 -0.0000 21.125000 2.250000
0 1360.0000 296.0000 144.0000 0.0000 1.0000 -0.0000 21.250000 2.250000
wizmet1_2
0 1360.0000 296.0000 128.0000 0.0000 1.0000 0.0000 21.250000 2.000000
0 1352.0000 296.0000 128.0000 0.0000 1.0000 0.0000 21.125000 2.000000
0 1352.0000 296.0000 144.0000 0.0000 1.0000 0.0000 21.125000 2.250000
wizmet1_2
0 1352.0000 296.0000 144.0000 0.0000 0.0000 -1.0000 21.125000 4.625000
0 1360.0000 568.0000 144.0000 0.0000 0.0000 -1.0000 21.250000 8.875000
0 1360.0000 296.0000 144.0000 0.0000 0.0000 -1.0000 21.250000 4.625000
wizmet1_2
0 1352.0000 296.0000 144.0000 0.0000 0.0000 -1.0000 21.125000 4.625000
0 1352.0000 568.0000 144.0000 0.0000 0.0000 -1.0000 21.125000 8.875000
0 1360.0000 568.0000 144.0000 0.0000 0.0000 -1.0000 21.250000 8.875000
wizmet1_2
0 1352.0000 568.0000 128.0000 -0.0000 0.0000 1.0000 21.125000 8.875000
0 1360.0000 296.0000 128.0000 -0.0000 0.0000 1.0000 21.250000 4.625000
0 1360.0000 568.0000 128.0000 -0.0000 0.0000 1.0000 21.250000 8.875000
wizmet1_2
0 1352.0000 568.0000 128.0000 0.0000 0.0000 1.0000 21.125000 8.875000
0 1352.0000 296.0000 128.0000 0.0000 0.0000 1.0000 21.125000 4.625000
0 1360.0000 296.0000 128.0000 0.0000 0.0000 1.0000 21.250000 4.625000
wizwood1_7
0 1352.0000 568.0000 132.0000 -1.0000 0.0000 0.0000 8.875000 2.062500
0 1352.0000 296.0000 144.0000 -1.0000 0.0000 0.0000 4.625000 2.250000
0 1352.0000 568.0000 144.0000 -1.0000 0.0000 0.0000 8.875000 2.250000
wizwood1_7
0 1352.0000 568.0000 132.0000 -1.0000 0.0000 0.0000 8.875000 2.062500
0 1352.0000 296.0000 132.0000 -1.0000 0.0000 0.0000 4.625000 2.062500
0 1352.0000 296.0000 144.0000 -1.0000 0.0000 0.0000 4.625000 2.250000
wizwood1_7
0 1272.0000 568.0000 144.0000 0.0000 -1.0000 0.0000 19.875000 2.250000
0 1352.0000 568.0000 132.0000 0.0000 -1.0000 0.0000 21.125000 2.062500
0 1352.0000 568.0000 144.0000 0.0000 -1.0000 0.0000 21.125000 2.250000
wizwood1_7
0 1272.0000 568.0000 144.0000 0.0000 -1.0000 0.0000 19.875000 2.250000
0 1272.0000 568.0000 132.0000 0.0000 -1.0000 0.0000 19.875000 2.062500
0 1352.0000 568.0000 132.0000 0.0000 -1.0000 0.0000 21.125000 2.062500
wizwood1_7
0 1224.0000 344.0000 132.0000 1.0000 0.0000 0.0000 5.375000 2.062500
0 1224.0000 520.0000 144.0000 1.0000 0.0000 0.0000 8.125000 2.250000
0 1224.0000 344.0000 144.0000 1.0000 0.0000 0.0000 5.375000 2.250000
wizwood1_7
0 1224.0000 344.0000 132.0000 1.0000 0.0000 0.0000 5.375000 2.062500
0 1224.0000 520.0000 132.0000 1.0000 0.0000 0.0000 8.125000 2.062500
0 1224.0000 520.0000 144.0000 1.0000 0.0000 0.0000 8.125000 2.250000
wizwood1_7
0 1272.0000 296.0000 132.0000 0.0000 1.0000 0.0000 19.875000 2.062500
0 1352.0000 296.0000 144.0000 0.0000 1.0000 0.0000 21.125000 2.250000
0 1352.0000 296.0000 132.0000 0.0000 1.0000 0.0000 21.125000 2.062500
wizwood1_7
0 1272.0000 296.0000 132.0000 0.0000 1.0000 0.0000 19.875000 2.062500
0 1272.0000 296.0000 144.0000 0.0000 1.0000 0.0000 19.875000 2.250000
0 1352.0000 296.0000 144.0000 0.0000 1.0000 0.0000 21.125000 2.250000
wizwood1_7
0 1272.0000 296.0000 144.0000 0.0000 0.0000 -1.0000 19.875000 4.625000
0 1352.0000 568.0000 144.0000 0.0000 0.0000 -1.0000 21.125000 8.875000
0 1352.0000 296.0000 144.0000 0.0000 0.0000 -1.0000 21.125000 4.625000
wizwood1_7
0 1272.0000 296.0000 144.0000 0.0000 0.0000 -1.0000 19.875000 4.625000
0 1272.0000 568.0000 144.0000 0.0000 0.0000 -1.0000 19.875000 8.875000
0 1352.0000 568.0000 144.0000 0.0000 0.0000 -1.0000 21.125000 8.875000
wizwood1_7
0 1272.0000 296.0000 144.0000 0.0000 0.0000 -1.0000 19.875000 4.625000
0 1224.0000 520.0000 144.0000 0.0000 0.0000 -1.0000 19.125000 8.125000
0 1272.0000 568.0000 144.0000 0.0000 0.0000 -1.0000 19.875000 8.875000
wizwood1_7
0 1272.0000 296.0000 144.0000 0.0000 0.0000 -1.0000 19.875000 4.625000
0 1224.0000 344.0000 144.0000 0.0000 0.0000 -1.0000 19.125000 5.375000
0 1224.0000 520.0000 144.0000 0.0000 0.0000 -1.0000 19.125000 8.125000
wizwood1_7
0 1224.0000 344.0000 132.0000 0.0000 0.0000 1.0000 19.125000 5.375000
0 1272.0000 568.0000 132.0000 0.0000 0.0000 1.0000 19.875000 8.875000
0 1224.0000 520.0000 132.0000 0.0000 0.0000 1.0000 19.125000 8.125000
wizwood1_7
0 1224.0000 344.0000 132.0000 0.0000 0.0000 1.0000 19.125000 5.375000
0 1352.0000 568.0000 132.0000 0.0000 0.0000 1.0000 21.125000 8.875000
0 1272.0000 568.0000 132.0000 0.0000 0.0000 1.0000 19.875000 8.875000
wizwood1_7
0 1224.0000 344.0000 132.0000 -0.0000 0.0000 1.0000 19.125000 5.375000
0 1352.0000 296.0000 132.0000 -0.0000 0.0000 1.0000 21.125000 4.625000
0 1352.0000 568.0000 132.0000 -0.0000 0.0000 1.0000 21.125000 8.875000
wizwood1_7
0 1224.0000 344.0000 132.0000 0.0000 0.0000 1.0000 19.125000 5.375000
0 1272.0000 296.0000 132.0000 0.0000 0.0000 1.0000 19.875000 4.625000
0 1352.0000 296.0000 132.0000 0.0000 0.0000 1.0000 21.125000 4.625000
wizwood1_7
0 1224.0000 520.0000 132.0000 0.7071 -0.7071 0.0000 8.125000 2.062500
0 1272.0000 568.0000 144.0000 0.7071 -0.7071 0.0000 8.875000 2.250000
0 1224.0000 520.0000 144.0000 0.7071 -0.7071 0.0000 8.125000 2.250000
wizwood1_7
0 1224.0000 520.0000 132.0000 0.7071 -0.7071 0.0000 8.125000 2.062500
0 1272.0000 568.0000 132.0000 0.7071 -0.7071 0.0000 8.875000 2.062500
0 1272.0000 568.0000 144.0000 0.7071 -0.7071 0.0000 8.875000 2.250000
wizwood1_7
0 1272.0000 296.0000 144.0000 0.7071 0.7071 0.0000 4.625000 2.250000
0 1224.0000 344.0000 132.0000 0.7071 0.7071 0.0000 5.375000 2.062500
0 1224.0000 344.0000 144.0000 0.7071 0.7071 0.0000 5.375000 2.250000
wizwood1_7
0 1272.0000 296.0000 144.0000 0.7071 0.7071 0.0000 4.625000 2.250000
0 1272.0000 296.0000 132.0000 0.7071 0.7071 0.0000 4.625000 2.062500
0 1224.0000 344.0000 132.0000 0.7071 0.7071 0.0000 5.375000 2.062500
wizmet1_2
0 1272.0000 568.0000 128.0000 0.0000 -1.0000 0.0000 19.875000 2.000000
0 1288.0000 568.0000 144.0000 0.0000 -1.0000 0.0000 20.125000 2.250000
0 1272.0000 568.0000 144.0000 0.0000 -1.0000 0.0000 19.875000 2.250000
wizmet1_2
0 1272.0000 568.0000 128.0000 0.0000 -1.0000 0.0000 19.875000 2.000000
0 1288.0000 568.0000 128.0000 0.0000 -1.0000 0.0000 20.125000 2.000000
0 1288.0000 568.0000 144.0000 0.0000 -1.0000 0.0000 20.125000 2.250000
wizmet1_2
0 1272.0000 296.0000 128.0000 1.0000 0.0000 0.0000 4.625000 2.000000
0 1272.0000 568.0000 144.0000 1.0000 0.0000 0.0000 8.875000 2.250000
0 1272.0000 296.0000 144.0000 1.0000 0.0000 0.0000 4.625000 2.250000
wizmet1_2
0 1272.0000 296.0000 128.0000 1.0000 0.0000 0.0000 4.625000 2.000000
0 1272.0000 568.0000 128.0000 1.0000 0.0000 0.0000 8.875000 2.000000
0 1272.0000 568.0000 144.0000 1.0000 0.0000 0.0000 8.875000 2.250000
wizmet1_2
0 1288.0000 296.0000 144.0000 0.0000 1.0000 0.0000 20.125000 2.250000
0 1272.0000 296.0000 128.0000 0.0000 1.0000 0.0000 19.875000 2.000000
0 1272.0000 296.0000 144.0000 0.0000 1.0000 0.0000 19.875000 2.250000
wizmet1_2
0 1288.0000 296.0000 144.0000 0.0000 1.0000 0.0000 20.125000 2.250000
0 1288.0000 296.0000 128.0000 0.0000 1.0000 0.0000 20.125000 2.000000
0 1272.0000 296.0000 128.0000 0.0000 1.0000 0.0000 19.875000 2.000000
wizmet1_2
0 1288.0000 568.0000 128.0000 -1.0000 0.0000 0.0000 8.875000 2.000000
0 1288.0000 296.0000 144.0000 -1.0000 0.0000 0.0000 4.625000 2.250000
0 1288.0000 568.0000 144.0000 -1.0000 0.0000 0.0000 8.875000 2.250000
wizmet1_2
0 1288.0000 568.0000 128.0000 -1.0000 0.0000 0.0000 8.875000 2.000000
0 1288.0000 296.0000 128.0000 -1.0000 0.0000 0.0000 4.625000 2.000000
0 1288.0000 296.0000 144.0000 -1.0000 0.0000 0.0000 4.625000 2.250000
wizmet1_2
0 1288.0000 568.0000 144.0000 -0.0000 0.0000 -1.0000 20.125000 8.875000
0 1272.0000 296.0000 144.0000 -0.0000 0.0000 -1.0000 19.875000 4.625000
0 1272.0000 568.0000 144.0000 -0.0000 0.0000 -1.0000 19.875000 8.875000
wizmet1_2
0 1288.0000 568.0000 144.0000 0.0000 -0.0000 -1.0000 20.125000 8.875000
0 1288.0000 296.0000 144.0000 0.0000 -0.0000 -1.0000 20.125000 4.625000
0 1272.0000 296.0000 144.0000 0.0000 -0.0000 -1.0000 19.875000 4.625000
wizmet1_2
0 1288.0000 296.0000 128.0000 0.0000 0.0000 1.0000 20.125000 4.625000
0 1272.0000 568.0000 128.0000 0.0000 0.0000 1.0000 19.875000 8.875000
0 1272.0000 296.0000 128.0000 0.0000 0.0000 1.0000 19.875000 4.625000
wizmet1_2
0 1288.0000 296.0000 128.0000 0.0000 -0.0000 1.0000 20.125000 4.625000
0 1288.0000 568.0000 128.0000 0.0000 -0.0000 1.0000 20.125000 8.875000
0 1272.0000 568.0000 128.0000 0.0000 -0.0000 1.0000 19.875000 8.875000
wizmet1_2
0 1352.0000 360.0000 128.0000 -1.0000 0.0000 0.0000 5.625000 2.000000
0 1352.0000 344.0000 144.0000 -1.0000 0.0000 0.0000 5.375000 2.250000
0 1352.0000 360.0000 144.0000 -1.0000 0.0000 0.0000 5.625000 2.250000
wizmet1_2
0 1352.0000 360.0000 128.0000 -1.0000 0.0000 0.0000 5.625000 2.000000
0 1352.0000 344.0000 128.0000 -1.0000 0.0000 0.0000 5.375000 2.000000
0 1352.0000 344.0000 144.0000 -1.0000 0.0000 0.0000 5.375000 2.250000
wizmet1_2
0 1224.0000 360.0000 144.0000 0.0000 -1.0000 0.0000 19.125000 2.250000
0 1352.0000 360.0000 128.0000 0.0000 -1.0000 0.0000 21.125000 2.000000
0 1352.0000 360.0000 144.0000 0.0000 -1.0000 0.0000 21.125000 2.250000
wizmet1_2
0 1224.0000 360.0000 144.0000 0.0000 -1.0000 0.0000 19.125000 2.250000
0 1224.0000 360.0000 128.0000 0.0000 -1.0000 0.0000 19.125000 2.000000
0 1352.0000 360.0000 128.0000 0.0000 -1.0000 0.0000 21.125000 2.000000
wizmet1_2
0 1224.0000 344.0000 144.0000 1.0000 -0.0000 0.0000 5.375000 2.250000
0 1224.0000 360.0000 128.0000 1.0000 -0.0000 0.0000 5.625000 2.000000
0 1224.0000 360.0000 144.0000 1.0000 -0.0000 0.0000 5.625000 2.250000
wizmet1_2
0 1224.0000 344.0000 144.0000 1.0000 0.0000 0.0000 5.375000 2.250000
0 1224.0000 344.0000 128.0000 1.0000 0.0000 0.0000 5.375000 2.000000
0 1224.0000 360.0000 128.0000 1.0000 0.0000 0.0000 5.625000 2.000000
wizmet1_2
0 1352.0000 344.0000 128.0000 0.0000 1.0000 -0.0000 21.125000 2.000000
0 1224.0000 344.0000 144.0000 0.0000 1.0000 -0.0000 19.125000 2.250000
0 1352.0000 344.0000 144.0000 0.0000 1.0000 -0.0000 21.125000 2.250000
wizmet1_2
0 1352.0000 344.0000 128.0000 0.0000 1.0000 0.0000 21.125000 2.000000
0 1224.0000 344.0000 128.0000 0.0000 1.0000 0.0000 19.125000 2.000000
0 1224.0000 344.0000 144.0000 0.0000 1.0000 0.0000 19.125000 2.250000
wizmet1_2
0 1352.0000 344.0000 144.0000 0.0000 0.0000 -1.0000 21.125000 5.375000
0 1224.0000 360.0000 144.0000 0.0000 0.0000 -1.0000 19.125000 5.625000
0 1352.0000 360.0000 144.0000 0.0000 0.0000 -1.0000 21.125000 5.625000
wizmet1_2
0 1352.0000 344.0000 144.0000 0.0000 0.0000 -1.0000 21.125000 5.375000
0 1224.0000 344.0000 144.0000 0.0000 0.0000 -1.0000 19.125000 5.375000
0 1224.0000 360.0000 144.0000 0.0000 0.0000 -1.0000 19.125000 5.625000
wizmet1_2
0 1224.0000 360.0000 128.0000 -0.0000 0.0000 1.0000 19.125000 5.625000
0 1352.0000 344.0000 128.0000 -0.0000 0.0000 1.0000 21.125000 5.375000
0 1352.0000 360.0000 128.0000 -0.0000 0.0000 1.0000 21.125000 5.625000
wizmet1_2
0 1224.0000 360.0000 128.0000 0.0000 0.0000 1.0000 19.125000 5.625000
0 1224.0000 344.0000 128.0000 0.0000 0.0000 1.0000 19.125000 5.375000
0 1352.0000 344.0000 128.0000 0.0000 0.0000 1.0000 21.125000 5.375000
wizmet1_2
0 1352.0000 520.0000 128.0000 -1.0000 0.0000 0.0000 8.125000 2.000000
0 1352.0000 504.0000 144.0000 -1.0000 0.0000 0.0000 7.875000 2.250000
0 1352.0000 520.0000 144.0000 -1.0000 0.0000 0.0000 8.125000 2.250000
wizmet1_2
0 1352.0000 520.0000 128.0000 -1.0000 0.0000 0.0000 8.125000 2.000000
0 1352.0000 504.0000 128.0000 -1.0000 0.0000 0.0000 7.875000 2.000000
0 1352.0000 504.0000 144.0000 -1.0000 0.0000 0.0000 7.875000 2.250000
wizmet1_2
0 1224.0000 520.0000 144.0000 0.0000 -1.0000 0.0000 19.125000 2.250000
0 1352.0000 520.0000 128.0000 0.0000 -1.0000 0.0000 21.125000 2.000000
0 1352.0000 520.0000 144.0000 0.0000 -1.0000 0.0000 21.125000 2.250000
wizmet1_2
0 1224.0000 520.0000 144.0000 0.0000 -1.0000 0.0000 19.125000 2.250000
0 1224.0000 520.0000 128.0000 0.0000 -1.0000 0.0000 19.125000 2.000000
0 1352.0000 520.0000 128.0000 0.0000 -1.0000 0.0000 21.125000 2.000000
wizmet1_2
0 1224.0000 504.0000 144.0000 1.0000 -0.0000 0.0000 7.875000 2.250000
0 1224.0000 520.0000 128.0000 1.0000 -0.0000 0.0000 8.125000 2.000000
0 1224.0000 520.0000 144.0000 1.0000 -0.0000 0.0000 8.125000 2.250000
wizmet1_2
0 1224.0000 504.0000 144.0000 1.0000 0.0000 0.0000 7.875000 2.250000
0 1224.0000 504.0000 128.0000 1.0000 0.0000 0.0000 7.875000 2.000000
0 1224.0000 520.0000 128.0000 1.0000 0.0000 0.0000 8.125000 2.000000
wizmet1_2
0 1352.0000 504.0000 128.0000 0.0000 1.0000 -0.0000 21.125000 2.000000
0 1224.0000 504.0000 144.0000 0.0000 1.0000 -0.0000 19.125000 2.250000
0 1352.0000 504.0000 144.0000 0.0000 1.0000 -0.0000 21.125000 2.250000
wizmet1_2
0 1352.0000 504.0000 128.0000 0.0000 1.0000 0.0000 21.125000 2.000000
0 1224.0000 504.0000 128.0000 0.0000 1.0000 0.0000 19.125000 2.000000
0 1224.0000 504.0000 144.0000 0.0000 1.0000 0.0000 19.125000 2.250000
wizmet1_2
0 1352.0000 504.0000 144.0000 0.0000 0.0000 -1.0000 21.125000 7.875000
0 1224.0000 520.0000 144.0000 0.0000 0.0000 -1.0000 19.125000 8.125000
0 1352.0000 520.0000 144.0000 0.0000 0.0000 -1.0000 21.125000 8.125000
wizmet1_2
0 1352.0000 504.0000 144.0000 0.0000 0.0000 -1.0000 21.125000 7.875000
0 1224.0000 504.0000 144.0000 0.0000 0.0000 -1.0000 19.125000 7.875000
0 1224.0000 520.0000 144.0000 0.0000 0.0000 -1.0000 19.125000 8.125000
wizmet1_2
0 1224.0000 520.0000 128.0000 -0.0000 0.0000 1.0000 19.125000 8.125000
0 1352.0000 504.0000 128.0000 -0.0000 0.0000 1.0000 21.125000 7.875000
0 1352.0000 520.0000 128.0000 -0.0000 0.0000 1.0000 21.125000 8.125000
wizmet1_2
0 1224.0000 520.0000 128.0000 0.0000 0.0000 1.0000 19.125000 8.125000
0 1224.0000 504.0000 128.0000 0.0000 0.0000 1.0000 19.125000 7.875000
0 1352.0000 504.0000 128.0000 0.0000 0.0000 1.0000 21.125000 7.875000
end
