version 1
nodes
0 "root" -1
end
skeleton
time 0
0 0 0 0 0 0 0
end
triangles
wizmet1_2
0 32.0000 -128.0000 -128.0000 1.0000 -0.0000 0.0000 -2.000000 -2.000000
0 32.0000 -120.0000 -176.0000 1.0000 -0.0000 0.0000 -1.875000 -2.750000
0 32.0000 -120.0000 -128.0000 1.0000 -0.0000 0.0000 -1.875000 -2.000000
wizmet1_2
0 32.0000 -128.0000 -128.0000 1.0000 0.0000 0.0000 -2.000000 -2.000000
0 32.0000 -128.0000 -176.0000 1.0000 0.0000 0.0000 -2.000000 -2.750000
0 32.0000 -120.0000 -176.0000 1.0000 0.0000 0.0000 -1.875000 -2.750000
wizmet1_2
0 32.0000 -120.0000 -176.0000 0.0000 -1.0000 0.0000 0.500000 -2.750000
0 64.0000 -120.0000 -128.0000 0.0000 -1.0000 0.0000 1.000000 -2.000000
0 32.0000 -120.0000 -128.0000 0.0000 -1.0000 0.0000 0.500000 -2.000000
wizmet1_2
0 32.0000 -120.0000 -176.0000 0.0000 -1.0000 0.0000 0.500000 -2.750000
0 64.0000 -120.0000 -176.0000 0.0000 -1.0000 0.0000 1.000000 -2.750000
0 64.0000 -120.0000 -128.0000 0.0000 -1.0000 0.0000 1.000000 -2.000000
wizmet1_2
0 64.0000 -120.0000 -176.0000 -1.0000 0.0000 0.0000 -1.875000 -2.750000
0 64.0000 -128.0000 -128.0000 -1.0000 0.0000 0.0000 -2.000000 -2.000000
0 64.0000 -120.0000 -128.0000 -1.0000 0.0000 0.0000 -1.875000 -2.000000
wizmet1_2
0 64.0000 -120.0000 -176.0000 -1.0000 0.0000 0.0000 -1.875000 -2.750000
0 64.0000 -128.0000 -176.0000 -1.0000 0.0000 0.0000 -2.000000 -2.750000
0 64.0000 -128.0000 -128.0000 -1.0000 0.0000 0.0000 -2.000000 -2.000000
wizmet1_2
0 64.0000 -128.0000 -128.0000 0.0000 1.0000 0.0000 1.000000 -2.000000
0 32.0000 -128.0000 -176.0000 0.0000 1.0000 0.0000 0.500000 -2.750000
0 32.0000 -128.0000 -128.0000 0.0000 1.0000 0.0000 0.500000 -2.000000
wizmet1_2
0 64.0000 -128.0000 -128.0000 0.0000 1.0000 0.0000 1.000000 -2.000000
0 64.0000 -128.0000 -176.0000 0.0000 1.0000 0.0000 1.000000 -2.750000
0 32.0000 -128.0000 -176.0000 0.0000 1.0000 0.0000 0.500000 -2.750000
wizmet1_2
0 64.0000 -120.0000 -128.0000 -0.0000 0.0000 -1.0000 1.000000 -1.875000
0 32.0000 -128.0000 -128.0000 -0.0000 0.0000 -1.0000 0.500000 -2.000000
0 32.0000 -120.0000 -128.0000 -0.0000 0.0000 -1.0000 0.500000 -1.875000
wizmet1_2
0 64.0000 -120.0000 -128.0000 0.0000 -0.0000 -1.0000 1.000000 -1.875000
0 64.0000 -128.0000 -128.0000 0.0000 -0.0000 -1.0000 1.000000 -2.000000
0 32.0000 -128.0000 -128.0000 0.0000 -0.0000 -1.0000 0.500000 -2.000000
wizmet1_2
0 32.0000 -128.0000 -176.0000 0.0000 0.0000 1.0000 0.500000 -2.000000
0 64.0000 -120.0000 -176.0000 0.0000 0.0000 1.0000 1.000000 -1.875000
0 32.0000 -120.0000 -176.0000 0.0000 0.0000 1.0000 0.500000 -1.875000
wizmet1_2
0 32.0000 -128.0000 -176.0000 0.0000 0.0000 1.0000 0.500000 -2.000000
0 64.0000 -128.0000 -176.0000 0.0000 0.0000 1.0000 1.000000 -2.000000
0 64.0000 -120.0000 -176.0000 0.0000 0.0000 1.0000 1.000000 -1.875000
end
