version 1
nodes
0 "root" -1
end
skeleton
time 0
0 0 0 0 0 0 0
end
triangles
cop3_4
0 -896.0000 -1728.0000 68.0000 1.0000 -0.0000 0.0000 -27.000000 1.062500
0 -896.0000 -1664.0000 64.0000 1.0000 -0.0000 0.0000 -26.000000 1.000000
0 -896.0000 -1664.0000 68.0000 1.0000 -0.0000 0.0000 -26.000000 1.062500
cop3_4
0 -896.0000 -1728.0000 68.0000 1.0000 0.0000 0.0000 -27.000000 1.062500
0 -896.0000 -1728.0000 64.0000 1.0000 0.0000 0.0000 -27.000000 1.000000
0 -896.0000 -1664.0000 64.0000 1.0000 0.0000 0.0000 -26.000000 1.000000
cop3_4
0 -896.0000 -1664.0000 64.0000 0.0000 -1.0000 0.0000 -14.000000 1.000000
0 -832.0000 -1664.0000 68.0000 0.0000 -1.0000 0.0000 -13.000000 1.062500
0 -896.0000 -1664.0000 68.0000 0.0000 -1.0000 0.0000 -14.000000 1.062500
cop3_4
0 -896.0000 -1664.0000 64.0000 0.0000 -1.0000 0.0000 -14.000000 1.000000
0 -832.0000 -1664.0000 64.0000 0.0000 -1.0000 0.0000 -13.000000 1.000000
0 -832.0000 -1664.0000 68.0000 0.0000 -1.0000 0.0000 -13.000000 1.062500
cop3_4
0 -832.0000 -1664.0000 64.0000 -1.0000 0.0000 0.0000 -26.000000 1.000000
0 -832.0000 -1728.0000 68.0000 -1.0000 0.0000 0.0000 -27.000000 1.062500
0 -832.0000 -1664.0000 68.0000 -1.0000 0.0000 0.0000 -26.000000 1.062500
cop3_4
0 -832.0000 -1664.0000 64.0000 -1.0000 0.0000 0.0000 -26.000000 1.000000
0 -832.0000 -1728.0000 64.0000 -1.0000 0.0000 0.0000 -27.000000 1.000000
0 -832.0000 -1728.0000 68.0000 -1.0000 0.0000 0.0000 -27.000000 1.062500
cop3_4
0 -832.0000 -1728.0000 68.0000 0.0000 1.0000 0.0000 -13.000000 1.062500
0 -896.0000 -1728.0000 64.0000 0.0000 1.0000 0.0000 -14.000000 1.000000
0 -896.0000 -1728.0000 68.0000 0.0000 1.0000 0.0000 -14.000000 1.062500
cop3_4
0 -832.0000 -1728.0000 68.0000 0.0000 1.0000 0.0000 -13.000000 1.062500
0 -832.0000 -1728.0000 64.0000 0.0000 1.0000 0.0000 -13.000000 1.000000
0 -896.0000 -1728.0000 64.0000 0.0000 1.0000 0.0000 -14.000000 1.000000
cop3_4
0 -832.0000 -1664.0000 68.0000 -0.0000 0.0000 -1.0000 -13.000000 -26.000000
0 -896.0000 -1728.0000 68.0000 -0.0000 0.0000 -1.0000 -14.000000 -27.000000
0 -896.0000 -1664.0000 68.0000 -0.0000 0.0000 -1.0000 -14.000000 -26.000000
cop3_4
0 -832.0000 -1664.0000 68.0000 0.0000 -0.0000 -1.0000 -13.000000 -26.000000
0 -832.0000 -1728.0000 68.0000 0.0000 -0.0000 -1.0000 -13.000000 -27.000000
0 -896.0000 -1728.0000 68.0000 0.0000 -0.0000 -1.0000 -14.000000 -27.000000
cop3_4
0 -896.0000 -1728.0000 64.0000 0.0000 0.0000 1.0000 -14.000000 -27.000000
0 -832.0000 -1664.0000 64.0000 0.0000 0.0000 1.0000 -13.000000 -26.000000
0 -896.0000 -1664.0000 64.0000 0.0000 0.0000 1.0000 -14.000000 -26.000000
cop3_4
0 -896.0000 -1728.0000 64.0000 0.0000 0.0000 1.0000 -14.000000 -27.000000
0 -832.0000 -1728.0000 64.0000 0.0000 0.0000 1.0000 -13.000000 -27.000000
0 -832.0000 -1664.0000 64.0000 0.0000 0.0000 1.0000 -13.000000 -26.000000
end
