version 1
nodes
0 "root" -1
end
skeleton
time 0
0 0 0 0 0 0 0
end
triangles
wizmet1_2
0 1088.0000 780.0000 556.0000 1.0000 -0.0000 0.0000 12.187500 8.687500
0 1088.0000 820.0000 544.0000 1.0000 -0.0000 0.0000 12.812500 8.500000
0 1088.0000 820.0000 556.0000 1.0000 -0.0000 0.0000 12.812500 8.687500
wizmet1_2
0 1088.0000 780.0000 556.0000 1.0000 0.0000 0.0000 12.187500 8.687500
0 1088.0000 780.0000 544.0000 1.0000 0.0000 0.0000 12.187500 8.500000
0 1088.0000 820.0000 544.0000 1.0000 0.0000 0.0000 12.812500 8.500000
wizmet1_2
0 1088.0000 820.0000 544.0000 0.0000 -1.0000 0.0000 17.000000 8.500000
0 1100.0000 820.0000 556.0000 0.0000 -1.0000 0.0000 17.187500 8.687500
0 1088.0000 820.0000 556.0000 0.0000 -1.0000 0.0000 17.000000 8.687500
wizmet1_2
0 1088.0000 820.0000 544.0000 0.0000 -1.0000 0.0000 17.000000 8.500000
0 1100.0000 820.0000 544.0000 0.0000 -1.0000 0.0000 17.187500 8.500000
0 1100.0000 820.0000 556.0000 0.0000 -1.0000 0.0000 17.187500 8.687500
wizmet1_2
0 1100.0000 780.0000 544.0000 -1.0000 0.0000 0.0000 12.187500 8.500000
0 1100.0000 820.0000 556.0000 -1.0000 0.0000 0.0000 12.812500 8.687500
0 1100.0000 820.0000 544.0000 -1.0000 0.0000 0.0000 12.812500 8.500000
wizmet1_2
0 1100.0000 780.0000 544.0000 -1.0000 0.0000 0.0000 12.187500 8.500000
0 1100.0000 780.0000 556.0000 -1.0000 0.0000 0.0000 12.187500 8.687500
0 1100.0000 820.0000 556.0000 -1.0000 0.0000 0.0000 12.812500 8.687500
wizmet1_2
0 1100.0000 780.0000 544.0000 0.0000 1.0000 -0.0000 17.187500 8.500000
0 1088.0000 780.0000 556.0000 0.0000 1.0000 -0.0000 17.000000 8.687500
0 1100.0000 780.0000 556.0000 0.0000 1.0000 -0.0000 17.187500 8.687500
wizmet1_2
0 1100.0000 780.0000 544.0000 0.0000 1.0000 0.0000 17.187500 8.500000
0 1088.0000 780.0000 544.0000 0.0000 1.0000 0.0000 17.000000 8.500000
0 1088.0000 780.0000 556.0000 0.0000 1.0000 0.0000 17.000000 8.687500
wizmet1_2
0 1100.0000 820.0000 556.0000 -0.0000 0.0000 -1.0000 17.187500 12.812500
0 1088.0000 780.0000 556.0000 -0.0000 0.0000 -1.0000 17.000000 12.187500
0 1088.0000 820.0000 556.0000 -0.0000 0.0000 -1.0000 17.000000 12.812500
wizmet1_2
0 1100.0000 820.0000 556.0000 0.0000 -0.0000 -1.0000 17.187500 12.812500
0 1100.0000 780.0000 556.0000 0.0000 -0.0000 -1.0000 17.187500 12.187500
0 1088.0000 780.0000 556.0000 0.0000 -0.0000 -1.0000 17.000000 12.187500
wizmet1_2
0 1088.0000 780.0000 544.0000 0.0000 0.0000 1.0000 17.000000 12.187500
0 1100.0000 820.0000 544.0000 0.0000 0.0000 1.0000 17.187500 12.812500
0 1088.0000 820.0000 544.0000 0.0000 0.0000 1.0000 17.000000 12.812500
wizmet1_2
0 1088.0000 780.0000 544.0000 0.0000 0.0000 1.0000 17.000000 12.187500
0 1100.0000 780.0000 544.0000 0.0000 0.0000 1.0000 17.187500 12.187500
0 1100.0000 820.0000 544.0000 0.0000 0.0000 1.0000 17.187500 12.812500
end
