version 1
nodes
0 "root" -1
end
skeleton
time 0
0 0 0 0 0 0 0
end
triangles
plat_top2
0 504.0000 -744.0000 -160.0000 1.0000 -0.0000 0.0000 -11.625000 -2.500000
0 504.0000 -680.0000 -216.0000 1.0000 -0.0000 0.0000 -10.625000 -3.375000
0 504.0000 -720.0000 -160.0000 1.0000 -0.0000 0.0000 -11.250000 -2.500000
plat_top2
0 504.0000 -744.0000 -160.0000 1.0000 0.0000 0.0000 -11.625000 -2.500000
0 504.0000 -704.0000 -216.0000 1.0000 0.0000 0.0000 -11.000000 -3.375000
0 504.0000 -680.0000 -216.0000 1.0000 0.0000 0.0000 -10.625000 -3.375000
plat_top2
0 536.0000 -680.0000 -216.0000 -0.0000 -0.8137 -0.5812 8.375000 -3.375000
0 504.0000 -720.0000 -160.0000 -0.0000 -0.8137 -0.5812 7.875000 -2.500000
0 504.0000 -680.0000 -216.0000 -0.0000 -0.8137 -0.5812 7.875000 -3.375000
plat_top2
0 536.0000 -680.0000 -216.0000 0.0000 -0.8137 -0.5812 8.375000 -3.375000
0 536.0000 -720.0000 -160.0000 0.0000 -0.8137 -0.5812 8.375000 -2.500000
0 504.0000 -720.0000 -160.0000 0.0000 -0.8137 -0.5812 7.875000 -2.500000
plat_top2
0 536.0000 -704.0000 -216.0000 -1.0000 0.0000 0.0000 -11.000000 -3.375000
0 536.0000 -720.0000 -160.0000 -1.0000 0.0000 0.0000 -11.250000 -2.500000
0 536.0000 -680.0000 -216.0000 -1.0000 0.0000 0.0000 -10.625000 -3.375000
plat_top2
0 536.0000 -704.0000 -216.0000 -1.0000 0.0000 0.0000 -11.000000 -3.375000
0 536.0000 -744.0000 -160.0000 -1.0000 0.0000 0.0000 -11.625000 -2.500000
0 536.0000 -720.0000 -160.0000 -1.0000 0.0000 0.0000 -11.250000 -2.500000
plat_top2
0 536.0000 -704.0000 -216.0000 0.0000 0.8137 0.5812 8.375000 -3.375000
0 504.0000 -744.0000 -160.0000 0.0000 0.8137 0.5812 7.875000 -2.500000
0 536.0000 -744.0000 -160.0000 0.0000 0.8137 0.5812 8.375000 -2.500000
plat_top2
0 536.0000 -704.0000 -216.0000 0.0000 0.8137 0.5812 8.375000 -3.375000
0 504.0000 -704.0000 -216.0000 0.0000 0.8137 0.5812 7.875000 -3.375000
0 504.0000 -744.0000 -160.0000 0.0000 0.8137 0.5812 7.875000 -2.500000
plat_top2
0 536.0000 -744.0000 -160.0000 0.0000 0.0000 -1.0000 8.375000 -11.625000
0 504.0000 -720.0000 -160.0000 0.0000 0.0000 -1.0000 7.875000 -11.250000
0 536.0000 -720.0000 -160.0000 0.0000 0.0000 -1.0000 8.375000 -11.250000
plat_top2
0 536.0000 -744.0000 -160.0000 0.0000 0.0000 -1.0000 8.375000 -11.625000
0 504.0000 -744.0000 -160.0000 0.0000 0.0000 -1.0000 7.875000 -11.625000
0 504.0000 -720.0000 -160.0000 0.0000 0.0000 -1.0000 7.875000 -11.250000
plat_top2
0 536.0000 -704.0000 -216.0000 0.0000 0.0000 1.0000 8.375000 -11.000000
0 504.0000 -680.0000 -216.0000 0.0000 0.0000 1.0000 7.875000 -10.625000
0 504.0000 -704.0000 -216.0000 0.0000 0.0000 1.0000 7.875000 -11.000000
plat_top2
0 536.0000 -704.0000 -216.0000 0.0000 -0.0000 1.0000 8.375000 -11.000000
0 536.0000 -680.0000 -216.0000 0.0000 -0.0000 1.0000 8.375000 -10.625000
0 504.0000 -680.0000 -216.0000 0.0000 -0.0000 1.0000 7.875000 -10.625000
wall16_7
0 504.0000 -696.0000 -352.0000 1.0000 0.0000 0.0000 -10.875000 -5.500000
0 504.0000 -680.0000 -204.0000 1.0000 0.0000 0.0000 -10.625000 -3.187500
0 504.0000 -696.0000 -204.0000 1.0000 0.0000 0.0000 -10.875000 -3.187500
wall16_7
0 504.0000 -696.0000 -352.0000 1.0000 0.0000 0.0000 -10.875000 -5.500000
0 504.0000 -680.0000 -352.0000 1.0000 0.0000 0.0000 -10.625000 -5.500000
0 504.0000 -680.0000 -204.0000 1.0000 0.0000 0.0000 -10.625000 -3.187500
wall16_7
0 504.0000 -680.0000 -352.0000 0.0000 -1.0000 0.0000 7.875000 -5.500000
0 536.0000 -680.0000 -204.0000 0.0000 -1.0000 0.0000 8.375000 -3.187500
0 504.0000 -680.0000 -204.0000 0.0000 -1.0000 0.0000 7.875000 -3.187500
wall16_7
0 504.0000 -680.0000 -352.0000 0.0000 -1.0000 0.0000 7.875000 -5.500000
0 536.0000 -680.0000 -352.0000 0.0000 -1.0000 0.0000 8.375000 -5.500000
0 536.0000 -680.0000 -204.0000 0.0000 -1.0000 0.0000 8.375000 -3.187500
wall16_7
0 536.0000 -680.0000 -352.0000 -1.0000 0.0000 0.0000 -10.625000 -5.500000
0 536.0000 -696.0000 -204.0000 -1.0000 0.0000 0.0000 -10.875000 -3.187500
0 536.0000 -680.0000 -204.0000 -1.0000 0.0000 0.0000 -10.625000 -3.187500
wall16_7
0 536.0000 -680.0000 -352.0000 -1.0000 0.0000 0.0000 -10.625000 -5.500000
0 536.0000 -696.0000 -352.0000 -1.0000 0.0000 0.0000 -10.875000 -5.500000
0 536.0000 -696.0000 -204.0000 -1.0000 0.0000 0.0000 -10.875000 -3.187500
wall16_7
0 536.0000 -696.0000 -352.0000 0.0000 1.0000 -0.0000 8.375000 -5.500000
0 504.0000 -696.0000 -204.0000 0.0000 1.0000 -0.0000 7.875000 -3.187500
0 536.0000 -696.0000 -204.0000 0.0000 1.0000 -0.0000 8.375000 -3.187500
wall16_7
0 536.0000 -696.0000 -352.0000 0.0000 1.0000 0.0000 8.375000 -5.500000
0 504.0000 -696.0000 -352.0000 0.0000 1.0000 0.0000 7.875000 -5.500000
0 504.0000 -696.0000 -204.0000 0.0000 1.0000 0.0000 7.875000 -3.187500
wall16_7
0 536.0000 -680.0000 -204.0000 -0.0000 0.0000 -1.0000 8.375000 -10.625000
0 504.0000 -696.0000 -204.0000 -0.0000 0.0000 -1.0000 7.875000 -10.875000
0 504.0000 -680.0000 -204.0000 -0.0000 0.0000 -1.0000 7.875000 -10.625000
wall16_7
0 536.0000 -680.0000 -204.0000 0.0000 -0.0000 -1.0000 8.375000 -10.625000
0 536.0000 -696.0000 -204.0000 0.0000 -0.0000 -1.0000 8.375000 -10.875000
0 504.0000 -696.0000 -204.0000 0.0000 -0.0000 -1.0000 7.875000 -10.875000
wall16_7
0 504.0000 -696.0000 -352.0000 0.0000 0.0000 1.0000 7.875000 -10.875000
0 536.0000 -680.0000 -352.0000 0.0000 0.0000 1.0000 8.375000 -10.625000
0 504.0000 -680.0000 -352.0000 0.0000 0.0000 1.0000 7.875000 -10.625000
wall16_7
0 504.0000 -696.0000 -352.0000 0.0000 0.0000 1.0000 7.875000 -10.875000
0 536.0000 -696.0000 -352.0000 0.0000 0.0000 1.0000 8.375000 -10.875000
0 536.0000 -680.0000 -352.0000 0.0000 0.0000 1.0000 8.375000 -10.625000
plat_top2
0 488.0000 -696.0000 -160.0000 0.0000 -1.0000 0.0000 7.625000 -2.500000
0 552.0000 -696.0000 -144.0000 0.0000 -1.0000 0.0000 8.625000 -2.250000
0 488.0000 -696.0000 -144.0000 0.0000 -1.0000 0.0000 7.625000 -2.250000
plat_top2
0 488.0000 -696.0000 -160.0000 0.0000 -1.0000 0.0000 7.625000 -2.500000
0 552.0000 -696.0000 -160.0000 0.0000 -1.0000 0.0000 8.625000 -2.500000
0 552.0000 -696.0000 -144.0000 0.0000 -1.0000 0.0000 8.625000 -2.250000
plat_top2
0 560.0000 -824.0000 -144.0000 0.0000 1.0000 0.0000 8.750000 -2.250000
0 480.0000 -824.0000 -160.0000 0.0000 1.0000 0.0000 7.500000 -2.500000
0 480.0000 -824.0000 -144.0000 0.0000 1.0000 0.0000 7.500000 -2.250000
plat_top2
0 560.0000 -824.0000 -144.0000 0.0000 1.0000 0.0000 8.750000 -2.250000
0 560.0000 -824.0000 -160.0000 0.0000 1.0000 0.0000 8.750000 -2.500000
0 480.0000 -824.0000 -160.0000 0.0000 1.0000 0.0000 7.500000 -2.500000
plat_top2
0 560.0000 -824.0000 -144.0000 0.0000 0.0000 -1.0000 8.750000 -12.875000
0 552.0000 -696.0000 -144.0000 0.0000 0.0000 -1.0000 8.625000 -10.875000
0 620.0000 -764.0000 -144.0000 0.0000 0.0000 -1.0000 9.687500 -11.937500
plat_top2
0 560.0000 -824.0000 -144.0000 0.0000 0.0000 -1.0000 8.750000 -12.875000
0 488.0000 -696.0000 -144.0000 0.0000 0.0000 -1.0000 7.625000 -10.875000
0 552.0000 -696.0000 -144.0000 0.0000 0.0000 -1.0000 8.625000 -10.875000
plat_top2
0 560.0000 -824.0000 -144.0000 0.0000 0.0000 -1.0000 8.750000 -12.875000
0 420.0000 -764.0000 -144.0000 0.0000 0.0000 -1.0000 6.562500 -11.937500
0 488.0000 -696.0000 -144.0000 0.0000 0.0000 -1.0000 7.625000 -10.875000
plat_top2
0 560.0000 -824.0000 -144.0000 0.0000 0.0000 -1.0000 8.750000 -12.875000
0 480.0000 -824.0000 -144.0000 0.0000 0.0000 -1.0000 7.500000 -12.875000
0 420.0000 -764.0000 -144.0000 0.0000 0.0000 -1.0000 6.562500 -11.937500
plat_top2
0 480.0000 -824.0000 -160.0000 0.0000 -0.0000 1.0000 7.500000 -12.875000
0 488.0000 -696.0000 -160.0000 0.0000 -0.0000 1.0000 7.625000 -10.875000
0 420.0000 -764.0000 -160.0000 0.0000 -0.0000 1.0000 6.562500 -11.937500
plat_top2
0 480.0000 -824.0000 -160.0000 0.0000 0.0000 1.0000 7.500000 -12.875000
0 552.0000 -696.0000 -160.0000 0.0000 0.0000 1.0000 8.625000 -10.875000
0 488.0000 -696.0000 -160.0000 0.0000 0.0000 1.0000 7.625000 -10.875000
plat_top2
0 480.0000 -824.0000 -160.0000 0.0000 0.0000 1.0000 7.500000 -12.875000
0 620.0000 -764.0000 -160.0000 0.0000 0.0000 1.0000 9.687500 -11.937500
0 552.0000 -696.0000 -160.0000 0.0000 0.0000 1.0000 8.625000 -10.875000
plat_top2
0 480.0000 -824.0000 -160.0000 0.0000 0.0000 1.0000 7.500000 -12.875000
0 560.0000 -824.0000 -160.0000 0.0000 0.0000 1.0000 8.750000 -12.875000
0 620.0000 -764.0000 -160.0000 0.0000 0.0000 1.0000 9.687500 -11.937500
plat_top2
0 480.0000 -824.0000 -160.0000 0.7071 0.7071 -0.0000 -12.875000 -2.500000
0 420.0000 -764.0000 -144.0000 0.7071 0.7071 -0.0000 -11.937500 -2.250000
0 480.0000 -824.0000 -144.0000 0.7071 0.7071 -0.0000 -12.875000 -2.250000
plat_top2
0 480.0000 -824.0000 -160.0000 0.7071 0.7071 0.0000 -12.875000 -2.500000
0 420.0000 -764.0000 -160.0000 0.7071 0.7071 0.0000 -11.937500 -2.500000
0 420.0000 -764.0000 -144.0000 0.7071 0.7071 0.0000 -11.937500 -2.250000
plat_top2
0 620.0000 -764.0000 -160.0000 -0.7071 0.7071 0.0000 -11.937500 -2.500000
0 560.0000 -824.0000 -144.0000 -0.7071 0.7071 0.0000 -12.875000 -2.250000
0 620.0000 -764.0000 -144.0000 -0.7071 0.7071 0.0000 -11.937500 -2.250000
plat_top2
0 620.0000 -764.0000 -160.0000 -0.7071 0.7071 0.0000 -11.937500 -2.500000
0 560.0000 -824.0000 -160.0000 -0.7071 0.7071 0.0000 -12.875000 -2.500000
0 560.0000 -824.0000 -144.0000 -0.7071 0.7071 0.0000 -12.875000 -2.250000
plat_top2
0 420.0000 -764.0000 -144.0000 0.7071 -0.7071 0.0000 -11.937500 -2.250000
0 488.0000 -696.0000 -160.0000 0.7071 -0.7071 0.0000 -10.875000 -2.500000
0 488.0000 -696.0000 -144.0000 0.7071 -0.7071 0.0000 -10.875000 -2.250000
plat_top2
0 420.0000 -764.0000 -144.0000 0.7071 -0.7071 0.0000 -11.937500 -2.250000
0 420.0000 -764.0000 -160.0000 0.7071 -0.7071 0.0000 -11.937500 -2.500000
0 488.0000 -696.0000 -160.0000 0.7071 -0.7071 0.0000 -10.875000 -2.500000
plat_top2
0 620.0000 -764.0000 -160.0000 -0.7071 -0.7071 0.0000 -11.937500 -2.500000
0 552.0000 -696.0000 -144.0000 -0.7071 -0.7071 0.0000 -10.875000 -2.250000
0 552.0000 -696.0000 -160.0000 -0.7071 -0.7071 0.0000 -10.875000 -2.500000
plat_top2
0 620.0000 -764.0000 -160.0000 -0.7071 -0.7071 0.0000 -11.937500 -2.500000
0 620.0000 -764.0000 -144.0000 -0.7071 -0.7071 0.0000 -11.937500 -2.250000
0 552.0000 -696.0000 -144.0000 -0.7071 -0.7071 0.0000 -10.875000 -2.250000
end
