version 1
nodes
0 "root" -1
end
skeleton
  time 0
  0 0.000000 0.000000 0.000000 0.000000 0.000000 0.000000
end
triangles
grenade
  0 1.790060 -8.663507 -1.877380 0.526593 -0.665602 -0.528842 0.495000 0.395000 1 0 1.000000
  0 2.517727 -8.663507 -0.043660 0.739711 -0.672901 0.005696 0.445000 0.435000 1 0 1.000000
  0 -0.043660 -9.677781 -0.043660 0.000949 -1.000000 0.000000 0.525000 0.515000 1 0 1.000000
grenade
  0 2.575940 -5.919003 2.546834 0.661466 -0.376153 0.648823 0.355000 0.445000 1 0 1.000000
  0 2.517727 -8.663507 -0.043660 0.739711 -0.672901 0.005696 0.445000 0.435000 1 0 1.000000
  0 3.711101 -5.919003 -0.043660 0.919912 -0.392090 0.005206 0.375000 0.385000 1 0 1.000000
grenade
  0 3.711101 -5.919003 -0.043660 0.999991 0.003825 0.001823 0.335000 0.305000 1 0 1.000000
  0 2.575941 3.149796 -2.634154 0.704403 0.002589 -0.709796 0.045000 0.175000 1 0 1.000000
  0 3.652888 3.149796 -0.043660 0.999991 0.003825 0.001822 0.045000 0.285000 1 0 1.000000
grenade
  0 1.790060 -8.663507 -1.877380 0.526593 -0.665602 -0.528842 0.495000 0.395000 1 0 1.000000
  0 -0.043660 -9.677781 -0.043660 0.000949 -1.000000 0.000000 0.525000 0.515000 1 0 1.000000
  0 -0.043660 -8.663507 -2.634154 0.295192 -0.632269 -0.716308 0.575000 0.365000 1 0 1.000000
grenade
  0 -2.663261 -5.919003 -2.634154 -0.659654 -0.367734 -0.655460 0.435000 0.705000 1 0 1.000000
  0 -2.634154 -8.663507 -0.043660 -0.748792 -0.662805 0.000000 0.445000 0.605000 1 0 1.000000
  0 -3.711101 -5.919003 -0.043660 -0.930896 -0.365285 -0.000000 0.375000 0.635000 1 0 1.000000
grenade
  0 2.575940 -5.919003 -2.634154 0.698953 -0.000000 -0.715168 0.335000 0.195000 1 0 1.000000
  0 -0.043660 3.149796 -3.711101 0.380233 -0.000000 -0.924891 0.045000 0.065000 1 0 1.000000
  0 2.575941 3.149796 -2.634154 0.704403 0.002589 -0.709796 0.045000 0.175000 1 0 1.000000
grenade
  0 -0.043660 -8.663507 2.546834 -0.004429 -0.669844 0.742489 0.415000 0.515000 1 0 1.000000
  0 -1.877381 -8.663507 1.790060 -0.528495 -0.663086 0.530105 0.415000 0.555000 1 0 1.000000
  0 -0.043660 -9.677781 -0.043660 0.000949 -1.000000 0.000000 0.525000 0.515000 1 0 1.000000
grenade
  0 -0.043660 -5.919003 3.711101 -0.004004 -0.385383 0.922748 0.345000 0.515000 1 0 1.000000
  0 1.790060 -8.663507 1.790060 0.534209 -0.664892 0.522053 0.415000 0.475000 1 0 1.000000
  0 2.575940 -5.919003 2.546834 0.661466 -0.376153 0.648823 0.355000 0.445000 1 0 1.000000
grenade
  0 -0.043660 -5.919003 -3.711101 -0.380233 0.000000 -0.924891 0.335000 0.935000 1 0 1.000000
  0 -2.663260 3.149796 -2.634154 -0.709117 0.000000 -0.705091 0.045000 0.825000 1 0 1.000000
  0 -0.043660 3.149796 -3.711101 -0.380233 0.000000 -0.924891 0.045000 0.935000 1 0 1.000000
grenade
  0 -1.877381 -8.663507 1.790060 -0.528495 -0.663086 0.530105 0.415000 0.555000 1 0 1.000000
  0 -2.634154 -8.663507 -0.043660 -0.748792 -0.662805 0.000000 0.445000 0.605000 1 0 1.000000
  0 -0.043660 -9.677781 -0.043660 0.000949 -1.000000 0.000000 0.525000 0.515000 1 0 1.000000
grenade
  0 -2.663261 -5.919003 -2.634154 -0.659654 -0.367734 -0.655460 0.435000 0.705000 1 0 1.000000
  0 -0.043660 -8.663507 -2.634154 -0.295192 -0.632269 -0.716308 0.575000 0.655000 1 0 1.000000
  0 -1.877381 -8.663507 -1.877380 -0.528495 -0.663085 -0.530105 0.495000 0.625000 1 0 1.000000
grenade
  0 -2.663261 -5.919003 -2.634154 -0.709102 0.000000 -0.705106 0.335000 0.805000 1 0 1.000000
  0 -3.711101 3.149796 -0.043660 -1.000000 0.000000 0.000010 0.045000 0.725000 1 0 1.000000
  0 -2.663260 3.149796 -2.634154 -0.709117 0.000000 -0.705091 0.045000 0.825000 1 0 1.000000
grenade
  0 -1.877381 -8.663507 -1.877380 -0.528495 -0.663085 -0.530105 0.495000 0.625000 1 0 1.000000
  0 -0.043660 -8.663507 -2.634154 -0.295192 -0.632269 -0.716308 0.575000 0.655000 1 0 1.000000
  0 -0.043660 -9.677781 -0.043660 0.000949 -1.000000 0.000000 0.525000 0.515000 1 0 1.000000
grenade
  0 1.790060 -8.663507 -1.877380 0.526593 -0.665602 -0.528842 0.495000 0.395000 1 0 1.000000
  0 2.575940 -5.919003 -2.634154 0.651334 -0.369025 -0.663012 0.435000 0.315000 1 0 1.000000
  0 3.711101 -5.919003 -0.043660 0.919912 -0.392090 0.005206 0.375000 0.385000 1 0 1.000000
grenade
  0 -3.711101 -5.919003 -0.043660 -1.000000 0.000000 -0.000010 0.335000 0.695000 1 0 1.000000
  0 -2.663260 3.149796 2.546834 -0.718965 0.000000 0.695046 0.045000 0.615000 1 0 1.000000
  0 -3.711101 3.149796 -0.043660 -1.000000 0.000000 0.000010 0.045000 0.725000 1 0 1.000000
grenade
  0 1.790060 3.149796 1.790060 0.711905 -0.000000 0.702276 0.645000 0.445000 1 0 1.000000
  0 -0.043660 5.536322 2.546834 0.000010 -0.000000 1.000000 0.745000 0.365000 1 0 1.000000
  0 -0.043660 3.149796 2.546834 -0.000010 0.000000 1.000000 0.645000 0.365000 1 0 1.000000
grenade
  0 -2.663261 -5.919003 2.546834 -0.663514 -0.373210 0.648431 0.355000 0.575000 1 0 1.000000
  0 -0.043660 -8.663507 2.546834 -0.004429 -0.669844 0.742489 0.415000 0.515000 1 0 1.000000
  0 -0.043660 -5.919003 3.711101 -0.004004 -0.385383 0.922748 0.345000 0.515000 1 0 1.000000
grenade
  0 -2.663261 -5.919003 2.546834 -0.718980 0.000000 0.695031 0.335000 0.595000 1 0 1.000000
  0 -0.043660 3.149796 3.711101 0.000011 -0.000000 1.000000 0.045000 0.505000 1 0 1.000000
  0 -2.663260 3.149796 2.546834 -0.718965 0.000000 0.695046 0.045000 0.615000 1 0 1.000000
grenade
  0 2.575940 -5.919003 -2.634154 0.651334 -0.369025 -0.663012 0.435000 0.315000 1 0 1.000000
  0 -0.043660 -8.663507 -2.634154 0.295192 -0.632269 -0.716308 0.575000 0.365000 1 0 1.000000
  0 -0.043660 -5.919003 -3.711101 0.357422 -0.341155 -0.869404 0.515000 0.235000 1 0 1.000000
grenade
  0 1.790060 -8.663507 1.790060 0.534209 -0.664892 0.522053 0.415000 0.475000 1 0 1.000000
  0 -0.043660 -8.663507 2.546834 -0.004429 -0.669844 0.742489 0.415000 0.515000 1 0 1.000000
  0 -0.043660 -9.677781 -0.043660 0.000949 -1.000000 0.000000 0.525000 0.515000 1 0 1.000000
grenade
  0 -0.043660 -5.919003 3.711101 -0.000011 0.000000 1.000000 0.335000 0.495000 1 0 1.000000
  0 2.575941 3.149796 2.546834 0.715629 -0.000000 0.698481 0.045000 0.395000 1 0 1.000000
  0 -0.043660 3.149796 3.711101 0.000011 -0.000000 1.000000 0.045000 0.505000 1 0 1.000000
grenade
  0 2.517727 -8.663507 -0.043660 0.739711 -0.672901 0.005696 0.445000 0.435000 1 0 1.000000
  0 1.790060 -8.663507 1.790060 0.534209 -0.664892 0.522053 0.415000 0.475000 1 0 1.000000
  0 -0.043660 -9.677781 -0.043660 0.000949 -1.000000 0.000000 0.525000 0.515000 1 0 1.000000
grenade
  0 -2.663261 -5.919003 2.546834 -0.663514 -0.373210 0.648431 0.355000 0.575000 1 0 1.000000
  0 -2.634154 -8.663507 -0.043660 -0.748792 -0.662805 0.000000 0.445000 0.605000 1 0 1.000000
  0 -1.877381 -8.663507 1.790060 -0.528495 -0.663086 0.530105 0.415000 0.555000 1 0 1.000000
grenade
  0 2.575940 -5.919003 2.546834 0.710220 0.002552 0.703975 0.335000 0.395000 1 0 1.000000
  0 3.652888 3.149796 -0.043660 0.999991 0.003825 0.001822 0.045000 0.285000 1 0 1.000000
  0 2.575941 3.149796 2.546834 0.715629 -0.000000 0.698481 0.045000 0.395000 1 0 1.000000
grenade
  0 -2.663260 3.149796 -2.634154 0.000000 1.000000 0.000000 0.915000 0.925000 1 0 1.000000
  0 -2.663260 3.149796 2.546834 0.000000 1.000000 0.000000 0.915000 0.715000 1 0 1.000000
  0 2.575941 3.149796 2.546834 0.000000 1.000000 0.000000 0.715000 0.715000 1 0 1.000000
grenade
  0 -2.634154 -8.663507 -0.043660 -0.748792 -0.662805 0.000000 0.445000 0.605000 1 0 1.000000
  0 -1.877381 -8.663507 -1.877380 -0.528495 -0.663085 -0.530105 0.495000 0.625000 1 0 1.000000
  0 -0.043660 -9.677781 -0.043660 0.000949 -1.000000 0.000000 0.525000 0.515000 1 0 1.000000
grenade
  0 -1.877380 3.149796 1.790060 -0.707114 0.000000 0.707100 0.645000 0.295000 1 0 1.000000
  0 -2.634154 5.536322 -0.043660 -1.000000 0.000000 0.000010 0.745000 0.215000 1 0 1.000000
  0 -2.634154 3.149796 -0.043660 -1.000000 0.000000 -0.000010 0.645000 0.215000 1 0 1.000000
grenade
  0 1.790061 5.536322 1.790060 0.000000 1.000000 0.000000 0.805000 0.045000 1 0 1.000000
  0 1.790061 5.536322 -1.877380 0.000000 1.000000 0.000000 0.805000 0.185000 1 0 1.000000
  0 -1.877380 5.536322 -1.877380 -0.000000 1.000000 0.000000 0.945000 0.185000 1 0 1.000000
grenade
  0 1.790060 3.149796 -1.877380 0.711919 -0.000000 -0.702262 0.645000 0.585000 1 0 1.000000
  0 2.517727 5.536322 -0.043660 1.000000 -0.000000 -0.000009 0.745000 0.515000 1 0 1.000000
  0 2.517727 3.149796 -0.043660 1.000000 -0.000000 0.000009 0.645000 0.515000 1 0 1.000000
grenade
  0 2.575940 -5.919003 2.546834 0.661466 -0.376153 0.648823 0.355000 0.445000 1 0 1.000000
  0 1.790060 -8.663507 1.790060 0.534209 -0.664892 0.522053 0.415000 0.475000 1 0 1.000000
  0 2.517727 -8.663507 -0.043660 0.739711 -0.672901 0.005696 0.445000 0.435000 1 0 1.000000
grenade
  0 -0.043660 3.149796 -2.634154 0.381488 -0.000000 -0.924374 0.645000 0.655000 1 0 1.000000
  0 1.790061 5.536322 -1.877380 0.711905 -0.000000 -0.702275 0.745000 0.585000 1 0 1.000000
  0 1.790060 3.149796 -1.877380 0.711919 -0.000000 -0.702262 0.645000 0.585000 1 0 1.000000
grenade
  0 -2.634154 3.149796 -0.043660 -1.000000 0.000000 -0.000010 0.645000 0.215000 1 0 1.000000
  0 -1.877380 5.536322 -1.877380 -0.707107 0.000000 -0.707107 0.745000 0.135000 1 0 1.000000
  0 -1.877380 3.149796 -1.877380 -0.707107 0.000000 -0.707107 0.645000 0.135000 1 0 1.000000
grenade
  0 2.517727 3.149796 -0.043660 1.000000 -0.000000 0.000009 0.645000 0.515000 1 0 1.000000
  0 1.790061 5.536322 1.790060 0.711919 -0.000000 0.702262 0.745000 0.445000 1 0 1.000000
  0 1.790060 3.149796 1.790060 0.711905 -0.000000 0.702276 0.645000 0.445000 1 0 1.000000
grenade
  0 -0.043660 3.149796 -2.634154 -0.381488 0.000000 -0.924374 0.645000 0.065000 1 0 1.000000
  0 -1.877380 5.536322 -1.877380 -0.707107 0.000000 -0.707107 0.745000 0.135000 1 0 1.000000
  0 -0.043660 5.536322 -2.634154 -0.381488 0.000000 -0.924374 0.745000 0.065000 1 0 1.000000
grenade
  0 -0.043660 3.149796 2.546834 -0.000010 0.000000 1.000000 0.645000 0.365000 1 0 1.000000
  0 -1.877380 5.536322 1.790060 -0.707100 0.000000 0.707114 0.745000 0.295000 1 0 1.000000
  0 -1.877380 3.149796 1.790060 -0.707114 0.000000 0.707100 0.645000 0.295000 1 0 1.000000
grenade
  0 3.711101 -5.919003 -0.043660 0.999991 0.003825 0.001823 0.335000 0.305000 1 0 1.000000
  0 2.575940 -5.919003 -2.634154 0.698953 -0.000000 -0.715168 0.335000 0.195000 1 0 1.000000
  0 2.575941 3.149796 -2.634154 0.704403 0.002589 -0.709796 0.045000 0.175000 1 0 1.000000
grenade
  0 -2.663261 -5.919003 -2.634154 -0.659654 -0.367734 -0.655460 0.435000 0.705000 1 0 1.000000
  0 -1.877381 -8.663507 -1.877380 -0.528495 -0.663085 -0.530105 0.495000 0.625000 1 0 1.000000
  0 -2.634154 -8.663507 -0.043660 -0.748792 -0.662805 0.000000 0.445000 0.605000 1 0 1.000000
grenade
  0 2.575940 -5.919003 -2.634154 0.698953 -0.000000 -0.715168 0.335000 0.195000 1 0 1.000000
  0 -0.043660 -5.919003 -3.711101 0.380233 -0.000000 -0.924891 0.335000 0.075000 1 0 1.000000
  0 -0.043660 3.149796 -3.711101 0.380233 -0.000000 -0.924891 0.045000 0.065000 1 0 1.000000
grenade
  0 -0.043660 -5.919003 3.711101 -0.004004 -0.385383 0.922748 0.345000 0.515000 1 0 1.000000
  0 -0.043660 -8.663507 2.546834 -0.004429 -0.669844 0.742489 0.415000 0.515000 1 0 1.000000
  0 1.790060 -8.663507 1.790060 0.534209 -0.664892 0.522053 0.415000 0.475000 1 0 1.000000
grenade
  0 -0.043660 -5.919003 -3.711101 -0.380233 0.000000 -0.924891 0.335000 0.935000 1 0 1.000000
  0 -2.663261 -5.919003 -2.634154 -0.709102 0.000000 -0.705106 0.335000 0.805000 1 0 1.000000
  0 -2.663260 3.149796 -2.634154 -0.709117 0.000000 -0.705091 0.045000 0.825000 1 0 1.000000
grenade
  0 -2.663261 -5.919003 -2.634154 -0.659654 -0.367734 -0.655460 0.435000 0.705000 1 0 1.000000
  0 -0.043660 -5.919003 -3.711101 -0.357422 -0.341155 -0.869404 0.515000 0.795000 1 0 1.000000
  0 -0.043660 -8.663507 -2.634154 -0.295192 -0.632269 -0.716308 0.575000 0.655000 1 0 1.000000
grenade
  0 -2.663261 -5.919003 -2.634154 -0.709102 0.000000 -0.705106 0.335000 0.805000 1 0 1.000000
  0 -3.711101 -5.919003 -0.043660 -1.000000 0.000000 -0.000010 0.335000 0.695000 1 0 1.000000
  0 -3.711101 3.149796 -0.043660 -1.000000 0.000000 0.000010 0.045000 0.725000 1 0 1.000000
grenade
  0 1.790060 -8.663507 -1.877380 0.526593 -0.665602 -0.528842 0.495000 0.395000 1 0 1.000000
  0 3.711101 -5.919003 -0.043660 0.919912 -0.392090 0.005206 0.375000 0.385000 1 0 1.000000
  0 2.517727 -8.663507 -0.043660 0.739711 -0.672901 0.005696 0.445000 0.435000 1 0 1.000000
grenade
  0 -3.711101 -5.919003 -0.043660 -1.000000 0.000000 -0.000010 0.335000 0.695000 1 0 1.000000
  0 -2.663261 -5.919003 2.546834 -0.718980 0.000000 0.695031 0.335000 0.595000 1 0 1.000000
  0 -2.663260 3.149796 2.546834 -0.718965 0.000000 0.695046 0.045000 0.615000 1 0 1.000000
grenade
  0 1.790060 3.149796 1.790060 0.711905 -0.000000 0.702276 0.645000 0.445000 1 0 1.000000
  0 1.790061 5.536322 1.790060 0.711919 -0.000000 0.702262 0.745000 0.445000 1 0 1.000000
  0 -0.043660 5.536322 2.546834 0.000010 -0.000000 1.000000 0.745000 0.365000 1 0 1.000000
grenade
  0 -2.663261 -5.919003 2.546834 -0.663514 -0.373210 0.648431 0.355000 0.575000 1 0 1.000000
  0 -1.877381 -8.663507 1.790060 -0.528495 -0.663086 0.530105 0.415000 0.555000 1 0 1.000000
  0 -0.043660 -8.663507 2.546834 -0.004429 -0.669844 0.742489 0.415000 0.515000 1 0 1.000000
grenade
  0 -2.663261 -5.919003 2.546834 -0.718980 0.000000 0.695031 0.335000 0.595000 1 0 1.000000
  0 -0.043660 -5.919003 3.711101 -0.000011 0.000000 1.000000 0.335000 0.495000 1 0 1.000000
  0 -0.043660 3.149796 3.711101 0.000011 -0.000000 1.000000 0.045000 0.505000 1 0 1.000000
grenade
  0 1.790060 -8.663507 -1.877380 0.526593 -0.665602 -0.528842 0.495000 0.395000 1 0 1.000000
  0 -0.043660 -8.663507 -2.634154 0.295192 -0.632269 -0.716308 0.575000 0.365000 1 0 1.000000
  0 2.575940 -5.919003 -2.634154 0.651334 -0.369025 -0.663012 0.435000 0.315000 1 0 1.000000
grenade
  0 -0.043660 -5.919003 3.711101 -0.000011 0.000000 1.000000 0.335000 0.495000 1 0 1.000000
  0 2.575940 -5.919003 2.546834 0.710220 0.002552 0.703975 0.335000 0.395000 1 0 1.000000
  0 2.575941 3.149796 2.546834 0.715629 -0.000000 0.698481 0.045000 0.395000 1 0 1.000000
grenade
  0 -2.663261 -5.919003 2.546834 -0.663514 -0.373210 0.648431 0.355000 0.575000 1 0 1.000000
  0 -3.711101 -5.919003 -0.043660 -0.930896 -0.365285 -0.000000 0.375000 0.635000 1 0 1.000000
  0 -2.634154 -8.663507 -0.043660 -0.748792 -0.662805 0.000000 0.445000 0.605000 1 0 1.000000
grenade
  0 2.575940 -5.919003 2.546834 0.710220 0.002552 0.703975 0.335000 0.395000 1 0 1.000000
  0 3.711101 -5.919003 -0.043660 0.999991 0.003825 0.001823 0.335000 0.305000 1 0 1.000000
  0 3.652888 3.149796 -0.043660 0.999991 0.003825 0.001822 0.045000 0.285000 1 0 1.000000
grenade
  0 2.575941 3.149796 2.546834 0.000000 1.000000 0.000000 0.715000 0.715000 1 0 1.000000
  0 3.652888 3.149796 -0.043660 0.000000 1.000000 0.000000 0.675000 0.815000 1 0 1.000000
  0 2.575941 3.149796 -2.634154 0.000000 1.000000 0.000000 0.725000 0.925000 1 0 1.000000
grenade
  0 2.575941 3.149796 -2.634154 0.000000 1.000000 0.000000 0.725000 0.925000 1 0 1.000000
  0 -0.043660 3.149796 -3.711101 0.000000 1.000000 0.000000 0.815000 0.965000 1 0 1.000000
  0 -2.663260 3.149796 -2.634154 0.000000 1.000000 0.000000 0.915000 0.925000 1 0 1.000000
grenade
  0 -2.663260 3.149796 -2.634154 0.000000 1.000000 0.000000 0.915000 0.925000 1 0 1.000000
  0 -3.711101 3.149796 -0.043660 0.000000 1.000000 0.000000 0.955000 0.815000 1 0 1.000000
  0 -2.663260 3.149796 2.546834 0.000000 1.000000 0.000000 0.915000 0.715000 1 0 1.000000
grenade
  0 -2.663260 3.149796 2.546834 0.000000 1.000000 0.000000 0.915000 0.715000 1 0 1.000000
  0 -0.043660 3.149796 3.711101 0.000000 1.000000 0.000000 0.815000 0.675000 1 0 1.000000
  0 2.575941 3.149796 2.546834 0.000000 1.000000 0.000000 0.715000 0.715000 1 0 1.000000
grenade
  0 2.575941 3.149796 2.546834 0.000000 1.000000 0.000000 0.715000 0.715000 1 0 1.000000
  0 2.575941 3.149796 -2.634154 0.000000 1.000000 0.000000 0.725000 0.925000 1 0 1.000000
  0 -2.663260 3.149796 -2.634154 0.000000 1.000000 0.000000 0.915000 0.925000 1 0 1.000000
grenade
  0 -1.877380 3.149796 1.790060 -0.707114 0.000000 0.707100 0.645000 0.295000 1 0 1.000000
  0 -1.877380 5.536322 1.790060 -0.707100 0.000000 0.707114 0.745000 0.295000 1 0 1.000000
  0 -2.634154 5.536322 -0.043660 -1.000000 0.000000 0.000010 0.745000 0.215000 1 0 1.000000
grenade
  0 1.790061 5.536322 1.790060 0.000000 1.000000 0.000000 0.805000 0.045000 1 0 1.000000
  0 2.517727 5.536322 -0.043660 0.000001 1.000000 0.000000 0.775000 0.115000 1 0 1.000000
  0 1.790061 5.536322 -1.877380 0.000000 1.000000 0.000000 0.805000 0.185000 1 0 1.000000
grenade
  0 1.790061 5.536322 -1.877380 0.000000 1.000000 0.000000 0.805000 0.185000 1 0 1.000000
  0 -0.043660 5.536322 -2.634154 0.000000 1.000000 0.000000 0.875000 0.215000 1 0 1.000000
  0 -1.877380 5.536322 -1.877380 -0.000000 1.000000 0.000000 0.945000 0.185000 1 0 1.000000
grenade
  0 -1.877380 5.536322 -1.877380 -0.000000 1.000000 0.000000 0.945000 0.185000 1 0 1.000000
  0 -2.634154 5.536322 -0.043660 -0.000000 1.000000 0.000000 0.975000 0.115000 1 0 1.000000
  0 1.790061 5.536322 1.790060 0.000000 1.000000 0.000000 0.805000 0.045000 1 0 1.000000
grenade
  0 -2.634154 5.536322 -0.043660 -0.000000 1.000000 0.000000 0.975000 0.115000 1 0 1.000000
  0 -1.877380 5.536322 1.790060 0.000000 1.000000 0.000000 0.945000 0.045000 1 0 1.000000
  0 1.790061 5.536322 1.790060 0.000000 1.000000 0.000000 0.805000 0.045000 1 0 1.000000
grenade
  0 -1.877380 5.536322 1.790060 0.000000 1.000000 0.000000 0.945000 0.045000 1 0 1.000000
  0 -0.043660 5.536322 2.546834 0.000000 1.000000 0.000000 0.875000 0.015000 1 0 1.000000
  0 1.790061 5.536322 1.790060 0.000000 1.000000 0.000000 0.805000 0.045000 1 0 1.000000
grenade
  0 1.790060 3.149796 -1.877380 0.711919 -0.000000 -0.702262 0.645000 0.585000 1 0 1.000000
  0 1.790061 5.536322 -1.877380 0.711905 -0.000000 -0.702275 0.745000 0.585000 1 0 1.000000
  0 2.517727 5.536322 -0.043660 1.000000 -0.000000 -0.000009 0.745000 0.515000 1 0 1.000000
grenade
  0 -0.043660 3.149796 -2.634154 0.381488 -0.000000 -0.924374 0.645000 0.655000 1 0 1.000000
  0 -0.043660 5.536322 -2.634154 0.381488 -0.000000 -0.924374 0.745000 0.655000 1 0 1.000000
  0 1.790061 5.536322 -1.877380 0.711905 -0.000000 -0.702275 0.745000 0.585000 1 0 1.000000
grenade
  0 -2.634154 3.149796 -0.043660 -1.000000 0.000000 -0.000010 0.645000 0.215000 1 0 1.000000
  0 -2.634154 5.536322 -0.043660 -1.000000 0.000000 0.000010 0.745000 0.215000 1 0 1.000000
  0 -1.877380 5.536322 -1.877380 -0.707107 0.000000 -0.707107 0.745000 0.135000 1 0 1.000000
grenade
  0 2.517727 3.149796 -0.043660 1.000000 -0.000000 0.000009 0.645000 0.515000 1 0 1.000000
  0 2.517727 5.536322 -0.043660 1.000000 -0.000000 -0.000009 0.745000 0.515000 1 0 1.000000
  0 1.790061 5.536322 1.790060 0.711919 -0.000000 0.702262 0.745000 0.445000 1 0 1.000000
grenade
  0 -0.043660 3.149796 -2.634154 -0.381488 0.000000 -0.924374 0.645000 0.065000 1 0 1.000000
  0 -1.877380 3.149796 -1.877380 -0.707107 0.000000 -0.707107 0.645000 0.135000 1 0 1.000000
  0 -1.877380 5.536322 -1.877380 -0.707107 0.000000 -0.707107 0.745000 0.135000 1 0 1.000000
grenade
  0 -0.043660 3.149796 2.546834 -0.000010 0.000000 1.000000 0.645000 0.365000 1 0 1.000000
  0 -0.043660 5.536322 2.546834 0.000010 -0.000000 1.000000 0.745000 0.365000 1 0 1.000000
  0 -1.877380 5.536322 1.790060 -0.707100 0.000000 0.707114 0.745000 0.295000 1 0 1.000000
end
