version 1
nodes
0 "root" -1
end
skeleton
time 0
0 0.000000 0.000000 0.000000 0.000000 0.000000 0.000000
end
triangles
lavaball
0 3.609923 0.595204 -5.028192 -0.209044 0.467607 0.858862 0.449219 0.886719
0 1.204186 -7.020039 -1.467629 -0.052580 0.920447 0.387314 0.425781 0.746094
0 7.804542 -5.440581 -0.721059 -0.338651 0.871494 0.354702 0.542969 0.855469
lavaball
0 7.804542 -5.440581 -0.721059 -0.829598 -0.140014 0.540521 0.308594 0.878906
0 7.804542 4.092574 1.748363 -0.704709 -0.466800 0.534306 0.183594 0.707031
0 3.609923 0.595204 -5.028192 -0.461332 -0.373167 0.804934 0.386719 0.699219
lavaball
0 3.609923 0.595204 -5.028192 0.372375 0.293953 0.880300 0.503906 0.488281
0 -5.457857 2.795163 -1.927056 0.841235 0.367378 0.396682 0.425781 0.292969
0 1.204186 -7.020039 -1.467629 0.647825 0.467850 0.601197 0.667969 0.433594
lavaball
0 3.609923 0.595204 -5.028192 -0.461332 -0.373167 0.804934 0.386719 0.699219
0 -0.584696 7.307899 -2.271627 -0.299483 -0.649052 0.699315 0.308594 0.503906
0 -5.457857 2.795163 -1.927056 0.268090 -0.217847 0.938441 0.386719 0.503906
lavaball
0 3.609923 0.595204 -5.028192 -0.461332 -0.373167 0.804934 0.386719 0.699219
0 7.804542 4.092574 1.748363 -0.704709 -0.466800 0.534306 0.183594 0.707031
0 -0.584696 7.307899 -2.271627 -0.299483 -0.649052 0.699315 0.308594 0.503906
lavaball
0 7.804542 -5.440581 -0.721059 -0.829598 -0.140014 0.540521 0.308594 0.878906
0 10.271965 -3.184213 4.217786 -0.863018 -0.126677 0.489033 0.167969 0.878906
0 7.804542 4.092574 1.748363 -0.704709 -0.466800 0.534306 0.183594 0.707031
lavaball
0 1.204186 -7.020039 -1.467629 -0.052580 0.920447 0.387314 0.425781 0.746094
0 2.808011 -6.850811 4.217786 -0.188663 0.892565 -0.409554 0.542969 0.675781
0 7.804542 -5.440581 -0.721059 -0.338651 0.871494 0.354702 0.542969 0.855469
lavaball
0 -5.457857 2.795163 -1.927056 0.841235 0.367378 0.396682 0.425781 0.292969
0 -3.545604 -4.255988 6.457495 0.937428 0.340531 0.072579 0.667969 0.199219
0 1.204186 -7.020039 -1.467629 0.647825 0.467850 0.601197 0.667969 0.433594
lavaball
0 -0.584696 7.307899 -2.271627 0.543426 -0.824999 -0.155127 0.746094 0.863281
0 -3.360547 3.697710 7.204064 0.543426 -0.824999 -0.155127 0.894531 0.660156
0 -5.457857 2.795163 -1.927056 0.674013 -0.734126 -0.082250 0.894531 0.894531
lavaball
0 7.804542 4.092574 1.748363 -0.704709 -0.466800 0.534306 0.183594 0.707031
0 3.609923 7.364308 5.538640 -0.447608 -0.859555 0.246602 0.121094 0.574219
0 -0.584696 7.307899 -2.271627 -0.299483 -0.649052 0.699315 0.308594 0.503906
lavaball
0 7.804542 -5.440581 -0.721059 -0.338651 0.871494 0.354702 0.542969 0.855469
0 2.808011 -6.850811 4.217786 -0.188663 0.892565 -0.409554 0.542969 0.675781
0 10.271965 -3.184213 4.217786 -0.348791 0.710021 -0.611731 0.675781 0.824219
lavaball
0 1.204186 -7.020039 -1.467629 -0.052580 0.920447 0.387314 0.425781 0.746094
0 -3.545604 -4.255988 6.457495 0.337730 0.933165 -0.123048 0.511719 0.535156
0 2.808011 -6.850811 4.217786 -0.188663 0.892565 -0.409554 0.542969 0.675781
lavaball
0 -5.457857 2.795163 -1.927056 0.841235 0.367378 0.396682 0.425781 0.292969
0 -3.360547 3.697710 7.204064 0.974656 -0.001680 -0.223701 0.527344 0.128906
0 -3.545604 -4.255988 6.457495 0.937428 0.340531 0.072579 0.667969 0.199219
lavaball
0 -0.584696 7.307899 -2.271627 0.543426 -0.824999 -0.155127 0.746094 0.863281
0 3.609923 7.364308 5.538640 0.413692 -0.884474 -0.215791 0.707031 0.644531
0 -3.360547 3.697710 7.204064 0.543426 -0.824999 -0.155127 0.894531 0.660156
lavaball
0 7.804542 4.092574 1.748363 -0.766545 -0.423692 -0.482592 0.121094 0.285156
0 10.271965 -3.184213 4.217786 -0.683813 -0.351827 -0.639232 0.292969 0.199219
0 3.609923 7.364308 5.538640 -0.683813 -0.351827 -0.639232 0.113281 0.441406
lavaball
0 2.808011 -6.850811 4.217786 -0.188663 0.892565 -0.409554 0.542969 0.675781
0 2.191155 0.708022 9.616058 -0.267901 0.545357 -0.794239 0.675781 0.613281
0 10.271965 -3.184213 4.217786 -0.348791 0.710021 -0.611731 0.675781 0.824219
lavaball
0 -3.545604 -4.255988 6.457495 0.185051 0.366367 -0.911883 0.839844 0.199219
0 2.191155 0.708022 9.616058 0.166089 0.078418 -0.982988 0.699219 0.332031
0 2.808011 -6.850811 4.217786 -0.051276 0.577635 -0.814683 0.722656 0.128906
lavaball
0 -3.360547 3.697710 7.204064 0.273908 -0.242263 -0.930743 0.839844 0.394531
0 2.191155 0.708022 9.616058 0.166089 0.078418 -0.982988 0.699219 0.332031
0 -3.545604 -4.255988 6.457495 0.185051 0.366367 -0.911883 0.839844 0.199219
lavaball
0 3.609923 7.364308 5.538640 0.079036 -0.532915 -0.842470 0.714844 0.488281
0 2.191155 0.708022 9.616058 0.166089 0.078418 -0.982988 0.699219 0.332031
0 -3.360547 3.697710 7.204064 0.273908 -0.242263 -0.930743 0.839844 0.394531
lavaball
0 10.271965 -3.184213 4.217786 -0.683813 -0.351827 -0.639232 0.292969 0.199219
0 2.191155 0.708022 9.616058 -0.626323 -0.305769 -0.717095 0.292969 0.457031
0 3.609923 7.364308 5.538640 -0.683813 -0.351827 -0.639232 0.113281 0.441406
end
