version 1
nodes
0 "root" -1
end
skeleton
  time 0
  0 0.000000 0.000000 0.000000 0.000000 0.000000 0.000000
end
triangles
nail
  0 -0.004483 -10.355544 -0.004482 -0.000272 -1.000000 -0.000283 0.731250 0.056250 1 0 1.000000
  0 -1.142871 0.000000 -0.004482 -0.994010 -0.109272 -0.001860 0.731250 0.931250 1 0 1.000000
  0 -0.004482 0.000000 -1.142871 -0.001860 -0.109272 -0.994010 0.556250 0.931250 1 0 1.000000
nail
  0 -0.004483 -10.355544 -0.004482 -0.000272 -1.000000 -0.000283 0.731250 0.056250 1 0 1.000000
  0 -0.004482 0.000000 1.142870 -0.001859 -0.110122 0.993916 0.906250 0.931250 1 0 1.000000
  0 -1.142871 0.000000 -0.004482 -0.994010 -0.109272 -0.001860 0.731250 0.931250 1 0 1.000000
nail
  0 -0.004483 -10.355544 -0.004482 -0.000272 -1.000000 -0.000283 0.731250 0.056250 1 0 1.000000
  0 1.142870 -0.000000 -0.004482 0.993916 -0.110122 -0.001859 0.731250 0.931250 1 0 1.000000
  0 -0.004482 0.000000 1.142870 -0.001859 -0.110122 0.993916 0.906250 0.931250 1 0 1.000000
nail
  0 -0.004482 0.000000 -1.142871 0.000834 0.827775 0.561059 0.281250 0.956250 1 0 1.000000
  0 -0.004482 -0.771590 -0.004482 0.001538 0.999998 0.001537 0.281250 0.731250 1 0 1.000000
  0 1.142870 -0.000000 -0.004482 -0.558044 0.829811 0.000829 0.056250 0.731250 1 0 1.000000
nail
  0 -0.004482 0.000000 1.142870 0.000829 0.829811 -0.558044 0.281250 0.493750 1 0 1.000000
  0 -0.004482 -0.771590 -0.004482 0.001538 0.999998 0.001537 0.281250 0.731250 1 0 1.000000
  0 -1.142871 0.000000 -0.004482 0.561059 0.827775 0.000834 0.518750 0.731250 1 0 1.000000
nail
  0 -1.142871 0.000000 -0.004482 0.561059 0.827775 0.000834 0.518750 0.731250 1 0 1.000000
  0 -0.004482 -0.771590 -0.004482 0.001538 0.999998 0.001537 0.281250 0.731250 1 0 1.000000
  0 -0.004482 0.000000 -1.142871 0.000834 0.827775 0.561059 0.281250 0.956250 1 0 1.000000
nail
  0 1.142870 -0.000000 -0.004482 -0.558044 0.829811 0.000829 0.056250 0.731250 1 0 1.000000
  0 -0.004482 -0.771590 -0.004482 0.001538 0.999998 0.001537 0.281250 0.731250 1 0 1.000000
  0 -0.004482 0.000000 1.142870 0.000829 0.829811 -0.558044 0.281250 0.493750 1 0 1.000000
nail
  0 -0.004483 -10.355544 -0.004482 -0.000272 -1.000000 -0.000283 0.731250 0.056250 1 0 1.000000
  0 -0.004482 0.000000 -1.142871 -0.001860 -0.109272 -0.994010 0.556250 0.931250 1 0 1.000000
  0 1.142870 -0.000000 -0.004482 0.993916 -0.110122 -0.001859 0.731250 0.931250 1 0 1.000000
end
