version 1
nodes
0 "root" -1
end
skeleton
  time 0
  0 0.000000 0.000000 0.000000 0.000000 0.000000 0.000000
end
triangles
rocket
  0 1.536224 -7.298596 -1.585385 0.519928 -0.671837 -0.527551 0.495000 0.395000 1 0 1.000000
  0 2.175293 -7.298596 -0.012291 0.738420 -0.674317 0.005719 0.445000 0.435000 1 0 1.000000
  0 -0.012291 -8.112950 -0.012291 0.000995 -0.999999 0.000995 0.525000 0.505000 1 0 1.000000
rocket
  0 3.133898 -5.018403 -0.012291 0.923379 -0.383837 0.006340 0.385000 0.385000 1 0 1.000000
  0 2.175293 -5.018403 2.175294 0.658544 -0.372661 0.653792 0.355000 0.455000 1 0 1.000000
  0 2.175293 -7.298596 -0.012291 0.738420 -0.674317 0.005719 0.445000 0.435000 1 0 1.000000
rocket
  0 3.109318 2.636534 -0.012291 0.999986 0.001916 0.004886 0.045000 0.295000 1 0 1.000000
  0 3.133898 -5.018403 -0.012291 0.999986 0.001917 0.004971 0.335000 0.295000 1 0 1.000000
  0 2.175294 2.636535 -2.249034 0.702479 0.001290 -0.711703 0.045000 0.175000 1 0 1.000000
rocket
  0 1.536224 -7.298596 -1.585385 0.519928 -0.671837 -0.527551 0.495000 0.395000 1 0 1.000000
  0 -0.012291 -8.112950 -0.012291 0.000995 -0.999999 0.000995 0.525000 0.505000 1 0 1.000000
  0 -0.012291 -7.298596 -2.199875 0.283636 -0.645016 -0.709581 0.585000 0.375000 1 0 1.000000
rocket
  0 -3.133900 -5.018403 -0.012291 -0.925369 -0.379054 0.003265 0.385000 0.635000 1 0 1.000000
  0 -2.249035 -5.018403 -2.249034 -0.653391 -0.382309 -0.653391 0.435000 0.715000 1 0 1.000000
  0 -2.199875 -7.298596 -0.012291 -0.739516 -0.673134 0.002436 0.445000 0.595000 1 0 1.000000
rocket
  0 2.175294 2.636535 -2.249034 0.702479 0.001290 -0.711703 0.045000 0.175000 1 0 1.000000
  0 2.175293 -5.018403 -2.249034 0.699823 -0.000000 -0.714316 0.335000 0.185000 1 0 1.000000
  0 -0.012291 2.636535 -3.133900 0.374980 -0.000000 -0.927033 0.045000 0.065000 1 0 1.000000
rocket
  0 -0.012291 -8.112950 -0.012291 0.000995 -0.999999 0.000995 0.525000 0.505000 1 0 1.000000
  0 -0.012291 -7.298596 2.175294 -0.001053 -0.674552 0.738226 0.415000 0.505000 1 0 1.000000
  0 -1.585386 -7.298596 1.536224 -0.526427 -0.670067 0.523340 0.425000 0.555000 1 0 1.000000
rocket
  0 2.175293 -5.018403 2.175294 0.658544 -0.372661 0.653792 0.355000 0.455000 1 0 1.000000
  0 -0.012291 -5.018403 3.133898 0.000143 -0.383378 0.923592 0.345000 0.505000 1 0 1.000000
  0 1.536224 -7.298596 1.536224 0.527636 -0.669707 0.522583 0.425000 0.475000 1 0 1.000000
rocket
  0 -0.012291 2.636535 -3.133900 -0.367864 0.000000 -0.929879 0.045000 0.945000 1 0 1.000000
  0 -0.012291 -5.018403 -3.133900 -0.367864 0.000000 -0.929879 0.335000 0.955000 1 0 1.000000
  0 -2.249034 2.636535 -2.249034 -0.707115 0.000000 -0.707099 0.045000 0.835000 1 0 1.000000
rocket
  0 -0.012291 -8.112950 -0.012291 0.000995 -0.999999 0.000995 0.525000 0.505000 1 0 1.000000
  0 -1.585386 -7.298596 1.536224 -0.526427 -0.670067 0.523340 0.425000 0.555000 1 0 1.000000
  0 -2.199875 -7.298596 -0.012291 -0.739516 -0.673134 0.002436 0.445000 0.595000 1 0 1.000000
rocket
  0 -1.585386 -7.298596 -1.585385 -0.523403 -0.672383 -0.523403 0.495000 0.635000 1 0 1.000000
  0 -2.249035 -5.018403 -2.249034 -0.653391 -0.382309 -0.653391 0.435000 0.715000 1 0 1.000000
  0 -0.012291 -7.298596 -2.199875 -0.278619 -0.646957 -0.709802 0.585000 0.665000 1 0 1.000000
rocket
  0 -2.249034 2.636535 -2.249034 -0.707115 0.000000 -0.707099 0.045000 0.835000 1 0 1.000000
  0 -2.249035 -5.018403 -2.249034 -0.707099 0.000000 -0.707115 0.335000 0.825000 1 0 1.000000
  0 -3.133900 2.636535 -0.012291 -0.999993 0.000000 0.003842 0.045000 0.725000 1 0 1.000000
rocket
  0 -0.012291 -8.112950 -0.012291 0.000995 -0.999999 0.000995 0.525000 0.505000 1 0 1.000000
  0 -1.585386 -7.298596 -1.585385 -0.523403 -0.672383 -0.523403 0.495000 0.635000 1 0 1.000000
  0 -0.012291 -7.298596 -2.199875 -0.278619 -0.646957 -0.709802 0.585000 0.665000 1 0 1.000000
rocket
  0 1.536224 -7.298596 -1.585385 0.519928 -0.671837 -0.527551 0.495000 0.395000 1 0 1.000000
  0 2.175293 -5.018403 -2.249034 0.647306 -0.375905 -0.663092 0.435000 0.315000 1 0 1.000000
  0 3.133898 -5.018403 -0.012291 0.923379 -0.383837 0.006340 0.385000 0.385000 1 0 1.000000
rocket
  0 -3.133900 2.636535 -0.012291 -0.999993 0.000000 0.003842 0.045000 0.725000 1 0 1.000000
  0 -3.133900 -5.018403 -0.012291 -0.999993 0.000000 0.003822 0.335000 0.705000 1 0 1.000000
  0 -2.249034 2.636535 2.175294 -0.714316 0.000000 0.699823 0.045000 0.615000 1 0 1.000000
rocket
  0 -0.012291 2.636535 2.175294 0.002753 -0.000000 0.999996 0.635000 0.365000 1 0 1.000000
  0 1.536224 2.636535 1.536224 0.707101 -0.000000 0.707113 0.635000 0.435000 1 0 1.000000
  0 -0.012291 4.753857 2.175294 0.002770 -0.000000 0.999996 0.735000 0.365000 1 0 1.000000
rocket
  0 -0.012291 -5.018403 3.133898 0.000143 -0.383378 0.923592 0.345000 0.505000 1 0 1.000000
  0 -2.249035 -5.018403 2.175294 -0.659947 -0.379607 0.648358 0.355000 0.565000 1 0 1.000000
  0 -0.012291 -7.298596 2.175294 -0.001053 -0.674552 0.738226 0.415000 0.505000 1 0 1.000000
rocket
  0 -2.249034 2.636535 2.175294 -0.714316 0.000000 0.699823 0.045000 0.615000 1 0 1.000000
  0 -2.249035 -5.018403 2.175294 -0.714331 0.000000 0.699808 0.335000 0.595000 1 0 1.000000
  0 -0.012291 2.636535 3.133898 0.004065 -0.000000 0.999992 0.045000 0.505000 1 0 1.000000
rocket
  0 -0.012291 -5.018403 -3.133900 0.350555 -0.355002 -0.866651 0.525000 0.235000 1 0 1.000000
  0 2.175293 -5.018403 -2.249034 0.647306 -0.375905 -0.663092 0.435000 0.315000 1 0 1.000000
  0 -0.012291 -7.298596 -2.199875 0.283636 -0.645016 -0.709581 0.585000 0.375000 1 0 1.000000
rocket
  0 -0.012291 -8.112950 -0.012291 0.000995 -0.999999 0.000995 0.525000 0.505000 1 0 1.000000
  0 1.536224 -7.298596 1.536224 0.527636 -0.669707 0.522583 0.425000 0.475000 1 0 1.000000
  0 -0.012291 -7.298596 2.175294 -0.001053 -0.674552 0.738226 0.415000 0.505000 1 0 1.000000
rocket
  0 -0.012291 2.636535 3.133898 0.004065 -0.000000 0.999992 0.045000 0.505000 1 0 1.000000
  0 -0.012291 -5.018403 3.133898 0.004043 -0.000000 0.999992 0.335000 0.495000 1 0 1.000000
  0 2.175294 2.636535 2.175294 0.710452 -0.000000 0.703745 0.045000 0.405000 1 0 1.000000
rocket
  0 -0.012291 -8.112950 -0.012291 0.000995 -0.999999 0.000995 0.525000 0.505000 1 0 1.000000
  0 2.175293 -7.298596 -0.012291 0.738420 -0.674317 0.005719 0.445000 0.435000 1 0 1.000000
  0 1.536224 -7.298596 1.536224 0.527636 -0.669707 0.522583 0.425000 0.475000 1 0 1.000000
rocket
  0 -1.585386 -7.298596 1.536224 -0.526427 -0.670067 0.523340 0.425000 0.555000 1 0 1.000000
  0 -2.249035 -5.018403 2.175294 -0.659947 -0.379607 0.648358 0.355000 0.565000 1 0 1.000000
  0 -2.199875 -7.298596 -0.012291 -0.739516 -0.673134 0.002436 0.445000 0.595000 1 0 1.000000
rocket
  0 2.175294 2.636535 2.175294 0.710452 -0.000000 0.703745 0.045000 0.405000 1 0 1.000000
  0 2.175293 -5.018403 2.175294 0.707740 0.001276 0.706471 0.335000 0.405000 1 0 1.000000
  0 3.109318 2.636534 -0.012291 0.999986 0.001916 0.004886 0.045000 0.295000 1 0 1.000000
rocket
  0 2.175294 2.636535 2.175294 0.000000 1.000000 0.000000 0.705000 0.725000 1 0 1.000000
  0 -2.249034 2.636535 -2.249034 0.000000 1.000000 0.000000 0.915000 0.925000 1 0 1.000000
  0 -2.249034 2.636535 2.175294 0.000000 1.000000 0.000000 0.915000 0.725000 1 0 1.000000
rocket
  0 -0.012291 -8.112950 -0.012291 0.000995 -0.999999 0.000995 0.525000 0.505000 1 0 1.000000
  0 -2.199875 -7.298596 -0.012291 -0.739516 -0.673134 0.002436 0.445000 0.595000 1 0 1.000000
  0 -1.585386 -7.298596 -1.585385 -0.523403 -0.672383 -0.523403 0.495000 0.635000 1 0 1.000000
rocket
  0 -2.199875 2.636535 -0.012291 -0.999996 0.000000 0.002676 0.635000 0.205000 1 0 1.000000
  0 -1.585385 2.636535 1.536224 -0.709976 0.000000 0.704226 0.635000 0.285000 1 0 1.000000
  0 -2.199875 4.753857 -0.012291 -0.999996 0.000000 0.002692 0.735000 0.205000 1 0 1.000000
rocket
  0 -0.012290 6.708309 2.617727 0.000150 0.090393 0.995906 0.815000 0.445000 1 0 1.000000
  0 -1.585385 4.753857 1.536224 -0.695038 -0.217321 0.685342 0.765000 0.375000 1 0 1.000000
  0 -0.012291 4.753857 2.175294 0.001765 -0.221844 0.975081 0.755000 0.435000 1 0 1.000000
rocket
  0 -1.880340 6.708309 1.855759 -0.701349 0.090426 0.707060 0.825000 0.395000 1 0 1.000000
  0 -1.585385 4.753857 1.536224 -0.695038 -0.217321 0.685342 0.765000 0.375000 1 0 1.000000
  0 -0.012290 6.708309 2.617727 0.000150 0.090393 0.995906 0.815000 0.445000 1 0 1.000000
rocket
  0 2.175294 2.636535 -0.012291 0.999996 -0.000000 0.002770 0.635000 0.505000 1 0 1.000000
  0 1.536224 2.636535 -1.585385 0.704238 -0.000000 -0.709964 0.635000 0.585000 1 0 1.000000
  0 2.175294 4.753857 -0.012291 0.999996 -0.000000 0.002753 0.735000 0.505000 1 0 1.000000
rocket
  0 2.175293 -7.298596 -0.012291 0.738420 -0.674317 0.005719 0.445000 0.435000 1 0 1.000000
  0 2.175293 -5.018403 2.175294 0.658544 -0.372661 0.653792 0.355000 0.455000 1 0 1.000000
  0 1.536224 -7.298596 1.536224 0.527636 -0.669707 0.522583 0.425000 0.475000 1 0 1.000000
rocket
  0 1.536224 2.636535 -1.585385 0.704238 -0.000000 -0.709964 0.635000 0.585000 1 0 1.000000
  0 -0.012291 2.636535 -2.199875 0.368845 -0.000000 -0.929491 0.635000 0.665000 1 0 1.000000
  0 1.536224 4.753857 -1.585385 0.704225 -0.000000 -0.709976 0.735000 0.585000 1 0 1.000000
rocket
  0 -1.585385 2.636535 -1.585385 -0.707107 0.000000 -0.707107 0.635000 0.125000 1 0 1.000000
  0 -2.199875 2.636535 -0.012291 -0.999996 0.000000 0.002676 0.635000 0.205000 1 0 1.000000
  0 -1.585385 4.753857 -1.585385 -0.707107 0.000000 -0.707107 0.735000 0.125000 1 0 1.000000
rocket
  0 1.536224 2.636535 1.536224 0.707101 -0.000000 0.707113 0.635000 0.435000 1 0 1.000000
  0 2.175294 2.636535 -0.012291 0.999996 -0.000000 0.002770 0.635000 0.505000 1 0 1.000000
  0 1.536224 4.753857 1.536224 0.707113 -0.000000 0.707101 0.735000 0.435000 1 0 1.000000
rocket
  0 -0.012291 4.753857 -2.199875 -0.363850 0.000000 -0.931457 0.735000 0.055000 1 0 1.000000
  0 -0.012291 2.636535 -2.199875 -0.363850 0.000000 -0.931457 0.635000 0.055000 1 0 1.000000
  0 -1.585385 4.753857 -1.585385 -0.707107 0.000000 -0.707107 0.735000 0.125000 1 0 1.000000
rocket
  0 -1.585385 2.636535 1.536224 -0.709976 0.000000 0.704226 0.635000 0.285000 1 0 1.000000
  0 -0.012291 2.636535 2.175294 0.002753 -0.000000 0.999996 0.635000 0.365000 1 0 1.000000
  0 -1.585385 4.753857 1.536224 -0.709964 0.000000 0.704238 0.735000 0.285000 1 0 1.000000
rocket
  0 2.175294 2.636535 -2.249034 0.702479 0.001290 -0.711703 0.045000 0.175000 1 0 1.000000
  0 3.133898 -5.018403 -0.012291 0.999986 0.001917 0.004971 0.335000 0.295000 1 0 1.000000
  0 2.175293 -5.018403 -2.249034 0.699823 -0.000000 -0.714316 0.335000 0.185000 1 0 1.000000
rocket
  0 -2.199875 -7.298596 -0.012291 -0.739516 -0.673134 0.002436 0.445000 0.595000 1 0 1.000000
  0 -2.249035 -5.018403 -2.249034 -0.653391 -0.382309 -0.653391 0.435000 0.715000 1 0 1.000000
  0 -1.585386 -7.298596 -1.585385 -0.523403 -0.672383 -0.523403 0.495000 0.635000 1 0 1.000000
rocket
  0 -0.012291 2.636535 -3.133900 0.374980 -0.000000 -0.927033 0.045000 0.065000 1 0 1.000000
  0 2.175293 -5.018403 -2.249034 0.699823 -0.000000 -0.714316 0.335000 0.185000 1 0 1.000000
  0 -0.012291 -5.018403 -3.133900 0.374980 -0.000000 -0.927033 0.335000 0.065000 1 0 1.000000
rocket
  0 1.536224 -7.298596 1.536224 0.527636 -0.669707 0.522583 0.425000 0.475000 1 0 1.000000
  0 -0.012291 -5.018403 3.133898 0.000143 -0.383378 0.923592 0.345000 0.505000 1 0 1.000000
  0 -0.012291 -7.298596 2.175294 -0.001053 -0.674552 0.738226 0.415000 0.505000 1 0 1.000000
rocket
  0 -2.249034 2.636535 -2.249034 -0.707115 0.000000 -0.707099 0.045000 0.835000 1 0 1.000000
  0 -0.012291 -5.018403 -3.133900 -0.367864 0.000000 -0.929879 0.335000 0.955000 1 0 1.000000
  0 -2.249035 -5.018403 -2.249034 -0.707099 0.000000 -0.707115 0.335000 0.825000 1 0 1.000000
rocket
  0 -0.012291 -7.298596 -2.199875 -0.278619 -0.646957 -0.709802 0.585000 0.665000 1 0 1.000000
  0 -2.249035 -5.018403 -2.249034 -0.653391 -0.382309 -0.653391 0.435000 0.715000 1 0 1.000000
  0 -0.012291 -5.018403 -3.133900 -0.343771 -0.355954 -0.868975 0.525000 0.795000 1 0 1.000000
rocket
  0 -3.133900 2.636535 -0.012291 -0.999993 0.000000 0.003842 0.045000 0.725000 1 0 1.000000
  0 -2.249035 -5.018403 -2.249034 -0.707099 0.000000 -0.707115 0.335000 0.825000 1 0 1.000000
  0 -3.133900 -5.018403 -0.012291 -0.999993 0.000000 0.003822 0.335000 0.705000 1 0 1.000000
rocket
  0 1.536224 -7.298596 -1.585385 0.519928 -0.671837 -0.527551 0.495000 0.395000 1 0 1.000000
  0 3.133898 -5.018403 -0.012291 0.923379 -0.383837 0.006340 0.385000 0.385000 1 0 1.000000
  0 2.175293 -7.298596 -0.012291 0.738420 -0.674317 0.005719 0.445000 0.435000 1 0 1.000000
rocket
  0 -2.249034 2.636535 2.175294 -0.714316 0.000000 0.699823 0.045000 0.615000 1 0 1.000000
  0 -3.133900 -5.018403 -0.012291 -0.999993 0.000000 0.003822 0.335000 0.705000 1 0 1.000000
  0 -2.249035 -5.018403 2.175294 -0.714331 0.000000 0.699808 0.335000 0.595000 1 0 1.000000
rocket
  0 -0.012291 4.753857 2.175294 0.002770 -0.000000 0.999996 0.735000 0.365000 1 0 1.000000
  0 1.536224 2.636535 1.536224 0.707101 -0.000000 0.707113 0.635000 0.435000 1 0 1.000000
  0 1.536224 4.753857 1.536224 0.707113 -0.000000 0.707101 0.735000 0.435000 1 0 1.000000
rocket
  0 -0.012291 -7.298596 2.175294 -0.001053 -0.674552 0.738226 0.415000 0.505000 1 0 1.000000
  0 -2.249035 -5.018403 2.175294 -0.659947 -0.379607 0.648358 0.355000 0.565000 1 0 1.000000
  0 -1.585386 -7.298596 1.536224 -0.526427 -0.670067 0.523340 0.425000 0.555000 1 0 1.000000
rocket
  0 -0.012291 2.636535 3.133898 0.004065 -0.000000 0.999992 0.045000 0.505000 1 0 1.000000
  0 -2.249035 -5.018403 2.175294 -0.714331 0.000000 0.699808 0.335000 0.595000 1 0 1.000000
  0 -0.012291 -5.018403 3.133898 0.004043 -0.000000 0.999992 0.335000 0.495000 1 0 1.000000
rocket
  0 1.536224 -7.298596 -1.585385 0.519928 -0.671837 -0.527551 0.495000 0.395000 1 0 1.000000
  0 -0.012291 -7.298596 -2.199875 0.283636 -0.645016 -0.709581 0.585000 0.375000 1 0 1.000000
  0 2.175293 -5.018403 -2.249034 0.647306 -0.375905 -0.663092 0.435000 0.315000 1 0 1.000000
rocket
  0 2.175294 2.636535 2.175294 0.710452 -0.000000 0.703745 0.045000 0.405000 1 0 1.000000
  0 -0.012291 -5.018403 3.133898 0.004043 -0.000000 0.999992 0.335000 0.495000 1 0 1.000000
  0 2.175293 -5.018403 2.175294 0.707740 0.001276 0.706471 0.335000 0.405000 1 0 1.000000
rocket
  0 -2.199875 -7.298596 -0.012291 -0.739516 -0.673134 0.002436 0.445000 0.595000 1 0 1.000000
  0 -2.249035 -5.018403 2.175294 -0.659947 -0.379607 0.648358 0.355000 0.565000 1 0 1.000000
  0 -3.133900 -5.018403 -0.012291 -0.925369 -0.379054 0.003265 0.385000 0.635000 1 0 1.000000
rocket
  0 3.109318 2.636534 -0.012291 0.999986 0.001916 0.004886 0.045000 0.295000 1 0 1.000000
  0 2.175293 -5.018403 2.175294 0.707740 0.001276 0.706471 0.335000 0.405000 1 0 1.000000
  0 3.133898 -5.018403 -0.012291 0.999986 0.001917 0.004971 0.335000 0.295000 1 0 1.000000
rocket
  0 2.175294 2.636535 -2.249034 0.000000 1.000000 0.000000 0.705000 0.935000 1 0 1.000000
  0 2.175294 2.636535 2.175294 0.000000 1.000000 0.000000 0.705000 0.725000 1 0 1.000000
  0 3.109318 2.636534 -0.012291 -0.000000 1.000000 0.000000 0.665000 0.825000 1 0 1.000000
rocket
  0 -2.249034 2.636535 -2.249034 0.000000 1.000000 0.000000 0.915000 0.925000 1 0 1.000000
  0 2.175294 2.636535 -2.249034 0.000000 1.000000 0.000000 0.705000 0.935000 1 0 1.000000
  0 -0.012291 2.636535 -3.133900 0.000000 1.000000 0.000000 0.805000 0.975000 1 0 1.000000
rocket
  0 -2.249034 2.636535 2.175294 0.000000 1.000000 0.000000 0.915000 0.725000 1 0 1.000000
  0 -2.249034 2.636535 -2.249034 0.000000 1.000000 0.000000 0.915000 0.925000 1 0 1.000000
  0 -3.133900 2.636535 -0.012291 0.000000 1.000000 0.000000 0.955000 0.825000 1 0 1.000000
rocket
  0 2.175294 2.636535 2.175294 0.000000 1.000000 0.000000 0.705000 0.725000 1 0 1.000000
  0 -2.249034 2.636535 2.175294 0.000000 1.000000 0.000000 0.915000 0.725000 1 0 1.000000
  0 -0.012291 2.636535 3.133898 0.000000 1.000000 0.000000 0.805000 0.685000 1 0 1.000000
rocket
  0 -2.249034 2.636535 -2.249034 0.000000 1.000000 0.000000 0.915000 0.925000 1 0 1.000000
  0 2.175294 2.636535 2.175294 0.000000 1.000000 0.000000 0.705000 0.725000 1 0 1.000000
  0 2.175294 2.636535 -2.249034 0.000000 1.000000 0.000000 0.705000 0.935000 1 0 1.000000
rocket
  0 -2.199875 4.753857 -0.012291 -0.999996 0.000000 0.002692 0.735000 0.205000 1 0 1.000000
  0 -1.585385 2.636535 1.536224 -0.709976 0.000000 0.704226 0.635000 0.285000 1 0 1.000000
  0 -1.585385 4.753857 1.536224 -0.709964 0.000000 0.704238 0.735000 0.285000 1 0 1.000000
rocket
  0 -0.012290 6.708309 -2.666888 0.382252 0.083716 -0.920258 0.905000 0.605000 1 0 1.000000
  0 1.536224 4.753857 -1.585385 0.688755 -0.222419 -0.690033 0.805000 0.595000 1 0 1.000000
  0 -0.012291 4.753857 -2.199875 0.360071 -0.216817 -0.907380 0.845000 0.655000 1 0 1.000000
rocket
  0 1.855759 6.708309 -1.880340 0.708584 0.092551 -0.699530 0.865000 0.555000 1 0 1.000000
  0 1.536224 4.753857 -1.585385 0.688755 -0.222419 -0.690033 0.805000 0.595000 1 0 1.000000
  0 -0.012290 6.708309 -2.666888 0.382252 0.083716 -0.920258 0.905000 0.605000 1 0 1.000000
rocket
  0 -1.880340 6.708309 -1.880340 -0.701978 0.093913 -0.705980 0.865000 0.305000 1 0 1.000000
  0 -0.012291 4.753857 -2.199875 -0.368187 -0.203594 -0.907187 0.845000 0.235000 1 0 1.000000
  0 -1.585385 4.753857 -1.585385 -0.685520 -0.215533 -0.695420 0.815000 0.275000 1 0 1.000000
rocket
  0 -0.012290 6.708309 -2.666888 -0.386834 0.079316 -0.918732 0.895000 0.265000 1 0 1.000000
  0 -0.012291 4.753857 -2.199875 -0.368187 -0.203594 -0.907187 0.845000 0.235000 1 0 1.000000
  0 -1.880340 6.708309 -1.880340 -0.701978 0.093913 -0.705980 0.865000 0.305000 1 0 1.000000
rocket
  0 -1.880340 6.708309 1.855759 -0.701349 0.090426 0.707060 0.825000 0.395000 1 0 1.000000
  0 -2.199875 4.753857 -0.012291 -0.973840 -0.227080 0.008344 0.785000 0.325000 1 0 1.000000
  0 -1.585385 4.753857 1.536224 -0.695038 -0.217321 0.685342 0.765000 0.375000 1 0 1.000000
rocket
  0 -2.666887 6.708309 -0.012291 -0.996035 0.088920 0.002800 0.835000 0.355000 1 0 1.000000
  0 -2.199875 4.753857 -0.012291 -0.973840 -0.227080 0.008344 0.785000 0.325000 1 0 1.000000
  0 -1.880340 6.708309 1.855759 -0.701349 0.090426 0.707060 0.825000 0.395000 1 0 1.000000
rocket
  0 1.855759 6.708309 1.855759 0.704602 0.089118 0.703984 0.825000 0.475000 1 0 1.000000
  0 -0.012291 4.753857 2.175294 0.001765 -0.221844 0.975081 0.755000 0.435000 1 0 1.000000
  0 1.536224 4.753857 1.536224 0.689894 -0.224208 0.688315 0.755000 0.485000 1 0 1.000000
rocket
  0 -0.012290 6.708309 2.617727 0.000150 0.090393 0.995906 0.815000 0.445000 1 0 1.000000
  0 -0.012291 4.753857 2.175294 0.001765 -0.221844 0.975081 0.755000 0.435000 1 0 1.000000
  0 1.855759 6.708309 1.855759 0.704602 0.089118 0.703984 0.825000 0.475000 1 0 1.000000
rocket
  0 2.617727 6.708309 -0.012291 0.995962 0.089778 0.000443 0.835000 0.515000 1 0 1.000000
  0 1.536224 4.753857 1.536224 0.689894 -0.224208 0.688315 0.755000 0.485000 1 0 1.000000
  0 2.175294 4.753857 -0.012291 0.975402 -0.220421 0.002457 0.775000 0.535000 1 0 1.000000
rocket
  0 1.855759 6.708309 1.855759 0.704602 0.089118 0.703984 0.825000 0.475000 1 0 1.000000
  0 1.536224 4.753857 1.536224 0.689894 -0.224208 0.688315 0.755000 0.485000 1 0 1.000000
  0 2.617727 6.708309 -0.012291 0.995962 0.089778 0.000443 0.835000 0.515000 1 0 1.000000
rocket
  0 2.175294 4.753857 -0.012291 0.999996 -0.000000 0.002753 0.735000 0.505000 1 0 1.000000
  0 1.536224 2.636535 -1.585385 0.704238 -0.000000 -0.709964 0.635000 0.585000 1 0 1.000000
  0 1.536224 4.753857 -1.585385 0.704225 -0.000000 -0.709976 0.735000 0.585000 1 0 1.000000
rocket
  0 1.536224 4.753857 -1.585385 0.704225 -0.000000 -0.709976 0.735000 0.585000 1 0 1.000000
  0 -0.012291 2.636535 -2.199875 0.368845 -0.000000 -0.929491 0.635000 0.665000 1 0 1.000000
  0 -0.012291 4.753857 -2.199875 0.368845 -0.000000 -0.929491 0.735000 0.665000 1 0 1.000000
rocket
  0 -1.585385 4.753857 -1.585385 -0.707107 0.000000 -0.707107 0.735000 0.125000 1 0 1.000000
  0 -2.199875 2.636535 -0.012291 -0.999996 0.000000 0.002676 0.635000 0.205000 1 0 1.000000
  0 -2.199875 4.753857 -0.012291 -0.999996 0.000000 0.002692 0.735000 0.205000 1 0 1.000000
rocket
  0 1.536224 4.753857 1.536224 0.707113 -0.000000 0.707101 0.735000 0.435000 1 0 1.000000
  0 2.175294 2.636535 -0.012291 0.999996 -0.000000 0.002770 0.635000 0.505000 1 0 1.000000
  0 2.175294 4.753857 -0.012291 0.999996 -0.000000 0.002753 0.735000 0.505000 1 0 1.000000
rocket
  0 -1.585385 4.753857 -1.585385 -0.707107 0.000000 -0.707107 0.735000 0.125000 1 0 1.000000
  0 -0.012291 2.636535 -2.199875 -0.363850 0.000000 -0.931457 0.635000 0.055000 1 0 1.000000
  0 -1.585385 2.636535 -1.585385 -0.707107 0.000000 -0.707107 0.635000 0.125000 1 0 1.000000
rocket
  0 -1.585385 4.753857 1.536224 -0.709964 0.000000 0.704238 0.735000 0.285000 1 0 1.000000
  0 -0.012291 2.636535 2.175294 0.002753 -0.000000 0.999996 0.635000 0.365000 1 0 1.000000
  0 -0.012291 4.753857 2.175294 0.002770 -0.000000 0.999996 0.735000 0.365000 1 0 1.000000
rocket
  0 -0.012290 12.653100 -0.012291 0.000791 0.999999 0.000791 0.995000 0.435000 1 0 1.000000
  0 -2.666887 6.708309 -0.012291 -0.996035 0.088920 0.002800 0.835000 0.355000 1 0 1.000000
  0 -1.880340 6.708309 1.855759 -0.701349 0.090426 0.707060 0.825000 0.395000 1 0 1.000000
rocket
  0 -0.012290 12.653100 -0.012291 0.000791 0.999999 0.000791 0.995000 0.435000 1 0 1.000000
  0 1.855759 6.708309 1.855759 0.704602 0.089118 0.703984 0.825000 0.475000 1 0 1.000000
  0 2.617727 6.708309 -0.012291 0.995962 0.089778 0.000443 0.835000 0.515000 1 0 1.000000
rocket
  0 -0.012290 12.653100 -0.012291 0.000791 0.999999 0.000791 0.995000 0.435000 1 0 1.000000
  0 1.855759 6.708309 -1.880340 0.708584 0.092551 -0.699530 0.865000 0.555000 1 0 1.000000
  0 -0.012290 6.708309 -2.666888 0.382252 0.083716 -0.920258 0.905000 0.605000 1 0 1.000000
rocket
  0 -0.012290 12.653100 -0.012291 0.000791 0.999999 0.000791 0.995000 0.435000 1 0 1.000000
  0 -0.012290 6.708309 -2.666888 -0.386834 0.079316 -0.918732 0.895000 0.265000 1 0 1.000000
  0 -1.880340 6.708309 -1.880340 -0.701978 0.093913 -0.705980 0.865000 0.305000 1 0 1.000000
rocket
  0 -0.012290 12.653100 -0.012291 0.000791 0.999999 0.000791 0.995000 0.435000 1 0 1.000000
  0 -1.880340 6.708309 1.855759 -0.701349 0.090426 0.707060 0.825000 0.395000 1 0 1.000000
  0 -0.012290 6.708309 2.617727 0.000150 0.090393 0.995906 0.815000 0.445000 1 0 1.000000
rocket
  0 -0.012290 12.653100 -0.012291 0.000791 0.999999 0.000791 0.995000 0.435000 1 0 1.000000
  0 2.617727 6.708309 -0.012291 0.995962 0.089778 0.000443 0.835000 0.515000 1 0 1.000000
  0 1.855759 6.708309 -1.880340 0.708584 0.092551 -0.699530 0.865000 0.555000 1 0 1.000000
rocket
  0 1.855759 6.708309 -1.880340 0.708584 0.092551 -0.699530 0.865000 0.555000 1 0 1.000000
  0 2.175294 4.753857 -0.012291 0.975402 -0.220421 0.002457 0.775000 0.535000 1 0 1.000000
  0 1.536224 4.753857 -1.585385 0.688755 -0.222419 -0.690033 0.805000 0.595000 1 0 1.000000
rocket
  0 2.617727 6.708309 -0.012291 0.995962 0.089778 0.000443 0.835000 0.515000 1 0 1.000000
  0 2.175294 4.753857 -0.012291 0.975402 -0.220421 0.002457 0.775000 0.535000 1 0 1.000000
  0 1.855759 6.708309 -1.880340 0.708584 0.092551 -0.699530 0.865000 0.555000 1 0 1.000000
rocket
  0 -2.666887 6.708309 -0.012291 -0.996035 0.088920 0.002800 0.835000 0.355000 1 0 1.000000
  0 -1.585385 4.753857 -1.585385 -0.685520 -0.215533 -0.695420 0.815000 0.275000 1 0 1.000000
  0 -2.199875 4.753857 -0.012291 -0.973840 -0.227080 0.008344 0.785000 0.325000 1 0 1.000000
rocket
  0 -1.880340 6.708309 -1.880340 -0.701978 0.093913 -0.705980 0.865000 0.305000 1 0 1.000000
  0 -1.585385 4.753857 -1.585385 -0.685520 -0.215533 -0.695420 0.815000 0.275000 1 0 1.000000
  0 -2.666887 6.708309 -0.012291 -0.996035 0.088920 0.002800 0.835000 0.355000 1 0 1.000000
rocket
  0 -0.012290 12.653100 -0.012291 0.000791 0.999999 0.000791 0.995000 0.435000 1 0 1.000000
  0 -0.012290 6.708309 2.617727 0.000150 0.090393 0.995906 0.815000 0.445000 1 0 1.000000
  0 1.855759 6.708309 1.855759 0.704602 0.089118 0.703984 0.825000 0.475000 1 0 1.000000
rocket
  0 -0.012290 12.653100 -0.012291 0.000791 0.999999 0.000791 0.995000 0.435000 1 0 1.000000
  0 -1.880340 6.708309 -1.880340 -0.701978 0.093913 -0.705980 0.865000 0.305000 1 0 1.000000
  0 -2.666887 6.708309 -0.012291 -0.996035 0.088920 0.002800 0.835000 0.355000 1 0 1.000000
end
