version 1
nodes
0 "AllBody.000" -1
1 "Torso.012" 0
2 "Torso.000" 1
3 "Torso.001" 2
4 "Torso.002" 3
5 "Torso.003" 4
6 "Torso.010" 5
7 "Torso.011" 6
8 "HeadTail.000" 7
9 "HeadTail.001" 8
10 "HeadTail.002" 9
11 "HeadTail.003" 10
12 "HeadTail.004" 11
13 "HeadTail.005" 12
14 "HeadTail.006" 13
15 "HeadTail.007" 14
16 "HeadTail.008" 15
17 "Arm.L.000" 5
18 "Arm.L.001" 17
19 "Arm.L.002" 18
20 "Hand.L.000" 19
21 "Hand.L.001" 20
22 "Hand.L.002" 21
23 "Hand.L.003" 20
24 "Hand.L.004" 23
25 "Hand.L.005" 20
26 "Hand.L.006" 25
27 "Arm.R.000" 5
28 "Arm.R.001" 27
29 "Arm.R.002" 28
30 "Hand.R.000" 29
31 "Hand.R.001" 30
32 "Hand.R.002" 31
33 "Hand.R.003" 30
34 "Hand.R.004" 33
35 "Hand.R.005" 30
36 "Hand.R.006" 35
37 "Torso.004" 1
38 "Torso.005" 37
39 "Torso.006" 38
40 "Torso.007" 39
41 "Torso.008" 40
42 "Torso.009" 41
43 "TailSpline.003" 1
44 "HandIK.L.000" 0
45 "HandIK.R.000" 0
46 "ElbowIK.L.000" 0
47 "ElbowIK.R.000" 0
48 "TailSpline.000" 0
49 "TailSpline.002" 0
50 "TailSpline.001" 0
end
skeleton
  time 0
  0 -0.138733 0.408998 64.126572 1.576254 0.000000 -0.000001
  1 -21.134914 -46.802795 0.658860 -0.000114 1.576254 1.570682
  2 0.000001 -21.134916 0.000000 1.570796 -0.000000 0.000000
  3 0.000001 6.799596 -0.000000 -0.000000 -0.000000 -0.000000
  4 0.000000 6.325093 0.000000 -0.214922 3.141592 -0.000000
  5 0.000000 4.305279 -0.000000 -0.002671 -3.141592 -0.000000
  6 0.000000 2.333665 -0.000001 -0.065988 0.000000 -0.000000
  7 -0.000000 3.386914 0.000000 -0.146263 -0.000000 -0.000000
  8 -0.000000 5.951355 3.445944 -1.226613 3.141592 -0.000002
  9 -0.000000 6.018991 -0.000001 -0.344183 0.000002 0.000000
  10 -0.000000 5.184165 -0.000000 -0.399342 -0.000000 -0.000000
  11 -0.000000 7.215679 -0.000000 -0.162942 -0.000000 0.000000
  12 0.000000 5.262501 0.000001 0.909790 -0.000000 -0.000001
  13 0.000000 4.119094 -0.000002 0.641153 0.000001 -0.000000
  14 0.000000 2.884164 0.000000 -0.689417 -3.141591 0.000001
  15 0.000000 2.392370 0.000001 -0.523403 -0.000002 -0.000000
  16 -0.000001 2.854581 0.000003 -0.231490 0.000000 0.000000
  17 0.000000 2.333665 -0.000001 -0.492460 1.810435 1.188845
  18 -0.000000 6.907820 -0.000001 -0.336029 0.022209 -0.027285
  19 -0.000001 16.025204 0.000001 -0.070166 -0.037176 -0.519121
  20 -0.000001 8.302362 -0.000000 -0.110468 -0.018214 0.273129
  21 -0.999588 3.677691 0.004098 -0.118205 0.005075 0.225398
  22 -0.000000 2.205518 -0.000001 -0.257587 0.023264 0.045063
  23 -0.030755 3.687302 0.123970 -0.004342 -0.024843 -0.029244
  24 -0.000000 2.174214 -0.000001 -0.298930 0.023518 0.060027
  25 0.880920 3.855733 0.123970 -0.013950 -0.023735 -0.323089
  26 0.000001 2.236418 -0.000003 -0.293554 -0.027381 0.184103
  27 0.000000 2.333665 -0.000001 -0.492462 -1.810435 -1.188843
  28 0.000000 6.907820 -0.000001 -0.336029 -0.022209 0.027285
  29 0.000001 16.025204 0.000001 -0.070166 0.037176 0.519121
  30 0.000000 8.302362 -0.000000 -0.110467 0.018214 -0.273129
  31 0.999588 3.677691 0.004100 -0.118205 -0.005075 -0.225398
  32 0.000000 2.205522 0.000001 -0.257587 -0.023264 -0.045063
  33 0.030755 3.687302 0.123970 -0.004342 0.024843 0.029244
  34 0.000000 2.174214 -0.000001 -0.298930 -0.023518 -0.060027
  35 -0.880920 3.855732 0.123970 -0.013950 0.023735 0.323089
  36 -0.000000 2.236419 0.000001 -0.293554 0.027381 -0.184103
  37 0.000001 -21.134916 0.000000 -1.570796 -0.000000 0.000000
  38 0.000000 12.591400 -0.000001 -0.000000 0.000000 0.000000
  39 0.000002 13.829256 0.000001 0.000000 0.000000 -0.000000
  40 0.000001 11.130904 0.000001 0.000000 0.000000 -0.000000
  41 0.000002 12.676867 0.000001 0.000000 0.000000 -0.000000
  42 0.000002 12.882994 0.000001 0.000000 0.000000 0.013062
  43 0.000005 -54.479816 0.000000 0.000000 0.000000 -0.000000
  44 -0.567242 -38.717308 28.214590 0.000096 -1.576254 -1.570892
  45 -0.567280 -39.018650 -27.001802 0.000096 -1.576254 -1.570892
  46 -46.189453 -34.949543 21.777399 -0.000114 1.576254 1.570682
  47 -46.189484 -35.180847 -20.606056 -0.000114 1.576254 1.570682
  48 33.344887 -113.674622 1.023778 -0.000114 1.576254 1.570682
  49 33.344887 -73.100998 0.802344 -0.000114 1.576254 1.570682
  50 33.344887 -89.315353 0.890835 -0.000114 1.576254 1.570682
end
triangles
shalrath
  37 1.912983 -5.622616 17.386911 0.511009 -0.852887 0.107022 0.019531 0.632812 2 37 0.940956 3 0.059044
  37 4.463257 0.347775 13.968040 0.999361 -0.000028 0.035756 0.093767 0.667408 2 37 0.996339 3 0.003661
  3 1.403861 -4.350938 24.839346 0.512167 -0.853115 -0.099394 0.027344 0.554688 3 3 0.871673 37 0.068079 17 0.060248
shalrath
  37 -6.457950 0.347776 16.508772 -0.999172 0.000000 0.040697 0.171875 0.988281 3 37 0.940961 3 0.058297 38 0.000742
  37 -5.009982 -4.936236 16.755009 -0.643914 -0.761334 0.075801 0.230469 0.988281 3 37 0.935733 3 0.063208 38 0.001059
  3 -4.543189 -3.805288 24.195595 -0.632822 -0.774275 -0.005811 0.222656 0.906250 3 3 0.834338 37 0.118001 4 0.047661
shalrath
  37 -6.457950 0.347776 16.508772 -0.999172 0.000000 0.040697 0.171875 0.988281 3 37 0.940961 3 0.058297 38 0.000742
  3 -4.543189 -3.805288 24.195595 -0.632822 -0.774275 -0.005811 0.222656 0.906250 3 3 0.834338 37 0.118001 4 0.047661
  3 -6.368748 0.347776 24.856192 -0.999932 0.000000 -0.011670 0.171875 0.898438 3 3 0.828244 37 0.098365 4 0.073391
shalrath
  37 -5.009982 -4.936236 16.755009 -0.643914 -0.761334 0.075801 0.230469 0.988281 3 37 0.935733 3 0.063208 38 0.001059
  37 1.912983 -5.622616 17.386911 0.511009 -0.852887 0.107022 0.304688 0.976562 2 37 0.940956 3 0.059044
  3 1.403861 -4.350938 24.839346 0.512167 -0.853115 -0.099394 0.292969 0.894531 3 3 0.871673 37 0.068079 17 0.060248
shalrath
  37 -5.009982 -4.936236 16.755009 -0.643914 -0.761334 0.075801 0.230469 0.988281 3 37 0.935733 3 0.063208 38 0.001059
  3 1.403861 -4.350938 24.839346 0.512167 -0.853115 -0.099394 0.292969 0.894531 3 3 0.871673 37 0.068079 17 0.060248
  3 -4.543189 -3.805288 24.195595 -0.632822 -0.774275 -0.005811 0.222656 0.906250 3 3 0.834338 37 0.118001 4 0.047661
shalrath
  3 1.403861 -4.350938 24.839346 0.512167 -0.853115 -0.099394 0.292969 0.894531 3 3 0.871673 37 0.068079 17 0.060248
  17 5.469501 -5.789200 34.787331 0.976602 -0.165045 -0.137873 0.335938 0.785156 2 17 0.975479 5 0.024521
  17 1.164501 -6.270183 32.328613 -0.107302 -0.678414 -0.726802 0.289062 0.808594 4 17 0.886712 3 0.083475 18 0.026764 4 0.003049
shalrath
  3 -6.368748 0.347776 24.856192 -0.999932 0.000000 -0.011670 0.171875 0.898438 3 3 0.828244 37 0.098365 4 0.073391
  3 -4.543189 -3.805288 24.195595 -0.632822 -0.774275 -0.005811 0.222656 0.906250 3 3 0.834338 37 0.118001 4 0.047661
  3 -4.545400 -4.931296 30.935970 -0.666434 -0.744936 0.030616 0.226562 0.832031 3 3 0.450487 4 0.367431 17 0.182082
shalrath
  3 -6.368748 0.347776 24.856192 -0.999932 0.000000 -0.011670 0.171875 0.898438 3 3 0.828244 37 0.098365 4 0.073391
  3 -4.545400 -4.931296 30.935970 -0.666434 -0.744936 0.030616 0.226562 0.832031 3 3 0.450487 4 0.367431 17 0.182082
  4 -6.837914 0.347776 31.312744 -0.980879 0.000000 0.194619 0.171875 0.832031 2 4 0.507170 3 0.492830
shalrath
  3 -4.543189 -3.805288 24.195595 -0.632822 -0.774275 -0.005811 0.222656 0.906250 3 3 0.834338 37 0.118001 4 0.047661
  3 1.403861 -4.350938 24.839346 0.512167 -0.853115 -0.099394 0.292969 0.894531 3 3 0.871673 37 0.068079 17 0.060248
  17 1.164501 -6.270183 32.328613 -0.107302 -0.678414 -0.726802 0.289062 0.808594 4 17 0.886712 3 0.083475 18 0.026764 4 0.003049
shalrath
  3 -4.543189 -3.805288 24.195595 -0.632822 -0.774275 -0.005811 0.222656 0.906250 3 3 0.834338 37 0.118001 4 0.047661
  17 1.164501 -6.270183 32.328613 -0.107302 -0.678414 -0.726802 0.289062 0.808594 4 17 0.886712 3 0.083475 18 0.026764 4 0.003049
  3 -4.545400 -4.931296 30.935970 -0.666434 -0.744936 0.030616 0.226562 0.832031 3 3 0.450487 4 0.367431 17 0.182082
shalrath
  4 -6.837914 0.347776 31.312744 -0.980879 0.000000 0.194619 0.171875 0.832031 2 4 0.507170 3 0.492830
  3 -4.545400 -4.931296 30.935970 -0.666434 -0.744936 0.030616 0.226562 0.832031 3 3 0.450487 4 0.367431 17 0.182082
  17 -1.810804 -6.718934 35.515003 -0.875766 -0.470761 0.106858 0.253906 0.777344 3 17 0.956832 4 0.030078 3 0.013090
shalrath
  4 -6.837914 0.347776 31.312744 -0.980879 0.000000 0.194619 0.171875 0.832031 2 4 0.507170 3 0.492830
  17 -1.810804 -6.718934 35.515003 -0.875766 -0.470761 0.106858 0.253906 0.777344 3 17 0.956832 4 0.030078 3 0.013090
  4 -4.417910 0.347776 35.487530 -0.903080 0.000000 0.429472 0.171875 0.785156 4 4 0.705537 3 0.106042 27 0.104551 6 0.083871
shalrath
  3 -4.545400 -4.931296 30.935970 -0.666434 -0.744936 0.030616 0.226562 0.832031 3 3 0.450487 4 0.367431 17 0.182082
  17 1.164501 -6.270183 32.328613 -0.107302 -0.678414 -0.726802 0.289062 0.808594 4 17 0.886712 3 0.083475 18 0.026764 4 0.003049
  17 -1.810804 -6.718934 35.515003 -0.875766 -0.470761 0.106858 0.253906 0.777344 3 17 0.956832 4 0.030078 3 0.013090
shalrath
  3 1.403861 -4.350938 24.839346 0.512167 -0.853115 -0.099394 0.027344 0.554688 3 3 0.871673 37 0.068079 17 0.060248
  3 3.501229 0.347775 24.993353 0.990435 -0.000000 -0.137979 0.085938 0.550781 2 3 0.956347 37 0.043653
  5 5.872482 0.347775 34.583038 0.999348 -0.000000 -0.036111 0.085938 0.441406 4 5 0.710063 17 0.101648 27 0.098629 6 0.089659
shalrath
  3 1.403861 -4.350938 24.839346 0.512167 -0.853115 -0.099394 0.027344 0.554688 3 3 0.871673 37 0.068079 17 0.060248
  5 5.872482 0.347775 34.583038 0.999348 -0.000000 -0.036111 0.085938 0.441406 4 5 0.710063 17 0.101648 27 0.098629 6 0.089659
  17 5.469501 -5.789200 34.787331 0.976602 -0.165045 -0.137873 0.023438 0.437500 2 17 0.975479 5 0.024521
shalrath
  37 4.463257 0.347775 13.968040 0.999361 -0.000028 0.035756 0.093767 0.667408 2 37 0.996339 3 0.003661
  3 3.501229 0.347775 24.993353 0.990435 -0.000000 -0.137979 0.085938 0.550781 2 3 0.956347 37 0.043653
  3 1.403861 -4.350938 24.839346 0.512167 -0.853115 -0.099394 0.027344 0.554688 3 3 0.871673 37 0.068079 17 0.060248
shalrath
  17 -1.810804 -6.718934 35.515003 -0.875766 -0.470761 0.106858 0.253906 0.777344 3 17 0.956832 4 0.030078 3 0.013090
  17 -0.446162 -6.308217 38.559441 -0.492145 -0.443827 0.748873 0.250000 0.742188 2 17 0.945259 6 0.054741
  4 -4.417910 0.347776 35.487530 -0.903080 0.000000 0.429472 0.171875 0.785156 4 4 0.705537 3 0.106042 27 0.104551 6 0.083871
shalrath
  17 5.469501 -5.789200 34.787331 0.976602 -0.165045 -0.137873 0.023438 0.437500 2 17 0.975479 5 0.024521
  5 5.872482 0.347775 34.583038 0.999348 -0.000000 -0.036111 0.085938 0.441406 4 5 0.710063 17 0.101648 27 0.098629 6 0.089659
  6 4.879237 0.347775 39.205692 0.990024 -0.000000 0.140901 0.085938 0.394531 4 6 0.757448 7 0.129244 5 0.058752 8 0.054556
shalrath
  17 5.469501 -5.789200 34.787331 0.976602 -0.165045 -0.137873 0.023438 0.437500 2 17 0.975479 5 0.024521
  6 4.879237 0.347775 39.205692 0.990024 -0.000000 0.140901 0.085938 0.394531 4 6 0.757448 7 0.129244 5 0.058752 8 0.054556
  17 4.017120 -6.852465 38.675587 0.551753 -0.330934 0.765540 0.011719 0.398438 3 17 0.983724 7 0.011380 6 0.004896
shalrath
  17 5.469501 -5.789200 34.787331 0.976602 -0.165045 -0.137873 0.664062 0.355469 2 17 0.975479 5 0.024521
  17 4.017120 -6.852465 38.675587 0.551753 -0.330934 0.765540 0.710938 0.359375 3 17 0.983724 7 0.011380 6 0.004896
  18 5.000840 -20.709648 30.703388 0.642124 -0.525336 0.558301 0.679688 0.191406 1 18 1.000000
shalrath
  17 5.469501 -5.789200 34.787331 0.976602 -0.165045 -0.137873 0.664062 0.355469 2 17 0.975479 5 0.024521
  18 5.000840 -20.709648 30.703388 0.642124 -0.525336 0.558301 0.679688 0.191406 1 18 1.000000
  18 5.579267 -19.946894 28.794861 0.881034 -0.031573 -0.471998 0.656250 0.191406 1 18 1.000000
shalrath
  17 -1.810804 -6.718934 35.515003 -0.875766 -0.470761 0.106858 0.859375 0.300781 3 17 0.956832 4 0.030078 3 0.013090
  17 1.164501 -6.270183 32.328613 -0.107302 -0.678414 -0.726802 0.906250 0.292969 4 17 0.886712 3 0.083475 18 0.026764 4 0.003049
  18 3.026142 -19.739056 28.450672 -0.148377 0.422466 -0.894151 0.917969 0.144531 1 18 1.000000
shalrath
  17 -1.810804 -6.718934 35.515003 -0.875766 -0.470761 0.106858 0.859375 0.300781 3 17 0.956832 4 0.030078 3 0.013090
  18 3.026142 -19.739056 28.450672 -0.148377 0.422466 -0.894151 0.917969 0.144531 1 18 1.000000
  18 2.007318 -19.798429 29.468273 -0.977287 0.106401 -0.183273 0.902344 0.148438 1 18 1.000000
shalrath
  17 4.017120 -6.852465 38.675587 0.551753 -0.330934 0.765540 0.734375 0.980469 3 17 0.983724 7 0.011380 6 0.004896
  17 -0.446162 -6.308217 38.559441 -0.492145 -0.443827 0.748873 0.781250 0.988281 2 17 0.945259 6 0.054741
  18 2.644578 -21.041903 30.808815 -0.421142 -0.459315 0.782093 0.769531 0.808594 1 18 1.000000
shalrath
  17 4.017120 -6.852465 38.675587 0.551753 -0.330934 0.765540 0.734375 0.980469 3 17 0.983724 7 0.011380 6 0.004896
  18 2.644578 -21.041903 30.808815 -0.421142 -0.459315 0.782093 0.769531 0.808594 1 18 1.000000
  18 5.000840 -20.709648 30.703388 0.642124 -0.525336 0.558301 0.746094 0.808594 1 18 1.000000
shalrath
  17 -0.446162 -6.308217 38.559441 -0.492145 -0.443827 0.748873 0.781250 0.988281 2 17 0.945259 6 0.054741
  17 -1.810804 -6.718934 35.515003 -0.875766 -0.470761 0.106858 0.812500 0.972656 3 17 0.956832 4 0.030078 3 0.013090
  18 2.007318 -19.798429 29.468273 -0.977287 0.106401 -0.183273 0.789062 0.816406 1 18 1.000000
shalrath
  17 -0.446162 -6.308217 38.559441 -0.492145 -0.443827 0.748873 0.781250 0.988281 2 17 0.945259 6 0.054741
  18 2.007318 -19.798429 29.468273 -0.977287 0.106401 -0.183273 0.789062 0.816406 1 18 1.000000
  18 2.644578 -21.041903 30.808815 -0.421142 -0.459315 0.782093 0.769531 0.808594 1 18 1.000000
shalrath
  18 5.579267 -19.946894 28.794861 0.881034 -0.031573 -0.471998 0.207031 0.625000 1 18 1.000000
  18 5.000840 -20.709648 30.703388 0.642124 -0.525336 0.558301 0.230469 0.621094 1 18 1.000000
  19 0.092002 -27.744310 25.539890 0.583770 -0.633701 0.507578 0.207031 0.519531 2 19 0.935726 20 0.064274
shalrath
  18 5.579267 -19.946894 28.794861 0.881034 -0.031573 -0.471998 0.207031 0.625000 1 18 1.000000
  19 0.092002 -27.744310 25.539890 0.583770 -0.633701 0.507578 0.207031 0.519531 2 19 0.935726 20 0.064274
  20 0.104697 -27.458786 24.443813 0.726434 0.172571 -0.665216 0.191406 0.515625 2 20 0.778225 19 0.221775
shalrath
  18 2.007318 -19.798429 29.468273 -0.977287 0.106401 -0.183273 0.300781 0.773438 1 18 1.000000
  18 3.026142 -19.739056 28.450672 -0.148377 0.422466 -0.894151 0.316406 0.773438 1 18 1.000000
  20 -0.447613 -27.352766 24.252642 -0.162618 0.546909 -0.821247 0.320312 0.671875 2 20 0.873406 19 0.126594
shalrath
  18 2.007318 -19.798429 29.468273 -0.977287 0.106401 -0.183273 0.300781 0.773438 1 18 1.000000
  20 -0.447613 -27.352766 24.252642 -0.162618 0.546909 -0.821247 0.320312 0.671875 2 20 0.873406 19 0.126594
  19 -1.181482 -27.211895 24.912758 -0.834348 0.506104 -0.218453 0.308594 0.671875 2 19 0.502278 20 0.497722
shalrath
  18 2.644578 -21.041903 30.808815 -0.421142 -0.459315 0.782093 0.957031 0.199219 1 18 1.000000
  18 2.007318 -19.798429 29.468273 -0.977287 0.106401 -0.183273 0.937500 0.199219 1 18 1.000000
  19 -1.181482 -27.211895 24.912758 -0.834348 0.506104 -0.218453 0.933594 0.296875 2 19 0.502278 20 0.497722
shalrath
  18 2.644578 -21.041903 30.808815 -0.421142 -0.459315 0.782093 0.957031 0.199219 1 18 1.000000
  19 -1.181482 -27.211895 24.912758 -0.834348 0.506104 -0.218453 0.933594 0.296875 2 19 0.502278 20 0.497722
  19 -0.984029 -27.625900 25.948687 -0.542134 -0.306951 0.782223 0.945312 0.296875 2 19 0.961053 20 0.038947
shalrath
  18 5.000840 -20.709648 30.703388 0.642124 -0.525336 0.558301 0.980469 0.191406 1 18 1.000000
  18 2.644578 -21.041903 30.808815 -0.421142 -0.459315 0.782093 0.957031 0.199219 1 18 1.000000
  19 -0.984029 -27.625900 25.948687 -0.542134 -0.306951 0.782223 0.945312 0.296875 2 19 0.961053 20 0.038947
shalrath
  18 5.000840 -20.709648 30.703388 0.642124 -0.525336 0.558301 0.980469 0.191406 1 18 1.000000
  19 -0.984029 -27.625900 25.948687 -0.542134 -0.306951 0.782223 0.945312 0.296875 2 19 0.961053 20 0.038947
  19 0.092002 -27.744310 25.539890 0.583770 -0.633701 0.507578 0.960938 0.296875 2 19 0.935726 20 0.064274
shalrath
  6 3.734658 -2.490584 40.015434 0.581649 -0.662208 0.472404 0.109375 0.066406 4 6 0.477893 7 0.417640 17 0.079387 8 0.025080
  6 4.879237 0.347775 39.205692 0.990024 -0.000000 0.140901 0.109375 0.101562 4 6 0.757448 7 0.129244 5 0.058752 8 0.054556
  8 7.100133 0.347775 42.783966 0.870860 -0.000000 -0.491531 0.152344 0.101562 3 8 0.843435 6 0.099937 7 0.056628
shalrath
  6 3.734658 -2.490584 40.015434 0.581649 -0.662208 0.472404 0.109375 0.066406 4 6 0.477893 7 0.417640 17 0.079387 8 0.025080
  8 7.100133 0.347775 42.783966 0.870860 -0.000000 -0.491531 0.152344 0.101562 3 8 0.843435 6 0.099937 7 0.056628
  8 4.278111 -2.204804 47.359341 0.091127 -0.947455 0.306634 0.183594 0.046875 2 8 0.956220 7 0.043780
shalrath
  6 -1.935922 -2.376348 40.136013 -0.794808 -0.349799 0.495904 0.683594 0.156250 4 6 0.613700 7 0.172650 17 0.157555 4 0.056095
  6 3.734658 -2.490584 40.015434 0.581649 -0.662208 0.472404 0.742188 0.171875 4 6 0.477893 7 0.417640 17 0.079387 8 0.025080
  7 -1.290292 -3.215716 43.321552 -0.735209 -0.676837 0.036879 0.699219 0.125000 4 7 0.779924 6 0.140762 8 0.065702 17 0.013613
shalrath
  8 4.278111 -2.204804 47.359341 0.091127 -0.947455 0.306634 0.769531 0.097656 2 8 0.956220 7 0.043780
  8 2.053021 0.347775 49.654369 -0.244183 0.000000 0.969729 0.750000 0.058594 2 8 0.873605 7 0.126395
  7 -1.875402 -1.951303 46.144482 -0.853600 -0.499684 0.147248 0.699219 0.089844 3 7 0.842656 8 0.135402 6 0.021942
shalrath
  8 2.053021 0.347775 49.654369 -0.244183 0.000000 0.969729 0.363281 0.984375 2 8 0.873605 7 0.126395
  8 4.278111 -2.204804 47.359341 0.091127 -0.947455 0.306634 0.402344 0.964844 2 8 0.956220 7 0.043780
  8 10.526319 -1.832847 49.019024 0.085232 -0.971345 0.221865 0.394531 0.894531 2 8 0.967876 9 0.032124
shalrath
  8 2.053021 0.347775 49.654369 -0.244183 0.000000 0.969729 0.363281 0.984375 2 8 0.873605 7 0.126395
  8 10.526319 -1.832847 49.019024 0.085232 -0.971345 0.221865 0.394531 0.894531 2 8 0.967876 9 0.032124
  8 10.393853 0.347775 50.854839 0.003277 -0.000000 0.999995 0.363281 0.894531 2 8 0.589019 9 0.410981
shalrath
  8 10.393853 0.347775 50.854839 0.003277 -0.000000 0.999995 0.820312 0.121094 2 8 0.589019 9 0.410981
  8 10.526319 -1.832847 49.019024 0.085232 -0.971345 0.221865 0.847656 0.117188 2 8 0.967876 9 0.032124
  10 16.458803 -1.202601 48.297482 0.109046 -0.988488 0.104886 0.843750 0.054688 1 10 1.000000
shalrath
  8 10.393853 0.347775 50.854839 0.003277 -0.000000 0.999995 0.820312 0.121094 2 8 0.589019 9 0.410981
  10 16.458803 -1.202601 48.297482 0.109046 -0.988488 0.104886 0.843750 0.054688 1 10 1.000000
  10 16.968084 0.347775 49.813736 0.302517 0.000000 0.953144 0.820312 0.050781 1 10 1.000000
shalrath
  10 16.458803 -1.202601 48.297482 0.109046 -0.988488 0.104886 0.890625 0.738281 1 10 1.000000
  10 15.858474 0.347775 46.449917 -0.074755 0.000000 -0.997202 0.917969 0.738281 2 10 0.969987 8 0.030013
  10 21.819773 0.347774 44.868649 -0.352879 0.000000 -0.935669 0.917969 0.671875 1 10 1.000000
shalrath
  10 16.458803 -1.202601 48.297482 0.109046 -0.988488 0.104886 0.890625 0.738281 1 10 1.000000
  10 21.819773 0.347774 44.868649 -0.352879 0.000000 -0.935669 0.917969 0.671875 1 10 1.000000
  10 22.636984 -0.770344 45.832436 0.086995 -0.995417 0.039703 0.898438 0.667969 1 10 1.000000
shalrath
  10 16.968084 0.347775 49.813736 0.302517 0.000000 0.953144 0.925781 0.050781 1 10 1.000000
  10 16.458803 -1.202601 48.297482 0.109046 -0.988488 0.104886 0.902344 0.050781 1 10 1.000000
  10 22.636984 -0.770344 45.832436 0.086995 -0.995417 0.039703 0.906250 0.121094 1 10 1.000000
shalrath
  10 16.968084 0.347775 49.813736 0.302517 0.000000 0.953144 0.925781 0.050781 1 10 1.000000
  10 22.636984 -0.770344 45.832436 0.086995 -0.995417 0.039703 0.906250 0.121094 1 10 1.000000
  10 22.745728 0.347774 47.212360 0.474354 0.000000 0.880334 0.925781 0.117188 1 10 1.000000
shalrath
  10 22.636984 -0.770344 45.832436 0.086995 -0.995417 0.039703 0.738281 0.781250 1 10 1.000000
  10 21.819773 0.347774 44.868649 -0.352879 0.000000 -0.935669 0.753906 0.785156 1 10 1.000000
  12 27.158785 0.347774 41.903427 -0.130467 -0.000000 -0.991453 0.753906 0.718750 2 12 0.542594 11 0.457406
shalrath
  10 22.636984 -0.770344 45.832436 0.086995 -0.995417 0.039703 0.738281 0.781250 1 10 1.000000
  12 27.158785 0.347774 41.903427 -0.130467 -0.000000 -0.991453 0.753906 0.718750 2 12 0.542594 11 0.457406
  12 27.535273 -0.466746 43.133675 0.028271 -0.994844 -0.097400 0.738281 0.722656 1 12 1.000000
shalrath
  10 22.745728 0.347774 47.212360 0.474354 0.000000 0.880334 0.027344 0.769531 1 10 1.000000
  10 22.636984 -0.770344 45.832436 0.086995 -0.995417 0.039703 0.046875 0.761719 1 10 1.000000
  12 27.535273 -0.466746 43.133675 0.028271 -0.994844 -0.097400 0.039062 0.703125 1 12 1.000000
shalrath
  10 22.745728 0.347774 47.212360 0.474354 0.000000 0.880334 0.027344 0.769531 1 10 1.000000
  12 27.535273 -0.466746 43.133675 0.028271 -0.994844 -0.097400 0.039062 0.703125 1 12 1.000000
  12 27.391907 0.347774 44.017509 0.249151 -0.000000 0.968465 0.027344 0.707031 2 12 0.965651 10 0.034349
shalrath
  12 27.535273 -0.466746 43.133675 0.028271 -0.994844 -0.097400 0.171875 0.484375 1 12 1.000000
  12 27.158785 0.347774 41.903427 -0.130467 -0.000000 -0.991453 0.183594 0.492188 2 12 0.542594 11 0.457406
  13 31.693993 0.347774 43.422527 0.633675 0.000000 -0.773600 0.183594 0.441406 2 13 0.594042 12 0.405958
shalrath
  12 27.535273 -0.466746 43.133675 0.028271 -0.994844 -0.097400 0.171875 0.484375 1 12 1.000000
  13 31.693993 0.347774 43.422527 0.633675 0.000000 -0.773600 0.183594 0.441406 2 13 0.594042 12 0.405958
  13 31.177340 -0.311470 44.103054 0.079824 -0.995231 -0.056062 0.171875 0.445312 1 13 1.000000
shalrath
  12 27.391907 0.347774 44.017509 0.249151 -0.000000 0.968465 0.238281 0.113281 2 12 0.965651 10 0.034349
  12 27.535273 -0.466746 43.133675 0.028271 -0.994844 -0.097400 0.253906 0.113281 1 12 1.000000
  13 31.177340 -0.311470 44.103054 0.079824 -0.995231 -0.056062 0.250000 0.074219 1 13 1.000000
shalrath
  12 27.391907 0.347774 44.017509 0.249151 -0.000000 0.968465 0.238281 0.113281 2 12 0.965651 10 0.034349
  13 31.177340 -0.311470 44.103054 0.079824 -0.995231 -0.056062 0.250000 0.074219 1 13 1.000000
  13 30.771957 0.347774 44.673725 -0.602016 -0.000001 0.798484 0.238281 0.078125 2 13 0.998131 12 0.001869
shalrath
  13 31.177340 -0.311470 44.103054 0.079824 -0.995231 -0.056062 0.339844 0.863281 1 13 1.000000
  13 31.693993 0.347774 43.422527 0.633675 0.000000 -0.773600 0.351562 0.867188 2 13 0.594042 12 0.405958
  14 33.476994 0.347774 46.604664 0.986996 -0.000000 -0.160742 0.351562 0.828125 1 14 1.000000
shalrath
  13 31.177340 -0.311470 44.103054 0.079824 -0.995231 -0.056062 0.339844 0.863281 1 13 1.000000
  14 33.476994 0.347774 46.604664 0.986996 -0.000000 -0.160742 0.351562 0.828125 1 14 1.000000
  14 32.569427 -0.233043 46.811508 -0.003985 -0.999560 0.029386 0.339844 0.832031 1 14 1.000000
shalrath
  13 30.771957 0.347774 44.673725 -0.602016 -0.000001 0.798484 0.480469 0.058594 2 13 0.998131 12 0.001869
  13 31.177340 -0.311470 44.103054 0.079824 -0.995231 -0.056062 0.488281 0.062500 1 13 1.000000
  14 32.569427 -0.233043 46.811508 -0.003985 -0.999560 0.029386 0.488281 0.031250 1 14 1.000000
shalrath
  13 30.771957 0.347774 44.673725 -0.602016 -0.000001 0.798484 0.480469 0.058594 2 13 0.998131 12 0.001869
  14 32.569427 -0.233043 46.811508 -0.003985 -0.999560 0.029386 0.488281 0.031250 1 14 1.000000
  14 32.147366 0.347774 46.874039 -0.978251 -0.000000 0.207425 0.480469 0.031250 1 14 1.000000
shalrath
  14 32.569427 -0.233043 46.811508 -0.003985 -0.999560 0.029386 0.054688 0.074219 1 14 1.000000
  14 33.476994 0.347774 46.604664 0.986996 -0.000000 -0.160742 0.066406 0.078125 1 14 1.000000
  15 32.790741 0.347774 49.850208 0.844140 -0.000000 0.536123 0.066406 0.042969 1 15 1.000000
shalrath
  14 32.569427 -0.233043 46.811508 -0.003985 -0.999560 0.029386 0.054688 0.074219 1 14 1.000000
  15 32.790741 0.347774 49.850208 0.844140 -0.000000 0.536123 0.066406 0.042969 1 15 1.000000
  15 32.212875 -0.117366 49.504452 -0.047544 -0.996255 0.072216 0.058594 0.046875 1 15 1.000000
shalrath
  14 32.147366 0.347774 46.874039 -0.978251 -0.000000 0.207425 0.238281 0.050781 1 14 1.000000
  14 32.569427 -0.233043 46.811508 -0.003985 -0.999560 0.029386 0.246094 0.050781 1 14 1.000000
  15 32.212875 -0.117366 49.504452 -0.047544 -0.996255 0.072216 0.242188 0.023438 1 15 1.000000
shalrath
  14 32.147366 0.347774 46.874039 -0.978251 -0.000000 0.207425 0.238281 0.050781 1 14 1.000000
  15 32.212875 -0.117366 49.504452 -0.047544 -0.996255 0.072216 0.242188 0.023438 1 15 1.000000
  15 31.827541 0.347774 49.413109 -0.915287 0.000000 -0.402803 0.238281 0.023438 1 15 1.000000
shalrath
  15 32.212875 -0.117366 49.504452 -0.047544 -0.996255 0.072216 0.945312 0.898438 1 15 1.000000
  15 32.790741 0.347774 49.850208 0.844140 -0.000000 0.536123 0.953125 0.902344 1 15 1.000000
  16 29.469086 0.347774 52.323475 -0.713560 0.000000 0.700594 0.953125 0.859375 2 16 0.937914 15 0.062086
shalrath
  15 31.827541 0.347774 49.413109 -0.915287 0.000000 -0.402803 0.187500 0.417969 1 15 1.000000
  15 32.212875 -0.117366 49.504452 -0.047544 -0.996255 0.072216 0.195312 0.417969 1 15 1.000000
  16 29.469086 0.347774 52.323475 -0.713560 0.000000 0.700594 0.187500 0.378906 2 16 0.937914 15 0.062086
shalrath
  4 -4.417910 0.347776 35.487530 -0.903080 0.000000 0.429472 0.171875 0.785156 4 4 0.705537 3 0.106042 27 0.104551 6 0.083871
  17 -0.446162 -6.308217 38.559441 -0.492145 -0.443827 0.748873 0.250000 0.742188 2 17 0.945259 6 0.054741
  6 -1.935922 -2.376348 40.136013 -0.794808 -0.349799 0.495904 0.203125 0.730469 4 6 0.613700 7 0.172650 17 0.157555 4 0.056095
shalrath
  17 4.017120 -6.852465 38.675587 0.551753 -0.330934 0.765540 0.011719 0.398438 3 17 0.983724 7 0.011380 6 0.004896
  6 4.879237 0.347775 39.205692 0.990024 -0.000000 0.140901 0.085938 0.394531 4 6 0.757448 7 0.129244 5 0.058752 8 0.054556
  6 3.734658 -2.490584 40.015434 0.581649 -0.662208 0.472404 0.054688 0.382812 4 6 0.477893 7 0.417640 17 0.079387 8 0.025080
shalrath
  17 -0.446162 -6.308217 38.559441 -0.492145 -0.443827 0.748873 0.250000 0.742188 2 17 0.945259 6 0.054741
  17 4.017120 -6.852465 38.675587 0.551753 -0.330934 0.765540 0.281250 0.703125 3 17 0.983724 7 0.011380 6 0.004896
  6 3.734658 -2.490584 40.015434 0.581649 -0.662208 0.472404 0.234375 0.679688 4 6 0.477893 7 0.417640 17 0.079387 8 0.025080
shalrath
  17 -0.446162 -6.308217 38.559441 -0.492145 -0.443827 0.748873 0.250000 0.742188 2 17 0.945259 6 0.054741
  6 3.734658 -2.490584 40.015434 0.581649 -0.662208 0.472404 0.234375 0.679688 4 6 0.477893 7 0.417640 17 0.079387 8 0.025080
  6 -1.935922 -2.376348 40.136013 -0.794808 -0.349799 0.495904 0.203125 0.730469 4 6 0.613700 7 0.172650 17 0.157555 4 0.056095
shalrath
  21 0.120635 -30.458551 23.171196 0.758331 -0.474170 0.447322 0.835938 0.570312 2 21 0.910367 23 0.089633
  19 0.092002 -27.744310 25.539890 0.583770 -0.633701 0.507578 0.824219 0.531250 2 19 0.935726 20 0.064274
  19 -0.984029 -27.625900 25.948687 -0.542134 -0.306951 0.782223 0.812500 0.531250 2 19 0.961053 20 0.038947
shalrath
  19 -0.984029 -27.625900 25.948687 -0.542134 -0.306951 0.782223 0.812500 0.531250 2 19 0.961053 20 0.038947
  23 -2.404346 -30.029863 23.723501 -0.719419 -0.248154 0.648735 0.808594 0.570312 4 23 0.571157 25 0.386056 21 0.033361 19 0.009426
  23 -1.532213 -30.398388 23.642288 -0.040849 -0.741927 0.669235 0.816406 0.570312 3 23 0.885502 21 0.061508 25 0.052990
shalrath
  23 -0.764559 -30.526897 23.553926 0.115445 -0.762962 0.636051 0.824219 0.570312 2 23 0.681014 21 0.318986
  21 0.120635 -30.458551 23.171196 0.758331 -0.474170 0.447322 0.835938 0.570312 2 21 0.910367 23 0.089633
  19 -0.984029 -27.625900 25.948687 -0.542134 -0.306951 0.782223 0.812500 0.531250 2 19 0.961053 20 0.038947
shalrath
  19 -0.984029 -27.625900 25.948687 -0.542134 -0.306951 0.782223 0.812500 0.531250 2 19 0.961053 20 0.038947
  23 -1.532213 -30.398388 23.642288 -0.040849 -0.741927 0.669235 0.816406 0.570312 3 23 0.885502 21 0.061508 25 0.052990
  23 -0.764559 -30.526897 23.553926 0.115445 -0.762962 0.636051 0.824219 0.570312 2 23 0.681014 21 0.318986
shalrath
  19 -0.984029 -27.625900 25.948687 -0.542134 -0.306951 0.782223 0.812500 0.531250 2 19 0.961053 20 0.038947
  19 -1.181482 -27.211895 24.912758 -0.834348 0.506104 -0.218453 0.800781 0.535156 2 19 0.502278 20 0.497722
  25 -2.331114 -29.744814 23.209333 -0.707837 0.608564 -0.358632 0.800781 0.570312 3 25 0.605107 23 0.384073 21 0.010820
shalrath
  19 -0.984029 -27.625900 25.948687 -0.542134 -0.306951 0.782223 0.812500 0.531250 2 19 0.961053 20 0.038947
  25 -2.331114 -29.744814 23.209333 -0.707837 0.608564 -0.358632 0.800781 0.570312 3 25 0.605107 23 0.384073 21 0.010820
  23 -2.404346 -30.029863 23.723501 -0.719419 -0.248154 0.648735 0.808594 0.570312 4 23 0.571157 25 0.386056 21 0.033361 19 0.009426
shalrath
  20 0.104697 -27.458786 24.443813 0.726434 0.172571 -0.665216 0.960938 0.355469 2 20 0.778225 19 0.221775
  19 0.092002 -27.744310 25.539890 0.583770 -0.633701 0.507578 0.972656 0.359375 2 19 0.935726 20 0.064274
  21 0.120635 -30.458551 23.171196 0.758331 -0.474170 0.447322 0.964844 0.320312 2 21 0.910367 23 0.089633
shalrath
  20 0.104697 -27.458786 24.443813 0.726434 0.172571 -0.665216 0.960938 0.355469 2 20 0.778225 19 0.221775
  21 0.120635 -30.458551 23.171196 0.758331 -0.474170 0.447322 0.964844 0.320312 2 21 0.910367 23 0.089633
  21 0.125921 -30.148932 22.669777 0.730112 0.441308 -0.521713 0.960938 0.320312 2 21 0.959447 23 0.040553
shalrath
  19 -1.181482 -27.211895 24.912758 -0.834348 0.506104 -0.218453 0.308594 0.312500 2 19 0.502278 20 0.497722
  20 -0.447613 -27.352766 24.252642 -0.162618 0.546909 -0.821247 0.316406 0.312500 2 20 0.873406 19 0.126594
  23 -1.603348 -30.003166 22.952997 -0.134686 0.521345 -0.842650 0.320312 0.277344 3 23 0.860509 21 0.077723 25 0.061768
shalrath
  19 -1.181482 -27.211895 24.912758 -0.834348 0.506104 -0.218453 0.308594 0.312500 2 19 0.502278 20 0.497722
  23 -1.603348 -30.003166 22.952997 -0.134686 0.521345 -0.842650 0.320312 0.277344 3 23 0.860509 21 0.077723 25 0.061768
  25 -2.331114 -29.744814 23.209333 -0.707837 0.608564 -0.358632 0.312500 0.277344 3 25 0.605107 23 0.384073 21 0.010820
shalrath
  21 -0.691492 -30.156038 22.793297 -0.055244 0.481626 -0.874634 0.359375 0.042969 2 21 0.846355 23 0.153645
  22 0.220134 -33.517296 18.993912 0.102015 -0.616966 -0.780350 0.359375 0.097656 2 22 0.936149 21 0.063851
  23 -0.764559 -30.526897 23.553926 0.115445 -0.762962 0.636051 0.371094 0.039062 2 23 0.681014 21 0.318986
shalrath
  21 0.120635 -30.458551 23.171196 0.758331 -0.474170 0.447322 0.269531 0.054688 2 21 0.910367 23 0.089633
  22 0.220134 -33.517296 18.993912 0.102015 -0.616966 -0.780350 0.277344 0.109375 2 22 0.936149 21 0.063851
  21 0.125921 -30.148932 22.669777 0.730112 0.441308 -0.521713 0.273438 0.054688 2 21 0.959447 23 0.040553
shalrath
  21 0.125921 -30.148932 22.669777 0.730112 0.441308 -0.521713 0.023438 0.019531 2 21 0.959447 23 0.040553
  22 0.220134 -33.517296 18.993912 0.102015 -0.616966 -0.780350 0.023438 0.074219 2 22 0.936149 21 0.063851
  21 -0.691492 -30.156038 22.793297 -0.055244 0.481626 -0.874634 0.035156 0.019531 2 21 0.846355 23 0.153645
shalrath
  23 -0.764559 -30.526897 23.553926 0.115445 -0.762962 0.636051 0.324219 0.035156 2 23 0.681014 21 0.318986
  22 0.220134 -33.517296 18.993912 0.102015 -0.616966 -0.780350 0.335938 0.093750 2 22 0.936149 21 0.063851
  21 0.120635 -30.458551 23.171196 0.758331 -0.474170 0.447322 0.332031 0.039062 2 21 0.910367 23 0.089633
shalrath
  23 -1.532213 -30.398388 23.642288 -0.040849 -0.741927 0.669235 0.960938 0.570312 3 23 0.885502 21 0.061508 25 0.052990
  24 -2.133661 -34.239002 18.870417 -0.165952 -0.666096 -0.727170 0.964844 0.636719 2 24 0.954444 21 0.045556
  23 -0.764559 -30.526897 23.553926 0.115445 -0.762962 0.636051 0.968750 0.570312 2 23 0.681014 21 0.318986
shalrath
  23 -1.603348 -30.003166 22.952997 -0.134686 0.521345 -0.842650 0.394531 0.039062 3 23 0.860509 21 0.077723 25 0.061768
  24 -2.133661 -34.239002 18.870417 -0.165952 -0.666096 -0.727170 0.390625 0.101562 2 24 0.954444 21 0.045556
  23 -1.532213 -30.398388 23.642288 -0.040849 -0.741927 0.669235 0.402344 0.035156 3 23 0.885502 21 0.061508 25 0.052990
shalrath
  23 -0.764559 -30.526897 23.553926 0.115445 -0.762962 0.636051 0.296875 0.058594 2 23 0.681014 21 0.318986
  24 -2.133661 -34.239002 18.870417 -0.165952 -0.666096 -0.727170 0.308594 0.125000 2 24 0.954444 21 0.045556
  21 -0.691492 -30.156038 22.793297 -0.055244 0.481626 -0.874634 0.304688 0.062500 2 21 0.846355 23 0.153645
shalrath
  21 -0.691492 -30.156038 22.793297 -0.055244 0.481626 -0.874634 0.957031 0.378906 2 21 0.846355 23 0.153645
  24 -2.133661 -34.239002 18.870417 -0.165952 -0.666096 -0.727170 0.960938 0.441406 2 24 0.954444 21 0.045556
  23 -1.603348 -30.003166 22.952997 -0.134686 0.521345 -0.842650 0.964844 0.378906 3 23 0.860509 21 0.077723 25 0.061768
shalrath
  23 -2.404346 -30.029863 23.723501 -0.719419 -0.248154 0.648735 0.480469 0.218750 4 23 0.571157 25 0.386056 21 0.033361 19 0.009426
  26 -4.191541 -33.676750 19.381063 -0.383704 -0.620361 -0.684049 0.480469 0.281250 1 26 1.000000
  23 -1.532213 -30.398388 23.642288 -0.040849 -0.741927 0.669235 0.492188 0.218750 3 23 0.885502 21 0.061508 25 0.052990
shalrath
  25 -2.331114 -29.744814 23.209333 -0.707837 0.608564 -0.358632 0.476562 0.218750 3 25 0.605107 23 0.384073 21 0.010820
  26 -4.191541 -33.676750 19.381063 -0.383704 -0.620361 -0.684049 0.480469 0.281250 1 26 1.000000
  23 -2.404346 -30.029863 23.723501 -0.719419 -0.248154 0.648735 0.480469 0.218750 4 23 0.571157 25 0.386056 21 0.033361 19 0.009426
shalrath
  23 -1.532213 -30.398388 23.642288 -0.040849 -0.741927 0.669235 0.011719 0.898438 3 23 0.885502 21 0.061508 25 0.052990
  26 -4.191541 -33.676750 19.381063 -0.383704 -0.620361 -0.684049 0.023438 0.960938 1 26 1.000000
  23 -1.603348 -30.003166 22.952997 -0.134686 0.521345 -0.842650 0.019531 0.902344 3 23 0.860509 21 0.077723 25 0.061768
shalrath
  23 -1.603348 -30.003166 22.952997 -0.134686 0.521345 -0.842650 0.019531 0.902344 3 23 0.860509 21 0.077723 25 0.061768
  26 -4.191541 -33.676750 19.381063 -0.383704 -0.620361 -0.684049 0.023438 0.960938 1 26 1.000000
  25 -2.331114 -29.744814 23.209333 -0.707837 0.608564 -0.358632 0.027344 0.902344 3 25 0.605107 23 0.384073 21 0.010820
shalrath
  37 1.912983 6.318166 17.386911 0.511009 0.852887 0.107022 0.011719 0.093750 2 37 0.936374 3 0.063626
  38 1.343734 7.246840 -7.556354 0.444838 0.895545 0.010847 0.011730 0.358737 4 38 0.818242 49 0.099859 39 0.078736 37 0.003163
  38 -5.786185 5.778468 -7.581324 -0.701533 0.712527 0.012503 0.089808 0.361496 3 38 0.889879 39 0.101056 37 0.009064
shalrath
  37 1.912983 6.318166 17.386911 0.511009 0.852887 0.107022 0.011719 0.093750 2 37 0.936374 3 0.063626
  38 -5.786185 5.778468 -7.581324 -0.701533 0.712527 0.012503 0.089808 0.361496 3 38 0.889879 39 0.101056 37 0.009064
  37 -5.009981 5.631788 16.755009 -0.643914 0.761334 0.075801 0.085938 0.101562 3 37 0.925048 3 0.069046 38 0.005906
shalrath
  37 1.912983 -5.622616 17.386911 0.511009 -0.852887 0.107022 0.500000 0.386719 2 37 0.940956 3 0.059044
  38 1.343733 -6.551290 -7.556354 0.449776 -0.893087 0.009898 0.488283 0.651706 3 38 0.842683 49 0.095876 39 0.061441
  37 4.463257 0.347775 13.968040 0.999361 -0.000028 0.035756 0.568667 0.420735 2 37 0.996339 3 0.003661
shalrath
  37 -6.457950 0.347776 16.508772 -0.999172 0.000000 0.040697 0.398438 0.253906 3 37 0.940961 3 0.058297 38 0.000742
  38 -6.760839 0.347776 -7.551745 -0.999935 0.000000 0.011372 0.398438 0.510566 3 38 0.912744 39 0.085297 37 0.001959
  38 -5.786186 -5.082917 -7.581324 -0.701533 -0.712527 0.012503 0.457037 0.513850 3 38 0.902501 39 0.093076 37 0.004423
shalrath
  37 -6.457950 0.347776 16.508772 -0.999172 0.000000 0.040697 0.398438 0.253906 3 37 0.940961 3 0.058297 38 0.000742
  38 -5.786186 -5.082917 -7.581324 -0.701533 -0.712527 0.012503 0.457037 0.513850 3 38 0.902501 39 0.093076 37 0.004423
  37 -5.009982 -4.936236 16.755009 -0.643914 -0.761334 0.075801 0.457031 0.253906 3 37 0.935733 3 0.063208 38 0.001059
shalrath
  41 0.843792 -5.514542 -37.265411 0.455102 -0.870919 -0.185425 0.461918 0.990773 3 41 0.923075 40 0.055829 49 0.021095
  41 2.963597 0.347775 -37.447433 0.992166 -0.005141 -0.124823 0.529669 0.991360 1 41 1.000000
  40 3.916155 0.407662 -29.092613 0.998131 0.002934 -0.061043 0.531617 0.901993 3 40 0.946941 41 0.032773 49 0.020286
shalrath
  41 0.843792 -5.514542 -37.265411 0.455102 -0.870919 -0.185425 0.461918 0.990773 3 41 0.923075 40 0.055829 49 0.021095
  40 3.916155 0.407662 -29.092613 0.998131 0.002934 -0.061043 0.531617 0.901993 3 40 0.946941 41 0.032773 49 0.020286
  40 1.343733 -6.551290 -28.414576 0.472271 -0.878941 -0.066498 0.453160 0.896614 4 40 0.827292 41 0.066055 39 0.064717 49 0.041936
shalrath
  41 0.843793 6.210093 -37.265411 0.464139 0.873260 -0.148299 0.520029 0.370436 2 41 0.943654 40 0.056346
  41 -5.253564 4.698830 -37.156803 -0.726552 0.674393 -0.131591 0.588370 0.370351 3 41 0.836609 49 0.104318 40 0.059073
  40 -5.809061 5.623390 -28.233212 -0.719995 0.691766 -0.055384 0.593934 0.275504 4 40 0.660593 49 0.216512 41 0.076054 39 0.046841
shalrath
  41 0.843793 6.210093 -37.265411 0.464139 0.873260 -0.148299 0.520029 0.370436 2 41 0.943654 40 0.056346
  40 -5.809061 5.623390 -28.233212 -0.719995 0.691766 -0.055384 0.593934 0.275504 4 40 0.660593 49 0.216512 41 0.076054 39 0.046841
  40 1.343734 7.246840 -28.414576 0.470269 0.879969 -0.067095 0.514268 0.275913 4 40 0.858110 41 0.086549 39 0.050692 49 0.004648
shalrath
  41 2.963597 0.347775 -37.447433 0.992166 -0.005141 -0.124823 0.390462 0.539204 1 41 1.000000
  41 0.843792 -5.514542 -37.265411 0.455102 -0.870919 -0.185425 0.316963 0.539691 3 41 0.923075 40 0.055829 49 0.021095
  42 -1.398322 1.833438 -67.639214 0.007249 0.047157 -0.998861 0.386719 0.859375 2 42 0.990514 41 0.009486
shalrath
  41 -5.253565 -4.003278 -37.156803 -0.716617 -0.678525 -0.161444 0.309805 0.336728 3 41 0.850157 49 0.091967 40 0.057875
  41 -6.042877 0.347776 -37.302254 -0.993172 -0.002827 -0.116630 0.259211 0.336547 3 41 0.816736 49 0.137994 40 0.045270
  42 -1.398322 1.833438 -67.639214 0.007249 0.047157 -0.998861 0.261719 0.667969 2 42 0.990514 41 0.009486
shalrath
  41 0.843792 -5.514542 -37.265411 0.455102 -0.870919 -0.185425 0.867583 0.661908 3 41 0.923075 40 0.055829 49 0.021095
  41 -5.253565 -4.003278 -37.156803 -0.716617 -0.678525 -0.161444 0.801198 0.658589 3 41 0.850157 49 0.091967 40 0.057875
  42 -1.398322 1.833438 -67.639214 0.007249 0.047157 -0.998861 0.847656 0.988281 2 42 0.990514 41 0.009486
shalrath
  10 15.858474 0.347775 46.449917 -0.074755 0.000000 -0.997202 0.925781 0.945312 2 10 0.969987 8 0.030013
  10 16.458803 -1.202601 48.297482 0.109046 -0.988488 0.104886 0.937500 0.921875 1 10 1.000000
  8 10.526319 -1.832847 49.019024 0.085232 -0.971345 0.221865 0.875000 0.898438 2 8 0.967876 9 0.032124
shalrath
  10 15.858474 0.347775 46.449917 -0.074755 0.000000 -0.997202 0.925781 0.945312 2 10 0.969987 8 0.030013
  8 10.526319 -1.832847 49.019024 0.085232 -0.971345 0.221865 0.875000 0.898438 2 8 0.967876 9 0.032124
  8 11.326708 0.347775 45.494686 0.276624 -0.000000 -0.960978 0.875000 0.945312 2 8 0.942584 10 0.057416
shalrath
  18 3.026142 -19.739056 28.450672 -0.148377 0.422466 -0.894151 0.628906 0.191406 1 18 1.000000
  17 1.164501 -6.270183 32.328613 -0.107302 -0.678414 -0.726802 0.613281 0.343750 4 17 0.886712 3 0.083475 18 0.026764 4 0.003049
  17 5.469501 -5.789200 34.787331 0.976602 -0.165045 -0.137873 0.664062 0.355469 2 17 0.975479 5 0.024521
shalrath
  18 3.026142 -19.739056 28.450672 -0.148377 0.422466 -0.894151 0.628906 0.191406 1 18 1.000000
  17 5.469501 -5.789200 34.787331 0.976602 -0.165045 -0.137873 0.664062 0.355469 2 17 0.975479 5 0.024521
  18 5.579267 -19.946894 28.794861 0.881034 -0.031573 -0.471998 0.656250 0.191406 1 18 1.000000
shalrath
  20 -0.447613 -27.352766 24.252642 -0.162618 0.546909 -0.821247 0.187500 0.515625 2 20 0.873406 19 0.126594
  18 3.026142 -19.739056 28.450672 -0.148377 0.422466 -0.894151 0.183594 0.613281 1 18 1.000000
  18 5.579267 -19.946894 28.794861 0.881034 -0.031573 -0.471998 0.207031 0.625000 1 18 1.000000
shalrath
  20 -0.447613 -27.352766 24.252642 -0.162618 0.546909 -0.821247 0.187500 0.515625 2 20 0.873406 19 0.126594
  18 5.579267 -19.946894 28.794861 0.881034 -0.031573 -0.471998 0.207031 0.625000 1 18 1.000000
  20 0.104697 -27.458786 24.443813 0.726434 0.172571 -0.665216 0.191406 0.515625 2 20 0.778225 19 0.221775
shalrath
  23 -1.603348 -30.003166 22.952997 -0.134686 0.521345 -0.842650 0.449219 0.054688 3 23 0.860509 21 0.077723 25 0.061768
  20 -0.447613 -27.352766 24.252642 -0.162618 0.546909 -0.821247 0.445312 0.019531 2 20 0.873406 19 0.126594
  21 -0.691492 -30.156038 22.793297 -0.055244 0.481626 -0.874634 0.441406 0.054688 2 21 0.846355 23 0.153645
shalrath
  21 -0.691492 -30.156038 22.793297 -0.055244 0.481626 -0.874634 0.093750 0.011719 2 21 0.846355 23 0.153645
  20 -0.447613 -27.352766 24.252642 -0.162618 0.546909 -0.821247 0.093750 0.042969 2 20 0.873406 19 0.126594
  20 0.104697 -27.458786 24.443813 0.726434 0.172571 -0.665216 0.101562 0.042969 2 20 0.778225 19 0.221775
shalrath
  21 -0.691492 -30.156038 22.793297 -0.055244 0.481626 -0.874634 0.093750 0.011719 2 21 0.846355 23 0.153645
  20 0.104697 -27.458786 24.443813 0.726434 0.172571 -0.665216 0.101562 0.042969 2 20 0.778225 19 0.221775
  21 0.125921 -30.148932 22.669777 0.730112 0.441308 -0.521713 0.101562 0.011719 2 21 0.959447 23 0.040553
shalrath
  8 4.278111 -2.204804 47.359341 0.091127 -0.947455 0.306634 0.425781 0.070312 2 8 0.956220 7 0.043780
  8 7.100133 0.347775 42.783966 0.870860 -0.000000 -0.491531 0.425781 0.132812 3 8 0.843435 6 0.099937 7 0.056628
  8 11.326708 0.347775 45.494686 0.276624 -0.000000 -0.960978 0.476562 0.132812 2 8 0.942584 10 0.057416
shalrath
  8 4.278111 -2.204804 47.359341 0.091127 -0.947455 0.306634 0.425781 0.070312 2 8 0.956220 7 0.043780
  8 11.326708 0.347775 45.494686 0.276624 -0.000000 -0.960978 0.476562 0.132812 2 8 0.942584 10 0.057416
  8 10.526319 -1.832847 49.019024 0.085232 -0.971345 0.221865 0.492188 0.089844 2 8 0.967876 9 0.032124
shalrath
  37 1.912983 6.318166 17.386911 0.511009 0.852887 0.107022 0.152344 0.632812 2 37 0.936374 3 0.063626
  3 1.403862 5.046488 24.839346 0.512167 0.853115 -0.099394 0.140625 0.554688 3 3 0.844433 37 0.081954 27 0.073613
  37 4.463257 0.347775 13.968040 0.999361 -0.000028 0.035756 0.093767 0.667408 2 37 0.996339 3 0.003661
shalrath
  37 -6.457950 0.347776 16.508772 -0.999172 0.000000 0.040697 0.171875 0.988281 3 37 0.940961 3 0.058297 38 0.000742
  3 -6.368748 0.347776 24.856192 -0.999932 0.000000 -0.011670 0.171875 0.898438 3 3 0.828244 37 0.098365 4 0.073391
  3 -4.543189 4.500839 24.195595 -0.632822 0.774275 -0.005811 0.121094 0.906250 3 3 0.819417 37 0.128552 4 0.052031
shalrath
  37 -6.457950 0.347776 16.508772 -0.999172 0.000000 0.040697 0.171875 0.988281 3 37 0.940961 3 0.058297 38 0.000742
  3 -4.543189 4.500839 24.195595 -0.632822 0.774275 -0.005811 0.121094 0.906250 3 3 0.819417 37 0.128552 4 0.052031
  37 -5.009981 5.631788 16.755009 -0.643914 0.761334 0.075801 0.113281 0.988281 3 37 0.925048 3 0.069046 38 0.005906
shalrath
  37 -5.009981 5.631788 16.755009 -0.643914 0.761334 0.075801 0.113281 0.988281 3 37 0.925048 3 0.069046 38 0.005906
  3 -4.543189 4.500839 24.195595 -0.632822 0.774275 -0.005811 0.121094 0.906250 3 3 0.819417 37 0.128552 4 0.052031
  3 1.403862 5.046488 24.839346 0.512167 0.853115 -0.099394 0.054688 0.894531 3 3 0.844433 37 0.081954 27 0.073613
shalrath
  37 -5.009981 5.631788 16.755009 -0.643914 0.761334 0.075801 0.113281 0.988281 3 37 0.925048 3 0.069046 38 0.005906
  3 1.403862 5.046488 24.839346 0.512167 0.853115 -0.099394 0.054688 0.894531 3 3 0.844433 37 0.081954 27 0.073613
  37 1.912983 6.318166 17.386911 0.511009 0.852887 0.107022 0.042969 0.976562 2 37 0.936374 3 0.063626
shalrath
  3 1.403862 5.046488 24.839346 0.512167 0.853115 -0.099394 0.054688 0.894531 3 3 0.844433 37 0.081954 27 0.073613
  27 1.164502 6.965734 32.328613 -0.107302 0.678414 -0.726802 0.058594 0.808594 3 27 0.888537 3 0.072865 28 0.038598
  27 5.469501 6.484751 34.787331 0.976602 0.165045 -0.137873 0.011719 0.785156 3 27 0.912992 28 0.066419 5 0.020589
shalrath
  3 -6.368748 0.347776 24.856192 -0.999932 0.000000 -0.011670 0.171875 0.898438 3 3 0.828244 37 0.098365 4 0.073391
  4 -6.837914 0.347776 31.312744 -0.980879 0.000000 0.194619 0.171875 0.832031 2 4 0.507170 3 0.492830
  3 -4.545399 5.626847 30.935970 -0.666433 0.744936 0.030616 0.117188 0.832031 3 3 0.443135 4 0.355439 27 0.201426
shalrath
  3 -6.368748 0.347776 24.856192 -0.999932 0.000000 -0.011670 0.171875 0.898438 3 3 0.828244 37 0.098365 4 0.073391
  3 -4.545399 5.626847 30.935970 -0.666433 0.744936 0.030616 0.117188 0.832031 3 3 0.443135 4 0.355439 27 0.201426
  3 -4.543189 4.500839 24.195595 -0.632822 0.774275 -0.005811 0.121094 0.906250 3 3 0.819417 37 0.128552 4 0.052031
shalrath
  3 -4.543189 4.500839 24.195595 -0.632822 0.774275 -0.005811 0.121094 0.906250 3 3 0.819417 37 0.128552 4 0.052031
  3 -4.545399 5.626847 30.935970 -0.666433 0.744936 0.030616 0.117188 0.832031 3 3 0.443135 4 0.355439 27 0.201426
  27 1.164502 6.965734 32.328613 -0.107302 0.678414 -0.726802 0.058594 0.808594 3 27 0.888537 3 0.072865 28 0.038598
shalrath
  3 -4.543189 4.500839 24.195595 -0.632822 0.774275 -0.005811 0.121094 0.906250 3 3 0.819417 37 0.128552 4 0.052031
  27 1.164502 6.965734 32.328613 -0.107302 0.678414 -0.726802 0.058594 0.808594 3 27 0.888537 3 0.072865 28 0.038598
  3 1.403862 5.046488 24.839346 0.512167 0.853115 -0.099394 0.054688 0.894531 3 3 0.844433 37 0.081954 27 0.073613
shalrath
  4 -6.837914 0.347776 31.312744 -0.980879 0.000000 0.194619 0.171875 0.832031 2 4 0.507170 3 0.492830
  4 -4.417910 0.347776 35.487530 -0.903080 0.000000 0.429472 0.171875 0.785156 4 4 0.705537 3 0.106042 27 0.104551 6 0.083871
  27 -1.810803 7.414485 35.515003 -0.875766 0.470761 0.106858 0.093750 0.777344 4 27 0.948783 4 0.027749 28 0.013918 3 0.009550
shalrath
  4 -6.837914 0.347776 31.312744 -0.980879 0.000000 0.194619 0.171875 0.832031 2 4 0.507170 3 0.492830
  27 -1.810803 7.414485 35.515003 -0.875766 0.470761 0.106858 0.093750 0.777344 4 27 0.948783 4 0.027749 28 0.013918 3 0.009550
  3 -4.545399 5.626847 30.935970 -0.666433 0.744936 0.030616 0.117188 0.832031 3 3 0.443135 4 0.355439 27 0.201426
shalrath
  3 -4.545399 5.626847 30.935970 -0.666433 0.744936 0.030616 0.117188 0.832031 3 3 0.443135 4 0.355439 27 0.201426
  27 -1.810803 7.414485 35.515003 -0.875766 0.470761 0.106858 0.093750 0.777344 4 27 0.948783 4 0.027749 28 0.013918 3 0.009550
  27 1.164502 6.965734 32.328613 -0.107302 0.678414 -0.726802 0.058594 0.808594 3 27 0.888537 3 0.072865 28 0.038598
shalrath
  3 1.403862 5.046488 24.839346 0.512167 0.853115 -0.099394 0.140625 0.554688 3 3 0.844433 37 0.081954 27 0.073613
  27 5.469501 6.484751 34.787331 0.976602 0.165045 -0.137873 0.148438 0.437500 3 27 0.912992 28 0.066419 5 0.020589
  5 5.872482 0.347775 34.583038 0.999348 -0.000000 -0.036111 0.085938 0.441406 4 5 0.710063 17 0.101648 27 0.098629 6 0.089659
shalrath
  3 1.403862 5.046488 24.839346 0.512167 0.853115 -0.099394 0.140625 0.554688 3 3 0.844433 37 0.081954 27 0.073613
  5 5.872482 0.347775 34.583038 0.999348 -0.000000 -0.036111 0.085938 0.441406 4 5 0.710063 17 0.101648 27 0.098629 6 0.089659
  3 3.501229 0.347775 24.993353 0.990435 -0.000000 -0.137979 0.085938 0.550781 2 3 0.956347 37 0.043653
shalrath
  37 4.463257 0.347775 13.968040 0.999361 -0.000028 0.035756 0.093767 0.667408 2 37 0.996339 3 0.003661
  3 1.403862 5.046488 24.839346 0.512167 0.853115 -0.099394 0.140625 0.554688 3 3 0.844433 37 0.081954 27 0.073613
  3 3.501229 0.347775 24.993353 0.990435 -0.000000 -0.137979 0.085938 0.550781 2 3 0.956347 37 0.043653
shalrath
  27 -1.810803 7.414485 35.515003 -0.875766 0.470761 0.106858 0.093750 0.777344 4 27 0.948783 4 0.027749 28 0.013918 3 0.009550
  4 -4.417910 0.347776 35.487530 -0.903080 0.000000 0.429472 0.171875 0.785156 4 4 0.705537 3 0.106042 27 0.104551 6 0.083871
  27 -0.446161 7.003768 38.559441 -0.492145 0.443827 0.748873 0.097656 0.742188 2 27 0.943567 28 0.056433
shalrath
  27 5.469501 6.484751 34.787331 0.976602 0.165045 -0.137873 0.148438 0.437500 3 27 0.912992 28 0.066419 5 0.020589
  27 4.017120 7.548016 38.675587 0.551752 0.330934 0.765540 0.160156 0.398438 2 27 0.555103 28 0.444897
  6 4.879237 0.347775 39.205692 0.990024 -0.000000 0.140901 0.085938 0.394531 4 6 0.757448 7 0.129244 5 0.058752 8 0.054556
shalrath
  27 5.469501 6.484751 34.787331 0.976602 0.165045 -0.137873 0.148438 0.437500 3 27 0.912992 28 0.066419 5 0.020589
  6 4.879237 0.347775 39.205692 0.990024 -0.000000 0.140901 0.085938 0.394531 4 6 0.757448 7 0.129244 5 0.058752 8 0.054556
  5 5.872482 0.347775 34.583038 0.999348 -0.000000 -0.036111 0.085938 0.441406 4 5 0.710063 17 0.101648 27 0.098629 6 0.089659
shalrath
  27 5.469501 6.484751 34.787331 0.976602 0.165045 -0.137873 0.160156 0.179688 3 27 0.912992 28 0.066419 5 0.020589
  28 5.579268 20.642445 28.794861 0.881034 0.031573 -0.471998 0.152344 0.343750 1 28 1.000000
  28 5.000842 21.405197 30.703388 0.642124 0.525335 0.558301 0.175781 0.343750 1 28 1.000000
shalrath
  27 5.469501 6.484751 34.787331 0.976602 0.165045 -0.137873 0.160156 0.179688 3 27 0.912992 28 0.066419 5 0.020589
  28 5.000842 21.405197 30.703388 0.642124 0.525335 0.558301 0.175781 0.343750 1 28 1.000000
  27 4.017120 7.548016 38.675587 0.551752 0.330934 0.765540 0.207031 0.175781 2 27 0.555103 28 0.444897
shalrath
  27 -1.810803 7.414485 35.515003 -0.875766 0.470761 0.106858 0.703125 0.203125 4 27 0.948783 4 0.027749 28 0.013918 3 0.009550
  28 2.007319 20.493980 29.468273 -0.977287 -0.106401 -0.183273 0.746094 0.355469 1 28 1.000000
  28 3.026143 20.434607 28.450672 -0.148377 -0.422466 -0.894151 0.757812 0.359375 1 28 1.000000
shalrath
  27 -1.810803 7.414485 35.515003 -0.875766 0.470761 0.106858 0.703125 0.203125 4 27 0.948783 4 0.027749 28 0.013918 3 0.009550
  28 3.026143 20.434607 28.450672 -0.148377 -0.422466 -0.894151 0.757812 0.359375 1 28 1.000000
  27 1.164502 6.965734 32.328613 -0.107302 0.678414 -0.726802 0.750000 0.210938 3 27 0.888537 3 0.072865 28 0.038598
shalrath
  27 4.017120 7.548016 38.675587 0.551752 0.330934 0.765540 0.230469 0.140625 2 27 0.555103 28 0.444897
  28 5.000842 21.405197 30.703388 0.642124 0.525335 0.558301 0.238281 0.312500 1 28 1.000000
  28 2.644579 21.737453 30.808815 -0.421142 0.459315 0.782093 0.265625 0.308594 1 28 1.000000
shalrath
  27 4.017120 7.548016 38.675587 0.551752 0.330934 0.765540 0.230469 0.140625 2 27 0.555103 28 0.444897
  28 2.644579 21.737453 30.808815 -0.421142 0.459315 0.782093 0.265625 0.308594 1 28 1.000000
  27 -0.446161 7.003768 38.559441 -0.492145 0.443827 0.748873 0.277344 0.128906 2 27 0.943567 28 0.056433
shalrath
  27 -0.446161 7.003768 38.559441 -0.492145 0.443827 0.748873 0.277344 0.128906 2 27 0.943567 28 0.056433
  28 2.644579 21.737453 30.808815 -0.421142 0.459315 0.782093 0.265625 0.308594 1 28 1.000000
  28 2.007319 20.493980 29.468273 -0.977287 -0.106401 -0.183273 0.285156 0.304688 1 28 1.000000
shalrath
  27 -0.446161 7.003768 38.559441 -0.492145 0.443827 0.748873 0.277344 0.128906 2 27 0.943567 28 0.056433
  28 2.007319 20.493980 29.468273 -0.977287 -0.106401 -0.183273 0.285156 0.304688 1 28 1.000000
  27 -1.810803 7.414485 35.515003 -0.875766 0.470761 0.106858 0.308594 0.148438 4 27 0.948783 4 0.027749 28 0.013918 3 0.009550
shalrath
  28 5.579268 20.642445 28.794861 0.881034 0.031573 -0.471998 0.902344 0.878906 1 28 1.000000
  30 0.104700 28.154337 24.443813 0.726434 -0.172571 -0.665217 0.917969 0.769531 2 30 0.858511 45 0.141489
  45 0.092005 28.439865 25.539890 0.583770 0.633701 0.507578 0.906250 0.769531 2 45 0.780325 30 0.219675
shalrath
  28 5.579268 20.642445 28.794861 0.881034 0.031573 -0.471998 0.902344 0.878906 1 28 1.000000
  45 0.092005 28.439865 25.539890 0.583770 0.633701 0.507578 0.906250 0.769531 2 45 0.780325 30 0.219675
  28 5.000842 21.405197 30.703388 0.642124 0.525335 0.558301 0.878906 0.875000 1 28 1.000000
shalrath
  28 2.007319 20.493980 29.468273 -0.977287 -0.106401 -0.183273 0.414062 0.859375 1 28 1.000000
  30 -1.181480 27.907450 24.912758 -0.834348 -0.506105 -0.218453 0.421875 0.957031 1 30 1.000000
  30 -0.447611 28.048319 24.252642 -0.162619 -0.546909 -0.821247 0.429688 0.960938 2 30 0.997692 45 0.002308
shalrath
  28 2.007319 20.493980 29.468273 -0.977287 -0.106401 -0.183273 0.414062 0.859375 1 28 1.000000
  30 -0.447611 28.048319 24.252642 -0.162619 -0.546909 -0.821247 0.429688 0.960938 2 30 0.997692 45 0.002308
  28 3.026143 20.434607 28.450672 -0.148377 -0.422466 -0.894151 0.429688 0.859375 1 28 1.000000
shalrath
  28 2.644579 21.737453 30.808815 -0.421142 0.459315 0.782093 0.640625 0.070312 1 28 1.000000
  30 -0.984027 28.321453 25.948687 -0.542134 0.306951 0.782223 0.648438 0.164062 2 30 0.891713 45 0.108287
  30 -1.181480 27.907450 24.912758 -0.834348 -0.506105 -0.218453 0.660156 0.167969 1 30 1.000000
shalrath
  28 2.644579 21.737453 30.808815 -0.421142 0.459315 0.782093 0.640625 0.070312 1 28 1.000000
  30 -1.181480 27.907450 24.912758 -0.834348 -0.506105 -0.218453 0.660156 0.167969 1 30 1.000000
  28 2.007319 20.493980 29.468273 -0.977287 -0.106401 -0.183273 0.660156 0.070312 1 28 1.000000
shalrath
  28 5.000842 21.405197 30.703388 0.642124 0.525335 0.558301 0.617188 0.058594 1 28 1.000000
  45 0.092005 28.439865 25.539890 0.583770 0.633701 0.507578 0.636719 0.164062 2 45 0.780325 30 0.219675
  30 -0.984027 28.321453 25.948687 -0.542134 0.306951 0.782223 0.648438 0.164062 2 30 0.891713 45 0.108287
shalrath
  28 5.000842 21.405197 30.703388 0.642124 0.525335 0.558301 0.617188 0.058594 1 28 1.000000
  30 -0.984027 28.321453 25.948687 -0.542134 0.306951 0.782223 0.648438 0.164062 2 30 0.891713 45 0.108287
  28 2.644579 21.737453 30.808815 -0.421142 0.459315 0.782093 0.640625 0.070312 1 28 1.000000
shalrath
  6 3.734658 3.186135 40.015434 0.581891 0.662169 0.472160 0.109375 0.136719 4 6 0.468867 7 0.404542 27 0.081765 8 0.044826
  8 4.278112 2.900355 47.359341 0.091194 0.947414 0.306742 0.183594 0.156250 2 8 0.939555 7 0.060445
  8 7.100133 0.347775 42.783966 0.870860 -0.000000 -0.491531 0.152344 0.101562 3 8 0.843435 6 0.099937 7 0.056628
shalrath
  6 3.734658 3.186135 40.015434 0.581891 0.662169 0.472160 0.109375 0.136719 4 6 0.468867 7 0.404542 27 0.081765 8 0.044826
  8 7.100133 0.347775 42.783966 0.870860 -0.000000 -0.491531 0.152344 0.101562 3 8 0.843435 6 0.099937 7 0.056628
  6 4.879237 0.347775 39.205692 0.990024 -0.000000 0.140901 0.109375 0.101562 4 6 0.757448 7 0.129244 5 0.058752 8 0.054556
shalrath
  27 -1.935922 3.071900 40.136013 -0.793910 0.348884 0.497983 0.410156 0.218750 4 27 0.591936 7 0.175836 6 0.172871 4 0.059357
  7 -1.274587 3.915995 43.308075 -0.735493 0.676534 0.036761 0.398438 0.183594 4 7 0.739106 27 0.118006 8 0.073035 6 0.069853
  6 3.734658 3.186135 40.015434 0.581891 0.662169 0.472160 0.351562 0.230469 4 6 0.468867 7 0.404542 27 0.081765 8 0.044826
shalrath
  7 -1.274587 3.915995 43.308075 -0.735493 0.676534 0.036761 0.398438 0.183594 4 7 0.739106 27 0.118006 8 0.073035 6 0.069853
  7 -1.875402 2.646855 46.144482 -0.854465 0.499395 0.143161 0.394531 0.152344 3 7 0.844291 8 0.146834 27 0.008875
  8 4.278112 2.900355 47.359341 0.091194 0.947414 0.306742 0.328125 0.156250 2 8 0.939555 7 0.060445
shalrath
  8 4.278112 2.900355 47.359341 0.091194 0.947414 0.306742 0.328125 0.156250 2 8 0.939555 7 0.060445
  7 -1.875402 2.646855 46.144482 -0.854465 0.499395 0.143161 0.394531 0.152344 3 7 0.844291 8 0.146834 27 0.008875
  8 2.053021 0.347775 49.654369 -0.244183 0.000000 0.969729 0.343750 0.117188 2 8 0.873605 7 0.126395
shalrath
  8 2.053021 0.347775 49.654369 -0.244183 0.000000 0.969729 0.363281 0.984375 2 8 0.873605 7 0.126395
  8 10.393853 0.347775 50.854839 0.003277 -0.000000 0.999995 0.363281 0.894531 2 8 0.589019 9 0.410981
  8 10.526319 2.528397 49.019024 0.085232 0.971345 0.221865 0.332031 0.894531 3 8 0.922156 9 0.061644 10 0.016199
shalrath
  8 2.053021 0.347775 49.654369 -0.244183 0.000000 0.969729 0.363281 0.984375 2 8 0.873605 7 0.126395
  8 10.526319 2.528397 49.019024 0.085232 0.971345 0.221865 0.332031 0.894531 3 8 0.922156 9 0.061644 10 0.016199
  8 4.278112 2.900355 47.359341 0.091194 0.947414 0.306742 0.324219 0.964844 2 8 0.939555 7 0.060445
shalrath
  8 10.393853 0.347775 50.854839 0.003277 -0.000000 0.999995 0.820312 0.121094 2 8 0.589019 9 0.410981
  10 16.968084 0.347775 49.813736 0.302517 0.000000 0.953144 0.820312 0.050781 1 10 1.000000
  10 16.458803 1.898150 48.297482 0.109046 0.988488 0.104886 0.796875 0.054688 1 10 1.000000
shalrath
  8 10.393853 0.347775 50.854839 0.003277 -0.000000 0.999995 0.820312 0.121094 2 8 0.589019 9 0.410981
  10 16.458803 1.898150 48.297482 0.109046 0.988488 0.104886 0.796875 0.054688 1 10 1.000000
  8 10.526319 2.528397 49.019024 0.085232 0.971345 0.221865 0.789062 0.117188 3 8 0.922156 9 0.061644 10 0.016199
shalrath
  10 16.458803 1.898150 48.297482 0.109046 0.988488 0.104886 0.941406 0.738281 1 10 1.000000
  10 22.636984 1.465892 45.832436 0.086995 0.995417 0.039703 0.933594 0.667969 1 10 1.000000
  10 21.819773 0.347774 44.868649 -0.352879 0.000000 -0.935669 0.917969 0.671875 1 10 1.000000
shalrath
  10 16.458803 1.898150 48.297482 0.109046 0.988488 0.104886 0.941406 0.738281 1 10 1.000000
  10 21.819773 0.347774 44.868649 -0.352879 0.000000 -0.935669 0.917969 0.671875 1 10 1.000000
  10 15.858474 0.347775 46.449917 -0.074755 0.000000 -0.997202 0.917969 0.738281 2 10 0.969987 8 0.030013
shalrath
  10 16.968084 0.347775 49.813736 0.302517 0.000000 0.953144 0.925781 0.050781 1 10 1.000000
  10 22.745728 0.347774 47.212360 0.474354 0.000000 0.880334 0.925781 0.117188 1 10 1.000000
  10 22.636984 1.465892 45.832436 0.086995 0.995417 0.039703 0.941406 0.121094 1 10 1.000000
shalrath
  10 16.968084 0.347775 49.813736 0.302517 0.000000 0.953144 0.925781 0.050781 1 10 1.000000
  10 22.636984 1.465892 45.832436 0.086995 0.995417 0.039703 0.941406 0.121094 1 10 1.000000
  10 16.458803 1.898150 48.297482 0.109046 0.988488 0.104886 0.949219 0.050781 1 10 1.000000
shalrath
  10 22.636984 1.465892 45.832436 0.086995 0.995417 0.039703 0.773438 0.781250 1 10 1.000000
  12 27.535273 1.162295 43.133675 0.028271 0.994844 -0.097400 0.769531 0.722656 2 12 0.935962 11 0.064038
  12 27.158785 0.347774 41.903427 -0.130467 -0.000000 -0.991453 0.753906 0.718750 2 12 0.542594 11 0.457406
shalrath
  10 22.636984 1.465892 45.832436 0.086995 0.995417 0.039703 0.773438 0.781250 1 10 1.000000
  12 27.158785 0.347774 41.903427 -0.130467 -0.000000 -0.991453 0.753906 0.718750 2 12 0.542594 11 0.457406
  10 21.819773 0.347774 44.868649 -0.352879 0.000000 -0.935669 0.753906 0.785156 1 10 1.000000
shalrath
  10 22.745728 0.347774 47.212360 0.474354 0.000000 0.880334 0.027344 0.769531 1 10 1.000000
  12 27.391907 0.347774 44.017509 0.249151 -0.000000 0.968465 0.027344 0.707031 2 12 0.965651 10 0.034349
  12 27.535273 1.162295 43.133675 0.028271 0.994844 -0.097400 0.015625 0.703125 2 12 0.935962 11 0.064038
shalrath
  10 22.745728 0.347774 47.212360 0.474354 0.000000 0.880334 0.027344 0.769531 1 10 1.000000
  12 27.535273 1.162295 43.133675 0.028271 0.994844 -0.097400 0.015625 0.703125 2 12 0.935962 11 0.064038
  10 22.636984 1.465892 45.832436 0.086995 0.995417 0.039703 0.011719 0.761719 1 10 1.000000
shalrath
  12 27.535273 1.162295 43.133675 0.028271 0.994844 -0.097400 0.199219 0.484375 2 12 0.935962 11 0.064038
  13 31.177340 1.007018 44.103054 0.079823 0.995231 -0.056062 0.195312 0.445312 2 13 0.913380 12 0.086620
  13 31.693993 0.347774 43.422527 0.633675 0.000000 -0.773600 0.183594 0.441406 2 13 0.594042 12 0.405958
shalrath
  12 27.535273 1.162295 43.133675 0.028271 0.994844 -0.097400 0.199219 0.484375 2 12 0.935962 11 0.064038
  13 31.693993 0.347774 43.422527 0.633675 0.000000 -0.773600 0.183594 0.441406 2 13 0.594042 12 0.405958
  12 27.158785 0.347774 41.903427 -0.130467 -0.000000 -0.991453 0.183594 0.492188 2 12 0.542594 11 0.457406
shalrath
  12 27.391907 0.347774 44.017509 0.249151 -0.000000 0.968465 0.238281 0.113281 2 12 0.965651 10 0.034349
  13 30.771957 0.347774 44.673725 -0.602016 -0.000001 0.798484 0.238281 0.078125 2 13 0.998131 12 0.001869
  13 31.177340 1.007018 44.103054 0.079823 0.995231 -0.056062 0.230469 0.074219 2 13 0.913380 12 0.086620
shalrath
  12 27.391907 0.347774 44.017509 0.249151 -0.000000 0.968465 0.238281 0.113281 2 12 0.965651 10 0.034349
  13 31.177340 1.007018 44.103054 0.079823 0.995231 -0.056062 0.230469 0.074219 2 13 0.913380 12 0.086620
  12 27.535273 1.162295 43.133675 0.028271 0.994844 -0.097400 0.226562 0.113281 2 12 0.935962 11 0.064038
shalrath
  13 31.177340 1.007018 44.103054 0.079823 0.995231 -0.056062 0.359375 0.863281 2 13 0.913380 12 0.086620
  14 32.569427 0.928591 46.811508 -0.003986 0.999560 0.029386 0.359375 0.832031 1 14 1.000000
  14 33.476994 0.347774 46.604664 0.986996 -0.000000 -0.160742 0.351562 0.828125 1 14 1.000000
shalrath
  13 31.177340 1.007018 44.103054 0.079823 0.995231 -0.056062 0.359375 0.863281 2 13 0.913380 12 0.086620
  14 33.476994 0.347774 46.604664 0.986996 -0.000000 -0.160742 0.351562 0.828125 1 14 1.000000
  13 31.693993 0.347774 43.422527 0.633675 0.000000 -0.773600 0.351562 0.867188 2 13 0.594042 12 0.405958
shalrath
  13 30.771957 0.347774 44.673725 -0.602016 -0.000001 0.798484 0.480469 0.058594 2 13 0.998131 12 0.001869
  14 32.147366 0.347774 46.874039 -0.978251 -0.000000 0.207425 0.480469 0.031250 1 14 1.000000
  14 32.569427 0.928591 46.811508 -0.003986 0.999560 0.029386 0.472656 0.031250 1 14 1.000000
shalrath
  13 30.771957 0.347774 44.673725 -0.602016 -0.000001 0.798484 0.480469 0.058594 2 13 0.998131 12 0.001869
  14 32.569427 0.928591 46.811508 -0.003986 0.999560 0.029386 0.472656 0.031250 1 14 1.000000
  13 31.177340 1.007018 44.103054 0.079823 0.995231 -0.056062 0.468750 0.062500 2 13 0.913380 12 0.086620
shalrath
  14 32.569427 0.928591 46.811508 -0.003986 0.999560 0.029386 0.078125 0.074219 1 14 1.000000
  15 32.212875 0.812914 49.504452 -0.047543 0.996255 0.072217 0.074219 0.046875 2 15 0.993104 14 0.006896
  15 32.790741 0.347774 49.850208 0.844140 -0.000000 0.536123 0.066406 0.042969 1 15 1.000000
shalrath
  14 32.569427 0.928591 46.811508 -0.003986 0.999560 0.029386 0.078125 0.074219 1 14 1.000000
  15 32.790741 0.347774 49.850208 0.844140 -0.000000 0.536123 0.066406 0.042969 1 15 1.000000
  14 33.476994 0.347774 46.604664 0.986996 -0.000000 -0.160742 0.066406 0.078125 1 14 1.000000
shalrath
  14 32.147366 0.347774 46.874039 -0.978251 -0.000000 0.207425 0.238281 0.050781 1 14 1.000000
  15 31.827541 0.347774 49.413109 -0.915287 0.000000 -0.402803 0.238281 0.023438 1 15 1.000000
  15 32.212875 0.812914 49.504452 -0.047543 0.996255 0.072217 0.230469 0.023438 2 15 0.993104 14 0.006896
shalrath
  14 32.147366 0.347774 46.874039 -0.978251 -0.000000 0.207425 0.238281 0.050781 1 14 1.000000
  15 32.212875 0.812914 49.504452 -0.047543 0.996255 0.072217 0.230469 0.023438 2 15 0.993104 14 0.006896
  14 32.569427 0.928591 46.811508 -0.003986 0.999560 0.029386 0.230469 0.050781 1 14 1.000000
shalrath
  15 32.212875 0.812914 49.504452 -0.047543 0.996255 0.072217 0.964844 0.898438 2 15 0.993104 14 0.006896
  16 29.469086 0.347774 52.323475 -0.713560 0.000000 0.700594 0.953125 0.859375 2 16 0.937914 15 0.062086
  15 32.790741 0.347774 49.850208 0.844140 -0.000000 0.536123 0.953125 0.902344 1 15 1.000000
shalrath
  15 31.827541 0.347774 49.413109 -0.915287 0.000000 -0.402803 0.187500 0.417969 1 15 1.000000
  16 29.469086 0.347774 52.323475 -0.713560 0.000000 0.700594 0.187500 0.378906 2 16 0.937914 15 0.062086
  15 32.212875 0.812914 49.504452 -0.047543 0.996255 0.072217 0.183594 0.417969 2 15 0.993104 14 0.006896
shalrath
  4 -4.417910 0.347776 35.487530 -0.903080 0.000000 0.429472 0.171875 0.785156 4 4 0.705537 3 0.106042 27 0.104551 6 0.083871
  27 -1.935922 3.071900 40.136013 -0.793910 0.348884 0.497983 0.144531 0.730469 4 27 0.591936 7 0.175836 6 0.172871 4 0.059357
  27 -0.446161 7.003768 38.559441 -0.492145 0.443827 0.748873 0.097656 0.742188 2 27 0.943567 28 0.056433
shalrath
  27 4.017120 7.548016 38.675587 0.551752 0.330934 0.765540 0.160156 0.398438 2 27 0.555103 28 0.444897
  6 3.734658 3.186135 40.015434 0.581891 0.662169 0.472160 0.117188 0.382812 4 6 0.468867 7 0.404542 27 0.081765 8 0.044826
  6 4.879237 0.347775 39.205692 0.990024 -0.000000 0.140901 0.085938 0.394531 4 6 0.757448 7 0.129244 5 0.058752 8 0.054556
shalrath
  27 -0.446161 7.003768 38.559441 -0.492145 0.443827 0.748873 0.097656 0.742188 2 27 0.943567 28 0.056433
  27 -1.935922 3.071900 40.136013 -0.793910 0.348884 0.497983 0.144531 0.730469 4 27 0.591936 7 0.175836 6 0.172871 4 0.059357
  6 3.734658 3.186135 40.015434 0.581891 0.662169 0.472160 0.109375 0.679688 4 6 0.468867 7 0.404542 27 0.081765 8 0.044826
shalrath
  27 -0.446161 7.003768 38.559441 -0.492145 0.443827 0.748873 0.097656 0.742188 2 27 0.943567 28 0.056433
  6 3.734658 3.186135 40.015434 0.581891 0.662169 0.472160 0.109375 0.679688 4 6 0.468867 7 0.404542 27 0.081765 8 0.044826
  27 4.017120 7.548016 38.675587 0.551752 0.330934 0.765540 0.066406 0.703125 2 27 0.555103 28 0.444897
shalrath
  30 -0.984027 28.321453 25.948687 -0.542134 0.306951 0.782223 0.820312 0.593750 2 30 0.891713 45 0.108287
  45 0.092005 28.439865 25.539890 0.583770 0.633701 0.507578 0.808594 0.593750 2 45 0.780325 30 0.219675
  31 0.120637 31.154106 23.171196 0.758330 0.474171 0.447322 0.796875 0.632812 2 31 0.980540 33 0.019460
shalrath
  31 -0.764556 31.222452 23.553926 0.115445 0.762963 0.636050 0.808594 0.632812 2 31 0.824367 33 0.175633
  33 -1.532210 31.093943 23.642288 -0.040850 0.741926 0.669236 0.816406 0.632812 3 33 0.692529 31 0.161590 35 0.145881
  35 -2.404343 30.725416 23.723501 -0.719420 0.248151 0.648735 0.828125 0.632812 2 35 0.905040 33 0.094960
shalrath
  30 -0.984027 28.321453 25.948687 -0.542134 0.306951 0.782223 0.820312 0.593750 2 30 0.891713 45 0.108287
  31 0.120637 31.154106 23.171196 0.758330 0.474171 0.447322 0.796875 0.632812 2 31 0.980540 33 0.019460
  31 -0.764556 31.222452 23.553926 0.115445 0.762963 0.636050 0.808594 0.632812 2 31 0.824367 33 0.175633
shalrath
  31 -0.764556 31.222452 23.553926 0.115445 0.762963 0.636050 0.808594 0.632812 2 31 0.824367 33 0.175633
  35 -2.404343 30.725416 23.723501 -0.719420 0.248151 0.648735 0.828125 0.632812 2 35 0.905040 33 0.094960
  30 -0.984027 28.321453 25.948687 -0.542134 0.306951 0.782223 0.820312 0.593750 2 30 0.891713 45 0.108287
shalrath
  30 -0.984027 28.321453 25.948687 -0.542134 0.306951 0.782223 0.820312 0.593750 2 30 0.891713 45 0.108287
  35 -2.404343 30.725416 23.723501 -0.719420 0.248151 0.648735 0.828125 0.632812 2 35 0.905040 33 0.094960
  35 -2.331111 30.440369 23.209333 -0.707836 -0.608565 -0.358632 0.832031 0.632812 1 35 1.000000
shalrath
  30 -0.984027 28.321453 25.948687 -0.542134 0.306951 0.782223 0.820312 0.593750 2 30 0.891713 45 0.108287
  35 -2.331111 30.440369 23.209333 -0.707836 -0.608565 -0.358632 0.832031 0.632812 1 35 1.000000
  30 -1.181480 27.907450 24.912758 -0.834348 -0.506105 -0.218453 0.832031 0.597656 1 30 1.000000
shalrath
  30 0.104700 28.154337 24.443813 0.726434 -0.172571 -0.665217 0.214844 0.308594 2 30 0.858511 45 0.141489
  31 0.125924 30.844484 22.669777 0.730112 -0.441307 -0.521712 0.218750 0.273438 3 31 0.927462 33 0.059098 32 0.013439
  31 0.120637 31.154106 23.171196 0.758330 0.474171 0.447322 0.210938 0.273438 2 31 0.980540 33 0.019460
shalrath
  30 0.104700 28.154337 24.443813 0.726434 -0.172571 -0.665217 0.214844 0.308594 2 30 0.858511 45 0.141489
  31 0.120637 31.154106 23.171196 0.758330 0.474171 0.447322 0.210938 0.273438 2 31 0.980540 33 0.019460
  45 0.092005 28.439865 25.539890 0.583770 0.633701 0.507578 0.203125 0.312500 2 45 0.780325 30 0.219675
shalrath
  30 -1.181480 27.907450 24.912758 -0.834348 -0.506105 -0.218453 0.968750 0.062500 1 30 1.000000
  35 -2.331111 30.440369 23.209333 -0.707836 -0.608565 -0.358632 0.972656 0.097656 1 35 1.000000
  33 -1.603346 30.698717 22.952997 -0.134688 -0.521346 -0.842649 0.980469 0.097656 1 33 1.000000
shalrath
  30 -1.181480 27.907450 24.912758 -0.834348 -0.506105 -0.218453 0.968750 0.062500 1 30 1.000000
  33 -1.603346 30.698717 22.952997 -0.134688 -0.521346 -0.842649 0.980469 0.097656 1 33 1.000000
  30 -0.447611 28.048319 24.252642 -0.162619 -0.546909 -0.821247 0.980469 0.066406 2 30 0.997692 45 0.002308
shalrath
  31 -0.691489 30.851591 22.793297 -0.055244 -0.481626 -0.874634 0.300781 0.593750 2 31 0.903678 33 0.096322
  31 -0.764556 31.222452 23.553926 0.115445 0.762963 0.636050 0.292969 0.593750 2 31 0.824367 33 0.175633
  32 0.220136 34.212837 18.993912 0.102012 0.616977 -0.780342 0.304688 0.648438 2 32 0.914891 31 0.085109
shalrath
  31 0.120637 31.154106 23.171196 0.758330 0.474171 0.447322 0.968750 0.121094 2 31 0.980540 33 0.019460
  31 0.125924 30.844484 22.669777 0.730112 -0.441307 -0.521712 0.964844 0.121094 3 31 0.927462 33 0.059098 32 0.013439
  32 0.220136 34.212837 18.993912 0.102012 0.616977 -0.780342 0.960938 0.175781 2 32 0.914891 31 0.085109
shalrath
  31 0.125924 30.844484 22.669777 0.730112 -0.441307 -0.521712 0.980469 0.812500 3 31 0.927462 33 0.059098 32 0.013439
  31 -0.691489 30.851591 22.793297 -0.055244 -0.481626 -0.874634 0.972656 0.812500 2 31 0.903678 33 0.096322
  32 0.220136 34.212837 18.993912 0.102012 0.616977 -0.780342 0.980469 0.867188 2 32 0.914891 31 0.085109
shalrath
  31 -0.764556 31.222452 23.553926 0.115445 0.762963 0.636050 0.968750 0.460938 2 31 0.824367 33 0.175633
  31 0.120637 31.154106 23.171196 0.758330 0.474171 0.447322 0.960938 0.464844 2 31 0.980540 33 0.019460
  32 0.220136 34.212837 18.993912 0.102012 0.616977 -0.780342 0.957031 0.519531 2 32 0.914891 31 0.085109
shalrath
  33 -1.532210 31.093943 23.642288 -0.040850 0.741926 0.669236 0.964844 0.660156 3 33 0.692529 31 0.161590 35 0.145881
  31 -0.764556 31.222452 23.553926 0.115445 0.762963 0.636050 0.957031 0.660156 2 31 0.824367 33 0.175633
  34 -2.133658 34.934544 18.870417 -0.165908 0.666076 -0.727198 0.960938 0.722656 3 34 0.923302 31 0.050263 33 0.026434
shalrath
  33 -1.603346 30.698717 22.952997 -0.134688 -0.521346 -0.842649 0.878906 0.058594 1 33 1.000000
  33 -1.532210 31.093943 23.642288 -0.040850 0.741926 0.669236 0.871094 0.058594 3 33 0.692529 31 0.161590 35 0.145881
  34 -2.133658 34.934544 18.870417 -0.165908 0.666076 -0.727198 0.882812 0.121094 3 34 0.923302 31 0.050263 33 0.026434
shalrath
  31 -0.764556 31.222452 23.553926 0.115445 0.762963 0.636050 0.957031 0.769531 2 31 0.824367 33 0.175633
  31 -0.691489 30.851591 22.793297 -0.055244 -0.481626 -0.874634 0.949219 0.773438 2 31 0.903678 33 0.096322
  34 -2.133658 34.934544 18.870417 -0.165908 0.666076 -0.727198 0.945312 0.835938 3 34 0.923302 31 0.050263 33 0.026434
shalrath
  31 -0.691489 30.851591 22.793297 -0.055244 -0.481626 -0.874634 0.960938 0.988281 2 31 0.903678 33 0.096322
  33 -1.603346 30.698717 22.952997 -0.134688 -0.521346 -0.842649 0.968750 0.988281 1 33 1.000000
  34 -2.133658 34.934544 18.870417 -0.165908 0.666076 -0.727198 0.964844 0.925781 3 34 0.923302 31 0.050263 33 0.026434
shalrath
  35 -2.404343 30.725416 23.723501 -0.719420 0.248151 0.648735 0.203125 0.085938 2 35 0.905040 33 0.094960
  33 -1.532210 31.093943 23.642288 -0.040850 0.741926 0.669236 0.191406 0.085938 3 33 0.692529 31 0.161590 35 0.145881
  36 -4.191538 34.372295 19.381063 -0.383678 0.620347 -0.684076 0.203125 0.148438 3 36 0.918480 33 0.058234 35 0.023287
shalrath
  35 -2.331111 30.440369 23.209333 -0.707836 -0.608565 -0.358632 0.207031 0.089844 1 35 1.000000
  35 -2.404343 30.725416 23.723501 -0.719420 0.248151 0.648735 0.203125 0.085938 2 35 0.905040 33 0.094960
  36 -4.191538 34.372295 19.381063 -0.383678 0.620347 -0.684076 0.203125 0.148438 3 36 0.918480 33 0.058234 35 0.023287
shalrath
  33 -1.532210 31.093943 23.642288 -0.040850 0.741926 0.669236 0.492188 0.300781 3 33 0.692529 31 0.161590 35 0.145881
  33 -1.603346 30.698717 22.952997 -0.134688 -0.521346 -0.842649 0.484375 0.304688 1 33 1.000000
  36 -4.191538 34.372295 19.381063 -0.383678 0.620347 -0.684076 0.480469 0.363281 3 36 0.918480 33 0.058234 35 0.023287
shalrath
  33 -1.603346 30.698717 22.952997 -0.134688 -0.521346 -0.842649 0.484375 0.304688 1 33 1.000000
  35 -2.331111 30.440369 23.209333 -0.707836 -0.608565 -0.358632 0.476562 0.300781 1 35 1.000000
  36 -4.191538 34.372295 19.381063 -0.383678 0.620347 -0.684076 0.480469 0.363281 3 36 0.918480 33 0.058234 35 0.023287
shalrath
  41 2.963597 0.347775 -37.447433 0.992166 -0.005141 -0.124823 0.529669 0.991360 1 41 1.000000
  41 0.843793 6.210093 -37.265411 0.464139 0.873260 -0.148299 0.600630 0.990804 2 41 0.943654 40 0.056346
  40 1.343734 7.246840 -28.414576 0.470269 0.879969 -0.067095 0.609307 0.896618 4 40 0.858110 41 0.086549 39 0.050692 49 0.004648
shalrath
  41 2.963597 0.347775 -37.447433 0.992166 -0.005141 -0.124823 0.529669 0.991360 1 41 1.000000
  40 1.343734 7.246840 -28.414576 0.470269 0.879969 -0.067095 0.609307 0.896618 4 40 0.858110 41 0.086549 39 0.050692 49 0.004648
  40 3.916155 0.407662 -29.092613 0.998131 0.002934 -0.061043 0.531617 0.901993 3 40 0.946941 41 0.032773 49 0.020286
shalrath
  37 4.463257 0.347775 13.968040 0.999361 -0.000028 0.035756 0.568667 0.420735 2 37 0.996339 3 0.003661
  38 1.343734 7.246840 -7.556354 0.444838 0.895545 0.010847 0.644530 0.651706 4 38 0.818242 49 0.099859 39 0.078736 37 0.003163
  37 1.912983 6.318166 17.386911 0.511009 0.852887 0.107022 0.632812 0.386719 2 37 0.936374 3 0.063626
shalrath
  37 -5.009981 5.631788 16.755009 -0.643914 0.761334 0.075801 0.339844 0.253906 3 37 0.925048 3 0.069046 38 0.005906
  38 -5.786185 5.778468 -7.581324 -0.701533 0.712527 0.012503 0.339838 0.513850 3 38 0.889879 39 0.101056 37 0.009064
  38 -6.760839 0.347776 -7.551745 -0.999935 0.000000 0.011372 0.398438 0.510566 3 38 0.912744 39 0.085297 37 0.001959
shalrath
  37 -5.009981 5.631788 16.755009 -0.643914 0.761334 0.075801 0.339844 0.253906 3 37 0.925048 3 0.069046 38 0.005906
  38 -6.760839 0.347776 -7.551745 -0.999935 0.000000 0.011372 0.398438 0.510566 3 38 0.912744 39 0.085297 37 0.001959
  37 -6.457950 0.347776 16.508772 -0.999172 0.000000 0.040697 0.398438 0.253906 3 37 0.940961 3 0.058297 38 0.000742
shalrath
  41 -6.042877 0.347776 -37.302254 -0.993172 -0.002827 -0.116630 0.723195 0.698188 3 41 0.816736 49 0.137994 40 0.045270
  41 -5.253565 -4.003278 -37.156803 -0.716617 -0.678525 -0.161444 0.770566 0.698231 3 41 0.850157 49 0.091967 40 0.057875
  40 -5.809062 -4.927838 -28.233212 -0.719995 -0.691766 -0.055384 0.779281 0.603733 4 40 0.659321 49 0.226402 41 0.068806 39 0.045471
shalrath
  41 -6.042877 0.347776 -37.302254 -0.993172 -0.002827 -0.116630 0.723195 0.698188 3 41 0.816736 49 0.137994 40 0.045270
  40 -5.809062 -4.927838 -28.233212 -0.719995 -0.691766 -0.055384 0.779281 0.603733 4 40 0.659321 49 0.226402 41 0.068806 39 0.045471
  40 -6.760839 0.347776 -28.457933 -0.999141 0.000000 -0.041452 0.722656 0.604011 4 40 0.620819 49 0.278680 41 0.066357 39 0.034145
shalrath
  41 -5.253564 4.698830 -37.156803 -0.726552 0.674393 -0.131591 0.674758 0.698231 3 41 0.836609 49 0.104318 40 0.059073
  41 -6.042877 0.347776 -37.302254 -0.993172 -0.002827 -0.116630 0.723195 0.698188 3 41 0.816736 49 0.137994 40 0.045270
  40 -6.760839 0.347776 -28.457933 -0.999141 0.000000 -0.041452 0.722656 0.604011 4 40 0.620819 49 0.278680 41 0.066357 39 0.034145
shalrath
  41 -5.253564 4.698830 -37.156803 -0.726552 0.674393 -0.131591 0.674758 0.698231 3 41 0.836609 49 0.104318 40 0.059073
  40 -6.760839 0.347776 -28.457933 -0.999141 0.000000 -0.041452 0.722656 0.604011 4 40 0.620819 49 0.278680 41 0.066357 39 0.034145
  40 -5.809061 5.623390 -28.233212 -0.719995 0.691766 -0.055384 0.666031 0.603733 4 40 0.660593 49 0.216512 41 0.076054 39 0.046841
shalrath
  41 -5.253565 -4.003278 -37.156803 -0.716617 -0.678525 -0.161444 0.864905 0.639361 3 41 0.850157 49 0.091967 40 0.057875
  41 0.843792 -5.514542 -37.265411 0.455102 -0.870919 -0.185425 0.932451 0.640111 3 41 0.923075 40 0.055829 49 0.021095
  40 1.343733 -6.551290 -28.414576 0.472271 -0.878941 -0.066498 0.938555 0.545373 4 40 0.827292 41 0.066055 39 0.064717 49 0.041936
shalrath
  41 -5.253565 -4.003278 -37.156803 -0.716617 -0.678525 -0.161444 0.864905 0.639361 3 41 0.850157 49 0.091967 40 0.057875
  40 1.343733 -6.551290 -28.414576 0.472271 -0.878941 -0.066498 0.938555 0.545373 4 40 0.827292 41 0.066055 39 0.064717 49 0.041936
  40 -5.809062 -4.927838 -28.233212 -0.719995 -0.691766 -0.055384 0.860214 0.543771 4 40 0.659321 49 0.226402 41 0.068806 39 0.045471
shalrath
  39 1.343734 7.246840 -14.154730 0.449782 0.893018 -0.014658 0.517856 0.124259 4 39 0.649705 38 0.175735 49 0.095702 40 0.078858
  38 -5.786185 5.778468 -7.581324 -0.701533 0.712527 0.012503 0.597617 0.056799 3 38 0.889879 39 0.101056 37 0.009064
  38 1.343734 7.246840 -7.556354 0.444838 0.895545 0.010847 0.519545 0.054050 4 38 0.818242 49 0.099859 39 0.078736 37 0.003163
shalrath
  41 2.963597 0.347775 -37.447433 0.992166 -0.005141 -0.124823 0.390462 0.539204 1 41 1.000000
  42 -1.398322 1.833438 -67.639214 0.007249 0.047157 -0.998861 0.386719 0.859375 2 42 0.990514 41 0.009486
  41 0.843793 6.210093 -37.265411 0.464139 0.873260 -0.148299 0.457241 0.539144 2 41 0.943654 40 0.056346
shalrath
  41 -5.253564 4.698830 -37.156803 -0.726552 0.674393 -0.131591 0.209881 0.336459 3 41 0.836609 49 0.104318 40 0.059073
  42 -1.398322 1.833438 -67.639214 0.007249 0.047157 -0.998861 0.261719 0.667969 2 42 0.990514 41 0.009486
  41 -6.042877 0.347776 -37.302254 -0.993172 -0.002827 -0.116630 0.259211 0.336547 3 41 0.816736 49 0.137994 40 0.045270
shalrath
  41 0.843793 6.210093 -37.265411 0.464139 0.873260 -0.148299 0.788894 0.148918 2 41 0.943654 40 0.056346
  42 -1.398322 1.833438 -67.639214 0.007249 0.047157 -0.998861 0.812500 0.480469 2 42 0.990514 41 0.009486
  41 -5.253564 4.698830 -37.156803 -0.726552 0.674393 -0.131591 0.855279 0.145598 3 41 0.836609 49 0.104318 40 0.059073
shalrath
  10 15.858474 0.347775 46.449917 -0.074755 0.000000 -0.997202 0.925781 0.945312 2 10 0.969987 8 0.030013
  8 11.326708 0.347775 45.494686 0.276624 -0.000000 -0.960978 0.875000 0.945312 2 8 0.942584 10 0.057416
  8 10.526319 2.528397 49.019024 0.085232 0.971345 0.221865 0.875000 0.988281 3 8 0.922156 9 0.061644 10 0.016199
shalrath
  10 15.858474 0.347775 46.449917 -0.074755 0.000000 -0.997202 0.925781 0.945312 2 10 0.969987 8 0.030013
  8 10.526319 2.528397 49.019024 0.085232 0.971345 0.221865 0.875000 0.988281 3 8 0.922156 9 0.061644 10 0.016199
  10 16.458803 1.898150 48.297482 0.109046 0.988488 0.104886 0.937500 0.968750 1 10 1.000000
shalrath
  28 3.026143 20.434607 28.450672 -0.148377 -0.422466 -0.894151 0.125000 0.343750 1 28 1.000000
  28 5.579268 20.642445 28.794861 0.881034 0.031573 -0.471998 0.152344 0.343750 1 28 1.000000
  27 5.469501 6.484751 34.787331 0.976602 0.165045 -0.137873 0.160156 0.179688 3 27 0.912992 28 0.066419 5 0.020589
shalrath
  28 3.026143 20.434607 28.450672 -0.148377 -0.422466 -0.894151 0.125000 0.343750 1 28 1.000000
  27 5.469501 6.484751 34.787331 0.976602 0.165045 -0.137873 0.160156 0.179688 3 27 0.912992 28 0.066419 5 0.020589
  27 1.164502 6.965734 32.328613 -0.107302 0.678414 -0.726802 0.109375 0.191406 3 27 0.888537 3 0.072865 28 0.038598
shalrath
  30 -0.447611 28.048319 24.252642 -0.162619 -0.546909 -0.821247 0.921875 0.765625 2 30 0.997692 45 0.002308
  30 0.104700 28.154337 24.443813 0.726434 -0.172571 -0.665217 0.917969 0.769531 2 30 0.858511 45 0.141489
  28 5.579268 20.642445 28.794861 0.881034 0.031573 -0.471998 0.902344 0.878906 1 28 1.000000
shalrath
  30 -0.447611 28.048319 24.252642 -0.162619 -0.546909 -0.821247 0.921875 0.765625 2 30 0.997692 45 0.002308
  28 5.579268 20.642445 28.794861 0.881034 0.031573 -0.471998 0.902344 0.878906 1 28 1.000000
  28 3.026143 20.434607 28.450672 -0.148377 -0.422466 -0.894151 0.925781 0.867188 1 28 1.000000
shalrath
  33 -1.603346 30.698717 22.952997 -0.134688 -0.521346 -0.842649 0.640625 0.011719 1 33 1.000000
  31 -0.691489 30.851591 22.793297 -0.055244 -0.481626 -0.874634 0.628906 0.011719 2 31 0.903678 33 0.096322
  30 -0.447611 28.048319 24.252642 -0.162619 -0.546909 -0.821247 0.636719 0.046875 2 30 0.997692 45 0.002308
shalrath
  31 -0.691489 30.851591 22.793297 -0.055244 -0.481626 -0.874634 0.671875 0.011719 2 31 0.903678 33 0.096322
  31 0.125924 30.844484 22.669777 0.730112 -0.441307 -0.521712 0.660156 0.011719 3 31 0.927462 33 0.059098 32 0.013439
  30 0.104700 28.154337 24.443813 0.726434 -0.172571 -0.665217 0.664062 0.042969 2 30 0.858511 45 0.141489
shalrath
  31 -0.691489 30.851591 22.793297 -0.055244 -0.481626 -0.874634 0.671875 0.011719 2 31 0.903678 33 0.096322
  30 0.104700 28.154337 24.443813 0.726434 -0.172571 -0.665217 0.664062 0.042969 2 30 0.858511 45 0.141489
  30 -0.447611 28.048319 24.252642 -0.162619 -0.546909 -0.821247 0.667969 0.042969 2 30 0.997692 45 0.002308
shalrath
  8 4.278112 2.900355 47.359341 0.091194 0.947414 0.306742 0.425781 0.195312 2 8 0.939555 7 0.060445
  8 10.526319 2.528397 49.019024 0.085232 0.971345 0.221865 0.492188 0.175781 3 8 0.922156 9 0.061644 10 0.016199
  8 11.326708 0.347775 45.494686 0.276624 -0.000000 -0.960978 0.476562 0.132812 2 8 0.942584 10 0.057416
shalrath
  8 4.278112 2.900355 47.359341 0.091194 0.947414 0.306742 0.425781 0.195312 2 8 0.939555 7 0.060445
  8 11.326708 0.347775 45.494686 0.276624 -0.000000 -0.960978 0.476562 0.132812 2 8 0.942584 10 0.057416
  8 7.100133 0.347775 42.783966 0.870860 -0.000000 -0.491531 0.425781 0.132812 3 8 0.843435 6 0.099937 7 0.056628
shalrath
  6 -1.935922 -2.376348 40.136013 -0.794808 -0.349799 0.495904 0.203125 0.730469 4 6 0.613700 7 0.172650 17 0.157555 4 0.056095
  6 -1.472067 0.347775 40.286922 -0.826725 0.000497 0.562606 0.171875 0.726562 4 6 0.651037 7 0.173244 27 0.127478 4 0.048241
  4 -4.417910 0.347776 35.487530 -0.903080 0.000000 0.429472 0.171875 0.785156 4 4 0.705537 3 0.106042 27 0.104551 6 0.083871
shalrath
  6 -1.472067 0.347775 40.286922 -0.826725 0.000497 0.562606 0.171875 0.726562 4 6 0.651037 7 0.173244 27 0.127478 4 0.048241
  27 -1.935922 3.071900 40.136013 -0.793910 0.348884 0.497983 0.144531 0.730469 4 27 0.591936 7 0.175836 6 0.172871 4 0.059357
  4 -4.417910 0.347776 35.487530 -0.903080 0.000000 0.429472 0.171875 0.785156 4 4 0.705537 3 0.106042 27 0.104551 6 0.083871
shalrath
  7 -1.290292 -3.215716 43.321552 -0.735209 -0.676837 0.036879 0.699219 0.125000 4 7 0.779924 6 0.140762 8 0.065702 17 0.013613
  6 3.734658 -2.490584 40.015434 0.581649 -0.662208 0.472404 0.742188 0.171875 4 6 0.477893 7 0.417640 17 0.079387 8 0.025080
  8 4.278111 -2.204804 47.359341 0.091127 -0.947455 0.306634 0.769531 0.097656 2 8 0.956220 7 0.043780
shalrath
  7 -1.290292 -3.215716 43.321552 -0.735209 -0.676837 0.036879 0.699219 0.125000 4 7 0.779924 6 0.140762 8 0.065702 17 0.013613
  8 4.278111 -2.204804 47.359341 0.091127 -0.947455 0.306634 0.769531 0.097656 2 8 0.956220 7 0.043780
  7 -1.875402 -1.951303 46.144482 -0.853600 -0.499684 0.147248 0.699219 0.089844 3 7 0.842656 8 0.135402 6 0.021942
shalrath
  6 3.734658 3.186135 40.015434 0.581891 0.662169 0.472160 0.351562 0.230469 4 6 0.468867 7 0.404542 27 0.081765 8 0.044826
  7 -1.274587 3.915995 43.308075 -0.735493 0.676534 0.036761 0.398438 0.183594 4 7 0.739106 27 0.118006 8 0.073035 6 0.069853
  8 4.278112 2.900355 47.359341 0.091194 0.947414 0.306742 0.328125 0.156250 2 8 0.939555 7 0.060445
shalrath
  7 -1.290292 -3.215716 43.321552 -0.735209 -0.676837 0.036879 0.210938 0.695312 4 7 0.779924 6 0.140762 8 0.065702 17 0.013613
  7 -1.875402 -1.951303 46.144482 -0.853600 -0.499684 0.147248 0.199219 0.664062 3 7 0.842656 8 0.135402 6 0.021942
  7 0.792411 0.393856 43.348221 -0.999839 -0.004806 -0.017275 0.171875 0.695312 1 7 1.000000
shalrath
  7 -1.875402 -1.951303 46.144482 -0.853600 -0.499684 0.147248 0.199219 0.664062 3 7 0.842656 8 0.135402 6 0.021942
  7 -2.334129 0.347776 47.742279 -0.890503 0.000455 0.454977 0.171875 0.644531 2 7 0.795625 8 0.204375
  7 0.792411 0.393856 43.348221 -0.999839 -0.004806 -0.017275 0.171875 0.695312 1 7 1.000000
shalrath
  7 -2.334129 0.347776 47.742279 -0.890503 0.000455 0.454977 0.171875 0.644531 2 7 0.795625 8 0.204375
  7 -1.875402 2.646855 46.144482 -0.854465 0.499395 0.143161 0.148438 0.664062 3 7 0.844291 8 0.146834 27 0.008875
  7 0.792411 0.393856 43.348221 -0.999839 -0.004806 -0.017275 0.171875 0.695312 1 7 1.000000
shalrath
  7 -1.875402 2.646855 46.144482 -0.854465 0.499395 0.143161 0.148438 0.664062 3 7 0.844291 8 0.146834 27 0.008875
  7 -1.274587 3.915995 43.308075 -0.735493 0.676534 0.036761 0.136719 0.695312 4 7 0.739106 27 0.118006 8 0.073035 6 0.069853
  7 0.792411 0.393856 43.348221 -0.999839 -0.004806 -0.017275 0.171875 0.695312 1 7 1.000000
shalrath
  7 -1.274587 3.915995 43.308075 -0.735493 0.676534 0.036761 0.136719 0.695312 4 7 0.739106 27 0.118006 8 0.073035 6 0.069853
  27 -1.935922 3.071900 40.136013 -0.793910 0.348884 0.497983 0.144531 0.730469 4 27 0.591936 7 0.175836 6 0.172871 4 0.059357
  7 0.792411 0.393856 43.348221 -0.999839 -0.004806 -0.017275 0.171875 0.695312 1 7 1.000000
shalrath
  27 -1.935922 3.071900 40.136013 -0.793910 0.348884 0.497983 0.144531 0.730469 4 27 0.591936 7 0.175836 6 0.172871 4 0.059357
  6 -1.472067 0.347775 40.286922 -0.826725 0.000497 0.562606 0.171875 0.726562 4 6 0.651037 7 0.173244 27 0.127478 4 0.048241
  7 0.792411 0.393856 43.348221 -0.999839 -0.004806 -0.017275 0.171875 0.695312 1 7 1.000000
shalrath
  6 -1.472067 0.347775 40.286922 -0.826725 0.000497 0.562606 0.171875 0.726562 4 6 0.651037 7 0.173244 27 0.127478 4 0.048241
  6 -1.935922 -2.376348 40.136013 -0.794808 -0.349799 0.495904 0.203125 0.730469 4 6 0.613700 7 0.172650 17 0.157555 4 0.056095
  7 0.792411 0.393856 43.348221 -0.999839 -0.004806 -0.017275 0.171875 0.695312 1 7 1.000000
shalrath
  6 -1.935922 -2.376348 40.136013 -0.794808 -0.349799 0.495904 0.203125 0.730469 4 6 0.613700 7 0.172650 17 0.157555 4 0.056095
  7 -1.290292 -3.215716 43.321552 -0.735209 -0.676837 0.036879 0.210938 0.695312 4 7 0.779924 6 0.140762 8 0.065702 17 0.013613
  7 0.792411 0.393856 43.348221 -0.999839 -0.004806 -0.017275 0.171875 0.695312 1 7 1.000000
shalrath
  8 2.053021 0.347775 49.654369 -0.244183 0.000000 0.969729 0.343750 0.117188 2 8 0.873605 7 0.126395
  7 -1.875402 2.646855 46.144482 -0.854465 0.499395 0.143161 0.394531 0.152344 3 7 0.844291 8 0.146834 27 0.008875
  7 -2.334129 0.347776 47.742279 -0.890503 0.000455 0.454977 0.394531 0.121094 2 7 0.795625 8 0.204375
shalrath
  7 -1.875402 -1.951303 46.144482 -0.853600 -0.499684 0.147248 0.699219 0.089844 3 7 0.842656 8 0.135402 6 0.021942
  8 2.053021 0.347775 49.654369 -0.244183 0.000000 0.969729 0.750000 0.058594 2 8 0.873605 7 0.126395
  7 -2.334129 0.347776 47.742279 -0.890503 0.000455 0.454977 0.699219 0.062500 2 7 0.795625 8 0.204375
shalrath
  39 1.343733 -6.551290 -14.154730 0.454172 -0.890804 -0.013995 0.453128 0.745196 4 39 0.614253 38 0.204618 40 0.090712 49 0.090417
  38 4.722877 0.453681 -6.664428 0.999973 0.006934 -0.002353 0.532516 0.674836 3 38 0.812659 49 0.151045 39 0.036296
  38 1.343733 -6.551290 -7.556354 0.449776 -0.893087 0.009898 0.453125 0.675143 3 38 0.842683 49 0.095876 39 0.061441
shalrath
  39 -5.797623 5.700929 -13.946590 -0.720697 0.693238 -0.004059 0.664997 0.452334 4 39 0.768596 38 0.162843 40 0.067241 49 0.001320
  39 -6.760839 0.347776 -14.198088 -1.000000 0.000000 -0.000139 0.722656 0.452372 4 39 0.802848 38 0.125965 40 0.060384 49 0.010804
  38 -6.760839 0.347776 -7.551745 -0.999935 0.000000 0.011372 0.722656 0.381665 3 38 0.912744 39 0.085297 37 0.001959
shalrath
  39 -5.797623 5.700929 -13.946590 -0.720697 0.693238 -0.004059 0.664997 0.452334 4 39 0.768596 38 0.162843 40 0.067241 49 0.001320
  38 -6.760839 0.347776 -7.551745 -0.999935 0.000000 0.011372 0.722656 0.381665 3 38 0.912744 39 0.085297 37 0.001959
  38 -5.786185 5.778468 -7.581324 -0.701533 0.712527 0.012503 0.664066 0.384929 3 38 0.889879 39 0.101056 37 0.009064
shalrath
  39 -5.797624 -5.005377 -13.946590 -0.720697 -0.693238 -0.004059 0.859316 0.390712 4 39 0.774207 38 0.158650 40 0.065554 49 0.001590
  39 1.343733 -6.551290 -14.154730 0.454172 -0.890804 -0.013995 0.935231 0.393708 4 39 0.614253 38 0.204618 40 0.090712 49 0.090417
  38 -5.786186 -5.082917 -7.581324 -0.701533 -0.712527 0.012503 0.859382 0.322455 3 38 0.902501 39 0.093076 37 0.004423
shalrath
  39 -6.760839 0.347776 -14.198088 -1.000000 0.000000 -0.000139 0.722656 0.452372 4 39 0.802848 38 0.125965 40 0.060384 49 0.010804
  39 -5.797624 -5.005377 -13.946590 -0.720697 -0.693238 -0.004059 0.780315 0.452334 4 39 0.774207 38 0.158650 40 0.065554 49 0.001590
  38 -5.786186 -5.082917 -7.581324 -0.701533 -0.712527 0.012503 0.781247 0.384929 3 38 0.902501 39 0.093076 37 0.004423
shalrath
  39 -6.760839 0.347776 -14.198088 -1.000000 0.000000 -0.000139 0.722656 0.452372 4 39 0.802848 38 0.125965 40 0.060384 49 0.010804
  38 -5.786186 -5.082917 -7.581324 -0.701533 -0.712527 0.012503 0.781247 0.384929 3 38 0.902501 39 0.093076 37 0.004423
  38 -6.760839 0.347776 -7.551745 -0.999935 0.000000 0.011372 0.722656 0.381665 3 38 0.912744 39 0.085297 37 0.001959
shalrath
  38 4.722877 0.453681 -6.664428 0.999973 0.006934 -0.002353 0.532516 0.674836 3 38 0.812659 49 0.151045 39 0.036296
  39 1.343734 7.246840 -14.154730 0.449782 0.893018 -0.014658 0.609370 0.745196 4 39 0.649705 38 0.175735 49 0.095702 40 0.078858
  38 1.343734 7.246840 -7.556354 0.444838 0.895545 0.010847 0.609375 0.675143 4 38 0.818242 49 0.099859 39 0.078736 37 0.003163
shalrath
  37 -5.009982 -4.936236 16.755009 -0.643914 -0.761334 0.075801 0.636719 0.730469 3 37 0.935733 3 0.063208 38 0.001059
  38 -5.786186 -5.082917 -7.581324 -0.701533 -0.712527 0.012503 0.632848 0.990402 3 38 0.902501 39 0.093076 37 0.004423
  38 1.343733 -6.551290 -7.556354 0.449776 -0.893087 0.009898 0.710927 0.987644 3 38 0.842683 49 0.095876 39 0.061441
shalrath
  37 -5.009982 -4.936236 16.755009 -0.643914 -0.761334 0.075801 0.636719 0.730469 3 37 0.935733 3 0.063208 38 0.001059
  38 1.343733 -6.551290 -7.556354 0.449776 -0.893087 0.009898 0.710927 0.987644 3 38 0.842683 49 0.095876 39 0.061441
  37 1.912983 -5.622616 17.386911 0.511009 -0.852887 0.107022 0.710938 0.722656 2 37 0.940956 3 0.059044
shalrath
  40 3.916155 0.407662 -29.092613 0.998131 0.002934 -0.061043 0.531617 0.901993 3 40 0.946941 41 0.032773 49 0.020286
  39 1.343734 7.246840 -14.154730 0.449782 0.893018 -0.014658 0.609370 0.745196 4 39 0.649705 38 0.175735 49 0.095702 40 0.078858
  38 4.722877 0.453681 -6.664428 0.999973 0.006934 -0.002353 0.532516 0.674836 3 38 0.812659 49 0.151045 39 0.036296
shalrath
  40 -6.760839 0.347776 -28.457933 -0.999141 0.000000 -0.041452 0.722656 0.604011 4 40 0.620819 49 0.278680 41 0.066357 39 0.034145
  40 -5.809062 -4.927838 -28.233212 -0.719995 -0.691766 -0.055384 0.779281 0.603733 4 40 0.659321 49 0.226402 41 0.068806 39 0.045471
  39 -5.797624 -5.005377 -13.946590 -0.720697 -0.693238 -0.004059 0.780315 0.452334 4 39 0.774207 38 0.158650 40 0.065554 49 0.001590
shalrath
  40 -6.760839 0.347776 -28.457933 -0.999141 0.000000 -0.041452 0.722656 0.604011 4 40 0.620819 49 0.278680 41 0.066357 39 0.034145
  39 -5.797624 -5.005377 -13.946590 -0.720697 -0.693238 -0.004059 0.780315 0.452334 4 39 0.774207 38 0.158650 40 0.065554 49 0.001590
  39 -6.760839 0.347776 -14.198088 -1.000000 0.000000 -0.000139 0.722656 0.452372 4 39 0.802848 38 0.125965 40 0.060384 49 0.010804
shalrath
  40 -5.809062 -4.927838 -28.233212 -0.719995 -0.691766 -0.055384 0.860214 0.543771 4 40 0.659321 49 0.226402 41 0.068806 39 0.045471
  40 1.343733 -6.551290 -28.414576 0.472271 -0.878941 -0.066498 0.938555 0.545373 4 40 0.827292 41 0.066055 39 0.064717 49 0.041936
  39 -5.797624 -5.005377 -13.946590 -0.720697 -0.693238 -0.004059 0.859316 0.390712 4 39 0.774207 38 0.158650 40 0.065554 49 0.001590
shalrath
  40 -5.809061 5.623390 -28.233212 -0.719995 0.691766 -0.055384 0.666031 0.603733 4 40 0.660593 49 0.216512 41 0.076054 39 0.046841
  40 -6.760839 0.347776 -28.457933 -0.999141 0.000000 -0.041452 0.722656 0.604011 4 40 0.620819 49 0.278680 41 0.066357 39 0.034145
  39 -6.760839 0.347776 -14.198088 -1.000000 0.000000 -0.000139 0.722656 0.452372 4 39 0.802848 38 0.125965 40 0.060384 49 0.010804
shalrath
  40 -5.809061 5.623390 -28.233212 -0.719995 0.691766 -0.055384 0.666031 0.603733 4 40 0.660593 49 0.216512 41 0.076054 39 0.046841
  39 -6.760839 0.347776 -14.198088 -1.000000 0.000000 -0.000139 0.722656 0.452372 4 39 0.802848 38 0.125965 40 0.060384 49 0.010804
  39 -5.797623 5.700929 -13.946590 -0.720697 0.693238 -0.004059 0.664997 0.452334 4 39 0.768596 38 0.162843 40 0.067241 49 0.001320
shalrath
  40 1.343733 -6.551290 -28.414576 0.472271 -0.878941 -0.066498 0.453160 0.896614 4 40 0.827292 41 0.066055 39 0.064717 49 0.041936
  40 3.916155 0.407662 -29.092613 0.998131 0.002934 -0.061043 0.531617 0.901993 3 40 0.946941 41 0.032773 49 0.020286
  39 1.343733 -6.551290 -14.154730 0.454172 -0.890804 -0.013995 0.453128 0.745196 4 39 0.614253 38 0.204618 40 0.090712 49 0.090417
shalrath
  40 1.343734 7.246840 -28.414576 0.470269 0.879969 -0.067095 0.514268 0.275913 4 40 0.858110 41 0.086549 39 0.050692 49 0.004648
  39 -5.797623 5.700929 -13.946590 -0.720697 0.693238 -0.004059 0.596655 0.124095 4 39 0.768596 38 0.162843 40 0.067241 49 0.001320
  39 1.343734 7.246840 -14.154730 0.449782 0.893018 -0.014658 0.517856 0.124259 4 39 0.649705 38 0.175735 49 0.095702 40 0.078858
shalrath
  39 -5.797624 -5.005377 -13.946590 -0.720697 -0.693238 -0.004059 0.859316 0.390712 4 39 0.774207 38 0.158650 40 0.065554 49 0.001590
  40 1.343733 -6.551290 -28.414576 0.472271 -0.878941 -0.066498 0.938555 0.545373 4 40 0.827292 41 0.066055 39 0.064717 49 0.041936
  39 1.343733 -6.551290 -14.154730 0.454172 -0.890804 -0.013995 0.935231 0.393708 4 39 0.614253 38 0.204618 40 0.090712 49 0.090417
shalrath
  38 -5.786186 -5.082917 -7.581324 -0.701533 -0.712527 0.012503 0.859382 0.322455 3 38 0.902501 39 0.093076 37 0.004423
  39 1.343733 -6.551290 -14.154730 0.454172 -0.890804 -0.013995 0.935231 0.393708 4 39 0.614253 38 0.204618 40 0.090712 49 0.090417
  38 1.343733 -6.551290 -7.556354 0.449776 -0.893087 0.009898 0.933586 0.323577 3 38 0.842683 49 0.095876 39 0.061441
shalrath
  39 -5.797623 5.700929 -13.946590 -0.720697 0.693238 -0.004059 0.596655 0.124095 4 39 0.768596 38 0.162843 40 0.067241 49 0.001320
  40 1.343734 7.246840 -28.414576 0.470269 0.879969 -0.067095 0.514268 0.275913 4 40 0.858110 41 0.086549 39 0.050692 49 0.004648
  40 -5.809061 5.623390 -28.233212 -0.719995 0.691766 -0.055384 0.593934 0.275504 4 40 0.660593 49 0.216512 41 0.076054 39 0.046841
shalrath
  38 -5.786185 5.778468 -7.581324 -0.701533 0.712527 0.012503 0.597617 0.056799 3 38 0.889879 39 0.101056 37 0.009064
  39 1.343734 7.246840 -14.154730 0.449782 0.893018 -0.014658 0.517856 0.124259 4 39 0.649705 38 0.175735 49 0.095702 40 0.078858
  39 -5.797623 5.700929 -13.946590 -0.720697 0.693238 -0.004059 0.596655 0.124095 4 39 0.768596 38 0.162843 40 0.067241 49 0.001320
shalrath
  39 1.343734 7.246840 -14.154730 0.449782 0.893018 -0.014658 0.609370 0.745196 4 39 0.649705 38 0.175735 49 0.095702 40 0.078858
  40 3.916155 0.407662 -29.092613 0.998131 0.002934 -0.061043 0.531617 0.901993 3 40 0.946941 41 0.032773 49 0.020286
  40 1.343734 7.246840 -28.414576 0.470269 0.879969 -0.067095 0.609307 0.896618 4 40 0.858110 41 0.086549 39 0.050692 49 0.004648
shalrath
  39 1.343733 -6.551290 -14.154730 0.454172 -0.890804 -0.013995 0.453128 0.745196 4 39 0.614253 38 0.204618 40 0.090712 49 0.090417
  40 3.916155 0.407662 -29.092613 0.998131 0.002934 -0.061043 0.531617 0.901993 3 40 0.946941 41 0.032773 49 0.020286
  38 4.722877 0.453681 -6.664428 0.999973 0.006934 -0.002353 0.532516 0.674836 3 38 0.812659 49 0.151045 39 0.036296
shalrath
  38 1.343734 7.246840 -7.556354 0.444838 0.895545 0.010847 0.644530 0.651706 4 38 0.818242 49 0.099859 39 0.078736 37 0.003163
  37 4.463257 0.347775 13.968040 0.999361 -0.000028 0.035756 0.568667 0.420735 2 37 0.996339 3 0.003661
  38 4.722877 0.453681 -6.664428 0.999973 0.006934 -0.002353 0.568789 0.643798 3 38 0.812659 49 0.151045 39 0.036296
shalrath
  37 4.463257 0.347775 13.968040 0.999361 -0.000028 0.035756 0.568667 0.420735 2 37 0.996339 3 0.003661
  38 1.343733 -6.551290 -7.556354 0.449776 -0.893087 0.009898 0.488283 0.651706 3 38 0.842683 49 0.095876 39 0.061441
  38 4.722877 0.453681 -6.664428 0.999973 0.006934 -0.002353 0.568789 0.643798 3 38 0.812659 49 0.151045 39 0.036296
end
