version 1
nodes
0 "Bone.016" -1
1 "Bone" 0
2 "Bone.001" 1
3 "Bone.003" 2
4 "Arm.L.001" 2
5 "Arm.L.003" 4
6 "Arm.L.004" 5
7 "Arm.L.005" 6
8 "Arm.L.007" 4
9 "Arm.L.008" 8
10 "Arm.L.009" 9
11 "Arm.L.011" 4
12 "Arm.L.012" 11
13 "Arm.L.013" 12
14 "Bone.004" 2
15 "Bone.006" 14
16 "Bone.007" 15
17 "Bone.008" 16
18 "Bone.010" 14
19 "Bone.011" 18
20 "Bone.012" 19
21 "Bone.013" 20
22 "Bone.014" 0
23 "Tent.002" 22
24 "Tent.003" 23
25 "Tent.004" 24
26 "Bone.015" 22
27 "Leg.L.001" 26
28 "Leg.L.003" 27
29 "Leg.L.004" 28
30 "Leg.L.005" 29
31 "Leg.L.006" 30
32 "Leg.L.009" 27
33 "Leg.R.001" 26
34 "Leg.R.003" 33
35 "Leg.R.004" 34
36 "Leg.R.005" 35
37 "Leg.R.006" 36
38 "Leg.R.009" 33
39 "Spine.L.001" 22
40 "Spine.L.005" 39
41 "Spine.L.004" 39
42 "Spine.R.001" 22
43 "Spine.R.005" 42
44 "Spine.R.004" 42
end
skeleton
  time 0
  0 -0.001140 1.445637 33.833553 1.570796 -0.000000 1.570796
  1 -1.445641 -36.171356 0.001142 -0.000000 -0.000000 -0.086149
  2 -0.000000 8.262691 0.000000 -0.004890 0.063175 0.015304
  3 -0.000000 5.965776 -0.000000 0.003166 -0.063284 0.027130
  4 -0.000000 5.965776 -0.000000 -1.617970 -0.063362 0.070677
  5 -0.000001 7.629252 -1.118938 0.053513 -0.007099 0.041833
  6 0.000002 13.154880 0.000001 -0.006107 0.004938 -0.027210
  7 -0.000001 14.721382 0.000001 -0.005713 -0.000091 -0.030830
  8 -1.861431 7.666951 0.620428 0.081725 -0.010147 0.123255
  9 -0.000000 2.444921 0.000000 0.017327 -0.001046 -0.063354
  10 0.000000 2.432505 0.000000 0.016467 -0.000152 -0.051080
  11 -3.472169 5.539383 -3.197413 -0.024284 -0.046262 1.628451
  12 -0.000000 7.047305 -0.000000 0.036237 -0.000585 -0.041469
  13 -0.000000 8.630058 0.000000 0.006277 0.000000 -0.016148
  14 -0.000000 5.965776 -0.000000 1.570387 0.063362 -3.070916
  15 -0.000000 7.674964 -1.560059 0.014337 0.000890 -0.063098
  16 -0.000001 13.236126 0.000000 -0.015804 -0.000590 0.072031
  17 -0.000003 14.645546 -0.000000 -0.006923 0.000648 0.005516
  18 2.026715 7.454580 0.321388 0.045587 0.004816 -0.105183
  19 0.000000 2.313501 0.000000 -0.030602 0.000691 0.126912
  20 -0.000002 11.242270 -0.000000 -0.008706 -0.000065 -0.021629
  21 0.000000 12.545879 0.000000 0.052051 0.000033 -0.000000
  22 -1.445641 -36.171356 0.001142 -3.141593 0.000000 -0.218213
  23 -1.684163 2.625997 -5.070538 1.339964 -1.570796 0.000000
  24 -0.000000 8.319983 -0.000006 0.027604 -0.000000 0.000000
  25 -0.000001 8.623918 -0.000005 -0.014016 0.000000 -0.000000
  26 -0.000005 11.070607 -0.000002 0.011635 3.139081 -0.431144
  27 0.000001 4.509339 0.000004 0.770607 -2.946276 -0.015637
  28 1.125610 8.218365 2.253408 0.641100 -0.120800 0.436836
  29 0.000001 3.803349 -0.000003 0.124804 0.003808 -0.230588
  30 0.000002 12.384516 0.000008 0.003238 0.000165 -0.020493
  31 -0.000001 15.308074 0.000007 -0.027280 -0.001767 -0.013587
  32 3.320570 8.398381 1.366532 -0.388718 0.792699 -1.294060
  33 -0.017634 4.512975 -0.014513 -0.761990 2.947791 -0.053845
  34 0.991719 8.218366 -2.315452 -0.606659 -0.062320 0.605548
  35 0.000002 3.803349 -0.000000 -1.013304 -1.352412 0.815639
  36 0.000000 12.384513 0.000001 -0.020109 -0.204728 0.010633
  37 -0.000002 15.308078 0.000002 -0.043848 1.030476 -0.058140
  38 3.234848 8.398382 -1.558637 0.346776 -0.875341 -1.288598
  39 -0.000005 11.070607 -0.000002 0.987827 0.413407 -0.477175
  40 2.425922 11.208330 -2.476507 -0.051841 0.528373 -1.086973
  41 4.426830 9.077699 2.349050 -0.250883 0.528373 -1.086973
  42 0.016267 11.066999 -0.052121 -1.031039 -0.422050 -0.390065
  43 2.638517 11.208332 2.248648 -0.099073 -1.222848 -0.967892
  44 4.197997 9.077697 -2.737097 0.178192 -0.643886 -1.075488
end
triangles
wizard
  5 -7.417522 3.428747 10.112588 -0.505696 0.857819 -0.091743 0.773438 0.605469 2 5 0.907915 4 0.092085
  4 -4.791406 5.058605 10.958833 -0.354848 0.932315 -0.069798 0.742188 0.597656 4 4 0.576715 5 0.249260 2 0.125592 3 0.048433
  1 0.000001 7.042449 1.638714 0.000000 0.950614 -0.310375 0.687500 0.699219 4 1 0.879923 22 0.074052 2 0.045904 23 0.000121
wizard
  4 -4.791406 5.058605 10.958833 -0.354848 0.932315 -0.069798 0.742188 0.597656 4 4 0.576715 5 0.249260 2 0.125592 3 0.048433
  2 0.000000 5.735433 10.958833 0.000000 0.999317 0.036947 0.687500 0.597656 4 2 0.785799 14 0.089857 4 0.083226 3 0.041117
  1 0.000001 7.042449 1.638714 0.000000 0.950614 -0.310375 0.687500 0.699219 4 1 0.879923 22 0.074052 2 0.045904 23 0.000121
wizard
  1 0.000001 7.042449 1.638714 0.000000 0.950614 -0.310375 0.687500 0.699219 4 1 0.879923 22 0.074052 2 0.045904 23 0.000121
  1 -5.241416 3.719071 -2.717803 -0.337707 0.916074 -0.216245 0.757812 0.746094 4 1 0.863167 41 0.076319 22 0.059429 23 0.001085
  5 -7.417522 3.428747 10.112588 -0.505696 0.857819 -0.091743 0.773438 0.605469 2 5 0.907915 4 0.092085
wizard
  1 0.000000 -2.823901 -3.478203 0.000000 0.924225 -0.381849 0.687500 0.785156 4 1 0.353530 23 0.311572 26 0.256943 22 0.077955
  1 -5.241416 3.719071 -2.717803 -0.337707 0.916074 -0.216245 0.757812 0.746094 4 1 0.863167 41 0.076319 22 0.059429 23 0.001085
  1 0.000001 7.042449 1.638714 0.000000 0.950614 -0.310375 0.687500 0.699219 4 1 0.879923 22 0.074052 2 0.045904 23 0.000121
wizard
  3 -6.133341 5.735433 18.182991 -0.373473 0.926833 0.038705 0.742188 0.523438 4 3 0.908519 2 0.074132 5 0.016556 4 0.000793
  3 -1.965175 5.735433 26.007515 -0.194334 0.945604 0.260898 0.707031 0.441406 3 3 0.955125 14 0.027454 4 0.017421
  2 0.000000 5.735433 10.958833 0.000000 0.999317 0.036947 0.687500 0.597656 4 2 0.785799 14 0.089857 4 0.083226 3 0.041117
wizard
  3 -6.133341 5.735433 18.182991 -0.373473 0.926833 0.038705 0.742188 0.523438 4 3 0.908519 2 0.074132 5 0.016556 4 0.000793
  3 -8.997270 3.651496 18.182991 -0.958725 0.250268 0.134950 0.773438 0.523438 4 3 0.952416 8 0.029033 2 0.011358 5 0.007192
  3 -1.965175 5.735433 26.007515 -0.194334 0.945604 0.260898 0.707031 0.441406 3 3 0.955125 14 0.027454 4 0.017421
wizard
  4 -4.791406 5.058605 10.958833 -0.354848 0.932315 -0.069798 0.742188 0.597656 4 4 0.576715 5 0.249260 2 0.125592 3 0.048433
  3 -8.997270 3.651496 18.182991 -0.958725 0.250268 0.134950 0.773438 0.523438 4 3 0.952416 8 0.029033 2 0.011358 5 0.007192
  3 -6.133341 5.735433 18.182991 -0.373473 0.926833 0.038705 0.742188 0.523438 4 3 0.908519 2 0.074132 5 0.016556 4 0.000793
wizard
  5 -7.417522 3.428747 10.112588 -0.505696 0.857819 -0.091743 0.183594 0.609375 2 5 0.907915 4 0.092085
  4 -7.712677 1.160932 13.533259 -0.885591 0.031345 0.463407 0.210938 0.585938 4 4 0.671010 5 0.169058 8 0.116899 3 0.043034
  3 -8.997270 3.651496 18.182991 -0.958725 0.250268 0.134950 0.183594 0.527344 4 3 0.952416 8 0.029033 2 0.011358 5 0.007192
wizard
  5 -7.417522 3.428747 10.112588 -0.505696 0.857819 -0.091743 0.773438 0.605469 2 5 0.907915 4 0.092085
  1 -5.241416 3.719071 -2.717803 -0.337707 0.916074 -0.216245 0.757812 0.746094 4 1 0.863167 41 0.076319 22 0.059429 23 0.001085
  1 -7.182628 -0.759610 -2.717803 -0.957581 -0.287836 0.013757 0.808594 0.746094 4 1 0.864251 39 0.098733 5 0.036328 22 0.000688
wizard
  4 -7.712677 1.160932 13.533259 -0.885591 0.031345 0.463407 0.996094 0.992188 4 4 0.671010 5 0.169058 8 0.116899 3 0.043034
  5 -20.776060 1.017840 11.868037 -0.100611 0.212069 0.972062 0.972656 0.855469 2 5 0.906455 6 0.093545
  6 -20.833576 -0.734205 10.001703 -0.062453 -0.978711 -0.195508 0.945312 0.855469 2 6 0.917196 5 0.082804
wizard
  4 -7.712677 1.160932 13.533259 -0.885591 0.031345 0.463407 0.996094 0.992188 4 4 0.671010 5 0.169058 8 0.116899 3 0.043034
  6 -20.833576 -0.734205 10.001703 -0.062453 -0.978711 -0.195508 0.945312 0.855469 2 6 0.917196 5 0.082804
  5 -7.563421 -1.599952 9.658240 -0.635217 -0.750329 -0.183043 0.945312 0.992188 4 5 0.650788 4 0.243957 8 0.093039 11 0.012215
wizard
  5 -7.417522 3.428747 10.112588 -0.505696 0.857819 -0.091743 0.882812 0.992188 2 5 0.907915 4 0.092085
  5 -8.125818 1.160932 7.346756 -0.814243 0.207289 -0.542254 0.859375 0.992188 3 5 0.957905 22 0.040964 4 0.001131
  6 -20.847645 1.731904 9.112237 -0.130814 0.635402 -0.761021 0.859375 0.855469 2 6 0.500558 5 0.499442
wizard
  5 -7.417522 3.428747 10.112588 -0.505696 0.857819 -0.091743 0.882812 0.992188 2 5 0.907915 4 0.092085
  6 -20.847645 1.731904 9.112237 -0.130814 0.635402 -0.761021 0.859375 0.855469 2 6 0.500558 5 0.499442
  5 -20.776060 1.017840 11.868037 -0.100611 0.212069 0.972062 0.890625 0.855469 2 5 0.906455 6 0.093545
wizard
  5 -8.125818 1.160932 7.346756 -0.814243 0.207289 -0.542254 0.917969 0.992188 3 5 0.957905 22 0.040964 4 0.001131
  5 -7.563421 -1.599952 9.658240 -0.635217 -0.750329 -0.183043 0.945312 0.992188 4 5 0.650788 4 0.243957 8 0.093039 11 0.012215
  6 -20.833576 -0.734205 10.001703 -0.062453 -0.978711 -0.195508 0.945312 0.855469 2 6 0.917196 5 0.082804
wizard
  5 -8.125818 1.160932 7.346756 -0.814243 0.207289 -0.542254 0.917969 0.992188 3 5 0.957905 22 0.040964 4 0.001131
  6 -20.833576 -0.734205 10.001703 -0.062453 -0.978711 -0.195508 0.945312 0.855469 2 6 0.917196 5 0.082804
  6 -20.847645 1.731904 9.112237 -0.130814 0.635402 -0.761021 0.917969 0.855469 2 6 0.500558 5 0.499442
wizard
  39 -5.868650 6.070671 -13.014718 0.632252 0.679356 0.372469 0.785156 0.855469 3 39 0.835691 41 0.141195 22 0.023113
  39 -6.969538 6.070671 -13.014718 -0.785746 0.529407 0.319894 0.804688 0.855469 3 39 0.819330 41 0.148265 22 0.032405
  1 -5.241416 3.719071 -2.717803 -0.337707 0.916074 -0.216245 0.757812 0.746094 4 1 0.863167 41 0.076319 22 0.059429 23 0.001085
wizard
  1 -7.182628 -0.759610 -2.717803 -0.957581 -0.287836 0.013757 0.218750 0.757812 4 1 0.864251 39 0.098733 5 0.036328 22 0.000688
  39 -6.969538 6.070671 -13.014718 -0.785746 0.529407 0.319894 0.144531 0.867188 3 39 0.819330 41 0.148265 22 0.032405
  39 -8.015369 -0.885391 -13.014718 -0.899751 -0.435538 -0.027478 0.218750 0.863281 4 39 0.862964 28 0.072307 22 0.064729 41 0.000000
wizard
  39 -5.868650 6.070671 -13.014718 0.632252 0.679356 0.372469 0.785156 0.855469 3 39 0.835691 41 0.141195 22 0.023113
  1 -5.241416 3.719071 -2.717803 -0.337707 0.916074 -0.216245 0.757812 0.746094 4 1 0.863167 41 0.076319 22 0.059429 23 0.001085
  1 0.000000 -2.823901 -3.478203 0.000000 0.924225 -0.381849 0.687500 0.785156 4 1 0.353530 23 0.311572 26 0.256943 22 0.077955
wizard
  39 -6.969538 6.070671 -13.014718 -0.785746 0.529407 0.319894 0.144531 0.867188 3 39 0.819330 41 0.148265 22 0.032405
  28 -8.015369 0.775134 -19.607565 -0.901944 -0.426033 0.070663 0.207031 0.945312 4 28 0.889340 40 0.052348 39 0.044010 29 0.014301
  39 -8.015369 -0.885391 -13.014718 -0.899751 -0.435538 -0.027478 0.218750 0.863281 4 39 0.862964 28 0.072307 22 0.064729 41 0.000000
wizard
  32 -5.255385 4.903972 -20.762087 0.825160 0.488927 -0.282950 0.117188 0.960938 2 32 0.987122 40 0.012878
  40 -6.969538 4.903972 -20.762087 -0.906707 0.277396 -0.317700 0.117188 0.937500 2 40 0.786751 32 0.213249
  40 -5.443858 9.676868 -20.509872 0.149358 0.844944 -0.513578 0.058594 0.949219 1 40 1.000000
wizard
  39 -5.868650 6.070671 -13.014718 0.632252 0.679356 0.372469 0.785156 0.855469 3 39 0.835691 41 0.141195 22 0.023113
  22 0.000000 -2.823901 -13.014718 0.000000 0.989450 0.144874 0.687500 0.855469 4 22 0.512677 26 0.372751 44 0.057419 41 0.057153
  26 0.000000 -0.307778 -20.762087 0.000000 0.140507 -0.990080 0.687500 0.941406 2 26 0.954225 27 0.045775
wizard
  39 -6.969538 6.070671 -13.014718 -0.785746 0.529407 0.319894 0.105469 0.847656 3 39 0.819330 41 0.148265 22 0.032405
  41 -5.830379 10.493141 -14.597515 0.072758 0.946987 0.312924 0.058594 0.867188 1 41 1.000000
  40 -5.443858 9.676868 -20.509872 0.149358 0.844944 -0.513578 0.058594 0.937500 1 40 1.000000
wizard
  39 -5.868650 6.070671 -13.014718 0.632252 0.679356 0.372469 0.105469 0.828125 3 39 0.835691 41 0.141195 22 0.023113
  41 -5.830379 10.493141 -14.597515 0.072758 0.946987 0.312924 0.058594 0.839844 1 41 1.000000
  39 -6.969538 6.070671 -13.014718 -0.785746 0.529407 0.319894 0.105469 0.847656 3 39 0.819330 41 0.148265 22 0.032405
wizard
  39 -5.868650 6.070671 -13.014718 0.632252 0.679356 0.372469 0.785156 0.855469 3 39 0.835691 41 0.141195 22 0.023113
  32 -5.255385 4.903972 -20.762087 0.825160 0.488927 -0.282950 0.785156 0.945312 2 32 0.987122 40 0.012878
  40 -5.443858 9.676868 -20.509872 0.149358 0.844944 -0.513578 0.832031 0.945312 1 40 1.000000
wizard
  28 -8.015369 0.775134 -19.607565 -0.901944 -0.426033 0.070663 0.898438 0.464844 4 28 0.889340 40 0.052348 39 0.044010 29 0.014301
  28 -10.588674 2.388592 -22.016052 -0.141496 0.985381 -0.094889 0.933594 0.445312 2 28 0.925004 29 0.074996
  28 -10.687910 0.329372 -20.290899 -0.076200 -0.500282 0.862503 0.906250 0.445312 2 28 0.511199 29 0.488801
wizard
  32 -5.255385 4.903972 -20.762087 0.825160 0.488927 -0.282950 0.785156 0.945312 2 32 0.987122 40 0.012878
  26 0.000000 -0.307778 -20.762087 0.000000 0.140507 -0.990080 0.687500 0.941406 2 26 0.954225 27 0.045775
  32 -5.830379 3.305847 -22.513313 0.028751 0.306086 -0.951569 0.769531 0.972656 3 32 0.902447 28 0.097040 40 0.000514
wizard
  32 -5.830379 3.305847 -22.513313 0.028751 0.306086 -0.951569 0.171875 0.984375 3 32 0.902447 28 0.097040 40 0.000514
  40 -6.969538 4.903972 -20.762087 -0.906707 0.277396 -0.317700 0.156250 0.957031 2 40 0.786751 32 0.213249
  32 -5.830379 8.584146 -23.692429 0.039367 0.867164 -0.496465 0.105469 0.984375 2 32 0.985426 40 0.014574
wizard
  40 -6.969538 4.903972 -20.762087 -0.906707 0.277396 -0.317700 0.156250 0.957031 2 40 0.786751 32 0.213249
  32 -5.830379 3.305847 -22.513313 0.028751 0.306086 -0.951569 0.171875 0.984375 3 32 0.902447 28 0.097040 40 0.000514
  28 -8.015369 0.775134 -19.607565 -0.901944 -0.426033 0.070663 0.207031 0.945312 4 28 0.889340 40 0.052348 39 0.044010 29 0.014301
wizard
  32 -5.255385 4.903972 -20.762087 0.825160 0.488927 -0.282950 0.785156 0.945312 2 32 0.987122 40 0.012878
  32 -5.830379 3.305847 -22.513313 0.028751 0.306086 -0.951569 0.769531 0.972656 3 32 0.902447 28 0.097040 40 0.000514
  32 -5.830379 8.584146 -23.692429 0.039367 0.867164 -0.496465 0.847656 0.972656 2 32 0.985426 40 0.014574
wizard
  40 -6.969538 4.903972 -20.762087 -0.906707 0.277396 -0.317700 0.082031 0.718750 2 40 0.786751 32 0.213249
  32 -5.255385 4.903972 -20.762087 0.825160 0.488927 -0.282950 0.105469 0.718750 2 32 0.987122 40 0.012878
  32 -5.830379 8.584146 -23.692429 0.039367 0.867164 -0.496465 0.093750 0.785156 2 32 0.985426 40 0.014574
wizard
  3 -4.584839 -5.345603 18.182991 -0.492292 -0.849743 0.188639 0.269531 0.554688 3 3 0.863041 8 0.132696 11 0.004262
  3 -1.965175 -0.701525 28.314272 -0.356909 -0.623419 0.695676 0.292969 0.460938 2 3 0.991332 14 0.008668
  3 -8.997270 3.651496 18.182991 -0.958725 0.250268 0.134950 0.183594 0.527344 4 3 0.952416 8 0.029033 2 0.011358 5 0.007192
wizard
  4 -7.712677 1.160932 13.533259 -0.885591 0.031345 0.463407 0.210938 0.585938 4 4 0.671010 5 0.169058 8 0.116899 3 0.043034
  3 -4.584839 -5.345603 18.182991 -0.492292 -0.849743 0.188639 0.269531 0.554688 3 3 0.863041 8 0.132696 11 0.004262
  3 -8.997270 3.651496 18.182991 -0.958725 0.250268 0.134950 0.183594 0.527344 4 3 0.952416 8 0.029033 2 0.011358 5 0.007192
wizard
  4 -7.712677 1.160932 13.533259 -0.885591 0.031345 0.463407 0.437500 0.117188 4 4 0.671010 5 0.169058 8 0.116899 3 0.043034
  8 -10.206758 0.717096 13.569139 -0.168294 0.876853 0.450341 0.433594 0.089844 4 8 0.663269 9 0.205458 4 0.107785 5 0.023488
  8 -6.949591 -1.733849 13.507910 -0.756873 -0.526431 0.387315 0.402344 0.117188 4 8 0.714827 5 0.111684 4 0.091502 3 0.081987
wizard
  39 -8.015369 -0.885391 -13.014718 -0.899751 -0.435538 -0.027478 0.218750 0.863281 4 39 0.862964 28 0.072307 22 0.064729 41 0.000000
  1 -2.856102 -4.142995 -2.717803 -0.310428 -0.950581 -0.005453 0.281250 0.757812 4 1 0.912388 39 0.048478 23 0.038903 22 0.000231
  1 -7.182628 -0.759610 -2.717803 -0.957581 -0.287836 0.013757 0.218750 0.757812 4 1 0.864251 39 0.098733 5 0.036328 22 0.000688
wizard
  4 -7.712677 1.160932 13.533259 -0.885591 0.031345 0.463407 0.910156 0.992188 4 4 0.671010 5 0.169058 8 0.116899 3 0.043034
  5 -7.417522 3.428747 10.112588 -0.505696 0.857819 -0.091743 0.882812 0.992188 2 5 0.907915 4 0.092085
  5 -20.776060 1.017840 11.868037 -0.100611 0.212069 0.972062 0.890625 0.855469 2 5 0.906455 6 0.093545
wizard
  6 -20.847645 1.731904 9.112237 -0.130814 0.635402 -0.761021 0.917969 0.855469 2 6 0.500558 5 0.499442
  7 -35.548843 -0.734205 10.001703 -0.046952 -0.971472 -0.232462 0.945312 0.703125 2 7 0.992685 6 0.007315
  7 -35.562916 1.731904 9.112237 -0.052420 0.672424 -0.738307 0.917969 0.703125 2 7 0.946888 6 0.053112
wizard
  6 -20.833576 -0.734205 10.001703 -0.062453 -0.978711 -0.195508 0.945312 0.855469 2 6 0.917196 5 0.082804
  5 -20.776060 1.017840 11.868037 -0.100611 0.212069 0.972062 0.972656 0.855469 2 5 0.906455 6 0.093545
  7 -35.491329 1.017840 11.868037 -0.049918 0.246495 0.967858 0.972656 0.703125 2 7 0.541148 6 0.458852
wizard
  6 -20.847645 1.731904 9.112237 -0.130814 0.635402 -0.761021 0.859375 0.855469 2 6 0.500558 5 0.499442
  7 -35.491329 1.017840 11.868037 -0.049918 0.246495 0.967858 0.890625 0.703125 2 7 0.541148 6 0.458852
  5 -20.776060 1.017840 11.868037 -0.100611 0.212069 0.972062 0.890625 0.855469 2 5 0.906455 6 0.093545
wizard
  7 -35.562916 1.731904 9.112237 -0.052420 0.672424 -0.738307 0.917969 0.703125 2 7 0.946888 6 0.053112
  7 -35.548843 -0.734205 10.001703 -0.046952 -0.971472 -0.232462 0.945312 0.703125 2 7 0.992685 6 0.007315
  7 -50.571426 0.671847 10.327328 -1.000000 0.000084 0.000191 0.945312 0.546875 2 7 0.968934 6 0.031066
wizard
  7 -35.491329 1.017840 11.868037 -0.049918 0.246495 0.967858 0.890625 0.703125 2 7 0.541148 6 0.458852
  7 -35.562916 1.731904 9.112237 -0.052420 0.672424 -0.738307 0.859375 0.703125 2 7 0.946888 6 0.053112
  7 -50.571426 0.671847 10.327328 -1.000000 0.000084 0.000191 0.871094 0.542969 2 7 0.968934 6 0.031066
wizard
  7 -35.491329 1.017840 11.868037 -0.049918 0.246495 0.967858 0.972656 0.703125 2 7 0.541148 6 0.458852
  7 -50.571426 0.671847 10.327328 -1.000000 0.000084 0.000191 0.945312 0.546875 2 7 0.968934 6 0.031066
  7 -35.548843 -0.734205 10.001703 -0.046952 -0.971472 -0.232462 0.945312 0.703125 2 7 0.992685 6 0.007315
wizard
  29 -10.663003 0.329372 -23.190170 0.044259 -0.553239 -0.831846 0.957031 0.445312 2 29 0.878697 28 0.121303
  28 -10.687910 0.329372 -20.290899 -0.076200 -0.500282 0.862503 0.988281 0.445312 2 28 0.511199 29 0.488801
  30 -23.031361 0.804169 -20.577579 -0.036725 -0.422080 0.905814 0.992188 0.320312 1 30 1.000000
wizard
  32 -5.830379 3.305847 -22.513313 0.028751 0.306086 -0.951569 0.937500 0.500000 3 32 0.902447 28 0.097040 40 0.000514
  29 -10.663003 0.329372 -23.190170 0.044259 -0.553239 -0.831846 0.957031 0.445312 2 29 0.878697 28 0.121303
  28 -10.588674 2.388592 -22.016052 -0.141496 0.985381 -0.094889 0.933594 0.445312 2 28 0.925004 29 0.074996
wizard
  28 -8.015369 0.775134 -19.607565 -0.901944 -0.426033 0.070663 0.996094 0.480469 4 28 0.889340 40 0.052348 39 0.044010 29 0.014301
  29 -10.663003 0.329372 -23.190170 0.044259 -0.553239 -0.831846 0.957031 0.445312 2 29 0.878697 28 0.121303
  28 -6.663851 1.117021 -22.513313 -0.034164 -0.450875 -0.891933 0.960938 0.488281 3 28 0.922754 32 0.068555 27 0.008691
wizard
  30 -23.006454 0.804169 -23.476852 0.000746 -0.502419 -0.864624 0.960938 0.320312 1 30 1.000000
  30 -23.031361 0.804169 -20.577579 -0.036725 -0.422080 0.905814 0.992188 0.320312 1 30 1.000000
  30 -38.292274 1.373744 -20.921497 -0.101719 -0.426612 0.898696 0.992188 0.156250 2 30 0.949146 31 0.050854
wizard
  29 -10.663003 0.329372 -23.190170 0.044259 -0.553239 -0.831846 0.957031 0.445312 2 29 0.878697 28 0.121303
  30 -23.006454 0.804169 -23.476852 0.000746 -0.502419 -0.864624 0.960938 0.320312 1 30 1.000000
  30 -22.932123 2.863389 -22.302732 0.039762 0.995192 -0.089505 0.933594 0.320312 1 30 1.000000
wizard
  28 -10.687910 0.329372 -20.290899 -0.076200 -0.500282 0.862503 0.906250 0.445312 2 28 0.511199 29 0.488801
  28 -10.588674 2.388592 -22.016052 -0.141496 0.985381 -0.094889 0.933594 0.445312 2 28 0.925004 29 0.074996
  30 -22.932123 2.863389 -22.302732 0.039762 0.995192 -0.089505 0.933594 0.320312 1 30 1.000000
wizard
  30 -38.292274 1.373744 -20.921497 -0.101719 -0.426612 0.898696 0.992188 0.156250 2 30 0.949146 31 0.050854
  31 -52.599388 3.211271 -22.821795 -0.996517 0.079648 -0.024706 0.953125 0.007812 2 31 0.922276 30 0.077724
  30 -38.267368 1.373744 -23.820768 -0.060473 -0.506305 -0.860232 0.960938 0.156250 2 30 0.940334 31 0.059666
wizard
  30 -23.006454 0.804169 -23.476852 0.000746 -0.502419 -0.864624 0.960938 0.320312 1 30 1.000000
  30 -38.267368 1.373744 -23.820768 -0.060473 -0.506305 -0.860232 0.960938 0.156250 2 30 0.940334 31 0.059666
  30 -38.193039 3.432963 -22.646648 0.012906 0.995751 -0.091174 0.937500 0.156250 2 30 0.525013 31 0.474987
wizard
  30 -23.031361 0.804169 -20.577579 -0.036725 -0.422080 0.905814 0.906250 0.320312 1 30 1.000000
  30 -22.932123 2.863389 -22.302732 0.039762 0.995192 -0.089505 0.933594 0.320312 1 30 1.000000
  30 -38.193039 3.432963 -22.646648 0.012906 0.995751 -0.091174 0.937500 0.156250 2 30 0.525013 31 0.474987
wizard
  28 -6.663851 1.117021 -22.513313 -0.034164 -0.450875 -0.891933 0.753906 0.996094 3 28 0.922754 32 0.068555 27 0.008691
  32 -5.830379 3.305847 -22.513313 0.028751 0.306086 -0.951569 0.769531 0.972656 3 32 0.902447 28 0.097040 40 0.000514
  26 0.000000 -0.307778 -20.762087 0.000000 0.140507 -0.990080 0.687500 0.941406 2 26 0.954225 27 0.045775
wizard
  30 -38.267368 1.373744 -23.820768 -0.060473 -0.506305 -0.860232 0.960938 0.156250 2 30 0.940334 31 0.059666
  31 -52.599388 3.211271 -22.821795 -0.996517 0.079648 -0.024706 0.953125 0.007812 2 31 0.922276 30 0.077724
  30 -38.193039 3.432963 -22.646648 0.012906 0.995751 -0.091174 0.937500 0.156250 2 30 0.525013 31 0.474987
wizard
  30 -38.193039 3.432963 -22.646648 0.012906 0.995751 -0.091174 0.937500 0.156250 2 30 0.525013 31 0.474987
  31 -52.599388 3.211271 -22.821795 -0.996517 0.079648 -0.024706 0.953125 0.007812 2 31 0.922276 30 0.077724
  30 -38.292274 1.373744 -20.921497 -0.101719 -0.426612 0.898696 0.910156 0.156250 2 30 0.949146 31 0.050854
wizard
  27 -2.752688 -2.089288 -23.881685 0.151626 -0.420057 -0.894741 0.687500 0.996094 2 27 0.895636 28 0.104364
  28 -6.663851 1.117021 -22.513313 -0.034164 -0.450875 -0.891933 0.753906 0.996094 3 28 0.922754 32 0.068555 27 0.008691
  26 0.000000 -0.307778 -20.762087 0.000000 0.140507 -0.990080 0.687500 0.941406 2 26 0.954225 27 0.045775
wizard
  26 0.000000 -0.307778 -20.762087 0.000000 0.140507 -0.990080 0.312500 0.968750 2 26 0.954225 27 0.045775
  39 -2.856102 -4.142995 -13.404602 -0.239198 -0.957766 -0.159588 0.281250 0.867188 3 39 0.911956 42 0.053365 22 0.034680
  27 -2.752688 -2.089288 -23.881685 0.151626 -0.420057 -0.894741 0.269531 0.996094 2 27 0.895636 28 0.104364
wizard
  28 -6.663851 1.117021 -22.513313 -0.034164 -0.450875 -0.891933 0.214844 0.980469 3 28 0.922754 32 0.068555 27 0.008691
  27 -2.752688 -2.089288 -23.881685 0.151626 -0.420057 -0.894741 0.269531 0.996094 2 27 0.895636 28 0.104364
  28 -8.015369 0.775134 -19.607565 -0.901944 -0.426033 0.070663 0.207031 0.945312 4 28 0.889340 40 0.052348 39 0.044010 29 0.014301
wizard
  28 -8.015369 0.775134 -19.607565 -0.901944 -0.426033 0.070663 0.207031 0.945312 4 28 0.889340 40 0.052348 39 0.044010 29 0.014301
  39 -2.856102 -4.142995 -13.404602 -0.239198 -0.957766 -0.159588 0.281250 0.867188 3 39 0.911956 42 0.053365 22 0.034680
  39 -8.015369 -0.885391 -13.014718 -0.899751 -0.435538 -0.027478 0.218750 0.863281 4 39 0.862964 28 0.072307 22 0.064729 41 0.000000
wizard
  3 -4.584839 -5.345603 18.182991 -0.492292 -0.849743 0.188639 0.269531 0.554688 3 3 0.863041 8 0.132696 11 0.004262
  5 -7.563421 -1.599952 9.658240 -0.635217 -0.750329 -0.183043 0.238281 0.625000 4 5 0.650788 4 0.243957 8 0.093039 11 0.012215
  4 -3.421182 -4.250038 9.867055 0.081565 -0.986162 0.144333 0.281250 0.625000 4 4 0.412522 2 0.403059 11 0.157101 5 0.027318
wizard
  1 -7.182628 -0.759610 -2.717803 -0.957581 -0.287836 0.013757 0.218750 0.757812 4 1 0.864251 39 0.098733 5 0.036328 22 0.000688
  1 -2.856102 -4.142995 -2.717803 -0.310428 -0.950581 -0.005453 0.281250 0.757812 4 1 0.912388 39 0.048478 23 0.038903 22 0.000231
  4 -5.400128 -2.799625 6.251664 -0.598698 -0.755416 -0.266285 0.257812 0.664062 4 4 0.533336 11 0.345912 5 0.076280 22 0.044472
wizard
  5 -7.563421 -1.599952 9.658240 -0.635217 -0.750329 -0.183043 0.656250 0.007812 4 5 0.650788 4 0.243957 8 0.093039 11 0.012215
  4 -5.400128 -2.799625 6.251664 -0.598698 -0.755416 -0.266285 0.621094 0.007812 4 4 0.533336 11 0.345912 5 0.076280 22 0.044472
  11 -4.904109 -9.433226 6.642596 0.019007 -0.113206 -0.993390 0.621094 0.070312 2 11 0.999979 4 0.000021
wizard
  5 -7.563421 -1.599952 9.658240 -0.635217 -0.750329 -0.183043 0.656250 0.007812 4 5 0.650788 4 0.243957 8 0.093039 11 0.012215
  11 -4.904109 -9.433226 6.642596 0.019007 -0.113206 -0.993390 0.621094 0.070312 2 11 0.999979 4 0.000021
  11 -6.037090 -9.230997 9.671581 -0.816644 -0.100720 0.568285 0.656250 0.070312 1 11 1.000000
wizard
  5 -8.125818 1.160932 7.346756 -0.814243 0.207289 -0.542254 0.207031 0.648438 3 5 0.957905 22 0.040964 4 0.001131
  1 -7.182628 -0.759610 -2.717803 -0.957581 -0.287836 0.013757 0.218750 0.757812 4 1 0.864251 39 0.098733 5 0.036328 22 0.000688
  5 -7.563421 -1.599952 9.658240 -0.635217 -0.750329 -0.183043 0.238281 0.625000 4 5 0.650788 4 0.243957 8 0.093039 11 0.012215
wizard
  5 -8.125818 1.160932 7.346756 -0.814243 0.207289 -0.542254 0.796875 0.636719 3 5 0.957905 22 0.040964 4 0.001131
  5 -7.417522 3.428747 10.112588 -0.505696 0.857819 -0.091743 0.773438 0.605469 2 5 0.907915 4 0.092085
  1 -7.182628 -0.759610 -2.717803 -0.957581 -0.287836 0.013757 0.808594 0.746094 4 1 0.864251 39 0.098733 5 0.036328 22 0.000688
wizard
  4 -4.791406 5.058605 10.958833 -0.354848 0.932315 -0.069798 0.742188 0.597656 4 4 0.576715 5 0.249260 2 0.125592 3 0.048433
  5 -7.417522 3.428747 10.112588 -0.505696 0.857819 -0.091743 0.773438 0.605469 2 5 0.907915 4 0.092085
  3 -8.997270 3.651496 18.182991 -0.958725 0.250268 0.134950 0.773438 0.523438 4 3 0.952416 8 0.029033 2 0.011358 5 0.007192
wizard
  3 -1.965175 -0.701525 28.314272 -0.356909 -0.623419 0.695676 0.292969 0.460938 2 3 0.991332 14 0.008668
  3 -3.545217 3.651496 29.619598 -0.527106 0.268206 0.806365 0.277344 0.417969 2 3 0.989599 14 0.010401
  3 -8.997270 3.651496 18.182991 -0.958725 0.250268 0.134950 0.183594 0.527344 4 3 0.952416 8 0.029033 2 0.011358 5 0.007192
wizard
  2 0.000000 5.735433 10.958833 0.000000 0.999317 0.036947 0.687500 0.597656 4 2 0.785799 14 0.089857 4 0.083226 3 0.041117
  4 -4.791406 5.058605 10.958833 -0.354848 0.932315 -0.069798 0.742188 0.597656 4 4 0.576715 5 0.249260 2 0.125592 3 0.048433
  3 -6.133341 5.735433 18.182991 -0.373473 0.926833 0.038705 0.742188 0.523438 4 3 0.908519 2 0.074132 5 0.016556 4 0.000793
wizard
  1 -5.241416 3.719071 -2.717803 -0.337707 0.916074 -0.216245 0.167969 0.757812 4 1 0.863167 41 0.076319 22 0.059429 23 0.001085
  39 -6.969538 6.070671 -13.014718 -0.785746 0.529407 0.319894 0.144531 0.867188 3 39 0.819330 41 0.148265 22 0.032405
  1 -7.182628 -0.759610 -2.717803 -0.957581 -0.287836 0.013757 0.218750 0.757812 4 1 0.864251 39 0.098733 5 0.036328 22 0.000688
wizard
  3 -8.997270 3.651496 18.182991 -0.958725 0.250268 0.134950 0.773438 0.523438 4 3 0.952416 8 0.029033 2 0.011358 5 0.007192
  3 -3.545217 3.651496 29.619598 -0.527106 0.268206 0.806365 0.722656 0.398438 2 3 0.989599 14 0.010401
  3 -1.965175 5.735433 26.007515 -0.194334 0.945604 0.260898 0.707031 0.441406 3 3 0.955125 14 0.027454 4 0.017421
wizard
  40 -6.969538 4.903972 -20.762087 -0.906707 0.277396 -0.317700 0.156250 0.957031 2 40 0.786751 32 0.213249
  28 -8.015369 0.775134 -19.607565 -0.901944 -0.426033 0.070663 0.207031 0.945312 4 28 0.889340 40 0.052348 39 0.044010 29 0.014301
  39 -6.969538 6.070671 -13.014718 -0.785746 0.529407 0.319894 0.144531 0.867188 3 39 0.819330 41 0.148265 22 0.032405
wizard
  22 0.000000 -2.823901 -13.014718 0.000000 0.989450 0.144874 0.687500 0.855469 4 22 0.512677 26 0.372751 44 0.057419 41 0.057153
  39 -5.868650 6.070671 -13.014718 0.632252 0.679356 0.372469 0.785156 0.855469 3 39 0.835691 41 0.141195 22 0.023113
  1 0.000000 -2.823901 -3.478203 0.000000 0.924225 -0.381849 0.687500 0.785156 4 1 0.353530 23 0.311572 26 0.256943 22 0.077955
wizard
  32 -5.255385 4.903972 -20.762087 0.825160 0.488927 -0.282950 0.785156 0.945312 2 32 0.987122 40 0.012878
  39 -5.868650 6.070671 -13.014718 0.632252 0.679356 0.372469 0.785156 0.855469 3 39 0.835691 41 0.141195 22 0.023113
  26 0.000000 -0.307778 -20.762087 0.000000 0.140507 -0.990080 0.687500 0.941406 2 26 0.954225 27 0.045775
wizard
  41 -5.830379 10.493141 -14.597515 0.072758 0.946987 0.312924 0.832031 0.875000 1 41 1.000000
  39 -5.868650 6.070671 -13.014718 0.632252 0.679356 0.372469 0.785156 0.855469 3 39 0.835691 41 0.141195 22 0.023113
  40 -5.443858 9.676868 -20.509872 0.149358 0.844944 -0.513578 0.832031 0.945312 1 40 1.000000
wizard
  40 -6.969538 4.903972 -20.762087 -0.906707 0.277396 -0.317700 0.117188 0.937500 2 40 0.786751 32 0.213249
  39 -6.969538 6.070671 -13.014718 -0.785746 0.529407 0.319894 0.105469 0.847656 3 39 0.819330 41 0.148265 22 0.032405
  40 -5.443858 9.676868 -20.509872 0.149358 0.844944 -0.513578 0.058594 0.937500 1 40 1.000000
wizard
  39 -2.856102 -4.142995 -13.404602 -0.239198 -0.957766 -0.159588 0.281250 0.867188 3 39 0.911956 42 0.053365 22 0.034680
  1 -2.856102 -4.142995 -2.717803 -0.310428 -0.950581 -0.005453 0.281250 0.757812 4 1 0.912388 39 0.048478 23 0.038903 22 0.000231
  39 -8.015369 -0.885391 -13.014718 -0.899751 -0.435538 -0.027478 0.218750 0.863281 4 39 0.862964 28 0.072307 22 0.064729 41 0.000000
wizard
  27 -2.752688 -2.089288 -23.881685 0.151626 -0.420057 -0.894741 0.269531 0.996094 2 27 0.895636 28 0.104364
  39 -2.856102 -4.142995 -13.404602 -0.239198 -0.957766 -0.159588 0.281250 0.867188 3 39 0.911956 42 0.053365 22 0.034680
  28 -8.015369 0.775134 -19.607565 -0.901944 -0.426033 0.070663 0.207031 0.945312 4 28 0.889340 40 0.052348 39 0.044010 29 0.014301
wizard
  28 -6.663851 1.117021 -22.513313 -0.034164 -0.450875 -0.891933 0.960938 0.488281 3 28 0.922754 32 0.068555 27 0.008691
  29 -10.663003 0.329372 -23.190170 0.044259 -0.553239 -0.831846 0.957031 0.445312 2 29 0.878697 28 0.121303
  32 -5.830379 3.305847 -22.513313 0.028751 0.306086 -0.951569 0.937500 0.500000 3 32 0.902447 28 0.097040 40 0.000514
wizard
  32 -5.830379 3.305847 -22.513313 0.028751 0.306086 -0.951569 0.937500 0.500000 3 32 0.902447 28 0.097040 40 0.000514
  28 -10.588674 2.388592 -22.016052 -0.141496 0.985381 -0.094889 0.933594 0.445312 2 28 0.925004 29 0.074996
  28 -8.015369 0.775134 -19.607565 -0.901944 -0.426033 0.070663 0.898438 0.464844 4 28 0.889340 40 0.052348 39 0.044010 29 0.014301
wizard
  28 -10.687910 0.329372 -20.290899 -0.076200 -0.500282 0.862503 0.988281 0.445312 2 28 0.511199 29 0.488801
  29 -10.663003 0.329372 -23.190170 0.044259 -0.553239 -0.831846 0.957031 0.445312 2 29 0.878697 28 0.121303
  28 -8.015369 0.775134 -19.607565 -0.901944 -0.426033 0.070663 0.996094 0.480469 4 28 0.889340 40 0.052348 39 0.044010 29 0.014301
wizard
  29 -10.663003 0.329372 -23.190170 0.044259 -0.553239 -0.831846 0.957031 0.445312 2 29 0.878697 28 0.121303
  30 -23.031361 0.804169 -20.577579 -0.036725 -0.422080 0.905814 0.992188 0.320312 1 30 1.000000
  30 -23.006454 0.804169 -23.476852 0.000746 -0.502419 -0.864624 0.960938 0.320312 1 30 1.000000
wizard
  30 -23.006454 0.804169 -23.476852 0.000746 -0.502419 -0.864624 0.960938 0.320312 1 30 1.000000
  30 -38.292274 1.373744 -20.921497 -0.101719 -0.426612 0.898696 0.992188 0.156250 2 30 0.949146 31 0.050854
  30 -38.267368 1.373744 -23.820768 -0.060473 -0.506305 -0.860232 0.960938 0.156250 2 30 0.940334 31 0.059666
wizard
  29 -10.663003 0.329372 -23.190170 0.044259 -0.553239 -0.831846 0.957031 0.445312 2 29 0.878697 28 0.121303
  30 -22.932123 2.863389 -22.302732 0.039762 0.995192 -0.089505 0.933594 0.320312 1 30 1.000000
  28 -10.588674 2.388592 -22.016052 -0.141496 0.985381 -0.094889 0.933594 0.445312 2 28 0.925004 29 0.074996
wizard
  28 -10.687910 0.329372 -20.290899 -0.076200 -0.500282 0.862503 0.906250 0.445312 2 28 0.511199 29 0.488801
  30 -22.932123 2.863389 -22.302732 0.039762 0.995192 -0.089505 0.933594 0.320312 1 30 1.000000
  30 -23.031361 0.804169 -20.577579 -0.036725 -0.422080 0.905814 0.906250 0.320312 1 30 1.000000
wizard
  30 -23.006454 0.804169 -23.476852 0.000746 -0.502419 -0.864624 0.960938 0.320312 1 30 1.000000
  30 -38.193039 3.432963 -22.646648 0.012906 0.995751 -0.091174 0.937500 0.156250 2 30 0.525013 31 0.474987
  30 -22.932123 2.863389 -22.302732 0.039762 0.995192 -0.089505 0.933594 0.320312 1 30 1.000000
wizard
  30 -23.031361 0.804169 -20.577579 -0.036725 -0.422080 0.905814 0.906250 0.320312 1 30 1.000000
  30 -38.193039 3.432963 -22.646648 0.012906 0.995751 -0.091174 0.937500 0.156250 2 30 0.525013 31 0.474987
  30 -38.292274 1.373744 -20.921497 -0.101719 -0.426612 0.898696 0.910156 0.156250 2 30 0.949146 31 0.050854
wizard
  6 -20.847645 1.731904 9.112237 -0.130814 0.635402 -0.761021 0.917969 0.855469 2 6 0.500558 5 0.499442
  6 -20.833576 -0.734205 10.001703 -0.062453 -0.978711 -0.195508 0.945312 0.855469 2 6 0.917196 5 0.082804
  7 -35.548843 -0.734205 10.001703 -0.046952 -0.971472 -0.232462 0.945312 0.703125 2 7 0.992685 6 0.007315
wizard
  6 -20.833576 -0.734205 10.001703 -0.062453 -0.978711 -0.195508 0.945312 0.855469 2 6 0.917196 5 0.082804
  7 -35.491329 1.017840 11.868037 -0.049918 0.246495 0.967858 0.972656 0.703125 2 7 0.541148 6 0.458852
  7 -35.548843 -0.734205 10.001703 -0.046952 -0.971472 -0.232462 0.945312 0.703125 2 7 0.992685 6 0.007315
wizard
  6 -20.847645 1.731904 9.112237 -0.130814 0.635402 -0.761021 0.859375 0.855469 2 6 0.500558 5 0.499442
  7 -35.562916 1.731904 9.112237 -0.052420 0.672424 -0.738307 0.859375 0.703125 2 7 0.946888 6 0.053112
  7 -35.491329 1.017840 11.868037 -0.049918 0.246495 0.967858 0.890625 0.703125 2 7 0.541148 6 0.458852
wizard
  1 -2.856102 -4.142995 -2.717803 -0.310428 -0.950581 -0.005453 0.281250 0.757812 4 1 0.912388 39 0.048478 23 0.038903 22 0.000231
  39 -2.856102 -4.142995 -13.404602 -0.239198 -0.957766 -0.159588 0.281250 0.867188 3 39 0.911956 42 0.053365 22 0.034680
  42 2.856102 -4.142995 -13.404602 0.239195 -0.957767 -0.159589 0.339844 0.867188 4 42 0.937948 39 0.057952 22 0.004100 23 0.000000
wizard
  1 -2.856102 -4.142995 -2.717803 -0.310428 -0.950581 -0.005453 0.281250 0.757812 4 1 0.912388 39 0.048478 23 0.038903 22 0.000231
  42 2.856102 -4.142995 -13.404602 0.239195 -0.957767 -0.159589 0.339844 0.867188 4 42 0.937948 39 0.057952 22 0.004100 23 0.000000
  1 2.856102 -4.142995 -2.717803 -0.037129 -0.973676 0.224890 0.339844 0.757812 3 1 0.883464 23 0.114918 22 0.001618
wizard
  4 -3.421182 -4.250038 9.867055 0.081565 -0.986162 0.144333 0.281250 0.625000 4 4 0.412522 2 0.403059 11 0.157101 5 0.027318
  1 -2.856102 -4.142995 -2.717803 -0.310428 -0.950581 -0.005453 0.281250 0.757812 4 1 0.912388 39 0.048478 23 0.038903 22 0.000231
  1 2.856102 -4.142995 -2.717803 -0.037129 -0.973676 0.224890 0.339844 0.757812 3 1 0.883464 23 0.114918 22 0.001618
wizard
  4 -3.421182 -4.250038 9.867055 0.081565 -0.986162 0.144333 0.281250 0.625000 4 4 0.412522 2 0.403059 11 0.157101 5 0.027318
  1 2.856102 -4.142995 -2.717803 -0.037129 -0.973676 0.224890 0.339844 0.757812 3 1 0.883464 23 0.114918 22 0.001618
  2 3.421182 -4.250038 9.867055 0.272094 -0.957695 -0.093726 0.343750 0.625000 4 2 0.526156 14 0.368792 15 0.079439 3 0.025612
wizard
  3 -4.584839 -5.345603 18.182991 -0.492292 -0.849743 0.188639 0.269531 0.554688 3 3 0.863041 8 0.132696 11 0.004262
  4 -3.421182 -4.250038 9.867055 0.081565 -0.986162 0.144333 0.281250 0.625000 4 4 0.412522 2 0.403059 11 0.157101 5 0.027318
  2 3.421182 -4.250038 9.867055 0.272094 -0.957695 -0.093726 0.343750 0.625000 4 2 0.526156 14 0.368792 15 0.079439 3 0.025612
wizard
  3 -4.584839 -5.345603 18.182991 -0.492292 -0.849743 0.188639 0.269531 0.554688 3 3 0.863041 8 0.132696 11 0.004262
  2 3.421182 -4.250038 9.867055 0.272094 -0.957695 -0.093726 0.343750 0.625000 4 2 0.526156 14 0.368792 15 0.079439 3 0.025612
  3 4.584839 -5.345603 18.182991 0.492339 -0.849714 0.188648 0.355469 0.554688 3 3 0.783256 18 0.130350 14 0.086394
wizard
  3 -4.584839 -5.345603 18.182991 -0.492292 -0.849743 0.188639 0.269531 0.554688 3 3 0.863041 8 0.132696 11 0.004262
  3 4.584839 -5.345603 18.182991 0.492339 -0.849714 0.188648 0.355469 0.554688 3 3 0.783256 18 0.130350 14 0.086394
  3 1.965176 -0.701525 28.314272 0.356908 -0.623419 0.695676 0.332031 0.460938 2 3 0.950315 14 0.049685
wizard
  3 -4.584839 -5.345603 18.182991 -0.492292 -0.849743 0.188639 0.269531 0.554688 3 3 0.863041 8 0.132696 11 0.004262
  3 1.965176 -0.701525 28.314272 0.356908 -0.623419 0.695676 0.332031 0.460938 2 3 0.950315 14 0.049685
  3 -1.965175 -0.701525 28.314272 -0.356909 -0.623419 0.695676 0.292969 0.460938 2 3 0.991332 14 0.008668
wizard
  3 -1.965175 -0.701525 28.314272 -0.356909 -0.623419 0.695676 0.292969 0.460938 2 3 0.991332 14 0.008668
  3 1.965176 -0.701525 28.314272 0.356908 -0.623419 0.695676 0.332031 0.460938 2 3 0.950315 14 0.049685
  3 3.545217 3.651496 29.619598 0.527106 0.268206 0.806365 0.347656 0.417969 2 3 0.948034 14 0.051966
wizard
  3 -1.965175 -0.701525 28.314272 -0.356909 -0.623419 0.695676 0.292969 0.460938 2 3 0.991332 14 0.008668
  3 3.545217 3.651496 29.619598 0.527106 0.268206 0.806365 0.347656 0.417969 2 3 0.948034 14 0.051966
  3 -3.545217 3.651496 29.619598 -0.527106 0.268206 0.806365 0.277344 0.417969 2 3 0.989599 14 0.010401
wizard
  3 3.545217 3.651496 29.619598 0.527106 0.268206 0.806365 0.652344 0.398438 2 3 0.948034 14 0.051966
  3 1.965176 5.735433 26.007515 0.194334 0.945604 0.260898 0.667969 0.441406 2 3 0.921091 14 0.078909
  3 -1.965175 5.735433 26.007515 -0.194334 0.945604 0.260898 0.707031 0.441406 3 3 0.955125 14 0.027454 4 0.017421
wizard
  3 3.545217 3.651496 29.619598 0.527106 0.268206 0.806365 0.652344 0.398438 2 3 0.948034 14 0.051966
  3 -1.965175 5.735433 26.007515 -0.194334 0.945604 0.260898 0.707031 0.441406 3 3 0.955125 14 0.027454 4 0.017421
  3 -3.545217 3.651496 29.619598 -0.527106 0.268206 0.806365 0.722656 0.398438 2 3 0.989599 14 0.010401
wizard
  3 -1.965175 5.735433 26.007515 -0.194334 0.945604 0.260898 0.707031 0.441406 3 3 0.955125 14 0.027454 4 0.017421
  3 1.965176 5.735433 26.007515 0.194334 0.945604 0.260898 0.667969 0.441406 2 3 0.921091 14 0.078909
  2 0.000000 5.735433 10.958833 0.000000 0.999317 0.036947 0.687500 0.597656 4 2 0.785799 14 0.089857 4 0.083226 3 0.041117
wizard
  15 7.417523 3.428746 10.112588 0.505697 0.857819 -0.091743 0.601562 0.605469 2 15 0.901996 14 0.098004
  1 0.000001 7.042449 1.638714 0.000000 0.950614 -0.310375 0.687500 0.699219 4 1 0.879923 22 0.074052 2 0.045904 23 0.000121
  14 4.791407 5.058605 10.958833 0.354848 0.932315 -0.069798 0.632812 0.597656 4 14 0.624890 15 0.230888 2 0.116448 3 0.027773
wizard
  14 4.791407 5.058605 10.958833 0.354848 0.932315 -0.069798 0.632812 0.597656 4 14 0.624890 15 0.230888 2 0.116448 3 0.027773
  1 0.000001 7.042449 1.638714 0.000000 0.950614 -0.310375 0.687500 0.699219 4 1 0.879923 22 0.074052 2 0.045904 23 0.000121
  2 0.000000 5.735433 10.958833 0.000000 0.999317 0.036947 0.687500 0.597656 4 2 0.785799 14 0.089857 4 0.083226 3 0.041117
wizard
  1 0.000001 7.042449 1.638714 0.000000 0.950614 -0.310375 0.687500 0.699219 4 1 0.879923 22 0.074052 2 0.045904 23 0.000121
  15 7.417523 3.428746 10.112588 0.505697 0.857819 -0.091743 0.601562 0.605469 2 15 0.901996 14 0.098004
  1 5.241416 3.719071 -2.717803 0.337707 0.916074 -0.216245 0.617188 0.746094 4 1 0.884682 44 0.095908 22 0.019411 23 0.000000
wizard
  1 0.000000 -2.823901 -3.478203 0.000000 0.924225 -0.381849 0.687500 0.785156 4 1 0.353530 23 0.311572 26 0.256943 22 0.077955
  1 0.000001 7.042449 1.638714 0.000000 0.950614 -0.310375 0.687500 0.699219 4 1 0.879923 22 0.074052 2 0.045904 23 0.000121
  1 5.241416 3.719071 -2.717803 0.337707 0.916074 -0.216245 0.617188 0.746094 4 1 0.884682 44 0.095908 22 0.019411 23 0.000000
wizard
  3 6.133342 5.735433 18.182991 0.373473 0.926833 0.038705 0.632812 0.523438 4 3 0.910084 2 0.074860 15 0.011923 14 0.003132
  2 0.000000 5.735433 10.958833 0.000000 0.999317 0.036947 0.687500 0.597656 4 2 0.785799 14 0.089857 4 0.083226 3 0.041117
  3 1.965176 5.735433 26.007515 0.194334 0.945604 0.260898 0.667969 0.441406 2 3 0.921091 14 0.078909
wizard
  3 6.133342 5.735433 18.182991 0.373473 0.926833 0.038705 0.632812 0.523438 4 3 0.910084 2 0.074860 15 0.011923 14 0.003132
  3 1.965176 5.735433 26.007515 0.194334 0.945604 0.260898 0.667969 0.441406 2 3 0.921091 14 0.078909
  3 8.997271 3.651496 18.182991 0.958725 0.250268 0.134950 0.601562 0.523438 4 3 0.957934 18 0.027477 2 0.011915 14 0.002674
wizard
  14 4.791407 5.058605 10.958833 0.354848 0.932315 -0.069798 0.632812 0.597656 4 14 0.624890 15 0.230888 2 0.116448 3 0.027773
  3 6.133342 5.735433 18.182991 0.373473 0.926833 0.038705 0.632812 0.523438 4 3 0.910084 2 0.074860 15 0.011923 14 0.003132
  3 8.997271 3.651496 18.182991 0.958725 0.250268 0.134950 0.601562 0.523438 4 3 0.957934 18 0.027477 2 0.011915 14 0.002674
wizard
  15 7.417523 3.428746 10.112588 0.505697 0.857819 -0.091743 0.441406 0.609375 2 15 0.901996 14 0.098004
  3 8.997271 3.651496 18.182991 0.958725 0.250268 0.134950 0.441406 0.527344 4 3 0.957934 18 0.027477 2 0.011915 14 0.002674
  14 7.712678 1.160931 13.533259 0.890995 0.039767 0.452269 0.414062 0.585938 3 14 0.758882 15 0.134134 18 0.106984
wizard
  15 7.417523 3.428746 10.112588 0.505697 0.857819 -0.091743 0.601562 0.605469 2 15 0.901996 14 0.098004
  1 7.182630 -0.759611 -2.717803 0.987648 -0.138099 0.074034 0.566406 0.746094 3 1 0.565640 23 0.428205 15 0.006155
  1 5.241416 3.719071 -2.717803 0.337707 0.916074 -0.216245 0.617188 0.746094 4 1 0.884682 44 0.095908 22 0.019411 23 0.000000
wizard
  14 7.712678 1.160931 13.533259 0.890995 0.039767 0.452269 0.070312 0.464844 3 14 0.758882 15 0.134134 18 0.106984
  15 7.563422 -1.599952 9.658240 0.517148 -0.817959 -0.251992 0.042969 0.464844 3 15 0.799771 18 0.110976 14 0.089254
  15 20.833576 -0.734206 10.001703 0.062453 -0.978711 -0.195508 0.039062 0.324219 2 15 0.520080 16 0.479920
wizard
  14 7.712678 1.160931 13.533259 0.890995 0.039767 0.452269 0.070312 0.464844 3 14 0.758882 15 0.134134 18 0.106984
  15 20.833576 -0.734206 10.001703 0.062453 -0.978711 -0.195508 0.039062 0.324219 2 15 0.520080 16 0.479920
  15 20.776060 1.017838 11.868037 0.100611 0.212069 0.972062 0.066406 0.324219 2 15 0.971544 16 0.028456
wizard
  15 7.417523 3.428746 10.112588 0.505697 0.857819 -0.091743 0.109375 0.464844 2 15 0.901996 14 0.098004
  15 20.847645 1.731902 9.112237 0.130814 0.635402 -0.761020 0.117188 0.324219 2 15 0.950618 16 0.049382
  15 8.125819 1.160931 7.346756 0.814243 0.207289 -0.542254 0.136719 0.464844 3 15 0.983388 14 0.016612 23 0.000000
wizard
  15 7.417523 3.428746 10.112588 0.505697 0.857819 -0.091743 0.109375 0.464844 2 15 0.901996 14 0.098004
  15 20.776060 1.017838 11.868037 0.100611 0.212069 0.972062 0.085938 0.324219 2 15 0.971544 16 0.028456
  15 20.847645 1.731902 9.112237 0.130814 0.635402 -0.761020 0.117188 0.324219 2 15 0.950618 16 0.049382
wizard
  15 8.125819 1.160931 7.346756 0.814243 0.207289 -0.542254 0.011719 0.464844 3 15 0.983388 14 0.016612 23 0.000000
  15 20.847645 1.731902 9.112237 0.130814 0.635402 -0.761020 0.011719 0.324219 2 15 0.950618 16 0.049382
  15 20.833576 -0.734206 10.001703 0.062453 -0.978711 -0.195508 0.039062 0.324219 2 15 0.520080 16 0.479920
wizard
  15 8.125819 1.160931 7.346756 0.814243 0.207289 -0.542254 0.011719 0.464844 3 15 0.983388 14 0.016612 23 0.000000
  15 20.833576 -0.734206 10.001703 0.062453 -0.978711 -0.195508 0.039062 0.324219 2 15 0.520080 16 0.479920
  15 7.563422 -1.599952 9.658240 0.517148 -0.817959 -0.251992 0.042969 0.464844 3 15 0.799771 18 0.110976 14 0.089254
wizard
  42 5.868651 6.070671 -13.014718 -0.632252 0.679356 0.372469 0.585938 0.855469 3 42 0.743290 44 0.249579 22 0.007131
  1 5.241416 3.719071 -2.717803 0.337707 0.916074 -0.216245 0.617188 0.746094 4 1 0.884682 44 0.095908 22 0.019411 23 0.000000
  42 6.969539 6.070671 -13.014718 0.785746 0.529407 0.319894 0.566406 0.855469 3 42 0.818204 44 0.181796 22 0.000000
wizard
  1 7.182630 -0.759611 -2.717803 0.987648 -0.138099 0.074034 0.406250 0.757812 3 1 0.565640 23 0.428205 15 0.006155
  42 8.015370 -0.885391 -13.014718 0.899751 -0.435538 -0.027478 0.406250 0.863281 4 42 0.904507 34 0.089442 22 0.006050 23 0.000001
  42 6.969539 6.070671 -13.014718 0.785746 0.529407 0.319894 0.480469 0.867188 3 42 0.818204 44 0.181796 22 0.000000
wizard
  42 5.868651 6.070671 -13.014718 -0.632252 0.679356 0.372469 0.585938 0.855469 3 42 0.743290 44 0.249579 22 0.007131
  1 0.000000 -2.823901 -3.478203 0.000000 0.924225 -0.381849 0.687500 0.785156 4 1 0.353530 23 0.311572 26 0.256943 22 0.077955
  1 5.241416 3.719071 -2.717803 0.337707 0.916074 -0.216245 0.617188 0.746094 4 1 0.884682 44 0.095908 22 0.019411 23 0.000000
wizard
  42 6.969539 6.070671 -13.014718 0.785746 0.529407 0.319894 0.480469 0.867188 3 42 0.818204 44 0.181796 22 0.000000
  42 8.015370 -0.885391 -13.014718 0.899751 -0.435538 -0.027478 0.406250 0.863281 4 42 0.904507 34 0.089442 22 0.006050 23 0.000001
  34 8.015370 0.775133 -19.607565 0.901944 -0.426033 0.070663 0.417969 0.945312 3 34 0.919196 43 0.046212 42 0.034592
wizard
  38 5.255386 4.903972 -20.762087 -0.825160 0.488927 -0.282950 0.472656 0.773438 2 38 0.951761 43 0.048239
  43 5.443860 9.676867 -20.509872 -0.149358 0.844944 -0.513578 0.531250 0.761719 2 43 0.952593 44 0.047407
  43 6.969539 4.903972 -20.762087 0.906707 0.277396 -0.317700 0.472656 0.750000 2 43 0.708606 38 0.291394
wizard
  42 5.868651 6.070671 -13.014718 -0.632252 0.679356 0.372469 0.585938 0.855469 3 42 0.743290 44 0.249579 22 0.007131
  26 0.000000 -0.307778 -20.762087 0.000000 0.140507 -0.990080 0.687500 0.941406 2 26 0.954225 27 0.045775
  22 0.000000 -2.823901 -13.014718 0.000000 0.989450 0.144874 0.687500 0.855469 4 22 0.512677 26 0.372751 44 0.057419 41 0.057153
wizard
  42 6.969539 6.070671 -13.014718 0.785746 0.529407 0.319894 0.484375 0.660156 3 42 0.818204 44 0.181796 22 0.000000
  43 5.443860 9.676867 -20.509872 -0.149358 0.844944 -0.513578 0.531250 0.750000 2 43 0.952593 44 0.047407
  44 5.830381 10.493140 -14.597515 -0.072758 0.946987 0.312924 0.531250 0.679688 2 44 0.958166 43 0.041834
wizard
  42 5.868651 6.070671 -13.014718 -0.632252 0.679356 0.372469 0.484375 0.640625 3 42 0.743290 44 0.249579 22 0.007131
  42 6.969539 6.070671 -13.014718 0.785746 0.529407 0.319894 0.484375 0.660156 3 42 0.818204 44 0.181796 22 0.000000
  44 5.830381 10.493140 -14.597515 -0.072758 0.946987 0.312924 0.531250 0.652344 2 44 0.958166 43 0.041834
wizard
  42 5.868651 6.070671 -13.014718 -0.632252 0.679356 0.372469 0.585938 0.855469 3 42 0.743290 44 0.249579 22 0.007131
  43 5.443860 9.676867 -20.509872 -0.149358 0.844944 -0.513578 0.539062 0.945312 2 43 0.952593 44 0.047407
  38 5.255386 4.903972 -20.762087 -0.825160 0.488927 -0.282950 0.585938 0.945312 2 38 0.951761 43 0.048239
wizard
  34 8.015370 0.775133 -19.607565 0.901944 -0.426033 0.070663 0.804688 0.046875 3 34 0.919196 43 0.046212 42 0.034592
  34 10.687910 0.329371 -20.290899 0.076200 -0.500282 0.862503 0.812500 0.066406 2 34 0.959406 35 0.040594
  34 10.588674 2.388592 -22.016052 0.141496 0.985381 -0.094889 0.839844 0.066406 2 34 0.949039 35 0.050961
wizard
  38 5.255386 4.903972 -20.762087 -0.825160 0.488927 -0.282950 0.585938 0.945312 2 38 0.951761 43 0.048239
  38 5.830381 3.305847 -22.513313 -0.028751 0.306086 -0.951569 0.601562 0.972656 3 38 0.918976 34 0.077338 43 0.003686
  26 0.000000 -0.307778 -20.762087 0.000000 0.140507 -0.990080 0.687500 0.941406 2 26 0.954225 27 0.045775
wizard
  38 5.830381 3.305847 -22.513313 -0.028751 0.306086 -0.951569 0.453125 0.984375 3 38 0.918976 34 0.077338 43 0.003686
  38 5.830381 8.584146 -23.692429 -0.039367 0.867164 -0.496465 0.519531 0.984375 2 38 0.985175 43 0.014825
  43 6.969539 4.903972 -20.762087 0.906707 0.277396 -0.317700 0.468750 0.957031 2 43 0.708606 38 0.291394
wizard
  43 6.969539 4.903972 -20.762087 0.906707 0.277396 -0.317700 0.468750 0.957031 2 43 0.708606 38 0.291394
  34 8.015370 0.775133 -19.607565 0.901944 -0.426033 0.070663 0.417969 0.945312 3 34 0.919196 43 0.046212 42 0.034592
  38 5.830381 3.305847 -22.513313 -0.028751 0.306086 -0.951569 0.453125 0.984375 3 38 0.918976 34 0.077338 43 0.003686
wizard
  38 5.255386 4.903972 -20.762087 -0.825160 0.488927 -0.282950 0.585938 0.945312 2 38 0.951761 43 0.048239
  38 5.830381 8.584146 -23.692429 -0.039367 0.867164 -0.496465 0.527344 0.972656 2 38 0.985175 43 0.014825
  38 5.830381 3.305847 -22.513313 -0.028751 0.306086 -0.951569 0.601562 0.972656 3 38 0.918976 34 0.077338 43 0.003686
wizard
  43 6.969539 4.903972 -20.762087 0.906707 0.277396 -0.317700 0.492188 0.886719 2 43 0.708606 38 0.291394
  38 5.830381 8.584146 -23.692429 -0.039367 0.867164 -0.496465 0.503906 0.953125 2 38 0.985175 43 0.014825
  38 5.255386 4.903972 -20.762087 -0.825160 0.488927 -0.282950 0.515625 0.886719 2 38 0.951761 43 0.048239
wizard
  3 4.584839 -5.345603 18.182991 0.492339 -0.849714 0.188648 0.355469 0.554688 3 3 0.783256 18 0.130350 14 0.086394
  3 8.997271 3.651496 18.182991 0.958725 0.250268 0.134950 0.441406 0.527344 4 3 0.957934 18 0.027477 2 0.011915 14 0.002674
  3 1.965176 -0.701525 28.314272 0.356908 -0.623419 0.695676 0.332031 0.460938 2 3 0.950315 14 0.049685
wizard
  14 7.712678 1.160931 13.533259 0.890995 0.039767 0.452269 0.414062 0.585938 3 14 0.758882 15 0.134134 18 0.106984
  3 8.997271 3.651496 18.182991 0.958725 0.250268 0.134950 0.441406 0.527344 4 3 0.957934 18 0.027477 2 0.011915 14 0.002674
  3 4.584839 -5.345603 18.182991 0.492339 -0.849714 0.188648 0.355469 0.554688 3 3 0.783256 18 0.130350 14 0.086394
wizard
  14 7.712678 1.160931 13.533259 0.890995 0.039767 0.452269 0.746094 0.367188 3 14 0.758882 15 0.134134 18 0.106984
  18 6.865198 -2.035078 13.390126 0.711168 -0.592074 0.379063 0.773438 0.367188 4 18 0.669631 15 0.134544 14 0.106739 3 0.089086
  18 9.687202 -2.525624 13.888358 -0.067916 -0.767433 0.637522 0.773438 0.343750 2 18 0.544912 19 0.455088
wizard
  14 7.712678 1.160931 13.533259 0.890995 0.039767 0.452269 0.746094 0.367188 3 14 0.758882 15 0.134134 18 0.106984
  18 9.687202 -2.525624 13.888358 -0.067916 -0.767433 0.637522 0.773438 0.343750 2 18 0.544912 19 0.455088
  18 9.680206 0.822169 13.811603 0.030400 0.868662 0.494472 0.746094 0.343750 3 18 0.876420 14 0.074453 19 0.049127
wizard
  23 5.373636 -2.553403 -7.742322 0.616514 -0.766582 -0.179615 0.488281 0.277344 3 23 0.760303 42 0.239686 22 0.000011
  1 7.182630 -0.759611 -2.717803 0.987648 -0.138099 0.074034 0.539062 0.308594 3 1 0.565640 23 0.428205 15 0.006155
  23 6.656338 -10.490021 -3.441233 0.846770 -0.085845 0.524986 0.546875 0.203125 1 23 1.000000
wizard
  23 5.373636 -2.553403 -7.742322 0.616514 -0.766582 -0.179615 0.488281 0.277344 3 23 0.760303 42 0.239686 22 0.000011
  23 6.656338 -10.490021 -3.441233 0.846770 -0.085845 0.524986 0.546875 0.203125 1 23 1.000000
  23 5.219671 -10.480078 -6.295459 0.042867 -0.086869 -0.995297 0.515625 0.203125 1 23 1.000000
wizard
  14 7.712678 1.160931 13.533259 0.890995 0.039767 0.452269 0.082031 0.464844 3 14 0.758882 15 0.134134 18 0.106984
  15 20.776060 1.017838 11.868037 0.100611 0.212069 0.972062 0.085938 0.324219 2 15 0.971544 16 0.028456
  15 7.417523 3.428746 10.112588 0.505697 0.857819 -0.091743 0.109375 0.464844 2 15 0.901996 14 0.098004
wizard
  15 20.847645 1.731902 9.112237 0.130814 0.635402 -0.761020 0.011719 0.324219 2 15 0.950618 16 0.049382
  17 35.562916 1.731902 9.112237 0.052420 0.672424 -0.738307 0.011719 0.171875 2 17 0.949774 16 0.050226
  17 35.548843 -0.734207 10.001703 0.046952 -0.971472 -0.232462 0.039062 0.171875 2 17 0.988121 16 0.011879
wizard
  15 20.833576 -0.734206 10.001703 0.062453 -0.978711 -0.195508 0.039062 0.324219 2 15 0.520080 16 0.479920
  17 35.491329 1.017838 11.868037 0.049918 0.246495 0.967858 0.066406 0.171875 2 17 0.539235 16 0.460765
  15 20.776060 1.017838 11.868037 0.100611 0.212069 0.972062 0.066406 0.324219 2 15 0.971544 16 0.028456
wizard
  15 20.847645 1.731902 9.112237 0.130814 0.635402 -0.761020 0.117188 0.324219 2 15 0.950618 16 0.049382
  15 20.776060 1.017838 11.868037 0.100611 0.212069 0.972062 0.085938 0.324219 2 15 0.971544 16 0.028456
  17 35.491329 1.017838 11.868037 0.049918 0.246495 0.967858 0.085938 0.171875 2 17 0.539235 16 0.460765
wizard
  17 35.562916 1.731902 9.112237 0.052420 0.672424 -0.738307 0.011719 0.171875 2 17 0.949774 16 0.050226
  17 50.571426 0.671844 10.327328 1.000000 0.000084 0.000191 0.039062 0.015625 1 17 1.000000
  17 35.548843 -0.734207 10.001703 0.046952 -0.971472 -0.232462 0.039062 0.171875 2 17 0.988121 16 0.011879
wizard
  17 35.491329 1.017838 11.868037 0.049918 0.246495 0.967858 0.085938 0.171875 2 17 0.539235 16 0.460765
  17 50.571426 0.671844 10.327328 1.000000 0.000084 0.000191 0.101562 0.011719 1 17 1.000000
  17 35.562916 1.731902 9.112237 0.052420 0.672424 -0.738307 0.117188 0.171875 2 17 0.949774 16 0.050226
wizard
  17 35.491329 1.017838 11.868037 0.049918 0.246495 0.967858 0.066406 0.171875 2 17 0.539235 16 0.460765
  17 35.548843 -0.734207 10.001703 0.046952 -0.971472 -0.232462 0.039062 0.171875 2 17 0.988121 16 0.011879
  17 50.571426 0.671844 10.327328 1.000000 0.000084 0.000191 0.039062 0.015625 1 17 1.000000
wizard
  34 10.663003 0.329371 -23.190170 -0.044259 -0.553239 -0.831846 0.863281 0.066406 2 34 0.531458 35 0.468542
  35 23.031361 0.804168 -20.577579 0.036725 -0.422080 0.905814 0.898438 0.195312 1 35 1.000000
  34 10.687910 0.329371 -20.290899 0.076200 -0.500282 0.862503 0.894531 0.066406 2 34 0.959406 35 0.040594
wizard
  38 5.830381 3.305847 -22.513313 -0.028751 0.306086 -0.951569 0.843750 0.011719 3 38 0.918976 34 0.077338 43 0.003686
  34 10.588674 2.388592 -22.016052 0.141496 0.985381 -0.094889 0.839844 0.066406 2 34 0.949039 35 0.050961
  34 10.663003 0.329371 -23.190170 -0.044259 -0.553239 -0.831846 0.863281 0.066406 2 34 0.531458 35 0.468542
wizard
  34 8.015370 0.775133 -19.607565 0.901944 -0.426033 0.070663 0.898438 0.035156 3 34 0.919196 43 0.046212 42 0.034592
  34 6.663853 1.117021 -22.513313 0.034163 -0.450875 -0.891933 0.863281 0.027344 2 34 0.935100 38 0.064900
  34 10.663003 0.329371 -23.190170 -0.044259 -0.553239 -0.831846 0.863281 0.066406 2 34 0.531458 35 0.468542
wizard
  35 23.006454 0.804168 -23.476852 -0.000746 -0.502419 -0.864624 0.867188 0.195312 1 35 1.000000
  36 38.292274 1.373742 -20.921497 0.101719 -0.426612 0.898696 0.898438 0.355469 1 36 1.000000
  35 23.031361 0.804168 -20.577579 0.036725 -0.422080 0.905814 0.898438 0.195312 1 35 1.000000
wizard
  34 10.663003 0.329371 -23.190170 -0.044259 -0.553239 -0.831846 0.863281 0.066406 2 34 0.531458 35 0.468542
  35 22.932123 2.863387 -22.302732 -0.039762 0.995192 -0.089505 0.839844 0.195312 1 35 1.000000
  35 23.006454 0.804168 -23.476852 -0.000746 -0.502419 -0.864624 0.867188 0.195312 1 35 1.000000
wizard
  34 10.687910 0.329371 -20.290899 0.076200 -0.500282 0.862503 0.812500 0.066406 2 34 0.959406 35 0.040594
  35 22.932123 2.863387 -22.302732 -0.039762 0.995192 -0.089505 0.839844 0.195312 1 35 1.000000
  34 10.588674 2.388592 -22.016052 0.141496 0.985381 -0.094889 0.839844 0.066406 2 34 0.949039 35 0.050961
wizard
  36 38.292274 1.373742 -20.921497 0.101719 -0.426612 0.898696 0.898438 0.355469 1 36 1.000000
  36 38.267368 1.373742 -23.820768 0.060473 -0.506305 -0.860232 0.867188 0.355469 1 36 1.000000
  37 52.599388 3.211268 -22.821795 0.996517 0.079648 -0.024706 0.855469 0.507812 2 37 0.902295 36 0.097705
wizard
  35 23.006454 0.804168 -23.476852 -0.000746 -0.502419 -0.864624 0.867188 0.195312 1 35 1.000000
  36 38.193039 3.432961 -22.646648 -0.012906 0.995751 -0.091174 0.843750 0.355469 1 36 1.000000
  36 38.267368 1.373742 -23.820768 0.060473 -0.506305 -0.860232 0.867188 0.355469 1 36 1.000000
wizard
  35 23.031361 0.804168 -20.577579 0.036725 -0.422080 0.905814 0.812500 0.195312 1 35 1.000000
  36 38.193039 3.432961 -22.646648 -0.012906 0.995751 -0.091174 0.843750 0.355469 1 36 1.000000
  35 22.932123 2.863387 -22.302732 -0.039762 0.995192 -0.089505 0.839844 0.195312 1 35 1.000000
wizard
  34 6.663853 1.117021 -22.513313 0.034163 -0.450875 -0.891933 0.617188 0.996094 2 34 0.935100 38 0.064900
  26 0.000000 -0.307778 -20.762087 0.000000 0.140507 -0.990080 0.687500 0.941406 2 26 0.954225 27 0.045775
  38 5.830381 3.305847 -22.513313 -0.028751 0.306086 -0.951569 0.601562 0.972656 3 38 0.918976 34 0.077338 43 0.003686
wizard
  36 38.267368 1.373742 -23.820768 0.060473 -0.506305 -0.860232 0.867188 0.355469 1 36 1.000000
  36 38.193039 3.432961 -22.646648 -0.012906 0.995751 -0.091174 0.843750 0.355469 1 36 1.000000
  37 52.599388 3.211268 -22.821795 0.996517 0.079648 -0.024706 0.855469 0.507812 2 37 0.902295 36 0.097705
wizard
  36 38.193039 3.432961 -22.646648 -0.012906 0.995751 -0.091174 0.843750 0.355469 1 36 1.000000
  36 38.292274 1.373742 -20.921497 0.101719 -0.426612 0.898696 0.812500 0.355469 1 36 1.000000
  37 52.599388 3.211268 -22.821795 0.996517 0.079648 -0.024706 0.855469 0.507812 2 37 0.902295 36 0.097705
wizard
  33 2.752689 -2.089288 -23.881685 -0.151626 -0.420057 -0.894741 0.687500 0.996094 3 33 0.856097 34 0.102538 27 0.041365
  26 0.000000 -0.307778 -20.762087 0.000000 0.140507 -0.990080 0.687500 0.941406 2 26 0.954225 27 0.045775
  34 6.663853 1.117021 -22.513313 0.034163 -0.450875 -0.891933 0.617188 0.996094 2 34 0.935100 38 0.064900
wizard
  26 0.000000 -0.307778 -20.762087 0.000000 0.140507 -0.990080 0.312500 0.968750 2 26 0.954225 27 0.045775
  33 2.752689 -2.089288 -23.881685 -0.151626 -0.420057 -0.894741 0.355469 0.996094 3 33 0.856097 34 0.102538 27 0.041365
  42 2.856102 -4.142995 -13.404602 0.239195 -0.957767 -0.159589 0.339844 0.867188 4 42 0.937948 39 0.057952 22 0.004100 23 0.000000
wizard
  34 6.663853 1.117021 -22.513313 0.034163 -0.450875 -0.891933 0.410156 0.980469 2 34 0.935100 38 0.064900
  34 8.015370 0.775133 -19.607565 0.901944 -0.426033 0.070663 0.417969 0.945312 3 34 0.919196 43 0.046212 42 0.034592
  33 2.752689 -2.089288 -23.881685 -0.151626 -0.420057 -0.894741 0.355469 0.996094 3 33 0.856097 34 0.102538 27 0.041365
wizard
  34 8.015370 0.775133 -19.607565 0.901944 -0.426033 0.070663 0.417969 0.945312 3 34 0.919196 43 0.046212 42 0.034592
  42 8.015370 -0.885391 -13.014718 0.899751 -0.435538 -0.027478 0.406250 0.863281 4 42 0.904507 34 0.089442 22 0.006050 23 0.000001
  42 2.856102 -4.142995 -13.404602 0.239195 -0.957767 -0.159589 0.339844 0.867188 4 42 0.937948 39 0.057952 22 0.004100 23 0.000000
wizard
  3 4.584839 -5.345603 18.182991 0.492339 -0.849714 0.188648 0.355469 0.554688 3 3 0.783256 18 0.130350 14 0.086394
  2 3.421182 -4.250038 9.867055 0.272094 -0.957695 -0.093726 0.343750 0.625000 4 2 0.526156 14 0.368792 15 0.079439 3 0.025612
  15 7.563422 -1.599952 9.658240 0.517148 -0.817959 -0.251992 0.386719 0.625000 3 15 0.799771 18 0.110976 14 0.089254
wizard
  1 7.182630 -0.759611 -2.717803 0.987648 -0.138099 0.074034 0.406250 0.757812 3 1 0.565640 23 0.428205 15 0.006155
  15 7.563422 -1.599952 9.658240 0.517148 -0.817959 -0.251992 0.386719 0.625000 3 15 0.799771 18 0.110976 14 0.089254
  1 2.856102 -4.142995 -2.717803 -0.037129 -0.973676 0.224890 0.339844 0.757812 3 1 0.883464 23 0.114918 22 0.001618
wizard
  2 3.421182 -4.250038 9.867055 0.272094 -0.957695 -0.093726 0.343750 0.625000 4 2 0.526156 14 0.368792 15 0.079439 3 0.025612
  1 2.856102 -4.142995 -2.717803 -0.037129 -0.973676 0.224890 0.339844 0.757812 3 1 0.883464 23 0.114918 22 0.001618
  15 7.563422 -1.599952 9.658240 0.517148 -0.817959 -0.251992 0.386719 0.625000 3 15 0.799771 18 0.110976 14 0.089254
wizard
  15 8.125819 1.160931 7.346756 0.814243 0.207289 -0.542254 0.417969 0.648438 3 15 0.983388 14 0.016612 23 0.000000
  15 7.563422 -1.599952 9.658240 0.517148 -0.817959 -0.251992 0.386719 0.625000 3 15 0.799771 18 0.110976 14 0.089254
  1 7.182630 -0.759611 -2.717803 0.987648 -0.138099 0.074034 0.406250 0.757812 3 1 0.565640 23 0.428205 15 0.006155
wizard
  15 8.125819 1.160931 7.346756 0.814243 0.207289 -0.542254 0.578125 0.636719 3 15 0.983388 14 0.016612 23 0.000000
  1 7.182630 -0.759611 -2.717803 0.987648 -0.138099 0.074034 0.566406 0.746094 3 1 0.565640 23 0.428205 15 0.006155
  15 7.417523 3.428746 10.112588 0.505697 0.857819 -0.091743 0.601562 0.605469 2 15 0.901996 14 0.098004
wizard
  14 4.791407 5.058605 10.958833 0.354848 0.932315 -0.069798 0.632812 0.597656 4 14 0.624890 15 0.230888 2 0.116448 3 0.027773
  3 8.997271 3.651496 18.182991 0.958725 0.250268 0.134950 0.601562 0.523438 4 3 0.957934 18 0.027477 2 0.011915 14 0.002674
  15 7.417523 3.428746 10.112588 0.505697 0.857819 -0.091743 0.601562 0.605469 2 15 0.901996 14 0.098004
wizard
  3 1.965176 -0.701525 28.314272 0.356908 -0.623419 0.695676 0.332031 0.460938 2 3 0.950315 14 0.049685
  3 8.997271 3.651496 18.182991 0.958725 0.250268 0.134950 0.441406 0.527344 4 3 0.957934 18 0.027477 2 0.011915 14 0.002674
  3 3.545217 3.651496 29.619598 0.527106 0.268206 0.806365 0.347656 0.417969 2 3 0.948034 14 0.051966
wizard
  2 0.000000 5.735433 10.958833 0.000000 0.999317 0.036947 0.687500 0.597656 4 2 0.785799 14 0.089857 4 0.083226 3 0.041117
  3 6.133342 5.735433 18.182991 0.373473 0.926833 0.038705 0.632812 0.523438 4 3 0.910084 2 0.074860 15 0.011923 14 0.003132
  14 4.791407 5.058605 10.958833 0.354848 0.932315 -0.069798 0.632812 0.597656 4 14 0.624890 15 0.230888 2 0.116448 3 0.027773
wizard
  1 5.241416 3.719071 -2.717803 0.337707 0.916074 -0.216245 0.457031 0.757812 4 1 0.884682 44 0.095908 22 0.019411 23 0.000000
  1 7.182630 -0.759611 -2.717803 0.987648 -0.138099 0.074034 0.406250 0.757812 3 1 0.565640 23 0.428205 15 0.006155
  42 6.969539 6.070671 -13.014718 0.785746 0.529407 0.319894 0.480469 0.867188 3 42 0.818204 44 0.181796 22 0.000000
wizard
  3 8.997271 3.651496 18.182991 0.958725 0.250268 0.134950 0.601562 0.523438 4 3 0.957934 18 0.027477 2 0.011915 14 0.002674
  3 1.965176 5.735433 26.007515 0.194334 0.945604 0.260898 0.667969 0.441406 2 3 0.921091 14 0.078909
  3 3.545217 3.651496 29.619598 0.527106 0.268206 0.806365 0.652344 0.398438 2 3 0.948034 14 0.051966
wizard
  43 6.969539 4.903972 -20.762087 0.906707 0.277396 -0.317700 0.468750 0.957031 2 43 0.708606 38 0.291394
  42 6.969539 6.070671 -13.014718 0.785746 0.529407 0.319894 0.480469 0.867188 3 42 0.818204 44 0.181796 22 0.000000
  34 8.015370 0.775133 -19.607565 0.901944 -0.426033 0.070663 0.417969 0.945312 3 34 0.919196 43 0.046212 42 0.034592
wizard
  22 0.000000 -2.823901 -13.014718 0.000000 0.989450 0.144874 0.687500 0.855469 4 22 0.512677 26 0.372751 44 0.057419 41 0.057153
  1 0.000000 -2.823901 -3.478203 0.000000 0.924225 -0.381849 0.687500 0.785156 4 1 0.353530 23 0.311572 26 0.256943 22 0.077955
  42 5.868651 6.070671 -13.014718 -0.632252 0.679356 0.372469 0.585938 0.855469 3 42 0.743290 44 0.249579 22 0.007131
wizard
  38 5.255386 4.903972 -20.762087 -0.825160 0.488927 -0.282950 0.585938 0.945312 2 38 0.951761 43 0.048239
  26 0.000000 -0.307778 -20.762087 0.000000 0.140507 -0.990080 0.687500 0.941406 2 26 0.954225 27 0.045775
  42 5.868651 6.070671 -13.014718 -0.632252 0.679356 0.372469 0.585938 0.855469 3 42 0.743290 44 0.249579 22 0.007131
wizard
  44 5.830381 10.493140 -14.597515 -0.072758 0.946987 0.312924 0.539062 0.875000 2 44 0.958166 43 0.041834
  43 5.443860 9.676867 -20.509872 -0.149358 0.844944 -0.513578 0.539062 0.945312 2 43 0.952593 44 0.047407
  42 5.868651 6.070671 -13.014718 -0.632252 0.679356 0.372469 0.585938 0.855469 3 42 0.743290 44 0.249579 22 0.007131
wizard
  43 6.969539 4.903972 -20.762087 0.906707 0.277396 -0.317700 0.472656 0.750000 2 43 0.708606 38 0.291394
  43 5.443860 9.676867 -20.509872 -0.149358 0.844944 -0.513578 0.531250 0.750000 2 43 0.952593 44 0.047407
  42 6.969539 6.070671 -13.014718 0.785746 0.529407 0.319894 0.484375 0.660156 3 42 0.818204 44 0.181796 22 0.000000
wizard
  42 2.856102 -4.142995 -13.404602 0.239195 -0.957767 -0.159589 0.339844 0.867188 4 42 0.937948 39 0.057952 22 0.004100 23 0.000000
  42 8.015370 -0.885391 -13.014718 0.899751 -0.435538 -0.027478 0.406250 0.863281 4 42 0.904507 34 0.089442 22 0.006050 23 0.000001
  23 5.373636 -2.553403 -7.742322 0.616514 -0.766582 -0.179615 0.375000 0.808594 3 23 0.760303 42 0.239686 22 0.000011
wizard
  33 2.752689 -2.089288 -23.881685 -0.151626 -0.420057 -0.894741 0.355469 0.996094 3 33 0.856097 34 0.102538 27 0.041365
  34 8.015370 0.775133 -19.607565 0.901944 -0.426033 0.070663 0.417969 0.945312 3 34 0.919196 43 0.046212 42 0.034592
  42 2.856102 -4.142995 -13.404602 0.239195 -0.957767 -0.159589 0.339844 0.867188 4 42 0.937948 39 0.057952 22 0.004100 23 0.000000
wizard
  34 6.663853 1.117021 -22.513313 0.034163 -0.450875 -0.891933 0.863281 0.027344 2 34 0.935100 38 0.064900
  38 5.830381 3.305847 -22.513313 -0.028751 0.306086 -0.951569 0.843750 0.011719 3 38 0.918976 34 0.077338 43 0.003686
  34 10.663003 0.329371 -23.190170 -0.044259 -0.553239 -0.831846 0.863281 0.066406 2 34 0.531458 35 0.468542
wizard
  38 5.830381 3.305847 -22.513313 -0.028751 0.306086 -0.951569 0.843750 0.011719 3 38 0.918976 34 0.077338 43 0.003686
  34 8.015370 0.775133 -19.607565 0.901944 -0.426033 0.070663 0.804688 0.046875 3 34 0.919196 43 0.046212 42 0.034592
  34 10.588674 2.388592 -22.016052 0.141496 0.985381 -0.094889 0.839844 0.066406 2 34 0.949039 35 0.050961
wizard
  34 10.687910 0.329371 -20.290899 0.076200 -0.500282 0.862503 0.894531 0.066406 2 34 0.959406 35 0.040594
  34 8.015370 0.775133 -19.607565 0.901944 -0.426033 0.070663 0.898438 0.035156 3 34 0.919196 43 0.046212 42 0.034592
  34 10.663003 0.329371 -23.190170 -0.044259 -0.553239 -0.831846 0.863281 0.066406 2 34 0.531458 35 0.468542
wizard
  34 10.663003 0.329371 -23.190170 -0.044259 -0.553239 -0.831846 0.863281 0.066406 2 34 0.531458 35 0.468542
  35 23.006454 0.804168 -23.476852 -0.000746 -0.502419 -0.864624 0.867188 0.195312 1 35 1.000000
  35 23.031361 0.804168 -20.577579 0.036725 -0.422080 0.905814 0.898438 0.195312 1 35 1.000000
wizard
  35 23.006454 0.804168 -23.476852 -0.000746 -0.502419 -0.864624 0.867188 0.195312 1 35 1.000000
  36 38.267368 1.373742 -23.820768 0.060473 -0.506305 -0.860232 0.867188 0.355469 1 36 1.000000
  36 38.292274 1.373742 -20.921497 0.101719 -0.426612 0.898696 0.898438 0.355469 1 36 1.000000
wizard
  34 10.663003 0.329371 -23.190170 -0.044259 -0.553239 -0.831846 0.863281 0.066406 2 34 0.531458 35 0.468542
  34 10.588674 2.388592 -22.016052 0.141496 0.985381 -0.094889 0.839844 0.066406 2 34 0.949039 35 0.050961
  35 22.932123 2.863387 -22.302732 -0.039762 0.995192 -0.089505 0.839844 0.195312 1 35 1.000000
wizard
  34 10.687910 0.329371 -20.290899 0.076200 -0.500282 0.862503 0.812500 0.066406 2 34 0.959406 35 0.040594
  35 23.031361 0.804168 -20.577579 0.036725 -0.422080 0.905814 0.812500 0.195312 1 35 1.000000
  35 22.932123 2.863387 -22.302732 -0.039762 0.995192 -0.089505 0.839844 0.195312 1 35 1.000000
wizard
  35 23.006454 0.804168 -23.476852 -0.000746 -0.502419 -0.864624 0.867188 0.195312 1 35 1.000000
  35 22.932123 2.863387 -22.302732 -0.039762 0.995192 -0.089505 0.839844 0.195312 1 35 1.000000
  36 38.193039 3.432961 -22.646648 -0.012906 0.995751 -0.091174 0.843750 0.355469 1 36 1.000000
wizard
  35 23.031361 0.804168 -20.577579 0.036725 -0.422080 0.905814 0.812500 0.195312 1 35 1.000000
  36 38.292274 1.373742 -20.921497 0.101719 -0.426612 0.898696 0.812500 0.355469 1 36 1.000000
  36 38.193039 3.432961 -22.646648 -0.012906 0.995751 -0.091174 0.843750 0.355469 1 36 1.000000
wizard
  15 20.847645 1.731902 9.112237 0.130814 0.635402 -0.761020 0.011719 0.324219 2 15 0.950618 16 0.049382
  17 35.548843 -0.734207 10.001703 0.046952 -0.971472 -0.232462 0.039062 0.171875 2 17 0.988121 16 0.011879
  15 20.833576 -0.734206 10.001703 0.062453 -0.978711 -0.195508 0.039062 0.324219 2 15 0.520080 16 0.479920
wizard
  15 20.833576 -0.734206 10.001703 0.062453 -0.978711 -0.195508 0.039062 0.324219 2 15 0.520080 16 0.479920
  17 35.548843 -0.734207 10.001703 0.046952 -0.971472 -0.232462 0.039062 0.171875 2 17 0.988121 16 0.011879
  17 35.491329 1.017838 11.868037 0.049918 0.246495 0.967858 0.066406 0.171875 2 17 0.539235 16 0.460765
wizard
  15 20.847645 1.731902 9.112237 0.130814 0.635402 -0.761020 0.117188 0.324219 2 15 0.950618 16 0.049382
  17 35.491329 1.017838 11.868037 0.049918 0.246495 0.967858 0.085938 0.171875 2 17 0.539235 16 0.460765
  17 35.562916 1.731902 9.112237 0.052420 0.672424 -0.738307 0.117188 0.171875 2 17 0.949774 16 0.050226
wizard
  42 2.856102 -4.142995 -13.404602 0.239195 -0.957767 -0.159589 0.339844 0.867188 4 42 0.937948 39 0.057952 22 0.004100 23 0.000000
  39 -2.856102 -4.142995 -13.404602 -0.239198 -0.957766 -0.159588 0.281250 0.867188 3 39 0.911956 42 0.053365 22 0.034680
  26 0.000000 -0.307778 -20.762087 0.000000 0.140507 -0.990080 0.312500 0.968750 2 26 0.954225 27 0.045775
wizard
  8 -6.949591 -1.733849 13.507910 -0.756873 -0.526431 0.387315 0.402344 0.117188 4 8 0.714827 5 0.111684 4 0.091502 3 0.081987
  8 -10.206758 0.717096 13.569139 -0.168294 0.876853 0.450341 0.433594 0.089844 4 8 0.663269 9 0.205458 4 0.107785 5 0.023488
  9 -12.635748 0.074438 13.255365 -0.242602 0.888765 0.388896 0.433594 0.062500 2 9 0.931868 8 0.068132
wizard
  8 -6.949591 -1.733849 13.507910 -0.756873 -0.526431 0.387315 0.402344 0.117188 4 8 0.714827 5 0.111684 4 0.091502 3 0.081987
  9 -12.635748 0.074438 13.255365 -0.242602 0.888765 0.388896 0.433594 0.062500 2 9 0.931868 8 0.068132
  9 -12.602915 -1.916665 13.630525 -0.146365 -0.693474 0.705458 0.414062 0.062500 2 9 0.985299 8 0.014701
wizard
  8 -6.949591 -1.733849 13.507910 -0.756873 -0.526431 0.387315 0.402344 0.117188 4 8 0.714827 5 0.111684 4 0.091502 3 0.081987
  8 -10.057503 -1.739768 10.298629 -0.215821 -0.326477 -0.920236 0.378906 0.082031 3 8 0.804739 9 0.111941 5 0.083319
  5 -7.563421 -1.599952 9.658240 -0.635217 -0.750329 -0.183043 0.359375 0.117188 4 5 0.650788 4 0.243957 8 0.093039 11 0.012215
wizard
  8 -10.057503 -1.739768 10.298629 -0.215821 -0.326477 -0.920236 0.476562 0.089844 3 8 0.804739 9 0.111941 5 0.083319
  8 -10.206758 0.717096 13.569139 -0.168294 0.876853 0.450341 0.433594 0.089844 4 8 0.663269 9 0.205458 4 0.107785 5 0.023488
  4 -7.712677 1.160932 13.533259 -0.885591 0.031345 0.463407 0.437500 0.117188 4 4 0.671010 5 0.169058 8 0.116899 3 0.043034
wizard
  9 -12.602915 -1.916665 13.630525 -0.146365 -0.693474 0.705458 0.414062 0.062500 2 9 0.985299 8 0.014701
  9 -12.635748 0.074438 13.255365 -0.242602 0.888765 0.388896 0.433594 0.062500 2 9 0.931868 8 0.068132
  10 -16.812181 -1.187162 12.533925 -0.999313 -0.015741 -0.033560 0.425781 0.019531 2 10 0.900628 9 0.099372
wizard
  8 -10.057503 -1.739768 10.298629 -0.215821 -0.326477 -0.920236 0.378906 0.082031 3 8 0.804739 9 0.111941 5 0.083319
  8 -6.949591 -1.733849 13.507910 -0.756873 -0.526431 0.387315 0.402344 0.117188 4 8 0.714827 5 0.111684 4 0.091502 3 0.081987
  9 -12.602915 -1.916665 13.630525 -0.146365 -0.693474 0.705458 0.414062 0.062500 2 9 0.985299 8 0.014701
wizard
  8 -10.057503 -1.739768 10.298629 -0.215821 -0.326477 -0.920236 0.378906 0.082031 3 8 0.804739 9 0.111941 5 0.083319
  9 -12.602915 -1.916665 13.630525 -0.146365 -0.693474 0.705458 0.414062 0.062500 2 9 0.985299 8 0.014701
  9 -12.538649 -1.523916 11.127683 -0.253792 -0.265572 -0.930086 0.390625 0.062500 2 9 0.945940 8 0.054060
wizard
  8 -10.206758 0.717096 13.569139 -0.168294 0.876853 0.450341 0.433594 0.089844 4 8 0.663269 9 0.205458 4 0.107785 5 0.023488
  8 -10.057503 -1.739768 10.298629 -0.215821 -0.326477 -0.920236 0.476562 0.089844 3 8 0.804739 9 0.111941 5 0.083319
  9 -12.538649 -1.523916 11.127683 -0.253792 -0.265572 -0.930086 0.460938 0.062500 2 9 0.945940 8 0.054060
wizard
  8 -10.206758 0.717096 13.569139 -0.168294 0.876853 0.450341 0.433594 0.089844 4 8 0.663269 9 0.205458 4 0.107785 5 0.023488
  9 -12.538649 -1.523916 11.127683 -0.253792 -0.265572 -0.930086 0.460938 0.062500 2 9 0.945940 8 0.054060
  9 -12.635748 0.074438 13.255365 -0.242602 0.888765 0.388896 0.433594 0.062500 2 9 0.931868 8 0.068132
wizard
  3 -4.584839 -5.345603 18.182991 -0.492292 -0.849743 0.188639 0.269531 0.554688 3 3 0.863041 8 0.132696 11 0.004262
  4 -7.712677 1.160932 13.533259 -0.885591 0.031345 0.463407 0.210938 0.585938 4 4 0.671010 5 0.169058 8 0.116899 3 0.043034
  8 -6.949591 -1.733849 13.507910 -0.756873 -0.526431 0.387315 0.238281 0.593750 4 8 0.714827 5 0.111684 4 0.091502 3 0.081987
wizard
  9 -12.538649 -1.523916 11.127683 -0.253792 -0.265572 -0.930086 0.390625 0.062500 2 9 0.945940 8 0.054060
  9 -12.602915 -1.916665 13.630525 -0.146365 -0.693474 0.705458 0.414062 0.062500 2 9 0.985299 8 0.014701
  10 -16.812181 -1.187162 12.533925 -0.999313 -0.015741 -0.033560 0.425781 0.019531 2 10 0.900628 9 0.099372
wizard
  9 -12.635748 0.074438 13.255365 -0.242602 0.888765 0.388896 0.433594 0.062500 2 9 0.931868 8 0.068132
  9 -12.538649 -1.523916 11.127683 -0.253792 -0.265572 -0.930086 0.460938 0.062500 2 9 0.945940 8 0.054060
  10 -16.812181 -1.187162 12.533925 -0.999313 -0.015741 -0.033560 0.425781 0.019531 2 10 0.900628 9 0.099372
wizard
  3 -4.584839 -5.345603 18.182991 -0.492292 -0.849743 0.188639 0.269531 0.554688 3 3 0.863041 8 0.132696 11 0.004262
  8 -6.949591 -1.733849 13.507910 -0.756873 -0.526431 0.387315 0.238281 0.593750 4 8 0.714827 5 0.111684 4 0.091502 3 0.081987
  5 -7.563421 -1.599952 9.658240 -0.635217 -0.750329 -0.183043 0.238281 0.625000 4 5 0.650788 4 0.243957 8 0.093039 11 0.012215
wizard
  5 -7.563421 -1.599952 9.658240 -0.635217 -0.750329 -0.183043 0.488281 0.117188 4 5 0.650788 4 0.243957 8 0.093039 11 0.012215
  8 -10.057503 -1.739768 10.298629 -0.215821 -0.326477 -0.920236 0.476562 0.089844 3 8 0.804739 9 0.111941 5 0.083319
  4 -7.712677 1.160932 13.533259 -0.885591 0.031345 0.463407 0.437500 0.117188 4 4 0.671010 5 0.169058 8 0.116899 3 0.043034
wizard
  1 -2.856102 -4.142995 -2.717803 -0.310428 -0.950581 -0.005453 0.281250 0.757812 4 1 0.912388 39 0.048478 23 0.038903 22 0.000231
  4 -3.421182 -4.250038 9.867055 0.081565 -0.986162 0.144333 0.281250 0.625000 4 4 0.412522 2 0.403059 11 0.157101 5 0.027318
  4 -5.400128 -2.799625 6.251664 -0.598698 -0.755416 -0.266285 0.257812 0.664062 4 4 0.533336 11 0.345912 5 0.076280 22 0.044472
wizard
  5 -7.563421 -1.599952 9.658240 -0.635217 -0.750329 -0.183043 0.238281 0.625000 4 5 0.650788 4 0.243957 8 0.093039 11 0.012215
  1 -7.182628 -0.759610 -2.717803 -0.957581 -0.287836 0.013757 0.218750 0.757812 4 1 0.864251 39 0.098733 5 0.036328 22 0.000688
  4 -5.400128 -2.799625 6.251664 -0.598698 -0.755416 -0.266285 0.257812 0.664062 4 4 0.533336 11 0.345912 5 0.076280 22 0.044472
wizard
  11 -6.037090 -9.230997 9.671581 -0.816644 -0.100720 0.568285 0.656250 0.070312 1 11 1.000000
  11 -4.904109 -9.433226 6.642596 0.019007 -0.113206 -0.993390 0.621094 0.070312 2 11 0.999979 4 0.000021
  12 -4.895463 -18.073832 7.298166 -0.012001 -0.114815 -0.993314 0.628906 0.164062 1 12 1.000000
wizard
  11 -6.037090 -9.230997 9.671581 -0.816644 -0.100720 0.568285 0.656250 0.070312 1 11 1.000000
  12 -4.895463 -18.073832 7.298166 -0.012001 -0.114815 -0.993314 0.628906 0.164062 1 12 1.000000
  12 -5.660624 -17.937252 9.343798 -0.817948 -0.084970 0.568983 0.656250 0.164062 1 12 1.000000
wizard
  4 -5.400128 -2.799625 6.251664 -0.598698 -0.755416 -0.266285 0.714844 0.007812 4 4 0.533336 11 0.345912 5 0.076280 22 0.044472
  4 -3.421182 -4.250038 9.867055 0.081565 -0.986162 0.144333 0.679688 0.019531 4 4 0.412522 2 0.403059 11 0.157101 5 0.027318
  11 -3.691227 -9.321636 9.671581 0.830655 -0.032910 0.555813 0.679688 0.070312 1 11 1.000000
wizard
  4 -5.400128 -2.799625 6.251664 -0.598698 -0.755416 -0.266285 0.714844 0.007812 4 4 0.533336 11 0.345912 5 0.076280 22 0.044472
  11 -3.691227 -9.321636 9.671581 0.830655 -0.032910 0.555813 0.679688 0.070312 1 11 1.000000
  11 -4.904109 -9.433226 6.642596 0.019007 -0.113206 -0.993390 0.714844 0.070312 2 11 0.999979 4 0.000021
wizard
  4 -3.421182 -4.250038 9.867055 0.081565 -0.986162 0.144333 0.679688 0.019531 4 4 0.412522 2 0.403059 11 0.157101 5 0.027318
  5 -7.563421 -1.599952 9.658240 -0.635217 -0.750329 -0.183043 0.656250 0.007812 4 5 0.650788 4 0.243957 8 0.093039 11 0.012215
  11 -6.037090 -9.230997 9.671581 -0.816644 -0.100720 0.568285 0.656250 0.070312 1 11 1.000000
wizard
  4 -3.421182 -4.250038 9.867055 0.081565 -0.986162 0.144333 0.679688 0.019531 4 4 0.412522 2 0.403059 11 0.157101 5 0.027318
  11 -6.037090 -9.230997 9.671581 -0.816644 -0.100720 0.568285 0.656250 0.070312 1 11 1.000000
  11 -3.691227 -9.321636 9.671581 0.830655 -0.032910 0.555813 0.679688 0.070312 1 11 1.000000
wizard
  12 -5.660624 -17.937252 9.343798 -0.817948 -0.084970 0.568983 0.656250 0.164062 1 12 1.000000
  12 -4.895463 -18.073832 7.298166 -0.012001 -0.114815 -0.993314 0.628906 0.164062 1 12 1.000000
  13 -4.877476 -26.665167 8.661920 -0.000195 -1.000000 0.000356 0.664062 0.250000 2 13 0.771298 12 0.228702
wizard
  11 -4.904109 -9.433226 6.642596 0.019007 -0.113206 -0.993390 0.714844 0.070312 2 11 0.999979 4 0.000021
  11 -3.691227 -9.321636 9.671581 0.830655 -0.032910 0.555813 0.679688 0.070312 1 11 1.000000
  12 -4.076340 -17.998466 9.343798 0.823324 -0.087635 0.560765 0.679688 0.164062 1 12 1.000000
wizard
  11 -4.904109 -9.433226 6.642596 0.019007 -0.113206 -0.993390 0.714844 0.070312 2 11 0.999979 4 0.000021
  12 -4.076340 -17.998466 9.343798 0.823324 -0.087635 0.560765 0.679688 0.164062 1 12 1.000000
  12 -4.895463 -18.073832 7.298166 -0.012001 -0.114815 -0.993314 0.703125 0.164062 1 12 1.000000
wizard
  11 -3.691227 -9.321636 9.671581 0.830655 -0.032910 0.555813 0.679688 0.070312 1 11 1.000000
  11 -6.037090 -9.230997 9.671581 -0.816644 -0.100720 0.568285 0.656250 0.070312 1 11 1.000000
  12 -5.660624 -17.937252 9.343798 -0.817948 -0.084970 0.568983 0.656250 0.164062 1 12 1.000000
wizard
  11 -3.691227 -9.321636 9.671581 0.830655 -0.032910 0.555813 0.679688 0.070312 1 11 1.000000
  12 -5.660624 -17.937252 9.343798 -0.817948 -0.084970 0.568983 0.656250 0.164062 1 12 1.000000
  12 -4.076340 -17.998466 9.343798 0.823324 -0.087635 0.560765 0.679688 0.164062 1 12 1.000000
wizard
  1 2.856102 -4.142995 -2.717803 -0.037129 -0.973676 0.224890 0.339844 0.757812 3 1 0.883464 23 0.114918 22 0.001618
  42 2.856102 -4.142995 -13.404602 0.239195 -0.957767 -0.159589 0.339844 0.867188 4 42 0.937948 39 0.057952 22 0.004100 23 0.000000
  23 5.373636 -2.553403 -7.742322 0.616514 -0.766582 -0.179615 0.375000 0.808594 3 23 0.760303 42 0.239686 22 0.000011
wizard
  12 -4.895463 -18.073832 7.298166 -0.012001 -0.114815 -0.993314 0.703125 0.164062 1 12 1.000000
  12 -4.076340 -17.998466 9.343798 0.823324 -0.087635 0.560765 0.679688 0.164062 1 12 1.000000
  13 -4.877476 -26.665167 8.661920 -0.000195 -1.000000 0.000356 0.664062 0.250000 2 13 0.771298 12 0.228702
wizard
  12 -4.076340 -17.998466 9.343798 0.823324 -0.087635 0.560765 0.679688 0.164062 1 12 1.000000
  12 -5.660624 -17.937252 9.343798 -0.817948 -0.084970 0.568983 0.656250 0.164062 1 12 1.000000
  13 -4.877476 -26.665167 8.661920 -0.000195 -1.000000 0.000356 0.664062 0.250000 2 13 0.771298 12 0.228702
wizard
  42 8.015370 -0.885391 -13.014718 0.899751 -0.435538 -0.027478 0.406250 0.863281 4 42 0.904507 34 0.089442 22 0.006050 23 0.000001
  1 7.182630 -0.759611 -2.717803 0.987648 -0.138099 0.074034 0.406250 0.757812 3 1 0.565640 23 0.428205 15 0.006155
  23 5.373636 -2.553403 -7.742322 0.616514 -0.766582 -0.179615 0.375000 0.808594 3 23 0.760303 42 0.239686 22 0.000011
wizard
  23 5.219671 -10.480078 -6.295459 0.042867 -0.086869 -0.995297 0.515625 0.203125 1 23 1.000000
  23 6.656338 -10.490021 -3.441233 0.846770 -0.085845 0.524986 0.546875 0.203125 1 23 1.000000
  24 6.328588 -19.104431 -3.646531 0.848002 -0.088535 0.522546 0.554688 0.113281 1 24 1.000000
wizard
  23 5.219671 -10.480078 -6.295459 0.042867 -0.086869 -0.995297 0.515625 0.203125 1 23 1.000000
  24 6.328588 -19.104431 -3.646531 0.848002 -0.088535 0.522546 0.554688 0.113281 1 24 1.000000
  24 5.201931 -19.096634 -5.884862 0.033348 -0.093608 -0.995050 0.527344 0.113281 1 24 1.000000
wizard
  1 2.856102 -4.142995 -2.717803 -0.037129 -0.973676 0.224890 0.585938 0.273438 3 1 0.883464 23 0.114918 22 0.001618
  23 5.373636 -2.553403 -7.742322 0.616514 -0.766582 -0.179615 0.648438 0.281250 3 23 0.760303 42 0.239686 22 0.000011
  23 5.219671 -10.480078 -6.295459 0.042867 -0.086869 -0.995297 0.617188 0.203125 1 23 1.000000
wizard
  1 2.856102 -4.142995 -2.717803 -0.037129 -0.973676 0.224890 0.585938 0.273438 3 1 0.883464 23 0.114918 22 0.001618
  23 5.219671 -10.480078 -6.295459 0.042867 -0.086869 -0.995297 0.617188 0.203125 1 23 1.000000
  23 3.536358 -10.497013 -3.441233 -0.861082 -0.099059 0.498723 0.582031 0.203125 1 23 1.000000
wizard
  1 7.182630 -0.759611 -2.717803 0.987648 -0.138099 0.074034 0.539062 0.308594 3 1 0.565640 23 0.428205 15 0.006155
  1 2.856102 -4.142995 -2.717803 -0.037129 -0.973676 0.224890 0.585938 0.273438 3 1 0.883464 23 0.114918 22 0.001618
  23 3.536358 -10.497013 -3.441233 -0.861082 -0.099059 0.498723 0.582031 0.203125 1 23 1.000000
wizard
  1 7.182630 -0.759611 -2.717803 0.987648 -0.138099 0.074034 0.539062 0.308594 3 1 0.565640 23 0.428205 15 0.006155
  23 3.536358 -10.497013 -3.441233 -0.861082 -0.099059 0.498723 0.582031 0.203125 1 23 1.000000
  23 6.656338 -10.490021 -3.441233 0.846770 -0.085845 0.524986 0.546875 0.203125 1 23 1.000000
wizard
  24 5.201931 -19.096634 -5.884862 0.033348 -0.093608 -0.995050 0.527344 0.113281 1 24 1.000000
  24 6.328588 -19.104431 -3.646531 0.848002 -0.088535 0.522546 0.554688 0.113281 1 24 1.000000
  25 5.137455 -29.316124 -4.392643 -0.000008 -1.000000 -0.000087 0.566406 0.007812 2 25 0.878618 24 0.121382
wizard
  23 6.656338 -10.490021 -3.441233 0.846770 -0.085845 0.524986 0.546875 0.203125 1 23 1.000000
  23 3.536358 -10.497013 -3.441233 -0.861082 -0.099059 0.498723 0.582031 0.203125 1 23 1.000000
  24 3.881848 -19.109913 -3.646531 -0.864519 -0.091951 0.494117 0.578125 0.113281 1 24 1.000000
wizard
  23 6.656338 -10.490021 -3.441233 0.846770 -0.085845 0.524986 0.546875 0.203125 1 23 1.000000
  24 3.881848 -19.109913 -3.646531 -0.864519 -0.091951 0.494117 0.578125 0.113281 1 24 1.000000
  24 6.328588 -19.104431 -3.646531 0.848002 -0.088535 0.522546 0.554688 0.113281 1 24 1.000000
wizard
  23 3.536358 -10.497013 -3.441233 -0.861082 -0.099059 0.498723 0.582031 0.203125 1 23 1.000000
  23 5.219671 -10.480078 -6.295459 0.042867 -0.086869 -0.995297 0.617188 0.203125 1 23 1.000000
  24 5.201931 -19.096634 -5.884862 0.033348 -0.093608 -0.995050 0.605469 0.113281 1 24 1.000000
wizard
  23 3.536358 -10.497013 -3.441233 -0.861082 -0.099059 0.498723 0.582031 0.203125 1 23 1.000000
  24 5.201931 -19.096634 -5.884862 0.033348 -0.093608 -0.995050 0.605469 0.113281 1 24 1.000000
  24 3.881848 -19.109913 -3.646531 -0.864519 -0.091951 0.494117 0.578125 0.113281 1 24 1.000000
wizard
  3 4.584839 -5.345603 18.182991 0.492339 -0.849714 0.188648 0.355469 0.554688 3 3 0.783256 18 0.130350 14 0.086394
  15 7.563422 -1.599952 9.658240 0.517148 -0.817959 -0.251992 0.386719 0.625000 3 15 0.799771 18 0.110976 14 0.089254
  18 6.865198 -2.035078 13.390126 0.711168 -0.592074 0.379063 0.386719 0.593750 4 18 0.669631 15 0.134544 14 0.106739 3 0.089086
wizard
  24 6.328588 -19.104431 -3.646531 0.848002 -0.088535 0.522546 0.554688 0.113281 1 24 1.000000
  24 3.881848 -19.109913 -3.646531 -0.864519 -0.091951 0.494117 0.578125 0.113281 1 24 1.000000
  25 5.137455 -29.316124 -4.392643 -0.000008 -1.000000 -0.000087 0.566406 0.007812 2 25 0.878618 24 0.121382
wizard
  24 3.881848 -19.109913 -3.646531 -0.864519 -0.091951 0.494117 0.578125 0.113281 1 24 1.000000
  24 5.201931 -19.096634 -5.884862 0.033348 -0.093608 -0.995050 0.605469 0.113281 1 24 1.000000
  25 5.137455 -29.316124 -4.392643 -0.000008 -1.000000 -0.000087 0.566406 0.007812 2 25 0.878618 24 0.121382
wizard
  3 4.584839 -5.345603 18.182991 0.492339 -0.849714 0.188648 0.355469 0.554688 3 3 0.783256 18 0.130350 14 0.086394
  18 6.865198 -2.035078 13.390126 0.711168 -0.592074 0.379063 0.386719 0.593750 4 18 0.669631 15 0.134544 14 0.106739 3 0.089086
  14 7.712678 1.160931 13.533259 0.890995 0.039767 0.452269 0.414062 0.585938 3 14 0.758882 15 0.134134 18 0.106984
wizard
  18 9.680206 0.822169 13.811603 0.030400 0.868662 0.494472 0.746094 0.343750 3 18 0.876420 14 0.074453 19 0.049127
  18 9.687202 -2.525624 13.888358 -0.067916 -0.767433 0.637522 0.773438 0.343750 2 18 0.544912 19 0.455088
  20 20.988483 -1.902410 13.585234 0.049319 -0.795786 0.603566 0.773438 0.226562 2 20 0.504093 19 0.495907
wizard
  18 9.680206 0.822169 13.811603 0.030400 0.868662 0.494472 0.746094 0.343750 3 18 0.876420 14 0.074453 19 0.049127
  20 20.988483 -1.902410 13.585234 0.049319 -0.795786 0.603566 0.773438 0.226562 2 20 0.504093 19 0.495907
  20 20.983990 0.247108 13.535951 0.012009 0.865943 0.499998 0.750000 0.226562 2 20 0.888851 19 0.111149
wizard
  18 6.865198 -2.035078 13.390126 0.711168 -0.592074 0.379063 0.773438 0.367188 4 18 0.669631 15 0.134544 14 0.106739 3 0.089086
  15 7.563422 -1.599952 9.658240 0.517148 -0.817959 -0.251992 0.804688 0.367188 3 15 0.799771 18 0.110976 14 0.089254
  18 9.711496 -1.950777 10.464911 0.142358 -0.316371 -0.937893 0.804688 0.343750 3 18 0.917164 15 0.047079 19 0.035756
wizard
  18 6.865198 -2.035078 13.390126 0.711168 -0.592074 0.379063 0.773438 0.367188 4 18 0.669631 15 0.134544 14 0.106739 3 0.089086
  18 9.711496 -1.950777 10.464911 0.142358 -0.316371 -0.937893 0.804688 0.343750 3 18 0.917164 15 0.047079 19 0.035756
  18 9.687202 -2.525624 13.888358 -0.067916 -0.767433 0.637522 0.773438 0.343750 2 18 0.544912 19 0.455088
wizard
  14 7.712678 1.160931 13.533259 0.890995 0.039767 0.452269 0.746094 0.367188 3 14 0.758882 15 0.134134 18 0.106984
  18 9.680206 0.822169 13.811603 0.030400 0.868662 0.494472 0.746094 0.343750 3 18 0.876420 14 0.074453 19 0.049127
  18 9.711496 -1.950777 10.464911 0.142358 -0.316371 -0.937893 0.718750 0.343750 3 18 0.917164 15 0.047079 19 0.035756
wizard
  20 20.983990 0.247108 13.535951 0.012009 0.865943 0.499998 0.750000 0.226562 2 20 0.888851 19 0.111149
  20 20.988483 -1.902410 13.585234 0.049319 -0.795786 0.603566 0.773438 0.226562 2 20 0.504093 19 0.495907
  20 33.499336 -1.677240 13.594969 0.068506 -0.809977 0.582447 0.769531 0.093750 1 20 1.000000
wizard
  20 20.983990 0.247108 13.535951 0.012009 0.865943 0.499998 0.750000 0.226562 2 20 0.888851 19 0.111149
  20 33.499336 -1.677240 13.594969 0.068506 -0.809977 0.582447 0.769531 0.093750 1 20 1.000000
  20 33.495659 0.083258 13.554605 0.064706 0.842713 0.534460 0.753906 0.093750 1 20 1.000000
wizard
  18 9.711496 -1.950777 10.464911 0.142358 -0.316371 -0.937893 0.718750 0.343750 3 18 0.917164 15 0.047079 19 0.035756
  18 9.680206 0.822169 13.811603 0.030400 0.868662 0.494472 0.746094 0.343750 3 18 0.876420 14 0.074453 19 0.049127
  20 20.983990 0.247108 13.535951 0.012009 0.865943 0.499998 0.750000 0.226562 2 20 0.888851 19 0.111149
wizard
  18 9.711496 -1.950777 10.464911 0.142358 -0.316371 -0.937893 0.718750 0.343750 3 18 0.917164 15 0.047079 19 0.035756
  20 20.983990 0.247108 13.535951 0.012009 0.865943 0.499998 0.750000 0.226562 2 20 0.888851 19 0.111149
  19 21.004080 -0.926601 10.921241 0.056571 -0.079496 -0.995229 0.718750 0.226562 2 19 0.909643 20 0.090357
wizard
  18 9.687202 -2.525624 13.888358 -0.067916 -0.767433 0.637522 0.773438 0.343750 2 18 0.544912 19 0.455088
  18 9.711496 -1.950777 10.464911 0.142358 -0.316371 -0.937893 0.804688 0.343750 3 18 0.917164 15 0.047079 19 0.035756
  19 21.004080 -0.926601 10.921241 0.056571 -0.079496 -0.995229 0.804688 0.226562 2 19 0.909643 20 0.090357
wizard
  18 9.687202 -2.525624 13.888358 -0.067916 -0.767433 0.637522 0.773438 0.343750 2 18 0.544912 19 0.455088
  19 21.004080 -0.926601 10.921241 0.056571 -0.079496 -0.995229 0.804688 0.226562 2 19 0.909643 20 0.090357
  20 20.988483 -1.902410 13.585234 0.049319 -0.795786 0.603566 0.773438 0.226562 2 20 0.504093 19 0.495907
wizard
  20 33.495659 0.083258 13.554605 0.064706 0.842713 0.534460 0.753906 0.093750 1 20 1.000000
  20 33.499336 -1.677240 13.594969 0.068506 -0.809977 0.582447 0.769531 0.093750 1 20 1.000000
  21 41.802990 -0.791161 13.009679 0.999826 0.003936 0.018256 0.761719 0.007812 2 21 0.968038 20 0.031962
wizard
  19 21.004080 -0.926601 10.921241 0.056571 -0.079496 -0.995229 0.718750 0.226562 2 19 0.909643 20 0.090357
  20 20.983990 0.247108 13.535951 0.012009 0.865943 0.499998 0.750000 0.226562 2 20 0.888851 19 0.111149
  20 33.495659 0.083258 13.554605 0.064706 0.842713 0.534460 0.753906 0.093750 1 20 1.000000
wizard
  19 21.004080 -0.926601 10.921241 0.056571 -0.079496 -0.995229 0.718750 0.226562 2 19 0.909643 20 0.090357
  20 33.495659 0.083258 13.554605 0.064706 0.842713 0.534460 0.753906 0.093750 1 20 1.000000
  20 33.512104 -0.878033 11.413106 0.110207 -0.035200 -0.993285 0.722656 0.093750 1 20 1.000000
wizard
  20 20.988483 -1.902410 13.585234 0.049319 -0.795786 0.603566 0.773438 0.226562 2 20 0.504093 19 0.495907
  19 21.004080 -0.926601 10.921241 0.056571 -0.079496 -0.995229 0.804688 0.226562 2 19 0.909643 20 0.090357
  20 33.512104 -0.878033 11.413106 0.110207 -0.035200 -0.993285 0.804688 0.093750 1 20 1.000000
wizard
  20 20.988483 -1.902410 13.585234 0.049319 -0.795786 0.603566 0.773438 0.226562 2 20 0.504093 19 0.495907
  20 33.512104 -0.878033 11.413106 0.110207 -0.035200 -0.993285 0.804688 0.093750 1 20 1.000000
  20 33.499336 -1.677240 13.594969 0.068506 -0.809977 0.582447 0.769531 0.093750 1 20 1.000000
wizard
  15 7.563422 -1.599952 9.658240 0.517148 -0.817959 -0.251992 0.718750 0.367188 3 15 0.799771 18 0.110976 14 0.089254
  14 7.712678 1.160931 13.533259 0.890995 0.039767 0.452269 0.746094 0.367188 3 14 0.758882 15 0.134134 18 0.106984
  18 9.711496 -1.950777 10.464911 0.142358 -0.316371 -0.937893 0.718750 0.343750 3 18 0.917164 15 0.047079 19 0.035756
wizard
  20 33.512104 -0.878033 11.413106 0.110207 -0.035200 -0.993285 0.722656 0.093750 1 20 1.000000
  20 33.495659 0.083258 13.554605 0.064706 0.842713 0.534460 0.753906 0.093750 1 20 1.000000
  21 41.802990 -0.791161 13.009679 0.999826 0.003936 0.018256 0.761719 0.007812 2 21 0.968038 20 0.031962
wizard
  20 33.499336 -1.677240 13.594969 0.068506 -0.809977 0.582447 0.769531 0.093750 1 20 1.000000
  20 33.512104 -0.878033 11.413106 0.110207 -0.035200 -0.993285 0.804688 0.093750 1 20 1.000000
  21 41.802990 -0.791161 13.009679 0.999826 0.003936 0.018256 0.761719 0.007812 2 21 0.968038 20 0.031962
end
