version 1
nodes
0 "v0" -1
1 "v1" -1
2 "v2" -1
3 "v3" -1
4 "v4" -1
5 "v5" -1
6 "v6" -1
7 "v7" -1
8 "v8" -1
9 "v9" -1
10 "v10" -1
11 "v11" -1
12 "v12" -1
13 "v13" -1
14 "v14" -1
15 "v15" -1
16 "v16" -1
17 "v17" -1
18 "v18" -1
19 "v19" -1
20 "v20" -1
21 "v21" -1
22 "v22" -1
23 "v23" -1
24 "v24" -1
25 "v25" -1
26 "v26" -1
27 "v27" -1
28 "v28" -1
29 "v29" -1
30 "v30" -1
31 "v31" -1
32 "v32" -1
33 "v33" -1
34 "v34" -1
35 "v35" -1
36 "v36" -1
37 "v37" -1
38 "v38" -1
39 "v39" -1
40 "v40" -1
41 "v41" -1
42 "v42" -1
43 "v43" -1
44 "v44" -1
45 "v45" -1
46 "v46" -1
47 "v47" -1
48 "v48" -1
49 "v49" -1
50 "v50" -1
51 "v51" -1
52 "v52" -1
53 "v53" -1
54 "v54" -1
55 "v55" -1
56 "v56" -1
57 "v57" -1
58 "v58" -1
59 "v59" -1
60 "v60" -1
61 "v61" -1
62 "v62" -1
63 "v63" -1
64 "v64" -1
65 "v65" -1
66 "v66" -1
67 "v67" -1
68 "v68" -1
end
skeleton
  time 0
  0 0.000000 0.636294 2.000000 0.000000 -0.000000 0.000000
  1 0.735276 -0.226376 2.000000 0.000000 -0.000000 0.000000
  2 0.000000 -1.089045 2.000000 0.000000 -0.000000 0.000000
  3 -0.735276 -0.226376 2.000000 0.000000 -0.000000 0.000000
  4 0.170032 3.299791 7.968146 0.000000 -0.000000 0.000000
  5 2.893054 0.104983 7.968146 0.000000 -0.000000 0.000000
  6 0.170032 -3.586458 9.187259 0.000000 -0.000000 0.000000
  7 -2.627689 0.104983 9.119530 0.000000 -0.000000 0.000000
  8 -0.176942 -0.628089 16.082914 0.000000 -0.000000 0.000000
  9 -0.213706 -0.584956 16.082914 0.000000 -0.000000 0.000000
  10 -0.176942 -0.541823 16.082914 0.000000 -0.000000 0.000000
  11 -0.140179 -0.584956 16.082914 0.000000 -0.000000 0.000000
  12 -1.470553 -0.226376 2.000000 0.000000 -0.000000 0.000000
  13 0.000000 1.498963 2.000000 0.000000 -0.000000 0.000000
  14 1.470553 -0.226376 2.000000 0.000000 -0.000000 0.000000
  15 0.000000 -1.951715 2.000000 0.000000 -0.000000 0.000000
  16 -3.417190 -0.550408 5.185248 0.000000 -0.000000 0.000000
  17 -0.156103 3.363332 4.000000 0.000000 -0.000000 0.000000
  18 -0.156103 -4.318080 4.914334 0.000000 -0.000000 0.000000
  19 3.179684 -0.550408 4.000000 0.000000 -0.000000 0.000000
  20 -0.176942 -0.498689 16.976931 0.000000 -0.000000 0.000000
  21 -0.103415 -0.584956 16.976931 0.000000 -0.000000 0.000000
  22 -0.176942 -0.671223 16.976931 0.000000 -0.000000 0.000000
  23 -0.250470 -0.584956 16.976931 0.000000 -0.000000 0.000000
  24 -2.915521 0.710515 11.502472 0.000000 -0.000000 0.000000
  25 -2.861005 0.093794 11.397922 0.000000 -0.000000 0.000000
  26 -2.970037 0.305283 11.978983 0.000000 -0.000000 0.000000
  27 -2.451413 0.397853 11.703358 0.000000 -0.000000 0.000000
  28 -2.994513 0.235459 4.778922 0.000000 -0.000000 0.000000
  29 -2.902882 -0.801129 4.603193 0.000000 -0.000000 0.000000
  30 -3.086143 -0.445657 5.579843 0.000000 -0.000000 0.000000
  31 -2.214438 -0.290065 5.116572 0.000000 -0.000000 0.000000
  32 -0.172663 -1.578168 6.559610 0.000000 -0.000000 0.000000
  33 -0.113322 -2.249470 6.445807 0.000000 -0.000000 0.000000
  34 -0.232004 -2.019264 7.078293 0.000000 -0.000000 0.000000
  35 0.332519 -1.918501 6.778275 0.000000 -0.000000 0.000000
  36 2.040665 -0.937388 11.535877 0.000000 -0.000000 0.000000
  37 2.125321 -1.895075 11.373524 0.000000 -0.000000 0.000000
  38 1.956009 -1.566660 12.275836 0.000000 -0.000000 0.000000
  39 2.761364 -1.422911 11.847827 0.000000 -0.000000 0.000000
  40 0.021328 -0.205622 -14.142980 0.000000 -0.000000 0.000000
  41 0.039353 1.905962 -0.557580 0.000000 -0.000000 0.000000
  42 0.039353 2.054666 2.024324 0.000000 -0.000000 0.000000
  43 1.858139 0.852981 -0.557580 0.000000 -0.000000 0.000000
  44 1.986565 0.927333 2.024324 0.000000 -0.000000 0.000000
  45 1.858139 -1.252981 -0.557580 0.000000 -0.000000 0.000000
  46 1.986565 -1.327333 2.024324 0.000000 -0.000000 0.000000
  47 0.039353 -2.305962 -0.557580 0.000000 -0.000000 0.000000
  48 0.039353 -2.454666 2.024324 0.000000 -0.000000 0.000000
  49 -1.779432 -1.252981 -0.557580 0.000000 -0.000000 0.000000
  50 -1.907858 -1.327333 2.024324 0.000000 -0.000000 0.000000
  51 -1.779432 0.852981 -0.557580 0.000000 -0.000000 0.000000
  52 -1.907858 0.927333 2.024324 0.000000 -0.000000 0.000000
  53 0.039353 2.331588 -3.257580 0.000000 -0.000000 0.000000
  54 2.225725 1.065794 -3.257580 0.000000 -0.000000 0.000000
  55 2.225725 -1.465794 -3.257580 0.000000 -0.000000 0.000000
  56 0.039353 -2.731588 -3.257580 0.000000 -0.000000 0.000000
  57 -2.147018 -1.465794 -3.257580 0.000000 -0.000000 0.000000
  58 -2.147018 1.065794 -3.257580 0.000000 -0.000000 0.000000
  59 0.039353 1.162195 -7.016099 0.000000 -0.000000 0.000000
  60 1.215795 0.481097 -7.016099 0.000000 -0.000000 0.000000
  61 1.215795 -0.881097 -7.016099 0.000000 -0.000000 0.000000
  62 0.039353 -1.562195 -7.016099 0.000000 -0.000000 0.000000
  63 -1.137088 -0.881097 -7.016099 0.000000 -0.000000 0.000000
  64 -1.137088 0.481097 -7.016099 0.000000 -0.000000 0.000000
  65 -0.789285 -0.998046 -7.017671 0.000000 -0.000000 0.000000
  66 -0.789285 0.603297 -7.017671 0.000000 -0.000000 0.000000
  67 0.812059 0.603297 -7.017671 0.000000 -0.000000 0.000000
  68 0.812059 -0.998046 -7.017671 0.000000 -0.000000 0.000000
  time 1
  0 0.000000 1.498963 2.000000 0.000000 -0.000000 0.000000
  1 1.470553 -0.226376 2.000000 0.000000 -0.000000 0.000000
  2 0.000000 -1.951715 2.000000 0.000000 -0.000000 0.000000
  3 -1.470553 -0.226376 2.000000 0.000000 -0.000000 0.000000
  4 0.172921 -0.460944 17.342663 0.000000 -0.000000 0.000000
  5 0.246449 -0.547211 17.342663 0.000000 -0.000000 0.000000
  6 0.172921 -0.633478 17.342663 0.000000 -0.000000 0.000000
  7 0.099393 -0.547211 17.342663 0.000000 -0.000000 0.000000
  8 0.000000 -1.089045 2.000000 0.000000 -0.000000 0.000000
  9 -0.735276 -0.226376 2.000000 0.000000 -0.000000 0.000000
  10 0.000000 0.636294 2.000000 0.000000 -0.000000 0.000000
  11 0.735276 -0.226376 2.000000 0.000000 -0.000000 0.000000
  12 -3.650557 -0.465878 4.000000 0.000000 -0.000000 0.000000
  13 0.180118 4.028495 4.000000 0.000000 -0.000000 0.000000
  14 3.189108 -0.465878 3.898407 0.000000 -0.000000 0.000000
  15 0.180118 -4.989463 5.456162 0.000000 -0.000000 0.000000
  16 -3.169190 0.033977 9.126303 0.000000 -0.000000 0.000000
  17 -0.256489 3.480543 7.399228 0.000000 -0.000000 0.000000
  18 -0.256489 -3.529443 9.803589 0.000000 -0.000000 0.000000
  19 3.477899 0.033977 7.636277 0.000000 -0.000000 0.000000
  20 0.172921 -0.504077 17.342663 0.000000 -0.000000 0.000000
  21 0.209685 -0.547211 17.342663 0.000000 -0.000000 0.000000
  22 0.172921 -0.590344 17.342663 0.000000 -0.000000 0.000000
  23 0.136157 -0.547211 17.342663 0.000000 -0.000000 0.000000
  24 -2.807760 0.969412 16.830370 0.000000 -0.000000 0.000000
  25 -2.764318 0.477971 16.747059 0.000000 -0.000000 0.000000
  26 -2.851202 0.646498 17.210083 0.000000 -0.000000 0.000000
  27 -2.437931 0.720264 16.990450 0.000000 -0.000000 0.000000
  28 -2.894562 3.466094 9.817421 0.000000 -0.000000 0.000000
  29 -2.810336 2.513274 9.655893 0.000000 -0.000000 0.000000
  30 -2.978789 2.840019 10.553619 0.000000 -0.000000 0.000000
  31 -2.177526 2.983038 10.127786 0.000000 -0.000000 0.000000
  32 3.212513 -1.123859 7.531115 0.000000 -0.000000 0.000000
  33 3.291422 -2.016525 7.379784 0.000000 -0.000000 0.000000
  34 3.133604 -1.710408 8.220835 0.000000 -0.000000 0.000000
  35 3.884281 -1.576418 7.821886 0.000000 -0.000000 0.000000
  36 1.810030 -0.500189 15.179930 0.000000 -0.000000 0.000000
  37 1.879433 -1.285315 15.046830 0.000000 -0.000000 0.000000
  38 1.740628 -1.016076 15.786558 0.000000 -0.000000 0.000000
  39 2.400869 -0.898228 15.435671 0.000000 -0.000000 0.000000
  40 0.021328 -0.205622 -14.142980 0.000000 -0.000000 0.000000
  41 0.039353 1.905962 -0.557580 0.000000 -0.000000 0.000000
  42 0.039353 2.054666 2.024324 0.000000 -0.000000 0.000000
  43 1.858139 0.852981 -0.557580 0.000000 -0.000000 0.000000
  44 1.986565 0.927333 2.024324 0.000000 -0.000000 0.000000
  45 1.858139 -1.252981 -0.557580 0.000000 -0.000000 0.000000
  46 1.986565 -1.327333 2.024324 0.000000 -0.000000 0.000000
  47 0.039353 -2.305962 -0.557580 0.000000 -0.000000 0.000000
  48 0.039353 -2.454666 2.024324 0.000000 -0.000000 0.000000
  49 -1.779432 -1.252981 -0.557580 0.000000 -0.000000 0.000000
  50 -1.907858 -1.327333 2.024324 0.000000 -0.000000 0.000000
  51 -1.779432 0.852981 -0.557580 0.000000 -0.000000 0.000000
  52 -1.907858 0.927333 2.024324 0.000000 -0.000000 0.000000
  53 0.039353 2.331588 -3.257580 0.000000 -0.000000 0.000000
  54 2.225725 1.065794 -3.257580 0.000000 -0.000000 0.000000
  55 2.225725 -1.465794 -3.257580 0.000000 -0.000000 0.000000
  56 0.039353 -2.731588 -3.257580 0.000000 -0.000000 0.000000
  57 -2.147018 -1.465794 -3.257580 0.000000 -0.000000 0.000000
  58 -2.147018 1.065794 -3.257580 0.000000 -0.000000 0.000000
  59 0.039353 1.162195 -7.016099 0.000000 -0.000000 0.000000
  60 1.215795 0.481097 -7.016099 0.000000 -0.000000 0.000000
  61 1.215795 -0.881097 -7.016099 0.000000 -0.000000 0.000000
  62 0.039353 -1.562195 -7.016099 0.000000 -0.000000 0.000000
  63 -1.137088 -0.881097 -7.016099 0.000000 -0.000000 0.000000
  64 -1.137088 0.481097 -7.016099 0.000000 -0.000000 0.000000
  65 -0.789285 -0.998046 -7.017671 0.000000 -0.000000 0.000000
  66 -0.789285 0.603297 -7.017671 0.000000 -0.000000 0.000000
  67 0.812059 0.603297 -7.017671 0.000000 -0.000000 0.000000
  68 0.812059 -0.998046 -7.017671 0.000000 -0.000000 0.000000
  time 2
  0 0.264174 3.771026 4.000000 0.000000 -0.000000 0.000000
  1 2.815325 -0.127757 3.932271 0.000000 -0.000000 0.000000
  2 0.264174 -4.026540 4.000000 0.000000 -0.000000 0.000000
  3 -3.058865 -0.127757 4.000000 0.000000 -0.000000 0.000000
  4 0.410185 -0.117188 18.968147 0.000000 -0.000000 0.000000
  5 0.446948 -0.160321 18.968147 0.000000 -0.000000 0.000000
  6 0.410185 -0.203455 18.968147 0.000000 -0.000000 0.000000
  7 0.373421 -0.160321 18.968147 0.000000 -0.000000 0.000000
  8 0.000000 -1.951715 2.000000 0.000000 -0.000000 0.000000
  9 -1.470553 -0.226376 2.000000 0.000000 -0.000000 0.000000
  10 0.000000 1.498963 2.000000 0.000000 -0.000000 0.000000
  11 1.470553 -0.226376 2.000000 0.000000 -0.000000 0.000000
  12 -3.194071 -0.327812 7.846235 0.000000 -0.000000 0.000000
  13 -0.389056 2.963196 7.846235 0.000000 -0.000000 0.000000
  14 3.138047 -0.327812 8.320334 0.000000 -0.000000 0.000000
  15 -0.389056 -3.618820 7.846235 0.000000 -0.000000 0.000000
  16 0.336657 -0.160321 18.968147 0.000000 -0.000000 0.000000
  17 0.410185 -0.074054 18.968147 0.000000 -0.000000 0.000000
  18 0.410185 -0.246588 18.968147 0.000000 -0.000000 0.000000
  19 0.483712 -0.160321 18.968147 0.000000 -0.000000 0.000000
  20 0.000000 0.636294 2.000000 0.000000 -0.000000 0.000000
  21 0.735276 -0.226376 2.000000 0.000000 -0.000000 0.000000
  22 0.000000 -1.089045 2.000000 0.000000 -0.000000 0.000000
  23 -0.735276 -0.226376 2.000000 0.000000 -0.000000 0.000000
  24 -1.085617 0.165552 21.836285 0.000000 -0.000000 0.000000
  25 -1.015575 -0.626815 21.701958 0.000000 -0.000000 0.000000
  26 -1.155660 -0.355093 22.448509 0.000000 -0.000000 0.000000
  27 -0.489329 -0.236158 22.094383 0.000000 -0.000000 0.000000
  28 -2.959542 4.442243 16.679840 0.000000 -0.000000 0.000000
  29 -2.879135 3.532626 16.525637 0.000000 -0.000000 0.000000
  30 -3.039949 3.844555 17.382658 0.000000 -0.000000 0.000000
  31 -2.275018 3.981090 16.976131 0.000000 -0.000000 0.000000
  32 3.666084 -0.241338 11.729348 0.000000 -0.000000 0.000000
  33 3.721575 -0.869092 11.622928 0.000000 -0.000000 0.000000
  34 3.610593 -0.653820 12.214384 0.000000 -0.000000 0.000000
  35 4.138494 -0.559594 11.933828 0.000000 -0.000000 0.000000
  36 1.249218 -0.733101 19.031178 0.000000 -0.000000 0.000000
  37 1.329625 -1.642718 18.876976 0.000000 -0.000000 0.000000
  38 1.168811 -1.330788 19.733997 0.000000 -0.000000 0.000000
  39 1.933742 -1.194254 19.327469 0.000000 -0.000000 0.000000
  40 0.021328 -0.205622 -14.142980 0.000000 -0.000000 0.000000
  41 0.039353 1.905962 -0.557580 0.000000 -0.000000 0.000000
  42 0.039353 2.054666 2.024324 0.000000 -0.000000 0.000000
  43 1.858139 0.852981 -0.557580 0.000000 -0.000000 0.000000
  44 1.986565 0.927333 2.024324 0.000000 -0.000000 0.000000
  45 1.858139 -1.252981 -0.557580 0.000000 -0.000000 0.000000
  46 1.986565 -1.327333 2.024324 0.000000 -0.000000 0.000000
  47 0.039353 -2.305962 -0.557580 0.000000 -0.000000 0.000000
  48 0.039353 -2.454666 2.024324 0.000000 -0.000000 0.000000
  49 -1.779432 -1.252981 -0.557580 0.000000 -0.000000 0.000000
  50 -1.907858 -1.327333 2.024324 0.000000 -0.000000 0.000000
  51 -1.779432 0.852981 -0.557580 0.000000 -0.000000 0.000000
  52 -1.907858 0.927333 2.024324 0.000000 -0.000000 0.000000
  53 0.039353 2.331588 -3.257580 0.000000 -0.000000 0.000000
  54 2.225725 1.065794 -3.257580 0.000000 -0.000000 0.000000
  55 2.225725 -1.465794 -3.257580 0.000000 -0.000000 0.000000
  56 0.039353 -2.731588 -3.257580 0.000000 -0.000000 0.000000
  57 -2.147018 -1.465794 -3.257580 0.000000 -0.000000 0.000000
  58 -2.147018 1.065794 -3.257580 0.000000 -0.000000 0.000000
  59 0.039353 1.162195 -7.016099 0.000000 -0.000000 0.000000
  60 1.215795 0.481097 -7.016099 0.000000 -0.000000 0.000000
  61 1.215795 -0.881097 -7.016099 0.000000 -0.000000 0.000000
  62 0.039353 -1.562195 -7.016099 0.000000 -0.000000 0.000000
  63 -1.137088 -0.881097 -7.016099 0.000000 -0.000000 0.000000
  64 -1.137088 0.481097 -7.016099 0.000000 -0.000000 0.000000
  65 -0.789285 -0.998046 -7.017671 0.000000 -0.000000 0.000000
  66 -0.789285 0.603297 -7.017671 0.000000 -0.000000 0.000000
  67 0.812059 0.603297 -7.017671 0.000000 -0.000000 0.000000
  68 0.812059 -0.998046 -7.017671 0.000000 -0.000000 0.000000
  time 3
  0 -0.129685 2.268635 8.902799 0.000000 -0.000000 0.000000
  1 2.986177 -0.598309 9.038256 0.000000 -0.000000 0.000000
  2 -0.129685 -3.465252 8.902799 0.000000 -0.000000 0.000000
  3 -2.573259 -0.598308 8.902799 0.000000 -0.000000 0.000000
  4 0.000000 0.636294 2.000000 0.000000 -0.000000 0.000000
  5 0.735276 -0.226376 2.000000 0.000000 -0.000000 0.000000
  6 0.000000 -1.089045 2.000000 0.000000 -0.000000 0.000000
  7 -0.735276 -0.226376 2.000000 0.000000 -0.000000 0.000000
  8 0.408268 -3.353021 4.000000 0.000000 -0.000000 0.000000
  9 -2.532837 0.097657 4.000000 0.000000 -0.000000 0.000000
  10 0.408268 3.226985 5.354569 0.000000 -0.000000 0.000000
  11 2.901182 0.097657 3.898407 0.000000 -0.000000 0.000000
  12 0.175800 0.056714 19.984074 0.000000 -0.000000 0.000000
  13 0.249328 0.142981 19.984074 0.000000 -0.000000 0.000000
  14 0.322855 0.056714 19.984074 0.000000 -0.000000 0.000000
  15 0.249328 -0.029553 19.984074 0.000000 -0.000000 0.000000
  16 0.212564 0.056714 19.984074 0.000000 -0.000000 0.000000
  17 0.249328 0.099848 19.984074 0.000000 -0.000000 0.000000
  18 0.249328 0.013580 19.984074 0.000000 -0.000000 0.000000
  19 0.286092 0.056714 19.984074 0.000000 -0.000000 0.000000
  20 0.000000 1.498963 2.000000 0.000000 -0.000000 0.000000
  21 1.470553 -0.226376 2.000000 0.000000 -0.000000 0.000000
  22 0.000000 -1.951715 2.000000 0.000000 -0.000000 0.000000
  23 -1.470553 -0.226376 2.000000 0.000000 -0.000000 0.000000
  24 -0.068300 -0.179383 25.987841 0.000000 -0.000000 0.000000
  25 -0.054617 -0.334171 25.961601 0.000000 -0.000000 0.000000
  26 -0.081983 -0.281090 26.107439 0.000000 -0.000000 0.000000
  27 0.048185 -0.257857 26.038261 0.000000 -0.000000 0.000000
  28 -2.504965 2.980559 21.010162 0.000000 -0.000000 0.000000
  29 -2.491282 2.825771 20.983921 0.000000 -0.000000 0.000000
  30 -2.518648 2.878852 21.129761 0.000000 -0.000000 0.000000
  31 -2.388480 2.902085 21.060583 0.000000 -0.000000 0.000000
  32 3.239882 -0.393198 20.275398 0.000000 -0.000000 0.000000
  33 3.253565 -0.547986 20.249157 0.000000 -0.000000 0.000000
  34 3.226199 -0.494905 20.394997 0.000000 -0.000000 0.000000
  35 3.356367 -0.471672 20.325819 0.000000 -0.000000 0.000000
  36 1.096344 -0.047337 23.877123 0.000000 -0.000000 0.000000
  37 1.121762 -0.334876 23.828379 0.000000 -0.000000 0.000000
  38 1.070927 -0.236272 24.099289 0.000000 -0.000000 0.000000
  39 1.312728 -0.193112 23.970783 0.000000 -0.000000 0.000000
  40 0.021328 -0.205622 -14.142980 0.000000 -0.000000 0.000000
  41 0.039353 1.905962 -0.557580 0.000000 -0.000000 0.000000
  42 0.039353 2.054666 2.024324 0.000000 -0.000000 0.000000
  43 1.858139 0.852981 -0.557580 0.000000 -0.000000 0.000000
  44 1.986565 0.927333 2.024324 0.000000 -0.000000 0.000000
  45 1.858139 -1.252981 -0.557580 0.000000 -0.000000 0.000000
  46 1.986565 -1.327333 2.024324 0.000000 -0.000000 0.000000
  47 0.039353 -2.305962 -0.557580 0.000000 -0.000000 0.000000
  48 0.039353 -2.454666 2.024324 0.000000 -0.000000 0.000000
  49 -1.779432 -1.252981 -0.557580 0.000000 -0.000000 0.000000
  50 -1.907858 -1.327333 2.024324 0.000000 -0.000000 0.000000
  51 -1.779432 0.852981 -0.557580 0.000000 -0.000000 0.000000
  52 -1.907858 0.927333 2.024324 0.000000 -0.000000 0.000000
  53 0.039353 2.331588 -3.257580 0.000000 -0.000000 0.000000
  54 2.225725 1.065794 -3.257580 0.000000 -0.000000 0.000000
  55 2.225725 -1.465794 -3.257580 0.000000 -0.000000 0.000000
  56 0.039353 -2.731588 -3.257580 0.000000 -0.000000 0.000000
  57 -2.147018 -1.465794 -3.257580 0.000000 -0.000000 0.000000
  58 -2.147018 1.065794 -3.257580 0.000000 -0.000000 0.000000
  59 0.039353 1.162195 -7.016099 0.000000 -0.000000 0.000000
  60 1.215795 0.481097 -7.016099 0.000000 -0.000000 0.000000
  61 1.215795 -0.881097 -7.016099 0.000000 -0.000000 0.000000
  62 0.039353 -1.562195 -7.016099 0.000000 -0.000000 0.000000
  63 -1.137088 -0.881097 -7.016099 0.000000 -0.000000 0.000000
  64 -1.137088 0.481097 -7.016099 0.000000 -0.000000 0.000000
  65 -0.789285 -0.998046 -7.017671 0.000000 -0.000000 0.000000
  66 -0.789285 0.603297 -7.017671 0.000000 -0.000000 0.000000
  67 0.812059 0.603297 -7.017671 0.000000 -0.000000 0.000000
  68 0.812059 -0.998046 -7.017671 0.000000 -0.000000 0.000000
  time 4
  0 -0.016756 0.331707 21.000000 0.000000 -0.000000 0.000000
  1 0.056772 0.245440 21.000000 0.000000 -0.000000 0.000000
  2 -0.016756 0.159173 21.000000 0.000000 -0.000000 0.000000
  3 -0.090284 0.245440 21.000000 0.000000 -0.000000 0.000000
  4 0.000000 1.498963 2.000000 0.000000 -0.000000 0.000000
  5 1.470553 -0.226376 2.000000 0.000000 -0.000000 0.000000
  6 0.000000 -1.951715 2.000000 0.000000 -0.000000 0.000000
  7 -1.470553 -0.226376 2.000000 0.000000 -0.000000 0.000000
  8 -0.005764 -3.078118 10.000000 0.000000 -0.000000 0.000000
  9 -2.211593 -0.490110 10.000000 0.000000 -0.000000 0.000000
  10 -0.005764 2.097898 10.000000 0.000000 -0.000000 0.000000
  11 2.200066 -0.490110 10.000000 0.000000 -0.000000 0.000000
  12 -0.053520 0.245440 21.000000 0.000000 -0.000000 0.000000
  13 -0.016756 0.288574 21.000000 0.000000 -0.000000 0.000000
  14 0.020008 0.245440 21.000000 0.000000 -0.000000 0.000000
  15 -0.016756 0.202307 21.000000 0.000000 -0.000000 0.000000
  16 -0.735276 -0.226376 2.000000 0.000000 -0.000000 0.000000
  17 0.000000 0.636294 2.000000 0.000000 -0.000000 0.000000
  18 0.000000 -1.089045 2.000000 0.000000 -0.000000 0.000000
  19 0.735276 -0.226376 2.000000 0.000000 -0.000000 0.000000
  20 0.012008 3.421539 4.000000 0.000000 -0.000000 0.000000
  21 2.953114 -0.029139 4.000000 0.000000 -0.000000 0.000000
  22 0.012008 -3.479816 4.000000 0.000000 -0.000000 0.000000
  23 -2.929098 -0.029139 4.000000 0.000000 -0.000000 0.000000
  24 -0.210021 0.093539 4.556869 0.000000 -0.000000 0.000000
  25 -0.151746 -0.565713 4.445108 0.000000 -0.000000 0.000000
  26 -0.268297 -0.339639 5.066240 0.000000 -0.000000 0.000000
  27 0.286092 -0.240685 4.771609 0.000000 -0.000000 0.000000
  28 -0.247201 0.200456 4.510979 0.000000 -0.000000 0.000000
  29 -0.171456 -0.656419 4.365717 0.000000 -0.000000 0.000000
  30 -0.322946 -0.362576 5.173044 0.000000 -0.000000 0.000000
  31 0.397632 -0.233958 4.790091 0.000000 -0.000000 0.000000
  32 -0.225175 0.137116 4.538164 0.000000 -0.000000 0.000000
  33 -0.159779 -0.602682 4.412750 0.000000 -0.000000 0.000000
  34 -0.290570 -0.348987 5.109771 0.000000 -0.000000 0.000000
  35 0.331552 -0.237943 4.779141 0.000000 -0.000000 0.000000
  36 -0.159574 -0.051532 4.619137 0.000000 -0.000000 0.000000
  37 -0.125001 -0.442636 4.552835 0.000000 -0.000000 0.000000
  38 -0.194146 -0.308517 4.921325 0.000000 -0.000000 0.000000
  39 0.134748 -0.249811 4.746532 0.000000 -0.000000 0.000000
  40 0.021328 -0.205622 -14.142980 0.000000 -0.000000 0.000000
  41 0.039353 1.905962 -0.557580 0.000000 -0.000000 0.000000
  42 0.039353 2.054666 2.024324 0.000000 -0.000000 0.000000
  43 1.858139 0.852981 -0.557580 0.000000 -0.000000 0.000000
  44 1.986565 0.927333 2.024324 0.000000 -0.000000 0.000000
  45 1.858139 -1.252981 -0.557580 0.000000 -0.000000 0.000000
  46 1.986565 -1.327333 2.024324 0.000000 -0.000000 0.000000
  47 0.039353 -2.305962 -0.557580 0.000000 -0.000000 0.000000
  48 0.039353 -2.454666 2.024324 0.000000 -0.000000 0.000000
  49 -1.779432 -1.252981 -0.557580 0.000000 -0.000000 0.000000
  50 -1.907858 -1.327333 2.024324 0.000000 -0.000000 0.000000
  51 -1.779432 0.852981 -0.557580 0.000000 -0.000000 0.000000
  52 -1.907858 0.927333 2.024324 0.000000 -0.000000 0.000000
  53 0.039353 2.331588 -3.257580 0.000000 -0.000000 0.000000
  54 2.225725 1.065794 -3.257580 0.000000 -0.000000 0.000000
  55 2.225725 -1.465794 -3.257580 0.000000 -0.000000 0.000000
  56 0.039353 -2.731588 -3.257580 0.000000 -0.000000 0.000000
  57 -2.147018 -1.465794 -3.257580 0.000000 -0.000000 0.000000
  58 -2.147018 1.065794 -3.257580 0.000000 -0.000000 0.000000
  59 0.039353 1.162195 -7.016099 0.000000 -0.000000 0.000000
  60 1.215795 0.481097 -7.016099 0.000000 -0.000000 0.000000
  61 1.215795 -0.881097 -7.016099 0.000000 -0.000000 0.000000
  62 0.039353 -1.562195 -7.016099 0.000000 -0.000000 0.000000
  63 -1.137088 -0.881097 -7.016099 0.000000 -0.000000 0.000000
  64 -1.137088 0.481097 -7.016099 0.000000 -0.000000 0.000000
  65 -0.789285 -0.998046 -7.017671 0.000000 -0.000000 0.000000
  66 -0.789285 0.603297 -7.017671 0.000000 -0.000000 0.000000
  67 0.812059 0.603297 -7.017671 0.000000 -0.000000 0.000000
  68 0.812059 -0.998046 -7.017671 0.000000 -0.000000 0.000000
  time 5
  0 -0.321713 -0.065288 18.074131 0.000000 -0.000000 0.000000
  1 -0.284950 -0.108422 18.074131 0.000000 -0.000000 0.000000
  2 -0.321713 -0.151555 18.074131 0.000000 -0.000000 0.000000
  3 -0.358477 -0.108422 18.074131 0.000000 -0.000000 0.000000
  4 -0.276181 3.718773 5.151384 0.000000 -0.000000 0.000000
  5 3.040994 -0.085492 4.000000 0.000000 -0.000000 0.000000
  6 -0.276181 -3.977397 4.000000 0.000000 -0.000000 0.000000
  7 -3.493759 -0.085492 4.406371 0.000000 -0.000000 0.000000
  8 -0.321713 -0.194689 18.074131 0.000000 -0.000000 0.000000
  9 -0.395241 -0.108422 18.074131 0.000000 -0.000000 0.000000
  10 -0.321713 -0.022155 18.074131 0.000000 -0.000000 0.000000
  11 -0.248186 -0.108422 18.074131 0.000000 -0.000000 0.000000
  12 -0.735276 -0.226376 2.000000 0.000000 -0.000000 0.000000
  13 0.000000 0.636294 2.000000 0.000000 -0.000000 0.000000
  14 0.735276 -0.226376 2.000000 0.000000 -0.000000 0.000000
  15 0.000000 -1.089045 2.000000 0.000000 -0.000000 0.000000
  16 -1.470553 -0.226376 2.000000 0.000000 -0.000000 0.000000
  17 0.000000 1.498963 2.000000 0.000000 -0.000000 0.000000
  18 0.000000 -1.951715 2.000000 0.000000 -0.000000 0.000000
  19 1.470553 -0.226376 2.000000 0.000000 -0.000000 0.000000
  20 0.314126 2.587944 10.365734 0.000000 -0.000000 0.000000
  21 2.886568 -0.371768 8.943436 0.000000 -0.000000 0.000000
  22 0.314126 -3.389907 8.943436 0.000000 -0.000000 0.000000
  23 -2.781206 -0.371768 8.435472 0.000000 -0.000000 0.000000
  24 -1.637003 2.182835 5.675638 0.000000 -0.000000 0.000000
  25 -1.423426 -0.233283 5.266044 0.000000 -0.000000 0.000000
  26 -1.850580 0.595263 7.542456 0.000000 -0.000000 0.000000
  27 0.181224 0.957924 6.462647 0.000000 -0.000000 0.000000
  28 -1.319600 0.146556 4.190679 0.000000 -0.000000 0.000000
  29 -1.255157 -0.582459 4.067092 0.000000 -0.000000 0.000000
  30 -1.384042 -0.332462 4.753954 0.000000 -0.000000 0.000000
  31 -0.770986 -0.223036 4.428144 0.000000 -0.000000 0.000000
  32 -1.299641 0.089162 4.215314 0.000000 -0.000000 0.000000
  33 -1.244576 -0.533767 4.109712 0.000000 -0.000000 0.000000
  34 -1.354706 -0.320149 4.696621 0.000000 -0.000000 0.000000
  35 -0.830862 -0.226647 4.418222 0.000000 -0.000000 0.000000
  36 2.010888 -0.142275 7.648288 0.000000 -0.000000 0.000000
  37 2.055429 -0.646147 7.562869 0.000000 -0.000000 0.000000
  38 1.966347 -0.473357 8.037605 0.000000 -0.000000 0.000000
  39 2.390072 -0.397725 7.812416 0.000000 -0.000000 0.000000
  40 0.021328 -0.205622 -14.142980 0.000000 -0.000000 0.000000
  41 0.039353 1.905962 -0.557580 0.000000 -0.000000 0.000000
  42 0.039353 2.054666 2.024324 0.000000 -0.000000 0.000000
  43 1.858139 0.852981 -0.557580 0.000000 -0.000000 0.000000
  44 1.986565 0.927333 2.024324 0.000000 -0.000000 0.000000
  45 1.858139 -1.252981 -0.557580 0.000000 -0.000000 0.000000
  46 1.986565 -1.327333 2.024324 0.000000 -0.000000 0.000000
  47 0.039353 -2.305962 -0.557580 0.000000 -0.000000 0.000000
  48 0.039353 -2.454666 2.024324 0.000000 -0.000000 0.000000
  49 -1.779432 -1.252981 -0.557580 0.000000 -0.000000 0.000000
  50 -1.907858 -1.327333 2.024324 0.000000 -0.000000 0.000000
  51 -1.779432 0.852981 -0.557580 0.000000 -0.000000 0.000000
  52 -1.907858 0.927333 2.024324 0.000000 -0.000000 0.000000
  53 0.039353 2.331588 -3.257580 0.000000 -0.000000 0.000000
  54 2.225725 1.065794 -3.257580 0.000000 -0.000000 0.000000
  55 2.225725 -1.465794 -3.257580 0.000000 -0.000000 0.000000
  56 0.039353 -2.731588 -3.257580 0.000000 -0.000000 0.000000
  57 -2.147018 -1.465794 -3.257580 0.000000 -0.000000 0.000000
  58 -2.147018 1.065794 -3.257580 0.000000 -0.000000 0.000000
  59 0.039353 1.162195 -7.016099 0.000000 -0.000000 0.000000
  60 1.215795 0.481097 -7.016099 0.000000 -0.000000 0.000000
  61 1.215795 -0.881097 -7.016099 0.000000 -0.000000 0.000000
  62 0.039353 -1.562195 -7.016099 0.000000 -0.000000 0.000000
  63 -1.137088 -0.881097 -7.016099 0.000000 -0.000000 0.000000
  64 -1.137088 0.481097 -7.016099 0.000000 -0.000000 0.000000
  65 -0.789285 -0.998046 -7.017671 0.000000 -0.000000 0.000000
  66 -0.789285 0.603297 -7.017671 0.000000 -0.000000 0.000000
  67 0.812059 0.603297 -7.017671 0.000000 -0.000000 0.000000
  68 0.812059 -0.998046 -7.017671 0.000000 -0.000000 0.000000
end
