version 1
nodes
0 "arm" -1
1 "hand" 0
end
skeleton
  time 0
  0 -19.594454 17.949390 -8.713159 -1.723907 1.094928 1.573416
  1 0.000001 39.094288 0.000000 -0.337298 0.003608 -0.223938
end
triangles
v_axe
  1 -5.219108 -33.848328 -12.968222 0.597054 0.684461 0.418378 0.179688 0.027344 1 1 1.000000
  1 -6.928291 -29.152386 -21.441864 0.909436 -0.073013 -0.409383 0.144531 0.173828 1 1 1.000000
  1 -7.452076 -27.713297 -19.980522 0.633649 0.684720 0.360066 0.175781 0.173828 1 1 1.000000
v_axe
  1 -7.522027 -29.609932 -21.658361 0.233347 -0.641111 -0.731113 0.132812 0.173828 1 1 1.000000
  1 -5.979795 -35.936012 -14.591936 -0.597240 -0.683980 -0.418898 0.121094 0.027344 1 1 1.000000
  1 -8.270960 -29.641079 -21.441864 -0.649736 -0.640505 -0.409385 0.121094 0.173828 1 1 1.000000
v_axe
  1 -8.270960 -29.641079 -21.441864 -0.649736 -0.640505 -0.409385 0.230469 0.173828 1 1 1.000000
  1 -6.561778 -34.337017 -12.968222 -0.897331 0.140550 0.418380 0.199219 0.027344 1 1 1.000000
  1 -8.794745 -28.201994 -19.980522 -0.925534 0.117221 0.360064 0.199219 0.173828 1 1 1.000000
v_axe
  1 -8.201008 -27.744452 -19.764030 -0.260710 0.716285 0.647276 0.187500 0.173828 1 1 1.000000
  1 -5.219108 -33.848328 -12.968222 0.597054 0.684461 0.418378 0.179688 0.027344 1 1 1.000000
  1 -7.452076 -27.713297 -19.980522 0.633649 0.684720 0.360066 0.175781 0.173828 1 1 1.000000
v_axe
  1 -12.815582 -15.066010 -37.310326 0.050688 -0.139256 -0.988958 0.558594 0.519531 1 1 1.000000
  1 -13.874906 -14.244369 -36.227852 -0.885440 0.435942 -0.161089 0.546875 0.542969 1 1 1.000000
  1 -13.300568 -13.733523 -35.957230 -0.340248 0.934816 0.101742 0.558594 0.550781 1 1 1.000000
v_axe
  1 -12.815582 -15.066010 -37.310326 0.050688 -0.139256 -0.988958 0.558594 0.519531 1 1 1.000000
  1 -12.532235 -13.755678 -36.227852 0.398063 0.903104 -0.161085 0.570312 0.542969 1 1 1.000000
  1 -12.241244 -14.555165 -37.039711 0.598108 0.353450 -0.719263 0.570312 0.523438 1 1 1.000000
v_axe
  1 -6.561778 -34.337017 -12.968222 -0.897331 0.140550 0.418380 0.199219 0.027344 1 1 1.000000
  1 -8.201008 -27.744452 -19.764030 -0.260710 0.716285 0.647276 0.187500 0.173828 1 1 1.000000
  1 -8.794745 -28.201994 -19.980522 -0.925534 0.117221 0.360064 0.199219 0.173828 1 1 1.000000
v_axe
  1 -4.637127 -35.447304 -14.591932 0.897169 -0.140057 -0.418894 0.140625 0.027344 1 1 1.000000
  1 -7.522027 -29.609932 -21.658361 0.233347 -0.641111 -0.731113 0.132812 0.173828 1 1 1.000000
  1 -6.928291 -29.152386 -21.441864 0.909436 -0.073013 -0.409383 0.144531 0.173828 1 1 1.000000
v_axe
  1 -7.917099 -26.435661 -23.790249 0.931716 -0.018117 -0.362736 0.152344 0.230469 1 1 1.000000
  1 -12.815582 -15.066010 -37.310326 0.050688 -0.139256 -0.988958 0.140625 0.527344 1 1 1.000000
  1 -12.241244 -14.555165 -37.039711 0.598108 0.353450 -0.719263 0.152344 0.527344 1 1 1.000000
v_axe
  1 -9.550761 -26.124859 -22.978395 -0.946207 0.057925 0.318335 0.199219 0.230469 1 1 1.000000
  1 -13.300568 -13.733523 -35.957230 -0.340248 0.934816 0.101742 0.183594 0.527344 1 1 1.000000
  1 -13.874906 -14.244369 -36.227852 -0.885440 0.435942 -0.161089 0.199219 0.527344 1 1 1.000000
v_axe
  1 -8.976423 -25.614014 -22.707775 -0.261848 0.719426 0.643321 0.187500 0.230469 1 1 1.000000
  1 -12.532235 -13.755678 -36.227852 0.398063 0.903104 -0.161085 0.171875 0.527344 1 1 1.000000
  1 -13.300568 -13.733523 -35.957230 -0.340248 0.934816 0.101742 0.183594 0.527344 1 1 1.000000
v_axe
  1 -9.259770 -26.924353 -23.790249 -0.702093 -0.612773 -0.362732 0.218750 0.230469 1 1 1.000000
  1 -13.874906 -14.244369 -36.227852 -0.885440 0.435942 -0.161089 0.199219 0.527344 1 1 1.000000
  1 -13.583916 -15.043857 -37.039711 -0.685367 -0.113699 -0.719267 0.218750 0.527344 1 1 1.000000
v_axe
  1 -8.491438 -26.946501 -24.060867 0.232047 -0.637548 -0.734634 0.140625 0.230469 1 1 1.000000
  1 -13.583916 -15.043857 -37.039711 -0.685367 -0.113699 -0.719267 0.128906 0.527344 1 1 1.000000
  1 -12.815582 -15.066010 -37.310326 0.050688 -0.139256 -0.988958 0.140625 0.527344 1 1 1.000000
v_axe
  1 -8.208090 -25.636166 -22.978395 0.687606 0.652581 0.318332 0.171875 0.230469 1 1 1.000000
  1 -12.241244 -14.555165 -37.039711 0.598108 0.353450 -0.719263 0.152344 0.527344 1 1 1.000000
  1 -12.532235 -13.755678 -36.227852 0.398063 0.903104 -0.161085 0.171875 0.527344 1 1 1.000000
v_axe
  1 -6.928291 -29.152386 -21.441864 0.909436 -0.073013 -0.409383 0.144531 0.173828 1 1 1.000000
  1 -8.491438 -26.946501 -24.060867 0.232047 -0.637548 -0.734634 0.140625 0.230469 1 1 1.000000
  1 -7.917099 -26.435661 -23.790249 0.931716 -0.018117 -0.362736 0.152344 0.230469 1 1 1.000000
v_axe
  1 -8.794745 -28.201994 -19.980522 -0.925534 0.117221 0.360064 0.199219 0.173828 1 1 1.000000
  1 -8.976423 -25.614014 -22.707775 -0.261848 0.719426 0.643321 0.187500 0.230469 1 1 1.000000
  1 -9.550761 -26.124859 -22.978395 -0.946207 0.057925 0.318335 0.199219 0.230469 1 1 1.000000
v_axe
  1 -8.976423 -25.614014 -22.707775 -0.261848 0.719426 0.643321 0.187500 0.230469 1 1 1.000000
  1 -7.452076 -27.713297 -19.980522 0.633649 0.684720 0.360066 0.175781 0.173828 1 1 1.000000
  1 -8.208090 -25.636166 -22.978395 0.687606 0.652581 0.318332 0.171875 0.230469 1 1 1.000000
v_axe
  1 -8.270960 -29.641079 -21.441864 -0.649736 -0.640505 -0.409385 0.230469 0.173828 1 1 1.000000
  1 -9.550761 -26.124859 -22.978395 -0.946207 0.057925 0.318335 0.199219 0.230469 1 1 1.000000
  1 -9.259770 -26.924353 -23.790249 -0.702093 -0.612773 -0.362732 0.218750 0.230469 1 1 1.000000
v_axe
  1 -8.491438 -26.946501 -24.060867 0.232047 -0.637548 -0.734634 0.140625 0.230469 1 1 1.000000
  1 -8.270960 -29.641079 -21.441864 -0.649736 -0.640505 -0.409385 0.121094 0.173828 1 1 1.000000
  1 -9.259770 -26.924353 -23.790249 -0.702093 -0.612773 -0.362732 0.125000 0.230469 1 1 1.000000
v_axe
  1 -8.208090 -25.636166 -22.978395 0.687606 0.652581 0.318332 0.171875 0.230469 1 1 1.000000
  1 -6.928291 -29.152386 -21.441864 0.909436 -0.073013 -0.409383 0.144531 0.173828 1 1 1.000000
  1 -7.917099 -26.435661 -23.790249 0.931716 -0.018117 -0.362736 0.152344 0.230469 1 1 1.000000
v_axe
  1 -6.136850 -33.415676 -12.843102 -0.320306 0.880033 -0.350636 0.601562 0.125000 1 1 1.000000
  1 -6.962397 -33.862980 -11.039649 -0.958054 0.261557 -0.117138 0.625000 0.164062 1 1 1.000000
  1 -6.152711 -33.372105 -10.863746 -0.327014 0.898460 -0.292970 0.640625 0.148438 1 1 1.000000
v_axe
  1 -6.189960 -35.985229 -15.129833 -0.816269 0.161276 -0.554703 0.535156 0.140625 1 1 1.000000
  1 -5.484892 -37.922390 -8.540429 -0.502311 -0.667504 0.549656 0.597656 0.269531 1 1 1.000000
  1 -6.946539 -33.906551 -13.019005 -0.850274 0.397796 -0.344663 0.593750 0.144531 1 1 1.000000
v_axe
  1 -2.982843 -39.365768 -10.651256 0.845154 -0.240998 0.477110 0.531250 0.312500 1 1 1.000000
  1 -4.675205 -37.431515 -8.364526 0.215927 -0.593254 0.775516 0.605469 0.289062 1 1 1.000000
  1 -3.792531 -39.856644 -10.827156 0.245066 -0.673306 0.697569 0.523438 0.292969 1 1 1.000000
v_axe
  1 -3.792531 -39.856644 -10.827156 0.245066 -0.673306 0.697569 0.523438 0.292969 1 1 1.000000
  1 -5.484892 -37.922390 -8.540429 -0.502311 -0.667504 0.549656 0.597656 0.269531 1 1 1.000000
  1 -4.728315 -40.001068 -10.651256 -0.492512 -0.727870 0.477113 0.531250 0.269531 1 1 1.000000
v_axe
  1 -1.958821 -43.181858 -14.901791 0.855393 -0.288920 0.429916 0.406250 0.320312 1 1 1.000000
  1 -3.792531 -39.856644 -10.827156 0.245066 -0.673306 0.697569 0.523438 0.292969 1 1 1.000000
  1 -3.059826 -43.582596 -14.901791 -0.469553 -0.771163 0.429917 0.402344 0.292969 1 1 1.000000
v_axe
  1 -5.201068 -33.271244 -13.019002 0.395631 0.851280 -0.344672 0.593750 0.433594 1 1 1.000000
  1 -2.982843 -39.365768 -10.651256 0.845154 -0.240998 0.477110 0.531250 0.312500 1 1 1.000000
  1 -4.444489 -35.349926 -15.129833 0.521647 0.648227 -0.554695 0.535156 0.441406 1 1 1.000000
v_axe
  1 -3.739421 -37.287086 -8.540427 0.813856 -0.188460 0.549656 0.597656 0.312500 1 1 1.000000
  1 -5.201068 -33.271244 -13.019002 0.395631 0.851280 -0.344672 0.593750 0.433594 1 1 1.000000
  1 -5.216925 -33.227680 -11.039649 0.565785 0.816190 -0.117138 0.625000 0.410156 1 1 1.000000
v_axe
  1 -2.982843 -39.365768 -10.651256 0.845154 -0.240998 0.477110 0.531250 0.312500 1 1 1.000000
  1 -4.123073 -37.047653 -16.466599 0.521315 0.667217 -0.532027 0.488281 0.445312 1 1 1.000000
  1 -4.444489 -35.349926 -15.129833 0.521647 0.648227 -0.554695 0.535156 0.441406 1 1 1.000000
v_axe
  1 -5.254177 -35.840801 -15.305733 -0.220886 0.606876 -0.763486 0.527344 0.121094 1 1 1.000000
  1 -6.946539 -33.906551 -13.019005 -0.850274 0.397796 -0.344663 0.593750 0.144531 1 1 1.000000
  1 -6.136850 -33.415676 -12.843102 -0.320306 0.880033 -0.350636 0.601562 0.125000 1 1 1.000000
v_axe
  1 -3.787243 -38.346275 -23.514589 0.361951 0.842402 -0.399186 0.347656 0.515625 1 1 1.000000
  1 -1.470095 -46.237480 -18.453011 0.335197 -0.920950 -0.198730 0.289062 0.332031 1 1 1.000000
  1 -3.491487 -40.683750 -24.646688 0.135192 -0.371435 -0.918564 0.300781 0.519531 1 1 1.000000
v_axe
  1 -4.767425 -38.703033 -23.514589 -0.818752 0.412673 -0.399183 0.351562 0.042969 1 1 1.000000
  1 -1.470095 -46.237480 -18.453011 0.335197 -0.920950 -0.198730 0.292969 0.257812 1 1 1.000000
  1 -3.059826 -43.582596 -14.901791 -0.469553 -0.771163 0.429917 0.402344 0.269531 1 1 1.000000
v_axe
  1 -5.254177 -35.840801 -15.305733 -0.220886 0.606876 -0.763486 0.531250 0.460938 1 1 1.000000
  1 -4.444489 -35.349926 -15.129833 0.521647 0.648227 -0.554695 0.535156 0.441406 1 1 1.000000
  1 -4.123073 -37.047653 -16.466599 0.521315 0.667217 -0.532027 0.488281 0.445312 1 1 1.000000
v_axe
  1 -4.728315 -40.001068 -10.651256 -0.492512 -0.727870 0.477113 0.531250 0.269531 1 1 1.000000
  1 -5.344903 -37.492363 -16.466599 -0.828224 0.176032 -0.532031 0.484375 0.140625 1 1 1.000000
  1 -3.059826 -43.582596 -14.901791 -0.469553 -0.771163 0.429917 0.402344 0.269531 1 1 1.000000
v_axe
  1 -3.059826 -43.582596 -14.901791 -0.469553 -0.771163 0.429917 0.402344 0.269531 1 1 1.000000
  1 -4.719230 -39.211384 -20.449154 -0.937065 0.349145 -0.002651 0.390625 0.101562 1 1 1.000000
  1 -4.767425 -38.703033 -23.514589 -0.818752 0.412673 -0.399183 0.351562 0.042969 1 1 1.000000
v_axe
  1 -4.766237 -39.082237 -18.569458 -0.934670 0.273041 -0.227684 0.429688 0.484375 1 1 1.000000
  1 -4.123073 -37.047653 -16.466599 0.521315 0.667217 -0.532027 0.488281 0.445312 1 1 1.000000
  1 -3.544405 -38.637527 -18.569458 0.540480 0.809963 -0.227689 0.421875 0.457031 1 1 1.000000
v_axe
  1 -6.189960 -35.985229 -15.129833 -0.816269 0.161276 -0.554703 0.535156 0.140625 1 1 1.000000
  1 -5.254177 -35.840801 -15.305733 -0.220886 0.606876 -0.763486 0.527344 0.121094 1 1 1.000000
  1 -5.344903 -37.492363 -16.466599 -0.828224 0.176032 -0.532031 0.484375 0.140625 1 1 1.000000
v_axe
  1 -2.982843 -39.365768 -10.651256 0.845154 -0.240998 0.477110 0.531250 0.312500 1 1 1.000000
  1 -3.792531 -39.856644 -10.827156 0.245066 -0.673306 0.697569 0.523438 0.292969 1 1 1.000000
  1 -1.958821 -43.181858 -14.901791 0.855393 -0.288920 0.429916 0.406250 0.320312 1 1 1.000000
v_axe
  1 -5.853678 -31.885540 -8.358783 0.510258 0.791773 -0.335756 0.691406 0.390625 1 1 1.000000
  1 -6.630436 -30.158737 -6.106890 0.511118 0.721801 -0.466649 0.757812 0.375000 1 1 1.000000
  1 -6.022206 -31.829832 -4.243237 0.779835 -0.092646 0.619092 0.750000 0.320312 1 1 1.000000
v_axe
  1 -6.152711 -33.372105 -10.863746 -0.327014 0.898460 -0.292970 0.640625 0.148438 1 1 1.000000
  1 -7.337328 -32.425545 -8.358783 -0.899823 0.278544 -0.335756 0.691406 0.187500 1 1 1.000000
  1 -6.652248 -31.999636 -8.200468 -0.279125 0.766882 -0.577910 0.703125 0.171875 1 1 1.000000
v_axe
  1 -6.946539 -33.906551 -13.019005 -0.850274 0.397796 -0.344663 0.593750 0.144531 1 1 1.000000
  1 -5.484892 -37.922390 -8.540429 -0.502311 -0.667504 0.549656 0.597656 0.269531 1 1 1.000000
  1 -6.962397 -33.862980 -11.039649 -0.958054 0.261557 -0.117138 0.625000 0.164062 1 1 1.000000
v_axe
  1 -6.136850 -33.415676 -12.843102 -0.320306 0.880033 -0.350636 0.601562 0.449219 1 1 1.000000
  1 -5.216925 -33.227680 -11.039649 0.565785 0.816190 -0.117138 0.625000 0.410156 1 1 1.000000
  1 -5.201068 -33.271244 -13.019002 0.395631 0.851280 -0.344672 0.593750 0.433594 1 1 1.000000
v_axe
  1 -3.544405 -38.637527 -18.569458 0.540480 0.809963 -0.227689 0.421875 0.457031 1 1 1.000000
  1 -4.123073 -37.047653 -16.466599 0.521315 0.667217 -0.532027 0.488281 0.445312 1 1 1.000000
  1 -1.958821 -43.181858 -14.901791 0.855393 -0.288920 0.429916 0.406250 0.320312 1 1 1.000000
v_axe
  1 -5.344903 -37.492363 -16.466599 -0.828224 0.176032 -0.532031 0.484375 0.140625 1 1 1.000000
  1 -4.766237 -39.082237 -18.569458 -0.934670 0.273041 -0.227684 0.421875 0.132812 1 1 1.000000
  1 -3.059826 -43.582596 -14.901791 -0.469553 -0.771163 0.429917 0.402344 0.269531 1 1 1.000000
v_axe
  1 -4.123073 -37.047653 -16.466599 0.521315 0.667217 -0.532027 0.488281 0.445312 1 1 1.000000
  1 -5.344903 -37.492363 -16.466599 -0.828224 0.176032 -0.532031 0.488281 0.476562 1 1 1.000000
  1 -5.254177 -35.840801 -15.305733 -0.220886 0.606876 -0.763486 0.531250 0.460938 1 1 1.000000
v_axe
  1 -3.497400 -38.766674 -20.449154 0.493396 0.869801 -0.002647 0.386719 0.480469 1 1 1.000000
  1 -1.958821 -43.181858 -14.901791 0.855393 -0.288920 0.429916 0.406250 0.320312 1 1 1.000000
  1 -3.787243 -38.346275 -23.514589 0.361951 0.842402 -0.399186 0.347656 0.515625 1 1 1.000000
v_axe
  1 -3.544405 -38.637527 -18.569458 0.540480 0.809963 -0.227689 0.421875 0.457031 1 1 1.000000
  1 -1.958821 -43.181858 -14.901791 0.855393 -0.288920 0.429916 0.406250 0.320312 1 1 1.000000
  1 -3.497400 -38.766674 -20.449154 0.493396 0.869801 -0.002647 0.386719 0.480469 1 1 1.000000
v_axe
  1 -4.767425 -38.703033 -23.514589 -0.818752 0.412673 -0.399183 0.351562 0.531250 1 1 1.000000
  1 -3.787243 -38.346275 -23.514589 0.361951 0.842402 -0.399186 0.347656 0.515625 1 1 1.000000
  1 -3.491487 -40.683750 -24.646688 0.135192 -0.371435 -0.918564 0.300781 0.519531 1 1 1.000000
v_axe
  1 -3.059826 -43.582596 -14.901791 -0.469553 -0.771163 0.429917 0.402344 0.269531 1 1 1.000000
  1 -4.766237 -39.082237 -18.569458 -0.934670 0.273041 -0.227684 0.421875 0.132812 1 1 1.000000
  1 -4.719230 -39.211384 -20.449154 -0.937065 0.349145 -0.002651 0.390625 0.101562 1 1 1.000000
v_axe
  1 -3.787243 -38.346275 -23.514589 0.361951 0.842402 -0.399186 0.347656 0.515625 1 1 1.000000
  1 -4.719230 -39.211384 -20.449154 -0.937065 0.349145 -0.002651 0.398438 0.503906 1 1 1.000000
  1 -3.497400 -38.766674 -20.449154 0.493396 0.869801 -0.002647 0.386719 0.480469 1 1 1.000000
v_axe
  1 -7.244037 -32.274540 -4.243237 -0.537837 -0.572239 0.619091 0.753906 0.257812 1 1 1.000000
  1 -7.852265 -30.603445 -6.106890 -0.855504 0.224392 -0.466649 0.761719 0.203125 1 1 1.000000
  1 -7.337328 -32.425545 -8.358783 -0.899823 0.278544 -0.335756 0.691406 0.187500 1 1 1.000000
v_axe
  1 -4.675205 -37.431515 -8.364526 0.215927 -0.593254 0.775516 0.605469 0.289062 1 1 1.000000
  1 -6.022206 -31.829832 -4.243237 0.779835 -0.092646 0.619092 0.750000 0.320312 1 1 1.000000
  1 -6.683559 -31.913607 -4.102518 0.163881 -0.450262 0.877729 0.757812 0.308594 1 1 1.000000
v_axe
  1 -6.152711 -33.372105 -10.863746 -0.327014 0.898460 -0.292970 0.636719 0.429688 1 1 1.000000
  1 -5.853678 -31.885540 -8.358783 0.510258 0.791773 -0.335756 0.691406 0.390625 1 1 1.000000
  1 -5.216925 -33.227680 -11.039649 0.565785 0.816190 -0.117138 0.625000 0.410156 1 1 1.000000
v_axe
  1 -4.675205 -37.431515 -8.364526 0.215927 -0.593254 0.775516 0.605469 0.289062 1 1 1.000000
  1 -7.244037 -32.274540 -4.243237 -0.537837 -0.572239 0.619091 0.753906 0.257812 1 1 1.000000
  1 -5.484892 -37.922390 -8.540429 -0.502311 -0.667504 0.549656 0.597656 0.269531 1 1 1.000000
v_axe
  1 -6.022206 -31.829832 -4.243237 0.779835 -0.092646 0.619092 0.750000 0.320312 1 1 1.000000
  1 -3.739421 -37.287086 -8.540427 0.813856 -0.188460 0.549656 0.597656 0.312500 1 1 1.000000
  1 -5.853678 -31.885540 -8.358783 0.510258 0.791773 -0.335756 0.691406 0.390625 1 1 1.000000
v_axe
  1 -6.652248 -31.999636 -8.200468 -0.279125 0.766882 -0.577910 0.703125 0.171875 1 1 1.000000
  1 -7.852265 -30.603445 -6.106890 -0.855504 0.224392 -0.466649 0.761719 0.203125 1 1 1.000000
  1 -7.291788 -30.242514 -5.966168 -0.235639 0.647411 -0.724799 0.769531 0.187500 1 1 1.000000
v_axe
  1 -6.652248 -31.999636 -8.200468 -0.279125 0.766882 -0.577910 0.703125 0.406250 1 1 1.000000
  1 -6.630436 -30.158737 -6.106890 0.511118 0.721801 -0.466649 0.757812 0.375000 1 1 1.000000
  1 -5.853678 -31.885540 -8.358783 0.510258 0.791773 -0.335756 0.691406 0.390625 1 1 1.000000
v_axe
  1 -3.739421 -37.287086 -8.540427 0.813856 -0.188460 0.549656 0.597656 0.312500 1 1 1.000000
  1 -5.216925 -33.227680 -11.039649 0.565785 0.816190 -0.117138 0.625000 0.410156 1 1 1.000000
  1 -5.853678 -31.885540 -8.358783 0.510258 0.791773 -0.335756 0.691406 0.390625 1 1 1.000000
v_axe
  1 -7.337328 -32.425545 -8.358783 -0.899823 0.278544 -0.335756 0.691406 0.187500 1 1 1.000000
  1 -6.962397 -33.862980 -11.039649 -0.958054 0.261557 -0.117138 0.625000 0.164062 1 1 1.000000
  1 -5.484892 -37.922390 -8.540429 -0.502311 -0.667504 0.549656 0.597656 0.269531 1 1 1.000000
v_axe
  1 -5.484892 -37.922390 -8.540429 -0.502311 -0.667504 0.549656 0.597656 0.269531 1 1 1.000000
  1 -7.244037 -32.274540 -4.243237 -0.537837 -0.572239 0.619091 0.753906 0.257812 1 1 1.000000
  1 -7.337328 -32.425545 -8.358783 -0.899823 0.278544 -0.335756 0.691406 0.187500 1 1 1.000000
v_axe
  1 -4.444489 -35.349926 -15.129833 0.521647 0.648227 -0.554695 0.535156 0.441406 1 1 1.000000
  1 -6.136850 -33.415676 -12.843102 -0.320306 0.880033 -0.350636 0.601562 0.449219 1 1 1.000000
  1 -5.201068 -33.271244 -13.019002 0.395631 0.851280 -0.344672 0.593750 0.433594 1 1 1.000000
v_axe
  1 -1.958821 -43.181858 -14.901791 0.855393 -0.288920 0.429916 0.406250 0.320312 1 1 1.000000
  1 -3.059826 -43.582596 -14.901791 -0.469553 -0.771163 0.429917 0.402344 0.292969 1 1 1.000000
  1 -1.470095 -46.237480 -18.453011 0.335197 -0.920950 -0.198730 0.289062 0.332031 1 1 1.000000
v_axe
  1 -3.059826 -43.582596 -14.901791 -0.469553 -0.771163 0.429917 0.402344 0.269531 1 1 1.000000
  1 -3.792531 -39.856644 -10.827156 0.245066 -0.673306 0.697569 0.523438 0.292969 1 1 1.000000
  1 -4.728315 -40.001068 -10.651256 -0.492512 -0.727870 0.477113 0.531250 0.269531 1 1 1.000000
v_axe
  1 -3.544405 -38.637527 -18.569458 0.540480 0.809963 -0.227689 0.421875 0.457031 1 1 1.000000
  1 -4.719230 -39.211384 -20.449154 -0.937065 0.349145 -0.002651 0.398438 0.503906 1 1 1.000000
  1 -4.766237 -39.082237 -18.569458 -0.934670 0.273041 -0.227684 0.429688 0.484375 1 1 1.000000
v_axe
  1 -5.219108 -33.848328 -12.968222 0.597054 0.684461 0.418378 0.179688 0.027344 1 1 1.000000
  1 -4.637127 -35.447304 -14.591932 0.897169 -0.140057 -0.418894 0.140625 0.027344 1 1 1.000000
  1 -6.928291 -29.152386 -21.441864 0.909436 -0.073013 -0.409383 0.144531 0.173828 1 1 1.000000
v_axe
  1 -7.522027 -29.609932 -21.658361 0.233347 -0.641111 -0.731113 0.132812 0.173828 1 1 1.000000
  1 -5.259963 -35.824905 -14.727243 0.247449 -0.679839 -0.690354 0.128906 0.027344 1 1 1.000000
  1 -5.979795 -35.936012 -14.591936 -0.597240 -0.683980 -0.418898 0.121094 0.027344 1 1 1.000000
v_axe
  1 -8.270960 -29.641079 -21.441864 -0.649736 -0.640505 -0.409385 0.230469 0.173828 1 1 1.000000
  1 -5.979795 -35.936012 -14.591936 -0.597240 -0.683980 -0.418898 0.238281 0.027344 1 1 1.000000
  1 -6.561778 -34.337017 -12.968222 -0.897331 0.140550 0.418380 0.199219 0.027344 1 1 1.000000
v_axe
  1 -8.201008 -27.744452 -19.764030 -0.260710 0.716285 0.647276 0.187500 0.173828 1 1 1.000000
  1 -5.938941 -33.959427 -12.832913 -0.247438 0.679842 0.690355 0.191406 0.027344 1 1 1.000000
  1 -5.219108 -33.848328 -12.968222 0.597054 0.684461 0.418378 0.179688 0.027344 1 1 1.000000
v_axe
  1 -12.815582 -15.066010 -37.310326 0.050688 -0.139256 -0.988958 0.558594 0.519531 1 1 1.000000
  1 -13.583916 -15.043857 -37.039711 -0.685367 -0.113699 -0.719267 0.546875 0.523438 1 1 1.000000
  1 -13.874906 -14.244369 -36.227852 -0.885440 0.435942 -0.161089 0.546875 0.542969 1 1 1.000000
v_axe
  1 -12.815582 -15.066010 -37.310326 0.050688 -0.139256 -0.988958 0.558594 0.519531 1 1 1.000000
  1 -13.300568 -13.733523 -35.957230 -0.340248 0.934816 0.101742 0.558594 0.550781 1 1 1.000000
  1 -12.532235 -13.755678 -36.227852 0.398063 0.903104 -0.161085 0.570312 0.542969 1 1 1.000000
v_axe
  1 -6.561778 -34.337017 -12.968222 -0.897331 0.140550 0.418380 0.199219 0.027344 1 1 1.000000
  1 -5.938941 -33.959427 -12.832913 -0.247438 0.679842 0.690355 0.191406 0.027344 1 1 1.000000
  1 -8.201008 -27.744452 -19.764030 -0.260710 0.716285 0.647276 0.187500 0.173828 1 1 1.000000
v_axe
  1 -4.637127 -35.447304 -14.591932 0.897169 -0.140057 -0.418894 0.140625 0.027344 1 1 1.000000
  1 -5.259963 -35.824905 -14.727243 0.247449 -0.679839 -0.690354 0.128906 0.027344 1 1 1.000000
  1 -7.522027 -29.609932 -21.658361 0.233347 -0.641111 -0.731113 0.132812 0.173828 1 1 1.000000
v_axe
  1 -7.917099 -26.435661 -23.790249 0.931716 -0.018117 -0.362736 0.152344 0.230469 1 1 1.000000
  1 -8.491438 -26.946501 -24.060867 0.232047 -0.637548 -0.734634 0.140625 0.230469 1 1 1.000000
  1 -12.815582 -15.066010 -37.310326 0.050688 -0.139256 -0.988958 0.140625 0.527344 1 1 1.000000
v_axe
  1 -9.550761 -26.124859 -22.978395 -0.946207 0.057925 0.318335 0.199219 0.230469 1 1 1.000000
  1 -8.976423 -25.614014 -22.707775 -0.261848 0.719426 0.643321 0.187500 0.230469 1 1 1.000000
  1 -13.300568 -13.733523 -35.957230 -0.340248 0.934816 0.101742 0.183594 0.527344 1 1 1.000000
v_axe
  1 -8.976423 -25.614014 -22.707775 -0.261848 0.719426 0.643321 0.187500 0.230469 1 1 1.000000
  1 -8.208090 -25.636166 -22.978395 0.687606 0.652581 0.318332 0.171875 0.230469 1 1 1.000000
  1 -12.532235 -13.755678 -36.227852 0.398063 0.903104 -0.161085 0.171875 0.527344 1 1 1.000000
v_axe
  1 -9.259770 -26.924353 -23.790249 -0.702093 -0.612773 -0.362732 0.218750 0.230469 1 1 1.000000
  1 -9.550761 -26.124859 -22.978395 -0.946207 0.057925 0.318335 0.199219 0.230469 1 1 1.000000
  1 -13.874906 -14.244369 -36.227852 -0.885440 0.435942 -0.161089 0.199219 0.527344 1 1 1.000000
v_axe
  1 -8.491438 -26.946501 -24.060867 0.232047 -0.637548 -0.734634 0.140625 0.230469 1 1 1.000000
  1 -9.259770 -26.924353 -23.790249 -0.702093 -0.612773 -0.362732 0.125000 0.230469 1 1 1.000000
  1 -13.583916 -15.043857 -37.039711 -0.685367 -0.113699 -0.719267 0.128906 0.527344 1 1 1.000000
v_axe
  1 -8.208090 -25.636166 -22.978395 0.687606 0.652581 0.318332 0.171875 0.230469 1 1 1.000000
  1 -7.917099 -26.435661 -23.790249 0.931716 -0.018117 -0.362736 0.152344 0.230469 1 1 1.000000
  1 -12.241244 -14.555165 -37.039711 0.598108 0.353450 -0.719263 0.152344 0.527344 1 1 1.000000
v_axe
  1 -6.928291 -29.152386 -21.441864 0.909436 -0.073013 -0.409383 0.144531 0.173828 1 1 1.000000
  1 -7.522027 -29.609932 -21.658361 0.233347 -0.641111 -0.731113 0.132812 0.173828 1 1 1.000000
  1 -8.491438 -26.946501 -24.060867 0.232047 -0.637548 -0.734634 0.140625 0.230469 1 1 1.000000
v_axe
  1 -8.794745 -28.201994 -19.980522 -0.925534 0.117221 0.360064 0.199219 0.173828 1 1 1.000000
  1 -8.201008 -27.744452 -19.764030 -0.260710 0.716285 0.647276 0.187500 0.173828 1 1 1.000000
  1 -8.976423 -25.614014 -22.707775 -0.261848 0.719426 0.643321 0.187500 0.230469 1 1 1.000000
v_axe
  1 -8.976423 -25.614014 -22.707775 -0.261848 0.719426 0.643321 0.187500 0.230469 1 1 1.000000
  1 -8.201008 -27.744452 -19.764030 -0.260710 0.716285 0.647276 0.187500 0.173828 1 1 1.000000
  1 -7.452076 -27.713297 -19.980522 0.633649 0.684720 0.360066 0.175781 0.173828 1 1 1.000000
v_axe
  1 -8.270960 -29.641079 -21.441864 -0.649736 -0.640505 -0.409385 0.230469 0.173828 1 1 1.000000
  1 -8.794745 -28.201994 -19.980522 -0.925534 0.117221 0.360064 0.199219 0.173828 1 1 1.000000
  1 -9.550761 -26.124859 -22.978395 -0.946207 0.057925 0.318335 0.199219 0.230469 1 1 1.000000
v_axe
  1 -8.491438 -26.946501 -24.060867 0.232047 -0.637548 -0.734634 0.140625 0.230469 1 1 1.000000
  1 -7.522027 -29.609932 -21.658361 0.233347 -0.641111 -0.731113 0.132812 0.173828 1 1 1.000000
  1 -8.270960 -29.641079 -21.441864 -0.649736 -0.640505 -0.409385 0.121094 0.173828 1 1 1.000000
v_axe
  1 -8.208090 -25.636166 -22.978395 0.687606 0.652581 0.318332 0.171875 0.230469 1 1 1.000000
  1 -7.452076 -27.713297 -19.980522 0.633649 0.684720 0.360066 0.175781 0.173828 1 1 1.000000
  1 -6.928291 -29.152386 -21.441864 0.909436 -0.073013 -0.409383 0.144531 0.173828 1 1 1.000000
v_axe
  1 -6.136850 -33.415676 -12.843102 -0.320306 0.880033 -0.350636 0.601562 0.125000 1 1 1.000000
  1 -6.946539 -33.906551 -13.019005 -0.850274 0.397796 -0.344663 0.593750 0.144531 1 1 1.000000
  1 -6.962397 -33.862980 -11.039649 -0.958054 0.261557 -0.117138 0.625000 0.164062 1 1 1.000000
v_axe
  1 -6.189960 -35.985229 -15.129833 -0.816269 0.161276 -0.554703 0.535156 0.140625 1 1 1.000000
  1 -4.728315 -40.001068 -10.651256 -0.492512 -0.727870 0.477113 0.531250 0.269531 1 1 1.000000
  1 -5.484892 -37.922390 -8.540429 -0.502311 -0.667504 0.549656 0.597656 0.269531 1 1 1.000000
v_axe
  1 -2.982843 -39.365768 -10.651256 0.845154 -0.240998 0.477110 0.531250 0.312500 1 1 1.000000
  1 -3.739421 -37.287086 -8.540427 0.813856 -0.188460 0.549656 0.597656 0.312500 1 1 1.000000
  1 -4.675205 -37.431515 -8.364526 0.215927 -0.593254 0.775516 0.605469 0.289062 1 1 1.000000
v_axe
  1 -3.792531 -39.856644 -10.827156 0.245066 -0.673306 0.697569 0.523438 0.292969 1 1 1.000000
  1 -4.675205 -37.431515 -8.364526 0.215927 -0.593254 0.775516 0.605469 0.289062 1 1 1.000000
  1 -5.484892 -37.922390 -8.540429 -0.502311 -0.667504 0.549656 0.597656 0.269531 1 1 1.000000
v_axe
  1 -5.201068 -33.271244 -13.019002 0.395631 0.851280 -0.344672 0.593750 0.433594 1 1 1.000000
  1 -3.739421 -37.287086 -8.540427 0.813856 -0.188460 0.549656 0.597656 0.312500 1 1 1.000000
  1 -2.982843 -39.365768 -10.651256 0.845154 -0.240998 0.477110 0.531250 0.312500 1 1 1.000000
v_axe
  1 -2.982843 -39.365768 -10.651256 0.845154 -0.240998 0.477110 0.531250 0.312500 1 1 1.000000
  1 -1.958821 -43.181858 -14.901791 0.855393 -0.288920 0.429916 0.406250 0.320312 1 1 1.000000
  1 -4.123073 -37.047653 -16.466599 0.521315 0.667217 -0.532027 0.488281 0.445312 1 1 1.000000
v_axe
  1 -5.254177 -35.840801 -15.305733 -0.220886 0.606876 -0.763486 0.527344 0.121094 1 1 1.000000
  1 -6.189960 -35.985229 -15.129833 -0.816269 0.161276 -0.554703 0.535156 0.140625 1 1 1.000000
  1 -6.946539 -33.906551 -13.019005 -0.850274 0.397796 -0.344663 0.593750 0.144531 1 1 1.000000
v_axe
  1 -3.787243 -38.346275 -23.514589 0.361951 0.842402 -0.399186 0.347656 0.515625 1 1 1.000000
  1 -1.958821 -43.181858 -14.901791 0.855393 -0.288920 0.429916 0.406250 0.320312 1 1 1.000000
  1 -1.470095 -46.237480 -18.453011 0.335197 -0.920950 -0.198730 0.289062 0.332031 1 1 1.000000
v_axe
  1 -4.767425 -38.703033 -23.514589 -0.818752 0.412673 -0.399183 0.351562 0.042969 1 1 1.000000
  1 -3.491487 -40.683750 -24.646688 0.135192 -0.371435 -0.918564 0.292969 0.062500 1 1 1.000000
  1 -1.470095 -46.237480 -18.453011 0.335197 -0.920950 -0.198730 0.292969 0.257812 1 1 1.000000
v_axe
  1 -4.728315 -40.001068 -10.651256 -0.492512 -0.727870 0.477113 0.531250 0.269531 1 1 1.000000
  1 -6.189960 -35.985229 -15.129833 -0.816269 0.161276 -0.554703 0.535156 0.140625 1 1 1.000000
  1 -5.344903 -37.492363 -16.466599 -0.828224 0.176032 -0.532031 0.484375 0.140625 1 1 1.000000
v_axe
  1 -4.766237 -39.082237 -18.569458 -0.934670 0.273041 -0.227684 0.429688 0.484375 1 1 1.000000
  1 -5.344903 -37.492363 -16.466599 -0.828224 0.176032 -0.532031 0.488281 0.476562 1 1 1.000000
  1 -4.123073 -37.047653 -16.466599 0.521315 0.667217 -0.532027 0.488281 0.445312 1 1 1.000000
v_axe
  1 -6.152711 -33.372105 -10.863746 -0.327014 0.898460 -0.292970 0.640625 0.148438 1 1 1.000000
  1 -6.962397 -33.862980 -11.039649 -0.958054 0.261557 -0.117138 0.625000 0.164062 1 1 1.000000
  1 -7.337328 -32.425545 -8.358783 -0.899823 0.278544 -0.335756 0.691406 0.187500 1 1 1.000000
v_axe
  1 -6.136850 -33.415676 -12.843102 -0.320306 0.880033 -0.350636 0.601562 0.449219 1 1 1.000000
  1 -6.152711 -33.372105 -10.863746 -0.327014 0.898460 -0.292970 0.636719 0.429688 1 1 1.000000
  1 -5.216925 -33.227680 -11.039649 0.565785 0.816190 -0.117138 0.625000 0.410156 1 1 1.000000
v_axe
  1 -3.787243 -38.346275 -23.514589 0.361951 0.842402 -0.399186 0.347656 0.515625 1 1 1.000000
  1 -4.767425 -38.703033 -23.514589 -0.818752 0.412673 -0.399183 0.351562 0.531250 1 1 1.000000
  1 -4.719230 -39.211384 -20.449154 -0.937065 0.349145 -0.002651 0.398438 0.503906 1 1 1.000000
v_axe
  1 -4.675205 -37.431515 -8.364526 0.215927 -0.593254 0.775516 0.605469 0.289062 1 1 1.000000
  1 -3.739421 -37.287086 -8.540427 0.813856 -0.188460 0.549656 0.597656 0.312500 1 1 1.000000
  1 -6.022206 -31.829832 -4.243237 0.779835 -0.092646 0.619092 0.750000 0.320312 1 1 1.000000
v_axe
  1 -6.152711 -33.372105 -10.863746 -0.327014 0.898460 -0.292970 0.636719 0.429688 1 1 1.000000
  1 -6.652248 -31.999636 -8.200468 -0.279125 0.766882 -0.577910 0.703125 0.406250 1 1 1.000000
  1 -5.853678 -31.885540 -8.358783 0.510258 0.791773 -0.335756 0.691406 0.390625 1 1 1.000000
v_axe
  1 -4.675205 -37.431515 -8.364526 0.215927 -0.593254 0.775516 0.605469 0.289062 1 1 1.000000
  1 -6.683559 -31.913607 -4.102518 0.163881 -0.450262 0.877729 0.761719 0.273438 1 1 1.000000
  1 -7.244037 -32.274540 -4.243237 -0.537837 -0.572239 0.619091 0.753906 0.257812 1 1 1.000000
v_axe
  1 -6.652248 -31.999636 -8.200468 -0.279125 0.766882 -0.577910 0.703125 0.171875 1 1 1.000000
  1 -7.337328 -32.425545 -8.358783 -0.899823 0.278544 -0.335756 0.691406 0.187500 1 1 1.000000
  1 -7.852265 -30.603445 -6.106890 -0.855504 0.224392 -0.466649 0.761719 0.203125 1 1 1.000000
v_axe
  1 -6.652248 -31.999636 -8.200468 -0.279125 0.766882 -0.577910 0.703125 0.406250 1 1 1.000000
  1 -7.291788 -30.242514 -5.966168 -0.235639 0.647411 -0.724799 0.765625 0.390625 1 1 1.000000
  1 -6.630436 -30.158737 -6.106890 0.511118 0.721801 -0.466649 0.757812 0.375000 1 1 1.000000
v_axe
  1 -4.444489 -35.349926 -15.129833 0.521647 0.648227 -0.554695 0.535156 0.441406 1 1 1.000000
  1 -5.254177 -35.840801 -15.305733 -0.220886 0.606876 -0.763486 0.531250 0.460938 1 1 1.000000
  1 -6.136850 -33.415676 -12.843102 -0.320306 0.880033 -0.350636 0.601562 0.449219 1 1 1.000000
v_axe
  1 -3.544405 -38.637527 -18.569458 0.540480 0.809963 -0.227689 0.421875 0.457031 1 1 1.000000
  1 -3.497400 -38.766674 -20.449154 0.493396 0.869801 -0.002647 0.386719 0.480469 1 1 1.000000
  1 -4.719230 -39.211384 -20.449154 -0.937065 0.349145 -0.002651 0.398438 0.503906 1 1 1.000000
v_axe
  1 -7.852265 -30.603445 -6.106890 -0.855504 0.224392 -0.466649 0.761719 0.203125 1 1 1.000000
  1 -7.244037 -32.274540 -4.243237 -0.537837 -0.572239 0.619091 0.753906 0.257812 1 1 1.000000
  1 -10.247357 -24.022985 -0.408819 -0.835472 0.413781 0.361623 0.960938 0.226562 1 1 1.000000
v_axe
  1 -6.683559 -31.913607 -4.102518 0.163881 -0.450262 0.877729 0.757812 0.308594 1 1 1.000000
  1 -6.022206 -31.829832 -4.243237 0.779835 -0.092646 0.619092 0.750000 0.320312 1 1 1.000000
  1 -9.025527 -23.578272 -0.408819 0.374031 0.854008 0.361623 0.953125 0.351562 1 1 1.000000
v_axe
  1 -6.683559 -31.913607 -4.102518 0.163881 -0.450262 0.877729 0.757812 0.308594 1 1 1.000000
  1 -9.025527 -23.578272 -0.408819 0.374031 0.854008 0.361623 0.953125 0.351562 1 1 1.000000
  1 -9.686880 -23.662052 -0.268101 -0.286267 0.786496 0.547244 0.960938 0.339844 1 1 1.000000
v_axe
  1 -6.630436 -30.158737 -6.106890 0.511118 0.721801 -0.466649 0.757812 0.375000 1 1 1.000000
  1 -7.291788 -30.242514 -5.966168 -0.235639 0.647411 -0.724799 0.765625 0.390625 1 1 1.000000
  1 -9.686880 -23.662052 -0.268101 -0.286267 0.786496 0.547244 0.960938 0.367188 1 1 1.000000
v_axe
  1 -6.630436 -30.158737 -6.106890 0.511118 0.721801 -0.466649 0.757812 0.375000 1 1 1.000000
  1 -9.686880 -23.662052 -0.268101 -0.286267 0.786496 0.547244 0.960938 0.367188 1 1 1.000000
  1 -9.025527 -23.578272 -0.408819 0.374031 0.854008 0.361623 0.953125 0.351562 1 1 1.000000
v_axe
  1 -6.022206 -31.829832 -4.243237 0.779835 -0.092646 0.619092 0.750000 0.320312 1 1 1.000000
  1 -6.630436 -30.158737 -6.106890 0.511118 0.721801 -0.466649 0.757812 0.375000 1 1 1.000000
  1 -9.025527 -23.578272 -0.408819 0.374031 0.854008 0.361623 0.953125 0.351562 1 1 1.000000
v_axe
  1 -7.244037 -32.274540 -4.243237 -0.537837 -0.572239 0.619091 0.753906 0.257812 1 1 1.000000
  1 -6.683559 -31.913607 -4.102518 0.163881 -0.450262 0.877729 0.761719 0.273438 1 1 1.000000
  1 -9.686880 -23.662052 -0.268101 -0.286267 0.786496 0.547244 0.968750 0.238281 1 1 1.000000
v_axe
  1 -7.244037 -32.274540 -4.243237 -0.537837 -0.572239 0.619091 0.753906 0.257812 1 1 1.000000
  1 -9.686880 -23.662052 -0.268101 -0.286267 0.786496 0.547244 0.968750 0.238281 1 1 1.000000
  1 -10.247357 -24.022985 -0.408819 -0.835472 0.413781 0.361623 0.960938 0.226562 1 1 1.000000
v_axe
  1 -7.291788 -30.242514 -5.966168 -0.235639 0.647411 -0.724799 0.769531 0.187500 1 1 1.000000
  1 -7.852265 -30.603445 -6.106890 -0.855504 0.224392 -0.466649 0.761719 0.203125 1 1 1.000000
  1 -10.247357 -24.022985 -0.408819 -0.835472 0.413781 0.361623 0.960938 0.226562 1 1 1.000000
v_axe
  1 -7.291788 -30.242514 -5.966168 -0.235639 0.647411 -0.724799 0.769531 0.187500 1 1 1.000000
  1 -10.247357 -24.022985 -0.408819 -0.835472 0.413781 0.361623 0.960938 0.226562 1 1 1.000000
  1 -9.686880 -23.662052 -0.268101 -0.286267 0.786496 0.547244 0.968750 0.210938 1 1 1.000000
v_axe
  1 -13.321926 -24.223717 -27.650887 -0.731142 -0.588421 0.345243 0.824815 0.614003 1 1 1.000000
  1 -14.023574 -22.237234 -26.508171 -0.758457 -0.414142 0.503219 0.850163 0.616206 2 1 0.995472 0 0.004528
  1 -14.706967 -21.050026 -28.623138 -0.963837 -0.258960 -0.062913 0.856093 0.585306 1 1 1.000000
v_axe
  1 -13.321926 -24.223717 -27.650887 -0.731142 -0.588421 0.345243 0.824815 0.614003 1 1 1.000000
  1 -14.706967 -21.050026 -28.623138 -0.963837 -0.258960 -0.062913 0.856093 0.585306 1 1 1.000000
  1 -14.005678 -23.040798 -29.788403 -0.912229 -0.384388 -0.141720 0.830050 0.582046 1 1 1.000000
v_axe
  1 -14.014725 -20.880007 -31.472792 -0.886995 -0.084556 -0.453972 0.843550 0.557128 1 1 1.000000
  1 -12.478918 -23.009291 -33.521973 -0.523115 -0.397133 -0.754080 0.800822 0.542505 1 1 1.000000
  1 -12.477250 -25.136442 -31.520691 -0.506848 -0.738218 -0.445128 0.789182 0.573433 1 1 1.000000
v_axe
  1 -14.014725 -20.880007 -31.472792 -0.886995 -0.084556 -0.453972 0.843550 0.557128 1 1 1.000000
  1 -12.477250 -25.136442 -31.520691 -0.506848 -0.738218 -0.445128 0.789182 0.573433 1 1 1.000000
  1 -14.005678 -23.040798 -29.788403 -0.912229 -0.384388 -0.141720 0.830050 0.582046 1 1 1.000000
v_axe
  1 -13.321926 -24.223717 -27.650887 -0.731142 -0.588421 0.345243 0.824815 0.614003 1 1 1.000000
  1 -11.081130 -24.744669 -26.455347 -0.175823 -0.623121 0.762107 0.812900 0.630813 1 1 1.000000
  1 -11.866701 -21.762718 -24.861248 -0.195306 -0.216725 0.956497 0.854547 0.636410 2 1 0.995730 0 0.004270
v_axe
  1 -13.321926 -24.223717 -27.650887 -0.731142 -0.588421 0.345243 0.824815 0.614003 1 1 1.000000
  1 -11.866701 -21.762718 -24.861248 -0.195306 -0.216725 0.956497 0.854547 0.636410 2 1 0.995730 0 0.004270
  1 -14.023574 -22.237234 -26.508171 -0.758457 -0.414142 0.503219 0.850163 0.616206 2 1 0.995472 0 0.004528
v_axe
  1 -12.907073 -18.552458 -32.534302 -0.470800 0.369238 -0.801256 0.858745 0.529790 1 1 1.000000
  1 -11.792699 -21.474089 -34.337353 -0.302926 0.036661 -0.952309 0.808874 0.524526 1 1 1.000000
  1 -12.478918 -23.009291 -33.521973 -0.523115 -0.397133 -0.754080 0.800822 0.542505 1 1 1.000000
v_axe
  1 -12.907073 -18.552458 -32.534302 -0.470800 0.369238 -0.801256 0.858745 0.529790 1 1 1.000000
  1 -12.478918 -23.009291 -33.521973 -0.523115 -0.397133 -0.754080 0.800822 0.542505 1 1 1.000000
  1 -14.014725 -20.880007 -31.472792 -0.886995 -0.084556 -0.453972 0.843550 0.557128 1 1 1.000000
v_axe
  1 -12.907073 -18.552458 -32.534302 -0.470800 0.369238 -0.801256 0.934318 0.887883 1 1 1.000000
  1 -8.885621 -18.622831 -32.967529 0.575141 0.637670 -0.512435 0.880872 0.884156 1 1 1.000000
  1 -8.661627 -21.633606 -34.032814 0.490085 0.063442 -0.869363 0.863262 0.914989 1 1 1.000000
v_axe
  1 -12.907073 -18.552458 -32.534302 -0.470800 0.369238 -0.801256 0.934318 0.887883 1 1 1.000000
  1 -8.661627 -21.633606 -34.032814 0.490085 0.063442 -0.869363 0.863262 0.914989 1 1 1.000000
  1 -11.792699 -21.474089 -34.337353 -0.302926 0.036661 -0.952309 0.895901 0.932681 1 1 1.000000
v_axe
  1 -8.027749 -23.557798 -33.299896 0.641759 -0.365228 -0.674354 0.844649 0.922144 1 1 1.000000
  1 -7.981798 -25.040108 -31.742409 0.626596 -0.618888 -0.473662 0.829329 0.930990 1 1 1.000000
  1 -12.477250 -25.136442 -31.520691 -0.506848 -0.738218 -0.445128 0.852250 0.974792 1 1 1.000000
v_axe
  1 -8.027749 -23.557798 -33.299896 0.641759 -0.365228 -0.674354 0.844649 0.922144 1 1 1.000000
  1 -12.477250 -25.136442 -31.520691 -0.506848 -0.738218 -0.445128 0.852250 0.974792 1 1 1.000000
  1 -12.478918 -23.009291 -33.521973 -0.523115 -0.397133 -0.754080 0.880654 0.955899 1 1 1.000000
v_axe
  1 -11.901361 -26.034231 -29.197287 -0.405450 -0.913968 0.016525 0.825074 0.982452 1 1 1.000000
  1 -12.477250 -25.136442 -31.520691 -0.506848 -0.738218 -0.445128 0.852250 0.974792 1 1 1.000000
  1 -7.981798 -25.040108 -31.742409 0.626596 -0.618888 -0.473662 0.829329 0.930990 1 1 1.000000
v_axe
  1 -11.901361 -26.034231 -29.197287 -0.405450 -0.913968 0.016525 0.825074 0.982452 1 1 1.000000
  1 -7.981798 -25.040108 -31.742409 0.626596 -0.618888 -0.473662 0.829329 0.930990 1 1 1.000000
  1 -7.398153 -25.972235 -29.584854 0.697395 -0.707762 -0.112756 0.803129 0.936664 1 1 1.000000
v_axe
  1 -12.478918 -23.009291 -33.521973 -0.523115 -0.397133 -0.754080 0.880654 0.955899 1 1 1.000000
  1 -11.792699 -21.474089 -34.337353 -0.302926 0.036661 -0.952309 0.895901 0.932681 1 1 1.000000
  1 -8.661627 -21.633606 -34.032814 0.490085 0.063442 -0.869363 0.863262 0.914989 1 1 1.000000
v_axe
  1 -12.478918 -23.009291 -33.521973 -0.523115 -0.397133 -0.754080 0.880654 0.955899 1 1 1.000000
  1 -8.661627 -21.633606 -34.032814 0.490085 0.063442 -0.869363 0.863262 0.914989 1 1 1.000000
  1 -8.027749 -23.557798 -33.299896 0.641759 -0.365228 -0.674354 0.844649 0.922144 1 1 1.000000
v_axe
  1 -8.027749 -23.557798 -33.299896 0.641759 -0.365228 -0.674354 0.844649 0.922144 1 1 1.000000
  1 -8.019557 -20.027086 -31.607304 0.923625 0.383287 -0.002779 0.843773 0.885033 1 1 1.000000
  1 -7.640790 -21.418291 -29.208069 0.933415 0.350158 0.078270 0.812650 0.887135 1 1 1.000000
v_axe
  1 -8.027749 -23.557798 -33.299896 0.641759 -0.365228 -0.674354 0.844649 0.922144 1 1 1.000000
  1 -7.640790 -21.418291 -29.208069 0.933415 0.350158 0.078270 0.812650 0.887135 1 1 1.000000
  1 -7.981798 -25.040108 -31.742409 0.626596 -0.618888 -0.473662 0.829329 0.930990 1 1 1.000000
v_axe
  1 -7.981798 -25.040108 -31.742409 0.626596 -0.618888 -0.473662 0.829329 0.930990 1 1 1.000000
  1 -7.640790 -21.418291 -29.208069 0.933415 0.350158 0.078270 0.812650 0.887135 1 1 1.000000
  1 -7.690562 -22.916529 -25.768984 0.743155 -0.088959 0.663180 0.765361 0.886311 1 1 1.000000
v_axe
  1 -7.981798 -25.040108 -31.742409 0.626596 -0.618888 -0.473662 0.829329 0.930990 1 1 1.000000
  1 -7.690562 -22.916529 -25.768984 0.743155 -0.088959 0.663180 0.765361 0.886311 1 1 1.000000
  1 -7.398153 -25.972235 -29.584854 0.697395 -0.707762 -0.112756 0.803129 0.936664 1 1 1.000000
v_axe
  1 -8.027749 -23.557798 -33.299896 0.641759 -0.365228 -0.674354 0.844649 0.922144 1 1 1.000000
  1 -8.661627 -21.633606 -34.032814 0.490085 0.063442 -0.869363 0.863262 0.914989 1 1 1.000000
  1 -8.885621 -18.622831 -32.967529 0.575141 0.637670 -0.512435 0.880872 0.884156 1 1 1.000000
v_axe
  1 -8.027749 -23.557798 -33.299896 0.641759 -0.365228 -0.674354 0.844649 0.922144 1 1 1.000000
  1 -8.885621 -18.622831 -32.967529 0.575141 0.637670 -0.512435 0.880872 0.884156 1 1 1.000000
  1 -8.019557 -20.027086 -31.607304 0.923625 0.383287 -0.002779 0.843773 0.885033 1 1 1.000000
v_axe
  1 -11.081130 -24.744669 -26.455347 -0.175823 -0.623121 0.762107 0.812900 0.630813 1 1 1.000000
  1 -7.690562 -22.916529 -25.768984 0.743155 -0.088959 0.663180 0.815254 0.673129 1 1 1.000000
  1 -8.698050 -21.207190 -25.142347 0.590341 0.187014 0.785190 0.843585 0.671317 1 1 1.000000
v_axe
  1 -11.081130 -24.744669 -26.455347 -0.175823 -0.623121 0.762107 0.812900 0.630813 1 1 1.000000
  1 -8.698050 -21.207190 -25.142347 0.590341 0.187014 0.785190 0.843585 0.671317 1 1 1.000000
  1 -11.866701 -21.762718 -24.861248 -0.195306 -0.216725 0.956497 0.854547 0.636410 2 1 0.995730 0 0.004270
v_axe
  1 -8.019557 -20.027086 -31.607304 0.923625 0.383287 -0.002779 0.843773 0.885033 1 1 1.000000
  1 -8.885621 -18.622831 -32.967529 0.575141 0.637670 -0.512435 0.880872 0.884156 1 1 1.000000
  1 -10.278453 -17.162035 -31.882435 0.397511 0.719537 -0.569430 0.902429 0.860241 2 1 0.932076 0 0.067924
v_axe
  1 -8.019557 -20.027086 -31.607304 0.923625 0.383287 -0.002779 0.843773 0.885033 1 1 1.000000
  1 -10.278453 -17.162035 -31.882435 0.397511 0.719537 -0.569430 0.902429 0.860241 2 1 0.932076 0 0.067924
  1 -9.667245 -18.482347 -30.962112 0.872335 0.476055 0.111374 0.854719 0.847366 2 1 0.954845 0 0.045155
v_axe
  1 -7.690562 -22.916529 -25.768984 0.743155 -0.088959 0.663180 0.765361 0.886311 1 1 1.000000
  1 -7.640790 -21.418291 -29.208069 0.933415 0.350158 0.078270 0.812650 0.887135 1 1 1.000000
  1 -9.225544 -20.263216 -28.620190 0.870552 0.473928 0.132405 0.816300 0.851849 1 1 1.000000
v_axe
  1 -7.690562 -22.916529 -25.768984 0.743155 -0.088959 0.663180 0.765361 0.886311 1 1 1.000000
  1 -9.225544 -20.263216 -28.620190 0.870552 0.473928 0.132405 0.816300 0.851849 1 1 1.000000
  1 -8.698050 -21.207190 -25.142347 0.590341 0.187014 0.785190 0.764844 0.851356 1 1 1.000000
v_axe
  1 -7.640790 -21.418291 -29.208069 0.933415 0.350158 0.078270 0.812650 0.887135 1 1 1.000000
  1 -8.019557 -20.027086 -31.607304 0.923625 0.383287 -0.002779 0.843773 0.885033 1 1 1.000000
  1 -9.667245 -18.482347 -30.962112 0.872335 0.476055 0.111374 0.854719 0.847366 2 1 0.954845 0 0.045155
v_axe
  1 -7.640790 -21.418291 -29.208069 0.933415 0.350158 0.078270 0.812650 0.887135 1 1 1.000000
  1 -9.667245 -18.482347 -30.962112 0.872335 0.476055 0.111374 0.854719 0.847366 2 1 0.954845 0 0.045155
  1 -9.225544 -20.263216 -28.620190 0.870552 0.473928 0.132405 0.816300 0.851849 1 1 1.000000
v_axe
  1 -9.637851 -18.177631 -27.184399 0.944933 0.311734 0.099623 0.813338 0.823872 2 1 0.935965 0 0.064035
  1 -9.339398 -19.494963 -25.146128 0.686142 0.231760 0.689563 0.774165 0.827493 2 1 0.967025 0 0.032975
  1 -8.698050 -21.207190 -25.142347 0.590341 0.187014 0.785190 0.764844 0.851356 1 1 1.000000
v_axe
  1 -9.637851 -18.177631 -27.184399 0.944933 0.311734 0.099623 0.813338 0.823872 2 1 0.935965 0 0.064035
  1 -8.698050 -21.207190 -25.142347 0.590341 0.187014 0.785190 0.764844 0.851356 1 1 1.000000
  1 -9.225544 -20.263216 -28.620190 0.870552 0.473928 0.132405 0.816300 0.851849 1 1 1.000000
v_axe
  1 -9.840418 -16.886425 -29.375118 0.945009 0.324565 -0.040199 0.850023 0.827780 2 1 0.860124 0 0.139876
  1 -9.637851 -18.177631 -27.184399 0.944933 0.311734 0.099623 0.813338 0.823872 2 1 0.935965 0 0.064035
  1 -9.225544 -20.263216 -28.620190 0.870552 0.473928 0.132405 0.816300 0.851849 1 1 1.000000
v_axe
  1 -9.840418 -16.886425 -29.375118 0.945009 0.324565 -0.040199 0.850023 0.827780 2 1 0.860124 0 0.139876
  1 -9.225544 -20.263216 -28.620190 0.870552 0.473928 0.132405 0.816300 0.851849 1 1 1.000000
  1 -9.667245 -18.482347 -30.962112 0.872335 0.476055 0.111374 0.854719 0.847366 2 1 0.954845 0 0.045155
v_axe
  1 -9.840418 -16.886425 -29.375118 0.945009 0.324565 -0.040199 0.850023 0.827780 2 1 0.860124 0 0.139876
  1 -9.667245 -18.482347 -30.962112 0.872335 0.476055 0.111374 0.854719 0.847366 2 1 0.954845 0 0.045155
  1 -10.278453 -17.162035 -31.882435 0.397511 0.719537 -0.569430 0.902429 0.860241 2 1 0.932076 0 0.067924
v_axe
  1 -9.840418 -16.886425 -29.375118 0.945009 0.324565 -0.040199 0.850023 0.827780 2 1 0.860124 0 0.139876
  1 -10.278453 -17.162035 -31.882435 0.397511 0.719537 -0.569430 0.902429 0.860241 2 1 0.932076 0 0.067924
  1 -10.383812 -15.934492 -30.627090 0.530744 0.668457 -0.521033 0.903521 0.828701 2 1 0.830255 0 0.169745
v_axe
  1 -9.339398 -19.494963 -25.146128 0.686142 0.231760 0.689563 0.870059 0.671832 2 1 0.967025 0 0.032975
  1 -12.670804 -20.616072 -25.441963 -0.230252 -0.174795 0.957304 0.865978 0.625655 2 1 0.948787 0 0.051213
  1 -11.866701 -21.762718 -24.861248 -0.195306 -0.216725 0.956497 0.854547 0.636410 2 1 0.995730 0 0.004270
v_axe
  1 -9.339398 -19.494963 -25.146128 0.686142 0.231760 0.689563 0.870059 0.671832 2 1 0.967025 0 0.032975
  1 -11.866701 -21.762718 -24.861248 -0.195306 -0.216725 0.956497 0.854547 0.636410 2 1 0.995730 0 0.004270
  1 -8.698050 -21.207190 -25.142347 0.590341 0.187014 0.785190 0.843585 0.671317 1 1 1.000000
v_axe
  1 -13.622860 -16.386707 -30.189342 -0.563335 0.529777 -0.634027 0.963597 0.828284 2 1 0.894223 0 0.105777
  1 -10.383812 -15.934492 -30.627090 0.530744 0.668457 -0.521033 0.903521 0.828701 2 1 0.830255 0 0.169745
  1 -10.278453 -17.162035 -31.882435 0.397511 0.719537 -0.569430 0.902429 0.860241 2 1 0.932076 0 0.067924
v_axe
  1 -13.622860 -16.386707 -30.189342 -0.563335 0.529777 -0.634027 0.963597 0.828284 2 1 0.894223 0 0.105777
  1 -10.278453 -17.162035 -31.882435 0.397511 0.719537 -0.569430 0.902429 0.860241 2 1 0.932076 0 0.067924
  1 -13.507574 -17.031307 -31.098652 -0.530136 0.520448 -0.669395 0.954436 0.850623 2 1 0.939319 0 0.060681
v_axe
  1 -13.622860 -16.386707 -30.189342 -0.563335 0.529777 -0.634027 0.898957 0.545608 2 1 0.894223 0 0.105777
  1 -13.507574 -17.031307 -31.098652 -0.530136 0.520448 -0.669395 0.886443 0.539260 2 1 0.939319 0 0.060681
  1 -14.690395 -18.986519 -30.250902 -0.917644 0.060315 -0.392800 0.871376 0.561324 2 1 0.991665 0 0.008335
v_axe
  1 -13.622860 -16.386707 -30.189342 -0.563335 0.529777 -0.634027 0.898957 0.545608 2 1 0.894223 0 0.105777
  1 -14.690395 -18.986519 -30.250902 -0.917644 0.060315 -0.392800 0.871376 0.561324 2 1 0.991665 0 0.008335
  1 -14.951273 -18.055719 -29.246859 -0.950037 0.157878 -0.269267 0.886736 0.568280 2 1 0.927659 0 0.072341
v_axe
  1 -12.670804 -20.616072 -25.441963 -0.230252 -0.174795 0.957304 0.865978 0.625655 2 1 0.948787 0 0.051213
  1 -14.452126 -20.728148 -25.933805 -0.754876 -0.273562 0.596092 0.869914 0.615489 2 1 0.918116 0 0.081884
  1 -14.023574 -22.237234 -26.508171 -0.758457 -0.414142 0.503219 0.850163 0.616206 2 1 0.995472 0 0.004528
v_axe
  1 -12.670804 -20.616072 -25.441963 -0.230252 -0.174795 0.957304 0.865978 0.625655 2 1 0.948787 0 0.051213
  1 -14.023574 -22.237234 -26.508171 -0.758457 -0.414142 0.503219 0.850163 0.616206 2 1 0.995472 0 0.004528
  1 -11.866701 -21.762718 -24.861248 -0.195306 -0.216725 0.956497 0.854547 0.636410 2 1 0.995730 0 0.004270
v_axe
  1 -14.452126 -20.728148 -25.933805 -0.754876 -0.273562 0.596092 0.869914 0.615489 2 1 0.918116 0 0.081884
  1 -15.055464 -19.863718 -27.646877 -0.987943 -0.137654 0.070858 0.874414 0.590763 2 1 0.934813 0 0.065187
  1 -14.706967 -21.050026 -28.623138 -0.963837 -0.258960 -0.062913 0.856093 0.585306 1 1 1.000000
v_axe
  1 -14.452126 -20.728148 -25.933805 -0.754876 -0.273562 0.596092 0.869914 0.615489 2 1 0.918116 0 0.081884
  1 -14.706967 -21.050026 -28.623138 -0.963837 -0.258960 -0.062913 0.856093 0.585306 1 1 1.000000
  1 -14.023574 -22.237234 -26.508171 -0.758457 -0.414142 0.503219 0.850163 0.616206 2 1 0.995472 0 0.004528
v_axe
  1 -14.951273 -18.055719 -29.246859 -0.950037 0.157878 -0.269267 0.886736 0.568280 2 1 0.927659 0 0.072341
  1 -14.690395 -18.986519 -30.250902 -0.917644 0.060315 -0.392800 0.871376 0.561324 2 1 0.991665 0 0.008335
  1 -14.706967 -21.050026 -28.623138 -0.963837 -0.258960 -0.062913 0.856093 0.585306 1 1 1.000000
v_axe
  1 -14.951273 -18.055719 -29.246859 -0.950037 0.157878 -0.269267 0.886736 0.568280 2 1 0.927659 0 0.072341
  1 -14.706967 -21.050026 -28.623138 -0.963837 -0.258960 -0.062913 0.856093 0.585306 1 1 1.000000
  1 -15.055464 -19.863718 -27.646877 -0.987943 -0.137654 0.070858 0.874414 0.590763 2 1 0.934813 0 0.065187
v_axe
  1 -10.735319 -25.961885 -27.547905 -0.103527 -0.867408 0.486709 0.791259 0.623544 1 1 1.000000
  1 -7.716439 -25.593294 -27.963594 0.579283 -0.698897 0.419493 0.770376 0.653931 1 1 1.000000
  1 -7.690562 -22.916529 -25.768984 0.743155 -0.088959 0.663180 0.815254 0.673129 1 1 1.000000
v_axe
  1 -10.735319 -25.961885 -27.547905 -0.103527 -0.867408 0.486709 0.791259 0.623544 1 1 1.000000
  1 -7.690562 -22.916529 -25.768984 0.743155 -0.088959 0.663180 0.815254 0.673129 1 1 1.000000
  1 -11.081130 -24.744669 -26.455347 -0.175823 -0.623121 0.762107 0.812900 0.630813 1 1 1.000000
v_axe
  1 -13.507574 -17.031307 -31.098652 -0.530136 0.520448 -0.669395 0.954436 0.850623 2 1 0.939319 0 0.060681
  1 -10.278453 -17.162035 -31.882435 0.397511 0.719537 -0.569430 0.902429 0.860241 2 1 0.932076 0 0.067924
  1 -8.885621 -18.622831 -32.967529 0.575141 0.637670 -0.512435 0.880872 0.884156 1 1 1.000000
v_axe
  1 -13.507574 -17.031307 -31.098652 -0.530136 0.520448 -0.669395 0.954436 0.850623 2 1 0.939319 0 0.060681
  1 -8.885621 -18.622831 -32.967529 0.575141 0.637670 -0.512435 0.880872 0.884156 1 1 1.000000
  1 -12.907073 -18.552458 -32.534302 -0.470800 0.369238 -0.801256 0.934318 0.887883 1 1 1.000000
v_axe
  1 -13.507574 -17.031307 -31.098652 -0.530136 0.520448 -0.669395 0.886443 0.539260 2 1 0.939319 0 0.060681
  1 -12.907073 -18.552458 -32.534302 -0.470800 0.369238 -0.801256 0.858745 0.529790 1 1 1.000000
  1 -14.014725 -20.880007 -31.472792 -0.886995 -0.084556 -0.453972 0.843550 0.557128 1 1 1.000000
v_axe
  1 -13.507574 -17.031307 -31.098652 -0.530136 0.520448 -0.669395 0.886443 0.539260 2 1 0.939319 0 0.060681
  1 -14.014725 -20.880007 -31.472792 -0.886995 -0.084556 -0.453972 0.843550 0.557128 1 1 1.000000
  1 -14.690395 -18.986519 -30.250902 -0.917644 0.060315 -0.392800 0.871376 0.561324 2 1 0.991665 0 0.008335
v_axe
  1 -11.901361 -26.034231 -29.197287 -0.405450 -0.913968 0.016525 0.788225 0.609210 1 1 1.000000
  1 -10.735319 -25.961885 -27.547905 -0.103527 -0.867408 0.486709 0.791259 0.623544 1 1 1.000000
  1 -11.081130 -24.744669 -26.455347 -0.175823 -0.623121 0.762107 0.812900 0.630813 1 1 1.000000
v_axe
  1 -11.901361 -26.034231 -29.197287 -0.405450 -0.913968 0.016525 0.788225 0.609210 1 1 1.000000
  1 -11.081130 -24.744669 -26.455347 -0.175823 -0.623121 0.762107 0.812900 0.630813 1 1 1.000000
  1 -13.321926 -24.223717 -27.650887 -0.731142 -0.588421 0.345243 0.824815 0.614003 1 1 1.000000
v_axe
  1 -14.690395 -18.986519 -30.250902 -0.917644 0.060315 -0.392800 0.871376 0.561324 2 1 0.991665 0 0.008335
  1 -14.014725 -20.880007 -31.472792 -0.886995 -0.084556 -0.453972 0.843550 0.557128 1 1 1.000000
  1 -14.005678 -23.040798 -29.788403 -0.912229 -0.384388 -0.141720 0.830050 0.582046 1 1 1.000000
v_axe
  1 -14.690395 -18.986519 -30.250902 -0.917644 0.060315 -0.392800 0.871376 0.561324 2 1 0.991665 0 0.008335
  1 -14.005678 -23.040798 -29.788403 -0.912229 -0.384388 -0.141720 0.830050 0.582046 1 1 1.000000
  1 -14.706967 -21.050026 -28.623138 -0.963837 -0.258960 -0.062913 0.856093 0.585306 1 1 1.000000
v_axe
  1 -11.901361 -26.034231 -29.197287 -0.405450 -0.913968 0.016525 0.788225 0.609210 1 1 1.000000
  1 -13.321926 -24.223717 -27.650887 -0.731142 -0.588421 0.345243 0.824815 0.614003 1 1 1.000000
  1 -14.005678 -23.040798 -29.788403 -0.912229 -0.384388 -0.141720 0.830050 0.582046 1 1 1.000000
v_axe
  1 -11.901361 -26.034231 -29.197287 -0.405450 -0.913968 0.016525 0.788225 0.609210 1 1 1.000000
  1 -14.005678 -23.040798 -29.788403 -0.912229 -0.384388 -0.141720 0.830050 0.582046 1 1 1.000000
  1 -12.477250 -25.136442 -31.520691 -0.506848 -0.738218 -0.445128 0.789182 0.573433 1 1 1.000000
v_axe
  1 -12.670804 -20.616072 -25.441963 -0.230252 -0.174795 0.957304 0.865978 0.625655 2 1 0.948787 0 0.051213
  1 -9.339398 -19.494963 -25.146128 0.686142 0.231760 0.689563 0.870059 0.671832 2 1 0.967025 0 0.032975
  1 -10.860810 -17.374783 -24.751303 0.665199 -0.062828 0.744018 0.905011 0.658475 2 1 0.879400 0 0.120600
v_axe
  1 -12.670804 -20.616072 -25.441963 -0.230252 -0.174795 0.957304 0.865978 0.625655 2 1 0.948787 0 0.051213
  1 -10.860810 -17.374783 -24.751303 0.665199 -0.062828 0.744018 0.905011 0.658475 2 1 0.879400 0 0.120600
  1 -13.168280 -18.424021 -24.600307 -0.095936 -0.423722 0.900697 0.898628 0.625293 2 1 0.825977 0 0.174023
v_axe
  1 -15.055464 -19.863718 -27.646877 -0.987943 -0.137654 0.070858 0.874414 0.590763 2 1 0.934813 0 0.065187
  1 -14.452126 -20.728148 -25.933805 -0.754876 -0.273562 0.596092 0.869914 0.615489 2 1 0.918116 0 0.081884
  1 -14.320982 -18.449049 -25.234583 -0.703431 -0.381431 0.599747 0.896167 0.616412 2 1 0.563573 0 0.436427
v_axe
  1 -15.055464 -19.863718 -27.646877 -0.987943 -0.137654 0.070858 0.874414 0.590763 2 1 0.934813 0 0.065187
  1 -14.320982 -18.449049 -25.234583 -0.703431 -0.381431 0.599747 0.896167 0.616412 2 1 0.563573 0 0.436427
  1 -15.025397 -17.643103 -26.789917 -0.989370 -0.138341 0.044812 0.901389 0.591178 2 1 0.505800 0 0.494200
v_axe
  1 -10.383812 -15.934492 -30.627090 0.530744 0.668457 -0.521033 0.903521 0.828701 2 1 0.830255 0 0.169745
  1 -13.622860 -16.386707 -30.189342 -0.563335 0.529777 -0.634027 0.963597 0.828284 2 1 0.894223 0 0.105777
  1 -13.532068 -15.157808 -29.455963 -0.455673 0.383503 -0.803298 0.960878 0.799274 2 1 0.784622 0 0.215378
v_axe
  1 -10.383812 -15.934492 -30.627090 0.530744 0.668457 -0.521033 0.903521 0.828701 2 1 0.830255 0 0.169745
  1 -13.532068 -15.157808 -29.455963 -0.455673 0.383503 -0.803298 0.960878 0.799274 2 1 0.784622 0 0.215378
  0 -11.300376 -14.398155 -29.239229 0.485397 0.561529 -0.670131 0.916104 0.790760 2 0 0.510051 1 0.489949
v_axe
  1 -9.840418 -16.886425 -29.375118 0.945009 0.324565 -0.040199 0.850023 0.827780 2 1 0.860124 0 0.139876
  1 -10.383812 -15.934492 -30.627090 0.530744 0.668457 -0.521033 0.903521 0.828701 2 1 0.830255 0 0.169745
  0 -11.300376 -14.398155 -29.239229 0.485397 0.561529 -0.670131 0.916104 0.790760 2 0 0.510051 1 0.489949
v_axe
  1 -9.840418 -16.886425 -29.375118 0.945009 0.324565 -0.040199 0.850023 0.827780 2 1 0.860124 0 0.139876
  0 -11.300376 -14.398155 -29.239229 0.485397 0.561529 -0.670131 0.916104 0.790760 2 0 0.510051 1 0.489949
  0 -10.774323 -14.869049 -28.263962 0.929771 0.363041 -0.061042 0.858571 0.783284 2 0 0.501324 1 0.498676
v_axe
  1 -9.339398 -19.494963 -25.146128 0.686142 0.231760 0.689563 0.774165 0.827493 2 1 0.967025 0 0.032975
  1 -9.637851 -18.177631 -27.184399 0.944933 0.311734 0.099623 0.813338 0.823872 2 1 0.935965 0 0.064035
  1 -10.520027 -16.166855 -26.270824 0.947112 0.264233 0.182097 0.815080 0.779902 2 1 0.810444 0 0.189556
v_axe
  1 -9.339398 -19.494963 -25.146128 0.686142 0.231760 0.689563 0.774165 0.827493 2 1 0.967025 0 0.032975
  1 -10.520027 -16.166855 -26.270824 0.947112 0.264233 0.182097 0.815080 0.779902 2 1 0.810444 0 0.189556
  1 -10.860810 -17.374783 -24.751303 0.665199 -0.062828 0.744018 0.782315 0.781245 2 1 0.879400 0 0.120600
v_axe
  1 -13.622860 -16.386707 -30.189342 -0.563335 0.529777 -0.634027 0.898957 0.545608 2 1 0.894223 0 0.105777
  1 -14.951273 -18.055719 -29.246859 -0.950037 0.157878 -0.269267 0.886736 0.568280 2 1 0.927659 0 0.072341
  1 -14.713184 -16.401560 -28.373838 -0.909510 0.109043 -0.401124 0.909278 0.569676 2 1 0.829803 0 0.170197
v_axe
  1 -13.622860 -16.386707 -30.189342 -0.563335 0.529777 -0.634027 0.898957 0.545608 2 1 0.894223 0 0.105777
  1 -14.713184 -16.401560 -28.373838 -0.909510 0.109043 -0.401124 0.909278 0.569676 2 1 0.829803 0 0.170197
  1 -13.532068 -15.157808 -29.455963 -0.455673 0.383503 -0.803298 0.919771 0.547310 2 1 0.784622 0 0.215378
v_axe
  1 -14.452126 -20.728148 -25.933805 -0.754876 -0.273562 0.596092 0.869914 0.615489 2 1 0.918116 0 0.081884
  1 -12.670804 -20.616072 -25.441963 -0.230252 -0.174795 0.957304 0.865978 0.625655 2 1 0.948787 0 0.051213
  1 -13.168280 -18.424021 -24.600307 -0.095936 -0.423722 0.900697 0.898628 0.625293 2 1 0.825977 0 0.174023
v_axe
  1 -14.452126 -20.728148 -25.933805 -0.754876 -0.273562 0.596092 0.869914 0.615489 2 1 0.918116 0 0.081884
  1 -13.168280 -18.424021 -24.600307 -0.095936 -0.423722 0.900697 0.898628 0.625293 2 1 0.825977 0 0.174023
  1 -14.320982 -18.449049 -25.234583 -0.703431 -0.381431 0.599747 0.896167 0.616412 2 1 0.563573 0 0.436427
v_axe
  1 -14.951273 -18.055719 -29.246859 -0.950037 0.157878 -0.269267 0.886736 0.568280 2 1 0.927659 0 0.072341
  1 -15.055464 -19.863718 -27.646877 -0.987943 -0.137654 0.070858 0.874414 0.590763 2 1 0.934813 0 0.065187
  1 -15.025397 -17.643103 -26.789917 -0.989370 -0.138341 0.044812 0.901389 0.591178 2 1 0.505800 0 0.494200
v_axe
  1 -14.951273 -18.055719 -29.246859 -0.950037 0.157878 -0.269267 0.886736 0.568280 2 1 0.927659 0 0.072341
  1 -15.025397 -17.643103 -26.789917 -0.989370 -0.138341 0.044812 0.901389 0.591178 2 1 0.505800 0 0.494200
  1 -14.713184 -16.401560 -28.373838 -0.909510 0.109043 -0.401124 0.909278 0.569676 2 1 0.829803 0 0.170197
v_axe
  1 -9.637851 -18.177631 -27.184399 0.944933 0.311734 0.099623 0.813338 0.823872 2 1 0.935965 0 0.064035
  1 -9.840418 -16.886425 -29.375118 0.945009 0.324565 -0.040199 0.850023 0.827780 2 1 0.860124 0 0.139876
  0 -10.774323 -14.869049 -28.263962 0.929771 0.363041 -0.061042 0.858571 0.783284 2 0 0.501324 1 0.498676
v_axe
  1 -9.637851 -18.177631 -27.184399 0.944933 0.311734 0.099623 0.813338 0.823872 2 1 0.935965 0 0.064035
  0 -10.774323 -14.869049 -28.263962 0.929771 0.363041 -0.061042 0.858571 0.783284 2 0 0.501324 1 0.498676
  1 -10.520027 -16.166855 -26.270824 0.947112 0.264233 0.182097 0.815080 0.779902 2 1 0.810444 0 0.189556
v_axe
  1 -11.901361 -26.034231 -29.197287 -0.405450 -0.913968 0.016525 0.825074 0.982452 1 1 1.000000
  1 -7.398153 -25.972235 -29.584854 0.697395 -0.707762 -0.112756 0.803129 0.936664 1 1 1.000000
  1 -7.716439 -25.593294 -27.963594 0.579283 -0.698897 0.419493 0.792841 0.939682 1 1 1.000000
v_axe
  1 -11.901361 -26.034231 -29.197287 -0.405450 -0.913968 0.016525 0.825074 0.982452 1 1 1.000000
  1 -7.716439 -25.593294 -27.963594 0.579283 -0.698897 0.419493 0.792841 0.939682 1 1 1.000000
  1 -10.735319 -25.961885 -27.547905 -0.103527 -0.867408 0.486709 0.802745 0.974085 1 1 1.000000
v_axe
  1 -7.398153 -25.972235 -29.584854 0.697395 -0.707762 -0.112756 0.803129 0.936664 1 1 1.000000
  1 -7.690562 -22.916529 -25.768984 0.743155 -0.088959 0.663180 0.765361 0.886311 1 1 1.000000
  1 -7.716439 -25.593294 -27.963594 0.579283 -0.698897 0.419493 0.792841 0.939682 1 1 1.000000
v_axe
  1 -10.860810 -17.374783 -24.751303 0.665199 -0.062828 0.744018 0.009069 0.794532 2 1 0.879400 0 0.120600
  1 -10.520027 -16.166855 -26.270824 0.947112 0.264233 0.182097 0.007755 0.835894 2 1 0.810444 0 0.189556
  0 -13.221440 -4.745633 -19.968136 0.967766 0.182311 0.173760 0.230617 0.840751 1 0 1.000000
v_axe
  1 -10.860810 -17.374783 -24.751303 0.665199 -0.062828 0.744018 0.009069 0.794532 2 1 0.879400 0 0.120600
  0 -13.221440 -4.745633 -19.968136 0.967766 0.182311 0.173760 0.230617 0.840751 1 0 1.000000
  0 -13.749324 -6.358721 -17.735392 0.711381 -0.176492 0.680285 0.234226 0.791754 1 0 1.000000
v_axe
  1 -13.532068 -15.157808 -29.455963 -0.455673 0.383503 -0.803298 0.010677 0.663562 2 1 0.784622 0 0.215378
  1 -14.713184 -16.401560 -28.373838 -0.909510 0.109043 -0.401124 0.010110 0.693865 2 1 0.829803 0 0.170197
  0 -18.305466 -4.907475 -22.970837 -0.883030 0.026856 -0.468548 0.229122 0.668482 1 0 1.000000
v_axe
  1 -13.532068 -15.157808 -29.455963 -0.455673 0.383503 -0.803298 0.010677 0.663562 2 1 0.784622 0 0.215378
  0 -18.305466 -4.907475 -22.970837 -0.883030 0.026856 -0.468548 0.229122 0.668482 1 0 1.000000
  0 -16.709707 -3.259512 -24.574280 -0.447779 0.339901 -0.827019 0.228322 0.629906 1 0 1.000000
v_axe
  1 -14.713184 -16.401560 -28.373838 -0.909510 0.109043 -0.401124 0.010110 0.693865 2 1 0.829803 0 0.170197
  1 -15.025397 -17.643103 -26.789917 -0.989370 -0.138341 0.044812 0.008939 0.718901 2 1 0.505800 0 0.494200
  0 -18.794409 -6.564154 -20.643629 -0.970323 -0.239918 -0.030204 0.229954 0.702239 1 0 1.000000
v_axe
  1 -14.713184 -16.401560 -28.373838 -0.909510 0.109043 -0.401124 0.010110 0.693865 2 1 0.829803 0 0.170197
  0 -18.794409 -6.564154 -20.643629 -0.970323 -0.239918 -0.030204 0.229954 0.702239 1 0 1.000000
  0 -18.305466 -4.907475 -22.970837 -0.883030 0.026856 -0.468548 0.229122 0.668482 1 0 1.000000
v_axe
  1 -10.520027 -16.166855 -26.270824 0.947112 0.264233 0.182097 0.007755 0.835894 2 1 0.810444 0 0.189556
  0 -10.774323 -14.869049 -28.263962 0.929771 0.363041 -0.061042 0.006766 0.883319 2 0 0.501324 1 0.498676
  0 -13.528639 -3.033634 -22.894133 0.933375 0.337465 -0.122180 0.226998 0.898843 1 0 1.000000
v_axe
  1 -10.520027 -16.166855 -26.270824 0.947112 0.264233 0.182097 0.007755 0.835894 2 1 0.810444 0 0.189556
  0 -13.528639 -3.033634 -22.894133 0.933375 0.337465 -0.122180 0.226998 0.898843 1 0 1.000000
  0 -13.221440 -4.745633 -19.968136 0.967766 0.182311 0.173760 0.230617 0.840751 1 0 1.000000
v_axe
  1 -13.168280 -18.424021 -24.600307 -0.095936 -0.423722 0.900697 0.009313 0.750553 2 1 0.825977 0 0.174023
  1 -10.860810 -17.374783 -24.751303 0.665199 -0.062828 0.744018 0.009069 0.794532 2 1 0.879400 0 0.120600
  0 -13.749324 -6.358721 -17.735392 0.711381 -0.176492 0.680285 0.234226 0.791754 1 0 1.000000
v_axe
  1 -13.168280 -18.424021 -24.600307 -0.095936 -0.423722 0.900697 0.009313 0.750553 2 1 0.825977 0 0.174023
  0 -13.749324 -6.358721 -17.735392 0.711381 -0.176492 0.680285 0.234226 0.791754 1 0 1.000000
  0 -16.208033 -7.536311 -17.435192 -0.062870 -0.499356 0.864113 0.233416 0.757782 1 0 1.000000
v_axe
  1 -15.025397 -17.643103 -26.789917 -0.989370 -0.138341 0.044812 0.008939 0.718901 2 1 0.505800 0 0.494200
  1 -14.320982 -18.449049 -25.234583 -0.703431 -0.381431 0.599747 0.008627 0.738188 2 1 0.563573 0 0.436427
  0 -17.833483 -7.608720 -18.362263 -0.705065 -0.479627 0.522342 0.232115 0.743184 1 0 1.000000
v_axe
  1 -15.025397 -17.643103 -26.789917 -0.989370 -0.138341 0.044812 0.008939 0.718901 2 1 0.505800 0 0.494200
  0 -17.833483 -7.608720 -18.362263 -0.705065 -0.479627 0.522342 0.232115 0.743184 1 0 1.000000
  0 -18.794409 -6.564154 -20.643629 -0.970323 -0.239918 -0.030204 0.229954 0.702239 1 0 1.000000
v_axe
  0 -10.774323 -14.869049 -28.263962 0.929771 0.363041 -0.061042 0.006766 0.883319 2 0 0.501324 1 0.498676
  0 -11.300376 -14.398155 -29.239229 0.485397 0.561529 -0.670131 0.007526 0.916737 2 0 0.510051 1 0.489949
  0 -14.251418 -2.427218 -24.324337 0.472877 0.532133 -0.702298 0.226967 0.943537 1 0 1.000000
v_axe
  0 -10.774323 -14.869049 -28.263962 0.929771 0.363041 -0.061042 0.006766 0.883319 2 0 0.501324 1 0.498676
  0 -14.251418 -2.427218 -24.324337 0.472877 0.532133 -0.702298 0.226967 0.943537 1 0 1.000000
  0 -13.528639 -3.033634 -22.894133 0.933375 0.337465 -0.122180 0.226998 0.898843 1 0 1.000000
v_axe
  0 -11.300376 -14.398155 -29.239229 0.485397 0.561529 -0.670131 0.007526 0.916737 2 0 0.510051 1 0.489949
  1 -13.532068 -15.157808 -29.455963 -0.455673 0.383503 -0.803298 0.008875 0.964283 2 1 0.784622 0 0.215378
  0 -16.709707 -3.259512 -24.574280 -0.447779 0.339901 -0.827019 0.226927 0.981159 1 0 1.000000
v_axe
  0 -11.300376 -14.398155 -29.239229 0.485397 0.561529 -0.670131 0.007526 0.916737 2 0 0.510051 1 0.489949
  0 -16.709707 -3.259512 -24.574280 -0.447779 0.339901 -0.827019 0.226927 0.981159 1 0 1.000000
  0 -14.251418 -2.427218 -24.324337 0.472877 0.532133 -0.702298 0.226967 0.943537 1 0 1.000000
v_axe
  1 -14.320982 -18.449049 -25.234583 -0.703431 -0.381431 0.599747 0.008627 0.738188 2 1 0.563573 0 0.436427
  1 -13.168280 -18.424021 -24.600307 -0.095936 -0.423722 0.900697 0.009313 0.750553 2 1 0.825977 0 0.174023
  0 -16.208033 -7.536311 -17.435192 -0.062870 -0.499356 0.864113 0.233416 0.757782 1 0 1.000000
v_axe
  1 -14.320982 -18.449049 -25.234583 -0.703431 -0.381431 0.599747 0.008627 0.738188 2 1 0.563573 0 0.436427
  0 -16.208033 -7.536311 -17.435192 -0.062870 -0.499356 0.864113 0.233416 0.757782 1 0 1.000000
  0 -17.833483 -7.608720 -18.362263 -0.705065 -0.479627 0.522342 0.232115 0.743184 1 0 1.000000
v_axe
  0 -13.528639 -3.033634 -22.894133 0.933375 0.337465 -0.122180 0.226998 0.898843 1 0 1.000000
  0 -14.251418 -2.427218 -24.324337 0.472877 0.532133 -0.702298 0.226967 0.943537 1 0 1.000000
  0 -16.728857 4.949620 -18.961658 0.473634 0.554977 -0.683865 0.391757 0.953014 1 0 1.000000
v_axe
  0 -13.528639 -3.033634 -22.894133 0.933375 0.337465 -0.122180 0.226998 0.898843 1 0 1.000000
  0 -16.728857 4.949620 -18.961658 0.473634 0.554977 -0.683865 0.391757 0.953014 1 0 1.000000
  0 -16.156965 4.473479 -17.822147 0.938538 0.323775 -0.119651 0.392307 0.898184 1 0 1.000000
v_axe
  0 -14.251418 -2.427218 -24.324337 0.472877 0.532133 -0.702298 0.226967 0.943537 1 0 1.000000
  0 -16.709707 -3.259512 -24.574280 -0.447779 0.339901 -0.827019 0.226927 0.981159 1 0 1.000000
  0 -18.619556 4.309991 -19.155138 -0.479678 0.379818 -0.790979 0.390973 0.988442 1 0 1.000000
v_axe
  0 -14.251418 -2.427218 -24.324337 0.472877 0.532133 -0.702298 0.226967 0.943537 1 0 1.000000
  0 -18.619556 4.309991 -19.155138 -0.479678 0.379818 -0.790979 0.390973 0.988442 1 0 1.000000
  0 -16.728857 4.949620 -18.961658 0.473634 0.554977 -0.683865 0.391757 0.953014 1 0 1.000000
v_axe
  0 -17.833483 -7.608720 -18.362263 -0.705065 -0.479627 0.522342 0.232115 0.743184 1 0 1.000000
  0 -16.208033 -7.536311 -17.435192 -0.062870 -0.499356 0.864113 0.233416 0.757782 1 0 1.000000
  0 -18.294540 0.919908 -13.471599 -0.056924 -0.506766 0.860202 0.394773 0.751633 1 0 1.000000
v_axe
  0 -17.833483 -7.608720 -18.362263 -0.705065 -0.479627 0.522342 0.232115 0.743184 1 0 1.000000
  0 -18.294540 0.919908 -13.471599 -0.056924 -0.506766 0.860202 0.394773 0.751633 1 0 1.000000
  0 -19.584393 0.859185 -14.209994 -0.715204 -0.467064 0.519937 0.393009 0.738667 1 0 1.000000
v_axe
  0 -13.749324 -6.358721 -17.735392 0.711381 -0.176492 0.680285 0.234226 0.791754 1 0 1.000000
  0 -13.221440 -4.745633 -19.968136 0.967766 0.182311 0.173760 0.230617 0.840751 1 0 1.000000
  0 -15.917676 3.125345 -15.490615 0.973769 0.162474 0.159300 0.395541 0.840415 1 0 1.000000
v_axe
  0 -13.749324 -6.358721 -17.735392 0.711381 -0.176492 0.680285 0.234226 0.791754 1 0 1.000000
  0 -15.917676 3.125345 -15.490615 0.973769 0.162474 0.159300 0.395541 0.840415 1 0 1.000000
  0 -16.340696 1.853251 -13.711333 0.730776 -0.192378 0.654948 0.397429 0.786920 1 0 1.000000
v_axe
  0 -16.709707 -3.259512 -24.574280 -0.447779 0.339901 -0.827019 0.228322 0.629906 1 0 1.000000
  0 -18.305466 -4.907475 -22.970837 -0.883030 0.026856 -0.468548 0.229122 0.668482 1 0 1.000000
  0 -19.951859 2.986340 -17.882261 -0.897612 0.056405 -0.437163 0.390479 0.668640 1 0 1.000000
v_axe
  0 -16.709707 -3.259512 -24.574280 -0.447779 0.339901 -0.827019 0.228322 0.629906 1 0 1.000000
  0 -19.951859 2.986340 -17.882261 -0.897612 0.056405 -0.437163 0.390479 0.668640 1 0 1.000000
  0 -18.619556 4.309991 -19.155138 -0.479678 0.379818 -0.790979 0.390449 0.633657 1 0 1.000000
v_axe
  0 -18.305466 -4.907475 -22.970837 -0.883030 0.026856 -0.468548 0.229122 0.668482 1 0 1.000000
  0 -18.794409 -6.564154 -20.643629 -0.970323 -0.239918 -0.030204 0.229954 0.702239 1 0 1.000000
  0 -20.344099 1.679992 -16.027710 -0.976430 -0.215154 -0.017117 0.391074 0.699209 1 0 1.000000
v_axe
  0 -18.305466 -4.907475 -22.970837 -0.883030 0.026856 -0.468548 0.229122 0.668482 1 0 1.000000
  0 -20.344099 1.679992 -16.027710 -0.976430 -0.215154 -0.017117 0.391074 0.699209 1 0 1.000000
  0 -19.951859 2.986340 -17.882261 -0.897612 0.056405 -0.437163 0.390479 0.668640 1 0 1.000000
v_axe
  0 -13.221440 -4.745633 -19.968136 0.967766 0.182311 0.173760 0.230617 0.840751 1 0 1.000000
  0 -13.528639 -3.033634 -22.894133 0.933375 0.337465 -0.122180 0.226998 0.898843 1 0 1.000000
  0 -16.156965 4.473479 -17.822147 0.938538 0.323775 -0.119651 0.392307 0.898184 1 0 1.000000
v_axe
  0 -13.221440 -4.745633 -19.968136 0.967766 0.182311 0.173760 0.230617 0.840751 1 0 1.000000
  0 -16.156965 4.473479 -17.822147 0.938538 0.323775 -0.119651 0.392307 0.898184 1 0 1.000000
  0 -15.917676 3.125345 -15.490615 0.973769 0.162474 0.159300 0.395541 0.840415 1 0 1.000000
v_axe
  0 -16.208033 -7.536311 -17.435192 -0.062870 -0.499356 0.864113 0.233416 0.757782 1 0 1.000000
  0 -13.749324 -6.358721 -17.735392 0.711381 -0.176492 0.680285 0.234226 0.791754 1 0 1.000000
  0 -16.340696 1.853251 -13.711333 0.730776 -0.192378 0.654948 0.397429 0.786920 1 0 1.000000
v_axe
  0 -16.208033 -7.536311 -17.435192 -0.062870 -0.499356 0.864113 0.233416 0.757782 1 0 1.000000
  0 -16.340696 1.853251 -13.711333 0.730776 -0.192378 0.654948 0.397429 0.786920 1 0 1.000000
  0 -18.294540 0.919908 -13.471599 -0.056924 -0.506766 0.860202 0.394773 0.751633 1 0 1.000000
v_axe
  0 -18.794409 -6.564154 -20.643629 -0.970323 -0.239918 -0.030204 0.229954 0.702239 1 0 1.000000
  0 -17.833483 -7.608720 -18.362263 -0.705065 -0.479627 0.522342 0.232115 0.743184 1 0 1.000000
  0 -19.584393 0.859185 -14.209994 -0.715204 -0.467064 0.519937 0.393009 0.738667 1 0 1.000000
v_axe
  0 -18.794409 -6.564154 -20.643629 -0.970323 -0.239918 -0.030204 0.229954 0.702239 1 0 1.000000
  0 -19.584393 0.859185 -14.209994 -0.715204 -0.467064 0.519937 0.393009 0.738667 1 0 1.000000
  0 -20.344099 1.679992 -16.027710 -0.976430 -0.215154 -0.017117 0.391074 0.699209 1 0 1.000000
v_axe
  0 -15.917676 3.125345 -15.490615 0.973769 0.162474 0.159300 0.395541 0.840415 1 0 1.000000
  0 -16.156965 4.473479 -17.822147 0.938538 0.323775 -0.119651 0.392307 0.898184 1 0 1.000000
  0 -18.649290 17.567867 -10.383224 0.948980 0.271495 -0.160399 0.655721 0.905287 1 0 1.000000
v_axe
  0 -15.917676 3.125345 -15.490615 0.973769 0.162474 0.159300 0.395541 0.840415 1 0 1.000000
  0 -18.649290 17.567867 -10.383224 0.948980 0.271495 -0.160399 0.655721 0.905287 1 0 1.000000
  0 -18.295332 15.759667 -7.602594 0.986586 0.111264 0.119451 0.656472 0.850493 1 0 1.000000
v_axe
  0 -18.294540 0.919908 -13.471599 -0.056924 -0.506766 0.860202 0.394773 0.751633 1 0 1.000000
  0 -16.340696 1.853251 -13.711333 0.730776 -0.192378 0.654948 0.397429 0.786920 1 0 1.000000
  0 -18.771088 14.076461 -5.482676 0.773018 -0.240896 0.586866 0.659222 0.791457 1 0 1.000000
v_axe
  0 -18.294540 0.919908 -13.471599 -0.056924 -0.506766 0.860202 0.394773 0.751633 1 0 1.000000
  0 -18.771088 14.076461 -5.482676 0.773018 -0.240896 0.586866 0.659222 0.791457 1 0 1.000000
  0 -21.171272 12.899730 -5.203606 0.001161 -0.567817 0.823154 0.658173 0.749778 1 0 1.000000
v_axe
  0 -20.344099 1.679992 -16.027710 -0.976430 -0.215154 -0.017117 0.391074 0.699209 1 0 1.000000
  0 -19.584393 0.859185 -14.209994 -0.715204 -0.467064 0.519937 0.393009 0.738667 1 0 1.000000
  0 -22.778568 12.864385 -6.088436 -0.682074 -0.525640 0.508406 0.656776 0.732647 1 0 1.000000
v_axe
  0 -20.344099 1.679992 -16.027710 -0.976430 -0.215154 -0.017117 0.391074 0.699209 1 0 1.000000
  0 -22.778568 12.864385 -6.088436 -0.682074 -0.525640 0.508406 0.656776 0.732647 1 0 1.000000
  0 -23.760393 13.987067 -8.258262 -0.968648 -0.245704 -0.036741 0.656779 0.684247 1 0 1.000000
v_axe
  0 -16.156965 4.473479 -17.822147 0.938538 0.323775 -0.119651 0.392307 0.898184 1 0 1.000000
  0 -16.728857 4.949620 -18.961658 0.473634 0.554977 -0.683865 0.391757 0.953014 1 0 1.000000
  0 -19.382572 18.223772 -11.743805 0.519021 0.485878 -0.703235 0.658531 0.960190 1 0 1.000000
v_axe
  0 -16.156965 4.473479 -17.822147 0.938538 0.323775 -0.119651 0.392307 0.898184 1 0 1.000000
  0 -19.382572 18.223772 -11.743805 0.519021 0.485878 -0.703235 0.658531 0.960190 1 0 1.000000
  0 -18.649290 17.567867 -10.383224 0.948980 0.271495 -0.160399 0.655721 0.905287 1 0 1.000000
v_axe
  0 -16.728857 4.949620 -18.961658 0.473634 0.554977 -0.683865 0.391757 0.953014 1 0 1.000000
  0 -18.619556 4.309991 -19.155138 -0.479678 0.379818 -0.790979 0.390973 0.988442 1 0 1.000000
  0 -21.823833 17.399162 -11.990035 -0.425403 0.353386 -0.833157 0.658494 0.991332 1 0 1.000000
v_axe
  0 -16.728857 4.949620 -18.961658 0.473634 0.554977 -0.683865 0.391757 0.953014 1 0 1.000000
  0 -21.823833 17.399162 -11.990035 -0.425403 0.353386 -0.833157 0.658494 0.991332 1 0 1.000000
  0 -19.382572 18.223772 -11.743805 0.519021 0.485878 -0.703235 0.658531 0.960190 1 0 1.000000
v_axe
  0 -19.584393 0.859185 -14.209994 -0.715204 -0.467064 0.519937 0.393009 0.738667 1 0 1.000000
  0 -18.294540 0.919908 -13.471599 -0.056924 -0.506766 0.860202 0.394773 0.751633 1 0 1.000000
  0 -21.171272 12.899730 -5.203606 0.001161 -0.567817 0.823154 0.658173 0.749778 1 0 1.000000
v_axe
  0 -19.584393 0.859185 -14.209994 -0.715204 -0.467064 0.519937 0.393009 0.738667 1 0 1.000000
  0 -21.171272 12.899730 -5.203606 0.001161 -0.567817 0.823154 0.658173 0.749778 1 0 1.000000
  0 -22.778568 12.864385 -6.088436 -0.682074 -0.525640 0.508406 0.656776 0.732647 1 0 1.000000
v_axe
  0 -16.340696 1.853251 -13.711333 0.730776 -0.192378 0.654948 0.397429 0.786920 1 0 1.000000
  0 -15.917676 3.125345 -15.490615 0.973769 0.162474 0.159300 0.395541 0.840415 1 0 1.000000
  0 -18.295332 15.759667 -7.602594 0.986586 0.111264 0.119451 0.656472 0.850493 1 0 1.000000
v_axe
  0 -16.340696 1.853251 -13.711333 0.730776 -0.192378 0.654948 0.397429 0.786920 1 0 1.000000
  0 -18.295332 15.759667 -7.602594 0.986586 0.111264 0.119451 0.656472 0.850493 1 0 1.000000
  0 -18.771088 14.076461 -5.482676 0.773018 -0.240896 0.586866 0.659222 0.791457 1 0 1.000000
v_axe
  0 -18.619556 4.309991 -19.155138 -0.479678 0.379818 -0.790979 0.390449 0.633657 1 0 1.000000
  0 -19.951859 2.986340 -17.882261 -0.897612 0.056405 -0.437163 0.390479 0.668640 1 0 1.000000
  0 -23.324455 15.717092 -10.468026 -0.882864 0.037282 -0.468146 0.657567 0.646697 1 0 1.000000
v_axe
  0 -18.619556 4.309991 -19.155138 -0.479678 0.379818 -0.790979 0.390449 0.633657 1 0 1.000000
  0 -23.324455 15.717092 -10.468026 -0.882864 0.037282 -0.468146 0.657567 0.646697 1 0 1.000000
  0 -21.823833 17.399162 -11.990035 -0.425403 0.353386 -0.833157 0.658826 0.615834 1 0 1.000000
v_axe
  0 -19.951859 2.986340 -17.882261 -0.897612 0.056405 -0.437163 0.390479 0.668640 1 0 1.000000
  0 -20.344099 1.679992 -16.027710 -0.976430 -0.215154 -0.017117 0.391074 0.699209 1 0 1.000000
  0 -23.760393 13.987067 -8.258262 -0.968648 -0.245704 -0.036741 0.656779 0.684247 1 0 1.000000
v_axe
  0 -19.951859 2.986340 -17.882261 -0.897612 0.056405 -0.437163 0.390479 0.668640 1 0 1.000000
  0 -23.760393 13.987067 -8.258262 -0.968648 -0.245704 -0.036741 0.656779 0.684247 1 0 1.000000
  0 -23.324455 15.717092 -10.468026 -0.882864 0.037282 -0.468146 0.657567 0.646697 1 0 1.000000
end
