version 1
nodes
0 "v0" -1
1 "v1" -1
2 "v2" -1
3 "v3" -1
4 "v4" -1
5 "v5" -1
6 "v6" -1
7 "v7" -1
8 "v8" -1
9 "v9" -1
10 "v10" -1
11 "v11" -1
12 "v12" -1
13 "v13" -1
14 "v14" -1
15 "v15" -1
16 "v16" -1
17 "v17" -1
18 "v18" -1
19 "v19" -1
20 "v20" -1
21 "v21" -1
22 "v22" -1
23 "v23" -1
24 "v24" -1
25 "v25" -1
26 "v26" -1
27 "v27" -1
28 "v28" -1
29 "v29" -1
30 "v30" -1
31 "v31" -1
32 "v32" -1
33 "v33" -1
34 "v34" -1
35 "v35" -1
36 "v36" -1
37 "v37" -1
38 "v38" -1
39 "v39" -1
40 "v40" -1
41 "v41" -1
42 "v42" -1
43 "v43" -1
44 "v44" -1
45 "v45" -1
46 "v46" -1
47 "v47" -1
48 "v48" -1
49 "v49" -1
50 "v50" -1
51 "v51" -1
52 "v52" -1
53 "v53" -1
54 "v54" -1
55 "v55" -1
56 "v56" -1
57 "v57" -1
58 "v58" -1
59 "v59" -1
60 "v60" -1
61 "v61" -1
62 "v62" -1
63 "v63" -1
64 "v64" -1
65 "v65" -1
66 "v66" -1
67 "v67" -1
68 "v68" -1
69 "v69" -1
70 "v70" -1
71 "v71" -1
72 "v72" -1
73 "v73" -1
74 "v74" -1
75 "v75" -1
76 "v76" -1
77 "v77" -1
78 "v78" -1
79 "v79" -1
80 "v80" -1
81 "v81" -1
82 "v82" -1
83 "v83" -1
84 "v84" -1
85 "v85" -1
86 "v86" -1
87 "v87" -1
88 "v88" -1
89 "v89" -1
90 "v90" -1
91 "v91" -1
92 "v92" -1
93 "v93" -1
94 "v94" -1
95 "v95" -1
96 "v96" -1
97 "v97" -1
98 "v98" -1
99 "v99" -1
100 "v100" -1
101 "v101" -1
102 "v102" -1
103 "v103" -1
104 "v104" -1
105 "v105" -1
106 "v106" -1
107 "v107" -1
108 "v108" -1
109 "v109" -1
110 "v110" -1
111 "v111" -1
112 "v112" -1
113 "v113" -1
114 "v114" -1
115 "v115" -1
116 "v116" -1
117 "v117" -1
118 "v118" -1
119 "v119" -1
120 "v120" -1
121 "v121" -1
122 "v122" -1
123 "v123" -1
124 "v124" -1
125 "v125" -1
126 "v126" -1
127 "v127" -1
128 "v128" -1
129 "v129" -1
130 "v130" -1
131 "v131" -1
132 "v132" -1
133 "v133" -1
134 "v134" -1
135 "v135" -1
136 "v136" -1
137 "v137" -1
138 "v138" -1
139 "v139" -1
140 "v140" -1
141 "v141" -1
142 "v142" -1
143 "v143" -1
144 "v144" -1
145 "v145" -1
146 "v146" -1
147 "v147" -1
148 "v148" -1
149 "v149" -1
150 "v150" -1
151 "v151" -1
152 "v152" -1
153 "v153" -1
154 "v154" -1
155 "v155" -1
156 "v156" -1
157 "v157" -1
158 "v158" -1
159 "v159" -1
160 "v160" -1
161 "v161" -1
162 "v162" -1
163 "v163" -1
164 "v164" -1
165 "v165" -1
166 "v166" -1
167 "v167" -1
168 "v168" -1
169 "v169" -1
170 "v170" -1
171 "v171" -1
172 "v172" -1
173 "v173" -1
174 "v174" -1
175 "v175" -1
176 "v176" -1
177 "v177" -1
178 "v178" -1
179 "v179" -1
180 "v180" -1
181 "v181" -1
182 "v182" -1
183 "v183" -1
184 "v184" -1
185 "v185" -1
186 "v186" -1
187 "v187" -1
end
skeleton
  time 0
  0 -0.801964 -10.737805 -16.645235 0.000000 -0.000000 -1.570796
  1 -0.810389 -9.577806 -18.095236 0.000000 -0.000000 -1.570796
  2 -0.810389 -8.997809 -20.705240 0.000000 -0.000000 -1.570796
  3 -0.810389 -10.447810 -22.735237 0.000000 -0.000000 -1.570796
  4 -0.801964 -14.217811 -16.645237 0.000000 -0.000000 -1.570796
  5 -0.810389 -13.057809 -23.315239 0.000000 -0.000000 -1.570796
  6 -0.810389 -11.897810 -21.285240 0.000000 -0.000000 -1.570796
  7 -0.810389 -12.187808 -18.675238 0.000000 -0.000000 -1.570796
  8 0.822036 -22.627808 -16.645235 0.000000 -0.000000 -1.570796
  9 0.813610 -24.947805 -23.315239 0.000000 -0.000000 -1.570796
  10 0.813610 -23.787811 -21.285240 0.000000 -0.000000 -1.570796
  11 0.813610 -24.077806 -18.675238 0.000000 -0.000000 -1.570796
  12 -1.215787 -6.097810 -16.645237 0.000000 -0.000000 -1.570796
  13 -1.215787 -6.097810 -14.615238 0.000000 -0.000000 -1.570796
  14 1.220213 -6.097810 -16.645237 0.000000 -0.000000 -1.570796
  15 1.220213 -6.097810 -14.615238 0.000000 -0.000000 -1.570796
  16 -1.215788 -30.907234 -16.645237 0.000000 -0.000000 -1.570796
  17 -1.215788 -30.907234 -14.615238 0.000000 -0.000000 -1.570796
  18 1.220212 -30.907234 -16.645237 0.000000 -0.000000 -1.570796
  19 1.220212 -30.907234 -14.615238 0.000000 -0.000000 -1.570796
  20 0.002213 -6.097810 -13.455238 0.000000 -0.000000 -1.570796
  21 0.002212 -30.907234 -13.455238 0.000000 -0.000000 -1.570796
  22 -0.810390 -24.077806 -18.675238 0.000000 -0.000000 -1.570796
  23 -0.810390 -23.787811 -21.285240 0.000000 -0.000000 -1.570796
  24 -0.810390 -24.947805 -23.315239 0.000000 -0.000000 -1.570796
  25 -0.801964 -26.107815 -16.645237 0.000000 -0.000000 -1.570796
  26 -0.810390 -22.337811 -22.735237 0.000000 -0.000000 -1.570796
  27 -0.810389 -20.887812 -20.705240 0.000000 -0.000000 -1.570796
  28 -0.810390 -21.467808 -18.095236 0.000000 -0.000000 -1.570796
  29 -0.801964 -22.627808 -16.645235 0.000000 -0.000000 -1.570796
  30 0.813611 -12.187808 -18.675238 0.000000 -0.000000 -1.570796
  31 0.813611 -11.897810 -21.285240 0.000000 -0.000000 -1.570796
  32 0.813611 -13.057809 -23.315239 0.000000 -0.000000 -1.570796
  33 0.002213 -6.097810 -17.232550 0.000000 -0.000000 -1.570796
  34 0.002212 -30.907234 -17.232550 0.000000 -0.000000 -1.570796
  35 0.822037 -10.737805 -16.645235 0.000000 -0.000000 -1.570796
  36 0.813611 -9.577806 -18.095236 0.000000 -0.000000 -1.570796
  37 0.822036 -14.217811 -16.645237 0.000000 -0.000000 -1.570796
  38 0.813611 -10.447810 -22.735237 0.000000 -0.000000 -1.570796
  39 0.813611 -8.997809 -20.705240 0.000000 -0.000000 -1.570796
  40 6.117135 -17.539625 -15.825428 0.000000 -0.000000 -1.570796
  41 6.117135 -17.539625 -12.473610 0.000000 -0.000000 -1.570796
  42 5.298895 -20.593327 -15.825428 0.000000 -0.000000 -1.570796
  43 5.298895 -20.593327 -12.473610 0.000000 -0.000000 -1.570796
  44 3.063434 -22.828785 -15.825428 0.000000 -0.000000 -1.570796
  45 3.063434 -22.828785 -12.473610 0.000000 -0.000000 -1.570796
  46 0.009733 -23.647028 -15.825428 0.000000 -0.000000 -1.570796
  47 0.009733 -23.647028 -12.473610 0.000000 -0.000000 -1.570796
  48 -3.043967 -22.828785 -15.825428 0.000000 -0.000000 -1.570796
  49 -3.043967 -22.828785 -12.473610 0.000000 -0.000000 -1.570796
  50 -5.279430 -20.593327 -15.825428 0.000000 -0.000000 -1.570796
  51 -5.279430 -20.593327 -12.473610 0.000000 -0.000000 -1.570796
  52 -6.097667 -17.539625 -15.825428 0.000000 -0.000000 -1.570796
  53 -6.097667 -17.539625 -12.473610 0.000000 -0.000000 -1.570796
  54 -5.279430 -14.485927 -15.825428 0.000000 -0.000000 -1.570796
  55 -5.279430 -14.485927 -12.473610 0.000000 -0.000000 -1.570796
  56 -3.043969 -12.250470 -15.825428 0.000000 -0.000000 -1.570796
  57 -3.043969 -12.250470 -12.473610 0.000000 -0.000000 -1.570796
  58 0.009734 -11.432225 -15.825428 0.000000 -0.000000 -1.570796
  59 0.009734 -11.432225 -12.473610 0.000000 -0.000000 -1.570796
  60 3.063428 -12.250470 -15.825428 0.000000 -0.000000 -1.570796
  61 3.063428 -12.250470 -12.473610 0.000000 -0.000000 -1.570796
  62 5.298896 -14.485927 -15.825428 0.000000 -0.000000 -1.570796
  63 5.298896 -14.485927 -12.473610 0.000000 -0.000000 -1.570796
  64 -2.762198 -20.540737 -13.908165 0.000000 -0.000000 -1.570796
  65 -2.762198 -31.187716 -13.908165 0.000000 -0.000000 -1.570796
  66 -3.059484 -20.540737 -14.625877 0.000000 -0.000000 -1.570796
  67 -3.059484 -31.187716 -14.625877 0.000000 -0.000000 -1.570796
  68 -3.777198 -20.540737 -14.923164 0.000000 -0.000000 -1.570796
  69 -3.777199 -31.187716 -14.923164 0.000000 -0.000000 -1.570796
  70 -4.494910 -20.540737 -14.625877 0.000000 -0.000000 -1.570796
  71 -4.494910 -31.187716 -14.625877 0.000000 -0.000000 -1.570796
  72 -4.792197 -20.540737 -13.908165 0.000000 -0.000000 -1.570796
  73 -4.792197 -31.187716 -13.908165 0.000000 -0.000000 -1.570796
  74 -4.494910 -20.540737 -13.190453 0.000000 -0.000000 -1.570796
  75 -4.494910 -31.187716 -13.190453 0.000000 -0.000000 -1.570796
  76 -3.777198 -20.540737 -12.893166 0.000000 -0.000000 -1.570796
  77 -3.777199 -31.187716 -12.893166 0.000000 -0.000000 -1.570796
  78 -3.059484 -20.540737 -13.190453 0.000000 -0.000000 -1.570796
  79 -3.059484 -31.187716 -13.190453 0.000000 -0.000000 -1.570796
  80 1.023694 -17.536772 -11.679790 0.000000 -0.000000 -1.570796
  81 0.726408 -18.254488 -11.679790 0.000000 -0.000000 -1.570796
  82 0.008694 -18.551773 -11.679790 0.000000 -0.000000 -1.570796
  83 -0.709018 -18.254488 -11.679790 0.000000 -0.000000 -1.570796
  84 -1.006305 -17.536772 -11.679790 0.000000 -0.000000 -1.570796
  85 -0.709018 -16.819059 -11.679790 0.000000 -0.000000 -1.570796
  86 0.008694 -16.521774 -11.679790 0.000000 -0.000000 -1.570796
  87 0.726409 -16.819059 -11.679790 0.000000 -0.000000 -1.570796
  88 1.023694 -17.536772 -12.839790 0.000000 -0.000000 -1.570796
  89 0.726408 -18.254488 -12.839790 0.000000 -0.000000 -1.570796
  90 0.008694 -18.551773 -12.839790 0.000000 -0.000000 -1.570796
  91 -0.709018 -18.254488 -12.839790 0.000000 -0.000000 -1.570796
  92 -1.006305 -17.536772 -12.839790 0.000000 -0.000000 -1.570796
  93 -0.709018 -16.819059 -12.839790 0.000000 -0.000000 -1.570796
  94 0.008694 -16.521774 -12.839790 0.000000 -0.000000 -1.570796
  95 0.726409 -16.819059 -12.839790 0.000000 -0.000000 -1.570796
  96 -2.356199 -30.997345 -13.908165 0.000000 -0.000000 -1.570796
  97 -2.356199 -36.543465 -13.908165 0.000000 -0.000000 -1.570796
  98 -2.772399 -30.997345 -15.492964 0.000000 -0.000000 -1.570796
  99 -2.772399 -36.543465 -15.492964 0.000000 -0.000000 -1.570796
  100 -4.781995 -30.997345 -15.492964 0.000000 -0.000000 -1.570796
  101 -4.781995 -36.543465 -15.492964 0.000000 -0.000000 -1.570796
  102 -5.198197 -30.997345 -13.908165 0.000000 -0.000000 -1.570796
  103 -5.198197 -36.543465 -13.908165 0.000000 -0.000000 -1.570796
  104 -4.781995 -30.997345 -12.903366 0.000000 -0.000000 -1.570796
  105 -4.781995 -36.543465 -12.903366 0.000000 -0.000000 -1.570796
  106 -3.777199 -30.997345 -12.487164 0.000000 -0.000000 -1.570796
  107 -3.777200 -36.543465 -12.487164 0.000000 -0.000000 -1.570796
  108 -2.772399 -30.997345 -12.903366 0.000000 -0.000000 -1.570796
  109 -2.772399 -36.543465 -12.903366 0.000000 -0.000000 -1.570796
  110 4.777802 -20.540737 -13.908165 0.000000 -0.000000 -1.570796
  111 4.777802 -31.187716 -13.908165 0.000000 -0.000000 -1.570796
  112 4.480517 -20.540737 -14.625877 0.000000 -0.000000 -1.570796
  113 4.480516 -31.187716 -14.625877 0.000000 -0.000000 -1.570796
  114 3.762802 -20.540737 -14.923164 0.000000 -0.000000 -1.570796
  115 3.762802 -31.187716 -14.923164 0.000000 -0.000000 -1.570796
  116 3.045090 -20.540737 -14.625877 0.000000 -0.000000 -1.570796
  117 3.045090 -31.187716 -14.625877 0.000000 -0.000000 -1.570796
  118 2.747804 -20.540737 -13.908165 0.000000 -0.000000 -1.570796
  119 2.747803 -31.187716 -13.908165 0.000000 -0.000000 -1.570796
  120 3.045090 -20.540737 -13.190453 0.000000 -0.000000 -1.570796
  121 3.045090 -31.187716 -13.190453 0.000000 -0.000000 -1.570796
  122 3.762802 -20.540737 -12.893166 0.000000 -0.000000 -1.570796
  123 3.762802 -31.187716 -12.893166 0.000000 -0.000000 -1.570796
  124 4.480517 -20.540737 -13.190453 0.000000 -0.000000 -1.570796
  125 4.480516 -31.187716 -13.190453 0.000000 -0.000000 -1.570796
  126 5.183802 -30.997345 -13.908165 0.000000 -0.000000 -1.570796
  127 5.183802 -36.543465 -13.908165 0.000000 -0.000000 -1.570796
  128 4.767602 -30.997345 -15.492964 0.000000 -0.000000 -1.570796
  129 4.767602 -36.543465 -15.492964 0.000000 -0.000000 -1.570796
  130 2.758005 -30.997345 -15.492964 0.000000 -0.000000 -1.570796
  131 2.758005 -36.543465 -15.492964 0.000000 -0.000000 -1.570796
  132 2.341804 -30.997345 -13.908165 0.000000 -0.000000 -1.570796
  133 2.341803 -36.543465 -13.908165 0.000000 -0.000000 -1.570796
  134 2.758005 -30.997345 -12.903366 0.000000 -0.000000 -1.570796
  135 2.758005 -36.543465 -12.903366 0.000000 -0.000000 -1.570796
  136 3.762802 -30.997345 -12.487164 0.000000 -0.000000 -1.570796
  137 3.762801 -36.543465 -12.487164 0.000000 -0.000000 -1.570796
  138 4.767602 -30.997345 -12.903366 0.000000 -0.000000 -1.570796
  139 4.767602 -36.543465 -12.903366 0.000000 -0.000000 -1.570796
  140 0.813611 -21.467808 -18.095236 0.000000 -0.000000 -1.570796
  141 0.822036 -26.107815 -16.645237 0.000000 -0.000000 -1.570796
  142 0.813611 -22.337811 -22.735237 0.000000 -0.000000 -1.570796
  143 0.813611 -20.887812 -20.705240 0.000000 -0.000000 -1.570796
  144 -0.606787 -6.097810 -13.670681 0.000000 -0.000000 -1.570796
  145 0.611213 -6.097810 -13.670681 0.000000 -0.000000 -1.570796
  146 -0.606788 -30.907234 -13.670681 0.000000 -0.000000 -1.570796
  147 0.611212 -30.907234 -13.670681 0.000000 -0.000000 -1.570796
  148 -0.306119 -13.348892 -17.306139 0.000000 -0.000000 -1.570796
  149 -0.306119 -15.018663 -19.033628 0.000000 -0.000000 -1.570796
  150 -0.306119 -13.878411 -16.853733 0.000000 -0.000000 -1.570796
  151 0.313333 -13.348892 -17.306139 0.000000 -0.000000 -1.570796
  152 0.313333 -15.018663 -19.033628 0.000000 -0.000000 -1.570796
  153 0.313333 -13.878411 -16.853733 0.000000 -0.000000 -1.570796
  154 7.898687 -42.205868 -13.892826 0.000000 -0.000000 -1.570796
  155 6.680251 -42.205868 -10.951258 0.000000 -0.000000 -1.570796
  156 3.738687 -42.205868 -9.732825 0.000000 -0.000000 -1.570796
  157 0.797123 -42.205868 -10.951258 0.000000 -0.000000 -1.570796
  158 -0.421313 -42.205868 -13.892826 0.000000 -0.000000 -1.570796
  159 0.797123 -42.205868 -16.834393 0.000000 -0.000000 -1.570796
  160 3.738687 -42.205868 -18.052826 0.000000 -0.000000 -1.570796
  161 6.680251 -42.205868 -16.834393 0.000000 -0.000000 -1.570796
  162 5.818688 -38.005871 -13.892826 0.000000 -0.000000 -1.570796
  163 5.209469 -38.005871 -12.422040 0.000000 -0.000000 -1.570796
  164 3.738687 -38.005871 -11.812823 0.000000 -0.000000 -1.570796
  165 2.267905 -38.005871 -12.422040 0.000000 -0.000000 -1.570796
  166 1.658687 -38.005871 -13.892826 0.000000 -0.000000 -1.570796
  167 2.267905 -38.005871 -15.363608 0.000000 -0.000000 -1.570796
  168 3.738687 -38.005871 -15.972825 0.000000 -0.000000 -1.570796
  169 5.209469 -38.005871 -15.363608 0.000000 -0.000000 -1.570796
  170 3.738687 -36.405869 -13.892826 0.000000 -0.000000 -1.570796
  171 -7.933470 -42.205868 -13.892826 0.000000 -0.000000 -1.570796
  172 -6.715033 -42.205868 -10.951258 0.000000 -0.000000 -1.570796
  173 -3.773469 -42.205868 -9.732825 0.000000 -0.000000 -1.570796
  174 -0.831905 -42.205868 -10.951258 0.000000 -0.000000 -1.570796
  175 0.386532 -42.205868 -13.892826 0.000000 -0.000000 -1.570796
  176 -0.831905 -42.205868 -16.834393 0.000000 -0.000000 -1.570796
  177 -3.773469 -42.205868 -18.052826 0.000000 -0.000000 -1.570796
  178 -6.715033 -42.205868 -16.834393 0.000000 -0.000000 -1.570796
  179 -5.853468 -38.005871 -13.892826 0.000000 -0.000000 -1.570796
  180 -5.244250 -38.005871 -12.422040 0.000000 -0.000000 -1.570796
  181 -3.773468 -38.005871 -11.812823 0.000000 -0.000000 -1.570796
  182 -2.302686 -38.005871 -12.422040 0.000000 -0.000000 -1.570796
  183 -1.693468 -38.005871 -13.892826 0.000000 -0.000000 -1.570796
  184 -2.302686 -38.005871 -15.363608 0.000000 -0.000000 -1.570796
  185 -3.773468 -38.005871 -15.972825 0.000000 -0.000000 -1.570796
  186 -5.244250 -38.005871 -15.363608 0.000000 -0.000000 -1.570796
  187 -3.773468 -36.405869 -13.892826 0.000000 -0.000000 -1.570796
end
triangles
v_nail
  9 0.813610 -24.947805 -23.315239 0.548181 -0.673251 -0.496216 0.590000 0.485000 1 9 1.000000
  142 0.813611 -22.337811 -22.735237 0.634740 0.426447 -0.644398 0.520000 0.470000 1 142 1.000000
  10 0.813610 -23.787811 -21.285240 0.783900 -0.607981 0.125935 0.560000 0.430000 1 10 1.000000
v_nail
  140 0.813611 -21.467808 -18.095236 0.659188 0.678661 0.323867 0.500000 0.350000 1 140 1.000000
  11 0.813610 -24.077806 -18.675238 0.789124 -0.552728 -0.267909 0.565000 0.365000 1 11 1.000000
  143 0.813611 -20.887812 -20.705240 0.625921 0.764217 -0.155546 0.485000 0.415000 1 143 1.000000
v_nail
  11 0.813610 -24.077806 -18.675238 0.789124 -0.552728 -0.267909 0.565000 0.365000 1 11 1.000000
  140 0.813611 -21.467808 -18.095236 0.659188 0.678661 0.323867 0.500000 0.350000 1 140 1.000000
  8 0.822036 -22.627808 -16.645235 0.821100 0.447747 0.354003 0.530000 0.310000 1 8 1.000000
v_nail
  6 -0.810389 -11.897810 -21.285240 -0.783902 -0.607979 0.125932 0.755000 0.650000 1 6 1.000000
  30 0.813611 -12.187808 -18.675238 0.789124 -0.552728 -0.267909 0.800000 0.580000 1 30 1.000000
  7 -0.810389 -12.187808 -18.675238 -0.790352 -0.553065 -0.263558 0.755000 0.580000 1 7 1.000000
v_nail
  28 -0.810390 -21.467808 -18.095236 -0.659964 0.677102 0.325546 0.825000 0.565000 1 28 1.000000
  143 0.813611 -20.887812 -20.705240 0.625921 0.764217 -0.155546 0.865000 0.635000 1 143 1.000000
  27 -0.810389 -20.887812 -20.705240 -0.625904 0.764231 -0.155548 0.825000 0.635000 1 27 1.000000
v_nail
  24 -0.810390 -24.947805 -23.315239 -0.548135 -0.673286 -0.496220 0.005000 0.460000 1 24 1.000000
  10 0.813610 -23.787811 -21.285240 0.783900 -0.607981 0.125935 0.065000 0.500000 1 10 1.000000
  23 -0.810390 -23.787811 -21.285240 -0.783902 -0.607979 0.125932 0.065000 0.460000 1 23 1.000000
v_nail
  25 -0.801964 -26.107815 -16.645237 -0.447094 -0.633424 -0.631571 0.205000 0.460000 1 25 1.000000
  22 -0.810390 -24.077806 -18.675238 -0.790352 -0.553065 -0.263558 0.135000 0.460000 1 22 1.000000
  11 0.813610 -24.077806 -18.675238 0.789124 -0.552728 -0.267909 0.135000 0.500000 1 11 1.000000
v_nail
  29 -0.801964 -22.627808 -16.645235 -0.817699 0.447459 0.362144 0.825000 0.520000 1 29 1.000000
  8 0.822036 -22.627808 -16.645235 0.821100 0.447747 0.354003 0.870000 0.520000 1 8 1.000000
  140 0.813611 -21.467808 -18.095236 0.659188 0.678661 0.323867 0.865000 0.565000 1 140 1.000000
v_nail
  28 -0.810390 -21.467808 -18.095236 -0.659964 0.677102 0.325546 0.530000 0.165000 1 28 1.000000
  27 -0.810389 -20.887812 -20.705240 -0.625904 0.764231 -0.155548 0.515000 0.235000 1 27 1.000000
  22 -0.810390 -24.077806 -18.675238 -0.790352 -0.553065 -0.263558 0.600000 0.180000 1 22 1.000000
v_nail
  25 -0.801964 -26.107815 -16.645237 -0.447094 -0.633424 -0.631571 0.650000 0.130000 1 25 1.000000
  29 -0.801964 -22.627808 -16.645235 -0.817699 0.447459 0.362144 0.560000 0.130000 1 29 1.000000
  22 -0.810390 -24.077806 -18.675238 -0.790352 -0.553065 -0.263558 0.600000 0.180000 1 22 1.000000
v_nail
  15 1.220213 -6.097810 -14.615238 0.730040 0.648723 0.214942 0.650000 0.900000 1 15 1.000000
  18 1.220212 -30.907234 -16.645237 0.674470 -0.604719 -0.423562 0.020000 0.955000 1 18 1.000000
  14 1.220213 -6.097810 -16.645237 0.674467 0.604725 -0.423559 0.650000 0.955000 1 14 1.000000
v_nail
  0 -0.801964 -10.737805 -16.645235 -0.817699 0.447460 0.362144 0.405000 0.125000 1 0 1.000000
  1 -0.810389 -9.577806 -18.095236 -0.659964 0.677102 0.325546 0.375000 0.160000 1 1 1.000000
  7 -0.810389 -12.187808 -18.675238 -0.790352 -0.553065 -0.263558 0.445000 0.175000 1 7 1.000000
v_nail
  17 -1.215788 -30.907234 -14.615238 -0.730049 -0.648712 0.214945 0.020000 0.810000 1 17 1.000000
  12 -1.215787 -6.097810 -16.645237 -0.674462 0.604733 -0.423556 0.650000 0.760000 1 12 1.000000
  16 -1.215788 -30.907234 -16.645237 -0.674458 -0.604739 -0.423554 0.020000 0.760000 1 16 1.000000
v_nail
  18 1.220212 -30.907234 -16.645237 0.674470 -0.604719 -0.423562 0.975000 0.595000 1 18 1.000000
  16 -1.215788 -30.907234 -16.645237 -0.674458 -0.604739 -0.423554 0.915000 0.595000 1 16 1.000000
  34 0.002212 -30.907234 -17.232550 -0.000003 -0.621161 -0.783683 0.945000 0.610000 1 34 1.000000
v_nail
  4 -0.801964 -14.217811 -16.645237 -0.447094 -0.633424 -0.631570 0.495000 0.125000 1 4 1.000000
  0 -0.801964 -10.737805 -16.645235 -0.817699 0.447460 0.362144 0.405000 0.125000 1 0 1.000000
  7 -0.810389 -12.187808 -18.675238 -0.790352 -0.553065 -0.263558 0.445000 0.175000 1 7 1.000000
v_nail
  145 0.611213 -6.097810 -13.670681 0.476034 0.641080 0.602004 0.650000 0.875000 1 145 1.000000
  20 0.002213 -6.097810 -13.455238 -0.000002 0.639170 0.769065 0.650000 0.855000 1 20 1.000000
  21 0.002212 -30.907234 -13.455238 0.000002 -0.639170 0.769065 0.020000 0.855000 1 21 1.000000
v_nail
  146 -0.606788 -30.907234 -13.670681 -0.476034 -0.641080 0.602004 0.020000 0.840000 1 146 1.000000
  21 0.002212 -30.907234 -13.455238 0.000002 -0.639170 0.769065 0.020000 0.855000 1 21 1.000000
  20 0.002213 -6.097810 -13.455238 -0.000002 0.639170 0.769065 0.650000 0.855000 1 20 1.000000
v_nail
  30 0.813611 -12.187808 -18.675238 0.789124 -0.552728 -0.267909 0.400000 0.375000 1 30 1.000000
  35 0.822037 -10.737805 -16.645235 0.821100 0.447747 0.354002 0.365000 0.325000 1 35 1.000000
  37 0.822036 -14.217811 -16.645237 0.447375 -0.631469 -0.633327 0.450000 0.325000 1 37 1.000000
v_nail
  30 0.813611 -12.187808 -18.675238 0.789124 -0.552728 -0.267909 0.400000 0.375000 1 30 1.000000
  36 0.813611 -9.577806 -18.095236 0.659188 0.678661 0.323867 0.335000 0.360000 1 36 1.000000
  35 0.822037 -10.737805 -16.645235 0.821100 0.447747 0.354002 0.365000 0.325000 1 35 1.000000
v_nail
  36 0.813611 -9.577806 -18.095236 0.659188 0.678661 0.323867 0.335000 0.360000 1 36 1.000000
  30 0.813611 -12.187808 -18.675238 0.789124 -0.552728 -0.267909 0.400000 0.375000 1 30 1.000000
  39 0.813611 -8.997809 -20.705240 0.625921 0.764217 -0.155547 0.320000 0.430000 1 39 1.000000
v_nail
  3 -0.810389 -10.447810 -22.735237 -0.634729 0.426452 -0.644405 0.685000 0.710000 1 3 1.000000
  2 -0.810389 -8.997809 -20.705240 -0.625904 0.764231 -0.155548 0.685000 0.650000 1 2 1.000000
  39 0.813611 -8.997809 -20.705240 0.625921 0.764217 -0.155547 0.725000 0.650000 1 39 1.000000
v_nail
  1 -0.810389 -9.577806 -18.095236 -0.659964 0.677102 0.325546 0.375000 0.160000 1 1 1.000000
  2 -0.810389 -8.997809 -20.705240 -0.625904 0.764231 -0.155548 0.360000 0.230000 1 2 1.000000
  7 -0.810389 -12.187808 -18.675238 -0.790352 -0.553065 -0.263558 0.445000 0.175000 1 7 1.000000
v_nail
  31 0.813611 -11.897810 -21.285240 0.783900 -0.607981 0.125935 0.390000 0.445000 1 31 1.000000
  39 0.813611 -8.997809 -20.705240 0.625921 0.764217 -0.155547 0.320000 0.430000 1 39 1.000000
  30 0.813611 -12.187808 -18.675238 0.789124 -0.552728 -0.267909 0.400000 0.375000 1 30 1.000000
v_nail
  38 0.813611 -10.447810 -22.735237 0.634740 0.426446 -0.644398 0.355000 0.480000 1 38 1.000000
  39 0.813611 -8.997809 -20.705240 0.625921 0.764217 -0.155547 0.320000 0.430000 1 39 1.000000
  31 0.813611 -11.897810 -21.285240 0.783900 -0.607981 0.125935 0.390000 0.445000 1 31 1.000000
v_nail
  29 -0.801964 -22.627808 -16.645235 -0.817699 0.447459 0.362144 0.560000 0.130000 1 29 1.000000
  28 -0.810390 -21.467808 -18.095236 -0.659964 0.677102 0.325546 0.530000 0.165000 1 28 1.000000
  22 -0.810390 -24.077806 -18.675238 -0.790352 -0.553065 -0.263558 0.600000 0.180000 1 22 1.000000
v_nail
  147 0.611212 -30.907234 -13.670681 0.476035 -0.641077 0.602006 0.960000 0.515000 1 147 1.000000
  146 -0.606788 -30.907234 -13.670681 -0.476034 -0.641080 0.602004 0.930000 0.515000 1 146 1.000000
  17 -1.215788 -30.907234 -14.615238 -0.730049 -0.648712 0.214945 0.915000 0.540000 1 17 1.000000
v_nail
  19 1.220212 -30.907234 -14.615238 0.730039 -0.648723 0.214945 0.975000 0.540000 1 19 1.000000
  16 -1.215788 -30.907234 -16.645237 -0.674458 -0.604739 -0.423554 0.915000 0.595000 1 16 1.000000
  18 1.220212 -30.907234 -16.645237 0.674470 -0.604719 -0.423562 0.975000 0.595000 1 18 1.000000
v_nail
  12 -1.215787 -6.097810 -16.645237 -0.674462 0.604733 -0.423556 0.650000 0.760000 1 12 1.000000
  34 0.002212 -30.907234 -17.232550 -0.000003 -0.621161 -0.783683 0.020000 0.725000 1 34 1.000000
  16 -1.215788 -30.907234 -16.645237 -0.674458 -0.604739 -0.423554 0.020000 0.760000 1 16 1.000000
v_nail
  18 1.220212 -30.907234 -16.645237 0.674470 -0.604719 -0.423562 0.020000 0.955000 1 18 1.000000
  33 0.002213 -6.097810 -17.232550 0.000003 0.621161 -0.783683 0.650000 0.990000 1 33 1.000000
  14 1.220213 -6.097810 -16.645237 0.674467 0.604725 -0.423559 0.650000 0.955000 1 14 1.000000
v_nail
  12 -1.215787 -6.097810 -16.645237 -0.674462 0.604733 -0.423556 0.990000 0.450000 1 12 1.000000
  14 1.220213 -6.097810 -16.645237 0.674467 0.604725 -0.423559 0.930000 0.450000 1 14 1.000000
  33 0.002213 -6.097810 -17.232550 0.000003 0.621161 -0.783683 0.960000 0.465000 1 33 1.000000
v_nail
  26 -0.810390 -22.337811 -22.735237 -0.634729 0.426453 -0.644404 0.825000 0.700000 1 26 1.000000
  27 -0.810389 -20.887812 -20.705240 -0.625904 0.764231 -0.155548 0.825000 0.635000 1 27 1.000000
  143 0.813611 -20.887812 -20.705240 0.625921 0.764217 -0.155546 0.865000 0.635000 1 143 1.000000
v_nail
  26 -0.810390 -22.337811 -22.735237 -0.634729 0.426453 -0.644404 0.295000 0.435000 1 26 1.000000
  9 0.813610 -24.947805 -23.315239 0.548181 -0.673251 -0.496216 0.250000 0.505000 1 9 1.000000
  24 -0.810390 -24.947805 -23.315239 -0.548135 -0.673286 -0.496220 0.295000 0.505000 1 24 1.000000
v_nail
  10 0.813610 -23.787811 -21.285240 0.783900 -0.607981 0.125935 0.560000 0.430000 1 10 1.000000
  143 0.813611 -20.887812 -20.705240 0.625921 0.764217 -0.155546 0.485000 0.415000 1 143 1.000000
  11 0.813610 -24.077806 -18.675238 0.789124 -0.552728 -0.267909 0.565000 0.365000 1 11 1.000000
v_nail
  142 0.813611 -22.337811 -22.735237 0.634740 0.426447 -0.644398 0.520000 0.470000 1 142 1.000000
  143 0.813611 -20.887812 -20.705240 0.625921 0.764217 -0.155546 0.485000 0.415000 1 143 1.000000
  10 0.813610 -23.787811 -21.285240 0.783900 -0.607981 0.125935 0.560000 0.430000 1 10 1.000000
v_nail
  26 -0.810390 -22.337811 -22.735237 -0.634729 0.426453 -0.644404 0.555000 0.285000 1 26 1.000000
  24 -0.810390 -24.947805 -23.315239 -0.548135 -0.673286 -0.496220 0.620000 0.300000 1 24 1.000000
  27 -0.810389 -20.887812 -20.705240 -0.625904 0.764231 -0.155548 0.515000 0.235000 1 27 1.000000
v_nail
  27 -0.810389 -20.887812 -20.705240 -0.625904 0.764231 -0.155548 0.515000 0.235000 1 27 1.000000
  23 -0.810390 -23.787811 -21.285240 -0.783902 -0.607979 0.125932 0.590000 0.250000 1 23 1.000000
  22 -0.810390 -24.077806 -18.675238 -0.790352 -0.553065 -0.263558 0.600000 0.180000 1 22 1.000000
v_nail
  24 -0.810390 -24.947805 -23.315239 -0.548135 -0.673286 -0.496220 0.620000 0.300000 1 24 1.000000
  23 -0.810390 -23.787811 -21.285240 -0.783902 -0.607979 0.125932 0.590000 0.250000 1 23 1.000000
  27 -0.810389 -20.887812 -20.705240 -0.625904 0.764231 -0.155548 0.515000 0.235000 1 27 1.000000
v_nail
  11 0.813610 -24.077806 -18.675238 0.789124 -0.552728 -0.267909 0.565000 0.365000 1 11 1.000000
  8 0.822036 -22.627808 -16.645235 0.821100 0.447747 0.354003 0.530000 0.310000 1 8 1.000000
  141 0.822036 -26.107815 -16.645237 0.447374 -0.631468 -0.633328 0.620000 0.310000 1 141 1.000000
v_nail
  3 -0.810389 -10.447810 -22.735237 -0.634729 0.426452 -0.644405 0.505000 0.180000 1 3 1.000000
  32 0.813611 -13.057809 -23.315239 0.548181 -0.673252 -0.496216 0.460000 0.250000 1 32 1.000000
  5 -0.810389 -13.057809 -23.315239 -0.548135 -0.673286 -0.496219 0.505000 0.250000 1 5 1.000000
v_nail
  5 -0.810389 -13.057809 -23.315239 -0.548135 -0.673286 -0.496219 0.755000 0.710000 1 5 1.000000
  31 0.813611 -11.897810 -21.285240 0.783900 -0.607981 0.125935 0.800000 0.650000 1 31 1.000000
  6 -0.810389 -11.897810 -21.285240 -0.783902 -0.607979 0.125932 0.755000 0.650000 1 6 1.000000
v_nail
  23 -0.810390 -23.787811 -21.285240 -0.783902 -0.607979 0.125932 0.065000 0.460000 1 23 1.000000
  11 0.813610 -24.077806 -18.675238 0.789124 -0.552728 -0.267909 0.135000 0.500000 1 11 1.000000
  22 -0.810390 -24.077806 -18.675238 -0.790352 -0.553065 -0.263558 0.135000 0.460000 1 22 1.000000
v_nail
  32 0.813611 -13.057809 -23.315239 0.548181 -0.673252 -0.496216 0.420000 0.495000 1 32 1.000000
  38 0.813611 -10.447810 -22.735237 0.634740 0.426446 -0.644398 0.355000 0.480000 1 38 1.000000
  31 0.813611 -11.897810 -21.285240 0.783900 -0.607981 0.125935 0.390000 0.445000 1 31 1.000000
v_nail
  2 -0.810389 -8.997809 -20.705240 -0.625904 0.764231 -0.155548 0.360000 0.230000 1 2 1.000000
  6 -0.810389 -11.897810 -21.285240 -0.783902 -0.607979 0.125932 0.435000 0.245000 1 6 1.000000
  7 -0.810389 -12.187808 -18.675238 -0.790352 -0.553065 -0.263558 0.445000 0.175000 1 7 1.000000
v_nail
  5 -0.810389 -13.057809 -23.315239 -0.548135 -0.673286 -0.496219 0.465000 0.295000 1 5 1.000000
  6 -0.810389 -11.897810 -21.285240 -0.783902 -0.607979 0.125932 0.435000 0.245000 1 6 1.000000
  2 -0.810389 -8.997809 -20.705240 -0.625904 0.764231 -0.155548 0.360000 0.230000 1 2 1.000000
v_nail
  3 -0.810389 -10.447810 -22.735237 -0.634729 0.426452 -0.644405 0.400000 0.280000 1 3 1.000000
  5 -0.810389 -13.057809 -23.315239 -0.548135 -0.673286 -0.496219 0.465000 0.295000 1 5 1.000000
  2 -0.810389 -8.997809 -20.705240 -0.625904 0.764231 -0.155548 0.360000 0.230000 1 2 1.000000
v_nail
  1 -0.810389 -9.577806 -18.095236 -0.659964 0.677102 0.325546 0.685000 0.580000 1 1 1.000000
  39 0.813611 -8.997809 -20.705240 0.625921 0.764217 -0.155547 0.725000 0.650000 1 39 1.000000
  2 -0.810389 -8.997809 -20.705240 -0.625904 0.764231 -0.155548 0.685000 0.650000 1 2 1.000000
v_nail
  4 -0.801964 -14.217811 -16.645237 -0.447094 -0.633424 -0.631570 0.755000 0.510000 1 4 1.000000
  7 -0.810389 -12.187808 -18.675238 -0.790352 -0.553065 -0.263558 0.755000 0.580000 1 7 1.000000
  30 0.813611 -12.187808 -18.675238 0.789124 -0.552728 -0.267909 0.800000 0.580000 1 30 1.000000
v_nail
  0 -0.801964 -10.737805 -16.645235 -0.817699 0.447460 0.362144 0.685000 0.535000 1 0 1.000000
  35 0.822037 -10.737805 -16.645235 0.821100 0.447747 0.354002 0.725000 0.530000 1 35 1.000000
  36 0.813611 -9.577806 -18.095236 0.659188 0.678661 0.323867 0.725000 0.580000 1 36 1.000000
v_nail
  144 -0.606787 -6.097810 -13.670681 -0.476035 0.641077 0.602006 0.975000 0.375000 1 144 1.000000
  145 0.611213 -6.097810 -13.670681 0.476034 0.641080 0.602004 0.945000 0.375000 1 145 1.000000
  15 1.220213 -6.097810 -14.615238 0.730040 0.648723 0.214942 0.930000 0.400000 1 15 1.000000
v_nail
  12 -1.215787 -6.097810 -16.645237 -0.674462 0.604733 -0.423556 0.990000 0.450000 1 12 1.000000
  15 1.220213 -6.097810 -14.615238 0.730040 0.648723 0.214942 0.930000 0.400000 1 15 1.000000
  14 1.220213 -6.097810 -16.645237 0.674467 0.604725 -0.423559 0.930000 0.450000 1 14 1.000000
v_nail
  41 6.117135 -17.539625 -12.473610 0.757183 -0.000006 0.653203 0.260000 0.015000 1 41 1.000000
  42 5.298895 -20.593327 -15.825428 0.655740 -0.378586 -0.653206 0.175000 0.100000 1 42 1.000000
  40 6.117135 -17.539625 -15.825428 0.757172 0.000006 -0.653216 0.260000 0.100000 1 40 1.000000
v_nail
  43 5.298895 -20.593327 -12.473610 0.655724 -0.378590 0.653219 0.175000 0.015000 1 43 1.000000
  44 3.063434 -22.828785 -15.825428 0.378591 -0.655726 -0.653217 0.095000 0.100000 1 44 1.000000
  42 5.298895 -20.593327 -15.825428 0.655740 -0.378586 -0.653206 0.175000 0.100000 1 42 1.000000
v_nail
  45 3.063434 -22.828785 -12.473610 0.378581 -0.655732 0.653217 0.095000 0.015000 1 45 1.000000
  46 0.009733 -23.647028 -15.825428 0.000006 -0.757172 -0.653216 0.015000 0.100000 1 46 1.000000
  44 3.063434 -22.828785 -15.825428 0.378591 -0.655726 -0.653217 0.095000 0.100000 1 44 1.000000
v_nail
  47 0.009733 -23.647028 -12.473610 -0.000006 -0.757172 0.653215 0.985000 0.015000 1 47 1.000000
  48 -3.043967 -22.828785 -15.825428 -0.378582 -0.655734 -0.653214 0.905000 0.100000 1 48 1.000000
  46 0.009733 -23.647028 -15.825428 0.000006 -0.757172 -0.653216 0.985000 0.100000 1 46 1.000000
v_nail
  49 -3.043967 -22.828785 -12.473610 -0.378598 -0.655740 0.653199 0.905000 0.015000 1 49 1.000000
  50 -5.279430 -20.593327 -15.825428 -0.655736 -0.378596 -0.653203 0.825000 0.100000 1 50 1.000000
  48 -3.043967 -22.828785 -15.825428 -0.378582 -0.655734 -0.653214 0.905000 0.100000 1 48 1.000000
v_nail
  51 -5.279430 -20.593327 -12.473610 -0.655732 -0.378581 0.653216 0.825000 0.015000 1 51 1.000000
  52 -6.097667 -17.539625 -15.825428 -0.757172 -0.000006 -0.653216 0.740000 0.100000 1 52 1.000000
  50 -5.279430 -20.593327 -15.825428 -0.655736 -0.378596 -0.653203 0.825000 0.100000 1 50 1.000000
v_nail
  53 -6.097667 -17.539625 -12.473610 -0.757182 0.000006 0.653204 0.740000 0.015000 1 53 1.000000
  54 -5.279430 -14.485927 -15.825428 -0.655742 0.378587 -0.653204 0.660000 0.100000 1 54 1.000000
  52 -6.097667 -17.539625 -15.825428 -0.757172 -0.000006 -0.653216 0.740000 0.100000 1 52 1.000000
v_nail
  55 -5.279430 -14.485927 -12.473610 -0.655727 0.378591 0.653216 0.660000 0.015000 1 55 1.000000
  56 -3.043969 -12.250470 -15.825428 -0.378597 0.655735 -0.653204 0.580000 0.100000 1 56 1.000000
  54 -5.279430 -14.485927 -15.825428 -0.655742 0.378587 -0.653204 0.660000 0.100000 1 54 1.000000
v_nail
  57 -3.043969 -12.250470 -12.473610 -0.378585 0.655740 0.653206 0.580000 0.015000 1 57 1.000000
  58 0.009734 -11.432225 -15.825428 -0.000005 0.757173 -0.653215 0.500000 0.100000 1 58 1.000000
  56 -3.043969 -12.250470 -15.825428 -0.378597 0.655735 -0.653204 0.580000 0.100000 1 56 1.000000
v_nail
  59 0.009734 -11.432225 -12.473610 0.000006 0.757172 0.653216 0.500000 0.015000 1 59 1.000000
  60 3.063428 -12.250470 -15.825428 0.378586 0.655741 -0.653204 0.420000 0.100000 1 60 1.000000
  58 0.009734 -11.432225 -15.825428 -0.000005 0.757173 -0.653215 0.500000 0.100000 1 58 1.000000
v_nail
  49 -3.043967 -22.828785 -12.473610 -0.378598 -0.655740 0.653199 0.885000 0.135000 1 49 1.000000
  45 3.063434 -22.828785 -12.473610 0.378581 -0.655732 0.653217 0.725000 0.135000 1 45 1.000000
  61 3.063428 -12.250470 -12.473610 0.378601 0.655745 0.653192 0.725000 0.410000 1 61 1.000000
v_nail
  61 3.063428 -12.250470 -12.473610 0.378601 0.655745 0.653192 0.420000 0.015000 1 61 1.000000
  62 5.298896 -14.485927 -15.825428 0.655736 0.378597 -0.653203 0.340000 0.100000 1 62 1.000000
  60 3.063428 -12.250470 -15.825428 0.378586 0.655741 -0.653204 0.420000 0.100000 1 60 1.000000
v_nail
  63 5.298896 -14.485927 -12.473610 0.655732 0.378582 0.653216 0.340000 0.015000 1 63 1.000000
  40 6.117135 -17.539625 -15.825428 0.757172 0.000006 -0.653216 0.260000 0.100000 1 40 1.000000
  62 5.298896 -14.485927 -15.825428 0.655736 0.378597 -0.653203 0.340000 0.100000 1 62 1.000000
v_nail
  44 3.063434 -22.828785 -15.825428 0.378591 -0.655726 -0.653217 0.253418 0.145237 1 44 1.000000
  48 -3.043967 -22.828785 -15.825428 -0.378582 -0.655734 -0.653214 0.096538 0.148932 1 48 1.000000
  60 3.063428 -12.250470 -15.825428 0.378586 0.655741 -0.653204 0.263462 0.416068 1 60 1.000000
v_nail
  83 -0.709018 -18.254488 -11.679790 -0.548992 -0.548990 0.630252 0.655000 0.560000 1 83 1.000000
  84 -1.006305 -17.536772 -11.679790 -0.776381 0.000003 0.630264 0.655000 0.580000 1 84 1.000000
  92 -1.006305 -17.536772 -12.839790 -1.000000 -0.000002 0.000000 0.625000 0.580000 1 92 1.000000
v_nail
  65 -2.762198 -31.187716 -13.908165 1.000000 -0.000000 -0.000004 0.600000 0.575000 1 65 1.000000
  66 -3.059484 -20.540737 -14.625877 0.707110 -0.000000 -0.707104 0.325000 0.555000 1 66 1.000000
  64 -2.762198 -20.540737 -13.908165 1.000000 -0.000000 0.000004 0.325000 0.575000 1 64 1.000000
v_nail
  81 0.726408 -18.254488 -11.679790 0.548989 -0.548993 0.630252 0.655000 0.680000 1 81 1.000000
  82 0.008694 -18.551773 -11.679790 -0.000002 -0.776393 0.630250 0.655000 0.700000 1 82 1.000000
  90 0.008694 -18.551773 -12.839790 0.000001 -1.000000 0.000000 0.625000 0.700000 1 90 1.000000
v_nail
  67 -3.059484 -31.187716 -14.625877 0.707104 -0.000000 -0.707109 0.600000 0.555000 1 67 1.000000
  68 -3.777198 -20.540737 -14.923164 0.000003 -0.000000 -1.000000 0.325000 0.535000 1 68 1.000000
  66 -3.059484 -20.540737 -14.625877 0.707110 -0.000000 -0.707104 0.325000 0.555000 1 66 1.000000
v_nail
  69 -3.777199 -31.187716 -14.923164 -0.000004 0.000000 -1.000000 0.600000 0.690000 1 69 1.000000
  70 -4.494910 -20.540737 -14.625877 -0.707105 0.000000 -0.707109 0.325000 0.670000 1 70 1.000000
  68 -3.777198 -20.540737 -14.923164 0.000003 -0.000000 -1.000000 0.325000 0.690000 1 68 1.000000
v_nail
  84 -1.006305 -17.536772 -11.679790 -0.776381 0.000003 0.630264 0.950000 0.120000 1 84 1.000000
  80 1.023694 -17.536772 -11.679790 0.776381 -0.000002 0.630264 0.970000 0.170000 1 80 1.000000
  86 0.008694 -16.521774 -11.679790 0.000001 0.776393 0.630250 0.935000 0.155000 1 86 1.000000
v_nail
  71 -4.494910 -31.187716 -14.625877 -0.707109 0.000000 -0.707104 0.600000 0.670000 1 71 1.000000
  72 -4.792197 -20.540737 -13.908165 -1.000000 0.000000 -0.000003 0.325000 0.650000 1 72 1.000000
  70 -4.494910 -20.540737 -14.625877 -0.707105 0.000000 -0.707109 0.325000 0.670000 1 70 1.000000
v_nail
  73 -4.792197 -31.187716 -13.908165 -1.000000 0.000000 0.000003 0.600000 0.650000 1 73 1.000000
  74 -4.494910 -20.540737 -13.190453 -0.707109 0.000000 0.707104 0.325000 0.630000 1 74 1.000000
  72 -4.792197 -20.540737 -13.908165 -1.000000 0.000000 -0.000003 0.325000 0.650000 1 72 1.000000
v_nail
  75 -4.494910 -31.187716 -13.190453 -0.707105 0.000000 0.707109 0.600000 0.630000 1 75 1.000000
  76 -3.777198 -20.540737 -12.893166 -0.000004 0.000000 1.000000 0.325000 0.610000 1 76 1.000000
  74 -4.494910 -20.540737 -13.190453 -0.707109 0.000000 0.707104 0.325000 0.630000 1 74 1.000000
v_nail
  129 4.767602 -36.543465 -15.492964 0.492189 -0.592086 -0.638110 0.815000 0.785000 1 129 1.000000
  130 2.758005 -30.997345 -15.492964 -0.492188 0.592086 -0.638111 0.675000 0.735000 1 130 1.000000
  128 4.767602 -30.997345 -15.492964 0.492169 0.592075 -0.638135 0.675000 0.785000 1 128 1.000000
v_nail
  77 -3.777199 -31.187716 -12.893166 0.000003 -0.000000 1.000000 0.600000 0.610000 1 77 1.000000
  78 -3.059484 -20.540737 -13.190453 0.707105 -0.000000 0.707109 0.325000 0.595000 1 78 1.000000
  76 -3.777198 -20.540737 -12.893166 -0.000004 0.000000 1.000000 0.325000 0.610000 1 76 1.000000
v_nail
  85 -0.709018 -16.819059 -11.679790 -0.548989 0.548993 0.630252 0.655000 0.600000 1 85 1.000000
  86 0.008694 -16.521774 -11.679790 0.000001 0.776393 0.630250 0.655000 0.620000 1 86 1.000000
  94 0.008694 -16.521774 -12.839790 -0.000002 1.000000 0.000000 0.625000 0.620000 1 94 1.000000
v_nail
  79 -3.059484 -31.187716 -13.190453 0.707109 -0.000000 0.707104 0.600000 0.595000 1 79 1.000000
  64 -2.762198 -20.540737 -13.908165 1.000000 -0.000000 0.000004 0.325000 0.575000 1 64 1.000000
  78 -3.059484 -20.540737 -13.190453 0.707105 -0.000000 0.707109 0.325000 0.595000 1 78 1.000000
v_nail
  28 -0.810390 -21.467808 -18.095236 -0.659964 0.677102 0.325546 0.825000 0.565000 1 28 1.000000
  140 0.813611 -21.467808 -18.095236 0.659188 0.678661 0.323867 0.865000 0.565000 1 140 1.000000
  143 0.813611 -20.887812 -20.705240 0.625921 0.764217 -0.155546 0.865000 0.635000 1 143 1.000000
v_nail
  86 0.008694 -16.521774 -11.679790 0.000001 0.776393 0.630250 0.655000 0.620000 1 86 1.000000
  87 0.726409 -16.819059 -11.679790 0.548991 0.548990 0.630253 0.655000 0.640000 1 87 1.000000
  95 0.726409 -16.819059 -12.839790 0.707104 0.707109 0.000000 0.625000 0.640000 1 95 1.000000
v_nail
  84 -1.006305 -17.536772 -11.679790 -0.776381 0.000003 0.630264 0.655000 0.580000 1 84 1.000000
  85 -0.709018 -16.819059 -11.679790 -0.548989 0.548993 0.630252 0.655000 0.600000 1 85 1.000000
  93 -0.709018 -16.819059 -12.839790 -0.707107 0.707106 0.000000 0.625000 0.600000 1 93 1.000000
v_nail
  82 0.008694 -18.551773 -11.679790 -0.000002 -0.776393 0.630250 0.655000 0.540000 1 82 1.000000
  83 -0.709018 -18.254488 -11.679790 -0.548992 -0.548990 0.630252 0.655000 0.560000 1 83 1.000000
  91 -0.709018 -18.254488 -12.839790 -0.707105 -0.707109 0.000000 0.625000 0.560000 1 91 1.000000
v_nail
  80 1.023694 -17.536772 -11.679790 0.776381 -0.000002 0.630264 0.655000 0.660000 1 80 1.000000
  81 0.726408 -18.254488 -11.679790 0.548989 -0.548993 0.630252 0.655000 0.680000 1 81 1.000000
  89 0.726408 -18.254488 -12.839790 0.707108 -0.707106 0.000000 0.625000 0.680000 1 89 1.000000
v_nail
  87 0.726409 -16.819059 -11.679790 0.548991 0.548990 0.630253 0.655000 0.640000 1 87 1.000000
  80 1.023694 -17.536772 -11.679790 0.776381 -0.000002 0.630264 0.655000 0.660000 1 80 1.000000
  88 1.023694 -17.536772 -12.839790 1.000000 0.000004 0.000000 0.625000 0.660000 1 88 1.000000
v_nail
  97 -2.356199 -36.543465 -13.908165 0.765063 -0.641848 0.052064 0.835000 0.885000 1 97 1.000000
  98 -2.772399 -30.997345 -15.492964 0.492168 0.592075 -0.638136 0.975000 0.925000 1 98 1.000000
  96 -2.356199 -30.997345 -13.908165 0.765071 0.641838 0.052055 0.975000 0.885000 1 96 1.000000
v_nail
  101 -4.781995 -36.543465 -15.492964 -0.492168 -0.592075 -0.638136 0.835000 0.730000 1 101 1.000000
  102 -5.198197 -30.997345 -13.908165 -0.765063 0.641848 0.052064 0.975000 0.775000 1 102 1.000000
  100 -4.781995 -30.997345 -15.492964 -0.492188 0.592086 -0.638111 0.975000 0.730000 1 100 1.000000
v_nail
  103 -5.198197 -36.543465 -13.908165 -0.765071 -0.641838 0.052055 0.835000 0.775000 1 103 1.000000
  104 -4.781995 -30.997345 -12.903366 -0.548984 0.630260 0.548989 0.975000 0.800000 1 104 1.000000
  102 -5.198197 -30.997345 -13.908165 -0.765063 0.641848 0.052064 0.975000 0.775000 1 102 1.000000
v_nail
  105 -4.781995 -36.543465 -12.903366 -0.548981 -0.630274 0.548976 0.835000 0.800000 1 105 1.000000
  106 -3.777199 -30.997345 -12.487164 0.000002 0.630268 0.776377 0.975000 0.830000 1 106 1.000000
  104 -4.781995 -30.997345 -12.903366 -0.548984 0.630260 0.548989 0.975000 0.800000 1 104 1.000000
v_nail
  106 -3.777199 -30.997345 -12.487164 0.000002 0.630268 0.776377 0.650000 0.470000 1 106 1.000000
  108 -2.772399 -30.997345 -12.903366 0.548981 0.630274 0.548976 0.660000 0.495000 1 108 1.000000
  102 -5.198197 -30.997345 -13.908165 -0.765063 0.641848 0.052064 0.685000 0.430000 1 102 1.000000
v_nail
  107 -3.777200 -36.543465 -12.487164 -0.000003 -0.630268 0.776377 0.835000 0.830000 1 107 1.000000
  108 -2.772399 -30.997345 -12.903366 0.548981 0.630274 0.548976 0.975000 0.855000 1 108 1.000000
  106 -3.777199 -30.997345 -12.487164 0.000002 0.630268 0.776377 0.975000 0.830000 1 106 1.000000
v_nail
  109 -2.772399 -36.543465 -12.903366 0.548982 -0.630261 0.548990 0.835000 0.855000 1 109 1.000000
  96 -2.356199 -30.997345 -13.908165 0.765071 0.641838 0.052055 0.975000 0.885000 1 96 1.000000
  108 -2.772399 -30.997345 -12.903366 0.548981 0.630274 0.548976 0.975000 0.855000 1 108 1.000000
v_nail
  103 -5.198197 -36.543465 -13.908165 -0.765071 -0.641838 0.052055 0.945000 0.710000 1 103 1.000000
  101 -4.781995 -36.543465 -15.492964 -0.492168 -0.592075 -0.638136 0.985000 0.700000 1 101 1.000000
  97 -2.356199 -36.543465 -13.908165 0.765063 -0.641848 0.052064 0.945000 0.640000 1 97 1.000000
v_nail
  111 4.777802 -31.187716 -13.908165 1.000000 -0.000000 -0.000004 0.290000 0.575000 1 111 1.000000
  112 4.480517 -20.540737 -14.625877 0.707109 -0.000000 -0.707104 0.020000 0.555000 1 112 1.000000
  110 4.777802 -20.540737 -13.908165 1.000000 -0.000000 0.000004 0.020000 0.575000 1 110 1.000000
v_nail
  113 4.480516 -31.187716 -14.625877 0.707104 -0.000000 -0.707109 0.290000 0.555000 1 113 1.000000
  114 3.762802 -20.540737 -14.923164 0.000003 -0.000000 -1.000000 0.020000 0.535000 1 114 1.000000
  112 4.480517 -20.540737 -14.625877 0.707109 -0.000000 -0.707104 0.020000 0.555000 1 112 1.000000
v_nail
  115 3.762802 -31.187716 -14.923164 -0.000004 0.000000 -1.000000 0.290000 0.690000 1 115 1.000000
  116 3.045090 -20.540737 -14.625877 -0.707105 0.000000 -0.707109 0.020000 0.670000 1 116 1.000000
  114 3.762802 -20.540737 -14.923164 0.000003 -0.000000 -1.000000 0.020000 0.690000 1 114 1.000000
v_nail
  117 3.045090 -31.187716 -14.625877 -0.707109 0.000000 -0.707104 0.290000 0.670000 1 117 1.000000
  118 2.747804 -20.540737 -13.908165 -1.000000 0.000000 -0.000003 0.020000 0.650000 1 118 1.000000
  116 3.045090 -20.540737 -14.625877 -0.707105 0.000000 -0.707109 0.020000 0.670000 1 116 1.000000
v_nail
  119 2.747803 -31.187716 -13.908165 -1.000000 0.000000 0.000003 0.290000 0.650000 1 119 1.000000
  120 3.045090 -20.540737 -13.190453 -0.707109 0.000000 0.707104 0.020000 0.630000 1 120 1.000000
  118 2.747804 -20.540737 -13.908165 -1.000000 0.000000 -0.000003 0.020000 0.650000 1 118 1.000000
v_nail
  121 3.045090 -31.187716 -13.190453 -0.707105 0.000000 0.707109 0.290000 0.630000 1 121 1.000000
  122 3.762802 -20.540737 -12.893166 -0.000004 0.000000 1.000000 0.020000 0.610000 1 122 1.000000
  120 3.045090 -20.540737 -13.190453 -0.707109 0.000000 0.707104 0.020000 0.630000 1 120 1.000000
v_nail
  99 -2.772399 -36.543465 -15.492964 0.492189 -0.592086 -0.638110 0.835000 0.925000 1 99 1.000000
  100 -4.781995 -30.997345 -15.492964 -0.492188 0.592086 -0.638111 0.975000 0.975000 1 100 1.000000
  98 -2.772399 -30.997345 -15.492964 0.492168 0.592075 -0.638136 0.975000 0.925000 1 98 1.000000
v_nail
  123 3.762802 -31.187716 -12.893166 0.000003 -0.000000 1.000000 0.290000 0.610000 1 123 1.000000
  124 4.480517 -20.540737 -13.190453 0.707105 -0.000000 0.707109 0.020000 0.590000 1 124 1.000000
  122 3.762802 -20.540737 -12.893166 -0.000004 0.000000 1.000000 0.020000 0.610000 1 122 1.000000
v_nail
  125 4.480516 -31.187716 -13.190453 0.707109 -0.000000 0.707104 0.290000 0.590000 1 125 1.000000
  110 4.777802 -20.540737 -13.908165 1.000000 -0.000000 0.000004 0.020000 0.575000 1 110 1.000000
  124 4.480517 -20.540737 -13.190453 0.707105 -0.000000 0.707109 0.020000 0.590000 1 124 1.000000
v_nail
  6 -0.810389 -11.897810 -21.285240 -0.783902 -0.607979 0.125932 0.755000 0.650000 1 6 1.000000
  31 0.813611 -11.897810 -21.285240 0.783900 -0.607981 0.125935 0.800000 0.650000 1 31 1.000000
  30 0.813611 -12.187808 -18.675238 0.789124 -0.552728 -0.267909 0.800000 0.580000 1 30 1.000000
v_nail
  127 5.183802 -36.543465 -13.908165 0.765062 -0.641848 0.052064 0.815000 0.825000 1 127 1.000000
  128 4.767602 -30.997345 -15.492964 0.492169 0.592075 -0.638135 0.675000 0.785000 1 128 1.000000
  126 5.183802 -30.997345 -13.908165 0.765071 0.641838 0.052055 0.675000 0.825000 1 126 1.000000
v_nail
  131 2.758005 -36.543465 -15.492964 -0.492168 -0.592075 -0.638136 0.815000 0.980000 1 131 1.000000
  132 2.341804 -30.997345 -13.908165 -0.765063 0.641848 0.052064 0.675000 0.935000 1 132 1.000000
  130 2.758005 -30.997345 -15.492964 -0.492188 0.592086 -0.638111 0.675000 0.980000 1 130 1.000000
v_nail
  133 2.341803 -36.543465 -13.908165 -0.765071 -0.641838 0.052055 0.815000 0.935000 1 133 1.000000
  134 2.758005 -30.997345 -12.903366 -0.548984 0.630260 0.548989 0.675000 0.910000 1 134 1.000000
  132 2.341804 -30.997345 -13.908165 -0.765063 0.641848 0.052064 0.675000 0.935000 1 132 1.000000
v_nail
  135 2.758005 -36.543465 -12.903366 -0.548981 -0.630274 0.548976 0.815000 0.910000 1 135 1.000000
  136 3.762802 -30.997345 -12.487164 0.000002 0.630268 0.776377 0.675000 0.880000 1 136 1.000000
  134 2.758005 -30.997345 -12.903366 -0.548984 0.630260 0.548989 0.675000 0.910000 1 134 1.000000
v_nail
  136 3.762802 -30.997345 -12.487164 0.000002 0.630268 0.776377 0.585000 0.390000 1 136 1.000000
  138 4.767602 -30.997345 -12.903366 0.548981 0.630274 0.548976 0.595000 0.415000 1 138 1.000000
  132 2.341804 -30.997345 -13.908165 -0.765063 0.641848 0.052064 0.620000 0.355000 1 132 1.000000
v_nail
  137 3.762801 -36.543465 -12.487164 -0.000003 -0.630269 0.776377 0.815000 0.880000 1 137 1.000000
  138 4.767602 -30.997345 -12.903366 0.548981 0.630274 0.548976 0.675000 0.855000 1 138 1.000000
  136 3.762802 -30.997345 -12.487164 0.000002 0.630268 0.776377 0.675000 0.880000 1 136 1.000000
v_nail
  139 4.767602 -36.543465 -12.903366 0.548982 -0.630261 0.548990 0.815000 0.855000 1 139 1.000000
  126 5.183802 -30.997345 -13.908165 0.765071 0.641838 0.052055 0.675000 0.825000 1 126 1.000000
  138 4.767602 -30.997345 -12.903366 0.548981 0.630274 0.548976 0.675000 0.855000 1 138 1.000000
v_nail
  133 2.341803 -36.543465 -13.908165 -0.765071 -0.641838 0.052055 0.850000 0.505000 1 133 1.000000
  131 2.758005 -36.543465 -15.492964 -0.492168 -0.592075 -0.638136 0.890000 0.495000 1 131 1.000000
  127 5.183802 -36.543465 -13.908165 0.765062 -0.641848 0.052064 0.850000 0.435000 1 127 1.000000
v_nail
  145 0.611213 -6.097810 -13.670681 0.476034 0.641080 0.602004 0.650000 0.875000 1 145 1.000000
  19 1.220212 -30.907234 -14.615238 0.730039 -0.648723 0.214945 0.020000 0.900000 1 19 1.000000
  15 1.220213 -6.097810 -14.615238 0.730040 0.648723 0.214942 0.650000 0.900000 1 15 1.000000
v_nail
  146 -0.606788 -30.907234 -13.670681 -0.476034 -0.641080 0.602004 0.020000 0.840000 1 146 1.000000
  13 -1.215787 -6.097810 -14.615238 -0.730047 0.648713 0.214948 0.650000 0.810000 1 13 1.000000
  17 -1.215788 -30.907234 -14.615238 -0.730049 -0.648712 0.214945 0.020000 0.810000 1 17 1.000000
v_nail
  24 -0.810390 -24.947805 -23.315239 -0.548135 -0.673286 -0.496220 0.005000 0.460000 1 24 1.000000
  9 0.813610 -24.947805 -23.315239 0.548181 -0.673251 -0.496216 0.005000 0.500000 1 9 1.000000
  10 0.813610 -23.787811 -21.285240 0.783900 -0.607981 0.125935 0.065000 0.500000 1 10 1.000000
v_nail
  25 -0.801964 -26.107815 -16.645237 -0.447094 -0.633424 -0.631571 0.205000 0.460000 1 25 1.000000
  11 0.813610 -24.077806 -18.675238 0.789124 -0.552728 -0.267909 0.135000 0.500000 1 11 1.000000
  141 0.822036 -26.107815 -16.645237 0.447374 -0.631468 -0.633328 0.205000 0.500000 1 141 1.000000
v_nail
  29 -0.801964 -22.627808 -16.645235 -0.817699 0.447459 0.362144 0.825000 0.520000 1 29 1.000000
  140 0.813611 -21.467808 -18.095236 0.659188 0.678661 0.323867 0.865000 0.565000 1 140 1.000000
  28 -0.810390 -21.467808 -18.095236 -0.659964 0.677102 0.325546 0.825000 0.565000 1 28 1.000000
v_nail
  15 1.220213 -6.097810 -14.615238 0.730040 0.648723 0.214942 0.650000 0.900000 1 15 1.000000
  19 1.220212 -30.907234 -14.615238 0.730039 -0.648723 0.214945 0.020000 0.900000 1 19 1.000000
  18 1.220212 -30.907234 -16.645237 0.674470 -0.604719 -0.423562 0.020000 0.955000 1 18 1.000000
v_nail
  17 -1.215788 -30.907234 -14.615238 -0.730049 -0.648712 0.214945 0.020000 0.810000 1 17 1.000000
  13 -1.215787 -6.097810 -14.615238 -0.730047 0.648713 0.214948 0.650000 0.810000 1 13 1.000000
  12 -1.215787 -6.097810 -16.645237 -0.674462 0.604733 -0.423556 0.650000 0.760000 1 12 1.000000
v_nail
  145 0.611213 -6.097810 -13.670681 0.476034 0.641080 0.602004 0.650000 0.875000 1 145 1.000000
  21 0.002212 -30.907234 -13.455238 0.000002 -0.639170 0.769065 0.020000 0.855000 1 21 1.000000
  147 0.611212 -30.907234 -13.670681 0.476035 -0.641077 0.602006 0.020000 0.875000 1 147 1.000000
v_nail
  146 -0.606788 -30.907234 -13.670681 -0.476034 -0.641080 0.602004 0.020000 0.840000 1 146 1.000000
  20 0.002213 -6.097810 -13.455238 -0.000002 0.639170 0.769065 0.650000 0.855000 1 20 1.000000
  144 -0.606787 -6.097810 -13.670681 -0.476035 0.641077 0.602006 0.650000 0.840000 1 144 1.000000
v_nail
  3 -0.810389 -10.447810 -22.735237 -0.634729 0.426452 -0.644405 0.685000 0.710000 1 3 1.000000
  39 0.813611 -8.997809 -20.705240 0.625921 0.764217 -0.155547 0.725000 0.650000 1 39 1.000000
  38 0.813611 -10.447810 -22.735237 0.634740 0.426446 -0.644398 0.725000 0.710000 1 38 1.000000
v_nail
  146 -0.606788 -30.907234 -13.670681 -0.476034 -0.641080 0.602004 0.930000 0.515000 1 146 1.000000
  147 0.611212 -30.907234 -13.670681 0.476035 -0.641077 0.602006 0.960000 0.515000 1 147 1.000000
  21 0.002212 -30.907234 -13.455238 0.000002 -0.639170 0.769065 0.945000 0.510000 1 21 1.000000
v_nail
  147 0.611212 -30.907234 -13.670681 0.476035 -0.641077 0.602006 0.960000 0.515000 1 147 1.000000
  17 -1.215788 -30.907234 -14.615238 -0.730049 -0.648712 0.214945 0.915000 0.540000 1 17 1.000000
  19 1.220212 -30.907234 -14.615238 0.730039 -0.648723 0.214945 0.975000 0.540000 1 19 1.000000
v_nail
  19 1.220212 -30.907234 -14.615238 0.730039 -0.648723 0.214945 0.975000 0.540000 1 19 1.000000
  17 -1.215788 -30.907234 -14.615238 -0.730049 -0.648712 0.214945 0.915000 0.540000 1 17 1.000000
  16 -1.215788 -30.907234 -16.645237 -0.674458 -0.604739 -0.423554 0.915000 0.595000 1 16 1.000000
v_nail
  12 -1.215787 -6.097810 -16.645237 -0.674462 0.604733 -0.423556 0.650000 0.760000 1 12 1.000000
  33 0.002213 -6.097810 -17.232550 0.000003 0.621161 -0.783683 0.650000 0.725000 1 33 1.000000
  34 0.002212 -30.907234 -17.232550 -0.000003 -0.621161 -0.783683 0.020000 0.725000 1 34 1.000000
v_nail
  18 1.220212 -30.907234 -16.645237 0.674470 -0.604719 -0.423562 0.020000 0.955000 1 18 1.000000
  34 0.002212 -30.907234 -17.232550 -0.000003 -0.621161 -0.783683 0.020000 0.990000 1 34 1.000000
  33 0.002213 -6.097810 -17.232550 0.000003 0.621161 -0.783683 0.650000 0.990000 1 33 1.000000
v_nail
  26 -0.810390 -22.337811 -22.735237 -0.634729 0.426453 -0.644404 0.825000 0.700000 1 26 1.000000
  143 0.813611 -20.887812 -20.705240 0.625921 0.764217 -0.155546 0.865000 0.635000 1 143 1.000000
  142 0.813611 -22.337811 -22.735237 0.634740 0.426447 -0.644398 0.870000 0.700000 1 142 1.000000
v_nail
  26 -0.810390 -22.337811 -22.735237 -0.634729 0.426453 -0.644404 0.295000 0.435000 1 26 1.000000
  142 0.813611 -22.337811 -22.735237 0.634740 0.426447 -0.644398 0.250000 0.435000 1 142 1.000000
  9 0.813610 -24.947805 -23.315239 0.548181 -0.673251 -0.496216 0.250000 0.505000 1 9 1.000000
v_nail
  3 -0.810389 -10.447810 -22.735237 -0.634729 0.426452 -0.644405 0.505000 0.180000 1 3 1.000000
  38 0.813611 -10.447810 -22.735237 0.634740 0.426446 -0.644398 0.460000 0.180000 1 38 1.000000
  32 0.813611 -13.057809 -23.315239 0.548181 -0.673252 -0.496216 0.460000 0.250000 1 32 1.000000
v_nail
  5 -0.810389 -13.057809 -23.315239 -0.548135 -0.673286 -0.496219 0.755000 0.710000 1 5 1.000000
  32 0.813611 -13.057809 -23.315239 0.548181 -0.673252 -0.496216 0.800000 0.710000 1 32 1.000000
  31 0.813611 -11.897810 -21.285240 0.783900 -0.607981 0.125935 0.800000 0.650000 1 31 1.000000
v_nail
  23 -0.810390 -23.787811 -21.285240 -0.783902 -0.607979 0.125932 0.065000 0.460000 1 23 1.000000
  10 0.813610 -23.787811 -21.285240 0.783900 -0.607981 0.125935 0.065000 0.500000 1 10 1.000000
  11 0.813610 -24.077806 -18.675238 0.789124 -0.552728 -0.267909 0.135000 0.500000 1 11 1.000000
v_nail
  1 -0.810389 -9.577806 -18.095236 -0.659964 0.677102 0.325546 0.685000 0.580000 1 1 1.000000
  36 0.813611 -9.577806 -18.095236 0.659188 0.678661 0.323867 0.725000 0.580000 1 36 1.000000
  39 0.813611 -8.997809 -20.705240 0.625921 0.764217 -0.155547 0.725000 0.650000 1 39 1.000000
v_nail
  4 -0.801964 -14.217811 -16.645237 -0.447094 -0.633424 -0.631570 0.755000 0.510000 1 4 1.000000
  30 0.813611 -12.187808 -18.675238 0.789124 -0.552728 -0.267909 0.800000 0.580000 1 30 1.000000
  37 0.822036 -14.217811 -16.645237 0.447375 -0.631469 -0.633327 0.800000 0.510000 1 37 1.000000
v_nail
  0 -0.801964 -10.737805 -16.645235 -0.817699 0.447460 0.362144 0.685000 0.535000 1 0 1.000000
  36 0.813611 -9.577806 -18.095236 0.659188 0.678661 0.323867 0.725000 0.580000 1 36 1.000000
  1 -0.810389 -9.577806 -18.095236 -0.659964 0.677102 0.325546 0.685000 0.580000 1 1 1.000000
v_nail
  145 0.611213 -6.097810 -13.670681 0.476034 0.641080 0.602004 0.945000 0.375000 1 145 1.000000
  144 -0.606787 -6.097810 -13.670681 -0.476035 0.641077 0.602006 0.975000 0.375000 1 144 1.000000
  20 0.002213 -6.097810 -13.455238 -0.000002 0.639170 0.769065 0.960000 0.370000 1 20 1.000000
v_nail
  144 -0.606787 -6.097810 -13.670681 -0.476035 0.641077 0.602006 0.975000 0.375000 1 144 1.000000
  15 1.220213 -6.097810 -14.615238 0.730040 0.648723 0.214942 0.930000 0.400000 1 15 1.000000
  13 -1.215787 -6.097810 -14.615238 -0.730047 0.648713 0.214948 0.990000 0.400000 1 13 1.000000
v_nail
  12 -1.215787 -6.097810 -16.645237 -0.674462 0.604733 -0.423556 0.990000 0.450000 1 12 1.000000
  13 -1.215787 -6.097810 -14.615238 -0.730047 0.648713 0.214948 0.990000 0.400000 1 13 1.000000
  15 1.220213 -6.097810 -14.615238 0.730040 0.648723 0.214942 0.930000 0.400000 1 15 1.000000
v_nail
  41 6.117135 -17.539625 -12.473610 0.757183 -0.000006 0.653203 0.260000 0.015000 1 41 1.000000
  43 5.298895 -20.593327 -12.473610 0.655724 -0.378590 0.653219 0.175000 0.015000 1 43 1.000000
  42 5.298895 -20.593327 -15.825428 0.655740 -0.378586 -0.653206 0.175000 0.100000 1 42 1.000000
v_nail
  43 5.298895 -20.593327 -12.473610 0.655724 -0.378590 0.653219 0.175000 0.015000 1 43 1.000000
  45 3.063434 -22.828785 -12.473610 0.378581 -0.655732 0.653217 0.095000 0.015000 1 45 1.000000
  44 3.063434 -22.828785 -15.825428 0.378591 -0.655726 -0.653217 0.095000 0.100000 1 44 1.000000
v_nail
  45 3.063434 -22.828785 -12.473610 0.378581 -0.655732 0.653217 0.095000 0.015000 1 45 1.000000
  47 0.009733 -23.647028 -12.473610 -0.000006 -0.757172 0.653215 0.015000 0.015000 1 47 1.000000
  46 0.009733 -23.647028 -15.825428 0.000006 -0.757172 -0.653216 0.015000 0.100000 1 46 1.000000
v_nail
  47 0.009733 -23.647028 -12.473610 -0.000006 -0.757172 0.653215 0.985000 0.015000 1 47 1.000000
  49 -3.043967 -22.828785 -12.473610 -0.378598 -0.655740 0.653199 0.905000 0.015000 1 49 1.000000
  48 -3.043967 -22.828785 -15.825428 -0.378582 -0.655734 -0.653214 0.905000 0.100000 1 48 1.000000
v_nail
  49 -3.043967 -22.828785 -12.473610 -0.378598 -0.655740 0.653199 0.905000 0.015000 1 49 1.000000
  51 -5.279430 -20.593327 -12.473610 -0.655732 -0.378581 0.653216 0.825000 0.015000 1 51 1.000000
  50 -5.279430 -20.593327 -15.825428 -0.655736 -0.378596 -0.653203 0.825000 0.100000 1 50 1.000000
v_nail
  51 -5.279430 -20.593327 -12.473610 -0.655732 -0.378581 0.653216 0.825000 0.015000 1 51 1.000000
  53 -6.097667 -17.539625 -12.473610 -0.757182 0.000006 0.653204 0.740000 0.015000 1 53 1.000000
  52 -6.097667 -17.539625 -15.825428 -0.757172 -0.000006 -0.653216 0.740000 0.100000 1 52 1.000000
v_nail
  53 -6.097667 -17.539625 -12.473610 -0.757182 0.000006 0.653204 0.740000 0.015000 1 53 1.000000
  55 -5.279430 -14.485927 -12.473610 -0.655727 0.378591 0.653216 0.660000 0.015000 1 55 1.000000
  54 -5.279430 -14.485927 -15.825428 -0.655742 0.378587 -0.653204 0.660000 0.100000 1 54 1.000000
v_nail
  55 -5.279430 -14.485927 -12.473610 -0.655727 0.378591 0.653216 0.660000 0.015000 1 55 1.000000
  57 -3.043969 -12.250470 -12.473610 -0.378585 0.655740 0.653206 0.580000 0.015000 1 57 1.000000
  56 -3.043969 -12.250470 -15.825428 -0.378597 0.655735 -0.653204 0.580000 0.100000 1 56 1.000000
v_nail
  57 -3.043969 -12.250470 -12.473610 -0.378585 0.655740 0.653206 0.580000 0.015000 1 57 1.000000
  59 0.009734 -11.432225 -12.473610 0.000006 0.757172 0.653216 0.500000 0.015000 1 59 1.000000
  58 0.009734 -11.432225 -15.825428 -0.000005 0.757173 -0.653215 0.500000 0.100000 1 58 1.000000
v_nail
  59 0.009734 -11.432225 -12.473610 0.000006 0.757172 0.653216 0.500000 0.015000 1 59 1.000000
  61 3.063428 -12.250470 -12.473610 0.378601 0.655745 0.653192 0.420000 0.015000 1 61 1.000000
  60 3.063428 -12.250470 -15.825428 0.378586 0.655741 -0.653204 0.420000 0.100000 1 60 1.000000
v_nail
  45 3.063434 -22.828785 -12.473610 0.378581 -0.655732 0.653217 0.725000 0.135000 1 45 1.000000
  43 5.298895 -20.593327 -12.473610 0.655724 -0.378590 0.653219 0.670000 0.195000 1 43 1.000000
  61 3.063428 -12.250470 -12.473610 0.378601 0.655745 0.653192 0.725000 0.410000 1 61 1.000000
v_nail
  43 5.298895 -20.593327 -12.473610 0.655724 -0.378590 0.653219 0.670000 0.195000 1 43 1.000000
  41 6.117135 -17.539625 -12.473610 0.757183 -0.000006 0.653203 0.650000 0.270000 1 41 1.000000
  61 3.063428 -12.250470 -12.473610 0.378601 0.655745 0.653192 0.725000 0.410000 1 61 1.000000
v_nail
  41 6.117135 -17.539625 -12.473610 0.757183 -0.000006 0.653203 0.650000 0.270000 1 41 1.000000
  63 5.298896 -14.485927 -12.473610 0.655732 0.378582 0.653216 0.670000 0.350000 1 63 1.000000
  61 3.063428 -12.250470 -12.473610 0.378601 0.655745 0.653192 0.725000 0.410000 1 61 1.000000
v_nail
  61 3.063428 -12.250470 -12.473610 0.378601 0.655745 0.653192 0.725000 0.410000 1 61 1.000000
  59 0.009734 -11.432225 -12.473610 0.000006 0.757172 0.653216 0.805000 0.430000 1 59 1.000000
  57 -3.043969 -12.250470 -12.473610 -0.378585 0.655740 0.653206 0.885000 0.410000 1 57 1.000000
v_nail
  57 -3.043969 -12.250470 -12.473610 -0.378585 0.655740 0.653206 0.885000 0.410000 1 57 1.000000
  55 -5.279430 -14.485927 -12.473610 -0.655727 0.378591 0.653216 0.940000 0.350000 1 55 1.000000
  53 -6.097667 -17.539625 -12.473610 -0.757182 0.000006 0.653204 0.960000 0.270000 1 53 1.000000
v_nail
  53 -6.097667 -17.539625 -12.473610 -0.757182 0.000006 0.653204 0.960000 0.270000 1 53 1.000000
  51 -5.279430 -20.593327 -12.473610 -0.655732 -0.378581 0.653216 0.940000 0.195000 1 51 1.000000
  49 -3.043967 -22.828785 -12.473610 -0.378598 -0.655740 0.653199 0.885000 0.135000 1 49 1.000000
v_nail
  49 -3.043967 -22.828785 -12.473610 -0.378598 -0.655740 0.653199 0.885000 0.135000 1 49 1.000000
  47 0.009733 -23.647028 -12.473610 -0.000006 -0.757172 0.653215 0.805000 0.115000 1 47 1.000000
  45 3.063434 -22.828785 -12.473610 0.378581 -0.655732 0.653217 0.725000 0.135000 1 45 1.000000
v_nail
  61 3.063428 -12.250470 -12.473610 0.378601 0.655745 0.653192 0.725000 0.410000 1 61 1.000000
  57 -3.043969 -12.250470 -12.473610 -0.378585 0.655740 0.653206 0.885000 0.410000 1 57 1.000000
  53 -6.097667 -17.539625 -12.473610 -0.757182 0.000006 0.653204 0.960000 0.270000 1 53 1.000000
v_nail
  53 -6.097667 -17.539625 -12.473610 -0.757182 0.000006 0.653204 0.960000 0.270000 1 53 1.000000
  49 -3.043967 -22.828785 -12.473610 -0.378598 -0.655740 0.653199 0.885000 0.135000 1 49 1.000000
  61 3.063428 -12.250470 -12.473610 0.378601 0.655745 0.653192 0.725000 0.410000 1 61 1.000000
v_nail
  61 3.063428 -12.250470 -12.473610 0.378601 0.655745 0.653192 0.420000 0.015000 1 61 1.000000
  63 5.298896 -14.485927 -12.473610 0.655732 0.378582 0.653216 0.340000 0.015000 1 63 1.000000
  62 5.298896 -14.485927 -15.825428 0.655736 0.378597 -0.653203 0.340000 0.100000 1 62 1.000000
v_nail
  63 5.298896 -14.485927 -12.473610 0.655732 0.378582 0.653216 0.340000 0.015000 1 63 1.000000
  41 6.117135 -17.539625 -12.473610 0.757183 -0.000006 0.653203 0.260000 0.015000 1 41 1.000000
  40 6.117135 -17.539625 -15.825428 0.757172 0.000006 -0.653216 0.260000 0.100000 1 40 1.000000
v_nail
  62 5.298896 -14.485927 -15.825428 0.655736 0.378597 -0.653203 0.316467 0.359363 1 62 1.000000
  40 6.117135 -17.539625 -15.825428 0.757172 0.000006 -0.653216 0.338205 0.280925 1 40 1.000000
  42 5.298895 -20.593327 -15.825428 0.655740 -0.378586 -0.653206 0.312772 0.202483 1 42 1.000000
v_nail
  42 5.298895 -20.593327 -15.825428 0.655740 -0.378586 -0.653206 0.312772 0.202483 1 42 1.000000
  44 3.063434 -22.828785 -15.825428 0.378591 -0.655726 -0.653217 0.253418 0.145237 1 44 1.000000
  60 3.063428 -12.250470 -15.825428 0.378586 0.655741 -0.653204 0.263462 0.416068 1 60 1.000000
v_nail
  44 3.063434 -22.828785 -15.825428 0.378591 -0.655726 -0.653217 0.253418 0.145237 1 44 1.000000
  46 0.009733 -23.647028 -15.825428 0.000006 -0.757172 -0.653216 0.174980 0.123500 1 46 1.000000
  48 -3.043967 -22.828785 -15.825428 -0.378582 -0.655734 -0.653214 0.096538 0.148932 1 48 1.000000
v_nail
  48 -3.043967 -22.828785 -15.825428 -0.378582 -0.655734 -0.653214 0.096538 0.148932 1 48 1.000000
  50 -5.279430 -20.593327 -15.825428 -0.655736 -0.378596 -0.653203 0.043532 0.205637 1 50 1.000000
  54 -5.279430 -14.485927 -15.825428 -0.655742 0.378587 -0.653204 0.047228 0.362517 1 54 1.000000
v_nail
  50 -5.279430 -20.593327 -15.825428 -0.655736 -0.378596 -0.653203 0.043532 0.205637 1 50 1.000000
  52 -6.097667 -17.539625 -15.825428 -0.757172 -0.000006 -0.653216 0.021795 0.284075 1 52 1.000000
  54 -5.279430 -14.485927 -15.825428 -0.655742 0.378587 -0.653204 0.047228 0.362517 1 54 1.000000
v_nail
  54 -5.279430 -14.485927 -15.825428 -0.655742 0.378587 -0.653204 0.047228 0.362517 1 54 1.000000
  56 -3.043969 -12.250470 -15.825428 -0.378597 0.655735 -0.653204 0.106582 0.419763 1 56 1.000000
  60 3.063428 -12.250470 -15.825428 0.378586 0.655741 -0.653204 0.263462 0.416068 1 60 1.000000
v_nail
  56 -3.043969 -12.250470 -15.825428 -0.378597 0.655735 -0.653204 0.106582 0.419763 1 56 1.000000
  58 0.009734 -11.432225 -15.825428 -0.000005 0.757173 -0.653215 0.185020 0.441500 1 58 1.000000
  60 3.063428 -12.250470 -15.825428 0.378586 0.655741 -0.653204 0.263462 0.416068 1 60 1.000000
v_nail
  60 3.063428 -12.250470 -15.825428 0.378586 0.655741 -0.653204 0.263462 0.416068 1 60 1.000000
  62 5.298896 -14.485927 -15.825428 0.655736 0.378597 -0.653203 0.316467 0.359363 1 62 1.000000
  42 5.298895 -20.593327 -15.825428 0.655740 -0.378586 -0.653206 0.312772 0.202483 1 42 1.000000
v_nail
  54 -5.279430 -14.485927 -15.825428 -0.655742 0.378587 -0.653204 0.047228 0.362517 1 54 1.000000
  60 3.063428 -12.250470 -15.825428 0.378586 0.655741 -0.653204 0.263462 0.416068 1 60 1.000000
  48 -3.043967 -22.828785 -15.825428 -0.378582 -0.655734 -0.653214 0.096538 0.148932 1 48 1.000000
v_nail
  83 -0.709018 -18.254488 -11.679790 -0.548992 -0.548990 0.630252 0.655000 0.560000 1 83 1.000000
  92 -1.006305 -17.536772 -12.839790 -1.000000 -0.000002 0.000000 0.625000 0.580000 1 92 1.000000
  91 -0.709018 -18.254488 -12.839790 -0.707105 -0.707109 0.000000 0.625000 0.560000 1 91 1.000000
v_nail
  65 -2.762198 -31.187716 -13.908165 1.000000 -0.000000 -0.000004 0.600000 0.575000 1 65 1.000000
  67 -3.059484 -31.187716 -14.625877 0.707104 -0.000000 -0.707109 0.600000 0.555000 1 67 1.000000
  66 -3.059484 -20.540737 -14.625877 0.707110 -0.000000 -0.707104 0.325000 0.555000 1 66 1.000000
v_nail
  81 0.726408 -18.254488 -11.679790 0.548989 -0.548993 0.630252 0.655000 0.680000 1 81 1.000000
  90 0.008694 -18.551773 -12.839790 0.000001 -1.000000 0.000000 0.625000 0.700000 1 90 1.000000
  89 0.726408 -18.254488 -12.839790 0.707108 -0.707106 0.000000 0.625000 0.680000 1 89 1.000000
v_nail
  67 -3.059484 -31.187716 -14.625877 0.707104 -0.000000 -0.707109 0.600000 0.555000 1 67 1.000000
  69 -3.777199 -31.187716 -14.923164 -0.000004 0.000000 -1.000000 0.600000 0.535000 1 69 1.000000
  68 -3.777198 -20.540737 -14.923164 0.000003 -0.000000 -1.000000 0.325000 0.535000 1 68 1.000000
v_nail
  69 -3.777199 -31.187716 -14.923164 -0.000004 0.000000 -1.000000 0.600000 0.690000 1 69 1.000000
  71 -4.494910 -31.187716 -14.625877 -0.707109 0.000000 -0.707104 0.600000 0.670000 1 71 1.000000
  70 -4.494910 -20.540737 -14.625877 -0.707105 0.000000 -0.707109 0.325000 0.670000 1 70 1.000000
v_nail
  80 1.023694 -17.536772 -11.679790 0.776381 -0.000002 0.630264 0.970000 0.170000 1 80 1.000000
  82 0.008694 -18.551773 -11.679790 -0.000002 -0.776393 0.630250 0.980000 0.135000 1 82 1.000000
  81 0.726408 -18.254488 -11.679790 0.548989 -0.548993 0.630252 0.980000 0.155000 1 81 1.000000
v_nail
  82 0.008694 -18.551773 -11.679790 -0.000002 -0.776393 0.630250 0.980000 0.135000 1 82 1.000000
  84 -1.006305 -17.536772 -11.679790 -0.776381 0.000003 0.630264 0.950000 0.120000 1 84 1.000000
  83 -0.709018 -18.254488 -11.679790 -0.548992 -0.548990 0.630252 0.970000 0.120000 1 83 1.000000
v_nail
  84 -1.006305 -17.536772 -11.679790 -0.776381 0.000003 0.630264 0.950000 0.120000 1 84 1.000000
  86 0.008694 -16.521774 -11.679790 0.000001 0.776393 0.630250 0.935000 0.155000 1 86 1.000000
  85 -0.709018 -16.819059 -11.679790 -0.548989 0.548993 0.630252 0.935000 0.135000 1 85 1.000000
v_nail
  86 0.008694 -16.521774 -11.679790 0.000001 0.776393 0.630250 0.935000 0.155000 1 86 1.000000
  80 1.023694 -17.536772 -11.679790 0.776381 -0.000002 0.630264 0.970000 0.170000 1 80 1.000000
  87 0.726409 -16.819059 -11.679790 0.548991 0.548990 0.630253 0.950000 0.170000 1 87 1.000000
v_nail
  80 1.023694 -17.536772 -11.679790 0.776381 -0.000002 0.630264 0.970000 0.170000 1 80 1.000000
  84 -1.006305 -17.536772 -11.679790 -0.776381 0.000003 0.630264 0.950000 0.120000 1 84 1.000000
  82 0.008694 -18.551773 -11.679790 -0.000002 -0.776393 0.630250 0.980000 0.135000 1 82 1.000000
v_nail
  71 -4.494910 -31.187716 -14.625877 -0.707109 0.000000 -0.707104 0.600000 0.670000 1 71 1.000000
  73 -4.792197 -31.187716 -13.908165 -1.000000 0.000000 0.000003 0.600000 0.650000 1 73 1.000000
  72 -4.792197 -20.540737 -13.908165 -1.000000 0.000000 -0.000003 0.325000 0.650000 1 72 1.000000
v_nail
  73 -4.792197 -31.187716 -13.908165 -1.000000 0.000000 0.000003 0.600000 0.650000 1 73 1.000000
  75 -4.494910 -31.187716 -13.190453 -0.707105 0.000000 0.707109 0.600000 0.630000 1 75 1.000000
  74 -4.494910 -20.540737 -13.190453 -0.707109 0.000000 0.707104 0.325000 0.630000 1 74 1.000000
v_nail
  75 -4.494910 -31.187716 -13.190453 -0.707105 0.000000 0.707109 0.600000 0.630000 1 75 1.000000
  77 -3.777199 -31.187716 -12.893166 0.000003 -0.000000 1.000000 0.600000 0.610000 1 77 1.000000
  76 -3.777198 -20.540737 -12.893166 -0.000004 0.000000 1.000000 0.325000 0.610000 1 76 1.000000
v_nail
  129 4.767602 -36.543465 -15.492964 0.492189 -0.592086 -0.638110 0.815000 0.785000 1 129 1.000000
  131 2.758005 -36.543465 -15.492964 -0.492168 -0.592075 -0.638136 0.815000 0.735000 1 131 1.000000
  130 2.758005 -30.997345 -15.492964 -0.492188 0.592086 -0.638111 0.675000 0.735000 1 130 1.000000
v_nail
  77 -3.777199 -31.187716 -12.893166 0.000003 -0.000000 1.000000 0.600000 0.610000 1 77 1.000000
  79 -3.059484 -31.187716 -13.190453 0.707109 -0.000000 0.707104 0.600000 0.595000 1 79 1.000000
  78 -3.059484 -20.540737 -13.190453 0.707105 -0.000000 0.707109 0.325000 0.595000 1 78 1.000000
v_nail
  85 -0.709018 -16.819059 -11.679790 -0.548989 0.548993 0.630252 0.655000 0.600000 1 85 1.000000
  94 0.008694 -16.521774 -12.839790 -0.000002 1.000000 0.000000 0.625000 0.620000 1 94 1.000000
  93 -0.709018 -16.819059 -12.839790 -0.707107 0.707106 0.000000 0.625000 0.600000 1 93 1.000000
v_nail
  79 -3.059484 -31.187716 -13.190453 0.707109 -0.000000 0.707104 0.600000 0.595000 1 79 1.000000
  65 -2.762198 -31.187716 -13.908165 1.000000 -0.000000 -0.000004 0.600000 0.575000 1 65 1.000000
  64 -2.762198 -20.540737 -13.908165 1.000000 -0.000000 0.000004 0.325000 0.575000 1 64 1.000000
v_nail
  86 0.008694 -16.521774 -11.679790 0.000001 0.776393 0.630250 0.655000 0.620000 1 86 1.000000
  95 0.726409 -16.819059 -12.839790 0.707104 0.707109 0.000000 0.625000 0.640000 1 95 1.000000
  94 0.008694 -16.521774 -12.839790 -0.000002 1.000000 0.000000 0.625000 0.620000 1 94 1.000000
v_nail
  84 -1.006305 -17.536772 -11.679790 -0.776381 0.000003 0.630264 0.655000 0.580000 1 84 1.000000
  93 -0.709018 -16.819059 -12.839790 -0.707107 0.707106 0.000000 0.625000 0.600000 1 93 1.000000
  92 -1.006305 -17.536772 -12.839790 -1.000000 -0.000002 0.000000 0.625000 0.580000 1 92 1.000000
v_nail
  82 0.008694 -18.551773 -11.679790 -0.000002 -0.776393 0.630250 0.655000 0.540000 1 82 1.000000
  91 -0.709018 -18.254488 -12.839790 -0.707105 -0.707109 0.000000 0.625000 0.560000 1 91 1.000000
  90 0.008694 -18.551773 -12.839790 0.000001 -1.000000 0.000000 0.625000 0.540000 1 90 1.000000
v_nail
  80 1.023694 -17.536772 -11.679790 0.776381 -0.000002 0.630264 0.655000 0.660000 1 80 1.000000
  89 0.726408 -18.254488 -12.839790 0.707108 -0.707106 0.000000 0.625000 0.680000 1 89 1.000000
  88 1.023694 -17.536772 -12.839790 1.000000 0.000004 0.000000 0.625000 0.660000 1 88 1.000000
v_nail
  87 0.726409 -16.819059 -11.679790 0.548991 0.548990 0.630253 0.655000 0.640000 1 87 1.000000
  88 1.023694 -17.536772 -12.839790 1.000000 0.000004 0.000000 0.625000 0.660000 1 88 1.000000
  95 0.726409 -16.819059 -12.839790 0.707104 0.707109 0.000000 0.625000 0.640000 1 95 1.000000
v_nail
  97 -2.356199 -36.543465 -13.908165 0.765063 -0.641848 0.052064 0.835000 0.885000 1 97 1.000000
  99 -2.772399 -36.543465 -15.492964 0.492189 -0.592086 -0.638110 0.835000 0.925000 1 99 1.000000
  98 -2.772399 -30.997345 -15.492964 0.492168 0.592075 -0.638136 0.975000 0.925000 1 98 1.000000
v_nail
  101 -4.781995 -36.543465 -15.492964 -0.492168 -0.592075 -0.638136 0.835000 0.730000 1 101 1.000000
  103 -5.198197 -36.543465 -13.908165 -0.765071 -0.641838 0.052055 0.835000 0.775000 1 103 1.000000
  102 -5.198197 -30.997345 -13.908165 -0.765063 0.641848 0.052064 0.975000 0.775000 1 102 1.000000
v_nail
  103 -5.198197 -36.543465 -13.908165 -0.765071 -0.641838 0.052055 0.835000 0.775000 1 103 1.000000
  105 -4.781995 -36.543465 -12.903366 -0.548981 -0.630274 0.548976 0.835000 0.800000 1 105 1.000000
  104 -4.781995 -30.997345 -12.903366 -0.548984 0.630260 0.548989 0.975000 0.800000 1 104 1.000000
v_nail
  105 -4.781995 -36.543465 -12.903366 -0.548981 -0.630274 0.548976 0.835000 0.800000 1 105 1.000000
  107 -3.777200 -36.543465 -12.487164 -0.000003 -0.630268 0.776377 0.835000 0.830000 1 107 1.000000
  106 -3.777199 -30.997345 -12.487164 0.000002 0.630268 0.776377 0.975000 0.830000 1 106 1.000000
v_nail
  108 -2.772399 -30.997345 -12.903366 0.548981 0.630274 0.548976 0.660000 0.495000 1 108 1.000000
  96 -2.356199 -30.997345 -13.908165 0.765071 0.641838 0.052055 0.685000 0.505000 1 96 1.000000
  102 -5.198197 -30.997345 -13.908165 -0.765063 0.641848 0.052064 0.685000 0.430000 1 102 1.000000
v_nail
  96 -2.356199 -30.997345 -13.908165 0.765071 0.641838 0.052055 0.685000 0.505000 1 96 1.000000
  98 -2.772399 -30.997345 -15.492964 0.492168 0.592075 -0.638136 0.730000 0.495000 1 98 1.000000
  102 -5.198197 -30.997345 -13.908165 -0.765063 0.641848 0.052064 0.685000 0.430000 1 102 1.000000
v_nail
  98 -2.772399 -30.997345 -15.492964 0.492168 0.592075 -0.638136 0.730000 0.495000 1 98 1.000000
  100 -4.781995 -30.997345 -15.492964 -0.492188 0.592086 -0.638111 0.730000 0.445000 1 100 1.000000
  102 -5.198197 -30.997345 -13.908165 -0.765063 0.641848 0.052064 0.685000 0.430000 1 102 1.000000
v_nail
  102 -5.198197 -30.997345 -13.908165 -0.765063 0.641848 0.052064 0.685000 0.430000 1 102 1.000000
  104 -4.781995 -30.997345 -12.903366 -0.548984 0.630260 0.548989 0.660000 0.445000 1 104 1.000000
  106 -3.777199 -30.997345 -12.487164 0.000002 0.630268 0.776377 0.650000 0.470000 1 106 1.000000
v_nail
  107 -3.777200 -36.543465 -12.487164 -0.000003 -0.630268 0.776377 0.835000 0.830000 1 107 1.000000
  109 -2.772399 -36.543465 -12.903366 0.548982 -0.630261 0.548990 0.835000 0.855000 1 109 1.000000
  108 -2.772399 -30.997345 -12.903366 0.548981 0.630274 0.548976 0.975000 0.855000 1 108 1.000000
v_nail
  109 -2.772399 -36.543465 -12.903366 0.548982 -0.630261 0.548990 0.835000 0.855000 1 109 1.000000
  97 -2.356199 -36.543465 -13.908165 0.765063 -0.641848 0.052064 0.835000 0.885000 1 97 1.000000
  96 -2.356199 -30.997345 -13.908165 0.765071 0.641838 0.052055 0.975000 0.885000 1 96 1.000000
v_nail
  101 -4.781995 -36.543465 -15.492964 -0.492168 -0.592075 -0.638136 0.985000 0.700000 1 101 1.000000
  99 -2.772399 -36.543465 -15.492964 0.492189 -0.592086 -0.638110 0.985000 0.650000 1 99 1.000000
  97 -2.356199 -36.543465 -13.908165 0.765063 -0.641848 0.052064 0.945000 0.640000 1 97 1.000000
v_nail
  97 -2.356199 -36.543465 -13.908165 0.765063 -0.641848 0.052064 0.945000 0.640000 1 97 1.000000
  109 -2.772399 -36.543465 -12.903366 0.548982 -0.630261 0.548990 0.920000 0.650000 1 109 1.000000
  107 -3.777200 -36.543465 -12.487164 -0.000003 -0.630268 0.776377 0.910000 0.675000 1 107 1.000000
v_nail
  107 -3.777200 -36.543465 -12.487164 -0.000003 -0.630268 0.776377 0.910000 0.675000 1 107 1.000000
  105 -4.781995 -36.543465 -12.903366 -0.548981 -0.630274 0.548976 0.920000 0.700000 1 105 1.000000
  97 -2.356199 -36.543465 -13.908165 0.765063 -0.641848 0.052064 0.945000 0.640000 1 97 1.000000
v_nail
  105 -4.781995 -36.543465 -12.903366 -0.548981 -0.630274 0.548976 0.920000 0.700000 1 105 1.000000
  103 -5.198197 -36.543465 -13.908165 -0.765071 -0.641838 0.052055 0.945000 0.710000 1 103 1.000000
  97 -2.356199 -36.543465 -13.908165 0.765063 -0.641848 0.052064 0.945000 0.640000 1 97 1.000000
v_nail
  111 4.777802 -31.187716 -13.908165 1.000000 -0.000000 -0.000004 0.290000 0.575000 1 111 1.000000
  113 4.480516 -31.187716 -14.625877 0.707104 -0.000000 -0.707109 0.290000 0.555000 1 113 1.000000
  112 4.480517 -20.540737 -14.625877 0.707109 -0.000000 -0.707104 0.020000 0.555000 1 112 1.000000
v_nail
  113 4.480516 -31.187716 -14.625877 0.707104 -0.000000 -0.707109 0.290000 0.555000 1 113 1.000000
  115 3.762802 -31.187716 -14.923164 -0.000004 0.000000 -1.000000 0.290000 0.535000 1 115 1.000000
  114 3.762802 -20.540737 -14.923164 0.000003 -0.000000 -1.000000 0.020000 0.535000 1 114 1.000000
v_nail
  115 3.762802 -31.187716 -14.923164 -0.000004 0.000000 -1.000000 0.290000 0.690000 1 115 1.000000
  117 3.045090 -31.187716 -14.625877 -0.707109 0.000000 -0.707104 0.290000 0.670000 1 117 1.000000
  116 3.045090 -20.540737 -14.625877 -0.707105 0.000000 -0.707109 0.020000 0.670000 1 116 1.000000
v_nail
  117 3.045090 -31.187716 -14.625877 -0.707109 0.000000 -0.707104 0.290000 0.670000 1 117 1.000000
  119 2.747803 -31.187716 -13.908165 -1.000000 0.000000 0.000003 0.290000 0.650000 1 119 1.000000
  118 2.747804 -20.540737 -13.908165 -1.000000 0.000000 -0.000003 0.020000 0.650000 1 118 1.000000
v_nail
  119 2.747803 -31.187716 -13.908165 -1.000000 0.000000 0.000003 0.290000 0.650000 1 119 1.000000
  121 3.045090 -31.187716 -13.190453 -0.707105 0.000000 0.707109 0.290000 0.630000 1 121 1.000000
  120 3.045090 -20.540737 -13.190453 -0.707109 0.000000 0.707104 0.020000 0.630000 1 120 1.000000
v_nail
  121 3.045090 -31.187716 -13.190453 -0.707105 0.000000 0.707109 0.290000 0.630000 1 121 1.000000
  123 3.762802 -31.187716 -12.893166 0.000003 -0.000000 1.000000 0.290000 0.610000 1 123 1.000000
  122 3.762802 -20.540737 -12.893166 -0.000004 0.000000 1.000000 0.020000 0.610000 1 122 1.000000
v_nail
  99 -2.772399 -36.543465 -15.492964 0.492189 -0.592086 -0.638110 0.835000 0.925000 1 99 1.000000
  101 -4.781995 -36.543465 -15.492964 -0.492168 -0.592075 -0.638136 0.835000 0.975000 1 101 1.000000
  100 -4.781995 -30.997345 -15.492964 -0.492188 0.592086 -0.638111 0.975000 0.975000 1 100 1.000000
v_nail
  123 3.762802 -31.187716 -12.893166 0.000003 -0.000000 1.000000 0.290000 0.610000 1 123 1.000000
  125 4.480516 -31.187716 -13.190453 0.707109 -0.000000 0.707104 0.290000 0.590000 1 125 1.000000
  124 4.480517 -20.540737 -13.190453 0.707105 -0.000000 0.707109 0.020000 0.590000 1 124 1.000000
v_nail
  125 4.480516 -31.187716 -13.190453 0.707109 -0.000000 0.707104 0.290000 0.590000 1 125 1.000000
  111 4.777802 -31.187716 -13.908165 1.000000 -0.000000 -0.000004 0.290000 0.575000 1 111 1.000000
  110 4.777802 -20.540737 -13.908165 1.000000 -0.000000 0.000004 0.020000 0.575000 1 110 1.000000
v_nail
  127 5.183802 -36.543465 -13.908165 0.765062 -0.641848 0.052064 0.815000 0.825000 1 127 1.000000
  129 4.767602 -36.543465 -15.492964 0.492189 -0.592086 -0.638110 0.815000 0.785000 1 129 1.000000
  128 4.767602 -30.997345 -15.492964 0.492169 0.592075 -0.638135 0.675000 0.785000 1 128 1.000000
v_nail
  131 2.758005 -36.543465 -15.492964 -0.492168 -0.592075 -0.638136 0.815000 0.980000 1 131 1.000000
  133 2.341803 -36.543465 -13.908165 -0.765071 -0.641838 0.052055 0.815000 0.935000 1 133 1.000000
  132 2.341804 -30.997345 -13.908165 -0.765063 0.641848 0.052064 0.675000 0.935000 1 132 1.000000
v_nail
  133 2.341803 -36.543465 -13.908165 -0.765071 -0.641838 0.052055 0.815000 0.935000 1 133 1.000000
  135 2.758005 -36.543465 -12.903366 -0.548981 -0.630274 0.548976 0.815000 0.910000 1 135 1.000000
  134 2.758005 -30.997345 -12.903366 -0.548984 0.630260 0.548989 0.675000 0.910000 1 134 1.000000
v_nail
  135 2.758005 -36.543465 -12.903366 -0.548981 -0.630274 0.548976 0.815000 0.910000 1 135 1.000000
  137 3.762801 -36.543465 -12.487164 -0.000003 -0.630269 0.776377 0.815000 0.880000 1 137 1.000000
  136 3.762802 -30.997345 -12.487164 0.000002 0.630268 0.776377 0.675000 0.880000 1 136 1.000000
v_nail
  138 4.767602 -30.997345 -12.903366 0.548981 0.630274 0.548976 0.595000 0.415000 1 138 1.000000
  126 5.183802 -30.997345 -13.908165 0.765071 0.641838 0.052055 0.620000 0.425000 1 126 1.000000
  132 2.341804 -30.997345 -13.908165 -0.765063 0.641848 0.052064 0.620000 0.355000 1 132 1.000000
v_nail
  126 5.183802 -30.997345 -13.908165 0.765071 0.641838 0.052055 0.620000 0.425000 1 126 1.000000
  128 4.767602 -30.997345 -15.492964 0.492169 0.592075 -0.638135 0.660000 0.415000 1 128 1.000000
  132 2.341804 -30.997345 -13.908165 -0.765063 0.641848 0.052064 0.620000 0.355000 1 132 1.000000
v_nail
  128 4.767602 -30.997345 -15.492964 0.492169 0.592075 -0.638135 0.660000 0.415000 1 128 1.000000
  130 2.758005 -30.997345 -15.492964 -0.492188 0.592086 -0.638111 0.660000 0.365000 1 130 1.000000
  132 2.341804 -30.997345 -13.908165 -0.765063 0.641848 0.052064 0.620000 0.355000 1 132 1.000000
v_nail
  132 2.341804 -30.997345 -13.908165 -0.765063 0.641848 0.052064 0.620000 0.355000 1 132 1.000000
  134 2.758005 -30.997345 -12.903366 -0.548984 0.630260 0.548989 0.595000 0.365000 1 134 1.000000
  136 3.762802 -30.997345 -12.487164 0.000002 0.630268 0.776377 0.585000 0.390000 1 136 1.000000
v_nail
  137 3.762801 -36.543465 -12.487164 -0.000003 -0.630269 0.776377 0.815000 0.880000 1 137 1.000000
  139 4.767602 -36.543465 -12.903366 0.548982 -0.630261 0.548990 0.815000 0.855000 1 139 1.000000
  138 4.767602 -30.997345 -12.903366 0.548981 0.630274 0.548976 0.675000 0.855000 1 138 1.000000
v_nail
  139 4.767602 -36.543465 -12.903366 0.548982 -0.630261 0.548990 0.815000 0.855000 1 139 1.000000
  127 5.183802 -36.543465 -13.908165 0.765062 -0.641848 0.052064 0.815000 0.825000 1 127 1.000000
  126 5.183802 -30.997345 -13.908165 0.765071 0.641838 0.052055 0.675000 0.825000 1 126 1.000000
v_nail
  131 2.758005 -36.543465 -15.492964 -0.492168 -0.592075 -0.638136 0.890000 0.495000 1 131 1.000000
  129 4.767602 -36.543465 -15.492964 0.492189 -0.592086 -0.638110 0.890000 0.445000 1 129 1.000000
  127 5.183802 -36.543465 -13.908165 0.765062 -0.641848 0.052064 0.850000 0.435000 1 127 1.000000
v_nail
  127 5.183802 -36.543465 -13.908165 0.765062 -0.641848 0.052064 0.850000 0.435000 1 127 1.000000
  139 4.767602 -36.543465 -12.903366 0.548982 -0.630261 0.548990 0.825000 0.445000 1 139 1.000000
  137 3.762801 -36.543465 -12.487164 -0.000003 -0.630269 0.776377 0.815000 0.470000 1 137 1.000000
v_nail
  137 3.762801 -36.543465 -12.487164 -0.000003 -0.630269 0.776377 0.815000 0.470000 1 137 1.000000
  135 2.758005 -36.543465 -12.903366 -0.548981 -0.630274 0.548976 0.825000 0.495000 1 135 1.000000
  127 5.183802 -36.543465 -13.908165 0.765062 -0.641848 0.052064 0.850000 0.435000 1 127 1.000000
v_nail
  135 2.758005 -36.543465 -12.903366 -0.548981 -0.630274 0.548976 0.825000 0.495000 1 135 1.000000
  133 2.341803 -36.543465 -13.908165 -0.765071 -0.641838 0.052055 0.850000 0.505000 1 133 1.000000
  127 5.183802 -36.543465 -13.908165 0.765062 -0.641848 0.052064 0.850000 0.435000 1 127 1.000000
v_nail
  145 0.611213 -6.097810 -13.670681 0.476034 0.641080 0.602004 0.650000 0.875000 1 145 1.000000
  147 0.611212 -30.907234 -13.670681 0.476035 -0.641077 0.602006 0.020000 0.875000 1 147 1.000000
  19 1.220212 -30.907234 -14.615238 0.730039 -0.648723 0.214945 0.020000 0.900000 1 19 1.000000
v_nail
  146 -0.606788 -30.907234 -13.670681 -0.476034 -0.641080 0.602004 0.020000 0.840000 1 146 1.000000
  144 -0.606787 -6.097810 -13.670681 -0.476035 0.641077 0.602006 0.650000 0.840000 1 144 1.000000
  13 -1.215787 -6.097810 -14.615238 -0.730047 0.648713 0.214948 0.650000 0.810000 1 13 1.000000
v_nail
  149 -0.306119 -15.018663 -19.033628 -0.538285 -0.493123 -0.683432 0.450000 0.415000 1 149 1.000000
  150 -0.306119 -13.878411 -16.853733 -0.650597 -0.672923 0.351991 0.450000 0.475000 1 150 1.000000
  148 -0.306119 -13.348892 -17.306139 -0.692903 0.518433 -0.501112 0.435000 0.475000 1 148 1.000000
v_nail
  152 0.313333 -15.018663 -19.033628 0.538285 -0.493314 -0.683294 0.465000 0.415000 1 152 1.000000
  151 0.313333 -13.348892 -17.306139 0.692888 0.518443 -0.501121 0.485000 0.475000 1 151 1.000000
  153 0.313333 -13.878411 -16.853733 0.650612 -0.672912 0.351985 0.470000 0.475000 1 153 1.000000
v_nail
  149 -0.306119 -15.018663 -19.033628 -0.538285 -0.493123 -0.683432 0.450000 0.415000 1 149 1.000000
  153 0.313333 -13.878411 -16.853733 0.650612 -0.672912 0.351985 0.470000 0.475000 1 153 1.000000
  150 -0.306119 -13.878411 -16.853733 -0.650597 -0.672923 0.351991 0.450000 0.475000 1 150 1.000000
v_nail
  149 -0.306119 -15.018663 -19.033628 -0.538285 -0.493123 -0.683432 0.450000 0.415000 1 149 1.000000
  152 0.313333 -15.018663 -19.033628 0.538285 -0.493314 -0.683294 0.465000 0.415000 1 152 1.000000
  153 0.313333 -13.878411 -16.853733 0.650612 -0.672912 0.351985 0.470000 0.475000 1 153 1.000000
v_nail
  148 -0.306119 -13.348892 -17.306139 -0.692903 0.518433 -0.501112 0.450000 0.355000 1 148 1.000000
  151 0.313333 -13.348892 -17.306139 0.692888 0.518443 -0.501121 0.465000 0.355000 1 151 1.000000
  152 0.313333 -15.018663 -19.033628 0.538285 -0.493314 -0.683294 0.465000 0.415000 1 152 1.000000
v_nail
  148 -0.306119 -13.348892 -17.306139 -0.692903 0.518433 -0.501112 0.450000 0.355000 1 148 1.000000
  152 0.313333 -15.018663 -19.033628 0.538285 -0.493314 -0.683294 0.465000 0.415000 1 152 1.000000
  149 -0.306119 -15.018663 -19.033628 -0.538285 -0.493123 -0.683432 0.450000 0.415000 1 149 1.000000
v_nail
  157 0.797123 -42.205868 -10.951258 -0.633658 0.443797 0.633658 0.423858 0.829433 1 157 1.000000
  156 3.738687 -42.205868 -9.732825 0.000000 0.443797 0.896128 0.381690 0.787265 1 156 1.000000
  164 3.738687 -38.005871 -11.812823 0.000000 0.608649 0.793439 0.359114 0.841720 1 164 1.000000
v_nail
  157 0.797123 -42.205868 -10.951258 -0.633658 0.443797 0.633658 0.423858 0.829433 1 157 1.000000
  164 3.738687 -38.005871 -11.812823 0.000000 0.608649 0.793439 0.359114 0.841720 1 164 1.000000
  165 2.267905 -38.005871 -12.422040 -0.561046 0.608649 0.561046 0.369389 0.851975 1 165 1.000000
v_nail
  155 6.680251 -42.205868 -10.951258 0.633658 0.443797 0.633658 0.322055 0.787265 1 155 1.000000
  154 7.898687 -42.205868 -13.892826 0.896128 0.443797 -0.000000 0.279887 0.829434 1 154 1.000000
  162 5.818688 -38.005871 -13.892826 0.793439 0.608649 -0.000000 0.334341 0.852009 1 162 1.000000
v_nail
  155 6.680251 -42.205868 -10.951258 0.633658 0.443797 0.633658 0.322055 0.787265 1 155 1.000000
  162 5.818688 -38.005871 -13.892826 0.793439 0.608649 -0.000000 0.334341 0.852009 1 162 1.000000
  163 5.209469 -38.005871 -12.422040 0.561046 0.608649 0.561047 0.344597 0.841734 1 163 1.000000
v_nail
  154 7.898687 -42.205868 -13.892826 0.896128 0.443797 -0.000000 0.279887 0.829434 1 154 1.000000
  161 6.680251 -42.205868 -16.834393 0.633658 0.443797 -0.633658 0.279887 0.889068 1 161 1.000000
  169 5.209469 -38.005871 -15.363608 0.561046 0.608649 -0.561047 0.334355 0.866527 1 169 1.000000
v_nail
  154 7.898687 -42.205868 -13.892826 0.896128 0.443797 -0.000000 0.279887 0.829434 1 154 1.000000
  169 5.209469 -38.005871 -15.363608 0.561046 0.608649 -0.561047 0.334355 0.866527 1 169 1.000000
  162 5.818688 -38.005871 -13.892826 0.793439 0.608649 -0.000000 0.334341 0.852009 1 162 1.000000
v_nail
  160 3.738687 -42.205868 -18.052826 0.000000 0.443797 -0.896127 0.322055 0.931237 1 160 1.000000
  159 0.797123 -42.205868 -16.834393 -0.633658 0.443797 -0.633658 0.381690 0.931237 1 159 1.000000
  167 2.267905 -38.005871 -15.363608 -0.561046 0.608649 -0.561047 0.359148 0.876768 1 167 1.000000
v_nail
  160 3.738687 -42.205868 -18.052826 0.000000 0.443797 -0.896127 0.322055 0.931237 1 160 1.000000
  167 2.267905 -38.005871 -15.363608 -0.561046 0.608649 -0.561047 0.359148 0.876768 1 167 1.000000
  168 3.738687 -38.005871 -15.972825 0.000000 0.608649 -0.793440 0.344630 0.876782 1 168 1.000000
v_nail
  158 -0.421313 -42.205868 -13.892826 -0.896127 0.443797 -0.000000 0.423858 0.889068 1 158 1.000000
  157 0.797123 -42.205868 -10.951258 -0.633658 0.443797 0.633658 0.423858 0.829433 1 157 1.000000
  165 2.267905 -38.005871 -12.422040 -0.561046 0.608649 0.561046 0.369389 0.851975 1 165 1.000000
v_nail
  158 -0.421313 -42.205868 -13.892826 -0.896127 0.443797 -0.000000 0.423858 0.889068 1 158 1.000000
  165 2.267905 -38.005871 -12.422040 -0.561046 0.608649 0.561046 0.369389 0.851975 1 165 1.000000
  166 1.658687 -38.005871 -13.892826 -0.793439 0.608649 -0.000000 0.369403 0.866493 1 166 1.000000
v_nail
  156 3.738687 -42.205868 -9.732825 0.000000 0.443797 0.896128 0.381690 0.787265 1 156 1.000000
  155 6.680251 -42.205868 -10.951258 0.633658 0.443797 0.633658 0.322055 0.787265 1 155 1.000000
  163 5.209469 -38.005871 -12.422040 0.561046 0.608649 0.561047 0.344597 0.841734 1 163 1.000000
v_nail
  156 3.738687 -42.205868 -9.732825 0.000000 0.443797 0.896128 0.381690 0.787265 1 156 1.000000
  163 5.209469 -38.005871 -12.422040 0.561046 0.608649 0.561047 0.344597 0.841734 1 163 1.000000
  164 3.738687 -38.005871 -11.812823 0.000000 0.608649 0.793439 0.359114 0.841720 1 164 1.000000
v_nail
  161 6.680251 -42.205868 -16.834393 0.633658 0.443797 -0.633658 0.279887 0.889068 1 161 1.000000
  160 3.738687 -42.205868 -18.052826 0.000000 0.443797 -0.896127 0.322055 0.931237 1 160 1.000000
  168 3.738687 -38.005871 -15.972825 0.000000 0.608649 -0.793440 0.344630 0.876782 1 168 1.000000
v_nail
  161 6.680251 -42.205868 -16.834393 0.633658 0.443797 -0.633658 0.279887 0.889068 1 161 1.000000
  168 3.738687 -38.005871 -15.972825 0.000000 0.608649 -0.793440 0.344630 0.876782 1 168 1.000000
  169 5.209469 -38.005871 -15.363608 0.561046 0.608649 -0.561047 0.334355 0.866527 1 169 1.000000
v_nail
  159 0.797123 -42.205868 -16.834393 -0.633658 0.443797 -0.633658 0.381690 0.931237 1 159 1.000000
  158 -0.421313 -42.205868 -13.892826 -0.896127 0.443797 -0.000000 0.423858 0.889068 1 158 1.000000
  166 1.658687 -38.005871 -13.892826 -0.793439 0.608649 -0.000000 0.369403 0.866493 1 166 1.000000
v_nail
  159 0.797123 -42.205868 -16.834393 -0.633658 0.443797 -0.633658 0.381690 0.931237 1 159 1.000000
  166 1.658687 -38.005871 -13.892826 -0.793439 0.608649 -0.000000 0.369403 0.866493 1 166 1.000000
  167 2.267905 -38.005871 -15.363608 -0.561046 0.608649 -0.561047 0.359148 0.876768 1 167 1.000000
v_nail
  168 3.738687 -38.005871 -15.972825 0.000000 0.608649 -0.793440 0.344630 0.876782 1 168 1.000000
  167 2.267905 -38.005871 -15.363608 -0.561046 0.608649 -0.561047 0.359148 0.876768 1 167 1.000000
  170 3.738687 -36.405869 -13.892826 0.000000 1.000000 -0.000001 0.351872 0.859251 1 170 1.000000
v_nail
  166 1.658687 -38.005871 -13.892826 -0.793439 0.608649 -0.000000 0.369403 0.866493 1 166 1.000000
  165 2.267905 -38.005871 -12.422040 -0.561046 0.608649 0.561046 0.369389 0.851975 1 165 1.000000
  170 3.738687 -36.405869 -13.892826 0.000000 1.000000 -0.000001 0.351872 0.859251 1 170 1.000000
v_nail
  164 3.738687 -38.005871 -11.812823 0.000000 0.608649 0.793439 0.359114 0.841720 1 164 1.000000
  163 5.209469 -38.005871 -12.422040 0.561046 0.608649 0.561047 0.344597 0.841734 1 163 1.000000
  170 3.738687 -36.405869 -13.892826 0.000000 1.000000 -0.000001 0.351872 0.859251 1 170 1.000000
v_nail
  169 5.209469 -38.005871 -15.363608 0.561046 0.608649 -0.561047 0.334355 0.866527 1 169 1.000000
  168 3.738687 -38.005871 -15.972825 0.000000 0.608649 -0.793440 0.344630 0.876782 1 168 1.000000
  170 3.738687 -36.405869 -13.892826 0.000000 1.000000 -0.000001 0.351872 0.859251 1 170 1.000000
v_nail
  167 2.267905 -38.005871 -15.363608 -0.561046 0.608649 -0.561047 0.359148 0.876768 1 167 1.000000
  166 1.658687 -38.005871 -13.892826 -0.793439 0.608649 -0.000000 0.369403 0.866493 1 166 1.000000
  170 3.738687 -36.405869 -13.892826 0.000000 1.000000 -0.000001 0.351872 0.859251 1 170 1.000000
v_nail
  165 2.267905 -38.005871 -12.422040 -0.561046 0.608649 0.561046 0.369389 0.851975 1 165 1.000000
  164 3.738687 -38.005871 -11.812823 0.000000 0.608649 0.793439 0.359114 0.841720 1 164 1.000000
  170 3.738687 -36.405869 -13.892826 0.000000 1.000000 -0.000001 0.351872 0.859251 1 170 1.000000
v_nail
  163 5.209469 -38.005871 -12.422040 0.561046 0.608649 0.561047 0.344597 0.841734 1 163 1.000000
  162 5.818688 -38.005871 -13.892826 0.793439 0.608649 -0.000000 0.334341 0.852009 1 162 1.000000
  170 3.738687 -36.405869 -13.892826 0.000000 1.000000 -0.000001 0.351872 0.859251 1 170 1.000000
v_nail
  162 5.818688 -38.005871 -13.892826 0.793439 0.608649 -0.000000 0.334341 0.852009 1 162 1.000000
  169 5.209469 -38.005871 -15.363608 0.561046 0.608649 -0.561047 0.334355 0.866527 1 169 1.000000
  170 3.738687 -36.405869 -13.892826 0.000000 1.000000 -0.000001 0.351872 0.859251 1 170 1.000000
v_nail
  174 -0.831905 -42.205868 -10.951258 0.633658 0.443797 0.633658 0.423858 0.829433 1 174 1.000000
  182 -2.302686 -38.005871 -12.422040 0.561046 0.608649 0.561047 0.369389 0.851975 1 182 1.000000
  181 -3.773468 -38.005871 -11.812823 0.000000 0.608649 0.793440 0.359114 0.841720 1 181 1.000000
v_nail
  174 -0.831905 -42.205868 -10.951258 0.633658 0.443797 0.633658 0.423858 0.829433 1 174 1.000000
  181 -3.773468 -38.005871 -11.812823 0.000000 0.608649 0.793440 0.359114 0.841720 1 181 1.000000
  173 -3.773469 -42.205868 -9.732825 0.000000 0.443797 0.896127 0.381690 0.787265 1 173 1.000000
v_nail
  172 -6.715033 -42.205868 -10.951258 -0.633658 0.443797 0.633658 0.322055 0.787265 1 172 1.000000
  180 -5.244250 -38.005871 -12.422040 -0.561046 0.608649 0.561047 0.344597 0.841734 1 180 1.000000
  179 -5.853468 -38.005871 -13.892826 -0.793439 0.608650 -0.000000 0.334341 0.852009 1 179 1.000000
v_nail
  172 -6.715033 -42.205868 -10.951258 -0.633658 0.443797 0.633658 0.322055 0.787265 1 172 1.000000
  179 -5.853468 -38.005871 -13.892826 -0.793439 0.608650 -0.000000 0.334341 0.852009 1 179 1.000000
  171 -7.933470 -42.205868 -13.892826 -0.896127 0.443797 -0.000000 0.279887 0.829434 1 171 1.000000
v_nail
  171 -7.933470 -42.205868 -13.892826 -0.896127 0.443797 -0.000000 0.279887 0.829434 1 171 1.000000
  179 -5.853468 -38.005871 -13.892826 -0.793439 0.608650 -0.000000 0.334341 0.852009 1 179 1.000000
  186 -5.244250 -38.005871 -15.363608 -0.561046 0.608649 -0.561047 0.334355 0.866527 1 186 1.000000
v_nail
  171 -7.933470 -42.205868 -13.892826 -0.896127 0.443797 -0.000000 0.279887 0.829434 1 171 1.000000
  186 -5.244250 -38.005871 -15.363608 -0.561046 0.608649 -0.561047 0.334355 0.866527 1 186 1.000000
  178 -6.715033 -42.205868 -16.834393 -0.633658 0.443797 -0.633658 0.279887 0.889068 1 178 1.000000
v_nail
  177 -3.773469 -42.205868 -18.052826 -0.000000 0.443797 -0.896127 0.322055 0.931237 1 177 1.000000
  185 -3.773468 -38.005871 -15.972825 -0.000000 0.608649 -0.793440 0.344630 0.876782 1 185 1.000000
  184 -2.302686 -38.005871 -15.363608 0.561046 0.608649 -0.561047 0.359148 0.876768 1 184 1.000000
v_nail
  177 -3.773469 -42.205868 -18.052826 -0.000000 0.443797 -0.896127 0.322055 0.931237 1 177 1.000000
  184 -2.302686 -38.005871 -15.363608 0.561046 0.608649 -0.561047 0.359148 0.876768 1 184 1.000000
  176 -0.831905 -42.205868 -16.834393 0.633658 0.443797 -0.633658 0.381690 0.931237 1 176 1.000000
v_nail
  175 0.386532 -42.205868 -13.892826 0.896128 0.443797 -0.000000 0.423858 0.889068 1 175 1.000000
  183 -1.693468 -38.005871 -13.892826 0.793439 0.608649 -0.000000 0.369403 0.866493 1 183 1.000000
  182 -2.302686 -38.005871 -12.422040 0.561046 0.608649 0.561047 0.369389 0.851975 1 182 1.000000
v_nail
  175 0.386532 -42.205868 -13.892826 0.896128 0.443797 -0.000000 0.423858 0.889068 1 175 1.000000
  182 -2.302686 -38.005871 -12.422040 0.561046 0.608649 0.561047 0.369389 0.851975 1 182 1.000000
  174 -0.831905 -42.205868 -10.951258 0.633658 0.443797 0.633658 0.423858 0.829433 1 174 1.000000
v_nail
  173 -3.773469 -42.205868 -9.732825 0.000000 0.443797 0.896127 0.381690 0.787265 1 173 1.000000
  181 -3.773468 -38.005871 -11.812823 0.000000 0.608649 0.793440 0.359114 0.841720 1 181 1.000000
  180 -5.244250 -38.005871 -12.422040 -0.561046 0.608649 0.561047 0.344597 0.841734 1 180 1.000000
v_nail
  173 -3.773469 -42.205868 -9.732825 0.000000 0.443797 0.896127 0.381690 0.787265 1 173 1.000000
  180 -5.244250 -38.005871 -12.422040 -0.561046 0.608649 0.561047 0.344597 0.841734 1 180 1.000000
  172 -6.715033 -42.205868 -10.951258 -0.633658 0.443797 0.633658 0.322055 0.787265 1 172 1.000000
v_nail
  178 -6.715033 -42.205868 -16.834393 -0.633658 0.443797 -0.633658 0.279887 0.889068 1 178 1.000000
  186 -5.244250 -38.005871 -15.363608 -0.561046 0.608649 -0.561047 0.334355 0.866527 1 186 1.000000
  185 -3.773468 -38.005871 -15.972825 -0.000000 0.608649 -0.793440 0.344630 0.876782 1 185 1.000000
v_nail
  178 -6.715033 -42.205868 -16.834393 -0.633658 0.443797 -0.633658 0.279887 0.889068 1 178 1.000000
  185 -3.773468 -38.005871 -15.972825 -0.000000 0.608649 -0.793440 0.344630 0.876782 1 185 1.000000
  177 -3.773469 -42.205868 -18.052826 -0.000000 0.443797 -0.896127 0.322055 0.931237 1 177 1.000000
v_nail
  176 -0.831905 -42.205868 -16.834393 0.633658 0.443797 -0.633658 0.381690 0.931237 1 176 1.000000
  184 -2.302686 -38.005871 -15.363608 0.561046 0.608649 -0.561047 0.359148 0.876768 1 184 1.000000
  183 -1.693468 -38.005871 -13.892826 0.793439 0.608649 -0.000000 0.369403 0.866493 1 183 1.000000
v_nail
  176 -0.831905 -42.205868 -16.834393 0.633658 0.443797 -0.633658 0.381690 0.931237 1 176 1.000000
  183 -1.693468 -38.005871 -13.892826 0.793439 0.608649 -0.000000 0.369403 0.866493 1 183 1.000000
  175 0.386532 -42.205868 -13.892826 0.896128 0.443797 -0.000000 0.423858 0.889068 1 175 1.000000
v_nail
  185 -3.773468 -38.005871 -15.972825 -0.000000 0.608649 -0.793440 0.344630 0.876782 1 185 1.000000
  187 -3.773468 -36.405869 -13.892826 -0.000000 1.000000 -0.000001 0.351872 0.859251 1 187 1.000000
  184 -2.302686 -38.005871 -15.363608 0.561046 0.608649 -0.561047 0.359148 0.876768 1 184 1.000000
v_nail
  183 -1.693468 -38.005871 -13.892826 0.793439 0.608649 -0.000000 0.369403 0.866493 1 183 1.000000
  187 -3.773468 -36.405869 -13.892826 -0.000000 1.000000 -0.000001 0.351872 0.859251 1 187 1.000000
  182 -2.302686 -38.005871 -12.422040 0.561046 0.608649 0.561047 0.369389 0.851975 1 182 1.000000
v_nail
  181 -3.773468 -38.005871 -11.812823 0.000000 0.608649 0.793440 0.359114 0.841720 1 181 1.000000
  187 -3.773468 -36.405869 -13.892826 -0.000000 1.000000 -0.000001 0.351872 0.859251 1 187 1.000000
  180 -5.244250 -38.005871 -12.422040 -0.561046 0.608649 0.561047 0.344597 0.841734 1 180 1.000000
v_nail
  186 -5.244250 -38.005871 -15.363608 -0.561046 0.608649 -0.561047 0.334355 0.866527 1 186 1.000000
  187 -3.773468 -36.405869 -13.892826 -0.000000 1.000000 -0.000001 0.351872 0.859251 1 187 1.000000
  185 -3.773468 -38.005871 -15.972825 -0.000000 0.608649 -0.793440 0.344630 0.876782 1 185 1.000000
v_nail
  184 -2.302686 -38.005871 -15.363608 0.561046 0.608649 -0.561047 0.359148 0.876768 1 184 1.000000
  187 -3.773468 -36.405869 -13.892826 -0.000000 1.000000 -0.000001 0.351872 0.859251 1 187 1.000000
  183 -1.693468 -38.005871 -13.892826 0.793439 0.608649 -0.000000 0.369403 0.866493 1 183 1.000000
v_nail
  182 -2.302686 -38.005871 -12.422040 0.561046 0.608649 0.561047 0.369389 0.851975 1 182 1.000000
  187 -3.773468 -36.405869 -13.892826 -0.000000 1.000000 -0.000001 0.351872 0.859251 1 187 1.000000
  181 -3.773468 -38.005871 -11.812823 0.000000 0.608649 0.793440 0.359114 0.841720 1 181 1.000000
v_nail
  180 -5.244250 -38.005871 -12.422040 -0.561046 0.608649 0.561047 0.344597 0.841734 1 180 1.000000
  187 -3.773468 -36.405869 -13.892826 -0.000000 1.000000 -0.000001 0.351872 0.859251 1 187 1.000000
  179 -5.853468 -38.005871 -13.892826 -0.793439 0.608650 -0.000000 0.334341 0.852009 1 179 1.000000
v_nail
  179 -5.853468 -38.005871 -13.892826 -0.793439 0.608650 -0.000000 0.334341 0.852009 1 179 1.000000
  187 -3.773468 -36.405869 -13.892826 -0.000000 1.000000 -0.000001 0.351872 0.859251 1 187 1.000000
  186 -5.244250 -38.005871 -15.363608 -0.561046 0.608649 -0.561047 0.334355 0.866527 1 186 1.000000
end
