version 1
nodes
0 "v0" -1
1 "v1" -1
2 "v2" -1
3 "v3" -1
4 "v4" -1
5 "v5" -1
6 "v6" -1
7 "v7" -1
8 "v8" -1
9 "v9" -1
10 "v10" -1
11 "v11" -1
12 "v12" -1
13 "v13" -1
14 "v14" -1
15 "v15" -1
16 "v16" -1
17 "v17" -1
18 "v18" -1
19 "v19" -1
20 "v20" -1
21 "v21" -1
22 "v22" -1
23 "v23" -1
24 "v24" -1
25 "v25" -1
26 "v26" -1
27 "v27" -1
28 "v28" -1
29 "v29" -1
30 "v30" -1
31 "v31" -1
32 "v32" -1
33 "v33" -1
34 "v34" -1
35 "v35" -1
36 "v36" -1
37 "v37" -1
38 "v38" -1
39 "v39" -1
40 "v40" -1
41 "v41" -1
42 "v42" -1
43 "v43" -1
44 "v44" -1
45 "v45" -1
46 "v46" -1
47 "v47" -1
48 "v48" -1
49 "v49" -1
50 "v50" -1
51 "v51" -1
52 "v52" -1
53 "v53" -1
54 "v54" -1
55 "v55" -1
56 "v56" -1
57 "v57" -1
58 "v58" -1
59 "v59" -1
60 "v60" -1
61 "v61" -1
62 "v62" -1
63 "v63" -1
64 "v64" -1
65 "v65" -1
66 "v66" -1
67 "v67" -1
68 "v68" -1
69 "v69" -1
70 "v70" -1
71 "v71" -1
72 "v72" -1
73 "v73" -1
74 "v74" -1
75 "v75" -1
76 "v76" -1
77 "v77" -1
78 "v78" -1
79 "v79" -1
80 "v80" -1
81 "v81" -1
82 "v82" -1
83 "v83" -1
84 "v84" -1
85 "v85" -1
86 "v86" -1
87 "v87" -1
88 "v88" -1
89 "v89" -1
90 "v90" -1
91 "v91" -1
92 "v92" -1
93 "v93" -1
94 "v94" -1
95 "v95" -1
96 "v96" -1
97 "v97" -1
98 "v98" -1
99 "v99" -1
100 "v100" -1
101 "v101" -1
102 "v102" -1
103 "v103" -1
104 "v104" -1
105 "v105" -1
106 "v106" -1
107 "v107" -1
108 "v108" -1
109 "v109" -1
110 "v110" -1
111 "v111" -1
112 "v112" -1
113 "v113" -1
114 "v114" -1
115 "v115" -1
116 "v116" -1
117 "v117" -1
118 "v118" -1
119 "v119" -1
120 "v120" -1
121 "v121" -1
122 "v122" -1
123 "v123" -1
124 "v124" -1
125 "v125" -1
126 "v126" -1
127 "v127" -1
128 "v128" -1
129 "v129" -1
130 "v130" -1
131 "v131" -1
132 "v132" -1
133 "v133" -1
134 "v134" -1
135 "v135" -1
136 "v136" -1
137 "v137" -1
138 "v138" -1
139 "v139" -1
140 "v140" -1
141 "v141" -1
142 "v142" -1
143 "v143" -1
end
skeleton
  time 0
  0 -0.245283 -15.814983 -8.793250 0.000000 -0.000000 -1.570796
  1 -0.194810 -16.703362 -8.671396 0.000000 -0.000000 -1.570796
  2 -0.854544 -6.147066 -9.045614 0.000000 -0.000000 -1.570796
  3 -0.682219 -16.703362 -8.873291 0.000000 -0.000000 -1.570796
  4 -1.463805 -6.147066 -8.793250 0.000000 -0.000000 -1.570796
  5 -1.169628 -16.703362 -8.671396 0.000000 -0.000000 -1.570796
  6 -1.716170 -6.147066 -8.183991 0.000000 -0.000000 -1.570796
  7 -1.371520 -16.703362 -8.183991 0.000000 -0.000000 -1.570796
  8 -1.463805 -6.147066 -7.574728 0.000000 -0.000000 -1.570796
  9 -1.169628 -16.703362 -7.696579 0.000000 -0.000000 -1.570796
  10 -0.854544 -6.147066 -7.322363 0.000000 -0.000000 -1.570796
  11 -0.682219 -16.703362 -7.494687 0.000000 -0.000000 -1.570796
  12 -0.245283 -6.147066 -7.574728 0.000000 -0.000000 -1.570796
  13 -0.194810 -16.703362 -7.696579 0.000000 -0.000000 -1.570796
  14 1.730333 -6.147066 -8.183991 0.000000 -0.000000 -1.570796
  15 1.385682 -16.703362 -8.183991 0.000000 -0.000000 -1.570796
  16 1.477969 -6.147066 -8.793250 0.000000 -0.000000 -1.570796
  17 1.183791 -16.703362 -8.671396 0.000000 -0.000000 -1.570796
  18 0.868707 -6.147066 -9.045614 0.000000 -0.000000 -1.570796
  19 0.696382 -16.703362 -8.873291 0.000000 -0.000000 -1.570796
  20 0.259446 -15.814983 -8.793250 0.000000 -0.000000 -1.570796
  21 0.208973 -16.703362 -8.671396 0.000000 -0.000000 -1.570796
  22 0.259446 -6.147066 -7.574728 0.000000 -0.000000 -1.570796
  23 0.208973 -16.703362 -7.696579 0.000000 -0.000000 -1.570796
  24 0.868707 -6.147066 -7.322363 0.000000 -0.000000 -1.570796
  25 0.696382 -16.703362 -7.494687 0.000000 -0.000000 -1.570796
  26 1.477969 -6.147066 -7.574728 0.000000 -0.000000 -1.570796
  27 1.183791 -16.703362 -7.696579 0.000000 -0.000000 -1.570796
  28 -0.758808 -6.693742 -7.437273 0.000000 -0.000000 -1.570796
  29 -0.758808 -6.990254 -6.757940 0.000000 -0.000000 -1.570796
  30 -0.758808 -8.034258 -6.757940 0.000000 -0.000000 -1.570796
  31 -0.758808 -8.056868 -7.437273 0.000000 -0.000000 -1.570796
  32 -0.539412 -6.693742 -7.437273 0.000000 -0.000000 -1.570796
  33 -0.539413 -6.990254 -6.757940 0.000000 -0.000000 -1.570796
  34 -0.539413 -8.034258 -6.757940 0.000000 -0.000000 -1.570796
  35 -0.539412 -8.056868 -7.437273 0.000000 -0.000000 -1.570796
  36 0.537620 -6.693742 -7.437273 0.000000 -0.000000 -1.570796
  37 0.537620 -6.990254 -6.757940 0.000000 -0.000000 -1.570796
  38 0.537620 -8.034258 -6.757940 0.000000 -0.000000 -1.570796
  39 0.537620 -8.056868 -7.437273 0.000000 -0.000000 -1.570796
  40 0.757015 -6.693742 -7.437273 0.000000 -0.000000 -1.570796
  41 0.757015 -6.990254 -6.757940 0.000000 -0.000000 -1.570796
  42 0.757015 -8.034258 -6.757940 0.000000 -0.000000 -1.570796
  43 0.757015 -8.056868 -7.437273 0.000000 -0.000000 -1.570796
  44 1.523976 -3.110294 -9.538449 0.000000 -0.000000 -1.570796
  45 1.803465 -6.296183 -9.699812 0.000000 -0.000000 -1.570796
  46 0.882861 -3.110294 -10.462107 0.000000 -0.000000 -1.570796
  47 1.044224 -6.296185 -10.459054 0.000000 -0.000000 -1.570796
  48 -0.868698 -3.110294 -10.462107 0.000000 -0.000000 -1.570796
  49 -1.030060 -6.296185 -10.459054 0.000000 -0.000000 -1.570796
  50 -1.509814 -3.110294 -9.538454 0.000000 -0.000000 -1.570796
  51 -1.789301 -6.296185 -9.699815 0.000000 -0.000000 -1.570796
  52 -1.509814 -3.110294 -7.786892 0.000000 -0.000000 -1.570796
  53 -1.789302 -6.296185 -7.625530 0.000000 -0.000000 -1.570796
  54 -0.868699 -3.110294 -7.145777 0.000000 -0.000000 -1.570796
  55 -1.030061 -6.296185 -6.866287 0.000000 -0.000000 -1.570796
  56 0.882860 -3.110294 -7.145774 0.000000 -0.000000 -1.570796
  57 1.044223 -6.296183 -6.866287 0.000000 -0.000000 -1.570796
  58 1.523975 -3.110294 -7.786889 0.000000 -0.000000 -1.570796
  59 1.803464 -6.296183 -7.625526 0.000000 -0.000000 -1.570796
  60 0.755294 -15.048138 -10.139931 0.000000 -0.000000 -1.570796
  61 -0.741130 -15.048138 -10.139931 0.000000 -0.000000 -1.570796
  62 -1.787972 -15.736835 -9.023011 0.000000 -0.000000 -1.570796
  63 1.802135 -15.736835 -9.023011 0.000000 -0.000000 -1.570796
  64 0.007082 -14.939034 -10.153097 0.000000 -0.000000 -1.570796
  65 0.007082 -16.375072 -8.065649 0.000000 -0.000000 -1.570796
  66 0.007082 -6.296183 -8.065649 0.000000 -0.000000 -1.570796
  67 -0.453721 2.130342 -8.786687 0.000000 -0.000000 -1.570796
  68 -0.453721 -1.260522 -9.630784 0.000000 -0.000000 -1.570796
  69 -0.545911 -3.114437 -9.609236 0.000000 -0.000000 -1.570796
  70 0.468183 2.130342 -8.786687 0.000000 -0.000000 -1.570796
  71 0.560374 -3.114439 -7.148734 0.000000 -0.000000 -1.570796
  72 -1.043739 -3.114439 -8.212469 0.000000 -0.000000 -1.570796
  73 -0.120540 -1.057152 -9.618072 0.000000 -0.000000 -1.570796
  74 -0.118342 -1.589020 -10.638248 0.000000 -0.000000 -1.570796
  75 -0.224300 -1.123675 -8.090403 0.000000 -0.000000 -1.570796
  76 -0.224300 -1.300966 -7.026665 0.000000 -0.000000 -1.570796
  77 -0.224300 -4.795565 -7.026665 0.000000 -0.000000 -1.570796
  78 -0.170034 2.288269 -10.707303 0.000000 -0.000000 -1.570796
  79 -0.170034 -4.021857 -10.449464 0.000000 -0.000000 -1.570796
  80 -0.170034 -3.310039 -10.373755 0.000000 -0.000000 -1.570796
  81 0.239741 -1.123675 -8.090403 0.000000 -0.000000 -1.570796
  82 0.239741 -1.300966 -7.026665 0.000000 -0.000000 -1.570796
  83 0.239741 -4.795565 -7.026665 0.000000 -0.000000 -1.570796
  84 -0.545911 -3.114439 -7.148734 0.000000 -0.000000 -1.570796
  85 -0.453721 3.371367 -8.744337 0.000000 -0.000000 -1.570796
  86 -0.453721 4.966969 -8.035181 0.000000 -0.000000 -1.570796
  87 -0.453721 5.321548 -11.226384 0.000000 -0.000000 -1.570796
  88 -0.453721 3.725947 -11.226384 0.000000 -0.000000 -1.570796
  89 -0.914672 3.194077 -9.808073 0.000000 -0.000000 -1.570796
  90 -0.739511 -1.083234 -8.744337 0.000000 -0.000000 -1.570796
  91 -0.120540 -1.411731 -9.440784 0.000000 -0.000000 -1.570796
  92 -0.170034 1.579112 -11.771041 0.000000 -0.000000 -1.570796
  93 -0.170034 1.047244 -11.948328 0.000000 -0.000000 -1.570796
  94 -0.170034 1.020695 -11.608031 0.000000 -0.000000 -1.570796
  95 -0.170034 1.422678 -11.483706 0.000000 -0.000000 -1.570796
  96 -0.170034 2.039283 -10.504706 0.000000 -0.000000 -1.570796
  97 0.468183 3.371367 -8.744337 0.000000 -0.000000 -1.570796
  98 0.468183 4.966969 -8.035181 0.000000 -0.000000 -1.570796
  99 0.468184 5.321548 -11.226384 0.000000 -0.000000 -1.570796
  100 0.468183 3.725947 -11.226384 0.000000 -0.000000 -1.570796
  101 0.468183 -1.260522 -9.630784 0.000000 -0.000000 -1.570796
  102 0.560374 -3.114437 -9.609236 0.000000 -0.000000 -1.570796
  103 0.929135 3.194077 -9.808073 0.000000 -0.000000 -1.570796
  104 0.753973 -1.083234 -8.744337 0.000000 -0.000000 -1.570796
  105 1.058202 -3.114439 -8.212469 0.000000 -0.000000 -1.570796
  106 0.135051 -1.057152 -9.618072 0.000000 -0.000000 -1.570796
  107 0.135051 -1.411731 -9.440784 0.000000 -0.000000 -1.570796
  108 0.184545 2.288269 -10.707303 0.000000 -0.000000 -1.570796
  109 0.184545 1.579112 -11.771041 0.000000 -0.000000 -1.570796
  110 0.184545 1.047244 -11.948328 0.000000 -0.000000 -1.570796
  111 0.184544 -4.021857 -10.449464 0.000000 -0.000000 -1.570796
  112 0.184544 -3.310039 -10.373755 0.000000 -0.000000 -1.570796
  113 0.184545 1.020695 -11.608031 0.000000 -0.000000 -1.570796
  114 0.184545 1.422678 -11.483706 0.000000 -0.000000 -1.570796
  115 0.184545 2.039283 -10.504706 0.000000 -0.000000 -1.570796
  116 0.132853 -1.589020 -10.638248 0.000000 -0.000000 -1.570796
  117 1.986278 -6.296183 -8.773262 0.000000 -0.000000 -1.570796
  118 1.623827 -6.296183 -9.706687 0.000000 -0.000000 -1.570796
  119 0.940510 -6.296185 -10.390007 0.000000 -0.000000 -1.570796
  120 0.007082 -6.296185 -10.378854 0.000000 -0.000000 -1.570796
  121 -0.926346 -6.296185 -10.390007 0.000000 -0.000000 -1.570796
  122 -1.609663 -6.296185 -9.706692 0.000000 -0.000000 -1.570796
  123 -1.972114 -6.296185 -8.773262 0.000000 -0.000000 -1.570796
  124 -0.682976 -16.674601 -8.203579 0.000000 -0.000000 -1.570796
  125 -0.802473 -16.484430 -8.214263 0.000000 -0.000000 -1.570796
  126 -0.767033 -16.484430 -8.128702 0.000000 -0.000000 -1.570796
  127 -0.681473 -16.484430 -8.093262 0.000000 -0.000000 -1.570796
  128 -0.595913 -16.484430 -8.128702 0.000000 -0.000000 -1.570796
  129 -0.560473 -16.484430 -8.214263 0.000000 -0.000000 -1.570796
  130 -0.595913 -16.484430 -8.299822 0.000000 -0.000000 -1.570796
  131 -0.681473 -16.484430 -8.335261 0.000000 -0.000000 -1.570796
  132 -0.767033 -16.484430 -8.299822 0.000000 -0.000000 -1.570796
  133 -0.681473 -15.701939 -8.214263 0.000000 -0.000000 -1.570796
  134 0.696027 -16.674601 -8.203579 0.000000 -0.000000 -1.570796
  135 0.573628 -16.484430 -8.214263 0.000000 -0.000000 -1.570796
  136 0.609068 -16.484430 -8.128702 0.000000 -0.000000 -1.570796
  137 0.694628 -16.484430 -8.093262 0.000000 -0.000000 -1.570796
  138 0.780188 -16.484430 -8.128702 0.000000 -0.000000 -1.570796
  139 0.815628 -16.484430 -8.214263 0.000000 -0.000000 -1.570796
  140 0.780188 -16.484430 -8.299822 0.000000 -0.000000 -1.570796
  141 0.694628 -16.484430 -8.335261 0.000000 -0.000000 -1.570796
  142 0.609068 -16.484430 -8.299822 0.000000 -0.000000 -1.570796
  143 0.694628 -15.701939 -8.214263 0.000000 -0.000000 -1.570796
end
triangles
v_shot2
  0 -0.245283 -15.814983 -8.793250 0.161078 -0.064022 -0.984863 0.492465 0.932384 1 0 1.000000
  3 -0.682219 -16.703362 -8.873291 -0.018881 -0.649180 -0.760400 0.514753 0.969121 1 3 1.000000
  2 -0.854544 -6.147066 -9.045614 -0.367232 -0.021175 -0.929888 0.486218 0.513207 1 2 1.000000
v_shot2
  2 -0.854544 -6.147066 -9.045614 -0.367232 -0.021175 -0.929888 0.486218 0.513207 1 2 1.000000
  5 -1.169628 -16.703362 -8.671396 -0.541375 -0.640683 -0.544461 0.537518 0.967494 1 5 1.000000
  4 -1.463805 -6.147066 -8.793250 -0.708796 -0.027889 -0.704863 0.514675 0.511173 1 4 1.000000
v_shot2
  4 -1.463805 -6.147066 -8.793250 -0.708796 -0.027889 -0.704863 0.514675 0.511173 1 4 1.000000
  7 -1.371520 -16.703362 -8.183991 -0.766311 -0.642470 -0.000002 0.560313 0.966353 1 7 1.000000
  6 -1.716170 -6.147066 -8.183991 -0.999467 -0.032631 -0.000001 0.543168 0.509747 1 6 1.000000
v_shot2
  7 -1.371520 -16.703362 -8.183991 -0.766311 -0.642470 -0.000002 0.560313 0.966353 1 7 1.000000
  8 -1.463805 -6.147066 -7.574728 -0.708797 -0.027889 0.704861 0.571689 0.509033 1 8 1.000000
  6 -1.716170 -6.147066 -8.183991 -0.999467 -0.032631 -0.000001 0.543168 0.509747 1 6 1.000000
v_shot2
  9 -1.169628 -16.703362 -7.696579 -0.541384 -0.640669 0.544469 0.583129 0.965782 1 9 1.000000
  10 -0.854544 -6.147066 -7.322363 -0.003953 -0.016387 0.999858 0.600218 0.508926 1 10 1.000000
  8 -1.463805 -6.147066 -7.574728 -0.708797 -0.027889 0.704861 0.571689 0.509033 1 8 1.000000
v_shot2
  23 0.208973 -16.703362 -7.696579 -0.126897 -0.757123 0.640829 0.806855 0.901275 1 23 1.000000
  22 0.259446 -6.147066 -7.574728 -0.195927 -0.010382 0.980563 0.809039 0.444558 1 22 1.000000
  13 -0.194810 -16.703362 -7.696579 0.126895 -0.757127 0.640825 0.789387 0.901275 1 13 1.000000
v_shot2
  11 -0.682219 -16.703362 -7.494687 0.003086 -0.636344 0.771399 0.605952 0.965697 1 11 1.000000
  12 -0.245283 -6.147066 -7.574728 0.195929 -0.010382 0.980563 0.628746 0.509177 1 12 1.000000
  10 -0.854544 -6.147066 -7.322363 -0.003953 -0.016387 0.999858 0.600218 0.508926 1 10 1.000000
v_shot2
  15 1.385682 -16.703362 -8.183991 0.766311 -0.642470 -0.000002 0.917450 0.966424 1 15 1.000000
  16 1.477969 -6.147066 -8.793250 0.708796 -0.027889 -0.704862 0.962442 0.511179 1 16 1.000000
  14 1.730333 -6.147066 -8.183991 0.999467 -0.032631 -0.000001 0.933947 0.509793 1 14 1.000000
v_shot2
  17 1.183791 -16.703362 -8.671396 0.541375 -0.640683 -0.544461 0.940246 0.967532 1 17 1.000000
  18 0.868707 -6.147066 -9.045614 0.367232 -0.021175 -0.929888 0.990902 0.513172 1 18 1.000000
  16 1.477969 -6.147066 -8.793250 0.708796 -0.027889 -0.704862 0.962442 0.511179 1 16 1.000000
v_shot2
  19 0.696382 -16.703362 -8.873291 0.018881 -0.649180 -0.760400 0.963014 0.969127 1 19 1.000000
  20 0.259446 -15.814983 -8.793250 -0.161078 -0.064022 -0.984863 0.985250 0.932358 1 20 1.000000
  18 0.868707 -6.147066 -9.045614 0.367232 -0.021175 -0.929888 0.990902 0.513172 1 18 1.000000
v_shot2
  9 -1.169628 -16.703362 -7.696579 -0.541384 -0.640669 0.544469 0.470000 0.425000 1 9 1.000000
  13 -0.194810 -16.703362 -7.696579 0.126895 -0.757127 0.640825 0.520000 0.425000 1 13 1.000000
  11 -0.682219 -16.703362 -7.494687 0.003086 -0.636344 0.771399 0.495000 0.415000 1 11 1.000000
v_shot2
  22 0.259446 -6.147066 -7.574728 -0.195927 -0.010382 0.980563 0.848368 0.509344 1 22 1.000000
  25 0.696382 -16.703362 -7.494687 -0.003086 -0.636344 0.771399 0.871809 0.965832 1 25 1.000000
  24 0.868707 -6.147066 -7.322363 0.003952 -0.016387 0.999858 0.876895 0.509054 1 24 1.000000
v_shot2
  24 0.868707 -6.147066 -7.322363 0.003952 -0.016387 0.999858 0.876895 0.509054 1 24 1.000000
  27 1.183791 -16.703362 -7.696579 0.541384 -0.640669 0.544469 0.894632 0.965884 1 27 1.000000
  26 1.477969 -6.147066 -7.574728 0.708797 -0.027889 0.704861 0.905425 0.509120 1 26 1.000000
v_shot2
  26 1.477969 -6.147066 -7.574728 0.708797 -0.027889 0.704861 0.905425 0.509120 1 26 1.000000
  15 1.385682 -16.703362 -8.183991 0.766311 -0.642470 -0.000002 0.917450 0.966424 1 15 1.000000
  14 1.730333 -6.147066 -8.183991 0.999467 -0.032631 -0.000001 0.933947 0.509793 1 14 1.000000
v_shot2
  12 -0.245283 -6.147066 -7.574728 0.195929 -0.010382 0.980563 0.787203 0.444557 1 12 1.000000
  13 -0.194810 -16.703362 -7.696579 0.126895 -0.757127 0.640825 0.789387 0.901275 1 13 1.000000
  22 0.259446 -6.147066 -7.574728 -0.195927 -0.010382 0.980563 0.809039 0.444558 1 22 1.000000
v_shot2
  25 0.696382 -16.703362 -7.494687 -0.003086 -0.636344 0.771399 0.560000 0.415000 1 25 1.000000
  23 0.208973 -16.703362 -7.696579 -0.126897 -0.757123 0.640829 0.535000 0.425000 1 23 1.000000
  27 1.183791 -16.703362 -7.696579 0.541384 -0.640669 0.544469 0.585000 0.425000 1 27 1.000000
v_shot2
  15 1.385682 -16.703362 -8.183991 0.766311 -0.642470 -0.000002 0.590000 0.445000 1 15 1.000000
  27 1.183791 -16.703362 -7.696579 0.541384 -0.640669 0.544469 0.585000 0.425000 1 27 1.000000
  17 1.183791 -16.703362 -8.671396 0.541375 -0.640683 -0.544461 0.585000 0.470000 1 17 1.000000
v_shot2
  7 -1.371520 -16.703362 -8.183991 -0.766311 -0.642470 -0.000002 0.465000 0.445000 1 7 1.000000
  5 -1.169628 -16.703362 -8.671396 -0.541375 -0.640683 -0.544461 0.470000 0.470000 1 5 1.000000
  9 -1.169628 -16.703362 -7.696579 -0.541384 -0.640669 0.544469 0.470000 0.425000 1 9 1.000000
v_shot2
  3 -0.682219 -16.703362 -8.873291 -0.018881 -0.649180 -0.760400 0.495000 0.480000 1 3 1.000000
  1 -0.194810 -16.703362 -8.671396 0.113140 -0.792100 -0.599814 0.520000 0.470000 1 1 1.000000
  5 -1.169628 -16.703362 -8.671396 -0.541375 -0.640683 -0.544461 0.470000 0.470000 1 5 1.000000
v_shot2
  19 0.696382 -16.703362 -8.873291 0.018881 -0.649180 -0.760400 0.560000 0.480000 1 19 1.000000
  17 1.183791 -16.703362 -8.671396 0.541375 -0.640683 -0.544461 0.585000 0.470000 1 17 1.000000
  21 0.208973 -16.703362 -8.671396 -0.113139 -0.792106 -0.599806 0.535000 0.470000 1 21 1.000000
v_shot2
  9 -1.169628 -16.703362 -7.696579 -0.541384 -0.640669 0.544469 0.470000 0.425000 1 9 1.000000
  5 -1.169628 -16.703362 -8.671396 -0.541375 -0.640683 -0.544461 0.470000 0.470000 1 5 1.000000
  13 -0.194810 -16.703362 -7.696579 0.126895 -0.757127 0.640825 0.520000 0.425000 1 13 1.000000
v_shot2
  5 -1.169628 -16.703362 -8.671396 -0.541375 -0.640683 -0.544461 0.470000 0.470000 1 5 1.000000
  1 -0.194810 -16.703362 -8.671396 0.113140 -0.792100 -0.599814 0.520000 0.470000 1 1 1.000000
  13 -0.194810 -16.703362 -7.696579 0.126895 -0.757127 0.640825 0.520000 0.425000 1 13 1.000000
v_shot2
  21 0.208973 -16.703362 -8.671396 -0.113139 -0.792106 -0.599806 0.535000 0.470000 1 21 1.000000
  17 1.183791 -16.703362 -8.671396 0.541375 -0.640683 -0.544461 0.585000 0.470000 1 17 1.000000
  23 0.208973 -16.703362 -7.696579 -0.126897 -0.757123 0.640829 0.535000 0.425000 1 23 1.000000
v_shot2
  23 0.208973 -16.703362 -7.696579 -0.126897 -0.757123 0.640829 0.535000 0.425000 1 23 1.000000
  17 1.183791 -16.703362 -8.671396 0.541375 -0.640683 -0.544461 0.585000 0.470000 1 17 1.000000
  27 1.183791 -16.703362 -7.696579 0.541384 -0.640669 0.544469 0.585000 0.425000 1 27 1.000000
v_shot2
  21 0.208973 -16.703362 -8.671396 -0.113139 -0.792106 -0.599806 0.535000 0.470000 1 21 1.000000
  23 0.208973 -16.703362 -7.696579 -0.126897 -0.757123 0.640829 0.535000 0.425000 1 23 1.000000
  1 -0.194810 -16.703362 -8.671396 0.113140 -0.792100 -0.599814 0.520000 0.470000 1 1 1.000000
v_shot2
  13 -0.194810 -16.703362 -7.696579 0.126895 -0.757127 0.640825 0.520000 0.425000 1 13 1.000000
  1 -0.194810 -16.703362 -8.671396 0.113140 -0.792100 -0.599814 0.520000 0.470000 1 1 1.000000
  23 0.208973 -16.703362 -7.696579 -0.126897 -0.757123 0.640829 0.535000 0.425000 1 23 1.000000
v_shot2
  31 -0.758808 -8.056868 -7.437273 -0.699524 -0.714214 0.023770 0.411778 0.044327 1 31 1.000000
  30 -0.758808 -8.034258 -6.757940 -0.579112 -0.566806 0.585969 0.382389 0.045305 1 30 1.000000
  28 -0.758808 -6.693742 -7.437273 -0.593810 0.737422 0.321867 0.411778 0.103299 1 28 1.000000
v_shot2
  29 -0.758808 -6.990254 -6.757940 -0.602152 0.437269 0.667988 0.382389 0.090471 1 29 1.000000
  28 -0.758808 -6.693742 -7.437273 -0.593810 0.737422 0.321867 0.411778 0.103299 1 28 1.000000
  30 -0.758808 -8.034258 -6.757940 -0.579112 -0.566806 0.585969 0.382389 0.045305 1 30 1.000000
v_shot2
  35 -0.539412 -8.056868 -7.437273 0.699506 -0.714232 0.023771 0.343508 0.044327 1 35 1.000000
  32 -0.539412 -6.693742 -7.437273 0.593829 0.737409 0.321862 0.343508 0.103299 1 32 1.000000
  34 -0.539413 -8.034258 -6.757940 0.579117 -0.566782 0.585988 0.372897 0.045305 1 34 1.000000
v_shot2
  33 -0.539413 -6.990254 -6.757940 0.602148 0.437288 0.667980 0.372897 0.090471 1 33 1.000000
  34 -0.539413 -8.034258 -6.757940 0.579117 -0.566782 0.585988 0.372897 0.045305 1 34 1.000000
  32 -0.539412 -6.693742 -7.437273 0.593829 0.737409 0.321862 0.343508 0.103299 1 32 1.000000
v_shot2
  30 -0.758808 -8.034258 -6.757940 -0.579112 -0.566806 0.585969 0.382389 0.045305 1 30 1.000000
  33 -0.539413 -6.990254 -6.757940 0.602148 0.437288 0.667980 0.372897 0.090471 1 33 1.000000
  29 -0.758808 -6.990254 -6.757940 -0.602152 0.437269 0.667988 0.382389 0.090471 1 29 1.000000
v_shot2
  31 -0.758808 -8.056868 -7.437273 -0.699524 -0.714214 0.023770 0.382389 0.015900 1 31 1.000000
  34 -0.539413 -8.034258 -6.757940 0.579117 -0.566782 0.585988 0.372897 0.045305 1 34 1.000000
  30 -0.758808 -8.034258 -6.757940 -0.579112 -0.566806 0.585969 0.382389 0.045305 1 30 1.000000
v_shot2
  29 -0.758808 -6.990254 -6.757940 -0.602152 0.437269 0.667988 0.382389 0.090471 1 29 1.000000
  32 -0.539412 -6.693742 -7.437273 0.593829 0.737409 0.321862 0.372897 0.122537 1 32 1.000000
  28 -0.758808 -6.693742 -7.437273 -0.593810 0.737422 0.321867 0.382389 0.122537 1 28 1.000000
v_shot2
  39 0.537620 -8.056868 -7.437273 -0.699524 -0.714214 0.023770 0.155522 0.042920 1 39 1.000000
  38 0.537620 -8.034258 -6.757940 -0.579112 -0.566806 0.585969 0.126133 0.043898 1 38 1.000000
  36 0.537620 -6.693742 -7.437273 -0.593810 0.737422 0.321867 0.155522 0.101891 1 36 1.000000
v_shot2
  37 0.537620 -6.990254 -6.757940 -0.602152 0.437270 0.667988 0.126133 0.089063 1 37 1.000000
  36 0.537620 -6.693742 -7.437273 -0.593810 0.737422 0.321867 0.155522 0.101891 1 36 1.000000
  38 0.537620 -8.034258 -6.757940 -0.579112 -0.566806 0.585969 0.126133 0.043898 1 38 1.000000
v_shot2
  43 0.757015 -8.056868 -7.437273 0.699506 -0.714232 0.023771 0.087253 0.042920 1 43 1.000000
  40 0.757015 -6.693742 -7.437273 0.593829 0.737409 0.321862 0.087252 0.101891 1 40 1.000000
  42 0.757015 -8.034258 -6.757940 0.579117 -0.566782 0.585988 0.116642 0.043898 1 42 1.000000
v_shot2
  41 0.757015 -6.990254 -6.757940 0.602148 0.437288 0.667980 0.116642 0.089063 1 41 1.000000
  42 0.757015 -8.034258 -6.757940 0.579117 -0.566782 0.585988 0.116642 0.043898 1 42 1.000000
  40 0.757015 -6.693742 -7.437273 0.593829 0.737409 0.321862 0.087252 0.101891 1 40 1.000000
v_shot2
  38 0.537620 -8.034258 -6.757940 -0.579112 -0.566806 0.585969 0.126133 0.043898 1 38 1.000000
  41 0.757015 -6.990254 -6.757940 0.602148 0.437288 0.667980 0.116642 0.089063 1 41 1.000000
  37 0.537620 -6.990254 -6.757940 -0.602152 0.437270 0.667988 0.126133 0.089063 1 37 1.000000
v_shot2
  39 0.537620 -8.056868 -7.437273 -0.699524 -0.714214 0.023770 0.126133 0.014493 1 39 1.000000
  42 0.757015 -8.034258 -6.757940 0.579117 -0.566782 0.585988 0.116642 0.043898 1 42 1.000000
  38 0.537620 -8.034258 -6.757940 -0.579112 -0.566806 0.585969 0.126133 0.043898 1 38 1.000000
v_shot2
  37 0.537620 -6.990254 -6.757940 -0.602152 0.437270 0.667988 0.126133 0.089063 1 37 1.000000
  40 0.757015 -6.693742 -7.437273 0.593829 0.737409 0.321862 0.116641 0.121130 1 40 1.000000
  36 0.537620 -6.693742 -7.437273 -0.593810 0.737422 0.321867 0.126133 0.121130 1 36 1.000000
v_shot2
  45 1.803465 -6.296183 -9.699812 0.742359 -0.602037 -0.294031 0.422699 0.281992 1 45 1.000000
  46 0.882861 -3.110294 -10.462107 0.336646 0.633133 -0.697003 0.443154 0.136213 1 46 1.000000
  44 1.523976 -3.110294 -9.538449 0.698937 0.681945 -0.215496 0.395538 0.146149 1 44 1.000000
v_shot2
  50 -1.509814 -3.110294 -9.538454 -0.698932 0.681950 -0.215496 0.091768 0.144304 1 50 1.000000
  48 -0.868698 -3.110294 -10.462107 -0.336649 0.633136 -0.696998 0.044277 0.133791 1 48 1.000000
  51 -1.789301 -6.296185 -9.699815 -0.742372 -0.602018 -0.294038 0.062960 0.279808 1 51 1.000000
v_shot2
  59 1.803464 -6.296183 -7.625526 0.743407 -0.592328 0.310634 0.320238 0.331443 1 59 1.000000
  53 -1.789302 -6.296185 -7.625530 -0.743410 -0.592331 0.310622 0.164812 0.330500 1 53 1.000000
  51 -1.789301 -6.296185 -9.699815 -0.742372 -0.602018 -0.294038 0.164267 0.420235 1 51 1.000000
v_shot2
  57 1.044223 -6.296183 -6.866287 0.310617 -0.592324 0.743417 0.287592 0.298398 1 57 1.000000
  53 -1.789302 -6.296185 -7.625530 -0.743410 -0.592331 0.310622 0.164812 0.330500 1 53 1.000000
  59 1.803464 -6.296183 -7.625526 0.743407 -0.592328 0.310634 0.320238 0.331443 1 59 1.000000
v_shot2
  53 -1.789302 -6.296185 -7.625530 -0.743410 -0.592331 0.310622 0.151564 0.294022 1 53 1.000000
  54 -0.868699 -3.110294 -7.145777 -0.282679 0.667443 0.688921 0.205678 0.159542 1 54 1.000000
  52 -1.509814 -3.110294 -7.786892 -0.688926 0.667435 0.282685 0.166587 0.156307 1 52 1.000000
v_shot2
  54 -0.868699 -3.110294 -7.145777 -0.282679 0.667443 0.688921 0.205678 0.159542 1 54 1.000000
  56 0.882860 -3.110294 -7.145774 0.282680 0.667435 0.688928 0.281452 0.160002 1 56 1.000000
  52 -1.509814 -3.110294 -7.786892 -0.688926 0.667435 0.282685 0.178111 0.131638 1 52 1.000000
v_shot2
  45 1.803465 -6.296183 -9.699812 0.742359 -0.602037 -0.294031 0.422699 0.281992 1 45 1.000000
  44 1.523976 -3.110294 -9.538449 0.698937 0.681945 -0.215496 0.395538 0.146149 1 44 1.000000
  59 1.803464 -6.296183 -7.625526 0.743407 -0.592328 0.310634 0.333929 0.295130 1 59 1.000000
v_shot2
  57 1.044223 -6.296183 -6.866287 0.310617 -0.592324 0.743417 0.287592 0.298398 1 57 1.000000
  58 1.523975 -3.110294 -7.786889 0.688911 0.667455 0.282674 0.320579 0.157242 1 58 1.000000
  56 0.882860 -3.110294 -7.145774 0.282680 0.667435 0.688928 0.281452 0.160002 1 56 1.000000
v_shot2
  56 0.882860 -3.110294 -7.145774 0.282680 0.667435 0.688928 0.281452 0.160002 1 56 1.000000
  58 1.523975 -3.110294 -7.786889 0.688911 0.667455 0.282674 0.309356 0.132435 1 58 1.000000
  52 -1.509814 -3.110294 -7.786892 -0.688926 0.667435 0.282685 0.178111 0.131638 1 52 1.000000
v_shot2
  63 1.802135 -15.736835 -9.023011 0.797530 -0.602079 0.038033 0.159216 0.941274 1 63 1.000000
  64 0.007082 -14.939034 -10.153097 0.000000 -0.465432 -0.885084 0.234666 0.880790 1 64 1.000000
  60 0.755294 -15.048138 -10.139931 0.254538 -0.477821 -0.840772 0.202220 0.884735 1 60 1.000000
v_shot2
  61 -0.741130 -15.048138 -10.139931 -0.254538 -0.477822 -0.840771 0.267112 0.884735 1 61 1.000000
  64 0.007082 -14.939034 -10.153097 0.000000 -0.465432 -0.885084 0.234666 0.880790 1 64 1.000000
  62 -1.787972 -15.736835 -9.023011 -0.797530 -0.602079 0.038034 0.310116 0.941273 1 62 1.000000
v_shot2
  64 0.007082 -14.939034 -10.153097 0.000000 -0.465432 -0.885084 0.234666 0.880790 1 64 1.000000
  63 1.802135 -15.736835 -9.023011 0.797530 -0.602079 0.038033 0.159216 0.941274 1 63 1.000000
  65 0.007082 -16.375072 -8.065649 -0.000000 -0.831674 0.555264 0.234666 0.988815 1 65 1.000000
v_shot2
  64 0.007082 -14.939034 -10.153097 0.000000 -0.465432 -0.885084 0.234666 0.880790 1 64 1.000000
  65 0.007082 -16.375072 -8.065649 -0.000000 -0.831674 0.555264 0.234666 0.988815 1 65 1.000000
  62 -1.787972 -15.736835 -9.023011 -0.797530 -0.602079 0.038034 0.310116 0.941273 1 62 1.000000
v_shot2
  65 0.007082 -16.375072 -8.065649 -0.000000 -0.831674 0.555264 0.418375 0.950511 1 65 1.000000
  66 0.007082 -6.296183 -8.065649 0.000000 0.266957 0.963708 0.451040 0.515205 1 66 1.000000
  62 -1.787972 -15.736835 -9.023011 -0.797530 -0.602079 0.038034 0.332579 0.916353 1 62 1.000000
v_shot2
  65 0.007082 -16.375072 -8.065649 -0.000000 -0.831674 0.555264 0.050956 0.950512 1 65 1.000000
  63 1.802135 -15.736835 -9.023011 0.797530 -0.602079 0.038033 0.136753 0.916353 1 63 1.000000
  66 0.007082 -6.296183 -8.065649 0.000000 0.266957 0.963708 0.018289 0.515206 1 66 1.000000
v_shot2
  95 -0.170034 1.422678 -11.483706 -0.794163 -0.369861 0.482191 0.587747 0.321015 1 95 1.000000
  113 0.184545 1.020695 -11.608031 0.777168 -0.007022 0.629255 0.568699 0.338395 1 113 1.000000
  114 0.184545 1.422678 -11.483706 0.794163 -0.369870 0.482185 0.588901 0.337515 1 114 1.000000
v_shot2
  94 -0.170034 1.020695 -11.608031 -0.777172 -0.007016 0.629249 0.568456 0.322430 1 94 1.000000
  113 0.184545 1.020695 -11.608031 0.777168 -0.007022 0.629255 0.568699 0.338395 1 113 1.000000
  95 -0.170034 1.422678 -11.483706 -0.794163 -0.369861 0.482191 0.587747 0.321015 1 95 1.000000
v_shot2
  96 -0.170034 2.039283 -10.504706 -0.678224 -0.621802 0.391630 0.643807 0.314645 1 96 1.000000
  95 -0.170034 1.422678 -11.483706 -0.794163 -0.369861 0.482191 0.587747 0.321015 1 95 1.000000
  115 0.184545 2.039283 -10.504706 0.678243 -0.621788 0.391621 0.645760 0.331826 1 115 1.000000
v_shot2
  114 0.184545 1.422678 -11.483706 0.794163 -0.369870 0.482185 0.588901 0.337515 1 114 1.000000
  115 0.184545 2.039283 -10.504706 0.678243 -0.621788 0.391621 0.645760 0.331826 1 115 1.000000
  95 -0.170034 1.422678 -11.483706 -0.794163 -0.369861 0.482191 0.587747 0.321015 1 95 1.000000
v_shot2
  91 -0.120540 -1.411731 -9.440784 0.624183 0.773019 -0.113303 0.039100 0.477822 1 91 1.000000
  107 0.135051 -1.411731 -9.440784 -0.624193 0.773011 -0.113302 0.050157 0.477842 1 107 1.000000
  74 -0.118342 -1.589020 -10.638248 0.537852 0.260223 0.801872 0.039288 0.425454 1 74 1.000000
v_shot2
  74 -0.118342 -1.589020 -10.638248 0.537852 0.260223 0.801872 0.039288 0.425454 1 74 1.000000
  107 0.135051 -1.411731 -9.440784 -0.624193 0.773011 -0.113302 0.050157 0.477842 1 107 1.000000
  116 0.132853 -1.589020 -10.638248 -0.537842 0.260217 0.801881 0.050155 0.425473 1 116 1.000000
v_shot2
  106 0.135051 -1.057152 -9.618072 -0.703699 -0.629395 0.329650 0.066455 0.472501 1 106 1.000000
  116 0.132853 -1.589020 -10.638248 -0.537842 0.260217 0.801881 0.050155 0.425473 1 116 1.000000
  107 0.135051 -1.411731 -9.440784 -0.624193 0.773011 -0.113302 0.050157 0.477842 1 107 1.000000
v_shot2
  102 0.560374 -3.114437 -9.609236 0.592508 0.024777 -0.805183 0.740886 0.031302 1 102 1.000000
  68 -0.453721 -1.260522 -9.630784 -0.610183 -0.114424 -0.783954 0.705066 0.115565 1 68 1.000000
  101 0.468183 -1.260522 -9.630784 0.610183 -0.114425 -0.783954 0.746834 0.115205 1 101 1.000000
v_shot2
  68 -0.453721 -1.260522 -9.630784 -0.610183 -0.114424 -0.783954 0.705066 0.115565 1 68 1.000000
  102 0.560374 -3.114437 -9.609236 0.592508 0.024777 -0.805183 0.740886 0.031302 1 102 1.000000
  69 -0.545911 -3.114437 -9.609236 -0.592493 0.024775 -0.805195 0.693187 0.036018 1 69 1.000000
v_shot2
  68 -0.453721 -1.260522 -9.630784 -0.610183 -0.114424 -0.783954 0.705066 0.115565 1 68 1.000000
  100 0.468183 3.725947 -11.226384 0.556214 -0.120199 -0.822301 0.715181 0.340060 1 100 1.000000
  101 0.468183 -1.260522 -9.630784 0.610183 -0.114425 -0.783954 0.746834 0.115205 1 101 1.000000
v_shot2
  100 0.468183 3.725947 -11.226384 0.556214 -0.120199 -0.822301 0.715181 0.340060 1 100 1.000000
  68 -0.453721 -1.260522 -9.630784 -0.610183 -0.114424 -0.783954 0.705066 0.115565 1 68 1.000000
  88 -0.453721 3.725947 -11.226384 -0.556213 -0.120200 -0.822301 0.676448 0.339125 1 88 1.000000
v_shot2
  74 -0.118342 -1.589020 -10.638248 0.537852 0.260223 0.801872 0.039288 0.425454 1 74 1.000000
  73 -0.120540 -1.057152 -9.618072 0.703688 -0.629405 0.329656 0.022821 0.472423 1 73 1.000000
  91 -0.120540 -1.411731 -9.440784 0.624183 0.773019 -0.113303 0.039100 0.477822 1 91 1.000000
v_shot2
  76 -0.224300 -1.300966 -7.026665 -0.586531 0.523516 0.617991 0.592576 0.056604 1 76 1.000000
  75 -0.224300 -1.123675 -8.090403 -0.581816 0.802254 0.133710 0.546536 0.049060 1 75 1.000000
  77 -0.224300 -4.795565 -7.026665 -0.176662 0.000000 0.984272 0.592988 0.207786 1 77 1.000000
v_shot2
  100 0.468183 3.725947 -11.226384 0.556214 -0.120199 -0.822301 0.715181 0.340060 1 100 1.000000
  88 -0.453721 3.725947 -11.226384 -0.556213 -0.120200 -0.822301 0.676448 0.339125 1 88 1.000000
  99 0.468184 5.321548 -11.226384 0.522294 0.637922 -0.565919 0.718943 0.405875 1 99 1.000000
v_shot2
  87 -0.453721 5.321548 -11.226384 -0.522300 0.637903 -0.565934 0.679393 0.407576 1 87 1.000000
  99 0.468184 5.321548 -11.226384 0.522294 0.637922 -0.565919 0.718943 0.405875 1 99 1.000000
  88 -0.453721 3.725947 -11.226384 -0.556213 -0.120200 -0.822301 0.676448 0.339125 1 88 1.000000
v_shot2
  99 0.468184 5.321548 -11.226384 0.522294 0.637922 -0.565919 0.718943 0.405875 1 99 1.000000
  87 -0.453721 5.321548 -11.226384 -0.522300 0.637903 -0.565934 0.679393 0.407576 1 87 1.000000
  98 0.468183 4.966969 -8.035181 0.513089 0.433626 0.740749 0.724869 0.543619 1 98 1.000000
v_shot2
  86 -0.453721 4.966969 -8.035181 -0.513085 0.433659 0.740732 0.685320 0.545321 1 86 1.000000
  98 0.468183 4.966969 -8.035181 0.513089 0.433626 0.740749 0.724869 0.543619 1 98 1.000000
  87 -0.453721 5.321548 -11.226384 -0.522300 0.637903 -0.565934 0.679393 0.407576 1 87 1.000000
v_shot2
  97 0.468183 3.371367 -8.744337 0.566700 -0.198263 0.799714 0.728093 0.618526 1 97 1.000000
  98 0.468183 4.966969 -8.035181 0.513089 0.433626 0.740749 0.724869 0.543619 1 98 1.000000
  86 -0.453721 4.966969 -8.035181 -0.513085 0.433659 0.740732 0.685320 0.545321 1 86 1.000000
v_shot2
  86 -0.453721 4.966969 -8.035181 -0.513085 0.433659 0.740732 0.685320 0.545321 1 86 1.000000
  85 -0.453721 3.371367 -8.744337 -0.566701 -0.198266 0.799713 0.688543 0.620228 1 85 1.000000
  97 0.468183 3.371367 -8.744337 0.566700 -0.198263 0.799714 0.728093 0.618526 1 97 1.000000
v_shot2
  82 0.239741 -1.300966 -7.026665 0.586540 0.523500 0.617996 0.612651 0.056549 1 82 1.000000
  83 0.239741 -4.795565 -7.026665 0.176661 -0.000000 0.984272 0.613063 0.207731 1 83 1.000000
  81 0.239741 -1.123675 -8.090403 0.581798 0.802267 0.133712 0.658649 0.048754 1 81 1.000000
v_shot2
  83 0.239741 -4.795565 -7.026665 0.176661 -0.000000 0.984272 0.613063 0.207731 1 83 1.000000
  76 -0.224300 -1.300966 -7.026665 -0.586531 0.523516 0.617991 0.592576 0.056604 1 76 1.000000
  77 -0.224300 -4.795565 -7.026665 -0.176662 0.000000 0.984272 0.592988 0.207786 1 77 1.000000
v_shot2
  82 0.239741 -1.300966 -7.026665 0.586540 0.523500 0.617996 0.612651 0.056549 1 82 1.000000
  75 -0.224300 -1.123675 -8.090403 -0.581816 0.802254 0.133710 0.592449 0.009950 1 75 1.000000
  76 -0.224300 -1.300966 -7.026665 -0.586531 0.523516 0.617991 0.592576 0.056604 1 76 1.000000
v_shot2
  69 -0.545911 -3.114437 -9.609236 -0.592493 0.024775 -0.805195 0.877882 0.482844 1 69 1.000000
  72 -1.043739 -3.114439 -8.212469 -0.979526 0.173464 0.102169 0.939743 0.494069 1 72 1.000000
  90 -0.739511 -1.083234 -8.744337 -0.998950 0.043371 -0.014755 0.930649 0.401707 1 90 1.000000
v_shot2
  69 -0.545911 -3.114437 -9.609236 -0.592493 0.024775 -0.805195 0.877882 0.482844 1 69 1.000000
  90 -0.739511 -1.083234 -8.744337 -0.998950 0.043371 -0.014755 0.930649 0.401707 1 90 1.000000
  68 -0.453721 -1.260522 -9.630784 -0.610183 -0.114424 -0.783954 0.888979 0.403902 1 68 1.000000
v_shot2
  90 -0.739511 -1.083234 -8.744337 -0.998950 0.043371 -0.014755 0.930649 0.401707 1 90 1.000000
  89 -0.914672 3.194077 -9.808073 -0.999988 -0.001536 0.004633 0.906364 0.211633 1 89 1.000000
  68 -0.453721 -1.260522 -9.630784 -0.610183 -0.114424 -0.783954 0.888979 0.403902 1 68 1.000000
v_shot2
  68 -0.453721 -1.260522 -9.630784 -0.610183 -0.114424 -0.783954 0.888979 0.403902 1 68 1.000000
  89 -0.914672 3.194077 -9.808073 -0.999988 -0.001536 0.004633 0.906364 0.211633 1 89 1.000000
  88 -0.453721 3.725947 -11.226384 -0.556213 -0.120200 -0.822301 0.844962 0.182221 1 88 1.000000
v_shot2
  88 -0.453721 3.725947 -11.226384 -0.556213 -0.120200 -0.822301 0.844962 0.182221 1 88 1.000000
  89 -0.914672 3.194077 -9.808073 -0.999988 -0.001536 0.004633 0.906364 0.211633 1 89 1.000000
  87 -0.453721 5.321548 -11.226384 -0.522300 0.637903 -0.565934 0.852845 0.113277 1 87 1.000000
v_shot2
  87 -0.453721 5.321548 -11.226384 -0.522300 0.637903 -0.565934 0.852845 0.113277 1 87 1.000000
  89 -0.914672 3.194077 -9.808073 -0.999988 -0.001536 0.004633 0.906364 0.211633 1 89 1.000000
  86 -0.453721 4.966969 -8.035181 -0.513085 0.433659 0.740732 0.989522 0.140586 1 86 1.000000
v_shot2
  86 -0.453721 4.966969 -8.035181 -0.513085 0.433659 0.740732 0.989522 0.140586 1 86 1.000000
  89 -0.914672 3.194077 -9.808073 -0.999988 -0.001536 0.004633 0.906364 0.211633 1 89 1.000000
  85 -0.453721 3.371367 -8.744337 -0.566701 -0.198266 0.799713 0.956110 0.208433 1 85 1.000000
v_shot2
  85 -0.453721 3.371367 -8.744337 -0.566701 -0.198266 0.799713 0.956110 0.208433 1 85 1.000000
  89 -0.914672 3.194077 -9.808073 -0.999988 -0.001536 0.004633 0.906364 0.211633 1 89 1.000000
  67 -0.453721 2.130342 -8.786687 -0.551660 0.112858 0.826398 0.949131 0.261350 1 67 1.000000
v_shot2
  89 -0.914672 3.194077 -9.808073 -0.999988 -0.001536 0.004633 0.906364 0.211633 1 89 1.000000
  90 -0.739511 -1.083234 -8.744337 -0.998950 0.043371 -0.014755 0.930649 0.401707 1 90 1.000000
  67 -0.453721 2.130342 -8.786687 -0.551660 0.112858 0.826398 0.949131 0.261350 1 67 1.000000
v_shot2
  72 -1.043739 -3.114439 -8.212469 -0.979526 0.173464 0.102169 0.939743 0.494069 1 72 1.000000
  84 -0.545911 -3.114439 -7.148734 -0.495374 0.300628 0.815001 0.989522 0.498062 1 84 1.000000
  90 -0.739511 -1.083234 -8.744337 -0.998950 0.043371 -0.014755 0.930649 0.401707 1 90 1.000000
v_shot2
  67 -0.453721 2.130342 -8.786687 -0.551660 0.112858 0.826398 0.949131 0.261350 1 67 1.000000
  90 -0.739511 -1.083234 -8.744337 -0.998950 0.043371 -0.014755 0.930649 0.401707 1 90 1.000000
  84 -0.545911 -3.114439 -7.148734 -0.495374 0.300628 0.815001 0.989522 0.498062 1 84 1.000000
v_shot2
  96 -0.170034 2.039283 -10.504706 -0.678224 -0.621802 0.391630 0.645109 0.385763 1 96 1.000000
  78 -0.170034 2.288269 -10.707303 -0.727546 0.570836 -0.380557 0.644868 0.368357 1 78 1.000000
  92 -0.170034 1.579112 -11.771041 -0.640843 0.465965 -0.610079 0.587464 0.364433 1 92 1.000000
v_shot2
  96 -0.170034 2.039283 -10.504706 -0.678224 -0.621802 0.391630 0.645109 0.385763 1 96 1.000000
  92 -0.170034 1.579112 -11.771041 -0.640843 0.465965 -0.610079 0.587464 0.364433 1 92 1.000000
  95 -0.170034 1.422678 -11.483706 -0.794163 -0.369861 0.482191 0.588773 0.378215 1 95 1.000000
v_shot2
  94 -0.170034 1.020695 -11.608031 -0.777172 -0.007016 0.629249 0.568846 0.377589 1 94 1.000000
  95 -0.170034 1.422678 -11.483706 -0.794163 -0.369861 0.482191 0.588773 0.378215 1 95 1.000000
  93 -0.170034 1.047244 -11.948328 -0.645416 0.013081 -0.763719 0.568735 0.364513 1 93 1.000000
v_shot2
  92 -0.170034 1.579112 -11.771041 -0.640843 0.465965 -0.610079 0.587464 0.364433 1 92 1.000000
  93 -0.170034 1.047244 -11.948328 -0.645416 0.013081 -0.763719 0.568735 0.364513 1 93 1.000000
  95 -0.170034 1.422678 -11.483706 -0.794163 -0.369861 0.482191 0.588773 0.378215 1 95 1.000000
v_shot2
  94 -0.170034 1.020695 -11.608031 -0.777172 -0.007016 0.629249 0.568846 0.377589 1 94 1.000000
  93 -0.170034 1.047244 -11.948328 -0.645416 0.013081 -0.763719 0.568735 0.364513 1 93 1.000000
  80 -0.170034 -3.310039 -10.373755 -0.868948 0.135648 0.475951 0.379809 0.379328 1 80 1.000000
v_shot2
  93 -0.170034 1.047244 -11.948328 -0.645416 0.013081 -0.763719 0.568735 0.364513 1 93 1.000000
  79 -0.170034 -4.021857 -10.449464 -0.242953 -0.275055 -0.930225 0.349321 0.367083 1 79 1.000000
  80 -0.170034 -3.310039 -10.373755 -0.868948 0.135648 0.475951 0.379809 0.379328 1 80 1.000000
v_shot2
  85 -0.453721 3.371367 -8.744337 -0.566701 -0.198266 0.799713 0.688543 0.620228 1 85 1.000000
  67 -0.453721 2.130342 -8.786687 -0.551660 0.112858 0.826398 0.690835 0.673499 1 67 1.000000
  97 0.468183 3.371367 -8.744337 0.566700 -0.198263 0.799714 0.728093 0.618526 1 97 1.000000
v_shot2
  102 0.560374 -3.114437 -9.609236 0.592508 0.024777 -0.805183 0.740886 0.031302 1 102 1.000000
  104 0.753973 -1.083234 -8.744337 0.998950 0.043371 -0.014755 0.791308 0.118528 1 104 1.000000
  105 1.058202 -3.114439 -8.212469 0.979526 0.173464 0.102169 0.802432 0.022497 1 105 1.000000
v_shot2
  102 0.560374 -3.114437 -9.609236 0.592508 0.024777 -0.805183 0.740886 0.031302 1 102 1.000000
  101 0.468183 -1.260522 -9.630784 0.610183 -0.114425 -0.783954 0.746834 0.115205 1 101 1.000000
  104 0.753973 -1.083234 -8.744337 0.998950 0.043371 -0.014755 0.791308 0.118528 1 104 1.000000
v_shot2
  104 0.753973 -1.083234 -8.744337 0.998950 0.043371 -0.014755 0.791308 0.118528 1 104 1.000000
  101 0.468183 -1.260522 -9.630784 0.610183 -0.114425 -0.783954 0.746834 0.115205 1 101 1.000000
  103 0.929135 3.194077 -9.808073 0.999988 -0.001536 0.004633 0.771960 0.313313 1 103 1.000000
v_shot2
  101 0.468183 -1.260522 -9.630784 0.610183 -0.114425 -0.783954 0.746834 0.115205 1 101 1.000000
  100 0.468183 3.725947 -11.226384 0.556214 -0.120199 -0.822301 0.715181 0.340060 1 100 1.000000
  103 0.929135 3.194077 -9.808073 0.999988 -0.001536 0.004633 0.771960 0.313313 1 103 1.000000
v_shot2
  100 0.468183 3.725947 -11.226384 0.556214 -0.120199 -0.822301 0.715181 0.340060 1 100 1.000000
  99 0.468184 5.321548 -11.226384 0.522294 0.637922 -0.565919 0.718943 0.405875 1 99 1.000000
  103 0.929135 3.194077 -9.808073 0.999988 -0.001536 0.004633 0.771960 0.313313 1 103 1.000000
v_shot2
  99 0.468184 5.321548 -11.226384 0.522294 0.637922 -0.565919 0.718943 0.405875 1 99 1.000000
  98 0.468183 4.966969 -8.035181 0.513089 0.433626 0.740749 0.852271 0.382311 1 98 1.000000
  103 0.929135 3.194077 -9.808073 0.999988 -0.001536 0.004633 0.771960 0.313313 1 103 1.000000
v_shot2
  98 0.468183 4.966969 -8.035181 0.513089 0.433626 0.740749 0.852271 0.382311 1 98 1.000000
  97 0.468183 3.371367 -8.744337 0.566700 -0.198263 0.799714 0.820335 0.316351 1 97 1.000000
  103 0.929135 3.194077 -9.808073 0.999988 -0.001536 0.004633 0.771960 0.313313 1 103 1.000000
v_shot2
  97 0.468183 3.371367 -8.744337 0.566700 -0.198263 0.799714 0.820335 0.316351 1 97 1.000000
  70 0.468183 2.130342 -8.786687 0.551665 0.112858 0.826395 0.813207 0.263742 1 70 1.000000
  103 0.929135 3.194077 -9.808073 0.999988 -0.001536 0.004633 0.771960 0.313313 1 103 1.000000
v_shot2
  103 0.929135 3.194077 -9.808073 0.999988 -0.001536 0.004633 0.771960 0.313313 1 103 1.000000
  70 0.468183 2.130342 -8.786687 0.551665 0.112858 0.826395 0.813207 0.263742 1 70 1.000000
  104 0.753973 -1.083234 -8.744337 0.998950 0.043371 -0.014755 0.791308 0.118528 1 104 1.000000
v_shot2
  105 1.058202 -3.114439 -8.212469 0.979526 0.173464 0.102169 0.802432 0.022497 1 105 1.000000
  104 0.753973 -1.083234 -8.744337 0.998950 0.043371 -0.014755 0.791308 0.118528 1 104 1.000000
  71 0.560374 -3.114439 -7.148734 0.495366 0.300629 0.815006 0.852271 0.018704 1 71 1.000000
v_shot2
  70 0.468183 2.130342 -8.786687 0.551665 0.112858 0.826395 0.813207 0.263742 1 70 1.000000
  71 0.560374 -3.114439 -7.148734 0.495366 0.300629 0.815006 0.852271 0.018704 1 71 1.000000
  104 0.753973 -1.083234 -8.744337 0.998950 0.043371 -0.014755 0.791308 0.118528 1 104 1.000000
v_shot2
  115 0.184545 2.039283 -10.504706 0.678243 -0.621788 0.391621 0.645760 0.331826 1 115 1.000000
  109 0.184545 1.579112 -11.771041 0.640834 0.465975 -0.610082 0.587021 0.351526 1 109 1.000000
  108 0.184545 2.288269 -10.707303 0.727561 0.570823 -0.380547 0.645199 0.349292 1 108 1.000000
v_shot2
  115 0.184545 2.039283 -10.504706 0.678243 -0.621788 0.391621 0.645760 0.331826 1 115 1.000000
  114 0.184545 1.422678 -11.483706 0.794163 -0.369870 0.482185 0.588901 0.337515 1 114 1.000000
  109 0.184545 1.579112 -11.771041 0.640834 0.465975 -0.610082 0.587021 0.351526 1 109 1.000000
v_shot2
  113 0.184545 1.020695 -11.608031 0.777168 -0.007022 0.629255 0.568699 0.338395 1 113 1.000000
  110 0.184545 1.047244 -11.948328 0.645414 0.013079 -0.763721 0.568471 0.351115 1 110 1.000000
  114 0.184545 1.422678 -11.483706 0.794163 -0.369870 0.482185 0.588901 0.337515 1 114 1.000000
v_shot2
  109 0.184545 1.579112 -11.771041 0.640834 0.465975 -0.610082 0.587021 0.351526 1 109 1.000000
  114 0.184545 1.422678 -11.483706 0.794163 -0.369870 0.482185 0.588901 0.337515 1 114 1.000000
  110 0.184545 1.047244 -11.948328 0.645414 0.013079 -0.763721 0.568471 0.351115 1 110 1.000000
v_shot2
  113 0.184545 1.020695 -11.608031 0.777168 -0.007022 0.629255 0.568699 0.338395 1 113 1.000000
  112 0.184544 -3.310039 -10.373755 0.868944 0.135650 0.475957 0.379239 0.338056 1 112 1.000000
  110 0.184545 1.047244 -11.948328 0.645414 0.013079 -0.763721 0.568471 0.351115 1 110 1.000000
v_shot2
  110 0.184545 1.047244 -11.948328 0.645414 0.013079 -0.763721 0.568471 0.351115 1 110 1.000000
  112 0.184544 -3.310039 -10.373755 0.868944 0.135650 0.475957 0.379239 0.338056 1 112 1.000000
  111 0.184544 -4.021857 -10.449464 0.242957 -0.275055 -0.930224 0.349213 0.350529 1 111 1.000000
v_shot2
  71 0.560374 -3.114439 -7.148734 0.495366 0.300629 0.815006 0.744482 0.907344 1 71 1.000000
  70 0.468183 2.130342 -8.786687 0.551665 0.112858 0.826395 0.730385 0.671797 1 70 1.000000
  84 -0.545911 -3.114439 -7.148734 -0.495374 0.300628 0.815001 0.697023 0.909386 1 84 1.000000
v_shot2
  84 -0.545911 -3.114439 -7.148734 -0.495374 0.300628 0.815001 0.697023 0.909386 1 84 1.000000
  70 0.468183 2.130342 -8.786687 0.551665 0.112858 0.826395 0.730385 0.671797 1 70 1.000000
  67 -0.453721 2.130342 -8.786687 -0.551660 0.112858 0.826398 0.690835 0.673499 1 67 1.000000
v_shot2
  70 0.468183 2.130342 -8.786687 0.551665 0.112858 0.826395 0.730385 0.671797 1 70 1.000000
  97 0.468183 3.371367 -8.744337 0.566700 -0.198263 0.799714 0.728093 0.618526 1 97 1.000000
  67 -0.453721 2.130342 -8.786687 -0.551660 0.112858 0.826398 0.690835 0.673499 1 67 1.000000
v_shot2
  112 0.184544 -3.310039 -10.373755 0.868944 0.135650 0.475957 0.379239 0.338056 1 112 1.000000
  113 0.184545 1.020695 -11.608031 0.777168 -0.007022 0.629255 0.568699 0.338395 1 113 1.000000
  94 -0.170034 1.020695 -11.608031 -0.777172 -0.007016 0.629249 0.568456 0.322430 1 94 1.000000
v_shot2
  112 0.184544 -3.310039 -10.373755 0.868944 0.135650 0.475957 0.379239 0.338056 1 112 1.000000
  94 -0.170034 1.020695 -11.608031 -0.777172 -0.007016 0.629249 0.568456 0.322430 1 94 1.000000
  80 -0.170034 -3.310039 -10.373755 -0.868948 0.135648 0.475951 0.379182 0.323153 1 80 1.000000
v_shot2
  78 -0.170034 2.288269 -10.707303 -0.727546 0.570836 -0.380557 0.644868 0.368357 1 78 1.000000
  108 0.184545 2.288269 -10.707303 0.727561 0.570823 -0.380547 0.645199 0.349292 1 108 1.000000
  92 -0.170034 1.579112 -11.771041 -0.640843 0.465965 -0.610079 0.587464 0.364433 1 92 1.000000
v_shot2
  109 0.184545 1.579112 -11.771041 0.640834 0.465975 -0.610082 0.587021 0.351526 1 109 1.000000
  92 -0.170034 1.579112 -11.771041 -0.640843 0.465965 -0.610079 0.587464 0.364433 1 92 1.000000
  108 0.184545 2.288269 -10.707303 0.727561 0.570823 -0.380547 0.645199 0.349292 1 108 1.000000
v_shot2
  93 -0.170034 1.047244 -11.948328 -0.645416 0.013081 -0.763719 0.568735 0.364513 1 93 1.000000
  109 0.184545 1.579112 -11.771041 0.640834 0.465975 -0.610082 0.587021 0.351526 1 109 1.000000
  110 0.184545 1.047244 -11.948328 0.645414 0.013079 -0.763721 0.568471 0.351115 1 110 1.000000
v_shot2
  93 -0.170034 1.047244 -11.948328 -0.645416 0.013081 -0.763719 0.568735 0.364513 1 93 1.000000
  92 -0.170034 1.579112 -11.771041 -0.640843 0.465965 -0.610079 0.587464 0.364433 1 92 1.000000
  109 0.184545 1.579112 -11.771041 0.640834 0.465975 -0.610082 0.587021 0.351526 1 109 1.000000
v_shot2
  111 0.184544 -4.021857 -10.449464 0.242957 -0.275055 -0.930224 0.349213 0.350529 1 111 1.000000
  79 -0.170034 -4.021857 -10.449464 -0.242953 -0.275055 -0.930225 0.349321 0.367083 1 79 1.000000
  110 0.184545 1.047244 -11.948328 0.645414 0.013079 -0.763721 0.568471 0.351115 1 110 1.000000
v_shot2
  79 -0.170034 -4.021857 -10.449464 -0.242953 -0.275055 -0.930225 0.349321 0.367083 1 79 1.000000
  93 -0.170034 1.047244 -11.948328 -0.645416 0.013081 -0.763719 0.568735 0.364513 1 93 1.000000
  110 0.184545 1.047244 -11.948328 0.645414 0.013079 -0.763721 0.568471 0.351115 1 110 1.000000
v_shot2
  0 -0.245283 -15.814983 -8.793250 0.161078 -0.064022 -0.984863 0.492465 0.932384 1 0 1.000000
  1 -0.194810 -16.703362 -8.671396 0.113140 -0.792100 -0.599814 0.492028 0.971236 1 1 1.000000
  3 -0.682219 -16.703362 -8.873291 -0.018881 -0.649180 -0.760400 0.514753 0.969121 1 3 1.000000
v_shot2
  2 -0.854544 -6.147066 -9.045614 -0.367232 -0.021175 -0.929888 0.486218 0.513207 1 2 1.000000
  3 -0.682219 -16.703362 -8.873291 -0.018881 -0.649180 -0.760400 0.514753 0.969121 1 3 1.000000
  5 -1.169628 -16.703362 -8.671396 -0.541375 -0.640683 -0.544461 0.537518 0.967494 1 5 1.000000
v_shot2
  4 -1.463805 -6.147066 -8.793250 -0.708796 -0.027889 -0.704863 0.514675 0.511173 1 4 1.000000
  5 -1.169628 -16.703362 -8.671396 -0.541375 -0.640683 -0.544461 0.537518 0.967494 1 5 1.000000
  7 -1.371520 -16.703362 -8.183991 -0.766311 -0.642470 -0.000002 0.560313 0.966353 1 7 1.000000
v_shot2
  7 -1.371520 -16.703362 -8.183991 -0.766311 -0.642470 -0.000002 0.560313 0.966353 1 7 1.000000
  9 -1.169628 -16.703362 -7.696579 -0.541384 -0.640669 0.544469 0.583129 0.965782 1 9 1.000000
  8 -1.463805 -6.147066 -7.574728 -0.708797 -0.027889 0.704861 0.571689 0.509033 1 8 1.000000
v_shot2
  9 -1.169628 -16.703362 -7.696579 -0.541384 -0.640669 0.544469 0.583129 0.965782 1 9 1.000000
  11 -0.682219 -16.703362 -7.494687 0.003086 -0.636344 0.771399 0.605952 0.965697 1 11 1.000000
  10 -0.854544 -6.147066 -7.322363 -0.003953 -0.016387 0.999858 0.600218 0.508926 1 10 1.000000
v_shot2
  11 -0.682219 -16.703362 -7.494687 0.003086 -0.636344 0.771399 0.605952 0.965697 1 11 1.000000
  13 -0.194810 -16.703362 -7.696579 0.126895 -0.757127 0.640825 0.628775 0.965897 1 13 1.000000
  12 -0.245283 -6.147066 -7.574728 0.195929 -0.010382 0.980563 0.628746 0.509177 1 12 1.000000
v_shot2
  15 1.385682 -16.703362 -8.183991 0.766311 -0.642470 -0.000002 0.917450 0.966424 1 15 1.000000
  17 1.183791 -16.703362 -8.671396 0.541375 -0.640683 -0.544461 0.940246 0.967532 1 17 1.000000
  16 1.477969 -6.147066 -8.793250 0.708796 -0.027889 -0.704862 0.962442 0.511179 1 16 1.000000
v_shot2
  17 1.183791 -16.703362 -8.671396 0.541375 -0.640683 -0.544461 0.940246 0.967532 1 17 1.000000
  19 0.696382 -16.703362 -8.873291 0.018881 -0.649180 -0.760400 0.963014 0.969127 1 19 1.000000
  18 0.868707 -6.147066 -9.045614 0.367232 -0.021175 -0.929888 0.990902 0.513172 1 18 1.000000
v_shot2
  19 0.696382 -16.703362 -8.873291 0.018881 -0.649180 -0.760400 0.963014 0.969127 1 19 1.000000
  21 0.208973 -16.703362 -8.671396 -0.113139 -0.792106 -0.599806 0.985743 0.971209 1 21 1.000000
  20 0.259446 -15.814983 -8.793250 -0.161078 -0.064022 -0.984863 0.985250 0.932358 1 20 1.000000
v_shot2
  22 0.259446 -6.147066 -7.574728 -0.195927 -0.010382 0.980563 0.848368 0.509344 1 22 1.000000
  23 0.208973 -16.703362 -7.696579 -0.126897 -0.757123 0.640829 0.848987 0.966064 1 23 1.000000
  25 0.696382 -16.703362 -7.494687 -0.003086 -0.636344 0.771399 0.871809 0.965832 1 25 1.000000
v_shot2
  24 0.868707 -6.147066 -7.322363 0.003952 -0.016387 0.999858 0.876895 0.509054 1 24 1.000000
  25 0.696382 -16.703362 -7.494687 -0.003086 -0.636344 0.771399 0.871809 0.965832 1 25 1.000000
  27 1.183791 -16.703362 -7.696579 0.541384 -0.640669 0.544469 0.894632 0.965884 1 27 1.000000
v_shot2
  26 1.477969 -6.147066 -7.574728 0.708797 -0.027889 0.704861 0.905425 0.509120 1 26 1.000000
  27 1.183791 -16.703362 -7.696579 0.541384 -0.640669 0.544469 0.894632 0.965884 1 27 1.000000
  15 1.385682 -16.703362 -8.183991 0.766311 -0.642470 -0.000002 0.917450 0.966424 1 15 1.000000
v_shot2
  30 -0.758808 -8.034258 -6.757940 -0.579112 -0.566806 0.585969 0.382389 0.045305 1 30 1.000000
  34 -0.539413 -8.034258 -6.757940 0.579117 -0.566782 0.585988 0.372897 0.045305 1 34 1.000000
  33 -0.539413 -6.990254 -6.757940 0.602148 0.437288 0.667980 0.372897 0.090471 1 33 1.000000
v_shot2
  31 -0.758808 -8.056868 -7.437273 -0.699524 -0.714214 0.023770 0.382389 0.015900 1 31 1.000000
  35 -0.539412 -8.056868 -7.437273 0.699506 -0.714232 0.023771 0.372897 0.015900 1 35 1.000000
  34 -0.539413 -8.034258 -6.757940 0.579117 -0.566782 0.585988 0.372897 0.045305 1 34 1.000000
v_shot2
  29 -0.758808 -6.990254 -6.757940 -0.602152 0.437269 0.667988 0.382389 0.090471 1 29 1.000000
  33 -0.539413 -6.990254 -6.757940 0.602148 0.437288 0.667980 0.372897 0.090471 1 33 1.000000
  32 -0.539412 -6.693742 -7.437273 0.593829 0.737409 0.321862 0.372897 0.122537 1 32 1.000000
v_shot2
  38 0.537620 -8.034258 -6.757940 -0.579112 -0.566806 0.585969 0.126133 0.043898 1 38 1.000000
  42 0.757015 -8.034258 -6.757940 0.579117 -0.566782 0.585988 0.116642 0.043898 1 42 1.000000
  41 0.757015 -6.990254 -6.757940 0.602148 0.437288 0.667980 0.116642 0.089063 1 41 1.000000
v_shot2
  39 0.537620 -8.056868 -7.437273 -0.699524 -0.714214 0.023770 0.126133 0.014493 1 39 1.000000
  43 0.757015 -8.056868 -7.437273 0.699506 -0.714232 0.023771 0.116642 0.014493 1 43 1.000000
  42 0.757015 -8.034258 -6.757940 0.579117 -0.566782 0.585988 0.116642 0.043898 1 42 1.000000
v_shot2
  37 0.537620 -6.990254 -6.757940 -0.602152 0.437270 0.667988 0.126133 0.089063 1 37 1.000000
  41 0.757015 -6.990254 -6.757940 0.602148 0.437288 0.667980 0.116642 0.089063 1 41 1.000000
  40 0.757015 -6.693742 -7.437273 0.593829 0.737409 0.321862 0.116641 0.121130 1 40 1.000000
v_shot2
  45 1.803465 -6.296183 -9.699812 0.742359 -0.602037 -0.294031 0.422699 0.281992 1 45 1.000000
  47 1.044224 -6.296185 -10.459054 0.307531 -0.623087 -0.719158 0.468052 0.271952 1 47 1.000000
  46 0.882861 -3.110294 -10.462107 0.336646 0.633133 -0.697003 0.443154 0.136213 1 46 1.000000
v_shot2
  46 0.882861 -3.110294 -10.462107 0.336646 0.633133 -0.697003 0.443154 0.136213 1 46 1.000000
  47 1.044224 -6.296185 -10.459054 0.307531 -0.623087 -0.719158 0.468052 0.271952 1 47 1.000000
  49 -1.030060 -6.296185 -10.459054 -0.307534 -0.623091 -0.719153 0.555385 0.251318 1 49 1.000000
v_shot2
  49 -1.030060 -6.296185 -10.459054 -0.307534 -0.623091 -0.719153 0.017732 0.269217 1 49 1.000000
  51 -1.789301 -6.296185 -9.699815 -0.742372 -0.602018 -0.294038 0.062960 0.279808 1 51 1.000000
  48 -0.868698 -3.110294 -10.462107 -0.336649 0.633136 -0.696998 0.044277 0.133791 1 48 1.000000
v_shot2
  51 -1.789301 -6.296185 -9.699815 -0.742372 -0.602018 -0.294038 0.164267 0.420235 1 51 1.000000
  45 1.803465 -6.296183 -9.699812 0.742359 -0.602037 -0.294031 0.319694 0.421179 1 45 1.000000
  59 1.803464 -6.296183 -7.625526 0.743407 -0.592328 0.310634 0.320238 0.331443 1 59 1.000000
v_shot2
  53 -1.789302 -6.296185 -7.625530 -0.743410 -0.592331 0.310622 0.151564 0.294022 1 53 1.000000
  52 -1.509814 -3.110294 -7.786892 -0.688926 0.667435 0.282685 0.166587 0.156307 1 52 1.000000
  50 -1.509814 -3.110294 -9.538454 -0.698932 0.681950 -0.215496 0.091768 0.144304 1 50 1.000000
v_shot2
  53 -1.789302 -6.296185 -7.625530 -0.743410 -0.592331 0.310622 0.151564 0.294022 1 53 1.000000
  55 -1.030061 -6.296185 -6.866287 -0.310638 -0.592315 0.743416 0.197857 0.297854 1 55 1.000000
  54 -0.868699 -3.110294 -7.145777 -0.282679 0.667443 0.688921 0.205678 0.159542 1 54 1.000000
v_shot2
  54 -0.868699 -3.110294 -7.145777 -0.282679 0.667443 0.688921 0.205678 0.159542 1 54 1.000000
  55 -1.030061 -6.296185 -6.866287 -0.310638 -0.592315 0.743416 0.197857 0.297854 1 55 1.000000
  56 0.882860 -3.110294 -7.145774 0.282680 0.667435 0.688928 0.281452 0.160002 1 56 1.000000
v_shot2
  57 1.044223 -6.296183 -6.866287 0.310617 -0.592324 0.743417 0.287592 0.298398 1 57 1.000000
  56 0.882860 -3.110294 -7.145774 0.282680 0.667435 0.688928 0.281452 0.160002 1 56 1.000000
  55 -1.030061 -6.296185 -6.866287 -0.310638 -0.592315 0.743416 0.197857 0.297854 1 55 1.000000
v_shot2
  50 -1.509814 -3.110294 -9.538454 -0.698932 0.681950 -0.215496 0.091768 0.144304 1 50 1.000000
  51 -1.789301 -6.296185 -9.699815 -0.742372 -0.602018 -0.294038 0.062960 0.279808 1 51 1.000000
  53 -1.789302 -6.296185 -7.625530 -0.743410 -0.592331 0.310622 0.151564 0.294022 1 53 1.000000
v_shot2
  46 0.882861 -3.110294 -10.462107 0.336646 0.633133 -0.697003 0.282323 0.016535 1 46 1.000000
  48 -0.868698 -3.110294 -10.462107 -0.336649 0.633136 -0.696998 0.206549 0.016074 1 48 1.000000
  44 1.523976 -3.110294 -9.538449 0.698937 0.681945 -0.215496 0.309816 0.056661 1 44 1.000000
v_shot2
  48 -0.868698 -3.110294 -10.462107 -0.336649 0.633136 -0.696998 0.516899 0.118789 1 48 1.000000
  46 0.882861 -3.110294 -10.462107 0.336646 0.633133 -0.697003 0.443154 0.136213 1 46 1.000000
  49 -1.030060 -6.296185 -10.459054 -0.307534 -0.623091 -0.719153 0.555385 0.251318 1 49 1.000000
v_shot2
  51 -1.789301 -6.296185 -9.699815 -0.742372 -0.602018 -0.294038 0.164267 0.420235 1 51 1.000000
  49 -1.030060 -6.296185 -10.459054 -0.307534 -0.623091 -0.719153 0.196913 0.453280 1 49 1.000000
  47 1.044224 -6.296185 -10.459054 0.307531 -0.623087 -0.719158 0.286649 0.453825 1 47 1.000000
v_shot2
  59 1.803464 -6.296183 -7.625526 0.743407 -0.592328 0.310634 0.333929 0.295130 1 59 1.000000
  44 1.523976 -3.110294 -9.538449 0.698937 0.681945 -0.215496 0.395538 0.146149 1 44 1.000000
  58 1.523975 -3.110294 -7.786889 0.688911 0.667455 0.282674 0.320579 0.157242 1 58 1.000000
v_shot2
  57 1.044223 -6.296183 -6.866287 0.310617 -0.592324 0.743417 0.287592 0.298398 1 57 1.000000
  59 1.803464 -6.296183 -7.625526 0.743407 -0.592328 0.310634 0.333929 0.295130 1 59 1.000000
  58 1.523975 -3.110294 -7.786889 0.688911 0.667455 0.282674 0.320579 0.157242 1 58 1.000000
v_shot2
  50 -1.509814 -3.110294 -9.538454 -0.698932 0.681950 -0.215496 0.178571 0.055864 1 50 1.000000
  52 -1.509814 -3.110294 -7.786892 -0.688926 0.667435 0.282685 0.178111 0.131638 1 52 1.000000
  44 1.523976 -3.110294 -9.538449 0.698937 0.681945 -0.215496 0.309816 0.056661 1 44 1.000000
v_shot2
  45 1.803465 -6.296183 -9.699812 0.742359 -0.602037 -0.294031 0.319694 0.421179 1 45 1.000000
  51 -1.789301 -6.296185 -9.699815 -0.742372 -0.602018 -0.294038 0.164267 0.420235 1 51 1.000000
  47 1.044224 -6.296185 -10.459054 0.307531 -0.623087 -0.719158 0.286649 0.453825 1 47 1.000000
v_shot2
  53 -1.789302 -6.296185 -7.625530 -0.743410 -0.592331 0.310622 0.164812 0.330500 1 53 1.000000
  57 1.044223 -6.296183 -6.866287 0.310617 -0.592324 0.743417 0.287592 0.298398 1 57 1.000000
  55 -1.030061 -6.296185 -6.866287 -0.310638 -0.592315 0.743416 0.197857 0.297854 1 55 1.000000
v_shot2
  58 1.523975 -3.110294 -7.786889 0.688911 0.667455 0.282674 0.309356 0.132435 1 58 1.000000
  44 1.523976 -3.110294 -9.538449 0.698937 0.681945 -0.215496 0.309816 0.056661 1 44 1.000000
  52 -1.509814 -3.110294 -7.786892 -0.688926 0.667435 0.282685 0.178111 0.131638 1 52 1.000000
v_shot2
  48 -0.868698 -3.110294 -10.462107 -0.336649 0.633136 -0.696998 0.206549 0.016074 1 48 1.000000
  50 -1.509814 -3.110294 -9.538454 -0.698932 0.681950 -0.215496 0.178571 0.055864 1 50 1.000000
  44 1.523976 -3.110294 -9.538449 0.698937 0.681945 -0.215496 0.309816 0.056661 1 44 1.000000
v_shot2
  83 0.239741 -4.795565 -7.026665 0.176661 -0.000000 0.984272 0.613063 0.207731 1 83 1.000000
  82 0.239741 -1.300966 -7.026665 0.586540 0.523500 0.617996 0.612651 0.056549 1 82 1.000000
  76 -0.224300 -1.300966 -7.026665 -0.586531 0.523516 0.617991 0.592576 0.056604 1 76 1.000000
v_shot2
  82 0.239741 -1.300966 -7.026665 0.586540 0.523500 0.617996 0.612651 0.056549 1 82 1.000000
  81 0.239741 -1.123675 -8.090403 0.581798 0.802267 0.133712 0.612524 0.009896 1 81 1.000000
  75 -0.224300 -1.123675 -8.090403 -0.581816 0.802254 0.133710 0.592449 0.009950 1 75 1.000000
v_shot2
  116 0.132853 -1.589020 -10.638248 -0.537842 0.260217 0.801881 0.050155 0.425473 1 116 1.000000
  106 0.135051 -1.057152 -9.618072 -0.703699 -0.629395 0.329650 0.050339 0.375701 1 106 1.000000
  74 -0.118342 -1.589020 -10.638248 0.537852 0.260223 0.801872 0.039288 0.425454 1 74 1.000000
v_shot2
  73 -0.120540 -1.057152 -9.618072 0.703688 -0.629405 0.329656 0.039281 0.375681 1 73 1.000000
  74 -0.118342 -1.589020 -10.638248 0.537852 0.260223 0.801872 0.039288 0.425454 1 74 1.000000
  106 0.135051 -1.057152 -9.618072 -0.703699 -0.629395 0.329650 0.050339 0.375701 1 106 1.000000
v_shot2
  0 -0.245283 -15.814983 -8.793250 0.161078 -0.064022 -0.984863 0.480133 0.097088 1 0 1.000000
  20 0.259446 -15.814983 -8.793250 -0.161078 -0.064022 -0.984863 0.480133 0.075252 1 20 1.000000
  21 0.208973 -16.703362 -8.671396 -0.113139 -0.792106 -0.599806 0.441340 0.077436 1 21 1.000000
v_shot2
  0 -0.245283 -15.814983 -8.793250 0.161078 -0.064022 -0.984863 0.480133 0.097088 1 0 1.000000
  21 0.208973 -16.703362 -8.671396 -0.113139 -0.792106 -0.599806 0.441340 0.077436 1 21 1.000000
  1 -0.194810 -16.703362 -8.671396 0.113140 -0.792100 -0.599814 0.441340 0.094904 1 1 1.000000
v_shot2
  123 -1.972114 -6.296185 -8.773262 -0.747869 0.565244 0.348124 0.360276 0.508183 1 123 1.000000
  62 -1.787972 -15.736835 -9.023011 -0.797530 -0.602079 0.038034 0.332579 0.916353 1 62 1.000000
  66 0.007082 -6.296183 -8.065649 0.000000 0.266957 0.963708 0.451040 0.515205 1 66 1.000000
v_shot2
  122 -1.609663 -6.296185 -9.706692 -0.785821 0.331761 -0.521939 0.316935 0.506620 1 122 1.000000
  62 -1.787972 -15.736835 -9.023011 -0.797530 -0.602079 0.038034 0.332579 0.916353 1 62 1.000000
  123 -1.972114 -6.296185 -8.773262 -0.747869 0.565244 0.348124 0.360276 0.508183 1 123 1.000000
v_shot2
  62 -1.787972 -15.736835 -9.023011 -0.797530 -0.602079 0.038034 0.332579 0.916353 1 62 1.000000
  122 -1.609663 -6.296185 -9.706692 -0.785821 0.331761 -0.521939 0.316935 0.506620 1 122 1.000000
  61 -0.741130 -15.048138 -10.139931 -0.254538 -0.477822 -0.840771 0.267112 0.884735 1 61 1.000000
v_shot2
  122 -1.609663 -6.296185 -9.706692 -0.785821 0.331761 -0.521939 0.316935 0.506620 1 122 1.000000
  121 -0.926346 -6.296185 -10.390007 -0.378922 -0.034444 -0.924787 0.275096 0.505520 1 121 1.000000
  61 -0.741130 -15.048138 -10.139931 -0.254538 -0.477822 -0.840771 0.267112 0.884735 1 61 1.000000
v_shot2
  120 0.007082 -6.296185 -10.378854 -0.000000 -0.028190 -0.999603 0.234664 0.505538 1 120 1.000000
  61 -0.741130 -15.048138 -10.139931 -0.254538 -0.477822 -0.840771 0.267112 0.884735 1 61 1.000000
  121 -0.926346 -6.296185 -10.390007 -0.378922 -0.034444 -0.924787 0.275096 0.505520 1 121 1.000000
v_shot2
  61 -0.741130 -15.048138 -10.139931 -0.254538 -0.477822 -0.840771 0.267112 0.884735 1 61 1.000000
  120 0.007082 -6.296185 -10.378854 -0.000000 -0.028190 -0.999603 0.234664 0.505538 1 120 1.000000
  64 0.007082 -14.939034 -10.153097 0.000000 -0.465432 -0.885084 0.234666 0.880790 1 64 1.000000
v_shot2
  64 0.007082 -14.939034 -10.153097 0.000000 -0.465432 -0.885084 0.234666 0.880790 1 64 1.000000
  120 0.007082 -6.296185 -10.378854 -0.000000 -0.028190 -0.999603 0.234664 0.505538 1 120 1.000000
  60 0.755294 -15.048138 -10.139931 0.254538 -0.477821 -0.840772 0.202220 0.884735 1 60 1.000000
v_shot2
  120 0.007082 -6.296185 -10.378854 -0.000000 -0.028190 -0.999603 0.234664 0.505538 1 120 1.000000
  119 0.940510 -6.296185 -10.390007 0.378924 -0.034444 -0.924786 0.194234 0.505520 1 119 1.000000
  60 0.755294 -15.048138 -10.139931 0.254538 -0.477821 -0.840772 0.202220 0.884735 1 60 1.000000
v_shot2
  118 1.623827 -6.296183 -9.706687 0.785821 0.331762 -0.521938 0.152394 0.506621 1 118 1.000000
  60 0.755294 -15.048138 -10.139931 0.254538 -0.477821 -0.840772 0.202220 0.884735 1 60 1.000000
  119 0.940510 -6.296185 -10.390007 0.378924 -0.034444 -0.924786 0.194234 0.505520 1 119 1.000000
v_shot2
  60 0.755294 -15.048138 -10.139931 0.254538 -0.477821 -0.840772 0.202220 0.884735 1 60 1.000000
  118 1.623827 -6.296183 -9.706687 0.785821 0.331762 -0.521938 0.152394 0.506621 1 118 1.000000
  63 1.802135 -15.736835 -9.023011 0.797530 -0.602079 0.038033 0.136753 0.916353 1 63 1.000000
v_shot2
  118 1.623827 -6.296183 -9.706687 0.785821 0.331762 -0.521938 0.152394 0.506621 1 118 1.000000
  117 1.986278 -6.296183 -8.773262 0.747870 0.565244 0.348123 0.109053 0.508184 1 117 1.000000
  63 1.802135 -15.736835 -9.023011 0.797530 -0.602079 0.038033 0.136753 0.916353 1 63 1.000000
v_shot2
  63 1.802135 -15.736835 -9.023011 0.797530 -0.602079 0.038033 0.136753 0.916353 1 63 1.000000
  117 1.986278 -6.296183 -8.773262 0.747870 0.565244 0.348123 0.109053 0.508184 1 117 1.000000
  66 0.007082 -6.296183 -8.065649 0.000000 0.266957 0.963708 0.018289 0.515206 1 66 1.000000
v_shot2
  123 -1.972114 -6.296185 -8.773262 -0.747869 0.565244 0.348124 0.360276 0.508183 1 123 1.000000
  66 0.007082 -6.296183 -8.065649 0.000000 0.266957 0.963708 0.361098 0.417152 1 66 1.000000
  122 -1.609663 -6.296185 -9.706692 -0.785821 0.331761 -0.521939 0.316935 0.506620 1 122 1.000000
v_shot2
  117 1.986278 -6.296183 -8.773262 0.747870 0.565244 0.348123 0.109053 0.508184 1 117 1.000000
  118 1.623827 -6.296183 -9.706687 0.785821 0.331762 -0.521938 0.152394 0.506621 1 118 1.000000
  66 0.007082 -6.296183 -8.065649 0.000000 0.266957 0.963708 0.108231 0.417152 1 66 1.000000
v_shot2
  128 -0.595913 -16.484430 -8.128702 -0.698144 0.179095 -0.693195 0.405000 0.760000 1 128 1.000000
  129 -0.560473 -16.484430 -8.214263 -0.981314 0.192370 0.004159 0.415000 0.765000 1 129 1.000000
  124 -0.682976 -16.674601 -8.203579 0.005793 0.999136 -0.041152 0.430000 0.660000 1 124 1.000000
v_shot2
  125 -0.802473 -16.484430 -8.214263 0.982261 0.187471 0.004227 0.445000 0.765000 1 125 1.000000
  133 -0.681473 -15.701939 -8.214263 0.000002 -1.000000 0.000008 0.430000 0.990000 1 133 1.000000
  126 -0.767033 -16.484430 -8.128702 0.698025 0.175429 -0.694252 0.455000 0.760000 1 126 1.000000
v_shot2
  131 -0.681473 -16.484430 -8.335261 -0.000556 0.206661 0.978413 0.430000 0.770000 1 131 1.000000
  132 -0.767033 -16.484430 -8.299822 0.690470 0.200254 0.695090 0.440000 0.765000 1 132 1.000000
  124 -0.682976 -16.674601 -8.203579 0.005793 0.999136 -0.041152 0.430000 0.660000 1 124 1.000000
v_shot2
  126 -0.767033 -16.484430 -8.128702 0.698025 0.175429 -0.694252 0.455000 0.760000 1 126 1.000000
  133 -0.681473 -15.701939 -8.214263 0.000002 -1.000000 0.000008 0.430000 0.990000 1 133 1.000000
  127 -0.681473 -16.484430 -8.093262 -0.000624 0.171806 -0.985131 0.470000 0.750000 1 127 1.000000
v_shot2
  127 -0.681473 -16.484430 -8.093262 -0.000624 0.171806 -0.985131 0.395000 0.750000 1 127 1.000000
  128 -0.595913 -16.484430 -8.128702 -0.698144 0.179095 -0.693195 0.405000 0.760000 1 128 1.000000
  124 -0.682976 -16.674601 -8.203579 0.005793 0.999136 -0.041152 0.430000 0.660000 1 124 1.000000
v_shot2
  127 -0.681473 -16.484430 -8.093262 -0.000624 0.171806 -0.985131 0.395000 0.750000 1 127 1.000000
  133 -0.681473 -15.701939 -8.214263 0.000002 -1.000000 0.000008 0.430000 0.990000 1 133 1.000000
  128 -0.595913 -16.484430 -8.128702 -0.698144 0.179095 -0.693195 0.405000 0.760000 1 128 1.000000
v_shot2
  132 -0.767033 -16.484430 -8.299822 0.690470 0.200254 0.695090 0.440000 0.765000 1 132 1.000000
  125 -0.802473 -16.484430 -8.214263 0.982261 0.187471 0.004227 0.445000 0.765000 1 125 1.000000
  124 -0.682976 -16.674601 -8.203579 0.005793 0.999136 -0.041152 0.430000 0.660000 1 124 1.000000
v_shot2
  128 -0.595913 -16.484430 -8.128702 -0.698144 0.179095 -0.693195 0.405000 0.760000 1 128 1.000000
  133 -0.681473 -15.701939 -8.214263 0.000002 -1.000000 0.000008 0.430000 0.990000 1 133 1.000000
  129 -0.560473 -16.484430 -8.214263 -0.981314 0.192370 0.004159 0.415000 0.765000 1 129 1.000000
v_shot2
  130 -0.595913 -16.484430 -8.299822 -0.690581 0.203531 0.694026 0.425000 0.765000 1 130 1.000000
  131 -0.681473 -16.484430 -8.335261 -0.000556 0.206661 0.978413 0.430000 0.770000 1 131 1.000000
  124 -0.682976 -16.674601 -8.203579 0.005793 0.999136 -0.041152 0.430000 0.660000 1 124 1.000000
v_shot2
  129 -0.560473 -16.484430 -8.214263 -0.981314 0.192370 0.004159 0.415000 0.765000 1 129 1.000000
  133 -0.681473 -15.701939 -8.214263 0.000002 -1.000000 0.000008 0.430000 0.990000 1 133 1.000000
  130 -0.595913 -16.484430 -8.299822 -0.690581 0.203531 0.694026 0.425000 0.765000 1 130 1.000000
v_shot2
  126 -0.767033 -16.484430 -8.128702 0.698025 0.175429 -0.694252 0.455000 0.760000 1 126 1.000000
  127 -0.681473 -16.484430 -8.093262 -0.000624 0.171806 -0.985131 0.470000 0.750000 1 127 1.000000
  124 -0.682976 -16.674601 -8.203579 0.005793 0.999136 -0.041152 0.430000 0.660000 1 124 1.000000
v_shot2
  130 -0.595913 -16.484430 -8.299822 -0.690581 0.203531 0.694026 0.425000 0.765000 1 130 1.000000
  133 -0.681473 -15.701939 -8.214263 0.000002 -1.000000 0.000008 0.430000 0.990000 1 133 1.000000
  131 -0.681473 -16.484430 -8.335261 -0.000556 0.206661 0.978413 0.430000 0.770000 1 131 1.000000
v_shot2
  125 -0.802473 -16.484430 -8.214263 0.982261 0.187471 0.004227 0.445000 0.765000 1 125 1.000000
  126 -0.767033 -16.484430 -8.128702 0.698025 0.175429 -0.694252 0.455000 0.760000 1 126 1.000000
  124 -0.682976 -16.674601 -8.203579 0.005793 0.999136 -0.041152 0.430000 0.660000 1 124 1.000000
v_shot2
  131 -0.681473 -16.484430 -8.335261 -0.000556 0.206661 0.978413 0.430000 0.770000 1 131 1.000000
  133 -0.681473 -15.701939 -8.214263 0.000002 -1.000000 0.000008 0.430000 0.990000 1 133 1.000000
  132 -0.767033 -16.484430 -8.299822 0.690470 0.200254 0.695090 0.440000 0.765000 1 132 1.000000
v_shot2
  132 -0.767033 -16.484430 -8.299822 0.690470 0.200254 0.695090 0.440000 0.765000 1 132 1.000000
  133 -0.681473 -15.701939 -8.214263 0.000002 -1.000000 0.000008 0.430000 0.990000 1 133 1.000000
  125 -0.802473 -16.484430 -8.214263 0.982261 0.187471 0.004227 0.445000 0.765000 1 125 1.000000
v_shot2
  129 -0.560473 -16.484430 -8.214263 -0.981314 0.192370 0.004159 0.415000 0.765000 1 129 1.000000
  130 -0.595913 -16.484430 -8.299822 -0.690581 0.203531 0.694026 0.425000 0.765000 1 130 1.000000
  124 -0.682976 -16.674601 -8.203579 0.005793 0.999136 -0.041152 0.430000 0.660000 1 124 1.000000
v_shot2
  138 0.780188 -16.484430 -8.128702 -0.698029 0.175558 -0.694216 0.405000 0.760000 1 138 1.000000
  139 0.815628 -16.484430 -8.214263 -0.982228 0.187643 0.004224 0.415000 0.765000 1 139 1.000000
  134 0.696027 -16.674601 -8.203579 -0.005387 0.999138 -0.041152 0.430000 0.660000 1 134 1.000000
v_shot2
  135 0.573628 -16.484430 -8.214263 0.981347 0.192201 0.004161 0.445000 0.765000 1 135 1.000000
  143 0.694628 -15.701939 -8.214263 0.000004 -1.000000 0.000008 0.430000 0.990000 1 143 1.000000
  136 0.609068 -16.484430 -8.128702 0.698141 0.178968 -0.693231 0.455000 0.760000 1 136 1.000000
v_shot2
  141 0.694628 -16.484430 -8.335261 0.000519 0.206660 0.978413 0.430000 0.770000 1 141 1.000000
  142 0.609068 -16.484430 -8.299822 0.690579 0.203416 0.694062 0.440000 0.765000 1 142 1.000000
  134 0.696027 -16.674601 -8.203579 -0.005387 0.999138 -0.041152 0.430000 0.660000 1 134 1.000000
v_shot2
  136 0.609068 -16.484430 -8.128702 0.698141 0.178968 -0.693231 0.455000 0.760000 1 136 1.000000
  143 0.694628 -15.701939 -8.214263 0.000004 -1.000000 0.000008 0.430000 0.990000 1 143 1.000000
  137 0.694628 -16.484430 -8.093262 0.000581 0.171806 -0.985131 0.470000 0.750000 1 137 1.000000
v_shot2
  137 0.694628 -16.484430 -8.093262 0.000581 0.171806 -0.985131 0.395000 0.750000 1 137 1.000000
  138 0.780188 -16.484430 -8.128702 -0.698029 0.175558 -0.694216 0.405000 0.760000 1 138 1.000000
  134 0.696027 -16.674601 -8.203579 -0.005387 0.999138 -0.041152 0.430000 0.660000 1 134 1.000000
v_shot2
  137 0.694628 -16.484430 -8.093262 0.000581 0.171806 -0.985131 0.395000 0.750000 1 137 1.000000
  143 0.694628 -15.701939 -8.214263 0.000004 -1.000000 0.000008 0.430000 0.990000 1 143 1.000000
  138 0.780188 -16.484430 -8.128702 -0.698029 0.175558 -0.694216 0.405000 0.760000 1 138 1.000000
v_shot2
  142 0.609068 -16.484430 -8.299822 0.690579 0.203416 0.694062 0.440000 0.765000 1 142 1.000000
  135 0.573628 -16.484430 -8.214263 0.981347 0.192201 0.004161 0.445000 0.765000 1 135 1.000000
  134 0.696027 -16.674601 -8.203579 -0.005387 0.999138 -0.041152 0.430000 0.660000 1 134 1.000000
v_shot2
  138 0.780188 -16.484430 -8.128702 -0.698029 0.175558 -0.694216 0.405000 0.760000 1 138 1.000000
  143 0.694628 -15.701939 -8.214263 0.000004 -1.000000 0.000008 0.430000 0.990000 1 143 1.000000
  139 0.815628 -16.484430 -8.214263 -0.982228 0.187643 0.004224 0.415000 0.765000 1 139 1.000000
v_shot2
  140 0.780188 -16.484430 -8.299822 -0.690473 0.200369 0.695054 0.425000 0.765000 1 140 1.000000
  141 0.694628 -16.484430 -8.335261 0.000519 0.206660 0.978413 0.430000 0.770000 1 141 1.000000
  134 0.696027 -16.674601 -8.203579 -0.005387 0.999138 -0.041152 0.430000 0.660000 1 134 1.000000
v_shot2
  139 0.815628 -16.484430 -8.214263 -0.982228 0.187643 0.004224 0.415000 0.765000 1 139 1.000000
  143 0.694628 -15.701939 -8.214263 0.000004 -1.000000 0.000008 0.430000 0.990000 1 143 1.000000
  140 0.780188 -16.484430 -8.299822 -0.690473 0.200369 0.695054 0.425000 0.765000 1 140 1.000000
v_shot2
  136 0.609068 -16.484430 -8.128702 0.698141 0.178968 -0.693231 0.455000 0.760000 1 136 1.000000
  137 0.694628 -16.484430 -8.093262 0.000581 0.171806 -0.985131 0.470000 0.750000 1 137 1.000000
  134 0.696027 -16.674601 -8.203579 -0.005387 0.999138 -0.041152 0.430000 0.660000 1 134 1.000000
v_shot2
  140 0.780188 -16.484430 -8.299822 -0.690473 0.200369 0.695054 0.425000 0.765000 1 140 1.000000
  143 0.694628 -15.701939 -8.214263 0.000004 -1.000000 0.000008 0.430000 0.990000 1 143 1.000000
  141 0.694628 -16.484430 -8.335261 0.000519 0.206660 0.978413 0.430000 0.770000 1 141 1.000000
v_shot2
  135 0.573628 -16.484430 -8.214263 0.981347 0.192201 0.004161 0.445000 0.765000 1 135 1.000000
  136 0.609068 -16.484430 -8.128702 0.698141 0.178968 -0.693231 0.455000 0.760000 1 136 1.000000
  134 0.696027 -16.674601 -8.203579 -0.005387 0.999138 -0.041152 0.430000 0.660000 1 134 1.000000
v_shot2
  141 0.694628 -16.484430 -8.335261 0.000519 0.206660 0.978413 0.430000 0.770000 1 141 1.000000
  143 0.694628 -15.701939 -8.214263 0.000004 -1.000000 0.000008 0.430000 0.990000 1 143 1.000000
  142 0.609068 -16.484430 -8.299822 0.690579 0.203416 0.694062 0.440000 0.765000 1 142 1.000000
v_shot2
  142 0.609068 -16.484430 -8.299822 0.690579 0.203416 0.694062 0.440000 0.765000 1 142 1.000000
  143 0.694628 -15.701939 -8.214263 0.000004 -1.000000 0.000008 0.430000 0.990000 1 143 1.000000
  135 0.573628 -16.484430 -8.214263 0.981347 0.192201 0.004161 0.445000 0.765000 1 135 1.000000
v_shot2
  139 0.815628 -16.484430 -8.214263 -0.982228 0.187643 0.004224 0.415000 0.765000 1 139 1.000000
  140 0.780188 -16.484430 -8.299822 -0.690473 0.200369 0.695054 0.425000 0.765000 1 140 1.000000
  134 0.696027 -16.674601 -8.203579 -0.005387 0.999138 -0.041152 0.430000 0.660000 1 134 1.000000
end
