version 1
nodes
0 "v0" -1
1 "v1" -1
2 "v2" -1
3 "v3" -1
4 "v4" -1
5 "v5" -1
6 "v6" -1
7 "v7" -1
8 "v8" -1
9 "v9" -1
10 "v10" -1
11 "v11" -1
12 "v12" -1
13 "v13" -1
14 "v14" -1
15 "v15" -1
16 "v16" -1
17 "v17" -1
18 "v18" -1
19 "v19" -1
20 "v20" -1
21 "v21" -1
22 "v22" -1
23 "v23" -1
24 "v24" -1
25 "v25" -1
26 "v26" -1
27 "v27" -1
28 "v28" -1
29 "v29" -1
30 "v30" -1
31 "v31" -1
32 "v32" -1
33 "v33" -1
34 "v34" -1
35 "v35" -1
36 "v36" -1
37 "v37" -1
38 "v38" -1
39 "v39" -1
40 "v40" -1
41 "v41" -1
42 "v42" -1
43 "v43" -1
44 "v44" -1
45 "v45" -1
46 "v46" -1
47 "v47" -1
48 "v48" -1
49 "v49" -1
50 "v50" -1
51 "v51" -1
52 "v52" -1
53 "v53" -1
54 "v54" -1
55 "v55" -1
56 "v56" -1
57 "v57" -1
58 "v58" -1
59 "v59" -1
60 "v60" -1
61 "v61" -1
62 "v62" -1
63 "v63" -1
64 "v64" -1
65 "v65" -1
66 "v66" -1
67 "v67" -1
68 "v68" -1
69 "v69" -1
70 "v70" -1
71 "v71" -1
72 "v72" -1
73 "v73" -1
74 "v74" -1
75 "v75" -1
76 "v76" -1
77 "v77" -1
78 "v78" -1
79 "v79" -1
80 "v80" -1
81 "v81" -1
82 "v82" -1
83 "v83" -1
84 "v84" -1
85 "v85" -1
86 "v86" -1
87 "v87" -1
88 "v88" -1
89 "v89" -1
90 "v90" -1
91 "v91" -1
92 "v92" -1
93 "v93" -1
94 "v94" -1
95 "v95" -1
96 "v96" -1
97 "v97" -1
98 "v98" -1
99 "v99" -1
100 "v100" -1
101 "v101" -1
102 "v102" -1
103 "v103" -1
104 "v104" -1
105 "v105" -1
106 "v106" -1
107 "v107" -1
108 "v108" -1
109 "v109" -1
110 "v110" -1
111 "v111" -1
112 "v112" -1
113 "v113" -1
114 "v114" -1
115 "v115" -1
116 "v116" -1
117 "v117" -1
118 "v118" -1
119 "v119" -1
120 "v120" -1
121 "v121" -1
122 "v122" -1
123 "v123" -1
124 "v124" -1
125 "v125" -1
126 "v126" -1
127 "v127" -1
128 "v128" -1
129 "v129" -1
end
skeleton
  time 0
  0 0.544304 -9.313818 -7.092464 0.000000 -0.000000 -1.570796
  1 -0.891901 -9.299711 -8.384033 0.000000 -0.000000 -1.570796
  2 0.544304 -4.970090 -7.092464 0.000000 -0.000000 -1.570796
  3 0.866499 -4.962158 -8.384033 0.000000 -0.000000 -1.570796
  4 0.579804 -9.241121 -6.774078 0.000000 -0.000000 -1.570796
  5 0.579804 -20.848021 -6.775620 0.000000 -0.000000 -1.570796
  6 0.995293 -9.241121 -7.426493 0.000000 -0.000000 -1.570796
  7 0.995292 -20.870056 -7.426493 0.000000 -0.000000 -1.570796
  8 -1.032718 -20.870056 -9.810963 0.000000 -0.000000 -1.570796
  9 -1.032717 -9.241121 -9.810963 0.000000 -0.000000 -1.570796
  10 -1.026549 -20.870056 -7.428503 0.000000 -0.000000 -1.570796
  11 -0.609216 -20.848021 -6.777628 0.000000 -0.000000 -1.570796
  12 1.001434 -9.241121 -9.808954 0.000000 -0.000000 -1.570796
  13 1.001433 -20.870056 -9.808954 0.000000 -0.000000 -1.570796
  14 -0.476873 -9.295301 -9.596256 0.000000 -0.000000 -1.570796
  15 0.462559 -4.966566 -9.596256 0.000000 -0.000000 -1.570796
  16 -0.487838 -4.966566 -9.596256 0.000000 -0.000000 -1.570796
  17 -0.824688 -20.182442 -10.553333 0.000000 -0.000000 -1.570796
  18 -1.488165 -20.182442 -9.602571 0.000000 -0.000000 -1.570796
  19 -1.710860 -20.182442 -8.815415 0.000000 -0.000000 -1.570796
  20 -0.906375 -13.213194 -7.803529 0.000000 -0.000000 -1.570796
  21 -1.710859 -12.130121 -8.815415 0.000000 -0.000000 -1.570796
  22 -1.488164 -11.811972 -9.602571 0.000000 -0.000000 -1.570796
  23 -0.824687 -11.807090 -10.553334 0.000000 -0.000000 -1.570796
  24 -0.906376 -20.182442 -7.803529 0.000000 -0.000000 -1.570796
  25 0.813796 -20.182442 -10.553333 0.000000 -0.000000 -1.570796
  26 1.477273 -20.182442 -9.602571 0.000000 -0.000000 -1.570796
  27 1.701631 -20.182442 -8.815415 0.000000 -0.000000 -1.570796
  28 0.897269 -13.213194 -7.803529 0.000000 -0.000000 -1.570796
  29 1.701631 -12.130121 -8.815415 0.000000 -0.000000 -1.570796
  30 1.477274 -11.811972 -9.602571 0.000000 -0.000000 -1.570796
  31 0.813796 -11.807090 -10.553334 0.000000 -0.000000 -1.570796
  32 0.897269 -20.182442 -7.803529 0.000000 -0.000000 -1.570796
  33 0.870644 -22.266850 -8.630745 0.000000 -0.000000 -1.570796
  34 0.429835 -22.266850 -9.394249 0.000000 -0.000000 -1.570796
  35 -0.451781 -22.266853 -9.394249 0.000000 -0.000000 -1.570796
  36 -0.892589 -20.724022 -8.630745 0.000000 -0.000000 -1.570796
  37 -0.892589 -22.266853 -8.630745 0.000000 -0.000000 -1.570796
  38 -0.451781 -22.266850 -7.867245 0.000000 -0.000000 -1.570796
  39 0.429835 -20.724022 -7.867245 0.000000 -0.000000 -1.570796
  40 0.429835 -22.266850 -7.867245 0.000000 -0.000000 -1.570796
  41 -1.026548 -9.241121 -7.428503 0.000000 -0.000000 -1.570796
  42 -0.609215 -9.241121 -6.776086 0.000000 -0.000000 -1.570796
  43 1.042441 -5.053445 -7.426493 0.000000 -0.000000 -1.570796
  44 0.579805 -5.053445 -6.774078 0.000000 -0.000000 -1.570796
  45 -0.700591 -5.053445 -9.810963 0.000000 -0.000000 -1.570796
  46 -1.071851 -5.053445 -7.428503 0.000000 -0.000000 -1.570796
  47 -0.609215 -5.053445 -6.776086 0.000000 -0.000000 -1.570796
  48 -0.358142 -5.044629 -6.141195 0.000000 -0.000000 -1.570796
  49 0.329359 -5.044629 -6.139186 0.000000 -0.000000 -1.570796
  50 0.671157 -5.053445 -9.808954 0.000000 -0.000000 -1.570796
  51 -0.992674 -1.191126 -9.810963 0.000000 -0.000000 -1.570796
  52 0.963240 -1.191126 -9.808954 0.000000 -0.000000 -1.570796
  53 -0.768748 1.012916 -7.648906 0.000000 -0.000000 -1.570796
  54 0.739314 1.012916 -7.646896 0.000000 -0.000000 -1.570796
  55 -0.763103 0.572106 -7.166115 0.000000 -0.000000 -1.570796
  56 0.733670 0.572106 -7.164109 0.000000 -0.000000 -1.570796
  57 -0.637387 -1.411530 -6.725307 0.000000 -0.000000 -1.570796
  58 0.607954 -1.411530 -6.723297 0.000000 -0.000000 -1.570796
  59 -0.405900 -0.309506 -6.702936 0.000000 -0.000000 -1.570796
  60 0.376466 -0.309506 -6.700927 0.000000 -0.000000 -1.570796
  61 -0.360645 -1.698054 -6.213387 0.000000 -0.000000 -1.570796
  62 0.331211 -1.698054 -6.211383 0.000000 -0.000000 -1.570796
  63 -0.699287 1.233321 -9.149750 0.000000 -0.000000 -1.570796
  64 0.669853 1.233321 -9.147741 0.000000 -0.000000 -1.570796
  65 -0.557710 2.555746 -9.810963 0.000000 -0.000000 -1.570796
  66 0.528277 2.555746 -9.808956 0.000000 -0.000000 -1.570796
  67 -0.014716 4.318980 -9.369152 0.000000 -0.000000 -1.570796
  68 -0.601491 4.318980 -10.912983 0.000000 -0.000000 -1.570796
  69 0.572058 4.318980 -10.910979 0.000000 -0.000000 -1.570796
  70 -0.877253 3.437366 -12.015006 0.000000 -0.000000 -1.570796
  71 0.847820 3.437366 -12.012999 0.000000 -0.000000 -1.570796
  72 -0.992674 1.894533 -12.896621 0.000000 -0.000000 -1.570796
  73 0.963241 1.894533 -12.894613 0.000000 -0.000000 -1.570796
  74 -0.425459 0.792513 -12.015006 0.000000 -0.000000 -1.570796
  75 0.396025 0.792513 -12.012999 0.000000 -0.000000 -1.570796
  76 -0.410275 0.572106 -10.692580 0.000000 -0.000000 -1.570796
  77 0.380842 0.572106 -10.690573 0.000000 -0.000000 -1.570796
  78 -0.786204 0.572106 -9.590559 0.000000 -0.000000 -1.570796
  79 0.756771 0.572106 -9.588551 0.000000 -0.000000 -1.570796
  80 -0.967428 2.335342 -10.692580 0.000000 -0.000000 -1.570796
  81 0.937994 2.335342 -10.690570 0.000000 -0.000000 -1.570796
  82 -0.014717 -0.089101 -12.675214 0.000000 -0.000000 -1.570796
  83 0.866498 -9.299711 -8.384033 0.000000 -0.000000 -1.570796
  84 -0.891901 -4.962158 -8.384033 0.000000 -0.000000 -1.570796
  85 -0.569707 -4.970090 -7.092464 0.000000 -0.000000 -1.570796
  86 -0.569707 -9.313818 -7.092464 0.000000 -0.000000 -1.570796
  87 0.451469 -9.295301 -9.596256 0.000000 -0.000000 -1.570796
  88 0.870643 -20.724022 -8.630745 0.000000 -0.000000 -1.570796
  89 0.429835 -20.724022 -9.394249 0.000000 -0.000000 -1.570796
  90 -0.451781 -20.724022 -9.394249 0.000000 -0.000000 -1.570796
  91 -0.451781 -20.724022 -7.867245 0.000000 -0.000000 -1.570796
  92 -0.308104 -1.191126 -9.810963 0.000000 -0.000000 -1.570796
  93 0.278671 -1.191126 -9.808954 0.000000 -0.000000 -1.570796
  94 -0.308104 -2.072742 -11.133386 0.000000 -0.000000 -1.570796
  95 0.278671 -2.072742 -11.131379 0.000000 -0.000000 -1.570796
  96 -0.308104 -0.529912 -10.031366 0.000000 -0.000000 -1.570796
  97 0.278671 -0.529912 -10.029360 0.000000 -0.000000 -1.570796
  98 0.460902 -20.526964 -6.775664 0.000000 -0.000000 -1.570796
  99 0.460903 -10.611719 -6.774435 0.000000 -0.000000 -1.570796
  100 -0.490314 -20.526964 -6.777272 0.000000 -0.000000 -1.570796
  101 -0.490313 -10.611719 -6.776040 0.000000 -0.000000 -1.570796
  102 0.221326 -20.527119 -6.145942 0.000000 -0.000000 -1.570796
  103 0.221326 -12.396096 -6.144708 0.000000 -0.000000 -1.570796
  104 -0.254282 -20.527119 -6.147545 0.000000 -0.000000 -1.570796
  105 -0.254282 -12.396096 -6.146316 0.000000 -0.000000 -1.570796
  106 1.083630 -27.130615 -8.644239 0.000000 -0.000000 -1.570796
  107 0.589353 -33.171383 -8.644239 0.000000 -0.000000 -1.570796
  108 0.761719 -27.130615 -9.421405 0.000000 -0.000000 -1.570796
  109 0.412212 -33.171383 -9.071898 0.000000 -0.000000 -1.570796
  110 -0.015447 -27.130615 -9.743318 0.000000 -0.000000 -1.570796
  111 -0.015447 -33.171383 -9.249039 0.000000 -0.000000 -1.570796
  112 -0.792613 -27.130615 -9.421405 0.000000 -0.000000 -1.570796
  113 -0.443106 -33.171383 -9.071898 0.000000 -0.000000 -1.570796
  114 -1.114525 -27.130615 -8.644239 0.000000 -0.000000 -1.570796
  115 -0.620247 -33.171383 -8.644239 0.000000 -0.000000 -1.570796
  116 -0.792613 -27.130615 -7.867074 0.000000 -0.000000 -1.570796
  117 -0.443106 -33.171383 -8.216581 0.000000 -0.000000 -1.570796
  118 -0.015447 -27.130615 -7.545163 0.000000 -0.000000 -1.570796
  119 -0.015447 -33.171383 -8.039439 0.000000 -0.000000 -1.570796
  120 0.761719 -27.130615 -7.867074 0.000000 -0.000000 -1.570796
  121 0.412212 -33.171383 -8.216581 0.000000 -0.000000 -1.570796
  122 0.605809 -22.262539 -8.644239 0.000000 -0.000000 -1.570796
  123 0.423848 -22.262539 -9.083535 0.000000 -0.000000 -1.570796
  124 -0.015447 -22.262539 -9.265495 0.000000 -0.000000 -1.570796
  125 -0.454742 -22.262539 -9.083535 0.000000 -0.000000 -1.570796
  126 -0.636703 -22.262539 -8.644239 0.000000 -0.000000 -1.570796
  127 -0.454742 -22.262539 -8.204945 0.000000 -0.000000 -1.570796
  128 -0.015447 -22.262539 -8.022984 0.000000 -0.000000 -1.570796
  129 0.423848 -22.262539 -8.204945 0.000000 -0.000000 -1.570796
end
triangles
v_shot
  86 -0.569707 -9.313818 -7.092464 -0.613542 0.000000 0.789662 0.705000 0.805000 1 86 1.000000
  0 0.544304 -9.313818 -7.092464 0.613529 -0.000000 0.789672 0.705000 0.760000 1 0 1.000000
  2 0.544304 -4.970090 -7.092464 0.616775 -0.000000 0.787140 0.530000 0.760000 1 2 1.000000
v_shot
  1 -0.891901 -9.299711 -8.384033 -0.999174 -0.001016 -0.040632 0.705000 0.860000 1 1 1.000000
  86 -0.569707 -9.313818 -7.092464 -0.613542 0.000000 0.789662 0.705000 0.805000 1 86 1.000000
  85 -0.569707 -4.970090 -7.092464 -0.616762 0.000000 0.787149 0.530000 0.805000 1 85 1.000000
v_shot
  1 -0.891901 -9.299711 -8.384033 -0.999174 -0.001016 -0.040632 0.705000 0.860000 1 1 1.000000
  84 -0.891901 -4.962158 -8.384033 -0.999245 0.000000 -0.038859 0.530000 0.860000 1 84 1.000000
  16 -0.487838 -4.966566 -9.596256 -0.585366 -0.000270 -0.810769 0.530000 0.910000 1 16 1.000000
v_shot
  15 0.462559 -4.966566 -9.596256 0.585395 -0.000273 -0.810748 0.530000 0.950000 1 15 1.000000
  87 0.451469 -9.295301 -9.596256 0.581428 -0.001489 -0.813597 0.705000 0.950000 1 87 1.000000
  16 -0.487838 -4.966566 -9.596256 -0.585366 -0.000270 -0.810769 0.530000 0.910000 1 16 1.000000
v_shot
  83 0.866498 -9.299711 -8.384033 0.999174 -0.001028 -0.040623 0.705000 0.705000 1 83 1.000000
  3 0.866499 -4.962158 -8.384033 0.999246 -0.000000 -0.038813 0.530000 0.705000 1 3 1.000000
  2 0.544304 -4.970090 -7.092464 0.616775 -0.000000 0.787140 0.530000 0.760000 1 2 1.000000
v_shot
  6 0.995293 -9.241121 -7.426493 0.729768 0.649444 0.213686 0.495000 0.810000 1 6 1.000000
  4 0.579804 -9.241121 -6.774078 0.379475 0.613007 0.692980 0.495000 0.775000 1 4 1.000000
  5 0.579804 -20.848021 -6.775620 0.375855 -0.607765 0.699539 0.015000 0.775000 1 5 1.000000
v_shot
  12 1.001434 -9.241121 -9.808954 0.578404 0.577293 -0.576352 0.495000 0.905000 1 12 1.000000
  13 1.001433 -20.870056 -9.808954 0.578420 -0.577267 -0.576362 0.015000 0.905000 1 13 1.000000
  8 -1.032718 -20.870056 -9.810963 -0.578174 -0.578250 -0.575623 0.015000 0.990000 1 8 1.000000
v_shot
  41 -1.026548 -9.241121 -7.428503 -0.729686 0.649278 0.214465 0.495000 0.695000 1 41 1.000000
  10 -1.026549 -20.870056 -7.428503 -0.711069 -0.668614 0.217569 0.015000 0.695000 1 10 1.000000
  11 -0.609216 -20.848021 -6.777628 -0.377632 -0.610065 0.696573 0.015000 0.730000 1 11 1.000000
v_shot
  12 1.001434 -9.241121 -9.808954 0.578404 0.577293 -0.576352 0.495000 0.905000 1 12 1.000000
  6 0.995293 -9.241121 -7.426493 0.729768 0.649444 0.213686 0.495000 0.810000 1 6 1.000000
  7 0.995292 -20.870056 -7.426493 0.721006 -0.656473 0.221795 0.015000 0.810000 1 7 1.000000
v_shot
  14 -0.476873 -9.295301 -9.596256 -0.581427 -0.001473 -0.813597 0.705000 0.910000 1 14 1.000000
  16 -0.487838 -4.966566 -9.596256 -0.585366 -0.000270 -0.810769 0.530000 0.910000 1 16 1.000000
  87 0.451469 -9.295301 -9.596256 0.581428 -0.001489 -0.813597 0.705000 0.950000 1 87 1.000000
v_shot
  8 -1.032718 -20.870056 -9.810963 -0.578174 -0.578250 -0.575623 0.015000 0.595000 1 8 1.000000
  10 -1.026549 -20.870056 -7.428503 -0.711069 -0.668614 0.217569 0.015000 0.695000 1 10 1.000000
  41 -1.026548 -9.241121 -7.428503 -0.729686 0.649278 0.214465 0.495000 0.695000 1 41 1.000000
v_shot
  15 0.462559 -4.966566 -9.596256 0.585395 -0.000273 -0.810748 0.530000 0.650000 1 15 1.000000
  3 0.866499 -4.962158 -8.384033 0.999246 -0.000000 -0.038813 0.530000 0.705000 1 3 1.000000
  83 0.866498 -9.299711 -8.384033 0.999174 -0.001028 -0.040623 0.705000 0.705000 1 83 1.000000
v_shot
  10 -1.026549 -20.870056 -7.428503 -0.711069 -0.668614 0.217569 0.470000 0.465000 1 10 1.000000
  8 -1.032718 -20.870056 -9.810963 -0.578174 -0.578250 -0.575623 0.570000 0.465000 1 8 1.000000
  11 -0.609216 -20.848021 -6.777628 -0.377632 -0.610065 0.696573 0.445000 0.445000 1 11 1.000000
v_shot
  13 1.001433 -20.870056 -9.808954 0.578420 -0.577267 -0.576362 0.570000 0.380000 1 13 1.000000
  7 0.995292 -20.870056 -7.426493 0.721006 -0.656473 0.221795 0.470000 0.380000 1 7 1.000000
  8 -1.032718 -20.870056 -9.810963 -0.578174 -0.578250 -0.575623 0.570000 0.465000 1 8 1.000000
v_shot
  7 0.995292 -20.870056 -7.426493 0.721006 -0.656473 0.221795 0.470000 0.380000 1 7 1.000000
  5 0.579804 -20.848021 -6.775620 0.375855 -0.607765 0.699539 0.445000 0.395000 1 5 1.000000
  8 -1.032718 -20.870056 -9.810963 -0.578174 -0.578250 -0.575623 0.570000 0.465000 1 8 1.000000
v_shot
  11 -0.609216 -20.848021 -6.777628 -0.377632 -0.610065 0.696573 0.445000 0.445000 1 11 1.000000
  8 -1.032718 -20.870056 -9.810963 -0.578174 -0.578250 -0.575623 0.570000 0.465000 1 8 1.000000
  5 0.579804 -20.848021 -6.775620 0.375855 -0.607765 0.699539 0.445000 0.395000 1 5 1.000000
v_shot
  22 -1.488164 -11.811972 -9.602571 -0.670091 0.727484 -0.147460 0.930000 0.360000 1 22 1.000000
  23 -0.824687 -11.807090 -10.553334 -0.364311 0.618201 -0.696495 0.980000 0.360000 1 23 1.000000
  17 -0.824688 -20.182442 -10.553333 -0.364180 -0.616335 -0.698215 0.980000 0.010000 1 17 1.000000
v_shot
  17 -0.824688 -20.182442 -10.553333 -0.364180 -0.616335 -0.698215 0.980000 0.010000 1 17 1.000000
  18 -1.488165 -20.182442 -9.602571 -0.669571 -0.671582 -0.317259 0.930000 0.010000 1 18 1.000000
  22 -1.488164 -11.811972 -9.602571 -0.670091 0.727484 -0.147460 0.930000 0.360000 1 22 1.000000
v_shot
  18 -1.488165 -20.182442 -9.602571 -0.669571 -0.671582 -0.317259 0.930000 0.010000 1 18 1.000000
  19 -1.710860 -20.182442 -8.815415 -0.771282 -0.617398 0.154735 0.900000 0.010000 1 19 1.000000
  22 -1.488164 -11.811972 -9.602571 -0.670091 0.727484 -0.147460 0.930000 0.360000 1 22 1.000000
v_shot
  19 -1.710860 -20.182442 -8.815415 -0.771282 -0.617398 0.154735 0.900000 0.010000 1 19 1.000000
  20 -0.906375 -13.213194 -7.803529 -0.479887 0.381614 0.789987 0.845000 0.305000 1 20 1.000000
  21 -1.710859 -12.130121 -8.815415 -0.737038 0.563543 0.373087 0.900000 0.350000 1 21 1.000000
v_shot
  24 -0.906376 -20.182442 -7.803529 -0.449085 -0.819053 0.357038 0.845000 0.010000 1 24 1.000000
  20 -0.906375 -13.213194 -7.803529 -0.479887 0.381614 0.789987 0.845000 0.305000 1 20 1.000000
  19 -1.710860 -20.182442 -8.815415 -0.771282 -0.617398 0.154735 0.900000 0.010000 1 19 1.000000
v_shot
  22 -1.488164 -11.811972 -9.602571 -0.670091 0.727484 -0.147460 0.930000 0.360000 1 22 1.000000
  19 -1.710860 -20.182442 -8.815415 -0.771282 -0.617398 0.154735 0.900000 0.010000 1 19 1.000000
  21 -1.710859 -12.130121 -8.815415 -0.737038 0.563543 0.373087 0.900000 0.350000 1 21 1.000000
v_shot
  30 1.477274 -11.811972 -9.602571 0.669741 0.727728 -0.147848 0.675000 0.140000 1 30 1.000000
  25 0.813796 -20.182442 -10.553333 0.364178 -0.616327 -0.698223 0.725000 0.490000 1 25 1.000000
  31 0.813796 -11.807090 -10.553334 0.364315 0.618202 -0.696492 0.725000 0.140000 1 31 1.000000
v_shot
  25 0.813796 -20.182442 -10.553333 0.364178 -0.616327 -0.698223 0.725000 0.490000 1 25 1.000000
  30 1.477274 -11.811972 -9.602571 0.669741 0.727728 -0.147848 0.675000 0.140000 1 30 1.000000
  26 1.477273 -20.182442 -9.602571 0.669108 -0.671767 -0.317841 0.675000 0.490000 1 26 1.000000
v_shot
  26 1.477273 -20.182442 -9.602571 0.669108 -0.671767 -0.317841 0.675000 0.490000 1 26 1.000000
  30 1.477274 -11.811972 -9.602571 0.669741 0.727728 -0.147848 0.675000 0.140000 1 30 1.000000
  27 1.701631 -20.182442 -8.815415 0.771553 -0.617251 0.153975 0.645000 0.490000 1 27 1.000000
v_shot
  27 1.701631 -20.182442 -8.815415 0.771553 -0.617251 0.153975 0.645000 0.490000 1 27 1.000000
  29 1.701631 -12.130121 -8.815415 0.737422 0.563618 0.372214 0.645000 0.155000 1 29 1.000000
  28 0.897269 -13.213194 -7.803529 0.479932 0.381612 0.789961 0.590000 0.200000 1 28 1.000000
v_shot
  32 0.897269 -20.182442 -7.803529 0.449125 -0.819040 0.357015 0.590000 0.490000 1 32 1.000000
  27 1.701631 -20.182442 -8.815415 0.771553 -0.617251 0.153975 0.645000 0.490000 1 27 1.000000
  28 0.897269 -13.213194 -7.803529 0.479932 0.381612 0.789961 0.590000 0.200000 1 28 1.000000
v_shot
  30 1.477274 -11.811972 -9.602571 0.669741 0.727728 -0.147848 0.675000 0.140000 1 30 1.000000
  29 1.701631 -12.130121 -8.815415 0.737422 0.563618 0.372214 0.645000 0.155000 1 29 1.000000
  27 1.701631 -20.182442 -8.815415 0.771553 -0.617251 0.153975 0.645000 0.490000 1 27 1.000000
v_shot
  23 -0.824687 -11.807090 -10.553334 -0.364311 0.618201 -0.696495 0.795000 0.140000 1 23 1.000000
  31 0.813796 -11.807090 -10.553334 0.364315 0.618202 -0.696492 0.725000 0.140000 1 31 1.000000
  17 -0.824688 -20.182442 -10.553333 -0.364180 -0.616335 -0.698215 0.795000 0.490000 1 17 1.000000
v_shot
  29 1.701631 -12.130121 -8.815415 0.737422 0.563618 0.372214 0.690000 0.065000 1 29 1.000000
  21 -1.710859 -12.130121 -8.815415 -0.737038 0.563543 0.373087 0.830000 0.065000 1 21 1.000000
  20 -0.906375 -13.213194 -7.803529 -0.479887 0.381614 0.789987 0.795000 0.005000 1 20 1.000000
v_shot
  28 0.897269 -13.213194 -7.803529 0.479932 0.381612 0.789961 0.720000 0.005000 1 28 1.000000
  29 1.701631 -12.130121 -8.815415 0.737422 0.563618 0.372214 0.690000 0.065000 1 29 1.000000
  20 -0.906375 -13.213194 -7.803529 -0.479887 0.381614 0.789987 0.795000 0.005000 1 20 1.000000
v_shot
  29 1.701631 -12.130121 -8.815415 0.737422 0.563618 0.372214 0.690000 0.065000 1 29 1.000000
  30 1.477274 -11.811972 -9.602571 0.669741 0.727728 -0.147848 0.700000 0.100000 1 30 1.000000
  22 -1.488164 -11.811972 -9.602571 -0.670091 0.727484 -0.147460 0.820000 0.100000 1 22 1.000000
v_shot
  22 -1.488164 -11.811972 -9.602571 -0.670091 0.727484 -0.147460 0.820000 0.100000 1 22 1.000000
  21 -1.710859 -12.130121 -8.815415 -0.737038 0.563543 0.373087 0.830000 0.065000 1 21 1.000000
  29 1.701631 -12.130121 -8.815415 0.737422 0.563618 0.372214 0.690000 0.065000 1 29 1.000000
v_shot
  23 -0.824687 -11.807090 -10.553334 -0.364311 0.618201 -0.696495 0.795000 0.140000 1 23 1.000000
  22 -1.488164 -11.811972 -9.602571 -0.670091 0.727484 -0.147460 0.820000 0.100000 1 22 1.000000
  31 0.813796 -11.807090 -10.553334 0.364315 0.618202 -0.696492 0.725000 0.140000 1 31 1.000000
v_shot
  30 1.477274 -11.811972 -9.602571 0.669741 0.727728 -0.147848 0.700000 0.100000 1 30 1.000000
  31 0.813796 -11.807090 -10.553334 0.364315 0.618202 -0.696492 0.725000 0.140000 1 31 1.000000
  22 -1.488164 -11.811972 -9.602571 -0.670091 0.727484 -0.147460 0.820000 0.100000 1 22 1.000000
v_shot
  31 0.813796 -11.807090 -10.553334 0.364315 0.618202 -0.696492 0.725000 0.140000 1 31 1.000000
  25 0.813796 -20.182442 -10.553333 0.364178 -0.616327 -0.698223 0.725000 0.490000 1 25 1.000000
  17 -0.824688 -20.182442 -10.553333 -0.364180 -0.616335 -0.698215 0.795000 0.490000 1 17 1.000000
v_shot
  24 -0.906376 -20.182442 -7.803529 -0.449085 -0.819053 0.357038 0.795000 0.600000 1 24 1.000000
  27 1.701631 -20.182442 -8.815415 0.771553 -0.617251 0.153975 0.690000 0.560000 1 27 1.000000
  32 0.897269 -20.182442 -7.803529 0.449125 -0.819040 0.357015 0.720000 0.600000 1 32 1.000000
v_shot
  24 -0.906376 -20.182442 -7.803529 -0.449085 -0.819053 0.357038 0.795000 0.600000 1 24 1.000000
  19 -1.710860 -20.182442 -8.815415 -0.771282 -0.617398 0.154735 0.830000 0.560000 1 19 1.000000
  27 1.701631 -20.182442 -8.815415 0.771553 -0.617251 0.153975 0.690000 0.560000 1 27 1.000000
v_shot
  19 -1.710860 -20.182442 -8.815415 -0.771282 -0.617398 0.154735 0.830000 0.560000 1 19 1.000000
  18 -1.488165 -20.182442 -9.602571 -0.669571 -0.671582 -0.317259 0.820000 0.525000 1 18 1.000000
  26 1.477273 -20.182442 -9.602571 0.669108 -0.671767 -0.317841 0.700000 0.525000 1 26 1.000000
v_shot
  26 1.477273 -20.182442 -9.602571 0.669108 -0.671767 -0.317841 0.700000 0.525000 1 26 1.000000
  27 1.701631 -20.182442 -8.815415 0.771553 -0.617251 0.153975 0.690000 0.560000 1 27 1.000000
  19 -1.710860 -20.182442 -8.815415 -0.771282 -0.617398 0.154735 0.830000 0.560000 1 19 1.000000
v_shot
  25 0.813796 -20.182442 -10.553333 0.364178 -0.616327 -0.698223 0.725000 0.490000 1 25 1.000000
  18 -1.488165 -20.182442 -9.602571 -0.669571 -0.671582 -0.317259 0.820000 0.525000 1 18 1.000000
  17 -0.824688 -20.182442 -10.553333 -0.364180 -0.616335 -0.698215 0.795000 0.490000 1 17 1.000000
v_shot
  26 1.477273 -20.182442 -9.602571 0.669108 -0.671767 -0.317841 0.700000 0.525000 1 26 1.000000
  18 -1.488165 -20.182442 -9.602571 -0.669571 -0.671582 -0.317259 0.820000 0.525000 1 18 1.000000
  25 0.813796 -20.182442 -10.553333 0.364178 -0.616327 -0.698223 0.725000 0.490000 1 25 1.000000
v_shot
  47 -0.609215 -5.053445 -6.776086 -0.590125 -0.737216 0.329036 0.445000 0.320000 1 47 1.000000
  46 -1.071851 -5.053445 -7.428503 -0.748323 -0.636257 0.187588 0.470000 0.340000 1 46 1.000000
  43 1.042441 -5.053445 -7.426493 0.748326 -0.636254 0.187587 0.470000 0.255000 1 43 1.000000
v_shot
  12 1.001434 -9.241121 -9.808954 0.578404 0.577293 -0.576352 0.670000 0.100000 1 12 1.000000
  41 -1.026548 -9.241121 -7.428503 -0.729686 0.649278 0.214465 0.575000 0.015000 1 41 1.000000
  6 0.995293 -9.241121 -7.426493 0.729768 0.649444 0.213686 0.575000 0.100000 1 6 1.000000
v_shot
  89 0.429835 -20.724022 -9.394249 0.499997 0.000000 -0.866027 0.815000 0.850000 1 89 1.000000
  88 0.870643 -20.724022 -8.630745 1.000000 0.000000 -0.000002 0.815000 0.810000 1 88 1.000000
  33 0.870644 -22.266850 -8.630745 0.792404 -0.609997 0.000004 0.750000 0.810000 1 33 1.000000
v_shot
  43 1.042441 -5.053445 -7.426493 0.748326 -0.636254 0.187587 0.470000 0.255000 1 43 1.000000
  44 0.579805 -5.053445 -6.774078 0.589355 -0.740208 0.323656 0.445000 0.275000 1 44 1.000000
  47 -0.609215 -5.053445 -6.776086 -0.590125 -0.737216 0.329036 0.445000 0.320000 1 47 1.000000
v_shot
  9 -1.032717 -9.241121 -9.810963 -0.577906 0.577164 -0.576981 0.670000 0.015000 1 9 1.000000
  41 -1.026548 -9.241121 -7.428503 -0.729686 0.649278 0.214465 0.575000 0.015000 1 41 1.000000
  12 1.001434 -9.241121 -9.808954 0.578404 0.577293 -0.576352 0.670000 0.100000 1 12 1.000000
v_shot
  90 -0.451781 -20.724022 -9.394249 -0.500004 0.000000 -0.866023 0.815000 0.885000 1 90 1.000000
  89 0.429835 -20.724022 -9.394249 0.499997 0.000000 -0.866027 0.815000 0.850000 1 89 1.000000
  34 0.429835 -22.266850 -9.394249 0.396206 -0.609997 -0.686239 0.750000 0.850000 1 34 1.000000
v_shot
  50 0.671157 -5.053445 -9.808954 0.503976 -0.603718 -0.617684 0.570000 0.270000 1 50 1.000000
  43 1.042441 -5.053445 -7.426493 0.748326 -0.636254 0.187587 0.470000 0.255000 1 43 1.000000
  46 -1.071851 -5.053445 -7.428503 -0.748323 -0.636257 0.187588 0.470000 0.340000 1 46 1.000000
v_shot
  42 -0.609215 -9.241121 -6.776086 -0.379803 0.613395 0.692457 0.545000 0.030000 1 42 1.000000
  6 0.995293 -9.241121 -7.426493 0.729768 0.649444 0.213686 0.575000 0.100000 1 6 1.000000
  41 -1.026548 -9.241121 -7.428503 -0.729686 0.649278 0.214465 0.575000 0.015000 1 41 1.000000
v_shot
  36 -0.892589 -20.724022 -8.630745 -1.000000 -0.000000 0.000001 0.815000 0.705000 1 36 1.000000
  90 -0.451781 -20.724022 -9.394249 -0.500004 0.000000 -0.866023 0.815000 0.665000 1 90 1.000000
  35 -0.451781 -22.266853 -9.394249 -0.396200 -0.609997 -0.686243 0.750000 0.665000 1 35 1.000000
v_shot
  6 0.995293 -9.241121 -7.426493 0.729768 0.649444 0.213686 0.575000 0.100000 1 6 1.000000
  42 -0.609215 -9.241121 -6.776086 -0.379803 0.613395 0.692457 0.545000 0.030000 1 42 1.000000
  4 0.579804 -9.241121 -6.774078 0.379475 0.613007 0.692980 0.545000 0.080000 1 4 1.000000
v_shot
  36 -0.892589 -20.724022 -8.630745 -1.000000 -0.000000 0.000001 0.815000 0.705000 1 36 1.000000
  37 -0.892589 -22.266853 -8.630745 -0.792410 -0.609989 0.000002 0.750000 0.705000 1 37 1.000000
  38 -0.451781 -22.266850 -7.867245 -0.396201 -0.609998 0.686242 0.750000 0.740000 1 38 1.000000
v_shot
  38 -0.451781 -22.266850 -7.867245 -0.396201 -0.609998 0.686242 0.495000 0.125000 1 38 1.000000
  33 0.870644 -22.266850 -8.630745 0.792404 -0.609997 0.000004 0.460000 0.070000 1 33 1.000000
  40 0.429835 -22.266850 -7.867245 0.396198 -0.610000 0.686242 0.460000 0.110000 1 40 1.000000
v_shot
  39 0.429835 -20.724022 -7.867245 0.500003 0.000000 0.866024 0.815000 0.775000 1 39 1.000000
  91 -0.451781 -20.724022 -7.867245 -0.500000 0.000000 0.866026 0.815000 0.740000 1 91 1.000000
  38 -0.451781 -22.266850 -7.867245 -0.396201 -0.609998 0.686242 0.750000 0.740000 1 38 1.000000
v_shot
  45 -0.700591 -5.053445 -9.810963 -0.503160 -0.603529 -0.618533 0.570000 0.325000 1 45 1.000000
  50 0.671157 -5.053445 -9.808954 0.503976 -0.603718 -0.617684 0.570000 0.270000 1 50 1.000000
  46 -1.071851 -5.053445 -7.428503 -0.748323 -0.636257 0.187588 0.470000 0.340000 1 46 1.000000
v_shot
  88 0.870643 -20.724022 -8.630745 1.000000 0.000000 -0.000002 0.815000 0.810000 1 88 1.000000
  39 0.429835 -20.724022 -7.867245 0.500003 0.000000 0.866024 0.815000 0.775000 1 39 1.000000
  40 0.429835 -22.266850 -7.867245 0.396198 -0.610000 0.686242 0.750000 0.775000 1 40 1.000000
v_shot
  49 0.329359 -5.044629 -6.139186 0.443387 -0.591830 0.673161 0.415000 0.285000 1 49 1.000000
  47 -0.609215 -5.053445 -6.776086 -0.590125 -0.737216 0.329036 0.445000 0.320000 1 47 1.000000
  44 0.579805 -5.053445 -6.774078 0.589355 -0.740208 0.323656 0.445000 0.275000 1 44 1.000000
v_shot
  48 -0.358142 -5.044629 -6.141195 -0.450571 -0.588476 0.671329 0.415000 0.310000 1 48 1.000000
  47 -0.609215 -5.053445 -6.776086 -0.590125 -0.737216 0.329036 0.445000 0.320000 1 47 1.000000
  49 0.329359 -5.044629 -6.139186 0.443387 -0.591830 0.673161 0.415000 0.285000 1 49 1.000000
v_shot
  51 -0.992674 -1.191126 -9.810963 -0.803479 -0.063979 -0.591885 0.490000 0.490000 1 51 1.000000
  50 0.671157 -5.053445 -9.808954 0.503976 -0.603718 -0.617684 0.650000 0.560000 1 50 1.000000
  45 -0.700591 -5.053445 -9.810963 -0.503160 -0.603529 -0.618533 0.650000 0.500000 1 45 1.000000
v_shot
  43 1.042441 -5.053445 -7.426493 0.748326 -0.636254 0.187587 0.415000 0.220000 1 43 1.000000
  52 0.963240 -1.191126 -9.808954 0.804027 -0.063773 -0.591163 0.255000 0.130000 1 52 1.000000
  79 0.756771 0.572106 -9.588551 0.995589 0.025386 -0.090318 0.180000 0.140000 1 79 1.000000
v_shot
  55 -0.763103 0.572106 -7.166115 -0.506946 0.408463 0.759054 0.130000 0.190000 1 55 1.000000
  54 0.739314 1.012916 -7.646896 0.632325 0.702881 0.325767 0.065000 0.220000 1 54 1.000000
  53 -0.768748 1.012916 -7.648906 -0.632743 0.702710 0.325324 0.130000 0.220000 1 53 1.000000
v_shot
  57 -0.637387 -1.411530 -6.725307 -0.758012 0.107899 0.643254 0.460000 0.145000 1 57 1.000000
  56 0.733670 0.572106 -7.164109 0.505527 0.408850 0.759792 0.545000 0.200000 1 56 1.000000
  55 -0.763103 0.572106 -7.166115 -0.506946 0.408463 0.759054 0.545000 0.140000 1 55 1.000000
v_shot
  56 0.733670 0.572106 -7.164109 0.505527 0.408850 0.759792 0.175000 0.265000 1 56 1.000000
  55 -0.763103 0.572106 -7.166115 -0.506946 0.408463 0.759054 0.175000 0.330000 1 55 1.000000
  59 -0.405900 -0.309506 -6.702936 -0.335317 0.305439 0.891218 0.220000 0.315000 1 59 1.000000
v_shot
  60 0.376466 -0.309506 -6.700927 0.333066 0.305894 0.891906 0.220000 0.280000 1 60 1.000000
  59 -0.405900 -0.309506 -6.702936 -0.335317 0.305439 0.891218 0.220000 0.315000 1 59 1.000000
  61 -0.360645 -1.698054 -6.213387 -0.484153 0.130986 0.865123 0.280000 0.310000 1 61 1.000000
v_shot
  64 0.669853 1.233321 -9.147741 0.767800 0.517961 0.377093 0.070000 0.280000 1 64 1.000000
  53 -0.768748 1.012916 -7.648906 -0.632743 0.702710 0.325324 0.130000 0.220000 1 53 1.000000
  54 0.739314 1.012916 -7.646896 0.632325 0.702881 0.325767 0.065000 0.220000 1 54 1.000000
v_shot
  66 0.528277 2.555746 -9.808956 0.627906 0.240644 0.740152 0.075000 0.340000 1 66 1.000000
  63 -0.699287 1.233321 -9.149750 -0.786143 0.540550 0.299641 0.125000 0.280000 1 63 1.000000
  64 0.669853 1.233321 -9.147741 0.767800 0.517961 0.377093 0.070000 0.280000 1 64 1.000000
v_shot
  66 0.528277 2.555746 -9.808956 0.627906 0.240644 0.740152 0.075000 0.340000 1 66 1.000000
  67 -0.014716 4.318980 -9.369152 -0.000269 0.599373 0.800470 0.100000 0.415000 1 67 1.000000
  65 -0.557710 2.555746 -9.810963 -0.647580 0.202291 0.734655 0.120000 0.340000 1 65 1.000000
v_shot
  67 -0.014716 4.318980 -9.369152 -0.000269 0.599373 0.800470 0.455000 0.045000 1 67 1.000000
  69 0.572058 4.318980 -10.910979 0.605214 0.787142 -0.118844 0.390000 0.025000 1 69 1.000000
  68 -0.601491 4.318980 -10.912983 -0.604799 0.787356 -0.119540 0.390000 0.070000 1 68 1.000000
v_shot
  71 0.847820 3.437366 -12.012999 0.659818 0.543197 -0.519208 0.330000 0.010000 1 71 1.000000
  68 -0.601491 4.318980 -10.912983 -0.604799 0.787356 -0.119540 0.390000 0.070000 1 68 1.000000
  69 0.572058 4.318980 -10.910979 0.605214 0.787142 -0.118844 0.390000 0.025000 1 69 1.000000
v_shot
  73 0.963241 1.894533 -12.894613 0.714029 0.004160 -0.700103 0.255000 0.005000 1 73 1.000000
  70 -0.877253 3.437366 -12.015006 -0.659161 0.543474 -0.519753 0.330000 0.085000 1 70 1.000000
  71 0.847820 3.437366 -12.012999 0.659818 0.543197 -0.519208 0.330000 0.010000 1 71 1.000000
v_shot
  75 0.396025 0.792513 -12.012999 0.696365 -0.701845 0.149968 0.350000 0.545000 1 75 1.000000
  74 -0.425459 0.792513 -12.015006 -0.696974 -0.701138 0.150443 0.350000 0.515000 1 74 1.000000
  82 -0.014717 -0.089101 -12.675214 -0.000012 -0.968089 -0.250607 0.305000 0.530000 1 82 1.000000
v_shot
  73 0.963241 1.894533 -12.894613 0.714029 0.004160 -0.700103 0.255000 0.005000 1 73 1.000000
  82 -0.014717 -0.089101 -12.675214 -0.000012 -0.968089 -0.250607 0.175000 0.045000 1 82 1.000000
  72 -0.992674 1.894533 -12.896621 -0.713318 0.004112 -0.700829 0.255000 0.085000 1 72 1.000000
v_shot
  75 0.396025 0.792513 -12.012999 0.696365 -0.701845 0.149968 0.350000 0.545000 1 75 1.000000
  76 -0.410275 0.572106 -10.692580 -0.661739 -0.558053 -0.500678 0.410000 0.515000 1 76 1.000000
  74 -0.425459 0.792513 -12.015006 -0.696974 -0.701138 0.150443 0.350000 0.515000 1 74 1.000000
v_shot
  77 0.380842 0.572106 -10.690573 0.662822 -0.556820 -0.500617 0.410000 0.545000 1 77 1.000000
  52 0.963240 -1.191126 -9.808954 0.804027 -0.063773 -0.591163 0.490000 0.570000 1 52 1.000000
  51 -0.992674 -1.191126 -9.810963 -0.803479 -0.063979 -0.591885 0.490000 0.490000 1 51 1.000000
v_shot
  48 -0.358142 -5.044629 -6.141195 -0.450571 -0.588476 0.671329 0.415000 0.310000 1 48 1.000000
  49 0.329359 -5.044629 -6.139186 0.443387 -0.591830 0.673161 0.415000 0.285000 1 49 1.000000
  61 -0.360645 -1.698054 -6.213387 -0.484153 0.130986 0.865123 0.280000 0.310000 1 61 1.000000
v_shot
  62 0.331211 -1.698054 -6.211383 0.474568 0.138756 0.869214 0.280000 0.285000 1 62 1.000000
  61 -0.360645 -1.698054 -6.213387 -0.484153 0.130986 0.865123 0.280000 0.310000 1 61 1.000000
  49 0.329359 -5.044629 -6.139186 0.443387 -0.591830 0.673161 0.415000 0.285000 1 49 1.000000
v_shot
  44 0.579805 -5.053445 -6.774078 0.589355 -0.740208 0.323656 0.415000 0.255000 1 44 1.000000
  58 0.607954 -1.411530 -6.723297 0.758417 0.111010 0.642247 0.265000 0.260000 1 58 1.000000
  49 0.329359 -5.044629 -6.139186 0.443387 -0.591830 0.673161 0.415000 0.285000 1 49 1.000000
v_shot
  49 0.329359 -5.044629 -6.139186 0.443387 -0.591830 0.673161 0.415000 0.285000 1 49 1.000000
  58 0.607954 -1.411530 -6.723297 0.758417 0.111010 0.642247 0.265000 0.260000 1 58 1.000000
  62 0.331211 -1.698054 -6.211383 0.474568 0.138756 0.869214 0.280000 0.285000 1 62 1.000000
v_shot
  60 0.376466 -0.309506 -6.700927 0.333066 0.305894 0.891906 0.220000 0.270000 1 60 1.000000
  62 0.331211 -1.698054 -6.211383 0.474568 0.138756 0.869214 0.280000 0.285000 1 62 1.000000
  58 0.607954 -1.411530 -6.723297 0.758417 0.111010 0.642247 0.265000 0.260000 1 58 1.000000
v_shot
  56 0.733670 0.572106 -7.164109 0.505527 0.408850 0.759792 0.185000 0.245000 1 56 1.000000
  60 0.376466 -0.309506 -6.700927 0.333066 0.305894 0.891906 0.220000 0.270000 1 60 1.000000
  58 0.607954 -1.411530 -6.723297 0.758417 0.111010 0.642247 0.265000 0.260000 1 58 1.000000
v_shot
  55 -0.763103 0.572106 -7.166115 -0.506946 0.408463 0.759054 0.185000 0.350000 1 55 1.000000
  57 -0.637387 -1.411530 -6.725307 -0.758012 0.107899 0.643254 0.265000 0.335000 1 57 1.000000
  59 -0.405900 -0.309506 -6.702936 -0.335317 0.305439 0.891218 0.220000 0.325000 1 59 1.000000
v_shot
  59 -0.405900 -0.309506 -6.702936 -0.335317 0.305439 0.891218 0.220000 0.325000 1 59 1.000000
  57 -0.637387 -1.411530 -6.725307 -0.758012 0.107899 0.643254 0.265000 0.335000 1 57 1.000000
  61 -0.360645 -1.698054 -6.213387 -0.484153 0.130986 0.865123 0.280000 0.310000 1 61 1.000000
v_shot
  57 -0.637387 -1.411530 -6.725307 -0.758012 0.107899 0.643254 0.265000 0.335000 1 57 1.000000
  47 -0.609215 -5.053445 -6.776086 -0.590125 -0.737216 0.329036 0.415000 0.340000 1 47 1.000000
  61 -0.360645 -1.698054 -6.213387 -0.484153 0.130986 0.865123 0.280000 0.310000 1 61 1.000000
v_shot
  48 -0.358142 -5.044629 -6.141195 -0.450571 -0.588476 0.671329 0.415000 0.310000 1 48 1.000000
  61 -0.360645 -1.698054 -6.213387 -0.484153 0.130986 0.865123 0.280000 0.310000 1 61 1.000000
  47 -0.609215 -5.053445 -6.776086 -0.590125 -0.737216 0.329036 0.415000 0.340000 1 47 1.000000
v_shot
  46 -1.071851 -5.053445 -7.428503 -0.748323 -0.636257 0.187588 0.415000 0.375000 1 46 1.000000
  57 -0.637387 -1.411530 -6.725307 -0.758012 0.107899 0.643254 0.265000 0.335000 1 57 1.000000
  55 -0.763103 0.572106 -7.166115 -0.506946 0.408463 0.759054 0.185000 0.350000 1 55 1.000000
v_shot
  46 -1.071851 -5.053445 -7.428503 -0.748323 -0.636257 0.187588 0.415000 0.375000 1 46 1.000000
  47 -0.609215 -5.053445 -6.776086 -0.590125 -0.737216 0.329036 0.415000 0.340000 1 47 1.000000
  57 -0.637387 -1.411530 -6.725307 -0.758012 0.107899 0.643254 0.265000 0.335000 1 57 1.000000
v_shot
  55 -0.763103 0.572106 -7.166115 -0.506946 0.408463 0.759054 0.185000 0.350000 1 55 1.000000
  53 -0.768748 1.012916 -7.648906 -0.632743 0.702710 0.325324 0.165000 0.370000 1 53 1.000000
  46 -1.071851 -5.053445 -7.428503 -0.748323 -0.636257 0.187588 0.415000 0.375000 1 46 1.000000
v_shot
  46 -1.071851 -5.053445 -7.428503 -0.748323 -0.636257 0.187588 0.415000 0.375000 1 46 1.000000
  53 -0.768748 1.012916 -7.648906 -0.632743 0.702710 0.325324 0.165000 0.370000 1 53 1.000000
  78 -0.786204 0.572106 -9.590559 -0.994696 0.048148 -0.090895 0.180000 0.455000 1 78 1.000000
v_shot
  46 -1.071851 -5.053445 -7.428503 -0.748323 -0.636257 0.187588 0.415000 0.375000 1 46 1.000000
  51 -0.992674 -1.191126 -9.810963 -0.803479 -0.063979 -0.591885 0.255000 0.465000 1 51 1.000000
  45 -0.700591 -5.053445 -9.810963 -0.503160 -0.603529 -0.618533 0.415000 0.470000 1 45 1.000000
v_shot
  43 1.042441 -5.053445 -7.426493 0.748326 -0.636254 0.187587 0.415000 0.220000 1 43 1.000000
  58 0.607954 -1.411530 -6.723297 0.758417 0.111010 0.642247 0.265000 0.260000 1 58 1.000000
  44 0.579805 -5.053445 -6.774078 0.589355 -0.740208 0.323656 0.415000 0.255000 1 44 1.000000
v_shot
  58 0.607954 -1.411530 -6.723297 0.758417 0.111010 0.642247 0.265000 0.260000 1 58 1.000000
  43 1.042441 -5.053445 -7.426493 0.748326 -0.636254 0.187587 0.415000 0.220000 1 43 1.000000
  56 0.733670 0.572106 -7.164109 0.505527 0.408850 0.759792 0.185000 0.245000 1 56 1.000000
v_shot
  56 0.733670 0.572106 -7.164109 0.505527 0.408850 0.759792 0.185000 0.245000 1 56 1.000000
  43 1.042441 -5.053445 -7.426493 0.748326 -0.636254 0.187587 0.415000 0.220000 1 43 1.000000
  54 0.739314 1.012916 -7.646896 0.632325 0.702881 0.325767 0.165000 0.225000 1 54 1.000000
v_shot
  43 1.042441 -5.053445 -7.426493 0.748326 -0.636254 0.187587 0.415000 0.220000 1 43 1.000000
  79 0.756771 0.572106 -9.588551 0.995589 0.025386 -0.090318 0.180000 0.140000 1 79 1.000000
  54 0.739314 1.012916 -7.646896 0.632325 0.702881 0.325767 0.165000 0.225000 1 54 1.000000
v_shot
  43 1.042441 -5.053445 -7.426493 0.748326 -0.636254 0.187587 0.415000 0.220000 1 43 1.000000
  50 0.671157 -5.053445 -9.808954 0.503976 -0.603718 -0.617684 0.415000 0.125000 1 50 1.000000
  52 0.963240 -1.191126 -9.808954 0.804027 -0.063773 -0.591163 0.255000 0.130000 1 52 1.000000
v_shot
  74 -0.425459 0.792513 -12.015006 -0.696974 -0.701138 0.150443 0.160000 0.555000 1 74 1.000000
  80 -0.967428 2.335342 -10.692580 -0.988074 0.005010 0.153898 0.100000 0.495000 1 80 1.000000
  72 -0.992674 1.894533 -12.896621 -0.713318 0.004112 -0.700829 0.105000 0.585000 1 72 1.000000
v_shot
  75 0.396025 0.792513 -12.012999 0.696365 -0.701845 0.149968 0.160000 0.040000 1 75 1.000000
  82 -0.014717 -0.089101 -12.675214 -0.000012 -0.968089 -0.250607 0.195000 0.010000 1 82 1.000000
  73 0.963241 1.894533 -12.894613 0.714029 0.004160 -0.700103 0.105000 0.010000 1 73 1.000000
v_shot
  76 -0.410275 0.572106 -10.692580 -0.661739 -0.558053 -0.500678 0.175000 0.500000 1 76 1.000000
  80 -0.967428 2.335342 -10.692580 -0.988074 0.005010 0.153898 0.100000 0.495000 1 80 1.000000
  74 -0.425459 0.792513 -12.015006 -0.696974 -0.701138 0.150443 0.160000 0.555000 1 74 1.000000
v_shot
  80 -0.967428 2.335342 -10.692580 -0.988074 0.005010 0.153898 0.100000 0.495000 1 80 1.000000
  76 -0.410275 0.572106 -10.692580 -0.661739 -0.558053 -0.500678 0.175000 0.500000 1 76 1.000000
  78 -0.786204 0.572106 -9.590559 -0.994696 0.048148 -0.090895 0.180000 0.455000 1 78 1.000000
v_shot
  51 -0.992674 -1.191126 -9.810963 -0.803479 -0.063979 -0.591885 0.255000 0.465000 1 51 1.000000
  78 -0.786204 0.572106 -9.590559 -0.994696 0.048148 -0.090895 0.180000 0.455000 1 78 1.000000
  76 -0.410275 0.572106 -10.692580 -0.661739 -0.558053 -0.500678 0.175000 0.500000 1 76 1.000000
v_shot
  78 -0.786204 0.572106 -9.590559 -0.994696 0.048148 -0.090895 0.180000 0.455000 1 78 1.000000
  65 -0.557710 2.555746 -9.810963 -0.647580 0.202291 0.734655 0.095000 0.455000 1 65 1.000000
  80 -0.967428 2.335342 -10.692580 -0.988074 0.005010 0.153898 0.100000 0.495000 1 80 1.000000
v_shot
  63 -0.699287 1.233321 -9.149750 -0.786143 0.540550 0.299641 0.150000 0.430000 1 63 1.000000
  65 -0.557710 2.555746 -9.810963 -0.647580 0.202291 0.734655 0.095000 0.455000 1 65 1.000000
  78 -0.786204 0.572106 -9.590559 -0.994696 0.048148 -0.090895 0.180000 0.455000 1 78 1.000000
v_shot
  67 -0.014716 4.318980 -9.369152 -0.000269 0.599373 0.800470 0.020000 0.425000 1 67 1.000000
  68 -0.601491 4.318980 -10.912983 -0.604799 0.787356 -0.119540 0.015000 0.490000 1 68 1.000000
  65 -0.557710 2.555746 -9.810963 -0.647580 0.202291 0.734655 0.095000 0.455000 1 65 1.000000
v_shot
  68 -0.601491 4.318980 -10.912983 -0.604799 0.787356 -0.119540 0.015000 0.490000 1 68 1.000000
  70 -0.877253 3.437366 -12.015006 -0.659161 0.543474 -0.519753 0.050000 0.540000 1 70 1.000000
  80 -0.967428 2.335342 -10.692580 -0.988074 0.005010 0.153898 0.100000 0.495000 1 80 1.000000
v_shot
  69 0.572058 4.318980 -10.910979 0.605214 0.787142 -0.118844 0.015000 0.105000 1 69 1.000000
  81 0.937994 2.335342 -10.690570 0.990691 0.014348 0.135369 0.100000 0.105000 1 81 1.000000
  71 0.847820 3.437366 -12.012999 0.659818 0.543197 -0.519208 0.045000 0.055000 1 71 1.000000
v_shot
  70 -0.877253 3.437366 -12.015006 -0.659161 0.543474 -0.519753 0.050000 0.540000 1 70 1.000000
  72 -0.992674 1.894533 -12.896621 -0.713318 0.004112 -0.700829 0.105000 0.585000 1 72 1.000000
  80 -0.967428 2.335342 -10.692580 -0.988074 0.005010 0.153898 0.100000 0.495000 1 80 1.000000
v_shot
  63 -0.699287 1.233321 -9.149750 -0.786143 0.540550 0.299641 0.150000 0.430000 1 63 1.000000
  78 -0.786204 0.572106 -9.590559 -0.994696 0.048148 -0.090895 0.180000 0.455000 1 78 1.000000
  53 -0.768748 1.012916 -7.648906 -0.632743 0.702710 0.325324 0.165000 0.370000 1 53 1.000000
v_shot
  46 -1.071851 -5.053445 -7.428503 -0.748323 -0.636257 0.187588 0.415000 0.375000 1 46 1.000000
  78 -0.786204 0.572106 -9.590559 -0.994696 0.048148 -0.090895 0.180000 0.455000 1 78 1.000000
  51 -0.992674 -1.191126 -9.810963 -0.803479 -0.063979 -0.591885 0.255000 0.465000 1 51 1.000000
v_shot
  64 0.669853 1.233321 -9.147741 0.767800 0.517961 0.377093 0.150000 0.165000 1 64 1.000000
  54 0.739314 1.012916 -7.646896 0.632325 0.702881 0.325767 0.165000 0.225000 1 54 1.000000
  79 0.756771 0.572106 -9.588551 0.995589 0.025386 -0.090318 0.180000 0.140000 1 79 1.000000
v_shot
  77 0.380842 0.572106 -10.690573 0.662822 -0.556820 -0.500617 0.175000 0.095000 1 77 1.000000
  79 0.756771 0.572106 -9.588551 0.995589 0.025386 -0.090318 0.180000 0.140000 1 79 1.000000
  52 0.963240 -1.191126 -9.808954 0.804027 -0.063773 -0.591163 0.255000 0.130000 1 52 1.000000
v_shot
  79 0.756771 0.572106 -9.588551 0.995589 0.025386 -0.090318 0.180000 0.140000 1 79 1.000000
  77 0.380842 0.572106 -10.690573 0.662822 -0.556820 -0.500617 0.175000 0.095000 1 77 1.000000
  81 0.937994 2.335342 -10.690570 0.990691 0.014348 0.135369 0.100000 0.105000 1 81 1.000000
v_shot
  77 0.380842 0.572106 -10.690573 0.662822 -0.556820 -0.500617 0.175000 0.095000 1 77 1.000000
  75 0.396025 0.792513 -12.012999 0.696365 -0.701845 0.149968 0.160000 0.040000 1 75 1.000000
  81 0.937994 2.335342 -10.690570 0.990691 0.014348 0.135369 0.100000 0.105000 1 81 1.000000
v_shot
  75 0.396025 0.792513 -12.012999 0.696365 -0.701845 0.149968 0.160000 0.040000 1 75 1.000000
  73 0.963241 1.894533 -12.894613 0.714029 0.004160 -0.700103 0.105000 0.010000 1 73 1.000000
  81 0.937994 2.335342 -10.690570 0.990691 0.014348 0.135369 0.100000 0.105000 1 81 1.000000
v_shot
  74 -0.425459 0.792513 -12.015006 -0.696974 -0.701138 0.150443 0.160000 0.555000 1 74 1.000000
  72 -0.992674 1.894533 -12.896621 -0.713318 0.004112 -0.700829 0.105000 0.585000 1 72 1.000000
  82 -0.014717 -0.089101 -12.675214 -0.000012 -0.968089 -0.250607 0.195000 0.585000 1 82 1.000000
v_shot
  73 0.963241 1.894533 -12.894613 0.714029 0.004160 -0.700103 0.105000 0.010000 1 73 1.000000
  71 0.847820 3.437366 -12.012999 0.659818 0.543197 -0.519208 0.045000 0.055000 1 71 1.000000
  81 0.937994 2.335342 -10.690570 0.990691 0.014348 0.135369 0.100000 0.105000 1 81 1.000000
v_shot
  81 0.937994 2.335342 -10.690570 0.990691 0.014348 0.135369 0.100000 0.105000 1 81 1.000000
  69 0.572058 4.318980 -10.910979 0.605214 0.787142 -0.118844 0.015000 0.105000 1 69 1.000000
  66 0.528277 2.555746 -9.808956 0.627906 0.240644 0.740152 0.095000 0.145000 1 66 1.000000
v_shot
  65 -0.557710 2.555746 -9.810963 -0.647580 0.202291 0.734655 0.095000 0.455000 1 65 1.000000
  68 -0.601491 4.318980 -10.912983 -0.604799 0.787356 -0.119540 0.015000 0.490000 1 68 1.000000
  80 -0.967428 2.335342 -10.692580 -0.988074 0.005010 0.153898 0.100000 0.495000 1 80 1.000000
v_shot
  67 -0.014716 4.318980 -9.369152 -0.000269 0.599373 0.800470 0.020000 0.175000 1 67 1.000000
  66 0.528277 2.555746 -9.808956 0.627906 0.240644 0.740152 0.095000 0.145000 1 66 1.000000
  69 0.572058 4.318980 -10.910979 0.605214 0.787142 -0.118844 0.015000 0.105000 1 69 1.000000
v_shot
  79 0.756771 0.572106 -9.588551 0.995589 0.025386 -0.090318 0.180000 0.140000 1 79 1.000000
  81 0.937994 2.335342 -10.690570 0.990691 0.014348 0.135369 0.100000 0.105000 1 81 1.000000
  64 0.669853 1.233321 -9.147741 0.767800 0.517961 0.377093 0.150000 0.165000 1 64 1.000000
v_shot
  64 0.669853 1.233321 -9.147741 0.767800 0.517961 0.377093 0.150000 0.165000 1 64 1.000000
  81 0.937994 2.335342 -10.690570 0.990691 0.014348 0.135369 0.100000 0.105000 1 81 1.000000
  66 0.528277 2.555746 -9.808956 0.627906 0.240644 0.740152 0.095000 0.145000 1 66 1.000000
v_shot
  92 -0.308104 -1.191126 -9.810963 -0.759998 -0.540771 0.360513 0.280000 0.520000 1 92 1.000000
  94 -0.308104 -2.072742 -11.133386 -0.538203 -0.585375 -0.606361 0.240000 0.520000 1 94 1.000000
  95 0.278671 -2.072742 -11.131379 0.539984 -0.586380 -0.603801 0.240000 0.535000 1 95 1.000000
v_shot
  95 0.278671 -2.072742 -11.131379 0.539984 -0.586380 -0.603801 0.240000 0.535000 1 95 1.000000
  94 -0.308104 -2.072742 -11.133386 -0.538203 -0.585375 -0.606361 0.240000 0.520000 1 94 1.000000
  96 -0.308104 -0.529912 -10.031366 -0.512091 0.499243 -0.698941 0.195000 0.520000 1 96 1.000000
v_shot
  94 -0.308104 -2.072742 -11.133386 -0.538203 -0.585375 -0.606361 0.240000 0.520000 1 94 1.000000
  92 -0.308104 -1.191126 -9.810963 -0.759998 -0.540771 0.360513 0.280000 0.520000 1 92 1.000000
  96 -0.308104 -0.529912 -10.031366 -0.512091 0.499243 -0.698941 0.285000 0.505000 1 96 1.000000
v_shot
  95 0.278671 -2.072742 -11.131379 0.539984 -0.586380 -0.603801 0.240000 0.535000 1 95 1.000000
  97 0.278671 -0.529912 -10.029360 0.516540 0.497692 -0.696770 0.285000 0.550000 1 97 1.000000
  93 0.278671 -1.191126 -9.808954 0.760102 -0.540670 0.360446 0.280000 0.535000 1 93 1.000000
v_shot
  102 0.221326 -20.527119 -6.145942 0.453545 -0.598830 0.660076 0.955000 0.410000 1 102 1.000000
  103 0.221326 -12.396096 -6.144708 0.525067 0.114297 0.843351 0.955000 0.750000 1 103 1.000000
  105 -0.254282 -12.396096 -6.146316 -0.529970 0.114187 0.840293 0.970000 0.750000 1 105 1.000000
v_shot
  5 0.579804 -20.848021 -6.775620 0.375855 -0.607765 0.699539 0.015000 0.775000 1 5 1.000000
  4 0.579804 -9.241121 -6.774078 0.379475 0.613007 0.692980 0.495000 0.775000 1 4 1.000000
  42 -0.609215 -9.241121 -6.776086 -0.379803 0.613395 0.692457 0.495000 0.730000 1 42 1.000000
v_shot
  98 0.460902 -20.526964 -6.775664 0.740706 -0.609944 0.281644 0.925000 0.410000 1 98 1.000000
  99 0.460903 -10.611719 -6.774435 0.209189 0.300337 0.930611 0.925000 0.820000 1 99 1.000000
  103 0.221326 -12.396096 -6.144708 0.525067 0.114297 0.843351 0.955000 0.750000 1 103 1.000000
v_shot
  98 0.460902 -20.526964 -6.775664 0.740706 -0.609944 0.281644 0.945000 0.385000 1 98 1.000000
  102 0.221326 -20.527119 -6.145942 0.453545 -0.598830 0.660076 0.955000 0.410000 1 102 1.000000
  104 -0.254282 -20.527119 -6.147545 -0.457344 -0.598944 0.657345 0.970000 0.410000 1 104 1.000000
v_shot
  100 -0.490314 -20.526964 -6.777272 -0.741749 -0.610410 0.277865 0.895000 0.550000 1 100 1.000000
  104 -0.254282 -20.527119 -6.147545 -0.457344 -0.598944 0.657345 0.865000 0.550000 1 104 1.000000
  105 -0.254282 -12.396096 -6.146316 -0.529970 0.114187 0.840293 0.865000 0.885000 1 105 1.000000
v_shot
  101 -0.490313 -10.611719 -6.776040 -0.212341 0.300397 0.929878 0.980000 0.825000 1 101 1.000000
  105 -0.254282 -12.396096 -6.146316 -0.529970 0.114187 0.840293 0.970000 0.750000 1 105 1.000000
  103 0.221326 -12.396096 -6.144708 0.525067 0.114297 0.843351 0.955000 0.750000 1 103 1.000000
v_shot
  86 -0.569707 -9.313818 -7.092464 -0.613542 0.000000 0.789662 0.705000 0.805000 1 86 1.000000
  2 0.544304 -4.970090 -7.092464 0.616775 -0.000000 0.787140 0.530000 0.760000 1 2 1.000000
  85 -0.569707 -4.970090 -7.092464 -0.616762 0.000000 0.787149 0.530000 0.805000 1 85 1.000000
v_shot
  1 -0.891901 -9.299711 -8.384033 -0.999174 -0.001016 -0.040632 0.705000 0.860000 1 1 1.000000
  85 -0.569707 -4.970090 -7.092464 -0.616762 0.000000 0.787149 0.530000 0.805000 1 85 1.000000
  84 -0.891901 -4.962158 -8.384033 -0.999245 0.000000 -0.038859 0.530000 0.860000 1 84 1.000000
v_shot
  1 -0.891901 -9.299711 -8.384033 -0.999174 -0.001016 -0.040632 0.705000 0.860000 1 1 1.000000
  16 -0.487838 -4.966566 -9.596256 -0.585366 -0.000270 -0.810769 0.530000 0.910000 1 16 1.000000
  14 -0.476873 -9.295301 -9.596256 -0.581427 -0.001473 -0.813597 0.705000 0.910000 1 14 1.000000
v_shot
  83 0.866498 -9.299711 -8.384033 0.999174 -0.001028 -0.040623 0.705000 0.705000 1 83 1.000000
  2 0.544304 -4.970090 -7.092464 0.616775 -0.000000 0.787140 0.530000 0.760000 1 2 1.000000
  0 0.544304 -9.313818 -7.092464 0.613529 -0.000000 0.789672 0.705000 0.760000 1 0 1.000000
v_shot
  6 0.995293 -9.241121 -7.426493 0.729768 0.649444 0.213686 0.495000 0.810000 1 6 1.000000
  5 0.579804 -20.848021 -6.775620 0.375855 -0.607765 0.699539 0.015000 0.775000 1 5 1.000000
  7 0.995292 -20.870056 -7.426493 0.721006 -0.656473 0.221795 0.015000 0.810000 1 7 1.000000
v_shot
  12 1.001434 -9.241121 -9.808954 0.578404 0.577293 -0.576352 0.495000 0.905000 1 12 1.000000
  8 -1.032718 -20.870056 -9.810963 -0.578174 -0.578250 -0.575623 0.015000 0.990000 1 8 1.000000
  9 -1.032717 -9.241121 -9.810963 -0.577906 0.577164 -0.576981 0.495000 0.990000 1 9 1.000000
v_shot
  41 -1.026548 -9.241121 -7.428503 -0.729686 0.649278 0.214465 0.495000 0.695000 1 41 1.000000
  11 -0.609216 -20.848021 -6.777628 -0.377632 -0.610065 0.696573 0.015000 0.730000 1 11 1.000000
  42 -0.609215 -9.241121 -6.776086 -0.379803 0.613395 0.692457 0.495000 0.730000 1 42 1.000000
v_shot
  12 1.001434 -9.241121 -9.808954 0.578404 0.577293 -0.576352 0.495000 0.905000 1 12 1.000000
  7 0.995292 -20.870056 -7.426493 0.721006 -0.656473 0.221795 0.015000 0.810000 1 7 1.000000
  13 1.001433 -20.870056 -9.808954 0.578420 -0.577267 -0.576362 0.015000 0.905000 1 13 1.000000
v_shot
  8 -1.032718 -20.870056 -9.810963 -0.578174 -0.578250 -0.575623 0.015000 0.595000 1 8 1.000000
  41 -1.026548 -9.241121 -7.428503 -0.729686 0.649278 0.214465 0.495000 0.695000 1 41 1.000000
  9 -1.032717 -9.241121 -9.810963 -0.577906 0.577164 -0.576981 0.495000 0.595000 1 9 1.000000
v_shot
  15 0.462559 -4.966566 -9.596256 0.585395 -0.000273 -0.810748 0.530000 0.650000 1 15 1.000000
  83 0.866498 -9.299711 -8.384033 0.999174 -0.001028 -0.040623 0.705000 0.705000 1 83 1.000000
  87 0.451469 -9.295301 -9.596256 0.581428 -0.001489 -0.813597 0.705000 0.650000 1 87 1.000000
v_shot
  89 0.429835 -20.724022 -9.394249 0.499997 0.000000 -0.866027 0.815000 0.850000 1 89 1.000000
  33 0.870644 -22.266850 -8.630745 0.792404 -0.609997 0.000004 0.750000 0.810000 1 33 1.000000
  34 0.429835 -22.266850 -9.394249 0.396206 -0.609997 -0.686239 0.750000 0.850000 1 34 1.000000
v_shot
  90 -0.451781 -20.724022 -9.394249 -0.500004 0.000000 -0.866023 0.815000 0.885000 1 90 1.000000
  34 0.429835 -22.266850 -9.394249 0.396206 -0.609997 -0.686239 0.750000 0.850000 1 34 1.000000
  35 -0.451781 -22.266853 -9.394249 -0.396200 -0.609997 -0.686243 0.750000 0.885000 1 35 1.000000
v_shot
  36 -0.892589 -20.724022 -8.630745 -1.000000 -0.000000 0.000001 0.815000 0.705000 1 36 1.000000
  35 -0.451781 -22.266853 -9.394249 -0.396200 -0.609997 -0.686243 0.750000 0.665000 1 35 1.000000
  37 -0.892589 -22.266853 -8.630745 -0.792410 -0.609989 0.000002 0.750000 0.705000 1 37 1.000000
v_shot
  36 -0.892589 -20.724022 -8.630745 -1.000000 -0.000000 0.000001 0.815000 0.705000 1 36 1.000000
  38 -0.451781 -22.266850 -7.867245 -0.396201 -0.609998 0.686242 0.750000 0.740000 1 38 1.000000
  91 -0.451781 -20.724022 -7.867245 -0.500000 0.000000 0.866026 0.815000 0.740000 1 91 1.000000
v_shot
  33 0.870644 -22.266850 -8.630745 0.792404 -0.609997 0.000004 0.460000 0.070000 1 33 1.000000
  35 -0.451781 -22.266853 -9.394249 -0.396200 -0.609997 -0.686243 0.525000 0.070000 1 35 1.000000
  34 0.429835 -22.266850 -9.394249 0.396206 -0.609997 -0.686239 0.495000 0.055000 1 34 1.000000
v_shot
  35 -0.451781 -22.266853 -9.394249 -0.396200 -0.609997 -0.686243 0.525000 0.070000 1 35 1.000000
  33 0.870644 -22.266850 -8.630745 0.792404 -0.609997 0.000004 0.460000 0.070000 1 33 1.000000
  37 -0.892589 -22.266853 -8.630745 -0.792410 -0.609989 0.000002 0.525000 0.110000 1 37 1.000000
v_shot
  37 -0.892589 -22.266853 -8.630745 -0.792410 -0.609989 0.000002 0.525000 0.110000 1 37 1.000000
  33 0.870644 -22.266850 -8.630745 0.792404 -0.609997 0.000004 0.460000 0.070000 1 33 1.000000
  38 -0.451781 -22.266850 -7.867245 -0.396201 -0.609998 0.686242 0.495000 0.125000 1 38 1.000000
v_shot
  39 0.429835 -20.724022 -7.867245 0.500003 0.000000 0.866024 0.815000 0.775000 1 39 1.000000
  38 -0.451781 -22.266850 -7.867245 -0.396201 -0.609998 0.686242 0.750000 0.740000 1 38 1.000000
  40 0.429835 -22.266850 -7.867245 0.396198 -0.610000 0.686242 0.750000 0.775000 1 40 1.000000
v_shot
  88 0.870643 -20.724022 -8.630745 1.000000 0.000000 -0.000002 0.815000 0.810000 1 88 1.000000
  40 0.429835 -22.266850 -7.867245 0.396198 -0.610000 0.686242 0.750000 0.775000 1 40 1.000000
  33 0.870644 -22.266850 -8.630745 0.792404 -0.609997 0.000004 0.750000 0.810000 1 33 1.000000
v_shot
  51 -0.992674 -1.191126 -9.810963 -0.803479 -0.063979 -0.591885 0.490000 0.490000 1 51 1.000000
  52 0.963240 -1.191126 -9.808954 0.804027 -0.063773 -0.591163 0.490000 0.570000 1 52 1.000000
  50 0.671157 -5.053445 -9.808954 0.503976 -0.603718 -0.617684 0.650000 0.560000 1 50 1.000000
v_shot
  55 -0.763103 0.572106 -7.166115 -0.506946 0.408463 0.759054 0.130000 0.190000 1 55 1.000000
  56 0.733670 0.572106 -7.164109 0.505527 0.408850 0.759792 0.065000 0.190000 1 56 1.000000
  54 0.739314 1.012916 -7.646896 0.632325 0.702881 0.325767 0.065000 0.220000 1 54 1.000000
v_shot
  57 -0.637387 -1.411530 -6.725307 -0.758012 0.107899 0.643254 0.460000 0.145000 1 57 1.000000
  58 0.607954 -1.411530 -6.723297 0.758417 0.111010 0.642247 0.460000 0.195000 1 58 1.000000
  56 0.733670 0.572106 -7.164109 0.505527 0.408850 0.759792 0.545000 0.200000 1 56 1.000000
v_shot
  56 0.733670 0.572106 -7.164109 0.505527 0.408850 0.759792 0.175000 0.265000 1 56 1.000000
  59 -0.405900 -0.309506 -6.702936 -0.335317 0.305439 0.891218 0.220000 0.315000 1 59 1.000000
  60 0.376466 -0.309506 -6.700927 0.333066 0.305894 0.891906 0.220000 0.280000 1 60 1.000000
v_shot
  60 0.376466 -0.309506 -6.700927 0.333066 0.305894 0.891906 0.220000 0.280000 1 60 1.000000
  61 -0.360645 -1.698054 -6.213387 -0.484153 0.130986 0.865123 0.280000 0.310000 1 61 1.000000
  62 0.331211 -1.698054 -6.211383 0.474568 0.138756 0.869214 0.280000 0.285000 1 62 1.000000
v_shot
  64 0.669853 1.233321 -9.147741 0.767800 0.517961 0.377093 0.070000 0.280000 1 64 1.000000
  63 -0.699287 1.233321 -9.149750 -0.786143 0.540550 0.299641 0.125000 0.280000 1 63 1.000000
  53 -0.768748 1.012916 -7.648906 -0.632743 0.702710 0.325324 0.130000 0.220000 1 53 1.000000
v_shot
  66 0.528277 2.555746 -9.808956 0.627906 0.240644 0.740152 0.075000 0.340000 1 66 1.000000
  65 -0.557710 2.555746 -9.810963 -0.647580 0.202291 0.734655 0.120000 0.340000 1 65 1.000000
  63 -0.699287 1.233321 -9.149750 -0.786143 0.540550 0.299641 0.125000 0.280000 1 63 1.000000
v_shot
  71 0.847820 3.437366 -12.012999 0.659818 0.543197 -0.519208 0.330000 0.010000 1 71 1.000000
  70 -0.877253 3.437366 -12.015006 -0.659161 0.543474 -0.519753 0.330000 0.085000 1 70 1.000000
  68 -0.601491 4.318980 -10.912983 -0.604799 0.787356 -0.119540 0.390000 0.070000 1 68 1.000000
v_shot
  73 0.963241 1.894533 -12.894613 0.714029 0.004160 -0.700103 0.255000 0.005000 1 73 1.000000
  72 -0.992674 1.894533 -12.896621 -0.713318 0.004112 -0.700829 0.255000 0.085000 1 72 1.000000
  70 -0.877253 3.437366 -12.015006 -0.659161 0.543474 -0.519753 0.330000 0.085000 1 70 1.000000
v_shot
  75 0.396025 0.792513 -12.012999 0.696365 -0.701845 0.149968 0.350000 0.545000 1 75 1.000000
  77 0.380842 0.572106 -10.690573 0.662822 -0.556820 -0.500617 0.410000 0.545000 1 77 1.000000
  76 -0.410275 0.572106 -10.692580 -0.661739 -0.558053 -0.500678 0.410000 0.515000 1 76 1.000000
v_shot
  77 0.380842 0.572106 -10.690573 0.662822 -0.556820 -0.500617 0.410000 0.545000 1 77 1.000000
  51 -0.992674 -1.191126 -9.810963 -0.803479 -0.063979 -0.591885 0.490000 0.490000 1 51 1.000000
  76 -0.410275 0.572106 -10.692580 -0.661739 -0.558053 -0.500678 0.410000 0.515000 1 76 1.000000
v_shot
  92 -0.308104 -1.191126 -9.810963 -0.759998 -0.540771 0.360513 0.280000 0.520000 1 92 1.000000
  95 0.278671 -2.072742 -11.131379 0.539984 -0.586380 -0.603801 0.240000 0.535000 1 95 1.000000
  93 0.278671 -1.191126 -9.808954 0.760102 -0.540670 0.360446 0.280000 0.535000 1 93 1.000000
v_shot
  95 0.278671 -2.072742 -11.131379 0.539984 -0.586380 -0.603801 0.240000 0.535000 1 95 1.000000
  96 -0.308104 -0.529912 -10.031366 -0.512091 0.499243 -0.698941 0.195000 0.520000 1 96 1.000000
  97 0.278671 -0.529912 -10.029360 0.516540 0.497692 -0.696770 0.195000 0.535000 1 97 1.000000
v_shot
  102 0.221326 -20.527119 -6.145942 0.453545 -0.598830 0.660076 0.955000 0.410000 1 102 1.000000
  105 -0.254282 -12.396096 -6.146316 -0.529970 0.114187 0.840293 0.970000 0.750000 1 105 1.000000
  104 -0.254282 -20.527119 -6.147545 -0.457344 -0.598944 0.657345 0.970000 0.410000 1 104 1.000000
v_shot
  5 0.579804 -20.848021 -6.775620 0.375855 -0.607765 0.699539 0.015000 0.775000 1 5 1.000000
  42 -0.609215 -9.241121 -6.776086 -0.379803 0.613395 0.692457 0.495000 0.730000 1 42 1.000000
  11 -0.609216 -20.848021 -6.777628 -0.377632 -0.610065 0.696573 0.015000 0.730000 1 11 1.000000
v_shot
  98 0.460902 -20.526964 -6.775664 0.740706 -0.609944 0.281644 0.925000 0.410000 1 98 1.000000
  103 0.221326 -12.396096 -6.144708 0.525067 0.114297 0.843351 0.955000 0.750000 1 103 1.000000
  102 0.221326 -20.527119 -6.145942 0.453545 -0.598830 0.660076 0.955000 0.410000 1 102 1.000000
v_shot
  98 0.460902 -20.526964 -6.775664 0.740706 -0.609944 0.281644 0.945000 0.385000 1 98 1.000000
  104 -0.254282 -20.527119 -6.147545 -0.457344 -0.598944 0.657345 0.970000 0.410000 1 104 1.000000
  100 -0.490314 -20.526964 -6.777272 -0.741749 -0.610410 0.277865 0.980000 0.385000 1 100 1.000000
v_shot
  100 -0.490314 -20.526964 -6.777272 -0.741749 -0.610410 0.277865 0.895000 0.550000 1 100 1.000000
  105 -0.254282 -12.396096 -6.146316 -0.529970 0.114187 0.840293 0.865000 0.885000 1 105 1.000000
  101 -0.490313 -10.611719 -6.776040 -0.212341 0.300397 0.929878 0.895000 0.960000 1 101 1.000000
v_shot
  101 -0.490313 -10.611719 -6.776040 -0.212341 0.300397 0.929878 0.980000 0.825000 1 101 1.000000
  103 0.221326 -12.396096 -6.144708 0.525067 0.114297 0.843351 0.955000 0.750000 1 103 1.000000
  99 0.460903 -10.611719 -6.774435 0.209189 0.300337 0.930611 0.945000 0.825000 1 99 1.000000
v_shot
  106 1.083630 -27.130615 -8.644239 0.999969 0.007927 0.000001 0.165000 0.885000 1 106 1.000000
  109 0.412212 -33.171383 -9.071898 0.530826 -0.660647 -0.530819 0.355000 0.895000 1 109 1.000000
  108 0.761719 -27.130615 -9.421405 0.707085 0.007928 -0.707084 0.165000 0.865000 1 108 1.000000
v_shot
  109 0.412212 -33.171383 -9.071898 0.530826 -0.660647 -0.530819 0.355000 0.895000 1 109 1.000000
  110 -0.015447 -27.130615 -9.743318 0.000000 0.007928 -0.999969 0.155000 0.845000 1 110 1.000000
  108 0.761719 -27.130615 -9.421405 0.707085 0.007928 -0.707084 0.165000 0.865000 1 108 1.000000
v_shot
  110 -0.015447 -27.130615 -9.743318 0.000000 0.007928 -0.999969 0.155000 0.995000 1 110 1.000000
  113 -0.443106 -33.171383 -9.071898 -0.530823 -0.660648 -0.530820 0.355000 0.945000 1 113 1.000000
  112 -0.792613 -27.130615 -9.421405 -0.707085 0.007928 -0.707084 0.165000 0.975000 1 112 1.000000
v_shot
  113 -0.443106 -33.171383 -9.071898 -0.530823 -0.660648 -0.530820 0.355000 0.945000 1 113 1.000000
  114 -1.114525 -27.130615 -8.644239 -0.999969 0.007927 0.000000 0.165000 0.955000 1 114 1.000000
  112 -0.792613 -27.130615 -9.421405 -0.707085 0.007928 -0.707084 0.165000 0.975000 1 112 1.000000
v_shot
  115 -0.620247 -33.171383 -8.644239 -0.750693 -0.660652 0.000004 0.355000 0.935000 1 115 1.000000
  116 -0.792613 -27.130615 -7.867074 -0.707085 0.007928 0.707084 0.165000 0.935000 1 116 1.000000
  114 -1.114525 -27.130615 -8.644239 -0.999969 0.007927 0.000000 0.165000 0.955000 1 114 1.000000
v_shot
  117 -0.443106 -33.171383 -8.216581 -0.530811 -0.660657 0.530823 0.355000 0.925000 1 117 1.000000
  118 -0.015447 -27.130615 -7.545163 -0.000001 0.007928 0.999969 0.165000 0.920000 1 118 1.000000
  116 -0.792613 -27.130615 -7.867074 -0.707085 0.007928 0.707084 0.165000 0.935000 1 116 1.000000
v_shot
  119 -0.015447 -33.171383 -8.039439 0.000004 -0.660664 0.750682 0.246250 0.668750 1 119 1.000000
  115 -0.620247 -33.171383 -8.644239 -0.750693 -0.660652 0.000004 0.266250 0.623750 1 115 1.000000
  111 -0.015447 -33.171383 -9.249039 0.000001 -0.660669 -0.750677 0.221250 0.603750 1 111 1.000000
v_shot
  119 -0.015447 -33.171383 -8.039439 0.000004 -0.660664 0.750682 0.355000 0.915000 1 119 1.000000
  120 0.761719 -27.130615 -7.867074 0.707084 0.007928 0.707085 0.165000 0.905000 1 120 1.000000
  118 -0.015447 -27.130615 -7.545163 -0.000001 0.007928 0.999969 0.165000 0.920000 1 118 1.000000
v_shot
  120 0.761719 -27.130615 -7.867074 0.707084 0.007928 0.707085 0.165000 0.905000 1 120 1.000000
  107 0.589353 -33.171383 -8.644239 0.750693 -0.660652 0.000004 0.355000 0.905000 1 107 1.000000
  106 1.083630 -27.130615 -8.644239 0.999969 0.007927 0.000001 0.165000 0.885000 1 106 1.000000
v_shot
  114 -1.114525 -27.130615 -8.644239 -0.999969 0.007927 0.000000 0.165000 0.955000 1 114 1.000000
  125 -0.454742 -22.262539 -9.083535 -0.703725 0.097685 -0.703725 0.065000 0.950000 1 125 1.000000
  112 -0.792613 -27.130615 -9.421405 -0.707085 0.007928 -0.707084 0.165000 0.975000 1 112 1.000000
v_shot
  106 1.083630 -27.130615 -8.644239 0.999969 0.007927 0.000001 0.165000 0.885000 1 106 1.000000
  107 0.589353 -33.171383 -8.644239 0.750693 -0.660652 0.000004 0.355000 0.905000 1 107 1.000000
  109 0.412212 -33.171383 -9.071898 0.530826 -0.660647 -0.530819 0.355000 0.895000 1 109 1.000000
v_shot
  118 -0.015447 -27.130615 -7.545163 -0.000001 0.007928 0.999969 0.165000 0.920000 1 118 1.000000
  129 0.423848 -22.262539 -8.204945 0.703725 0.097685 0.703725 0.065000 0.910000 1 129 1.000000
  128 -0.015447 -22.262539 -8.022984 -0.000004 0.097685 0.995217 0.065000 0.920000 1 128 1.000000
v_shot
  110 -0.015447 -27.130615 -9.743318 0.000000 0.007928 -0.999969 0.155000 0.845000 1 110 1.000000
  123 0.423848 -22.262539 -9.083535 0.703725 0.097685 -0.703725 0.065000 0.890000 1 123 1.000000
  108 0.761719 -27.130615 -9.421405 0.707085 0.007928 -0.707084 0.165000 0.865000 1 108 1.000000
v_shot
  114 -1.114525 -27.130615 -8.644239 -0.999969 0.007927 0.000000 0.165000 0.955000 1 114 1.000000
  127 -0.454742 -22.262539 -8.204945 -0.703728 0.097685 0.703722 0.065000 0.930000 1 127 1.000000
  126 -0.636703 -22.262539 -8.644239 -0.995217 0.097685 0.000000 0.065000 0.940000 1 126 1.000000
v_shot
  106 1.083630 -27.130615 -8.644239 0.999969 0.007927 0.000001 0.165000 0.885000 1 106 1.000000
  129 0.423848 -22.262539 -8.204945 0.703725 0.097685 0.703725 0.065000 0.910000 1 129 1.000000
  120 0.761719 -27.130615 -7.867074 0.707084 0.007928 0.707085 0.165000 0.905000 1 120 1.000000
v_shot
  106 1.083630 -27.130615 -8.644239 0.999969 0.007927 0.000001 0.165000 0.885000 1 106 1.000000
  123 0.423848 -22.262539 -9.083535 0.703725 0.097685 -0.703725 0.065000 0.890000 1 123 1.000000
  122 0.605809 -22.262539 -8.644239 0.995217 0.097685 0.000000 0.065000 0.900000 1 122 1.000000
v_shot
  110 -0.015447 -27.130615 -9.743318 0.000000 0.007928 -0.999969 0.155000 0.995000 1 110 1.000000
  125 -0.454742 -22.262539 -9.083535 -0.703725 0.097685 -0.703725 0.065000 0.950000 1 125 1.000000
  124 -0.015447 -22.262539 -9.265495 0.000000 0.097685 -0.995217 0.065000 0.960000 1 124 1.000000
v_shot
  116 -0.792613 -27.130615 -7.867074 -0.707085 0.007928 0.707084 0.165000 0.935000 1 116 1.000000
  128 -0.015447 -22.262539 -8.022984 -0.000004 0.097685 0.995217 0.065000 0.920000 1 128 1.000000
  127 -0.454742 -22.262539 -8.204945 -0.703728 0.097685 0.703722 0.065000 0.930000 1 127 1.000000
v_shot
  109 0.412212 -33.171383 -9.071898 0.530826 -0.660647 -0.530819 0.355000 0.895000 1 109 1.000000
  111 -0.015447 -33.171383 -9.249039 0.000001 -0.660669 -0.750677 0.355000 0.890000 1 111 1.000000
  110 -0.015447 -27.130615 -9.743318 0.000000 0.007928 -0.999969 0.155000 0.845000 1 110 1.000000
v_shot
  110 -0.015447 -27.130615 -9.743318 0.000000 0.007928 -0.999969 0.155000 0.995000 1 110 1.000000
  111 -0.015447 -33.171383 -9.249039 0.000001 -0.660669 -0.750677 0.355000 0.955000 1 111 1.000000
  113 -0.443106 -33.171383 -9.071898 -0.530823 -0.660648 -0.530820 0.355000 0.945000 1 113 1.000000
v_shot
  113 -0.443106 -33.171383 -9.071898 -0.530823 -0.660648 -0.530820 0.355000 0.945000 1 113 1.000000
  115 -0.620247 -33.171383 -8.644239 -0.750693 -0.660652 0.000004 0.355000 0.935000 1 115 1.000000
  114 -1.114525 -27.130615 -8.644239 -0.999969 0.007927 0.000000 0.165000 0.955000 1 114 1.000000
v_shot
  115 -0.620247 -33.171383 -8.644239 -0.750693 -0.660652 0.000004 0.355000 0.935000 1 115 1.000000
  117 -0.443106 -33.171383 -8.216581 -0.530811 -0.660657 0.530823 0.355000 0.925000 1 117 1.000000
  116 -0.792613 -27.130615 -7.867074 -0.707085 0.007928 0.707084 0.165000 0.935000 1 116 1.000000
v_shot
  117 -0.443106 -33.171383 -8.216581 -0.530811 -0.660657 0.530823 0.355000 0.925000 1 117 1.000000
  119 -0.015447 -33.171383 -8.039439 0.000004 -0.660664 0.750682 0.355000 0.915000 1 119 1.000000
  118 -0.015447 -27.130615 -7.545163 -0.000001 0.007928 0.999969 0.165000 0.920000 1 118 1.000000
v_shot
  111 -0.015447 -33.171383 -9.249039 0.000001 -0.660669 -0.750677 0.221250 0.603750 1 111 1.000000
  109 0.412212 -33.171383 -9.071898 0.530826 -0.660647 -0.530819 0.206250 0.623750 1 109 1.000000
  107 0.589353 -33.171383 -8.644239 0.750693 -0.660652 0.000004 0.206250 0.648750 1 107 1.000000
v_shot
  107 0.589353 -33.171383 -8.644239 0.750693 -0.660652 0.000004 0.206250 0.648750 1 107 1.000000
  121 0.412212 -33.171383 -8.216581 0.530811 -0.660661 0.530817 0.221250 0.668750 1 121 1.000000
  119 -0.015447 -33.171383 -8.039439 0.000004 -0.660664 0.750682 0.246250 0.668750 1 119 1.000000
v_shot
  119 -0.015447 -33.171383 -8.039439 0.000004 -0.660664 0.750682 0.246250 0.668750 1 119 1.000000
  117 -0.443106 -33.171383 -8.216581 -0.530811 -0.660657 0.530823 0.266250 0.648750 1 117 1.000000
  115 -0.620247 -33.171383 -8.644239 -0.750693 -0.660652 0.000004 0.266250 0.623750 1 115 1.000000
v_shot
  115 -0.620247 -33.171383 -8.644239 -0.750693 -0.660652 0.000004 0.266250 0.623750 1 115 1.000000
  113 -0.443106 -33.171383 -9.071898 -0.530823 -0.660648 -0.530820 0.246250 0.603750 1 113 1.000000
  111 -0.015447 -33.171383 -9.249039 0.000001 -0.660669 -0.750677 0.221250 0.603750 1 111 1.000000
v_shot
  111 -0.015447 -33.171383 -9.249039 0.000001 -0.660669 -0.750677 0.221250 0.603750 1 111 1.000000
  107 0.589353 -33.171383 -8.644239 0.750693 -0.660652 0.000004 0.206250 0.648750 1 107 1.000000
  119 -0.015447 -33.171383 -8.039439 0.000004 -0.660664 0.750682 0.246250 0.668750 1 119 1.000000
v_shot
  119 -0.015447 -33.171383 -8.039439 0.000004 -0.660664 0.750682 0.355000 0.915000 1 119 1.000000
  121 0.412212 -33.171383 -8.216581 0.530811 -0.660661 0.530817 0.355000 0.910000 1 121 1.000000
  120 0.761719 -27.130615 -7.867074 0.707084 0.007928 0.707085 0.165000 0.905000 1 120 1.000000
v_shot
  120 0.761719 -27.130615 -7.867074 0.707084 0.007928 0.707085 0.165000 0.905000 1 120 1.000000
  121 0.412212 -33.171383 -8.216581 0.530811 -0.660661 0.530817 0.355000 0.910000 1 121 1.000000
  107 0.589353 -33.171383 -8.644239 0.750693 -0.660652 0.000004 0.355000 0.905000 1 107 1.000000
v_shot
  114 -1.114525 -27.130615 -8.644239 -0.999969 0.007927 0.000000 0.165000 0.955000 1 114 1.000000
  126 -0.636703 -22.262539 -8.644239 -0.995217 0.097685 0.000000 0.065000 0.940000 1 126 1.000000
  125 -0.454742 -22.262539 -9.083535 -0.703725 0.097685 -0.703725 0.065000 0.950000 1 125 1.000000
v_shot
  118 -0.015447 -27.130615 -7.545163 -0.000001 0.007928 0.999969 0.165000 0.920000 1 118 1.000000
  120 0.761719 -27.130615 -7.867074 0.707084 0.007928 0.707085 0.165000 0.905000 1 120 1.000000
  129 0.423848 -22.262539 -8.204945 0.703725 0.097685 0.703725 0.065000 0.910000 1 129 1.000000
v_shot
  110 -0.015447 -27.130615 -9.743318 0.000000 0.007928 -0.999969 0.155000 0.845000 1 110 1.000000
  124 -0.015447 -22.262539 -9.265495 0.000000 0.097685 -0.995217 0.065000 0.880000 1 124 1.000000
  123 0.423848 -22.262539 -9.083535 0.703725 0.097685 -0.703725 0.065000 0.890000 1 123 1.000000
v_shot
  114 -1.114525 -27.130615 -8.644239 -0.999969 0.007927 0.000000 0.165000 0.955000 1 114 1.000000
  116 -0.792613 -27.130615 -7.867074 -0.707085 0.007928 0.707084 0.165000 0.935000 1 116 1.000000
  127 -0.454742 -22.262539 -8.204945 -0.703728 0.097685 0.703722 0.065000 0.930000 1 127 1.000000
v_shot
  106 1.083630 -27.130615 -8.644239 0.999969 0.007927 0.000001 0.165000 0.885000 1 106 1.000000
  122 0.605809 -22.262539 -8.644239 0.995217 0.097685 0.000000 0.065000 0.900000 1 122 1.000000
  129 0.423848 -22.262539 -8.204945 0.703725 0.097685 0.703725 0.065000 0.910000 1 129 1.000000
v_shot
  106 1.083630 -27.130615 -8.644239 0.999969 0.007927 0.000001 0.165000 0.885000 1 106 1.000000
  108 0.761719 -27.130615 -9.421405 0.707085 0.007928 -0.707084 0.165000 0.865000 1 108 1.000000
  123 0.423848 -22.262539 -9.083535 0.703725 0.097685 -0.703725 0.065000 0.890000 1 123 1.000000
v_shot
  110 -0.015447 -27.130615 -9.743318 0.000000 0.007928 -0.999969 0.155000 0.995000 1 110 1.000000
  112 -0.792613 -27.130615 -9.421405 -0.707085 0.007928 -0.707084 0.165000 0.975000 1 112 1.000000
  125 -0.454742 -22.262539 -9.083535 -0.703725 0.097685 -0.703725 0.065000 0.950000 1 125 1.000000
v_shot
  116 -0.792613 -27.130615 -7.867074 -0.707085 0.007928 0.707084 0.165000 0.935000 1 116 1.000000
  118 -0.015447 -27.130615 -7.545163 -0.000001 0.007928 0.999969 0.165000 0.920000 1 118 1.000000
  128 -0.015447 -22.262539 -8.022984 -0.000004 0.097685 0.995217 0.065000 0.920000 1 128 1.000000
end
