version 1
nodes
0 "drill" -1
1 "drill_lever" 0
2 "drill_lever anim_help" 1
3 "drill_spin" 0
4 "drill_claw2" 3
5 "drill_claw1" 3
6 "drill_claw3" 3
7 "drill_claw4" 3
8 "base" -1
9 "ik arm.R" 8
10 "ik leg R" 8
11 "t leg.R" 8
12 "t hand.R" 8
13 "spine low" 8
14 "hip" 13
15 "leg up.R" 14
16 "leg low.R" 15
17 "foot.R" 16
18 "tow.R" 17
19 "leg up.L" 14
20 "leg low.L" 19
21 "foot.L" 20
22 "tow.L" 21
23 "spine up" 13
24 "shoulder.R" 23
25 "arm up.R" 24
26 "arm low.R" 25
27 "hand.R" 26
28 "neck" 23
29 "head" 28
30 "shoulder.L" 23
31 "arm up.L" 30
32 "arm low.L" 31
33 "hand.L" 32
34 "ik arm.L" 8
35 "ik leg L" 8
36 "t leg.L" 8
37 "t hand.L" 8
end
skeleton
  time 0
  0 11.789462 -4.598316 0.441071 -0.237148 -0.033209 -0.437188
  1 -0.000002 7.632661 5.380289 1.644840 -0.000000 0.000000
  2 0.000001 4.955764 -0.000000 -0.005713 -0.000000 -0.000000
  3 0.000001 16.156610 0.000000 -0.000000 -0.000000 0.000000
  4 2.361292 5.150873 2.361288 -0.174091 0.786638 0.000223
  5 -2.361294 5.150875 2.361295 -0.174326 -0.785981 0.000108
  6 2.361288 5.150873 -2.361295 -0.174150 2.355119 0.000140
  7 -2.361289 5.150877 -2.361293 -0.174384 -2.355777 0.000191
  8 0.208517 0.000000 -23.612854 1.570796 -0.000000 -1.570796
  9 18.926842 39.143330 11.606188 1.570796 0.000000 -1.570796
  10 8.092663 13.480309 -20.444241 -1.570796 0.000000 0.000000
  11 8.092661 3.278046 5.363962 -1.595738 0.005485 0.063662
  12 14.576991 29.731573 -3.436555 -0.881925 0.003858 2.961588
  13 -0.000000 30.033255 5.089400 0.262635 -0.209402 0.005862
  14 0.000000 2.088997 0.000000 2.872213 0.200564 -0.060887
  15 8.092661 5.945971 -0.000005 0.378893 0.002148 -0.005433
  16 0.000000 15.122830 -0.000001 -0.925322 -0.000000 0.000001
  17 0.000001 10.272247 -0.000001 2.091549 0.023725 -0.053726
  18 0.000001 4.132120 -1.927665 -0.000000 -0.000000 -0.000000
  19 -8.092661 5.945971 0.000002 0.570588 -0.179859 -0.052625
  20 0.000002 15.122830 -0.000001 -0.782564 0.000000 -0.000000
  21 0.000001 10.272246 -0.000000 1.799948 0.164316 0.090347
  22 0.000000 4.132121 -1.927665 -0.012507 0.000000 -0.000001
  23 0.000001 11.126793 0.000000 -0.278450 -0.073031 0.197229
  24 5.835802 2.795462 0.869678 -0.326786 -0.111613 -1.847632
  25 -0.000002 5.475370 0.000002 -1.004249 -0.538920 -0.382659
  26 -0.000004 11.557745 0.000003 -0.003686 -0.001390 0.000066
  27 -0.000001 7.947085 0.000000 -0.915514 1.091721 -0.915190
  28 0.000001 6.243680 0.000001 -0.157211 0.000000 -0.000000
  29 0.000000 2.631207 -0.000000 -0.361562 0.376455 0.117324
  30 -5.835801 2.795464 0.869676 -0.385490 0.137491 1.378488
  31 0.000004 5.475369 -0.000000 -0.785991 -0.049387 0.574582
  32 -0.000001 11.557741 -0.000001 -0.689048 -0.002708 -0.011420
  33 -0.000003 7.947079 -0.000001 1.091874 -1.275117 -0.402490
  34 -24.752760 38.666245 8.976809 1.570796 0.000000 1.570796
  35 -14.993512 13.480310 -35.248756 -1.570796 0.000000 0.000000
  36 -8.092661 3.309849 -0.290158 -1.565812 0.000000 0.000000
  37 -6.745564 35.870495 -13.583654 -0.550103 0.421798 -2.814845
  time 1
  0 10.507044 -8.159200 2.507378 -0.116466 -0.303195 -0.546629
  1 -0.000002 7.632662 5.380289 1.644840 -0.000000 0.000000
  2 0.000000 4.955765 0.000001 -0.005713 -0.000000 0.000000
  3 -0.000001 16.156612 0.000001 0.000000 -0.000000 0.000000
  4 2.361293 5.150872 2.361294 -0.174091 0.786638 0.000223
  5 -2.361294 5.150875 2.361289 -0.174326 -0.785980 0.000108
  6 2.361294 5.150880 -2.361295 -0.174150 2.355119 0.000140
  7 -2.361292 5.150873 -2.361294 -0.174385 -2.355778 0.000192
  8 0.208517 0.000000 -23.612854 1.570796 -0.000000 -1.570796
  9 2.643941 39.143330 30.033058 1.570796 0.000000 -1.570796
  10 13.593596 13.480309 -20.444237 -1.570796 0.000000 0.000000
  11 8.092659 3.278045 10.484430 -1.601679 -0.087491 0.063905
  12 17.217482 29.276100 0.003353 -1.186917 0.040799 2.977077
  13 -0.000000 30.033255 5.089400 0.262635 -0.209402 0.005862
  14 0.000000 2.088997 0.000000 2.877638 0.027917 -0.013483
  15 8.092661 5.945974 -0.000003 0.204720 0.009758 -0.039043
  16 0.000002 15.122829 0.000002 -0.877205 0.000000 0.000000
  17 0.000000 10.272249 -0.000001 2.225411 -0.063358 -0.082351
  18 0.000001 4.132122 -1.927664 0.000000 0.000000 -0.000000
  19 -8.092661 5.945974 0.000000 0.542211 -0.363370 -0.038293
  20 -0.000001 15.122828 0.000004 -0.848674 0.000000 -0.000000
  21 0.000001 10.272243 -0.000000 1.900154 0.163966 0.092537
  22 0.000000 4.132121 -1.927665 -0.012507 0.000000 -0.000001
  23 0.000001 11.126793 0.000000 -0.111616 -0.346174 0.069520
  24 5.835802 2.795461 0.869679 -0.403516 -0.127309 -1.857375
  25 0.000002 5.475371 -0.000001 -0.640876 0.196697 -1.030045
  26 0.000002 11.557740 0.000001 -0.003679 -0.001390 0.000066
  27 -0.000001 7.947081 -0.000000 -0.356036 0.070665 -0.519266
  28 0.000000 6.243677 -0.000001 -0.157211 0.000000 -0.000000
  29 0.000000 2.631210 -0.000000 -0.349178 0.353939 0.104465
  30 -5.835801 2.795464 0.869676 -0.385491 0.137491 1.378487
  31 -0.000003 5.475368 -0.000002 -0.417153 0.076906 0.953518
  32 -0.000006 11.557744 -0.000000 -1.474035 -0.014838 -0.017879
  33 -0.000001 7.947079 -0.000000 1.317925 -0.737693 -0.872519
  34 -24.752758 38.666245 2.685400 1.570796 0.000000 1.570796
  35 -14.993512 13.480310 -35.248756 -1.570796 0.000000 0.000000
  36 -8.092661 3.309849 -0.290158 -1.565812 0.000000 0.000000
  37 -3.380543 37.907196 -9.821458 -0.847638 0.585605 -2.937404
  time 2
  0 9.224626 -11.720082 4.573683 0.053034 -0.555013 -0.706881
  1 -0.000003 7.632661 5.380285 1.644840 -0.000000 0.000000
  2 0.000000 4.955766 -0.000000 -0.005714 0.000000 0.000000
  3 0.000000 16.156612 -0.000000 -0.000000 -0.000000 0.000000
  4 2.361290 5.150875 2.361293 -0.174091 0.786638 0.000223
  5 -2.361292 5.150877 2.361290 -0.174326 -0.785981 0.000108
  6 2.361290 5.150874 -2.361292 -0.174150 2.355119 0.000140
  7 -2.361293 5.150874 -2.361294 -0.174385 -2.355777 0.000191
  8 0.208517 0.000000 -23.612854 1.570796 -0.000000 -1.570796
  9 4.693749 39.143330 27.153864 1.570796 0.000000 -1.570796
  10 19.094530 13.480309 -20.444235 -1.570796 0.000000 0.000000
  11 8.092657 3.278045 15.604899 -1.607718 -0.180464 0.064713
  12 19.768631 28.294527 2.531614 -1.492031 0.080685 2.980761
  13 0.000000 29.526564 4.103836 0.157050 -0.199360 0.040298
  14 -0.000000 2.088997 -0.000000 2.974461 -0.162680 -0.012726
  15 8.092659 5.945973 -0.000002 -0.039677 -0.020452 -0.150246
  16 -0.000001 15.122828 -0.000002 -0.708431 -0.000000 0.000000
  17 0.000001 10.272247 0.000001 2.317323 -0.172189 -0.044899
  18 0.000001 4.132120 -1.927665 -0.000000 0.000000 -0.000000
  19 -8.092660 5.945972 0.000001 0.481383 -0.552699 -0.000305
  20 -0.000001 15.122827 0.000002 -0.999099 -0.000000 -0.000000
  21 0.000000 10.272251 -0.000000 2.101899 0.168880 0.097597
  22 0.000000 4.132121 -1.927665 -0.012507 0.000000 -0.000001
  23 -0.000000 11.126796 -0.000000 0.113989 -0.462904 -0.105935
  24 5.835800 2.795464 0.869677 -0.412378 -0.134500 -1.869069
  25 -0.000001 5.475370 0.000001 -0.202625 -0.111230 -0.616867
  26 0.000005 11.557742 -0.000002 -0.529237 0.001068 0.009070
  27 0.000002 7.947081 0.000002 -0.716233 0.482448 -0.668176
  28 -0.000001 6.243679 0.000000 -0.157211 0.000000 0.000000
  29 0.000000 2.631205 -0.000000 0.199381 -0.245548 -0.454612
  30 -5.835800 2.795461 0.869677 -0.385490 0.137491 1.378488
  31 0.000003 5.475370 0.000000 -0.569897 0.442194 1.000264
  32 -0.000004 11.557749 0.000000 -1.854274 -0.021599 -0.017247
  33 -0.000001 7.947083 -0.000000 1.204600 -0.131290 -1.139413
  34 -24.752756 38.666245 -8.998643 1.570796 0.000000 1.570796
  35 -14.993512 13.480310 -35.248756 -1.570796 0.000000 0.000000
  36 -8.092661 3.309849 -0.290158 -1.565812 0.000000 0.000000
  37 -0.221384 39.223076 -6.201511 1.939124 2.435019 0.011081
  time 3
  0 11.786887 -9.701461 3.792656 0.019724 -0.536284 -0.588620
  1 -0.000001 7.632663 5.380287 1.644840 -0.000000 0.000000
  2 -0.000001 4.955764 0.000000 -0.005713 0.000000 -0.000000
  3 0.000002 16.156614 -0.000000 -0.000000 -0.000000 -0.000000
  4 2.361290 5.150875 2.361298 -0.174091 0.786638 0.000223
  5 -2.361290 5.150873 2.361297 -0.174326 -0.785981 0.000108
  6 2.361291 5.150878 -2.361295 -0.174150 2.355119 0.000140
  7 -2.361291 5.150875 -2.361291 -0.174384 -2.355777 0.000191
  8 0.208517 0.000000 -23.612854 1.570796 -0.000000 -1.570796
  9 9.467005 39.143330 20.819622 1.570796 0.000000 -1.570796
  10 16.762423 13.480309 -20.444237 -1.570796 0.000000 0.000000
  11 8.092657 3.278045 16.005270 -1.604570 -0.132281 0.064223
  12 18.868668 27.969006 -0.911338 -1.444757 -0.014156 2.993756
  13 0.000000 29.019876 3.118270 0.051189 -0.185696 0.073676
  14 0.000000 2.089000 -0.000000 3.076720 -0.083603 -0.067135
  15 8.092661 5.945972 -0.000002 -0.193968 0.009652 -0.151268
  16 0.000003 15.122832 0.000002 -0.590026 0.000000 0.000000
  17 0.000000 10.272247 -0.000001 2.346552 -0.161811 -0.039485
  18 0.000001 4.132121 -1.927664 -0.000000 0.000000 -0.000000
  19 -8.092660 5.945972 0.000001 0.495117 -0.458077 -0.008112
  20 -0.000001 15.122834 -0.000001 -1.085686 0.000000 -0.000000
  21 0.000001 10.272245 -0.000001 2.178184 0.155412 0.114824
  22 0.000000 4.132120 -1.927665 -0.012507 0.000000 -0.000001
  23 -0.000000 11.126796 0.000000 0.043091 -0.317132 -0.060158
  24 5.835804 2.795461 0.869679 -0.332023 -0.122398 -1.872143
  25 0.000002 5.475369 0.000000 -0.295013 -0.119116 -0.665725
  26 0.000005 11.557741 -0.000002 -0.530092 0.001075 0.009083
  27 0.000000 7.947076 -0.000003 -0.774685 0.490911 -0.627583
  28 0.000001 6.243677 -0.000001 -0.157211 0.000000 -0.000000
  29 0.000000 2.631209 0.000000 0.197429 -0.245380 -0.453377
  30 -5.835801 2.795466 0.869675 -0.385491 0.137491 1.378487
  31 0.000006 5.475370 0.000001 -0.822381 0.419768 0.487629
  32 -0.000002 11.557742 0.000003 -1.965379 -0.023480 -0.016584
  33 0.000001 7.947078 0.000001 1.389564 -0.032703 -1.434568
  34 -24.752752 38.666245 -15.290051 1.570796 0.000000 1.570796
  35 -14.993512 13.480310 -35.248756 -1.570796 0.000000 0.000000
  36 -8.092661 3.309849 -0.290158 -1.565812 0.000000 0.000000
  37 -2.038883 38.410870 -7.921573 1.976050 2.536856 0.045046
  time 4
  0 14.349151 -7.682841 3.011631 -0.010510 -0.514288 -0.472198
  1 -0.000001 7.632663 5.380288 1.644840 -0.000000 0.000000
  2 0.000000 4.955765 0.000000 -0.005713 -0.000000 -0.000000
  3 0.000001 16.156612 -0.000002 0.000000 -0.000000 -0.000000
  4 2.361287 5.150870 2.361296 -0.174091 0.786638 0.000223
  5 -2.361292 5.150874 2.361290 -0.174326 -0.785980 0.000108
  6 2.361290 5.150874 -2.361293 -0.174150 2.355119 0.000140
  7 -2.361295 5.150871 -2.361294 -0.174384 -2.355777 0.000191
  8 0.208517 0.000000 -23.612854 1.570796 -0.000000 -1.570796
  9 14.899459 39.143330 14.485382 1.570796 0.000000 -1.570796
  10 11.985459 13.480309 -20.444241 -1.570796 0.000000 0.000000
  11 8.092658 3.278045 14.099489 -1.598811 -0.042700 0.063719
  12 17.871166 27.626612 -4.479650 -1.398313 -0.109772 3.002330
  13 0.000001 28.513187 2.132704 -0.054209 -0.168596 0.105414
  14 0.000000 2.088998 0.000001 -3.105214 0.080643 -0.101051
  15 8.092663 5.945973 -0.000004 -0.231242 0.043861 -0.083021
  16 0.000000 15.122828 0.000001 -0.631770 -0.000000 0.000001
  17 0.000001 10.272251 0.000000 2.413961 -0.075450 -0.058674
  18 0.000000 4.132121 -1.927664 0.000000 0.000000 -0.000000
  19 -8.092659 5.945972 0.000001 0.532886 -0.281330 -0.022260
  20 -0.000003 15.122827 0.000001 -1.162275 0.000000 -0.000000
  21 0.000003 10.272248 -0.000003 2.218384 0.139003 0.129925
  22 0.000000 4.132122 -1.927665 -0.012507 0.000000 -0.000001
  23 0.000000 11.126796 0.000002 -0.068671 -0.033510 -0.004525
  24 5.835801 2.795461 0.869679 -0.183703 -0.098906 -1.868714
  25 -0.000009 5.475368 0.000001 -0.302686 -0.151615 -0.665841
  26 0.000004 11.557747 0.000002 -0.736977 0.003272 0.012074
  27 -0.000002 7.947081 0.000001 -0.806931 0.635629 -0.512012
  28 0.000000 6.243674 0.000000 -0.157211 0.000000 -0.000000
  29 0.000000 2.631207 0.000000 0.136807 -0.239000 -0.415169
  30 -5.835800 2.795463 0.869676 -0.385491 0.137491 1.378487
  31 0.000001 5.475368 -0.000001 -0.970609 0.223830 0.599246
  32 -0.000001 11.557743 0.000001 -1.908250 -0.022523 -0.016952
  33 -0.000000 7.947081 -0.000003 1.410212 -0.058782 -1.072285
  34 -28.468466 34.755417 -4.229320 1.570796 0.000000 1.570796
  35 -14.993512 13.480310 -35.248756 -1.570796 0.000000 0.000000
  36 -8.092661 3.309849 -0.290158 -1.565812 0.000000 0.000000
  37 -3.771363 37.628174 -9.663389 -1.134755 0.501757 -3.068893
  time 5
  0 16.911413 -5.664220 2.230606 -0.037193 -0.489503 -0.358387
  1 -0.000002 7.632662 5.380285 1.644840 -0.000000 0.000000
  2 0.000001 4.955764 -0.000000 -0.005713 0.000000 0.000000
  3 -0.000001 16.156612 -0.000001 -0.000000 -0.000000 -0.000000
  4 2.361293 5.150877 2.361295 -0.174091 0.786638 0.000223
  5 -2.361290 5.150872 2.361296 -0.174326 -0.785980 0.000108
  6 2.361292 5.150877 -2.361293 -0.174150 2.355119 0.000140
  7 -2.361285 5.150876 -2.361294 -0.174385 -2.355777 0.000191
  8 0.208517 0.000000 -23.612854 1.570796 -0.000000 -1.570796
  9 18.926842 39.143330 11.606188 1.570796 0.000000 -1.570796
  10 8.092663 13.480309 -20.444241 -1.570796 0.000000 0.000000
  11 8.092659 3.278046 7.003382 -1.595738 0.005485 0.063662
  12 16.758747 27.259884 -8.156203 -1.352125 -0.205409 3.006492
  13 0.000001 28.006498 1.147139 -0.158455 -0.148368 0.134999
  14 0.000000 2.088998 0.000000 -3.002514 0.166652 -0.111563
  15 8.092658 5.945973 -0.000004 0.148732 0.004599 -0.012373
  16 0.000002 15.122828 0.000001 -1.110184 0.000000 0.000001
  17 -0.000001 10.272246 -0.000000 2.506601 0.036279 -0.037639
  18 0.000002 4.132119 -1.927663 -0.000000 -0.000000 -0.000000
  19 -8.092661 5.945972 0.000001 0.540142 -0.188898 -0.021238
  20 0.000002 15.122828 0.000001 -1.243701 -0.000000 -0.000000
  21 -0.000001 10.272246 0.000001 2.290416 0.129781 0.139263
  22 0.000000 4.132121 -1.927665 -0.012507 0.000000 -0.000001
  23 0.000001 11.126798 0.000000 -0.121437 0.120381 0.012332
  24 5.835801 2.795458 0.869678 -0.103699 -0.086690 -1.868943
  25 -0.000005 5.475369 -0.000000 -0.387013 -0.171851 -0.609325
  26 0.000001 11.557746 0.000001 -0.859428 0.004846 0.013606
  27 -0.000002 7.947081 0.000000 -0.772996 0.737946 -0.420670
  28 0.000000 6.243675 -0.000000 -0.157211 0.000000 -0.000000
  29 -0.000001 2.631205 -0.000001 -0.264661 -0.137852 -0.173817
  30 -5.835800 2.795461 0.869676 -0.385490 0.137491 1.378487
  31 0.000007 5.475368 0.000002 -1.039261 0.133224 0.850044
  32 -0.000001 11.557744 0.000001 -1.925546 -0.022812 -0.016844
  33 -0.000003 7.947083 0.000002 1.383716 -0.002595 -0.726639
  34 -32.184174 30.844587 6.831413 1.570796 0.000000 1.570796
  35 -14.993512 13.480310 -35.248756 -1.570796 0.000000 0.000000
  36 -8.092661 3.309849 -0.290158 -1.565812 0.000000 0.000000
  37 -5.423704 36.875023 -11.440930 -1.108630 0.398448 -3.046091
end
