version 1
nodes
0 "drill" -1
1 "drill_lever" 0
2 "drill_lever anim_help" 1
3 "drill_spin" 0
4 "drill_claw2" 3
5 "drill_claw1" 3
6 "drill_claw3" 3
7 "drill_claw4" 3
8 "base" -1
9 "ik arm.R" 8
10 "ik leg R" 8
11 "t leg.R" 8
12 "t hand.R" 8
13 "spine low" 8
14 "hip" 13
15 "leg up.R" 14
16 "leg low.R" 15
17 "foot.R" 16
18 "tow.R" 17
19 "leg up.L" 14
20 "leg low.L" 19
21 "foot.L" 20
22 "tow.L" 21
23 "spine up" 13
24 "shoulder.R" 23
25 "arm up.R" 24
26 "arm low.R" 25
27 "hand.R" 26
28 "neck" 23
29 "head" 28
30 "shoulder.L" 23
31 "arm up.L" 30
32 "arm low.L" 31
33 "hand.L" 32
34 "ik arm.L" 8
35 "ik leg L" 8
36 "t leg.L" 8
37 "t hand.L" 8
end
skeleton
  time 0
  0 14.257075 -8.469026 3.082386 -0.049863 -0.361623 -1.168969
  1 -0.000001 7.632662 5.380287 1.249202 -0.000000 0.000000
  2 0.000001 4.955765 -0.000001 -0.005713 -0.000000 -0.000000
  3 -0.000000 16.156609 0.000000 0.000000 -0.000000 0.000000
  4 2.361290 5.150871 2.361295 0.221547 0.786638 0.000223
  5 -2.361287 5.150873 2.361295 0.221312 -0.785981 0.000109
  6 2.361286 5.150866 -2.361293 0.221488 2.355119 0.000140
  7 -2.361292 5.150876 -2.361294 0.221254 -2.355777 0.000191
  8 0.208517 0.000000 -23.612854 1.570796 -0.000000 -1.570796
  9 14.156838 39.143330 28.082024 1.570796 0.000000 -1.570796
  10 23.786560 13.480309 -17.019114 -1.570796 0.000000 0.000000
  11 7.720436 3.215757 6.128421 -1.570796 -0.706869 -0.000000
  12 10.046133 28.782927 -0.217616 1.742214 2.527286 -0.232884
  13 -4.744804 30.643139 -0.000002 -0.101937 -0.378631 0.001463
  14 0.000000 2.088998 0.000000 -3.058575 -0.366313 -0.000325
  15 8.092660 5.945972 -0.000003 0.358593 -0.052215 -0.182115
  16 0.000000 15.122826 0.000003 -0.479213 -0.000000 0.000000
  17 0.000000 10.272249 0.000000 1.711195 -0.012072 0.218926
  18 0.000001 4.132123 -1.927664 0.040809 -0.008959 0.000618
  19 -8.092660 5.945974 0.000001 0.479800 -0.851047 0.041716
  20 0.000002 15.122828 0.000001 -0.798535 -0.000000 -0.000000
  21 -0.000002 10.272248 0.000001 1.896831 0.110937 0.025063
  22 -0.000002 4.132120 -1.927664 -0.000000 0.000000 -0.000000
  23 0.000000 11.126793 0.000001 -0.141560 0.005487 0.178132
  24 5.835801 2.795463 0.869678 -0.432555 -0.237436 -1.701545
  25 0.000001 5.475369 -0.000001 -0.042576 -0.034994 -1.105378
  26 0.000001 11.557732 0.000004 -1.127204 0.008865 0.016227
  27 0.000001 7.947076 0.000000 -0.361495 0.930105 0.345569
  28 -0.000001 6.243677 -0.000001 -0.214414 0.314914 0.005470
  29 0.000001 2.631207 0.000000 0.329749 0.151562 -0.113142
  30 -5.835801 2.795463 0.869676 -0.449927 0.197878 1.459917
  31 -0.000001 5.475369 0.000001 -1.439307 -0.255735 0.390625
  32 0.000003 11.557741 0.000001 -0.003679 0.001390 -0.000066
  33 -0.000001 7.947077 -0.000002 -0.550110 -0.094731 0.490543
  34 -23.983173 29.563313 -20.790541 1.570796 0.000000 1.570796
  35 -12.549350 13.480309 -23.048340 -1.570796 0.000000 0.000000
  36 -11.162998 3.295337 -9.088057 -1.569621 -0.005828 0.000113
  37 -2.631083 37.728455 -22.405924 0.434034 2.164495 -1.388148
  time 1
  0 10.931176 -8.050735 3.224049 0.126154 -0.305701 -1.476292
  1 -0.000001 7.632665 5.380284 0.745910 -0.000000 0.000000
  2 0.000001 4.955766 0.000002 -0.005713 0.000000 -0.000000
  3 0.000002 16.156614 -0.000003 -0.000000 -0.790402 -0.000000
  4 2.361288 5.150867 2.361293 0.724839 0.786638 0.000223
  5 -2.361294 5.150877 2.361292 0.724605 -0.785981 0.000108
  6 2.361295 5.150871 -2.361289 0.724780 2.355119 0.000140
  7 -2.361297 5.150872 -2.361295 0.724545 -2.355777 0.000191
  8 0.208517 0.000000 -23.612854 1.570796 -0.000000 -1.570796
  9 6.964520 39.143330 28.082018 1.570796 0.000000 -1.570796
  10 34.024948 13.480309 -16.464113 -1.570796 0.000000 0.000000
  11 6.985643 3.215759 11.818536 -1.570796 -0.816374 -0.000000
  12 6.332594 26.839163 3.307802 1.470250 2.364619 -0.487305
  13 -6.129131 30.542253 -0.329621 0.072238 -0.578609 -0.054918
  14 0.000001 2.088996 -0.000000 3.094384 -0.123296 0.061891
  15 8.092661 5.945975 -0.000003 -0.021407 0.153750 -0.379953
  16 0.000000 15.122829 -0.000000 -0.003579 -0.000000 0.000000
  17 0.000003 10.272245 -0.000002 1.538981 -0.040482 0.387723
  18 0.000000 4.132123 -1.927666 0.011655 -0.002556 0.000213
  19 -8.092660 5.945974 0.000000 0.388872 -0.528212 0.054345
  20 0.000001 15.122828 0.000003 -0.800862 0.000000 -0.000000
  21 -0.000001 10.272247 0.000000 1.965235 -0.086168 -0.078586
  22 -0.000001 4.132122 -1.927665 0.000000 0.000000 -0.000000
  23 0.000002 11.126795 -0.000001 -0.234485 -0.089316 0.261515
  24 5.835801 2.795464 0.869678 -0.382686 -0.165454 -1.605402
  25 -0.000004 5.475368 -0.000001 -0.579776 -0.347054 -1.250695
  26 0.000004 11.557741 0.000000 -0.003677 -0.001390 0.000066
  27 0.000002 7.947075 -0.000001 -1.637226 0.945487 -0.644010
  28 0.000001 6.243680 0.000000 -0.217026 0.347927 0.000732
  29 -0.000000 2.631205 -0.000001 0.234907 0.213479 -0.117118
  30 -5.835800 2.795464 0.869677 -0.449927 0.197878 1.459916
  31 0.000004 5.475368 0.000000 -1.274893 -0.171575 0.158250
  32 -0.000007 11.557743 0.000002 -0.003681 0.001390 -0.000066
  33 0.000004 7.947077 0.000001 -0.197281 -0.267675 0.264445
  34 -23.983173 35.598484 -20.790541 1.570796 0.000000 1.570796
  35 -9.557782 13.480309 -23.289461 -1.570796 0.000000 0.000000
  36 -12.771398 3.243611 -7.589273 -1.570458 -0.066954 0.000010
  37 1.293990 37.322388 -20.787918 0.605575 2.352837 -1.501497
  time 2
  0 7.297149 -7.632442 4.215681 0.245608 -0.240346 -1.566360
  1 -0.000001 7.632663 5.380288 0.544154 -0.000000 0.000000
  2 0.000001 4.955765 0.000001 -0.005713 0.000000 -0.000000
  3 0.000002 16.156612 0.000001 -0.000003 -1.595669 0.000001
  4 2.361297 5.150878 2.361292 0.926595 0.786638 0.000224
  5 -2.361294 5.150876 2.361295 0.926360 -0.785981 0.000108
  6 2.361284 5.150874 -2.361289 0.926536 2.355119 0.000140
  7 -2.361292 5.150874 -2.361293 0.926301 -2.355777 0.000191
  8 0.208517 0.000000 -23.612854 1.570796 -0.000000 -1.570796
  9 -0.227798 39.143330 28.082016 1.570796 0.000000 -1.570796
  10 35.487576 13.480309 -16.384825 -1.570796 0.000000 0.000000
  11 6.716008 3.215759 12.631412 -1.570796 -0.831841 -0.000000
  12 5.255089 26.330832 6.911040 1.364554 2.406649 -0.587252
  13 -6.915290 29.836063 -0.659240 0.335079 -0.881787 -0.196476
  14 -0.000000 2.089000 -0.000000 2.955831 0.220684 0.085401
  15 8.092661 5.945972 -0.000004 0.070824 0.189778 -0.449320
  16 -0.000001 15.122834 0.000000 -0.291234 -0.000000 0.000000
  17 -0.000001 10.272247 -0.000001 1.688933 -0.122794 0.429406
  18 0.000001 4.132121 -1.927664 0.000000 -0.000000 -0.000000
  19 -8.092660 5.945973 0.000001 0.423196 -0.307099 0.045079
  20 0.000003 15.122830 0.000000 -0.933430 0.000000 -0.000000
  21 0.000001 10.272247 -0.000001 2.081260 -0.227462 -0.174474
  22 -0.000001 4.132121 -1.927664 0.000000 0.000000 -0.000000
  23 0.000000 11.126799 -0.000001 -0.278890 -0.171557 0.308493
  24 5.835801 2.795463 0.869678 -0.326567 -0.098566 -1.506665
  25 0.000004 5.475370 -0.000001 -0.777636 -0.607514 -1.070071
  26 0.000008 11.557740 -0.000004 -0.003687 -0.001390 0.000066
  27 0.000001 7.947075 -0.000003 -1.584331 0.863550 -0.818130
  28 -0.000000 6.243675 -0.000000 -0.218960 0.381103 -0.005246
  29 0.000000 2.631207 0.000000 0.117505 0.308861 -0.149879
  30 -5.835802 2.795460 0.869677 -0.449927 0.197878 1.459916
  31 -0.000003 5.475370 -0.000001 -0.648981 -0.137759 0.204902
  32 -0.000005 11.557736 -0.000003 -1.389140 -0.013330 -0.017669
  33 -0.000000 7.947078 0.000001 1.436941 0.064380 -0.017723
  34 -23.983173 38.666245 -20.790541 1.570796 0.000000 1.570796
  35 -6.566214 13.480309 -23.530579 -1.570796 0.000000 0.000000
  36 -13.637460 3.215760 -7.132223 -1.570796 -0.099822 -0.000000
  37 2.736867 38.794460 -14.658146 -2.126365 0.290403 1.553856
  time 3
  0 4.323540 -8.960440 5.991550 0.278139 -0.118626 -1.597995
  1 0.000000 7.632662 5.380290 0.544155 -0.000000 0.000000
  2 -0.000000 4.955763 -0.000001 -0.005713 -0.000000 -0.000000
  3 0.000001 16.156614 -0.000001 -0.000000 1.042030 -0.000000
  4 2.361296 5.150876 2.361287 0.926595 0.786638 0.000223
  5 -2.361291 5.150879 2.361290 0.926360 -0.785981 0.000109
  6 2.361294 5.150872 -2.361296 0.926536 2.355119 0.000140
  7 -2.361299 5.150877 -2.361290 0.926302 -2.355778 0.000191
  8 0.208517 0.000000 -23.612854 1.570796 -0.000000 -1.570796
  9 -0.227798 39.143330 28.082016 1.570796 0.000000 -1.570796
  10 35.487576 13.480309 -16.384825 -1.570796 0.000000 0.000000
  11 6.716008 3.215759 12.631412 -1.570796 -0.831841 -0.000000
  12 6.245393 27.816605 9.970015 1.384434 2.442561 -0.640018
  13 -4.929989 28.208502 1.836788 0.448801 -0.995526 -0.245849
  14 0.000000 2.088999 -0.000001 2.887477 0.341711 0.049900
  15 8.092661 5.945972 -0.000003 0.379571 0.171221 -0.351730
  16 -0.000001 15.122828 0.000000 -0.999231 0.000000 0.000000
  17 -0.000000 10.272250 -0.000002 2.104988 -0.215070 0.276493
  18 0.000001 4.132120 -1.927664 0.000000 -0.000000 -0.000000
  19 -8.092661 5.945973 0.000000 0.540712 -0.370825 0.172373
  20 0.000000 15.122829 0.000001 -1.129855 0.000000 -0.000000
  21 0.000001 10.272247 -0.000001 2.092671 -0.105465 -0.245590
  22 -0.000001 4.132121 -1.927664 0.000000 0.000000 -0.000000
  23 0.000002 11.126794 -0.000000 -0.210200 -0.229383 0.223181
  24 5.835801 2.795462 0.869678 -0.326567 -0.098566 -1.506664
  25 0.000003 5.475371 -0.000001 -0.651174 -0.735475 -0.735092
  26 -0.000005 11.557743 -0.000002 -0.915885 0.005633 0.014248
  27 0.000001 7.947080 -0.000001 -0.480118 1.313375 -0.033835
  28 0.000000 6.243676 -0.000000 -0.059552 0.378207 -0.224167
  29 -0.000000 2.631207 -0.000000 0.004522 0.385457 -0.304997
  30 -5.835801 2.795463 0.869676 -0.449927 0.197878 1.459916
  31 -0.000001 5.475368 -0.000001 -0.531977 -0.229887 0.164765
  32 0.000005 11.557739 0.000004 -1.460097 -0.014589 -0.017853
  33 -0.000001 7.947081 -0.000001 1.557436 -0.188280 0.114827
  34 -23.983173 38.666245 -20.790541 1.570796 0.000000 1.570796
  35 -6.566214 13.480309 -23.530579 -1.570796 0.000000 0.000000
  36 -13.637460 3.215760 -7.132223 -1.570796 -0.099822 -0.000000
  37 5.634655 41.318489 -11.411252 -2.150232 0.255038 1.426067
  time 4
  0 6.139962 -8.960442 5.103615 0.195651 -0.170880 -1.496791
  1 -0.000001 7.632663 5.380290 0.802596 -0.000000 0.000000
  2 0.000000 4.955764 -0.000000 -0.005713 0.000000 -0.000000
  3 0.000002 16.156614 0.000001 0.000000 0.600130 -0.000000
  4 2.361292 5.150875 2.361292 0.668153 0.786638 0.000223
  5 -2.361289 5.150873 2.361289 0.667919 -0.785980 0.000109
  6 2.361294 5.150876 -2.361296 0.668095 2.355119 0.000140
  7 -2.361292 5.150875 -2.361293 0.667860 -2.355777 0.000191
  8 0.208517 0.000000 -23.612854 1.570796 -0.000000 -1.570796
  9 -0.227798 39.143330 28.082016 1.570796 0.000000 -1.570796
  10 35.487576 13.480309 -16.384825 -1.570796 0.000000 0.000000
  11 6.716008 3.215759 12.631412 -1.570796 -0.831841 -0.000000
  12 7.785021 27.865072 8.603543 1.583935 2.518060 -0.417072
  13 -4.929989 28.979753 0.918393 0.404476 -0.881048 -0.235861
  14 0.000000 2.088998 -0.000000 2.916774 0.232629 0.100252
  15 8.092660 5.945972 -0.000002 0.281974 0.173910 -0.365306
  16 -0.000002 15.122828 -0.000002 -0.828470 0.000000 0.000000
  17 -0.000001 10.272245 -0.000000 2.028221 -0.202738 0.302112
  18 0.000000 4.132117 -1.927664 0.000000 -0.000000 -0.000000
  19 -8.092660 5.945973 0.000002 0.464745 -0.364386 0.158743
  20 0.000000 15.122827 -0.000001 -1.031596 0.000000 -0.000000
  21 0.000002 10.272245 0.000001 2.078640 -0.121606 -0.236865
  22 -0.000001 4.132119 -1.927664 0.000000 0.000000 -0.000000
  23 0.000000 11.126795 -0.000001 -0.247669 -0.218024 0.267482
  24 5.835801 2.795464 0.869677 -0.326567 -0.098566 -1.506664
  25 -0.000000 5.475371 0.000002 -0.549202 -0.561059 -0.975987
  26 0.000001 11.557740 -0.000004 -0.726291 0.003144 0.011932
  27 0.000000 7.947081 0.000000 -0.648618 0.951387 -0.262816
  28 0.000000 6.243683 -0.000001 -0.140085 0.384731 -0.116412
  29 -0.000000 2.631207 -0.000000 0.049393 0.379572 -0.278274
  30 -5.835801 2.795464 0.869676 -0.449927 0.197878 1.459917
  31 0.000005 5.475368 0.000001 -0.489773 -0.235955 0.162206
  32 -0.000003 11.557745 0.000003 -1.488592 -0.015099 -0.017903
  33 -0.000001 7.947079 -0.000001 1.324661 -0.410325 0.034378
  34 -23.983173 38.666245 -20.790541 1.570796 0.000000 1.570796
  35 -6.566214 13.480309 -23.530579 -1.570796 0.000000 0.000000
  36 -13.637460 3.215760 -7.132223 -1.570796 -0.099822 -0.000000
  37 3.981380 40.903145 -13.899827 -2.292452 0.553853 1.398003
  time 5
  0 7.956384 -8.960443 4.215679 0.107423 -0.214402 -1.390591
  1 -0.000001 7.632664 5.380291 1.333727 -0.000000 0.000000
  2 0.000002 4.955765 -0.000001 -0.005713 0.000000 -0.000000
  3 0.000002 16.156614 0.000000 -0.000000 -0.000000 0.000000
  4 2.361294 5.150874 2.361293 0.137022 0.786638 0.000223
  5 -2.361294 5.150875 2.361291 0.136788 -0.785980 0.000108
  6 2.361293 5.150876 -2.361292 0.136964 2.355119 0.000140
  7 -2.361290 5.150875 -2.361293 0.136729 -2.355777 0.000191
  8 0.208517 0.000000 -23.612854 1.570796 -0.000000 -1.570796
  9 -0.227798 39.143330 28.082016 1.570796 0.000000 -1.570796
  10 35.487576 13.480309 -16.384825 -1.570796 0.000000 0.000000
  11 6.716008 3.215759 12.631412 -1.570796 -0.831841 -0.000000
  12 9.193532 28.091228 6.920011 1.728182 2.595804 -0.265194
  13 -4.929988 29.836063 -0.000002 0.244984 -0.462176 -0.139108
  14 -0.000000 2.089000 -0.000000 2.956753 -0.197490 0.163184
  15 8.092660 5.945972 -0.000003 0.149392 0.176124 -0.376616
  16 -0.000000 15.122829 -0.000000 -0.581447 -0.000000 0.000000
  17 -0.000001 10.272248 -0.000000 1.913357 -0.173223 0.332408
  18 0.000000 4.132121 -1.927664 0.000000 -0.000000 -0.000000
  19 -8.092661 5.945973 0.000001 0.369338 -0.359358 0.148235
  20 0.000002 15.122830 0.000001 -0.896406 0.000000 -0.000000
  21 0.000002 10.272248 0.000000 2.045421 -0.139047 -0.226768
  22 -0.000001 4.132121 -1.927664 0.000000 0.000000 -0.000000
  23 -0.000001 11.126799 -0.000000 -0.278890 -0.171557 0.308493
  24 5.835801 2.795463 0.869678 -0.326567 -0.098566 -1.506664
  25 -0.000001 5.475368 -0.000001 -0.056125 -0.041466 -1.453830
  26 0.000002 11.557750 0.000000 -0.846931 0.004678 0.013463
  27 -0.000001 7.947081 -0.000004 -0.666668 0.506809 -0.237966
  28 -0.000000 6.243675 -0.000001 -0.218960 0.381103 -0.005246
  29 -0.000000 2.631208 0.000000 0.117505 0.308861 -0.149878
  30 -5.835801 2.795460 0.869675 -0.449927 0.197878 1.459916
  31 0.000004 5.475370 0.000000 -1.015407 -0.210004 0.031707
  32 -0.000008 11.557739 0.000000 -1.128375 -0.008881 -0.016231
  33 -0.000002 7.947078 0.000001 0.871529 -0.884688 -0.000238
  34 -23.983173 38.666245 -20.790541 1.570796 0.000000 1.570796
  35 -6.566214 13.480309 -23.530579 -1.570796 0.000000 0.000000
  36 -13.637460 3.215760 -7.132223 -1.570796 -0.099822 -0.000000
  37 2.096200 41.427689 -14.521949 0.626597 2.111961 -1.683791
end
