version 1
nodes
0 "drill" -1
1 "drill_lever" 0
2 "drill_lever anim_help" 1
3 "drill_spin" 0
4 "drill_claw2" 3
5 "drill_claw1" 3
6 "drill_claw3" 3
7 "drill_claw4" 3
8 "base" -1
9 "ik arm.R" 8
10 "ik leg R" 8
11 "t leg.R" 8
12 "t hand.R" 8
13 "spine low" 8
14 "hip" 13
15 "leg up.R" 14
16 "leg low.R" 15
17 "foot.R" 16
18 "tow.R" 17
19 "leg up.L" 14
20 "leg low.L" 19
21 "foot.L" 20
22 "tow.L" 21
23 "spine up" 13
24 "shoulder.R" 23
25 "arm up.R" 24
26 "arm low.R" 25
27 "hand.R" 26
28 "neck" 23
29 "head" 28
30 "shoulder.L" 23
31 "arm up.L" 30
32 "arm low.L" 31
33 "hand.L" 32
34 "ik arm.L" 8
35 "ik leg L" 8
36 "t leg.L" 8
37 "t hand.L" 8
end
skeleton
  time 0
  0 16.455618 -2.541525 -1.024118 -0.299817 -0.324664 -0.420017
  1 -0.000003 7.632662 5.380287 1.644840 -0.000000 0.000000
  2 0.000003 4.955766 0.000000 -0.005713 0.000000 0.000000
  3 -0.000001 16.156610 -0.000000 -0.000000 -0.000000 0.000000
  4 2.361295 5.150876 2.361291 -0.174091 0.786638 0.000223
  5 -2.361291 5.150873 2.361293 -0.174326 -0.785980 0.000108
  6 2.361291 5.150877 -2.361294 -0.174150 2.355119 0.000140
  7 -2.361295 5.150876 -2.361296 -0.174384 -2.355777 0.000191
  8 0.208517 0.000000 -23.612854 1.570796 -0.000000 -1.570796
  9 18.926842 39.143330 11.606188 1.570796 0.000000 -1.570796
  10 11.672379 13.480309 -20.444241 -1.570796 0.000000 0.000000
  11 8.092656 11.572091 19.335793 -2.234486 0.027293 0.049401
  12 11.594408 27.851309 -6.840116 -1.119414 -0.023501 -3.141026
  13 0.000001 28.787714 0.452917 -0.279282 -0.004667 0.142514
  14 0.000000 2.088996 -0.000000 -2.837060 -0.416971 -0.219863
  15 8.092661 5.945974 -0.000002 -0.324408 -0.364893 -0.128875
  16 0.000003 15.122827 0.000001 -1.231543 0.000000 0.000000
  17 -0.000000 10.272250 -0.000001 2.524376 -0.118864 -0.129354
  18 0.000003 4.132122 -1.927665 -0.000000 0.000000 -0.000000
  19 -8.092659 5.945974 0.000001 1.038884 -0.968644 -0.134506
  20 -0.000002 15.122829 -0.000000 -1.549380 -0.000000 -0.000001
  21 0.000002 10.272253 0.000001 2.110625 0.331586 0.412987
  22 0.000001 4.132121 -1.927664 -0.000000 0.000000 -0.000000
  23 0.000001 11.126798 0.000001 -0.152128 0.177906 -0.004321
  24 5.835802 2.795459 0.869677 -0.103699 -0.086690 -1.868943
  25 -0.000001 5.475370 0.000001 -0.004869 -0.104489 -0.988997
  26 -0.000002 11.557745 -0.000001 -1.568520 0.016536 0.017966
  27 -0.000001 7.947075 -0.000000 0.033705 0.436203 0.317754
  28 -0.000000 6.243676 -0.000001 -0.157211 0.000000 -0.000000
  29 -0.000001 2.631204 -0.000001 0.050845 -0.131691 -0.155506
  30 -5.835800 2.795462 0.869676 -0.385491 0.137491 1.378488
  31 0.000001 5.475368 -0.000002 -0.925264 -0.072361 0.815794
  32 -0.000007 11.557736 -0.000002 -1.389236 -0.013331 -0.017668
  33 0.000000 7.947080 -0.000002 0.809681 -0.872658 -0.233077
  34 -23.983181 38.666245 10.152540 1.570796 0.000000 1.570796
  35 -14.993516 13.480309 -20.444244 -1.570796 0.000000 0.000000
  36 -8.092658 7.016737 -9.743956 -1.716572 0.000000 0.000000
  37 -10.735669 32.365711 -15.574479 -0.802276 0.500851 -2.749435
  time 1
  0 16.455618 -3.125650 0.340185 -0.330768 -0.318420 -0.492645
  1 -0.000002 7.632662 5.380288 1.644840 -0.000000 0.000000
  2 -0.000002 4.955765 0.000001 -0.005713 0.000000 0.000000
  3 -0.000002 16.156610 0.000001 0.000000 -0.000000 -0.000000
  4 2.361288 5.150875 2.361292 -0.174091 0.786638 0.000223
  5 -2.361298 5.150878 2.361288 -0.174326 -0.785981 0.000108
  6 2.361289 5.150878 -2.361295 -0.174150 2.355119 0.000140
  7 -2.361293 5.150872 -2.361296 -0.174385 -2.355777 0.000191
  8 0.208517 0.000000 -23.612854 1.570796 -0.000000 -1.570796
  9 18.926842 39.143330 11.606188 1.570796 0.000000 -1.570796
  10 11.672379 13.480309 -20.444241 -1.570796 0.000000 0.000000
  11 8.092655 15.788914 22.323511 2.867089 0.079287 -0.009520
  12 11.248956 29.598793 -6.233208 -1.099834 0.058664 -3.117052
  13 0.000001 30.239979 0.452917 -0.279282 -0.004667 0.142514
  14 0.000000 2.088996 -0.000000 -2.837060 -0.416971 -0.219863
  15 8.092663 5.945968 -0.000002 -0.542484 -0.388591 -0.158772
  16 0.000003 15.122829 0.000004 -1.106738 0.000000 0.000001
  17 0.000001 10.272251 -0.000002 1.463518 -0.184016 -0.181648
  18 0.000002 4.132122 -1.927664 0.000000 0.000000 -0.000000
  19 -8.092659 5.945971 0.000000 0.191195 -0.837881 0.175004
  20 -0.000001 15.122827 0.000002 -0.918942 0.000000 -0.000000
  21 -0.000000 10.272251 -0.000001 2.230818 0.344729 0.173624
  22 -0.000000 4.132122 -1.927664 0.000000 0.000000 -0.000000
  23 0.000001 11.126796 0.000001 0.003355 0.263018 0.067387
  24 5.835803 2.795465 0.869681 -0.103699 -0.086690 -1.868944
  25 0.000001 5.475368 -0.000001 0.235839 -0.064107 -1.156173
  26 0.000001 11.557743 -0.000001 -1.568716 0.016539 0.017966
  27 0.000002 7.947079 -0.000000 -0.026867 0.431779 0.377624
  28 0.000001 6.243681 0.000002 -0.157211 -0.000000 -0.000000
  29 -0.000000 2.631203 -0.000002 0.055663 -0.168419 -0.205306
  30 -5.835800 2.795466 0.869676 -0.385491 0.137491 1.378487
  31 -0.000001 5.475368 0.000000 -1.132894 0.042754 0.726516
  32 -0.000000 11.557738 -0.000000 -0.883652 -0.005179 -0.013887
  33 -0.000002 7.947076 0.000001 0.300666 -0.971044 0.258111
  34 -23.983181 38.666245 10.152540 1.570796 0.000000 1.570796
  35 -14.993516 13.480309 -21.080381 -1.570796 0.000000 0.000000
  36 -8.092660 3.143670 -1.843103 -1.570796 0.000000 0.000000
  37 -10.381422 33.414139 -16.857298 -0.743632 0.568604 -2.695897
  time 2
  0 16.455618 -2.995518 3.668613 -0.298518 -0.336117 -0.462366
  1 -0.000004 7.632662 5.380285 1.644840 -0.000000 0.000000
  2 0.000002 4.955767 0.000002 -0.005713 0.000000 -0.000000
  3 -0.000001 16.156610 -0.000001 0.000000 -0.000000 0.000000
  4 2.361296 5.150878 2.361289 -0.174091 0.786638 0.000223
  5 -2.361290 5.150874 2.361293 -0.174326 -0.785981 0.000108
  6 2.361283 5.150876 -2.361295 -0.174150 2.355119 0.000140
  7 -2.361290 5.150876 -2.361293 -0.174384 -2.355778 0.000191
  8 0.208517 0.000000 -23.612854 1.570796 -0.000000 -1.570796
  9 18.926842 39.143330 11.606188 1.570796 0.000000 -1.570796
  10 11.672379 13.480309 -20.444241 -1.570796 0.000000 0.000000
  11 8.092657 14.418850 18.168240 -2.801541 0.084907 0.016219
  12 11.625216 32.472752 -6.412490 -1.130191 0.018452 -3.137219
  13 0.000001 31.692242 0.452917 -0.279282 -0.004667 0.142514
  14 0.000000 2.088996 -0.000000 -2.849406 -0.219292 -0.186193
  15 8.092661 5.945971 -0.000002 -0.387183 -0.177514 -0.112372
  16 -0.000001 15.122821 -0.000000 -1.204842 0.000000 0.000001
  17 0.000002 10.272246 -0.000000 1.963479 -0.112752 -0.178743
  18 0.000000 4.132123 -1.927666 0.000000 -0.000000 -0.000000
  19 -8.092660 5.945972 0.000001 -0.409150 -0.527624 0.149954
  20 0.000001 15.122822 -0.000002 -0.003585 0.000000 0.000000
  21 0.000000 10.272244 -0.000002 1.917457 0.284462 -0.005930
  22 0.000001 4.132122 -1.927662 -0.000000 -0.000000 -0.000000
  23 0.000001 11.126796 0.000001 0.083518 0.198439 0.043492
  24 5.835800 2.795463 0.869678 -0.103699 -0.086690 -1.868943
  25 0.000004 5.475371 -0.000001 0.305600 -0.095733 -1.094868
  26 0.000005 11.557737 0.000001 -1.757593 0.019913 0.017654
  27 -0.000001 7.947079 0.000002 0.137845 0.407826 0.358364
  28 -0.000000 6.243679 0.000000 -0.157211 0.000000 0.000000
  29 -0.000000 2.631205 -0.000000 0.200654 -0.122351 -0.164485
  30 -5.835800 2.795463 0.869676 -0.385491 0.137491 1.378488
  31 -0.000000 5.475370 -0.000001 -0.943764 0.034409 0.851329
  32 0.000003 11.557743 -0.000001 -1.308066 -0.011908 -0.017347
  33 0.000000 7.947077 -0.000003 0.878781 -0.914575 -0.188555
  34 -23.983181 38.666245 10.152540 1.570796 0.000000 1.570796
  35 -14.993515 13.480309 -22.757456 -1.570796 0.000000 0.000000
  36 -8.092663 3.088079 6.577893 -1.572814 0.000000 0.000000
  37 -10.337257 37.003300 -16.026295 -0.795209 0.543731 -2.742129
  time 3
  0 16.455618 -2.865385 1.673798 -0.264833 -0.340347 -0.395134
  1 -0.000002 7.632661 5.380285 1.644840 -0.000000 0.000000
  2 -0.000001 4.955765 0.000001 -0.005713 -0.000000 -0.000000
  3 -0.000001 16.156609 -0.000001 -0.000000 -0.000000 -0.000000
  4 2.361291 5.150876 2.361292 -0.174091 0.786638 0.000223
  5 -2.361290 5.150876 2.361292 -0.174326 -0.785980 0.000108
  6 2.361295 5.150875 -2.361292 -0.174150 2.355119 0.000140
  7 -2.361287 5.150874 -2.361296 -0.174384 -2.355777 0.000191
  8 0.208517 0.000000 -23.612854 1.570796 -0.000000 -1.570796
  9 18.926842 39.143330 11.606188 1.570796 0.000000 -1.570796
  10 11.672379 13.480309 -20.444241 -1.570796 0.000000 0.000000
  11 8.092660 10.675766 6.815824 -2.131874 0.042414 0.024727
  12 12.377495 30.068981 -7.038964 -1.146542 -0.060101 3.119145
  13 0.000001 30.238983 0.452917 -0.282752 0.025098 0.083819
  14 0.000000 2.088999 0.000000 -2.846168 -0.061305 -0.107321
  15 8.092661 5.945974 -0.000003 0.239078 0.072993 -0.073220
  16 0.000001 15.122829 0.000000 -1.728007 0.000000 0.000000
  17 0.000000 10.272249 0.000000 2.495479 -0.061691 -0.175171
  18 0.000002 4.132119 -1.927665 -0.000000 -0.000000 -0.000000
  19 -8.092658 5.945972 0.000001 -0.141635 -0.271159 0.119953
  20 -0.000000 15.122826 0.000002 -1.081249 0.000000 -0.000000
  21 -0.000001 10.272249 -0.000001 2.187620 0.168246 0.155397
  22 -0.000001 4.132121 -1.927666 0.331208 -0.005417 -0.001524
  23 0.000001 11.126797 -0.000001 -0.051906 0.058468 -0.036273
  24 5.835803 2.795462 0.869679 -0.103699 -0.086690 -1.868944
  25 -0.000000 5.475373 -0.000001 0.031202 -0.141382 -0.881298
  26 0.000000 11.557743 0.000001 -1.712463 0.019112 0.017786
  27 0.000001 7.947075 -0.000002 0.202923 0.429907 0.301753
  28 0.000002 6.243680 0.000000 -0.157211 0.000000 -0.000000
  29 0.000000 2.631209 0.000001 0.328463 -0.050594 -0.053721
  30 -5.835800 2.795464 0.869676 -0.385491 0.137491 1.378487
  31 0.000003 5.475368 0.000001 -0.750232 -0.042159 1.026495
  32 -0.000002 11.557743 0.000003 -1.643183 -0.017873 -0.017916
  33 -0.000001 7.947081 0.000001 0.984418 -0.723162 -0.332320
  34 -23.983181 38.666245 10.152540 1.570796 0.000000 1.570796
  35 -14.993514 13.480310 -25.128494 -1.570796 0.000000 0.000000
  36 -8.092664 7.464497 10.478380 -2.160110 0.004112 -0.015370
  37 -10.134178 35.352100 -14.824504 -0.846184 0.476942 -2.794209
  time 4
  0 16.455618 -2.735250 -4.768126 -0.235461 -0.335644 -0.280054
  1 -0.000001 7.632661 5.380288 1.644840 -0.000000 0.000000
  2 -0.000001 4.955767 0.000002 -0.005713 -0.000000 -0.000000
  3 0.000000 16.156610 0.000000 0.000000 -0.000000 -0.000000
  4 2.361289 5.150872 2.361289 -0.174091 0.786638 0.000223
  5 -2.361292 5.150870 2.361291 -0.174326 -0.785980 0.000108
  6 2.361292 5.150877 -2.361293 -0.174150 2.355119 0.000140
  7 -2.361294 5.150873 -2.361296 -0.174384 -2.355777 0.000191
  8 0.208517 0.000000 -23.612854 1.570796 -0.000000 -1.570796
  9 18.926842 39.143330 11.606188 1.570796 0.000000 -1.570796
  10 11.672379 13.480309 -20.444241 -1.570796 0.000000 0.000000
  11 8.092664 5.562621 -8.691860 -1.720768 0.000593 0.001093
  12 13.448900 23.305540 -8.280946 -1.146753 -0.184999 3.091413
  13 0.000001 28.785723 0.452917 -0.287970 0.054620 0.024928
  14 0.000000 2.088997 -0.000000 -2.841505 0.095929 -0.026514
  15 8.092660 5.945971 -0.000003 0.885560 0.384411 0.050297
  16 -0.000002 15.122832 -0.000001 -1.298494 0.000000 0.000001
  17 0.000000 10.272257 -0.000003 1.859221 -0.191262 -0.174769
  18 0.000001 4.132121 -1.927665 0.000000 -0.000000 -0.000000
  19 -8.092660 5.945974 0.000001 -0.223737 -0.027066 0.128213
  20 -0.000001 15.122833 -0.000001 -1.501190 0.000000 -0.000000
  21 0.000001 10.272253 -0.000001 2.076027 0.097368 0.185961
  22 -0.000001 4.132121 -1.927666 0.474310 -0.014806 -0.049045
  23 0.000002 11.126797 -0.000000 -0.217923 -0.090421 -0.093741
  24 5.835802 2.795464 0.869680 -0.103699 -0.086690 -1.868943
  25 -0.000003 5.475371 0.000001 -0.551920 -0.162871 -0.671648
  26 0.000006 11.557739 0.000000 -0.778395 0.003784 0.012614
  27 -0.000001 7.947079 -0.000001 -0.453913 0.484058 -0.073308
  28 0.000000 6.243677 -0.000000 -0.157211 0.000000 -0.000000
  29 0.000000 2.631207 0.000002 0.337588 0.013110 0.063525
  30 -5.835800 2.795462 0.869676 -0.385490 0.137491 1.378487
  31 -0.000005 5.475370 -0.000001 -0.597809 -0.031860 1.255745
  32 -0.000003 11.557744 0.000000 -1.423133 -0.013930 -0.017767
  33 0.000001 7.947075 0.000000 0.353807 -0.566879 -0.125964
  34 -23.983181 38.666245 10.152540 1.570796 0.000000 1.570796
  35 -14.993513 13.480310 -27.846510 -1.570796 0.000000 0.000000
  36 -8.092665 11.840912 14.378865 -2.798915 -0.001833 -0.031574
  37 -9.699983 29.252556 -13.186419 -0.894524 0.360098 -2.841649
  time 5
  0 16.455618 -2.605119 -2.248779 -0.207936 -0.349109 -0.208314
  1 -0.000001 7.632663 5.380289 1.644840 -0.000000 0.000000
  2 -0.000001 4.955764 -0.000001 -0.005713 0.000000 -0.000000
  3 -0.000000 16.156612 0.000002 0.000000 -0.000000 0.000000
  4 2.361290 5.150877 2.361293 -0.174091 0.786638 0.000223
  5 -2.361291 5.150875 2.361292 -0.174326 -0.785980 0.000108
  6 2.361291 5.150877 -2.361293 -0.174150 2.355119 0.000140
  7 -2.361289 5.150874 -2.361299 -0.174384 -2.355777 0.000191
  8 0.208517 0.000000 -23.612854 1.570796 -0.000000 -1.570796
  9 18.926842 39.143330 11.606188 1.570796 0.000000 -1.570796
  10 11.672379 13.480309 -20.444241 -1.570796 0.000000 0.000000
  11 8.092663 3.045051 -6.982977 -1.570796 0.000000 0.000000
  12 14.024781 25.436001 -9.095073 -1.161618 -0.266981 3.072824
  13 0.000002 30.306145 0.452917 -0.289127 0.060046 0.014003
  14 -0.000000 2.088999 0.000001 -2.836313 0.285162 0.015948
  15 8.092661 5.945972 -0.000005 0.500461 0.590145 -0.053763
  16 0.000001 15.122827 0.000001 -0.835623 -0.000000 0.000000
  17 -0.000004 10.272246 -0.000004 1.899450 -0.237236 -0.089533
  18 0.000002 4.132121 -1.927664 -0.000000 -0.000000 -0.000000
  19 -8.092659 5.945971 0.000001 -0.373058 0.207234 0.144408
  20 -0.000003 15.122829 0.000000 -1.488698 -0.000000 -0.000000
  21 -0.000000 10.272251 0.000002 1.678701 0.101671 0.185576
  22 -0.000000 4.132120 -1.927666 0.000000 -0.000000 -0.000000
  23 -0.000001 11.126794 0.000000 -0.013417 -0.145308 -0.135076
  24 5.835802 2.795461 0.869678 -0.103699 -0.086690 -1.868943
  25 -0.000002 5.475367 -0.000000 -0.478082 -0.256616 -0.604515
  26 -0.000001 11.557743 -0.000000 -0.816192 0.004270 0.013090
  27 -0.000000 7.947078 -0.000001 -0.409171 0.492036 -0.175535
  28 0.000000 6.243678 -0.000000 -0.157211 0.000000 -0.000000
  29 0.000000 2.631206 0.000000 0.056727 0.068602 0.111477
  30 -5.835800 2.795463 0.869676 -0.385491 0.137491 1.378487
  31 0.000009 5.475370 0.000001 -0.340110 0.041158 1.425130
  32 -0.000001 11.557741 0.000003 -1.564222 -0.016454 -0.017962
  33 0.000001 7.947083 0.000001 0.407178 -0.498050 -0.247972
  34 -23.983181 38.666245 10.152540 1.570796 0.000000 1.570796
  35 -14.993513 13.480310 -30.564526 -1.570796 0.000000 0.000000
  36 -8.092665 16.217329 18.279352 2.909890 -0.014575 -0.040528
  37 -9.303610 31.968016 -11.996875 -0.937883 0.287694 -2.877382
  time 6
  0 16.455618 -2.281262 2.566614 -0.239951 -0.334864 -0.219453
  1 -0.000001 7.632662 5.380287 1.644840 -0.000000 0.000000
  2 -0.000001 4.955764 0.000000 -0.005713 -0.000000 0.000000
  3 0.000001 16.156612 -0.000002 -0.000000 -0.000000 0.000000
  4 2.361288 5.150869 2.361293 -0.174091 0.786638 0.000223
  5 -2.361298 5.150872 2.361290 -0.174326 -0.785981 0.000108
  6 2.361288 5.150873 -2.361296 -0.174150 2.355119 0.000140
  7 -2.361293 5.150871 -2.361293 -0.174384 -2.355777 0.000191
  8 0.208517 0.000000 -23.612854 1.570796 -0.000000 -1.570796
  9 18.926842 39.143330 11.606188 1.570796 0.000000 -1.570796
  10 11.672379 13.480309 -20.444241 -1.570796 0.000000 0.000000
  11 8.092660 3.138449 5.980500 -1.580265 -0.000326 0.019122
  12 13.429099 30.696878 -8.935497 -1.141962 -0.243964 3.094309
  13 0.000002 31.826569 0.452917 -0.290344 0.065459 0.003073
  14 0.000000 2.088995 -0.000001 -2.834440 0.151491 0.022301
  15 8.092660 5.945967 -0.000003 -0.347610 0.374957 -0.096609
  16 0.000003 15.122833 0.000001 -0.003583 -0.000000 -0.000000
  17 0.000000 10.272249 0.000001 1.876250 -0.166608 -0.004274
  18 0.000001 4.132119 -1.927663 -0.000000 0.000000 -0.000000
  19 -8.092658 5.945968 0.000002 0.137181 0.056146 0.067597
  20 0.000000 15.122830 0.000001 -1.698181 -0.000000 -0.000000
  21 -0.000000 10.272253 -0.000001 2.299740 0.067375 0.109790
  22 -0.000001 4.132122 -1.927665 -0.000000 0.000000 -0.000000
  23 0.000002 11.126799 0.000000 0.332064 -0.066675 -0.119821
  24 5.835802 2.795460 0.869678 -0.103699 -0.086690 -1.868943
  25 -0.000000 5.475369 -0.000001 0.076224 -0.314448 -0.743488
  26 0.000002 11.557742 -0.000000 -1.572022 0.016599 0.017966
  27 -0.000002 7.947079 0.000000 0.256745 0.500482 0.089685
  28 0.000000 6.243676 -0.000000 -0.157211 0.000000 0.000000
  29 -0.000000 2.631208 -0.000000 -0.137139 0.090186 0.093641
  30 -5.835801 2.795461 0.869676 -0.385490 0.137491 1.378487
  31 0.000007 5.475370 0.000000 -0.210418 0.125646 1.405410
  32 0.000001 11.557740 0.000001 -1.664424 -0.018254 -0.017885
  33 0.000001 7.947080 -0.000000 0.740746 -0.630599 -0.339343
  34 -23.983181 38.666245 10.152540 1.570796 0.000000 1.570796
  35 -14.993511 13.480310 -32.935555 -1.570796 0.000000 0.000000
  36 -8.092663 12.925225 9.669147 -2.402449 0.050725 -0.021883
  37 -9.992590 36.545074 -12.474508 -0.911128 0.303068 -2.843140
  time 7
  0 16.455618 -1.957400 0.340185 -0.268987 -0.331875 -0.273046
  1 -0.000003 7.632661 5.380286 1.644840 -0.000000 0.000000
  2 -0.000000 4.955765 0.000000 -0.005713 0.000000 0.000000
  3 0.000001 16.156612 0.000000 -0.000000 -0.000000 0.000000
  4 2.361289 5.150880 2.361295 -0.174091 0.786638 0.000223
  5 -2.361291 5.150869 2.361295 -0.174326 -0.785981 0.000108
  6 2.361288 5.150873 -2.361295 -0.174150 2.355119 0.000140
  7 -2.361292 5.150872 -2.361299 -0.174385 -2.355777 0.000191
  8 0.208517 0.000000 -23.612854 1.570796 -0.000000 -1.570796
  9 18.926842 39.143330 11.606188 1.570796 0.000000 -1.570796
  10 11.672379 13.480309 -20.444241 -1.570796 0.000000 0.000000
  11 7.382592 10.356836 10.877747 -1.989254 -0.068101 0.022682
  12 12.502014 28.824520 -8.295961 -1.134428 -0.180577 3.118616
  13 0.000000 30.307138 4.083380 -0.283246 -0.206782 0.020916
  14 0.000000 2.088998 -0.000001 -2.827576 0.291849 0.080517
  15 8.092661 5.945973 -0.000004 0.104290 0.233477 -0.010192
  16 0.000002 15.122825 0.000001 -1.587592 0.000000 0.000001
  17 -0.000001 10.272247 -0.000001 2.615718 -0.004799 -0.069823
  18 0.000002 4.132119 -1.927663 -0.017865 -0.017601 0.013599
  19 -8.092661 5.945975 0.000001 0.811662 -0.093096 -0.007888
  20 0.000005 15.122827 0.000000 -1.726638 0.000000 -0.000001
  21 -0.000001 10.272247 -0.000002 2.220793 0.073227 0.079451
  22 0.000001 4.132121 -1.927666 0.000000 0.000000 -0.000000
  23 0.000000 11.126799 -0.000001 0.177307 0.029038 -0.051248
  24 5.835803 2.795461 0.869678 -0.103699 -0.086690 -1.868943
  25 -0.000003 5.475369 -0.000000 -0.668122 -0.475997 -0.503960
  26 -0.000003 11.557736 -0.000000 -0.942290 0.006012 0.014531
  27 0.000001 7.947079 0.000001 0.138860 0.674859 0.182031
  28 0.000001 6.243678 -0.000000 -0.157211 0.000000 -0.000000
  29 -0.000000 2.631207 0.000000 0.027975 0.087416 0.066036
  30 -5.835800 2.795462 0.869676 -0.385491 0.137491 1.378487
  31 -0.000002 5.475367 0.000001 -0.331412 -0.101959 1.123757
  32 0.000002 11.557735 0.000000 -1.367268 -0.012943 -0.017593
  33 0.000000 7.947079 -0.000003 0.521854 -0.925661 -0.155687
  34 -23.983181 38.666245 10.152540 1.570796 0.000000 1.570796
  35 -14.993512 13.480310 -34.612625 -1.570796 0.000000 0.000000
  36 -8.092661 9.633120 1.058941 -1.817351 0.080779 0.031811
  37 -10.791193 34.026588 -13.362184 -0.880738 0.360048 -2.807349
end
