version 1
nodes
0 "drill" -1
1 "drill_lever" 0
2 "drill_lever anim_help" 1
3 "drill_spin" 0
4 "drill_claw2" 3
5 "drill_claw1" 3
6 "drill_claw3" 3
7 "drill_claw4" 3
8 "base" -1
9 "ik arm.R" 8
10 "ik leg R" 8
11 "t leg.R" 8
12 "t hand.R" 8
13 "spine low" 8
14 "hip" 13
15 "leg up.R" 14
16 "leg low.R" 15
17 "foot.R" 16
18 "tow.R" 17
19 "leg up.L" 14
20 "leg low.L" 19
21 "foot.L" 20
22 "tow.L" 21
23 "spine up" 13
24 "shoulder.R" 23
25 "arm up.R" 24
26 "arm low.R" 25
27 "hand.R" 26
28 "neck" 23
29 "head" 28
30 "shoulder.L" 23
31 "arm up.L" 30
32 "arm low.L" 31
33 "hand.L" 32
34 "ik arm.L" 8
35 "ik leg L" 8
36 "t leg.L" 8
37 "t hand.L" 8
end
skeleton
  time 0
  0 16.911413 -2.169297 -1.152735 -0.253447 -0.410525 -0.314102
  1 -0.000002 7.632662 5.380288 1.644840 -0.000000 0.000000
  2 -0.000002 4.955765 0.000002 -0.005713 -0.000000 0.000000
  3 0.000002 16.156612 -0.000001 -0.000000 -0.000000 -0.000000
  4 2.361291 5.150872 2.361292 -0.174091 0.786637 0.000223
  5 -2.361291 5.150876 2.361291 -0.174326 -0.785981 0.000108
  6 2.361293 5.150877 -2.361298 -0.174150 2.355119 0.000140
  7 -2.361287 5.150876 -2.361298 -0.174384 -2.355778 0.000191
  8 0.208517 0.000000 -23.612854 1.570796 -0.000000 -1.570796
  9 18.926842 39.143330 11.606188 1.570796 0.000000 -1.570796
  10 8.092663 13.480309 -20.444241 -1.570796 0.000000 0.000000
  11 8.092665 3.278047 -7.793547 -1.595738 0.005485 0.063662
  12 12.378498 26.762482 -8.019425 -1.215398 -0.146114 3.140692
  13 0.000001 26.296986 1.147140 -0.050447 -0.161968 0.118291
  14 0.000000 2.088999 0.000000 -3.110084 0.166652 -0.111564
  15 8.092663 5.945972 -0.000004 0.904952 0.007040 -0.008730
  16 0.000000 15.122833 0.000001 -1.206926 0.000000 0.000001
  17 -0.000001 10.272247 0.000000 1.847749 0.004382 -0.056171
  18 0.000001 4.132119 -1.927665 -0.000000 -0.000000 -0.000000
  19 -8.092660 5.945974 0.000001 0.403548 -0.178185 0.015064
  20 -0.000003 15.122828 0.000002 -1.443208 -0.000000 -0.000000
  21 0.000001 10.272249 0.000000 2.615671 0.060282 0.073121
  22 -0.000000 4.132120 -1.927665 -0.012507 0.000000 -0.000000
  23 0.000000 11.126797 0.000000 0.026596 0.102660 0.003866
  24 5.835802 2.795464 0.869678 -0.103699 -0.086690 -1.868943
  25 -0.000004 5.475370 0.000000 -0.337585 -0.493485 -0.663916
  26 0.000004 11.557744 0.000001 -1.170346 0.009571 0.016543
  27 -0.000001 7.947078 -0.000001 0.122455 0.737626 0.312523
  28 0.000001 6.243678 -0.000000 -0.157211 0.000000 0.000000
  29 0.000001 2.631207 0.000000 -0.264660 -0.137852 -0.173817
  30 -5.835800 2.795464 0.869676 -0.385490 0.137491 1.378487
  31 -0.000002 5.475368 -0.000001 -0.535909 0.160247 0.653628
  32 -0.000005 11.557737 0.000003 -1.526403 -0.015779 -0.017947
  33 -0.000001 7.947080 -0.000002 1.195857 -0.972656 -0.913002
  34 -24.985842 38.666245 7.563178 1.570796 0.000000 1.570796
  35 -14.993512 13.480310 -35.248756 -1.570796 0.000000 0.000000
  36 -8.092662 3.309849 3.915312 -1.565812 0.084637 0.000000
  37 -10.775416 32.176697 -13.486045 -0.949894 0.419030 -2.824732
  time 1
  0 16.047140 -2.169298 0.961807 -0.356076 -0.366442 -0.264955
  1 -0.000001 7.632662 5.380286 1.644841 -0.000000 0.000000
  2 0.000000 4.955767 -0.000001 -0.005713 0.000000 -0.000000
  3 0.000001 16.156610 -0.000001 0.000000 -0.000000 -0.000000
  4 2.361289 5.150872 2.361293 -0.174091 0.786638 0.000223
  5 -2.361292 5.150876 2.361292 -0.174326 -0.785980 0.000108
  6 2.361294 5.150880 -2.361294 -0.174150 2.355119 0.000140
  7 -2.361290 5.150878 -2.361295 -0.174384 -2.355777 0.000191
  8 0.208517 0.000000 -23.612854 1.570796 -0.000000 -1.570796
  9 18.926842 39.143330 11.606188 1.570796 0.000000 -1.570796
  10 8.092663 13.480309 -20.444241 -1.570796 0.000000 0.000000
  11 8.092662 3.278046 -3.407711 -1.595738 0.005485 0.063662
  12 12.073153 30.253712 -7.604375 -1.145657 -0.158625 -3.074595
  13 -0.291985 29.294842 1.470497 0.226443 -0.218508 0.069727
  14 -0.000000 2.088997 0.000000 2.895764 0.196343 -0.119004
  15 8.092661 5.945972 -0.000003 0.610978 0.012671 -0.021161
  16 -0.000000 15.122829 0.000003 -0.942032 0.000000 0.000000
  17 -0.000000 10.272243 -0.000001 1.877138 -0.003348 -0.046095
  18 0.000003 4.132119 -1.927665 -0.000000 -0.000000 -0.000000
  19 -8.092661 5.945973 0.000001 0.297016 -0.171169 -0.005122
  20 0.000001 15.122832 -0.000000 -1.034166 0.000000 -0.000000
  21 -0.000000 10.272243 -0.000000 2.315465 0.060592 0.062024
  22 0.000000 4.132120 -1.927663 -0.012507 0.000000 -0.000000
  23 0.000000 11.126796 -0.000000 0.088500 0.101408 0.000385
  24 5.835802 2.795464 0.869678 -0.103699 -0.086690 -1.868943
  25 0.000006 5.475372 0.000000 -0.493063 -0.707601 -0.590696
  26 -0.000001 11.557734 -0.000002 -0.760329 0.003558 0.012382
  27 0.000003 7.947082 0.000003 0.111240 0.885245 0.179471
  28 0.000000 6.243680 0.000000 -0.157211 0.000000 -0.000000
  29 0.000000 2.631203 0.000000 -0.032619 -0.156621 -0.168954
  30 -5.835801 2.795463 0.869676 -0.385491 0.137491 1.378487
  31 0.000000 5.475369 -0.000000 -0.561222 0.303432 0.910908
  32 0.000001 11.557743 0.000001 -0.727187 -0.003154 -0.011941
  33 -0.000002 7.947082 0.000001 0.052133 -1.242157 0.219922
  34 -24.752760 38.666245 8.976809 1.570796 0.000000 1.570796
  35 -14.993512 13.480310 -35.248756 -1.570796 0.000000 0.000000
  36 -8.092662 3.309849 4.370880 -1.565812 0.084637 0.000000
  37 -11.475211 33.452785 -13.130862 -0.883669 0.384481 -2.720335
  time 2
  0 15.182871 -2.169298 3.076345 -0.454632 -0.318016 -0.221614
  1 -0.000003 7.632662 5.380288 1.644840 -0.000000 0.000000
  2 0.000001 4.955767 0.000000 -0.005713 0.000000 0.000000
  3 -0.000002 16.156610 -0.000002 0.000000 -0.000000 0.000000
  4 2.361294 5.150875 2.361292 -0.174091 0.786638 0.000223
  5 -2.361288 5.150874 2.361289 -0.174326 -0.785980 0.000108
  6 2.361289 5.150879 -2.361296 -0.174150 2.355119 0.000140
  7 -2.361291 5.150874 -2.361293 -0.174384 -2.355777 0.000191
  8 0.208517 0.000000 -23.612854 1.570796 -0.000000 -1.570796
  9 18.926842 39.143330 11.606188 1.570796 0.000000 -1.570796
  10 8.092663 13.480309 -20.444241 -1.570796 0.000000 0.000000
  11 8.092662 3.278046 0.978126 -1.595738 0.005485 0.063662
  12 11.657097 33.682323 -7.278989 -1.076764 -0.175756 -3.007576
  13 -0.291985 29.294842 1.470497 0.226443 -0.218508 0.069727
  14 -0.000000 2.088997 0.000000 2.895764 0.196343 -0.119004
  15 8.092661 5.945972 -0.000003 0.456967 0.011302 -0.023734
  16 -0.000001 15.122829 0.000001 -1.047806 0.000000 0.000000
  17 -0.000000 10.272243 -0.000001 2.136634 0.008303 -0.042510
  18 0.000002 4.132119 -1.927665 -0.000000 -0.000000 -0.000000
  19 -8.092661 5.945973 0.000001 0.272962 -0.170106 -0.001697
  20 -0.000003 15.122828 0.000000 -1.025034 -0.000000 -0.000000
  21 0.000000 10.272244 -0.000001 2.329898 0.061223 0.059700
  22 -0.000000 4.132120 -1.927665 -0.012507 0.000000 -0.000000
  23 0.000000 11.126796 -0.000000 0.150323 0.088979 -0.004940
  24 5.835803 2.795459 0.869680 -0.103699 -0.086690 -1.868944
  25 -0.000002 5.475368 -0.000002 -0.428338 -0.673569 -0.478947
  26 0.000004 11.557740 -0.000003 -1.263649 0.011144 0.017124
  27 0.000000 7.947077 0.000002 0.783149 0.782021 0.506227
  28 0.000001 6.243678 0.000000 -0.157211 0.000000 -0.000000
  29 0.000000 2.631203 0.000001 0.187767 -0.154599 -0.045978
  30 -5.835800 2.795465 0.869675 -0.385491 0.137491 1.378487
  31 0.000001 5.475369 -0.000001 -0.435740 0.308585 0.901739
  32 0.000002 11.557738 0.000001 -0.948100 -0.006097 -0.014591
  33 -0.000001 7.947076 -0.000000 0.598926 -1.389324 -0.241185
  34 -24.752760 38.666245 8.976809 1.570796 0.000000 1.570796
  35 -14.993512 13.480310 -35.248756 -1.570796 0.000000 0.000000
  36 -8.092662 3.309849 4.826448 -1.565812 0.084637 0.000000
  37 -12.110671 34.643478 -12.707706 -0.822556 0.343886 -2.620069
end
