version 1
nodes
0 "drill" -1
1 "drill_lever" 0
2 "drill_lever anim_help" 1
3 "drill_spin" 0
4 "drill_claw2" 3
5 "drill_claw1" 3
6 "drill_claw3" 3
7 "drill_claw4" 3
8 "base" -1
9 "ik arm.R" 8
10 "ik leg R" 8
11 "t leg.R" 8
12 "t hand.R" 8
13 "spine low" 8
14 "hip" 13
15 "leg up.R" 14
16 "leg low.R" 15
17 "foot.R" 16
18 "tow.R" 17
19 "leg up.L" 14
20 "leg low.L" 19
21 "foot.L" 20
22 "tow.L" 21
23 "spine up" 13
24 "shoulder.R" 23
25 "arm up.R" 24
26 "arm low.R" 25
27 "hand.R" 26
28 "neck" 23
29 "head" 28
30 "shoulder.L" 23
31 "arm up.L" 30
32 "arm low.L" 31
33 "hand.L" 32
34 "ik arm.L" 8
35 "ik leg L" 8
36 "t leg.L" 8
37 "t hand.L" 8
end
skeleton
  time 0
  0 18.855497 -4.908604 1.365696 -0.304714 0.129476 -0.109252
  1 -0.000003 7.632662 5.380289 1.644840 -0.000000 0.000000
  2 0.000000 4.955766 0.000001 -0.005713 0.000000 -0.000000
  3 0.000000 16.156614 -0.000001 0.000000 -0.000000 -0.000000
  4 2.361293 5.150881 2.361288 -0.174091 0.786638 0.000223
  5 -2.361294 5.150875 2.361291 -0.174326 -0.785981 0.000108
  6 2.361286 5.150876 -2.361293 -0.174150 2.355119 0.000140
  7 -2.361290 5.150878 -2.361294 -0.174384 -2.355777 0.000191
  8 0.208517 0.000000 -23.612854 1.570796 -0.000000 -1.570796
  9 24.420218 5.669067 9.574875 1.570796 0.000000 -1.570796
  10 11.143945 13.480311 -40.257622 -1.570796 0.000000 0.000000
  11 10.282227 3.215760 2.675476 -1.570796 0.000000 0.000000
  12 13.435337 29.729731 -14.315353 -0.883584 -0.072997 -2.729136
  13 0.591558 29.388645 0.452917 -0.219930 -0.028098 0.053747
  14 0.000000 2.088997 -0.000000 -2.923325 0.039108 -0.046359
  15 8.092660 5.945969 -0.000003 0.271263 0.039256 -0.080687
  16 -0.000001 15.122828 0.000001 -0.985974 -0.000000 0.000001
  17 -0.000000 10.272248 -0.000001 2.282463 -0.082463 0.035365
  18 0.000002 4.132121 -1.927666 -0.000000 -0.000000 -0.000000
  19 -8.092658 5.945970 0.000000 0.404695 -0.005893 0.022223
  20 -0.000001 15.122831 0.000001 -1.023323 -0.000000 -0.000000
  21 -0.000000 10.272249 -0.000000 2.189229 0.017687 -0.014689
  22 -0.000000 4.132121 -1.927664 -0.000000 0.000000 -0.000000
  23 0.000000 11.126796 -0.000000 -0.272742 -0.035433 -0.158561
  24 5.835800 2.795462 0.869677 -0.270696 -0.762080 -1.215079
  25 0.000000 5.475368 0.000002 -1.560996 0.299623 -1.464678
  26 0.000004 11.557738 -0.000003 -1.003097 0.006916 0.015147
  27 0.000001 7.947081 -0.000000 0.475114 -0.099958 0.097022
  28 0.000000 6.243680 0.000001 -0.157211 0.000000 -0.000000
  29 0.000000 2.631204 -0.000002 -0.025296 0.064583 0.073964
  30 -5.835800 2.795464 0.869677 -0.411273 0.069856 1.488942
  31 0.000002 5.475368 -0.000002 -0.966530 -0.254193 0.876713
  32 -0.000002 11.557739 -0.000000 -1.371162 -0.013012 -0.017606
  33 0.000001 7.947077 -0.000000 1.782373 -0.675555 -1.028354
  34 -32.876369 39.010323 19.055315 1.570796 0.000000 1.570796
  35 -8.092654 13.480310 -38.703598 -1.570796 0.000000 0.000000
  36 -8.092661 3.215760 0.000000 -1.570796 0.000000 0.000000
  37 -7.047793 36.351402 -18.815952 -0.494982 0.051489 -2.780171
  time 1
  0 18.855497 -4.908604 1.365696 -0.264442 0.096239 -0.242738
  1 -0.000001 7.632662 5.380288 1.644840 -0.000000 0.000000
  2 -0.000000 4.955765 0.000000 -0.005714 -0.000000 0.000000
  3 0.000000 16.156610 0.000000 0.000000 -0.000000 0.000000
  4 2.361291 5.150873 2.361287 -0.174091 0.786638 0.000223
  5 -2.361286 5.150875 2.361286 -0.174326 -0.785981 0.000108
  6 2.361293 5.150874 -2.361295 -0.174150 2.355119 0.000140
  7 -2.361291 5.150873 -2.361299 -0.174384 -2.355777 0.000191
  8 0.208517 0.000000 -23.612854 1.570796 -0.000000 -1.570796
  9 24.420218 5.669067 9.574875 1.570796 0.000000 -1.570796
  10 11.143945 13.480311 -40.257622 -1.570796 0.000000 0.000000
  11 10.282227 3.215760 2.675476 -1.570796 0.000000 0.000000
  12 12.671153 30.227192 -13.303234 -0.798433 0.083331 -2.735524
  13 0.851900 29.362991 0.452917 -0.215685 -0.101691 0.054851
  14 0.000000 2.088999 0.000000 -2.930481 0.110976 -0.032062
  15 8.092662 5.945972 -0.000004 0.274352 0.036106 -0.067376
  16 -0.000002 15.122828 0.000001 -0.993437 -0.000000 0.000001
  17 0.000001 10.272248 -0.000002 2.287699 -0.071506 0.027004
  18 0.000002 4.132120 -1.927664 -0.000000 -0.000000 -0.000000
  19 -8.092660 5.945973 0.000001 0.406042 -0.009357 0.035292
  20 0.000002 15.122831 -0.000000 -1.025619 0.000000 -0.000000
  21 -0.000000 10.272247 -0.000000 2.189880 0.028106 -0.023307
  22 -0.000000 4.132120 -1.927666 0.000000 0.000000 -0.000000
  23 0.000001 11.126800 0.000001 -0.269971 -0.033182 -0.150437
  24 5.835801 2.795461 0.869677 -0.270696 -0.762080 -1.215079
  25 0.000001 5.475368 -0.000000 -1.534788 0.220428 -1.349363
  26 0.000001 11.557741 0.000002 -1.101825 0.008456 0.016026
  27 0.000001 7.947077 0.000001 0.633500 -0.100002 0.306424
  28 0.000001 6.243676 -0.000000 -0.157211 0.000000 -0.000000
  29 -0.000000 2.631209 0.000002 -0.017649 0.131989 0.322114
  30 -5.835800 2.795463 0.869677 -0.411273 0.069856 1.488942
  31 0.000000 5.475368 -0.000002 -0.930473 -0.332046 0.840513
  32 -0.000007 11.557739 -0.000002 -1.332406 -0.012333 -0.017456
  33 -0.000002 7.947074 -0.000000 1.745374 -0.785804 -0.905906
  34 -32.876369 39.010323 19.055315 1.570796 0.000000 1.570796
  35 -8.092654 13.480310 -38.703598 -1.570796 0.000000 0.000000
  36 -8.092661 3.215760 0.000000 -1.570796 0.000000 0.000000
  37 -6.554394 36.775425 -19.973307 -0.485643 0.194788 -2.812686
  time 2
  0 18.855497 -4.908604 1.365696 -0.219944 0.068508 -0.377856
  1 -0.000002 7.632662 5.380288 1.644840 -0.000000 0.000000
  2 0.000001 4.955766 0.000001 -0.005713 -0.000000 0.000000
  3 -0.000000 16.156612 -0.000001 0.000000 -0.000000 -0.000000
  4 2.361290 5.150877 2.361294 -0.174091 0.786638 0.000223
  5 -2.361290 5.150873 2.361292 -0.174326 -0.785981 0.000108
  6 2.361298 5.150876 -2.361291 -0.174150 2.355119 0.000140
  7 -2.361290 5.150871 -2.361296 -0.174384 -2.355777 0.000191
  8 0.208517 0.000000 -23.612854 1.570796 -0.000000 -1.570796
  9 24.420218 5.669067 9.574875 1.570796 0.000000 -1.570796
  10 11.143945 13.480311 -40.257622 -1.570796 0.000000 0.000000
  11 10.282227 3.215760 2.675476 -1.570796 0.000000 0.000000
  12 11.848228 30.385675 -12.301950 -0.724494 0.225638 -2.761209
  13 1.112243 29.337336 0.452917 -0.211472 -0.175389 0.055649
  14 -0.000000 2.088997 -0.000000 -2.936677 0.183035 -0.018116
  15 8.092662 5.945972 -0.000004 0.277316 0.032947 -0.054051
  16 0.000001 15.122833 0.000001 -1.000264 0.000000 0.000001
  17 0.000003 10.272249 0.000000 2.292286 -0.060444 0.018785
  18 0.000002 4.132120 -1.927664 -0.000000 -0.000000 -0.000000
  19 -8.092660 5.945973 0.000001 0.407255 -0.012812 0.048333
  20 0.000001 15.122831 -0.000001 -1.027288 0.000000 -0.000000
  21 0.000000 10.272249 0.000000 2.189906 0.038498 -0.031914
  22 -0.000000 4.132120 -1.927664 0.000000 0.000000 -0.000000
  23 0.000000 11.126794 -0.000001 -0.251498 -0.020252 -0.136018
  24 5.835800 2.795463 0.869678 -0.270696 -0.762080 -1.215079
  25 -0.000001 5.475369 0.000002 -1.515209 0.128131 -1.237504
  26 0.000003 11.557739 0.000001 -1.126958 0.008861 0.016225
  27 0.000000 7.947077 0.000001 0.721110 -0.084514 0.517643
  28 0.000000 6.243679 0.000001 -0.157211 0.000000 -0.000000
  29 -0.000000 2.631205 -0.000001 -0.018551 0.257066 0.417305
  30 -5.835799 2.795461 0.869676 -0.411273 0.069856 1.488942
  31 0.000001 5.475370 -0.000001 -0.898657 -0.382102 0.792876
  32 -0.000000 11.557746 -0.000001 -1.267965 -0.011215 -0.017145
  33 -0.000001 7.947084 -0.000001 1.659543 -0.897531 -0.751080
  34 -32.876369 39.010323 19.055315 1.570796 0.000000 1.570796
  35 -8.092654 13.480310 -38.703598 -1.570796 0.000000 0.000000
  36 -8.092661 3.215760 0.000000 -1.570796 0.000000 0.000000
  37 -5.888958 37.226681 -21.038963 -0.480843 0.339099 -2.845267
  time 3
  0 18.855497 -4.908604 1.365696 -0.172445 0.047126 -0.513133
  1 -0.000001 7.632663 5.380287 1.644840 -0.000000 0.000000
  2 -0.000001 4.955766 0.000002 -0.005713 -0.000000 -0.000000
  3 -0.000002 16.156612 0.000000 0.000000 -0.000000 -0.000000
  4 2.361288 5.150878 2.361291 -0.174091 0.786638 0.000223
  5 -2.361287 5.150872 2.361295 -0.174326 -0.785981 0.000108
  6 2.361293 5.150877 -2.361294 -0.174150 2.355119 0.000140
  7 -2.361288 5.150877 -2.361291 -0.174385 -2.355777 0.000192
  8 0.208517 0.000000 -23.612854 1.570796 -0.000000 -1.570796
  9 24.420218 5.669067 9.574875 1.570796 0.000000 -1.570796
  10 11.143945 13.480311 -40.257622 -1.570796 0.000000 0.000000
  11 11.302676 3.215760 4.005751 -1.570796 0.000000 0.000000
  12 10.946281 30.279762 -11.368198 -0.669670 0.359750 -2.801463
  13 1.372585 29.311682 0.452917 -0.207258 -0.248989 0.056140
  14 0.000000 2.088996 -0.000000 -2.941929 0.255074 -0.004424
  15 8.092662 5.945972 -0.000004 0.205255 0.016321 -0.085900
  16 -0.000001 15.122831 0.000000 -0.961984 0.000000 0.000001
  17 -0.000000 10.272247 -0.000002 2.325005 -0.070783 0.051367
  18 0.000002 4.132120 -1.927664 -0.000000 -0.000000 -0.000000
  19 -8.092660 5.945973 0.000001 0.408333 -0.016253 0.061330
  20 -0.000000 15.122829 0.000001 -1.028345 0.000000 -0.000000
  21 -0.000001 10.272245 -0.000001 2.189320 0.048835 -0.040517
  22 0.000000 4.132121 -1.927664 0.000000 0.000000 -0.000000
  23 0.000000 11.126791 -0.000001 -0.201945 0.012678 -0.129163
  24 5.835801 2.795465 0.869678 -0.270696 -0.762080 -1.215079
  25 0.000004 5.475370 -0.000005 -1.484341 0.024317 -1.134255
  26 -0.000001 11.557742 0.000003 -1.109567 0.008581 0.016090
  27 -0.000002 7.947079 -0.000003 0.770962 -0.042812 0.729915
  28 -0.000000 6.243680 -0.000000 -0.157211 0.000000 0.000000
  29 0.000000 2.631206 0.000000 -0.056125 0.332724 0.427197
  30 -5.835800 2.795466 0.869678 -0.411273 0.069857 1.488942
  31 0.000001 5.475368 -0.000003 -0.889780 -0.383104 0.769133
  32 0.000006 11.557737 0.000002 -1.147786 -0.009200 -0.016381
  33 -0.000001 7.947076 -0.000001 1.447629 -0.999061 -0.491036
  34 -32.876369 39.010323 19.055315 1.570796 0.000000 1.570796
  35 -8.092654 13.480310 -38.703598 -1.570796 0.000000 0.000000
  36 -8.092661 3.215760 0.000000 -1.570796 0.000000 0.000000
  37 -5.073187 37.690464 -21.978178 -0.481009 0.482697 -2.878999
  time 4
  0 18.439919 -7.045431 1.365696 0.010625 -0.063306 -0.552808
  1 -0.000003 7.632661 5.380289 1.644840 -0.000000 0.000000
  2 -0.000001 4.955762 0.000001 -0.005713 0.000000 -0.000000
  3 -0.000001 16.156612 -0.000000 0.000000 -0.760740 -0.000000
  4 2.361289 5.150875 2.361298 -0.174091 0.786638 0.000223
  5 -2.361290 5.150875 2.361293 -0.174326 -0.785981 0.000108
  6 2.361292 5.150874 -2.361292 -0.174150 2.355119 0.000140
  7 -2.361295 5.150874 -2.361288 -0.174385 -2.355777 0.000191
  8 0.208517 0.000000 -23.612854 1.570796 -0.000000 -1.570796
  9 24.420218 5.669067 9.574875 1.570796 0.000000 -1.570796
  10 11.143945 13.480311 -40.257622 -1.570796 0.000000 0.000000
  11 12.323129 3.215760 5.336026 -1.570796 0.000000 0.000000
  12 13.132570 28.404484 -10.010201 -0.829852 0.429189 -2.993191
  13 1.408131 28.021933 0.452917 -0.221422 -0.364286 0.016337
  14 -0.000000 2.088997 -0.000000 -2.911101 0.358773 0.066584
  15 8.092660 5.945973 -0.000004 0.190263 0.003299 -0.128936
  16 -0.000001 15.122826 0.000000 -1.110159 0.000000 0.000001
  17 0.000001 10.272246 -0.000001 2.486516 -0.104461 0.075789
  18 0.000002 4.132120 -1.927664 -0.000000 -0.000000 -0.000000
  19 -8.092659 5.945972 0.000001 0.480576 -0.019458 0.073444
  20 -0.000002 15.122827 0.000002 -1.225914 -0.000000 -0.000000
  21 0.000001 10.272247 0.000000 2.314110 0.064070 -0.040858
  22 -0.000000 4.132121 -1.927662 0.000000 0.000000 -0.000000
  23 -0.000000 11.126799 0.000001 -0.075198 0.092801 -0.150713
  24 5.835800 2.795462 0.869678 -0.270696 -0.762080 -1.215079
  25 0.000001 5.475369 0.000001 -1.274443 0.043639 -1.123095
  26 0.000002 11.557742 0.000001 -1.215552 0.010328 0.016846
  27 -0.000000 7.947078 0.000001 0.710932 0.137012 0.701135
  28 0.000001 6.243678 -0.000000 -0.157211 0.000000 0.000000
  29 0.000000 2.631207 0.000001 -0.141948 0.296255 0.388361
  30 -5.835801 2.795460 0.869675 -0.411273 0.069856 1.488942
  31 0.000006 5.475368 -0.000001 -0.917918 -0.255035 0.981663
  32 0.000006 11.557740 0.000001 -1.537393 -0.015975 -0.017954
  33 -0.000001 7.947077 0.000001 1.635157 -0.542410 -0.579690
  34 -32.876369 39.010323 19.055315 1.570796 0.000000 1.570796
  35 -8.092654 13.480310 -38.703598 -1.570796 0.000000 0.000000
  36 -8.092661 3.215760 0.000000 -1.570796 0.000000 0.000000
  37 -1.481410 39.059723 -19.388618 -0.687331 0.550508 -3.083359
  time 5
  0 18.024338 -9.182261 1.365696 0.200183 -0.164490 -0.612632
  1 -0.000002 7.632662 5.380287 1.644840 -0.000000 0.000000
  2 -0.000001 4.955766 0.000000 -0.005713 0.000000 0.000000
  3 -0.000003 16.156612 -0.000001 0.000000 -1.421253 0.000000
  4 2.361291 5.150870 2.361297 -0.174091 0.786638 0.000223
  5 -2.361291 5.150875 2.361295 -0.174326 -0.785980 0.000108
  6 2.361295 5.150872 -2.361288 -0.174150 2.355119 0.000140
  7 -2.361290 5.150878 -2.361297 -0.174385 -2.355777 0.000192
  8 0.208517 0.000000 -23.612854 1.570796 -0.000000 -1.570796
  9 24.420218 5.669067 9.574875 1.570796 0.000000 -1.570796
  10 11.143945 13.480311 -40.257622 -1.570796 0.000000 0.000000
  11 12.323129 3.215760 5.336026 -1.570796 0.000000 0.000000
  12 15.117620 26.272985 -8.980687 -1.020966 0.461719 3.084558
  13 1.443677 26.732185 0.452917 -0.231169 -0.480029 -0.023749
  14 -0.000000 2.088998 -0.000000 -2.870758 0.460006 0.144345
  15 8.092661 5.945972 -0.000004 0.241860 0.003229 -0.128626
  16 -0.000001 15.122828 -0.000001 -1.295689 0.000000 0.000001
  17 -0.000000 10.272246 0.000002 2.620953 -0.113334 0.061043
  18 0.000002 4.132119 -1.927664 -0.000000 -0.000000 -0.000000
  19 -8.092659 5.945973 0.000001 0.541872 -0.023079 0.087148
  20 0.000002 15.122828 -0.000001 -1.399831 0.000000 -0.000000
  21 0.000002 10.272248 -0.000000 2.426142 0.080968 -0.039670
  22 -0.000000 4.132119 -1.927664 0.000000 0.000000 -0.000000
  23 -0.000000 11.126796 -0.000000 0.085727 0.197352 -0.178334
  24 5.835800 2.795465 0.869677 -0.270696 -0.762080 -1.215079
  25 0.000002 5.475367 -0.000001 -1.068764 0.053139 -1.107621
  26 -0.000003 11.557750 0.000002 -1.244398 0.010816 0.017018
  27 -0.000001 7.947079 0.000001 0.617080 0.343069 0.649982
  28 -0.000001 6.243679 -0.000000 -0.157211 0.000000 0.000000
  29 0.000001 2.631205 -0.000000 -0.241729 0.193170 0.318181
  30 -5.835800 2.795462 0.869677 -0.411273 0.069857 1.488942
  31 -0.000002 5.475368 -0.000001 -0.880935 -0.138759 1.038928
  32 0.000001 11.557742 0.000002 -1.659581 -0.018167 -0.017893
  33 -0.000001 7.947079 -0.000001 1.973637 -0.693345 -0.904052
  34 -29.288118 32.767330 3.614901 1.570796 0.000000 1.570796
  35 -8.092654 13.480310 -38.703598 -1.570796 0.000000 0.000000
  36 -8.092661 3.215760 0.000000 -1.570796 0.000000 0.000000
  37 0.676156 39.780998 -17.822189 -0.422235 0.664325 -2.749893
  time 6
  0 18.024338 -9.182261 0.974039 0.232708 -0.172606 -0.632720
  1 -0.000002 7.632663 5.380289 1.644840 -0.000000 0.000000
  2 0.000001 4.955766 -0.000001 -0.005713 -0.000000 0.000000
  3 -0.000003 16.156612 0.000001 -0.000000 -2.323954 -0.000000
  4 2.361290 5.150871 2.361302 -0.174091 0.786638 0.000223
  5 -2.361285 5.150872 2.361296 -0.174326 -0.785981 0.000108
  6 2.361295 5.150881 -2.361295 -0.174150 2.355119 0.000140
  7 -2.361287 5.150869 -2.361290 -0.174385 -2.355778 0.000191
  8 0.208517 0.000000 -23.612854 1.570796 -0.000000 -1.570796
  9 24.420218 5.669067 9.574875 1.570796 0.000000 -1.570796
  10 11.143945 13.480311 -40.257622 -1.570796 0.000000 0.000000
  11 12.323129 3.215760 5.336026 -1.570796 0.000000 0.000000
  12 14.984332 25.551950 -8.890136 -1.045686 0.467615 3.044447
  13 1.273253 27.263477 0.452917 -0.231811 -0.389978 -0.007730
  14 0.000000 2.088996 -0.000000 -2.888737 0.377086 0.102206
  15 8.092662 5.945972 -0.000004 0.220409 0.005255 -0.137568
  16 0.000000 15.122828 0.000002 -1.218586 -0.000000 0.000001
  17 -0.000001 10.272251 0.000000 2.564434 -0.118355 0.070480
  18 0.000002 4.132121 -1.927664 -0.000000 -0.000000 -0.000000
  19 -8.092660 5.945974 0.000001 0.517648 -0.019325 0.072945
  20 -0.000002 15.122829 0.000000 -1.332498 -0.000000 -0.000000
  21 0.000000 10.272248 -0.000001 2.383746 0.066299 -0.036058
  22 -0.000000 4.132121 -1.927666 0.000000 0.000000 -0.000000
  23 0.000000 11.126793 -0.000001 0.164732 0.249874 -0.187844
  24 5.835800 2.795462 0.869677 -0.270696 -0.762080 -1.215079
  25 0.000002 5.475371 -0.000002 -0.854110 0.054175 -1.193423
  26 0.000004 11.557744 0.000001 -1.218238 0.010372 0.016861
  27 -0.000002 7.947077 0.000002 0.493267 0.453932 0.646057
  28 -0.000001 6.243682 0.000000 -0.157211 0.000000 0.000000
  29 -0.000000 2.631206 0.000000 -0.317996 0.078724 0.240582
  30 -5.835801 2.795463 0.869677 -0.411273 0.069856 1.488942
  31 -0.000001 5.475369 0.000000 -0.958444 -0.023099 1.004889
  32 -0.000005 11.557744 0.000001 -1.270259 -0.011256 -0.017158
  33 0.000000 7.947082 -0.000002 -0.559849 -1.918526 1.631520
  34 -25.699863 26.524338 -11.825513 1.570796 0.000000 1.570796
  35 -8.092654 13.480310 -38.703598 -1.570796 0.000000 0.000000
  36 -8.092661 3.215760 0.000000 -1.570796 0.000000 0.000000
  37 -0.446290 39.564243 -18.871988 0.036845 0.556793 -2.242492
  time 7
  0 18.024338 -9.182261 0.854145 0.242706 -0.174961 -0.638928
  1 -0.000005 7.632660 5.380286 1.644840 -0.000000 0.000000
  2 0.000001 4.955765 -0.000001 -0.005713 -0.000000 0.000000
  3 -0.000002 16.156610 0.000001 -0.000000 -3.005603 -0.000000
  4 2.361296 5.150872 2.361295 -0.174091 0.786638 0.000223
  5 -2.361295 5.150877 2.361291 -0.174326 -0.785981 0.000108
  6 2.361293 5.150872 -2.361289 -0.174150 2.355119 0.000140
  7 -2.361286 5.150871 -2.361295 -0.174385 -2.355777 0.000191
  8 0.208517 0.000000 -23.612854 1.570796 -0.000000 -1.570796
  9 24.420218 5.669067 9.574875 1.570796 0.000000 -1.570796
  10 11.143945 13.480311 -40.257622 -1.570796 0.000000 0.000000
  11 12.323129 3.215760 5.336026 -1.570796 0.000000 0.000000
  12 14.939306 24.928370 -8.870386 -1.090308 0.475537 3.035282
  13 1.102829 27.794769 0.452917 -0.230914 -0.299356 0.007815
  14 -0.000000 2.088999 0.000000 -2.902617 0.293034 0.062592
  15 8.092662 5.945972 -0.000004 0.196861 0.007189 -0.146106
  16 0.000000 15.122831 -0.000002 -1.137318 -0.000000 0.000001
  17 0.000000 10.272249 -0.000001 2.505789 -0.122104 0.080754
  18 0.000002 4.132120 -1.927664 -0.000000 -0.000000 -0.000000
  19 -8.092660 5.945973 0.000001 0.492056 -0.015728 0.059346
  20 -0.000001 15.122829 -0.000000 -1.261730 -0.000000 -0.000000
  21 -0.000001 10.272248 0.000001 2.339169 0.052574 -0.031717
  22 -0.000000 4.132120 -1.927664 0.000000 0.000000 -0.000000
  23 0.000000 11.126795 0.000000 0.095948 0.205163 -0.191629
  24 5.835802 2.795463 0.869677 -0.270696 -0.762080 -1.215079
  25 0.000002 5.475370 0.000001 -0.880394 0.106300 -1.236598
  26 0.000001 11.557734 0.000001 -1.068453 0.007926 0.015746
  27 -0.000001 7.947078 -0.000000 0.284571 0.573095 0.583195
  28 -0.000001 6.243679 0.000000 -0.157211 0.000000 0.000000
  29 0.000001 2.631203 -0.000001 -0.346675 0.016603 0.161911
  30 -5.835801 2.795462 0.869676 -0.411273 0.069856 1.488942
  31 0.000003 5.475369 -0.000001 -1.116563 0.031339 0.986142
  32 -0.000004 11.557741 -0.000000 -1.199607 -0.010058 -0.016741
  33 -0.000001 7.947078 -0.000001 2.005847 -1.140480 -0.989694
  34 -26.821196 28.475281 -7.000371 1.570796 0.000000 1.570796
  35 -8.092654 13.480310 -38.703598 -1.570796 0.000000 0.000000
  36 -8.092661 3.215760 0.000000 -1.570796 0.000000 0.000000
  37 0.103767 39.508625 -18.389065 -0.098381 0.627021 -2.401956
  time 8
  0 18.301392 -7.757709 1.024662 0.042980 -0.107511 -0.444543
  1 -0.000003 7.632662 5.380286 1.644840 -0.000000 0.000000
  2 0.000000 4.955768 -0.000000 -0.005714 0.000000 0.000000
  3 -0.000002 16.156610 -0.000001 -0.000000 -0.000000 -0.000000
  4 2.361289 5.150880 2.361294 -0.174091 0.786638 0.000223
  5 -2.361295 5.150871 2.361291 -0.174326 -0.785981 0.000108
  6 2.361288 5.150873 -2.361293 -0.174150 2.355119 0.000140
  7 -2.361295 5.150873 -2.361295 -0.174385 -2.355778 0.000191
  8 0.208517 0.000000 -23.612854 1.570796 -0.000000 -1.570796
  9 24.420218 5.669067 9.574875 1.570796 0.000000 -1.570796
  10 11.143945 13.480311 -40.257622 -1.570796 0.000000 0.000000
  11 12.323129 3.215760 5.336026 -1.570796 0.000000 0.000000
  12 14.784177 26.430813 -10.350080 -0.995134 0.319462 -3.041304
  13 0.932406 28.326061 0.452917 -0.228594 -0.208566 0.023114
  14 0.000000 2.088997 -0.000000 -2.912810 0.208359 0.024940
  15 8.092660 5.945972 -0.000004 0.170751 0.009028 -0.154230
  16 0.000001 15.122830 -0.000001 -1.050623 0.000000 0.000000
  17 0.000000 10.272248 0.000000 2.444246 -0.124392 0.091856
  18 0.000002 4.132120 -1.927664 -0.000000 -0.000000 -0.000000
  19 -8.092660 5.945973 0.000001 0.464952 -0.012289 0.046357
  20 -0.000001 15.122827 0.000001 -1.187237 -0.000000 -0.000000
  21 0.000002 10.272248 0.000000 2.292264 0.039856 -0.026678
  22 -0.000000 4.132120 -1.927664 0.000000 0.000000 -0.000000
  23 0.000000 11.126799 0.000000 -0.054629 0.105617 -0.188871
  24 5.835801 2.795461 0.869677 -0.270696 -0.762080 -1.215079
  25 -0.000002 5.475369 -0.000000 -1.098723 0.212936 -1.300206
  26 0.000004 11.557738 -0.000001 -1.080889 0.008123 0.015853
  27 -0.000003 7.947074 0.000000 0.309501 0.320591 0.435011
  28 -0.000000 6.243678 0.000000 -0.157211 0.000000 0.000000
  29 0.000001 2.631204 -0.000001 -0.183028 0.013572 0.093424
  30 -5.835800 2.795461 0.869676 -0.411273 0.069857 1.488942
  31 0.000003 5.475369 0.000000 -1.049351 -0.071869 0.980460
  32 -0.000007 11.557742 0.000001 -1.348319 -0.012611 -0.017521
  33 0.000001 7.947076 -0.000001 1.790400 -0.890173 -0.890383
  34 -29.288118 32.767330 3.614902 1.570796 0.000000 1.570796
  35 -8.092654 13.480310 -38.703598 -1.570796 0.000000 0.000000
  36 -8.092661 3.215760 0.000000 -1.570796 0.000000 0.000000
  37 -2.304101 38.421574 -18.568373 -0.363693 0.476423 -2.611873
  time 9
  0 18.578445 -6.333156 1.195179 -0.142377 -0.002520 -0.265071
  1 -0.000003 7.632663 5.380287 1.644840 -0.000000 0.000000
  2 -0.000002 4.955765 0.000001 -0.005713 0.000000 -0.000000
  3 -0.000002 16.156610 -0.000000 0.000000 -0.000000 -0.000000
  4 2.361289 5.150875 2.361297 -0.174091 0.786638 0.000223
  5 -2.361293 5.150874 2.361293 -0.174326 -0.785981 0.000108
  6 2.361288 5.150874 -2.361291 -0.174150 2.355119 0.000140
  7 -2.361293 5.150874 -2.361293 -0.174384 -2.355777 0.000191
  8 0.208517 0.000000 -23.612854 1.570796 -0.000000 -1.570796
  9 24.420218 5.669067 9.574875 1.570796 0.000000 -1.570796
  10 11.143945 13.480311 -40.257622 -1.570796 0.000000 0.000000
  11 11.302676 3.215760 4.894208 -1.570796 0.000000 0.000000
  12 14.372390 27.940214 -12.142152 -0.942210 0.132574 -2.869524
  13 0.761982 28.857355 0.452917 -0.224922 -0.118013 0.038364
  14 0.000000 2.088999 0.000000 -2.919632 0.123558 -0.011234
  15 8.092662 5.945974 -0.000004 0.174812 0.023375 -0.118470
  16 0.000001 15.122829 0.000000 -0.998413 -0.000000 0.000001
  17 -0.000001 10.272249 0.000001 2.389739 -0.102658 0.063675
  18 0.000002 4.132120 -1.927664 -0.000000 -0.000000 -0.000000
  19 -8.092660 5.945975 0.000001 0.435999 -0.009010 0.033981
  20 0.000001 15.122830 -0.000000 -1.108169 0.000000 -0.000000
  21 -0.000000 10.272247 -0.000000 2.242517 0.028204 -0.020987
  22 -0.000000 4.132120 -1.927664 0.000000 0.000000 -0.000000
  23 0.000000 11.126794 -0.000000 -0.204635 0.007598 -0.171249
  24 5.835801 2.795462 0.869677 -0.270696 -0.762080 -1.215079
  25 0.000000 5.475368 -0.000002 -1.370124 0.276637 -1.380365
  26 0.000005 11.557742 -0.000003 -1.027715 0.007292 0.015380
  27 0.000000 7.947080 0.000001 0.336243 0.097614 0.270528
  28 -0.000000 6.243680 0.000000 -0.157211 0.000000 0.000000
  29 0.000000 2.631206 0.000000 0.123514 0.032746 0.051723
  30 -5.835801 2.795463 0.869677 -0.411273 0.069856 1.488942
  31 0.000001 5.475368 -0.000000 -1.017337 -0.193496 0.959607
  32 -0.000009 11.557744 -0.000000 -1.452303 -0.014452 -0.017839
  33 0.000000 7.947081 0.000001 1.716383 -0.633318 -0.885622
  34 -31.755041 37.059383 14.230174 1.570796 0.000000 1.570796
  35 -8.092654 13.480310 -38.703598 -1.570796 0.000000 0.000000
  36 -8.092661 3.215760 0.000000 -1.570796 0.000000 0.000000
  37 -4.477280 37.479065 -18.647188 -0.517323 0.265932 -2.787843
  time 10
  0 18.855497 -4.908604 1.365696 -0.304714 0.129476 -0.109252
  1 -0.000003 7.632662 5.380289 1.644840 -0.000000 0.000000
  2 0.000000 4.955766 0.000001 -0.005713 0.000000 -0.000000
  3 0.000000 16.156614 -0.000001 0.000000 -0.000000 -0.000000
  4 2.361293 5.150881 2.361288 -0.174091 0.786638 0.000223
  5 -2.361294 5.150875 2.361291 -0.174326 -0.785981 0.000108
  6 2.361286 5.150876 -2.361293 -0.174150 2.355119 0.000140
  7 -2.361290 5.150878 -2.361294 -0.174384 -2.355777 0.000191
  8 0.208517 0.000000 -23.612854 1.570796 -0.000000 -1.570796
  9 24.420218 5.669067 9.574875 1.570796 0.000000 -1.570796
  10 11.143945 13.480311 -40.257622 -1.570796 0.000000 0.000000
  11 10.282227 3.215760 4.452390 -1.570796 0.000000 0.000000
  12 13.435337 29.729731 -14.315353 -0.883584 -0.072997 -2.729136
  13 0.591558 29.388645 0.452917 -0.219930 -0.028098 0.053747
  14 0.000000 2.088997 -0.000000 -2.923325 0.039108 -0.046359
  15 8.092660 5.945969 -0.000003 0.174762 0.038366 -0.083635
  16 -0.000001 15.122829 0.000001 -0.936254 0.000000 0.000001
  17 0.000002 10.272249 0.000000 2.329221 -0.085410 0.034223
  18 0.000002 4.132120 -1.927664 -0.000000 -0.000000 -0.000000
  19 -8.092658 5.945970 0.000000 0.404695 -0.005893 0.022223
  20 -0.000001 15.122831 0.000001 -1.023323 -0.000000 -0.000000
  21 -0.000000 10.272249 -0.000000 2.189229 0.017687 -0.014689
  22 -0.000000 4.132121 -1.927664 -0.000000 0.000000 -0.000000
  23 0.000000 11.126796 -0.000000 -0.272742 -0.035433 -0.158561
  24 5.835800 2.795462 0.869677 -0.270696 -0.762080 -1.215079
  25 0.000000 5.475368 0.000002 -1.560996 0.299623 -1.464678
  26 0.000004 11.557738 -0.000003 -1.003097 0.006916 0.015147
  27 0.000001 7.947081 -0.000000 0.475114 -0.099958 0.097022
  28 0.000000 6.243680 0.000001 -0.157211 0.000000 -0.000000
  29 0.000000 2.631204 -0.000002 0.286342 0.046697 0.040562
  30 -5.835800 2.795464 0.869677 -0.411273 0.069856 1.488942
  31 0.000002 5.475368 -0.000002 -0.966530 -0.254193 0.876713
  32 -0.000002 11.557739 -0.000000 -1.371162 -0.013012 -0.017606
  33 0.000001 7.947077 -0.000000 1.782373 -0.675555 -1.028354
  34 -32.876369 39.010323 19.055315 1.570796 0.000000 1.570796
  35 -8.092654 13.480310 -38.703598 -1.570796 0.000000 0.000000
  36 -8.092661 3.215760 0.000000 -1.570796 0.000000 0.000000
  37 -7.047793 36.351402 -18.815952 -0.494982 0.051489 -2.780171
end
