version 1
nodes
0 "drill" -1
1 "drill_lever" 0
2 "drill_lever anim_help" 1
3 "drill_spin" 0
4 "drill_claw2" 3
5 "drill_claw1" 3
6 "drill_claw3" 3
7 "drill_claw4" 3
8 "base" -1
9 "ik arm.R" 8
10 "ik leg R" 8
11 "t leg.R" 8
12 "t hand.R" 8
13 "spine low" 8
14 "hip" 13
15 "leg up.R" 14
16 "leg low.R" 15
17 "foot.R" 16
18 "tow.R" 17
19 "leg up.L" 14
20 "leg low.L" 19
21 "foot.L" 20
22 "tow.L" 21
23 "spine up" 13
24 "shoulder.R" 23
25 "arm up.R" 24
26 "arm low.R" 25
27 "hand.R" 26
28 "neck" 23
29 "head" 28
30 "shoulder.L" 23
31 "arm up.L" 30
32 "arm low.L" 31
33 "hand.L" 32
34 "ik arm.L" 8
35 "ik leg L" 8
36 "t leg.L" 8
37 "t hand.L" 8
end
skeleton
  time 0
  0 15.528832 -7.504544 0.184536 -0.177505 -0.194210 -0.435547
  1 -0.000002 7.632661 5.380289 1.644841 -0.000000 0.000000
  2 -0.000000 4.955762 -0.000000 -0.005714 -0.000000 -0.000000
  3 -0.000000 16.156610 0.000000 -0.000000 -0.000000 -0.000000
  4 2.361288 5.150872 2.361294 -0.174091 0.786638 0.000223
  5 -2.361289 5.150876 2.361297 -0.174326 -0.785980 0.000108
  6 2.361288 5.150874 -2.361293 -0.174150 2.355119 0.000140
  7 -2.361293 5.150874 -2.361292 -0.174385 -2.355778 0.000191
  8 0.208517 0.000000 -23.612854 1.570796 -0.000000 -1.570796
  9 31.649233 28.604221 15.016147 1.570796 0.000000 -1.570796
  10 7.331163 13.480309 -20.444242 -1.570796 0.000000 0.000000
  11 9.830676 3.215760 0.000003 -1.570796 0.000000 0.000000
  12 14.150807 26.080256 -7.279318 -1.088465 0.353245 -2.795376
  13 0.000002 24.557573 -2.446133 0.149888 -0.063865 0.127575
  14 -0.000000 2.088997 0.000000 2.984658 0.043608 -0.135802
  15 8.092661 5.945974 -0.000004 0.496632 -0.067799 -0.107074
  16 0.000002 15.122829 0.000000 -1.639384 0.000001 0.000001
  17 0.000001 10.272248 0.000001 2.713501 -0.069323 0.106096
  18 0.000002 4.132120 -1.927664 -0.000000 -0.000000 -0.000000
  19 -8.092659 5.945975 0.000001 0.724088 0.034430 0.048561
  20 0.000001 15.122828 0.000001 -1.666433 -0.000000 -0.000000
  21 -0.000001 10.272248 -0.000000 2.518425 0.019055 -0.056391
  22 0.000002 4.132121 -1.927663 0.000000 -0.000000 -0.000001
  23 -0.000000 11.126795 0.000000 -0.352414 0.040018 -0.057959
  24 5.835801 2.795460 0.869679 -0.267005 -0.414376 -1.488252
  25 -0.000003 5.475370 0.000001 -0.297148 -0.046335 -0.875680
  26 0.000001 11.557741 -0.000001 -1.461197 0.014608 0.017855
  27 -0.000002 7.947076 -0.000000 0.482636 0.440789 0.924315
  28 0.000001 6.243679 0.000001 -0.157211 0.000000 -0.000000
  29 0.000000 2.631207 0.000000 -0.384219 -0.205529 0.128357
  30 -5.835801 2.795465 0.869676 -0.478627 0.178898 1.532548
  31 -0.000004 5.475370 -0.000001 -1.336193 -0.096687 0.444018
  32 0.000004 11.557743 0.000000 -1.184250 -0.009801 -0.016637
  33 -0.000002 7.947079 -0.000002 1.659582 -0.787399 -0.804457
  34 -24.476719 30.845154 -1.202114 1.570796 0.000000 1.570796
  35 -8.092659 13.480309 -20.444241 -1.570796 0.000000 0.000000
  36 -9.159435 3.309850 -3.842142 -1.565812 0.000000 0.000000
  37 -2.290870 35.379372 -15.819810 -0.717321 0.715188 -2.920347
  time 1
  0 15.528832 -7.727504 4.360067 0.306468 -0.297547 -0.656021
  1 -0.000001 7.632662 5.380286 1.644840 -0.000000 0.000000
  2 0.000001 4.955764 0.000001 -0.005713 -0.000000 -0.000000
  3 0.000000 16.156612 -0.000001 0.000000 -0.000000 0.000000
  4 2.361287 5.150869 2.361294 -0.174091 0.786638 0.000223
  5 -2.361294 5.150876 2.361293 -0.174326 -0.785980 0.000108
  6 2.361288 5.150877 -2.361293 -0.174150 2.355119 0.000140
  7 -2.361293 5.150874 -2.361292 -0.174384 -2.355777 0.000191
  8 0.208517 0.000000 -23.612854 1.570796 -0.000000 -1.570796
  9 31.649235 26.702669 15.584169 1.570796 0.000000 -1.570796
  10 7.331163 13.480309 -20.444242 -1.570796 0.000000 0.000000
  11 9.830676 3.215760 0.000003 -1.570796 0.000000 0.000000
  12 13.577867 25.179150 -6.910124 1.735844 2.693656 -0.114294
  13 0.000001 27.358931 -0.239940 0.149888 -0.063865 0.062750
  14 -0.000000 2.088998 -0.000000 2.987776 0.053643 -0.071682
  15 8.092661 5.945972 -0.000004 0.513271 -0.074880 -0.093167
  16 0.000001 15.122828 0.000002 -1.311223 0.000000 0.000001
  17 -0.000001 10.272248 0.000001 2.371375 -0.014600 0.118569
  18 0.000002 4.132120 -1.927664 -0.000000 -0.000000 -0.000000
  19 -8.092659 5.945973 0.000001 0.430547 0.033099 0.042696
  20 0.000000 15.122827 -0.000001 -1.323442 0.000000 -0.000000
  21 0.000000 10.272246 0.000001 2.469054 0.012510 -0.052550
  22 0.000001 4.132120 -1.927665 -0.000000 -0.000000 -0.000001
  23 -0.000001 11.126791 0.000000 -0.184540 0.025013 -0.082139
  24 5.835801 2.795468 0.869679 -0.246286 -0.413084 -1.493714
  25 0.000001 5.475370 -0.000001 -0.527328 -0.190989 -0.896753
  26 0.000004 11.557737 0.000002 -0.820797 0.004330 0.013147
  27 0.000002 7.947081 -0.000000 0.153119 1.034983 0.901645
  28 0.000000 6.243682 0.000001 -0.157211 0.000000 0.000000
  29 0.000000 2.631206 -0.000000 -0.384219 -0.205528 0.128357
  30 -5.835801 2.795462 0.869676 -0.266035 0.170039 1.552704
  31 0.000003 5.475368 0.000000 -1.967362 -0.217693 0.666981
  32 -0.000002 11.557743 -0.000001 -0.885402 -0.005204 -0.013909
  33 0.000004 7.947082 0.000001 1.234859 -0.623429 -0.013127
  34 -24.811394 30.814234 -0.263131 1.570796 0.000000 1.570796
  35 -7.989066 13.480309 -20.444239 -1.570796 0.000000 0.000000
  36 -9.159436 3.309849 1.759533 -1.565812 0.000000 0.000000
  37 -0.552290 48.301090 -11.069119 1.487222 2.423140 -0.736115
  time 2
  0 15.203251 -10.429859 8.231058 0.500113 -0.349764 -0.975709
  1 0.000000 7.632665 5.380287 1.644840 -0.000000 0.000000
  2 -0.000001 4.955763 0.000001 -0.005713 -0.000000 0.000000
  3 0.000002 16.156614 -0.000001 0.000000 -0.000000 0.000000
  4 2.361289 5.150878 2.361299 -0.174091 0.786638 0.000223
  5 -2.361290 5.150872 2.361294 -0.174326 -0.785980 0.000108
  6 2.361291 5.150877 -2.361293 -0.174150 2.355119 0.000140
  7 -2.361291 5.150874 -2.361294 -0.174385 -2.355777 0.000191
  8 0.208517 0.000000 -23.612854 1.570796 -0.000000 -1.570796
  9 31.649235 25.488934 17.081682 1.570796 0.000000 -1.570796
  10 7.331163 13.480309 -20.444242 -1.570796 0.000000 0.000000
  11 9.830676 3.215760 0.000003 -1.570796 0.000000 0.000000
  12 14.106070 27.011648 -6.451192 1.583509 2.564010 -0.217419
  13 0.000001 30.160290 1.966252 0.149888 -0.063865 -0.002075
  14 0.000000 2.088998 -0.000000 2.991533 0.063458 -0.007494
  15 8.092659 5.945975 -0.000004 0.435611 -0.079664 -0.083748
  16 0.000002 15.122829 0.000000 -0.845802 -0.000000 0.000000
  17 -0.000000 10.272247 -0.000000 1.986468 0.039374 0.108632
  18 0.000002 4.132120 -1.927664 -0.000000 -0.000000 -0.000000
  19 -8.092660 5.945974 0.000001 0.094897 0.023509 0.040532
  20 -0.000000 15.122828 0.000001 -0.782303 0.000000 -0.000000
  21 -0.000001 10.272247 0.000001 2.263488 0.007558 -0.046239
  22 0.000001 4.132121 -1.927663 0.000000 -0.000000 -0.000001
  23 0.000001 11.126796 -0.000001 0.132712 0.002168 -0.133885
  24 5.835800 2.795465 0.869678 -0.214677 -0.410912 -1.501992
  25 0.000004 5.475368 0.000000 -0.565178 -0.327503 -0.883544
  26 0.000001 11.557746 0.000001 -0.418916 0.000163 0.007308
  27 0.000000 7.947080 -0.000000 0.112763 1.195999 0.923414
  28 0.000000 6.243680 -0.000000 -0.157211 0.000000 -0.000000
  29 0.000000 2.631206 -0.000000 -0.384219 -0.205528 0.128357
  30 -5.835801 2.795465 0.869675 -0.000000 0.157210 1.570796
  31 -0.000002 5.475367 0.000001 -2.091542 -0.265797 0.912211
  32 -0.000001 11.557740 0.000003 -0.003681 0.001390 -0.000066
  33 0.000001 7.947080 -0.000002 0.149189 -0.331112 0.592076
  34 -25.693716 30.597782 2.212368 1.570796 0.000000 1.570796
  35 -8.092659 13.480309 -20.444241 -1.570796 0.000000 0.000000
  36 -9.159438 3.309849 7.361207 -1.565812 0.000000 0.000000
  37 -6.244247 57.272522 -10.165704 -1.981958 0.352297 2.317715
  time 3
  0 14.877670 -13.132213 12.102047 0.708129 -0.339665 -1.311224
  1 -0.000001 7.632664 5.380286 1.644840 -0.000000 0.000000
  2 0.000001 4.955766 0.000000 -0.005713 -0.000000 0.000000
  3 0.000003 16.156612 -0.000003 -0.000000 -0.000000 0.000000
  4 2.361289 5.150871 2.361290 -0.174091 0.786637 0.000223
  5 -2.361296 5.150870 2.361290 -0.174326 -0.785981 0.000108
  6 2.361285 5.150867 -2.361300 -0.174150 2.355119 0.000140
  7 -2.361286 5.150880 -2.361293 -0.174384 -2.355778 0.000191
  8 0.208517 0.000000 -23.612854 1.570796 -0.000000 -1.570796
  9 31.649235 24.626234 19.198858 1.570796 0.000000 -1.570796
  10 7.331163 13.480309 -20.444242 -1.570796 0.000000 0.000000
  11 9.830677 3.215760 -1.351220 -1.570796 0.000000 0.000000
  12 14.767945 29.022404 -6.957078 1.455386 2.477858 -0.286143
  13 0.000001 29.778154 1.966252 0.202246 -0.240987 -0.070570
  14 0.000000 2.088998 -0.000000 2.972428 0.249974 0.021937
  15 8.092662 5.945971 -0.000004 0.490090 -0.084987 -0.085929
  16 -0.000001 15.122828 0.000001 -0.890696 -0.000000 0.000001
  17 0.000000 10.272253 0.000001 1.955780 0.044422 0.112356
  18 0.000002 4.132121 -1.927666 0.000000 -0.000000 -0.000000
  19 -8.092660 5.945971 0.000001 0.098133 0.016970 0.045211
  20 -0.000001 15.122829 0.000001 -0.859895 0.000000 -0.000000
  21 0.000003 10.272251 0.000001 2.315774 0.021418 -0.042153
  22 0.000001 4.132121 -1.927667 0.000000 0.000000 -0.000000
  23 0.000001 11.126797 -0.000001 0.303143 -0.021382 -0.167880
  24 5.835801 2.795462 0.869678 -0.174589 -0.407808 -1.512383
  25 0.000001 5.475368 -0.000001 -0.811057 -0.483299 -0.645768
  26 -0.000002 11.557744 -0.000000 -0.387597 -0.000058 0.006790
  27 0.000004 7.947083 0.000002 0.528901 1.101962 1.193522
  28 0.000001 6.243680 -0.000001 -0.157211 0.000000 -0.000000
  29 0.000000 2.631206 -0.000000 0.834879 -0.105850 -0.036472
  30 -5.835800 2.795464 0.869676 0.097787 0.158666 1.571452
  31 0.000000 5.475368 -0.000000 -1.224436 -0.251461 0.768240
  32 -0.000006 11.557743 -0.000002 -1.442070 -0.014268 -0.017815
  33 0.000001 7.947078 -0.000001 1.093403 -0.913391 -0.087336
  34 -26.941139 30.010275 5.712210 1.570796 0.000000 1.570796
  35 -8.248971 13.509501 -20.474556 -1.570796 0.000000 0.000000
  36 -9.159438 3.309849 7.361207 -1.565812 -0.003372 -0.000000
  37 -7.466860 54.430641 -6.932479 1.131966 2.655640 -0.709217
  time 4
  0 14.552087 -15.834566 8.231054 0.637675 -0.147857 -1.439296
  1 -0.000000 7.632663 5.380290 1.644840 -0.000000 -0.000000
  2 0.000001 4.955766 0.000000 -0.005713 0.000000 -0.000000
  3 0.000005 16.156612 0.000001 0.000000 -0.000000 -0.000000
  4 2.361285 5.150866 2.361297 -0.174091 0.786637 0.000223
  5 -2.361295 5.150872 2.361284 -0.174326 -0.785981 0.000108
  6 2.361292 5.150871 -2.361299 -0.174150 2.355119 0.000140
  7 -2.361293 5.150870 -2.361291 -0.174384 -2.355778 0.000191
  8 0.208517 0.000000 -23.612854 1.570796 -0.000000 -1.570796
  9 31.649233 23.777798 21.625862 1.570796 0.000000 -1.570796
  10 7.331163 13.480309 -20.444242 -1.570796 0.000000 0.000000
  11 9.830677 3.215760 -2.702442 -1.570796 0.000000 0.000000
  12 15.867332 25.145142 -5.384029 1.812065 2.462307 -0.125043
  13 0.000001 28.540155 1.966252 0.286624 -0.202220 -0.005596
  14 0.000000 2.088997 0.000000 2.932633 0.195473 -0.052435
  15 8.092662 5.945968 -0.000004 0.557834 -0.088263 -0.096870
  16 0.000002 15.122834 -0.000002 -1.067201 0.000000 0.000000
  17 -0.000001 10.272250 0.000002 2.004087 0.029440 0.127624
  18 0.000002 4.132120 -1.927664 0.000000 -0.000000 -0.000000
  19 -8.092657 5.945970 0.000001 0.096485 0.036373 0.033791
  20 0.000000 15.122832 0.000001 -1.070900 0.000000 -0.000000
  21 0.000002 10.272252 -0.000001 2.468510 0.016001 -0.038561
  22 0.000001 4.132121 -1.927666 0.000000 -0.000000 -0.000000
  23 0.000002 11.126798 -0.000000 0.084369 -0.064993 -0.146066
  24 5.835801 2.795461 0.869679 -0.128470 -0.403758 -1.524169
  25 -0.000005 5.475368 0.000001 -0.906985 -0.443792 -0.676444
  26 0.000006 11.557741 0.000001 -0.003692 -0.001390 0.000066
  27 0.000001 7.947079 -0.000001 0.071357 1.281455 0.578075
  28 0.000000 6.243676 0.000001 -0.157211 0.000000 0.000000
  29 0.000001 2.631206 0.000001 0.765095 -0.050982 -0.297603
  30 -5.835801 2.795460 0.869677 0.176057 0.162606 1.572331
  31 -0.000006 5.475367 0.000000 -1.090330 -0.161001 0.715213
  32 0.000001 11.557740 0.000001 -1.844560 -0.021431 -0.017295
  33 0.000000 7.947077 0.000000 1.358176 -1.066389 -0.589896
  34 -28.371113 28.866173 9.724221 1.570796 0.000000 1.570796
  35 -7.847157 13.584786 -20.552738 -1.570796 0.000000 0.000000
  36 -9.159438 3.309849 7.361207 -1.565812 -0.013489 -0.000000
  37 -9.895396 48.683250 -5.292577 1.112009 2.361907 -0.521149
  time 5
  0 14.226506 -18.536921 4.360067 0.546986 0.028526 -1.575155
  1 -0.000002 7.632663 5.380289 1.644840 0.000000 0.000000
  2 -0.000000 4.955767 -0.000004 -0.005713 -0.000000 0.000000
  3 -0.000002 16.156612 -0.000000 0.000000 -0.000000 0.000000
  4 2.361291 5.150872 2.361295 -0.174091 0.786638 0.000223
  5 -2.361291 5.150867 2.361293 -0.174326 -0.785981 0.000108
  6 2.361286 5.150869 -2.361288 -0.174150 2.355119 0.000140
  7 -2.361298 5.150876 -2.361292 -0.174384 -2.355777 0.000191
  8 0.208517 0.000000 -23.612854 1.570796 -0.000000 -1.570796
  9 31.649237 22.606846 24.052868 1.570796 0.000000 -1.570796
  10 7.331163 13.480309 -20.444242 -1.570796 0.000000 0.000000
  11 9.830676 3.215760 -4.053666 -1.570796 0.000000 0.000000
  12 16.696962 21.870924 -2.903096 -0.948297 0.565705 -3.073578
  13 0.000001 28.476316 1.966252 0.364430 -0.080066 0.063347
  14 0.000000 2.088999 -0.000001 2.946471 0.052039 -0.087829
  15 8.092662 5.945970 -0.000003 0.498152 -0.099687 -0.095832
  16 -0.000000 15.122827 0.000001 -1.036800 -0.000000 0.000001
  17 -0.000001 10.272247 0.000001 1.942498 0.035963 0.133436
  18 0.000002 4.132120 -1.927664 -0.000000 -0.000000 -0.000000
  19 -8.092660 5.945973 0.000002 -0.016093 0.076248 0.008765
  20 -0.000001 15.122829 0.000000 -1.064647 0.000000 -0.000000
  21 0.000000 10.272247 0.000001 2.483277 -0.009434 -0.047490
  22 0.000001 4.132122 -1.927665 -0.000000 -0.000000 -0.000000
  23 0.000002 11.126799 -0.000001 -0.136643 -0.086041 -0.115026
  24 5.835801 2.795463 0.869677 -0.078806 -0.398828 -1.536635
  25 -0.000003 5.475370 -0.000001 -0.749558 -0.373356 -0.840871
  26 -0.000001 11.557738 -0.000002 -0.003705 -0.001390 0.000067
  27 0.000002 7.947077 -0.000001 -0.216167 1.122397 0.178385
  28 0.000001 6.243680 -0.000001 -0.157211 0.000000 -0.000000
  29 -0.000000 2.631207 0.000000 0.610851 -0.066432 -0.473569
  30 -5.835801 2.795464 0.869676 0.237096 0.168390 1.573566
  31 0.000005 5.475369 -0.000000 -1.072309 0.030299 0.742917
  32 -0.000004 11.557744 0.000003 -1.832548 -0.021224 -0.017353
  33 -0.000003 7.947076 -0.000003 0.700185 -1.135664 -0.102190
  34 -29.801085 26.979959 13.736236 1.570796 0.000000 1.570796
  35 -6.866661 13.687729 -20.659641 -1.570796 0.000000 0.000000
  36 -9.159438 3.309849 7.361207 -1.565812 -0.030359 -0.000000
  37 -11.670895 44.197689 -4.662476 1.143949 2.210960 -0.376376
  time 6
  0 14.226505 -19.697418 -3.653481 0.317457 0.244923 -1.667654
  1 -0.000002 7.632662 5.380287 1.644840 -0.000000 0.000000
  2 -0.000000 4.955765 0.000000 -0.005713 0.000000 -0.000000
  3 -0.000001 16.156610 0.000000 0.000000 -0.000000 0.000000
  4 2.361292 5.150879 2.361292 -0.174091 0.786638 0.000223
  5 -2.361291 5.150873 2.361290 -0.174326 -0.785980 0.000108
  6 2.361290 5.150879 -2.361294 -0.174150 2.355119 0.000140
  7 -2.361292 5.150873 -2.361293 -0.174385 -2.355777 0.000191
  8 0.208517 0.000000 -23.612854 1.570796 -0.000000 -1.570796
  9 31.649233 20.776606 26.170042 1.570796 0.000000 -1.570796
  10 7.331163 13.480309 -20.444242 -1.570796 0.000000 0.000000
  11 9.830677 3.215760 -5.404888 -1.570796 0.000000 0.000000
  12 16.728853 19.197012 -0.247644 -0.668595 0.302056 -2.960055
  13 0.000001 28.765499 1.966252 0.399810 -0.003729 0.059988
  14 -0.000000 2.088997 0.000000 3.032036 -0.019909 -0.056715
  15 8.092663 5.945971 -0.000003 0.369773 -0.117089 -0.081500
  16 -0.000001 15.122826 0.000004 -0.931610 -0.000000 0.000001
  17 -0.000002 10.272245 -0.000000 1.851248 0.055194 0.131503
  18 0.000002 4.132122 -1.927664 -0.000000 -0.000000 -0.000000
  19 -8.092659 5.945972 0.000001 -0.192497 0.127021 -0.032247
  20 0.000000 15.122826 0.000001 -0.968147 0.000000 -0.000000
  21 0.000000 10.272245 -0.000000 2.446140 -0.045390 -0.062372
  22 0.000000 4.132120 -1.927663 -0.000000 -0.000000 -0.000000
  23 -0.000000 11.126796 -0.000001 -0.077509 -0.078292 -0.123823
  24 5.835801 2.795462 0.869680 -0.028093 -0.393191 -1.549092
  25 0.000001 5.475371 -0.000001 -0.488180 -0.453482 -0.996137
  26 -0.000003 11.557740 0.000001 -0.003711 -0.001390 0.000067
  27 -0.000001 7.947078 0.000001 -0.262104 0.839307 0.041515
  28 0.000001 6.243677 0.000001 -0.157211 -0.000000 -0.000000
  29 -0.000000 2.631208 -0.000001 0.451971 -0.081442 -0.374694
  30 -5.835801 2.795462 0.869676 0.283190 0.175395 1.575124
  31 0.000000 5.475368 -0.000000 -1.010008 0.236949 0.780976
  32 0.000005 11.557742 -0.000003 -1.623960 -0.017530 -0.017939
  33 0.000001 7.947081 -0.000001 0.283500 -0.953270 0.269874
  34 -31.048508 24.166094 17.236078 1.570796 0.000000 1.570796
  35 -5.395988 13.799888 -20.776119 -1.570796 0.000000 0.000000
  36 -9.159438 3.309849 7.361207 -1.565812 -0.053990 -0.000000
  37 -12.254498 42.462704 -4.450222 1.203086 2.330082 -0.353644
  time 7
  0 14.226505 -20.124964 -17.882950 0.190918 0.407401 -1.752488
  1 -0.000001 7.632662 5.380290 1.644840 -0.000000 0.000000
  2 0.000001 4.955765 -0.000001 -0.005713 0.000000 0.000000
  3 -0.000001 16.156616 -0.000002 -0.000000 -0.000000 0.000000
  4 2.361282 5.150876 2.361290 -0.174091 0.786638 0.000223
  5 -2.361291 5.150870 2.361293 -0.174326 -0.785981 0.000108
  6 2.361288 5.150878 -2.361295 -0.174150 2.355119 0.000140
  7 -2.361296 5.150874 -2.361294 -0.174384 -2.355778 0.000191
  8 0.208517 0.000000 -23.612854 1.570796 -0.000000 -1.570796
  9 31.649231 17.950293 27.667557 1.570796 0.000000 -1.570796
  10 7.331163 13.480309 -20.444242 -1.570796 0.000000 0.000000
  11 9.830678 3.215760 -6.756111 -1.570796 0.000000 0.000000
  12 16.977615 18.815998 1.523236 -0.623840 0.049552 -2.875461
  13 0.000001 27.873554 1.966252 0.444681 -0.026191 0.017354
  14 0.000000 2.088999 -0.000001 3.117337 0.016174 -0.026936
  15 8.092660 5.945972 -0.000001 0.304653 -0.133222 -0.068199
  16 0.000001 15.122827 -0.000001 -1.004703 0.000000 0.000000
  17 0.000001 10.272252 -0.000002 1.858504 0.057481 0.138161
  18 0.000002 4.132122 -1.927666 0.000000 -0.000000 -0.000000
  19 -8.092660 5.945974 0.000002 -0.339763 0.170167 -0.095270
  20 -0.000001 15.122830 -0.000000 -1.042045 0.000000 -0.000000
  21 0.000000 10.272254 -0.000002 2.530972 -0.076927 -0.080021
  22 -0.000000 4.132122 -1.927667 -0.000000 0.000000 -0.000000
  23 0.000001 11.126798 -0.000001 0.032320 -0.062541 -0.138904
  24 5.835800 2.795460 0.869679 0.021195 -0.387137 -1.560905
  25 -0.000004 5.475370 0.000001 -0.344354 -0.541311 -1.000041
  26 -0.000003 11.557737 -0.000000 -0.003699 -0.001390 0.000066
  27 0.000000 7.947078 -0.000001 -0.264781 0.540325 -0.002646
  28 0.000000 6.243678 0.000001 -0.157211 0.000000 0.000000
  29 0.000000 2.631204 0.000000 0.311853 -0.053822 -0.192750
  30 -5.835800 2.795460 0.869678 0.316553 0.183015 1.576878
  31 0.000002 5.475368 0.000000 -0.923645 0.308082 0.832293
  32 0.000006 11.557744 -0.000000 -1.529693 -0.015836 -0.017948
  33 0.000001 7.947078 0.000001 0.423188 -0.768956 0.166539
  34 -31.930834 20.239052 19.711582 1.570796 0.000000 1.570796
  35 -3.783805 13.902829 -20.883022 -1.570796 0.000000 0.000000
  36 -9.159438 3.309849 7.361207 -1.565812 -0.084382 -0.000000
  37 -12.469509 41.823494 -4.030138 1.242028 2.582210 -0.416499
  time 8
  0 14.226505 -20.186045 -16.584194 0.020741 0.459242 -1.818900
  1 -0.000000 7.632661 5.380290 1.644840 -0.000000 0.000000
  2 -0.000001 4.955765 -0.000002 -0.005713 -0.000000 -0.000000
  3 0.000001 16.156610 0.000001 0.000000 -0.000000 0.000000
  4 2.361289 5.150873 2.361292 -0.174091 0.786638 0.000223
  5 -2.361300 5.150882 2.361289 -0.174326 -0.785980 0.000108
  6 2.361282 5.150877 -2.361297 -0.174150 2.355119 0.000140
  7 -2.361293 5.150875 -2.361295 -0.174385 -2.355777 0.000191
  8 0.208517 0.000000 -23.612854 1.570796 -0.000000 -1.570796
  9 31.649231 13.791137 28.235580 1.570796 0.000000 -1.570796
  10 7.331163 13.480309 -20.444242 -1.570796 0.000000 0.000000
  11 9.830679 3.215760 -8.107333 -1.570796 0.000000 0.000000
  12 17.287357 20.518335 2.225390 -0.694238 -0.098850 -2.805880
  13 0.000001 26.792341 1.966252 0.586128 -0.057022 -0.028851
  14 -0.000000 2.088997 0.000000 3.114478 0.063458 -0.007494
  15 8.092660 5.945973 -0.000003 0.246907 -0.148432 -0.054457
  16 0.000000 15.122829 0.000000 -1.084508 0.000000 0.000000
  17 0.000000 10.272249 -0.000001 1.858319 0.058416 0.146928
  18 0.000002 4.132121 -1.927666 0.000000 -0.000000 -0.000000
  19 -8.092660 5.945974 0.000000 -0.479787 0.179205 -0.154723
  20 -0.000003 15.122826 0.000000 -1.143169 0.000000 -0.000000
  21 -0.000000 10.272249 -0.000002 2.627730 -0.085555 -0.080362
  22 0.000000 4.132121 -1.927666 -0.000000 -0.000000 -0.000000
  23 -0.000001 11.126794 0.000001 0.091274 -0.053410 -0.146270
  24 5.835798 2.795463 0.869677 0.066636 -0.381061 -1.571515
  25 0.000003 5.475371 0.000002 -0.070967 -0.578218 -0.907384
  26 -0.000000 11.557738 -0.000004 -0.663574 0.002422 0.011065
  27 0.000001 7.947080 0.000003 0.190290 0.312792 0.027298
  28 -0.000000 6.243679 -0.000001 -0.157211 0.000000 -0.000000
  29 0.000000 2.631207 0.000000 0.203149 -0.032191 -0.083713
  30 -5.835800 2.795463 0.869676 0.339307 0.190653 1.578654
  31 -0.000001 5.475369 -0.000000 -0.891139 0.330154 0.873390
  32 -0.000004 11.557743 0.000003 -1.406772 -0.013638 -0.017720
  33 -0.000001 7.947084 -0.000002 0.489229 -0.535044 0.119906
  34 -32.265503 15.013302 20.650570 1.570796 0.000000 1.570796
  35 -2.789894 13.978114 -20.961205 -1.570796 0.000000 0.000000
  36 -9.159438 3.309849 7.361207 -1.565812 -0.121526 -0.000000
  37 -12.500226 41.732182 -2.768118 1.176974 2.879415 -0.550815
  time 9
  0 14.226505 -20.186045 -16.584194 0.020741 0.459242 -1.818900
  1 -0.000000 7.632661 5.380290 1.644840 -0.000000 0.000000
  2 -0.000001 4.955765 -0.000002 -0.005713 -0.000000 -0.000000
  3 0.000001 16.156610 0.000001 0.000000 -0.000000 0.000000
  4 2.361289 5.150873 2.361292 -0.174091 0.786638 0.000223
  5 -2.361300 5.150882 2.361289 -0.174326 -0.785980 0.000108
  6 2.361282 5.150877 -2.361297 -0.174150 2.355119 0.000140
  7 -2.361293 5.150875 -2.361295 -0.174385 -2.355777 0.000191
  8 0.208517 0.000000 -23.612854 1.570796 -0.000000 -1.570796
  9 31.468264 8.195632 28.235580 1.570796 0.000000 -1.570796
  10 7.331163 13.480309 -20.444242 -1.570796 0.000000 0.000000
  11 9.830680 4.994458 -11.837320 -1.391374 -0.000000 0.000000
  12 17.472891 20.124001 0.646735 -1.022920 -0.150818 -2.703675
  13 0.000001 25.104343 1.966253 0.908791 -0.044942 -0.045438
  14 -0.000000 2.088998 0.000000 2.944332 0.063458 -0.007494
  15 8.092660 5.945971 -0.000002 0.388051 -0.199843 -0.063653
  16 -0.000003 15.122820 0.000000 -1.283572 0.000000 0.000001
  17 0.000001 10.272247 0.000000 1.948689 0.074262 0.196191
  18 0.000002 4.132119 -1.927665 0.000000 0.000000 -0.000000
  19 -8.092660 5.945974 0.000001 -0.596506 0.139958 -0.163857
  20 0.000001 15.122819 -0.000001 -1.343141 0.000000 -0.000000
  21 -0.000001 10.272246 0.000001 2.791331 -0.045971 -0.033508
  22 0.000001 4.132118 -1.927662 -0.000000 -0.000000 -0.000000
  23 -0.000000 11.126796 0.000002 -0.046580 -0.071434 -0.128825
  24 5.835799 2.795461 0.869678 0.105887 -0.375436 -1.580445
  25 0.000002 5.475370 0.000001 -0.217217 -0.545692 -0.783521
  26 0.000003 11.557742 -0.000002 -0.804299 0.004114 0.012942
  27 -0.000001 7.947079 0.000004 0.239659 0.217263 -0.094253
  28 -0.000000 6.243675 0.000001 -0.157211 0.000000 -0.000000
  29 0.000000 2.631204 -0.000000 0.114353 -0.037601 -0.063336
  30 -5.835800 2.795461 0.869677 0.353505 0.197707 1.580273
  31 0.000004 5.475366 -0.000001 -1.042818 0.271489 1.040558
  32 0.000000 11.557745 0.000000 -1.074686 -0.008023 -0.015798
  33 0.000001 7.947085 -0.000003 0.182911 -0.223443 0.282136
  34 -26.139500 6.122253 20.650574 1.570796 0.000000 1.570796
  35 -3.376752 14.007306 -20.991520 -1.570796 0.000000 0.000000
  36 -9.159438 3.309849 7.361207 -1.565812 -0.165387 -0.000000
  37 -12.500223 41.353199 -0.004905 0.829138 -3.130015 -0.662570
  time 10
  0 14.226505 -20.186045 -16.584194 0.020741 0.459242 -1.818900
  1 -0.000000 7.632661 5.380290 1.644840 -0.000000 0.000000
  2 -0.000001 4.955765 -0.000002 -0.005713 -0.000000 -0.000000
  3 0.000001 16.156610 0.000001 0.000000 -0.000000 0.000000
  4 2.361289 5.150873 2.361292 -0.174091 0.786638 0.000223
  5 -2.361300 5.150882 2.361289 -0.174326 -0.785980 0.000108
  6 2.361282 5.150877 -2.361297 -0.174150 2.355119 0.000140
  7 -2.361293 5.150875 -2.361295 -0.174385 -2.355777 0.000191
  8 0.208517 0.000000 -23.612854 1.570796 -0.000000 -1.570796
  9 31.036724 1.993390 28.235580 1.570796 0.000000 -1.570796
  10 7.331163 13.480309 -20.444242 -1.570796 0.000000 0.000000
  11 9.830680 6.773155 -15.567307 -1.211951 0.000000 0.000000
  12 18.466440 17.646189 -0.931920 -1.491889 -0.105572 -2.480817
  13 0.000001 23.416340 1.966253 1.231043 -0.028235 -0.057329
  14 0.000000 2.088998 0.000000 2.871345 0.063458 -0.007494
  15 8.092661 5.945972 -0.000001 0.356338 -0.293247 -0.041972
  16 0.000001 15.122829 0.000002 -1.320157 0.000000 0.000000
  17 0.000001 10.272249 -0.000001 1.956974 0.130639 0.266542
  18 0.000002 4.132121 -1.927663 0.000000 -0.000000 -0.000000
  19 -8.092659 5.945976 -0.000001 -0.195207 0.200043 -0.122430
  20 0.000001 15.122829 0.000001 -1.641676 -0.000000 -0.000000
  21 -0.000001 10.272250 -0.000004 2.749678 0.006833 0.057840
  22 0.000001 4.132122 -1.927666 -0.000000 0.000000 -0.000000
  23 0.000001 11.126797 0.000000 -0.306182 -0.098054 -0.090110
  24 5.835800 2.795463 0.869678 0.136675 -0.370783 -1.587287
  25 0.000002 5.475372 -0.000000 -0.713306 -0.468998 -0.688074
  26 -0.000003 11.557740 0.000001 -0.003679 -0.001390 0.000066
  27 -0.000002 7.947075 0.000001 -0.501497 -0.029343 -0.131152
  28 -0.000000 6.243679 -0.000001 -0.157211 0.000000 -0.000000
  29 -0.000000 2.631208 -0.000001 0.043056 -0.044364 -0.052293
  30 -5.835799 2.795462 0.869679 0.361159 0.203552 1.581571
  31 0.000003 5.475366 -0.000002 -1.107986 0.192568 1.556099
  32 0.000001 11.557744 0.000005 -0.772197 -0.003704 -0.012532
  33 0.000002 7.947078 -0.000001 -0.034539 0.276071 0.434874
  34 -12.662253 -5.720049 20.650579 1.570796 0.000000 1.570796
  35 -4.386150 14.007306 -20.991520 -1.570796 0.000000 0.000000
  36 -9.159435 3.309850 -3.842142 -1.238110 -0.261583 -0.130514
  37 -12.500227 38.700314 1.811131 0.529753 -2.973803 -0.583204
  time 11
  0 14.226505 -20.186045 -16.584194 0.020741 0.459242 -1.818900
  1 -0.000000 7.632661 5.380290 1.644840 -0.000000 0.000000
  2 -0.000001 4.955765 -0.000002 -0.005713 -0.000000 -0.000000
  3 0.000001 16.156610 0.000001 0.000000 -0.000000 0.000000
  4 2.361289 5.150873 2.361292 -0.174091 0.786638 0.000223
  5 -2.361300 5.150882 2.361289 -0.174326 -0.785980 0.000108
  6 2.361282 5.150877 -2.361297 -0.174150 2.355119 0.000140
  7 -2.361293 5.150875 -2.361295 -0.174385 -2.355777 0.000191
  8 0.208517 0.000000 -23.612854 1.570796 -0.000000 -1.570796
  9 30.521660 -3.752726 28.235580 1.570796 0.000000 -1.570796
  10 7.331163 13.480309 -20.444242 -1.570796 0.000000 0.000000
  11 8.720325 6.405280 -21.486794 -0.781274 -0.000000 0.000000
  12 19.781385 9.240395 0.430217 -1.783653 -0.096238 -2.043813
  13 0.000000 16.379519 1.966253 1.408237 -0.017678 -0.061407
  14 0.000000 2.088998 -0.000000 3.074533 0.063458 -0.007494
  15 8.092658 5.945972 -0.000004 0.239753 -0.210512 0.012244
  16 0.000002 15.122824 0.000001 -1.119326 0.000000 0.000000
  17 0.000002 10.272249 -0.000003 1.908888 0.143120 0.155387
  18 0.000001 4.132119 -1.927664 -0.000000 -0.000000 -0.000000
  19 -8.092659 5.945970 0.000000 0.096789 0.423198 -0.159695
  20 -0.000000 15.122824 0.000003 -1.595944 -0.000000 -0.000000
  21 -0.000002 10.272247 0.000001 2.167556 -0.043284 -0.017594
  22 -0.000001 4.132119 -1.927663 -0.000000 0.000000 -0.000000
  23 0.000002 11.126794 -0.000001 -0.445329 -0.107919 -0.066951
  24 5.835799 2.795463 0.869677 0.156782 -0.367632 -1.591676
  25 0.000001 5.475370 0.000000 -0.567446 -0.492681 -0.585013
  26 0.000003 11.557741 0.000000 -0.337849 -0.000374 0.005954
  27 0.000001 7.947080 -0.000000 -0.629041 -0.343677 -0.017921
  28 -0.000000 6.243679 0.000001 -0.108581 0.006428 -0.006185
  29 -0.000000 2.631207 0.000001 -0.004201 -0.057296 -0.047596
  30 -5.835800 2.795463 0.869675 0.364272 0.207544 1.582416
  31 -0.000003 5.475367 0.000000 -0.895750 0.004165 1.897425
  32 -0.000003 11.557741 0.000002 -0.846903 -0.004676 -0.013458
  33 -0.000001 7.947074 0.000001 0.152136 0.527394 0.501503
  34 0.814999 -16.078110 20.650581 1.570796 0.000000 1.570796
  35 -3.646122 14.007306 -20.991520 -1.570796 0.000000 0.000000
  36 -9.159431 3.883232 -15.670627 -1.054763 -0.192443 -0.372508
  37 -14.132591 27.465857 1.749359 0.692940 -2.897556 -0.379462
  time 12
  0 14.226505 -20.186045 -16.584194 0.020741 0.459242 -1.818900
  1 -0.000000 7.632661 5.380290 1.644840 -0.000000 0.000000
  2 -0.000001 4.955765 -0.000002 -0.005713 -0.000000 -0.000000
  3 0.000001 16.156610 0.000001 0.000000 -0.000000 0.000000
  4 2.361289 5.150873 2.361292 -0.174091 0.786638 0.000223
  5 -2.361300 5.150882 2.361289 -0.174326 -0.785980 0.000108
  6 2.361282 5.150877 -2.361297 -0.174150 2.355119 0.000140
  7 -2.361293 5.150875 -2.361295 -0.174385 -2.355777 0.000191
  8 0.208517 0.000000 -23.612854 1.570796 -0.000000 -1.570796
  9 30.090124 -7.979838 28.235580 1.570796 0.000000 -1.570796
  10 7.331163 13.480309 -20.444242 -1.570796 0.000000 0.000000
  11 7.609970 6.037402 -27.406282 -0.350596 -0.000000 0.000000
  12 20.212019 2.988714 1.792352 -1.897968 -0.119992 -1.727170
  13 -0.000000 9.342695 1.966253 1.585364 -0.006568 -0.063560
  14 0.000000 2.088997 -0.000000 3.108354 0.063458 -0.007494
  15 8.092660 5.945973 -0.000001 -0.103496 -0.062119 0.024803
  16 0.000004 15.122828 -0.000001 -0.003582 -0.000000 -0.000000
  17 -0.000001 10.272249 0.000002 1.344568 0.064400 -0.018064
  18 0.000003 4.132121 -1.927664 0.000000 -0.000000 -0.000000
  19 -8.092662 5.945974 0.000002 0.267102 0.637161 -0.091299
  20 -0.000000 15.122826 0.000003 -1.299822 0.000000 -0.000000
  21 0.000001 10.272249 -0.000000 1.575721 -0.012900 -0.031394
  22 0.000001 4.132120 -1.927665 0.000000 0.000000 -0.000000
  23 0.000001 11.126795 0.000001 -0.149326 -0.094215 -0.114302
  24 5.835800 2.795463 0.869678 0.163986 -0.366482 -1.593232
  25 -0.000001 5.475370 0.000000 -0.126337 -0.842944 -0.371691
  26 0.000002 11.557740 -0.000002 -1.165941 0.009499 0.016513
  27 0.000003 7.947082 -0.000002 -0.183116 -0.359800 -0.331454
  28 0.000000 6.243677 -0.000000 -0.018263 0.019146 -0.016826
  29 0.000000 2.631206 0.000001 -0.020946 -0.080507 -0.046357
  30 -5.835800 2.795462 0.869677 0.364858 0.209023 1.582713
  31 0.000002 5.475368 0.000000 -0.215135 -0.317810 1.635881
  32 -0.000000 11.557744 -0.000001 -0.844375 -0.004642 -0.013429
  33 -0.000000 7.947077 -0.000001 0.230169 0.504258 0.433497
  34 6.941005 -20.516445 20.650581 1.570796 0.000000 1.570796
  35 -2.532743 14.007306 -20.991520 -1.570796 0.000000 0.000000
  36 -9.159430 4.948084 -21.843681 -0.991530 -0.090740 -0.604492
  37 -17.164114 11.366217 1.316946 1.053472 -2.837375 -0.145942
  time 13
  0 14.226505 -20.186045 -16.584194 0.020741 0.459242 -1.818900
  1 -0.000000 7.632661 5.380290 1.644840 -0.000000 0.000000
  2 -0.000001 4.955765 -0.000002 -0.005713 -0.000000 -0.000000
  3 0.000001 16.156610 0.000001 0.000000 -0.000000 0.000000
  4 2.361289 5.150873 2.361292 -0.174091 0.786638 0.000223
  5 -2.361300 5.150882 2.361289 -0.174326 -0.785980 0.000108
  6 2.361282 5.150877 -2.361297 -0.174150 2.355119 0.000140
  7 -2.361293 5.150875 -2.361295 -0.174385 -2.355777 0.000191
  8 0.208517 0.000000 -23.612854 1.570796 -0.000000 -1.570796
  9 29.909157 -9.625075 28.235580 1.570796 0.000000 -1.570796
  10 7.331163 13.480309 -20.444242 -1.570796 0.000000 0.000000
  11 7.609970 6.037402 -27.406282 -0.350596 -0.000000 0.000000
  12 20.212019 2.988714 1.792352 -1.897968 -0.119992 -1.727170
  13 -0.000000 9.342695 1.966253 1.585364 -0.006568 -0.063560
  14 0.000000 2.088997 -0.000000 3.000374 0.070843 0.051601
  15 8.092660 5.945974 -0.000004 0.034263 -0.078359 0.087669
  16 0.000001 15.122832 -0.000000 -0.003587 -0.000000 0.000000
  17 0.000000 10.272254 0.000000 1.317783 0.076316 -0.030700
  18 0.000003 4.132123 -1.927664 0.000000 -0.000000 -0.000000
  19 -8.092662 5.945972 -0.000000 0.437306 0.601047 0.119932
  20 0.000000 15.122834 0.000002 -1.135897 0.000000 -0.000000
  21 0.000001 10.272255 0.000001 1.407298 0.042671 0.084035
  22 -0.000002 4.132123 -1.927665 -0.000000 0.000000 -0.000000
  23 0.000001 11.126795 0.000001 0.143352 -0.045987 -0.152197
  24 5.835799 2.795460 0.869677 0.163986 -0.366482 -1.593232
  25 -0.000000 5.475370 0.000001 0.249312 -1.020872 -0.547394
  26 -0.000000 11.557741 -0.000001 -1.318270 0.012089 0.017398
  27 0.000001 7.947078 0.000000 -0.104084 -0.343206 -0.407233
  28 -0.000001 6.243677 -0.000000 0.030268 0.026369 -0.022064
  29 0.000000 2.631207 0.000001 0.324791 -0.286602 -0.063055
  30 -5.835800 2.795463 0.869675 0.364858 0.209023 1.582714
  31 0.000001 5.475371 0.000000 0.186667 -0.233181 1.228981
  32 -0.000004 11.557745 -0.000001 -0.242601 0.000864 -0.004315
  33 -0.000001 7.947079 -0.000000 -0.026786 0.276985 0.348149
  34 6.941005 -20.516445 20.650581 1.570796 0.000000 1.570796
  35 -3.376752 14.007306 -20.991520 -1.570796 0.000000 0.000000
  36 -9.159429 5.521465 -23.621355 -1.004493 0.000000 -0.695439
  37 -18.796478 3.163628 0.143249 1.433898 -2.969322 0.181505
end
