version 1
nodes
0 "drill" -1
1 "drill_lever" 0
2 "drill_lever anim_help" 1
3 "drill_spin" 0
4 "drill_claw2" 3
5 "drill_claw1" 3
6 "drill_claw3" 3
7 "drill_claw4" 3
8 "base" -1
9 "ik arm.R" 8
10 "ik leg R" 8
11 "t leg.R" 8
12 "t hand.R" 8
13 "spine low" 8
14 "hip" 13
15 "leg up.R" 14
16 "leg low.R" 15
17 "foot.R" 16
18 "tow.R" 17
19 "leg up.L" 14
20 "leg low.L" 19
21 "foot.L" 20
22 "tow.L" 21
23 "spine up" 13
24 "shoulder.R" 23
25 "arm up.R" 24
26 "arm low.R" 25
27 "hand.R" 26
28 "neck" 23
29 "head" 28
30 "shoulder.L" 23
31 "arm up.L" 30
32 "arm low.L" 31
33 "hand.L" 32
34 "ik arm.L" 8
35 "ik leg L" 8
36 "t leg.L" 8
37 "t hand.L" 8
end
skeleton
  time 0
  0 7.803472 -13.486128 -0.951815 -0.219526 -0.326441 -0.758253
  1 -0.000003 7.632663 5.380287 1.644840 -0.000000 0.000000
  2 0.000001 4.955766 -0.000000 -0.005714 0.000000 0.000000
  3 -0.000001 16.156610 0.000001 -0.000000 3.036037 0.000000
  4 2.361288 5.150878 2.361296 -0.174091 0.786638 0.000223
  5 -2.361289 5.150873 2.361294 -0.174326 -0.785980 0.000108
  6 2.361292 5.150876 -2.361293 -0.174150 2.355119 0.000140
  7 -2.361291 5.150877 -2.361294 -0.174384 -2.355777 0.000191
  8 0.208517 0.000000 -23.612854 1.570796 -0.000000 -1.570796
  9 18.926842 39.143330 11.606188 1.570796 0.000000 -1.570796
  10 8.092663 13.480309 -20.444241 -1.570796 0.000000 0.000000
  11 8.092663 3.278046 -4.941101 -1.595738 0.005485 0.063662
  12 19.470001 26.975540 4.393333 -1.174369 0.287213 3.071806
  13 -0.000001 28.787714 7.713843 -0.280825 -0.479104 0.038443
  14 -0.000000 2.088997 -0.000000 -2.804455 0.431953 0.143546
  15 8.092659 5.945972 -0.000003 0.599784 -0.034094 0.063460
  16 0.000003 15.122830 0.000001 -0.288623 -0.000000 0.000000
  17 0.000001 10.272252 -0.000000 1.210825 -0.021626 -0.076188
  18 0.000003 4.132123 -1.927666 -0.000000 -0.000000 -0.000000
  19 -8.092659 5.945976 0.000001 -0.141417 -0.164707 0.166526
  20 0.000001 15.122828 0.000001 -1.122526 0.000000 -0.000000
  21 -0.000000 10.272251 -0.000002 2.296460 0.155401 0.097850
  22 -0.000002 4.132123 -1.927665 0.345524 -0.000000 -0.000000
  23 0.000000 11.126795 0.000000 -0.153869 0.081248 -0.030589
  24 5.835802 2.795462 0.869678 -0.152833 -0.099634 -1.836253
  25 0.000007 5.475372 -0.000001 -0.525375 -0.582408 0.127172
  26 0.000002 11.557741 -0.000002 -1.156423 0.009342 0.016445
  27 -0.000001 7.947080 0.000002 0.561822 1.323651 1.175080
  28 0.000000 6.243679 -0.000000 -0.157211 0.000000 -0.000000
  29 -0.000000 2.631207 0.000000 0.164850 0.088865 0.002815
  30 -5.835800 2.795462 0.869675 -0.385491 0.137491 1.378488
  31 -0.000001 5.475368 -0.000002 -1.025325 -0.004094 1.282753
  32 -0.000002 11.557741 0.000002 -1.299113 -0.011754 -0.017305
  33 -0.000001 7.947081 0.000000 0.776244 -0.472807 -0.196757
  34 -24.752760 38.666245 8.976809 1.570796 0.000000 1.570796
  35 -14.993512 13.480310 -35.248756 -1.570796 0.000000 0.000000
  36 -8.092665 6.032120 18.180256 -2.081760 0.000000 -0.000000
  37 1.203733 33.293301 -10.497292 -0.703861 0.806655 -2.751883
  time 1
  0 -3.231153 -19.229361 4.401403 -0.737625 -1.058589 -1.021937
  1 -0.000002 7.632663 5.380287 1.644840 -0.000000 0.000000
  2 0.000001 4.955766 0.000001 -0.005713 0.000000 0.000000
  3 0.000001 16.156612 0.000001 0.000000 -2.703919 -0.000000
  4 2.361290 5.150871 2.361295 -0.174091 0.786638 0.000223
  5 -2.361288 5.150877 2.361296 -0.174326 -0.785981 0.000108
  6 2.361290 5.150872 -2.361290 -0.174150 2.355119 0.000140
  7 -2.361286 5.150877 -2.361290 -0.174385 -2.355777 0.000191
  8 0.208517 0.000000 -23.612854 1.570796 -0.000000 -1.570796
  9 7.805915 34.965908 22.594688 1.570796 0.000000 -1.570796
  10 8.770718 13.480309 -20.444241 -1.570796 0.000000 0.000000
  11 8.875204 3.278046 -2.527783 -1.595738 0.005485 0.063662
  12 14.033146 30.853279 16.209951 -1.066283 0.865107 -2.304184
  13 0.580900 29.303623 7.713843 -0.287732 -0.625224 0.042076
  14 -0.000000 2.088997 -0.000000 -2.843645 0.301661 0.072147
  15 8.092661 5.945972 -0.000003 0.490498 -0.316347 0.017213
  16 -0.000001 15.122826 0.000001 -0.003579 -0.000000 0.000000
  17 -0.000000 10.272245 0.000001 1.046431 -0.030389 -0.045730
  18 0.000003 4.132121 -1.927665 -0.000000 -0.000000 -0.000000
  19 -8.092661 5.945971 0.000001 -0.263292 -0.448464 0.252500
  20 0.000002 15.122825 0.000001 -1.220066 0.000000 -0.000000
  21 0.000001 10.272250 -0.000002 2.325547 0.228181 0.137651
  22 0.000000 4.132121 -1.927664 0.345524 0.000000 -0.000000
  23 -0.000001 11.126794 -0.000001 0.005840 -0.307045 -0.164392
  24 5.835802 2.795464 0.869678 -0.273662 -0.123559 -1.750849
  25 -0.000004 5.475372 0.000000 0.337775 0.051507 -0.739709
  26 -0.000004 11.557745 -0.000001 -1.915928 0.022652 0.016906
  27 0.000001 7.947083 -0.000002 -0.248390 0.099833 0.443506
  28 0.000000 6.243680 -0.000000 -0.157211 0.000000 -0.000000
  29 -0.000000 2.631207 0.000001 0.103676 -0.017997 -0.101650
  30 -5.835800 2.795460 0.869676 -0.385491 0.137491 1.378487
  31 0.000004 5.475368 0.000002 -0.744408 0.117347 1.310317
  32 -0.000003 11.557746 -0.000000 -0.705192 -0.002894 -0.011643
  33 -0.000000 7.947078 -0.000001 -0.612463 -0.211456 0.459230
  34 -24.752754 38.666245 -6.591093 1.570796 0.000000 1.570796
  35 -14.993512 13.480310 -35.248756 -1.570796 0.000000 0.000000
  36 -8.266000 8.516447 17.327272 -2.217815 -0.031084 -0.001814
  37 6.539892 27.855705 -8.316738 0.966196 1.245103 -0.716665
  time 2
  0 -14.265779 -24.972588 9.754623 -0.557442 -1.881085 -1.839619
  1 -0.000004 7.632664 5.380288 1.644840 -0.000000 0.000000
  2 0.000000 4.955765 0.000002 -0.005713 0.000000 -0.000000
  3 -0.000003 16.156614 -0.000001 -0.000001 -1.651820 0.000000
  4 2.361295 5.150875 2.361290 -0.174091 0.786638 0.000223
  5 -2.361293 5.150879 2.361291 -0.174326 -0.785981 0.000108
  6 2.361292 5.150877 -2.361291 -0.174150 2.355119 0.000140
  7 -2.361284 5.150868 -2.361297 -0.174384 -2.355777 0.000191
  8 0.208517 0.000000 -23.612854 1.570796 -0.000000 -1.570796
  9 -3.315012 30.788479 33.583187 1.570796 0.000000 -1.570796
  10 10.387619 13.480309 -20.444241 -1.570796 0.000000 0.000000
  11 9.657745 3.278046 -0.114465 -1.595738 0.005485 0.063662
  12 14.534498 27.670378 22.006235 -0.098008 0.957414 -0.669956
  13 1.161801 29.819529 7.713843 -0.296281 -0.771317 0.047587
  14 -0.000000 2.088999 0.000000 -2.866179 0.298486 0.047585
  15 8.092662 5.945973 -0.000004 0.569179 -0.425681 -0.021794
  16 0.000000 15.122831 0.000001 -0.257225 -0.000000 0.000000
  17 -0.000000 10.272245 0.000001 1.245522 -0.061994 -0.026604
  18 0.000002 4.132121 -1.927665 -0.000000 0.000000 -0.000000
  19 -8.092662 5.945972 0.000000 -0.004910 -0.573620 0.371674
  20 0.000002 15.122831 -0.000001 -1.693920 -0.000000 -0.000000
  21 -0.000002 10.272248 -0.000000 2.439588 0.317024 0.153341
  22 -0.000000 4.132123 -1.927665 0.345524 0.000000 -0.000000
  23 -0.000000 11.126798 0.000000 -0.053349 -0.703997 -0.289070
  24 5.835802 2.795461 0.869678 -0.422838 -0.136416 -1.635492
  25 -0.000001 5.475368 -0.000001 -0.291731 0.161256 -0.631006
  26 -0.000003 11.557744 -0.000002 -0.867354 0.004955 0.013701
  27 -0.000002 7.947083 -0.000000 -1.008676 0.653987 0.894856
  28 0.000001 6.243678 0.000000 -0.157211 0.000000 -0.000000
  29 -0.000000 2.631207 0.000001 0.050845 -0.131691 -0.155506
  30 -5.835799 2.795461 0.869676 -0.385491 0.137491 1.378487
  31 0.000004 5.475369 0.000002 -1.417333 -0.148559 0.942519
  32 0.000002 11.557746 -0.000001 -0.003715 0.001390 -0.000067
  33 -0.000002 7.947078 -0.000000 -1.016296 0.103540 0.223388
  34 -24.752748 38.666245 -29.448139 1.570796 0.000000 1.570796
  35 -14.993512 13.480310 -35.248756 -1.570796 0.000000 0.000000
  36 -9.479328 11.000776 11.356395 -2.243722 -0.035836 -0.001626
  37 24.480175 29.459244 -3.358144 1.824131 0.612889 0.610487
  time 3
  0 1.979360 -22.879646 8.359785 -0.213073 -1.754663 -1.786777
  1 -0.000004 7.632661 5.380289 1.644840 -0.000000 0.000000
  2 -0.000002 4.955763 -0.000001 -0.005713 -0.000000 -0.000000
  3 -0.000001 16.156612 -0.000001 0.000000 -0.771415 0.000000
  4 2.361291 5.150873 2.361302 -0.174091 0.786638 0.000223
  5 -2.361288 5.150878 2.361290 -0.174326 -0.785980 0.000108
  6 2.361289 5.150877 -2.361292 -0.174150 2.355119 0.000140
  7 -2.361286 5.150876 -2.361282 -0.174384 -2.355777 0.000191
  8 0.208517 0.000000 -23.612854 1.570796 -0.000000 -1.570796
  9 7.969243 34.965904 25.684069 1.570796 0.000000 -1.570796
  10 12.317471 13.480309 -20.444241 -1.570796 0.000000 0.000000
  11 9.717871 3.853449 5.009261 -1.799792 0.005699 0.029965
  12 14.604706 30.617247 8.074281 -0.536675 0.903861 -1.705201
  13 -1.353216 27.886206 -0.070964 -0.405174 -0.819440 0.065238
  14 -0.000000 2.088997 -0.000000 -2.744332 0.333059 0.109558
  15 8.092661 5.945974 -0.000003 0.474410 -0.300569 -0.152890
  16 0.000001 15.122829 -0.000000 -1.277834 0.000000 0.000000
  17 -0.000001 10.272247 0.000000 2.210746 -0.219639 -0.037851
  18 0.000001 4.132119 -1.927665 0.103606 0.000000 -0.000000
  19 -8.092662 5.945972 0.000001 0.474351 -0.587385 0.334185
  20 0.000000 15.122833 0.000000 -1.703776 0.000000 -0.000000
  21 0.000001 10.272249 -0.000000 2.309647 0.288243 0.009946
  22 -0.000000 4.132120 -1.927664 0.172762 0.000000 -0.000000
  23 -0.000001 11.126792 -0.000002 -0.227949 -0.369892 -0.174185
  24 5.835801 2.795462 0.869679 -0.550478 -0.128757 -1.520146
  25 -0.000002 5.475369 0.000000 0.081069 0.153048 -0.448944
  26 -0.000001 11.557737 0.000006 -1.924738 0.022801 0.016851
  27 0.000000 7.947081 -0.000003 0.087999 0.025823 0.968337
  28 0.000000 6.243679 0.000001 -0.157211 0.000000 0.000000
  29 0.000000 2.631207 -0.000001 0.260483 0.209563 0.090868
  30 -5.834575 2.778242 0.856009 -0.499473 0.109278 1.312407
  31 0.000000 5.475369 0.000002 -0.973466 -0.199214 0.624343
  32 0.000001 11.557744 0.000002 -0.786151 -0.003881 -0.012712
  33 -0.000001 7.947080 -0.000003 -0.764436 -0.436038 0.126826
  34 -28.067852 38.666248 -40.258812 1.570796 0.000000 1.570796
  35 -14.993512 13.480310 -35.248756 -1.570796 0.000000 0.000000
  36 -12.199663 7.125423 -4.039754 -1.898815 -0.009870 -0.004856
  37 14.068223 27.954552 -16.425087 1.770101 0.972943 0.480328
  time 4
  0 18.224499 -20.786705 6.964947 -2.369215 -1.504052 0.780112
  1 -0.000002 7.632662 5.380288 1.644840 -0.000000 0.000000
  2 0.000001 4.955765 -0.000002 -0.005713 -0.000000 -0.000000
  3 0.000000 16.156612 -0.000000 -0.000000 -0.000000 -0.000000
  4 2.361289 5.150873 2.361292 -0.174091 0.786638 0.000223
  5 -2.361293 5.150865 2.361294 -0.174326 -0.785981 0.000108
  6 2.361296 5.150878 -2.361294 -0.174150 2.355119 0.000140
  7 -2.361290 5.150885 -2.361300 -0.174385 -2.355778 0.000191
  8 0.208517 0.000000 -23.612854 1.570796 -0.000000 -1.570796
  9 20.182100 39.143330 11.606190 1.570796 0.000000 -1.570796
  10 13.934371 13.480309 -20.444237 -1.570796 0.000000 0.000000
  11 9.777993 4.428854 10.132989 -1.984353 0.000000 -0.000000
  12 15.993203 33.369812 -6.868683 -0.543548 0.531793 -2.360258
  13 -3.868233 30.065384 -7.855772 -0.521345 -0.865893 0.091818
  14 0.000000 2.088996 -0.000001 -2.612358 0.363221 0.176247
  15 8.092660 5.945972 -0.000004 -0.445137 -0.200185 -0.350294
  16 -0.000005 15.122821 0.000002 -0.003596 -0.000000 -0.000000
  17 -0.000001 10.272248 0.000001 1.669119 -0.414642 0.221473
  18 0.000001 4.132120 -1.927663 0.259434 0.000000 -0.000000
  19 -8.092659 5.945974 0.000001 0.356735 -0.580101 0.244769
  20 0.000005 15.122833 -0.000003 -0.933553 0.000001 -0.000001
  21 0.000001 10.272250 -0.000003 2.036944 0.167022 -0.089100
  22 -0.000001 4.132120 -1.927665 -0.000000 -0.000000 -0.000000
  23 -0.000000 11.126796 0.000000 -0.249093 -0.028408 -0.128975
  24 5.835802 2.795465 0.869681 -0.607990 -0.108769 -1.433520
  25 -0.000003 5.475369 -0.000000 0.067068 0.120386 -0.122199
  26 0.000004 11.557741 0.000001 -2.061107 0.025036 0.015850
  27 0.000000 7.947080 0.000002 1.043992 0.140595 0.882356
  28 0.000001 6.243681 0.000003 -0.157211 0.000000 0.000000
  29 -0.000000 2.631207 0.000000 0.578712 0.475520 0.437564
  30 -5.833350 2.761024 0.842343 -0.616675 0.071044 1.243991
  31 0.000003 5.475368 -0.000001 -0.792019 -0.152945 0.714078
  32 0.000000 11.557745 -0.000002 -1.033728 -0.007382 -0.015434
  33 -0.000001 7.947074 0.000001 -0.776159 -0.621218 -0.051879
  34 -31.382954 38.666248 -42.377563 1.570796 0.000000 1.570796
  35 -14.993512 13.480310 -35.248756 -1.570796 0.000000 0.000000
  36 -13.879999 3.250068 -14.318006 -1.553285 0.015707 0.000904
  37 6.164597 28.129635 -26.039476 1.425544 1.392427 0.147287
  time 5
  0 34.469639 -18.693762 5.570110 -0.625719 -1.447268 -0.571999
  1 -0.000004 7.632659 5.380288 1.644840 -0.000000 0.000000
  2 -0.000001 4.955765 0.000001 -0.005713 0.000000 -0.000000
  3 0.000001 16.156610 -0.000001 0.000000 0.849910 0.000000
  4 2.361288 5.150867 2.361294 -0.174091 0.786638 0.000223
  5 -2.361292 5.150870 2.361294 -0.174326 -0.785980 0.000108
  6 2.361286 5.150875 -2.361297 -0.174150 2.355119 0.000140
  7 -2.361294 5.150882 -2.361294 -0.174384 -2.355777 0.000191
  8 0.208517 0.000000 -23.612854 1.570796 -0.000000 -1.570796
  9 21.746975 38.075851 1.193840 1.570796 0.000000 -1.570796
  10 14.612427 13.480309 -20.444237 -1.570796 0.000000 0.000000
  11 9.777993 4.428854 10.132989 -1.984353 0.000000 -0.000000
  12 18.930096 32.348270 -22.332022 -0.719772 0.353768 -2.591084
  13 -3.868234 30.065384 -6.340633 -0.456459 -0.642449 0.102899
  14 -0.000000 2.088998 0.000000 -2.698755 0.198664 0.032728
  15 8.092660 5.945969 -0.000002 -0.419035 -0.165835 -0.368875
  16 -0.000004 15.122825 -0.000005 -0.003590 -0.000000 0.000000
  17 -0.000002 10.272245 -0.000002 1.620095 -0.429034 0.239173
  18 0.000001 4.132118 -1.927664 0.347475 -0.000000 -0.000000
  19 -8.092660 5.945970 0.000001 0.345782 -0.548259 0.216131
  20 0.000001 15.122828 -0.000002 -0.920010 0.000000 -0.000000
  21 0.000001 10.272244 -0.000001 2.038934 0.146560 -0.082492
  22 -0.000001 4.132119 -1.927665 -0.000000 -0.000000 -0.000000
  23 0.000000 11.126799 0.000002 -0.248887 -0.044309 -0.134122
  24 5.835800 2.795462 0.869679 -0.611986 -0.085863 -1.380955
  25 0.000001 5.475367 -0.000001 -1.096514 0.375328 -0.057107
  26 0.000002 11.557735 0.000000 -0.003694 -0.001390 0.000067
  27 0.000003 7.947077 0.000001 0.265339 0.874884 0.111827
  28 -0.000001 6.243676 -0.000001 -0.157211 0.000000 -0.000000
  29 0.000000 2.631206 0.000000 0.557689 0.465874 0.382398
  30 -5.833348 2.761022 0.842342 -0.627821 0.074861 1.231422
  31 0.000003 5.475370 0.000001 -0.829527 -0.400767 0.392891
  32 -0.000004 11.557739 0.000000 -0.003707 0.001390 -0.000067
  33 -0.000003 7.947072 -0.000001 -1.398559 -1.125607 1.032423
  34 -31.382965 38.449760 -37.339058 1.570796 0.000000 1.570796
  35 -14.993512 13.480310 -35.248756 -1.570796 0.000000 0.000000
  36 -13.880000 3.250068 -12.695557 -1.553285 0.015707 0.000904
  37 1.882087 29.015341 -36.919331 1.873551 2.245640 0.085502
  time 6
  0 35.701763 -16.501152 6.057182 -0.402339 -1.453092 -0.423895
  1 0.000000 7.632660 5.380289 1.644840 -0.000000 0.000000
  2 -0.000000 4.955765 0.000002 -0.005713 0.000000 0.000000
  3 -0.000001 16.156609 0.000001 0.000000 1.721640 0.000000
  4 2.361280 5.150870 2.361291 -0.174091 0.786638 0.000223
  5 -2.361297 5.150874 2.361290 -0.174326 -0.785980 0.000108
  6 2.361292 5.150874 -2.361299 -0.174150 2.355119 0.000140
  7 -2.361287 5.150877 -2.361295 -0.174384 -2.355777 0.000191
  8 0.208517 0.000000 -23.612854 1.570796 -0.000000 -1.570796
  9 22.795956 35.407166 -5.785867 1.570796 0.000000 -1.570796
  10 14.332280 13.480309 -20.444237 -1.570796 0.000000 0.000000
  11 9.777993 4.428854 10.132989 -1.984353 0.000000 -0.000000
  12 21.237804 31.160877 -24.339706 -1.039490 0.247367 -2.687526
  13 -3.868233 30.065384 -4.825495 -0.396061 -0.416793 0.128773
  14 -0.000000 2.088999 0.000000 -2.757926 0.038398 -0.104386
  15 8.092662 5.945971 -0.000003 -0.399963 -0.150810 -0.393288
  16 0.000001 15.122818 0.000000 -0.003583 -0.000000 0.000000
  17 0.000001 10.272245 0.000001 1.581124 -0.411144 0.257122
  18 0.000001 4.132121 -1.927662 0.406704 -0.000000 -0.000001
  19 -8.092662 5.945972 0.000002 0.339063 -0.503681 0.161262
  20 -0.000009 15.122821 0.000002 -0.885715 -0.000000 0.000000
  21 0.000001 10.272243 -0.000001 2.023128 0.120490 -0.071777
  22 -0.000000 4.132120 -1.927665 -0.000000 -0.000000 -0.000001
  23 0.000000 11.126797 0.000001 -0.436719 -0.085208 -0.133293
  24 5.835800 2.795462 0.869679 -0.607948 -0.059657 -1.349267
  25 0.000001 5.475371 -0.000000 -0.912052 0.590874 -0.147194
  26 0.000005 11.557739 -0.000002 -0.003717 -0.001390 0.000067
  27 -0.000003 7.947076 -0.000004 -0.308585 0.839999 -0.200926
  28 0.000000 6.243678 -0.000000 -0.157211 0.000000 0.000000
  29 0.000001 2.631207 0.000001 0.509462 0.416676 0.248922
  30 -5.833349 2.761025 0.842344 -0.633951 0.088914 1.221880
  31 0.000002 5.475370 -0.000001 -1.036672 -0.561692 0.354619
  32 0.000001 11.557737 -0.000002 -0.003691 0.001390 -0.000066
  33 -0.000005 7.947073 -0.000001 -0.909118 -1.273985 0.551887
  34 -31.382969 37.908539 -24.742781 1.570796 0.000000 1.570796
  35 -14.993512 13.480310 -35.248756 -1.570796 0.000000 0.000000
  36 -13.879999 3.250068 -11.073109 -1.553285 0.015707 0.000904
  37 -0.852776 29.728584 -32.804897 1.847446 2.477586 0.110144
  time 7
  0 36.155704 -11.269608 5.644955 -1.233199 -1.461597 0.713208
  1 -0.000004 7.632664 5.380286 1.644840 -0.000000 0.000000
  2 0.000000 4.955765 -0.000000 -0.005714 0.000000 -0.000000
  3 -0.000000 16.156614 -0.000003 0.000000 2.514055 -0.000000
  4 2.361291 5.150875 2.361294 -0.174091 0.786638 0.000223
  5 -2.361291 5.150877 2.361289 -0.174326 -0.785981 0.000109
  6 2.361291 5.150873 -2.361298 -0.174150 2.355119 0.000140
  7 -2.361299 5.150870 -2.361301 -0.174384 -2.355777 0.000191
  8 0.208517 0.000000 -23.612854 1.570796 -0.000000 -1.570796
  9 23.432222 31.937866 -10.019456 1.570796 0.000000 -1.570796
  10 13.593714 13.480309 -20.444237 -1.570796 0.000000 0.000000
  11 9.777993 4.428854 10.132989 -1.984353 0.000000 -0.000000
  12 19.441523 29.282965 -26.718611 -1.400188 0.198578 -2.709633
  13 -3.868235 30.065384 -3.310358 -0.334834 -0.196023 0.165980
  14 0.000001 2.089002 0.000000 -2.788096 -0.111183 -0.234692
  15 8.092662 5.945976 -0.000005 -0.272104 -0.137562 -0.422354
  16 0.000002 15.122831 0.000002 -0.286840 -0.000000 0.000000
  17 -0.000002 10.272248 -0.000005 1.725625 -0.419225 0.205511
  18 0.000001 4.132123 -1.927664 0.442971 -0.000000 -0.000001
  19 -8.092661 5.945976 0.000002 0.335648 -0.446862 0.094604
  20 0.000003 15.122832 0.000002 -0.836788 0.000000 -0.000001
  21 -0.000001 10.272243 -0.000001 1.990854 0.093075 -0.058258
  22 -0.000001 4.132119 -1.927665 0.000000 -0.000000 -0.000000
  23 0.000001 11.126797 -0.000001 -0.368592 -0.098510 -0.143139
  24 5.835801 2.795463 0.869679 -0.595299 -0.031059 -1.333672
  25 -0.000000 5.475370 0.000004 -0.915935 0.552423 -0.473847
  26 0.000002 11.557745 -0.000004 -0.003732 -0.001390 0.000067
  27 0.000004 7.947083 -0.000001 -0.638760 0.751793 -0.130367
  28 0.000001 6.243678 -0.000000 -0.157211 0.000000 -0.000000
  29 0.000000 2.631206 -0.000000 0.464662 0.297615 0.086653
  30 -5.833348 2.761025 0.842345 -0.632952 0.097666 1.217850
  31 -0.000001 5.475368 -0.000002 -1.298691 -0.455207 0.880831
  32 -0.000004 11.557740 -0.000003 -0.003698 0.001390 -0.000066
  33 -0.000001 7.947078 -0.000001 -0.966543 -0.808340 0.390324
  34 -31.382977 37.204956 -8.367618 1.570796 0.000000 1.570796
  35 -14.993512 13.480310 -35.248756 -1.570796 0.000000 0.000000
  36 -13.880000 3.250068 -9.450662 -1.553285 0.015707 0.000904
  37 -5.093492 27.263893 -28.648548 1.755522 2.475594 0.265812
  time 8
  0 36.220554 -4.857711 4.870224 -1.224247 -1.298635 1.004496
  1 -0.000004 7.632665 5.380282 1.644840 -0.000000 0.000000
  2 0.000001 4.955768 0.000002 -0.005713 -0.000000 -0.000000
  3 -0.000001 16.156614 -0.000005 0.000000 -3.090829 0.000000
  4 2.361294 5.150873 2.361289 -0.174091 0.786638 0.000223
  5 -2.361286 5.150877 2.361293 -0.174326 -0.785980 0.000108
  6 2.361294 5.150875 -2.361303 -0.174150 2.355119 0.000140
  7 -2.361291 5.150872 -2.361299 -0.174384 -2.355777 0.000191
  8 0.208517 0.000000 -23.612854 1.570796 -0.000000 -1.570796
  9 23.758953 28.468571 -12.193462 1.570796 0.000000 -1.570796
  10 12.549533 13.480309 -20.444241 -1.570796 0.000000 0.000000
  11 9.777993 4.428854 10.132989 -1.984353 0.000000 -0.000000
  12 15.958323 28.767220 -29.638561 -1.687712 0.036223 -2.672984
  13 -3.724833 29.737310 -3.310358 -0.357662 -0.191465 0.166350
  14 -0.000000 2.088996 -0.000001 -2.758193 -0.043271 -0.252424
  15 8.092661 5.945978 -0.000005 -0.284783 -0.119786 -0.453267
  16 0.000001 15.122828 -0.000001 -0.406921 -0.000000 0.000000
  17 -0.000000 10.272248 -0.000000 1.841692 -0.412353 0.175127
  18 0.000001 4.132119 -1.927664 0.461981 -0.000000 -0.000000
  19 -8.092660 5.945974 0.000002 0.291137 -0.384118 0.053875
  20 -0.000002 15.122828 0.000001 -0.868692 0.000000 -0.000000
  21 0.000001 10.272247 0.000001 2.068061 0.090471 -0.050626
  22 -0.000000 4.132120 -1.927665 0.000000 -0.000000 -0.000000
  23 -0.000001 11.126795 -0.000001 -0.158651 0.167950 -0.090375
  24 5.835800 2.795464 0.869680 -0.573295 -0.000643 -1.329402
  25 -0.000003 5.475371 0.000001 -0.810515 0.524252 -0.740497
  26 0.000002 11.557745 0.000001 -0.003726 -0.001390 0.000067
  27 -0.000001 7.947076 0.000001 -0.880579 0.526683 -0.090205
  28 0.000001 6.243679 0.000001 -0.157211 0.000000 -0.000000
  29 -0.000001 2.631206 0.000001 0.475747 0.100532 -0.063678
  30 -5.833349 2.761027 0.842344 -0.437632 0.156059 1.343415
  31 -0.000002 5.475368 -0.000001 -1.364480 -0.054053 1.261789
  32 -0.000001 11.557746 0.000004 -0.003706 0.001390 -0.000066
  33 0.000002 7.947080 -0.000001 -1.094425 -0.270316 0.376413
  34 -31.382973 36.501373 8.007546 1.570796 0.000000 1.570796
  35 -14.993512 13.480310 -35.248756 -1.570796 0.000000 0.000000
  36 -13.880000 3.250068 -7.828214 -1.553285 0.015707 0.000904
  37 -8.713833 25.121403 -24.298233 1.617701 2.480668 0.352370
  time 9
  0 31.941004 3.955938 3.699944 -0.475290 -0.950352 0.726519
  1 -0.000003 7.632663 5.380287 1.644840 0.000000 0.000000
  2 0.000001 4.955765 0.000001 -0.005713 0.000000 0.000000
  3 -0.000000 16.156612 -0.000000 -0.000000 -2.484386 0.000000
  4 2.361292 5.150875 2.361291 -0.174091 0.786638 0.000223
  5 -2.361287 5.150880 2.361288 -0.174326 -0.785981 0.000108
  6 2.361290 5.150878 -2.361293 -0.174150 2.355119 0.000140
  7 -2.361289 5.150875 -2.361298 -0.174384 -2.355777 0.000191
  8 0.208517 0.000000 -23.612854 1.570796 -0.000000 -1.570796
  9 23.879330 25.799879 -12.994411 1.570796 0.000000 -1.570796
  10 11.352544 13.480309 -20.444241 -1.570796 0.000000 0.000000
  11 9.777993 4.428854 10.132989 -1.984353 0.000000 -0.000000
  12 9.428004 28.605148 -30.612307 1.406515 -2.648223 0.438459
  13 -3.581431 29.409231 -3.310357 -0.380471 -0.186899 0.166614
  14 -0.000000 2.088998 -0.000001 -2.732324 0.035933 -0.253654
  15 8.092661 5.945972 -0.000004 -0.334685 -0.095533 -0.467285
  16 -0.000002 15.122825 0.000001 -0.456645 -0.000000 0.000000
  17 -0.000001 10.272245 -0.000003 1.916617 -0.387231 0.163759
  18 0.000001 4.132121 -1.927665 0.469318 -0.000000 -0.000000
  19 -8.092659 5.945971 0.000000 0.253552 -0.307507 0.021095
  20 0.000000 15.122826 0.000001 -0.899019 0.000000 -0.000000
  21 -0.000001 10.272248 -0.000001 2.137563 0.087949 -0.044423
  22 0.000001 4.132120 -1.927665 0.000000 -0.000000 -0.000000
  23 -0.000001 11.126799 -0.000000 -0.184258 0.637120 0.032266
  24 5.835802 2.795460 0.869678 -0.540895 0.031175 -1.331689
  25 0.000001 5.475371 0.000001 -0.574393 0.744098 -0.794717
  26 0.000003 11.557747 -0.000002 -0.003691 -0.001390 0.000066
  27 0.000002 7.947082 -0.000003 -1.044817 0.215374 -0.360084
  28 0.000001 6.243677 0.000000 -0.157211 0.000000 -0.000000
  29 0.000001 2.631208 -0.000000 0.537172 -0.086151 -0.181725
  30 -5.833349 2.761027 0.842344 -0.061861 0.193128 1.600636
  31 0.000003 5.475367 0.000001 -1.451886 0.402767 0.684418
  32 -0.000001 11.557744 0.000003 -0.837700 -0.004553 -0.013349
  33 -0.000000 7.947080 -0.000002 -0.348221 -0.527480 -0.059505
  34 -31.382977 35.960155 20.603821 1.570796 0.000000 1.570796
  35 -14.993512 13.480310 -35.248756 -1.570796 0.000000 0.000000
  36 -13.880002 3.250068 -6.205768 -1.553285 0.015707 0.000904
  37 -11.767827 29.559286 -15.457752 -1.512082 0.290609 -2.886373
  time 10
  0 26.504835 15.337770 2.567644 -0.115322 -0.598806 0.662335
  1 -0.000004 7.632662 5.380287 1.644840 -0.000000 0.000000
  2 -0.000001 4.955766 0.000001 -0.005714 -0.000000 -0.000000
  3 -0.000003 16.156612 0.000001 0.000000 -1.665656 0.000000
  4 2.361294 5.150875 2.361298 -0.174091 0.786638 0.000223
  5 -2.361293 5.150879 2.361292 -0.174326 -0.785980 0.000108
  6 2.361292 5.150873 -2.361292 -0.174150 2.355119 0.000140
  7 -2.361287 5.150881 -2.361292 -0.174385 -2.355777 0.000191
  8 0.208517 0.000000 -23.612854 1.570796 -0.000000 -1.570796
  9 23.896526 24.732401 -13.108838 1.570796 0.000000 -1.570796
  10 10.155557 13.480309 -20.444241 -1.570796 0.000000 0.000000
  11 9.777993 4.428854 10.132989 -1.984353 0.000000 -0.000000
  12 -1.395618 27.221722 -28.248503 1.587304 -2.227979 0.203365
  13 -3.438029 29.081154 -3.310357 -0.403257 -0.182329 0.166772
  14 0.000000 2.088999 -0.000001 -2.708807 0.122906 -0.230446
  15 8.092660 5.945972 -0.000004 -0.413215 -0.058539 -0.454893
  16 0.000002 15.122824 0.000003 -0.447279 -0.000000 0.000000
  17 0.000002 10.272248 0.000001 1.955952 -0.347090 0.164858
  18 0.000000 4.132119 -1.927663 0.470529 -0.000000 -0.000000
  19 -8.092661 5.945976 0.000000 0.230699 -0.216636 0.007088
  20 0.000002 15.122822 0.000003 -0.944625 0.000000 -0.000001
  21 0.000000 10.272245 -0.000001 2.209039 0.088702 -0.040623
  22 -0.000000 4.132120 -1.927663 0.000000 -0.000000 -0.000000
  23 0.000000 11.126793 0.000000 0.069686 0.867498 0.221632
  24 5.835800 2.795465 0.869680 -0.496697 0.063927 -1.335702
  25 -0.000002 5.475371 0.000001 -0.545775 0.424942 -1.167483
  26 0.000007 11.557736 -0.000002 -0.587164 0.001619 0.009953
  27 0.000003 7.947077 -0.000000 -0.562203 0.315291 -0.207676
  28 -0.000000 6.243680 0.000001 -0.157211 0.000000 0.000000
  29 0.000000 2.631205 -0.000001 0.575678 -0.165743 -0.232821
  30 -5.833350 2.761024 0.842343 0.132158 0.170642 1.734119
  31 0.000004 5.475367 0.000001 -1.269527 -0.072374 0.191515
  32 -0.000002 11.557741 0.000000 -1.368494 -0.012965 -0.017598
  33 -0.000000 7.947079 0.000002 0.408866 -1.037763 -0.306652
  34 -31.382975 35.743668 25.642330 1.570796 0.000000 1.570796
  35 -14.993512 13.480310 -35.248756 -1.570796 0.000000 0.000000
  36 -13.880002 3.250067 -4.583320 -1.553285 0.015707 0.000904
  37 -20.265968 34.917076 -11.264728 -1.325928 0.006231 -3.085725
  time 11
  0 25.391052 11.856572 3.331278 -0.095919 -0.480454 0.308868
  1 0.000001 7.632663 5.380290 1.644840 -0.000000 0.000000
  2 -0.000000 4.955764 0.000002 -0.005713 0.000000 0.000000
  3 0.000001 16.156616 0.000001 0.000000 -0.526920 0.000000
  4 2.361288 5.150877 2.361295 -0.174091 0.786638 0.000223
  5 -2.361296 5.150867 2.361293 -0.174326 -0.785981 0.000108
  6 2.361290 5.150886 -2.361287 -0.174150 2.355119 0.000140
  7 -2.361293 5.150873 -2.361291 -0.174384 -2.355777 0.000191
  8 0.208517 0.000000 -23.612854 1.570796 -0.000000 -1.570796
  9 23.585695 28.468567 -8.158777 1.570796 0.000000 -1.570796
  10 9.111376 13.480309 -20.444241 -1.570796 0.000000 0.000000
  11 9.812325 4.819088 8.164773 -1.915066 0.000000 -0.000000
  12 2.172293 28.498644 -24.151382 1.750321 -2.230020 0.015553
  13 -3.259078 29.506943 -3.034494 -0.360944 -0.166844 0.142139
  14 -0.000000 2.088995 -0.000001 -2.746125 0.171554 -0.150049
  15 8.092660 5.945968 -0.000004 -0.301847 -0.010022 -0.358918
  16 0.000001 15.122827 0.000000 -0.650045 -0.000000 0.000000
  17 -0.000001 10.272243 0.000000 2.103153 -0.276788 0.139186
  18 0.000002 4.132118 -1.927664 0.348943 -0.000000 -0.000000
  19 -8.092660 5.945970 -0.000000 0.101431 -0.114657 0.051861
  20 0.000000 15.122829 0.000000 -0.860102 0.000000 -0.000000
  21 -0.000001 10.272248 -0.000000 2.267424 0.095362 -0.053891
  22 -0.000000 4.132120 -1.927663 0.000000 0.000000 -0.000000
  23 -0.000000 11.126795 0.000001 -0.112952 0.685381 0.071890
  24 5.835801 2.795462 0.869679 -0.439703 0.095922 -1.339094
  25 0.000004 5.475370 -0.000001 -0.357368 0.257461 -1.177633
  26 0.000001 11.557745 0.000000 -1.105575 0.008516 0.016056
  27 0.000001 7.947077 0.000001 -0.325554 0.388333 -0.202447
  28 0.000000 6.243680 0.000002 -0.157211 0.000000 -0.000000
  29 -0.000000 2.631203 -0.000002 0.477719 -0.154683 -0.168951
  30 -5.833350 2.761025 0.842343 -0.059830 0.178381 1.627778
  31 0.000003 5.475367 -0.000000 -1.130108 -0.234590 0.380366
  32 0.000000 11.557743 -0.000003 -1.457569 -0.014543 -0.017847
  33 -0.000001 7.947082 -0.000001 0.927004 -0.805842 -0.532333
  34 -31.382977 36.501373 21.178263 1.570796 0.000000 1.570796
  35 -14.993512 13.480310 -35.248756 -1.570796 0.000000 0.000000
  36 -13.863351 3.251479 -0.743274 -1.553383 0.022383 0.000930
  37 -19.887150 36.885414 -14.503596 -1.135775 -0.013534 3.049250
  time 12
  0 25.305378 5.517817 2.379194 -0.139091 -0.441719 -0.089224
  1 0.000000 7.632663 5.380286 1.644840 -0.000000 0.000000
  2 -0.000001 4.955765 -0.000000 -0.005713 0.000000 -0.000000
  3 0.000001 16.156612 0.000000 -0.000000 0.091942 -0.000000
  4 2.361286 5.150872 2.361296 -0.174091 0.786638 0.000223
  5 -2.361297 5.150873 2.361288 -0.174326 -0.785981 0.000108
  6 2.361284 5.150877 -2.361290 -0.174150 2.355119 0.000140
  7 -2.361296 5.150872 -2.361296 -0.174384 -2.355777 0.000191
  8 0.208517 0.000000 -23.612854 1.570796 -0.000000 -1.570796
  9 22.449442 35.407166 2.283511 1.570796 0.000000 -1.570796
  10 8.372809 13.480309 -20.444241 -1.570796 0.000000 0.000000
  11 9.906119 5.885228 2.787506 -1.903679 0.000000 -0.000000
  12 8.001603 27.977932 -21.315521 1.954813 -2.230943 -0.190011
  13 -3.080127 29.932728 -2.758631 -0.319019 -0.150305 0.118187
  14 -0.000000 2.088998 0.000000 -2.792067 0.201094 -0.052085
  15 8.092659 5.945977 -0.000003 0.075824 0.030614 -0.243322
  16 0.000002 15.122829 -0.000001 -1.100434 0.000000 0.000000
  17 0.000002 10.272248 -0.000001 2.199150 -0.214407 0.127663
  18 0.000001 4.132120 -1.927665 0.121586 0.000000 -0.000001
  19 -8.092661 5.945979 0.000001 0.013113 -0.036023 0.134710
  20 -0.000000 15.122827 -0.000001 -0.777549 0.000000 -0.000000
  21 -0.000001 10.272245 -0.000000 2.302381 0.107902 -0.074687
  22 -0.000002 4.132119 -1.927665 -0.000000 -0.000000 -0.000000
  23 -0.000001 11.126796 -0.000000 -0.228286 0.276888 -0.056792
  24 5.835800 2.795460 0.869678 -0.375407 0.125077 -1.342081
  25 -0.000000 5.475369 0.000001 -0.673271 0.086295 -1.096500
  26 0.000004 11.557746 -0.000002 -0.505101 0.000853 0.008694
  27 0.000000 7.947083 -0.000001 -0.729649 0.194331 -0.618110
  28 -0.000000 6.243676 0.000000 -0.157211 0.000000 -0.000000
  29 0.000001 2.631204 -0.000002 0.296590 -0.074483 -0.046312
  30 -5.833348 2.761024 0.842344 -0.425636 0.140495 1.407902
  31 -0.000000 5.475367 -0.000004 -0.830894 -0.271030 0.795953
  32 0.000001 11.557745 -0.000003 -1.768060 -0.020097 -0.017617
  33 0.000002 7.947080 -0.000001 1.371052 0.102383 -0.680402
  34 -31.382971 37.908539 9.696511 1.570796 0.000000 1.570796
  35 -14.993512 13.480310 -35.248756 -1.570796 0.000000 0.000000
  36 -13.746784 3.261353 2.555957 -1.554084 0.034783 0.000968
  37 -13.879169 36.106350 -18.747561 -0.870414 -0.145621 2.758657
  time 13
  0 24.191597 -6.274820 1.399637 -0.292576 -0.533780 -0.535288
  1 -0.000003 7.632662 5.380286 1.644840 -0.000000 0.000000
  2 -0.000000 4.955764 0.000000 -0.005713 -0.000000 0.000000
  3 0.000001 16.156612 0.000000 -0.000000 -0.000000 -0.000000
  4 2.361284 5.150874 2.361293 -0.174091 0.786638 0.000223
  5 -2.361298 5.150872 2.361288 -0.174326 -0.785981 0.000108
  6 2.361290 5.150875 -2.361293 -0.174150 2.355119 0.000140
  7 -2.361290 5.150874 -2.361292 -0.174384 -2.355777 0.000191
  8 0.208517 0.000000 -23.612854 1.570796 -0.000000 -1.570796
  9 20.182100 39.143330 11.606190 1.570796 0.000000 -1.570796
  10 8.092663 13.480309 -20.444241 -1.570796 0.000000 0.000000
  11 10.034245 7.341602 -4.557976 -1.875532 0.000000 -0.000000
  12 16.951876 28.598724 -15.010126 1.923258 -2.539693 -0.066420
  13 -2.901175 30.358513 -2.482768 -0.277536 -0.132764 0.094974
  14 0.000000 2.088999 0.000001 -2.844297 0.200028 -0.000154
  15 8.092664 5.945976 -0.000006 0.537327 0.027694 -0.201470
  16 -0.000001 15.122837 -0.000001 -1.357116 0.000000 0.000001
  17 -0.000001 10.272255 0.000000 2.041330 -0.151457 0.190089
  18 0.000002 4.132120 -1.927664 -0.000000 0.000000 -0.000000
  19 -8.092664 5.945976 0.000003 -0.012620 -0.011535 0.173959
  20 0.000001 15.122835 0.000002 -0.702619 0.000000 -0.000000
  21 -0.000000 10.272254 -0.000002 2.277311 0.111506 -0.082294
  22 -0.000001 4.132122 -1.927665 -0.000000 0.000000 -0.000000
  23 0.000001 11.126797 0.000000 -0.225084 -0.063680 -0.096558
  24 5.835801 2.795461 0.869678 -0.311868 0.150105 -1.344090
  25 0.000003 5.475370 -0.000001 -0.704348 0.026617 -0.972051
  26 -0.000001 11.557745 -0.000002 -0.003689 -0.001390 0.000066
  27 -0.000001 7.947084 0.000002 -1.079711 -0.024987 -0.730011
  28 0.000000 6.243680 0.000002 -0.157211 0.000000 0.000000
  29 0.000000 2.631205 0.000000 0.206016 0.106215 0.029864
  30 -5.833349 2.761023 0.842342 -0.616674 0.071044 1.243991
  31 0.000002 5.475368 0.000002 -0.988573 -0.162294 0.918707
  32 -0.000004 11.557746 0.000001 -1.215904 -0.010332 -0.016844
  33 -0.000001 7.947081 -0.000001 1.166396 0.177558 -0.921702
  34 -31.382967 38.666245 -5.937250 1.570796 0.000000 1.570796
  35 -14.993512 13.480310 -35.248756 -1.570796 0.000000 0.000000
  36 -13.430391 3.288151 3.957276 -1.556003 0.041468 0.000954
  37 -4.024714 34.044956 -21.616184 -0.914628 0.041249 2.670911
end
