version 1
nodes
0 "drill" -1
1 "drill_lever" 0
2 "drill_lever anim_help" 1
3 "drill_spin" 0
4 "drill_claw2" 3
5 "drill_claw1" 3
6 "drill_claw3" 3
7 "drill_claw4" 3
8 "base" -1
9 "ik arm.R" 8
10 "ik leg R" 8
11 "t leg.R" 8
12 "t hand.R" 8
13 "spine low" 8
14 "hip" 13
15 "leg up.R" 14
16 "leg low.R" 15
17 "foot.R" 16
18 "tow.R" 17
19 "leg up.L" 14
20 "leg low.L" 19
21 "foot.L" 20
22 "tow.L" 21
23 "spine up" 13
24 "shoulder.R" 23
25 "arm up.R" 24
26 "arm low.R" 25
27 "hand.R" 26
28 "neck" 23
29 "head" 28
30 "shoulder.L" 23
31 "arm up.L" 30
32 "arm low.L" 31
33 "hand.L" 32
34 "ik arm.L" 8
35 "ik leg L" 8
36 "t leg.L" 8
37 "t hand.L" 8
end
skeleton
  time 0
  0 17.459337 -5.656704 0.184536 -0.019014 -0.172508 -0.529893
  1 -0.000004 7.632661 5.380289 1.644840 -0.000000 0.000000
  2 0.000001 4.955766 -0.000000 -0.005713 -0.000000 -0.000000
  3 -0.000001 16.156609 -0.000001 0.000000 -0.000000 0.000000
  4 2.361289 5.150877 2.361292 -0.174091 0.786638 0.000223
  5 -2.361295 5.150876 2.361288 -0.174326 -0.785980 0.000108
  6 2.361287 5.150874 -2.361294 -0.174150 2.355119 0.000140
  7 -2.361295 5.150877 -2.361296 -0.174384 -2.355778 0.000191
  8 0.208517 0.000000 -23.612854 1.570796 -0.000000 -1.570796
  9 33.399250 30.346788 14.472922 1.570796 0.000000 -1.570796
  10 7.331163 13.480309 -20.444242 -1.570796 0.000000 0.000000
  11 9.830676 3.215760 0.000003 -1.570796 0.000000 0.000000
  12 11.662669 25.771564 -7.330049 -0.870072 0.423984 -2.895319
  13 0.386916 25.989491 -0.224494 0.177472 0.160173 0.153316
  14 -0.000000 2.088998 0.000000 3.088227 -0.245384 -0.097885
  15 8.092660 5.945972 -0.000003 0.464837 -0.153693 -0.046229
  16 -0.000001 15.122828 0.000003 -1.472695 0.000000 0.000001
  17 -0.000001 10.272245 -0.000001 2.478809 -0.010727 0.113082
  18 0.000002 4.132120 -1.927664 -0.000000 -0.000000 -0.000000
  19 -8.092659 5.945972 0.000002 0.610580 -0.177026 0.090572
  20 0.000001 15.122830 0.000000 -1.492038 0.000000 -0.000001
  21 -0.000001 10.272250 0.000001 2.345145 0.123914 0.044769
  22 0.000002 4.132121 -1.927665 -0.012507 0.000000 -0.000001
  23 -0.000000 11.126795 -0.000000 -0.245745 0.008201 -0.156414
  24 5.835800 2.795463 0.869677 -0.229891 -0.430749 -1.636227
  25 -0.000002 5.475368 0.000002 -0.223965 -0.090614 -0.817236
  26 0.000007 11.557737 0.000001 -1.481507 0.014976 0.017896
  27 0.000000 7.947077 0.000002 0.863282 0.350840 1.190604
  28 -0.000001 6.243681 -0.000000 -0.157211 0.000001 0.000000
  29 0.000001 2.631208 0.000000 -0.426104 -0.195437 -0.054663
  30 -5.835801 2.795462 0.869677 -0.524113 0.177816 1.527359
  31 0.000003 5.475367 0.000000 -0.973690 -0.436281 0.450415
  32 -0.000005 11.557743 -0.000001 -1.437849 -0.014192 -0.017804
  33 0.000001 7.947083 0.000000 0.729777 -0.811203 0.234705
  34 -25.953018 30.845156 -1.202114 1.570796 0.000000 1.570796
  35 -12.073826 13.480310 -32.513832 -1.570796 0.000000 0.000000
  36 -9.159435 3.309850 -3.842142 -1.565812 0.000000 0.000000
  37 -10.595965 40.773151 -13.002054 1.520214 2.429186 -0.677183
  time 1
  0 18.471203 -6.675479 -0.305782 0.160210 -0.316704 -0.554628
  1 -0.000001 7.632662 5.380288 1.644840 -0.000000 0.000000
  2 0.000001 4.955766 -0.000001 -0.005713 -0.000000 0.000000
  3 -0.000001 16.156612 0.000000 0.000000 -0.000000 -0.000000
  4 2.361284 5.150871 2.361289 -0.174091 0.786638 0.000223
  5 -2.361291 5.150871 2.361294 -0.174326 -0.785981 0.000108
  6 2.361291 5.150878 -2.361293 -0.174150 2.355119 0.000140
  7 -2.361293 5.150873 -2.361293 -0.174384 -2.355777 0.000191
  8 0.208517 0.000000 -23.612854 1.570796 -0.000000 -1.570796
  9 34.460739 30.346788 13.177541 1.570796 0.000000 -1.570796
  10 7.331163 13.480309 -20.444242 -1.570796 0.000000 0.000000
  11 9.830676 3.215760 0.000003 -1.570796 0.000000 0.000000
  12 12.900397 22.734911 -8.210255 -1.006876 0.438220 -3.044936
  13 0.729374 28.525543 1.243051 0.033252 0.232895 0.119374
  14 -0.000000 2.089000 0.000000 -3.030249 -0.220109 -0.161473
  15 8.092661 5.945977 -0.000004 0.387019 -0.081681 -0.111851
  16 0.000007 15.122834 -0.000004 -1.194551 0.000001 0.000000
  17 -0.000001 10.272258 0.000001 2.274822 0.016291 0.111306
  18 0.000002 4.132121 -1.927666 0.000000 -0.000000 -0.000000
  19 -8.092660 5.945975 0.000001 0.193633 -0.015389 0.002396
  20 0.000003 15.122837 -0.000003 -1.545363 0.000000 -0.000000
  21 0.000002 10.272254 0.000002 2.492505 0.073656 0.016101
  22 -0.000001 4.132121 -1.927665 0.122771 -0.000000 -0.000000
  23 0.000000 11.126796 -0.000000 0.201391 0.066533 0.042400
  24 5.835802 2.795464 0.869678 -0.128142 -0.424217 -1.922688
  25 0.000004 5.475370 -0.000001 -0.410465 -0.241324 -0.908839
  26 -0.000001 11.557741 -0.000000 -0.003688 -0.001390 0.000066
  27 0.000002 7.947079 0.000000 -0.341552 1.298067 0.333859
  28 0.000000 6.243680 -0.000000 -0.157211 0.000000 0.000000
  29 -0.000000 2.631205 -0.000000 0.127644 -0.199550 -0.112378
  30 -5.835801 2.795466 0.869676 -0.608624 0.175193 1.517871
  31 0.000006 5.475368 -0.000000 -0.841621 0.045807 0.426012
  32 -0.000000 11.557737 -0.000002 -1.735359 -0.019519 -0.017723
  33 0.000000 7.947078 0.000002 0.959193 -0.874764 -0.543546
  34 -25.953016 31.962858 -4.857344 1.570796 0.000000 1.570796
  35 -9.421483 13.480310 -32.513832 -1.570796 0.000000 0.000000
  36 -8.522824 7.343729 6.067301 -1.894520 -0.008198 0.018441
  37 -8.100813 40.894386 -9.362160 1.356400 2.367289 -0.246558
  time 2
  0 18.922743 -8.987284 -1.384481 -0.137751 -0.258756 -0.500178
  1 -0.000004 7.632661 5.380288 1.644840 -0.000000 0.000000
  2 0.000001 4.955763 0.000001 -0.005713 -0.000000 0.000000
  3 -0.000000 16.156614 0.000000 -0.000000 -0.000000 0.000000
  4 2.361286 5.150877 2.361296 -0.174091 0.786638 0.000223
  5 -2.361295 5.150874 2.361291 -0.174326 -0.785981 0.000108
  6 2.361283 5.150873 -2.361293 -0.174150 2.355119 0.000140
  7 -2.361296 5.150873 -2.361298 -0.174384 -2.355777 0.000191
  8 0.208517 0.000000 -23.612854 1.570796 -0.000000 -1.570796
  9 35.005829 30.346788 11.631441 1.570796 0.000000 -1.570796
  10 7.331163 13.480309 -20.444242 -1.570796 0.000000 0.000000
  11 9.830676 3.215760 0.000003 -1.570796 0.000000 0.000000
  12 14.659223 24.927439 -8.654761 -0.752315 0.416764 -2.727541
  13 1.071832 31.061598 2.710597 -0.117891 0.300658 0.073658
  14 0.000000 2.089000 0.000001 -2.891404 -0.227868 -0.107301
  15 8.092660 5.945978 -0.000003 0.217356 -0.042971 -0.044978
  16 0.000002 15.122824 0.000000 -0.672581 0.000000 0.000000
  17 -0.000000 10.272245 -0.000002 1.922268 0.077182 0.076881
  18 0.000002 4.132120 -1.927664 -0.000000 -0.000000 -0.000000
  19 -8.092660 5.945979 -0.000001 -0.175657 0.043842 0.003058
  20 -0.000002 15.122828 0.000001 -0.991229 0.000000 -0.000000
  21 -0.000000 10.272245 -0.000000 2.079870 0.028258 0.007824
  22 -0.000001 4.132121 -1.927663 0.376150 0.000000 -0.000000
  23 0.000001 11.126796 0.000002 0.076301 0.135444 0.013145
  24 5.835801 2.795460 0.869678 -0.043784 -0.350234 -2.077612
  25 0.000005 5.475372 -0.000001 -0.440079 -0.054383 -0.601733
  26 -0.000004 11.557748 0.000006 -0.003678 -0.001390 0.000066
  27 -0.000001 7.947079 0.000002 0.062829 1.115849 0.618427
  28 -0.000000 6.243679 0.000000 -0.157211 0.000000 0.000000
  29 0.000000 2.631208 0.000000 0.678966 -0.171163 -0.159978
  30 -5.835802 2.795458 0.869676 -0.654060 0.173458 1.512872
  31 -0.000002 5.475367 -0.000000 -1.120345 0.218393 0.202223
  32 -0.000004 11.557746 0.000002 -1.750394 -0.019782 -0.017675
  33 0.000003 7.947082 -0.000002 0.404166 -1.005564 -0.607095
  34 -25.953016 33.080559 -8.512575 1.570796 0.000000 1.570796
  35 -8.059467 13.480310 -32.513832 -1.570796 0.000000 0.000000
  36 -7.340547 7.145308 12.363629 -2.122924 -0.003007 0.009581
  37 -4.556462 39.882339 -7.136542 1.376373 1.975199 0.182021
  time 3
  0 19.105665 -11.475325 -2.463179 -0.493757 -0.149788 -0.465960
  1 -0.000002 7.632662 5.380290 1.644840 -0.000000 0.000000
  2 0.000000 4.955764 0.000000 -0.005713 -0.000000 -0.000000
  3 -0.000001 16.156612 0.000001 0.000000 -0.000000 0.000000
  4 2.361287 5.150877 2.361294 -0.174091 0.786638 0.000223
  5 -2.361296 5.150875 2.361294 -0.174326 -0.785981 0.000108
  6 2.361290 5.150877 -2.361296 -0.174150 2.355119 0.000140
  7 -2.361292 5.150877 -2.361295 -0.174385 -2.355778 0.000192
  8 0.208517 0.000000 -23.612854 1.570796 -0.000000 -1.570796
  9 35.206646 30.346788 10.336060 1.570796 0.000000 -1.570796
  10 7.331163 13.480309 -20.444242 -1.570796 0.000000 0.000000
  11 9.830676 3.215760 0.000003 -1.570796 0.000000 0.000000
  12 15.562353 27.628866 -9.817128 -0.732269 0.333917 -2.479047
  13 1.414290 30.236397 4.178143 -0.275193 0.360723 0.016701
  14 -0.000000 2.088997 0.000000 -2.768498 -0.281667 -0.023449
  15 8.092665 5.945971 -0.000005 0.286434 -0.022806 0.052028
  16 0.000001 15.122829 -0.000002 -0.723369 0.000000 0.000000
  17 0.000001 10.272247 -0.000001 1.909311 0.097947 0.056710
  18 0.000002 4.132121 -1.927666 0.000000 -0.000000 -0.000000
  19 -8.092662 5.945972 0.000003 -0.152517 0.070039 0.085073
  20 0.000001 15.122825 0.000001 -1.018128 0.000000 -0.000000
  21 -0.000001 10.272245 0.000000 2.054113 0.029100 0.009288
  22 -0.000001 4.132119 -1.927664 0.511428 -0.000000 -0.000000
  23 0.000000 11.126796 -0.000000 -0.163971 0.173436 -0.064371
  24 5.835800 2.795464 0.869678 -0.016205 -0.225680 -1.825714
  25 -0.000001 5.475371 -0.000002 -0.129239 0.184871 -0.643649
  26 0.000004 11.557739 0.000000 -1.242597 0.010785 0.017007
  27 -0.000003 7.947080 0.000000 0.681492 0.324670 0.983845
  28 0.000000 6.243680 0.000001 -0.157211 0.000000 -0.000000
  29 -0.000000 2.631206 -0.000000 0.362485 -0.076303 0.034155
  30 -5.835800 2.795460 0.869675 -0.562339 0.169391 1.541646
  31 0.000007 5.475367 0.000001 -1.226380 0.107716 -0.035635
  32 -0.000001 11.557741 -0.000000 -1.606926 -0.017223 -0.017953
  33 0.000001 7.947080 -0.000001 -0.192589 -1.073030 -0.084528
  34 -25.953018 32.537590 -5.706597 1.570796 0.000000 1.570796
  35 -7.557673 13.480310 -32.513832 -1.570796 0.000000 0.000000
  36 -6.703934 5.756366 13.517288 -2.159247 0.000000 -0.000000
  37 -5.320531 35.668419 -6.509028 1.868388 1.928371 0.570705
  time 4
  0 19.311697 -13.022806 -2.953495 -0.564245 -0.159399 -0.444835
  1 -0.000000 7.632663 5.380287 1.644840 -0.000000 0.000000
  2 -0.000000 4.955764 -0.000001 -0.005713 -0.000000 -0.000000
  3 0.000001 16.156612 -0.000000 0.000000 -0.000000 -0.000000
  4 2.361286 5.150876 2.361292 -0.174091 0.786638 0.000223
  5 -2.361294 5.150877 2.361289 -0.174326 -0.785981 0.000108
  6 2.361288 5.150875 -2.361292 -0.174150 2.355119 0.000140
  7 -2.361295 5.150875 -2.361294 -0.174384 -2.355777 0.000191
  8 0.208517 0.000000 -23.612854 1.570796 -0.000000 -1.570796
  9 35.235336 30.346788 9.792835 1.570796 0.000000 -1.570796
  10 7.331163 13.480309 -20.444242 -1.570796 0.000000 0.000000
  11 9.830676 3.215760 0.000003 -1.570796 0.000000 0.000000
  12 16.745443 27.605856 -10.198510 -0.956151 0.322191 -2.509281
  13 1.756749 29.411196 5.645687 -0.437055 0.410719 -0.050009
  14 -0.000000 2.088995 -0.000001 -2.645161 -0.356561 0.013128
  15 8.092660 5.945968 -0.000003 0.386766 -0.019363 0.105879
  16 -0.000006 15.122825 0.000003 -0.819624 -0.000000 0.000001
  17 0.000001 10.272247 0.000000 1.914335 0.109705 0.045613
  18 0.000002 4.132122 -1.927664 -0.000000 -0.000000 -0.000000
  19 -8.092659 5.945969 0.000001 -0.169804 0.076510 0.152751
  20 0.000000 15.122826 0.000002 -0.842208 0.000000 -0.000000
  21 0.000000 10.272243 0.000002 2.500095 0.055752 -0.007843
  22 0.000000 4.132122 -1.927665 0.000000 -0.000000 -0.000001
  23 0.000001 11.126792 -0.000001 -0.294059 0.187896 -0.109278
  24 5.835800 2.795461 0.869675 -0.000000 -0.157211 -1.570796
  25 0.000003 5.475369 -0.000002 -0.040837 0.392652 -0.807225
  26 -0.000002 11.557739 0.000004 -1.458732 0.014568 0.017854
  27 0.000001 7.947080 -0.000003 0.501484 0.362013 0.923365
  28 -0.000001 6.243679 -0.000000 -0.157211 0.000000 0.000000
  29 0.000000 2.631205 -0.000002 -0.186463 0.094518 0.176538
  30 -5.835801 2.795460 0.869676 -0.470861 0.162747 1.569895
  31 0.000002 5.475368 -0.000001 -1.288635 -0.015883 -0.055678
  32 0.000000 11.557739 0.000001 -1.377605 -0.013124 -0.017628
  33 -0.000002 7.947081 0.000002 -0.613944 -0.914333 0.509566
  34 -25.953018 31.994627 -1.202114 1.570796 0.000000 1.570796
  35 -7.485988 13.480310 -32.513832 -1.570796 0.000000 0.000000
  36 -6.703935 3.309848 14.406932 -1.565812 0.000000 0.000000
  37 -6.885665 32.319763 -6.419382 -0.840036 1.197147 -2.353957
  time 5
  0 19.783936 -13.257787 -2.953495 -0.564119 -0.158855 -0.428867
  1 -0.000001 7.632663 5.380288 1.644840 -0.000000 0.000000
  2 -0.000001 4.955766 0.000001 -0.005713 0.000000 0.000000
  3 0.000001 16.156612 -0.000000 0.000000 -0.000000 -0.000000
  4 2.361290 5.150876 2.361294 -0.174091 0.786638 0.000223
  5 -2.361296 5.150875 2.361292 -0.174326 -0.785980 0.000109
  6 2.361296 5.150881 -2.361293 -0.174150 2.355119 0.000140
  7 -2.361293 5.150875 -2.361294 -0.174384 -2.355777 0.000191
  8 0.208517 0.000000 -23.612854 1.570796 -0.000000 -1.570796
  9 35.134926 30.346788 9.939088 1.570796 0.000000 -1.570796
  10 7.331163 13.480309 -20.444242 -1.570796 0.000000 0.000000
  11 9.830676 3.215760 0.000003 -1.570796 0.000000 0.000000
  12 17.165583 27.555649 -10.786839 -0.966749 0.314461 -2.500857
  13 1.756749 29.256929 4.315451 -0.448550 0.237457 -0.024254
  14 -0.000000 2.088998 0.000001 -2.631049 -0.207904 0.035815
  15 8.092658 5.945972 -0.000002 0.388420 -0.050357 0.103248
  16 0.000002 15.122829 0.000003 -0.903779 -0.000000 0.000000
  17 0.000001 10.272248 0.000000 2.011434 0.111764 0.050492
  18 0.000002 4.132121 -1.927664 -0.000000 -0.000000 -0.000000
  19 -8.092659 5.945975 0.000000 -0.263387 0.047783 0.146219
  20 0.000001 15.122827 0.000002 -0.719554 0.000000 -0.000000
  21 0.000000 10.272245 -0.000001 2.484005 0.058410 -0.010084
  22 -0.000000 4.132121 -1.927663 0.000000 -0.000000 -0.000001
  23 0.000002 11.126795 0.000001 -0.340403 0.153177 -0.070067
  24 5.835802 2.795458 0.869675 -0.008926 -0.164589 -1.558353
  25 -0.000001 5.475368 0.000001 -0.310195 0.305092 -0.819340
  26 0.000002 11.557740 0.000000 -1.437728 0.014193 0.017808
  27 0.000001 7.947082 -0.000002 0.487833 0.272441 0.918550
  28 0.000001 6.243680 0.000000 -0.157211 0.000000 -0.000000
  29 0.000000 2.631206 -0.000001 -0.494870 0.106248 0.158305
  30 -5.835801 2.795463 0.869676 -0.471070 0.163203 1.568853
  31 -0.000001 5.475368 -0.000003 -1.198815 -0.054674 0.189560
  32 -0.000001 11.557744 0.000002 -1.695008 -0.018799 -0.017825
  33 -0.000002 7.947084 -0.000001 0.160627 -1.011319 0.179632
  34 -25.927084 32.127693 1.188373 1.570796 0.000000 1.570796
  35 -7.485988 13.480310 -32.513832 -1.570796 0.000000 0.000000
  36 -6.703935 3.309848 14.406932 -1.565812 0.000000 0.000000
  37 -5.275210 33.305386 -8.606143 -0.476178 1.149235 -2.123340
  time 6
  0 20.256170 -13.492767 -2.953495 -0.563983 -0.158313 -0.412897
  1 0.000001 7.632664 5.380288 1.644840 -0.000000 0.000000
  2 -0.000001 4.955763 -0.000000 -0.005713 0.000000 0.000000
  3 0.000000 16.156612 -0.000001 0.000000 -0.000000 0.000000
  4 2.361290 5.150877 2.361293 -0.174091 0.786638 0.000223
  5 -2.361296 5.150877 2.361293 -0.174326 -0.785981 0.000108
  6 2.361287 5.150875 -2.361295 -0.174150 2.355119 0.000140
  7 -2.361288 5.150878 -2.361296 -0.174384 -2.355777 0.000191
  8 0.208517 0.000000 -23.612854 1.570796 -0.000000 -1.570796
  9 34.862381 30.346788 10.336059 1.570796 0.000000 -1.570796
  10 7.331163 13.480309 -20.444242 -1.570796 0.000000 0.000000
  11 9.830676 3.215760 0.000003 -1.570796 0.000000 0.000000
  12 17.648514 27.418821 -11.465425 -0.969342 0.304169 -2.487858
  13 1.756749 29.102665 2.985216 -0.464378 0.062722 0.003110
  14 -0.000000 2.088998 0.000001 -2.624422 -0.083221 0.031632
  15 8.092661 5.945973 -0.000003 0.412995 -0.117793 0.081051
  16 0.000002 15.122834 -0.000002 -0.991965 0.000000 0.000000
  17 -0.000000 10.272250 -0.000000 2.096287 0.110689 0.057389
  18 0.000002 4.132120 -1.927664 -0.000000 -0.000000 -0.000000
  19 -8.092660 5.945976 0.000001 -0.401350 -0.018605 0.120711
  20 -0.000002 15.122829 0.000001 -0.479879 0.000000 -0.000000
  21 0.000000 10.272247 0.000001 2.400336 0.056181 -0.014230
  22 0.000000 4.132121 -1.927663 0.000000 -0.000000 -0.000001
  23 0.000001 11.126794 0.000001 -0.316882 0.182264 -0.041736
  24 5.835801 2.795461 0.869678 -0.029661 -0.184519 -1.547973
  25 -0.000000 5.475371 -0.000002 -0.450263 0.250673 -0.800553
  26 0.000001 11.557736 0.000001 -1.413379 0.013761 0.017746
  27 -0.000001 7.947078 0.000000 0.470025 0.207782 0.887651
  28 0.000000 6.243679 0.000000 -0.157211 0.000000 -0.000000
  29 -0.000000 2.631207 0.000001 -0.523294 0.079103 0.163383
  30 -5.835801 2.795462 0.869676 -0.471639 0.164440 1.566022
  31 0.000001 5.475369 0.000002 -1.191077 -0.027527 0.385874
  32 -0.000004 11.557746 -0.000004 -1.933959 -0.022954 -0.016791
  33 -0.000001 7.947075 0.000000 0.929651 -0.962468 -0.311019
  34 -25.865244 32.464687 2.069079 1.570796 0.000000 1.570796
  35 -7.485988 13.480310 -32.513832 -1.570796 0.000000 0.000000
  36 -6.703935 3.309848 14.406932 -1.565812 0.000000 0.000000
  37 -3.837762 34.477867 -10.169410 -0.324248 1.058178 -2.064884
  time 7
  0 20.728407 -13.727749 -2.953495 -0.563838 -0.157773 -0.396928
  1 -0.000002 7.632662 5.380286 1.644840 -0.000000 0.000000
  2 0.000000 4.955765 0.000000 -0.005713 0.000000 0.000000
  3 0.000001 16.156610 -0.000002 0.000000 -0.000000 -0.000000
  4 2.361285 5.150873 2.361293 -0.174091 0.786638 0.000223
  5 -2.361294 5.150878 2.361290 -0.174326 -0.785981 0.000109
  6 2.361288 5.150876 -2.361294 -0.174150 2.355119 0.000140
  7 -2.361291 5.150876 -2.361296 -0.174384 -2.355777 0.000191
  8 0.208517 0.000000 -23.612854 1.570796 -0.000000 -1.570796
  9 34.460739 30.346788 10.921070 1.570796 0.000000 -1.570796
  10 7.331163 13.480309 -20.444242 -1.570796 0.000000 0.000000
  11 9.830676 3.215760 0.000003 -1.570796 0.000000 0.000000
  12 18.168510 27.224031 -12.207973 -0.966583 0.291861 -2.472147
  13 1.756750 29.296387 0.793742 -0.384344 -0.089065 0.027687
  14 -0.000000 2.088996 -0.000000 -2.728139 0.011057 0.013605
  15 8.092662 5.945976 -0.000003 0.385640 -0.197900 0.050416
  16 -0.000003 15.122824 0.000004 -1.005089 -0.000000 0.000001
  17 0.000001 10.272244 -0.000001 2.160989 0.108941 0.063164
  18 0.000002 4.132121 -1.927664 -0.000000 -0.000000 -0.000000
  19 -8.092661 5.945977 0.000000 -0.606915 -0.097926 0.088266
  20 -0.000001 15.122823 -0.000001 -0.067203 0.000000 0.000000
  21 0.000000 10.272244 -0.000001 2.156785 0.050771 -0.023183
  22 -0.000001 4.132121 -1.927665 -0.000000 0.000000 -0.000000
  23 0.000001 11.126797 0.000001 -0.230815 0.222404 -0.017883
  24 5.835801 2.795462 0.869677 -0.059542 -0.213785 -1.538781
  25 0.000004 5.475370 0.000000 -0.535847 0.107556 -0.813989
  26 -0.000004 11.557745 0.000001 -1.158655 0.009379 0.016461
  27 0.000002 7.947083 -0.000002 0.338890 0.251012 0.834506
  28 0.000001 6.243678 -0.000001 -0.157211 -0.000000 -0.000000
  29 -0.000001 2.631206 -0.000000 -0.407585 0.027749 0.177424
  30 -5.835801 2.795463 0.869676 -0.472485 0.166260 1.561848
  31 0.000001 5.475368 -0.000000 -1.021412 0.161082 0.621640
  32 -0.000001 11.557745 -0.000001 -1.934478 -0.022961 -0.016787
  33 0.000003 7.947083 -0.000001 1.089942 -0.770367 -0.412477
  34 -25.791435 32.912300 2.194895 1.570796 0.000000 1.570796
  35 -7.485988 13.480310 -32.513832 -1.570796 0.000000 0.000000
  36 -6.703934 4.053001 13.563782 -1.623014 -0.000000 0.000000
  37 -2.954152 34.485149 -11.638284 -0.430541 0.901098 -2.257494
  time 8
  0 21.200645 -13.962729 -2.953495 -0.563685 -0.157236 -0.380960
  1 0.000001 7.632665 5.380290 1.644840 -0.000000 0.000000
  2 -0.000000 4.955765 0.000000 -0.005713 -0.000000 -0.000000
  3 0.000000 16.156616 0.000002 0.000000 -0.000000 0.000000
  4 2.361284 5.150873 2.361294 -0.174091 0.786638 0.000223
  5 -2.361295 5.150877 2.361292 -0.174326 -0.785981 0.000108
  6 2.361295 5.150877 -2.361293 -0.174150 2.355119 0.000140
  7 -2.361294 5.150878 -2.361293 -0.174385 -2.355777 0.000191
  8 0.208517 0.000000 -23.612854 1.570796 -0.000000 -1.570796
  9 33.973030 30.346788 11.631441 1.570796 0.000000 -1.570796
  10 7.331163 13.480309 -20.444242 -1.570796 0.000000 0.000000
  11 9.830676 3.215760 0.000003 -1.570796 0.000000 0.000000
  12 18.701698 27.000025 -12.986739 -0.961044 0.278087 -2.455619
  13 1.756750 29.656160 -1.023263 -0.421474 -0.155275 0.038147
  14 0.000000 2.088998 0.000000 -2.716571 0.024718 -0.018982
  15 8.092664 5.945978 -0.000004 0.344058 -0.265534 0.020425
  16 0.000003 15.122829 -0.000003 -0.983471 0.000000 0.000000
  17 0.000001 10.272256 0.000000 2.202614 0.105573 0.067976
  18 0.000002 4.132121 -1.927666 0.000000 -0.000000 -0.000000
  19 -8.092660 5.945978 0.000002 -0.394999 -0.166486 0.059686
  20 0.000000 15.122831 0.000000 -0.561137 0.000000 0.000000
  21 -0.000000 10.272248 0.000003 2.351394 0.053833 -0.006212
  22 -0.000000 4.132118 -1.927665 0.000000 0.000000 -0.000000
  23 -0.000000 11.126796 -0.000000 -0.196959 0.129375 -0.040290
  24 5.835800 2.795463 0.869678 -0.095824 -0.249200 -1.529948
  25 -0.000008 5.475369 0.000004 -0.679016 0.086499 -0.763095
  26 0.000007 11.557744 0.000003 -1.027951 0.007296 0.015385
  27 -0.000001 7.947079 0.000002 0.253979 0.257814 0.776300
  28 -0.000000 6.243678 -0.000000 -0.157211 0.000000 0.000000
  29 -0.000000 2.631207 0.000000 -0.250357 -0.037356 0.185169
  30 -5.835801 2.795461 0.869676 -0.473522 0.168465 1.556776
  31 -0.000005 5.475368 -0.000002 -1.034890 -0.098162 0.734904
  32 -0.000002 11.557736 -0.000000 -1.406852 -0.013643 -0.017723
  33 -0.000001 7.947079 -0.000001 0.763357 -0.902477 -0.238897
  34 -25.729593 33.377228 0.496390 1.570796 0.000000 1.570796
  35 -7.485988 13.480310 -32.513832 -1.570796 0.000000 0.000000
  36 -6.703933 5.433142 10.837294 -1.729408 0.000000 0.000000
  37 -2.340151 32.392262 -19.148111 -0.588866 0.711856 -2.477640
  time 9
  0 21.672882 -14.197711 -2.953495 -0.563523 -0.156701 -0.364997
  1 -0.000000 7.632661 5.380289 1.644840 -0.000000 0.000000
  2 0.000000 4.955765 -0.000000 -0.005713 -0.000000 -0.000000
  3 0.000000 16.156612 0.000001 0.000000 -0.000000 0.000000
  4 2.361285 5.150875 2.361294 -0.174091 0.786638 0.000223
  5 -2.361294 5.150876 2.361292 -0.174326 -0.785981 0.000108
  6 2.361283 5.150872 -2.361295 -0.174150 2.355119 0.000140
  7 -2.361293 5.150876 -2.361294 -0.174384 -2.355777 0.000191
  8 0.208517 0.000000 -23.612854 1.570796 -0.000000 -1.570796
  9 33.442287 30.346788 12.404491 1.570796 0.000000 -1.570796
  10 7.331163 13.480309 -20.444242 -1.570796 0.000000 0.000000
  11 9.830676 3.215760 0.000003 -1.570796 0.000000 0.000000
  12 19.226030 26.775620 -13.772597 -0.955179 0.263457 -2.440159
  13 1.756751 29.849882 -1.781090 -0.492954 -0.167530 0.044024
  14 0.000000 2.088999 0.000001 -2.656423 0.014921 -0.041207
  15 8.092659 5.945976 -0.000004 0.323144 -0.298685 0.006961
  16 0.000000 15.122830 0.000000 -0.970786 -0.000000 0.000000
  17 -0.000001 10.272247 0.000000 2.220448 0.103719 0.070158
  18 0.000002 4.132119 -1.927664 -0.000000 -0.000000 -0.000000
  19 -8.092659 5.945976 0.000002 -0.063909 -0.202233 0.044971
  20 -0.000004 15.122828 0.000000 -1.063160 0.000000 -0.000000
  21 0.000000 10.272249 -0.000000 2.473816 0.052168 0.006567
  22 0.000001 4.132122 -1.927665 -0.000000 -0.000000 -0.000000
  23 0.000000 11.126795 0.000000 -0.187859 0.036091 -0.066033
  24 5.835800 2.795464 0.869679 -0.135645 -0.287560 -1.520929
  25 0.000000 5.475368 -0.000000 -0.805505 0.164882 -0.724040
  26 -0.000001 11.557742 0.000005 -0.959415 0.006262 0.014709
  27 0.000001 7.947079 0.000003 0.206216 0.251891 0.712482
  28 0.000000 6.243677 -0.000001 -0.157211 0.000000 -0.000000
  29 -0.000000 2.631206 -0.000000 -0.157045 -0.099262 0.183870
  30 -5.835800 2.795462 0.869677 -0.474665 0.170858 1.551251
  31 -0.000004 5.475369 -0.000002 -1.307177 -0.190731 0.793289
  32 -0.000003 11.557737 0.000001 -0.333558 0.000400 -0.005881
  33 0.000001 7.947082 0.000000 -0.227114 -0.742787 0.350283
  34 -25.703661 33.766159 -1.202114 1.570796 0.000000 1.570796
  35 -7.485988 13.480310 -32.513832 -1.570796 0.000000 0.000000
  36 -6.703932 6.176295 5.931926 -1.786611 0.000000 -0.000000
  37 -1.546745 27.367142 -23.559830 -0.711884 0.607133 -2.674227
  time 10
  0 20.939037 -11.591866 -1.254683 -0.623404 -0.034497 -0.330143
  1 -0.000002 7.632662 5.380290 1.644841 -0.000000 0.000000
  2 0.000001 4.955766 -0.000001 -0.005714 0.000000 0.000000
  3 -0.000002 16.156614 0.000001 0.000000 -0.000000 -0.000000
  4 2.361291 5.150877 2.361292 -0.174091 0.786638 0.000223
  5 -2.361295 5.150877 2.361291 -0.174326 -0.785980 0.000108
  6 2.361285 5.150873 -2.361291 -0.174150 2.355119 0.000140
  7 -2.361290 5.150876 -2.361292 -0.174385 -2.355777 0.000191
  8 0.208517 0.000000 -23.612854 1.570796 -0.000000 -1.570796
  9 32.911541 30.346788 13.177541 1.570796 0.000000 -1.570796
  10 7.331163 13.480309 -20.444242 -1.570796 0.000000 0.000000
  11 9.830676 3.215760 0.000003 -1.570796 0.000000 0.000000
  12 16.869659 29.297331 -14.265533 -0.858095 0.148902 -2.393268
  13 1.301297 27.188480 -1.559048 -0.312751 -0.146939 0.023731
  14 -0.000000 2.088999 0.000000 -2.821265 -0.025065 -0.032625
  15 8.092661 5.945972 -0.000003 0.476039 -0.292208 -0.018420
  16 -0.000000 15.122824 0.000002 -1.352124 -0.000000 0.000001
  17 -0.000002 10.272245 -0.000000 2.443210 0.055716 0.098584
  18 0.000002 4.132120 -1.927664 -0.000000 -0.000000 -0.000000
  19 -8.092660 5.945972 0.000001 0.378747 -0.185462 0.076296
  20 -0.000006 15.122823 0.000001 -1.506763 -0.000000 -0.000000
  21 -0.000001 10.272250 0.000001 2.567713 0.067784 -0.027549
  22 0.000001 4.132119 -1.927663 -0.000000 0.000000 -0.000000
  23 0.000001 11.126795 -0.000000 -0.188679 0.036089 -0.065536
  24 5.835801 2.795460 0.869677 -0.175975 -0.325669 -1.511620
  25 -0.000004 5.475368 0.000002 -0.706872 0.230966 -0.652794
  26 -0.000001 11.557747 0.000002 -1.485914 0.015053 0.017901
  27 0.000000 7.947083 -0.000002 0.830327 -0.059149 0.556646
  28 0.000000 6.243679 -0.000000 -0.157211 0.000000 -0.000000
  29 -0.000000 2.631210 0.000002 -0.310463 -0.135214 0.176384
  30 -5.835801 2.795464 0.869676 -0.475821 0.173246 1.545721
  31 0.000004 5.475368 -0.000003 -0.988613 -0.135253 0.686162
  32 0.000003 11.557742 -0.000001 -0.592832 -0.001675 -0.010036
  33 -0.000000 7.947081 -0.000002 -0.518943 -0.346758 0.416271
  34 -25.768309 34.008305 -1.202114 1.570796 0.000000 1.570796
  35 -7.485988 13.480310 -32.513832 -1.570796 0.000000 0.000000
  36 -7.931684 4.743073 -0.478440 -1.676211 0.000000 -0.000000
  37 -5.415166 26.529051 -21.730732 1.714254 2.099066 -0.103258
  time 11
  0 19.253485 -6.752443 1.900255 -0.378739 -0.085247 -0.246938
  1 -0.000003 7.632660 5.380289 1.644840 -0.000000 0.000000
  2 0.000001 4.955766 0.000000 -0.005713 -0.000000 0.000000
  3 -0.000001 16.156609 -0.000001 -0.000000 -0.000000 -0.000000
  4 2.361285 5.150876 2.361292 -0.174091 0.786638 0.000223
  5 -2.361291 5.150877 2.361286 -0.174326 -0.785981 0.000108
  6 2.361288 5.150876 -2.361296 -0.174150 2.355119 0.000140
  7 -2.361297 5.150872 -2.361295 -0.174385 -2.355777 0.000192
  8 0.208517 0.000000 -23.612854 1.570796 -0.000000 -1.570796
  9 32.423832 30.346788 13.887912 1.570796 0.000000 -1.570796
  10 7.331163 13.480309 -20.444242 -1.570796 0.000000 0.000000
  11 9.830676 3.215760 0.000003 -1.570796 0.000000 0.000000
  12 14.013146 30.142714 -12.649176 -1.003021 0.137874 -2.625187
  13 0.455455 28.656729 -1.146685 0.022736 -0.084018 -0.000891
  14 0.000000 2.088996 -0.000000 -3.126997 -0.101074 0.003193
  15 8.092661 5.945975 -0.000004 0.424471 -0.276373 -0.056345
  16 -0.000001 15.122827 0.000002 -1.125645 -0.000000 0.000001
  17 0.000000 10.272246 -0.000000 2.250004 0.029165 0.106304
  18 0.000002 4.132121 -1.927664 -0.000000 -0.000000 -0.000000
  19 -8.092661 5.945975 0.000002 0.440909 -0.151689 0.087023
  20 -0.000003 15.122826 0.000001 -1.132898 -0.000000 -0.000000
  21 -0.000001 10.272247 -0.000001 2.215339 0.024120 -0.082172
  22 0.000002 4.132121 -1.927665 0.000000 -0.000000 -0.000001
  23 0.000003 11.126798 -0.000002 -0.194459 0.036040 -0.064234
  24 5.835801 2.795463 0.869678 -0.213569 -0.360395 -1.502439
  25 -0.000005 5.475371 0.000001 -0.713632 0.010935 -0.722837
  26 0.000010 11.557736 -0.000006 -1.137311 0.009030 0.016304
  27 0.000002 7.947079 0.000001 0.624164 0.196844 0.617730
  28 0.000001 6.243679 0.000000 -0.157211 0.000000 -0.000000
  29 0.000000 2.631204 -0.000001 -0.373916 -0.177165 0.146810
  30 -5.835801 2.795462 0.869676 -0.476896 0.175434 1.540634
  31 -0.000001 5.475369 0.000001 -0.763127 -0.016891 0.652808
  32 -0.000001 11.557742 0.000002 -0.823894 -0.004370 -0.013182
  33 -0.000001 7.947074 -0.000000 -0.531910 -0.686201 0.488443
  34 -25.888371 34.122944 -1.202114 1.570796 0.000000 1.570796
  35 -7.485988 13.480310 -32.513832 -1.570796 0.000000 0.000000
  36 -9.159435 3.309850 -3.842142 -1.565812 0.000000 0.000000
  37 -8.902901 32.317745 -17.991972 1.723315 2.239534 0.034991
  time 12
  0 17.390205 -4.146599 3.599068 0.088644 -0.381967 -0.243854
  1 -0.000002 7.632661 5.380289 1.644840 -0.000000 0.000000
  2 0.000001 4.955764 0.000000 -0.005714 0.000000 0.000000
  3 -0.000002 16.156612 0.000001 0.000000 -0.000000 0.000000
  4 2.361288 5.150875 2.361289 -0.174091 0.786638 0.000223
  5 -2.361293 5.150877 2.361291 -0.174326 -0.785980 0.000108
  6 2.361288 5.150873 -2.361295 -0.174150 2.355119 0.000140
  7 -2.361290 5.150878 -2.361294 -0.174384 -2.355777 0.000191
  8 0.208517 0.000000 -23.612854 1.570796 -0.000000 -1.570796
  9 32.022190 30.346788 14.472921 1.570796 0.000000 -1.570796
  10 7.331163 13.480309 -20.444242 -1.570796 0.000000 0.000000
  11 9.830676 3.215760 0.000003 -1.570796 0.000000 0.000000
  12 12.822933 26.217157 -11.035670 -1.410180 0.147896 -3.057579
  13 0.000002 28.674931 -0.924643 0.199505 -0.000000 0.000000
  14 0.000000 2.088997 0.000000 3.007456 -0.183687 0.037503
  15 8.092662 5.945971 -0.000003 0.414414 -0.270896 -0.069640
  16 0.000001 15.122834 0.000001 -1.121751 0.000000 0.000000
  17 0.000000 10.272254 -0.000002 2.227469 0.010333 0.115770
  18 0.000002 4.132123 -1.927666 0.000000 -0.000000 -0.000000
  19 -8.092662 5.945971 0.000001 0.431519 -0.146183 0.072993
  20 0.000003 15.122832 0.000001 -1.135775 0.000000 -0.000000
  21 -0.000001 10.272253 0.000000 2.199795 0.006873 -0.071559
  22 0.000002 4.132123 -1.927666 0.000000 -0.000000 -0.000001
  23 0.000001 11.126795 0.000000 -0.210181 0.035900 -0.062414
  24 5.835800 2.795466 0.869678 -0.244952 -0.388734 -1.494303
  25 0.000001 5.475369 -0.000002 -0.818521 -0.140273 -0.861455
  26 0.000004 11.557747 0.000004 -0.319735 -0.000479 0.005647
  27 0.000001 7.947081 0.000001 -0.387262 0.873544 0.350917
  28 0.000000 6.243678 0.000000 -0.157211 0.000000 0.000000
  29 0.000000 2.631204 -0.000000 -0.224097 -0.227261 0.090489
  30 -5.835801 2.795462 0.869676 -0.477790 0.177232 1.536443
  31 0.000006 5.475368 0.000000 -0.613187 0.087475 0.586873
  32 -0.000005 11.557749 0.000000 -1.776628 -0.020245 -0.017584
  33 0.000003 7.947083 0.000001 0.458367 -0.689834 -0.350707
  34 -25.953018 34.151867 -1.202114 1.570796 0.000000 1.570796
  35 -7.485988 13.480310 -32.513832 -1.570796 0.000000 0.000000
  36 -9.159435 3.309850 -3.842142 -1.565812 0.000000 0.000000
  37 -8.306595 37.460655 -11.100608 1.342885 2.349475 -0.237070
  time 13
  0 16.459520 -5.825573 1.891802 -0.041570 -0.281962 -0.334497
  1 -0.000002 7.632664 5.380289 1.644840 -0.000000 0.000000
  2 0.000000 4.955768 0.000000 -0.005713 -0.000000 -0.000000
  3 -0.000001 16.156614 0.000002 0.000000 -0.000000 -0.000000
  4 2.361293 5.150874 2.361292 -0.174091 0.786638 0.000223
  5 -2.361292 5.150871 2.361293 -0.174326 -0.785980 0.000108
  6 2.361293 5.150879 -2.361296 -0.174150 2.355119 0.000140
  7 -2.361293 5.150871 -2.361293 -0.174385 -2.355777 0.000191
  8 0.208517 0.000000 -23.612854 1.570796 -0.000000 -1.570796
  9 31.749647 30.346788 14.869893 1.570796 0.000000 -1.570796
  10 7.331163 13.480309 -20.444242 -1.570796 0.000000 0.000000
  11 9.830676 3.215760 0.000003 -1.570796 0.000000 0.000000
  12 13.623765 26.132109 -8.982141 -1.258461 0.260763 -2.936802
  13 0.022230 28.323656 -1.308342 0.055810 0.055908 0.052121
  14 -0.000000 2.088996 0.000000 -3.100870 -0.246722 -0.038935
  15 8.092663 5.945975 -0.000002 0.365794 -0.273278 -0.062947
  16 0.000000 15.122826 0.000001 -1.168029 0.000000 0.000001
  17 -0.000001 10.272246 -0.000002 2.294779 0.001870 0.116446
  18 0.000002 4.132120 -1.927664 -0.000000 -0.000000 -0.000000
  19 -8.092663 5.945976 0.000000 0.385598 -0.144400 0.073891
  20 0.000001 15.122823 0.000001 -1.187312 -0.000000 -0.000000
  21 -0.000002 10.272246 -0.000002 2.271065 0.009350 -0.069351
  22 0.000001 4.132121 -1.927665 0.000000 -0.000000 -0.000001
  23 0.000000 11.126795 0.000001 -0.240832 0.035645 -0.060355
  24 5.835801 2.795465 0.869678 -0.266472 -0.407815 -1.488477
  25 0.000004 5.475370 -0.000003 -0.431944 -0.036646 -0.983058
  26 0.000002 11.557741 -0.000000 -0.990921 0.006732 0.015029
  27 -0.000001 7.947081 0.000000 0.015757 0.658042 0.734952
  28 0.000001 6.243678 0.000000 -0.157211 0.000000 -0.000000
  29 -0.000000 2.631206 0.000000 0.236294 -0.257815 -0.005939
  30 -5.835801 2.795465 0.869676 -0.478401 0.178450 1.533597
  31 -0.000003 5.475369 -0.000002 -0.923482 0.053376 0.579603
  32 -0.000006 11.557744 -0.000002 -1.649407 -0.017984 -0.017908
  33 -0.000002 7.947076 0.000001 1.080110 -0.669364 -0.677572
  34 -25.214869 32.498512 -1.202114 1.570796 0.000000 1.570796
  35 -7.485988 13.480310 -32.513832 -1.570796 0.000000 0.000000
  36 -9.159435 3.309850 -3.842142 -1.565812 0.000000 0.000000
  37 -6.267969 36.534496 -13.117498 1.973406 2.490920 0.162439
  time 14
  0 15.528832 -7.504544 0.184536 -0.177505 -0.194210 -0.435547
  1 -0.000002 7.632661 5.380289 1.644841 -0.000000 0.000000
  2 -0.000000 4.955762 -0.000000 -0.005714 -0.000000 -0.000000
  3 -0.000000 16.156610 0.000000 -0.000000 -0.000000 -0.000000
  4 2.361288 5.150872 2.361294 -0.174091 0.786638 0.000223
  5 -2.361289 5.150876 2.361297 -0.174326 -0.785980 0.000108
  6 2.361288 5.150874 -2.361293 -0.174150 2.355119 0.000140
  7 -2.361293 5.150874 -2.361292 -0.174385 -2.355778 0.000191
  8 0.208517 0.000000 -23.612854 1.570796 -0.000000 -1.570796
  9 31.649233 30.346788 15.016147 1.570796 0.000000 -1.570796
  10 7.331163 13.480309 -20.444242 -1.570796 0.000000 0.000000
  11 9.830676 3.215760 0.000003 -1.570796 0.000000 0.000000
  12 14.150807 26.080256 -7.279318 -1.088465 0.353245 -2.795376
  13 0.044458 27.972387 -1.692040 -0.085521 0.118647 0.095921
  14 -0.000000 2.088998 0.000000 -2.934434 -0.296980 -0.125477
  15 8.092661 5.945971 -0.000003 0.336911 -0.272973 -0.062832
  16 0.000001 15.122830 -0.000002 -1.216169 0.000000 0.000001
  17 -0.000000 10.272252 0.000000 2.360371 -0.008748 0.117265
  18 0.000002 4.132122 -1.927666 0.000000 -0.000000 -0.000000
  19 -8.092664 5.945970 0.000000 0.359366 -0.142705 0.070966
  20 0.000001 15.122829 -0.000001 -1.240676 0.000000 -0.000000
  21 0.000002 10.272252 0.000000 2.340278 0.010020 -0.066486
  22 0.000002 4.132121 -1.927666 0.000000 -0.000000 -0.000001
  23 0.000002 11.126796 0.000001 -0.291379 0.035270 -0.058332
  24 5.835800 2.795463 0.869678 -0.274443 -0.414814 -1.486285
  25 0.000002 5.475370 -0.000003 -0.253880 0.032644 -1.081495
  26 -0.000001 11.557740 0.000003 -1.188770 0.009878 0.016671
  27 -0.000001 7.947078 -0.000001 0.057681 0.624541 0.876261
  28 -0.000000 6.243678 0.000000 -0.157211 0.000000 0.000000
  29 0.000000 2.631206 -0.000000 0.089200 -0.266111 -0.003753
  30 -5.835800 2.795462 0.869676 -0.478627 0.178898 1.532548
  31 -0.000003 5.475369 -0.000001 -1.268300 0.032365 0.565991
  32 -0.000003 11.557745 0.000001 -1.409049 -0.013680 -0.017728
  33 0.000002 7.947078 -0.000003 1.475036 -0.503982 -0.781394
  34 -24.476719 30.845154 -1.202114 1.570796 0.000000 1.570796
  35 -7.485988 13.480310 -32.513832 -1.570796 0.000000 0.000000
  36 -9.159435 3.309850 -3.842142 -1.565812 0.000000 0.000000
  37 -4.016230 35.611935 -15.201845 -0.733871 0.463485 -2.879458
end
