version 1
nodes
0 "drill" -1
1 "drill_lever" 0
2 "drill_lever anim_help" 1
3 "drill_spin" 0
4 "drill_claw2" 3
5 "drill_claw1" 3
6 "drill_claw3" 3
7 "drill_claw4" 3
8 "base" -1
9 "ik arm.R" 8
10 "ik leg R" 8
11 "t leg.R" 8
12 "t hand.R" 8
13 "spine low" 8
14 "hip" 13
15 "leg up.R" 14
16 "leg low.R" 15
17 "foot.R" 16
18 "tow.R" 17
19 "leg up.L" 14
20 "leg low.L" 19
21 "foot.L" 20
22 "tow.L" 21
23 "spine up" 13
24 "shoulder.R" 23
25 "arm up.R" 24
26 "arm low.R" 25
27 "hand.R" 26
28 "neck" 23
29 "head" 28
30 "shoulder.L" 23
31 "arm up.L" 30
32 "arm low.L" 31
33 "hand.L" 32
34 "ik arm.L" 8
35 "ik leg L" 8
36 "t leg.L" 8
37 "t hand.L" 8
end
skeleton
  time 0
  0 16.911413 -6.627982 -1.809378 -0.390407 -0.383736 -0.403896
  1 -0.000002 7.632663 5.380288 1.644840 -0.000000 0.000000
  2 0.000001 4.955765 -0.000000 -0.005713 0.000000 -0.000000
  3 0.000000 16.156612 0.000000 -0.000000 -0.000000 0.000000
  4 2.361291 5.150877 2.361292 -0.174091 0.786638 0.000223
  5 -2.361301 5.150872 2.361292 -0.174326 -0.785981 0.000108
  6 2.361292 5.150880 -2.361293 -0.174150 2.355119 0.000140
  7 -2.361293 5.150877 -2.361297 -0.174384 -2.355777 0.000191
  8 0.208517 0.000000 -23.612854 1.570796 -0.000000 -1.570796
  9 21.193666 36.674679 11.606189 1.570796 0.000000 -1.570796
  10 6.188617 13.480309 -20.444242 -1.570796 0.000000 0.000000
  11 13.495538 8.114038 10.210749 -1.987502 0.001431 0.045297
  12 13.051052 35.481812 -6.601357 -1.999748 0.143261 -2.471857
  13 -0.323266 29.959377 2.140378 0.163516 -0.244078 0.045761
  14 0.000000 2.089000 -0.000000 2.961580 0.214566 -0.093692
  15 8.092659 5.945972 -0.000003 0.123378 -0.202898 -0.256160
  16 0.000002 15.122828 0.000002 -1.314351 0.000000 0.000000
  17 -0.000000 10.272247 -0.000001 2.352785 -0.119162 0.244946
  18 0.000001 4.132120 -1.927663 0.000000 0.000000 -0.000000
  19 -8.092658 5.945975 0.000002 0.471812 -0.198756 -0.055258
  20 -0.000004 15.122826 0.000004 -0.893941 -0.000000 -0.000000
  21 0.000000 10.272245 0.000001 2.010725 0.146793 0.117034
  22 0.000000 4.132120 -1.927665 -0.012507 0.000000 -0.000001
  23 0.000001 11.126795 -0.000000 0.080345 0.106060 -0.018561
  24 5.835801 2.795465 0.869678 -0.230253 -0.120868 -1.890998
  25 -0.000002 5.475372 0.000000 -0.231031 -0.378555 -0.447936
  26 0.000004 11.557735 -0.000004 -1.543623 0.016088 0.017959
  27 -0.000003 7.947079 0.000001 0.015305 0.090585 0.511135
  28 -0.000001 6.243678 -0.000001 -0.157211 0.000000 0.000000
  29 -0.000000 2.631203 0.000000 -0.403773 -0.065593 -0.229772
  30 -5.835801 2.795462 0.869676 -0.393930 0.137454 1.380170
  31 -0.000005 5.475368 -0.000001 -0.894431 0.303032 1.085276
  32 -0.000002 11.557745 0.000001 -0.003709 0.001390 -0.000067
  33 0.000002 7.947075 -0.000001 -0.684948 -0.840539 0.803609
  34 -32.184174 30.844587 6.831413 1.570796 0.000000 1.570796
  35 -14.993512 13.480310 -35.248756 -1.570796 0.000000 0.000000
  36 -8.092661 3.309849 -0.290158 -1.565812 0.000000 0.000000
  37 -7.581006 30.171001 -16.058767 -0.815621 0.523244 -2.654466
  time 1
  0 16.911413 -8.043509 -3.415297 -0.347180 -0.303876 -0.446652
  1 -0.000001 7.632662 5.380290 1.644840 -0.000000 0.000000
  2 -0.000000 4.955763 -0.000001 -0.005713 -0.000000 -0.000000
  3 -0.000001 16.156612 0.000000 0.000000 -0.000000 0.000000
  4 2.361292 5.150878 2.361294 -0.174091 0.786638 0.000223
  5 -2.361293 5.150874 2.361290 -0.174326 -0.785980 0.000108
  6 2.361289 5.150874 -2.361292 -0.174150 2.355119 0.000140
  7 -2.361292 5.150874 -2.361296 -0.174385 -2.355778 0.000192
  8 0.208517 0.000000 -23.612854 1.570796 -0.000000 -1.570796
  9 25.756451 29.224575 10.959364 1.570796 0.000000 -1.570796
  10 5.033705 13.480309 -20.444242 -1.570796 0.000000 0.000000
  11 12.676455 9.504613 13.418116 -2.443128 -0.011623 0.027798
  12 6.990441 41.004848 -3.768316 0.697522 -2.523811 0.948876
  13 -0.798065 28.513020 3.599199 0.189898 -0.337877 -0.132202
  14 0.000000 2.088998 -0.000000 2.981852 0.293598 0.046782
  15 8.092660 5.945977 -0.000004 0.083876 -0.244161 -0.279088
  16 -0.000001 15.122828 -0.000001 -1.579847 0.000001 0.000001
  17 0.000001 10.272247 0.000001 2.204240 -0.202592 0.213380
  18 0.000001 4.132119 -1.927664 0.344533 -0.003259 0.024379
  19 -8.092658 5.945978 0.000000 0.623367 -0.230853 -0.099924
  20 -0.000001 15.122828 0.000000 -1.064022 -0.000000 -0.000000
  21 -0.000001 10.272246 -0.000001 2.032993 0.127998 0.135375
  22 0.000001 4.132119 -1.927663 -0.012507 0.000000 -0.000001
  23 0.000000 11.126795 -0.000001 0.175247 0.165069 -0.073962
  24 5.835803 2.795462 0.869678 -0.123577 -0.140309 -1.769140
  25 0.000004 5.475368 -0.000000 -1.158746 -0.296571 -0.275412
  26 0.000000 11.557746 -0.000001 -1.762411 0.019998 0.017637
  27 0.000005 7.947077 0.000001 0.555986 0.586847 -0.057909
  28 0.000001 6.243677 0.000001 -0.157211 0.000000 -0.000000
  29 0.000000 2.631207 -0.000001 0.308291 0.045528 -0.042047
  30 -5.835800 2.795460 0.869676 -0.417286 0.137455 1.384957
  31 0.000001 5.475369 -0.000001 -0.930639 0.317604 1.296061
  32 0.000001 11.557746 0.000002 -0.003714 0.001390 -0.000067
  33 0.000001 7.947074 -0.000003 -0.736000 -0.783972 0.833807
  34 -32.184174 30.844587 6.831413 1.570796 0.000000 1.570796
  35 -14.993512 13.480310 -35.248756 -1.570796 0.000000 0.000000
  36 -8.259344 3.309849 -0.845155 -1.565812 0.000000 0.000000
  37 -3.282920 31.094639 -14.753089 -0.807214 0.687383 -2.619829
  time 2
  0 16.911413 -9.278330 -11.481627 -0.171243 -0.194314 -0.489267
  1 0.000001 7.632662 5.380288 1.644840 -0.000000 0.000000
  2 -0.000001 4.955765 0.000002 -0.005713 -0.000000 0.000000
  3 0.000001 16.156612 -0.000001 0.000000 -0.000000 0.000000
  4 2.361284 5.150875 2.361296 -0.174091 0.786638 0.000223
  5 -2.361293 5.150874 2.361292 -0.174326 -0.785981 0.000108
  6 2.361286 5.150872 -2.361289 -0.174150 2.355119 0.000140
  7 -2.361298 5.150872 -2.361294 -0.174385 -2.355777 0.000191
  8 0.208517 0.000000 -23.612854 1.570796 -0.000000 -1.570796
  9 28.688438 24.527227 10.312537 1.570796 0.000000 -1.570796
  10 4.440642 13.480309 -20.444242 -1.570796 0.000000 0.000000
  11 11.857369 10.895187 16.625479 -2.924779 -0.032274 0.017533
  12 4.046617 43.114803 0.230398 0.485250 -2.023647 0.953234
  13 -1.212251 25.331030 4.871786 0.189780 -0.423848 -0.136393
  14 0.000000 2.088998 -0.000001 2.982224 0.326961 0.014766
  15 8.092662 5.945976 -0.000004 -0.047836 -0.265339 -0.394972
  16 -0.000002 15.122831 -0.000001 -1.874092 0.000001 0.000001
  17 0.000002 10.272251 0.000001 2.180813 -0.360456 0.065227
  18 0.000001 4.132120 -1.927665 0.688912 -0.014559 0.046227
  19 -8.092662 5.945975 0.000000 0.882331 -0.263097 -0.164244
  20 0.000002 15.122832 -0.000001 -1.393138 0.000000 -0.000000
  21 -0.000001 10.272253 -0.000000 2.111014 0.086309 0.167110
  22 0.000000 4.132123 -1.927665 -0.012507 0.000000 -0.000001
  23 0.000002 11.126793 -0.000001 0.111535 0.205211 -0.024541
  24 5.835800 2.795460 0.869679 -0.020152 -0.157020 -1.649528
  25 -0.000006 5.475369 0.000000 -1.731926 -0.073979 -0.415920
  26 0.000001 11.557745 -0.000000 -1.637222 0.017770 0.017927
  27 -0.000003 7.947080 0.000000 0.915987 1.244944 0.415367
  28 -0.000001 6.243679 0.000000 -0.157211 0.000000 -0.000000
  29 0.000000 2.631204 0.000000 0.626691 -0.087717 0.212302
  30 -5.835800 2.795461 0.869677 -0.452635 0.137729 1.392460
  31 -0.000002 5.475366 -0.000001 -1.241505 0.372840 1.227506
  32 0.000004 11.557743 -0.000001 -0.003695 0.001390 -0.000067
  33 0.000001 7.947079 -0.000003 -0.751566 -0.694543 0.725928
  34 -32.184174 30.844587 6.831413 1.570796 0.000000 1.570796
  35 -14.993512 13.480310 -35.248756 -1.570796 0.000000 0.000000
  36 -8.626048 3.309850 -2.066150 -1.565812 0.000000 0.000000
  37 2.154407 31.109865 -10.215730 -0.771907 1.045670 -2.407638
  time 3
  0 16.911413 -10.151738 -17.093216 0.133308 -0.158901 -0.515295
  1 -0.000002 7.632663 5.380288 1.644840 -0.000000 0.000000
  2 0.000001 4.955766 -0.000000 -0.005713 -0.000000 -0.000000
  3 -0.000001 16.156614 -0.000000 -0.000000 -0.000000 -0.000000
  4 2.361288 5.150878 2.361295 -0.174091 0.786638 0.000223
  5 -2.361295 5.150872 2.361294 -0.174326 -0.785981 0.000108
  6 2.361293 5.150877 -2.361295 -0.174150 2.355119 0.000140
  7 -2.361295 5.150873 -2.361294 -0.174385 -2.355777 0.000191
  8 0.208517 0.000000 -23.612854 1.570796 -0.000000 -1.570796
  9 26.163279 24.554615 10.643331 1.570796 0.000000 -1.570796
  10 4.222146 13.480309 -20.444242 -1.570796 0.000000 0.000000
  11 11.038286 12.285765 19.832844 2.902684 -0.054104 0.017697
  12 5.082326 38.658520 1.590350 0.796952 -2.175842 0.690603
  13 -1.505212 22.149036 5.771906 0.166316 -0.487256 -0.058177
  14 0.000000 2.088999 0.000000 2.965016 0.333011 -0.087280
  15 8.092661 5.945973 -0.000002 -0.278653 -0.253527 -0.638524
  16 0.000000 15.122829 -0.000001 -1.965039 0.000001 0.000001
  17 0.000002 10.272244 -0.000002 2.164884 -0.497151 -0.250426
  18 0.000001 4.132121 -1.927663 0.344533 -0.003259 0.024379
  19 -8.092659 5.945972 0.000001 1.121133 -0.284495 -0.228044
  20 -0.000004 15.122830 -0.000001 -1.640722 -0.000000 -0.000000
  21 -0.000000 10.272249 -0.000001 2.129962 0.048024 0.191820
  22 0.000001 4.132121 -1.927665 -0.012507 0.000000 -0.000001
  23 0.000001 11.126797 -0.000000 -0.032354 0.221523 0.056375
  24 5.835801 2.795463 0.869679 -0.041627 -0.116081 -1.764070
  25 -0.000001 5.475369 0.000000 -1.506525 -0.012600 -0.399255
  26 0.000009 11.557741 0.000000 -2.011191 0.024234 0.016251
  27 -0.000001 7.947081 0.000002 1.198791 0.979036 0.655172
  28 -0.000000 6.243679 0.000000 -0.157211 0.000000 -0.000000
  29 0.000000 2.631207 0.000000 0.434666 -0.140839 0.057712
  30 -5.835800 2.795460 0.869677 -0.497029 0.138550 1.402269
  31 0.000005 5.475369 -0.000001 -1.266895 0.224719 0.856093
  32 -0.000002 11.557741 0.000003 -1.142184 -0.009107 -0.016336
  33 -0.000001 7.947082 -0.000000 0.126645 -1.185342 0.047969
  34 -32.184174 30.844587 6.831413 1.570796 0.000000 1.570796
  35 -14.993512 13.480310 -35.248756 -1.570796 0.000000 0.000000
  36 -8.992752 3.309850 -3.287146 -1.565812 0.000000 0.000000
  37 2.137572 33.805450 -5.571054 -0.004112 1.231749 -1.373007
  time 4
  0 16.911413 -10.483030 -17.969305 0.016392 0.005387 -0.502772
  1 -0.000000 7.632663 5.380288 1.644840 -0.000000 0.000000
  2 -0.000000 4.955765 0.000000 -0.005713 -0.000000 0.000000
  3 -0.000000 16.156610 0.000000 0.000000 -0.000000 -0.000000
  4 2.361285 5.150872 2.361292 -0.174091 0.786638 0.000223
  5 -2.361296 5.150876 2.361291 -0.174326 -0.785980 0.000108
  6 2.361286 5.150876 -2.361291 -0.174150 2.355119 0.000140
  7 -2.361292 5.150875 -2.361293 -0.174384 -2.355777 0.000192
  8 0.208517 0.000000 -23.612854 1.570796 -0.000000 -1.570796
  9 23.638119 24.746326 11.606191 1.570796 0.000000 -1.570796
  10 4.190931 13.480309 -20.444242 -1.570796 0.000000 0.000000
  11 8.092655 9.192502 23.040209 2.510490 -0.071188 0.025577
  12 4.046616 35.962749 1.784630 1.001376 -2.363065 0.524801
  13 -1.616334 20.702681 6.113331 0.159776 -0.507546 -0.055845
  14 0.000000 2.088996 0.000000 2.967268 0.334872 -0.098462
  15 8.092660 5.945971 -0.000003 -0.466658 -0.229729 -0.278070
  16 0.000001 15.122833 -0.000000 -1.709776 0.000001 0.000001
  17 -0.000001 10.272253 -0.000000 1.572359 -0.207661 0.023072
  18 0.000002 4.132122 -1.927664 -0.000000 0.000000 -0.000000
  19 -8.092660 5.945973 0.000001 1.229844 -0.293145 -0.253262
  20 0.000000 15.122831 -0.000000 -1.732702 0.000000 -0.000000
  21 -0.000001 10.272251 -0.000000 2.118239 0.036453 0.199573
  22 0.000001 4.132122 -1.927665 -0.012507 0.000000 -0.000001
  23 0.000001 11.126797 -0.000000 -0.188649 0.231671 0.097863
  24 5.835803 2.795462 0.869678 -0.067544 -0.077881 -1.878919
  25 -0.000003 5.475371 0.000001 -1.575916 -0.038103 -0.267163
  26 0.000002 11.557747 0.000001 -2.042742 0.024743 0.016002
  27 -0.000000 7.947079 -0.000001 1.237422 0.634971 0.644024
  28 -0.000000 6.243680 0.000001 -0.157211 0.000000 -0.000000
  29 -0.000000 2.631206 0.000000 0.549746 -0.139728 -0.173659
  30 -5.835801 2.795465 0.869677 -0.547461 0.140173 1.413940
  31 -0.000003 5.475368 0.000000 -1.013295 -0.193858 0.259806
  32 0.000001 11.557750 0.000000 -1.939554 -0.023048 -0.016755
  33 -0.000001 7.947084 -0.000003 -1.217633 -1.975435 1.041659
  34 -32.184174 30.844587 6.831413 1.570796 0.000000 1.570796
  35 -14.993512 13.480310 -35.248756 -1.570796 0.000000 0.000000
  36 -9.159435 3.309850 -3.842142 -1.565812 0.000000 0.000000
  37 -2.370266 34.090000 -4.340814 0.331720 1.100603 -0.883729
  time 5
  0 16.911413 -10.483030 -17.969305 0.016392 0.005387 -0.502772
  1 -0.000000 7.632663 5.380288 1.644840 -0.000000 0.000000
  2 -0.000000 4.955765 0.000000 -0.005713 -0.000000 0.000000
  3 -0.000000 16.156610 0.000000 0.000000 -0.000000 -0.000000
  4 2.361285 5.150872 2.361292 -0.174091 0.786638 0.000223
  5 -2.361296 5.150876 2.361291 -0.174326 -0.785980 0.000108
  6 2.361286 5.150876 -2.361291 -0.174150 2.355119 0.000140
  7 -2.361292 5.150875 -2.361293 -0.174384 -2.355777 0.000192
  8 0.208517 0.000000 -23.612854 1.570796 -0.000000 -1.570796
  9 23.946890 26.344364 13.052091 1.570796 0.000000 -1.570796
  10 4.190931 13.480309 -20.444242 -1.570796 0.000000 0.000000
  11 8.092655 9.192502 23.040209 2.510490 -0.071188 0.025577
  12 3.975516 35.369171 1.719897 1.050574 -2.290020 0.425200
  13 -1.616334 20.702681 6.113331 0.140239 -0.456478 -0.045639
  14 0.000000 2.088997 0.000000 2.987951 0.284680 -0.093466
  15 8.092660 5.945971 -0.000002 -0.468676 -0.230105 -0.275361
  16 -0.000000 15.122833 0.000001 -1.706933 0.000001 0.000001
  17 -0.000000 10.272249 -0.000002 1.570934 -0.205671 0.025174
  18 0.000001 4.132119 -1.927663 -0.000000 0.000000 -0.000000
  19 -8.092659 5.945975 0.000002 1.228547 -0.293488 -0.252303
  20 0.000001 15.122829 -0.000001 -1.734041 0.000000 -0.000000
  21 -0.000001 10.272246 -0.000001 2.120700 0.036716 0.199025
  22 0.000001 4.132121 -1.927665 -0.012507 0.000000 -0.000001
  23 0.000001 11.126796 -0.000001 -0.297726 0.195039 0.096725
  24 5.835802 2.795461 0.869678 -0.067544 -0.077881 -1.878919
  25 0.000007 5.475370 -0.000000 -1.618305 0.055577 -0.179332
  26 0.000003 11.557745 0.000002 -2.090510 0.025496 0.015592
  27 -0.000001 7.947083 0.000001 1.271685 0.619373 0.805937
  28 -0.000000 6.243679 -0.000000 -0.157211 0.000000 -0.000000
  29 -0.000000 2.631205 -0.000001 0.606015 -0.072869 -0.318287
  30 -5.835802 2.795460 0.869675 -0.600853 0.142777 1.427000
  31 0.000001 5.475368 0.000004 -0.629107 -0.024168 0.571352
  32 -0.000003 11.557746 0.000002 -2.196288 -0.027091 -0.014563
  33 -0.000001 7.947083 -0.000001 0.584427 -0.644144 -0.185542
  34 -32.184174 30.844587 6.831413 1.570796 0.000000 1.570796
  35 -14.993512 13.480310 -35.248756 -1.570796 0.000000 0.000000
  36 -9.159435 3.309850 -3.842142 -1.565812 0.000000 0.000000
  37 -5.402160 29.768644 -4.431223 -0.056233 1.808143 -1.498487
  time 6
  0 16.911413 -10.483030 -17.969305 0.016392 0.005387 -0.502772
  1 -0.000000 7.632663 5.380288 1.644840 -0.000000 0.000000
  2 -0.000000 4.955765 0.000000 -0.005713 -0.000000 0.000000
  3 -0.000000 16.156610 0.000000 0.000000 -0.000000 -0.000000
  4 2.361285 5.150872 2.361292 -0.174091 0.786638 0.000223
  5 -2.361296 5.150876 2.361291 -0.174326 -0.785980 0.000108
  6 2.361286 5.150876 -2.361291 -0.174150 2.355119 0.000140
  7 -2.361292 5.150875 -2.361293 -0.174384 -2.355777 0.000192
  8 0.208517 0.000000 -23.612854 1.570796 -0.000000 -1.570796
  9 24.520327 28.967852 14.412999 1.570796 0.000000 -1.570796
  10 4.190931 13.480309 -20.444242 -1.570796 0.000000 0.000000
  11 8.092655 9.192502 23.040209 2.510490 -0.071188 0.025577
  12 4.382419 34.941727 1.266766 1.209689 -2.140677 0.214499
  13 -1.616334 20.702681 6.113331 0.121711 -0.405209 -0.036750
  14 0.000000 2.088997 0.000000 3.008116 0.234365 -0.089602
  15 8.092660 5.945973 -0.000003 -0.470678 -0.230440 -0.272928
  16 -0.000001 15.122832 -0.000000 -1.704015 0.000001 0.000001
  17 0.000000 10.272253 0.000000 1.569479 -0.203875 0.027092
  18 0.000001 4.132120 -1.927665 -0.000000 0.000000 -0.000000
  19 -8.092659 5.945972 0.000001 1.227250 -0.293801 -0.251428
  20 0.000002 15.122833 0.000000 -1.735440 0.000000 0.000000
  21 -0.000001 10.272252 -0.000000 2.123230 0.036900 0.198538
  22 0.000001 4.132122 -1.927665 -0.012507 0.000000 -0.000001
  23 -0.000001 11.126796 0.000001 -0.336594 0.155380 0.097904
  24 5.835803 2.795462 0.869679 -0.067544 -0.077880 -1.878919
  25 0.000004 5.475370 -0.000001 -1.560947 0.190656 -0.043668
  26 0.000004 11.557747 0.000001 -2.104182 0.025705 0.015467
  27 -0.000001 7.947080 0.000001 1.368590 0.769137 1.153368
  28 -0.000000 6.243677 -0.000000 -0.157211 0.000000 0.000000
  29 0.000000 2.631207 -0.000000 0.342593 -0.076952 -0.382401
  30 -5.835802 2.795460 0.869676 -0.654088 0.146435 1.440965
  31 0.000002 5.475367 0.000002 -0.378635 0.017050 0.668546
  32 -0.000003 11.557743 0.000002 -2.058321 -0.024985 -0.015869
  33 -0.000000 7.947079 -0.000002 0.511235 0.169656 0.099564
  34 -32.184174 30.844587 6.831413 1.570796 0.000000 1.570796
  35 -14.993512 13.480310 -35.248756 -1.570796 0.000000 0.000000
  36 -9.159435 3.309850 -3.842142 -1.565812 0.000000 0.000000
  37 -6.266520 26.660700 -5.064097 0.482483 2.472092 -1.305424
  time 7
  0 16.911413 -10.483030 -17.969305 0.016392 0.005387 -0.502772
  1 -0.000000 7.632663 5.380288 1.644840 -0.000000 0.000000
  2 -0.000000 4.955765 0.000000 -0.005713 -0.000000 0.000000
  3 -0.000000 16.156610 0.000000 0.000000 -0.000000 -0.000000
  4 2.361285 5.150872 2.361292 -0.174091 0.786638 0.000223
  5 -2.361296 5.150876 2.361291 -0.174326 -0.785980 0.000108
  6 2.361286 5.150876 -2.361291 -0.174150 2.355119 0.000140
  7 -2.361292 5.150875 -2.361293 -0.174384 -2.355777 0.000192
  8 0.208517 0.000000 -23.612854 1.570796 -0.000000 -1.570796
  9 24.829098 30.346788 15.016143 1.570796 0.000000 -1.570796
  10 4.190931 13.480309 -20.444242 -1.570796 0.000000 0.000000
  11 8.092655 9.192502 23.040209 2.510490 -0.071188 0.025577
  12 5.383486 33.355526 0.036841 1.511914 -2.063868 -0.094282
  13 -1.616334 20.702681 6.113331 0.104057 -0.353840 -0.029060
  14 0.000000 2.088996 0.000000 3.027969 0.183036 -0.086699
  15 8.092661 5.945972 -0.000003 -0.472003 -0.231672 -0.271144
  16 0.000001 15.122830 0.000002 -1.701758 0.000001 0.000001
  17 0.000000 10.272252 -0.000001 1.568323 -0.202523 0.028541
  18 0.000001 4.132119 -1.927664 -0.000000 0.000000 -0.000000
  19 -8.092661 5.945974 0.000001 1.225809 -0.295120 -0.250540
  20 -0.000002 15.122826 -0.000000 -1.737387 0.000000 -0.000000
  21 -0.000001 10.272248 0.000001 2.126591 0.036969 0.198044
  22 0.000001 4.132122 -1.927665 -0.012507 0.000000 -0.000001
  23 -0.000000 11.126795 0.000001 -0.328251 0.159510 0.074533
  24 5.835801 2.795462 0.869678 -0.082008 -0.115835 -1.842756
  25 -0.000002 5.475370 0.000001 -1.361122 0.142822 -0.000534
  26 -0.000003 11.557741 0.000004 -2.105340 0.025723 0.015457
  27 0.000000 7.947081 -0.000000 1.342409 0.911464 1.230164
  28 -0.000000 6.243677 0.000000 -0.157211 0.000000 0.000000
  29 0.000000 2.631207 -0.000000 0.368818 -0.077572 -0.268703
  30 -5.835800 2.795464 0.869676 -0.704047 0.151085 1.455369
  31 0.000001 5.475367 0.000001 -0.454176 0.003080 0.607644
  32 -0.000004 11.557741 -0.000001 -1.768813 -0.020108 -0.017612
  33 0.000001 7.947076 -0.000001 0.534225 0.092366 -0.087396
  34 -32.184174 30.844587 7.011703 1.570796 0.000000 1.570796
  35 -14.993512 13.480310 -35.248756 -1.570796 0.000000 0.000000
  36 -9.159435 3.309850 -3.842142 -1.565812 0.000000 0.000000
  37 -5.431138 25.666935 -6.533736 0.862469 2.458447 -1.118417
  time 8
  0 16.911413 -10.483030 -17.969305 0.016392 0.005387 -0.502772
  1 -0.000000 7.632663 5.380288 1.644840 -0.000000 0.000000
  2 -0.000000 4.955765 0.000000 -0.005713 -0.000000 0.000000
  3 -0.000000 16.156610 0.000000 0.000000 -0.000000 -0.000000
  4 2.361285 5.150872 2.361292 -0.174091 0.786638 0.000223
  5 -2.361296 5.150876 2.361291 -0.174326 -0.785980 0.000108
  6 2.361286 5.150876 -2.361291 -0.174150 2.355119 0.000140
  7 -2.361292 5.150875 -2.361293 -0.174384 -2.355777 0.000192
  8 0.208517 0.000000 -23.612854 1.570796 -0.000000 -1.570796
  9 24.829098 30.346788 15.016143 1.570796 0.000000 -1.570796
  10 4.190931 13.480309 -20.444242 -1.570796 0.000000 0.000000
  11 8.092655 9.192502 23.040209 2.510490 -0.071188 0.025577
  12 8.457946 28.306154 -2.212849 2.017790 -2.236737 -0.436158
  13 -1.356836 20.702681 5.848749 0.028852 -0.261789 -0.035420
  14 -0.000000 2.088997 0.000000 3.113141 0.090586 -0.062486
  15 8.092658 5.945972 -0.000002 -0.506062 -0.247148 -0.205485
  16 0.000002 15.122828 0.000002 -1.669326 0.000001 0.000001
  17 -0.000002 10.272246 -0.000002 1.557649 -0.154085 0.073846
  18 0.000002 4.132118 -1.927662 -0.000000 0.000000 -0.000000
  19 -8.092657 5.945974 0.000001 1.206989 -0.310571 -0.226651
  20 -0.000003 15.122825 0.000002 -1.764583 0.000000 -0.000000
  21 -0.000000 10.272243 -0.000002 2.169382 0.048177 0.184341
  22 0.000001 4.132122 -1.927665 -0.012507 0.000000 -0.000001
  23 -0.000001 11.126795 0.000001 -0.308540 0.170135 0.018627
  24 5.835801 2.795463 0.869679 -0.122812 -0.204712 -1.752599
  25 0.000004 5.475371 -0.000000 -0.889799 -0.085535 -0.222050
  26 -0.000001 11.557745 0.000003 -2.052223 0.024894 0.015923
  27 0.000001 7.947083 0.000001 0.959724 0.988981 0.685304
  28 -0.000000 6.243678 0.000000 -0.157211 0.000000 -0.000000
  29 0.000000 2.631204 -0.000001 0.389667 0.072496 -0.082244
  30 -5.835801 2.795462 0.869675 -0.747655 0.156536 1.469798
  31 0.000000 5.475367 -0.000001 -0.579657 -0.005784 0.610243
  32 0.000002 11.557741 0.000001 -1.452237 -0.014448 -0.017836
  33 -0.000001 7.947077 0.000002 0.538822 0.011391 -0.294067
  34 -32.184174 30.844587 7.501757 1.570796 0.000000 1.570796
  35 -14.993512 13.480310 -35.248756 -1.570796 0.000000 0.000000
  36 -9.159435 3.309850 -3.842142 -1.565812 0.000000 0.000000
  37 -4.923304 24.366282 -8.181512 1.323251 2.530097 -0.858096
  time 9
  0 16.911413 -10.483030 -17.969305 0.016392 0.005387 -0.502772
  1 -0.000000 7.632663 5.380288 1.644840 -0.000000 0.000000
  2 -0.000000 4.955765 0.000000 -0.005713 -0.000000 0.000000
  3 -0.000000 16.156610 0.000000 0.000000 -0.000000 -0.000000
  4 2.361285 5.150872 2.361292 -0.174091 0.786638 0.000223
  5 -2.361296 5.150876 2.361291 -0.174326 -0.785980 0.000108
  6 2.361286 5.150876 -2.361291 -0.174150 2.355119 0.000140
  7 -2.361292 5.150875 -2.361293 -0.174384 -2.355777 0.000192
  8 0.208517 0.000000 -23.612854 1.570796 -0.000000 -1.570796
  9 24.829098 30.346788 15.016143 1.570796 0.000000 -1.570796
  10 5.005065 13.480309 -20.444242 -1.570796 0.000000 0.000000
  11 8.092655 9.192502 23.040209 2.510490 -0.071188 0.025577
  12 13.483829 20.586897 -4.890052 -0.732274 -0.454253 2.673501
  13 -0.785939 20.702681 5.225038 -0.085486 -0.173959 -0.070723
  14 0.000000 2.088997 -0.000000 -3.042521 -0.011728 -0.026126
  15 8.092662 5.945972 -0.000005 -0.563029 -0.256442 -0.125959
  16 -0.000002 15.122828 0.000000 -1.602000 0.000001 0.000001
  17 0.000001 10.272248 0.000000 1.535199 -0.082420 0.112223
  18 0.000000 4.132119 -1.927664 -0.000000 0.000000 -0.000000
  19 -8.092661 5.945971 0.000002 1.160867 -0.347467 -0.174043
  20 0.000001 15.122828 -0.000001 -1.819438 0.000000 -0.000000
  21 -0.000001 10.272249 -0.000000 2.261596 0.076534 0.158983
  22 0.000001 4.132122 -1.927665 -0.012507 0.000000 -0.000001
  23 0.000000 11.126793 -0.000001 -0.285429 0.184187 -0.048223
  24 5.835801 2.795463 0.869678 -0.183780 -0.305780 -1.636834
  25 -0.000003 5.475370 -0.000001 -0.455204 -0.004183 -0.509336
  26 0.000000 11.557740 0.000000 -1.511020 0.015503 0.017934
  27 0.000000 7.947080 -0.000000 0.295916 1.021106 -0.045393
  28 0.000000 6.243678 0.000000 -0.157211 0.000000 -0.000000
  29 0.000000 2.631204 -0.000001 0.204116 0.150227 -0.027065
  30 -5.835802 2.795463 0.869676 -0.781905 0.162477 1.483912
  31 0.000001 5.475368 -0.000002 -0.634418 -0.012280 0.692156
  32 -0.000003 11.557738 -0.000001 -1.273596 -0.011314 -0.017177
  33 -0.000002 7.947077 0.000001 0.557984 -0.071491 -0.517599
  34 -32.184174 30.844587 8.225350 1.570796 0.000000 1.570796
  35 -14.993512 13.480310 -35.248756 -1.570796 0.000000 0.000000
  36 -9.159435 3.309850 -3.842142 -1.565812 0.000000 0.000000
  37 -5.165952 22.739704 -9.192462 -1.394538 0.441561 2.518196
  time 10
  0 16.911413 -10.483030 -17.969305 0.016392 0.005387 -0.502772
  1 -0.000000 7.632663 5.380288 1.644840 -0.000000 0.000000
  2 -0.000000 4.955765 0.000000 -0.005713 -0.000000 0.000000
  3 -0.000000 16.156610 0.000000 0.000000 -0.000000 -0.000000
  4 2.361285 5.150872 2.361292 -0.174091 0.786638 0.000223
  5 -2.361296 5.150876 2.361291 -0.174326 -0.785980 0.000108
  6 2.361286 5.150876 -2.361291 -0.174150 2.355119 0.000140
  7 -2.361292 5.150875 -2.361293 -0.174384 -2.355777 0.000192
  8 0.208517 0.000000 -23.612854 1.570796 -0.000000 -1.570796
  9 24.829098 30.346788 15.016143 1.570796 0.000000 -1.570796
  10 6.517029 13.480309 -20.444242 -1.570796 0.000000 0.000000
  11 8.092655 9.192502 23.040209 2.510490 -0.071188 0.025577
  12 18.175493 13.519448 -7.130305 -0.524652 0.016717 2.874470
  13 -0.215042 20.702681 4.497250 -0.211029 -0.113295 -0.112644
  14 -0.000000 2.088998 0.000000 -2.905803 -0.112002 -0.008342
  15 8.092658 5.945974 -0.000004 -0.605273 -0.259886 -0.113880
  16 -0.000002 15.122830 0.000002 -1.530232 0.000000 0.000001
  17 -0.000002 10.272245 -0.000001 1.506497 -0.051045 0.092684
  18 0.000001 4.132121 -1.927665 -0.000000 0.000000 -0.000000
  19 -8.092659 5.945974 0.000000 1.091416 -0.403618 -0.113431
  20 0.000002 15.122828 -0.000001 -1.879520 -0.000000 -0.000000
  21 -0.000002 10.272247 -0.000001 2.377619 0.112008 0.139871
  22 0.000001 4.132122 -1.927665 -0.012507 0.000000 -0.000001
  23 -0.000000 11.126797 0.000001 -0.266259 0.196930 -0.104024
  24 5.835801 2.795461 0.869678 -0.245586 -0.384138 -1.532274
  25 0.000000 5.475369 0.000001 -0.739333 0.257081 -0.628235
  26 0.000001 11.557740 -0.000001 -0.066711 -0.001350 0.001197
  27 -0.000005 7.947081 0.000001 -0.602862 0.770880 -0.734712
  28 -0.000001 6.243680 0.000001 -0.157211 0.000000 -0.000000
  29 0.000001 2.631203 -0.000002 -0.035060 -0.153136 -0.041779
  30 -5.835801 2.795459 0.869674 -0.803851 0.168508 1.497456
  31 0.000003 5.475368 0.000003 -0.614608 0.000786 0.796425
  32 0.000003 11.557742 0.000004 -1.187020 -0.009848 -0.016658
  33 -0.000002 7.947078 -0.000002 0.565883 -0.214999 -0.740016
  34 -32.184174 30.844587 9.106263 1.570796 0.000000 1.570796
  35 -14.993512 13.480310 -35.248756 -1.570796 0.000000 0.000000
  36 -9.159435 3.309850 -3.842142 -1.565812 0.000000 0.000000
  37 -5.951617 20.817806 -9.191753 -1.072271 0.224786 2.693864
  time 11
  0 16.911413 -10.483030 -17.969305 0.016392 0.005387 -0.502772
  1 -0.000000 7.632663 5.380288 1.644840 -0.000000 0.000000
  2 -0.000000 4.955765 0.000000 -0.005713 -0.000000 0.000000
  3 -0.000000 16.156610 0.000000 0.000000 -0.000000 -0.000000
  4 2.361285 5.150872 2.361292 -0.174091 0.786638 0.000223
  5 -2.361296 5.150876 2.361291 -0.174326 -0.785980 0.000108
  6 2.361286 5.150876 -2.361291 -0.174150 2.355119 0.000140
  7 -2.361292 5.150875 -2.361293 -0.174384 -2.355777 0.000192
  8 0.208517 0.000000 -23.612854 1.570796 -0.000000 -1.570796
  9 24.829098 30.346788 15.016143 1.570796 0.000000 -1.570796
  10 7.331163 13.480309 -20.444242 -1.570796 0.000000 0.000000
  11 8.092656 9.412252 21.827585 2.514690 -0.018490 0.016514
  12 20.247297 10.425489 -8.069156 -0.519109 0.439352 3.126998
  13 0.044456 20.702681 3.920437 -0.315989 -0.094570 -0.130661
  14 0.000000 2.088998 0.000000 -2.788852 -0.190746 -0.030058
  15 8.092661 5.945971 -0.000002 -0.558137 -0.299332 -0.145333
  16 0.000000 15.122831 -0.000000 -1.637093 0.000001 0.000001
  17 -0.000000 10.272248 -0.000001 1.582454 -0.044701 0.006426
  18 0.000001 4.132121 -1.927665 -0.000000 0.000000 -0.000000
  19 -8.092659 5.945972 0.000001 1.011522 -0.477572 -0.067288
  20 -0.000002 15.122837 -0.000001 -1.929581 -0.000000 -0.000000
  21 -0.000002 10.272252 0.000000 2.493007 0.136488 0.136688
  22 0.000001 4.132124 -1.927665 -0.012507 0.000000 -0.000001
  23 0.000001 11.126796 -0.000000 -0.257374 0.202147 -0.126930
  24 5.835800 2.795462 0.869678 -0.274443 -0.414815 -1.486285
  25 -0.000005 5.475368 0.000002 -0.698735 0.412849 -0.658314
  26 0.000005 11.557740 0.000000 -0.003695 -0.001390 0.000066
  27 0.000002 7.947078 -0.000002 -0.487761 1.083250 -0.445896
  28 -0.000000 6.243679 0.000001 -0.157211 0.000000 0.000000
  29 0.000000 2.631205 -0.000000 -0.153597 -0.363701 -0.027191
  30 -5.835801 2.795462 0.869675 -0.810567 0.174158 1.510241
  31 -0.000001 5.475368 0.000001 -0.600422 0.035268 0.896183
  32 -0.000000 11.557743 0.000001 -1.075262 -0.008031 -0.015801
  33 -0.000002 7.947081 -0.000002 0.536748 -0.423201 -0.898455
  34 -32.184174 30.844587 10.068273 1.570796 0.000000 1.570796
  35 -14.993512 13.480310 -35.248756 -1.570796 0.000000 0.000000
  36 -9.159435 3.309850 -3.842142 -1.565812 0.000000 0.000000
  37 -6.304819 18.688511 -8.371145 -0.866169 0.038325 2.848592
  time 12
  0 16.220123 -10.483031 -12.569887 -0.194266 -0.099441 -0.469801
  1 -0.000001 7.632662 5.380288 1.644840 -0.000000 0.000000
  2 0.000001 4.955764 -0.000000 -0.005713 -0.000000 -0.000000
  3 0.000001 16.156612 -0.000001 -0.000000 -0.000000 -0.000000
  4 2.361288 5.150875 2.361295 -0.174091 0.786638 0.000223
  5 -2.361292 5.150876 2.361293 -0.174326 -0.785980 0.000108
  6 2.361289 5.150874 -2.361293 -0.174150 2.355119 0.000140
  7 -2.361290 5.150874 -2.361295 -0.174384 -2.355777 0.000191
  8 0.208517 0.000000 -23.612854 1.570796 -0.000000 -1.570796
  9 24.829098 30.346788 15.016143 1.570796 0.000000 -1.570796
  10 7.331163 13.480309 -20.444242 -1.570796 0.000000 0.000000
  11 8.092655 9.632004 20.614962 2.518186 0.030830 0.008236
  12 16.243923 11.509852 -8.293224 -0.719373 0.497462 -2.856172
  13 0.044456 23.043724 3.111374 -0.359568 -0.191926 -0.039835
  14 0.000000 2.088998 0.000000 -2.710629 -0.184556 -0.024047
  15 8.092659 5.945973 -0.000004 -0.497881 -0.390847 0.050057
  16 -0.000001 15.122830 -0.000001 -1.575585 0.000000 0.000001
  17 0.000001 10.272246 -0.000001 1.378650 0.029090 0.001823
  18 0.000001 4.132123 -1.927664 0.124829 -0.043906 -0.007724
  19 -8.092660 5.945972 0.000002 0.748992 -0.574294 0.147615
  20 0.000000 15.122826 0.000002 -1.813317 -0.000000 -0.000001
  21 -0.000001 10.272245 -0.000003 2.534402 0.194048 0.121419
  22 0.000001 4.132122 -1.927665 -0.012507 0.000000 -0.000001
  23 0.000000 11.126795 -0.000000 -0.272042 0.093182 -0.005304
  24 5.835801 2.795463 0.869678 -0.274443 -0.414814 -1.486285
  25 0.000003 5.475369 -0.000002 -1.126454 0.177349 -0.864391
  26 0.000003 11.557742 0.000001 -0.003715 -0.001390 0.000067
  27 -0.000001 7.947084 0.000002 -0.132349 0.986399 0.457002
  28 0.000000 6.243680 0.000000 -0.157211 0.000000 -0.000000
  29 -0.000000 2.631207 0.000001 -0.116421 -0.577079 -0.010818
  30 -5.835802 2.795465 0.869677 -0.644136 0.178508 1.524396
  31 0.000001 5.475369 -0.000001 -0.720244 -0.146819 1.072087
  32 -0.000007 11.557744 -0.000001 -1.236938 -0.010688 -0.016972
  33 0.000001 7.947078 -0.000000 0.625581 -0.397821 -0.509456
  34 -26.152842 30.844587 10.965619 1.570796 0.000000 1.570796
  35 -14.993512 13.480310 -35.248756 -1.570796 0.000000 0.000000
  36 -9.159435 3.309850 -3.842142 -1.565812 0.000000 0.000000
  37 -4.080890 20.898766 -11.838305 -0.719808 0.216214 -3.016761
  time 13
  0 15.528832 -10.483031 -7.170469 -0.411451 -0.194899 -0.414777
  1 0.000000 7.632664 5.380286 1.644840 -0.000000 0.000000
  2 -0.000001 4.955764 0.000001 -0.005713 0.000000 0.000000
  3 -0.000000 16.156612 -0.000001 -0.000000 -0.000000 -0.000000
  4 2.361290 5.150877 2.361292 -0.174091 0.786638 0.000223
  5 -2.361294 5.150873 2.361292 -0.174326 -0.785980 0.000108
  6 2.361289 5.150874 -2.361294 -0.174150 2.355119 0.000140
  7 -2.361289 5.150876 -2.361294 -0.174384 -2.355777 0.000191
  8 0.208517 0.000000 -23.612854 1.570796 -0.000000 -1.570796
  9 24.829098 30.346788 15.016143 1.570796 0.000000 -1.570796
  10 7.331163 13.480309 -20.444242 -1.570796 0.000000 0.000000
  11 8.092656 9.851754 19.402338 2.521096 0.077027 0.000623
  12 16.236704 20.781151 -7.439182 -0.987762 0.332758 -2.551948
  13 0.044457 25.384769 2.302311 -0.412779 -0.284214 0.056771
  14 -0.000000 2.088998 0.000000 -2.629441 -0.150129 -0.011383
  15 8.092662 5.945973 -0.000004 -0.489197 -0.428021 0.213951
  16 0.000001 15.122827 -0.000000 -1.426774 0.000000 0.000001
  17 0.000000 10.272251 0.000000 1.132625 0.058502 -0.043510
  18 0.000002 4.132122 -1.927665 0.250347 -0.086505 -0.020893
  19 -8.092661 5.945974 0.000001 0.489895 -0.609440 0.363672
  20 0.000001 15.122830 0.000001 -1.647688 -0.000000 -0.000001
  21 -0.000002 10.272252 -0.000001 2.507539 0.248976 0.097217
  22 0.000001 4.132125 -1.927665 -0.012507 0.000000 -0.000001
  23 0.000001 11.126796 -0.000000 -0.299408 -0.011503 0.115417
  24 5.835800 2.795461 0.869677 -0.274443 -0.414815 -1.486285
  25 0.000002 5.475370 0.000001 -1.352621 0.118586 -0.880633
  26 0.000001 11.557743 -0.000003 -0.003681 -0.001390 0.000066
  27 0.000001 7.947076 0.000001 -0.426735 0.668349 0.539986
  28 -0.000000 6.243677 -0.000002 -0.157211 0.000000 0.000000
  29 0.000000 2.631207 0.000000 -0.030223 -0.548056 -0.014976
  30 -5.835802 2.795461 0.869674 -0.478627 0.178898 1.532548
  31 -0.000003 5.475367 0.000001 -0.997879 -0.363744 1.280008
  32 -0.000000 11.557747 -0.000000 -1.551741 -0.016231 -0.017960
  33 -0.000001 7.947080 0.000000 0.971236 -0.424278 -0.131973
  34 -20.121506 30.844587 11.374392 1.570796 0.000000 1.570796
  35 -14.993512 13.480310 -35.248756 -1.570796 0.000000 0.000000
  36 -9.159435 3.309850 -3.842142 -1.565812 0.000000 0.000000
  37 -3.225043 25.553898 -16.501301 -0.626739 0.450394 -2.622620
  time 14
  0 15.528832 -8.993789 -3.492966 -0.294472 -0.195151 -0.425182
  1 -0.000000 7.632663 5.380288 1.644840 -0.000000 0.000000
  2 -0.000001 4.955767 0.000002 -0.005713 0.000000 -0.000000
  3 -0.000001 16.156612 -0.000001 -0.000000 -0.000000 0.000000
  4 2.361285 5.150870 2.361295 -0.174091 0.786638 0.000223
  5 -2.361296 5.150873 2.361290 -0.174326 -0.785981 0.000108
  6 2.361290 5.150876 -2.361294 -0.174150 2.355119 0.000140
  7 -2.361290 5.150875 -2.361296 -0.174384 -2.355777 0.000191
  8 0.208517 0.000000 -23.612854 1.570796 -0.000000 -1.570796
  9 27.701252 30.346788 15.016144 1.570796 0.000000 -1.570796
  10 7.331163 13.480309 -20.444242 -1.570796 0.000000 0.000000
  11 8.092657 13.726521 15.823072 -2.964318 0.037391 0.016118
  12 14.965097 24.054064 -6.668504 -0.997417 0.345092 -2.663484
  13 0.044457 26.678577 0.305136 -0.249773 -0.081189 0.059880
  14 -0.000000 2.088999 0.000001 -2.786353 -0.252810 -0.074140
  15 8.092661 5.945973 -0.000004 -0.456344 -0.353766 0.122336
  16 0.000001 15.122830 -0.000001 -1.741503 0.000001 0.000001
  17 0.000002 10.272254 0.000001 2.241166 0.047119 0.006509
  18 0.000001 4.132120 -1.927665 0.124829 -0.043906 -0.007724
  19 -8.092661 5.945973 0.000001 0.406689 -0.534049 0.234011
  20 -0.000004 15.122828 0.000004 -1.458551 -0.000000 -0.000000
  21 -0.000002 10.272245 -0.000002 2.455183 0.214382 0.100933
  22 0.000001 4.132122 -1.927665 -0.012507 0.000000 -0.000001
  23 0.000000 11.126795 0.000001 -0.294221 0.014137 0.064013
  24 5.835800 2.795460 0.869676 -0.274443 -0.414815 -1.486285
  25 0.000000 5.475370 0.000007 -0.657038 0.035475 -1.002413
  26 -0.000000 11.557741 0.000004 -0.918779 0.005674 0.014280
  27 -0.000000 7.947076 -0.000001 0.007673 0.538306 0.793445
  28 -0.000001 6.243676 -0.000001 -0.157211 0.000001 0.000000
  29 0.000000 2.631204 -0.000002 0.052819 -0.396421 -0.012285
  30 -5.835799 2.795463 0.869677 -0.478627 0.178898 1.532548
  31 -0.000003 5.475368 -0.000000 -1.042730 -0.086864 0.980542
  32 -0.000002 11.557740 -0.000004 -1.527255 -0.015790 -0.017945
  33 -0.000002 7.947080 -0.000001 1.202335 -0.367088 -0.412524
  34 -21.657835 30.844872 5.086140 1.570796 0.000000 1.570796
  35 -14.993512 13.480310 -35.248756 -1.570796 0.000000 0.000000
  36 -9.159435 3.309850 -3.842142 -1.565812 0.000000 0.000000
  37 -3.695447 30.655519 -15.876662 -0.679749 0.460028 -2.750636
  time 15
  0 15.528832 -7.504544 0.184536 -0.177505 -0.194210 -0.435547
  1 -0.000002 7.632661 5.380289 1.644841 -0.000000 0.000000
  2 -0.000000 4.955762 -0.000000 -0.005714 -0.000000 -0.000000
  3 -0.000000 16.156610 0.000000 -0.000000 -0.000000 -0.000000
  4 2.361288 5.150872 2.361294 -0.174091 0.786638 0.000223
  5 -2.361289 5.150876 2.361297 -0.174326 -0.785980 0.000108
  6 2.361288 5.150874 -2.361293 -0.174150 2.355119 0.000140
  7 -2.361293 5.150874 -2.361292 -0.174385 -2.355778 0.000191
  8 0.208517 0.000000 -23.612854 1.570796 -0.000000 -1.570796
  9 31.649233 30.346788 15.016147 1.570796 0.000000 -1.570796
  10 7.331163 13.480309 -20.444242 -1.570796 0.000000 0.000000
  11 8.092659 6.954476 8.233090 -1.883656 0.000000 -0.000000
  12 13.810694 27.022282 -6.162894 -0.952662 0.350636 -2.762453
  13 0.044458 27.972387 -1.692040 -0.085521 0.118647 0.095921
  14 -0.000000 2.088998 0.000000 -2.934434 -0.296980 -0.125477
  15 8.092661 5.945971 -0.000003 -0.052954 -0.214145 0.025921
  16 0.000002 15.122833 -0.000002 -1.423595 0.000000 0.000001
  17 0.000000 10.272251 0.000001 2.625313 0.008247 0.026058
  18 0.000001 4.132122 -1.927665 0.000000 0.000000 -0.000000
  19 -8.092664 5.945970 0.000000 0.351029 -0.380603 0.102966
  20 -0.000002 15.122828 -0.000001 -1.240676 -0.000000 -0.000000
  21 0.000000 10.272251 -0.000001 2.343102 0.184345 0.098765
  22 0.000001 4.132122 -1.927665 -0.012507 0.000000 -0.000001
  23 0.000002 11.126796 0.000001 -0.291379 0.035270 -0.058332
  24 5.835800 2.795463 0.869678 -0.274443 -0.414814 -1.486285
  25 0.000002 5.475370 -0.000003 -0.136433 -0.016016 -1.101452
  26 -0.000001 11.557741 0.000002 -1.379979 0.013168 0.017640
  27 0.000000 7.947080 0.000000 0.229327 0.528059 0.958672
  28 -0.000000 6.243678 0.000000 -0.157211 0.000000 0.000000
  29 0.000000 2.631206 -0.000000 0.089200 -0.266111 -0.003753
  30 -5.835800 2.795462 0.869676 -0.478627 0.178898 1.532548
  31 -0.000003 5.475369 -0.000001 -1.268300 0.032365 0.565991
  32 -0.000003 11.557745 0.000001 -1.409049 -0.013680 -0.017728
  33 0.000002 7.947078 -0.000003 1.475036 -0.503982 -0.781394
  34 -24.476719 30.845154 -1.202114 1.570796 0.000000 1.570796
  35 -14.993512 13.480310 -35.248756 -1.570796 0.000000 0.000000
  36 -9.159435 3.309850 -3.842142 -1.565812 0.000000 0.000000
  37 -4.016230 35.611935 -15.201845 -0.733871 0.463485 -2.879458
end
