version 1
nodes
0 "drill" -1
1 "drill_lever" 0
2 "drill_lever anim_help" 1
3 "drill_spin" 0
4 "drill_claw2" 3
5 "drill_claw1" 3
6 "drill_claw3" 3
7 "drill_claw4" 3
8 "base" -1
9 "ik arm.R" 8
10 "ik leg R" 8
11 "t leg.R" 8
12 "t hand.R" 8
13 "spine low" 8
14 "hip" 13
15 "leg up.R" 14
16 "leg low.R" 15
17 "foot.R" 16
18 "tow.R" 17
19 "leg up.L" 14
20 "leg low.L" 19
21 "foot.L" 20
22 "tow.L" 21
23 "spine up" 13
24 "shoulder.R" 23
25 "arm up.R" 24
26 "arm low.R" 25
27 "hand.R" 26
28 "neck" 23
29 "head" 28
30 "shoulder.L" 23
31 "arm up.L" 30
32 "arm low.L" 31
33 "hand.L" 32
34 "ik arm.L" 8
35 "ik leg L" 8
36 "t leg.L" 8
37 "t hand.L" 8
end
skeleton
  time 0
  0 15.528832 -7.504544 0.184536 -0.177505 -0.194210 -0.435547
  1 -0.000002 7.632661 5.380289 1.644841 -0.000000 0.000000
  2 -0.000000 4.955762 -0.000000 -0.005714 -0.000000 -0.000000
  3 -0.000000 16.156610 0.000000 -0.000000 -0.000000 -0.000000
  4 2.361288 5.150872 2.361294 -0.174091 0.786638 0.000223
  5 -2.361289 5.150876 2.361297 -0.174326 -0.785980 0.000108
  6 2.361288 5.150874 -2.361293 -0.174150 2.355119 0.000140
  7 -2.361293 5.150874 -2.361292 -0.174385 -2.355778 0.000191
  8 0.208517 0.000000 -23.612854 1.570796 -0.000000 -1.570796
  9 31.649233 28.604221 15.016147 1.570796 0.000000 -1.570796
  10 7.331163 13.480309 -20.444242 -1.570796 0.000000 0.000000
  11 9.830676 3.215760 0.000003 -1.570796 0.000000 0.000000
  12 14.150807 26.080256 -7.279318 -1.088465 0.353245 -2.795376
  13 0.000002 24.557573 -2.446133 0.149888 -0.063865 0.127575
  14 -0.000000 2.088997 0.000000 2.984658 0.043608 -0.135802
  15 8.092661 5.945974 -0.000004 0.496632 -0.067799 -0.107074
  16 0.000002 15.122829 0.000000 -1.639384 0.000001 0.000001
  17 0.000001 10.272248 0.000001 2.713501 -0.069323 0.106096
  18 0.000002 4.132120 -1.927664 -0.000000 -0.000000 -0.000000
  19 -8.092659 5.945975 0.000001 0.724088 0.034430 0.048561
  20 0.000001 15.122828 0.000001 -1.666433 -0.000000 -0.000000
  21 -0.000001 10.272248 -0.000000 2.518425 0.019055 -0.056391
  22 0.000002 4.132121 -1.927663 0.000000 -0.000000 -0.000001
  23 -0.000000 11.126795 0.000000 -0.352414 0.040018 -0.057959
  24 5.835801 2.795460 0.869679 -0.267005 -0.414376 -1.488252
  25 -0.000003 5.475370 0.000001 -0.297148 -0.046335 -0.875680
  26 0.000001 11.557741 -0.000001 -1.461197 0.014608 0.017855
  27 -0.000002 7.947076 -0.000000 0.482636 0.440789 0.924315
  28 0.000001 6.243679 0.000001 -0.157211 0.000000 -0.000000
  29 0.000000 2.631207 0.000000 -0.559754 -0.062969 0.241444
  30 -5.835801 2.795465 0.869676 -0.478627 0.178898 1.532548
  31 -0.000004 5.475370 -0.000001 -1.036260 -0.278987 0.358841
  32 0.000003 11.557740 -0.000001 -1.618922 -0.017436 -0.017941
  33 -0.000002 7.947078 -0.000000 2.081017 -0.565650 -1.190482
  34 -24.476719 30.845154 -1.202114 1.570796 0.000000 1.570796
  35 -8.092659 13.480309 -20.444241 -1.570796 0.000000 0.000000
  36 -9.159435 3.309850 -3.842142 -1.565812 0.000000 0.000000
  37 -6.247702 36.455528 -15.319427 -0.733871 0.463485 -2.879458
  time 1
  0 15.528832 -7.504544 0.184536 0.166648 -0.301436 -0.569891
  1 -0.000001 7.632662 5.380288 1.644840 -0.000000 0.000000
  2 0.000000 4.955766 0.000001 -0.005713 0.000000 -0.000000
  3 -0.000002 16.156610 -0.000002 -0.000000 -0.000000 -0.000000
  4 2.361289 5.150875 2.361295 -0.174091 0.786638 0.000223
  5 -2.361295 5.150871 2.361295 -0.174326 -0.785980 0.000108
  6 2.361293 5.150877 -2.361292 -0.174150 2.355119 0.000140
  7 -2.361294 5.150874 -2.361293 -0.174384 -2.355777 0.000191
  8 0.208517 0.000000 -23.612854 1.570796 -0.000000 -1.570796
  9 31.338614 27.618729 13.220103 1.570796 0.000000 -1.570796
  10 7.413882 13.480309 -20.893698 -1.570796 0.000000 0.000000
  11 9.830676 3.215760 0.000003 -1.570796 -0.015062 -0.000000
  12 13.851457 22.378668 -6.850028 1.791525 2.696350 0.001277
  13 0.000001 28.913017 0.691429 0.213267 -0.198964 0.160906
  14 0.000000 2.088998 -0.000001 -3.105520 0.157421 -0.201720
  15 8.092661 5.945973 -0.000004 0.110280 -0.091923 -0.073301
  16 0.000001 15.122824 0.000001 -1.051683 -0.000000 0.000001
  17 0.000000 10.272244 0.000001 2.233868 0.006558 0.126658
  18 0.000002 4.132120 -1.927664 0.000000 -0.000000 -0.000000
  19 -8.092661 5.945978 0.000002 -0.033607 0.068357 0.000159
  20 0.000002 15.122825 0.000001 -1.036608 0.000000 -0.000001
  21 0.000001 10.272243 0.000000 2.365585 -0.032648 -0.060068
  22 0.000000 4.132120 -1.927663 0.000000 -0.000000 -0.000001
  23 0.000001 11.126796 -0.000001 -0.094420 0.020073 -0.055597
  24 5.835801 2.795465 0.869678 -0.274951 -0.469867 -1.428306
  25 -0.000001 5.475370 -0.000001 -0.947585 -0.422826 -0.875909
  26 0.000005 11.557742 -0.000003 -0.003719 -0.001390 0.000067
  27 0.000001 7.947076 -0.000003 -0.780328 1.316359 0.028379
  28 0.000001 6.243680 -0.000001 -0.041152 -0.042274 -0.068879
  29 0.000000 2.631207 -0.000001 -0.217399 0.052181 0.298562
  30 -5.835802 2.795462 0.869676 -0.486255 0.172514 1.546200
  31 0.000000 5.475369 0.000000 -1.165949 -0.326147 0.562422
  32 0.000001 11.557746 -0.000000 -0.414838 -0.000134 -0.007240
  33 -0.000002 7.947078 0.000003 -0.199268 0.153705 0.724011
  34 -24.476719 30.845154 0.402442 1.570796 0.000000 1.570796
  35 -7.421535 13.480309 -20.444239 -1.570796 0.000000 0.000000
  36 -9.159437 3.309849 3.031497 -1.565812 0.000000 0.000000
  37 -7.835038 43.458191 -18.386608 0.591619 2.566478 -1.430984
  time 2
  0 16.206135 -6.415721 -0.841270 -0.060516 -0.060472 -0.636916
  1 -0.000003 7.632661 5.380287 1.644840 -0.000000 0.000000
  2 0.000001 4.955766 -0.000000 -0.005714 -0.000000 0.000000
  3 -0.000003 16.156610 -0.000001 0.000000 -0.000000 0.000000
  4 2.361282 5.150869 2.361296 -0.174091 0.786638 0.000223
  5 -2.361299 5.150870 2.361288 -0.174326 -0.785981 0.000109
  6 2.361284 5.150873 -2.361291 -0.174150 2.355119 0.000140
  7 -2.361297 5.150869 -2.361295 -0.174385 -2.355777 0.000192
  8 0.208517 0.000000 -23.612854 1.570796 -0.000000 -1.570796
  9 30.519703 25.020609 11.870412 1.570796 0.000000 -1.570796
  10 7.992920 13.480309 -21.965479 -1.570796 0.000000 0.000000
  11 9.830676 3.215760 0.000003 -1.570796 -0.030126 -0.000000
  12 11.804201 24.513742 -6.943832 -0.972010 0.515948 -2.914983
  13 -0.695527 28.181175 2.389155 0.007545 -0.105385 0.065105
  14 0.000000 2.088997 -0.000001 -3.042890 0.104665 -0.066260
  15 8.092662 5.945971 -0.000005 0.426480 -0.039348 -0.119450
  16 -0.000003 15.122836 -0.000000 -1.165790 -0.000000 0.000001
  17 0.000001 10.272259 0.000000 2.195657 -0.027025 0.132420
  18 0.000001 4.132123 -1.927666 -0.000000 -0.000000 -0.000000
  19 -8.092658 5.945974 0.000002 0.295782 0.151200 -0.015648
  20 -0.000001 15.122834 -0.000000 -1.206890 0.000000 -0.000000
  21 0.000001 10.272258 -0.000001 2.372794 -0.015410 -0.018112
  22 -0.000001 4.132123 -1.927666 -0.000000 -0.000000 -0.000000
  23 0.000001 11.126797 -0.000000 0.163454 0.002049 -0.069942
  24 5.835800 2.795460 0.869678 -0.322019 -0.571353 -1.305686
  25 0.000005 5.475369 -0.000001 -1.031404 -0.336933 -0.945891
  26 -0.000000 11.557743 0.000004 -0.003691 -0.001390 0.000066
  27 0.000000 7.947075 0.000001 0.225520 1.105537 0.825121
  28 -0.000000 6.243677 0.000001 0.179168 -0.056937 -0.208796
  29 -0.000000 2.631208 -0.000000 0.356251 0.013869 0.336367
  30 -5.835800 2.795463 0.869676 -0.332019 0.230899 1.724807
  31 -0.000000 5.475368 0.000000 -0.696820 -0.063402 0.626440
  32 -0.000005 11.557740 0.000001 -1.452073 -0.014445 -0.017835
  33 0.000001 7.947078 0.000003 0.791845 -0.569571 0.197206
  34 -24.476721 30.845154 3.932457 1.570796 0.000000 1.570796
  35 -5.546717 13.480309 -20.444239 -1.570796 0.000000 0.000000
  36 -9.159437 3.309849 3.031497 -1.565812 -0.128269 -0.000000
  37 -9.399016 38.604839 -13.511456 1.653361 2.354105 -0.534587
  time 3
  0 16.883438 -5.326898 -1.867077 -0.314934 0.165563 -0.762669
  1 -0.000003 7.632660 5.380287 1.644840 -0.000000 0.000000
  2 -0.000000 4.955767 0.000000 -0.005713 -0.000000 -0.000000
  3 -0.000000 16.156610 -0.000001 -0.000000 -0.000000 0.000000
  4 2.361290 5.150877 2.361290 -0.174091 0.786638 0.000223
  5 -2.361298 5.150873 2.361289 -0.174326 -0.785981 0.000108
  6 2.361292 5.150877 -2.361295 -0.174150 2.355119 0.000140
  7 -2.361294 5.150870 -2.361297 -0.174384 -2.355777 0.000191
  8 0.208517 0.000000 -23.612854 1.570796 -0.000000 -1.570796
  9 29.361929 21.347399 10.903312 1.570796 0.000000 -1.570796
  10 9.564596 13.480309 -23.244701 -1.570796 0.000000 0.000000
  11 9.830676 3.215760 0.000003 -1.570796 -0.045191 -0.000000
  12 9.562414 26.705647 -8.219039 -0.565930 0.504194 -2.664090
  13 -1.391056 27.449331 4.086882 -0.204919 -0.033503 -0.047215
  14 0.000000 2.089000 -0.000001 3.134306 0.023157 0.053058
  15 8.092660 5.945978 -0.000003 0.909398 0.075507 -0.121834
  16 0.000000 15.122830 0.000005 -1.181250 0.000001 0.000001
  17 0.000002 10.272247 -0.000001 2.044761 -0.064759 0.118390
  18 0.000001 4.132119 -1.927666 0.000000 -0.000000 -0.000000
  19 -8.092660 5.945975 0.000003 0.755957 0.251263 0.050090
  20 -0.000000 15.122830 0.000004 -1.327069 0.000000 -0.000000
  21 0.000002 10.272250 -0.000001 2.365439 -0.036733 -0.095529
  22 -0.000001 4.132120 -1.927663 0.000000 -0.000000 -0.000000
  23 0.000001 11.126796 -0.000001 -0.319144 -0.013389 -0.124097
  24 5.835802 2.795460 0.869677 -0.341666 -0.635605 -1.225146
  25 -0.000000 5.475370 0.000003 -1.056595 0.282285 -0.891229
  26 0.000002 11.557743 0.000000 -1.384833 0.013256 0.017658
  27 0.000001 7.947077 -0.000001 1.041829 -0.065697 1.158608
  28 0.000001 6.243679 0.000001 0.296448 -0.048072 -0.283566
  29 0.000001 2.631205 -0.000000 0.513700 0.004845 0.339363
  30 -5.835800 2.795460 0.869674 -0.172066 0.259852 1.894414
  31 -0.000001 5.475368 -0.000001 -0.706054 -0.117375 0.589352
  32 0.000000 11.557741 0.000005 -1.913141 -0.022604 -0.016922
  33 -0.000001 7.947079 0.000004 1.889315 -0.671819 -0.710301
  34 -24.476719 30.845154 7.462472 1.570796 0.000000 1.570796
  35 -2.676049 13.480309 -20.444239 -1.570796 0.000000 0.000000
  36 -9.159436 3.458090 4.531051 -1.578269 -0.162062 0.046883
  37 -11.587570 32.729553 -7.732659 -0.171169 0.246918 -2.841033
  time 4
  0 17.560738 -4.238075 -2.892883 -0.602075 0.344849 -0.944980
  1 -0.000001 7.632663 5.380288 1.644841 -0.000000 0.000000
  2 -0.000001 4.955764 0.000000 -0.005714 0.000000 0.000000
  3 0.000002 16.156612 0.000000 0.000000 -0.000000 0.000000
  4 2.361286 5.150872 2.361288 -0.174091 0.786638 0.000223
  5 -2.361294 5.150873 2.361287 -0.174326 -0.785980 0.000109
  6 2.361287 5.150872 -2.361296 -0.174150 2.355119 0.000140
  7 -2.361290 5.150873 -2.361297 -0.174385 -2.355777 0.000191
  8 0.208517 0.000000 -23.612854 1.570796 -0.000000 -1.570796
  9 28.034727 17.136642 10.255034 1.570796 0.000000 -1.570796
  10 12.625230 13.480310 -24.316488 -1.570796 0.000000 0.000000
  11 9.830676 3.215760 0.000003 -1.570796 -0.060255 -0.000000
  12 7.332577 28.373753 -10.578334 -0.195287 0.412714 -2.449261
  13 -1.391055 26.927340 2.759953 -0.479496 -0.045048 -0.036366
  14 -0.000000 2.088998 -0.000001 3.128619 0.023157 0.053058
  15 8.092659 5.945976 -0.000002 1.198571 0.193163 -0.021503
  16 -0.000001 15.122833 -0.000002 -1.210848 0.000000 0.000001
  17 -0.000002 10.272251 -0.000001 2.068135 -0.140481 0.048788
  18 0.000000 4.132122 -1.927666 -0.000000 -0.000000 -0.000000
  19 -8.092659 5.945973 -0.000000 0.810284 0.345710 0.089935
  20 0.000000 15.122833 -0.000000 -1.340007 -0.000000 -0.000000
  21 -0.000001 10.272253 -0.000001 2.598323 0.044515 -0.121212
  22 -0.000001 4.132120 -1.927667 -0.000000 0.000000 -0.000000
  23 -0.000000 11.126794 -0.000000 -0.026329 0.028267 -0.161013
  24 5.835800 2.795460 0.869676 -0.262806 -0.644361 -1.248332
  25 -0.000002 5.475368 0.000003 -1.142676 0.088861 -0.939208
  26 0.000001 11.557736 -0.000004 -1.817495 0.020965 0.017423
  27 -0.000000 7.947074 0.000002 1.465810 -0.756409 0.963306
  28 -0.000000 6.243678 0.000000 0.296448 -0.048072 -0.283566
  29 -0.000001 2.631208 -0.000000 0.334776 0.077790 0.295216
  30 -5.835800 2.795461 0.869676 -0.235254 0.252430 1.857386
  31 -0.000005 5.475368 -0.000001 0.052097 -0.143991 0.791157
  32 -0.000000 11.557741 0.000003 -2.093307 -0.025539 -0.015568
  33 0.000001 7.947082 0.000000 2.524093 -0.956263 -0.958967
  34 -24.476721 30.845154 9.067029 1.570796 0.000000 1.570796
  35 0.920738 10.039758 -20.444239 -1.570796 0.000000 0.000000
  36 -9.159439 3.902815 9.029711 -1.626343 -0.260279 0.193642
  37 -15.422411 30.417076 -6.227776 0.527536 -0.260272 -2.671190
  time 5
  0 20.216852 -3.137892 -6.955448 -0.439720 0.311369 -0.783220
  1 -0.000001 7.632661 5.380288 1.644840 -0.000000 0.000000
  2 0.000000 4.955765 0.000001 -0.005713 -0.000000 -0.000000
  3 0.000001 16.156612 0.000000 0.000000 -0.000000 0.000000
  4 2.361295 5.150874 2.361293 -0.174091 0.786638 0.000223
  5 -2.361287 5.150875 2.361293 -0.174326 -0.785981 0.000109
  6 2.361288 5.150865 -2.361296 -0.174150 2.355119 0.000140
  7 -2.361289 5.150874 -2.361292 -0.174384 -2.355777 0.000191
  8 0.208517 0.000000 -23.612854 1.570796 -0.000000 -1.570796
  9 26.707523 12.925886 9.861817 1.570796 0.000000 -1.570796
  10 17.671124 13.480310 -24.765940 -1.570796 0.000000 0.000000
  11 9.830676 3.215760 0.000003 -1.570796 -0.075317 -0.000000
  12 12.765408 26.640085 -13.341747 -1.252293 -0.644183 -2.334479
  13 -1.391055 26.405344 1.433023 -0.754314 -0.053220 -0.022783
  14 0.000000 2.088998 -0.000000 3.124597 0.023157 0.053058
  15 8.092659 5.945970 -0.000006 1.495474 0.289525 0.185996
  16 -0.000001 15.122825 -0.000000 -1.207268 0.000000 0.000001
  17 0.000002 10.272249 0.000001 2.087950 -0.262116 -0.063907
  18 0.000001 4.132121 -1.927664 0.000000 -0.000000 -0.000000
  19 -8.092659 5.945971 -0.000001 0.589946 0.401421 0.074723
  20 0.000002 15.122827 -0.000002 -0.949572 0.000000 -0.000000
  21 0.000002 10.272251 0.000001 2.666430 0.217444 -0.003415
  22 -0.000001 4.132122 -1.927663 0.101573 -0.011234 -0.003340
  23 0.000000 11.126798 0.000003 0.267199 0.065708 -0.157442
  24 5.835800 2.795461 0.869678 -0.145263 -0.650198 -1.288033
  25 0.000003 5.475371 -0.000004 -0.943631 0.303723 -1.149789
  26 0.000001 11.557741 0.000003 -1.900406 0.022392 0.017000
  27 0.000001 7.947075 0.000000 0.832004 -0.174004 -0.466410
  28 0.000000 6.243679 0.000000 0.296448 -0.048072 -0.283566
  29 0.000001 2.631206 -0.000000 0.265536 0.154797 0.160940
  30 -5.835800 2.795463 0.869675 -0.385700 0.225395 1.770909
  31 -0.000002 5.475368 -0.000002 0.976845 0.349379 1.248571
  32 -0.000004 11.557743 0.000000 -2.249663 -0.027853 -0.013981
  33 0.000000 7.947083 -0.000000 -0.549477 -1.773897 1.697015
  34 -25.572405 27.383453 7.462471 1.570796 0.000000 1.570796
  35 4.726390 1.835340 -20.444237 -1.570796 0.000000 0.000000
  36 -9.159440 4.644023 16.527475 -1.742583 -0.404221 0.459618
  37 -15.060308 31.173683 -3.527635 0.889990 -0.709734 -2.530443
  time 6
  0 23.418810 -0.510340 -11.892427 -0.212323 0.212265 -0.465900
  1 -0.000001 7.632662 5.380287 1.644840 -0.000000 0.000000
  2 0.000001 4.955765 -0.000000 -0.005713 0.000000 0.000000
  3 0.000000 16.156612 0.000001 0.000000 -0.000000 -0.000000
  4 2.361288 5.150880 2.361295 -0.174091 0.786638 0.000223
  5 -2.361290 5.150873 2.361292 -0.174326 -0.785981 0.000108
  6 2.361290 5.150875 -2.361296 -0.174150 2.355119 0.000140
  7 -2.361291 5.150872 -2.361296 -0.174384 -2.355778 0.000191
  8 0.208517 0.000000 -23.612854 1.570796 -0.000000 -1.570796
  9 25.549749 9.252677 9.659897 1.570796 0.000000 -1.570796
  10 25.911238 4.245970 -23.645493 -1.570796 0.000000 0.000000
  11 12.636495 3.853073 4.306594 -1.831835 0.058570 1.209969
  12 14.403826 23.735998 -16.798502 -1.668257 -0.262448 -1.974962
  13 -1.391055 21.003853 1.433023 -1.051851 -0.057556 -0.006189
  14 -0.000000 2.088998 -0.000001 3.088099 0.035273 0.091291
  15 8.092660 5.945970 -0.000005 1.922487 0.480050 0.306731
  16 0.000002 15.122831 0.000000 -1.763483 0.000000 0.000001
  17 0.000000 10.272248 -0.000002 2.315072 0.559811 -0.849467
  18 0.000002 4.132119 -1.927664 -0.059142 -0.070207 0.041360
  19 -8.092657 5.945972 -0.000001 0.649453 0.434330 0.132983
  20 0.000001 15.122829 0.000000 -1.095148 -0.000000 -0.000001
  21 -0.000001 10.272246 -0.000000 2.725359 0.189882 0.320327
  22 -0.000001 4.132121 -1.927664 0.328749 -0.034736 -0.014792
  23 0.000000 11.126795 0.000001 0.236299 0.055301 -0.158347
  24 5.835800 2.795463 0.869676 -0.021677 -0.650586 -1.331654
  25 -0.000000 5.475371 -0.000001 -1.641128 0.624996 -1.486462
  26 0.000004 11.557741 0.000001 -2.130169 0.026111 0.015229
  27 0.000000 7.947077 0.000000 0.784410 -0.150335 -0.565722
  28 -0.000001 6.243679 -0.000000 0.296448 -0.048072 -0.283566
  29 0.000000 2.631206 0.000000 0.280324 0.231709 -0.013241
  30 -5.835800 2.795462 0.869675 -0.561264 0.176926 1.674599
  31 -0.000002 5.475367 0.000001 -0.979264 2.173536 0.313860
  32 0.000003 11.557742 -0.000005 -1.679693 -0.018527 -0.017858
  33 -0.000002 7.947083 0.000000 -0.696772 -1.121242 0.266861
  34 -27.982893 19.767736 3.932456 1.570796 0.000000 1.570796
  35 8.161758 -7.957038 -20.444235 -1.570796 0.000000 0.000000
  36 -9.206329 5.919625 22.488508 -2.166991 -0.560556 0.592333
  37 -12.260336 29.052757 0.519333 0.658368 -1.048223 -1.942073
  time 7
  0 26.112797 8.838213 -16.060051 -0.051502 0.070655 -0.186197
  1 0.000000 7.632662 5.380288 1.644840 -0.000000 0.000000
  2 -0.000000 4.955765 0.000001 -0.005714 -0.000000 0.000000
  3 -0.000001 16.156612 -0.000001 0.000000 -0.000000 0.000000
  4 2.361285 5.150873 2.361295 -0.174091 0.786638 0.000223
  5 -2.361292 5.150874 2.361289 -0.174326 -0.785981 0.000108
  6 2.361287 5.150878 -2.361292 -0.174150 2.355119 0.000140
  7 -2.361291 5.150875 -2.361294 -0.174384 -2.355777 0.000191
  8 0.208517 0.000000 -23.612854 1.570796 -0.000000 -1.570796
  9 24.730839 6.654557 9.585504 1.570796 0.000000 -1.570796
  10 31.049362 -12.903474 -21.564672 -1.570796 0.000000 0.000000
  11 13.558856 5.255159 13.781059 -2.262537 0.451916 1.470683
  12 17.155121 16.681170 -17.292322 -1.655769 0.072516 -1.758079
  13 -1.391056 15.602365 1.433023 -1.356282 -0.056767 0.011338
  14 0.000000 2.088998 -0.000001 3.098603 0.040172 0.165772
  15 8.092661 5.945974 -0.000004 1.440444 0.651339 0.107146
  16 0.000000 15.122829 0.000001 -1.931074 0.000001 0.000001
  17 0.000005 10.272253 -0.000000 2.442000 0.922114 -0.391662
  18 0.000002 4.132121 -1.927666 -0.178694 -0.193810 0.130563
  19 -8.092659 5.945973 -0.000001 0.628151 0.452341 0.237047
  20 -0.000000 15.122828 -0.000002 -1.038027 0.000000 -0.000000
  21 0.000001 10.272251 0.000003 2.364418 0.186632 0.529621
  22 0.000001 4.132122 -1.927665 0.556401 -0.055051 -0.031260
  23 0.000001 11.126795 0.000000 0.150234 0.030402 -0.159672
  24 5.835800 2.795463 0.869678 0.075010 -0.647196 -1.366143
  25 0.000001 5.475369 -0.000000 1.014383 2.401442 1.098151
  26 0.000003 11.557735 -0.000002 -2.150250 0.026408 0.015031
  27 0.000000 7.947079 0.000006 0.523434 -0.304747 -0.318596
  28 0.000000 6.243678 -0.000002 0.296448 -0.048072 -0.283566
  29 0.000000 2.631206 -0.000001 0.333642 0.308722 -0.179183
  30 -5.835799 2.795462 0.869674 -0.702060 0.124741 1.602593
  31 -0.000000 5.475366 -0.000003 -2.124825 2.015209 -0.275971
  32 0.000002 11.557739 0.000000 -0.167183 0.001139 -0.002989
  33 0.000001 7.947074 0.000000 -1.389933 -0.058272 0.589772
  34 -30.393387 12.152024 0.402441 1.570796 0.000000 1.570796
  35 10.647684 -16.161461 -20.444235 -1.570796 0.000000 0.000000
  36 -9.293401 7.141971 26.869434 -2.869891 -0.596759 0.829515
  37 -12.137538 22.183569 4.131548 0.068411 -0.889695 -1.107318
  time 8
  0 27.244984 9.263168 -17.814552 0.003114 -0.002052 -0.072464
  1 -0.000001 7.632663 5.380287 1.644840 -0.000000 0.000000
  2 -0.000001 4.955764 0.000000 -0.005713 0.000000 -0.000000
  3 -0.000001 16.156614 -0.000001 -0.000000 -0.000000 0.000000
  4 2.361284 5.150881 2.361293 -0.174091 0.786638 0.000223
  5 -2.361299 5.150879 2.361294 -0.174326 -0.785980 0.000108
  6 2.361285 5.150880 -2.361288 -0.174150 2.355119 0.000140
  7 -2.361295 5.150878 -2.361294 -0.174384 -2.355777 0.000191
  8 0.208517 0.000000 -23.612854 1.570796 -0.000000 -1.570796
  9 24.420218 5.669067 9.574875 1.570796 0.000000 -1.570796
  10 7.331161 -22.137798 -20.444242 -1.570796 0.000000 0.000000
  11 12.294238 6.657245 23.255522 2.964221 0.472537 0.635573
  12 18.484354 8.516644 -16.496111 -1.650028 -0.098683 -1.716867
  13 -1.391056 10.200874 1.433022 -1.653769 -0.050959 0.027473
  14 -0.000000 2.088998 -0.000002 -3.013890 0.010307 0.205106
  15 8.092662 5.945974 -0.000001 0.638375 0.149696 -0.067684
  16 -0.000002 15.122839 -0.000001 -1.348982 0.000000 0.000001
  17 0.000000 10.272246 -0.000001 1.869161 0.519570 0.021711
  18 0.000002 4.132121 -1.927666 -0.248608 -0.255269 0.185426
  19 -8.092660 5.945974 0.000002 0.468284 0.540279 0.227192
  20 -0.000000 15.122833 -0.000001 -1.028552 0.000000 -0.000001
  21 -0.000001 10.272250 0.000000 2.212723 0.030403 0.599463
  22 -0.000001 4.132119 -1.927663 0.658473 -0.062825 -0.040047
  23 -0.000001 11.126797 -0.000001 0.018932 0.000664 -0.159108
  24 5.835800 2.795464 0.869679 0.113866 -0.644919 -1.379989
  25 0.000001 5.475369 -0.000001 0.683641 2.433192 0.599328
  26 0.000005 11.557732 0.000007 -2.204776 0.027218 0.014475
  27 -0.000002 7.947076 0.000005 0.376369 -0.083548 -0.209367
  28 -0.000001 6.243680 0.000000 0.296448 -0.048072 -0.283566
  29 -0.000001 2.631207 0.000001 0.315806 0.363767 -0.313182
  30 -5.835801 2.795461 0.869677 -0.758944 0.100314 1.575190
  31 0.000003 5.475370 -0.000001 -0.062943 0.893067 1.812379
  32 0.000000 11.557742 0.000002 -0.003709 0.001390 -0.000067
  33 -0.000000 7.947081 0.000000 -1.169279 0.417530 0.403694
  34 -31.489067 8.690322 -1.202116 1.570796 0.000000 1.570796
  35 11.605024 -19.602009 -20.444235 -1.570796 0.000000 0.000000
  36 -9.340285 7.687900 28.573473 3.081411 -0.557944 0.927541
  37 -9.058868 13.526854 8.287000 -0.006367 -0.629570 -0.944343
  time 9
  0 27.244984 9.263168 -17.814552 0.003114 -0.002052 -0.072464
  1 -0.000001 7.632663 5.380287 1.644840 -0.000000 0.000000
  2 -0.000001 4.955764 0.000000 -0.005713 0.000000 -0.000000
  3 -0.000001 16.156614 -0.000001 -0.000000 -0.000000 0.000000
  4 2.361284 5.150881 2.361293 -0.174091 0.786638 0.000223
  5 -2.361299 5.150879 2.361294 -0.174326 -0.785980 0.000108
  6 2.361285 5.150880 -2.361288 -0.174150 2.355119 0.000140
  7 -2.361295 5.150878 -2.361294 -0.174384 -2.355777 0.000191
  8 0.208517 0.000000 -23.612854 1.570796 -0.000000 -1.570796
  9 24.420218 5.669067 9.574875 1.570796 0.000000 -1.570796
  10 7.331161 -22.137798 -20.444242 -1.570796 0.000000 0.000000
  11 9.830667 7.294559 27.562117 2.506603 0.045336 0.236976
  12 18.700708 4.502862 -10.922661 -1.483884 -0.357279 -1.702512
  13 -1.391056 10.200874 1.433022 -1.653769 -0.050959 0.027473
  14 -0.000000 2.088998 -0.000002 -3.013890 0.010307 0.205106
  15 8.092662 5.945974 -0.000001 0.353304 0.060434 0.062658
  16 -0.000000 15.122838 -0.000000 -0.726526 -0.000000 0.000000
  17 -0.000001 10.272248 0.000000 1.257394 0.156179 0.096673
  18 0.000002 4.132119 -1.927662 -0.248608 -0.255269 0.185426
  19 -8.092660 5.945974 0.000002 0.468284 0.540279 0.227192
  20 -0.000000 15.122833 -0.000001 -1.028552 0.000000 -0.000001
  21 -0.000001 10.272250 0.000000 2.212723 0.030403 0.599463
  22 -0.000001 4.132119 -1.927663 0.658473 -0.062825 -0.040047
  23 -0.000001 11.126797 -0.000001 -0.147022 -0.023841 -0.156287
  24 5.835799 2.795462 0.869679 -0.070414 -0.709522 -1.307026
  25 0.000000 5.475368 -0.000001 1.218506 2.440666 0.765100
  26 -0.000000 11.557735 0.000008 -2.210312 0.027296 0.014415
  27 -0.000000 7.947079 0.000003 0.091570 -0.442583 -0.137672
  28 -0.000000 6.243680 0.000000 0.296448 -0.048072 -0.283566
  29 -0.000001 2.631207 0.000000 -0.371886 0.243592 -0.472872
  30 -5.835801 2.795464 0.869676 -0.758944 0.100314 1.575190
  31 0.000001 5.475368 -0.000001 -0.728118 0.340836 1.070660
  32 -0.000006 11.557749 -0.000006 -0.003727 0.001390 -0.000066
  33 -0.000003 7.947081 0.000000 -1.014175 0.059232 1.101488
  34 -31.489067 8.690322 -1.202116 1.570796 0.000000 1.570796
  35 11.605024 -19.602009 -20.444235 -1.570796 0.000000 0.000000
  36 -9.340285 7.687900 28.573473 3.081411 -0.557944 0.927541
  37 -6.009017 -1.849427 11.556827 0.171628 -0.817521 -1.474038
end
