version 1
nodes
0 "drill" -1
1 "drill_lever" 0
2 "drill_lever anim_help" 1
3 "drill_spin" 0
4 "drill_claw2" 3
5 "drill_claw1" 3
6 "drill_claw3" 3
7 "drill_claw4" 3
8 "base" -1
9 "ik arm.R" 8
10 "ik leg R" 8
11 "t leg.R" 8
12 "t hand.R" 8
13 "spine low" 8
14 "hip" 13
15 "leg up.R" 14
16 "leg low.R" 15
17 "foot.R" 16
18 "tow.R" 17
19 "leg up.L" 14
20 "leg low.L" 19
21 "foot.L" 20
22 "tow.L" 21
23 "spine up" 13
24 "shoulder.R" 23
25 "arm up.R" 24
26 "arm low.R" 25
27 "hand.R" 26
28 "neck" 23
29 "head" 28
30 "shoulder.L" 23
31 "arm up.L" 30
32 "arm low.L" 31
33 "hand.L" 32
34 "ik arm.L" 8
35 "ik leg L" 8
36 "t leg.L" 8
37 "t hand.L" 8
end
skeleton
  time 0
  0 18.854879 -5.063185 -3.037416 -0.624541 -0.427665 -0.127558
  1 -0.000004 7.632663 5.380287 1.644840 -0.000000 0.000000
  2 0.000000 4.955765 -0.000000 -0.005713 -0.000000 0.000000
  3 -0.000001 16.156614 0.000000 0.000000 -0.000000 -0.000000
  4 2.361287 5.150876 2.361295 -0.174091 0.786638 0.000223
  5 -2.361288 5.150877 2.361290 -0.174326 -0.785980 0.000108
  6 2.361294 5.150878 -2.361291 -0.174150 2.355119 0.000140
  7 -2.361292 5.150880 -2.361299 -0.174384 -2.355778 0.000191
  8 0.208517 0.000000 -23.612854 1.570796 -0.000000 -1.570796
  9 18.926842 39.143330 11.606188 1.570796 0.000000 -1.570796
  10 11.672379 13.480309 -20.444241 -1.570796 0.000000 0.000000
  11 13.144347 3.215752 2.379977 -1.570796 0.000000 0.000000
  12 14.427054 28.946560 -11.062669 -1.191140 -0.443770 -2.657618
  13 0.000002 31.237896 0.000000 -0.325526 -0.026561 -0.014309
  14 0.000000 2.088998 0.000000 -2.806855 -0.226445 -0.062836
  15 8.092658 5.945968 -0.000003 0.217829 -0.220761 -0.222750
  16 0.000001 15.122826 0.000000 -0.496136 0.000000 0.000000
  17 -0.000001 10.272245 -0.000002 1.892426 -0.102514 0.194983
  18 0.000002 4.132120 -1.927664 -0.000000 -0.000000 -0.000000
  19 -8.092659 5.945969 0.000001 0.282208 -0.560919 0.135939
  20 0.000000 15.122826 -0.000001 -0.673630 0.000000 -0.000000
  21 -0.000001 10.272245 -0.000001 1.891302 0.153459 -0.070354
  22 0.000001 4.132120 -1.927664 0.000000 0.000000 -0.000000
  23 0.000001 11.126797 0.000000 -0.190307 -0.194353 -0.101738
  24 5.835800 2.795461 0.869677 0.000000 -0.157211 -1.570796
  25 -0.000001 5.475371 0.000002 -1.003249 -0.155351 -0.834969
  26 -0.000000 11.557743 0.000002 -0.755120 0.003494 0.012314
  27 -0.000003 7.947080 0.000004 -0.115444 -0.094582 -0.060603
  28 -0.000000 6.243678 -0.000000 -0.157211 0.000000 0.000000
  29 0.000000 2.631207 0.000001 -0.000000 -0.000000 -0.000000
  30 -5.807681 2.400324 0.556053 -0.620257 -0.081649 1.781947
  31 0.000005 5.475368 -0.000001 -0.145765 -0.258920 1.027508
  32 0.000002 11.557739 0.000004 -0.930616 -0.005843 -0.014406
  33 -0.000001 7.947080 -0.000000 -0.232525 -0.172080 -0.157228
  34 -23.983181 38.666245 10.152540 1.570796 0.000000 1.570796
  35 -14.993516 13.480309 -20.444244 -1.570796 0.000000 0.000000
  36 -11.002478 3.493808 -3.875064 -1.570796 0.180411 0.000000
  37 -9.027810 26.005445 -15.167624 -1.219313 0.382817 2.925254
  time 1
  0 18.854879 -5.063185 -2.957514 -0.625656 -0.427767 -0.127038
  1 -0.000003 7.632665 5.380287 1.644840 -0.000000 0.000000
  2 0.000002 4.955765 0.000001 -0.005713 -0.000000 0.000000
  3 0.000000 16.156614 -0.000001 -0.000000 -0.000000 -0.000000
  4 2.361280 5.150876 2.361298 -0.174091 0.786638 0.000223
  5 -2.361291 5.150875 2.361291 -0.174326 -0.785980 0.000109
  6 2.361291 5.150877 -2.361293 -0.174150 2.355119 0.000140
  7 -2.361294 5.150875 -2.361293 -0.174385 -2.355777 0.000191
  8 0.208517 0.000000 -23.612854 1.570796 -0.000000 -1.570796
  9 18.926842 39.143330 11.606188 1.570796 0.000000 -1.570796
  10 11.672379 13.480309 -20.444241 -1.570796 0.000000 0.000000
  11 13.144347 3.215752 2.379977 -1.570796 0.000000 0.000000
  12 14.418947 29.036211 -11.063431 -1.191143 -0.443834 -2.656597
  13 0.000002 31.273823 0.000000 -0.323691 -0.026545 -0.014416
  14 0.000000 2.088996 -0.000001 -2.808728 -0.226609 -0.062319
  15 8.092658 5.945970 -0.000003 0.213097 -0.220934 -0.222411
  16 0.000000 15.122829 0.000000 -0.483971 0.000000 0.000000
  17 0.000000 10.272245 -0.000002 1.885073 -0.100807 0.195457
  18 0.000002 4.132119 -1.927664 -0.000000 -0.000000 -0.000000
  19 -8.092660 5.945971 0.000001 0.278735 -0.560811 0.135684
  20 -0.000000 15.122830 0.000000 -0.664419 0.000000 -0.000000
  21 -0.000000 10.272247 0.000000 1.885660 0.152882 -0.071056
  22 0.000001 4.132120 -1.927664 0.000000 0.000000 -0.000000
  23 0.000000 11.126795 -0.000001 -0.188806 -0.196402 -0.103802
  24 5.835801 2.795464 0.869680 0.000000 -0.157210 -1.570796
  25 -0.000007 5.475370 -0.000001 -1.003180 -0.156099 -0.830724
  26 0.000005 11.557744 -0.000000 -0.762163 0.003581 0.012407
  27 0.000000 7.947079 -0.000003 -0.106832 -0.093086 -0.062622
  28 0.000001 6.243680 0.000001 -0.157211 0.000000 -0.000000
  29 0.000000 2.631204 -0.000002 -0.000000 -0.000000 0.000000
  30 -5.807682 2.400321 0.556052 -0.620257 -0.081649 1.781947
  31 -0.000001 5.475368 -0.000001 -0.143183 -0.260911 1.030005
  32 -0.000002 11.557740 0.000003 -0.930235 -0.005838 -0.014402
  33 -0.000001 7.947082 -0.000000 -0.234087 -0.173455 -0.155827
  34 -23.983181 38.666245 10.152540 1.570796 0.000000 1.570796
  35 -14.993516 13.480309 -20.444244 -1.570796 0.000000 0.000000
  36 -11.002478 3.493808 -3.875064 -1.570796 0.180411 0.000000
  37 -9.033143 26.071075 -15.166969 -1.219272 0.382766 2.926289
  time 2
  0 18.854879 -5.063185 -2.903954 -0.626405 -0.427846 -0.126711
  1 -0.000004 7.632663 5.380285 1.644840 -0.000000 0.000000
  2 0.000000 4.955766 0.000001 -0.005713 -0.000000 0.000000
  3 -0.000002 16.156612 -0.000002 0.000000 -0.000000 0.000000
  4 2.361284 5.150876 2.361294 -0.174091 0.786638 0.000223
  5 -2.361293 5.150875 2.361292 -0.174326 -0.785981 0.000108
  6 2.361295 5.150879 -2.361294 -0.174150 2.355119 0.000140
  7 -2.361291 5.150871 -2.361295 -0.174384 -2.355778 0.000191
  8 0.208517 0.000000 -23.612854 1.570796 -0.000000 -1.570796
  9 18.926842 39.143330 11.606188 1.570796 0.000000 -1.570796
  10 11.672379 13.480309 -20.444241 -1.570796 0.000000 0.000000
  11 13.144347 3.215752 2.379977 -1.570796 0.000000 0.000000
  12 14.413313 29.096247 -11.063645 -1.191144 -0.443851 -2.655910
  13 0.000002 31.352861 0.000000 -0.319656 -0.026485 -0.014516
  14 0.000000 2.089000 0.000001 -2.812853 -0.226946 -0.061315
  15 8.092659 5.945971 -0.000002 0.202169 -0.221308 -0.221679
  16 0.000000 15.122832 0.000001 -0.455941 -0.000000 0.000000
  17 -0.000000 10.272248 0.000000 1.868165 -0.096909 0.196534
  18 0.000002 4.132121 -1.927666 -0.000000 -0.000000 -0.000000
  19 -8.092661 5.945971 0.000000 0.270839 -0.560571 0.135113
  20 0.000002 15.122829 -0.000001 -0.643529 0.000000 -0.000000
  21 -0.000002 10.272246 0.000001 1.872883 0.151570 -0.072633
  22 0.000001 4.132120 -1.927664 0.000000 0.000000 -0.000000
  23 0.000001 11.126795 0.000000 -0.185599 -0.197667 -0.105410
  24 5.835800 2.795465 0.869680 0.000000 -0.157210 -1.570796
  25 0.000006 5.475370 -0.000000 -1.007350 -0.159530 -0.828439
  26 -0.000001 11.557741 0.000001 -0.746664 0.003390 0.012203
  27 -0.000003 7.947079 0.000002 -0.112876 -0.093405 -0.062491
  28 -0.000000 6.243678 0.000001 -0.157211 0.000000 0.000000
  29 -0.000000 2.631208 0.000001 0.000000 -0.000000 0.000000
  30 -5.807681 2.400319 0.556051 -0.620257 -0.081649 1.781947
  31 0.000002 5.475369 -0.000000 -0.146781 -0.260869 1.034092
  32 -0.000004 11.557742 0.000003 -0.907167 -0.005508 -0.014151
  33 -0.000000 7.947079 0.000001 -0.249217 -0.176415 -0.152691
  34 -23.983181 38.666245 10.152540 1.570796 0.000000 1.570796
  35 -14.993516 13.480309 -20.444244 -1.570796 0.000000 0.000000
  36 -11.002478 3.493808 -3.875064 -1.570796 0.180411 0.000000
  37 -9.036798 26.114988 -15.166779 -1.219260 0.382753 2.926980
  time 3
  0 18.854879 -5.063185 -2.871466 -0.626861 -0.427905 -0.126534
  1 -0.000003 7.632662 5.380287 1.644840 -0.000000 0.000000
  2 -0.000000 4.955763 0.000001 -0.005713 -0.000000 -0.000000
  3 -0.000001 16.156610 -0.000001 0.000000 -0.000000 -0.000000
  4 2.361284 5.150876 2.361295 -0.174091 0.786638 0.000223
  5 -2.361291 5.150875 2.361291 -0.174326 -0.785981 0.000108
  6 2.361295 5.150874 -2.361291 -0.174150 2.355119 0.000140
  7 -2.361292 5.150875 -2.361298 -0.174385 -2.355777 0.000191
  8 0.208517 0.000000 -23.612854 1.570796 -0.000000 -1.570796
  9 18.926842 39.143330 11.606188 1.570796 0.000000 -1.570796
  10 11.672379 13.480309 -20.444241 -1.570796 0.000000 0.000000
  11 13.144347 3.215752 2.379977 -1.570796 0.000000 0.000000
  12 14.409713 29.132610 -11.063494 -1.191143 -0.443839 -2.655491
  13 0.000002 31.431902 0.000000 -0.315621 -0.026422 -0.014590
  14 0.000000 2.088996 -0.000001 -2.816979 -0.227275 -0.060335
  15 8.092660 5.945972 -0.000004 0.190601 -0.221677 -0.220955
  16 -0.000002 15.122829 -0.000001 -0.426355 -0.000000 0.000000
  17 0.000001 10.272250 0.000000 1.850363 -0.092830 0.197624
  18 0.000002 4.132121 -1.927664 -0.000000 -0.000000 -0.000000
  19 -8.092660 5.945973 0.000001 0.262795 -0.560330 0.134544
  20 0.000003 15.122833 -0.000000 -0.622300 -0.000000 -0.000000
  21 -0.000002 10.272248 0.000002 1.859918 0.150229 -0.074218
  22 0.000001 4.132120 -1.927664 0.000000 0.000000 -0.000000
  23 0.000001 11.126797 0.000000 -0.181569 -0.198330 -0.106598
  24 5.835800 2.795465 0.869680 0.000000 -0.157210 -1.570796
  25 -0.000004 5.475369 -0.000001 -1.012025 -0.163738 -0.827320
  26 -0.000004 11.557753 0.000010 -0.725047 0.003129 0.011914
  27 -0.000001 7.947081 0.000003 -0.123608 -0.094257 -0.061532
  28 0.000000 6.243682 0.000002 -0.157211 0.000000 -0.000000
  29 -0.000000 2.631205 -0.000001 0.000000 -0.000000 0.000000
  30 -5.807682 2.400321 0.556051 -0.620257 -0.081649 1.781947
  31 0.000007 5.475367 0.000001 -0.152023 -0.259878 1.038320
  32 -0.000002 11.557739 0.000000 -0.878586 -0.005108 -0.013829
  33 -0.000002 7.947080 0.000001 -0.267411 -0.179429 -0.149330
  34 -23.983181 38.666245 10.152540 1.570796 0.000000 1.570796
  35 -14.993516 13.480309 -20.444244 -1.570796 0.000000 0.000000
  36 -11.002478 3.493808 -3.875064 -1.570796 0.180411 0.000000
  37 -9.039098 26.141550 -15.166910 -1.219268 0.382762 2.927395
  time 4
  0 18.854879 -5.063185 -2.854782 -0.627097 -0.427944 -0.126461
  1 -0.000003 7.632663 5.380288 1.644841 -0.000000 0.000000
  2 0.000000 4.955765 0.000000 -0.005714 0.000000 -0.000000
  3 -0.000002 16.156612 0.000001 0.000000 -0.000000 -0.000000
  4 2.361283 5.150874 2.361295 -0.174091 0.786638 0.000223
  5 -2.361295 5.150874 2.361291 -0.174326 -0.785981 0.000108
  6 2.361293 5.150881 -2.361294 -0.174150 2.355119 0.000140
  7 -2.361290 5.150876 -2.361295 -0.174385 -2.355777 0.000191
  8 0.208517 0.000000 -23.612854 1.570796 -0.000000 -1.570796
  9 18.926842 39.143330 11.606188 1.570796 0.000000 -1.570796
  10 11.672379 13.480309 -20.444241 -1.570796 0.000000 0.000000
  11 13.144347 3.215752 2.379977 -1.570796 0.000000 0.000000
  12 14.407695 29.151234 -11.063153 -1.191142 -0.443811 -2.655274
  13 0.000002 31.467829 0.000000 -0.313787 -0.026392 -0.014620
  14 0.000000 2.088996 -0.000000 -2.818855 -0.227422 -0.059894
  15 8.092659 5.945971 -0.000004 0.185040 -0.221844 -0.220628
  16 -0.000001 15.122833 -0.000002 -0.412169 -0.000000 0.000000
  17 -0.000000 10.272252 0.000000 1.841846 -0.090889 0.198133
  18 0.000002 4.132121 -1.927664 -0.000000 -0.000000 -0.000000
  19 -8.092659 5.945971 0.000002 0.259020 -0.560222 0.134286
  20 0.000001 15.122831 -0.000000 -0.612366 -0.000000 -0.000000
  21 -0.000000 10.272249 0.000002 1.853858 0.149602 -0.074956
  22 0.000000 4.132119 -1.927664 -0.000000 0.000000 -0.000000
  23 0.000000 11.126796 -0.000000 -0.177599 -0.198574 -0.107401
  24 5.835801 2.795460 0.869677 0.000000 -0.157210 -1.570796
  25 -0.000002 5.475369 0.000001 -1.012967 -0.166821 -0.826562
  26 0.000003 11.557738 -0.000001 -0.714986 0.003010 0.011779
  27 -0.000001 7.947079 0.000002 -0.128314 -0.094321 -0.061172
  28 0.000000 6.243680 0.000001 -0.157211 0.000000 -0.000000
  29 0.000001 2.631203 -0.000002 0.000000 -0.000000 -0.000000
  30 -5.807681 2.400324 0.556052 -0.620257 -0.081649 1.781947
  31 -0.000003 5.475368 -0.000003 -0.153567 -0.258993 1.041264
  32 -0.000000 11.557747 -0.000001 -0.863482 -0.004902 -0.013655
  33 0.000001 7.947079 0.000000 -0.277123 -0.180915 -0.147530
  34 -23.983181 38.666245 10.152540 1.570796 0.000000 1.570796
  35 -14.993516 13.480309 -20.444244 -1.570796 0.000000 0.000000
  36 -11.002478 3.493808 -3.875064 -1.570796 0.180411 0.000000
  37 -9.040361 26.155123 -15.167203 -1.219287 0.382785 2.927606
  time 5
  0 18.854879 -5.063185 -2.848637 -0.627185 -0.427966 -0.126450
  1 -0.000001 7.632664 5.380291 1.644840 -0.000000 0.000000
  2 -0.000002 4.955765 0.000000 -0.005713 0.000000 0.000000
  3 0.000001 16.156614 0.000002 0.000000 -0.000000 -0.000000
  4 2.361278 5.150874 2.361297 -0.174091 0.786638 0.000223
  5 -2.361297 5.150876 2.361290 -0.174326 -0.785980 0.000108
  6 2.361294 5.150879 -2.361291 -0.174150 2.355119 0.000140
  7 -2.361295 5.150876 -2.361293 -0.174385 -2.355777 0.000191
  8 0.208517 0.000000 -23.612854 1.570796 -0.000000 -1.570796
  9 18.926842 39.143330 11.606188 1.570796 0.000000 -1.570796
  10 11.672379 13.480309 -20.444241 -1.570796 0.000000 0.000000
  11 13.144347 3.215752 2.379977 -1.570796 0.000000 0.000000
  12 14.406816 29.158060 -11.062820 -1.191141 -0.443783 -2.655193
  13 0.000002 31.464457 0.000000 -0.313951 -0.026394 -0.014615
  14 0.000000 2.088995 -0.000001 -2.818687 -0.227409 -0.059935
  15 8.092660 5.945971 -0.000004 0.185570 -0.221828 -0.220658
  16 -0.000001 15.122831 0.000001 -0.413519 -0.000000 0.000000
  17 -0.000001 10.272249 0.000001 1.842655 -0.091074 0.198085
  18 0.000002 4.132122 -1.927664 -0.000000 -0.000000 -0.000000
  19 -8.092659 5.945971 0.000002 0.259378 -0.560232 0.134309
  20 0.000000 15.122829 0.000001 -0.613305 0.000000 -0.000000
  21 -0.000002 10.272247 0.000001 1.854430 0.149661 -0.074886
  22 0.000000 4.132119 -1.927664 -0.000000 0.000000 -0.000000
  23 0.000000 11.126796 -0.000001 -0.174571 -0.198585 -0.107856
  24 5.835801 2.795461 0.869678 0.000000 -0.157210 -1.570796
  25 -0.000002 5.475369 0.000001 -1.010700 -0.168327 -0.825955
  26 0.000001 11.557744 0.000002 -0.717070 0.003035 0.011807
  27 -0.000001 7.947078 -0.000000 -0.126443 -0.093658 -0.061530
  28 0.000000 6.243678 0.000000 -0.157211 0.000000 -0.000000
  29 0.000000 2.631207 0.000001 -0.000000 -0.000000 -0.000000
  30 -5.807681 2.400320 0.556052 -0.620257 -0.081649 1.781947
  31 0.000000 5.475369 0.000001 -0.151539 -0.258545 1.042672
  32 0.000000 11.557746 -0.000001 -0.862808 -0.004893 -0.013647
  33 -0.000002 7.947077 -0.000000 -0.277825 -0.180964 -0.147340
  34 -23.983181 38.666245 10.152540 1.570796 0.000000 1.570796
  35 -14.993516 13.480309 -20.444244 -1.570796 0.000000 0.000000
  36 -11.002478 3.493808 -3.875064 -1.570796 0.180411 0.000000
  37 -9.040898 26.160070 -15.167493 -1.219305 0.382807 2.927681
  time 6
  0 18.854879 -5.063185 -2.847757 -0.627198 -0.427973 -0.126456
  1 -0.000004 7.632663 5.380286 1.644840 -0.000000 0.000000
  2 -0.000000 4.955764 -0.000000 -0.005713 -0.000000 0.000000
  3 -0.000001 16.156612 -0.000001 0.000000 -0.000000 -0.000000
  4 2.361286 5.150878 2.361296 -0.174091 0.786638 0.000223
  5 -2.361295 5.150875 2.361291 -0.174326 -0.785980 0.000108
  6 2.361285 5.150878 -2.361294 -0.174150 2.355119 0.000140
  7 -2.361292 5.150875 -2.361296 -0.174384 -2.355777 0.000191
  8 0.208517 0.000000 -23.612854 1.570796 -0.000000 -1.570796
  9 18.926842 39.143330 11.606188 1.570796 0.000000 -1.570796
  10 11.672379 13.480309 -20.444241 -1.570796 0.000000 0.000000
  11 13.144347 3.215752 2.379977 -1.570796 0.000000 0.000000
  12 14.406619 29.159018 -11.062669 -1.191140 -0.443770 -2.655180
  13 0.000002 31.440847 0.000000 -0.315102 -0.026411 -0.014585
  14 0.000000 2.088998 0.000000 -2.817511 -0.227315 -0.060224
  15 8.092660 5.945975 -0.000004 0.189233 -0.221719 -0.220874
  16 -0.000000 15.122825 -0.000001 -0.422850 -0.000000 0.000000
  17 0.000000 10.272247 0.000000 1.848253 -0.092350 0.197752
  18 0.000002 4.132120 -1.927664 0.000000 -0.000000 -0.000000
  19 -8.092657 5.945975 0.000002 0.261866 -0.560302 0.134476
  20 0.000003 15.122833 -0.000002 -0.619838 0.000000 -0.000000
  21 -0.000002 10.272251 0.000001 1.858411 0.150071 -0.074399
  22 0.000000 4.132119 -1.927664 -0.000000 0.000000 -0.000000
  23 0.000000 11.126794 0.000000 -0.173366 -0.198547 -0.107999
  24 5.835800 2.795463 0.869679 0.000000 -0.157210 -1.570796
  25 0.000001 5.475370 -0.000005 -1.007568 -0.168286 -0.825492
  26 0.000002 11.557744 -0.000001 -0.725618 0.003136 0.011922
  27 0.000001 7.947077 -0.000002 -0.121175 -0.092764 -0.062241
  28 0.000001 6.243678 -0.000001 -0.157211 0.000000 -0.000000
  29 -0.000000 2.631209 0.000001 -0.000000 -0.000000 -0.000000
  30 -5.807681 2.400318 0.556050 -0.620257 -0.081649 1.781947
  31 0.000002 5.475366 0.000001 -0.148166 -0.258626 1.042668
  32 0.000002 11.557738 -0.000001 -0.870930 -0.005004 -0.013741
  33 -0.000000 7.947082 -0.000001 -0.272948 -0.180208 -0.148121
  34 -23.983181 38.666245 10.152540 1.570796 0.000000 1.570796
  35 -14.993516 13.480309 -20.444244 -1.570796 0.000000 0.000000
  36 -11.002478 3.493808 -3.875064 -1.570796 0.180411 0.000000
  37 -9.041004 26.160749 -15.167628 -1.219313 0.382817 2.927691
  time 7
  0 18.854879 -5.063185 -2.860636 -0.626747 -0.428147 -0.126643
  1 -0.000002 7.632662 5.380286 1.644840 -0.000000 0.000000
  2 -0.000001 4.955766 0.000001 -0.005713 -0.000000 0.000000
  3 -0.000000 16.156610 -0.000002 -0.000000 -0.000000 -0.000000
  4 2.361285 5.150874 2.361296 -0.174091 0.786638 0.000223
  5 -2.361293 5.150875 2.361291 -0.174326 -0.785980 0.000109
  6 2.361286 5.150875 -2.361291 -0.174150 2.355119 0.000140
  7 -2.361295 5.150873 -2.361292 -0.174384 -2.355778 0.000191
  8 0.208517 0.000000 -23.612854 1.570796 -0.000000 -1.570796
  9 18.926842 39.143330 11.606188 1.570796 0.000000 -1.570796
  10 11.672379 13.480309 -20.444241 -1.570796 0.000000 0.000000
  11 13.144347 3.215752 2.379977 -1.570796 0.000000 0.000000
  12 14.409856 29.140837 -11.060792 -1.191360 -0.443666 -2.655471
  13 0.000002 31.376768 0.000000 -0.318225 -0.026456 -0.014502
  14 0.000000 2.088995 -0.000001 -2.814318 -0.227057 -0.061008
  15 8.092659 5.945974 -0.000003 0.198758 -0.221419 -0.221461
  16 0.000001 15.122827 -0.000000 -0.447163 -0.000000 0.000000
  17 0.000000 10.272246 0.000001 1.862861 -0.095693 0.196865
  18 0.000002 4.132120 -1.927664 -0.000000 -0.000000 -0.000000
  19 -8.092658 5.945975 0.000001 0.268441 -0.560493 0.134930
  20 0.000002 15.122828 0.000001 -0.637138 0.000000 -0.000000
  21 -0.000001 10.272245 -0.000001 1.868964 0.151158 -0.073107
  22 0.000001 4.132120 -1.927664 0.000000 0.000000 -0.000000
  23 0.000000 11.126797 0.000001 -0.181569 -0.198330 -0.106598
  24 5.835800 2.795463 0.869678 -0.000000 -0.157210 -1.570796
  25 -0.000004 5.475370 -0.000001 -1.005663 -0.162016 -0.826495
  26 0.000004 11.557743 -0.000001 -0.747031 0.003394 0.012206
  27 -0.000001 7.947080 0.000002 -0.110603 -0.092327 -0.063183
  28 0.000000 6.243679 0.000001 -0.157211 0.000000 -0.000000
  29 -0.000000 2.631207 0.000001 0.000000 -0.000000 0.000000
  30 -5.807681 2.400324 0.556054 -0.620257 -0.081649 1.781947
  31 0.000004 5.475367 -0.000002 -0.144806 -0.260679 1.036873
  32 -0.000003 11.557749 0.000001 -0.901868 -0.005433 -0.014092
  33 -0.000001 7.947083 0.000001 -0.253131 -0.177226 -0.151631
  34 -23.983181 38.666245 10.152540 1.570796 0.000000 1.570796
  35 -14.993516 13.480309 -20.444244 -1.570796 0.000000 0.000000
  36 -11.002478 3.493808 -3.875064 -1.570796 0.180411 0.000000
  37 -9.038924 26.152519 -15.166413 -1.219549 0.382769 2.927218
  time 8
  0 18.854879 -5.063185 -2.950783 -0.625754 -0.427806 -0.127055
  1 -0.000002 7.632663 5.380290 1.644840 -0.000000 0.000000
  2 0.000000 4.955766 0.000000 -0.005714 -0.000000 0.000000
  3 -0.000002 16.156614 0.000001 -0.000000 -0.000000 -0.000000
  4 2.361284 5.150876 2.361296 -0.174091 0.786638 0.000223
  5 -2.361288 5.150877 2.361290 -0.174326 -0.785980 0.000108
  6 2.361289 5.150878 -2.361293 -0.174150 2.355119 0.000140
  7 -2.361291 5.150879 -2.361297 -0.174384 -2.355777 0.000191
  8 0.208517 0.000000 -23.612854 1.570796 -0.000000 -1.570796
  9 18.926842 39.143330 11.606188 1.570796 0.000000 -1.570796
  10 11.672379 13.480309 -20.444241 -1.570796 0.000000 0.000000
  11 13.144347 3.215752 2.379977 -1.570796 0.000000 0.000000
  12 14.417727 29.043612 -11.062670 -1.191140 -0.443770 -2.656504
  13 0.000002 31.251978 0.000000 -0.324305 -0.026544 -0.014341
  14 -0.000000 2.088999 0.000000 -2.808102 -0.226548 -0.062530
  15 8.092660 5.945972 -0.000004 0.215988 -0.220830 -0.222614
  16 -0.000002 15.122830 0.000000 -0.491303 -0.000000 0.000000
  17 -0.000000 10.272251 0.000001 1.889465 -0.101827 0.195176
  18 0.000002 4.132121 -1.927664 -0.000000 -0.000000 -0.000000
  19 -8.092658 5.945973 0.000001 0.280863 -0.560869 0.135821
  20 0.000002 15.122832 -0.000001 -0.669941 0.000000 -0.000000
  21 -0.000000 10.272247 0.000001 1.889005 0.153214 -0.070631
  22 0.000000 4.132120 -1.927664 -0.000000 0.000000 -0.000000
  23 0.000000 11.126799 0.000001 -0.190307 -0.194353 -0.101737
  24 5.835801 2.795464 0.869679 0.000000 -0.157210 -1.570796
  25 -0.000009 5.475371 0.000001 -0.998119 -0.154589 -0.834465
  26 0.000001 11.557750 0.000000 -0.772594 0.003711 0.012541
  27 -0.000004 7.947076 0.000001 -0.101708 -0.093875 -0.062941
  28 -0.000000 6.243681 0.000001 -0.157211 0.000000 -0.000000
  29 0.000000 2.631206 -0.000000 -0.000000 -0.000000 -0.000000
  30 -5.807682 2.400323 0.556053 -0.620257 -0.081649 1.781947
  31 0.000001 5.475370 -0.000002 -0.142267 -0.258951 1.026938
  32 0.000003 11.557745 0.000002 -0.939619 -0.005974 -0.014504
  33 -0.000002 7.947081 -0.000002 -0.226262 -0.172798 -0.156747
  34 -23.983181 38.666245 10.152540 1.570796 0.000000 1.570796
  35 -14.993516 13.480309 -20.444244 -1.570796 0.000000 0.000000
  36 -11.002478 3.493808 -3.875064 -1.570796 0.180411 0.000000
  37 -9.033845 26.076397 -15.167623 -1.219313 0.382817 2.926367
end
