version 1
nodes
0 "arm" -1
1 "hand" 0
end
skeleton
  time 0
  0 -23.570339 16.676439 -19.566967 1.413075 1.086731 -1.486109
  1 0.000001 39.094288 -0.000001 -0.324602 0.068009 0.195042
  time 1
  0 -23.570339 16.676439 -19.566967 1.413075 1.086731 -1.486109
  1 0.000001 39.094288 -0.000001 -0.324602 0.068009 0.195042
  time 2
  0 -23.570339 16.676439 -19.566967 1.413075 1.086731 -1.486109
  1 0.000001 39.094288 -0.000001 -0.324602 0.068009 0.195042
  time 3
  0 -23.570339 16.676439 -19.566967 1.413075 1.086731 -1.486109
  1 0.000001 39.094288 -0.000001 -0.324602 0.068009 0.195042
  time 4
  0 -23.570339 16.676439 -19.566967 1.413075 1.086731 -1.486109
  1 0.000001 39.094288 -0.000001 -0.324602 0.068009 0.195042
  time 5
  0 -23.570339 16.676439 -19.566967 1.413075 1.086731 -1.486109
  1 0.000001 39.094288 -0.000001 -0.324602 0.068009 0.195042
  time 6
  0 -23.570339 16.676439 -19.566967 1.413075 1.086731 -1.486109
  1 0.000001 39.094288 -0.000001 -0.324602 0.068009 0.195042
  time 7
  0 -23.570339 16.676439 -19.566967 1.413075 1.086731 -1.486109
  1 0.000001 39.094288 -0.000001 -0.324602 0.068009 0.195042
  time 8
  0 -23.570339 16.676439 -19.566967 1.413075 1.086731 -1.486109
  1 0.000001 39.094288 -0.000001 -0.324602 0.068009 0.195042
  time 9
  0 -23.570339 16.676439 -19.566967 1.413075 1.086731 -1.486109
  1 0.000001 39.094288 -0.000001 -0.324602 0.068009 0.195042
  time 10
  0 -23.570339 16.676439 -19.566967 1.413075 1.086731 -1.486109
  1 0.000001 39.094288 -0.000001 -0.324602 0.068009 0.195042
  time 11
  0 -23.570339 16.676439 -19.566967 1.413075 1.086731 -1.486109
  1 0.000001 39.094288 -0.000001 -0.324602 0.068009 0.195042
  time 12
  0 -23.570339 16.676439 -19.566967 1.413075 1.086731 -1.486109
  1 0.000001 39.094288 -0.000001 -0.324602 0.068009 0.195042
  time 13
  0 -23.715570 14.986422 -17.968920 1.477741 1.646944 -1.345040
  1 0.000000 39.094280 -0.000002 -0.320957 0.033053 -0.239669
  time 14
  0 -23.715570 14.986422 -17.968920 1.477741 1.646944 -1.345040
  1 0.000000 39.094280 -0.000002 -0.320957 0.033053 -0.239669
  time 15
  0 -23.715570 14.986422 -17.968920 1.477741 1.646944 -1.345040
  1 0.000000 39.094280 -0.000002 -0.320957 0.033053 -0.239669
  time 16
  0 -23.715570 14.986422 -17.968920 1.477741 1.646944 -1.345040
  1 0.000000 39.094280 -0.000002 -0.320957 0.033053 -0.239669
  time 17
  0 -23.715570 14.986422 -17.968920 1.477741 1.646944 -1.345040
  1 0.000000 39.094280 -0.000002 -0.320957 0.033053 -0.239669
  time 18
  0 -23.715570 14.986422 -17.968920 1.477741 1.646944 -1.345040
  1 0.000000 39.094280 -0.000002 -0.320957 0.033053 -0.239669
  time 19
  0 -23.715570 14.986422 -17.968920 1.477741 1.646944 -1.345040
  1 0.000000 39.094280 -0.000002 -0.320957 0.033053 -0.239669
  time 20
  0 -23.715570 14.986422 -17.968920 1.477741 1.646944 -1.345040
  1 0.000000 39.094280 -0.000002 -0.320957 0.033053 -0.239669
  time 21
  0 -23.715570 14.986422 -17.968920 1.477741 1.646944 -1.345040
  1 0.000000 39.094280 -0.000002 -0.320957 0.033053 -0.239669
  time 22
  0 -23.715570 14.986422 -17.968920 1.477741 1.646944 -1.345040
  1 0.000000 39.094280 -0.000002 -0.320957 0.033053 -0.239669
  time 23
  0 -23.715570 14.986422 -17.968920 1.477741 1.646944 -1.345040
  1 0.000000 39.094280 -0.000002 -0.320957 0.033053 -0.239669
  time 24
  0 -23.715570 14.986422 -17.968920 1.477741 1.646944 -1.345040
  1 0.000000 39.094280 -0.000002 -0.320957 0.033053 -0.239669
  time 25
  0 -23.715570 14.986422 -17.968920 1.477741 1.646944 -1.345040
  1 0.000000 39.094280 -0.000002 -0.320957 0.033053 -0.239669
  time 26
  0 -23.955585 12.651608 -13.755575 -1.746973 0.934325 1.751514
  1 -0.000003 39.094284 -0.000001 -0.302956 0.002804 -0.674204
  time 27
  0 -23.955585 12.651608 -13.755575 -1.746973 0.934325 1.751514
  1 -0.000003 39.094284 -0.000001 -0.302956 0.002804 -0.674204
  time 28
  0 -23.955585 12.651608 -13.755575 -1.746973 0.934325 1.751514
  1 -0.000003 39.094284 -0.000001 -0.302956 0.002804 -0.674204
  time 29
  0 -23.955585 12.651608 -13.755575 -1.746973 0.934325 1.751514
  1 -0.000003 39.094284 -0.000001 -0.302956 0.002804 -0.674204
  time 30
  0 -23.955585 12.651608 -13.755575 -1.746973 0.934325 1.751514
  1 -0.000003 39.094284 -0.000001 -0.302956 0.002804 -0.674204
  time 31
  0 -23.955585 12.651608 -13.755575 -1.746973 0.934325 1.751514
  1 -0.000003 39.094284 -0.000001 -0.302956 0.002804 -0.674204
  time 32
  0 -23.955585 12.651608 -13.755575 -1.746973 0.934325 1.751514
  1 -0.000003 39.094284 -0.000001 -0.302956 0.002804 -0.674204
  time 33
  0 -23.955585 12.651608 -13.755575 -1.746973 0.934325 1.751514
  1 -0.000003 39.094284 -0.000001 -0.302956 0.002804 -0.674204
  time 34
  0 -23.955585 12.651608 -13.755575 -1.746973 0.934325 1.751514
  1 -0.000003 39.094284 -0.000001 -0.302956 0.002804 -0.674204
  time 35
  0 -23.955585 12.651608 -13.755575 -1.746973 0.934325 1.751514
  1 -0.000003 39.094284 -0.000001 -0.302956 0.002804 -0.674204
  time 36
  0 -23.955585 12.651608 -13.755575 -1.746973 0.934325 1.751514
  1 -0.000003 39.094284 -0.000001 -0.302956 0.002804 -0.674204
  time 37
  0 -23.955585 12.651608 -13.755575 -1.746973 0.934325 1.751514
  1 -0.000003 39.094284 -0.000001 -0.302956 0.002804 -0.674204
  time 38
  0 -23.955585 12.651608 -13.755575 -1.746973 0.934325 1.751514
  1 -0.000003 39.094284 -0.000001 -0.302956 0.002804 -0.674204
  time 39
  0 -27.970282 12.767236 -9.766893 -1.753019 0.954837 1.761551
  1 0.000002 39.094284 -0.000004 -0.322089 0.009949 -0.584026
  time 40
  0 -27.970282 12.767236 -9.766893 -1.753019 0.954837 1.761551
  1 0.000002 39.094284 -0.000004 -0.322089 0.009949 -0.584026
  time 41
  0 -27.970282 12.767236 -9.766893 -1.753019 0.954837 1.761551
  1 0.000002 39.094284 -0.000004 -0.322089 0.009949 -0.584026
  time 42
  0 -27.970282 12.767236 -9.766893 -1.753019 0.954837 1.761551
  1 0.000002 39.094284 -0.000004 -0.322089 0.009949 -0.584026
  time 43
  0 -27.970282 12.767236 -9.766893 -1.753019 0.954837 1.761551
  1 0.000002 39.094284 -0.000004 -0.322089 0.009949 -0.584026
  time 44
  0 -27.970282 12.767236 -9.766893 -1.753019 0.954837 1.761551
  1 0.000002 39.094284 -0.000004 -0.322089 0.009949 -0.584026
  time 45
  0 -27.970282 12.767236 -9.766893 -1.753019 0.954837 1.761551
  1 0.000002 39.094284 -0.000004 -0.322089 0.009949 -0.584026
  time 46
  0 -27.970282 12.767236 -9.766893 -1.753019 0.954837 1.761551
  1 0.000002 39.094284 -0.000004 -0.322089 0.009949 -0.584026
  time 47
  0 -27.970282 12.767236 -9.766893 -1.753019 0.954837 1.761551
  1 0.000002 39.094284 -0.000004 -0.322089 0.009949 -0.584026
  time 48
  0 -27.970282 12.767236 -9.766893 -1.753019 0.954837 1.761551
  1 0.000002 39.094284 -0.000004 -0.322089 0.009949 -0.584026
  time 49
  0 -27.970282 12.767236 -9.766893 -1.753019 0.954837 1.761551
  1 0.000002 39.094284 -0.000004 -0.322089 0.009949 -0.584026
  time 50
  0 -27.970282 12.767236 -9.766893 -1.753019 0.954837 1.761551
  1 0.000002 39.094284 -0.000004 -0.322089 0.009949 -0.584026
  time 51
  0 -27.970282 12.767236 -9.766893 -1.753019 0.954837 1.761551
  1 0.000002 39.094284 -0.000004 -0.322089 0.009949 -0.584026
  time 52
  0 -26.594456 -1.517579 -20.713158 0.467843 0.704709 -1.709060
  1 0.000002 39.094288 0.000005 0.105903 -0.219254 -0.424001
  time 53
  0 -26.594456 -1.517579 -20.713158 0.467843 0.704709 -1.709060
  1 0.000002 39.094288 0.000005 0.105903 -0.219254 -0.424001
  time 54
  0 -26.594456 -1.517579 -20.713158 0.467843 0.704709 -1.709060
  1 0.000002 39.094288 0.000005 0.105903 -0.219254 -0.424001
  time 55
  0 -26.594456 -1.517579 -20.713158 0.467843 0.704709 -1.709060
  1 0.000002 39.094288 0.000005 0.105903 -0.219254 -0.424001
  time 56
  0 -26.594456 -1.517579 -20.713158 0.467843 0.704709 -1.709060
  1 0.000002 39.094288 0.000005 0.105903 -0.219254 -0.424001
  time 57
  0 -26.594456 -1.517579 -20.713158 0.467843 0.704709 -1.709060
  1 0.000002 39.094288 0.000005 0.105903 -0.219254 -0.424001
  time 58
  0 -26.594456 -1.517579 -20.713158 0.467843 0.704709 -1.709060
  1 0.000002 39.094288 0.000005 0.105903 -0.219254 -0.424001
  time 59
  0 -26.594456 -1.517579 -20.713158 0.467843 0.704709 -1.709060
  1 0.000002 39.094288 0.000005 0.105903 -0.219254 -0.424001
  time 60
  0 -26.594456 -1.517579 -20.713158 0.467843 0.704709 -1.709060
  1 0.000002 39.094288 0.000005 0.105903 -0.219254 -0.424001
  time 61
  0 -26.594456 -1.517579 -20.713158 0.467843 0.704709 -1.709060
  1 0.000002 39.094288 0.000005 0.105903 -0.219254 -0.424001
  time 62
  0 -26.594456 -1.517579 -20.713158 0.467843 0.704709 -1.709060
  1 0.000002 39.094288 0.000005 0.105903 -0.219254 -0.424001
  time 63
  0 -26.594456 -1.517579 -20.713158 0.467843 0.704709 -1.709060
  1 0.000002 39.094288 0.000005 0.105903 -0.219254 -0.424001
  time 64
  0 -26.594456 -1.517579 -20.713158 0.467843 0.704709 -1.709060
  1 0.000002 39.094288 0.000005 0.105903 -0.219254 -0.424001
  time 65
  0 -22.841173 2.798676 -22.980883 0.109513 0.971922 -2.897349
  1 -0.000002 39.094273 -0.000002 0.223630 -0.036740 -0.562849
  time 66
  0 -22.841173 2.798676 -22.980883 0.109513 0.971922 -2.897349
  1 -0.000002 39.094273 -0.000002 0.223630 -0.036740 -0.562849
  time 67
  0 -22.841173 2.798676 -22.980883 0.109513 0.971922 -2.897349
  1 -0.000002 39.094273 -0.000002 0.223630 -0.036740 -0.562849
  time 68
  0 -22.841173 2.798676 -22.980883 0.109513 0.971922 -2.897349
  1 -0.000002 39.094273 -0.000002 0.223630 -0.036740 -0.562849
  time 69
  0 -22.841173 2.798676 -22.980883 0.109513 0.971922 -2.897349
  1 -0.000002 39.094273 -0.000002 0.223630 -0.036740 -0.562849
  time 70
  0 -22.841173 2.798676 -22.980883 0.109513 0.971922 -2.897349
  1 -0.000002 39.094273 -0.000002 0.223630 -0.036740 -0.562849
  time 71
  0 -22.841173 2.798676 -22.980883 0.109513 0.971922 -2.897349
  1 -0.000002 39.094273 -0.000002 0.223630 -0.036740 -0.562849
  time 72
  0 -22.841173 2.798676 -22.980883 0.109513 0.971922 -2.897349
  1 -0.000002 39.094273 -0.000002 0.223630 -0.036740 -0.562849
  time 73
  0 -22.841173 2.798676 -22.980883 0.109513 0.971922 -2.897349
  1 -0.000002 39.094273 -0.000002 0.223630 -0.036740 -0.562849
  time 74
  0 -22.841173 2.798676 -22.980883 0.109513 0.971922 -2.897349
  1 -0.000002 39.094273 -0.000002 0.223630 -0.036740 -0.562849
  time 75
  0 -22.841173 2.798676 -22.980883 0.109513 0.971922 -2.897349
  1 -0.000002 39.094273 -0.000002 0.223630 -0.036740 -0.562849
  time 76
  0 -22.841173 2.798676 -22.980883 0.109513 0.971922 -2.897349
  1 -0.000002 39.094273 -0.000002 0.223630 -0.036740 -0.562849
  time 77
  0 -22.841173 2.798676 -22.980883 0.109513 0.971922 -2.897349
  1 -0.000002 39.094273 -0.000002 0.223630 -0.036740 -0.562849
  time 78
  0 -19.594456 8.949395 -21.713158 -0.498490 0.836822 1.966888
  1 0.000003 39.094280 -0.000001 -0.002349 -0.247574 -0.488965
  time 79
  0 -19.594456 8.949395 -21.713158 -0.498490 0.836822 1.966888
  1 0.000003 39.094280 -0.000001 -0.002349 -0.247574 -0.488965
  time 80
  0 -19.594456 8.949395 -21.713158 -0.498490 0.836822 1.966888
  1 0.000003 39.094280 -0.000001 -0.002349 -0.247574 -0.488965
  time 81
  0 -19.594456 8.949395 -21.713158 -0.498490 0.836822 1.966888
  1 0.000003 39.094280 -0.000001 -0.002349 -0.247574 -0.488965
  time 82
  0 -19.594456 8.949395 -21.713158 -0.498490 0.836822 1.966888
  1 0.000003 39.094280 -0.000001 -0.002349 -0.247574 -0.488965
  time 83
  0 -19.594456 8.949395 -21.713158 -0.498490 0.836822 1.966888
  1 0.000003 39.094280 -0.000001 -0.002349 -0.247574 -0.488965
  time 84
  0 -19.594456 8.949395 -21.713158 -0.498490 0.836822 1.966888
  1 0.000003 39.094280 -0.000001 -0.002349 -0.247574 -0.488965
  time 85
  0 -19.594456 8.949395 -21.713158 -0.498490 0.836822 1.966888
  1 0.000003 39.094280 -0.000001 -0.002349 -0.247574 -0.488965
  time 86
  0 -19.594456 8.949395 -21.713158 -0.498490 0.836822 1.966888
  1 0.000003 39.094280 -0.000001 -0.002349 -0.247574 -0.488965
  time 87
  0 -19.594456 8.949395 -21.713158 -0.498490 0.836822 1.966888
  1 0.000003 39.094280 -0.000001 -0.002349 -0.247574 -0.488965
  time 88
  0 -19.594456 8.949395 -21.713158 -0.498490 0.836822 1.966888
  1 0.000003 39.094280 -0.000001 -0.002349 -0.247574 -0.488965
  time 89
  0 -19.594456 8.949395 -21.713158 -0.498490 0.836822 1.966888
  1 0.000003 39.094280 -0.000001 -0.002349 -0.247574 -0.488965
  time 90
  0 -19.594456 8.949395 -21.713158 -0.498490 0.836822 1.966888
  1 0.000003 39.094280 -0.000001 -0.002349 -0.247574 -0.488965
  time 91
  0 -23.094454 11.448773 -11.711959 -1.032384 1.009165 2.163063
  1 -0.000002 39.094292 -0.000001 -0.180573 -0.112775 -0.349996
  time 92
  0 -23.094454 11.448773 -11.711959 -1.032384 1.009165 2.163063
  1 -0.000002 39.094292 -0.000001 -0.180573 -0.112775 -0.349996
  time 93
  0 -23.094454 11.448773 -11.711959 -1.032384 1.009165 2.163063
  1 -0.000002 39.094292 -0.000001 -0.180573 -0.112775 -0.349996
  time 94
  0 -23.094454 11.448773 -11.711959 -1.032384 1.009165 2.163063
  1 -0.000002 39.094292 -0.000001 -0.180573 -0.112775 -0.349996
  time 95
  0 -23.094454 11.448773 -11.711959 -1.032384 1.009165 2.163063
  1 -0.000002 39.094292 -0.000001 -0.180573 -0.112775 -0.349996
  time 96
  0 -23.094454 11.448773 -11.711959 -1.032384 1.009165 2.163063
  1 -0.000002 39.094292 -0.000001 -0.180573 -0.112775 -0.349996
  time 97
  0 -23.094454 11.448773 -11.711959 -1.032384 1.009165 2.163063
  1 -0.000002 39.094292 -0.000001 -0.180573 -0.112775 -0.349996
  time 98
  0 -23.094454 11.448773 -11.711959 -1.032384 1.009165 2.163063
  1 -0.000002 39.094292 -0.000001 -0.180573 -0.112775 -0.349996
  time 99
  0 -23.094454 11.448773 -11.711959 -1.032384 1.009165 2.163063
  1 -0.000002 39.094292 -0.000001 -0.180573 -0.112775 -0.349996
  time 100
  0 -23.094454 11.448773 -11.711959 -1.032384 1.009165 2.163063
  1 -0.000002 39.094292 -0.000001 -0.180573 -0.112775 -0.349996
  time 101
  0 -23.094454 11.448773 -11.711959 -1.032384 1.009165 2.163063
  1 -0.000002 39.094292 -0.000001 -0.180573 -0.112775 -0.349996
  time 102
  0 -23.094454 11.448773 -11.711959 -1.032384 1.009165 2.163063
  1 -0.000002 39.094292 -0.000001 -0.180573 -0.112775 -0.349996
  time 103
  0 -23.094454 11.448773 -11.711959 -1.032384 1.009165 2.163063
  1 -0.000002 39.094292 -0.000001 -0.180573 -0.112775 -0.349996
  time 104
  0 -31.594454 13.949390 -7.713161 -1.723907 1.094928 1.835215
  1 -0.000004 39.094284 -0.000000 -0.337298 0.003608 -0.223938
  time 105
  0 -31.594454 13.949390 -7.713161 -1.723907 1.094928 1.835215
  1 -0.000004 39.094284 -0.000000 -0.337298 0.003608 -0.223938
  time 106
  0 -31.594454 13.949390 -7.713161 -1.723907 1.094928 1.835215
  1 -0.000004 39.094284 -0.000000 -0.337298 0.003608 -0.223938
  time 107
  0 -31.594454 13.949390 -7.713161 -1.723907 1.094928 1.835215
  1 -0.000004 39.094284 -0.000000 -0.337298 0.003608 -0.223938
  time 108
  0 -31.594454 13.949390 -7.713161 -1.723907 1.094928 1.835215
  1 -0.000004 39.094284 -0.000000 -0.337298 0.003608 -0.223938
  time 109
  0 -31.594454 13.949390 -7.713161 -1.723907 1.094928 1.835215
  1 -0.000004 39.094284 -0.000000 -0.337298 0.003608 -0.223938
  time 110
  0 -31.594454 13.949390 -7.713161 -1.723907 1.094928 1.835215
  1 -0.000004 39.094284 -0.000000 -0.337298 0.003608 -0.223938
  time 111
  0 -31.594454 13.949390 -7.713161 -1.723907 1.094928 1.835215
  1 -0.000004 39.094284 -0.000000 -0.337298 0.003608 -0.223938
  time 112
  0 -31.594454 13.949390 -7.713161 -1.723907 1.094928 1.835215
  1 -0.000004 39.094284 -0.000000 -0.337298 0.003608 -0.223938
  time 113
  0 -31.594454 13.949390 -7.713161 -1.723907 1.094928 1.835215
  1 -0.000004 39.094284 -0.000000 -0.337298 0.003608 -0.223938
  time 114
  0 -31.594454 13.949390 -7.713161 -1.723907 1.094928 1.835215
  1 -0.000004 39.094284 -0.000000 -0.337298 0.003608 -0.223938
  time 115
  0 -31.594454 13.949390 -7.713161 -1.723907 1.094928 1.835215
  1 -0.000004 39.094284 -0.000000 -0.337298 0.003608 -0.223938
  time 116
  0 -31.594454 13.949390 -7.713161 -1.723907 1.094928 1.835215
  1 -0.000004 39.094284 -0.000000 -0.337298 0.003608 -0.223938
end
