version 1
nodes
0 "root" -1
end
skeleton
time 0
0 0 0 0 0 0 0
end
triangles
xslime0
0 1216.0000 1856.0000 -456.0000 0.0000 0.0000 -1.0000 19.000000 29.000000
0 1344.0000 1664.0000 -456.0000 0.0000 0.0000 -1.0000 21.000000 26.000000
0 1216.0000 1664.0000 -456.0000 0.0000 0.0000 -1.0000 19.000000 26.000000
xslime0
0 1216.0000 1856.0000 -456.0000 0.0000 0.0000 -1.0000 19.000000 29.000000
0 1344.0000 1856.0000 -456.0000 0.0000 0.0000 -1.0000 21.000000 29.000000
0 1344.0000 1664.0000 -456.0000 0.0000 0.0000 -1.0000 21.000000 26.000000
end
