version 1
nodes
0 "root" -1
end
skeleton
time 0
0 0 0 0 0 0 0
end
triangles
xslime0
0 1408.0000 2624.0000 -456.0000 -0.0000 0.0000 -1.0000 22.000000 41.000000
0 656.0000 1904.0000 -456.0000 -0.0000 0.0000 -1.0000 10.250000 29.750000
0 656.0000 2624.0000 -456.0000 -0.0000 0.0000 -1.0000 10.250000 41.000000
xslime0
0 1408.0000 2624.0000 -456.0000 0.0000 -0.0000 -1.0000 22.000000 41.000000
0 1408.0000 1904.0000 -456.0000 0.0000 -0.0000 -1.0000 22.000000 29.750000
0 656.0000 1904.0000 -456.0000 0.0000 -0.0000 -1.0000 10.250000 29.750000
end
