version 1
nodes
0 "root" -1
end
skeleton
time 0
0 0 0 0 0 0 0
end
triangles
xwater0
0 520.0000 1328.0000 -296.0000 -0.0000 0.0000 -1.0000 8.125000 20.750000
0 -192.0000 1088.0000 -296.0000 -0.0000 0.0000 -1.0000 -3.000000 17.000000
0 -192.0000 1328.0000 -296.0000 -0.0000 0.0000 -1.0000 -3.000000 20.750000
xwater0
0 520.0000 1328.0000 -296.0000 0.0000 -0.0000 -1.0000 8.125000 20.750000
0 520.0000 1088.0000 -296.0000 0.0000 -0.0000 -1.0000 8.125000 17.000000
0 -192.0000 1088.0000 -296.0000 0.0000 -0.0000 -1.0000 -3.000000 17.000000
end
