version 1
nodes
0 "root" -1
end
skeleton
time 0
0 0 0 0 0 0 0
end
triangles
xslime0
0 1504.0000 768.0000 -456.0000 0.0000 0.0000 -1.0000 23.500000 12.000000
0 1120.0000 1152.0000 -456.0000 0.0000 0.0000 -1.0000 17.500000 18.000000
0 1504.0000 1152.0000 -456.0000 0.0000 0.0000 -1.0000 23.500000 18.000000
xslime0
0 1504.0000 768.0000 -456.0000 0.0000 0.0000 -1.0000 23.500000 12.000000
0 1120.0000 768.0000 -456.0000 0.0000 0.0000 -1.0000 17.500000 12.000000
0 1120.0000 1152.0000 -456.0000 0.0000 0.0000 -1.0000 17.500000 18.000000
end
