version 1
nodes
0 "root" -1
end
skeleton
time 0
0 0 0 0 0 0 0
end
triangles
xslime0
0 1408.0000 1672.0000 -456.0000 -0.0000 0.0000 -1.0000 22.000000 26.125000
0 1216.0000 1144.0000 -456.0000 -0.0000 0.0000 -1.0000 19.000000 17.875000
0 1216.0000 1672.0000 -456.0000 -0.0000 0.0000 -1.0000 19.000000 26.125000
xslime0
0 1408.0000 1672.0000 -456.0000 0.0000 -0.0000 -1.0000 22.000000 26.125000
0 1408.0000 1144.0000 -456.0000 0.0000 -0.0000 -1.0000 22.000000 17.875000
0 1216.0000 1144.0000 -456.0000 0.0000 -0.0000 -1.0000 19.000000 17.875000
end
