version 1
nodes
0 "root" -1
end
skeleton
time 0
0 0 0 0 0 0 0
end
triangles
xwater0
0 1024.0000 472.0000 -296.0000 0.0000 0.0000 -1.0000 16.000000 7.375000
0 664.0000 1120.0000 -296.0000 0.0000 0.0000 -1.0000 10.375000 17.500000
0 1024.0000 1120.0000 -296.0000 0.0000 0.0000 -1.0000 16.000000 17.500000
xwater0
0 1024.0000 472.0000 -296.0000 0.0000 0.0000 -1.0000 16.000000 7.375000
0 664.0000 472.0000 -296.0000 0.0000 0.0000 -1.0000 10.375000 7.375000
0 664.0000 1120.0000 -296.0000 0.0000 0.0000 -1.0000 10.375000 17.500000
end
