version 1
nodes
0 "root" -1
end
skeleton
time 0
0 0 0 0 0 0 0
end
triangles
xslime0
0 336.0000 2640.0000 -136.0000 0.0000 0.0000 -1.0000 5.250000 41.250000
0 -16.0000 3008.0000 -136.0000 0.0000 0.0000 -1.0000 -0.250000 47.000000
0 336.0000 3008.0000 -136.0000 0.0000 0.0000 -1.0000 5.250000 47.000000
xslime0
0 336.0000 2640.0000 -136.0000 0.0000 0.0000 -1.0000 5.250000 41.250000
0 -16.0000 2640.0000 -136.0000 0.0000 0.0000 -1.0000 -0.250000 41.250000
0 -16.0000 3008.0000 -136.0000 0.0000 0.0000 -1.0000 -0.250000 47.000000
end
