version 1
nodes
0 "root" -1
end
skeleton
time 0
0 0 0 0 0 0 0
end
triangles
plat_side1
0 752.0000 480.0000 80.0000 1.0000 -0.0000 0.0000 7.500000 5.000000
0 752.0000 544.0000 64.0000 1.0000 -0.0000 0.0000 8.500000 4.000000
0 752.0000 544.0000 80.0000 1.0000 -0.0000 0.0000 8.500000 5.000000
plat_side1
0 752.0000 480.0000 80.0000 1.0000 0.0000 0.0000 7.500000 5.000000
0 752.0000 480.0000 64.0000 1.0000 0.0000 0.0000 7.500000 4.000000
0 752.0000 544.0000 64.0000 1.0000 0.0000 0.0000 8.500000 4.000000
plat_side1
0 752.0000 544.0000 64.0000 0.0000 -1.0000 0.0000 11.750000 4.000000
0 816.0000 544.0000 80.0000 0.0000 -1.0000 0.0000 12.750000 5.000000
0 752.0000 544.0000 80.0000 0.0000 -1.0000 0.0000 11.750000 5.000000
plat_side1
0 752.0000 544.0000 64.0000 0.0000 -1.0000 0.0000 11.750000 4.000000
0 816.0000 544.0000 64.0000 0.0000 -1.0000 0.0000 12.750000 4.000000
0 816.0000 544.0000 80.0000 0.0000 -1.0000 0.0000 12.750000 5.000000
plat_side1
0 832.0000 528.0000 64.0000 -1.0000 0.0000 0.0000 8.250000 4.000000
0 832.0000 496.0000 80.0000 -1.0000 0.0000 0.0000 7.750000 5.000000
0 832.0000 528.0000 80.0000 -1.0000 0.0000 0.0000 8.250000 5.000000
plat_side1
0 832.0000 528.0000 64.0000 -1.0000 0.0000 0.0000 8.250000 4.000000
0 832.0000 496.0000 64.0000 -1.0000 0.0000 0.0000 7.750000 4.000000
0 832.0000 496.0000 80.0000 -1.0000 0.0000 0.0000 7.750000 5.000000
plat_side1
0 816.0000 480.0000 64.0000 0.0000 1.0000 -0.0000 12.750000 4.000000
0 752.0000 480.0000 80.0000 0.0000 1.0000 -0.0000 11.750000 5.000000
0 816.0000 480.0000 80.0000 0.0000 1.0000 -0.0000 12.750000 5.000000
plat_side1
0 816.0000 480.0000 64.0000 0.0000 1.0000 0.0000 12.750000 4.000000
0 752.0000 480.0000 64.0000 0.0000 1.0000 0.0000 11.750000 4.000000
0 752.0000 480.0000 80.0000 0.0000 1.0000 0.0000 11.750000 5.000000
plat_top1
0 832.0000 496.0000 80.0000 0.0000 0.0000 -1.0000 13.250000 7.250000
0 816.0000 544.0000 80.0000 0.0000 0.0000 -1.0000 13.000000 8.000000
0 832.0000 528.0000 80.0000 0.0000 0.0000 -1.0000 13.250000 7.750000
plat_top1
0 832.0000 496.0000 80.0000 0.0000 0.0000 -1.0000 13.250000 7.250000
0 752.0000 544.0000 80.0000 0.0000 0.0000 -1.0000 12.000000 8.000000
0 816.0000 544.0000 80.0000 0.0000 0.0000 -1.0000 13.000000 8.000000
plat_top1
0 832.0000 496.0000 80.0000 -0.0000 0.0000 -1.0000 13.250000 7.250000
0 752.0000 480.0000 80.0000 -0.0000 0.0000 -1.0000 12.000000 7.000000
0 752.0000 544.0000 80.0000 -0.0000 0.0000 -1.0000 12.000000 8.000000
plat_top1
0 832.0000 496.0000 80.0000 0.0000 0.0000 -1.0000 13.250000 7.250000
0 816.0000 480.0000 80.0000 0.0000 0.0000 -1.0000 13.000000 7.000000
0 752.0000 480.0000 80.0000 0.0000 0.0000 -1.0000 12.000000 7.000000
plat_side1
0 816.0000 480.0000 64.0000 0.0000 0.0000 1.0000 12.750000 30.000000
0 752.0000 544.0000 64.0000 0.0000 0.0000 1.0000 11.750000 34.000000
0 752.0000 480.0000 64.0000 0.0000 0.0000 1.0000 11.750000 30.000000
plat_side1
0 816.0000 480.0000 64.0000 0.0000 -0.0000 1.0000 12.750000 30.000000
0 816.0000 544.0000 64.0000 0.0000 -0.0000 1.0000 12.750000 34.000000
0 752.0000 544.0000 64.0000 0.0000 -0.0000 1.0000 11.750000 34.000000
plat_side1
0 816.0000 480.0000 64.0000 0.0000 0.0000 1.0000 12.750000 30.000000
0 832.0000 528.0000 64.0000 0.0000 0.0000 1.0000 13.000000 33.000000
0 816.0000 544.0000 64.0000 0.0000 0.0000 1.0000 12.750000 34.000000
plat_side1
0 816.0000 480.0000 64.0000 0.0000 0.0000 1.0000 12.750000 30.000000
0 832.0000 496.0000 64.0000 0.0000 0.0000 1.0000 13.000000 31.000000
0 832.0000 528.0000 64.0000 0.0000 0.0000 1.0000 13.000000 33.000000
plat_side1
0 816.0000 544.0000 64.0000 -0.7071 -0.7071 0.0000 8.500000 4.000000
0 832.0000 528.0000 80.0000 -0.7071 -0.7071 0.0000 8.250000 5.000000
0 816.0000 544.0000 80.0000 -0.7071 -0.7071 0.0000 8.500000 5.000000
plat_side1
0 816.0000 544.0000 64.0000 -0.7071 -0.7071 0.0000 8.500000 4.000000
0 832.0000 528.0000 64.0000 -0.7071 -0.7071 0.0000 8.250000 4.000000
0 832.0000 528.0000 80.0000 -0.7071 -0.7071 0.0000 8.250000 5.000000
plat_side1
0 816.0000 480.0000 64.0000 -0.7071 0.7071 0.0000 7.500000 4.000000
0 832.0000 496.0000 80.0000 -0.7071 0.7071 0.0000 7.750000 5.000000
0 832.0000 496.0000 64.0000 -0.7071 0.7071 0.0000 7.750000 4.000000
plat_side1
0 816.0000 480.0000 64.0000 -0.7071 0.7071 0.0000 7.500000 4.000000
0 816.0000 480.0000 80.0000 -0.7071 0.7071 0.0000 7.500000 5.000000
0 832.0000 496.0000 80.0000 -0.7071 0.7071 0.0000 7.750000 5.000000
end
