version 1
nodes
0 "root" -1
end
skeleton
time 0
0 0 0 0 0 0 0
end
triangles
plat_stem
0 -592.0000 2624.0000 16.0000 1.0000 -0.0000 0.0000 164.000000 0.250000
0 -592.0000 2672.0000 -128.0000 1.0000 -0.0000 0.0000 167.000000 -2.000000
0 -592.0000 2672.0000 16.0000 1.0000 -0.0000 0.0000 167.000000 0.250000
plat_stem
0 -592.0000 2624.0000 16.0000 1.0000 0.0000 0.0000 164.000000 0.250000
0 -592.0000 2624.0000 -128.0000 1.0000 0.0000 0.0000 164.000000 -2.000000
0 -592.0000 2672.0000 -128.0000 1.0000 0.0000 0.0000 167.000000 -2.000000
plat_stem
0 -512.0000 2672.0000 -128.0000 0.0000 -1.0000 0.0000 -32.000000 -2.000000
0 -592.0000 2672.0000 16.0000 0.0000 -1.0000 0.0000 -37.000000 0.250000
0 -592.0000 2672.0000 -128.0000 0.0000 -1.0000 0.0000 -37.000000 -2.000000
plat_stem
0 -512.0000 2672.0000 -128.0000 0.0000 -1.0000 0.0000 -32.000000 -2.000000
0 -512.0000 2672.0000 16.0000 0.0000 -1.0000 0.0000 -32.000000 0.250000
0 -592.0000 2672.0000 16.0000 0.0000 -1.0000 0.0000 -37.000000 0.250000
plat_stem
0 -512.0000 2624.0000 -128.0000 -1.0000 0.0000 0.0000 164.000000 -2.000000
0 -512.0000 2672.0000 16.0000 -1.0000 0.0000 0.0000 167.000000 0.250000
0 -512.0000 2672.0000 -128.0000 -1.0000 0.0000 0.0000 167.000000 -2.000000
plat_stem
0 -512.0000 2624.0000 -128.0000 -1.0000 0.0000 0.0000 164.000000 -2.000000
0 -512.0000 2624.0000 16.0000 -1.0000 0.0000 0.0000 164.000000 0.250000
0 -512.0000 2672.0000 16.0000 -1.0000 0.0000 0.0000 167.000000 0.250000
plat_stem
0 -512.0000 2624.0000 16.0000 0.0000 1.0000 0.0000 -32.000000 0.250000
0 -592.0000 2624.0000 -128.0000 0.0000 1.0000 0.0000 -37.000000 -2.000000
0 -592.0000 2624.0000 16.0000 0.0000 1.0000 0.0000 -37.000000 0.250000
plat_stem
0 -512.0000 2624.0000 16.0000 0.0000 1.0000 0.0000 -32.000000 0.250000
0 -512.0000 2624.0000 -128.0000 0.0000 1.0000 0.0000 -32.000000 -2.000000
0 -592.0000 2624.0000 -128.0000 0.0000 1.0000 0.0000 -37.000000 -2.000000
plat_stem
0 -512.0000 2672.0000 16.0000 -0.0000 0.0000 -1.0000 -32.000000 41.750000
0 -592.0000 2624.0000 16.0000 -0.0000 0.0000 -1.0000 -37.000000 41.000000
0 -592.0000 2672.0000 16.0000 -0.0000 0.0000 -1.0000 -37.000000 41.750000
plat_stem
0 -512.0000 2672.0000 16.0000 0.0000 -0.0000 -1.0000 -32.000000 41.750000
0 -512.0000 2624.0000 16.0000 0.0000 -0.0000 -1.0000 -32.000000 41.000000
0 -592.0000 2624.0000 16.0000 0.0000 -0.0000 -1.0000 -37.000000 41.000000
plat_stem
0 -592.0000 2624.0000 -128.0000 0.0000 0.0000 1.0000 -37.000000 41.000000
0 -512.0000 2672.0000 -128.0000 0.0000 0.0000 1.0000 -32.000000 41.750000
0 -592.0000 2672.0000 -128.0000 0.0000 0.0000 1.0000 -37.000000 41.750000
plat_stem
0 -592.0000 2624.0000 -128.0000 0.0000 0.0000 1.0000 -37.000000 41.000000
0 -512.0000 2624.0000 -128.0000 0.0000 0.0000 1.0000 -32.000000 41.000000
0 -512.0000 2672.0000 -128.0000 0.0000 0.0000 1.0000 -32.000000 41.750000
plat_side1
0 -592.0000 2624.0000 32.0000 1.0000 -0.0000 0.0000 41.000000 2.000000
0 -592.0000 2688.0000 16.0000 1.0000 -0.0000 0.0000 42.000000 1.000000
0 -592.0000 2688.0000 32.0000 1.0000 -0.0000 0.0000 42.000000 2.000000
plat_side1
0 -592.0000 2624.0000 32.0000 1.0000 0.0000 0.0000 41.000000 2.000000
0 -592.0000 2624.0000 16.0000 1.0000 0.0000 0.0000 41.000000 1.000000
0 -592.0000 2688.0000 16.0000 1.0000 0.0000 0.0000 42.000000 1.000000
plat_side1
0 -592.0000 2688.0000 16.0000 0.0000 -1.0000 0.0000 -9.250000 1.000000
0 -496.0000 2688.0000 32.0000 0.0000 -1.0000 0.0000 -7.750000 2.000000
0 -592.0000 2688.0000 32.0000 0.0000 -1.0000 0.0000 -9.250000 2.000000
plat_side1
0 -592.0000 2688.0000 16.0000 0.0000 -1.0000 0.0000 -9.250000 1.000000
0 -496.0000 2688.0000 16.0000 0.0000 -1.0000 0.0000 -7.750000 1.000000
0 -496.0000 2688.0000 32.0000 0.0000 -1.0000 0.0000 -7.750000 2.000000
plat_side1
0 -496.0000 2688.0000 16.0000 -1.0000 0.0000 0.0000 42.000000 1.000000
0 -496.0000 2624.0000 32.0000 -1.0000 0.0000 0.0000 41.000000 2.000000
0 -496.0000 2688.0000 32.0000 -1.0000 0.0000 0.0000 42.000000 2.000000
plat_side1
0 -496.0000 2688.0000 16.0000 -1.0000 0.0000 0.0000 42.000000 1.000000
0 -496.0000 2624.0000 16.0000 -1.0000 0.0000 0.0000 41.000000 1.000000
0 -496.0000 2624.0000 32.0000 -1.0000 0.0000 0.0000 41.000000 2.000000
plat_side1
0 -496.0000 2624.0000 32.0000 0.0000 1.0000 0.0000 -7.750000 2.000000
0 -592.0000 2624.0000 16.0000 0.0000 1.0000 0.0000 -9.250000 1.000000
0 -592.0000 2624.0000 32.0000 0.0000 1.0000 0.0000 -9.250000 2.000000
plat_side1
0 -496.0000 2624.0000 32.0000 0.0000 1.0000 0.0000 -7.750000 2.000000
0 -496.0000 2624.0000 16.0000 0.0000 1.0000 0.0000 -7.750000 1.000000
0 -592.0000 2624.0000 16.0000 0.0000 1.0000 0.0000 -9.250000 1.000000
plat_top1
0 -496.0000 2688.0000 32.0000 -0.0000 0.0000 -1.0000 -7.750000 42.000000
0 -592.0000 2624.0000 32.0000 -0.0000 0.0000 -1.0000 -9.250000 41.000000
0 -592.0000 2688.0000 32.0000 -0.0000 0.0000 -1.0000 -9.250000 42.000000
plat_top1
0 -496.0000 2688.0000 32.0000 0.0000 -0.0000 -1.0000 -7.750000 42.000000
0 -496.0000 2624.0000 32.0000 0.0000 -0.0000 -1.0000 -7.750000 41.000000
0 -592.0000 2624.0000 32.0000 0.0000 -0.0000 -1.0000 -9.250000 41.000000
plat_top1
0 -592.0000 2624.0000 16.0000 0.0000 0.0000 1.0000 -9.250000 41.000000
0 -496.0000 2688.0000 16.0000 0.0000 0.0000 1.0000 -7.750000 42.000000
0 -592.0000 2688.0000 16.0000 0.0000 0.0000 1.0000 -9.250000 42.000000
plat_top1
0 -592.0000 2624.0000 16.0000 0.0000 0.0000 1.0000 -9.250000 41.000000
0 -496.0000 2624.0000 16.0000 0.0000 0.0000 1.0000 -7.750000 41.000000
0 -496.0000 2688.0000 16.0000 0.0000 0.0000 1.0000 -7.750000 42.000000
end
