version 1
nodes
0 "root" -1
end
skeleton
time 0
0 0 0 0 0 0 0
end
triangles
tech08_1
0 576.0000 2432.0000 0.0000 1.0000 -0.0000 0.0000 20.625000 -0.000000
0 576.0000 2544.0000 -128.0000 1.0000 -0.0000 0.0000 21.500000 -1.000000
0 576.0000 2544.0000 0.0000 1.0000 -0.0000 0.0000 21.500000 -0.000000
tech08_1
0 576.0000 2432.0000 0.0000 1.0000 0.0000 0.0000 20.625000 -0.000000
0 576.0000 2432.0000 -128.0000 1.0000 0.0000 0.0000 20.625000 -1.000000
0 576.0000 2544.0000 -128.0000 1.0000 0.0000 0.0000 21.500000 -1.000000
tech08_1
0 576.0000 2544.0000 -128.0000 0.0000 -1.0000 0.0000 6.125000 -1.000000
0 592.0000 2544.0000 0.0000 0.0000 -1.0000 0.0000 6.250000 -0.000000
0 576.0000 2544.0000 0.0000 0.0000 -1.0000 0.0000 6.125000 -0.000000
tech08_1
0 576.0000 2544.0000 -128.0000 0.0000 -1.0000 0.0000 6.125000 -1.000000
0 592.0000 2544.0000 -128.0000 0.0000 -1.0000 0.0000 6.250000 -1.000000
0 592.0000 2544.0000 0.0000 0.0000 -1.0000 0.0000 6.250000 -0.000000
tech08_1
0 592.0000 2544.0000 -128.0000 -1.0000 0.0000 0.0000 21.500000 -1.000000
0 592.0000 2432.0000 0.0000 -1.0000 0.0000 0.0000 20.625000 -0.000000
0 592.0000 2544.0000 0.0000 -1.0000 0.0000 0.0000 21.500000 -0.000000
tech08_1
0 592.0000 2544.0000 -128.0000 -1.0000 0.0000 0.0000 21.500000 -1.000000
0 592.0000 2432.0000 -128.0000 -1.0000 0.0000 0.0000 20.625000 -1.000000
0 592.0000 2432.0000 0.0000 -1.0000 0.0000 0.0000 20.625000 -0.000000
tech08_1
0 592.0000 2432.0000 0.0000 0.0000 1.0000 0.0000 6.250000 -0.000000
0 576.0000 2432.0000 -128.0000 0.0000 1.0000 0.0000 6.125000 -1.000000
0 576.0000 2432.0000 0.0000 0.0000 1.0000 0.0000 6.125000 -0.000000
tech08_1
0 592.0000 2432.0000 0.0000 0.0000 1.0000 0.0000 6.250000 -0.000000
0 592.0000 2432.0000 -128.0000 0.0000 1.0000 0.0000 6.250000 -1.000000
0 576.0000 2432.0000 -128.0000 0.0000 1.0000 0.0000 6.125000 -1.000000
tech08_1
0 592.0000 2544.0000 0.0000 -0.0000 0.0000 -1.0000 6.250000 19.875000
0 576.0000 2432.0000 0.0000 -0.0000 0.0000 -1.0000 6.125000 19.000000
0 576.0000 2544.0000 0.0000 -0.0000 0.0000 -1.0000 6.125000 19.875000
tech08_1
0 592.0000 2544.0000 0.0000 0.0000 -0.0000 -1.0000 6.250000 19.875000
0 592.0000 2432.0000 0.0000 0.0000 -0.0000 -1.0000 6.250000 19.000000
0 576.0000 2432.0000 0.0000 0.0000 -0.0000 -1.0000 6.125000 19.000000
tech08_1
0 592.0000 2432.0000 -128.0000 0.0000 0.0000 1.0000 6.250000 19.000000
0 576.0000 2544.0000 -128.0000 0.0000 0.0000 1.0000 6.125000 19.875000
0 576.0000 2432.0000 -128.0000 0.0000 0.0000 1.0000 6.125000 19.000000
tech08_1
0 592.0000 2432.0000 -128.0000 0.0000 -0.0000 1.0000 6.250000 19.000000
0 592.0000 2544.0000 -128.0000 0.0000 -0.0000 1.0000 6.250000 19.875000
0 576.0000 2544.0000 -128.0000 0.0000 -0.0000 1.0000 6.125000 19.875000
end
