version 1
nodes
0 "root" -1
end
skeleton
time 0
0 0 0 0 0 0 0
end
triangles
twall2_5
0 752.0000 2496.0000 0.0000 1.0000 -0.0000 0.0000 39.250000 -0.000000
0 752.0000 2528.0000 -112.0000 1.0000 -0.0000 0.0000 39.750000 -1.750000
0 752.0000 2528.0000 0.0000 1.0000 -0.0000 0.0000 39.750000 -0.000000
twall2_5
0 752.0000 2496.0000 0.0000 1.0000 0.0000 0.0000 39.250000 -0.000000
0 752.0000 2496.0000 -112.0000 1.0000 0.0000 0.0000 39.250000 -1.750000
0 752.0000 2528.0000 -112.0000 1.0000 0.0000 0.0000 39.750000 -1.750000
twall2_5
0 768.0000 2528.0000 -112.0000 0.0000 -1.0000 0.0000 12.250000 -1.750000
0 752.0000 2528.0000 0.0000 0.0000 -1.0000 0.0000 12.000000 -0.000000
0 752.0000 2528.0000 -112.0000 0.0000 -1.0000 0.0000 12.000000 -1.750000
twall2_5
0 768.0000 2528.0000 -112.0000 0.0000 -1.0000 0.0000 12.250000 -1.750000
0 768.0000 2528.0000 0.0000 0.0000 -1.0000 0.0000 12.250000 -0.000000
0 752.0000 2528.0000 0.0000 0.0000 -1.0000 0.0000 12.000000 -0.000000
twall2_5
0 768.0000 2496.0000 -112.0000 -1.0000 0.0000 0.0000 39.250000 -1.750000
0 768.0000 2528.0000 0.0000 -1.0000 0.0000 0.0000 39.750000 -0.000000
0 768.0000 2528.0000 -112.0000 -1.0000 0.0000 0.0000 39.750000 -1.750000
twall2_5
0 768.0000 2496.0000 -112.0000 -1.0000 0.0000 0.0000 39.250000 -1.750000
0 768.0000 2496.0000 0.0000 -1.0000 0.0000 0.0000 39.250000 -0.000000
0 768.0000 2528.0000 0.0000 -1.0000 0.0000 0.0000 39.750000 -0.000000
twall2_5
0 768.0000 2528.0000 0.0000 -0.0000 0.0000 -1.0000 12.250000 39.500000
0 752.0000 2496.0000 0.0000 -0.0000 0.0000 -1.0000 12.000000 39.000000
0 752.0000 2528.0000 0.0000 -0.0000 0.0000 -1.0000 12.000000 39.500000
twall2_5
0 768.0000 2528.0000 0.0000 0.0000 -0.0000 -1.0000 12.250000 39.500000
0 768.0000 2496.0000 0.0000 0.0000 -0.0000 -1.0000 12.250000 39.000000
0 752.0000 2496.0000 0.0000 0.0000 -0.0000 -1.0000 12.000000 39.000000
twall2_5
0 752.0000 2496.0000 -112.0000 0.0000 0.0000 1.0000 12.000000 39.000000
0 768.0000 2528.0000 -112.0000 0.0000 0.0000 1.0000 12.250000 39.500000
0 752.0000 2528.0000 -112.0000 0.0000 0.0000 1.0000 12.000000 39.500000
twall2_5
0 752.0000 2496.0000 -112.0000 0.0000 0.0000 1.0000 12.000000 39.000000
0 768.0000 2496.0000 -112.0000 0.0000 0.0000 1.0000 12.250000 39.000000
0 768.0000 2528.0000 -112.0000 0.0000 0.0000 1.0000 12.250000 39.500000
twall2_5
0 768.0000 2496.0000 0.0000 0.0000 1.0000 0.0000 12.250000 -0.000000
0 752.0000 2496.0000 -112.0000 0.0000 1.0000 0.0000 12.000000 -1.750000
0 752.0000 2496.0000 0.0000 0.0000 1.0000 0.0000 12.000000 -0.000000
twall2_5
0 768.0000 2496.0000 0.0000 0.0000 1.0000 0.0000 12.250000 -0.000000
0 768.0000 2496.0000 -112.0000 0.0000 1.0000 0.0000 12.250000 -1.750000
0 752.0000 2496.0000 -112.0000 0.0000 1.0000 0.0000 12.000000 -1.750000
twall2_5
0 768.0000 2496.0000 -112.0000 -1.0000 0.0000 0.0000 39.250000 -1.750000
0 768.0000 2432.0000 0.0000 -1.0000 0.0000 0.0000 38.250000 -0.000000
0 768.0000 2496.0000 0.0000 -1.0000 0.0000 0.0000 39.250000 -0.000000
twall2_5
0 768.0000 2496.0000 -112.0000 -1.0000 0.0000 0.0000 39.250000 -1.750000
0 768.0000 2432.0000 -112.0000 -1.0000 0.0000 0.0000 38.250000 -1.750000
0 768.0000 2432.0000 0.0000 -1.0000 0.0000 0.0000 38.250000 -0.000000
twall2_5
0 768.0000 2432.0000 -112.0000 0.0000 1.0000 -0.0000 12.250000 -1.750000
0 760.0000 2432.0000 0.0000 0.0000 1.0000 -0.0000 12.125000 -0.000000
0 768.0000 2432.0000 0.0000 0.0000 1.0000 -0.0000 12.250000 -0.000000
twall2_5
0 768.0000 2432.0000 -112.0000 0.0000 1.0000 0.0000 12.250000 -1.750000
0 760.0000 2432.0000 -112.0000 0.0000 1.0000 0.0000 12.125000 -1.750000
0 760.0000 2432.0000 0.0000 0.0000 1.0000 0.0000 12.125000 -0.000000
twall2_5
0 760.0000 2432.0000 0.0000 0.0000 0.0000 -1.0000 12.125000 38.000000
0 768.0000 2496.0000 0.0000 0.0000 0.0000 -1.0000 12.250000 39.000000
0 768.0000 2432.0000 0.0000 0.0000 0.0000 -1.0000 12.250000 38.000000
twall2_5
0 760.0000 2432.0000 0.0000 0.0000 0.0000 -1.0000 12.125000 38.000000
0 760.0000 2496.0000 0.0000 0.0000 0.0000 -1.0000 12.125000 39.000000
0 768.0000 2496.0000 0.0000 0.0000 0.0000 -1.0000 12.250000 39.000000
twall2_5
0 768.0000 2496.0000 -112.0000 0.0000 0.0000 1.0000 12.250000 39.000000
0 760.0000 2432.0000 -112.0000 0.0000 0.0000 1.0000 12.125000 38.000000
0 768.0000 2432.0000 -112.0000 0.0000 0.0000 1.0000 12.250000 38.000000
twall2_5
0 768.0000 2496.0000 -112.0000 0.0000 0.0000 1.0000 12.250000 39.000000
0 760.0000 2496.0000 -112.0000 0.0000 0.0000 1.0000 12.125000 39.000000
0 760.0000 2432.0000 -112.0000 0.0000 0.0000 1.0000 12.125000 38.000000
twall2_5
0 760.0000 2496.0000 0.0000 0.0000 -1.0000 0.0000 12.125000 -0.000000
0 768.0000 2496.0000 -112.0000 0.0000 -1.0000 0.0000 12.250000 -1.750000
0 768.0000 2496.0000 0.0000 0.0000 -1.0000 0.0000 12.250000 -0.000000
twall2_5
0 760.0000 2496.0000 0.0000 0.0000 -1.0000 0.0000 12.125000 -0.000000
0 760.0000 2496.0000 -112.0000 0.0000 -1.0000 0.0000 12.125000 -1.750000
0 768.0000 2496.0000 -112.0000 0.0000 -1.0000 0.0000 12.250000 -1.750000
twall2_5
0 760.0000 2432.0000 -112.0000 1.0000 0.0000 0.0000 38.250000 -1.750000
0 760.0000 2496.0000 0.0000 1.0000 0.0000 0.0000 39.250000 -0.000000
0 760.0000 2432.0000 0.0000 1.0000 0.0000 0.0000 38.250000 -0.000000
twall2_5
0 760.0000 2432.0000 -112.0000 1.0000 0.0000 0.0000 38.250000 -1.750000
0 760.0000 2496.0000 -112.0000 1.0000 0.0000 0.0000 39.250000 -1.750000
0 760.0000 2496.0000 0.0000 1.0000 0.0000 0.0000 39.250000 -0.000000
twall2_5
0 752.0000 2464.0000 -112.0000 1.0000 0.0000 0.0000 38.750000 -1.750000
0 752.0000 2432.0000 0.0000 1.0000 0.0000 0.0000 38.250000 -0.000000
0 752.0000 2432.0000 -112.0000 1.0000 0.0000 0.0000 38.250000 -1.750000
twall2_5
0 752.0000 2464.0000 -112.0000 1.0000 0.0000 -0.0000 38.750000 -1.750000
0 752.0000 2464.0000 0.0000 1.0000 0.0000 -0.0000 38.750000 -0.000000
0 752.0000 2432.0000 0.0000 1.0000 0.0000 -0.0000 38.250000 -0.000000
twall2_5
0 760.0000 2432.0000 0.0000 0.0000 1.0000 0.0000 12.125000 -0.000000
0 752.0000 2432.0000 -112.0000 0.0000 1.0000 0.0000 12.000000 -1.750000
0 752.0000 2432.0000 0.0000 0.0000 1.0000 0.0000 12.000000 -0.000000
twall2_5
0 760.0000 2432.0000 0.0000 0.0000 1.0000 0.0000 12.125000 -0.000000
0 760.0000 2432.0000 -112.0000 0.0000 1.0000 0.0000 12.125000 -1.750000
0 752.0000 2432.0000 -112.0000 0.0000 1.0000 0.0000 12.000000 -1.750000
twall2_5
0 752.0000 2464.0000 0.0000 0.0000 0.0000 -1.0000 12.000000 38.500000
0 760.0000 2432.0000 0.0000 0.0000 0.0000 -1.0000 12.125000 38.000000
0 752.0000 2432.0000 0.0000 0.0000 0.0000 -1.0000 12.000000 38.000000
twall2_5
0 752.0000 2464.0000 0.0000 0.0000 0.0000 -1.0000 12.000000 38.500000
0 760.0000 2464.0000 0.0000 0.0000 0.0000 -1.0000 12.125000 38.500000
0 760.0000 2432.0000 0.0000 0.0000 0.0000 -1.0000 12.125000 38.000000
twall2_5
0 760.0000 2432.0000 -112.0000 0.0000 0.0000 1.0000 12.125000 38.000000
0 752.0000 2464.0000 -112.0000 0.0000 0.0000 1.0000 12.000000 38.500000
0 752.0000 2432.0000 -112.0000 0.0000 0.0000 1.0000 12.000000 38.000000
twall2_5
0 760.0000 2432.0000 -112.0000 0.0000 -0.0000 1.0000 12.125000 38.000000
0 760.0000 2464.0000 -112.0000 0.0000 -0.0000 1.0000 12.125000 38.500000
0 752.0000 2464.0000 -112.0000 0.0000 -0.0000 1.0000 12.000000 38.500000
twall2_5
0 760.0000 2464.0000 0.0000 -1.0000 -0.0000 0.0000 38.750000 -0.000000
0 760.0000 2432.0000 -112.0000 -1.0000 -0.0000 0.0000 38.250000 -1.750000
0 760.0000 2432.0000 0.0000 -1.0000 -0.0000 0.0000 38.250000 -0.000000
twall2_5
0 760.0000 2464.0000 0.0000 -1.0000 0.0000 -0.0000 38.750000 -0.000000
0 760.0000 2464.0000 -112.0000 -1.0000 0.0000 -0.0000 38.750000 -1.750000
0 760.0000 2432.0000 -112.0000 -1.0000 0.0000 -0.0000 38.250000 -1.750000
twall2_5
0 752.0000 2464.0000 -112.0000 0.0000 -1.0000 0.0000 12.000000 -1.750000
0 760.0000 2464.0000 0.0000 0.0000 -1.0000 0.0000 12.125000 -0.000000
0 752.0000 2464.0000 0.0000 0.0000 -1.0000 0.0000 12.000000 -0.000000
twall2_5
0 752.0000 2464.0000 -112.0000 0.0000 -1.0000 0.0000 12.000000 -1.750000
0 760.0000 2464.0000 -112.0000 0.0000 -1.0000 0.0000 12.125000 -1.750000
0 760.0000 2464.0000 0.0000 0.0000 -1.0000 0.0000 12.125000 -0.000000
twall2_5
0 752.0000 2464.0000 0.0000 1.0000 -0.0000 0.0000 38.750000 -0.000000
0 752.0000 2496.0000 -48.0000 1.0000 -0.0000 0.0000 39.250000 -0.750000
0 752.0000 2496.0000 0.0000 1.0000 -0.0000 0.0000 39.250000 -0.000000
twall2_5
0 752.0000 2464.0000 0.0000 1.0000 0.0000 0.0000 38.750000 -0.000000
0 752.0000 2464.0000 -48.0000 1.0000 0.0000 0.0000 38.750000 -0.750000
0 752.0000 2496.0000 -48.0000 1.0000 0.0000 0.0000 39.250000 -0.750000
twall2_5
0 760.0000 2496.0000 0.0000 -0.0000 0.0000 -1.0000 12.125000 39.000000
0 752.0000 2464.0000 0.0000 -0.0000 0.0000 -1.0000 12.000000 38.500000
0 752.0000 2496.0000 0.0000 -0.0000 0.0000 -1.0000 12.000000 39.000000
twall2_5
0 760.0000 2496.0000 0.0000 0.0000 -0.0000 -1.0000 12.125000 39.000000
0 760.0000 2464.0000 0.0000 0.0000 -0.0000 -1.0000 12.125000 38.500000
0 752.0000 2464.0000 0.0000 0.0000 -0.0000 -1.0000 12.000000 38.500000
twall2_5
0 752.0000 2496.0000 -48.0000 0.0000 -1.0000 0.0000 12.000000 -0.750000
0 760.0000 2496.0000 0.0000 0.0000 -1.0000 0.0000 12.125000 -0.000000
0 752.0000 2496.0000 0.0000 0.0000 -1.0000 0.0000 12.000000 -0.000000
twall2_5
0 752.0000 2496.0000 -48.0000 0.0000 -1.0000 0.0000 12.000000 -0.750000
0 760.0000 2496.0000 -48.0000 0.0000 -1.0000 0.0000 12.125000 -0.750000
0 760.0000 2496.0000 0.0000 0.0000 -1.0000 0.0000 12.125000 -0.000000
twall2_5
0 760.0000 2496.0000 -48.0000 -1.0000 0.0000 0.0000 39.250000 -0.750000
0 760.0000 2464.0000 0.0000 -1.0000 0.0000 0.0000 38.750000 -0.000000
0 760.0000 2496.0000 0.0000 -1.0000 0.0000 0.0000 39.250000 -0.000000
twall2_5
0 760.0000 2496.0000 -48.0000 -1.0000 0.0000 0.0000 39.250000 -0.750000
0 760.0000 2464.0000 -48.0000 -1.0000 0.0000 0.0000 38.750000 -0.750000
0 760.0000 2464.0000 0.0000 -1.0000 0.0000 0.0000 38.750000 -0.000000
twall2_5
0 760.0000 2464.0000 0.0000 0.0000 1.0000 0.0000 12.125000 -0.000000
0 752.0000 2464.0000 -48.0000 0.0000 1.0000 0.0000 12.000000 -0.750000
0 752.0000 2464.0000 0.0000 0.0000 1.0000 0.0000 12.000000 -0.000000
twall2_5
0 760.0000 2464.0000 0.0000 0.0000 1.0000 0.0000 12.125000 -0.000000
0 760.0000 2464.0000 -48.0000 0.0000 1.0000 0.0000 12.125000 -0.750000
0 752.0000 2464.0000 -48.0000 0.0000 1.0000 0.0000 12.000000 -0.750000
twall2_5
0 752.0000 2464.0000 -48.0000 0.0000 0.0000 1.0000 12.000000 38.500000
0 760.0000 2496.0000 -48.0000 0.0000 0.0000 1.0000 12.125000 39.000000
0 752.0000 2496.0000 -48.0000 0.0000 0.0000 1.0000 12.000000 39.000000
twall2_5
0 752.0000 2464.0000 -48.0000 0.0000 0.0000 1.0000 12.000000 38.500000
0 760.0000 2464.0000 -48.0000 0.0000 0.0000 1.0000 12.125000 38.500000
0 760.0000 2496.0000 -48.0000 0.0000 0.0000 1.0000 12.125000 39.000000
twall2_5
0 752.0000 2496.0000 -80.0000 1.0000 0.0000 0.0000 39.250000 -1.250000
0 752.0000 2464.0000 -112.0000 1.0000 0.0000 0.0000 38.750000 -1.750000
0 752.0000 2496.0000 -112.0000 1.0000 0.0000 0.0000 39.250000 -1.750000
twall2_5
0 752.0000 2496.0000 -80.0000 1.0000 0.0000 0.0000 39.250000 -1.250000
0 752.0000 2464.0000 -80.0000 1.0000 0.0000 0.0000 38.750000 -1.250000
0 752.0000 2464.0000 -112.0000 1.0000 0.0000 0.0000 38.750000 -1.750000
twall2_5
0 752.0000 2464.0000 -112.0000 0.0000 0.0000 1.0000 12.000000 38.500000
0 760.0000 2496.0000 -112.0000 0.0000 0.0000 1.0000 12.125000 39.000000
0 752.0000 2496.0000 -112.0000 0.0000 0.0000 1.0000 12.000000 39.000000
twall2_5
0 752.0000 2464.0000 -112.0000 0.0000 0.0000 1.0000 12.000000 38.500000
0 760.0000 2464.0000 -112.0000 0.0000 0.0000 1.0000 12.125000 38.500000
0 760.0000 2496.0000 -112.0000 0.0000 0.0000 1.0000 12.125000 39.000000
twall2_5
0 760.0000 2496.0000 -112.0000 0.0000 -1.0000 0.0000 12.125000 -1.750000
0 752.0000 2496.0000 -80.0000 0.0000 -1.0000 0.0000 12.000000 -1.250000
0 752.0000 2496.0000 -112.0000 0.0000 -1.0000 0.0000 12.000000 -1.750000
twall2_5
0 760.0000 2496.0000 -112.0000 0.0000 -1.0000 0.0000 12.125000 -1.750000
0 760.0000 2496.0000 -80.0000 0.0000 -1.0000 0.0000 12.125000 -1.250000
0 752.0000 2496.0000 -80.0000 0.0000 -1.0000 0.0000 12.000000 -1.250000
twall2_5
0 760.0000 2464.0000 -112.0000 -1.0000 0.0000 0.0000 38.750000 -1.750000
0 760.0000 2496.0000 -80.0000 -1.0000 0.0000 0.0000 39.250000 -1.250000
0 760.0000 2496.0000 -112.0000 -1.0000 0.0000 0.0000 39.250000 -1.750000
twall2_5
0 760.0000 2464.0000 -112.0000 -1.0000 0.0000 0.0000 38.750000 -1.750000
0 760.0000 2464.0000 -80.0000 -1.0000 0.0000 0.0000 38.750000 -1.250000
0 760.0000 2496.0000 -80.0000 -1.0000 0.0000 0.0000 39.250000 -1.250000
twall2_5
0 752.0000 2464.0000 -80.0000 0.0000 1.0000 0.0000 12.000000 -1.250000
0 760.0000 2464.0000 -112.0000 0.0000 1.0000 0.0000 12.125000 -1.750000
0 752.0000 2464.0000 -112.0000 0.0000 1.0000 0.0000 12.000000 -1.750000
twall2_5
0 752.0000 2464.0000 -80.0000 -0.0000 1.0000 0.0000 12.000000 -1.250000
0 760.0000 2464.0000 -80.0000 -0.0000 1.0000 0.0000 12.125000 -1.250000
0 760.0000 2464.0000 -112.0000 -0.0000 1.0000 0.0000 12.125000 -1.750000
twall2_5
0 760.0000 2496.0000 -80.0000 -0.0000 0.0000 -1.0000 12.125000 39.000000
0 752.0000 2464.0000 -80.0000 -0.0000 0.0000 -1.0000 12.000000 38.500000
0 752.0000 2496.0000 -80.0000 -0.0000 0.0000 -1.0000 12.000000 39.000000
twall2_5
0 760.0000 2496.0000 -80.0000 0.0000 -0.0000 -1.0000 12.125000 39.000000
0 760.0000 2464.0000 -80.0000 0.0000 -0.0000 -1.0000 12.125000 38.500000
0 752.0000 2464.0000 -80.0000 0.0000 -0.0000 -1.0000 12.000000 38.500000
basebutn3
0 752.0000 2464.0000 -48.0000 1.0000 -0.0000 0.0000 77.000000 -2.000000
0 752.0000 2496.0000 -80.0000 1.0000 -0.0000 0.0000 78.000000 -3.000000
0 752.0000 2496.0000 -48.0000 1.0000 -0.0000 0.0000 78.000000 -2.000000
basebutn3
0 752.0000 2464.0000 -48.0000 1.0000 0.0000 0.0000 77.000000 -2.000000
0 752.0000 2464.0000 -80.0000 1.0000 0.0000 0.0000 77.000000 -3.000000
0 752.0000 2496.0000 -80.0000 1.0000 0.0000 0.0000 78.000000 -3.000000
basebutn3
0 752.0000 2496.0000 -80.0000 0.0000 -1.0000 0.0000 23.500000 -3.000000
0 760.0000 2496.0000 -48.0000 0.0000 -1.0000 0.0000 23.750000 -2.000000
0 752.0000 2496.0000 -48.0000 0.0000 -1.0000 0.0000 23.500000 -2.000000
basebutn3
0 752.0000 2496.0000 -80.0000 0.0000 -1.0000 0.0000 23.500000 -3.000000
0 760.0000 2496.0000 -80.0000 0.0000 -1.0000 0.0000 23.750000 -3.000000
0 760.0000 2496.0000 -48.0000 0.0000 -1.0000 0.0000 23.750000 -2.000000
basebutn3
0 760.0000 2496.0000 -80.0000 -1.0000 0.0000 0.0000 78.000000 -3.000000
0 760.0000 2464.0000 -48.0000 -1.0000 0.0000 0.0000 77.000000 -2.000000
0 760.0000 2496.0000 -48.0000 -1.0000 0.0000 0.0000 78.000000 -2.000000
basebutn3
0 760.0000 2496.0000 -80.0000 -1.0000 0.0000 0.0000 78.000000 -3.000000
0 760.0000 2464.0000 -80.0000 -1.0000 0.0000 0.0000 77.000000 -3.000000
0 760.0000 2464.0000 -48.0000 -1.0000 0.0000 0.0000 77.000000 -2.000000
basebutn3
0 760.0000 2464.0000 -48.0000 0.0000 1.0000 0.0000 23.750000 -2.000000
0 752.0000 2464.0000 -80.0000 0.0000 1.0000 0.0000 23.500000 -3.000000
0 752.0000 2464.0000 -48.0000 0.0000 1.0000 0.0000 23.500000 -2.000000
basebutn3
0 760.0000 2464.0000 -48.0000 0.0000 1.0000 0.0000 23.750000 -2.000000
0 760.0000 2464.0000 -80.0000 0.0000 1.0000 0.0000 23.750000 -3.000000
0 752.0000 2464.0000 -80.0000 0.0000 1.0000 0.0000 23.500000 -3.000000
basebutn3
0 760.0000 2496.0000 -48.0000 -0.0000 0.0000 -1.0000 23.750000 77.500000
0 752.0000 2464.0000 -48.0000 -0.0000 0.0000 -1.0000 23.500000 76.500000
0 752.0000 2496.0000 -48.0000 -0.0000 0.0000 -1.0000 23.500000 77.500000
basebutn3
0 760.0000 2496.0000 -48.0000 0.0000 -0.0000 -1.0000 23.750000 77.500000
0 760.0000 2464.0000 -48.0000 0.0000 -0.0000 -1.0000 23.750000 76.500000
0 752.0000 2464.0000 -48.0000 0.0000 -0.0000 -1.0000 23.500000 76.500000
basebutn3
0 752.0000 2464.0000 -80.0000 0.0000 0.0000 1.0000 23.500000 76.500000
0 760.0000 2496.0000 -80.0000 0.0000 0.0000 1.0000 23.750000 77.500000
0 752.0000 2496.0000 -80.0000 0.0000 0.0000 1.0000 23.500000 77.500000
basebutn3
0 752.0000 2464.0000 -80.0000 0.0000 0.0000 1.0000 23.500000 76.500000
0 760.0000 2464.0000 -80.0000 0.0000 0.0000 1.0000 23.750000 76.500000
0 760.0000 2496.0000 -80.0000 0.0000 0.0000 1.0000 23.750000 77.500000
end
