version 1
nodes
0 "root" -1
end
skeleton
time 0
0 0 0 0 0 0 0
end
triangles
edoor01_1
0 64.0000 1776.0000 -208.0000 0.0000 0.0000 1.0000 2.000000 13.500000
0 96.0000 1824.0000 -208.0000 0.0000 0.0000 1.0000 2.250000 13.875000
0 64.0000 1824.0000 -208.0000 0.0000 0.0000 1.0000 2.000000 13.875000
edoor01_1
0 64.0000 1776.0000 -208.0000 0.0000 0.0000 1.0000 2.000000 13.500000
0 96.0000 1776.0000 -208.0000 0.0000 0.0000 1.0000 2.250000 13.500000
0 96.0000 1824.0000 -208.0000 0.0000 0.0000 1.0000 2.250000 13.875000
edoor01_1
0 64.0000 1824.0000 -160.0000 1.0000 0.0000 0.0000 15.750000 -1.625000
0 64.0000 1776.0000 -208.0000 1.0000 0.0000 0.0000 15.375000 -2.000000
0 64.0000 1824.0000 -208.0000 1.0000 0.0000 0.0000 15.750000 -2.000000
edoor01_1
0 64.0000 1824.0000 -160.0000 1.0000 0.0000 0.0000 15.750000 -1.625000
0 64.0000 1776.0000 -160.0000 1.0000 0.0000 0.0000 15.375000 -1.625000
0 64.0000 1776.0000 -208.0000 1.0000 0.0000 0.0000 15.375000 -2.000000
door02_1
0 124.0000 1776.0000 -160.0000 0.0000 0.0000 -1.0000 7.750000 13.875000
0 64.0000 1824.0000 -160.0000 0.0000 0.0000 -1.0000 4.000000 14.250000
0 124.0000 1824.0000 -160.0000 0.0000 0.0000 -1.0000 7.750000 14.250000
door02_1
0 124.0000 1776.0000 -160.0000 0.0000 0.0000 -1.0000 7.750000 13.875000
0 64.0000 1776.0000 -160.0000 0.0000 0.0000 -1.0000 4.000000 13.875000
0 64.0000 1824.0000 -160.0000 0.0000 0.0000 -1.0000 4.000000 14.250000
edoor01_1
0 124.0000 1824.0000 -160.0000 0.0000 -1.0000 0.0000 2.468750 -1.625000
0 64.0000 1824.0000 -208.0000 0.0000 -1.0000 0.0000 2.000000 -2.000000
0 96.0000 1824.0000 -208.0000 0.0000 -1.0000 0.0000 2.250000 -2.000000
edoor01_1
0 124.0000 1824.0000 -160.0000 -0.0000 -1.0000 0.0000 2.468750 -1.625000
0 64.0000 1824.0000 -160.0000 -0.0000 -1.0000 0.0000 2.000000 -1.625000
0 64.0000 1824.0000 -208.0000 -0.0000 -1.0000 0.0000 2.000000 -2.000000
edoor01_1
0 64.0000 1776.0000 -160.0000 0.0000 1.0000 0.0000 2.000000 -1.625000
0 96.0000 1776.0000 -208.0000 0.0000 1.0000 0.0000 2.250000 -2.000000
0 64.0000 1776.0000 -208.0000 0.0000 1.0000 0.0000 2.000000 -2.000000
edoor01_1
0 64.0000 1776.0000 -160.0000 -0.0000 1.0000 0.0000 2.000000 -1.625000
0 124.0000 1776.0000 -160.0000 -0.0000 1.0000 0.0000 2.468750 -1.625000
0 96.0000 1776.0000 -208.0000 -0.0000 1.0000 0.0000 2.250000 -2.000000
door02_1
0 96.0000 1776.0000 -208.0000 -0.8638 0.0000 0.5039 111.000000 -1.625000
0 124.0000 1824.0000 -160.0000 -0.8638 0.0000 0.5039 114.000000 -1.250000
0 96.0000 1824.0000 -208.0000 -0.8638 0.0000 0.5039 114.000000 -1.625000
door02_1
0 96.0000 1776.0000 -208.0000 -0.8638 0.0000 0.5039 111.000000 -1.625000
0 124.0000 1776.0000 -160.0000 -0.8638 0.0000 0.5039 111.000000 -1.250000
0 124.0000 1824.0000 -160.0000 -0.8638 0.0000 0.5039 114.000000 -1.250000
door02_1
0 140.0000 1776.0000 -128.0000 0.0000 0.0000 1.0000 8.750000 13.875000
0 64.0000 1824.0000 -128.0000 0.0000 0.0000 1.0000 4.000000 14.250000
0 64.0000 1776.0000 -128.0000 0.0000 0.0000 1.0000 4.000000 13.875000
door02_1
0 140.0000 1776.0000 -128.0000 0.0000 -0.0000 1.0000 8.750000 13.875000
0 140.0000 1824.0000 -128.0000 0.0000 -0.0000 1.0000 8.750000 14.250000
0 64.0000 1824.0000 -128.0000 0.0000 -0.0000 1.0000 4.000000 14.250000
edoor01_1
0 64.0000 1824.0000 -80.0000 1.0000 0.0000 0.0000 15.750000 -1.000000
0 64.0000 1776.0000 -128.0000 1.0000 0.0000 0.0000 15.375000 -1.375000
0 64.0000 1824.0000 -128.0000 1.0000 0.0000 0.0000 15.750000 -1.375000
edoor01_1
0 64.0000 1824.0000 -80.0000 1.0000 0.0000 0.0000 15.750000 -1.000000
0 64.0000 1776.0000 -80.0000 1.0000 0.0000 0.0000 15.375000 -1.000000
0 64.0000 1776.0000 -128.0000 1.0000 0.0000 0.0000 15.375000 -1.375000
edoor01_1
0 168.0000 1824.0000 -80.0000 -0.0000 0.0000 -1.0000 2.812500 13.875000
0 64.0000 1776.0000 -80.0000 -0.0000 0.0000 -1.0000 2.000000 13.500000
0 64.0000 1824.0000 -80.0000 -0.0000 0.0000 -1.0000 2.000000 13.875000
edoor01_1
0 168.0000 1824.0000 -80.0000 0.0000 -0.0000 -1.0000 2.812500 13.875000
0 168.0000 1776.0000 -80.0000 0.0000 -0.0000 -1.0000 2.812500 13.500000
0 64.0000 1776.0000 -80.0000 0.0000 -0.0000 -1.0000 2.000000 13.500000
edoor01_1
0 168.0000 1824.0000 -80.0000 0.0000 -1.0000 0.0000 2.812500 -1.000000
0 64.0000 1824.0000 -128.0000 0.0000 -1.0000 0.0000 2.000000 -1.375000
0 140.0000 1824.0000 -128.0000 0.0000 -1.0000 0.0000 2.593750 -1.375000
edoor01_1
0 168.0000 1824.0000 -80.0000 -0.0000 -1.0000 0.0000 2.812500 -1.000000
0 64.0000 1824.0000 -80.0000 -0.0000 -1.0000 0.0000 2.000000 -1.000000
0 64.0000 1824.0000 -128.0000 -0.0000 -1.0000 0.0000 2.000000 -1.375000
edoor01_1
0 64.0000 1776.0000 -80.0000 0.0000 1.0000 0.0000 2.000000 -1.000000
0 140.0000 1776.0000 -128.0000 0.0000 1.0000 0.0000 2.593750 -1.375000
0 64.0000 1776.0000 -128.0000 0.0000 1.0000 0.0000 2.000000 -1.375000
edoor01_1
0 64.0000 1776.0000 -80.0000 -0.0000 1.0000 0.0000 2.000000 -1.000000
0 168.0000 1776.0000 -80.0000 -0.0000 1.0000 0.0000 2.812500 -1.000000
0 140.0000 1776.0000 -128.0000 -0.0000 1.0000 0.0000 2.593750 -1.375000
door02_1
0 140.0000 1776.0000 -128.0000 -0.8638 0.0000 0.5039 111.000000 -1.000000
0 168.0000 1824.0000 -80.0000 -0.8638 0.0000 0.5039 114.000000 -0.625000
0 140.0000 1824.0000 -128.0000 -0.8638 0.0000 0.5039 114.000000 -1.000000
door02_1
0 140.0000 1776.0000 -128.0000 -0.8638 0.0000 0.5039 111.000000 -1.000000
0 168.0000 1776.0000 -80.0000 -0.8638 0.0000 0.5039 111.000000 -0.625000
0 168.0000 1824.0000 -80.0000 -0.8638 0.0000 0.5039 114.000000 -0.625000
edoor01_1
0 64.0000 1776.0000 -160.0000 0.0000 0.0000 1.0000 2.000000 13.500000
0 90.0000 1824.0000 -160.0000 0.0000 0.0000 1.0000 2.203125 13.875000
0 64.0000 1824.0000 -160.0000 0.0000 0.0000 1.0000 2.000000 13.875000
edoor01_1
0 64.0000 1776.0000 -160.0000 0.0000 0.0000 1.0000 2.000000 13.500000
0 90.0000 1776.0000 -160.0000 0.0000 0.0000 1.0000 2.203125 13.500000
0 90.0000 1824.0000 -160.0000 0.0000 0.0000 1.0000 2.203125 13.875000
door02_1
0 64.0000 1824.0000 -128.0000 1.0000 0.0000 0.0000 114.000000 -1.000000
0 64.0000 1776.0000 -160.0000 1.0000 0.0000 0.0000 111.000000 -1.250000
0 64.0000 1824.0000 -160.0000 1.0000 0.0000 0.0000 114.000000 -1.250000
door02_1
0 64.0000 1824.0000 -128.0000 1.0000 0.0000 0.0000 114.000000 -1.000000
0 64.0000 1776.0000 -128.0000 1.0000 0.0000 0.0000 111.000000 -1.000000
0 64.0000 1776.0000 -160.0000 1.0000 0.0000 0.0000 111.000000 -1.250000
door02_1
0 110.5714 1776.0000 -128.0000 0.0000 0.0000 -1.0000 6.910714 13.875000
0 64.0000 1824.0000 -128.0000 0.0000 0.0000 -1.0000 4.000000 14.250000
0 110.5714 1824.0000 -128.0000 0.0000 0.0000 -1.0000 6.910714 14.250000
door02_1
0 110.5714 1776.0000 -128.0000 0.0000 0.0000 -1.0000 6.910714 13.875000
0 64.0000 1776.0000 -128.0000 0.0000 0.0000 -1.0000 4.000000 13.875000
0 64.0000 1824.0000 -128.0000 0.0000 0.0000 -1.0000 4.000000 14.250000
edoor01_1
0 110.5714 1824.0000 -128.0000 0.0000 -1.0000 0.0000 2.363839 -1.375000
0 64.0000 1824.0000 -160.0000 0.0000 -1.0000 0.0000 2.000000 -1.625000
0 90.0000 1824.0000 -160.0000 0.0000 -1.0000 0.0000 2.203125 -1.625000
edoor01_1
0 110.5714 1824.0000 -128.0000 -0.0000 -1.0000 0.0000 2.363839 -1.375000
0 64.0000 1824.0000 -128.0000 -0.0000 -1.0000 0.0000 2.000000 -1.375000
0 64.0000 1824.0000 -160.0000 -0.0000 -1.0000 0.0000 2.000000 -1.625000
edoor01_1
0 64.0000 1776.0000 -128.0000 0.0000 1.0000 0.0000 2.000000 -1.375000
0 90.0000 1776.0000 -160.0000 0.0000 1.0000 0.0000 2.203125 -1.625000
0 64.0000 1776.0000 -160.0000 0.0000 1.0000 0.0000 2.000000 -1.625000
edoor01_1
0 64.0000 1776.0000 -128.0000 -0.0000 1.0000 0.0000 2.000000 -1.375000
0 110.5714 1776.0000 -128.0000 -0.0000 1.0000 0.0000 2.363839 -1.375000
0 90.0000 1776.0000 -160.0000 -0.0000 1.0000 0.0000 2.203125 -1.625000
door02_1
0 90.0000 1776.0000 -160.0000 -0.8412 0.0000 0.5408 111.000000 -1.250000
0 110.5714 1824.0000 -128.0000 -0.8412 0.0000 0.5408 114.000000 -1.000000
0 90.0000 1824.0000 -160.0000 -0.8412 0.0000 0.5408 114.000000 -1.250000
door02_1
0 90.0000 1776.0000 -160.0000 -0.8412 0.0000 0.5408 111.000000 -1.250000
0 110.5714 1776.0000 -128.0000 -0.8412 0.0000 0.5408 111.000000 -1.000000
0 110.5714 1824.0000 -128.0000 -0.8412 0.0000 0.5408 114.000000 -1.000000
end
