version 1
nodes
0 "root" -1
end
skeleton
time 0
0 0 0 0 0 0 0
end
triangles
tech08_1
0 -320.0000 2880.0000 -80.0000 1.0000 0.0000 0.0000 22.500000 -2.000000
0 -320.0000 2944.0000 0.0000 1.0000 0.0000 0.0000 23.000000 -1.375000
0 -320.0000 2880.0000 0.0000 1.0000 0.0000 0.0000 22.500000 -1.375000
tech08_1
0 -320.0000 2880.0000 -80.0000 1.0000 0.0000 0.0000 22.500000 -2.000000
0 -320.0000 2944.0000 -80.0000 1.0000 0.0000 0.0000 23.000000 -2.000000
0 -320.0000 2944.0000 0.0000 1.0000 0.0000 0.0000 23.000000 -1.375000
tech04_3
0 -320.0000 2944.0000 -80.0000 0.0000 -1.0000 0.0000 -20.000000 -0.625000
0 -304.0000 2944.0000 0.0000 0.0000 -1.0000 0.0000 -19.000000 -0.000000
0 -320.0000 2944.0000 0.0000 0.0000 -1.0000 0.0000 -20.000000 -0.000000
tech04_3
0 -320.0000 2944.0000 -80.0000 0.0000 -1.0000 0.0000 -20.000000 -0.625000
0 -304.0000 2944.0000 -80.0000 0.0000 -1.0000 0.0000 -19.000000 -0.625000
0 -304.0000 2944.0000 0.0000 0.0000 -1.0000 0.0000 -19.000000 -0.000000
tech08_1
0 -304.0000 2944.0000 -80.0000 -1.0000 0.0000 0.0000 23.000000 -2.000000
0 -304.0000 2880.0000 0.0000 -1.0000 0.0000 0.0000 22.500000 -1.375000
0 -304.0000 2944.0000 0.0000 -1.0000 0.0000 0.0000 23.000000 -1.375000
tech08_1
0 -304.0000 2944.0000 -80.0000 -1.0000 0.0000 0.0000 23.000000 -2.000000
0 -304.0000 2880.0000 -80.0000 -1.0000 0.0000 0.0000 22.500000 -2.000000
0 -304.0000 2880.0000 0.0000 -1.0000 0.0000 0.0000 22.500000 -1.375000
tech04_3
0 -304.0000 2880.0000 0.0000 0.0000 1.0000 0.0000 -19.000000 -0.000000
0 -320.0000 2880.0000 -80.0000 0.0000 1.0000 0.0000 -20.000000 -0.625000
0 -320.0000 2880.0000 0.0000 0.0000 1.0000 0.0000 -20.000000 -0.000000
tech04_3
0 -304.0000 2880.0000 0.0000 0.0000 1.0000 0.0000 -19.000000 -0.000000
0 -304.0000 2880.0000 -80.0000 0.0000 1.0000 0.0000 -19.000000 -0.625000
0 -320.0000 2880.0000 -80.0000 0.0000 1.0000 0.0000 -20.000000 -0.625000
tech04_3
0 -304.0000 2944.0000 0.0000 -0.0000 0.0000 -1.0000 -19.000000 23.000000
0 -320.0000 2880.0000 0.0000 -0.0000 0.0000 -1.0000 -20.000000 22.500000
0 -320.0000 2944.0000 0.0000 -0.0000 0.0000 -1.0000 -20.000000 23.000000
tech04_3
0 -304.0000 2944.0000 0.0000 0.0000 -0.0000 -1.0000 -19.000000 23.000000
0 -304.0000 2880.0000 0.0000 0.0000 -0.0000 -1.0000 -19.000000 22.500000
0 -320.0000 2880.0000 0.0000 0.0000 -0.0000 -1.0000 -20.000000 22.500000
tech04_3
0 -320.0000 2880.0000 -80.0000 0.0000 0.0000 1.0000 -20.000000 22.500000
0 -304.0000 2944.0000 -80.0000 0.0000 0.0000 1.0000 -19.000000 23.000000
0 -320.0000 2944.0000 -80.0000 0.0000 0.0000 1.0000 -20.000000 23.000000
tech04_3
0 -320.0000 2880.0000 -80.0000 0.0000 0.0000 1.0000 -20.000000 22.500000
0 -304.0000 2880.0000 -80.0000 0.0000 0.0000 1.0000 -19.000000 22.500000
0 -304.0000 2944.0000 -80.0000 0.0000 0.0000 1.0000 -19.000000 23.000000
end
