version 1
nodes
0 "root" -1
end
skeleton
time 0
0 0 0 0 0 0 0
end
triangles
tech04_1
0 1088.0000 1056.0000 -160.0000 1.0000 -0.0000 0.0000 8.250000 -10.000000
0 1088.0000 1088.0000 -272.0000 1.0000 -0.0000 0.0000 8.500000 -17.000000
0 1088.0000 1088.0000 -160.0000 1.0000 -0.0000 0.0000 8.500000 -10.000000
tech04_1
0 1088.0000 1056.0000 -160.0000 1.0000 0.0000 0.0000 8.250000 -10.000000
0 1088.0000 1056.0000 -272.0000 1.0000 0.0000 0.0000 8.250000 -17.000000
0 1088.0000 1088.0000 -272.0000 1.0000 0.0000 0.0000 8.500000 -17.000000
tech04_1
0 1104.0000 1088.0000 -272.0000 0.0000 -1.0000 0.0000 8.625000 -17.000000
0 1088.0000 1088.0000 -160.0000 0.0000 -1.0000 0.0000 8.500000 -10.000000
0 1088.0000 1088.0000 -272.0000 0.0000 -1.0000 0.0000 8.500000 -17.000000
tech04_1
0 1104.0000 1088.0000 -272.0000 0.0000 -1.0000 0.0000 8.625000 -17.000000
0 1104.0000 1088.0000 -160.0000 0.0000 -1.0000 0.0000 8.625000 -10.000000
0 1088.0000 1088.0000 -160.0000 0.0000 -1.0000 0.0000 8.500000 -10.000000
tech04_1
0 1104.0000 1056.0000 -272.0000 -1.0000 0.0000 0.0000 8.250000 -17.000000
0 1104.0000 1088.0000 -160.0000 -1.0000 0.0000 0.0000 8.500000 -10.000000
0 1104.0000 1088.0000 -272.0000 -1.0000 0.0000 0.0000 8.500000 -17.000000
tech04_1
0 1104.0000 1056.0000 -272.0000 -1.0000 0.0000 0.0000 8.250000 -17.000000
0 1104.0000 1056.0000 -160.0000 -1.0000 0.0000 0.0000 8.250000 -10.000000
0 1104.0000 1088.0000 -160.0000 -1.0000 0.0000 0.0000 8.500000 -10.000000
tech04_1
0 1104.0000 1088.0000 -160.0000 -0.0000 0.0000 -1.0000 8.625000 68.000000
0 1088.0000 1056.0000 -160.0000 -0.0000 0.0000 -1.0000 8.500000 66.000000
0 1088.0000 1088.0000 -160.0000 -0.0000 0.0000 -1.0000 8.500000 68.000000
tech04_1
0 1104.0000 1088.0000 -160.0000 0.0000 -0.0000 -1.0000 8.625000 68.000000
0 1104.0000 1056.0000 -160.0000 0.0000 -0.0000 -1.0000 8.625000 66.000000
0 1088.0000 1056.0000 -160.0000 0.0000 -0.0000 -1.0000 8.500000 66.000000
tech04_1
0 1088.0000 1056.0000 -272.0000 0.0000 0.0000 1.0000 8.500000 66.000000
0 1104.0000 1088.0000 -272.0000 0.0000 0.0000 1.0000 8.625000 68.000000
0 1088.0000 1088.0000 -272.0000 0.0000 0.0000 1.0000 8.500000 68.000000
tech04_1
0 1088.0000 1056.0000 -272.0000 0.0000 0.0000 1.0000 8.500000 66.000000
0 1104.0000 1056.0000 -272.0000 0.0000 0.0000 1.0000 8.625000 66.000000
0 1104.0000 1088.0000 -272.0000 0.0000 0.0000 1.0000 8.625000 68.000000
tech04_1
0 1104.0000 1056.0000 -160.0000 0.0000 1.0000 0.0000 8.625000 -10.000000
0 1088.0000 1056.0000 -272.0000 0.0000 1.0000 0.0000 8.500000 -17.000000
0 1088.0000 1056.0000 -160.0000 0.0000 1.0000 0.0000 8.500000 -10.000000
tech04_1
0 1104.0000 1056.0000 -160.0000 0.0000 1.0000 0.0000 8.625000 -10.000000
0 1104.0000 1056.0000 -272.0000 0.0000 1.0000 0.0000 8.625000 -17.000000
0 1088.0000 1056.0000 -272.0000 0.0000 1.0000 0.0000 8.500000 -17.000000
tech04_1
0 1104.0000 1056.0000 -272.0000 -1.0000 0.0000 0.0000 8.250000 -17.000000
0 1104.0000 960.0000 -160.0000 -1.0000 0.0000 0.0000 7.500000 -10.000000
0 1104.0000 1056.0000 -160.0000 -1.0000 0.0000 0.0000 8.250000 -10.000000
tech04_1
0 1104.0000 1056.0000 -272.0000 -1.0000 0.0000 0.0000 8.250000 -17.000000
0 1104.0000 960.0000 -272.0000 -1.0000 0.0000 0.0000 7.500000 -17.000000
0 1104.0000 960.0000 -160.0000 -1.0000 0.0000 0.0000 7.500000 -10.000000
tech04_1
0 1104.0000 960.0000 -272.0000 0.0000 1.0000 -0.0000 8.625000 -17.000000
0 1096.0000 960.0000 -160.0000 0.0000 1.0000 -0.0000 8.562500 -10.000000
0 1104.0000 960.0000 -160.0000 0.0000 1.0000 -0.0000 8.625000 -10.000000
tech04_1
0 1104.0000 960.0000 -272.0000 0.0000 1.0000 0.0000 8.625000 -17.000000
0 1096.0000 960.0000 -272.0000 0.0000 1.0000 0.0000 8.562500 -17.000000
0 1096.0000 960.0000 -160.0000 0.0000 1.0000 0.0000 8.562500 -10.000000
tech04_1
0 1096.0000 960.0000 -160.0000 0.0000 0.0000 -1.0000 8.562500 60.000000
0 1104.0000 1056.0000 -160.0000 0.0000 0.0000 -1.0000 8.625000 66.000000
0 1104.0000 960.0000 -160.0000 0.0000 0.0000 -1.0000 8.625000 60.000000
tech04_1
0 1096.0000 960.0000 -160.0000 0.0000 0.0000 -1.0000 8.562500 60.000000
0 1096.0000 1056.0000 -160.0000 0.0000 0.0000 -1.0000 8.562500 66.000000
0 1104.0000 1056.0000 -160.0000 0.0000 0.0000 -1.0000 8.625000 66.000000
tech04_1
0 1096.0000 1056.0000 -272.0000 -0.0000 0.0000 1.0000 8.562500 66.000000
0 1104.0000 960.0000 -272.0000 -0.0000 0.0000 1.0000 8.625000 60.000000
0 1104.0000 1056.0000 -272.0000 -0.0000 0.0000 1.0000 8.625000 66.000000
tech04_1
0 1096.0000 1056.0000 -272.0000 0.0000 0.0000 1.0000 8.562500 66.000000
0 1096.0000 960.0000 -272.0000 0.0000 0.0000 1.0000 8.562500 60.000000
0 1104.0000 960.0000 -272.0000 0.0000 0.0000 1.0000 8.625000 60.000000
tech04_1
0 1096.0000 1056.0000 -160.0000 0.0000 -1.0000 0.0000 8.562500 -10.000000
0 1104.0000 1056.0000 -272.0000 0.0000 -1.0000 0.0000 8.625000 -17.000000
0 1104.0000 1056.0000 -160.0000 0.0000 -1.0000 0.0000 8.625000 -10.000000
tech04_1
0 1096.0000 1056.0000 -160.0000 0.0000 -1.0000 0.0000 8.562500 -10.000000
0 1096.0000 1056.0000 -272.0000 0.0000 -1.0000 0.0000 8.562500 -17.000000
0 1104.0000 1056.0000 -272.0000 0.0000 -1.0000 0.0000 8.625000 -17.000000
tech04_1
0 1096.0000 960.0000 -272.0000 1.0000 0.0000 0.0000 7.500000 -17.000000
0 1096.0000 1056.0000 -160.0000 1.0000 0.0000 0.0000 8.250000 -10.000000
0 1096.0000 960.0000 -160.0000 1.0000 0.0000 0.0000 7.500000 -10.000000
tech04_1
0 1096.0000 960.0000 -272.0000 1.0000 0.0000 0.0000 7.500000 -17.000000
0 1096.0000 1056.0000 -272.0000 1.0000 0.0000 0.0000 8.250000 -17.000000
0 1096.0000 1056.0000 -160.0000 1.0000 0.0000 0.0000 8.250000 -10.000000
tech04_1
0 1088.0000 992.0000 -272.0000 1.0000 0.0000 0.0000 7.750000 -17.000000
0 1088.0000 960.0000 -160.0000 1.0000 0.0000 0.0000 7.500000 -10.000000
0 1088.0000 960.0000 -272.0000 1.0000 0.0000 0.0000 7.500000 -17.000000
tech04_1
0 1088.0000 992.0000 -272.0000 1.0000 0.0000 -0.0000 7.750000 -17.000000
0 1088.0000 992.0000 -160.0000 1.0000 0.0000 -0.0000 7.750000 -10.000000
0 1088.0000 960.0000 -160.0000 1.0000 0.0000 -0.0000 7.500000 -10.000000
tech04_1
0 1096.0000 960.0000 -160.0000 0.0000 1.0000 0.0000 8.562500 -10.000000
0 1088.0000 960.0000 -272.0000 0.0000 1.0000 0.0000 8.500000 -17.000000
0 1088.0000 960.0000 -160.0000 0.0000 1.0000 0.0000 8.500000 -10.000000
tech04_1
0 1096.0000 960.0000 -160.0000 0.0000 1.0000 0.0000 8.562500 -10.000000
0 1096.0000 960.0000 -272.0000 0.0000 1.0000 0.0000 8.562500 -17.000000
0 1088.0000 960.0000 -272.0000 0.0000 1.0000 0.0000 8.500000 -17.000000
tech04_1
0 1088.0000 992.0000 -160.0000 0.0000 0.0000 -1.0000 8.500000 62.000000
0 1096.0000 960.0000 -160.0000 0.0000 0.0000 -1.0000 8.562500 60.000000
0 1088.0000 960.0000 -160.0000 0.0000 0.0000 -1.0000 8.500000 60.000000
tech04_1
0 1088.0000 992.0000 -160.0000 0.0000 0.0000 -1.0000 8.500000 62.000000
0 1096.0000 992.0000 -160.0000 0.0000 0.0000 -1.0000 8.562500 62.000000
0 1096.0000 960.0000 -160.0000 0.0000 0.0000 -1.0000 8.562500 60.000000
tech04_1
0 1096.0000 960.0000 -272.0000 0.0000 0.0000 1.0000 8.562500 60.000000
0 1088.0000 992.0000 -272.0000 0.0000 0.0000 1.0000 8.500000 62.000000
0 1088.0000 960.0000 -272.0000 0.0000 0.0000 1.0000 8.500000 60.000000
tech04_1
0 1096.0000 960.0000 -272.0000 0.0000 -0.0000 1.0000 8.562500 60.000000
0 1096.0000 992.0000 -272.0000 0.0000 -0.0000 1.0000 8.562500 62.000000
0 1088.0000 992.0000 -272.0000 0.0000 -0.0000 1.0000 8.500000 62.000000
tech04_1
0 1096.0000 992.0000 -160.0000 -1.0000 -0.0000 0.0000 7.750000 -10.000000
0 1096.0000 960.0000 -272.0000 -1.0000 -0.0000 0.0000 7.500000 -17.000000
0 1096.0000 960.0000 -160.0000 -1.0000 -0.0000 0.0000 7.500000 -10.000000
tech04_1
0 1096.0000 992.0000 -160.0000 -1.0000 0.0000 -0.0000 7.750000 -10.000000
0 1096.0000 992.0000 -272.0000 -1.0000 0.0000 -0.0000 7.750000 -17.000000
0 1096.0000 960.0000 -272.0000 -1.0000 0.0000 -0.0000 7.500000 -17.000000
tech04_1
0 1088.0000 992.0000 -272.0000 0.0000 -1.0000 0.0000 8.500000 -17.000000
0 1096.0000 992.0000 -160.0000 0.0000 -1.0000 0.0000 8.562500 -10.000000
0 1088.0000 992.0000 -160.0000 0.0000 -1.0000 0.0000 8.500000 -10.000000
tech04_1
0 1088.0000 992.0000 -272.0000 0.0000 -1.0000 0.0000 8.500000 -17.000000
0 1096.0000 992.0000 -272.0000 0.0000 -1.0000 0.0000 8.562500 -17.000000
0 1096.0000 992.0000 -160.0000 0.0000 -1.0000 0.0000 8.562500 -10.000000
tech04_1
0 1088.0000 992.0000 -160.0000 1.0000 -0.0000 0.0000 7.750000 -10.000000
0 1088.0000 1056.0000 -192.0000 1.0000 -0.0000 0.0000 8.250000 -12.000000
0 1088.0000 1056.0000 -160.0000 1.0000 -0.0000 0.0000 8.250000 -10.000000
tech04_1
0 1088.0000 992.0000 -160.0000 1.0000 0.0000 0.0000 7.750000 -10.000000
0 1088.0000 992.0000 -192.0000 1.0000 0.0000 0.0000 7.750000 -12.000000
0 1088.0000 1056.0000 -192.0000 1.0000 0.0000 0.0000 8.250000 -12.000000
tech04_1
0 1096.0000 1056.0000 -160.0000 -0.0000 0.0000 -1.0000 8.562500 66.000000
0 1088.0000 992.0000 -160.0000 -0.0000 0.0000 -1.0000 8.500000 62.000000
0 1088.0000 1056.0000 -160.0000 -0.0000 0.0000 -1.0000 8.500000 66.000000
tech04_1
0 1096.0000 1056.0000 -160.0000 0.0000 -0.0000 -1.0000 8.562500 66.000000
0 1096.0000 992.0000 -160.0000 0.0000 -0.0000 -1.0000 8.562500 62.000000
0 1088.0000 992.0000 -160.0000 0.0000 -0.0000 -1.0000 8.500000 62.000000
tech04_1
0 1088.0000 1056.0000 -192.0000 0.0000 -1.0000 0.0000 8.500000 -12.000000
0 1096.0000 1056.0000 -160.0000 0.0000 -1.0000 0.0000 8.562500 -10.000000
0 1088.0000 1056.0000 -160.0000 0.0000 -1.0000 0.0000 8.500000 -10.000000
tech04_1
0 1088.0000 1056.0000 -192.0000 0.0000 -1.0000 0.0000 8.500000 -12.000000
0 1096.0000 1056.0000 -192.0000 0.0000 -1.0000 0.0000 8.562500 -12.000000
0 1096.0000 1056.0000 -160.0000 0.0000 -1.0000 0.0000 8.562500 -10.000000
tech04_1
0 1096.0000 1056.0000 -192.0000 -1.0000 0.0000 0.0000 8.250000 -12.000000
0 1096.0000 992.0000 -160.0000 -1.0000 0.0000 0.0000 7.750000 -10.000000
0 1096.0000 1056.0000 -160.0000 -1.0000 0.0000 0.0000 8.250000 -10.000000
tech04_1
0 1096.0000 1056.0000 -192.0000 -1.0000 0.0000 0.0000 8.250000 -12.000000
0 1096.0000 992.0000 -192.0000 -1.0000 0.0000 0.0000 7.750000 -12.000000
0 1096.0000 992.0000 -160.0000 -1.0000 0.0000 0.0000 7.750000 -10.000000
tech04_1
0 1096.0000 992.0000 -160.0000 0.0000 1.0000 0.0000 8.562500 -10.000000
0 1088.0000 992.0000 -192.0000 0.0000 1.0000 0.0000 8.500000 -12.000000
0 1088.0000 992.0000 -160.0000 0.0000 1.0000 0.0000 8.500000 -10.000000
tech04_1
0 1096.0000 992.0000 -160.0000 0.0000 1.0000 0.0000 8.562500 -10.000000
0 1096.0000 992.0000 -192.0000 0.0000 1.0000 0.0000 8.562500 -12.000000
0 1088.0000 992.0000 -192.0000 0.0000 1.0000 0.0000 8.500000 -12.000000
tech04_1
0 1088.0000 992.0000 -192.0000 0.0000 0.0000 1.0000 8.500000 62.000000
0 1096.0000 1056.0000 -192.0000 0.0000 0.0000 1.0000 8.562500 66.000000
0 1088.0000 1056.0000 -192.0000 0.0000 0.0000 1.0000 8.500000 66.000000
tech04_1
0 1088.0000 992.0000 -192.0000 0.0000 0.0000 1.0000 8.500000 62.000000
0 1096.0000 992.0000 -192.0000 0.0000 0.0000 1.0000 8.562500 62.000000
0 1096.0000 1056.0000 -192.0000 0.0000 0.0000 1.0000 8.562500 66.000000
tech04_1
0 1088.0000 1056.0000 -256.0000 1.0000 0.0000 0.0000 8.250000 -16.000000
0 1088.0000 992.0000 -272.0000 1.0000 0.0000 0.0000 7.750000 -17.000000
0 1088.0000 1056.0000 -272.0000 1.0000 0.0000 0.0000 8.250000 -17.000000
tech04_1
0 1088.0000 1056.0000 -256.0000 1.0000 0.0000 0.0000 8.250000 -16.000000
0 1088.0000 992.0000 -256.0000 1.0000 0.0000 0.0000 7.750000 -16.000000
0 1088.0000 992.0000 -272.0000 1.0000 0.0000 0.0000 7.750000 -17.000000
tech04_1
0 1088.0000 992.0000 -272.0000 0.0000 0.0000 1.0000 8.500000 62.000000
0 1096.0000 1056.0000 -272.0000 0.0000 0.0000 1.0000 8.562500 66.000000
0 1088.0000 1056.0000 -272.0000 0.0000 0.0000 1.0000 8.500000 66.000000
tech04_1
0 1088.0000 992.0000 -272.0000 0.0000 0.0000 1.0000 8.500000 62.000000
0 1096.0000 992.0000 -272.0000 0.0000 0.0000 1.0000 8.562500 62.000000
0 1096.0000 1056.0000 -272.0000 0.0000 0.0000 1.0000 8.562500 66.000000
tech04_1
0 1096.0000 1056.0000 -272.0000 0.0000 -1.0000 0.0000 8.562500 -17.000000
0 1088.0000 1056.0000 -256.0000 0.0000 -1.0000 0.0000 8.500000 -16.000000
0 1088.0000 1056.0000 -272.0000 0.0000 -1.0000 0.0000 8.500000 -17.000000
tech04_1
0 1096.0000 1056.0000 -272.0000 0.0000 -1.0000 0.0000 8.562500 -17.000000
0 1096.0000 1056.0000 -256.0000 0.0000 -1.0000 0.0000 8.562500 -16.000000
0 1088.0000 1056.0000 -256.0000 0.0000 -1.0000 0.0000 8.500000 -16.000000
tech04_1
0 1096.0000 992.0000 -272.0000 -1.0000 0.0000 0.0000 7.750000 -17.000000
0 1096.0000 1056.0000 -256.0000 -1.0000 0.0000 0.0000 8.250000 -16.000000
0 1096.0000 1056.0000 -272.0000 -1.0000 0.0000 0.0000 8.250000 -17.000000
tech04_1
0 1096.0000 992.0000 -272.0000 -1.0000 0.0000 0.0000 7.750000 -17.000000
0 1096.0000 992.0000 -256.0000 -1.0000 0.0000 0.0000 7.750000 -16.000000
0 1096.0000 1056.0000 -256.0000 -1.0000 0.0000 0.0000 8.250000 -16.000000
tech04_1
0 1088.0000 992.0000 -256.0000 0.0000 1.0000 0.0000 8.500000 -16.000000
0 1096.0000 992.0000 -272.0000 0.0000 1.0000 0.0000 8.562500 -17.000000
0 1088.0000 992.0000 -272.0000 0.0000 1.0000 0.0000 8.500000 -17.000000
tech04_1
0 1088.0000 992.0000 -256.0000 -0.0000 1.0000 0.0000 8.500000 -16.000000
0 1096.0000 992.0000 -256.0000 -0.0000 1.0000 0.0000 8.562500 -16.000000
0 1096.0000 992.0000 -272.0000 -0.0000 1.0000 0.0000 8.562500 -17.000000
tech04_1
0 1096.0000 1056.0000 -256.0000 -0.0000 0.0000 -1.0000 8.562500 66.000000
0 1088.0000 992.0000 -256.0000 -0.0000 0.0000 -1.0000 8.500000 62.000000
0 1088.0000 1056.0000 -256.0000 -0.0000 0.0000 -1.0000 8.500000 66.000000
tech04_1
0 1096.0000 1056.0000 -256.0000 0.0000 -0.0000 -1.0000 8.562500 66.000000
0 1096.0000 992.0000 -256.0000 0.0000 -0.0000 -1.0000 8.562500 62.000000
0 1088.0000 992.0000 -256.0000 0.0000 -0.0000 -1.0000 8.500000 62.000000
key01_3
0 1088.0000 992.0000 -192.0000 1.0000 -0.0000 0.0000 16.000000 -3.000000
0 1088.0000 1056.0000 -256.0000 1.0000 -0.0000 0.0000 17.000000 -4.000000
0 1088.0000 1056.0000 -192.0000 1.0000 -0.0000 0.0000 17.000000 -3.000000
key01_3
0 1088.0000 992.0000 -192.0000 1.0000 0.0000 0.0000 16.000000 -3.000000
0 1088.0000 992.0000 -256.0000 1.0000 0.0000 0.0000 16.000000 -4.000000
0 1088.0000 1056.0000 -256.0000 1.0000 0.0000 0.0000 17.000000 -4.000000
key01_3
0 1088.0000 1056.0000 -256.0000 0.0000 -1.0000 0.0000 17.500000 -4.000000
0 1096.0000 1056.0000 -192.0000 0.0000 -1.0000 0.0000 17.625000 -3.000000
0 1088.0000 1056.0000 -192.0000 0.0000 -1.0000 0.0000 17.500000 -3.000000
key01_3
0 1088.0000 1056.0000 -256.0000 0.0000 -1.0000 0.0000 17.500000 -4.000000
0 1096.0000 1056.0000 -256.0000 0.0000 -1.0000 0.0000 17.625000 -4.000000
0 1096.0000 1056.0000 -192.0000 0.0000 -1.0000 0.0000 17.625000 -3.000000
key01_3
0 1096.0000 1056.0000 -256.0000 -1.0000 0.0000 0.0000 17.000000 -4.000000
0 1096.0000 992.0000 -192.0000 -1.0000 0.0000 0.0000 16.000000 -3.000000
0 1096.0000 1056.0000 -192.0000 -1.0000 0.0000 0.0000 17.000000 -3.000000
key01_3
0 1096.0000 1056.0000 -256.0000 -1.0000 0.0000 0.0000 17.000000 -4.000000
0 1096.0000 992.0000 -256.0000 -1.0000 0.0000 0.0000 16.000000 -4.000000
0 1096.0000 992.0000 -192.0000 -1.0000 0.0000 0.0000 16.000000 -3.000000
key01_3
0 1096.0000 992.0000 -192.0000 0.0000 1.0000 0.0000 17.625000 -3.000000
0 1088.0000 992.0000 -256.0000 0.0000 1.0000 0.0000 17.500000 -4.000000
0 1088.0000 992.0000 -192.0000 0.0000 1.0000 0.0000 17.500000 -3.000000
key01_3
0 1096.0000 992.0000 -192.0000 0.0000 1.0000 0.0000 17.625000 -3.000000
0 1096.0000 992.0000 -256.0000 0.0000 1.0000 0.0000 17.625000 -4.000000
0 1088.0000 992.0000 -256.0000 0.0000 1.0000 0.0000 17.500000 -4.000000
key01_3
0 1096.0000 1056.0000 -192.0000 -0.0000 0.0000 -1.0000 17.625000 16.500000
0 1088.0000 992.0000 -192.0000 -0.0000 0.0000 -1.0000 17.500000 15.500000
0 1088.0000 1056.0000 -192.0000 -0.0000 0.0000 -1.0000 17.500000 16.500000
key01_3
0 1096.0000 1056.0000 -192.0000 0.0000 -0.0000 -1.0000 17.625000 16.500000
0 1096.0000 992.0000 -192.0000 0.0000 -0.0000 -1.0000 17.625000 15.500000
0 1088.0000 992.0000 -192.0000 0.0000 -0.0000 -1.0000 17.500000 15.500000
key01_3
0 1088.0000 992.0000 -256.0000 0.0000 0.0000 1.0000 17.500000 15.500000
0 1096.0000 1056.0000 -256.0000 0.0000 0.0000 1.0000 17.625000 16.500000
0 1088.0000 1056.0000 -256.0000 0.0000 0.0000 1.0000 17.500000 16.500000
key01_3
0 1088.0000 992.0000 -256.0000 0.0000 0.0000 1.0000 17.500000 15.500000
0 1096.0000 992.0000 -256.0000 0.0000 0.0000 1.0000 17.625000 15.500000
0 1096.0000 1056.0000 -256.0000 0.0000 0.0000 1.0000 17.625000 16.500000
end
