version 1
nodes
0 "root" -1
end
skeleton
time 0
0 0 0 0 0 0 0
end
triangles
tech08_1
0 736.0000 480.0000 80.0000 1.0000 0.0000 0.0000 3.750000 0.625000
0 736.0000 544.0000 192.0000 1.0000 0.0000 0.0000 4.250000 1.500000
0 736.0000 480.0000 192.0000 1.0000 0.0000 0.0000 3.750000 1.500000
tech08_1
0 736.0000 480.0000 80.0000 1.0000 0.0000 0.0000 3.750000 0.625000
0 736.0000 544.0000 80.0000 1.0000 0.0000 0.0000 4.250000 0.625000
0 736.0000 544.0000 192.0000 1.0000 0.0000 0.0000 4.250000 1.500000
tech04_3
0 752.0000 544.0000 80.0000 0.0000 -1.0000 0.0000 47.000000 0.625000
0 736.0000 544.0000 192.0000 0.0000 -1.0000 0.0000 46.000000 1.500000
0 736.0000 544.0000 80.0000 0.0000 -1.0000 0.0000 46.000000 0.625000
tech04_3
0 752.0000 544.0000 80.0000 0.0000 -1.0000 0.0000 47.000000 0.625000
0 752.0000 544.0000 192.0000 0.0000 -1.0000 0.0000 47.000000 1.500000
0 736.0000 544.0000 192.0000 0.0000 -1.0000 0.0000 46.000000 1.500000
tech08_1
0 752.0000 544.0000 80.0000 -1.0000 0.0000 0.0000 4.250000 0.625000
0 752.0000 480.0000 192.0000 -1.0000 0.0000 0.0000 3.750000 1.500000
0 752.0000 544.0000 192.0000 -1.0000 0.0000 0.0000 4.250000 1.500000
tech08_1
0 752.0000 544.0000 80.0000 -1.0000 0.0000 0.0000 4.250000 0.625000
0 752.0000 480.0000 80.0000 -1.0000 0.0000 0.0000 3.750000 0.625000
0 752.0000 480.0000 192.0000 -1.0000 0.0000 0.0000 3.750000 1.500000
tech04_3
0 752.0000 480.0000 192.0000 0.0000 1.0000 0.0000 47.000000 1.500000
0 736.0000 480.0000 80.0000 0.0000 1.0000 0.0000 46.000000 0.625000
0 736.0000 480.0000 192.0000 0.0000 1.0000 0.0000 46.000000 1.500000
tech04_3
0 752.0000 480.0000 192.0000 0.0000 1.0000 0.0000 47.000000 1.500000
0 752.0000 480.0000 80.0000 0.0000 1.0000 0.0000 47.000000 0.625000
0 736.0000 480.0000 80.0000 0.0000 1.0000 0.0000 46.000000 0.625000
tech04_3
0 752.0000 544.0000 192.0000 -0.0000 0.0000 -1.0000 47.000000 4.250000
0 736.0000 480.0000 192.0000 -0.0000 0.0000 -1.0000 46.000000 3.750000
0 736.0000 544.0000 192.0000 -0.0000 0.0000 -1.0000 46.000000 4.250000
tech04_3
0 752.0000 544.0000 192.0000 0.0000 -0.0000 -1.0000 47.000000 4.250000
0 752.0000 480.0000 192.0000 0.0000 -0.0000 -1.0000 47.000000 3.750000
0 736.0000 480.0000 192.0000 0.0000 -0.0000 -1.0000 46.000000 3.750000
tech04_3
0 736.0000 480.0000 80.0000 0.0000 0.0000 1.0000 46.000000 3.750000
0 752.0000 544.0000 80.0000 0.0000 0.0000 1.0000 47.000000 4.250000
0 736.0000 544.0000 80.0000 0.0000 0.0000 1.0000 46.000000 4.250000
tech04_3
0 736.0000 480.0000 80.0000 0.0000 0.0000 1.0000 46.000000 3.750000
0 752.0000 480.0000 80.0000 0.0000 0.0000 1.0000 47.000000 3.750000
0 752.0000 544.0000 80.0000 0.0000 0.0000 1.0000 47.000000 4.250000
end
