version 1
nodes
0 "root" -1
end
skeleton
time 0
0 0 0 0 0 0 0
end
triangles
tech04_1
0 1248.0000 592.0000 -280.0000 -1.0000 0.0000 0.0000 4.625000 -18.000000
0 1248.0000 512.0000 -248.0000 -1.0000 0.0000 0.0000 4.000000 -16.000000
0 1248.0000 592.0000 -248.0000 -1.0000 0.0000 0.0000 4.625000 -16.000000
tech04_1
0 1248.0000 592.0000 -280.0000 -1.0000 0.0000 0.0000 4.625000 -18.000000
0 1248.0000 512.0000 -280.0000 -1.0000 0.0000 0.0000 4.000000 -18.000000
0 1248.0000 512.0000 -248.0000 -1.0000 0.0000 0.0000 4.000000 -16.000000
tech04_1
0 1376.0000 592.0000 -248.0000 1.0000 0.0000 0.0000 4.625000 -16.000000
0 1376.0000 512.0000 -280.0000 1.0000 0.0000 0.0000 4.000000 -18.000000
0 1376.0000 592.0000 -280.0000 1.0000 0.0000 0.0000 4.625000 -18.000000
tech04_1
0 1376.0000 592.0000 -248.0000 1.0000 0.0000 0.0000 4.625000 -16.000000
0 1376.0000 512.0000 -248.0000 1.0000 0.0000 0.0000 4.000000 -16.000000
0 1376.0000 512.0000 -280.0000 1.0000 0.0000 0.0000 4.000000 -18.000000
tech04_1
0 1360.0000 576.0000 -280.0000 0.0000 -1.0000 0.0000 10.625000 -18.000000
0 1264.0000 576.0000 -248.0000 0.0000 -1.0000 0.0000 9.875000 -16.000000
0 1264.0000 576.0000 -280.0000 0.0000 -1.0000 0.0000 9.875000 -18.000000
tech04_1
0 1360.0000 576.0000 -280.0000 0.0000 -1.0000 0.0000 10.625000 -18.000000
0 1360.0000 576.0000 -248.0000 0.0000 -1.0000 0.0000 10.625000 -16.000000
0 1264.0000 576.0000 -248.0000 0.0000 -1.0000 0.0000 9.875000 -16.000000
tech04_1
0 1248.0000 576.0000 -248.0000 0.0000 0.0000 1.0000 9.750000 36.000000
0 1376.0000 592.0000 -248.0000 0.0000 0.0000 1.0000 10.750000 37.000000
0 1248.0000 592.0000 -248.0000 0.0000 0.0000 1.0000 9.750000 37.000000
tech04_1
0 1248.0000 576.0000 -248.0000 0.0000 0.0000 1.0000 9.750000 36.000000
0 1376.0000 576.0000 -248.0000 0.0000 0.0000 1.0000 10.750000 36.000000
0 1376.0000 592.0000 -248.0000 0.0000 0.0000 1.0000 10.750000 37.000000
tech04_1
0 1376.0000 592.0000 -280.0000 -0.0000 0.0000 -1.0000 10.750000 36.500000
0 1248.0000 576.0000 -280.0000 -0.0000 0.0000 -1.0000 9.750000 35.500000
0 1248.0000 592.0000 -280.0000 -0.0000 0.0000 -1.0000 9.750000 36.500000
tech04_1
0 1376.0000 592.0000 -280.0000 0.0000 -0.0000 -1.0000 10.750000 36.500000
0 1376.0000 576.0000 -280.0000 0.0000 -0.0000 -1.0000 10.750000 35.500000
0 1248.0000 576.0000 -280.0000 0.0000 -0.0000 -1.0000 9.750000 35.500000
tech04_1
0 1376.0000 592.0000 -280.0000 0.0000 1.0000 -0.0000 10.750000 -18.000000
0 1248.0000 592.0000 -248.0000 0.0000 1.0000 -0.0000 9.750000 -16.000000
0 1376.0000 592.0000 -248.0000 0.0000 1.0000 -0.0000 10.750000 -16.000000
tech04_1
0 1376.0000 592.0000 -280.0000 0.0000 1.0000 0.0000 10.750000 -18.000000
0 1248.0000 592.0000 -280.0000 0.0000 1.0000 0.0000 9.750000 -18.000000
0 1248.0000 592.0000 -248.0000 0.0000 1.0000 0.0000 9.750000 -16.000000
tech04_1
0 1360.0000 512.0000 -248.0000 -1.0000 0.0000 0.0000 4.000000 -16.000000
0 1360.0000 576.0000 -280.0000 -1.0000 0.0000 0.0000 4.500000 -18.000000
0 1360.0000 512.0000 -280.0000 -1.0000 0.0000 0.0000 4.000000 -18.000000
tech04_1
0 1360.0000 512.0000 -248.0000 -1.0000 0.0000 0.0000 4.000000 -16.000000
0 1360.0000 576.0000 -248.0000 -1.0000 0.0000 0.0000 4.500000 -16.000000
0 1360.0000 576.0000 -280.0000 -1.0000 0.0000 0.0000 4.500000 -18.000000
tech04_1
0 1376.0000 512.0000 -248.0000 0.0000 -1.0000 -0.0000 10.750000 -16.000000
0 1360.0000 512.0000 -280.0000 0.0000 -1.0000 -0.0000 10.625000 -18.000000
0 1376.0000 512.0000 -280.0000 0.0000 -1.0000 -0.0000 10.750000 -18.000000
tech04_1
0 1376.0000 512.0000 -248.0000 -0.0000 -1.0000 0.0000 10.750000 -16.000000
0 1360.0000 512.0000 -248.0000 -0.0000 -1.0000 0.0000 10.625000 -16.000000
0 1360.0000 512.0000 -280.0000 -0.0000 -1.0000 0.0000 10.625000 -18.000000
tech04_1
0 1360.0000 512.0000 -248.0000 0.0000 0.0000 1.0000 10.625000 32.000000
0 1376.0000 576.0000 -248.0000 0.0000 0.0000 1.0000 10.750000 36.000000
0 1360.0000 576.0000 -248.0000 0.0000 0.0000 1.0000 10.625000 36.000000
tech04_1
0 1360.0000 512.0000 -248.0000 0.0000 0.0000 1.0000 10.625000 32.000000
0 1376.0000 512.0000 -248.0000 0.0000 0.0000 1.0000 10.750000 32.000000
0 1376.0000 576.0000 -248.0000 0.0000 0.0000 1.0000 10.750000 36.000000
tech04_1
0 1376.0000 576.0000 -280.0000 -0.0000 0.0000 -1.0000 10.750000 35.500000
0 1360.0000 512.0000 -280.0000 -0.0000 0.0000 -1.0000 10.625000 31.500000
0 1360.0000 576.0000 -280.0000 -0.0000 0.0000 -1.0000 10.625000 35.500000
tech04_1
0 1376.0000 576.0000 -280.0000 0.0000 -0.0000 -1.0000 10.750000 35.500000
0 1376.0000 512.0000 -280.0000 0.0000 -0.0000 -1.0000 10.750000 31.500000
0 1360.0000 512.0000 -280.0000 0.0000 -0.0000 -1.0000 10.625000 31.500000
tech04_1
0 1264.0000 576.0000 -248.0000 1.0000 0.0000 0.0000 4.500000 -16.000000
0 1264.0000 512.0000 -280.0000 1.0000 0.0000 0.0000 4.000000 -18.000000
0 1264.0000 576.0000 -280.0000 1.0000 0.0000 0.0000 4.500000 -18.000000
tech04_1
0 1264.0000 576.0000 -248.0000 1.0000 0.0000 0.0000 4.500000 -16.000000
0 1264.0000 512.0000 -248.0000 1.0000 0.0000 0.0000 4.000000 -16.000000
0 1264.0000 512.0000 -280.0000 1.0000 0.0000 0.0000 4.000000 -18.000000
tech04_1
0 1264.0000 512.0000 -248.0000 0.0000 -1.0000 -0.0000 9.875000 -16.000000
0 1248.0000 512.0000 -280.0000 0.0000 -1.0000 -0.0000 9.750000 -18.000000
0 1264.0000 512.0000 -280.0000 0.0000 -1.0000 -0.0000 9.875000 -18.000000
tech04_1
0 1264.0000 512.0000 -248.0000 -0.0000 -1.0000 0.0000 9.875000 -16.000000
0 1248.0000 512.0000 -248.0000 -0.0000 -1.0000 0.0000 9.750000 -16.000000
0 1248.0000 512.0000 -280.0000 -0.0000 -1.0000 0.0000 9.750000 -18.000000
tech04_1
0 1264.0000 576.0000 -280.0000 -0.0000 0.0000 -1.0000 9.875000 35.500000
0 1248.0000 512.0000 -280.0000 -0.0000 0.0000 -1.0000 9.750000 31.500000
0 1248.0000 576.0000 -280.0000 -0.0000 0.0000 -1.0000 9.750000 35.500000
tech04_1
0 1264.0000 576.0000 -280.0000 0.0000 -0.0000 -1.0000 9.875000 35.500000
0 1264.0000 512.0000 -280.0000 0.0000 -0.0000 -1.0000 9.875000 31.500000
0 1248.0000 512.0000 -280.0000 0.0000 -0.0000 -1.0000 9.750000 31.500000
tech04_1
0 1248.0000 512.0000 -248.0000 0.0000 0.0000 1.0000 9.750000 32.000000
0 1264.0000 576.0000 -248.0000 0.0000 0.0000 1.0000 9.875000 36.000000
0 1248.0000 576.0000 -248.0000 0.0000 0.0000 1.0000 9.750000 36.000000
tech04_1
0 1248.0000 512.0000 -248.0000 0.0000 0.0000 1.0000 9.750000 32.000000
0 1264.0000 512.0000 -248.0000 0.0000 0.0000 1.0000 9.875000 32.000000
0 1264.0000 576.0000 -248.0000 0.0000 0.0000 1.0000 9.875000 36.000000
end
