version 1
nodes
0 "root" -1
end
skeleton
time 0
0 0 0 0 0 0 0
end
triangles
tech04_1
0 -0.0000 2632.0000 -80.0000 1.0000 -0.0000 0.0000 20.562500 -5.000000
0 -0.0000 2880.0000 -96.0000 1.0000 -0.0000 0.0000 22.500000 -6.000000
0 -0.0000 2880.0000 -80.0000 1.0000 -0.0000 0.0000 22.500000 -5.000000
tech04_1
0 -0.0000 2632.0000 -80.0000 1.0000 0.0000 0.0000 20.562500 -5.000000
0 -0.0000 2632.0000 -96.0000 1.0000 0.0000 0.0000 20.562500 -6.000000
0 -0.0000 2880.0000 -96.0000 1.0000 0.0000 0.0000 22.500000 -6.000000
tech04_1
0 -0.0000 2880.0000 -96.0000 0.0000 -1.0000 0.0000 0.000000 -6.000000
0 320.0000 2880.0000 -80.0000 0.0000 -1.0000 0.0000 2.500000 -5.000000
0 -0.0000 2880.0000 -80.0000 0.0000 -1.0000 0.0000 0.000000 -5.000000
tech04_1
0 -0.0000 2880.0000 -96.0000 0.0000 -1.0000 0.0000 0.000000 -6.000000
0 320.0000 2880.0000 -96.0000 0.0000 -1.0000 0.0000 2.500000 -6.000000
0 320.0000 2880.0000 -80.0000 0.0000 -1.0000 0.0000 2.500000 -5.000000
tech04_1
0 320.0000 2880.0000 -96.0000 -1.0000 0.0000 0.0000 22.500000 -6.000000
0 320.0000 2632.0000 -80.0000 -1.0000 0.0000 0.0000 20.562500 -5.000000
0 320.0000 2880.0000 -80.0000 -1.0000 0.0000 0.0000 22.500000 -5.000000
tech04_1
0 320.0000 2880.0000 -96.0000 -1.0000 0.0000 0.0000 22.500000 -6.000000
0 320.0000 2632.0000 -96.0000 -1.0000 0.0000 0.0000 20.562500 -6.000000
0 320.0000 2632.0000 -80.0000 -1.0000 0.0000 0.0000 20.562500 -5.000000
tech04_1
0 320.0000 2632.0000 -96.0000 0.0000 1.0000 -0.0000 2.500000 -6.000000
0 -0.0000 2632.0000 -80.0000 0.0000 1.0000 -0.0000 0.000000 -5.000000
0 320.0000 2632.0000 -80.0000 0.0000 1.0000 -0.0000 2.500000 -5.000000
tech04_1
0 320.0000 2632.0000 -96.0000 0.0000 1.0000 0.0000 2.500000 -6.000000
0 -0.0000 2632.0000 -96.0000 0.0000 1.0000 0.0000 0.000000 -6.000000
0 -0.0000 2632.0000 -80.0000 0.0000 1.0000 0.0000 0.000000 -5.000000
ecop1_4
0 320.0000 2632.0000 -80.0000 0.0000 0.0000 -1.0000 5.000000 41.125000
0 -0.0000 2880.0000 -80.0000 0.0000 0.0000 -1.0000 0.000000 45.000000
0 320.0000 2880.0000 -80.0000 0.0000 0.0000 -1.0000 5.000000 45.000000
ecop1_4
0 320.0000 2632.0000 -80.0000 0.0000 0.0000 -1.0000 5.000000 41.125000
0 -0.0000 2632.0000 -80.0000 0.0000 0.0000 -1.0000 0.000000 41.125000
0 -0.0000 2880.0000 -80.0000 0.0000 0.0000 -1.0000 0.000000 45.000000
tech04_1
0 -0.0000 2632.0000 -96.0000 0.0000 0.0000 1.0000 0.000000 164.500000
0 320.0000 2880.0000 -96.0000 0.0000 0.0000 1.0000 2.500000 180.000000
0 -0.0000 2880.0000 -96.0000 0.0000 0.0000 1.0000 0.000000 180.000000
tech04_1
0 -0.0000 2632.0000 -96.0000 0.0000 0.0000 1.0000 0.000000 164.500000
0 320.0000 2632.0000 -96.0000 0.0000 0.0000 1.0000 2.500000 164.500000
0 320.0000 2880.0000 -96.0000 0.0000 0.0000 1.0000 2.500000 180.000000
end
