version 1
nodes
0 "root" -1
end
skeleton
time 0
0 0 0 0 0 0 0
end
triangles
sfloor4_2
0 752.0000 1992.0000 -112.0000 0.0000 0.0000 1.0000 11.750000 31.125000
0 744.0000 2000.0000 -112.0000 0.0000 0.0000 1.0000 11.625000 31.250000
0 744.0000 1992.0000 -112.0000 0.0000 0.0000 1.0000 11.625000 31.125000
sfloor4_2
0 752.0000 1992.0000 -112.0000 0.0000 -0.0000 1.0000 11.750000 31.125000
0 752.0000 2000.0000 -112.0000 0.0000 -0.0000 1.0000 11.750000 31.250000
0 744.0000 2000.0000 -112.0000 0.0000 -0.0000 1.0000 11.625000 31.250000
tlight11
0 755.0000 2003.0000 -136.0000 -0.0000 0.0000 -1.0000 47.187500 31.046875
0 741.0000 1989.0000 -136.0000 -0.0000 0.0000 -1.0000 46.312500 30.828125
0 741.0000 2003.0000 -136.0000 -0.0000 0.0000 -1.0000 46.312500 31.046875
tlight11
0 755.0000 2003.0000 -136.0000 0.0000 -0.0000 -1.0000 47.187500 31.046875
0 755.0000 1989.0000 -136.0000 0.0000 -0.0000 -1.0000 47.187500 30.828125
0 741.0000 1989.0000 -136.0000 0.0000 -0.0000 -1.0000 46.312500 30.828125
tlight11
0 755.0000 1989.0000 -136.0000 0.9923 0.0000 0.1240 124.312500 -2.375000
0 752.0000 2000.0000 -112.0000 0.9923 0.0000 0.1240 125.000000 -2.000000
0 752.0000 1992.0000 -112.0000 0.9923 0.0000 0.1240 124.500000 -2.000000
tlight11
0 755.0000 1989.0000 -136.0000 0.9923 -0.0000 0.1240 124.312500 -2.375000
0 755.0000 2003.0000 -136.0000 0.9923 -0.0000 0.1240 125.187500 -2.375000
0 752.0000 2000.0000 -112.0000 0.9923 -0.0000 0.1240 125.000000 -2.000000
tlight11
0 755.0000 2003.0000 -136.0000 0.0000 0.9923 0.1240 47.187500 -2.375000
0 744.0000 2000.0000 -112.0000 0.0000 0.9923 0.1240 46.500000 -2.000000
0 752.0000 2000.0000 -112.0000 0.0000 0.9923 0.1240 47.000000 -2.000000
tlight11
0 755.0000 2003.0000 -136.0000 0.0000 0.9923 0.1240 47.187500 -2.375000
0 741.0000 2003.0000 -136.0000 0.0000 0.9923 0.1240 46.312500 -2.375000
0 744.0000 2000.0000 -112.0000 0.0000 0.9923 0.1240 46.500000 -2.000000
tlight11
0 741.0000 2003.0000 -136.0000 -0.9923 0.0000 0.1240 125.187500 -2.375000
0 744.0000 1992.0000 -112.0000 -0.9923 0.0000 0.1240 124.500000 -2.000000
0 744.0000 2000.0000 -112.0000 -0.9923 0.0000 0.1240 125.000000 -2.000000
tlight11
0 741.0000 2003.0000 -136.0000 -0.9923 0.0000 0.1240 125.187500 -2.375000
0 741.0000 1989.0000 -136.0000 -0.9923 0.0000 0.1240 124.312500 -2.375000
0 744.0000 1992.0000 -112.0000 -0.9923 0.0000 0.1240 124.500000 -2.000000
tlight11
0 741.0000 1989.0000 -136.0000 0.0000 -0.9923 0.1240 46.312500 -2.375000
0 752.0000 1992.0000 -112.0000 0.0000 -0.9923 0.1240 47.000000 -2.000000
0 744.0000 1992.0000 -112.0000 0.0000 -0.9923 0.1240 46.500000 -2.000000
tlight11
0 741.0000 1989.0000 -136.0000 0.0000 -0.9923 0.1240 46.312500 -2.375000
0 755.0000 1989.0000 -136.0000 0.0000 -0.9923 0.1240 47.187500 -2.375000
0 752.0000 1992.0000 -112.0000 0.0000 -0.9923 0.1240 47.000000 -2.000000
end
