version 1
nodes
0 "root" -1
end
skeleton
time 0
0 0 0 0 0 0 0
end
triangles
twall2_2
0 512.0000 2240.0000 -48.0000 1.0000 -0.0000 0.0000 35.000000 -0.875000
0 512.0000 2256.0000 -144.0000 1.0000 -0.0000 0.0000 35.250000 -1.625000
0 512.0000 2256.0000 -48.0000 1.0000 -0.0000 0.0000 35.250000 -0.875000
twall2_2
0 512.0000 2240.0000 -48.0000 1.0000 0.0000 0.0000 35.000000 -0.875000
0 512.0000 2240.0000 -144.0000 1.0000 0.0000 0.0000 35.000000 -1.625000
0 512.0000 2256.0000 -144.0000 1.0000 0.0000 0.0000 35.250000 -1.625000
twall2_5
0 512.0000 2256.0000 -144.0000 0.0000 -1.0000 0.0000 8.250000 -2.250000
0 528.0000 2256.0000 -48.0000 0.0000 -1.0000 0.0000 8.500000 -0.750000
0 512.0000 2256.0000 -48.0000 0.0000 -1.0000 0.0000 8.250000 -0.750000
twall2_5
0 512.0000 2256.0000 -144.0000 0.0000 -1.0000 0.0000 8.250000 -2.250000
0 528.0000 2256.0000 -144.0000 0.0000 -1.0000 0.0000 8.500000 -2.250000
0 528.0000 2256.0000 -48.0000 0.0000 -1.0000 0.0000 8.500000 -0.750000
twall2_2
0 528.0000 2240.0000 -48.0000 0.0000 1.0000 0.0000 8.250000 -0.875000
0 512.0000 2240.0000 -144.0000 0.0000 1.0000 0.0000 8.000000 -1.625000
0 512.0000 2240.0000 -48.0000 0.0000 1.0000 0.0000 8.000000 -0.875000
twall2_2
0 528.0000 2240.0000 -48.0000 0.0000 1.0000 0.0000 8.250000 -0.875000
0 528.0000 2240.0000 -144.0000 0.0000 1.0000 0.0000 8.250000 -1.625000
0 512.0000 2240.0000 -144.0000 0.0000 1.0000 0.0000 8.000000 -1.625000
twall2_2
0 528.0000 2256.0000 -48.0000 -0.0000 0.0000 -1.0000 8.250000 17.125000
0 512.0000 2240.0000 -48.0000 -0.0000 0.0000 -1.0000 8.000000 17.000000
0 512.0000 2256.0000 -48.0000 -0.0000 0.0000 -1.0000 8.000000 17.125000
twall2_2
0 528.0000 2256.0000 -48.0000 0.0000 -0.0000 -1.0000 8.250000 17.125000
0 528.0000 2240.0000 -48.0000 0.0000 -0.0000 -1.0000 8.250000 17.000000
0 512.0000 2240.0000 -48.0000 0.0000 -0.0000 -1.0000 8.000000 17.000000
twall2_2
0 512.0000 2240.0000 -144.0000 0.0000 0.0000 1.0000 8.000000 17.000000
0 528.0000 2256.0000 -144.0000 0.0000 0.0000 1.0000 8.250000 17.125000
0 512.0000 2256.0000 -144.0000 0.0000 0.0000 1.0000 8.000000 17.125000
twall2_2
0 512.0000 2240.0000 -144.0000 0.0000 0.0000 1.0000 8.000000 17.000000
0 528.0000 2240.0000 -144.0000 0.0000 0.0000 1.0000 8.250000 17.000000
0 528.0000 2256.0000 -144.0000 0.0000 0.0000 1.0000 8.250000 17.125000
twall2_2
0 528.0000 2256.0000 -144.0000 -1.0000 0.0000 0.0000 35.250000 -1.625000
0 528.0000 2240.0000 -48.0000 -1.0000 0.0000 0.0000 35.000000 -0.875000
0 528.0000 2256.0000 -48.0000 -1.0000 0.0000 0.0000 35.250000 -0.875000
twall2_2
0 528.0000 2256.0000 -144.0000 -1.0000 0.0000 0.0000 35.250000 -1.625000
0 528.0000 2240.0000 -144.0000 -1.0000 0.0000 0.0000 35.000000 -1.625000
0 528.0000 2240.0000 -48.0000 -1.0000 0.0000 0.0000 35.000000 -0.875000
twall2_5
0 560.0000 2256.0000 -48.0000 0.0000 -1.0000 0.0000 9.000000 -0.750000
0 576.0000 2256.0000 -144.0000 0.0000 -1.0000 0.0000 9.250000 -2.250000
0 576.0000 2256.0000 -48.0000 0.0000 -1.0000 0.0000 9.250000 -0.750000
twall2_5
0 560.0000 2256.0000 -48.0000 0.0000 -1.0000 0.0000 9.000000 -0.750000
0 560.0000 2256.0000 -144.0000 0.0000 -1.0000 0.0000 9.000000 -2.250000
0 576.0000 2256.0000 -144.0000 0.0000 -1.0000 0.0000 9.250000 -2.250000
twall2_2
0 576.0000 2256.0000 -144.0000 -1.0000 0.0000 0.0000 35.250000 -1.625000
0 576.0000 2240.0000 -48.0000 -1.0000 0.0000 0.0000 35.000000 -0.875000
0 576.0000 2256.0000 -48.0000 -1.0000 0.0000 0.0000 35.250000 -0.875000
twall2_2
0 576.0000 2256.0000 -144.0000 -1.0000 0.0000 0.0000 35.250000 -1.625000
0 576.0000 2240.0000 -144.0000 -1.0000 0.0000 0.0000 35.000000 -1.625000
0 576.0000 2240.0000 -48.0000 -1.0000 0.0000 0.0000 35.000000 -0.875000
twall2_2
0 576.0000 2240.0000 -144.0000 0.0000 1.0000 -0.0000 9.000000 -1.625000
0 560.0000 2240.0000 -48.0000 0.0000 1.0000 -0.0000 8.750000 -0.875000
0 576.0000 2240.0000 -48.0000 0.0000 1.0000 -0.0000 9.000000 -0.875000
twall2_2
0 576.0000 2240.0000 -144.0000 0.0000 1.0000 0.0000 9.000000 -1.625000
0 560.0000 2240.0000 -144.0000 0.0000 1.0000 0.0000 8.750000 -1.625000
0 560.0000 2240.0000 -48.0000 0.0000 1.0000 0.0000 8.750000 -0.875000
twall2_2
0 576.0000 2240.0000 -48.0000 0.0000 0.0000 -1.0000 9.000000 17.000000
0 560.0000 2256.0000 -48.0000 0.0000 0.0000 -1.0000 8.750000 17.125000
0 576.0000 2256.0000 -48.0000 0.0000 0.0000 -1.0000 9.000000 17.125000
twall2_2
0 576.0000 2240.0000 -48.0000 0.0000 0.0000 -1.0000 9.000000 17.000000
0 560.0000 2240.0000 -48.0000 0.0000 0.0000 -1.0000 8.750000 17.000000
0 560.0000 2256.0000 -48.0000 0.0000 0.0000 -1.0000 8.750000 17.125000
twall2_2
0 560.0000 2256.0000 -144.0000 -0.0000 0.0000 1.0000 8.750000 17.125000
0 576.0000 2240.0000 -144.0000 -0.0000 0.0000 1.0000 9.000000 17.000000
0 576.0000 2256.0000 -144.0000 -0.0000 0.0000 1.0000 9.000000 17.125000
twall2_2
0 560.0000 2256.0000 -144.0000 0.0000 0.0000 1.0000 8.750000 17.125000
0 560.0000 2240.0000 -144.0000 0.0000 0.0000 1.0000 8.750000 17.000000
0 576.0000 2240.0000 -144.0000 0.0000 0.0000 1.0000 9.000000 17.000000
twall2_5
0 560.0000 2240.0000 -48.0000 1.0000 -0.0000 0.0000 35.250000 -0.750000
0 560.0000 2256.0000 -144.0000 1.0000 -0.0000 0.0000 35.500000 -2.250000
0 560.0000 2256.0000 -48.0000 1.0000 -0.0000 0.0000 35.500000 -0.750000
twall2_5
0 560.0000 2240.0000 -48.0000 1.0000 0.0000 0.0000 35.250000 -0.750000
0 560.0000 2240.0000 -144.0000 1.0000 0.0000 0.0000 35.250000 -2.250000
0 560.0000 2256.0000 -144.0000 1.0000 0.0000 0.0000 35.500000 -2.250000
twall2_2
0 560.0000 2240.0000 -48.0000 0.0000 1.0000 0.0000 8.750000 -0.875000
0 528.0000 2240.0000 -64.0000 0.0000 1.0000 0.0000 8.250000 -1.000000
0 528.0000 2240.0000 -48.0000 0.0000 1.0000 0.0000 8.250000 -0.875000
twall2_2
0 560.0000 2240.0000 -48.0000 0.0000 1.0000 0.0000 8.750000 -0.875000
0 560.0000 2240.0000 -64.0000 0.0000 1.0000 0.0000 8.750000 -1.000000
0 528.0000 2240.0000 -64.0000 0.0000 1.0000 0.0000 8.250000 -1.000000
twall2_2
0 528.0000 2248.0000 -48.0000 0.0000 0.0000 -1.0000 8.250000 17.062500
0 560.0000 2240.0000 -48.0000 0.0000 0.0000 -1.0000 8.750000 17.000000
0 528.0000 2240.0000 -48.0000 0.0000 0.0000 -1.0000 8.250000 17.000000
twall2_2
0 528.0000 2248.0000 -48.0000 0.0000 0.0000 -1.0000 8.250000 17.062500
0 560.0000 2248.0000 -48.0000 0.0000 0.0000 -1.0000 8.750000 17.062500
0 560.0000 2240.0000 -48.0000 0.0000 0.0000 -1.0000 8.750000 17.000000
twall2_2
0 528.0000 2240.0000 -64.0000 1.0000 0.0000 0.0000 35.000000 -1.000000
0 528.0000 2248.0000 -48.0000 1.0000 0.0000 0.0000 35.125000 -0.875000
0 528.0000 2240.0000 -48.0000 1.0000 0.0000 0.0000 35.000000 -0.875000
twall2_2
0 528.0000 2240.0000 -64.0000 1.0000 0.0000 0.0000 35.000000 -1.000000
0 528.0000 2248.0000 -64.0000 1.0000 0.0000 0.0000 35.125000 -1.000000
0 528.0000 2248.0000 -48.0000 1.0000 0.0000 0.0000 35.125000 -0.875000
twall2_5
0 560.0000 2248.0000 -48.0000 -1.0000 -0.0000 0.0000 35.375000 -0.750000
0 560.0000 2240.0000 -64.0000 -1.0000 -0.0000 0.0000 35.250000 -1.000000
0 560.0000 2240.0000 -48.0000 -1.0000 -0.0000 0.0000 35.250000 -0.750000
twall2_5
0 560.0000 2248.0000 -48.0000 -1.0000 0.0000 -0.0000 35.375000 -0.750000
0 560.0000 2248.0000 -64.0000 -1.0000 0.0000 -0.0000 35.375000 -1.000000
0 560.0000 2240.0000 -64.0000 -1.0000 0.0000 -0.0000 35.250000 -1.000000
twall2_5
0 528.0000 2248.0000 -64.0000 0.0000 -1.0000 0.0000 8.500000 -1.000000
0 560.0000 2248.0000 -48.0000 0.0000 -1.0000 0.0000 9.000000 -0.750000
0 528.0000 2248.0000 -48.0000 0.0000 -1.0000 0.0000 8.500000 -0.750000
twall2_5
0 528.0000 2248.0000 -64.0000 0.0000 -1.0000 0.0000 8.500000 -1.000000
0 560.0000 2248.0000 -64.0000 0.0000 -1.0000 0.0000 9.000000 -1.000000
0 560.0000 2248.0000 -48.0000 0.0000 -1.0000 0.0000 9.000000 -0.750000
twall2_2
0 560.0000 2240.0000 -64.0000 0.0000 0.0000 1.0000 8.750000 17.000000
0 528.0000 2248.0000 -64.0000 0.0000 0.0000 1.0000 8.250000 17.062500
0 528.0000 2240.0000 -64.0000 0.0000 0.0000 1.0000 8.250000 17.000000
twall2_2
0 560.0000 2240.0000 -64.0000 0.0000 -0.0000 1.0000 8.750000 17.000000
0 560.0000 2248.0000 -64.0000 0.0000 -0.0000 1.0000 8.750000 17.062500
0 528.0000 2248.0000 -64.0000 0.0000 -0.0000 1.0000 8.250000 17.062500
twall2_2
0 528.0000 2240.0000 -96.0000 0.0000 1.0000 0.0000 8.250000 -1.250000
0 560.0000 2240.0000 -144.0000 0.0000 1.0000 0.0000 8.750000 -1.625000
0 528.0000 2240.0000 -144.0000 0.0000 1.0000 0.0000 8.250000 -1.625000
twall2_2
0 528.0000 2240.0000 -96.0000 -0.0000 1.0000 0.0000 8.250000 -1.250000
0 560.0000 2240.0000 -96.0000 -0.0000 1.0000 0.0000 8.750000 -1.250000
0 560.0000 2240.0000 -144.0000 -0.0000 1.0000 0.0000 8.750000 -1.625000
twall2_2
0 560.0000 2240.0000 -144.0000 0.0000 0.0000 1.0000 8.750000 17.000000
0 528.0000 2248.0000 -144.0000 0.0000 0.0000 1.0000 8.250000 17.062500
0 528.0000 2240.0000 -144.0000 0.0000 0.0000 1.0000 8.250000 17.000000
twall2_2
0 560.0000 2240.0000 -144.0000 0.0000 -0.0000 1.0000 8.750000 17.000000
0 560.0000 2248.0000 -144.0000 0.0000 -0.0000 1.0000 8.750000 17.062500
0 528.0000 2248.0000 -144.0000 0.0000 -0.0000 1.0000 8.250000 17.062500
twall2_2
0 528.0000 2248.0000 -144.0000 1.0000 0.0000 0.0000 35.125000 -1.625000
0 528.0000 2240.0000 -96.0000 1.0000 0.0000 0.0000 35.000000 -1.250000
0 528.0000 2240.0000 -144.0000 1.0000 0.0000 0.0000 35.000000 -1.625000
twall2_2
0 528.0000 2248.0000 -144.0000 1.0000 0.0000 -0.0000 35.125000 -1.625000
0 528.0000 2248.0000 -96.0000 1.0000 0.0000 -0.0000 35.125000 -1.250000
0 528.0000 2240.0000 -96.0000 1.0000 0.0000 -0.0000 35.000000 -1.250000
twall2_5
0 560.0000 2240.0000 -96.0000 -1.0000 0.0000 0.0000 35.250000 -1.500000
0 560.0000 2248.0000 -144.0000 -1.0000 0.0000 0.0000 35.375000 -2.250000
0 560.0000 2240.0000 -144.0000 -1.0000 0.0000 0.0000 35.250000 -2.250000
twall2_5
0 560.0000 2240.0000 -96.0000 -1.0000 0.0000 0.0000 35.250000 -1.500000
0 560.0000 2248.0000 -96.0000 -1.0000 0.0000 0.0000 35.375000 -1.500000
0 560.0000 2248.0000 -144.0000 -1.0000 0.0000 0.0000 35.375000 -2.250000
twall2_5
0 560.0000 2248.0000 -144.0000 0.0000 -1.0000 0.0000 9.000000 -2.250000
0 528.0000 2248.0000 -96.0000 0.0000 -1.0000 0.0000 8.500000 -1.500000
0 528.0000 2248.0000 -144.0000 0.0000 -1.0000 0.0000 8.500000 -2.250000
twall2_5
0 560.0000 2248.0000 -144.0000 0.0000 -1.0000 0.0000 9.000000 -2.250000
0 560.0000 2248.0000 -96.0000 0.0000 -1.0000 0.0000 9.000000 -1.500000
0 528.0000 2248.0000 -96.0000 0.0000 -1.0000 0.0000 8.500000 -1.500000
twall2_2
0 528.0000 2248.0000 -96.0000 0.0000 0.0000 -1.0000 8.250000 17.062500
0 560.0000 2240.0000 -96.0000 0.0000 0.0000 -1.0000 8.750000 17.000000
0 528.0000 2240.0000 -96.0000 0.0000 0.0000 -1.0000 8.250000 17.000000
twall2_2
0 528.0000 2248.0000 -96.0000 0.0000 0.0000 -1.0000 8.250000 17.062500
0 560.0000 2248.0000 -96.0000 0.0000 0.0000 -1.0000 8.750000 17.062500
0 560.0000 2240.0000 -96.0000 0.0000 0.0000 -1.0000 8.750000 17.000000
twall2_5
0 528.0000 2256.0000 -64.0000 0.0000 -1.0000 0.0000 8.500000 -1.000000
0 560.0000 2256.0000 -48.0000 0.0000 -1.0000 0.0000 9.000000 -0.750000
0 528.0000 2256.0000 -48.0000 0.0000 -1.0000 0.0000 8.500000 -0.750000
twall2_5
0 528.0000 2256.0000 -64.0000 0.0000 -1.0000 0.0000 8.500000 -1.000000
0 560.0000 2256.0000 -64.0000 0.0000 -1.0000 0.0000 9.000000 -1.000000
0 560.0000 2256.0000 -48.0000 0.0000 -1.0000 0.0000 9.000000 -0.750000
twall2_2
0 560.0000 2256.0000 -48.0000 -0.0000 0.0000 -1.0000 8.750000 17.125000
0 528.0000 2248.0000 -48.0000 -0.0000 0.0000 -1.0000 8.250000 17.062500
0 528.0000 2256.0000 -48.0000 -0.0000 0.0000 -1.0000 8.250000 17.125000
twall2_2
0 560.0000 2256.0000 -48.0000 0.0000 -0.0000 -1.0000 8.750000 17.125000
0 560.0000 2248.0000 -48.0000 0.0000 -0.0000 -1.0000 8.750000 17.062500
0 528.0000 2248.0000 -48.0000 0.0000 -0.0000 -1.0000 8.250000 17.062500
twall2_2
0 528.0000 2248.0000 -48.0000 1.0000 -0.0000 0.0000 35.125000 -0.875000
0 528.0000 2256.0000 -64.0000 1.0000 -0.0000 0.0000 35.250000 -1.000000
0 528.0000 2256.0000 -48.0000 1.0000 -0.0000 0.0000 35.250000 -0.875000
twall2_2
0 528.0000 2248.0000 -48.0000 1.0000 0.0000 0.0000 35.125000 -0.875000
0 528.0000 2248.0000 -64.0000 1.0000 0.0000 0.0000 35.125000 -1.000000
0 528.0000 2256.0000 -64.0000 1.0000 0.0000 0.0000 35.250000 -1.000000
twall2_5
0 560.0000 2256.0000 -64.0000 -1.0000 0.0000 0.0000 35.500000 -1.000000
0 560.0000 2248.0000 -48.0000 -1.0000 0.0000 0.0000 35.375000 -0.750000
0 560.0000 2256.0000 -48.0000 -1.0000 0.0000 0.0000 35.500000 -0.750000
twall2_5
0 560.0000 2256.0000 -64.0000 -1.0000 0.0000 0.0000 35.500000 -1.000000
0 560.0000 2248.0000 -64.0000 -1.0000 0.0000 0.0000 35.375000 -1.000000
0 560.0000 2248.0000 -48.0000 -1.0000 0.0000 0.0000 35.375000 -0.750000
twall2_5
0 560.0000 2248.0000 -48.0000 0.0000 1.0000 0.0000 9.000000 -0.750000
0 528.0000 2248.0000 -64.0000 0.0000 1.0000 0.0000 8.500000 -1.000000
0 528.0000 2248.0000 -48.0000 0.0000 1.0000 0.0000 8.500000 -0.750000
twall2_5
0 560.0000 2248.0000 -48.0000 0.0000 1.0000 0.0000 9.000000 -0.750000
0 560.0000 2248.0000 -64.0000 0.0000 1.0000 0.0000 9.000000 -1.000000
0 528.0000 2248.0000 -64.0000 0.0000 1.0000 0.0000 8.500000 -1.000000
twall2_5
0 528.0000 2248.0000 -64.0000 0.0000 0.0000 1.0000 8.500000 35.125000
0 560.0000 2256.0000 -64.0000 0.0000 0.0000 1.0000 9.000000 35.250000
0 528.0000 2256.0000 -64.0000 0.0000 0.0000 1.0000 8.500000 35.250000
twall2_5
0 528.0000 2248.0000 -64.0000 0.0000 0.0000 1.0000 8.500000 35.125000
0 560.0000 2248.0000 -64.0000 0.0000 0.0000 1.0000 9.000000 35.125000
0 560.0000 2256.0000 -64.0000 0.0000 0.0000 1.0000 9.000000 35.250000
twall2_5
0 560.0000 2256.0000 -144.0000 0.0000 -1.0000 0.0000 9.000000 -2.250000
0 528.0000 2256.0000 -96.0000 0.0000 -1.0000 0.0000 8.500000 -1.500000
0 528.0000 2256.0000 -144.0000 0.0000 -1.0000 0.0000 8.500000 -2.250000
twall2_5
0 560.0000 2256.0000 -144.0000 0.0000 -1.0000 0.0000 9.000000 -2.250000
0 560.0000 2256.0000 -96.0000 0.0000 -1.0000 0.0000 9.000000 -1.500000
0 528.0000 2256.0000 -96.0000 0.0000 -1.0000 0.0000 8.500000 -1.500000
twall2_2
0 528.0000 2248.0000 -144.0000 0.0000 0.0000 1.0000 8.250000 17.062500
0 560.0000 2256.0000 -144.0000 0.0000 0.0000 1.0000 8.750000 17.125000
0 528.0000 2256.0000 -144.0000 0.0000 0.0000 1.0000 8.250000 17.125000
twall2_2
0 528.0000 2248.0000 -144.0000 0.0000 0.0000 1.0000 8.250000 17.062500
0 560.0000 2248.0000 -144.0000 0.0000 0.0000 1.0000 8.750000 17.062500
0 560.0000 2256.0000 -144.0000 0.0000 0.0000 1.0000 8.750000 17.125000
twall2_2
0 528.0000 2256.0000 -96.0000 1.0000 0.0000 0.0000 35.250000 -1.250000
0 528.0000 2248.0000 -144.0000 1.0000 0.0000 0.0000 35.125000 -1.625000
0 528.0000 2256.0000 -144.0000 1.0000 0.0000 0.0000 35.250000 -1.625000
twall2_2
0 528.0000 2256.0000 -96.0000 1.0000 0.0000 0.0000 35.250000 -1.250000
0 528.0000 2248.0000 -96.0000 1.0000 0.0000 0.0000 35.125000 -1.250000
0 528.0000 2248.0000 -144.0000 1.0000 0.0000 0.0000 35.125000 -1.625000
twall2_5
0 560.0000 2248.0000 -144.0000 -1.0000 0.0000 0.0000 35.375000 -2.250000
0 560.0000 2256.0000 -96.0000 -1.0000 0.0000 0.0000 35.500000 -1.500000
0 560.0000 2256.0000 -144.0000 -1.0000 0.0000 0.0000 35.500000 -2.250000
twall2_5
0 560.0000 2248.0000 -144.0000 -1.0000 0.0000 0.0000 35.375000 -2.250000
0 560.0000 2248.0000 -96.0000 -1.0000 0.0000 0.0000 35.375000 -1.500000
0 560.0000 2256.0000 -96.0000 -1.0000 0.0000 0.0000 35.500000 -1.500000
twall2_5
0 528.0000 2248.0000 -96.0000 0.0000 1.0000 0.0000 8.500000 -1.500000
0 560.0000 2248.0000 -144.0000 0.0000 1.0000 0.0000 9.000000 -2.250000
0 528.0000 2248.0000 -144.0000 0.0000 1.0000 0.0000 8.500000 -2.250000
twall2_5
0 528.0000 2248.0000 -96.0000 -0.0000 1.0000 0.0000 8.500000 -1.500000
0 560.0000 2248.0000 -96.0000 -0.0000 1.0000 0.0000 9.000000 -1.500000
0 560.0000 2248.0000 -144.0000 -0.0000 1.0000 0.0000 9.000000 -2.250000
twall2_5
0 560.0000 2256.0000 -96.0000 -0.0000 0.0000 -1.0000 9.000000 35.250000
0 528.0000 2248.0000 -96.0000 -0.0000 0.0000 -1.0000 8.500000 35.125000
0 528.0000 2256.0000 -96.0000 -0.0000 0.0000 -1.0000 8.500000 35.250000
twall2_5
0 560.0000 2256.0000 -96.0000 0.0000 -0.0000 -1.0000 9.000000 35.250000
0 560.0000 2248.0000 -96.0000 0.0000 -0.0000 -1.0000 9.000000 35.125000
0 528.0000 2248.0000 -96.0000 0.0000 -0.0000 -1.0000 8.500000 35.125000
basebutn3
0 528.0000 2248.0000 -64.0000 1.0000 -0.0000 0.0000 70.750000 -2.000000
0 528.0000 2256.0000 -96.0000 1.0000 -0.0000 0.0000 71.000000 -3.000000
0 528.0000 2256.0000 -64.0000 1.0000 -0.0000 0.0000 71.000000 -2.000000
basebutn3
0 528.0000 2248.0000 -64.0000 1.0000 0.0000 0.0000 70.750000 -2.000000
0 528.0000 2248.0000 -96.0000 1.0000 0.0000 0.0000 70.750000 -3.000000
0 528.0000 2256.0000 -96.0000 1.0000 0.0000 0.0000 71.000000 -3.000000
basebutn3
0 528.0000 2256.0000 -96.0000 0.0000 -1.0000 0.0000 17.000000 -3.000000
0 560.0000 2256.0000 -64.0000 0.0000 -1.0000 0.0000 18.000000 -2.000000
0 528.0000 2256.0000 -64.0000 0.0000 -1.0000 0.0000 17.000000 -2.000000
basebutn3
0 528.0000 2256.0000 -96.0000 0.0000 -1.0000 0.0000 17.000000 -3.000000
0 560.0000 2256.0000 -96.0000 0.0000 -1.0000 0.0000 18.000000 -3.000000
0 560.0000 2256.0000 -64.0000 0.0000 -1.0000 0.0000 18.000000 -2.000000
basebutn3
0 560.0000 2256.0000 -96.0000 -1.0000 0.0000 0.0000 71.000000 -3.000000
0 560.0000 2248.0000 -64.0000 -1.0000 0.0000 0.0000 70.750000 -2.000000
0 560.0000 2256.0000 -64.0000 -1.0000 0.0000 0.0000 71.000000 -2.000000
basebutn3
0 560.0000 2256.0000 -96.0000 -1.0000 0.0000 0.0000 71.000000 -3.000000
0 560.0000 2248.0000 -96.0000 -1.0000 0.0000 0.0000 70.750000 -3.000000
0 560.0000 2248.0000 -64.0000 -1.0000 0.0000 0.0000 70.750000 -2.000000
basebutn3
0 560.0000 2248.0000 -64.0000 0.0000 1.0000 0.0000 18.000000 -2.000000
0 528.0000 2248.0000 -96.0000 0.0000 1.0000 0.0000 17.000000 -3.000000
0 528.0000 2248.0000 -64.0000 0.0000 1.0000 0.0000 17.000000 -2.000000
basebutn3
0 560.0000 2248.0000 -64.0000 0.0000 1.0000 0.0000 18.000000 -2.000000
0 560.0000 2248.0000 -96.0000 0.0000 1.0000 0.0000 18.000000 -3.000000
0 528.0000 2248.0000 -96.0000 0.0000 1.0000 0.0000 17.000000 -3.000000
basebutn3
0 560.0000 2256.0000 -64.0000 -0.0000 0.0000 -1.0000 18.000000 70.500000
0 528.0000 2248.0000 -64.0000 -0.0000 0.0000 -1.0000 17.000000 70.250000
0 528.0000 2256.0000 -64.0000 -0.0000 0.0000 -1.0000 17.000000 70.500000
basebutn3
0 560.0000 2256.0000 -64.0000 0.0000 -0.0000 -1.0000 18.000000 70.500000
0 560.0000 2248.0000 -64.0000 0.0000 -0.0000 -1.0000 18.000000 70.250000
0 528.0000 2248.0000 -64.0000 0.0000 -0.0000 -1.0000 17.000000 70.250000
basebutn3
0 528.0000 2248.0000 -96.0000 0.0000 0.0000 1.0000 17.000000 70.250000
0 560.0000 2256.0000 -96.0000 0.0000 0.0000 1.0000 18.000000 70.500000
0 528.0000 2256.0000 -96.0000 0.0000 0.0000 1.0000 17.000000 70.500000
basebutn3
0 528.0000 2248.0000 -96.0000 0.0000 0.0000 1.0000 17.000000 70.250000
0 560.0000 2248.0000 -96.0000 0.0000 0.0000 1.0000 18.000000 70.250000
0 560.0000 2256.0000 -96.0000 0.0000 0.0000 1.0000 18.000000 70.500000
p0planet
0 528.0000 2240.0000 -64.0000 1.0000 -0.0000 0.0000 70.500000 -2.000000
0 528.0000 2248.0000 -96.0000 1.0000 -0.0000 0.0000 70.750000 -3.000000
0 528.0000 2248.0000 -64.0000 1.0000 -0.0000 0.0000 70.750000 -2.000000
p0planet
0 528.0000 2240.0000 -64.0000 1.0000 0.0000 0.0000 70.500000 -2.000000
0 528.0000 2240.0000 -96.0000 1.0000 0.0000 0.0000 70.500000 -3.000000
0 528.0000 2248.0000 -96.0000 1.0000 0.0000 0.0000 70.750000 -3.000000
p0planet
0 528.0000 2248.0000 -96.0000 0.0000 -1.0000 0.0000 17.000000 -3.000000
0 560.0000 2248.0000 -64.0000 0.0000 -1.0000 0.0000 18.000000 -2.000000
0 528.0000 2248.0000 -64.0000 0.0000 -1.0000 0.0000 17.000000 -2.000000
p0planet
0 528.0000 2248.0000 -96.0000 0.0000 -1.0000 0.0000 17.000000 -3.000000
0 560.0000 2248.0000 -96.0000 0.0000 -1.0000 0.0000 18.000000 -3.000000
0 560.0000 2248.0000 -64.0000 0.0000 -1.0000 0.0000 18.000000 -2.000000
p0planet
0 560.0000 2248.0000 -96.0000 -1.0000 0.0000 0.0000 70.750000 -3.000000
0 560.0000 2240.0000 -64.0000 -1.0000 0.0000 0.0000 70.500000 -2.000000
0 560.0000 2248.0000 -64.0000 -1.0000 0.0000 0.0000 70.750000 -2.000000
p0planet
0 560.0000 2248.0000 -96.0000 -1.0000 0.0000 0.0000 70.750000 -3.000000
0 560.0000 2240.0000 -96.0000 -1.0000 0.0000 0.0000 70.500000 -3.000000
0 560.0000 2240.0000 -64.0000 -1.0000 0.0000 0.0000 70.500000 -2.000000
p0planet
0 560.0000 2240.0000 -64.0000 0.0000 1.0000 0.0000 18.000000 -2.000000
0 528.0000 2240.0000 -96.0000 0.0000 1.0000 0.0000 17.000000 -3.000000
0 528.0000 2240.0000 -64.0000 0.0000 1.0000 0.0000 17.000000 -2.000000
p0planet
0 560.0000 2240.0000 -64.0000 0.0000 1.0000 0.0000 18.000000 -2.000000
0 560.0000 2240.0000 -96.0000 0.0000 1.0000 0.0000 18.000000 -3.000000
0 528.0000 2240.0000 -96.0000 0.0000 1.0000 0.0000 17.000000 -3.000000
p0planet
0 560.0000 2248.0000 -64.0000 -0.0000 0.0000 -1.0000 18.000000 70.250000
0 528.0000 2240.0000 -64.0000 -0.0000 0.0000 -1.0000 17.000000 70.000000
0 528.0000 2248.0000 -64.0000 -0.0000 0.0000 -1.0000 17.000000 70.250000
p0planet
0 560.0000 2248.0000 -64.0000 0.0000 -0.0000 -1.0000 18.000000 70.250000
0 560.0000 2240.0000 -64.0000 0.0000 -0.0000 -1.0000 18.000000 70.000000
0 528.0000 2240.0000 -64.0000 0.0000 -0.0000 -1.0000 17.000000 70.000000
p0planet
0 528.0000 2240.0000 -96.0000 0.0000 0.0000 1.0000 17.000000 70.000000
0 560.0000 2248.0000 -96.0000 0.0000 0.0000 1.0000 18.000000 70.250000
0 528.0000 2248.0000 -96.0000 0.0000 0.0000 1.0000 17.000000 70.250000
p0planet
0 528.0000 2240.0000 -96.0000 0.0000 0.0000 1.0000 17.000000 70.000000
0 560.0000 2240.0000 -96.0000 0.0000 0.0000 1.0000 18.000000 70.000000
0 560.0000 2248.0000 -96.0000 0.0000 0.0000 1.0000 18.000000 70.250000
end
