version 1
nodes
0 "root" -1
end
skeleton
time 0
0 0 0 0 0 0 0
end
triangles
tech04_1
0 1328.0000 600.0000 -280.0000 -0.0000 0.0000 -1.0000 10.375000 37.000000
0 1296.0000 592.0000 -280.0000 -0.0000 0.0000 -1.0000 10.125000 36.500000
0 1296.0000 600.0000 -280.0000 -0.0000 0.0000 -1.0000 10.125000 37.000000
tech04_1
0 1328.0000 600.0000 -280.0000 0.0000 -0.0000 -1.0000 10.375000 37.000000
0 1328.0000 592.0000 -280.0000 0.0000 -0.0000 -1.0000 10.375000 36.500000
0 1296.0000 592.0000 -280.0000 0.0000 -0.0000 -1.0000 10.125000 36.500000
tech04_1
0 1296.0000 592.0000 -248.0000 0.0000 0.0000 1.0000 10.125000 36.500000
0 1328.0000 600.0000 -248.0000 0.0000 0.0000 1.0000 10.375000 37.000000
0 1296.0000 600.0000 -248.0000 0.0000 0.0000 1.0000 10.125000 37.000000
tech04_1
0 1296.0000 592.0000 -248.0000 0.0000 0.0000 1.0000 10.125000 36.500000
0 1328.0000 592.0000 -248.0000 0.0000 0.0000 1.0000 10.375000 36.500000
0 1328.0000 600.0000 -248.0000 0.0000 0.0000 1.0000 10.375000 37.000000
tech04_1
0 1328.0000 600.0000 -248.0000 1.0000 0.0000 0.0000 4.687500 -16.000000
0 1328.0000 592.0000 -280.0000 1.0000 0.0000 0.0000 4.625000 -18.000000
0 1328.0000 600.0000 -280.0000 1.0000 0.0000 0.0000 4.687500 -18.000000
tech04_1
0 1328.0000 600.0000 -248.0000 1.0000 0.0000 0.0000 4.687500 -16.000000
0 1328.0000 592.0000 -248.0000 1.0000 0.0000 0.0000 4.625000 -16.000000
0 1328.0000 592.0000 -280.0000 1.0000 0.0000 0.0000 4.625000 -18.000000
tech04_1
0 1296.0000 592.0000 -248.0000 -1.0000 0.0000 0.0000 4.625000 -16.000000
0 1296.0000 600.0000 -280.0000 -1.0000 0.0000 0.0000 4.687500 -18.000000
0 1296.0000 592.0000 -280.0000 -1.0000 0.0000 0.0000 4.625000 -18.000000
tech04_1
0 1296.0000 592.0000 -248.0000 -1.0000 0.0000 0.0000 4.625000 -16.000000
0 1296.0000 600.0000 -248.0000 -1.0000 0.0000 0.0000 4.687500 -16.000000
0 1296.0000 600.0000 -280.0000 -1.0000 0.0000 0.0000 4.687500 -18.000000
z_exit
0 1296.0000 600.0000 -248.0000 0.0000 1.0000 0.0000 -40.000000 -8.000000
0 1328.0000 600.0000 -280.0000 0.0000 1.0000 0.0000 -41.000000 -9.000000
0 1296.0000 600.0000 -280.0000 0.0000 1.0000 0.0000 -40.000000 -9.000000
z_exit
0 1296.0000 600.0000 -248.0000 -0.0000 1.0000 0.0000 -40.000000 -8.000000
0 1328.0000 600.0000 -248.0000 -0.0000 1.0000 0.0000 -41.000000 -8.000000
0 1328.0000 600.0000 -280.0000 -0.0000 1.0000 0.0000 -41.000000 -9.000000
tech04_1
0 1328.0000 592.0000 -248.0000 0.0000 -1.0000 -0.0000 10.375000 -16.000000
0 1296.0000 592.0000 -280.0000 0.0000 -1.0000 -0.0000 10.125000 -18.000000
0 1328.0000 592.0000 -280.0000 0.0000 -1.0000 -0.0000 10.375000 -18.000000
tech04_1
0 1328.0000 592.0000 -248.0000 -0.0000 -1.0000 0.0000 10.375000 -16.000000
0 1296.0000 592.0000 -248.0000 -0.0000 -1.0000 0.0000 10.125000 -16.000000
0 1296.0000 592.0000 -280.0000 -0.0000 -1.0000 0.0000 10.125000 -18.000000
end
