version 1
nodes
0 "root" -1
end
skeleton
time 0
0 0 0 0 0 0 0
end
triangles
tech08_1
0 192.0000 2304.0000 144.0000 1.0000 -0.0000 0.0000 19.500000 -0.000000
0 192.0000 2432.0000 16.0000 1.0000 -0.0000 0.0000 20.500000 -1.000000
0 192.0000 2432.0000 144.0000 1.0000 -0.0000 0.0000 20.500000 -0.000000
tech08_1
0 192.0000 2304.0000 144.0000 1.0000 0.0000 0.0000 19.500000 -0.000000
0 192.0000 2304.0000 16.0000 1.0000 0.0000 0.0000 19.500000 -1.000000
0 192.0000 2432.0000 16.0000 1.0000 0.0000 0.0000 20.500000 -1.000000
tech04_3
0 192.0000 2432.0000 16.0000 0.0000 -1.0000 0.0000 12.000000 0.125000
0 208.0000 2432.0000 144.0000 0.0000 -1.0000 0.0000 13.000000 1.125000
0 192.0000 2432.0000 144.0000 0.0000 -1.0000 0.0000 12.000000 1.125000
tech04_3
0 192.0000 2432.0000 16.0000 0.0000 -1.0000 0.0000 12.000000 0.125000
0 208.0000 2432.0000 16.0000 0.0000 -1.0000 0.0000 13.000000 0.125000
0 208.0000 2432.0000 144.0000 0.0000 -1.0000 0.0000 13.000000 1.125000
tech08_1
0 208.0000 2432.0000 16.0000 -1.0000 0.0000 0.0000 20.500000 -1.000000
0 208.0000 2304.0000 144.0000 -1.0000 0.0000 0.0000 19.500000 -0.000000
0 208.0000 2432.0000 144.0000 -1.0000 0.0000 0.0000 20.500000 -0.000000
tech08_1
0 208.0000 2432.0000 16.0000 -1.0000 0.0000 0.0000 20.500000 -1.000000
0 208.0000 2304.0000 16.0000 -1.0000 0.0000 0.0000 19.500000 -1.000000
0 208.0000 2304.0000 144.0000 -1.0000 0.0000 0.0000 19.500000 -0.000000
tech04_3
0 208.0000 2304.0000 144.0000 0.0000 1.0000 0.0000 13.000000 1.125000
0 192.0000 2304.0000 16.0000 0.0000 1.0000 0.0000 12.000000 0.125000
0 192.0000 2304.0000 144.0000 0.0000 1.0000 0.0000 12.000000 1.125000
tech04_3
0 208.0000 2304.0000 144.0000 0.0000 1.0000 0.0000 13.000000 1.125000
0 208.0000 2304.0000 16.0000 0.0000 1.0000 0.0000 13.000000 0.125000
0 192.0000 2304.0000 16.0000 0.0000 1.0000 0.0000 12.000000 0.125000
tech04_3
0 208.0000 2432.0000 144.0000 -0.0000 0.0000 -1.0000 13.000000 19.000000
0 192.0000 2304.0000 144.0000 -0.0000 0.0000 -1.0000 12.000000 18.000000
0 192.0000 2432.0000 144.0000 -0.0000 0.0000 -1.0000 12.000000 19.000000
tech04_3
0 208.0000 2432.0000 144.0000 0.0000 -0.0000 -1.0000 13.000000 19.000000
0 208.0000 2304.0000 144.0000 0.0000 -0.0000 -1.0000 13.000000 18.000000
0 192.0000 2304.0000 144.0000 0.0000 -0.0000 -1.0000 12.000000 18.000000
tech04_3
0 192.0000 2304.0000 16.0000 0.0000 0.0000 1.0000 12.000000 18.000000
0 208.0000 2432.0000 16.0000 0.0000 0.0000 1.0000 13.000000 19.000000
0 192.0000 2432.0000 16.0000 0.0000 0.0000 1.0000 12.000000 19.000000
tech04_3
0 192.0000 2304.0000 16.0000 0.0000 0.0000 1.0000 12.000000 18.000000
0 208.0000 2304.0000 16.0000 0.0000 0.0000 1.0000 13.000000 18.000000
0 208.0000 2432.0000 16.0000 0.0000 0.0000 1.0000 13.000000 19.000000
end
