version 1
nodes
0 "root" -1
end
skeleton
time 0
0 0 0 0 0 0 0
end
triangles
door02_1
0 80.0000 704.0000 -160.0000 1.0000 -0.0000 0.0000 44.000000 -1.250000
0 80.0000 712.0000 -192.0000 1.0000 -0.0000 0.0000 44.500000 -1.500000
0 80.0000 712.0000 -160.0000 1.0000 -0.0000 0.0000 44.500000 -1.250000
door02_1
0 80.0000 704.0000 -160.0000 1.0000 0.0000 0.0000 44.000000 -1.250000
0 80.0000 704.0000 -192.0000 1.0000 0.0000 0.0000 44.000000 -1.500000
0 80.0000 712.0000 -192.0000 1.0000 0.0000 0.0000 44.500000 -1.500000
p0basebtn
0 80.0000 712.0000 -192.0000 0.0000 -1.0000 0.0000 3.000000 -6.000000
0 112.0000 712.0000 -160.0000 0.0000 -1.0000 0.0000 4.000000 -5.000000
0 80.0000 712.0000 -160.0000 0.0000 -1.0000 0.0000 3.000000 -5.000000
p0basebtn
0 80.0000 712.0000 -192.0000 0.0000 -1.0000 0.0000 3.000000 -6.000000
0 112.0000 712.0000 -192.0000 0.0000 -1.0000 0.0000 4.000000 -6.000000
0 112.0000 712.0000 -160.0000 0.0000 -1.0000 0.0000 4.000000 -5.000000
door02_1
0 112.0000 712.0000 -192.0000 -1.0000 0.0000 0.0000 44.500000 -1.500000
0 112.0000 704.0000 -160.0000 -1.0000 0.0000 0.0000 44.000000 -1.250000
0 112.0000 712.0000 -160.0000 -1.0000 0.0000 0.0000 44.500000 -1.250000
door02_1
0 112.0000 712.0000 -192.0000 -1.0000 0.0000 0.0000 44.500000 -1.500000
0 112.0000 704.0000 -192.0000 -1.0000 0.0000 0.0000 44.000000 -1.500000
0 112.0000 704.0000 -160.0000 -1.0000 0.0000 0.0000 44.000000 -1.250000
door02_1
0 112.0000 704.0000 -160.0000 0.0000 1.0000 0.0000 7.000000 -1.250000
0 80.0000 704.0000 -192.0000 0.0000 1.0000 0.0000 5.000000 -1.500000
0 80.0000 704.0000 -160.0000 0.0000 1.0000 0.0000 5.000000 -1.250000
door02_1
0 112.0000 704.0000 -160.0000 0.0000 1.0000 0.0000 7.000000 -1.250000
0 112.0000 704.0000 -192.0000 0.0000 1.0000 0.0000 7.000000 -1.500000
0 80.0000 704.0000 -192.0000 0.0000 1.0000 0.0000 5.000000 -1.500000
door02_1
0 112.0000 712.0000 -160.0000 -0.0000 0.0000 -1.0000 7.000000 5.562500
0 80.0000 704.0000 -160.0000 -0.0000 0.0000 -1.0000 5.000000 5.500000
0 80.0000 712.0000 -160.0000 -0.0000 0.0000 -1.0000 5.000000 5.562500
door02_1
0 112.0000 712.0000 -160.0000 0.0000 -0.0000 -1.0000 7.000000 5.562500
0 112.0000 704.0000 -160.0000 0.0000 -0.0000 -1.0000 7.000000 5.500000
0 80.0000 704.0000 -160.0000 0.0000 -0.0000 -1.0000 5.000000 5.500000
door02_1
0 80.0000 704.0000 -192.0000 0.0000 0.0000 1.0000 5.000000 5.500000
0 112.0000 712.0000 -192.0000 0.0000 0.0000 1.0000 7.000000 5.562500
0 80.0000 712.0000 -192.0000 0.0000 0.0000 1.0000 5.000000 5.562500
door02_1
0 80.0000 704.0000 -192.0000 0.0000 0.0000 1.0000 5.000000 5.500000
0 112.0000 704.0000 -192.0000 0.0000 0.0000 1.0000 7.000000 5.500000
0 112.0000 712.0000 -192.0000 0.0000 0.0000 1.0000 7.000000 5.562500
end
