version 1
nodes
0 "root" -1
end
skeleton
time 0
0 0 0 0 0 0 0
end
triangles
door02_1
0 784.0000 1984.0000 -112.0000 1.0000 -0.0000 0.0000 124.000000 -0.875000
0 784.0000 1992.0000 -144.0000 1.0000 -0.0000 0.0000 124.500000 -1.125000
0 784.0000 1992.0000 -112.0000 1.0000 -0.0000 0.0000 124.500000 -0.875000
door02_1
0 784.0000 1984.0000 -112.0000 1.0000 0.0000 0.0000 124.000000 -0.875000
0 784.0000 1984.0000 -144.0000 1.0000 0.0000 0.0000 124.000000 -1.125000
0 784.0000 1992.0000 -144.0000 1.0000 0.0000 0.0000 124.500000 -1.125000
p0basebtn
0 784.0000 1992.0000 -144.0000 0.0000 -1.0000 0.0000 25.000000 -5.000000
0 816.0000 1992.0000 -112.0000 0.0000 -1.0000 0.0000 26.000000 -4.000000
0 784.0000 1992.0000 -112.0000 0.0000 -1.0000 0.0000 25.000000 -4.000000
p0basebtn
0 784.0000 1992.0000 -144.0000 0.0000 -1.0000 0.0000 25.000000 -5.000000
0 816.0000 1992.0000 -144.0000 0.0000 -1.0000 0.0000 26.000000 -5.000000
0 816.0000 1992.0000 -112.0000 0.0000 -1.0000 0.0000 26.000000 -4.000000
door02_1
0 816.0000 1992.0000 -144.0000 -1.0000 0.0000 0.0000 124.500000 -1.125000
0 816.0000 1984.0000 -112.0000 -1.0000 0.0000 0.0000 124.000000 -0.875000
0 816.0000 1992.0000 -112.0000 -1.0000 0.0000 0.0000 124.500000 -0.875000
door02_1
0 816.0000 1992.0000 -144.0000 -1.0000 0.0000 0.0000 124.500000 -1.125000
0 816.0000 1984.0000 -144.0000 -1.0000 0.0000 0.0000 124.000000 -1.125000
0 816.0000 1984.0000 -112.0000 -1.0000 0.0000 0.0000 124.000000 -0.875000
door02_1
0 816.0000 1984.0000 -112.0000 0.0000 1.0000 0.0000 51.000000 -0.875000
0 784.0000 1984.0000 -144.0000 0.0000 1.0000 0.0000 49.000000 -1.125000
0 784.0000 1984.0000 -112.0000 0.0000 1.0000 0.0000 49.000000 -0.875000
door02_1
0 816.0000 1984.0000 -112.0000 0.0000 1.0000 0.0000 51.000000 -0.875000
0 816.0000 1984.0000 -144.0000 0.0000 1.0000 0.0000 51.000000 -1.125000
0 784.0000 1984.0000 -144.0000 0.0000 1.0000 0.0000 49.000000 -1.125000
door02_1
0 816.0000 1992.0000 -112.0000 -0.0000 0.0000 -1.0000 51.000000 15.562500
0 784.0000 1984.0000 -112.0000 -0.0000 0.0000 -1.0000 49.000000 15.500000
0 784.0000 1992.0000 -112.0000 -0.0000 0.0000 -1.0000 49.000000 15.562500
door02_1
0 816.0000 1992.0000 -112.0000 0.0000 -0.0000 -1.0000 51.000000 15.562500
0 816.0000 1984.0000 -112.0000 0.0000 -0.0000 -1.0000 51.000000 15.500000
0 784.0000 1984.0000 -112.0000 0.0000 -0.0000 -1.0000 49.000000 15.500000
door02_1
0 784.0000 1984.0000 -144.0000 0.0000 0.0000 1.0000 49.000000 15.500000
0 816.0000 1992.0000 -144.0000 0.0000 0.0000 1.0000 51.000000 15.562500
0 784.0000 1992.0000 -144.0000 0.0000 0.0000 1.0000 49.000000 15.562500
door02_1
0 784.0000 1984.0000 -144.0000 0.0000 0.0000 1.0000 49.000000 15.500000
0 816.0000 1984.0000 -144.0000 0.0000 0.0000 1.0000 51.000000 15.500000
0 816.0000 1992.0000 -144.0000 0.0000 0.0000 1.0000 51.000000 15.562500
end
