version 1
nodes
0 "root" -1
end
skeleton
time 0
0 0 0 0 0 0 0
end
triangles
door02_1
0 -68.0000 560.0000 64.0000 1.0000 -0.0000 0.0000 35.000000 0.500000
0 -68.0000 592.0000 32.0000 1.0000 -0.0000 0.0000 37.000000 0.250000
0 -68.0000 592.0000 64.0000 1.0000 -0.0000 0.0000 37.000000 0.500000
door02_1
0 -68.0000 560.0000 64.0000 1.0000 0.0000 0.0000 35.000000 0.500000
0 -68.0000 560.0000 32.0000 1.0000 0.0000 0.0000 35.000000 0.250000
0 -68.0000 592.0000 32.0000 1.0000 0.0000 0.0000 37.000000 0.250000
door02_1
0 -68.0000 592.0000 32.0000 0.0000 -1.0000 0.0000 -4.250000 0.250000
0 -60.0000 592.0000 64.0000 0.0000 -1.0000 0.0000 -3.750000 0.500000
0 -68.0000 592.0000 64.0000 0.0000 -1.0000 0.0000 -4.250000 0.500000
door02_1
0 -68.0000 592.0000 32.0000 0.0000 -1.0000 0.0000 -4.250000 0.250000
0 -60.0000 592.0000 32.0000 0.0000 -1.0000 0.0000 -3.750000 0.250000
0 -60.0000 592.0000 64.0000 0.0000 -1.0000 0.0000 -3.750000 0.500000
p0basebtn
0 -60.0000 592.0000 32.0000 -1.0000 0.0000 0.0000 19.000000 1.000000
0 -60.0000 560.0000 64.0000 -1.0000 0.0000 0.0000 18.000000 2.000000
0 -60.0000 592.0000 64.0000 -1.0000 0.0000 0.0000 19.000000 2.000000
p0basebtn
0 -60.0000 592.0000 32.0000 -1.0000 0.0000 0.0000 19.000000 1.000000
0 -60.0000 560.0000 32.0000 -1.0000 0.0000 0.0000 18.000000 1.000000
0 -60.0000 560.0000 64.0000 -1.0000 0.0000 0.0000 18.000000 2.000000
door02_1
0 -60.0000 560.0000 64.0000 0.0000 1.0000 0.0000 -3.750000 0.500000
0 -68.0000 560.0000 32.0000 0.0000 1.0000 0.0000 -4.250000 0.250000
0 -68.0000 560.0000 64.0000 0.0000 1.0000 0.0000 -4.250000 0.500000
door02_1
0 -60.0000 560.0000 64.0000 0.0000 1.0000 0.0000 -3.750000 0.500000
0 -60.0000 560.0000 32.0000 0.0000 1.0000 0.0000 -3.750000 0.250000
0 -68.0000 560.0000 32.0000 0.0000 1.0000 0.0000 -4.250000 0.250000
door02_1
0 -60.0000 592.0000 64.0000 -0.0000 0.0000 -1.0000 -3.750000 4.625000
0 -68.0000 560.0000 64.0000 -0.0000 0.0000 -1.0000 -4.250000 4.375000
0 -68.0000 592.0000 64.0000 -0.0000 0.0000 -1.0000 -4.250000 4.625000
door02_1
0 -60.0000 592.0000 64.0000 0.0000 -0.0000 -1.0000 -3.750000 4.625000
0 -60.0000 560.0000 64.0000 0.0000 -0.0000 -1.0000 -3.750000 4.375000
0 -68.0000 560.0000 64.0000 0.0000 -0.0000 -1.0000 -4.250000 4.375000
door02_1
0 -68.0000 560.0000 32.0000 0.0000 0.0000 1.0000 -4.250000 4.375000
0 -60.0000 592.0000 32.0000 0.0000 0.0000 1.0000 -3.750000 4.625000
0 -68.0000 592.0000 32.0000 0.0000 0.0000 1.0000 -4.250000 4.625000
door02_1
0 -68.0000 560.0000 32.0000 0.0000 0.0000 1.0000 -4.250000 4.375000
0 -60.0000 560.0000 32.0000 0.0000 0.0000 1.0000 -3.750000 4.375000
0 -60.0000 592.0000 32.0000 0.0000 0.0000 1.0000 -3.750000 4.625000
end
