version 1
nodes
0 "root" -1
end
skeleton
time 0
0 0 0 0 0 0 0
end
triangles
door02_1
0 -64.0000 2656.0000 -16.0000 1.0000 -0.0000 0.0000 166.000000 -0.125000
0 -64.0000 2664.0000 -48.0000 1.0000 -0.0000 0.0000 166.500000 -0.375000
0 -64.0000 2664.0000 -16.0000 1.0000 -0.0000 0.0000 166.500000 -0.125000
door02_1
0 -64.0000 2656.0000 -16.0000 1.0000 0.0000 0.0000 166.000000 -0.125000
0 -64.0000 2656.0000 -48.0000 1.0000 0.0000 0.0000 166.000000 -0.375000
0 -64.0000 2664.0000 -48.0000 1.0000 0.0000 0.0000 166.500000 -0.375000
p0basebtn
0 -64.0000 2664.0000 -48.0000 0.0000 -1.0000 0.0000 -2.000000 -2.000000
0 -32.0000 2664.0000 -16.0000 0.0000 -1.0000 0.0000 -1.000000 -1.000000
0 -64.0000 2664.0000 -16.0000 0.0000 -1.0000 0.0000 -2.000000 -1.000000
p0basebtn
0 -64.0000 2664.0000 -48.0000 0.0000 -1.0000 0.0000 -2.000000 -2.000000
0 -32.0000 2664.0000 -48.0000 0.0000 -1.0000 0.0000 -1.000000 -2.000000
0 -32.0000 2664.0000 -16.0000 0.0000 -1.0000 0.0000 -1.000000 -1.000000
door02_1
0 -32.0000 2664.0000 -48.0000 -1.0000 0.0000 0.0000 166.500000 -0.375000
0 -32.0000 2656.0000 -16.0000 -1.0000 0.0000 0.0000 166.000000 -0.125000
0 -32.0000 2664.0000 -16.0000 -1.0000 0.0000 0.0000 166.500000 -0.125000
door02_1
0 -32.0000 2664.0000 -48.0000 -1.0000 0.0000 0.0000 166.500000 -0.375000
0 -32.0000 2656.0000 -48.0000 -1.0000 0.0000 0.0000 166.000000 -0.375000
0 -32.0000 2656.0000 -16.0000 -1.0000 0.0000 0.0000 166.000000 -0.125000
door02_1
0 -32.0000 2656.0000 -16.0000 0.0000 1.0000 0.0000 -2.000000 -0.125000
0 -64.0000 2656.0000 -48.0000 0.0000 1.0000 0.0000 -4.000000 -0.375000
0 -64.0000 2656.0000 -16.0000 0.0000 1.0000 0.0000 -4.000000 -0.125000
door02_1
0 -32.0000 2656.0000 -16.0000 0.0000 1.0000 0.0000 -2.000000 -0.125000
0 -32.0000 2656.0000 -48.0000 0.0000 1.0000 0.0000 -2.000000 -0.375000
0 -64.0000 2656.0000 -48.0000 0.0000 1.0000 0.0000 -4.000000 -0.375000
door02_1
0 -32.0000 2664.0000 -16.0000 -0.0000 0.0000 -1.0000 -2.000000 20.812500
0 -64.0000 2656.0000 -16.0000 -0.0000 0.0000 -1.0000 -4.000000 20.750000
0 -64.0000 2664.0000 -16.0000 -0.0000 0.0000 -1.0000 -4.000000 20.812500
door02_1
0 -32.0000 2664.0000 -16.0000 0.0000 -0.0000 -1.0000 -2.000000 20.812500
0 -32.0000 2656.0000 -16.0000 0.0000 -0.0000 -1.0000 -2.000000 20.750000
0 -64.0000 2656.0000 -16.0000 0.0000 -0.0000 -1.0000 -4.000000 20.750000
door02_1
0 -64.0000 2656.0000 -48.0000 0.0000 0.0000 1.0000 -4.000000 20.750000
0 -32.0000 2664.0000 -48.0000 0.0000 0.0000 1.0000 -2.000000 20.812500
0 -64.0000 2664.0000 -48.0000 0.0000 0.0000 1.0000 -4.000000 20.812500
door02_1
0 -64.0000 2656.0000 -48.0000 0.0000 0.0000 1.0000 -4.000000 20.750000
0 -32.0000 2656.0000 -48.0000 0.0000 0.0000 1.0000 -2.000000 20.750000
0 -32.0000 2664.0000 -48.0000 0.0000 0.0000 1.0000 -2.000000 20.812500
end
