version 1
nodes
0 "root" -1
end
skeleton
time 0
0 0 0 0 0 0 0
end
triangles
sfloor4_2
0 1288.0000 2496.0000 -240.0000 0.0000 0.0000 1.0000 20.125000 39.000000
0 1280.0000 2504.0000 -240.0000 0.0000 0.0000 1.0000 20.000000 39.125000
0 1280.0000 2496.0000 -240.0000 0.0000 0.0000 1.0000 20.000000 39.000000
sfloor4_2
0 1288.0000 2496.0000 -240.0000 0.0000 -0.0000 1.0000 20.125000 39.000000
0 1288.0000 2504.0000 -240.0000 0.0000 -0.0000 1.0000 20.125000 39.125000
0 1280.0000 2504.0000 -240.0000 0.0000 -0.0000 1.0000 20.000000 39.125000
tlight11
0 1291.0000 2507.0000 -264.0000 -0.0000 0.0000 -1.0000 80.687500 38.921875
0 1277.0000 2493.0000 -264.0000 -0.0000 0.0000 -1.0000 79.812500 38.703125
0 1277.0000 2507.0000 -264.0000 -0.0000 0.0000 -1.0000 79.812500 38.921875
tlight11
0 1291.0000 2507.0000 -264.0000 0.0000 -0.0000 -1.0000 80.687500 38.921875
0 1291.0000 2493.0000 -264.0000 0.0000 -0.0000 -1.0000 80.687500 38.703125
0 1277.0000 2493.0000 -264.0000 0.0000 -0.0000 -1.0000 79.812500 38.703125
tlight11
0 1291.0000 2493.0000 -264.0000 0.9923 0.0000 0.1240 155.812500 -4.375000
0 1288.0000 2504.0000 -240.0000 0.9923 0.0000 0.1240 156.500000 -4.000000
0 1288.0000 2496.0000 -240.0000 0.9923 0.0000 0.1240 156.000000 -4.000000
tlight11
0 1291.0000 2493.0000 -264.0000 0.9923 -0.0000 0.1240 155.812500 -4.375000
0 1291.0000 2507.0000 -264.0000 0.9923 -0.0000 0.1240 156.687500 -4.375000
0 1288.0000 2504.0000 -240.0000 0.9923 -0.0000 0.1240 156.500000 -4.000000
tlight11
0 1291.0000 2507.0000 -264.0000 0.0000 0.9923 0.1240 80.687500 -4.375000
0 1280.0000 2504.0000 -240.0000 0.0000 0.9923 0.1240 80.000000 -4.000000
0 1288.0000 2504.0000 -240.0000 0.0000 0.9923 0.1240 80.500000 -4.000000
tlight11
0 1291.0000 2507.0000 -264.0000 0.0000 0.9923 0.1240 80.687500 -4.375000
0 1277.0000 2507.0000 -264.0000 0.0000 0.9923 0.1240 79.812500 -4.375000
0 1280.0000 2504.0000 -240.0000 0.0000 0.9923 0.1240 80.000000 -4.000000
tlight11
0 1277.0000 2507.0000 -264.0000 -0.9923 0.0000 0.1240 156.687500 -4.375000
0 1280.0000 2496.0000 -240.0000 -0.9923 0.0000 0.1240 156.000000 -4.000000
0 1280.0000 2504.0000 -240.0000 -0.9923 0.0000 0.1240 156.500000 -4.000000
tlight11
0 1277.0000 2507.0000 -264.0000 -0.9923 0.0000 0.1240 156.687500 -4.375000
0 1277.0000 2493.0000 -264.0000 -0.9923 0.0000 0.1240 155.812500 -4.375000
0 1280.0000 2496.0000 -240.0000 -0.9923 0.0000 0.1240 156.000000 -4.000000
tlight11
0 1277.0000 2493.0000 -264.0000 0.0000 -0.9923 0.1240 79.812500 -4.375000
0 1288.0000 2496.0000 -240.0000 0.0000 -0.9923 0.1240 80.500000 -4.000000
0 1280.0000 2496.0000 -240.0000 0.0000 -0.9923 0.1240 80.000000 -4.000000
tlight11
0 1277.0000 2493.0000 -264.0000 0.0000 -0.9923 0.1240 79.812500 -4.375000
0 1291.0000 2493.0000 -264.0000 0.0000 -0.9923 0.1240 80.687500 -4.375000
0 1288.0000 2496.0000 -240.0000 0.0000 -0.9923 0.1240 80.500000 -4.000000
end
