version 1
nodes
0 "root" -1
end
skeleton
time 0
0 0 0 0 0 0 0
end
triangles
door02_1
0 1248.0000 2512.0000 -240.0000 -1.0000 -0.0000 0.0000 157.000000 -1.875000
0 1248.0000 2504.0000 -272.0000 -1.0000 -0.0000 0.0000 156.500000 -2.125000
0 1248.0000 2504.0000 -240.0000 -1.0000 -0.0000 0.0000 156.500000 -1.875000
door02_1
0 1248.0000 2512.0000 -240.0000 -1.0000 0.0000 -0.0000 157.000000 -1.875000
0 1248.0000 2512.0000 -272.0000 -1.0000 0.0000 -0.0000 157.000000 -2.125000
0 1248.0000 2504.0000 -272.0000 -1.0000 0.0000 -0.0000 156.500000 -2.125000
p0basebtn
0 1248.0000 2504.0000 -272.0000 0.0000 1.0000 -0.0000 39.000000 -9.000000
0 1216.0000 2504.0000 -240.0000 0.0000 1.0000 -0.0000 38.000000 -8.000000
0 1248.0000 2504.0000 -240.0000 0.0000 1.0000 -0.0000 39.000000 -8.000000
p0basebtn
0 1248.0000 2504.0000 -272.0000 0.0000 1.0000 0.0000 39.000000 -9.000000
0 1216.0000 2504.0000 -272.0000 0.0000 1.0000 0.0000 38.000000 -9.000000
0 1216.0000 2504.0000 -240.0000 0.0000 1.0000 0.0000 38.000000 -8.000000
door02_1
0 1216.0000 2504.0000 -272.0000 1.0000 0.0000 0.0000 156.500000 -2.125000
0 1216.0000 2512.0000 -240.0000 1.0000 0.0000 0.0000 157.000000 -1.875000
0 1216.0000 2504.0000 -240.0000 1.0000 0.0000 0.0000 156.500000 -1.875000
door02_1
0 1216.0000 2504.0000 -272.0000 1.0000 0.0000 0.0000 156.500000 -2.125000
0 1216.0000 2512.0000 -272.0000 1.0000 0.0000 0.0000 157.000000 -2.125000
0 1216.0000 2512.0000 -240.0000 1.0000 0.0000 0.0000 157.000000 -1.875000
door02_1
0 1216.0000 2512.0000 -240.0000 0.0000 -1.0000 0.0000 76.000000 -1.875000
0 1248.0000 2512.0000 -272.0000 0.0000 -1.0000 0.0000 78.000000 -2.125000
0 1248.0000 2512.0000 -240.0000 0.0000 -1.0000 0.0000 78.000000 -1.875000
door02_1
0 1216.0000 2512.0000 -240.0000 0.0000 -1.0000 0.0000 76.000000 -1.875000
0 1216.0000 2512.0000 -272.0000 0.0000 -1.0000 0.0000 76.000000 -2.125000
0 1248.0000 2512.0000 -272.0000 0.0000 -1.0000 0.0000 78.000000 -2.125000
door02_1
0 1216.0000 2504.0000 -240.0000 0.0000 0.0000 -1.0000 76.000000 19.562500
0 1248.0000 2512.0000 -240.0000 0.0000 0.0000 -1.0000 78.000000 19.625000
0 1248.0000 2504.0000 -240.0000 0.0000 0.0000 -1.0000 78.000000 19.562500
door02_1
0 1216.0000 2504.0000 -240.0000 0.0000 0.0000 -1.0000 76.000000 19.562500
0 1216.0000 2512.0000 -240.0000 0.0000 0.0000 -1.0000 76.000000 19.625000
0 1248.0000 2512.0000 -240.0000 0.0000 0.0000 -1.0000 78.000000 19.625000
door02_1
0 1248.0000 2512.0000 -272.0000 0.0000 0.0000 1.0000 78.000000 19.625000
0 1216.0000 2504.0000 -272.0000 0.0000 0.0000 1.0000 76.000000 19.562500
0 1248.0000 2504.0000 -272.0000 0.0000 0.0000 1.0000 78.000000 19.562500
door02_1
0 1248.0000 2512.0000 -272.0000 0.0000 0.0000 1.0000 78.000000 19.625000
0 1216.0000 2512.0000 -272.0000 0.0000 0.0000 1.0000 76.000000 19.625000
0 1216.0000 2504.0000 -272.0000 0.0000 0.0000 1.0000 76.000000 19.562500
end
