version 1
nodes
0 "root" -1
end
skeleton
time 0
0 0 0 0 0 0 0
end
triangles
comp1_4
0 656.0000 48.0000 112.0000 1.0000 -0.0000 0.0000 1.000000 1.750000
0 656.0000 64.0000 48.0000 1.0000 -0.0000 0.0000 1.250000 0.750000
0 656.0000 64.0000 112.0000 1.0000 -0.0000 0.0000 1.250000 1.750000
comp1_4
0 656.0000 48.0000 112.0000 1.0000 0.0000 0.0000 1.000000 1.750000
0 656.0000 48.0000 48.0000 1.0000 0.0000 0.0000 1.000000 0.750000
0 656.0000 64.0000 48.0000 1.0000 0.0000 0.0000 1.250000 0.750000
comp1_6
0 656.0000 64.0000 48.0000 0.0000 -1.0000 0.0000 14.000000 -3.000000
0 720.0000 64.0000 112.0000 0.0000 -1.0000 0.0000 15.000000 -2.000000
0 656.0000 64.0000 112.0000 0.0000 -1.0000 0.0000 14.000000 -2.000000
comp1_6
0 656.0000 64.0000 48.0000 0.0000 -1.0000 0.0000 14.000000 -3.000000
0 720.0000 64.0000 48.0000 0.0000 -1.0000 0.0000 15.000000 -3.000000
0 720.0000 64.0000 112.0000 0.0000 -1.0000 0.0000 15.000000 -2.000000
comp1_6
0 720.0000 64.0000 48.0000 -1.0000 0.0000 0.0000 4.750000 -3.000000
0 720.0000 48.0000 112.0000 -1.0000 0.0000 0.0000 4.500000 -2.000000
0 720.0000 64.0000 112.0000 -1.0000 0.0000 0.0000 4.750000 -2.000000
comp1_6
0 720.0000 64.0000 48.0000 -1.0000 0.0000 0.0000 4.750000 -3.000000
0 720.0000 48.0000 48.0000 -1.0000 0.0000 0.0000 4.500000 -3.000000
0 720.0000 48.0000 112.0000 -1.0000 0.0000 0.0000 4.500000 -2.000000
comp1_6
0 720.0000 48.0000 112.0000 0.0000 1.0000 0.0000 15.000000 -2.000000
0 656.0000 48.0000 48.0000 0.0000 1.0000 0.0000 14.000000 -3.000000
0 656.0000 48.0000 112.0000 0.0000 1.0000 0.0000 14.000000 -2.000000
comp1_6
0 720.0000 48.0000 112.0000 0.0000 1.0000 0.0000 15.000000 -2.000000
0 720.0000 48.0000 48.0000 0.0000 1.0000 0.0000 15.000000 -3.000000
0 656.0000 48.0000 48.0000 0.0000 1.0000 0.0000 14.000000 -3.000000
comp1_6
0 720.0000 64.0000 112.0000 -0.0000 0.0000 -1.0000 15.000000 -2.750000
0 656.0000 48.0000 112.0000 -0.0000 0.0000 -1.0000 14.000000 -3.000000
0 656.0000 64.0000 112.0000 -0.0000 0.0000 -1.0000 14.000000 -2.750000
comp1_6
0 720.0000 64.0000 112.0000 0.0000 -0.0000 -1.0000 15.000000 -2.750000
0 720.0000 48.0000 112.0000 0.0000 -0.0000 -1.0000 15.000000 -3.000000
0 656.0000 48.0000 112.0000 0.0000 -0.0000 -1.0000 14.000000 -3.000000
comp1_6
0 656.0000 48.0000 48.0000 0.0000 0.0000 1.0000 14.000000 -3.000000
0 720.0000 64.0000 48.0000 0.0000 0.0000 1.0000 15.000000 -2.750000
0 656.0000 64.0000 48.0000 0.0000 0.0000 1.0000 14.000000 -2.750000
comp1_6
0 656.0000 48.0000 48.0000 0.0000 0.0000 1.0000 14.000000 -3.000000
0 720.0000 48.0000 48.0000 0.0000 0.0000 1.0000 15.000000 -3.000000
0 720.0000 64.0000 48.0000 0.0000 0.0000 1.0000 15.000000 -2.750000
end
