version 1
nodes
0 "root" -1
end
skeleton
time 0
0 0 0 0 0 0 0
end
triangles
plat_stem
0 -48.0000 528.0000 -240.0000 1.0000 0.0000 0.0000 33.000000 -3.750000
0 -48.0000 624.0000 -16.0000 1.0000 0.0000 0.0000 39.000000 -0.250000
0 -48.0000 528.0000 -16.0000 1.0000 0.0000 0.0000 33.000000 -0.250000
plat_stem
0 -48.0000 528.0000 -240.0000 1.0000 0.0000 0.0000 33.000000 -3.750000
0 -48.0000 624.0000 -240.0000 1.0000 0.0000 0.0000 39.000000 -3.750000
0 -48.0000 624.0000 -16.0000 1.0000 0.0000 0.0000 39.000000 -0.250000
plat_stem
0 -48.0000 624.0000 -240.0000 0.0000 -1.0000 0.0000 -3.000000 -3.750000
0 48.0000 624.0000 -16.0000 0.0000 -1.0000 0.0000 3.000000 -0.250000
0 -48.0000 624.0000 -16.0000 0.0000 -1.0000 0.0000 -3.000000 -0.250000
plat_stem
0 -48.0000 624.0000 -240.0000 0.0000 -1.0000 0.0000 -3.000000 -3.750000
0 48.0000 624.0000 -240.0000 0.0000 -1.0000 0.0000 3.000000 -3.750000
0 48.0000 624.0000 -16.0000 0.0000 -1.0000 0.0000 3.000000 -0.250000
plat_stem
0 48.0000 624.0000 -240.0000 -1.0000 0.0000 0.0000 39.000000 -3.750000
0 48.0000 528.0000 -16.0000 -1.0000 0.0000 0.0000 33.000000 -0.250000
0 48.0000 624.0000 -16.0000 -1.0000 0.0000 0.0000 39.000000 -0.250000
plat_stem
0 48.0000 624.0000 -240.0000 -1.0000 0.0000 0.0000 39.000000 -3.750000
0 48.0000 528.0000 -240.0000 -1.0000 0.0000 0.0000 33.000000 -3.750000
0 48.0000 528.0000 -16.0000 -1.0000 0.0000 0.0000 33.000000 -0.250000
plat_stem
0 48.0000 528.0000 -240.0000 0.0000 1.0000 -0.0000 3.000000 -3.750000
0 -48.0000 528.0000 -16.0000 0.0000 1.0000 -0.0000 -3.000000 -0.250000
0 48.0000 528.0000 -16.0000 0.0000 1.0000 -0.0000 3.000000 -0.250000
plat_stem
0 48.0000 528.0000 -240.0000 0.0000 1.0000 0.0000 3.000000 -3.750000
0 -48.0000 528.0000 -240.0000 0.0000 1.0000 0.0000 -3.000000 -3.750000
0 -48.0000 528.0000 -16.0000 0.0000 1.0000 0.0000 -3.000000 -0.250000
plat_stem
0 48.0000 528.0000 -16.0000 0.0000 0.0000 -1.0000 3.000000 8.250000
0 -48.0000 624.0000 -16.0000 0.0000 0.0000 -1.0000 -3.000000 9.750000
0 48.0000 624.0000 -16.0000 0.0000 0.0000 -1.0000 3.000000 9.750000
plat_stem
0 48.0000 528.0000 -16.0000 0.0000 0.0000 -1.0000 3.000000 8.250000
0 -48.0000 528.0000 -16.0000 0.0000 0.0000 -1.0000 -3.000000 8.250000
0 -48.0000 624.0000 -16.0000 0.0000 0.0000 -1.0000 -3.000000 9.750000
plat_stem
0 -48.0000 528.0000 -240.0000 0.0000 0.0000 1.0000 -3.000000 8.250000
0 48.0000 624.0000 -240.0000 0.0000 0.0000 1.0000 3.000000 9.750000
0 -48.0000 624.0000 -240.0000 0.0000 0.0000 1.0000 -3.000000 9.750000
plat_stem
0 -48.0000 528.0000 -240.0000 0.0000 0.0000 1.0000 -3.000000 8.250000
0 48.0000 528.0000 -240.0000 0.0000 0.0000 1.0000 3.000000 8.250000
0 48.0000 624.0000 -240.0000 0.0000 0.0000 1.0000 3.000000 9.750000
plat_side1
0 -64.0000 512.0000 0.0000 1.0000 -0.0000 0.0000 8.000000 -0.000000
0 -64.0000 640.0000 -16.0000 1.0000 -0.0000 0.0000 10.000000 -1.000000
0 -64.0000 640.0000 0.0000 1.0000 -0.0000 0.0000 10.000000 -0.000000
plat_side1
0 -64.0000 512.0000 0.0000 1.0000 0.0000 0.0000 8.000000 -0.000000
0 -64.0000 512.0000 -16.0000 1.0000 0.0000 0.0000 8.000000 -1.000000
0 -64.0000 640.0000 -16.0000 1.0000 0.0000 0.0000 10.000000 -1.000000
plat_side1
0 -64.0000 640.0000 -16.0000 0.0000 -1.0000 0.0000 -1.000000 -1.000000
0 64.0000 640.0000 0.0000 0.0000 -1.0000 0.0000 1.000000 -0.000000
0 -64.0000 640.0000 0.0000 0.0000 -1.0000 0.0000 -1.000000 -0.000000
plat_side1
0 -64.0000 640.0000 -16.0000 0.0000 -1.0000 0.0000 -1.000000 -1.000000
0 64.0000 640.0000 -16.0000 0.0000 -1.0000 0.0000 1.000000 -1.000000
0 64.0000 640.0000 0.0000 0.0000 -1.0000 0.0000 1.000000 -0.000000
plat_side1
0 64.0000 640.0000 -16.0000 -1.0000 0.0000 0.0000 10.000000 -1.000000
0 64.0000 512.0000 0.0000 -1.0000 0.0000 0.0000 8.000000 -0.000000
0 64.0000 640.0000 0.0000 -1.0000 0.0000 0.0000 10.000000 -0.000000
plat_side1
0 64.0000 640.0000 -16.0000 -1.0000 0.0000 0.0000 10.000000 -1.000000
0 64.0000 512.0000 -16.0000 -1.0000 0.0000 0.0000 8.000000 -1.000000
0 64.0000 512.0000 0.0000 -1.0000 0.0000 0.0000 8.000000 -0.000000
plat_side1
0 64.0000 512.0000 0.0000 0.0000 1.0000 0.0000 1.000000 -0.000000
0 -64.0000 512.0000 -16.0000 0.0000 1.0000 0.0000 -1.000000 -1.000000
0 -64.0000 512.0000 0.0000 0.0000 1.0000 0.0000 -1.000000 -0.000000
plat_side1
0 64.0000 512.0000 0.0000 0.0000 1.0000 0.0000 1.000000 -0.000000
0 64.0000 512.0000 -16.0000 0.0000 1.0000 0.0000 1.000000 -1.000000
0 -64.0000 512.0000 -16.0000 0.0000 1.0000 0.0000 -1.000000 -1.000000
plat_top1
0 64.0000 640.0000 0.0000 -0.0000 0.0000 -1.0000 1.000000 10.000000
0 -64.0000 512.0000 0.0000 -0.0000 0.0000 -1.0000 -1.000000 8.000000
0 -64.0000 640.0000 0.0000 -0.0000 0.0000 -1.0000 -1.000000 10.000000
plat_top1
0 64.0000 640.0000 0.0000 0.0000 -0.0000 -1.0000 1.000000 10.000000
0 64.0000 512.0000 0.0000 0.0000 -0.0000 -1.0000 1.000000 8.000000
0 -64.0000 512.0000 0.0000 0.0000 -0.0000 -1.0000 -1.000000 8.000000
plat_top1
0 -64.0000 512.0000 -16.0000 0.0000 0.0000 1.0000 -1.000000 8.000000
0 64.0000 640.0000 -16.0000 0.0000 0.0000 1.0000 1.000000 10.000000
0 -64.0000 640.0000 -16.0000 0.0000 0.0000 1.0000 -1.000000 10.000000
plat_top1
0 -64.0000 512.0000 -16.0000 0.0000 0.0000 1.0000 -1.000000 8.000000
0 64.0000 512.0000 -16.0000 0.0000 0.0000 1.0000 1.000000 8.000000
0 64.0000 640.0000 -16.0000 0.0000 0.0000 1.0000 1.000000 10.000000
end
