version 1
nodes
0 "root" -1
end
skeleton
time 0
0 0 0 0 0 0 0
end
triangles
edoor01_1
0 208.0000 572.0000 48.0000 0.0000 0.0000 -1.0000 1.625000 4.468750
0 256.0000 640.0000 48.0000 0.0000 0.0000 -1.0000 2.000000 5.000000
0 256.0000 572.0000 48.0000 0.0000 0.0000 -1.0000 2.000000 4.468750
edoor01_1
0 208.0000 572.0000 48.0000 0.0000 0.0000 -1.0000 1.625000 4.468750
0 208.0000 640.0000 48.0000 0.0000 0.0000 -1.0000 1.625000 5.000000
0 256.0000 640.0000 48.0000 0.0000 0.0000 -1.0000 2.000000 5.000000
edoor01_1
0 208.0000 640.0000 -0.0000 0.0000 -1.0000 0.0000 1.625000 -0.000000
0 256.0000 640.0000 48.0000 0.0000 -1.0000 0.0000 2.000000 0.375000
0 208.0000 640.0000 48.0000 0.0000 -1.0000 0.0000 1.625000 0.375000
edoor01_1
0 208.0000 640.0000 -0.0000 0.0000 -1.0000 0.0000 1.625000 -0.000000
0 256.0000 640.0000 -0.0000 0.0000 -1.0000 0.0000 2.000000 -0.000000
0 256.0000 640.0000 48.0000 0.0000 -1.0000 0.0000 2.000000 0.375000
door02_1
0 208.0000 544.0000 -0.0000 0.0000 0.0000 1.0000 13.000000 4.250000
0 256.0000 640.0000 -0.0000 0.0000 0.0000 1.0000 16.000000 5.000000
0 208.0000 640.0000 -0.0000 0.0000 0.0000 1.0000 13.000000 5.000000
door02_1
0 208.0000 544.0000 -0.0000 0.0000 0.0000 1.0000 13.000000 4.250000
0 256.0000 544.0000 -0.0000 0.0000 0.0000 1.0000 16.000000 4.250000
0 256.0000 640.0000 -0.0000 0.0000 0.0000 1.0000 16.000000 5.000000
edoor01_1
0 256.0000 640.0000 -0.0000 -1.0000 0.0000 0.0000 5.000000 -0.000000
0 256.0000 572.0000 48.0000 -1.0000 0.0000 0.0000 4.468750 0.375000
0 256.0000 640.0000 48.0000 -1.0000 0.0000 0.0000 5.000000 0.375000
edoor01_1
0 256.0000 640.0000 -0.0000 -1.0000 0.0000 0.0000 5.000000 -0.000000
0 256.0000 544.0000 -0.0000 -1.0000 0.0000 0.0000 4.250000 -0.000000
0 256.0000 572.0000 48.0000 -1.0000 0.0000 0.0000 4.468750 0.375000
edoor01_1
0 208.0000 544.0000 -0.0000 1.0000 0.0000 0.0000 4.250000 -0.000000
0 208.0000 640.0000 48.0000 1.0000 0.0000 0.0000 5.000000 0.375000
0 208.0000 572.0000 48.0000 1.0000 0.0000 0.0000 4.468750 0.375000
edoor01_1
0 208.0000 544.0000 -0.0000 1.0000 0.0000 0.0000 4.250000 -0.000000
0 208.0000 640.0000 -0.0000 1.0000 0.0000 0.0000 5.000000 -0.000000
0 208.0000 640.0000 48.0000 1.0000 0.0000 0.0000 5.000000 0.375000
door02_1
0 256.0000 544.0000 -0.0000 0.0000 0.8638 -0.5039 16.000000 -0.000000
0 208.0000 572.0000 48.0000 0.0000 0.8638 -0.5039 13.000000 0.375000
0 256.0000 572.0000 48.0000 0.0000 0.8638 -0.5039 16.000000 0.375000
door02_1
0 256.0000 544.0000 -0.0000 0.0000 0.8638 -0.5039 16.000000 -0.000000
0 208.0000 544.0000 -0.0000 0.0000 0.8638 -0.5039 13.000000 -0.000000
0 208.0000 572.0000 48.0000 0.0000 0.8638 -0.5039 13.000000 0.375000
edoor01_1
0 256.0000 616.0000 128.0000 0.0000 0.0000 -1.0000 2.000000 4.812500
0 208.0000 640.0000 128.0000 0.0000 0.0000 -1.0000 1.625000 5.000000
0 256.0000 640.0000 128.0000 0.0000 0.0000 -1.0000 2.000000 5.000000
edoor01_1
0 256.0000 616.0000 128.0000 0.0000 0.0000 -1.0000 2.000000 4.812500
0 208.0000 616.0000 128.0000 0.0000 0.0000 -1.0000 1.625000 4.812500
0 208.0000 640.0000 128.0000 0.0000 0.0000 -1.0000 1.625000 5.000000
edoor01_1
0 208.0000 640.0000 80.0000 0.0000 -1.0000 0.0000 1.625000 0.625000
0 256.0000 640.0000 128.0000 0.0000 -1.0000 0.0000 2.000000 1.000000
0 208.0000 640.0000 128.0000 0.0000 -1.0000 0.0000 1.625000 1.000000
edoor01_1
0 208.0000 640.0000 80.0000 0.0000 -1.0000 0.0000 1.625000 0.625000
0 256.0000 640.0000 80.0000 0.0000 -1.0000 0.0000 2.000000 0.625000
0 256.0000 640.0000 128.0000 0.0000 -1.0000 0.0000 2.000000 1.000000
edoor01_1
0 208.0000 640.0000 80.0000 -0.0000 0.0000 1.0000 1.625000 5.000000
0 256.0000 588.0000 80.0000 -0.0000 0.0000 1.0000 2.000000 4.593750
0 256.0000 640.0000 80.0000 -0.0000 0.0000 1.0000 2.000000 5.000000
edoor01_1
0 208.0000 640.0000 80.0000 0.0000 0.0000 1.0000 1.625000 5.000000
0 208.0000 588.0000 80.0000 0.0000 0.0000 1.0000 1.625000 4.593750
0 256.0000 588.0000 80.0000 0.0000 0.0000 1.0000 2.000000 4.593750
edoor01_1
0 256.0000 640.0000 80.0000 -1.0000 0.0000 0.0000 5.000000 0.625000
0 256.0000 616.0000 128.0000 -1.0000 0.0000 0.0000 4.812500 1.000000
0 256.0000 640.0000 128.0000 -1.0000 0.0000 0.0000 5.000000 1.000000
edoor01_1
0 256.0000 640.0000 80.0000 -1.0000 0.0000 0.0000 5.000000 0.625000
0 256.0000 588.0000 80.0000 -1.0000 0.0000 0.0000 4.593750 0.625000
0 256.0000 616.0000 128.0000 -1.0000 0.0000 0.0000 4.812500 1.000000
edoor01_1
0 208.0000 588.0000 80.0000 1.0000 0.0000 0.0000 4.593750 0.625000
0 208.0000 640.0000 128.0000 1.0000 0.0000 0.0000 5.000000 1.000000
0 208.0000 616.0000 128.0000 1.0000 0.0000 0.0000 4.812500 1.000000
edoor01_1
0 208.0000 588.0000 80.0000 1.0000 0.0000 0.0000 4.593750 0.625000
0 208.0000 640.0000 80.0000 1.0000 0.0000 0.0000 5.000000 0.625000
0 208.0000 640.0000 128.0000 1.0000 0.0000 0.0000 5.000000 1.000000
door02_1
0 256.0000 588.0000 80.0000 0.0000 0.8638 -0.5039 16.000000 0.625000
0 208.0000 616.0000 128.0000 0.0000 0.8638 -0.5039 13.000000 1.000000
0 256.0000 616.0000 128.0000 0.0000 0.8638 -0.5039 16.000000 1.000000
door02_1
0 256.0000 588.0000 80.0000 0.0000 0.8638 -0.5039 16.000000 0.625000
0 208.0000 588.0000 80.0000 0.0000 0.8638 -0.5039 13.000000 0.625000
0 208.0000 616.0000 128.0000 0.0000 0.8638 -0.5039 13.000000 1.000000
door02_1
0 256.0000 558.5714 80.0000 0.0000 0.0000 -1.0000 16.000000 4.363839
0 208.0000 640.0000 80.0000 0.0000 0.0000 -1.0000 13.000000 5.000000
0 256.0000 640.0000 80.0000 0.0000 0.0000 -1.0000 16.000000 5.000000
door02_1
0 256.0000 558.5714 80.0000 0.0000 0.0000 -1.0000 16.000000 4.363839
0 208.0000 558.5714 80.0000 0.0000 0.0000 -1.0000 13.000000 4.363839
0 208.0000 640.0000 80.0000 0.0000 0.0000 -1.0000 13.000000 5.000000
edoor01_1
0 208.0000 640.0000 80.0000 0.0000 -1.0000 0.0000 1.625000 0.625000
0 256.0000 640.0000 48.0000 0.0000 -1.0000 0.0000 2.000000 0.375000
0 256.0000 640.0000 80.0000 0.0000 -1.0000 0.0000 2.000000 0.625000
edoor01_1
0 208.0000 640.0000 80.0000 0.0000 -1.0000 0.0000 1.625000 0.625000
0 208.0000 640.0000 48.0000 0.0000 -1.0000 0.0000 1.625000 0.375000
0 256.0000 640.0000 48.0000 0.0000 -1.0000 0.0000 2.000000 0.375000
door02_1
0 208.0000 640.0000 48.0000 -0.0000 0.0000 1.0000 13.000000 5.000000
0 256.0000 538.0000 48.0000 -0.0000 0.0000 1.0000 16.000000 4.203125
0 256.0000 640.0000 48.0000 -0.0000 0.0000 1.0000 16.000000 5.000000
door02_1
0 208.0000 640.0000 48.0000 0.0000 0.0000 1.0000 13.000000 5.000000
0 208.0000 538.0000 48.0000 0.0000 0.0000 1.0000 13.000000 4.203125
0 256.0000 538.0000 48.0000 0.0000 0.0000 1.0000 16.000000 4.203125
edoor01_1
0 256.0000 640.0000 48.0000 -1.0000 0.0000 0.0000 5.000000 0.375000
0 256.0000 558.5714 80.0000 -1.0000 0.0000 0.0000 4.363839 0.625000
0 256.0000 640.0000 80.0000 -1.0000 0.0000 0.0000 5.000000 0.625000
edoor01_1
0 256.0000 640.0000 48.0000 -1.0000 0.0000 0.0000 5.000000 0.375000
0 256.0000 538.0000 48.0000 -1.0000 0.0000 0.0000 4.203125 0.375000
0 256.0000 558.5714 80.0000 -1.0000 0.0000 0.0000 4.363839 0.625000
edoor01_1
0 208.0000 538.0000 48.0000 1.0000 0.0000 0.0000 4.203125 0.375000
0 208.0000 640.0000 80.0000 1.0000 0.0000 0.0000 5.000000 0.625000
0 208.0000 558.5714 80.0000 1.0000 0.0000 0.0000 4.363839 0.625000
edoor01_1
0 208.0000 538.0000 48.0000 1.0000 0.0000 0.0000 4.203125 0.375000
0 208.0000 640.0000 48.0000 1.0000 0.0000 0.0000 5.000000 0.375000
0 208.0000 640.0000 80.0000 1.0000 0.0000 0.0000 5.000000 0.625000
door02_1
0 208.0000 538.0000 48.0000 0.0000 0.8412 -0.5408 13.000000 0.375000
0 256.0000 558.5714 80.0000 0.0000 0.8412 -0.5408 16.000000 0.625000
0 256.0000 538.0000 48.0000 0.0000 0.8412 -0.5408 16.000000 0.375000
door02_1
0 208.0000 538.0000 48.0000 0.0000 0.8412 -0.5408 13.000000 0.375000
0 208.0000 558.5714 80.0000 0.0000 0.8412 -0.5408 13.000000 0.625000
0 256.0000 558.5714 80.0000 0.0000 0.8412 -0.5408 16.000000 0.625000
end
