version 1
nodes
0 "root" -1
end
skeleton
time 0
0 0 0 0 0 0 0
end
triangles
sfloor4_2
0 1288.0000 1992.0000 -176.0000 0.0000 0.0000 1.0000 20.125000 31.125000
0 1280.0000 2000.0000 -176.0000 0.0000 0.0000 1.0000 20.000000 31.250000
0 1280.0000 1992.0000 -176.0000 0.0000 0.0000 1.0000 20.000000 31.125000
sfloor4_2
0 1288.0000 1992.0000 -176.0000 0.0000 -0.0000 1.0000 20.125000 31.125000
0 1288.0000 2000.0000 -176.0000 0.0000 -0.0000 1.0000 20.125000 31.250000
0 1280.0000 2000.0000 -176.0000 0.0000 -0.0000 1.0000 20.000000 31.250000
tlight11
0 1291.0000 2003.0000 -200.0000 -0.0000 0.0000 -1.0000 80.687500 31.046875
0 1277.0000 1989.0000 -200.0000 -0.0000 0.0000 -1.0000 79.812500 30.828125
0 1277.0000 2003.0000 -200.0000 -0.0000 0.0000 -1.0000 79.812500 31.046875
tlight11
0 1291.0000 2003.0000 -200.0000 0.0000 -0.0000 -1.0000 80.687500 31.046875
0 1291.0000 1989.0000 -200.0000 0.0000 -0.0000 -1.0000 80.687500 30.828125
0 1277.0000 1989.0000 -200.0000 0.0000 -0.0000 -1.0000 79.812500 30.828125
tlight11
0 1291.0000 1989.0000 -200.0000 0.9923 0.0000 0.1240 124.312500 -3.375000
0 1288.0000 2000.0000 -176.0000 0.9923 0.0000 0.1240 125.000000 -3.000000
0 1288.0000 1992.0000 -176.0000 0.9923 0.0000 0.1240 124.500000 -3.000000
tlight11
0 1291.0000 1989.0000 -200.0000 0.9923 -0.0000 0.1240 124.312500 -3.375000
0 1291.0000 2003.0000 -200.0000 0.9923 -0.0000 0.1240 125.187500 -3.375000
0 1288.0000 2000.0000 -176.0000 0.9923 -0.0000 0.1240 125.000000 -3.000000
tlight11
0 1291.0000 2003.0000 -200.0000 0.0000 0.9923 0.1240 80.687500 -3.375000
0 1280.0000 2000.0000 -176.0000 0.0000 0.9923 0.1240 80.000000 -3.000000
0 1288.0000 2000.0000 -176.0000 0.0000 0.9923 0.1240 80.500000 -3.000000
tlight11
0 1291.0000 2003.0000 -200.0000 0.0000 0.9923 0.1240 80.687500 -3.375000
0 1277.0000 2003.0000 -200.0000 0.0000 0.9923 0.1240 79.812500 -3.375000
0 1280.0000 2000.0000 -176.0000 0.0000 0.9923 0.1240 80.000000 -3.000000
tlight11
0 1277.0000 2003.0000 -200.0000 -0.9923 0.0000 0.1240 125.187500 -3.375000
0 1280.0000 1992.0000 -176.0000 -0.9923 0.0000 0.1240 124.500000 -3.000000
0 1280.0000 2000.0000 -176.0000 -0.9923 0.0000 0.1240 125.000000 -3.000000
tlight11
0 1277.0000 2003.0000 -200.0000 -0.9923 0.0000 0.1240 125.187500 -3.375000
0 1277.0000 1989.0000 -200.0000 -0.9923 0.0000 0.1240 124.312500 -3.375000
0 1280.0000 1992.0000 -176.0000 -0.9923 0.0000 0.1240 124.500000 -3.000000
tlight11
0 1277.0000 1989.0000 -200.0000 0.0000 -0.9923 0.1240 79.812500 -3.375000
0 1288.0000 1992.0000 -176.0000 0.0000 -0.9923 0.1240 80.500000 -3.000000
0 1280.0000 1992.0000 -176.0000 0.0000 -0.9923 0.1240 80.000000 -3.000000
tlight11
0 1277.0000 1989.0000 -200.0000 0.0000 -0.9923 0.1240 79.812500 -3.375000
0 1291.0000 1989.0000 -200.0000 0.0000 -0.9923 0.1240 80.687500 -3.375000
0 1288.0000 1992.0000 -176.0000 0.0000 -0.9923 0.1240 80.500000 -3.000000
end
