version 1
nodes
0 "root" -1
end
skeleton
time 0
0 0 0 0 0 0 0
end
triangles
xwater0
0 992.0000 544.0000 -296.0000 0.0000 0.0000 -1.0000 15.500000 8.500000
0 984.0000 544.0000 -296.0000 0.0000 0.0000 -1.0000 15.375000 8.500000
0 992.0000 576.0000 -296.0000 0.0000 0.0000 -1.0000 15.500000 9.000000
xwater0
0 992.0000 576.0000 -296.0000 0.0000 0.0000 1.0000 15.500000 9.000000
0 984.0000 544.0000 -296.0000 0.0000 0.0000 1.0000 15.375000 8.500000
0 992.0000 544.0000 -296.0000 0.0000 0.0000 1.0000 15.500000 8.500000
xwater0
0 992.0000 528.0000 -296.0000 0.0000 0.0000 -1.0000 15.500000 8.250000
0 984.0000 544.0000 -296.0000 0.0000 0.0000 -1.0000 15.375000 8.500000
0 992.0000 544.0000 -296.0000 0.0000 0.0000 -1.0000 15.500000 8.500000
xwater0
0 992.0000 528.0000 -296.0000 0.0000 0.0000 -1.0000 15.500000 8.250000
0 980.0000 528.0000 -296.0000 0.0000 0.0000 -1.0000 15.312500 8.250000
0 984.0000 544.0000 -296.0000 0.0000 0.0000 -1.0000 15.375000 8.500000
xwater0
0 992.0000 544.0000 -296.0000 0.0000 0.0000 1.0000 15.500000 8.500000
0 980.0000 528.0000 -296.0000 0.0000 0.0000 1.0000 15.312500 8.250000
0 992.0000 528.0000 -296.0000 0.0000 0.0000 1.0000 15.500000 8.250000
xwater0
0 992.0000 544.0000 -296.0000 0.0000 0.0000 1.0000 15.500000 8.500000
0 984.0000 544.0000 -296.0000 0.0000 0.0000 1.0000 15.375000 8.500000
0 980.0000 528.0000 -296.0000 0.0000 0.0000 1.0000 15.312500 8.250000
xwater0
0 992.0000 528.0000 -296.0000 0.0000 0.0000 1.0000 15.500000 8.250000
0 973.7143 502.8571 -296.0000 0.0000 0.0000 1.0000 15.214286 7.857143
0 992.0000 512.0000 -296.0000 0.0000 0.0000 1.0000 15.500000 8.000000
xwater0
0 992.0000 528.0000 -296.0000 0.0000 0.0000 1.0000 15.500000 8.250000
0 980.0000 528.0000 -296.0000 0.0000 0.0000 1.0000 15.312500 8.250000
0 973.7143 502.8571 -296.0000 0.0000 0.0000 1.0000 15.214286 7.857143
xwater0
0 973.7143 502.8571 -296.0000 0.0000 0.0000 -1.0000 15.214286 7.857143
0 992.0000 528.0000 -296.0000 0.0000 0.0000 -1.0000 15.500000 8.250000
0 992.0000 512.0000 -296.0000 0.0000 0.0000 -1.0000 15.500000 8.000000
xwater0
0 973.7143 502.8571 -296.0000 0.0000 0.0000 -1.0000 15.214286 7.857143
0 980.0000 528.0000 -296.0000 0.0000 0.0000 -1.0000 15.312500 8.250000
0 992.0000 528.0000 -296.0000 0.0000 0.0000 -1.0000 15.500000 8.250000
xwater0
0 -96.0000 1280.0000 -296.0000 0.0000 -0.0000 1.0000 -1.500000 20.000000
0 -96.0000 1328.0000 -296.0000 0.0000 -0.0000 1.0000 -1.500000 20.750000
0 -108.0000 1328.0000 -296.0000 0.0000 -0.0000 1.0000 -1.687500 20.750000
xwater0
0 -96.0000 1280.0000 -296.0000 0.0000 0.0000 -1.0000 -1.500000 20.000000
0 -108.0000 1328.0000 -296.0000 0.0000 0.0000 -1.0000 -1.687500 20.750000
0 -96.0000 1328.0000 -296.0000 0.0000 0.0000 -1.0000 -1.500000 20.750000
xwater0
0 640.0000 1024.0000 -296.0000 0.0000 0.0000 1.0000 10.000000 16.000000
0 560.0000 896.0000 -296.0000 0.0000 0.0000 1.0000 8.750000 14.000000
0 640.0000 896.0000 -296.0000 0.0000 0.0000 1.0000 10.000000 14.000000
xwater0
0 640.0000 1024.0000 -296.0000 0.0000 0.0000 1.0000 10.000000 16.000000
0 512.0000 936.0000 -296.0000 0.0000 0.0000 1.0000 8.000000 14.625000
0 560.0000 896.0000 -296.0000 0.0000 0.0000 1.0000 8.750000 14.000000
xwater0
0 640.0000 1024.0000 -296.0000 0.0000 0.0000 1.0000 10.000000 16.000000
0 512.0000 1088.0000 -296.0000 0.0000 0.0000 1.0000 8.000000 17.000000
0 512.0000 936.0000 -296.0000 0.0000 0.0000 1.0000 8.000000 14.625000
xwater0
0 640.0000 1024.0000 -296.0000 0.0000 -0.0000 1.0000 10.000000 16.000000
0 640.0000 1088.0000 -296.0000 0.0000 -0.0000 1.0000 10.000000 17.000000
0 512.0000 1088.0000 -296.0000 0.0000 -0.0000 1.0000 8.000000 17.000000
xwater0
0 512.0000 1088.0000 -296.0000 0.0000 0.0000 -1.0000 8.000000 17.000000
0 560.0000 896.0000 -296.0000 0.0000 0.0000 -1.0000 8.750000 14.000000
0 512.0000 936.0000 -296.0000 0.0000 0.0000 -1.0000 8.000000 14.625000
xwater0
0 512.0000 1088.0000 -296.0000 0.0000 0.0000 -1.0000 8.000000 17.000000
0 640.0000 896.0000 -296.0000 0.0000 0.0000 -1.0000 10.000000 14.000000
0 560.0000 896.0000 -296.0000 0.0000 0.0000 -1.0000 8.750000 14.000000
xwater0
0 512.0000 1088.0000 -296.0000 0.0000 0.0000 -1.0000 8.000000 17.000000
0 640.0000 1024.0000 -296.0000 0.0000 0.0000 -1.0000 10.000000 16.000000
0 640.0000 896.0000 -296.0000 0.0000 0.0000 -1.0000 10.000000 14.000000
xwater0
0 512.0000 1088.0000 -296.0000 0.0000 0.0000 -1.0000 8.000000 17.000000
0 640.0000 1088.0000 -296.0000 0.0000 0.0000 -1.0000 10.000000 17.000000
0 640.0000 1024.0000 -296.0000 0.0000 0.0000 -1.0000 10.000000 16.000000
xwater0
0 640.0000 1088.0000 -296.0000 0.0000 0.0000 -1.0000 10.000000 17.000000
0 568.0000 1120.0000 -296.0000 0.0000 0.0000 -1.0000 8.875000 17.500000
0 640.0000 1120.0000 -296.0000 0.0000 0.0000 -1.0000 10.000000 17.500000
xwater0
0 640.0000 1088.0000 -296.0000 0.0000 0.0000 -1.0000 10.000000 17.000000
0 480.0000 1120.0000 -296.0000 0.0000 0.0000 -1.0000 7.500000 17.500000
0 568.0000 1120.0000 -296.0000 0.0000 0.0000 -1.0000 8.875000 17.500000
xwater0
0 640.0000 1088.0000 -296.0000 0.0000 0.0000 -1.0000 10.000000 17.000000
0 512.0000 1088.0000 -296.0000 0.0000 0.0000 -1.0000 8.000000 17.000000
0 480.0000 1120.0000 -296.0000 0.0000 0.0000 -1.0000 7.500000 17.500000
xwater0
0 568.0000 1120.0000 -296.0000 -0.0000 0.0000 1.0000 8.875000 17.500000
0 640.0000 1088.0000 -296.0000 -0.0000 0.0000 1.0000 10.000000 17.000000
0 640.0000 1120.0000 -296.0000 -0.0000 0.0000 1.0000 10.000000 17.500000
xwater0
0 568.0000 1120.0000 -296.0000 0.0000 0.0000 1.0000 8.875000 17.500000
0 512.0000 1088.0000 -296.0000 0.0000 0.0000 1.0000 8.000000 17.000000
0 640.0000 1088.0000 -296.0000 0.0000 0.0000 1.0000 10.000000 17.000000
xwater0
0 568.0000 1120.0000 -296.0000 0.0000 0.0000 1.0000 8.875000 17.500000
0 480.0000 1120.0000 -296.0000 0.0000 0.0000 1.0000 7.500000 17.500000
0 512.0000 1088.0000 -296.0000 0.0000 0.0000 1.0000 8.000000 17.000000
xwater0
0 116.0000 1328.0000 -296.0000 0.0000 0.0000 0.0000 1.812500 20.750000
0 360.0000 1328.0000 -296.0000 0.0000 0.0000 0.0000 5.625000 20.750000
0 340.0000 1328.0000 -296.0000 0.0000 0.0000 0.0000 5.312500 20.750000
xwater0
0 116.0000 1328.0000 -296.0000 -0.0000 0.0000 1.0000 1.812500 20.750000
0 360.0000 1304.0000 -296.0000 -0.0000 0.0000 1.0000 5.625000 20.375000
0 360.0000 1328.0000 -296.0000 -0.0000 0.0000 1.0000 5.625000 20.750000
xwater0
0 116.0000 1328.0000 -296.0000 0.0000 0.0000 1.0000 1.812500 20.750000
0 360.0000 1280.0000 -296.0000 0.0000 0.0000 1.0000 5.625000 20.000000
0 360.0000 1304.0000 -296.0000 0.0000 0.0000 1.0000 5.625000 20.375000
xwater0
0 116.0000 1328.0000 -296.0000 0.0000 0.0000 1.0000 1.812500 20.750000
0 360.0000 1152.0000 -296.0000 0.0000 0.0000 1.0000 5.625000 18.000000
0 360.0000 1280.0000 -296.0000 0.0000 0.0000 1.0000 5.625000 20.000000
xwater0
0 116.0000 1328.0000 -296.0000 0.0000 0.0000 1.0000 1.812500 20.750000
0 360.0000 1120.0000 -296.0000 0.0000 0.0000 1.0000 5.625000 17.500000
0 360.0000 1152.0000 -296.0000 0.0000 0.0000 1.0000 5.625000 18.000000
xwater0
0 116.0000 1328.0000 -296.0000 0.0000 0.0000 1.0000 1.812500 20.750000
0 360.0000 1088.0000 -296.0000 0.0000 0.0000 1.0000 5.625000 17.000000
0 360.0000 1120.0000 -296.0000 0.0000 0.0000 1.0000 5.625000 17.500000
xwater0
0 116.0000 1328.0000 -296.0000 0.0000 0.0000 1.0000 1.812500 20.750000
0 128.0000 1088.0000 -296.0000 0.0000 0.0000 1.0000 2.000000 17.000000
0 360.0000 1088.0000 -296.0000 0.0000 0.0000 1.0000 5.625000 17.000000
xwater0
0 116.0000 1328.0000 -296.0000 0.0000 0.0000 1.0000 1.812500 20.750000
0 -96.0000 1088.0000 -296.0000 0.0000 0.0000 1.0000 -1.500000 17.000000
0 128.0000 1088.0000 -296.0000 0.0000 0.0000 1.0000 2.000000 17.000000
xwater0
0 116.0000 1328.0000 -296.0000 0.0000 0.0000 1.0000 1.812500 20.750000
0 -96.0000 1280.0000 -296.0000 0.0000 0.0000 1.0000 -1.500000 20.000000
0 -96.0000 1088.0000 -296.0000 0.0000 0.0000 1.0000 -1.500000 17.000000
xwater0
0 116.0000 1328.0000 -296.0000 0.0000 0.0000 1.0000 1.812500 20.750000
0 -96.0000 1328.0000 -296.0000 0.0000 0.0000 1.0000 -1.500000 20.750000
0 -96.0000 1280.0000 -296.0000 0.0000 0.0000 1.0000 -1.500000 20.000000
xwater0
0 128.0000 1088.0000 -296.0000 0.0000 0.0000 -1.0000 2.000000 17.000000
0 360.0000 1120.0000 -296.0000 0.0000 0.0000 -1.0000 5.625000 17.500000
0 360.0000 1088.0000 -296.0000 0.0000 0.0000 -1.0000 5.625000 17.000000
xwater0
0 128.0000 1088.0000 -296.0000 0.0000 0.0000 -1.0000 2.000000 17.000000
0 360.0000 1152.0000 -296.0000 0.0000 0.0000 -1.0000 5.625000 18.000000
0 360.0000 1120.0000 -296.0000 0.0000 0.0000 -1.0000 5.625000 17.500000
xwater0
0 128.0000 1088.0000 -296.0000 0.0000 0.0000 -1.0000 2.000000 17.000000
0 360.0000 1280.0000 -296.0000 0.0000 0.0000 -1.0000 5.625000 20.000000
0 360.0000 1152.0000 -296.0000 0.0000 0.0000 -1.0000 5.625000 18.000000
xwater0
0 128.0000 1088.0000 -296.0000 0.0000 0.0000 -1.0000 2.000000 17.000000
0 360.0000 1304.0000 -296.0000 0.0000 0.0000 -1.0000 5.625000 20.375000
0 360.0000 1280.0000 -296.0000 0.0000 0.0000 -1.0000 5.625000 20.000000
xwater0
0 128.0000 1088.0000 -296.0000 0.0000 0.0000 -1.0000 2.000000 17.000000
0 360.0000 1328.0000 -296.0000 0.0000 0.0000 -1.0000 5.625000 20.750000
0 360.0000 1304.0000 -296.0000 0.0000 0.0000 -1.0000 5.625000 20.375000
xwater0
0 128.0000 1088.0000 -296.0000 0.0000 0.0000 -1.0000 2.000000 17.000000
0 340.0000 1328.0000 -296.0000 0.0000 0.0000 -1.0000 5.312500 20.750000
0 360.0000 1328.0000 -296.0000 0.0000 0.0000 -1.0000 5.625000 20.750000
xwater0
0 128.0000 1088.0000 -296.0000 0.0000 0.0000 -1.0000 2.000000 17.000000
0 116.0000 1328.0000 -296.0000 0.0000 0.0000 -1.0000 1.812500 20.750000
0 340.0000 1328.0000 -296.0000 0.0000 0.0000 -1.0000 5.312500 20.750000
xwater0
0 128.0000 1088.0000 -296.0000 0.0000 0.0000 -1.0000 2.000000 17.000000
0 -96.0000 1328.0000 -296.0000 0.0000 0.0000 -1.0000 -1.500000 20.750000
0 116.0000 1328.0000 -296.0000 0.0000 0.0000 -1.0000 1.812500 20.750000
xwater0
0 128.0000 1088.0000 -296.0000 0.0000 0.0000 -1.0000 2.000000 17.000000
0 -96.0000 1280.0000 -296.0000 0.0000 0.0000 -1.0000 -1.500000 20.000000
0 -96.0000 1328.0000 -296.0000 0.0000 0.0000 -1.0000 -1.500000 20.750000
xwater0
0 128.0000 1088.0000 -296.0000 0.0000 0.0000 -1.0000 2.000000 17.000000
0 -96.0000 1088.0000 -296.0000 0.0000 0.0000 -1.0000 -1.500000 17.000000
0 -96.0000 1280.0000 -296.0000 0.0000 0.0000 -1.0000 -1.500000 20.000000
xwater0
0 440.0000 1168.0000 -296.0000 0.0000 0.0000 1.0000 6.875000 18.250000
0 360.0000 1152.0000 -296.0000 0.0000 0.0000 1.0000 5.625000 18.000000
0 440.0000 1152.0000 -296.0000 0.0000 0.0000 1.0000 6.875000 18.000000
xwater0
0 440.0000 1168.0000 -296.0000 0.0000 0.0000 1.0000 6.875000 18.250000
0 360.0000 1280.0000 -296.0000 0.0000 0.0000 1.0000 5.625000 20.000000
0 360.0000 1152.0000 -296.0000 0.0000 0.0000 1.0000 5.625000 18.000000
xwater0
0 440.0000 1168.0000 -296.0000 0.0000 -0.0000 1.0000 6.875000 18.250000
0 440.0000 1280.0000 -296.0000 0.0000 -0.0000 1.0000 6.875000 20.000000
0 360.0000 1280.0000 -296.0000 0.0000 -0.0000 1.0000 5.625000 20.000000
xwater0
0 360.0000 1152.0000 -296.0000 0.0000 0.0000 -1.0000 5.625000 18.000000
0 440.0000 1168.0000 -296.0000 0.0000 0.0000 -1.0000 6.875000 18.250000
0 440.0000 1152.0000 -296.0000 0.0000 0.0000 -1.0000 6.875000 18.000000
xwater0
0 360.0000 1152.0000 -296.0000 0.0000 0.0000 -1.0000 5.625000 18.000000
0 440.0000 1280.0000 -296.0000 0.0000 0.0000 -1.0000 6.875000 20.000000
0 440.0000 1168.0000 -296.0000 0.0000 0.0000 -1.0000 6.875000 18.250000
xwater0
0 360.0000 1152.0000 -296.0000 0.0000 0.0000 -1.0000 5.625000 18.000000
0 360.0000 1280.0000 -296.0000 0.0000 0.0000 -1.0000 5.625000 20.000000
0 440.0000 1280.0000 -296.0000 0.0000 0.0000 -1.0000 6.875000 20.000000
xwater0
0 360.0000 1328.0000 -296.0000 -0.0000 0.0000 1.0000 5.625000 20.750000
0 360.0000 1304.0000 -296.0000 -0.0000 0.0000 1.0000 5.625000 20.375000
0 374.4000 1328.0000 -296.0000 -0.0000 0.0000 1.0000 5.850000 20.750000
xwater0
0 360.0000 1304.0000 -296.0000 0.0000 0.0000 -1.0000 5.625000 20.375000
0 360.0000 1328.0000 -296.0000 0.0000 0.0000 -1.0000 5.625000 20.750000
0 374.4000 1328.0000 -296.0000 0.0000 0.0000 -1.0000 5.850000 20.750000
xwater0
0 520.0000 1168.0000 -296.0000 0.0000 0.0000 1.0000 8.125000 18.250000
0 576.0000 1296.0000 -296.0000 0.0000 0.0000 1.0000 9.000000 20.250000
0 520.0000 1296.0000 -296.0000 0.0000 0.0000 1.0000 8.125000 20.250000
xwater0
0 520.0000 1168.0000 -296.0000 0.0000 0.0000 1.0000 8.125000 18.250000
0 640.0000 1248.0000 -296.0000 0.0000 0.0000 1.0000 10.000000 19.500000
0 576.0000 1296.0000 -296.0000 0.0000 0.0000 1.0000 9.000000 20.250000
xwater0
0 520.0000 1168.0000 -296.0000 -0.0000 0.0000 1.0000 8.125000 18.250000
0 640.0000 1120.0000 -296.0000 -0.0000 0.0000 1.0000 10.000000 17.500000
0 640.0000 1248.0000 -296.0000 -0.0000 0.0000 1.0000 10.000000 19.500000
xwater0
0 520.0000 1168.0000 -296.0000 0.0000 0.0000 1.0000 8.125000 18.250000
0 568.0000 1120.0000 -296.0000 0.0000 0.0000 1.0000 8.875000 17.500000
0 640.0000 1120.0000 -296.0000 0.0000 0.0000 1.0000 10.000000 17.500000
xwater0
0 640.0000 1248.0000 -296.0000 0.0000 0.0000 -1.0000 10.000000 19.500000
0 520.0000 1296.0000 -296.0000 0.0000 0.0000 -1.0000 8.125000 20.250000
0 576.0000 1296.0000 -296.0000 0.0000 0.0000 -1.0000 9.000000 20.250000
xwater0
0 640.0000 1248.0000 -296.0000 -0.0000 0.0000 -1.0000 10.000000 19.500000
0 520.0000 1168.0000 -296.0000 -0.0000 0.0000 -1.0000 8.125000 18.250000
0 520.0000 1296.0000 -296.0000 -0.0000 0.0000 -1.0000 8.125000 20.250000
xwater0
0 640.0000 1248.0000 -296.0000 0.0000 0.0000 -1.0000 10.000000 19.500000
0 568.0000 1120.0000 -296.0000 0.0000 0.0000 -1.0000 8.875000 17.500000
0 520.0000 1168.0000 -296.0000 0.0000 0.0000 -1.0000 8.125000 18.250000
xwater0
0 640.0000 1248.0000 -296.0000 0.0000 -0.0000 -1.0000 10.000000 19.500000
0 640.0000 1120.0000 -296.0000 0.0000 -0.0000 -1.0000 10.000000 17.500000
0 568.0000 1120.0000 -296.0000 0.0000 -0.0000 -1.0000 8.875000 17.500000
xwater0
0 440.0000 1168.0000 -296.0000 0.0000 0.0000 0.0000 6.875000 18.250000
0 440.0000 1296.0000 -296.0000 0.0000 0.0000 0.0000 6.875000 20.250000
0 440.0000 1280.0000 -296.0000 0.0000 0.0000 0.0000 6.875000 20.000000
xwater0
0 440.0000 1168.0000 -296.0000 0.0000 0.0000 1.0000 6.875000 18.250000
0 520.0000 1296.0000 -296.0000 0.0000 0.0000 1.0000 8.125000 20.250000
0 440.0000 1296.0000 -296.0000 0.0000 0.0000 1.0000 6.875000 20.250000
xwater0
0 440.0000 1168.0000 -296.0000 0.0000 0.0000 1.0000 6.875000 18.250000
0 520.0000 1168.0000 -296.0000 0.0000 0.0000 1.0000 8.125000 18.250000
0 520.0000 1296.0000 -296.0000 0.0000 0.0000 1.0000 8.125000 20.250000
xwater0
0 440.0000 1296.0000 -296.0000 0.0000 0.0000 0.0000 6.875000 20.250000
0 440.0000 1168.0000 -296.0000 0.0000 0.0000 0.0000 6.875000 18.250000
0 440.0000 1280.0000 -296.0000 0.0000 0.0000 0.0000 6.875000 20.000000
xwater0
0 440.0000 1296.0000 -296.0000 0.0000 0.0000 -1.0000 6.875000 20.250000
0 520.0000 1168.0000 -296.0000 0.0000 0.0000 -1.0000 8.125000 18.250000
0 440.0000 1168.0000 -296.0000 0.0000 0.0000 -1.0000 6.875000 18.250000
xwater0
0 440.0000 1296.0000 -296.0000 0.0000 0.0000 -1.0000 6.875000 20.250000
0 520.0000 1296.0000 -296.0000 0.0000 0.0000 -1.0000 8.125000 20.250000
0 520.0000 1168.0000 -296.0000 0.0000 0.0000 -1.0000 8.125000 18.250000
xwater0
0 440.0000 1152.0000 -296.0000 0.0000 0.0000 1.0000 6.875000 18.000000
0 520.0000 1168.0000 -296.0000 0.0000 0.0000 1.0000 8.125000 18.250000
0 440.0000 1168.0000 -296.0000 0.0000 0.0000 1.0000 6.875000 18.250000
xwater0
0 440.0000 1152.0000 -296.0000 -0.0000 0.0000 1.0000 6.875000 18.000000
0 568.0000 1120.0000 -296.0000 -0.0000 0.0000 1.0000 8.875000 17.500000
0 520.0000 1168.0000 -296.0000 -0.0000 0.0000 1.0000 8.125000 18.250000
xwater0
0 440.0000 1152.0000 -296.0000 0.0000 0.0000 1.0000 6.875000 18.000000
0 480.0000 1120.0000 -296.0000 0.0000 0.0000 1.0000 7.500000 17.500000
0 568.0000 1120.0000 -296.0000 0.0000 0.0000 1.0000 8.875000 17.500000
xwater0
0 440.0000 1152.0000 -296.0000 0.0000 0.0000 1.0000 6.875000 18.000000
0 440.0000 1120.0000 -296.0000 0.0000 0.0000 1.0000 6.875000 17.500000
0 480.0000 1120.0000 -296.0000 0.0000 0.0000 1.0000 7.500000 17.500000
xwater0
0 480.0000 1120.0000 -296.0000 0.0000 0.0000 -1.0000 7.500000 17.500000
0 520.0000 1168.0000 -296.0000 0.0000 0.0000 -1.0000 8.125000 18.250000
0 568.0000 1120.0000 -296.0000 0.0000 0.0000 -1.0000 8.875000 17.500000
xwater0
0 480.0000 1120.0000 -296.0000 0.0000 0.0000 -1.0000 7.500000 17.500000
0 440.0000 1168.0000 -296.0000 0.0000 0.0000 -1.0000 6.875000 18.250000
0 520.0000 1168.0000 -296.0000 0.0000 0.0000 -1.0000 8.125000 18.250000
xwater0
0 480.0000 1120.0000 -296.0000 0.0000 0.0000 -1.0000 7.500000 17.500000
0 440.0000 1152.0000 -296.0000 0.0000 0.0000 -1.0000 6.875000 18.000000
0 440.0000 1168.0000 -296.0000 0.0000 0.0000 -1.0000 6.875000 18.250000
xwater0
0 480.0000 1120.0000 -296.0000 0.0000 0.0000 -1.0000 7.500000 17.500000
0 440.0000 1120.0000 -296.0000 0.0000 0.0000 -1.0000 6.875000 17.500000
0 440.0000 1152.0000 -296.0000 0.0000 0.0000 -1.0000 6.875000 18.000000
xwater0
0 960.0000 496.0000 -296.0000 0.0000 0.0000 -1.0000 15.000000 7.750000
0 980.0000 528.0000 -296.0000 0.0000 0.0000 -1.0000 15.312500 8.250000
0 973.7143 502.8571 -296.0000 0.0000 0.0000 -1.0000 15.214286 7.857143
xwater0
0 960.0000 496.0000 -296.0000 0.0000 0.0000 -1.0000 15.000000 7.750000
0 756.0000 528.0000 -296.0000 0.0000 0.0000 -1.0000 11.812500 8.250000
0 980.0000 528.0000 -296.0000 0.0000 0.0000 -1.0000 15.312500 8.250000
xwater0
0 960.0000 496.0000 -296.0000 0.0000 0.0000 -1.0000 15.000000 7.750000
0 756.0000 496.0000 -296.0000 0.0000 0.0000 -1.0000 11.812500 7.750000
0 756.0000 528.0000 -296.0000 0.0000 0.0000 -1.0000 11.812500 8.250000
xwater0
0 973.7143 502.8571 -296.0000 0.0000 0.0000 1.0000 15.214286 7.857143
0 756.0000 496.0000 -296.0000 0.0000 0.0000 1.0000 11.812500 7.750000
0 960.0000 496.0000 -296.0000 0.0000 0.0000 1.0000 15.000000 7.750000
xwater0
0 973.7143 502.8571 -296.0000 0.0000 0.0000 1.0000 15.214286 7.857143
0 756.0000 528.0000 -296.0000 0.0000 0.0000 1.0000 11.812500 8.250000
0 756.0000 496.0000 -296.0000 0.0000 0.0000 1.0000 11.812500 7.750000
xwater0
0 973.7143 502.8571 -296.0000 0.0000 -0.0000 1.0000 15.214286 7.857143
0 980.0000 528.0000 -296.0000 0.0000 -0.0000 1.0000 15.312500 8.250000
0 756.0000 528.0000 -296.0000 0.0000 -0.0000 1.0000 11.812500 8.250000
xwater0
0 756.0000 496.0000 -296.0000 -0.0000 0.0000 1.0000 11.812500 7.750000
0 928.0000 480.0000 -296.0000 -0.0000 0.0000 1.0000 14.500000 7.500000
0 960.0000 496.0000 -296.0000 -0.0000 0.0000 1.0000 15.000000 7.750000
xwater0
0 756.0000 496.0000 -296.0000 0.0000 0.0000 1.0000 11.812500 7.750000
0 752.0000 480.0000 -296.0000 0.0000 0.0000 1.0000 11.750000 7.500000
0 928.0000 480.0000 -296.0000 0.0000 0.0000 1.0000 14.500000 7.500000
xwater0
0 756.0000 496.0000 -296.0000 0.0000 0.0000 1.0000 11.812500 7.750000
0 752.0000 496.0000 -296.0000 0.0000 0.0000 1.0000 11.750000 7.750000
0 752.0000 480.0000 -296.0000 0.0000 0.0000 1.0000 11.750000 7.500000
xwater0
0 928.0000 480.0000 -296.0000 0.0000 0.0000 -1.0000 14.500000 7.500000
0 756.0000 496.0000 -296.0000 0.0000 0.0000 -1.0000 11.812500 7.750000
0 960.0000 496.0000 -296.0000 0.0000 0.0000 -1.0000 15.000000 7.750000
xwater0
0 928.0000 480.0000 -296.0000 0.0000 0.0000 -1.0000 14.500000 7.500000
0 752.0000 496.0000 -296.0000 0.0000 0.0000 -1.0000 11.750000 7.750000
0 756.0000 496.0000 -296.0000 0.0000 0.0000 -1.0000 11.812500 7.750000
xwater0
0 928.0000 480.0000 -296.0000 0.0000 0.0000 -1.0000 14.500000 7.500000
0 752.0000 480.0000 -296.0000 0.0000 0.0000 -1.0000 11.750000 7.500000
0 752.0000 496.0000 -296.0000 0.0000 0.0000 -1.0000 11.750000 7.750000
xwater0
0 980.0000 528.0000 -296.0000 0.0000 0.0000 0.0000 15.312500 8.250000
0 752.0000 528.0000 -296.0000 0.0000 0.0000 0.0000 11.750000 8.250000
0 756.0000 528.0000 -296.0000 0.0000 0.0000 0.0000 11.812500 8.250000
xwater0
0 980.0000 528.0000 -296.0000 0.0000 0.0000 1.0000 15.312500 8.250000
0 752.0000 544.0000 -296.0000 0.0000 0.0000 1.0000 11.750000 8.500000
0 752.0000 528.0000 -296.0000 0.0000 0.0000 1.0000 11.750000 8.250000
xwater0
0 980.0000 528.0000 -296.0000 0.0000 0.0000 1.0000 15.312500 8.250000
0 864.0000 544.0000 -296.0000 0.0000 0.0000 1.0000 13.500000 8.500000
0 752.0000 544.0000 -296.0000 0.0000 0.0000 1.0000 11.750000 8.500000
xwater0
0 980.0000 528.0000 -296.0000 0.0000 -0.0000 1.0000 15.312500 8.250000
0 984.0000 544.0000 -296.0000 0.0000 -0.0000 1.0000 15.375000 8.500000
0 864.0000 544.0000 -296.0000 0.0000 -0.0000 1.0000 13.500000 8.500000
xwater0
0 984.0000 544.0000 -296.0000 0.0000 0.0000 0.0000 15.375000 8.500000
0 752.0000 544.0000 -296.0000 0.0000 0.0000 0.0000 11.750000 8.500000
0 864.0000 544.0000 -296.0000 0.0000 0.0000 0.0000 13.500000 8.500000
xwater0
0 984.0000 544.0000 -296.0000 -0.0000 0.0000 -1.0000 15.375000 8.500000
0 752.0000 528.0000 -296.0000 -0.0000 0.0000 -1.0000 11.750000 8.250000
0 752.0000 544.0000 -296.0000 -0.0000 0.0000 -1.0000 11.750000 8.500000
xwater0
0 984.0000 544.0000 -296.0000 0.0000 0.0000 -1.0000 15.375000 8.500000
0 756.0000 528.0000 -296.0000 0.0000 0.0000 -1.0000 11.812500 8.250000
0 752.0000 528.0000 -296.0000 0.0000 0.0000 -1.0000 11.750000 8.250000
xwater0
0 984.0000 544.0000 -296.0000 0.0000 0.0000 -1.0000 15.375000 8.500000
0 980.0000 528.0000 -296.0000 0.0000 0.0000 -1.0000 15.312500 8.250000
0 756.0000 528.0000 -296.0000 0.0000 0.0000 -1.0000 11.812500 8.250000
xwater0
0 920.0000 616.0000 -296.0000 0.0000 0.0000 -1.0000 14.375000 9.625000
0 936.0000 616.0000 -296.0000 0.0000 0.0000 -1.0000 14.625000 9.625000
0 928.0000 608.0000 -296.0000 0.0000 0.0000 -1.0000 14.500000 9.500000
xwater0
0 928.0000 608.0000 -296.0000 0.0000 -0.0000 1.0000 14.500000 9.500000
0 936.0000 616.0000 -296.0000 0.0000 -0.0000 1.0000 14.625000 9.625000
0 920.0000 616.0000 -296.0000 0.0000 -0.0000 1.0000 14.375000 9.625000
xwater0
0 952.0000 616.0000 -296.0000 0.0000 0.0000 -1.0000 14.875000 9.625000
0 1002.0000 616.0000 -296.0000 0.0000 0.0000 -1.0000 15.656250 9.625000
0 992.0000 576.0000 -296.0000 0.0000 0.0000 -1.0000 15.500000 9.000000
xwater0
0 992.0000 576.0000 -296.0000 0.0000 -0.0000 1.0000 15.500000 9.000000
0 1002.0000 616.0000 -296.0000 0.0000 -0.0000 1.0000 15.656250 9.625000
0 952.0000 616.0000 -296.0000 0.0000 -0.0000 1.0000 14.875000 9.625000
xwater0
0 896.0000 640.0000 -296.0000 0.0000 0.0000 0.0000 14.000000 10.000000
0 928.0000 608.0000 -296.0000 0.0000 0.0000 0.0000 14.500000 9.500000
0 920.0000 616.0000 -296.0000 0.0000 0.0000 0.0000 14.375000 9.625000
xwater0
0 896.0000 640.0000 -296.0000 0.0000 0.0000 1.0000 14.000000 10.000000
0 896.0000 576.0000 -296.0000 0.0000 0.0000 1.0000 14.000000 9.000000
0 928.0000 608.0000 -296.0000 0.0000 0.0000 1.0000 14.500000 9.500000
xwater0
0 920.0000 616.0000 -296.0000 -0.0000 0.0000 -1.0000 14.375000 9.625000
0 896.0000 576.0000 -296.0000 -0.0000 0.0000 -1.0000 14.000000 9.000000
0 896.0000 640.0000 -296.0000 -0.0000 0.0000 -1.0000 14.000000 10.000000
xwater0
0 920.0000 616.0000 -296.0000 0.0000 -0.0000 -1.0000 14.375000 9.625000
0 928.0000 608.0000 -296.0000 0.0000 -0.0000 -1.0000 14.500000 9.500000
0 896.0000 576.0000 -296.0000 0.0000 -0.0000 -1.0000 14.000000 9.000000
xwater0
0 896.0000 576.0000 -296.0000 0.0000 0.0000 0.0000 14.000000 9.000000
0 936.0000 616.0000 -296.0000 0.0000 0.0000 0.0000 14.625000 9.625000
0 928.0000 608.0000 -296.0000 0.0000 0.0000 0.0000 14.500000 9.500000
xwater0
0 896.0000 576.0000 -296.0000 0.0000 0.0000 1.0000 14.000000 9.000000
0 952.0000 616.0000 -296.0000 0.0000 0.0000 1.0000 14.875000 9.625000
0 936.0000 616.0000 -296.0000 0.0000 0.0000 1.0000 14.625000 9.625000
xwater0
0 896.0000 576.0000 -296.0000 0.0000 0.0000 1.0000 14.000000 9.000000
0 992.0000 576.0000 -296.0000 0.0000 0.0000 1.0000 15.500000 9.000000
0 952.0000 616.0000 -296.0000 0.0000 0.0000 1.0000 14.875000 9.625000
xwater0
0 896.0000 576.0000 -296.0000 -0.0000 0.0000 1.0000 14.000000 9.000000
0 984.0000 544.0000 -296.0000 -0.0000 0.0000 1.0000 15.375000 8.500000
0 992.0000 576.0000 -296.0000 -0.0000 0.0000 1.0000 15.500000 9.000000
xwater0
0 896.0000 576.0000 -296.0000 0.0000 0.0000 1.0000 14.000000 9.000000
0 864.0000 544.0000 -296.0000 0.0000 0.0000 1.0000 13.500000 8.500000
0 984.0000 544.0000 -296.0000 0.0000 0.0000 1.0000 15.375000 8.500000
xwater0
0 992.0000 576.0000 -296.0000 0.0000 0.0000 -1.0000 15.500000 9.000000
0 936.0000 616.0000 -296.0000 0.0000 0.0000 -1.0000 14.625000 9.625000
0 952.0000 616.0000 -296.0000 0.0000 0.0000 -1.0000 14.875000 9.625000
xwater0
0 992.0000 576.0000 -296.0000 0.0000 0.0000 -1.0000 15.500000 9.000000
0 928.0000 608.0000 -296.0000 0.0000 0.0000 -1.0000 14.500000 9.500000
0 936.0000 616.0000 -296.0000 0.0000 0.0000 -1.0000 14.625000 9.625000
xwater0
0 992.0000 576.0000 -296.0000 0.0000 0.0000 -1.0000 15.500000 9.000000
0 896.0000 576.0000 -296.0000 0.0000 0.0000 -1.0000 14.000000 9.000000
0 928.0000 608.0000 -296.0000 0.0000 0.0000 -1.0000 14.500000 9.500000
xwater0
0 992.0000 576.0000 -296.0000 -0.0000 0.0000 -1.0000 15.500000 9.000000
0 864.0000 544.0000 -296.0000 -0.0000 0.0000 -1.0000 13.500000 8.500000
0 896.0000 576.0000 -296.0000 -0.0000 0.0000 -1.0000 14.000000 9.000000
xwater0
0 992.0000 576.0000 -296.0000 0.0000 0.0000 -1.0000 15.500000 9.000000
0 984.0000 544.0000 -296.0000 0.0000 0.0000 -1.0000 15.375000 8.500000
0 864.0000 544.0000 -296.0000 0.0000 0.0000 -1.0000 13.500000 8.500000
xwater0
0 672.0000 896.0000 -296.0000 0.0000 0.0000 1.0000 10.500000 14.000000
0 688.0000 1000.0000 -296.0000 0.0000 0.0000 1.0000 10.750000 15.625000
0 672.0000 1000.0000 -296.0000 0.0000 0.0000 1.0000 10.500000 15.625000
xwater0
0 672.0000 896.0000 -296.0000 0.0000 0.0000 1.0000 10.500000 14.000000
0 696.0000 1000.0000 -296.0000 0.0000 0.0000 1.0000 10.875000 15.625000
0 688.0000 1000.0000 -296.0000 0.0000 0.0000 1.0000 10.750000 15.625000
xwater0
0 672.0000 896.0000 -296.0000 0.0000 0.0000 1.0000 10.500000 14.000000
0 704.0000 1000.0000 -296.0000 0.0000 0.0000 1.0000 11.000000 15.625000
0 696.0000 1000.0000 -296.0000 0.0000 0.0000 1.0000 10.875000 15.625000
xwater0
0 672.0000 896.0000 -296.0000 0.0000 0.0000 1.0000 10.500000 14.000000
0 704.0000 944.0000 -296.0000 0.0000 0.0000 1.0000 11.000000 14.750000
0 704.0000 1000.0000 -296.0000 0.0000 0.0000 1.0000 11.000000 15.625000
xwater0
0 672.0000 896.0000 -296.0000 -0.0000 0.0000 1.0000 10.500000 14.000000
0 704.0000 864.0000 -296.0000 -0.0000 0.0000 1.0000 11.000000 13.500000
0 704.0000 944.0000 -296.0000 -0.0000 0.0000 1.0000 11.000000 14.750000
xwater0
0 704.0000 944.0000 -296.0000 0.0000 0.0000 -1.0000 11.000000 14.750000
0 696.0000 1000.0000 -296.0000 0.0000 0.0000 -1.0000 10.875000 15.625000
0 704.0000 1000.0000 -296.0000 0.0000 0.0000 -1.0000 11.000000 15.625000
xwater0
0 704.0000 944.0000 -296.0000 0.0000 0.0000 -1.0000 11.000000 14.750000
0 688.0000 1000.0000 -296.0000 0.0000 0.0000 -1.0000 10.750000 15.625000
0 696.0000 1000.0000 -296.0000 0.0000 0.0000 -1.0000 10.875000 15.625000
xwater0
0 704.0000 944.0000 -296.0000 0.0000 0.0000 -1.0000 11.000000 14.750000
0 672.0000 1000.0000 -296.0000 0.0000 0.0000 -1.0000 10.500000 15.625000
0 688.0000 1000.0000 -296.0000 0.0000 0.0000 -1.0000 10.750000 15.625000
xwater0
0 704.0000 944.0000 -296.0000 -0.0000 0.0000 -1.0000 11.000000 14.750000
0 672.0000 896.0000 -296.0000 -0.0000 0.0000 -1.0000 10.500000 14.000000
0 672.0000 1000.0000 -296.0000 -0.0000 0.0000 -1.0000 10.500000 15.625000
xwater0
0 704.0000 944.0000 -296.0000 0.0000 -0.0000 -1.0000 11.000000 14.750000
0 704.0000 864.0000 -296.0000 0.0000 -0.0000 -1.0000 11.000000 13.500000
0 672.0000 896.0000 -296.0000 0.0000 -0.0000 -1.0000 10.500000 14.000000
xwater0
0 756.0000 879.0000 -296.0000 0.0000 0.0000 -1.0000 11.812500 13.734375
0 768.0000 808.0000 -296.0000 0.0000 0.0000 -1.0000 12.000000 12.625000
0 756.0000 812.5000 -296.0000 0.0000 0.0000 -1.0000 11.812500 12.695312
xwater0
0 756.0000 879.0000 -296.0000 0.0000 0.0000 -1.0000 11.812500 13.734375
0 832.0000 784.0000 -296.0000 0.0000 0.0000 -1.0000 13.000000 12.250000
0 768.0000 808.0000 -296.0000 0.0000 0.0000 -1.0000 12.000000 12.625000
xwater0
0 768.0000 808.0000 -296.0000 0.0000 0.0000 1.0000 12.000000 12.625000
0 756.0000 879.0000 -296.0000 0.0000 0.0000 1.0000 11.812500 13.734375
0 756.0000 812.5000 -296.0000 0.0000 0.0000 1.0000 11.812500 12.695312
xwater0
0 768.0000 808.0000 -296.0000 -0.0000 -0.0000 1.0000 12.000000 12.625000
0 832.0000 784.0000 -296.0000 -0.0000 -0.0000 1.0000 13.000000 12.250000
0 756.0000 879.0000 -296.0000 -0.0000 -0.0000 1.0000 11.812500 13.734375
xwater0
0 844.8000 768.0000 -296.0000 0.0000 0.0000 -1.0000 13.200000 12.000000
0 756.0000 879.0000 -296.0000 0.0000 0.0000 -1.0000 11.812500 13.734375
0 832.0000 784.0000 -296.0000 0.0000 0.0000 -1.0000 13.000000 12.250000
xwater0
0 844.8000 768.0000 -296.0000 0.0000 0.0000 -1.0000 13.200000 12.000000
0 704.0000 944.0000 -296.0000 0.0000 0.0000 -1.0000 11.000000 14.750000
0 756.0000 879.0000 -296.0000 0.0000 0.0000 -1.0000 11.812500 13.734375
xwater0
0 844.8000 768.0000 -296.0000 0.0000 0.0000 1.0000 13.200000 12.000000
0 704.0000 1000.0000 -296.0000 0.0000 0.0000 1.0000 11.000000 15.625000
0 704.0000 944.0000 -296.0000 0.0000 0.0000 1.0000 11.000000 14.750000
xwater0
0 844.8000 768.0000 -296.0000 0.0000 0.0000 1.0000 13.200000 12.000000
0 728.0000 1000.0000 -296.0000 0.0000 0.0000 1.0000 11.375000 15.625000
0 704.0000 1000.0000 -296.0000 0.0000 0.0000 1.0000 11.000000 15.625000
xwater0
0 844.8000 768.0000 -296.0000 0.0000 0.0000 1.0000 13.200000 12.000000
0 760.0000 1000.0000 -296.0000 0.0000 0.0000 1.0000 11.875000 15.625000
0 728.0000 1000.0000 -296.0000 0.0000 0.0000 1.0000 11.375000 15.625000
xwater0
0 844.8000 768.0000 -296.0000 0.0000 0.0000 1.0000 13.200000 12.000000
0 768.0000 1000.0000 -296.0000 0.0000 0.0000 1.0000 12.000000 15.625000
0 760.0000 1000.0000 -296.0000 0.0000 0.0000 1.0000 11.875000 15.625000
xwater0
0 844.8000 768.0000 -296.0000 0.0000 0.0000 1.0000 13.200000 12.000000
0 824.0000 1000.0000 -296.0000 0.0000 0.0000 1.0000 12.875000 15.625000
0 768.0000 1000.0000 -296.0000 0.0000 0.0000 1.0000 12.000000 15.625000
xwater0
0 844.8000 768.0000 -296.0000 0.0000 -0.0000 1.0000 13.200000 12.000000
0 896.0000 928.0000 -296.0000 0.0000 -0.0000 1.0000 14.000000 14.500000
0 824.0000 1000.0000 -296.0000 0.0000 -0.0000 1.0000 12.875000 15.625000
xwater0
0 844.8000 768.0000 -296.0000 -0.0000 0.0000 1.0000 13.200000 12.000000
0 896.0000 704.0000 -296.0000 -0.0000 0.0000 1.0000 14.000000 11.000000
0 896.0000 928.0000 -296.0000 -0.0000 0.0000 1.0000 14.000000 14.500000
xwater0
0 896.0000 928.0000 -296.0000 0.0000 0.0000 -1.0000 14.000000 14.500000
0 768.0000 1000.0000 -296.0000 0.0000 0.0000 -1.0000 12.000000 15.625000
0 824.0000 1000.0000 -296.0000 0.0000 0.0000 -1.0000 12.875000 15.625000
xwater0
0 896.0000 928.0000 -296.0000 0.0000 0.0000 -1.0000 14.000000 14.500000
0 760.0000 1000.0000 -296.0000 0.0000 0.0000 -1.0000 11.875000 15.625000
0 768.0000 1000.0000 -296.0000 0.0000 0.0000 -1.0000 12.000000 15.625000
xwater0
0 896.0000 928.0000 -296.0000 0.0000 0.0000 -1.0000 14.000000 14.500000
0 728.0000 1000.0000 -296.0000 0.0000 0.0000 -1.0000 11.375000 15.625000
0 760.0000 1000.0000 -296.0000 0.0000 0.0000 -1.0000 11.875000 15.625000
xwater0
0 896.0000 928.0000 -296.0000 0.0000 0.0000 -1.0000 14.000000 14.500000
0 704.0000 1000.0000 -296.0000 0.0000 0.0000 -1.0000 11.000000 15.625000
0 728.0000 1000.0000 -296.0000 0.0000 0.0000 -1.0000 11.375000 15.625000
xwater0
0 896.0000 928.0000 -296.0000 0.0000 0.0000 -1.0000 14.000000 14.500000
0 704.0000 944.0000 -296.0000 0.0000 0.0000 -1.0000 11.000000 14.750000
0 704.0000 1000.0000 -296.0000 0.0000 0.0000 -1.0000 11.000000 15.625000
xwater0
0 896.0000 928.0000 -296.0000 -0.0000 0.0000 -1.0000 14.000000 14.500000
0 756.0000 879.0000 -296.0000 -0.0000 0.0000 -1.0000 11.812500 13.734375
0 704.0000 944.0000 -296.0000 -0.0000 0.0000 -1.0000 11.000000 14.750000
xwater0
0 896.0000 928.0000 -296.0000 0.0000 0.0000 -1.0000 14.000000 14.500000
0 832.0000 784.0000 -296.0000 0.0000 0.0000 -1.0000 13.000000 12.250000
0 756.0000 879.0000 -296.0000 0.0000 0.0000 -1.0000 11.812500 13.734375
xwater0
0 896.0000 928.0000 -296.0000 0.0000 0.0000 -1.0000 14.000000 14.500000
0 844.8000 768.0000 -296.0000 0.0000 0.0000 -1.0000 13.200000 12.000000
0 832.0000 784.0000 -296.0000 0.0000 0.0000 -1.0000 13.000000 12.250000
xwater0
0 896.0000 928.0000 -296.0000 0.0000 -0.0000 -1.0000 14.000000 14.500000
0 896.0000 704.0000 -296.0000 0.0000 -0.0000 -1.0000 14.000000 11.000000
0 844.8000 768.0000 -296.0000 0.0000 -0.0000 -1.0000 13.200000 12.000000
xwater0
0 756.0000 879.0000 -296.0000 0.0000 0.0000 0.0000 11.812500 13.734375
0 756.0000 808.0000 -296.0000 0.0000 0.0000 0.0000 11.812500 12.625000
0 756.0000 812.5000 -296.0000 0.0000 0.0000 0.0000 11.812500 12.695312
xwater0
0 756.0000 879.0000 -296.0000 0.0000 0.0000 1.0000 11.812500 13.734375
0 728.0000 808.0000 -296.0000 0.0000 0.0000 1.0000 11.375000 12.625000
0 756.0000 808.0000 -296.0000 0.0000 0.0000 1.0000 11.812500 12.625000
xwater0
0 756.0000 879.0000 -296.0000 0.0000 0.0000 1.0000 11.812500 13.734375
0 704.0000 832.0000 -296.0000 0.0000 0.0000 1.0000 11.000000 13.000000
0 728.0000 808.0000 -296.0000 0.0000 0.0000 1.0000 11.375000 12.625000
xwater0
0 756.0000 879.0000 -296.0000 0.0000 0.0000 1.0000 11.812500 13.734375
0 704.0000 864.0000 -296.0000 0.0000 0.0000 1.0000 11.000000 13.500000
0 704.0000 832.0000 -296.0000 0.0000 0.0000 1.0000 11.000000 13.000000
xwater0
0 756.0000 879.0000 -296.0000 0.0000 0.0000 1.0000 11.812500 13.734375
0 704.0000 944.0000 -296.0000 0.0000 0.0000 1.0000 11.000000 14.750000
0 704.0000 864.0000 -296.0000 0.0000 0.0000 1.0000 11.000000 13.500000
xwater0
0 704.0000 864.0000 -296.0000 0.0000 0.0000 -1.0000 11.000000 13.500000
0 728.0000 808.0000 -296.0000 0.0000 0.0000 -1.0000 11.375000 12.625000
0 704.0000 832.0000 -296.0000 0.0000 0.0000 -1.0000 11.000000 13.000000
xwater0
0 704.0000 864.0000 -296.0000 0.0000 0.0000 -1.0000 11.000000 13.500000
0 756.0000 808.0000 -296.0000 0.0000 0.0000 -1.0000 11.812500 12.625000
0 728.0000 808.0000 -296.0000 0.0000 0.0000 -1.0000 11.375000 12.625000
xwater0
0 704.0000 864.0000 -296.0000 0.0000 0.0000 -1.0000 11.000000 13.500000
0 756.0000 812.5000 -296.0000 0.0000 0.0000 -1.0000 11.812500 12.695312
0 756.0000 808.0000 -296.0000 0.0000 0.0000 -1.0000 11.812500 12.625000
xwater0
0 704.0000 864.0000 -296.0000 0.0000 0.0000 -1.0000 11.000000 13.500000
0 756.0000 879.0000 -296.0000 0.0000 0.0000 -1.0000 11.812500 13.734375
0 756.0000 812.5000 -296.0000 0.0000 0.0000 -1.0000 11.812500 12.695312
xwater0
0 704.0000 864.0000 -296.0000 0.0000 0.0000 -1.0000 11.000000 13.500000
0 704.0000 944.0000 -296.0000 0.0000 0.0000 -1.0000 11.000000 14.750000
0 756.0000 879.0000 -296.0000 0.0000 0.0000 -1.0000 11.812500 13.734375
xwater0
0 756.0000 812.5000 -296.0000 0.0000 0.0000 1.0000 11.812500 12.695312
0 756.0000 808.0000 -296.0000 0.0000 0.0000 1.0000 11.812500 12.625000
0 768.0000 808.0000 -296.0000 0.0000 0.0000 1.0000 12.000000 12.625000
xwater0
0 768.0000 808.0000 -296.0000 0.0000 0.0000 -1.0000 12.000000 12.625000
0 756.0000 808.0000 -296.0000 0.0000 0.0000 -1.0000 11.812500 12.625000
0 756.0000 812.5000 -296.0000 0.0000 0.0000 -1.0000 11.812500 12.695312
xwater0
0 896.0000 704.0000 -296.0000 0.0000 0.0000 1.0000 14.000000 11.000000
0 1008.0000 928.0000 -296.0000 0.0000 0.0000 1.0000 15.750000 14.500000
0 896.0000 928.0000 -296.0000 0.0000 0.0000 1.0000 14.000000 14.500000
xwater0
0 896.0000 704.0000 -296.0000 0.0000 0.0000 1.0000 14.000000 11.000000
0 1008.0000 864.0000 -296.0000 0.0000 0.0000 1.0000 15.750000 13.500000
0 1008.0000 928.0000 -296.0000 0.0000 0.0000 1.0000 15.750000 14.500000
xwater0
0 896.0000 704.0000 -296.0000 0.0000 0.0000 1.0000 14.000000 11.000000
0 1008.0000 832.0000 -296.0000 0.0000 0.0000 1.0000 15.750000 13.000000
0 1008.0000 864.0000 -296.0000 0.0000 0.0000 1.0000 15.750000 13.500000
xwater0
0 896.0000 704.0000 -296.0000 -0.0000 0.0000 1.0000 14.000000 11.000000
0 1008.0000 640.0000 -296.0000 -0.0000 0.0000 1.0000 15.750000 10.000000
0 1008.0000 832.0000 -296.0000 -0.0000 0.0000 1.0000 15.750000 13.000000
xwater0
0 896.0000 704.0000 -296.0000 0.0000 0.0000 1.0000 14.000000 11.000000
0 1002.0000 616.0000 -296.0000 0.0000 0.0000 1.0000 15.656250 9.625000
0 1008.0000 640.0000 -296.0000 0.0000 0.0000 1.0000 15.750000 10.000000
xwater0
0 896.0000 704.0000 -296.0000 0.0000 0.0000 1.0000 14.000000 11.000000
0 952.0000 616.0000 -296.0000 0.0000 0.0000 1.0000 14.875000 9.625000
0 1002.0000 616.0000 -296.0000 0.0000 0.0000 1.0000 15.656250 9.625000
xwater0
0 896.0000 704.0000 -296.0000 0.0000 0.0000 1.0000 14.000000 11.000000
0 936.0000 616.0000 -296.0000 0.0000 0.0000 1.0000 14.625000 9.625000
0 952.0000 616.0000 -296.0000 0.0000 0.0000 1.0000 14.875000 9.625000
xwater0
0 896.0000 704.0000 -296.0000 0.0000 0.0000 1.0000 14.000000 11.000000
0 920.0000 616.0000 -296.0000 0.0000 0.0000 1.0000 14.375000 9.625000
0 936.0000 616.0000 -296.0000 0.0000 0.0000 1.0000 14.625000 9.625000
xwater0
0 896.0000 704.0000 -296.0000 0.0000 0.0000 1.0000 14.000000 11.000000
0 896.0000 640.0000 -296.0000 0.0000 0.0000 1.0000 14.000000 10.000000
0 920.0000 616.0000 -296.0000 0.0000 0.0000 1.0000 14.375000 9.625000
xwater0
0 1008.0000 832.0000 -296.0000 0.0000 0.0000 0.0000 15.750000 13.000000
0 1008.0000 928.0000 -296.0000 0.0000 0.0000 0.0000 15.750000 14.500000
0 1008.0000 864.0000 -296.0000 0.0000 0.0000 0.0000 15.750000 13.500000
xwater0
0 1008.0000 832.0000 -296.0000 0.0000 0.0000 -1.0000 15.750000 13.000000
0 896.0000 928.0000 -296.0000 0.0000 0.0000 -1.0000 14.000000 14.500000
0 1008.0000 928.0000 -296.0000 0.0000 0.0000 -1.0000 15.750000 14.500000
xwater0
0 1008.0000 832.0000 -296.0000 -0.0000 0.0000 -1.0000 15.750000 13.000000
0 896.0000 704.0000 -296.0000 -0.0000 0.0000 -1.0000 14.000000 11.000000
0 896.0000 928.0000 -296.0000 -0.0000 0.0000 -1.0000 14.000000 14.500000
xwater0
0 1008.0000 832.0000 -296.0000 0.0000 0.0000 -1.0000 15.750000 13.000000
0 896.0000 640.0000 -296.0000 0.0000 0.0000 -1.0000 14.000000 10.000000
0 896.0000 704.0000 -296.0000 0.0000 0.0000 -1.0000 14.000000 11.000000
xwater0
0 1008.0000 832.0000 -296.0000 0.0000 0.0000 -1.0000 15.750000 13.000000
0 920.0000 616.0000 -296.0000 0.0000 0.0000 -1.0000 14.375000 9.625000
0 896.0000 640.0000 -296.0000 0.0000 0.0000 -1.0000 14.000000 10.000000
xwater0
0 1008.0000 832.0000 -296.0000 0.0000 0.0000 -1.0000 15.750000 13.000000
0 936.0000 616.0000 -296.0000 0.0000 0.0000 -1.0000 14.625000 9.625000
0 920.0000 616.0000 -296.0000 0.0000 0.0000 -1.0000 14.375000 9.625000
xwater0
0 1008.0000 832.0000 -296.0000 0.0000 0.0000 -1.0000 15.750000 13.000000
0 952.0000 616.0000 -296.0000 0.0000 0.0000 -1.0000 14.875000 9.625000
0 936.0000 616.0000 -296.0000 0.0000 0.0000 -1.0000 14.625000 9.625000
xwater0
0 1008.0000 832.0000 -296.0000 0.0000 0.0000 -1.0000 15.750000 13.000000
0 1002.0000 616.0000 -296.0000 0.0000 0.0000 -1.0000 15.656250 9.625000
0 952.0000 616.0000 -296.0000 0.0000 0.0000 -1.0000 14.875000 9.625000
xwater0
0 1008.0000 832.0000 -296.0000 0.0000 -0.0000 -1.0000 15.750000 13.000000
0 1008.0000 640.0000 -296.0000 0.0000 -0.0000 -1.0000 15.750000 10.000000
0 1002.0000 616.0000 -296.0000 0.0000 -0.0000 -1.0000 15.656250 9.625000
xwater0
0 672.0000 1000.0000 -296.0000 0.0000 0.0000 -1.0000 10.500000 15.625000
0 664.0000 1024.0000 -296.0000 0.0000 0.0000 -1.0000 10.375000 16.000000
0 672.0000 1016.0000 -296.0000 0.0000 0.0000 -1.0000 10.500000 15.875000
xwater0
0 672.0000 1000.0000 -296.0000 0.0000 0.0000 -1.0000 10.500000 15.625000
0 640.0000 1024.0000 -296.0000 0.0000 0.0000 -1.0000 10.000000 16.000000
0 664.0000 1024.0000 -296.0000 0.0000 0.0000 -1.0000 10.375000 16.000000
xwater0
0 672.0000 1000.0000 -296.0000 -0.0000 0.0000 -1.0000 10.500000 15.625000
0 640.0000 896.0000 -296.0000 -0.0000 0.0000 -1.0000 10.000000 14.000000
0 640.0000 1024.0000 -296.0000 -0.0000 0.0000 -1.0000 10.000000 16.000000
xwater0
0 672.0000 1000.0000 -296.0000 0.0000 0.0000 -1.0000 10.500000 15.625000
0 664.0000 896.0000 -296.0000 0.0000 0.0000 -1.0000 10.375000 14.000000
0 640.0000 896.0000 -296.0000 0.0000 0.0000 -1.0000 10.000000 14.000000
xwater0
0 672.0000 1000.0000 -296.0000 0.0000 -0.0000 -1.0000 10.500000 15.625000
0 672.0000 896.0000 -296.0000 0.0000 -0.0000 -1.0000 10.500000 14.000000
0 664.0000 896.0000 -296.0000 0.0000 -0.0000 -1.0000 10.375000 14.000000
xwater0
0 640.0000 1024.0000 -296.0000 -0.0000 0.0000 1.0000 10.000000 16.000000
0 672.0000 1016.0000 -296.0000 -0.0000 0.0000 1.0000 10.500000 15.875000
0 664.0000 1024.0000 -296.0000 -0.0000 0.0000 1.0000 10.375000 16.000000
xwater0
0 640.0000 1024.0000 -296.0000 0.0000 0.0000 1.0000 10.000000 16.000000
0 672.0000 1000.0000 -296.0000 0.0000 0.0000 1.0000 10.500000 15.625000
0 672.0000 1016.0000 -296.0000 0.0000 0.0000 1.0000 10.500000 15.875000
xwater0
0 640.0000 1024.0000 -296.0000 0.0000 0.0000 1.0000 10.000000 16.000000
0 672.0000 896.0000 -296.0000 0.0000 0.0000 1.0000 10.500000 14.000000
0 672.0000 1000.0000 -296.0000 0.0000 0.0000 1.0000 10.500000 15.625000
xwater0
0 640.0000 1024.0000 -296.0000 0.0000 0.0000 1.0000 10.000000 16.000000
0 664.0000 896.0000 -296.0000 0.0000 0.0000 1.0000 10.375000 14.000000
0 672.0000 896.0000 -296.0000 0.0000 0.0000 1.0000 10.500000 14.000000
xwater0
0 640.0000 1024.0000 -296.0000 0.0000 0.0000 1.0000 10.000000 16.000000
0 640.0000 896.0000 -296.0000 0.0000 0.0000 1.0000 10.000000 14.000000
0 664.0000 896.0000 -296.0000 0.0000 0.0000 1.0000 10.375000 14.000000
xwater0
0 688.0000 1000.0000 -296.0000 0.0000 0.0000 -1.0000 10.750000 15.625000
0 672.0000 1000.0000 -296.0000 0.0000 0.0000 -1.0000 10.500000 15.625000
0 672.0000 1016.0000 -296.0000 0.0000 0.0000 -1.0000 10.500000 15.875000
xwater0
0 672.0000 1000.0000 -296.0000 0.0000 0.0000 1.0000 10.500000 15.625000
0 688.0000 1000.0000 -296.0000 0.0000 0.0000 1.0000 10.750000 15.625000
0 672.0000 1016.0000 -296.0000 0.0000 0.0000 1.0000 10.500000 15.875000
xwater0
0 784.0000 1024.0000 -296.0000 0.0000 0.0000 -1.0000 12.250000 16.000000
0 768.0000 1000.0000 -296.0000 0.0000 0.0000 -1.0000 12.000000 15.625000
0 777.6000 1014.4000 -296.0000 0.0000 0.0000 -1.0000 12.150000 15.850000
xwater0
0 784.0000 1024.0000 -296.0000 0.0000 -0.0000 -1.0000 12.250000 16.000000
0 824.0000 1000.0000 -296.0000 0.0000 -0.0000 -1.0000 12.875000 15.625000
0 768.0000 1000.0000 -296.0000 0.0000 -0.0000 -1.0000 12.000000 15.625000
xwater0
0 784.0000 1024.0000 -296.0000 0.0000 0.0000 -1.0000 12.250000 16.000000
0 800.0000 1024.0000 -296.0000 0.0000 0.0000 -1.0000 12.500000 16.000000
0 824.0000 1000.0000 -296.0000 0.0000 0.0000 -1.0000 12.875000 15.625000
xwater0
0 768.0000 1000.0000 -296.0000 0.0000 0.0000 1.0000 12.000000 15.625000
0 784.0000 1024.0000 -296.0000 0.0000 0.0000 1.0000 12.250000 16.000000
0 777.6000 1014.4000 -296.0000 0.0000 0.0000 1.0000 12.150000 15.850000
xwater0
0 768.0000 1000.0000 -296.0000 0.0000 0.0000 1.0000 12.000000 15.625000
0 800.0000 1024.0000 -296.0000 0.0000 0.0000 1.0000 12.500000 16.000000
0 784.0000 1024.0000 -296.0000 0.0000 0.0000 1.0000 12.250000 16.000000
xwater0
0 768.0000 1000.0000 -296.0000 0.0000 0.0000 1.0000 12.000000 15.625000
0 824.0000 1000.0000 -296.0000 0.0000 0.0000 1.0000 12.875000 15.625000
0 800.0000 1024.0000 -296.0000 0.0000 0.0000 1.0000 12.500000 16.000000
xwater0
0 800.0000 1024.0000 -296.0000 0.0000 -0.0000 1.0000 12.500000 16.000000
0 800.0000 1048.0000 -296.0000 0.0000 -0.0000 1.0000 12.500000 16.375000
0 784.0000 1024.0000 -296.0000 0.0000 -0.0000 1.0000 12.250000 16.000000
xwater0
0 784.0000 1024.0000 -296.0000 0.0000 0.0000 -1.0000 12.250000 16.000000
0 800.0000 1048.0000 -296.0000 0.0000 0.0000 -1.0000 12.500000 16.375000
0 800.0000 1024.0000 -296.0000 0.0000 0.0000 -1.0000 12.500000 16.000000
xwater0
0 640.0000 1088.0000 -296.0000 0.0000 0.0000 0.0000 10.000000 17.000000
0 640.0000 1248.0000 -296.0000 0.0000 0.0000 0.0000 10.000000 19.500000
0 640.0000 1120.0000 -296.0000 0.0000 0.0000 0.0000 10.000000 17.500000
xwater0
0 640.0000 1088.0000 -296.0000 0.0000 0.0000 1.0000 10.000000 17.000000
0 664.0000 1152.0000 -296.0000 0.0000 0.0000 1.0000 10.375000 18.000000
0 640.0000 1248.0000 -296.0000 0.0000 0.0000 1.0000 10.000000 19.500000
xwater0
0 640.0000 1088.0000 -296.0000 -0.0000 0.0000 1.0000 10.000000 17.000000
0 664.0000 1024.0000 -296.0000 -0.0000 0.0000 1.0000 10.375000 16.000000
0 664.0000 1152.0000 -296.0000 -0.0000 0.0000 1.0000 10.375000 18.000000
xwater0
0 640.0000 1088.0000 -296.0000 0.0000 0.0000 1.0000 10.000000 17.000000
0 640.0000 1024.0000 -296.0000 0.0000 0.0000 1.0000 10.000000 16.000000
0 664.0000 1024.0000 -296.0000 0.0000 0.0000 1.0000 10.375000 16.000000
xwater0
0 664.0000 1152.0000 -296.0000 -0.0000 0.0000 -1.0000 10.375000 18.000000
0 640.0000 1120.0000 -296.0000 -0.0000 0.0000 -1.0000 10.000000 17.500000
0 640.0000 1248.0000 -296.0000 -0.0000 0.0000 -1.0000 10.000000 19.500000
xwater0
0 664.0000 1152.0000 -296.0000 0.0000 0.0000 -1.0000 10.375000 18.000000
0 640.0000 1088.0000 -296.0000 0.0000 0.0000 -1.0000 10.000000 17.000000
0 640.0000 1120.0000 -296.0000 0.0000 0.0000 -1.0000 10.000000 17.500000
xwater0
0 664.0000 1152.0000 -296.0000 0.0000 0.0000 -1.0000 10.375000 18.000000
0 640.0000 1024.0000 -296.0000 0.0000 0.0000 -1.0000 10.000000 16.000000
0 640.0000 1088.0000 -296.0000 0.0000 0.0000 -1.0000 10.000000 17.000000
xwater0
0 664.0000 1152.0000 -296.0000 0.0000 -0.0000 -1.0000 10.375000 18.000000
0 664.0000 1024.0000 -296.0000 0.0000 -0.0000 -1.0000 10.375000 16.000000
0 640.0000 1024.0000 -296.0000 0.0000 -0.0000 -1.0000 10.000000 16.000000
end
