version 1
nodes
0 "All.005" -1
1 "ForearmIK.L" 0
2 "UpperarmIK.L" 0
3 "ForearmIK.R" 0
4 "UpperarmIK.R" 0
5 "Torso.000" 0
6 "Spine.000" 5
7 "Spine.001" 6
8 "Spine.002" 7
9 "Spine.003" 8
10 "Spine.004" 9
11 "Spine.005" 10
12 "Spine.006" 11
13 "Spine.007" 12
14 "TentclH.L.003" 13
15 "TentclH.L.002" 14
16 "TentclH.L.001" 15
17 "TentclH1.L.000" 16
18 "TentclH1.L.001" 17
19 "TentclH1.L.002" 18
20 "TentclH1.L.003" 19
21 "TentclH2.L.000" 16
22 "TentclH2.L.001" 21
23 "TentclH2.L.002" 22
24 "TentclH2.L.003" 23
25 "TentclH3.L.000" 16
26 "TentclH3.L.001" 25
27 "TentclH3.L.002" 26
28 "TentclH3.L.003" 27
29 "TentclH.R.003" 13
30 "TentclH.R.002" 29
31 "TentclH.R.001" 30
32 "TentclH1.R.000" 31
33 "TentclH1.R.001" 32
34 "TentclH1.R.002" 33
35 "TentclH1.R.003" 34
36 "TentclH2.R.000" 31
37 "TentclH2.R.001" 36
38 "TentclH2.R.002" 37
39 "TentclH2.R.003" 38
40 "TentclH3.R.000" 31
41 "TentclH3.R.001" 40
42 "TentclH3.R.002" 41
43 "TentclH3.R.003" 42
44 "Arm.L.001" 10
45 "Arm.L.002" 44
46 "Arm.L.005" 45
47 "Arm.L.006" 46
48 "Arm.L.007" 47
49 "Finger.L.004" 48
50 "Finger.L.005" 49
51 "Finger.L.001" 48
52 "Finger.L.000" 51
53 "Finger.L.002" 48
54 "Finger.L.003" 53
55 "Finger.L.006" 47
56 "Finger.L.007" 55
57 "Arm.R.001" 10
58 "Arm.R.002" 57
59 "Arm.R.005" 58
60 "Arm.R.006" 59
61 "Arm.R.007" 60
62 "Finger.R.004" 61
63 "Finger.R.005" 62
64 "Finger.R.001" 61
65 "Finger.R.000" 64
66 "Finger.R.002" 61
67 "Finger.R.003" 66
68 "Finger.R.006" 60
69 "Finger.R.007" 68
70 "TentclB.R.000" 8
71 "TentclB.R.001" 70
72 "TentclB.R.002" 71
73 "TentclB.R.003" 72
74 "TentclB.L.000" 8
75 "TentclB.L.001" 74
76 "TentclB.L.002" 75
77 "TentclB.L.003" 76
78 "UpperTent.R.000" 8
79 "UpperTent.L.000" 8
80 "TentcBIK.R.000" 8
81 "TentcBIK.L.000" 8
82 "HndCtrl.L.000" 0
83 "HndCtrl.L.001" 82
84 "HndCtrl.R.000" 0
85 "HndCtrl.R.001" 84
end
skeleton
  time 0
  0 18.195469 -0.072209 345.967377 1.570796 -0.000000 3.141593
  1 -6.844589 -173.592377 -205.708145 -1.570796 -1.570796 0.000000
  2 199.560699 -214.887985 -126.571739 -1.570796 -1.570796 0.000000
  3 4.386902 -215.732559 220.480576 -1.570796 -1.570796 0.000000
  4 160.827240 -242.599121 77.370491 -1.570796 -1.570796 0.000000
  5 -35.647125 -342.921143 0.051621 -1.570796 1.570796 0.000000
  6 -0.000001 -24.555782 -0.000000 1.508322 -0.039543 3.136389
  7 -0.000001 32.302841 0.000004 -0.050040 -0.142047 0.023038
  8 -0.000002 34.389370 0.000004 -0.103490 -0.002186 0.014146
  9 -0.000002 27.110134 0.000001 -0.105602 0.074783 -0.211935
  10 0.000005 38.788406 -0.000001 0.262623 0.029916 -0.022558
  11 -0.000004 40.587620 0.000005 0.277682 -0.051211 -0.136896
  12 0.000006 24.940529 0.000002 -0.162680 0.003273 0.085534
  13 0.000004 17.791578 0.000000 -0.617905 0.126435 -0.170256
  14 -18.960356 29.781378 12.096856 -1.421006 2.517866 0.317110
  15 0.000003 15.654104 -0.000021 0.026703 -0.146420 -0.321863
  16 0.000004 18.581154 -0.000013 -0.046082 0.021466 -0.489279
  17 4.067174 22.808767 2.410916 -0.120268 0.039147 -0.991885
  18 -0.000001 32.306099 0.000009 -0.120268 0.039147 -0.991884
  19 -0.000007 33.416821 0.000000 -0.123306 -0.182647 -0.708643
  20 0.000008 25.521992 0.000004 -0.123306 -0.182647 -0.708643
  21 -3.114320 23.027315 2.596350 -0.417008 0.644781 0.773914
  22 -0.000021 32.306103 0.000013 -0.417008 0.644781 0.773914
  23 0.000019 33.416821 -0.000022 -1.030307 0.045392 0.520444
  24 -0.000005 25.521999 0.000027 -1.030307 0.045392 0.520444
  25 0.628914 23.027315 -3.075219 -1.002567 -0.120418 -0.258033
  26 -0.000004 32.306080 0.000017 -1.002567 -0.120418 -0.258033
  27 -0.000005 33.416790 -0.000012 -0.794075 -0.096423 -0.237875
  28 -0.000006 25.521999 0.000002 -0.794075 -0.096423 -0.237875
  29 18.861874 29.781364 12.096841 -1.550988 -2.536701 -0.152121
  30 -0.000000 15.654116 0.000003 -0.014378 0.279314 0.291893
  31 0.000000 18.581167 0.000006 -0.082510 0.109040 0.450672
  32 -4.067183 22.808775 2.410909 -0.036695 -0.326618 0.717719
  33 0.000001 32.306099 0.000014 -0.036695 -0.326618 0.717719
  34 -0.000009 33.416843 -0.000011 0.184272 0.047154 1.306804
  35 -0.000007 25.522020 0.000007 0.184271 0.047154 1.306804
  36 3.114331 23.027323 2.596384 0.976156 0.634523 -0.033516
  37 0.000012 32.306091 -0.000023 0.976156 0.634523 -0.033515
  38 0.000006 33.416836 0.000004 1.205315 0.076527 0.228990
  39 -0.000010 25.522024 -0.000003 1.205315 0.076528 0.228990
  40 -0.628903 23.027325 -3.075191 -0.683573 -0.257620 0.177795
  41 0.000005 32.306099 0.000015 -0.683573 -0.257620 0.177796
  42 0.000005 33.416805 -0.000002 -0.949478 0.199406 0.866823
  43 0.000002 25.522003 -0.000005 -0.949478 0.199406 0.866822
  44 -0.000004 40.587620 0.000005 -1.927982 1.137687 -0.025718
  45 -0.000001 58.152206 0.000001 0.650238 2.916225 0.123840
  46 -0.000012 124.040367 0.000016 -0.955198 -0.471345 -1.429431
  47 0.000065 158.302032 0.000057 -0.642203 -2.195071 0.306193
  48 -0.000010 12.421144 -0.000012 -0.378818 -0.001991 -0.076528
  49 12.733347 21.965227 -6.596072 0.607829 -1.476406 -1.008895
  50 0.000005 14.996468 -0.000010 -0.004531 0.000599 -0.061890
  51 -10.850970 19.295532 -1.254987 1.165095 -1.379079 -0.604913
  52 0.000010 11.953225 0.000001 -0.027997 -0.012197 0.216530
  53 0.592627 23.062962 -4.960675 1.163787 -1.404828 -1.069197
  54 -0.000010 7.840441 -0.000003 -0.034926 0.010904 -0.007476
  55 -17.577898 10.771955 1.287347 -0.072017 -3.117532 1.053529
  56 0.000004 9.450212 0.000012 1.570802 1.399076 1.581946
  57 -0.000004 40.587620 0.000005 -2.296324 -1.126739 0.791121
  58 -0.000005 58.166771 0.000012 1.001715 -2.813307 0.283822
  59 0.000018 124.040474 -0.000031 -0.964135 0.539647 1.484102
  60 0.000006 158.302155 0.000062 -0.271338 2.195071 -0.306193
  61 0.000013 12.421174 0.000003 -0.007952 0.001991 0.076528
  62 -12.733351 21.965261 -6.596042 1.163420 1.374255 1.569415
  63 0.000006 14.996458 -0.000000 -0.004571 -0.000021 0.188695
  64 10.850947 19.295570 -1.254949 1.323464 1.258579 0.768126
  65 0.000003 11.953211 -0.000006 -0.026230 0.015639 -0.089758
  66 -0.592624 23.062992 -4.960665 1.337498 1.283995 1.247108
  67 0.000002 7.840441 -0.000010 -0.036024 -0.006400 0.134208
  68 17.577887 10.772003 1.287376 -0.074477 3.126823 -1.180019
  69 -0.000012 9.450211 0.000014 1.570793 -1.525881 -1.581944
  70 30.706045 25.966085 28.162119 0.607795 0.036616 -3.129364
  71 0.000003 21.459734 -0.000006 0.960046 0.000003 -0.000005
  72 0.000000 53.415680 0.000003 -1.306890 0.243924 -0.007956
  73 0.000004 41.685043 0.000000 -0.905334 -0.030024 0.031177
  74 -30.706669 25.982704 28.162113 0.752128 0.507611 -2.950987
  75 -0.000003 21.459728 -0.000001 1.545857 0.000001 -0.000000
  76 0.000010 53.415672 -0.000003 -1.249787 -0.103863 0.022789
  77 0.000006 41.685032 0.000003 -1.023627 -0.142627 0.057084
  78 30.689005 -36.950363 49.621845 -3.141593 -0.000000 -0.000271
  79 -30.723700 -36.933743 49.621838 -3.141593 -0.000000 -0.000271
  80 28.519260 8.163766 93.786850 -0.000000 -0.000000 -0.000271
  81 -60.507351 40.435783 75.845543 0.000000 -0.000000 -0.000271
  82 3.257178 -83.615295 -120.727753 -0.370866 -1.570796 0.000000
  83 -0.000000 16.827707 -0.000006 -0.000000 -0.000000 -0.164758
  84 3.257196 -83.615311 120.816299 -0.000000 -1.570796 0.000000
  85 -0.000002 16.827730 0.000001 0.000000 0.000000 0.291565
  time 1
  0 18.195469 -0.072209 345.967377 1.570796 -0.000000 3.141593
  1 5.477372 -183.976151 -189.655594 -1.570796 -1.570796 0.000000
  2 199.560699 -198.409164 -124.743752 -1.570796 -1.570796 0.000000
  3 -20.016994 -232.585480 202.340820 -1.570796 -1.570796 0.000000
  4 160.827240 -223.866974 93.297546 -1.570796 -1.570796 0.000000
  5 -35.647125 -342.921143 0.051621 -1.570796 1.570796 0.000000
  6 -0.000001 -24.555782 -0.000000 1.477715 -0.018369 3.139416
  7 0.000002 32.302853 0.000003 -0.033669 -0.139662 0.006357
  8 -0.000009 34.389370 0.000001 -0.030659 -0.018073 0.079197
  9 -0.000002 27.110140 0.000006 0.060292 0.074075 -0.121853
  10 0.000004 38.788414 -0.000006 0.262623 0.029916 -0.022558
  11 0.000003 40.587616 0.000002 0.277682 -0.051212 -0.136895
  12 0.000005 24.940546 -0.000004 -0.146106 0.047472 0.195404
  13 -0.000001 17.791582 0.000000 -0.619061 0.125716 -0.176249
  14 -18.960356 29.781393 12.096866 -1.442738 2.563179 0.134136
  15 -0.000001 15.654113 -0.000012 0.095968 -0.293358 -0.263793
  16 -0.000012 18.581152 -0.000014 0.032554 -0.121282 -0.422665
  17 3.917292 22.658869 2.261007 -0.066435 0.005342 -0.848599
  18 0.000009 31.499023 -0.000013 -0.066435 0.005342 -0.848599
  19 0.000001 32.582008 0.000017 -0.129110 -0.268452 -0.554089
  20 -0.000006 24.262772 0.000004 -0.129110 -0.268452 -0.554089
  21 -3.264218 22.877426 2.446471 -0.473889 0.618322 0.584123
  22 -0.000003 31.499041 0.000002 -0.473889 0.618322 0.584122
  23 -0.000022 32.581997 0.000007 -0.794495 -0.037270 0.427172
  24 0.000018 24.262768 0.000001 -0.794495 -0.037270 0.427172
  25 0.479007 22.877426 -3.225088 -0.995632 -0.164709 -0.253391
  26 0.000000 31.499025 0.000006 -0.995632 -0.164709 -0.253391
  27 0.000004 32.582012 0.000008 -0.780901 -0.168038 -0.236802
  28 0.000002 24.262770 0.000010 -0.780900 -0.168038 -0.236802
  29 18.861864 29.781372 12.096849 -1.567186 -2.534183 -0.359193
  30 0.000004 15.654116 0.000005 -0.145264 0.110167 0.310262
  31 -0.000002 18.581163 0.000002 -0.216210 -0.058451 0.480399
  32 -4.067180 22.808756 2.410910 0.084033 -0.310341 0.555499
  33 -0.000006 32.306110 0.000003 0.084033 -0.310341 0.555499
  34 -0.000005 33.416832 0.000003 0.287723 0.097192 1.231510
  35 0.000000 25.522013 0.000005 0.287723 0.097192 1.231510
  36 3.114331 23.027315 2.596362 0.889014 0.549271 0.012303
  37 -0.000006 32.306095 0.000004 0.889014 0.549271 0.012303
  38 0.000018 33.416817 -0.000001 0.987128 0.126748 0.219604
  39 0.000009 25.521999 0.000006 0.987128 0.126747 0.219604
  40 -0.628901 23.027309 -3.075207 -0.509306 -0.349856 0.173559
  41 -0.000002 32.306107 0.000004 -0.509306 -0.349856 0.173559
  42 0.000010 33.416813 -0.000005 -0.936813 0.043370 0.789193
  43 0.000001 25.522007 -0.000009 -0.936813 0.043370 0.789193
  44 0.000003 40.587616 0.000002 -1.927982 1.137687 -0.025718
  45 0.000005 58.152214 0.000002 0.719407 2.989753 -0.088737
  46 -0.000002 124.040398 0.000023 -0.969190 -0.670998 -1.594163
  47 0.000032 158.302185 -0.000004 -0.642203 -2.195072 0.306193
  48 0.000002 12.421147 -0.000015 -0.378818 -0.001991 -0.076528
  49 12.733332 21.965260 -6.596057 0.607830 -1.476405 -1.008892
  50 -0.000001 14.996464 0.000010 -0.004531 0.000599 -0.061890
  51 -10.850971 19.295561 -1.254954 1.165097 -1.379079 -0.604913
  52 0.000002 11.953235 0.000010 -0.027996 -0.012197 0.216531
  53 0.592606 23.062988 -4.960660 1.163787 -1.404828 -1.069195
  54 0.000018 7.840449 -0.000017 -0.034926 0.010904 -0.007477
  55 -17.577881 10.771974 1.287351 -0.072017 -3.117532 1.053530
  56 -0.000001 9.450198 0.000004 1.570800 1.399076 1.581945
  57 0.000003 40.587616 0.000002 -2.296807 -1.127947 0.790860
  58 -0.000000 58.166771 0.000010 1.330095 -2.729597 0.110855
  59 -0.000046 124.040413 -0.000043 -0.961942 0.519720 1.468039
  60 0.000061 158.302155 0.000042 -0.271337 2.195071 -0.306193
  61 -0.000009 12.421143 -0.000010 -0.007952 0.001991 0.076528
  62 -12.733305 21.965269 -6.596046 1.163420 1.374255 1.569416
  63 0.000008 14.996465 -0.000002 -0.004571 -0.000021 0.188695
  64 10.850911 19.295578 -1.254945 1.323464 1.258579 0.768126
  65 -0.000004 11.953221 -0.000014 -0.026230 0.015639 -0.089758
  66 -0.592645 23.063007 -4.960648 1.337498 1.283995 1.247108
  67 0.000001 7.840439 0.000001 -0.036024 -0.006401 0.134208
  68 17.577896 10.771912 1.287343 -0.074476 3.126824 -1.180019
  69 0.000006 9.450214 -0.000000 1.570804 -1.525882 -1.581948
  70 30.706038 25.966070 28.162125 0.599090 0.090995 -3.110733
  71 0.000001 21.459730 -0.000000 0.861927 0.000002 -0.000004
  72 0.000009 53.415680 0.000007 -0.731890 0.199877 0.145076
  73 -0.000013 41.685047 0.000006 -0.533440 -0.055441 -0.023553
  74 -30.706669 25.982698 28.162113 0.732951 0.419309 -2.989235
  75 -0.000003 21.459736 0.000005 1.897893 0.000001 -0.000000
  76 0.000002 53.415684 -0.000001 -1.030702 -0.108447 0.034946
  77 -0.000001 41.685043 0.000001 -0.517694 -0.197769 0.022133
  78 30.689007 -36.950371 49.621834 -3.141593 -0.000000 -0.000271
  79 -30.723701 -36.933750 49.621834 -3.141593 -0.000000 -0.000271
  80 25.511890 2.219990 93.086555 0.000000 0.000000 -0.000271
  81 -51.643410 53.775925 65.125107 0.000000 -0.000000 -0.000271
  82 3.257178 -83.615295 -120.727753 -0.370866 -1.570796 0.000000
  83 -0.000000 16.827707 -0.000006 -0.000000 -0.000000 -0.164758
  84 3.257196 -83.615311 120.816299 -0.000000 -1.570796 0.000000
  85 -0.000002 16.827730 0.000001 0.000000 0.000000 0.291565
  time 2
  0 18.195469 -0.072209 345.967377 1.570796 -0.000000 3.141593
  1 4.483892 -183.138931 -190.949860 -1.570796 -1.570796 0.000000
  2 199.560699 -181.930313 -122.915756 -1.570796 -1.570796 0.000000
  3 -18.049385 -231.226685 203.803360 -1.570796 -1.570796 0.000000
  4 160.827225 -205.134811 109.224609 -1.570796 -1.570796 0.000000
  5 -35.647125 -342.921143 0.051621 -1.570796 1.570796 0.000000
  6 -0.000001 -24.555782 -0.000000 1.447177 0.002888 -3.141391
  7 -0.000005 32.302849 0.000000 -0.017345 -0.137007 -0.010277
  8 -0.000003 34.389362 0.000001 0.041086 -0.038636 0.143007
  9 -0.000012 27.110136 0.000003 0.046926 0.074684 -0.129099
  10 -0.000004 38.788418 0.000001 0.262623 0.029917 -0.022558
  11 -0.000000 40.587597 0.000008 0.277682 -0.051212 -0.136895
  12 0.000011 24.940535 0.000003 -0.125248 0.088827 0.286368
  13 -0.000005 17.791574 0.000002 -0.620701 0.126869 -0.181472
  14 -18.960356 29.781376 12.096852 -1.453950 2.610965 -0.042451
  15 0.000000 15.654118 0.000003 0.159814 -0.443734 -0.213641
  16 -0.000014 18.581152 -0.000030 0.103494 -0.268594 -0.365901
  17 4.067186 22.808765 2.410888 -0.035831 0.077874 -0.778547
  18 0.000002 32.306103 0.000000 -0.035831 0.077874 -0.778547
  19 0.000004 33.416824 -0.000009 -0.096577 -0.197484 -0.497371
  20 -0.000008 25.522009 0.000033 -0.096577 -0.197484 -0.497371
  21 -3.114330 23.027328 2.596352 -0.372930 0.640976 0.644000
  22 0.000005 32.306110 0.000014 -0.372930 0.640976 0.644000
  23 -0.000016 33.416840 -0.000009 -0.713659 0.014729 0.448994
  24 -0.000008 25.522009 0.000005 -0.713659 0.014730 0.448994
  25 0.628897 23.027319 -3.075234 -0.936393 -0.086494 -0.232969
  26 -0.000002 32.306099 0.000017 -0.936393 -0.086493 -0.232969
  27 0.000014 33.416805 0.000006 -0.722775 -0.091660 -0.207980
  28 0.000006 25.522009 0.000001 -0.722775 -0.091659 -0.207980
  29 18.861868 29.781391 12.096850 -1.565908 -2.534487 -0.342517
  30 -0.000001 15.654121 -0.000000 -0.134737 0.123676 0.307977
  31 -0.000009 18.581171 -0.000007 -0.205249 -0.045137 0.477176
  32 -4.067181 22.808764 2.410909 0.074457 -0.312336 0.568437
  33 -0.000002 32.306107 0.000013 0.074457 -0.312336 0.568437
  34 0.000007 33.416832 0.000005 0.279515 0.092877 1.237391
  35 -0.000008 25.522018 0.000000 0.279515 0.092877 1.237391
  36 3.114337 23.027315 2.596373 0.896030 0.556013 0.008381
  37 0.000000 32.306107 -0.000009 0.896030 0.556013 0.008381
  38 0.000002 33.416824 0.000013 1.004748 0.122795 0.220767
  39 0.000013 25.522015 0.000016 1.004748 0.122795 0.220767
  40 -0.628903 23.027325 -3.075207 -0.523554 -0.342472 0.174536
  41 0.000009 32.306084 0.000007 -0.523554 -0.342472 0.174536
  42 0.000008 33.416813 -0.000007 -0.938276 0.055894 0.795482
  43 -0.000009 25.522005 -0.000009 -0.938276 0.055894 0.795482
  44 -0.000000 40.587597 0.000008 -1.927982 1.137687 -0.025718
  45 -0.000003 58.152214 0.000003 0.646889 2.984839 -0.126371
  46 0.000019 124.040436 -0.000019 -0.969150 -0.672337 -1.595336
  47 0.000017 158.302139 0.000015 -0.642203 -2.195071 0.306193
  48 -0.000001 12.421157 0.000004 -0.378818 -0.001991 -0.076528
  49 12.733306 21.965256 -6.596026 0.607831 -1.476405 -1.008892
  50 0.000003 14.996458 0.000006 -0.004531 0.000599 -0.061890
  51 -10.850958 19.295555 -1.254962 1.165097 -1.379079 -0.604913
  52 0.000004 11.953221 0.000004 -0.027997 -0.012197 0.216530
  53 0.592637 23.062981 -4.960632 1.163787 -1.404828 -1.069195
  54 0.000014 7.840446 0.000007 -0.034926 0.010904 -0.007477
  55 -17.577885 10.771936 1.287355 -0.072017 -3.117532 1.053529
  56 -0.000005 9.450187 0.000008 1.570800 1.399076 1.581944
  57 -0.000000 40.587597 0.000008 -2.298323 -1.129402 0.790518
  58 0.000002 58.166786 -0.000010 1.287252 -2.644761 0.092228
  59 -0.000067 124.040466 -0.000067 -0.959962 0.503959 1.455410
  60 0.000017 158.302170 0.000072 -0.271337 2.195072 -0.306193
  61 -0.000003 12.421151 -0.000003 -0.007952 0.001991 0.076528
  62 -12.733308 21.965244 -6.596089 1.163420 1.374255 1.569416
  63 0.000009 14.996479 -0.000004 -0.004571 -0.000021 0.188695
  64 10.850979 19.295563 -1.254977 1.323463 1.258579 0.768126
  65 -0.000001 11.953235 -0.000009 -0.026230 0.015639 -0.089758
  66 -0.592633 23.062937 -4.960724 1.337499 1.283995 1.247108
  67 0.000003 7.840456 -0.000009 -0.036024 -0.006400 0.134208
  68 17.577869 10.772005 1.287400 -0.074476 3.126823 -1.180019
  69 0.000006 9.450212 0.000001 1.570799 -1.525881 -1.581946
  70 30.706036 25.966087 28.162121 0.646620 0.150117 -3.090246
  71 -0.000005 21.459728 0.000001 0.695617 0.000002 -0.000005
  72 -0.000001 53.415676 0.000003 -0.777072 0.206442 0.134175
  73 -0.000013 41.685036 0.000003 -0.563311 -0.054172 -0.018854
  74 -30.706684 25.982697 28.162119 0.722241 0.427679 -2.985758
  75 -0.000006 21.459713 -0.000007 1.881001 0.000002 -0.000001
  76 0.000004 53.415668 -0.000002 -0.811545 -0.115549 0.045816
  77 0.000005 41.685043 -0.000008 -0.558311 -0.194084 0.025933
  78 30.689018 -36.950356 49.621841 -3.141593 0.000000 -0.000271
  79 -30.723690 -36.933743 49.621841 -3.141593 0.000000 -0.000271
  80 22.504511 -3.723784 92.386269 0.000000 0.000000 -0.000271
  81 -52.358109 52.700344 65.989456 -0.000000 -0.000000 -0.000271
  82 3.257178 -83.615295 -120.727753 -0.370866 -1.570796 0.000000
  83 -0.000000 16.827707 -0.000006 -0.000000 -0.000000 -0.164758
  84 3.257196 -83.615311 120.816299 -0.000000 -1.570796 0.000000
  85 -0.000002 16.827730 0.000001 0.000000 0.000000 0.291565
  time 3
  0 18.195469 -0.072209 345.967377 1.570796 -0.000000 3.141593
  1 32.877953 -170.222321 -208.000565 -1.570796 -1.570796 0.000000
  2 199.560699 -165.451492 -121.087769 -1.570796 -1.570796 0.000000
  3 -27.227430 -244.132538 208.968445 -1.570796 -1.570796 0.000000
  4 160.827240 -223.866974 93.297546 -1.570796 -1.570796 0.000000
  5 -35.647125 -342.921143 0.051621 -1.570796 1.570796 0.000000
  6 -0.000001 -24.555782 -0.000000 1.445285 -0.018453 3.140343
  7 0.000001 32.302841 0.000003 -0.033669 -0.139662 0.006357
  8 -0.000001 34.389366 -0.000001 -0.030658 -0.018073 0.079197
  9 -0.000001 27.110136 0.000001 0.201896 0.052256 -0.031501
  10 -0.000001 38.788410 0.000000 0.262623 0.029916 -0.022558
  11 0.000002 40.587620 0.000002 0.277682 -0.051211 -0.136896
  12 0.000001 24.940540 0.000003 -0.146135 0.046989 0.185451
  13 0.000000 17.791582 0.000006 -0.622673 0.129414 -0.185949
  14 -18.960361 29.781395 12.096865 -1.442738 2.563179 0.134135
  15 -0.000006 15.654122 0.000005 0.095968 -0.293358 -0.263793
  16 -0.000002 18.581160 -0.000024 0.032554 -0.121282 -0.422665
  17 3.917293 22.658873 2.261009 -0.142045 -0.039159 -1.060068
  18 0.000003 31.499046 -0.000005 -0.142045 -0.039159 -1.060068
  19 -0.000004 32.582020 0.000018 -0.148605 -0.257024 -0.768247
  20 -0.000004 24.262774 -0.000002 -0.148605 -0.257024 -0.768248
  21 -3.264219 22.877428 2.446449 -0.520928 0.626649 0.716708
  22 -0.000013 31.499039 0.000011 -0.520928 0.626649 0.716708
  23 0.000001 32.582012 -0.000006 -1.116969 -0.005756 0.506539
  24 0.000001 24.262758 0.000011 -1.116969 -0.005757 0.506539
  25 0.479011 22.877426 -3.225101 -1.061255 -0.199978 -0.275045
  26 0.000005 31.499037 0.000002 -1.061255 -0.199979 -0.275044
  27 0.000007 32.582008 -0.000003 -0.851880 -0.174579 -0.264107
  28 0.000009 24.262768 -0.000014 -0.851880 -0.174579 -0.264107
  29 18.861862 29.781399 12.096859 -1.549664 -2.536783 -0.135468
  30 0.000001 15.654115 0.000000 -0.003727 0.293003 0.291386
  31 -0.000001 18.581169 -0.000014 -0.071882 0.122665 0.449245
  32 -4.067181 22.808764 2.410905 -0.046534 -0.327113 0.730883
  33 -0.000002 32.306103 -0.000009 -0.046534 -0.327113 0.730883
  34 -0.000002 33.416821 0.000006 0.175790 0.043468 1.313079
  35 -0.000001 25.522007 0.000008 0.175790 0.043468 1.313080
  36 3.114323 23.027325 2.596344 0.983200 0.641529 -0.036925
  37 0.000020 32.306091 -0.000000 0.983200 0.641529 -0.036925
  38 0.000000 33.416817 0.000002 1.222810 0.072419 0.229263
  39 0.000004 25.522001 0.000002 1.222810 0.072419 0.229263
  40 -0.628896 23.027323 -3.075209 -0.697392 -0.250188 0.177410
  41 -0.000006 32.306107 0.000006 -0.697392 -0.250188 0.177410
  42 -0.000007 33.416805 0.000003 -0.949975 0.212005 0.873084
  43 -0.000001 25.522003 0.000005 -0.949975 0.212005 0.873083
  44 0.000002 40.587620 0.000002 -1.927982 1.137687 -0.025718
  45 0.000007 58.152195 -0.000013 0.516537 -3.114744 -0.298171
  46 -0.000015 124.040298 0.000019 -0.968440 -0.596987 -1.531083
  47 0.000008 158.302063 -0.000023 -0.642203 -2.195071 0.306193
  48 -0.000009 12.421143 -0.000002 -0.378818 -0.001991 -0.076528
  49 12.733334 21.965227 -6.596074 0.607829 -1.476405 -1.008894
  50 -0.000008 14.996460 -0.000003 -0.004531 0.000599 -0.061890
  51 -10.850954 19.295544 -1.254972 1.165098 -1.379079 -0.604915
  52 -0.000008 11.953216 0.000007 -0.027997 -0.012196 0.216530
  53 0.592643 23.062983 -4.960648 1.163787 -1.404828 -1.069196
  54 0.000002 7.840436 -0.000001 -0.034926 0.010904 -0.007477
  55 -17.577875 10.771955 1.287388 -0.072017 -3.117531 1.053530
  56 0.000008 9.450206 0.000001 1.570796 1.399076 1.581941
  57 0.000002 40.587620 0.000002 -2.301726 -1.131415 0.789656
  58 -0.000002 58.166767 -0.000011 1.413033 -2.831668 0.056008
  59 -0.000030 124.040466 -0.000053 -0.935885 0.374367 1.352733
  60 0.000017 158.302185 0.000006 -0.271337 2.195071 -0.306193
  61 0.000001 12.421150 0.000002 -0.007952 0.001991 0.076528
  62 -12.733326 21.965242 -6.596066 1.163420 1.374255 1.569416
  63 -0.000007 14.996483 0.000010 -0.004571 -0.000021 0.188695
  64 10.850960 19.295574 -1.254954 1.323464 1.258579 0.768127
  65 0.000003 11.953224 -0.000003 -0.026230 0.015639 -0.089758
  66 -0.592634 23.062992 -4.960638 1.337499 1.283995 1.247109
  67 0.000001 7.840450 0.000002 -0.036024 -0.006401 0.134208
  68 17.577904 10.771933 1.287358 -0.074476 3.126823 -1.180019
  69 0.000007 9.450198 0.000003 1.570799 -1.525881 -1.581947
  70 30.706039 25.966082 28.162121 0.599091 0.090994 -3.110733
  71 0.000008 21.459723 0.000005 0.861926 0.000002 -0.000005
  72 -0.000001 53.415665 0.000010 -1.352989 0.243621 -0.020869
  73 -0.000010 41.685024 -0.000011 -0.935060 -0.027138 0.035090
  74 -30.706667 25.982706 28.162102 0.767510 0.513476 -2.948310
  75 0.000004 21.459723 0.000009 1.503837 -0.000001 0.000001
  76 0.000000 53.415668 0.000005 -1.030702 -0.108447 0.034946
  77 0.000007 41.685032 0.000004 -1.063712 -0.137598 0.058575
  78 30.688995 -36.950359 49.621838 -3.141593 -0.000000 -0.000271
  79 -30.723701 -36.933731 49.621834 -3.141593 -0.000000 -0.000271
  80 25.511881 2.220001 93.086548 -0.000000 0.000000 -0.000271
  81 -61.222000 39.360229 76.709869 0.000000 -0.000000 -0.000271
  82 3.257178 -83.615295 -120.727753 -0.370866 -1.570796 0.000000
  83 -0.000000 16.827707 -0.000006 -0.000000 -0.000000 -0.164758
  84 3.257196 -83.615311 120.816299 -0.000000 -1.570796 0.000000
  85 -0.000002 16.827730 0.000001 0.000000 0.000000 0.291565
  time 4
  0 18.195469 -0.072209 345.967377 1.570796 -0.000000 3.141593
  1 30.588633 -171.263733 -206.625809 -1.570796 -1.570796 0.000000
  2 199.560699 -156.110001 -121.087769 -1.570796 -1.570796 0.000000
  3 -26.487432 -243.091980 208.552002 -1.570796 -1.570796 0.000000
  4 160.827240 -242.599121 77.370491 -1.570796 -1.570796 0.000000
  5 -35.647125 -342.921143 0.051621 -1.570796 1.570796 0.000000
  6 -0.000001 -24.555782 -0.000000 1.445055 -0.039793 3.138898
  7 -0.000002 32.302845 0.000005 -0.050040 -0.142047 0.023038
  8 0.000001 34.389359 0.000000 -0.103490 -0.002186 0.014146
  9 -0.000006 27.110136 -0.000000 0.189533 0.054613 -0.039202
  10 -0.000006 38.788422 0.000000 0.262623 0.029917 -0.022558
  11 0.000003 40.587605 0.000006 0.277682 -0.051211 -0.136896
  12 0.000004 24.940529 0.000008 -0.162680 0.003273 0.085534
  13 0.000002 17.791569 0.000005 -0.624815 0.132871 -0.189701
  14 -18.960352 29.781378 12.096862 -1.421007 2.517866 0.317110
  15 -0.000002 15.654119 0.000003 0.026703 -0.146420 -0.321863
  16 -0.000004 18.581169 0.000001 -0.046082 0.021466 -0.489279
  17 4.067186 22.808764 2.410875 -0.120267 0.039147 -0.991884
  18 0.000000 32.306099 0.000020 -0.120268 0.039147 -0.991885
  19 0.000001 33.416828 0.000009 -0.123306 -0.182647 -0.708643
  20 -0.000012 25.522013 -0.000014 -0.123306 -0.182647 -0.708643
  21 -3.114328 23.027321 2.596351 -0.417008 0.644782 0.773914
  22 0.000011 32.306110 -0.000006 -0.417008 0.644781 0.773914
  23 -0.000014 33.416821 0.000000 -1.030307 0.045392 0.520444
  24 -0.000001 25.522013 0.000006 -1.030307 0.045392 0.520444
  25 0.628899 23.027321 -3.075197 -1.002567 -0.120418 -0.258033
  26 0.000000 32.306095 0.000005 -1.002567 -0.120418 -0.258033
  27 -0.000001 33.416813 0.000004 -0.794075 -0.096423 -0.237875
  28 0.000008 25.522007 -0.000009 -0.794075 -0.096423 -0.237875
  29 18.861866 29.781385 12.096851 -1.550988 -2.536701 -0.152121
  30 0.000011 15.654120 0.000012 -0.014378 0.279314 0.291893
  31 -0.000001 18.581169 -0.000016 -0.082510 0.109040 0.450672
  32 -4.067189 22.808775 2.410886 -0.036695 -0.326618 0.717719
  33 0.000002 32.306103 -0.000004 -0.036695 -0.326618 0.717720
  34 0.000017 33.416836 0.000011 0.184272 0.047154 1.306803
  35 -0.000005 25.522026 0.000002 0.184271 0.047154 1.306804
  36 3.114325 23.027321 2.596371 0.976156 0.634523 -0.033516
  37 0.000017 32.306099 -0.000017 0.976156 0.634523 -0.033516
  38 0.000026 33.416809 0.000016 1.205315 0.076527 0.228990
  39 -0.000014 25.522003 -0.000012 1.205315 0.076528 0.228990
  40 -0.628905 23.027321 -3.075198 -0.683573 -0.257620 0.177796
  41 0.000010 32.306087 0.000008 -0.683573 -0.257620 0.177796
  42 0.000001 33.416794 -0.000001 -0.949478 0.199406 0.866823
  43 -0.000004 25.522011 0.000003 -0.949478 0.199406 0.866822
  44 0.000003 40.587605 0.000006 -1.927982 1.137687 -0.025718
  45 0.000003 58.152210 -0.000000 0.425935 3.011568 -0.283065
  46 -0.000029 124.040382 -0.000006 -0.968217 -0.592518 -1.527371
  47 0.000042 158.302109 0.000019 -0.642203 -2.195071 0.306193
  48 -0.000007 12.421148 -0.000005 -0.378818 -0.001991 -0.076528
  49 12.733315 21.965235 -6.596056 0.607829 -1.476405 -1.008890
  50 0.000004 14.996455 0.000016 -0.004531 0.000599 -0.061890
  51 -10.850975 19.295561 -1.254970 1.165096 -1.379079 -0.604912
  52 0.000008 11.953232 0.000006 -0.027997 -0.012196 0.216530
  53 0.592635 23.062979 -4.960654 1.163787 -1.404828 -1.069194
  54 0.000007 7.840443 0.000014 -0.034926 0.010904 -0.007477
  55 -17.577877 10.771948 1.287387 -0.072017 -3.117532 1.053529
  56 0.000003 9.450201 0.000005 1.570801 1.399076 1.581945
  57 0.000003 40.587605 0.000006 -2.307881 -1.134301 0.787846
  58 -0.000003 58.166759 0.000001 1.405218 -2.889838 0.091013
  59 -0.000023 124.040474 -0.000045 -0.941929 0.400941 1.373743
  60 0.000046 158.302170 0.000084 -0.271337 2.195072 -0.306194
  61 0.000002 12.421160 -0.000003 -0.007952 0.001991 0.076528
  62 -12.733334 21.965235 -6.596077 1.163419 1.374255 1.569415
  63 0.000003 14.996478 0.000004 -0.004571 -0.000021 0.188695
  64 10.850986 19.295580 -1.254964 1.323463 1.258579 0.768126
  65 0.000002 11.953208 -0.000006 -0.026230 0.015639 -0.089758
  66 -0.592634 23.063002 -4.960679 1.337498 1.283995 1.247108
  67 0.000000 7.840436 0.000002 -0.036024 -0.006400 0.134208
  68 17.577887 10.771997 1.287375 -0.074476 3.126823 -1.180019
  69 -0.000002 9.450194 0.000001 1.570802 -1.525882 -1.581948
  70 30.706041 25.966093 28.162125 0.607794 0.036616 -3.129364
  71 0.000005 21.459732 -0.000002 0.960048 0.000003 -0.000005
  72 -0.000002 53.415672 0.000012 -1.306890 0.243924 -0.007956
  73 -0.000007 41.685040 -0.000006 -0.905334 -0.030024 0.031177
  74 -30.706671 25.982718 28.162119 0.752128 0.507611 -2.950987
  75 -0.000006 21.459724 0.000004 1.545858 0.000001 0.000000
  76 -0.000004 53.415695 0.000003 -1.249787 -0.103863 0.022790
  77 0.000008 41.685028 0.000008 -1.023627 -0.142627 0.057084
  78 30.689011 -36.950359 49.621849 -3.141593 -0.000000 -0.000271
  79 -30.723696 -36.933746 49.621841 -3.141593 -0.000000 -0.000271
  80 28.519264 8.163766 93.786850 0.000000 0.000000 -0.000270
  81 -60.507355 40.435787 75.845543 0.000000 -0.000000 -0.000271
  82 3.257178 -83.615295 -120.727753 -0.370866 -1.570796 0.000000
  83 -0.000000 16.827707 -0.000006 -0.000000 -0.000000 -0.164758
  84 3.257196 -83.615311 120.816299 -0.000000 -1.570796 0.000000
  85 -0.000002 16.827730 0.000001 0.000000 0.000000 0.291565
  time 5
  0 18.195469 -0.072209 345.967377 1.570796 -0.000000 3.141593
  1 62.197140 -159.959137 -193.051819 -1.570796 -1.570796 0.000000
  2 199.560699 -146.768509 -121.087769 -1.570796 -1.570796 0.000000
  3 -35.665470 -272.345764 196.534195 -1.570796 -1.570796 0.000000
  4 160.827240 -223.866974 93.297546 -1.570796 -1.570796 0.000000
  5 -35.647125 -342.921143 0.051621 -1.570796 1.570796 0.000000
  6 -0.000001 -24.555782 -0.000000 1.451945 -0.018448 3.140290
  7 0.000003 32.302853 0.000004 -0.033669 -0.139662 0.006357
  8 0.000006 34.389362 -0.000003 -0.057664 -0.010789 0.006189
  9 0.000003 27.110136 0.000001 0.425277 0.101788 -0.002711
  10 -0.000000 38.788429 0.000003 0.262623 0.029916 -0.022558
  11 -0.000001 40.587620 0.000005 0.277682 -0.051211 -0.136896
  12 -0.000000 24.940536 0.000005 -0.146135 0.046989 0.185450
  13 -0.000001 17.791580 0.000004 -0.626958 0.136766 -0.192747
  14 -18.960358 29.781385 12.096863 -1.429273 2.532268 0.256697
  15 -0.000002 15.654121 -0.000007 0.050009 -0.193885 -0.301985
  16 0.000002 18.581152 -0.000012 -0.019444 -0.024487 -0.466365
  17 3.917298 22.658869 2.260995 -0.066435 0.005342 -0.848599
  18 0.000004 31.499037 0.000006 -0.066435 0.005342 -0.848599
  19 -0.000001 32.582005 -0.000013 -0.129110 -0.268451 -0.554089
  20 -0.000003 24.262770 0.000000 -0.129110 -0.268451 -0.554089
  21 -3.264217 22.877424 2.446462 -0.473889 0.618322 0.584123
  22 0.000004 31.499029 -0.000011 -0.473889 0.618322 0.584123
  23 -0.000006 32.582008 -0.000004 -0.794495 -0.037270 0.427171
  24 -0.000008 24.262764 0.000015 -0.794495 -0.037270 0.427172
  25 0.479019 22.877426 -3.225110 -0.995632 -0.164709 -0.253391
  26 0.000004 31.499022 0.000001 -0.995632 -0.164709 -0.253391
  27 -0.000001 32.582008 -0.000008 -0.780901 -0.168038 -0.236802
  28 0.000004 24.262760 -0.000011 -0.780901 -0.168038 -0.236802
  29 18.861870 29.781380 12.096844 -1.567186 -2.534183 -0.359193
  30 -0.000001 15.654119 -0.000007 -0.145264 0.110167 0.310262
  31 -0.000006 18.581154 0.000007 -0.216210 -0.058451 0.480399
  32 -4.067180 22.808754 2.410908 0.084033 -0.310341 0.555499
  33 0.000006 32.306095 0.000006 0.084033 -0.310341 0.555499
  34 0.000003 33.416821 0.000009 0.287723 0.097192 1.231510
  35 0.000001 25.522009 -0.000015 0.287723 0.097192 1.231510
  36 3.114334 23.027323 2.596349 0.889014 0.549271 0.012303
  37 0.000007 32.306087 -0.000005 0.889014 0.549271 0.012303
  38 -0.000009 33.416821 -0.000003 0.987128 0.126748 0.219604
  39 0.000005 25.522005 0.000004 0.987128 0.126747 0.219604
  40 -0.628899 23.027311 -3.075205 -0.509306 -0.349856 0.173559
  41 -0.000002 32.306091 0.000009 -0.509306 -0.349856 0.173559
  42 0.000005 33.416809 -0.000010 -0.936813 0.043370 0.789193
  43 -0.000006 25.522007 0.000007 -0.936813 0.043370 0.789193
  44 -0.000001 40.587620 0.000005 -1.927982 1.137687 -0.025718
  45 -0.000007 58.152214 -0.000002 0.799785 -3.016725 -0.609276
  46 0.000008 124.040359 -0.000002 -0.968348 -0.595085 -1.529502
  47 -0.000033 158.302231 0.000003 -0.642204 -2.195072 0.306193
  48 0.000006 12.421169 0.000012 -0.378818 -0.001991 -0.076528
  49 12.733305 21.965252 -6.596062 0.607828 -1.476405 -1.008890
  50 -0.000000 14.996461 -0.000001 -0.004531 0.000599 -0.061890
  51 -10.850968 19.295551 -1.254946 1.165099 -1.379079 -0.604914
  52 0.000012 11.953224 -0.000002 -0.027996 -0.012196 0.216530
  53 0.592625 23.062962 -4.960650 1.163787 -1.404828 -1.069195
  54 0.000009 7.840446 -0.000006 -0.034926 0.010904 -0.007477
  55 -17.577906 10.771951 1.287382 -0.072018 -3.117532 1.053530
  56 0.000009 9.450204 -0.000000 1.570795 1.399075 1.581940
  57 -0.000001 40.587620 0.000005 -2.317682 -1.138385 0.784683
  58 -0.000002 58.166756 -0.000013 1.555402 -2.919862 -0.037068
  59 -0.000009 124.040382 -0.000056 -0.943027 0.406049 1.377778
  60 0.000029 158.302155 -0.000015 -0.271337 2.195071 -0.306193
  61 -0.000004 12.421159 0.000012 -0.007952 0.001991 0.076528
  62 -12.733324 21.965214 -6.596072 1.163419 1.374255 1.569415
  63 -0.000000 14.996469 0.000005 -0.004571 -0.000021 0.188695
  64 10.850960 19.295574 -1.254953 1.323464 1.258579 0.768127
  65 0.000007 11.953224 -0.000001 -0.026230 0.015639 -0.089758
  66 -0.592625 23.062996 -4.960636 1.337499 1.283995 1.247109
  67 -0.000001 7.840452 0.000003 -0.036024 -0.006401 0.134208
  68 17.577896 10.771985 1.287365 -0.074476 3.126824 -1.180019
  69 0.000013 9.450210 -0.000004 1.570797 -1.525881 -1.581940
  70 30.706043 25.966078 28.162115 0.599091 0.090994 -3.110733
  71 0.000004 21.459715 0.000000 0.861925 0.000002 -0.000005
  72 0.000010 53.415657 -0.000000 -0.731890 0.199877 0.145076
  73 -0.000018 41.685024 -0.000003 -0.533440 -0.055441 -0.023553
  74 -30.706665 25.982706 28.162100 0.732951 0.419311 -2.989236
  75 0.000007 21.459723 -0.000000 1.897893 -0.000001 0.000001
  76 -0.000007 53.415676 -0.000007 -1.030702 -0.108447 0.034946
  77 0.000005 41.685032 0.000012 -0.517694 -0.197768 0.022133
  78 30.688993 -36.950356 49.621845 3.141593 -0.000000 -0.000271
  79 -30.723703 -36.933727 49.621834 3.141593 -0.000000 -0.000271
  80 25.511887 2.220002 93.086555 -0.000000 -0.000000 -0.000271
  81 -51.643394 53.775932 65.125092 0.000000 -0.000000 -0.000271
  82 3.257178 -83.615295 -120.727753 -0.370866 -1.570796 0.000000
  83 -0.000000 16.827707 -0.000006 -0.000000 -0.000000 -0.164758
  84 3.257196 -83.615311 120.816299 -0.000000 -1.570796 0.000000
  85 -0.000002 16.827730 0.000001 0.000000 0.000000 0.291565
  time 6
  0 18.195469 -0.072209 345.967377 1.570796 -0.000000 3.141593
  1 59.648651 -160.870605 -194.146271 -1.570796 -1.570796 0.000000
  2 199.560699 -137.427032 -121.087769 -1.570796 -1.570796 0.000000
  3 -34.925476 -269.987122 197.503174 -1.570796 -1.570796 0.000000
  4 160.827225 -205.134811 109.224609 -1.570796 -1.570796 0.000000
  5 -35.647125 -342.921143 0.051621 -1.570796 1.570796 0.000000
  6 -0.000001 -24.555782 -0.000000 1.458863 0.002886 -3.141357
  7 -0.000008 32.302849 0.000004 -0.017345 -0.137007 -0.010277
  8 -0.000000 34.389351 0.000000 -0.011765 -0.019018 -0.002155
  9 0.000003 27.110136 -0.000003 0.406188 0.098320 -0.006059
  10 0.000002 38.788422 0.000004 0.262623 0.029916 -0.022558
  11 0.000001 40.587608 0.000005 0.277682 -0.051212 -0.136895
  12 -0.000000 24.940550 -0.000014 -0.125248 0.088827 0.286369
  13 -0.000004 17.791569 0.000013 -0.628931 0.140623 -0.195100
  14 -18.960350 29.781385 12.096868 -1.436392 2.547048 0.197032
  15 0.000003 15.654119 -0.000013 0.072586 -0.241786 -0.283041
  16 -0.000005 18.581163 -0.000001 0.006191 -0.071023 -0.444635
  17 4.067183 22.808769 2.410886 -0.035831 0.077875 -0.778547
  18 0.000003 32.306107 0.000009 -0.035831 0.077875 -0.778547
  19 0.000000 33.416828 0.000002 -0.096577 -0.197484 -0.497371
  20 -0.000002 25.522015 -0.000003 -0.096577 -0.197484 -0.497371
  21 -3.114314 23.027319 2.596333 -0.372930 0.640976 0.644000
  22 -0.000015 32.306087 0.000014 -0.372930 0.640976 0.644000
  23 -0.000020 33.416836 -0.000005 -0.713659 0.014729 0.448993
  24 0.000008 25.522007 0.000003 -0.713658 0.014730 0.448994
  25 0.628910 23.027325 -3.075201 -0.936393 -0.086494 -0.232968
  26 0.000009 32.306080 0.000016 -0.936393 -0.086494 -0.232968
  27 -0.000006 33.416817 0.000009 -0.722775 -0.091659 -0.207980
  28 0.000009 25.522007 -0.000010 -0.722775 -0.091659 -0.207980
  29 18.861870 29.781389 12.096849 -1.565908 -2.534487 -0.342517
  30 0.000003 15.654116 0.000008 -0.134737 0.123676 0.307977
  31 0.000002 18.581161 0.000008 -0.205249 -0.045137 0.477176
  32 -4.067188 22.808752 2.410919 0.074457 -0.312336 0.568437
  33 -0.000010 32.306099 0.000005 0.074457 -0.312336 0.568437
  34 -0.000012 33.416824 0.000005 0.279515 0.092877 1.237391
  35 0.000007 25.522005 0.000004 0.279515 0.092877 1.237391
  36 3.114315 23.027323 2.596358 0.896030 0.556013 0.008381
  37 0.000004 32.306095 0.000003 0.896030 0.556013 0.008381
  38 -0.000001 33.416824 0.000003 1.004748 0.122795 0.220768
  39 0.000010 25.522013 -0.000001 1.004748 0.122795 0.220767
  40 -0.628911 23.027308 -3.075190 -0.523554 -0.342472 0.174536
  41 0.000002 32.306095 0.000005 -0.523554 -0.342472 0.174536
  42 -0.000003 33.416817 -0.000000 -0.938276 0.055893 0.795482
  43 -0.000004 25.522022 0.000011 -0.938276 0.055894 0.795482
  44 0.000001 40.587608 0.000005 -1.927982 1.137687 -0.025718
  45 0.000007 58.152210 -0.000008 0.806107 -3.070614 -0.566026
  46 -0.000019 124.040359 0.000015 -0.965108 -0.549683 -1.492235
  47 -0.000013 158.302170 0.000031 -0.642204 -2.195071 0.306193
  48 -0.000001 12.421143 -0.000005 -0.378818 -0.001991 -0.076528
  49 12.733316 21.965271 -6.596053 0.607828 -1.476405 -1.008891
  50 0.000010 14.996483 -0.000008 -0.004531 0.000599 -0.061890
  51 -10.850964 19.295563 -1.254937 1.165098 -1.379079 -0.604914
  52 0.000007 11.953221 0.000004 -0.027997 -0.012196 0.216530
  53 0.592656 23.062986 -4.960689 1.163787 -1.404828 -1.069195
  54 0.000004 7.840444 0.000000 -0.034926 0.010904 -0.007477
  55 -17.577885 10.771910 1.287349 -0.072017 -3.117532 1.053530
  56 0.000005 9.450212 -0.000011 1.570797 1.399076 1.581942
  57 0.000001 40.587608 0.000005 -2.332065 -1.144004 0.779794
  58 -0.000005 58.166775 0.000005 1.482342 -2.834836 -0.025913
  59 -0.000026 124.040482 -0.000032 -0.954218 0.465311 1.424644
  60 0.000001 158.302231 0.000028 -0.271337 2.195072 -0.306193
  61 0.000004 12.421163 -0.000002 -0.007952 0.001991 0.076528
  62 -12.733323 21.965258 -6.596071 1.163420 1.374255 1.569416
  63 0.000002 14.996472 0.000003 -0.004571 -0.000021 0.188695
  64 10.850966 19.295559 -1.254961 1.323464 1.258579 0.768126
  65 0.000005 11.953222 -0.000003 -0.026230 0.015639 -0.089758
  66 -0.592635 23.062996 -4.960680 1.337499 1.283995 1.247109
  67 -0.000005 7.840456 -0.000005 -0.036024 -0.006401 0.134208
  68 17.577892 10.771944 1.287362 -0.074477 3.126823 -1.180019
  69 0.000010 9.450212 0.000000 1.570796 -1.525881 -1.581943
  70 30.706034 25.966084 28.162119 0.646620 0.150118 -3.090247
  71 -0.000003 21.459732 0.000004 0.695617 0.000001 -0.000004
  72 -0.000001 53.415676 0.000009 -0.777072 0.206442 0.134175
  73 -0.000009 41.685028 0.000003 -0.563311 -0.054172 -0.018853
  74 -30.706667 25.982708 28.162096 0.722239 0.427682 -2.985759
  75 -0.000003 21.459728 0.000002 1.881002 -0.000001 0.000001
  76 0.000002 53.415668 -0.000003 -0.811545 -0.115549 0.045816
  77 -0.000005 41.685051 0.000007 -0.558311 -0.194084 0.025933
  78 30.688990 -36.950333 49.621849 3.141593 -0.000000 -0.000271
  79 -30.723705 -36.933708 49.621826 3.141593 -0.000000 -0.000271
  80 22.504503 -3.723741 92.386269 -0.000000 -0.000000 -0.000271
  81 -52.358070 52.700352 65.989426 -0.000000 -0.000001 -0.000271
  82 3.257178 -83.615295 -120.727753 -0.370866 -1.570796 0.000000
  83 -0.000000 16.827707 -0.000006 -0.000000 -0.000000 -0.164758
  84 3.257196 -83.615311 120.816299 -0.000000 -1.570796 0.000000
  85 -0.000002 16.827730 0.000001 0.000000 0.000000 0.291565
  time 7
  0 18.195469 -0.072209 345.967377 1.570796 -0.000000 3.141593
  1 81.892418 -173.029938 -205.196976 -1.570796 -1.570796 0.000000
  2 199.560715 -121.698288 -70.967293 -1.570796 -1.570796 0.000000
  3 -44.103519 -276.661285 159.745468 -1.570796 -1.570796 0.000000
  4 160.827225 -217.622925 129.210800 -1.570796 -1.570796 0.000000
  5 -35.647125 -342.921143 0.051621 -1.570796 1.570796 0.000000
  6 -0.000001 -24.555782 -0.000000 1.458100 -0.018308 3.140150
  7 0.000004 32.302849 -0.000001 -0.033669 -0.139662 0.006357
  8 -0.000002 34.389362 0.000001 0.039776 -0.017895 -0.010172
  9 0.000003 27.110140 0.000004 0.149377 0.121423 -0.251018
  10 0.000008 38.788425 -0.000005 0.262623 0.029916 -0.022558
  11 -0.000001 40.587612 0.000000 0.277682 -0.051211 -0.136895
  12 0.000001 24.940546 0.000002 -0.146135 0.046989 0.185451
  13 -0.000006 17.791590 -0.000005 -0.630558 0.143966 -0.196772
  14 -18.960356 29.781391 12.096863 -1.429273 2.532268 0.256697
  15 -0.000002 15.654118 0.000004 0.050009 -0.193885 -0.301985
  16 0.000001 18.581160 -0.000000 -0.019444 -0.024487 -0.466365
  17 3.917301 22.658875 2.260978 -0.142045 -0.039159 -1.060068
  18 0.000017 31.499046 -0.000021 -0.142045 -0.039159 -1.060068
  19 -0.000011 32.582012 0.000043 -0.148605 -0.257024 -0.768247
  20 0.000001 24.262775 -0.000001 -0.148605 -0.257024 -0.768248
  21 -3.264219 22.877434 2.446455 -0.520929 0.626649 0.716708
  22 -0.000006 31.499041 0.000007 -0.520928 0.626649 0.716708
  23 -0.000013 32.582020 -0.000005 -1.116969 -0.005756 0.506539
  24 0.000012 24.262775 -0.000001 -1.116969 -0.005756 0.506539
  25 0.479016 22.877432 -3.225111 -1.061255 -0.199978 -0.275045
  26 0.000007 31.499039 0.000007 -1.061255 -0.199978 -0.275045
  27 -0.000009 32.582024 0.000003 -0.851880 -0.174579 -0.264107
  28 0.000003 24.262779 -0.000008 -0.851880 -0.174579 -0.264107
  29 18.861868 29.781395 12.096852 -1.549664 -2.536783 -0.135469
  30 0.000011 15.654114 0.000006 -0.003727 0.293004 0.291386
  31 -0.000004 18.581160 -0.000004 -0.071882 0.122665 0.449245
  32 -4.067176 22.808773 2.410880 -0.046534 -0.327113 0.730883
  33 -0.000006 32.306103 0.000021 -0.046534 -0.327113 0.730883
  34 -0.000000 33.416828 -0.000008 0.175790 0.043468 1.313079
  35 0.000002 25.522007 0.000005 0.175790 0.043468 1.313079
  36 3.114333 23.027323 2.596346 0.983200 0.641529 -0.036925
  37 0.000007 32.306095 -0.000009 0.983200 0.641529 -0.036925
  38 -0.000021 33.416832 0.000003 1.222810 0.072418 0.229263
  39 -0.000003 25.521999 0.000009 1.222810 0.072419 0.229263
  40 -0.628898 23.027325 -3.075215 -0.697392 -0.250188 0.177410
  41 -0.000001 32.306095 0.000004 -0.697392 -0.250188 0.177410
  42 0.000004 33.416805 -0.000014 -0.949975 0.212005 0.873083
  43 0.000005 25.522007 0.000004 -0.949975 0.212005 0.873083
  44 -0.000001 40.587612 0.000000 -1.927982 1.137687 -0.025718
  45 -0.000007 58.152210 0.000023 0.660463 2.800284 -0.468792
  46 -0.000021 124.040390 0.000010 -0.936488 -0.376909 -1.354744
  47 0.000022 158.302155 0.000006 -0.642203 -2.195072 0.306193
  48 -0.000004 12.421165 0.000003 -0.378818 -0.001991 -0.076528
  49 12.733308 21.965252 -6.596032 0.607826 -1.476405 -1.008889
  50 -0.000003 14.996464 0.000004 -0.004531 0.000599 -0.061890
  51 -10.850953 19.295532 -1.254960 1.165097 -1.379079 -0.604913
  52 0.000006 11.953226 -0.000008 -0.027997 -0.012196 0.216530
  53 0.592605 23.062981 -4.960670 1.163786 -1.404828 -1.069195
  54 0.000004 7.840446 -0.000005 -0.034926 0.010904 -0.007477
  55 -17.577892 10.771907 1.287349 -0.072017 -3.117532 1.053529
  56 0.000007 9.450204 -0.000002 1.570799 1.399076 1.581944
  57 -0.000001 40.587612 0.000000 -2.352029 -1.151515 0.772863
  58 0.000006 58.166759 0.000026 1.496423 -2.569223 -0.165552
  59 0.000005 124.040451 -0.000002 -0.966738 0.714890 1.633419
  60 -0.000039 158.302200 0.000010 -0.271338 2.195072 -0.306193
  61 0.000003 12.421161 0.000004 -0.007952 0.001991 0.076528
  62 -12.733315 21.965261 -6.596046 1.163420 1.374255 1.569416
  63 -0.000004 14.996469 0.000001 -0.004571 -0.000021 0.188695
  64 10.850965 19.295549 -1.254939 1.323464 1.258579 0.768127
  65 0.000008 11.953225 -0.000004 -0.026230 0.015639 -0.089758
  66 -0.592624 23.063002 -4.960661 1.337499 1.283994 1.247109
  67 0.000002 7.840446 0.000001 -0.036024 -0.006401 0.134208
  68 17.577906 10.771978 1.287400 -0.074477 3.126823 -1.180019
  69 0.000001 9.450208 -0.000002 1.570800 -1.525881 -1.581946
  70 30.706036 25.966095 28.162127 0.599090 0.090995 -3.110733
  71 -0.000002 21.459728 -0.000004 0.861927 0.000002 -0.000004
  72 0.000011 53.415680 -0.000004 -1.352989 0.243620 -0.020869
  73 -0.000004 41.685047 0.000004 -0.935060 -0.027138 0.035090
  74 -30.706657 25.982725 28.162113 0.767510 0.513474 -2.948310
  75 -0.000002 21.459730 -0.000001 1.503837 0.000002 -0.000001
  76 -0.000000 53.415672 0.000002 -1.030703 -0.108447 0.034946
  77 0.000010 41.685055 -0.000011 -1.063712 -0.137598 0.058575
  78 30.688993 -36.950359 49.621838 -3.141593 -0.000000 -0.000271
  79 -30.723696 -36.933731 49.621830 -3.141593 -0.000000 -0.000271
  80 25.511885 2.220011 93.086548 -0.000000 -0.000000 -0.000271
  81 -61.221996 39.360241 76.709885 0.000000 -0.000000 -0.000271
  82 3.257178 -83.615295 -120.727753 -0.370866 -1.570796 0.000000
  83 -0.000000 16.827707 -0.000006 -0.000000 -0.000000 -0.164758
  84 3.257196 -83.615311 120.816299 -0.000000 -1.570796 0.000000
  85 -0.000002 16.827730 0.000001 0.000000 0.000000 0.291565
  time 8
  0 18.195469 -0.072209 345.967377 1.570796 -0.000000 3.141593
  1 84.992706 -174.724701 -206.737198 -1.570796 -1.570796 0.000000
  2 199.560715 -105.969543 -20.846836 -1.570796 -1.570796 0.000000
  3 -43.363525 -276.123169 162.789734 -1.570796 -1.570796 0.000000
  4 160.827225 -230.111023 149.197037 -1.570796 -1.570796 0.000000
  5 -35.647125 -342.921143 0.051621 -1.570796 1.570796 0.000000
  6 -0.000001 -24.555782 -0.000000 1.452709 -0.039771 3.138594
  7 0.000000 32.302849 0.000004 -0.050040 -0.142047 0.023038
  8 -0.000005 34.389362 0.000003 0.091340 -0.016360 -0.018125
  9 -0.000005 27.110138 0.000003 0.170103 0.121893 -0.231237
  10 0.000004 38.788418 -0.000002 0.262623 0.029916 -0.022558
  11 0.000006 40.587616 -0.000003 0.277682 -0.051211 -0.136896
  12 0.000007 24.940531 0.000007 -0.162680 0.003273 0.085534
  13 -0.000006 17.791595 -0.000010 -0.631664 0.146321 -0.197769
  14 -18.960352 29.781378 12.096859 -1.421007 2.517866 0.317111
  15 -0.000003 15.654116 -0.000002 0.026703 -0.146420 -0.321863
  16 -0.000005 18.581161 -0.000004 -0.046082 0.021466 -0.489278
  17 4.067179 22.808764 2.410886 -0.120267 0.039147 -0.991884
  18 0.000002 32.306107 0.000021 -0.120268 0.039147 -0.991885
  19 -0.000000 33.416828 0.000000 -0.123306 -0.182647 -0.708643
  20 -0.000009 25.522005 0.000007 -0.123306 -0.182647 -0.708643
  21 -3.114328 23.027325 2.596377 -0.417008 0.644781 0.773914
  22 -0.000014 32.306099 -0.000006 -0.417008 0.644781 0.773914
  23 -0.000010 33.416821 0.000004 -1.030307 0.045392 0.520444
  24 0.000015 25.522009 -0.000006 -1.030307 0.045392 0.520444
  25 0.628897 23.027325 -3.075189 -1.002567 -0.120418 -0.258033
  26 0.000002 32.306091 -0.000007 -1.002567 -0.120418 -0.258033
  27 -0.000001 33.416809 0.000009 -0.794075 -0.096423 -0.237875
  28 0.000005 25.522005 -0.000006 -0.794075 -0.096423 -0.237875
  29 18.861862 29.781391 12.096853 -1.550989 -2.536701 -0.152121
  30 -0.000001 15.654114 0.000006 -0.014378 0.279314 0.291893
  31 0.000002 18.581156 0.000012 -0.082510 0.109040 0.450672
  32 -4.067184 22.808779 2.410878 -0.036695 -0.326618 0.717720
  33 -0.000009 32.306091 0.000016 -0.036695 -0.326618 0.717719
  34 0.000008 33.416821 -0.000001 0.184272 0.047154 1.306803
  35 0.000005 25.522003 -0.000001 0.184272 0.047154 1.306804
  36 3.114329 23.027323 2.596353 0.976156 0.634523 -0.033516
  37 0.000006 32.306087 -0.000018 0.976156 0.634523 -0.033515
  38 0.000015 33.416828 0.000006 1.205315 0.076527 0.228990
  39 0.000002 25.521999 0.000011 1.205315 0.076528 0.228990
  40 -0.628898 23.027327 -3.075220 -0.683573 -0.257620 0.177796
  41 -0.000007 32.306095 0.000012 -0.683573 -0.257620 0.177796
  42 -0.000001 33.416813 -0.000012 -0.949478 0.199406 0.866823
  43 0.000005 25.522013 -0.000001 -0.949478 0.199406 0.866823
  44 0.000006 40.587616 -0.000003 -1.927982 1.137687 -0.025719
  45 0.000003 58.152199 -0.000011 0.659964 2.820368 -0.529212
  46 -0.000014 124.040337 0.000018 -0.940620 -0.394970 -1.369026
  47 -0.000005 158.302124 -0.000024 -0.642203 -2.195071 0.306193
  48 0.000005 12.421141 0.000009 -0.378818 -0.001991 -0.076528
  49 12.733315 21.965237 -6.596031 0.607830 -1.476405 -1.008894
  50 -0.000006 14.996457 -0.000001 -0.004531 0.000599 -0.061890
  51 -10.850991 19.295540 -1.254969 1.165098 -1.379079 -0.604914
  52 0.000000 11.953217 0.000002 -0.027997 -0.012196 0.216530
  53 0.592615 23.062981 -4.960696 1.163788 -1.404828 -1.069196
  54 -0.000001 7.840435 0.000006 -0.034926 0.010904 -0.007477
  55 -17.577854 10.771927 1.287389 -0.072017 -3.117532 1.053529
  56 -0.000007 9.450213 -0.000018 1.570800 1.399076 1.581942
  57 0.000006 40.587616 -0.000003 -2.378661 -1.161302 0.763672
  58 0.000005 58.166763 -0.000009 1.432608 -2.605855 -0.126481
  59 0.000016 124.040413 -0.000009 -0.969080 0.674508 1.597242
  60 -0.000001 158.302124 -0.000009 -0.271337 2.195071 -0.306193
  61 0.000002 12.421151 -0.000000 -0.007952 0.001991 0.076528
  62 -12.733318 21.965275 -6.596015 1.163420 1.374255 1.569416
  63 0.000003 14.996465 -0.000004 -0.004571 -0.000021 0.188695
  64 10.850958 19.295551 -1.254953 1.323464 1.258579 0.768127
  65 0.000003 11.953218 0.000005 -0.026230 0.015639 -0.089758
  66 -0.592635 23.062969 -4.960660 1.337499 1.283995 1.247109
  67 -0.000009 7.840445 0.000001 -0.036024 -0.006401 0.134208
  68 17.577883 10.771967 1.287363 -0.074476 3.126824 -1.180019
  69 -0.000003 9.450208 -0.000003 1.570799 -1.525882 -1.581946
  70 30.706038 25.966082 28.162119 0.607795 0.036617 -3.129365
  71 0.000003 21.459730 0.000006 0.960047 0.000002 -0.000004
  72 0.000009 53.415680 0.000005 -1.306890 0.243924 -0.007956
  73 0.000001 41.685059 0.000004 -0.905334 -0.030024 0.031177
  74 -30.706673 25.982712 28.162117 0.752128 0.507611 -2.950987
  75 -0.000010 21.459730 -0.000001 1.545859 0.000000 0.000000
  76 -0.000009 53.415710 0.000009 -1.249787 -0.103863 0.022790
  77 0.000005 41.685051 0.000002 -1.023627 -0.142627 0.057084
  78 30.689009 -36.950367 49.621841 -3.141593 0.000000 -0.000271
  79 -30.723696 -36.933743 49.621841 -3.141593 0.000000 -0.000271
  80 28.519264 8.163764 93.786858 0.000000 0.000000 -0.000271
  81 -60.507339 40.435791 75.845551 0.000000 -0.000000 -0.000271
  82 3.257178 -83.615295 -120.727753 -0.370866 -1.570796 0.000000
  83 -0.000000 16.827707 -0.000006 -0.000000 -0.000000 -0.164758
  84 3.257196 -83.615311 120.816299 -0.000000 -1.570796 0.000000
  85 -0.000002 16.827730 0.000001 0.000000 0.000000 0.291565
  time 9
  0 18.195469 -0.072209 345.967377 1.570796 -0.000000 3.141593
  1 82.921295 -173.592377 -205.708130 -1.570796 -1.570796 0.000000
  2 199.560715 -90.240807 29.273632 -1.570796 -1.570796 0.000000
  3 -47.582546 -304.829437 145.433044 -1.570796 -1.570796 0.000000
  4 160.827225 -242.599121 169.183258 -1.570796 -1.570796 0.000000
  5 -35.647125 -342.921143 0.051621 -1.570796 1.570796 0.000000
  6 -0.000001 -24.555782 -0.000000 1.377431 -0.039884 -3.141593
  7 -0.000001 32.302849 0.000003 -0.017345 -0.137007 -0.010277
  8 -0.000003 34.389362 -0.000000 0.142854 -0.014418 -0.025983
  9 -0.000008 27.110146 0.000004 0.236022 0.128702 -0.182354
  10 0.000013 38.788406 0.000005 0.262623 0.029916 -0.022558
  11 0.000007 40.587612 0.000002 0.277682 -0.051211 -0.136896
  12 0.000008 24.940542 -0.000001 -0.125248 0.088827 0.286369
  13 0.000001 17.791578 0.000002 -0.632071 0.147212 -0.198100
  14 -18.960371 29.781395 12.096862 -1.436392 2.547048 0.197032
  15 -0.000004 15.654127 -0.000004 0.072586 -0.241786 -0.283041
  16 -0.000008 18.581161 -0.000012 0.006191 -0.071023 -0.444635
  17 4.067184 22.808764 2.410880 -0.035831 0.077875 -0.778547
  18 -0.000002 32.306095 0.000010 -0.035831 0.077875 -0.778547
  19 0.000006 33.416832 0.000009 -0.096577 -0.197484 -0.497371
  20 0.000003 25.522007 0.000010 -0.096577 -0.197484 -0.497371
  21 -3.114332 23.027325 2.596347 -0.372930 0.640976 0.644000
  22 -0.000004 32.306091 0.000022 -0.372930 0.640976 0.644001
  23 0.000003 33.416824 -0.000005 -0.713658 0.014730 0.448993
  24 0.000004 25.522011 -0.000007 -0.713658 0.014730 0.448993
  25 0.628903 23.027323 -3.075199 -0.936393 -0.086494 -0.232968
  26 0.000004 32.306099 0.000012 -0.936393 -0.086494 -0.232968
  27 0.000003 33.416809 -0.000006 -0.722775 -0.091659 -0.207980
  28 -0.000003 25.522015 0.000005 -0.722775 -0.091659 -0.207980
  29 18.861860 29.781397 12.096858 -1.565908 -2.534487 -0.342517
  30 0.000004 15.654113 0.000006 -0.134737 0.123676 0.307977
  31 0.000004 18.581160 0.000008 -0.205249 -0.045137 0.477176
  32 -4.067179 22.808767 2.410890 0.074457 -0.312336 0.568437
  33 -0.000005 32.306103 0.000007 0.074457 -0.312336 0.568437
  34 -0.000004 33.416821 0.000004 0.279515 0.092877 1.237391
  35 0.000006 25.522007 0.000003 0.279515 0.092877 1.237391
  36 3.114329 23.027309 2.596355 0.896030 0.556013 0.008382
  37 0.000006 32.306103 0.000001 0.896030 0.556013 0.008381
  38 0.000000 33.416832 -0.000005 1.004748 0.122795 0.220768
  39 0.000006 25.522017 -0.000004 1.004748 0.122795 0.220767
  40 -0.628898 23.027327 -3.075217 -0.523554 -0.342472 0.174536
  41 -0.000001 32.306080 0.000001 -0.523554 -0.342472 0.174536
  42 0.000010 33.416817 0.000001 -0.938276 0.055893 0.795482
  43 -0.000003 25.522020 0.000003 -0.938276 0.055894 0.795482
  44 0.000007 40.587612 0.000002 -1.927982 1.137687 -0.025718
  45 0.000002 58.152218 0.000011 0.684438 2.848428 -0.530995
  46 -0.000004 124.040390 0.000029 -0.942201 -0.402194 -1.374732
  47 0.000025 158.302155 -0.000030 -0.642203 -2.195071 0.306193
  48 0.000013 12.421155 0.000006 -0.378818 -0.001991 -0.076528
  49 12.733325 21.965244 -6.596027 0.607827 -1.476405 -1.008891
  50 0.000020 14.996462 0.000008 -0.004531 0.000599 -0.061890
  51 -10.850963 19.295534 -1.255004 1.165097 -1.379079 -0.604914
  52 0.000004 11.953220 -0.000009 -0.027997 -0.012196 0.216530
  53 0.592598 23.062975 -4.960656 1.163787 -1.404828 -1.069196
  54 -0.000000 7.840438 -0.000003 -0.034926 0.010904 -0.007477
  55 -17.577883 10.771934 1.287399 -0.072017 -3.117532 1.053529
  56 0.000002 9.450196 0.000001 1.570800 1.399076 1.581943
  57 0.000007 40.587612 0.000002 -2.413166 -1.173771 0.752153
  58 0.000003 58.166771 -0.000013 1.543367 -2.592060 -0.343061
  59 -0.000008 124.040459 -0.000011 -0.969079 0.612848 1.544332
  60 0.000000 158.302216 -0.000034 -0.271338 2.195071 -0.306193
  61 0.000003 12.421150 0.000008 -0.007952 0.001991 0.076528
  62 -12.733302 21.965271 -6.596059 1.163420 1.374255 1.569416
  63 -0.000005 14.996471 0.000008 -0.004571 -0.000021 0.188695
  64 10.850975 19.295576 -1.254937 1.323465 1.258579 0.768127
  65 -0.000010 11.953218 0.000002 -0.026230 0.015639 -0.089758
  66 -0.592618 23.063019 -4.960653 1.337499 1.283994 1.247109
  67 -0.000002 7.840440 -0.000001 -0.036024 -0.006400 0.134208
  68 17.577888 10.771925 1.287354 -0.074477 3.126824 -1.180020
  69 0.000008 9.450210 0.000002 1.570799 -1.525881 -1.581943
  70 30.706045 25.966097 28.162117 0.646620 0.150119 -3.090248
  71 0.000001 21.459732 -0.000004 0.695617 0.000001 -0.000002
  72 0.000008 53.415672 -0.000003 -0.777072 0.206442 0.134175
  73 -0.000008 41.685043 0.000012 -0.563311 -0.054172 -0.018854
  74 -30.706682 25.982700 28.162119 0.722240 0.427682 -2.985759
  75 -0.000011 21.459732 0.000005 1.881002 -0.000001 0.000001
  76 0.000005 53.415691 0.000004 -0.811545 -0.115549 0.045816
  77 0.000002 41.685051 -0.000004 -0.558311 -0.194084 0.025933
  78 30.689020 -36.950367 49.621841 -3.141593 0.000000 -0.000271
  79 -30.723686 -36.933750 49.621838 -3.141593 0.000000 -0.000271
  80 22.504522 -3.723780 92.386292 0.000000 0.000000 -0.000271
  81 -52.358093 52.700352 65.989471 0.000000 -0.000000 -0.000271
  82 3.257178 -83.615295 -120.727753 -0.370866 -1.570796 0.000000
  83 -0.000000 16.827707 -0.000006 -0.000000 -0.000000 -0.164758
  84 3.257196 -83.615311 120.816299 -0.000000 -1.570796 0.000000
  85 -0.000002 16.827730 0.000001 0.000000 0.000000 0.291565
end
