version 1
nodes
0 "All.005" -1
1 "ForearmIK.L" 0
2 "UpperarmIK.L" 0
3 "ForearmIK.R" 0
4 "UpperarmIK.R" 0
5 "Torso.000" 0
6 "Spine.000" 5
7 "Spine.001" 6
8 "Spine.002" 7
9 "Spine.003" 8
10 "Spine.004" 9
11 "Spine.005" 10
12 "Spine.006" 11
13 "Spine.007" 12
14 "TentclH.L.003" 13
15 "TentclH.L.002" 14
16 "TentclH.L.001" 15
17 "TentclH1.L.000" 16
18 "TentclH1.L.001" 17
19 "TentclH1.L.002" 18
20 "TentclH1.L.003" 19
21 "TentclH2.L.000" 16
22 "TentclH2.L.001" 21
23 "TentclH2.L.002" 22
24 "TentclH2.L.003" 23
25 "TentclH3.L.000" 16
26 "TentclH3.L.001" 25
27 "TentclH3.L.002" 26
28 "TentclH3.L.003" 27
29 "TentclH.R.003" 13
30 "TentclH.R.002" 29
31 "TentclH.R.001" 30
32 "TentclH1.R.000" 31
33 "TentclH1.R.001" 32
34 "TentclH1.R.002" 33
35 "TentclH1.R.003" 34
36 "TentclH2.R.000" 31
37 "TentclH2.R.001" 36
38 "TentclH2.R.002" 37
39 "TentclH2.R.003" 38
40 "TentclH3.R.000" 31
41 "TentclH3.R.001" 40
42 "TentclH3.R.002" 41
43 "TentclH3.R.003" 42
44 "Arm.L.001" 10
45 "Arm.L.002" 44
46 "Arm.L.005" 45
47 "Arm.L.006" 46
48 "Arm.L.007" 47
49 "Finger.L.004" 48
50 "Finger.L.005" 49
51 "Finger.L.001" 48
52 "Finger.L.000" 51
53 "Finger.L.002" 48
54 "Finger.L.003" 53
55 "Finger.L.006" 47
56 "Finger.L.007" 55
57 "Arm.R.001" 10
58 "Arm.R.002" 57
59 "Arm.R.005" 58
60 "Arm.R.006" 59
61 "Arm.R.007" 60
62 "Finger.R.004" 61
63 "Finger.R.005" 62
64 "Finger.R.001" 61
65 "Finger.R.000" 64
66 "Finger.R.002" 61
67 "Finger.R.003" 66
68 "Finger.R.006" 60
69 "Finger.R.007" 68
70 "TentclB.R.000" 8
71 "TentclB.R.001" 70
72 "TentclB.R.002" 71
73 "TentclB.R.003" 72
74 "TentclB.L.000" 8
75 "TentclB.L.001" 74
76 "TentclB.L.002" 75
77 "TentclB.L.003" 76
78 "UpperTent.R.000" 8
79 "UpperTent.L.000" 8
80 "TentcBIK.R.000" 8
81 "TentcBIK.L.000" 8
82 "HndCtrl.L.000" 0
83 "HndCtrl.L.001" 82
84 "HndCtrl.R.000" 0
85 "HndCtrl.R.001" 84
end
skeleton
  time 0
  0 18.195469 -0.072209 345.967377 1.570796 -0.000000 3.141593
  1 -130.503693 -173.592377 -205.708130 -1.570796 -1.570796 0.000000
  2 85.048050 -164.074646 -169.551987 -1.570796 -1.570796 0.000000
  3 -104.450890 -293.820526 160.821426 -1.570796 -1.570796 0.000000
  4 160.827225 -242.599121 169.183258 -1.570796 -1.570796 0.000000
  5 -35.647125 -342.921143 0.051621 -1.570796 1.570796 0.000000
  6 -0.000001 -24.555782 -0.000000 1.508322 -0.039543 3.136389
  7 -0.000001 32.302841 0.000004 -0.017904 -0.124162 -0.075878
  8 -0.000000 34.389362 0.000001 -0.087006 -0.013881 0.142519
  9 -0.000001 27.110130 0.000005 -0.067137 0.030863 0.040820
  10 -0.000004 38.788414 0.000003 0.273588 -0.002495 0.098955
  11 0.000004 40.587631 -0.000001 0.277682 -0.051211 -0.136896
  12 -0.000003 24.940536 0.000003 -0.307020 0.170365 0.279750
  13 -0.000001 17.791594 0.000004 -0.632070 0.147212 -0.198100
  14 -18.960360 29.781374 12.096849 -1.468410 2.790587 -0.069847
  15 -0.000007 15.654128 0.000012 0.068649 -0.469468 -0.013602
  16 -0.000012 18.581144 -0.000011 0.049152 -0.287469 -0.178345
  17 4.067186 22.808762 2.410891 -0.035831 0.077874 -0.778547
  18 0.000011 32.306072 -0.000009 -0.035832 0.077875 -0.778547
  19 0.000015 33.416828 -0.000004 -0.096577 -0.197484 -0.497371
  20 0.000004 25.522011 0.000001 -0.096577 -0.197484 -0.497371
  21 -3.114326 23.027308 2.596339 -0.372930 0.640976 0.644000
  22 -0.000004 32.306095 0.000005 -0.372930 0.640976 0.644000
  23 -0.000001 33.416824 0.000005 -0.713658 0.014729 0.448993
  24 -0.000006 25.521994 0.000017 -0.713658 0.014730 0.448994
  25 0.628904 23.027309 -3.075225 -0.936393 -0.086494 -0.232969
  26 0.000000 32.306080 0.000006 -0.936393 -0.086494 -0.232968
  27 0.000007 33.416824 -0.000006 -0.722775 -0.091660 -0.207980
  28 0.000004 25.522003 0.000000 -0.722775 -0.091660 -0.207980
  29 18.861862 29.781382 12.096849 -1.432621 -2.830405 -0.408550
  30 0.000001 15.654118 0.000000 -0.050923 0.015949 0.025327
  31 -0.000002 18.581160 -0.000005 -0.072030 -0.165733 0.198891
  32 -4.067187 22.808764 2.410896 0.074457 -0.312336 0.568437
  33 -0.000004 32.306095 -0.000002 0.074457 -0.312336 0.568437
  34 0.000002 33.416828 0.000002 0.279515 0.092877 1.237391
  35 0.000000 25.521999 0.000014 0.279515 0.092877 1.237391
  36 3.114319 23.027313 2.596350 0.896030 0.556013 0.008381
  37 -0.000004 32.306099 -0.000001 0.896030 0.556013 0.008381
  38 0.000000 33.416798 0.000020 1.004748 0.122795 0.220767
  39 0.000006 25.522003 -0.000009 1.004748 0.122795 0.220767
  40 -0.628915 23.027309 -3.075219 -0.523554 -0.342472 0.174536
  41 0.000002 32.306095 0.000009 -0.523554 -0.342472 0.174536
  42 0.000000 33.416824 0.000000 -0.938276 0.055893 0.795482
  43 0.000018 25.522013 0.000004 -0.938276 0.055893 0.795482
  44 0.000004 40.587631 -0.000001 -1.439854 1.455767 0.175890
  45 0.000002 58.152206 0.000023 0.158104 2.788159 0.319734
  46 -0.000017 124.040398 -0.000011 -0.901531 -0.254439 -1.256578
  47 -0.000021 158.302139 -0.000053 -0.642204 -2.195071 0.306193
  48 0.000008 12.421162 -0.000008 -0.378818 -0.001991 -0.076528
  49 12.733303 21.965218 -6.596117 0.607829 -1.476405 -1.008893
  50 0.000021 14.996465 0.000005 -0.004532 0.000599 -0.061890
  51 -10.850956 19.295544 -1.254965 1.165098 -1.379079 -0.604915
  52 0.000009 11.953211 -0.000011 -0.027997 -0.012196 0.216530
  53 0.592627 23.062967 -4.960665 1.163788 -1.404828 -1.069197
  54 0.000020 7.840435 -0.000004 -0.034926 0.010904 -0.007477
  55 -17.577902 10.771946 1.287327 -0.072017 -3.117532 1.053529
  56 -0.000003 9.450199 0.000003 1.570796 1.399076 1.581940
  57 0.000004 40.587631 -0.000001 -2.477349 -1.183398 0.714154
  58 0.000001 58.166759 -0.000014 1.476653 -2.705084 -0.513990
  59 -0.000006 124.040466 -0.000011 -0.877237 0.187819 1.201226
  60 0.000018 158.302185 -0.000026 -0.271337 2.195071 -0.306193
  61 -0.000004 12.421153 -0.000004 -0.007952 0.001991 0.076528
  62 -12.733338 21.965254 -6.596087 1.163421 1.374255 1.569417
  63 -0.000000 14.996466 -0.000005 -0.004571 -0.000021 0.188695
  64 10.850955 19.295563 -1.254958 1.323464 1.258579 0.768127
  65 -0.000006 11.953220 -0.000004 -0.026230 0.015639 -0.089758
  66 -0.592638 23.063030 -4.960670 1.337499 1.283995 1.247109
  67 0.000016 7.840440 -0.000005 -0.036024 -0.006400 0.134208
  68 17.577862 10.771928 1.287333 -0.074476 3.126824 -1.180019
  69 0.000011 9.450207 0.000009 1.570802 -1.525881 -1.581948
  70 30.706041 25.966084 28.162125 0.720198 0.399521 -2.997342
  71 0.000004 21.459730 0.000005 0.700715 0.000002 -0.000005
  72 -0.000005 53.415741 0.000013 -1.164606 -0.152174 -0.064487
  73 0.000000 41.685051 0.000019 -1.096785 -0.109469 0.086184
  74 -30.706671 25.982716 28.162104 -1.705495 2.621064 0.196527
  75 -0.000003 21.459736 0.000006 1.626535 0.000001 -0.000001
  76 0.000011 53.415703 -0.000005 -0.811545 -0.115549 0.045816
  77 0.000001 41.685066 0.000011 -0.558311 -0.194084 0.025933
  78 30.689003 -36.950359 49.621838 -3.141593 -0.000000 -0.000271
  79 -30.723705 -36.933731 49.621826 -3.141593 -0.000000 -0.000271
  80 8.392376 -1.634803 89.856712 0.000000 -0.000000 -0.000271
  81 -52.968285 72.901550 50.266151 0.000000 -0.000001 -0.000271
  82 3.257178 -83.615295 -120.727753 -0.370866 -1.570796 0.000000
  83 -0.000000 16.827707 -0.000006 -0.000000 -0.000000 -0.164758
  84 3.257196 -83.615311 120.816299 -0.000000 -1.570796 0.000000
  85 -0.000002 16.827730 0.000001 0.000000 0.000000 0.291565
  time 1
  0 18.195469 -0.072209 345.967377 1.570796 -0.000000 3.141593
  1 -103.220512 -147.820908 -205.708130 -1.570796 -1.570796 0.000000
  2 85.048035 -155.810181 -135.802185 -1.570796 -1.570796 0.000000
  3 -128.701294 -275.511749 166.371002 -1.570796 -1.570796 0.000000
  4 -62.219765 -245.454315 145.392212 -1.570796 -1.570796 0.000000
  5 -35.647125 -342.921143 0.051621 -1.570796 1.570796 0.000000
  6 -0.000001 -24.555782 -0.000000 1.441828 0.006622 -3.141041
  7 -0.000003 32.302845 -0.000001 -0.017586 -0.130305 -0.064226
  8 0.000001 34.389359 -0.000002 0.050904 -0.053783 0.233688
  9 0.000001 27.110140 0.000004 0.051239 0.071941 -0.103201
  10 0.000001 38.788414 0.000002 0.273588 -0.002495 0.098955
  11 -0.000001 40.587605 0.000004 0.277682 -0.051211 -0.136896
  12 0.000001 24.940538 0.000006 -0.071312 0.129491 0.521352
  13 -0.000003 17.791573 0.000002 -0.627934 0.152086 -0.155624
  14 -18.960375 29.781370 12.096861 -1.558793 2.826316 -0.036423
  15 -0.000005 15.654119 -0.000002 -0.049303 -0.436213 0.024413
  16 -0.000001 18.581163 -0.000008 -0.061500 -0.253678 -0.143423
  17 4.067184 22.808773 2.410920 -0.051877 0.052928 -0.388750
  18 -0.000006 32.306107 -0.000006 -0.051877 0.052928 -0.388750
  19 0.000002 33.416832 0.000017 -0.005750 -0.208209 -0.070321
  20 -0.000005 25.522005 -0.000020 -0.005750 -0.208209 -0.070321
  21 -3.114328 23.027325 2.596370 -0.240332 0.593176 0.430781
  22 0.000002 32.306118 0.000000 -0.240331 0.593177 0.430781
  23 -0.000018 33.416828 -0.000006 -0.125311 0.190066 0.256277
  24 -0.000015 25.522022 0.000006 -0.125311 0.190066 0.256277
  25 0.628901 23.027325 -3.075191 -0.486219 -0.172587 -0.128959
  26 0.000000 32.306099 0.000007 -0.486220 -0.172587 -0.128959
  27 0.000010 33.416813 -0.000002 -0.379681 -0.198865 -0.194556
  28 0.000015 25.522015 -0.000000 -0.379682 -0.198865 -0.194556
  29 18.861851 29.781368 12.096851 -1.389072 -2.565983 -0.449307
  30 0.000002 15.654121 0.000011 -0.018723 0.030982 0.291927
  31 0.000005 18.581169 -0.000007 -0.087114 -0.138717 0.467603
  32 -4.067199 22.808764 2.410873 0.192285 -0.231341 0.324699
  33 -0.000005 32.306099 -0.000007 0.192285 -0.231341 0.324699
  34 0.000015 33.416832 0.000007 0.317856 0.203398 0.841922
  35 -0.000011 25.522013 -0.000003 0.317856 0.203397 0.841923
  36 3.114323 23.027325 2.596362 0.755254 0.520294 0.256186
  37 0.000004 32.306103 -0.000002 0.755253 0.520294 0.256186
  38 0.000013 33.416813 0.000011 0.664258 0.349158 0.114649
  39 0.000008 19.972765 0.000016 0.664258 0.349156 0.114649
  40 -0.628900 23.027327 -3.075208 -0.243027 -0.419089 0.152541
  41 0.000009 32.306099 0.000002 -0.243027 -0.419089 0.152541
  42 0.000007 33.416821 -0.000003 -0.766989 -0.176347 0.555534
  43 0.000014 25.521992 -0.000016 -0.766988 -0.176347 0.555533
  44 -0.000001 40.587605 0.000004 -1.439854 1.455767 0.175889
  45 -0.000006 58.152199 -0.000015 0.185825 3.063142 0.088115
  46 -0.000022 124.040428 0.000016 -0.943206 -0.406895 -1.378446
  47 0.000021 158.302063 -0.000005 -0.642203 -2.195072 0.306192
  48 -0.000003 12.421146 -0.000008 -0.378818 -0.001991 -0.076528
  49 12.733304 21.965267 -6.596075 -1.145889 -1.381993 0.753612
  50 -0.000005 14.996456 0.000008 -0.004281 0.001601 0.164482
  51 -10.850976 19.295570 -1.254930 -0.584206 -1.480521 1.152930
  52 0.000004 11.953228 0.000005 -0.030019 -0.005603 0.442818
  53 0.592612 23.062979 -4.960650 -0.843788 -1.472237 0.945802
  54 0.000002 7.840442 -0.000014 -0.031589 0.018464 0.218796
  55 -17.577875 10.771945 1.287384 -0.064795 -3.101992 0.827572
  56 0.000000 9.450206 -0.000009 1.570797 1.172702 1.581942
  57 -0.000001 40.587605 0.000004 -2.477349 -1.183398 0.714154
  58 -0.000002 58.166775 0.000012 1.222442 -2.810676 -0.593355
  59 -0.000017 124.040436 -0.000007 -0.882279 0.200801 1.212169
  60 0.000058 158.302231 0.000003 -0.271337 2.195071 -0.306193
  61 -0.000004 12.421164 -0.000002 -0.007952 0.001991 0.076527
  62 -12.733330 21.965296 -6.596097 -1.365057 1.182380 -0.981028
  63 -0.000004 14.996472 0.000003 -0.003857 -0.002453 -0.373122
  64 10.850958 19.295563 -1.254952 -1.283947 1.301771 -1.860582
  65 -0.000008 11.953228 -0.000004 -0.030529 -0.000736 -0.651364
  66 -0.592623 23.063005 -4.960683 -1.339788 1.281123 -1.448691
  67 0.000010 7.840441 0.000001 -0.027081 -0.024605 -0.427396
  68 17.577904 10.771983 1.287345 -0.055199 3.089436 -0.619088
  69 0.000004 9.450208 0.000018 1.570796 -0.964060 -1.581940
  70 30.706045 25.966082 28.162127 0.307989 0.393188 -2.999903
  71 0.000002 21.459724 0.000007 1.746288 0.000008 -0.000007
  72 0.000002 53.415695 -0.000006 -1.029556 -0.135755 -0.061663
  73 0.000006 41.685036 0.000005 -0.907217 -0.123435 0.093387
  74 -30.706669 25.982716 28.162113 -1.671549 2.475705 0.270992
  75 -0.000003 21.459736 0.000004 1.528427 -0.000000 0.000000
  76 0.000011 53.415688 -0.000007 -0.970004 -0.066789 0.081746
  77 0.000013 41.685055 0.000005 -0.805063 -0.160186 0.072238
  78 30.688999 -36.950371 49.621841 -3.141593 -0.000000 -0.000271
  79 -30.723707 -36.933735 49.621838 -3.141593 -0.000000 -0.000271
  80 9.683218 27.390268 77.851913 -0.000000 0.000000 -0.000271
  81 -61.523914 70.050934 50.942795 0.000000 -0.000000 -0.000271
  82 3.257178 -83.615295 -120.727753 -0.370866 -1.570796 0.000000
  83 -0.000000 16.827707 -0.000006 -0.000000 -0.000000 0.061615
  84 3.257196 -83.615311 120.816299 -0.000000 -1.570796 0.000000
  85 -0.000002 16.827730 0.000001 -0.000000 0.000000 -0.270257
  time 2
  0 18.195469 -0.072209 345.967377 1.570796 -0.000000 3.141593
  1 -132.896347 -175.852478 -205.708130 -1.570796 -1.570796 0.000000
  2 85.048035 -156.476517 -138.523331 -1.570796 -1.570796 0.000000
  3 -126.746056 -276.987946 165.923569 -1.570796 -1.570796 0.000000
  4 -44.236214 -245.224106 147.310394 -1.570796 -1.570796 0.000000
  5 -35.647125 -342.921143 0.051621 -1.570796 1.570796 0.000000
  6 -0.000001 -24.555782 -0.000000 1.447177 0.002888 -3.141391
  7 -0.000005 32.302849 0.000000 -0.017736 -0.127233 -0.070053
  8 -0.000005 34.389362 0.000001 -0.017648 -0.032251 0.188757
  9 -0.000004 27.110134 0.000004 -0.077732 0.028095 0.053608
  10 0.000002 38.788418 0.000001 0.273588 -0.002495 0.098955
  11 -0.000002 40.587620 -0.000002 0.277682 -0.051211 -0.136896
  12 0.000001 24.940542 -0.000002 -0.089741 0.134827 0.502441
  13 -0.000004 17.791580 -0.000001 -0.623589 0.156781 -0.113098
  14 -18.960365 29.781384 12.096861 -1.551503 2.823544 -0.039226
  15 0.000001 15.654121 0.000002 -0.039920 -0.439039 0.021536
  16 0.000004 18.581156 -0.000014 -0.052667 -0.256537 -0.146080
  17 4.067187 22.808765 2.410893 -0.050246 0.054677 -0.419973
  18 -0.000002 32.306091 0.000002 -0.050246 0.054677 -0.419973
  19 0.000004 33.416832 0.000004 -0.012764 -0.205962 -0.104457
  20 -0.000004 25.522017 0.000001 -0.012764 -0.205962 -0.104457
  21 -3.114328 23.027319 2.596358 -0.251254 0.596150 0.447926
  22 -0.000000 32.306095 0.000008 -0.251254 0.596150 0.447926
  23 -0.000014 33.416821 0.000002 -0.171161 0.172392 0.267565
  24 0.000015 25.522013 -0.000010 -0.171161 0.172391 0.267565
  25 0.628901 23.027319 -3.075212 -0.522046 -0.164096 -0.135764
  26 -0.000003 32.306087 -0.000000 -0.522046 -0.164096 -0.135764
  27 -0.000006 33.416813 -0.000013 -0.407383 -0.190165 -0.194251
  28 0.000003 25.522005 -0.000002 -0.407383 -0.190165 -0.194251
  29 18.861855 29.781385 12.096857 -1.393289 -2.587174 -0.445299
  30 0.000001 15.654119 0.000003 -0.021448 0.030097 0.270476
  31 0.000000 18.581163 -0.000001 -0.086180 -0.141026 0.446057
  32 -4.067183 22.808765 2.410891 0.183691 -0.238842 0.343724
  33 -0.000008 32.306091 -0.000009 0.183691 -0.238842 0.343724
  34 0.000019 33.416832 0.000003 0.316432 0.194087 0.873714
  35 0.000017 25.521986 0.000025 0.316432 0.194087 0.873714
  36 3.114323 23.027321 2.596343 0.766787 0.522041 0.236283
  37 0.000005 32.306107 0.000004 0.766787 0.522042 0.236283
  38 0.000008 33.416790 0.000000 0.693311 0.332480 0.126357
  39 0.000001 20.420195 0.000009 0.693311 0.332480 0.126357
  40 -0.628886 23.027330 -3.075191 -0.265973 -0.413177 0.155193
  41 -0.000010 32.306095 -0.000010 -0.265973 -0.413177 0.155193
  42 -0.000006 33.416821 -0.000008 -0.782933 -0.159348 0.576474
  43 0.000002 25.522003 -0.000010 -0.782933 -0.159348 0.576474
  44 -0.000002 40.587620 -0.000002 -1.439855 1.455767 0.175889
  45 -0.000001 58.152203 0.000013 -0.026462 2.652558 0.248422
  46 -0.000011 124.040337 0.000010 -0.886744 -0.212640 -1.222078
  47 0.000015 158.302124 -0.000016 -0.642203 -2.195071 0.306192
  48 0.000005 12.421155 0.000006 -0.378818 -0.001991 -0.076528
  49 12.733304 21.965227 -6.596080 -1.373519 -1.165006 0.990203
  50 -0.000009 14.996484 -0.000010 -0.003813 0.002521 0.390854
  51 -10.850962 19.295570 -1.254946 -1.301048 -1.284721 1.878362
  52 0.000004 11.953217 -0.000012 -0.030511 0.001277 0.669088
  53 0.592614 23.063009 -4.960618 -1.352631 -1.263835 1.462127
  54 -0.000003 7.840441 -0.000007 -0.026641 0.025082 0.445128
  55 -17.577888 10.771962 1.287388 -0.054266 -3.088467 0.601356
  56 -0.000010 9.450191 -0.000005 1.570797 0.946328 1.581941
  57 -0.000002 40.587620 -0.000002 -2.477349 -1.183398 0.714154
  58 -0.000002 58.166763 -0.000012 -1.812613 -0.401667 2.489272
  59 -0.000021 124.040428 0.000015 -0.838339 0.098817 1.123527
  60 0.000008 158.302139 0.000011 -0.271337 2.195071 -0.306193
  61 -0.000011 12.421151 -0.000011 -0.007952 0.001991 0.076527
  62 -12.733303 21.965261 -6.596111 -1.339828 1.226030 -0.954009
  63 -0.000005 14.996460 -0.000004 -0.003963 -0.002278 -0.328414
  64 10.850966 19.295559 -1.254982 -1.229313 1.344307 -1.804241
  65 0.000004 11.953225 -0.000007 -0.030531 0.000629 -0.606676
  66 -0.592624 23.062984 -4.960687 -1.299305 1.324436 -1.406720
  67 0.000011 7.840446 -0.000003 -0.028154 -0.023371 -0.382692
  68 17.577881 10.771955 1.287297 -0.057473 3.091954 -0.663783
  69 -0.000001 9.450204 0.000004 1.570796 -1.008768 -1.581941
  70 30.706038 25.966072 28.162127 0.304654 0.393721 -2.999689
  71 0.000003 21.459740 0.000003 1.702054 0.000006 -0.000005
  72 -0.000004 53.415691 0.000009 -0.894741 -0.119861 -0.056645
  73 0.000003 41.685036 0.000003 -0.717389 -0.138499 0.097817
  74 -30.706675 25.982712 28.162121 -1.676571 2.486182 0.265048
  75 -0.000003 21.459732 0.000005 1.538983 -0.000001 0.000002
  76 -0.000004 53.415691 -0.000001 -1.126296 -0.013024 0.109465
  77 -0.000002 41.685043 -0.000002 -1.048660 -0.116238 0.108575
  78 30.689001 -36.950367 49.621838 -3.141593 -0.000000 -0.000271
  79 -30.723698 -36.933746 49.621834 -3.141593 -0.000000 -0.000271
  80 9.579142 25.050074 78.819824 0.000000 0.000000 -0.000271
  81 -60.834106 70.280754 50.888252 0.000000 -0.000000 -0.000271
  82 3.257178 -83.615295 -120.727753 -0.370866 -1.570796 0.000000
  83 -0.000000 16.827707 -0.000006 -0.000000 -0.000000 0.287989
  84 3.257196 -83.615311 120.816299 -0.000000 -1.570796 0.000000
  85 -0.000002 16.827730 0.000001 0.000000 0.000000 -0.225549
  time 3
  0 18.195469 -0.072209 345.967377 1.570796 -0.000000 3.141593
  1 -130.503693 -173.592377 -205.708130 -1.570796 -1.570796 0.000000
  2 85.048050 -164.740982 -172.273132 -1.570796 -1.570796 0.000000
  3 -102.495659 -295.296722 160.373993 -1.570796 -1.570796 0.000000
  4 178.810760 -242.368927 171.101471 -1.570796 -1.570796 0.000000
  5 -35.647125 -342.921143 0.051621 -1.570796 1.570796 0.000000
  6 -0.000001 -24.555782 -0.000000 1.444875 -0.043536 3.138649
  7 -0.000000 32.302856 0.000003 -0.017904 -0.124162 -0.075878
  8 -0.000002 34.389355 0.000002 -0.087006 -0.013881 0.142519
  9 -0.000003 27.110136 0.000003 -0.067137 0.030863 0.040820
  10 -0.000004 38.788406 -0.000003 0.273588 -0.002495 0.098955
  11 -0.000009 40.587608 0.000006 0.277682 -0.051211 -0.136895
  12 -0.000002 24.940536 0.000002 -0.326315 0.171167 0.259988
  13 -0.000010 17.791580 0.000005 -0.627934 0.152086 -0.155624
  14 -18.960365 29.781376 12.096851 -1.461131 2.787586 -0.072408
  15 0.000001 15.654119 0.000008 0.078299 -0.471967 -0.016879
  16 0.000005 18.581160 -0.000004 0.058168 -0.290026 -0.181340
  17 4.067184 22.808752 2.410885 -0.034987 0.080111 -0.809791
  18 -0.000003 32.306107 0.000013 -0.034987 0.080111 -0.809791
  19 0.000002 33.416828 -0.000010 -0.103898 -0.198282 -0.531510
  20 -0.000023 25.521988 0.000019 -0.103898 -0.198283 -0.531510
  21 -3.114322 23.027313 2.596350 -0.383196 0.645797 0.661105
  22 0.000003 32.306099 -0.000016 -0.383196 0.645797 0.661105
  23 -0.000015 33.416832 0.000003 -0.761344 0.006206 0.468048
  24 0.000008 25.522020 -0.000003 -0.761343 0.006206 0.468048
  25 0.628907 23.027308 -3.075220 -0.972538 -0.081769 -0.242739
  26 0.000009 32.306110 0.000002 -0.972538 -0.081769 -0.242739
  27 0.000008 33.416813 0.000008 -0.750185 -0.083365 -0.210634
  28 -0.000003 25.522005 -0.000008 -0.750185 -0.083365 -0.210634
  29 18.861868 29.781385 12.096864 -1.435459 -2.851722 -0.405959
  30 -0.000005 15.654108 -0.000003 -0.053318 0.014377 0.003923
  31 -0.000008 18.581139 -0.000014 -0.070505 -0.167715 0.177222
  32 -4.067177 22.808779 2.410921 0.064020 -0.317593 0.588694
  33 -0.000009 32.306103 0.000012 0.064020 -0.317593 0.588694
  34 -0.000006 33.416843 -0.000001 0.274620 0.084823 1.269030
  35 0.000009 25.521980 0.000014 0.274621 0.084823 1.269030
  36 3.114325 23.027323 2.596368 0.906956 0.560159 -0.011479
  37 -0.000018 32.306087 -0.000015 0.906955 0.560159 -0.011478
  38 0.000013 33.416809 0.000010 1.030439 0.103398 0.225663
  39 0.000004 25.969435 0.000012 1.030439 0.103398 0.225664
  40 -0.628906 23.027321 -3.075198 -0.545674 -0.336119 0.175274
  41 0.000008 32.306095 0.000036 -0.545673 -0.336119 0.175275
  42 0.000022 33.416813 -0.000003 -0.949566 0.076122 0.813015
  43 0.000013 25.521999 -0.000007 -0.949565 0.076122 0.813014
  44 -0.000009 40.587608 0.000006 -1.439853 1.455767 0.175891
  45 -0.000003 58.152237 0.000020 0.124016 2.715524 0.358307
  46 0.000001 124.040398 0.000033 -0.882400 -0.201119 -1.212436
  47 0.000015 158.302109 0.000015 -0.642203 -2.195072 0.306193
  48 0.000003 12.421158 -0.000020 -0.378818 -0.001991 -0.076528
  49 12.733324 21.965248 -6.596018 -1.298582 -1.278904 0.910598
  50 -0.000010 14.996460 0.000011 -0.004081 0.002058 0.273835
  51 -10.850914 19.295553 -1.254894 -1.126858 -1.394800 1.699712
  52 0.000002 11.953220 -0.000006 -0.030451 -0.002293 0.552122
  53 0.592621 23.062965 -4.960652 -1.225279 -1.376476 1.330887
  54 0.000009 7.840437 -0.000004 -0.029386 0.021800 0.328121
  55 -17.577900 10.771942 1.287355 -0.060093 -3.095161 0.718330
  56 -0.000018 9.450191 -0.000015 1.570797 1.063348 1.581941
  57 -0.000009 40.587608 0.000006 -2.477348 -1.183398 0.714153
  58 -0.000004 58.166775 0.000006 -1.666771 -0.451124 2.585380
  59 -0.000011 124.040443 -0.000050 -0.861291 0.149149 1.168090
  60 0.000052 158.302170 0.000012 -0.271337 2.195071 -0.306193
  61 0.000002 12.421150 0.000004 -0.007952 0.001991 0.076528
  62 -12.733315 21.965281 -6.596073 1.236775 1.332555 1.644521
  63 0.000012 14.996473 0.000006 -0.004567 0.000183 0.233403
  64 10.850974 19.295580 -1.254972 1.353157 1.215068 0.799548
  65 0.000007 11.953222 -0.000012 -0.025505 0.016795 -0.045059
  66 -0.592629 23.063004 -4.960691 1.367851 1.240340 1.278958
  67 0.000010 7.840450 -0.000000 -0.036274 -0.004784 0.178888
  68 17.577856 10.771973 1.287350 -0.075061 3.130164 -1.224607
  69 0.000000 9.450193 0.000003 -1.571229 -1.571003 1.559911
  70 30.706045 25.966080 28.162119 0.511541 0.115652 -3.102225
  71 -0.000003 21.459730 0.000015 1.142257 0.000003 -0.000005
  72 0.000005 53.415699 -0.000003 -1.029556 -0.135755 -0.061663
  73 0.000005 41.685028 0.000016 -0.907217 -0.123435 0.093387
  74 -30.706675 25.982714 28.162113 1.214483 0.152167 -3.089534
  75 0.000002 21.459726 -0.000003 1.926620 0.000001 -0.000000
  76 0.000000 53.415672 -0.000008 -0.970003 -0.066788 0.081746
  77 -0.000001 41.685036 0.000001 -0.805063 -0.160185 0.072238
  78 30.689007 -36.950356 49.621834 -3.141593 -0.000000 -0.000271
  79 -30.723705 -36.933727 49.621838 -3.141593 -0.000000 -0.000271
  80 23.919050 11.403409 91.471069 0.000000 0.000000 -0.000271
  81 -36.145046 71.690140 48.067570 0.000000 -0.000000 -0.000271
  82 3.257178 -83.615295 -120.727753 -0.370866 -1.570796 0.000000
  83 -0.000000 16.827707 -0.000006 -0.000000 -0.000000 0.170969
  84 3.257196 -83.615311 120.816299 -0.000000 -1.570796 0.000000
  85 -0.000002 16.827730 0.000001 0.000000 0.000000 0.336273
  time 4
  0 18.195469 -0.072209 345.967377 1.570796 -0.000000 3.141593
  1 -100.827843 -145.560822 -205.708130 -1.570796 -1.570796 0.000000
  2 85.048050 -164.074646 -169.551987 -1.570796 -1.570796 0.000000
  3 -104.450890 -293.820526 160.821426 -1.570796 -1.570796 0.000000
  4 160.827225 -242.599121 169.183258 -1.570796 -1.570796 0.000000
  5 -35.647125 -342.921143 0.051621 -1.570796 1.570796 0.000000
  6 -0.000001 -24.555782 -0.000000 1.445055 -0.039793 3.138898
  7 -0.000002 32.302845 0.000005 -0.017542 -0.124917 -0.074442
  8 0.000002 34.389359 -0.000000 -0.017648 -0.032252 0.188757
  9 -0.000002 27.110134 0.000001 0.061327 0.076341 -0.115595
  10 0.000002 38.788422 -0.000003 0.273588 -0.002495 0.098955
  11 -0.000004 40.587608 0.000002 0.277682 -0.051211 -0.136896
  12 0.000000 24.940546 0.000003 -0.307019 0.170365 0.279750
  13 -0.000008 17.791569 0.000000 -0.632071 0.147212 -0.198100
  14 -18.960360 29.781391 12.096865 -1.468410 2.790587 -0.069847
  15 0.000000 15.654126 0.000005 0.068649 -0.469468 -0.013602
  16 -0.000003 18.581154 -0.000011 0.049152 -0.287469 -0.178345
  17 4.067180 22.808758 2.410896 -0.035831 0.077875 -0.778547
  18 0.000000 32.306087 0.000002 -0.035831 0.077874 -0.778547
  19 0.000018 33.416809 -0.000014 -0.096577 -0.197484 -0.497371
  20 -0.000011 25.521997 0.000016 -0.096577 -0.197484 -0.497371
  21 -3.114330 23.027306 2.596346 -0.372930 0.640976 0.644001
  22 0.000005 32.306107 -0.000008 -0.372930 0.640976 0.644000
  23 -0.000008 33.416821 -0.000008 -0.713658 0.014729 0.448994
  24 -0.000011 25.521997 0.000014 -0.713658 0.014730 0.448994
  25 0.628899 23.027302 -3.075231 -0.936393 -0.086494 -0.232968
  26 0.000000 32.306084 0.000023 -0.936393 -0.086494 -0.232968
  27 0.000011 33.416821 -0.000006 -0.722775 -0.091660 -0.207980
  28 0.000010 25.521980 -0.000007 -0.722775 -0.091659 -0.207980
  29 18.861866 29.781395 12.096859 -1.432621 -2.830405 -0.408550
  30 -0.000005 15.654113 -0.000008 -0.050923 0.015949 0.025327
  31 -0.000006 18.581158 -0.000008 -0.072030 -0.165733 0.198891
  32 -4.067183 22.808765 2.410906 0.074457 -0.312336 0.568437
  33 -0.000006 32.306107 0.000005 0.074457 -0.312336 0.568437
  34 0.000020 33.416809 0.000001 0.279515 0.092877 1.237391
  35 0.000010 25.522007 0.000003 0.279515 0.092877 1.237391
  36 3.114319 23.027319 2.596352 0.896030 0.556013 0.008381
  37 -0.000007 32.306076 -0.000016 0.896030 0.556013 0.008381
  38 0.000001 33.416809 0.000015 1.004748 0.122795 0.220767
  39 0.000005 25.522013 -0.000019 1.004748 0.122795 0.220767
  40 -0.628902 23.027325 -3.075199 -0.523554 -0.342471 0.174536
  41 0.000012 32.306091 0.000012 -0.523554 -0.342471 0.174536
  42 0.000028 33.416824 -0.000012 -0.938277 0.055894 0.795482
  43 -0.000003 25.522020 0.000003 -0.938276 0.055893 0.795483
  44 -0.000004 40.587608 0.000002 -1.439854 1.455767 0.175889
  45 0.000003 58.152206 -0.000003 0.304668 3.120908 0.173989
  46 -0.000015 124.040398 0.000022 -0.941181 -0.397513 -1.371035
  47 0.000019 158.302124 0.000003 -0.642204 -2.195071 0.306193
  48 -0.000005 12.421144 -0.000005 -0.378818 -0.001991 -0.076528
  49 12.733335 21.965242 -6.596047 -0.681641 -1.470997 0.285112
  50 0.000000 14.996456 0.000013 -0.004431 0.001124 0.055129
  51 -10.850955 19.295551 -1.254961 0.667446 -1.474902 -0.102841
  52 0.000009 11.953220 0.000014 -0.029229 -0.008845 0.333509
  53 0.592623 23.062992 -4.960676 0.497599 -1.496302 -0.399170
  54 -0.000004 7.840455 0.000001 -0.033415 0.014907 0.109485
  55 -17.577879 10.771938 1.287340 -0.068723 -3.109295 0.936752
  56 0.000008 9.450212 -0.000019 1.570796 1.282056 1.581941
  57 -0.000004 40.587608 0.000002 -2.477349 -1.183398 0.714154
  58 -0.000003 58.166771 0.000005 1.388431 -2.787463 -0.492549
  59 -0.000010 124.040489 -0.000003 -0.898996 0.246963 1.250459
  60 0.000046 158.302200 0.000000 -0.271337 2.195071 -0.306193
  61 -0.000002 12.421160 -0.000012 -0.007952 0.001991 0.076528
  62 -12.733328 21.965281 -6.596077 1.163420 1.374255 1.569416
  63 0.000009 14.996476 0.000006 -0.004571 -0.000021 0.188695
  64 10.850956 19.295555 -1.255000 1.323463 1.258579 0.768126
  65 0.000008 11.953218 -0.000007 -0.026230 0.015639 -0.089758
  66 -0.592622 23.063013 -4.960656 1.337499 1.283995 1.247109
  67 -0.000003 7.840450 0.000001 -0.036024 -0.006401 0.134208
  68 17.577852 10.771940 1.287322 -0.074476 3.126823 -1.180019
  69 0.000005 9.450205 0.000005 1.570801 -1.525881 -1.581948
  70 30.706043 25.966068 28.162123 0.474261 0.136597 -3.094959
  71 -0.000000 21.459738 0.000005 1.209360 0.000003 -0.000005
  72 0.000003 53.415680 0.000005 -1.164605 -0.152175 -0.064487
  73 -0.000002 41.685043 0.000013 -1.096785 -0.109469 0.086184
  74 -30.706673 25.982714 28.162107 1.218341 0.205086 -3.070855
  75 -0.000008 21.459738 0.000004 1.915330 0.000000 0.000000
  76 -0.000014 53.415695 0.000004 -0.811545 -0.115549 0.045817
  77 0.000004 41.685051 0.000002 -0.558311 -0.194084 0.025933
  78 30.689005 -36.950356 49.621845 -3.141593 -0.000000 -0.000271
  79 -30.723703 -36.933735 49.621845 -3.141593 -0.000000 -0.000271
  80 22.762882 12.503705 90.451050 -0.000000 0.000000 -0.000271
  81 -38.135624 71.576508 48.294998 -0.000000 -0.000000 -0.000271
  82 3.257178 -83.615295 -120.727753 -0.370866 -1.570796 0.000000
  83 -0.000000 16.827707 -0.000006 -0.000000 -0.000000 -0.047738
  84 3.257196 -83.615311 120.816299 -0.000000 -1.570796 0.000000
  85 -0.000002 16.827730 0.000001 0.000000 0.000000 0.291565
  time 5
  0 18.195469 -0.072209 345.967377 1.570796 -0.000000 3.141593
  1 -103.220512 -147.820908 -205.708130 -1.570796 -1.570796 0.000000
  2 85.048035 -156.476517 -138.523331 -1.570796 -1.570796 0.000000
  3 -126.746056 -276.987946 165.923569 -1.570796 -1.570796 0.000000
  4 -44.236214 -245.224106 147.310394 -1.570796 -1.570796 0.000000
  5 -35.647125 -342.921143 0.051621 -1.570796 1.570796 0.000000
  6 -0.000001 -24.555782 -0.000000 1.508322 -0.039543 3.136389
  7 -0.000001 32.302841 0.000004 -0.017586 -0.130305 -0.064226
  8 0.000003 34.389359 -0.000000 0.050905 -0.053783 0.233688
  9 -0.000001 27.110130 0.000001 0.051239 0.071942 -0.103201
  10 0.000001 38.788403 0.000006 0.273588 -0.002495 0.098955
  11 -0.000004 40.587593 0.000007 0.277682 -0.051211 -0.136895
  12 -0.000000 24.940540 -0.000000 -0.089741 0.134827 0.502441
  13 0.000004 17.791578 -0.000002 -0.623589 0.156781 -0.113097
  14 -18.960356 29.781376 12.096860 -1.551503 2.823544 -0.039226
  15 0.000003 15.654113 0.000002 -0.039920 -0.439039 0.021536
  16 -0.000008 18.581165 0.000006 -0.052667 -0.256537 -0.146080
  17 4.067179 22.808767 2.410882 -0.050246 0.054677 -0.419973
  18 0.000005 32.306107 -0.000002 -0.050246 0.054677 -0.419973
  19 -0.000002 33.416821 0.000004 -0.012764 -0.205962 -0.104457
  20 -0.000004 25.522009 -0.000002 -0.012764 -0.205962 -0.104457
  21 -3.114326 23.027323 2.596367 -0.251254 0.596150 0.447926
  22 0.000003 32.306103 0.000002 -0.251254 0.596150 0.447926
  23 -0.000015 33.416821 -0.000008 -0.171161 0.172391 0.267565
  24 -0.000008 25.522015 0.000012 -0.171161 0.172391 0.267565
  25 0.628903 23.027317 -3.075218 -0.522046 -0.164096 -0.135764
  26 0.000005 32.306091 0.000011 -0.522046 -0.164095 -0.135764
  27 0.000005 33.416813 0.000004 -0.407383 -0.190164 -0.194252
  28 0.000010 25.522011 -0.000013 -0.407383 -0.190164 -0.194251
  29 18.861853 29.781374 12.096850 -1.537537 -2.700107 -0.365111
  30 0.000001 15.654129 0.000014 -0.134084 0.078909 0.146489
  31 0.000002 18.581163 -0.000018 -0.176808 -0.098940 0.318897
  32 -4.067182 22.808767 2.410889 0.183691 -0.238842 0.343724
  33 -0.000003 32.306091 -0.000001 0.183691 -0.238842 0.343724
  34 -0.000004 33.416813 -0.000011 0.316432 0.194087 0.873714
  35 -0.000012 25.522017 -0.000018 0.316432 0.194087 0.873715
  36 3.114332 23.027327 2.596370 0.766787 0.522041 0.236283
  37 0.000014 32.306057 -0.000035 0.766786 0.522042 0.236283
  38 -0.000005 33.416836 -0.000004 0.693311 0.332480 0.126357
  39 0.000020 20.420197 0.000018 0.693311 0.332480 0.126357
  40 -0.628898 23.027321 -3.075185 -0.265973 -0.413177 0.155193
  41 0.000008 32.306095 0.000009 -0.265973 -0.413177 0.155193
  42 -0.000018 33.416821 -0.000004 -0.782933 -0.159348 0.576474
  43 0.000002 25.521996 -0.000002 -0.782933 -0.159348 0.576474
  44 -0.000004 40.587593 0.000007 -1.439854 1.455767 0.175889
  45 0.000013 58.152191 0.000002 0.173401 3.141261 0.023315
  46 -0.000017 124.040382 0.000026 -0.957147 -0.483970 -1.439466
  47 0.000041 158.302078 -0.000065 -0.642203 -2.195071 0.306193
  48 -0.000002 12.421149 0.000001 -0.378818 -0.001991 -0.076528
  49 12.733343 21.965242 -6.596122 0.607828 -1.476405 -1.008893
  50 0.000003 14.996470 0.000014 -0.004531 0.000599 -0.061890
  51 -10.850992 19.295546 -1.254961 1.165096 -1.379079 -0.604914
  52 -0.000005 11.953231 -0.000015 -0.027997 -0.012196 0.216530
  53 0.592609 23.062946 -4.960640 1.163786 -1.404828 -1.069195
  54 -0.000002 7.840447 -0.000002 -0.034926 0.010904 -0.007477
  55 -17.577902 10.771950 1.287361 -0.072017 -3.117532 1.053530
  56 -0.000009 9.450207 -0.000016 1.570798 1.399076 1.581942
  57 -0.000004 40.587593 0.000007 -2.477349 -1.183398 0.714154
  58 0.000003 58.166771 -0.000004 1.279694 -2.875468 -0.505273
  59 0.000001 124.040428 -0.000041 -0.887325 0.214202 1.223380
  60 0.000025 158.302170 -0.000002 -0.271337 2.195071 -0.306193
  61 -0.000002 12.421147 -0.000010 -0.007952 0.001991 0.076528
  62 -12.733323 21.965256 -6.596079 -1.339828 1.226031 -0.954010
  63 0.000003 14.996469 0.000005 -0.003962 -0.002278 -0.328414
  64 10.850960 19.295547 -1.254950 -1.229313 1.344307 -1.804241
  65 -0.000005 11.953223 -0.000004 -0.030531 0.000630 -0.606676
  66 -0.592627 23.062984 -4.960661 -1.299305 1.324436 -1.406720
  67 -0.000003 7.840435 0.000005 -0.028154 -0.023371 -0.382692
  68 17.577892 10.771947 1.287345 -0.057473 3.091954 -0.663782
  69 0.000013 9.450205 0.000003 1.570797 -1.008768 -1.581941
  70 30.706043 25.966084 28.162123 0.568069 0.332541 -3.023785
  71 0.000006 21.459721 -0.000003 1.348622 0.000006 -0.000007
  72 0.000000 53.415684 0.000000 -0.894741 -0.119861 -0.056645
  73 0.000007 41.685036 -0.000002 -0.717389 -0.138499 0.097817
  74 -30.706667 25.982716 28.162113 -1.676572 2.486184 0.265047
  75 -0.000002 21.459724 -0.000002 1.538983 0.000000 -0.000000
  76 0.000001 53.415676 -0.000005 -1.126296 -0.013024 0.109465
  77 0.000006 41.685040 0.000005 -1.048660 -0.116238 0.108575
  78 30.689001 -36.950363 49.621838 3.141593 -0.000000 -0.000271
  79 -30.723701 -36.933731 49.621838 3.141593 -0.000000 -0.000271
  80 10.670457 23.614700 86.571526 -0.000000 0.000000 -0.000271
  81 -60.834095 70.280769 50.888237 -0.000000 -0.000000 -0.000271
  82 3.257178 -83.615295 -120.727753 -0.370866 -1.570796 0.000000
  83 -0.000000 16.827707 -0.000006 -0.000000 -0.000000 -0.164758
  84 3.257196 -83.615311 120.816299 -0.000000 -1.570796 0.000000
  85 -0.000002 16.827730 0.000001 0.000000 0.000000 -0.225549
end
