version 1
nodes
0 "All.005" -1
1 "ForearmIK.L" 0
2 "UpperarmIK.L" 0
3 "ForearmIK.R" 0
4 "UpperarmIK.R" 0
5 "Torso.000" 0
6 "Spine.000" 5
7 "Spine.001" 6
8 "Spine.002" 7
9 "Spine.003" 8
10 "Spine.004" 9
11 "Spine.005" 10
12 "Spine.006" 11
13 "Spine.007" 12
14 "TentclH.L.003" 13
15 "TentclH.L.002" 14
16 "TentclH.L.001" 15
17 "TentclH1.L.000" 16
18 "TentclH1.L.001" 17
19 "TentclH1.L.002" 18
20 "TentclH1.L.003" 19
21 "TentclH2.L.000" 16
22 "TentclH2.L.001" 21
23 "TentclH2.L.002" 22
24 "TentclH2.L.003" 23
25 "TentclH3.L.000" 16
26 "TentclH3.L.001" 25
27 "TentclH3.L.002" 26
28 "TentclH3.L.003" 27
29 "TentclH.R.003" 13
30 "TentclH.R.002" 29
31 "TentclH.R.001" 30
32 "TentclH1.R.000" 31
33 "TentclH1.R.001" 32
34 "TentclH1.R.002" 33
35 "TentclH1.R.003" 34
36 "TentclH2.R.000" 31
37 "TentclH2.R.001" 36
38 "TentclH2.R.002" 37
39 "TentclH2.R.003" 38
40 "TentclH3.R.000" 31
41 "TentclH3.R.001" 40
42 "TentclH3.R.002" 41
43 "TentclH3.R.003" 42
44 "Arm.L.001" 10
45 "Arm.L.002" 44
46 "Arm.L.005" 45
47 "Arm.L.006" 46
48 "Arm.L.007" 47
49 "Finger.L.004" 48
50 "Finger.L.005" 49
51 "Finger.L.001" 48
52 "Finger.L.000" 51
53 "Finger.L.002" 48
54 "Finger.L.003" 53
55 "Finger.L.006" 47
56 "Finger.L.007" 55
57 "Arm.R.001" 10
58 "Arm.R.002" 57
59 "Arm.R.005" 58
60 "Arm.R.006" 59
61 "Arm.R.007" 60
62 "Finger.R.004" 61
63 "Finger.R.005" 62
64 "Finger.R.001" 61
65 "Finger.R.000" 64
66 "Finger.R.002" 61
67 "Finger.R.003" 66
68 "Finger.R.006" 60
69 "Finger.R.007" 68
70 "TentclB.R.000" 8
71 "TentclB.R.001" 70
72 "TentclB.R.002" 71
73 "TentclB.R.003" 72
74 "TentclB.L.000" 8
75 "TentclB.L.001" 74
76 "TentclB.L.002" 75
77 "TentclB.L.003" 76
78 "UpperTent.R.000" 8
79 "UpperTent.L.000" 8
80 "TentcBIK.R.000" 8
81 "TentcBIK.L.000" 8
82 "HndCtrl.L.000" 0
83 "HndCtrl.L.001" 82
84 "HndCtrl.R.000" 0
85 "HndCtrl.R.001" 84
end
skeleton
  time 0
  0 18.195469 -0.072209 345.967377 1.570796 -0.000000 3.141593
  1 -11.765234 -205.895309 -205.708130 -1.570796 -1.570796 0.000000
  2 85.048035 -185.881119 -138.523331 -1.570796 -1.570796 0.000000
  3 -41.894489 -264.519775 198.586746 -1.570796 -1.570796 0.000000
  4 146.429230 -185.980545 147.310379 -1.570796 -1.570796 0.000000
  5 -35.647125 -342.921143 0.051621 -1.570796 1.570796 0.000000
  6 -0.000001 -24.555782 -0.000000 1.508322 -0.039543 3.136389
  7 -0.000001 32.302841 0.000004 -0.050040 -0.142047 0.023038
  8 -0.000002 34.389370 0.000004 -0.112203 0.004340 -0.044269
  9 0.000000 27.110134 -0.000001 -0.105602 0.074783 -0.211935
  10 0.000002 38.788418 -0.000002 0.262623 0.029916 -0.022558
  11 0.000005 40.587616 -0.000002 0.277682 -0.051212 -0.136896
  12 0.000000 24.940542 -0.000002 -0.162680 0.003273 0.085534
  13 0.000001 17.791586 0.000000 -0.623588 0.156781 -0.113098
  14 -18.960354 29.781374 12.096853 -1.472579 2.356073 0.097419
  15 -0.000003 15.654117 -0.000005 0.155266 -0.319434 -0.481375
  16 -0.000000 18.581150 -0.000013 0.055500 -0.164223 -0.629371
  17 4.067180 22.808773 2.410908 -0.353250 -0.027351 -0.760291
  18 0.000009 32.306099 0.000000 -0.353250 -0.027351 -0.760290
  19 0.000009 33.416824 0.000009 -0.217071 -0.058615 -0.727706
  20 -0.000002 25.521997 0.000006 -0.217071 -0.058615 -0.727706
  21 -3.114332 23.027325 2.596364 0.591038 -0.406744 0.759763
  22 -0.000008 32.306110 0.000010 0.591038 -0.406744 0.759763
  23 0.000014 33.416824 0.000000 -0.034033 0.235619 0.710003
  24 0.000001 25.522017 -0.000013 -0.034033 0.235620 0.710003
  25 0.628900 23.027323 -3.075207 -0.314181 -0.134135 -0.036306
  26 0.000005 32.306095 -0.000015 -0.314181 -0.134135 -0.036306
  27 0.000002 33.416824 -0.000003 -0.277836 -0.298264 -0.008484
  28 -0.000006 25.522026 -0.000022 -0.277836 -0.298264 -0.008484
  29 18.861853 29.781397 12.096858 -1.537537 -2.700108 -0.365111
  30 -0.000013 15.654119 0.000005 -0.134084 0.078908 0.146489
  31 -0.000012 18.581165 -0.000017 -0.176808 -0.098940 0.318897
  32 -4.067173 22.808762 2.410902 0.183390 -0.191789 0.136431
  33 -0.000008 32.306095 -0.000007 0.183390 -0.191789 0.136431
  34 0.000007 33.416824 -0.000004 0.050267 0.245323 0.121269
  35 0.000004 25.522007 0.000001 0.050267 0.245323 0.121269
  36 3.114321 23.027321 2.596350 0.766786 0.522041 0.236283
  37 0.000006 32.306103 0.000004 0.766787 0.522041 0.236283
  38 0.000011 33.416824 0.000002 0.693311 0.332480 0.126357
  39 0.000009 20.420174 -0.000013 0.693311 0.332480 0.126357
  40 -0.628900 23.027319 -3.075212 -0.265973 -0.413176 0.155193
  41 0.000015 32.306091 0.000001 -0.265974 -0.413177 0.155193
  42 0.000002 33.416821 0.000005 -0.782933 -0.159348 0.576474
  43 -0.000008 25.522005 0.000005 -0.782933 -0.159348 0.576474
  44 0.000005 40.587616 -0.000002 -1.307769 1.445736 0.503367
  45 0.000002 58.152199 -0.000004 0.881162 2.718716 -0.182822
  46 -0.000010 124.040398 0.000035 -0.955854 -0.475498 -1.432730
  47 0.000019 158.302139 -0.000025 -0.642203 -2.195071 0.306193
  48 0.000003 12.421160 0.000017 -0.378818 -0.001991 -0.076528
  49 12.733331 21.965235 -6.596066 -1.430771 -0.983215 1.055050
  50 0.000004 14.996469 -0.000009 -0.003286 0.003177 0.575171
  51 -10.850961 19.295538 -1.254944 -1.402722 -1.104546 1.987223
  52 0.000016 11.953218 -0.000005 -0.029760 0.006846 0.853323
  53 0.592631 23.062979 -4.960681 -1.430983 -1.082307 1.546755
  54 -0.000010 7.840443 -0.000006 -0.021593 0.029539 0.629460
  55 -17.577908 10.771953 1.287355 -0.043611 -3.079424 0.416954
  56 0.000002 9.450202 -0.000003 1.570796 0.762011 1.581941
  57 0.000005 40.587616 -0.000002 -2.189600 -0.766544 0.489051
  58 0.000005 58.166759 0.000011 0.624689 -2.113123 -0.414232
  59 -0.000010 124.040466 -0.000046 -0.949188 0.436792 1.402067
  60 0.000012 158.302185 0.000000 -0.271338 2.195072 -0.306193
  61 0.000003 12.421144 0.000006 -0.007952 0.001991 0.076528
  62 -12.733315 21.965260 -6.596074 0.834639 1.455311 1.236935
  63 0.000000 14.996454 0.000001 -0.004548 -0.000455 0.093629
  64 10.850962 19.295568 -1.254953 1.220996 1.349566 0.662019
  65 0.000003 11.953221 -0.000006 -0.027596 0.013079 -0.184801
  66 -0.592624 23.063038 -4.960620 1.227449 1.375281 1.133904
  67 -0.000004 7.840446 0.000007 -0.035254 -0.009790 0.039198
  68 17.577896 10.771935 1.287360 -0.072743 3.119828 -1.085194
  69 0.000001 9.450201 0.000003 1.570802 -1.430814 -1.581947
  70 30.706039 25.966084 28.162117 0.574224 -0.980124 2.607684
  71 -0.000005 21.459738 -0.000002 1.185024 0.000004 -0.000005
  72 -0.000011 53.415672 0.000001 -1.272285 -0.037558 -0.100232
  73 0.000000 41.685040 0.000000 -1.075412 -0.098615 0.199840
  74 -30.706659 25.982710 28.162107 -1.539781 -2.363323 -0.343208
  75 -0.000015 21.459728 -0.000001 1.344805 -0.000000 0.000001
  76 -0.000001 53.415688 -0.000004 -1.126296 -0.013024 0.109465
  77 0.000006 41.685043 0.000010 -1.048661 -0.116238 0.108575
  78 30.688992 -36.950352 49.621834 3.141593 -0.000000 -0.000271
  79 -30.723698 -36.933727 49.621826 3.141593 -0.000000 -0.000271
  80 72.476852 -8.034427 63.875004 0.000000 -0.000000 -0.000271
  81 8.172401 68.442291 50.806202 -0.000000 -0.000000 -0.000271
  82 3.257178 -83.615295 -120.727753 -0.370866 -1.570796 0.000000
  83 -0.000000 16.827707 -0.000006 -0.000000 -0.000000 0.472307
  84 3.257196 -83.615311 120.816299 -0.000000 -1.570796 0.000000
  85 -0.000002 16.827730 0.000001 0.000000 0.000000 0.196498
  time 1
  0 18.195469 -0.072209 345.967377 1.570796 -0.000000 3.141593
  1 -63.221779 -193.149612 -171.632111 -1.570796 -1.570796 0.000000
  2 85.048035 -185.881119 -138.523331 -1.570796 -1.570796 0.000000
  3 -18.006409 -272.395813 170.977768 -1.570796 -1.570796 0.000000
  4 146.429230 -163.637650 147.310379 -1.570796 -1.570796 0.000000
  5 -35.647125 -342.921143 0.051621 -1.570796 1.570796 0.000000
  6 -0.000001 -24.555782 -0.000000 1.530056 -0.020785 3.135920
  7 0.000002 32.302837 0.000002 -0.003856 -0.146065 0.096272
  8 -0.000002 34.389359 -0.000005 0.113234 0.020646 -0.119561
  9 0.000000 27.110126 0.000002 0.040925 0.134479 -0.278626
  10 0.000006 38.788406 0.000002 0.350773 0.115355 -0.184062
  11 -0.000003 40.587624 -0.000001 0.337474 0.005581 -0.054976
  12 0.000011 24.940535 -0.000003 -0.256336 0.050159 0.211914
  13 0.000006 17.791573 0.000012 -0.623588 0.156781 -0.113098
  14 -18.960358 29.781384 12.096861 -1.463585 2.526370 -0.013319
  15 -0.000002 15.654112 -0.000012 0.172450 -0.414687 -0.305077
  16 0.000003 18.581163 0.000003 0.100341 -0.244948 -0.453608
  17 4.067176 22.808769 2.410893 -0.142066 0.180431 -0.334970
  18 -0.000001 32.306072 -0.000022 -0.142066 0.180431 -0.334970
  19 0.000008 33.416798 -0.000026 -0.220343 -0.006666 -0.445041
  20 -0.000009 25.522007 -0.000002 -0.220343 -0.006666 -0.445041
  21 -3.114326 23.027342 2.596365 0.319737 -0.251836 0.051004
  22 -0.000017 32.306068 -0.000011 0.319737 -0.251836 0.051004
  23 0.000020 33.416843 -0.000012 0.485940 0.119478 0.174760
  24 -0.000012 25.522013 -0.000003 0.485940 0.119478 0.174760
  25 0.628902 23.027328 -3.075205 -1.073182 -0.355701 0.109758
  26 -0.000002 32.306095 0.000008 -1.073182 -0.355700 0.109758
  27 0.000005 33.416817 -0.000008 -1.241803 0.071022 0.127589
  28 0.000008 25.522005 0.000003 -1.241803 0.071022 0.127590
  29 18.861860 29.781404 12.096846 -1.196766 -2.551918 -0.531330
  30 0.000003 15.654116 0.000006 0.128408 -0.032701 0.320779
  31 -0.000000 18.581156 0.000004 0.054339 -0.200186 0.501396
  32 -4.067183 22.808765 2.410883 0.459579 -0.317831 0.482394
  33 0.000005 32.306087 -0.000013 0.459578 -0.317831 0.482394
  34 0.000007 33.416817 0.000009 0.313172 -0.287059 0.671297
  35 0.000009 25.521997 0.000003 0.313172 -0.287059 0.671297
  36 3.114336 23.027319 2.596358 0.491770 0.666538 0.466855
  37 0.000001 32.306091 0.000001 0.491770 0.666537 0.466855
  38 0.000004 33.416821 -0.000000 0.068774 -0.105630 0.106781
  39 0.000003 25.969408 -0.000008 0.068774 -0.105630 0.106781
  40 -0.628906 23.027319 -3.075216 -0.099377 -0.495333 -0.001554
  41 0.000011 32.306087 -0.000001 -0.099378 -0.495333 -0.001554
  42 -0.000007 33.416801 0.000009 -0.245892 -0.514393 0.279415
  43 -0.000008 25.521996 0.000002 -0.245892 -0.514393 0.279415
  44 -0.000003 40.587624 -0.000001 -1.307768 1.445736 0.503367
  45 -0.000000 58.152206 -0.000005 -1.658059 -0.006469 2.929948
  46 -0.000010 124.040398 0.000005 -0.969584 -0.646294 -1.572730
  47 0.000017 158.302170 -0.000043 -0.642203 -2.195071 0.306193
  48 -0.000004 12.421151 -0.000010 -0.378818 -0.001991 -0.076527
  49 12.733299 21.965225 -6.596093 0.947989 -1.437767 -1.351155
  50 0.000007 14.996462 -0.000000 -0.004557 0.000352 -0.116145
  51 -10.850959 19.295553 -1.254967 1.252276 -1.328291 -0.694155
  52 -0.000001 11.953215 0.000005 -0.027294 -0.013697 0.162291
  53 0.592617 23.063009 -4.960670 1.261940 -1.353948 -1.169137
  54 0.000001 7.840436 -0.000001 -0.035466 0.008994 -0.061701
  55 -17.577890 10.771929 1.287350 -0.073213 -3.121469 1.107655
  56 -0.000007 9.450202 0.000002 1.570801 1.453331 1.581944
  57 -0.000003 40.587624 -0.000001 -2.189599 -0.766544 0.489051
  58 0.000015 58.166771 0.000008 0.759411 -2.391303 -0.297180
  59 -0.000018 124.040466 -0.000012 -0.968888 0.679695 1.601814
  60 -0.000022 158.302231 -0.000051 -0.271337 2.195071 -0.306193
  61 -0.000002 12.421156 -0.000005 -0.007952 0.001991 0.076528
  62 -12.733320 21.965250 -6.596068 -1.412924 1.056274 -1.034117
  63 -0.000017 14.996464 0.000015 -0.003511 -0.002926 -0.501297
  64 10.850982 19.295601 -1.254931 -1.373432 1.177199 -1.955023
  65 -0.000008 11.953230 -0.000011 -0.030184 -0.004631 -0.779481
  66 -0.592620 23.063007 -4.960623 -1.408040 1.155343 -1.521268
  67 0.000018 7.840445 0.000007 -0.023714 -0.027866 -0.555575
  68 17.577906 10.771976 1.287379 -0.048081 3.082811 -0.490885
  69 0.000001 9.450207 0.000003 1.570797 -0.835884 -1.581941
  70 30.706034 25.966095 28.162127 0.651296 -0.730754 2.830649
  71 0.000007 21.459745 -0.000000 1.244974 0.000004 -0.000005
  72 0.000002 53.415684 0.000010 -0.762932 -0.069082 -0.076443
  73 -0.000000 41.685040 0.000008 -0.770753 -0.182459 0.164299
  74 -30.706665 25.982708 28.162100 1.121049 -0.760166 2.811061
  75 0.000004 21.459743 -0.000003 1.521724 0.000000 -0.000000
  76 0.000016 53.415695 -0.000006 -0.932555 -0.131475 0.110277
  77 0.000002 41.685013 0.000013 -0.691758 -0.277893 -0.000469
  78 30.688992 -36.950340 49.621841 3.141593 -0.000000 -0.000271
  79 -30.723705 -36.933716 49.621819 3.141593 -0.000000 -0.000271
  80 71.134254 12.986831 75.537018 -0.000000 0.000000 -0.000271
  81 10.737728 51.488922 60.686489 -0.000000 -0.000000 -0.000271
  82 3.257178 -83.615295 -120.727753 -0.370866 -1.570796 0.000000
  83 -0.000000 16.827707 -0.000006 -0.000000 -0.000000 -0.219015
  84 3.257196 -83.615311 120.816299 -0.000000 -1.570796 0.000000
  85 -0.000002 16.827730 0.000001 0.000000 0.000000 -0.398433
  time 2
  0 18.195469 -0.072209 345.967377 1.570796 -0.000000 3.141593
  1 -6.504935 -200.306717 -181.747925 -1.570796 -1.570796 0.000000
  2 85.048035 -185.881119 -138.523331 -1.570796 -1.570796 0.000000
  3 -30.452181 -254.619614 202.089539 -1.570796 -1.570796 0.000000
  4 146.429230 -165.439072 147.310379 -1.570796 -1.570796 0.000000
  5 -35.647125 -342.921143 0.051621 -1.570796 1.570796 0.000000
  6 -0.000001 -24.555782 -0.000000 1.528304 -0.022298 3.135943
  7 0.000002 32.302849 0.000003 -0.054100 -0.141854 0.016612
  8 -0.000004 34.389366 0.000004 0.095150 0.018712 -0.113660
  9 0.000003 27.110128 0.000003 -0.118581 0.070032 -0.205707
  10 0.000001 38.788414 0.000004 0.344177 0.107968 -0.171300
  11 0.000001 40.587616 -0.000003 0.401815 0.057182 0.030329
  12 0.000005 24.940540 0.000003 -0.304098 0.101855 0.336605
  13 0.000004 17.791578 0.000004 -0.623588 0.156781 -0.113098
  14 -18.960367 29.781385 12.096869 -1.434724 2.694986 -0.115210
  15 -0.000003 15.654118 -0.000006 0.171067 -0.511271 -0.121986
  16 -0.000002 18.581163 -0.000001 0.130694 -0.332108 -0.277371
  17 4.067167 22.808744 2.410877 -0.162214 0.167394 -0.370852
  18 -0.000011 32.306087 -0.000013 -0.162214 0.167394 -0.370852
  19 0.000001 33.416840 0.000001 -0.220625 -0.010853 -0.467738
  20 -0.000006 25.522015 -0.000007 -0.220625 -0.010853 -0.467738
  21 -3.114338 23.027304 2.596340 0.344029 -0.256928 0.106794
  22 -0.000008 32.306095 -0.000004 0.344030 -0.256928 0.106794
  23 -0.000015 33.416828 -0.000006 0.445546 0.118325 0.216256
  24 0.000001 25.522026 -0.000010 0.445546 0.118325 0.216256
  25 0.628886 23.027296 -3.075229 -1.010491 -0.342881 0.091882
  26 -0.000007 32.306099 0.000005 -1.010491 -0.342881 0.091882
  27 0.000026 33.416832 0.000010 -1.169412 0.039674 0.130502
  28 0.000007 25.522007 -0.000006 -1.169412 0.039674 0.130502
  29 18.861866 29.781382 12.096847 -1.226273 -2.561865 -0.515321
  30 -0.000002 15.654119 -0.000006 0.108090 -0.022112 0.307928
  31 -0.000016 18.581160 -0.000007 0.036358 -0.190561 0.487550
  32 -4.067173 22.808769 2.410911 0.438981 -0.304485 0.455749
  33 -0.000001 32.306110 -0.000006 0.438981 -0.304484 0.455749
  34 -0.000004 33.416821 0.000010 0.302987 -0.241029 0.631633
  35 -0.000006 25.522020 0.000011 0.302987 -0.241029 0.631633
  36 3.114324 23.027323 2.596349 0.513266 0.653124 0.449409
  37 -0.000002 32.306107 -0.000012 0.513266 0.653124 0.449409
  38 0.000001 33.416821 -0.000008 0.116174 -0.072670 0.098548
  39 0.000013 25.522018 -0.000002 0.116174 -0.072670 0.098548
  40 -0.628891 23.027327 -3.075206 -0.113560 -0.489614 0.011854
  41 -0.000007 32.306114 -0.000006 -0.113561 -0.489614 0.011854
  42 -0.000018 33.416832 0.000006 -0.295723 -0.492491 0.312124
  43 0.000010 25.521999 -0.000002 -0.295722 -0.492491 0.312124
  44 0.000001 40.587616 -0.000003 -1.307768 1.445736 0.503368
  45 -0.000005 58.152214 -0.000004 1.362530 2.832637 -0.272459
  46 0.000007 124.040398 -0.000002 -0.965322 -0.552029 -1.494140
  47 -0.000004 158.302155 -0.000010 -0.642203 -2.195072 0.306193
  48 0.000011 12.421154 -0.000005 -0.378818 -0.001991 -0.076528
  49 12.733356 21.965258 -6.596064 -1.441944 -0.924644 1.068742
  50 -0.000001 14.996469 0.000003 -0.003093 0.003365 0.634274
  51 -10.850967 19.295563 -1.254939 -1.420088 -1.046190 2.006953
  52 -0.000009 11.953225 0.000004 -0.029304 0.008592 0.912402
  53 0.592639 23.062990 -4.960621 -1.444740 -1.023724 1.562581
  54 -0.000004 7.840450 0.000014 -0.019810 0.030763 0.688577
  55 -17.577883 10.771945 1.287332 -0.039860 -3.076957 0.357783
  56 0.000005 9.450202 -0.000001 1.570796 0.702908 1.581941
  57 0.000001 40.587616 -0.000003 -2.189600 -0.766544 0.489051
  58 -0.000006 58.166759 0.000008 0.356285 -2.409906 -0.154980
  59 -0.000021 124.040459 -0.000034 -0.966731 0.569111 1.508080
  60 0.000021 158.302124 0.000038 -0.271337 2.195071 -0.306193
  61 0.000001 12.421142 -0.000005 -0.007952 0.001991 0.076528
  62 -12.733331 21.965237 -6.596042 -1.398396 1.102901 -1.017645
  63 -0.000011 14.996470 -0.000003 -0.003646 -0.002757 -0.454030
  64 10.850956 19.295568 -1.254960 -1.348054 1.223432 -1.927804
  65 0.000009 11.953218 -0.000010 -0.030370 -0.003200 -0.732235
  66 -0.592641 23.062990 -4.960660 -1.388412 1.201911 -1.500034
  67 0.000002 7.840440 0.000002 -0.025004 -0.026714 -0.508304
  68 17.577881 10.771935 1.287326 -0.050804 3.085148 -0.538173
  69 0.000005 9.450193 0.000008 1.570796 -0.883152 -1.581941
  70 30.706034 25.966072 28.162132 -1.704340 -2.600759 -0.206572
  71 0.000000 21.459719 0.000000 0.604587 0.000001 -0.000003
  72 0.000005 53.415661 0.000007 -0.803564 -0.066166 -0.077718
  73 0.000017 41.685032 0.000003 -0.795480 -0.176164 0.168112
  74 -30.706661 25.982704 28.162092 0.927875 -0.744668 2.821528
  75 0.000003 21.459723 0.000000 1.353285 0.000001 -0.000000
  76 0.000000 53.415665 -0.000001 -0.734477 -0.247824 0.087621
  77 0.000005 41.685036 0.000001 -0.301136 -0.389426 -0.168282
  78 30.688980 -36.950352 49.621841 3.141593 -0.000000 -0.000271
  79 -30.723719 -36.933723 49.621807 3.141593 -0.000000 -0.000271
  80 69.793175 39.622204 87.199013 0.000000 -0.000000 -0.000271
  81 13.303054 34.535561 70.566765 -0.000000 -0.000000 -0.000271
  82 3.257178 -83.615295 -120.727753 -0.370866 -1.570796 0.000000
  83 -0.000000 16.827707 -0.000006 -0.000000 -0.000000 0.531410
  84 3.257196 -83.615311 120.816299 -0.000000 -1.570796 0.000000
  85 -0.000002 16.827730 0.000001 -0.000000 0.000000 -0.351165
  time 3
  0 18.195469 -0.072209 345.967377 1.570796 -0.000000 3.141593
  1 -68.359573 -184.162750 -147.032013 -1.570796 -1.570796 0.000000
  2 85.048035 -185.881119 -138.523331 -1.570796 -1.570796 0.000000
  3 -7.567557 -241.943207 188.574890 -1.570796 -1.570796 0.000000
  4 146.429230 -187.781982 147.310379 -1.570796 -1.570796 0.000000
  5 -35.647125 -342.921143 0.051621 -1.570796 1.570796 0.000000
  6 -0.000001 -24.555782 -0.000000 1.506569 -0.041055 3.136444
  7 -0.000002 32.302845 0.000002 -0.050040 -0.142047 0.023038
  8 -0.000001 34.389362 0.000000 -0.130378 0.003773 -0.038086
  9 0.000002 27.110132 -0.000001 -0.105602 0.074782 -0.211935
  10 0.000002 38.788418 0.000002 0.254960 0.023681 -0.009266
  11 -0.000007 40.587624 0.000006 0.337474 0.005581 -0.054976
  12 0.000012 24.940527 0.000002 -0.236404 0.048127 0.212659
  13 -0.000001 17.791573 0.000001 -0.623588 0.156781 -0.113097
  14 -18.960354 29.781382 12.096851 -1.463585 2.526370 -0.013319
  15 0.000002 15.654111 -0.000011 0.172449 -0.414687 -0.305077
  16 -0.000004 18.581169 0.000009 0.100341 -0.244948 -0.453608
  17 4.067187 22.808735 2.410861 -0.365995 -0.047389 -0.792211
  18 -0.000011 32.306099 0.000018 -0.365995 -0.047389 -0.792210
  19 -0.000004 33.416824 0.000008 -0.216172 -0.062715 -0.750459
  20 0.000012 25.522003 0.000008 -0.216172 -0.062714 -0.750460
  21 -3.114325 23.027285 2.596319 0.606933 -0.425911 0.815238
  22 -0.000001 32.306107 -0.000002 0.606933 -0.425911 0.815238
  23 0.000026 33.416821 -0.000002 -0.073547 0.256868 0.750920
  24 0.000005 25.522013 -0.000001 -0.073547 0.256869 0.750920
  25 0.628905 23.027285 -3.075246 -0.257181 -0.113285 -0.039756
  26 -0.000004 32.306107 0.000026 -0.257181 -0.113285 -0.039756
  27 -0.000002 33.416813 -0.000030 -0.197907 -0.318440 -0.033849
  28 -0.000002 25.522007 -0.000001 -0.197907 -0.318440 -0.033849
  29 18.861864 29.781366 12.096842 -1.562519 -2.713924 -0.354870
  30 0.000009 15.654119 0.000008 -0.156006 0.085790 0.131278
  31 0.000005 18.581167 0.000012 -0.195994 -0.092691 0.303395
  32 -4.067188 22.808773 2.410903 0.159996 -0.185905 0.107871
  33 0.000004 32.306087 -0.000002 0.159996 -0.185904 0.107871
  34 0.000005 33.416813 -0.000008 0.016476 0.279241 0.070183
  35 -0.000014 25.522018 -0.000004 0.016476 0.279241 0.070183
  36 3.114319 23.027323 2.596353 0.789350 0.512884 0.216821
  37 -0.000000 32.306087 -0.000010 0.789349 0.512884 0.216821
  38 0.000015 33.416805 -0.000001 0.748323 0.366237 0.140894
  39 0.000008 19.972761 0.000011 0.748323 0.366237 0.140894
  40 -0.628895 23.027321 -3.075201 -0.278464 -0.405587 0.166866
  41 0.000005 32.306087 0.000004 -0.278464 -0.405587 0.166866
  42 0.000005 33.416828 0.000005 -0.818940 -0.125966 0.590259
  43 0.000005 25.522007 -0.000010 -0.818940 -0.125966 0.590258
  44 -0.000007 40.587624 0.000006 -1.307766 1.445736 0.503370
  45 0.000001 58.152203 -0.000001 0.941660 2.760780 0.238056
  46 0.000002 124.040382 -0.000017 -0.969262 -0.668557 -1.592024
  47 0.000065 158.302124 0.000002 -0.642203 -2.195071 0.306193
  48 -0.000020 12.421153 -0.000003 -0.378818 -0.001991 -0.076528
  49 12.733320 21.965242 -6.596066 -1.430771 -0.983215 1.055050
  50 0.000008 14.996462 0.000006 -0.003287 0.003177 0.575171
  51 -10.850966 19.295572 -1.254943 -1.402723 -1.104546 1.987224
  52 -0.000002 11.953220 -0.000011 -0.029760 0.006847 0.853323
  53 0.592626 23.063013 -4.960701 -1.430983 -1.082307 1.546756
  54 0.000006 7.840432 0.000002 -0.021593 0.029539 0.629460
  55 -17.577894 10.771934 1.287350 -0.043611 -3.079424 0.416953
  56 -0.000003 9.450196 -0.000012 1.570797 0.762011 1.581941
  57 -0.000007 40.587624 0.000006 -2.189599 -0.766544 0.489051
  58 0.000005 58.166771 -0.000011 0.364568 -2.128793 0.079626
  59 -0.000010 124.040413 -0.000022 -0.969497 0.630911 1.559586
  60 -0.000002 158.302170 0.000024 -0.271338 2.195071 -0.306193
  61 -0.000003 12.421149 -0.000003 -0.007952 0.001991 0.076528
  62 -12.733332 21.965235 -6.596071 1.041397 1.416988 1.445530
  63 -0.000013 14.996469 0.000006 -0.004564 -0.000239 0.140896
  64 10.850970 19.295559 -1.254982 1.280805 1.304676 0.723632
  65 0.000005 11.953215 0.000003 -0.026947 0.014367 -0.137547
  66 -0.592646 23.062965 -4.960661 1.292704 1.330253 1.200724
  67 -0.000007 7.840448 -0.000010 -0.035677 -0.008114 0.086437
  68 17.577869 10.771960 1.287376 -0.073687 3.123286 -1.132344
  69 0.000003 9.450206 0.000004 1.570805 -1.478082 -1.581949
  70 30.706039 25.966080 28.162119 -1.664229 -2.245859 -0.440417
  71 0.000005 21.459736 -0.000008 1.047251 0.000002 -0.000004
  72 0.000003 53.415699 0.000001 -1.312911 -0.035633 -0.102768
  73 0.000001 41.685020 -0.000008 -1.099621 -0.091485 0.201541
  74 -30.706659 25.982718 28.162102 1.010995 -0.539488 2.935657
  75 -0.000002 21.459732 -0.000005 1.063623 -0.000000 0.000001
  76 0.000005 53.415695 0.000000 -0.932555 -0.131475 0.110277
  77 -0.000004 41.685032 0.000003 -0.691758 -0.277893 -0.000469
  78 30.688995 -36.950352 49.621841 3.141593 0.000000 -0.000271
  79 -30.723703 -36.933723 49.621830 3.141593 0.000000 -0.000271
  80 85.336906 46.167782 60.828190 -0.000000 0.000000 -0.000271
  81 4.901044 33.246254 83.896378 -0.000000 -0.000000 -0.000271
  82 3.257178 -83.615295 -120.727753 -0.370866 -1.570796 0.000000
  83 -0.000000 16.827707 -0.000006 -0.000000 -0.000000 0.472307
  84 3.257196 -83.615311 120.816299 -0.000000 -1.570796 0.000000
  85 -0.000002 16.827730 0.000001 0.000000 0.000000 0.243765
  time 4
  0 18.195469 -0.072209 345.967377 1.570796 -0.000000 3.141593
  1 -63.221779 -193.149612 -171.632111 -1.570796 -1.570796 0.000000
  2 85.048035 -185.881119 -138.523331 -1.570796 -1.570796 0.000000
  3 -18.006409 -272.395813 170.977768 -1.570796 -1.570796 0.000000
  4 146.429230 -185.980545 147.310379 -1.570796 -1.570796 0.000000
  5 -35.647125 -342.921143 0.051621 -1.570796 1.570796 0.000000
  6 -0.000001 -24.555782 -0.000000 1.508322 -0.039543 3.136389
  7 -0.000001 32.302841 0.000004 -0.003856 -0.146065 0.096272
  8 -0.000004 34.389355 -0.000001 -0.112203 0.004340 -0.044269
  9 -0.000005 27.110132 0.000000 0.053612 0.140155 -0.284056
  10 0.000004 38.788410 -0.000000 0.262623 0.029916 -0.022558
  11 0.000011 40.587608 0.000003 0.277682 -0.051212 -0.136896
  12 0.000013 24.940533 0.000002 -0.162680 0.003273 0.085534
  13 0.000004 17.791576 -0.000002 -0.623589 0.156781 -0.113098
  14 -18.960350 29.781372 12.096856 -1.472579 2.356073 0.097419
  15 -0.000003 15.654119 0.000007 0.155266 -0.319434 -0.481376
  16 -0.000012 18.581154 -0.000015 0.055500 -0.164223 -0.629371
  17 4.067192 22.808752 2.410870 -0.353250 -0.027351 -0.760291
  18 -0.000004 32.306107 -0.000003 -0.353250 -0.027352 -0.760290
  19 0.000011 33.416828 0.000009 -0.217071 -0.058615 -0.727706
  20 0.000010 25.521969 0.000028 -0.217071 -0.058615 -0.727706
  21 -3.114319 23.027321 2.596347 0.591038 -0.406744 0.759763
  22 -0.000017 32.306103 -0.000002 0.591038 -0.406745 0.759763
  23 -0.000009 33.416832 -0.000001 -0.034032 0.235620 0.710003
  24 0.000027 25.522001 -0.000014 -0.034034 0.235620 0.710003
  25 0.628910 23.027319 -3.075219 -0.314181 -0.134135 -0.036306
  26 0.000003 32.306107 0.000017 -0.314181 -0.134135 -0.036306
  27 0.000002 33.416832 0.000010 -0.277836 -0.298264 -0.008484
  28 0.000004 25.522017 0.000011 -0.277836 -0.298264 -0.008484
  29 18.861864 29.781372 12.096853 -1.537538 -2.700108 -0.365110
  30 0.000004 15.654119 0.000013 -0.134084 0.078908 0.146488
  31 0.000006 18.581161 0.000008 -0.176808 -0.098940 0.318896
  32 -4.067190 22.808769 2.410883 0.183390 -0.191789 0.136431
  33 0.000004 32.306095 -0.000004 0.183390 -0.191789 0.136431
  34 0.000007 33.416817 0.000011 0.050267 0.245323 0.121269
  35 0.000002 25.521997 -0.000005 0.050267 0.245323 0.121269
  36 3.114322 23.027325 2.596348 0.766786 0.522041 0.236283
  37 0.000002 32.306095 0.000007 0.766786 0.522041 0.236283
  38 0.000002 33.416821 -0.000007 0.693311 0.332480 0.126357
  39 0.000008 20.420193 0.000014 0.693311 0.332480 0.126357
  40 -0.628902 23.027325 -3.075203 -0.265973 -0.413177 0.155193
  41 0.000014 32.306087 -0.000007 -0.265974 -0.413177 0.155193
  42 -0.000001 33.416809 -0.000009 -0.782932 -0.159348 0.576474
  43 0.000017 25.522015 -0.000001 -0.782933 -0.159348 0.576474
  44 0.000011 40.587608 0.000003 -1.307767 1.445736 0.503368
  45 0.000002 58.152233 0.000010 1.061952 2.957589 0.013307
  46 -0.000009 124.040428 -0.000002 -0.969351 -0.664951 -1.588875
  47 0.000021 158.302216 -0.000025 -0.642203 -2.195071 0.306193
  48 0.000011 12.421163 0.000008 -0.378818 -0.001991 -0.076528
  49 12.733311 21.965237 -6.596077 1.134865 -1.386526 -1.540336
  50 -0.000006 14.996472 0.000006 -0.004570 0.000083 -0.175248
  51 -10.850984 19.295555 -1.254923 1.312813 -1.271600 -0.756958
  52 -0.000014 11.953212 0.000004 -0.026438 -0.015285 0.103202
  53 0.592635 23.063009 -4.960655 1.326447 -1.297060 -1.235609
  54 0.000000 7.840444 0.000012 -0.035935 0.006884 -0.120769
  55 -17.577902 10.771945 1.287380 -0.074271 -3.125825 1.166607
  56 -0.000003 9.450197 0.000010 1.570805 1.512435 1.581951
  57 0.000011 40.587608 0.000003 -2.189599 -0.766544 0.489051
  58 0.000007 58.166759 0.000019 0.913911 -2.144884 -0.378495
  59 -0.000010 124.040459 -0.000033 -0.968556 0.599432 1.533116
  60 -0.000022 158.302155 0.000000 -0.271337 2.195071 -0.306193
  61 0.000005 12.421143 -0.000003 -0.007952 0.001991 0.076528
  62 -12.733315 21.965244 -6.596028 0.834640 1.455311 1.236936
  63 -0.000007 14.996469 0.000002 -0.004548 -0.000455 0.093629
  64 10.850956 19.295565 -1.254956 1.220997 1.349566 0.662020
  65 -0.000002 11.953218 -0.000003 -0.027596 0.013079 -0.184801
  66 -0.592625 23.063002 -4.960655 1.227450 1.375282 1.133905
  67 0.000005 7.840433 -0.000001 -0.035254 -0.009790 0.039198
  68 17.577892 10.771962 1.287372 -0.072743 3.119828 -1.085194
  69 0.000002 9.450207 -0.000002 1.570803 -1.430814 -1.581948
  70 30.706036 25.966087 28.162127 -0.534888 -1.944104 -1.057171
  71 -0.000000 21.459734 -0.000004 0.416250 0.000000 -0.000003
  72 -0.000000 53.415691 -0.000014 -1.272285 -0.037558 -0.100233
  73 -0.000008 41.685040 0.000015 -1.075412 -0.098615 0.199841
  74 -30.706673 25.982702 28.162111 -1.608160 -2.778989 -0.130034
  75 -0.000006 21.459734 -0.000001 0.230513 0.000000 0.000000
  76 -0.000002 53.415695 -0.000007 -1.126296 -0.013024 0.109465
  77 0.000005 41.685062 -0.000005 -1.048661 -0.116238 0.108575
  78 30.689007 -36.950352 49.621845 3.141593 -0.000000 -0.000271
  79 -30.723698 -36.933727 49.621838 3.141593 -0.000000 -0.000271
  80 100.879089 47.099274 34.457371 -0.000000 0.000000 -0.000271
  81 -3.500982 31.956936 97.225967 -0.000000 -0.000000 -0.000271
  82 3.257178 -83.615295 -120.727753 -0.370866 -1.570796 0.000000
  83 -0.000000 16.827707 -0.000006 -0.000000 -0.000000 -0.278118
  84 3.257196 -83.615311 120.816299 -0.000000 -1.570796 0.000000
  85 -0.000002 16.827730 0.000001 0.000000 0.000000 0.196498
  time 5
  0 18.195469 -0.072209 345.967377 1.570796 -0.000000 3.141593
  1 -91.324310 -146.937088 -146.342606 -1.570796 -1.570796 0.000000
  2 85.048035 -185.881119 -138.523331 -1.570796 -1.570796 0.000000
  3 3.874754 -234.141724 171.887039 -1.570796 -1.570796 0.000000
  4 146.429230 -163.637650 147.310379 -1.570796 -1.570796 0.000000
  5 -35.647125 -342.921143 0.051621 -1.570796 1.570796 0.000000
  6 -0.000001 -24.555782 -0.000000 1.530056 -0.020785 3.135920
  7 0.000002 32.302837 0.000002 -0.054100 -0.141854 0.016612
  8 0.000003 34.389351 -0.000000 0.113234 0.020646 -0.119561
  9 0.000003 27.110138 0.000003 0.040925 0.134479 -0.278626
  10 0.000011 38.788406 -0.000004 0.350773 0.115355 -0.184062
  11 0.000001 40.587624 -0.000007 0.337474 0.005581 -0.054976
  12 0.000008 24.940531 0.000000 -0.236403 0.048126 0.212660
  13 0.000003 17.791578 -0.000003 -0.623588 0.156781 -0.113098
  14 -18.960348 29.781382 12.096851 -1.463585 2.526370 -0.013319
  15 0.000004 15.654126 0.000010 0.172449 -0.414687 -0.305077
  16 -0.000003 18.581169 0.000002 0.100341 -0.244948 -0.453608
  17 4.067188 22.808758 2.410892 -0.142066 0.180431 -0.334970
  18 -0.000010 32.306091 -0.000014 -0.142066 0.180431 -0.334970
  19 0.000003 33.416824 -0.000013 -0.220343 -0.006666 -0.445041
  20 -0.000007 25.522020 0.000016 -0.220343 -0.006666 -0.445041
  21 -3.114341 23.027313 2.596348 0.319737 -0.251836 0.051004
  22 -0.000012 32.306087 -0.000005 0.319737 -0.251837 0.051004
  23 -0.000026 33.416813 0.000011 0.485940 0.119478 0.174760
  24 0.000012 25.522015 -0.000008 0.485940 0.119478 0.174760
  25 0.628891 23.027321 -3.075218 -1.073182 -0.355700 0.109757
  26 -0.000004 32.306099 0.000002 -1.073182 -0.355700 0.109757
  27 0.000022 33.416832 0.000002 -1.241803 0.071021 0.127590
  28 -0.000000 25.522015 0.000004 -1.241803 0.071022 0.127589
  29 18.861866 29.781389 12.096848 -1.196766 -2.551918 -0.531330
  30 0.000007 15.654121 0.000004 0.128408 -0.032701 0.320778
  31 -0.000006 18.581173 0.000004 0.054339 -0.200186 0.501396
  32 -4.067175 22.808779 2.410897 0.459579 -0.317831 0.482394
  33 0.000000 32.306103 0.000006 0.459578 -0.317831 0.482394
  34 0.000000 33.416836 0.000012 0.313173 -0.287059 0.671297
  35 -0.000007 25.522026 -0.000004 0.313173 -0.287059 0.671297
  36 3.114326 23.027332 2.596346 0.491770 0.666538 0.466855
  37 -0.000005 32.306118 0.000012 0.491770 0.666537 0.466855
  38 -0.000005 33.416821 0.000008 0.068774 -0.105630 0.106781
  39 0.000018 25.969440 0.000005 0.068774 -0.105630 0.106781
  40 -0.628894 23.027323 -3.075201 -0.099377 -0.495333 -0.001554
  41 0.000000 32.306103 -0.000002 -0.099378 -0.495333 -0.001554
  42 0.000008 33.416836 0.000017 -0.245892 -0.514393 0.279415
  43 0.000009 25.522018 -0.000007 -0.245892 -0.514393 0.279415
  44 0.000001 40.587624 -0.000007 -1.307769 1.445736 0.503367
  45 -0.000003 58.152203 -0.000012 1.330106 -2.836910 -0.093888
  46 -0.000026 124.040413 -0.000033 -0.969507 -0.656506 -1.581534
  47 0.000053 158.302170 0.000007 -0.642203 -2.195071 0.306193
  48 0.000006 12.421150 -0.000014 -0.378818 -0.001991 -0.076528
  49 12.733295 21.965252 -6.596042 0.947995 -1.437767 -1.351164
  50 0.000010 14.996460 0.000008 -0.004557 0.000352 -0.116145
  51 -10.850943 19.295563 -1.254925 1.252280 -1.328292 -0.694161
  52 0.000001 11.953240 0.000004 -0.027294 -0.013696 0.162291
  53 0.592644 23.063009 -4.960644 1.261942 -1.353948 -1.169142
  54 0.000001 7.840454 0.000014 -0.035466 0.008994 -0.061702
  55 -17.577909 10.771970 1.287332 -0.073213 -3.121469 1.107655
  56 -0.000001 9.450184 0.000001 1.570799 1.453331 1.581945
  57 0.000001 40.587624 -0.000007 -2.189600 -0.766544 0.489051
  58 0.000005 58.166756 0.000010 0.532695 -2.590609 0.171723
  59 -0.000016 124.040413 -0.000043 -0.935786 0.868794 1.789191
  60 -0.000047 158.302155 0.000006 -0.271337 2.195071 -0.306193
  61 -0.000003 12.421153 -0.000000 -0.007952 0.001991 0.076527
  62 -12.733345 21.965231 -6.596087 -1.412925 1.056275 -1.034117
  63 -0.000003 14.996469 0.000013 -0.003511 -0.002926 -0.501297
  64 10.850958 19.295563 -1.254987 -1.373434 1.177199 -1.955024
  65 0.000003 11.953227 -0.000003 -0.030184 -0.004631 -0.779481
  66 -0.592618 23.063002 -4.960674 -1.408041 1.155343 -1.521269
  67 -0.000017 7.840449 0.000001 -0.023714 -0.027865 -0.555574
  68 17.577858 10.771984 1.287362 -0.048081 3.082811 -0.490885
  69 0.000003 9.450197 0.000010 1.570797 -0.835884 -1.581941
  70 30.706032 25.966084 28.162127 1.266937 -1.174002 2.190330
  71 0.000003 21.459736 0.000002 1.468997 0.000005 -0.000005
  72 -0.000000 53.415695 0.000002 -0.762932 -0.069082 -0.076443
  73 0.000005 41.685040 0.000016 -0.770753 -0.182459 0.164299
  74 -30.706656 25.982704 28.162098 1.072135 -0.538678 2.936040
  75 0.000007 21.459734 0.000002 1.365462 0.000000 0.000000
  76 -0.000001 53.415722 0.000006 -0.932555 -0.131475 0.110277
  77 0.000008 41.685055 0.000009 -0.691758 -0.277893 -0.000469
  78 30.688980 -36.950348 49.621845 -3.141593 -0.000000 -0.000271
  79 -30.723707 -36.933720 49.621811 -3.141593 -0.000000 -0.000271
  80 87.689186 19.532158 44.221695 -0.000000 0.000000 -0.000271
  81 2.335705 50.199604 74.016090 0.000000 -0.000000 -0.000271
  82 3.257178 -83.615295 -120.727753 -0.370866 -1.570796 0.000000
  83 -0.000000 16.827707 -0.000006 -0.000000 -0.000000 -0.219015
  84 3.257196 -83.615311 120.816299 -0.000000 -1.570796 0.000000
  85 -0.000002 16.827730 0.000001 0.000000 0.000000 -0.398433
  time 6
  0 18.195469 -0.072209 345.967377 1.570796 -0.000000 3.141593
  1 -68.359573 -184.162750 -147.032013 -1.570796 -1.570796 0.000000
  2 85.048035 -185.881119 -138.523331 -1.570796 -1.570796 0.000000
  3 -7.567557 -241.943207 188.574890 -1.570796 -1.570796 0.000000
  4 146.429230 -165.439072 147.310379 -1.570796 -1.570796 0.000000
  5 -35.647125 -342.921143 0.051621 -1.570796 1.570796 0.000000
  6 -0.000001 -24.555782 -0.000000 1.528304 -0.022298 3.135943
  7 0.000002 32.302849 0.000003 -0.050040 -0.142047 0.023038
  8 0.000000 34.389359 0.000002 0.095150 0.018711 -0.113660
  9 0.000003 27.110134 0.000004 -0.118582 0.070032 -0.205707
  10 0.000002 38.788410 0.000003 0.344177 0.107968 -0.171300
  11 0.000007 40.587605 0.000001 0.401815 0.057182 0.030329
  12 0.000005 24.940540 0.000004 -0.304098 0.101856 0.336605
  13 0.000005 17.791578 0.000000 -0.623588 0.156781 -0.113097
  14 -18.960354 29.781357 12.096857 -1.434724 2.694986 -0.115210
  15 -0.000004 15.654115 -0.000003 0.171067 -0.511271 -0.121986
  16 0.000006 18.581158 0.000001 0.130694 -0.332108 -0.277372
  17 4.067160 22.808741 2.410882 -0.162213 0.167394 -0.370852
  18 -0.000015 32.306087 -0.000012 -0.162214 0.167394 -0.370852
  19 -0.000010 33.416843 0.000017 -0.220625 -0.010853 -0.467738
  20 0.000008 25.522013 0.000002 -0.220625 -0.010853 -0.467738
  21 -3.114336 23.027317 2.596353 0.344030 -0.256928 0.106794
  22 -0.000022 32.306080 -0.000001 0.344029 -0.256928 0.106794
  23 -0.000002 33.416813 0.000004 0.445546 0.118325 0.216256
  24 -0.000000 25.522022 -0.000010 0.445546 0.118325 0.216256
  25 0.628882 23.027283 -3.075228 -1.010491 -0.342881 0.091882
  26 0.000008 32.306107 0.000025 -1.010491 -0.342881 0.091882
  27 0.000018 33.416821 0.000005 -1.169412 0.039674 0.130502
  28 0.000002 25.522013 -0.000001 -1.169412 0.039674 0.130502
  29 18.861862 29.781372 12.096843 -1.226273 -2.561865 -0.515321
  30 0.000006 15.654118 0.000006 0.108090 -0.022111 0.307928
  31 -0.000018 18.581163 -0.000010 0.036358 -0.190560 0.487550
  32 -4.067190 22.808777 2.410892 0.438981 -0.304485 0.455749
  33 0.000014 32.306091 0.000000 0.438980 -0.304484 0.455749
  34 0.000018 33.416824 0.000012 0.302987 -0.241029 0.631633
  35 0.000002 25.522022 0.000013 0.302987 -0.241029 0.631633
  36 3.114326 23.027325 2.596356 0.513266 0.653124 0.449409
  37 -0.000001 32.306099 0.000015 0.513266 0.653124 0.449409
  38 0.000008 33.416836 -0.000000 0.116174 -0.072670 0.098548
  39 0.000005 25.522015 -0.000001 0.116174 -0.072670 0.098548
  40 -0.628893 23.027330 -3.075212 -0.113560 -0.489614 0.011854
  41 -0.000003 32.306107 -0.000013 -0.113561 -0.489614 0.011854
  42 -0.000003 33.416836 0.000004 -0.295722 -0.492491 0.312124
  43 0.000000 25.522003 0.000000 -0.295723 -0.492491 0.312124
  44 0.000007 40.587605 0.000001 -1.307768 1.445736 0.503368
  45 -0.000013 58.152191 -0.000005 1.366201 3.026177 0.055394
  46 -0.000002 124.040405 -0.000001 -0.967439 -0.705805 -1.625156
  47 0.000027 158.302139 0.000009 -0.642203 -2.195071 0.306193
  48 -0.000010 12.421157 0.000003 -0.378818 -0.001991 -0.076528
  49 12.733362 21.965260 -6.596073 -1.441944 -0.924645 1.068743
  50 0.000000 14.996462 0.000008 -0.003093 0.003365 0.634274
  51 -10.850995 19.295586 -1.255002 -1.420088 -1.046190 2.006953
  52 0.000002 11.953217 -0.000007 -0.029304 0.008592 0.912402
  53 0.592645 23.062986 -4.960654 -1.444740 -1.023724 1.562581
  54 -0.000001 7.840451 -0.000006 -0.019810 0.030763 0.688577
  55 -17.577908 10.771961 1.287350 -0.039860 -3.076958 0.357783
  56 -0.000011 9.450201 0.000007 1.570797 0.702908 1.581941
  57 0.000007 40.587605 0.000001 -2.189599 -0.766544 0.489051
  58 0.000015 58.166756 0.000001 0.354172 -2.435152 0.090739
  59 -0.000040 124.040405 -0.000016 -0.966968 0.712076 1.630851
  60 -0.000003 158.302155 0.000022 -0.271338 2.195071 -0.306193
  61 -0.000001 12.421150 0.000005 -0.007952 0.001991 0.076528
  62 -12.733342 21.965269 -6.596082 -1.398395 1.102901 -1.017645
  63 -0.000002 14.996454 -0.000002 -0.003646 -0.002756 -0.454030
  64 10.850952 19.295584 -1.254943 -1.348054 1.223432 -1.927805
  65 -0.000011 11.953218 -0.000001 -0.030369 -0.003201 -0.732235
  66 -0.592639 23.063002 -4.960657 -1.388412 1.201911 -1.500034
  67 -0.000020 7.840448 -0.000003 -0.025004 -0.026714 -0.508304
  68 17.577927 10.771940 1.287366 -0.050804 3.085148 -0.538173
  69 0.000007 9.450208 -0.000010 1.570797 -0.883151 -1.581942
  70 30.706028 25.966084 28.162127 0.574225 -0.980124 2.607683
  71 -0.000005 21.459728 0.000006 1.185024 0.000003 -0.000005
  72 -0.000002 53.415688 0.000000 -0.803564 -0.066166 -0.077718
  73 -0.000006 41.685055 0.000003 -0.795480 -0.176164 0.168112
  74 -30.706665 25.982718 28.162092 -1.539781 -2.363324 -0.343207
  75 0.000004 21.459732 -0.000005 1.344805 -0.000001 0.000002
  76 -0.000004 53.415710 0.000001 -0.734477 -0.247824 0.087621
  77 0.000002 41.685066 0.000011 -0.301136 -0.389426 -0.168283
  78 30.688988 -36.950348 49.621845 3.141593 0.000000 -0.000271
  79 -30.723715 -36.933727 49.621826 3.141593 0.000000 -0.000271
  80 72.476852 -8.034423 63.875031 -0.000000 0.000000 -0.000271
  81 8.172402 68.442291 50.806206 -0.000000 -0.000000 -0.000271
  82 3.257178 -83.615295 -120.727753 -0.370866 -1.570796 0.000000
  83 -0.000000 16.827707 -0.000006 -0.000000 -0.000000 0.531410
  84 3.257196 -83.615311 120.816299 -0.000000 -1.570796 0.000000
  85 -0.000002 16.827730 0.000001 -0.000000 0.000000 -0.351165
  time 7
  0 18.195469 -0.072209 345.967377 1.570796 -0.000000 3.141593
  1 -68.359573 -184.162750 -147.032013 -1.570796 -1.570796 0.000000
  2 85.048035 -185.881119 -138.523331 -1.570796 -1.570796 0.000000
  3 9.595907 -252.871506 163.543137 -1.570796 -1.570796 0.000000
  4 146.429230 -187.781982 147.310379 -1.570796 -1.570796 0.000000
  5 -35.647125 -342.921143 0.051621 -1.570796 1.570796 0.000000
  6 -0.000001 -24.555782 -0.000000 1.506569 -0.041055 3.136444
  7 -0.000002 32.302845 0.000002 -0.003856 -0.146065 0.096272
  8 0.000003 34.389359 -0.000001 -0.130378 0.003773 -0.038086
  9 0.000002 27.110134 0.000000 -0.105602 0.074783 -0.211935
  10 0.000003 38.788414 -0.000001 0.254960 0.023681 -0.009266
  11 0.000001 40.587612 0.000001 0.337474 0.005581 -0.054976
  12 0.000001 24.940544 0.000000 -0.236403 0.048126 0.212660
  13 -0.000000 17.791578 -0.000001 -0.623588 0.156781 -0.113097
  14 -18.960358 29.781384 12.096861 -1.463585 2.526370 -0.013319
  15 0.000002 15.654112 -0.000008 0.172449 -0.414687 -0.305077
  16 -0.000003 18.581165 0.000004 0.100341 -0.244948 -0.453608
  17 4.067180 22.808750 2.410883 -0.365995 -0.047389 -0.792210
  18 0.000006 32.306087 -0.000005 -0.365995 -0.047389 -0.792210
  19 -0.000010 33.416821 0.000002 -0.216172 -0.062715 -0.750460
  20 0.000008 25.521990 0.000013 -0.216172 -0.062714 -0.750460
  21 -3.114331 23.027300 2.596331 0.606934 -0.425911 0.815238
  22 -0.000013 32.306099 0.000000 0.606933 -0.425911 0.815238
  23 0.000002 33.416813 0.000005 -0.073547 0.256868 0.750920
  24 0.000002 25.522005 -0.000008 -0.073547 0.256869 0.750920
  25 0.628897 23.027321 -3.075207 -0.257181 -0.113285 -0.039756
  26 -0.000002 32.306080 -0.000022 -0.257181 -0.113285 -0.039756
  27 -0.000005 33.416828 0.000011 -0.197907 -0.318440 -0.033849
  28 -0.000006 25.521994 -0.000010 -0.197907 -0.318440 -0.033849
  29 18.861862 29.781384 12.096848 -1.562519 -2.713923 -0.354870
  30 0.000005 15.654120 0.000005 -0.156006 0.085790 0.131278
  31 -0.000006 18.581163 -0.000010 -0.195995 -0.092691 0.303395
  32 -4.067188 22.808771 2.410902 0.159996 -0.185905 0.107871
  33 -0.000003 32.306107 0.000005 0.159996 -0.185904 0.107871
  34 -0.000005 33.416821 0.000005 0.016476 0.279241 0.070183
  35 -0.000003 25.522026 0.000009 0.016476 0.279241 0.070183
  36 3.114326 23.027323 2.596367 0.789350 0.512884 0.216821
  37 -0.000009 32.306091 -0.000026 0.789350 0.512884 0.216821
  38 -0.000005 33.416840 -0.000004 0.748323 0.366237 0.140894
  39 0.000006 19.972784 0.000007 0.748323 0.366237 0.140894
  40 -0.628903 23.027323 -3.075199 -0.278464 -0.405587 0.166866
  41 -0.000009 32.306103 -0.000000 -0.278464 -0.405586 0.166866
  42 0.000013 33.416828 0.000002 -0.818940 -0.125966 0.590259
  43 -0.000003 25.522005 -0.000021 -0.818941 -0.125966 0.590259
  44 0.000001 40.587612 0.000001 -1.307767 1.445736 0.503369
  45 -0.000003 58.152218 -0.000001 0.883974 2.764344 0.186333
  46 -0.000016 124.040382 0.000019 -0.963506 -0.746050 -1.662387
  47 0.000024 158.302155 0.000015 -0.642203 -2.195071 0.306193
  48 -0.000009 12.421153 -0.000008 -0.378818 -0.001991 -0.076528
  49 12.733289 21.965235 -6.596040 -1.430771 -0.983215 1.055050
  50 -0.000000 14.996466 0.000008 -0.003287 0.003177 0.575171
  51 -10.850975 19.295561 -1.254937 -1.402723 -1.104546 1.987224
  52 0.000005 11.953213 -0.000018 -0.029760 0.006847 0.853323
  53 0.592616 23.062975 -4.960677 -1.430983 -1.082307 1.546756
  54 0.000011 7.840436 -0.000002 -0.021593 0.029539 0.629460
  55 -17.577894 10.771961 1.287325 -0.043611 -3.079424 0.416954
  56 -0.000010 9.450201 -0.000014 1.570797 0.762011 1.581941
  57 0.000001 40.587612 0.000001 -2.189599 -0.766544 0.489051
  58 -0.000005 58.166771 0.000002 0.475015 -1.954190 0.252920
  59 -0.000012 124.040459 -0.000031 -0.966404 0.718802 1.637001
  60 0.000010 158.302155 0.000028 -0.271337 2.195071 -0.306193
  61 -0.000003 12.421150 -0.000002 -0.007952 0.001991 0.076528
  62 -12.733353 21.965260 -6.596073 1.041397 1.416988 1.445530
  63 -0.000000 14.996468 0.000009 -0.004564 -0.000240 0.140896
  64 10.850938 19.295542 -1.254976 1.280805 1.304675 0.723632
  65 -0.000006 11.953226 -0.000010 -0.026947 0.014368 -0.137547
  66 -0.592632 23.063007 -4.960636 1.292704 1.330253 1.200724
  67 0.000003 7.840440 0.000003 -0.035677 -0.008114 0.086437
  68 17.577887 10.771934 1.287341 -0.073687 3.123286 -1.132344
  69 0.000009 9.450206 -0.000007 1.570801 -1.478082 -1.581944
  70 30.706036 25.966097 28.162125 0.773565 -0.676714 2.863805
  71 -0.000007 21.459736 -0.000006 1.018369 0.000003 -0.000005
  72 -0.000015 53.415695 -0.000002 -1.312911 -0.035633 -0.102768
  73 0.000006 41.685047 0.000004 -1.099621 -0.091485 0.201541
  74 -30.706661 25.982716 28.162098 1.121050 -0.760165 2.811061
  75 -0.000010 21.459732 0.000001 1.521723 0.000001 -0.000000
  76 0.000000 53.415688 -0.000006 -0.932555 -0.131475 0.110277
  77 -0.000002 41.685040 0.000009 -0.691758 -0.277893 -0.000469
  78 30.688988 -36.950352 49.621838 -3.141593 -0.000000 -0.000271
  79 -30.723707 -36.933720 49.621819 -3.141593 -0.000000 -0.000271
  80 70.122490 10.944281 80.481522 0.000000 -0.000000 -0.000271
  81 10.737730 51.488930 60.686489 -0.000000 -0.000001 -0.000271
  82 3.257178 -83.615295 -120.727753 -0.370866 -1.570796 0.000000
  83 -0.000000 16.827707 -0.000006 -0.000000 -0.000000 0.472307
  84 3.257196 -83.615311 120.816299 -0.000000 -1.570796 0.000000
  85 -0.000002 16.827730 0.000001 0.000000 0.000000 0.243765
  time 8
  0 18.195469 -0.072209 345.967377 1.570796 -0.000000 3.141593
  1 -91.324310 -146.937088 -146.342606 -1.570796 -1.570796 0.000000
  2 85.048035 -185.881119 -138.523331 -1.570796 -1.570796 0.000000
  3 3.874754 -234.141724 171.887039 -1.570796 -1.570796 0.000000
  4 146.429230 -185.980545 147.310379 -1.570796 -1.570796 0.000000
  5 -35.647125 -342.921143 0.051621 -1.570796 1.570796 0.000000
  6 -0.000001 -24.555782 -0.000000 1.508322 -0.039543 3.136389
  7 -0.000001 32.302841 0.000004 -0.054100 -0.141854 0.016612
  8 0.000003 34.389362 -0.000000 -0.112203 0.004340 -0.044269
  9 0.000001 27.110140 0.000000 0.053612 0.140155 -0.284057
  10 -0.000001 38.788422 0.000001 0.262623 0.029916 -0.022558
  11 0.000006 40.587612 -0.000001 0.277682 -0.051211 -0.136896
  12 0.000010 24.940527 0.000003 -0.162680 0.003273 0.085534
  13 -0.000005 17.791588 -0.000002 -0.623589 0.156781 -0.113098
  14 -18.960354 29.781376 12.096862 -1.472579 2.356073 0.097419
  15 -0.000003 15.654119 -0.000008 0.155266 -0.319434 -0.481375
  16 -0.000001 18.581156 -0.000016 0.055499 -0.164223 -0.629371
  17 4.067187 22.808758 2.410886 -0.353250 -0.027351 -0.760291
  18 -0.000003 32.306095 0.000002 -0.353250 -0.027351 -0.760290
  19 0.000003 33.416817 0.000013 -0.217071 -0.058615 -0.727706
  20 0.000003 25.521996 0.000008 -0.217071 -0.058615 -0.727706
  21 -3.114322 23.027313 2.596344 0.591038 -0.406744 0.759763
  22 -0.000009 32.306099 -0.000004 0.591038 -0.406744 0.759763
  23 -0.000003 33.416824 0.000006 -0.034033 0.235619 0.710003
  24 -0.000007 25.522018 -0.000001 -0.034033 0.235620 0.710003
  25 0.628905 23.027325 -3.075204 -0.314181 -0.134135 -0.036306
  26 0.000005 32.306091 -0.000008 -0.314180 -0.134135 -0.036306
  27 -0.000001 33.416821 -0.000011 -0.277836 -0.298264 -0.008484
  28 0.000013 25.521996 0.000022 -0.277836 -0.298264 -0.008484
  29 18.861864 29.781393 12.096856 -1.537537 -2.700107 -0.365110
  30 -0.000006 15.654121 -0.000005 -0.134085 0.078908 0.146488
  31 -0.000004 18.581161 0.000005 -0.176808 -0.098940 0.318897
  32 -4.067190 22.808765 2.410889 0.183390 -0.191789 0.136431
  33 0.000007 32.306095 0.000007 0.183390 -0.191789 0.136431
  34 0.000013 33.416813 -0.000001 0.050267 0.245323 0.121269
  35 -0.000000 25.522017 0.000013 0.050267 0.245323 0.121269
  36 3.114324 23.027317 2.596351 0.766787 0.522041 0.236283
  37 -0.000000 32.306103 -0.000007 0.766786 0.522041 0.236283
  38 0.000003 33.416813 -0.000012 0.693310 0.332480 0.126357
  39 0.000000 20.420204 0.000001 0.693311 0.332480 0.126357
  40 -0.628895 23.027313 -3.075207 -0.265973 -0.413177 0.155193
  41 0.000006 32.306107 -0.000001 -0.265974 -0.413177 0.155193
  42 -0.000004 33.416817 -0.000012 -0.782932 -0.159348 0.576474
  43 -0.000005 25.522017 -0.000003 -0.782933 -0.159348 0.576474
  44 0.000006 40.587612 -0.000001 -1.307767 1.445736 0.503369
  45 -0.000004 58.152237 0.000021 0.880418 -3.079432 0.256321
  46 0.000001 124.040398 0.000018 -0.968545 -0.599199 -1.532923
  47 0.000022 158.302185 0.000034 -0.642204 -2.195071 0.306194
  48 -0.000008 12.421160 -0.000000 -0.378818 -0.001991 -0.076528
  49 12.733311 21.965239 -6.596039 1.134862 -1.386526 -1.540333
  50 0.000002 14.996476 -0.000003 -0.004571 0.000082 -0.175248
  51 -10.850941 19.295544 -1.254968 1.312814 -1.271600 -0.756959
  52 0.000013 11.953222 -0.000004 -0.026438 -0.015285 0.103203
  53 0.592628 23.062962 -4.960649 1.326447 -1.297061 -1.235609
  54 0.000004 7.840440 -0.000010 -0.035935 0.006884 -0.120769
  55 -17.577877 10.771914 1.287369 -0.074271 -3.125825 1.166607
  56 -0.000003 9.450201 0.000006 1.570802 1.512435 1.581947
  57 0.000006 40.587612 -0.000001 -2.189599 -0.766544 0.489050
  58 0.000004 58.166756 -0.000003 0.484319 -2.293824 0.166547
  59 -0.000026 124.040367 -0.000035 -0.953788 0.803701 1.719013
  60 -0.000010 158.302063 -0.000039 -0.271338 2.195071 -0.306193
  61 0.000011 12.421139 0.000003 -0.007952 0.001991 0.076528
  62 -12.733328 21.965256 -6.596038 0.834639 1.455311 1.236934
  63 0.000007 14.996458 -0.000005 -0.004548 -0.000455 0.093629
  64 10.850958 19.295549 -1.254938 1.220998 1.349566 0.662020
  65 -0.000017 11.953222 -0.000015 -0.027596 0.013078 -0.184801
  66 -0.592629 23.062992 -4.960639 1.227450 1.375281 1.133905
  67 0.000000 7.840442 0.000004 -0.035254 -0.009791 0.039198
  68 17.577885 10.771935 1.287388 -0.072743 3.119827 -1.085194
  69 -0.000001 9.450202 -0.000004 1.570797 -1.430814 -1.581942
  70 30.706036 25.966078 28.162123 -1.704342 -2.600759 -0.206572
  71 -0.000005 21.459728 -0.000003 0.604590 0.000001 -0.000003
  72 -0.000005 53.415680 0.000003 -1.272285 -0.037558 -0.100233
  73 0.000011 41.685040 0.000003 -1.075412 -0.098615 0.199840
  74 -30.706663 25.982712 28.162106 0.927874 -0.744667 2.821528
  75 -0.000002 21.459719 -0.000001 1.353286 0.000000 0.000000
  76 0.000008 53.415680 0.000012 -1.126296 -0.013024 0.109465
  77 -0.000000 41.685036 0.000002 -1.048660 -0.116238 0.108575
  78 30.688993 -36.950356 49.621838 -3.141593 -0.000000 -0.000271
  79 -30.723705 -36.933727 49.621834 -3.141593 -0.000000 -0.000271
  80 69.793190 39.622196 87.198982 -0.000000 0.000000 -0.000271
  81 13.303069 34.535568 70.566757 -0.000000 -0.000000 -0.000271
  82 3.257178 -83.615295 -120.727753 -0.370866 -1.570796 0.000000
  83 -0.000000 16.827707 -0.000006 -0.000000 -0.000000 -0.278118
  84 3.257196 -83.615311 120.816299 -0.000000 -1.570796 0.000000
  85 -0.000002 16.827730 0.000001 0.000000 0.000000 0.196498
  time 9
  0 18.195469 -0.072209 345.967377 1.570796 -0.000000 3.141593
  1 -68.359573 -184.162750 -147.032013 -1.570796 -1.570796 0.000000
  2 85.048035 -185.881119 -138.523331 -1.570796 -1.570796 0.000000
  3 9.595907 -252.871506 163.543137 -1.570796 -1.570796 0.000000
  4 146.429230 -147.547195 147.310379 -1.570796 -1.570796 0.000000
  5 -35.647125 -342.921143 0.051621 -1.570796 1.570796 0.000000
  6 -0.000001 -24.555782 -0.000000 1.528304 -0.022298 3.135943
  7 0.000002 32.302849 0.000003 -0.050040 -0.142047 0.023038
  8 0.000000 34.389359 0.000002 0.095150 0.018711 -0.113660
  9 0.000003 27.110134 0.000004 0.040925 0.134479 -0.278626
  10 0.000004 38.788422 -0.000000 0.344177 0.107968 -0.171300
  11 0.000010 40.587605 0.000005 0.401815 0.057183 0.030328
  12 0.000006 24.940540 -0.000007 -0.304098 0.101855 0.336605
  13 0.000000 17.791584 0.000000 -0.623588 0.156781 -0.113098
  14 -18.960358 29.781376 12.096858 -1.434724 2.694986 -0.115209
  15 0.000006 15.654128 0.000015 0.171067 -0.511271 -0.121986
  16 -0.000012 18.581156 -0.000011 0.130694 -0.332108 -0.277371
  17 4.067173 22.808756 2.410889 -0.162214 0.167394 -0.370852
  18 -0.000016 32.306065 -0.000029 -0.162214 0.167394 -0.370852
  19 0.000020 33.416828 0.000003 -0.220625 -0.010853 -0.467738
  20 -0.000005 25.521999 -0.000025 -0.220625 -0.010853 -0.467738
  21 -3.114320 23.027321 2.596355 0.344029 -0.256928 0.106794
  22 -0.000024 32.306084 -0.000000 0.344029 -0.256928 0.106794
  23 0.000005 33.416817 0.000000 0.445546 0.118326 0.216256
  24 -0.000014 25.522022 -0.000004 0.445546 0.118325 0.216256
  25 0.628887 23.027298 -3.075224 -1.010491 -0.342881 0.091882
  26 -0.000008 32.306103 -0.000015 -1.010491 -0.342881 0.091882
  27 0.000002 33.416824 0.000013 -1.169412 0.039674 0.130502
  28 0.000015 25.522003 -0.000003 -1.169412 0.039674 0.130502
  29 18.861868 29.781395 12.096849 -1.226273 -2.561865 -0.515321
  30 -0.000008 15.654120 -0.000002 0.108090 -0.022112 0.307928
  31 0.000001 18.581154 0.000009 0.036357 -0.190561 0.487550
  32 -4.067169 22.808764 2.410906 0.438981 -0.304485 0.455749
  33 0.000010 32.306110 0.000006 0.438981 -0.304484 0.455749
  34 0.000008 33.416828 -0.000020 0.302987 -0.241029 0.631633
  35 -0.000004 25.522017 0.000007 0.302987 -0.241029 0.631634
  36 3.114332 23.027323 2.596360 0.513266 0.653124 0.449409
  37 -0.000009 32.306091 0.000000 0.513266 0.653124 0.449409
  38 0.000001 33.416836 -0.000006 0.116174 -0.072670 0.098548
  39 -0.000007 25.522018 0.000014 0.116174 -0.072670 0.098548
  40 -0.628895 23.027309 -3.075197 -0.113560 -0.489614 0.011854
  41 0.000001 32.306103 -0.000000 -0.113561 -0.489614 0.011854
  42 0.000018 33.416817 0.000012 -0.295722 -0.492491 0.312124
  43 -0.000010 25.522001 0.000005 -0.295723 -0.492491 0.312124
  44 0.000010 40.587605 0.000005 -1.307768 1.445736 0.503368
  45 0.000004 58.152222 -0.000007 1.507186 3.122990 -0.073527
  46 -0.000021 124.040375 0.000003 -0.966871 -0.713263 -1.631934
  47 0.000008 158.302185 -0.000013 -0.642203 -2.195071 0.306193
  48 -0.000009 12.421164 0.000004 -0.378818 -0.001991 -0.076528
  49 12.733315 21.965235 -6.596052 0.947993 -1.437767 -1.351164
  50 0.000005 14.996469 0.000005 -0.004557 0.000352 -0.116146
  51 -10.850975 19.295534 -1.254965 1.252278 -1.328292 -0.694160
  52 0.000008 11.953218 -0.000001 -0.027294 -0.013697 0.162290
  53 0.592640 23.062967 -4.960646 1.261942 -1.353948 -1.169143
  54 -0.000003 7.840440 0.000009 -0.035466 0.008994 -0.061701
  55 -17.577904 10.771971 1.287362 -0.073214 -3.121469 1.107656
  56 -0.000000 9.450193 0.000008 1.570798 1.453331 1.581942
  57 0.000010 40.587605 0.000005 -2.189600 -0.766544 0.489051
  58 0.000006 58.166763 0.000009 0.469887 -2.327448 0.269182
  59 -0.000022 124.040459 -0.000054 -0.938140 0.861777 1.781241
  60 0.000008 158.302216 -0.000025 -0.271337 2.195071 -0.306193
  61 0.000005 12.421149 -0.000004 -0.007952 0.001991 0.076528
  62 -12.733317 21.965260 -6.596094 -1.398396 1.102901 -1.017645
  63 0.000000 14.996465 0.000012 -0.003645 -0.002757 -0.454030
  64 10.850983 19.295568 -1.254966 -1.348053 1.223432 -1.927804
  65 0.000005 11.953221 0.000001 -0.030369 -0.003200 -0.732235
  66 -0.592627 23.063026 -4.960644 -1.388412 1.201911 -1.500033
  67 -0.000003 7.840439 0.000002 -0.025004 -0.026714 -0.508304
  68 17.577909 10.771963 1.287401 -0.050805 3.085147 -0.538173
  69 0.000001 9.450207 0.000004 1.570796 -0.883152 -1.581941
  70 30.706028 25.966084 28.162127 -0.534889 -1.944104 -1.057170
  71 -0.000003 21.459728 0.000003 0.416248 0.000000 -0.000002
  72 -0.000003 53.415718 -0.000007 -0.803564 -0.066166 -0.077718
  73 -0.000002 41.685066 0.000025 -0.795480 -0.176164 0.168112
  74 -30.706665 25.982718 28.162092 -1.608155 -2.778990 -0.130034
  75 -0.000003 21.459730 -0.000006 0.230506 0.000000 0.000000
  76 -0.000001 53.415714 0.000004 -0.734477 -0.247824 0.087621
  77 -0.000009 41.685043 -0.000006 -0.301136 -0.389426 -0.168283
  78 30.688988 -36.950348 49.621845 3.141593 0.000000 -0.000271
  79 -30.723715 -36.933727 49.621826 3.141593 0.000000 -0.000271
  80 100.879097 47.099285 34.457394 -0.000000 0.000000 -0.000271
  81 -3.500993 31.956953 97.225967 -0.000000 -0.000000 -0.000271
  82 3.257178 -83.615295 -120.727753 -0.370866 -1.570796 0.000000
  83 -0.000000 16.827707 -0.000006 -0.000000 -0.000000 -0.219015
  84 3.257196 -83.615311 120.816299 -0.000000 -1.570796 0.000000
  85 -0.000002 16.827730 0.000001 -0.000000 0.000000 -0.351165
end
