version 1
nodes
0 "v0" -1
1 "v1" -1
2 "v2" -1
3 "v3" -1
4 "v4" -1
5 "v5" -1
6 "v6" -1
7 "v7" -1
8 "v8" -1
9 "v9" -1
10 "v10" -1
11 "v11" -1
12 "v12" -1
13 "v13" -1
14 "v14" -1
15 "v15" -1
16 "v16" -1
17 "v17" -1
18 "v18" -1
19 "v19" -1
20 "v20" -1
21 "v21" -1
22 "v22" -1
23 "v23" -1
24 "v24" -1
25 "v25" -1
26 "v26" -1
27 "v27" -1
28 "v28" -1
29 "v29" -1
30 "v30" -1
31 "v31" -1
32 "v32" -1
33 "v33" -1
34 "v34" -1
35 "v35" -1
36 "v36" -1
37 "v37" -1
38 "v38" -1
39 "v39" -1
40 "v40" -1
41 "v41" -1
42 "v42" -1
43 "v43" -1
44 "v44" -1
45 "v45" -1
46 "v46" -1
47 "v47" -1
48 "v48" -1
49 "v49" -1
50 "v50" -1
51 "v51" -1
52 "v52" -1
53 "v53" -1
54 "v54" -1
55 "v55" -1
56 "v56" -1
57 "v57" -1
58 "v58" -1
59 "v59" -1
60 "v60" -1
61 "v61" -1
62 "v62" -1
63 "v63" -1
64 "v64" -1
65 "v65" -1
66 "v66" -1
67 "v67" -1
68 "v68" -1
69 "v69" -1
70 "v70" -1
71 "v71" -1
72 "v72" -1
73 "v73" -1
74 "v74" -1
75 "v75" -1
76 "v76" -1
77 "v77" -1
78 "v78" -1
79 "v79" -1
80 "v80" -1
81 "v81" -1
82 "v82" -1
83 "v83" -1
84 "v84" -1
85 "v85" -1
86 "v86" -1
87 "v87" -1
88 "v88" -1
89 "v89" -1
90 "v90" -1
91 "v91" -1
92 "v92" -1
93 "v93" -1
94 "v94" -1
95 "v95" -1
96 "v96" -1
97 "v97" -1
98 "v98" -1
99 "v99" -1
100 "v100" -1
101 "v101" -1
102 "v102" -1
103 "v103" -1
104 "v104" -1
105 "v105" -1
106 "v106" -1
107 "v107" -1
108 "v108" -1
109 "v109" -1
110 "v110" -1
111 "v111" -1
112 "v112" -1
113 "v113" -1
114 "v114" -1
115 "v115" -1
116 "v116" -1
117 "v117" -1
118 "v118" -1
119 "v119" -1
120 "v120" -1
121 "v121" -1
122 "v122" -1
123 "v123" -1
124 "v124" -1
125 "v125" -1
126 "v126" -1
127 "v127" -1
128 "v128" -1
129 "v129" -1
130 "v130" -1
131 "v131" -1
132 "v132" -1
133 "v133" -1
134 "v134" -1
135 "v135" -1
136 "v136" -1
137 "v137" -1
138 "v138" -1
139 "v139" -1
140 "v140" -1
141 "v141" -1
142 "v142" -1
143 "v143" -1
144 "v144" -1
145 "v145" -1
146 "v146" -1
147 "v147" -1
148 "v148" -1
149 "v149" -1
150 "v150" -1
151 "v151" -1
152 "v152" -1
153 "v153" -1
154 "v154" -1
155 "v155" -1
156 "v156" -1
157 "v157" -1
158 "v158" -1
159 "v159" -1
160 "v160" -1
161 "v161" -1
162 "v162" -1
163 "v163" -1
164 "v164" -1
165 "v165" -1
166 "v166" -1
167 "v167" -1
168 "v168" -1
169 "v169" -1
170 "v170" -1
171 "v171" -1
172 "v172" -1
173 "v173" -1
174 "v174" -1
175 "v175" -1
176 "v176" -1
177 "v177" -1
178 "v178" -1
179 "v179" -1
180 "v180" -1
181 "v181" -1
182 "v182" -1
183 "v183" -1
184 "v184" -1
185 "v185" -1
186 "v186" -1
187 "v187" -1
188 "v188" -1
189 "v189" -1
190 "v190" -1
191 "v191" -1
192 "v192" -1
193 "v193" -1
194 "v194" -1
195 "v195" -1
196 "v196" -1
end
skeleton
  time 0
  0 3.705348 -9.745314 -16.202682 0.000000 -0.000000 -1.570796
  1 3.705347 -22.372782 -16.202682 0.000000 -0.000000 -1.570796
  2 2.899145 -9.745313 -19.806099 0.000000 -0.000000 -1.570796
  3 2.899145 -22.372780 -19.806099 0.000000 -0.000000 -1.570796
  4 0.016409 -9.745314 -21.298683 0.000000 -0.000000 -1.570796
  5 0.016408 -22.372780 -21.298683 0.000000 -0.000000 -1.570796
  6 -2.866327 -9.745313 -19.806099 0.000000 -0.000000 -1.570796
  7 -2.866328 -22.372780 -19.806099 0.000000 -0.000000 -1.570796
  8 -3.672530 -9.745314 -16.202682 0.000000 -0.000000 -1.570796
  9 -3.672531 -22.372780 -16.202682 0.000000 -0.000000 -1.570796
  10 -2.488506 -9.745314 -12.599269 0.000000 -0.000000 -1.570796
  11 -2.488507 -22.372780 -12.599269 0.000000 -0.000000 -1.570796
  12 0.016409 -9.745313 -11.576022 0.000000 -0.000000 -1.570796
  13 0.016408 -22.372780 -11.576022 0.000000 -0.000000 -1.570796
  14 2.521324 -9.745314 -12.599269 0.000000 -0.000000 -1.570796
  15 2.521323 -22.372780 -12.599269 0.000000 -0.000000 -1.570796
  16 2.598663 -10.004910 -15.984287 0.000000 -0.000000 -1.570796
  17 2.034324 -10.004909 -19.646448 0.000000 -0.000000 -1.570796
  18 -2.001507 -10.004909 -19.646448 0.000000 -0.000000 -1.570796
  19 -2.565856 -10.004910 -15.984287 0.000000 -0.000000 -1.570796
  20 -2.001507 -10.004910 -13.461890 0.000000 -0.000000 -1.570796
  21 0.016409 -10.004910 -12.417080 0.000000 -0.000000 -1.570796
  22 2.034324 -10.004910 -13.461890 0.000000 -0.000000 -1.570796
  23 2.598663 -4.051655 -15.984286 0.000000 -0.000000 -1.570796
  24 2.034325 -4.051653 -19.646446 0.000000 -0.000000 -1.570796
  25 -2.001506 -4.051655 -19.646446 0.000000 -0.000000 -1.570796
  26 -2.565856 -4.051655 -15.984286 0.000000 -0.000000 -1.570796
  27 -2.001506 -4.051657 -13.461889 0.000000 -0.000000 -1.570796
  28 0.016409 -4.051655 -12.417079 0.000000 -0.000000 -1.570796
  29 2.034325 -4.051655 -13.461889 0.000000 -0.000000 -1.570796
  30 -1.370576 -22.360970 -17.558048 0.000000 -0.000000 -1.570796
  31 -0.928920 -42.091095 -17.141287 0.000000 -0.000000 -1.570796
  32 -2.737641 -22.360970 -18.478561 0.000000 -0.000000 -1.570796
  33 -1.904142 -42.091095 -17.536417 0.000000 -0.000000 -1.570796
  34 -4.533805 -22.360970 -17.988581 0.000000 -0.000000 -1.570796
  35 -2.854494 -42.091095 -17.142775 0.000000 -0.000000 -1.570796
  36 -5.277799 -22.360970 -16.192421 0.000000 -0.000000 -1.570796
  37 -3.248142 -42.091095 -16.192421 0.000000 -0.000000 -1.570796
  38 -4.533805 -22.360970 -14.396255 0.000000 -0.000000 -1.570796
  39 -2.854494 -42.091095 -15.242071 0.000000 -0.000000 -1.570796
  40 -2.737641 -22.360970 -13.906269 0.000000 -0.000000 -1.570796
  41 -1.904142 -42.091095 -14.848418 0.000000 -0.000000 -1.570796
  42 -1.367112 -22.360970 -14.824782 0.000000 -0.000000 -1.570796
  43 -0.950365 -42.091095 -15.241530 0.000000 -0.000000 -1.570796
  44 1.370475 -22.360970 -14.822765 0.000000 -0.000000 -1.570796
  45 0.953725 -42.091095 -15.239509 0.000000 -0.000000 -1.570796
  46 -2.282730 -22.360970 -13.457138 0.000000 -0.000000 -1.570796
  47 -1.340589 -42.091095 -14.290641 0.000000 -0.000000 -1.570796
  48 -1.792753 -22.360970 -11.660971 0.000000 -0.000000 -1.570796
  49 -0.946941 -42.091095 -13.340284 0.000000 -0.000000 -1.570796
  50 0.003413 -22.360970 -10.916975 0.000000 -0.000000 -1.570796
  51 0.003411 -42.091099 -12.946639 0.000000 -0.000000 -1.570796
  52 1.799577 -22.360970 -11.660971 0.000000 -0.000000 -1.570796
  53 0.953761 -42.091095 -13.340284 0.000000 -0.000000 -1.570796
  54 2.289556 -22.360970 -13.457138 0.000000 -0.000000 -1.570796
  55 1.347409 -42.091095 -14.290641 0.000000 -0.000000 -1.570796
  56 2.737540 -22.360970 -13.902241 0.000000 -0.000000 -1.570796
  57 1.904040 -42.091095 -14.844382 0.000000 -0.000000 -1.570796
  58 4.533707 -22.360970 -14.392220 0.000000 -0.000000 -1.570796
  59 2.854392 -42.091095 -15.238035 0.000000 -0.000000 -1.570796
  60 5.277699 -22.360970 -16.188379 0.000000 -0.000000 -1.570796
  61 3.248040 -42.091095 -16.188379 0.000000 -0.000000 -1.570796
  62 4.533707 -22.360970 -17.984547 0.000000 -0.000000 -1.570796
  63 2.854392 -42.091095 -17.138735 0.000000 -0.000000 -1.570796
  64 2.737540 -22.360970 -18.474533 0.000000 -0.000000 -1.570796
  65 1.904040 -42.091095 -17.532377 0.000000 -0.000000 -1.570796
  66 1.367013 -22.360970 -17.556030 0.000000 -0.000000 -1.570796
  67 0.975171 -42.091095 -17.139269 0.000000 -0.000000 -1.570796
  68 2.307537 -22.360970 -18.923664 0.000000 -0.000000 -1.570796
  69 1.365395 -42.091095 -18.090170 0.000000 -0.000000 -1.570796
  70 1.817559 -22.360970 -20.719830 0.000000 -0.000000 -1.570796
  71 0.971746 -42.091095 -19.040516 0.000000 -0.000000 -1.570796
  72 0.021395 -22.360968 -21.463825 0.000000 -0.000000 -1.570796
  73 0.021394 -42.091095 -19.434168 0.000000 -0.000000 -1.570796
  74 -1.774770 -22.360968 -20.719830 0.000000 -0.000000 -1.570796
  75 -0.928956 -42.091095 -19.040516 0.000000 -0.000000 -1.570796
  76 -2.264750 -22.360970 -18.923664 0.000000 -0.000000 -1.570796
  77 -1.322604 -42.091095 -18.090170 0.000000 -0.000000 -1.570796
  78 1.177628 -19.408327 -20.163734 0.000000 -0.000000 -1.570796
  79 1.177628 -19.408329 -22.341839 0.000000 -0.000000 -1.570796
  80 1.177629 -10.953780 -20.163736 0.000000 -0.000000 -1.570796
  81 1.177629 -10.953781 -22.346268 0.000000 -0.000000 -1.570796
  82 0.016410 -19.408327 -23.288774 0.000000 -0.000000 -1.570796
  83 0.016411 -10.953781 -23.293205 0.000000 -0.000000 -1.570796
  84 -1.228597 -10.953781 -22.346268 0.000000 -0.000000 -1.570796
  85 -1.228597 -10.953780 -20.163736 0.000000 -0.000000 -1.570796
  86 -1.228597 -19.408327 -22.341839 0.000000 -0.000000 -1.570796
  87 -1.228597 -19.408327 -20.163734 0.000000 -0.000000 -1.570796
  88 0.016410 -21.088327 -24.371483 0.000000 -0.000000 -1.570796
  89 -2.279195 -21.088327 -22.624933 0.000000 -0.000000 -1.570796
  90 -2.336223 -21.088329 -19.707489 0.000000 -0.000000 -1.570796
  91 2.285253 -21.088329 -19.707489 0.000000 -0.000000 -1.570796
  92 2.245395 -21.088327 -22.624933 0.000000 -0.000000 -1.570796
  93 -0.616575 -9.098581 -22.023304 0.000000 -0.000000 -1.570796
  94 -0.616575 -5.019194 -24.215908 0.000000 -0.000000 -1.570796
  95 -0.616575 -9.115670 -20.493935 0.000000 -0.000000 -1.570796
  96 -0.616575 -8.156730 -20.493935 0.000000 -0.000000 -1.570796
  97 0.009456 -9.088328 -24.371483 0.000000 -0.000000 -1.570796
  98 -1.809807 -9.088329 -22.624933 0.000000 -0.000000 -1.570796
  99 -1.855001 -9.088328 -19.131502 0.000000 -0.000000 -1.570796
  100 1.807511 -9.088328 -19.131502 0.000000 -0.000000 -1.570796
  101 1.762317 -9.088329 -22.624933 0.000000 -0.000000 -1.570796
  102 0.653517 -9.098581 -22.023304 0.000000 -0.000000 -1.570796
  103 -0.616575 -5.961047 -25.745277 0.000000 -0.000000 -1.570796
  104 0.653517 -9.115670 -20.493935 0.000000 -0.000000 -1.570796
  105 0.653517 -8.156730 -20.493935 0.000000 -0.000000 -1.570796
  106 0.653517 -5.961047 -25.745277 0.000000 -0.000000 -1.570796
  107 0.653517 -5.019194 -24.215908 0.000000 -0.000000 -1.570796
  108 -0.616575 0.605576 -24.215910 0.000000 -0.000000 -1.570796
  109 -0.616575 0.663719 -25.745277 0.000000 -0.000000 -1.570796
  110 0.653518 0.663721 -25.745277 0.000000 -0.000000 -1.570796
  111 0.653518 0.605576 -24.215910 0.000000 -0.000000 -1.570796
  112 0.018958 -0.168436 -26.224728 0.000000 -0.000000 -1.570796
  113 0.018958 -0.168434 -23.763325 0.000000 -0.000000 -1.570796
  114 -1.713094 0.831564 -26.224728 0.000000 -0.000000 -1.570796
  115 -1.713094 0.831566 -23.763327 0.000000 -0.000000 -1.570796
  116 -1.713092 2.831564 -26.224728 0.000000 -0.000000 -1.570796
  117 -1.713092 2.831564 -23.763327 0.000000 -0.000000 -1.570796
  118 0.018958 3.831564 -26.224728 0.000000 -0.000000 -1.570796
  119 0.018958 3.831566 -23.763327 0.000000 -0.000000 -1.570796
  120 1.751009 2.831564 -26.224728 0.000000 -0.000000 -1.570796
  121 1.751009 2.831566 -23.763327 0.000000 -0.000000 -1.570796
  122 1.751009 0.831564 -26.224728 0.000000 -0.000000 -1.570796
  123 1.751009 0.831566 -23.763327 0.000000 -0.000000 -1.570796
  124 0.018958 0.631565 -22.509529 0.000000 -0.000000 -1.570796
  125 -1.007975 1.231565 -22.509529 0.000000 -0.000000 -1.570796
  126 -1.007973 2.431564 -22.509529 0.000000 -0.000000 -1.570796
  127 0.018958 3.313532 -22.509529 0.000000 -0.000000 -1.570796
  128 1.045890 2.431566 -22.509529 0.000000 -0.000000 -1.570796
  129 1.045890 1.231565 -22.509529 0.000000 -0.000000 -1.570796
  130 0.018958 0.913532 -20.109526 0.000000 -0.000000 -1.570796
  131 -1.020273 2.725767 -19.909113 0.000000 -0.000000 -1.570796
  132 0.018958 3.569637 -20.109528 0.000000 -0.000000 -1.570796
  133 1.058189 2.725767 -19.909113 0.000000 -0.000000 -1.570796
  134 0.018958 -0.151686 -18.210239 0.000000 -0.000000 -1.570796
  135 -1.184894 0.688313 -17.804373 0.000000 -0.000000 -1.570796
  136 -1.184892 2.368311 -17.804375 0.000000 -0.000000 -1.570796
  137 0.018958 3.280083 -18.082067 0.000000 -0.000000 -1.570796
  138 1.222809 2.368313 -17.804375 0.000000 -0.000000 -1.570796
  139 1.222809 0.688312 -17.804373 0.000000 -0.000000 -1.570796
  140 -1.170663 1.753567 -19.911985 0.000000 -0.000000 -1.570796
  141 1.208579 1.753567 -19.911985 0.000000 -0.000000 -1.570796
  142 -6.633550 -20.441475 -16.459301 0.000000 -0.000000 -1.570796
  143 -6.633549 -13.341475 -16.459299 0.000000 -0.000000 -1.570796
  144 -10.305248 -13.341475 -18.091543 0.000000 -0.000000 -1.570796
  145 -8.633550 -13.341474 -21.723799 0.000000 -0.000000 -1.570796
  146 -5.597715 -13.341473 -22.739630 0.000000 -0.000000 -1.570796
  147 -5.597715 -13.341473 -14.950737 0.000000 -0.000000 -1.570796
  148 -10.305248 -20.441475 -18.091545 0.000000 -0.000000 -1.570796
  149 -8.633550 -20.441475 -21.723799 0.000000 -0.000000 -1.570796
  150 -5.597715 -20.441473 -22.739630 0.000000 -0.000000 -1.570796
  151 -5.597715 -20.441473 -14.950737 0.000000 -0.000000 -1.570796
  152 -2.597715 -13.341474 -20.739630 0.000000 -0.000000 -1.570796
  153 -2.597715 -20.441473 -20.739630 0.000000 -0.000000 -1.570796
  154 -2.597715 -13.341474 -14.950737 0.000000 -0.000000 -1.570796
  155 -2.597715 -20.441475 -14.950737 0.000000 -0.000000 -1.570796
  156 -7.593266 -18.916475 -17.234457 0.000000 -0.000000 -1.570796
  157 -7.593265 -14.866475 -17.234457 0.000000 -0.000000 -1.570796
  158 -8.044074 -18.916475 -17.481222 0.000000 -0.000000 -1.570796
  159 -8.044073 -14.866475 -17.481224 0.000000 -0.000000 -1.570796
  160 -8.765391 -18.916473 -15.210630 0.000000 -0.000000 -1.570796
  161 -8.765390 -14.866475 -15.210630 0.000000 -0.000000 -1.570796
  162 -9.216199 -18.916473 -15.457397 0.000000 -0.000000 -1.570796
  163 -9.216198 -14.866474 -15.457397 0.000000 -0.000000 -1.570796
  164 -8.600100 -18.916473 -13.178226 0.000000 -0.000000 -1.570796
  165 -8.600099 -14.866474 -13.178225 0.000000 -0.000000 -1.570796
  166 -9.133703 -18.916473 -12.974040 0.000000 -0.000000 -1.570796
  167 -9.133702 -14.866474 -12.974039 0.000000 -0.000000 -1.570796
  168 -7.060763 -18.916473 -11.730197 0.000000 -0.000000 -1.570796
  169 -7.060762 -14.866474 -11.730197 0.000000 -0.000000 -1.570796
  170 -7.180964 -18.916473 -11.147137 0.000000 -0.000000 -1.570796
  171 -7.180963 -14.866474 -11.147137 0.000000 -0.000000 -1.570796
  172 -4.562608 -18.916473 -11.680176 0.000000 -0.000000 -1.570796
  173 -4.562607 -14.866474 -11.680175 0.000000 -0.000000 -1.570796
  174 -4.376679 -18.916473 -11.116341 0.000000 -0.000000 -1.570796
  175 -4.376679 -14.866474 -11.116340 0.000000 -0.000000 -1.570796
  176 -2.591646 -18.916473 -13.610896 0.000000 -0.000000 -1.570796
  177 -2.591646 -14.866474 -13.610897 0.000000 -0.000000 -1.570796
  178 -2.285094 -18.916473 -13.117457 0.000000 -0.000000 -1.570796
  179 -2.285094 -14.866474 -13.117457 0.000000 -0.000000 -1.570796
  180 -0.711473 -41.610077 -16.182827 0.000000 -0.000000 -1.570796
  181 -0.502054 -41.610077 -16.688410 0.000000 -0.000000 -1.570796
  182 0.003527 -41.610077 -16.897827 0.000000 -0.000000 -1.570796
  183 0.509109 -41.610077 -16.688410 0.000000 -0.000000 -1.570796
  184 0.718527 -41.610077 -16.182827 0.000000 -0.000000 -1.570796
  185 0.509108 -41.610077 -15.677245 0.000000 -0.000000 -1.570796
  186 0.003527 -41.610077 -15.467828 0.000000 -0.000000 -1.570796
  187 -0.502055 -41.610077 -15.677245 0.000000 -0.000000 -1.570796
  188 -0.425473 -42.000080 -16.182827 0.000000 -0.000000 -1.570796
  189 -0.299822 -42.000080 -16.486176 0.000000 -0.000000 -1.570796
  190 0.003527 -42.000080 -16.611828 0.000000 -0.000000 -1.570796
  191 0.306876 -42.000080 -16.486176 0.000000 -0.000000 -1.570796
  192 0.432527 -42.000080 -16.182827 0.000000 -0.000000 -1.570796
  193 0.306876 -42.000080 -15.879478 0.000000 -0.000000 -1.570796
  194 0.003527 -42.000080 -15.753827 0.000000 -0.000000 -1.570796
  195 -0.299822 -42.000080 -15.879478 0.000000 -0.000000 -1.570796
  196 0.003527 -42.130081 -16.182827 0.000000 -0.000000 -1.570796
end
