version 1
nodes
0 "v0" -1
1 "v1" -1
2 "v2" -1
3 "v3" -1
4 "v4" -1
5 "v5" -1
6 "v6" -1
7 "v7" -1
8 "v8" -1
9 "v9" -1
10 "v10" -1
11 "v11" -1
12 "v12" -1
13 "v13" -1
14 "v14" -1
15 "v15" -1
16 "v16" -1
17 "v17" -1
18 "v18" -1
19 "v19" -1
20 "v20" -1
21 "v21" -1
22 "v22" -1
23 "v23" -1
24 "v24" -1
25 "v25" -1
26 "v26" -1
27 "v27" -1
28 "v28" -1
29 "v29" -1
30 "v30" -1
31 "v31" -1
32 "v32" -1
33 "v33" -1
34 "v34" -1
35 "v35" -1
36 "v36" -1
37 "v37" -1
38 "v38" -1
39 "v39" -1
40 "v40" -1
41 "v41" -1
42 "v42" -1
43 "v43" -1
44 "v44" -1
45 "v45" -1
46 "v46" -1
47 "v47" -1
48 "v48" -1
49 "v49" -1
50 "v50" -1
51 "v51" -1
52 "v52" -1
53 "v53" -1
54 "v54" -1
55 "v55" -1
56 "v56" -1
57 "v57" -1
58 "v58" -1
59 "v59" -1
60 "v60" -1
61 "v61" -1
62 "v62" -1
63 "v63" -1
64 "v64" -1
65 "v65" -1
66 "v66" -1
67 "v67" -1
68 "v68" -1
69 "v69" -1
70 "v70" -1
71 "v71" -1
72 "v72" -1
73 "v73" -1
74 "v74" -1
75 "v75" -1
76 "v76" -1
77 "v77" -1
78 "v78" -1
79 "v79" -1
80 "v80" -1
81 "v81" -1
82 "v82" -1
83 "v83" -1
84 "v84" -1
85 "v85" -1
86 "v86" -1
87 "v87" -1
88 "v88" -1
89 "v89" -1
90 "v90" -1
91 "v91" -1
92 "v92" -1
93 "v93" -1
94 "v94" -1
95 "v95" -1
96 "v96" -1
97 "v97" -1
98 "v98" -1
99 "v99" -1
100 "v100" -1
101 "v101" -1
102 "v102" -1
103 "v103" -1
104 "v104" -1
105 "v105" -1
106 "v106" -1
107 "v107" -1
108 "v108" -1
109 "v109" -1
110 "v110" -1
111 "v111" -1
112 "v112" -1
113 "v113" -1
114 "v114" -1
115 "v115" -1
116 "v116" -1
117 "v117" -1
118 "v118" -1
119 "v119" -1
120 "v120" -1
121 "v121" -1
122 "v122" -1
123 "v123" -1
124 "v124" -1
125 "v125" -1
126 "v126" -1
127 "v127" -1
128 "v128" -1
129 "v129" -1
130 "v130" -1
131 "v131" -1
132 "v132" -1
133 "v133" -1
134 "v134" -1
135 "v135" -1
136 "v136" -1
137 "v137" -1
138 "v138" -1
139 "v139" -1
140 "v140" -1
141 "v141" -1
142 "v142" -1
143 "v143" -1
144 "v144" -1
145 "v145" -1
146 "v146" -1
147 "v147" -1
148 "v148" -1
149 "v149" -1
150 "v150" -1
151 "v151" -1
152 "v152" -1
153 "v153" -1
154 "v154" -1
155 "v155" -1
156 "v156" -1
157 "v157" -1
158 "v158" -1
159 "v159" -1
160 "v160" -1
161 "v161" -1
162 "v162" -1
163 "v163" -1
164 "v164" -1
165 "v165" -1
166 "v166" -1
167 "v167" -1
168 "v168" -1
169 "v169" -1
170 "v170" -1
171 "v171" -1
172 "v172" -1
173 "v173" -1
174 "v174" -1
175 "v175" -1
176 "v176" -1
177 "v177" -1
178 "v178" -1
179 "v179" -1
180 "v180" -1
181 "v181" -1
182 "v182" -1
183 "v183" -1
184 "v184" -1
185 "v185" -1
186 "v186" -1
187 "v187" -1
end
skeleton
  time 0
  0 -0.801964 -10.737805 -16.645235 0.000000 -0.000000 -1.570796
  1 -0.810389 -9.577806 -18.095236 0.000000 -0.000000 -1.570796
  2 -0.810389 -8.997809 -20.705240 0.000000 -0.000000 -1.570796
  3 -0.810389 -10.447810 -22.735237 0.000000 -0.000000 -1.570796
  4 -0.801964 -14.217811 -16.645237 0.000000 -0.000000 -1.570796
  5 -0.810389 -13.057809 -23.315239 0.000000 -0.000000 -1.570796
  6 -0.810389 -11.897810 -21.285240 0.000000 -0.000000 -1.570796
  7 -0.810389 -12.187808 -18.675238 0.000000 -0.000000 -1.570796
  8 0.822036 -22.627808 -16.645235 0.000000 -0.000000 -1.570796
  9 0.813610 -24.947805 -23.315239 0.000000 -0.000000 -1.570796
  10 0.813610 -23.787811 -21.285240 0.000000 -0.000000 -1.570796
  11 0.813610 -24.077806 -18.675238 0.000000 -0.000000 -1.570796
  12 -1.215787 -6.097810 -16.645237 0.000000 -0.000000 -1.570796
  13 -1.215787 -6.097810 -14.615238 0.000000 -0.000000 -1.570796
  14 1.220213 -6.097810 -16.645237 0.000000 -0.000000 -1.570796
  15 1.220213 -6.097810 -14.615238 0.000000 -0.000000 -1.570796
  16 -1.215788 -30.907234 -16.645237 0.000000 -0.000000 -1.570796
  17 -1.215788 -30.907234 -14.615238 0.000000 -0.000000 -1.570796
  18 1.220212 -30.907234 -16.645237 0.000000 -0.000000 -1.570796
  19 1.220212 -30.907234 -14.615238 0.000000 -0.000000 -1.570796
  20 0.002213 -6.097810 -13.455238 0.000000 -0.000000 -1.570796
  21 0.002212 -30.907234 -13.455238 0.000000 -0.000000 -1.570796
  22 -0.810390 -24.077806 -18.675238 0.000000 -0.000000 -1.570796
  23 -0.810390 -23.787811 -21.285240 0.000000 -0.000000 -1.570796
  24 -0.810390 -24.947805 -23.315239 0.000000 -0.000000 -1.570796
  25 -0.801964 -26.107815 -16.645237 0.000000 -0.000000 -1.570796
  26 -0.810390 -22.337811 -22.735237 0.000000 -0.000000 -1.570796
  27 -0.810389 -20.887812 -20.705240 0.000000 -0.000000 -1.570796
  28 -0.810390 -21.467808 -18.095236 0.000000 -0.000000 -1.570796
  29 -0.801964 -22.627808 -16.645235 0.000000 -0.000000 -1.570796
  30 0.813611 -12.187808 -18.675238 0.000000 -0.000000 -1.570796
  31 0.813611 -11.897810 -21.285240 0.000000 -0.000000 -1.570796
  32 0.813611 -13.057809 -23.315239 0.000000 -0.000000 -1.570796
  33 0.002213 -6.097810 -17.232550 0.000000 -0.000000 -1.570796
  34 0.002212 -30.907234 -17.232550 0.000000 -0.000000 -1.570796
  35 0.822037 -10.737805 -16.645235 0.000000 -0.000000 -1.570796
  36 0.813611 -9.577806 -18.095236 0.000000 -0.000000 -1.570796
  37 0.822036 -14.217811 -16.645237 0.000000 -0.000000 -1.570796
  38 0.813611 -10.447810 -22.735237 0.000000 -0.000000 -1.570796
  39 0.813611 -8.997809 -20.705240 0.000000 -0.000000 -1.570796
  40 6.117135 -17.539625 -15.825428 0.000000 -0.000000 -1.570796
  41 6.117135 -17.539625 -12.473610 0.000000 -0.000000 -1.570796
  42 5.298895 -20.593327 -15.825428 0.000000 -0.000000 -1.570796
  43 5.298895 -20.593327 -12.473610 0.000000 -0.000000 -1.570796
  44 3.063434 -22.828785 -15.825428 0.000000 -0.000000 -1.570796
  45 3.063434 -22.828785 -12.473610 0.000000 -0.000000 -1.570796
  46 0.009733 -23.647028 -15.825428 0.000000 -0.000000 -1.570796
  47 0.009733 -23.647028 -12.473610 0.000000 -0.000000 -1.570796
  48 -3.043967 -22.828785 -15.825428 0.000000 -0.000000 -1.570796
  49 -3.043967 -22.828785 -12.473610 0.000000 -0.000000 -1.570796
  50 -5.279430 -20.593327 -15.825428 0.000000 -0.000000 -1.570796
  51 -5.279430 -20.593327 -12.473610 0.000000 -0.000000 -1.570796
  52 -6.097667 -17.539625 -15.825428 0.000000 -0.000000 -1.570796
  53 -6.097667 -17.539625 -12.473610 0.000000 -0.000000 -1.570796
  54 -5.279430 -14.485927 -15.825428 0.000000 -0.000000 -1.570796
  55 -5.279430 -14.485927 -12.473610 0.000000 -0.000000 -1.570796
  56 -3.043969 -12.250470 -15.825428 0.000000 -0.000000 -1.570796
  57 -3.043969 -12.250470 -12.473610 0.000000 -0.000000 -1.570796
  58 0.009734 -11.432225 -15.825428 0.000000 -0.000000 -1.570796
  59 0.009734 -11.432225 -12.473610 0.000000 -0.000000 -1.570796
  60 3.063428 -12.250470 -15.825428 0.000000 -0.000000 -1.570796
  61 3.063428 -12.250470 -12.473610 0.000000 -0.000000 -1.570796
  62 5.298896 -14.485927 -15.825428 0.000000 -0.000000 -1.570796
  63 5.298896 -14.485927 -12.473610 0.000000 -0.000000 -1.570796
  64 -2.762198 -20.540737 -13.908165 0.000000 -0.000000 -1.570796
  65 -2.762198 -31.187716 -13.908165 0.000000 -0.000000 -1.570796
  66 -3.059484 -20.540737 -14.625877 0.000000 -0.000000 -1.570796
  67 -3.059484 -31.187716 -14.625877 0.000000 -0.000000 -1.570796
  68 -3.777198 -20.540737 -14.923164 0.000000 -0.000000 -1.570796
  69 -3.777199 -31.187716 -14.923164 0.000000 -0.000000 -1.570796
  70 -4.494910 -20.540737 -14.625877 0.000000 -0.000000 -1.570796
  71 -4.494910 -31.187716 -14.625877 0.000000 -0.000000 -1.570796
  72 -4.792197 -20.540737 -13.908165 0.000000 -0.000000 -1.570796
  73 -4.792197 -31.187716 -13.908165 0.000000 -0.000000 -1.570796
  74 -4.494910 -20.540737 -13.190453 0.000000 -0.000000 -1.570796
  75 -4.494910 -31.187716 -13.190453 0.000000 -0.000000 -1.570796
  76 -3.777198 -20.540737 -12.893166 0.000000 -0.000000 -1.570796
  77 -3.777199 -31.187716 -12.893166 0.000000 -0.000000 -1.570796
  78 -3.059484 -20.540737 -13.190453 0.000000 -0.000000 -1.570796
  79 -3.059484 -31.187716 -13.190453 0.000000 -0.000000 -1.570796
  80 1.023694 -17.536772 -11.679790 0.000000 -0.000000 -1.570796
  81 0.726408 -18.254488 -11.679790 0.000000 -0.000000 -1.570796
  82 0.008694 -18.551773 -11.679790 0.000000 -0.000000 -1.570796
  83 -0.709018 -18.254488 -11.679790 0.000000 -0.000000 -1.570796
  84 -1.006305 -17.536772 -11.679790 0.000000 -0.000000 -1.570796
  85 -0.709018 -16.819059 -11.679790 0.000000 -0.000000 -1.570796
  86 0.008694 -16.521774 -11.679790 0.000000 -0.000000 -1.570796
  87 0.726409 -16.819059 -11.679790 0.000000 -0.000000 -1.570796
  88 1.023694 -17.536772 -12.839790 0.000000 -0.000000 -1.570796
  89 0.726408 -18.254488 -12.839790 0.000000 -0.000000 -1.570796
  90 0.008694 -18.551773 -12.839790 0.000000 -0.000000 -1.570796
  91 -0.709018 -18.254488 -12.839790 0.000000 -0.000000 -1.570796
  92 -1.006305 -17.536772 -12.839790 0.000000 -0.000000 -1.570796
  93 -0.709018 -16.819059 -12.839790 0.000000 -0.000000 -1.570796
  94 0.008694 -16.521774 -12.839790 0.000000 -0.000000 -1.570796
  95 0.726409 -16.819059 -12.839790 0.000000 -0.000000 -1.570796
  96 -2.356199 -30.997345 -13.908165 0.000000 -0.000000 -1.570796
  97 -2.356199 -36.543465 -13.908165 0.000000 -0.000000 -1.570796
  98 -2.772399 -30.997345 -15.492964 0.000000 -0.000000 -1.570796
  99 -2.772399 -36.543465 -15.492964 0.000000 -0.000000 -1.570796
  100 -4.781995 -30.997345 -15.492964 0.000000 -0.000000 -1.570796
  101 -4.781995 -36.543465 -15.492964 0.000000 -0.000000 -1.570796
  102 -5.198197 -30.997345 -13.908165 0.000000 -0.000000 -1.570796
  103 -5.198197 -36.543465 -13.908165 0.000000 -0.000000 -1.570796
  104 -4.781995 -30.997345 -12.903366 0.000000 -0.000000 -1.570796
  105 -4.781995 -36.543465 -12.903366 0.000000 -0.000000 -1.570796
  106 -3.777199 -30.997345 -12.487164 0.000000 -0.000000 -1.570796
  107 -3.777200 -36.543465 -12.487164 0.000000 -0.000000 -1.570796
  108 -2.772399 -30.997345 -12.903366 0.000000 -0.000000 -1.570796
  109 -2.772399 -36.543465 -12.903366 0.000000 -0.000000 -1.570796
  110 4.777802 -20.540737 -13.908165 0.000000 -0.000000 -1.570796
  111 4.777802 -31.187716 -13.908165 0.000000 -0.000000 -1.570796
  112 4.480517 -20.540737 -14.625877 0.000000 -0.000000 -1.570796
  113 4.480516 -31.187716 -14.625877 0.000000 -0.000000 -1.570796
  114 3.762802 -20.540737 -14.923164 0.000000 -0.000000 -1.570796
  115 3.762802 -31.187716 -14.923164 0.000000 -0.000000 -1.570796
  116 3.045090 -20.540737 -14.625877 0.000000 -0.000000 -1.570796
  117 3.045090 -31.187716 -14.625877 0.000000 -0.000000 -1.570796
  118 2.747804 -20.540737 -13.908165 0.000000 -0.000000 -1.570796
  119 2.747803 -31.187716 -13.908165 0.000000 -0.000000 -1.570796
  120 3.045090 -20.540737 -13.190453 0.000000 -0.000000 -1.570796
  121 3.045090 -31.187716 -13.190453 0.000000 -0.000000 -1.570796
  122 3.762802 -20.540737 -12.893166 0.000000 -0.000000 -1.570796
  123 3.762802 -31.187716 -12.893166 0.000000 -0.000000 -1.570796
  124 4.480517 -20.540737 -13.190453 0.000000 -0.000000 -1.570796
  125 4.480516 -31.187716 -13.190453 0.000000 -0.000000 -1.570796
  126 5.183802 -30.997345 -13.908165 0.000000 -0.000000 -1.570796
  127 5.183802 -36.543465 -13.908165 0.000000 -0.000000 -1.570796
  128 4.767602 -30.997345 -15.492964 0.000000 -0.000000 -1.570796
  129 4.767602 -36.543465 -15.492964 0.000000 -0.000000 -1.570796
  130 2.758005 -30.997345 -15.492964 0.000000 -0.000000 -1.570796
  131 2.758005 -36.543465 -15.492964 0.000000 -0.000000 -1.570796
  132 2.341804 -30.997345 -13.908165 0.000000 -0.000000 -1.570796
  133 2.341803 -36.543465 -13.908165 0.000000 -0.000000 -1.570796
  134 2.758005 -30.997345 -12.903366 0.000000 -0.000000 -1.570796
  135 2.758005 -36.543465 -12.903366 0.000000 -0.000000 -1.570796
  136 3.762802 -30.997345 -12.487164 0.000000 -0.000000 -1.570796
  137 3.762801 -36.543465 -12.487164 0.000000 -0.000000 -1.570796
  138 4.767602 -30.997345 -12.903366 0.000000 -0.000000 -1.570796
  139 4.767602 -36.543465 -12.903366 0.000000 -0.000000 -1.570796
  140 0.813611 -21.467808 -18.095236 0.000000 -0.000000 -1.570796
  141 0.822036 -26.107815 -16.645237 0.000000 -0.000000 -1.570796
  142 0.813611 -22.337811 -22.735237 0.000000 -0.000000 -1.570796
  143 0.813611 -20.887812 -20.705240 0.000000 -0.000000 -1.570796
  144 -0.606787 -6.097810 -13.670681 0.000000 -0.000000 -1.570796
  145 0.611213 -6.097810 -13.670681 0.000000 -0.000000 -1.570796
  146 -0.606788 -30.907234 -13.670681 0.000000 -0.000000 -1.570796
  147 0.611212 -30.907234 -13.670681 0.000000 -0.000000 -1.570796
  148 -0.306119 -13.348892 -17.306139 0.000000 -0.000000 -1.570796
  149 -0.306119 -15.018663 -19.033628 0.000000 -0.000000 -1.570796
  150 -0.306119 -13.878411 -16.853733 0.000000 -0.000000 -1.570796
  151 0.313333 -13.348892 -17.306139 0.000000 -0.000000 -1.570796
  152 0.313333 -15.018663 -19.033628 0.000000 -0.000000 -1.570796
  153 0.313333 -13.878411 -16.853733 0.000000 -0.000000 -1.570796
  154 3.322687 -35.825867 -13.892826 0.000000 -0.000000 -1.570796
  155 3.444531 -35.825867 -14.186983 0.000000 -0.000000 -1.570796
  156 3.738687 -35.825867 -14.308826 0.000000 -0.000000 -1.570796
  157 4.032844 -35.825867 -14.186983 0.000000 -0.000000 -1.570796
  158 4.154687 -35.825867 -13.892826 0.000000 -0.000000 -1.570796
  159 4.032844 -35.825867 -13.598669 0.000000 -0.000000 -1.570796
  160 3.738687 -35.825867 -13.476826 0.000000 -0.000000 -1.570796
  161 3.444531 -35.825867 -13.598669 0.000000 -0.000000 -1.570796
  162 3.530687 -36.245869 -13.892826 0.000000 -0.000000 -1.570796
  163 3.591609 -36.245869 -14.039905 0.000000 -0.000000 -1.570796
  164 3.738687 -36.245869 -14.100826 0.000000 -0.000000 -1.570796
  165 3.885766 -36.245869 -14.039905 0.000000 -0.000000 -1.570796
  166 3.946687 -36.245869 -13.892826 0.000000 -0.000000 -1.570796
  167 3.885766 -36.245869 -13.745748 0.000000 -0.000000 -1.570796
  168 3.738687 -36.245869 -13.684826 0.000000 -0.000000 -1.570796
  169 3.591609 -36.245869 -13.745748 0.000000 -0.000000 -1.570796
  170 3.738687 -36.405869 -13.892826 0.000000 -0.000000 -1.570796
  171 -2.941468 -35.245869 -13.892826 0.000000 -0.000000 -1.570796
  172 -3.185155 -35.245869 -14.481140 0.000000 -0.000000 -1.570796
  173 -3.773468 -35.245869 -14.724826 0.000000 -0.000000 -1.570796
  174 -4.361781 -35.245869 -14.481140 0.000000 -0.000000 -1.570796
  175 -4.605468 -35.245869 -13.892826 0.000000 -0.000000 -1.570796
  176 -4.361781 -35.245869 -13.304513 0.000000 -0.000000 -1.570796
  177 -3.773468 -35.245869 -13.060826 0.000000 -0.000000 -1.570796
  178 -3.185155 -35.245869 -13.304513 0.000000 -0.000000 -1.570796
  179 -3.357468 -36.085869 -13.892826 0.000000 -0.000000 -1.570796
  180 -3.479312 -36.085869 -14.186983 0.000000 -0.000000 -1.570796
  181 -3.773468 -36.085869 -14.308826 0.000000 -0.000000 -1.570796
  182 -4.067625 -36.085869 -14.186983 0.000000 -0.000000 -1.570796
  183 -4.189468 -36.085869 -13.892826 0.000000 -0.000000 -1.570796
  184 -4.067625 -36.085869 -13.598670 0.000000 -0.000000 -1.570796
  185 -3.773468 -36.085869 -13.476827 0.000000 -0.000000 -1.570796
  186 -3.479312 -36.085869 -13.598670 0.000000 -0.000000 -1.570796
  187 -3.773468 -36.405869 -13.892826 0.000000 -0.000000 -1.570796
end
