version 1
nodes
0 "HandIK.R.000" -1
1 "HandIK.L.000" -1
2 "AllTorso.001" -1
3 "LegIK.R.000" 2
4 "LegIK.L.000" 2
5 "KneeIK.L.000" 2
6 "KneeIK.R.000" 2
7 "ElbowIK.L.000" 2
8 "ElbowIK.R.000" 2
9 "AllTorso.000" 2
10 "Bone.000" 9
11 "Bone.001" 10
12 "Bone.002" 11
13 "Bone.003" 12
14 "Bone.004" 13
15 "Bone.005" 14
16 "Bone.006" 15
17 "Bone.007" 16
18 "Bone.008" 15
19 "Bone.009" 18
20 "Ear.L.001" 15
21 "Ear.R.001" 15
22 "Arm.L.000" 12
23 "Arm.L.001" 22
24 "Arm.L.003" 23
25 "Arm.L.004" 24
26 "Arm.L.005" 25
27 "Arm.L.006" 26
28 "Arm.L.007" 24
29 "Arm.L.008" 28
30 "Arm.L.009" 29
31 "Arm.L.010" 24
32 "Arm.L.011" 31
33 "Arm.L.012" 32
34 "Arm.R.000" 12
35 "Arm.R.001" 34
36 "Arm.R.003" 35
37 "Arm.R.004" 36
38 "Arm.R.005" 37
39 "Arm.R.006" 38
40 "Arm.R.007" 36
41 "Arm.R.008" 40
42 "Arm.R.009" 41
43 "Arm.R.010" 36
44 "Arm.R.011" 43
45 "Arm.R.012" 44
46 "Bone.011" 9
47 "Leg.L.001" 46
48 "Leg.L.002" 47
49 "Leg.L.003" 48
50 "Leg.L.004" 49
51 "Leg.L.006" 50
52 "Leg.L.010" 50
53 "Leg.L.009" 52
54 "Leg.L.011" 52
55 "Leg.L.013" 52
56 "Bone.013" 46
57 "Bone.014" 56
58 "Bone.015" 57
59 "Bone.016" 58
60 "Leg.R.001" 46
61 "Leg.R.002" 60
62 "Leg.R.003" 61
63 "Leg.R.004" 62
64 "Leg.R.006" 63
65 "Leg.R.010" 63
66 "Leg.R.009" 65
67 "Leg.R.011" 65
68 "Leg.R.013" 65
end
skeleton
  time 0
  0 19.099504 -19.117832 -13.152794 0.000000 -0.000000 -3.141593
  1 17.603674 15.362481 -12.956985 0.000000 -0.000000 0.000000
  2 -5.665754 0.012664 58.581337 1.570796 -0.000000 -3.141592
  3 -2.814013 -78.449570 -14.462731 -1.570796 -1.570796 0.000000
  4 1.443087 -78.313210 14.109356 -1.570796 -1.570796 0.000000
  5 -44.456379 -57.977322 20.839128 -1.570796 1.570796 0.000000
  6 -44.456367 -57.977322 -14.458026 -1.570796 1.570796 0.000000
  7 15.330741 -41.400753 15.954189 -1.570796 -1.570796 0.000000
  8 15.330753 -41.212467 -16.530237 -1.570796 -1.570796 0.000000
  9 2.830647 -89.391708 0.000003 0.000000 0.000000 0.000000
  10 0.000000 36.517490 -0.000001 0.000002 -1.749825 1.179900
  11 0.000000 4.413176 -0.000000 1.196216 -1.433711 -1.271214
  12 0.000000 5.822268 0.000000 0.023948 -0.039414 -0.137059
  13 -0.000002 8.863119 -0.000001 -0.032068 -0.401317 -0.398570
  14 0.000000 3.644234 -0.000000 -0.137372 -0.088599 0.208893
  15 -0.000001 5.401831 -0.000000 -0.023949 -1.214004 0.003608
  16 0.000000 5.405349 0.000001 0.939290 1.207611 0.855293
  17 -0.000001 6.972888 -0.000000 -0.192254 -1.174336 -0.002866
  18 0.000000 5.405349 0.000001 -1.416208 0.314783 1.536892
  19 -0.000000 2.147789 0.000001 0.159780 0.629111 -1.002097
  20 -1.935490 3.640031 6.017782 0.908029 -1.379135 1.973602
  21 3.241712 3.649997 5.054546 0.098482 1.095735 -2.746140
  22 -0.000002 8.863119 -0.000001 -1.376934 -0.204965 0.152596
  23 -0.000002 12.911962 0.000002 -2.276587 -0.230265 2.189518
  24 0.000001 14.211067 -0.000001 -1.642682 -0.152589 -2.686830
  25 0.000000 13.479357 -0.000003 0.847656 0.794987 0.859301
  26 0.000001 4.841675 -0.000000 0.020017 -0.558231 -0.213714
  27 0.000001 3.394740 -0.000000 -0.378962 -0.514880 0.045415
  28 0.000000 13.479357 -0.000003 -0.850073 2.431956 -1.297245
  29 0.000001 4.387170 -0.000001 0.044976 -0.478151 -0.162889
  30 0.000001 2.673644 -0.000000 -0.482592 -0.567933 0.125532
  31 0.000000 13.479357 -0.000003 0.288003 0.098300 0.532768
  32 -0.000001 4.635654 0.000001 -0.152389 -0.163555 0.018032
  33 0.000000 4.148419 0.000001 0.034608 -0.221995 -0.090613
  34 -0.000002 8.863119 -0.000001 -1.352324 -2.767557 0.157781
  35 -0.000003 12.409958 0.000000 0.661318 2.921474 1.004140
  36 0.000002 14.203218 0.000007 1.071380 -3.100525 -0.395606
  37 -0.000004 13.479349 0.000006 1.237663 -0.905294 -1.316554
  38 0.000003 4.841680 0.000003 0.020017 0.558232 0.213714
  39 0.000002 3.394743 0.000000 -0.378962 0.514879 -0.045415
  40 -0.000004 13.479349 0.000006 -0.534784 -2.562477 0.942453
  41 0.000003 4.387167 0.000003 0.044976 0.478151 0.162889
  42 0.000001 2.673643 0.000001 -0.482592 0.567933 -0.125532
  43 -0.000004 13.479349 0.000006 0.470278 -0.313172 -0.729350
  44 0.000001 4.635650 0.000003 -0.152389 0.163556 -0.018032
  45 0.000003 4.148419 -0.000001 0.034608 0.221995 0.090612
  46 0.000000 36.517490 -0.000001 -0.000000 -3.002120 -1.678127
  47 -1.586123 3.425517 -5.597549 -2.435796 -0.699880 -0.928183
  48 -0.000008 12.976495 0.000007 -0.458566 -0.699729 2.341545
  49 0.000016 13.209553 0.000007 -1.232519 0.224867 -1.345365
  50 -0.000012 11.298648 0.000007 -0.166129 0.000438 0.356922
  51 -2.946792 2.260435 -0.018080 0.011508 -2.123512 1.384717
  52 4.067903 3.234547 0.024961 0.212714 1.054453 -1.274410
  53 -1.910407 7.516019 0.626323 0.237086 2.449934 0.373310
  54 0.498691 7.200198 -0.276287 -0.336929 0.215805 -0.120325
  55 2.986891 6.702970 -1.654827 0.515556 -2.803169 -0.434332
  56 1.420169 7.446717 0.199370 0.037916 0.457009 -0.228151
  57 0.000001 9.377636 -0.000002 -0.015582 1.033818 0.088909
  58 0.000001 8.008639 0.000001 0.010407 0.842554 0.053992
  59 -0.000001 9.061671 -0.000000 0.079437 0.344278 0.141124
  60 -3.069578 3.425518 4.969539 2.853111 -0.469329 -0.342935
  61 0.000004 12.976503 -0.000004 1.847494 -2.219038 0.056218
  62 0.000000 13.209564 -0.000001 1.296182 2.951418 0.124925
  63 0.000005 11.298656 -0.000014 0.499275 -2.873537 0.139204
  64 -0.000006 2.260441 2.946854 -1.394515 3.141590 -0.000002
  65 0.000005 3.234553 -4.067979 -1.620622 -0.139302 2.644614
  66 1.910426 7.516023 0.626274 0.237099 -2.449909 -0.373319
  67 -0.498696 7.200200 -0.276268 -0.336925 -0.215778 0.120325
  68 -2.986935 6.702970 -1.654738 0.515544 2.803194 0.434328
  time 1
  0 14.118009 -15.567323 -5.149214 0.000000 -0.000000 -3.141593
  1 5.878067 17.726299 -9.031622 0.000000 -0.000000 0.000000
  2 -5.665754 0.012664 58.581337 1.570796 -0.000000 -3.141592
  3 -2.814013 -78.463837 -14.462731 -1.570796 -1.570796 0.000000
  4 1.958253 -78.277550 14.111605 -1.570796 -1.570796 0.000000
  5 -44.456379 -57.977322 20.839128 -1.570796 1.570796 0.000000
  6 -44.456367 -57.977322 -14.458026 -1.570796 1.570796 0.000000
  7 15.330741 -41.400753 15.954189 -1.570796 -1.570796 0.000000
  8 15.330753 -41.204403 -16.530237 -1.570796 -1.570796 0.000000
  9 4.917087 -89.391708 0.000003 0.000000 0.000000 0.000000
  10 0.000000 36.517490 -0.000001 1.834663 -1.406420 -0.980395
  11 0.000000 4.413177 0.000000 -1.444280 -1.650435 1.298628
  12 0.000001 5.822268 0.000000 -0.031608 0.009928 -0.155546
  13 -0.000000 8.863121 0.000002 -0.032068 -0.401316 -0.398570
  14 -0.000001 3.644233 0.000001 -0.264096 -0.184756 0.237753
  15 0.000000 5.401832 -0.000001 0.159667 -1.315064 -0.070983
  16 -0.000000 5.405349 -0.000001 0.939290 1.207611 0.855293
  17 0.000000 6.972891 0.000000 -0.192254 -1.174336 -0.002866
  18 -0.000000 5.405349 -0.000001 -1.416207 0.314783 1.536892
  19 -0.000000 2.147789 0.000000 0.151682 0.623442 -0.956136
  20 -1.935490 3.640029 6.017781 0.908030 -1.379136 1.973603
  21 3.241714 3.649998 5.054546 0.098482 1.095735 -2.746140
  22 -0.000000 8.863121 0.000002 -1.459335 -0.155895 0.194460
  23 0.000001 12.911958 0.000001 -1.866094 -0.339151 1.837583
  24 0.000001 14.211068 0.000004 -1.766026 -0.093261 -2.694861
  25 -0.000004 13.479353 0.000007 0.826470 0.809106 0.842463
  26 0.000000 4.770148 -0.000000 0.020017 -0.558231 -0.213714
  27 0.000001 3.344588 -0.000000 -0.378962 -0.514880 0.045414
  28 -0.000004 13.479353 0.000007 -0.842140 2.421602 -1.287023
  29 0.000003 4.322353 -0.000001 0.044976 -0.478151 -0.162889
  30 0.000000 2.634144 -0.000001 -0.482592 -0.567933 0.125532
  31 -0.000004 13.479353 0.000007 0.267044 0.101876 0.530829
  32 -0.000000 4.567167 0.000001 -0.152389 -0.163555 0.018032
  33 -0.000000 4.087130 0.000001 0.034608 -0.221994 -0.090613
  34 -0.000000 8.863121 0.000002 -1.352324 -2.767557 0.157781
  35 0.000001 12.409957 -0.000001 -1.915612 0.158582 -2.048765
  36 0.000003 14.203228 0.000010 1.025666 -3.081744 -0.384782
  37 -0.000008 13.479340 0.000010 1.224567 -0.910909 -1.313718
  38 -0.000000 4.770144 0.000001 0.020018 0.558232 0.213715
  39 0.000003 3.344587 -0.000000 -0.378962 0.514879 -0.045416
  40 -0.000008 13.479340 0.000010 -0.525613 -2.550674 0.927556
  41 0.000005 4.322351 0.000001 0.044977 0.478150 0.162889
  42 0.000003 2.634144 -0.000001 -0.482592 0.567934 -0.125532
  43 -0.000008 13.479340 0.000010 0.446565 -0.318875 -0.724452
  44 0.000001 4.567163 -0.000001 -0.152389 0.163556 -0.018032
  45 0.000001 4.087131 -0.000000 0.034608 0.221995 0.090612
  46 0.000000 36.517490 -0.000001 -3.124274 -0.140351 1.423249
  47 -1.586122 3.425515 -5.597547 -2.470623 -0.732811 -0.899551
  48 -0.000004 12.976498 0.000003 -0.467946 -0.705800 2.332711
  49 0.000018 13.209558 0.000011 -1.228257 0.232171 -1.342746
  50 -0.000018 11.298645 0.000008 -0.166812 0.000279 0.355422
  51 -2.946793 2.260439 -0.018082 0.011509 -2.123512 1.384716
  52 4.067903 3.234547 0.024959 0.222145 1.064021 -1.204570
  53 -1.910403 7.516018 0.626322 0.237086 2.449934 0.373310
  54 0.498693 7.200197 -0.276292 -0.336929 0.215805 -0.120325
  55 2.986892 6.702969 -1.654828 0.515556 -2.803169 -0.434332
  56 1.420168 7.446717 0.199370 0.298549 0.374910 -0.216802
  57 0.000000 9.377634 0.000001 0.222967 0.947433 0.258296
  58 0.000000 8.008637 -0.000000 0.133595 0.717798 0.224918
  59 0.000000 9.061671 -0.000002 0.052600 0.186034 0.223598
  60 -3.069577 3.425514 4.969539 2.858741 -0.480095 -0.344402
  61 0.000003 12.976501 0.000000 1.796638 -2.219005 0.048759
  62 -0.000002 13.209573 0.000002 1.267195 2.952205 0.125208
  63 0.000002 11.298656 -0.000019 0.466583 -2.869968 0.142280
  64 -0.000007 2.260445 2.946856 -1.394515 3.141590 -0.000003
  65 0.000008 3.234553 -4.067977 -1.656963 -0.153505 2.649834
  66 1.910426 7.516017 0.626276 0.237099 -2.449908 -0.373319
  67 -0.498698 7.200196 -0.276268 -0.336925 -0.215778 0.120325
  68 -2.986938 6.702966 -1.654736 0.515544 2.803194 0.434328
  time 2
  0 8.706687 -9.162767 -1.041819 0.000000 -0.000000 -3.141593
  1 -4.940952 22.305494 -7.497078 0.000000 -0.000000 0.000000
  2 -5.665754 0.012664 58.581337 1.570796 -0.000000 -3.141592
  3 -2.814013 -78.563698 -14.462731 -1.570796 -1.570796 0.000000
  4 5.564418 -78.027885 14.127351 -1.570796 -1.570796 0.000000
  5 -44.456379 -57.977322 20.839128 -1.570796 1.570796 0.000000
  6 -44.456367 -57.977322 -14.458026 -1.570796 1.570796 0.000000
  7 15.330741 -41.400753 15.954189 -1.570796 -1.570796 0.000000
  8 15.330753 -41.197803 -16.530237 -1.570796 -1.570796 0.000000
  9 4.840258 -89.587982 0.000003 0.000000 0.000000 0.000000
  10 0.000000 36.517490 -0.000001 1.834663 -1.406420 -0.980395
  11 0.000000 4.413177 0.000000 -0.441465 -1.652084 0.225266
  12 -0.000000 5.822269 0.000000 -0.137761 0.097651 -0.197260
  13 0.000000 8.863119 0.000001 -0.032068 -0.401317 -0.398570
  14 0.000000 3.644233 -0.000000 -0.324407 -0.264381 0.239041
  15 -0.000000 5.401833 0.000000 0.714953 -1.383686 -0.546824
  16 -0.000001 5.405349 -0.000000 0.939290 1.207611 0.855293
  17 0.000002 6.972890 -0.000001 -0.192254 -1.174336 -0.002866
  18 -0.000001 5.405349 -0.000000 -1.416207 0.314782 1.536892
  19 -0.000001 2.147789 -0.000000 0.125763 0.608304 -0.818844
  20 -1.935490 3.640029 6.017782 0.908030 -1.379136 1.973604
  21 3.241713 3.649997 5.054546 0.098482 1.095735 -2.746140
  22 0.000000 8.863119 0.000001 -1.606168 -0.056203 0.260631
  23 0.000002 12.911962 0.000001 -1.507564 -0.828897 1.818987
  24 -0.000002 14.211069 -0.000003 -1.592122 -0.177017 -2.685675
  25 -0.000003 13.479351 0.000003 0.791707 0.830166 0.814373
  26 0.000000 4.607876 -0.000002 0.020017 -0.558231 -0.213714
  27 0.000000 3.230811 -0.000001 -0.378962 -0.514880 0.045414
  28 -0.000003 13.479351 0.000003 -0.830302 2.404891 -1.272027
  29 0.000001 4.175318 -0.000001 0.044976 -0.478151 -0.162889
  30 0.000001 2.544536 0.000000 -0.482592 -0.567933 0.125532
  31 -0.000003 13.479351 0.000003 0.234361 0.107275 0.527345
  32 -0.000001 4.411800 0.000001 -0.152389 -0.163555 0.018032
  33 -0.000001 3.948093 0.000001 0.034608 -0.221995 -0.090613
  34 0.000000 8.863119 0.000001 -1.352324 -2.767557 0.157781
  35 0.000003 12.409957 -0.000001 -1.394150 -0.024728 -1.874658
  36 0.000003 14.203226 0.000005 -1.609349 0.171150 2.687489
  37 -0.000012 13.479347 0.000009 1.202001 -0.919820 -1.306369
  38 0.000005 4.607882 -0.000001 0.020016 0.558231 0.213712
  39 0.000001 3.230812 0.000001 -0.378963 0.514879 -0.045416
  40 -0.000012 13.479347 0.000009 -0.521878 -2.536230 0.915279
  41 0.000004 4.175318 0.000002 0.044977 0.478152 0.162889
  42 0.000001 2.544538 -0.000001 -0.482592 0.567933 -0.125533
  43 -0.000012 13.479347 0.000009 0.409256 -0.326646 -0.715813
  44 0.000000 4.411797 0.000003 -0.152389 0.163556 -0.018032
  45 0.000000 3.948093 0.000000 0.034608 0.221995 0.090612
  46 0.000000 36.517490 -0.000001 -3.084229 -0.139215 1.334489
  47 -1.586123 3.425518 -5.597547 -2.398834 -0.755009 -1.123004
  48 -0.000011 12.976498 0.000006 -0.408349 -0.668777 2.387302
  49 0.000016 13.209558 0.000004 -1.254801 0.187103 -1.358234
  50 -0.000016 11.298655 0.000007 -0.187921 -0.005188 0.308834
  51 -2.946792 2.260441 -0.018079 0.011508 -2.123512 1.384717
  52 4.067907 3.234549 0.024959 0.252487 1.119520 -1.252834
  53 -1.910404 7.516020 0.626318 0.237086 2.449934 0.373310
  54 0.498694 7.200200 -0.276293 -0.336929 0.215805 -0.120325
  55 2.986893 6.702973 -1.654831 0.515557 -2.803169 -0.434332
  56 1.420168 7.446717 0.199370 0.288015 0.367520 -0.161913
  57 -0.000000 9.377633 0.000001 0.328903 0.893329 0.326266
  58 -0.000000 8.008637 0.000000 0.212048 0.580168 0.361706
  59 -0.000003 9.061672 -0.000001 -0.032683 -0.104071 0.389924
  60 -3.069578 3.425516 4.969540 2.827592 -0.486815 -0.410589
  61 0.000001 12.976505 -0.000007 1.838761 -2.219044 0.054929
  62 0.000000 13.209569 -0.000009 1.291222 2.951559 0.124974
  63 0.000005 11.298656 -0.000023 0.433822 -2.866495 0.145483
  64 -0.000008 2.260444 2.946855 -1.394515 3.141589 -0.000002
  65 0.000005 3.234550 -4.067977 -1.724990 -0.179603 2.661504
  66 1.910428 7.516016 0.626275 0.237100 -2.449908 -0.373319
  67 -0.498696 7.200194 -0.276269 -0.336925 -0.215778 0.120325
  68 -2.986936 6.702964 -1.654736 0.515544 2.803194 0.434329
  time 3
  0 6.217747 -5.759447 0.251030 0.000000 -0.000000 -3.141593
  1 -9.629148 24.816505 -6.754345 0.000000 -0.000000 0.000000
  2 -5.665754 0.012664 58.581337 1.570796 -0.000000 -3.141592
  3 -2.814013 -78.834755 -14.462731 -1.570796 -1.570796 0.000000
  4 15.352576 -77.350220 14.170086 -1.570796 -1.570796 0.000000
  5 -44.456379 -57.977322 20.839128 -1.570796 1.570796 0.000000
  6 -44.456367 -57.977322 -14.458026 -1.570796 1.570796 0.000000
  7 15.330741 -41.400753 15.954189 -1.570796 -1.570796 0.000000
  8 15.330753 -41.192867 -16.530237 -1.570796 -1.570796 0.000000
  9 4.302451 -90.961922 0.000003 0.000000 0.000000 0.000000
  10 0.000000 36.517490 -0.000001 1.834663 -1.406420 -0.980395
  11 0.000000 4.413177 0.000000 -0.441465 -1.652084 0.225266
  12 -0.000000 5.822269 0.000000 -0.196679 0.142663 -0.223630
  13 -0.000000 8.863119 -0.000001 -0.032069 -0.401317 -0.398570
  14 0.000000 3.644233 0.000000 -0.331742 -0.316527 0.178956
  15 -0.000001 5.401833 -0.000000 0.718822 -1.382902 -0.552556
  16 0.000000 5.405347 -0.000000 0.939290 1.207611 0.855293
  17 0.000002 6.972891 0.000001 -0.192254 -1.174336 -0.002866
  18 0.000000 5.405347 -0.000000 -1.416207 0.314782 1.536892
  19 0.000000 2.147788 0.000001 0.129918 0.631247 -0.968445
  20 -1.935490 3.640030 6.017782 0.908030 -1.379136 1.973603
  21 3.241713 3.649997 5.054546 0.098482 1.095735 -2.746140
  22 -0.000000 8.863119 -0.000001 -1.681861 0.000842 0.289792
  23 -0.000000 12.911960 -0.000001 -1.376644 -1.110023 1.773635
  24 0.000001 14.211063 -0.000001 -1.596513 -0.174897 -2.685726
  25 -0.000008 13.479347 0.000005 0.743271 0.855855 0.774462
  26 0.000001 4.513456 -0.000001 0.020017 -0.558231 -0.213714
  27 -0.000001 3.164608 0.000001 -0.378961 -0.514880 0.045414
  28 -0.000008 13.479347 0.000005 -0.815577 2.382257 -1.253809
  29 0.000002 4.089760 -0.000002 0.044976 -0.478151 -0.162889
  30 0.000001 2.492396 -0.000001 -0.482592 -0.567933 0.125532
  31 -0.000008 13.479347 0.000005 0.191758 0.113979 0.522072
  32 -0.000002 4.321399 0.000000 -0.152389 -0.163555 0.018032
  33 -0.000002 3.867193 0.000001 0.034608 -0.221995 -0.090613
  34 -0.000000 8.863119 -0.000001 -1.352324 -2.767557 0.157781
  35 0.000002 12.409957 -0.000002 -1.138060 -0.156544 -1.730241
  36 -0.000000 14.203222 0.000005 -1.380885 0.279220 2.695890
  37 -0.000017 13.479349 0.000008 1.169108 -0.931517 -1.292108
  38 0.000005 4.513462 0.000000 0.020016 0.558231 0.213713
  39 0.000001 3.164612 0.000003 -0.378962 0.514880 -0.045416
  40 -0.000017 13.479349 0.000008 -0.523382 -2.518208 0.906569
  41 0.000000 4.089764 -0.000004 0.044976 0.478151 0.162889
  42 0.000002 2.492399 -0.000001 -0.482593 0.567933 -0.125533
  43 -0.000017 13.479349 0.000008 0.360124 -0.334905 -0.703037
  44 -0.000002 4.321398 0.000006 -0.152388 0.163554 -0.018031
  45 0.000000 3.867193 0.000001 0.034608 0.221995 0.090612
  46 0.000000 36.517490 -0.000001 -3.040050 -0.132801 1.245900
  47 -1.586123 3.425518 -5.597548 -2.183444 -0.604412 -1.702211
  48 -0.000003 12.976503 -0.000001 -0.373291 -0.648633 2.417848
  49 0.000008 13.209570 -0.000007 -1.269912 0.161935 -1.366187
  50 -0.000015 11.298654 -0.000001 -0.322749 -0.067747 -0.005853
  51 -2.946795 2.260442 -0.018081 0.011508 -2.123512 1.384717
  52 4.067904 3.234550 0.024958 0.250141 1.115022 -1.248883
  53 -1.910404 7.516021 0.626326 0.237085 2.449934 0.373309
  54 0.498693 7.200199 -0.276286 -0.336929 0.215805 -0.120326
  55 2.986893 6.702973 -1.654826 0.515556 -2.803169 -0.434333
  56 1.420168 7.446717 0.199370 0.233864 0.362881 -0.093119
  57 -0.000001 9.377632 0.000001 0.208330 0.943530 0.244636
  58 -0.000001 8.008636 0.000001 0.207109 0.514196 0.420363
  59 -0.000001 9.061673 -0.000001 -0.099138 -0.250494 0.491208
  60 -3.069575 3.425517 4.969539 2.782547 -0.468038 -0.436111
  61 0.000003 12.976511 -0.000001 1.960993 -2.218680 0.074879
  62 0.000002 13.209573 -0.000005 1.359739 2.948441 0.124028
  63 -0.000002 11.298662 -0.000013 0.401009 -2.863126 0.148807
  64 -0.000005 2.260443 2.946855 -1.394515 3.141591 -0.000002
  65 0.000005 3.234556 -4.067980 -1.762232 -0.194050 2.670248
  66 1.910427 7.516022 0.626272 0.237099 -2.449908 -0.373319
  67 -0.498696 7.200199 -0.276272 -0.336926 -0.215778 0.120325
  68 -2.986936 6.702969 -1.654743 0.515544 2.803193 0.434329
  time 4
  0 9.896583 -9.763544 -0.153811 0.000000 -0.000000 -3.141593
  1 -7.284428 23.399656 -6.953369 0.000000 -0.000000 0.000000
  2 -5.665754 0.012664 58.581337 1.570796 -0.000000 -3.141592
  3 -2.736712 -78.781387 -14.462731 -1.570796 -1.570796 0.000000
  4 15.073777 -77.350220 14.170086 -1.570796 -1.570796 0.000000
  5 -44.456379 -57.977322 20.839128 -1.570796 1.570796 0.000000
  6 -44.456367 -57.977322 -14.458026 -1.570796 1.570796 0.000000
  7 15.330741 -41.400753 15.954189 -1.570796 -1.570796 0.000000
  8 15.330753 -41.189766 -16.530237 -1.570796 -1.570796 0.000000
  9 3.764645 -90.595711 0.000003 0.000000 0.000000 0.000000
  10 0.000000 36.517490 -0.000001 1.834663 -1.406420 -0.980395
  11 0.000000 4.413177 0.000000 -0.441465 -1.652084 0.225266
  12 -0.000000 5.822269 0.000000 -0.196679 0.142663 -0.223630
  13 -0.000000 8.863119 -0.000001 -0.032069 -0.401317 -0.398570
  14 0.000000 3.644233 0.000000 -0.187376 -0.365177 0.043621
  15 -0.000001 5.401833 0.000000 0.820793 -1.356668 -0.712620
  16 0.000000 5.405349 -0.000000 0.939290 1.207611 0.855293
  17 -0.000000 6.972889 -0.000000 -0.192254 -1.174336 -0.002866
  18 0.000000 5.405349 -0.000000 -1.416207 0.314782 1.536892
  19 -0.000001 2.147788 0.000000 0.125965 0.674574 -1.256327
  20 -1.935490 3.640029 6.017782 0.908030 -1.379136 1.973602
  21 3.241713 3.649997 5.054545 0.098482 1.095735 -2.746140
  22 -0.000000 8.863119 -0.000001 -1.621140 -0.045205 0.266688
  23 -0.000000 12.911958 -0.000001 -1.395337 -0.951319 1.790570
  24 -0.000004 14.211066 0.000003 -1.550156 -0.197241 -2.685669
  25 -0.000013 13.479344 0.000011 0.680983 0.883605 0.722086
  26 -0.000000 4.515336 0.000000 0.020017 -0.558231 -0.213714
  27 -0.000001 3.165927 0.000000 -0.378962 -0.514880 0.045414
  28 -0.000013 13.479344 0.000011 -0.798998 2.354083 -1.233933
  29 0.000001 4.091463 -0.000003 0.044976 -0.478151 -0.162889
  30 0.000001 2.493433 -0.000001 -0.482592 -0.567934 0.125531
  31 -0.000013 13.479344 0.000011 0.141092 0.121412 0.514779
  32 -0.000002 4.323197 0.000003 -0.152389 -0.163555 0.018032
  33 -0.000001 3.868803 0.000003 0.034608 -0.221995 -0.090613
  34 -0.000000 8.863119 -0.000001 -1.352324 -2.767557 0.157781
  35 0.000002 12.409957 -0.000002 -1.224433 0.026267 -1.990415
  36 0.000002 14.203222 0.000004 -1.475806 0.234953 2.689327
  37 -0.000017 13.479344 0.000013 1.124726 -0.945300 -1.268267
  38 0.000001 4.515338 0.000004 0.020018 0.558232 0.213715
  39 0.000002 3.165928 0.000002 -0.378963 0.514880 -0.045416
  40 -0.000017 13.479344 0.000013 -0.530024 -2.495708 0.902440
  41 0.000005 4.091464 0.000001 0.044977 0.478152 0.162889
  42 0.000001 2.493435 -0.000002 -0.482592 0.567933 -0.125533
  43 -0.000017 13.479344 0.000013 0.301048 -0.341943 -0.685876
  44 0.000001 4.323193 0.000004 -0.152389 0.163556 -0.018032
  45 0.000001 3.868802 0.000001 0.034608 0.221995 0.090612
  46 0.000000 36.517490 -0.000001 -3.010003 -0.124251 1.206133
  47 -1.586122 3.425517 -5.597548 -2.187199 -0.615330 -1.752370
  48 -0.000009 12.976500 -0.000000 -0.388999 -0.657519 2.404198
  49 0.000012 13.209556 -0.000008 -1.263201 0.173148 -1.362705
  50 -0.000012 11.298654 -0.000002 -0.322599 -0.067742 -0.006273
  51 -2.946792 2.260440 -0.018079 0.011508 -2.123512 1.384717
  52 4.067904 3.234549 0.024959 0.237982 1.102386 -1.309166
  53 -1.910406 7.516016 0.626322 0.237085 2.449934 0.373310
  54 0.498690 7.200195 -0.276289 -0.336929 0.215805 -0.120325
  55 2.986887 6.702970 -1.654828 0.515556 -2.803169 -0.434332
  56 1.420169 7.446717 0.199369 0.154239 0.372475 -0.032626
  57 0.000001 9.377631 0.000000 -0.058108 1.017826 0.049318
  58 0.000000 8.008636 0.000002 0.052444 0.653048 0.302203
  59 -0.000000 9.061671 0.000001 -0.099138 -0.250495 0.491208
  60 -3.069576 3.425517 4.969538 2.750475 -0.482656 -0.493723
  61 0.000003 12.976507 0.000000 1.970240 -2.218612 0.076451
  62 -0.000000 13.209561 0.000001 1.364878 2.948169 0.123956
  63 0.000002 11.298655 -0.000012 0.368161 -2.859863 0.152244
  64 -0.000006 2.260443 2.946856 -1.394515 3.141590 -0.000003
  65 0.000006 3.234552 -4.067981 -1.761884 -0.194524 2.671251
  66 1.910425 7.516020 0.626271 0.237099 -2.449908 -0.373318
  67 -0.498697 7.200197 -0.276273 -0.336926 -0.215778 0.120325
  68 -2.986935 6.702969 -1.654740 0.515544 2.803194 0.434329
  time 5
  0 13.649738 -13.897486 -0.558653 0.000000 -0.000000 -3.141593
  1 -1.339964 21.982807 -7.152393 0.000000 -0.000000 0.000000
  2 -5.665754 0.012664 58.581337 1.570796 -0.000000 -3.141592
  3 -2.195603 -78.407799 -14.462731 -1.570796 -1.570796 0.000000
  4 13.122191 -77.350220 14.170085 -1.570796 -1.570796 0.000000
  5 -44.456379 -57.977322 20.839128 -1.570796 1.570796 0.000000
  6 -44.456367 -57.977322 -14.458026 -1.570796 1.570796 0.000000
  7 15.330741 -41.400753 15.954189 -1.570796 -1.570796 0.000000
  8 15.330753 -41.188694 -16.530237 -1.570796 -1.570796 0.000000
  9 -0.000000 -88.032249 0.000003 0.000000 0.000000 0.000000
  10 0.000000 36.517490 -0.000001 1.834663 -1.406420 -0.980395
  11 0.000000 4.413177 0.000001 -0.441465 -1.652084 0.225266
  12 -0.000000 5.822269 0.000000 -0.196679 0.142663 -0.223630
  13 -0.000000 8.863121 0.000000 -0.032068 -0.401317 -0.398570
  14 -0.000001 3.644234 -0.000001 -0.041017 -0.357118 -0.050867
  15 -0.000001 5.401832 -0.000001 1.017046 -1.138175 -1.314582
  16 -0.000000 5.405350 -0.000000 0.939290 1.207611 0.855293
  17 0.000000 6.972889 -0.000000 -0.192254 -1.174336 -0.002866
  18 -0.000000 5.405350 -0.000000 -1.416207 0.314783 1.536892
  19 0.000000 2.147789 0.000000 0.117252 0.696763 -1.413861
  20 -1.935488 3.640032 6.017782 0.908030 -1.379136 1.973602
  21 3.241713 3.650001 5.054546 0.098482 1.095735 -2.746138
  22 -0.000000 8.863121 0.000000 -1.559182 -0.089750 0.240751
  23 0.000001 12.911962 0.000001 -1.566267 -0.753921 1.798735
  24 -0.000000 14.211070 -0.000004 -1.704864 -0.122582 -2.689961
  25 -0.000008 13.479351 0.000008 0.605069 0.910624 0.657001
  26 0.000000 4.520485 0.000000 0.020017 -0.558231 -0.213714
  27 -0.000001 3.169537 0.000001 -0.378962 -0.514880 0.045414
  28 -0.000008 13.479351 0.000008 -0.781725 2.320670 -1.214077
  29 0.000001 4.096128 -0.000001 0.044976 -0.478151 -0.162889
  30 0.000001 2.496277 -0.000000 -0.482592 -0.567933 0.125532
  31 -0.000008 13.479351 0.000008 0.084332 0.128945 0.505302
  32 -0.000002 4.328128 0.000001 -0.152389 -0.163555 0.018032
  33 -0.000003 3.873215 0.000002 0.034608 -0.221994 -0.090613
  34 -0.000000 8.863121 0.000000 -1.352324 -2.767557 0.157781
  35 0.000002 12.409959 0.000003 -1.448677 0.029054 -2.145425
  36 -0.000003 14.203220 0.000008 -1.916257 0.026118 2.715795
  37 -0.000000 13.479342 -0.000001 1.067386 -0.960177 -1.231913
  38 0.000000 4.520483 0.000003 0.020018 0.558232 0.213715
  39 0.000004 3.169539 -0.000001 -0.378962 0.514879 -0.045416
  40 -0.000000 13.479342 -0.000001 -0.541895 -2.467865 0.904069
  41 0.000007 4.096129 0.000001 0.044977 0.478150 0.162889
  42 0.000002 2.496277 0.000000 -0.482593 0.567933 -0.125533
  43 -0.000000 13.479342 -0.000001 0.234116 -0.345952 -0.664357
  44 0.000002 4.328125 -0.000002 -0.152389 0.163556 -0.018032
  45 0.000002 3.873217 -0.000000 0.034608 0.221995 0.090612
  46 0.000000 36.517490 -0.000001 -3.022549 -0.125801 1.447704
  47 -1.586125 3.425518 -5.597548 -2.342720 -0.533070 -1.536201
  48 -0.000008 12.976498 0.000001 -0.544075 -0.758608 2.258366
  49 0.000010 13.209566 -0.000008 -1.192091 0.293932 -1.318882
  50 -0.000016 11.298650 -0.000000 -0.317946 -0.067527 -0.019312
  51 -2.946793 2.260439 -0.018081 0.011509 -2.123512 1.384716
  52 4.067902 3.234545 0.024960 0.227894 1.086618 -1.340891
  53 -1.910401 7.516019 0.626326 0.237085 2.449934 0.373309
  54 0.498695 7.200199 -0.276285 -0.336929 0.215805 -0.120326
  55 2.986892 6.702972 -1.654826 0.515556 -2.803169 -0.434333
  56 1.420169 7.446719 0.199370 0.067012 0.402520 -0.004217
  57 0.000001 9.377635 0.000001 -0.223067 1.044182 -0.078028
  58 0.000000 8.008636 0.000001 -0.114015 0.777116 0.140530
  59 -0.000000 9.061670 0.000001 -0.099138 -0.250494 0.491208
  60 -3.069578 3.425518 4.969540 2.707337 -0.543907 -0.449092
  61 0.000005 12.976510 -0.000003 1.846514 -2.219038 0.056074
  62 0.000002 13.209568 0.000004 1.295626 2.951434 0.124930
  63 0.000004 11.298656 -0.000019 0.335297 -2.856712 0.155792
  64 -0.000009 2.260446 2.946860 -1.394515 3.141589 -0.000003
  65 0.000007 3.234550 -4.067981 -1.593659 -0.120632 2.628367
  66 1.910422 7.516025 0.626275 0.237099 -2.449909 -0.373319
  67 -0.498700 7.200203 -0.276268 -0.336925 -0.215778 0.120325
  68 -2.986941 6.702973 -1.654733 0.515543 2.803195 0.434328
end
