version 1
nodes
0 "HandIK.R.000" -1
1 "HandIK.L.000" -1
2 "AllTorso.001" -1
3 "LegIK.R.000" 2
4 "LegIK.L.000" 2
5 "KneeIK.L.000" 2
6 "KneeIK.R.000" 2
7 "ElbowIK.L.000" 2
8 "ElbowIK.R.000" 2
9 "AllTorso.000" 2
10 "Bone.000" 9
11 "Bone.001" 10
12 "Bone.002" 11
13 "Bone.003" 12
14 "Bone.004" 13
15 "Bone.005" 14
16 "Bone.006" 15
17 "Bone.007" 16
18 "Bone.008" 15
19 "Bone.009" 18
20 "Ear.L.001" 15
21 "Ear.R.001" 15
22 "Arm.L.000" 12
23 "Arm.L.001" 22
24 "Arm.L.003" 23
25 "Arm.L.004" 24
26 "Arm.L.005" 25
27 "Arm.L.006" 26
28 "Arm.L.007" 24
29 "Arm.L.008" 28
30 "Arm.L.009" 29
31 "Arm.L.010" 24
32 "Arm.L.011" 31
33 "Arm.L.012" 32
34 "Arm.R.000" 12
35 "Arm.R.001" 34
36 "Arm.R.003" 35
37 "Arm.R.004" 36
38 "Arm.R.005" 37
39 "Arm.R.006" 38
40 "Arm.R.007" 36
41 "Arm.R.008" 40
42 "Arm.R.009" 41
43 "Arm.R.010" 36
44 "Arm.R.011" 43
45 "Arm.R.012" 44
46 "Bone.011" 9
47 "Leg.L.001" 46
48 "Leg.L.002" 47
49 "Leg.L.003" 48
50 "Leg.L.004" 49
51 "Leg.L.006" 50
52 "Leg.L.010" 50
53 "Leg.L.009" 52
54 "Leg.L.011" 52
55 "Leg.L.013" 52
56 "Bone.013" 46
57 "Bone.014" 56
58 "Bone.015" 57
59 "Bone.016" 58
60 "Leg.R.001" 46
61 "Leg.R.002" 60
62 "Leg.R.003" 61
63 "Leg.R.004" 62
64 "Leg.R.006" 63
65 "Leg.R.010" 63
66 "Leg.R.009" 65
67 "Leg.R.011" 65
68 "Leg.R.013" 65
end
skeleton
  time 0
  0 5.679656 -13.959097 -5.826597 0.000000 -0.000000 -3.141593
  1 21.137573 11.604708 -5.826597 0.000000 -0.000000 0.000000
  2 -5.665754 0.012664 58.581337 1.570796 -0.000000 -3.141592
  3 -18.098810 -73.480125 -9.233898 -1.570796 -1.570796 0.000000
  4 22.661161 -62.972980 9.959140 -1.570796 -1.570796 0.000000
  5 -34.981632 -57.977322 11.444124 -1.570796 1.570796 0.000000
  6 -34.981625 -57.977322 -11.469474 -1.570796 1.570796 0.000000
  7 15.330741 -41.400753 15.954189 -1.570796 -1.570796 0.000000
  8 15.330753 -41.399677 -16.530237 -1.570796 -1.570796 0.000000
  9 -0.000000 -81.715462 0.000003 0.000000 0.000000 0.000000
  10 0.000000 36.517490 -0.000001 0.000003 -1.749825 1.196366
  11 0.000001 4.413177 0.000001 0.940730 -1.317247 -0.991469
  12 -0.000001 5.822267 -0.000001 0.016980 -0.036298 -0.301075
  13 0.000000 8.863119 -0.000000 -0.032069 -0.401317 -0.398570
  14 0.000000 3.644233 -0.000000 0.061793 -0.053682 0.095924
  15 0.000000 5.401830 0.000000 0.194028 -1.206394 -0.066093
  16 -0.000000 5.405348 -0.000001 0.939290 1.207611 0.855293
  17 0.000001 6.972892 0.000000 -0.192254 -1.174336 -0.002866
  18 -0.000000 5.405348 -0.000001 -1.416207 0.314783 1.536892
  19 0.000001 2.147788 0.000001 0.100851 0.607517 -1.410314
  20 -1.935491 3.640032 6.017780 0.908030 -1.379136 1.973602
  21 3.241713 3.649999 5.054546 0.098482 1.095735 -2.746140
  22 0.000000 8.863119 -0.000000 -1.329390 -0.204217 0.029753
  23 0.000001 12.911961 0.000001 0.490535 3.099339 -1.109234
  24 -0.000003 14.211064 -0.000005 -1.469837 -0.235614 -2.688060
  25 -0.000002 13.479356 -0.000001 0.150606 0.605340 0.101074
  26 0.000000 4.544427 0.000000 0.020017 -0.558231 -0.213714
  27 -0.000000 3.186323 -0.000000 -0.378962 -0.514880 0.045415
  28 -0.000002 13.479356 -0.000001 1.556631 1.045048 0.961844
  29 0.000002 4.117820 -0.000000 0.044976 -0.478151 -0.162889
  30 0.000000 2.509497 -0.000000 -0.482592 -0.567933 0.125532
  31 -0.000002 13.479356 -0.000001 -0.220467 -0.132946 0.244523
  32 0.000000 4.351049 -0.000000 -0.152390 -0.163554 0.018032
  33 -0.000001 3.893725 0.000004 0.034608 -0.221995 -0.090613
  34 0.000000 8.863119 -0.000000 -1.699695 -2.732157 0.269364
  35 0.000001 12.409957 0.000000 -1.877213 0.454830 -2.032716
  36 0.000002 14.203223 0.000003 -1.486452 0.229917 2.688860
  37 -0.000019 13.479348 0.000010 0.150606 -0.605340 -0.101074
  38 0.000000 4.544425 0.000004 0.020016 0.558231 0.213713
  39 -0.000003 3.186322 0.000002 -0.378962 0.514879 -0.045414
  40 -0.000019 13.479348 0.000010 1.556633 -1.045048 -0.961845
  41 0.000002 4.117823 -0.000001 0.044976 0.478151 0.162889
  42 0.000001 2.509499 0.000001 -0.482593 0.567933 -0.125533
  43 -0.000019 13.479348 0.000010 -0.220467 0.132943 -0.244522
  44 -0.000002 4.351048 0.000001 -0.152389 0.163556 -0.018032
  45 -0.000001 3.893729 -0.000000 0.034608 0.221995 0.090612
  46 0.000000 36.517490 -0.000001 -2.954245 -0.012296 1.238739
  47 -1.586122 3.425517 -5.597548 0.660592 -2.581043 0.971341
  48 -0.000006 12.976500 0.000000 -0.451035 -0.694920 2.348616
  49 0.000009 13.209554 -0.000002 -1.235908 0.219034 -1.347427
  50 -0.000007 11.298661 -0.000005 0.092465 -0.031231 0.943204
  51 -2.946795 2.260435 -0.018078 0.011508 -2.123511 1.384717
  52 4.067906 3.234554 0.024965 0.212715 1.054453 -1.274408
  53 -1.910406 7.516026 0.626320 0.237085 2.449934 0.373309
  54 0.498692 7.200203 -0.276288 -0.336929 0.215804 -0.120326
  55 2.986891 6.702975 -1.654826 0.515556 -2.803169 -0.434333
  56 1.420167 7.446716 0.199370 -0.053660 0.507804 -0.360694
  57 0.000001 9.377632 0.000001 -0.247670 1.054608 0.085497
  58 -0.000000 8.008636 0.000000 -0.104604 0.777595 0.135146
  59 -0.000000 9.061671 0.000000 0.081896 0.384512 0.165791
  60 -3.069576 3.425515 4.969539 2.700927 -0.739525 -0.396830
  61 -0.000001 12.976508 -0.000002 1.324533 -2.213454 -0.003584
  62 0.000006 13.209564 0.000003 0.983335 2.948953 0.123165
  63 0.000002 11.298657 -0.000011 0.971251 -3.111650 0.150966
  64 -0.000002 2.260442 2.946848 -1.394515 3.141592 -0.000003
  65 0.000001 3.234557 -4.067978 -1.620621 -0.139303 2.644614
  66 1.910430 7.516022 0.626268 0.237099 -2.449908 -0.373319
  67 -0.498691 7.200198 -0.276277 -0.336927 -0.215778 0.120326
  68 -2.986928 6.702967 -1.654748 0.515544 2.803193 0.434329
  time 1
  0 6.278657 -13.959097 -1.703798 0.000000 -0.000000 -3.141593
  1 20.428329 11.770045 -1.742641 0.000000 -0.000000 0.000000
  2 -5.665754 0.012664 58.581337 1.570796 -0.000000 -3.141592
  3 -8.166158 -78.854446 -9.233895 -1.570796 -1.570796 0.000000
  4 12.987998 -63.244980 9.959136 -1.570796 -1.570796 0.000000
  5 -34.981632 -57.977322 11.444124 -1.570796 1.570796 0.000000
  6 -34.981625 -57.977322 -11.469474 -1.570796 1.570796 0.000000
  7 15.330741 -41.400753 15.954189 -1.570796 -1.570796 0.000000
  8 15.330753 -41.396580 -16.530237 -1.570796 -1.570796 0.000000
  9 -0.000000 -78.465446 0.000003 0.000000 0.000000 0.000000
  10 0.000000 36.517490 -0.000001 0.000003 -1.749825 1.196366
  11 0.000001 4.413177 0.000001 0.940730 -1.317247 -0.991469
  12 -0.000001 5.822267 -0.000001 0.011326 -0.034699 -0.427256
  13 -0.000001 8.863118 -0.000000 -0.039249 -0.404603 -0.487678
  14 -0.000000 3.644233 -0.000001 0.061793 -0.053682 0.095924
  15 0.000001 5.401831 -0.000000 0.194028 -1.206394 -0.066093
  16 0.000000 5.405348 -0.000001 0.939289 1.207611 0.855292
  17 -0.000001 6.972888 0.000002 -0.192254 -1.174336 -0.002866
  18 0.000000 5.405348 -0.000001 -1.416207 0.314783 1.536892
  19 -0.000000 2.147789 0.000001 0.095010 0.594219 -1.269808
  20 -1.935490 3.640031 6.017781 0.908030 -1.379136 1.973603
  21 3.241714 3.649998 5.054546 0.098482 1.095735 -2.746140
  22 -0.000001 8.863118 -0.000000 -1.419075 -0.212092 0.055332
  23 -0.000001 12.911962 0.000001 0.314973 -3.135115 -1.062123
  24 0.000001 14.211068 -0.000002 -1.338699 -0.296552 -2.698674
  25 0.000000 13.479353 -0.000002 0.150606 0.605340 0.101074
  26 -0.000000 4.544426 -0.000001 0.020017 -0.558231 -0.213714
  27 -0.000000 3.186322 -0.000001 -0.378962 -0.514880 0.045415
  28 0.000000 13.479353 -0.000002 1.556632 1.045047 0.961845
  29 0.000002 4.117818 -0.000001 0.044976 -0.478151 -0.162889
  30 0.000000 2.509495 -0.000002 -0.482592 -0.567933 0.125532
  31 0.000000 13.479353 -0.000002 -0.220467 -0.132946 0.244523
  32 0.000001 4.351048 -0.000001 -0.152389 -0.163555 0.018032
  33 0.000002 3.893727 -0.000001 0.034608 -0.221995 -0.090613
  34 -0.000001 8.863118 -0.000000 -1.604138 -2.721459 0.237863
  35 0.000001 12.409952 0.000000 -1.893192 0.357801 -2.097233
  36 -0.000002 14.203222 0.000004 -1.324707 0.304737 2.701792
  37 -0.000019 13.479351 0.000008 0.150606 -0.605340 -0.101074
  38 0.000000 4.544427 0.000005 0.020017 0.558231 0.213713
  39 -0.000004 3.186323 0.000002 -0.378962 0.514879 -0.045414
  40 -0.000019 13.479351 0.000008 1.556632 -1.045048 -0.961845
  41 0.000001 4.117824 0.000000 0.044976 0.478151 0.162889
  42 0.000000 2.509500 0.000001 -0.482592 0.567933 -0.125533
  43 -0.000019 13.479351 0.000008 -0.220467 0.132943 -0.244522
  44 -0.000002 4.351048 0.000002 -0.152389 0.163556 -0.018032
  45 -0.000002 3.893727 0.000001 0.034608 0.221995 0.090612
  46 0.000000 36.517490 -0.000001 -3.022769 -0.035865 1.240389
  47 -1.586125 3.425519 -5.597548 0.513841 -2.415936 1.542251
  48 -0.000009 12.976497 0.000005 -0.291601 -0.606068 2.485940
  49 0.000015 13.209550 -0.000008 -1.303766 0.105907 -1.382169
  50 -0.000014 11.298656 -0.000003 0.092567 -0.029184 0.951861
  51 -2.946796 2.260428 -0.018078 0.011508 -2.123512 1.384719
  52 4.067903 3.234561 0.024961 0.212715 1.054452 -1.274408
  53 -1.910403 7.516026 0.626315 0.237085 2.449934 0.373309
  54 0.498693 7.200201 -0.276296 -0.336930 0.215806 -0.120327
  55 2.986891 6.702968 -1.654834 0.515557 -2.803168 -0.434334
  56 1.420167 7.446717 0.199370 -0.053660 0.507804 -0.360694
  57 0.000001 9.377631 0.000001 -0.334515 1.089204 -0.000629
  58 0.000000 8.008637 0.000001 -0.074645 0.812874 0.057873
  59 -0.000002 9.061670 -0.000000 0.081223 0.384831 0.164726
  60 -3.069575 3.425516 4.969539 -0.222402 -2.321064 2.026760
  61 0.000001 12.976502 0.000001 0.871116 -2.202895 -0.026970
  62 0.000013 13.209550 0.000012 0.684353 2.932161 0.106738
  63 0.000004 11.298648 -0.000004 0.386364 -3.123979 0.097603
  64 -0.000002 2.260437 2.946853 -1.394515 3.141592 -0.000002
  65 -0.000002 3.234551 -4.067981 -1.620622 -0.139304 2.644615
  66 1.910427 7.516026 0.626277 0.237098 -2.449909 -0.373318
  67 -0.498695 7.200203 -0.276268 -0.336925 -0.215777 0.120324
  68 -2.986935 6.702972 -1.654734 0.515543 2.803194 0.434328
  time 2
  0 14.514933 -13.959096 -3.932474 0.000000 -0.000000 -3.141593
  1 10.747233 14.500175 -4.476286 0.000000 -0.000000 0.000000
  2 -5.665754 0.012664 58.581337 1.570796 -0.000000 -3.141592
  3 12.502845 -70.750748 -9.233889 -1.570796 -1.570796 0.000000
  4 -4.976451 -65.148972 9.959131 -1.570796 -1.570796 0.000000
  5 -34.981632 -57.977322 11.444124 -1.570796 1.570796 0.000000
  6 -34.981625 -57.977322 -11.469474 -1.570796 1.570796 0.000000
  7 15.330741 -41.400753 15.954189 -1.570796 -1.570796 0.000000
  8 15.330753 -41.391644 -16.530237 -1.570796 -1.570796 0.000000
  9 -0.000000 -78.871696 0.000003 0.000000 0.000000 0.000000
  10 0.000000 36.517490 -0.000001 0.000003 -1.749825 1.196366
  11 0.000001 4.413177 0.000001 0.940730 -1.317247 -0.991469
  12 -0.000001 5.822267 -0.000001 0.014317 -0.035449 -0.361068
  13 0.000000 8.863119 -0.000001 -0.038810 -0.404381 -0.482108
  14 0.000000 3.644234 0.000000 0.061793 -0.053682 0.095924
  15 -0.000000 5.401830 0.000000 0.194028 -1.206394 -0.066093
  16 -0.000001 5.405349 0.000001 0.939290 1.207611 0.855293
  17 0.000001 6.972889 0.000001 -0.192254 -1.174336 -0.002866
  18 -0.000001 5.405349 0.000001 -1.416208 0.314782 1.536892
  19 -0.000000 2.147789 0.000001 0.095226 0.594623 -1.274178
  20 -1.935491 3.640030 6.017781 0.908029 -1.379136 1.973603
  21 3.241711 3.649998 5.054545 0.098482 1.095735 -2.746140
  22 0.000000 8.863119 -0.000001 -1.586981 -0.220651 0.104590
  23 -0.000003 12.911959 0.000002 0.777735 -2.881768 -1.024199
  24 0.000000 14.211069 0.000003 -1.495912 -0.223220 -2.686938
  25 0.000002 13.479356 -0.000002 0.150606 0.605340 0.101074
  26 -0.000000 4.544425 0.000001 0.020017 -0.558231 -0.213714
  27 0.000001 3.186324 0.000000 -0.378962 -0.514880 0.045415
  28 0.000002 13.479356 -0.000002 1.556631 1.045048 0.961844
  29 0.000001 4.117823 -0.000000 0.044976 -0.478151 -0.162889
  30 0.000000 2.509496 -0.000000 -0.482592 -0.567933 0.125532
  31 0.000002 13.479356 -0.000002 -0.220468 -0.132946 0.244523
  32 -0.000001 4.351047 0.000002 -0.152389 -0.163555 0.018032
  33 -0.000000 3.893725 0.000002 0.034608 -0.221995 -0.090613
  34 0.000000 8.863119 -0.000001 -1.424260 -2.709092 0.176441
  35 -0.000000 12.409953 -0.000001 -2.223803 0.168567 -2.199252
  36 -0.000001 14.203219 0.000005 -1.409810 0.265868 2.693433
  37 -0.000015 13.479346 0.000012 0.150606 -0.605340 -0.101073
  38 0.000000 4.544423 0.000003 0.020017 0.558231 0.213713
  39 -0.000002 3.186321 0.000002 -0.378962 0.514879 -0.045415
  40 -0.000015 13.479346 0.000012 1.556633 -1.045048 -0.961845
  41 0.000002 4.117821 0.000001 0.044976 0.478151 0.162889
  42 0.000001 2.509498 0.000001 -0.482592 0.567933 -0.125533
  43 -0.000015 13.479346 0.000012 -0.220467 0.132943 -0.244522
  44 -0.000000 4.351044 -0.000000 -0.152389 0.163556 -0.018032
  45 -0.000000 3.893727 -0.000000 0.034608 0.221995 0.090612
  46 0.000000 36.517490 -0.000001 3.132486 -0.079207 1.247757
  47 -1.586123 3.425518 -5.597547 -2.775144 -0.749661 -0.707288
  48 -0.000005 12.976495 0.000003 -0.309298 -0.614790 2.471781
  49 0.000016 13.209558 0.000004 -1.296522 0.117646 -1.379021
  50 0.000002 11.298650 -0.000000 0.089592 -0.023579 0.955217
  51 -2.946794 2.260433 -0.018080 0.011508 -2.123511 1.384718
  52 4.067900 3.234555 0.024962 0.212714 1.054452 -1.274409
  53 -1.910407 7.516019 0.626320 0.237086 2.449934 0.373310
  54 0.498687 7.200196 -0.276293 -0.336928 0.215805 -0.120325
  55 2.986886 6.702968 -1.654830 0.515557 -2.803168 -0.434332
  56 1.420167 7.446717 0.199369 -0.053660 0.507804 -0.360694
  57 -0.000000 9.377634 -0.000002 -0.516355 1.125778 -0.191485
  58 0.000001 8.008636 0.000001 -0.027107 0.882674 -0.090736
  59 0.000002 9.061670 0.000002 0.081223 0.384831 0.164726
  60 -3.069573 3.425517 4.969539 -0.243072 -2.535331 1.793425
  61 0.000005 12.976507 0.000002 1.772078 -2.218929 0.045202
  62 0.000001 13.209568 0.000005 1.253109 2.952555 0.125340
  63 0.000006 11.298637 -0.000010 0.545777 -3.121017 0.109175
  64 -0.000006 2.260438 2.946850 -1.394515 3.141592 -0.000004
  65 0.000007 3.234550 -4.067972 -1.620621 -0.139303 2.644615
  66 1.811886 7.619426 0.791572 -0.512219 -2.439898 0.450508
  67 -0.498854 7.118536 -0.267958 0.245523 -0.305003 0.295611
  68 -2.888243 6.681215 -1.828344 -0.065592 2.567970 0.500145
  time 3
  0 21.852703 -13.959097 -6.677465 0.000000 -0.000000 -3.141593
  1 2.130002 16.982298 -7.719057 0.000000 -0.000000 0.000000
  2 -5.665754 0.012664 58.581337 1.570796 -0.000000 -3.141592
  3 24.164221 -62.647049 -9.233884 -1.570796 -1.570796 0.000000
  4 -14.649611 -70.316956 9.959128 -1.570796 -1.570796 0.000000
  5 -34.981632 -57.977322 11.444124 -1.570796 1.570796 0.000000
  6 -34.981625 -57.977322 -11.469474 -1.570796 1.570796 0.000000
  7 15.330741 -41.400753 15.954189 -1.570796 -1.570796 0.000000
  8 15.330753 -41.385044 -16.530237 -1.570796 -1.570796 0.000000
  9 -0.000000 -81.715462 0.000003 0.000000 0.000000 0.000000
  10 0.000000 36.517490 -0.000001 0.000003 -1.749825 1.196366
  11 0.000001 4.413177 0.000001 0.940730 -1.317247 -0.991469
  12 -0.000001 5.822267 -0.000001 0.017252 -0.036394 -0.294880
  13 -0.000000 8.863118 -0.000001 -0.032069 -0.401317 -0.398570
  14 0.000000 3.644232 -0.000000 0.061793 -0.053682 0.095924
  15 0.000000 5.401830 0.000000 0.194027 -1.206394 -0.066092
  16 0.000001 5.405349 0.000000 0.939290 1.207611 0.855293
  17 0.000002 6.972887 -0.000000 -0.192254 -1.174336 -0.002866
  18 0.000001 5.405349 0.000000 -1.416207 0.314783 1.536892
  19 0.000000 2.147788 0.000001 0.100851 0.607517 -1.410314
  20 -1.935489 3.640031 6.017781 0.908031 -1.379136 1.973602
  21 3.241714 3.649997 5.054545 0.098482 1.095735 -2.746140
  22 -0.000000 8.863118 -0.000001 -1.677276 -0.221883 0.131452
  23 0.000001 12.911954 0.000002 -2.098940 -0.391477 2.107330
  24 -0.000003 14.211074 0.000006 -1.817688 -0.068763 -2.700385
  25 -0.000016 13.479345 0.000011 0.150607 0.605339 0.101076
  26 0.000001 4.544425 0.000000 0.020017 -0.558231 -0.213714
  27 -0.000001 3.186324 -0.000001 -0.378963 -0.514880 0.045416
  28 -0.000016 13.479345 0.000011 1.556630 1.045046 0.961846
  29 0.000001 4.117821 -0.000001 0.044976 -0.478151 -0.162889
  30 -0.000000 2.509497 0.000000 -0.482592 -0.567934 0.125532
  31 -0.000016 13.479345 0.000011 -0.220467 -0.132947 0.244523
  32 -0.000004 4.351048 0.000004 -0.152389 -0.163556 0.018033
  33 0.000001 3.893727 0.000001 0.034608 -0.221994 -0.090613
  34 -0.000000 8.863118 -0.000001 -1.327200 -2.706662 0.142658
  35 0.000002 12.409958 -0.000002 0.617076 3.063188 0.857480
  36 0.000003 14.203215 0.000009 -1.543063 0.202962 2.687313
  37 -0.000010 13.479350 0.000010 0.150606 -0.605340 -0.101073
  38 0.000003 4.544426 0.000001 0.020016 0.558231 0.213713
  39 -0.000001 3.186322 0.000002 -0.378962 0.514879 -0.045415
  40 -0.000010 13.479350 0.000010 1.556632 -1.045048 -0.961845
  41 0.000003 4.117822 -0.000002 0.044976 0.478151 0.162889
  42 0.000002 2.509499 -0.000000 -0.482592 0.567933 -0.125533
  43 -0.000010 13.479350 0.000010 -0.220468 0.132944 -0.244523
  44 -0.000003 4.351046 0.000002 -0.152388 0.163555 -0.018032
  45 -0.000001 3.893728 -0.000001 0.034608 0.221995 0.090612
  46 0.000000 36.517490 -0.000001 3.063436 -0.101999 1.254008
  47 -1.586125 3.425518 -5.597548 -2.758750 -0.585378 -0.681023
  48 -0.000012 12.976489 0.000009 -0.613878 -0.813104 2.184257
  49 0.000023 13.209562 0.000003 -1.155774 0.356261 -1.291433
  50 -0.000020 11.298646 0.000018 0.078164 -0.016437 0.955877
  51 -2.946793 2.260434 -0.018080 0.011508 -2.123511 1.384718
  52 4.067901 3.234559 0.024964 0.212714 1.054452 -1.274409
  53 -1.910411 7.516019 0.626318 0.237086 2.449934 0.373310
  54 0.498686 7.200196 -0.276295 -0.336928 0.215805 -0.120324
  55 2.986886 6.702967 -1.654834 0.515557 -2.803168 -0.434333
  56 1.420169 7.446718 0.199370 -0.053659 0.507803 -0.360694
  57 0.000001 9.377631 -0.000002 -0.623492 1.136982 -0.304461
  58 0.000001 8.008636 0.000001 -0.007053 0.921788 -0.173665
  59 -0.000003 9.061674 -0.000000 0.081223 0.384831 0.164726
  60 -3.069578 3.425516 4.969538 -0.456386 -2.585360 1.390177
  61 0.000005 12.976502 0.000001 1.877218 -2.219005 0.060825
  62 0.000001 13.209570 -0.000003 1.312976 2.950807 0.124722
  63 0.000002 11.298644 -0.000015 0.707256 -3.116183 0.120272
  64 -0.000002 2.260441 2.946848 -1.394515 3.141592 -0.000002
  65 0.000001 3.234554 -4.067975 -1.620620 -0.139304 2.644614
  66 1.837437 7.592617 0.748709 -0.324099 -2.397426 0.243107
  67 -0.498810 7.139704 -0.270120 0.095672 -0.272755 0.255670
  68 -2.913829 6.686852 -1.783340 0.089607 2.631304 0.497647
  time 4
  0 21.253702 -13.959097 -1.470758 0.000000 -0.000000 -3.141593
  1 2.697269 15.903469 -2.480696 0.000000 -0.000000 0.000000
  2 -5.665754 0.012664 58.581337 1.570796 -0.000000 -3.141592
  3 3.398493 -63.543945 -9.233891 -1.570796 -1.570796 0.000000
  4 -7.558874 -78.420654 9.959130 -1.570796 -1.570796 0.000000
  5 -34.981632 -57.977322 11.444124 -1.570796 1.570796 0.000000
  6 -34.981625 -57.977322 -11.469474 -1.570796 1.570796 0.000000
  7 15.330741 -41.400753 15.954189 -1.570796 -1.570796 0.000000
  8 15.330753 -41.376976 -16.530237 -1.570796 -1.570796 0.000000
  9 -0.000000 -78.465446 0.000003 0.000000 0.000000 0.000000
  10 0.000000 36.517490 -0.000001 0.000003 -1.749825 1.196366
  11 0.000001 4.413177 0.000001 0.940730 -1.317247 -0.991469
  12 0.000001 5.822267 -0.000001 0.011326 -0.034699 -0.427256
  13 0.000001 8.863119 -0.000001 -0.039249 -0.404603 -0.487679
  14 -0.000000 3.644233 -0.000000 0.061793 -0.053682 0.095924
  15 -0.000000 5.401831 0.000000 0.194028 -1.206394 -0.066093
  16 0.000000 5.405348 -0.000000 0.939290 1.207611 0.855293
  17 -0.000001 6.972889 -0.000000 -0.192254 -1.174336 -0.002866
  18 0.000000 5.405348 -0.000000 -1.416207 0.314783 1.536892
  19 0.000000 2.147789 0.000001 0.095011 0.594219 -1.269808
  20 -1.935490 3.640029 6.017781 0.908031 -1.379136 1.973601
  21 3.241713 3.649998 5.054544 0.098482 1.095736 -2.746140
  22 0.000001 8.863119 -0.000001 -1.548191 -0.219396 0.093100
  23 -0.000001 12.911961 0.000001 -1.976336 -0.247921 2.094678
  24 0.000006 14.211065 -0.000002 -1.556409 -0.194232 -2.685615
  25 -0.000004 13.479356 0.000005 0.150607 0.605340 0.101074
  26 0.000000 4.544427 -0.000000 0.020017 -0.558231 -0.213714
  27 0.000000 3.186325 -0.000001 -0.378962 -0.514880 0.045415
  28 -0.000004 13.479356 0.000005 1.556631 1.045047 0.961846
  29 0.000002 4.117822 -0.000000 0.044977 -0.478151 -0.162890
  30 -0.000000 2.509497 -0.000001 -0.482592 -0.567934 0.125532
  31 -0.000004 13.479356 0.000005 -0.220468 -0.132946 0.244523
  32 -0.000003 4.351049 0.000003 -0.152389 -0.163556 0.018033
  33 0.000002 3.893729 -0.000000 0.034608 -0.221995 -0.090613
  34 0.000001 8.863119 -0.000001 -1.465903 -2.711048 0.190838
  35 0.000005 12.409958 0.000000 0.390413 3.019144 0.750444
  36 -0.000002 14.203224 0.000005 -1.337943 0.298779 2.700269
  37 -0.000007 13.479357 0.000010 0.150606 -0.605340 -0.101073
  38 0.000003 4.544426 0.000003 0.020016 0.558231 0.213713
  39 -0.000001 3.186324 0.000002 -0.378962 0.514879 -0.045415
  40 -0.000007 13.479357 0.000010 1.556632 -1.045048 -0.961845
  41 0.000004 4.117825 -0.000001 0.044976 0.478151 0.162889
  42 0.000001 2.509500 0.000000 -0.482592 0.567933 -0.125533
  43 -0.000007 13.479357 0.000010 -0.220467 0.132944 -0.244523
  44 -0.000002 4.351048 0.000002 -0.152389 0.163555 -0.018032
  45 -0.000000 3.893729 0.000001 0.034609 0.221995 0.090612
  46 0.000000 36.517490 -0.000001 -3.121944 -0.069266 1.253316
  47 -1.586120 3.425517 -5.597549 -2.904240 -0.438760 -1.360692
  48 -0.000012 12.976497 0.000005 -0.918970 -1.207833 1.616904
  49 0.000020 13.209547 0.000023 -0.824026 0.793596 -0.947658
  50 -0.000005 11.298650 -0.000008 0.041283 -0.041830 0.402014
  51 -2.946799 2.260434 -0.018079 0.011507 -2.123512 1.384719
  52 4.067903 3.234553 0.024955 0.212712 1.054453 -1.274410
  53 -1.910405 7.516026 0.626332 0.237085 2.449934 0.373309
  54 0.498692 7.200205 -0.276281 -0.336929 0.215805 -0.120326
  55 2.986892 6.702978 -1.654823 0.515555 -2.803169 -0.434332
  56 1.420169 7.446718 0.199370 -0.053660 0.507803 -0.360694
  57 -0.000001 9.377633 -0.000001 -0.558348 1.095900 -0.240298
  58 0.000000 8.008636 0.000001 -0.082882 0.869512 -0.115064
  59 0.000001 9.061673 0.000001 0.081223 0.384831 0.164726
  60 -3.069578 3.425518 4.969539 2.875944 -0.449166 -0.688052
  61 0.000002 12.976504 0.000002 -0.732834 -0.932747 -2.969274
  62 0.000007 13.209556 -0.000007 1.602747 2.925039 0.120942
  63 0.000006 11.298656 -0.000004 0.868698 -3.109624 0.130448
  64 -0.000002 2.260435 2.946846 -1.394515 3.141593 -0.000002
  65 -0.000000 3.234558 -4.067978 -1.620621 -0.139304 2.644614
  66 1.884882 7.542829 0.669122 0.052296 -2.402543 -0.169166
  67 -0.498732 7.179026 -0.274124 -0.186613 -0.229018 0.169821
  68 -2.961341 6.697329 -1.699759 0.369965 2.746531 0.464738
  time 5
  0 13.017428 -13.959097 -2.294350 0.000000 -0.000000 -3.141593
  1 12.449354 13.630086 -2.799316 0.000000 -0.000000 0.000000
  2 -5.665754 0.012664 58.581337 1.570796 -0.000000 -3.141592
  3 -17.367229 -69.822197 -9.233897 -1.570796 -1.570796 0.000000
  4 14.599679 -69.557236 9.959137 -1.570796 -1.570796 0.000000
  5 -34.981632 -57.977322 11.444124 -1.570796 1.570796 0.000000
  6 -34.981625 -57.977322 -11.469474 -1.570796 1.570796 0.000000
  7 15.330741 -41.400753 15.954189 -1.570796 -1.570796 0.000000
  8 15.330753 -41.367619 -16.530237 -1.570796 -1.570796 0.000000
  9 -0.000000 -78.871696 0.000003 0.000000 0.000000 0.000000
  10 0.000000 36.517490 -0.000001 0.000003 -1.749825 1.196366
  11 0.000001 4.413177 0.000001 0.940730 -1.317247 -0.991469
  12 0.000001 5.822267 -0.000001 0.014178 -0.035409 -0.364165
  13 -0.000000 8.863118 -0.000001 -0.038810 -0.404381 -0.482108
  14 -0.000000 3.644233 0.000000 0.061793 -0.053682 0.095924
  15 -0.000000 5.401832 -0.000000 0.194027 -1.206394 -0.066091
  16 0.000002 5.405349 -0.000002 0.939290 1.207611 0.855292
  17 -0.000001 6.972889 0.000001 -0.192254 -1.174336 -0.002866
  18 0.000002 5.405349 -0.000002 -1.416207 0.314783 1.536892
  19 0.000000 2.147789 0.000000 0.095226 0.594623 -1.274178
  20 -1.935489 3.640033 6.017782 0.908030 -1.379135 1.973601
  21 3.241715 3.650000 5.054544 0.098482 1.095735 -2.746140
  22 -0.000000 8.863118 -0.000001 -1.419075 -0.212092 0.055332
  23 0.000000 12.911959 0.000000 -2.225956 -0.108462 2.073331
  24 -0.000000 14.211065 0.000001 -1.338574 -0.296609 -2.698688
  25 0.000001 13.479358 -0.000003 0.150606 0.605340 0.101074
  26 0.000001 4.544426 0.000000 0.020017 -0.558231 -0.213714
  27 -0.000000 3.186324 0.000000 -0.378962 -0.514880 0.045415
  28 0.000001 13.479358 -0.000003 1.556631 1.045048 0.961844
  29 0.000002 4.117821 0.000001 0.044976 -0.478151 -0.162889
  30 0.000001 2.509496 0.000000 -0.482591 -0.567933 0.125531
  31 0.000001 13.479358 -0.000003 -0.220468 -0.132946 0.244523
  32 -0.000002 4.351048 0.000003 -0.152389 -0.163554 0.018032
  33 -0.000002 3.893725 0.000003 0.034608 -0.221995 -0.090613
  34 -0.000000 8.863118 -0.000001 -1.604138 -2.721459 0.237863
  35 -0.000003 12.409957 -0.000000 0.899146 2.807772 0.926404
  36 -0.000006 14.203220 0.000003 -1.281408 0.323976 2.707342
  37 -0.000015 13.479353 0.000008 0.150606 -0.605340 -0.101074
  38 -0.000002 4.544425 0.000005 0.020017 0.558231 0.213714
  39 -0.000003 3.186324 0.000003 -0.378962 0.514879 -0.045415
  40 -0.000015 13.479353 0.000008 1.556631 -1.045048 -0.961845
  41 0.000000 4.117823 0.000003 0.044976 0.478151 0.162889
  42 0.000001 2.509500 0.000000 -0.482592 0.567933 -0.125533
  43 -0.000015 13.479353 0.000008 -0.220467 0.132944 -0.244522
  44 -0.000001 4.351048 0.000002 -0.152389 0.163556 -0.018032
  45 -0.000001 3.893726 -0.000001 0.034608 0.221995 0.090612
  46 0.000000 36.517490 -0.000001 -3.022769 -0.035865 1.240389
  47 -1.586123 3.425517 -5.597547 0.416967 -2.551272 1.418338
  48 -0.000009 12.976504 0.000003 -0.569903 -0.778043 2.231766
  49 0.000018 13.209567 0.000012 -1.179063 0.316224 -1.309469
  50 -0.000019 11.298661 -0.000005 0.063758 -0.047832 0.592506
  51 -2.946798 2.260434 -0.018079 0.011507 -2.123510 1.384720
  52 4.067899 3.234562 0.024952 0.212712 1.054452 -1.274410
  53 -1.932253 7.685416 0.492215 -0.395515 2.291429 -0.337708
  54 0.483012 7.138371 -0.269290 0.144789 0.165893 -0.288395
  55 3.024430 6.595405 -1.527724 0.010232 -2.724481 -0.505521
  56 1.420169 7.446716 0.199371 -0.053660 0.507804 -0.360694
  57 0.000001 9.377630 0.000001 -0.395446 1.053836 -0.090971
  58 0.000000 8.008635 0.000000 -0.074645 0.812874 0.057873
  59 -0.000001 9.061670 0.000004 0.081223 0.384831 0.164726
  60 -3.069577 3.425517 4.969539 2.792611 -0.704366 -0.406438
  61 0.000003 12.976506 -0.000003 1.415317 -2.215133 0.004363
  62 0.000010 13.209561 0.000008 1.039732 2.950795 0.124341
  63 0.000001 11.298651 -0.000011 1.028014 -3.101633 0.139332
  64 -0.000003 2.260439 2.946847 -1.394515 3.141592 -0.000003
  65 0.000002 3.234556 -4.067977 -1.620621 -0.139304 2.644614
  66 1.910429 7.516016 0.626271 0.237099 -2.449908 -0.373318
  67 -0.498693 7.200192 -0.276274 -0.336926 -0.215779 0.120325
  68 -2.986931 6.702964 -1.654744 0.515544 2.803193 0.434329
end
