version 1
nodes
0 "HandIK.R.000" -1
1 "HandIK.L.000" -1
2 "AllTorso.001" -1
3 "LegIK.R.000" 2
4 "LegIK.L.000" 2
5 "KneeIK.L.000" 2
6 "KneeIK.R.000" 2
7 "ElbowIK.L.000" 2
8 "ElbowIK.R.000" 2
9 "AllTorso.000" 2
10 "Bone.000" 9
11 "Bone.001" 10
12 "Bone.002" 11
13 "Bone.003" 12
14 "Bone.004" 13
15 "Bone.005" 14
16 "Bone.006" 15
17 "Bone.007" 16
18 "Bone.008" 15
19 "Bone.009" 18
20 "Ear.L.001" 15
21 "Ear.R.001" 15
22 "Arm.L.000" 12
23 "Arm.L.001" 22
24 "Arm.L.003" 23
25 "Arm.L.004" 24
26 "Arm.L.005" 25
27 "Arm.L.006" 26
28 "Arm.L.007" 24
29 "Arm.L.008" 28
30 "Arm.L.009" 29
31 "Arm.L.010" 24
32 "Arm.L.011" 31
33 "Arm.L.012" 32
34 "Arm.R.000" 12
35 "Arm.R.001" 34
36 "Arm.R.003" 35
37 "Arm.R.004" 36
38 "Arm.R.005" 37
39 "Arm.R.006" 38
40 "Arm.R.007" 36
41 "Arm.R.008" 40
42 "Arm.R.009" 41
43 "Arm.R.010" 36
44 "Arm.R.011" 43
45 "Arm.R.012" 44
46 "Bone.011" 9
47 "Leg.L.001" 46
48 "Leg.L.002" 47
49 "Leg.L.003" 48
50 "Leg.L.004" 49
51 "Leg.L.006" 50
52 "Leg.L.010" 50
53 "Leg.L.009" 52
54 "Leg.L.011" 52
55 "Leg.L.013" 52
56 "Bone.013" 46
57 "Bone.014" 56
58 "Bone.015" 57
59 "Bone.016" 58
60 "Leg.R.001" 46
61 "Leg.R.002" 60
62 "Leg.R.003" 61
63 "Leg.R.004" 62
64 "Leg.R.006" 63
65 "Leg.R.010" 63
66 "Leg.R.009" 65
67 "Leg.R.011" 65
68 "Leg.R.013" 65
end
skeleton
  time 0
  0 20.410374 -16.735977 -23.029392 0.000000 -0.000000 -3.141593
  1 5.659760 20.322403 -22.922028 0.000000 -0.000000 0.000000
  2 -5.665754 0.012664 58.581337 1.570796 -0.000000 -3.141592
  3 12.636264 -78.395607 -14.298701 -1.570796 -1.570796 0.000000
  4 4.289492 -78.812241 11.985060 -1.570796 -1.570796 0.000000
  5 -34.981632 -57.977322 7.874861 -1.570796 1.570796 0.000000
  6 -23.526510 -57.977322 -15.309175 -1.570796 1.570796 0.000000
  7 15.330741 -41.400753 15.954189 -1.570796 -1.570796 0.000000
  8 -5.662928 -41.400753 -15.135818 -1.570796 -1.570796 0.000000
  9 -0.000000 -93.144310 0.000003 0.000000 0.000000 0.000000
  10 0.000000 36.517490 -0.000001 0.000002 -1.749825 1.015217
  11 0.000000 4.413176 0.000000 0.932990 -1.316641 -0.987079
  12 0.000000 5.822268 0.000000 0.017096 -0.036269 -0.298557
  13 -0.000000 8.863121 -0.000001 -0.042181 -0.406164 -0.525302
  14 0.000000 3.644233 -0.000000 -0.065692 -0.054463 -0.157563
  15 -0.000000 5.401833 -0.000001 -0.122869 -1.235332 -0.004448
  16 -0.000000 5.405349 -0.000001 0.939290 1.207611 0.855293
  17 0.000001 6.972890 -0.000000 -0.192254 -1.174336 -0.002866
  18 -0.000000 5.405349 -0.000001 -1.416207 0.314782 1.536892
  19 0.000001 2.147788 0.000000 0.100475 0.666970 -1.782022
  20 -1.935490 3.640031 6.017782 0.908031 -1.379136 1.973602
  21 3.241713 3.649998 5.054548 0.098482 1.095735 -2.746140
  22 -0.000000 8.863121 -0.000001 -2.150646 -0.082700 0.272956
  23 0.000000 12.911959 0.000001 0.050568 -2.080311 -0.868050
  24 -0.000005 14.211068 -0.000003 0.297971 2.879821 0.129653
  25 -0.000004 13.479342 0.000005 1.065618 0.008041 1.306509
  26 -0.000001 4.544426 -0.000003 0.020017 -0.558231 -0.213714
  27 -0.000001 3.186323 -0.000000 -0.378962 -0.514880 0.045414
  28 -0.000004 13.479342 0.000005 1.818188 0.024679 2.012052
  29 0.000001 4.117822 -0.000000 0.044977 -0.478151 -0.162889
  30 -0.000000 2.509497 -0.000000 -0.482592 -0.567933 0.125532
  31 -0.000004 13.479342 0.000005 0.809501 -0.538992 0.764918
  32 -0.000001 4.351050 0.000001 -0.152389 -0.163555 0.018032
  33 -0.000001 3.893727 0.000002 0.034608 -0.221995 -0.090613
  34 -0.000000 8.863121 -0.000001 -1.668483 -2.645074 0.135081
  35 -0.000001 12.409957 -0.000002 -0.121238 2.191735 0.584517
  36 -0.000000 14.203224 0.000003 0.596224 -2.939794 -0.249066
  37 0.000001 13.479353 -0.000003 0.881775 -0.181339 -1.171796
  38 0.000004 4.544429 -0.000001 0.019941 0.558231 0.213711
  39 0.000001 3.186324 -0.000001 -0.378963 0.514880 -0.045416
  40 0.000001 13.479353 -0.000003 1.792223 -0.275250 -1.890926
  41 0.000004 4.117822 0.000001 0.044986 0.478155 0.162915
  42 0.000001 2.509497 0.000003 -0.482590 0.567933 -0.125531
  43 0.000001 13.479353 -0.000003 0.533923 0.466454 -0.781214
  44 -0.000001 4.351049 0.000001 -0.152389 0.163556 -0.018032
  45 -0.000000 3.893731 -0.000000 0.034609 0.221995 0.090612
  46 0.000000 36.517490 -0.000001 3.141592 -0.139473 1.246446
  47 -1.586123 3.425517 -5.597548 -2.366837 -0.810201 -1.367180
  48 -0.000003 12.976493 0.000003 -0.218917 -0.562210 2.472604
  49 0.000015 13.209557 0.000004 -1.436669 0.089524 -1.368911
  50 -0.000017 11.298652 0.000004 -0.069506 -0.040987 -0.099256
  51 -2.946795 2.260439 -0.018081 0.011508 -2.123512 1.384716
  52 4.067905 3.234546 0.024957 0.263168 1.138650 -1.179746
  53 -1.910404 7.516020 0.626323 0.237085 2.449934 0.373309
  54 0.498693 7.200199 -0.276289 -0.336929 0.215805 -0.120325
  55 2.986893 6.702973 -1.654828 0.515556 -2.803169 -0.434332
  56 1.420167 7.446716 0.199370 -0.105923 0.492943 0.189571
  57 0.000001 9.377630 0.000000 -0.372558 1.049889 -0.071852
  58 0.000003 8.008634 0.000001 -0.067403 0.880444 -0.065538
  59 0.000000 9.061670 0.000002 0.195206 0.316971 0.351062
  60 -3.069576 3.425516 4.969537 2.244097 -0.337177 -0.941847
  61 0.000004 12.976506 0.000001 1.845250 -2.240963 0.273080
  62 -0.000000 13.209566 -0.000000 1.383397 2.541125 0.023357
  63 -0.000004 11.298644 -0.000004 -0.118453 -2.880476 0.086454
  64 -0.000003 2.260436 2.946855 -1.394515 3.141591 -0.000003
  65 0.000010 3.234549 -4.067980 -1.455933 -0.317708 2.356236
  66 1.910418 7.516021 0.626275 0.237098 -2.449909 -0.373318
  67 -0.498703 7.200199 -0.276270 -0.336926 -0.215778 0.120325
  68 -2.986940 6.702973 -1.654741 0.515544 2.803193 0.434329
  time 1
  0 20.545944 -16.735977 -23.097065 0.000000 -0.000000 -3.141593
  1 5.659760 20.322403 -22.922028 0.000000 -0.000000 0.000000
  2 -5.665754 0.012664 58.581337 1.570796 -0.000000 -3.141592
  3 12.636264 -78.395607 -14.298701 -1.570796 -1.570796 0.000000
  4 4.289492 -78.812241 11.985060 -1.570796 -1.570796 0.000000
  5 -34.981632 -57.977322 7.874861 -1.570796 1.570796 0.000000
  6 -23.526510 -57.977322 -15.309175 -1.570796 1.570796 0.000000
  7 15.330741 -41.400753 15.954189 -1.570796 -1.570796 0.000000
  8 -5.662928 -41.400753 -15.135818 -1.570796 -1.570796 0.000000
  9 -0.000000 -93.203270 0.000003 0.000000 0.000000 0.000000
  10 0.000000 36.517490 -0.000001 0.000002 -1.749825 1.015217
  11 0.000000 4.413176 0.000000 0.940277 -1.316543 -0.991906
  12 0.000000 5.822268 -0.000001 0.016515 -0.036413 -0.311146
  13 0.000000 8.863119 0.000000 -0.042181 -0.406164 -0.525302
  14 0.000000 3.644234 0.000000 -0.073049 -0.058519 -0.141920
  15 -0.000000 5.401832 0.000000 -0.122868 -1.235332 -0.004449
  16 -0.000001 5.405348 -0.000001 0.939290 1.207611 0.855293
  17 -0.000001 6.972890 -0.000001 -0.192254 -1.174336 -0.002866
  18 -0.000001 5.405348 -0.000001 -1.416207 0.314783 1.536892
  19 0.000001 2.147788 0.000001 0.099948 0.668221 -1.772287
  20 -1.935490 3.640030 6.017781 0.908031 -1.379136 1.973602
  21 3.241712 3.649999 5.054545 0.098482 1.095735 -2.746140
  22 0.000000 8.863119 0.000000 -2.150645 -0.082700 0.272957
  23 0.000000 12.911962 0.000001 0.042084 -2.085571 -0.847831
  24 -0.000003 14.211065 -0.000001 0.337774 2.885168 0.146462
  25 -0.000003 13.479344 0.000005 1.065618 0.008041 1.306509
  26 -0.000000 4.544424 -0.000004 0.020016 -0.558231 -0.213714
  27 -0.000001 3.186322 -0.000001 -0.378962 -0.514880 0.045415
  28 -0.000003 13.479344 0.000005 1.818188 0.024679 2.012052
  29 0.000001 4.117820 0.000001 0.044976 -0.478151 -0.162889
  30 -0.000000 2.509497 0.000000 -0.482592 -0.567933 0.125531
  31 -0.000003 13.479344 0.000005 0.809501 -0.538992 0.764918
  32 -0.000000 4.351048 0.000001 -0.152389 -0.163555 0.018032
  33 -0.000002 3.893728 0.000002 0.034608 -0.221995 -0.090613
  34 0.000000 8.863119 0.000000 -1.668483 -2.645074 0.135081
  35 -0.000002 12.409960 -0.000001 -0.168448 2.181050 0.541280
  36 -0.000005 14.203223 0.000007 0.604751 -2.941933 -0.252254
  37 -0.000003 13.479357 -0.000003 0.873923 -0.180708 -1.172447
  38 0.000003 4.544427 -0.000001 0.019726 0.558229 0.213700
  39 -0.000001 3.186322 -0.000002 -0.378962 0.514880 -0.045415
  40 -0.000003 13.479357 -0.000003 1.758893 -0.292098 -1.904510
  41 0.000003 4.117821 0.000002 0.045005 0.478167 0.162987
  42 -0.000000 2.509497 0.000003 -0.482591 0.567933 -0.125532
  43 -0.000003 13.479357 -0.000003 0.512698 0.491894 -0.806173
  44 0.000000 4.351050 -0.000001 -0.152389 0.163556 -0.018032
  45 0.000000 3.893733 -0.000002 0.034609 0.221995 0.090612
  46 0.000000 36.517490 -0.000001 3.141592 -0.139473 1.246446
  47 -1.586123 3.425517 -5.597548 -2.364448 -0.811570 -1.367258
  48 -0.000005 12.976493 0.000003 -0.216183 -0.560904 2.474416
  49 0.000017 13.209558 0.000004 -1.437970 0.087827 -1.369109
  50 -0.000016 11.298653 0.000001 -0.069506 -0.040988 -0.099256
  51 -2.946794 2.260439 -0.018080 0.011508 -2.123512 1.384716
  52 4.067905 3.234547 0.024959 0.263168 1.138651 -1.179746
  53 -1.910404 7.516020 0.626324 0.237085 2.449934 0.373310
  54 0.498694 7.200200 -0.276290 -0.336929 0.215805 -0.120325
  55 2.986894 6.702973 -1.654828 0.515556 -2.803169 -0.434332
  56 1.420167 7.446716 0.199370 -0.088550 0.488915 0.215367
  57 -0.000000 9.377633 0.000002 -0.370994 1.049777 -0.071711
  58 0.000002 8.008636 0.000002 -0.067403 0.880444 -0.065538
  59 -0.000001 9.061673 -0.000001 0.193521 0.318204 0.348196
  60 -3.069576 3.425516 4.969537 2.241868 -0.334742 -0.940753
  61 0.000004 12.976507 0.000002 1.847294 -2.241027 0.274821
  62 0.000000 13.209568 -0.000001 1.385151 2.540147 0.023110
  63 -0.000006 11.298647 -0.000003 -0.118453 -2.880476 0.086454
  64 -0.000002 2.260438 2.946855 -1.394515 3.141591 -0.000003
  65 0.000009 3.234548 -4.067982 -1.455933 -0.317708 2.356236
  66 1.910421 7.516021 0.626273 0.237098 -2.449909 -0.373318
  67 -0.498700 7.200202 -0.276272 -0.336926 -0.215778 0.120325
  68 -2.986938 6.702974 -1.654743 0.515544 2.803193 0.434329
  time 2
  0 20.653297 -16.735977 -23.153484 0.000000 -0.000000 -3.141593
  1 5.659760 20.322403 -22.922028 0.000000 -0.000000 0.000000
  2 -5.665754 0.012664 58.581337 1.570796 -0.000000 -3.141592
  3 12.636264 -78.395607 -14.298701 -1.570796 -1.570796 0.000000
  4 4.289492 -78.812241 11.985060 -1.570796 -1.570796 0.000000
  5 -34.981632 -57.977322 7.874861 -1.570796 1.570796 0.000000
  6 -23.526510 -57.977322 -15.309175 -1.570796 1.570796 0.000000
  7 15.330741 -41.400753 15.954189 -1.570796 -1.570796 0.000000
  8 -5.662928 -41.400753 -15.135818 -1.570796 -1.570796 0.000000
  9 -0.000000 -93.235466 0.000003 0.000000 0.000000 0.000000
  10 0.000000 36.517490 -0.000001 0.000002 -1.749825 1.015217
  11 0.000000 4.413176 0.000000 0.955827 -1.317470 -1.001013
  12 0.000001 5.822268 -0.000000 0.016100 -0.036521 -0.320168
  13 -0.000000 8.863120 -0.000001 -0.042181 -0.406164 -0.525302
  14 -0.000000 3.644235 -0.000000 -0.088737 -0.072385 -0.130402
  15 -0.000000 5.401833 0.000000 -0.210850 -1.189304 0.097942
  16 -0.000000 5.405350 0.000001 0.939289 1.207611 0.855293
  17 -0.000001 6.972892 0.000000 -0.192254 -1.174335 -0.002866
  18 -0.000000 5.405350 0.000001 -1.416208 0.314782 1.536892
  19 -0.000000 2.147790 0.000000 0.100511 0.667640 -1.748263
  20 -1.935490 3.640032 6.017785 0.908030 -1.379136 1.973602
  21 3.241712 3.649999 5.054549 0.098482 1.095736 -2.746140
  22 -0.000000 8.863120 -0.000001 -2.150645 -0.082700 0.272957
  23 0.000001 12.911963 0.000000 0.038008 -2.093422 -0.838266
  24 -0.000002 14.211069 -0.000002 0.352356 2.887292 0.152574
  25 -0.000002 13.479347 -0.000001 1.065618 0.008041 1.306508
  26 0.000001 4.544425 -0.000000 0.020017 -0.558231 -0.213714
  27 0.000000 3.186322 -0.000002 -0.378962 -0.514880 0.045415
  28 -0.000002 13.479347 -0.000001 1.818189 0.024679 2.012052
  29 -0.000000 4.117819 0.000001 0.044977 -0.478151 -0.162890
  30 -0.000000 2.509496 -0.000000 -0.482592 -0.567933 0.125532
  31 -0.000002 13.479347 -0.000001 0.809501 -0.538991 0.764918
  32 -0.000001 4.351050 -0.000000 -0.152389 -0.163555 0.018032
  33 0.000000 3.893729 -0.000001 0.034608 -0.221995 -0.090613
  34 -0.000000 8.863120 -0.000001 -1.668483 -2.645074 0.135081
  35 -0.000001 12.409957 0.000000 -0.214465 2.170429 0.506513
  36 -0.000002 14.203225 0.000000 0.604031 -2.941751 -0.251985
  37 0.000005 13.479353 -0.000003 0.853548 -0.180787 -1.172244
  38 0.000002 4.544427 -0.000003 0.019383 0.558228 0.213669
  39 0.000001 3.186322 0.000000 -0.378962 0.514880 -0.045415
  40 0.000005 13.479353 -0.000003 1.732907 -0.310234 -1.908247
  41 0.000004 4.117820 0.000003 0.045020 0.478186 0.163100
  42 0.000002 2.509496 0.000001 -0.482591 0.567933 -0.125532
  43 0.000005 13.479353 -0.000003 0.485930 0.507253 -0.827369
  44 -0.000002 4.351050 -0.000002 -0.152389 0.163556 -0.018032
  45 0.000000 3.893733 -0.000001 0.034608 0.221995 0.090612
  46 0.000000 36.517490 -0.000001 3.141592 -0.139473 1.246446
  47 -1.586123 3.425517 -5.597548 -2.363138 -0.812318 -1.367307
  48 -0.000006 12.976494 0.000004 -0.214690 -0.560194 2.475405
  49 0.000014 13.209557 0.000002 -1.438679 0.086902 -1.369216
  50 -0.000015 11.298653 0.000003 -0.069506 -0.040988 -0.099256
  51 -2.946794 2.260439 -0.018080 0.011508 -2.123512 1.384716
  52 4.067904 3.234547 0.024958 0.263168 1.138651 -1.179745
  53 -1.910402 7.516020 0.626325 0.237085 2.449934 0.373309
  54 0.498695 7.200199 -0.276288 -0.336929 0.215805 -0.120325
  55 2.986895 6.702972 -1.654827 0.515556 -2.803169 -0.434332
  56 1.420167 7.446716 0.199370 -0.066972 0.478729 0.232601
  57 0.000002 9.377631 0.000001 -0.367231 1.049807 -0.071325
  58 0.000000 8.008634 0.000001 -0.067404 0.880444 -0.065538
  59 -0.000002 9.061669 0.000003 0.190833 0.320154 0.343630
  60 -3.069576 3.425516 4.969537 2.240649 -0.333410 -0.940159
  61 0.000004 12.976506 0.000001 1.848409 -2.241062 0.275770
  62 -0.000002 13.209568 -0.000002 1.386108 2.539613 0.022976
  63 -0.000005 11.298643 -0.000005 -0.118453 -2.880476 0.086454
  64 -0.000003 2.260436 2.946856 -1.394515 3.141591 -0.000003
  65 0.000010 3.234548 -4.067984 -1.455933 -0.317708 2.356236
  66 1.910419 7.516021 0.626275 0.237098 -2.449909 -0.373318
  67 -0.498703 7.200201 -0.276272 -0.336926 -0.215778 0.120325
  68 -2.986940 6.702975 -1.654741 0.515544 2.803193 0.434329
  time 3
  0 20.736248 -16.735977 -23.199684 0.000000 -0.000000 -3.141593
  1 5.659760 20.322403 -22.922028 0.000000 -0.000000 0.000000
  2 -5.665754 0.012664 58.581337 1.570796 -0.000000 -3.141592
  3 12.636264 -78.395607 -14.298701 -1.570796 -1.570796 0.000000
  4 4.289492 -78.812241 11.985060 -1.570796 -1.570796 0.000000
  5 -34.981632 -57.977322 7.874861 -1.570796 1.570796 0.000000
  6 -23.526510 -57.977322 -15.309175 -1.570796 1.570796 0.000000
  7 15.330741 -41.400753 15.954189 -1.570796 -1.570796 0.000000
  8 -5.662928 -41.400753 -15.135818 -1.570796 -1.570796 0.000000
  9 -0.000000 -93.248039 0.000003 0.000000 0.000000 0.000000
  10 0.000000 36.517490 -0.000001 0.000002 -1.749825 1.015217
  11 0.000000 4.413176 0.000000 0.976382 -1.319011 -1.012732
  12 0.000000 5.822268 -0.000001 0.015823 -0.036595 -0.326214
  13 0.000000 8.863120 -0.000000 -0.042181 -0.406164 -0.525302
  14 -0.000000 3.644233 0.000000 -0.107161 -0.089842 -0.122355
  15 -0.000000 5.401830 0.000000 -0.235040 -1.173463 0.126924
  16 0.000000 5.405348 -0.000001 0.939290 1.207611 0.855293
  17 -0.000001 6.972890 0.000000 -0.192254 -1.174336 -0.002866
  18 0.000000 5.405348 -0.000001 -1.416208 0.314783 1.536892
  19 0.000000 2.147788 0.000001 0.101551 0.666099 -1.719435
  20 -1.935490 3.640030 6.017781 0.908031 -1.379136 1.973602
  21 3.241713 3.649997 5.054545 0.098482 1.095735 -2.746140
  22 0.000000 8.863120 -0.000000 -2.150645 -0.082700 0.272957
  23 0.000000 12.911959 0.000001 0.037900 -2.102475 -0.836080
  24 -0.000002 14.211071 -0.000004 0.351254 2.887129 0.152112
  25 -0.000003 13.479340 0.000004 1.065618 0.008041 1.306509
  26 -0.000002 4.544425 -0.000003 0.020017 -0.558231 -0.213714
  27 -0.000001 3.186322 -0.000002 -0.378962 -0.514880 0.045415
  28 -0.000003 13.479340 0.000004 1.818188 0.024680 2.012052
  29 -0.000001 4.117820 0.000000 0.044977 -0.478151 -0.162889
  30 0.000001 2.509496 -0.000000 -0.482592 -0.567933 0.125532
  31 -0.000003 13.479340 0.000004 0.809502 -0.538992 0.764918
  32 -0.000003 4.351049 -0.000000 -0.152389 -0.163555 0.018032
  33 -0.000001 3.893728 0.000001 0.034608 -0.221995 -0.090613
  34 0.000000 8.863120 -0.000000 -1.668483 -2.645074 0.135081
  35 -0.000001 12.409957 -0.000002 -0.257649 2.159986 0.479199
  36 -0.000005 14.203229 0.000003 0.596601 -2.939888 -0.249207
  37 0.000002 13.479355 -0.000004 0.825638 -0.181331 -1.171444
  38 0.000003 4.544427 -0.000004 0.018925 0.558227 0.213608
  39 -0.000000 3.186321 -0.000001 -0.378963 0.514880 -0.045415
  40 0.000002 13.479355 -0.000004 1.713165 -0.328049 -1.904953
  41 0.000004 4.117822 0.000003 0.045013 0.478210 0.163246
  42 0.000001 2.509498 0.000003 -0.482590 0.567933 -0.125531
  43 0.000002 13.479355 -0.000004 0.456998 0.514774 -0.844684
  44 -0.000002 4.351048 -0.000003 -0.152389 0.163556 -0.018032
  45 -0.000001 3.893731 -0.000003 0.034609 0.221995 0.090612
  46 0.000000 36.517490 -0.000001 3.141592 -0.139473 1.246446
  47 -1.586123 3.425517 -5.597548 -2.362624 -0.812610 -1.367328
  48 -0.000002 12.976496 0.000004 -0.214107 -0.559917 2.475791
  49 0.000016 13.209557 0.000003 -1.438956 0.086540 -1.369258
  50 -0.000014 11.298656 0.000003 -0.069506 -0.040988 -0.099256
  51 -2.946795 2.260436 -0.018081 0.011508 -2.123512 1.384716
  52 4.067906 3.234548 0.024958 0.263167 1.138650 -1.179746
  53 -1.910403 7.516021 0.626326 0.237085 2.449934 0.373309
  54 0.498692 7.200201 -0.276288 -0.336929 0.215805 -0.120325
  55 2.986894 6.702973 -1.654827 0.515556 -2.803169 -0.434332
  56 1.420167 7.446716 0.199370 -0.044627 0.465457 0.242755
  57 0.000002 9.377633 0.000001 -0.362733 1.049911 -0.070850
  58 0.000001 8.008635 0.000002 -0.067403 0.880444 -0.065538
  59 -0.000000 9.061671 0.000001 0.187232 0.322736 0.337532
  60 -3.069576 3.425516 4.969537 2.240172 -0.332890 -0.939928
  61 0.000005 12.976506 0.000002 1.848843 -2.241076 0.276141
  62 0.000001 13.209565 -0.000002 1.386481 2.539405 0.022924
  63 -0.000003 11.298648 -0.000004 -0.118453 -2.880476 0.086454
  64 -0.000002 2.260438 2.946853 -1.394515 3.141592 -0.000003
  65 0.000010 3.234549 -4.067982 -1.455933 -0.317708 2.356236
  66 1.910419 7.516021 0.626276 0.237098 -2.449909 -0.373318
  67 -0.498702 7.200201 -0.276270 -0.336926 -0.215778 0.120325
  68 -2.986941 6.702973 -1.654742 0.515544 2.803193 0.434329
  time 4
  0 20.798611 -16.735977 -23.236671 0.000000 -0.000000 -3.141593
  1 5.659760 20.322403 -22.922028 0.000000 -0.000000 0.000000
  2 -5.665754 0.012664 58.581337 1.570796 -0.000000 -3.141592
  3 12.636264 -78.395607 -14.298701 -1.570796 -1.570796 0.000000
  4 4.289492 -78.812241 11.985060 -1.570796 -1.570796 0.000000
  5 -34.981632 -57.977322 7.874861 -1.570796 1.570796 0.000000
  6 -23.526510 -57.977322 -15.309175 -1.570796 1.570796 0.000000
  7 15.330741 -41.400753 15.954189 -1.570796 -1.570796 0.000000
  8 -5.662928 -41.400753 -15.135818 -1.570796 -1.570796 0.000000
  9 -0.000000 -93.248169 0.000003 0.000000 0.000000 0.000000
  10 0.000000 36.517490 -0.000001 0.000002 -1.749825 1.015217
  11 0.000000 4.413176 0.000000 0.998612 -1.320776 -1.025324
  12 0.000000 5.822268 -0.000001 0.015654 -0.036641 -0.329882
  13 0.000000 8.863121 0.000000 -0.042181 -0.406164 -0.525302
  14 0.000001 3.644233 0.000000 -0.122535 -0.104783 -0.117479
  15 -0.000000 5.401831 0.000000 -0.233016 -1.174854 0.124481
  16 -0.000001 5.405349 -0.000000 0.939290 1.207611 0.855293
  17 -0.000001 6.972891 -0.000000 -0.192254 -1.174336 -0.002866
  18 -0.000001 5.405349 -0.000000 -1.416207 0.314782 1.536892
  19 -0.000000 2.147789 0.000000 0.102511 0.664493 -1.695259
  20 -1.935491 3.640031 6.017784 0.908030 -1.379136 1.973602
  21 3.241712 3.649998 5.054546 0.098482 1.095735 -2.746140
  22 0.000000 8.863121 0.000000 -2.150645 -0.082700 0.272956
  23 0.000003 12.911962 0.000000 0.040086 -2.111500 -0.838460
  24 -0.000002 14.211072 -0.000002 0.340430 2.885548 0.147577
  25 -0.000007 13.479346 0.000002 1.065618 0.008042 1.306509
  26 0.000000 4.544426 -0.000000 0.020017 -0.558231 -0.213714
  27 -0.000001 3.186323 -0.000001 -0.378962 -0.514880 0.045415
  28 -0.000007 13.479346 0.000002 1.818188 0.024679 2.012052
  29 0.000000 4.117824 0.000000 0.044977 -0.478151 -0.162889
  30 0.000001 2.509499 0.000001 -0.482592 -0.567933 0.125532
  31 -0.000007 13.479346 0.000002 0.809501 -0.538992 0.764918
  32 -0.000001 4.351049 0.000001 -0.152389 -0.163555 0.018032
  33 0.000001 3.893728 -0.000000 0.034608 -0.221995 -0.090613
  34 0.000000 8.863121 0.000000 -1.668483 -2.645074 0.135081
  35 -0.000001 12.409958 -0.000001 -0.296060 2.150185 0.458605
  36 -0.000001 14.203223 0.000004 0.584951 -2.937010 -0.244827
  37 0.000006 13.479356 -0.000004 0.795192 -0.182101 -1.170312
  38 0.000001 4.544430 -0.000002 0.018367 0.558225 0.213511
  39 0.000002 3.186325 0.000000 -0.378962 0.514880 -0.045415
  40 0.000006 13.479356 -0.000004 1.698798 -0.344148 -1.897431
  41 0.000002 4.117822 0.000003 0.044974 0.478240 0.163421
  42 0.000003 2.509498 0.000001 -0.482591 0.567933 -0.125532
  43 0.000006 13.479356 -0.000004 0.429147 0.516695 -0.857972
  44 -0.000000 4.351051 -0.000001 -0.152389 0.163556 -0.018032
  45 0.000001 3.893734 -0.000000 0.034608 0.221995 0.090612
  46 0.000000 36.517490 -0.000001 3.141592 -0.139473 1.246446
  47 -1.586123 3.425517 -5.597548 -2.362619 -0.812613 -1.367328
  48 -0.000006 12.976494 0.000002 -0.214101 -0.559914 2.475796
  49 0.000020 13.209556 0.000002 -1.438958 0.086537 -1.369258
  50 -0.000016 11.298655 0.000002 -0.069506 -0.040988 -0.099256
  51 -2.946793 2.260439 -0.018081 0.011508 -2.123512 1.384717
  52 4.067904 3.234548 0.024959 0.263168 1.138651 -1.179745
  53 -1.910403 7.516020 0.626323 0.237085 2.449934 0.373309
  54 0.498695 7.200199 -0.276289 -0.336929 0.215805 -0.120325
  55 2.986896 6.702972 -1.654830 0.515556 -2.803169 -0.434332
  56 1.420167 7.446716 0.199370 -0.024747 0.452210 0.247554
  57 0.000001 9.377633 0.000000 -0.358960 1.050021 -0.070447
  58 0.000003 8.008635 0.000002 -0.067403 0.880444 -0.065538
  59 -0.000000 9.061674 -0.000000 0.182810 0.325859 0.330069
  60 -3.069576 3.425516 4.969537 2.240167 -0.332884 -0.939926
  61 0.000005 12.976506 0.000000 1.848848 -2.241076 0.276144
  62 0.000002 13.209569 -0.000001 1.386484 2.539403 0.022923
  63 -0.000007 11.298644 -0.000004 -0.118453 -2.880476 0.086454
  64 -0.000002 2.260439 2.946855 -1.394516 3.141591 -0.000003
  65 0.000010 3.234550 -4.067981 -1.455933 -0.317708 2.356236
  66 1.910418 7.516021 0.626278 0.237098 -2.449909 -0.373318
  67 -0.498704 7.200201 -0.276272 -0.336926 -0.215778 0.120325
  68 -2.986940 6.702974 -1.654741 0.515544 2.803193 0.434329
  time 5
  0 20.844200 -16.735977 -23.265480 0.000000 -0.000000 -3.141593
  1 5.659760 20.322403 -22.922028 0.000000 -0.000000 0.000000
  2 -5.665754 0.012664 58.581337 1.570796 -0.000000 -3.141592
  3 12.636264 -78.395607 -14.298701 -1.570796 -1.570796 0.000000
  4 4.289492 -78.812241 11.985060 -1.570796 -1.570796 0.000000
  5 -34.981632 -57.977322 7.874861 -1.570796 1.570796 0.000000
  6 -23.526510 -57.977322 -15.309175 -1.570796 1.570796 0.000000
  7 15.330741 -41.400753 15.954189 -1.570796 -1.570796 0.000000
  8 -5.662928 -41.400753 -15.135818 -1.570796 -1.570796 0.000000
  9 -0.000000 -93.242996 0.000003 0.000000 0.000000 0.000000
  10 0.000000 36.517490 -0.000001 0.000002 -1.749825 1.015217
  11 0.000000 4.413176 0.000000 1.019033 -1.322415 -1.036894
  12 0.000000 5.822269 0.000000 0.015568 -0.036664 -0.331766
  13 -0.000001 8.863120 -0.000000 -0.042181 -0.406164 -0.525302
  14 -0.000000 3.644235 -0.000000 -0.128968 -0.111123 -0.115823
  15 -0.000001 5.401833 -0.000000 -0.227426 -1.178631 0.117754
  16 -0.000000 5.405350 -0.000001 0.939289 1.207611 0.855293
  17 -0.000001 6.972890 0.000000 -0.192254 -1.174336 -0.002865
  18 -0.000000 5.405350 -0.000001 -1.416207 0.314783 1.536892
  19 -0.000000 2.147789 0.000000 0.102927 0.663750 -1.685121
  20 -1.935490 3.640031 6.017781 0.908030 -1.379135 1.973602
  21 3.241713 3.649999 5.054547 0.098483 1.095735 -2.746140
  22 -0.000001 8.863120 -0.000000 -2.150645 -0.082700 0.272956
  23 0.000002 12.911960 0.000000 0.042930 -2.119331 -0.842866
  24 -0.000003 14.211069 -0.000003 0.325306 2.883421 0.141216
  25 -0.000007 13.479344 0.000002 1.065618 0.008041 1.306509
  26 -0.000000 4.544425 0.000000 0.020017 -0.558231 -0.213714
  27 0.000000 3.186322 -0.000001 -0.378962 -0.514880 0.045415
  28 -0.000007 13.479344 0.000002 1.818189 0.024680 2.012052
  29 0.000001 4.117820 0.000002 0.044977 -0.478151 -0.162889
  30 -0.000000 2.509495 -0.000001 -0.482592 -0.567933 0.125532
  31 -0.000007 13.479344 0.000002 0.809501 -0.538992 0.764918
  32 -0.000001 4.351050 -0.000002 -0.152389 -0.163555 0.018032
  33 -0.000002 3.893730 0.000001 0.034608 -0.221995 -0.090613
  34 -0.000001 8.863120 -0.000000 -1.668483 -2.645074 0.135081
  35 0.000000 12.409955 -0.000001 -0.327450 2.141744 0.444145
  36 -0.000001 14.203218 0.000007 0.571864 -2.933843 -0.239872
  37 0.000004 13.479355 -0.000004 0.767228 -0.182879 -1.169127
  38 -0.000003 4.544427 0.000003 0.017719 0.558223 0.213365
  39 -0.000001 3.186323 -0.000003 -0.378963 0.514880 -0.045415
  40 0.000004 13.479355 -0.000004 1.689140 -0.357231 -1.888506
  41 0.000001 4.117819 0.000002 0.044883 0.478273 0.163618
  42 0.000002 2.509496 0.000003 -0.482591 0.567933 -0.125532
  43 0.000004 13.479355 -0.000004 0.405510 0.515278 -0.867200
  44 -0.000003 4.351048 -0.000002 -0.152389 0.163556 -0.018032
  45 -0.000002 3.893731 -0.000003 0.034609 0.221995 0.090612
  46 0.000000 36.517490 -0.000001 3.141592 -0.139473 1.246446
  47 -1.586123 3.425517 -5.597548 -2.362831 -0.812493 -1.367319
  48 -0.000006 12.976493 0.000004 -0.214341 -0.560028 2.475636
  49 0.000016 13.209556 0.000003 -1.438844 0.086685 -1.369241
  50 -0.000017 11.298652 -0.000000 -0.069506 -0.040988 -0.099256
  51 -2.946794 2.260438 -0.018081 0.011508 -2.123512 1.384716
  52 4.067906 3.234545 0.024958 0.263168 1.138651 -1.179746
  53 -1.910404 7.516020 0.626324 0.237085 2.449934 0.373309
  54 0.498693 7.200199 -0.276289 -0.336929 0.215805 -0.120325
  55 2.986895 6.702972 -1.654826 0.515556 -2.803169 -0.434332
  56 1.420167 7.446716 0.199370 -0.010484 0.442066 0.248941
  57 0.000001 9.377634 0.000000 -0.357377 1.050073 -0.070277
  58 0.000000 8.008634 0.000000 -0.067403 0.880444 -0.065538
  59 -0.000000 9.061670 0.000003 0.177660 0.329432 0.321410
  60 -3.069576 3.425516 4.969537 2.240363 -0.333099 -0.940021
  61 0.000005 12.976506 0.000001 1.848669 -2.241071 0.275992
  62 0.000002 13.209567 -0.000002 1.386331 2.539489 0.022945
  63 -0.000004 11.298648 -0.000004 -0.118453 -2.880476 0.086454
  64 -0.000003 2.260437 2.946855 -1.394515 3.141591 -0.000003
  65 0.000010 3.234546 -4.067981 -1.455933 -0.317708 2.356236
  66 1.910419 7.516021 0.626274 0.237098 -2.449909 -0.373318
  67 -0.498702 7.200202 -0.276273 -0.336926 -0.215778 0.120325
  68 -2.986940 6.702975 -1.654743 0.515544 2.803193 0.434329
  time 6
  0 20.876833 -16.735977 -23.287128 0.000000 -0.000000 -3.141593
  1 5.659760 20.322403 -22.922028 0.000000 -0.000000 0.000000
  2 -5.665754 0.012664 58.581337 1.570796 -0.000000 -3.141592
  3 12.636264 -78.395607 -14.298701 -1.570796 -1.570796 0.000000
  4 4.289492 -78.812241 11.985060 -1.570796 -1.570796 0.000000
  5 -34.981632 -57.977322 7.874861 -1.570796 1.570796 0.000000
  6 -23.526510 -57.977322 -15.309175 -1.570796 1.570796 0.000000
  7 15.330741 -41.400753 15.954189 -1.570796 -1.570796 0.000000
  8 -5.662928 -41.400753 -15.135818 -1.570796 -1.570796 0.000000
  9 -0.000000 -93.239677 0.000003 0.000000 0.000000 0.000000
  10 0.000000 36.517490 -0.000001 0.000002 -1.749825 1.015217
  11 0.000000 4.413176 0.000000 1.034010 -1.323612 -1.045398
  12 0.000000 5.822268 -0.000000 0.015536 -0.036673 -0.332460
  13 -0.000001 8.863120 0.000000 -0.042181 -0.406164 -0.525302
  14 -0.000000 3.644233 -0.000000 -0.128968 -0.111123 -0.115823
  15 -0.000000 5.401832 -0.000000 -0.173031 -1.211052 0.053422
  16 -0.000000 5.405349 -0.000000 0.939290 1.207611 0.855293
  17 0.000000 6.972888 -0.000000 -0.192254 -1.174336 -0.002866
  18 -0.000000 5.405349 -0.000000 -1.416207 0.314783 1.536892
  19 -0.000000 2.147789 0.000001 0.102926 0.663750 -1.685121
  20 -1.935491 3.640031 6.017783 0.908031 -1.379136 1.973602
  21 3.241713 3.649998 5.054546 0.098482 1.095735 -2.746140
  22 -0.000001 8.863120 0.000000 -2.150645 -0.082700 0.272957
  23 0.000002 12.911959 -0.000001 0.045620 -2.124807 -0.846794
  24 -0.000006 14.211075 -0.000003 0.312877 2.881745 0.135969
  25 -0.000008 13.479349 0.000003 1.065618 0.008042 1.306509
  26 -0.000000 4.544426 -0.000001 0.020017 -0.558231 -0.213714
  27 0.000000 3.186323 0.000000 -0.378962 -0.514880 0.045415
  28 -0.000008 13.479349 0.000003 1.818188 0.024680 2.012052
  29 -0.000000 4.117823 -0.000000 0.044977 -0.478151 -0.162889
  30 -0.000000 2.509498 -0.000000 -0.482592 -0.567933 0.125532
  31 -0.000008 13.479349 0.000003 0.809501 -0.538992 0.764918
  32 0.000000 4.351051 0.000001 -0.152389 -0.163555 0.018032
  33 0.000001 3.893729 0.000001 0.034608 -0.221995 -0.090613
  34 -0.000001 8.863120 0.000000 -1.668483 -2.645074 0.135081
  35 -0.000001 12.409956 0.000000 -0.349392 2.135549 0.435178
  36 0.000000 14.203224 0.000001 0.560599 -2.931173 -0.235578
  37 0.000004 13.479356 -0.000002 0.746773 -0.183473 -1.168188
  38 -0.000001 4.544428 0.000002 0.016995 0.558223 0.213159
  39 0.000001 3.186324 0.000000 -0.378962 0.514880 -0.045415
  40 0.000004 13.479356 -0.000002 1.683680 -0.366027 -1.881050
  41 0.000004 4.117821 0.000002 0.044730 0.478308 0.163830
  42 0.000001 2.509496 0.000002 -0.482591 0.567933 -0.125532
  43 0.000004 13.479356 -0.000002 0.389136 0.512788 -0.872518
  44 -0.000002 4.351049 -0.000001 -0.152389 0.163556 -0.018032
  45 -0.000000 3.893732 -0.000001 0.034609 0.221995 0.090612
  46 0.000000 36.517490 -0.000001 3.141592 -0.139473 1.246446
  47 -1.586123 3.425517 -5.597548 -2.362966 -0.812416 -1.367314
  48 -0.000005 12.976493 0.000004 -0.214494 -0.560101 2.475535
  49 0.000016 13.209558 0.000004 -1.438771 0.086780 -1.369230
  50 -0.000016 11.298653 0.000002 -0.069506 -0.040988 -0.099256
  51 -2.946793 2.260440 -0.018081 0.011508 -2.123512 1.384716
  52 4.067905 3.234545 0.024958 0.263168 1.138650 -1.179746
  53 -1.910403 7.516020 0.626323 0.237085 2.449934 0.373310
  54 0.498693 7.200200 -0.276289 -0.336929 0.215805 -0.120325
  55 2.986893 6.702973 -1.654830 0.515556 -2.803169 -0.434332
  56 1.420167 7.446716 0.199370 -0.005013 0.438028 0.248957
  57 0.000001 9.377631 0.000001 -0.357376 1.050073 -0.070277
  58 0.000002 8.008635 0.000002 -0.067403 0.880444 -0.065538
  59 0.000000 9.061669 0.000002 0.171873 0.333364 0.311722
  60 -3.069576 3.425516 4.969537 2.240489 -0.333236 -0.940082
  61 0.000005 12.976506 0.000002 1.848554 -2.241067 0.275894
  62 0.000002 13.209568 -0.000001 1.386232 2.539543 0.022958
  63 -0.000005 11.298643 -0.000005 -0.118453 -2.880476 0.086454
  64 -0.000002 2.260438 2.946854 -1.394515 3.141591 -0.000003
  65 0.000010 3.234549 -4.067980 -1.455933 -0.317708 2.356236
  66 1.910417 7.516021 0.626274 0.237098 -2.449909 -0.373318
  67 -0.498702 7.200200 -0.276273 -0.336926 -0.215778 0.120325
  68 -2.986940 6.702973 -1.654742 0.515544 2.803193 0.434329
  time 7
  0 20.900326 -16.735975 -23.302639 0.000000 -0.000000 -3.141593
  1 5.659760 20.322403 -22.922028 0.000000 -0.000000 0.000000
  2 -5.665754 0.012664 58.581337 1.570796 -0.000000 -3.141592
  3 12.636264 -78.395607 -14.298701 -1.570796 -1.570796 0.000000
  4 4.289492 -78.812241 11.985060 -1.570796 -1.570796 0.000000
  5 -34.981632 -57.977322 7.874861 -1.570796 1.570796 0.000000
  6 -23.526510 -57.977322 -15.309175 -1.570796 1.570796 0.000000
  7 15.330741 -41.400753 15.954189 -1.570796 -1.570796 0.000000
  8 -5.662928 -41.400753 -15.135818 -1.570796 -1.570796 0.000000
  9 -0.000000 -93.180717 0.000003 0.000000 0.000000 0.000000
  10 0.000000 36.517490 -0.000001 0.000002 -1.749825 1.015217
  11 0.000000 4.413176 0.000000 1.039827 -1.324078 -1.048704
  12 -0.000001 5.822268 -0.000000 0.015532 -0.036674 -0.332559
  13 -0.000000 8.863120 -0.000001 -0.042181 -0.406164 -0.525302
  14 -0.000000 3.644234 0.000000 -0.128968 -0.111123 -0.115823
  15 -0.000001 5.401832 -0.000000 -0.177804 -1.208487 0.058994
  16 -0.000000 5.405349 0.000001 0.939290 1.207611 0.855293
  17 -0.000001 6.972889 0.000000 -0.192254 -1.174336 -0.002866
  18 -0.000000 5.405349 0.000001 -1.416207 0.314783 1.536892
  19 0.000000 2.147788 0.000000 0.102759 0.663995 -1.692288
  20 -1.935490 3.640030 6.017783 0.908031 -1.379136 1.973602
  21 3.241713 3.649997 5.054546 0.098482 1.095735 -2.746140
  22 -0.000000 8.863120 -0.000001 -2.150645 -0.082700 0.272957
  23 -0.000002 12.911960 -0.000001 0.038170 -2.127807 -0.854123
  24 -0.000001 14.211070 -0.000003 0.280139 2.877642 0.122065
  25 0.000002 13.479352 0.000003 1.065618 0.008041 1.306508
  26 -0.000003 4.544426 0.000003 0.020018 -0.558231 -0.213714
  27 -0.000001 3.186323 -0.000001 -0.378962 -0.514880 0.045415
  28 0.000002 13.479352 0.000003 1.818188 0.024679 2.012052
  29 0.000000 4.117821 -0.000000 0.044976 -0.478151 -0.162889
  30 -0.000001 2.509497 -0.000001 -0.482592 -0.567933 0.125532
  31 0.000002 13.479352 0.000003 0.809502 -0.538992 0.764917
  32 -0.000003 4.351050 0.000000 -0.152389 -0.163555 0.018032
  33 -0.000001 3.893729 0.000001 0.034608 -0.221995 -0.090613
  34 -0.000000 8.863120 -0.000001 -1.668483 -2.645074 0.135081
  35 0.000000 12.409959 -0.000002 -0.359096 2.135579 0.440008
  36 -0.000004 14.203222 0.000004 0.539033 -2.926206 -0.227285
  37 0.000002 13.479356 0.000000 0.738841 -0.183709 -1.167807
  38 -0.000004 4.544426 -0.000000 0.016208 0.558224 0.212886
  39 0.000001 3.186321 0.000000 -0.378961 0.514880 -0.045415
  40 0.000002 13.479356 0.000000 1.681965 -0.369249 -1.877934
  41 0.000002 4.117820 0.000002 0.044497 0.478345 0.164051
  42 0.000001 2.509496 0.000002 -0.482591 0.567933 -0.125532
  43 0.000002 13.479356 0.000000 0.383018 0.511470 -0.874215
  44 -0.000001 4.351050 -0.000004 -0.152389 0.163556 -0.018032
  45 -0.000000 3.893732 -0.000001 0.034608 0.221995 0.090612
  46 0.000000 36.517490 -0.000001 3.141592 -0.139473 1.246446
  47 -1.586123 3.425517 -5.597548 -2.365363 -0.811046 -1.367226
  48 -0.000004 12.976494 0.000003 -0.217228 -0.561403 2.473723
  49 0.000012 13.209560 0.000004 -1.437472 0.088476 -1.369033
  50 -0.000016 11.298655 0.000001 -0.069506 -0.040988 -0.099256
  51 -2.946793 2.260438 -0.018080 0.011508 -2.123512 1.384717
  52 4.067905 3.234547 0.024958 0.263168 1.138651 -1.179746
  53 -1.910403 7.516020 0.626325 0.237085 2.449934 0.373310
  54 0.498695 7.200200 -0.276288 -0.336929 0.215805 -0.120325
  55 2.986894 6.702973 -1.654826 0.515556 -2.803169 -0.434332
  56 1.420167 7.446716 0.199370 -0.010434 0.441205 0.245873
  57 0.000001 9.377634 0.000001 -0.358089 1.050044 -0.070249
  58 0.000003 8.008636 0.000002 -0.067403 0.880444 -0.065538
  59 -0.000001 9.061671 0.000001 0.165544 0.337568 0.301175
  60 -3.069576 3.425516 4.969537 2.242721 -0.335674 -0.941170
  61 0.000004 12.976503 0.000001 1.846513 -2.241003 0.274155
  62 -0.000002 13.209568 -0.000002 1.384481 2.540521 0.023204
  63 -0.000002 11.298649 -0.000004 -0.118453 -2.880476 0.086454
  64 -0.000002 2.260437 2.946854 -1.394515 3.141591 -0.000003
  65 0.000009 3.234546 -4.067981 -1.455933 -0.317708 2.356236
  66 1.910418 7.516020 0.626273 0.237098 -2.449909 -0.373318
  67 -0.498703 7.200200 -0.276272 -0.336926 -0.215778 0.120325
  68 -2.986941 6.702972 -1.654741 0.515544 2.803193 0.434329
  time 8
  0 20.918488 -16.735975 -23.313038 0.000000 -0.000000 -3.141593
  1 5.659760 20.322403 -22.922028 0.000000 -0.000000 0.000000
  2 -5.665754 0.012664 58.581337 1.570796 -0.000000 -3.141592
  3 12.636264 -78.395607 -14.298701 -1.570796 -1.570796 0.000000
  4 4.289492 -78.812241 11.985060 -1.570796 -1.570796 0.000000
  5 -34.981632 -57.977322 7.874861 -1.570796 1.570796 0.000000
  6 -23.526510 -57.977322 -15.309175 -1.570796 1.570796 0.000000
  7 15.330741 -41.400753 15.954189 -1.570796 -1.570796 0.000000
  8 -5.662928 -41.400753 -15.135818 -1.570796 -1.570796 0.000000
  9 -0.000000 -93.148521 0.000003 0.000000 0.000000 0.000000
  10 0.000000 36.517490 -0.000001 0.000002 -1.749825 1.015217
  11 0.000000 4.413176 0.000000 1.031132 -1.323565 -1.043450
  12 -0.000001 5.822268 0.000000 0.015682 -0.036633 -0.329285
  13 -0.000001 8.863120 -0.000000 -0.042181 -0.406164 -0.525302
  14 -0.000000 3.644233 -0.000000 -0.128968 -0.111123 -0.115823
  15 -0.000000 5.401832 -0.000000 -0.139981 -1.227560 0.015162
  16 -0.000000 5.405349 -0.000000 0.939290 1.207611 0.855293
  17 0.000000 6.972889 -0.000000 -0.192254 -1.174336 -0.002867
  18 -0.000000 5.405349 -0.000000 -1.416207 0.314783 1.536892
  19 0.000000 2.147788 0.000000 0.102330 0.664602 -1.710215
  20 -1.935491 3.640031 6.017782 0.908031 -1.379136 1.973602
  21 3.241713 3.649998 5.054545 0.098482 1.095735 -2.746140
  22 -0.000001 8.863120 -0.000000 -2.150645 -0.082700 0.272957
  23 0.000001 12.911960 0.000000 0.035169 -2.124414 -0.858928
  24 -0.000003 14.211069 -0.000005 0.265466 2.875950 0.115798
  25 -0.000002 13.479347 0.000002 1.065618 0.008041 1.306508
  26 -0.000000 4.544425 -0.000000 0.020017 -0.558231 -0.213714
  27 -0.000001 3.186322 -0.000001 -0.378962 -0.514880 0.045415
  28 -0.000002 13.479347 0.000002 1.818189 0.024679 2.012052
  29 -0.000000 4.117820 0.000001 0.044976 -0.478151 -0.162889
  30 -0.000000 2.509497 -0.000001 -0.482592 -0.567933 0.125532
  31 -0.000002 13.479347 0.000002 0.809501 -0.538992 0.764918
  32 -0.000001 4.351050 -0.000000 -0.152389 -0.163555 0.018032
  33 -0.000001 3.893728 0.000000 0.034608 -0.221995 -0.090613
  34 -0.000001 8.863120 -0.000000 -1.668483 -2.645074 0.135081
  35 0.000001 12.409960 -0.000003 -0.345531 2.140339 0.457817
  36 -0.000003 14.203224 0.000005 0.523169 -2.922673 -0.221126
  37 0.000006 13.479366 -0.000004 0.742607 -0.182083 -1.167404
  38 -0.000002 4.544431 0.000003 0.015371 0.558224 0.212535
  39 -0.000001 3.186325 -0.000001 -0.378961 0.514880 -0.045415
  40 0.000006 13.479366 -0.000004 1.681206 -0.365444 -1.877407
  41 0.000004 4.117821 0.000001 0.044170 0.478383 0.164276
  42 0.000000 2.509498 0.000001 -0.482591 0.567933 -0.125532
  43 0.000006 13.479366 -0.000004 0.391377 0.513021 -0.871765
  44 -0.000002 4.351052 0.000000 -0.152389 0.163556 -0.018032
  45 -0.000003 3.893734 -0.000004 0.034608 0.221995 0.090612
  46 0.000000 36.517490 -0.000001 3.141592 -0.139473 1.246446
  47 -1.586123 3.425517 -5.597548 -2.366666 -0.810299 -1.367185
  48 -0.000004 12.976493 0.000002 -0.218721 -0.562116 2.472733
  49 0.000016 13.209558 0.000003 -1.436762 0.089403 -1.368925
  50 -0.000015 11.298655 0.000001 -0.069506 -0.040988 -0.099256
  51 -2.946794 2.260438 -0.018080 0.011508 -2.123512 1.384717
  52 4.067906 3.234546 0.024958 0.263168 1.138651 -1.179746
  53 -1.910404 7.516020 0.626323 0.237085 2.449934 0.373310
  54 0.498693 7.200199 -0.276290 -0.336929 0.215805 -0.120325
  55 2.986893 6.702973 -1.654826 0.515556 -2.803169 -0.434332
  56 1.420167 7.446716 0.199370 -0.024506 0.449331 0.237808
  57 0.000001 9.377633 0.000000 -0.359977 1.049977 -0.070222
  58 -0.000000 8.008635 -0.000001 -0.067404 0.880444 -0.065538
  59 -0.000002 9.061673 0.000002 0.158771 0.341957 0.289942
  60 -3.069576 3.425516 4.969537 2.243938 -0.337003 -0.941768
  61 0.000005 12.976508 -0.000000 1.845396 -2.240968 0.273205
  62 0.000002 13.209570 -0.000001 1.383522 2.541055 0.023339
  63 -0.000003 11.298650 -0.000003 -0.118453 -2.880476 0.086454
  64 -0.000002 2.260437 2.946855 -1.394515 3.141592 -0.000003
  65 0.000009 3.234546 -4.067981 -1.455933 -0.317708 2.356236
  66 1.910418 7.516021 0.626275 0.237098 -2.449909 -0.373318
  67 -0.498703 7.200202 -0.276272 -0.336926 -0.215778 0.120325
  68 -2.986942 6.702974 -1.654740 0.515544 2.803193 0.434329
  time 9
  0 20.935143 -16.735975 -23.319344 0.000000 -0.000000 -3.141593
  1 5.659760 20.322403 -22.922028 0.000000 -0.000000 0.000000
  2 -5.665754 0.012664 58.581337 1.570796 -0.000000 -3.141592
  3 12.636264 -78.395607 -14.298701 -1.570796 -1.570796 0.000000
  4 4.289492 -78.812241 11.985060 -1.570796 -1.570796 0.000000
  5 -34.981632 -57.977322 7.874861 -1.570796 1.570796 0.000000
  6 -23.526510 -57.977322 -15.309175 -1.570796 1.570796 0.000000
  7 15.330741 -41.400753 15.954189 -1.570796 -1.570796 0.000000
  8 -5.662928 -41.400753 -15.135818 -1.570796 -1.570796 0.000000
  9 -0.000000 -93.135948 0.000003 0.000000 0.000000 0.000000
  10 0.000000 36.517490 -0.000001 0.000002 -1.749825 1.015217
  11 0.000000 4.413176 0.000000 1.009829 -1.322244 -1.030703
  12 0.000000 5.822268 0.000000 0.016040 -0.036537 -0.321477
  13 0.000000 8.863118 0.000000 -0.042181 -0.406164 -0.525302
  14 0.000000 3.644233 -0.000000 -0.126172 -0.102161 -0.122172
  15 0.000001 5.401832 -0.000001 -0.121135 -1.236093 -0.006429
  16 0.000001 5.405349 -0.000000 0.939291 1.207611 0.855293
  17 0.000001 6.972888 -0.000001 -0.192254 -1.174336 -0.002866
  18 0.000001 5.405349 -0.000000 -1.416207 0.314782 1.536892
  19 -0.000000 2.147789 0.000000 0.101751 0.665383 -1.733540
  20 -1.935489 3.640031 6.017783 0.908032 -1.379136 1.973601
  21 3.241714 3.649997 5.054545 0.098482 1.095735 -2.746140
  22 0.000000 8.863118 0.000000 -2.150645 -0.082700 0.272957
  23 0.000001 12.911959 0.000001 0.038280 -2.115028 -0.863772
  24 -0.000003 14.211067 -0.000002 0.263830 2.875767 0.115098
  25 -0.000008 13.479348 0.000001 1.065618 0.008041 1.306509
  26 -0.000001 4.544426 -0.000000 0.020017 -0.558231 -0.213714
  27 -0.000001 3.186323 0.000001 -0.378962 -0.514880 0.045415
  28 -0.000008 13.479348 0.000001 1.818189 0.024679 2.012052
  29 -0.000001 4.117821 -0.000001 0.044977 -0.478151 -0.162889
  30 -0.000000 2.509496 -0.000001 -0.482592 -0.567933 0.125532
  31 -0.000008 13.479348 0.000001 0.809501 -0.538992 0.764918
  32 0.000001 4.351050 0.000002 -0.152389 -0.163555 0.018032
  33 0.000001 3.893729 0.000001 0.034608 -0.221995 -0.090613
  34 0.000000 8.863118 0.000000 -1.668483 -2.645074 0.135081
  35 -0.000001 12.409959 -0.000002 -0.310120 2.149514 0.490306
  36 -0.000001 14.203223 0.000004 0.507788 -2.919347 -0.215109
  37 0.000005 13.479361 -0.000006 0.755870 -0.178750 -1.166732
  38 -0.000002 4.544429 0.000001 0.014496 0.558227 0.212097
  39 0.000000 3.186324 -0.000001 -0.378962 0.514880 -0.045415
  40 0.000005 13.479361 -0.000006 1.684193 -0.354106 -1.877081
  41 0.000003 4.117822 0.000001 0.043736 0.478420 0.164497
  42 0.000001 2.509497 0.000001 -0.482591 0.567933 -0.125532
  43 0.000005 13.479361 -0.000006 0.414274 0.514447 -0.862935
  44 -0.000001 4.351052 -0.000000 -0.152389 0.163556 -0.018032
  45 0.000000 3.893734 -0.000003 0.034609 0.221995 0.090612
  46 0.000000 36.517490 -0.000001 3.141592 -0.139473 1.246446
  47 -1.586124 3.425518 -5.597548 -2.367175 -0.810006 -1.367170
  48 -0.000003 12.976492 0.000001 -0.219305 -0.562396 2.472347
  49 0.000018 13.209558 0.000003 -1.436484 0.089765 -1.368883
  50 -0.000016 11.298653 0.000003 -0.069506 -0.040988 -0.099256
  51 -2.946794 2.260440 -0.018080 0.011508 -2.123512 1.384716
  52 4.067905 3.234546 0.024959 0.263168 1.138650 -1.179745
  53 -1.910404 7.516022 0.626324 0.237085 2.449934 0.373309
  54 0.498695 7.200201 -0.276288 -0.336929 0.215805 -0.120325
  55 2.986894 6.702973 -1.654828 0.515556 -2.803169 -0.434332
  56 1.420167 7.446716 0.199370 -0.043961 0.460276 0.226520
  57 0.000001 9.377632 0.000001 -0.362657 1.049900 -0.070276
  58 0.000002 8.008634 0.000002 -0.067403 0.880444 -0.065538
  59 -0.000000 9.061670 0.000000 0.151654 0.346448 0.278199
  60 -3.069577 3.425517 4.969537 2.244412 -0.337522 -0.942003
  61 0.000005 12.976508 0.000002 1.844959 -2.240953 0.272833
  62 0.000000 13.209568 -0.000002 1.383147 2.541264 0.023392
  63 -0.000005 11.298648 -0.000004 -0.118453 -2.880476 0.086454
  64 -0.000003 2.260437 2.946855 -1.394516 3.141591 -0.000003
  65 0.000013 3.234548 -4.067982 -1.455933 -0.317708 2.356236
  66 1.910419 7.516021 0.626274 0.237098 -2.449909 -0.373318
  67 -0.498703 7.200201 -0.276272 -0.336926 -0.215778 0.120325
  68 -2.986940 6.702975 -1.654743 0.515544 2.803193 0.434329
  time 10
  0 20.954098 -16.735975 -23.322582 0.000000 -0.000000 -3.141593
  1 5.659760 20.322403 -22.922028 0.000000 -0.000000 0.000000
  2 -5.665754 0.012664 58.581337 1.570796 -0.000000 -3.141592
  3 12.636264 -78.395607 -14.298701 -1.570796 -1.570796 0.000000
  4 4.289492 -78.812241 11.985060 -1.570796 -1.570796 0.000000
  5 -34.981632 -57.977322 7.874861 -1.570796 1.570796 0.000000
  6 -23.526510 -57.977322 -15.309175 -1.570796 1.570796 0.000000
  7 15.330741 -41.400753 15.954189 -1.570796 -1.570796 0.000000
  8 -5.662928 -41.400753 -15.135818 -1.570796 -1.570796 0.000000
  9 -0.000000 -93.135818 0.000003 0.000000 0.000000 0.000000
  10 0.000000 36.517490 -0.000001 0.000002 -1.749825 1.015217
  11 0.000000 4.413176 0.000000 0.983071 -1.320455 -1.014970
  12 0.000001 5.822268 -0.000001 0.016469 -0.036425 -0.312158
  13 -0.000001 8.863118 -0.000002 -0.042181 -0.406165 -0.525302
  14 -0.000000 3.644233 0.000000 -0.116736 -0.082834 -0.135975
  15 -0.000001 5.401831 -0.000000 -0.116898 -1.237931 -0.011262
  16 -0.000001 5.405349 -0.000000 0.939290 1.207611 0.855293
  17 0.000000 6.972890 -0.000000 -0.192254 -1.174336 -0.002866
  18 -0.000001 5.405349 -0.000000 -1.416208 0.314782 1.536892
  19 -0.000000 2.147789 0.000001 0.101149 0.666154 -1.756879
  20 -1.935491 3.640030 6.017781 0.908030 -1.379136 1.973603
  21 3.241712 3.649999 5.054546 0.098482 1.095735 -2.746140
  22 -0.000001 8.863118 -0.000002 -2.150646 -0.082700 0.272957
  23 -0.000001 12.911960 0.000001 0.044177 -2.102955 -0.867718
  24 -0.000005 14.211072 -0.000004 0.271110 2.876590 0.118212
  25 -0.000002 13.479346 0.000004 1.065618 0.008041 1.306509
  26 -0.000003 4.544428 0.000002 0.020018 -0.558230 -0.213714
  27 -0.000003 3.186323 -0.000002 -0.378963 -0.514880 0.045415
  28 -0.000002 13.479346 0.000004 1.818188 0.024679 2.012052
  29 0.000001 4.117823 0.000001 0.044976 -0.478151 -0.162889
  30 -0.000001 2.509497 -0.000001 -0.482592 -0.567933 0.125532
  31 -0.000002 13.479346 0.000004 0.809502 -0.538992 0.764918
  32 -0.000001 4.351051 -0.000000 -0.152389 -0.163555 0.018032
  33 -0.000001 3.893729 -0.000000 0.034608 -0.221995 -0.090613
  34 -0.000001 8.863118 -0.000002 -1.668483 -2.645074 0.135081
  35 -0.000001 12.409955 -0.000002 -0.269204 2.160101 0.524422
  36 0.000000 14.203231 0.000002 0.493278 -2.916297 -0.209392
  37 0.000005 13.479357 -0.000003 0.781577 -0.176023 -1.166590
  38 -0.000003 4.544429 0.000001 0.013597 0.558231 0.211563
  39 -0.000000 3.186325 -0.000001 -0.378961 0.514880 -0.045415
  40 0.000005 13.479357 -0.000003 1.698728 -0.335329 -1.878620
  41 0.000002 4.117821 0.000003 0.043177 0.478456 0.164709
  42 0.000002 2.509496 0.000002 -0.482591 0.567933 -0.125532
  43 0.000005 13.479357 -0.000003 0.448305 0.510725 -0.845732
  44 -0.000002 4.351051 -0.000001 -0.152389 0.163556 -0.018032
  45 -0.000001 3.893734 -0.000003 0.034609 0.221995 0.090612
  46 0.000000 36.517490 -0.000001 3.141592 -0.139473 1.246446
  47 -1.586123 3.425517 -5.597548 -2.367180 -0.810003 -1.367169
  48 -0.000003 12.976495 0.000003 -0.219310 -0.562398 2.472343
  49 0.000017 13.209556 0.000003 -1.436482 0.089769 -1.368882
  50 -0.000016 11.298655 0.000002 -0.069506 -0.040987 -0.099256
  51 -2.946794 2.260440 -0.018081 0.011508 -2.123512 1.384716
  52 4.067905 3.234547 0.024958 0.263168 1.138650 -1.179746
  53 -1.910402 7.516021 0.626324 0.237085 2.449934 0.373310
  54 0.498694 7.200201 -0.276290 -0.336929 0.215805 -0.120325
  55 2.986894 6.702973 -1.654830 0.515556 -2.803169 -0.434332
  56 1.420167 7.446716 0.199370 -0.065438 0.471973 0.213880
  57 0.000001 9.377633 0.000000 -0.365756 1.049842 -0.070496
  58 0.000001 8.008634 0.000001 -0.067403 0.880444 -0.065538
  59 -0.000001 9.061668 0.000003 0.144302 0.350963 0.266125
  60 -3.069576 3.425516 4.969537 2.244417 -0.337527 -0.942005
  61 0.000004 12.976505 0.000003 1.844955 -2.240953 0.272829
  62 0.000001 13.209567 -0.000001 1.383144 2.541266 0.023392
  63 -0.000003 11.298647 -0.000003 -0.118453 -2.880476 0.086454
  64 -0.000004 2.260436 2.946855 -1.394515 3.141591 -0.000003
  65 0.000012 3.234550 -4.067981 -1.455933 -0.317708 2.356236
  66 1.910418 7.516021 0.626274 0.237098 -2.449909 -0.373318
  67 -0.498703 7.200200 -0.276272 -0.336926 -0.215778 0.120325
  68 -2.986942 6.702972 -1.654742 0.515544 2.803193 0.434329
  time 11
  0 20.979170 -16.735975 -23.323776 0.000000 -0.000000 -3.141593
  1 5.659760 20.322403 -22.922028 0.000000 -0.000000 0.000000
  2 -5.665754 0.012664 58.581337 1.570796 -0.000000 -3.141592
  3 12.636264 -78.395607 -14.298701 -1.570796 -1.570796 0.000000
  4 4.289492 -78.812241 11.985060 -1.570796 -1.570796 0.000000
  5 -34.981632 -57.977322 7.874861 -1.570796 1.570796 0.000000
  6 -23.526510 -57.977322 -15.309175 -1.570796 1.570796 0.000000
  7 15.330741 -41.400753 15.954189 -1.570796 -1.570796 0.000000
  8 -5.662928 -41.400753 -15.135818 -1.570796 -1.570796 0.000000
  9 -0.000000 -93.140999 0.000003 0.000000 0.000000 0.000000
  10 0.000000 36.517490 -0.000001 0.000002 -1.749825 1.015217
  11 0.000000 4.413176 0.000000 0.957816 -1.318618 -1.000553
  12 0.000000 5.822269 -0.000001 0.016829 -0.036335 -0.304350
  13 -0.000000 8.863119 -0.000003 -0.042181 -0.406164 -0.525302
  14 0.000000 3.644234 -0.000000 -0.098853 -0.064489 -0.149331
  15 -0.000001 5.401832 0.000001 -0.120089 -1.236549 -0.007622
  16 -0.000000 5.405349 -0.000000 0.939290 1.207611 0.855293
  17 -0.000000 6.972889 -0.000001 -0.192254 -1.174336 -0.002866
  18 -0.000000 5.405349 -0.000000 -1.416207 0.314782 1.536892
  19 -0.000000 2.147789 0.000000 0.100670 0.666738 -1.774838
  20 -1.935490 3.640032 6.017783 0.908031 -1.379136 1.973602
  21 3.241713 3.649999 5.054547 0.098482 1.095735 -2.746140
  22 -0.000000 8.863119 -0.000003 -2.150646 -0.082700 0.272957
  23 -0.000000 12.911961 0.000002 0.049090 -2.091478 -0.869438
  24 -0.000005 14.211069 -0.000004 0.282909 2.877971 0.123246
  25 -0.000003 13.479349 0.000001 1.065618 0.008041 1.306508
  26 -0.000002 4.544426 0.000000 0.020017 -0.558231 -0.213714
  27 0.000001 3.186323 -0.000001 -0.378962 -0.514880 0.045415
  28 -0.000003 13.479349 0.000001 1.818189 0.024679 2.012052
  29 -0.000001 4.117822 -0.000000 0.044977 -0.478151 -0.162889
  30 -0.000000 2.509497 -0.000001 -0.482592 -0.567933 0.125532
  31 -0.000003 13.479349 0.000001 0.809501 -0.538992 0.764918
  32 -0.000000 4.351051 0.000000 -0.152389 -0.163555 0.018032
  33 0.000000 3.893728 0.000001 0.034608 -0.221995 -0.090613
  34 -0.000000 8.863119 -0.000003 -1.668483 -2.645074 0.135081
  35 -0.000002 12.409957 -0.000001 -0.235664 2.169358 0.550479
  36 -0.000004 14.203221 0.000006 0.481108 -2.913807 -0.204569
  37 0.000005 13.479358 -0.000003 0.822627 -0.176179 -1.167884
  38 0.000001 4.544427 -0.000003 0.012686 0.558236 0.210920
  39 -0.000001 3.186324 -0.000001 -0.378962 0.514880 -0.045415
  40 0.000005 13.479358 -0.000003 1.732359 -0.309115 -1.883142
  41 0.000003 4.117821 0.000003 0.042482 0.478490 0.164906
  42 0.000004 2.509496 0.000002 -0.482591 0.567933 -0.125532
  43 0.000005 13.479358 -0.000003 0.489681 0.496577 -0.818731
  44 -0.000002 4.351050 -0.000001 -0.152389 0.163556 -0.018032
  45 0.000001 3.893732 -0.000002 0.034608 0.221995 0.090612
  46 0.000000 36.517490 -0.000001 3.141592 -0.139473 1.246446
  47 -1.586123 3.425517 -5.597548 -2.366971 -0.810124 -1.367175
  48 -0.000005 12.976495 0.000002 -0.219070 -0.562283 2.472502
  49 0.000015 13.209557 0.000005 -1.436596 0.089620 -1.368899
  50 -0.000016 11.298655 -0.000000 -0.069506 -0.040988 -0.099256
  51 -2.946794 2.260438 -0.018081 0.011508 -2.123512 1.384716
  52 4.067905 3.234548 0.024957 0.263167 1.138650 -1.179746
  53 -1.910404 7.516020 0.626326 0.237085 2.449934 0.373309
  54 0.498693 7.200200 -0.276287 -0.336929 0.215805 -0.120325
  55 2.986893 6.702974 -1.654828 0.515556 -2.803169 -0.434332
  56 1.420167 7.446716 0.199370 -0.085406 0.482491 0.201966
  57 0.000002 9.377633 0.000001 -0.368899 1.049833 -0.070964
  58 0.000001 8.008635 0.000002 -0.067403 0.880444 -0.065538
  59 -0.000001 9.061670 -0.000000 0.136822 0.355428 0.253903
  60 -3.069576 3.425516 4.969537 2.244222 -0.337314 -0.941908
  61 0.000003 12.976506 0.000002 1.845135 -2.240959 0.272982
  62 -0.000002 13.209569 -0.000003 1.383298 2.541180 0.023371
  63 -0.000003 11.298648 -0.000003 -0.118453 -2.880476 0.086454
  64 -0.000002 2.260437 2.946854 -1.394515 3.141591 -0.000003
  65 0.000010 3.234547 -4.067980 -1.455933 -0.317708 2.356236
  66 1.910420 7.516021 0.626274 0.237098 -2.449909 -0.373318
  67 -0.498703 7.200201 -0.276271 -0.336926 -0.215778 0.120325
  68 -2.986940 6.702973 -1.654741 0.515544 2.803193 0.434329
  time 12
  0 21.014175 -16.735973 -23.323948 0.000000 -0.000000 -3.141593
  1 5.659760 20.322403 -22.922028 0.000000 -0.000000 0.000000
  2 -5.665754 0.012664 58.581337 1.570796 -0.000000 -3.141592
  3 12.636264 -78.395607 -14.298701 -1.570796 -1.570796 0.000000
  4 4.289492 -78.812241 11.985060 -1.570796 -1.570796 0.000000
  5 -34.981632 -57.977322 7.874861 -1.570796 1.570796 0.000000
  6 -23.526510 -57.977322 -15.309175 -1.570796 1.570796 0.000000
  7 15.330741 -41.400753 15.954189 -1.570796 -1.570796 0.000000
  8 -5.662928 -41.400753 -15.135818 -1.570796 -1.570796 0.000000
  9 -0.000000 -93.144310 0.000003 0.000000 0.000000 0.000000
  10 0.000000 36.517490 -0.000001 0.000002 -1.749825 1.015217
  11 0.000000 4.413176 0.000000 0.940730 -1.317247 -0.991469
  12 -0.000001 5.822268 -0.000000 0.016980 -0.036298 -0.301075
  13 -0.000001 8.863119 -0.000000 -0.042181 -0.406164 -0.525302
  14 -0.000000 3.644234 0.000000 -0.070225 -0.058688 -0.154643
  15 -0.000001 5.401832 0.000001 -0.122868 -1.235332 -0.004449
  16 -0.000000 5.405349 0.000000 0.939290 1.207611 0.855293
  17 -0.000001 6.972890 -0.000000 -0.192254 -1.174336 -0.002866
  18 -0.000000 5.405349 0.000000 -1.416207 0.314783 1.536892
  19 -0.000000 2.147789 0.000001 0.100475 0.666970 -1.782022
  20 -1.935490 3.640033 6.017783 0.908031 -1.379136 1.973602
  21 3.241713 3.650000 5.054548 0.098482 1.095735 -2.746140
  22 -0.000001 8.863119 -0.000000 -2.150645 -0.082700 0.272957
  23 -0.000001 12.911958 -0.000001 0.049260 -2.083875 -0.867034
  24 -0.000004 14.211064 -0.000000 0.295792 2.879548 0.128727
  25 -0.000009 13.479344 0.000007 1.065618 0.008041 1.306509
  26 -0.000001 4.544425 -0.000000 0.020017 -0.558231 -0.213713
  27 0.000001 3.186322 0.000001 -0.378962 -0.514880 0.045414
  28 -0.000009 13.479344 0.000007 1.818188 0.024679 2.012052
  29 0.000001 4.117822 -0.000002 0.044976 -0.478151 -0.162889
  30 0.000001 2.509497 -0.000002 -0.482592 -0.567933 0.125532
  31 -0.000009 13.479344 0.000007 0.809501 -0.538993 0.764918
  32 0.000000 4.351049 0.000003 -0.152389 -0.163555 0.018032
  33 0.000001 3.893728 0.000002 0.034608 -0.221994 -0.090613
  34 -0.000001 8.863119 -0.000000 -1.668483 -2.645074 0.135081
  35 -0.000001 12.409956 -0.000001 -0.219556 2.174939 0.561293
  36 -0.000002 14.203221 0.000001 0.474124 -2.912406 -0.201789
  37 0.000006 13.479356 -0.000002 0.881775 -0.181339 -1.171796
  38 0.000002 4.544428 -0.000004 0.011778 0.558242 0.210162
  39 0.000002 3.186324 -0.000001 -0.378962 0.514880 -0.045415
  40 0.000006 13.479356 -0.000002 1.792224 -0.275250 -1.890926
  41 0.000002 4.117820 -0.000000 0.041633 0.478520 0.165080
  42 0.000001 2.509497 0.000002 -0.482591 0.567933 -0.125532
  43 0.000006 13.479356 -0.000002 0.533923 0.466454 -0.781214
  44 0.000000 4.351052 -0.000001 -0.152389 0.163556 -0.018032
  45 0.000001 3.893734 -0.000001 0.034608 0.221995 0.090612
  46 0.000000 36.517490 -0.000001 3.141592 -0.139473 1.246446
  47 -1.586123 3.425517 -5.597548 -2.366837 -0.810201 -1.367179
  48 -0.000003 12.976496 0.000002 -0.218916 -0.562210 2.472604
  49 0.000013 13.209556 0.000002 -1.436669 0.089524 -1.368911
  50 -0.000015 11.298653 0.000005 -0.069506 -0.040988 -0.099256
  51 -2.946794 2.260439 -0.018080 0.011508 -2.123512 1.384716
  52 4.067905 3.234548 0.024959 0.263168 1.138651 -1.179746
  53 -1.910403 7.516019 0.626326 0.237085 2.449934 0.373310
  54 0.498693 7.200198 -0.276289 -0.336929 0.215805 -0.120325
  55 2.986893 6.702972 -1.654827 0.515556 -2.803169 -0.434332
  56 1.420167 7.446716 0.199370 -0.100165 0.490046 0.193065
  57 0.000001 9.377632 0.000001 -0.371718 1.049899 -0.071765
  58 0.000001 8.008635 0.000001 -0.067403 0.880444 -0.065538
  59 -0.000001 9.061671 0.000001 0.129330 0.359773 0.241718
  60 -3.069576 3.425516 4.969537 2.244097 -0.337177 -0.941847
  61 0.000005 12.976507 0.000002 1.845249 -2.240963 0.273080
  62 -0.000000 13.209567 -0.000002 1.383396 2.541126 0.023357
  63 -0.000005 11.298646 -0.000001 -0.118453 -2.880477 0.086454
  64 -0.000002 2.260436 2.946854 -1.394516 3.141592 -0.000003
  65 0.000010 3.234549 -4.067980 -1.455933 -0.317708 2.356236
  66 1.910419 7.516020 0.626275 0.237098 -2.449909 -0.373318
  67 -0.498702 7.200200 -0.276271 -0.336926 -0.215778 0.120325
  68 -2.986940 6.702972 -1.654740 0.515544 2.803193 0.434329
end
