version 1
nodes
0 "HandIK.R.000" -1
1 "HandIK.L.000" -1
2 "AllTorso.001" -1
3 "LegIK.R.000" 2
4 "LegIK.L.000" 2
5 "KneeIK.L.000" 2
6 "KneeIK.R.000" 2
7 "ElbowIK.L.000" 2
8 "ElbowIK.R.000" 2
9 "AllTorso.000" 2
10 "Bone.000" 9
11 "Bone.001" 10
12 "Bone.002" 11
13 "Bone.003" 12
14 "Bone.004" 13
15 "Bone.005" 14
16 "Bone.006" 15
17 "Bone.007" 16
18 "Bone.008" 15
19 "Bone.009" 18
20 "Ear.L.001" 15
21 "Ear.R.001" 15
22 "Arm.L.000" 12
23 "Arm.L.001" 22
24 "Arm.L.003" 23
25 "Arm.L.004" 24
26 "Arm.L.005" 25
27 "Arm.L.006" 26
28 "Arm.L.007" 24
29 "Arm.L.008" 28
30 "Arm.L.009" 29
31 "Arm.L.010" 24
32 "Arm.L.011" 31
33 "Arm.L.012" 32
34 "Arm.R.000" 12
35 "Arm.R.001" 34
36 "Arm.R.003" 35
37 "Arm.R.004" 36
38 "Arm.R.005" 37
39 "Arm.R.006" 38
40 "Arm.R.007" 36
41 "Arm.R.008" 40
42 "Arm.R.009" 41
43 "Arm.R.010" 36
44 "Arm.R.011" 43
45 "Arm.R.012" 44
46 "Bone.011" 9
47 "Leg.L.001" 46
48 "Leg.L.002" 47
49 "Leg.L.003" 48
50 "Leg.L.004" 49
51 "Leg.L.006" 50
52 "Leg.L.010" 50
53 "Leg.L.009" 52
54 "Leg.L.011" 52
55 "Leg.L.013" 52
56 "Bone.013" 46
57 "Bone.014" 56
58 "Bone.015" 57
59 "Bone.016" 58
60 "Leg.R.001" 46
61 "Leg.R.002" 60
62 "Leg.R.003" 61
63 "Leg.R.004" 62
64 "Leg.R.006" 63
65 "Leg.R.010" 63
66 "Leg.R.009" 65
67 "Leg.R.011" 65
68 "Leg.R.013" 65
end
skeleton
  time 0
  0 13.699286 -13.984049 -0.271793 0.000000 -0.000000 -3.141593
  1 6.428376 22.429514 -3.168108 0.000000 -0.000000 0.000000
  2 -5.665754 0.012664 58.581337 1.570796 -0.000000 -3.141592
  3 -0.726881 -77.393768 -14.462730 -1.570796 -1.570796 0.000000
  4 13.122191 -77.350220 14.170085 -1.570796 -1.570796 0.000000
  5 -44.456379 -57.977322 20.839128 -1.570796 1.570796 0.000000
  6 -44.456367 -57.977322 -14.458026 -1.570796 1.570796 0.000000
  7 15.330741 -41.400753 15.954189 -1.570796 -1.570796 0.000000
  8 15.330753 -41.400753 -16.530237 -1.570796 -1.570796 0.000000
  9 -0.000000 -88.032249 0.000003 0.000000 0.000000 0.000000
  10 0.000000 36.517490 -0.000001 0.000001 -1.749825 0.982090
  11 0.000000 4.413177 0.000001 0.121720 -1.437945 -0.123569
  12 0.000001 5.822269 0.000001 0.033556 -0.035245 0.050254
  13 0.000000 8.863121 0.000000 -0.032068 -0.401316 -0.398570
  14 -0.000001 3.644233 0.000000 -0.039963 -0.273315 -0.061329
  15 -0.000001 5.401831 0.000000 1.030867 -1.132538 -1.303510
  16 -0.000000 5.405349 -0.000000 0.939290 1.207611 0.855293
  17 -0.000001 6.972890 0.000000 -0.192254 -1.174336 -0.002866
  18 -0.000000 5.405349 -0.000000 -1.416207 0.314782 1.536892
  19 -0.000000 2.147789 -0.000000 0.118537 0.692853 -1.409717
  20 -1.935490 3.640030 6.017783 0.908030 -1.379136 1.973603
  21 3.241713 3.649998 5.054547 0.098481 1.095736 -2.746141
  22 0.000000 8.863121 0.000000 -1.559182 -0.089750 0.240751
  23 0.000003 12.911958 0.000000 -1.443029 -0.511845 1.897665
  24 0.000005 14.211064 -0.000002 -1.973727 0.002763 -2.724485
  25 -0.000005 13.479348 0.000005 0.516782 0.934037 0.580002
  26 0.000001 4.528179 -0.000001 0.020017 -0.558231 -0.213714
  27 -0.000001 3.174931 0.000000 -0.378962 -0.514880 0.045414
  28 -0.000005 13.479348 0.000005 -0.765172 2.282235 -1.196155
  29 0.000002 4.103101 -0.000001 0.044976 -0.478151 -0.162889
  30 0.000001 2.500526 0.000000 -0.482592 -0.567933 0.125532
  31 -0.000005 13.479348 0.000005 0.023591 0.135919 0.493581
  32 -0.000002 4.335494 0.000001 -0.152389 -0.163555 0.018032
  33 -0.000003 3.879808 0.000002 0.034608 -0.221994 -0.090613
  34 0.000000 8.863121 0.000000 -1.352324 -2.767557 0.157781
  35 -0.000000 12.409956 -0.000000 -1.421408 0.166584 -1.815754
  36 0.000005 14.203224 0.000009 -1.467919 0.238677 2.689707
  37 -0.000014 13.479353 0.000009 0.995414 -0.974740 -1.179960
  38 0.000007 4.528185 -0.000002 0.020016 0.558231 0.213712
  39 0.000002 3.174933 0.000002 -0.378962 0.514878 -0.045415
  40 -0.000014 13.479353 0.000009 -0.559405 -2.433865 0.912912
  41 0.000004 4.103103 0.000001 0.044978 0.478151 0.162889
  42 0.000002 2.500528 -0.000001 -0.482592 0.567933 -0.125533
  43 -0.000014 13.479353 0.000009 0.161711 -0.345115 -0.638866
  44 0.000002 4.335493 0.000002 -0.152389 0.163556 -0.018032
  45 0.000000 3.879808 0.000000 0.034608 0.221995 0.090612
  46 0.000000 36.517490 -0.000001 0.119043 -3.015791 -1.472736
  47 -1.586125 3.425518 -5.597548 -2.411141 -0.555838 -1.285281
  48 -0.000005 12.976493 0.000002 -0.572658 -0.780164 2.228904
  49 0.000006 13.209566 -0.000010 -1.177642 0.318628 -1.308426
  50 -0.000017 11.298646 0.000001 -0.317946 -0.067526 -0.019312
  51 -2.946797 2.260438 -0.018083 0.011509 -2.123512 1.384716
  52 4.067903 3.234546 0.024961 0.227894 1.086618 -1.340891
  53 -1.910401 7.516026 0.626331 0.237085 2.449934 0.373309
  54 0.498695 7.200204 -0.276282 -0.336929 0.215805 -0.120326
  55 2.986897 6.702977 -1.654823 0.515556 -2.803168 -0.434333
  56 1.420169 7.446716 0.199370 0.004352 0.453157 -0.025973
  57 -0.000001 9.377634 0.000001 -0.069552 1.032975 -0.062330
  58 0.000001 8.008635 -0.000000 -0.114015 0.777117 0.140530
  59 -0.000002 9.061669 -0.000000 0.195790 0.316542 0.352055
  60 -3.069577 3.425518 4.969540 2.667171 -0.515794 -0.225720
  61 0.000003 12.976506 -0.000004 1.889561 -2.218990 0.062873
  62 0.000003 13.209568 0.000003 1.319905 2.950476 0.124619
  63 0.000002 11.298656 -0.000013 0.467038 -2.870902 0.140679
  64 0.000004 2.260432 2.946850 -1.394515 -3.141591 -0.000002
  65 0.000002 3.234552 -4.067971 -1.477187 -0.061592 2.598445
  66 1.910422 7.516023 0.626275 0.237099 -2.449909 -0.373318
  67 -0.498700 7.200201 -0.276269 -0.336926 -0.215778 0.120325
  68 -2.986939 6.702971 -1.654735 0.515543 2.803194 0.434328
  time 1
  0 12.035534 -24.389801 11.082064 0.000000 -0.000000 -3.141593
  1 13.798914 23.446922 6.310108 0.000000 -0.000000 0.000000
  2 -5.665754 0.012664 58.581337 1.570796 -0.000000 -3.141592
  3 3.417682 -74.621178 -14.462729 -1.570796 -1.570796 0.000000
  4 14.839051 -76.582893 14.170086 -1.570796 -1.570796 0.000000
  5 -44.456379 -58.030617 20.839128 -1.570796 1.570796 0.000000
  6 -44.456367 -58.057762 -14.458026 -1.570796 1.570796 0.000000
  7 15.330741 -42.904652 15.954189 -1.570796 -1.570796 0.000000
  8 15.330753 -44.349663 -16.530237 -1.570796 -1.570796 0.000000
  9 -0.000000 -88.079124 0.000003 0.000000 0.000000 0.000000
  10 0.000000 36.517490 -0.000001 0.052222 -1.744890 1.008579
  11 0.000000 4.413176 0.000000 -1.218063 -1.390954 1.357903
  12 0.000000 5.822268 -0.000000 0.057881 -0.060493 0.177912
  13 0.000000 8.863121 -0.000000 -0.032068 -0.401317 -0.398570
  14 -0.000000 3.644234 -0.000000 0.048666 -0.148404 0.135082
  15 -0.000000 5.401831 -0.000001 1.237974 -1.055917 -1.131173
  16 -0.000000 5.405349 -0.000001 0.939290 1.207611 0.855292
  17 -0.000002 6.972888 -0.000001 -0.192254 -1.174336 -0.002866
  18 -0.000000 5.405349 -0.000001 -1.416208 0.314782 1.536892
  19 -0.000000 2.147789 0.000000 0.175292 0.614858 -0.326745
  20 -1.935491 3.640031 6.017783 0.908031 -1.379136 1.973602
  21 3.241712 3.649997 5.054546 0.098481 1.095736 -2.746140
  22 0.000000 8.863121 -0.000000 -1.559161 -0.089727 0.240747
  23 -0.000000 12.911960 0.000001 -1.321279 -0.816151 2.180609
  24 -0.000004 14.211067 0.000000 -1.553146 -0.195802 -2.685640
  25 -0.000004 13.479359 0.000004 0.419055 0.951150 0.493571
  26 -0.000001 4.537694 0.000001 0.020017 -0.558231 -0.213714
  27 -0.000000 3.181602 0.000000 -0.378962 -0.514880 0.045414
  28 -0.000004 13.479359 0.000004 -0.751181 2.238906 -1.182493
  29 0.000001 4.111722 -0.000002 0.044976 -0.478151 -0.162889
  30 -0.000001 2.505780 -0.000000 -0.482592 -0.567933 0.125532
  31 -0.000004 13.479359 0.000004 -0.038874 0.141683 0.479678
  32 -0.000002 4.344604 0.000001 -0.152389 -0.163555 0.018032
  33 -0.000001 3.887959 0.000001 0.034608 -0.221995 -0.090613
  34 0.000000 8.863121 -0.000000 -1.351930 -2.768019 0.157677
  35 0.000001 12.409958 -0.000000 -1.376312 0.781940 -2.227075
  36 0.000001 14.203232 0.000010 -1.142543 0.382657 2.730797
  37 -0.000006 13.479359 0.000015 0.907218 -0.987012 -1.109461
  38 -0.000000 4.537696 0.000008 0.020018 0.558230 0.213715
  39 0.000001 3.181601 0.000005 -0.378961 0.514880 -0.045415
  40 -0.000006 13.479359 0.000015 -0.583484 -2.392947 0.930890
  41 0.000001 4.111724 -0.000003 0.044976 0.478151 0.162889
  42 0.000000 2.505783 -0.000002 -0.482591 0.567935 -0.125531
  43 -0.000006 13.479359 0.000015 0.086525 -0.337699 -0.610171
  44 0.000001 4.344601 0.000004 -0.152389 0.163556 -0.018032
  45 -0.000000 3.887959 0.000002 0.034609 0.221995 0.090612
  46 0.000000 36.517490 -0.000001 -3.022549 -0.125801 1.440768
  47 -1.586124 3.425518 -5.597548 -2.313497 -0.499309 -1.615363
  48 -0.000007 12.976500 -0.000000 -0.541738 -0.756888 2.260756
  49 0.000011 13.209567 -0.000009 -1.193245 0.291935 -1.319704
  50 -0.000015 11.298656 -0.000002 -0.315388 -0.065809 -0.014568
  51 -2.946800 2.260433 -0.018080 0.011507 -2.123511 1.384719
  52 4.067900 3.234557 0.024954 0.015358 1.037634 -1.633739
  53 -1.919965 7.531537 0.606227 0.182141 2.416284 0.307362
  54 0.497347 7.193147 -0.274226 -0.283240 0.203761 -0.139005
  55 2.997150 6.694694 -1.637290 0.457492 -2.805471 -0.441219
  56 1.420169 7.446717 0.199369 0.071393 0.394189 -0.313951
  57 0.000001 9.377633 0.000001 0.077720 1.016274 -0.057982
  58 -0.000000 8.008637 -0.000001 0.043145 0.736742 0.248304
  59 0.000002 9.061672 -0.000001 0.195790 0.316542 0.352055
  60 -3.069574 3.425517 4.969538 2.661908 -0.447209 -0.514851
  61 0.000003 12.976508 -0.000007 2.154398 -2.216220 0.111466
  62 -0.000001 13.209565 -0.000002 1.465789 2.940735 0.122427
  63 0.000003 11.298667 -0.000016 0.467038 -2.870901 0.140679
  64 0.000000 2.260434 2.946851 -1.394515 -3.141592 -0.000002
  65 0.000001 3.234555 -4.067975 -1.475668 -0.059184 2.592207
  66 1.953929 7.567994 0.497239 -0.079936 -2.302541 -0.026760
  67 -0.488724 7.165424 -0.269273 -0.067243 -0.158799 0.195156
  68 -3.040414 6.685775 -1.532695 0.227976 2.781591 0.460691
  time 2
  0 9.785376 -34.665703 22.005630 0.000000 -0.000000 -3.141593
  1 18.886250 24.039703 11.911264 0.000000 -0.000000 0.000000
  2 -5.665754 0.012664 58.581337 1.570796 -0.000000 -3.141592
  3 4.061835 -74.697212 -14.462729 -1.570796 -1.570796 0.000000
  4 18.721893 -75.157867 14.170087 -1.570796 -1.570796 0.000000
  5 -44.456379 -58.403690 20.839128 -1.570796 1.570796 0.000000
  6 -44.456367 -58.620850 -14.458026 -1.570796 1.570796 0.000000
  7 15.330741 -46.869473 15.954189 -1.570796 -1.570796 0.000000
  8 15.330753 -51.068592 -16.530235 -1.570796 -1.570796 0.000000
  9 -0.000000 -88.227936 0.000003 0.000000 0.000000 0.000000
  10 0.000000 36.517490 -0.000001 0.076587 -1.742331 1.043713
  11 -0.000000 4.413176 -0.000001 -1.101348 -1.414747 1.220501
  12 -0.000001 5.822268 -0.000001 0.078831 -0.088624 0.305174
  13 0.000000 8.863121 -0.000001 -0.032069 -0.401317 -0.398570
  14 0.000000 3.644235 0.000000 0.048668 -0.148396 0.135051
  15 0.000001 5.401832 -0.000000 1.272169 -1.070165 -1.172973
  16 0.000000 5.405348 0.000000 0.939290 1.207611 0.855292
  17 -0.000001 6.972891 -0.000001 -0.192254 -1.174336 -0.002866
  18 0.000000 5.405348 0.000000 -1.416207 0.314782 1.536892
  19 -0.000001 2.147790 0.000001 0.172592 0.610372 -0.343818
  20 -1.935490 3.640032 6.017784 0.908031 -1.379136 1.973602
  21 3.241712 3.649999 5.054547 0.098481 1.095736 -2.746140
  22 0.000000 8.863121 -0.000001 -1.558502 -0.089031 0.240622
  23 0.000001 12.911960 0.000001 1.262377 -2.142792 -0.437286
  24 -0.000001 14.211061 0.000006 -1.383777 -0.275914 -2.694099
  25 0.000005 13.479356 0.000012 0.316849 0.959816 0.402224
  26 -0.000002 4.548295 0.000004 0.020019 -0.558230 -0.213714
  27 0.000000 3.189034 0.000000 -0.378962 -0.514880 0.045415
  28 0.000005 13.479356 0.000012 -0.742314 2.190758 -1.176117
  29 0.000002 4.121326 -0.000000 0.044977 -0.478151 -0.162889
  30 0.000001 2.511633 -0.000001 -0.482593 -0.567933 0.125532
  31 0.000005 13.479356 0.000012 -0.100681 0.145638 0.463783
  32 -0.000002 4.354752 0.000000 -0.152389 -0.163555 0.018032
  33 -0.000001 3.897042 0.000004 0.034608 -0.221995 -0.090613
  34 0.000000 8.863121 -0.000001 -1.350680 -2.769487 0.157345
  35 -0.000002 12.409956 -0.000003 0.604751 2.285625 -0.327743
  36 0.000009 14.203224 0.000008 -1.737687 0.109530 2.693902
  37 0.000011 13.479350 0.000008 0.801940 -0.994332 -1.018215
  38 0.000003 4.548295 0.000001 0.020016 0.558231 0.213713
  39 -0.000000 3.189035 0.000003 -0.378961 0.514880 -0.045414
  40 0.000011 13.479350 0.000008 -0.615879 -2.344464 0.960705
  41 0.000004 4.121327 -0.000003 0.044976 0.478151 0.162889
  42 0.000002 2.511634 -0.000001 -0.482593 0.567933 -0.125533
  43 0.000011 13.479350 0.000008 0.011506 -0.322175 -0.579355
  44 0.000003 4.354754 0.000000 -0.152389 0.163556 -0.018032
  45 0.000002 3.897043 -0.000000 0.034609 0.221995 0.090612
  46 0.000000 36.517490 -0.000001 -3.023261 -0.125976 1.359421
  47 -1.586125 3.425519 -5.597548 -2.260697 -0.377431 -1.867086
  48 -0.000006 12.976502 -0.000001 -0.566578 -0.775499 2.235208
  49 0.000007 13.209567 -0.000009 -1.180768 0.313331 -1.310714
  50 -0.000014 11.298657 -0.000001 -0.232323 -0.018694 0.134610
  51 -2.946799 2.260437 -0.018080 0.011507 -2.123511 1.384720
  52 4.067900 3.234557 0.024957 -0.145464 0.963083 -1.876279
  53 -1.958692 7.556484 0.489685 0.044047 2.321555 0.154711
  54 0.489459 7.177254 -0.271236 -0.154006 0.154389 -0.172255
  55 3.044422 6.685467 -1.523239 0.314435 -2.808997 -0.453615
  56 1.420169 7.446718 0.199370 0.165728 0.355994 -0.565433
  57 0.000002 9.377632 -0.000002 0.145279 1.003898 -0.063456
  58 -0.000001 8.008635 -0.000001 0.187761 0.685053 0.342508
  59 0.000001 9.061672 0.000000 0.195790 0.316542 0.352056
  60 -3.069576 3.425517 4.969540 2.669835 -0.448256 -0.631533
  61 0.000006 12.976506 0.000007 2.167988 -2.215948 0.114245
  62 0.000005 13.209570 -0.000007 1.473140 2.940089 0.122325
  63 -0.000001 11.298664 -0.000011 0.467038 -2.870901 0.140679
  64 0.000001 2.260437 2.946851 -1.394515 -3.141592 -0.000002
  65 0.000001 3.234557 -4.067976 -1.474162 -0.056768 2.585973
  66 1.983692 7.630390 0.380741 -0.434925 -2.248290 0.349558
  67 -0.476345 7.136014 -0.269924 0.167481 -0.121180 0.266824
  68 -3.082556 6.652795 -1.415554 -0.023945 2.764790 0.473650
  time 3
  0 9.774516 -34.640396 21.803993 0.000000 -0.000000 -3.141593
  1 18.891430 24.037868 11.885981 0.000000 -0.000000 0.000000
  2 -5.665754 0.012664 58.581337 1.570796 -0.000000 -3.141592
  3 5.994295 -74.925323 -14.462729 -1.570796 -1.570796 0.000000
  4 22.869095 -74.390541 14.170089 -1.570796 -1.570796 0.000000
  5 -44.456379 -59.416321 20.839128 -1.570796 1.570796 0.000000
  6 -44.456367 -60.149235 -14.458026 -1.570796 1.570796 0.000000
  7 15.330741 -52.474915 15.954189 -1.570796 -1.570796 0.000000
  8 15.330753 -60.274349 -16.530237 -1.570796 -1.570796 0.000000
  9 -0.000000 -88.700378 0.000003 0.000000 0.000000 0.000000
  10 0.000000 36.517490 -0.000001 0.078960 -1.741742 1.084189
  11 0.000000 4.413175 -0.000000 -0.942586 -1.435226 1.041048
  12 0.000000 5.822268 -0.000000 0.079435 -0.087741 0.292284
  13 -0.000000 8.863118 -0.000002 -0.032068 -0.401317 -0.398570
  14 -0.000000 3.644233 -0.000001 0.048729 -0.148148 0.134091
  15 -0.000000 5.401830 -0.000001 1.389768 -1.108852 -1.313596
  16 0.000000 5.405348 0.000000 0.939290 1.207611 0.855293
  17 -0.000001 6.972888 0.000001 -0.192254 -1.174336 -0.002866
  18 0.000000 5.405348 0.000000 -1.416207 0.314782 1.536892
  19 -0.000001 2.147787 0.000000 0.165060 0.596613 -0.394947
  20 -1.935490 3.640030 6.017782 0.908030 -1.379136 1.973603
  21 3.241712 3.649998 5.054545 0.098481 1.095736 -2.746140
  22 -0.000000 8.863118 -0.000002 -1.554018 -0.084288 0.239784
  23 -0.000002 12.911961 0.000003 1.087462 -2.266376 -0.193754
  24 0.000004 14.211063 -0.000005 -1.297867 -0.314908 -2.703641
  25 0.000000 13.479354 0.000007 0.216770 0.958797 0.312124
  26 -0.000000 4.559259 -0.000000 0.020017 -0.558231 -0.213714
  27 0.000000 3.196724 0.000002 -0.378962 -0.514880 0.045414
  28 0.000000 13.479354 0.000007 -0.742333 2.137881 -1.181240
  29 0.000002 4.131262 -0.000003 0.044976 -0.478151 -0.162889
  30 0.000001 2.517689 -0.000002 -0.482592 -0.567933 0.125532
  31 0.000000 13.479354 0.000007 -0.159376 0.147285 0.446193
  32 -0.000002 4.365250 0.000001 -0.152389 -0.163555 0.018032
  33 0.000001 3.906437 0.000002 0.034608 -0.221995 -0.090613
  34 -0.000000 8.863118 -0.000002 -1.346717 -2.774148 0.156307
  35 0.000001 12.409956 -0.000002 0.609017 2.545415 -0.421564
  36 0.000001 14.203223 0.000002 -1.779758 0.089523 2.697726
  37 0.000005 13.479351 0.000005 0.680505 -0.993286 -0.905818
  38 0.000000 4.559257 0.000001 0.020016 0.558231 0.213713
  39 0.000001 3.196721 0.000003 -0.378961 0.514879 -0.045414
  40 0.000005 13.479351 0.000005 -0.659715 -2.287993 1.006394
  41 0.000005 4.131263 -0.000001 0.044976 0.478151 0.162889
  42 0.000001 2.517689 0.000001 -0.482592 0.567933 -0.125533
  43 0.000005 13.479351 0.000005 -0.060267 -0.297279 -0.547666
  44 0.000002 4.365251 -0.000000 -0.152389 0.163556 -0.018032
  45 0.000003 3.906437 -0.000001 0.034608 0.221995 0.090612
  46 0.000000 36.517490 -0.000001 -3.024905 -0.126442 1.309366
  47 -1.586122 3.425518 -5.597548 -2.266314 -0.219085 -2.080482
  48 -0.000005 12.976501 0.000001 -0.644923 -0.839437 2.149221
  49 0.000002 13.209552 -0.000010 -1.138250 0.385887 -1.277128
  50 -0.000010 11.298651 -0.000004 -0.232311 -0.018725 0.134609
  51 -2.946796 2.260435 -0.018081 0.011507 -2.123511 1.384719
  52 4.067896 3.234554 0.024956 -0.124529 0.972635 -1.837174
  53 -2.025556 7.566134 0.251084 -0.146406 2.191879 -0.035031
  54 0.472308 7.159904 -0.273420 -0.004939 0.059150 -0.198438
  55 3.129070 6.692982 -1.281938 0.139018 -2.855064 -0.445263
  56 1.420169 7.446717 0.199370 0.165700 0.355993 -0.565417
  57 -0.000000 9.377632 -0.000002 0.161971 0.999111 -0.067335
  58 -0.000001 8.008636 -0.000000 0.187718 0.685064 0.342480
  59 0.000001 9.061669 -0.000000 0.195790 0.316542 0.352055
  60 -3.069577 3.425516 4.969538 2.666463 -0.456487 -0.772295
  61 0.000005 12.976513 0.000005 2.171598 -2.215879 0.115053
  62 0.000003 13.209564 -0.000004 1.475103 2.939885 0.122293
  63 0.000006 11.298637 -0.000010 0.439320 -2.864562 0.147433
  64 0.000001 2.260437 2.946850 -1.394515 -3.141592 -0.000002
  65 0.000002 3.234555 -4.067975 -1.472673 -0.054343 2.579743
  66 1.987506 7.655815 0.347488 -0.538333 -2.246182 0.457090
  67 -0.471152 7.128588 -0.273533 0.231846 -0.110904 0.286235
  68 -3.091568 6.634783 -1.378684 -0.093450 2.760957 0.475078
  time 4
  0 9.698501 -34.463238 20.392532 0.000000 -0.000000 -3.141593
  1 18.969139 24.010330 11.506725 0.000000 -0.000000 0.000000
  2 -5.665754 0.012664 58.581337 1.570796 -0.000000 -3.141592
  3 9.215061 -75.305504 -14.462729 -1.570796 -1.570796 0.000000
  4 22.878817 -74.398666 14.170089 -1.570796 -1.570796 0.000000
  5 -44.456379 -61.388279 20.839130 -1.570796 1.570796 0.000000
  6 -44.456367 -63.125565 -14.458026 -1.570796 1.570796 0.000000
  7 15.330741 -58.900658 15.954189 -1.570796 -1.570796 0.000000
  8 15.330753 -70.683769 -16.530237 -1.570796 -1.570796 0.000000
  9 -0.000000 -90.200294 0.000003 0.000000 0.000000 0.000000
  10 0.000000 36.517490 -0.000001 0.066315 -1.742691 1.125738
  11 -0.000000 4.413176 0.000000 -0.732457 -1.450621 0.810233
  12 0.000001 5.822269 0.000000 0.079844 -0.084441 0.258933
  13 -0.000000 8.863119 -0.000000 -0.032068 -0.401317 -0.398570
  14 0.000000 3.644233 -0.000001 0.049137 -0.146463 0.127556
  15 -0.000001 5.401832 -0.000000 1.637618 -1.154091 -1.600515
  16 -0.000001 5.405348 -0.000000 0.939290 1.207611 0.855292
  17 -0.000001 6.972888 0.000000 -0.192254 -1.174336 -0.002866
  18 -0.000001 5.405348 -0.000000 -1.416207 0.314782 1.536892
  19 -0.000001 2.147788 -0.000000 0.154446 0.572775 -0.479765
  20 -1.935490 3.640031 6.017783 0.908030 -1.379136 1.973603
  21 3.241712 3.649997 5.054544 0.098482 1.095735 -2.746138
  22 -0.000000 8.863119 -0.000000 -1.537455 -0.066685 0.236865
  23 -0.000005 12.911961 0.000001 0.945350 -2.428415 -0.007888
  24 -0.000001 14.211077 -0.000000 -1.217650 -0.349884 -2.715617
  25 0.000002 13.479361 0.000008 0.125918 0.947925 0.229939
  26 -0.000002 4.569861 0.000001 0.020018 -0.558230 -0.213714
  27 -0.000002 3.204157 0.000001 -0.378962 -0.514880 0.045415
  28 0.000002 13.479361 0.000008 -0.757120 2.080556 -1.204173
  29 0.000003 4.140871 -0.000003 0.044977 -0.478151 -0.162889
  30 -0.000001 2.523543 -0.000001 -0.482592 -0.567933 0.125532
  31 0.000002 13.479361 0.000008 -0.212488 0.146258 0.427262
  32 -0.000002 4.375401 0.000001 -0.152389 -0.163555 0.018032
  33 -0.000000 3.915522 0.000003 0.034608 -0.221995 -0.090613
  34 -0.000000 8.863119 -0.000000 -1.334205 -2.788986 0.153152
  35 -0.000000 12.409957 -0.000002 0.638312 2.770293 -0.493521
  36 0.000001 14.203231 0.000004 -1.822892 0.069199 2.702511
  37 0.000007 13.479353 0.000008 0.546798 -0.979896 -0.774779
  38 0.000002 4.569860 0.000002 0.020017 0.558230 0.213714
  39 0.000003 3.204157 0.000001 -0.378962 0.514880 -0.045415
  40 0.000007 13.479353 0.000008 -0.720470 -2.223594 1.074318
  41 0.000004 4.140871 -0.000000 0.044976 0.478151 0.162889
  42 0.000003 2.523542 0.000001 -0.482593 0.567933 -0.125533
  43 0.000007 13.479353 0.000008 -0.125748 -0.262055 -0.516297
  44 0.000002 4.375403 -0.000001 -0.152389 0.163556 -0.018032
  45 0.000001 3.915523 -0.000002 0.034609 0.221995 0.090612
  46 0.000000 36.517490 -0.000001 -3.026771 -0.127012 1.281534
  47 -1.586122 3.425518 -5.597548 -2.216501 -0.219758 -2.125321
  48 -0.000006 12.976501 -0.000001 -0.600972 -0.802534 2.198596
  49 0.000010 13.209562 -0.000006 -1.162764 0.344161 -1.297039
  50 -0.000013 11.298656 -0.000005 -0.231959 -0.019694 0.134598
  51 -2.946797 2.260436 -0.018081 0.011507 -2.123511 1.384720
  52 4.067899 3.234555 0.024952 -0.067950 0.994673 -1.735222
  53 -2.063248 7.566360 0.108920 -0.267413 2.127569 -0.151791
  54 0.461712 7.151394 -0.276539 0.069087 0.001833 -0.212089
  55 3.176719 6.701447 -1.137159 0.050165 -2.901031 -0.435797
  56 1.420169 7.446717 0.199370 0.164841 0.355969 -0.564896
  57 0.000002 9.377632 -0.000002 0.161864 0.999127 -0.067330
  58 -0.000001 8.008636 -0.000000 0.186368 0.685411 0.341615
  59 -0.000001 9.061670 -0.000002 0.195790 0.316542 0.352056
  60 -3.069576 3.425518 4.969538 2.643210 -0.460702 -0.940567
  61 0.000007 12.976515 0.000005 2.185498 -2.215604 0.118173
  62 0.000009 13.209572 -0.000002 1.482653 2.939100 0.122179
  63 0.000008 11.298650 -0.000009 0.438631 -2.864407 0.147603
  64 0.000002 2.260437 2.946853 -1.394515 -3.141592 -0.000003
  65 0.000000 3.234556 -4.067974 -1.214438 0.096656 2.398573
  66 1.922178 7.545480 0.587589 -0.029802 -2.350319 -0.087688
  67 -0.495217 7.170403 -0.268732 -0.112870 -0.196841 0.178805
  68 -3.002174 6.703322 -1.623585 0.285384 2.757008 0.457156
  time 5
  0 9.492172 -33.982376 16.561424 0.000000 -0.000000 -3.141593
  1 19.305882 23.890999 9.863289 0.000000 -0.000000 0.000000
  2 -5.665754 0.012664 58.581337 1.570796 -0.000000 -3.141592
  3 13.724137 -75.837761 -14.462728 -1.570796 -1.570796 0.000000
  4 23.024637 -74.520515 14.170090 -1.570796 -1.570796 0.000000
  5 -44.456379 -64.639351 20.839130 -1.570796 1.570796 0.000000
  6 -44.456367 -68.032478 -14.458026 -1.570796 1.570796 0.000000
  7 15.330741 -65.326408 15.954190 -1.570796 -1.570796 0.000000
  8 15.330753 -81.013657 -16.530239 -1.570796 -1.570796 0.000000
  9 -0.000000 -94.962242 0.000003 0.000000 0.000000 0.000000
  10 0.000000 36.517490 -0.000001 0.045784 -1.744659 1.163980
  11 -0.000000 4.413177 -0.000000 -0.474911 -1.458773 0.532009
  12 -0.000000 5.822268 0.000001 0.077839 -0.077853 0.213098
  13 0.000001 8.863121 0.000001 -0.032068 -0.401317 -0.398570
  14 0.000000 3.644233 0.000001 0.050552 -0.140195 0.103365
  15 -0.000001 5.401831 -0.000002 -1.090953 -1.983207 1.071900
  16 0.000000 5.405350 -0.000000 0.939290 1.207611 0.855293
  17 0.000000 6.972889 0.000001 -0.192253 -1.174336 -0.002866
  18 0.000000 5.405350 -0.000000 -1.416207 0.314783 1.536892
  19 -0.000001 2.147788 -0.000000 0.143777 0.537897 -0.597324
  20 -1.935491 3.640029 6.017782 0.908030 -1.379136 1.973603
  21 3.241713 3.649998 5.054545 0.098482 1.095736 -2.746140
  22 0.000001 8.863121 0.000001 -1.493133 -0.019033 0.230466
  23 -0.000001 12.911962 -0.000001 0.740300 -2.562420 0.200445
  24 -0.000001 14.211071 0.000002 -1.159317 -0.374300 -2.726114
  25 0.000005 13.479356 0.000005 0.050484 0.927954 0.161425
  26 0.000002 4.579374 0.000000 0.020017 -0.558231 -0.213714
  27 -0.000000 3.210825 0.000001 -0.378962 -0.514880 0.045415
  28 0.000005 13.479356 0.000005 -0.796391 2.019606 -1.255054
  29 0.000002 4.149488 -0.000001 0.044976 -0.478151 -0.162889
  30 -0.000000 2.528796 -0.000001 -0.482592 -0.567933 0.125532
  31 0.000005 13.479356 0.000005 -0.257595 0.142346 0.407349
  32 -0.000000 4.384508 0.000001 -0.152389 -0.163555 0.018032
  33 0.000002 3.923669 0.000002 0.034608 -0.221995 -0.090613
  34 0.000001 8.863121 0.000001 -1.295141 -2.836412 0.144518
  35 -0.000001 12.409959 -0.000003 0.683653 2.913978 -0.556852
  36 -0.000001 14.203229 0.000006 -1.869132 0.047686 2.708596
  37 0.000006 13.479342 0.000005 0.408161 -0.950103 -0.630967
  38 0.000003 4.579368 0.000002 0.020017 0.558230 0.213714
  39 0.000003 3.210824 0.000001 -0.378962 0.514880 -0.045416
  40 0.000006 13.479342 0.000005 -0.807817 -2.152377 1.175008
  41 0.000004 4.149488 0.000001 0.044976 0.478151 0.162889
  42 0.000002 2.528794 0.000002 -0.482593 0.567932 -0.125533
  43 0.000006 13.479342 0.000005 -0.182071 -0.215819 -0.486161
  44 0.000003 4.384508 -0.000002 -0.152389 0.163556 -0.018032
  45 0.000003 3.923671 -0.000002 0.034608 0.221995 0.090612
  46 0.000000 36.517490 -0.000001 -3.028163 -0.127457 1.266650
  47 -1.586124 3.425518 -5.597548 -2.034209 -0.181566 -2.201926
  48 -0.000007 12.976507 0.000001 -0.483440 -0.716034 2.318050
  49 0.000010 13.209555 -0.000008 -1.221122 0.244270 -1.338325
  50 -0.000011 11.298656 -0.000001 -0.229564 -0.026291 0.134510
  51 -2.946796 2.260433 -0.018080 0.011508 -2.123511 1.384719
  52 4.067899 3.234555 0.024956 0.014360 1.018769 -1.594109
  53 -2.039367 7.558492 0.189759 -0.156428 2.164838 -0.037748
  54 0.467490 7.159019 -0.276504 0.005060 0.032373 -0.192300
  55 3.147062 6.701686 -1.218049 0.121677 -2.886028 -0.432478
  56 1.420169 7.446717 0.199370 0.158990 0.355811 -0.561350
  57 0.000003 9.377630 -0.000004 0.158542 0.999619 -0.067153
  58 -0.000000 8.008636 -0.000000 0.177159 0.687752 0.335709
  59 0.000001 9.061671 -0.000002 0.195790 0.316542 0.352055
  60 -3.069577 3.425517 4.969539 2.529166 -0.424527 -1.135892
  61 0.000006 12.976505 0.000001 2.274493 -2.213414 0.138445
  62 0.000007 13.209557 0.000000 1.530648 2.933948 0.121553
  63 0.000009 11.298643 -0.000009 0.434040 -2.863377 0.148739
  64 0.000000 2.260435 2.946850 -1.394515 -3.141593 -0.000003
  65 -0.000000 3.234554 -4.067972 -1.176790 0.101569 2.375051
  66 1.922179 7.545475 0.587590 -0.029802 -2.350319 -0.087688
  67 -0.495215 7.170400 -0.268732 -0.112870 -0.196841 0.178805
  68 -3.002169 6.703321 -1.623585 0.285385 2.757008 0.457156
  time 6
  0 9.090374 -33.045959 9.100843 0.000000 -0.000000 -3.141593
  1 20.212498 23.569719 5.438649 0.000000 -0.000000 0.000000
  2 -5.665754 0.012664 58.581337 1.570796 -0.000000 -3.141592
  3 19.521515 -76.522087 -14.462725 -1.570796 -1.570796 0.000000
  4 23.656525 -75.048515 14.170090 -1.570796 -1.570796 0.000000
  5 -44.456379 -69.489304 20.839130 -1.570796 1.570796 0.000000
  6 -44.456367 -75.352638 -14.458025 -1.570796 1.570796 0.000000
  7 15.330741 -70.931847 15.954190 -1.570796 -1.570796 0.000000
  8 15.330753 -89.980850 -16.530239 -1.570796 -1.570796 0.000000
  9 -0.000000 -110.080490 0.000004 0.000000 0.000000 0.000000
  10 0.000000 36.517490 -0.000001 0.024002 -1.747006 1.195030
  11 -0.000000 4.413176 -0.000000 -0.199249 -1.458091 0.235680
  12 0.000000 5.822268 -0.000000 0.071103 -0.067342 0.162739
  13 0.000000 8.863121 0.000001 -0.032068 -0.401317 -0.398570
  14 0.000000 3.644234 0.000000 0.053596 -0.123152 0.038304
  15 -0.000000 5.401832 0.000000 -0.652329 -2.083223 0.558588
  16 0.000001 5.405349 0.000000 0.939290 1.207611 0.855293
  17 -0.000001 6.972890 0.000000 -0.192254 -1.174336 -0.002866
  18 0.000001 5.405349 0.000000 -1.416207 0.314783 1.536892
  19 0.000000 2.147789 -0.000000 0.137280 0.491518 -0.745715
  20 -1.935490 3.640032 6.017783 0.908030 -1.379136 1.973602
  21 3.241711 3.649998 5.054545 0.098482 1.095736 -2.746140
  22 0.000000 8.863121 0.000001 -1.395773 0.087162 0.223815
  23 0.000000 12.911962 0.000002 0.112390 -2.571462 0.865212
  24 0.000002 14.211068 0.000003 -1.435984 -0.251590 -2.690009
  25 0.000005 13.479352 -0.000008 -0.005185 0.900147 0.110496
  26 0.000001 4.587068 0.000001 0.020017 -0.558231 -0.213714
  27 0.000001 3.216219 -0.000000 -0.378962 -0.514880 0.045415
  28 0.000005 13.479352 -0.000008 -0.876891 1.957199 -1.351039
  29 0.000003 4.156460 0.000001 0.044976 -0.478151 -0.162889
  30 0.000000 2.533046 0.000001 -0.482592 -0.567933 0.125532
  31 0.000005 13.479352 -0.000008 -0.292370 0.135490 0.386759
  32 -0.000001 4.391875 -0.000001 -0.152389 -0.163555 0.018032
  33 0.000000 3.930264 0.000002 0.034608 -0.221995 -0.090613
  34 0.000000 8.863121 0.000001 -1.176417 -2.988596 0.130155
  35 -0.000000 12.409956 0.000003 0.516872 2.882352 -0.644215
  36 0.000006 14.203225 0.000010 0.914406 -3.038687 -0.355184
  37 0.000005 13.479347 0.000000 0.274278 -0.900469 -0.482420
  38 0.000003 4.587067 -0.000001 0.020017 0.558231 0.213713
  39 0.000001 3.216217 -0.000001 -0.378962 0.514880 -0.045415
  40 0.000005 13.479347 0.000000 -0.938772 -2.077761 1.326325
  41 0.000003 4.156459 0.000001 0.044976 0.478151 0.162889
  42 0.000000 2.533044 0.000000 -0.482592 0.567932 -0.125532
  43 0.000005 13.479347 0.000000 -0.226624 -0.158093 -0.457683
  44 0.000002 4.391875 -0.000002 -0.152389 0.163556 -0.018032
  45 0.000002 3.930265 -0.000002 0.034608 0.221995 0.090612
  46 0.000000 36.517490 -0.000001 -3.028386 -0.127558 1.255421
  47 -1.586123 3.425517 -5.597548 -1.102977 0.308259 -2.248105
  48 0.000000 12.976500 -0.000006 -0.353429 -0.637727 2.435022
  49 0.000013 13.209560 -0.000014 -1.278264 0.147881 -1.370421
  50 -0.000005 11.298656 -0.000005 -0.220680 -0.050728 0.134046
  51 -2.946795 2.260436 -0.018080 0.011508 -2.123510 1.384716
  52 4.067899 3.234552 0.024958 0.105434 1.037181 -1.444519
  53 -1.986827 7.541187 0.367621 0.041592 2.268028 0.167203
  54 0.480202 7.175792 -0.276415 -0.135226 0.104179 -0.155501
  55 3.081808 6.702205 -1.395998 0.281176 -2.852186 -0.429102
  56 1.420168 7.446716 0.199370 0.137307 0.355398 -0.548206
  57 0.000002 9.377630 -0.000004 0.135845 1.002979 -0.066028
  58 -0.000001 8.008636 -0.000001 0.142728 0.696054 0.313486
  59 0.000001 9.061674 -0.000004 0.195790 0.316542 0.352056
  60 -3.069577 3.425516 4.969539 1.527418 -0.092093 -1.301261
  61 0.000003 12.976507 0.000001 2.331154 -2.211642 0.151615
  62 -0.000003 13.209562 -0.000007 1.560866 2.930580 0.121250
  63 0.000008 11.298644 -0.000013 0.533884 -2.363190 0.017477
  64 -0.000003 2.260436 2.946850 -1.394515 3.141591 -0.000002
  65 0.000001 3.234555 -4.067978 -1.316892 0.008635 2.452402
  66 1.922178 7.545476 0.587584 -0.029801 -2.350319 -0.087688
  67 -0.495217 7.170399 -0.268736 -0.112871 -0.196841 0.178805
  68 -3.002168 6.703318 -1.623588 0.285385 2.757009 0.457156
  time 7
  0 8.427951 -31.502146 -3.199028 0.000000 -0.000000 -3.141593
  1 22.124157 22.892282 -3.891014 0.000000 -0.000000 0.000000
  2 -5.665754 0.012664 58.581337 1.570796 -0.000000 -3.141592
  3 26.607203 -77.358482 -14.462722 -1.570796 -1.570796 0.000000
  4 25.357765 -76.470070 14.170090 -1.570796 -1.570796 0.000000
  5 -44.456379 -76.257919 20.839130 -1.570796 1.570796 0.000000
  6 -44.456367 -85.568687 -14.458025 -1.570796 1.570796 0.000000
  7 15.330741 -74.896660 15.954190 -1.570796 -1.570796 0.000000
  8 15.330753 -96.302155 -16.530241 -1.570796 -1.570796 0.000000
  9 -0.000000 -111.177864 0.000004 0.000000 0.000000 0.000000
  10 0.000000 36.517490 -0.000001 0.006913 -1.748991 1.215678
  11 0.000000 4.413176 0.000000 0.052068 -1.448740 -0.036287
  12 0.000000 5.822268 -0.000001 0.057349 -0.052457 0.115699
  13 0.000001 8.863122 0.000001 -0.032068 -0.401317 -0.398570
  14 -0.000000 3.644234 -0.000000 0.056325 -0.084947 -0.105187
  15 0.000001 5.401833 -0.000000 -0.371776 -2.294175 0.183032
  16 0.000000 5.405350 -0.000001 0.939289 1.207611 0.855293
  17 -0.000001 6.972890 0.000000 -0.192254 -1.174336 -0.002866
  18 0.000000 5.405350 -0.000001 -1.416207 0.314783 1.536892
  19 0.000000 2.147789 0.000000 0.139879 0.434594 -0.921682
  20 -1.935491 3.640033 6.017785 0.908030 -1.379136 1.973603
  21 3.241712 3.649999 5.054548 0.098482 1.095736 -2.746140
  22 0.000001 8.863122 0.000001 -1.402553 0.079215 0.223896
  23 0.000000 12.911963 0.000000 0.398361 -2.628731 0.304219
  24 -0.000002 14.211062 0.000003 -1.165384 -0.371803 -2.724954
  25 -0.000009 13.479365 -0.000005 -0.038713 0.865777 0.079083
  26 -0.000001 4.592221 -0.000000 0.020017 -0.558231 -0.213714
  27 0.000001 3.219831 -0.000001 -0.378963 -0.514880 0.045414
  28 -0.000009 13.479365 -0.000005 -1.026810 1.898628 -1.520715
  29 0.000002 4.161125 -0.000002 0.044977 -0.478151 -0.162889
  30 0.000000 2.535887 -0.000003 -0.482593 -0.567933 0.125532
  31 -0.000009 13.479365 -0.000005 -0.314606 0.125776 0.365683
  32 0.000001 4.396806 0.000004 -0.152389 -0.163555 0.018032
  33 -0.000000 3.934674 0.000004 0.034608 -0.221995 -0.090613
  34 0.000001 8.863122 0.000001 -1.183332 -2.978759 0.130417
  35 0.000001 12.409955 -0.000001 1.180232 2.970232 -0.474986
  36 0.000005 14.203231 0.000008 -1.748625 0.104314 2.694816
  37 0.000003 13.479351 0.000010 0.154659 -0.828798 -0.336746
  38 0.000001 4.592213 0.000003 0.020017 0.558230 0.213715
  39 0.000001 3.219829 0.000002 -0.378962 0.514880 -0.045415
  40 0.000003 13.479351 0.000010 -1.141013 -2.008151 1.556787
  41 0.000004 4.161127 0.000003 0.044976 0.478151 0.162889
  42 0.000000 2.535889 0.000003 -0.482591 0.567932 -0.125531
  43 0.000003 13.479351 0.000010 -0.257022 -0.088535 -0.430638
  44 0.000003 4.396805 -0.000001 -0.152389 0.163556 -0.018032
  45 0.000003 3.934673 -0.000001 0.034608 0.221995 0.090612
  46 0.000000 36.517490 -0.000001 -3.026742 -0.127102 1.238559
  47 -1.586122 3.425517 -5.597548 -1.307681 0.339122 -2.346575
  48 -0.000001 12.976505 -0.000003 -0.428745 -0.681023 2.369386
  49 0.000009 13.209565 -0.000010 -1.245783 0.201971 -1.353304
  50 -0.000006 11.298657 -0.000000 -0.196577 -0.116566 0.131702
  51 -2.946794 2.260436 -0.018080 0.011508 -2.123510 1.384716
  52 4.067901 3.234550 0.024956 0.180511 1.048012 -1.324638
  53 -1.934290 7.523882 0.545483 0.185501 2.390506 0.318338
  54 0.492910 7.192571 -0.276326 -0.274246 0.180393 -0.128868
  55 3.016549 6.702731 -1.573938 0.442277 -2.818260 -0.431400
  56 1.420168 7.446718 0.199370 0.078831 0.355617 -0.512749
  57 0.000003 9.377631 -0.000002 0.050515 1.015561 -0.063067
  58 0.000001 8.008636 0.000000 0.047644 0.715408 0.251099
  59 -0.000001 9.061669 -0.000002 0.195790 0.316542 0.352055
  60 -3.069577 3.425515 4.969538 1.658677 -0.567394 -1.524807
  61 0.000001 12.976503 -0.000000 1.841236 -2.219043 0.055294
  62 0.000001 13.209566 -0.000002 1.292627 2.951518 0.124959
  63 0.000006 11.298639 -0.000014 0.538097 -2.351040 0.012587
  64 -0.000002 2.260438 2.946851 -1.394516 3.141591 -0.000002
  65 0.000001 3.234554 -4.067976 -1.465480 -0.072955 2.543050
  66 1.922184 7.545477 0.587588 -0.029801 -2.350319 -0.087688
  67 -0.495215 7.170402 -0.268732 -0.112870 -0.196841 0.178805
  68 -3.002170 6.703320 -1.623583 0.285385 2.757009 0.457156
  time 8
  0 7.439745 -29.199074 -21.548023 0.000000 -0.000000 -3.141593
  1 25.600376 21.660410 -20.856342 0.000000 -0.000000 0.000000
  2 -5.665754 0.012664 58.581337 1.570796 -0.000000 -3.141592
  3 34.981194 -78.346962 -14.462720 -1.570796 -1.570796 0.000000
  4 28.944948 -79.467522 14.170091 -1.570796 -1.570796 0.000000
  5 -44.456379 -85.264984 20.839130 -1.570796 1.570796 0.000000
  6 -44.456367 -99.163269 -14.458026 -1.570796 1.570796 0.000000
  7 15.330741 -76.400558 15.954190 -1.570796 -1.570796 0.000000
  8 15.330753 -98.694427 -16.530241 -1.570796 -1.570796 0.000000
  9 -0.000000 -112.275238 0.000004 0.000000 0.000000 0.000000
  10 0.000000 36.517490 -0.000001 0.000002 -1.749825 1.223171
  11 0.000000 4.413177 -0.000000 0.253832 -1.432510 -0.258680
  12 0.000001 5.822269 0.000000 0.034471 -0.032696 0.079581
  13 -0.000001 8.863121 -0.000003 -0.032069 -0.401317 -0.398569
  14 0.000001 3.644236 -0.000000 0.046338 -0.012701 -0.378084
  15 0.000001 5.401831 0.000000 -0.239126 -2.573511 -0.066936
  16 0.000001 5.405348 0.000000 0.939290 1.207611 0.855293
  17 0.000000 6.972888 0.000001 -0.192254 -1.174336 -0.002866
  18 0.000001 5.405348 0.000000 -1.416207 0.314783 1.536892
  19 0.000000 2.147789 -0.000000 0.156077 0.370396 -1.120346
  20 -1.935490 3.640029 6.017783 0.908029 -1.379136 1.973604
  21 3.241714 3.649998 5.054548 0.098481 1.095736 -2.746140
  22 -0.000001 8.863121 -0.000003 -1.616198 -0.165952 0.253484
  23 -0.000001 12.911963 0.000002 0.402526 -2.597048 -0.339038
  24 -0.000002 14.211067 0.000006 -1.411410 -0.263091 -2.691771
  25 -0.000004 13.479359 -0.000005 -0.049325 0.825701 0.067511
  26 0.000001 4.594098 0.000001 0.020017 -0.558231 -0.213714
  27 0.000000 3.221149 0.000001 -0.378962 -0.514880 0.045415
  28 -0.000004 13.479359 -0.000005 1.859457 1.285922 1.341114
  29 0.000001 4.162829 -0.000000 0.044976 -0.478151 -0.162889
  30 -0.000002 2.536925 -0.000001 -0.482592 -0.567933 0.125532
  31 -0.000004 13.479359 -0.000005 -0.322227 0.113414 0.344167
  32 0.000001 4.398605 0.000002 -0.152389 -0.163555 0.018032
  33 0.000001 3.936286 0.000003 0.034608 -0.221995 -0.090613
  34 -0.000001 8.863121 -0.000003 -1.422145 -2.666073 0.179714
  35 -0.000001 12.409955 0.000002 1.372257 2.972667 -0.309624
  36 0.000005 14.203228 0.000010 -1.800669 0.079642 2.699937
  37 0.000004 13.479347 0.000007 0.056351 -0.734412 -0.198707
  38 0.000002 4.594092 -0.000001 0.020017 0.558231 0.213713
  39 0.000002 3.221146 0.000002 -0.378962 0.514880 -0.045416
  40 0.000004 13.479347 0.000007 1.697635 -1.180291 -1.244942
  41 0.000003 4.162829 0.000004 0.044976 0.478151 0.162889
  42 -0.000001 2.536925 0.000004 -0.482591 0.567933 -0.125531
  43 0.000004 13.479347 0.000007 -0.270959 -0.006914 -0.404015
  44 0.000002 4.398604 -0.000002 -0.152389 0.163556 -0.018032
  45 0.000002 3.936285 0.000000 0.034608 0.221995 0.090612
  46 0.000000 36.517490 -0.000001 -3.022549 -0.125801 1.206755
  47 -1.586125 3.425519 -5.597547 -1.732234 0.352884 -2.534690
  48 -0.000001 12.976503 -0.000001 -0.587309 -0.791579 2.213633
  49 0.000006 13.209564 -0.000009 -1.169993 0.331491 -1.302767
  50 -0.000008 11.298658 -0.000003 -0.141489 -0.261957 0.120577
  51 -2.946795 2.260434 -0.018081 0.011508 -2.123511 1.384717
  52 4.067902 3.234555 0.024958 0.212712 1.054453 -1.274410
  53 -1.910407 7.516024 0.626329 0.237085 2.449934 0.373310
  54 0.498689 7.200202 -0.276283 -0.336929 0.215805 -0.120325
  55 2.986890 6.702974 -1.654821 0.515556 -2.803169 -0.434332
  56 1.420169 7.446717 0.199370 -0.050480 0.362993 -0.434619
  57 0.000002 9.377634 -0.000001 -0.188148 1.049611 -0.065548
  58 0.000001 8.008638 0.000001 -0.171991 0.741275 0.103041
  59 0.000001 9.061672 -0.000001 0.195790 0.316542 0.352055
  60 -3.069578 3.425517 4.969538 -0.880564 -2.134629 0.788779
  61 0.000000 12.976503 -0.000002 0.964393 -2.205097 -0.024741
  62 0.000001 13.209560 0.000009 0.748931 2.936698 0.112090
  63 0.000001 11.298647 -0.000008 0.569838 -2.270930 -0.023553
  64 -0.000001 2.260438 2.946851 -1.394515 3.141592 -0.000002
  65 -0.000001 3.234555 -4.067978 -1.620621 -0.139304 2.644614
  66 1.922184 7.545477 0.587585 -0.029801 -2.350319 -0.087688
  67 -0.495211 7.170397 -0.268737 -0.112870 -0.196841 0.178805
  68 -3.002166 6.703321 -1.623589 0.285385 2.757009 0.457156
end
