version 1
nodes
0 "Bone.016" -1
1 "Bone" 0
2 "Bone.001" 1
3 "Bone.002" 2
4 "Bone.003" 3
5 "Bone.004" 4
6 "Bone.006" 5
7 "Bone.009" 5
8 "Leg.L.001" 2
9 "Leg.L.002" 8
10 "Leg.L.003" 9
11 "Leg.L.004" 10
12 "Leg.L.006" 11
13 "Leg.R.001" 2
14 "Leg.R.002" 13
15 "Leg.R.003" 14
16 "Leg.R.004" 15
17 "Leg.R.006" 16
18 "Bone.011" 0
19 "Bone.012" 18
20 "BLeg.L.002" 19
21 "BLeg.L.004" 20
22 "BLeg.L.005" 21
23 "BLeg.L.007" 22
24 "Bone.013" 19
25 "Bone.014" 24
26 "Bone.015" 25
27 "BLeg.R.002" 19
28 "BLeg.R.004" 27
29 "BLeg.R.005" 28
30 "BLeg.R.007" 29
31 "BLeg_ik.L.001" -1
32 "BLeg_ik.R.001" -1
33 "LegPull.L.001" -1
34 "LegPull.R.001" -1
35 "Leg_ik.L.001" -1
36 "Leg_ik.R.001" -1
37 "BLeg_pull.L.001" -1
38 "BLeg_pull.R.001" -1
end
skeleton
  time 0
  0 0.298907 -0.398544 -23.953407 1.570796 -0.000000 0.000000
  1 0.000000 24.704325 0.000001 0.000000 0.000001 -1.732170
  2 0.000001 5.484107 -0.000001 0.041062 -1.570796 0.000000
  3 -0.000000 5.912185 -0.000001 0.100979 -0.000000 -0.000000
  4 -0.000000 4.271068 0.000000 -0.221163 -0.000000 0.000000
  5 0.000000 4.620899 0.000001 0.109182 -0.000000 -0.000000
  6 0.000000 4.309650 2.031434 -0.431081 -0.124938 0.057251
  7 -0.000001 3.347470 -1.402548 -0.341162 0.030898 -0.012020
  8 -0.000000 5.912185 -0.000001 0.459781 -0.239096 -2.038707
  9 0.000000 2.871584 -0.000000 -1.746849 0.003076 0.534853
  10 0.000001 5.892740 0.000000 0.065316 0.248973 0.243515
  11 0.000001 10.675791 -0.000000 0.321404 -1.394161 0.380648
  12 -0.405959 10.292094 -0.097792 1.169533 0.008094 0.229579
  13 -0.030741 5.877326 0.001372 2.672136 -0.316577 -1.099175
  14 0.000001 2.871584 0.000001 1.743573 -0.649880 0.231080
  15 -0.000001 5.892736 0.000002 0.025546 -0.132182 -0.209166
  16 -0.000001 10.675783 -0.000001 -0.197516 1.451444 0.642751
  17 -0.333944 10.013581 0.308053 -0.896400 -0.012452 0.220758
  18 0.000000 24.704325 0.000001 -1.582676 1.667976 0.045887
  19 0.000000 6.351502 -0.000001 0.206576 0.001152 -0.097173
  20 -1.857083 5.496417 1.049208 -1.268806 -0.116436 1.687025
  21 0.000005 13.772744 -0.000006 -0.653489 1.450686 -0.997219
  22 0.000003 7.246481 0.000004 -0.427943 0.180061 0.046669
  23 0.045486 7.648384 -0.051083 -1.455091 0.094320 3.016419
  24 0.000001 5.339063 -0.000000 -0.007790 0.000327 0.041939
  25 0.000000 5.500854 0.000000 -0.620501 0.017350 -0.017669
  26 0.000001 6.958814 0.000001 -0.405026 -0.004633 -0.005348
  27 1.885075 5.428185 1.059438 -1.812597 0.110603 1.662567
  28 0.000002 13.698040 0.000001 -0.331885 -1.359095 -0.377513
  29 -0.000000 7.246484 0.000000 0.825840 -0.093028 -0.025161
  30 0.034066 7.649779 0.049413 1.722556 -0.003412 2.286515
  31 -19.093946 -11.119112 -22.809910 -0.140627 -0.143506 1.576131
  32 -16.653879 7.137786 -22.764248 -0.109927 2.717126 1.515590
  33 43.263412 -4.735948 4.772236 0.000000 1.337036 -1.570796
  34 46.446648 7.803223 0.527271 -0.000000 1.799565 -1.570796
  35 7.645240 -7.907905 -21.894600 2.895991 -0.248464 -1.509232
  36 15.207771 7.106244 -21.830297 0.516873 -0.218906 1.447980
  37 -54.174271 -12.912366 -15.762349 -0.000000 0.021977 1.570796
  38 -29.927073 4.987432 -15.762349 -0.000000 3.088139 1.570796
  time 1
  0 0.298907 -0.398544 -23.953407 1.570796 -0.000000 0.000000
  1 0.000000 24.704325 0.000001 0.000000 0.000001 -1.822538
  2 0.000000 5.484108 -0.000000 1.450462 -1.593202 -1.409398
  3 -0.000000 5.912185 -0.000000 0.100979 -0.000000 0.000000
  4 0.000000 4.271068 -0.000000 -0.311640 0.003279 -0.000177
  5 -0.000000 4.620899 0.000000 0.207107 0.013186 -0.051623
  6 0.000001 4.309651 2.031434 -0.250264 -0.127682 0.034914
  7 -0.000000 3.347471 -1.402548 -0.341162 0.030898 -0.012020
  8 -0.000000 5.912185 -0.000000 0.459781 -0.239096 -2.038707
  9 -0.000001 2.871584 -0.000000 -1.873721 0.911318 0.161375
  10 -0.000002 5.892740 0.000001 -0.022026 0.120961 -0.103513
  11 0.000001 10.675794 0.000001 0.273799 -1.390069 0.319427
  12 -0.405961 10.292094 -0.097794 0.756250 -0.037432 -0.043834
  13 -0.030741 5.877327 0.001371 2.672136 -0.316577 -1.099175
  14 0.000001 2.871584 0.000000 1.664149 -0.127863 0.417881
  15 0.000001 5.892735 0.000000 0.157276 -0.164696 -0.298463
  16 -0.000002 10.675781 -0.000001 -0.221025 1.420314 0.402075
  17 -0.333945 10.013589 0.308048 -1.304583 -0.004414 0.224845
  18 0.000000 24.704325 0.000001 -1.582676 1.667976 0.045887
  19 0.000000 6.351502 -0.000001 0.206576 0.001152 -0.097173
  20 -1.857083 5.496417 1.049208 -1.425576 0.333371 1.686313
  21 0.000002 13.772743 -0.000009 -0.215593 1.313074 -1.217320
  22 0.000003 7.246483 0.000000 -0.889704 0.231065 0.094929
  23 0.045472 7.648391 -0.051078 1.428896 3.112938 -0.124243
  24 0.000001 5.339063 -0.000000 -0.047283 0.001984 0.041893
  25 0.000001 5.500855 -0.000001 -0.594166 0.016705 -0.017221
  26 0.000000 6.958815 0.000000 -0.150953 0.000000 -0.029833
  27 1.885075 5.428185 1.059438 -1.694773 0.460554 1.408741
  28 0.000002 13.698041 0.000001 -0.192587 -1.306411 -1.509530
  29 -0.000001 7.246487 0.000002 1.552085 -0.111793 -0.039200
  30 0.034064 7.649776 0.049416 -1.061667 2.826086 -0.457034
  31 -13.147034 -5.876251 -22.924753 0.124255 -0.116605 1.510118
  32 -12.829425 2.413227 -18.849636 -0.739235 2.486168 1.180571
  33 43.263412 -4.735948 4.772236 0.000000 1.337036 -1.570796
  34 46.446648 7.803223 0.527271 -0.000000 1.799565 -1.570796
  35 21.095074 -5.944867 -22.016539 2.420068 -0.471451 -1.396315
  36 -2.188411 4.911542 -20.531496 0.098158 -0.249366 1.546499
  37 -54.174271 -4.884541 -15.762349 -0.000000 0.021977 1.570796
  38 -29.927073 4.987432 -15.762349 -0.000000 3.088139 1.570796
  time 2
  0 0.298907 -0.398544 -23.576900 1.570796 -0.000000 0.000000
  1 0.000000 24.704327 0.000001 0.000000 0.000001 -1.805300
  2 0.000000 5.484109 -0.000001 1.450452 -1.583803 -1.409381
  3 0.000001 5.912185 -0.000001 0.100979 -0.000000 -0.000000
  4 0.000000 4.271068 0.000001 -0.210315 0.001645 -0.000005
  5 0.000000 4.620898 0.000001 0.195347 0.011969 -0.044871
  6 0.000000 4.309649 2.031433 -0.300164 -0.127064 0.040980
  7 -0.000001 3.347470 -1.402548 -0.341162 0.030899 -0.012020
  8 0.000001 5.912185 -0.000001 0.459781 -0.239096 -2.038707
  9 0.000000 2.871585 0.000000 -1.819610 0.784210 0.243667
  10 0.000001 5.892737 0.000000 -0.092142 0.130078 -0.246540
  11 0.000002 10.675781 0.000001 0.521482 -1.317348 0.367417
  12 -0.405961 10.292089 -0.097790 0.852429 -0.019859 -0.003916
  13 -0.030739 5.877327 0.001372 2.672136 -0.316577 -1.099175
  14 0.000000 2.871584 0.000000 1.670016 -0.220874 0.389990
  15 0.000000 5.892736 0.000001 0.222498 -0.113943 -0.648947
  16 -0.000001 10.675783 -0.000000 -0.577725 1.405756 0.766152
  17 -0.333944 10.013580 0.308048 -0.777730 -0.014412 0.218992
  18 0.000000 24.704327 0.000001 -1.582676 1.667976 0.045887
  19 0.000000 6.351502 0.000001 0.206507 0.003050 -0.130038
  20 -1.857083 5.496419 1.049206 -1.457476 0.137184 1.704197
  21 0.000003 13.772738 -0.000009 -0.397385 1.344681 -1.178375
  22 0.000002 7.246483 0.000001 -0.801252 0.223894 0.088059
  23 0.045487 7.648381 -0.051088 1.507193 -3.114988 -0.078997
  24 0.000000 5.339063 -0.000000 -0.074438 0.003121 0.041824
  25 -0.000000 5.500854 0.000000 -0.527216 0.015013 -0.016159
  26 -0.000000 6.958815 0.000000 -0.331798 0.000000 -0.029833
  27 1.885075 5.428185 1.059436 -1.693447 0.619446 1.473475
  28 0.000001 13.698041 0.000001 -0.185395 -1.326408 -0.968559
  29 0.000001 7.246484 0.000003 1.222198 -0.167907 -0.029792
  30 0.034064 7.649770 0.049415 -1.043264 2.817244 -0.451241
  31 -16.334105 -5.055468 -23.010166 0.047551 -0.072747 1.458474
  32 -5.768032 2.792394 -21.034307 -0.761944 2.493741 1.166797
  33 43.263412 -4.735948 4.772236 0.000000 1.337036 -1.570796
  34 46.446648 7.803223 0.527271 -0.000000 1.799565 -1.570796
  35 17.713223 -5.888582 -21.754923 2.534678 -0.446250 -1.433682
  36 0.922311 4.911542 -18.103951 0.637129 -0.202864 1.422777
  37 -54.174271 -4.884541 -15.762349 -0.000000 0.021977 1.570796
  38 -29.927073 4.987432 -15.762349 -0.000000 3.088139 1.570796
  time 3
  0 0.298907 -0.398544 -23.200392 1.570796 -0.000000 0.000000
  1 0.000000 24.704325 0.000001 0.000000 0.000001 -1.773283
  2 -0.000000 5.484109 -0.000000 1.450550 -1.563118 -1.409492
  3 0.000000 5.912186 -0.000000 0.100979 0.000000 -0.000000
  4 0.000000 4.271069 -0.000001 -0.077003 -0.000000 -0.000000
  5 -0.000000 4.620899 0.000001 0.167259 0.009386 -0.028706
  6 0.000001 4.309649 2.031432 -0.392911 -0.125122 0.052141
  7 -0.000000 3.347470 -1.402547 -0.341162 0.030898 -0.012020
  8 0.000000 5.912186 -0.000000 0.459781 -0.239096 -2.038707
  9 -0.000000 2.871584 0.000000 -1.757796 0.489370 0.375696
  10 -0.000000 5.892739 0.000001 -0.106218 0.127861 -0.352715
  11 -0.000001 10.675784 0.000000 0.565097 -1.353780 0.429347
  12 -0.405961 10.292087 -0.097787 1.069620 0.005020 0.090254
  13 -0.030740 5.877328 0.001371 2.672136 -0.316577 -1.099175
  14 0.000001 2.871585 -0.000000 1.694131 -0.428142 0.321949
  15 -0.000002 5.892738 0.000002 0.235030 -0.090018 -0.530402
  16 -0.000001 10.675782 -0.000001 -0.652085 1.364921 0.734842
  17 -0.333943 10.013584 0.308053 -0.782876 -0.001402 0.157793
  18 0.000000 24.704325 0.000001 -1.582676 1.667976 0.045887
  19 0.000000 6.351502 0.000001 0.206376 0.004945 -0.162904
  20 -1.857082 5.496417 1.049204 -1.479632 -0.059760 1.730887
  21 0.000003 13.772744 -0.000009 -0.628338 1.394495 -1.143597
  22 0.000002 7.246486 0.000002 -0.618108 0.215120 0.075427
  23 0.045485 7.648385 -0.051082 1.577755 -3.085417 -0.000390
  24 0.000001 5.339063 -0.000001 -0.033525 0.001407 0.041917
  25 0.000000 5.500855 -0.000001 -0.437633 0.012646 -0.014919
  26 0.000000 6.958815 0.000000 -0.512654 0.000000 -0.029834
  27 1.885076 5.428182 1.059434 -1.690177 0.550724 1.548053
  28 -0.000000 13.698036 -0.000001 -0.061866 -1.341954 -0.272651
  29 -0.000001 7.246484 -0.000001 0.408414 -0.198404 -0.006209
  30 0.034063 7.649771 0.049416 -1.040606 2.815980 -0.450392
  31 -19.577072 -4.507719 -22.695066 -0.031594 0.002032 1.435898
  32 -1.902409 3.656106 -22.791534 -0.765192 2.494851 1.164838
  33 43.263412 -4.735948 4.772236 0.000000 1.337036 -1.570796
  34 46.446648 7.803223 0.527271 -0.000000 1.799565 -1.570796
  35 10.273137 -5.951228 -21.669453 2.781954 -0.377384 -1.502951
  36 7.765912 4.911542 -19.416248 0.641727 -0.265520 1.421251
  37 -54.174271 -4.884541 -15.762349 -0.000000 0.021977 1.570796
  38 -29.927073 4.987432 -15.762349 -0.000000 3.088139 1.570796
  time 4
  0 0.298907 -0.398544 -23.646896 1.570796 -0.000000 0.000000
  1 0.000000 24.704325 0.000001 0.000000 0.000001 -1.756045
  2 -0.000000 5.484108 -0.000000 1.450500 -1.542435 -1.409438
  3 -0.000000 5.912185 -0.000001 0.100979 0.000000 -0.000000
  4 -0.000001 4.271068 0.000001 -0.055723 -0.000000 0.000000
  5 0.000000 4.620898 -0.000001 0.133676 0.006899 -0.009322
  6 0.000001 4.309649 2.031435 -0.442773 -0.123655 0.058055
  7 -0.000000 3.347469 -1.402548 -0.341162 0.030898 -0.012020
  8 -0.000000 5.912185 -0.000001 0.459781 -0.239096 -2.038707
  9 -0.000000 2.871585 0.000001 -1.741549 0.190839 0.476041
  10 0.000001 5.892736 -0.000000 -0.072452 0.165457 -0.283937
  11 0.000001 10.675785 0.000001 0.398338 -1.370312 0.356301
  12 -0.405959 10.292087 -0.097791 1.288190 0.008940 0.187573
  13 -0.030741 5.877326 0.001372 2.672136 -0.316577 -1.099175
  14 0.000000 2.871584 0.000001 1.738475 -0.632497 0.239275
  15 -0.000001 5.892737 0.000002 0.200528 -0.116960 -0.330019
  16 -0.000001 10.675788 -0.000000 -0.532299 1.374372 0.639228
  17 -0.333945 10.013584 0.308056 -0.788815 0.011280 0.096464
  18 0.000000 24.704325 0.000001 -1.582676 1.667976 0.045887
  19 0.000000 6.351502 -0.000001 0.206452 0.003968 -0.145954
  20 -1.857083 5.496418 1.049206 -1.391951 0.111397 1.729071
  21 0.000001 13.772738 -0.000008 -0.700606 1.170186 -1.911771
  22 0.000002 7.246487 -0.000002 -1.519686 0.270954 0.116020
  23 0.045484 7.648375 -0.051090 0.825441 -3.100292 0.038092
  24 0.000000 5.339064 -0.000001 0.007387 -0.000310 0.041939
  25 -0.000000 5.500854 0.000000 -0.348919 0.010202 -0.013905
  26 -0.000000 6.958816 -0.000001 -0.318028 0.000000 -0.029833
  27 1.885075 5.428187 1.059436 -1.690373 0.519908 1.521346
  28 0.000001 13.698043 0.000000 -0.108055 -1.343536 -0.564692
  29 -0.000001 7.246486 0.000002 0.800059 -0.190601 -0.015189
  30 0.034063 7.649776 0.049417 -1.150640 2.870928 -0.482786
  31 -16.555967 -4.587284 -19.862659 0.715500 0.093443 1.473340
  32 -4.808807 3.503345 -23.039579 -0.623848 2.452733 1.252476
  33 43.263412 -4.735948 4.772236 0.000000 1.337036 -1.570796
  34 46.446648 7.803223 0.527271 -0.000000 1.799565 -1.570796
  35 2.833052 -6.137574 -21.499817 -0.124299 -2.846239 1.590773
  36 14.609510 4.911542 -20.728546 0.646520 -0.328230 1.419389
  37 -54.174271 -4.884541 -15.762349 -0.000000 0.021977 1.570796
  38 -29.927073 4.987432 -15.762349 -0.000000 3.088139 1.570796
  time 5
  0 0.298907 -0.398544 -24.093399 1.570796 -0.000000 0.000000
  1 0.000000 24.704323 0.000001 0.000000 0.000001 -1.766433
  2 -0.000000 5.484108 -0.000001 1.450497 -1.533035 -1.409436
  3 -0.000001 5.912186 0.000000 0.100979 -0.000000 0.000000
  4 0.000000 4.271068 0.000000 -0.070611 -0.000000 0.000000
  5 0.000000 4.620899 0.000001 0.105516 0.005319 0.006971
  6 0.000001 4.309650 2.031434 -0.412735 -0.124574 0.054501
  7 -0.000001 3.347471 -1.402547 -0.341162 0.030898 -0.012020
  8 -0.000001 5.912186 0.000000 0.459781 -0.239096 -2.038707
  9 0.000000 2.871584 0.000000 -1.744125 0.058842 0.517352
  10 0.000000 5.892743 0.000001 -0.027867 0.211140 -0.221779
  11 0.000000 10.675790 0.000000 0.195931 -1.415941 0.420763
  12 -0.405961 10.292087 -0.097794 1.385789 0.003812 0.230871
  13 -0.030741 5.877328 0.001372 2.672136 -0.316577 -1.099175
  14 0.000000 2.871584 0.000000 1.767893 -0.722539 0.194024
  15 -0.000001 5.892737 0.000001 0.160249 -0.150550 -0.144120
  16 -0.000002 10.675786 0.000001 -0.361478 1.383007 0.474759
  17 -0.333945 10.013586 0.308059 -0.795515 0.023562 0.035107
  18 0.000000 24.704323 0.000001 -1.582676 1.667976 0.045887
  19 0.000000 6.351502 0.000001 0.206559 0.001815 -0.108647
  20 -1.857083 5.496417 1.049206 -1.325259 0.363772 1.717203
  21 0.000001 13.772737 -0.000007 -0.713878 1.114718 -1.913041
  22 0.000003 7.246480 -0.000004 -1.619643 0.255020 0.112239
  23 0.045483 7.648378 -0.051089 0.871777 -3.098573 0.036138
  24 0.000000 5.339063 -0.000001 -0.033526 0.001407 0.041917
  25 0.000000 5.500854 -0.000000 -0.307672 0.009037 -0.013508
  26 0.000000 6.958814 0.000000 -0.123401 0.000000 -0.029834
  27 1.885075 5.428183 1.059436 -1.653872 0.350231 1.463433
  28 0.000003 13.698037 0.000000 -0.336122 -1.275837 -0.602994
  29 -0.000001 7.246481 -0.000002 0.998130 -0.186064 -0.019585
  30 0.034064 7.649770 0.049416 1.755992 0.137865 2.610759
  31 -9.925110 -4.997270 -20.431946 0.669211 0.088837 1.469126
  32 -11.205591 3.055167 -23.290102 -0.278556 2.398216 1.480519
  33 43.263412 -4.735948 4.772236 0.000000 1.337036 -1.570796
  34 46.446648 7.803223 0.527271 -0.000000 1.799565 -1.570796
  35 -0.548798 -6.452391 -20.985699 -0.022345 -2.885829 1.576450
  36 17.720234 4.911542 -22.040846 0.651548 -0.390868 1.417160
  37 -54.174271 -4.884541 -15.762349 -0.000000 0.021977 1.570796
  38 -29.927073 4.987432 -15.762349 -0.000000 3.088139 1.570796
  time 6
  0 0.298907 -0.398544 -23.646896 1.570796 -0.000000 0.000000
  1 0.000000 24.704325 0.000001 0.000000 0.000001 -1.789291
  2 -0.000001 5.484108 -0.000000 1.450504 -1.544967 -1.409443
  3 0.000000 5.912184 -0.000001 0.100979 -0.000000 -0.000000
  4 -0.000000 4.271068 0.000000 -0.103375 -0.000000 0.000000
  5 -0.000000 4.620899 0.000000 0.093706 0.004793 0.013812
  6 0.000001 4.309651 2.031434 -0.346543 -0.126221 0.046584
  7 -0.000000 3.347470 -1.402547 -0.341162 0.030898 -0.012020
  8 0.000000 5.912184 -0.000001 0.459781 -0.239096 -2.038707
  9 0.000000 2.871584 0.000000 -1.742956 0.279558 0.447755
  10 -0.000001 5.892740 0.000000 -0.117486 0.199507 -0.680294
  11 0.000000 10.675784 0.000000 0.657813 -1.430250 0.802878
  12 -0.405959 10.292090 -0.097794 0.954098 0.011984 0.227408
  13 -0.030741 5.877326 0.001372 2.672136 -0.316577 -1.099175
  14 0.000000 2.871585 -0.000001 1.742222 -0.645357 0.233235
  15 -0.000002 5.892737 0.000000 0.221352 -0.126233 -0.358837
  16 -0.000002 10.675791 0.000004 -0.513302 1.290507 0.535627
  17 -0.333946 10.013587 0.308061 -1.159396 -0.004907 0.094084
  18 0.000000 24.704325 0.000001 -1.582676 1.667976 0.045887
  19 0.000000 6.351502 -0.000001 0.206587 -0.000341 -0.071340
  20 -1.857082 5.496416 1.049203 -1.345640 0.577360 1.699120
  21 0.000002 13.772741 -0.000005 -0.875220 1.280812 -1.650443
  22 0.000004 7.246476 0.000005 -1.022681 0.246350 0.106264
  23 0.045481 7.648376 -0.051091 0.957895 -3.095625 0.032306
  24 0.000001 5.339063 -0.000000 -0.074438 0.003121 0.041824
  25 0.000000 5.500854 0.000000 -0.395046 0.011484 -0.014405
  26 0.000000 6.958817 0.000001 -0.175216 0.000000 -0.029834
  27 1.885076 5.428184 1.059434 -1.623502 0.028155 1.394763
  28 -0.000001 13.698034 -0.000002 -0.248548 -1.275418 -0.374834
  29 -0.000002 7.246487 -0.000001 0.716919 -0.181879 -0.011212
  30 0.034062 7.649774 0.049417 1.530979 -0.001384 2.595246
  31 -3.395544 -5.439095 -21.786640 0.583299 0.079785 1.461887
  32 -17.630903 2.782452 -23.303284 0.079405 2.406511 1.723098
  33 43.263412 -4.735948 4.772236 0.000000 1.337036 -1.570796
  34 46.446648 7.803223 0.527271 -0.000000 1.799565 -1.570796
  35 3.712985 -6.452391 -18.392399 2.675061 -0.229489 -1.456733
  36 12.919325 4.911542 -21.985722 0.254766 -0.370532 1.531548
  37 -54.174271 -4.884541 -15.762349 -0.000000 0.021977 1.570796
  38 -29.927073 4.987432 -15.762349 -0.000000 3.088139 1.570796
  time 7
  0 0.298907 -0.398544 -23.200392 1.570796 -0.000000 0.000000
  1 0.000000 24.704325 0.000001 0.000000 0.000001 -1.812149
  2 0.000000 5.484108 -0.000000 1.450609 -1.567129 -1.409552
  3 -0.000000 5.912185 -0.000000 0.100979 -0.000000 -0.000000
  4 -0.000000 4.271068 -0.000000 -0.136140 -0.000000 0.000000
  5 -0.000000 4.620900 -0.000000 0.093716 0.008638 -0.008541
  6 0.000000 4.309650 2.031434 -0.280328 -0.127346 0.038572
  7 -0.000001 3.347471 -1.402548 -0.341162 0.030898 -0.012020
  8 -0.000000 5.912185 -0.000000 0.459781 -0.239096 -2.038707
  9 -0.000000 2.871584 0.000000 -1.794414 0.697446 0.288645
  10 -0.000001 5.892739 0.000001 -0.097233 0.135790 -0.717548
  11 -0.000002 10.675787 0.000001 0.804507 -1.412686 0.701728
  12 -0.405960 10.292086 -0.097790 0.954098 0.011984 0.227408
  13 -0.030741 5.877326 0.001371 2.672136 -0.316577 -1.099175
  14 0.000001 2.871584 0.000000 1.694122 -0.428085 0.321969
  15 -0.000002 5.892736 0.000001 0.201541 -0.133851 -0.428546
  16 -0.000002 10.675788 -0.000001 -0.384432 1.279858 0.403220
  17 -0.333952 10.013595 0.308060 -1.537645 -0.010233 0.161723
  18 0.000000 24.704325 0.000001 -1.582676 1.667976 0.045887
  19 0.000000 6.351502 0.000001 0.206573 -0.001320 -0.054389
  20 -1.857083 5.496418 1.049206 -1.413240 0.538307 1.663986
  21 0.000001 13.772740 -0.000008 -0.119603 1.496781 -0.149526
  22 0.000005 7.246479 -0.000003 -0.037103 0.202152 0.006119
  23 0.045484 7.648389 -0.051088 1.004210 -3.094179 0.030142
  24 0.000000 5.339063 -0.000000 -0.043537 0.001827 0.041901
  25 0.000000 5.500855 -0.000001 -0.482424 0.013844 -0.015512
  26 -0.000000 6.958816 0.000001 -0.271563 0.000000 -0.029833
  27 1.885075 5.428185 1.059436 -1.637804 -0.153685 1.375029
  28 0.000001 13.698039 0.000000 -0.002425 -1.427111 -0.279282
  29 -0.000000 7.246490 -0.000000 0.349185 -0.142211 -0.002897
  30 0.034064 7.649780 0.049414 1.431688 -0.063540 2.598442
  31 -0.442240 -5.646221 -22.626160 0.537158 0.074671 1.458326
  32 -20.622885 3.156080 -22.839310 0.232444 2.430173 1.824500
  33 43.263412 -4.735948 4.772236 0.000000 1.337036 -1.570796
  34 46.446648 7.803223 0.527271 -0.000000 1.799565 -1.570796
  35 11.627722 -6.452391 -19.147606 2.675061 -0.229489 -1.456733
  36 4.003350 4.911542 -21.930595 -0.145383 -0.308393 1.630418
  37 -54.174271 -4.884541 -15.762349 -0.000000 0.021977 1.570796
  38 -29.927073 4.987432 -15.762349 -0.000000 3.088139 1.570796
end
