version 1
nodes
0 "Bone.016" -1
1 "Bone" 0
2 "Bone.001" 1
3 "Bone.002" 2
4 "Bone.003" 3
5 "Bone.004" 4
6 "Bone.006" 5
7 "Bone.009" 5
8 "Leg.L.001" 2
9 "Leg.L.002" 8
10 "Leg.L.003" 9
11 "Leg.L.004" 10
12 "Leg.L.006" 11
13 "Leg.R.001" 2
14 "Leg.R.002" 13
15 "Leg.R.003" 14
16 "Leg.R.004" 15
17 "Leg.R.006" 16
18 "Bone.011" 0
19 "Bone.012" 18
20 "BLeg.L.002" 19
21 "BLeg.L.004" 20
22 "BLeg.L.005" 21
23 "BLeg.L.007" 22
24 "Bone.013" 19
25 "Bone.014" 24
26 "Bone.015" 25
27 "BLeg.R.002" 19
28 "BLeg.R.004" 27
29 "BLeg.R.005" 28
30 "BLeg.R.007" 29
31 "BLeg_ik.L.001" -1
32 "BLeg_ik.R.001" -1
33 "LegPull.L.001" -1
34 "LegPull.R.001" -1
35 "Leg_ik.L.001" -1
36 "Leg_ik.R.001" -1
37 "BLeg_pull.L.001" -1
38 "BLeg_pull.R.001" -1
end
skeleton
  time 0
  0 0.298907 -0.398544 -23.284607 1.570796 -0.000000 0.000000
  1 0.000000 24.704323 0.000001 0.000000 0.000001 -1.829383
  2 0.000000 5.484109 0.000000 -0.111884 -1.570796 0.000000
  3 -0.000000 5.912186 -0.000001 0.310759 0.000000 -0.000000
  4 -0.000000 4.271068 -0.000000 0.027283 -0.000000 -0.000000
  5 -0.000001 4.620898 0.000001 -0.254485 -0.037659 0.117753
  6 0.101645 2.965112 1.798622 0.091150 -0.211252 0.047184
  7 -0.000000 3.347470 -1.402549 -0.088207 0.015693 0.008853
  8 -0.000000 5.912186 -0.000001 0.459781 -0.239096 -2.038707
  9 -0.000000 2.871584 0.000000 -1.657225 0.613133 0.236108
  10 0.000000 5.892738 -0.000001 0.070741 -0.151570 -0.493868
  11 0.000002 10.675789 0.000001 -0.711783 -1.405918 1.933442
  12 -0.405964 10.292089 -0.097792 0.767160 0.014915 0.224887
  13 -0.030741 5.877328 0.001371 2.672136 -0.316577 -1.099175
  14 0.000001 2.871584 0.000000 2.002752 -1.058317 -0.097929
  15 -0.000000 5.892738 0.000001 -0.248054 -0.245891 -0.772577
  16 0.000003 10.675788 -0.000000 0.740987 1.430391 1.689389
  17 -0.333946 10.013582 0.308054 -0.803998 -0.013996 0.219403
  18 0.000000 24.704323 0.000001 -1.618356 1.667635 0.164154
  19 0.000000 6.351502 -0.000000 0.206577 0.001152 -0.097173
  20 -1.857082 5.496417 1.049204 -1.309885 -0.057950 1.720462
  21 -0.000005 13.772744 -0.000008 -0.847246 1.214847 -1.839267
  22 0.000004 7.246486 0.000007 -0.900500 0.190968 0.138291
  23 0.045486 7.648377 -0.051080 1.827328 2.268391 0.208421
  24 0.000001 5.339063 0.000000 -0.007790 0.000327 0.041939
  25 0.000001 5.500854 -0.000000 -0.352628 0.009934 -0.014180
  26 0.000000 6.958816 0.000001 -0.563892 -0.000225 -0.029158
  27 1.885075 5.428183 1.059434 -1.971828 0.153316 1.673531
  28 0.000002 13.698039 -0.000001 0.094448 -1.353045 -1.044037
  29 -0.000000 7.246490 0.000001 0.619472 -0.108809 -0.019963
  30 0.034061 7.649773 0.049412 1.449563 -0.078782 2.365910
  31 -18.560787 -7.595008 -22.626160 -0.155776 0.055935 2.381966
  32 -16.678350 9.205772 -22.601917 0.162706 2.655414 1.781410
  33 32.364582 -1.776073 -11.601221 0.000000 1.337036 -1.570796
  34 32.543880 10.651133 -13.297186 -0.000000 1.799565 -1.570796
  35 8.228695 -8.098417 -21.347775 2.485354 -0.204336 -1.415784
  36 9.986570 10.518778 -21.347775 0.610582 -0.206668 1.428175
  37 -30.150969 -7.086495 -15.762349 -0.000000 0.021977 1.570796
  38 -29.927073 4.987432 -15.762349 -0.000000 3.088139 1.570796
  time 1
  0 0.298907 -0.398544 -23.284607 1.570796 -0.000000 0.000000
  1 0.000000 24.704323 0.000001 0.000000 0.000001 -1.501388
  2 -0.000001 5.484108 -0.000001 -0.111908 -1.570796 0.000000
  3 -0.000000 5.912185 0.000001 0.304390 -0.126866 -0.559713
  4 -0.000000 4.271068 -0.000000 -0.505551 -0.231078 -0.096834
  5 -0.000000 4.620898 -0.000000 -0.463576 -0.141635 -0.033331
  6 0.121155 2.917715 1.771778 0.088102 -0.228250 0.061415
  7 -0.000001 3.347470 -1.402548 -0.371081 0.030898 -0.012020
  8 -0.000000 5.912185 0.000001 0.459781 -0.239096 -2.038707
  9 0.000000 2.871585 0.000000 -1.663138 0.622025 0.216000
  10 0.000001 5.892737 0.000000 0.193264 -0.470031 -0.961381
  11 0.000003 10.675778 -0.000002 -0.700132 -1.404858 1.950948
  12 -0.405962 10.292084 -0.097793 0.892686 -0.107763 0.240038
  13 -0.030741 5.877326 0.001372 2.672136 -0.316577 -1.099175
  14 0.000000 2.871584 -0.000000 1.743573 -0.649880 0.231080
  15 0.000001 5.892738 0.000000 -0.275701 -0.180221 -0.557970
  16 0.000005 10.675787 0.000000 0.692310 1.416999 1.819911
  17 -0.333945 10.013582 0.308053 -0.879981 -0.178103 0.168147
  18 0.000000 24.704323 0.000001 -1.618356 1.667635 0.164154
  19 0.000000 6.351502 -0.000000 0.219273 0.008205 -0.099807
  20 -1.857083 5.496417 1.049203 -1.265674 -0.083434 1.722125
  21 -0.000005 13.772736 -0.000004 -0.843704 1.199420 -1.767614
  22 0.000002 7.246479 0.000009 -1.396684 0.620655 -1.146624
  23 0.045484 7.648384 -0.051082 1.936529 2.131162 0.309790
  24 0.000000 5.339064 -0.000001 -0.007790 0.000327 0.041939
  25 0.000001 5.500854 0.000000 -0.360814 0.010535 -0.014028
  26 0.000001 6.958815 0.000001 -0.422025 -0.000000 -0.029833
  27 1.885075 5.428184 1.059440 -1.979277 0.160605 1.679626
  28 0.000001 13.698036 -0.000003 0.135541 -1.354885 -1.072575
  29 -0.000003 7.246483 0.000000 0.619300 -0.107494 -0.021655
  30 0.034057 7.649770 0.049413 1.449564 -0.078782 2.365910
  31 -18.560787 -7.595008 -22.626160 -0.172752 0.076950 2.530340
  32 -16.678350 9.205772 -22.601917 0.162706 2.655414 1.781410
  33 32.364582 2.611126 -10.933523 0.000000 1.337036 -1.570796
  34 32.543880 10.651133 -13.297186 -0.000000 1.799565 -1.570796
  35 8.527200 -6.638882 -17.638630 2.613301 -0.232722 -1.321872
  36 12.351840 10.436195 -17.303341 0.532837 -0.234701 1.617062
  37 -30.150969 -7.086495 -15.762349 -0.000000 0.021977 1.570796
  38 -29.927073 4.987432 -15.762349 -0.000000 3.088139 1.570796
  time 2
  0 -0.748626 1.020082 -21.306713 1.570796 -0.000000 0.000000
  1 0.000000 24.704325 0.000001 -0.299716 -0.015658 -1.166438
  2 -0.000001 5.484109 0.000001 -0.111908 -1.570796 0.000000
  3 -0.000000 5.912184 -0.000000 0.251476 -0.033066 -0.203527
  4 0.000001 4.271068 0.000000 -0.324182 -0.230729 0.085718
  5 -0.000000 4.620897 0.000000 -0.240724 -0.033838 0.029310
  6 0.141646 2.873070 1.746684 0.084796 -0.245192 0.075747
  7 -0.000001 3.347468 -1.402548 -0.755896 -0.168365 -0.024102
  8 -0.000000 5.912184 -0.000000 0.459781 -0.239096 -2.038707
  9 0.000000 2.871584 -0.000000 -1.696421 0.611791 0.194236
  10 -0.000000 5.892739 0.000000 0.251205 -0.339640 -1.333579
  11 -0.000000 10.675787 -0.000000 -0.682931 -1.402583 1.980235
  12 -0.405961 10.292089 -0.097795 1.015560 -0.370791 0.218374
  13 -0.030741 5.877326 0.001372 2.672136 -0.316577 -1.099175
  14 0.000001 2.871585 -0.000001 1.743573 -0.649880 0.231080
  15 0.000000 5.892737 0.000001 -0.033993 0.076296 -0.577377
  16 -0.000000 10.675780 0.000001 0.592811 1.391448 2.066905
  17 -0.333946 10.013587 0.308054 -0.943161 -0.465112 0.120818
  18 0.000000 24.704325 0.000001 -1.843027 2.102897 0.218176
  19 0.000001 6.351502 -0.000001 0.253305 0.027315 -0.106441
  20 -1.857082 5.496418 1.049206 -1.349310 -0.321632 1.239753
  21 -0.000002 13.772739 -0.000008 -0.802853 1.143877 -1.820853
  22 0.000007 7.246486 -0.000002 -1.400770 0.556698 -1.159432
  23 0.045474 7.648386 -0.051082 2.084386 2.023628 0.448376
  24 0.000001 5.339063 -0.000001 -0.007790 0.000327 0.041939
  25 0.000000 5.500854 -0.000000 -0.140135 0.009049 -0.013235
  26 0.000000 6.958814 -0.000000 -0.052065 0.000000 -0.029834
  27 1.885076 5.428182 1.059437 -2.299097 -0.028175 1.279718
  28 0.000003 13.698042 0.000001 0.315426 -1.287156 -1.597968
  29 -0.000001 7.246483 0.000004 0.650784 -0.066289 -0.076543
  30 0.034066 7.649774 0.049420 1.341807 0.028084 2.352130
  31 -17.986059 -7.750793 -22.761963 -0.188246 0.099067 2.655492
  32 -20.098799 8.141979 -19.041056 -2.981163 0.482987 -1.208693
  33 32.364582 7.343173 -10.213344 0.000000 1.337036 -1.570796
  34 41.606304 16.537699 -13.671562 -0.000000 1.799565 -1.570796
  35 9.668173 -4.564507 -10.583819 2.718106 -0.317080 -1.093061
  36 16.744482 9.544546 -9.981177 0.453973 -0.227890 1.925946
  37 -30.150969 -7.086495 -15.762349 -0.000000 0.021977 1.570796
  38 -29.844639 3.666953 -16.153156 -0.000000 3.088139 1.570796
  time 3
  0 -1.796158 2.438707 -19.328817 1.570796 -0.000000 0.000000
  1 0.000000 24.704325 0.000001 -0.588971 0.067652 -0.840607
  2 0.000000 5.484108 -0.000000 -0.111908 -1.570796 0.000000
  3 0.000001 5.912186 0.000001 0.234499 0.073928 0.150495
  4 0.000000 4.271069 0.000001 -0.140329 -0.263602 0.270812
  5 0.000000 4.620898 -0.000000 -0.001319 0.060701 0.118402
  6 0.163033 2.831096 1.723285 0.081355 -0.261543 0.089730
  7 0.000000 3.347469 -1.402549 -0.952210 -0.394326 0.056563
  8 0.000001 5.912186 0.000001 0.459781 -0.239096 -2.038708
  9 -0.000001 2.871584 0.000001 -1.765542 0.588747 0.170423
  10 -0.000003 5.892738 0.000001 0.153283 -0.348123 -1.106772
  11 -0.000005 10.675787 0.000000 -0.654660 -1.493467 1.107292
  12 -0.405957 10.292092 -0.097792 1.163203 -0.690498 0.116510
  13 -0.030740 5.877327 0.001372 2.672136 -0.316577 -1.099175
  14 0.000000 2.871584 -0.000000 1.743573 -0.649880 0.231079
  15 -0.000004 5.892735 0.000001 0.415555 -0.124342 -0.533879
  16 -0.000002 10.675786 0.000000 0.619350 1.475033 1.259666
  17 -0.333943 10.013589 0.308056 -0.993999 -0.793970 0.097899
  18 0.000000 24.704325 0.000001 -1.830135 2.068426 0.207986
  19 0.000000 6.351501 0.000001 0.302586 0.055463 -0.114923
  20 -1.857083 5.496417 1.049204 -1.462181 -0.301875 1.317460
  21 -0.000005 13.772738 -0.000006 -0.912912 1.367355 -1.512149
  22 0.000005 7.246473 0.000007 -1.296656 0.875172 -1.064806
  23 0.045491 7.648377 -0.051085 -0.880342 1.188511 -2.527308
  24 0.000000 5.339063 -0.000001 -0.007790 0.000327 0.041939
  25 0.000000 5.500854 0.000001 0.080710 -0.002406 -0.012204
  26 0.000001 6.958816 -0.000001 0.218747 0.000000 -0.029834
  27 1.885074 5.428184 1.059439 -2.298199 -0.039177 1.990982
  28 0.000001 13.698035 0.000002 0.001242 -1.426477 -0.007524
  29 -0.000002 7.246481 -0.000002 0.007678 -0.124988 0.000372
  30 0.034065 7.649765 0.049420 1.080244 0.264052 2.275179
  31 -18.067009 -7.597118 -22.627998 -0.203172 0.121002 2.750760
  32 -23.519247 12.198980 -23.157507 -2.988258 0.477030 -0.860271
  33 32.364582 12.190166 -9.475669 0.000000 1.337036 -1.570796
  34 50.668728 25.543839 -15.443335 -0.000000 1.799565 -1.570796
  35 12.019798 -2.638944 -6.996568 2.761713 -0.454914 -0.795906
  36 19.109751 9.426628 -5.945788 0.397587 -0.180402 2.265029
  37 -30.150969 -7.156725 -15.895144 -0.000000 0.021977 1.570796
  38 -29.627312 0.768072 -17.128294 -0.000000 3.088139 1.570796
  time 4
  0 -1.680105 -2.000640 -21.678303 1.468292 -0.000000 0.000000
  1 0.000000 24.704321 -0.000004 -0.450046 0.202193 -1.000719
  2 0.000000 5.484108 -0.000000 0.906192 -1.680228 -1.016193
  3 -0.000000 5.912185 -0.000000 0.228128 0.030736 0.110376
  4 -0.000000 4.271069 0.000001 0.034057 -0.326999 0.446500
  5 0.000000 4.620899 0.000001 0.248970 0.131259 0.228920
  6 0.185223 2.791706 1.701517 0.077936 -0.276780 0.102903
  7 -0.000001 3.347471 -1.402549 -0.636839 -0.165399 0.566566
  8 -0.000000 5.912185 -0.000000 0.459781 -0.239096 -2.038707
  9 0.000000 2.871584 -0.000001 -1.850193 0.558353 0.149808
  10 -0.000000 5.892739 0.000001 -0.102735 -0.280272 -0.502694
  11 -0.000000 10.675784 -0.000001 -0.698609 -1.482098 1.276486
  12 -0.405959 10.292088 -0.097795 1.383080 -0.946490 -0.115631
  13 -0.030741 5.877326 0.001372 2.672136 -0.316577 -1.099175
  14 0.000000 2.871585 -0.000000 1.743573 -0.649880 0.231079
  15 -0.000000 5.892737 -0.000000 -0.108517 0.156469 -0.553194
  16 0.000000 10.675786 0.000001 0.573321 1.478587 1.198751
  17 -0.333943 10.013590 0.308058 -1.054447 -1.063438 0.128963
  18 0.000000 24.704321 -0.000004 -1.278380 1.627711 0.997096
  19 0.000000 6.351501 -0.000000 0.361019 0.089434 -0.123206
  20 -1.857082 5.496416 1.049205 -1.299324 -0.263950 1.966439
  21 -0.000005 13.772742 -0.000007 -0.635604 0.943989 -1.974340
  22 0.000002 7.246484 0.000002 -1.352174 0.388318 -1.183650
  23 0.045473 7.648386 -0.051080 -0.715719 1.220845 -2.375667
  24 0.000001 5.339063 -0.000001 -0.007790 0.000327 0.041939
  25 0.000000 5.500853 0.000000 0.049688 -0.127811 0.043529
  26 0.000000 6.958814 0.000001 0.174082 -0.032470 0.036748
  27 1.885076 5.428182 1.059437 0.630758 -3.087944 -0.750323
  28 0.000001 13.698036 0.000000 0.274404 -1.327855 -1.371138
  29 0.000001 7.246485 0.000002 0.658147 -0.085657 -0.049047
  30 0.034061 7.649774 0.049413 0.771449 0.472246 2.123707
  31 -18.086067 -7.590168 -22.621941 -0.219006 0.141675 2.810625
  32 -24.971315 5.466362 -23.186701 -2.997333 0.473547 -0.507698
  33 32.364582 16.922216 -8.755487 0.000000 1.337036 -1.570796
  34 46.585213 30.947180 -18.426449 -0.000000 1.799565 -1.570796
  35 17.631008 4.368363 -11.684278 2.715279 -0.603768 -0.510188
  36 12.471041 12.164352 -13.818208 0.383169 -0.111776 2.530383
  37 -30.150969 -7.337845 -16.237614 -0.000000 0.021977 1.570796
  38 -29.320057 -2.115379 -18.391832 -0.000000 3.088139 1.570796
  time 5
  0 -1.380810 -10.194332 -24.027790 1.160905 -0.000000 0.000000
  1 0.000000 24.704317 -0.000005 -0.325834 0.361904 -1.151290
  2 0.000000 5.484107 -0.000000 0.908360 -1.925491 -1.014030
  3 -0.000000 5.912185 0.000000 0.223484 -0.012826 0.070411
  4 -0.000000 4.271068 0.000001 -0.050337 -0.332505 0.183419
  5 -0.000000 4.620898 -0.000000 0.099000 0.074832 -0.052380
  6 0.208129 2.754819 1.681329 0.074724 -0.290393 0.114788
  7 0.000000 3.347470 -1.402548 -0.054554 -0.734516 -0.449387
  8 -0.000000 5.912185 0.000000 0.459781 -0.239096 -2.038707
  9 -0.000000 2.871583 -0.000000 -1.931403 0.527386 0.135496
  10 -0.000000 5.892739 0.000001 0.051556 -0.226851 -0.643740
  11 -0.000001 10.675785 0.000002 -0.499515 -1.368085 2.332311
  12 -0.405960 10.292089 -0.097793 1.616441 -1.032710 -0.421763
  13 -0.030740 5.877328 0.001373 2.672136 -0.316577 -1.099175
  14 0.000000 2.871585 0.000001 1.743573 -0.649880 0.231079
  15 -0.000002 5.892738 0.000001 -0.646847 0.170111 -0.383758
  16 0.000001 10.675783 -0.000001 0.359543 1.498811 0.689858
  17 -0.333943 10.013587 0.308055 -1.158446 -1.183011 0.253472
  18 0.000000 24.704317 -0.000005 -1.528357 1.674621 0.755138
  19 0.000000 6.351501 0.000001 0.422501 0.125678 -0.129788
  20 -1.857083 5.496416 1.049205 -1.554391 -0.072450 1.898409
  21 -0.000004 13.772741 -0.000004 -0.442371 0.740553 -2.114018
  22 -0.000002 7.246484 -0.000006 -1.239963 0.287387 -1.200918
  23 0.045478 7.648392 -0.051079 -0.620953 1.219872 -2.296401
  24 0.000000 5.339063 0.000000 -0.007790 0.000327 0.041939
  25 0.000000 5.500855 0.000000 -0.052065 -0.375938 0.188772
  26 0.000001 6.958816 -0.000000 0.055984 -0.098577 0.205985
  27 1.885075 5.428184 1.059435 -2.530498 -0.125825 1.987894
  28 0.000004 13.698037 -0.000000 0.203685 -1.254875 -1.779759
  29 -0.000001 7.246486 -0.000002 0.643043 -0.041177 -0.105125
  30 0.034059 7.649772 0.049415 0.613513 0.547407 2.029365
  31 -18.083248 -7.595008 -22.626160 -0.237594 0.160042 2.829712
  32 -25.176516 -1.142509 -23.157507 -3.001668 0.472951 -0.351872
  33 32.364582 21.309414 -8.087791 0.000000 1.337036 -1.570796
  34 36.376427 34.836849 -21.575596 -0.000000 1.799565 -1.570796
  35 17.178595 3.803388 -11.306323 2.597330 -0.726196 -0.325916
  36 5.832331 14.503803 -21.792545 0.404325 -0.043875 2.639060
  37 -30.150969 -7.585500 -16.705887 -0.000000 0.021977 1.570796
  38 -28.967836 -3.389566 -19.647839 -0.000000 3.088139 1.570796
  time 6
  0 -0.971570 -11.207566 -23.666618 1.038600 -0.000000 0.000000
  1 0.000000 24.704321 0.000002 -0.220445 0.536923 -1.290350
  2 -0.000001 5.484109 -0.000000 0.910626 -2.171002 -1.011765
  3 0.000000 5.912185 -0.000001 0.220575 -0.056612 0.030522
  4 0.000000 4.271067 -0.000000 -0.132688 -0.359511 -0.086392
  5 -0.000001 4.620899 -0.000001 -0.034330 -0.025038 -0.333407
  6 0.231666 2.720359 1.662662 0.071926 -0.301878 0.124900
  7 -0.000000 3.347469 -1.402547 -0.436993 -0.522189 -0.094843
  8 0.000000 5.912185 -0.000001 0.459781 -0.239096 -2.038707
  9 -0.000000 2.871584 -0.000001 -1.991943 0.503371 0.127846
  10 -0.000001 5.892742 -0.000000 -0.075898 -0.146823 -0.454977
  11 -0.000001 10.675788 -0.000000 -0.477484 -1.370613 2.356020
  12 -0.405957 10.292090 -0.097790 1.715207 -0.995956 -0.625764
  13 -0.030741 5.877326 0.001372 2.672136 -0.316577 -1.099175
  14 0.000000 2.871584 0.000000 1.743573 -0.649880 0.231079
  15 -0.000002 5.892735 0.000001 -0.280188 -0.260677 -0.334789
  16 0.000006 10.675787 0.000005 0.540684 1.442637 1.734560
  17 -0.333947 10.013587 0.308055 -1.248943 -1.165694 0.390416
  18 0.000000 24.704321 0.000002 -1.706357 1.825046 0.601546
  19 0.000001 6.351502 0.000001 0.480937 0.160394 -0.133970
  20 -1.857083 5.496416 1.049203 -1.783077 -0.061370 1.773184
  21 -0.000002 13.772738 0.000000 -0.494513 0.805129 -2.093364
  22 -0.000003 7.246482 -0.000003 -1.249793 0.352777 -1.157081
  23 0.045478 7.648382 -0.051084 -0.674052 1.175690 -2.368392
  24 0.000000 5.339063 -0.000001 -0.007790 0.000327 0.041939
  25 0.000001 5.500855 -0.000000 -0.207995 -0.598376 0.380838
  26 0.000001 6.958814 -0.000001 -0.101433 -0.150077 0.422378
  27 1.885075 5.428182 1.059435 0.159519 2.958222 -1.221371
  28 0.000003 13.698032 0.000001 0.182098 -1.265295 -1.739247
  29 -0.000003 7.246479 0.000000 0.659180 -0.043738 -0.098864
  30 0.034062 7.649772 0.049416 0.613513 0.547407 2.029365
  31 -18.560787 -7.595008 -22.626160 -0.261718 0.171426 2.779503
  32 -25.176517 0.929955 -23.157507 -3.001668 0.472951 -0.351872
  33 32.364582 25.121862 -7.507565 0.000000 1.337036 -1.570796
  34 23.105005 37.449757 -24.574856 -0.000000 1.799565 -1.570796
  35 17.032740 6.742075 -13.584754 2.462460 -0.820860 -0.247304
  36 9.568089 12.704559 -21.792545 0.429440 0.012617 2.615106
  37 -30.150969 -7.855332 -17.216097 -0.000000 0.021977 1.570796
  38 -28.615618 -3.264442 -20.738327 -0.000000 3.088139 1.570796
  time 7
  0 -0.525681 -14.247268 -22.583099 0.665087 -0.000000 0.000000
  1 0.000000 24.704321 -0.000002 -0.136288 0.716188 -1.418996
  2 -0.000000 5.484108 0.000001 0.911691 -2.280702 -1.010700
  3 -0.000000 5.912185 -0.000000 0.219413 -0.100476 -0.009374
  4 -0.000000 4.271069 -0.000001 -0.203967 -0.405021 -0.351076
  5 0.000000 4.620899 0.000000 -0.135321 -0.156191 -0.599792
  6 0.255738 2.688236 1.645458 0.069763 -0.310741 0.132744
  7 0.000000 3.347470 -1.402548 -0.672876 -0.021960 -0.000136
  8 -0.000000 5.912185 -0.000000 0.459781 -0.239096 -2.038707
  9 -0.000000 2.871584 -0.000001 -2.015710 0.493773 0.125563
  10 -0.000000 5.892738 0.000000 -0.046261 0.017096 -0.098630
  11 0.000001 10.675785 0.000001 -0.296244 -1.350484 2.664590
  12 -0.405962 10.292083 -0.097794 1.717115 -0.927929 -0.729656
  13 -0.030741 5.877327 0.001372 2.672136 -0.316577 -1.099175
  14 0.000001 2.871585 0.000001 1.743573 -0.649880 0.231080
  15 -0.000001 5.892735 0.000001 0.705547 -0.455410 -0.540858
  16 0.000001 10.675784 0.000003 0.324616 1.397938 2.431051
  17 -0.333944 10.013589 0.308049 -1.284848 -1.095300 0.467659
  18 0.000000 24.704321 -0.000002 -1.783987 2.078596 0.565773
  19 -0.000000 6.351502 0.000000 0.530232 0.189728 -0.135903
  20 -1.857083 5.496417 1.049205 -2.009469 -0.095999 1.476613
  21 -0.000003 13.772741 -0.000002 -0.537477 0.862202 -2.080494
  22 -0.000001 7.246490 -0.000006 -1.234760 0.426424 -1.094987
  23 0.045480 7.648394 -0.051083 -0.819066 1.080294 -2.535501
  24 -0.000000 5.339062 0.000000 -0.007790 0.000327 0.041939
  25 0.000000 5.500853 0.000001 -0.301375 -0.685443 0.488757
  26 0.000002 6.958815 -0.000000 -0.239184 -0.166079 0.607832
  27 1.885076 5.428184 1.059437 2.808978 0.267582 1.543070
  28 0.000001 13.698037 -0.000002 0.152148 -1.253887 -1.798332
  29 0.000001 7.246487 0.000002 0.665460 -0.032430 -0.109753
  30 0.034064 7.649771 0.049412 0.613513 0.547407 2.029365
  31 -17.148802 -9.627535 -22.626160 -0.291206 0.172205 2.658890
  32 -25.176516 0.762858 -23.157507 -3.001668 0.472951 -0.351872
  33 32.364582 28.129684 -7.049799 0.000000 1.337036 -1.570796
  34 9.833578 39.022800 -27.108318 -0.000000 1.799565 -1.570796
  35 16.984509 8.527319 -15.772758 2.344306 -0.894304 -0.219051
  36 13.303846 10.905315 -21.792545 0.438932 0.054929 2.542559
  37 -30.150969 -8.102985 -17.684372 -0.000000 0.021977 1.570796
  38 -28.308363 -2.744819 -21.713583 -0.000000 3.088139 1.570796
  time 8
  0 -0.116441 -19.313438 -20.777239 0.075411 -0.000000 0.000000
  1 -6.054656 22.409195 0.173408 -0.037738 0.191393 -0.368890
  2 0.000000 5.484109 -0.000001 0.909936 -2.097846 -1.012455
  3 0.000001 5.912185 0.000000 0.220011 -0.144270 -0.049360
  4 -0.000000 4.271068 -0.000000 -0.168466 -0.258224 -0.120093
  5 0.000001 4.620899 -0.000000 -0.197461 -0.300005 -0.845712
  6 0.280262 2.658373 1.629658 0.068457 -0.316487 0.137820
  7 -0.000001 3.347468 -1.402547 -0.452523 0.291093 -0.163525
  8 0.000001 5.912185 0.000000 0.459781 -0.239096 -2.038707
  9 -0.000000 2.871583 0.000001 -1.928435 0.529390 0.143172
  10 -0.000001 5.892739 -0.000000 -0.562691 0.536427 -0.806492
  11 -0.000000 10.675787 0.000002 -0.610222 -1.421657 1.961774
  12 -0.405963 10.292091 -0.097796 1.648391 -0.840797 -0.756393
  13 -0.030739 5.877326 0.001372 2.672136 -0.316577 -1.099175
  14 -0.000000 2.871586 -0.000000 1.743573 -0.649880 0.231080
  15 -0.000002 5.892734 0.000001 0.278666 0.418752 -0.230971
  16 -0.000003 10.675784 -0.000001 0.358019 1.415208 2.262319
  17 -0.333944 10.013592 0.308053 -1.285946 -0.996616 0.503870
  18 -1.513664 24.130541 0.043352 -1.759938 1.989944 0.630312
  19 -0.000000 6.351501 -0.000000 0.564288 0.209951 -0.136381
  20 -1.857083 5.496418 1.049204 -1.814313 0.237551 1.399818
  21 -0.000003 13.772740 -0.000003 -0.365590 0.731439 -2.237730
  22 -0.000001 7.246487 -0.000003 -1.087047 0.440728 -1.041147
  23 0.045475 7.648391 -0.051084 -0.945262 0.947898 -2.686200
  24 -0.000001 5.339063 -0.000000 -0.007790 0.000327 0.041939
  25 0.000000 5.500854 0.000000 -0.072717 -0.254516 0.126252
  26 0.000000 6.958816 -0.000001 -0.296416 -0.165277 0.684608
  27 1.885075 5.428182 1.059436 -1.981114 -0.302995 1.136101
  28 0.000003 13.698032 0.000002 0.033736 -1.184232 -2.105530
  29 -0.000001 7.246485 -0.000003 0.603977 0.019122 -0.173649
  30 0.034068 7.649768 0.049409 0.638205 0.543358 2.041013
  31 -13.291188 -15.180502 -22.626160 -0.322502 0.163884 2.502775
  32 -22.646315 -11.647295 -22.749125 -3.006939 0.477092 -0.374880
  33 32.364582 30.102959 -6.749482 0.000000 1.337036 -1.570796
  34 -0.375210 39.792896 -28.860069 -0.000000 1.799565 -1.570796
  35 16.988714 9.088692 -18.655930 2.262670 -0.953307 -0.253758
  36 12.513817 13.450348 -22.136459 0.434195 0.086576 2.442435
  37 -30.150969 -8.284106 -18.026842 -0.000000 0.021977 1.570796
  38 -28.091036 1.062225 -22.379086 -0.000000 3.088139 1.570796
end
