version 1
nodes
0 "Bone.016" -1
1 "Bone" 0
2 "Bone.001" 1
3 "Bone.002" 2
4 "Bone.003" 3
5 "Bone.004" 4
6 "Bone.006" 5
7 "Bone.009" 5
8 "Leg.L.001" 2
9 "Leg.L.002" 8
10 "Leg.L.003" 9
11 "Leg.L.004" 10
12 "Leg.L.006" 11
13 "Leg.R.001" 2
14 "Leg.R.002" 13
15 "Leg.R.003" 14
16 "Leg.R.004" 15
17 "Leg.R.006" 16
18 "Bone.011" 0
19 "Bone.012" 18
20 "BLeg.L.002" 19
21 "BLeg.L.004" 20
22 "BLeg.L.005" 21
23 "BLeg.L.007" 22
24 "Bone.013" 19
25 "Bone.014" 24
26 "Bone.015" 25
27 "BLeg.R.002" 19
28 "BLeg.R.004" 27
29 "BLeg.R.005" 28
30 "BLeg.R.007" 29
31 "BLeg_ik.L.001" -1
32 "BLeg_ik.R.001" -1
33 "LegPull.L.001" -1
34 "LegPull.R.001" -1
35 "Leg_ik.L.001" -1
36 "Leg_ik.R.001" -1
37 "BLeg_pull.L.001" -1
38 "BLeg_pull.R.001" -1
end
skeleton
  time 0
  0 0.182854 -19.313438 -20.777239 0.075411 -0.000000 0.000000
  1 -6.054656 22.409195 0.173408 -0.037738 0.191393 -0.368890
  2 0.000000 5.484109 -0.000001 0.906832 -1.753259 -1.015556
  3 0.000001 5.912185 0.000000 0.222382 -0.187849 -0.089523
  4 -0.000001 4.271069 -0.000000 -0.101749 -0.123992 0.107760
  5 0.000001 4.620900 0.000001 0.391113 0.276095 -0.094778
  6 0.305147 2.630685 1.615205 0.068220 -0.318615 0.139636
  7 -0.000001 3.347470 -1.402548 -0.509063 -0.087808 -0.084025
  8 0.000001 5.912185 0.000000 0.459781 -0.239096 -2.038708
  9 -0.000001 2.871584 0.000001 -1.758568 0.591551 0.186717
  10 0.000000 5.892740 -0.000000 -0.770218 0.228021 -0.829405
  11 -0.000000 10.675787 -0.000002 -0.622419 -1.438938 1.819605
  12 -0.405962 10.292089 -0.097794 1.535580 -0.735160 -0.728839
  13 -0.030740 5.877327 0.001372 2.672136 -0.316576 -1.099175
  14 0.000002 2.871584 0.000000 1.743573 -0.649879 0.231080
  15 -0.000001 5.892738 0.000000 0.524533 -0.193875 0.326846
  16 -0.000002 10.675789 0.000000 0.372681 1.430642 2.091350
  17 -0.333940 10.013592 0.308053 -1.278074 -0.890224 0.523576
  18 -6.054656 22.409195 0.173408 -1.406688 1.737532 1.101611
  19 0.000000 6.351503 0.000000 0.576997 0.217480 -0.136379
  20 -1.857084 5.496418 1.049205 -1.677343 0.501643 1.618257
  21 -0.000000 13.772747 -0.000005 -0.603627 0.960557 -2.084022
  22 0.000002 7.246486 0.000002 -1.111412 0.579276 -0.884313
  23 0.045478 7.648390 -0.051084 -1.024325 0.804991 -2.791614
  24 -0.000001 5.339063 0.000000 -0.007790 0.000327 0.041939
  25 0.000001 5.500854 0.000001 -0.011669 0.222956 -0.134735
  26 -0.000001 6.958815 0.000000 0.307954 0.395422 -0.060387
  27 1.885074 5.428184 1.059436 -1.848097 0.108841 1.541699
  28 0.000001 13.698039 0.000002 0.136430 -1.247992 -1.804327
  29 -0.000001 7.246483 0.000002 0.713352 -0.019423 -0.115587
  30 0.034066 7.649770 0.049423 0.804803 0.509053 2.116836
  31 -8.021589 -22.765995 -22.626160 -0.352727 0.150244 2.343585
  32 -18.104918 -23.857859 -22.246561 -3.046295 0.502517 -0.535275
  33 32.364582 30.811817 -6.641602 0.000000 1.337036 -1.570796
  34 -4.458717 39.996952 -29.514189 -0.000000 1.799565 -1.570796
  35 17.000158 8.355764 -23.019859 2.238532 -0.999547 -0.367566
  36 10.143729 21.085442 -23.168205 0.418367 0.110343 2.335009
  37 -30.150969 -8.354337 -18.159636 -0.000000 0.021977 1.570796
  38 -28.008600 4.987432 -22.553947 -0.000000 3.088139 1.570796
  time 1
  0 0.298907 -0.398544 -23.284607 1.570796 -0.000000 0.000000
  1 0.000000 24.704323 0.000001 0.000000 0.000001 -1.501388
  2 -0.000001 5.484108 -0.000001 -0.111908 -1.570796 0.000000
  3 -0.000000 5.912185 0.000001 0.392392 0.141354 0.754798
  4 -0.000000 4.271068 0.000000 -0.432837 -0.301649 0.063526
  5 0.000000 4.620898 0.000001 -0.463576 -0.141635 -0.033331
  6 0.330304 2.605091 1.602042 0.069110 -0.315934 0.138933
  7 -0.000001 3.347469 -1.402548 0.029741 0.435738 0.227221
  8 -0.000000 5.912185 0.000001 0.459781 -0.239096 -2.038707
  9 0.000000 2.871585 0.000000 -1.663138 0.622025 0.216000
  10 0.000001 5.892737 0.000000 -0.118201 -0.655759 -0.079675
  11 -0.000001 10.675781 -0.000000 -0.006762 -1.514939 0.011638
  12 -0.405963 10.292086 -0.097795 1.384514 -0.634677 -0.607798
  13 -0.030741 5.877326 0.001372 2.672136 -0.316577 -1.099175
  14 0.000000 2.871584 -0.000000 1.743573 -0.649880 0.231080
  15 0.000001 5.892738 0.000000 -0.148840 -0.159475 -0.434657
  16 0.000001 10.675786 0.000003 0.003167 1.497133 0.008241
  17 -0.333939 10.013589 0.308055 -1.276507 -0.789683 0.542239
  18 0.000000 24.704323 0.000001 -1.618356 1.667635 0.164154
  19 0.000000 6.351502 -0.000000 0.206577 0.001152 -0.097173
  20 -1.857082 5.496417 1.049204 -1.264655 0.000461 1.738477
  21 -0.000004 13.772741 -0.000006 -0.830854 1.196406 -1.836462
  22 0.000004 7.246480 0.000006 -1.009437 0.707727 -0.663610
  23 0.045475 7.648386 -0.051086 -1.066381 0.673166 -2.861126
  24 0.000001 5.339063 0.000000 -0.007790 0.000327 0.041939
  25 0.000001 5.500854 -0.000000 -0.360814 0.010535 -0.014028
  26 -0.000000 6.958814 0.000001 -0.422025 -0.000000 -0.029833
  27 1.885075 5.428183 1.059434 -1.979724 0.127909 1.682526
  28 0.000001 13.698038 -0.000002 0.133283 -1.356579 -1.076151
  29 0.000001 7.246490 0.000002 0.710094 -0.093239 -0.030299
  30 0.034057 7.649776 0.049412 1.449563 -0.078782 2.365910
  31 -18.560787 -7.595008 -22.626160 -0.380672 0.134998 2.201660
  32 -16.678350 9.205772 -22.601917 0.162706 2.655414 1.781410
  33 32.364582 8.243050 -6.165890 0.000000 1.337036 -1.570796
  34 32.543880 10.651133 -13.297186 -0.000000 1.799565 -1.570796
  35 12.864017 -8.759553 -22.802654 2.328747 -0.976648 -0.589182
  36 5.056297 9.953232 -22.606928 0.394405 0.131085 2.234619
  37 -30.150969 -7.086495 -15.762349 -0.000000 0.021977 1.570796
  38 -29.927073 4.987432 -15.762349 -0.000000 3.088139 1.570796
  time 2
  0 -3.517463 -0.398544 -20.156458 1.570796 -0.000000 0.000000
  1 0.000000 24.704325 0.000001 0.242301 0.030590 -1.016938
  2 -0.000001 5.484108 0.000000 -0.111908 -1.570796 0.000000
  3 -0.000000 5.912184 0.000001 0.442460 0.029191 0.127943
  4 -0.000000 4.271069 0.000001 -0.064761 0.287738 0.002881
  5 0.000001 4.620900 0.000001 -1.186994 -0.371193 0.051526
  6 0.355643 2.581509 1.590114 0.070993 -0.307862 0.136863
  7 0.000000 3.347470 -1.402548 -0.952210 -0.394326 0.056563
  8 -0.000000 5.912184 0.000001 0.459781 -0.239096 -2.038707
  9 -0.000000 2.871584 0.000001 -1.690668 0.613572 0.207225
  10 -0.000001 5.892739 0.000000 0.067892 -0.098991 -0.875800
  11 0.000002 10.675782 0.000001 -0.549901 -1.485877 1.215609
  12 -0.405962 10.292083 -0.097794 1.255603 -0.519318 -0.511408
  13 -0.030741 5.877326 0.001372 2.672136 -0.316577 -1.099175
  14 0.000000 2.871584 0.000001 1.738272 -0.337017 0.374030
  15 -0.000001 5.892737 0.000001 0.143206 0.025208 -0.574897
  16 -0.000001 10.675780 -0.000001 0.002311 1.494841 0.006669
  17 -0.333941 10.013587 0.308054 -1.281301 -0.695662 0.561093
  18 0.000000 24.704325 0.000001 -1.044523 1.312068 0.996644
  19 0.000001 6.351502 0.000001 0.073824 0.002103 -0.097908
  20 -1.857083 5.496418 1.049205 -0.934257 0.110100 2.302534
  21 -0.000003 13.772740 -0.000006 -0.575468 1.017331 -2.304740
  22 -0.000002 7.246484 0.000001 -0.668441 0.616604 -0.287140
  23 0.045483 7.648389 -0.051082 -1.089087 0.554559 -2.911653
  24 0.000000 5.339062 0.000001 -0.007790 0.000327 0.041939
  25 0.000001 5.500853 -0.000000 -0.202791 -0.250310 -0.225025
  26 0.000000 6.958814 0.000000 -0.113737 0.000000 -0.029833
  27 1.885074 5.428184 1.059436 -1.795612 0.003571 1.969567
  28 0.000001 13.698037 0.000001 0.294909 -1.312143 -1.433571
  29 0.000000 7.246482 0.000001 0.798418 -0.055613 -0.068276
  30 0.034064 7.649771 0.049413 1.465589 -0.011726 2.366375
  31 -15.605930 -5.759423 -18.207394 -0.405564 0.118553 2.076320
  32 -13.261891 9.910812 -22.634892 0.098319 2.638852 1.786463
  33 32.364582 -15.234774 -9.507935 0.000000 1.337036 -1.570796
  34 33.484398 -0.619809 -13.510512 -0.000000 1.799565 -1.570796
  35 8.372230 -8.506694 -12.526917 2.406511 -0.942743 -0.802834
  36 2.074389 4.089420 -14.053562 0.363856 0.149665 2.141820
  37 -30.150969 -5.857334 -16.135424 -0.000000 0.021977 1.570796
  38 -32.881088 4.965131 -15.791620 -0.000000 3.088139 1.570796
  time 3
  0 -3.040417 1.247859 -21.985109 1.662066 -0.000000 0.000000
  1 0.000000 24.704317 -0.000002 0.412803 -0.120258 -1.287029
  2 -0.000001 5.484107 0.000000 -0.111908 -1.570796 0.000000
  3 -0.000001 5.912184 0.000000 0.548784 -0.032173 -0.503342
  4 0.000000 4.271068 0.000000 0.433383 0.855012 0.229123
  5 0.000000 4.620899 0.000001 -0.013902 0.265897 -0.116295
  6 0.381077 2.559859 1.579354 0.073753 -0.294792 0.133562
  7 0.000001 3.347469 -1.402547 -0.371630 -0.549367 -0.053498
  8 -0.000001 5.912184 0.000000 0.459781 -0.239096 -2.038707
  9 0.000000 2.871585 0.000001 -1.758568 0.591551 0.186717
  10 0.000001 5.892742 0.000000 -0.050195 -0.291466 -0.721066
  11 -0.000001 10.675789 -0.000001 -0.558169 -1.470219 1.493719
  12 -0.405959 10.292092 -0.097792 1.145338 -0.393653 -0.436466
  13 -0.030740 5.877325 0.001371 2.672136 -0.316577 -1.099175
  14 0.000000 2.871584 0.000001 1.777190 -0.026450 0.507317
  15 -0.000000 5.892741 -0.000001 -0.251207 -0.198505 -0.856728
  16 0.000001 10.675785 -0.000002 0.299980 1.452188 1.871387
  17 -0.333945 10.013585 0.308051 -1.289066 -0.607480 0.576629
  18 0.000000 24.704317 -0.000002 -1.514441 1.693973 0.337159
  19 -0.000000 6.351501 -0.000001 -0.025778 0.004466 -0.100010
  20 -1.857083 5.496416 1.049204 -1.027961 0.199816 1.698283
  21 -0.000002 13.772738 -0.000006 -0.639920 1.061151 -2.234503
  22 -0.000001 7.246486 -0.000005 -0.719166 0.538344 -0.207571
  23 0.045480 7.648388 -0.051084 -1.101292 0.448687 -2.951432
  24 -0.000000 5.339062 0.000001 -0.007790 0.000327 0.041939
  25 -0.000000 5.500853 0.000001 -0.064020 -0.243928 -0.129276
  26 -0.000000 6.958816 0.000001 0.218747 0.000000 -0.029833
  27 1.885075 5.428182 1.059437 -2.013974 0.138493 1.521335
  28 0.000002 13.698034 0.000002 0.418100 -1.311560 -1.430269
  29 0.000001 7.246483 0.000002 0.844135 -0.049438 -0.070948
  30 0.034066 7.649776 0.049413 1.494146 0.155803 2.370869
  31 -16.649292 -8.201559 -20.637959 -0.426933 0.101259 1.965708
  32 -11.227731 10.209789 -22.590832 -0.055087 2.597288 1.807267
  33 32.364582 -16.562588 -15.366890 0.000000 1.337036 -1.570796
  34 34.191177 -15.575428 -13.704228 -0.000000 1.799565 -1.570796
  35 7.746171 -8.380263 -16.556973 2.467922 -0.899870 -1.003543
  36 2.559706 6.411725 -9.650402 0.328372 0.163584 2.055602
  37 -30.150969 -4.947975 -17.067743 -0.000000 0.021977 1.570796
  38 -35.841007 4.906338 -15.868790 -0.000000 3.088139 1.570796
  time 4
  0 -2.563370 2.894261 -23.813763 1.764269 -0.000000 0.000000
  1 0.000000 24.704325 0.000004 0.422949 -0.116329 -1.284041
  2 -0.000001 5.484108 -0.000000 -0.111908 -1.570796 0.000000
  3 0.000000 5.912186 -0.000000 0.541668 -0.075832 -0.308507
  4 0.000000 4.271068 -0.000001 0.242154 0.666678 0.081390
  5 0.000001 4.620898 -0.000001 0.150590 0.355092 0.112917
  6 0.406518 2.540056 1.569715 0.077260 -0.277113 0.129182
  7 -0.000001 3.347468 -1.402548 0.239651 -0.512780 -0.225063
  8 0.000000 5.912186 -0.000000 0.459781 -0.239096 -2.038708
  9 -0.000001 2.871585 -0.000000 -1.844745 0.561248 0.163169
  10 0.000000 5.892739 0.000001 0.069571 -0.237558 -0.584440
  11 0.000003 10.675788 0.000000 -0.477175 -1.488303 1.154989
  12 -0.405959 10.292091 -0.097795 1.049851 -0.261876 -0.379459
  13 -0.030741 5.877327 0.001372 2.672136 -0.316577 -1.099175
  14 0.000000 2.871584 0.000000 1.769011 -0.071390 0.487401
  15 0.000001 5.892737 0.000001 -0.309653 -0.023470 -1.023981
  16 0.000000 10.675789 0.000000 0.250962 1.451318 1.989555
  17 -0.333943 10.013593 0.308052 -1.297584 -0.524684 0.586406
  18 0.000000 24.704325 0.000004 -1.637706 1.667276 0.229045
  19 0.000000 6.351502 0.000000 -0.097254 0.007643 -0.103145
  20 -1.857083 5.496415 1.049205 -0.771754 0.050256 1.665241
  21 -0.000004 13.772738 -0.000006 -0.646894 1.067972 -2.229816
  22 -0.000003 7.246485 -0.000005 -0.795819 0.479773 -0.163340
  23 0.045487 7.648388 -0.051080 -1.107973 0.355333 -2.984489
  24 -0.000000 5.339063 0.000000 -0.007790 0.000327 0.041939
  25 0.000000 5.500853 0.000001 0.001009 -0.226985 0.113629
  26 0.000001 6.958813 -0.000000 0.257394 -0.111503 -0.062545
  27 1.885074 5.428185 1.059438 -1.999353 0.238216 1.478301
  28 0.000002 13.698034 -0.000003 0.267022 -1.250739 -1.657704
  29 0.000001 7.246483 0.000002 0.895453 -0.002235 -0.108137
  30 0.034063 7.649772 0.049415 1.529840 0.364562 2.383245
  31 -17.692656 -10.643696 -23.068523 -0.444099 0.083559 1.868869
  32 -10.062793 10.332873 -22.540218 -0.248597 2.542292 1.826160
  33 32.364582 -16.819935 -18.425550 0.000000 1.337036 -1.570796
  34 34.697609 -25.999355 -13.573567 -0.000000 1.799565 -1.570796
  35 8.164459 -8.253834 -20.587029 2.511933 -0.850715 -1.189005
  36 3.045024 5.456117 -10.460732 0.289930 0.170629 1.975396
  37 -30.150969 -4.310363 -18.371605 -0.000000 0.021977 1.570796
  38 -38.683609 4.823216 -15.977890 -0.000000 3.088139 1.570796
  time 5
  0 -2.086324 4.540664 -24.704172 1.878857 -0.000000 0.000000
  1 0.000000 24.704323 0.000003 0.450712 -0.105751 -1.275678
  2 -0.000000 5.484108 -0.000001 -0.111908 -1.570796 0.000000
  3 0.000000 5.912184 -0.000000 0.525693 -0.118204 -0.107994
  4 -0.000000 4.271069 0.000000 0.101124 0.455840 -0.009833
  5 -0.000000 4.620899 0.000000 0.342312 0.405383 0.367855
  6 0.431874 2.522020 1.561134 0.081373 -0.255208 0.123877
  7 -0.000001 3.347470 -1.402548 -0.417549 -0.340446 0.168025
  8 0.000000 5.912184 -0.000000 0.459781 -0.239096 -2.038707
  9 0.000000 2.871584 0.000000 -1.928435 0.529389 0.143172
  10 0.000001 5.892737 0.000001 0.197717 -0.226671 -0.603615
  11 -0.000002 10.675786 -0.000001 -0.488587 -1.470521 1.529596
  12 -0.405962 10.292090 -0.097795 0.965645 -0.127670 -0.337296
  13 -0.030741 5.877326 0.001373 2.672136 -0.316577 -1.099175
  14 0.000001 2.871585 -0.000000 1.752161 -0.185719 0.438119
  15 -0.000000 5.892735 -0.000001 -0.164903 0.118840 -1.091043
  16 0.000001 10.675787 -0.000001 0.221260 1.456122 1.928220
  17 -0.333943 10.013584 0.308051 -1.305223 -0.447021 0.588476
  18 0.000000 24.704323 0.000003 -1.938613 1.616183 -0.090721
  19 0.000001 6.351500 -0.000001 -0.145572 0.011177 -0.106853
  20 -1.857082 5.496414 1.049206 -0.618393 0.036979 1.788612
  21 -0.000004 13.772739 -0.000004 -0.552839 1.015194 -2.354580
  22 -0.000003 7.246481 -0.000005 -0.895474 0.430896 -0.148389
  23 0.045484 7.648392 -0.051087 -1.112469 0.274746 -3.012805
  24 -0.000000 5.339062 0.000000 -0.007790 0.000327 0.041939
  25 0.000000 5.500854 0.000000 0.027226 -0.211172 0.357329
  26 0.000001 6.958813 0.000000 0.290968 -0.320467 -0.130409
  27 1.885074 5.428184 1.059435 -1.942433 0.272409 1.554184
  28 -0.000001 13.698035 0.000002 0.215284 -1.231351 -1.722165
  29 -0.000001 7.246481 0.000003 0.927897 0.019999 -0.120958
  30 0.034061 7.649771 0.049413 1.564795 0.543516 2.401479
  31 -17.692654 -10.208467 -23.068523 -0.456221 0.066028 1.785599
  32 -9.254013 10.510235 -22.553537 2.722330 0.648375 -1.308241
  33 32.364582 -15.872017 -19.813145 0.000000 1.337036 -1.570796
  34 35.037086 -23.138201 -13.854698 -0.000000 1.799565 -1.570796
  35 10.498114 -7.874544 -21.310497 2.539634 -0.798087 -1.358923
  36 3.530342 3.841496 -12.591186 0.250793 0.168830 1.901044
  37 -30.150969 -3.896442 -19.859310 -0.000000 0.021977 1.570796
  38 -41.285683 4.727930 -16.102957 -0.000000 3.088139 1.570796
  time 6
  0 -1.609278 6.187067 -25.594582 2.007320 -0.000000 0.000000
  1 0.000000 24.704323 0.000003 0.488730 -0.091684 -1.263799
  2 0.000001 5.484108 -0.000000 -0.111908 -1.570796 0.000000
  3 0.000000 5.912186 -0.000000 0.501343 -0.156625 0.094781
  4 -0.000000 4.271068 0.000001 0.055203 0.120322 0.059374
  5 0.000000 4.620898 -0.000000 0.542258 0.408372 0.629440
  6 0.457061 2.505665 1.553554 0.085954 -0.229468 0.117800
  7 -0.000001 3.347470 -1.402548 -0.498437 -0.036447 0.286863
  8 0.000000 5.912186 -0.000000 0.459781 -0.239096 -2.038707
  9 -0.000000 2.871584 0.000000 -1.991078 0.504062 0.130185
  10 -0.000001 5.892738 0.000001 0.422177 -0.241489 -0.779437
  11 0.000000 10.675782 -0.000001 -0.430092 -1.455400 1.854119
  12 -0.405963 10.292087 -0.097795 0.889783 0.005845 -0.307521
  13 -0.030741 5.877326 0.001372 2.672136 -0.316577 -1.099175
  14 0.000000 2.871584 0.000000 1.738272 -0.337018 0.374029
  15 -0.000002 5.892735 -0.000001 0.053638 0.100592 -1.134030
  16 0.000002 10.675784 -0.000000 0.197265 1.464392 1.668363
  17 -0.333943 10.013581 0.308052 -1.310642 -0.374384 0.581101
  18 0.000000 24.704323 0.000003 -1.169955 1.430619 0.617475
  19 0.000001 6.351502 0.000000 -0.175448 0.014673 -0.110625
  20 -1.857082 5.496418 1.049204 -0.427513 0.034784 1.998862
  21 -0.000003 13.772738 -0.000003 -0.507788 0.988908 -2.391773
  22 -0.000001 7.246481 -0.000007 -1.062308 0.384209 -0.150386
  23 0.045485 7.648386 -0.051083 -1.117406 0.207625 -3.037246
  24 0.000002 5.339062 -0.000001 -0.007790 0.000327 0.041939
  25 0.000001 5.500853 0.000000 0.042856 -0.205528 0.464033
  26 0.000002 6.958815 -0.000000 0.311435 -0.432718 -0.171444
  27 1.885075 5.428185 1.059433 -1.818484 0.303900 1.828356
  28 0.000005 13.698040 -0.000005 0.204978 -1.232953 -1.705563
  29 0.000001 7.246486 0.000005 0.964958 0.026111 -0.119853
  30 0.034058 7.649769 0.049415 1.581721 0.618837 2.412024
  31 -17.692656 -10.075235 -23.068523 -0.462360 0.049362 1.716297
  32 -8.288321 10.972046 -22.701279 2.648689 0.669281 -1.308076
  33 32.364582 -13.584042 -20.658905 0.000000 1.337036 -1.570796
  34 35.243000 -16.035791 -14.459970 -0.000000 1.799565 -1.570796
  35 10.309958 -7.495255 -22.033966 -0.588314 -2.397055 1.627468
  36 4.015659 3.446166 -15.590965 0.213449 0.156430 1.832703
  37 -30.150969 -3.658156 -21.343153 -0.000000 0.021977 1.570796
  38 -43.524010 4.632644 -16.228024 -0.000000 3.088139 1.570796
  time 7
  0 -1.132232 13.699859 -22.725996 2.616754 -0.000000 0.000000
  1 0.000000 24.704323 0.000000 0.439064 -0.080702 -1.228229
  2 0.000000 5.484108 0.000000 -0.111908 -1.570796 0.000000
  3 0.000000 5.912186 0.000000 0.470108 -0.188832 0.295961
  4 -0.000001 4.271068 0.000000 -0.010946 -0.196786 0.140781
  5 -0.000000 4.620899 -0.000001 0.727500 0.366790 0.874690
  6 0.481983 2.490914 1.546916 0.090863 -0.200291 0.111103
  7 -0.000001 3.347469 -1.402548 -0.547416 0.144922 0.300384
  8 0.000000 5.912186 0.000000 0.459781 -0.239096 -2.038708
  9 -0.000000 2.871584 0.000000 -2.015709 0.493774 0.125563
  10 -0.000001 5.892739 -0.000000 0.297087 -0.315002 -0.894942
  11 -0.000000 10.675786 -0.000000 -0.305050 -1.439940 2.278985
  12 -0.405961 10.292090 -0.097799 0.824731 -0.213438 -0.196695
  13 -0.030740 5.877326 0.001372 2.672136 -0.316577 -1.099175
  14 0.000001 2.871585 -0.000000 1.734391 -0.488866 0.307902
  15 -0.000001 5.892737 0.000000 0.340738 -0.067170 -1.154463
  16 -0.000000 10.675787 -0.000001 0.158430 1.470231 1.403544
  17 -0.333942 10.013592 0.308053 -1.312626 -0.306734 0.562610
  18 0.000000 24.704323 0.000000 -1.210171 1.460920 0.653757
  19 0.000001 6.351502 -0.000000 -0.191373 0.017737 -0.113939
  20 -1.857083 5.496416 1.049205 -1.060653 0.481125 2.545120
  21 -0.000001 13.772743 -0.000005 -0.281944 0.885381 -2.602598
  22 -0.000003 7.246479 -0.000005 -1.251084 0.306147 -0.166272
  23 0.045483 7.648388 -0.051087 -1.180106 0.190658 -3.063113
  24 0.000000 5.339063 -0.000000 -0.007790 0.000327 0.041939
  25 0.000001 5.500854 -0.000000 0.085365 -0.098829 0.443519
  26 0.000000 6.958814 0.000000 0.192066 -0.269893 -0.131699
  27 1.885075 5.428184 1.059437 -1.601694 0.254542 1.920971
  28 0.000002 13.698036 0.000002 0.157806 -1.177911 -1.832854
  29 -0.000001 7.246480 0.000002 1.025882 0.080587 -0.148304
  30 0.034061 7.649772 0.049419 1.559963 0.578334 2.394578
  31 -7.144668 5.685412 -22.907125 -0.404748 0.029934 1.695017
  32 -8.003564 12.142061 -22.695494 2.696290 0.652062 -1.295639
  33 32.364582 -9.292769 -22.037029 0.000000 1.337036 -1.570796
  34 35.348736 -6.913702 -15.032199 -0.000000 1.799565 -1.570796
  35 12.658986 -1.553111 -22.388094 2.373363 -0.644702 -1.213947
  36 6.001321 5.883206 -18.807987 0.180537 0.131844 1.770686
  37 -30.150969 -3.547449 -22.635433 -0.000000 0.021977 1.570796
  38 -45.275368 4.549522 -16.337126 -0.000000 3.088139 1.570796
  time 8
  0 -0.655185 21.212650 -19.857409 3.099505 -0.000000 0.000000
  1 0.000000 24.704321 0.000001 0.304941 -0.041657 -1.133780
  2 -0.000001 5.484108 -0.000001 -0.111908 -1.570796 0.000000
  3 0.000001 5.912186 0.000000 0.454125 -0.182924 0.289621
  4 -0.000001 4.271068 -0.000000 -0.054711 -0.239099 0.014669
  5 -0.000000 4.620899 -0.000000 0.391112 0.276095 -0.094778
  6 0.506559 2.477683 1.541167 0.095972 -0.168089 0.103924
  7 -0.000000 3.347470 -1.402548 -0.754394 0.217960 0.317624
  8 0.000001 5.912186 0.000000 0.459781 -0.239096 -2.038707
  9 -0.000001 2.871584 -0.000000 -2.015709 0.493774 0.125563
  10 0.000002 5.892740 -0.000002 0.112752 -0.451044 -0.881582
  11 -0.000001 10.675793 0.000002 -0.241977 -1.442408 2.396025
  12 -0.405959 10.292096 -0.097791 0.722012 -0.435309 -0.053434
  13 -0.030741 5.877326 0.001372 2.672136 -0.316577 -1.099175
  14 0.000001 2.871584 -0.000000 1.739343 -0.604332 0.253879
  15 -0.000003 5.892738 -0.000000 0.502434 0.042718 -1.436263
  16 0.000000 10.675787 0.000002 0.123687 1.467552 1.643011
  17 -0.333943 10.013585 0.308048 -1.309982 -0.243997 0.531319
  18 0.000000 24.704321 0.000001 -1.365617 1.551532 0.724557
  19 0.000001 6.351501 -0.000000 -0.197725 0.019936 -0.116282
  20 -1.857085 5.496418 1.049204 -1.452805 0.220408 2.220970
  21 -0.000001 13.772745 -0.000009 -0.778089 1.160661 -1.973951
  22 0.000004 7.246484 0.000004 -1.234484 0.368577 -0.136147
  23 0.045481 7.648379 -0.051078 -1.242523 0.172023 -3.087914
  24 -0.000001 5.339063 -0.000001 -0.007790 0.000327 0.041939
  25 0.000000 5.500854 -0.000000 0.136474 0.105768 0.368591
  26 0.000001 6.958815 -0.000002 -0.052580 0.043285 -0.103545
  27 1.885074 5.428185 1.059436 -1.645641 0.280636 1.906428
  28 0.000005 13.698035 -0.000000 -0.091664 -0.984436 -2.164605
  29 -0.000002 7.246484 0.000000 1.050252 0.270497 -0.246531
  30 0.034059 7.649764 0.049415 1.501713 0.453800 2.350026
  31 3.403318 21.446056 -22.745728 -0.346396 0.011658 1.672520
  32 -7.149289 15.652108 -22.678143 2.835438 0.597302 -1.265100
  33 32.364582 -4.512064 -23.779877 0.000000 1.337036 -1.570796
  34 35.387695 2.006501 -15.214207 -0.000000 1.799565 -1.570796
  35 15.008013 4.389031 -22.742222 2.241282 -0.502255 -0.946289
  36 8.163694 9.528702 -21.341890 0.154755 0.093618 1.715252
  37 -30.150969 -3.516266 -23.548452 -0.000000 0.021977 1.570796
  38 -46.416542 4.490728 -16.414295 -0.000000 3.088139 1.570796
end
