version 1
nodes
0 "Bone.016" -1
1 "Bone" 0
2 "Bone.001" 1
3 "Bone.002" 2
4 "Bone.003" 3
5 "Bone.004" 4
6 "Bone.006" 5
7 "Bone.009" 5
8 "Leg.L.001" 2
9 "Leg.L.002" 8
10 "Leg.L.003" 9
11 "Leg.L.004" 10
12 "Leg.L.006" 11
13 "Leg.R.001" 2
14 "Leg.R.002" 13
15 "Leg.R.003" 14
16 "Leg.R.004" 15
17 "Leg.R.006" 16
18 "Bone.011" 0
19 "Bone.012" 18
20 "BLeg.L.002" 19
21 "BLeg.L.004" 20
22 "BLeg.L.005" 21
23 "BLeg.L.007" 22
24 "Bone.013" 19
25 "Bone.014" 24
26 "Bone.015" 25
27 "BLeg.R.002" 19
28 "BLeg.R.004" 27
29 "BLeg.R.005" 28
30 "BLeg.R.007" 29
31 "BLeg_ik.L.001" -1
32 "BLeg_ik.R.001" -1
33 "LegPull.L.001" -1
34 "LegPull.R.001" -1
35 "Leg_ik.L.001" -1
36 "Leg_ik.R.001" -1
37 "BLeg_pull.L.001" -1
38 "BLeg_pull.R.001" -1
end
skeleton
  time 0
  0 0.298907 -0.398544 -21.423973 1.570796 -0.000000 0.000000
  1 0.000000 24.704323 0.000001 0.000000 0.000001 -1.743339
  2 -0.000000 5.484108 -0.000000 -0.087131 -1.570796 0.000000
  3 -0.000000 5.912184 0.000001 -0.179905 0.127825 -0.036146
  4 0.000000 4.271068 -0.000001 0.215942 -0.000000 0.000000
  5 0.000000 4.620897 0.000001 -0.023431 0.177788 -0.025988
  6 0.000001 3.669896 2.090486 -0.065828 -0.137075 0.009008
  7 -0.000000 3.987226 -1.461601 0.036515 0.033152 -0.000285
  8 -0.000000 5.912184 0.000001 0.459781 -0.239096 -2.038707
  9 -0.000001 2.871584 -0.000000 -1.754836 0.462225 0.385640
  10 -0.000000 5.892741 0.000001 0.032694 0.227205 -0.269876
  11 0.000003 10.675784 -0.000001 0.167206 -1.380186 0.196583
  12 -0.405956 10.292087 -0.097787 1.087908 0.082227 0.242943
  13 -0.030741 5.877326 0.001372 2.672136 -0.316577 -1.099175
  14 0.000000 2.871584 0.000000 1.757379 -0.617741 0.373635
  15 -0.000002 5.892736 0.000001 -0.022168 -0.312464 -0.363370
  16 0.000002 10.675790 0.000001 -0.065342 1.457166 0.338648
  17 -0.333942 10.013586 0.308054 -0.786843 -0.008072 0.209459
  18 0.000000 24.704323 0.000001 -1.654218 1.666870 0.127458
  19 -0.000001 6.351501 0.000001 0.127028 0.001869 -0.099108
  20 -1.857082 5.496417 1.049204 -1.547301 -0.283526 1.869074
  21 0.000005 13.772745 -0.000011 -1.136260 1.288699 -1.654836
  22 0.000003 7.246485 0.000008 -1.634888 0.450762 0.064745
  23 0.045481 7.648377 -0.051085 0.485615 3.081272 0.401488
  24 0.000000 5.339062 0.000000 0.001888 -0.000079 0.041940
  25 0.000000 5.500853 0.000000 -0.101851 0.003034 -0.012261
  26 0.000001 6.958813 -0.000000 -0.363509 0.000000 -0.029834
  27 1.885075 5.428185 1.059437 -1.676410 -0.392371 1.476045
  28 0.000001 13.698039 -0.000001 0.867031 -1.257090 -1.361213
  29 -0.000002 7.246485 0.000005 2.102774 -0.202333 -0.025472
  30 0.034067 7.649773 0.049417 -1.083197 2.721138 -0.480658
  31 -13.534630 -4.958448 -20.441195 1.076535 0.463569 1.631300
  32 -14.081778 2.710353 -17.316864 -0.772607 2.503488 1.263708
  33 43.263412 -4.735948 4.772236 0.000000 1.337036 -1.570796
  34 46.446648 7.803223 0.527271 -0.000000 1.799565 -1.570796
  35 3.760083 -7.608789 -20.817575 2.811524 -0.214643 -1.557168
  36 4.409498 6.162028 -21.008621 0.629491 -0.214818 1.420195
  37 -54.174271 -13.491360 -15.262821 -0.000000 0.021977 1.570796
  38 -29.927073 4.987432 -15.762349 -0.000000 3.088139 1.570796
  time 1
  0 0.298907 -0.398544 -23.953407 1.570796 -0.000000 0.000000
  1 0.000000 24.704325 0.000001 0.000000 0.000001 -1.732170
  2 0.000001 5.484107 -0.000001 -0.012203 -1.570796 0.000000
  3 0.000000 5.912185 -0.000001 0.100979 0.000000 -0.000000
  4 -0.000000 4.271068 0.000000 -0.213512 -0.000000 0.000000
  5 -0.000000 4.620900 -0.000000 0.179067 -0.000000 -0.000000
  6 0.000000 4.309649 2.031432 -0.431082 -0.124938 0.057251
  7 -0.000001 3.347470 -1.402547 -0.341162 0.030898 -0.012020
  8 0.000000 5.912185 -0.000001 0.459781 -0.239096 -2.038707
  9 -0.000000 2.871584 -0.000000 -1.746849 0.003076 0.534853
  10 0.000001 5.892740 -0.000000 0.069075 0.254611 0.297244
  11 -0.000001 10.675789 0.000001 0.335600 -1.395180 0.397722
  12 -0.405962 10.292091 -0.097791 1.188329 0.007734 0.229728
  13 -0.030740 5.877327 0.001372 2.672136 -0.316577 -1.099175
  14 0.000001 2.871584 -0.000000 1.743573 -0.649880 0.231080
  15 0.000001 5.892738 -0.000000 0.028396 -0.142144 -0.157168
  16 0.000001 10.675789 0.000001 -0.207028 1.452321 0.678799
  17 -0.333948 10.013583 0.308056 -0.839887 -0.013411 0.219946
  18 0.000000 24.704325 0.000001 -1.582676 1.667976 0.045887
  19 0.000000 6.351502 -0.000001 0.206576 0.001152 -0.097173
  20 -1.857083 5.496417 1.049208 -1.268806 -0.116436 1.687025
  21 0.000005 13.772744 -0.000006 -0.653489 1.450686 -0.997219
  22 0.000003 7.246481 0.000004 -0.427943 0.180061 0.046669
  23 0.045486 7.648384 -0.051083 -1.455091 0.094320 3.016419
  24 0.000001 5.339063 -0.000000 -0.007790 0.000327 0.041939
  25 0.000000 5.500854 0.000000 -0.620501 0.017350 -0.017669
  26 0.000001 6.958814 0.000001 -0.502596 -0.001628 -0.018132
  27 1.885075 5.428185 1.059438 -1.812597 0.110603 1.662567
  28 0.000002 13.698040 0.000001 -0.331885 -1.359095 -0.377513
  29 -0.000000 7.246484 0.000000 0.825840 -0.093028 -0.025161
  30 0.034066 7.649779 0.049413 1.722556 -0.003412 2.286515
  31 -19.093946 -11.119112 -22.809910 -0.140627 -0.143506 1.576131
  32 -16.653879 7.137786 -22.764248 -0.109927 2.717126 1.515590
  33 43.263412 -4.735948 4.772236 0.000000 1.337036 -1.570796
  34 46.446648 7.803223 0.527271 -0.000000 1.799565 -1.570796
  35 7.645240 -7.907905 -21.894600 2.915354 -0.249576 -1.514005
  36 15.207771 7.106244 -21.863373 0.574245 -0.211636 1.435721
  37 -54.174271 -12.912366 -15.762349 -0.000000 0.021977 1.570796
  38 -29.927073 4.987432 -15.762349 -0.000000 3.088139 1.570796
  time 2
  0 0.298907 -0.398544 -24.476202 1.570796 -0.000000 0.000000
  1 0.000000 24.704325 0.000001 -0.000000 0.000001 -1.719976
  2 0.000000 5.484108 0.000001 0.005393 -1.570796 0.000000
  3 -0.000000 5.912184 0.000001 0.100979 0.000000 -0.000000
  4 -0.000000 4.271068 0.000000 -0.201434 -0.000000 0.000000
  5 -0.000000 4.620899 0.000001 0.203026 -0.000000 -0.000000
  6 0.000001 4.309651 2.031435 -0.431081 -0.124938 0.057251
  7 -0.000001 3.347469 -1.402548 -0.426300 0.030898 -0.012020
  8 -0.000000 5.912184 0.000001 0.459781 -0.239096 -2.038707
  9 0.000000 2.871584 -0.000001 -1.746849 0.003076 0.534852
  10 -0.000000 5.892741 0.000000 0.050983 0.261835 0.212814
  11 0.000002 10.675784 0.000001 0.401009 -1.394396 0.440139
  12 -0.405959 10.292084 -0.097794 1.151930 0.008428 0.229433
  13 -0.030741 5.877326 0.001373 2.672136 -0.316577 -1.099175
  14 -0.000000 2.871584 0.000000 1.743573 -0.649880 0.231080
  15 -0.000002 5.892735 0.000001 0.035777 -0.138566 -0.223854
  16 0.000002 10.675782 0.000002 -0.295979 1.440516 0.667148
  17 -0.333946 10.013578 0.308054 -0.815610 -0.013809 0.219581
  18 0.000000 24.704325 0.000001 -1.582675 1.667995 0.055709
  19 0.000001 6.351502 0.000000 0.206576 0.001152 -0.097173
  20 -1.857082 5.496416 1.049205 -1.250467 -0.099053 1.696204
  21 0.000006 13.772735 -0.000005 -0.770985 1.404192 -1.307778
  22 0.000002 7.246480 0.000006 -0.672247 0.189295 0.062594
  23 0.045482 7.648375 -0.051086 -1.475146 0.081097 3.025436
  24 0.000001 5.339062 0.000001 0.049820 -0.002090 0.041888
  25 -0.000000 5.500853 0.000000 -0.553198 0.024494 0.017191
  26 0.000001 6.958814 0.000001 -0.614896 -0.003393 0.011401
  27 1.885076 5.428183 1.059438 -1.827105 0.128857 1.651001
  28 -0.000001 13.698034 0.000000 -0.347209 -1.361284 -0.507230
  29 -0.000000 7.246480 0.000001 0.970182 -0.079807 -0.035231
  30 0.034064 7.649769 0.049413 1.736313 0.012851 2.286671
  31 -19.093946 -11.119112 -22.809910 -0.119010 -0.131843 1.563390
  32 -16.653879 7.137786 -22.764248 -0.133260 2.718320 1.505972
  33 43.263412 -4.735948 4.772236 0.000000 1.337036 -1.570796
  34 46.446648 7.803223 0.527271 -0.000000 1.799565 -1.570796
  35 7.645240 -7.916714 -21.895201 2.877867 -0.247342 -1.504785
  36 15.207771 7.106244 -21.863373 0.598833 -0.208305 1.430596
  37 -54.174271 -12.912366 -15.762349 -0.000000 0.021977 1.570796
  38 -29.927073 4.987432 -15.762349 -0.000000 3.088139 1.570796
  time 3
  0 0.298907 -0.398544 -24.744665 1.570796 -0.000000 0.000000
  1 0.000000 24.704325 0.000001 0.000000 0.000001 -1.711495
  2 0.000000 5.484108 -0.000001 0.018607 -1.570796 0.000000
  3 0.000001 5.912185 -0.000000 0.100979 0.000000 -0.000000
  4 0.000000 4.271069 0.000000 -0.172621 -0.000000 -0.000000
  5 -0.000000 4.620899 -0.000001 0.175598 -0.000000 0.000000
  6 0.000001 4.309650 2.031433 -0.431081 -0.124938 0.057251
  7 -0.000000 3.347471 -1.402548 -0.438162 0.030898 -0.012020
  8 0.000001 5.912185 -0.000000 0.459781 -0.239096 -2.038707
  9 -0.000000 2.871584 -0.000000 -1.746849 0.003076 0.534852
  10 0.000000 5.892741 -0.000000 0.039594 0.264880 0.166760
  11 0.000002 10.675783 0.000001 0.444747 -1.387427 0.440216
  12 -0.405960 10.292089 -0.097790 1.115507 0.009112 0.229114
  13 -0.030740 5.877326 0.001372 2.672136 -0.316577 -1.099175
  14 0.000000 2.871584 0.000000 1.743573 -0.649880 0.231080
  15 -0.000001 5.892736 -0.000000 0.041681 -0.135458 -0.262066
  16 0.000002 10.675788 -0.000000 -0.355852 1.427073 0.636343
  17 -0.333948 10.013580 0.308063 -0.791326 -0.014197 0.219206
  18 0.000000 24.704325 0.000001 -1.582676 1.667985 0.073945
  19 0.000000 6.351502 -0.000001 0.206577 0.001152 -0.097173
  20 -1.857083 5.496418 1.049202 -1.236678 -0.104209 1.701644
  21 0.000006 13.772739 -0.000007 -0.796231 1.371189 -1.442658
  22 0.000003 7.246480 0.000007 -0.811742 0.192692 0.066516
  23 0.045486 7.648379 -0.051081 -1.519421 0.053093 3.045813
  24 0.000000 5.339064 0.000000 0.049652 -0.002082 0.041888
  25 -0.000000 5.500854 -0.000001 -0.427358 0.031475 0.083064
  26 0.000000 6.958815 0.000000 -0.660936 -0.004715 0.049867
  27 1.885075 5.428185 1.059435 -1.841013 0.130181 1.641700
  28 0.000001 13.698036 0.000000 -0.341232 -1.361237 -0.612141
  29 -0.000001 7.246486 0.000001 1.062570 -0.067088 -0.042800
  30 0.034069 7.649775 0.049414 1.766636 0.048638 2.287803
  31 -19.093946 -11.119112 -22.809910 -0.072325 -0.105659 1.536734
  32 -16.653879 7.137786 -22.764248 -0.184526 2.721667 1.484942
  33 43.263412 -4.735948 4.772236 0.000000 1.337036 -1.570796
  34 46.446648 7.803223 0.527271 -0.000000 1.799565 -1.570796
  35 7.645240 -7.925522 -21.895803 2.840400 -0.244773 -1.495658
  36 15.207771 7.106244 -21.863373 0.623393 -0.204851 1.425558
  37 -54.174271 -12.912366 -15.762349 -0.000000 0.021977 1.570796
  38 -29.927073 4.987432 -15.762349 -0.000000 3.088139 1.570796
  time 4
  0 0.298907 -0.398544 -24.843573 1.570796 -0.000000 0.000000
  1 0.000000 24.704325 0.000001 0.000000 0.000001 -1.706540
  2 -0.000000 5.484108 -0.000000 0.028071 -1.570796 0.000000
  3 0.000000 5.912185 0.000000 0.100979 0.000000 -0.000000
  4 0.000000 4.271067 -0.000001 -0.138223 -0.000000 -0.000000
  5 -0.000000 4.620899 -0.000000 0.115192 -0.000000 -0.000000
  6 0.000000 4.309649 2.031435 -0.431081 -0.124938 0.057251
  7 -0.000001 3.347470 -1.402547 -0.430237 0.030898 -0.012020
  8 0.000000 5.912185 0.000000 0.459781 -0.239096 -2.038707
  9 0.000000 2.871584 0.000001 -1.746849 0.003076 0.534852
  10 0.000001 5.892741 0.000001 0.035001 0.265396 0.144673
  11 0.000001 10.675788 0.000001 0.459518 -1.383032 0.434801
  12 -0.405958 10.292091 -0.097796 1.079083 0.009783 0.228769
  13 -0.030740 5.877326 0.001372 2.672136 -0.316577 -1.099175
  14 0.000000 2.871585 0.000000 1.743573 -0.649880 0.231080
  15 -0.000001 5.892738 0.000002 0.046819 -0.133144 -0.281202
  16 0.000001 10.675788 0.000002 -0.393299 1.412153 0.601630
  17 -0.333944 10.013585 0.308055 -0.767042 -0.014577 0.218821
  18 0.000000 24.704325 0.000001 -1.582676 1.667976 0.083765
  19 0.000000 6.351501 -0.000001 0.206577 0.001152 -0.097173
  20 -1.857082 5.496417 1.049204 -1.230414 -0.109659 1.703804
  21 0.000008 13.772738 -0.000006 -0.800780 1.356696 -1.490113
  22 0.000004 7.246476 0.000004 -0.866969 0.193246 0.067042
  23 0.045485 7.648371 -0.051081 -1.564274 0.026040 3.067369
  24 0.000001 5.339062 -0.000001 0.048476 -0.002033 0.041891
  25 0.000000 5.500853 0.000000 -0.359658 0.031788 0.118658
  26 -0.000001 6.958813 0.000001 -0.543725 -0.014005 0.088498
  27 1.885075 5.428185 1.059434 -1.847284 0.129002 1.637453
  28 0.000001 13.698034 0.000002 -0.339111 -1.359834 -0.656547
  29 0.000001 7.246480 0.000002 1.099282 -0.061268 -0.045906
  30 0.034066 7.649777 0.049412 1.797071 0.084375 2.290026
  31 -19.093946 -11.119112 -22.809910 -0.026406 -0.078295 1.511414
  32 -16.653879 7.137786 -22.764248 -0.235618 2.725991 1.464162
  33 43.263412 -4.735948 4.772236 0.000000 1.337036 -1.570796
  34 46.446648 7.803223 0.527271 -0.000000 1.799565 -1.570796
  35 7.645240 -7.934330 -21.896406 2.802985 -0.241874 -1.486643
  36 15.207771 7.106244 -21.863373 0.647917 -0.201276 1.420612
  37 -54.174271 -12.912366 -15.762349 -0.000000 0.021977 1.570796
  38 -29.927073 4.987432 -15.762349 -0.000000 3.088139 1.570796
  time 5
  0 0.298907 -0.398544 -24.857702 1.570796 -0.000000 0.000000
  1 0.000000 24.704325 0.000001 0.000000 0.000001 -1.704929
  2 -0.000000 5.484108 0.000000 0.034412 -1.570796 0.000000
  3 0.000000 5.912186 -0.000001 0.100979 -0.000000 -0.000000
  4 -0.000000 4.271068 -0.000000 -0.109410 -0.000000 0.000000
  5 -0.000000 4.620899 0.000000 0.054785 -0.000000 -0.000000
  6 0.000001 4.309650 2.031433 -0.431081 -0.124938 0.057251
  7 -0.000001 3.347470 -1.402547 -0.425879 0.030898 -0.012020
  8 0.000000 5.912186 -0.000001 0.459781 -0.239096 -2.038707
  9 -0.000000 2.871584 0.000001 -1.746849 0.003076 0.534852
  10 0.000001 5.892741 0.000001 0.035724 0.264723 0.136096
  11 0.000002 10.675786 0.000002 0.453356 -1.384805 0.437210
  12 -0.405961 10.292090 -0.097792 1.042682 0.010441 0.228402
  13 -0.030740 5.877326 0.001372 2.672136 -0.316577 -1.099175
  14 0.000001 2.871584 0.000000 1.743573 -0.649880 0.231080
  15 0.000000 5.892738 0.000001 0.042828 -0.131765 -0.289461
  16 0.000002 10.675785 0.000001 -0.370472 1.420984 0.617638
  17 -0.333947 10.013577 0.308057 -0.742765 -0.014947 0.218428
  18 0.000000 24.704325 0.000001 -1.582676 1.667976 0.079826
  19 0.000000 6.351501 -0.000001 0.206577 0.001152 -0.097173
  20 -1.857084 5.496416 1.049204 -1.230977 -0.106917 1.703286
  21 0.000003 13.772738 -0.000004 -0.802540 1.358841 -1.484782
  22 0.000003 7.246476 0.000004 -0.859287 0.193257 0.067046
  23 0.045483 7.648377 -0.051085 -1.584864 0.014067 3.077560
  24 -0.000000 5.339063 -0.000001 0.045286 -0.001900 0.041897
  25 0.000000 5.500854 -0.000000 -0.386782 0.031952 0.104396
  26 0.000001 6.958813 -0.000001 -0.323153 -0.033879 0.115961
  27 1.885074 5.428184 1.059435 -1.845908 0.131885 1.638127
  28 0.000001 13.698036 -0.000001 -0.341912 -1.359528 -0.647926
  29 -0.000000 7.246485 0.000004 1.093362 -0.062427 -0.045369
  30 0.034067 7.649775 0.049413 1.810955 0.100584 2.291399
  31 -19.093946 -11.119112 -22.809910 -0.005777 -0.065479 1.500343
  32 -16.653879 7.137786 -22.764248 -0.258758 2.728274 1.454822
  33 43.263412 -4.735948 4.772236 0.000000 1.337036 -1.570796
  34 46.446648 7.803223 0.527271 -0.000000 1.799565 -1.570796
  35 7.645240 -7.943139 -21.897007 2.765651 -0.238653 -1.477758
  36 15.207771 7.106244 -21.863373 0.672397 -0.197586 1.415762
  37 -54.174271 -12.912366 -15.762349 -0.000000 0.021977 1.570796
  38 -29.927073 4.987432 -15.762349 -0.000000 3.088139 1.570796
  time 6
  0 0.298907 -0.398544 -24.716406 1.570796 -0.000000 0.000000
  1 0.000000 24.704325 0.000001 0.000000 0.000001 -1.705355
  2 0.000001 5.484108 0.000000 0.038257 -1.570796 0.000000
  3 -0.000000 5.912185 -0.000000 0.100979 -0.000000 0.000000
  4 0.000000 4.271068 -0.000001 -0.097332 -0.000000 -0.000000
  5 -0.000000 4.620898 0.000001 0.027358 -0.000000 0.000000
  6 0.000001 4.309650 2.031433 -0.431081 -0.124938 0.057251
  7 -0.000001 3.347470 -1.402548 -0.413228 0.030898 -0.012020
  8 -0.000000 5.912185 -0.000000 0.459781 -0.239096 -2.038707
  9 -0.000000 2.871584 -0.000001 -1.746849 0.003076 0.534852
  10 -0.000000 5.892741 -0.000000 0.041027 0.260935 0.146713
  11 0.000001 10.675783 0.000001 0.424737 -1.387878 0.430269
  12 -0.405959 10.292090 -0.097793 1.074388 0.009869 0.228723
  13 -0.030741 5.877326 0.001373 2.672136 -0.316577 -1.099175
  14 0.000000 2.871584 0.000001 1.743573 -0.649880 0.231080
  15 0.000001 5.892739 0.000000 0.038226 -0.130498 -0.282690
  16 0.000002 10.675781 0.000002 -0.335116 1.428775 0.620822
  17 -0.333949 10.013577 0.308057 -0.781161 -0.014358 0.219046
  18 0.000000 24.704325 0.000001 -1.582676 1.667976 0.070432
  19 0.000000 6.351502 0.000001 0.206577 0.001152 -0.097173
  20 -1.857083 5.496417 1.049205 -1.238337 -0.103410 1.700613
  21 0.000004 13.772739 -0.000007 -0.800945 1.375733 -1.431029
  22 0.000003 7.246481 0.000007 -0.794240 0.192502 0.066314
  23 0.045485 7.648378 -0.051084 -1.551986 0.033386 3.061315
  24 0.000000 5.339063 -0.000000 0.039071 -0.001639 0.041908
  25 0.000000 5.500854 -0.000001 -0.451620 0.030776 0.070320
  26 -0.000000 6.958814 -0.000001 -0.204311 -0.045772 0.124749
  27 1.885075 5.428184 1.059436 -1.838261 0.131507 1.643106
  28 0.000001 13.698041 0.000002 -0.347932 -1.360192 -0.592488
  29 -0.000000 7.246488 0.000002 1.049162 -0.069675 -0.041525
  30 0.034064 7.649770 0.049412 1.788756 0.074638 2.289311
  31 -19.093946 -11.119112 -22.809910 -0.038853 -0.085934 1.518247
  32 -16.653879 7.137786 -22.764248 -0.221707 2.724716 1.469799
  33 43.263412 -4.735948 4.772236 0.000000 1.337036 -1.570796
  34 46.446648 7.803223 0.527271 -0.000000 1.799565 -1.570796
  35 7.645240 -7.934330 -21.896406 2.798166 -0.241477 -1.485489
  36 15.207771 7.106244 -21.855103 0.633663 -0.203369 1.423476
  37 -54.174271 -12.912366 -15.762349 -0.000000 0.021977 1.570796
  38 -29.927073 4.987432 -15.762349 -0.000000 3.088139 1.570796
  time 7
  0 0.298907 -0.398544 -24.405556 1.570796 -0.000000 0.000000
  1 0.000000 24.704327 0.000001 0.000000 0.000001 -1.708334
  2 0.000001 5.484108 -0.000001 0.040231 -1.570796 0.000000
  3 0.000000 5.912185 -0.000001 0.100979 0.000000 -0.000000
  4 0.000000 4.271069 -0.000001 -0.103407 -0.000000 -0.000000
  5 -0.000000 4.620900 -0.000000 0.030387 -0.000000 0.000000
  6 0.000001 4.309649 2.031434 -0.431081 -0.124938 0.057251
  7 -0.000000 3.347469 -1.402547 -0.393520 0.030898 -0.012020
  8 0.000000 5.912185 -0.000001 0.459781 -0.239096 -2.038707
  9 0.000000 2.871585 0.000000 -1.746849 0.003076 0.534852
  10 -0.000002 5.892742 0.000001 0.051791 0.254389 0.180577
  11 0.000003 10.675785 0.000001 0.374164 -1.390357 0.404819
  12 -0.405961 10.292092 -0.097794 1.106109 0.009286 0.229027
  13 -0.030740 5.877327 0.001372 2.672136 -0.316577 -1.099175
  14 0.000001 2.871585 -0.000000 1.743573 -0.649880 0.231080
  15 -0.000000 5.892740 0.000001 0.032901 -0.129243 -0.258050
  16 -0.000000 10.675785 0.000001 -0.286289 1.435623 0.604948
  17 -0.333948 10.013584 0.308057 -0.819584 -0.013744 0.219641
  18 0.000000 24.704327 0.000001 -1.582676 1.667976 0.059220
  19 0.000001 6.351502 0.000000 0.206577 0.001152 -0.097173
  20 -1.857084 5.496415 1.049203 -1.251509 -0.103947 1.695833
  21 0.000004 13.772742 -0.000003 -0.777237 1.406148 -1.305802
  22 0.000003 7.246477 0.000002 -0.664027 0.189128 0.062339
  23 0.045482 7.648379 -0.051083 -1.519391 0.053230 3.045698
  24 -0.000000 5.339063 -0.000000 0.028826 -0.001209 0.041923
  25 0.000001 5.500854 0.000001 -0.529011 0.026481 0.029797
  26 0.000000 6.958814 0.000000 -0.256450 -0.035118 0.101313
  27 1.885074 5.428185 1.059434 -1.826434 0.124580 1.651489
  28 0.000001 13.698036 0.000002 -0.349122 -1.360561 -0.499451
  29 -0.000000 7.246486 0.000004 0.963934 -0.080749 -0.034702
  30 0.034067 7.649776 0.049415 1.766635 0.048638 2.287803
  31 -19.093946 -11.119112 -22.809910 -0.072364 -0.105788 1.536861
  32 -16.653879 7.137786 -22.764248 -0.184526 2.721667 1.484942
  33 43.263412 -4.735948 4.772236 0.000000 1.337036 -1.570796
  34 46.446648 7.803223 0.527271 -0.000000 1.799565 -1.570796
  35 7.645240 -7.925522 -21.895803 2.830741 -0.244056 -1.493321
  36 15.207771 7.106244 -21.846834 0.594810 -0.208859 1.431429
  37 -54.174271 -12.912366 -15.762349 -0.000000 0.021977 1.570796
  38 -29.927073 4.987432 -15.762349 -0.000000 3.088139 1.570796
  time 8
  0 0.298907 -0.398544 -24.094704 1.570796 -0.000000 0.000000
  1 0.000000 24.704325 0.000001 0.000000 0.000001 -1.716420
  2 -0.000000 5.484108 -0.000001 0.040959 -1.570796 0.000000
  3 0.000000 5.912185 0.000000 0.100979 0.000000 -0.000000
  4 -0.000000 4.271068 0.000000 -0.136993 -0.000000 0.000000
  5 0.000000 4.620898 -0.000001 0.051600 -0.000000 -0.000000
  6 0.000000 4.309649 2.031433 -0.431081 -0.124938 0.057251
  7 -0.000001 3.347469 -1.402548 -0.368686 0.030898 -0.012020
  8 0.000000 5.912185 0.000000 0.459781 -0.239096 -2.038707
  9 0.000000 2.871585 0.000000 -1.746849 0.003076 0.534852
  10 -0.000001 5.892741 0.000001 0.062222 0.248925 0.220756
  11 0.000004 10.675784 0.000000 0.329088 -1.392446 0.378772
  12 -0.405962 10.292088 -0.097788 1.137829 0.008694 0.229313
  13 -0.030740 5.877327 0.001371 2.672136 -0.316577 -1.099175
  14 0.000001 2.871584 0.000000 1.743573 -0.649880 0.231080
  15 -0.000000 5.892741 0.000001 0.028209 -0.129364 -0.228022
  16 -0.000000 10.675784 0.000001 -0.237461 1.442934 0.598416
  17 -0.333948 10.013583 0.308055 -0.858007 -0.013109 0.220212
  18 0.000000 24.704325 0.000001 -1.582676 1.667976 0.049826
  19 0.000000 6.351502 -0.000001 0.206577 0.001152 -0.097173
  20 -1.857083 5.496415 1.049203 -1.263530 -0.110466 1.690237
  21 0.000004 13.772740 -0.000009 -0.711881 1.436406 -1.121640
  22 0.000004 7.246479 0.000001 -0.511759 0.183392 0.053403
  23 0.045486 7.648384 -0.051086 -1.487090 0.073556 3.030727
  24 0.000000 5.339062 -0.000001 0.013540 -0.000568 0.041936
  25 0.000000 5.500854 -0.000001 -0.593568 0.020494 -0.003761
  26 0.000001 6.958814 0.000000 -0.353253 -0.016924 0.048415
  27 1.885075 5.428183 1.059439 -1.816574 0.115446 1.659182
  28 0.000000 13.698040 -0.000001 -0.339726 -1.359748 -0.414524
  29 -0.000001 7.246484 0.000005 0.871436 -0.089581 -0.028121
  30 0.034066 7.649778 0.049413 1.744574 0.022612 2.286872
  31 -19.093946 -11.119112 -22.809910 -0.106295 -0.124994 1.556163
  32 -16.653879 7.137786 -22.764248 -0.147253 2.719135 1.500216
  33 43.263412 -4.735948 4.772236 0.000000 1.337036 -1.570796
  34 46.446648 7.803223 0.527271 -0.000000 1.799565 -1.570796
  35 7.645240 -7.916714 -21.895201 2.863356 -0.246387 -1.501239
  36 15.207771 7.106244 -21.838566 0.555870 -0.214042 1.439602
  37 -54.174271 -12.912366 -15.762349 -0.000000 0.021977 1.570796
  38 -29.927073 4.987432 -15.762349 -0.000000 3.088139 1.570796
end
