version 1
nodes
0 "Bone.016" -1
1 "Bone" 0
2 "Bone.001" 1
3 "Bone.002" 2
4 "Bone.003" 3
5 "Bone.004" 4
6 "Bone.006" 5
7 "Bone.009" 5
8 "Leg.L.001" 2
9 "Leg.L.002" 8
10 "Leg.L.003" 9
11 "Leg.L.004" 10
12 "Leg.L.006" 11
13 "Leg.R.001" 2
14 "Leg.R.002" 13
15 "Leg.R.003" 14
16 "Leg.R.004" 15
17 "Leg.R.006" 16
18 "Bone.011" 0
19 "Bone.012" 18
20 "BLeg.L.002" 19
21 "BLeg.L.004" 20
22 "BLeg.L.005" 21
23 "BLeg.L.007" 22
24 "Bone.013" 19
25 "Bone.014" 24
26 "Bone.015" 25
27 "BLeg.R.002" 19
28 "BLeg.R.004" 27
29 "BLeg.R.005" 28
30 "BLeg.R.007" 29
31 "BLeg_ik.L.001" -1
32 "BLeg_ik.R.001" -1
33 "LegPull.L.001" -1
34 "LegPull.R.001" -1
35 "Leg_ik.L.001" -1
36 "Leg_ik.R.001" -1
37 "BLeg_pull.L.001" -1
38 "BLeg_pull.R.001" -1
end
skeleton
  time 0
  0 -0.178139 21.212650 -19.857409 3.099505 -0.000000 0.000000
  1 0.000000 24.704321 0.000001 0.129184 0.030778 -1.015084
  2 0.000000 5.484109 -0.000001 -0.111908 -1.570796 0.000000
  3 0.000000 5.912185 0.000000 -0.058640 -0.056146 0.054000
  4 0.000001 4.271069 0.000000 -0.054711 -0.239099 0.014669
  5 0.000001 4.620897 -0.000000 0.391112 0.276094 -0.094778
  6 0.530693 2.465890 1.536244 0.101163 -0.133288 0.096394
  7 -0.000002 3.347470 -1.402548 -0.384445 -0.224930 0.132705
  8 0.000000 5.912185 0.000000 0.459781 -0.239096 -2.038708
  9 -0.000001 2.871585 -0.000001 -2.015709 0.493774 0.125563
  10 -0.000002 5.892742 0.000000 0.159603 -0.058587 -0.724479
  11 0.000001 10.675790 -0.000000 -0.310595 -1.478256 1.455704
  12 -0.405959 10.292088 -0.097797 0.562975 -0.642716 0.141733
  13 -0.030740 5.877326 0.001372 2.672136 -0.316577 -1.099175
  14 0.000000 2.871585 0.000000 1.743573 -0.649879 0.231080
  15 -0.000001 5.892738 0.000001 0.531582 0.065271 -1.189711
  16 0.000001 10.675790 0.000002 0.062207 1.475574 0.782517
  17 -0.333945 10.013585 0.308054 -1.301478 -0.185948 0.485517
  18 0.000000 24.704321 0.000001 -1.483975 1.693822 0.961153
  19 0.000002 6.351503 -0.000000 -0.198867 0.020783 -0.117167
  20 -1.857083 5.496416 1.049205 -1.507983 -0.016302 1.873066
  21 -0.000003 13.772740 -0.000005 -0.441755 0.927181 -2.340052
  22 0.000001 7.246481 -0.000002 -1.688081 0.218328 -0.136771
  23 0.045482 7.648384 -0.051087 -1.304507 0.151826 -3.111509
  24 -0.000001 5.339064 0.000000 -0.007790 0.000327 0.041939
  25 0.000001 5.500855 0.000000 0.137286 0.215206 0.184792
  26 0.000000 6.958816 -0.000001 -0.301706 0.206425 -0.106468
  27 1.885075 5.428184 1.059437 -1.741098 -0.253815 1.624411
  28 0.000002 13.698040 -0.000000 -0.044655 -1.014667 -2.089351
  29 -0.000001 7.246480 0.000002 1.131153 0.255323 -0.217327
  30 0.034068 7.649768 0.049418 1.422174 0.240157 2.296228
  31 3.403318 21.446056 -22.745728 -0.287409 -0.005338 1.648898
  32 -5.725501 21.502188 -22.649220 -0.086842 2.642326 1.905281
  33 32.364582 -2.372779 -25.153912 0.000000 1.337036 -1.570796
  34 35.393257 8.503246 -14.648810 -0.000000 1.799565 -1.570796
  35 17.357040 10.331177 -23.096350 2.160389 -0.332911 -0.712889
  36 9.178720 11.405464 -22.369463 0.138789 0.040385 1.666369
  37 -30.150969 -3.516551 -23.894501 -0.000000 0.021977 1.570796
  38 -46.824318 4.468428 -16.443565 -0.000000 3.088139 1.570796
  time 1
  0 0.298907 -0.398544 -25.266764 1.570796 -0.000000 0.000000
  1 0.000000 24.704325 0.000001 0.000000 0.000001 -1.501388
  2 -0.000001 5.484108 -0.000001 -0.111908 -1.570796 0.000000
  3 -0.000000 5.912185 0.000001 0.398615 0.149755 0.510153
  4 -0.000000 4.271067 0.000000 -0.432838 -0.301649 0.063526
  5 0.000000 4.620899 0.000001 -0.463576 -0.141635 -0.033331
  6 0.554300 2.455449 1.532091 0.106330 -0.096330 0.088631
  7 -0.000001 3.347469 -1.402548 0.029741 0.435737 0.227221
  8 -0.000000 5.912185 0.000001 0.459781 -0.239096 -2.038707
  9 0.000000 2.871585 0.000000 -1.663138 0.622025 0.216000
  10 0.000002 5.892741 0.000000 0.181191 -0.228971 -0.979087
  11 0.000002 10.675782 -0.000002 -0.261496 -1.475212 1.618197
  12 -0.405960 10.292086 -0.097794 0.798273 -0.532927 0.075776
  13 -0.030741 5.877326 0.001372 2.672136 -0.316577 -1.099175
  14 0.000000 2.871584 -0.000000 1.743573 -0.649880 0.231080
  15 0.000001 5.892734 0.000001 -0.191471 -0.200664 -0.526575
  16 0.000001 10.675784 0.000000 0.031153 1.474606 0.620253
  17 -0.333947 10.013587 0.308055 -1.285826 -0.132065 0.423507
  18 0.000000 24.704325 0.000001 -1.618356 1.667635 0.164154
  19 0.000000 6.351502 -0.000000 0.206577 0.001152 -0.097173
  20 -1.857082 5.496417 1.049204 -1.263442 -0.097081 1.728577
  21 -0.000003 13.772739 -0.000006 -0.729702 1.105611 -1.967308
  22 0.000006 7.246482 -0.000001 -1.412307 0.263710 -0.151999
  23 0.045486 7.648384 -0.051085 -1.365929 0.130187 -3.133767
  24 0.000001 5.339063 0.000000 -0.007790 0.000327 0.041939
  25 0.000001 5.500854 -0.000000 -0.360814 0.010535 -0.014028
  26 -0.000000 6.958814 0.000001 -0.422025 -0.000000 -0.029833
  27 1.885075 5.428183 1.059434 -2.071354 0.159280 1.632435
  28 0.000002 13.698038 -0.000001 0.181133 -1.295947 -1.443414
  29 -0.000002 7.246487 0.000002 1.058308 -0.000914 -0.086709
  30 0.034059 7.649772 0.049418 1.561058 0.048389 2.343784
  31 -18.560787 -7.595008 -22.626160 -0.227909 -0.020935 1.624261
  32 -16.678350 9.205772 -22.601917 -0.029830 2.646156 1.700454
  33 32.364582 -5.675307 -25.435074 0.000000 1.337036 -1.570796
  34 32.543880 10.651133 -13.297186 -0.000000 1.799565 -1.570796
  35 9.137333 -8.759553 -18.710691 2.378883 -0.420586 -0.868413
  36 8.802485 10.497789 -21.364580 0.135300 -0.029139 1.623453
  37 -30.150969 -7.086495 -15.762349 -0.000000 0.021977 1.570796
  38 -29.927073 4.987432 -15.762349 -0.000000 3.088139 1.570796
  time 2
  0 0.298907 -2.353292 -23.727728 1.570796 -0.000000 0.000000
  1 0.000000 24.704325 0.000001 0.102182 0.015035 -1.424427
  2 0.000000 5.484108 0.000000 1.062344 -1.566515 -1.143892
  3 0.000000 5.912185 0.000000 0.386216 0.156664 0.127977
  4 -0.000000 4.271069 0.000000 0.115857 -0.032417 -0.507547
  5 -0.000001 4.620899 -0.000001 -0.118244 0.009988 -0.101423
  6 0.577293 2.446285 1.528652 0.111381 -0.057672 0.080739
  7 -0.000001 3.347470 -1.402547 -0.267631 0.193130 0.142375
  8 0.000000 5.912185 0.000000 0.459781 -0.239096 -2.038707
  9 -0.000000 2.871585 0.000001 -1.670479 0.618385 0.214292
  10 -0.000002 5.892740 0.000001 0.133179 -0.175800 -1.331599
  11 -0.000003 10.675790 0.000001 -0.207291 -1.479998 1.471590
  12 -0.405959 10.292095 -0.097794 1.018077 -0.410009 0.042565
  13 -0.030741 5.877327 0.001371 2.672136 -0.316577 -1.099175
  14 0.000001 2.871584 0.000001 1.717088 -0.651803 0.238747
  15 0.000000 5.892740 0.000002 -0.185639 -0.178275 -0.474234
  16 -0.000001 10.675785 -0.000001 0.000097 1.473159 0.004784
  17 -0.333939 10.013588 0.308053 -1.244319 -0.087823 0.343917
  18 0.000000 24.704325 0.000001 -1.640551 1.667212 0.238658
  19 0.000000 6.351501 0.000001 0.206577 0.001152 -0.097173
  20 -1.857083 5.496418 1.049207 -1.460035 -0.428506 1.696673
  21 -0.000002 13.772741 -0.000006 -0.866172 1.261099 -1.730437
  22 0.000005 7.246479 -0.000002 -1.043980 0.340671 -0.112851
  23 0.045484 7.648377 -0.051086 -1.426675 0.107251 3.128600
  24 -0.000000 5.339062 -0.000000 0.120903 -0.022837 0.031376
  25 0.000001 5.500854 -0.000001 -0.136639 -0.056255 0.110983
  26 0.000001 6.958816 0.000000 -0.281580 -0.000181 -0.025555
  27 1.885074 5.428184 1.059439 -2.086331 -0.004550 1.632604
  28 0.000002 13.698036 0.000000 0.084015 -1.348244 -1.134931
  29 0.000002 7.246485 0.000005 0.969947 -0.047728 -0.055842
  30 0.034070 7.649775 0.049410 1.667795 0.097684 2.361313
  31 -23.565460 -7.197949 -22.762711 -0.168034 -0.035032 1.598737
  32 -16.678350 9.205772 -22.601917 -0.153717 2.631531 1.597558
  33 32.364582 -11.572811 -24.967106 0.000000 1.337036 -1.570796
  34 32.543880 7.517264 -12.665310 -0.000000 1.799565 -1.570796
  35 4.379180 -9.548381 -15.578131 2.624667 -0.474182 -1.052286
  36 8.103760 8.579880 -20.047829 0.165258 -0.113913 1.586532
  37 -31.011673 -7.091877 -16.175632 -0.000000 0.021977 1.570796
  38 -29.927073 4.987432 -15.762349 -0.000000 3.088139 1.570796
  time 3
  0 0.298907 -2.632542 -22.188692 1.570796 -0.000000 0.000000
  1 0.000000 24.704325 0.000001 0.205374 0.022107 -1.346215
  2 -0.000001 5.484108 -0.000000 1.413059 -1.541398 -1.434743
  3 0.000000 5.912184 0.000001 0.371783 0.158482 -0.262890
  4 -0.000000 4.271068 -0.000000 0.055871 0.001705 -0.346339
  5 -0.000001 4.620899 -0.000000 0.222590 0.176184 -0.114573
  6 0.599580 2.438310 1.525872 0.116240 -0.017786 0.072812
  7 0.000001 3.347468 -1.402547 -0.829159 -0.320994 0.192114
  8 0.000000 5.912184 0.000001 0.459781 -0.239096 -2.038707
  9 -0.000000 2.871584 -0.000000 -1.690317 0.608438 0.209764
  10 0.000001 5.892740 -0.000000 0.241712 -0.147470 -1.479543
  11 -0.000002 10.675784 -0.000001 -0.152507 -1.479775 1.568962
  12 -0.405963 10.292090 -0.097795 1.224121 -0.283453 0.039410
  13 -0.030740 5.877326 0.001372 2.672136 -0.316577 -1.099175
  14 0.000001 2.871584 -0.000000 1.649718 -0.656451 0.259778
  15 0.000001 5.892737 0.000001 0.030322 -0.050242 -0.716712
  16 -0.000001 10.675788 0.000000 -0.000049 1.470788 0.004790
  17 -0.333932 10.013582 0.308059 -1.172153 -0.053569 0.257179
  18 0.000000 24.704325 0.000001 -1.638771 1.667252 0.232644
  19 -0.000000 6.351502 0.000000 0.206577 0.001152 -0.097172
  20 -1.857082 5.496417 1.049202 -1.501176 -0.456089 1.667519
  21 -0.000003 13.772739 -0.000008 -0.879941 1.381938 -1.423471
  22 0.000004 7.246478 0.000005 -0.678485 0.376912 -0.060847
  23 0.045479 7.648385 -0.051092 -1.486647 0.083168 3.109309
  24 0.000001 5.339063 0.000001 0.249930 -0.044452 0.017917
  25 0.000000 5.500854 -0.000000 0.087484 -0.075617 0.213999
  26 0.000000 6.958813 -0.000001 -0.018350 -0.001014 -0.024061
  27 1.885075 5.428183 1.059437 -2.026927 -0.092794 1.701595
  28 0.000002 13.698036 0.000001 -0.090609 -1.387780 -0.569408
  29 -0.000002 7.246482 -0.000001 0.722062 -0.096817 -0.014381
  30 0.034067 7.649773 0.049415 1.694295 0.167130 2.376943
  31 -23.564535 -7.174503 -22.737953 -0.107930 -0.047544 1.572464
  32 -16.678350 9.205772 -22.601917 -0.231287 2.615394 1.588436
  33 32.364582 -14.725309 -24.618189 0.000000 1.337036 -1.570796
  34 32.543880 2.004857 -12.813023 -0.000000 1.799565 -1.570796
  35 4.762815 -10.337209 -12.445571 2.881688 -0.484752 -1.248544
  36 7.727523 5.462006 -18.016066 0.234706 -0.201941 1.551789
  37 -33.064121 -7.089373 -17.240538 -0.000000 0.021977 1.570796
  38 -29.927073 4.987432 -15.762349 -0.000000 3.088139 1.570796
  time 4
  0 0.298907 -1.515543 -24.555128 1.570796 -0.000000 0.000000
  1 0.000000 24.704325 0.000001 0.299744 0.021660 -1.464707
  2 -0.000001 5.484108 -0.000000 1.544134 -1.488310 -1.517530
  3 -0.000001 5.912184 -0.000001 0.104013 -0.034914 -0.196657
  4 -0.000000 4.271068 0.000001 0.002186 0.044858 -0.187626
  5 -0.000000 4.620898 0.000000 0.011084 0.011511 -0.209307
  6 0.621073 2.431446 1.523686 0.120844 0.022848 0.064933
  7 0.000001 3.347470 -1.402548 -1.158754 -0.540528 0.336663
  8 -0.000001 5.912184 -0.000001 0.459781 -0.239096 -2.038707
  9 0.000000 2.871583 0.000000 -1.719299 0.593614 0.203427
  10 -0.000001 5.892738 0.000000 -0.038168 -0.322307 -0.515569
  11 -0.000004 10.675788 -0.000001 -0.047005 -1.488464 0.521027
  12 -0.405959 10.292089 -0.097792 1.418651 -0.162169 0.061618
  13 -0.030741 5.877326 0.001373 2.672136 -0.316577 -1.099175
  14 -0.000000 2.871584 0.000000 1.559716 -0.661859 0.291203
  15 -0.000002 5.892737 -0.000000 0.244169 0.042816 -1.370792
  16 0.000004 10.675784 0.000001 -0.041820 1.471725 1.321139
  17 -0.333938 10.013576 0.308049 -1.089130 -0.024462 0.178785
  18 0.000000 24.704325 0.000001 -1.639883 1.667228 0.236403
  19 -0.000000 6.351501 -0.000000 0.206577 0.001152 -0.097173
  20 -1.857083 5.496417 1.049205 -1.251053 0.012964 1.739314
  21 -0.000007 13.772733 -0.000006 -0.629061 1.022684 -2.077628
  22 0.000001 7.246487 -0.000004 -1.229248 0.216238 -0.140716
  23 0.045487 7.648385 -0.051084 -1.545770 0.058099 3.091610
  24 0.000000 5.339062 0.000001 0.185438 -0.033874 0.024989
  25 0.000000 5.500854 -0.000000 -0.025992 -0.028837 0.090563
  26 0.000001 6.958814 -0.000001 0.122095 -0.001461 -0.023970
  27 1.885075 5.428184 1.059437 -2.088002 0.039768 1.613385
  28 0.000003 13.698030 -0.000001 0.055585 -1.319617 -1.293985
  29 -0.000002 7.246479 0.000002 1.101999 -0.009203 -0.075549
  30 0.034061 7.649769 0.049418 1.696661 0.178083 2.377351
  31 -16.878859 -7.089483 -22.844114 -0.047757 -0.058405 1.545594
  32 -16.581614 9.154222 -22.687517 -0.242092 2.614708 1.589142
  33 32.364582 -14.725309 -24.618189 0.000000 1.337036 -1.570796
  34 32.543880 -0.933244 -13.021910 -0.000000 1.799565 -1.570796
  35 10.028047 -10.105756 -21.660482 -0.013575 -2.689203 1.706255
  36 7.984957 2.554390 -15.819497 0.322741 -0.278458 1.516251
  37 -35.513817 -7.051003 -18.694647 -0.000000 0.021977 1.570796
  38 -29.927073 4.987432 -15.762349 -0.000000 3.088139 1.570796
  time 5
  0 0.298907 -0.398544 -26.921564 1.570796 -0.000000 0.000000
  1 0.000000 24.704325 0.000001 0.393519 0.032355 -1.582730
  2 0.000001 5.484108 -0.000001 1.577330 -1.456500 -1.531929
  3 -0.000000 5.912185 0.000000 -0.180867 -0.202490 -0.079905
  4 -0.000001 4.271068 0.000001 -0.043440 0.094984 -0.033557
  5 -0.000000 4.620900 0.000000 -0.186153 -0.168195 -0.268263
  6 0.641683 2.425608 1.522040 0.125142 0.063740 0.057176
  7 -0.000002 3.347470 -1.402547 -1.073888 -0.339528 0.245711
  8 -0.000000 5.912185 0.000000 0.459781 -0.239096 -2.038707
  9 -0.000000 2.871584 -0.000000 -1.754086 0.575366 0.196266
  10 0.000001 5.892739 -0.000000 0.108092 -0.417594 -0.689104
  11 0.000002 10.675790 0.000001 -0.033934 -1.483710 1.369696
  12 -0.405962 10.292094 -0.097796 0.579211 -0.073829 -0.015342
  13 -0.030741 5.877326 0.001373 2.672136 -0.316577 -1.099175
  14 0.000001 2.871585 0.000000 1.465980 -0.666655 0.329570
  15 -0.000000 5.892735 -0.000000 0.434786 -0.335730 -1.415541
  16 0.000000 10.675782 0.000001 -0.069762 1.471470 1.281144
  17 -0.333941 10.013584 0.308050 -1.015046 -0.001250 0.123251
  18 0.000000 24.704325 0.000001 -1.643048 1.667155 0.247112
  19 0.000000 6.351502 -0.000000 0.206577 0.001152 -0.097173
  20 -1.857082 5.496415 1.049204 -1.097087 0.086521 1.795639
  21 -0.000004 13.772739 -0.000003 -0.474883 0.913892 -2.235685
  22 -0.000003 7.246484 -0.000007 -1.166059 0.158420 -0.141533
  23 0.045481 7.648387 -0.051084 -1.603982 0.032211 3.075546
  24 0.000001 5.339062 -0.000000 0.120903 -0.022837 0.031376
  25 0.000000 5.500854 -0.000000 -0.145377 0.003581 -0.038467
  26 0.000001 6.958815 -0.000000 -0.004939 0.042690 -0.136911
  27 1.885075 5.428182 1.059437 -2.164462 0.122540 1.528740
  28 0.000005 13.698035 -0.000002 0.032744 -1.215816 -1.678585
  29 -0.000002 7.246482 0.000001 1.298641 0.109952 -0.117002
  30 0.034060 7.649770 0.049414 1.700321 0.181402 2.377506
  31 -16.869141 -7.079793 -22.777252 0.012319 -0.067573 1.518286
  32 -15.956734 9.102671 -22.825642 -0.247762 2.615139 1.586169
  33 32.364582 -14.725309 -24.618189 0.000000 1.337036 -1.570796
  34 32.543880 4.858944 -13.159548 -0.000000 1.799565 -1.570796
  35 10.028047 -10.105756 -21.660482 2.229599 -0.413898 -1.317538
  36 8.663647 5.168717 -18.836159 0.405692 -0.330228 1.483456
  37 -37.566265 -6.948791 -20.275543 -0.000000 0.021977 1.570796
  38 -29.927073 4.987432 -15.762349 -0.000000 3.088139 1.570796
end
