version 1
nodes
0 "Bone.016" -1
1 "Bone" 0
2 "Bone.001" 1
3 "Bone.002" 2
4 "Bone.003" 3
5 "Bone.004" 4
6 "Bone.006" 5
7 "Bone.009" 5
8 "Leg.L.001" 2
9 "Leg.L.002" 8
10 "Leg.L.003" 9
11 "Leg.L.004" 10
12 "Leg.L.006" 11
13 "Leg.R.001" 2
14 "Leg.R.002" 13
15 "Leg.R.003" 14
16 "Leg.R.004" 15
17 "Leg.R.006" 16
18 "Bone.011" 0
19 "Bone.012" 18
20 "BLeg.L.002" 19
21 "BLeg.L.004" 20
22 "BLeg.L.005" 21
23 "BLeg.L.007" 22
24 "Bone.013" 19
25 "Bone.014" 24
26 "Bone.015" 25
27 "BLeg.R.002" 19
28 "BLeg.R.004" 27
29 "BLeg.R.005" 28
30 "BLeg.R.007" 29
31 "BLeg_ik.L.001" -1
32 "BLeg_ik.R.001" -1
33 "LegPull.L.001" -1
34 "LegPull.R.001" -1
35 "Leg_ik.L.001" -1
36 "Leg_ik.R.001" -1
37 "BLeg_pull.L.001" -1
38 "BLeg_pull.R.001" -1
end
skeleton
  time 0
  0 0.298907 -0.398544 -19.283138 1.570796 -0.000000 0.000000
  1 0.000000 24.704323 0.000001 0.000000 0.000001 -1.902708
  2 -0.000000 5.484108 0.000000 -0.094630 -1.570796 0.000000
  3 -0.000000 5.912185 0.000001 -0.147961 0.128453 -0.034150
  4 -0.000000 4.271068 -0.000000 0.571938 -0.102219 -0.148075
  5 -0.000000 4.620899 0.000000 0.143781 -0.002410 -0.022791
  6 -0.011568 4.206088 2.051009 -0.369412 -0.111321 0.157045
  7 0.015104 3.413885 -1.419007 -0.260613 0.046385 0.093221
  8 -0.000000 5.912185 0.000001 0.459781 -0.239096 -2.038707
  9 0.000000 2.871585 0.000000 -1.893033 0.945183 0.134643
  10 0.000001 5.892740 0.000000 0.249274 -0.107056 0.741979
  11 -0.000008 10.675791 0.000003 0.439355 -1.325327 0.455629
  12 -0.405961 10.292094 -0.097796 0.408387 0.172457 0.359307
  13 -0.030741 5.877327 0.001373 2.672136 -0.316577 -1.099175
  14 -0.000000 2.871584 0.000000 1.843184 -0.962622 0.209827
  15 -0.000000 5.892739 0.000001 -0.275812 -0.052485 0.860449
  16 0.000003 10.675789 0.000000 0.201911 1.480662 0.902499
  17 -0.333941 10.013585 0.308056 -0.756681 0.119222 0.087155
  18 0.000000 24.704323 0.000001 -1.617068 1.667654 0.001602
  19 0.000001 6.351501 0.000000 0.221223 0.001152 -0.097173
  20 -1.857083 5.496416 1.049206 -1.471029 -0.689417 1.836013
  21 0.000007 13.772750 -0.000011 -1.066022 1.352069 -1.603384
  22 0.000003 7.246482 0.000004 -0.872027 0.185694 0.055482
  23 0.045486 7.648385 -0.051084 0.964388 -2.783127 0.214712
  24 0.000000 5.339063 0.000000 0.364332 -0.014952 0.039186
  25 0.000000 5.500854 -0.000001 0.115241 -0.003431 -0.012305
  26 0.000000 6.958815 -0.000000 0.091573 0.000000 -0.029833
  27 1.885075 5.428184 1.059438 -1.553564 -0.860777 1.368680
  28 -0.000006 13.698035 -0.000002 0.139365 -1.449530 -0.291212
  29 -0.000002 7.246484 0.000000 0.200955 -0.396534 -0.035236
  30 0.034063 7.649772 0.049414 -0.495461 2.773865 -0.308683
  31 -31.378105 -8.552588 -9.107851 0.484630 0.267996 1.150340
  32 -35.136497 4.690353 -6.381157 1.955205 0.321847 -2.335108
  33 43.263412 -4.735948 4.772236 0.000000 1.337036 -1.570796
  34 46.446648 7.803223 0.527271 -0.000000 1.799565 -1.570796
  35 27.759109 -7.600370 -6.874270 2.141437 0.029769 -1.478249
  36 27.707436 6.649206 -8.456092 0.699122 -0.350400 1.302582
  37 -44.140934 -11.653977 -8.994053 -0.000000 0.021977 1.570796
  38 -46.063564 6.631806 -9.892397 -0.000000 3.088139 1.570796
  time 1
  0 0.298907 -0.398544 -21.423973 1.570796 -0.000000 0.000000
  1 0.000000 24.704323 0.000001 0.000000 0.000001 -1.885646
  2 -0.000000 5.484108 0.000000 -0.087131 -1.570796 0.000000
  3 -0.000000 5.912185 -0.000000 -0.179906 0.127825 -0.036146
  4 -0.000000 4.271067 0.000001 0.215942 -0.000000 -0.000000
  5 0.000000 4.620898 -0.000000 0.302777 -0.000000 -0.000000
  6 0.000001 3.669892 2.090487 -0.065828 -0.137075 0.009008
  7 -0.000000 3.987226 -1.461599 0.036515 0.033152 -0.000285
  8 -0.000000 5.912185 -0.000000 0.459781 -0.239096 -2.038707
  9 -0.000001 2.871584 0.000000 -1.754836 0.462225 0.385640
  10 0.000001 5.892740 0.000001 -0.008021 0.228230 -0.014827
  11 0.000002 10.675789 -0.000002 0.588484 -1.345899 0.611686
  12 -0.405960 10.292091 -0.097790 0.425614 0.218871 0.350818
  13 -0.030741 5.877326 0.001371 2.672136 -0.316577 -1.099175
  14 0.000001 2.871585 -0.000000 1.757379 -0.617741 0.373635
  15 0.000001 5.892736 -0.000001 -0.078767 -0.308708 -0.014106
  16 -0.000003 10.675787 -0.000000 0.233670 1.475755 1.140280
  17 -0.333943 10.013591 0.308055 -0.525257 0.128728 0.104169
  18 0.000000 24.704323 0.000001 -1.654217 1.666870 0.285112
  19 -0.000001 6.351502 0.000000 -0.369206 0.001004 -0.095786
  20 -1.857082 5.496418 1.049205 -1.415361 -0.485537 1.943915
  21 0.000007 13.772741 -0.000009 -1.118265 1.245157 -1.631837
  22 0.000004 7.246480 0.000007 -1.416679 0.295271 0.002435
  23 0.045484 7.648376 -0.051086 0.485615 3.081271 0.401488
  24 0.000000 5.339062 0.000001 0.396514 -0.016205 0.038685
  25 0.000001 5.500853 0.000000 -0.101851 0.003034 -0.012261
  26 0.000000 6.958815 0.000002 -0.363509 -0.000000 -0.029833
  27 1.885075 5.428183 1.059437 -1.843146 -0.335103 1.464980
  28 0.000003 13.698038 -0.000001 0.869440 -1.252963 -1.434231
  29 -0.000001 7.246487 0.000002 1.340060 -0.055670 -0.151877
  30 0.034065 7.649768 0.049420 -0.495461 2.773865 -0.308683
  31 -1.639282 -8.493732 -23.992046 1.076535 0.463569 1.631300
  32 0.219275 5.100895 -23.558193 1.955205 0.321847 -2.335108
  33 43.263412 -4.735948 4.772236 0.000000 1.337036 -1.570796
  34 46.446648 7.803223 0.527271 -0.000000 1.799565 -1.570796
  35 10.839840 -7.608789 -19.892010 2.151304 0.026877 -1.527711
  36 10.814394 6.649838 -21.534836 0.932721 -0.290783 1.245965
  37 -48.864059 -11.930934 -8.988183 -0.000000 0.021977 1.570796
  38 -29.927073 4.987432 -15.762349 -0.000000 3.088139 1.570796
  time 2
  0 0.298907 -0.398544 -18.561581 1.570796 -0.000000 0.000000
  1 0.000000 24.704327 0.000001 0.000000 0.000000 -1.705014
  2 0.000001 5.484107 -0.000001 1.297364 -1.588228 -1.439417
  3 -0.000001 5.912183 0.000001 -0.056412 0.124993 -0.008057
  4 0.000000 4.271068 0.000001 0.077797 0.079390 0.036057
  5 0.000000 4.620899 -0.000000 0.278409 0.004872 -0.046176
  6 -0.002502 3.769759 2.088568 -0.122406 -0.135879 0.056511
  7 -0.000000 3.347469 -1.402547 -0.325956 0.030898 -0.012020
  8 -0.000001 5.912183 0.000001 0.459781 -0.239096 -2.038707
  9 -0.000001 2.871584 -0.000000 -1.782908 0.643409 0.285575
  10 -0.000001 5.892742 -0.000000 -0.028229 0.152959 -0.226444
  11 0.000003 10.675787 -0.000002 0.764839 -1.377159 0.798495
  12 -0.405961 10.292091 -0.097795 0.457020 0.298917 0.304380
  13 -0.030741 5.877325 0.001373 2.672136 -0.316577 -1.099175
  14 -0.000000 2.871584 0.000000 1.800288 -0.767380 0.269342
  15 0.000000 5.892737 0.000001 -0.060841 -0.212010 -0.270691
  16 -0.000003 10.675780 -0.000002 0.250697 1.461568 1.691314
  17 -0.333941 10.013590 0.308050 -0.320459 0.126001 0.105946
  18 0.000000 24.704327 0.000001 -1.603469 1.667484 0.446529
  19 0.000000 6.351501 -0.000001 -0.219929 0.000938 -0.096003
  20 -1.857083 5.496414 1.049203 -1.507286 -0.651887 1.895242
  21 0.000007 13.772747 -0.000007 -0.969382 1.245058 -1.749972
  22 0.000003 7.246481 0.000008 -1.423325 0.360357 0.029039
  23 0.045488 7.648378 -0.051083 0.600386 -3.085810 0.373441
  24 0.000000 5.339062 -0.000000 0.423473 -0.017243 0.038234
  25 0.000000 5.500854 0.000001 -0.067573 0.002015 -0.012175
  26 -0.000000 6.958814 -0.000000 -0.214825 0.000000 -0.029833
  27 1.885075 5.428181 1.059434 -1.842324 -0.588275 1.484763
  28 0.000004 13.698035 -0.000001 0.732356 -1.202362 -1.516590
  29 0.000001 7.246484 0.000001 1.459911 -0.034628 -0.147996
  30 0.034064 7.649769 0.049418 -0.495461 2.773865 -0.308683
  31 -9.548887 -8.362526 -23.235144 0.909900 0.439408 1.492182
  32 -8.178801 4.893259 -22.886805 1.955205 0.321847 -2.335108
  33 44.393940 -5.106265 6.233593 0.000000 1.337036 -1.570796
  34 46.446648 7.411314 3.928755 -0.000000 1.799565 -1.570796
  35 16.093536 -7.147354 -12.717894 2.172214 -0.010335 -1.619597
  36 16.022388 6.290936 -13.700609 1.136651 -0.241433 1.219253
  37 -51.962418 -11.970531 -8.988834 -0.000000 0.021977 1.570796
  38 -36.381802 4.866424 -10.148913 -0.000000 3.088139 1.570796
  time 3
  0 0.298907 -0.398544 -15.699185 1.570796 -0.000000 0.000000
  1 0.000000 24.704323 0.000001 0.000000 0.000000 -1.428030
  2 -0.000000 5.484109 -0.000000 1.246407 -1.620566 -1.490408
  3 -0.000000 5.912186 -0.000000 0.174316 0.110511 0.042638
  4 -0.000000 4.271069 0.000001 0.027184 0.109420 0.046651
  5 0.000000 4.620900 -0.000000 0.222797 0.012838 -0.131948
  6 -0.007151 3.955224 2.085005 -0.227225 -0.126596 0.144368
  7 0.006804 3.474728 -1.428437 -0.586375 0.086191 0.092006
  8 -0.000000 5.912186 -0.000000 0.459781 -0.239096 -2.038707
  9 -0.000000 2.871584 -0.000000 -1.939702 0.972390 0.007989
  10 -0.000003 5.892740 0.000001 0.044411 -0.024999 -0.058246
  11 -0.000001 10.675789 0.000000 0.799980 -1.384238 0.836174
  12 -0.405961 10.292093 -0.097792 0.484092 0.376012 0.253334
  13 -0.030741 5.877327 0.001372 2.672136 -0.316577 -1.099175
  14 0.000001 2.871585 -0.000000 1.987387 -1.032088 -0.024001
  15 -0.000000 5.892737 0.000001 -0.071314 0.008000 0.008973
  16 0.000001 10.675790 0.000001 0.228592 1.457668 1.862380
  17 -0.333948 10.013584 0.308051 -0.173132 0.119316 0.100856
  18 0.000000 24.704323 0.000001 -1.585247 1.667907 0.505496
  19 -0.000000 6.351501 0.000001 0.058776 0.000944 -0.096546
  20 -1.857082 5.496420 1.049204 -1.659530 -0.973147 1.898609
  21 0.000006 13.772755 -0.000008 -0.014506 1.450744 -0.021092
  22 0.000003 7.246481 0.000002 -0.008449 0.356682 0.000159
  23 0.045484 7.648381 -0.051080 0.829898 -2.881122 0.283739
  24 0.000001 5.339064 0.000000 0.444098 -0.018028 0.037870
  25 0.000000 5.500854 0.000001 0.016447 -0.000491 -0.012111
  26 -0.000000 6.958813 0.000001 0.064285 0.000000 -0.029833
  27 1.885075 5.428185 1.059438 -1.709771 -0.953517 1.578970
  28 0.000004 13.698036 -0.000001 0.003321 -1.434132 -0.009827
  29 -0.000002 7.246488 -0.000002 0.008162 -0.261835 -0.000468
  30 0.034060 7.649776 0.049413 -0.495462 2.773865 -0.308682
  31 -24.299812 -8.110488 -20.494196 0.621270 0.342316 1.256943
  32 -23.845854 4.594390 -20.315531 1.955205 0.321847 -2.335108
  33 46.493496 -5.793996 8.947542 0.000000 1.337036 -1.570796
  34 46.446648 6.683486 10.245796 -0.000000 1.799565 -1.570796
  35 25.850399 -6.290404 0.605461 2.196428 -0.051801 -1.709186
  36 25.694382 5.624404 0.848667 1.282442 -0.208021 1.212169
  37 -53.658363 -12.010187 -8.992097 -0.000000 0.021977 1.570796
  38 -48.369156 4.801770 0.284603 -0.000000 3.088139 1.570796
  time 4
  0 0.298907 -0.398544 -12.836791 1.570796 -0.000000 0.000000
  1 0.000000 24.704327 0.000001 0.000000 0.000000 -1.287202
  2 0.000000 5.484108 -0.000000 1.219041 -1.637877 -1.517781
  3 0.000001 5.912185 0.000002 0.297321 0.098107 0.067990
  4 0.000001 4.271069 0.000001 0.019999 0.115380 0.047915
  5 0.000001 4.620899 -0.000002 0.163075 0.022183 -0.177960
  6 -0.009655 4.055085 2.083086 -0.283023 -0.117870 0.190976
  7 0.009655 3.602034 -1.454200 -0.857327 0.175213 0.176298
  8 0.000001 5.912185 0.000002 0.459781 -0.239096 -2.038708
  9 0.000000 2.871585 0.000001 -2.143720 1.124938 -0.254773
  10 -0.000001 5.892739 0.000000 0.034370 -0.157146 0.107156
  11 -0.000002 10.675785 -0.000001 0.519474 -1.335687 0.539315
  12 -0.405959 10.292085 -0.097795 0.495000 0.410610 0.229303
  13 -0.030740 5.877327 0.001370 2.672136 -0.316577 -1.099175
  14 0.000000 2.871584 0.000002 2.200505 -1.150284 -0.290371
  15 -0.000002 5.892742 0.000001 0.073398 0.047241 0.273192
  16 0.000002 10.675789 0.000002 0.199892 1.473367 1.227489
  17 -0.333941 10.013594 0.308057 -0.116083 0.112530 0.100087
  18 0.000000 24.704327 0.000001 -1.582675 1.667976 0.513885
  19 -0.000000 6.351503 -0.000000 0.206577 0.001152 -0.097173
  20 -1.857083 5.496415 1.049206 1.324968 -2.077804 -1.110732
  21 0.000001 13.772745 -0.000009 -0.009752 1.417827 -0.016319
  22 0.000004 7.246479 0.000002 -0.008397 0.363706 0.000073
  23 0.045484 7.648381 -0.051085 0.964387 -2.783127 0.214712
  24 -0.000000 5.339062 0.000001 0.457285 -0.018526 0.037629
  25 0.000000 5.500853 -0.000001 0.122446 -0.003645 -0.012330
  26 0.000000 6.958814 0.000000 0.212947 0.000000 -0.029834
  27 1.885074 5.428183 1.059436 -1.731180 -1.074048 1.616743
  28 -0.000002 13.698032 -0.000002 0.002123 -1.410391 -0.008396
  29 -0.000002 7.246484 -0.000001 0.007860 -0.272636 -0.000470
  30 0.034061 7.649772 0.049419 -0.495461 2.773865 -0.308683
  31 -32.425213 -7.949990 -15.063847 0.484630 0.267996 1.150340
  32 -32.491123 4.690352 -15.008708 1.955205 0.321847 -2.335108
  33 47.624023 -6.164312 10.408897 0.000000 1.337036 -1.570796
  34 46.446648 6.291578 13.647278 -0.000000 1.799565 -1.570796
  35 31.104095 -5.828968 7.779579 2.208642 -0.071010 -1.749646
  36 30.902374 5.265501 8.682899 1.337314 -0.192858 1.215028
  37 -54.174271 -12.287315 -8.994053 -0.000000 0.021977 1.570796
  38 -54.823883 5.241025 5.928013 -0.000000 3.088139 1.570796
  time 5
  0 0.298907 -0.398544 -13.180279 1.570796 -0.000000 0.000000
  1 0.000000 24.704325 0.000001 0.000000 0.000001 -1.404255
  2 -0.000001 5.484109 -0.000000 -0.935446 -1.586922 0.843984
  3 0.000000 5.912185 -0.000002 0.222578 0.081093 0.055149
  4 -0.000000 4.271068 -0.000001 0.065356 0.115482 -0.013187
  5 0.000000 4.620899 -0.000002 0.120510 0.047837 -0.166062
  6 0.040355 3.363875 1.983743 -0.105977 -0.097127 0.001693
  7 0.000000 3.347470 -1.402550 -1.319251 0.370347 -0.151524
  8 0.000000 5.912185 -0.000002 0.459781 -0.239096 -2.038707
  9 0.000000 2.871584 -0.000001 -2.125874 1.115272 -0.228333
  10 0.000003 5.892745 0.000000 -0.136207 -0.097464 -0.076217
  11 -0.000001 10.675788 -0.000001 0.533653 -1.343674 0.558318
  12 -0.405960 10.292092 -0.097786 0.495000 0.410611 0.229303
  13 -0.030740 5.877327 0.001372 2.672136 -0.316577 -1.099175
  14 0.000001 2.871584 0.000001 1.939790 -0.973156 0.035579
  15 0.000002 5.892741 0.000000 -0.066456 -0.020582 0.325560
  16 0.000004 10.675787 -0.000001 0.152866 1.474638 1.122284
  17 -0.333941 10.013580 0.308059 -0.168005 0.096608 0.109375
  18 0.000000 24.704325 0.000001 -1.574146 1.667997 0.017741
  19 0.000001 6.351502 -0.000000 0.198354 0.001395 -0.097763
  20 -1.857082 5.496419 1.049206 -1.572350 -0.614215 1.870838
  21 -0.000000 13.772745 -0.000009 -0.078140 1.530272 -0.085164
  22 0.000004 7.246480 -0.000002 -0.009259 0.391763 0.000707
  23 0.045481 7.648382 -0.051087 0.964388 -2.783127 0.214712
  24 0.000000 5.339063 -0.000001 0.461929 -0.018700 0.037542
  25 0.000001 5.500854 -0.000001 0.194087 -0.005756 -0.012667
  26 0.000000 6.958815 -0.000000 0.147175 0.000001 -0.029833
  27 1.885075 5.428183 1.059435 -1.707983 -0.598747 1.581253
  28 -0.000001 13.698033 -0.000000 0.006314 -1.447290 -0.012806
  29 -0.000002 7.246487 -0.000004 0.008189 -0.286594 -0.000377
  30 0.034061 7.649774 0.049411 -0.495461 2.773866 -0.308683
  31 -31.871754 -7.932549 -7.776752 0.484630 0.267996 1.150340
  32 -32.009941 4.777860 -7.738795 1.955205 0.321847 -2.335108
  33 47.170521 -6.015762 9.822681 0.000000 1.337036 -1.570796
  34 46.446648 6.448790 12.282795 -0.000000 1.799565 -1.570796
  35 30.577251 -5.776845 5.523670 2.208642 -0.071010 -1.749646
  36 30.506420 5.248586 6.025431 1.280821 -0.195334 1.233510
  37 -54.174271 -13.222942 -9.497232 -0.000000 0.021977 1.570796
  38 -52.234612 6.243333 3.678856 -0.000000 3.088139 1.570796
  time 6
  0 0.298907 -0.398544 -14.210740 1.570796 -0.000000 0.000000
  1 0.000000 24.704323 0.000001 0.000000 0.000001 -1.624258
  2 0.000001 5.484108 -0.000001 -1.459852 -1.661623 1.576050
  3 0.000000 5.912185 0.000000 0.073237 0.065833 0.038118
  4 0.000000 4.271068 0.000000 0.110694 0.116623 -0.074169
  5 -0.000000 4.620900 0.000000 0.078148 0.073997 -0.155242
  6 0.088485 2.672559 1.884162 0.063602 -0.044156 -0.180546
  7 -0.015901 4.194180 -1.228250 0.125876 0.125475 -0.412322
  8 0.000000 5.912185 0.000000 0.459781 -0.239096 -2.038707
  9 -0.000001 2.871584 -0.000001 -2.059182 1.073808 -0.136036
  10 -0.000001 5.892739 0.000001 -0.197211 -0.169578 -0.385877
  11 0.000000 10.675788 -0.000002 0.667142 -1.378555 0.716445
  12 -0.405963 10.292091 -0.097788 0.495000 0.410611 0.229303
  13 -0.030741 5.877327 0.001372 2.672136 -0.316577 -1.099175
  14 0.000000 2.871584 -0.000000 1.765988 -0.578023 0.347033
  15 -0.000001 5.892738 0.000001 -0.211064 -0.181389 0.633580
  16 0.000001 10.675789 -0.000003 0.088639 1.475017 0.961963
  17 -0.333938 10.013584 0.308061 -0.300810 0.067300 0.127111
  18 0.000000 24.704323 0.000001 -1.544129 1.667884 -0.081370
  19 0.000001 6.351501 0.000001 0.178697 0.001599 -0.098289
  20 -1.857082 5.496415 1.049207 -1.554008 -0.476956 1.929216
  21 0.000006 13.772742 -0.000007 -0.756922 1.371490 -1.254833
  22 0.000001 7.246480 -0.000003 -0.625601 0.391395 0.024371
  23 0.045483 7.648385 -0.051086 0.964388 -2.783128 0.214712
  24 0.000001 5.339063 -0.000000 0.461929 -0.018700 0.037542
  25 0.000001 5.500855 0.000000 0.132323 -0.003937 -0.012368
  26 0.000000 6.958816 0.000000 0.013018 0.000000 -0.029833
  27 1.885075 5.428183 1.059435 -1.703089 -0.510956 1.492390
  28 -0.000001 13.698038 0.000001 0.757250 -1.409564 -1.213383
  29 -0.000002 7.246483 0.000003 0.726195 -0.285039 -0.036154
  30 0.034059 7.649769 0.049414 -0.495461 2.773865 -0.308683
  31 -30.746580 -7.949990 -3.975737 0.484630 0.267996 1.150340
  32 -30.812489 4.690352 -3.920597 1.955205 0.321847 -2.335108
  33 46.089088 -5.661529 8.424789 0.000000 1.337036 -1.570796
  34 46.446648 6.823678 9.029036 -0.000000 1.799565 -1.570796
  35 26.889347 -5.828968 -0.322845 2.208642 -0.071010 -1.749646
  36 27.734737 5.250618 -0.477150 1.140472 -0.207447 1.273455
  37 -54.174271 -14.469995 -10.754009 -0.000000 0.021977 1.570796
  38 -46.060204 7.287401 -1.723694 -0.000000 3.088139 1.570796
  time 7
  0 0.298907 -0.398544 -15.928177 1.570796 -0.000000 0.000000
  1 0.000000 24.704325 0.000001 0.000000 0.000001 -1.742914
  2 -0.000000 5.484108 0.000000 1.630284 -1.503553 -1.566814
  3 -0.000000 5.912184 0.000001 -0.058359 0.084898 0.014783
  4 0.000000 4.271069 -0.000001 -0.083444 0.054559 -0.042629
  5 0.000000 4.620899 0.000001 0.043028 0.107036 -0.111277
  6 0.073359 2.743791 1.947360 0.059359 -0.071018 -0.149031
  7 -0.000000 3.347470 -1.402549 -0.753266 0.078488 -0.244834
  8 -0.000000 5.912184 0.000001 0.459781 -0.239096 -2.038707
  9 0.000001 2.871584 0.000000 -1.950071 0.976213 0.016692
  10 -0.000001 5.892740 0.000001 -0.067236 -0.119132 -0.839417
  11 0.000000 10.675793 0.000001 0.799923 -1.419634 0.902395
  12 -0.405961 10.292099 -0.097791 0.608349 0.354234 0.246176
  13 -0.030741 5.877326 0.001371 2.672136 -0.316577 -1.099175
  14 -0.000000 2.871584 0.000000 1.742421 -0.362238 0.454872
  15 -0.000000 5.892736 -0.000000 -0.132397 -0.298593 0.411514
  16 -0.000002 10.675787 0.000001 0.024945 1.471725 1.297806
  17 -0.333943 10.013593 0.308050 -0.476379 0.034751 0.153497
  18 0.000000 24.704325 0.000001 -1.533037 1.667770 -0.118145
  19 0.000000 6.351501 -0.000001 0.155148 0.001748 -0.098716
  20 -1.857082 5.496418 1.049202 -1.510201 -0.163437 1.891840
  21 0.000006 13.772738 -0.000010 -0.465525 1.309539 -1.521119
  22 0.000003 7.246479 -0.000001 -0.921355 0.418739 0.051763
  23 0.045487 7.648376 -0.051085 0.792950 -2.911018 0.300799
  24 0.000000 5.339064 -0.000001 0.248413 -0.010317 0.040652
  25 0.000000 5.500854 -0.000000 0.010949 -0.000327 -0.012108
  26 0.000000 6.958815 -0.000000 -0.115463 0.000000 -0.029833
  27 1.885075 5.428183 1.059435 -1.640008 -0.101816 1.338801
  28 -0.000001 13.698030 0.000002 0.049072 -1.336779 -1.226404
  29 -0.000000 7.246483 -0.000002 0.960988 -0.282010 -0.047377
  30 0.034064 7.649768 0.049415 -0.685584 2.746372 -0.360572
  31 -27.393818 -7.732610 -5.795774 0.662968 0.361111 1.290228
  32 -27.019993 4.758776 -5.665352 -1.075962 2.698644 0.932145
  33 44.798347 -5.238732 6.756344 0.000000 1.337036 -1.570796
  34 46.446648 7.271124 5.145515 -0.000000 1.799565 -1.570796
  35 18.083038 -6.219211 -8.201474 2.319912 -0.088977 -1.711030
  36 19.575695 5.350761 -8.620151 0.955319 -0.217660 1.326501
  37 -54.174271 -15.113749 -12.385243 -0.000000 0.021977 1.570796
  38 -38.690754 7.950127 -8.127339 -0.000000 3.088139 1.570796
  time 8
  0 0.298907 -0.398544 -18.332588 1.570796 -0.000000 0.000000
  1 0.000000 24.704325 0.000001 -0.000000 0.000001 -1.743286
  2 -0.000001 5.484108 0.000001 -1.571049 -1.594315 1.536558
  3 0.000000 5.912184 0.000001 -0.147016 0.113455 -0.018696
  4 0.000000 4.271069 -0.000000 -0.278153 -0.000000 0.000000
  5 -0.000000 4.620898 -0.000000 0.009141 0.141688 -0.068174
  6 0.041074 3.036797 2.056723 0.025163 -0.119523 -0.075131
  7 -0.000000 3.667348 -1.432075 -0.353781 0.103891 -0.056464
  8 0.000000 5.912184 0.000001 0.459781 -0.239096 -2.038707
  9 0.000000 2.871584 0.000001 -1.834946 0.787498 0.198870
  10 0.000001 5.892743 0.000000 -0.033238 0.060246 -0.876147
  11 0.000003 10.675788 -0.000001 0.499292 -1.391288 0.575338
  12 -0.405959 10.292085 -0.097793 0.852434 0.221009 0.259895
  13 -0.030740 5.877326 0.001373 2.672136 -0.316577 -1.099175
  14 0.000001 2.871584 0.000001 1.743435 -0.463419 0.436092
  15 -0.000001 5.892735 -0.000000 0.020501 -0.313551 -0.253476
  16 -0.000002 10.675784 -0.000002 -0.065374 1.469628 1.019873
  17 -0.333943 10.013591 0.308054 -0.652615 0.008077 0.183976
  18 0.000000 24.704325 0.000001 -1.531397 1.667749 -0.123595
  19 0.000000 6.351502 0.000000 0.135349 0.001838 -0.099003
  20 -1.857082 5.496418 1.049204 -1.483549 -0.071042 1.802412
  21 0.000003 13.772740 -0.000007 -0.837068 1.286226 -2.214000
  22 -0.000000 7.246482 0.000005 -1.460976 0.563646 0.109090
  23 0.045477 7.648370 -0.051086 0.634173 -3.053061 0.362871
  24 0.000001 5.339063 -0.000001 0.068341 -0.002866 0.041842
  25 0.000001 5.500854 0.000000 -0.073134 0.002181 -0.012187
  26 -0.000000 6.958814 0.000001 -0.235853 0.000000 -0.029834
  27 1.885076 5.428185 1.059437 -1.813425 0.058545 1.572837
  28 0.000003 13.698028 0.000002 0.400096 -1.273947 -2.000431
  29 -0.000001 7.246484 -0.000002 1.521397 -0.281032 -0.045555
  30 0.034062 7.649770 0.049415 -0.882987 2.728291 -0.418943
  31 -24.041054 -7.515229 -7.615812 0.863189 0.428661 1.453488
  32 -23.227493 4.827199 -7.410108 -0.938621 2.590576 1.083949
  33 43.716915 -4.884498 5.358450 0.000000 1.337036 -1.570796
  34 46.446648 7.646012 1.891752 -0.000000 1.799565 -1.570796
  35 8.351643 -6.865974 -15.847015 2.567688 -0.143371 -1.629993
  36 9.400902 5.628176 -16.198874 0.769937 -0.219404 1.380058
  37 -54.174271 -14.559549 -14.012825 -0.000000 0.021977 1.570796
  38 -32.516346 6.551535 -13.491535 -0.000000 3.088139 1.570796
end
