version 1
nodes
0 "Bone.016" -1
1 "Bone" 0
2 "Bone.001" 1
3 "Bone.002" 2
4 "Bone.003" 3
5 "Bone.004" 4
6 "Bone.006" 5
7 "Bone.009" 5
8 "Leg.L.001" 2
9 "Leg.L.002" 8
10 "Leg.L.003" 9
11 "Leg.L.004" 10
12 "Leg.L.006" 11
13 "Leg.R.001" 2
14 "Leg.R.002" 13
15 "Leg.R.003" 14
16 "Leg.R.004" 15
17 "Leg.R.006" 16
18 "Bone.011" 0
19 "Bone.012" 18
20 "BLeg.L.002" 19
21 "BLeg.L.004" 20
22 "BLeg.L.005" 21
23 "BLeg.L.007" 22
24 "Bone.013" 19
25 "Bone.014" 24
26 "Bone.015" 25
27 "BLeg.R.002" 19
28 "BLeg.R.004" 27
29 "BLeg.R.005" 28
30 "BLeg.R.007" 29
31 "BLeg_ik.L.001" -1
32 "BLeg_ik.R.001" -1
33 "LegPull.L.001" -1
34 "LegPull.R.001" -1
35 "Leg_ik.L.001" -1
36 "Leg_ik.R.001" -1
37 "BLeg_pull.L.001" -1
38 "BLeg_pull.R.001" -1
end
skeleton
  time 0
  0 0.298907 -0.398544 -25.266764 1.570796 -0.000000 0.000000
  1 0.000000 24.704325 0.000001 0.000000 0.000001 -1.697365
  2 -0.000001 5.484108 -0.000000 -0.111908 -1.570796 0.000000
  3 0.000001 5.912186 0.000000 -0.061632 -0.081422 0.106287
  4 -0.000000 4.271068 -0.000000 -0.227192 -0.025299 -0.337321
  5 -0.000000 4.620898 -0.000000 0.116290 -0.083040 0.303023
  6 0.661321 2.420715 1.520875 0.129098 0.104401 0.049604
  7 -0.000000 3.347469 -1.402547 -0.847834 -0.054679 0.100305
  8 0.000001 5.912186 0.000000 0.459781 -0.239096 -2.038707
  9 -0.000000 2.871584 -0.000001 -1.791462 0.555218 0.189071
  10 -0.000001 5.892741 -0.000000 0.141987 0.169710 -0.453794
  11 0.000000 10.675787 0.000000 0.024636 -1.483853 1.154523
  12 -0.405961 10.292089 -0.097798 0.679215 0.053369 0.183630
  13 -0.030740 5.877328 0.001372 2.672136 -0.316577 -1.099175
  14 0.000001 2.871585 -0.000000 1.387760 -0.670936 0.371009
  15 0.000000 5.892739 0.000001 0.387359 -0.111388 -0.634576
  16 -0.000001 10.675785 0.000003 -0.091358 1.469957 1.130350
  17 -0.333942 10.013584 0.308053 -0.968930 0.011437 0.103596
  18 0.000000 24.704325 0.000001 -1.647776 1.667039 0.263151
  19 0.000000 6.351501 -0.000000 0.206577 0.001152 -0.097173
  20 -1.857083 5.496418 1.049204 -1.145030 0.043532 1.745856
  21 -0.000005 13.772737 -0.000008 -0.564401 0.980911 -2.154649
  22 -0.000002 7.246489 -0.000005 -1.108850 0.172551 -0.084740
  23 0.045481 7.648393 -0.051088 1.480353 3.135916 -0.080449
  24 0.000000 5.339064 0.000001 0.056453 -0.011413 0.037036
  25 -0.000000 5.500854 -0.000000 -0.267095 0.020109 -0.169529
  26 -0.000001 6.958818 0.000001 -0.136532 0.071927 -0.254889
  27 1.885075 5.428186 1.059437 -2.109492 0.131088 1.551817
  28 0.000001 13.698031 0.000001 0.049622 -1.257771 -1.539480
  29 -0.000002 7.246481 0.000002 1.293685 0.071704 -0.101620
  30 0.034067 7.649773 0.049412 1.708913 0.181308 2.379483
  31 -16.878149 -7.086494 -22.773705 0.072132 -0.075025 1.490705
  32 -14.301720 9.205772 -22.838272 -0.254653 2.615156 1.576697
  33 32.364582 -14.725309 -24.618189 0.000000 1.337036 -1.570796
  34 32.543880 10.651133 -13.297186 -0.000000 1.799565 -1.570796
  35 10.028047 -10.105756 -21.660482 2.392243 -0.221562 -1.441785
  36 9.623175 7.783044 -21.852821 0.457576 -0.346641 1.461908
  37 -38.426971 -6.754756 -21.720806 -0.000000 0.021977 1.570796
  38 -29.927073 4.987432 -15.762349 -0.000000 3.088139 1.570796
  time 1
  0 0.298907 -0.398544 -25.457535 1.636043 -0.155949 -0.396025
  1 0.000000 24.704319 -0.000002 0.000000 0.000001 -1.185927
  2 -0.000001 5.484109 -0.000000 0.041062 -1.570796 0.000000
  3 0.000001 5.912185 0.000000 0.074759 0.013362 0.301057
  4 -0.000000 4.271068 -0.000001 -0.556160 0.253730 0.674865
  5 -0.000001 4.620898 0.000000 0.439576 0.339655 -0.043710
  6 0.679898 2.416687 1.520136 0.132687 0.144342 0.042279
  7 -0.000001 3.347469 -1.402548 -0.547893 -0.005474 0.016238
  8 0.000001 5.912185 0.000000 0.459781 -0.239096 -2.038707
  9 0.000000 2.871584 -0.000001 -1.828391 0.534768 0.182350
  10 -0.000001 5.892742 0.000001 0.027770 -0.326773 -0.635308
  11 0.000001 10.675787 -0.000001 0.000356 -1.478561 0.004006
  12 -0.405960 10.292082 -0.097792 0.707104 0.051841 0.190324
  13 -0.030739 5.877326 0.001370 2.672136 -0.316577 -1.099175
  14 0.000000 2.871584 0.000001 1.344002 -0.676566 0.411680
  15 0.000001 5.892738 0.000000 0.186588 -0.329376 -0.906167
  16 -0.000000 10.675781 -0.000001 -0.000536 1.461785 0.004173
  17 -0.333947 10.013593 0.308056 -0.946221 0.015848 0.106958
  18 0.000000 24.704319 -0.000002 -1.653332 1.666894 0.282089
  19 0.000000 6.351503 0.000000 0.206576 0.001152 -0.097173
  20 -1.857084 5.496418 1.049205 -0.937014 0.325375 2.266624
  21 -0.000002 13.772743 -0.000003 -0.381615 0.853566 -2.306037
  22 -0.000005 7.246484 -0.000006 -1.140853 0.065211 -0.053648
  23 0.045479 7.648391 -0.051089 1.438432 -3.126441 -0.086052
  24 -0.000000 5.339063 0.000000 -0.007790 0.000327 0.041939
  25 -0.000000 5.500855 0.000000 0.267736 -0.007895 -0.013170
  26 0.000001 6.958815 0.000000 0.328047 0.000000 -0.029833
  27 1.885074 5.428183 1.059437 -2.258215 0.629878 1.709968
  28 0.000002 13.698034 -0.000001 -0.372186 -1.207459 -1.899243
  29 -0.000002 7.246483 -0.000002 1.246918 0.162300 -0.134146
  30 0.034066 7.649770 0.049413 1.749068 0.184701 2.436226
  31 -12.717613 -4.195735 -22.779926 0.115975 -0.075393 1.469713
  32 -9.666945 10.718641 -19.844080 -0.292317 2.568539 1.528549
  33 32.364582 -15.843000 -24.193331 0.000000 1.337036 -1.570796
  34 32.543880 9.566290 -12.465937 -0.000000 1.799565 -1.570796
  35 8.258858 -9.976414 -21.390659 2.421124 -0.220430 -1.444960
  36 10.723121 7.176209 -21.083366 0.481562 -0.341447 1.451074
  37 -36.931667 -2.080840 -22.917282 -0.000000 0.021977 1.570796
  38 -29.927073 4.987432 -15.762349 -0.000000 3.088139 1.570796
  time 2
  0 3.152986 -0.164163 -24.873878 1.954617 -0.269712 -0.677630
  1 0.000002 24.704323 -0.000001 -0.038104 0.003255 -1.401613
  2 0.000001 5.484107 0.000000 1.382993 -1.588710 -1.374954
  3 -0.000000 5.912184 0.000001 0.070279 0.018993 0.286172
  4 0.000001 4.271066 -0.000001 -0.368784 0.149838 0.459703
  5 0.000000 4.620898 -0.000000 0.300429 0.332145 -0.002812
  6 0.697327 2.413439 1.519764 0.135894 0.183082 0.035256
  7 0.000001 3.347469 -1.402546 -0.546827 -0.005093 0.016008
  8 -0.000000 5.912184 0.000001 0.459781 -0.239096 -2.038708
  9 -0.000001 2.871584 -0.000000 -1.862032 0.515668 0.176314
  10 -0.000001 5.892742 0.000000 -0.008924 -0.317951 -0.440295
  11 0.000001 10.675788 0.000002 0.000611 -1.474415 0.003979
  12 -0.405959 10.292089 -0.097796 0.734829 0.050137 0.196936
  13 -0.030741 5.877326 0.001373 2.672136 -0.316577 -1.099175
  14 0.000000 2.871584 -0.000001 1.380731 -0.689251 0.442454
  15 -0.000004 5.892738 -0.000000 0.196326 -0.516825 -0.804016
  16 0.000003 10.675787 0.000002 -0.000639 1.459699 0.004189
  17 -0.333944 10.013593 0.308055 -0.929324 0.017930 0.112031
  18 0.000002 24.704323 -0.000001 -1.562613 1.612250 0.343167
  19 0.000001 6.351502 0.000000 0.206499 0.006490 -0.124478
  20 -1.857083 5.496417 1.049204 -0.978236 0.576394 2.363803
  21 0.000001 13.772746 -0.000009 -0.259909 0.779521 -2.391016
  22 -0.000006 7.246484 -0.000006 -1.172014 -0.023145 0.013830
  23 0.045479 7.648392 -0.051086 1.407461 -3.101709 -0.089853
  24 -0.000000 5.339062 0.000000 -0.007790 0.000327 0.041939
  25 -0.000000 5.500854 0.000000 0.193732 0.006613 -0.060419
  26 0.000001 6.958814 -0.000000 0.288939 0.015525 -0.069813
  27 1.885075 5.428182 1.059435 -2.304573 0.630409 1.623999
  28 0.000006 13.698034 -0.000001 -0.590555 -1.235706 -1.825432
  29 -0.000003 7.246486 -0.000001 1.455642 0.251115 -0.137345
  30 0.034060 7.649775 0.049418 1.790100 0.185846 2.494115
  31 -8.158582 1.985680 -22.779465 0.149184 -0.074427 1.444997
  32 -5.032168 12.231510 -16.849888 -0.334661 2.522787 1.475795
  33 32.364582 -18.500355 -22.866903 0.000000 1.337036 -1.570796
  34 32.543880 6.335793 -10.405970 -0.000000 1.799565 -1.570796
  35 7.448650 -9.847073 -21.120834 2.449837 -0.219216 -1.448082
  36 11.823067 5.496503 -19.040541 0.498853 -0.334775 1.443889
  37 -33.075367 8.704180 -23.904915 -0.000000 0.021977 1.570796
  38 -26.237858 9.682878 -14.275787 -0.000000 3.088139 1.570796
  time 3
  0 6.007065 0.070217 -24.290222 2.330652 -0.283527 -1.015332
  1 -0.000001 24.704323 0.000001 -0.076959 -0.001951 -1.622697
  2 -0.000000 5.484108 -0.000000 1.346586 -1.628176 -1.411403
  3 -0.000000 5.912185 0.000000 0.058988 0.032051 0.250498
  4 0.000000 4.271068 0.000000 0.037168 0.075904 0.005361
  5 -0.000000 4.620898 0.000000 -0.016791 0.322083 0.092292
  6 0.713516 2.410890 1.519700 0.138715 0.220150 0.028591
  7 -0.000001 3.347471 -1.402546 -0.539365 -0.002413 0.014407
  8 -0.000000 5.912185 0.000000 0.459781 -0.239096 -2.038707
  9 -0.000000 2.871584 -0.000000 -1.889712 0.499595 0.170914
  10 0.000001 5.892739 -0.000000 0.069440 -0.272280 -0.638699
  11 -0.000001 10.675785 0.000001 0.183113 -1.479568 0.995544
  12 -0.405960 10.292088 -0.097791 0.762379 0.048262 0.203460
  13 -0.030741 5.877327 0.001372 2.672136 -0.316577 -1.099175
  14 0.000000 2.871585 -0.000000 1.489934 -0.708879 0.457544
  15 -0.000000 5.892737 -0.000000 0.064574 -0.618574 -0.491590
  16 -0.000001 10.675787 0.000001 -0.000733 1.457695 0.004154
  17 -0.333945 10.013592 0.308059 -0.917377 0.018018 0.118502
  18 -0.000001 24.704323 0.000001 -1.600379 1.490401 0.239593
  19 -0.000000 6.351502 0.000001 0.205815 0.018211 -0.184544
  20 -1.857085 5.496417 1.049206 -1.176386 0.531597 2.311032
  21 -0.000006 13.772734 -0.000001 -0.291974 0.798908 -2.359138
  22 -0.000005 7.246480 -0.000004 -1.222277 -0.041206 0.124418
  23 0.045482 7.648395 -0.051088 1.385757 -3.073875 -0.091995
  24 -0.000000 5.339062 -0.000000 -0.007790 0.000327 0.041939
  25 -0.000001 5.500854 0.000001 0.025591 0.029568 -0.174010
  26 0.000000 6.958813 0.000001 0.172533 0.045295 -0.169991
  27 1.885074 5.428184 1.059437 -2.059143 0.213725 1.459294
  28 0.000001 13.698036 -0.000003 -1.006716 -1.332304 -1.324999
  29 -0.000002 7.246482 -0.000001 2.049505 0.269674 -0.066998
  30 0.034063 7.649774 0.049418 1.831791 0.184617 2.552933
  31 -3.961111 9.198338 -22.775364 0.173281 -0.072184 1.417293
  32 -0.397394 13.744379 -13.855697 -0.382231 2.478337 1.417891
  33 32.364582 -21.653790 -20.561131 0.000000 1.337036 -1.570796
  34 32.543880 0.995691 -7.767962 -0.000000 1.799565 -1.570796
  35 7.272373 -9.717731 -20.851011 2.478373 -0.217924 -1.451149
  36 12.782593 2.955126 -16.122658 0.510466 -0.326959 1.439794
  37 -27.802462 21.492992 -24.650932 -0.000000 0.021977 1.570796
  38 -17.014820 21.100412 -10.712360 -0.000000 3.088139 1.570796
  time 4
  0 8.861144 0.304598 -23.706566 2.686878 -0.179141 -1.331814
  1 0.000001 24.704319 -0.000001 -0.113731 -0.015545 -1.843434
  2 0.000001 5.484107 -0.000001 1.310126 -1.667566 -1.447871
  3 0.000001 5.912183 -0.000001 0.046988 0.046514 0.206007
  4 0.000000 4.271067 -0.000000 0.245981 0.110652 -0.227905
  5 -0.000000 4.620899 0.000000 -0.334988 0.308644 0.192837
  6 0.728380 2.408957 1.519888 0.141155 0.255087 0.022337
  7 -0.000000 3.347469 -1.402548 -0.519115 0.004928 0.010159
  8 0.000001 5.912183 -0.000001 0.459781 -0.239096 -2.038707
  9 -0.000001 2.871584 -0.000001 -1.908876 0.488230 0.165942
  10 -0.000001 5.892737 -0.000001 0.031413 -0.281155 -0.390252
  11 -0.000001 10.675786 0.000001 0.280886 -1.488204 1.423187
  12 -0.405958 10.292089 -0.097798 0.789744 0.046222 0.209889
  13 -0.030739 5.877325 0.001371 2.672136 -0.316577 -1.099175
  14 0.000000 2.871584 -0.000000 1.606609 -0.726745 0.459983
  15 -0.000001 5.892735 0.000000 -0.042230 -0.502851 -0.349183
  16 -0.000002 10.675786 0.000001 -0.111505 1.459663 0.597619
  17 -0.333944 10.013588 0.308054 -0.909546 0.016460 0.126100
  18 0.000001 24.704319 -0.000001 -1.425127 1.364566 0.347778
  19 0.000001 6.351501 0.000000 0.204428 0.029869 -0.244633
  20 -1.857083 5.496416 1.049205 -1.147786 0.265883 2.482514
  21 -0.000005 13.772736 0.000004 -0.319798 0.818855 -2.334226
  22 -0.000006 7.246483 -0.000003 -1.270678 -0.046410 0.235592
  23 0.045480 7.648394 -0.051084 1.371644 -3.043671 -0.092651
  24 0.000000 5.339062 0.000000 -0.007790 0.000327 0.041939
  25 -0.000000 5.500854 0.000000 -0.146855 0.040558 -0.303118
  26 0.000001 6.958813 0.000001 0.000504 0.061591 -0.296044
  27 1.885075 5.428184 1.059438 -1.863793 0.129432 1.608663
  28 0.000002 13.698035 0.000001 -1.154320 -1.383152 -0.798210
  29 0.000002 7.246481 0.000004 1.808077 0.138461 -0.171143
  30 0.034063 7.649771 0.049412 1.873899 0.180916 2.612444
  31 -0.885257 15.182833 -22.770670 0.189770 -0.068766 1.387301
  32 4.237381 15.257248 -10.861506 -0.435579 2.435691 1.354285
  33 32.364582 -24.259722 -17.198236 0.000000 1.337036 -1.570796
  34 32.543880 -6.417969 -5.202590 -0.000000 1.799565 -1.570796
  35 7.404976 -9.588389 -20.581188 2.506721 -0.216555 -1.454157
  36 13.461283 -0.236724 -12.728033 0.517405 -0.318257 1.438227
  37 -22.057362 32.178303 -25.122574 -0.000000 0.021977 1.570796
  38 -5.024874 35.236843 -6.416445 -0.000000 3.088139 1.570796
  time 5
  0 11.715222 0.538978 -23.122908 2.967060 -0.000000 -1.570796
  1 -0.000000 24.704323 0.000003 -0.145900 -0.036244 -2.058224
  2 -0.000001 5.484109 0.000000 1.293563 -1.685394 -1.464436
  3 -0.000001 5.912186 0.000001 0.041064 0.057073 0.164942
  4 -0.000001 4.271069 0.000000 0.201115 0.064493 0.337900
  5 0.000000 4.620899 0.000000 -0.480584 0.239350 0.258733
  6 0.741828 2.407561 1.520271 0.143223 0.287450 0.016548
  7 -0.000001 3.347470 -1.402549 -0.479711 0.019483 0.002306
  8 -0.000001 5.912186 0.000001 0.459781 -0.239096 -2.038707
  9 -0.000000 2.871584 0.000000 -1.916996 0.483257 0.161152
  10 0.000001 5.892739 0.000001 -0.044238 -0.362744 0.087733
  11 0.000002 10.675785 -0.000000 0.349486 -1.493859 1.585631
  12 -0.405960 10.292089 -0.097796 0.816915 0.044021 0.216218
  13 -0.030742 5.877328 0.001373 2.672136 -0.316577 -1.099175
  14 0.000001 2.871583 -0.000000 1.661216 -0.733667 0.458099
  15 -0.000002 5.892738 -0.000001 -0.427264 -0.087217 -0.060736
  16 -0.000001 10.675787 0.000001 -0.151875 1.460922 0.767298
  17 -0.333945 10.013589 0.308051 -0.905008 0.013609 0.134583
  18 -0.000000 24.704323 0.000003 -1.175912 1.285353 0.563760
  19 0.000000 6.351503 0.000001 0.203558 0.035188 -0.272228
  20 -1.857083 5.496417 1.049203 -0.899589 0.065959 2.738308
  21 -0.000000 13.772736 -0.000001 -0.149917 0.729802 -2.454267
  22 -0.000008 7.246478 -0.000002 -1.334675 -0.115933 0.313274
  23 0.045477 7.648394 -0.051083 1.363471 -3.011783 -0.091978
  24 -0.000000 5.339062 -0.000001 -0.007790 0.000327 0.041939
  25 0.000001 5.500854 -0.000000 -0.228576 0.054546 -0.390955
  26 -0.000001 6.958815 0.000000 -0.195762 0.048645 -0.403467
  27 1.885075 5.428184 1.059436 -1.730740 0.022416 1.942726
  28 0.000002 13.698033 0.000002 -1.073557 -1.368517 -0.339364
  29 -0.000001 7.246482 -0.000000 1.390078 -0.021990 -0.241682
  30 0.034068 7.649774 0.049415 -1.225428 2.966917 -0.469199
  31 0.308929 17.679758 -22.768429 0.200133 -0.064270 1.355698
  32 8.872152 16.770117 -7.867315 -0.495223 2.395420 1.284458
  33 32.364582 -25.274563 -12.700446 0.000000 1.337036 -1.570796
  34 32.543880 -15.869133 -3.360533 -0.000000 1.799565 -1.570796
  35 7.521411 -9.459047 -20.311365 2.534870 -0.215113 -1.457104
  36 13.718717 -3.867843 -9.254982 0.520658 -0.308878 1.438635
  37 -16.784456 36.652813 -25.287067 -0.000000 0.021977 1.570796
  38 6.965075 48.089005 -2.732414 -0.000000 3.088139 1.570796
  time 6
  0 13.672204 0.773359 -23.422039 2.967060 -0.000000 -1.570796
  1 -0.000000 24.704323 0.000001 -0.350458 0.635854 -2.094031
  2 -0.000000 5.484109 0.000001 0.779087 -1.541075 -0.807849
  3 -0.000001 5.912186 0.000000 0.033301 -0.180541 0.055803
  4 0.000001 4.271067 0.000000 0.113964 -0.181909 0.138006
  5 -0.000000 4.620900 0.000000 -0.520236 -0.134174 0.250381
  6 0.753771 2.406616 1.520789 0.144941 0.316808 0.011283
  7 -0.000000 3.347470 -1.402547 -0.414881 0.044146 -0.009392
  8 -0.000001 5.912186 0.000000 0.459781 -0.239096 -2.038707
  9 0.000000 2.871585 0.000000 -1.434093 0.633424 0.196560
  10 0.000000 5.892741 0.000000 -0.709846 -0.115025 -0.552785
  11 0.000002 10.675789 0.000001 0.414224 -1.493426 1.516684
  12 -0.405961 10.292090 -0.097796 0.843881 0.041667 0.222441
  13 -0.030740 5.877328 0.001372 2.672136 -0.316576 -1.099175
  14 0.000000 2.871585 0.000001 1.675610 -0.687381 0.434030
  15 -0.000001 5.892737 0.000002 0.264317 0.030544 -0.480342
  16 -0.000001 10.675790 0.000002 -0.238122 1.476016 1.500637
  17 -0.333944 10.013589 0.308052 -0.902950 0.009809 0.143725
  18 -0.000000 24.704323 0.000001 -0.432013 0.770579 1.312719
  19 -0.000001 6.351502 -0.000000 0.140018 0.088766 0.008669
  20 -1.857084 5.496415 1.049205 -1.010647 0.097196 2.339988
  21 -0.000007 13.772735 -0.000003 0.093804 0.638878 -2.621445
  22 -0.000003 7.246474 -0.000003 -1.364511 -0.203785 0.365407
  23 0.045476 7.648387 -0.051085 1.359600 -2.978875 -0.090073
  24 -0.000001 5.339063 -0.000001 -0.007790 0.000327 0.041939
  25 -0.000001 5.500855 -0.000000 -0.175018 0.091461 -0.428373
  26 -0.000001 6.958815 -0.000002 -0.385630 0.013978 -0.446327
  27 1.885074 5.428185 1.059436 -1.578087 0.252999 1.831947
  28 0.000004 13.698033 0.000001 -1.443763 -1.374406 -0.617429
  29 0.000002 7.246477 0.000000 1.523697 0.070511 -0.322702
  30 0.034059 7.649771 0.049420 -1.183270 2.975725 -0.409071
  31 -0.313074 17.498539 -16.125711 0.205833 -0.058746 1.323152
  32 4.155260 15.570246 -5.678101 -0.561591 2.358158 1.207982
  33 26.641600 -24.418501 -7.588173 0.000000 1.337036 -1.570796
  34 15.794724 -26.949955 -2.852934 -0.000000 1.799565 -1.570796
  35 8.458656 -9.329706 -13.696611 2.562812 -0.213601 -1.459987
  36 6.485820 -7.748572 -6.350592 0.521191 -0.299002 1.440478
  37 -12.928152 30.832458 -24.548786 -0.000000 0.021977 1.570796
  38 16.188112 56.295826 -0.698708 -0.000000 3.088139 1.570796
  time 7
  0 14.468482 1.007739 -23.721169 2.967060 -0.000000 -1.570796
  1 -0.000000 24.704323 0.000001 0.329907 2.002663 -1.202911
  2 0.000000 5.484108 -0.000000 1.239050 -1.403488 -1.125286
  3 -0.000001 5.912185 0.000001 0.047626 -0.417789 -0.055137
  4 -0.000000 4.271069 0.000000 0.134229 -0.394670 -0.109670
  5 -0.000001 4.620900 -0.000001 -0.442934 -0.489471 0.107142
  6 0.764119 2.406040 1.521384 0.146328 0.342745 0.006602
  7 0.000001 3.347469 -1.402547 -0.318651 0.082163 -0.023823
  8 -0.000001 5.912185 0.000001 0.459781 -0.239096 -2.038707
  9 -0.000001 2.871584 -0.000001 -0.884724 0.749028 0.329557
  10 0.000002 5.892740 0.000001 0.242309 0.015183 -0.782060
  11 0.000001 10.675795 0.000003 0.438861 -1.480613 1.169344
  12 -0.405961 10.292094 -0.097792 0.870635 0.039165 0.228554
  13 -0.030741 5.877326 0.001372 2.672136 -0.316577 -1.099175
  14 0.000001 2.871584 0.000000 1.697637 -0.581867 0.387950
  15 -0.000003 5.892739 0.000001 0.447118 0.266219 -0.629018
  16 0.000004 10.675788 0.000004 -0.240831 1.485862 1.914417
  17 -0.333941 10.013595 0.308050 -0.902562 0.005396 0.153301
  18 -0.000000 24.704323 0.000001 -0.244663 -0.572423 1.553164
  19 -0.000000 6.351502 0.000001 0.093578 0.157651 0.287706
  20 -1.857085 5.496418 1.049204 -0.517301 0.063861 1.669450
  21 -0.000005 13.772744 -0.000002 -0.000492 0.711150 -2.601106
  22 -0.000003 7.246477 -0.000006 -1.365722 -0.116260 0.420359
  23 0.045476 7.648396 -0.051084 1.358401 -2.945597 -0.086944
  24 -0.000000 5.339064 0.000000 -0.007790 0.000327 0.041939
  25 0.000000 5.500855 -0.000001 -0.049249 0.144726 -0.443341
  26 -0.000000 6.958816 -0.000000 -0.542749 -0.065921 -0.344971
  27 1.885073 5.428185 1.059436 -1.477302 0.467072 2.020897
  28 0.000001 13.698039 0.000003 -1.719221 -1.376440 -1.067069
  29 -0.000002 7.246484 -0.000002 1.430430 0.154218 -0.406615
  30 0.034066 7.649777 0.049422 -1.141489 2.987098 -0.349035
  31 -2.985970 16.001806 -6.034418 0.208325 -0.052176 1.290335
  32 -10.902264 13.475336 -5.460846 -0.634927 2.324589 1.124612
  33 15.083931 -24.128944 -4.855047 0.000000 1.337036 -1.570796
  34 -7.826542 -37.765388 -4.132831 -0.000000 1.799565 -1.570796
  35 8.383089 -9.200364 -7.081858 2.590539 -0.212023 -1.462805
  36 -12.942465 -11.775414 -5.657030 0.519948 -0.288800 1.443242
  37 -11.432848 25.073311 -21.025879 -0.000000 0.021977 1.570796
  38 19.877325 59.064831 -0.129986 -0.000000 3.088139 1.570796
  time 8
  0 14.611231 1.242120 -23.129490 2.967060 -0.000000 -1.570796
  1 -0.000000 24.704323 0.000001 -0.007917 -3.106666 -1.297734
  2 0.000001 5.484109 0.000001 1.282361 -1.410408 -1.197805
  3 -0.000001 5.912185 0.000000 0.004121 -0.411661 -0.081375
  4 0.000001 4.271069 -0.000001 0.600968 0.042067 -0.135566
  5 0.000000 4.620899 -0.000001 -0.052624 -0.414696 -0.160063
  6 0.772786 2.405755 1.522003 0.147411 0.364857 0.002569
  7 -0.006008 3.354960 -1.398517 -0.298760 0.091128 -0.024814
  8 -0.000001 5.912185 0.000000 0.459781 -0.239096 -2.038707
  9 -0.000001 2.871586 -0.000000 -0.917441 0.723512 0.324085
  10 -0.000001 5.892744 0.000001 -0.727441 0.114520 -0.819574
  11 0.000003 10.675782 -0.000000 0.439476 -1.470126 0.964802
  12 -0.405964 10.292089 -0.097794 0.897168 0.036521 0.234551
  13 -0.030742 5.877327 0.001371 2.672136 -0.316576 -1.099175
  14 0.000001 2.871584 0.000001 1.704972 -0.465573 0.349066
  15 -0.000003 5.892736 -0.000001 0.474505 0.018598 0.202923
  16 -0.000005 10.675793 0.000000 -0.190865 1.458484 0.784631
  17 -0.333943 10.013590 0.308055 -0.903032 0.000695 0.163087
  18 -0.000000 24.704323 0.000001 1.817011 -1.634154 -0.438800
  19 0.000001 6.351502 0.000000 0.118480 0.157520 0.257597
  20 -1.857084 5.496419 1.049205 -0.776054 0.526945 1.389600
  21 -0.000004 13.772741 0.000002 -0.249428 0.850892 -2.472568
  22 -0.000006 7.246484 -0.000002 -1.350282 0.037925 0.439594
  23 0.045478 7.648396 -0.051079 1.358236 -2.912606 -0.082495
  24 -0.000001 5.339063 -0.000000 -0.007790 0.000327 0.041939
  25 0.000001 5.500855 0.000001 0.076456 0.206430 -0.442791
  26 -0.000000 6.958816 0.000000 -0.666720 -0.188687 -0.118178
  27 1.885075 5.428187 1.059437 -1.718627 0.582895 1.702184
  28 0.000001 13.698049 -0.000002 -1.584461 -1.340268 -0.713077
  29 0.000000 7.246488 0.000002 1.473081 0.133829 -0.468470
  30 0.034061 7.649778 0.049416 -1.100345 3.000988 -0.289343
  31 -21.759514 11.721212 -4.023302 0.209054 -0.044456 1.257929
  32 -27.209391 13.110769 -14.310902 -0.715188 2.295428 1.034392
  33 4.689125 -27.239422 -4.038192 0.000000 1.337036 -1.570796
  34 -18.421040 -45.116199 -10.871926 -0.000000 1.799565 -1.570796
  35 -24.813953 -9.304272 -1.420120 2.618041 -0.210382 -1.465555
  36 -30.756535 -14.274951 -12.884050 0.517851 -0.278442 1.446434
  37 -18.877197 26.282146 -14.233546 -0.000000 0.021977 1.570796
  38 16.766878 58.430683 -0.830864 -0.000000 3.088139 1.570796
  time 9
  0 14.887079 1.476500 -22.092155 2.967060 -0.000000 -1.570796
  1 -0.000000 24.704323 0.000001 -0.217599 -2.480534 -1.221839
  2 0.000001 5.484108 0.000000 1.375890 -1.421457 -1.345408
  3 -0.000000 5.912186 -0.000000 -0.096669 -0.397804 -0.098952
  4 -0.000000 4.271069 -0.000000 0.384052 0.183936 -0.224803
  5 -0.000000 4.620901 0.000001 0.185755 -0.198919 -0.248401
  6 0.779682 2.405674 1.522583 0.148216 0.382745 -0.000747
  7 -0.048060 3.407400 -1.370305 -0.157349 0.154974 -0.026682
  8 -0.000000 5.912186 -0.000000 0.459781 -0.239096 -2.038707
  9 0.000001 2.871584 -0.000000 -1.002604 0.653224 0.315079
  10 -0.000002 5.892740 0.000001 -0.024909 0.500836 0.690709
  11 0.000000 10.675787 0.000001 0.001585 -1.437264 0.002772
  12 -0.405965 10.292088 -0.097799 0.923472 0.033742 0.240429
  13 -0.030740 5.877327 0.001372 2.672136 -0.316577 -1.099175
  14 0.000001 2.871585 0.000001 1.688195 -0.388659 0.335792
  15 -0.000001 5.892738 0.000000 0.833744 -0.264075 0.426295
  16 0.000001 10.675789 -0.000001 -0.119023 1.451111 0.434644
  17 -0.333942 10.013587 0.308048 -0.903547 -0.003990 0.172849
  18 -0.000000 24.704323 0.000001 -0.133854 -2.146382 1.483337
  19 -0.000000 6.351502 0.000001 0.185647 0.155756 0.185074
  20 -1.857081 5.496417 1.049206 -0.799542 0.116969 1.995347
  21 -0.000001 13.772730 -0.000002 -0.799003 1.223985 -1.847390
  22 -0.000004 7.246488 0.000007 -1.008192 0.093625 0.373334
  23 0.045482 7.648375 -0.051087 1.357443 -2.880562 -0.076517
  24 0.000002 5.339063 0.000000 -0.007790 0.000327 0.041939
  25 -0.000000 5.500855 0.000002 0.128724 0.270359 -0.443348
  26 -0.000001 6.958816 0.000000 -0.751604 -0.326085 0.113378
  27 1.885076 5.428183 1.059437 -1.576049 0.513839 1.596116
  28 -0.000000 13.698038 0.000008 -1.545179 -1.313794 -0.615213
  29 -0.000001 7.246480 0.000000 1.521548 0.188232 -0.521926
  30 0.034063 7.649768 0.049418 -1.060086 3.017312 -0.230242
  31 -32.288017 6.093573 -4.862593 0.209461 -0.035385 1.226634
  32 -27.528889 13.230555 -22.932421 -0.801925 2.271374 0.937770
  33 -3.222786 -33.204124 -2.571693 0.000000 1.337036 -1.570796
  34 -23.861450 -46.624538 -20.229927 -0.000000 1.799565 -1.570796
  35 -32.350368 -19.939859 -6.968426 2.645310 -0.208682 -1.468236
  36 -30.845131 -14.413733 -20.857941 0.515799 -0.268106 1.449585
  37 -10.345028 28.481293 -10.248953 -0.000000 0.021977 1.570796
  38 7.478346 53.991608 -5.737035 -0.000000 3.088139 1.570796
  time 10
  0 16.161587 1.710881 -21.474016 2.924436 -0.041923 -1.517387
  1 0.000000 24.704323 0.000001 -2.037126 -1.875495 0.447390
  2 -0.000002 5.484109 0.000000 1.433300 -1.426426 -1.431900
  3 0.000000 5.912184 0.000000 -0.215851 -0.371089 -0.108357
  4 0.000000 4.271069 0.000001 -0.012615 0.148980 -0.335251
  5 0.000001 4.620899 -0.000001 0.068948 -0.094748 -0.229448
  6 0.784717 2.405719 1.523069 0.148766 0.396012 -0.003276
  7 -0.162202 3.549736 -1.293728 0.242694 0.324371 0.016245
  8 0.000000 5.912184 0.000000 0.459781 -0.239096 -2.038707
  9 -0.000001 2.871584 -0.000000 -1.120900 0.547937 0.315473
  10 -0.000000 5.892740 -0.000001 1.704660 -0.374838 0.498696
  11 0.000002 10.675787 -0.000001 0.571586 -1.471651 1.057804
  12 -0.405959 10.292088 -0.097790 0.949540 0.030834 0.246183
  13 -0.030740 5.877326 0.001373 2.672136 -0.316577 -1.099175
  14 0.000000 2.871584 0.000002 1.233156 -0.363756 0.405880
  15 0.000002 5.892735 -0.000001 2.147857 -0.448841 0.029616
  16 -0.000002 10.675787 -0.000002 -0.013526 1.446798 0.046052
  17 -0.333943 10.013590 0.308053 -0.903289 -0.008366 0.182345
  18 0.000000 24.704323 0.000001 -0.234592 2.997633 1.479938
  19 0.000000 6.351503 0.000002 0.283812 0.150407 0.097044
  20 -1.857083 5.496416 1.049204 -0.203545 -0.635605 2.463087
  21 0.000001 13.772745 0.000000 0.160677 0.817434 -2.925295
  22 -0.000002 7.246477 -0.000000 -1.438377 0.122832 0.321588
  23 0.045480 7.648394 -0.051085 1.354330 -2.850156 -0.068687
  24 0.000001 5.339063 -0.000001 -0.007790 0.000327 0.041939
  25 0.000000 5.500855 0.000001 -0.218349 0.330629 -0.204512
  26 0.000001 6.958817 0.000001 -0.625432 -0.499911 0.244463
  27 1.885075 5.428185 1.059435 -0.764339 0.428306 1.668184
  28 0.000000 13.698042 0.000003 -1.387779 -1.227530 -0.956132
  29 -0.000002 7.246483 -0.000000 1.634669 0.743306 -0.663555
  30 0.034061 7.649772 0.049418 -1.020935 3.035956 -0.171948
  31 -20.365837 10.570852 -13.317378 0.210988 -0.024671 1.197175
  32 -21.804686 11.911614 -23.954933 -0.894195 2.253059 0.835688
  33 -8.751141 -39.986317 -0.933027 0.000000 1.337036 -1.570796
  34 -25.865807 -40.848274 -24.468891 -0.000000 1.799565 -1.570796
  35 -14.442431 -18.937119 -12.118200 2.672341 -0.206926 -1.470846
  36 -21.242996 -13.252021 -22.462044 0.514673 -0.257978 1.452253
  37 5.500429 30.287365 -10.555596 -0.000000 0.021977 1.570796
  38 -6.797802 33.687176 -20.754414 -0.000000 3.088139 1.570796
  time 11
  0 17.870733 1.945261 -21.173109 2.820818 -0.119530 -1.400841
  1 0.000001 24.704313 -0.000001 -2.188875 -1.859626 0.613137
  2 0.000000 5.484107 -0.000000 1.437334 -1.306351 -1.249127
  3 -0.000000 5.912184 0.000000 -0.315123 -0.325084 -0.110841
  4 -0.000000 4.271068 0.000000 -0.357103 0.064649 -0.336191
  5 -0.000001 4.620898 -0.000000 -0.120003 -0.067100 -0.175756
  6 0.787801 2.405807 1.523404 0.149077 0.404261 -0.004944
  7 -0.384481 3.826916 -1.144606 0.214878 0.336707 0.010591
  8 -0.000000 5.912184 0.000000 0.459781 -0.239096 -2.038707
  9 -0.000001 2.871584 -0.000000 -1.256345 0.421013 0.334205
  10 0.000002 5.892740 -0.000000 -0.714972 0.182495 0.380483
  11 -0.000004 10.675790 -0.000001 0.719856 -1.513666 1.729178
  12 -0.405961 10.292091 -0.097791 0.975367 0.027805 0.251812
  13 -0.030740 5.877326 0.001372 2.672136 -0.316577 -1.099175
  14 0.000001 2.871584 0.000000 0.763372 -0.250885 0.567331
  15 0.000000 5.892736 0.000001 1.524267 0.669401 0.484430
  16 -0.000002 10.675781 -0.000002 -0.288369 1.489048 1.930603
  17 -0.333942 10.013587 0.308055 -0.901437 -0.012159 0.191325
  18 0.000001 24.704313 -0.000001 -0.056849 2.092422 1.364026
  19 0.000000 6.351501 0.000000 0.401053 0.134890 0.020574
  20 -1.857083 5.496415 1.049204 -1.107541 0.587504 0.397633
  21 -0.000004 13.772741 -0.000006 0.043605 0.868858 -2.899630
  22 0.000000 7.246478 0.000003 -1.671776 0.262952 0.265120
  23 0.045479 7.648383 -0.051081 1.347170 -2.822113 -0.058582
  24 0.000000 5.339063 -0.000001 -0.007790 0.000327 0.041939
  25 -0.000001 5.500854 0.000000 -0.561195 0.438085 0.026904
  26 0.000001 6.958814 0.000000 -0.209089 -0.708213 0.210536
  27 1.885076 5.428183 1.059435 -1.640023 0.818426 1.918396
  28 0.000006 13.698027 -0.000005 -1.410730 -1.240226 -0.739966
  29 -0.000001 7.246483 -0.000002 1.710642 1.068102 -0.645813
  30 0.034063 7.649768 0.049416 -0.983091 3.056772 -0.114658
  31 -8.433269 15.046724 -21.997074 0.215083 -0.011936 1.170316
  32 -0.266277 9.772789 -23.330811 -0.990534 2.240985 0.729609
  33 -11.995300 -45.549240 0.400322 0.000000 1.337036 -1.570796
  34 -26.152153 -31.794258 -23.965355 -0.000000 1.799565 -1.570796
  35 -11.946454 -17.934376 -17.267973 2.699126 -0.205117 -1.473384
  36 -3.410460 -11.774400 -22.784431 0.515332 -0.248247 1.454016
  37 14.032598 31.432365 -11.347334 -0.000000 0.021977 1.570796
  38 -20.366085 17.373577 -4.585086 -0.000000 3.088139 1.570796
  time 12
  0 18.726645 2.179642 -20.845766 2.717632 -0.162165 -1.311913
  1 0.000003 24.704321 0.000002 0.455787 -1.280606 -1.989808
  2 -0.000000 5.484107 0.000000 -1.489728 -1.674263 1.428120
  3 0.000000 5.912186 -0.000000 -0.359721 -0.252492 -0.105174
  4 0.000000 4.271068 0.000001 -0.489335 -0.118166 -0.190281
  5 -0.000001 4.620899 -0.000000 -0.221278 -0.048863 -0.049380
  6 0.788851 2.405853 1.523528 0.149159 0.407082 -0.005675
  7 -0.750940 4.283892 -0.898754 0.015316 0.417746 -0.039613
  8 0.000000 5.912186 -0.000000 0.459781 -0.239096 -2.038707
  9 -0.000000 2.871584 -0.000000 -1.396250 0.289810 0.372548
  10 0.000002 5.892741 -0.000000 -0.395956 0.274712 -0.350542
  11 0.000004 10.675784 0.000002 0.705809 -1.475687 1.148991
  12 -0.405962 10.292090 -0.097794 1.000944 0.024659 0.257311
  13 -0.030740 5.877327 0.001373 2.672136 -0.316577 -1.099175
  14 0.000001 2.871584 -0.000000 1.293965 0.248225 0.717151
  15 -0.000001 5.892736 0.000001 -0.013011 -0.254722 -0.033809
  16 0.000000 10.675787 0.000003 -0.308067 1.486432 1.811017
  17 -0.333942 10.013586 0.308054 -0.897172 -0.015109 0.199536
  18 0.000003 24.704321 0.000002 0.057433 2.404684 1.278947
  19 -0.000000 6.351502 -0.000001 0.524772 0.094990 -0.019781
  20 -1.857084 5.496417 1.049204 -0.752175 0.527040 1.994304
  21 -0.000007 13.772732 -0.000001 -0.278006 0.940863 -2.578374
  22 -0.000001 7.246481 -0.000005 -1.976969 0.354580 0.200341
  23 0.045482 7.648381 -0.051083 1.334206 -2.797216 -0.045710
  24 0.000000 5.339063 -0.000000 -0.007790 0.000327 0.041939
  25 0.000000 5.500854 -0.000001 -0.424361 0.248143 0.028083
  26 0.000001 6.958815 -0.000000 0.318730 -0.827900 0.014372
  27 1.885076 5.428184 1.059436 2.453135 1.791198 -0.132550
  28 0.000008 13.698026 -0.000005 -1.761912 -1.311025 -0.125608
  29 0.000000 7.246482 0.000001 1.067575 0.720484 -0.477176
  30 0.034058 7.649766 0.049419 -1.091285 3.111631 -0.477116
  31 -17.567936 6.392975 -22.903303 0.223215 0.003255 1.146873
  32 0.929668 5.815524 -23.076458 -0.537706 2.449373 1.068669
  33 -13.054607 -47.856163 0.950880 0.000000 1.337036 -1.570796
  34 1.103914 -27.013428 -21.847710 -0.000000 1.799565 -1.570796
  35 -13.614095 -16.931633 -22.417746 2.725658 -0.203259 -1.475849
  36 6.191671 -11.045314 -22.697933 0.518617 -0.239107 1.454476
  37 -35.986244 31.815590 -12.570547 -0.000000 0.021977 1.570796
  38 -26.404783 21.442484 -3.934059 -0.000000 3.088139 1.570796
  time 13
  0 16.903408 2.414022 -20.418987 2.600146 -0.146051 -1.243864
  1 -0.000001 24.704315 -0.000003 0.134640 -0.939034 -1.602754
  2 0.000000 5.484109 -0.000000 -0.860282 -1.390104 0.689734
  3 0.000000 5.912185 0.000000 -0.300298 0.012101 -0.033342
  4 -0.000000 4.271067 0.000000 0.173314 -0.527622 0.106001
  5 -0.000000 4.620898 -0.000000 -0.076895 -0.127913 0.225110
  6 0.666313 2.703363 1.602979 0.056750 0.324472 -0.015293
  7 0.000000 3.347470 -1.402547 -0.318650 0.082163 -0.023823
  8 0.000000 5.912185 0.000000 0.459781 -0.239096 -2.038707
  9 0.000000 2.871584 0.000000 -1.528669 0.172013 0.424210
  10 0.000001 5.892737 -0.000000 0.293376 0.913106 0.080473
  11 0.000003 10.675788 0.000006 0.601846 -1.448618 0.854185
  12 -0.405962 10.292095 -0.097796 1.026268 0.021405 0.262677
  13 -0.030741 5.877326 0.001372 2.672136 -0.316577 -1.099175
  14 0.000001 2.871585 -0.000000 1.486883 0.128300 0.716638
  15 -0.000001 5.892737 0.000001 0.017153 0.233627 0.404529
  16 -0.000001 10.675786 0.000000 -0.300947 1.467836 1.194349
  17 -0.333941 10.013589 0.308052 -0.889678 -0.016962 0.206730
  18 -0.000001 24.704315 -0.000003 -0.190136 2.127047 1.168611
  19 0.000000 6.351502 -0.000000 0.628180 -0.121088 0.276989
  20 -1.857082 5.496416 1.049205 -0.565023 0.416726 1.389474
  21 -0.000001 13.772730 -0.000004 -0.170223 0.823587 -2.410842
  22 -0.000001 7.246480 -0.000005 -2.352703 0.228767 0.208338
  23 0.045483 7.648375 -0.051090 1.313681 -2.776346 -0.029553
  24 0.000001 5.339062 -0.000001 -0.007790 0.000327 0.041939
  25 0.000000 5.500854 -0.000001 -0.294644 0.048350 -0.002519
  26 0.000002 6.958815 -0.000000 0.572858 -0.842568 -0.102648
  27 1.885076 5.428183 1.059435 -0.275160 1.114005 2.909758
  28 0.000009 13.698029 -0.000004 -2.429188 -1.036053 0.932407
  29 -0.000001 7.246479 -0.000002 0.469713 0.557323 -0.281669
  30 0.034061 7.649766 0.049420 1.702463 0.014100 2.539475
  31 -19.552397 2.082168 -21.444851 0.236892 0.021365 1.127744
  32 0.929668 5.815524 -23.076458 -0.123261 2.462970 1.513700
  33 -13.054607 -47.856163 0.950880 0.000000 1.337036 -1.570796
  34 1.103914 -27.013428 -21.847710 -0.000000 1.799565 -1.570796
  35 -13.614095 -16.931633 -22.417746 2.751933 -0.201356 -1.478240
  36 6.191671 -11.045314 -22.697933 0.525352 -0.230737 1.453246
  37 -32.587090 22.744450 -13.847385 -0.000000 0.021977 1.570796
  38 -26.404783 9.847572 -3.934060 -0.000000 3.088139 1.570796
  time 14
  0 15.080173 2.648403 -19.992207 2.484345 -0.122218 -1.178366
  1 -0.000005 24.704315 -0.000002 0.420025 -0.752082 -1.731923
  2 0.000001 5.484107 -0.000000 -0.808916 -1.209677 0.620558
  3 0.000000 5.912185 0.000000 -0.236284 0.216496 -0.055693
  4 0.000000 4.271068 0.000001 -0.005863 -0.287696 0.449043
  5 -0.000000 4.620898 -0.000001 0.049477 -0.245367 0.423524
  6 0.396347 3.357862 1.777722 -0.142188 0.137767 -0.008741
  7 0.000000 3.347470 -1.402547 -0.138793 0.207265 -0.057864
  8 0.000000 5.912185 0.000000 0.459781 -0.239096 -2.038707
  9 0.000000 2.871584 0.000000 -1.640575 0.080842 0.477529
  10 0.000001 5.892739 0.000001 0.225759 0.794764 0.143016
  11 0.000004 10.675784 0.000002 0.732932 -1.460241 1.015619
  12 -0.405963 10.292085 -0.097795 1.051334 0.018049 0.267910
  13 -0.030741 5.877326 0.001371 2.672136 -0.316577 -1.099175
  14 0.000000 2.871583 -0.000000 1.583907 -0.084252 0.595228
  15 -0.000001 5.892737 -0.000002 0.127179 0.355654 0.289565
  16 -0.000001 10.675782 -0.000006 -0.303349 1.467201 1.176796
  17 -0.333944 10.013592 0.308056 -0.878152 -0.017468 0.212668
  18 -0.000005 24.704315 -0.000002 0.069473 2.141746 2.078325
  19 -0.000000 6.351501 -0.000000 0.611447 -0.313087 0.588442
  20 -1.857081 5.496415 1.049204 -0.490890 -0.219937 1.519933
  21 -0.000002 13.772738 -0.000003 -0.366542 0.837556 -2.121210
  22 -0.000001 7.246492 -0.000002 -2.244149 0.107696 0.165267
  23 0.045481 7.648375 -0.051092 1.283881 -2.760518 -0.009654
  24 0.000001 5.339062 -0.000000 -0.007790 0.000327 0.041939
  25 -0.000000 5.500853 -0.000001 -0.380329 0.032484 -0.014375
  26 0.000001 6.958813 -0.000001 0.234673 -0.643892 0.029000
  27 1.885077 5.428182 1.059436 -1.615088 0.955542 1.129182
  28 0.000006 13.698042 0.000003 0.100863 -1.821786 -2.120637
  29 -0.000004 7.246484 -0.000003 1.182993 0.210141 -0.407666
  30 0.034069 7.649765 0.049418 1.708854 0.007521 2.452659
  31 -18.887550 2.977427 -21.798756 0.257690 0.042832 1.113947
  32 0.484615 7.589513 -23.033382 -0.118366 2.550230 1.514846
  33 -5.957851 -41.289936 0.850899 0.000000 1.337036 -1.570796
  34 2.400206 -25.466703 -21.483122 -0.000000 1.799565 -1.570796
  35 -7.968022 -14.387690 -22.273472 2.777944 -0.199411 -1.480556
  36 6.455662 -10.570985 -21.081207 0.536344 -0.223298 1.449955
  37 -34.392380 19.275976 -14.924957 -0.000000 0.021977 1.570796
  38 -16.287510 31.487947 -7.000653 -0.000000 3.088139 1.570796
  time 15
  0 7.689540 1.124929 -24.304331 1.986934 -0.197869 -0.547139
  1 0.000000 24.704321 0.000001 0.932696 -0.219032 -1.750858
  2 -0.000000 5.484108 0.000000 -0.764529 -1.390013 0.664948
  3 0.000000 5.912186 0.000000 -0.086481 0.070143 0.076648
  4 -0.000000 4.271067 0.000000 -0.007820 -0.283471 0.452719
  5 -0.000000 4.620897 -0.000000 0.037609 -0.222749 0.450007
  6 0.125418 4.012306 1.952345 -0.340417 -0.044875 0.032276
  7 -0.000002 3.347469 -1.402547 -0.239496 0.117926 -0.039320
  8 0.000000 5.912186 0.000000 0.459781 -0.239096 -2.038707
  9 0.000000 2.871583 -0.000001 -1.717976 0.023298 0.518707
  10 -0.000001 5.892744 0.000001 0.406188 0.235730 -0.163996
  11 0.000006 10.675789 -0.000007 0.598266 -1.430787 0.756678
  12 -0.405960 10.292082 -0.097798 1.076136 0.014597 0.273007
  13 -0.030740 5.877326 0.001371 2.672136 -0.316577 -1.099175
  14 0.000000 2.871584 0.000000 1.655059 -0.355938 0.415802
  15 0.000001 5.892737 0.000000 0.024952 0.415859 -0.550432
  16 0.000002 10.675782 -0.000000 -0.319646 1.471103 1.296903
  17 -0.333941 10.013583 0.308053 -0.861807 -0.016374 0.217133
  18 0.000000 24.704321 0.000001 -1.733204 0.970182 -0.000636
  19 -0.000000 6.351502 -0.000000 0.433747 -0.120861 0.257055
  20 -1.857082 5.496416 1.049203 -0.745968 -0.136305 1.730883
  21 0.000001 13.772739 -0.000005 -0.665576 1.092640 -1.896216
  22 0.000004 7.246488 0.000003 -1.651720 0.157283 0.073553
  23 0.045486 7.648377 -0.051084 1.243210 -2.750918 0.014279
  24 -0.000000 5.339062 -0.000000 -0.007790 0.000327 0.041939
  25 -0.000001 5.500853 -0.000001 -0.537430 0.029136 -0.020866
  26 0.000001 6.958814 0.000000 -0.268158 -0.209847 0.044496
  27 1.885075 5.428182 1.059435 -1.423268 0.331605 1.450970
  28 0.000004 13.698038 0.000001 0.696494 -1.593160 -1.419585
  29 0.000004 7.246487 -0.000000 0.842945 -0.048924 -0.118620
  30 0.034064 7.649771 0.049415 1.715587 0.001682 2.368277
  31 -17.652836 4.640053 -22.456005 0.287288 0.067998 1.106662
  32 -1.027493 12.139034 -24.377146 -0.113963 2.635012 1.515434
  33 9.654985 -26.705956 0.598007 0.000000 1.337036 -1.570796
  34 5.950714 -21.339462 -20.491013 -0.000000 1.799565 -1.570796
  35 -7.181081 -11.843748 -22.129198 2.803687 -0.197427 -1.482798
  36 7.247634 -8.335555 -19.405903 0.552385 -0.216909 1.444235
  37 -38.364014 18.995958 -15.608822 -0.000000 0.021977 1.570796
  38 -18.220701 30.874765 -12.809667 -0.000000 3.088139 1.570796
end
