version 1
nodes
0 "v0" -1
1 "v1" -1
2 "v2" -1
3 "v3" -1
4 "v4" -1
5 "v5" -1
6 "v6" -1
7 "v7" -1
8 "v8" -1
9 "v9" -1
10 "v10" -1
11 "v11" -1
12 "v12" -1
13 "v13" -1
14 "v14" -1
15 "v15" -1
16 "v16" -1
17 "v17" -1
18 "v18" -1
19 "v19" -1
20 "v20" -1
21 "v21" -1
22 "v22" -1
23 "v23" -1
24 "v24" -1
25 "v25" -1
26 "v26" -1
27 "v27" -1
28 "v28" -1
29 "v29" -1
30 "v30" -1
31 "v31" -1
32 "v32" -1
33 "v33" -1
34 "v34" -1
35 "v35" -1
36 "v36" -1
37 "v37" -1
38 "v38" -1
39 "v39" -1
40 "v40" -1
41 "v41" -1
42 "v42" -1
43 "v43" -1
44 "v44" -1
45 "v45" -1
46 "v46" -1
47 "v47" -1
48 "v48" -1
49 "v49" -1
50 "v50" -1
51 "v51" -1
52 "v52" -1
53 "v53" -1
54 "v54" -1
55 "v55" -1
56 "v56" -1
57 "v57" -1
58 "v58" -1
59 "v59" -1
60 "v60" -1
61 "v61" -1
62 "v62" -1
63 "v63" -1
64 "v64" -1
65 "v65" -1
66 "v66" -1
67 "v67" -1
68 "v68" -1
69 "v69" -1
70 "v70" -1
71 "v71" -1
72 "v72" -1
73 "v73" -1
74 "v74" -1
75 "v75" -1
76 "v76" -1
77 "v77" -1
78 "v78" -1
79 "v79" -1
80 "v80" -1
81 "v81" -1
82 "v82" -1
83 "v83" -1
84 "v84" -1
85 "v85" -1
86 "v86" -1
87 "v87" -1
88 "v88" -1
89 "v89" -1
90 "v90" -1
91 "v91" -1
92 "v92" -1
93 "v93" -1
94 "v94" -1
95 "v95" -1
96 "v96" -1
97 "v97" -1
98 "v98" -1
99 "v99" -1
100 "v100" -1
101 "v101" -1
102 "v102" -1
103 "v103" -1
104 "v104" -1
105 "v105" -1
106 "v106" -1
107 "v107" -1
108 "v108" -1
109 "v109" -1
110 "v110" -1
111 "v111" -1
112 "v112" -1
113 "v113" -1
114 "v114" -1
115 "v115" -1
116 "v116" -1
117 "v117" -1
118 "v118" -1
119 "v119" -1
120 "v120" -1
121 "v121" -1
122 "v122" -1
123 "v123" -1
124 "v124" -1
125 "v125" -1
126 "v126" -1
127 "v127" -1
128 "v128" -1
129 "v129" -1
130 "v130" -1
131 "v131" -1
132 "v132" -1
133 "v133" -1
134 "v134" -1
135 "v135" -1
136 "v136" -1
137 "v137" -1
138 "v138" -1
139 "v139" -1
140 "v140" -1
141 "v141" -1
142 "v142" -1
143 "v143" -1
144 "v144" -1
145 "v145" -1
146 "v146" -1
147 "v147" -1
148 "v148" -1
149 "v149" -1
150 "v150" -1
151 "v151" -1
152 "v152" -1
153 "v153" -1
154 "v154" -1
155 "v155" -1
156 "v156" -1
157 "v157" -1
158 "v158" -1
159 "v159" -1
160 "v160" -1
161 "v161" -1
162 "v162" -1
163 "v163" -1
164 "v164" -1
165 "v165" -1
166 "v166" -1
167 "v167" -1
168 "v168" -1
169 "v169" -1
170 "v170" -1
171 "v171" -1
172 "v172" -1
173 "v173" -1
174 "v174" -1
175 "v175" -1
176 "v176" -1
177 "v177" -1
178 "v178" -1
179 "v179" -1
180 "v180" -1
181 "v181" -1
182 "v182" -1
183 "v183" -1
184 "v184" -1
185 "v185" -1
186 "v186" -1
187 "v187" -1
188 "v188" -1
189 "v189" -1
190 "v190" -1
191 "v191" -1
192 "v192" -1
193 "v193" -1
194 "v194" -1
195 "v195" -1
196 "v196" -1
197 "v197" -1
198 "v198" -1
199 "v199" -1
200 "v200" -1
201 "v201" -1
202 "v202" -1
203 "v203" -1
204 "v204" -1
205 "v205" -1
206 "v206" -1
207 "v207" -1
208 "v208" -1
209 "v209" -1
210 "v210" -1
211 "v211" -1
212 "v212" -1
213 "v213" -1
214 "v214" -1
215 "v215" -1
216 "v216" -1
217 "v217" -1
218 "v218" -1
219 "v219" -1
220 "v220" -1
221 "v221" -1
222 "v222" -1
223 "v223" -1
224 "v224" -1
225 "v225" -1
226 "v226" -1
227 "v227" -1
228 "v228" -1
229 "v229" -1
230 "v230" -1
231 "v231" -1
232 "v232" -1
233 "v233" -1
234 "v234" -1
235 "v235" -1
236 "v236" -1
237 "v237" -1
238 "v238" -1
239 "v239" -1
240 "v240" -1
241 "v241" -1
242 "v242" -1
243 "v243" -1
244 "v244" -1
245 "v245" -1
246 "v246" -1
247 "v247" -1
248 "v248" -1
249 "v249" -1
250 "v250" -1
251 "v251" -1
252 "v252" -1
253 "v253" -1
254 "v254" -1
255 "v255" -1
256 "v256" -1
257 "v257" -1
258 "v258" -1
259 "v259" -1
260 "v260" -1
261 "v261" -1
262 "v262" -1
263 "v263" -1
264 "v264" -1
265 "v265" -1
266 "v266" -1
267 "v267" -1
268 "v268" -1
269 "v269" -1
270 "v270" -1
271 "v271" -1
272 "v272" -1
273 "v273" -1
274 "v274" -1
275 "v275" -1
276 "v276" -1
277 "v277" -1
278 "v278" -1
279 "v279" -1
280 "v280" -1
281 "v281" -1
282 "v282" -1
283 "v283" -1
284 "v284" -1
285 "v285" -1
286 "v286" -1
287 "v287" -1
288 "v288" -1
289 "v289" -1
290 "v290" -1
291 "v291" -1
292 "v292" -1
293 "v293" -1
294 "v294" -1
295 "v295" -1
296 "v296" -1
297 "v297" -1
298 "v298" -1
299 "v299" -1
300 "v300" -1
301 "v301" -1
302 "v302" -1
303 "v303" -1
304 "v304" -1
305 "v305" -1
306 "v306" -1
307 "v307" -1
308 "v308" -1
309 "v309" -1
310 "v310" -1
311 "v311" -1
312 "v312" -1
313 "v313" -1
314 "v314" -1
315 "v315" -1
316 "v316" -1
317 "v317" -1
318 "v318" -1
319 "v319" -1
320 "v320" -1
321 "v321" -1
322 "v322" -1
323 "v323" -1
324 "v324" -1
325 "v325" -1
326 "v326" -1
327 "v327" -1
328 "v328" -1
329 "v329" -1
330 "v330" -1
331 "v331" -1
332 "v332" -1
333 "v333" -1
334 "v334" -1
335 "v335" -1
336 "v336" -1
337 "v337" -1
338 "v338" -1
339 "v339" -1
340 "v340" -1
341 "v341" -1
342 "v342" -1
343 "v343" -1
344 "v344" -1
345 "v345" -1
346 "v346" -1
347 "v347" -1
348 "v348" -1
349 "v349" -1
350 "v350" -1
351 "v351" -1
352 "v352" -1
353 "v353" -1
354 "v354" -1
355 "v355" -1
356 "v356" -1
357 "v357" -1
358 "v358" -1
359 "v359" -1
360 "v360" -1
361 "v361" -1
362 "v362" -1
363 "v363" -1
364 "v364" -1
365 "v365" -1
366 "v366" -1
367 "v367" -1
368 "v368" -1
369 "v369" -1
370 "v370" -1
371 "v371" -1
372 "v372" -1
373 "v373" -1
374 "v374" -1
375 "v375" -1
376 "v376" -1
377 "v377" -1
378 "v378" -1
379 "v379" -1
380 "v380" -1
381 "v381" -1
382 "v382" -1
383 "v383" -1
384 "v384" -1
385 "v385" -1
386 "v386" -1
387 "v387" -1
388 "v388" -1
389 "v389" -1
390 "v390" -1
391 "v391" -1
392 "v392" -1
393 "v393" -1
394 "v394" -1
395 "v395" -1
396 "v396" -1
397 "v397" -1
398 "v398" -1
399 "v399" -1
400 "v400" -1
401 "v401" -1
402 "v402" -1
403 "v403" -1
404 "v404" -1
405 "v405" -1
406 "v406" -1
407 "v407" -1
408 "v408" -1
409 "v409" -1
410 "v410" -1
411 "v411" -1
412 "v412" -1
413 "v413" -1
414 "v414" -1
415 "v415" -1
416 "v416" -1
417 "v417" -1
418 "v418" -1
419 "v419" -1
420 "v420" -1
421 "v421" -1
422 "v422" -1
423 "v423" -1
424 "v424" -1
425 "v425" -1
426 "v426" -1
427 "v427" -1
428 "v428" -1
429 "v429" -1
430 "v430" -1
431 "v431" -1
432 "v432" -1
433 "v433" -1
434 "v434" -1
435 "v435" -1
436 "v436" -1
437 "v437" -1
438 "v438" -1
439 "v439" -1
440 "v440" -1
441 "v441" -1
442 "v442" -1
443 "v443" -1
444 "v444" -1
445 "v445" -1
446 "v446" -1
447 "v447" -1
448 "v448" -1
449 "v449" -1
450 "v450" -1
451 "v451" -1
452 "v452" -1
453 "v453" -1
454 "v454" -1
455 "v455" -1
456 "v456" -1
457 "v457" -1
458 "v458" -1
459 "v459" -1
460 "v460" -1
461 "v461" -1
462 "v462" -1
463 "v463" -1
464 "v464" -1
465 "v465" -1
466 "v466" -1
467 "v467" -1
468 "v468" -1
469 "v469" -1
470 "v470" -1
471 "v471" -1
472 "v472" -1
473 "v473" -1
474 "v474" -1
475 "v475" -1
476 "v476" -1
477 "v477" -1
478 "v478" -1
479 "v479" -1
480 "v480" -1
481 "v481" -1
482 "v482" -1
483 "v483" -1
484 "v484" -1
485 "v485" -1
486 "v486" -1
487 "v487" -1
end
skeleton
  time 0
  0 -0.557070 7.800545 -9.910709 0.000000 -0.000000 -1.570796
  1 -0.557070 16.812691 -14.960512 0.000000 -0.000000 -1.570796
  2 -0.557070 18.549074 -18.143879 0.000000 -0.000000 -1.570796
  3 -0.557069 19.996058 -14.092319 0.000000 -0.000000 -1.570796
  4 -0.557070 14.786915 -13.513527 0.000000 -0.000000 -1.570796
  5 -0.557070 10.156563 -13.513527 0.000000 -0.000000 -1.570796
  6 -0.557070 8.709583 -13.513527 0.000000 -0.000000 -1.570796
  7 -0.557070 6.932354 -12.515282 0.000000 -0.000000 -1.570796
  8 -0.557070 7.366449 -11.213001 0.000000 -0.000000 -1.570796
  9 -0.557070 19.272568 -16.118095 0.000000 -0.000000 -1.570796
  10 -0.880304 17.536184 -14.092319 0.000000 -0.000000 -1.570796
  11 -1.065518 15.018435 -12.847910 0.000000 -0.000000 -1.570796
  12 -0.880304 9.809288 -11.979725 0.000000 -0.000000 -1.570796
  13 -2.886562 6.022063 -14.922451 0.000000 -0.000000 -1.570796
  14 -2.886561 -7.868985 -14.922451 0.000000 -0.000000 -1.570796
  15 -3.903710 6.022063 -17.378059 0.000000 -0.000000 -1.570796
  16 -3.903709 -7.868985 -17.378059 0.000000 -0.000000 -1.570796
  17 -6.359323 6.022064 -18.395212 0.000000 -0.000000 -1.570796
  18 -6.359324 -7.868985 -18.395212 0.000000 -0.000000 -1.570796
  19 -8.814938 6.022064 -17.378059 0.000000 -0.000000 -1.570796
  20 -8.814936 -7.868985 -17.378059 0.000000 -0.000000 -1.570796
  21 -9.832085 6.022064 -14.922451 0.000000 -0.000000 -1.570796
  22 -9.832084 -7.868985 -14.922451 0.000000 -0.000000 -1.570796
  23 -8.814938 6.022064 -12.466837 0.000000 -0.000000 -1.570796
  24 -8.814936 -7.868985 -12.466837 0.000000 -0.000000 -1.570796
  25 -6.359324 6.022064 -11.449684 0.000000 -0.000000 -1.570796
  26 -6.359324 -7.868985 -11.449684 0.000000 -0.000000 -1.570796
  27 -3.903711 6.022063 -12.466837 0.000000 -0.000000 -1.570796
  28 -3.903711 -7.868985 -12.466837 0.000000 -0.000000 -1.570796
  29 2.047501 6.019716 -11.716652 0.000000 -0.000000 -1.570796
  30 2.047502 -2.083396 -11.716652 0.000000 -0.000000 -1.570796
  31 1.454165 6.019716 -13.149094 0.000000 -0.000000 -1.570796
  32 1.454165 -2.083396 -13.149094 0.000000 -0.000000 -1.570796
  33 0.021724 6.019716 -13.742430 0.000000 -0.000000 -1.570796
  34 0.021724 -2.083396 -13.742430 0.000000 -0.000000 -1.570796
  35 -1.410718 6.019716 -13.149094 0.000000 -0.000000 -1.570796
  36 -1.410718 -2.083396 -13.149094 0.000000 -0.000000 -1.570796
  37 -2.004055 6.019716 -11.716652 0.000000 -0.000000 -1.570796
  38 -2.004054 -2.083396 -11.716652 0.000000 -0.000000 -1.570796
  39 -1.410718 6.838732 -10.284210 0.000000 -0.000000 -1.570796
  40 -1.410718 -2.083396 -10.284210 0.000000 -0.000000 -1.570796
  41 0.021723 6.838732 -9.690880 0.000000 -0.000000 -1.570796
  42 0.021723 -2.083396 -9.690880 0.000000 -0.000000 -1.570796
  43 1.454164 6.838732 -10.284210 0.000000 -0.000000 -1.570796
  44 1.454165 -2.083396 -10.284210 0.000000 -0.000000 -1.570796
  45 1.642345 -1.736119 -11.716652 0.000000 -0.000000 -1.570796
  46 1.642345 -9.086802 -11.716652 0.000000 -0.000000 -1.570796
  47 1.167676 -1.736119 -12.862604 0.000000 -0.000000 -1.570796
  48 1.167676 -9.086802 -12.862604 0.000000 -0.000000 -1.570796
  49 0.021723 -1.736119 -13.337273 0.000000 -0.000000 -1.570796
  50 0.021723 -9.086802 -13.337273 0.000000 -0.000000 -1.570796
  51 -1.124230 -1.736119 -12.862604 0.000000 -0.000000 -1.570796
  52 -1.124230 -9.086802 -12.862604 0.000000 -0.000000 -1.570796
  53 -1.598899 -1.736119 -11.716652 0.000000 -0.000000 -1.570796
  54 -1.598899 -9.086802 -11.716652 0.000000 -0.000000 -1.570796
  55 -1.124230 -1.736119 -10.570705 0.000000 -0.000000 -1.570796
  56 -1.124230 -9.086802 -10.570705 0.000000 -0.000000 -1.570796
  57 0.021723 -1.736119 -10.096031 0.000000 -0.000000 -1.570796
  58 0.021723 -9.086802 -10.096031 0.000000 -0.000000 -1.570796
  59 1.167675 -1.736119 -10.570705 0.000000 -0.000000 -1.570796
  60 1.167675 -9.086802 -10.570705 0.000000 -0.000000 -1.570796
  61 2.938845 -12.559563 -11.716652 0.000000 -0.000000 -1.570796
  62 2.084441 -12.559563 -13.779366 0.000000 -0.000000 -1.570796
  63 0.021725 -12.559563 -14.633774 0.000000 -0.000000 -1.570796
  64 -2.040991 -12.559563 -13.779366 0.000000 -0.000000 -1.570796
  65 -2.895396 -12.559563 -11.716652 0.000000 -0.000000 -1.570796
  66 -2.040991 -12.559563 -9.653942 0.000000 -0.000000 -1.570796
  67 0.021724 -12.559563 -8.799530 0.000000 -0.000000 -1.570796
  68 2.084440 -12.559563 -9.653942 0.000000 -0.000000 -1.570796
  69 1.642344 -12.443803 -11.716652 0.000000 -0.000000 -1.570796
  70 1.642345 -20.373280 -11.716652 0.000000 -0.000000 -1.570796
  71 1.167675 -12.443803 -12.862604 0.000000 -0.000000 -1.570796
  72 1.167676 -20.373280 -12.862604 0.000000 -0.000000 -1.570796
  73 0.021723 -12.443803 -13.337273 0.000000 -0.000000 -1.570796
  74 0.021723 -20.373280 -13.337273 0.000000 -0.000000 -1.570796
  75 -1.124230 -12.443803 -12.862604 0.000000 -0.000000 -1.570796
  76 -1.124230 -20.373280 -12.862604 0.000000 -0.000000 -1.570796
  77 -1.598900 -12.443803 -11.716652 0.000000 -0.000000 -1.570796
  78 -1.598900 -20.373280 -11.716652 0.000000 -0.000000 -1.570796
  79 -1.124230 -12.443803 -10.570705 0.000000 -0.000000 -1.570796
  80 -1.124230 -20.373280 -10.570705 0.000000 -0.000000 -1.570796
  81 0.021723 -12.443803 -10.096031 0.000000 -0.000000 -1.570796
  82 0.021722 -20.373280 -10.096031 0.000000 -0.000000 -1.570796
  83 1.167675 -12.443803 -10.570705 0.000000 -0.000000 -1.570796
  84 1.167675 -20.373280 -10.570705 0.000000 -0.000000 -1.570796
  85 2.496068 6.261343 -10.052395 0.000000 -0.000000 -1.570796
  86 -2.568376 5.786673 -11.198349 0.000000 -0.000000 -1.570796
  87 2.496068 7.407299 -9.577721 0.000000 -0.000000 -1.570796
  88 -2.568376 6.261343 -12.344299 0.000000 -0.000000 -1.570796
  89 2.496068 8.553247 -10.052395 0.000000 -0.000000 -1.570796
  90 -2.568376 7.407299 -12.818970 0.000000 -0.000000 -1.570796
  91 2.496068 9.027916 -11.198349 0.000000 -0.000000 -1.570796
  92 -2.568376 8.553247 -12.344299 0.000000 -0.000000 -1.570796
  93 2.496068 8.553247 -12.344299 0.000000 -0.000000 -1.570796
  94 -2.568376 9.027916 -11.198349 0.000000 -0.000000 -1.570796
  95 2.496068 7.407299 -12.818970 0.000000 -0.000000 -1.570796
  96 -2.568376 8.553247 -10.052395 0.000000 -0.000000 -1.570796
  97 2.496068 6.261343 -12.344299 0.000000 -0.000000 -1.570796
  98 -2.568376 7.407299 -9.577721 0.000000 -0.000000 -1.570796
  99 2.496068 5.786673 -11.198349 0.000000 -0.000000 -1.570796
  100 -2.568376 6.261343 -10.052395 0.000000 -0.000000 -1.570796
  101 2.290594 -20.685827 -11.716652 0.000000 -0.000000 -1.570796
  102 2.290593 -17.050999 -11.716652 0.000000 -0.000000 -1.570796
  103 -0.538730 12.283560 -12.413815 0.000000 -0.000000 -1.570796
  104 -0.538730 12.445457 -13.643574 0.000000 -0.000000 -1.570796
  105 -0.538730 11.690371 -14.627628 0.000000 -0.000000 -1.570796
  106 -0.538730 10.460611 -14.789530 0.000000 -0.000000 -1.570796
  107 -0.538730 9.476559 -14.034439 0.000000 -0.000000 -1.570796
  108 -0.538730 9.314651 -12.804680 0.000000 -0.000000 -1.570796
  109 1.626057 -17.050999 -13.320986 0.000000 -0.000000 -1.570796
  110 1.626056 -20.685827 -13.320986 0.000000 -0.000000 -1.570796
  111 0.021723 -17.050999 -13.985521 0.000000 -0.000000 -1.570796
  112 0.021723 -20.685827 -13.985521 0.000000 -0.000000 -1.570796
  113 -1.582612 -17.050999 -13.320986 0.000000 -0.000000 -1.570796
  114 -1.582612 -20.685827 -13.320986 0.000000 -0.000000 -1.570796
  115 -2.247149 -17.050999 -11.716652 0.000000 -0.000000 -1.570796
  116 -2.247149 -20.685827 -11.716652 0.000000 -0.000000 -1.570796
  117 -1.582612 -17.050999 -10.112316 0.000000 -0.000000 -1.570796
  118 -1.582612 -20.685827 -10.112316 0.000000 -0.000000 -1.570796
  119 0.021722 -17.050999 -9.447784 0.000000 -0.000000 -1.570796
  120 0.021722 -20.685827 -9.447784 0.000000 -0.000000 -1.570796
  121 1.626055 -17.050999 -10.112316 0.000000 -0.000000 -1.570796
  122 1.626056 -20.685827 -10.112316 0.000000 -0.000000 -1.570796
  123 0.021722 -29.227747 -11.716656 0.000000 -0.000000 -1.570796
  124 0.882329 -21.804682 -19.656996 0.000000 -0.000000 -1.570796
  125 -0.875757 -22.189163 -18.728775 0.000000 -0.000000 -1.570796
  126 0.882329 -20.876463 -20.041479 0.000000 -0.000000 -1.570796
  127 -0.875757 -21.804682 -17.800558 0.000000 -0.000000 -1.570796
  128 0.882329 -19.948238 -19.656996 0.000000 -0.000000 -1.570796
  129 -0.875757 -20.876463 -17.416073 0.000000 -0.000000 -1.570796
  130 0.882329 -19.563755 -18.728775 0.000000 -0.000000 -1.570796
  131 -0.875757 -19.948238 -17.800558 0.000000 -0.000000 -1.570796
  132 0.882329 -19.948238 -17.800558 0.000000 -0.000000 -1.570796
  133 -0.875757 -19.563755 -18.728775 0.000000 -0.000000 -1.570796
  134 0.882329 -20.876463 -17.416073 0.000000 -0.000000 -1.570796
  135 -0.875757 -19.948238 -19.656996 0.000000 -0.000000 -1.570796
  136 0.882329 -21.804682 -17.800558 0.000000 -0.000000 -1.570796
  137 -0.875757 -20.876463 -20.041479 0.000000 -0.000000 -1.570796
  138 0.882329 -22.189163 -18.728775 0.000000 -0.000000 -1.570796
  139 -0.875757 -21.804682 -19.656996 0.000000 -0.000000 -1.570796
  140 0.734086 7.800545 -9.910709 0.000000 -0.000000 -1.570796
  141 0.734086 16.812691 -14.960512 0.000000 -0.000000 -1.570796
  142 0.734086 18.549074 -18.143879 0.000000 -0.000000 -1.570796
  143 0.734086 19.996058 -14.092319 0.000000 -0.000000 -1.570796
  144 0.734086 14.786915 -13.513527 0.000000 -0.000000 -1.570796
  145 0.734086 10.156563 -13.513527 0.000000 -0.000000 -1.570796
  146 0.734086 8.709583 -13.513527 0.000000 -0.000000 -1.570796
  147 0.734086 6.932354 -12.515282 0.000000 -0.000000 -1.570796
  148 0.734086 7.366449 -11.213001 0.000000 -0.000000 -1.570796
  149 0.734086 19.272568 -16.118095 0.000000 -0.000000 -1.570796
  150 1.057320 17.536184 -14.092319 0.000000 -0.000000 -1.570796
  151 1.242534 15.018435 -12.847910 0.000000 -0.000000 -1.570796
  152 1.057320 9.809288 -11.979725 0.000000 -0.000000 -1.570796
  153 0.734086 15.076317 -11.921841 0.000000 -0.000000 -1.570796
  154 -0.557070 15.076317 -11.921841 0.000000 -0.000000 -1.570796
  155 0.682707 -18.639206 -13.306738 0.000000 -0.000000 -1.570796
  156 0.682707 -20.494646 -17.822033 0.000000 -0.000000 -1.570796
  157 0.354530 -19.173344 -13.112328 0.000000 -0.000000 -1.570796
  158 0.354530 -21.028786 -17.627625 0.000000 -0.000000 -1.570796
  159 -0.301821 -19.173344 -13.112328 0.000000 -0.000000 -1.570796
  160 -0.301821 -21.028786 -17.627625 0.000000 -0.000000 -1.570796
  161 -0.629998 -18.639206 -13.306738 0.000000 -0.000000 -1.570796
  162 -0.629998 -20.494646 -17.822033 0.000000 -0.000000 -1.570796
  163 -0.301821 -18.105068 -13.501150 0.000000 -0.000000 -1.570796
  164 -0.301821 -19.960506 -18.016445 0.000000 -0.000000 -1.570796
  165 0.354530 -18.105068 -13.501150 0.000000 -0.000000 -1.570796
  166 0.354530 -19.960506 -18.016445 0.000000 -0.000000 -1.570796
  167 0.022244 -21.279394 -19.685314 0.000000 -0.000000 -1.570796
  168 0.022244 -22.224766 -20.566147 0.000000 -0.000000 -1.570796
  169 0.022244 -24.756409 -21.034973 0.000000 -0.000000 -1.570796
  170 0.022244 -26.940313 -20.799126 0.000000 -0.000000 -1.570796
  171 0.022244 -29.190662 -19.158245 0.000000 -0.000000 -1.570796
  172 0.017901 -29.951618 -15.669502 0.000000 -0.000000 -1.570796
  173 0.022244 -27.927425 -17.776588 0.000000 -0.000000 -1.570796
  174 0.022244 -25.218355 -19.038883 0.000000 -0.000000 -1.570796
  175 0.022244 -23.068649 -18.925268 0.000000 -0.000000 -1.570796
  176 0.022244 -21.279396 -18.513250 0.000000 -0.000000 -1.570796
  177 -0.263392 -21.279394 -19.099281 0.000000 -0.000000 -1.570796
  178 -0.544686 -22.967354 -19.780655 0.000000 -0.000000 -1.570796
  179 -0.544686 -25.763517 -19.873844 0.000000 -0.000000 -1.570796
  180 -0.263392 -28.556459 -18.362532 0.000000 -0.000000 -1.570796
  181 -0.301821 -18.339479 -12.563507 0.000000 -0.000000 -1.570796
  182 0.026586 -29.951618 -15.669502 0.000000 -0.000000 -1.570796
  183 0.354530 -18.339479 -12.563507 0.000000 -0.000000 -1.570796
  184 0.354530 -18.105068 -13.032330 0.000000 -0.000000 -1.570796
  185 -0.301821 -18.105068 -13.032330 0.000000 -0.000000 -1.570796
  186 0.307880 -21.279394 -19.099281 0.000000 -0.000000 -1.570796
  187 0.589174 -22.967354 -19.780655 0.000000 -0.000000 -1.570796
  188 0.589174 -25.763517 -19.873844 0.000000 -0.000000 -1.570796
  189 0.307880 -28.556459 -18.362532 0.000000 -0.000000 -1.570796
  190 -7.068473 -21.746439 -7.316990 0.000000 -0.000000 -1.570796
  191 -5.299722 -22.130919 -6.409252 0.000000 -0.000000 -1.570796
  192 -7.383421 -20.818218 -7.096458 0.000000 -0.000000 -1.570796
  193 -4.539367 -21.746439 -6.941662 0.000000 -0.000000 -1.570796
  194 -7.068473 -19.889992 -7.316990 0.000000 -0.000000 -1.570796
  195 -4.224416 -20.818218 -7.162189 0.000000 -0.000000 -1.570796
  196 -6.308118 -19.505512 -7.849392 0.000000 -0.000000 -1.570796
  197 -4.539367 -19.889992 -6.941662 0.000000 -0.000000 -1.570796
  198 -5.547763 -19.889992 -8.381802 0.000000 -0.000000 -1.570796
  199 -5.299722 -19.505512 -6.409252 0.000000 -0.000000 -1.570796
  200 -5.232813 -20.818218 -8.602333 0.000000 -0.000000 -1.570796
  201 -6.060077 -19.889992 -5.876842 0.000000 -0.000000 -1.570796
  202 -5.547763 -21.746439 -8.381802 0.000000 -0.000000 -1.570796
  203 -6.375024 -20.818218 -5.656311 0.000000 -0.000000 -1.570796
  204 -6.308118 -22.130919 -7.849392 0.000000 -0.000000 -1.570796
  205 -6.060077 -21.746439 -5.876842 0.000000 -0.000000 -1.570796
  206 -1.752145 -18.580963 -10.795826 0.000000 -0.000000 -1.570796
  207 -5.450864 -20.436401 -8.205956 0.000000 -0.000000 -1.570796
  208 -1.404660 -19.115101 -10.638508 0.000000 -0.000000 -1.570796
  209 -5.103377 -20.970541 -8.048637 0.000000 -0.000000 -1.570796
  210 -1.028192 -19.115101 -10.100853 0.000000 -0.000000 -1.570796
  211 -4.726909 -20.970541 -7.510986 0.000000 -0.000000 -1.570796
  212 -0.999209 -18.580963 -9.720520 0.000000 -0.000000 -1.570796
  213 -4.697926 -20.436401 -7.130653 0.000000 -0.000000 -1.570796
  214 -1.346698 -18.046825 -9.877831 0.000000 -0.000000 -1.570796
  215 -1.723166 -18.046825 -10.415485 0.000000 -0.000000 -1.570796
  216 -5.421879 -19.902264 -7.825623 0.000000 -0.000000 -1.570796
  217 -6.598341 -21.221149 -6.596214 0.000000 -0.000000 -1.570796
  218 -7.319881 -22.166523 -6.090992 0.000000 -0.000000 -1.570796
  219 -7.703918 -24.698166 -5.822075 0.000000 -0.000000 -1.570796
  220 -7.510723 -26.882069 -5.957355 0.000000 -0.000000 -1.570796
  221 -6.166594 -29.132420 -6.898514 0.000000 -0.000000 -1.570796
  222 -3.306294 -29.893375 -8.896023 0.000000 -0.000000 -1.570796
  223 -5.034809 -27.869183 -7.691006 0.000000 -0.000000 -1.570796
  224 -6.068818 -25.160110 -6.966984 0.000000 -0.000000 -1.570796
  225 -5.975749 -23.010406 -7.032150 0.000000 -0.000000 -1.570796
  226 -5.638247 -21.221149 -7.268475 0.000000 -0.000000 -1.570796
  227 -5.954459 -21.221149 -6.698364 0.000000 -0.000000 -1.570796
  228 -6.351263 -22.909111 -6.077126 0.000000 -0.000000 -1.570796
  229 -6.427598 -25.705275 -6.023666 0.000000 -0.000000 -1.570796
  230 -5.350952 -28.498215 -7.120941 0.000000 -0.000000 -1.570796
  231 -0.578624 -18.281237 -10.415646 0.000000 -0.000000 -1.570796
  232 -3.311276 -29.893375 -8.903133 0.000000 -0.000000 -1.570796
  233 -0.955092 -18.281237 -10.953300 0.000000 -0.000000 -1.570796
  234 -1.339127 -18.046825 -10.684387 0.000000 -0.000000 -1.570796
  235 -0.962659 -18.046825 -10.146736 0.000000 -0.000000 -1.570796
  236 -6.282126 -21.221149 -7.166325 0.000000 -0.000000 -1.570796
  237 -7.001616 -22.909111 -7.005917 0.000000 -0.000000 -1.570796
  238 -7.077953 -25.705275 -6.952469 0.000000 -0.000000 -1.570796
  239 -5.678619 -28.498215 -7.588898 0.000000 -0.000000 -1.570796
  240 7.103642 -21.746439 -7.316990 0.000000 -0.000000 -1.570796
  241 5.334890 -22.130919 -6.409252 0.000000 -0.000000 -1.570796
  242 7.418592 -20.818218 -7.096458 0.000000 -0.000000 -1.570796
  243 4.574534 -21.746439 -6.941662 0.000000 -0.000000 -1.570796
  244 7.103642 -19.889992 -7.316990 0.000000 -0.000000 -1.570796
  245 4.259585 -20.818218 -7.162189 0.000000 -0.000000 -1.570796
  246 6.343288 -19.505512 -7.849392 0.000000 -0.000000 -1.570796
  247 4.574534 -19.889992 -6.941662 0.000000 -0.000000 -1.570796
  248 5.582932 -19.889992 -8.381802 0.000000 -0.000000 -1.570796
  249 5.334890 -19.505512 -6.409252 0.000000 -0.000000 -1.570796
  250 5.267982 -20.818218 -8.602333 0.000000 -0.000000 -1.570796
  251 6.095245 -19.889992 -5.876842 0.000000 -0.000000 -1.570796
  252 5.582932 -21.746439 -8.381802 0.000000 -0.000000 -1.570796
  253 6.410194 -20.818218 -5.656311 0.000000 -0.000000 -1.570796
  254 6.343288 -22.130919 -7.849392 0.000000 -0.000000 -1.570796
  255 6.095245 -21.746439 -5.876842 0.000000 -0.000000 -1.570796
  256 1.787314 -18.580963 -10.795826 0.000000 -0.000000 -1.570796
  257 5.486031 -20.436401 -8.205956 0.000000 -0.000000 -1.570796
  258 1.439828 -19.115101 -10.638508 0.000000 -0.000000 -1.570796
  259 5.138545 -20.970541 -8.048637 0.000000 -0.000000 -1.570796
  260 1.063360 -19.115101 -10.100853 0.000000 -0.000000 -1.570796
  261 4.762077 -20.970541 -7.510986 0.000000 -0.000000 -1.570796
  262 1.034377 -18.580963 -9.720520 0.000000 -0.000000 -1.570796
  263 4.733095 -20.436401 -7.130653 0.000000 -0.000000 -1.570796
  264 1.381866 -18.046825 -9.877831 0.000000 -0.000000 -1.570796
  265 5.080580 -19.902264 -7.287971 0.000000 -0.000000 -1.570796
  266 1.758334 -18.046825 -10.415485 0.000000 -0.000000 -1.570796
  267 5.457047 -19.902264 -7.825623 0.000000 -0.000000 -1.570796
  268 6.633511 -21.221149 -6.596214 0.000000 -0.000000 -1.570796
  269 7.355050 -22.166523 -6.090992 0.000000 -0.000000 -1.570796
  270 7.739088 -24.698166 -5.822075 0.000000 -0.000000 -1.570796
  271 7.545893 -26.882069 -5.957355 0.000000 -0.000000 -1.570796
  272 6.201761 -29.132420 -6.898514 0.000000 -0.000000 -1.570796
  273 3.341462 -29.893375 -8.896023 0.000000 -0.000000 -1.570796
  274 5.069976 -27.869183 -7.691006 0.000000 -0.000000 -1.570796
  275 6.103986 -25.160110 -6.966984 0.000000 -0.000000 -1.570796
  276 6.010918 -23.010406 -7.032150 0.000000 -0.000000 -1.570796
  277 5.673413 -21.221149 -7.268475 0.000000 -0.000000 -1.570796
  278 5.989628 -21.221149 -6.698364 0.000000 -0.000000 -1.570796
  279 6.386432 -22.909111 -6.077126 0.000000 -0.000000 -1.570796
  280 6.462768 -25.705275 -6.023666 0.000000 -0.000000 -1.570796
  281 5.386119 -28.498215 -7.120941 0.000000 -0.000000 -1.570796
  282 0.613793 -18.281237 -10.415646 0.000000 -0.000000 -1.570796
  283 3.346443 -29.893375 -8.903133 0.000000 -0.000000 -1.570796
  284 0.990260 -18.281237 -10.953300 0.000000 -0.000000 -1.570796
  285 1.374296 -18.046825 -10.684387 0.000000 -0.000000 -1.570796
  286 0.997828 -18.046825 -10.146736 0.000000 -0.000000 -1.570796
  287 6.317297 -21.221149 -7.166325 0.000000 -0.000000 -1.570796
  288 7.036787 -22.909111 -7.005917 0.000000 -0.000000 -1.570796
  289 7.113124 -25.705275 -6.952469 0.000000 -0.000000 -1.570796
  290 5.713786 -28.498215 -7.588898 0.000000 -0.000000 -1.570796
  291 0.755819 12.283560 -12.413815 0.000000 -0.000000 -1.570796
  292 0.755819 12.445457 -13.643574 0.000000 -0.000000 -1.570796
  293 0.755819 11.690371 -14.627628 0.000000 -0.000000 -1.570796
  294 0.755819 10.460611 -14.789530 0.000000 -0.000000 -1.570796
  295 0.755819 9.476559 -14.034439 0.000000 -0.000000 -1.570796
  296 0.755819 9.314651 -12.804680 0.000000 -0.000000 -1.570796
  297 -0.117667 11.166052 -14.477821 0.000000 -0.000000 -1.570796
  298 0.334755 11.166052 -14.477821 0.000000 -0.000000 -1.570796
  299 -0.117667 14.759869 -17.326401 0.000000 -0.000000 -1.570796
  300 0.334755 14.759869 -17.326401 0.000000 -0.000000 -1.570796
  301 -0.117667 15.581406 -18.547981 0.000000 -0.000000 -1.570796
  302 0.334755 15.581406 -18.547981 0.000000 -0.000000 -1.570796
  303 -0.117667 10.587259 -14.477821 0.000000 -0.000000 -1.570796
  304 0.334755 10.587259 -14.477821 0.000000 -0.000000 -1.570796
  305 -2.926717 -2.659732 -14.939075 0.000000 -0.000000 -1.570796
  306 -3.943866 -2.659732 -12.483463 0.000000 -0.000000 -1.570796
  307 -2.348456 3.842530 -12.315605 0.000000 -0.000000 -1.570796
  308 -2.580761 3.223716 -12.423929 0.000000 -0.000000 -1.570796
  309 -3.141599 2.967396 -12.685452 0.000000 -0.000000 -1.570796
  310 -3.702435 3.223716 -12.946976 0.000000 -0.000000 -1.570796
  311 -3.934741 3.842530 -13.055302 0.000000 -0.000000 -1.570796
  312 -3.702435 4.461346 -12.946976 0.000000 -0.000000 -1.570796
  313 -3.141599 4.717669 -12.685452 0.000000 -0.000000 -1.570796
  314 -2.580761 4.461346 -12.423929 0.000000 -0.000000 -1.570796
  315 -3.277969 3.842530 -10.322258 0.000000 -0.000000 -1.570796
  316 -3.510275 3.223716 -10.430580 0.000000 -0.000000 -1.570796
  317 -4.071113 2.967396 -10.692108 0.000000 -0.000000 -1.570796
  318 -4.631948 3.223716 -10.953629 0.000000 -0.000000 -1.570796
  319 -4.864254 3.842530 -11.061958 0.000000 -0.000000 -1.570796
  320 -4.631948 4.461346 -10.953629 0.000000 -0.000000 -1.570796
  321 -4.071113 4.717669 -10.692108 0.000000 -0.000000 -1.570796
  322 -3.510275 4.461346 -10.430580 0.000000 -0.000000 -1.570796
  323 -2.348456 1.064325 -12.315605 0.000000 -0.000000 -1.570796
  324 -2.580762 0.445510 -12.423929 0.000000 -0.000000 -1.570796
  325 -3.141599 0.189185 -12.685452 0.000000 -0.000000 -1.570796
  326 -3.702435 0.445510 -12.946976 0.000000 -0.000000 -1.570796
  327 -3.934741 1.064325 -13.055302 0.000000 -0.000000 -1.570796
  328 -3.702435 1.683139 -12.946976 0.000000 -0.000000 -1.570796
  329 -3.141599 1.939458 -12.685452 0.000000 -0.000000 -1.570796
  330 -2.580762 1.683139 -12.423929 0.000000 -0.000000 -1.570796
  331 -3.277969 1.064325 -10.322258 0.000000 -0.000000 -1.570796
  332 -3.510275 0.445510 -10.430580 0.000000 -0.000000 -1.570796
  333 -4.071113 0.189185 -10.692108 0.000000 -0.000000 -1.570796
  334 -4.631948 0.445510 -10.953629 0.000000 -0.000000 -1.570796
  335 -4.864254 1.064326 -11.061958 0.000000 -0.000000 -1.570796
  336 -4.631948 1.683139 -10.953629 0.000000 -0.000000 -1.570796
  337 -4.071113 1.939458 -10.692108 0.000000 -0.000000 -1.570796
  338 -3.510275 1.683139 -10.430580 0.000000 -0.000000 -1.570796
  339 0.256115 -13.694919 -10.579224 0.000000 -0.000000 -1.570796
  340 0.023809 -14.313732 -10.687546 0.000000 -0.000000 -1.570796
  341 -0.537028 -14.570052 -10.949074 0.000000 -0.000000 -1.570796
  342 -1.097865 -14.313732 -11.210590 0.000000 -0.000000 -1.570796
  343 -1.330171 -13.694919 -11.318924 0.000000 -0.000000 -1.570796
  344 -1.097864 -13.076102 -11.210590 0.000000 -0.000000 -1.570796
  345 -0.537028 -12.819780 -10.949074 0.000000 -0.000000 -1.570796
  346 0.023809 -13.076102 -10.687546 0.000000 -0.000000 -1.570796
  347 -0.673398 -13.694919 -8.585880 0.000000 -0.000000 -1.570796
  348 -0.905704 -14.313732 -8.694202 0.000000 -0.000000 -1.570796
  349 -1.466542 -14.570052 -8.955727 0.000000 -0.000000 -1.570796
  350 -2.027378 -14.313732 -9.217247 0.000000 -0.000000 -1.570796
  351 -2.259683 -13.694919 -9.325581 0.000000 -0.000000 -1.570796
  352 -2.027378 -13.076102 -9.217247 0.000000 -0.000000 -1.570796
  353 -1.466542 -12.819780 -8.955727 0.000000 -0.000000 -1.570796
  354 -0.905704 -13.076102 -8.694202 0.000000 -0.000000 -1.570796
  355 0.256115 -15.894331 -10.579224 0.000000 -0.000000 -1.570796
  356 0.023809 -16.513145 -10.687546 0.000000 -0.000000 -1.570796
  357 -0.537028 -16.769470 -10.949074 0.000000 -0.000000 -1.570796
  358 -1.097865 -16.513145 -11.210590 0.000000 -0.000000 -1.570796
  359 -1.330171 -15.894331 -11.318924 0.000000 -0.000000 -1.570796
  360 -1.097864 -15.275518 -11.210590 0.000000 -0.000000 -1.570796
  361 -0.537028 -15.019197 -10.949074 0.000000 -0.000000 -1.570796
  362 0.023809 -15.275518 -10.687546 0.000000 -0.000000 -1.570796
  363 -0.673398 -15.894331 -8.585880 0.000000 -0.000000 -1.570796
  364 -0.905704 -16.513145 -8.694202 0.000000 -0.000000 -1.570796
  365 -1.466542 -16.769470 -8.955727 0.000000 -0.000000 -1.570796
  366 -2.027378 -16.513145 -9.217247 0.000000 -0.000000 -1.570796
  367 -2.259683 -15.894331 -9.325581 0.000000 -0.000000 -1.570796
  368 -2.027378 -15.275518 -9.217247 0.000000 -0.000000 -1.570796
  369 -1.466542 -15.019197 -8.955727 0.000000 -0.000000 -1.570796
  370 -0.905704 -15.275518 -8.694202 0.000000 -0.000000 -1.570796
  371 -3.592025 1.249967 -10.624180 0.000000 -0.000000 -1.570796
  372 -3.661717 0.693034 -10.656677 0.000000 -0.000000 -1.570796
  373 -3.998219 0.539241 -10.813595 0.000000 -0.000000 -1.570796
  374 -4.334720 0.693034 -10.970505 0.000000 -0.000000 -1.570796
  375 -4.404413 1.249967 -11.003006 0.000000 -0.000000 -1.570796
  376 -3.998219 1.589403 -10.813595 0.000000 -0.000000 -1.570796
  377 -4.558680 0.534596 -8.227146 0.000000 -0.000000 -1.570796
  378 -4.622503 0.006815 -8.410088 0.000000 -0.000000 -1.570796
  379 -4.963219 -0.105615 -8.591137 0.000000 -0.000000 -1.570796
  380 -5.307886 0.077482 -8.686996 0.000000 -0.000000 -1.570796
  381 -5.386012 0.619896 -8.561413 0.000000 -0.000000 -1.570796
  382 -4.976705 0.903369 -8.300262 0.000000 -0.000000 -1.570796
  383 -6.832383 -2.988497 -6.428692 0.000000 -0.000000 -1.570796
  384 -6.669112 -3.308638 -6.861061 0.000000 -0.000000 -1.570796
  385 -6.927124 -3.399189 -7.155579 0.000000 -0.000000 -1.570796
  386 -7.312076 -3.313189 -7.232555 0.000000 -0.000000 -1.570796
  387 -7.608505 -2.993994 -6.877121 0.000000 -0.000000 -1.570796
  388 -7.360530 -2.796420 -6.412834 0.000000 -0.000000 -1.570796
  389 -7.293512 -7.643615 -5.144798 0.000000 -0.000000 -1.570796
  390 -7.062703 -7.651145 -5.657398 0.000000 -0.000000 -1.570796
  391 -7.285328 -7.743139 -5.979092 0.000000 -0.000000 -1.570796
  392 -7.670167 -7.841888 -6.039536 0.000000 -0.000000 -1.570796
  393 -8.026793 -7.873866 -5.606060 0.000000 -0.000000 -1.570796
  394 -7.839163 -7.766188 -5.087132 0.000000 -0.000000 -1.570796
  395 -1.900831 -13.100902 -7.808006 0.000000 -0.000000 -1.570796
  396 -2.246743 -13.173965 -8.245148 0.000000 -0.000000 -1.570796
  397 -2.442926 -13.521420 -8.293102 0.000000 -0.000000 -1.570796
  398 -2.374448 -13.939728 -7.923748 0.000000 -0.000000 -1.570796
  399 -2.028533 -13.866663 -7.486595 0.000000 -0.000000 -1.570796
  400 -1.832359 -13.519211 -7.438652 0.000000 -0.000000 -1.570796
  401 -4.635786 -11.729868 -5.563389 0.000000 -0.000000 -1.570796
  402 -5.021050 -12.091942 -5.372189 0.000000 -0.000000 -1.570796
  403 -5.318874 -12.216785 -5.611393 0.000000 -0.000000 -1.570796
  404 -5.354801 -12.031266 -6.140903 0.000000 -0.000000 -1.570796
  405 -4.969538 -11.669189 -6.332119 0.000000 -0.000000 -1.570796
  406 -4.671710 -11.544348 -6.092911 0.000000 -0.000000 -1.570796
  407 -1.425250 -13.224295 -9.341629 0.000000 -0.000000 -1.570796
  408 -1.730826 -13.662327 -9.517250 0.000000 -0.000000 -1.570796
  409 -1.611350 -14.037904 -9.438648 0.000000 -0.000000 -1.570796
  410 -1.136814 -14.131014 -9.151882 0.000000 -0.000000 -1.570796
  411 -0.831246 -13.692985 -8.976265 0.000000 -0.000000 -1.570796
  412 -0.950718 -13.317410 -9.054859 0.000000 -0.000000 -1.570796
  413 -3.592025 4.044212 -10.624180 0.000000 -0.000000 -1.570796
  414 -3.661717 3.487279 -10.656677 0.000000 -0.000000 -1.570796
  415 -3.998218 3.333486 -10.813595 0.000000 -0.000000 -1.570796
  416 -4.404413 3.672922 -11.003006 0.000000 -0.000000 -1.570796
  417 -4.334720 4.229857 -10.970505 0.000000 -0.000000 -1.570796
  418 -3.998218 4.383647 -10.813595 0.000000 -0.000000 -1.570796
  419 -5.313414 1.660559 -9.036037 0.000000 -0.000000 -1.570796
  420 -5.356312 1.378889 -9.319466 0.000000 -0.000000 -1.570796
  421 -5.588060 1.336327 -9.645027 0.000000 -0.000000 -1.570796
  422 -5.958443 1.735686 -9.784374 0.000000 -0.000000 -1.570796
  423 -6.001079 2.195239 -9.463322 0.000000 -0.000000 -1.570796
  424 -5.626913 2.127066 -9.049259 0.000000 -0.000000 -1.570796
  425 -7.424463 -1.666516 -7.967865 0.000000 -0.000000 -1.570796
  426 -7.271034 -1.783067 -8.320553 0.000000 -0.000000 -1.570796
  427 -7.389554 -1.759170 -8.703808 0.000000 -0.000000 -1.570796
  428 -7.878309 -1.514464 -8.835407 0.000000 -0.000000 -1.570796
  429 -8.199480 -1.303556 -8.424961 0.000000 -0.000000 -1.570796
  430 -7.920453 -1.402622 -7.947037 0.000000 -0.000000 -1.570796
  431 -8.043700 -6.718194 -7.333893 0.000000 -0.000000 -1.570796
  432 -8.114865 -6.792053 -7.886673 0.000000 -0.000000 -1.570796
  433 -8.462011 -6.935700 -8.029381 0.000000 -0.000000 -1.570796
  434 -8.881769 -7.064988 -7.678432 0.000000 -0.000000 -1.570796
  435 -8.810605 -6.991127 -7.125652 0.000000 -0.000000 -1.570796
  436 -8.463466 -6.847479 -6.982933 0.000000 -0.000000 -1.570796
  437 -5.948118 -12.117559 -7.260231 0.000000 -0.000000 -1.570796
  438 -6.256473 -12.264427 -7.706810 0.000000 -0.000000 -1.570796
  439 -6.585337 -12.490824 -7.661018 0.000000 -0.000000 -1.570796
  440 -6.742074 -12.664133 -7.149654 0.000000 -0.000000 -1.570796
  441 -6.433722 -12.517262 -6.703075 0.000000 -0.000000 -1.570796
  442 -6.104852 -12.290867 -6.748882 0.000000 -0.000000 -1.570796
  443 -2.576072 -14.731841 -8.264854 0.000000 -0.000000 -1.570796
  444 -2.841253 -15.081377 -8.616405 0.000000 -0.000000 -1.570796
  445 -2.972821 -15.438396 -8.487053 0.000000 -0.000000 -1.570796
  446 -2.893708 -15.593765 -7.952541 0.000000 -0.000000 -1.570796
  447 -2.628531 -15.244230 -7.600990 0.000000 -0.000000 -1.570796
  448 -2.496959 -14.887211 -7.730354 0.000000 -0.000000 -1.570796
  449 -1.114680 -15.406826 -8.919533 0.000000 -0.000000 -1.570796
  450 -1.601265 -15.536444 -9.169579 0.000000 -0.000000 -1.570796
  451 -1.715528 -15.920094 -9.205074 0.000000 -0.000000 -1.570796
  452 -1.390532 -16.333057 -9.005257 0.000000 -0.000000 -1.570796
  453 -0.903947 -16.203442 -8.755203 0.000000 -0.000000 -1.570796
  454 -0.789682 -15.819790 -8.719704 0.000000 -0.000000 -1.570796
  455 -5.045413 -19.902264 -7.287971 0.000000 -0.000000 -1.570796
  456 0.681215 -21.731672 -11.722254 0.000000 -0.000000 -1.570796
  457 0.201845 -21.731672 -11.831701 0.000000 -0.000000 -1.570796
  458 0.463420 -21.731672 -12.248059 0.000000 -0.000000 -1.570796
  459 0.047063 -21.731672 -11.986484 0.000000 -0.000000 -1.570796
  460 -0.062385 -21.731672 -12.437254 0.000000 -0.000000 -1.570796
  461 -0.171832 -21.731672 -11.986484 0.000000 -0.000000 -1.570796
  462 -0.588190 -21.731672 -12.248059 0.000000 -0.000000 -1.570796
  463 -0.326614 -21.731672 -11.831701 0.000000 -0.000000 -1.570796
  464 -0.805985 -21.731672 -11.722254 0.000000 -0.000000 -1.570796
  465 -0.326614 -21.731672 -11.612806 0.000000 -0.000000 -1.570796
  466 -0.588190 -21.731672 -11.196448 0.000000 -0.000000 -1.570796
  467 -0.171832 -21.731672 -11.458024 0.000000 -0.000000 -1.570796
  468 -0.062385 -21.731672 -11.007254 0.000000 -0.000000 -1.570796
  469 0.047063 -21.731672 -11.458024 0.000000 -0.000000 -1.570796
  470 0.463420 -21.731672 -11.196448 0.000000 -0.000000 -1.570796
  471 0.201845 -21.731672 -11.612806 0.000000 -0.000000 -1.570796
  472 0.376911 -22.731642 -11.722256 0.000000 -0.000000 -1.570796
  473 0.327862 -22.731642 -11.883901 0.000000 -0.000000 -1.570796
  474 0.248245 -22.731642 -12.032886 0.000000 -0.000000 -1.570796
  475 0.099261 -22.731642 -12.112503 0.000000 -0.000000 -1.570796
  476 -0.062385 -22.731642 -12.144655 0.000000 -0.000000 -1.570796
  477 -0.224031 -22.731642 -12.112503 0.000000 -0.000000 -1.570796
  478 -0.373014 -22.731642 -12.032886 0.000000 -0.000000 -1.570796
  479 -0.452632 -22.731642 -11.883901 0.000000 -0.000000 -1.570796
  480 -0.501681 -22.731642 -11.722256 0.000000 -0.000000 -1.570796
  481 -0.452632 -22.731642 -11.560611 0.000000 -0.000000 -1.570796
  482 -0.373014 -22.731642 -11.411626 0.000000 -0.000000 -1.570796
  483 -0.224031 -22.731642 -11.332008 0.000000 -0.000000 -1.570796
  484 -0.062385 -22.731642 -11.299855 0.000000 -0.000000 -1.570796
  485 0.099261 -22.731642 -11.332008 0.000000 -0.000000 -1.570796
  486 0.248245 -22.731642 -11.411626 0.000000 -0.000000 -1.570796
  487 0.327862 -22.731642 -11.560611 0.000000 -0.000000 -1.570796
end
