version 1
nodes
0 "hips" -1
1 "spine" 0
2 "chest" 1
3 "neck" 2
4 "head" 3
5 "breathing_tube_5" 4
6 "Shoulder.L" 2
7 "arm_upper.L" 6
8 "arm_lower.L" 7
9 "hand.L" 8
10 "Shoulder.R" 2
11 "arm_upper.R" 10
12 "arm_lower.R" 11
13 "hand.R" 12
14 "weapon" 13
15 "muzzle_flash" 14
16 "weapon_cable_1" 2
17 "weapon_cable_2" 16
18 "weapon_cable_3" 17
19 "weapon_cable_4" 18
20 "weapon_cable_5" 19
21 "weapon_cable_6" 20
22 "weapon_cable_7" 21
23 "weapon_cable_8" 22
24 "breathing_tube_1" 2
25 "breathing_tube_2" 24
26 "breathing_tube_3" 25
27 "breathing_tube_4" 26
28 "leg_upper.L" 0
29 "leg_lower.L" 28
30 "foot.L" 29
31 "toes.L" 30
32 "leg_upper.R" 0
33 "leg_lower.R" 32
34 "foot.R" 33
35 "toes.R" 34
36 "leg_ik.L" -1
37 "leg_pull.L" -1
38 "leg_ik.R" -1
39 "leg_pull.R" -1
40 "hand_ik.L" -1
41 "hand_ik.R" -1
42 "hand_pull.L" -1
43 "hand_pull.R" -1
end
skeleton
  time 0
  0 0.365973 0.000000 1.951303 1.712894 -0.000000 1.570796
  1 0.000000 7.787998 -0.000001 -0.036625 -0.081624 0.011704
  2 0.000000 6.830342 -0.000001 -0.498130 0.000000 -0.000000
  3 -0.000001 6.307691 -0.000000 0.990027 -0.000000 -0.000000
  4 -0.000000 2.062053 -0.000000 -0.437826 -0.087075 0.059482
  5 3.462712 0.878777 -2.964390 1.508386 0.052358 2.816472
  6 3.325126 6.635757 -0.656394 -0.115247 0.348888 -2.066765
  7 -0.000000 6.186779 0.000001 -0.021715 0.520327 -0.619698
  8 -0.000003 9.277201 0.000000 1.699862 -0.064169 -0.522143
  9 0.000002 8.547139 0.000001 0.251695 -0.128350 -0.215787
  10 -3.325127 6.635755 -0.656394 -0.115247 -0.348888 2.066765
  11 -0.000003 6.186778 0.000000 0.540368 0.741349 1.094292
  12 -0.000001 9.277200 -0.000002 0.068813 -0.495609 1.473341
  13 -0.000000 8.547147 -0.000001 -0.284265 -0.303352 0.682679
  14 0.242424 2.653008 -1.605145 1.480065 0.004474 0.052683
  15 -0.079158 8.273300 -13.071133 -1.564730 0.000269 0.000022
  16 -5.283370 -0.941654 -9.166863 -1.509613 1.178568 1.554057
  17 0.000000 2.370680 0.000000 0.559185 -0.006380 0.000490
  18 0.000001 1.895271 0.000001 0.164084 -0.515157 0.151032
  19 -0.000001 4.778708 -0.000003 0.852049 -0.529737 0.144971
  20 -0.000001 5.917943 -0.000003 0.590098 -0.401473 0.198999
  21 -0.000001 5.844549 -0.000002 0.919062 -0.346785 0.343531
  22 -0.000000 4.734663 -0.000003 0.340681 -0.055482 0.215776
  23 -0.000001 4.479238 -0.000001 -0.708533 0.582569 -1.487913
  24 -0.018881 10.174585 -5.360420 0.395804 -0.023921 -0.008801
  25 0.000000 1.635714 -0.000001 0.549788 0.027679 -0.787590
  26 -0.000001 2.115242 0.000000 0.351212 -0.458730 -0.883002
  27 0.000005 2.301962 0.000001 0.656597 -0.640088 -0.780021
  28 2.885960 1.661013 0.143899 0.131980 -0.009519 -3.019032
  29 -0.000264 11.517344 -0.000135 -0.433622 -0.010809 -0.052183
  30 -0.000260 12.734394 -0.000127 1.183509 0.012430 -0.018252
  31 -0.000015 5.021167 0.000025 0.727722 -0.032913 -0.036010
  32 -2.885959 1.661014 0.143902 0.612290 0.039826 3.019405
  33 -0.000041 11.517506 -0.000121 -0.532026 0.016498 0.063033
  34 0.000110 12.734348 -0.000118 0.800822 -0.009069 0.013614
  35 -0.000009 5.021161 0.000030 0.727722 0.032905 0.036009
  36 -4.820252 5.089326 -19.332434 0.000000 -0.000000 1.570796
  37 15.378815 4.642630 -6.432432 0.000000 0.000000 -1.570796
  38 5.202678 -5.089326 -19.276638 0.000000 -0.000000 1.570796
  39 15.378815 -4.642629 -6.432432 0.000000 0.000000 -1.570796
  40 8.260706 9.102018 10.545546 0.000000 -0.000000 1.570796
  41 8.845117 -6.419229 11.676721 0.000000 -0.000000 1.570796
  42 -15.646546 22.528687 20.987938 0.000000 -0.000000 1.570796
  43 -15.646544 -5.381538 21.792572 0.000000 -0.000000 1.570796
  time 1
  0 -0.785069 0.000000 0.827369 1.712894 -0.000000 1.570796
  1 0.000000 7.787998 -0.000001 -0.324945 -0.254884 0.115392
  2 0.000001 6.830340 -0.000001 -0.498130 -0.000000 -0.000000
  3 -0.000001 6.307691 0.000001 0.990027 -0.000000 -0.000000
  4 0.000000 2.062053 -0.000000 -0.555647 -0.062802 0.089590
  5 3.462712 0.878776 -2.964388 1.508386 0.052358 2.816472
  6 3.325126 6.635755 -0.656392 -0.115247 0.348888 -2.066765
  7 0.000001 6.186780 0.000000 -0.440633 0.453892 -1.084742
  8 -0.000002 9.277202 0.000003 1.706933 -0.060111 -0.521600
  9 -0.000001 8.547145 0.000001 0.281582 0.109736 -0.150714
  10 -3.325127 6.635755 -0.656393 -0.242095 -0.281156 2.031861
  11 0.000001 6.186779 0.000000 0.330880 0.736880 1.157186
  12 -0.000000 9.277199 -0.000002 0.064218 -0.478903 1.191421
  13 -0.000001 8.547145 0.000002 -0.502254 -0.193401 1.062684
  14 0.242424 2.653007 -1.605146 1.480065 0.004474 0.052683
  15 -0.079155 8.273300 -13.071127 -1.564730 0.000269 0.000022
  16 -5.283370 -0.941655 -9.166862 -1.509614 1.178567 1.554057
  17 -0.000001 2.370680 0.000000 0.559185 -0.006380 0.000490
  18 -0.000000 1.895272 0.000001 -0.057992 -0.486314 0.094937
  19 -0.000001 4.778709 -0.000004 0.772703 -0.525576 0.098789
  20 -0.000003 5.917944 -0.000005 0.695422 -0.456039 0.147417
  21 -0.000002 5.844546 -0.000002 1.100889 -0.459264 0.300255
  22 -0.000004 4.734660 -0.000004 0.435321 -0.118932 0.233166
  23 -0.000000 4.479238 -0.000003 -0.664578 0.575959 -1.493662
  24 -0.018881 10.174582 -5.360418 0.373989 -0.055446 -0.007072
  25 0.000000 1.635711 -0.000002 0.554498 -0.007787 -0.777866
  26 -0.000001 2.115244 -0.000000 0.376386 -0.469578 -0.866022
  27 0.000001 2.301961 0.000000 0.347479 -0.691593 -0.753164
  28 2.885959 1.661014 0.143899 0.366319 -0.011353 -2.990777
  29 0.000185 11.517500 -0.000102 -0.805219 -0.037491 -0.089647
  30 -0.000201 12.734419 -0.000074 1.321785 0.008955 -0.001770
  31 -0.000017 5.021164 0.000026 0.727722 -0.032913 -0.036010
  32 -2.885959 1.661016 0.143902 0.792633 0.045766 3.002216
  33 -0.000057 11.517474 -0.000095 -0.759756 0.033517 0.085622
  34 0.000124 12.734373 -0.000079 0.848749 -0.001105 0.007165
  35 -0.000009 5.021157 0.000033 0.727722 0.032905 0.036009
  36 -4.820252 5.089326 -19.279112 0.000000 -0.000000 1.570796
  37 15.378815 4.642630 -7.721651 0.000000 0.000000 -1.570796
  38 5.202678 -5.089326 -19.223316 0.000000 -0.000000 1.570796
  39 15.378815 -4.642629 -7.721651 0.000000 0.000000 -1.570796
  40 4.962232 7.046797 8.500017 0.000000 -0.000000 1.570796
  41 4.865687 -7.953644 8.811952 0.000000 -0.000000 1.570796
  42 -15.646546 22.528687 19.698719 0.000000 -0.000000 1.570796
  43 -15.646544 -5.381538 20.503353 0.000000 -0.000000 1.570796
  time 2
  0 -0.329869 0.000000 1.489192 1.712894 -0.000000 1.570796
  1 0.000000 7.787998 -0.000001 -0.234352 -0.226151 0.090748
  2 0.000002 6.830340 -0.000001 -0.498130 -0.000000 -0.000000
  3 0.000000 6.307693 0.000000 0.990027 -0.000000 -0.000000
  4 -0.000000 2.062052 0.000000 -0.672537 -0.035181 0.116598
  5 3.462712 0.878774 -2.964389 1.508386 0.052358 2.816472
  6 3.325126 6.635756 -0.656394 -0.115247 0.348888 -2.066765
  7 -0.000001 6.186779 0.000001 -0.203696 0.479326 -0.882204
  8 -0.000001 9.277206 0.000004 1.673377 -0.079402 -0.523920
  9 0.000001 8.547145 -0.000000 0.275178 0.344416 -0.100752
  10 -3.325126 6.635756 -0.656394 -0.369177 -0.218170 1.989039
  11 0.000000 6.186781 0.000000 0.518060 0.483675 1.283998
  12 0.000000 9.277205 -0.000005 0.061071 -0.472861 1.083154
  13 -0.000000 8.547149 0.000003 -0.409865 -0.259201 0.984819
  14 0.242424 2.653008 -1.605146 1.480065 0.004474 0.052683
  15 -0.079159 8.273305 -13.071132 -1.564730 0.000269 0.000022
  16 -5.283370 -0.941654 -9.166864 -1.509614 1.178568 1.554057
  17 0.000000 2.370681 0.000001 0.559185 -0.006380 0.000490
  18 0.000000 1.895273 0.000001 0.016530 -0.498926 0.116398
  19 -0.000001 4.778710 -0.000004 0.788113 -0.531921 0.121300
  20 -0.000003 5.917944 -0.000004 0.636273 -0.438272 0.178705
  21 -0.000003 5.844548 -0.000002 1.015224 -0.413600 0.329907
  22 -0.000002 4.734662 -0.000003 0.392469 -0.088719 0.228546
  23 0.000001 4.479238 -0.000002 -0.686505 0.575351 -1.496728
  24 -0.018880 10.174583 -5.360420 0.360133 -0.045542 0.008731
  25 0.000001 1.635710 0.000000 0.557803 0.016428 -0.790739
  26 -0.000002 2.115243 0.000001 0.384055 -0.438606 -0.915453
  27 0.000004 2.301960 0.000001 0.430549 -0.683602 -0.795931
  28 2.885959 1.661014 0.143899 0.259298 -0.007416 -3.004852
  29 0.000222 11.517527 -0.000123 -0.628504 -0.023049 -0.073076
  30 -0.000227 12.734412 -0.000100 1.251713 0.008083 -0.009645
  31 -0.000015 5.021165 0.000027 0.727722 -0.032913 -0.036010
  32 -2.885959 1.661016 0.143902 0.695729 0.039078 3.011203
  33 -0.000048 11.517489 -0.000109 -0.626370 0.022918 0.072853
  34 0.000114 12.734358 -0.000102 0.812154 -0.002208 0.011679
  35 -0.000009 5.021161 0.000030 0.727722 0.032905 0.036009
  36 -4.820252 5.089326 -19.305773 0.000000 -0.000000 1.570796
  37 15.378815 4.642630 -7.387409 0.000000 0.000000 -1.570796
  38 5.202678 -5.089326 -19.249977 0.000000 -0.000000 1.570796
  39 15.378815 -4.642629 -7.387409 0.000000 0.000000 -1.570796
  40 7.267946 7.381552 10.028415 0.000000 -0.000000 1.570796
  41 6.282948 -7.881151 10.180923 0.000000 -0.000000 1.570796
  42 -15.646546 22.528687 20.343327 0.000000 -0.000000 1.570796
  43 -15.646544 -5.381538 21.147964 0.000000 -0.000000 1.570796
  time 3
  0 0.365973 0.000000 2.116588 1.712894 -0.000000 1.570796
  1 0.000000 7.787998 -0.000001 -0.142240 -0.147191 0.050507
  2 0.000000 6.830344 -0.000001 -0.498130 -0.000000 -0.000000
  3 -0.000000 6.307690 -0.000001 0.990027 -0.000000 -0.000000
  4 0.000000 2.062054 -0.000001 -0.466808 -0.076239 0.079621
  5 3.462711 0.878774 -2.964391 1.508386 0.052358 2.816472
  6 3.325126 6.635756 -0.656393 -0.115247 0.348888 -2.066765
  7 0.000003 6.186780 0.000000 -0.451411 0.481261 -1.037748
  8 -0.000001 9.277200 0.000001 1.757206 -0.031399 -0.516925
  9 0.000001 8.547145 0.000002 0.256414 0.108361 -0.160414
  10 -3.325126 6.635756 -0.656393 -0.115247 -0.348888 2.066765
  11 -0.000001 6.186781 0.000000 0.526729 0.732928 1.077282
  12 -0.000000 9.277200 -0.000001 0.067654 -0.488966 1.363146
  13 0.000000 8.547147 -0.000001 -0.445356 -0.241552 0.976761
  14 0.242425 2.653008 -1.605146 1.480065 0.004474 0.052683
  15 -0.079156 8.273303 -13.071132 -1.564730 0.000269 0.000022
  16 -5.283371 -0.941655 -9.166864 -1.509614 1.178568 1.554057
  17 0.000000 2.370680 0.000000 0.559185 -0.006380 0.000490
  18 -0.000001 1.895272 0.000001 0.081531 -0.501048 0.124682
  19 -0.000001 4.778710 -0.000003 0.811059 -0.527280 0.133139
  20 -0.000003 5.917944 -0.000004 0.613309 -0.419691 0.192120
  21 -0.000001 5.844547 -0.000001 0.975069 -0.382194 0.339057
  22 0.000001 4.734661 -0.000002 0.371539 -0.073527 0.222298
  23 -0.000000 4.479237 -0.000003 -0.695715 0.577589 -1.494369
  24 -0.018880 10.174584 -5.360419 0.385481 -0.036855 -0.006674
  25 0.000001 1.635711 -0.000001 0.549123 0.011313 -0.780750
  26 -0.000002 2.115242 0.000001 0.358918 -0.466247 -0.871195
  27 0.000005 2.301961 0.000002 0.548871 -0.663317 -0.777838
  28 2.885960 1.661013 0.143899 0.099322 -0.006266 -3.024175
  29 -0.000264 11.517346 -0.000135 -0.368322 -0.007641 -0.044713
  30 -0.000274 12.734384 -0.000137 1.151043 0.008779 -0.022349
  31 -0.000015 5.021166 0.000026 0.727722 -0.032913 -0.036010
  32 -2.885959 1.661014 0.143902 0.583452 0.035047 3.021940
  33 -0.000038 11.517516 -0.000129 -0.479566 0.013339 0.057327
  34 0.000103 12.734335 -0.000129 0.777423 -0.005923 0.016883
  35 -0.000009 5.021161 0.000030 0.727722 0.032905 0.036009
  36 -4.820252 5.089326 -19.332434 0.000000 -0.000000 1.570796
  37 15.378815 4.642630 -6.766674 0.000000 0.000000 -1.570796
  38 5.202678 -5.089326 -19.276638 0.000000 -0.000000 1.570796
  39 15.378815 -4.642629 -6.766674 0.000000 0.000000 -1.570796
  40 5.159667 7.915775 9.417610 0.000000 -0.000000 1.570796
  41 8.374224 -7.373706 11.549893 0.000000 -0.000000 1.570796
  42 -15.646546 22.528687 20.987938 0.000000 -0.000000 1.570796
  43 -15.646544 -5.381538 21.792572 0.000000 -0.000000 1.570796
end
