version 1
nodes
0 "hips" -1
1 "spine" 0
2 "chest" 1
3 "neck" 2
4 "head" 3
5 "breathing_tube_5" 4
6 "Shoulder.L" 2
7 "arm_upper.L" 6
8 "arm_lower.L" 7
9 "hand.L" 8
10 "Shoulder.R" 2
11 "arm_upper.R" 10
12 "arm_lower.R" 11
13 "hand.R" 12
14 "weapon" 13
15 "muzzle_flash" 14
16 "weapon_cable_1" 2
17 "weapon_cable_2" 16
18 "weapon_cable_3" 17
19 "weapon_cable_4" 18
20 "weapon_cable_5" 19
21 "weapon_cable_6" 20
22 "weapon_cable_7" 21
23 "weapon_cable_8" 22
24 "breathing_tube_1" 2
25 "breathing_tube_2" 24
26 "breathing_tube_3" 25
27 "breathing_tube_4" 26
28 "leg_upper.L" 0
29 "leg_lower.L" 28
30 "foot.L" 29
31 "toes.L" 30
32 "leg_upper.R" 0
33 "leg_lower.R" 32
34 "foot.R" 33
35 "toes.R" 34
36 "leg_ik.L" -1
37 "leg_pull.L" -1
38 "leg_ik.R" -1
39 "leg_pull.R" -1
40 "hand_ik.L" -1
41 "hand_ik.R" -1
42 "hand_pull.L" -1
43 "hand_pull.R" -1
end
skeleton
  time 0
  0 0.365973 0.000000 0.823096 1.712894 -0.000000 1.570796
  1 0.000000 7.787998 -0.000001 -0.037120 0.116287 -0.016713
  2 -0.000001 6.830342 -0.000001 -0.498130 0.000000 0.000000
  3 0.000000 6.307691 -0.000000 0.990027 -0.000000 -0.000000
  4 -0.000001 2.062053 -0.000000 -0.437826 -0.087075 0.059482
  5 3.462712 0.878775 -2.964390 1.508386 0.052358 2.816472
  6 3.325126 6.635755 -0.656394 -0.115247 0.348888 -2.066765
  7 -0.000000 6.186779 0.000001 0.274936 0.551601 -0.017470
  8 0.000001 9.277200 -0.000001 1.453512 -0.205604 -0.522983
  9 -0.000001 8.547143 -0.000000 0.251695 -0.128350 -0.215787
  10 -3.325126 6.635755 -0.656394 -0.115247 -0.348888 2.066765
  11 -0.000002 6.186780 0.000000 0.309448 1.006178 0.952355
  12 0.000004 9.277197 -0.000000 0.067708 -0.513777 1.774630
  13 -0.000003 8.547149 -0.000002 -0.284265 -0.303352 0.682679
  14 0.242424 2.653008 -1.605145 1.480065 0.004474 0.052683
  15 -0.079153 8.273300 -13.071136 -1.564730 0.000269 0.000022
  16 -5.283370 -0.941656 -9.166863 -1.509614 1.178568 1.554057
  17 0.000000 2.370680 0.000000 0.559185 -0.006380 0.000490
  18 0.000000 1.895272 0.000002 0.229467 -0.463030 0.095872
  19 -0.000003 4.778711 -0.000003 0.868655 -0.478177 0.142481
  20 -0.000003 5.917941 -0.000005 0.613703 -0.363576 0.201575
  21 -0.000001 5.844549 -0.000002 0.961024 -0.325241 0.335199
  22 -0.000001 4.734663 -0.000002 0.364658 -0.060966 0.201995
  23 0.000003 4.479242 -0.000002 -0.694214 0.585014 -1.484657
  24 -0.018879 10.174582 -5.360422 0.428967 -0.000070 -0.020634
  25 -0.000001 1.635714 -0.000000 0.536770 0.038653 -0.785289
  26 -0.000003 2.115243 0.000001 0.310915 -0.486267 -0.849749
  27 0.000003 2.301962 0.000000 0.758303 -0.517690 -0.821378
  28 2.885960 1.661013 0.143899 0.281687 -0.018316 -2.994129
  29 0.000205 11.517516 -0.000112 -0.739925 -0.031813 -0.083821
  30 -0.000204 12.734421 -0.000081 1.339960 0.021050 -0.000562
  31 -0.000016 5.021162 0.000027 0.727722 -0.032913 -0.036010
  32 -2.885959 1.661015 0.143902 0.648942 0.044825 2.990245
  33 -0.000062 11.517484 -0.000089 -0.890226 0.045445 0.096652
  34 0.000128 12.734402 -0.000064 1.122535 -0.014827 -0.005088
  35 -0.000009 5.021154 0.000033 0.727722 0.032905 0.036009
  36 -4.820252 5.089326 -19.332434 0.000000 -0.000000 1.570796
  37 15.378815 4.642630 -6.432432 0.000000 0.000000 -1.570796
  38 1.603347 -5.089325 -19.276638 0.000000 -0.000000 1.570796
  39 15.378815 -4.642629 -6.432432 0.000000 0.000000 -1.570796
  40 8.260705 14.249444 10.545546 0.000000 -0.000000 1.570796
  41 8.845117 -6.419229 11.676721 0.000000 -0.000000 1.570796
  42 -15.646546 22.528687 20.987938 0.000000 -0.000000 1.570796
  43 -15.646544 -5.381538 21.792572 0.000000 -0.000000 1.570796
  time 1
  0 -1.794177 0.000000 -0.716321 1.712894 0.099741 1.570796
  1 0.000000 7.787996 -0.000001 -0.060976 0.453742 -0.224969
  2 -0.000001 6.830344 -0.000001 -0.498130 -0.000000 0.000000
  3 0.000000 6.307692 0.000000 0.990027 -0.000000 -0.000000
  4 0.000000 2.062052 -0.000000 -0.351908 0.003895 -0.085735
  5 3.462712 0.878777 -2.964390 1.508386 0.052358 2.816472
  6 3.325126 6.635756 -0.656393 -0.231729 0.271443 -2.054197
  7 0.000002 6.186781 -0.000001 0.995913 0.609433 0.899297
  8 0.000001 9.277202 0.000000 1.509201 -0.173959 -0.525873
  9 -0.000000 8.547148 0.000002 0.251696 -0.128350 -0.215787
  10 -3.325126 6.635756 -0.656393 -0.115247 -0.348888 2.066765
  11 0.000002 6.186782 -0.000001 -0.020677 0.800706 -0.093564
  12 0.000001 9.277205 -0.000002 0.067649 -0.514021 1.778765
  13 -0.000003 8.547148 -0.000002 -0.174498 -0.302163 0.477154
  14 0.242423 2.653008 -1.605146 1.480065 0.004474 0.052683
  15 -0.079161 8.273306 -13.071138 -1.564730 0.000269 0.000023
  16 -5.283370 -0.941655 -9.166862 -1.509614 1.178568 1.554057
  17 0.000000 2.370680 0.000000 0.559185 -0.006380 0.000490
  18 0.000000 1.895272 0.000000 -0.048533 -0.342878 -0.080692
  19 -0.000002 4.778709 -0.000003 0.633361 -0.361645 0.127926
  20 -0.000002 5.917943 -0.000005 0.599175 -0.312404 0.220940
  21 -0.000002 5.844548 -0.000002 1.144410 -0.345858 0.321392
  22 -0.000001 4.734665 -0.000001 0.472705 -0.102460 0.169224
  23 -0.000001 4.479241 0.000000 -0.636886 0.555436 -1.527769
  24 -0.018880 10.174582 -5.360417 0.378690 0.031907 0.020798
  25 0.000000 1.635710 -0.000002 0.511448 0.078608 -0.789320
  26 -0.000002 2.115242 -0.000001 0.304058 -0.445290 -0.899634
  27 0.000001 2.301960 -0.000000 0.878747 -0.117399 -0.713760
  28 2.885958 1.661014 0.143900 0.455002 -0.029820 -2.844249
  29 0.000140 11.517471 -0.000054 -1.330005 -0.094131 -0.120872
  30 -0.000136 12.734437 0.000065 1.501187 0.026058 0.030640
  31 -0.000030 5.021131 0.000030 0.727722 -0.032911 -0.036007
  32 -2.885958 1.661015 0.143901 0.842762 0.052890 3.071097
  33 -0.000073 11.517462 -0.000062 -1.072913 0.064347 0.109304
  34 0.000138 12.734390 -0.000051 1.112174 -0.020726 -0.004637
  35 -0.000009 5.021152 0.000036 0.727722 0.032906 0.036009
  36 -8.608021 5.089325 -16.853167 0.254206 -0.000000 1.570796
  37 15.378815 4.642630 -6.432432 0.000000 0.000000 -1.570796
  38 1.381621 -5.089325 -19.276638 0.000000 -0.000000 1.570796
  39 15.378815 -4.642629 -6.432432 0.000000 0.000000 -1.570796
  40 1.908292 15.470816 7.007585 0.000000 -0.000000 1.570796
  41 9.564633 -7.882349 11.676721 0.000000 -0.000000 1.570796
  42 -15.646546 17.811001 20.491011 0.000000 -0.000000 1.570796
  43 -8.705307 -7.661091 13.568884 0.000000 -0.000000 1.570796
  time 2
  0 -3.513743 0.000000 -0.384486 1.712894 0.121321 1.570796
  1 -0.000002 7.787997 -0.000001 -0.060977 0.453742 -0.224969
  2 -0.000000 6.830342 -0.000001 -0.498130 -0.000000 0.000000
  3 0.000000 6.307691 -0.000000 0.990027 0.000000 -0.000000
  4 -0.000000 2.062053 -0.000001 -0.263284 0.197861 -0.344408
  5 3.462712 0.878776 -2.964390 1.508386 0.052358 2.816472
  6 3.325126 6.635755 -0.656394 -0.347085 0.195901 -2.032771
  7 0.000000 6.186779 -0.000001 0.501870 0.779070 0.209618
  8 0.000000 9.277204 -0.000000 1.326468 -0.275765 -0.509780
  9 -0.000001 8.547147 -0.000003 0.251695 -0.128350 -0.215787
  10 -3.325126 6.635756 -0.656394 -0.115246 -0.348888 2.066765
  11 -0.000001 6.186780 0.000001 -0.004267 1.032535 0.061879
  12 -0.000000 9.277199 -0.000003 0.067706 -0.489187 1.366857
  13 0.000001 8.547148 0.000002 0.021357 -0.242688 0.096406
  14 0.242424 2.653008 -1.605144 1.480065 0.004474 0.052683
  15 -0.079157 8.273304 -13.071136 -1.564730 0.000269 0.000022
  16 -5.283370 -0.941654 -9.166862 -1.509613 1.178567 1.554057
  17 -0.000000 2.370680 0.000000 0.559185 -0.006380 0.000490
  18 0.000000 1.895271 0.000002 0.019515 -0.329535 -0.060119
  19 -0.000001 4.778709 -0.000004 0.580428 -0.338976 0.176430
  20 -0.000002 5.917941 -0.000007 0.442305 -0.251017 0.267774
  21 -0.000002 5.844542 -0.000006 0.957589 -0.251444 0.368696
  22 -0.000001 4.734662 -0.000001 0.366120 -0.040715 0.162094
  23 -0.000002 4.479234 0.000004 -0.688780 0.542048 -1.546558
  24 -0.018880 10.174583 -5.360419 0.206011 0.036561 0.108844
  25 0.000000 1.635712 -0.000002 0.493989 0.104953 -0.789651
  26 -0.000001 2.115243 -0.000000 0.379253 -0.307119 -1.022965
  27 0.000001 2.301961 -0.000000 0.933718 0.063646 -0.828687
  28 2.885958 1.661015 0.143900 0.323001 -0.023164 -2.851208
  29 0.000179 11.517496 -0.000083 -1.070426 -0.064066 -0.109159
  30 -0.000130 12.734473 0.000075 1.500223 0.017215 0.018536
  31 -0.000022 5.021149 0.000027 0.727722 -0.032912 -0.036009
  32 -2.885959 1.661015 0.143901 0.849605 0.044059 3.098740
  33 -0.000068 11.517464 -0.000071 -0.971765 0.053594 0.102723
  34 0.000135 12.734385 -0.000057 1.004716 -0.013241 0.005036
  35 -0.000008 5.021152 0.000034 0.727722 0.032906 0.036009
  36 -10.861686 5.089325 -18.333839 0.127103 -0.000000 1.570796
  37 15.378815 4.642630 -6.432432 0.000000 0.000000 -1.570796
  38 1.019024 -5.089325 -19.276638 0.000000 -0.000000 1.570796
  39 15.378815 -4.642629 -6.432432 0.000000 0.000000 -1.570796
  40 -4.444121 16.692186 3.469625 0.000000 -0.000000 1.570796
  41 10.284150 -9.345469 11.676721 0.000000 -0.000000 1.570796
  42 -15.646545 9.049582 19.568150 0.000000 -0.000000 1.570796
  43 4.185561 -11.894548 -1.703679 0.000000 -0.000000 1.570796
  time 3
  0 -3.513743 0.000000 0.637144 1.720397 0.059915 1.695450
  1 -0.000001 7.787997 -0.000001 -0.060977 0.453742 -0.224969
  2 -0.000000 6.830342 -0.000000 -0.498130 -0.000000 0.000000
  3 -0.000000 6.307692 0.000000 0.990027 0.000000 -0.000000
  4 -0.000000 2.062053 -0.000001 -0.240107 0.307137 -0.479668
  5 3.462713 0.878775 -2.964391 1.508387 0.052358 2.816472
  6 3.325125 6.635758 -0.656394 -0.347085 0.195901 -2.032772
  7 0.000000 6.186779 -0.000001 -0.377519 0.273501 -0.604748
  8 0.000003 9.277204 0.000002 0.612621 -0.565854 -0.293377
  9 -0.000000 8.547144 -0.000000 0.251695 -0.128350 -0.215787
  10 -3.325127 6.635756 -0.656393 -0.115246 -0.348888 2.066765
  11 -0.000001 6.186779 -0.000001 -0.262697 0.999399 -0.131032
  12 -0.000001 9.277203 -0.000002 0.068746 -0.495036 1.463895
  13 -0.000001 8.547146 -0.000001 0.110391 -0.184296 -0.095245
  14 0.242422 2.653008 -1.605146 1.480065 0.004474 0.052683
  15 -0.079159 8.273298 -13.071132 -1.564730 0.000269 0.000022
  16 -5.283372 -0.941654 -9.166863 -1.509613 1.178568 1.554057
  17 -0.000000 2.370680 -0.000000 0.559185 -0.006380 0.000490
  18 0.000000 1.895272 0.000001 -0.050653 -0.318215 -0.087073
  19 -0.000002 4.778709 -0.000003 0.563943 -0.326630 0.159973
  20 -0.000003 5.917943 -0.000006 0.483471 -0.257546 0.255453
  21 -0.000004 5.844544 -0.000003 1.030766 -0.277410 0.353523
  22 -0.000001 4.734659 -0.000002 0.406641 -0.061743 0.156039
  23 -0.000002 4.479237 -0.000001 -0.666901 0.538362 -1.551997
  24 -0.018880 10.174584 -5.360419 0.169445 0.042593 0.117576
  25 0.000000 1.635711 -0.000001 0.480853 0.101883 -0.782371
  26 -0.000004 2.115243 -0.000000 0.389418 -0.290537 -1.025253
  27 0.000001 2.301961 0.000000 0.996621 0.201034 -0.922295
  28 2.885959 1.661013 0.143900 0.091662 0.113367 -2.937463
  29 -0.000240 11.517346 -0.000135 -0.525795 -0.016097 -0.062348
  30 -0.000227 12.734409 -0.000118 1.339191 0.009603 -0.010709
  31 -0.000015 5.021165 0.000027 0.727722 -0.032913 -0.036010
  32 -2.885959 1.661013 0.143900 0.733957 0.162134 3.064868
  33 -0.000057 11.517474 -0.000094 -0.837785 0.040478 0.092405
  34 0.000130 12.734389 -0.000067 0.975614 -0.008995 0.008626
  35 -0.000008 5.021154 0.000031 0.727722 0.032905 0.036009
  36 -11.500498 5.089325 -19.814512 0.000000 -0.000000 1.570796
  37 15.378815 4.642630 -6.432432 0.000000 0.000000 -1.570796
  38 0.781630 -5.089325 -19.276638 0.000000 -0.000000 1.570796
  39 15.378815 -4.642629 -6.432432 0.000000 0.000000 -1.570796
  40 -17.512058 9.672473 1.021762 0.000000 -0.000000 1.570796
  41 10.272637 -9.041140 11.676721 0.000000 -0.000000 1.570796
  42 -15.646546 4.331894 19.071224 0.000000 -0.000000 1.570796
  43 11.126796 -14.174101 -9.927364 0.000000 -0.000000 1.570796
  time 4
  0 -3.513743 0.000000 0.637144 1.712894 0.000000 1.695225
  1 -0.000001 7.787996 -0.000002 -0.060976 0.453742 -0.224969
  2 0.000000 6.830340 -0.000001 -0.498130 -0.000000 -0.000000
  3 0.000001 6.307690 -0.000001 0.990027 -0.000000 -0.000000
  4 0.000000 2.062052 0.000001 -0.240107 0.307137 -0.479669
  5 3.462712 0.878777 -2.964391 1.508386 0.052358 2.816472
  6 3.325126 6.635755 -0.656394 -0.347085 0.195901 -2.032771
  7 0.000001 6.186779 0.000000 -0.346763 0.892700 -0.805652
  8 -0.000002 9.277202 0.000001 0.153750 -0.638013 -0.077096
  9 -0.000002 8.547141 -0.000000 0.251696 -0.128350 -0.215787
  10 -3.325124 6.635754 -0.656394 -0.115247 -0.348888 2.066765
  11 -0.000002 6.186781 -0.000000 -0.018827 0.880825 -0.036526
  12 -0.000001 9.277201 -0.000003 0.069141 -0.501509 1.570500
  13 -0.000001 8.547148 -0.000000 0.076438 -0.204790 -0.019864
  14 0.242424 2.653009 -1.605146 1.480065 0.004474 0.052683
  15 -0.079160 8.273304 -13.071135 -1.564730 0.000269 0.000022
  16 -5.283369 -0.941658 -9.166862 -1.509614 1.178568 1.554057
  17 0.000000 2.370679 0.000001 0.559185 -0.006380 0.000490
  18 -0.000001 1.895272 0.000001 -0.005015 -0.336800 -0.070271
  19 -0.000002 4.778708 -0.000002 0.599184 -0.350519 0.160402
  20 -0.000001 5.917942 -0.000005 0.497091 -0.275841 0.256636
  21 -0.000004 5.844541 -0.000001 1.022706 -0.287113 0.358028
  22 -0.000002 4.734663 -0.000002 0.403988 -0.061624 0.167210
  23 -0.000001 4.479237 -0.000001 -0.671676 0.546068 -1.541422
  24 -0.018878 10.174578 -5.360420 0.176172 0.042769 0.114108
  25 0.000000 1.635712 -0.000000 0.478993 0.099305 -0.780598
  26 -0.000002 2.115246 0.000000 0.385089 -0.299935 -1.017414
  27 0.000002 2.301961 0.000000 0.984374 0.183533 -0.977313
  28 2.885959 1.661014 0.143900 0.057679 0.120646 -2.997468
  29 -0.000238 11.517354 -0.000133 -0.467771 -0.012658 -0.056005
  30 -0.000237 12.734406 -0.000127 1.308863 0.012997 -0.016859
  31 -0.000016 5.021167 0.000026 0.727722 -0.032913 -0.036010
  32 -2.885959 1.661014 0.143901 0.740611 0.167523 3.005026
  33 -0.000059 11.517472 -0.000094 -0.876771 0.044149 0.095587
  34 0.000133 12.734396 -0.000061 1.000049 -0.005421 0.003671
  35 -0.000009 5.021156 0.000031 0.727722 0.032905 0.036009
  36 -11.500498 5.089325 -19.814512 0.000000 -0.000000 1.570796
  37 15.378815 4.642630 -6.432432 0.000000 0.000000 -1.570796
  38 0.622497 -5.089325 -19.276638 0.000000 -0.000000 1.570796
  39 15.378815 -4.642629 -6.432432 0.000000 0.000000 -1.570796
  40 -17.893927 8.635699 1.021762 0.000000 -0.000000 1.570796
  41 10.192052 -8.315434 11.676721 0.000000 -0.000000 1.570796
  42 -15.646545 7.175140 19.370708 0.000000 -0.000000 1.570796
  43 8.100270 -12.800265 -4.971131 0.000000 -0.000000 1.570796
  time 5
  0 -2.567978 0.000000 0.860630 1.712542 -0.007740 1.661837
  1 -0.000000 7.787997 -0.000001 -0.041368 0.370172 -0.166873
  2 -0.000000 6.830341 -0.000001 -0.498130 -0.000000 0.000000
  3 0.000000 6.307692 -0.000000 0.990027 0.000000 -0.000000
  4 -0.000000 2.062054 -0.000000 -0.240107 0.307137 -0.479668
  5 3.462712 0.878776 -2.964390 1.508386 0.052358 2.816472
  6 3.325126 6.635756 -0.656393 -0.347085 0.195901 -2.032772
  7 0.000001 6.186780 -0.000002 -0.063585 1.359067 -0.365897
  8 0.000001 9.277204 0.000001 0.876822 -0.483124 -0.396943
  9 0.000003 8.547146 -0.000003 0.251695 -0.128350 -0.215787
  10 -3.325126 6.635756 -0.656394 -0.115246 -0.348888 2.066765
  11 0.000000 6.186782 0.000000 0.281183 0.812947 0.212197
  12 0.000004 9.277206 -0.000001 0.068991 -0.505527 1.636806
  13 -0.000003 8.547147 0.000001 -0.011972 -0.245142 0.165971
  14 0.242424 2.653008 -1.605145 1.480065 0.004474 0.052683
  15 -0.079162 8.273306 -13.071135 -1.564730 0.000269 0.000022
  16 -5.283370 -0.941654 -9.166863 -1.509614 1.178568 1.554057
  17 -0.000000 2.370680 0.000000 0.559185 -0.006380 0.000490
  18 0.000002 1.895272 0.000001 0.055329 -0.381180 -0.026941
  19 -0.000003 4.778709 -0.000003 0.659815 -0.401263 0.158513
  20 -0.000004 5.917948 -0.000008 0.520441 -0.314948 0.252230
  21 -0.000009 5.844548 -0.000000 1.004598 -0.308179 0.361677
  22 -0.000003 4.734668 -0.000002 0.395414 -0.061892 0.184975
  23 -0.000000 4.479239 -0.000004 -0.680292 0.557198 -1.525860
  24 -0.018879 10.174583 -5.360421 0.147615 0.034088 0.132856
  25 -0.000000 1.635712 -0.000000 0.483885 0.097432 -0.781698
  26 -0.000003 2.115244 -0.000002 0.403181 -0.274892 -1.045528
  27 0.000003 2.301962 -0.000001 0.939770 0.088121 -1.032636
  28 2.885959 1.661015 0.143900 -0.154582 0.087314 -3.031709
  29 -0.000228 11.517381 -0.000126 -0.147847 -0.000661 -0.018290
  30 -0.000280 12.734366 -0.000162 1.194135 0.011792 -0.036153
  31 -0.000019 5.021163 0.000029 0.727722 -0.032914 -0.036010
  32 -2.885959 1.661015 0.143900 0.694030 0.132026 2.995035
  33 -0.000058 11.517483 -0.000095 -0.863672 0.042902 0.094534
  34 0.000131 12.734395 -0.000067 1.037875 -0.006320 0.001640
  35 -0.000009 5.021157 0.000032 0.727722 0.032905 0.036009
  36 -11.500498 5.089325 -19.814512 0.000000 -0.000000 1.570796
  37 15.378815 4.642630 -6.432432 0.000000 0.000000 -1.570796
  38 0.525975 -5.089325 -19.276638 0.000000 -0.000000 1.570796
  39 15.378815 -4.642629 -6.432432 0.000000 0.000000 -1.570796
  40 -11.169025 12.663942 2.245692 0.000000 -0.000000 1.570796
  41 9.973319 -7.449266 11.676721 0.000000 -0.000000 1.570796
  42 -15.646546 13.430290 20.029579 0.000000 -0.000000 1.570796
  43 0.824940 -9.777820 5.932604 0.000000 -0.000000 1.570796
  time 6
  0 -0.760054 0.000000 1.268307 1.712833 -0.003874 1.602489
  1 -0.000001 7.787996 -0.000001 -0.024427 0.209705 -0.067167
  2 -0.000001 6.830342 -0.000001 -0.498130 -0.000000 0.000000
  3 0.000001 6.307690 -0.000000 0.990027 -0.000000 -0.000000
  4 -0.000000 2.062052 -0.000000 -0.304737 0.167348 -0.423801
  5 3.462711 0.878776 -2.964391 1.508386 0.052358 2.816472
  6 3.325126 6.635755 -0.656393 -0.347085 0.195901 -2.032772
  7 0.000000 6.186780 0.000000 0.335915 1.135977 -0.135751
  8 -0.000001 9.277204 0.000001 0.477565 -0.596334 -0.233262
  9 -0.000000 8.547141 -0.000001 0.251695 -0.128350 -0.215787
  10 -3.325125 6.635755 -0.656394 -0.115247 -0.348888 2.066765
  11 0.000002 6.186780 0.000001 0.402444 0.924566 0.744882
  12 -0.000000 9.277200 -0.000002 0.068822 -0.507340 1.666833
  13 -0.000003 8.547147 0.000000 -0.127797 -0.275291 0.395225
  14 0.242424 2.653008 -1.605145 1.480065 0.004474 0.052683
  15 -0.079158 8.273304 -13.071134 -1.564730 0.000269 0.000022
  16 -5.283370 -0.941654 -9.166862 -1.509614 1.178568 1.554057
  17 0.000000 2.370680 0.000001 0.559185 -0.006380 0.000490
  18 0.000001 1.895272 0.000000 0.156934 -0.447587 0.063383
  19 -0.000001 4.778711 -0.000003 0.775323 -0.466996 0.155377
  20 -0.000002 5.917943 -0.000006 0.556815 -0.356503 0.229962
  21 -0.000004 5.844541 -0.000001 0.955652 -0.320544 0.354732
  22 -0.000002 4.734663 -0.000002 0.366076 -0.056073 0.200834
  23 -0.000001 4.479241 -0.000003 -0.696009 0.573826 -1.501816
  24 -0.018879 10.174583 -5.360418 0.177074 0.023136 0.133925
  25 0.000000 1.635710 -0.000000 0.509929 0.110519 -0.796663
  26 -0.000000 2.115242 0.000000 0.404354 -0.262272 -1.075969
  27 0.000005 2.301961 -0.000000 0.835778 -0.157780 -1.062718
  28 2.885959 1.661015 0.143900 -0.302212 0.024187 -3.046882
  29 -0.000214 11.517391 -0.000122 -0.006322 0.000693 -0.000786
  30 -0.000277 12.734351 -0.000167 1.193440 0.013974 -0.042552
  31 -0.000020 5.021158 0.000032 0.727722 -0.032914 -0.036009
  32 -2.885959 1.661015 0.143901 0.594871 0.067272 2.995706
  33 -0.000055 11.517494 -0.000101 -0.805681 0.037550 0.089681
  34 0.000125 12.734399 -0.000074 1.087857 -0.009495 0.000866
  35 -0.000008 5.021157 0.000032 0.727722 0.032905 0.036009
  36 -11.500498 5.089325 -19.814512 0.000000 -0.000000 1.570796
  37 15.378815 4.642630 -6.432432 0.000000 0.000000 -1.570796
  38 0.476409 -5.089325 -19.276638 0.000000 -0.000000 1.570796
  39 15.378815 -4.642629 -6.432432 0.000000 0.000000 -1.570796
  40 -4.444121 16.692186 3.469625 0.000000 -0.000000 1.570796
  41 9.547365 -6.723560 11.676721 0.000000 -0.000000 1.570796
  42 -15.646546 19.685442 20.688450 0.000000 -0.000000 1.570796
  43 -7.992799 -6.755373 16.836342 0.000000 -0.000000 1.570796
  time 7
  0 0.365973 0.000000 1.466003 1.712894 -0.000000 1.570796
  1 0.000000 7.787998 -0.000001 -0.037120 0.116287 -0.016713
  2 -0.000001 6.830341 -0.000001 -0.498130 0.000000 0.000000
  3 0.000000 6.307691 -0.000000 0.990027 -0.000000 -0.000000
  4 -0.000001 2.062053 -0.000000 -0.392815 -0.051784 -0.234043
  5 3.462712 0.878777 -2.964390 1.508386 0.052358 2.816472
  6 3.325126 6.635756 -0.656393 -0.347085 0.195901 -2.032771
  7 0.000000 6.186780 -0.000000 0.981928 0.746688 0.213230
  8 0.000002 9.277202 -0.000002 1.553212 -0.148713 -0.526886
  9 -0.000000 8.547143 0.000001 0.251695 -0.128350 -0.215787
  10 -3.325126 6.635755 -0.656394 -0.115247 -0.348888 2.066765
  11 0.000002 6.186779 0.000001 0.301207 0.940799 0.893619
  12 0.000004 9.277197 0.000000 0.068416 -0.510270 1.715640
  13 -0.000003 8.547149 -0.000001 -0.231108 -0.287934 0.591015
  14 0.242424 2.653009 -1.605145 1.480065 0.004474 0.052683
  15 -0.079155 8.273304 -13.071137 -1.564730 0.000269 0.000022
  16 -5.283370 -0.941655 -9.166863 -1.509614 1.178568 1.554057
  17 0.000000 2.370679 0.000001 0.559185 -0.006380 0.000490
  18 0.000000 1.895273 0.000000 0.180676 -0.467295 0.093602
  19 -0.000003 4.778709 -0.000003 0.846622 -0.486933 0.138675
  20 -0.000003 5.917943 -0.000005 0.618956 -0.378290 0.200080
  21 -0.000002 5.844549 -0.000001 0.978648 -0.344089 0.335734
  22 -0.000002 4.734664 -0.000002 0.374384 -0.067737 0.207125
  23 0.000000 4.479243 -0.000004 -0.690998 0.582313 -1.488206
  24 -0.018879 10.174584 -5.360421 0.340302 0.011972 0.038824
  25 0.000000 1.635714 -0.000001 0.541671 0.092154 -0.808511
  26 -0.000003 2.115242 0.000000 0.359609 -0.374156 -0.978879
  27 0.000001 2.301962 0.000000 0.758453 -0.416362 -0.938420
  28 2.885960 1.661014 0.143899 0.257629 -0.009747 -2.987159
  29 0.000204 11.517513 -0.000104 -0.812892 -0.038181 -0.090306
  30 -0.000188 12.734426 -0.000073 1.269800 0.019033 0.001102
  31 -0.000021 5.021151 0.000025 0.727722 -0.032911 -0.036009
  32 -2.885959 1.661016 0.143902 0.530426 0.032870 2.998019
  33 -0.000051 11.517504 -0.000105 -0.764200 0.033899 0.086025
  34 0.000121 12.734401 -0.000080 1.115341 -0.012216 0.001138
  35 -0.000009 5.021161 0.000029 0.727722 0.032905 0.036009
  36 -6.085214 5.089325 -17.966743 0.167950 -0.000000 1.570796
  37 15.378815 4.642630 -6.432432 0.000000 0.000000 -1.570796
  38 0.458148 -5.089325 -19.276638 0.000000 -0.000000 1.570796
  39 15.378815 -4.642629 -6.432432 0.000000 0.000000 -1.570796
  40 8.260706 8.519958 12.195009 0.000000 -0.000000 1.570796
  41 8.845117 -6.419229 11.676721 0.000000 -0.000000 1.570796
  42 -15.646546 22.528687 20.987938 0.000000 -0.000000 1.570796
  43 -15.646544 -5.381538 21.792572 0.000000 -0.000000 1.570796
end
