version 1
nodes
0 "hips" -1
1 "spine" 0
2 "chest" 1
3 "neck" 2
4 "head" 3
5 "breathing_tube_5" 4
6 "Shoulder.L" 2
7 "arm_upper.L" 6
8 "arm_lower.L" 7
9 "hand.L" 8
10 "Shoulder.R" 2
11 "arm_upper.R" 10
12 "arm_lower.R" 11
13 "hand.R" 12
14 "weapon" 13
15 "muzzle_flash" 14
16 "weapon_cable_1" 2
17 "weapon_cable_2" 16
18 "weapon_cable_3" 17
19 "weapon_cable_4" 18
20 "weapon_cable_5" 19
21 "weapon_cable_6" 20
22 "weapon_cable_7" 21
23 "weapon_cable_8" 22
24 "breathing_tube_1" 2
25 "breathing_tube_2" 24
26 "breathing_tube_3" 25
27 "breathing_tube_4" 26
28 "leg_upper.L" 0
29 "leg_lower.L" 28
30 "foot.L" 29
31 "toes.L" 30
32 "leg_upper.R" 0
33 "leg_lower.R" 32
34 "foot.R" 33
35 "toes.R" 34
36 "leg_ik.L" -1
37 "leg_pull.L" -1
38 "leg_ik.R" -1
39 "leg_pull.R" -1
40 "hand_ik.L" -1
41 "hand_ik.R" -1
42 "hand_pull.L" -1
43 "hand_pull.R" -1
end
skeleton
  time 0
  0 0.365973 0.000000 0.629026 1.576944 -0.000000 1.570796
  1 0.000001 7.787996 -0.000000 -0.006477 -0.015742 0.023109
  2 -0.000000 6.830341 -0.000001 -0.368687 0.136463 -0.029647
  3 0.000001 6.307692 -0.000000 0.990027 -0.000000 -0.000000
  4 0.000000 2.062053 -0.000001 -0.440096 -0.093445 0.103899
  5 3.462711 0.878775 -2.964391 1.508386 0.052358 2.816472
  6 3.325127 6.635756 -0.656394 -0.115247 0.348888 -2.066766
  7 -0.000000 6.186779 0.000000 1.103779 0.721313 -0.261838
  8 -0.000001 9.277203 -0.000000 0.257220 -0.549567 -0.115617
  9 -0.000001 8.547149 -0.000002 0.405014 -0.117862 0.116715
  10 -3.325126 6.635758 -0.656393 -0.115247 -0.348888 2.066765
  11 -0.000002 6.186778 0.000001 0.668007 1.136998 1.673080
  12 0.000001 9.277199 -0.000003 0.054113 -0.463374 0.899300
  13 -0.000001 8.547143 0.000000 -0.594409 -0.691571 1.150848
  14 0.242423 2.653007 -1.605145 1.480065 0.004474 0.052683
  15 -0.079161 8.273296 -13.071127 -1.564730 0.000269 0.000023
  16 -5.283371 -0.941652 -9.166864 -1.509614 1.178568 1.554057
  17 0.000000 2.370679 0.000000 0.559185 -0.006380 0.000490
  18 0.000001 1.895271 0.000001 0.029300 -0.591197 0.232190
  19 -0.000004 4.778708 -0.000003 0.591679 -0.569280 0.163424
  20 -0.000006 5.917943 -0.000004 0.395959 -0.432120 0.100815
  21 -0.000005 5.844549 -0.000003 0.859390 -0.398762 0.174239
  22 -0.000004 4.734662 -0.000002 0.421088 -0.200196 0.156399
  23 -0.000004 4.479240 -0.000001 0.329735 0.673805 -0.748977
  24 -0.018879 10.174584 -5.360419 0.445455 -0.001440 -0.031041
  25 -0.000001 1.635712 -0.000000 0.537628 0.031374 -0.782468
  26 0.000001 2.115241 -0.000001 0.302923 -0.501287 -0.831844
  27 0.000002 2.301960 0.000002 0.771983 -0.536716 -0.794103
  28 2.885959 1.661012 0.143900 0.653258 0.063425 -3.009815
  29 0.000134 11.517483 -0.000107 -0.651751 -0.024785 -0.075401
  30 -0.000281 12.734385 -0.000086 0.754403 -0.089587 -0.008263
  31 -0.000020 5.021164 0.000030 0.727722 -0.032915 -0.036010
  32 -2.885959 1.661013 0.143901 -0.059062 -0.012070 3.037663
  33 0.000032 11.517337 -0.000122 -0.582524 0.019800 0.068348
  34 0.000118 12.734421 -0.000102 1.383886 -0.002047 -0.016388
  35 -0.000009 5.021165 0.000027 0.736262 0.038790 0.045104
  36 7.305844 4.373530 -19.591579 -0.001789 -0.000000 1.570796
  37 15.378815 3.067876 -6.432432 0.000000 0.000000 -1.570796
  38 -7.920305 -4.373529 -19.286877 0.005204 0.000000 1.570796
  39 15.378815 -4.294956 -6.432432 0.000000 0.000000 -1.570796
  40 9.480329 6.527462 6.218012 0.000000 -0.000000 1.570796
  41 8.604254 -6.244550 6.224156 0.000000 -0.000000 1.570796
  42 -15.646546 22.528687 18.921881 0.000000 -0.000000 1.570796
  43 -15.646544 5.047512 22.859306 0.000000 -0.000000 1.570796
  time 1
  0 0.365973 0.000000 0.335662 1.577701 -0.014297 1.412673
  1 0.000000 7.787997 -0.000001 -0.010285 -0.050926 0.023689
  2 0.000000 6.830341 -0.000001 -0.368687 0.136463 -0.029647
  3 0.000001 6.307691 -0.000001 0.990384 0.064990 0.025060
  4 0.000000 2.062052 0.000000 -0.436742 -0.041876 0.073825
  5 3.462712 0.878779 -2.964392 1.508386 0.052357 2.816472
  6 3.325128 6.635756 -0.656393 -0.087019 0.363477 -2.068562
  7 -0.000000 6.186781 0.000000 0.825006 0.581613 -0.499011
  8 -0.000004 9.277203 -0.000003 0.602115 -0.492200 -0.259763
  9 -0.000002 8.547143 -0.000001 0.387442 0.056079 0.103779
  10 -3.325125 6.635756 -0.656395 -0.115247 -0.348888 2.066765
  11 -0.000002 6.186781 0.000001 0.304325 1.074908 1.295516
  12 -0.000002 9.277200 -0.000001 0.062063 -0.474589 1.114652
  13 -0.000001 8.547151 0.000001 -0.241700 -0.816157 0.794885
  14 0.242424 2.653008 -1.605145 1.460485 0.005159 0.044124
  15 -0.079152 8.273305 -13.071133 -1.564730 0.000269 0.000022
  16 -5.283369 -0.941653 -9.166865 -1.509614 1.178568 1.554056
  17 0.000000 2.370680 0.000000 0.559185 -0.006380 0.000490
  18 0.000001 1.895272 0.000002 0.060065 -0.594801 0.229574
  19 -0.000003 4.778708 -0.000003 0.638631 -0.572455 0.151327
  20 -0.000003 5.917945 -0.000003 0.441507 -0.437425 0.084421
  21 -0.000005 5.844552 -0.000000 0.889216 -0.410986 0.159460
  22 -0.000003 4.734668 -0.000002 0.431182 -0.212380 0.158119
  23 -0.000002 4.479239 0.000003 0.337030 0.669809 -0.737675
  24 -0.018876 10.174582 -5.360421 0.307457 -0.026764 0.057051
  25 0.000001 1.635714 -0.000000 0.535505 0.041599 -0.785825
  26 -0.000001 2.115243 0.000001 0.380240 -0.402643 -0.959482
  27 0.000003 2.301962 0.000001 0.696648 -0.591990 -0.870397
  28 2.885959 1.661014 0.143900 0.665342 -0.097808 -3.019350
  29 0.000138 11.517478 -0.000121 -0.629271 -0.023096 -0.073139
  30 -0.000114 12.734286 0.000157 0.698997 -0.088143 -0.012500
  31 -0.000018 5.021163 0.000028 0.727722 -0.032914 -0.036010
  32 -2.885959 1.661014 0.143901 -0.021296 -0.167926 3.015509
  33 0.000019 11.517325 -0.000126 -0.645386 0.024305 0.074742
  34 0.000116 12.734427 -0.000099 1.427292 -0.003938 -0.020488
  35 -0.000008 5.021164 0.000028 0.736022 0.038626 0.044848
  36 8.765713 4.373530 -19.591579 -0.001789 -0.000000 1.570796
  37 15.378815 3.067990 -6.432432 0.000000 0.000000 -1.570796
  38 -8.586108 -4.373529 -19.286877 0.005204 0.000000 1.570796
  39 15.475668 -4.329322 -6.278946 0.000000 0.000000 -1.570796
  40 10.998188 4.686591 7.014150 0.000000 -0.000000 1.570796
  41 6.056137 -6.851272 6.274261 0.000000 -0.000000 1.570796
  42 -12.093776 21.571764 17.061634 0.000000 -0.000000 1.570796
  43 -15.646544 5.061433 22.642982 0.000000 -0.000000 1.570796
  time 2
  0 0.365973 -0.000000 -0.239675 1.578884 -0.012528 1.210768
  1 0.000000 7.787998 -0.000001 -0.012873 -0.123514 0.024535
  2 0.000000 6.830341 -0.000001 -0.368687 0.136463 -0.029647
  3 0.000001 6.307691 -0.000001 0.998141 0.221975 0.086860
  4 -0.000000 2.062053 -0.000001 -0.434947 0.081948 -0.000556
  5 3.462712 0.878775 -2.964392 1.508386 0.052357 2.816472
  6 3.325127 6.635755 -0.656393 -0.018940 0.398516 -2.071085
  7 0.000002 6.186783 0.000001 0.880934 0.433485 -0.686301
  8 -0.000002 9.277203 -0.000001 0.439824 -0.525213 -0.194369
  9 0.000001 8.547147 -0.000003 0.311670 0.174721 0.034664
  10 -3.325126 6.635756 -0.656395 -0.115247 -0.348888 2.066765
  11 0.000001 6.186779 0.000001 0.191644 0.933830 1.104267
  12 0.000001 9.277205 -0.000004 0.066013 -0.483396 1.269103
  13 0.000002 8.547152 0.000002 0.245969 -0.747510 0.198231
  14 0.242423 2.653009 -1.605147 1.413715 0.006116 0.023648
  15 -0.079156 8.273304 -13.071140 -1.564730 0.000269 0.000022
  16 -5.283370 -0.941655 -9.166864 -1.509614 1.178568 1.554056
  17 -0.000000 2.370680 0.000000 0.559185 -0.006380 0.000490
  18 0.000000 1.895272 0.000000 0.100507 -0.591411 0.218852
  19 0.000000 4.778707 -0.000003 0.666991 -0.565783 0.148224
  20 -0.000004 5.917943 -0.000003 0.456391 -0.429993 0.085450
  21 -0.000004 5.844547 -0.000001 0.893607 -0.403051 0.161369
  22 -0.000001 4.734666 -0.000003 0.430862 -0.208235 0.156658
  23 -0.000001 4.479241 -0.000002 0.331616 0.670601 -0.738572
  24 -0.018878 10.174580 -5.360421 0.041294 -0.075074 0.280813
  25 0.000001 1.635710 -0.000001 0.528633 0.024844 -0.775054
  26 0.000001 2.115241 -0.000001 0.483277 -0.231795 -1.220348
  27 0.000002 2.301961 0.000001 0.518076 -0.703055 -0.986611
  28 2.885959 1.661015 0.143899 0.708732 -0.314286 -2.999806
  29 0.000123 11.517461 -0.000115 -0.740985 -0.031891 -0.083907
  30 -0.000144 12.734273 0.000167 0.735543 -0.076974 -0.016826
  31 -0.000015 5.021161 0.000025 0.727722 -0.032914 -0.036011
  32 -2.885958 1.661015 0.143901 0.030251 -0.361961 2.992065
  33 0.000002 11.517323 -0.000124 -0.732431 0.031182 0.083108
  34 0.000160 12.734500 0.000060 1.493886 -0.015727 -0.022987
  35 -0.000008 5.021166 0.000029 0.735371 0.038182 0.044156
  36 9.515374 4.373530 -19.591579 -0.001789 -0.000000 1.570796
  37 15.378815 3.068787 -6.432432 0.000000 0.000000 -1.570796
  38 -9.556635 -4.373529 -19.286877 0.005204 0.000000 1.570796
  39 15.735235 -4.350856 -5.867602 0.000000 0.000000 -1.570796
  40 12.516047 -0.155210 7.384183 0.000000 -0.000000 1.570796
  41 3.508018 -7.457993 6.324366 0.000000 -0.000000 1.570796
  42 -3.621783 19.289867 13.671183 0.000000 -0.000000 1.570796
  43 -15.646544 5.066562 22.218985 0.000000 -0.000000 1.570796
  time 3
  0 0.365973 0.000000 -0.639846 1.578053 -0.004538 1.037935
  1 -0.000000 7.787996 -0.000001 -0.015124 -0.253732 0.025989
  2 -0.000000 6.830343 -0.000000 -0.368687 0.136463 -0.029647
  3 0.000000 6.307691 -0.000001 1.021947 0.409779 0.167398
  4 -0.000000 2.062053 -0.000000 -0.445229 0.227969 -0.096417
  5 3.462711 0.878777 -2.964391 1.508386 0.052358 2.816471
  6 3.325126 6.635755 -0.656393 0.063745 0.440500 -2.070689
  7 -0.000001 6.186780 0.000002 0.716165 0.393171 -0.638209
  8 0.000001 9.277203 -0.000003 0.742183 -0.456195 -0.311897
  9 0.000000 8.547144 0.000000 0.176921 0.212528 -0.018466
  10 -3.325125 6.635756 -0.656395 -0.115247 -0.348888 2.066765
  11 -0.000002 6.186779 0.000001 0.255268 0.746054 0.973523
  12 -0.000001 9.277198 -0.000001 0.067422 -0.488034 1.347538
  13 0.000003 8.547148 0.000001 0.413814 -0.610414 -0.033036
  14 0.242424 2.653007 -1.605147 1.357838 0.006003 -0.000836
  15 -0.079161 8.273309 -13.071129 -1.564729 0.000269 0.000023
  16 -5.283368 -0.941653 -9.166863 -1.509614 1.178568 1.554056
  17 -0.000000 2.370680 -0.000000 0.559185 -0.006380 0.000490
  18 0.000001 1.895271 0.000000 0.118174 -0.584078 0.206316
  19 -0.000003 4.778708 -0.000002 0.674864 -0.557849 0.146744
  20 -0.000001 5.917943 0.000000 0.461734 -0.423392 0.088259
  21 -0.000001 5.844550 -0.000000 0.900258 -0.396649 0.163276
  22 -0.000001 4.734661 -0.000001 0.435316 -0.205367 0.153255
  23 0.000001 4.479237 -0.000001 0.325768 0.672906 -0.744566
  24 -0.018878 10.174584 -5.360419 -0.213390 -0.152394 0.530578
  25 -0.000000 1.635713 -0.000001 0.516696 -0.097021 -0.735355
  26 -0.000002 2.115243 -0.000002 0.575131 -0.147715 -1.490444
  27 -0.000001 2.301962 -0.000001 0.162754 -0.970463 -0.949863
  28 2.885958 1.661013 0.143899 0.718279 -0.503431 -2.966960
  29 0.000104 11.517459 -0.000112 -0.832649 -0.039990 -0.091983
  30 -0.000213 12.734433 -0.000029 0.779226 -0.060686 -0.020939
  31 -0.000012 5.021161 0.000022 0.727721 -0.032913 -0.036011
  32 -2.885958 1.661015 0.143902 0.061228 -0.523044 2.967228
  33 -0.000010 11.517340 -0.000114 -0.766961 0.034112 0.086258
  34 0.000142 12.734503 0.000057 1.533142 -0.034122 -0.021620
  35 -0.000008 5.021169 0.000027 0.734412 0.037526 0.043135
  36 9.791566 4.373530 -19.591579 -0.001789 -0.000000 1.570796
  37 15.378815 3.070951 -6.432432 0.000000 0.000000 -1.570796
  38 -10.432117 -4.373529 -19.286877 0.005204 0.000000 1.570796
  39 16.111027 -4.364504 -5.272076 0.000000 0.000000 -1.570796
  40 12.089412 -3.496547 7.163262 0.000000 -0.000000 1.570796
  41 0.959900 -8.064714 6.374471 0.000000 -0.000000 1.570796
  42 6.489947 16.566311 8.928995 0.000000 -0.000000 1.570796
  43 -15.646544 5.067297 21.924782 0.000000 -0.000000 1.570796
  time 4
  0 0.365973 0.000000 -0.693249 1.576944 -0.000000 0.965250
  1 -0.000001 7.787996 -0.000001 -0.018276 -0.461427 0.028756
  2 -0.000001 6.830342 0.000000 -0.368687 0.136463 -0.029647
  3 -0.000000 6.307691 -0.000001 1.057057 0.563869 0.244561
  4 0.000000 2.062052 0.000000 -0.465817 0.343606 -0.190144
  5 3.462712 0.878776 -2.964391 1.508386 0.052358 2.816472
  6 3.325126 6.635755 -0.656393 0.134236 0.475490 -2.067357
  7 0.000000 6.186783 0.000001 0.494403 0.152143 -0.470957
  8 -0.000002 9.277202 -0.000002 1.099892 -0.329501 -0.417254
  9 -0.000000 8.547145 0.000001 0.041142 0.020684 0.004301
  10 -3.325127 6.635756 -0.656395 -0.115247 -0.348888 2.066765
  11 -0.000001 6.186779 0.000001 0.627370 0.578858 1.403251
  12 -0.000000 9.277204 -0.000001 0.059124 -0.469803 1.026129
  13 -0.000002 8.547146 0.000000 0.313694 -0.546341 0.313386
  14 0.242424 2.653008 -1.605147 1.311072 0.004856 -0.021302
  15 -0.079151 8.273308 -13.071138 -1.564730 0.000268 0.000022
  16 -5.283369 -0.941654 -9.166864 -1.509614 1.178568 1.554056
  17 0.000000 2.370680 -0.000000 0.559185 -0.006380 0.000490
  18 0.000000 1.895272 0.000001 0.252072 -0.674032 0.321693
  19 -0.000002 4.778708 -0.000001 0.769437 -0.602408 0.173825
  20 -0.000001 5.917944 -0.000002 0.393313 -0.418799 0.109614
  21 -0.000005 5.844553 -0.000002 0.704424 -0.347322 0.212655
  22 0.000001 4.734669 -0.000003 0.288764 -0.136882 0.187781
  23 -0.000003 4.479239 0.000003 0.204437 0.683052 -0.770539
  24 -0.018880 10.174583 -5.360422 -0.344447 -0.271282 0.678202
  25 0.000001 1.635714 -0.000001 0.516573 -0.266205 -0.714753
  26 -0.000002 2.115243 -0.000001 0.680044 -0.224353 -1.636760
  27 0.000001 2.301958 -0.000002 -0.680860 -1.216196 -0.284327
  28 2.885959 1.661011 0.143899 0.703609 -0.582643 -2.948879
  29 0.000096 11.517461 -0.000109 -0.852081 -0.041797 -0.093595
  30 -0.000194 12.734447 -0.000020 0.792940 -0.052397 -0.022917
  31 -0.000013 5.021159 0.000025 0.727721 -0.032913 -0.036011
  32 -2.885959 1.661011 0.143901 0.063980 -0.587703 2.955321
  33 -0.000011 11.517344 -0.000111 -0.754271 0.033023 0.085112
  34 0.000133 12.734507 0.000056 1.535428 -0.045537 -0.019623
  35 -0.000007 5.021171 0.000028 0.733249 0.036728 0.041896
  36 9.831022 4.373530 -19.591579 -0.001789 -0.000000 1.570796
  37 15.378815 3.075166 -6.432432 0.000000 0.000000 -1.570796
  38 -10.812782 -4.373529 -19.286877 0.005204 0.000000 1.570796
  39 16.556551 -4.375211 -4.566038 0.000000 0.000000 -1.570796
  40 14.185661 -5.194904 9.305603 0.000000 -0.000000 1.570796
  41 2.289237 -8.697853 7.484744 0.000000 -0.000000 1.570796
  42 14.961942 14.284415 5.161066 0.000000 -0.000000 1.570796
  43 -15.646544 5.067297 21.676855 0.000000 -0.000000 1.570796
  time 5
  0 0.365973 0.000000 -0.610606 1.576944 -0.000000 0.965250
  1 -0.000001 7.787996 -0.000001 -0.025233 -0.651100 0.033616
  2 -0.000001 6.830342 0.000000 -0.368687 0.136463 -0.029647
  3 -0.000001 6.307691 0.000000 1.076900 0.626752 0.280743
  4 -0.000000 2.062052 0.000000 -0.479090 0.380940 -0.251615
  5 3.462711 0.878777 -2.964390 1.508386 0.052358 2.816472
  6 3.325125 6.635754 -0.656393 0.164129 0.490041 -2.065119
  7 0.000001 6.186781 -0.000000 0.196227 0.090025 -0.429228
  8 -0.000006 9.277204 0.000000 1.369436 -0.207348 -0.463131
  9 -0.000003 8.547144 -0.000002 0.010660 0.028670 0.207234
  10 -3.325127 6.635754 -0.656395 -0.115247 -0.348888 2.066765
  11 0.000001 6.186779 0.000000 0.803822 0.181924 1.276058
  12 0.000000 9.277201 -0.000003 0.053312 -0.462489 0.880894
  13 0.000000 8.547146 -0.000000 0.482049 -0.296003 0.275989
  14 0.242425 2.653008 -1.605145 1.291495 0.004092 -0.029855
  15 -0.058558 8.683039 -24.920742 -1.564730 0.000269 0.000022
  16 -5.283369 -0.941655 -9.166862 -1.509614 1.178568 1.554056
  17 -0.000000 2.370680 -0.000000 0.559185 -0.006380 0.000490
  18 -0.000001 1.895272 0.000000 0.303181 -0.723048 0.377426
  19 -0.000001 4.778707 -0.000001 0.828943 -0.623965 0.174189
  20 -0.000001 5.917940 -0.000002 0.384151 -0.420176 0.103469
  21 -0.000003 5.844551 -0.000003 0.637700 -0.334082 0.218884
  22 0.000001 4.734666 -0.000001 0.234200 -0.114808 0.199017
  23 0.000001 4.479239 0.000002 0.142747 0.687905 -0.786273
  24 -0.018880 10.174582 -5.360420 -0.342858 -0.365426 0.718558
  25 0.000001 1.635714 0.000000 0.539488 -0.358203 -0.718396
  26 -0.000001 2.115242 -0.000001 0.743597 -0.322981 -1.660050
  27 -0.000002 2.301960 -0.000001 -1.485282 -1.146301 0.472270
  28 2.885959 1.661012 0.143899 0.694850 -0.582090 -2.950242
  29 0.000093 11.517462 -0.000108 -0.838102 -0.040494 -0.092438
  30 -0.000199 12.734443 -0.000023 0.788384 -0.052337 -0.022974
  31 -0.000013 5.021159 0.000025 0.727722 -0.032913 -0.036011
  32 -2.885959 1.661013 0.143901 0.056371 -0.584409 2.955727
  33 -0.000010 11.517344 -0.000114 -0.737736 0.031626 0.083599
  34 0.000135 12.734509 0.000055 1.525973 -0.048662 -0.019713
  35 -0.000008 5.021170 0.000028 0.731984 0.035858 0.040550
  36 9.812708 4.374425 -19.591549 -0.001787 -0.000000 1.570796
  37 15.378815 3.082115 -6.432432 0.000000 0.000000 -1.570796
  38 -10.812782 -4.373529 -19.286877 0.005204 0.000000 1.570796
  39 17.025322 -4.387925 -3.823164 0.000000 0.000000 -1.570796
  40 14.211843 -5.382362 9.462477 0.000000 -0.000000 1.570796
  41 2.343628 -8.844246 8.393868 0.000000 -0.000000 1.570796
  42 18.514713 13.327493 5.189479 0.000000 -0.000000 1.570796
  43 -15.646544 22.981876 -1.607139 0.000000 -0.000000 1.570796
  time 6
  0 0.365973 0.000000 -2.348389 1.508991 -0.046974 0.966847
  1 0.000000 7.787997 -0.000002 -0.081073 -0.553387 0.092095
  2 -0.000001 6.830341 -0.000000 -0.418202 0.138219 0.077086
  3 -0.000000 6.307690 -0.000001 1.076531 0.625683 0.280099
  4 0.000000 2.062053 -0.000000 -0.195218 0.303604 -0.185423
  5 3.462711 0.878776 -2.964390 1.508386 0.052358 2.816472
  6 3.325126 6.635756 -0.656393 0.163626 0.489792 -2.065130
  7 0.000003 6.186780 0.000000 0.197550 0.468573 -0.788357
  8 -0.000004 9.277203 -0.000002 1.542039 -0.121937 -0.475291
  9 -0.000001 8.547146 -0.000000 0.001957 0.430606 0.217468
  10 -3.325127 6.635756 -0.656394 -0.115247 -0.348888 2.066765
  11 -0.000001 6.186781 -0.000001 0.324109 0.659750 0.352951
  12 0.000002 9.277205 -0.000001 0.068109 -0.511945 1.743722
  13 0.000000 8.547149 -0.000004 0.503730 -0.292323 0.204055
  14 0.242424 2.653009 -1.605146 1.291831 0.004106 -0.029709
  15 -0.079166 8.273300 -13.071123 -1.564730 0.000270 0.000022
  16 -5.283370 -0.941656 -9.166862 -1.509614 1.178567 1.554057
  17 -0.000001 2.370680 0.000000 0.559185 -0.006380 0.000490
  18 -0.000001 1.895272 0.000000 0.186880 -0.494242 0.100235
  19 0.000000 4.778705 -0.000001 0.684252 -0.474902 0.137865
  20 0.000001 5.917938 -0.000003 0.493011 -0.361099 0.108142
  21 -0.000003 5.844542 -0.000002 0.977739 -0.345530 0.169743
  22 0.000003 4.734664 0.000001 0.492774 -0.189095 0.114716
  23 -0.000002 4.479235 -0.000002 0.280335 0.692378 -0.806190
  24 -0.018879 10.174583 -5.360419 -0.207193 -0.302112 0.588456
  25 0.000000 1.635712 -0.000000 0.504696 -0.278408 -0.658904
  26 -0.000001 2.115243 -0.000001 0.643153 -0.363702 -1.406919
  27 -0.000001 2.301960 -0.000000 -0.969839 -1.228983 -0.142412
  28 2.885958 1.661014 0.143901 0.766569 -0.591264 -2.930094
  29 0.000078 11.517444 -0.000094 -1.095782 -0.066857 -0.110643
  30 -0.000140 12.734450 0.000020 0.881697 -0.040296 -0.017260
  31 -0.000017 5.021153 0.000029 0.727722 -0.032914 -0.036011
  32 -2.885959 1.661015 0.143900 -0.027406 -0.586547 2.916322
  33 -0.000020 11.517345 -0.000113 -0.899925 0.046367 0.097395
  34 0.000129 12.734504 0.000065 1.711714 -0.075236 -0.039573
  35 -0.000007 5.021170 0.000027 0.730721 0.034986 0.039205
  36 9.684509 4.380688 -19.591322 -0.001771 -0.000000 1.570796
  37 15.378815 3.092481 -6.432432 0.000000 0.000000 -1.570796
  38 -12.706701 -4.373529 -19.286877 0.005204 0.000000 1.570796
  39 17.470848 -4.407589 -3.117127 0.000000 0.000000 -1.570796
  40 7.090199 -4.504470 8.521853 0.000000 -0.000000 1.570796
  41 -5.573304 -9.250086 5.764158 0.000000 -0.000000 1.570796
  42 18.514713 13.327493 1.883790 0.000000 -0.000000 1.570796
  43 -15.646544 20.182720 -1.382344 0.000000 -0.000000 1.570796
  time 7
  0 0.365973 0.000000 -2.290149 1.528122 -0.040073 0.965382
  1 0.000000 7.787996 -0.000001 -0.122755 -0.453082 0.140125
  2 -0.000001 6.830342 -0.000001 -0.433546 0.122370 0.083880
  3 0.000001 6.307690 -0.000001 1.073971 0.618189 0.275611
  4 0.000000 2.062054 -0.000001 -0.187825 0.248716 -0.166120
  5 3.462712 0.878776 -2.964391 1.508387 0.052358 2.816472
  6 3.325127 6.635754 -0.656395 0.160044 0.488046 -2.065372
  7 -0.000002 6.186779 0.000001 0.156190 0.295503 -0.797853
  8 -0.000002 9.277205 0.000001 1.528511 -0.130263 -0.477915
  9 -0.000003 8.547139 -0.000002 0.010208 0.225602 0.151574
  10 -3.325125 6.635756 -0.656394 -0.115247 -0.348888 2.066765
  11 -0.000001 6.186781 0.000001 0.394050 0.675282 0.634053
  12 0.000001 9.277201 -0.000000 0.069140 -0.501849 1.576111
  13 -0.000000 8.547149 0.000000 0.482663 -0.343006 0.303833
  14 0.242423 2.653007 -1.605147 1.294183 0.004207 -0.028681
  15 -0.079155 8.273297 -13.071130 -1.564730 0.000269 0.000022
  16 -5.283370 -0.941654 -9.166862 -1.509614 1.178567 1.554056
  17 -0.000001 2.370681 0.000000 0.559185 -0.006380 0.000490
  18 -0.000000 1.895272 0.000000 0.198122 -0.533130 0.141938
  19 0.000001 4.778709 -0.000003 0.709497 -0.508936 0.143008
  20 0.000000 5.917942 -0.000001 0.483431 -0.382175 0.110863
  21 -0.000002 5.844547 0.000000 0.928648 -0.355120 0.184316
  22 0.000000 4.734663 -0.000002 0.449174 -0.178488 0.135501
  23 0.000003 4.479239 -0.000001 0.202100 0.701330 -0.845254
  24 -0.018877 10.174582 -5.360420 -0.178273 -0.268179 0.546746
  25 0.000001 1.635712 -0.000001 0.497433 -0.240824 -0.662492
  26 0.000001 2.115245 -0.000001 0.617035 -0.348964 -1.374017
  27 0.000002 2.301960 -0.000001 -0.650879 -1.220553 -0.476529
  28 2.885959 1.661013 0.143900 0.778069 -0.596620 -2.933526
  29 0.000076 11.517442 -0.000089 -1.111675 -0.068626 -0.111537
  30 -0.000138 12.734449 0.000020 0.907103 -0.037957 -0.017111
  31 -0.000018 5.021156 0.000028 0.727722 -0.032914 -0.036010
  32 -2.885959 1.661013 0.143900 -0.005646 -0.579349 2.910212
  33 -0.000020 11.517347 -0.000115 -0.891790 0.045576 0.096761
  34 0.000131 12.734504 0.000067 1.704393 -0.078478 -0.040836
  35 -0.000007 5.021169 0.000026 0.729561 0.034184 0.037970
  36 9.336542 4.397688 -19.590706 -0.001729 -0.000000 1.570796
  37 15.378815 3.106948 -6.432432 0.000000 0.000000 -1.570796
  38 -12.636556 -4.373529 -19.286877 0.005204 0.000000 1.570796
  39 17.846638 -4.439150 -2.521601 0.000000 0.000000 -1.570796
  40 9.223306 -3.734764 9.614898 0.000000 -0.000000 1.570796
  41 -2.839569 -9.655926 5.549006 0.000000 -0.000000 1.570796
  42 18.514713 13.327493 -0.558747 0.000000 -0.000000 1.570796
  43 -15.646544 18.223312 2.965198 0.000000 -0.000000 1.570796
  time 8
  0 0.365973 0.000000 -1.882463 1.562377 -0.022663 0.963720
  1 0.000000 7.787996 -0.000002 -0.072925 -0.458002 0.094258
  2 -0.000000 6.830342 -0.000001 -0.434923 0.120030 0.082177
  3 -0.000000 6.307691 -0.000000 1.067279 0.597753 0.263635
  4 -0.000000 2.062052 -0.000000 -0.185685 0.226651 -0.158451
  5 3.462712 0.878776 -2.964391 1.508386 0.052358 2.816472
  6 3.325126 6.635756 -0.656393 0.150282 0.483304 -2.066124
  7 0.000000 6.186779 0.000002 0.114029 0.280938 -0.771795
  8 -0.000002 9.277204 0.000001 1.342495 -0.226763 -0.468703
  9 -0.000003 8.547144 -0.000002 0.040283 -0.016692 0.066990
  10 -3.325127 6.635755 -0.656394 -0.115247 -0.348888 2.066765
  11 0.000000 6.186779 0.000000 0.530738 0.637402 1.010466
  12 -0.000004 9.277197 -0.000003 0.064478 -0.479490 1.201688
  13 0.000001 8.547149 -0.000001 0.417222 -0.406431 0.505091
  14 0.242424 2.653008 -1.605146 1.300569 0.004467 -0.025893
  15 -0.079158 8.273300 -13.071130 -1.564730 0.000269 0.000023
  16 -5.283370 -0.941655 -9.166864 -1.509614 1.178567 1.554056
  17 -0.000001 2.370680 0.000001 0.559185 -0.006380 0.000490
  18 -0.000000 1.895273 0.000001 0.162974 -0.587863 0.215915
  19 -0.000001 4.778708 -0.000002 0.707713 -0.557884 0.157205
  20 -0.000003 5.917942 -0.000001 0.445895 -0.411364 0.118103
  21 -0.000002 5.844553 -0.000002 0.849904 -0.365847 0.206989
  22 -0.000001 4.734668 -0.000001 0.388459 -0.159741 0.161788
  23 0.000001 4.479241 -0.000001 0.093796 0.710933 -0.904253
  24 -0.018881 10.174587 -5.360418 -0.187581 -0.262089 0.565850
  25 0.000000 1.635712 0.000000 0.508594 -0.225485 -0.672727
  26 -0.000001 2.115243 -0.000001 0.613006 -0.322162 -1.406961
  27 0.000001 2.301960 -0.000002 -0.699324 -1.216209 -0.347965
  28 2.885959 1.661013 0.143900 0.771745 -0.599967 -2.939044
  29 0.000079 11.517445 -0.000090 -1.098684 -0.067179 -0.110809
  30 -0.000143 12.734445 0.000014 0.940918 -0.036820 -0.018097
  31 -0.000017 5.021152 0.000029 0.727722 -0.032914 -0.036011
  32 -2.885959 1.661013 0.143900 0.040706 -0.570953 2.912870
  33 -0.000020 11.517349 -0.000115 -0.859520 0.042488 0.094183
  34 0.000135 12.734504 0.000066 1.661751 -0.075922 -0.038238
  35 -0.000007 5.021169 0.000026 0.728608 0.033520 0.036952
  36 8.658920 4.430794 -19.589508 -0.001646 -0.000000 1.570796
  37 15.378815 3.126200 -6.432432 0.000000 0.000000 -1.570796
  38 -12.145540 -4.373529 -19.286877 0.005204 0.000000 1.570796
  39 18.106205 -4.487555 -2.110256 0.000000 0.000000 -1.570796
  40 11.356412 -2.965057 7.496354 0.000000 -0.000000 1.570796
  41 -0.105834 -10.061764 5.333853 0.000000 -0.000000 1.570796
  42 18.514713 13.327493 -1.458629 0.000000 -0.000000 1.570796
  43 -15.646544 15.004287 11.062997 0.000000 -0.000000 1.570796
  time 9
  0 0.365973 0.000000 -0.775890 1.576944 -0.000000 0.965250
  1 -0.000001 7.787996 -0.000001 -0.018276 -0.461427 0.028756
  2 -0.000001 6.830342 0.000000 -0.450788 0.101314 0.083454
  3 -0.000000 6.307691 0.000000 1.055271 0.557574 0.241117
  4 0.000000 2.062053 -0.000000 -0.177120 0.124528 -0.124274
  5 3.462713 0.878774 -2.964390 1.508386 0.052358 2.816472
  6 3.325126 6.635756 -0.656393 0.131285 0.474044 -2.067551
  7 0.000000 6.186781 0.000000 0.108811 0.247778 -0.729726
  8 -0.000004 9.277204 -0.000000 1.083836 -0.351108 -0.426603
  9 -0.000003 8.547146 -0.000002 0.074744 -0.040386 0.019500
  10 -3.325127 6.635756 -0.656394 -0.115247 -0.348888 2.066765
  11 0.000000 6.186780 -0.000000 0.629913 0.262309 1.239007
  12 -0.000000 9.277201 -0.000001 0.040840 -0.451925 0.632285
  13 -0.000001 8.547143 0.000001 0.329085 -0.419304 0.629658
  14 0.242423 2.653007 -1.605146 1.313014 0.004923 -0.020455
  15 -0.079168 8.273288 -13.071126 -1.564730 0.000269 0.000023
  16 -5.283370 -0.941653 -9.166864 -1.509614 1.178567 1.554056
  17 -0.000001 2.370680 0.000000 0.559185 -0.006380 0.000490
  18 -0.000001 1.895273 0.000001 -0.003017 -0.633863 0.319924
  19 -0.000003 4.778708 -0.000004 0.686628 -0.625460 0.152115
  20 -0.000003 5.917945 0.000001 0.462729 -0.476184 0.081310
  21 -0.000002 5.844552 0.000000 0.839876 -0.435431 0.192444
  22 0.000001 4.734666 -0.000005 0.365689 -0.179947 0.194386
  23 -0.000003 4.479240 0.000001 -0.001668 0.714269 -0.961832
  24 -0.018879 10.174585 -5.360420 -0.130336 -0.256367 0.539813
  25 -0.000001 1.635713 -0.000002 0.539870 -0.183331 -0.699854
  26 -0.000000 2.115244 -0.000001 0.587452 -0.310018 -1.406093
  27 0.000001 2.301958 -0.000002 -0.790401 -1.165690 -0.139914
  28 2.885959 1.661012 0.143899 0.671298 -0.584805 -2.936645
  29 0.000093 11.517462 -0.000097 -0.991202 -0.055597 -0.104077
  30 -0.000160 12.734449 -0.000003 0.957711 -0.041691 -0.021501
  31 -0.000013 5.021159 0.000024 0.727722 -0.032913 -0.036011
  32 -2.885959 1.661012 0.143901 0.075518 -0.567288 2.945155
  33 -0.000013 11.517343 -0.000117 -0.770456 0.034416 0.086571
  34 0.000139 12.734508 0.000060 1.544176 -0.065876 -0.028393
  35 -0.000008 5.021170 0.000027 0.727961 0.033071 0.036263
  36 7.541761 4.485373 -19.587532 -0.001510 -0.000000 1.570796
  37 15.378815 3.150919 -6.432432 0.000000 0.000000 -1.570796
  38 -10.812782 -4.373529 -19.286877 0.005204 0.000000 1.570796
  39 18.203058 -4.557747 -1.956771 0.000000 0.000000 -1.570796
  40 13.489519 -1.795652 6.120955 0.000000 -0.000000 1.570796
  41 2.627902 -9.057404 5.118700 0.000000 -0.000000 1.570796
  42 18.514713 13.327493 -1.587184 0.000000 -0.000000 1.570796
  43 -15.646544 5.067297 17.516964 0.000000 -0.000000 1.570796
end
