version 1
nodes
0 "hips" -1
1 "spine" 0
2 "chest" 1
3 "neck" 2
4 "head" 3
5 "breathing_tube_5" 4
6 "Shoulder.L" 2
7 "arm_upper.L" 6
8 "arm_lower.L" 7
9 "hand.L" 8
10 "Shoulder.R" 2
11 "arm_upper.R" 10
12 "arm_lower.R" 11
13 "hand.R" 12
14 "weapon" 13
15 "muzzle_flash" 14
16 "weapon_cable_1" 2
17 "weapon_cable_2" 16
18 "weapon_cable_3" 17
19 "weapon_cable_4" 18
20 "weapon_cable_5" 19
21 "weapon_cable_6" 20
22 "weapon_cable_7" 21
23 "weapon_cable_8" 22
24 "breathing_tube_1" 2
25 "breathing_tube_2" 24
26 "breathing_tube_3" 25
27 "breathing_tube_4" 26
28 "leg_upper.L" 0
29 "leg_lower.L" 28
30 "foot.L" 29
31 "toes.L" 30
32 "leg_upper.R" 0
33 "leg_lower.R" 32
34 "foot.R" 33
35 "toes.R" 34
36 "leg_ik.L" -1
37 "leg_pull.L" -1
38 "leg_ik.R" -1
39 "leg_pull.R" -1
40 "hand_ik.L" -1
41 "hand_ik.R" -1
42 "hand_pull.L" -1
43 "hand_pull.R" -1
end
skeleton
  time 0
  0 0.365973 0.000000 0.607141 1.458680 -0.000000 1.570796
  1 0.000002 7.787995 -0.000002 -0.187077 -0.000000 -0.000000
  2 0.000000 6.830342 -0.000000 -0.498130 0.000000 -0.000000
  3 0.000000 6.307692 0.000000 0.990027 -0.000000 -0.000000
  4 0.000000 2.062054 -0.000001 -0.437826 -0.087075 0.059482
  5 3.462712 0.878776 -2.964389 1.508386 0.052358 2.816472
  6 3.325127 6.635756 -0.656392 -0.115247 0.348888 -2.066765
  7 0.000001 6.186780 0.000001 0.336869 0.981161 -0.322487
  8 -0.000002 9.277205 0.000001 1.112089 -0.384099 -0.467810
  9 -0.000000 8.547142 0.000002 0.295981 -0.088111 -0.220474
  10 -3.325126 6.635757 -0.656393 -0.115247 -0.348888 2.066765
  11 -0.000001 6.186779 0.000002 0.878447 -0.170704 0.794293
  12 -0.000007 9.277203 -0.000003 0.042223 -0.452859 0.657287
  13 0.000001 8.547151 -0.000001 0.148302 0.120700 0.340001
  14 0.242425 2.653008 -1.605145 1.480065 0.004474 0.052683
  15 -0.079154 8.273307 -13.071136 -1.564730 0.000269 0.000022
  16 -5.283370 -0.941653 -9.166864 -1.509614 1.178568 1.554056
  17 -0.000000 2.370680 0.000000 0.559185 -0.006380 0.000490
  18 -0.000000 1.895271 0.000001 -0.064066 -0.551046 0.216938
  19 -0.000002 4.778708 -0.000003 0.714865 -0.589715 0.152262
  20 -0.000002 5.917940 -0.000004 0.508179 -0.459691 0.201897
  21 -0.000002 5.844546 -0.000003 0.867030 -0.389662 0.363050
  22 -0.000003 4.734665 -0.000003 0.315845 -0.050221 0.234167
  23 0.000000 4.479243 -0.000001 -0.725836 0.565974 -1.512102
  24 -0.018878 10.174587 -5.360418 0.426420 -0.032618 -0.041048
  25 0.000001 1.635713 0.000000 0.532850 -0.017636 -0.760695
  26 -0.000002 2.115242 0.000002 0.311827 -0.532696 -0.760054
  27 -0.000001 2.301960 -0.000000 0.401096 -0.467019 -0.786511
  28 2.885958 1.661014 0.143901 0.412674 -0.003839 -2.978696
  29 0.000134 11.517478 -0.000093 -0.949908 -0.051350 -0.101168
  30 -0.000204 12.734418 -0.000043 1.167675 0.014212 0.007106
  31 -0.000019 5.021158 0.000031 0.727722 -0.032914 -0.036009
  32 -2.885957 1.661015 0.143900 0.289254 -0.006985 2.979050
  33 -0.000041 11.517507 -0.000104 -0.934005 0.049758 0.099995
  34 0.000142 12.734424 -0.000049 1.275594 -0.016626 -0.007433
  35 -0.000009 5.021157 0.000031 0.727722 0.032905 0.036009
  36 0.804008 5.089325 -19.133162 0.000000 -0.000000 1.570796
  37 15.378815 4.642630 -6.432432 0.000000 0.000000 -1.570796
  38 -1.684173 -5.089325 -19.133162 0.000000 -0.000000 1.570796
  39 15.378815 -4.642629 -6.432432 0.000000 0.000000 -1.570796
  40 6.049639 9.732023 6.987632 0.000000 -0.000000 1.570796
  41 8.777196 -4.183107 10.740318 0.000000 -0.000000 1.570796
  42 -15.646546 22.528687 18.899994 0.000000 -0.000000 1.570796
  43 -15.646544 -12.176661 18.899994 0.000000 -0.000000 1.570796
  time 1
  0 0.365973 0.000000 -0.360027 1.523528 -0.000000 1.570796
  1 0.000001 7.787996 -0.000002 -0.003520 -0.002419 -0.002327
  2 0.000001 6.830342 -0.000001 -0.363570 -0.000750 -0.003091
  3 0.000000 6.307691 0.000000 0.990027 -0.000001 -0.000000
  4 0.000000 2.062053 -0.000001 -1.205240 -0.022490 0.109049
  5 3.462711 0.878775 -2.964390 1.508386 0.052358 2.816472
  6 3.325126 6.635755 -0.656393 -0.022382 0.394361 -2.036800
  7 0.000003 6.186779 0.000001 0.284680 0.459524 -0.205549
  8 -0.000003 9.277201 0.000001 0.746044 -0.527920 -0.348355
  9 0.000001 8.547144 -0.000005 0.286391 -0.122417 0.029486
  10 -3.325126 6.635755 -0.656393 -0.064931 -0.374797 2.081206
  11 0.000000 6.186780 0.000001 0.887443 -0.160952 1.044702
  12 -0.000002 9.277205 -0.000003 0.000382 -0.439871 0.005523
  13 -0.000003 8.547147 0.000001 -0.039756 0.152962 -0.297051
  14 0.242422 2.653008 -1.605146 1.482182 -0.027736 0.019858
  15 -0.079161 8.273302 -13.071135 -1.564730 0.000269 0.000023
  16 -5.283370 -0.941655 -9.166863 -1.509613 1.178568 1.554057
  17 0.000000 2.370681 0.000000 0.559185 -0.006380 0.000490
  18 -0.000001 1.895272 0.000001 0.080312 -0.544036 0.249755
  19 -0.000001 4.778707 -0.000002 0.646106 -0.539598 0.226140
  20 -0.000002 5.917948 -0.000002 0.317577 -0.347813 0.259768
  21 -0.000002 5.844553 -0.000004 0.687679 -0.233889 0.374016
  22 -0.000002 4.734664 -0.000001 0.221893 0.012613 0.185938
  23 -0.000002 4.479241 0.000001 -0.758898 0.568503 -1.511420
  24 -0.018880 10.174582 -5.360419 0.526808 0.028361 -0.098389
  25 -0.000001 1.635712 -0.000001 0.609115 0.101355 -0.852795
  26 -0.000001 2.115243 -0.000000 0.336526 -0.432636 -0.908353
  27 0.000003 2.301963 0.000001 0.638845 -0.585539 -0.782514
  28 2.885959 1.661014 0.143900 0.269427 0.068464 -2.938507
  29 0.000143 11.517483 -0.000077 -1.131362 -0.070835 -0.112606
  30 -0.000161 12.734421 -0.000032 1.419781 0.023588 -0.039513
  31 -0.000029 5.021142 0.000032 0.727722 -0.032918 -0.036011
  32 -2.885958 1.661014 0.143901 0.336633 -0.086151 2.941048
  33 -0.000056 11.517490 -0.000086 -1.154222 0.073436 0.113788
  34 0.000139 12.734415 -0.000033 1.418584 0.019653 0.051433
  35 -0.000007 5.021142 0.000034 0.727722 0.032904 0.036008
  36 -5.348761 5.826802 -18.049168 0.146101 0.001169 1.550454
  37 15.378815 4.800497 -12.552273 0.000000 0.000000 -1.570796
  38 -4.254582 -5.823584 -18.184668 0.106832 0.000000 1.570796
  39 15.652060 -4.699837 -14.753922 0.000000 0.000000 -1.570796
  40 7.909437 16.578150 6.600074 0.000000 -0.000000 1.570796
  41 12.492978 -5.177585 5.597241 0.000000 -0.000000 1.570796
  42 -15.646546 22.528687 18.899994 0.000000 -0.000000 1.570796
  43 -15.646544 -12.176661 18.899994 0.000000 -0.000000 1.570796
  time 2
  0 0.365973 0.000000 -3.114288 1.712275 -0.000000 1.570796
  1 0.000000 7.787997 -0.000000 0.387858 -0.006144 -0.004332
  2 -0.000000 6.830342 -0.000000 -0.111562 0.000379 -0.004597
  3 -0.000001 6.307690 0.000001 0.990027 -0.000000 -0.000000
  4 -0.000000 2.062053 -0.000001 -1.205240 -0.022491 0.109049
  5 3.462712 0.878776 -2.964390 1.508386 0.052358 2.816472
  6 3.325125 6.635756 -0.656393 0.157390 0.471423 -1.973303
  7 0.000001 6.186780 -0.000000 0.708465 -0.167403 -0.530092
  8 -0.000001 9.277201 -0.000000 0.007639 -0.642766 -0.003842
  9 0.000001 8.547149 0.000000 0.226909 -0.138277 0.610963
  10 -3.325127 6.635754 -0.656394 0.046979 -0.434329 2.108536
  11 0.000000 6.186779 -0.000000 1.162307 0.132184 0.923922
  12 -0.000003 9.277203 0.000003 0.000388 -0.439871 0.005607
  13 0.000000 8.547144 -0.000001 -0.159545 0.084012 -1.020175
  14 0.242423 2.653007 -1.605145 1.486175 -0.068753 -0.055370
  15 -0.079156 8.273302 -13.071134 -1.564730 0.000269 0.000023
  16 -5.283370 -0.941653 -9.166865 -1.509614 1.178567 1.554057
  17 0.000000 2.370680 0.000001 0.559185 -0.006380 0.000490
  18 0.000000 1.895272 0.000000 0.475804 -0.612070 0.361745
  19 -0.000001 4.778704 0.000000 0.653687 -0.444936 0.278196
  20 -0.000002 5.917946 -0.000001 0.111272 -0.188532 0.202444
  21 -0.000002 5.844551 -0.000004 0.412962 -0.044017 0.268869
  22 0.000001 4.734667 -0.000001 0.093591 0.066673 0.117966
  23 -0.000003 4.479239 0.000002 -0.783112 0.641782 -1.417548
  24 -0.018880 10.174584 -5.360422 0.504546 0.052075 -0.088793
  25 -0.000000 1.635713 -0.000001 0.666206 0.217826 -0.928353
  26 0.000001 2.115244 0.000001 0.374085 -0.282838 -1.078443
  27 0.000000 2.301962 -0.000000 1.355880 -0.820028 -0.858220
  28 2.885959 1.661012 0.143900 0.454564 0.160706 -2.860067
  29 0.000108 11.517392 0.000088 -1.742405 -0.144965 -0.122646
  30 -0.000136 12.734425 -0.000053 1.057269 0.096362 -0.105925
  31 -0.000006 5.021125 -0.000018 0.727725 -0.032904 -0.036014
  32 -2.885959 1.661013 0.143902 0.329624 -0.119668 2.907570
  33 -0.000079 11.517493 -0.000059 -1.388482 0.101251 0.122406
  34 0.000130 12.734418 -0.000039 1.680925 -0.000314 0.078297
  35 -0.000005 5.021131 0.000028 0.727722 0.032901 0.036005
  36 -8.343559 6.325158 -13.554033 1.141592 0.040092 1.524813
  37 15.378815 4.812641 -23.917694 0.000000 0.000000 -1.570796
  38 -9.028198 -6.187037 -16.906288 0.280553 0.000000 1.570796
  39 16.159515 -4.726668 -22.402639 0.000000 0.000000 -1.570796
  40 9.769235 14.370915 -3.016694 0.000000 -0.000000 1.570796
  41 14.401081 -7.365428 -5.717521 0.000000 -0.000000 1.570796
  42 -15.646546 22.528687 18.899994 0.000000 -0.000000 1.570796
  43 -15.646544 -12.176661 18.899994 0.000000 -0.000000 1.570796
  time 3
  0 0.365973 0.000000 -7.236332 2.000245 0.000000 1.570796
  1 -0.000001 7.787996 -0.000001 0.723332 -0.007324 -0.006329
  2 0.000000 6.830341 -0.000000 0.022996 0.001233 -0.004833
  3 0.000000 6.307690 -0.000000 0.990027 -0.000000 -0.000000
  4 -0.000000 2.062053 -0.000000 -1.205240 -0.022491 0.109049
  5 3.462712 0.878777 -2.964389 1.508386 0.052358 2.816472
  6 3.325127 6.635755 -0.656394 0.258598 0.508067 -1.932637
  7 -0.000001 6.186779 0.000001 0.794127 -0.483089 -0.732621
  8 -0.000002 9.277199 0.000000 0.909937 -0.470593 -0.408288
  9 0.000001 8.547149 -0.000003 0.192339 -0.020168 1.217901
  10 -3.325126 6.635755 -0.656394 0.160475 -0.496308 2.128980
  11 0.000000 6.186778 0.000001 1.539343 0.454581 0.816454
  12 0.000002 9.277205 -0.000000 0.000386 -0.439871 0.005586
  13 0.000001 8.547148 0.000001 -0.180582 0.005001 -1.578797
  14 0.242425 2.653009 -1.605145 1.492205 -0.103695 -0.131451
  15 -0.079158 8.273309 -13.071128 -1.564729 0.000269 0.000022
  16 -5.283370 -0.941654 -9.166865 -1.509615 1.178567 1.554056
  17 0.000001 2.370681 0.000001 0.559185 -0.006380 0.000490
  18 0.000001 1.895273 0.000001 1.098057 -0.881744 0.461310
  19 -0.000000 4.778707 0.000008 0.449935 -0.297008 0.182835
  20 0.000002 5.917952 -0.000005 -0.137170 -0.097626 0.000919
  21 0.000001 5.844558 -0.000004 0.101005 0.060934 0.055651
  22 0.000003 4.734675 -0.000007 0.068091 0.077845 0.099746
  23 0.000003 4.479250 -0.000008 -0.628123 0.923456 -0.960276
  24 -0.018879 10.174582 -5.360419 0.604308 0.046009 -0.182012
  25 -0.000000 1.635712 -0.000000 0.762945 0.275420 -1.040709
  26 -0.000003 2.115242 -0.000001 0.412380 -0.257025 -1.149373
  27 0.000001 2.301962 0.000002 2.340554 -1.022134 -1.153674
  28 2.885959 1.661015 0.143900 0.574869 0.104694 -2.825717
  29 0.000132 11.517387 0.000079 -1.724896 -0.142828 -0.123003
  30 -0.000129 12.734419 -0.000069 0.474668 0.124179 -0.141436
  31 -0.000014 5.021181 -0.000032 0.727720 -0.032909 -0.036012
  32 -2.885959 1.661016 0.143902 0.413728 -0.055055 2.894735
  33 -0.000073 11.517347 -0.000092 -1.606319 0.128180 0.124386
  34 0.000133 12.734421 -0.000068 0.506071 -0.032662 0.020057
  35 0.000012 5.021178 -0.000038 0.727719 0.032890 0.036003
  36 -9.720848 6.508206 -16.410248 1.861668 0.076698 1.551229
  37 15.378815 4.970509 -30.037537 0.000000 0.000000 -1.570796
  38 -11.598609 -5.432250 -16.265226 1.866584 0.000000 1.570796
  39 16.432760 -4.733340 -25.757008 0.000000 0.000000 -1.570796
  40 11.629032 12.163682 -12.633461 0.000000 -0.000000 1.570796
  41 15.104067 -9.553275 -17.032280 0.000000 -0.000000 1.570796
  42 -15.646546 22.528687 18.899994 0.000000 -0.000000 1.570796
  43 -15.646544 -12.176661 18.899994 0.000000 -0.000000 1.570796
  time 4
  0 0.365973 0.000000 -12.098614 2.334132 0.000000 1.570796
  1 -0.000000 7.787996 -0.000000 0.825756 -0.006639 -0.007045
  2 -0.000001 6.830342 0.000000 0.022996 0.001233 -0.004833
  3 0.000000 6.307691 -0.000000 0.990027 -0.000000 -0.000000
  4 0.000001 2.062053 -0.000001 -0.794674 -0.065408 0.087201
  5 3.462712 0.878777 -2.964390 1.508386 0.052358 2.816472
  6 3.325126 6.635756 -0.656393 0.258598 0.508067 -1.932637
  7 0.000001 6.186779 0.000001 0.861241 -0.480054 -0.439050
  8 -0.000000 9.277204 -0.000000 1.248143 -0.317052 -0.497203
  9 -0.000002 8.547148 0.000001 0.285194 0.198161 1.598072
  10 -3.325126 6.635756 -0.656393 0.212588 -0.524920 2.135762
  11 -0.000001 6.186781 0.000000 1.954358 1.179307 1.026475
  12 -0.000001 9.277208 -0.000000 0.060269 -0.471553 1.058972
  13 -0.000000 8.547152 0.000001 -0.172441 -0.021265 -1.791378
  14 0.242424 2.653011 -1.605145 1.495615 -0.118351 -0.166200
  15 -0.079162 8.273308 -13.071144 -1.564730 0.000269 0.000022
  16 -5.283370 -0.941655 -9.166863 -1.509613 1.178568 1.554057
  17 0.000000 2.370680 0.000000 0.559185 -0.006380 0.000489
  18 0.000000 1.895272 0.000002 1.464114 -0.845685 0.285464
  19 -0.000003 4.778711 0.000002 0.357933 -0.216423 0.124791
  20 0.000004 5.917951 -0.000006 -0.148250 -0.069824 -0.025911
  21 0.000001 5.844560 -0.000002 0.065038 0.075599 0.028564
  22 0.000008 4.734677 -0.000007 0.080685 0.077294 0.104120
  23 0.000008 4.479252 -0.000007 -0.503962 1.001886 -0.742825
  24 -0.018880 10.174583 -5.360419 0.652519 -0.008306 -0.204331
  25 0.000000 1.635714 0.000001 0.794584 0.197236 -1.037667
  26 -0.000002 2.115243 -0.000001 0.462600 -0.294632 -1.138567
  27 -0.000001 2.301963 -0.000000 -0.071151 -2.113895 1.645222
  28 2.885959 1.661014 0.143901 0.719089 -0.049797 -2.677309
  29 -0.000019 11.517414 -0.000105 -1.977414 -0.172701 -0.114270
  30 -0.000100 12.734435 -0.000078 0.873544 0.317051 -0.019500
  31 -0.000013 5.021181 -0.000031 0.727720 -0.032909 -0.036011
  32 -2.885959 1.661014 0.143900 0.569484 0.042395 2.814775
  33 -0.000090 11.517376 -0.000087 -1.851155 0.158043 0.119584
  34 0.000128 12.734409 0.000073 0.908628 -0.122940 -0.042969
  35 0.000012 5.021177 -0.000035 0.727719 0.032890 0.036003
  36 -9.720848 6.929587 -16.410248 1.861668 0.076698 1.551229
  37 15.378815 6.249616 -29.757301 0.000000 0.000000 -1.570796
  38 -11.598609 -5.432250 -16.265226 1.866584 0.000000 1.570796
  39 16.432760 -4.733340 -25.757008 0.000000 0.000000 -1.570796
  40 13.488832 9.956449 -22.250229 0.000000 -0.000000 1.570796
  41 15.204493 -10.547751 -22.175358 0.000000 -0.000000 1.570796
  42 -15.646546 42.925678 18.899994 0.000000 -0.000000 1.570796
  43 -15.646544 -12.176661 18.899994 0.000000 -0.000000 1.570796
  time 5
  0 0.365973 0.000000 -12.098614 2.388380 0.000000 1.570796
  1 -0.000000 7.787995 0.000001 0.709031 -0.005994 -0.005661
  2 0.000000 6.830341 0.000001 -0.005597 0.001102 -0.004590
  3 -0.000000 6.307692 0.000000 0.990027 -0.000000 -0.000000
  4 0.000000 2.062052 0.000000 -0.382061 -0.096010 0.049905
  5 3.462712 0.878776 -2.964390 1.508386 0.052358 2.816472
  6 3.325126 6.635756 -0.656393 0.379548 0.545729 -1.891133
  7 -0.000001 6.186778 0.000000 0.727193 -0.562149 -0.526470
  8 -0.000003 9.277201 0.000000 1.238788 -0.321862 -0.495483
  9 -0.000004 8.547146 0.000004 0.269508 0.206708 1.573827
  10 -3.325127 6.635754 -0.656392 0.212588 -0.524920 2.135762
  11 -0.000001 6.186781 -0.000000 1.719873 1.122927 0.873137
  12 -0.000002 9.277199 0.000003 0.057191 -0.467116 0.974409
  13 0.000001 8.547142 -0.000001 -0.179588 -0.002166 -1.750750
  14 0.242425 2.653005 -1.605144 1.495615 -0.118351 -0.166200
  15 -0.079164 8.273305 -13.071119 -1.564730 0.000269 0.000023
  16 -5.283371 -0.941656 -9.166864 -1.509614 1.178568 1.554057
  17 0.000000 2.370680 0.000001 0.559185 -0.006380 0.000489
  18 -0.000001 1.895272 -0.000000 1.325506 -0.850185 0.342409
  19 -0.000001 4.778713 0.000001 0.401603 -0.241503 0.148640
  20 0.000004 5.917950 -0.000003 -0.146352 -0.077016 -0.017277
  21 0.000001 5.844557 -0.000000 0.079968 0.071783 0.039284
  22 0.000003 4.734673 -0.000002 0.076450 0.077595 0.103552
  23 0.000002 4.479248 -0.000002 -0.563486 0.969436 -0.842707
  24 -0.018881 10.174582 -5.360418 0.630914 -0.020512 -0.167812
  25 0.000000 1.635712 -0.000002 0.735587 0.123324 -0.923354
  26 -0.000002 2.115243 -0.000000 0.434868 -0.323053 -1.049985
  27 0.000001 2.301962 0.000002 -0.227368 -2.097176 1.606537
  28 2.885959 1.661015 0.143900 0.737462 -0.180546 -2.606972
  29 -0.000006 11.517418 -0.000097 -1.958554 -0.170559 -0.115182
  30 -0.000100 12.734423 -0.000063 0.850579 0.422833 0.046918
  31 -0.000012 5.021177 -0.000032 0.727720 -0.032909 -0.036012
  32 -2.885959 1.661014 0.143901 0.613342 0.059518 2.816866
  33 -0.000091 11.517370 -0.000089 -1.848297 0.157703 0.119682
  34 0.000128 12.734411 0.000078 0.913313 -0.124062 -0.043999
  35 0.000011 5.021178 -0.000035 0.727719 0.032890 0.036004
  36 -9.720848 7.452023 -16.410248 1.861668 0.076698 1.551229
  37 15.378815 9.020801 -29.034588 0.000000 0.000000 -1.570796
  38 -11.598609 -5.432250 -16.265226 1.866584 0.000000 1.570796
  39 16.432760 -4.733340 -25.757008 0.000000 0.000000 -1.570796
  40 13.488832 10.499162 -22.250229 0.000000 -0.000000 1.570796
  41 15.204493 -10.547751 -22.175358 0.000000 -0.000000 1.570796
  42 -15.646546 36.329353 17.523672 0.000000 -0.000000 1.570796
  43 -14.838128 -11.815417 17.511431 0.000000 -0.000000 1.570796
  time 6
  0 0.365973 0.000000 -12.098614 2.519425 0.000000 1.570796
  1 0.000000 7.787995 0.000001 0.529371 -0.004976 -0.003830
  2 0.000001 6.830341 0.000001 -0.079750 0.000793 -0.003942
  3 0.000001 6.307690 -0.000000 0.990027 -0.000000 -0.000000
  4 0.000000 2.062053 -0.000001 -0.679028 -0.081028 0.074710
  5 3.462711 0.878775 -2.964391 1.508386 0.052358 2.816472
  6 3.325127 6.635755 -0.656393 0.504976 0.578698 -1.843584
  7 0.000001 6.186779 0.000001 0.421081 -0.462702 -0.403743
  8 0.000000 9.277207 0.000001 1.307631 -0.285851 -0.507057
  9 -0.000005 8.547139 0.000005 0.291760 0.208751 1.655323
  10 -3.325125 6.635754 -0.656394 0.212588 -0.524920 2.135762
  11 0.000001 6.186780 -0.000000 1.314803 1.138066 0.600958
  12 -0.000004 9.277202 -0.000001 0.054950 -0.464335 0.918984
  13 0.000003 8.547145 -0.000001 -0.161903 0.050182 -1.713069
  14 0.242424 2.653007 -1.605145 1.495615 -0.118351 -0.166200
  15 -0.079155 8.273302 -13.071133 -1.564730 0.000269 0.000022
  16 -5.283370 -0.941655 -9.166864 -1.509614 1.178568 1.554057
  17 0.000000 2.370680 0.000001 0.559185 -0.006380 0.000489
  18 0.000000 1.895272 -0.000000 1.050085 -0.714674 0.347046
  19 -0.000002 4.778706 0.000001 0.543201 -0.278317 0.213815
  20 0.000002 5.917945 -0.000002 -0.094426 -0.079390 0.039431
  21 -0.000000 5.844554 0.000003 0.158504 0.062452 0.097242
  22 0.000001 4.734670 -0.000002 0.053881 0.080306 0.091576
  23 0.000002 4.479245 -0.000002 -0.710145 0.835124 -1.134052
  24 -0.018878 10.174583 -5.360420 0.581180 -0.004043 -0.147045
  25 0.000000 1.635710 0.000000 0.760728 0.216841 -1.014284
  26 -0.000001 2.115246 -0.000000 0.438291 -0.278147 -1.136891
  27 -0.000000 2.301963 0.000001 -0.428634 -2.113452 1.847533
  28 2.885959 1.661014 0.143901 0.802860 -0.394284 -2.572109
  29 0.000009 11.517422 -0.000087 -1.946212 -0.169150 -0.115763
  30 -0.000125 12.734407 0.000079 0.849905 0.539180 0.158335
  31 -0.000012 5.021175 -0.000032 0.727720 -0.032909 -0.036011
  32 -2.885959 1.661015 0.143900 0.633011 0.095202 2.826372
  33 -0.000077 11.517375 -0.000091 -1.669106 0.135952 0.123863
  34 0.000118 12.734397 0.000100 0.751940 -0.147202 -0.028818
  35 0.000012 5.021184 -0.000035 0.727718 0.032890 0.036003
  36 -9.720848 7.707868 -16.410248 1.861668 0.076698 1.551229
  37 15.378814 12.668496 -28.046394 0.000000 0.000000 -1.570796
  38 -13.028309 -5.860806 -16.957006 1.954193 -0.006573 1.580781
  39 16.432760 -4.733340 -25.757008 0.000000 0.000000 -1.570796
  40 13.488832 9.956449 -22.250229 0.000000 -0.000000 1.570796
  41 14.946634 -11.981147 -22.173409 0.000000 -0.000000 1.570796
  42 -15.646546 48.546333 13.835134 0.000000 -0.000000 1.570796
  43 -12.706848 -10.863048 13.850671 0.000000 -0.000000 1.570796
  time 7
  0 0.365973 0.000000 -13.259418 2.680850 0.000000 1.570796
  1 0.000000 7.787995 -0.000000 0.354882 -0.003687 -0.002308
  2 0.000000 6.830341 0.000001 -0.181810 0.000448 -0.003016
  3 0.000001 6.307689 0.000000 0.990027 -0.000000 -0.000000
  4 0.000000 2.062053 0.000001 -0.974175 -0.059585 0.093981
  5 3.462712 0.878777 -2.964389 1.508386 0.052358 2.816472
  6 3.325126 6.635754 -0.656394 0.439431 0.562245 -1.868955
  7 0.000000 6.186782 0.000003 0.272211 -0.703781 -0.538609
  8 0.000002 9.277205 -0.000000 1.325756 -0.276148 -0.509680
  9 0.000001 8.547145 -0.000000 0.329318 0.281607 1.539939
  10 -3.325125 6.635753 -0.656393 0.212588 -0.524920 2.135762
  11 -0.000004 6.186780 0.000001 0.583205 1.234718 0.001474
  12 -0.000000 9.277205 -0.000002 0.063781 -0.477953 1.174720
  13 -0.000001 8.547146 0.000000 -0.116811 0.248875 -1.814138
  14 0.242424 2.653009 -1.605145 1.495615 -0.118351 -0.166200
  15 -0.079159 8.273305 -13.071132 -1.564730 0.000269 0.000022
  16 -5.283370 -0.941655 -9.166862 -1.509612 1.178568 1.554058
  17 0.000001 2.370678 -0.000000 0.559185 -0.006379 0.000489
  18 -0.000001 1.895272 0.000001 0.752752 -0.490751 0.221027
  19 -0.000001 4.778707 0.000000 0.660437 -0.300981 0.248607
  20 0.000001 5.917945 0.000001 0.071797 -0.095496 0.157713
  21 0.000002 5.844555 -0.000001 0.368788 0.017155 0.229256
  22 0.000005 4.734667 -0.000001 0.083606 0.073573 0.103907
  23 0.000001 4.479242 0.000002 -0.775515 0.674904 -1.372037
  24 -0.018879 10.174579 -5.360418 0.579802 0.025500 -0.158962
  25 -0.000000 1.635711 0.000000 0.764502 0.267366 -1.046923
  26 0.000000 2.115241 -0.000001 0.427345 -0.252359 -1.164937
  27 0.000001 2.301962 0.000001 -0.625030 -2.128260 1.950291
  28 2.885959 1.661013 0.143903 0.800015 -0.655411 -2.648359
  29 0.000016 11.517428 -0.000069 -1.803565 -0.152366 -0.121099
  30 -0.000108 12.734409 0.000080 0.694044 0.278535 0.155154
  31 -0.000039 5.021181 -0.000007 0.727722 -0.032898 -0.036018
  32 -2.885959 1.661014 0.143902 0.518956 0.141267 2.836231
  33 -0.000042 11.517385 -0.000101 -1.275510 0.087578 0.119051
  34 0.000119 12.734447 -0.000074 0.430348 -0.210114 0.012161
  35 0.000012 5.021200 -0.000019 0.727719 0.032893 0.036005
  36 -11.258080 7.396844 -17.983870 1.933186 -0.181943 1.851626
  37 15.378815 16.577133 -26.969704 0.000000 0.000000 -1.570796
  38 -16.173647 -6.803627 -18.478920 2.145777 -0.023844 1.600405
  39 16.432760 -4.621843 -26.027191 0.000000 0.000000 -1.570796
  40 14.461978 14.203830 -22.434338 0.000000 -0.000000 1.570796
  41 14.688776 -13.414541 -22.171455 0.000000 -0.000000 1.570796
  42 -15.646545 30.373417 8.495005 0.000000 -0.000000 1.570796
  43 -9.693657 -9.516591 8.675110 0.000000 -0.000000 1.570796
  time 8
  0 0.365973 0.000000 -15.813194 2.886641 0.000000 1.570796
  1 0.000000 7.787996 0.000001 0.199293 -0.002330 -0.001193
  2 -0.000000 6.830343 0.000001 -0.293323 0.000181 -0.001971
  3 0.000000 6.307690 0.000000 0.990027 -0.000000 -0.000000
  4 0.000000 2.062054 0.000000 -0.899345 -0.067883 0.087839
  5 3.462712 0.878777 -2.964388 1.508387 0.052358 2.816472
  6 3.325127 6.635756 -0.656391 0.320708 0.528123 -1.911905
  7 -0.000002 6.186779 0.000000 -0.052125 -0.901167 -0.378835
  8 0.000000 9.277204 0.000004 1.420015 -0.224417 -0.520387
  9 0.000001 8.547143 -0.000003 0.347736 0.430956 1.232339
  10 -3.325126 6.635755 -0.656394 0.212588 -0.524920 2.135762
  11 -0.000004 6.186780 0.000001 0.067466 1.013976 -0.073249
  12 -0.000001 9.277203 -0.000000 0.017735 -0.441964 0.259608
  13 0.000001 8.547148 0.000001 -0.191965 1.023291 -0.945178
  14 0.242424 2.653008 -1.605145 1.495615 -0.118351 -0.166200
  15 -0.079154 8.273314 -13.071138 -1.564730 0.000269 0.000022
  16 -5.283371 -0.941656 -9.166864 -1.509614 1.178567 1.554057
  17 0.000000 2.370681 0.000000 0.559185 -0.006380 0.000490
  18 0.000000 1.895271 -0.000000 0.359924 -0.289501 0.067730
  19 0.000002 4.778705 -0.000004 0.549546 -0.239538 0.223313
  20 0.000002 5.917942 -0.000002 0.147101 -0.096872 0.211230
  21 0.000003 5.844548 -0.000002 0.554831 -0.033941 0.307818
  22 -0.000003 4.734662 0.000002 0.150663 0.054586 0.112680
  23 -0.000004 4.479239 0.000003 -0.767428 0.585531 -1.487206
  24 -0.018880 10.174581 -5.360419 0.547946 0.023069 -0.133491
  25 0.000000 1.635712 -0.000001 0.751278 0.267955 -1.035692
  26 -0.000001 2.115244 -0.000000 0.422942 -0.244279 -1.164884
  27 0.000002 2.301964 0.000000 2.420207 -0.995053 -1.137203
  28 2.885958 1.661014 0.143900 0.802447 -0.931999 -2.851022
  29 0.000019 11.517435 -0.000053 -1.523408 -0.117899 -0.124334
  30 -0.000083 12.734436 0.000073 0.493621 -0.346151 0.143605
  31 -0.000015 5.021195 0.000025 0.727722 -0.032903 -0.036017
  32 -2.885959 1.661013 0.143904 0.359996 0.224228 2.859419
  33 -0.000011 11.517406 -0.000118 -0.796114 0.036680 0.088833
  34 0.000089 12.734490 -0.000110 0.105841 -0.293634 0.081324
  35 0.000012 5.021206 -0.000003 0.727720 0.032896 0.036006
  36 -14.112938 6.819230 -20.906309 -1.337728 -2.435973 -0.605510
  37 15.378815 20.131149 -25.981506 0.000000 0.000000 -1.570796
  38 -19.318983 -7.746449 -20.000835 2.332987 -0.044056 1.616087
  39 16.432760 -4.334298 -26.723976 0.000000 0.000000 -1.570796
  40 15.435126 18.451210 -22.618443 0.000000 -0.000000 1.570796
  41 9.716156 -20.923088 -22.141872 0.000000 -0.000000 1.570796
  42 -15.646546 27.068462 2.163920 0.000000 -0.000000 1.570796
  43 -6.239511 -7.973094 2.742150 0.000000 -0.000000 1.570796
  time 9
  0 0.365973 0.000000 -18.366966 3.061894 0.000000 1.570796
  1 -0.000001 7.787996 0.000001 0.075163 -0.001136 -0.000486
  2 0.000000 6.830341 -0.000000 -0.395384 0.000040 -0.000993
  3 -0.000001 6.307691 -0.000000 0.990027 -0.000000 -0.000000
  4 -0.000000 2.062052 0.000000 -0.705709 -0.086866 0.069203
  5 3.462712 0.878776 -2.964389 1.508386 0.052358 2.816472
  6 3.325125 6.635756 -0.656394 0.258598 0.508067 -1.932637
  7 0.000003 6.186780 -0.000000 -0.430235 -1.136421 0.103817
  8 -0.000002 9.277202 -0.000001 1.171973 -0.355384 -0.481887
  9 0.000002 8.547146 -0.000002 0.290632 0.596671 0.820195
  10 -3.325128 6.635755 -0.656393 0.212588 -0.524920 2.135762
  11 -0.000003 6.186782 -0.000002 -0.674376 0.745118 -0.520456
  12 0.000001 9.277204 0.000002 0.065525 -0.482061 1.246209
  13 -0.000002 8.547152 0.000003 -1.179957 1.051922 -1.584476
  14 0.242424 2.653008 -1.605148 1.495615 -0.118351 -0.166200
  15 -0.079160 8.273310 -13.071127 -1.564730 0.000269 0.000022
  16 -5.283371 -0.941655 -9.166867 -1.509615 1.178567 1.554057
  17 0.000001 2.370681 0.000000 0.559185 -0.006380 0.000490
  18 0.000001 1.895273 -0.000001 -0.202558 -0.331886 -0.109089
  19 0.000002 4.778708 -0.000005 0.493420 -0.327088 0.140429
  20 0.000004 5.917937 -0.000012 0.499695 -0.274556 0.239813
  21 0.000001 5.844540 -0.000008 1.107026 -0.312718 0.331442
  22 -0.000001 4.734656 -0.000004 0.448133 -0.086252 0.142864
  23 -0.000001 4.479241 -0.000002 -0.640726 0.525356 -1.570570
  24 -0.018882 10.174584 -5.360422 0.515674 0.013163 -0.103566
  25 0.000000 1.635715 -0.000001 0.730373 0.243964 -1.005159
  26 -0.000003 2.115242 -0.000001 0.420850 -0.250517 -1.147090
  27 0.000002 2.301965 0.000000 2.348648 -0.982659 -1.111243
  28 2.885958 1.661014 0.143901 -2.227049 -1.984495 0.074430
  29 0.000022 11.517446 -0.000022 -1.393197 -0.101821 -0.122509
  30 -0.000062 12.734449 0.000052 0.457821 -0.543793 0.163163
  31 0.000014 5.021208 -0.000007 0.727720 -0.032905 -0.036016
  32 -2.885959 1.661014 0.143902 0.272127 0.318228 2.888002
  33 0.000005 11.517430 -0.000122 -0.495104 0.014226 0.059015
  34 0.000065 12.734490 -0.000145 -0.036262 -0.368724 0.135045
  35 0.000013 5.021204 0.000003 0.727720 0.032895 0.036007
  36 -15.650169 6.508207 -22.479931 -1.618177 -2.250971 -0.099002
  37 15.378815 22.714979 -25.258797 0.000000 0.000000 -1.570796
  38 -20.748684 -8.175005 -20.692616 2.415819 -0.053868 1.621772
  39 16.432760 -3.941125 -27.676720 0.000000 0.000000 -1.570796
  40 16.408274 22.698591 -22.802551 0.000000 -0.000000 1.570796
  41 7.146411 -16.213823 -22.114403 0.000000 -0.000000 1.570796
  42 -15.646546 24.853052 -4.497479 0.000000 -0.000000 1.570796
  43 -2.785367 -6.429597 -3.190812 0.000000 -0.000000 1.570796
  time 10
  0 0.365973 0.000000 -19.527771 3.135203 0.000000 1.570796
  1 0.000001 7.787997 0.000000 -0.006630 -0.000306 -0.000114
  2 -0.000001 6.830343 0.000001 -0.469537 0.000001 -0.000277
  3 0.000000 6.307692 0.000000 0.990027 -0.000000 -0.000000
  4 0.000000 2.062052 0.000000 -0.445623 -0.105973 0.039152
  5 3.462712 0.878775 -2.964388 1.508386 0.052358 2.816472
  6 3.325126 6.635753 -0.656392 0.258598 0.508067 -1.932637
  7 0.000000 6.186779 -0.000002 -0.725288 -1.227357 0.310616
  8 0.000002 9.277204 0.000004 1.264606 -0.308522 -0.500119
  9 0.000002 8.547147 -0.000003 0.179218 0.699887 0.445791
  10 -3.325126 6.635755 -0.656394 0.212588 -0.524920 2.135762
  11 0.000001 6.186779 -0.000002 -0.861672 0.716140 -0.516018
  12 0.000001 9.277206 0.000002 0.063336 -0.477030 1.158382
  13 -0.000001 8.547148 0.000004 -1.528410 1.004340 -1.645426
  14 0.242422 2.653007 -1.605147 1.495615 -0.118351 -0.166200
  15 -0.079163 8.273295 -13.071132 -1.564730 0.000269 0.000022
  16 -5.283370 -0.941656 -9.166863 -1.509615 1.178567 1.554056
  17 0.000002 2.370680 0.000000 0.559185 -0.006380 0.000490
  18 -0.000002 1.895272 0.000000 -0.380653 -0.338395 -0.123749
  19 0.000003 4.778710 -0.000003 0.436188 -0.314690 0.102268
  20 0.000001 5.917941 -0.000009 0.580137 -0.289506 0.184858
  21 -0.000002 5.844546 -0.000006 1.278255 -0.362575 0.255961
  22 -0.000000 4.734664 -0.000002 0.546389 -0.141591 0.109211
  23 0.000001 4.479239 -0.000004 -0.578270 0.524045 -1.573447
  24 -0.018880 10.174581 -5.360419 0.513239 0.001543 -0.091403
  25 0.000000 1.635709 -0.000001 0.697554 0.183037 -0.942106
  26 -0.000001 2.115242 0.000000 0.411564 -0.293498 -1.087998
  27 0.000004 2.301964 -0.000000 2.237859 -0.996338 -1.121351
  28 2.885959 1.661014 0.143901 -2.154502 -1.874655 0.009129
  29 0.000024 11.517452 -0.000009 -1.424106 -0.105616 -0.123134
  30 -0.000055 12.734453 0.000041 0.512355 -0.433237 0.149015
  31 0.000014 5.021210 -0.000007 0.727720 -0.032905 -0.036016
  32 -2.885958 1.661014 0.143899 0.305363 0.333085 2.890866
  33 0.000004 11.517427 -0.000121 -0.526278 0.016120 0.062397
  34 0.000066 12.734494 -0.000142 0.034004 -0.380485 0.125144
  35 0.000012 5.021202 0.000002 0.727720 0.032895 0.036007
  36 -15.650169 6.508207 -22.479931 -1.618177 -2.250971 -0.099002
  37 15.378815 23.713043 -24.978561 0.000000 0.000000 -1.570796
  38 -20.748684 -8.175005 -20.692616 2.415819 -0.053868 1.621772
  39 16.432760 -3.512741 -28.714787 0.000000 0.000000 -1.570796
  40 16.408274 22.698591 -22.802551 0.000000 -0.000000 1.570796
  41 5.945683 -16.169956 -22.240383 0.000000 -0.000000 1.570796
  42 -15.646546 23.509279 -10.828564 0.000000 -0.000000 1.570796
  43 0.227827 -5.083143 -8.366375 0.000000 -0.000000 1.570796
  time 11
  0 0.365973 0.000000 -19.527771 3.135203 0.000000 1.570796
  1 0.000001 7.787997 0.000000 -0.036147 0.000000 -0.000000
  2 0.000000 6.830342 0.000001 -0.498130 0.000000 -0.000000
  3 -0.000000 6.307690 0.000000 0.990027 -0.000000 -0.000000
  4 -0.000000 2.062053 -0.000001 -0.184319 -0.116725 0.005070
  5 3.462711 0.878775 -2.964391 1.508386 0.052358 2.816472
  6 3.325126 6.635756 -0.656392 0.258598 0.508067 -1.932637
  7 0.000003 6.186780 -0.000001 -0.707794 -1.324105 0.301802
  8 0.000003 9.277203 0.000002 1.241091 -0.320681 -0.495911
  9 -0.000002 8.547143 -0.000003 0.120037 0.728989 0.286336
  10 -3.325126 6.635755 -0.656393 0.212588 -0.524920 2.135762
  11 0.000001 6.186780 -0.000001 -0.324414 1.151045 0.276387
  12 -0.000000 9.277198 0.000001 0.000374 -0.439871 0.005416
  13 -0.000000 8.547142 0.000001 -0.828743 1.307792 -0.608871
  14 0.242426 2.653006 -1.605146 1.495615 -0.118351 -0.166200
  15 -0.079160 8.273302 -13.071125 -1.564730 0.000269 0.000022
  16 -5.283370 -0.941656 -9.166865 -1.509615 1.178567 1.554056
  17 0.000000 2.370680 0.000001 0.559185 -0.006380 0.000490
  18 -0.000001 1.895272 0.000001 -0.530369 -0.363401 -0.105951
  19 0.000000 4.778708 -0.000004 0.328779 -0.320261 0.100217
  20 0.000000 5.917940 -0.000012 0.515605 -0.287864 0.176310
  21 -0.000002 5.844546 -0.000009 1.263859 -0.357216 0.243605
  22 -0.000000 4.734664 -0.000005 0.539201 -0.139827 0.084838
  23 0.000004 4.479240 -0.000005 -0.571174 0.504299 -1.604103
  24 -0.018880 10.174583 -5.360419 0.572608 -0.006532 -0.118844
  25 0.000000 1.635711 -0.000000 0.662501 0.097338 -0.858925
  26 -0.000001 2.115243 0.000002 0.388374 -0.373279 -0.987807
  27 0.000004 2.301963 0.000001 2.165340 -1.058108 -1.193240
  28 2.885959 1.661014 0.143901 -2.154502 -1.874655 0.009129
  29 0.000024 11.517452 -0.000009 -1.424106 -0.105616 -0.123134
  30 -0.000055 12.734453 0.000041 0.512355 -0.433237 0.149015
  31 0.000014 5.021210 -0.000007 0.727720 -0.032905 -0.036016
  32 -2.885958 1.661014 0.143899 0.306935 0.269461 2.888921
  33 0.000004 11.517427 -0.000125 -0.526277 0.016120 0.062397
  34 0.000066 12.734491 -0.000148 0.044653 -0.319589 0.137233
  35 0.000011 5.021204 0.000003 0.727720 0.032895 0.036007
  36 -15.650169 6.508207 -22.479931 -1.618177 -2.250971 -0.099002
  37 15.378815 23.713043 -24.978561 0.000000 0.000000 -1.570796
  38 -20.748684 -8.175005 -20.692616 2.415819 -0.053868 1.621772
  39 16.432760 -3.119568 -29.667534 0.000000 0.000000 -1.570796
  40 16.408274 22.698591 -22.802551 0.000000 -0.000000 1.570796
  41 2.343501 -16.038357 -22.618324 0.000000 -0.000000 1.570796
  42 -15.646546 22.819233 -16.168697 0.000000 -0.000000 1.570796
  43 2.359106 -4.130773 -12.027134 0.000000 -0.000000 1.570796
  time 12
  0 0.365973 0.000000 -19.527771 3.135203 0.000000 1.570796
  1 0.000001 7.787997 0.000000 -0.036147 0.000000 -0.000000
  2 0.000000 6.830342 0.000001 -0.498130 0.000000 -0.000000
  3 -0.000000 6.307690 0.000000 0.990027 -0.000000 -0.000000
  4 -0.000000 2.062053 -0.000001 0.011746 -0.118815 -0.021690
  5 3.462711 0.878776 -2.964391 1.508386 0.052358 2.816472
  6 3.325126 6.635756 -0.656392 0.258598 0.508067 -1.932637
  7 0.000003 6.186780 -0.000001 -0.828516 -1.429857 0.431449
  8 0.000003 9.277200 0.000002 1.241091 -0.320681 -0.495911
  9 -0.000001 8.547144 -0.000002 0.120037 0.728989 0.286336
  10 -3.325126 6.635755 -0.656393 0.212588 -0.524920 2.135762
  11 0.000001 6.186780 -0.000001 -0.407140 1.236371 0.187761
  12 0.000001 9.277197 0.000000 0.000374 -0.439871 0.005416
  13 0.000001 8.547146 0.000003 -0.784449 1.188520 -0.445660
  14 0.242422 2.653007 -1.605145 1.495615 -0.118351 -0.166200
  15 -0.079162 8.273299 -13.071128 -1.564730 0.000269 0.000022
  16 -5.283370 -0.941656 -9.166865 -1.509615 1.178567 1.554056
  17 0.000000 2.370680 0.000001 0.559185 -0.006380 0.000490
  18 -0.000001 1.895272 0.000001 -0.535754 -0.367967 -0.107306
  19 0.000001 4.778708 -0.000004 0.330721 -0.324200 0.095634
  20 -0.000001 5.917940 -0.000012 0.526768 -0.294307 0.171565
  21 -0.000003 5.844547 -0.000008 1.280288 -0.366370 0.237754
  22 0.000001 4.734664 -0.000005 0.549325 -0.145907 0.086219
  23 0.000005 4.479240 -0.000004 -0.566483 0.506476 -1.601017
  24 -0.018880 10.174583 -5.360419 0.663640 -0.001421 -0.167959
  25 -0.000000 1.635712 0.000001 0.630210 0.021290 -0.780521
  26 -0.000002 2.115245 0.000002 0.353481 -0.447755 -0.878564
  27 0.000005 2.301962 -0.000000 2.184379 -1.134808 -1.317893
  28 2.885959 1.661014 0.143901 -2.154502 -1.874655 0.009129
  29 0.000024 11.517452 -0.000009 -1.424106 -0.105616 -0.123134
  30 -0.000055 12.734453 0.000041 0.512355 -0.433237 0.149015
  31 0.000014 5.021210 -0.000007 0.727720 -0.032905 -0.036016
  32 -2.885958 1.661014 0.143899 0.308005 0.228307 2.887625
  33 0.000001 11.517422 -0.000126 -0.526277 0.016120 0.062397
  34 0.000068 12.734491 -0.000153 0.051842 -0.280266 0.145291
  35 0.000012 5.021204 0.000001 0.727720 0.032895 0.036007
  36 -15.650169 6.508207 -22.479931 -1.618177 -2.250971 -0.099002
  37 15.378815 23.713043 -24.978561 0.000000 0.000000 -1.570796
  38 -20.748684 -8.175005 -20.692616 2.415819 -0.053868 1.621772
  39 16.432760 -2.832023 -30.364319 0.000000 0.000000 -1.570796
  40 16.408274 22.698591 -22.802551 0.000000 -0.000000 1.570796
  41 2.343501 -16.038357 -22.618324 0.000000 -0.000000 1.570796
  42 -15.646546 22.565006 -19.857239 0.000000 -0.000000 1.570796
  43 3.167523 -3.769529 -13.415691 0.000000 -0.000000 1.570796
  time 13
  0 0.365973 0.000000 -19.527771 3.135203 0.000000 1.570796
  1 0.000001 7.787997 0.000000 -0.036147 0.000000 -0.000000
  2 0.000000 6.830342 0.000001 -0.498130 0.000000 -0.000000
  3 -0.000000 6.307690 0.000000 0.990027 -0.000000 -0.000000
  4 -0.000000 2.062053 -0.000001 0.088016 -0.118215 -0.032128
  5 3.462711 0.878777 -2.964389 1.508386 0.052358 2.816472
  6 3.325126 6.635756 -0.656392 0.258598 0.508067 -1.932637
  7 0.000003 6.186780 -0.000001 -0.939800 -1.468239 0.546068
  8 0.000001 9.277201 0.000000 1.241091 -0.320681 -0.495911
  9 -0.000001 8.547143 -0.000003 0.120037 0.728989 0.286337
  10 -3.325126 6.635755 -0.656393 0.212588 -0.524920 2.135762
  11 0.000001 6.186780 -0.000001 -0.407140 1.236371 0.187761
  12 0.000001 9.277197 0.000000 0.000374 -0.439871 0.005416
  13 0.000001 8.547146 0.000003 -0.886390 0.916305 -0.431813
  14 0.242422 2.653007 -1.605146 1.480065 0.004474 0.052683
  15 -0.079160 8.273300 -13.071126 -1.564730 0.000269 0.000023
  16 -5.283370 -0.941656 -9.166865 -1.509615 1.178567 1.554056
  17 0.000000 2.370680 0.000001 0.559185 -0.006380 0.000490
  18 -0.000001 1.895272 0.000001 -0.571580 -0.362927 -0.106898
  19 0.000001 4.778708 -0.000004 0.322065 -0.315020 0.087495
  20 -0.000001 5.917941 -0.000013 0.553466 -0.290819 0.153794
  21 -0.000002 5.844546 -0.000008 1.332804 -0.372360 0.210323
  22 0.000003 4.734664 -0.000005 0.580929 -0.161985 0.072219
  23 0.000004 4.479239 -0.000005 -0.545746 0.509435 -1.597067
  24 -0.018880 10.174583 -5.360419 0.708332 0.006093 -0.191946
  25 0.000000 1.635712 0.000000 0.612863 -0.010352 -0.744464
  26 -0.000001 2.115243 0.000001 0.333301 -0.478251 -0.825199
  27 0.000004 2.301963 0.000000 -0.944464 -1.973739 1.762824
  28 2.885959 1.661014 0.143901 -2.154502 -1.874655 0.009129
  29 0.000024 11.517452 -0.000009 -1.424106 -0.105616 -0.123134
  30 -0.000055 12.734453 0.000041 0.512355 -0.433237 0.149015
  31 0.000014 5.021210 -0.000007 0.727720 -0.032905 -0.036016
  32 -2.885958 1.661014 0.143899 0.308403 0.213444 2.887149
  33 0.000002 11.517422 -0.000127 -0.526277 0.016120 0.062397
  34 0.000069 12.734493 -0.000154 0.054500 -0.266077 0.148251
  35 0.000012 5.021204 0.000001 0.727720 0.032895 0.036007
  36 -15.650169 6.508207 -22.479931 -1.618177 -2.250971 -0.099002
  37 15.378815 23.713043 -24.978561 0.000000 0.000000 -1.570796
  38 -20.748684 -8.175005 -20.692616 2.415819 -0.053868 1.621772
  39 16.432760 -2.720526 -30.634499 0.000000 0.000000 -1.570796
  40 16.408274 22.698591 -22.802551 0.000000 -0.000000 1.570796
  41 2.343501 -16.038357 -22.618324 0.000000 -0.000000 1.570796
  42 -15.646546 22.528687 -21.233566 0.000000 -0.000000 1.570796
  43 3.167523 -3.769529 -13.415691 0.000000 -0.000000 1.570796
end
