version 1
nodes
0 "hips" -1
1 "spine" 0
2 "chest" 1
3 "neck" 2
4 "head" 3
5 "breathing_tube_5" 4
6 "Shoulder.L" 2
7 "arm_upper.L" 6
8 "arm_lower.L" 7
9 "hand.L" 8
10 "Shoulder.R" 2
11 "arm_upper.R" 10
12 "arm_lower.R" 11
13 "hand.R" 12
14 "weapon" 13
15 "muzzle_flash" 14
16 "weapon_cable_1" 2
17 "weapon_cable_2" 16
18 "weapon_cable_3" 17
19 "weapon_cable_4" 18
20 "weapon_cable_5" 19
21 "weapon_cable_6" 20
22 "weapon_cable_7" 21
23 "weapon_cable_8" 22
24 "breathing_tube_1" 2
25 "breathing_tube_2" 24
26 "breathing_tube_3" 25
27 "breathing_tube_4" 26
28 "leg_upper.L" 0
29 "leg_lower.L" 28
30 "foot.L" 29
31 "toes.L" 30
32 "leg_upper.R" 0
33 "leg_lower.R" 32
34 "foot.R" 33
35 "toes.R" 34
36 "leg_ik.L" -1
37 "leg_pull.L" -1
38 "leg_ik.R" -1
39 "leg_pull.R" -1
40 "hand_ik.L" -1
41 "hand_ik.R" -1
42 "hand_pull.L" -1
43 "hand_pull.R" -1
end
skeleton
  time 0
  0 0.365973 0.000000 0.823096 1.522998 -0.000000 1.570796
  1 0.000003 7.787995 -0.000002 -0.396575 0.103062 -0.056481
  2 -0.000001 6.830343 -0.000001 -0.498130 -0.000000 0.000000
  3 0.000000 6.307693 0.000001 0.990027 -0.000000 -0.000000
  4 -0.000001 2.062053 -0.000000 -0.437826 -0.087075 0.059482
  5 3.462711 0.878775 -2.964390 1.508386 0.052358 2.816472
  6 3.325127 6.635756 -0.656392 -0.115247 0.348888 -2.066765
  7 0.000000 6.186780 0.000000 1.364456 0.909111 0.717539
  8 0.000001 9.277202 -0.000001 0.292837 -0.625437 -0.145693
  9 -0.000002 8.547150 -0.000005 0.251695 -0.128350 -0.215786
  10 -3.325126 6.635757 -0.656393 -0.115247 -0.348888 2.066765
  11 -0.000001 6.186780 -0.000000 -0.072440 0.102724 -0.125707
  12 -0.000001 9.277203 -0.000002 0.036158 -0.449094 0.550668
  13 0.000002 8.547152 0.000000 -0.284265 -0.303352 0.682679
  14 0.242425 2.653010 -1.605147 1.480065 0.004474 0.052683
  15 -0.079154 8.273308 -13.071135 -1.564730 0.000269 0.000023
  16 -5.283370 -0.941655 -9.166865 -1.509614 1.178567 1.554056
  17 0.000001 2.370680 0.000001 0.559185 -0.006380 0.000490
  18 0.000001 1.895272 0.000000 -0.198370 -0.111189 -0.054391
  19 0.000001 4.778713 -0.000003 0.498016 -0.110381 0.119578
  20 0.000003 5.917946 -0.000006 0.467113 -0.076625 0.105250
  21 0.000000 5.844551 -0.000006 1.072092 -0.130604 0.194498
  22 -0.000002 4.734660 -0.000000 0.413347 -0.068946 -0.009259
  23 -0.000004 4.479241 0.000003 -0.602896 0.503748 -1.602266
  24 -0.018879 10.174584 -5.360421 0.443563 -0.030892 -0.055735
  25 -0.000000 1.635714 0.000002 0.526011 -0.030271 -0.752035
  26 -0.000001 2.115242 0.000001 0.288640 -0.559761 -0.707404
  27 -0.000001 2.301960 0.000003 0.340761 -0.331652 -0.791851
  28 2.885959 1.661014 0.143900 0.303371 -0.001291 -2.985838
  29 0.000161 11.517492 -0.000101 -0.853817 -0.041957 -0.093738
  30 -0.000200 12.734420 -0.000056 1.244510 0.016039 0.003919
  31 -0.000019 5.021162 0.000028 0.727722 -0.032914 -0.036010
  32 -2.885957 1.661015 0.143900 0.420728 0.010481 2.984432
  33 -0.000047 11.517493 -0.000103 -0.885517 0.044990 0.096282
  34 0.000140 12.734408 -0.000057 1.158610 -0.014019 -0.004582
  35 -0.000008 5.021157 0.000032 0.727722 0.032905 0.036009
  36 -1.762491 5.089325 -19.332434 0.000000 -0.000000 1.570796
  37 15.378815 4.642630 -6.432432 0.000000 0.000000 -1.570796
  38 0.455539 -5.089325 -19.276638 0.000000 -0.000000 1.570796
  39 15.378815 -4.642629 -6.432432 0.000000 0.000000 -1.570796
  40 8.260705 14.249444 10.545546 0.000000 -0.000000 1.570796
  41 1.141936 -22.821815 9.381855 0.000000 -0.000000 1.570796
  42 -15.646546 22.528687 20.987938 0.000000 -0.000000 1.570796
  43 -19.114553 -7.231793 8.846781 0.000000 -0.000000 1.570796
  time 1
  0 0.365973 0.000000 0.823096 1.712894 -0.000000 1.570796
  1 0.000000 7.787998 -0.000001 -0.537662 0.094129 -0.070392
  2 0.000001 6.830342 -0.000000 -0.592244 -0.001691 -0.010971
  3 -0.000000 6.307692 0.000001 0.990027 -0.000000 -0.000000
  4 -0.000000 2.062053 -0.000001 -0.601217 -0.088317 0.057946
  5 3.462712 0.878777 -2.964389 1.508386 0.052358 2.816472
  6 3.325126 6.635756 -0.656392 -0.115246 0.348888 -2.066765
  7 0.000000 6.186779 0.000001 -0.230228 0.853339 -0.303148
  8 0.000000 9.277202 0.000001 1.285615 -0.297518 -0.503631
  9 -0.000002 8.547141 -0.000005 0.251695 -0.128350 -0.215787
  10 -3.325126 6.635756 -0.656393 -0.115247 -0.348888 2.066765
  11 -0.000002 6.186779 0.000000 -0.288704 -0.095964 -0.238528
  12 -0.000000 9.277204 -0.000001 0.031945 -0.446941 0.480597
  13 0.000002 8.547150 -0.000001 -0.238451 -0.357817 0.573327
  14 0.242425 2.653008 -1.605146 1.480065 0.004474 0.052683
  15 -0.079158 8.273310 -13.071130 -1.564730 0.000269 0.000023
  16 -5.283369 -0.941656 -9.166864 -1.509614 1.178568 1.554056
  17 0.000001 2.370680 0.000000 0.559185 -0.006380 0.000490
  18 0.000000 1.895272 0.000000 -0.018981 -0.019123 0.002775
  19 0.000002 4.778709 -0.000002 0.572954 -0.028738 0.074184
  20 0.000003 5.917939 -0.000004 0.429395 -0.006852 -0.001817
  21 0.000003 5.844545 -0.000003 0.974425 -0.041600 0.114412
  22 0.000002 4.734662 -0.000000 0.365285 -0.050697 -0.065230
  23 0.000003 4.479238 -0.000002 -0.607063 0.519890 -1.582902
  24 -0.018879 10.174586 -5.360420 0.444251 -0.023534 -0.060766
  25 0.000001 1.635712 -0.000001 0.537205 -0.012978 -0.768329
  26 -0.000001 2.115244 -0.000002 0.301717 -0.540070 -0.735753
  27 0.000000 2.301961 -0.000000 0.300199 -0.303906 -0.821934
  28 2.885960 1.661013 0.143899 0.468905 -0.015210 -2.954837
  29 0.000163 11.517483 -0.000093 -0.837929 -0.040476 -0.092424
  30 -0.000199 12.734418 -0.000065 1.251575 0.016106 -0.034238
  31 -0.000019 5.021162 0.000029 0.727722 -0.032914 -0.036010
  32 -2.885959 1.661015 0.143902 0.598019 0.040265 2.988315
  33 -0.000061 11.517489 -0.000091 -0.893048 0.045719 0.096874
  34 0.000129 12.734406 -0.000063 1.176444 -0.015564 -0.005567
  35 -0.000008 5.021157 0.000033 0.727722 0.032905 0.036009
  36 -1.762491 5.847854 -19.332434 0.000000 -0.000000 1.570796
  37 15.378815 4.642630 -6.432432 0.000000 0.000000 -1.570796
  38 0.455539 -5.089325 -19.276638 0.000000 -0.000000 1.570796
  39 15.378815 -4.642629 -6.432432 0.000000 0.000000 -1.570796
  40 3.663431 16.807520 7.704074 0.000000 -0.000000 1.570796
  41 -1.858153 -24.582462 9.381855 0.000000 -0.000000 1.570796
  42 -13.080162 22.528687 11.302547 0.000000 -0.000000 1.570796
  43 -19.114553 -7.231793 8.846781 0.000000 -0.000000 1.570796
  time 2
  0 0.365973 0.000000 -0.408337 1.996024 -0.000000 1.570796
  1 0.000000 7.787996 -0.000000 -0.466292 0.099000 -0.063552
  2 0.000000 6.830340 -0.000000 -0.523758 -0.000356 -0.002994
  3 0.000000 6.307690 0.000000 0.990027 0.000000 -0.000000
  4 -0.000000 2.062053 -0.000000 -0.600954 -0.088315 0.057948
  5 3.462711 0.878777 -2.964390 1.508386 0.052358 2.816472
  6 3.325126 6.635754 -0.656393 -0.115246 0.348888 -2.066765
  7 0.000000 6.186779 0.000000 -0.602542 0.104294 -0.390082
  8 -0.000003 9.277205 0.000002 1.153044 -0.364602 -0.477626
  9 0.000003 8.547148 -0.000003 0.251695 -0.128350 -0.215787
  10 -3.325126 6.635755 -0.656394 -0.115247 -0.348888 2.066765
  11 -0.000002 6.186781 0.000000 -0.372048 0.164607 -0.197657
  12 -0.000001 9.277198 -0.000001 0.030504 -0.446283 0.457226
  13 0.000001 8.547144 0.000001 -0.071908 -0.425497 0.248471
  14 0.242426 2.653008 -1.605146 1.480065 0.004474 0.052683
  15 -0.079158 8.273302 -13.071123 -1.564730 0.000269 0.000023
  16 -5.283369 -0.941655 -9.166862 -1.509614 1.178568 1.554057
  17 0.000000 2.370679 0.000000 0.559185 -0.006380 0.000490
  18 -0.000000 1.895272 0.000001 -0.131907 -0.029106 0.002362
  19 0.000001 4.778712 -0.000002 0.532494 -0.036342 0.082294
  20 0.000002 5.917944 -0.000007 0.456428 -0.011525 0.003557
  21 0.000001 5.844543 -0.000006 1.041853 -0.056635 0.105435
  22 0.000001 4.734657 -0.000004 0.401603 -0.066931 -0.080704
  23 -0.000000 4.479234 0.000001 -0.583383 0.509464 -1.597954
  24 -0.018880 10.174581 -5.360419 0.431511 0.001724 -0.026398
  25 0.000000 1.635713 -0.000001 0.541395 0.042509 -0.789867
  26 -0.000002 2.115241 0.000001 0.312307 -0.482749 -0.844643
  27 0.000001 2.301959 0.000000 0.618236 -0.445989 -0.834254
  28 2.885959 1.661014 0.143899 0.796282 -0.085818 -2.967342
  29 0.000143 11.517455 -0.000056 -1.057864 -0.062698 -0.108399
  30 -0.000173 12.734401 -0.000062 1.421696 0.032982 -0.000703
  31 -0.000022 5.021155 0.000032 0.727722 -0.032915 -0.036009
  32 -2.885958 1.661014 0.143901 0.946901 0.099459 2.989840
  33 -0.000088 11.517455 -0.000048 -1.120458 0.069615 0.112018
  34 0.000217 12.734466 0.000089 1.334530 -0.025836 -0.019346
  35 -0.000009 5.021149 0.000038 0.727722 0.032906 0.036009
  36 -2.586583 5.468590 -19.332434 0.000000 -0.000000 1.570796
  37 15.378815 4.642630 -6.432432 0.000000 0.000000 -1.570796
  38 -0.150439 -5.089325 -19.276638 0.000000 -0.000000 1.570796
  39 15.378815 -4.642629 -6.432432 0.000000 0.000000 -1.570796
  40 -0.933843 19.365597 4.862603 0.000000 -0.000000 1.570796
  41 0.306253 -23.688591 7.108658 0.000000 -0.000000 1.570796
  42 -6.664208 22.528687 1.617156 0.000000 -0.000000 1.570796
  43 -19.114553 -7.231793 8.846781 0.000000 -0.000000 1.570796
  time 3
  0 0.365973 0.000000 -3.117494 2.250772 0.000000 1.570796
  1 -0.000000 7.787996 0.000000 -0.285473 0.108994 -0.044821
  2 -0.000000 6.830342 -0.000001 -0.357481 0.000594 0.016598
  3 -0.000000 6.307691 -0.000000 0.990027 -0.000000 -0.000000
  4 0.000000 2.062052 0.000000 -0.597014 -0.088283 0.057983
  5 3.462712 0.878777 -2.964390 1.508386 0.052358 2.816472
  6 3.325126 6.635755 -0.656393 -0.115246 0.348888 -2.066765
  7 0.000001 6.186779 -0.000001 -0.402382 1.138109 -0.309531
  8 0.000000 9.277201 0.000001 1.403723 -0.233494 -0.518893
  9 0.000000 8.547144 -0.000000 0.251695 -0.128350 -0.215787
  10 -3.325127 6.635755 -0.656394 -0.115247 -0.348888 2.066765
  11 -0.000002 6.186779 0.000000 -0.238610 0.515309 -0.168984
  12 -0.000001 9.277200 -0.000001 0.043416 -0.453707 0.679289
  13 0.000003 8.547145 -0.000001 0.162171 -0.425049 -0.182356
  14 0.242424 2.653008 -1.605146 1.480065 0.004474 0.052683
  15 -0.079156 8.273304 -13.071129 -1.564730 0.000269 0.000023
  16 -5.283370 -0.941654 -9.166865 -1.509614 1.178568 1.554056
  17 0.000001 2.370679 0.000000 0.559185 -0.006380 0.000490
  18 0.000001 1.895272 0.000002 -0.197886 -0.141820 -0.073450
  19 -0.000002 4.778712 -0.000004 0.484045 -0.137332 0.132048
  20 -0.000004 5.917946 -0.000009 0.446852 -0.098621 0.141980
  21 -0.000004 5.844545 -0.000006 1.049119 -0.149628 0.231820
  22 -0.000002 4.734661 -0.000001 0.398908 -0.061383 0.019811
  23 -0.000001 4.479235 -0.000003 -0.620271 0.501660 -1.603529
  24 -0.018879 10.174584 -5.360421 0.417673 0.032883 -0.013092
  25 0.000000 1.635714 -0.000000 0.569208 0.122256 -0.836886
  26 0.000002 2.115242 0.000000 0.344884 -0.376054 -0.979848
  27 0.000001 2.301962 -0.000001 1.117365 -0.613157 -0.888656
  28 2.885958 1.661013 0.143899 1.152786 -0.169122 -2.988814
  29 0.000111 11.517439 -0.000004 -1.427213 -0.106008 -0.123191
  30 -0.000119 12.734426 0.000073 1.684732 0.057054 0.049191
  31 -0.000029 5.021147 0.000040 0.727722 -0.032916 -0.036008
  32 -2.885959 1.661013 0.143900 1.338761 0.182163 3.001745
  33 -0.000110 11.517430 0.000006 -1.499223 0.114905 0.124160
  34 0.000170 12.734422 0.000065 1.572103 -0.049748 -0.046891
  35 -0.000009 5.021143 0.000041 0.727722 0.032906 0.036009
  36 -3.426813 5.089325 -19.332434 0.000000 -0.000000 1.570796
  37 15.378815 4.642630 -6.432432 0.000000 0.000000 -1.570796
  38 -0.756417 -5.089325 -19.276638 0.000000 -0.000000 1.570796
  39 15.378815 -4.642629 -6.432432 0.000000 0.000000 -1.570796
  40 2.954064 16.903294 2.595628 0.000000 -0.000000 1.570796
  41 5.356586 -21.722071 2.107619 0.000000 -0.000000 1.570796
  42 1.676524 22.528687 4.643836 0.000000 -0.000000 1.570796
  43 -19.114553 -7.231793 8.846781 0.000000 -0.000000 1.570796
  time 4
  0 0.365973 0.000000 -5.826652 2.435928 0.000000 1.570796
  1 -0.000000 7.787995 -0.000000 -0.049341 0.116584 -0.018207
  2 -0.000000 6.830342 0.000000 -0.157860 -0.002563 0.039923
  3 -0.000000 6.307689 -0.000000 0.990027 -0.000000 -0.000000
  4 0.000000 2.062053 0.000000 -0.579925 -0.088146 0.058134
  5 3.462712 0.878775 -2.964390 1.508386 0.052358 2.816472
  6 3.325126 6.635754 -0.656393 -0.115246 0.348888 -2.066765
  7 -0.000001 6.186780 0.000000 -0.186726 0.955398 -0.054781
  8 0.000001 9.277197 0.000000 1.774949 -0.021339 -0.514934
  9 -0.000001 8.547141 0.000002 0.251695 -0.128350 -0.215787
  10 -3.325126 6.635753 -0.656394 -0.115247 -0.348888 2.066765
  11 0.000001 6.186778 0.000001 -0.188122 0.924733 -0.420521
  12 -0.000000 9.277203 0.000001 0.063909 -0.478228 1.179553
  13 -0.000000 8.547144 0.000001 0.340680 -0.360691 -0.528587
  14 0.242423 2.653007 -1.605145 1.480065 0.004474 0.052683
  15 -0.079158 8.273303 -13.071129 -1.564730 0.000269 0.000022
  16 -5.283369 -0.941655 -9.166864 -1.509614 1.178567 1.554056
  17 -0.000000 2.370679 -0.000000 0.559185 -0.006380 0.000490
  18 0.000001 1.895272 0.000001 0.183769 -0.205436 -0.045715
  19 -0.000003 4.778707 -0.000006 0.589597 -0.206771 0.184339
  20 -0.000004 5.917943 -0.000006 0.331957 -0.118852 0.223651
  21 -0.000003 5.844543 -0.000005 0.801555 -0.114897 0.331674
  22 -0.000002 4.734659 -0.000001 0.273997 0.005421 0.116388
  23 -0.000004 4.479239 0.000000 -0.716674 0.548585 -1.536013
  24 -0.018879 10.174579 -5.360422 0.436685 0.042218 -0.041142
  25 0.000000 1.635713 0.000001 0.633285 0.198675 -0.908949
  26 0.000001 2.115243 0.000000 0.378810 -0.282373 -1.074989
  27 -0.000002 2.301963 -0.000000 1.744213 -0.767305 -0.996752
  28 2.885958 1.661015 0.143898 1.436720 -0.274953 -2.989494
  29 0.000081 11.517426 0.000034 -1.731537 -0.143638 -0.122864
  30 -0.000121 12.734406 0.000043 1.881724 0.117365 0.074848
  31 -0.000029 5.021144 0.000040 0.727722 -0.032917 -0.036008
  32 -2.885959 1.661013 0.143899 -1.479830 2.876214 -0.107590
  33 -0.000117 11.517422 0.000045 -1.815941 0.153858 0.120740
  34 0.000147 12.734411 0.000036 1.749267 -0.082446 -0.079644
  35 -0.000009 5.021142 0.000040 0.727722 0.032906 0.036009
  36 -3.449525 5.500749 -19.332434 0.000000 -0.000000 1.570796
  37 15.378815 4.642630 -6.432432 0.000000 0.000000 -1.570796
  38 -0.756417 -5.089325 -19.276638 0.000000 -0.000000 1.570796
  39 15.378815 -4.642629 -6.432432 0.000000 0.000000 -1.570796
  40 6.841972 14.440992 0.328654 0.000000 -0.000000 1.570796
  41 11.128494 -19.755550 -2.893424 0.000000 -0.000000 1.570796
  42 10.017272 22.528687 11.302547 0.000000 -0.000000 1.570796
  43 -19.114553 -7.231793 8.846781 0.000000 -0.000000 1.570796
  time 5
  0 0.365973 0.000000 -7.058084 2.507580 0.000000 1.570796
  1 -0.000001 7.787996 0.000001 0.179814 0.117612 0.008632
  2 0.000002 6.830340 0.000000 0.007258 -0.008637 0.058443
  3 0.000001 6.307691 0.000000 0.990027 -0.000000 -0.000000
  4 0.000000 2.062053 0.000000 -0.533815 -0.087790 0.058555
  5 3.462712 0.878775 -2.964390 1.508386 0.052358 2.816472
  6 3.325127 6.635756 -0.656393 -0.115246 0.348888 -2.066765
  7 0.000003 6.186780 -0.000001 -0.105161 0.560190 -0.129763
  8 0.000000 9.277202 -0.000000 2.104956 0.152438 -0.447666
  9 0.000004 8.547144 0.000001 0.251695 -0.128350 -0.215787
  10 -3.325126 6.635756 -0.656393 -0.115247 -0.348888 2.066765
  11 -0.000001 6.186779 -0.000000 -0.906366 1.214572 -1.382067
  12 -0.000001 9.277202 0.000003 0.069141 -0.501467 1.569813
  13 -0.000003 8.547146 0.000001 0.408060 -0.334087 -0.664920
  14 0.242424 2.653008 -1.605147 1.480065 0.004474 0.052682
  15 -0.079162 8.273303 -13.071133 -1.564730 0.000269 0.000022
  16 -5.283370 -0.941655 -9.166866 -1.509614 1.178568 1.554057
  17 0.000000 2.370679 0.000001 0.559185 -0.006380 0.000489
  18 -0.000001 1.895273 0.000002 0.544895 -0.210755 0.029614
  19 0.000001 4.778707 -0.000001 0.693296 -0.183923 0.185109
  20 0.000000 5.917945 -0.000001 0.251078 -0.074123 0.173937
  21 0.000000 5.844551 -0.000003 0.619896 -0.032557 0.286177
  22 0.000000 4.734669 0.000000 0.191401 0.039482 0.111315
  23 -0.000001 4.479244 0.000002 -0.746875 0.606024 -1.460698
  24 -0.018878 10.174582 -5.360421 0.512608 0.016572 -0.095474
  25 0.000001 1.635715 0.000001 0.701287 0.210734 -0.959113
  26 0.000000 2.115242 0.000001 0.406589 -0.277005 -1.102614
  27 0.000001 2.301962 -0.000000 2.337239 -0.879954 -1.182395
  28 2.885959 1.661013 0.143900 -1.609223 -2.775134 0.172398
  29 0.000069 11.517420 0.000046 -1.841351 -0.156897 -0.119925
  30 -0.000120 12.734411 0.000037 1.955660 0.196138 0.078985
  31 -0.000027 5.021144 0.000040 0.727722 -0.032916 -0.036008
  32 -2.885959 1.661014 0.143901 -1.352396 2.835682 -0.087133
  33 -0.000117 11.517423 0.000056 -1.946315 0.169167 0.115765
  34 0.000144 12.734425 0.000031 1.824407 -0.102589 -0.098761
  35 -0.000009 5.021146 0.000037 0.727722 0.032906 0.036009
  36 -3.457892 6.264820 -19.332434 0.000000 -0.000000 1.570796
  37 15.378815 4.642630 -6.432432 0.000000 0.000000 -1.570796
  38 -0.756417 -5.089325 -19.276638 0.000000 -0.000000 1.570796
  39 15.378815 -4.642629 -6.432432 0.000000 0.000000 -1.570796
  40 10.729878 11.978691 -1.938321 0.000000 -0.000000 1.570796
  41 15.457620 -18.861679 -5.166619 0.000000 -0.000000 1.570796
  42 16.433233 22.528687 17.961258 0.000000 -0.000000 1.570796
  43 -19.114553 -7.231793 8.846781 0.000000 -0.000000 1.570796
  time 6
  0 0.365973 0.000000 -7.058084 2.507580 0.000000 1.570796
  1 -0.000001 7.787996 0.000001 0.341772 0.114253 0.027388
  2 0.000000 6.830341 0.000000 0.075289 -0.012014 0.065742
  3 -0.000000 6.307690 0.000000 0.990027 -0.000000 -0.000000
  4 0.000000 2.062054 -0.000000 -0.436290 -0.087102 0.059497
  5 3.462712 0.878776 -2.964390 1.508386 0.052358 2.816472
  6 3.325126 6.635754 -0.656392 -0.115246 0.348888 -2.066765
  7 -0.000001 6.186779 -0.000001 0.382844 0.241845 0.107331
  8 0.000001 9.277202 0.000001 2.278144 0.228580 -0.392246
  9 -0.000000 8.547144 0.000002 0.577256 -0.314261 -0.526894
  10 -3.325126 6.635753 -0.656394 -0.115247 -0.348888 2.066766
  11 0.000001 6.186780 -0.000000 -1.506852 0.992584 -2.038341
  12 -0.000002 9.277205 -0.000000 0.067631 -0.514095 1.780025
  13 -0.000002 8.547146 0.000001 0.345053 -0.381399 -0.644274
  14 0.242425 2.653009 -1.605146 1.480065 0.004474 0.052683
  15 -0.079154 8.273306 -13.071134 -1.564730 0.000269 0.000023
  16 -5.283370 -0.941655 -9.166864 -1.509614 1.178568 1.554057
  17 0.000000 2.370679 0.000000 0.559185 -0.006380 0.000489
  18 0.000001 1.895273 0.000001 0.564359 -0.155552 0.014509
  19 0.000001 4.778707 0.000001 0.731258 -0.145384 0.157986
  20 0.000002 5.917945 0.000000 0.294050 -0.059812 0.143683
  21 0.000001 5.844548 -0.000001 0.660160 -0.030980 0.266313
  22 -0.000003 4.734665 0.000001 0.213942 0.029709 0.099767
  23 -0.000001 4.479248 0.000002 -0.732699 0.607515 -1.459110
  24 -0.018880 10.174577 -5.360418 0.578182 -0.008301 -0.133114
  25 -0.000000 1.635711 -0.000000 0.724004 0.164883 -0.944230
  26 -0.000002 2.115241 -0.000001 0.420976 -0.308518 -1.076458
  27 -0.000004 2.301960 -0.000000 -0.465429 -2.218125 1.761522
  28 2.885959 1.661013 0.143900 -1.617171 -2.754272 0.191850
  29 0.000068 11.517418 0.000046 -1.830876 -0.155649 -0.120269
  30 -0.000119 12.734408 0.000036 1.946343 0.222337 0.065094
  31 -0.000029 5.021145 0.000040 0.727722 -0.032917 -0.036008
  32 -2.885959 1.661014 0.143901 -1.352396 2.835682 -0.087133
  33 -0.000117 11.517423 0.000056 -1.946315 0.169167 0.115765
  34 0.000144 12.734425 0.000031 1.824407 -0.102589 -0.098761
  35 -0.000009 5.021146 0.000037 0.727722 0.032906 0.036009
  36 -3.459087 6.676243 -19.332434 0.000000 -0.000000 1.570796
  37 15.378815 4.642630 -6.432432 0.000000 0.000000 -1.570796
  38 -0.756417 -5.089325 -19.276638 0.000000 -0.000000 1.570796
  39 15.378815 -4.642629 -6.432432 0.000000 0.000000 -1.570796
  40 14.617786 9.516391 -4.205297 0.000000 -0.000000 1.570796
  41 16.780621 -18.861679 -4.289319 0.000000 -0.000000 1.570796
  42 18.999613 22.528687 20.987938 0.000000 -0.000000 1.570796
  43 -19.114553 -7.231793 8.846781 0.000000 -0.000000 1.570796
  time 7
  0 0.365973 0.000000 -7.058084 2.507580 0.000000 1.570796
  1 -0.000001 7.787996 0.000001 0.397313 0.112368 0.033665
  2 0.000000 6.830342 0.000000 0.075289 -0.012014 0.065742
  3 -0.000000 6.307691 0.000001 0.990027 -0.000000 -0.000000
  4 0.000000 2.062054 -0.000001 -0.259210 -0.086099 0.061360
  5 3.462712 0.878776 -2.964390 1.508386 0.052358 2.816471
  6 3.325126 6.635755 -0.656392 -0.115246 0.348888 -2.066765
  7 0.000002 6.186779 -0.000000 0.368691 0.222878 0.033595
  8 -0.000001 9.277202 -0.000000 2.293031 0.234530 -0.386941
  9 0.000002 8.547151 0.000004 0.679923 -0.286425 -0.515718
  10 -3.325126 6.635755 -0.656393 -0.115247 -0.348888 2.066765
  11 -0.000002 6.186777 0.000001 -1.560503 0.893071 -2.070231
  12 -0.000003 9.277203 0.000001 0.066757 -0.517254 1.833967
  13 -0.000001 8.547146 -0.000001 0.427323 -0.345594 -0.593588
  14 0.242424 2.653008 -1.605144 1.480065 0.004474 0.052683
  15 -0.079154 8.273302 -13.071129 -1.564730 0.000269 0.000022
  16 -5.283369 -0.941654 -9.166866 -1.509614 1.178568 1.554056
  17 0.000000 2.370679 0.000001 0.559185 -0.006380 0.000489
  18 0.000000 1.895271 0.000001 0.534648 -0.141983 0.006241
  19 0.000001 4.778705 0.000000 0.737689 -0.139276 0.151848
  20 0.000001 5.917946 0.000002 0.321518 -0.060739 0.140482
  21 0.000001 5.844554 0.000003 0.695554 -0.039406 0.265050
  22 0.000002 4.734670 0.000001 0.231959 0.022465 0.096881
  23 0.000001 4.479245 0.000000 -0.724409 0.602800 -1.465589
  24 -0.018879 10.174584 -5.360419 0.623030 -0.018241 -0.152243
  25 0.000000 1.635714 -0.000000 0.700688 0.095688 -0.873672
  26 -0.000003 2.115242 -0.000002 0.412440 -0.348126 -1.006654
  27 -0.000001 2.301960 0.000000 -0.372774 -2.192856 1.598825
  28 2.885959 1.661013 0.143900 -1.608829 -2.768553 0.178124
  29 0.000068 11.517418 0.000047 -1.839394 -0.156665 -0.119990
  30 -0.000122 12.734409 0.000037 1.951351 0.204086 0.074446
  31 -0.000028 5.021143 0.000040 0.727722 -0.032917 -0.036008
  32 -2.885959 1.661014 0.143901 -1.352396 2.835682 -0.087133
  33 -0.000117 11.517423 0.000056 -1.946315 0.169167 0.115765
  34 0.000144 12.734425 0.000031 1.824407 -0.102589 -0.098761
  35 -0.000009 5.021146 0.000037 0.727722 0.032906 0.036009
  36 -3.426813 6.392300 -19.332434 0.000000 -0.000000 1.570796
  37 15.378815 4.642630 -6.432432 0.000000 0.000000 -1.570796
  38 -0.756417 -5.089325 -19.276638 0.000000 -0.000000 1.570796
  39 15.378815 -4.642629 -6.432432 0.000000 0.000000 -1.570796
  40 14.617786 9.516391 -4.548127 0.000000 -0.000000 1.570796
  41 16.780621 -18.861679 -3.927758 0.000000 -0.000000 1.570796
  42 18.999613 22.528687 20.987938 0.000000 -0.000000 1.570796
  43 -19.114553 -7.231793 8.846781 0.000000 -0.000000 1.570796
  time 8
  0 0.365973 0.000000 -7.058084 2.507580 0.000000 1.570796
  1 -0.000001 7.787996 0.000001 0.341772 0.114253 0.027388
  2 0.000000 6.830341 0.000000 0.075289 -0.012014 0.065742
  3 -0.000000 6.307690 0.000000 0.990027 -0.000000 -0.000000
  4 0.000000 2.062054 -0.000000 -0.258699 -0.086096 0.061366
  5 3.462712 0.878775 -2.964390 1.508386 0.052358 2.816472
  6 3.325126 6.635754 -0.656392 -0.115246 0.348888 -2.066765
  7 -0.000001 6.186779 -0.000001 0.358789 0.251018 0.092435
  8 0.000002 9.277204 0.000002 2.309574 0.241025 -0.380954
  9 -0.000001 8.547148 0.000003 0.714529 -0.298448 -0.454977
  10 -3.325126 6.635753 -0.656394 -0.115247 -0.348888 2.066766
  11 0.000001 6.186780 -0.000000 -1.502481 0.947073 -2.031235
  12 -0.000002 9.277204 -0.000000 0.067242 -0.515595 1.805541
  13 -0.000000 8.547145 0.000001 0.426735 -0.355796 -0.574405
  14 0.242425 2.653008 -1.605146 1.480065 0.004474 0.052683
  15 -0.079153 8.273304 -13.071131 -1.564730 0.000269 0.000023
  16 -5.283370 -0.941655 -9.166864 -1.509614 1.178568 1.554057
  17 0.000000 2.370679 0.000000 0.559185 -0.006380 0.000489
  18 0.000001 1.895273 0.000001 0.552879 -0.153451 0.011595
  19 0.000001 4.778707 0.000000 0.734976 -0.145965 0.156994
  20 0.000002 5.917946 0.000000 0.306266 -0.061843 0.144689
  21 0.000001 5.844546 -0.000001 0.675225 -0.035663 0.267548
  22 -0.000002 4.734664 0.000001 0.221556 0.026757 0.099762
  23 -0.000001 4.479247 0.000003 -0.729641 0.605526 -1.461815
  24 -0.018880 10.174577 -5.360418 0.612058 -0.016005 -0.144514
  25 0.000000 1.635709 0.000000 0.695733 0.100589 -0.874550
  26 -0.000002 2.115241 -0.000001 0.408205 -0.349774 -1.008180
  27 -0.000003 2.301961 0.000000 -0.450691 -2.188135 1.645986
  28 2.885959 1.661013 0.143900 -1.446584 -2.790026 0.138099
  29 0.000071 11.517426 0.000051 -1.904567 -0.164345 -0.117573
  30 -0.000120 12.734422 0.000028 1.864955 0.162308 0.073338
  31 -0.000025 5.021149 0.000036 0.727722 -0.032916 -0.036008
  32 -2.885959 1.661014 0.143901 -1.395188 2.835497 -0.093149
  33 -0.000118 11.517422 0.000055 -1.936179 0.168002 0.116224
  34 0.000145 12.734421 0.000033 1.855888 -0.105386 -0.102135
  35 -0.000009 5.021145 0.000036 0.727722 0.032906 0.036009
  36 -1.668575 5.942078 -19.332434 0.000000 -0.000000 1.570796
  37 15.378815 4.642630 -6.432432 0.000000 0.000000 -1.570796
  38 -1.249770 -5.089325 -19.276638 0.000000 -0.000000 1.570796
  39 15.378815 -4.642629 -6.432432 0.000000 0.000000 -1.570796
  40 14.617786 9.516391 -3.917676 0.000000 -0.000000 1.570796
  41 16.780621 -18.861679 -3.876107 0.000000 -0.000000 1.570796
  42 18.999613 22.528687 20.987938 0.000000 -0.000000 1.570796
  43 -19.114553 -7.231793 8.846781 0.000000 -0.000000 1.570796
  time 9
  0 0.365973 0.000000 -7.046286 2.505080 0.000000 1.570796
  1 0.000000 7.787994 0.000001 0.258220 0.116220 0.017771
  2 0.000001 6.830340 0.000001 0.075289 -0.012014 0.065742
  3 0.000001 6.307690 0.000000 0.990027 -0.000000 -0.000000
  4 0.000000 2.062052 0.000000 -0.251040 -0.086059 0.061451
  5 3.462712 0.878776 -2.964390 1.508386 0.052358 2.816472
  6 3.325127 6.635756 -0.656393 -0.115246 0.348888 -2.066765
  7 -0.000000 6.186780 0.000000 0.382694 0.276095 0.218599
  8 0.000003 9.277202 -0.000000 2.297694 0.236373 -0.385263
  9 0.000001 8.547149 0.000002 0.709723 -0.343744 -0.329689
  10 -3.325126 6.635754 -0.656392 -0.115247 -0.348888 2.066765
  11 -0.000004 6.186779 -0.000001 -1.388637 1.147408 -1.942464
  12 0.000001 9.277203 -0.000000 0.068772 -0.507778 1.674101
  13 0.000000 8.547150 0.000001 0.385924 -0.373254 -0.683678
  14 0.242422 2.653008 -1.605145 1.480065 0.004474 0.052683
  15 -0.079160 8.273305 -13.071136 -1.564730 0.000269 0.000022
  16 -5.283370 -0.941655 -9.166864 -1.509614 1.178567 1.554057
  17 0.000000 2.370679 0.000000 0.559185 -0.006380 0.000489
  18 -0.000000 1.895272 0.000002 0.633968 -0.187612 0.034608
  19 0.000001 4.778707 -0.000000 0.721520 -0.158213 0.170426
  20 0.000003 5.917946 -0.000001 0.241213 -0.057649 0.147162
  21 -0.000001 5.844551 -0.000003 0.589735 -0.013758 0.264519
  22 -0.000001 4.734664 0.000001 0.179981 0.043022 0.104533
  23 -0.000000 4.479239 0.000003 -0.747103 0.620797 -1.441282
  24 -0.018879 10.174582 -5.360420 0.596850 -0.012656 -0.133481
  25 0.000000 1.635712 0.000000 0.686179 0.104193 -0.871806
  26 -0.000003 2.115244 0.000001 0.401374 -0.353983 -1.006467
  27 0.000001 2.301962 0.000000 -0.572247 -2.183491 1.712844
  28 2.885959 1.661013 0.143901 -1.132867 -2.818439 0.071561
  29 0.000078 11.517442 0.000050 -1.955329 -0.170202 -0.115343
  30 -0.000117 12.734443 0.000019 1.614938 0.110530 0.056958
  31 -0.000021 5.021152 0.000032 0.727722 -0.032914 -0.036009
  32 -2.885959 1.661013 0.143901 -1.501508 2.836563 -0.107437
  33 -0.000119 11.517415 0.000049 -1.903664 0.164235 0.117614
  34 0.000149 12.734415 0.000039 1.924541 -0.111945 -0.109538
  35 -0.000009 5.021145 0.000037 0.727722 0.032906 0.036009
  36 2.073688 5.521584 -19.332434 0.000000 -0.000000 1.570796
  37 15.378815 4.642630 -6.432432 0.000000 0.000000 -1.570796
  38 -2.426226 -5.089325 -19.276638 0.000000 -0.000000 1.570796
  39 15.378815 -4.642629 -6.432432 0.000000 0.000000 -1.570796
  40 14.617786 9.516391 -3.287225 0.000000 -0.000000 1.570796
  41 16.780621 -18.861679 -4.863748 0.000000 -0.000000 1.570796
  42 18.999613 22.528687 20.987938 0.000000 -0.000000 1.570796
  43 -19.114553 -7.231793 8.846781 0.000000 -0.000000 1.570796
  time 10
  0 0.365973 0.000000 -6.963699 2.492500 0.000000 1.570796
  1 0.000001 7.787996 0.000000 0.183863 0.117203 0.009113
  2 0.000001 6.830341 0.000001 0.075289 -0.012014 0.065742
  3 0.000000 6.307689 0.000001 0.990027 -0.000000 -0.000000
  4 0.000000 2.062054 -0.000000 -0.217834 -0.085904 0.061821
  5 3.462711 0.878776 -2.964390 1.508386 0.052358 2.816472
  6 3.325126 6.635756 -0.656392 -0.115246 0.348888 -2.066765
  7 0.000000 6.186780 -0.000001 0.401217 0.291655 0.362682
  8 0.000001 9.277202 -0.000002 2.310578 0.241415 -0.380587
  9 0.000001 8.547150 0.000002 0.529657 -0.363674 -0.099199
  10 -3.325125 6.635754 -0.656392 -0.115247 -0.348888 2.066765
  11 -0.000001 6.186781 -0.000000 -1.054048 1.365390 -1.613469
  12 0.000000 9.277205 -0.000000 0.068788 -0.495388 1.469697
  13 -0.000002 8.547145 -0.000000 0.410103 -0.363423 -0.720626
  14 0.242426 2.653009 -1.605144 1.480065 0.004474 0.052683
  15 -0.079154 8.273309 -13.071130 -1.564730 0.000269 0.000023
  16 -5.283368 -0.941657 -9.166864 -1.509614 1.178567 1.554056
  17 0.000000 2.370679 0.000001 0.559185 -0.006380 0.000490
  18 -0.000000 1.895272 0.000001 0.742049 -0.245167 0.073018
  19 0.000000 4.778706 -0.000000 0.694824 -0.172970 0.187120
  20 0.000000 5.917947 0.000000 0.152662 -0.050959 0.140441
  21 0.000001 5.844555 -0.000000 0.476197 0.015512 0.247072
  22 -0.000000 4.734669 0.000002 0.129331 0.061220 0.105627
  23 0.000000 4.479244 0.000004 -0.763754 0.648544 -1.404721
  24 -0.018878 10.174581 -5.360418 0.590450 -0.010646 -0.126454
  25 0.000000 1.635713 0.000000 0.671946 0.095560 -0.857221
  26 -0.000002 2.115242 -0.000000 0.392019 -0.367263 -0.991703
  27 0.000001 2.301961 0.000001 -0.691819 -2.174874 1.759558
  28 2.885959 1.661013 0.143900 -0.902965 -2.857530 0.013530
  29 0.000083 11.517449 0.000046 -1.892683 -0.162956 -0.118052
  30 -0.000109 12.734442 0.000016 1.321461 0.072904 0.049889
  31 -0.000020 5.021152 0.000031 0.727722 -0.032914 -0.036009
  32 -2.885958 1.661016 0.143900 -1.640598 2.842875 -0.125247
  33 -0.000123 11.517414 0.000046 -1.845191 0.157349 0.119799
  34 0.000146 12.734411 0.000045 1.989773 -0.118500 -0.115440
  35 -0.000009 5.021146 0.000038 0.727722 0.032906 0.036009
  36 5.791745 5.210705 -19.332434 0.000000 -0.000000 1.570796
  37 15.378815 4.642630 -6.432432 0.000000 0.000000 -1.570796
  38 -3.830382 -5.089325 -19.276638 0.000000 -0.000000 1.570796
  39 15.378815 -4.642629 -6.432432 0.000000 0.000000 -1.570796
  40 14.624007 9.516391 -2.323466 0.000000 -0.000000 1.570796
  41 16.780621 -18.861679 -6.026223 0.000000 -0.000000 1.570796
  42 18.999613 22.528687 20.987938 0.000000 -0.000000 1.570796
  43 -19.114553 -7.231793 8.846781 0.000000 -0.000000 1.570796
  time 11
  0 0.365973 0.000000 -6.739536 2.462233 0.000000 1.570796
  1 0.000001 7.787995 0.000000 0.130684 0.117470 0.002894
  2 -0.000000 6.830341 -0.000000 0.075289 -0.012014 0.065742
  3 0.000000 6.307690 0.000000 0.990027 -0.000000 -0.000000
  4 0.000000 2.062053 -0.000000 -0.128420 -0.085547 0.062842
  5 3.462712 0.878776 -2.964390 1.508386 0.052358 2.816472
  6 3.325126 6.635754 -0.656393 -0.115246 0.348888 -2.066765
  7 0.000002 6.186780 0.000000 0.381824 0.245462 0.172773
  8 0.000002 9.277201 0.000000 2.298925 0.236858 -0.384819
  9 -0.000001 8.547146 0.000002 0.314710 -0.332915 0.051054
  10 -3.325126 6.635755 -0.656393 -0.115247 -0.348888 2.066765
  11 -0.000000 6.186779 -0.000000 -0.249849 1.443053 -0.807618
  12 -0.000000 9.277199 0.000000 0.067499 -0.488333 1.352568
  13 -0.000000 8.547141 -0.000000 0.376237 -0.395625 -0.677236
  14 0.242425 2.653008 -1.605144 1.480065 0.004474 0.052683
  15 -0.079157 8.273306 -13.071125 -1.564730 0.000269 0.000023
  16 -5.283370 -0.941655 -9.166863 -1.509613 1.178568 1.554056
  17 0.000000 2.370679 -0.000000 0.559185 -0.006380 0.000489
  18 -0.000001 1.895273 0.000001 0.791402 -0.292623 0.101534
  19 -0.000001 4.778707 0.000001 0.673959 -0.186718 0.198611
  20 0.000001 5.917946 -0.000000 0.105293 -0.050269 0.134966
  21 0.000001 5.844551 -0.000002 0.417466 0.028636 0.233007
  22 0.000002 4.734667 -0.000003 0.105694 0.068865 0.104439
  23 -0.000001 4.479242 0.000000 -0.768974 0.666584 -1.381152
  24 -0.018879 10.174582 -5.360419 0.611848 -0.011053 -0.132826
  25 0.000000 1.635713 0.000000 0.648691 0.060394 -0.817823
  26 -0.000000 2.115243 -0.000001 0.373988 -0.405039 -0.944537
  27 0.000001 2.301962 0.000001 -0.796166 -2.144382 1.760790
  28 2.885959 1.661015 0.143899 -0.873042 -2.880836 -0.000570
  29 0.000086 11.517449 0.000039 -1.809929 -0.153140 -0.120916
  30 -0.000106 12.734446 0.000022 1.180803 0.060191 0.050282
  31 -0.000021 5.021152 0.000032 0.727722 -0.032914 -0.036009
  32 -2.885958 1.661014 0.143901 1.362877 0.283760 2.998927
  33 -0.000126 11.517414 0.000041 -1.770413 0.148366 0.121995
  34 0.000149 12.734409 0.000054 2.020995 -0.120406 -0.114488
  35 -0.000009 5.021142 0.000041 0.727722 0.032906 0.036009
  36 7.477367 5.089325 -19.332434 0.000000 -0.000000 1.570796
  37 15.378815 4.642630 -6.432432 0.000000 0.000000 -1.570796
  38 -5.006838 -5.089325 -19.276638 0.000000 -0.000000 1.570796
  39 15.378815 -4.642629 -6.432432 0.000000 0.000000 -1.570796
  40 14.630229 9.516391 -1.359706 0.000000 -0.000000 1.570796
  41 16.780621 -18.541580 -6.142781 0.000000 -0.000000 1.570796
  42 13.373809 22.528687 20.987938 0.000000 -0.000000 1.570796
  43 -19.114553 -7.231793 8.846781 0.000000 -0.000000 1.570796
  time 12
  0 0.365973 0.000000 -6.303007 2.406466 0.000000 1.570796
  1 0.000000 7.787995 -0.000000 0.110382 0.117475 0.000519
  2 0.000001 6.830341 0.000001 0.075289 -0.012014 0.065742
  3 0.000000 6.307691 0.000001 0.990027 -0.000000 -0.000000
  4 0.000000 2.062053 -0.000001 -0.422901 -0.087044 0.059629
  5 3.462712 0.878776 -2.964390 1.508386 0.052358 2.816472
  6 3.325126 6.635754 -0.656393 -0.115246 0.348888 -2.066765
  7 -0.000002 6.186781 -0.000001 0.392162 0.153115 -0.239664
  8 -0.000000 9.277202 0.000001 2.248562 0.216469 -0.402548
  9 0.000001 8.547150 0.000005 0.371000 -0.302728 -0.480692
  10 -3.325126 6.635754 -0.656394 -0.115247 -0.348888 2.066765
  11 -0.000001 6.186781 -0.000000 0.795215 1.371576 0.246558
  12 -0.000000 9.277204 -0.000000 0.062286 -0.474998 1.122041
  13 0.000000 8.547147 -0.000001 0.323325 -0.444336 -0.609401
  14 0.242424 2.653008 -1.605144 1.480065 0.004474 0.052683
  15 -0.079159 8.273303 -13.071131 -1.564730 0.000269 0.000023
  16 -5.283369 -0.941655 -9.166864 -1.509614 1.178567 1.554056
  17 -0.000001 2.370679 -0.000001 0.559185 -0.006380 0.000489
  18 -0.000000 1.895272 0.000001 0.877677 -0.357281 0.145130
  19 0.000002 4.778705 0.000003 0.625434 -0.189665 0.204104
  20 -0.000000 5.917944 -0.000001 0.023927 -0.043576 0.107093
  21 -0.000001 5.844553 0.000000 0.319870 0.051809 0.193920
  22 0.000000 4.734670 0.000002 0.074179 0.077857 0.098628
  23 0.000001 4.479243 -0.000002 -0.767397 0.709047 -1.324418
  24 -0.018879 10.174584 -5.360418 0.505344 0.012433 -0.083915
  25 0.000000 1.635713 0.000001 0.676365 0.176966 -0.920888
  26 0.000000 2.115243 -0.000001 0.397117 -0.303991 -1.067809
  27 0.000002 2.301960 0.000000 2.206152 -0.884538 -1.161652
  28 2.885959 1.661013 0.143900 -0.970736 -2.889298 0.018885
  29 0.000088 11.517445 0.000035 -1.758321 -0.146903 -0.122283
  30 -0.000110 12.734447 0.000026 1.168510 0.056330 0.048142
  31 -0.000021 5.021152 0.000032 0.727722 -0.032914 -0.036009
  32 -2.885959 1.661014 0.143901 1.256601 0.258597 2.984215
  33 -0.000124 11.517416 0.000029 -1.700620 0.139845 0.123426
  34 0.000152 12.734399 0.000060 2.001503 -0.113069 -0.104339
  35 -0.000010 5.021141 0.000041 0.727722 0.032907 0.036009
  36 7.477367 5.089325 -19.332434 0.000000 -0.000000 1.570796
  37 15.378815 4.642630 -6.432432 0.000000 0.000000 -1.570796
  38 -5.500191 -5.089326 -19.276638 0.000000 -0.000000 1.570796
  39 15.378815 -4.642629 -6.432432 0.000000 0.000000 -1.570796
  40 14.636450 9.516391 -0.395947 0.000000 -0.000000 1.570796
  41 16.780621 -18.701630 -6.128211 0.000000 -0.000000 1.570796
  42 3.069095 22.528687 20.987938 0.000000 -0.000000 1.570796
  43 -19.114553 -7.231793 8.846781 0.000000 -0.000000 1.570796
  time 13
  0 0.365973 0.000000 -5.583323 2.316825 0.000000 1.570796
  1 0.000000 7.787996 -0.000000 0.202771 0.116931 0.011330
  2 0.000001 6.830342 0.000001 0.075289 -0.012014 0.065742
  3 -0.000000 6.307690 0.000001 0.990027 -0.000000 -0.000000
  4 0.000000 2.062054 -0.000001 -0.724080 -0.089466 0.056938
  5 3.462711 0.878776 -2.964390 1.508387 0.052358 2.816472
  6 3.325126 6.635755 -0.656393 -0.115246 0.348888 -2.066765
  7 0.000001 6.186781 -0.000000 0.415956 0.079934 -0.475182
  8 0.000001 9.277206 0.000000 2.338259 0.251997 -0.370348
  9 0.000001 8.547151 0.000004 0.371000 -0.302728 -0.480692
  10 -3.325126 6.635754 -0.656394 -0.115247 -0.348888 2.066765
  11 -0.000001 6.186780 -0.000000 1.243296 1.266437 0.696717
  12 0.000001 9.277206 0.000001 0.054013 -0.463261 0.896974
  13 -0.000001 8.547145 0.000003 0.356695 -0.402418 -0.495234
  14 0.242424 2.653009 -1.605144 1.480065 0.004474 0.052683
  15 -0.079161 8.273309 -13.071135 -1.564730 0.000269 0.000023
  16 -5.283369 -0.941655 -9.166864 -1.509614 1.178567 1.554057
  17 -0.000000 2.370680 0.000000 0.559185 -0.006380 0.000489
  18 -0.000001 1.895272 0.000001 1.030629 -0.467479 0.206661
  19 0.000002 4.778705 0.000006 0.531737 -0.180239 0.190302
  20 0.000001 5.917949 -0.000000 -0.077928 -0.038522 0.045160
  21 0.000001 5.844557 -0.000000 0.195187 0.075556 0.119140
  22 0.000004 4.734669 -0.000002 0.058502 0.081588 0.093975
  23 0.000006 4.479245 -0.000003 -0.727436 0.806572 -1.180038
  24 -0.018879 10.174582 -5.360418 0.492815 0.040535 -0.090610
  25 -0.000000 1.635713 0.000001 0.699926 0.255355 -0.982591
  26 -0.000001 2.115244 -0.000001 0.398487 -0.242852 -1.131148
  27 -0.000001 2.301961 0.000001 2.188248 -0.841151 -1.104042
  28 2.885959 1.661013 0.143900 -1.127055 -2.905586 0.047478
  29 0.000084 11.517435 0.000025 -1.671650 -0.136284 -0.123840
  30 -0.000114 12.734432 0.000032 1.144995 0.050490 0.044278
  31 -0.000025 5.021150 0.000037 0.727722 -0.032916 -0.036008
  32 -2.885959 1.661013 0.143901 1.171048 0.223008 2.971537
  33 -0.000121 11.517425 0.000016 -1.634011 0.131628 0.124229
  34 0.000157 12.734409 0.000065 1.932397 -0.096657 -0.087117
  35 -0.000009 5.021143 0.000040 0.727722 0.032906 0.036009
  36 7.477367 5.089325 -19.332434 0.000000 -0.000000 1.570796
  37 15.378815 4.642630 -6.432432 0.000000 0.000000 -1.570796
  38 -5.277006 -5.089325 -19.276638 0.000000 -0.000000 1.570796
  39 15.378815 -4.642629 -6.432432 0.000000 0.000000 -1.570796
  40 14.633339 9.381177 1.610793 0.000000 -0.000000 1.570796
  41 16.780621 -18.861679 -6.026223 0.000000 -0.000000 1.570796
  42 -4.815735 22.528687 20.987938 0.000000 -0.000000 1.570796
  43 -19.114553 -7.231793 8.846781 0.000000 -0.000000 1.570796
  time 14
  0 0.365973 0.000000 -4.350746 2.183997 0.000000 1.570796
  1 -0.000000 7.787996 -0.000000 0.408452 0.112188 0.034924
  2 -0.000001 6.830342 -0.000001 0.075289 -0.012014 0.065742
  3 0.000000 6.307690 0.000000 0.990027 -0.000000 -0.000000
  4 -0.000000 2.062053 -0.000000 -1.018673 -0.092501 0.055120
  5 3.462711 0.878777 -2.964388 1.508386 0.052358 2.816472
  6 3.325126 6.635755 -0.656393 -0.115247 0.348888 -2.066765
  7 -0.000002 6.186781 -0.000001 0.505194 0.017752 -0.594893
  8 -0.000001 9.277200 0.000000 2.418376 0.280651 -0.339307
  9 0.000001 8.547148 0.000001 0.371000 -0.302728 -0.480692
  10 -3.325126 6.635756 -0.656392 -0.115247 -0.348888 2.066765
  11 0.000001 6.186780 -0.000000 1.276970 1.301209 0.810061
  12 -0.000000 9.277202 0.000001 0.055848 -0.465411 0.940683
  13 -0.000000 8.547145 0.000001 0.400967 -0.372568 -0.403594
  14 0.242426 2.653008 -1.605146 1.480065 0.004474 0.052683
  15 -0.079160 8.273311 -13.071134 -1.564730 0.000269 0.000022
  16 -5.283370 -0.941653 -9.166865 -1.509613 1.178567 1.554056
  17 -0.000001 2.370679 -0.000000 0.559185 -0.006380 0.000489
  18 -0.000001 1.895272 0.000002 0.926754 -0.426608 0.189777
  19 -0.000003 4.778708 0.000002 0.576735 -0.196599 0.206603
  20 -0.000001 5.917946 0.000001 -0.032246 -0.043676 0.081248
  21 0.000000 5.844555 0.000002 0.254346 0.063881 0.158710
  22 0.000003 4.734671 -0.000004 0.060926 0.080917 0.094343
  23 0.000003 4.479244 -0.000005 -0.755462 0.750183 -1.266846
  24 -0.018880 10.174582 -5.360419 0.570426 0.058143 -0.155563
  25 0.000000 1.635709 0.000000 0.736197 0.282118 -1.016148
  26 -0.000000 2.115243 0.000000 0.394082 -0.248948 -1.137769
  27 -0.000000 2.301961 0.000001 2.277118 -0.883157 -1.163232
  28 2.885959 1.661013 0.143900 -1.404521 -2.935433 0.093410
  29 0.000087 11.517433 0.000011 -1.556411 -0.122008 -0.124463
  30 -0.000121 12.734425 0.000045 1.169672 0.042881 0.039237
  31 -0.000029 5.021145 0.000040 0.727722 -0.032917 -0.036008
  32 -2.885959 1.661014 0.143901 1.048682 0.172995 2.961900
  33 -0.000115 11.517434 -0.000003 -1.520032 0.117485 0.124319
  34 0.000163 12.734415 0.000067 1.811814 -0.073598 -0.064161
  35 -0.000009 5.021142 0.000042 0.727722 0.032906 0.036009
  36 6.474640 5.089325 -19.332434 0.000000 -0.000000 1.570796
  37 15.378815 4.642630 -6.432432 0.000000 0.000000 -1.570796
  38 -4.719043 -5.089325 -19.276638 0.000000 -0.000000 1.570796
  39 15.378815 -4.642629 -6.432432 0.000000 0.000000 -1.570796
  40 14.630229 9.245965 3.617534 0.000000 -0.000000 1.570796
  41 14.726837 -18.861679 -4.785249 0.000000 -0.000000 1.570796
  42 -10.101171 22.528687 20.987938 0.000000 -0.000000 1.570796
  43 -19.114553 -7.231793 8.846781 0.000000 -0.000000 1.570796
  time 15
  0 0.365973 0.000000 -2.691166 2.024950 0.000000 1.570796
  1 0.000000 7.787997 -0.000001 0.613807 0.102761 0.057029
  2 0.000000 6.830341 -0.000000 0.075289 -0.012014 0.065742
  3 0.000000 6.307691 -0.000000 0.990027 -0.000000 -0.000000
  4 -0.000000 2.062053 -0.000000 -1.013870 -0.092448 0.055143
  5 3.462712 0.878775 -2.964391 1.508386 0.052358 2.816472
  6 3.325127 6.635756 -0.656393 -0.115246 0.348888 -2.066765
  7 0.000000 6.186781 -0.000000 0.666782 -0.038555 -0.627871
  8 -0.000001 9.277201 0.000000 2.412044 0.278494 -0.341832
  9 -0.000000 8.547147 0.000002 0.371000 -0.302728 -0.480692
  10 -3.325126 6.635756 -0.656393 -0.115247 -0.348888 2.066765
  11 -0.000001 6.186779 -0.000000 0.842327 1.378945 0.544115
  12 0.000001 9.277201 -0.000000 0.060564 -0.472026 1.067749
  13 0.000001 8.547146 0.000002 0.434631 -0.373298 -0.302891
  14 0.242424 2.653007 -1.605144 1.480065 0.004473 0.052683
  15 -0.079159 8.273306 -13.071130 -1.564730 0.000269 0.000022
  16 -5.283370 -0.941653 -9.166865 -1.509614 1.178567 1.554057
  17 -0.000001 2.370680 0.000000 0.559185 -0.006380 0.000489
  18 -0.000000 1.895272 0.000001 0.644350 -0.325160 0.113705
  19 -0.000000 4.778706 0.000000 0.632903 -0.225525 0.221656
  20 0.000001 5.917944 0.000001 0.113943 -0.071244 0.169136
  21 0.000001 5.844554 -0.000000 0.452988 0.008725 0.260811
  22 0.000001 4.734669 0.000001 0.115250 0.066379 0.109060
  23 0.000001 4.479238 -0.000001 -0.772507 0.641147 -1.415313
  24 -0.018879 10.174583 -5.360419 0.578779 0.055360 -0.162319
  25 0.000000 1.635714 -0.000001 0.742689 0.281347 -1.023085
  26 -0.000002 2.115242 0.000001 0.398382 -0.251228 -1.140802
  27 0.000003 2.301962 0.000000 2.342994 -0.890361 -1.186993
  28 2.885959 1.661013 0.143900 1.348967 -0.154614 -3.000582
  29 0.000096 11.517436 -0.000010 -1.403646 -0.103113 -0.122733
  30 -0.000127 12.734430 0.000059 1.243511 0.034159 0.032260
  31 -0.000030 5.021147 0.000041 0.727722 -0.032917 -0.036008
  32 -2.885959 1.661015 0.143901 0.878980 0.118001 2.960815
  33 -0.000101 11.517453 -0.000028 -1.345077 0.095959 0.121308
  34 0.000181 12.734437 0.000076 1.652625 -0.050549 -0.041384
  35 -0.000009 5.021148 0.000040 0.727722 0.032906 0.036009
  36 4.083526 5.089325 -19.332434 0.000000 -0.000000 1.570796
  37 15.378815 4.642630 -6.432432 0.000000 0.000000 -1.570796
  38 -3.993692 -5.089325 -19.276638 0.000000 -0.000000 1.570796
  39 15.378815 -4.642629 -6.432432 0.000000 0.000000 -1.570796
  40 14.627118 9.110753 5.624272 0.000000 -0.000000 1.570796
  41 10.912670 -18.861679 -2.056254 0.000000 -0.000000 1.570796
  42 -13.307092 22.528687 20.987938 0.000000 -0.000000 1.570796
  43 -19.114553 -7.231793 8.846781 0.000000 -0.000000 1.570796
  time 16
  0 0.365973 0.000000 -1.007234 1.871977 0.000000 1.570796
  1 0.000000 7.787996 -0.000000 0.705849 0.097106 0.066218
  2 -0.000000 6.830341 0.000001 0.075289 -0.012014 0.065742
  3 0.000000 6.307689 -0.000000 0.990027 -0.000000 -0.000000
  4 -0.000000 2.062053 -0.000000 -1.009067 -0.092394 0.055165
  5 3.462712 0.878775 -2.964390 1.508386 0.052358 2.816472
  6 3.325126 6.635754 -0.656393 -0.115246 0.348888 -2.066765
  7 0.000000 6.186780 -0.000002 0.829378 -0.077611 -0.596480
  8 0.000000 9.277199 0.000001 2.272338 0.226234 -0.394293
  9 0.000001 8.547145 0.000002 0.371000 -0.302728 -0.480692
  10 -3.325125 6.635754 -0.656394 -0.115247 -0.348888 2.066765
  11 -0.000001 6.186778 -0.000000 0.357400 1.401484 0.144685
  12 -0.000001 9.277206 0.000001 0.062770 -0.475910 1.138421
  13 -0.000002 8.547148 0.000002 0.482250 -0.387170 -0.131005
  14 0.242424 2.653008 -1.605144 1.480065 0.004474 0.052682
  15 -0.079155 8.273306 -13.071135 -1.564730 0.000269 0.000022
  16 -5.283370 -0.941655 -9.166864 -1.509614 1.178567 1.554057
  17 0.000000 2.370679 -0.000000 0.559185 -0.006380 0.000489
  18 -0.000001 1.895273 0.000002 0.507617 -0.296950 0.071805
  19 0.000000 4.778704 -0.000001 0.638616 -0.240805 0.220483
  20 -0.000002 5.917943 -0.000002 0.189470 -0.094930 0.203903
  21 -0.000002 5.844553 -0.000004 0.560909 -0.031850 0.300959
  22 -0.000001 4.734661 0.000001 0.159885 0.051785 0.119289
  23 -0.000003 4.479242 -0.000000 -0.763357 0.605787 -1.461100
  24 -0.018879 10.174582 -5.360420 0.563978 0.058190 -0.150364
  25 0.000000 1.635712 -0.000001 0.732994 0.282243 -1.013533
  26 -0.000001 2.115242 0.000002 0.393128 -0.247054 -1.137789
  27 -0.000001 2.301960 -0.000001 2.254484 -0.878402 -1.152781
  28 2.885959 1.661014 0.143900 0.939475 -0.093036 -2.978651
  29 0.000117 11.517445 -0.000041 -1.193458 -0.077947 -0.115683
  30 -0.000131 12.734446 0.000074 1.291575 0.026183 0.022088
  31 -0.000028 5.021147 0.000040 0.727722 -0.032916 -0.036008
  32 -2.885959 1.661014 0.143901 0.686110 0.070892 2.968942
  33 -0.000080 11.517474 -0.000062 -1.135370 0.071294 0.112816
  34 0.000201 12.734460 0.000083 1.487019 -0.033095 -0.023027
  35 -0.000009 5.021153 0.000035 0.727722 0.032906 0.036009
  36 1.229617 5.089325 -19.332434 0.000000 -0.000000 1.570796
  37 15.378815 4.642630 -6.432432 0.000000 0.000000 -1.570796
  38 -3.268340 -5.089325 -19.276638 0.000000 -0.000000 1.570796
  39 15.378815 -4.642629 -6.432432 0.000000 0.000000 -1.570796
  40 14.624007 8.975539 7.631014 0.000000 -0.000000 1.570796
  41 8.858887 -18.861679 1.194367 0.000000 -0.000000 1.570796
  42 -14.953374 22.528687 20.987938 0.000000 -0.000000 1.570796
  43 -19.114553 -7.231793 8.846781 0.000000 -0.000000 1.570796
  time 17
  0 0.365973 0.000000 0.298406 1.757675 -0.000000 1.570796
  1 0.000001 7.787997 -0.000001 0.370888 0.113413 0.030695
  2 -0.000001 6.830341 -0.000001 0.075289 -0.012015 0.065742
  3 -0.000001 6.307690 -0.000001 0.990027 -0.000000 -0.000000
  4 0.000000 2.062053 0.000001 -1.004265 -0.092341 0.055188
  5 3.462712 0.878775 -2.964391 1.508386 0.052358 2.816471
  6 3.325126 6.635756 -0.656394 -0.115246 0.348888 -2.066765
  7 -0.000001 6.186781 -0.000000 0.970925 -0.011802 -0.405535
  8 -0.000002 9.277204 0.000003 1.671666 -0.080388 -0.524020
  9 0.000000 8.547148 -0.000003 0.371000 -0.302728 -0.480692
  10 -3.325127 6.635755 -0.656395 -0.115247 -0.348888 2.066766
  11 -0.000000 6.186779 -0.000000 0.537903 1.132840 0.326613
  12 -0.000003 9.277200 0.000001 0.063142 -0.476639 1.151436
  13 -0.000001 8.547144 0.000002 0.561806 -0.418930 0.119192
  14 0.242425 2.653008 -1.605144 1.480065 0.004474 0.052683
  15 -0.079159 8.273301 -13.071133 -1.564730 0.000269 0.000022
  16 -5.283369 -0.941652 -9.166868 -1.509614 1.178567 1.554057
  17 0.000000 2.370679 0.000000 0.559185 -0.006380 0.000490
  18 -0.000001 1.895274 0.000000 0.399804 -0.353408 0.076625
  19 -0.000001 4.778708 -0.000000 0.647435 -0.312128 0.232711
  20 -0.000002 5.917943 -0.000001 0.250612 -0.151177 0.244822
  21 -0.000004 5.844553 -0.000003 0.639177 -0.085984 0.337613
  22 0.000000 4.734665 -0.000002 0.196730 0.037719 0.137597
  23 0.000001 4.479240 -0.000002 -0.756079 0.586313 -1.486859
  24 -0.018880 10.174584 -5.360423 0.505552 0.069627 -0.094135
  25 0.000000 1.635710 -0.000000 0.669840 0.249728 -0.942477
  26 -0.000000 2.115241 -0.000000 0.364469 -0.262561 -1.090816
  27 -0.000000 2.301962 0.000001 1.682287 -0.778832 -0.986377
  28 2.885959 1.661013 0.143899 0.601148 -0.046192 -2.981995
  29 0.000149 11.517476 -0.000078 -0.964652 -0.052853 -0.102226
  30 -0.000190 12.734414 -0.000061 1.289152 0.020389 0.010454
  31 -0.000020 5.021159 0.000032 0.727722 -0.032914 -0.036009
  32 -2.885958 1.661015 0.143901 0.516123 0.039313 2.981353
  33 -0.000061 11.517499 -0.000089 -0.939360 0.050296 0.100391
  34 0.000127 12.734412 -0.000063 1.349033 -0.022263 -0.009833
  35 -0.000008 5.021158 0.000030 0.727722 0.032905 0.036009
  36 -1.161497 5.089325 -19.332434 0.000000 -0.000000 1.570796
  37 15.378815 4.642630 -6.432432 0.000000 0.000000 -1.570796
  38 -2.710378 -5.089325 -19.276638 0.000000 -0.000000 1.570796
  39 15.378815 -4.642629 -6.432432 0.000000 0.000000 -1.570796
  40 14.620897 8.840325 9.637754 0.000000 -0.000000 1.570796
  41 8.858887 -16.480488 4.105634 0.000000 -0.000000 1.570796
  42 -15.559898 22.528688 20.987938 0.000000 -0.000000 1.570796
  43 -19.114553 -7.231793 8.846781 0.000000 -0.000000 1.570796
  time 18
  0 0.365973 0.000000 0.823096 1.712894 -0.000000 1.570796
  1 0.000000 7.787998 -0.000001 0.035173 0.117185 -0.008289
  2 -0.000002 6.830342 -0.000001 0.075289 -0.012014 0.065742
  3 -0.000001 6.307691 -0.000001 0.990027 -0.000000 -0.000000
  4 -0.000000 2.062052 0.000001 -0.999462 -0.092288 0.055211
  5 3.462713 0.878778 -2.964391 1.508386 0.052358 2.816472
  6 3.325126 6.635757 -0.656394 -0.115246 0.348888 -2.066765
  7 0.000001 6.186781 0.000001 1.145738 0.043543 -0.147371
  8 0.000000 9.277199 -0.000001 1.153520 -0.364372 -0.477735
  9 0.000000 8.547143 -0.000001 0.371000 -0.302728 -0.480692
  10 -3.325127 6.635756 -0.656395 -0.115247 -0.348888 2.066765
  11 -0.000001 6.186780 0.000001 0.623298 0.906088 0.455676
  12 -0.000001 9.277198 -0.000000 0.059426 -0.470251 1.034604
  13 -0.000002 8.547143 0.000003 0.607859 -0.446428 0.257446
  14 0.242425 2.653008 -1.605144 1.480065 0.004474 0.052682
  15 -0.079157 8.273304 -13.071134 -1.564730 0.000269 0.000022
  16 -5.283370 -0.941653 -9.166864 -1.509614 1.178567 1.554056
  17 -0.000001 2.370679 -0.000001 0.559185 -0.006380 0.000490
  18 0.000001 1.895272 0.000001 0.303011 -0.389037 0.078908
  19 -0.000003 4.778707 -0.000002 0.637778 -0.361176 0.233739
  20 -0.000002 5.917944 -0.000004 0.286036 -0.197242 0.267079
  21 -0.000003 5.844551 -0.000005 0.691280 -0.130383 0.360206
  22 -0.000002 4.734663 -0.000000 0.223041 0.026050 0.151826
  23 0.000000 4.479242 0.000001 -0.750212 0.573971 -1.503279
  24 -0.018880 10.174585 -5.360421 0.496037 0.063186 -0.070320
  25 -0.000000 1.635711 0.000000 0.628999 0.197080 -0.892724
  26 0.000001 2.115243 0.000002 0.347541 -0.317300 -1.033990
  27 -0.000001 2.301960 -0.000000 1.284520 -0.685813 -0.908074
  28 2.885960 1.661013 0.143899 0.454343 -0.029051 -2.988622
  29 0.000169 11.517488 -0.000094 -0.845747 -0.041202 -0.093073
  30 -0.000204 12.734413 -0.000070 1.273067 0.018012 0.004218
  31 -0.000019 5.021162 0.000029 0.727722 -0.032914 -0.036010
  32 -2.885959 1.661015 0.143902 0.440598 0.027845 2.988038
  33 -0.000053 11.517509 -0.000099 -0.847731 0.041403 0.093232
  34 0.000124 12.734410 -0.000070 1.288844 -0.018346 -0.004334
  35 -0.000009 5.021158 0.000030 0.727722 0.032905 0.036009
  36 -2.164223 5.089325 -19.332434 0.000000 -0.000000 1.570796
  37 15.378815 4.642630 -6.432432 0.000000 0.000000 -1.570796
  38 -2.487193 -5.089325 -19.276638 0.000000 -0.000000 1.570796
  39 15.378815 -4.642629 -6.432432 0.000000 0.000000 -1.570796
  40 14.617786 8.705113 11.644494 0.000000 -0.000000 1.570796
  41 8.858887 -14.866897 5.694207 0.000000 -0.000000 1.570796
  42 -15.646546 22.528687 20.987938 0.000000 -0.000000 1.570796
  43 -19.114553 -7.231793 8.846781 0.000000 -0.000000 1.570796
end
