version 1
nodes
0 "hips" -1
1 "spine" 0
2 "chest" 1
3 "neck" 2
4 "head" 3
5 "breathing_tube_5" 4
6 "Shoulder.L" 2
7 "arm_upper.L" 6
8 "arm_lower.L" 7
9 "hand.L" 8
10 "Shoulder.R" 2
11 "arm_upper.R" 10
12 "arm_lower.R" 11
13 "hand.R" 12
14 "weapon" 13
15 "muzzle_flash" 14
16 "weapon_cable_1" 2
17 "weapon_cable_2" 16
18 "weapon_cable_3" 17
19 "weapon_cable_4" 18
20 "weapon_cable_5" 19
21 "weapon_cable_6" 20
22 "weapon_cable_7" 21
23 "weapon_cable_8" 22
24 "breathing_tube_1" 2
25 "breathing_tube_2" 24
26 "breathing_tube_3" 25
27 "breathing_tube_4" 26
28 "leg_upper.L" 0
29 "leg_lower.L" 28
30 "foot.L" 29
31 "toes.L" 30
32 "leg_upper.R" 0
33 "leg_lower.R" 32
34 "foot.R" 33
35 "toes.R" 34
36 "leg_ik.L" -1
37 "leg_pull.L" -1
38 "leg_ik.R" -1
39 "leg_pull.R" -1
40 "hand_ik.L" -1
41 "hand_ik.R" -1
42 "hand_pull.L" -1
43 "hand_pull.R" -1
end
skeleton
  time 0
  0 0.365973 0.000000 2.695083 1.712894 -0.000000 1.570796
  1 0.000000 7.787998 -0.000001 -0.036147 0.000001 -0.000000
  2 -0.000002 6.830341 -0.000001 -0.498130 -0.000000 -0.000000
  3 -0.000000 6.307690 -0.000000 0.990027 -0.000000 -0.000000
  4 0.000000 2.062053 -0.000000 -0.437826 -0.087075 0.059482
  5 3.462712 0.878777 -2.964391 1.508386 0.052358 2.816472
  6 3.325126 6.635754 -0.656394 -0.115246 0.348888 -2.066765
  7 -0.000000 6.186780 0.000001 -0.157843 0.605745 -0.729389
  8 -0.000002 9.277203 0.000001 1.568845 -0.139712 -0.526974
  9 0.000002 8.547146 0.000002 0.295981 -0.088111 -0.220474
  10 -3.325126 6.635753 -0.656394 -0.115247 -0.348888 2.066765
  11 -0.000000 6.186779 0.000001 0.711298 0.383186 0.926737
  12 -0.000000 9.277200 -0.000000 0.068986 -0.497455 1.503763
  13 0.000001 8.547144 -0.000001 -0.207230 -0.021351 0.292355
  14 0.242425 2.653007 -1.605145 1.480065 0.004474 0.052683
  15 -0.079156 8.273297 -13.071125 -1.564730 0.000269 0.000022
  16 -5.283370 -0.941656 -9.166862 -1.509614 1.178568 1.554057
  17 -0.000000 2.370680 0.000000 0.559185 -0.006380 0.000490
  18 0.000001 1.895272 0.000001 0.142061 -0.525337 0.167687
  19 -0.000002 4.778708 -0.000003 0.888883 -0.543843 0.128826
  20 -0.000002 5.917942 -0.000004 0.643979 -0.422394 0.172132
  21 -0.000002 5.844545 -0.000001 0.950947 -0.376755 0.327570
  22 -0.000001 4.734663 -0.000006 0.353528 -0.069534 0.223882
  23 -0.000001 4.479241 -0.000003 -0.702191 0.586671 -1.480205
  24 -0.018880 10.174581 -5.360419 0.408743 -0.013697 -0.013766
  25 -0.000000 1.635713 -0.000001 0.544228 0.032632 -0.786693
  26 -0.000001 2.115244 -0.000000 0.335080 -0.469328 -0.869581
  27 0.000003 2.301961 0.000000 0.701441 -0.588652 -0.800503
  28 2.885960 1.661013 0.143899 0.394499 -0.020209 -3.018880
  29 0.000209 11.517520 -0.000131 -0.477125 -0.013169 -0.057067
  30 -0.000296 12.734374 -0.000126 0.964450 0.004868 -0.016333
  31 -0.000017 5.021166 0.000026 0.727722 -0.032913 -0.036010
  32 -2.885959 1.661014 0.143902 0.265720 0.012757 3.020993
  33 -0.000015 11.517567 -0.000146 -0.432187 0.010747 0.052043
  34 0.000103 12.734364 -0.000133 1.048463 -0.005696 0.018586
  35 -0.000009 5.021164 0.000025 0.727722 0.032905 0.036009
  36 0.804008 5.089325 -19.133162 0.000000 -0.000000 1.570796
  37 15.378815 4.642630 -6.432432 0.000000 0.000000 -1.570796
  38 -1.684173 -5.089325 -19.133162 0.000000 -0.000000 1.570796
  39 15.378815 -4.642629 -6.432432 0.000000 0.000000 -1.570796
  40 6.049639 9.732023 9.075574 0.000000 -0.000000 1.570796
  41 8.777196 -4.183107 12.828260 0.000000 -0.000000 1.570796
  42 -15.646546 22.528687 20.987938 0.000000 -0.000000 1.570796
  43 -15.646544 -12.176661 20.987938 0.000000 -0.000000 1.570796
  time 1
  0 0.365973 0.000000 2.549093 1.712894 -0.000000 1.570796
  1 0.000000 7.787998 -0.000001 -0.033824 0.000001 -0.000000
  2 -0.000001 6.830343 -0.000001 -0.501720 -0.000000 0.000000
  3 0.000001 6.307689 -0.000000 0.990027 -0.000000 -0.000000
  4 0.000000 2.062053 -0.000000 -0.438491 -0.081284 0.060305
  5 3.462712 0.878777 -2.964390 1.508386 0.052358 2.816472
  6 3.325127 6.635752 -0.656394 -0.115247 0.348888 -2.066765
  7 0.000001 6.186781 0.000000 -0.144917 0.608389 -0.713120
  8 0.000001 9.277206 0.000003 1.568848 -0.135852 -0.529904
  9 -0.000003 8.547139 0.000001 0.290269 -0.084921 -0.225480
  10 -3.325125 6.635753 -0.656395 -0.115247 -0.348888 2.066765
  11 0.000000 6.186780 0.000000 0.709884 0.393718 0.933418
  12 0.000000 9.277197 0.000001 0.069040 -0.498239 1.516672
  13 -0.000001 8.547145 -0.000001 -0.238214 -0.024631 0.289790
  14 0.242424 2.653008 -1.605145 1.480065 0.004474 0.052683
  15 -0.079161 8.273300 -13.071134 -1.564730 0.000269 0.000022
  16 -5.283370 -0.941655 -9.166863 -1.509614 1.178568 1.554057
  17 -0.000000 2.370680 0.000000 0.559185 -0.006380 0.000490
  18 -0.000000 1.895272 0.000001 0.146190 -0.523762 0.165734
  19 -0.000002 4.778707 -0.000003 0.890387 -0.541955 0.128872
  20 -0.000005 5.917938 -0.000004 0.644702 -0.420705 0.172418
  21 -0.000004 5.844544 -0.000000 0.951930 -0.375401 0.327305
  22 -0.000002 4.734663 -0.000001 0.354094 -0.069516 0.223220
  23 -0.000000 4.479241 -0.000004 -0.701773 0.586841 -1.479975
  24 -0.018879 10.174582 -5.360418 0.403572 -0.014447 -0.010189
  25 0.000000 1.635713 -0.000000 0.543397 0.032824 -0.786356
  26 -0.000002 2.115240 -0.000001 0.337090 -0.466666 -0.873391
  27 0.000001 2.301960 -0.000001 0.701581 -0.585136 -0.804955
  28 2.885960 1.661014 0.143899 0.419575 -0.022018 -3.015524
  29 0.000199 11.517514 -0.000125 -0.524782 -0.016017 -0.062265
  30 -0.000288 12.734382 -0.000118 0.986996 0.005835 -0.013856
  31 -0.000017 5.021167 0.000027 0.727722 -0.032913 -0.036010
  32 -2.885959 1.661014 0.143902 0.292286 0.014246 3.017199
  33 -0.000021 11.517560 -0.000140 -0.483905 0.013588 0.057809
  34 0.000106 12.734376 -0.000124 1.073590 -0.006814 0.015826
  35 -0.000008 5.021163 0.000027 0.727722 0.032905 0.036009
  36 0.804008 5.089325 -19.133162 0.000000 -0.000000 1.570796
  37 15.378815 4.642630 -6.432432 0.000000 0.000000 -1.570796
  38 -1.684173 -5.089325 -19.133162 0.000000 -0.000000 1.570796
  39 15.378815 -4.642629 -6.432432 0.000000 0.000000 -1.570796
  40 6.172513 9.756390 9.003414 0.000000 -0.000000 1.570796
  41 8.777196 -4.183107 12.800599 0.000000 -0.000000 1.570796
  42 -15.646546 22.528687 20.987938 0.000000 -0.000000 1.570796
  43 -15.646544 -12.176661 20.987938 0.000000 -0.000000 1.570796
  time 2
  0 0.365973 0.000000 2.474125 1.712894 -0.000000 1.570796
  1 0.000000 7.787997 -0.000001 -0.028712 0.000001 -0.000000
  2 -0.000001 6.830342 -0.000001 -0.509618 0.000000 0.000000
  3 0.000001 6.307692 -0.000000 0.990027 -0.000000 -0.000000
  4 0.000000 2.062053 -0.000000 -0.439835 -0.070806 0.057264
  5 3.462711 0.878775 -2.964390 1.508386 0.052358 2.816472
  6 3.325127 6.635756 -0.656393 -0.115247 0.348888 -2.066766
  7 0.000001 6.186780 0.000001 -0.134986 0.610166 -0.703195
  8 -0.000004 9.277204 -0.000000 1.562124 -0.137035 -0.530933
  9 0.000002 8.547145 0.000002 0.279493 -0.080433 -0.226288
  10 -3.325125 6.635756 -0.656394 -0.115247 -0.348888 2.066765
  11 -0.000001 6.186779 0.000001 0.703933 0.397179 0.934399
  12 -0.000002 9.277200 -0.000001 0.069059 -0.498567 1.522075
  13 0.000001 8.547148 0.000000 -0.249643 -0.026446 0.283753
  14 0.242426 2.653008 -1.605145 1.480065 0.004474 0.052683
  15 -0.079154 8.273301 -13.071133 -1.564730 0.000269 0.000022
  16 -5.283370 -0.941654 -9.166863 -1.509614 1.178568 1.554057
  17 -0.000000 2.370679 0.000000 0.559185 -0.006380 0.000490
  18 0.000001 1.895272 0.000001 0.144549 -0.522753 0.164466
  19 -0.000002 4.778708 -0.000003 0.890358 -0.541367 0.128197
  20 -0.000003 5.917941 -0.000004 0.647067 -0.421044 0.171665
  21 -0.000004 5.844545 0.000001 0.955024 -0.376708 0.326625
  22 -0.000002 4.734667 -0.000003 0.355678 -0.070459 0.223358
  23 0.000000 4.479237 -0.000002 -0.701014 0.586854 -1.479888
  24 -0.018879 10.174585 -5.360420 0.393181 -0.015496 -0.002960
  25 0.000001 1.635712 -0.000001 0.542010 0.034033 -0.786188
  26 -0.000003 2.115242 -0.000001 0.341332 -0.460336 -0.882174
  27 0.000005 2.301962 0.000002 0.701347 -0.577430 -0.814665
  28 2.885960 1.661014 0.143899 0.431615 -0.022935 -3.013904
  29 0.000196 11.517510 -0.000123 -0.547653 -0.017470 -0.064711
  30 -0.000282 12.734383 -0.000113 0.997811 0.006306 -0.012672
  31 -0.000016 5.021167 0.000027 0.727722 -0.032913 -0.036010
  32 -2.885959 1.661015 0.143902 0.304801 0.015004 3.015389
  33 -0.000024 11.517553 -0.000136 -0.508319 0.015033 0.060478
  34 0.000110 12.734381 -0.000121 1.085477 -0.007356 0.014527
  35 -0.000008 5.021163 0.000028 0.727722 0.032905 0.036009
  36 0.804008 5.089325 -19.133162 0.000000 -0.000000 1.570796
  37 15.378815 4.642630 -6.432432 0.000000 0.000000 -1.570796
  38 -1.684173 -5.089325 -19.133162 0.000000 -0.000000 1.570796
  39 15.378815 -4.642629 -6.432432 0.000000 0.000000 -1.570796
  40 6.295388 9.780754 8.931255 0.000000 -0.000000 1.570796
  41 8.777196 -4.183107 12.739744 0.000000 -0.000000 1.570796
  42 -15.646546 22.528687 20.987938 0.000000 -0.000000 1.570796
  43 -15.646544 -12.176661 20.987938 0.000000 -0.000000 1.570796
  time 3
  0 0.365973 0.000000 2.446506 1.712894 -0.000000 1.570796
  1 0.000000 7.787998 -0.000001 -0.023600 0.000001 -0.000000
  2 0.000000 6.830340 0.000000 -0.517516 -0.000000 0.000000
  3 0.000001 6.307690 -0.000000 0.990027 -0.000000 -0.000000
  4 -0.000000 2.062052 0.000000 -0.441194 -0.060767 0.053280
  5 3.462711 0.878777 -2.964390 1.508386 0.052358 2.816472
  6 3.325127 6.635755 -0.656393 -0.115247 0.348888 -2.066765
  7 -0.000001 6.186780 0.000000 -0.124862 0.611075 -0.696678
  8 -0.000004 9.277204 0.000001 1.549898 -0.142526 -0.530841
  9 0.000001 8.547144 0.000001 0.273675 -0.078151 -0.225906
  10 -3.325125 6.635756 -0.656393 -0.115247 -0.348888 2.066765
  11 0.000001 6.186780 0.000001 0.697493 0.396782 0.932595
  12 0.000000 9.277201 -0.000001 0.069062 -0.498630 1.523113
  13 -0.000001 8.547145 -0.000001 -0.251286 -0.027003 0.280365
  14 0.242424 2.653008 -1.605146 1.480065 0.004474 0.052683
  15 -0.079159 8.273299 -13.071131 -1.564730 0.000269 0.000022
  16 -5.283370 -0.941653 -9.166862 -1.509614 1.178568 1.554057
  17 -0.000000 2.370681 0.000000 0.559185 -0.006380 0.000490
  18 0.000001 1.895271 0.000001 0.140677 -0.522087 0.163621
  19 -0.000002 4.778707 -0.000003 0.889743 -0.541377 0.127271
  20 -0.000001 5.917940 -0.000002 0.649952 -0.422197 0.170514
  21 -0.000002 5.844543 0.000000 0.958742 -0.379015 0.325799
  22 -0.000000 4.734661 -0.000002 0.357548 -0.071728 0.223815
  23 -0.000001 4.479236 0.000002 -0.700172 0.586810 -1.479852
  24 -0.018879 10.174582 -5.360418 0.383080 -0.016390 0.004084
  25 0.000001 1.635712 -0.000000 0.540711 0.035336 -0.786092
  26 -0.000003 2.115243 -0.000001 0.345451 -0.453959 -0.890891
  27 0.000003 2.301960 0.000001 0.700913 -0.569789 -0.824274
  28 2.885960 1.661013 0.143899 0.435911 -0.023270 -3.013324
  29 0.000192 11.517508 -0.000123 -0.555812 -0.018003 -0.065574
  30 -0.000277 12.734385 -0.000114 1.001669 0.006477 -0.012251
  31 -0.000017 5.021167 0.000026 0.727722 -0.032913 -0.036010
  32 -2.885959 1.661014 0.143902 0.309381 0.015288 3.014727
  33 -0.000024 11.517552 -0.000135 -0.517249 0.015577 0.061446
  34 0.000107 12.734383 -0.000119 1.089824 -0.007552 0.014050
  35 -0.000008 5.021164 0.000026 0.727722 0.032905 0.036009
  36 0.804008 5.089325 -19.133162 0.000000 -0.000000 1.570796
  37 15.378815 4.642630 -6.432432 0.000000 0.000000 -1.570796
  38 -1.684173 -5.089325 -19.133162 0.000000 -0.000000 1.570796
  39 15.378815 -4.642629 -6.432432 0.000000 0.000000 -1.570796
  40 6.418263 9.805120 8.859096 0.000000 -0.000000 1.570796
  41 8.777196 -4.183107 12.678889 0.000000 -0.000000 1.570796
  42 -15.646546 22.528687 20.987938 0.000000 -0.000000 1.570796
  43 -15.646544 -12.176661 20.987938 0.000000 -0.000000 1.570796
  time 4
  0 0.365973 0.000000 2.442560 1.712894 -0.000000 1.570796
  1 0.000000 7.787998 -0.000001 -0.021277 0.000001 -0.000000
  2 -0.000000 6.830341 -0.000000 -0.521106 -0.000000 0.000000
  3 0.000001 6.307689 -0.000001 0.990027 -0.000000 -0.000000
  4 -0.000000 2.062053 -0.000000 -0.441821 -0.056286 0.051297
  5 3.462711 0.878777 -2.964391 1.508386 0.052358 2.816472
  6 3.325126 6.635754 -0.656394 -0.115247 0.348888 -2.066765
  7 0.000001 6.186781 0.000001 -0.144282 0.612031 -0.704858
  8 -0.000000 9.277205 0.000003 1.569886 -0.130366 -0.530787
  9 -0.000001 8.547147 0.000001 0.274502 -0.078517 -0.225701
  10 -3.325125 6.635754 -0.656394 -0.115247 -0.348888 2.066765
  11 -0.000001 6.186780 0.000001 0.694490 0.395890 0.931277
  12 -0.000002 9.277199 -0.000002 0.069061 -0.498610 1.522788
  13 0.000001 8.547149 -0.000001 -0.245313 -0.024888 0.280435
  14 0.242426 2.653009 -1.605145 1.480065 0.004474 0.052683
  15 -0.079154 8.273305 -13.071135 -1.564730 0.000269 0.000022
  16 -5.283370 -0.941656 -9.166863 -1.509614 1.178568 1.554057
  17 -0.000000 2.370679 -0.000000 0.559185 -0.006380 0.000490
  18 0.000001 1.895271 0.000002 0.139270 -0.522032 0.163626
  19 -0.000002 4.778704 -0.000003 0.890028 -0.541560 0.126811
  20 -0.000001 5.917941 -0.000002 0.651457 -0.422774 0.169822
  21 -0.000003 5.844543 -0.000001 0.960180 -0.380045 0.325339
  22 -0.000000 4.734660 -0.000002 0.358218 -0.072265 0.224049
  23 -0.000001 4.479238 0.000000 -0.699861 0.586852 -1.479736
  24 -0.018879 10.174580 -5.360420 0.378559 -0.016762 0.007240
  25 0.000000 1.635712 -0.000001 0.540136 0.035935 -0.786055
  26 -0.000001 2.115242 -0.000001 0.347288 -0.451059 -0.894821
  27 0.000002 2.301960 0.000001 0.700665 -0.566340 -0.828609
  28 2.885960 1.661013 0.143899 0.436518 -0.023318 -3.013242
  29 0.000192 11.517509 -0.000122 -0.556966 -0.018079 -0.065696
  30 -0.000276 12.734385 -0.000112 1.002214 0.006501 -0.012191
  31 -0.000016 5.021167 0.000026 0.727722 -0.032913 -0.036010
  32 -2.885959 1.661014 0.143902 0.310015 0.015328 3.014634
  33 -0.000026 11.517555 -0.000135 -0.518488 0.015653 0.061580
  34 0.000107 12.734382 -0.000121 1.090428 -0.007580 0.013985
  35 -0.000008 5.021163 0.000027 0.727722 0.032905 0.036009
  36 0.804008 5.089325 -19.133162 0.000000 -0.000000 1.570796
  37 15.378815 4.642630 -6.432432 0.000000 0.000000 -1.570796
  38 -1.684173 -5.089325 -19.133162 0.000000 -0.000000 1.570796
  39 15.378815 -4.642629 -6.432432 0.000000 0.000000 -1.570796
  40 6.295388 9.780754 8.931255 0.000000 -0.000000 1.570796
  41 8.777196 -4.183107 12.651228 0.000000 -0.000000 1.570796
  42 -15.646546 22.528687 20.987938 0.000000 -0.000000 1.570796
  43 -15.646544 -12.176661 20.987938 0.000000 -0.000000 1.570796
  time 5
  0 0.365973 0.000000 2.582929 1.712894 -0.000000 1.570796
  1 0.000000 7.787998 -0.000001 -0.025003 0.000001 -0.000000
  2 -0.000002 6.830344 -0.000001 -0.515264 0.000000 0.000000
  3 0.000001 6.307689 -0.000001 0.990027 -0.000000 -0.000000
  4 0.000000 2.062052 0.000000 -0.440579 -0.059286 0.051758
  5 3.462712 0.878777 -2.964391 1.508386 0.052358 2.816472
  6 3.325126 6.635754 -0.656394 -0.115247 0.348888 -2.066766
  7 -0.000001 6.186779 0.000001 -0.154300 0.609712 -0.717349
  8 -0.000000 9.277204 0.000001 1.568974 -0.132161 -0.531218
  9 -0.000001 8.547146 -0.000001 0.280288 -0.081089 -0.224274
  10 -3.325125 6.635754 -0.656394 -0.115247 -0.348888 2.066765
  11 -0.000000 6.186780 0.000001 0.698775 0.387929 0.926672
  12 -0.000003 9.277204 0.000000 0.069027 -0.498031 1.513243
  13 -0.000001 8.547147 -0.000002 -0.229553 -0.021490 0.283188
  14 0.242424 2.653009 -1.605147 1.480065 0.004474 0.052683
  15 -0.079157 8.273301 -13.071130 -1.564730 0.000269 0.000022
  16 -5.283370 -0.941655 -9.166863 -1.509614 1.178568 1.554057
  17 -0.000000 2.370680 0.000001 0.559185 -0.006380 0.000490
  18 0.000000 1.895272 0.000001 0.136701 -0.522996 0.164718
  19 -0.000001 4.778708 -0.000002 0.888419 -0.542690 0.127003
  20 -0.000002 5.917944 -0.000001 0.650146 -0.423684 0.170034
  21 -0.000002 5.844546 -0.000000 0.959040 -0.380580 0.325783
  22 -0.000002 4.734662 -0.000004 0.357655 -0.072076 0.224402
  23 -0.000000 4.479238 -0.000000 -0.700242 0.586668 -1.480022
  24 -0.018879 10.174580 -5.360419 0.381393 -0.016452 0.005288
  25 0.000002 1.635713 -0.000002 0.540564 0.035743 -0.786189
  26 -0.000001 2.115242 -0.000000 0.346201 -0.452650 -0.892666
  27 0.000000 2.301961 0.000001 0.701834 -0.568878 -0.825906
  28 2.885960 1.661014 0.143899 0.413971 -0.021602 -3.016276
  29 0.000199 11.517514 -0.000127 -0.514134 -0.015359 -0.061115
  30 -0.000286 12.734380 -0.000120 0.981960 0.005617 -0.014408
  31 -0.000016 5.021167 0.000026 0.727722 -0.032913 -0.036010
  32 -2.885959 1.661014 0.143902 0.286388 0.013902 3.018046
  33 -0.000019 11.517561 -0.000140 -0.472412 0.012931 0.056540
  34 0.000106 12.734378 -0.000127 1.068001 -0.006563 0.016438
  35 -0.000008 5.021164 0.000025 0.727722 0.032905 0.036009
  36 0.804008 5.089325 -19.133162 0.000000 -0.000000 1.570796
  37 15.378815 4.642630 -6.432432 0.000000 0.000000 -1.570796
  38 -1.684173 -5.089325 -19.133162 0.000000 -0.000000 1.570796
  39 15.378815 -4.642629 -6.432432 0.000000 0.000000 -1.570796
  40 6.172513 9.756390 9.003414 0.000000 -0.000000 1.570796
  41 8.777196 -4.183107 12.721392 0.000000 -0.000000 1.570796
  42 -15.646546 22.528687 20.987938 0.000000 -0.000000 1.570796
  43 -15.646544 -12.176661 20.987938 0.000000 -0.000000 1.570796
  time 6
  0 0.365973 0.000000 2.723297 1.712894 -0.000000 1.570796
  1 0.000000 7.787998 -0.000001 -0.032292 0.000001 -0.000000
  2 -0.000002 6.830343 -0.000001 -0.504087 -0.000000 0.000000
  3 0.000000 6.307690 -0.000001 0.990027 -0.000000 -0.000000
  4 -0.000000 2.062053 -0.000001 -0.438895 -0.078059 0.059577
  5 3.462712 0.878775 -2.964391 1.508386 0.052358 2.816472
  6 3.325126 6.635755 -0.656394 -0.115247 0.348888 -2.066765
  7 0.000001 6.186780 0.000001 -0.160131 0.606861 -0.728436
  8 -0.000002 9.277205 0.000001 1.566070 -0.136432 -0.530415
  9 0.000001 8.547145 0.000001 0.295981 -0.088111 -0.220474
  10 -3.325125 6.635754 -0.656394 -0.115247 -0.348888 2.066765
  11 0.000000 6.186779 0.000001 0.706198 0.379479 0.923150
  12 -0.000003 9.277205 -0.000003 0.068971 -0.497271 1.500735
  13 -0.000000 8.547152 0.000001 -0.207230 -0.021351 0.292355
  14 0.242425 2.653009 -1.605146 1.480065 0.004474 0.052683
  15 -0.079156 8.273306 -13.071137 -1.564730 0.000269 0.000022
  16 -5.283370 -0.941656 -9.166862 -1.509614 1.178568 1.554057
  17 -0.000000 2.370679 0.000000 0.559185 -0.006380 0.000490
  18 0.000000 1.895272 -0.000000 0.136123 -0.524750 0.166853
  19 -0.000003 4.778708 -0.000003 0.887159 -0.544196 0.127795
  20 -0.000004 5.917943 -0.000003 0.646850 -0.424129 0.170913
  21 -0.000003 5.844549 -0.000001 0.955157 -0.379794 0.326801
  22 -0.000001 4.734662 -0.000005 0.355681 -0.071024 0.224569
  23 0.000000 4.479236 -0.000004 -0.701281 0.586504 -1.480339
  24 -0.018880 10.174581 -5.360419 0.400413 -0.014789 -0.007993
  25 0.000000 1.635712 -0.000001 0.542965 0.033163 -0.786288
  26 0.000000 2.115241 0.000000 0.338376 -0.464783 -0.876020
  27 0.000003 2.301960 0.000000 0.701540 -0.582820 -0.807876
  28 2.885960 1.661014 0.143899 0.389369 -0.019855 -3.019564
  29 0.000209 11.517519 -0.000133 -0.467372 -0.012617 -0.055987
  30 -0.000301 12.734371 -0.000127 0.959835 0.004673 -0.016841
  31 -0.000016 5.021166 0.000026 0.727722 -0.032913 -0.036010
  32 -2.885959 1.661014 0.143902 0.260206 0.012468 3.021773
  33 -0.000013 11.517570 -0.000147 -0.421467 0.010195 0.050830
  34 0.000102 12.734365 -0.000136 1.043263 -0.005468 0.019159
  35 -0.000008 5.021163 0.000028 0.727722 0.032905 0.036009
  36 0.804008 5.089325 -19.133162 0.000000 -0.000000 1.570796
  37 15.378815 4.642630 -6.432432 0.000000 0.000000 -1.570796
  38 -1.684173 -5.089325 -19.133162 0.000000 -0.000000 1.570796
  39 15.378815 -4.642629 -6.432432 0.000000 0.000000 -1.570796
  40 6.049639 9.732023 9.075574 0.000000 -0.000000 1.570796
  41 8.777196 -4.183107 12.791555 0.000000 -0.000000 1.570796
  42 -15.646546 22.528687 20.987938 0.000000 -0.000000 1.570796
  43 -15.646544 -12.176661 20.987938 0.000000 -0.000000 1.570796
end
