version 1
nodes
0 "root" -1
end
skeleton
  time 0
  0 0.000000 0.000000 0.000000 0.000000 0.000000 0.000000
end
triangles
armor
  0 3.871486 5.870595 32.773605 0.706783 0.409326 0.576983 0.205000 0.245000 1 0 1.000000
  0 6.908171 7.598604 30.194359 0.830313 0.196831 0.521380 0.180000 0.190000 1 0 1.000000
  0 4.161322 14.425336 32.547207 0.588436 0.277847 0.759305 0.100000 0.245000 1 0 1.000000
armor
  0 0.000000 -10.846001 15.234065 0.012145 -0.942621 -0.333643 0.085000 0.560000 1 0 1.000000
  0 5.709231 -6.274866 10.000000 0.518001 -0.432180 -0.738170 0.045000 0.675000 1 0 1.000000
  0 6.977950 -7.669280 16.253571 0.716405 -0.596309 -0.362187 0.130000 0.655000 1 0 1.000000
armor
  0 -3.859066 -6.274866 10.000000 -0.497496 -0.356376 -0.790882 0.740000 0.670000 1 0 1.000000
  0 -8.823096 0.003008 16.940163 -0.943069 0.000000 -0.332596 0.640000 0.760000 1 0 1.000000
  0 -5.883183 0.003008 10.000000 -0.619505 0.000000 -0.784993 0.735000 0.760000 1 0 1.000000
armor
  0 -6.341104 17.641335 25.730064 -0.446084 0.861783 -0.241536 0.975000 0.300000 1 0 1.000000
  0 -4.118155 18.494213 29.845707 -0.289644 0.949557 0.120197 0.935000 0.245000 1 0 1.000000
  0 -0.021462 13.134492 27.188091 -0.000453 0.885844 -0.463983 0.880000 0.315000 1 0 1.000000
armor
  0 6.914107 12.913823 27.813934 0.948030 0.178625 0.263311 0.105000 0.175000 1 0 1.000000
  0 6.908171 7.598604 30.194359 0.830313 0.196831 0.521380 0.180000 0.190000 1 0 1.000000
  0 7.782928 10.758455 21.288052 0.827845 0.453291 -0.330455 0.110000 0.085000 1 0 1.000000
armor
  0 9.893497 0.003008 17.086452 0.946356 -0.000000 -0.323126 0.145000 0.760000 1 0 1.000000
  0 5.709231 -6.274866 10.000000 0.518001 -0.432180 -0.738170 0.045000 0.675000 1 0 1.000000
  0 7.218894 0.003008 10.000000 0.621085 0.000000 -0.783744 0.050000 0.760000 1 0 1.000000
armor
  0 0.000000 -8.874001 10.000000 -0.031088 -0.654386 -0.755522 0.765000 0.605000 1 0 1.000000
  0 -5.648723 -8.543138 16.107279 -0.698710 -0.606389 -0.379601 0.655000 0.645000 1 0 1.000000
  0 -3.859066 -6.274866 10.000000 -0.497496 -0.356376 -0.790882 0.740000 0.670000 1 0 1.000000
armor
  0 -0.000000 12.132016 18.951931 -0.004977 0.887747 -0.460305 0.015000 0.015000 1 0 1.000000
  0 5.722107 15.365075 22.238594 0.208118 0.757268 -0.619057 0.050000 0.110000 1 0 1.000000
  0 7.782928 10.758455 21.288052 0.827845 0.453291 -0.330455 0.110000 0.085000 1 0 1.000000
armor
  0 0.000000 14.413465 33.756542 0.001021 0.305659 0.952141 0.100000 0.295000 1 0 1.000000
  0 -4.195661 14.425336 32.547207 -0.574670 0.283137 0.767846 0.090000 0.350000 1 0 1.000000
  0 0.000000 9.214030 34.458736 0.005409 -0.160962 0.986946 0.165000 0.300000 1 0 1.000000
armor
  0 9.893497 0.003008 17.086452 0.946356 -0.000000 -0.323126 0.145000 0.760000 1 0 1.000000
  0 7.782928 -10.752439 21.288052 0.827845 -0.453291 -0.330455 0.205000 0.615000 1 0 1.000000
  0 6.977950 -7.669280 16.253571 0.716405 -0.596309 -0.362187 0.130000 0.655000 1 0 1.000000
armor
  0 -0.000000 -12.125999 18.951931 -0.004978 -0.887747 -0.460305 0.650000 0.540000 1 0 1.000000
  0 -5.648723 -8.543138 16.107279 -0.698710 -0.606389 -0.379601 0.655000 0.645000 1 0 1.000000
  0 0.000000 -10.846001 15.234065 0.012145 -0.942621 -0.333643 0.695000 0.565000 1 0 1.000000
armor
  0 3.871486 5.870595 32.773605 0.706783 0.409326 0.576983 0.205000 0.245000 1 0 1.000000
  0 0.000000 9.214030 34.458736 0.005409 -0.160962 0.986946 0.165000 0.300000 1 0 1.000000
  0 0.000000 7.522296 33.000000 -0.002962 0.207462 0.978239 0.195000 0.300000 1 0 1.000000
armor
  0 -4.303145 5.870595 32.724838 -0.709486 0.382110 0.592132 0.200000 0.365000 1 0 1.000000
  0 -4.195661 14.425336 32.547207 -0.574670 0.283137 0.767846 0.090000 0.350000 1 0 1.000000
  0 -6.908170 8.463723 30.194359 -0.880224 0.161411 0.446266 0.165000 0.405000 1 0 1.000000
armor
  0 0.000000 -10.846001 15.234065 0.012145 -0.942621 -0.333643 0.085000 0.560000 1 0 1.000000
  0 6.977950 -7.669280 16.253571 0.716405 -0.596309 -0.362187 0.130000 0.655000 1 0 1.000000
  0 -0.000000 -12.125999 18.951931 -0.004978 -0.887747 -0.460305 0.130000 0.535000 1 0 1.000000
armor
  0 -6.748275 -10.575418 21.297806 -0.846797 -0.391592 -0.359986 0.585000 0.620000 1 0 1.000000
  0 -8.823096 0.003008 16.940163 -0.943069 0.000000 -0.332596 0.640000 0.760000 1 0 1.000000
  0 -5.648723 -8.543138 16.107279 -0.698710 -0.606389 -0.379601 0.655000 0.645000 1 0 1.000000
armor
  0 0.000000 14.413465 33.756542 0.001021 0.305659 0.952141 0.100000 0.295000 1 0 1.000000
  0 0.000000 9.214030 34.458736 0.005409 -0.160962 0.986946 0.165000 0.300000 1 0 1.000000
  0 4.161322 14.425336 32.547207 0.588436 0.277847 0.759305 0.100000 0.245000 1 0 1.000000
armor
  0 -10.425169 0.003008 22.526646 -0.997543 0.000000 -0.070053 0.565000 0.760000 1 0 1.000000
  0 -6.748275 -10.575418 21.297806 -0.846797 -0.391592 -0.359986 0.585000 0.620000 1 0 1.000000
  0 -9.598943 0.003008 30.194359 -0.894025 0.000000 0.448018 0.475000 0.760000 1 0 1.000000
armor
  0 -4.118155 18.494213 29.845707 -0.289644 0.949557 0.120197 0.035000 0.355000 1 0 1.000000
  0 -4.195661 14.425336 32.547207 -0.574670 0.283137 0.767846 0.090000 0.350000 1 0 1.000000
  0 0.000000 18.518112 31.474409 0.000224 0.968682 0.248306 0.040000 0.295000 1 0 1.000000
armor
  0 3.871486 5.870595 32.773605 0.706783 0.409326 0.576983 0.205000 0.245000 1 0 1.000000
  0 4.161322 14.425336 32.547207 0.588436 0.277847 0.759305 0.100000 0.245000 1 0 1.000000
  0 0.000000 9.214030 34.458736 0.005409 -0.160962 0.986946 0.165000 0.300000 1 0 1.000000
armor
  0 0.000000 18.518112 31.474409 0.000224 0.968682 0.248306 0.040000 0.295000 1 0 1.000000
  0 -4.195661 14.425336 32.547207 -0.574670 0.283137 0.767846 0.090000 0.350000 1 0 1.000000
  0 0.000000 14.413465 33.756542 0.001021 0.305659 0.952141 0.100000 0.295000 1 0 1.000000
armor
  0 -6.908170 8.463723 30.194359 -0.880224 0.161411 0.446266 0.165000 0.405000 1 0 1.000000
  0 -4.195661 14.425336 32.547207 -0.574670 0.283137 0.767846 0.090000 0.350000 1 0 1.000000
  0 -6.982785 12.913823 28.205153 -0.965250 0.152705 0.212071 0.100000 0.415000 1 0 1.000000
armor
  0 -4.118155 18.494213 29.845707 -0.289644 0.949557 0.120197 0.035000 0.355000 1 0 1.000000
  0 -6.982785 12.913823 28.205153 -0.965250 0.152705 0.212071 0.100000 0.415000 1 0 1.000000
  0 -4.195661 14.425336 32.547207 -0.574670 0.283137 0.767846 0.090000 0.350000 1 0 1.000000
armor
  0 6.908171 7.598604 30.194359 0.830313 0.196831 0.521380 0.325000 0.860000 1 0 1.000000
  0 9.805267 0.003008 30.194359 0.855391 0.000000 0.517984 0.310000 0.760000 1 0 1.000000
  0 7.782928 10.758455 21.288052 0.827845 0.453291 -0.330455 0.205000 0.905000 1 0 1.000000
armor
  0 -3.859066 -6.274866 10.000000 -0.497496 -0.356376 -0.790882 0.740000 0.670000 1 0 1.000000
  0 -5.648723 -8.543138 16.107279 -0.698710 -0.606389 -0.379601 0.655000 0.645000 1 0 1.000000
  0 -8.823096 0.003008 16.940163 -0.943069 0.000000 -0.332596 0.640000 0.760000 1 0 1.000000
armor
  0 -6.341104 -17.635317 25.730064 -0.446084 -0.861783 -0.241536 0.760000 0.415000 1 0 1.000000
  0 -6.748275 -10.575418 21.297806 -0.846797 -0.391592 -0.359986 0.690000 0.505000 1 0 1.000000
  0 -5.790782 -15.359059 22.238594 -0.328014 -0.720044 -0.611508 0.750000 0.470000 1 0 1.000000
armor
  0 6.114404 0.003008 33.000000 0.697572 0.000000 0.716515 0.365000 0.760000 1 0 1.000000
  0 6.908171 -7.592587 30.194359 0.830313 -0.196831 0.521380 0.325000 0.665000 1 0 1.000000
  0 9.805267 0.003008 30.194359 0.855391 0.000000 0.517984 0.310000 0.760000 1 0 1.000000
armor
  0 6.914107 12.913823 27.813934 0.948030 0.178625 0.263311 0.105000 0.175000 1 0 1.000000
  0 7.782928 10.758455 21.288052 0.827845 0.453291 -0.330455 0.110000 0.085000 1 0 1.000000
  0 6.272426 17.641335 25.730064 0.419423 0.886148 -0.197045 0.035000 0.170000 1 0 1.000000
armor
  0 -6.748275 -10.575418 21.297806 -0.846797 -0.391592 -0.359986 0.690000 0.505000 1 0 1.000000
  0 -6.341104 -17.635317 25.730064 -0.446084 -0.861783 -0.241536 0.760000 0.415000 1 0 1.000000
  0 -6.982785 -12.907806 28.205153 -0.965250 -0.152705 0.212071 0.690000 0.410000 1 0 1.000000
armor
  0 -4.835719 5.320828 35.400002 -0.574191 0.398840 0.715004 0.915000 0.775000 1 0 1.000000
  0 -4.303145 5.870595 32.724838 -0.709486 0.382110 0.592132 0.950000 0.785000 1 0 1.000000
  0 -6.114407 0.003008 33.000000 -0.899510 0.000000 0.436900 0.945000 0.705000 1 0 1.000000
armor
  0 7.782928 -10.752439 21.288052 0.827845 -0.453291 -0.330455 0.205000 0.615000 1 0 1.000000
  0 -0.000000 -12.125999 18.951931 -0.004978 -0.887747 -0.460305 0.130000 0.535000 1 0 1.000000
  0 6.977950 -7.669280 16.253571 0.716405 -0.596309 -0.362187 0.130000 0.655000 1 0 1.000000
armor
  0 -4.303145 -5.864578 32.724838 -0.709486 -0.382111 0.592132 0.410000 0.680000 1 0 1.000000
  0 -9.598943 0.003008 30.194359 -0.894025 0.000000 0.448018 0.475000 0.760000 1 0 1.000000
  0 -6.908170 -8.457706 30.194359 -0.880224 -0.161411 0.446265 0.465000 0.650000 1 0 1.000000
armor
  0 -6.908170 8.463723 30.194359 -0.880224 0.161411 0.446266 0.165000 0.405000 1 0 1.000000
  0 -6.982785 12.913823 28.205153 -0.965250 0.152705 0.212071 0.100000 0.415000 1 0 1.000000
  0 -6.748275 10.581433 21.297806 -0.846797 0.391592 -0.359986 0.090000 0.510000 1 0 1.000000
armor
  0 0.000000 -7.516279 35.400002 0.011832 -0.682489 0.730800 0.915000 0.565000 1 0 1.000000
  0 -4.303145 -5.864578 32.724838 -0.709486 -0.382111 0.592132 0.950000 0.625000 1 0 1.000000
  0 0.000000 -7.516279 33.000000 -0.002962 -0.207461 0.978239 0.945000 0.565000 1 0 1.000000
armor
  0 6.114404 0.003008 33.000000 0.697572 0.000000 0.716515 0.365000 0.760000 1 0 1.000000
  0 9.805267 0.003008 30.194359 0.855391 0.000000 0.517984 0.310000 0.760000 1 0 1.000000
  0 6.908171 7.598604 30.194359 0.830313 0.196831 0.521380 0.325000 0.860000 1 0 1.000000
armor
  0 3.871486 -5.864578 32.773605 0.706783 -0.409326 0.576983 0.950000 0.510000 1 0 1.000000
  0 5.817762 -1.351550 35.400002 0.587846 0.233107 0.774660 0.920000 0.440000 1 0 1.000000
  0 4.835719 -5.314811 35.400002 0.643282 -0.387344 0.660419 0.915000 0.495000 1 0 1.000000
armor
  0 3.871486 -5.864578 32.773605 0.706783 -0.409326 0.576983 0.950000 0.510000 1 0 1.000000
  0 0.000000 -7.516279 35.400002 0.011832 -0.682489 0.730800 0.915000 0.565000 1 0 1.000000
  0 0.000000 -7.516279 33.000000 -0.002962 -0.207461 0.978239 0.945000 0.565000 1 0 1.000000
armor
  0 -4.835719 -5.314811 35.400002 -0.574191 -0.398840 0.715005 0.915000 0.635000 1 0 1.000000
  0 -6.114407 0.003008 33.000000 -0.899510 0.000000 0.436900 0.945000 0.705000 1 0 1.000000
  0 -4.303145 -5.864578 32.724838 -0.709486 -0.382111 0.592132 0.950000 0.625000 1 0 1.000000
armor
  0 0.000000 7.522296 35.400002 0.011832 0.682489 0.730800 0.915000 0.845000 1 0 1.000000
  0 0.000000 7.522296 33.000000 -0.002962 0.207462 0.978239 0.945000 0.845000 1 0 1.000000
  0 -4.303145 5.870595 32.724838 -0.709486 0.382110 0.592132 0.950000 0.785000 1 0 1.000000
armor
  0 -4.303145 5.870595 32.724838 -0.709486 0.382110 0.592132 0.410000 0.840000 1 0 1.000000
  0 -6.908170 8.463723 30.194359 -0.880224 0.161411 0.446266 0.465000 0.870000 1 0 1.000000
  0 -9.598943 0.003008 30.194359 -0.894025 0.000000 0.448018 0.475000 0.760000 1 0 1.000000
armor
  0 6.977950 7.675297 16.253571 0.716405 0.596309 -0.362187 0.130000 0.870000 1 0 1.000000
  0 0.000000 10.852017 15.234065 0.012145 0.942621 -0.333643 0.085000 0.965000 1 0 1.000000
  0 -0.000000 12.132016 18.951931 -0.004977 0.887747 -0.460305 0.130000 0.990000 1 0 1.000000
armor
  0 -5.790782 -15.359059 22.238594 -0.328014 -0.720044 -0.611508 0.750000 0.470000 1 0 1.000000
  0 -6.748275 -10.575418 21.297806 -0.846797 -0.391592 -0.359986 0.690000 0.505000 1 0 1.000000
  0 -0.000000 -12.125999 18.951931 -0.004978 -0.887747 -0.460305 0.765000 0.570000 1 0 1.000000
armor
  0 -6.341104 17.641335 25.730064 -0.446084 0.861783 -0.241536 0.020000 0.420000 1 0 1.000000
  0 -5.790782 15.365075 22.238594 -0.328014 0.720045 -0.611508 0.040000 0.480000 1 0 1.000000
  0 -6.748275 10.581433 21.297806 -0.846797 0.391592 -0.359986 0.090000 0.510000 1 0 1.000000
armor
  0 -6.748275 10.581433 21.297806 -0.846797 0.391592 -0.359986 0.090000 0.510000 1 0 1.000000
  0 -6.982785 12.913823 28.205153 -0.965250 0.152705 0.212071 0.100000 0.415000 1 0 1.000000
  0 -6.341104 17.641335 25.730064 -0.446084 0.861783 -0.241536 0.020000 0.420000 1 0 1.000000
armor
  0 -6.908170 -8.457706 30.194359 -0.880224 -0.161411 0.446265 0.625000 0.400000 1 0 1.000000
  0 -6.748275 -10.575418 21.297806 -0.846797 -0.391592 -0.359986 0.690000 0.505000 1 0 1.000000
  0 -6.982785 -12.907806 28.205153 -0.965250 -0.152705 0.212071 0.690000 0.410000 1 0 1.000000
armor
  0 -6.982785 -12.907806 28.205153 -0.965250 -0.152705 0.212071 0.690000 0.410000 1 0 1.000000
  0 -6.341104 -17.635317 25.730064 -0.446084 -0.861783 -0.241536 0.760000 0.415000 1 0 1.000000
  0 -4.118155 -18.488195 29.845707 -0.289644 -0.949557 0.120197 0.755000 0.350000 1 0 1.000000
armor
  0 -4.118155 -18.488195 29.845707 -0.289644 -0.949557 0.120197 0.755000 0.350000 1 0 1.000000
  0 0.000000 -18.512096 31.474409 0.000224 -0.968682 0.248305 0.750000 0.290000 1 0 1.000000
  0 -4.195661 -14.419320 32.547207 -0.574670 -0.283137 0.767846 0.690000 0.345000 1 0 1.000000
armor
  0 0.000000 -18.512096 31.474409 0.000224 -0.968682 0.248305 0.750000 0.290000 1 0 1.000000
  0 0.000000 -14.407450 33.756542 0.001021 -0.305659 0.952141 0.685000 0.290000 1 0 1.000000
  0 -4.195661 -14.419320 32.547207 -0.574670 -0.283137 0.767846 0.690000 0.345000 1 0 1.000000
armor
  0 0.000000 -14.407450 33.756542 0.001021 -0.305659 0.952141 0.685000 0.290000 1 0 1.000000
  0 0.000000 -18.512096 31.474409 0.000224 -0.968682 0.248305 0.750000 0.290000 1 0 1.000000
  0 4.161322 -14.419320 32.547207 0.588436 -0.277847 0.759305 0.690000 0.240000 1 0 1.000000
armor
  0 4.083816 -18.488195 29.845707 0.301811 -0.946155 0.117052 0.750000 0.225000 1 0 1.000000
  0 4.161322 -14.419320 32.547207 0.588436 -0.277847 0.759305 0.690000 0.240000 1 0 1.000000
  0 0.000000 -18.512096 31.474409 0.000224 -0.968682 0.248305 0.750000 0.290000 1 0 1.000000
armor
  0 4.161322 -14.419320 32.547207 0.588436 -0.277847 0.759305 0.690000 0.240000 1 0 1.000000
  0 4.083816 -18.488195 29.845707 0.301811 -0.946155 0.117052 0.750000 0.225000 1 0 1.000000
  0 6.914107 -12.907806 27.813934 0.948030 -0.178625 0.263311 0.685000 0.170000 1 0 1.000000
armor
  0 4.083816 -18.488195 29.845707 0.301811 -0.946155 0.117052 0.750000 0.225000 1 0 1.000000
  0 6.272426 -17.635317 25.730064 0.419423 -0.886148 -0.197045 0.750000 0.165000 1 0 1.000000
  0 6.914107 -12.907806 27.813934 0.948030 -0.178625 0.263311 0.685000 0.170000 1 0 1.000000
armor
  0 -4.118155 -18.488195 29.845707 -0.289644 -0.949557 0.120197 0.755000 0.350000 1 0 1.000000
  0 -4.195661 -14.419320 32.547207 -0.574670 -0.283137 0.767846 0.690000 0.345000 1 0 1.000000
  0 -6.982785 -12.907806 28.205153 -0.965250 -0.152705 0.212071 0.690000 0.410000 1 0 1.000000
armor
  0 -6.908170 -8.457706 30.194359 -0.880224 -0.161411 0.446265 0.625000 0.400000 1 0 1.000000
  0 -6.982785 -12.907806 28.205153 -0.965250 -0.152705 0.212071 0.690000 0.410000 1 0 1.000000
  0 -4.195661 -14.419320 32.547207 -0.574670 -0.283137 0.767846 0.690000 0.345000 1 0 1.000000
armor
  0 -4.303145 -5.864578 32.724838 -0.709486 -0.382111 0.592132 0.585000 0.355000 1 0 1.000000
  0 -6.908170 -8.457706 30.194359 -0.880224 -0.161411 0.446265 0.625000 0.400000 1 0 1.000000
  0 -4.195661 -14.419320 32.547207 -0.574670 -0.283137 0.767846 0.690000 0.345000 1 0 1.000000
armor
  0 -4.303145 -5.864578 32.724838 -0.709486 -0.382111 0.592132 0.585000 0.355000 1 0 1.000000
  0 0.000000 -9.208014 34.458736 0.005410 0.160962 0.986946 0.625000 0.295000 1 0 1.000000
  0 0.000000 -7.516279 33.000000 -0.002962 -0.207461 0.978239 0.590000 0.295000 1 0 1.000000
armor
  0 3.871486 -5.864578 32.773605 0.706783 -0.409326 0.576983 0.580000 0.240000 1 0 1.000000
  0 0.000000 -7.516279 33.000000 -0.002962 -0.207461 0.978239 0.590000 0.295000 1 0 1.000000
  0 0.000000 -9.208014 34.458736 0.005410 0.160962 0.986946 0.625000 0.295000 1 0 1.000000
armor
  0 -4.303145 -5.864578 32.724838 -0.709486 -0.382111 0.592132 0.585000 0.355000 1 0 1.000000
  0 -4.195661 -14.419320 32.547207 -0.574670 -0.283137 0.767846 0.690000 0.345000 1 0 1.000000
  0 0.000000 -9.208014 34.458736 0.005410 0.160962 0.986946 0.625000 0.295000 1 0 1.000000
armor
  0 0.000000 -14.407450 33.756542 0.001021 -0.305659 0.952141 0.685000 0.290000 1 0 1.000000
  0 0.000000 -9.208014 34.458736 0.005410 0.160962 0.986946 0.625000 0.295000 1 0 1.000000
  0 -4.195661 -14.419320 32.547207 -0.574670 -0.283137 0.767846 0.690000 0.345000 1 0 1.000000
armor
  0 0.000000 -14.407450 33.756542 0.001021 -0.305659 0.952141 0.685000 0.290000 1 0 1.000000
  0 4.161322 -14.419320 32.547207 0.588436 -0.277847 0.759305 0.690000 0.240000 1 0 1.000000
  0 0.000000 -9.208014 34.458736 0.005410 0.160962 0.986946 0.625000 0.295000 1 0 1.000000
armor
  0 3.871486 -5.864578 32.773605 0.706783 -0.409326 0.576983 0.580000 0.240000 1 0 1.000000
  0 0.000000 -9.208014 34.458736 0.005410 0.160962 0.986946 0.625000 0.295000 1 0 1.000000
  0 4.161322 -14.419320 32.547207 0.588436 -0.277847 0.759305 0.690000 0.240000 1 0 1.000000
armor
  0 3.871486 -5.864578 32.773605 0.706783 -0.409326 0.576983 0.580000 0.240000 1 0 1.000000
  0 4.161322 -14.419320 32.547207 0.588436 -0.277847 0.759305 0.690000 0.240000 1 0 1.000000
  0 6.908171 -7.592587 30.194359 0.830313 -0.196831 0.521380 0.605000 0.185000 1 0 1.000000
armor
  0 6.908171 -7.592587 30.194359 0.830313 -0.196831 0.521380 0.605000 0.185000 1 0 1.000000
  0 4.161322 -14.419320 32.547207 0.588436 -0.277847 0.759305 0.690000 0.240000 1 0 1.000000
  0 6.914107 -12.907806 27.813934 0.948030 -0.178625 0.263311 0.685000 0.170000 1 0 1.000000
armor
  0 -0.000000 -12.125999 18.951931 -0.004978 -0.887747 -0.460305 0.765000 0.010000 1 0 1.000000
  0 7.782928 -10.752439 21.288052 0.827845 -0.453291 -0.330455 0.675000 0.080000 1 0 1.000000
  0 5.722107 -15.359059 22.238594 0.208118 -0.757268 -0.619057 0.740000 0.105000 1 0 1.000000
armor
  0 6.914107 -12.907806 27.813934 0.948030 -0.178625 0.263311 0.685000 0.170000 1 0 1.000000
  0 6.272426 -17.635317 25.730064 0.419423 -0.886148 -0.197045 0.750000 0.165000 1 0 1.000000
  0 7.782928 -10.752439 21.288052 0.827845 -0.453291 -0.330455 0.675000 0.080000 1 0 1.000000
armor
  0 6.272426 -17.635317 25.730064 0.419423 -0.886148 -0.197045 0.750000 0.165000 1 0 1.000000
  0 5.722107 -15.359059 22.238594 0.208118 -0.757268 -0.619057 0.740000 0.105000 1 0 1.000000
  0 7.782928 -10.752439 21.288052 0.827845 -0.453291 -0.330455 0.675000 0.080000 1 0 1.000000
armor
  0 6.914107 -12.907806 27.813934 0.948030 -0.178625 0.263311 0.685000 0.170000 1 0 1.000000
  0 7.782928 -10.752439 21.288052 0.827845 -0.453291 -0.330455 0.675000 0.080000 1 0 1.000000
  0 6.908171 -7.592587 30.194359 0.830313 -0.196831 0.521380 0.605000 0.185000 1 0 1.000000
armor
  0 -6.341104 -17.635317 25.730064 -0.446084 -0.861783 -0.241536 0.785000 0.085000 1 0 1.000000
  0 -0.021462 -13.128475 27.188091 -0.000453 -0.885844 -0.463983 0.880000 0.095000 1 0 1.000000
  0 -4.118155 -18.488195 29.845707 -0.289644 -0.949557 0.120197 0.820000 0.030000 1 0 1.000000
armor
  0 -4.118155 -18.488195 29.845707 -0.289644 -0.949557 0.120197 0.820000 0.030000 1 0 1.000000
  0 -0.021462 -13.128475 27.188091 -0.000453 -0.885844 -0.463983 0.880000 0.095000 1 0 1.000000
  0 0.000000 -18.512096 31.474409 0.000224 -0.968682 0.248305 0.880000 0.010000 1 0 1.000000
armor
  0 -0.000000 -12.125999 18.951931 -0.004978 -0.887747 -0.460305 0.880000 0.200000 1 0 1.000000
  0 -0.021462 -13.128475 27.188091 -0.000453 -0.885844 -0.463983 0.880000 0.095000 1 0 1.000000
  0 -5.790782 -15.359059 22.238594 -0.328014 -0.720044 -0.611508 0.795000 0.145000 1 0 1.000000
armor
  0 -0.000000 -12.125999 18.951931 -0.004978 -0.887747 -0.460305 0.880000 0.200000 1 0 1.000000
  0 5.722107 -15.359059 22.238594 0.208118 -0.757268 -0.619057 0.965000 0.145000 1 0 1.000000
  0 -0.021462 -13.128475 27.188091 -0.000453 -0.885844 -0.463983 0.880000 0.095000 1 0 1.000000
armor
  0 0.000000 -18.512096 31.474409 0.000224 -0.968682 0.248305 0.880000 0.010000 1 0 1.000000
  0 -0.021462 -13.128475 27.188091 -0.000453 -0.885844 -0.463983 0.880000 0.095000 1 0 1.000000
  0 4.083816 -18.488195 29.845707 0.301811 -0.946155 0.117052 0.940000 0.030000 1 0 1.000000
armor
  0 4.083816 -18.488195 29.845707 0.301811 -0.946155 0.117052 0.940000 0.030000 1 0 1.000000
  0 -0.021462 -13.128475 27.188091 -0.000453 -0.885844 -0.463983 0.880000 0.095000 1 0 1.000000
  0 6.272426 -17.635317 25.730064 0.419423 -0.886148 -0.197045 0.980000 0.085000 1 0 1.000000
armor
  0 -5.790782 -15.359059 22.238594 -0.328014 -0.720044 -0.611508 0.795000 0.145000 1 0 1.000000
  0 -0.021462 -13.128475 27.188091 -0.000453 -0.885844 -0.463983 0.880000 0.095000 1 0 1.000000
  0 -6.341104 -17.635317 25.730064 -0.446084 -0.861783 -0.241536 0.785000 0.085000 1 0 1.000000
armor
  0 6.272426 -17.635317 25.730064 0.419423 -0.886148 -0.197045 0.980000 0.085000 1 0 1.000000
  0 -0.021462 -13.128475 27.188091 -0.000453 -0.885844 -0.463983 0.880000 0.095000 1 0 1.000000
  0 5.722107 -15.359059 22.238594 0.208118 -0.757268 -0.619057 0.965000 0.145000 1 0 1.000000
armor
  0 4.835719 -5.314811 35.400002 0.643282 -0.387344 0.660419 0.320000 0.165000 1 0 1.000000
  0 5.817762 -1.351550 35.400002 0.587846 0.233107 0.774660 0.365000 0.190000 1 0 1.000000
  0 0.012191 0.003009 32.660004 0.026846 0.000000 0.999640 0.405000 0.110000 1 0 1.000000
armor
  0 5.817762 -1.351550 35.400002 0.587846 0.233107 0.774660 0.365000 0.190000 1 0 1.000000
  0 6.114404 0.003008 33.000000 0.697572 0.000000 0.716515 0.405000 0.190000 1 0 1.000000
  0 0.012191 0.003009 32.660004 0.026846 0.000000 0.999640 0.405000 0.110000 1 0 1.000000
armor
  0 -6.114407 0.003008 35.400002 -0.621232 -0.000000 0.783626 0.405000 0.025000 1 0 1.000000
  0 -4.835719 -5.314811 35.400002 -0.574191 -0.398840 0.715005 0.335000 0.040000 1 0 1.000000
  0 0.012191 0.003009 32.660004 0.026846 0.000000 0.999640 0.405000 0.110000 1 0 1.000000
armor
  0 0.000000 10.852017 15.234065 0.012145 0.942621 -0.333643 0.085000 0.965000 1 0 1.000000
  0 6.977950 7.675297 16.253571 0.716405 0.596309 -0.362187 0.130000 0.870000 1 0 1.000000
  0 5.709231 6.280883 10.000000 0.518004 0.432184 -0.738166 0.045000 0.850000 1 0 1.000000
armor
  0 -4.835719 -5.314811 35.400002 -0.574191 -0.398840 0.715005 0.335000 0.040000 1 0 1.000000
  0 0.000000 -7.516279 35.400002 0.011832 -0.682489 0.730800 0.300000 0.100000 1 0 1.000000
  0 0.012191 0.003009 32.660004 0.026846 0.000000 0.999640 0.405000 0.110000 1 0 1.000000
armor
  0 9.893497 0.003008 17.086452 0.946356 -0.000000 -0.323126 0.145000 0.760000 1 0 1.000000
  0 6.977950 7.675297 16.253571 0.716405 0.596309 -0.362187 0.130000 0.870000 1 0 1.000000
  0 7.782928 10.758455 21.288052 0.827845 0.453291 -0.330455 0.205000 0.905000 1 0 1.000000
armor
  0 0.000000 8.880017 10.000000 -0.031088 0.654386 -0.755522 0.765000 0.915000 1 0 1.000000
  0 -3.859066 6.280883 10.000000 -0.497493 0.356374 -0.790885 0.740000 0.850000 1 0 1.000000
  0 -5.648723 8.549154 16.107279 -0.698710 0.606389 -0.379601 0.655000 0.875000 1 0 1.000000
armor
  0 0.000000 -7.516279 35.400002 0.011832 -0.682489 0.730800 0.300000 0.100000 1 0 1.000000
  0 4.835719 -5.314811 35.400002 0.643282 -0.387344 0.660419 0.320000 0.165000 1 0 1.000000
  0 0.012191 0.003009 32.660004 0.026846 0.000000 0.999640 0.405000 0.110000 1 0 1.000000
armor
  0 9.893497 0.003008 17.086452 0.946356 -0.000000 -0.323126 0.145000 0.760000 1 0 1.000000
  0 7.218894 0.003008 10.000000 0.621085 0.000000 -0.783744 0.050000 0.760000 1 0 1.000000
  0 5.709231 6.280883 10.000000 0.518004 0.432184 -0.738166 0.045000 0.850000 1 0 1.000000
armor
  0 -3.859066 6.280883 10.000000 -0.497493 0.356374 -0.790885 0.740000 0.850000 1 0 1.000000
  0 -5.883183 0.003008 10.000000 -0.619505 0.000000 -0.784993 0.735000 0.760000 1 0 1.000000
  0 -8.823096 0.003008 16.940163 -0.943069 0.000000 -0.332596 0.640000 0.760000 1 0 1.000000
armor
  0 5.722107 15.365075 22.238594 0.208118 0.757268 -0.619057 0.050000 0.110000 1 0 1.000000
  0 6.272426 17.641335 25.730064 0.419423 0.886148 -0.197045 0.035000 0.170000 1 0 1.000000
  0 7.782928 10.758455 21.288052 0.827845 0.453291 -0.330455 0.110000 0.085000 1 0 1.000000
armor
  0 9.893497 0.003008 17.086452 0.946356 -0.000000 -0.323126 0.145000 0.760000 1 0 1.000000
  0 6.977950 -7.669280 16.253571 0.716405 -0.596309 -0.362187 0.130000 0.655000 1 0 1.000000
  0 5.709231 -6.274866 10.000000 0.518001 -0.432180 -0.738170 0.045000 0.675000 1 0 1.000000
armor
  0 0.000000 -8.874001 10.000000 -0.031088 -0.654386 -0.755522 0.765000 0.605000 1 0 1.000000
  0 0.000000 -10.846001 15.234065 0.012145 -0.942621 -0.333643 0.695000 0.565000 1 0 1.000000
  0 -5.648723 -8.543138 16.107279 -0.698710 -0.606389 -0.379601 0.655000 0.645000 1 0 1.000000
armor
  0 6.908171 7.598604 30.194359 0.830313 0.196831 0.521380 0.180000 0.190000 1 0 1.000000
  0 6.914107 12.913823 27.813934 0.948030 0.178625 0.263311 0.105000 0.175000 1 0 1.000000
  0 4.161322 14.425336 32.547207 0.588436 0.277847 0.759305 0.100000 0.245000 1 0 1.000000
armor
  0 -4.303145 5.870595 32.724838 -0.709486 0.382110 0.592132 0.200000 0.365000 1 0 1.000000
  0 0.000000 9.214030 34.458736 0.005409 -0.160962 0.986946 0.165000 0.300000 1 0 1.000000
  0 -4.195661 14.425336 32.547207 -0.574670 0.283137 0.767846 0.090000 0.350000 1 0 1.000000
armor
  0 9.893497 0.003008 17.086452 0.946356 -0.000000 -0.323126 0.145000 0.760000 1 0 1.000000
  0 11.786013 0.003008 22.575409 0.999842 0.000000 -0.017766 0.220000 0.760000 1 0 1.000000
  0 7.782928 -10.752439 21.288052 0.827845 -0.453291 -0.330455 0.205000 0.615000 1 0 1.000000
armor
  0 -0.000000 -12.125999 18.951931 -0.004978 -0.887747 -0.460305 0.650000 0.540000 1 0 1.000000
  0 -6.748275 -10.575418 21.297806 -0.846797 -0.391592 -0.359986 0.585000 0.620000 1 0 1.000000
  0 -5.648723 -8.543138 16.107279 -0.698710 -0.606389 -0.379601 0.655000 0.645000 1 0 1.000000
armor
  0 0.000000 14.413465 33.756542 0.001021 0.305659 0.952141 0.100000 0.295000 1 0 1.000000
  0 4.161322 14.425336 32.547207 0.588436 0.277847 0.759305 0.100000 0.245000 1 0 1.000000
  0 0.000000 18.518112 31.474409 0.000224 0.968682 0.248306 0.040000 0.295000 1 0 1.000000
armor
  0 -6.982785 12.913823 28.205153 -0.965250 0.152705 0.212071 0.100000 0.415000 1 0 1.000000
  0 -4.118155 18.494213 29.845707 -0.289644 0.949557 0.120197 0.035000 0.355000 1 0 1.000000
  0 -6.341104 17.641335 25.730064 -0.446084 0.861783 -0.241536 0.020000 0.420000 1 0 1.000000
armor
  0 0.000000 -8.874001 10.000000 -0.031088 -0.654386 -0.755522 0.015000 0.595000 1 0 1.000000
  0 5.709231 -6.274866 10.000000 0.518001 -0.432180 -0.738170 0.045000 0.675000 1 0 1.000000
  0 0.000000 -10.846001 15.234065 0.012145 -0.942621 -0.333643 0.085000 0.560000 1 0 1.000000
armor
  0 -6.748275 -10.575418 21.297806 -0.846797 -0.391592 -0.359986 0.585000 0.620000 1 0 1.000000
  0 -10.425169 0.003008 22.526646 -0.997543 0.000000 -0.070053 0.565000 0.760000 1 0 1.000000
  0 -8.823096 0.003008 16.940163 -0.943069 0.000000 -0.332596 0.640000 0.760000 1 0 1.000000
armor
  0 -4.303145 5.870595 32.724838 -0.709486 0.382110 0.592132 0.200000 0.365000 1 0 1.000000
  0 0.000000 7.522296 33.000000 -0.002962 0.207462 0.978239 0.195000 0.300000 1 0 1.000000
  0 0.000000 9.214030 34.458736 0.005409 -0.160962 0.986946 0.165000 0.300000 1 0 1.000000
armor
  0 4.083816 18.494213 29.845707 0.301811 0.946155 0.117053 0.040000 0.235000 1 0 1.000000
  0 0.000000 18.518112 31.474409 0.000224 0.968682 0.248306 0.040000 0.295000 1 0 1.000000
  0 4.161322 14.425336 32.547207 0.588436 0.277847 0.759305 0.100000 0.245000 1 0 1.000000
armor
  0 3.871486 5.870595 32.773605 0.706783 0.409326 0.576983 0.950000 0.900000 1 0 1.000000
  0 0.000000 7.522296 33.000000 -0.002962 0.207462 0.978239 0.945000 0.845000 1 0 1.000000
  0 0.000000 7.522296 35.400002 0.011832 0.682489 0.730800 0.915000 0.845000 1 0 1.000000
armor
  0 -9.598943 0.003008 30.194359 -0.894025 0.000000 0.448018 0.475000 0.760000 1 0 1.000000
  0 -6.748275 10.581433 21.297806 -0.846797 0.391592 -0.359986 0.585000 0.905000 1 0 1.000000
  0 -10.425169 0.003008 22.526646 -0.997543 0.000000 -0.070053 0.565000 0.760000 1 0 1.000000
armor
  0 4.161322 14.425336 32.547207 0.588436 0.277847 0.759305 0.100000 0.245000 1 0 1.000000
  0 6.914107 12.913823 27.813934 0.948030 0.178625 0.263311 0.105000 0.175000 1 0 1.000000
  0 4.083816 18.494213 29.845707 0.301811 0.946155 0.117053 0.040000 0.235000 1 0 1.000000
armor
  0 4.083816 18.494213 29.845707 0.301811 0.946155 0.117053 0.040000 0.235000 1 0 1.000000
  0 6.914107 12.913823 27.813934 0.948030 0.178625 0.263311 0.105000 0.175000 1 0 1.000000
  0 6.272426 17.641335 25.730064 0.419423 0.886148 -0.197045 0.035000 0.170000 1 0 1.000000
armor
  0 6.908171 -7.592587 30.194359 0.830313 -0.196831 0.521380 0.325000 0.665000 1 0 1.000000
  0 7.782928 -10.752439 21.288052 0.827845 -0.453291 -0.330455 0.205000 0.615000 1 0 1.000000
  0 9.805267 0.003008 30.194359 0.855391 0.000000 0.517984 0.310000 0.760000 1 0 1.000000
armor
  0 3.871486 5.870595 32.773605 0.706783 0.409326 0.576983 0.950000 0.900000 1 0 1.000000
  0 4.835719 5.320828 35.400002 0.643282 0.387342 0.660420 0.915000 0.915000 1 0 1.000000
  0 5.817762 1.357568 35.400002 0.587846 -0.233106 0.774660 0.920000 0.970000 1 0 1.000000
armor
  0 6.114404 0.003008 33.000000 0.697572 0.000000 0.716515 0.365000 0.760000 1 0 1.000000
  0 3.871486 -5.864578 32.773605 0.706783 -0.409326 0.576983 0.380000 0.680000 1 0 1.000000
  0 6.908171 -7.592587 30.194359 0.830313 -0.196831 0.521380 0.325000 0.665000 1 0 1.000000
armor
  0 -3.859066 6.280883 10.000000 -0.497493 0.356374 -0.790885 0.740000 0.850000 1 0 1.000000
  0 -8.823096 0.003008 16.940163 -0.943069 0.000000 -0.332596 0.640000 0.760000 1 0 1.000000
  0 -5.648723 8.549154 16.107279 -0.698710 0.606389 -0.379601 0.655000 0.875000 1 0 1.000000
armor
  0 -6.748275 10.581433 21.297806 -0.846797 0.391592 -0.359986 0.585000 0.905000 1 0 1.000000
  0 -5.648723 8.549154 16.107279 -0.698710 0.606389 -0.379601 0.655000 0.875000 1 0 1.000000
  0 -8.823096 0.003008 16.940163 -0.943069 0.000000 -0.332596 0.640000 0.760000 1 0 1.000000
armor
  0 -4.303145 -5.864578 32.724838 -0.709486 -0.382111 0.592132 0.410000 0.680000 1 0 1.000000
  0 -6.114407 0.003008 33.000000 -0.899510 0.000000 0.436900 0.420000 0.760000 1 0 1.000000
  0 -9.598943 0.003008 30.194359 -0.894025 0.000000 0.448018 0.475000 0.760000 1 0 1.000000
armor
  0 -5.790782 15.365075 22.238594 -0.328014 0.720045 -0.611508 0.040000 0.480000 1 0 1.000000
  0 -0.000000 12.132016 18.951931 -0.004977 0.887747 -0.460305 0.015000 0.575000 1 0 1.000000
  0 -6.748275 10.581433 21.297806 -0.846797 0.391592 -0.359986 0.090000 0.510000 1 0 1.000000
armor
  0 0.000000 -7.516279 35.400002 0.011832 -0.682489 0.730800 0.915000 0.565000 1 0 1.000000
  0 -4.835719 -5.314811 35.400002 -0.574191 -0.398840 0.715005 0.915000 0.635000 1 0 1.000000
  0 -4.303145 -5.864578 32.724838 -0.709486 -0.382111 0.592132 0.950000 0.625000 1 0 1.000000
armor
  0 11.786013 0.003008 22.575409 0.999842 0.000000 -0.017766 0.220000 0.760000 1 0 1.000000
  0 9.805267 0.003008 30.194359 0.855391 0.000000 0.517984 0.310000 0.760000 1 0 1.000000
  0 7.782928 -10.752439 21.288052 0.827845 -0.453291 -0.330455 0.205000 0.615000 1 0 1.000000
armor
  0 3.871486 -5.864578 32.773605 0.706783 -0.409326 0.576983 0.950000 0.510000 1 0 1.000000
  0 6.114404 0.003008 33.000000 0.697572 0.000000 0.716515 0.955000 0.425000 1 0 1.000000
  0 5.817762 -1.351550 35.400002 0.587846 0.233107 0.774660 0.920000 0.440000 1 0 1.000000
armor
  0 3.871486 -5.864578 32.773605 0.706783 -0.409326 0.576983 0.950000 0.510000 1 0 1.000000
  0 4.835719 -5.314811 35.400002 0.643282 -0.387344 0.660419 0.915000 0.495000 1 0 1.000000
  0 0.000000 -7.516279 35.400002 0.011832 -0.682489 0.730800 0.915000 0.565000 1 0 1.000000
armor
  0 -4.835719 -5.314811 35.400002 -0.574191 -0.398840 0.715005 0.915000 0.635000 1 0 1.000000
  0 -6.114407 0.003008 35.400002 -0.621232 -0.000000 0.783626 0.915000 0.705000 1 0 1.000000
  0 -6.114407 0.003008 33.000000 -0.899510 0.000000 0.436900 0.945000 0.705000 1 0 1.000000
armor
  0 0.000000 10.852017 15.234065 0.012145 0.942621 -0.333643 0.085000 0.965000 1 0 1.000000
  0 5.709231 6.280883 10.000000 0.518004 0.432184 -0.738166 0.045000 0.850000 1 0 1.000000
  0 0.000000 8.880017 10.000000 -0.031088 0.654386 -0.755522 0.015000 0.930000 1 0 1.000000
armor
  0 -0.000000 12.132016 18.951931 -0.004977 0.887747 -0.460305 0.650000 0.980000 1 0 1.000000
  0 0.000000 10.852017 15.234065 0.012145 0.942621 -0.333643 0.695000 0.955000 1 0 1.000000
  0 -5.648723 8.549154 16.107279 -0.698710 0.606389 -0.379601 0.655000 0.875000 1 0 1.000000
armor
  0 -6.748275 10.581433 21.297806 -0.846797 0.391592 -0.359986 0.585000 0.905000 1 0 1.000000
  0 -9.598943 0.003008 30.194359 -0.894025 0.000000 0.448018 0.475000 0.760000 1 0 1.000000
  0 -6.908170 8.463723 30.194359 -0.880224 0.161411 0.446266 0.465000 0.870000 1 0 1.000000
armor
  0 -4.118155 18.494213 29.845707 -0.289644 0.949557 0.120197 0.935000 0.245000 1 0 1.000000
  0 0.000000 18.518112 31.474409 0.000224 0.968682 0.248306 0.880000 0.230000 1 0 1.000000
  0 -0.021462 13.134492 27.188091 -0.000453 0.885844 -0.463983 0.880000 0.315000 1 0 1.000000
armor
  0 -0.000000 12.132016 18.951931 -0.004977 0.887747 -0.460305 0.880000 0.415000 1 0 1.000000
  0 -5.790782 15.365075 22.238594 -0.328014 0.720045 -0.611508 0.965000 0.360000 1 0 1.000000
  0 -0.021462 13.134492 27.188091 -0.000453 0.885844 -0.463983 0.880000 0.315000 1 0 1.000000
armor
  0 -0.000000 12.132016 18.951931 -0.004977 0.887747 -0.460305 0.880000 0.415000 1 0 1.000000
  0 -0.021462 13.134492 27.188091 -0.000453 0.885844 -0.463983 0.880000 0.315000 1 0 1.000000
  0 5.722107 15.365075 22.238594 0.208118 0.757268 -0.619057 0.790000 0.360000 1 0 1.000000
armor
  0 0.000000 18.518112 31.474409 0.000224 0.968682 0.248306 0.880000 0.230000 1 0 1.000000
  0 4.083816 18.494213 29.845707 0.301811 0.946155 0.117053 0.820000 0.245000 1 0 1.000000
  0 -0.021462 13.134492 27.188091 -0.000453 0.885844 -0.463983 0.880000 0.315000 1 0 1.000000
armor
  0 4.083816 18.494213 29.845707 0.301811 0.946155 0.117053 0.820000 0.245000 1 0 1.000000
  0 6.272426 17.641335 25.730064 0.419423 0.886148 -0.197045 0.780000 0.300000 1 0 1.000000
  0 -0.021462 13.134492 27.188091 -0.000453 0.885844 -0.463983 0.880000 0.315000 1 0 1.000000
armor
  0 -5.790782 15.365075 22.238594 -0.328014 0.720045 -0.611508 0.965000 0.360000 1 0 1.000000
  0 -6.341104 17.641335 25.730064 -0.446084 0.861783 -0.241536 0.975000 0.300000 1 0 1.000000
  0 -0.021462 13.134492 27.188091 -0.000453 0.885844 -0.463983 0.880000 0.315000 1 0 1.000000
armor
  0 6.272426 17.641335 25.730064 0.419423 0.886148 -0.197045 0.780000 0.300000 1 0 1.000000
  0 5.722107 15.365075 22.238594 0.208118 0.757268 -0.619057 0.790000 0.360000 1 0 1.000000
  0 -0.021462 13.134492 27.188091 -0.000453 0.885844 -0.463983 0.880000 0.315000 1 0 1.000000
armor
  0 4.835719 5.320828 35.400002 0.643282 0.387342 0.660420 0.485000 0.165000 1 0 1.000000
  0 0.012191 0.003009 32.660004 0.026846 0.000000 0.999640 0.405000 0.110000 1 0 1.000000
  0 5.817762 1.357568 35.400002 0.587846 -0.233106 0.774660 0.440000 0.190000 1 0 1.000000
armor
  0 5.817762 1.357568 35.400002 0.587846 -0.233106 0.774660 0.440000 0.190000 1 0 1.000000
  0 0.012191 0.003009 32.660004 0.026846 0.000000 0.999640 0.405000 0.110000 1 0 1.000000
  0 6.114404 0.003008 33.000000 0.697572 0.000000 0.716515 0.405000 0.190000 1 0 1.000000
armor
  0 -6.114407 0.003008 35.400002 -0.621232 -0.000000 0.783626 0.405000 0.025000 1 0 1.000000
  0 0.012191 0.003009 32.660004 0.026846 0.000000 0.999640 0.405000 0.110000 1 0 1.000000
  0 -4.835719 5.320828 35.400002 -0.574191 0.398840 0.715004 0.475000 0.040000 1 0 1.000000
armor
  0 -4.835719 5.320828 35.400002 -0.574191 0.398840 0.715004 0.475000 0.040000 1 0 1.000000
  0 0.012191 0.003009 32.660004 0.026846 0.000000 0.999640 0.405000 0.110000 1 0 1.000000
  0 0.000000 7.522296 35.400002 0.011832 0.682489 0.730800 0.505000 0.100000 1 0 1.000000
armor
  0 0.000000 7.522296 35.400002 0.011832 0.682489 0.730800 0.505000 0.100000 1 0 1.000000
  0 0.012191 0.003009 32.660004 0.026846 0.000000 0.999640 0.405000 0.110000 1 0 1.000000
  0 4.835719 5.320828 35.400002 0.643282 0.387342 0.660420 0.485000 0.165000 1 0 1.000000
armor
  0 9.893497 0.003008 17.086452 0.946356 -0.000000 -0.323126 0.145000 0.760000 1 0 1.000000
  0 5.709231 6.280883 10.000000 0.518004 0.432184 -0.738166 0.045000 0.850000 1 0 1.000000
  0 6.977950 7.675297 16.253571 0.716405 0.596309 -0.362187 0.130000 0.870000 1 0 1.000000
armor
  0 0.000000 8.880017 10.000000 -0.031088 0.654386 -0.755522 0.765000 0.915000 1 0 1.000000
  0 -5.648723 8.549154 16.107279 -0.698710 0.606389 -0.379601 0.655000 0.875000 1 0 1.000000
  0 0.000000 10.852017 15.234065 0.012145 0.942621 -0.333643 0.695000 0.955000 1 0 1.000000
armor
  0 9.893497 0.003008 17.086452 0.946356 -0.000000 -0.323126 0.145000 0.760000 1 0 1.000000
  0 7.782928 10.758455 21.288052 0.827845 0.453291 -0.330455 0.205000 0.905000 1 0 1.000000
  0 11.786013 0.003008 22.575409 0.999842 0.000000 -0.017766 0.220000 0.760000 1 0 1.000000
armor
  0 -0.000000 12.132016 18.951931 -0.004977 0.887747 -0.460305 0.650000 0.980000 1 0 1.000000
  0 -5.648723 8.549154 16.107279 -0.698710 0.606389 -0.379601 0.655000 0.875000 1 0 1.000000
  0 -6.748275 10.581433 21.297806 -0.846797 0.391592 -0.359986 0.585000 0.905000 1 0 1.000000
armor
  0 6.977950 7.675297 16.253571 0.716405 0.596309 -0.362187 0.130000 0.870000 1 0 1.000000
  0 -0.000000 12.132016 18.951931 -0.004977 0.887747 -0.460305 0.130000 0.990000 1 0 1.000000
  0 7.782928 10.758455 21.288052 0.827845 0.453291 -0.330455 0.205000 0.905000 1 0 1.000000
armor
  0 -6.748275 10.581433 21.297806 -0.846797 0.391592 -0.359986 0.585000 0.905000 1 0 1.000000
  0 -8.823096 0.003008 16.940163 -0.943069 0.000000 -0.332596 0.640000 0.760000 1 0 1.000000
  0 -10.425169 0.003008 22.526646 -0.997543 0.000000 -0.070053 0.565000 0.760000 1 0 1.000000
armor
  0 -6.748275 -10.575418 21.297806 -0.846797 -0.391592 -0.359986 0.585000 0.620000 1 0 1.000000
  0 -6.908170 -8.457706 30.194359 -0.880224 -0.161411 0.446265 0.465000 0.650000 1 0 1.000000
  0 -9.598943 0.003008 30.194359 -0.894025 0.000000 0.448018 0.475000 0.760000 1 0 1.000000
armor
  0 11.786013 0.003008 22.575409 0.999842 0.000000 -0.017766 0.220000 0.760000 1 0 1.000000
  0 7.782928 10.758455 21.288052 0.827845 0.453291 -0.330455 0.205000 0.905000 1 0 1.000000
  0 9.805267 0.003008 30.194359 0.855391 0.000000 0.517984 0.310000 0.760000 1 0 1.000000
armor
  0 6.114404 0.003008 33.000000 0.697572 0.000000 0.716515 0.365000 0.760000 1 0 1.000000
  0 6.908171 7.598604 30.194359 0.830313 0.196831 0.521380 0.325000 0.860000 1 0 1.000000
  0 3.871486 5.870595 32.773605 0.706783 0.409326 0.576983 0.380000 0.845000 1 0 1.000000
armor
  0 -4.303145 5.870595 32.724838 -0.709486 0.382110 0.592132 0.410000 0.840000 1 0 1.000000
  0 -9.598943 0.003008 30.194359 -0.894025 0.000000 0.448018 0.475000 0.760000 1 0 1.000000
  0 -6.114407 0.003008 33.000000 -0.899510 0.000000 0.436900 0.420000 0.760000 1 0 1.000000
armor
  0 0.000000 7.522296 35.400002 0.011832 0.682489 0.730800 0.915000 0.845000 1 0 1.000000
  0 -4.303145 5.870595 32.724838 -0.709486 0.382110 0.592132 0.950000 0.785000 1 0 1.000000
  0 -4.835719 5.320828 35.400002 -0.574191 0.398840 0.715004 0.915000 0.775000 1 0 1.000000
armor
  0 3.871486 5.870595 32.773605 0.706783 0.409326 0.576983 0.950000 0.900000 1 0 1.000000
  0 5.817762 1.357568 35.400002 0.587846 -0.233106 0.774660 0.920000 0.970000 1 0 1.000000
  0 6.114404 0.003008 33.000000 0.697572 0.000000 0.716515 0.955000 0.980000 1 0 1.000000
armor
  0 3.871486 5.870595 32.773605 0.706783 0.409326 0.576983 0.950000 0.900000 1 0 1.000000
  0 0.000000 7.522296 35.400002 0.011832 0.682489 0.730800 0.915000 0.845000 1 0 1.000000
  0 4.835719 5.320828 35.400002 0.643282 0.387342 0.660420 0.915000 0.915000 1 0 1.000000
armor
  0 -4.835719 5.320828 35.400002 -0.574191 0.398840 0.715004 0.915000 0.775000 1 0 1.000000
  0 -6.114407 0.003008 33.000000 -0.899510 0.000000 0.436900 0.945000 0.705000 1 0 1.000000
  0 -6.114407 0.003008 35.400002 -0.621232 -0.000000 0.783626 0.915000 0.705000 1 0 1.000000
armor
  0 5.709231 -6.274866 10.000000 0.518001 -0.432180 -0.738170 0.485000 0.365000 1 0 1.000000
  0 0.000000 -8.874001 10.000000 -0.031088 -0.654386 -0.755522 0.520000 0.290000 1 0 1.000000
  0 -3.859066 -6.274866 10.000000 -0.497496 -0.356376 -0.790882 0.485000 0.230000 1 0 1.000000
armor
  0 -3.859066 -6.274866 10.000000 -0.497496 -0.356376 -0.790882 0.485000 0.230000 1 0 1.000000
  0 -5.883183 0.003008 10.000000 -0.619505 0.000000 -0.784993 0.405000 0.210000 1 0 1.000000
  0 7.218894 0.003008 10.000000 0.621085 0.000000 -0.783744 0.405000 0.385000 1 0 1.000000
armor
  0 -5.883183 0.003008 10.000000 -0.619505 0.000000 -0.784993 0.405000 0.210000 1 0 1.000000
  0 -3.859066 6.280883 10.000000 -0.497493 0.356374 -0.790885 0.320000 0.230000 1 0 1.000000
  0 5.709231 6.280883 10.000000 0.518004 0.432184 -0.738166 0.320000 0.360000 1 0 1.000000
armor
  0 -3.859066 6.280883 10.000000 -0.497493 0.356374 -0.790885 0.320000 0.230000 1 0 1.000000
  0 0.000000 8.880017 10.000000 -0.031088 0.654386 -0.755522 0.285000 0.290000 1 0 1.000000
  0 5.709231 6.280883 10.000000 0.518004 0.432184 -0.738166 0.320000 0.360000 1 0 1.000000
armor
  0 5.709231 6.280883 10.000000 0.518004 0.432184 -0.738166 0.320000 0.360000 1 0 1.000000
  0 7.218894 0.003008 10.000000 0.621085 0.000000 -0.783744 0.405000 0.385000 1 0 1.000000
  0 -5.883183 0.003008 10.000000 -0.619505 0.000000 -0.784993 0.405000 0.210000 1 0 1.000000
armor
  0 7.218894 0.003008 10.000000 0.621085 0.000000 -0.783744 0.405000 0.385000 1 0 1.000000
  0 5.709231 -6.274866 10.000000 0.518001 -0.432180 -0.738170 0.485000 0.365000 1 0 1.000000
  0 -3.859066 -6.274866 10.000000 -0.497496 -0.356376 -0.790882 0.485000 0.230000 1 0 1.000000
end
