version 1
nodes
0 "root" -1
end
skeleton
time 0
0 0.000000 0.000000 0.000000 0.000000 0.000000 0.000000
end
triangles
p0_hp25_side
0 20.000000 6.000000 14.000000 -0.000000 1.000000 0.000000 -0.625000 -0.437500
0 20.000000 6.000000 4.000000 -0.000000 1.000000 0.000000 -0.625000 -0.125000
0 12.000000 6.000000 4.000000 -0.000000 1.000000 0.000000 -0.375000 -0.125000
p0_hp25_side
0 20.000000 6.000000 14.000000 -0.000000 1.000000 0.000000 -0.625000 -0.437500
0 12.000000 6.000000 4.000000 -0.000000 1.000000 0.000000 -0.375000 -0.125000
0 12.000000 6.000000 14.000000 -0.000000 1.000000 0.000000 -0.375000 -0.437500
p0_hp25_side
0 12.000000 6.000000 14.000000 -1.000000 -0.000000 0.000000 0.812500 -0.437500
0 12.000000 6.000000 4.000000 -1.000000 -0.000000 0.000000 0.812500 -0.125000
0 12.000000 2.000000 4.000000 -1.000000 -0.000000 0.000000 0.937500 -0.125000
p0_hp25_side
0 12.000000 6.000000 14.000000 -1.000000 -0.000000 0.000000 0.812500 -0.437500
0 12.000000 2.000000 4.000000 -1.000000 -0.000000 0.000000 0.937500 -0.125000
0 12.000000 2.000000 14.000000 -1.000000 -0.000000 0.000000 0.937500 -0.437500
hp_bottom
0 12.000000 2.000000 4.000000 0.000000 0.000000 -1.000000 -0.937500 -0.375000
0 12.000000 6.000000 4.000000 0.000000 0.000000 -1.000000 -0.812500 -0.375000
0 20.000000 6.000000 4.000000 0.000000 0.000000 -1.000000 -0.812500 -0.625000
hp_bottom
0 12.000000 2.000000 4.000000 0.000000 0.000000 -1.000000 -0.937500 -0.375000
0 20.000000 6.000000 4.000000 0.000000 0.000000 -1.000000 -0.812500 -0.625000
0 20.000000 2.000000 4.000000 0.000000 0.000000 -1.000000 -0.937500 -0.625000
hp25_top2
0 20.000000 6.000000 14.000000 0.000000 0.000000 1.000000 0.812500 -0.625000
0 12.000000 6.000000 14.000000 0.000000 0.000000 1.000000 0.812500 -0.375000
0 12.000000 2.000000 14.000000 0.000000 0.000000 1.000000 0.937500 -0.375000
hp25_top2
0 20.000000 6.000000 14.000000 0.000000 0.000000 1.000000 0.812500 -0.625000
0 12.000000 2.000000 14.000000 0.000000 0.000000 1.000000 0.937500 -0.375000
0 20.000000 2.000000 14.000000 0.000000 0.000000 1.000000 0.937500 -0.625000
p0_hp25_side
0 20.000000 2.000000 14.000000 1.000000 0.000000 0.000000 -0.937500 -0.437500
0 20.000000 2.000000 4.000000 1.000000 0.000000 0.000000 -0.937500 -0.125000
0 20.000000 6.000000 4.000000 1.000000 0.000000 0.000000 -0.812500 -0.125000
p0_hp25_side
0 20.000000 2.000000 14.000000 1.000000 0.000000 0.000000 -0.937500 -0.437500
0 20.000000 6.000000 4.000000 1.000000 0.000000 0.000000 -0.812500 -0.125000
0 20.000000 6.000000 14.000000 1.000000 0.000000 0.000000 -0.812500 -0.437500
p0_hp25_side
0 12.000000 2.000000 14.000000 0.000000 -1.000000 0.000000 0.375000 -0.968750
0 12.000000 2.000000 4.000000 0.000000 -1.000000 0.000000 0.375000 -0.656250
0 20.000000 2.000000 4.000000 0.000000 -1.000000 0.000000 0.625000 -0.656250
p0_hp25_side
0 12.000000 2.000000 14.000000 0.000000 -1.000000 0.000000 0.375000 -0.968750
0 20.000000 2.000000 4.000000 0.000000 -1.000000 0.000000 0.625000 -0.656250
0 20.000000 2.000000 14.000000 0.000000 -1.000000 0.000000 0.625000 -0.968750
p0_hp25_side
0 30.000000 20.000000 14.000000 -0.000000 1.000000 0.000000 -0.937500 -0.437500
0 30.000000 20.000000 4.000000 -0.000000 1.000000 0.000000 -0.937500 -0.125000
0 26.000000 20.000000 4.000000 -0.000000 1.000000 0.000000 -0.812500 -0.125000
p0_hp25_side
0 30.000000 20.000000 14.000000 -0.000000 1.000000 0.000000 -0.937500 -0.437500
0 26.000000 20.000000 4.000000 -0.000000 1.000000 0.000000 -0.812500 -0.125000
0 26.000000 20.000000 14.000000 -0.000000 1.000000 0.000000 -0.812500 -0.437500
p0_hp25_side
0 26.000000 20.000000 14.000000 -1.000000 -0.000000 0.000000 0.375000 -0.437500
0 26.000000 20.000000 4.000000 -1.000000 -0.000000 0.000000 0.375000 -0.125000
0 26.000000 12.000000 4.000000 -1.000000 -0.000000 0.000000 0.625000 -0.125000
p0_hp25_side
0 26.000000 20.000000 14.000000 -1.000000 -0.000000 0.000000 0.375000 -0.437500
0 26.000000 12.000000 4.000000 -1.000000 -0.000000 0.000000 0.625000 -0.125000
0 26.000000 12.000000 14.000000 -1.000000 -0.000000 0.000000 0.625000 -0.437500
hp_bottom
0 26.000000 12.000000 4.000000 0.000000 0.000000 -1.000000 -0.625000 -0.812500
0 26.000000 20.000000 4.000000 0.000000 0.000000 -1.000000 -0.375000 -0.812500
0 30.000000 20.000000 4.000000 0.000000 0.000000 -1.000000 -0.375000 -0.937500
hp_bottom
0 26.000000 12.000000 4.000000 0.000000 0.000000 -1.000000 -0.625000 -0.812500
0 30.000000 20.000000 4.000000 0.000000 0.000000 -1.000000 -0.375000 -0.937500
0 30.000000 12.000000 4.000000 0.000000 0.000000 -1.000000 -0.625000 -0.937500
hp25_top2
0 30.000000 20.000000 14.000000 0.000000 0.000000 1.000000 0.375000 -0.937500
0 26.000000 20.000000 14.000000 0.000000 0.000000 1.000000 0.375000 -0.812500
0 26.000000 12.000000 14.000000 0.000000 0.000000 1.000000 0.625000 -0.812500
hp25_top2
0 30.000000 20.000000 14.000000 0.000000 0.000000 1.000000 0.375000 -0.937500
0 26.000000 12.000000 14.000000 0.000000 0.000000 1.000000 0.625000 -0.812500
0 30.000000 12.000000 14.000000 0.000000 0.000000 1.000000 0.625000 -0.937500
p0_hp25_side
0 30.000000 12.000000 14.000000 1.000000 0.000000 0.000000 -0.625000 -0.437500
0 30.000000 12.000000 4.000000 1.000000 0.000000 0.000000 -0.625000 -0.125000
0 30.000000 20.000000 4.000000 1.000000 0.000000 0.000000 -0.375000 -0.125000
p0_hp25_side
0 30.000000 12.000000 14.000000 1.000000 0.000000 0.000000 -0.625000 -0.437500
0 30.000000 20.000000 4.000000 1.000000 0.000000 0.000000 -0.375000 -0.125000
0 30.000000 20.000000 14.000000 1.000000 0.000000 0.000000 -0.375000 -0.437500
p0_hp25_side
0 26.000000 12.000000 14.000000 0.000000 -1.000000 0.000000 0.812500 -0.437500
0 26.000000 12.000000 4.000000 0.000000 -1.000000 0.000000 0.812500 -0.125000
0 30.000000 12.000000 4.000000 0.000000 -1.000000 0.000000 0.937500 -0.125000
p0_hp25_side
0 26.000000 12.000000 14.000000 0.000000 -1.000000 0.000000 0.812500 -0.437500
0 30.000000 12.000000 4.000000 0.000000 -1.000000 0.000000 0.937500 -0.125000
0 30.000000 12.000000 14.000000 0.000000 -1.000000 0.000000 0.937500 -0.437500
p0_hp25_side
0 6.000000 20.000000 14.000000 -0.000000 1.000000 0.000000 -0.187500 -0.437500
0 6.000000 20.000000 4.000000 -0.000000 1.000000 0.000000 -0.187500 -0.125000
0 2.000000 20.000000 4.000000 -0.000000 1.000000 0.000000 -0.062500 -0.125000
p0_hp25_side
0 6.000000 20.000000 14.000000 -0.000000 1.000000 0.000000 -0.187500 -0.437500
0 2.000000 20.000000 4.000000 -0.000000 1.000000 0.000000 -0.062500 -0.125000
0 2.000000 20.000000 14.000000 -0.000000 1.000000 0.000000 -0.062500 -0.437500
p0_hp25_side
0 2.000000 20.000000 14.000000 -1.000000 -0.000000 0.000000 0.375000 -0.437500
0 2.000000 20.000000 4.000000 -1.000000 -0.000000 0.000000 0.375000 -0.125000
0 2.000000 12.000000 4.000000 -1.000000 -0.000000 0.000000 0.625000 -0.125000
p0_hp25_side
0 2.000000 20.000000 14.000000 -1.000000 -0.000000 0.000000 0.375000 -0.437500
0 2.000000 12.000000 4.000000 -1.000000 -0.000000 0.000000 0.625000 -0.125000
0 2.000000 12.000000 14.000000 -1.000000 -0.000000 0.000000 0.625000 -0.437500
hp_bottom
0 2.000000 12.000000 4.000000 0.000000 0.000000 -1.000000 -0.625000 -0.062500
0 2.000000 20.000000 4.000000 0.000000 0.000000 -1.000000 -0.375000 -0.062500
0 6.000000 20.000000 4.000000 0.000000 0.000000 -1.000000 -0.375000 -0.187500
hp_bottom
0 2.000000 12.000000 4.000000 0.000000 0.000000 -1.000000 -0.625000 -0.062500
0 6.000000 20.000000 4.000000 0.000000 0.000000 -1.000000 -0.375000 -0.187500
0 6.000000 12.000000 4.000000 0.000000 0.000000 -1.000000 -0.625000 -0.187500
hp25_top2
0 6.000000 20.000000 14.000000 0.000000 0.000000 1.000000 0.375000 -0.187500
0 2.000000 20.000000 14.000000 0.000000 0.000000 1.000000 0.375000 -0.062500
0 2.000000 12.000000 14.000000 0.000000 0.000000 1.000000 0.625000 -0.062500
hp25_top2
0 6.000000 20.000000 14.000000 0.000000 0.000000 1.000000 0.375000 -0.187500
0 2.000000 12.000000 14.000000 0.000000 0.000000 1.000000 0.625000 -0.062500
0 6.000000 12.000000 14.000000 0.000000 0.000000 1.000000 0.625000 -0.187500
p0_hp25_side
0 6.000000 12.000000 14.000000 1.000000 0.000000 0.000000 -0.625000 -0.437500
0 6.000000 12.000000 4.000000 1.000000 0.000000 0.000000 -0.625000 -0.125000
0 6.000000 20.000000 4.000000 1.000000 0.000000 0.000000 -0.375000 -0.125000
p0_hp25_side
0 6.000000 12.000000 14.000000 1.000000 0.000000 0.000000 -0.625000 -0.437500
0 6.000000 20.000000 4.000000 1.000000 0.000000 0.000000 -0.375000 -0.125000
0 6.000000 20.000000 14.000000 1.000000 0.000000 0.000000 -0.375000 -0.437500
p0_hp25_side
0 2.000000 12.000000 14.000000 0.000000 -1.000000 0.000000 0.062500 -0.437500
0 2.000000 12.000000 4.000000 0.000000 -1.000000 0.000000 0.062500 -0.125000
0 6.000000 12.000000 4.000000 0.000000 -1.000000 0.000000 0.187500 -0.125000
p0_hp25_side
0 2.000000 12.000000 14.000000 0.000000 -1.000000 0.000000 0.062500 -0.437500
0 6.000000 12.000000 4.000000 0.000000 -1.000000 0.000000 0.187500 -0.125000
0 6.000000 12.000000 14.000000 0.000000 -1.000000 0.000000 0.187500 -0.437500
p0_hp25_side
0 20.000000 30.000000 14.000000 -0.000000 1.000000 0.000000 -0.625000 -0.968750
0 20.000000 30.000000 4.000000 -0.000000 1.000000 0.000000 -0.625000 -0.656250
0 12.000000 30.000000 4.000000 -0.000000 1.000000 0.000000 -0.375000 -0.656250
p0_hp25_side
0 20.000000 30.000000 14.000000 -0.000000 1.000000 0.000000 -0.625000 -0.968750
0 12.000000 30.000000 4.000000 -0.000000 1.000000 0.000000 -0.375000 -0.656250
0 12.000000 30.000000 14.000000 -0.000000 1.000000 0.000000 -0.375000 -0.968750
p0_hp25_side
0 12.000000 30.000000 14.000000 -1.000000 -0.000000 0.000000 0.062500 -0.437500
0 12.000000 30.000000 4.000000 -1.000000 -0.000000 0.000000 0.062500 -0.125000
0 12.000000 26.000000 4.000000 -1.000000 -0.000000 0.000000 0.187500 -0.125000
p0_hp25_side
0 12.000000 30.000000 14.000000 -1.000000 -0.000000 0.000000 0.062500 -0.437500
0 12.000000 26.000000 4.000000 -1.000000 -0.000000 0.000000 0.187500 -0.125000
0 12.000000 26.000000 14.000000 -1.000000 -0.000000 0.000000 0.187500 -0.437500
hp_bottom
0 12.000000 26.000000 4.000000 0.000000 0.000000 -1.000000 -0.187500 -0.375000
0 12.000000 30.000000 4.000000 0.000000 0.000000 -1.000000 -0.062500 -0.375000
0 20.000000 30.000000 4.000000 0.000000 0.000000 -1.000000 -0.062500 -0.625000
hp_bottom
0 12.000000 26.000000 4.000000 0.000000 0.000000 -1.000000 -0.187500 -0.375000
0 20.000000 30.000000 4.000000 0.000000 0.000000 -1.000000 -0.062500 -0.625000
0 20.000000 26.000000 4.000000 0.000000 0.000000 -1.000000 -0.187500 -0.625000
hp25_top2
0 20.000000 30.000000 14.000000 0.000000 0.000000 1.000000 0.062500 -0.625000
0 12.000000 30.000000 14.000000 0.000000 0.000000 1.000000 0.062500 -0.375000
0 12.000000 26.000000 14.000000 0.000000 0.000000 1.000000 0.187500 -0.375000
hp25_top2
0 20.000000 30.000000 14.000000 0.000000 0.000000 1.000000 0.062500 -0.625000
0 12.000000 26.000000 14.000000 0.000000 0.000000 1.000000 0.187500 -0.375000
0 20.000000 26.000000 14.000000 0.000000 0.000000 1.000000 0.187500 -0.625000
p0_hp25_side
0 20.000000 26.000000 14.000000 1.000000 0.000000 0.000000 -0.187500 -0.437500
0 20.000000 26.000000 4.000000 1.000000 0.000000 0.000000 -0.187500 -0.125000
0 20.000000 30.000000 4.000000 1.000000 0.000000 0.000000 -0.062500 -0.125000
p0_hp25_side
0 20.000000 26.000000 14.000000 1.000000 0.000000 0.000000 -0.187500 -0.437500
0 20.000000 30.000000 4.000000 1.000000 0.000000 0.000000 -0.062500 -0.125000
0 20.000000 30.000000 14.000000 1.000000 0.000000 0.000000 -0.062500 -0.437500
p0_hp25_side
0 12.000000 26.000000 14.000000 0.000000 -1.000000 0.000000 0.375000 -0.437500
0 12.000000 26.000000 4.000000 0.000000 -1.000000 0.000000 0.375000 -0.125000
0 20.000000 26.000000 4.000000 0.000000 -1.000000 0.000000 0.625000 -0.125000
p0_hp25_side
0 12.000000 26.000000 14.000000 0.000000 -1.000000 0.000000 0.375000 -0.437500
0 20.000000 26.000000 4.000000 0.000000 -1.000000 0.000000 0.625000 -0.125000
0 20.000000 26.000000 14.000000 0.000000 -1.000000 0.000000 0.625000 -0.437500
p0_hp25_side
0 20.000000 26.000000 14.000000 -0.000000 1.000000 0.000000 -0.625000 -0.437500
0 20.000000 26.000000 4.000000 -0.000000 1.000000 0.000000 -0.625000 -0.125000
0 12.000000 26.000000 4.000000 -0.000000 1.000000 0.000000 -0.375000 -0.125000
p0_hp25_side
0 20.000000 26.000000 14.000000 -0.000000 1.000000 0.000000 -0.625000 -0.437500
0 12.000000 26.000000 4.000000 -0.000000 1.000000 0.000000 -0.375000 -0.125000
0 12.000000 26.000000 14.000000 -0.000000 1.000000 0.000000 -0.375000 -0.437500
p0_hp25_side
0 12.000000 26.000000 14.000000 -0.707107 0.707107 0.000000 0.132583 -0.437500
0 12.000000 26.000000 4.000000 -0.707107 0.707107 0.000000 0.132583 -0.125000
0 6.000000 20.000000 4.000000 -0.707107 0.707107 0.000000 -0.132583 -0.125000
p0_hp25_side
0 12.000000 26.000000 14.000000 -0.707107 0.707107 0.000000 0.132583 -0.437500
0 6.000000 20.000000 4.000000 -0.707107 0.707107 0.000000 -0.132583 -0.125000
0 6.000000 20.000000 14.000000 -0.707107 0.707107 0.000000 -0.132583 -0.437500
p0_hp25_side
0 26.000000 20.000000 14.000000 0.707107 0.707107 0.000000 -0.839690 -0.437500
0 26.000000 20.000000 4.000000 0.707107 0.707107 0.000000 -0.839690 -0.125000
0 20.000000 26.000000 4.000000 0.707107 0.707107 0.000000 -0.574524 -0.125000
p0_hp25_side
0 26.000000 20.000000 14.000000 0.707107 0.707107 0.000000 -0.839690 -0.437500
0 20.000000 26.000000 4.000000 0.707107 0.707107 0.000000 -0.574524 -0.125000
0 20.000000 26.000000 14.000000 0.707107 0.707107 0.000000 -0.574524 -0.437500
p0_hp25_side
0 6.000000 20.000000 14.000000 -1.000000 -0.000000 0.000000 -0.375000 -0.437500
0 6.000000 20.000000 4.000000 -1.000000 -0.000000 0.000000 -0.375000 -0.125000
0 6.000000 12.000000 4.000000 -1.000000 -0.000000 0.000000 -0.625000 -0.125000
p0_hp25_side
0 6.000000 20.000000 14.000000 -1.000000 -0.000000 0.000000 -0.375000 -0.437500
0 6.000000 12.000000 4.000000 -1.000000 -0.000000 0.000000 -0.625000 -0.125000
0 6.000000 12.000000 14.000000 -1.000000 -0.000000 0.000000 -0.625000 -0.437500
hp_bottom
0 20.000000 6.000000 4.000000 0.000000 0.000000 -1.000000 -0.812500 -0.625000
0 12.000000 6.000000 4.000000 0.000000 0.000000 -1.000000 -0.812500 -0.375000
0 6.000000 12.000000 4.000000 0.000000 0.000000 -1.000000 -0.625000 -0.187500
hp_bottom
0 20.000000 6.000000 4.000000 0.000000 0.000000 -1.000000 -0.812500 -0.625000
0 6.000000 12.000000 4.000000 0.000000 0.000000 -1.000000 -0.625000 -0.187500
0 6.000000 20.000000 4.000000 0.000000 0.000000 -1.000000 -0.375000 -0.187500
hp_bottom
0 20.000000 6.000000 4.000000 0.000000 0.000000 -1.000000 -0.812500 -0.625000
0 6.000000 20.000000 4.000000 0.000000 0.000000 -1.000000 -0.375000 -0.187500
0 12.000000 26.000000 4.000000 0.000000 0.000000 -1.000000 -0.187500 -0.375000
hp_bottom
0 20.000000 6.000000 4.000000 0.000000 0.000000 -1.000000 -0.812500 -0.625000
0 12.000000 26.000000 4.000000 0.000000 0.000000 -1.000000 -0.187500 -0.375000
0 20.000000 26.000000 4.000000 0.000000 0.000000 -1.000000 -0.187500 -0.625000
hp_bottom
0 20.000000 6.000000 4.000000 0.000000 0.000000 -1.000000 -0.812500 -0.625000
0 20.000000 26.000000 4.000000 0.000000 0.000000 -1.000000 -0.187500 -0.625000
0 26.000000 20.000000 4.000000 0.000000 0.000000 -1.000000 -0.375000 -0.812500
hp_bottom
0 20.000000 6.000000 4.000000 0.000000 0.000000 -1.000000 -0.812500 -0.625000
0 26.000000 20.000000 4.000000 0.000000 0.000000 -1.000000 -0.375000 -0.812500
0 26.000000 12.000000 4.000000 0.000000 0.000000 -1.000000 -0.625000 -0.812500
hp25_top2
0 26.000000 12.000000 14.000000 0.000000 0.000000 1.000000 0.625000 -0.812500
0 26.000000 20.000000 14.000000 0.000000 0.000000 1.000000 0.375000 -0.812500
0 20.000000 26.000000 14.000000 0.000000 0.000000 1.000000 0.187500 -0.625000
hp25_top2
0 26.000000 12.000000 14.000000 0.000000 0.000000 1.000000 0.625000 -0.812500
0 20.000000 26.000000 14.000000 0.000000 0.000000 1.000000 0.187500 -0.625000
0 12.000000 26.000000 14.000000 0.000000 0.000000 1.000000 0.187500 -0.375000
hp25_top2
0 26.000000 12.000000 14.000000 0.000000 0.000000 1.000000 0.625000 -0.812500
0 12.000000 26.000000 14.000000 0.000000 0.000000 1.000000 0.187500 -0.375000
0 6.000000 20.000000 14.000000 0.000000 0.000000 1.000000 0.375000 -0.187500
hp25_top2
0 26.000000 12.000000 14.000000 0.000000 0.000000 1.000000 0.625000 -0.812500
0 6.000000 20.000000 14.000000 0.000000 0.000000 1.000000 0.375000 -0.187500
0 6.000000 12.000000 14.000000 0.000000 0.000000 1.000000 0.625000 -0.187500
hp25_top2
0 26.000000 12.000000 14.000000 0.000000 0.000000 1.000000 0.625000 -0.812500
0 6.000000 12.000000 14.000000 0.000000 0.000000 1.000000 0.625000 -0.187500
0 12.000000 6.000000 14.000000 0.000000 0.000000 1.000000 0.812500 -0.375000
hp25_top2
0 26.000000 12.000000 14.000000 0.000000 0.000000 1.000000 0.625000 -0.812500
0 12.000000 6.000000 14.000000 0.000000 0.000000 1.000000 0.812500 -0.375000
0 20.000000 6.000000 14.000000 0.000000 0.000000 1.000000 0.812500 -0.625000
p0_hp25_side
0 26.000000 12.000000 4.000000 1.000000 0.000000 0.000000 -0.625000 -0.125000
0 26.000000 20.000000 4.000000 1.000000 0.000000 0.000000 -0.375000 -0.125000
0 26.000000 20.000000 14.000000 1.000000 0.000000 0.000000 -0.375000 -0.437500
p0_hp25_side
0 26.000000 12.000000 4.000000 1.000000 0.000000 0.000000 -0.625000 -0.125000
0 26.000000 20.000000 14.000000 1.000000 0.000000 0.000000 -0.375000 -0.437500
0 26.000000 12.000000 14.000000 1.000000 0.000000 0.000000 -0.625000 -0.437500
p0_hp25_side
0 6.000000 12.000000 14.000000 -0.707107 -0.707107 0.000000 -0.574524 -0.437500
0 6.000000 12.000000 4.000000 -0.707107 -0.707107 0.000000 -0.574524 -0.125000
0 12.000000 6.000000 4.000000 -0.707107 -0.707107 0.000000 -0.839690 -0.125000
p0_hp25_side
0 6.000000 12.000000 14.000000 -0.707107 -0.707107 0.000000 -0.574524 -0.437500
0 12.000000 6.000000 4.000000 -0.707107 -0.707107 0.000000 -0.839690 -0.125000
0 12.000000 6.000000 14.000000 -0.707107 -0.707107 0.000000 -0.839690 -0.437500
p0_hp25_side
0 20.000000 6.000000 4.000000 0.707107 -0.707107 0.000000 -0.132583 -0.125000
0 26.000000 12.000000 4.000000 0.707107 -0.707107 0.000000 0.132583 -0.125000
0 26.000000 12.000000 14.000000 0.707107 -0.707107 0.000000 0.132583 -0.437500
p0_hp25_side
0 20.000000 6.000000 4.000000 0.707107 -0.707107 0.000000 -0.132583 -0.125000
0 26.000000 12.000000 14.000000 0.707107 -0.707107 0.000000 0.132583 -0.437500
0 20.000000 6.000000 14.000000 0.707107 -0.707107 0.000000 -0.132583 -0.437500
p0_hp25_side
0 12.000000 6.000000 14.000000 0.000000 -1.000000 0.000000 0.375000 -0.437500
0 12.000000 6.000000 4.000000 0.000000 -1.000000 0.000000 0.375000 -0.125000
0 20.000000 6.000000 4.000000 0.000000 -1.000000 0.000000 0.625000 -0.125000
p0_hp25_side
0 12.000000 6.000000 14.000000 0.000000 -1.000000 0.000000 0.375000 -0.437500
0 20.000000 6.000000 4.000000 0.000000 -1.000000 0.000000 0.625000 -0.125000
0 20.000000 6.000000 14.000000 0.000000 -1.000000 0.000000 0.625000 -0.437500
hp_details
0 32.000000 12.000000 4.000000 -0.000000 1.000000 0.000000 -2.000000 -0.625000
0 26.000000 12.000000 4.000000 -0.000000 1.000000 0.000000 -1.812500 -0.625000
0 26.000000 12.000000 16.000000 -0.000000 1.000000 0.000000 -1.812500 -1.000000
hp_details
0 32.000000 12.000000 4.000000 -0.000000 1.000000 0.000000 -2.000000 -0.625000
0 26.000000 12.000000 16.000000 -0.000000 1.000000 0.000000 -1.812500 -1.000000
0 32.000000 12.000000 16.000000 -0.000000 1.000000 0.000000 -2.000000 -1.000000
hp_details
0 20.000000 6.000000 16.000000 -0.707107 0.707107 0.000000 -0.500000 -1.000000
0 26.000000 12.000000 16.000000 -0.707107 0.707107 0.000000 -0.750000 -1.000000
0 26.000000 12.000000 4.000000 -0.707107 0.707107 0.000000 -0.750000 -0.625000
hp_details
0 20.000000 6.000000 16.000000 -0.707107 0.707107 0.000000 -0.500000 -1.000000
0 26.000000 12.000000 4.000000 -0.707107 0.707107 0.000000 -0.750000 -0.625000
0 20.000000 6.000000 4.000000 -0.707107 0.707107 0.000000 -0.500000 -0.625000
hp_details
0 20.000000 0.000000 16.000000 -1.000000 -0.000000 0.000000 1.000000 -1.000000
0 20.000000 6.000000 16.000000 -1.000000 -0.000000 0.000000 0.812500 -1.000000
0 20.000000 6.000000 4.000000 -1.000000 -0.000000 0.000000 0.812500 -0.625000
hp_details
0 20.000000 0.000000 16.000000 -1.000000 -0.000000 0.000000 1.000000 -1.000000
0 20.000000 6.000000 4.000000 -1.000000 -0.000000 0.000000 0.812500 -0.625000
0 20.000000 0.000000 4.000000 -1.000000 -0.000000 0.000000 1.000000 -0.625000
p0_hp25_side
0 20.000000 0.000000 4.000000 0.000000 0.000000 -1.000000 -1.000000 -0.625000
0 20.000000 6.000000 4.000000 0.000000 0.000000 -1.000000 -0.812500 -0.625000
0 26.000000 12.000000 4.000000 0.000000 0.000000 -1.000000 -0.625000 -0.812500
p0_hp25_side
0 20.000000 0.000000 4.000000 0.000000 0.000000 -1.000000 -1.000000 -0.625000
0 26.000000 12.000000 4.000000 0.000000 0.000000 -1.000000 -0.625000 -0.812500
0 32.000000 12.000000 4.000000 0.000000 0.000000 -1.000000 -0.625000 -1.000000
p0_hp25_side
0 20.000000 0.000000 4.000000 0.000000 0.000000 -1.000000 -1.000000 -0.625000
0 32.000000 12.000000 4.000000 0.000000 0.000000 -1.000000 -0.625000 -1.000000
0 32.000000 0.000000 4.000000 0.000000 0.000000 -1.000000 -1.000000 -1.000000
p0_hp25_top
0 32.000000 0.000000 16.000000 0.000000 0.000000 1.000000 1.000000 -1.000000
0 32.000000 12.000000 16.000000 0.000000 0.000000 1.000000 0.625000 -1.000000
0 26.000000 12.000000 16.000000 0.000000 0.000000 1.000000 0.625000 -0.812500
p0_hp25_top
0 32.000000 0.000000 16.000000 0.000000 0.000000 1.000000 1.000000 -1.000000
0 26.000000 12.000000 16.000000 0.000000 0.000000 1.000000 0.625000 -0.812500
0 20.000000 6.000000 16.000000 0.000000 0.000000 1.000000 0.812500 -0.625000
p0_hp25_top
0 32.000000 0.000000 16.000000 0.000000 0.000000 1.000000 1.000000 -1.000000
0 20.000000 6.000000 16.000000 0.000000 0.000000 1.000000 0.812500 -0.625000
0 20.000000 0.000000 16.000000 0.000000 0.000000 1.000000 1.000000 -0.625000
p0_hp25_side
0 32.000000 0.000000 16.000000 1.000000 0.000000 0.000000 -1.000000 -1.000000
0 32.000000 0.000000 4.000000 1.000000 0.000000 0.000000 -1.000000 -0.625000
0 32.000000 12.000000 4.000000 1.000000 0.000000 0.000000 -0.625000 -0.625000
p0_hp25_side
0 32.000000 0.000000 16.000000 1.000000 0.000000 0.000000 -1.000000 -1.000000
0 32.000000 12.000000 4.000000 1.000000 0.000000 0.000000 -0.625000 -0.625000
0 32.000000 12.000000 16.000000 1.000000 0.000000 0.000000 -0.625000 -1.000000
p0_hp25_side
0 20.000000 0.000000 16.000000 0.000000 -1.000000 0.000000 0.625000 -0.500000
0 20.000000 0.000000 4.000000 0.000000 -1.000000 0.000000 0.625000 -0.125000
0 32.000000 0.000000 4.000000 0.000000 -1.000000 0.000000 1.000000 -0.125000
p0_hp25_side
0 20.000000 0.000000 16.000000 0.000000 -1.000000 0.000000 0.625000 -0.500000
0 32.000000 0.000000 4.000000 0.000000 -1.000000 0.000000 1.000000 -0.125000
0 32.000000 0.000000 16.000000 0.000000 -1.000000 0.000000 1.000000 -0.500000
p0_hp25_side
0 32.000000 32.000000 16.000000 -0.000000 1.000000 0.000000 -1.000000 -0.500000
0 32.000000 32.000000 4.000000 -0.000000 1.000000 0.000000 -1.000000 -0.125000
0 20.000000 32.000000 4.000000 -0.000000 1.000000 0.000000 -0.625000 -0.125000
p0_hp25_side
0 32.000000 32.000000 16.000000 -0.000000 1.000000 0.000000 -1.000000 -0.500000
0 20.000000 32.000000 4.000000 -0.000000 1.000000 0.000000 -0.625000 -0.125000
0 20.000000 32.000000 16.000000 -0.000000 1.000000 0.000000 -0.625000 -0.500000
hp_details
0 20.000000 32.000000 16.000000 -1.000000 -0.000000 0.000000 0.000000 -1.000000
0 20.000000 32.000000 4.000000 -1.000000 -0.000000 0.000000 0.000000 -0.625000
0 20.000000 26.000000 4.000000 -1.000000 -0.000000 0.000000 0.187500 -0.625000
hp_details
0 20.000000 32.000000 16.000000 -1.000000 -0.000000 0.000000 0.000000 -1.000000
0 20.000000 26.000000 4.000000 -1.000000 -0.000000 0.000000 0.187500 -0.625000
0 20.000000 26.000000 16.000000 -1.000000 -0.000000 0.000000 0.187500 -1.000000
p0_hp25_side
0 32.000000 20.000000 4.000000 0.000000 0.000000 -1.000000 -0.375000 -1.000000
0 26.000000 20.000000 4.000000 0.000000 0.000000 -1.000000 -0.375000 -0.812500
0 20.000000 26.000000 4.000000 0.000000 0.000000 -1.000000 -0.187500 -0.625000
p0_hp25_side
0 32.000000 20.000000 4.000000 0.000000 0.000000 -1.000000 -0.375000 -1.000000
0 20.000000 26.000000 4.000000 0.000000 0.000000 -1.000000 -0.187500 -0.625000
0 20.000000 32.000000 4.000000 0.000000 0.000000 -1.000000 0.000000 -0.625000
p0_hp25_side
0 32.000000 20.000000 4.000000 0.000000 0.000000 -1.000000 -0.375000 -1.000000
0 20.000000 32.000000 4.000000 0.000000 0.000000 -1.000000 0.000000 -0.625000
0 32.000000 32.000000 4.000000 0.000000 0.000000 -1.000000 0.000000 -1.000000
p0_hp25_top
0 32.000000 32.000000 16.000000 0.000000 0.000000 1.000000 0.000000 -1.000000
0 20.000000 32.000000 16.000000 0.000000 0.000000 1.000000 0.000000 -0.625000
0 20.000000 26.000000 16.000000 0.000000 0.000000 1.000000 0.187500 -0.625000
p0_hp25_top
0 32.000000 32.000000 16.000000 0.000000 0.000000 1.000000 0.000000 -1.000000
0 20.000000 26.000000 16.000000 0.000000 0.000000 1.000000 0.187500 -0.625000
0 26.000000 20.000000 16.000000 0.000000 0.000000 1.000000 0.375000 -0.812500
p0_hp25_top
0 32.000000 32.000000 16.000000 0.000000 0.000000 1.000000 0.000000 -1.000000
0 26.000000 20.000000 16.000000 0.000000 0.000000 1.000000 0.375000 -0.812500
0 32.000000 20.000000 16.000000 0.000000 0.000000 1.000000 0.375000 -1.000000
p0_hp25_side
0 32.000000 20.000000 16.000000 1.000000 0.000000 0.000000 -0.375000 -1.000000
0 32.000000 20.000000 4.000000 1.000000 0.000000 0.000000 -0.375000 -0.625000
0 32.000000 32.000000 4.000000 1.000000 0.000000 0.000000 0.000000 -0.625000
p0_hp25_side
0 32.000000 20.000000 16.000000 1.000000 0.000000 0.000000 -0.375000 -1.000000
0 32.000000 32.000000 4.000000 1.000000 0.000000 0.000000 0.000000 -0.625000
0 32.000000 32.000000 16.000000 1.000000 0.000000 0.000000 0.000000 -1.000000
hp_details
0 26.000000 20.000000 16.000000 -0.707107 -0.707107 0.000000 0.500000 -1.000000
0 20.000000 26.000000 16.000000 -0.707107 -0.707107 0.000000 0.250000 -1.000000
0 20.000000 26.000000 4.000000 -0.707107 -0.707107 0.000000 0.250000 -0.625000
hp_details
0 26.000000 20.000000 16.000000 -0.707107 -0.707107 0.000000 0.500000 -1.000000
0 20.000000 26.000000 4.000000 -0.707107 -0.707107 0.000000 0.250000 -0.625000
0 26.000000 20.000000 4.000000 -0.707107 -0.707107 0.000000 0.500000 -0.625000
hp_details
0 26.000000 20.000000 16.000000 0.000000 -1.000000 0.000000 0.812500 -1.000000
0 26.000000 20.000000 4.000000 0.000000 -1.000000 0.000000 0.812500 -0.625000
0 32.000000 20.000000 4.000000 0.000000 -1.000000 0.000000 1.000000 -0.625000
hp_details
0 26.000000 20.000000 16.000000 0.000000 -1.000000 0.000000 0.812500 -1.000000
0 32.000000 20.000000 4.000000 0.000000 -1.000000 0.000000 1.000000 -0.625000
0 32.000000 20.000000 16.000000 0.000000 -1.000000 0.000000 1.000000 -1.000000
p0_hp25_side
0 12.000000 32.000000 16.000000 -0.000000 1.000000 0.000000 -0.375000 -0.500000
0 12.000000 32.000000 4.000000 -0.000000 1.000000 0.000000 -0.375000 -0.125000
0 0.000000 32.000000 4.000000 -0.000000 1.000000 0.000000 0.000000 -0.125000
p0_hp25_side
0 12.000000 32.000000 16.000000 -0.000000 1.000000 0.000000 -0.375000 -0.500000
0 0.000000 32.000000 4.000000 -0.000000 1.000000 0.000000 0.000000 -0.125000
0 0.000000 32.000000 16.000000 -0.000000 1.000000 0.000000 0.000000 -0.500000
p0_hp25_side
0 0.000000 32.000000 16.000000 -1.000000 -0.000000 0.000000 0.000000 -0.500000
0 0.000000 32.000000 4.000000 -1.000000 -0.000000 0.000000 0.000000 -0.125000
0 0.000000 20.000000 4.000000 -1.000000 -0.000000 0.000000 0.375000 -0.125000
p0_hp25_side
0 0.000000 32.000000 16.000000 -1.000000 -0.000000 0.000000 0.000000 -0.500000
0 0.000000 20.000000 4.000000 -1.000000 -0.000000 0.000000 0.375000 -0.125000
0 0.000000 20.000000 16.000000 -1.000000 -0.000000 0.000000 0.375000 -0.500000
p0_hp25_side
0 6.000000 20.000000 4.000000 0.000000 0.000000 -1.000000 -0.375000 -0.187500
0 0.000000 20.000000 4.000000 0.000000 0.000000 -1.000000 -0.375000 0.000000
0 0.000000 32.000000 4.000000 0.000000 0.000000 -1.000000 0.000000 0.000000
p0_hp25_side
0 6.000000 20.000000 4.000000 0.000000 0.000000 -1.000000 -0.375000 -0.187500
0 0.000000 32.000000 4.000000 0.000000 0.000000 -1.000000 0.000000 0.000000
0 12.000000 32.000000 4.000000 0.000000 0.000000 -1.000000 0.000000 -0.375000
p0_hp25_side
0 6.000000 20.000000 4.000000 0.000000 0.000000 -1.000000 -0.375000 -0.187500
0 12.000000 32.000000 4.000000 0.000000 0.000000 -1.000000 0.000000 -0.375000
0 12.000000 26.000000 4.000000 0.000000 0.000000 -1.000000 -0.187500 -0.375000
p0_hp25_top
0 12.000000 26.000000 16.000000 0.000000 0.000000 1.000000 0.187500 -0.375000
0 12.000000 32.000000 16.000000 0.000000 0.000000 1.000000 0.000000 -0.375000
0 0.000000 32.000000 16.000000 0.000000 0.000000 1.000000 0.000000 0.000000
p0_hp25_top
0 12.000000 26.000000 16.000000 0.000000 0.000000 1.000000 0.187500 -0.375000
0 0.000000 32.000000 16.000000 0.000000 0.000000 1.000000 0.000000 0.000000
0 0.000000 20.000000 16.000000 0.000000 0.000000 1.000000 0.375000 0.000000
p0_hp25_top
0 12.000000 26.000000 16.000000 0.000000 0.000000 1.000000 0.187500 -0.375000
0 0.000000 20.000000 16.000000 0.000000 0.000000 1.000000 0.375000 0.000000
0 6.000000 20.000000 16.000000 0.000000 0.000000 1.000000 0.375000 -0.187500
hp_details
0 12.000000 26.000000 16.000000 1.000000 0.000000 0.000000 -0.187500 -1.000000
0 12.000000 26.000000 4.000000 1.000000 0.000000 0.000000 -0.187500 -0.625000
0 12.000000 32.000000 4.000000 1.000000 0.000000 0.000000 0.000000 -0.625000
hp_details
0 12.000000 26.000000 16.000000 1.000000 0.000000 0.000000 -0.187500 -1.000000
0 12.000000 32.000000 4.000000 1.000000 0.000000 0.000000 0.000000 -0.625000
0 12.000000 32.000000 16.000000 1.000000 0.000000 0.000000 0.000000 -1.000000
hp_details
0 6.000000 20.000000 16.000000 0.707107 -0.707107 0.000000 -0.500000 -1.000000
0 6.000000 20.000000 4.000000 0.707107 -0.707107 0.000000 -0.500000 -0.625000
0 12.000000 26.000000 4.000000 0.707107 -0.707107 0.000000 -0.250000 -0.625000
hp_details
0 6.000000 20.000000 16.000000 0.707107 -0.707107 0.000000 -0.500000 -1.000000
0 12.000000 26.000000 4.000000 0.707107 -0.707107 0.000000 -0.250000 -0.625000
0 12.000000 26.000000 16.000000 0.707107 -0.707107 0.000000 -0.250000 -1.000000
hp_details
0 0.000000 20.000000 16.000000 0.000000 -1.000000 0.000000 -1.000000 -1.000000
0 0.000000 20.000000 4.000000 0.000000 -1.000000 0.000000 -1.000000 -0.625000
0 6.000000 20.000000 4.000000 0.000000 -1.000000 0.000000 -0.812500 -0.625000
hp_details
0 0.000000 20.000000 16.000000 0.000000 -1.000000 0.000000 -1.000000 -1.000000
0 6.000000 20.000000 4.000000 0.000000 -1.000000 0.000000 -0.812500 -0.625000
0 6.000000 20.000000 16.000000 0.000000 -1.000000 0.000000 -0.812500 -1.000000
hp_details
0 6.000000 12.000000 16.000000 -0.000000 1.000000 0.000000 -0.187500 -1.000000
0 6.000000 12.000000 4.000000 -0.000000 1.000000 0.000000 -0.187500 -0.625000
0 0.000000 12.000000 4.000000 -0.000000 1.000000 0.000000 0.000000 -0.625000
hp_details
0 6.000000 12.000000 16.000000 -0.000000 1.000000 0.000000 -0.187500 -1.000000
0 0.000000 12.000000 4.000000 -0.000000 1.000000 0.000000 0.000000 -0.625000
0 0.000000 12.000000 16.000000 -0.000000 1.000000 0.000000 0.000000 -1.000000
hp_details
0 12.000000 6.000000 16.000000 0.707107 0.707107 0.000000 -0.750000 -1.000000
0 12.000000 6.000000 4.000000 0.707107 0.707107 0.000000 -0.750000 -0.625000
0 6.000000 12.000000 4.000000 0.707107 0.707107 0.000000 -0.500000 -0.625000
hp_details
0 12.000000 6.000000 16.000000 0.707107 0.707107 0.000000 -0.750000 -1.000000
0 6.000000 12.000000 4.000000 0.707107 0.707107 0.000000 -0.500000 -0.625000
0 6.000000 12.000000 16.000000 0.707107 0.707107 0.000000 -0.500000 -1.000000
p0_hp25_side
0 0.000000 12.000000 16.000000 -1.000000 -0.000000 0.000000 0.625000 -1.000000
0 0.000000 12.000000 4.000000 -1.000000 -0.000000 0.000000 0.625000 -0.625000
0 0.000000 0.000000 4.000000 -1.000000 -0.000000 0.000000 1.000000 -0.625000
p0_hp25_side
0 0.000000 12.000000 16.000000 -1.000000 -0.000000 0.000000 0.625000 -1.000000
0 0.000000 0.000000 4.000000 -1.000000 -0.000000 0.000000 1.000000 -0.625000
0 0.000000 0.000000 16.000000 -1.000000 -0.000000 0.000000 1.000000 -1.000000
p0_hp25_side
0 0.000000 0.000000 4.000000 0.000000 0.000000 -1.000000 -1.000000 0.000000
0 0.000000 12.000000 4.000000 0.000000 0.000000 -1.000000 -0.625000 0.000000
0 6.000000 12.000000 4.000000 0.000000 0.000000 -1.000000 -0.625000 -0.187500
p0_hp25_side
0 0.000000 0.000000 4.000000 0.000000 0.000000 -1.000000 -1.000000 0.000000
0 6.000000 12.000000 4.000000 0.000000 0.000000 -1.000000 -0.625000 -0.187500
0 12.000000 6.000000 4.000000 0.000000 0.000000 -1.000000 -0.812500 -0.375000
p0_hp25_side
0 0.000000 0.000000 4.000000 0.000000 0.000000 -1.000000 -1.000000 0.000000
0 12.000000 6.000000 4.000000 0.000000 0.000000 -1.000000 -0.812500 -0.375000
0 12.000000 0.000000 4.000000 0.000000 0.000000 -1.000000 -1.000000 -0.375000
p0_hp25_top
0 12.000000 0.000000 16.000000 0.000000 0.000000 1.000000 1.000000 -0.375000
0 12.000000 6.000000 16.000000 0.000000 0.000000 1.000000 0.812500 -0.375000
0 6.000000 12.000000 16.000000 0.000000 0.000000 1.000000 0.625000 -0.187500
p0_hp25_top
0 12.000000 0.000000 16.000000 0.000000 0.000000 1.000000 1.000000 -0.375000
0 6.000000 12.000000 16.000000 0.000000 0.000000 1.000000 0.625000 -0.187500
0 0.000000 12.000000 16.000000 0.000000 0.000000 1.000000 0.625000 0.000000
p0_hp25_top
0 12.000000 0.000000 16.000000 0.000000 0.000000 1.000000 1.000000 -0.375000
0 0.000000 12.000000 16.000000 0.000000 0.000000 1.000000 0.625000 0.000000
0 0.000000 0.000000 16.000000 0.000000 0.000000 1.000000 1.000000 0.000000
hp_details
0 12.000000 0.000000 16.000000 1.000000 0.000000 0.000000 -2.000000 -1.000000
0 12.000000 0.000000 4.000000 1.000000 0.000000 0.000000 -2.000000 -0.625000
0 12.000000 6.000000 4.000000 1.000000 0.000000 0.000000 -1.812500 -0.625000
hp_details
0 12.000000 0.000000 16.000000 1.000000 0.000000 0.000000 -2.000000 -1.000000
0 12.000000 6.000000 4.000000 1.000000 0.000000 0.000000 -1.812500 -0.625000
0 12.000000 6.000000 16.000000 1.000000 0.000000 0.000000 -1.812500 -1.000000
p0_hp25_side
0 0.000000 0.000000 16.000000 0.000000 -1.000000 0.000000 0.000000 -0.500000
0 0.000000 0.000000 4.000000 0.000000 -1.000000 0.000000 0.000000 -0.125000
0 12.000000 0.000000 4.000000 0.000000 -1.000000 0.000000 0.375000 -0.125000
p0_hp25_side
0 0.000000 0.000000 16.000000 0.000000 -1.000000 0.000000 0.000000 -0.500000
0 12.000000 0.000000 4.000000 0.000000 -1.000000 0.000000 0.375000 -0.125000
0 12.000000 0.000000 16.000000 0.000000 -1.000000 0.000000 0.375000 -0.500000
p0_hp25_side
0 32.000000 32.000000 0.000000 -0.000000 1.000000 0.000000 -1.000000 0.000000
0 0.000000 32.000000 0.000000 -0.000000 1.000000 0.000000 0.000000 0.000000
0 0.000000 32.000000 4.000000 -0.000000 1.000000 0.000000 0.000000 -0.125000
p0_hp25_side
0 32.000000 32.000000 0.000000 -0.000000 1.000000 0.000000 -1.000000 0.000000
0 0.000000 32.000000 4.000000 -0.000000 1.000000 0.000000 0.000000 -0.125000
0 32.000000 32.000000 4.000000 -0.000000 1.000000 0.000000 -1.000000 -0.125000
p0_hp25_side
0 0.000000 32.000000 4.000000 -1.000000 -0.000000 0.000000 0.000000 -0.625000
0 0.000000 32.000000 0.000000 -1.000000 -0.000000 0.000000 0.000000 -0.500000
0 0.000000 0.000000 0.000000 -1.000000 -0.000000 0.000000 1.000000 -0.500000
p0_hp25_side
0 0.000000 32.000000 4.000000 -1.000000 -0.000000 0.000000 0.000000 -0.625000
0 0.000000 0.000000 0.000000 -1.000000 -0.000000 0.000000 1.000000 -0.500000
0 0.000000 0.000000 4.000000 -1.000000 -0.000000 0.000000 1.000000 -0.625000
hp_bottom
0 0.000000 0.000000 0.000000 0.000000 0.000000 -1.000000 -1.000000 0.000000
0 0.000000 32.000000 0.000000 0.000000 0.000000 -1.000000 0.000000 0.000000
0 32.000000 32.000000 0.000000 0.000000 0.000000 -1.000000 0.000000 -1.000000
hp_bottom
0 0.000000 0.000000 0.000000 0.000000 0.000000 -1.000000 -1.000000 0.000000
0 32.000000 32.000000 0.000000 0.000000 0.000000 -1.000000 0.000000 -1.000000
0 32.000000 0.000000 0.000000 0.000000 0.000000 -1.000000 -1.000000 -1.000000
p0_hp25_top
0 32.000000 32.000000 4.000000 0.000000 0.000000 1.000000 0.000000 -1.000000
0 0.000000 32.000000 4.000000 0.000000 0.000000 1.000000 0.000000 0.000000
0 0.000000 0.000000 4.000000 0.000000 0.000000 1.000000 1.000000 0.000000
p0_hp25_top
0 32.000000 32.000000 4.000000 0.000000 0.000000 1.000000 0.000000 -1.000000
0 0.000000 0.000000 4.000000 0.000000 0.000000 1.000000 1.000000 0.000000
0 32.000000 0.000000 4.000000 0.000000 0.000000 1.000000 1.000000 -1.000000
p0_hp25_side
0 32.000000 0.000000 0.000000 1.000000 0.000000 0.000000 -1.000000 -0.500000
0 32.000000 32.000000 0.000000 1.000000 0.000000 0.000000 0.000000 -0.500000
0 32.000000 32.000000 4.000000 1.000000 0.000000 0.000000 0.000000 -0.625000
p0_hp25_side
0 32.000000 0.000000 0.000000 1.000000 0.000000 0.000000 -1.000000 -0.500000
0 32.000000 32.000000 4.000000 1.000000 0.000000 0.000000 0.000000 -0.625000
0 32.000000 0.000000 4.000000 1.000000 0.000000 0.000000 -1.000000 -0.625000
p0_hp25_side
0 0.000000 0.000000 4.000000 0.000000 -1.000000 0.000000 0.000000 -0.125000
0 0.000000 0.000000 0.000000 0.000000 -1.000000 0.000000 0.000000 0.000000
0 32.000000 0.000000 0.000000 0.000000 -1.000000 0.000000 1.000000 0.000000
p0_hp25_side
0 0.000000 0.000000 4.000000 0.000000 -1.000000 0.000000 0.000000 -0.125000
0 32.000000 0.000000 0.000000 0.000000 -1.000000 0.000000 1.000000 0.000000
0 32.000000 0.000000 4.000000 0.000000 -1.000000 0.000000 1.000000 -0.125000
p0_hp25_side
0 20.000000 2.000000 6.000000 -0.000000 1.000000 0.000000 0.625000 -0.187500
0 20.000000 2.000000 4.000000 -0.000000 1.000000 0.000000 0.625000 -0.125000
0 12.000000 2.000000 4.000000 -0.000000 1.000000 0.000000 0.375000 -0.125000
p0_hp25_side
0 20.000000 2.000000 6.000000 -0.000000 1.000000 0.000000 0.625000 -0.187500
0 12.000000 2.000000 4.000000 -0.000000 1.000000 0.000000 0.375000 -0.125000
0 12.000000 2.000000 6.000000 -0.000000 1.000000 0.000000 0.375000 -0.187500
p0_hp25_side
0 12.000000 2.000000 6.000000 -1.000000 -0.000000 0.000000 -0.937500 -0.187500
0 12.000000 2.000000 4.000000 -1.000000 -0.000000 0.000000 -0.937500 -0.125000
0 12.000000 0.000000 4.000000 -1.000000 -0.000000 0.000000 -1.000000 -0.125000
hp_bottom
0 12.000000 0.000000 4.000000 0.000000 0.000000 -1.000000 -1.000000 -0.375000
0 12.000000 2.000000 4.000000 0.000000 0.000000 -1.000000 -0.937500 -0.375000
0 20.000000 2.000000 4.000000 0.000000 0.000000 -1.000000 -0.937500 -0.625000
hp_bottom
0 12.000000 0.000000 4.000000 0.000000 0.000000 -1.000000 -1.000000 -0.375000
0 20.000000 2.000000 4.000000 0.000000 0.000000 -1.000000 -0.937500 -0.625000
0 20.000000 0.000000 4.000000 0.000000 0.000000 -1.000000 -1.000000 -0.625000
p0_hp25_side
0 20.000000 0.000000 4.000000 1.000000 0.000000 0.000000 1.000000 -0.125000
0 20.000000 2.000000 4.000000 1.000000 0.000000 0.000000 0.937500 -0.125000
0 20.000000 2.000000 6.000000 1.000000 0.000000 0.000000 0.937500 -0.187500
p0_hp25_side
0 20.000000 2.000000 6.000000 0.000000 -0.707107 0.707107 -0.625000 -0.216000
0 12.000000 2.000000 6.000000 0.000000 -0.707107 0.707107 -0.375000 -0.216000
0 12.000000 0.000000 4.000000 0.000000 -0.707107 0.707107 -0.375000 -0.125000
p0_hp25_side
0 20.000000 2.000000 6.000000 0.000000 -0.707107 0.707107 -0.625000 -0.216000
0 12.000000 0.000000 4.000000 0.000000 -0.707107 0.707107 -0.375000 -0.125000
0 20.000000 0.000000 4.000000 0.000000 -0.707107 0.707107 -0.625000 -0.125000
p0_hp25_side
0 32.000000 20.000000 4.000000 -0.000000 1.000000 0.000000 1.000000 -0.125000
0 30.000000 20.000000 4.000000 -0.000000 1.000000 0.000000 0.937500 -0.125000
0 30.000000 20.000000 6.000000 -0.000000 1.000000 0.000000 0.937500 -0.187500
p0_hp25_side
0 30.000000 20.000000 6.000000 -1.000000 -0.000000 0.000000 -0.375000 -0.187500
0 30.000000 20.000000 4.000000 -1.000000 -0.000000 0.000000 -0.375000 -0.125000
0 30.000000 12.000000 4.000000 -1.000000 -0.000000 0.000000 -0.625000 -0.125000
p0_hp25_side
0 30.000000 20.000000 6.000000 -1.000000 -0.000000 0.000000 -0.375000 -0.187500
0 30.000000 12.000000 4.000000 -1.000000 -0.000000 0.000000 -0.625000 -0.125000
0 30.000000 12.000000 6.000000 -1.000000 -0.000000 0.000000 -0.625000 -0.187500
p0_hp25_side
0 30.000000 12.000000 4.000000 0.000000 0.000000 -1.000000 -0.625000 -0.937500
0 30.000000 20.000000 4.000000 0.000000 0.000000 -1.000000 -0.375000 -0.937500
0 32.000000 20.000000 4.000000 0.000000 0.000000 -1.000000 -0.375000 -1.000000
p0_hp25_side
0 30.000000 12.000000 4.000000 0.000000 0.000000 -1.000000 -0.625000 -0.937500
0 32.000000 20.000000 4.000000 0.000000 0.000000 -1.000000 -0.375000 -1.000000
0 32.000000 12.000000 4.000000 0.000000 0.000000 -1.000000 -0.625000 -1.000000
p0_hp25_side
0 32.000000 12.000000 4.000000 0.707107 0.000000 0.707107 -1.375000 0.875000
0 32.000000 20.000000 4.000000 0.707107 0.000000 0.707107 -1.625000 0.875000
0 30.000000 20.000000 6.000000 0.707107 0.000000 0.707107 -1.625000 0.779143
p0_hp25_side
0 32.000000 12.000000 4.000000 0.707107 0.000000 0.707107 -1.375000 0.875000
0 30.000000 20.000000 6.000000 0.707107 0.000000 0.707107 -1.625000 0.779143
0 30.000000 12.000000 6.000000 0.707107 0.000000 0.707107 -1.375000 0.779143
p0_hp25_side
0 30.000000 12.000000 6.000000 0.000000 -1.000000 0.000000 -0.937500 -0.187500
0 30.000000 12.000000 4.000000 0.000000 -1.000000 0.000000 -0.937500 -0.125000
0 32.000000 12.000000 4.000000 0.000000 -1.000000 0.000000 -1.000000 -0.125000
p0_hp25_side
0 20.000000 32.000000 4.000000 -0.000000 0.707107 0.707107 -0.625000 -0.124780
0 12.000000 32.000000 4.000000 -0.000000 0.707107 0.707107 -0.375000 -0.124780
0 12.000000 30.000000 6.000000 -0.000000 0.707107 0.707107 -0.375000 -0.213168
p0_hp25_side
0 20.000000 32.000000 4.000000 -0.000000 0.707107 0.707107 -0.625000 -0.124780
0 12.000000 30.000000 6.000000 -0.000000 0.707107 0.707107 -0.375000 -0.213168
0 20.000000 30.000000 6.000000 -0.000000 0.707107 0.707107 -0.625000 -0.213168
p0_hp25_side
0 12.000000 30.000000 6.000000 -1.000000 -0.000000 0.000000 0.062500 -0.187500
0 12.000000 32.000000 4.000000 -1.000000 -0.000000 0.000000 0.000000 -0.125000
0 12.000000 30.000000 4.000000 -1.000000 -0.000000 0.000000 0.062500 -0.125000
hp_bottom
0 12.000000 30.000000 4.000000 0.000000 0.000000 -1.000000 -0.062500 -0.375000
0 12.000000 32.000000 4.000000 0.000000 0.000000 -1.000000 0.000000 -0.375000
0 20.000000 32.000000 4.000000 0.000000 0.000000 -1.000000 0.000000 -0.625000
hp_bottom
0 12.000000 30.000000 4.000000 0.000000 0.000000 -1.000000 -0.062500 -0.375000
0 20.000000 32.000000 4.000000 0.000000 0.000000 -1.000000 0.000000 -0.625000
0 20.000000 30.000000 4.000000 0.000000 0.000000 -1.000000 -0.062500 -0.625000
p0_hp25_side
0 20.000000 30.000000 4.000000 1.000000 0.000000 0.000000 -0.062500 -0.125000
0 20.000000 32.000000 4.000000 1.000000 0.000000 0.000000 0.000000 -0.125000
0 20.000000 30.000000 6.000000 1.000000 0.000000 0.000000 -0.062500 -0.187500
p0_hp25_side
0 20.000000 30.000000 6.000000 0.000000 -1.000000 0.000000 0.625000 -0.187500
0 12.000000 30.000000 6.000000 0.000000 -1.000000 0.000000 0.375000 -0.187500
0 12.000000 30.000000 4.000000 0.000000 -1.000000 0.000000 0.375000 -0.125000
p0_hp25_side
0 20.000000 30.000000 6.000000 0.000000 -1.000000 0.000000 0.625000 -0.187500
0 12.000000 30.000000 4.000000 0.000000 -1.000000 0.000000 0.375000 -0.125000
0 20.000000 30.000000 4.000000 0.000000 -1.000000 0.000000 0.625000 -0.125000
p0_hp25_side
0 2.000000 20.000000 4.000000 -0.000000 1.000000 0.000000 0.062500 -0.125000
0 0.000000 20.000000 4.000000 -0.000000 1.000000 0.000000 -0.000000 -0.125000
0 2.000000 20.000000 6.000000 -0.000000 1.000000 0.000000 0.062500 -0.187500
p0_hp25_side
0 2.000000 20.000000 6.000000 -0.707107 -0.000000 0.707107 -0.375000 -0.216000
0 0.000000 20.000000 4.000000 -0.707107 -0.000000 0.707107 -0.375000 -0.125000
0 0.000000 12.000000 4.000000 -0.707107 -0.000000 0.707107 -0.625000 -0.125000
p0_hp25_side
0 2.000000 20.000000 6.000000 -0.707107 -0.000000 0.707107 -0.375000 -0.216000
0 0.000000 12.000000 4.000000 -0.707107 -0.000000 0.707107 -0.625000 -0.125000
0 2.000000 12.000000 6.000000 -0.707107 -0.000000 0.707107 -0.625000 -0.216000
hp_bottom
0 0.000000 12.000000 4.000000 0.000000 0.000000 -1.000000 -0.625000 0.000000
0 0.000000 20.000000 4.000000 0.000000 0.000000 -1.000000 -0.375000 0.000000
0 2.000000 20.000000 4.000000 0.000000 0.000000 -1.000000 -0.375000 -0.062500
hp_bottom
0 0.000000 12.000000 4.000000 0.000000 0.000000 -1.000000 -0.625000 0.000000
0 2.000000 20.000000 4.000000 0.000000 0.000000 -1.000000 -0.375000 -0.062500
0 2.000000 12.000000 4.000000 0.000000 0.000000 -1.000000 -0.625000 -0.062500
p0_hp25_side
0 2.000000 20.000000 4.000000 1.000000 0.000000 0.000000 0.375000 -0.125000
0 2.000000 20.000000 6.000000 1.000000 0.000000 0.000000 0.375000 -0.187500
0 2.000000 12.000000 6.000000 1.000000 0.000000 0.000000 0.625000 -0.187500
p0_hp25_side
0 2.000000 20.000000 4.000000 1.000000 0.000000 0.000000 0.375000 -0.125000
0 2.000000 12.000000 6.000000 1.000000 0.000000 0.000000 0.625000 -0.187500
0 2.000000 12.000000 4.000000 1.000000 0.000000 0.000000 0.625000 -0.125000
p0_hp25_side
0 2.000000 12.000000 6.000000 0.000000 -1.000000 0.000000 -0.062500 -0.187500
0 0.000000 12.000000 4.000000 0.000000 -1.000000 0.000000 0.000000 -0.125000
0 2.000000 12.000000 4.000000 0.000000 -1.000000 0.000000 -0.062500 -0.125000
end
