version 1
nodes
0 "root" -1
end
skeleton
time 0
0 0.000000 0.000000 0.000000 0.000000 0.000000 0.000000
end
triangles
p0_hp100_side
0 12.000000 32.000000 20.000000 -0.000000 1.000000 0.000000 -0.375000 -0.625000
0 4.000000 32.000000 20.000000 -0.000000 1.000000 0.000000 -0.125000 -0.625000
0 0.000000 32.000000 24.000000 -0.000000 1.000000 0.000000 0.000000 -0.750000
p0_hp100_side
0 12.000000 32.000000 20.000000 -0.000000 1.000000 0.000000 -0.375000 -0.625000
0 0.000000 32.000000 24.000000 -0.000000 1.000000 0.000000 0.000000 -0.750000
0 0.000000 32.000000 32.000000 -0.000000 1.000000 0.000000 0.000000 -1.000000
p0_hp100_side
0 12.000000 32.000000 20.000000 -0.000000 1.000000 0.000000 -0.375000 -0.625000
0 0.000000 32.000000 32.000000 -0.000000 1.000000 0.000000 0.000000 -1.000000
0 12.000000 32.000000 32.000000 -0.000000 1.000000 0.000000 -0.375000 -1.000000
hp_details
0 0.000000 28.000000 20.000000 -0.577350 0.577350 -0.577350 0.500000 -0.625000
0 0.000000 32.000000 24.000000 -0.577350 0.577350 -0.577350 0.406250 -0.750000
0 4.000000 32.000000 20.000000 -0.577350 0.577350 -0.577350 0.312500 -0.625000
p0_hp100_side
0 0.000000 20.000000 32.000000 -1.000000 -0.000000 0.000000 0.375000 -1.000000
0 0.000000 32.000000 32.000000 -1.000000 -0.000000 0.000000 0.000000 -1.000000
0 0.000000 32.000000 24.000000 -1.000000 -0.000000 0.000000 0.000000 -0.750000
p0_hp100_side
0 0.000000 20.000000 32.000000 -1.000000 -0.000000 0.000000 0.375000 -1.000000
0 0.000000 32.000000 24.000000 -1.000000 -0.000000 0.000000 0.000000 -0.750000
0 0.000000 28.000000 20.000000 -1.000000 -0.000000 0.000000 0.125000 -0.625000
p0_hp100_side
0 0.000000 20.000000 32.000000 -1.000000 -0.000000 0.000000 0.375000 -1.000000
0 0.000000 28.000000 20.000000 -1.000000 -0.000000 0.000000 0.125000 -0.625000
0 0.000000 20.000000 20.000000 -1.000000 -0.000000 0.000000 0.375000 -0.625000
p0_hp100_top
0 6.000000 20.000000 20.000000 0.000000 0.000000 -1.000000 -0.406250 -0.187500
0 0.000000 20.000000 20.000000 0.000000 0.000000 -1.000000 -0.406250 0.000000
0 0.000000 28.000000 20.000000 0.000000 0.000000 -1.000000 -0.156250 0.000000
p0_hp100_top
0 6.000000 20.000000 20.000000 0.000000 0.000000 -1.000000 -0.406250 -0.187500
0 0.000000 28.000000 20.000000 0.000000 0.000000 -1.000000 -0.156250 0.000000
0 4.000000 32.000000 20.000000 0.000000 0.000000 -1.000000 -0.031250 -0.125000
p0_hp100_top
0 6.000000 20.000000 20.000000 0.000000 0.000000 -1.000000 -0.406250 -0.187500
0 4.000000 32.000000 20.000000 0.000000 0.000000 -1.000000 -0.031250 -0.125000
0 12.000000 32.000000 20.000000 0.000000 0.000000 -1.000000 -0.031250 -0.375000
p0_hp100_top
0 6.000000 20.000000 20.000000 0.000000 0.000000 -1.000000 -0.406250 -0.187500
0 12.000000 32.000000 20.000000 0.000000 0.000000 -1.000000 -0.031250 -0.375000
0 12.000000 26.000000 20.000000 0.000000 0.000000 -1.000000 -0.218750 -0.375000
p0_hp100_top
0 12.000000 26.000000 32.000000 0.000000 0.000000 1.000000 0.187500 -0.375000
0 12.000000 32.000000 32.000000 0.000000 0.000000 1.000000 0.000000 -0.375000
0 0.000000 32.000000 32.000000 0.000000 0.000000 1.000000 0.000000 0.000000
p0_hp100_top
0 12.000000 26.000000 32.000000 0.000000 0.000000 1.000000 0.187500 -0.375000
0 0.000000 32.000000 32.000000 0.000000 0.000000 1.000000 0.000000 0.000000
0 0.000000 20.000000 32.000000 0.000000 0.000000 1.000000 0.375000 0.000000
p0_hp100_top
0 12.000000 26.000000 32.000000 0.000000 0.000000 1.000000 0.187500 -0.375000
0 0.000000 20.000000 32.000000 0.000000 0.000000 1.000000 0.375000 0.000000
0 6.000000 20.000000 32.000000 0.000000 0.000000 1.000000 0.375000 -0.187500
hp_details
0 12.000000 26.000000 32.000000 1.000000 0.000000 0.000000 -0.187500 -1.000000
0 12.000000 26.000000 20.000000 1.000000 0.000000 0.000000 -0.187500 -0.625000
0 12.000000 32.000000 20.000000 1.000000 0.000000 0.000000 0.000000 -0.625000
hp_details
0 12.000000 26.000000 32.000000 1.000000 0.000000 0.000000 -0.187500 -1.000000
0 12.000000 32.000000 20.000000 1.000000 0.000000 0.000000 0.000000 -0.625000
0 12.000000 32.000000 32.000000 1.000000 0.000000 0.000000 0.000000 -1.000000
hp_details
0 6.000000 20.000000 32.000000 0.707107 -0.707107 0.000000 0.125000 -1.000000
0 6.000000 20.000000 20.000000 0.707107 -0.707107 0.000000 0.125000 -0.625000
0 12.000000 26.000000 20.000000 0.707107 -0.707107 0.000000 0.375000 -0.625000
hp_details
0 6.000000 20.000000 32.000000 0.707107 -0.707107 0.000000 0.125000 -1.000000
0 12.000000 26.000000 20.000000 0.707107 -0.707107 0.000000 0.375000 -0.625000
0 12.000000 26.000000 32.000000 0.707107 -0.707107 0.000000 0.375000 -1.000000
hp_details
0 0.000000 20.000000 32.000000 0.000000 -1.000000 0.000000 0.000000 -1.000000
0 0.000000 20.000000 20.000000 0.000000 -1.000000 0.000000 0.000000 -0.625000
0 6.000000 20.000000 20.000000 0.000000 -1.000000 0.000000 0.187500 -0.625000
hp_details
0 0.000000 20.000000 32.000000 0.000000 -1.000000 0.000000 0.000000 -1.000000
0 6.000000 20.000000 20.000000 0.000000 -1.000000 0.000000 0.187500 -0.625000
0 6.000000 20.000000 32.000000 0.000000 -1.000000 0.000000 0.187500 -1.000000
p0_hp100_side
0 12.000000 32.000000 12.000000 -0.000000 1.000000 0.000000 -0.375000 -0.375000
0 4.000000 32.000000 12.000000 -0.000000 1.000000 0.000000 -0.125000 -0.375000
0 4.000000 32.000000 20.000000 -0.000000 1.000000 0.000000 -0.125000 -0.625000
p0_hp100_side
0 12.000000 32.000000 12.000000 -0.000000 1.000000 0.000000 -0.375000 -0.375000
0 4.000000 32.000000 20.000000 -0.000000 1.000000 0.000000 -0.125000 -0.625000
0 12.000000 32.000000 20.000000 -0.000000 1.000000 0.000000 -0.375000 -0.625000
hp_details
0 4.000000 32.000000 20.000000 -0.707107 0.707107 0.000000 0.312500 -0.625000
0 4.000000 32.000000 12.000000 -0.707107 0.707107 0.000000 0.312500 -0.375000
0 0.000000 28.000000 12.000000 -0.707107 0.707107 0.000000 0.500000 -0.375000
hp_details
0 4.000000 32.000000 20.000000 -0.707107 0.707107 0.000000 0.312500 -0.625000
0 0.000000 28.000000 12.000000 -0.707107 0.707107 0.000000 0.500000 -0.375000
0 0.000000 28.000000 20.000000 -0.707107 0.707107 0.000000 0.500000 -0.625000
p0_hp100_side
0 0.000000 28.000000 20.000000 -1.000000 -0.000000 0.000000 0.125000 -0.625000
0 0.000000 28.000000 12.000000 -1.000000 -0.000000 0.000000 0.125000 -0.375000
0 0.000000 20.000000 12.000000 -1.000000 -0.000000 0.000000 0.375000 -0.375000
p0_hp100_side
0 0.000000 28.000000 20.000000 -1.000000 -0.000000 0.000000 0.125000 -0.625000
0 0.000000 20.000000 12.000000 -1.000000 -0.000000 0.000000 0.375000 -0.375000
0 0.000000 20.000000 20.000000 -1.000000 -0.000000 0.000000 0.375000 -0.625000
hp_bottom
0 6.000000 20.000000 12.000000 0.000000 0.000000 -1.000000 -0.406250 -0.187500
0 0.000000 20.000000 12.000000 0.000000 0.000000 -1.000000 -0.406250 0.000000
0 0.000000 28.000000 12.000000 0.000000 0.000000 -1.000000 -0.156250 0.000000
hp_bottom
0 6.000000 20.000000 12.000000 0.000000 0.000000 -1.000000 -0.406250 -0.187500
0 0.000000 28.000000 12.000000 0.000000 0.000000 -1.000000 -0.156250 0.000000
0 4.000000 32.000000 12.000000 0.000000 0.000000 -1.000000 -0.031250 -0.125000
hp_bottom
0 6.000000 20.000000 12.000000 0.000000 0.000000 -1.000000 -0.406250 -0.187500
0 4.000000 32.000000 12.000000 0.000000 0.000000 -1.000000 -0.031250 -0.125000
0 12.000000 32.000000 12.000000 0.000000 0.000000 -1.000000 -0.031250 -0.375000
hp_bottom
0 6.000000 20.000000 12.000000 0.000000 0.000000 -1.000000 -0.406250 -0.187500
0 12.000000 32.000000 12.000000 0.000000 0.000000 -1.000000 -0.031250 -0.375000
0 12.000000 26.000000 12.000000 0.000000 0.000000 -1.000000 -0.218750 -0.375000
hp_bottom
0 12.000000 26.000000 20.000000 0.000000 0.000000 1.000000 0.218750 -0.375000
0 12.000000 32.000000 20.000000 0.000000 0.000000 1.000000 0.031250 -0.375000
0 4.000000 32.000000 20.000000 0.000000 0.000000 1.000000 0.031250 -0.125000
hp_bottom
0 12.000000 26.000000 20.000000 0.000000 0.000000 1.000000 0.218750 -0.375000
0 4.000000 32.000000 20.000000 0.000000 0.000000 1.000000 0.031250 -0.125000
0 0.000000 28.000000 20.000000 0.000000 0.000000 1.000000 0.156250 0.000000
hp_bottom
0 12.000000 26.000000 20.000000 0.000000 0.000000 1.000000 0.218750 -0.375000
0 0.000000 28.000000 20.000000 0.000000 0.000000 1.000000 0.156250 0.000000
0 0.000000 20.000000 20.000000 0.000000 0.000000 1.000000 0.406250 0.000000
hp_bottom
0 12.000000 26.000000 20.000000 0.000000 0.000000 1.000000 0.218750 -0.375000
0 0.000000 20.000000 20.000000 0.000000 0.000000 1.000000 0.406250 0.000000
0 6.000000 20.000000 20.000000 0.000000 0.000000 1.000000 0.406250 -0.187500
hp_details
0 12.000000 26.000000 20.000000 1.000000 0.000000 0.000000 -0.187500 -0.625000
0 12.000000 26.000000 12.000000 1.000000 0.000000 0.000000 -0.187500 -0.375000
0 12.000000 32.000000 12.000000 1.000000 0.000000 0.000000 0.000000 -0.375000
hp_details
0 12.000000 26.000000 20.000000 1.000000 0.000000 0.000000 -0.187500 -0.625000
0 12.000000 32.000000 12.000000 1.000000 0.000000 0.000000 0.000000 -0.375000
0 12.000000 32.000000 20.000000 1.000000 0.000000 0.000000 0.000000 -0.625000
hp_details
0 6.000000 20.000000 12.000000 0.707107 -0.707107 0.000000 0.125000 -0.375000
0 12.000000 26.000000 12.000000 0.707107 -0.707107 0.000000 0.375000 -0.375000
0 12.000000 26.000000 20.000000 0.707107 -0.707107 0.000000 0.375000 -0.625000
hp_details
0 6.000000 20.000000 12.000000 0.707107 -0.707107 0.000000 0.125000 -0.375000
0 12.000000 26.000000 20.000000 0.707107 -0.707107 0.000000 0.375000 -0.625000
0 6.000000 20.000000 20.000000 0.707107 -0.707107 0.000000 0.125000 -0.625000
hp_details
0 0.000000 20.000000 20.000000 0.000000 -1.000000 0.000000 0.000000 -0.625000
0 0.000000 20.000000 12.000000 0.000000 -1.000000 0.000000 0.000000 -0.375000
0 6.000000 20.000000 12.000000 0.000000 -1.000000 0.000000 0.187500 -0.375000
hp_details
0 0.000000 20.000000 20.000000 0.000000 -1.000000 0.000000 0.000000 -0.625000
0 6.000000 20.000000 12.000000 0.000000 -1.000000 0.000000 0.187500 -0.375000
0 6.000000 20.000000 20.000000 0.000000 -1.000000 0.000000 0.187500 -0.625000
p0_hp100_side
0 12.000000 32.000000 8.000000 -0.000000 1.000000 0.000000 -0.375000 -0.250000
0 0.000000 32.000000 8.000000 -0.000000 1.000000 0.000000 0.000000 -0.250000
0 4.000000 32.000000 12.000000 -0.000000 1.000000 0.000000 -0.125000 -0.375000
p0_hp100_side
0 12.000000 32.000000 8.000000 -0.000000 1.000000 0.000000 -0.375000 -0.250000
0 4.000000 32.000000 12.000000 -0.000000 1.000000 0.000000 -0.125000 -0.375000
0 12.000000 32.000000 12.000000 -0.000000 1.000000 0.000000 -0.375000 -0.375000
hp_details
0 4.000000 32.000000 12.000000 -0.577350 0.577350 0.577350 0.312500 -0.375000
0 0.000000 32.000000 8.000000 -0.577350 0.577350 0.577350 0.406250 -0.250000
0 0.000000 28.000000 12.000000 -0.577350 0.577350 0.577350 0.500000 -0.375000
p0_hp100_side
0 0.000000 20.000000 12.000000 -1.000000 -0.000000 0.000000 0.375000 -0.375000
0 0.000000 28.000000 12.000000 -1.000000 -0.000000 0.000000 0.125000 -0.375000
0 0.000000 32.000000 8.000000 -1.000000 -0.000000 0.000000 0.000000 -0.250000
p0_hp100_side
0 0.000000 20.000000 12.000000 -1.000000 -0.000000 0.000000 0.375000 -0.375000
0 0.000000 32.000000 8.000000 -1.000000 -0.000000 0.000000 0.000000 -0.250000
0 0.000000 20.000000 8.000000 -1.000000 -0.000000 0.000000 0.375000 -0.250000
p0_hp100_top
0 6.000000 20.000000 8.000000 0.000000 -0.000000 -1.000000 -0.375000 -0.187500
0 0.000000 20.000000 8.000000 0.000000 -0.000000 -1.000000 -0.375000 0.000000
0 0.000000 32.000000 8.000000 0.000000 -0.000000 -1.000000 0.000000 0.000000
p0_hp100_top
0 6.000000 20.000000 8.000000 0.000000 -0.000000 -1.000000 -0.375000 -0.187500
0 0.000000 32.000000 8.000000 0.000000 -0.000000 -1.000000 0.000000 0.000000
0 12.000000 32.000000 8.000000 0.000000 -0.000000 -1.000000 0.000000 -0.375000
p0_hp100_top
0 6.000000 20.000000 8.000000 0.000000 0.000000 -1.000000 -0.375000 -0.187500
0 12.000000 32.000000 8.000000 0.000000 0.000000 -1.000000 0.000000 -0.375000
0 12.000000 26.000000 8.000000 0.000000 0.000000 -1.000000 -0.187500 -0.375000
hp_bottom
0 12.000000 26.000000 12.000000 0.000000 0.000000 1.000000 0.218750 -0.375000
0 12.000000 32.000000 12.000000 0.000000 0.000000 1.000000 0.031250 -0.375000
0 4.000000 32.000000 12.000000 0.000000 0.000000 1.000000 0.031250 -0.125000
hp_bottom
0 12.000000 26.000000 12.000000 0.000000 0.000000 1.000000 0.218750 -0.375000
0 4.000000 32.000000 12.000000 0.000000 0.000000 1.000000 0.031250 -0.125000
0 0.000000 28.000000 12.000000 0.000000 0.000000 1.000000 0.156250 0.000000
hp_bottom
0 12.000000 26.000000 12.000000 0.000000 0.000000 1.000000 0.218750 -0.375000
0 0.000000 28.000000 12.000000 0.000000 0.000000 1.000000 0.156250 0.000000
0 0.000000 20.000000 12.000000 0.000000 0.000000 1.000000 0.406250 0.000000
hp_bottom
0 12.000000 26.000000 12.000000 0.000000 0.000000 1.000000 0.218750 -0.375000
0 0.000000 20.000000 12.000000 0.000000 0.000000 1.000000 0.406250 0.000000
0 6.000000 20.000000 12.000000 0.000000 0.000000 1.000000 0.406250 -0.187500
hp_details
0 12.000000 26.000000 8.000000 1.000000 0.000000 0.000000 -0.187500 -0.250000
0 12.000000 32.000000 8.000000 1.000000 0.000000 0.000000 0.000000 -0.250000
0 12.000000 32.000000 12.000000 1.000000 0.000000 0.000000 0.000000 -0.375000
hp_details
0 12.000000 26.000000 8.000000 1.000000 0.000000 0.000000 -0.187500 -0.250000
0 12.000000 32.000000 12.000000 1.000000 0.000000 0.000000 0.000000 -0.375000
0 12.000000 26.000000 12.000000 1.000000 0.000000 0.000000 -0.187500 -0.375000
hp_details
0 6.000000 20.000000 8.000000 0.707107 -0.707107 0.000000 0.125000 -0.250000
0 12.000000 26.000000 8.000000 0.707107 -0.707107 0.000000 0.375000 -0.250000
0 12.000000 26.000000 12.000000 0.707107 -0.707107 0.000000 0.375000 -0.375000
hp_details
0 6.000000 20.000000 8.000000 0.707107 -0.707107 0.000000 0.125000 -0.250000
0 12.000000 26.000000 12.000000 0.707107 -0.707107 0.000000 0.375000 -0.375000
0 6.000000 20.000000 12.000000 0.707107 -0.707107 0.000000 0.125000 -0.375000
hp_details
0 0.000000 20.000000 12.000000 0.000000 -1.000000 0.000000 0.000000 -0.375000
0 0.000000 20.000000 8.000000 0.000000 -1.000000 0.000000 0.000000 -0.250000
0 6.000000 20.000000 8.000000 0.000000 -1.000000 0.000000 0.187500 -0.250000
hp_details
0 0.000000 20.000000 12.000000 0.000000 -1.000000 0.000000 0.000000 -0.375000
0 6.000000 20.000000 8.000000 0.000000 -1.000000 0.000000 0.187500 -0.250000
0 6.000000 20.000000 12.000000 0.000000 -1.000000 0.000000 0.187500 -0.375000
hp_details
0 6.000000 12.000000 32.000000 -0.000000 1.000000 0.000000 0.187500 -1.000000
0 6.000000 12.000000 20.000000 -0.000000 1.000000 0.000000 0.187500 -0.625000
0 0.000000 12.000000 20.000000 -0.000000 1.000000 0.000000 0.000000 -0.625000
hp_details
0 6.000000 12.000000 32.000000 -0.000000 1.000000 0.000000 0.187500 -1.000000
0 0.000000 12.000000 20.000000 -0.000000 1.000000 0.000000 0.000000 -0.625000
0 0.000000 12.000000 32.000000 -0.000000 1.000000 0.000000 0.000000 -1.000000
hp_details
0 12.000000 6.000000 20.000000 0.707107 0.707107 0.000000 0.625000 -0.625000
0 6.000000 12.000000 20.000000 0.707107 0.707107 0.000000 0.375000 -0.625000
0 6.000000 12.000000 32.000000 0.707107 0.707107 0.000000 0.375000 -1.000000
hp_details
0 12.000000 6.000000 20.000000 0.707107 0.707107 0.000000 0.625000 -0.625000
0 6.000000 12.000000 32.000000 0.707107 0.707107 0.000000 0.375000 -1.000000
0 12.000000 6.000000 32.000000 0.707107 0.707107 0.000000 0.625000 -1.000000
p0_hp100_side
0 0.000000 0.000000 32.000000 -1.000000 -0.000000 0.000000 1.000000 -1.000000
0 0.000000 12.000000 32.000000 -1.000000 -0.000000 0.000000 0.625000 -1.000000
0 0.000000 12.000000 20.000000 -1.000000 -0.000000 0.000000 0.625000 -0.625000
p0_hp100_side
0 0.000000 0.000000 32.000000 -1.000000 -0.000000 0.000000 1.000000 -1.000000
0 0.000000 12.000000 20.000000 -1.000000 -0.000000 0.000000 0.625000 -0.625000
0 0.000000 4.000000 20.000000 -1.000000 -0.000000 0.000000 0.875000 -0.625000
p0_hp100_side
0 0.000000 0.000000 32.000000 -1.000000 -0.000000 0.000000 1.000000 -1.000000
0 0.000000 4.000000 20.000000 -1.000000 -0.000000 0.000000 0.875000 -0.625000
0 0.000000 0.000000 24.000000 -1.000000 -0.000000 0.000000 1.000000 -0.750000
p0_hp100_top
0 4.000000 0.000000 20.000000 0.000000 0.000000 -1.000000 -1.031250 -0.125000
0 0.000000 4.000000 20.000000 0.000000 0.000000 -1.000000 -0.906250 0.000000
0 0.000000 12.000000 20.000000 0.000000 0.000000 -1.000000 -0.656250 0.000000
p0_hp100_top
0 4.000000 0.000000 20.000000 0.000000 0.000000 -1.000000 -1.031250 -0.125000
0 0.000000 12.000000 20.000000 0.000000 0.000000 -1.000000 -0.656250 0.000000
0 6.000000 12.000000 20.000000 0.000000 0.000000 -1.000000 -0.656250 -0.187500
p0_hp100_top
0 4.000000 0.000000 20.000000 0.000000 0.000000 -1.000000 -1.031250 -0.125000
0 6.000000 12.000000 20.000000 0.000000 0.000000 -1.000000 -0.656250 -0.187500
0 12.000000 6.000000 20.000000 0.000000 0.000000 -1.000000 -0.843750 -0.375000
p0_hp100_top
0 4.000000 0.000000 20.000000 0.000000 0.000000 -1.000000 -1.031250 -0.125000
0 12.000000 6.000000 20.000000 0.000000 0.000000 -1.000000 -0.843750 -0.375000
0 12.000000 0.000000 20.000000 0.000000 0.000000 -1.000000 -1.031250 -0.375000
p0_hp100_top
0 12.000000 0.000000 32.000000 0.000000 0.000000 1.000000 1.000000 -0.375000
0 12.000000 6.000000 32.000000 0.000000 0.000000 1.000000 0.812500 -0.375000
0 6.000000 12.000000 32.000000 0.000000 0.000000 1.000000 0.625000 -0.187500
p0_hp100_top
0 12.000000 0.000000 32.000000 0.000000 0.000000 1.000000 1.000000 -0.375000
0 6.000000 12.000000 32.000000 0.000000 0.000000 1.000000 0.625000 -0.187500
0 0.000000 12.000000 32.000000 0.000000 0.000000 1.000000 0.625000 0.000000
p0_hp100_top
0 12.000000 0.000000 32.000000 0.000000 0.000000 1.000000 1.000000 -0.375000
0 0.000000 12.000000 32.000000 0.000000 0.000000 1.000000 0.625000 0.000000
0 0.000000 0.000000 32.000000 0.000000 0.000000 1.000000 1.000000 0.000000
hp_details
0 12.000000 0.000000 20.000000 1.000000 0.000000 0.000000 -1.000000 -0.625000
0 12.000000 6.000000 20.000000 1.000000 0.000000 0.000000 -0.812500 -0.625000
0 12.000000 6.000000 32.000000 1.000000 0.000000 0.000000 -0.812500 -1.000000
hp_details
0 12.000000 0.000000 20.000000 1.000000 0.000000 0.000000 -1.000000 -0.625000
0 12.000000 6.000000 32.000000 1.000000 0.000000 0.000000 -0.812500 -1.000000
0 12.000000 0.000000 32.000000 1.000000 0.000000 0.000000 -1.000000 -1.000000
hp_details
0 0.000000 0.000000 24.000000 -0.577350 -0.577350 -0.577350 0.596891 -0.750000
0 0.000000 4.000000 20.000000 -0.577350 -0.577350 -0.577350 0.500001 -0.625000
0 4.000000 0.000000 20.000000 -0.577350 -0.577350 -0.577350 0.693782 -0.625000
p0_hp100_side
0 12.000000 0.000000 20.000000 0.000000 -1.000000 0.000000 0.375000 -0.625000
0 12.000000 0.000000 32.000000 0.000000 -1.000000 0.000000 0.375000 -1.000000
0 0.000000 0.000000 32.000000 0.000000 -1.000000 0.000000 0.000000 -1.000000
p0_hp100_side
0 12.000000 0.000000 20.000000 0.000000 -1.000000 0.000000 0.375000 -0.625000
0 0.000000 0.000000 32.000000 0.000000 -1.000000 0.000000 0.000000 -1.000000
0 0.000000 0.000000 24.000000 0.000000 -1.000000 0.000000 0.000000 -0.750000
p0_hp100_side
0 12.000000 0.000000 20.000000 0.000000 -1.000000 0.000000 0.375000 -0.625000
0 0.000000 0.000000 24.000000 0.000000 -1.000000 0.000000 0.000000 -0.750000
0 4.000000 0.000000 20.000000 0.000000 -1.000000 0.000000 0.125000 -0.625000
hp_details
0 6.000000 12.000000 20.000000 -0.000000 1.000000 0.000000 0.187500 -0.625000
0 6.000000 12.000000 12.000000 -0.000000 1.000000 0.000000 0.187500 -0.375000
0 0.000000 12.000000 12.000000 -0.000000 1.000000 0.000000 0.000000 -0.375000
hp_details
0 6.000000 12.000000 20.000000 -0.000000 1.000000 0.000000 0.187500 -0.625000
0 0.000000 12.000000 12.000000 -0.000000 1.000000 0.000000 0.000000 -0.375000
0 0.000000 12.000000 20.000000 -0.000000 1.000000 0.000000 0.000000 -0.625000
hp_details
0 12.000000 6.000000 12.000000 0.707107 0.707107 0.000000 0.625000 -0.375000
0 6.000000 12.000000 12.000000 0.707107 0.707107 0.000000 0.375000 -0.375000
0 6.000000 12.000000 20.000000 0.707107 0.707107 0.000000 0.375000 -0.625000
hp_details
0 12.000000 6.000000 12.000000 0.707107 0.707107 0.000000 0.625000 -0.375000
0 6.000000 12.000000 20.000000 0.707107 0.707107 0.000000 0.375000 -0.625000
0 12.000000 6.000000 20.000000 0.707107 0.707107 0.000000 0.625000 -0.625000
p0_hp100_side
0 0.000000 12.000000 20.000000 -1.000000 -0.000000 0.000000 0.625000 -0.625000
0 0.000000 12.000000 12.000000 -1.000000 -0.000000 0.000000 0.625000 -0.375000
0 0.000000 4.000000 12.000000 -1.000000 -0.000000 0.000000 0.875000 -0.375000
p0_hp100_side
0 0.000000 12.000000 20.000000 -1.000000 -0.000000 0.000000 0.625000 -0.625000
0 0.000000 4.000000 12.000000 -1.000000 -0.000000 0.000000 0.875000 -0.375000
0 0.000000 4.000000 20.000000 -1.000000 -0.000000 0.000000 0.875000 -0.625000
hp_bottom
0 4.000000 0.000000 12.000000 0.000000 0.000000 -1.000000 -1.031250 -0.125000
0 0.000000 4.000000 12.000000 0.000000 0.000000 -1.000000 -0.906250 0.000000
0 0.000000 12.000000 12.000000 0.000000 0.000000 -1.000000 -0.656250 0.000000
hp_bottom
0 4.000000 0.000000 12.000000 0.000000 0.000000 -1.000000 -1.031250 -0.125000
0 0.000000 12.000000 12.000000 0.000000 0.000000 -1.000000 -0.656250 0.000000
0 6.000000 12.000000 12.000000 0.000000 0.000000 -1.000000 -0.656250 -0.187500
hp_bottom
0 4.000000 0.000000 12.000000 0.000000 0.000000 -1.000000 -1.031250 -0.125000
0 6.000000 12.000000 12.000000 0.000000 0.000000 -1.000000 -0.656250 -0.187500
0 12.000000 6.000000 12.000000 0.000000 0.000000 -1.000000 -0.843750 -0.375000
hp_bottom
0 4.000000 0.000000 12.000000 0.000000 0.000000 -1.000000 -1.031250 -0.125000
0 12.000000 6.000000 12.000000 0.000000 0.000000 -1.000000 -0.843750 -0.375000
0 12.000000 0.000000 12.000000 0.000000 0.000000 -1.000000 -1.031250 -0.375000
hp_bottom
0 12.000000 0.000000 20.000000 0.000000 0.000000 1.000000 1.031250 -0.375000
0 12.000000 6.000000 20.000000 0.000000 0.000000 1.000000 0.843750 -0.375000
0 6.000000 12.000000 20.000000 0.000000 0.000000 1.000000 0.656250 -0.187500
hp_bottom
0 12.000000 0.000000 20.000000 0.000000 0.000000 1.000000 1.031250 -0.375000
0 6.000000 12.000000 20.000000 0.000000 0.000000 1.000000 0.656250 -0.187500
0 0.000000 12.000000 20.000000 0.000000 0.000000 1.000000 0.656250 0.000000
hp_bottom
0 12.000000 0.000000 20.000000 0.000000 0.000000 1.000000 1.031250 -0.375000
0 0.000000 12.000000 20.000000 0.000000 0.000000 1.000000 0.656250 0.000000
0 0.000000 4.000000 20.000000 0.000000 0.000000 1.000000 0.906250 0.000000
hp_bottom
0 12.000000 0.000000 20.000000 0.000000 0.000000 1.000000 1.031250 -0.375000
0 0.000000 4.000000 20.000000 0.000000 0.000000 1.000000 0.906250 0.000000
0 4.000000 0.000000 20.000000 0.000000 0.000000 1.000000 1.031250 -0.125000
hp_details
0 12.000000 0.000000 12.000000 1.000000 0.000000 0.000000 -1.000000 -0.375000
0 12.000000 6.000000 12.000000 1.000000 0.000000 0.000000 -0.812500 -0.375000
0 12.000000 6.000000 20.000000 1.000000 0.000000 0.000000 -0.812500 -0.625000
hp_details
0 12.000000 0.000000 12.000000 1.000000 0.000000 0.000000 -1.000000 -0.375000
0 12.000000 6.000000 20.000000 1.000000 0.000000 0.000000 -0.812500 -0.625000
0 12.000000 0.000000 20.000000 1.000000 0.000000 0.000000 -1.000000 -0.625000
hp_details
0 0.000000 4.000000 20.000000 -0.707107 -0.707107 0.000000 0.500001 -0.625000
0 0.000000 4.000000 12.000000 -0.707107 -0.707107 0.000000 0.500001 -0.375000
0 4.000000 0.000000 12.000000 -0.707107 -0.707107 0.000000 0.693782 -0.375000
hp_details
0 0.000000 4.000000 20.000000 -0.707107 -0.707107 0.000000 0.500001 -0.625000
0 4.000000 0.000000 12.000000 -0.707107 -0.707107 0.000000 0.693782 -0.375000
0 4.000000 0.000000 20.000000 -0.707107 -0.707107 0.000000 0.693782 -0.625000
p0_hp100_side
0 4.000000 0.000000 12.000000 0.000000 -1.000000 0.000000 0.125000 -0.375000
0 12.000000 0.000000 12.000000 0.000000 -1.000000 0.000000 0.375000 -0.375000
0 12.000000 0.000000 20.000000 0.000000 -1.000000 0.000000 0.375000 -0.625000
p0_hp100_side
0 4.000000 0.000000 12.000000 0.000000 -1.000000 0.000000 0.125000 -0.375000
0 12.000000 0.000000 20.000000 0.000000 -1.000000 0.000000 0.375000 -0.625000
0 4.000000 0.000000 20.000000 0.000000 -1.000000 0.000000 0.125000 -0.625000
hp_details
0 6.000000 12.000000 12.000000 -0.000000 1.000000 0.000000 0.187500 -0.375000
0 6.000000 12.000000 8.000000 -0.000000 1.000000 0.000000 0.187500 -0.250000
0 0.000000 12.000000 8.000000 -0.000000 1.000000 0.000000 0.000000 -0.250000
hp_details
0 6.000000 12.000000 12.000000 -0.000000 1.000000 0.000000 0.187500 -0.375000
0 0.000000 12.000000 8.000000 -0.000000 1.000000 0.000000 0.000000 -0.250000
0 0.000000 12.000000 12.000000 -0.000000 1.000000 0.000000 0.000000 -0.375000
hp_details
0 12.000000 6.000000 8.000000 0.707107 0.707107 0.000000 0.625000 -0.250000
0 6.000000 12.000000 8.000000 0.707107 0.707107 0.000000 0.375000 -0.250000
0 6.000000 12.000000 12.000000 0.707107 0.707107 0.000000 0.375000 -0.375000
hp_details
0 12.000000 6.000000 8.000000 0.707107 0.707107 0.000000 0.625000 -0.250000
0 6.000000 12.000000 12.000000 0.707107 0.707107 0.000000 0.375000 -0.375000
0 12.000000 6.000000 12.000000 0.707107 0.707107 0.000000 0.625000 -0.375000
p0_hp100_side
0 0.000000 4.000000 12.000000 -1.000000 -0.000000 0.000000 0.875000 -0.375000
0 0.000000 12.000000 12.000000 -1.000000 -0.000000 0.000000 0.625000 -0.375000
0 0.000000 12.000000 8.000000 -1.000000 -0.000000 0.000000 0.625000 -0.250000
p0_hp100_side
0 0.000000 4.000000 12.000000 -1.000000 -0.000000 0.000000 0.875000 -0.375000
0 0.000000 12.000000 8.000000 -1.000000 -0.000000 0.000000 0.625000 -0.250000
0 0.000000 0.000000 8.000000 -1.000000 -0.000000 0.000000 1.000000 -0.250000
p0_hp100_top
0 0.000000 0.000000 8.000000 0.000000 0.000000 -1.000000 -1.000000 0.000000
0 0.000000 12.000000 8.000000 0.000000 0.000000 -1.000000 -0.625000 0.000000
0 6.000000 12.000000 8.000000 0.000000 0.000000 -1.000000 -0.625000 -0.187500
p0_hp100_top
0 0.000000 0.000000 8.000000 0.000000 0.000000 -1.000000 -1.000000 0.000000
0 6.000000 12.000000 8.000000 0.000000 0.000000 -1.000000 -0.625000 -0.187500
0 12.000000 6.000000 8.000000 0.000000 0.000000 -1.000000 -0.812500 -0.375000
p0_hp100_top
0 0.000000 0.000000 8.000000 0.000000 0.000000 -1.000000 -1.000000 0.000000
0 12.000000 6.000000 8.000000 0.000000 0.000000 -1.000000 -0.812500 -0.375000
0 12.000000 0.000000 8.000000 0.000000 0.000000 -1.000000 -1.000000 -0.375000
hp_bottom
0 12.000000 0.000000 12.000000 0.000000 0.000000 1.000000 1.031250 -0.375000
0 12.000000 6.000000 12.000000 0.000000 0.000000 1.000000 0.843750 -0.375000
0 6.000000 12.000000 12.000000 0.000000 0.000000 1.000000 0.656250 -0.187500
hp_bottom
0 12.000000 0.000000 12.000000 0.000000 0.000000 1.000000 1.031250 -0.375000
0 6.000000 12.000000 12.000000 0.000000 0.000000 1.000000 0.656250 -0.187500
0 0.000000 12.000000 12.000000 0.000000 0.000000 1.000000 0.656250 0.000000
hp_bottom
0 12.000000 0.000000 12.000000 0.000000 0.000000 1.000000 1.031250 -0.375000
0 0.000000 12.000000 12.000000 0.000000 0.000000 1.000000 0.656250 0.000000
0 0.000000 4.000000 12.000000 0.000000 0.000000 1.000000 0.906250 0.000000
hp_bottom
0 12.000000 0.000000 12.000000 0.000000 0.000000 1.000000 1.031250 -0.375000
0 0.000000 4.000000 12.000000 0.000000 0.000000 1.000000 0.906250 0.000000
0 4.000000 0.000000 12.000000 0.000000 0.000000 1.000000 1.031250 -0.125000
hp_details
0 12.000000 0.000000 8.000000 1.000000 0.000000 0.000000 -1.000000 -0.250000
0 12.000000 6.000000 8.000000 1.000000 0.000000 0.000000 -0.812500 -0.250000
0 12.000000 6.000000 12.000000 1.000000 0.000000 0.000000 -0.812500 -0.375000
hp_details
0 12.000000 0.000000 8.000000 1.000000 0.000000 0.000000 -1.000000 -0.250000
0 12.000000 6.000000 12.000000 1.000000 0.000000 0.000000 -0.812500 -0.375000
0 12.000000 0.000000 12.000000 1.000000 0.000000 0.000000 -1.000000 -0.375000
hp_details
0 0.000000 4.000000 12.000000 -0.577350 -0.577350 0.577350 0.500001 -0.375000
0 0.000000 0.000000 8.000000 -0.577350 -0.577350 0.577350 0.596891 -0.250000
0 4.000000 0.000000 12.000000 -0.577350 -0.577350 0.577350 0.693782 -0.375000
p0_hp100_side
0 12.000000 0.000000 12.000000 0.000000 -1.000000 -0.000000 0.375000 -0.375000
0 4.000000 0.000000 12.000000 0.000000 -1.000000 -0.000000 0.125000 -0.375000
0 0.000000 0.000000 8.000000 0.000000 -1.000000 -0.000000 0.000000 -0.250000
p0_hp100_side
0 12.000000 0.000000 12.000000 -0.000000 -1.000000 0.000000 0.375000 -0.375000
0 0.000000 0.000000 8.000000 -0.000000 -1.000000 0.000000 0.000000 -0.250000
0 12.000000 0.000000 8.000000 -0.000000 -1.000000 0.000000 0.375000 -0.250000
hp_details
0 32.000000 12.000000 20.000000 -0.000000 1.000000 0.000000 1.000000 -0.625000
0 26.000000 12.000000 20.000000 -0.000000 1.000000 0.000000 0.812500 -0.625000
0 26.000000 12.000000 32.000000 -0.000000 1.000000 0.000000 0.812500 -1.000000
hp_details
0 32.000000 12.000000 20.000000 -0.000000 1.000000 0.000000 1.000000 -0.625000
0 26.000000 12.000000 32.000000 -0.000000 1.000000 0.000000 0.812500 -1.000000
0 32.000000 12.000000 32.000000 -0.000000 1.000000 0.000000 1.000000 -1.000000
hp_details
0 20.000000 6.000000 32.000000 -0.707107 0.707107 0.000000 -0.875000 -1.000000
0 26.000000 12.000000 32.000000 -0.707107 0.707107 0.000000 -0.625000 -1.000000
0 26.000000 12.000000 20.000000 -0.707107 0.707107 0.000000 -0.625000 -0.625000
hp_details
0 20.000000 6.000000 32.000000 -0.707107 0.707107 0.000000 -0.875000 -1.000000
0 26.000000 12.000000 20.000000 -0.707107 0.707107 0.000000 -0.625000 -0.625000
0 20.000000 6.000000 20.000000 -0.707107 0.707107 0.000000 -0.875000 -0.625000
hp_details
0 20.000000 0.000000 32.000000 -1.000000 -0.000000 0.000000 -1.000000 -1.000000
0 20.000000 6.000000 32.000000 -1.000000 -0.000000 0.000000 -0.812500 -1.000000
0 20.000000 6.000000 20.000000 -1.000000 -0.000000 0.000000 -0.812500 -0.625000
hp_details
0 20.000000 0.000000 32.000000 -1.000000 -0.000000 0.000000 -1.000000 -1.000000
0 20.000000 6.000000 20.000000 -1.000000 -0.000000 0.000000 -0.812500 -0.625000
0 20.000000 0.000000 20.000000 -1.000000 -0.000000 0.000000 -1.000000 -0.625000
p0_hp100_top
0 20.000000 0.000000 20.000000 0.000000 0.000000 -1.000000 -1.031250 -0.625000
0 20.000000 6.000000 20.000000 0.000000 0.000000 -1.000000 -0.843750 -0.625000
0 26.000000 12.000000 20.000000 0.000000 0.000000 -1.000000 -0.656250 -0.812500
p0_hp100_top
0 20.000000 0.000000 20.000000 0.000000 0.000000 -1.000000 -1.031250 -0.625000
0 26.000000 12.000000 20.000000 0.000000 0.000000 -1.000000 -0.656250 -0.812500
0 32.000000 12.000000 20.000000 0.000000 0.000000 -1.000000 -0.656250 -1.000000
p0_hp100_top
0 20.000000 0.000000 20.000000 0.000000 0.000000 -1.000000 -1.031250 -0.625000
0 32.000000 12.000000 20.000000 0.000000 0.000000 -1.000000 -0.656250 -1.000000
0 32.000000 4.000000 20.000000 0.000000 0.000000 -1.000000 -0.906250 -1.000000
p0_hp100_top
0 20.000000 0.000000 20.000000 0.000000 0.000000 -1.000000 -1.031250 -0.625000
0 32.000000 4.000000 20.000000 0.000000 0.000000 -1.000000 -0.906250 -1.000000
0 28.000000 0.000000 20.000000 0.000000 0.000000 -1.000000 -1.031250 -0.875000
p0_hp100_top
0 32.000000 0.000000 32.000000 0.000000 0.000000 1.000000 1.000000 -1.000000
0 32.000000 12.000000 32.000000 0.000000 0.000000 1.000000 0.625000 -1.000000
0 26.000000 12.000000 32.000000 0.000000 0.000000 1.000000 0.625000 -0.812500
p0_hp100_top
0 32.000000 0.000000 32.000000 0.000000 0.000000 1.000000 1.000000 -1.000000
0 26.000000 12.000000 32.000000 0.000000 0.000000 1.000000 0.625000 -0.812500
0 20.000000 6.000000 32.000000 0.000000 0.000000 1.000000 0.812500 -0.625000
p0_hp100_top
0 32.000000 0.000000 32.000000 0.000000 0.000000 1.000000 1.000000 -1.000000
0 20.000000 6.000000 32.000000 0.000000 0.000000 1.000000 0.812500 -0.625000
0 20.000000 0.000000 32.000000 0.000000 0.000000 1.000000 1.000000 -0.625000
p0_hp100_side
0 32.000000 0.000000 24.000000 1.000000 0.000000 0.000000 -1.000000 -0.750000
0 32.000000 4.000000 20.000000 1.000000 0.000000 0.000000 -0.875000 -0.625000
0 32.000000 12.000000 20.000000 1.000000 0.000000 0.000000 -0.625000 -0.625000
p0_hp100_side
0 32.000000 0.000000 24.000000 1.000000 0.000000 0.000000 -1.000000 -0.750000
0 32.000000 12.000000 20.000000 1.000000 0.000000 0.000000 -0.625000 -0.625000
0 32.000000 12.000000 32.000000 1.000000 0.000000 0.000000 -0.625000 -1.000000
p0_hp100_side
0 32.000000 0.000000 24.000000 1.000000 0.000000 0.000000 -1.000000 -0.750000
0 32.000000 12.000000 32.000000 1.000000 0.000000 0.000000 -0.625000 -1.000000
0 32.000000 0.000000 32.000000 1.000000 0.000000 0.000000 -1.000000 -1.000000
hp_details
0 28.000000 0.000000 20.000000 0.577350 -0.577350 -0.577350 0.312500 -0.625000
0 32.000000 4.000000 20.000000 0.577350 -0.577350 -0.577350 0.500000 -0.625000
0 32.000000 0.000000 24.000000 0.577350 -0.577350 -0.577350 0.406250 -0.750000
p0_hp100_side
0 32.000000 0.000000 32.000000 0.000000 -1.000000 0.000000 1.000000 -1.000000
0 20.000000 0.000000 32.000000 0.000000 -1.000000 0.000000 0.625000 -1.000000
0 20.000000 0.000000 20.000000 0.000000 -1.000000 0.000000 0.625000 -0.625000
p0_hp100_side
0 32.000000 0.000000 32.000000 0.000000 -1.000000 0.000000 1.000000 -1.000000
0 20.000000 0.000000 20.000000 0.000000 -1.000000 0.000000 0.625000 -0.625000
0 28.000000 0.000000 20.000000 0.000000 -1.000000 0.000000 0.875000 -0.625000
p0_hp100_side
0 32.000000 0.000000 32.000000 0.000000 -1.000000 0.000000 1.000000 -1.000000
0 28.000000 0.000000 20.000000 0.000000 -1.000000 0.000000 0.875000 -0.625000
0 32.000000 0.000000 24.000000 0.000000 -1.000000 0.000000 1.000000 -0.750000
p0_hp100_side
0 32.000000 32.000000 32.000000 -0.000000 1.000000 0.000000 -1.000000 -1.000000
0 32.000000 32.000000 24.000000 -0.000000 1.000000 0.000000 -1.000000 -0.750000
0 28.000000 32.000000 20.000000 -0.000000 1.000000 0.000000 -0.875000 -0.625000
p0_hp100_side
0 32.000000 32.000000 32.000000 -0.000000 1.000000 0.000000 -1.000000 -1.000000
0 28.000000 32.000000 20.000000 -0.000000 1.000000 0.000000 -0.875000 -0.625000
0 20.000000 32.000000 20.000000 -0.000000 1.000000 0.000000 -0.625000 -0.625000
p0_hp100_side
0 32.000000 32.000000 32.000000 -0.000000 1.000000 0.000000 -1.000000 -1.000000
0 20.000000 32.000000 20.000000 -0.000000 1.000000 0.000000 -0.625000 -0.625000
0 20.000000 32.000000 32.000000 -0.000000 1.000000 0.000000 -0.625000 -1.000000
hp_details
0 32.000000 28.000000 20.000000 0.577350 0.577350 -0.577350 0.500000 -0.625000
0 28.000000 32.000000 20.000000 0.577350 0.577350 -0.577350 0.312500 -0.625000
0 32.000000 32.000000 24.000000 0.577350 0.577350 -0.577350 0.406250 -0.750000
hp_details
0 20.000000 32.000000 32.000000 -1.000000 -0.000000 0.000000 0.000000 -1.000000
0 20.000000 32.000000 20.000000 -1.000000 -0.000000 0.000000 0.000000 -0.625000
0 20.000000 26.000000 20.000000 -1.000000 -0.000000 0.000000 -0.187500 -0.625000
hp_details
0 20.000000 32.000000 32.000000 -1.000000 -0.000000 0.000000 0.000000 -1.000000
0 20.000000 26.000000 20.000000 -1.000000 -0.000000 0.000000 -0.187500 -0.625000
0 20.000000 26.000000 32.000000 -1.000000 -0.000000 0.000000 -0.187500 -1.000000
p0_hp100_top
0 20.000000 26.000000 20.000000 0.000000 0.000000 -1.000000 -0.218750 -0.625000
0 20.000000 32.000000 20.000000 0.000000 0.000000 -1.000000 -0.031250 -0.625000
0 28.000000 32.000000 20.000000 0.000000 0.000000 -1.000000 -0.031250 -0.875000
p0_hp100_top
0 20.000000 26.000000 20.000000 0.000000 0.000000 -1.000000 -0.218750 -0.625000
0 28.000000 32.000000 20.000000 0.000000 0.000000 -1.000000 -0.031250 -0.875000
0 32.000000 28.000000 20.000000 0.000000 0.000000 -1.000000 -0.156250 -1.000000
p0_hp100_top
0 20.000000 26.000000 20.000000 0.000000 0.000000 -1.000000 -0.218750 -0.625000
0 32.000000 28.000000 20.000000 0.000000 0.000000 -1.000000 -0.156250 -1.000000
0 32.000000 20.000000 20.000000 0.000000 0.000000 -1.000000 -0.406250 -1.000000
p0_hp100_top
0 20.000000 26.000000 20.000000 0.000000 0.000000 -1.000000 -0.218750 -0.625000
0 32.000000 20.000000 20.000000 0.000000 0.000000 -1.000000 -0.406250 -1.000000
0 26.000000 20.000000 20.000000 0.000000 0.000000 -1.000000 -0.406250 -0.812500
p0_hp100_top
0 32.000000 32.000000 32.000000 0.000000 0.000000 1.000000 0.000000 -1.000000
0 20.000000 32.000000 32.000000 0.000000 0.000000 1.000000 0.000000 -0.625000
0 20.000000 26.000000 32.000000 0.000000 0.000000 1.000000 0.187500 -0.625000
p0_hp100_top
0 32.000000 32.000000 32.000000 0.000000 0.000000 1.000000 0.000000 -1.000000
0 20.000000 26.000000 32.000000 0.000000 0.000000 1.000000 0.187500 -0.625000
0 26.000000 20.000000 32.000000 0.000000 0.000000 1.000000 0.375000 -0.812500
p0_hp100_top
0 32.000000 32.000000 32.000000 0.000000 0.000000 1.000000 0.000000 -1.000000
0 26.000000 20.000000 32.000000 0.000000 0.000000 1.000000 0.375000 -0.812500
0 32.000000 20.000000 32.000000 0.000000 0.000000 1.000000 0.375000 -1.000000
p0_hp100_side
0 32.000000 20.000000 20.000000 1.000000 0.000000 0.000000 -0.375000 -0.625000
0 32.000000 28.000000 20.000000 1.000000 0.000000 0.000000 -0.125000 -0.625000
0 32.000000 32.000000 24.000000 1.000000 0.000000 0.000000 0.000000 -0.750000
p0_hp100_side
0 32.000000 20.000000 20.000000 1.000000 0.000000 0.000000 -0.375000 -0.625000
0 32.000000 32.000000 24.000000 1.000000 0.000000 0.000000 0.000000 -0.750000
0 32.000000 32.000000 32.000000 1.000000 0.000000 0.000000 0.000000 -1.000000
p0_hp100_side
0 32.000000 20.000000 20.000000 1.000000 0.000000 0.000000 -0.375000 -0.625000
0 32.000000 32.000000 32.000000 1.000000 0.000000 0.000000 0.000000 -1.000000
0 32.000000 20.000000 32.000000 1.000000 0.000000 0.000000 -0.375000 -1.000000
hp_details
0 26.000000 20.000000 32.000000 -0.707107 -0.707107 0.000000 -0.812500 -1.000000
0 20.000000 26.000000 32.000000 -0.707107 -0.707107 0.000000 -0.562500 -1.000000
0 20.000000 26.000000 20.000000 -0.707107 -0.707107 0.000000 -0.562500 -0.625000
hp_details
0 26.000000 20.000000 32.000000 -0.707107 -0.707107 0.000000 -0.812500 -1.000000
0 20.000000 26.000000 20.000000 -0.707107 -0.707107 0.000000 -0.562500 -0.625000
0 26.000000 20.000000 20.000000 -0.707107 -0.707107 0.000000 -0.812500 -0.625000
hp_details
0 26.000000 20.000000 32.000000 0.000000 -1.000000 0.000000 0.812500 -1.000000
0 26.000000 20.000000 20.000000 0.000000 -1.000000 0.000000 0.812500 -0.625000
0 32.000000 20.000000 20.000000 0.000000 -1.000000 0.000000 1.000000 -0.625000
hp_details
0 26.000000 20.000000 32.000000 0.000000 -1.000000 0.000000 0.812500 -1.000000
0 32.000000 20.000000 20.000000 0.000000 -1.000000 0.000000 1.000000 -0.625000
0 32.000000 20.000000 32.000000 0.000000 -1.000000 0.000000 1.000000 -1.000000
p0_hp100_side
0 28.000000 32.000000 20.000000 -0.000000 1.000000 0.000000 -0.875000 -0.625000
0 28.000000 32.000000 12.000000 -0.000000 1.000000 0.000000 -0.875000 -0.375000
0 20.000000 32.000000 12.000000 -0.000000 1.000000 0.000000 -0.625000 -0.375000
p0_hp100_side
0 28.000000 32.000000 20.000000 -0.000000 1.000000 0.000000 -0.875000 -0.625000
0 20.000000 32.000000 12.000000 -0.000000 1.000000 0.000000 -0.625000 -0.375000
0 20.000000 32.000000 20.000000 -0.000000 1.000000 0.000000 -0.625000 -0.625000
hp_details
0 32.000000 28.000000 12.000000 0.707107 0.707107 0.000000 0.500000 -0.375000
0 28.000000 32.000000 12.000000 0.707107 0.707107 0.000000 0.312500 -0.375000
0 28.000000 32.000000 20.000000 0.707107 0.707107 0.000000 0.312500 -0.625000
hp_details
0 32.000000 28.000000 12.000000 0.707107 0.707107 0.000000 0.500000 -0.375000
0 28.000000 32.000000 20.000000 0.707107 0.707107 0.000000 0.312500 -0.625000
0 32.000000 28.000000 20.000000 0.707107 0.707107 0.000000 0.500000 -0.625000
hp_details
0 20.000000 32.000000 20.000000 -1.000000 -0.000000 0.000000 0.000000 -0.625000
0 20.000000 32.000000 12.000000 -1.000000 -0.000000 0.000000 0.000000 -0.375000
0 20.000000 26.000000 12.000000 -1.000000 -0.000000 0.000000 -0.187500 -0.375000
hp_details
0 20.000000 32.000000 20.000000 -1.000000 -0.000000 0.000000 0.000000 -0.625000
0 20.000000 26.000000 12.000000 -1.000000 -0.000000 0.000000 -0.187500 -0.375000
0 20.000000 26.000000 20.000000 -1.000000 -0.000000 0.000000 -0.187500 -0.625000
hp_bottom
0 20.000000 26.000000 12.000000 0.000000 0.000000 -1.000000 -0.218750 -0.625000
0 20.000000 32.000000 12.000000 0.000000 0.000000 -1.000000 -0.031250 -0.625000
0 28.000000 32.000000 12.000000 0.000000 0.000000 -1.000000 -0.031250 -0.875000
hp_bottom
0 20.000000 26.000000 12.000000 0.000000 0.000000 -1.000000 -0.218750 -0.625000
0 28.000000 32.000000 12.000000 0.000000 0.000000 -1.000000 -0.031250 -0.875000
0 32.000000 28.000000 12.000000 0.000000 0.000000 -1.000000 -0.156250 -1.000000
hp_bottom
0 20.000000 26.000000 12.000000 0.000000 0.000000 -1.000000 -0.218750 -0.625000
0 32.000000 28.000000 12.000000 0.000000 0.000000 -1.000000 -0.156250 -1.000000
0 32.000000 20.000000 12.000000 0.000000 0.000000 -1.000000 -0.406250 -1.000000
hp_bottom
0 20.000000 26.000000 12.000000 0.000000 0.000000 -1.000000 -0.218750 -0.625000
0 32.000000 20.000000 12.000000 0.000000 0.000000 -1.000000 -0.406250 -1.000000
0 26.000000 20.000000 12.000000 0.000000 0.000000 -1.000000 -0.406250 -0.812500
hp_bottom
0 26.000000 20.000000 20.000000 0.000000 0.000000 1.000000 0.406250 -0.812500
0 32.000000 20.000000 20.000000 0.000000 0.000000 1.000000 0.406250 -1.000000
0 32.000000 28.000000 20.000000 0.000000 0.000000 1.000000 0.156250 -1.000000
hp_bottom
0 26.000000 20.000000 20.000000 0.000000 0.000000 1.000000 0.406250 -0.812500
0 32.000000 28.000000 20.000000 0.000000 0.000000 1.000000 0.156250 -1.000000
0 28.000000 32.000000 20.000000 0.000000 0.000000 1.000000 0.031250 -0.875000
hp_bottom
0 26.000000 20.000000 20.000000 0.000000 0.000000 1.000000 0.406250 -0.812500
0 28.000000 32.000000 20.000000 0.000000 0.000000 1.000000 0.031250 -0.875000
0 20.000000 32.000000 20.000000 0.000000 0.000000 1.000000 0.031250 -0.625000
hp_bottom
0 26.000000 20.000000 20.000000 0.000000 0.000000 1.000000 0.406250 -0.812500
0 20.000000 32.000000 20.000000 0.000000 0.000000 1.000000 0.031250 -0.625000
0 20.000000 26.000000 20.000000 0.000000 0.000000 1.000000 0.218750 -0.625000
p0_hp100_side
0 32.000000 20.000000 12.000000 1.000000 0.000000 0.000000 -0.375000 -0.375000
0 32.000000 28.000000 12.000000 1.000000 0.000000 0.000000 -0.125000 -0.375000
0 32.000000 28.000000 20.000000 1.000000 0.000000 0.000000 -0.125000 -0.625000
p0_hp100_side
0 32.000000 20.000000 12.000000 1.000000 0.000000 0.000000 -0.375000 -0.375000
0 32.000000 28.000000 20.000000 1.000000 0.000000 0.000000 -0.125000 -0.625000
0 32.000000 20.000000 20.000000 1.000000 0.000000 0.000000 -0.375000 -0.625000
hp_details
0 26.000000 20.000000 20.000000 -0.707107 -0.707107 0.000000 -0.812500 -0.625000
0 20.000000 26.000000 20.000000 -0.707107 -0.707107 0.000000 -0.562500 -0.625000
0 20.000000 26.000000 12.000000 -0.707107 -0.707107 0.000000 -0.562500 -0.375000
hp_details
0 26.000000 20.000000 20.000000 -0.707107 -0.707107 0.000000 -0.812500 -0.625000
0 20.000000 26.000000 12.000000 -0.707107 -0.707107 0.000000 -0.562500 -0.375000
0 26.000000 20.000000 12.000000 -0.707107 -0.707107 0.000000 -0.812500 -0.375000
hp_details
0 26.000000 20.000000 20.000000 0.000000 -1.000000 0.000000 0.812500 -0.625000
0 26.000000 20.000000 12.000000 0.000000 -1.000000 0.000000 0.812500 -0.375000
0 32.000000 20.000000 12.000000 0.000000 -1.000000 0.000000 1.000000 -0.375000
hp_details
0 26.000000 20.000000 20.000000 0.000000 -1.000000 0.000000 0.812500 -0.625000
0 32.000000 20.000000 12.000000 0.000000 -1.000000 0.000000 1.000000 -0.375000
0 32.000000 20.000000 20.000000 0.000000 -1.000000 0.000000 1.000000 -0.625000
p0_hp100_side
0 20.000000 32.000000 12.000000 -0.000000 1.000000 0.000000 -0.625000 -0.375000
0 28.000000 32.000000 12.000000 -0.000000 1.000000 0.000000 -0.875000 -0.375000
0 32.000000 32.000000 8.000000 -0.000000 1.000000 0.000000 -1.000000 -0.250000
p0_hp100_side
0 20.000000 32.000000 12.000000 -0.000000 1.000000 0.000000 -0.625000 -0.375000
0 32.000000 32.000000 8.000000 -0.000000 1.000000 0.000000 -1.000000 -0.250000
0 20.000000 32.000000 8.000000 -0.000000 1.000000 0.000000 -0.625000 -0.250000
hp_details
0 32.000000 28.000000 12.000000 0.577350 0.577350 0.577350 0.500000 -0.375000
0 32.000000 32.000000 8.000000 0.577350 0.577350 0.577350 0.406250 -0.250000
0 28.000000 32.000000 12.000000 0.577350 0.577350 0.577350 0.312500 -0.375000
hp_details
0 20.000000 32.000000 12.000000 -1.000000 -0.000000 0.000000 0.000000 -0.375000
0 20.000000 32.000000 8.000000 -1.000000 -0.000000 0.000000 0.000000 -0.250000
0 20.000000 26.000000 8.000000 -1.000000 -0.000000 0.000000 -0.187500 -0.250000
hp_details
0 20.000000 32.000000 12.000000 -1.000000 -0.000000 0.000000 0.000000 -0.375000
0 20.000000 26.000000 8.000000 -1.000000 -0.000000 0.000000 -0.187500 -0.250000
0 20.000000 26.000000 12.000000 -1.000000 -0.000000 0.000000 -0.187500 -0.375000
p0_hp100_top
0 20.000000 26.000000 8.000000 0.000000 0.000000 -1.000000 -0.187500 -0.625000
0 20.000000 32.000000 8.000000 0.000000 0.000000 -1.000000 0.000000 -0.625000
0 32.000000 32.000000 8.000000 0.000000 0.000000 -1.000000 0.000000 -1.000000
p0_hp100_top
0 20.000000 26.000000 8.000000 0.000000 0.000000 -1.000000 -0.187500 -0.625000
0 32.000000 32.000000 8.000000 0.000000 0.000000 -1.000000 0.000000 -1.000000
0 32.000000 20.000000 8.000000 0.000000 0.000000 -1.000000 -0.375000 -1.000000
p0_hp100_top
0 20.000000 26.000000 8.000000 0.000000 0.000000 -1.000000 -0.187500 -0.625000
0 32.000000 20.000000 8.000000 0.000000 0.000000 -1.000000 -0.375000 -1.000000
0 26.000000 20.000000 8.000000 0.000000 0.000000 -1.000000 -0.375000 -0.812500
hp_bottom
0 26.000000 20.000000 12.000000 0.000000 0.000000 1.000000 0.406250 -0.812500
0 32.000000 20.000000 12.000000 0.000000 0.000000 1.000000 0.406250 -1.000000
0 32.000000 28.000000 12.000000 0.000000 0.000000 1.000000 0.156250 -1.000000
hp_bottom
0 26.000000 20.000000 12.000000 0.000000 0.000000 1.000000 0.406250 -0.812500
0 32.000000 28.000000 12.000000 0.000000 0.000000 1.000000 0.156250 -1.000000
0 28.000000 32.000000 12.000000 0.000000 0.000000 1.000000 0.031250 -0.875000
hp_bottom
0 26.000000 20.000000 12.000000 0.000000 0.000000 1.000000 0.406250 -0.812500
0 28.000000 32.000000 12.000000 0.000000 0.000000 1.000000 0.031250 -0.875000
0 20.000000 32.000000 12.000000 0.000000 0.000000 1.000000 0.031250 -0.625000
hp_bottom
0 26.000000 20.000000 12.000000 0.000000 0.000000 1.000000 0.406250 -0.812500
0 20.000000 32.000000 12.000000 0.000000 0.000000 1.000000 0.031250 -0.625000
0 20.000000 26.000000 12.000000 0.000000 0.000000 1.000000 0.218750 -0.625000
p0_hp100_side
0 32.000000 20.000000 8.000000 1.000000 0.000000 0.000000 -0.375000 -0.250000
0 32.000000 32.000000 8.000000 1.000000 0.000000 0.000000 0.000000 -0.250000
0 32.000000 28.000000 12.000000 1.000000 0.000000 0.000000 -0.125000 -0.375000
p0_hp100_side
0 32.000000 20.000000 8.000000 1.000000 0.000000 0.000000 -0.375000 -0.250000
0 32.000000 28.000000 12.000000 1.000000 0.000000 0.000000 -0.125000 -0.375000
0 32.000000 20.000000 12.000000 1.000000 0.000000 0.000000 -0.375000 -0.375000
hp_details
0 26.000000 20.000000 12.000000 -0.707107 -0.707107 0.000000 -0.812500 -0.375000
0 20.000000 26.000000 12.000000 -0.707107 -0.707107 0.000000 -0.562500 -0.375000
0 20.000000 26.000000 8.000000 -0.707107 -0.707107 0.000000 -0.562500 -0.250000
hp_details
0 26.000000 20.000000 12.000000 -0.707107 -0.707107 0.000000 -0.812500 -0.375000
0 20.000000 26.000000 8.000000 -0.707107 -0.707107 0.000000 -0.562500 -0.250000
0 26.000000 20.000000 8.000000 -0.707107 -0.707107 0.000000 -0.812500 -0.250000
hp_details
0 26.000000 20.000000 12.000000 0.000000 -1.000000 0.000000 0.812500 -0.375000
0 26.000000 20.000000 8.000000 0.000000 -1.000000 0.000000 0.812500 -0.250000
0 32.000000 20.000000 8.000000 0.000000 -1.000000 0.000000 1.000000 -0.250000
hp_details
0 26.000000 20.000000 12.000000 0.000000 -1.000000 0.000000 0.812500 -0.375000
0 32.000000 20.000000 8.000000 0.000000 -1.000000 0.000000 1.000000 -0.250000
0 32.000000 20.000000 12.000000 0.000000 -1.000000 0.000000 1.000000 -0.375000
hp_details
0 32.000000 12.000000 12.000000 -0.000000 1.000000 0.000000 1.000000 -0.375000
0 26.000000 12.000000 12.000000 -0.000000 1.000000 0.000000 0.812500 -0.375000
0 26.000000 12.000000 20.000000 -0.000000 1.000000 0.000000 0.812500 -0.625000
hp_details
0 32.000000 12.000000 12.000000 -0.000000 1.000000 0.000000 1.000000 -0.375000
0 26.000000 12.000000 20.000000 -0.000000 1.000000 0.000000 0.812500 -0.625000
0 32.000000 12.000000 20.000000 -0.000000 1.000000 0.000000 1.000000 -0.625000
hp_details
0 20.000000 6.000000 20.000000 -0.707107 0.707107 0.000000 -0.875000 -0.625000
0 26.000000 12.000000 20.000000 -0.707107 0.707107 0.000000 -0.625000 -0.625000
0 26.000000 12.000000 12.000000 -0.707107 0.707107 0.000000 -0.625000 -0.375000
hp_details
0 20.000000 6.000000 20.000000 -0.707107 0.707107 0.000000 -0.875000 -0.625000
0 26.000000 12.000000 12.000000 -0.707107 0.707107 0.000000 -0.625000 -0.375000
0 20.000000 6.000000 12.000000 -0.707107 0.707107 0.000000 -0.875000 -0.375000
hp_details
0 20.000000 0.000000 20.000000 -1.000000 -0.000000 0.000000 -1.000000 -0.625000
0 20.000000 6.000000 20.000000 -1.000000 -0.000000 0.000000 -0.812500 -0.625000
0 20.000000 6.000000 12.000000 -1.000000 -0.000000 0.000000 -0.812500 -0.375000
hp_details
0 20.000000 0.000000 20.000000 -1.000000 -0.000000 0.000000 -1.000000 -0.625000
0 20.000000 6.000000 12.000000 -1.000000 -0.000000 0.000000 -0.812500 -0.375000
0 20.000000 0.000000 12.000000 -1.000000 -0.000000 0.000000 -1.000000 -0.375000
hp_bottom
0 20.000000 0.000000 12.000000 0.000000 0.000000 -1.000000 -1.031250 -0.625000
0 20.000000 6.000000 12.000000 0.000000 0.000000 -1.000000 -0.843750 -0.625000
0 26.000000 12.000000 12.000000 0.000000 0.000000 -1.000000 -0.656250 -0.812500
hp_bottom
0 20.000000 0.000000 12.000000 0.000000 0.000000 -1.000000 -1.031250 -0.625000
0 26.000000 12.000000 12.000000 0.000000 0.000000 -1.000000 -0.656250 -0.812500
0 32.000000 12.000000 12.000000 0.000000 0.000000 -1.000000 -0.656250 -1.000000
hp_bottom
0 20.000000 0.000000 12.000000 0.000000 0.000000 -1.000000 -1.031250 -0.625000
0 32.000000 12.000000 12.000000 0.000000 0.000000 -1.000000 -0.656250 -1.000000
0 32.000000 4.000000 12.000000 0.000000 0.000000 -1.000000 -0.906250 -1.000000
hp_bottom
0 20.000000 0.000000 12.000000 0.000000 0.000000 -1.000000 -1.031250 -0.625000
0 32.000000 4.000000 12.000000 0.000000 0.000000 -1.000000 -0.906250 -1.000000
0 28.000000 0.000000 12.000000 0.000000 0.000000 -1.000000 -1.031250 -0.875000
hp_bottom
0 28.000000 0.000000 20.000000 0.000000 0.000000 1.000000 1.031250 -0.875000
0 32.000000 4.000000 20.000000 0.000000 0.000000 1.000000 0.906250 -1.000000
0 32.000000 12.000000 20.000000 0.000000 0.000000 1.000000 0.656250 -1.000000
hp_bottom
0 28.000000 0.000000 20.000000 0.000000 0.000000 1.000000 1.031250 -0.875000
0 32.000000 12.000000 20.000000 0.000000 0.000000 1.000000 0.656250 -1.000000
0 26.000000 12.000000 20.000000 0.000000 0.000000 1.000000 0.656250 -0.812500
hp_bottom
0 28.000000 0.000000 20.000000 0.000000 0.000000 1.000000 1.031250 -0.875000
0 26.000000 12.000000 20.000000 0.000000 0.000000 1.000000 0.656250 -0.812500
0 20.000000 6.000000 20.000000 0.000000 0.000000 1.000000 0.843750 -0.625000
hp_bottom
0 28.000000 0.000000 20.000000 0.000000 0.000000 1.000000 1.031250 -0.875000
0 20.000000 6.000000 20.000000 0.000000 0.000000 1.000000 0.843750 -0.625000
0 20.000000 0.000000 20.000000 0.000000 0.000000 1.000000 1.031250 -0.625000
p0_hp100_side
0 32.000000 4.000000 12.000000 1.000000 0.000000 0.000000 -0.875000 -0.375000
0 32.000000 12.000000 12.000000 1.000000 0.000000 0.000000 -0.625000 -0.375000
0 32.000000 12.000000 20.000000 1.000000 0.000000 0.000000 -0.625000 -0.625000
p0_hp100_side
0 32.000000 4.000000 12.000000 1.000000 0.000000 0.000000 -0.875000 -0.375000
0 32.000000 12.000000 20.000000 1.000000 0.000000 0.000000 -0.625000 -0.625000
0 32.000000 4.000000 20.000000 1.000000 0.000000 0.000000 -0.875000 -0.625000
hp_details
0 28.000000 0.000000 12.000000 0.707107 -0.707107 0.000000 0.312500 -0.375000
0 32.000000 4.000000 12.000000 0.707107 -0.707107 0.000000 0.500000 -0.375000
0 32.000000 4.000000 20.000000 0.707107 -0.707107 0.000000 0.500000 -0.625000
hp_details
0 28.000000 0.000000 12.000000 0.707107 -0.707107 0.000000 0.312500 -0.375000
0 32.000000 4.000000 20.000000 0.707107 -0.707107 0.000000 0.500000 -0.625000
0 28.000000 0.000000 20.000000 0.707107 -0.707107 0.000000 0.312500 -0.625000
p0_hp100_side
0 28.000000 0.000000 20.000000 0.000000 -1.000000 0.000000 0.875000 -0.625000
0 20.000000 0.000000 20.000000 0.000000 -1.000000 0.000000 0.625000 -0.625000
0 20.000000 0.000000 12.000000 0.000000 -1.000000 0.000000 0.625000 -0.375000
p0_hp100_side
0 28.000000 0.000000 20.000000 0.000000 -1.000000 0.000000 0.875000 -0.625000
0 20.000000 0.000000 12.000000 0.000000 -1.000000 0.000000 0.625000 -0.375000
0 28.000000 0.000000 12.000000 0.000000 -1.000000 0.000000 0.875000 -0.375000
hp_details
0 32.000000 12.000000 8.000000 -0.000000 1.000000 0.000000 1.000000 -0.250000
0 26.000000 12.000000 8.000000 -0.000000 1.000000 0.000000 0.812500 -0.250000
0 26.000000 12.000000 12.000000 -0.000000 1.000000 0.000000 0.812500 -0.375000
hp_details
0 32.000000 12.000000 8.000000 -0.000000 1.000000 0.000000 1.000000 -0.250000
0 26.000000 12.000000 12.000000 -0.000000 1.000000 0.000000 0.812500 -0.375000
0 32.000000 12.000000 12.000000 -0.000000 1.000000 0.000000 1.000000 -0.375000
hp_details
0 26.000000 12.000000 12.000000 -0.707107 0.707107 0.000000 -0.625000 -0.375000
0 26.000000 12.000000 8.000000 -0.707107 0.707107 0.000000 -0.625000 -0.250000
0 20.000000 6.000000 8.000000 -0.707107 0.707107 0.000000 -0.875000 -0.250000
hp_details
0 26.000000 12.000000 12.000000 -0.707107 0.707107 0.000000 -0.625000 -0.375000
0 20.000000 6.000000 8.000000 -0.707107 0.707107 0.000000 -0.875000 -0.250000
0 20.000000 6.000000 12.000000 -0.707107 0.707107 0.000000 -0.875000 -0.375000
hp_details
0 20.000000 0.000000 12.000000 -1.000000 -0.000000 0.000000 -1.000000 -0.375000
0 20.000000 6.000000 12.000000 -1.000000 -0.000000 0.000000 -0.812500 -0.375000
0 20.000000 6.000000 8.000000 -1.000000 -0.000000 0.000000 -0.812500 -0.250000
hp_details
0 20.000000 0.000000 12.000000 -1.000000 -0.000000 0.000000 -1.000000 -0.375000
0 20.000000 6.000000 8.000000 -1.000000 -0.000000 0.000000 -0.812500 -0.250000
0 20.000000 0.000000 8.000000 -1.000000 -0.000000 0.000000 -1.000000 -0.250000
p0_hp100_top
0 20.000000 0.000000 8.000000 0.000000 0.000000 -1.000000 -1.000000 -0.625000
0 20.000000 6.000000 8.000000 0.000000 0.000000 -1.000000 -0.812500 -0.625000
0 26.000000 12.000000 8.000000 0.000000 0.000000 -1.000000 -0.625000 -0.812500
p0_hp100_top
0 20.000000 0.000000 8.000000 0.000000 0.000000 -1.000000 -1.000000 -0.625000
0 26.000000 12.000000 8.000000 0.000000 0.000000 -1.000000 -0.625000 -0.812500
0 32.000000 12.000000 8.000000 0.000000 0.000000 -1.000000 -0.625000 -1.000000
p0_hp100_top
0 20.000000 0.000000 8.000000 0.000000 0.000000 -1.000000 -1.000000 -0.625000
0 32.000000 12.000000 8.000000 0.000000 0.000000 -1.000000 -0.625000 -1.000000
0 32.000000 0.000000 8.000000 0.000000 0.000000 -1.000000 -1.000000 -1.000000
hp_bottom
0 28.000000 0.000000 12.000000 0.000000 0.000000 1.000000 1.031250 -0.875000
0 32.000000 4.000000 12.000000 0.000000 0.000000 1.000000 0.906250 -1.000000
0 32.000000 12.000000 12.000000 0.000000 0.000000 1.000000 0.656250 -1.000000
hp_bottom
0 28.000000 0.000000 12.000000 0.000000 0.000000 1.000000 1.031250 -0.875000
0 32.000000 12.000000 12.000000 0.000000 0.000000 1.000000 0.656250 -1.000000
0 26.000000 12.000000 12.000000 0.000000 0.000000 1.000000 0.656250 -0.812500
hp_bottom
0 28.000000 0.000000 12.000000 0.000000 0.000000 1.000000 1.031250 -0.875000
0 26.000000 12.000000 12.000000 0.000000 0.000000 1.000000 0.656250 -0.812500
0 20.000000 6.000000 12.000000 0.000000 0.000000 1.000000 0.843750 -0.625000
hp_bottom
0 28.000000 0.000000 12.000000 0.000000 0.000000 1.000000 1.031250 -0.875000
0 20.000000 6.000000 12.000000 0.000000 0.000000 1.000000 0.843750 -0.625000
0 20.000000 0.000000 12.000000 0.000000 0.000000 1.000000 1.031250 -0.625000
p0_hp100_side
0 32.000000 0.000000 8.000000 1.000000 0.000000 0.000000 -1.000000 -0.250000
0 32.000000 12.000000 8.000000 1.000000 0.000000 0.000000 -0.625000 -0.250000
0 32.000000 12.000000 12.000000 1.000000 0.000000 0.000000 -0.625000 -0.375000
p0_hp100_side
0 32.000000 0.000000 8.000000 1.000000 0.000000 0.000000 -1.000000 -0.250000
0 32.000000 12.000000 12.000000 1.000000 0.000000 0.000000 -0.625000 -0.375000
0 32.000000 4.000000 12.000000 1.000000 0.000000 0.000000 -0.875000 -0.375000
hp_details
0 28.000000 0.000000 12.000000 0.577350 -0.577350 0.577350 0.312500 -0.375000
0 32.000000 0.000000 8.000000 0.577350 -0.577350 0.577350 0.406250 -0.250000
0 32.000000 4.000000 12.000000 0.577350 -0.577350 0.577350 0.500000 -0.375000
p0_hp100_side
0 28.000000 0.000000 12.000000 0.000000 -1.000000 0.000000 0.875000 -0.375000
0 20.000000 0.000000 12.000000 0.000000 -1.000000 0.000000 0.625000 -0.375000
0 20.000000 0.000000 8.000000 0.000000 -1.000000 0.000000 0.625000 -0.250000
p0_hp100_side
0 28.000000 0.000000 12.000000 0.000000 -1.000000 -0.000000 0.875000 -0.375000
0 20.000000 0.000000 8.000000 0.000000 -1.000000 -0.000000 0.625000 -0.250000
0 32.000000 0.000000 8.000000 0.000000 -1.000000 -0.000000 1.000000 -0.250000
p0_hp100_side
0 32.000000 32.000000 0.000000 -0.000000 1.000000 0.000000 -1.000000 0.000000
0 0.000000 32.000000 0.000000 -0.000000 1.000000 0.000000 0.000000 0.000000
0 0.000000 32.000000 8.000000 -0.000000 1.000000 0.000000 0.000000 -0.250000
p0_hp100_side
0 32.000000 32.000000 0.000000 -0.000000 1.000000 0.000000 -1.000000 0.000000
0 0.000000 32.000000 8.000000 -0.000000 1.000000 0.000000 0.000000 -0.250000
0 32.000000 32.000000 8.000000 -0.000000 1.000000 0.000000 -1.000000 -0.250000
p0_hp100_side
0 0.000000 32.000000 8.000000 -1.000000 -0.000000 0.000000 0.000000 -0.250000
0 0.000000 32.000000 0.000000 -1.000000 -0.000000 0.000000 0.000000 0.000000
0 0.000000 0.000000 0.000000 -1.000000 -0.000000 0.000000 1.000000 0.000000
p0_hp100_side
0 0.000000 32.000000 8.000000 -1.000000 -0.000000 0.000000 0.000000 -0.250000
0 0.000000 0.000000 0.000000 -1.000000 -0.000000 0.000000 1.000000 0.000000
0 0.000000 0.000000 8.000000 -1.000000 -0.000000 0.000000 1.000000 -0.250000
hp_bottom
0 0.000000 0.000000 0.000000 0.000000 0.000000 -1.000000 -1.000000 0.000000
0 0.000000 32.000000 0.000000 0.000000 0.000000 -1.000000 0.000000 0.000000
0 32.000000 32.000000 0.000000 0.000000 0.000000 -1.000000 0.000000 -1.000000
hp_bottom
0 0.000000 0.000000 0.000000 0.000000 0.000000 -1.000000 -1.000000 0.000000
0 32.000000 32.000000 0.000000 0.000000 0.000000 -1.000000 0.000000 -1.000000
0 32.000000 0.000000 0.000000 0.000000 0.000000 -1.000000 -1.000000 -1.000000
p0_hp100_side
0 32.000000 32.000000 8.000000 0.000000 0.000000 1.000000 0.000000 -1.000000
0 0.000000 32.000000 8.000000 0.000000 0.000000 1.000000 0.000000 0.000000
0 0.000000 0.000000 8.000000 0.000000 0.000000 1.000000 1.000000 0.000000
p0_hp100_side
0 32.000000 32.000000 8.000000 0.000000 0.000000 1.000000 0.000000 -1.000000
0 0.000000 0.000000 8.000000 0.000000 0.000000 1.000000 1.000000 0.000000
0 32.000000 0.000000 8.000000 0.000000 0.000000 1.000000 1.000000 -1.000000
p0_hp100_side
0 32.000000 0.000000 0.000000 1.000000 0.000000 0.000000 -1.000000 0.000000
0 32.000000 32.000000 0.000000 1.000000 0.000000 0.000000 0.000000 0.000000
0 32.000000 32.000000 8.000000 1.000000 0.000000 0.000000 0.000000 -0.250000
p0_hp100_side
0 32.000000 0.000000 0.000000 1.000000 0.000000 0.000000 -1.000000 0.000000
0 32.000000 32.000000 8.000000 1.000000 0.000000 0.000000 0.000000 -0.250000
0 32.000000 0.000000 8.000000 1.000000 0.000000 0.000000 -1.000000 -0.250000
p0_hp100_side
0 0.000000 0.000000 8.000000 0.000000 -1.000000 0.000000 0.000000 -0.250000
0 0.000000 0.000000 0.000000 0.000000 -1.000000 0.000000 0.000000 0.000000
0 32.000000 0.000000 0.000000 0.000000 -1.000000 0.000000 1.000000 0.000000
p0_hp100_side
0 0.000000 0.000000 8.000000 0.000000 -1.000000 0.000000 0.000000 -0.250000
0 32.000000 0.000000 0.000000 0.000000 -1.000000 0.000000 1.000000 0.000000
0 32.000000 0.000000 8.000000 0.000000 -1.000000 0.000000 1.000000 -0.250000
p0_hp100_side
0 28.000000 30.000000 30.000000 -0.000000 1.000000 0.000000 -0.875000 -0.968750
0 28.000000 30.000000 8.000000 -0.000000 1.000000 0.000000 -0.875000 -0.281250
0 4.000000 30.000000 8.000000 -0.000000 1.000000 0.000000 -0.125000 -0.281250
p0_hp100_side
0 28.000000 30.000000 30.000000 -0.000000 1.000000 0.000000 -0.875000 -0.968750
0 4.000000 30.000000 8.000000 -0.000000 1.000000 0.000000 -0.125000 -0.281250
0 4.000000 30.000000 30.000000 -0.000000 1.000000 0.000000 -0.125000 -0.968750
p0_hp100_side
0 2.000000 28.000000 30.000000 -0.707107 0.707107 0.000000 0.044194 -0.937500
0 4.000000 30.000000 30.000000 -0.707107 0.707107 0.000000 -0.044194 -0.937500
0 4.000000 30.000000 8.000000 -0.707107 0.707107 0.000000 -0.044194 -0.250000
p0_hp100_side
0 2.000000 28.000000 30.000000 -0.707107 0.707107 0.000000 0.044194 -0.937500
0 4.000000 30.000000 8.000000 -0.707107 0.707107 0.000000 -0.044194 -0.250000
0 2.000000 28.000000 8.000000 -0.707107 0.707107 0.000000 0.044194 -0.250000
p0_hp100_side
0 30.000000 28.000000 30.000000 0.707107 0.707107 0.000000 -0.751301 -0.937500
0 30.000000 28.000000 8.000000 0.707107 0.707107 0.000000 -0.751301 -0.250000
0 28.000000 30.000000 8.000000 0.707107 0.707107 0.000000 -0.662913 -0.250000
p0_hp100_side
0 30.000000 28.000000 30.000000 0.707107 0.707107 0.000000 -0.751301 -0.937500
0 28.000000 30.000000 8.000000 0.707107 0.707107 0.000000 -0.662913 -0.250000
0 28.000000 30.000000 30.000000 0.707107 0.707107 0.000000 -0.662913 -0.937500
p0_hp100_side
0 2.000000 28.000000 30.000000 -1.000000 -0.000000 0.000000 0.125000 -0.968750
0 2.000000 28.000000 8.000000 -1.000000 -0.000000 0.000000 0.125000 -0.281250
0 2.000000 4.000000 8.000000 -1.000000 -0.000000 0.000000 0.875000 -0.281250
p0_hp100_side
0 2.000000 28.000000 30.000000 -1.000000 -0.000000 0.000000 0.125000 -0.968750
0 2.000000 4.000000 8.000000 -1.000000 -0.000000 0.000000 0.875000 -0.281250
0 2.000000 4.000000 30.000000 -1.000000 -0.000000 0.000000 0.875000 -0.968750
p0_hp100_side
0 4.000000 2.000000 8.000000 0.000000 0.000000 -1.000000 -0.937500 -0.125000
0 2.000000 4.000000 8.000000 0.000000 0.000000 -1.000000 -0.875000 -0.062500
0 2.000000 28.000000 8.000000 0.000000 0.000000 -1.000000 -0.125000 -0.062500
p0_hp100_side
0 4.000000 2.000000 8.000000 0.000000 0.000000 -1.000000 -0.937500 -0.125000
0 2.000000 28.000000 8.000000 0.000000 0.000000 -1.000000 -0.125000 -0.062500
0 4.000000 30.000000 8.000000 0.000000 0.000000 -1.000000 -0.062500 -0.125000
p0_hp100_side
0 4.000000 2.000000 8.000000 0.000000 0.000000 -1.000000 -0.937500 -0.125000
0 4.000000 30.000000 8.000000 0.000000 0.000000 -1.000000 -0.062500 -0.125000
0 28.000000 30.000000 8.000000 0.000000 0.000000 -1.000000 -0.062500 -0.875000
p0_hp100_side
0 4.000000 2.000000 8.000000 0.000000 0.000000 -1.000000 -0.937500 -0.125000
0 28.000000 30.000000 8.000000 0.000000 0.000000 -1.000000 -0.062500 -0.875000
0 30.000000 28.000000 8.000000 0.000000 0.000000 -1.000000 -0.125000 -0.937500
p0_hp100_side
0 4.000000 2.000000 8.000000 0.000000 0.000000 -1.000000 -0.937500 -0.125000
0 30.000000 28.000000 8.000000 0.000000 0.000000 -1.000000 -0.125000 -0.937500
0 30.000000 4.000000 8.000000 0.000000 0.000000 -1.000000 -0.875000 -0.937500
p0_hp100_side
0 4.000000 2.000000 8.000000 0.000000 0.000000 -1.000000 -0.937500 -0.125000
0 30.000000 4.000000 8.000000 0.000000 0.000000 -1.000000 -0.875000 -0.937500
0 28.000000 2.000000 8.000000 0.000000 0.000000 -1.000000 -0.937500 -0.875000
hp25_top2
0 28.000000 2.000000 30.000000 0.000000 0.000000 1.000000 0.937500 -0.875000
0 30.000000 4.000000 30.000000 0.000000 0.000000 1.000000 0.875000 -0.937500
0 30.000000 28.000000 30.000000 0.000000 0.000000 1.000000 0.125000 -0.937500
hp25_top2
0 28.000000 2.000000 30.000000 0.000000 0.000000 1.000000 0.937500 -0.875000
0 30.000000 28.000000 30.000000 0.000000 0.000000 1.000000 0.125000 -0.937500
0 28.000000 30.000000 30.000000 0.000000 0.000000 1.000000 0.062500 -0.875000
hp25_top2
0 28.000000 2.000000 30.000000 0.000000 0.000000 1.000000 0.937500 -0.875000
0 28.000000 30.000000 30.000000 0.000000 0.000000 1.000000 0.062500 -0.875000
0 4.000000 30.000000 30.000000 0.000000 0.000000 1.000000 0.062500 -0.125000
hp25_top2
0 28.000000 2.000000 30.000000 0.000000 0.000000 1.000000 0.937500 -0.875000
0 4.000000 30.000000 30.000000 0.000000 0.000000 1.000000 0.062500 -0.125000
0 2.000000 28.000000 30.000000 0.000000 0.000000 1.000000 0.125000 -0.062500
hp25_top2
0 28.000000 2.000000 30.000000 0.000000 0.000000 1.000000 0.937500 -0.875000
0 2.000000 28.000000 30.000000 0.000000 0.000000 1.000000 0.125000 -0.062500
0 2.000000 4.000000 30.000000 0.000000 0.000000 1.000000 0.875000 -0.062500
hp25_top2
0 28.000000 2.000000 30.000000 0.000000 0.000000 1.000000 0.937500 -0.875000
0 2.000000 4.000000 30.000000 0.000000 0.000000 1.000000 0.875000 -0.062500
0 4.000000 2.000000 30.000000 0.000000 0.000000 1.000000 0.937500 -0.125000
p0_hp100_side
0 30.000000 4.000000 30.000000 1.000000 0.000000 0.000000 -0.875000 -0.968750
0 30.000000 4.000000 8.000000 1.000000 0.000000 0.000000 -0.875000 -0.281250
0 30.000000 28.000000 8.000000 1.000000 0.000000 0.000000 -0.125000 -0.281250
p0_hp100_side
0 30.000000 4.000000 30.000000 1.000000 0.000000 0.000000 -0.875000 -0.968750
0 30.000000 28.000000 8.000000 1.000000 0.000000 0.000000 -0.125000 -0.281250
0 30.000000 28.000000 30.000000 1.000000 0.000000 0.000000 -0.125000 -0.968750
p0_hp100_side
0 2.000000 4.000000 30.000000 -0.707107 -0.707107 0.000000 0.662913 -0.937500
0 2.000000 4.000000 8.000000 -0.707107 -0.707107 0.000000 0.662913 -0.250000
0 4.000000 2.000000 8.000000 -0.707107 -0.707107 0.000000 0.751301 -0.250000
p0_hp100_side
0 2.000000 4.000000 30.000000 -0.707107 -0.707107 0.000000 0.662913 -0.937500
0 4.000000 2.000000 8.000000 -0.707107 -0.707107 0.000000 0.751301 -0.250000
0 4.000000 2.000000 30.000000 -0.707107 -0.707107 0.000000 0.751301 -0.937500
p0_hp100_side
0 28.000000 2.000000 8.000000 0.707107 -0.707107 0.000000 -0.044194 -0.250000
0 30.000000 4.000000 8.000000 0.707107 -0.707107 0.000000 0.044194 -0.250000
0 30.000000 4.000000 30.000000 0.707107 -0.707107 0.000000 0.044194 -0.937500
p0_hp100_side
0 28.000000 2.000000 8.000000 0.707107 -0.707107 0.000000 -0.044194 -0.250000
0 30.000000 4.000000 30.000000 0.707107 -0.707107 0.000000 0.044194 -0.937500
0 28.000000 2.000000 30.000000 0.707107 -0.707107 0.000000 -0.044194 -0.937500
p0_hp100_side
0 4.000000 2.000000 30.000000 0.000000 -1.000000 0.000000 0.125000 -0.968750
0 4.000000 2.000000 8.000000 0.000000 -1.000000 0.000000 0.125000 -0.281250
0 28.000000 2.000000 8.000000 0.000000 -1.000000 0.000000 0.875000 -0.281250
p0_hp100_side
0 4.000000 2.000000 30.000000 0.000000 -1.000000 0.000000 0.125000 -0.968750
0 28.000000 2.000000 8.000000 0.000000 -1.000000 0.000000 0.875000 -0.281250
0 28.000000 2.000000 30.000000 0.000000 -1.000000 0.000000 0.875000 -0.968750
p0_hp100_side
0 20.000000 2.000000 8.000000 -0.000000 1.000000 0.000000 0.625000 -0.125000
0 12.000000 2.000000 8.000000 -0.000000 1.000000 0.000000 0.375000 -0.125000
0 12.000000 2.000000 10.000000 -0.000000 1.000000 0.000000 0.375000 -0.187500
p0_hp100_side
0 20.000000 2.000000 8.000000 -0.000000 1.000000 0.000000 0.625000 -0.125000
0 12.000000 2.000000 10.000000 -0.000000 1.000000 0.000000 0.375000 -0.187500
0 20.000000 2.000000 10.000000 -0.000000 1.000000 0.000000 0.625000 -0.187500
p0_hp100_side
0 12.000000 2.000000 10.000000 -1.000000 -0.000000 0.000000 -0.937500 -0.187500
0 12.000000 2.000000 8.000000 -1.000000 -0.000000 0.000000 -0.937500 -0.125000
0 12.000000 0.000000 8.000000 -1.000000 -0.000000 0.000000 -1.000000 -0.125000
hp_bottom
0 12.000000 0.000000 8.000000 0.000000 0.000000 -1.000000 -1.000000 -0.375000
0 12.000000 2.000000 8.000000 0.000000 0.000000 -1.000000 -0.937500 -0.375000
0 20.000000 2.000000 8.000000 0.000000 0.000000 -1.000000 -0.937500 -0.625000
hp_bottom
0 12.000000 0.000000 8.000000 0.000000 0.000000 -1.000000 -1.000000 -0.375000
0 20.000000 2.000000 8.000000 0.000000 0.000000 -1.000000 -0.937500 -0.625000
0 20.000000 0.000000 8.000000 0.000000 0.000000 -1.000000 -1.000000 -0.625000
p0_hp100_side
0 20.000000 0.000000 8.000000 1.000000 0.000000 0.000000 1.000000 -0.125000
0 20.000000 2.000000 8.000000 1.000000 0.000000 0.000000 0.937500 -0.125000
0 20.000000 2.000000 10.000000 1.000000 0.000000 0.000000 0.937500 -0.187500
p0_hp100_side
0 20.000000 2.000000 10.000000 0.000000 -0.707107 0.707107 -0.625000 -0.341000
0 12.000000 2.000000 10.000000 0.000000 -0.707107 0.707107 -0.375000 -0.341000
0 12.000000 0.000000 8.000000 0.000000 -0.707107 0.707107 -0.375000 -0.250000
p0_hp100_side
0 20.000000 2.000000 10.000000 0.000000 -0.707107 0.707107 -0.625000 -0.341000
0 12.000000 0.000000 8.000000 0.000000 -0.707107 0.707107 -0.375000 -0.250000
0 20.000000 0.000000 8.000000 0.000000 -0.707107 0.707107 -0.625000 -0.250000
p0_hp100_side
0 2.000000 20.000000 8.000000 -0.000000 1.000000 0.000000 0.062500 -0.125000
0 0.000000 20.000000 8.000000 -0.000000 1.000000 0.000000 -0.000000 -0.125000
0 2.000000 20.000000 10.000000 -0.000000 1.000000 0.000000 0.062500 -0.187500
p0_hp100_side
0 2.000000 20.000000 10.000000 -0.707107 -0.000000 0.707107 -0.375000 -0.341000
0 0.000000 20.000000 8.000000 -0.707107 -0.000000 0.707107 -0.375000 -0.250000
0 0.000000 12.000000 8.000000 -0.707107 -0.000000 0.707107 -0.625000 -0.250000
p0_hp100_side
0 2.000000 20.000000 10.000000 -0.707107 -0.000000 0.707107 -0.375000 -0.341000
0 0.000000 12.000000 8.000000 -0.707107 -0.000000 0.707107 -0.625000 -0.250000
0 2.000000 12.000000 10.000000 -0.707107 -0.000000 0.707107 -0.625000 -0.341000
p0_hp100_side
0 0.000000 12.000000 8.000000 0.000000 0.000000 -1.000000 -0.625000 0.000000
0 0.000000 20.000000 8.000000 0.000000 0.000000 -1.000000 -0.375000 0.000000
0 2.000000 20.000000 8.000000 0.000000 0.000000 -1.000000 -0.375000 -0.062500
p0_hp100_side
0 0.000000 12.000000 8.000000 0.000000 0.000000 -1.000000 -0.625000 0.000000
0 2.000000 20.000000 8.000000 0.000000 0.000000 -1.000000 -0.375000 -0.062500
0 2.000000 12.000000 8.000000 0.000000 0.000000 -1.000000 -0.625000 -0.062500
p0_hp100_side
0 2.000000 20.000000 8.000000 1.000000 0.000000 0.000000 0.375000 -0.125000
0 2.000000 20.000000 10.000000 1.000000 0.000000 0.000000 0.375000 -0.187500
0 2.000000 12.000000 10.000000 1.000000 0.000000 0.000000 0.625000 -0.187500
p0_hp100_side
0 2.000000 20.000000 8.000000 1.000000 0.000000 0.000000 0.375000 -0.125000
0 2.000000 12.000000 10.000000 1.000000 0.000000 0.000000 0.625000 -0.187500
0 2.000000 12.000000 8.000000 1.000000 0.000000 0.000000 0.625000 -0.125000
p0_hp100_side
0 2.000000 12.000000 10.000000 0.000000 -1.000000 0.000000 -0.062500 -0.187500
0 0.000000 12.000000 8.000000 0.000000 -1.000000 0.000000 0.000000 -0.125000
0 2.000000 12.000000 8.000000 0.000000 -1.000000 0.000000 -0.062500 -0.125000
p0_hp100_side
0 20.000000 32.000000 8.000000 -0.000000 0.707107 0.707107 -0.625000 -0.250000
0 12.000000 32.000000 8.000000 -0.000000 0.707107 0.707107 -0.375000 -0.250000
0 12.000000 30.000000 10.000000 -0.000000 0.707107 0.707107 -0.375000 -0.338388
p0_hp100_side
0 20.000000 32.000000 8.000000 -0.000000 0.707107 0.707107 -0.625000 -0.250000
0 12.000000 30.000000 10.000000 -0.000000 0.707107 0.707107 -0.375000 -0.338388
0 20.000000 30.000000 10.000000 -0.000000 0.707107 0.707107 -0.625000 -0.338388
p0_hp100_side
0 12.000000 30.000000 10.000000 -1.000000 -0.000000 0.000000 0.062500 -0.187500
0 12.000000 32.000000 8.000000 -1.000000 -0.000000 0.000000 0.000000 -0.125000
0 12.000000 30.000000 8.000000 -1.000000 -0.000000 0.000000 0.062500 -0.125000
hp_bottom
0 12.000000 30.000000 8.000000 0.000000 0.000000 -1.000000 -0.062500 -0.375000
0 12.000000 32.000000 8.000000 0.000000 0.000000 -1.000000 0.000000 -0.375000
0 20.000000 32.000000 8.000000 0.000000 0.000000 -1.000000 0.000000 -0.625000
hp_bottom
0 12.000000 30.000000 8.000000 0.000000 0.000000 -1.000000 -0.062500 -0.375000
0 20.000000 32.000000 8.000000 0.000000 0.000000 -1.000000 0.000000 -0.625000
0 20.000000 30.000000 8.000000 0.000000 0.000000 -1.000000 -0.062500 -0.625000
p0_hp100_side
0 20.000000 30.000000 8.000000 1.000000 0.000000 0.000000 -0.062500 -0.125000
0 20.000000 32.000000 8.000000 1.000000 0.000000 0.000000 0.000000 -0.125000
0 20.000000 30.000000 10.000000 1.000000 0.000000 0.000000 -0.062500 -0.187500
p0_hp100_side
0 20.000000 30.000000 10.000000 0.000000 -1.000000 0.000000 0.625000 -0.187500
0 12.000000 30.000000 10.000000 0.000000 -1.000000 0.000000 0.375000 -0.187500
0 12.000000 30.000000 8.000000 0.000000 -1.000000 0.000000 0.375000 -0.125000
p0_hp100_side
0 20.000000 30.000000 10.000000 0.000000 -1.000000 0.000000 0.625000 -0.187500
0 12.000000 30.000000 8.000000 0.000000 -1.000000 0.000000 0.375000 -0.125000
0 20.000000 30.000000 8.000000 0.000000 -1.000000 0.000000 0.625000 -0.125000
p0_hp100_side
0 32.000000 20.000000 8.000000 -0.000000 1.000000 0.000000 1.000000 -0.125000
0 30.000000 20.000000 8.000000 -0.000000 1.000000 0.000000 0.937500 -0.125000
0 30.000000 20.000000 10.000000 -0.000000 1.000000 0.000000 0.937500 -0.187500
p0_hp100_side
0 30.000000 20.000000 10.000000 -1.000000 -0.000000 0.000000 -0.375000 -0.187500
0 30.000000 20.000000 8.000000 -1.000000 -0.000000 0.000000 -0.375000 -0.125000
0 30.000000 12.000000 8.000000 -1.000000 -0.000000 0.000000 -0.625000 -0.125000
p0_hp100_side
0 30.000000 20.000000 10.000000 -1.000000 -0.000000 0.000000 -0.375000 -0.187500
0 30.000000 12.000000 8.000000 -1.000000 -0.000000 0.000000 -0.625000 -0.125000
0 30.000000 12.000000 10.000000 -1.000000 -0.000000 0.000000 -0.625000 -0.187500
p0_hp100_side
0 30.000000 12.000000 8.000000 0.000000 0.000000 -1.000000 -0.625000 -0.937500
0 30.000000 20.000000 8.000000 0.000000 0.000000 -1.000000 -0.375000 -0.937500
0 32.000000 20.000000 8.000000 0.000000 0.000000 -1.000000 -0.375000 -1.000000
p0_hp100_side
0 30.000000 12.000000 8.000000 0.000000 0.000000 -1.000000 -0.625000 -0.937500
0 32.000000 20.000000 8.000000 0.000000 0.000000 -1.000000 -0.375000 -1.000000
0 32.000000 12.000000 8.000000 0.000000 0.000000 -1.000000 -0.625000 -1.000000
p0_hp100_side
0 32.000000 20.000000 8.000000 0.707107 0.000000 0.707107 0.375000 0.750000
0 30.000000 20.000000 10.000000 0.707107 0.000000 0.707107 0.375000 0.654143
0 30.000000 12.000000 10.000000 0.707107 0.000000 0.707107 0.625000 0.654143
p0_hp100_side
0 32.000000 20.000000 8.000000 0.707107 0.000000 0.707107 0.375000 0.750000
0 30.000000 12.000000 10.000000 0.707107 0.000000 0.707107 0.625000 0.654143
0 32.000000 12.000000 8.000000 0.707107 0.000000 0.707107 0.625000 0.750000
p0_hp100_side
0 30.000000 12.000000 10.000000 0.000000 -1.000000 0.000000 -0.937500 -0.187500
0 30.000000 12.000000 8.000000 0.000000 -1.000000 0.000000 -0.937500 -0.125000
0 32.000000 12.000000 8.000000 0.000000 -1.000000 0.000000 -1.000000 -0.125000
end
