version 1
nodes
0 "root" -1
end
skeleton
time 0
0 0.000000 0.000000 0.000000 0.000000 0.000000 0.000000
end
triangles
ammo_n_b2
0 32.000000 32.000000 14.000000 -0.000000 1.000000 0.000000 -1.000000 -0.437500
0 32.000000 32.000000 0.000000 -0.000000 1.000000 0.000000 -1.000000 0.000000
0 0.000000 32.000000 0.000000 -0.000000 1.000000 0.000000 0.000000 0.000000
ammo_n_b2
0 32.000000 32.000000 14.000000 -0.000000 1.000000 0.000000 -1.000000 -0.437500
0 0.000000 32.000000 0.000000 -0.000000 1.000000 0.000000 0.000000 0.000000
0 0.000000 32.000000 14.000000 -0.000000 1.000000 0.000000 0.000000 -0.437500
ammo_n_b1
0 0.000000 32.000000 14.000000 -1.000000 -0.000000 0.000000 0.000000 -0.437500
0 0.000000 32.000000 0.000000 -1.000000 -0.000000 0.000000 0.000000 0.000000
0 0.000000 0.000000 0.000000 -1.000000 -0.000000 0.000000 1.000000 0.000000
ammo_n_b1
0 0.000000 32.000000 14.000000 -1.000000 -0.000000 0.000000 0.000000 -0.437500
0 0.000000 0.000000 0.000000 -1.000000 -0.000000 0.000000 1.000000 0.000000
0 0.000000 0.000000 14.000000 -1.000000 -0.000000 0.000000 1.000000 -0.437500
ammo_fl
0 0.000000 0.000000 0.000000 0.000000 0.000000 -1.000000 -0.000000 1.000000
0 0.000000 32.000000 0.000000 0.000000 0.000000 -1.000000 0.000000 0.000000
0 32.000000 32.000000 0.000000 0.000000 0.000000 -1.000000 -1.000000 -0.000000
ammo_fl
0 0.000000 0.000000 0.000000 0.000000 0.000000 -1.000000 -0.000000 1.000000
0 32.000000 32.000000 0.000000 0.000000 0.000000 -1.000000 -1.000000 -0.000000
0 32.000000 0.000000 0.000000 0.000000 0.000000 -1.000000 -1.000000 1.000000
ammo_n_b3
0 32.000000 32.000000 14.000000 0.000000 0.000000 1.000000 -1.000000 0.000000
0 0.000000 32.000000 14.000000 0.000000 0.000000 1.000000 0.000000 0.000000
0 0.000000 0.000000 14.000000 0.000000 0.000000 1.000000 -0.000000 -1.000000
ammo_n_b3
0 32.000000 32.000000 14.000000 0.000000 0.000000 1.000000 -1.000000 0.000000
0 0.000000 0.000000 14.000000 0.000000 0.000000 1.000000 -0.000000 -1.000000
0 32.000000 0.000000 14.000000 0.000000 0.000000 1.000000 -1.000000 -1.000000
ammo_n_b1
0 32.000000 0.000000 14.000000 1.000000 0.000000 0.000000 -1.000000 -0.437500
0 32.000000 0.000000 0.000000 1.000000 0.000000 0.000000 -1.000000 0.000000
0 32.000000 32.000000 0.000000 1.000000 0.000000 0.000000 0.000000 0.000000
ammo_n_b1
0 32.000000 0.000000 14.000000 1.000000 0.000000 0.000000 -1.000000 -0.437500
0 32.000000 32.000000 0.000000 1.000000 0.000000 0.000000 0.000000 0.000000
0 32.000000 32.000000 14.000000 1.000000 0.000000 0.000000 0.000000 -0.437500
ammo_n_b2
0 0.000000 0.000000 14.000000 0.000000 -1.000000 0.000000 0.000000 -0.437500
0 0.000000 0.000000 0.000000 0.000000 -1.000000 0.000000 0.000000 0.000000
0 32.000000 0.000000 0.000000 0.000000 -1.000000 0.000000 -1.000000 0.000000
ammo_n_b2
0 0.000000 0.000000 14.000000 0.000000 -1.000000 0.000000 0.000000 -0.437500
0 32.000000 0.000000 0.000000 0.000000 -1.000000 0.000000 -1.000000 0.000000
0 32.000000 0.000000 14.000000 0.000000 -1.000000 0.000000 -1.000000 -0.437500
ammo_n_b2
0 4.000000 24.000000 14.000000 -0.000000 1.000000 0.000000 -0.125000 -0.437500
0 0.000000 24.000000 14.000000 -0.000000 1.000000 0.000000 0.000000 -0.437500
0 0.000000 24.000000 22.000000 -0.000000 1.000000 0.000000 0.000000 -0.687500
ammo_n_b2
0 4.000000 24.000000 14.000000 -0.000000 1.000000 0.000000 -0.125000 -0.437500
0 0.000000 24.000000 22.000000 -0.000000 1.000000 0.000000 0.000000 -0.687500
0 4.000000 24.000000 22.000000 -0.000000 1.000000 0.000000 -0.125000 -0.687500
ammo_n_b1
0 0.000000 24.000000 22.000000 -1.000000 -0.000000 0.000000 0.250000 -0.687500
0 0.000000 24.000000 14.000000 -1.000000 -0.000000 0.000000 0.250000 -0.437500
0 0.000000 8.000000 14.000000 -1.000000 -0.000000 0.000000 0.750000 -0.437500
ammo_n_b1
0 0.000000 24.000000 22.000000 -1.000000 -0.000000 0.000000 0.250000 -0.687500
0 0.000000 8.000000 14.000000 -1.000000 -0.000000 0.000000 0.750000 -0.437500
0 0.000000 8.000000 22.000000 -1.000000 -0.000000 0.000000 0.750000 -0.687500
ammo_n_b1
0 0.000000 8.000000 14.000000 0.000000 0.000000 -1.000000 -1.250000 0.562500
0 0.000000 24.000000 14.000000 0.000000 0.000000 -1.000000 -0.750000 0.562500
0 4.000000 24.000000 14.000000 0.000000 0.000000 -1.000000 -0.750000 0.437500
ammo_n_b1
0 0.000000 8.000000 14.000000 0.000000 0.000000 -1.000000 -1.250000 0.562500
0 4.000000 24.000000 14.000000 0.000000 0.000000 -1.000000 -0.750000 0.437500
0 4.000000 8.000000 14.000000 0.000000 0.000000 -1.000000 -1.250000 0.437500
ammo_n_b3
0 4.000000 24.000000 22.000000 0.000000 0.000000 1.000000 -0.125000 -0.250000
0 0.000000 24.000000 22.000000 0.000000 0.000000 1.000000 -0.000000 -0.250000
0 0.000000 8.000000 22.000000 0.000000 0.000000 1.000000 -0.000000 -0.750000
ammo_n_b3
0 4.000000 24.000000 22.000000 0.000000 0.000000 1.000000 -0.125000 -0.250000
0 0.000000 8.000000 22.000000 0.000000 0.000000 1.000000 -0.000000 -0.750000
0 4.000000 8.000000 22.000000 0.000000 0.000000 1.000000 -0.125000 -0.750000
ammo_n_s1
0 4.000000 8.000000 14.000000 1.000000 0.000000 0.000000 -1.500000 0.312500
0 4.000000 24.000000 14.000000 1.000000 0.000000 0.000000 -1.000000 0.312500
0 4.000000 24.000000 22.000000 1.000000 0.000000 0.000000 -1.000000 0.062500
ammo_n_s1
0 4.000000 8.000000 14.000000 1.000000 0.000000 0.000000 -1.500000 0.312500
0 4.000000 24.000000 22.000000 1.000000 0.000000 0.000000 -1.000000 0.062500
0 4.000000 8.000000 22.000000 1.000000 0.000000 0.000000 -1.500000 0.062500
ammo_n_b2
0 0.000000 8.000000 22.000000 0.000000 -1.000000 0.000000 0.000000 -0.687500
0 0.000000 8.000000 14.000000 0.000000 -1.000000 0.000000 0.000000 -0.437500
0 4.000000 8.000000 14.000000 0.000000 -1.000000 0.000000 -0.125000 -0.437500
ammo_n_b2
0 0.000000 8.000000 22.000000 0.000000 -1.000000 0.000000 0.000000 -0.687500
0 4.000000 8.000000 14.000000 0.000000 -1.000000 0.000000 -0.125000 -0.437500
0 4.000000 8.000000 22.000000 0.000000 -1.000000 0.000000 -0.125000 -0.687500
ammo_n_b2
0 32.000000 24.000000 14.000000 -0.000000 1.000000 0.000000 -1.000000 -0.437500
0 28.000000 24.000000 14.000000 -0.000000 1.000000 0.000000 -0.875000 -0.437500
0 28.000000 24.000000 22.000000 -0.000000 1.000000 0.000000 -0.875000 -0.687500
ammo_n_b2
0 32.000000 24.000000 14.000000 -0.000000 1.000000 0.000000 -1.000000 -0.437500
0 28.000000 24.000000 22.000000 -0.000000 1.000000 0.000000 -0.875000 -0.687500
0 32.000000 24.000000 22.000000 -0.000000 1.000000 0.000000 -1.000000 -0.687500
ammo_n_b1
0 28.000000 24.000000 22.000000 -1.000000 -0.000000 0.000000 0.750000 0.062500
0 28.000000 24.000000 14.000000 -1.000000 -0.000000 0.000000 0.750000 0.312500
0 28.000000 8.000000 14.000000 -1.000000 -0.000000 0.000000 1.250000 0.312500
ammo_n_b1
0 28.000000 24.000000 22.000000 -1.000000 -0.000000 0.000000 0.750000 0.062500
0 28.000000 8.000000 14.000000 -1.000000 -0.000000 0.000000 1.250000 0.312500
0 28.000000 8.000000 22.000000 -1.000000 -0.000000 0.000000 1.250000 0.062500
ammo_n_b1
0 28.000000 8.000000 14.000000 0.000000 0.000000 -1.000000 -1.250000 -0.875000
0 28.000000 24.000000 14.000000 0.000000 0.000000 -1.000000 -0.750000 -0.875000
0 32.000000 24.000000 14.000000 0.000000 0.000000 -1.000000 -0.750000 -1.000000
ammo_n_b1
0 28.000000 8.000000 14.000000 0.000000 0.000000 -1.000000 -1.250000 -0.875000
0 32.000000 24.000000 14.000000 0.000000 0.000000 -1.000000 -0.750000 -1.000000
0 32.000000 8.000000 14.000000 0.000000 0.000000 -1.000000 -1.250000 -1.000000
ammo_n_b3
0 32.000000 24.000000 22.000000 0.000000 0.000000 1.000000 -1.000000 -0.250000
0 28.000000 24.000000 22.000000 0.000000 0.000000 1.000000 -0.875000 -0.250000
0 28.000000 8.000000 22.000000 0.000000 0.000000 1.000000 -0.875000 -0.750000
ammo_n_b3
0 32.000000 24.000000 22.000000 0.000000 0.000000 1.000000 -1.000000 -0.250000
0 28.000000 8.000000 22.000000 0.000000 0.000000 1.000000 -0.875000 -0.750000
0 32.000000 8.000000 22.000000 0.000000 0.000000 1.000000 -1.000000 -0.750000
ammo_n_b1
0 32.000000 8.000000 14.000000 1.000000 0.000000 0.000000 -0.750000 -0.437500
0 32.000000 24.000000 14.000000 1.000000 0.000000 0.000000 -0.250000 -0.437500
0 32.000000 24.000000 22.000000 1.000000 0.000000 0.000000 -0.250000 -0.687500
ammo_n_b1
0 32.000000 8.000000 14.000000 1.000000 0.000000 0.000000 -0.750000 -0.437500
0 32.000000 24.000000 22.000000 1.000000 0.000000 0.000000 -0.250000 -0.687500
0 32.000000 8.000000 22.000000 1.000000 0.000000 0.000000 -0.750000 -0.687500
ammo_n_b2
0 28.000000 8.000000 22.000000 0.000000 -1.000000 0.000000 -0.875000 -0.687500
0 28.000000 8.000000 14.000000 0.000000 -1.000000 0.000000 -0.875000 -0.437500
0 32.000000 8.000000 14.000000 0.000000 -1.000000 0.000000 -1.000000 -0.437500
ammo_n_b2
0 28.000000 8.000000 22.000000 0.000000 -1.000000 0.000000 -0.875000 -0.687500
0 32.000000 8.000000 14.000000 0.000000 -1.000000 0.000000 -1.000000 -0.437500
0 32.000000 8.000000 22.000000 0.000000 -1.000000 0.000000 -1.000000 -0.687500
ammo_n_b2
0 4.000000 30.000000 14.000000 -0.000000 1.000000 0.000000 -0.125000 -0.437500
0 4.000000 30.000000 18.000000 -0.000000 1.000000 0.000000 -0.125000 -0.562500
0 28.000000 30.000000 18.000000 -0.000000 1.000000 0.000000 -0.875000 -0.562500
ammo_n_b2
0 4.000000 30.000000 14.000000 -0.000000 1.000000 0.000000 -0.125000 -0.437500
0 28.000000 30.000000 18.000000 -0.000000 1.000000 0.000000 -0.875000 -0.562500
0 28.000000 30.000000 14.000000 -0.000000 1.000000 0.000000 -0.875000 -0.437500
ammo_n_b2
0 28.000000 28.000000 22.000000 -0.000000 0.894427 0.447214 -0.875000 -0.687500
0 28.000000 30.000000 18.000000 -0.000000 0.894427 0.447214 -0.875000 -0.562500
0 4.000000 30.000000 18.000000 -0.000000 0.894427 0.447214 -0.125000 -0.562500
ammo_n_b2
0 28.000000 28.000000 22.000000 -0.000000 0.894427 0.447214 -0.875000 -0.687500
0 4.000000 30.000000 18.000000 -0.000000 0.894427 0.447214 -0.125000 -0.562500
0 4.000000 28.000000 22.000000 -0.000000 0.894427 0.447214 -0.125000 -0.687500
ammo_n_b2
0 28.000000 28.000000 22.000000 -0.000000 0.447214 0.894427 -0.875000 0.312500
0 4.000000 28.000000 22.000000 -0.000000 0.447214 0.894427 -0.125000 0.312500
0 4.000000 24.000000 24.000000 -0.000000 0.447214 0.894427 -0.125000 0.437500
ammo_n_b2
0 28.000000 28.000000 22.000000 -0.000000 0.447214 0.894427 -0.875000 0.312500
0 4.000000 24.000000 24.000000 -0.000000 0.447214 0.894427 -0.125000 0.437500
0 28.000000 24.000000 24.000000 -0.000000 0.447214 0.894427 -0.875000 0.437500
ammo_n_b1
0 4.000000 16.000000 22.000000 -1.000000 -0.000000 0.000000 0.500000 -0.687500
0 4.000000 20.000000 24.000000 -1.000000 -0.000000 0.000000 0.375000 -0.750000
0 4.000000 24.000000 24.000000 -1.000000 -0.000000 0.000000 0.250000 -0.750000
ammo_n_b1
0 4.000000 16.000000 22.000000 -1.000000 -0.000000 0.000000 0.500000 -0.687500
0 4.000000 24.000000 24.000000 -1.000000 -0.000000 0.000000 0.250000 -0.750000
0 4.000000 28.000000 22.000000 -1.000000 -0.000000 0.000000 0.125000 -0.687500
ammo_n_b1
0 4.000000 16.000000 22.000000 -1.000000 -0.000000 0.000000 0.500000 -0.687500
0 4.000000 28.000000 22.000000 -1.000000 -0.000000 0.000000 0.125000 -0.687500
0 4.000000 30.000000 18.000000 -1.000000 -0.000000 0.000000 0.062500 -0.562500
ammo_n_b1
0 4.000000 16.000000 22.000000 -1.000000 -0.000000 0.000000 0.500000 -0.687500
0 4.000000 30.000000 18.000000 -1.000000 -0.000000 0.000000 0.062500 -0.562500
0 4.000000 30.000000 14.000000 -1.000000 -0.000000 0.000000 0.062500 -0.437500
ammo_n_b1
0 4.000000 16.000000 22.000000 -1.000000 -0.000000 0.000000 0.500000 -0.687500
0 4.000000 30.000000 14.000000 -1.000000 -0.000000 0.000000 0.062500 -0.437500
0 4.000000 16.000000 14.000000 -1.000000 -0.000000 0.000000 0.500000 -0.437500
ammo_bottom
0 4.000000 16.000000 14.000000 0.000000 0.000000 -1.000000 0.500000 -0.087499
0 4.000000 30.000000 14.000000 0.000000 0.000000 -1.000000 0.062500 -0.087499
0 28.000000 30.000000 14.000000 0.000000 0.000000 -1.000000 0.062500 -0.687499
ammo_bottom
0 4.000000 16.000000 14.000000 0.000000 0.000000 -1.000000 0.500000 -0.087499
0 28.000000 30.000000 14.000000 0.000000 0.000000 -1.000000 0.062500 -0.687499
0 28.000000 16.000000 14.000000 0.000000 0.000000 -1.000000 0.500000 -0.687499
ammo_n_b3
0 28.000000 20.000000 24.000000 0.000000 0.000000 1.000000 -0.875000 -0.375000
0 28.000000 24.000000 24.000000 0.000000 0.000000 1.000000 -0.875000 -0.250000
0 4.000000 24.000000 24.000000 0.000000 0.000000 1.000000 -0.125000 -0.250000
ammo_n_b3
0 28.000000 20.000000 24.000000 0.000000 0.000000 1.000000 -0.875000 -0.375000
0 4.000000 24.000000 24.000000 0.000000 0.000000 1.000000 -0.125000 -0.250000
0 4.000000 20.000000 24.000000 0.000000 0.000000 1.000000 -0.125000 -0.375000
ammo_n_b1
0 28.000000 16.000000 14.000000 1.000000 0.000000 0.000000 -0.500000 -0.437500
0 28.000000 30.000000 14.000000 1.000000 0.000000 0.000000 -0.062500 -0.437500
0 28.000000 30.000000 18.000000 1.000000 0.000000 0.000000 -0.062500 -0.562500
ammo_n_b1
0 28.000000 16.000000 14.000000 1.000000 0.000000 0.000000 -0.500000 -0.437500
0 28.000000 30.000000 18.000000 1.000000 0.000000 0.000000 -0.062500 -0.562500
0 28.000000 28.000000 22.000000 1.000000 0.000000 0.000000 -0.125000 -0.687500
ammo_n_b1
0 28.000000 16.000000 14.000000 1.000000 0.000000 0.000000 -0.500000 -0.437500
0 28.000000 28.000000 22.000000 1.000000 0.000000 0.000000 -0.125000 -0.687500
0 28.000000 24.000000 24.000000 1.000000 0.000000 0.000000 -0.250000 -0.750000
ammo_n_b1
0 28.000000 16.000000 14.000000 1.000000 0.000000 0.000000 -0.500000 -0.437500
0 28.000000 24.000000 24.000000 1.000000 0.000000 0.000000 -0.250000 -0.750000
0 28.000000 20.000000 24.000000 1.000000 0.000000 0.000000 -0.375000 -0.750000
ammo_n_b1
0 28.000000 16.000000 14.000000 1.000000 0.000000 0.000000 -0.500000 -0.437500
0 28.000000 20.000000 24.000000 1.000000 0.000000 0.000000 -0.375000 -0.750000
0 28.000000 16.000000 22.000000 1.000000 0.000000 0.000000 -0.500000 -0.687500
ammo_n_b3
0 28.000000 16.000000 22.000000 0.000000 -0.447214 0.894427 0.125000 -0.500000
0 28.000000 20.000000 24.000000 0.000000 -0.447214 0.894427 0.125000 -0.375000
0 4.000000 20.000000 24.000000 0.000000 -0.447214 0.894427 0.875000 -0.375000
ammo_n_b3
0 28.000000 16.000000 22.000000 0.000000 -0.447214 0.894427 0.125000 -0.500000
0 4.000000 20.000000 24.000000 0.000000 -0.447214 0.894427 0.875000 -0.375000
0 4.000000 16.000000 22.000000 0.000000 -0.447214 0.894427 0.875000 -0.500000
ammo_n_s1
0 28.000000 16.000000 22.000000 0.000000 -1.000000 0.000000 0.187500 0.062500
0 4.000000 16.000000 22.000000 0.000000 -1.000000 0.000000 -0.562500 0.062500
0 4.000000 16.000000 14.000000 0.000000 -1.000000 0.000000 -0.562500 0.312500
ammo_n_s1
0 28.000000 16.000000 22.000000 0.000000 -1.000000 0.000000 0.187500 0.062500
0 4.000000 16.000000 14.000000 0.000000 -1.000000 0.000000 -0.562500 0.312500
0 28.000000 16.000000 14.000000 0.000000 -1.000000 0.000000 0.187500 0.312500
ammo_n_s1
0 4.000000 16.000000 14.000000 -0.000000 1.000000 0.000000 -0.812500 0.312500
0 4.000000 16.000000 22.000000 -0.000000 1.000000 0.000000 -0.812500 0.062500
0 28.000000 16.000000 22.000000 -0.000000 1.000000 0.000000 -1.562500 0.062500
ammo_n_s1
0 4.000000 16.000000 14.000000 -0.000000 1.000000 0.000000 -0.812500 0.312500
0 28.000000 16.000000 22.000000 -0.000000 1.000000 0.000000 -1.562500 0.062500
0 28.000000 16.000000 14.000000 -0.000000 1.000000 0.000000 -1.562500 0.312500
ammo_n_b3
0 28.000000 12.000000 24.000000 -0.000000 0.447214 0.894427 -0.875000 -0.625000
0 28.000000 16.000000 22.000000 -0.000000 0.447214 0.894427 -0.875000 -0.500000
0 4.000000 16.000000 22.000000 -0.000000 0.447214 0.894427 -0.125000 -0.500000
ammo_n_b3
0 28.000000 12.000000 24.000000 -0.000000 0.447214 0.894427 -0.875000 -0.625000
0 4.000000 16.000000 22.000000 -0.000000 0.447214 0.894427 -0.125000 -0.500000
0 4.000000 12.000000 24.000000 -0.000000 0.447214 0.894427 -0.125000 -0.625000
ammo_n_b1
0 4.000000 2.000000 18.000000 -1.000000 -0.000000 0.000000 0.937500 -0.562500
0 4.000000 4.000000 22.000000 -1.000000 -0.000000 0.000000 0.875000 -0.687500
0 4.000000 8.000000 24.000000 -1.000000 -0.000000 0.000000 0.750000 -0.750000
ammo_n_b1
0 4.000000 2.000000 18.000000 -1.000000 -0.000000 0.000000 0.937500 -0.562500
0 4.000000 8.000000 24.000000 -1.000000 -0.000000 0.000000 0.750000 -0.750000
0 4.000000 12.000000 24.000000 -1.000000 -0.000000 0.000000 0.625000 -0.750000
ammo_n_b1
0 4.000000 2.000000 18.000000 -1.000000 -0.000000 0.000000 0.937500 -0.562500
0 4.000000 12.000000 24.000000 -1.000000 -0.000000 0.000000 0.625000 -0.750000
0 4.000000 16.000000 22.000000 -1.000000 -0.000000 0.000000 0.500000 -0.687500
ammo_n_b1
0 4.000000 2.000000 18.000000 -1.000000 -0.000000 0.000000 0.937500 -0.562500
0 4.000000 16.000000 22.000000 -1.000000 -0.000000 0.000000 0.500000 -0.687500
0 4.000000 16.000000 14.000000 -1.000000 -0.000000 0.000000 0.500000 -0.437500
ammo_n_b1
0 4.000000 2.000000 18.000000 -1.000000 -0.000000 0.000000 0.937500 -0.562500
0 4.000000 16.000000 14.000000 -1.000000 -0.000000 0.000000 0.500000 -0.437500
0 4.000000 2.000000 14.000000 -1.000000 -0.000000 0.000000 0.937500 -0.437500
ammo_bottom
0 4.000000 2.000000 14.000000 0.000000 0.000000 -1.000000 0.937500 -0.087499
0 4.000000 16.000000 14.000000 0.000000 0.000000 -1.000000 0.500000 -0.087499
0 28.000000 16.000000 14.000000 0.000000 0.000000 -1.000000 0.500000 -0.687499
ammo_bottom
0 4.000000 2.000000 14.000000 0.000000 0.000000 -1.000000 0.937500 -0.087499
0 28.000000 16.000000 14.000000 0.000000 0.000000 -1.000000 0.500000 -0.687499
0 28.000000 2.000000 14.000000 0.000000 0.000000 -1.000000 0.937500 -0.687499
ammo_n_b3
0 28.000000 8.000000 24.000000 0.000000 0.000000 1.000000 -0.875000 -0.750000
0 28.000000 12.000000 24.000000 0.000000 0.000000 1.000000 -0.875000 -0.625000
0 4.000000 12.000000 24.000000 0.000000 0.000000 1.000000 -0.125000 -0.625000
ammo_n_b3
0 28.000000 8.000000 24.000000 0.000000 0.000000 1.000000 -0.875000 -0.750000
0 4.000000 12.000000 24.000000 0.000000 0.000000 1.000000 -0.125000 -0.625000
0 4.000000 8.000000 24.000000 0.000000 0.000000 1.000000 -0.125000 -0.750000
ammo_n_b1
0 28.000000 2.000000 14.000000 1.000000 0.000000 0.000000 -0.937500 -0.437500
0 28.000000 16.000000 14.000000 1.000000 0.000000 0.000000 -0.500000 -0.437500
0 28.000000 16.000000 22.000000 1.000000 0.000000 0.000000 -0.500000 -0.687500
ammo_n_b1
0 28.000000 2.000000 14.000000 1.000000 0.000000 0.000000 -0.937500 -0.437500
0 28.000000 16.000000 22.000000 1.000000 0.000000 0.000000 -0.500000 -0.687500
0 28.000000 12.000000 24.000000 1.000000 0.000000 0.000000 -0.625000 -0.750000
ammo_n_b1
0 28.000000 2.000000 14.000000 1.000000 0.000000 0.000000 -0.937500 -0.437500
0 28.000000 12.000000 24.000000 1.000000 0.000000 0.000000 -0.625000 -0.750000
0 28.000000 8.000000 24.000000 1.000000 0.000000 0.000000 -0.750000 -0.750000
ammo_n_b1
0 28.000000 2.000000 14.000000 1.000000 0.000000 0.000000 -0.937500 -0.437500
0 28.000000 8.000000 24.000000 1.000000 0.000000 0.000000 -0.750000 -0.750000
0 28.000000 4.000000 22.000000 1.000000 0.000000 0.000000 -0.875000 -0.687500
ammo_n_b1
0 28.000000 2.000000 14.000000 1.000000 0.000000 0.000000 -0.937500 -0.437500
0 28.000000 4.000000 22.000000 1.000000 0.000000 0.000000 -0.875000 -0.687500
0 28.000000 2.000000 18.000000 1.000000 0.000000 0.000000 -0.937500 -0.562500
ammo_n_b2
0 28.000000 4.000000 22.000000 0.000000 -0.447214 0.894427 -0.875000 1.312500
0 28.000000 8.000000 24.000000 0.000000 -0.447214 0.894427 -0.875000 1.187500
0 4.000000 8.000000 24.000000 0.000000 -0.447214 0.894427 -0.125000 1.187500
ammo_n_b2
0 28.000000 4.000000 22.000000 0.000000 -0.447214 0.894427 -0.875000 1.312500
0 4.000000 8.000000 24.000000 0.000000 -0.447214 0.894427 -0.125000 1.187500
0 4.000000 4.000000 22.000000 0.000000 -0.447214 0.894427 -0.125000 1.312500
ammo_n_b2
0 28.000000 4.000000 22.000000 0.000000 -0.894427 0.447214 -0.875000 -0.687500
0 4.000000 4.000000 22.000000 0.000000 -0.894427 0.447214 -0.125000 -0.687500
0 4.000000 2.000000 18.000000 0.000000 -0.894427 0.447214 -0.125000 -0.562500
ammo_n_b2
0 28.000000 4.000000 22.000000 0.000000 -0.894427 0.447214 -0.875000 -0.687500
0 4.000000 2.000000 18.000000 0.000000 -0.894427 0.447214 -0.125000 -0.562500
0 28.000000 2.000000 18.000000 0.000000 -0.894427 0.447214 -0.875000 -0.562500
ammo_n_b2
0 4.000000 2.000000 18.000000 0.000000 -1.000000 0.000000 -0.125000 -0.562500
0 4.000000 2.000000 14.000000 0.000000 -1.000000 0.000000 -0.125000 -0.437500
0 28.000000 2.000000 14.000000 0.000000 -1.000000 0.000000 -0.875000 -0.437500
ammo_n_b2
0 4.000000 2.000000 18.000000 0.000000 -1.000000 0.000000 -0.125000 -0.562500
0 28.000000 2.000000 14.000000 0.000000 -1.000000 0.000000 -0.875000 -0.437500
0 28.000000 2.000000 18.000000 0.000000 -1.000000 0.000000 -0.875000 -0.562500
end
