version 1
nodes
0 "root" -1
end
skeleton
time 0
0 0.000000 0.000000 0.000000 0.000000 0.000000 0.000000
end
triangles
ammo_r_s1
0 2.000000 16.000000 24.000000 -0.000000 1.000000 0.000000 -0.562500 -0.750000
0 0.000000 16.000000 24.000000 -0.000000 1.000000 0.000000 -0.500000 -0.750000
0 0.000000 16.000000 32.000000 -0.000000 1.000000 0.000000 -0.500000 -1.000000
ammo_r_s1
0 2.000000 16.000000 24.000000 -0.000000 1.000000 0.000000 -0.562500 -0.750000
0 0.000000 16.000000 32.000000 -0.000000 1.000000 0.000000 -0.500000 -1.000000
0 2.000000 16.000000 32.000000 -0.000000 1.000000 0.000000 -0.562500 -1.000000
ammo_r_s1
0 0.000000 16.000000 32.000000 -1.000000 -0.000000 0.000000 0.000000 -1.000000
0 0.000000 16.000000 24.000000 -1.000000 -0.000000 0.000000 0.000000 -0.750000
0 0.000000 14.000000 24.000000 -1.000000 -0.000000 0.000000 0.062500 -0.750000
ammo_r_s1
0 0.000000 16.000000 32.000000 -1.000000 -0.000000 0.000000 0.000000 -1.000000
0 0.000000 14.000000 24.000000 -1.000000 -0.000000 0.000000 0.062500 -0.750000
0 0.000000 14.000000 32.000000 -1.000000 -0.000000 0.000000 0.062500 -1.000000
ammo_bottom
0 0.000000 14.000000 24.000000 0.000000 0.000000 -1.000000 -0.062500 0.000000
0 0.000000 16.000000 24.000000 0.000000 0.000000 -1.000000 0.000000 0.000000
0 2.000000 16.000000 24.000000 0.000000 0.000000 -1.000000 0.000000 -0.062500
ammo_bottom
0 0.000000 14.000000 24.000000 0.000000 0.000000 -1.000000 -0.062500 0.000000
0 2.000000 16.000000 24.000000 0.000000 0.000000 -1.000000 0.000000 -0.062500
0 2.000000 14.000000 24.000000 0.000000 0.000000 -1.000000 -0.062500 -0.062500
ammo_r_s2
0 2.000000 16.000000 32.000000 0.000000 0.000000 1.000000 0.000000 -0.062500
0 0.000000 16.000000 32.000000 0.000000 0.000000 1.000000 0.000000 0.000000
0 0.000000 14.000000 32.000000 0.000000 0.000000 1.000000 0.062500 0.000000
ammo_r_s2
0 2.000000 16.000000 32.000000 0.000000 0.000000 1.000000 0.000000 -0.062500
0 0.000000 14.000000 32.000000 0.000000 0.000000 1.000000 0.062500 0.000000
0 2.000000 14.000000 32.000000 0.000000 0.000000 1.000000 0.062500 -0.062500
ammo_r_s1
0 2.000000 14.000000 24.000000 1.000000 0.000000 0.000000 0.437500 -0.750000
0 2.000000 16.000000 24.000000 1.000000 0.000000 0.000000 0.500000 -0.750000
0 2.000000 16.000000 32.000000 1.000000 0.000000 0.000000 0.500000 -1.000000
ammo_r_s1
0 2.000000 14.000000 24.000000 1.000000 0.000000 0.000000 0.437500 -0.750000
0 2.000000 16.000000 32.000000 1.000000 0.000000 0.000000 0.500000 -1.000000
0 2.000000 14.000000 32.000000 1.000000 0.000000 0.000000 0.437500 -1.000000
ammo_r_s1
0 0.000000 14.000000 32.000000 0.000000 -1.000000 0.000000 0.000000 -1.000000
0 0.000000 14.000000 24.000000 0.000000 -1.000000 0.000000 0.000000 -0.750000
0 2.000000 14.000000 24.000000 0.000000 -1.000000 0.000000 0.062500 -0.750000
ammo_r_s1
0 0.000000 14.000000 32.000000 0.000000 -1.000000 0.000000 0.000000 -1.000000
0 2.000000 14.000000 24.000000 0.000000 -1.000000 0.000000 0.062500 -0.750000
0 2.000000 14.000000 32.000000 0.000000 -1.000000 0.000000 0.062500 -1.000000
ammo_r_s1
0 16.000000 2.000000 24.000000 -0.000000 1.000000 0.000000 -1.000000 -0.750000
0 14.000000 2.000000 24.000000 -0.000000 1.000000 0.000000 -0.937500 -0.750000
0 14.000000 2.000000 32.000000 -0.000000 1.000000 0.000000 -0.937500 -1.000000
ammo_r_s1
0 16.000000 2.000000 24.000000 -0.000000 1.000000 0.000000 -1.000000 -0.750000
0 14.000000 2.000000 32.000000 -0.000000 1.000000 0.000000 -0.937500 -1.000000
0 16.000000 2.000000 32.000000 -0.000000 1.000000 0.000000 -1.000000 -1.000000
ammo_r_s1
0 14.000000 2.000000 32.000000 -1.000000 -0.000000 0.000000 0.437500 -1.000000
0 14.000000 2.000000 24.000000 -1.000000 -0.000000 0.000000 0.437500 -0.750000
0 14.000000 0.000000 24.000000 -1.000000 -0.000000 0.000000 0.500000 -0.750000
ammo_r_s1
0 14.000000 2.000000 32.000000 -1.000000 -0.000000 0.000000 0.437500 -1.000000
0 14.000000 0.000000 24.000000 -1.000000 -0.000000 0.000000 0.500000 -0.750000
0 14.000000 0.000000 32.000000 -1.000000 -0.000000 0.000000 0.500000 -1.000000
ammo_bottom
0 14.000000 0.000000 24.000000 0.000000 0.000000 -1.000000 -0.500000 -0.437500
0 14.000000 2.000000 24.000000 0.000000 0.000000 -1.000000 -0.437500 -0.437500
0 16.000000 2.000000 24.000000 0.000000 0.000000 -1.000000 -0.437500 -0.500000
ammo_bottom
0 14.000000 0.000000 24.000000 0.000000 0.000000 -1.000000 -0.500000 -0.437500
0 16.000000 2.000000 24.000000 0.000000 0.000000 -1.000000 -0.437500 -0.500000
0 16.000000 0.000000 24.000000 0.000000 0.000000 -1.000000 -0.500000 -0.500000
ammo_r_s2
0 16.000000 2.000000 32.000000 0.000000 0.000000 1.000000 0.437500 -0.500000
0 14.000000 2.000000 32.000000 0.000000 0.000000 1.000000 0.437500 -0.437500
0 14.000000 0.000000 32.000000 0.000000 0.000000 1.000000 0.500000 -0.437500
ammo_r_s2
0 16.000000 2.000000 32.000000 0.000000 0.000000 1.000000 0.437500 -0.500000
0 14.000000 0.000000 32.000000 0.000000 0.000000 1.000000 0.500000 -0.437500
0 16.000000 0.000000 32.000000 0.000000 0.000000 1.000000 0.500000 -0.500000
ammo_r_s1
0 16.000000 0.000000 24.000000 1.000000 0.000000 0.000000 0.000000 -0.750000
0 16.000000 2.000000 24.000000 1.000000 0.000000 0.000000 0.062500 -0.750000
0 16.000000 2.000000 32.000000 1.000000 0.000000 0.000000 0.062500 -1.000000
ammo_r_s1
0 16.000000 0.000000 24.000000 1.000000 0.000000 0.000000 0.000000 -0.750000
0 16.000000 2.000000 32.000000 1.000000 0.000000 0.000000 0.062500 -1.000000
0 16.000000 0.000000 32.000000 1.000000 0.000000 0.000000 0.000000 -1.000000
ammo_r_s1
0 14.000000 0.000000 32.000000 0.000000 -1.000000 0.000000 0.437500 -1.000000
0 14.000000 0.000000 24.000000 0.000000 -1.000000 0.000000 0.437500 -0.750000
0 16.000000 0.000000 24.000000 0.000000 -1.000000 0.000000 0.500000 -0.750000
ammo_r_s1
0 14.000000 0.000000 32.000000 0.000000 -1.000000 0.000000 0.437500 -1.000000
0 16.000000 0.000000 24.000000 0.000000 -1.000000 0.000000 0.500000 -0.750000
0 16.000000 0.000000 32.000000 0.000000 -1.000000 0.000000 0.500000 -1.000000
ammo_r_s1
0 2.000000 2.000000 24.000000 -0.000000 1.000000 0.000000 -0.562500 -0.750000
0 0.000000 2.000000 24.000000 -0.000000 1.000000 0.000000 -0.500000 -0.750000
0 0.000000 2.000000 32.000000 -0.000000 1.000000 0.000000 -0.500000 -1.000000
ammo_r_s1
0 2.000000 2.000000 24.000000 -0.000000 1.000000 0.000000 -0.562500 -0.750000
0 0.000000 2.000000 32.000000 -0.000000 1.000000 0.000000 -0.500000 -1.000000
0 2.000000 2.000000 32.000000 -0.000000 1.000000 0.000000 -0.562500 -1.000000
ammo_r_s1
0 0.000000 2.000000 32.000000 -1.000000 -0.000000 0.000000 0.437500 -1.000000
0 0.000000 2.000000 24.000000 -1.000000 -0.000000 0.000000 0.437500 -0.750000
0 0.000000 0.000000 24.000000 -1.000000 -0.000000 0.000000 0.500000 -0.750000
ammo_r_s1
0 0.000000 2.000000 32.000000 -1.000000 -0.000000 0.000000 0.437500 -1.000000
0 0.000000 0.000000 24.000000 -1.000000 -0.000000 0.000000 0.500000 -0.750000
0 0.000000 0.000000 32.000000 -1.000000 -0.000000 0.000000 0.500000 -1.000000
ammo_bottom
0 0.000000 0.000000 24.000000 0.000000 0.000000 -1.000000 -0.500000 0.000000
0 0.000000 2.000000 24.000000 0.000000 0.000000 -1.000000 -0.437500 0.000000
0 2.000000 2.000000 24.000000 0.000000 0.000000 -1.000000 -0.437500 -0.062500
ammo_bottom
0 0.000000 0.000000 24.000000 0.000000 0.000000 -1.000000 -0.500000 0.000000
0 2.000000 2.000000 24.000000 0.000000 0.000000 -1.000000 -0.437500 -0.062500
0 2.000000 0.000000 24.000000 0.000000 0.000000 -1.000000 -0.500000 -0.062500
ammo_r_s2
0 2.000000 2.000000 32.000000 0.000000 0.000000 1.000000 0.437500 -0.062500
0 0.000000 2.000000 32.000000 0.000000 0.000000 1.000000 0.437500 0.000000
0 0.000000 0.000000 32.000000 0.000000 0.000000 1.000000 0.500000 0.000000
ammo_r_s2
0 2.000000 2.000000 32.000000 0.000000 0.000000 1.000000 0.437500 -0.062500
0 0.000000 0.000000 32.000000 0.000000 0.000000 1.000000 0.500000 0.000000
0 2.000000 0.000000 32.000000 0.000000 0.000000 1.000000 0.500000 -0.062500
ammo_r_s1
0 2.000000 0.000000 24.000000 1.000000 0.000000 0.000000 0.000000 -0.750000
0 2.000000 2.000000 24.000000 1.000000 0.000000 0.000000 0.062500 -0.750000
0 2.000000 2.000000 32.000000 1.000000 0.000000 0.000000 0.062500 -1.000000
ammo_r_s1
0 2.000000 0.000000 24.000000 1.000000 0.000000 0.000000 0.000000 -0.750000
0 2.000000 2.000000 32.000000 1.000000 0.000000 0.000000 0.062500 -1.000000
0 2.000000 0.000000 32.000000 1.000000 0.000000 0.000000 0.000000 -1.000000
ammo_r_s1
0 0.000000 0.000000 32.000000 0.000000 -1.000000 0.000000 0.000000 -1.000000
0 0.000000 0.000000 24.000000 0.000000 -1.000000 0.000000 0.000000 -0.750000
0 2.000000 0.000000 24.000000 0.000000 -1.000000 0.000000 0.062500 -0.750000
ammo_r_s1
0 0.000000 0.000000 32.000000 0.000000 -1.000000 0.000000 0.000000 -1.000000
0 2.000000 0.000000 24.000000 0.000000 -1.000000 0.000000 0.062500 -0.750000
0 2.000000 0.000000 32.000000 0.000000 -1.000000 0.000000 0.062500 -1.000000
ammo_r_s1
0 16.000000 16.000000 0.000000 -0.000000 1.000000 0.000000 -1.000000 0.000000
0 0.000000 16.000000 0.000000 -0.000000 1.000000 0.000000 -0.500000 0.000000
0 0.000000 16.000000 24.000000 -0.000000 1.000000 0.000000 -0.500000 -0.750000
ammo_r_s1
0 16.000000 16.000000 0.000000 -0.000000 1.000000 0.000000 -1.000000 0.000000
0 0.000000 16.000000 24.000000 -0.000000 1.000000 0.000000 -0.500000 -0.750000
0 16.000000 16.000000 24.000000 -0.000000 1.000000 0.000000 -1.000000 -0.750000
ammo_r_s1
0 0.000000 16.000000 24.000000 -1.000000 -0.000000 0.000000 0.000000 -0.750000
0 0.000000 16.000000 0.000000 -1.000000 -0.000000 0.000000 0.000000 0.000000
0 0.000000 0.000000 0.000000 -1.000000 -0.000000 0.000000 0.500000 0.000000
ammo_r_s1
0 0.000000 16.000000 24.000000 -1.000000 -0.000000 0.000000 0.000000 -0.750000
0 0.000000 0.000000 0.000000 -1.000000 -0.000000 0.000000 0.500000 0.000000
0 0.000000 0.000000 24.000000 -1.000000 -0.000000 0.000000 0.500000 -0.750000
ammo_fl2
0 0.000000 0.000000 0.000000 0.000000 0.000000 -1.000000 0.500000 0.000000
0 0.000000 16.000000 0.000000 0.000000 0.000000 -1.000000 0.000000 0.000000
0 16.000000 16.000000 0.000000 0.000000 0.000000 -1.000000 0.000000 -0.500000
ammo_fl2
0 0.000000 0.000000 0.000000 0.000000 0.000000 -1.000000 0.500000 0.000000
0 16.000000 16.000000 0.000000 0.000000 0.000000 -1.000000 0.000000 -0.500000
0 16.000000 0.000000 0.000000 0.000000 0.000000 -1.000000 0.500000 -0.500000
ammo_r_s2
0 16.000000 16.000000 24.000000 0.000000 0.000000 1.000000 0.000000 -0.500000
0 0.000000 16.000000 24.000000 0.000000 0.000000 1.000000 0.000000 0.000000
0 0.000000 0.000000 24.000000 0.000000 0.000000 1.000000 0.500000 0.000000
ammo_r_s2
0 16.000000 16.000000 24.000000 0.000000 0.000000 1.000000 0.000000 -0.500000
0 0.000000 0.000000 24.000000 0.000000 0.000000 1.000000 0.500000 0.000000
0 16.000000 0.000000 24.000000 0.000000 0.000000 1.000000 0.500000 -0.500000
ammo_r_s1
0 16.000000 0.000000 0.000000 1.000000 0.000000 0.000000 0.000000 0.000000
0 16.000000 16.000000 0.000000 1.000000 0.000000 0.000000 0.500000 0.000000
0 16.000000 16.000000 24.000000 1.000000 0.000000 0.000000 0.500000 -0.750000
ammo_r_s1
0 16.000000 0.000000 0.000000 1.000000 0.000000 0.000000 0.000000 0.000000
0 16.000000 16.000000 24.000000 1.000000 0.000000 0.000000 0.500000 -0.750000
0 16.000000 0.000000 24.000000 1.000000 0.000000 0.000000 0.000000 -0.750000
ammo_r_s1
0 0.000000 0.000000 24.000000 0.000000 -1.000000 0.000000 0.000000 -0.750000
0 0.000000 0.000000 0.000000 0.000000 -1.000000 0.000000 0.000000 0.000000
0 16.000000 0.000000 0.000000 0.000000 -1.000000 0.000000 0.500000 0.000000
ammo_r_s1
0 0.000000 0.000000 24.000000 0.000000 -1.000000 0.000000 0.000000 -0.750000
0 16.000000 0.000000 0.000000 0.000000 -1.000000 0.000000 0.500000 0.000000
0 16.000000 0.000000 24.000000 0.000000 -1.000000 0.000000 0.500000 -0.750000
ammo_r_s1
0 16.000000 16.000000 24.000000 -0.000000 1.000000 0.000000 -1.000000 -0.750000
0 14.000000 16.000000 24.000000 -0.000000 1.000000 0.000000 -0.937500 -0.750000
0 14.000000 16.000000 32.000000 -0.000000 1.000000 0.000000 -0.937500 -1.000000
ammo_r_s1
0 16.000000 16.000000 24.000000 -0.000000 1.000000 0.000000 -1.000000 -0.750000
0 14.000000 16.000000 32.000000 -0.000000 1.000000 0.000000 -0.937500 -1.000000
0 16.000000 16.000000 32.000000 -0.000000 1.000000 0.000000 -1.000000 -1.000000
ammo_r_s1
0 14.000000 16.000000 32.000000 -1.000000 -0.000000 0.000000 0.000000 -1.000000
0 14.000000 16.000000 24.000000 -1.000000 -0.000000 0.000000 0.000000 -0.750000
0 14.000000 14.000000 24.000000 -1.000000 -0.000000 0.000000 0.062500 -0.750000
ammo_r_s1
0 14.000000 16.000000 32.000000 -1.000000 -0.000000 0.000000 0.000000 -1.000000
0 14.000000 14.000000 24.000000 -1.000000 -0.000000 0.000000 0.062500 -0.750000
0 14.000000 14.000000 32.000000 -1.000000 -0.000000 0.000000 0.062500 -1.000000
ammo_bottom
0 14.000000 14.000000 24.000000 0.000000 0.000000 -1.000000 -0.062500 -0.437500
0 14.000000 16.000000 24.000000 0.000000 0.000000 -1.000000 0.000000 -0.437500
0 16.000000 16.000000 24.000000 0.000000 0.000000 -1.000000 0.000000 -0.500000
ammo_bottom
0 14.000000 14.000000 24.000000 0.000000 0.000000 -1.000000 -0.062500 -0.437500
0 16.000000 16.000000 24.000000 0.000000 0.000000 -1.000000 0.000000 -0.500000
0 16.000000 14.000000 24.000000 0.000000 0.000000 -1.000000 -0.062500 -0.500000
ammo_r_s2
0 16.000000 16.000000 32.000000 0.000000 0.000000 1.000000 0.000000 -0.500000
0 14.000000 16.000000 32.000000 0.000000 0.000000 1.000000 0.000000 -0.437500
0 14.000000 14.000000 32.000000 0.000000 0.000000 1.000000 0.062500 -0.437500
ammo_r_s2
0 16.000000 16.000000 32.000000 0.000000 0.000000 1.000000 0.000000 -0.500000
0 14.000000 14.000000 32.000000 0.000000 0.000000 1.000000 0.062500 -0.437500
0 16.000000 14.000000 32.000000 0.000000 0.000000 1.000000 0.062500 -0.500000
ammo_r_s1
0 16.000000 14.000000 24.000000 1.000000 0.000000 0.000000 0.437500 -0.750000
0 16.000000 16.000000 24.000000 1.000000 0.000000 0.000000 0.500000 -0.750000
0 16.000000 16.000000 32.000000 1.000000 0.000000 0.000000 0.500000 -1.000000
ammo_r_s1
0 16.000000 14.000000 24.000000 1.000000 0.000000 0.000000 0.437500 -0.750000
0 16.000000 16.000000 32.000000 1.000000 0.000000 0.000000 0.500000 -1.000000
0 16.000000 14.000000 32.000000 1.000000 0.000000 0.000000 0.437500 -1.000000
ammo_r_s1
0 14.000000 14.000000 32.000000 0.000000 -1.000000 0.000000 0.437500 -1.000000
0 14.000000 14.000000 24.000000 0.000000 -1.000000 0.000000 0.437500 -0.750000
0 16.000000 14.000000 24.000000 0.000000 -1.000000 0.000000 0.500000 -0.750000
ammo_r_s1
0 14.000000 14.000000 32.000000 0.000000 -1.000000 0.000000 0.437500 -1.000000
0 16.000000 14.000000 24.000000 0.000000 -1.000000 0.000000 0.500000 -0.750000
0 16.000000 14.000000 32.000000 0.000000 -1.000000 0.000000 0.500000 -1.000000
ammo_r_s1
0 7.000000 12.000000 24.000000 -0.000000 1.000000 0.000000 -0.718750 -0.750000
0 7.000000 12.000000 26.000000 -0.000000 1.000000 0.000000 -0.718750 -0.812500
0 9.000000 12.000000 26.000000 -0.000000 1.000000 0.000000 -0.781250 -0.812500
ammo_r_s1
0 7.000000 12.000000 24.000000 -0.000000 1.000000 0.000000 -0.718750 -0.750000
0 9.000000 12.000000 26.000000 -0.000000 1.000000 0.000000 -0.781250 -0.812500
0 9.000000 12.000000 24.000000 -0.000000 1.000000 0.000000 -0.781250 -0.750000
ammo_r_s1
0 9.000000 11.000000 28.000000 -0.000000 0.894427 0.447214 -0.781250 -0.875000
0 9.000000 12.000000 26.000000 -0.000000 0.894427 0.447214 -0.781250 -0.812500
0 7.000000 12.000000 26.000000 -0.000000 0.894427 0.447214 -0.718750 -0.812500
ammo_r_s1
0 9.000000 11.000000 28.000000 -0.000000 0.894427 0.447214 -0.781250 -0.875000
0 7.000000 12.000000 26.000000 -0.000000 0.894427 0.447214 -0.718750 -0.812500
0 7.000000 11.000000 28.000000 -0.000000 0.894427 0.447214 -0.718750 -0.875000
ammo_r_s1
0 4.000000 9.000000 26.000000 -0.707107 0.707107 0.000000 -0.625000 -0.812500
0 7.000000 12.000000 26.000000 -0.707107 0.707107 0.000000 -0.718750 -0.812500
0 7.000000 12.000000 24.000000 -0.707107 0.707107 0.000000 -0.718750 -0.750000
ammo_r_s1
0 4.000000 9.000000 26.000000 -0.707107 0.707107 0.000000 -0.625000 -0.812500
0 7.000000 12.000000 24.000000 -0.707107 0.707107 0.000000 -0.718750 -0.750000
0 4.000000 9.000000 24.000000 -0.707107 0.707107 0.000000 -0.625000 -0.750000
ammo_r_s1
0 12.000000 9.000000 24.000000 0.707107 0.707107 0.000000 -0.875000 -0.750000
0 9.000000 12.000000 24.000000 0.707107 0.707107 0.000000 -0.781250 -0.750000
0 9.000000 12.000000 26.000000 0.707107 0.707107 0.000000 -0.781250 -0.812500
ammo_r_s1
0 12.000000 9.000000 24.000000 0.707107 0.707107 0.000000 -0.875000 -0.750000
0 9.000000 12.000000 26.000000 0.707107 0.707107 0.000000 -0.781250 -0.812500
0 12.000000 9.000000 26.000000 0.707107 0.707107 0.000000 -0.875000 -0.812500
ammo_r_s1
0 5.000000 9.000000 28.000000 -0.666667 0.666667 0.333333 -0.656250 -0.875000
0 7.000000 11.000000 28.000000 -0.666667 0.666667 0.333333 -0.718750 -0.875000
0 7.000000 12.000000 26.000000 -0.666667 0.666667 0.333333 -0.718750 -0.812500
ammo_r_s1
0 5.000000 9.000000 28.000000 -0.666667 0.666667 0.333333 -0.656250 -0.875000
0 7.000000 12.000000 26.000000 -0.666667 0.666667 0.333333 -0.718750 -0.812500
0 4.000000 9.000000 26.000000 -0.666667 0.666667 0.333333 -0.625000 -0.812500
ammo_r_s1
0 12.000000 9.000000 26.000000 0.666667 0.666667 0.333333 -0.875000 -0.812500
0 9.000000 12.000000 26.000000 0.666667 0.666667 0.333333 -0.781250 -0.812500
0 9.000000 11.000000 28.000000 0.666667 0.666667 0.333333 -0.781250 -0.875000
ammo_r_s1
0 12.000000 9.000000 26.000000 0.666667 0.666667 0.333333 -0.875000 -0.812500
0 9.000000 11.000000 28.000000 0.666667 0.666667 0.333333 -0.781250 -0.875000
0 11.000000 9.000000 28.000000 0.666667 0.666667 0.333333 -0.843750 -0.875000
ammo_r_s1
0 9.000000 11.000000 28.000000 -0.000000 0.554700 0.832050 -0.781250 0.156250
0 7.000000 11.000000 28.000000 -0.000000 0.554700 0.832050 -0.718750 0.156250
0 8.000000 8.000000 30.000000 -0.000000 0.554700 0.832050 -0.750000 0.062500
ammo_r_s1
0 8.000000 8.000000 30.000000 -0.408248 0.408248 0.816497 -0.750000 0.062500
0 7.000000 11.000000 28.000000 -0.408248 0.408248 0.816497 -0.718750 0.156250
0 5.000000 9.000000 28.000000 -0.408248 0.408248 0.816497 -0.656250 0.093750
ammo_r_s1
0 11.000000 9.000000 28.000000 0.408248 0.408248 0.816497 -0.843750 0.093750
0 9.000000 11.000000 28.000000 0.408248 0.408248 0.816497 -0.781250 0.156250
0 8.000000 8.000000 30.000000 0.408248 0.408248 0.816497 -0.750000 0.062500
ammo_r_s1
0 4.000000 7.000000 24.000000 -1.000000 -0.000000 0.000000 -0.625000 -0.750000
0 4.000000 7.000000 26.000000 -1.000000 -0.000000 0.000000 -0.625000 -0.812500
0 4.000000 9.000000 26.000000 -1.000000 -0.000000 0.000000 -0.687500 -0.812500
ammo_r_s1
0 4.000000 7.000000 24.000000 -1.000000 -0.000000 0.000000 -0.625000 -0.750000
0 4.000000 9.000000 26.000000 -1.000000 -0.000000 0.000000 -0.687500 -0.812500
0 4.000000 9.000000 24.000000 -1.000000 -0.000000 0.000000 -0.687500 -0.750000
ammo_r_s1
0 5.000000 7.000000 28.000000 -0.894427 -0.000000 0.447214 0.281250 0.125000
0 5.000000 9.000000 28.000000 -0.894427 -0.000000 0.447214 0.218750 0.125000
0 4.000000 9.000000 26.000000 -0.894427 -0.000000 0.447214 0.218750 0.187500
ammo_r_s1
0 5.000000 7.000000 28.000000 -0.894427 -0.000000 0.447214 0.281250 0.125000
0 4.000000 9.000000 26.000000 -0.894427 -0.000000 0.447214 0.218750 0.187500
0 4.000000 7.000000 26.000000 -0.894427 -0.000000 0.447214 0.281250 0.187500
ammo_r_s1
0 8.000000 8.000000 30.000000 -0.554700 -0.000000 0.832050 0.250000 0.062500
0 5.000000 9.000000 28.000000 -0.554700 -0.000000 0.832050 0.156250 0.031250
0 5.000000 7.000000 28.000000 -0.554700 -0.000000 0.832050 0.156250 0.093750
ammo_fl
0 7.000000 4.000000 24.000000 0.000000 0.000000 -1.000000 0.375000 -0.218750
0 4.000000 7.000000 24.000000 0.000000 0.000000 -1.000000 0.281250 -0.125000
0 4.000000 9.000000 24.000000 0.000000 0.000000 -1.000000 0.218750 -0.125000
ammo_fl
0 7.000000 4.000000 24.000000 0.000000 0.000000 -1.000000 0.375000 -0.218750
0 4.000000 9.000000 24.000000 0.000000 0.000000 -1.000000 0.218750 -0.125000
0 7.000000 12.000000 24.000000 0.000000 0.000000 -1.000000 0.125000 -0.218750
ammo_fl
0 7.000000 4.000000 24.000000 0.000000 0.000000 -1.000000 0.375000 -0.218750
0 7.000000 12.000000 24.000000 0.000000 0.000000 -1.000000 0.125000 -0.218750
0 9.000000 12.000000 24.000000 0.000000 0.000000 -1.000000 0.125000 -0.281250
ammo_fl
0 7.000000 4.000000 24.000000 0.000000 0.000000 -1.000000 0.375000 -0.218750
0 9.000000 12.000000 24.000000 0.000000 0.000000 -1.000000 0.125000 -0.281250
0 12.000000 9.000000 24.000000 0.000000 0.000000 -1.000000 0.218750 -0.375000
ammo_fl
0 7.000000 4.000000 24.000000 0.000000 0.000000 -1.000000 0.375000 -0.218750
0 12.000000 9.000000 24.000000 0.000000 0.000000 -1.000000 0.218750 -0.375000
0 12.000000 7.000000 24.000000 0.000000 0.000000 -1.000000 0.281250 -0.375000
ammo_fl
0 7.000000 4.000000 24.000000 0.000000 0.000000 -1.000000 0.375000 -0.218750
0 12.000000 7.000000 24.000000 0.000000 0.000000 -1.000000 0.281250 -0.375000
0 9.000000 4.000000 24.000000 0.000000 0.000000 -1.000000 0.375000 -0.281250
ammo_r_s1
0 11.000000 7.000000 28.000000 0.554700 0.000000 0.832050 0.343750 0.093750
0 11.000000 9.000000 28.000000 0.554700 0.000000 0.832050 0.343750 0.031250
0 8.000000 8.000000 30.000000 0.554700 0.000000 0.832050 0.250000 0.062500
ammo_r_s1
0 12.000000 7.000000 26.000000 0.894427 0.000000 0.447214 0.218750 -0.812500
0 12.000000 9.000000 26.000000 0.894427 0.000000 0.447214 0.281250 -0.812500
0 11.000000 9.000000 28.000000 0.894427 0.000000 0.447214 0.281250 -0.875000
ammo_r_s1
0 12.000000 7.000000 26.000000 0.894427 -0.000000 0.447214 0.218750 -0.812500
0 11.000000 9.000000 28.000000 0.894427 -0.000000 0.447214 0.281250 -0.875000
0 11.000000 7.000000 28.000000 0.894427 -0.000000 0.447214 0.218750 -0.875000
ammo_r_s1
0 12.000000 9.000000 24.000000 1.000000 -0.000000 -0.000000 -0.687500 -0.750000
0 12.000000 9.000000 26.000000 1.000000 -0.000000 -0.000000 -0.687500 -0.812500
0 12.000000 7.000000 26.000000 1.000000 -0.000000 -0.000000 -0.625000 -0.812500
ammo_r_s1
0 12.000000 9.000000 24.000000 1.000000 0.000000 0.000000 -0.687500 -0.750000
0 12.000000 7.000000 26.000000 1.000000 0.000000 0.000000 -0.625000 -0.812500
0 12.000000 7.000000 24.000000 1.000000 0.000000 0.000000 -0.625000 -0.750000
ammo_r_s1
0 7.000000 5.000000 28.000000 -0.408248 -0.408248 0.816497 0.218750 0.156250
0 8.000000 8.000000 30.000000 -0.408248 -0.408248 0.816497 0.250000 0.062500
0 5.000000 7.000000 28.000000 -0.408248 -0.408248 0.816497 0.156250 0.093750
ammo_r_s1
0 11.000000 7.000000 28.000000 0.408248 -0.408248 0.816497 1.343750 0.093750
0 8.000000 8.000000 30.000000 0.408248 -0.408248 0.816497 1.250000 0.062500
0 9.000000 5.000000 28.000000 0.408248 -0.408248 0.816497 1.281250 0.156250
ammo_r_s1
0 9.000000 5.000000 28.000000 -0.000000 -0.554700 0.832050 0.281250 0.156250
0 8.000000 8.000000 30.000000 -0.000000 -0.554700 0.832050 0.250000 0.062500
0 7.000000 5.000000 28.000000 -0.000000 -0.554700 0.832050 0.218750 0.156250
ammo_r_s1
0 7.000000 5.000000 28.000000 -0.666667 -0.666667 0.333333 0.218750 -0.875000
0 5.000000 7.000000 28.000000 -0.666667 -0.666667 0.333333 0.156250 -0.875000
0 4.000000 7.000000 26.000000 -0.666667 -0.666667 0.333333 0.125000 -0.812500
ammo_r_s1
0 7.000000 5.000000 28.000000 -0.666667 -0.666667 0.333333 0.218750 -0.875000
0 4.000000 7.000000 26.000000 -0.666667 -0.666667 0.333333 0.125000 -0.812500
0 7.000000 4.000000 26.000000 -0.666667 -0.666667 0.333333 0.218750 -0.812500
ammo_r_s1
0 12.000000 7.000000 26.000000 0.666667 -0.666667 0.333333 0.375000 -0.812500
0 11.000000 7.000000 28.000000 0.666667 -0.666667 0.333333 0.343750 -0.875000
0 9.000000 5.000000 28.000000 0.666667 -0.666667 0.333333 0.281250 -0.875000
ammo_r_s1
0 12.000000 7.000000 26.000000 0.666667 -0.666667 0.333333 0.375000 -0.812500
0 9.000000 5.000000 28.000000 0.666667 -0.666667 0.333333 0.281250 -0.875000
0 9.000000 4.000000 26.000000 0.666667 -0.666667 0.333333 0.281250 -0.812500
ammo_r_s1
0 7.000000 4.000000 24.000000 -0.707107 -0.707107 -0.000000 0.218750 -0.750000
0 7.000000 4.000000 26.000000 -0.707107 -0.707107 -0.000000 0.218750 -0.812500
0 4.000000 7.000000 26.000000 -0.707107 -0.707107 -0.000000 0.125000 -0.812500
ammo_r_s1
0 7.000000 4.000000 24.000000 -0.707107 -0.707107 0.000000 0.218750 -0.750000
0 4.000000 7.000000 26.000000 -0.707107 -0.707107 0.000000 0.125000 -0.812500
0 4.000000 7.000000 24.000000 -0.707107 -0.707107 0.000000 0.125000 -0.750000
ammo_r_s1
0 9.000000 4.000000 24.000000 0.707107 -0.707107 0.000000 0.281250 -0.750000
0 12.000000 7.000000 24.000000 0.707107 -0.707107 0.000000 0.375000 -0.750000
0 12.000000 7.000000 26.000000 0.707107 -0.707107 0.000000 0.375000 -0.812500
ammo_r_s1
0 9.000000 4.000000 24.000000 0.707107 -0.707107 0.000000 0.281250 -0.750000
0 12.000000 7.000000 26.000000 0.707107 -0.707107 0.000000 0.375000 -0.812500
0 9.000000 4.000000 26.000000 0.707107 -0.707107 0.000000 0.281250 -0.812500
ammo_r_s1
0 9.000000 4.000000 26.000000 -0.000000 -0.894427 0.447214 0.281250 0.187500
0 9.000000 5.000000 28.000000 -0.000000 -0.894427 0.447214 0.281250 0.125000
0 7.000000 5.000000 28.000000 -0.000000 -0.894427 0.447214 0.218750 0.125000
ammo_r_s1
0 9.000000 4.000000 26.000000 0.000000 -0.894427 0.447214 0.281250 0.187500
0 7.000000 5.000000 28.000000 0.000000 -0.894427 0.447214 0.218750 0.125000
0 7.000000 4.000000 26.000000 0.000000 -0.894427 0.447214 0.218750 0.187500
ammo_r_s1
0 9.000000 4.000000 26.000000 0.000000 -1.000000 0.000000 0.281250 -0.812500
0 7.000000 4.000000 26.000000 0.000000 -1.000000 0.000000 0.218750 -0.812500
0 7.000000 4.000000 24.000000 0.000000 -1.000000 0.000000 0.218750 -0.750000
ammo_r_s1
0 9.000000 4.000000 26.000000 0.000000 -1.000000 0.000000 0.281250 -0.812500
0 7.000000 4.000000 24.000000 0.000000 -1.000000 0.000000 0.218750 -0.750000
0 9.000000 4.000000 24.000000 0.000000 -1.000000 0.000000 0.281250 -0.750000
end
