version 1
nodes
0 "root" -1
end
skeleton
  time 0
  0 0.000000 0.000000 0.000000 0.000000 0.000000 0.000000
end
triangles
backpack
  0 0.856463 8.466829 9.016675 -0.085287 -0.642903 0.761185 0.628906 0.949219 1 0 1.000000
  0 6.503011 7.474942 10.778554 -0.331801 -0.608700 0.720689 0.535156 0.933594 1 0 1.000000
  0 0.856463 10.430153 10.674914 -0.051464 -0.644399 0.762956 0.636719 0.988281 1 0 1.000000
backpack
  0 -7.142523 6.695192 21.686127 -0.635153 0.637826 0.435614 0.777344 0.199219 1 0 1.000000
  0 -5.954373 6.695192 20.815321 0.549635 0.780852 -0.296939 0.753906 0.199219 1 0 1.000000
  0 -7.738310 6.487900 12.412181 0.668229 0.742643 -0.044168 0.753906 0.347656 1 0 1.000000
backpack
  0 -7.142523 6.695192 21.686127 -0.635153 0.637826 0.435614 0.777344 0.199219 1 0 1.000000
  0 -7.738310 6.487900 12.412181 0.668229 0.742643 -0.044168 0.753906 0.347656 1 0 1.000000
  0 -9.101312 6.487900 12.412181 -0.739146 0.672352 0.040077 0.777344 0.347656 1 0 1.000000
backpack
  0 -8.409002 3.558254 4.037173 -0.671306 -0.619022 -0.407627 0.785156 0.488281 1 0 1.000000
  0 -6.888699 3.558254 4.350531 0.556332 -0.788839 0.261203 0.808594 0.488281 1 0 1.000000
  0 -7.738310 3.558254 12.412181 0.666618 -0.744822 -0.029338 0.808594 0.347656 1 0 1.000000
backpack
  0 -8.409002 3.558254 4.037173 -0.671306 -0.619022 -0.407627 0.785156 0.488281 1 0 1.000000
  0 -7.738310 3.558254 12.412181 0.666618 -0.744822 -0.029338 0.808594 0.347656 1 0 1.000000
  0 -9.101312 3.558254 12.412181 -0.733405 -0.677957 0.049906 0.785156 0.347656 1 0 1.000000
backpack
  0 -1.057903 6.487901 25.697044 0.660783 0.523316 0.538057 0.769531 0.121094 1 0 1.000000
  0 -5.954373 6.695192 20.815321 0.549635 0.780852 -0.296939 0.753906 0.199219 1 0 1.000000
  0 -7.142523 6.695192 21.686127 -0.635153 0.637826 0.435614 0.777344 0.199219 1 0 1.000000
backpack
  0 -1.057903 -6.487901 25.697044 0.660784 -0.523316 0.538057 0.824219 0.121094 1 0 1.000000
  0 -7.142523 -6.695192 21.686127 -0.635153 -0.637826 0.435614 0.816406 0.199219 1 0 1.000000
  0 -5.954373 -6.695192 20.815321 0.549634 -0.780852 -0.296939 0.839844 0.199219 1 0 1.000000
backpack
  0 -1.057903 3.558254 25.697044 0.649762 -0.545844 0.529022 0.949219 0.566406 1 0 1.000000
  0 -5.954373 3.678371 20.815321 0.554770 -0.774954 -0.302781 0.949219 0.644531 1 0 1.000000
  0 -5.954373 6.695192 20.815321 0.549635 0.780852 -0.296939 0.996094 0.644531 1 0 1.000000
backpack
  0 -1.057903 3.558254 25.697044 0.649762 -0.545844 0.529022 0.949219 0.566406 1 0 1.000000
  0 -5.954373 6.695192 20.815321 0.549635 0.780852 -0.296939 0.996094 0.644531 1 0 1.000000
  0 -1.057903 6.487901 25.697044 0.660783 0.523316 0.538057 0.996094 0.566406 1 0 1.000000
backpack
  0 -3.678399 3.558254 1.059074 0.655598 -0.537845 -0.530014 0.800781 0.542969 1 0 1.000000
  0 -6.888699 3.558254 4.350531 0.556332 -0.788839 0.261203 0.808594 0.488281 1 0 1.000000
  0 -8.409002 3.558254 4.037173 -0.671306 -0.619022 -0.407627 0.785156 0.488281 1 0 1.000000
backpack
  0 -6.888699 3.558254 4.350531 0.556332 -0.788839 0.261203 0.949219 0.933594 1 0 1.000000
  0 -3.678399 3.558254 1.059074 0.655598 -0.537845 -0.530014 0.949219 0.988281 1 0 1.000000
  0 -3.678399 6.487901 1.059074 0.655598 0.537845 -0.530014 0.996094 0.988281 1 0 1.000000
backpack
  0 -6.888699 3.558254 4.350531 0.556332 -0.788839 0.261203 0.949219 0.933594 1 0 1.000000
  0 -3.678399 6.487901 1.059074 0.655598 0.537845 -0.530014 0.996094 0.988281 1 0 1.000000
  0 -6.888699 6.487901 4.350531 0.556332 0.788839 0.261203 0.996094 0.933594 1 0 1.000000
backpack
  0 -7.142523 3.678371 21.686127 -0.644865 -0.626543 0.437713 0.949219 0.488281 1 0 1.000000
  0 -7.142523 6.695192 21.686127 -0.635153 0.637826 0.435614 0.996094 0.488281 1 0 1.000000
  0 -9.101312 6.487900 12.412181 -0.739146 0.672352 0.040077 0.996094 0.339844 1 0 1.000000
backpack
  0 -7.142523 3.678371 21.686127 -0.644865 -0.626543 0.437713 0.949219 0.488281 1 0 1.000000
  0 -9.101312 6.487900 12.412181 -0.739146 0.672352 0.040077 0.996094 0.339844 1 0 1.000000
  0 -9.101312 3.558254 12.412181 -0.733405 -0.677957 0.049906 0.949219 0.339844 1 0 1.000000
backpack
  0 -7.738310 -3.558254 12.412181 0.666618 0.744822 -0.029338 0.941406 0.792969 1 0 1.000000
  0 -7.738310 -6.487900 12.412181 0.668229 -0.742643 -0.044168 0.894531 0.792969 1 0 1.000000
  0 -6.888699 -6.487901 4.350531 0.556332 -0.788839 0.261203 0.894531 0.933594 1 0 1.000000
backpack
  0 -7.738310 -3.558254 12.412181 0.666618 0.744822 -0.029338 0.941406 0.792969 1 0 1.000000
  0 -6.888699 -6.487901 4.350531 0.556332 -0.788839 0.261203 0.894531 0.933594 1 0 1.000000
  0 -6.888699 -3.558254 4.350531 0.556332 0.788839 0.261203 0.941406 0.933594 1 0 1.000000
backpack
  0 -1.057903 3.558254 25.697044 0.649762 -0.545844 0.529022 0.949219 0.566406 1 0 1.000000
  0 -1.057903 6.487901 25.697044 0.660783 0.523316 0.538057 0.996094 0.566406 1 0 1.000000
  0 -7.142523 6.695192 21.686127 -0.635153 0.637826 0.435614 0.996094 0.488281 1 0 1.000000
backpack
  0 -1.057903 3.558254 25.697044 0.649762 -0.545844 0.529022 0.949219 0.566406 1 0 1.000000
  0 -7.142523 6.695192 21.686127 -0.635153 0.637826 0.435614 0.996094 0.488281 1 0 1.000000
  0 -7.142523 3.678371 21.686127 -0.644865 -0.626543 0.437713 0.949219 0.488281 1 0 1.000000
backpack
  0 -9.101312 6.487900 12.412181 -0.739146 0.672352 0.040077 0.777344 0.347656 1 0 1.000000
  0 -7.738310 6.487900 12.412181 0.668229 0.742643 -0.044168 0.753906 0.347656 1 0 1.000000
  0 -6.888699 6.487901 4.350531 0.556332 0.788839 0.261203 0.753906 0.488281 1 0 1.000000
backpack
  0 -9.101312 6.487900 12.412181 -0.739146 0.672352 0.040077 0.777344 0.347656 1 0 1.000000
  0 -6.888699 6.487901 4.350531 0.556332 0.788839 0.261203 0.753906 0.488281 1 0 1.000000
  0 -8.409002 6.487901 4.037173 -0.671306 0.619022 -0.407627 0.777344 0.488281 1 0 1.000000
backpack
  0 -9.101312 -6.487900 12.412181 -0.739146 -0.672352 0.040077 0.816406 0.347656 1 0 1.000000
  0 -8.409002 -6.487901 4.037173 -0.671306 -0.619022 -0.407627 0.816406 0.488281 1 0 1.000000
  0 -6.888699 -6.487901 4.350531 0.556332 -0.788839 0.261203 0.839844 0.488281 1 0 1.000000
backpack
  0 -9.101312 -6.487900 12.412181 -0.739146 -0.672352 0.040077 0.816406 0.347656 1 0 1.000000
  0 -6.888699 -6.487901 4.350531 0.556332 -0.788839 0.261203 0.839844 0.488281 1 0 1.000000
  0 -7.738310 -6.487900 12.412181 0.668229 -0.742643 -0.044168 0.839844 0.347656 1 0 1.000000
backpack
  0 -9.101312 3.558254 12.412181 -0.733405 -0.677957 0.049906 0.785156 0.347656 1 0 1.000000
  0 -7.738310 3.558254 12.412181 0.666618 -0.744822 -0.029338 0.808594 0.347656 1 0 1.000000
  0 -5.954373 3.678371 20.815321 0.554770 -0.774954 -0.302781 0.808594 0.199219 1 0 1.000000
backpack
  0 -9.101312 3.558254 12.412181 -0.733405 -0.677957 0.049906 0.785156 0.347656 1 0 1.000000
  0 -5.954373 3.678371 20.815321 0.554770 -0.774954 -0.302781 0.808594 0.199219 1 0 1.000000
  0 -7.142523 3.678371 21.686127 -0.644865 -0.626543 0.437713 0.785156 0.199219 1 0 1.000000
backpack
  0 -9.101312 -3.558254 12.412181 -0.733405 0.677957 0.049906 0.941406 0.339844 1 0 1.000000
  0 -8.409002 -3.558254 4.037173 -0.671306 0.619022 -0.407627 0.941406 0.199219 1 0 1.000000
  0 -8.409002 -6.487901 4.037173 -0.671306 -0.619022 -0.407627 0.894531 0.199219 1 0 1.000000
backpack
  0 -9.101312 -3.558254 12.412181 -0.733405 0.677957 0.049906 0.941406 0.339844 1 0 1.000000
  0 -8.409002 -6.487901 4.037173 -0.671306 -0.619022 -0.407627 0.894531 0.199219 1 0 1.000000
  0 -9.101312 -6.487900 12.412181 -0.739146 -0.672352 0.040077 0.894531 0.339844 1 0 1.000000
backpack
  0 0.856463 -8.466829 9.016675 -0.085287 0.642903 0.761185 0.785156 0.949219 1 0 1.000000
  0 -3.815007 -8.875854 10.674914 0.209907 0.630879 0.746948 0.707031 0.933594 1 0 1.000000
  0 0.856463 -10.430153 10.674914 -0.051464 0.644399 0.762956 0.777344 0.988281 1 0 1.000000
backpack
  0 -8.409002 -3.558254 4.037173 -0.671306 0.619022 -0.407627 0.871094 0.488281 1 0 1.000000
  0 -9.101312 -3.558254 12.412181 -0.733405 0.677957 0.049906 0.871094 0.347656 1 0 1.000000
  0 -7.738310 -3.558254 12.412181 0.666618 0.744822 -0.029338 0.847656 0.347656 1 0 1.000000
backpack
  0 -8.409002 -3.558254 4.037173 -0.671306 0.619022 -0.407627 0.871094 0.488281 1 0 1.000000
  0 -7.738310 -3.558254 12.412181 0.666618 0.744822 -0.029338 0.847656 0.347656 1 0 1.000000
  0 -6.888699 -3.558254 4.350531 0.556332 0.788839 0.261203 0.847656 0.488281 1 0 1.000000
backpack
  0 0.856463 8.386487 22.668722 0.084302 0.983632 0.159254 0.621094 0.722656 1 0 1.000000
  0 4.549007 7.474942 25.255056 0.099792 0.974498 0.200984 0.558594 0.675781 1 0 1.000000
  0 6.022308 7.474942 22.668722 0.172767 0.984024 0.043002 0.535156 0.722656 1 0 1.000000
backpack
  0 -1.057903 -3.558254 25.697044 0.649762 0.545844 0.529022 0.941406 0.566406 1 0 1.000000
  0 -1.057903 -6.487901 25.697044 0.660784 -0.523316 0.538057 0.894531 0.566406 1 0 1.000000
  0 -5.954373 -6.695192 20.815321 0.549634 -0.780852 -0.296939 0.894531 0.644531 1 0 1.000000
backpack
  0 -1.057903 -3.558254 25.697044 0.649762 0.545844 0.529022 0.941406 0.566406 1 0 1.000000
  0 -5.954373 -6.695192 20.815321 0.549634 -0.780852 -0.296939 0.894531 0.644531 1 0 1.000000
  0 -5.954373 -3.678371 20.815321 0.554770 0.774954 -0.302781 0.941406 0.644531 1 0 1.000000
backpack
  0 -8.409002 3.558254 4.037173 -0.671306 -0.619022 -0.407627 0.949219 0.199219 1 0 1.000000
  0 -8.409002 6.487901 4.037173 -0.671306 0.619022 -0.407627 0.996094 0.199219 1 0 1.000000
  0 -3.678399 6.487901 1.059074 0.655598 0.537845 -0.530014 0.996094 0.144531 1 0 1.000000
backpack
  0 -8.409002 3.558254 4.037173 -0.671306 -0.619022 -0.407627 0.949219 0.199219 1 0 1.000000
  0 -3.678399 6.487901 1.059074 0.655598 0.537845 -0.530014 0.996094 0.144531 1 0 1.000000
  0 -3.678399 3.558254 1.059074 0.655598 -0.537845 -0.530014 0.949219 0.144531 1 0 1.000000
backpack
  0 0.856463 6.988015 26.374399 -0.011154 0.926924 0.375084 0.621094 0.652344 1 0 1.000000
  0 -3.459441 8.548634 22.668722 0.022385 0.975229 0.220063 0.699219 0.722656 1 0 1.000000
  0 -3.807835 7.061715 25.557232 -0.064862 0.890402 0.450530 0.707031 0.660156 1 0 1.000000
backpack
  0 -7.142523 -3.678371 21.686127 -0.644865 0.626544 0.437713 0.941406 0.488281 1 0 1.000000
  0 -9.101312 -3.558254 12.412181 -0.733405 0.677957 0.049906 0.941406 0.339844 1 0 1.000000
  0 -9.101312 -6.487900 12.412181 -0.739146 -0.672352 0.040077 0.894531 0.339844 1 0 1.000000
backpack
  0 -7.142523 -3.678371 21.686127 -0.644865 0.626544 0.437713 0.941406 0.488281 1 0 1.000000
  0 -9.101312 -6.487900 12.412181 -0.739146 -0.672352 0.040077 0.894531 0.339844 1 0 1.000000
  0 -7.142523 -6.695192 21.686127 -0.635153 -0.637826 0.435614 0.894531 0.488281 1 0 1.000000
backpack
  0 -7.142523 -3.678371 21.686127 -0.644865 0.626544 0.437713 0.871094 0.199219 1 0 1.000000
  0 -1.057903 -3.558254 25.697044 0.649762 0.545844 0.529022 0.863281 0.121094 1 0 1.000000
  0 -5.954373 -3.678371 20.815321 0.554770 0.774954 -0.302781 0.847656 0.199219 1 0 1.000000
backpack
  0 -7.142523 3.678371 21.686127 -0.644865 -0.626543 0.437713 0.785156 0.199219 1 0 1.000000
  0 -5.954373 3.678371 20.815321 0.554770 -0.774954 -0.302781 0.808594 0.199219 1 0 1.000000
  0 -1.057903 3.558254 25.697044 0.649762 -0.545844 0.529022 0.800781 0.121094 1 0 1.000000
backpack
  0 -1.057903 -3.558254 25.697044 0.649762 0.545844 0.529022 0.941406 0.566406 1 0 1.000000
  0 -7.142523 -3.678371 21.686127 -0.644865 0.626544 0.437713 0.941406 0.488281 1 0 1.000000
  0 -7.142523 -6.695192 21.686127 -0.635153 -0.637826 0.435614 0.894531 0.488281 1 0 1.000000
backpack
  0 -1.057903 -3.558254 25.697044 0.649762 0.545844 0.529022 0.941406 0.566406 1 0 1.000000
  0 -7.142523 -6.695192 21.686127 -0.635153 -0.637826 0.435614 0.894531 0.488281 1 0 1.000000
  0 -1.057903 -6.487901 25.697044 0.660784 -0.523316 0.538057 0.894531 0.566406 1 0 1.000000
backpack
  0 -8.409002 -6.487901 4.037173 -0.671306 -0.619022 -0.407627 0.816406 0.488281 1 0 1.000000
  0 -3.678399 -6.487901 1.059074 0.655598 -0.537845 -0.530014 0.824219 0.542969 1 0 1.000000
  0 -6.888699 -6.487901 4.350531 0.556332 -0.788839 0.261203 0.839844 0.488281 1 0 1.000000
backpack
  0 -8.409002 6.487901 4.037173 -0.671306 0.619022 -0.407627 0.777344 0.488281 1 0 1.000000
  0 -6.888699 6.487901 4.350531 0.556332 0.788839 0.261203 0.753906 0.488281 1 0 1.000000
  0 -3.678399 6.487901 1.059074 0.655598 0.537845 -0.530014 0.769531 0.542969 1 0 1.000000
backpack
  0 0.856463 -8.466829 9.016675 -0.085287 0.642903 0.761185 0.785156 0.949219 1 0 1.000000
  0 0.856463 -10.430153 10.674914 -0.051464 0.644399 0.762956 0.777344 0.988281 1 0 1.000000
  0 6.503011 -7.474942 10.778554 -0.331801 0.608700 0.720689 0.878906 0.933594 1 0 1.000000
backpack
  0 -7.738310 3.558254 12.412181 0.666618 -0.744822 -0.029338 0.949219 0.792969 1 0 1.000000
  0 -6.888699 3.558254 4.350531 0.556332 -0.788839 0.261203 0.949219 0.933594 1 0 1.000000
  0 -6.888699 6.487901 4.350531 0.556332 0.788839 0.261203 0.996094 0.933594 1 0 1.000000
backpack
  0 -7.738310 3.558254 12.412181 0.666618 -0.744822 -0.029338 0.949219 0.792969 1 0 1.000000
  0 -6.888699 6.487901 4.350531 0.556332 0.788839 0.261203 0.996094 0.933594 1 0 1.000000
  0 -7.738310 6.487900 12.412181 0.668229 0.742643 -0.044168 0.996094 0.792969 1 0 1.000000
backpack
  0 -8.409002 -3.558254 4.037173 -0.671306 0.619022 -0.407627 0.941406 0.199219 1 0 1.000000
  0 -3.678399 -3.558254 1.059074 0.655598 0.537845 -0.530014 0.941406 0.144531 1 0 1.000000
  0 -3.678399 -6.487901 1.059074 0.655598 -0.537845 -0.530014 0.894531 0.144531 1 0 1.000000
backpack
  0 -8.409002 -3.558254 4.037173 -0.671306 0.619022 -0.407627 0.941406 0.199219 1 0 1.000000
  0 -3.678399 -6.487901 1.059074 0.655598 -0.537845 -0.530014 0.894531 0.144531 1 0 1.000000
  0 -8.409002 -6.487901 4.037173 -0.671306 -0.619022 -0.407627 0.894531 0.199219 1 0 1.000000
backpack
  0 0.856463 8.466829 9.016675 -0.085287 -0.642903 0.761185 0.628906 0.949219 1 0 1.000000
  0 0.856463 10.430153 10.674914 -0.051464 -0.644399 0.762956 0.636719 0.988281 1 0 1.000000
  0 -3.815007 8.875854 10.674914 0.209907 -0.630879 0.746948 0.707031 0.933594 1 0 1.000000
backpack
  0 -9.101312 3.558254 12.412181 -0.733405 -0.677957 0.049906 0.949219 0.339844 1 0 1.000000
  0 -9.101312 6.487900 12.412181 -0.739146 0.672352 0.040077 0.996094 0.339844 1 0 1.000000
  0 -8.409002 6.487901 4.037173 -0.671306 0.619022 -0.407627 0.996094 0.199219 1 0 1.000000
backpack
  0 -9.101312 3.558254 12.412181 -0.733405 -0.677957 0.049906 0.949219 0.339844 1 0 1.000000
  0 -8.409002 6.487901 4.037173 -0.671306 0.619022 -0.407627 0.996094 0.199219 1 0 1.000000
  0 -8.409002 3.558254 4.037173 -0.671306 -0.619022 -0.407627 0.949219 0.199219 1 0 1.000000
backpack
  0 -3.678399 -3.558254 1.059074 0.655598 0.537845 -0.530014 0.863281 0.542969 1 0 1.000000
  0 -8.409002 -3.558254 4.037173 -0.671306 0.619022 -0.407627 0.871094 0.488281 1 0 1.000000
  0 -6.888699 -3.558254 4.350531 0.556332 0.788839 0.261203 0.847656 0.488281 1 0 1.000000
backpack
  0 -5.954373 3.678371 20.815321 0.554770 -0.774954 -0.302781 0.949219 0.644531 1 0 1.000000
  0 -7.738310 3.558254 12.412181 0.666618 -0.744822 -0.029338 0.949219 0.792969 1 0 1.000000
  0 -7.738310 6.487900 12.412181 0.668229 0.742643 -0.044168 0.996094 0.792969 1 0 1.000000
backpack
  0 -5.954373 3.678371 20.815321 0.554770 -0.774954 -0.302781 0.949219 0.644531 1 0 1.000000
  0 -7.738310 6.487900 12.412181 0.668229 0.742643 -0.044168 0.996094 0.792969 1 0 1.000000
  0 -5.954373 6.695192 20.815321 0.549635 0.780852 -0.296939 0.996094 0.644531 1 0 1.000000
backpack
  0 -7.142523 -6.695192 21.686127 -0.635153 -0.637826 0.435614 0.816406 0.199219 1 0 1.000000
  0 -9.101312 -6.487900 12.412181 -0.739146 -0.672352 0.040077 0.816406 0.347656 1 0 1.000000
  0 -7.738310 -6.487900 12.412181 0.668229 -0.742643 -0.044168 0.839844 0.347656 1 0 1.000000
backpack
  0 -7.142523 -6.695192 21.686127 -0.635153 -0.637826 0.435614 0.816406 0.199219 1 0 1.000000
  0 -7.738310 -6.487900 12.412181 0.668229 -0.742643 -0.044168 0.839844 0.347656 1 0 1.000000
  0 -5.954373 -6.695192 20.815321 0.549634 -0.780852 -0.296939 0.839844 0.199219 1 0 1.000000
backpack
  0 -5.954373 -3.678371 20.815321 0.554770 0.774954 -0.302781 0.941406 0.644531 1 0 1.000000
  0 -5.954373 -6.695192 20.815321 0.549634 -0.780852 -0.296939 0.894531 0.644531 1 0 1.000000
  0 -7.738310 -6.487900 12.412181 0.668229 -0.742643 -0.044168 0.894531 0.792969 1 0 1.000000
backpack
  0 -5.954373 -3.678371 20.815321 0.554770 0.774954 -0.302781 0.941406 0.644531 1 0 1.000000
  0 -7.738310 -6.487900 12.412181 0.668229 -0.742643 -0.044168 0.894531 0.792969 1 0 1.000000
  0 -7.738310 -3.558254 12.412181 0.666618 0.744822 -0.029338 0.941406 0.792969 1 0 1.000000
backpack
  0 -9.101312 -3.558254 12.412181 -0.733405 0.677957 0.049906 0.871094 0.347656 1 0 1.000000
  0 -7.142523 -3.678371 21.686127 -0.644865 0.626544 0.437713 0.871094 0.199219 1 0 1.000000
  0 -5.954373 -3.678371 20.815321 0.554770 0.774954 -0.302781 0.847656 0.199219 1 0 1.000000
backpack
  0 -9.101312 -3.558254 12.412181 -0.733405 0.677957 0.049906 0.871094 0.347656 1 0 1.000000
  0 -5.954373 -3.678371 20.815321 0.554770 0.774954 -0.302781 0.847656 0.199219 1 0 1.000000
  0 -7.738310 -3.558254 12.412181 0.666618 0.744822 -0.029338 0.847656 0.347656 1 0 1.000000
backpack
  0 0.856463 8.386487 22.668722 0.084302 0.983632 0.159254 0.621094 0.722656 1 0 1.000000
  0 6.022308 7.474942 22.668722 0.172767 0.984024 0.043002 0.535156 0.722656 1 0 1.000000
  0 6.503011 7.474942 10.778554 0.172370 0.985012 0.006342 0.535156 0.933594 1 0 1.000000
backpack
  0 0.856463 8.386487 22.668722 0.084302 0.983632 0.159254 0.621094 0.722656 1 0 1.000000
  0 6.503011 7.474942 10.778554 0.172370 0.985012 0.006342 0.535156 0.933594 1 0 1.000000
  0 0.856463 8.466829 9.016675 0.120292 0.992682 0.010586 0.628906 0.949219 1 0 1.000000
backpack
  0 -6.888699 -3.558254 4.350531 0.556332 0.788839 0.261203 0.941406 0.933594 1 0 1.000000
  0 -6.888699 -6.487901 4.350531 0.556332 -0.788839 0.261203 0.894531 0.933594 1 0 1.000000
  0 -3.678399 -6.487901 1.059074 0.655598 -0.537845 -0.530014 0.894531 0.988281 1 0 1.000000
backpack
  0 -6.888699 -3.558254 4.350531 0.556332 0.788839 0.261203 0.941406 0.933594 1 0 1.000000
  0 -3.678399 -6.487901 1.059074 0.655598 -0.537845 -0.530014 0.894531 0.988281 1 0 1.000000
  0 -3.678399 -3.558254 1.059074 0.655598 0.537845 -0.530014 0.941406 0.988281 1 0 1.000000
backpack
  0 -3.815007 8.875854 10.674914 0.066163 0.997697 0.014938 0.707031 0.933594 1 0 1.000000
  0 -3.459441 8.548634 22.668722 0.022385 0.975229 0.220063 0.699219 0.722656 1 0 1.000000
  0 0.856463 8.386487 22.668722 0.084302 0.983632 0.159254 0.621094 0.722656 1 0 1.000000
backpack
  0 -3.815007 8.875854 10.674914 0.066163 0.997697 0.014938 0.707031 0.933594 1 0 1.000000
  0 0.856463 8.386487 22.668722 0.084302 0.983632 0.159254 0.621094 0.722656 1 0 1.000000
  0 0.856463 8.466829 9.016675 0.120292 0.992682 0.010586 0.628906 0.949219 1 0 1.000000
backpack
  0 0.856463 8.386487 22.668722 0.084302 0.983632 0.159254 0.621094 0.722656 1 0 1.000000
  0 -3.459441 8.548634 22.668722 0.022385 0.975229 0.220063 0.699219 0.722656 1 0 1.000000
  0 0.856463 6.988015 26.374399 -0.011154 0.926924 0.375084 0.621094 0.652344 1 0 1.000000
backpack
  0 4.549007 7.474942 25.255056 0.099792 0.974498 0.200984 0.558594 0.675781 1 0 1.000000
  0 0.856463 8.386487 22.668722 0.084302 0.983632 0.159254 0.621094 0.722656 1 0 1.000000
  0 0.856463 6.988015 26.374399 -0.011154 0.926924 0.375084 0.621094 0.652344 1 0 1.000000
backpack
  0 0.856463 -7.474942 0.103640 0.010382 0.000000 -0.999946 0.425781 0.550781 1 0 1.000000
  0 -5.335084 -8.420815 0.998948 -0.143113 0.000000 -0.989706 0.316406 0.550781 1 0 1.000000
  0 -5.335084 8.420815 0.998948 -0.143113 0.000000 -0.989706 0.316406 0.800781 1 0 1.000000
backpack
  0 0.856463 -7.474942 0.103640 0.010382 0.000000 -0.999946 0.425781 0.550781 1 0 1.000000
  0 -5.335084 8.420815 0.998948 -0.143113 0.000000 -0.989706 0.316406 0.800781 1 0 1.000000
  0 0.856463 7.474942 0.103640 0.010382 0.000000 -0.999946 0.425781 0.800781 1 0 1.000000
backpack
  0 5.429699 -7.474942 0.932118 0.178257 0.000000 -0.983984 0.503906 0.550781 1 0 1.000000
  0 0.856463 -7.474942 0.103640 0.010382 0.000000 -0.999946 0.425781 0.550781 1 0 1.000000
  0 0.856463 7.474942 0.103640 0.010382 0.000000 -0.999946 0.425781 0.800781 1 0 1.000000
backpack
  0 5.429699 -7.474942 0.932118 0.178257 0.000000 -0.983984 0.503906 0.550781 1 0 1.000000
  0 0.856463 7.474942 0.103640 0.010382 0.000000 -0.999946 0.425781 0.800781 1 0 1.000000
  0 5.429699 7.474942 0.932118 0.178257 0.000000 -0.983984 0.503906 0.800781 1 0 1.000000
backpack
  0 6.503011 -7.474942 10.778554 0.999419 0.000000 -0.034078 0.027344 0.824219 1 0 1.000000
  0 5.429699 -7.474942 0.932118 0.994111 0.000000 -0.108363 0.027344 0.996094 1 0 1.000000
  0 5.429699 7.474942 0.932118 0.994111 0.000000 -0.108363 0.285156 0.996094 1 0 1.000000
backpack
  0 6.503011 -7.474942 10.778554 0.999419 0.000000 -0.034078 0.027344 0.824219 1 0 1.000000
  0 5.429699 7.474942 0.932118 0.994111 0.000000 -0.108363 0.285156 0.996094 1 0 1.000000
  0 6.503011 7.474942 10.778554 0.999419 0.000000 -0.034078 0.285156 0.824219 1 0 1.000000
backpack
  0 0.856463 -6.988015 26.374399 0.068374 0.000000 0.997660 0.035156 0.503906 1 0 1.000000
  0 4.549007 -7.474942 25.255056 0.636728 0.000000 0.771088 0.027344 0.574219 1 0 1.000000
  0 4.549007 7.474942 25.255056 0.636728 0.000000 0.771088 0.285156 0.574219 1 0 1.000000
backpack
  0 0.856463 -6.988015 26.374399 0.068374 0.000000 0.997660 0.035156 0.503906 1 0 1.000000
  0 4.549007 7.474942 25.255056 0.636728 0.000000 0.771088 0.285156 0.574219 1 0 1.000000
  0 0.856463 6.988015 26.374399 0.068374 0.000000 0.997660 0.277344 0.503906 1 0 1.000000
backpack
  0 4.549007 -7.474942 25.255056 0.636728 0.000000 0.771088 0.027344 0.574219 1 0 1.000000
  0 6.022308 -7.474942 22.668722 0.961302 0.000000 0.275495 0.027344 0.621094 1 0 1.000000
  0 6.022308 7.474942 22.668722 0.961302 0.000000 0.275495 0.285156 0.621094 1 0 1.000000
backpack
  0 4.549007 -7.474942 25.255056 0.636728 0.000000 0.771088 0.027344 0.574219 1 0 1.000000
  0 6.022308 7.474942 22.668722 0.961302 0.000000 0.275495 0.285156 0.621094 1 0 1.000000
  0 4.549007 7.474942 25.255056 0.636728 0.000000 0.771088 0.285156 0.574219 1 0 1.000000
backpack
  0 6.022308 -7.474942 22.668722 0.961302 0.000000 0.275495 0.027344 0.621094 1 0 1.000000
  0 6.503011 -7.474942 10.778554 0.999419 0.000000 -0.034078 0.027344 0.824219 1 0 1.000000
  0 6.503011 7.474942 10.778554 0.999419 0.000000 -0.034078 0.285156 0.824219 1 0 1.000000
backpack
  0 6.022308 -7.474942 22.668722 0.961302 0.000000 0.275495 0.027344 0.621094 1 0 1.000000
  0 6.503011 7.474942 10.778554 0.999419 0.000000 -0.034078 0.285156 0.824219 1 0 1.000000
  0 6.022308 7.474942 22.668722 0.961302 0.000000 0.275495 0.285156 0.621094 1 0 1.000000
backpack
  0 -3.807835 -7.061715 25.557232 -0.172568 0.000000 0.984998 0.035156 0.425781 1 0 1.000000
  0 0.856463 -6.988015 26.374399 0.068374 0.000000 0.997660 0.035156 0.503906 1 0 1.000000
  0 0.856463 6.988015 26.374399 0.068374 0.000000 0.997660 0.277344 0.503906 1 0 1.000000
backpack
  0 -3.807835 -7.061715 25.557232 -0.172568 0.000000 0.984998 0.035156 0.425781 1 0 1.000000
  0 0.856463 6.988015 26.374399 0.068374 0.000000 0.997660 0.277344 0.503906 1 0 1.000000
  0 -3.807835 7.061715 25.557232 -0.172568 0.000000 0.984998 0.277344 0.425781 1 0 1.000000
backpack
  0 0.856463 -8.386487 22.668722 0.084302 -0.983632 0.159254 0.785156 0.722656 1 0 1.000000
  0 0.856463 -8.466829 9.016675 0.120292 -0.992682 0.010586 0.785156 0.949219 1 0 1.000000
  0 6.503011 -7.474942 10.778554 0.172370 -0.985012 0.006342 0.878906 0.933594 1 0 1.000000
backpack
  0 0.856463 -8.386487 22.668722 0.084302 -0.983632 0.159254 0.785156 0.722656 1 0 1.000000
  0 6.503011 -7.474942 10.778554 0.172370 -0.985012 0.006342 0.878906 0.933594 1 0 1.000000
  0 6.022308 -7.474942 22.668722 0.172767 -0.984024 0.043002 0.878906 0.722656 1 0 1.000000
backpack
  0 -3.815007 -8.875854 10.674914 0.066163 -0.997697 0.014938 0.707031 0.933594 1 0 1.000000
  0 0.856463 -8.466829 9.016675 0.120292 -0.992682 0.010586 0.785156 0.949219 1 0 1.000000
  0 0.856463 -8.386487 22.668722 0.084302 -0.983632 0.159254 0.785156 0.722656 1 0 1.000000
backpack
  0 -3.815007 -8.875854 10.674914 0.066163 -0.997697 0.014938 0.707031 0.933594 1 0 1.000000
  0 0.856463 -8.386487 22.668722 0.084302 -0.983632 0.159254 0.785156 0.722656 1 0 1.000000
  0 -3.459441 -8.548634 22.668722 0.022385 -0.975229 0.220063 0.714844 0.722656 1 0 1.000000
backpack
  0 4.549007 -7.474942 25.255056 0.099792 -0.974498 0.200984 0.855469 0.675781 1 0 1.000000
  0 0.856463 -8.386487 22.668722 0.084302 -0.983632 0.159254 0.785156 0.722656 1 0 1.000000
  0 6.022308 -7.474942 22.668722 0.172767 -0.984024 0.043002 0.878906 0.722656 1 0 1.000000
backpack
  0 -3.807835 -7.061715 25.557232 -0.064862 -0.890402 0.450530 0.707031 0.660156 1 0 1.000000
  0 -3.459441 -8.548634 22.668722 0.022385 -0.975229 0.220063 0.714844 0.722656 1 0 1.000000
  0 0.856463 -6.988015 26.374399 -0.011154 -0.926924 0.375084 0.792969 0.652344 1 0 1.000000
backpack
  0 0.856463 -8.386487 22.668722 0.084302 -0.983632 0.159254 0.785156 0.722656 1 0 1.000000
  0 4.549007 -7.474942 25.255056 0.099792 -0.974498 0.200984 0.855469 0.675781 1 0 1.000000
  0 0.856463 -6.988015 26.374399 -0.011154 -0.926924 0.375084 0.792969 0.652344 1 0 1.000000
backpack
  0 0.856463 -6.988015 26.374399 -0.011154 -0.926924 0.375084 0.792969 0.652344 1 0 1.000000
  0 -3.459441 -8.548634 22.668722 0.022385 -0.975229 0.220063 0.714844 0.722656 1 0 1.000000
  0 0.856463 -8.386487 22.668722 0.084302 -0.983632 0.159254 0.785156 0.722656 1 0 1.000000
backpack
  0 -5.335084 8.420815 0.998948 -0.068393 0.984630 -0.160707 0.316406 0.800781 1 0 1.000000
  0 -3.815007 8.875854 10.674914 -0.068393 0.984630 -0.160707 0.347656 0.980469 1 0 1.000000
  0 0.856463 10.430153 10.674914 0.109773 0.981166 -0.158947 0.425781 0.980469 1 0 1.000000
backpack
  0 -5.335084 8.420815 0.998948 -0.068393 0.984630 -0.160707 0.316406 0.800781 1 0 1.000000
  0 0.856463 10.430153 10.674914 0.109773 0.981166 -0.158947 0.425781 0.980469 1 0 1.000000
  0 0.856463 7.474942 0.103640 0.111582 0.980969 -0.158903 0.425781 0.800781 1 0 1.000000
backpack
  0 5.429699 -7.474942 0.932118 0.287325 -0.945698 -0.151982 0.503906 0.550781 1 0 1.000000
  0 6.503011 -7.474942 10.778554 0.287325 -0.945698 -0.151982 0.519531 0.371094 1 0 1.000000
  0 0.856463 -10.430153 10.674914 0.109773 -0.981166 -0.158947 0.425781 0.371094 1 0 1.000000
backpack
  0 5.429699 -7.474942 0.932118 0.287325 -0.945698 -0.151982 0.503906 0.550781 1 0 1.000000
  0 0.856463 -10.430153 10.674914 0.109773 -0.981166 -0.158947 0.425781 0.371094 1 0 1.000000
  0 0.856463 -7.474942 0.103640 0.111582 -0.980969 -0.158903 0.425781 0.550781 1 0 1.000000
backpack
  0 5.429699 7.474942 0.932118 0.287325 0.945698 -0.151982 0.503906 0.800781 1 0 1.000000
  0 0.856463 7.474942 0.103640 0.111582 0.980969 -0.158903 0.425781 0.800781 1 0 1.000000
  0 0.856463 10.430153 10.674914 0.109773 0.981166 -0.158947 0.425781 0.980469 1 0 1.000000
backpack
  0 5.429699 7.474942 0.932118 0.287325 0.945698 -0.151982 0.503906 0.800781 1 0 1.000000
  0 0.856463 10.430153 10.674914 0.109773 0.981166 -0.158947 0.425781 0.980469 1 0 1.000000
  0 6.503011 7.474942 10.778554 0.287325 0.945698 -0.151982 0.519531 0.980469 1 0 1.000000
backpack
  0 -5.335084 -8.420815 0.998948 -0.068393 -0.984630 -0.160707 0.316406 0.550781 1 0 1.000000
  0 0.856463 -7.474942 0.103640 0.111582 -0.980969 -0.158903 0.425781 0.550781 1 0 1.000000
  0 0.856463 -10.430153 10.674914 0.109773 -0.981166 -0.158947 0.425781 0.371094 1 0 1.000000
backpack
  0 -5.335084 -8.420815 0.998948 -0.068393 -0.984630 -0.160707 0.316406 0.550781 1 0 1.000000
  0 0.856463 -10.430153 10.674914 0.109773 -0.981166 -0.158947 0.425781 0.371094 1 0 1.000000
  0 -3.815007 -8.875854 10.674914 -0.068393 -0.984630 -0.160707 0.347656 0.371094 1 0 1.000000
backpack
  0 -3.815007 -8.875854 10.674914 -0.995740 0.000000 0.092205 0.003906 0.167969 1 0 1.000000
  0 -3.815007 8.875854 10.674914 -0.995740 0.000000 0.092205 0.308594 0.167969 1 0 1.000000
  0 -5.335084 8.420815 0.998948 -0.987884 0.000000 0.155195 0.300781 0.003906 1 0 1.000000
backpack
  0 -3.815007 -8.875854 10.674914 -0.995740 0.000000 0.092205 0.003906 0.167969 1 0 1.000000
  0 -5.335084 8.420815 0.998948 -0.987884 0.000000 0.155195 0.300781 0.003906 1 0 1.000000
  0 -5.335084 -8.420815 0.998948 -0.987884 0.000000 0.155195 0.011719 0.003906 1 0 1.000000
backpack
  0 -3.459441 -8.548634 22.668722 -0.999510 0.000000 -0.031299 0.011719 0.378906 1 0 1.000000
  0 -3.807835 -7.061715 25.557232 -0.992805 0.000000 -0.119746 0.035156 0.425781 1 0 1.000000
  0 -3.807835 7.061715 25.557232 -0.992805 0.000000 -0.119746 0.277344 0.425781 1 0 1.000000
backpack
  0 -3.459441 -8.548634 22.668722 -0.999510 0.000000 -0.031299 0.011719 0.378906 1 0 1.000000
  0 -3.807835 7.061715 25.557232 -0.992805 0.000000 -0.119746 0.277344 0.425781 1 0 1.000000
  0 -3.459441 8.548634 22.668722 -0.999510 0.000000 -0.031299 0.300781 0.378906 1 0 1.000000
backpack
  0 -3.815007 -8.875854 10.674914 -0.995740 0.000000 0.092205 0.003906 0.167969 1 0 1.000000
  0 -3.459441 -8.548634 22.668722 -0.999510 0.000000 -0.031299 0.011719 0.378906 1 0 1.000000
  0 -3.459441 8.548634 22.668722 -0.999510 0.000000 -0.031299 0.300781 0.378906 1 0 1.000000
backpack
  0 -3.815007 -8.875854 10.674914 -0.995740 0.000000 0.092205 0.003906 0.167969 1 0 1.000000
  0 -3.459441 8.548634 22.668722 -0.999510 0.000000 -0.031299 0.300781 0.378906 1 0 1.000000
  0 -3.815007 8.875854 10.674914 -0.995740 0.000000 0.092205 0.308594 0.167969 1 0 1.000000
end
