version 1
nodes
0 "root" -1
end
skeleton
  time 0
  0 0.000000 0.000000 0.000000 0.000000 0.000000 0.000000
end
triangles
g_nail
  0 4.755382 0.894897 22.878618 0.673251 0.548181 -0.496217 0.590000 0.485000 1 0 1.000000
  0 1.884388 0.894897 23.516621 -0.426446 0.634740 -0.644398 0.520000 0.470000 1 0 1.000000
  0 3.479388 0.894897 25.111616 0.607981 0.783900 0.125935 0.560000 0.430000 1 0 1.000000
g_nail
  0 0.927384 0.894897 28.620621 -0.678661 0.659188 0.323867 0.500000 0.350000 1 0 1.000000
  0 3.798383 0.894897 27.982620 0.552728 0.789124 -0.267909 0.565000 0.365000 1 0 1.000000
  0 0.289388 0.894897 25.749617 -0.764217 0.625921 -0.155546 0.485000 0.415000 1 0 1.000000
g_nail
  0 3.798383 0.894897 27.982620 0.552728 0.789124 -0.267909 0.565000 0.365000 1 0 1.000000
  0 0.927384 0.894897 28.620621 -0.678661 0.659188 0.323867 0.500000 0.350000 1 0 1.000000
  0 2.203383 0.904165 30.215622 -0.447747 0.821100 0.354003 0.530000 0.310000 1 0 1.000000
g_nail
  0 -9.599614 -0.891503 25.111616 0.607979 -0.783902 0.125932 0.755000 0.650000 1 0 1.000000
  0 -9.280616 0.894897 27.982620 0.552728 0.789124 -0.267909 0.800000 0.580000 1 0 1.000000
  0 -9.280616 -0.891503 27.982620 0.553065 -0.790352 -0.263558 0.755000 0.580000 1 0 1.000000
g_nail
  0 0.927384 -0.891503 28.620621 -0.677102 -0.659964 0.325546 0.825000 0.565000 1 0 1.000000
  0 0.289388 0.894897 25.749617 -0.764217 0.625921 -0.155546 0.865000 0.635000 1 0 1.000000
  0 0.289388 -0.891503 25.749617 -0.764231 -0.625904 -0.155547 0.825000 0.635000 1 0 1.000000
g_nail
  0 4.755382 -0.891503 22.878618 0.673285 -0.548136 -0.496220 0.005000 0.460000 1 0 1.000000
  0 3.479388 0.894897 25.111616 0.607981 0.783900 0.125935 0.065000 0.500000 1 0 1.000000
  0 3.479388 -0.891503 25.111616 0.607979 -0.783902 0.125932 0.065000 0.460000 1 0 1.000000
g_nail
  0 6.031392 -0.882235 30.215620 0.633424 -0.447093 -0.631571 0.205000 0.460000 1 0 1.000000
  0 3.798383 -0.891503 27.982620 0.553065 -0.790352 -0.263558 0.135000 0.460000 1 0 1.000000
  0 3.798383 0.894897 27.982620 0.552728 0.789124 -0.267909 0.135000 0.500000 1 0 1.000000
g_nail
  0 2.203383 -0.882235 30.215622 -0.447460 -0.817699 0.362144 0.825000 0.520000 1 0 1.000000
  0 2.203383 0.904165 30.215622 -0.447747 0.821100 0.354003 0.870000 0.520000 1 0 1.000000
  0 0.927384 0.894897 28.620621 -0.678661 0.659188 0.323867 0.865000 0.565000 1 0 1.000000
g_nail
  0 0.927384 -0.891503 28.620621 -0.677102 -0.659964 0.325546 0.530000 0.165000 1 0 1.000000
  0 0.289388 -0.891503 25.749617 -0.764231 -0.625904 -0.155547 0.515000 0.235000 1 0 1.000000
  0 3.798383 -0.891503 27.982620 0.553065 -0.790352 -0.263558 0.600000 0.180000 1 0 1.000000
g_nail
  0 6.031392 -0.882235 30.215620 0.633424 -0.447093 -0.631571 0.650000 0.130000 1 0 1.000000
  0 2.203383 -0.882235 30.215622 -0.447460 -0.817699 0.362144 0.560000 0.130000 1 0 1.000000
  0 3.798383 -0.891503 27.982620 0.553065 -0.790352 -0.263558 0.600000 0.180000 1 0 1.000000
g_nail
  0 -15.979615 1.342159 32.448620 -0.648723 0.730040 0.214942 0.650000 0.900000 1 0 1.000000
  0 11.310753 1.342159 30.215620 0.604719 0.674470 -0.423562 0.020000 0.955000 1 0 1.000000
  0 -15.979615 1.342159 30.215620 -0.604725 0.674467 -0.423559 0.650000 0.955000 1 0 1.000000
g_nail
  0 -10.875619 -0.882235 30.215622 -0.447460 -0.817699 0.362144 0.405000 0.125000 1 0 1.000000
  0 -12.151618 -0.891503 28.620621 -0.677102 -0.659964 0.325546 0.375000 0.160000 1 0 1.000000
  0 -9.280616 -0.891503 27.982620 0.553065 -0.790352 -0.263558 0.445000 0.175000 1 0 1.000000
g_nail
  0 11.310753 -1.337442 32.448620 0.648712 -0.730049 0.214945 0.020000 0.810000 1 0 1.000000
  0 -15.979615 -1.337442 30.215620 -0.604733 -0.674461 -0.423556 0.650000 0.760000 1 0 1.000000
  0 11.310753 -1.337442 30.215620 0.604739 -0.674458 -0.423553 0.020000 0.760000 1 0 1.000000
g_nail
  0 11.310753 1.342159 30.215620 0.604719 0.674470 -0.423562 0.975000 0.595000 1 0 1.000000
  0 11.310753 -1.337442 30.215620 0.604739 -0.674458 -0.423553 0.915000 0.595000 1 0 1.000000
  0 11.310753 0.002358 29.569576 0.621161 -0.000003 -0.783683 0.945000 0.610000 1 0 1.000000
g_nail
  0 -7.047613 -0.882235 30.215620 0.633424 -0.447094 -0.631570 0.495000 0.125000 1 0 1.000000
  0 -10.875619 -0.882235 30.215622 -0.447460 -0.817699 0.362144 0.405000 0.125000 1 0 1.000000
  0 -9.280616 -0.891503 27.982620 0.553065 -0.790352 -0.263558 0.445000 0.175000 1 0 1.000000
g_nail
  0 -15.979615 0.672259 33.487633 -0.641079 0.476033 0.602005 0.650000 0.875000 1 0 1.000000
  0 -15.979615 0.002358 33.724617 -0.639171 -0.000002 0.769065 0.650000 0.855000 1 0 1.000000
  0 11.310753 0.002358 33.724617 0.639171 0.000002 0.769065 0.020000 0.855000 1 0 1.000000
g_nail
  0 11.310753 -0.667542 33.487633 0.641079 -0.476033 0.602005 0.020000 0.840000 1 0 1.000000
  0 11.310753 0.002358 33.724617 0.639171 0.000002 0.769065 0.020000 0.855000 1 0 1.000000
  0 -15.979615 0.002358 33.724617 -0.639171 -0.000002 0.769065 0.650000 0.855000 1 0 1.000000
g_nail
  0 -9.280616 0.894897 27.982620 0.552728 0.789124 -0.267909 0.400000 0.375000 1 0 1.000000
  0 -10.875619 0.904165 30.215622 -0.447747 0.821100 0.354003 0.365000 0.325000 1 0 1.000000
  0 -7.047613 0.904165 30.215620 0.631469 0.447375 -0.633327 0.450000 0.325000 1 0 1.000000
g_nail
  0 -9.280616 0.894897 27.982620 0.552728 0.789124 -0.267909 0.400000 0.375000 1 0 1.000000
  0 -12.151618 0.894897 28.620621 -0.678661 0.659188 0.323867 0.335000 0.360000 1 0 1.000000
  0 -10.875619 0.904165 30.215622 -0.447747 0.821100 0.354003 0.365000 0.325000 1 0 1.000000
g_nail
  0 -12.151618 0.894897 28.620621 -0.678661 0.659188 0.323867 0.335000 0.360000 1 0 1.000000
  0 -9.280616 0.894897 27.982620 0.552728 0.789124 -0.267909 0.400000 0.375000 1 0 1.000000
  0 -12.789615 0.894897 25.749617 -0.764217 0.625921 -0.155546 0.320000 0.430000 1 0 1.000000
g_nail
  0 -11.194613 -0.891503 23.516621 -0.426452 -0.634729 -0.644405 0.685000 0.710000 1 0 1.000000
  0 -12.789615 -0.891503 25.749617 -0.764231 -0.625904 -0.155547 0.685000 0.650000 1 0 1.000000
  0 -12.789615 0.894897 25.749617 -0.764217 0.625921 -0.155546 0.725000 0.650000 1 0 1.000000
g_nail
  0 -12.151618 -0.891503 28.620621 -0.677102 -0.659964 0.325546 0.375000 0.160000 1 0 1.000000
  0 -12.789615 -0.891503 25.749617 -0.764231 -0.625904 -0.155547 0.360000 0.230000 1 0 1.000000
  0 -9.280616 -0.891503 27.982620 0.553065 -0.790352 -0.263558 0.445000 0.175000 1 0 1.000000
g_nail
  0 -9.599614 0.894897 25.111616 0.607980 0.783900 0.125935 0.390000 0.445000 1 0 1.000000
  0 -12.789615 0.894897 25.749617 -0.764217 0.625921 -0.155546 0.320000 0.430000 1 0 1.000000
  0 -9.280616 0.894897 27.982620 0.552728 0.789124 -0.267909 0.400000 0.375000 1 0 1.000000
g_nail
  0 -11.194613 0.894897 23.516621 -0.426446 0.634740 -0.644398 0.355000 0.480000 1 0 1.000000
  0 -12.789615 0.894897 25.749617 -0.764217 0.625921 -0.155546 0.320000 0.430000 1 0 1.000000
  0 -9.599614 0.894897 25.111616 0.607980 0.783900 0.125935 0.390000 0.445000 1 0 1.000000
g_nail
  0 2.203383 -0.882235 30.215622 -0.447460 -0.817699 0.362144 0.560000 0.130000 1 0 1.000000
  0 0.927384 -0.891503 28.620621 -0.677102 -0.659964 0.325546 0.530000 0.165000 1 0 1.000000
  0 3.798383 -0.891503 27.982620 0.553065 -0.790352 -0.263558 0.600000 0.180000 1 0 1.000000
g_nail
  0 11.310753 0.672259 33.487633 0.641076 0.476034 0.602007 0.960000 0.515000 1 0 1.000000
  0 11.310753 -0.667542 33.487633 0.641079 -0.476033 0.602005 0.930000 0.515000 1 0 1.000000
  0 11.310753 -1.337442 32.448620 0.648712 -0.730049 0.214945 0.915000 0.540000 1 0 1.000000
g_nail
  0 11.310753 1.342159 32.448620 0.648724 0.730038 0.214945 0.975000 0.540000 1 0 1.000000
  0 11.310753 -1.337442 30.215620 0.604739 -0.674458 -0.423553 0.915000 0.595000 1 0 1.000000
  0 11.310753 1.342159 30.215620 0.604719 0.674470 -0.423562 0.975000 0.595000 1 0 1.000000
g_nail
  0 -15.979615 -1.337442 30.215620 -0.604733 -0.674461 -0.423556 0.650000 0.760000 1 0 1.000000
  0 11.310753 0.002358 29.569576 0.621161 -0.000003 -0.783683 0.020000 0.725000 1 0 1.000000
  0 11.310753 -1.337442 30.215620 0.604739 -0.674458 -0.423553 0.020000 0.760000 1 0 1.000000
g_nail
  0 11.310753 1.342159 30.215620 0.604719 0.674470 -0.423562 0.020000 0.955000 1 0 1.000000
  0 -15.979615 0.002358 29.569576 -0.621161 0.000003 -0.783683 0.650000 0.990000 1 0 1.000000
  0 -15.979615 1.342159 30.215620 -0.604725 0.674467 -0.423559 0.650000 0.955000 1 0 1.000000
g_nail
  0 -15.979615 -1.337442 30.215620 -0.604733 -0.674461 -0.423556 0.990000 0.450000 1 0 1.000000
  0 -15.979615 1.342159 30.215620 -0.604725 0.674467 -0.423559 0.930000 0.450000 1 0 1.000000
  0 -15.979615 0.002358 29.569576 -0.621161 0.000003 -0.783683 0.960000 0.465000 1 0 1.000000
g_nail
  0 1.884388 -0.891503 23.516621 -0.426453 -0.634729 -0.644404 0.825000 0.700000 1 0 1.000000
  0 0.289388 -0.891503 25.749617 -0.764231 -0.625904 -0.155547 0.825000 0.635000 1 0 1.000000
  0 0.289388 0.894897 25.749617 -0.764217 0.625921 -0.155546 0.865000 0.635000 1 0 1.000000
g_nail
  0 1.884388 -0.891503 23.516621 -0.426453 -0.634729 -0.644404 0.295000 0.435000 1 0 1.000000
  0 4.755382 0.894897 22.878618 0.673251 0.548181 -0.496217 0.250000 0.505000 1 0 1.000000
  0 4.755382 -0.891503 22.878618 0.673285 -0.548136 -0.496220 0.295000 0.505000 1 0 1.000000
g_nail
  0 3.479388 0.894897 25.111616 0.607981 0.783900 0.125935 0.560000 0.430000 1 0 1.000000
  0 0.289388 0.894897 25.749617 -0.764217 0.625921 -0.155546 0.485000 0.415000 1 0 1.000000
  0 3.798383 0.894897 27.982620 0.552728 0.789124 -0.267909 0.565000 0.365000 1 0 1.000000
g_nail
  0 1.884388 0.894897 23.516621 -0.426446 0.634740 -0.644398 0.520000 0.470000 1 0 1.000000
  0 0.289388 0.894897 25.749617 -0.764217 0.625921 -0.155546 0.485000 0.415000 1 0 1.000000
  0 3.479388 0.894897 25.111616 0.607981 0.783900 0.125935 0.560000 0.430000 1 0 1.000000
g_nail
  0 1.884388 -0.891503 23.516621 -0.426453 -0.634729 -0.644404 0.555000 0.285000 1 0 1.000000
  0 4.755382 -0.891503 22.878618 0.673285 -0.548136 -0.496220 0.620000 0.300000 1 0 1.000000
  0 0.289388 -0.891503 25.749617 -0.764231 -0.625904 -0.155547 0.515000 0.235000 1 0 1.000000
g_nail
  0 0.289388 -0.891503 25.749617 -0.764231 -0.625904 -0.155547 0.515000 0.235000 1 0 1.000000
  0 3.479388 -0.891503 25.111616 0.607979 -0.783902 0.125932 0.590000 0.250000 1 0 1.000000
  0 3.798383 -0.891503 27.982620 0.553065 -0.790352 -0.263558 0.600000 0.180000 1 0 1.000000
g_nail
  0 4.755382 -0.891503 22.878618 0.673285 -0.548136 -0.496220 0.620000 0.300000 1 0 1.000000
  0 3.479388 -0.891503 25.111616 0.607979 -0.783902 0.125932 0.590000 0.250000 1 0 1.000000
  0 0.289388 -0.891503 25.749617 -0.764231 -0.625904 -0.155547 0.515000 0.235000 1 0 1.000000
g_nail
  0 3.798383 0.894897 27.982620 0.552728 0.789124 -0.267909 0.565000 0.365000 1 0 1.000000
  0 2.203383 0.904165 30.215622 -0.447747 0.821100 0.354003 0.530000 0.310000 1 0 1.000000
  0 6.031392 0.904165 30.215620 0.631468 0.447374 -0.633328 0.620000 0.310000 1 0 1.000000
g_nail
  0 -11.194613 -0.891503 23.516621 -0.426452 -0.634729 -0.644405 0.505000 0.180000 1 0 1.000000
  0 -8.323615 0.894897 22.878618 0.673251 0.548181 -0.496216 0.460000 0.250000 1 0 1.000000
  0 -8.323615 -0.891503 22.878618 0.673285 -0.548136 -0.496220 0.505000 0.250000 1 0 1.000000
g_nail
  0 -8.323615 -0.891503 22.878618 0.673285 -0.548136 -0.496220 0.755000 0.710000 1 0 1.000000
  0 -9.599614 0.894897 25.111616 0.607980 0.783900 0.125935 0.800000 0.650000 1 0 1.000000
  0 -9.599614 -0.891503 25.111616 0.607979 -0.783902 0.125932 0.755000 0.650000 1 0 1.000000
g_nail
  0 3.479388 -0.891503 25.111616 0.607979 -0.783902 0.125932 0.065000 0.460000 1 0 1.000000
  0 3.798383 0.894897 27.982620 0.552728 0.789124 -0.267909 0.135000 0.500000 1 0 1.000000
  0 3.798383 -0.891503 27.982620 0.553065 -0.790352 -0.263558 0.135000 0.460000 1 0 1.000000
g_nail
  0 -8.323615 0.894897 22.878618 0.673251 0.548181 -0.496216 0.420000 0.495000 1 0 1.000000
  0 -11.194613 0.894897 23.516621 -0.426446 0.634740 -0.644398 0.355000 0.480000 1 0 1.000000
  0 -9.599614 0.894897 25.111616 0.607980 0.783900 0.125935 0.390000 0.445000 1 0 1.000000
g_nail
  0 -12.789615 -0.891503 25.749617 -0.764231 -0.625904 -0.155547 0.360000 0.230000 1 0 1.000000
  0 -9.599614 -0.891503 25.111616 0.607979 -0.783902 0.125932 0.435000 0.245000 1 0 1.000000
  0 -9.280616 -0.891503 27.982620 0.553065 -0.790352 -0.263558 0.445000 0.175000 1 0 1.000000
g_nail
  0 -8.323615 -0.891503 22.878618 0.673285 -0.548136 -0.496220 0.465000 0.295000 1 0 1.000000
  0 -9.599614 -0.891503 25.111616 0.607979 -0.783902 0.125932 0.435000 0.245000 1 0 1.000000
  0 -12.789615 -0.891503 25.749617 -0.764231 -0.625904 -0.155547 0.360000 0.230000 1 0 1.000000
g_nail
  0 -11.194613 -0.891503 23.516621 -0.426452 -0.634729 -0.644405 0.400000 0.280000 1 0 1.000000
  0 -8.323615 -0.891503 22.878618 0.673285 -0.548136 -0.496220 0.465000 0.295000 1 0 1.000000
  0 -12.789615 -0.891503 25.749617 -0.764231 -0.625904 -0.155547 0.360000 0.230000 1 0 1.000000
g_nail
  0 -12.151618 -0.891503 28.620621 -0.677102 -0.659964 0.325546 0.685000 0.580000 1 0 1.000000
  0 -12.789615 0.894897 25.749617 -0.764217 0.625921 -0.155546 0.725000 0.650000 1 0 1.000000
  0 -12.789615 -0.891503 25.749617 -0.764231 -0.625904 -0.155547 0.685000 0.650000 1 0 1.000000
g_nail
  0 -7.047613 -0.882235 30.215620 0.633424 -0.447094 -0.631570 0.755000 0.510000 1 0 1.000000
  0 -9.280616 -0.891503 27.982620 0.553065 -0.790352 -0.263558 0.755000 0.580000 1 0 1.000000
  0 -9.280616 0.894897 27.982620 0.552728 0.789124 -0.267909 0.800000 0.580000 1 0 1.000000
g_nail
  0 -10.875619 -0.882235 30.215622 -0.447460 -0.817699 0.362144 0.685000 0.535000 1 0 1.000000
  0 -10.875619 0.904165 30.215622 -0.447747 0.821100 0.354003 0.725000 0.530000 1 0 1.000000
  0 -12.151618 0.894897 28.620621 -0.678661 0.659188 0.323867 0.725000 0.580000 1 0 1.000000
g_nail
  0 -15.979615 -0.667542 33.487633 -0.641076 -0.476034 0.602007 0.975000 0.375000 1 0 1.000000
  0 -15.979615 0.672259 33.487633 -0.641079 0.476033 0.602005 0.945000 0.375000 1 0 1.000000
  0 -15.979615 1.342159 32.448620 -0.648723 0.730040 0.214942 0.930000 0.400000 1 0 1.000000
g_nail
  0 -15.979615 -1.337442 30.215620 -0.604733 -0.674461 -0.423556 0.990000 0.450000 1 0 1.000000
  0 -15.979615 1.342159 32.448620 -0.648723 0.730040 0.214942 0.930000 0.400000 1 0 1.000000
  0 -15.979615 1.342159 30.215620 -0.604725 0.674467 -0.423559 0.930000 0.450000 1 0 1.000000
g_nail
  0 -3.393617 6.728774 34.804409 0.000006 0.757182 0.653203 0.260000 0.015000 1 0 1.000000
  0 -0.034545 5.828710 31.117411 0.378586 0.655740 -0.653206 0.175000 0.100000 1 0 1.000000
  0 -3.393617 6.728774 31.117411 -0.000006 0.757172 -0.653216 0.260000 0.100000 1 0 1.000000
g_nail
  0 -0.034545 5.828710 34.804409 0.378590 0.655724 0.653219 0.175000 0.015000 1 0 1.000000
  0 2.424458 3.369702 31.117411 0.655726 0.378591 -0.653217 0.095000 0.100000 1 0 1.000000
  0 -0.034545 5.828710 31.117411 0.378586 0.655740 -0.653206 0.175000 0.100000 1 0 1.000000
g_nail
  0 2.424458 3.369702 34.804409 0.655732 0.378581 0.653217 0.095000 0.015000 1 0 1.000000
  0 3.324526 0.010632 31.117411 0.757172 0.000006 -0.653216 0.015000 0.100000 1 0 1.000000
  0 2.424458 3.369702 31.117411 0.655726 0.378591 -0.653217 0.095000 0.100000 1 0 1.000000
g_nail
  0 3.324526 0.010632 34.804409 0.757173 -0.000005 0.653214 0.985000 0.015000 1 0 1.000000
  0 2.424458 -3.348439 31.117411 0.655734 -0.378582 -0.653214 0.905000 0.100000 1 0 1.000000
  0 3.324526 0.010632 31.117411 0.757172 0.000006 -0.653216 0.985000 0.100000 1 0 1.000000
g_nail
  0 2.424458 -3.348439 34.804409 0.655740 -0.378599 0.653199 0.905000 0.015000 1 0 1.000000
  0 -0.034545 -5.807448 31.117411 0.378597 -0.655736 -0.653203 0.825000 0.100000 1 0 1.000000
  0 2.424458 -3.348439 31.117411 0.655734 -0.378582 -0.653214 0.905000 0.100000 1 0 1.000000
g_nail
  0 -0.034545 -5.807448 34.804409 0.378581 -0.655733 0.653216 0.825000 0.015000 1 0 1.000000
  0 -3.393617 -6.707509 31.117411 0.000006 -0.757172 -0.653216 0.740000 0.100000 1 0 1.000000
  0 -0.034545 -5.807448 31.117411 0.378597 -0.655736 -0.653203 0.825000 0.100000 1 0 1.000000
g_nail
  0 -3.393617 -6.707509 34.804409 -0.000006 -0.757182 0.653204 0.740000 0.015000 1 0 1.000000
  0 -6.752686 -5.807448 31.117411 -0.378587 -0.655742 -0.653204 0.660000 0.100000 1 0 1.000000
  0 -3.393617 -6.707509 31.117411 0.000006 -0.757172 -0.653216 0.740000 0.100000 1 0 1.000000
g_nail
  0 -6.752686 -5.807448 34.804409 -0.378591 -0.655727 0.653216 0.660000 0.015000 1 0 1.000000
  0 -9.211688 -3.348442 31.117411 -0.655736 -0.378596 -0.653204 0.580000 0.100000 1 0 1.000000
  0 -6.752686 -5.807448 31.117411 -0.378587 -0.655742 -0.653204 0.660000 0.100000 1 0 1.000000
g_nail
  0 -9.211688 -3.348442 34.804409 -0.655739 -0.378586 0.653207 0.580000 0.015000 1 0 1.000000
  0 -10.111757 0.010632 31.117411 -0.757171 -0.000005 -0.653217 0.500000 0.100000 1 0 1.000000
  0 -9.211688 -3.348442 31.117411 -0.655736 -0.378596 -0.653204 0.580000 0.100000 1 0 1.000000
g_nail
  0 -10.111757 0.010632 34.804409 -0.757172 0.000006 0.653216 0.500000 0.015000 1 0 1.000000
  0 -9.211688 3.369696 31.117411 -0.655741 0.378586 -0.653204 0.420000 0.100000 1 0 1.000000
  0 -10.111757 0.010632 31.117411 -0.757171 -0.000005 -0.653217 0.500000 0.100000 1 0 1.000000
g_nail
  0 2.424458 -3.348439 34.804409 0.655740 -0.378599 0.653199 0.885000 0.135000 1 0 1.000000
  0 2.424458 3.369702 34.804409 0.655732 0.378581 0.653217 0.725000 0.135000 1 0 1.000000
  0 -9.211688 3.369696 34.804409 -0.655745 0.378601 0.653192 0.725000 0.410000 1 0 1.000000
g_nail
  0 -9.211688 3.369696 34.804409 -0.655745 0.378601 0.653192 0.420000 0.015000 1 0 1.000000
  0 -6.752686 5.828710 31.117411 -0.378597 0.655736 -0.653203 0.340000 0.100000 1 0 1.000000
  0 -9.211688 3.369696 31.117411 -0.655741 0.378586 -0.653204 0.420000 0.100000 1 0 1.000000
g_nail
  0 -6.752686 5.828710 34.804409 -0.378582 0.655732 0.653216 0.340000 0.015000 1 0 1.000000
  0 -3.393617 6.728774 31.117411 -0.000006 0.757172 -0.653216 0.260000 0.100000 1 0 1.000000
  0 -6.752686 5.828710 31.117411 -0.378597 0.655736 -0.653203 0.340000 0.100000 1 0 1.000000
g_nail
  0 2.424458 3.369702 31.117411 0.655726 0.378591 -0.653217 0.253418 0.145237 1 0 1.000000
  0 2.424458 -3.348439 31.117411 0.655734 -0.378582 -0.653214 0.096538 0.148932 1 0 1.000000
  0 -9.211688 3.369696 31.117411 -0.655741 0.378586 -0.653204 0.263462 0.416068 1 0 1.000000
g_nail
  0 -2.607269 -0.779995 35.677612 0.548989 -0.548993 0.630252 0.655000 0.560000 1 0 1.000000
  0 -3.396756 -1.107010 35.677612 -0.000003 -0.776381 0.630264 0.655000 0.580000 1 0 1.000000
  0 -3.396756 -1.107010 34.401611 0.000002 -1.000000 0.000000 0.625000 0.580000 1 0 1.000000
g_nail
  0 11.619283 -3.038493 33.226398 0.000000 1.000000 -0.000004 0.600000 0.575000 1 0 1.000000
  0 -0.092393 -3.365507 32.436916 0.000000 0.707109 -0.707105 0.325000 0.555000 1 0 1.000000
  0 -0.092393 -3.038493 33.226398 0.000000 1.000000 0.000003 0.325000 0.575000 1 0 1.000000
g_nail
  0 -2.607269 0.798974 35.677612 0.548992 0.548989 0.630252 0.655000 0.680000 1 0 1.000000
  0 -2.280254 0.009488 35.677612 0.776393 -0.000003 0.630250 0.655000 0.700000 1 0 1.000000
  0 -2.280254 0.009488 34.401611 1.000000 0.000003 0.000000 0.625000 0.700000 1 0 1.000000
g_nail
  0 11.619283 -3.365507 32.436916 0.000000 0.707104 -0.707110 0.600000 0.555000 1 0 1.000000
  0 -0.092393 -4.154993 32.109901 0.000000 0.000002 -1.000000 0.325000 0.535000 1 0 1.000000
  0 -0.092393 -3.365507 32.436916 0.000000 0.707109 -0.707105 0.325000 0.555000 1 0 1.000000
g_nail
  0 11.619283 -4.154993 32.109901 0.000000 -0.000004 -1.000000 0.600000 0.690000 1 0 1.000000
  0 -0.092393 -4.944476 32.436916 0.000000 -0.707104 -0.707109 0.325000 0.670000 1 0 1.000000
  0 -0.092393 -4.154993 32.109901 0.000000 0.000002 -1.000000 0.325000 0.690000 1 0 1.000000
g_nail
  0 -3.396756 -1.107010 35.677612 -0.000003 -0.776381 0.630264 0.950000 0.120000 1 0 1.000000
  0 -3.396756 1.125989 35.677612 0.000002 0.776381 0.630264 0.970000 0.170000 1 0 1.000000
  0 -4.513254 0.009488 35.677612 -0.776393 0.000002 0.630250 0.935000 0.155000 1 0 1.000000
g_nail
  0 11.619283 -4.944476 32.436916 0.000000 -0.707109 -0.707105 0.600000 0.670000 1 0 1.000000
  0 -0.092393 -5.271492 33.226398 0.000000 -1.000000 -0.000004 0.325000 0.650000 1 0 1.000000
  0 -0.092393 -4.944476 32.436916 0.000000 -0.707104 -0.707109 0.325000 0.670000 1 0 1.000000
g_nail
  0 11.619283 -5.271492 33.226398 0.000000 -1.000000 0.000002 0.600000 0.650000 1 0 1.000000
  0 -0.092393 -4.944476 34.015884 0.000000 -0.707109 0.707104 0.325000 0.630000 1 0 1.000000
  0 -0.092393 -5.271492 33.226398 0.000000 -1.000000 -0.000004 0.325000 0.650000 1 0 1.000000
g_nail
  0 11.619283 -4.944476 34.015884 0.000000 -0.707105 0.707109 0.600000 0.630000 1 0 1.000000
  0 -0.092393 -4.154993 34.342899 0.000000 -0.000004 1.000000 0.325000 0.610000 1 0 1.000000
  0 -0.092393 -4.944476 34.015884 0.000000 -0.707109 0.707104 0.325000 0.630000 1 0 1.000000
g_nail
  0 17.510605 5.244288 31.483120 0.592086 0.492189 -0.638110 0.815000 0.785000 1 0 1.000000
  0 11.409875 3.033731 31.483120 -0.592086 -0.492188 -0.638110 0.675000 0.735000 1 0 1.000000
  0 11.409875 5.244288 31.483120 -0.592075 0.492169 -0.638135 0.675000 0.785000 1 0 1.000000
g_nail
  0 11.619283 -4.154993 34.342899 0.000000 0.000002 1.000000 0.600000 0.610000 1 0 1.000000
  0 -0.092393 -3.365507 34.015884 0.000000 0.707105 0.707109 0.325000 0.595000 1 0 1.000000
  0 -0.092393 -4.154993 34.342899 0.000000 -0.000004 1.000000 0.325000 0.610000 1 0 1.000000
g_nail
  0 -4.186240 -0.779995 35.677612 -0.548993 -0.548989 0.630252 0.655000 0.600000 1 0 1.000000
  0 -4.513254 0.009488 35.677612 -0.776393 0.000002 0.630250 0.655000 0.620000 1 0 1.000000
  0 -4.513254 0.009488 34.401611 -1.000000 -0.000003 0.000000 0.625000 0.620000 1 0 1.000000
g_nail
  0 11.619283 -3.365507 34.015884 0.000000 0.707110 0.707104 0.600000 0.595000 1 0 1.000000
  0 -0.092393 -3.038493 33.226398 0.000000 1.000000 0.000003 0.325000 0.575000 1 0 1.000000
  0 -0.092393 -3.365507 34.015884 0.000000 0.707105 0.707109 0.325000 0.595000 1 0 1.000000
g_nail
  0 0.927384 -0.891503 28.620621 -0.677102 -0.659964 0.325546 0.825000 0.565000 1 0 1.000000
  0 0.927384 0.894897 28.620621 -0.678661 0.659188 0.323867 0.865000 0.565000 1 0 1.000000
  0 0.289388 0.894897 25.749617 -0.764217 0.625921 -0.155546 0.865000 0.635000 1 0 1.000000
g_nail
  0 -4.513254 0.009488 35.677612 -0.776393 0.000002 0.630250 0.655000 0.620000 1 0 1.000000
  0 -4.186240 0.798974 35.677612 -0.548990 0.548992 0.630252 0.655000 0.640000 1 0 1.000000
  0 -4.186240 0.798974 34.401611 -0.707110 0.707104 0.000000 0.625000 0.640000 1 0 1.000000
g_nail
  0 -3.396756 -1.107010 35.677612 -0.000003 -0.776381 0.630264 0.655000 0.580000 1 0 1.000000
  0 -4.186240 -0.779995 35.677612 -0.548993 -0.548989 0.630252 0.655000 0.600000 1 0 1.000000
  0 -4.186240 -0.779995 34.401611 -0.707105 -0.707108 0.000000 0.625000 0.600000 1 0 1.000000
g_nail
  0 -2.280254 0.009488 35.677612 0.776393 -0.000003 0.630250 0.655000 0.540000 1 0 1.000000
  0 -2.607269 -0.779995 35.677612 0.548989 -0.548993 0.630252 0.655000 0.560000 1 0 1.000000
  0 -2.607269 -0.779995 34.401611 0.707109 -0.707105 0.000000 0.625000 0.560000 1 0 1.000000
g_nail
  0 -3.396756 1.125989 35.677612 0.000002 0.776381 0.630264 0.655000 0.660000 1 0 1.000000
  0 -2.607269 0.798974 35.677612 0.548992 0.548989 0.630252 0.655000 0.680000 1 0 1.000000
  0 -2.607269 0.798974 34.401611 0.707105 0.707109 0.000000 0.625000 0.680000 1 0 1.000000
g_nail
  0 -4.186240 0.798974 35.677612 -0.548990 0.548992 0.630252 0.655000 0.640000 1 0 1.000000
  0 -3.396756 1.125989 35.677612 0.000002 0.776381 0.630264 0.655000 0.660000 1 0 1.000000
  0 -3.396756 1.125989 34.401611 -0.000003 1.000000 0.000000 0.625000 0.660000 1 0 1.000000
g_nail
  0 17.510605 -2.591893 33.226398 0.641848 0.765063 0.052063 0.835000 0.885000 1 0 1.000000
  0 11.409875 -3.049713 31.483120 -0.592075 0.492168 -0.638135 0.975000 0.925000 1 0 1.000000
  0 11.409875 -2.591893 33.226398 -0.641838 0.765071 0.052055 0.975000 0.885000 1 0 1.000000
g_nail
  0 17.510605 -5.260269 31.483120 0.592075 -0.492168 -0.638136 0.835000 0.730000 1 0 1.000000
  0 11.409875 -5.718091 33.226398 -0.641848 -0.765063 0.052063 0.975000 0.775000 1 0 1.000000
  0 11.409875 -5.260269 31.483120 -0.592086 -0.492188 -0.638111 0.975000 0.730000 1 0 1.000000
g_nail
  0 17.510605 -5.718091 33.226398 0.641838 -0.765071 0.052055 0.835000 0.775000 1 0 1.000000
  0 11.409875 -5.260269 34.331680 -0.630259 -0.548985 0.548989 0.975000 0.800000 1 0 1.000000
  0 11.409875 -5.718091 33.226398 -0.641848 -0.765063 0.052063 0.975000 0.775000 1 0 1.000000
g_nail
  0 17.510605 -5.260269 34.331680 0.630274 -0.548981 0.548976 0.835000 0.800000 1 0 1.000000
  0 11.409875 -4.154994 34.789501 -0.630269 0.000003 0.776377 0.975000 0.830000 1 0 1.000000
  0 11.409875 -5.260269 34.331680 -0.630259 -0.548985 0.548989 0.975000 0.800000 1 0 1.000000
g_nail
  0 11.409875 -4.154994 34.789501 -0.630269 0.000003 0.776377 0.650000 0.470000 1 0 1.000000
  0 11.409875 -3.049713 34.331680 -0.630273 0.548981 0.548976 0.660000 0.495000 1 0 1.000000
  0 11.409875 -5.718091 33.226398 -0.641848 -0.765063 0.052063 0.685000 0.430000 1 0 1.000000
g_nail
  0 17.510605 -4.154994 34.789501 0.630269 -0.000004 0.776377 0.835000 0.830000 1 0 1.000000
  0 11.409875 -3.049713 34.331680 -0.630273 0.548981 0.548976 0.975000 0.855000 1 0 1.000000
  0 11.409875 -4.154994 34.789501 -0.630269 0.000003 0.776377 0.975000 0.830000 1 0 1.000000
g_nail
  0 17.510605 -3.049713 34.331680 0.630259 0.548986 0.548989 0.835000 0.855000 1 0 1.000000
  0 11.409875 -2.591893 33.226398 -0.641838 0.765071 0.052055 0.975000 0.885000 1 0 1.000000
  0 11.409875 -3.049713 34.331680 -0.630273 0.548981 0.548976 0.975000 0.855000 1 0 1.000000
g_nail
  0 17.510605 -5.718091 33.226398 0.641838 -0.765071 0.052055 0.945000 0.710000 1 0 1.000000
  0 17.510605 -5.260269 31.483120 0.592075 -0.492168 -0.638136 0.985000 0.700000 1 0 1.000000
  0 17.510605 -2.591893 33.226398 0.641848 0.765063 0.052063 0.945000 0.640000 1 0 1.000000
g_nail
  0 11.619283 5.255508 33.226398 0.000000 1.000000 -0.000004 0.290000 0.575000 1 0 1.000000
  0 -0.092393 4.928494 32.436916 0.000000 0.707109 -0.707105 0.020000 0.555000 1 0 1.000000
  0 -0.092393 5.255508 33.226398 0.000000 1.000000 0.000002 0.020000 0.575000 1 0 1.000000
g_nail
  0 11.619283 4.928494 32.436916 0.000000 0.707104 -0.707109 0.290000 0.555000 1 0 1.000000
  0 -0.092393 4.139008 32.109901 0.000000 0.000002 -1.000000 0.020000 0.535000 1 0 1.000000
  0 -0.092393 4.928494 32.436916 0.000000 0.707109 -0.707105 0.020000 0.555000 1 0 1.000000
g_nail
  0 11.619283 4.139008 32.109901 0.000000 -0.000004 -1.000000 0.290000 0.690000 1 0 1.000000
  0 -0.092393 3.349525 32.436916 0.000000 -0.707104 -0.707109 0.020000 0.670000 1 0 1.000000
  0 -0.092393 4.139008 32.109901 0.000000 0.000002 -1.000000 0.020000 0.690000 1 0 1.000000
g_nail
  0 11.619283 3.349525 32.436916 0.000000 -0.707109 -0.707105 0.290000 0.670000 1 0 1.000000
  0 -0.092393 3.022509 33.226398 0.000000 -1.000000 -0.000004 0.020000 0.650000 1 0 1.000000
  0 -0.092393 3.349525 32.436916 0.000000 -0.707104 -0.707109 0.020000 0.670000 1 0 1.000000
g_nail
  0 11.619283 3.022509 33.226398 0.000000 -1.000000 0.000002 0.290000 0.650000 1 0 1.000000
  0 -0.092393 3.349525 34.015884 0.000000 -0.707109 0.707104 0.020000 0.630000 1 0 1.000000
  0 -0.092393 3.022509 33.226398 0.000000 -1.000000 -0.000004 0.020000 0.650000 1 0 1.000000
g_nail
  0 11.619283 3.349525 34.015884 0.000000 -0.707105 0.707109 0.290000 0.630000 1 0 1.000000
  0 -0.092393 4.139008 34.342899 0.000000 -0.000004 1.000000 0.020000 0.610000 1 0 1.000000
  0 -0.092393 3.349525 34.015884 0.000000 -0.707109 0.707104 0.020000 0.630000 1 0 1.000000
g_nail
  0 17.510605 -3.049713 31.483120 0.592086 0.492189 -0.638111 0.835000 0.925000 1 0 1.000000
  0 11.409875 -5.260269 31.483120 -0.592086 -0.492188 -0.638111 0.975000 0.975000 1 0 1.000000
  0 11.409875 -3.049713 31.483120 -0.592075 0.492168 -0.638135 0.975000 0.925000 1 0 1.000000
g_nail
  0 11.619283 4.139008 34.342899 0.000000 0.000002 1.000000 0.290000 0.610000 1 0 1.000000
  0 -0.092393 4.928494 34.015884 0.000000 0.707105 0.707109 0.020000 0.590000 1 0 1.000000
  0 -0.092393 4.139008 34.342899 0.000000 -0.000004 1.000000 0.020000 0.610000 1 0 1.000000
g_nail
  0 11.619283 4.928494 34.015884 0.000000 0.707109 0.707104 0.290000 0.590000 1 0 1.000000
  0 -0.092393 5.255508 33.226398 0.000000 1.000000 0.000002 0.020000 0.575000 1 0 1.000000
  0 -0.092393 4.928494 34.015884 0.000000 0.707105 0.707109 0.020000 0.590000 1 0 1.000000
g_nail
  0 -9.599614 -0.891503 25.111616 0.607979 -0.783902 0.125932 0.755000 0.650000 1 0 1.000000
  0 -9.599614 0.894897 25.111616 0.607980 0.783900 0.125935 0.800000 0.650000 1 0 1.000000
  0 -9.280616 0.894897 27.982620 0.552728 0.789124 -0.267909 0.800000 0.580000 1 0 1.000000
g_nail
  0 17.510605 5.702107 33.226398 0.641848 0.765062 0.052063 0.815000 0.825000 1 0 1.000000
  0 11.409875 5.244288 31.483120 -0.592075 0.492169 -0.638135 0.675000 0.785000 1 0 1.000000
  0 11.409875 5.702107 33.226398 -0.641838 0.765071 0.052055 0.675000 0.825000 1 0 1.000000
g_nail
  0 17.510605 3.033731 31.483120 0.592075 -0.492168 -0.638136 0.815000 0.980000 1 0 1.000000
  0 11.409875 2.575910 33.226398 -0.641848 -0.765063 0.052064 0.675000 0.935000 1 0 1.000000
  0 11.409875 3.033731 31.483120 -0.592086 -0.492188 -0.638110 0.675000 0.980000 1 0 1.000000
g_nail
  0 17.510605 2.575910 33.226398 0.641838 -0.765071 0.052055 0.815000 0.935000 1 0 1.000000
  0 11.409875 3.033731 34.331680 -0.630259 -0.548985 0.548989 0.675000 0.910000 1 0 1.000000
  0 11.409875 2.575910 33.226398 -0.641848 -0.765063 0.052064 0.675000 0.935000 1 0 1.000000
g_nail
  0 17.510605 3.033731 34.331680 0.630274 -0.548982 0.548976 0.815000 0.910000 1 0 1.000000
  0 11.409875 4.139008 34.789501 -0.630269 0.000003 0.776377 0.675000 0.880000 1 0 1.000000
  0 11.409875 3.033731 34.331680 -0.630259 -0.548985 0.548989 0.675000 0.910000 1 0 1.000000
g_nail
  0 11.409875 4.139008 34.789501 -0.630269 0.000003 0.776377 0.585000 0.390000 1 0 1.000000
  0 11.409875 5.244288 34.331680 -0.630273 0.548982 0.548976 0.595000 0.415000 1 0 1.000000
  0 11.409875 2.575910 33.226398 -0.641848 -0.765063 0.052064 0.620000 0.355000 1 0 1.000000
g_nail
  0 17.510605 4.139008 34.789501 0.630269 -0.000004 0.776377 0.815000 0.880000 1 0 1.000000
  0 11.409875 5.244288 34.331680 -0.630273 0.548982 0.548976 0.675000 0.855000 1 0 1.000000
  0 11.409875 4.139008 34.789501 -0.630269 0.000003 0.776377 0.675000 0.880000 1 0 1.000000
g_nail
  0 17.510605 5.244288 34.331680 0.630259 0.548986 0.548989 0.815000 0.855000 1 0 1.000000
  0 11.409875 5.702107 33.226398 -0.641838 0.765071 0.052055 0.675000 0.825000 1 0 1.000000
  0 11.409875 5.244288 34.331680 -0.630273 0.548982 0.548976 0.675000 0.855000 1 0 1.000000
g_nail
  0 17.510605 2.575910 33.226398 0.641838 -0.765071 0.052055 0.850000 0.505000 1 0 1.000000
  0 17.510605 3.033731 31.483120 0.592075 -0.492168 -0.638136 0.890000 0.495000 1 0 1.000000
  0 17.510605 5.702107 33.226398 0.641848 0.765062 0.052063 0.850000 0.435000 1 0 1.000000
g_nail
  0 -15.979615 0.672259 33.487633 -0.641079 0.476033 0.602005 0.650000 0.875000 1 0 1.000000
  0 11.310753 1.342159 32.448620 0.648724 0.730038 0.214945 0.020000 0.900000 1 0 1.000000
  0 -15.979615 1.342159 32.448620 -0.648723 0.730040 0.214942 0.650000 0.900000 1 0 1.000000
g_nail
  0 11.310753 -0.667542 33.487633 0.641079 -0.476033 0.602005 0.020000 0.840000 1 0 1.000000
  0 -15.979615 -1.337442 32.448620 -0.648713 -0.730047 0.214948 0.650000 0.810000 1 0 1.000000
  0 11.310753 -1.337442 32.448620 0.648712 -0.730049 0.214945 0.020000 0.810000 1 0 1.000000
g_nail
  0 4.755382 -0.891503 22.878618 0.673285 -0.548136 -0.496220 0.005000 0.460000 1 0 1.000000
  0 4.755382 0.894897 22.878618 0.673251 0.548181 -0.496217 0.005000 0.500000 1 0 1.000000
  0 3.479388 0.894897 25.111616 0.607981 0.783900 0.125935 0.065000 0.500000 1 0 1.000000
g_nail
  0 6.031392 -0.882235 30.215620 0.633424 -0.447093 -0.631571 0.205000 0.460000 1 0 1.000000
  0 3.798383 0.894897 27.982620 0.552728 0.789124 -0.267909 0.135000 0.500000 1 0 1.000000
  0 6.031392 0.904165 30.215620 0.631468 0.447374 -0.633328 0.205000 0.500000 1 0 1.000000
g_nail
  0 2.203383 -0.882235 30.215622 -0.447460 -0.817699 0.362144 0.825000 0.520000 1 0 1.000000
  0 0.927384 0.894897 28.620621 -0.678661 0.659188 0.323867 0.865000 0.565000 1 0 1.000000
  0 0.927384 -0.891503 28.620621 -0.677102 -0.659964 0.325546 0.825000 0.565000 1 0 1.000000
g_nail
  0 -15.979615 1.342159 32.448620 -0.648723 0.730040 0.214942 0.650000 0.900000 1 0 1.000000
  0 11.310753 1.342159 32.448620 0.648724 0.730038 0.214945 0.020000 0.900000 1 0 1.000000
  0 11.310753 1.342159 30.215620 0.604719 0.674470 -0.423562 0.020000 0.955000 1 0 1.000000
g_nail
  0 11.310753 -1.337442 32.448620 0.648712 -0.730049 0.214945 0.020000 0.810000 1 0 1.000000
  0 -15.979615 -1.337442 32.448620 -0.648713 -0.730047 0.214948 0.650000 0.810000 1 0 1.000000
  0 -15.979615 -1.337442 30.215620 -0.604733 -0.674461 -0.423556 0.650000 0.760000 1 0 1.000000
g_nail
  0 -15.979615 0.672259 33.487633 -0.641079 0.476033 0.602005 0.650000 0.875000 1 0 1.000000
  0 11.310753 0.002358 33.724617 0.639171 0.000002 0.769065 0.020000 0.855000 1 0 1.000000
  0 11.310753 0.672259 33.487633 0.641076 0.476034 0.602007 0.020000 0.875000 1 0 1.000000
g_nail
  0 11.310753 -0.667542 33.487633 0.641079 -0.476033 0.602005 0.020000 0.840000 1 0 1.000000
  0 -15.979615 0.002358 33.724617 -0.639171 -0.000002 0.769065 0.650000 0.855000 1 0 1.000000
  0 -15.979615 -0.667542 33.487633 -0.641076 -0.476034 0.602007 0.650000 0.840000 1 0 1.000000
g_nail
  0 -11.194613 -0.891503 23.516621 -0.426452 -0.634729 -0.644405 0.685000 0.710000 1 0 1.000000
  0 -12.789615 0.894897 25.749617 -0.764217 0.625921 -0.155546 0.725000 0.650000 1 0 1.000000
  0 -11.194613 0.894897 23.516621 -0.426446 0.634740 -0.644398 0.725000 0.710000 1 0 1.000000
g_nail
  0 11.310753 -0.667542 33.487633 0.641079 -0.476033 0.602005 0.930000 0.515000 1 0 1.000000
  0 11.310753 0.672259 33.487633 0.641076 0.476034 0.602007 0.960000 0.515000 1 0 1.000000
  0 11.310753 0.002358 33.724617 0.639171 0.000002 0.769065 0.945000 0.510000 1 0 1.000000
g_nail
  0 11.310753 0.672259 33.487633 0.641076 0.476034 0.602007 0.960000 0.515000 1 0 1.000000
  0 11.310753 -1.337442 32.448620 0.648712 -0.730049 0.214945 0.915000 0.540000 1 0 1.000000
  0 11.310753 1.342159 32.448620 0.648724 0.730038 0.214945 0.975000 0.540000 1 0 1.000000
g_nail
  0 11.310753 1.342159 32.448620 0.648724 0.730038 0.214945 0.975000 0.540000 1 0 1.000000
  0 11.310753 -1.337442 32.448620 0.648712 -0.730049 0.214945 0.915000 0.540000 1 0 1.000000
  0 11.310753 -1.337442 30.215620 0.604739 -0.674458 -0.423553 0.915000 0.595000 1 0 1.000000
g_nail
  0 -15.979615 -1.337442 30.215620 -0.604733 -0.674461 -0.423556 0.650000 0.760000 1 0 1.000000
  0 -15.979615 0.002358 29.569576 -0.621161 0.000003 -0.783683 0.650000 0.725000 1 0 1.000000
  0 11.310753 0.002358 29.569576 0.621161 -0.000003 -0.783683 0.020000 0.725000 1 0 1.000000
g_nail
  0 11.310753 1.342159 30.215620 0.604719 0.674470 -0.423562 0.020000 0.955000 1 0 1.000000
  0 11.310753 0.002358 29.569576 0.621161 -0.000003 -0.783683 0.020000 0.990000 1 0 1.000000
  0 -15.979615 0.002358 29.569576 -0.621161 0.000003 -0.783683 0.650000 0.990000 1 0 1.000000
g_nail
  0 1.884388 -0.891503 23.516621 -0.426453 -0.634729 -0.644404 0.825000 0.700000 1 0 1.000000
  0 0.289388 0.894897 25.749617 -0.764217 0.625921 -0.155546 0.865000 0.635000 1 0 1.000000
  0 1.884388 0.894897 23.516621 -0.426446 0.634740 -0.644398 0.870000 0.700000 1 0 1.000000
g_nail
  0 1.884388 -0.891503 23.516621 -0.426453 -0.634729 -0.644404 0.295000 0.435000 1 0 1.000000
  0 1.884388 0.894897 23.516621 -0.426446 0.634740 -0.644398 0.250000 0.435000 1 0 1.000000
  0 4.755382 0.894897 22.878618 0.673251 0.548181 -0.496217 0.250000 0.505000 1 0 1.000000
g_nail
  0 -11.194613 -0.891503 23.516621 -0.426452 -0.634729 -0.644405 0.505000 0.180000 1 0 1.000000
  0 -11.194613 0.894897 23.516621 -0.426446 0.634740 -0.644398 0.460000 0.180000 1 0 1.000000
  0 -8.323615 0.894897 22.878618 0.673251 0.548181 -0.496216 0.460000 0.250000 1 0 1.000000
g_nail
  0 -8.323615 -0.891503 22.878618 0.673285 -0.548136 -0.496220 0.755000 0.710000 1 0 1.000000
  0 -8.323615 0.894897 22.878618 0.673251 0.548181 -0.496216 0.800000 0.710000 1 0 1.000000
  0 -9.599614 0.894897 25.111616 0.607980 0.783900 0.125935 0.800000 0.650000 1 0 1.000000
g_nail
  0 3.479388 -0.891503 25.111616 0.607979 -0.783902 0.125932 0.065000 0.460000 1 0 1.000000
  0 3.479388 0.894897 25.111616 0.607981 0.783900 0.125935 0.065000 0.500000 1 0 1.000000
  0 3.798383 0.894897 27.982620 0.552728 0.789124 -0.267909 0.135000 0.500000 1 0 1.000000
g_nail
  0 -12.151618 -0.891503 28.620621 -0.677102 -0.659964 0.325546 0.685000 0.580000 1 0 1.000000
  0 -12.151618 0.894897 28.620621 -0.678661 0.659188 0.323867 0.725000 0.580000 1 0 1.000000
  0 -12.789615 0.894897 25.749617 -0.764217 0.625921 -0.155546 0.725000 0.650000 1 0 1.000000
g_nail
  0 -7.047613 -0.882235 30.215620 0.633424 -0.447094 -0.631570 0.755000 0.510000 1 0 1.000000
  0 -9.280616 0.894897 27.982620 0.552728 0.789124 -0.267909 0.800000 0.580000 1 0 1.000000
  0 -7.047613 0.904165 30.215620 0.631469 0.447375 -0.633327 0.800000 0.510000 1 0 1.000000
g_nail
  0 -10.875619 -0.882235 30.215622 -0.447460 -0.817699 0.362144 0.685000 0.535000 1 0 1.000000
  0 -12.151618 0.894897 28.620621 -0.678661 0.659188 0.323867 0.725000 0.580000 1 0 1.000000
  0 -12.151618 -0.891503 28.620621 -0.677102 -0.659964 0.325546 0.685000 0.580000 1 0 1.000000
g_nail
  0 -15.979615 0.672259 33.487633 -0.641079 0.476033 0.602005 0.945000 0.375000 1 0 1.000000
  0 -15.979615 -0.667542 33.487633 -0.641076 -0.476034 0.602007 0.975000 0.375000 1 0 1.000000
  0 -15.979615 0.002358 33.724617 -0.639171 -0.000002 0.769065 0.960000 0.370000 1 0 1.000000
g_nail
  0 -15.979615 -0.667542 33.487633 -0.641076 -0.476034 0.602007 0.975000 0.375000 1 0 1.000000
  0 -15.979615 1.342159 32.448620 -0.648723 0.730040 0.214942 0.930000 0.400000 1 0 1.000000
  0 -15.979615 -1.337442 32.448620 -0.648713 -0.730047 0.214948 0.990000 0.400000 1 0 1.000000
g_nail
  0 -15.979615 -1.337442 30.215620 -0.604733 -0.674461 -0.423556 0.990000 0.450000 1 0 1.000000
  0 -15.979615 -1.337442 32.448620 -0.648713 -0.730047 0.214948 0.990000 0.400000 1 0 1.000000
  0 -15.979615 1.342159 32.448620 -0.648723 0.730040 0.214942 0.930000 0.400000 1 0 1.000000
g_nail
  0 -3.393617 6.728774 34.804409 0.000006 0.757182 0.653203 0.260000 0.015000 1 0 1.000000
  0 -0.034545 5.828710 34.804409 0.378590 0.655724 0.653219 0.175000 0.015000 1 0 1.000000
  0 -0.034545 5.828710 31.117411 0.378586 0.655740 -0.653206 0.175000 0.100000 1 0 1.000000
g_nail
  0 -0.034545 5.828710 34.804409 0.378590 0.655724 0.653219 0.175000 0.015000 1 0 1.000000
  0 2.424458 3.369702 34.804409 0.655732 0.378581 0.653217 0.095000 0.015000 1 0 1.000000
  0 2.424458 3.369702 31.117411 0.655726 0.378591 -0.653217 0.095000 0.100000 1 0 1.000000
g_nail
  0 2.424458 3.369702 34.804409 0.655732 0.378581 0.653217 0.095000 0.015000 1 0 1.000000
  0 3.324526 0.010632 34.804409 0.757173 -0.000005 0.653214 0.015000 0.015000 1 0 1.000000
  0 3.324526 0.010632 31.117411 0.757172 0.000006 -0.653216 0.015000 0.100000 1 0 1.000000
g_nail
  0 3.324526 0.010632 34.804409 0.757173 -0.000005 0.653214 0.985000 0.015000 1 0 1.000000
  0 2.424458 -3.348439 34.804409 0.655740 -0.378599 0.653199 0.905000 0.015000 1 0 1.000000
  0 2.424458 -3.348439 31.117411 0.655734 -0.378582 -0.653214 0.905000 0.100000 1 0 1.000000
g_nail
  0 2.424458 -3.348439 34.804409 0.655740 -0.378599 0.653199 0.905000 0.015000 1 0 1.000000
  0 -0.034545 -5.807448 34.804409 0.378581 -0.655733 0.653216 0.825000 0.015000 1 0 1.000000
  0 -0.034545 -5.807448 31.117411 0.378597 -0.655736 -0.653203 0.825000 0.100000 1 0 1.000000
g_nail
  0 -0.034545 -5.807448 34.804409 0.378581 -0.655733 0.653216 0.825000 0.015000 1 0 1.000000
  0 -3.393617 -6.707509 34.804409 -0.000006 -0.757182 0.653204 0.740000 0.015000 1 0 1.000000
  0 -3.393617 -6.707509 31.117411 0.000006 -0.757172 -0.653216 0.740000 0.100000 1 0 1.000000
g_nail
  0 -3.393617 -6.707509 34.804409 -0.000006 -0.757182 0.653204 0.740000 0.015000 1 0 1.000000
  0 -6.752686 -5.807448 34.804409 -0.378591 -0.655727 0.653216 0.660000 0.015000 1 0 1.000000
  0 -6.752686 -5.807448 31.117411 -0.378587 -0.655742 -0.653204 0.660000 0.100000 1 0 1.000000
g_nail
  0 -6.752686 -5.807448 34.804409 -0.378591 -0.655727 0.653216 0.660000 0.015000 1 0 1.000000
  0 -9.211688 -3.348442 34.804409 -0.655739 -0.378586 0.653207 0.580000 0.015000 1 0 1.000000
  0 -9.211688 -3.348442 31.117411 -0.655736 -0.378596 -0.653204 0.580000 0.100000 1 0 1.000000
g_nail
  0 -9.211688 -3.348442 34.804409 -0.655739 -0.378586 0.653207 0.580000 0.015000 1 0 1.000000
  0 -10.111757 0.010632 34.804409 -0.757172 0.000006 0.653216 0.500000 0.015000 1 0 1.000000
  0 -10.111757 0.010632 31.117411 -0.757171 -0.000005 -0.653217 0.500000 0.100000 1 0 1.000000
g_nail
  0 -10.111757 0.010632 34.804409 -0.757172 0.000006 0.653216 0.500000 0.015000 1 0 1.000000
  0 -9.211688 3.369696 34.804409 -0.655745 0.378601 0.653192 0.420000 0.015000 1 0 1.000000
  0 -9.211688 3.369696 31.117411 -0.655741 0.378586 -0.653204 0.420000 0.100000 1 0 1.000000
g_nail
  0 2.424458 3.369702 34.804409 0.655732 0.378581 0.653217 0.725000 0.135000 1 0 1.000000
  0 -0.034545 5.828710 34.804409 0.378590 0.655724 0.653219 0.670000 0.195000 1 0 1.000000
  0 -9.211688 3.369696 34.804409 -0.655745 0.378601 0.653192 0.725000 0.410000 1 0 1.000000
g_nail
  0 -0.034545 5.828710 34.804409 0.378590 0.655724 0.653219 0.670000 0.195000 1 0 1.000000
  0 -3.393617 6.728774 34.804409 0.000006 0.757182 0.653203 0.650000 0.270000 1 0 1.000000
  0 -9.211688 3.369696 34.804409 -0.655745 0.378601 0.653192 0.725000 0.410000 1 0 1.000000
g_nail
  0 -3.393617 6.728774 34.804409 0.000006 0.757182 0.653203 0.650000 0.270000 1 0 1.000000
  0 -6.752686 5.828710 34.804409 -0.378582 0.655732 0.653216 0.670000 0.350000 1 0 1.000000
  0 -9.211688 3.369696 34.804409 -0.655745 0.378601 0.653192 0.725000 0.410000 1 0 1.000000
g_nail
  0 -9.211688 3.369696 34.804409 -0.655745 0.378601 0.653192 0.725000 0.410000 1 0 1.000000
  0 -10.111757 0.010632 34.804409 -0.757172 0.000006 0.653216 0.805000 0.430000 1 0 1.000000
  0 -9.211688 -3.348442 34.804409 -0.655739 -0.378586 0.653207 0.885000 0.410000 1 0 1.000000
g_nail
  0 -9.211688 -3.348442 34.804409 -0.655739 -0.378586 0.653207 0.885000 0.410000 1 0 1.000000
  0 -6.752686 -5.807448 34.804409 -0.378591 -0.655727 0.653216 0.940000 0.350000 1 0 1.000000
  0 -3.393617 -6.707509 34.804409 -0.000006 -0.757182 0.653204 0.960000 0.270000 1 0 1.000000
g_nail
  0 -3.393617 -6.707509 34.804409 -0.000006 -0.757182 0.653204 0.960000 0.270000 1 0 1.000000
  0 -0.034545 -5.807448 34.804409 0.378581 -0.655733 0.653216 0.940000 0.195000 1 0 1.000000
  0 2.424458 -3.348439 34.804409 0.655740 -0.378599 0.653199 0.885000 0.135000 1 0 1.000000
g_nail
  0 2.424458 -3.348439 34.804409 0.655740 -0.378599 0.653199 0.885000 0.135000 1 0 1.000000
  0 3.324526 0.010632 34.804409 0.757173 -0.000005 0.653214 0.805000 0.115000 1 0 1.000000
  0 2.424458 3.369702 34.804409 0.655732 0.378581 0.653217 0.725000 0.135000 1 0 1.000000
g_nail
  0 -9.211688 3.369696 34.804409 -0.655745 0.378601 0.653192 0.725000 0.410000 1 0 1.000000
  0 -9.211688 -3.348442 34.804409 -0.655739 -0.378586 0.653207 0.885000 0.410000 1 0 1.000000
  0 -3.393617 -6.707509 34.804409 -0.000006 -0.757182 0.653204 0.960000 0.270000 1 0 1.000000
g_nail
  0 -3.393617 -6.707509 34.804409 -0.000006 -0.757182 0.653204 0.960000 0.270000 1 0 1.000000
  0 2.424458 -3.348439 34.804409 0.655740 -0.378599 0.653199 0.885000 0.135000 1 0 1.000000
  0 -9.211688 3.369696 34.804409 -0.655745 0.378601 0.653192 0.725000 0.410000 1 0 1.000000
g_nail
  0 -9.211688 3.369696 34.804409 -0.655745 0.378601 0.653192 0.420000 0.015000 1 0 1.000000
  0 -6.752686 5.828710 34.804409 -0.378582 0.655732 0.653216 0.340000 0.015000 1 0 1.000000
  0 -6.752686 5.828710 31.117411 -0.378597 0.655736 -0.653203 0.340000 0.100000 1 0 1.000000
g_nail
  0 -6.752686 5.828710 34.804409 -0.378582 0.655732 0.653216 0.340000 0.015000 1 0 1.000000
  0 -3.393617 6.728774 34.804409 0.000006 0.757182 0.653203 0.260000 0.015000 1 0 1.000000
  0 -3.393617 6.728774 31.117411 -0.000006 0.757172 -0.653216 0.260000 0.100000 1 0 1.000000
g_nail
  0 -6.752686 5.828710 31.117411 -0.378597 0.655736 -0.653203 0.316467 0.359363 1 0 1.000000
  0 -3.393617 6.728774 31.117411 -0.000006 0.757172 -0.653216 0.338205 0.280925 1 0 1.000000
  0 -0.034545 5.828710 31.117411 0.378586 0.655740 -0.653206 0.312772 0.202483 1 0 1.000000
g_nail
  0 -0.034545 5.828710 31.117411 0.378586 0.655740 -0.653206 0.312772 0.202483 1 0 1.000000
  0 2.424458 3.369702 31.117411 0.655726 0.378591 -0.653217 0.253418 0.145237 1 0 1.000000
  0 -9.211688 3.369696 31.117411 -0.655741 0.378586 -0.653204 0.263462 0.416068 1 0 1.000000
g_nail
  0 2.424458 3.369702 31.117411 0.655726 0.378591 -0.653217 0.253418 0.145237 1 0 1.000000
  0 3.324526 0.010632 31.117411 0.757172 0.000006 -0.653216 0.174980 0.123500 1 0 1.000000
  0 2.424458 -3.348439 31.117411 0.655734 -0.378582 -0.653214 0.096538 0.148932 1 0 1.000000
g_nail
  0 2.424458 -3.348439 31.117411 0.655734 -0.378582 -0.653214 0.096538 0.148932 1 0 1.000000
  0 -0.034545 -5.807448 31.117411 0.378597 -0.655736 -0.653203 0.043532 0.205637 1 0 1.000000
  0 -6.752686 -5.807448 31.117411 -0.378587 -0.655742 -0.653204 0.047228 0.362517 1 0 1.000000
g_nail
  0 -0.034545 -5.807448 31.117411 0.378597 -0.655736 -0.653203 0.043532 0.205637 1 0 1.000000
  0 -3.393617 -6.707509 31.117411 0.000006 -0.757172 -0.653216 0.021795 0.284075 1 0 1.000000
  0 -6.752686 -5.807448 31.117411 -0.378587 -0.655742 -0.653204 0.047228 0.362517 1 0 1.000000
g_nail
  0 -6.752686 -5.807448 31.117411 -0.378587 -0.655742 -0.653204 0.047228 0.362517 1 0 1.000000
  0 -9.211688 -3.348442 31.117411 -0.655736 -0.378596 -0.653204 0.106582 0.419763 1 0 1.000000
  0 -9.211688 3.369696 31.117411 -0.655741 0.378586 -0.653204 0.263462 0.416068 1 0 1.000000
g_nail
  0 -9.211688 -3.348442 31.117411 -0.655736 -0.378596 -0.653204 0.106582 0.419763 1 0 1.000000
  0 -10.111757 0.010632 31.117411 -0.757171 -0.000005 -0.653217 0.185020 0.441500 1 0 1.000000
  0 -9.211688 3.369696 31.117411 -0.655741 0.378586 -0.653204 0.263462 0.416068 1 0 1.000000
g_nail
  0 -9.211688 3.369696 31.117411 -0.655741 0.378586 -0.653204 0.263462 0.416068 1 0 1.000000
  0 -6.752686 5.828710 31.117411 -0.378597 0.655736 -0.653203 0.316467 0.359363 1 0 1.000000
  0 -0.034545 5.828710 31.117411 0.378586 0.655740 -0.653206 0.312772 0.202483 1 0 1.000000
g_nail
  0 -6.752686 -5.807448 31.117411 -0.378587 -0.655742 -0.653204 0.047228 0.362517 1 0 1.000000
  0 -9.211688 3.369696 31.117411 -0.655741 0.378586 -0.653204 0.263462 0.416068 1 0 1.000000
  0 2.424458 -3.348439 31.117411 0.655734 -0.378582 -0.653214 0.096538 0.148932 1 0 1.000000
g_nail
  0 -2.607269 -0.779995 35.677612 0.548989 -0.548993 0.630252 0.655000 0.560000 1 0 1.000000
  0 -3.396756 -1.107010 34.401611 0.000002 -1.000000 0.000000 0.625000 0.580000 1 0 1.000000
  0 -2.607269 -0.779995 34.401611 0.707109 -0.707105 0.000000 0.625000 0.560000 1 0 1.000000
g_nail
  0 11.619283 -3.038493 33.226398 0.000000 1.000000 -0.000004 0.600000 0.575000 1 0 1.000000
  0 11.619283 -3.365507 32.436916 0.000000 0.707104 -0.707110 0.600000 0.555000 1 0 1.000000
  0 -0.092393 -3.365507 32.436916 0.000000 0.707109 -0.707105 0.325000 0.555000 1 0 1.000000
g_nail
  0 -2.607269 0.798974 35.677612 0.548992 0.548989 0.630252 0.655000 0.680000 1 0 1.000000
  0 -2.280254 0.009488 34.401611 1.000000 0.000003 0.000000 0.625000 0.700000 1 0 1.000000
  0 -2.607269 0.798974 34.401611 0.707105 0.707109 0.000000 0.625000 0.680000 1 0 1.000000
g_nail
  0 11.619283 -3.365507 32.436916 0.000000 0.707104 -0.707110 0.600000 0.555000 1 0 1.000000
  0 11.619283 -4.154993 32.109901 0.000000 -0.000004 -1.000000 0.600000 0.535000 1 0 1.000000
  0 -0.092393 -4.154993 32.109901 0.000000 0.000002 -1.000000 0.325000 0.535000 1 0 1.000000
g_nail
  0 11.619283 -4.154993 32.109901 0.000000 -0.000004 -1.000000 0.600000 0.690000 1 0 1.000000
  0 11.619283 -4.944476 32.436916 0.000000 -0.707109 -0.707105 0.600000 0.670000 1 0 1.000000
  0 -0.092393 -4.944476 32.436916 0.000000 -0.707104 -0.707109 0.325000 0.670000 1 0 1.000000
g_nail
  0 -3.396756 1.125989 35.677612 0.000002 0.776381 0.630264 0.970000 0.170000 1 0 1.000000
  0 -2.280254 0.009488 35.677612 0.776393 -0.000003 0.630250 0.980000 0.135000 1 0 1.000000
  0 -2.607269 0.798974 35.677612 0.548992 0.548989 0.630252 0.980000 0.155000 1 0 1.000000
g_nail
  0 -2.280254 0.009488 35.677612 0.776393 -0.000003 0.630250 0.980000 0.135000 1 0 1.000000
  0 -3.396756 -1.107010 35.677612 -0.000003 -0.776381 0.630264 0.950000 0.120000 1 0 1.000000
  0 -2.607269 -0.779995 35.677612 0.548989 -0.548993 0.630252 0.970000 0.120000 1 0 1.000000
g_nail
  0 -3.396756 -1.107010 35.677612 -0.000003 -0.776381 0.630264 0.950000 0.120000 1 0 1.000000
  0 -4.513254 0.009488 35.677612 -0.776393 0.000002 0.630250 0.935000 0.155000 1 0 1.000000
  0 -4.186240 -0.779995 35.677612 -0.548993 -0.548989 0.630252 0.935000 0.135000 1 0 1.000000
g_nail
  0 -4.513254 0.009488 35.677612 -0.776393 0.000002 0.630250 0.935000 0.155000 1 0 1.000000
  0 -3.396756 1.125989 35.677612 0.000002 0.776381 0.630264 0.970000 0.170000 1 0 1.000000
  0 -4.186240 0.798974 35.677612 -0.548990 0.548992 0.630252 0.950000 0.170000 1 0 1.000000
g_nail
  0 -3.396756 1.125989 35.677612 0.000002 0.776381 0.630264 0.970000 0.170000 1 0 1.000000
  0 -3.396756 -1.107010 35.677612 -0.000003 -0.776381 0.630264 0.950000 0.120000 1 0 1.000000
  0 -2.280254 0.009488 35.677612 0.776393 -0.000003 0.630250 0.980000 0.135000 1 0 1.000000
g_nail
  0 11.619283 -4.944476 32.436916 0.000000 -0.707109 -0.707105 0.600000 0.670000 1 0 1.000000
  0 11.619283 -5.271492 33.226398 0.000000 -1.000000 0.000002 0.600000 0.650000 1 0 1.000000
  0 -0.092393 -5.271492 33.226398 0.000000 -1.000000 -0.000004 0.325000 0.650000 1 0 1.000000
g_nail
  0 11.619283 -5.271492 33.226398 0.000000 -1.000000 0.000002 0.600000 0.650000 1 0 1.000000
  0 11.619283 -4.944476 34.015884 0.000000 -0.707105 0.707109 0.600000 0.630000 1 0 1.000000
  0 -0.092393 -4.944476 34.015884 0.000000 -0.707109 0.707104 0.325000 0.630000 1 0 1.000000
g_nail
  0 11.619283 -4.944476 34.015884 0.000000 -0.707105 0.707109 0.600000 0.630000 1 0 1.000000
  0 11.619283 -4.154993 34.342899 0.000000 0.000002 1.000000 0.600000 0.610000 1 0 1.000000
  0 -0.092393 -4.154993 34.342899 0.000000 -0.000004 1.000000 0.325000 0.610000 1 0 1.000000
g_nail
  0 17.510605 5.244288 31.483120 0.592086 0.492189 -0.638110 0.815000 0.785000 1 0 1.000000
  0 17.510605 3.033731 31.483120 0.592075 -0.492168 -0.638136 0.815000 0.735000 1 0 1.000000
  0 11.409875 3.033731 31.483120 -0.592086 -0.492188 -0.638110 0.675000 0.735000 1 0 1.000000
g_nail
  0 11.619283 -4.154993 34.342899 0.000000 0.000002 1.000000 0.600000 0.610000 1 0 1.000000
  0 11.619283 -3.365507 34.015884 0.000000 0.707110 0.707104 0.600000 0.595000 1 0 1.000000
  0 -0.092393 -3.365507 34.015884 0.000000 0.707105 0.707109 0.325000 0.595000 1 0 1.000000
g_nail
  0 -4.186240 -0.779995 35.677612 -0.548993 -0.548989 0.630252 0.655000 0.600000 1 0 1.000000
  0 -4.513254 0.009488 34.401611 -1.000000 -0.000003 0.000000 0.625000 0.620000 1 0 1.000000
  0 -4.186240 -0.779995 34.401611 -0.707105 -0.707108 0.000000 0.625000 0.600000 1 0 1.000000
g_nail
  0 11.619283 -3.365507 34.015884 0.000000 0.707110 0.707104 0.600000 0.595000 1 0 1.000000
  0 11.619283 -3.038493 33.226398 0.000000 1.000000 -0.000004 0.600000 0.575000 1 0 1.000000
  0 -0.092393 -3.038493 33.226398 0.000000 1.000000 0.000003 0.325000 0.575000 1 0 1.000000
g_nail
  0 -4.513254 0.009488 35.677612 -0.776393 0.000002 0.630250 0.655000 0.620000 1 0 1.000000
  0 -4.186240 0.798974 34.401611 -0.707110 0.707104 0.000000 0.625000 0.640000 1 0 1.000000
  0 -4.513254 0.009488 34.401611 -1.000000 -0.000003 0.000000 0.625000 0.620000 1 0 1.000000
g_nail
  0 -3.396756 -1.107010 35.677612 -0.000003 -0.776381 0.630264 0.655000 0.580000 1 0 1.000000
  0 -4.186240 -0.779995 34.401611 -0.707105 -0.707108 0.000000 0.625000 0.600000 1 0 1.000000
  0 -3.396756 -1.107010 34.401611 0.000002 -1.000000 0.000000 0.625000 0.580000 1 0 1.000000
g_nail
  0 -2.280254 0.009488 35.677612 0.776393 -0.000003 0.630250 0.655000 0.540000 1 0 1.000000
  0 -2.607269 -0.779995 34.401611 0.707109 -0.707105 0.000000 0.625000 0.560000 1 0 1.000000
  0 -2.280254 0.009488 34.401611 1.000000 0.000003 0.000000 0.625000 0.540000 1 0 1.000000
g_nail
  0 -3.396756 1.125989 35.677612 0.000002 0.776381 0.630264 0.655000 0.660000 1 0 1.000000
  0 -2.607269 0.798974 34.401611 0.707105 0.707109 0.000000 0.625000 0.680000 1 0 1.000000
  0 -3.396756 1.125989 34.401611 -0.000003 1.000000 0.000000 0.625000 0.660000 1 0 1.000000
g_nail
  0 -4.186240 0.798974 35.677612 -0.548990 0.548992 0.630252 0.655000 0.640000 1 0 1.000000
  0 -3.396756 1.125989 34.401611 -0.000003 1.000000 0.000000 0.625000 0.660000 1 0 1.000000
  0 -4.186240 0.798974 34.401611 -0.707110 0.707104 0.000000 0.625000 0.640000 1 0 1.000000
g_nail
  0 17.510605 -2.591893 33.226398 0.641848 0.765063 0.052063 0.835000 0.885000 1 0 1.000000
  0 17.510605 -3.049713 31.483120 0.592086 0.492189 -0.638111 0.835000 0.925000 1 0 1.000000
  0 11.409875 -3.049713 31.483120 -0.592075 0.492168 -0.638135 0.975000 0.925000 1 0 1.000000
g_nail
  0 17.510605 -5.260269 31.483120 0.592075 -0.492168 -0.638136 0.835000 0.730000 1 0 1.000000
  0 17.510605 -5.718091 33.226398 0.641838 -0.765071 0.052055 0.835000 0.775000 1 0 1.000000
  0 11.409875 -5.718091 33.226398 -0.641848 -0.765063 0.052063 0.975000 0.775000 1 0 1.000000
g_nail
  0 17.510605 -5.718091 33.226398 0.641838 -0.765071 0.052055 0.835000 0.775000 1 0 1.000000
  0 17.510605 -5.260269 34.331680 0.630274 -0.548981 0.548976 0.835000 0.800000 1 0 1.000000
  0 11.409875 -5.260269 34.331680 -0.630259 -0.548985 0.548989 0.975000 0.800000 1 0 1.000000
g_nail
  0 17.510605 -5.260269 34.331680 0.630274 -0.548981 0.548976 0.835000 0.800000 1 0 1.000000
  0 17.510605 -4.154994 34.789501 0.630269 -0.000004 0.776377 0.835000 0.830000 1 0 1.000000
  0 11.409875 -4.154994 34.789501 -0.630269 0.000003 0.776377 0.975000 0.830000 1 0 1.000000
g_nail
  0 11.409875 -3.049713 34.331680 -0.630273 0.548981 0.548976 0.660000 0.495000 1 0 1.000000
  0 11.409875 -2.591893 33.226398 -0.641838 0.765071 0.052055 0.685000 0.505000 1 0 1.000000
  0 11.409875 -5.718091 33.226398 -0.641848 -0.765063 0.052063 0.685000 0.430000 1 0 1.000000
g_nail
  0 11.409875 -2.591893 33.226398 -0.641838 0.765071 0.052055 0.685000 0.505000 1 0 1.000000
  0 11.409875 -3.049713 31.483120 -0.592075 0.492168 -0.638135 0.730000 0.495000 1 0 1.000000
  0 11.409875 -5.718091 33.226398 -0.641848 -0.765063 0.052063 0.685000 0.430000 1 0 1.000000
g_nail
  0 11.409875 -3.049713 31.483120 -0.592075 0.492168 -0.638135 0.730000 0.495000 1 0 1.000000
  0 11.409875 -5.260269 31.483120 -0.592086 -0.492188 -0.638111 0.730000 0.445000 1 0 1.000000
  0 11.409875 -5.718091 33.226398 -0.641848 -0.765063 0.052063 0.685000 0.430000 1 0 1.000000
g_nail
  0 11.409875 -5.718091 33.226398 -0.641848 -0.765063 0.052063 0.685000 0.430000 1 0 1.000000
  0 11.409875 -5.260269 34.331680 -0.630259 -0.548985 0.548989 0.660000 0.445000 1 0 1.000000
  0 11.409875 -4.154994 34.789501 -0.630269 0.000003 0.776377 0.650000 0.470000 1 0 1.000000
g_nail
  0 17.510605 -4.154994 34.789501 0.630269 -0.000004 0.776377 0.835000 0.830000 1 0 1.000000
  0 17.510605 -3.049713 34.331680 0.630259 0.548986 0.548989 0.835000 0.855000 1 0 1.000000
  0 11.409875 -3.049713 34.331680 -0.630273 0.548981 0.548976 0.975000 0.855000 1 0 1.000000
g_nail
  0 17.510605 -3.049713 34.331680 0.630259 0.548986 0.548989 0.835000 0.855000 1 0 1.000000
  0 17.510605 -2.591893 33.226398 0.641848 0.765063 0.052063 0.835000 0.885000 1 0 1.000000
  0 11.409875 -2.591893 33.226398 -0.641838 0.765071 0.052055 0.975000 0.885000 1 0 1.000000
g_nail
  0 17.510605 -5.260269 31.483120 0.592075 -0.492168 -0.638136 0.985000 0.700000 1 0 1.000000
  0 17.510605 -3.049713 31.483120 0.592086 0.492189 -0.638111 0.985000 0.650000 1 0 1.000000
  0 17.510605 -2.591893 33.226398 0.641848 0.765063 0.052063 0.945000 0.640000 1 0 1.000000
g_nail
  0 17.510605 -2.591893 33.226398 0.641848 0.765063 0.052063 0.945000 0.640000 1 0 1.000000
  0 17.510605 -3.049713 34.331680 0.630259 0.548986 0.548989 0.920000 0.650000 1 0 1.000000
  0 17.510605 -4.154994 34.789501 0.630269 -0.000004 0.776377 0.910000 0.675000 1 0 1.000000
g_nail
  0 17.510605 -4.154994 34.789501 0.630269 -0.000004 0.776377 0.910000 0.675000 1 0 1.000000
  0 17.510605 -5.260269 34.331680 0.630274 -0.548981 0.548976 0.920000 0.700000 1 0 1.000000
  0 17.510605 -2.591893 33.226398 0.641848 0.765063 0.052063 0.945000 0.640000 1 0 1.000000
g_nail
  0 17.510605 -5.260269 34.331680 0.630274 -0.548981 0.548976 0.920000 0.700000 1 0 1.000000
  0 17.510605 -5.718091 33.226398 0.641838 -0.765071 0.052055 0.945000 0.710000 1 0 1.000000
  0 17.510605 -2.591893 33.226398 0.641848 0.765063 0.052063 0.945000 0.640000 1 0 1.000000
g_nail
  0 11.619283 5.255508 33.226398 0.000000 1.000000 -0.000004 0.290000 0.575000 1 0 1.000000
  0 11.619283 4.928494 32.436916 0.000000 0.707104 -0.707109 0.290000 0.555000 1 0 1.000000
  0 -0.092393 4.928494 32.436916 0.000000 0.707109 -0.707105 0.020000 0.555000 1 0 1.000000
g_nail
  0 11.619283 4.928494 32.436916 0.000000 0.707104 -0.707109 0.290000 0.555000 1 0 1.000000
  0 11.619283 4.139008 32.109901 0.000000 -0.000004 -1.000000 0.290000 0.535000 1 0 1.000000
  0 -0.092393 4.139008 32.109901 0.000000 0.000002 -1.000000 0.020000 0.535000 1 0 1.000000
g_nail
  0 11.619283 4.139008 32.109901 0.000000 -0.000004 -1.000000 0.290000 0.690000 1 0 1.000000
  0 11.619283 3.349525 32.436916 0.000000 -0.707109 -0.707105 0.290000 0.670000 1 0 1.000000
  0 -0.092393 3.349525 32.436916 0.000000 -0.707104 -0.707109 0.020000 0.670000 1 0 1.000000
g_nail
  0 11.619283 3.349525 32.436916 0.000000 -0.707109 -0.707105 0.290000 0.670000 1 0 1.000000
  0 11.619283 3.022509 33.226398 0.000000 -1.000000 0.000002 0.290000 0.650000 1 0 1.000000
  0 -0.092393 3.022509 33.226398 0.000000 -1.000000 -0.000004 0.020000 0.650000 1 0 1.000000
g_nail
  0 11.619283 3.022509 33.226398 0.000000 -1.000000 0.000002 0.290000 0.650000 1 0 1.000000
  0 11.619283 3.349525 34.015884 0.000000 -0.707105 0.707109 0.290000 0.630000 1 0 1.000000
  0 -0.092393 3.349525 34.015884 0.000000 -0.707109 0.707104 0.020000 0.630000 1 0 1.000000
g_nail
  0 11.619283 3.349525 34.015884 0.000000 -0.707105 0.707109 0.290000 0.630000 1 0 1.000000
  0 11.619283 4.139008 34.342899 0.000000 0.000002 1.000000 0.290000 0.610000 1 0 1.000000
  0 -0.092393 4.139008 34.342899 0.000000 -0.000004 1.000000 0.020000 0.610000 1 0 1.000000
g_nail
  0 17.510605 -3.049713 31.483120 0.592086 0.492189 -0.638111 0.835000 0.925000 1 0 1.000000
  0 17.510605 -5.260269 31.483120 0.592075 -0.492168 -0.638136 0.835000 0.975000 1 0 1.000000
  0 11.409875 -5.260269 31.483120 -0.592086 -0.492188 -0.638111 0.975000 0.975000 1 0 1.000000
g_nail
  0 11.619283 4.139008 34.342899 0.000000 0.000002 1.000000 0.290000 0.610000 1 0 1.000000
  0 11.619283 4.928494 34.015884 0.000000 0.707109 0.707104 0.290000 0.590000 1 0 1.000000
  0 -0.092393 4.928494 34.015884 0.000000 0.707105 0.707109 0.020000 0.590000 1 0 1.000000
g_nail
  0 11.619283 4.928494 34.015884 0.000000 0.707109 0.707104 0.290000 0.590000 1 0 1.000000
  0 11.619283 5.255508 33.226398 0.000000 1.000000 -0.000004 0.290000 0.575000 1 0 1.000000
  0 -0.092393 5.255508 33.226398 0.000000 1.000000 0.000002 0.020000 0.575000 1 0 1.000000
g_nail
  0 17.510605 5.702107 33.226398 0.641848 0.765062 0.052063 0.815000 0.825000 1 0 1.000000
  0 17.510605 5.244288 31.483120 0.592086 0.492189 -0.638110 0.815000 0.785000 1 0 1.000000
  0 11.409875 5.244288 31.483120 -0.592075 0.492169 -0.638135 0.675000 0.785000 1 0 1.000000
g_nail
  0 17.510605 3.033731 31.483120 0.592075 -0.492168 -0.638136 0.815000 0.980000 1 0 1.000000
  0 17.510605 2.575910 33.226398 0.641838 -0.765071 0.052055 0.815000 0.935000 1 0 1.000000
  0 11.409875 2.575910 33.226398 -0.641848 -0.765063 0.052064 0.675000 0.935000 1 0 1.000000
g_nail
  0 17.510605 2.575910 33.226398 0.641838 -0.765071 0.052055 0.815000 0.935000 1 0 1.000000
  0 17.510605 3.033731 34.331680 0.630274 -0.548982 0.548976 0.815000 0.910000 1 0 1.000000
  0 11.409875 3.033731 34.331680 -0.630259 -0.548985 0.548989 0.675000 0.910000 1 0 1.000000
g_nail
  0 17.510605 3.033731 34.331680 0.630274 -0.548982 0.548976 0.815000 0.910000 1 0 1.000000
  0 17.510605 4.139008 34.789501 0.630269 -0.000004 0.776377 0.815000 0.880000 1 0 1.000000
  0 11.409875 4.139008 34.789501 -0.630269 0.000003 0.776377 0.675000 0.880000 1 0 1.000000
g_nail
  0 11.409875 5.244288 34.331680 -0.630273 0.548982 0.548976 0.595000 0.415000 1 0 1.000000
  0 11.409875 5.702107 33.226398 -0.641838 0.765071 0.052055 0.620000 0.425000 1 0 1.000000
  0 11.409875 2.575910 33.226398 -0.641848 -0.765063 0.052064 0.620000 0.355000 1 0 1.000000
g_nail
  0 11.409875 5.702107 33.226398 -0.641838 0.765071 0.052055 0.620000 0.425000 1 0 1.000000
  0 11.409875 5.244288 31.483120 -0.592075 0.492169 -0.638135 0.660000 0.415000 1 0 1.000000
  0 11.409875 2.575910 33.226398 -0.641848 -0.765063 0.052064 0.620000 0.355000 1 0 1.000000
g_nail
  0 11.409875 5.244288 31.483120 -0.592075 0.492169 -0.638135 0.660000 0.415000 1 0 1.000000
  0 11.409875 3.033731 31.483120 -0.592086 -0.492188 -0.638110 0.660000 0.365000 1 0 1.000000
  0 11.409875 2.575910 33.226398 -0.641848 -0.765063 0.052064 0.620000 0.355000 1 0 1.000000
g_nail
  0 11.409875 2.575910 33.226398 -0.641848 -0.765063 0.052064 0.620000 0.355000 1 0 1.000000
  0 11.409875 3.033731 34.331680 -0.630259 -0.548985 0.548989 0.595000 0.365000 1 0 1.000000
  0 11.409875 4.139008 34.789501 -0.630269 0.000003 0.776377 0.585000 0.390000 1 0 1.000000
g_nail
  0 17.510605 4.139008 34.789501 0.630269 -0.000004 0.776377 0.815000 0.880000 1 0 1.000000
  0 17.510605 5.244288 34.331680 0.630259 0.548986 0.548989 0.815000 0.855000 1 0 1.000000
  0 11.409875 5.244288 34.331680 -0.630273 0.548982 0.548976 0.675000 0.855000 1 0 1.000000
g_nail
  0 17.510605 5.244288 34.331680 0.630259 0.548986 0.548989 0.815000 0.855000 1 0 1.000000
  0 17.510605 5.702107 33.226398 0.641848 0.765062 0.052063 0.815000 0.825000 1 0 1.000000
  0 11.409875 5.702107 33.226398 -0.641838 0.765071 0.052055 0.675000 0.825000 1 0 1.000000
g_nail
  0 17.510605 3.033731 31.483120 0.592075 -0.492168 -0.638136 0.890000 0.495000 1 0 1.000000
  0 17.510605 5.244288 31.483120 0.592086 0.492189 -0.638110 0.890000 0.445000 1 0 1.000000
  0 17.510605 5.702107 33.226398 0.641848 0.765062 0.052063 0.850000 0.435000 1 0 1.000000
g_nail
  0 17.510605 5.702107 33.226398 0.641848 0.765062 0.052063 0.850000 0.435000 1 0 1.000000
  0 17.510605 5.244288 34.331680 0.630259 0.548986 0.548989 0.825000 0.445000 1 0 1.000000
  0 17.510605 4.139008 34.789501 0.630269 -0.000004 0.776377 0.815000 0.470000 1 0 1.000000
g_nail
  0 17.510605 4.139008 34.789501 0.630269 -0.000004 0.776377 0.815000 0.470000 1 0 1.000000
  0 17.510605 3.033731 34.331680 0.630274 -0.548982 0.548976 0.825000 0.495000 1 0 1.000000
  0 17.510605 5.702107 33.226398 0.641848 0.765062 0.052063 0.850000 0.435000 1 0 1.000000
g_nail
  0 17.510605 3.033731 34.331680 0.630274 -0.548982 0.548976 0.825000 0.495000 1 0 1.000000
  0 17.510605 2.575910 33.226398 0.641838 -0.765071 0.052055 0.850000 0.505000 1 0 1.000000
  0 17.510605 5.702107 33.226398 0.641848 0.765062 0.052063 0.850000 0.435000 1 0 1.000000
g_nail
  0 -15.979615 0.672259 33.487633 -0.641079 0.476033 0.602005 0.650000 0.875000 1 0 1.000000
  0 11.310753 0.672259 33.487633 0.641076 0.476034 0.602007 0.020000 0.875000 1 0 1.000000
  0 11.310753 1.342159 32.448620 0.648724 0.730038 0.214945 0.020000 0.900000 1 0 1.000000
g_nail
  0 11.310753 -0.667542 33.487633 0.641079 -0.476033 0.602005 0.020000 0.840000 1 0 1.000000
  0 -15.979615 -0.667542 33.487633 -0.641076 -0.476034 0.602007 0.650000 0.840000 1 0 1.000000
  0 -15.979615 -1.337442 32.448620 -0.648713 -0.730047 0.214948 0.650000 0.810000 1 0 1.000000
g_nail
  0 -6.166675 -0.336806 27.588390 0.493124 -0.538285 -0.683431 0.450000 0.415000 1 0 1.000000
  0 -7.420953 -0.336806 29.986275 0.672923 -0.650597 0.351991 0.450000 0.475000 1 0 1.000000
  0 -8.003424 -0.336806 29.488628 -0.518433 -0.692903 -0.501112 0.435000 0.475000 1 0 1.000000
g_nail
  0 -6.166675 0.344591 27.588390 0.493314 0.538285 -0.683294 0.465000 0.415000 1 0 1.000000
  0 -8.003424 0.344591 29.488628 -0.518444 0.692888 -0.501121 0.485000 0.475000 1 0 1.000000
  0 -7.420953 0.344591 29.986275 0.672912 0.650612 0.351985 0.470000 0.475000 1 0 1.000000
g_nail
  0 -6.166675 -0.336806 27.588390 0.493124 -0.538285 -0.683431 0.450000 0.415000 1 0 1.000000
  0 -7.420953 0.344591 29.986275 0.672912 0.650612 0.351985 0.470000 0.475000 1 0 1.000000
  0 -7.420953 -0.336806 29.986275 0.672923 -0.650597 0.351991 0.450000 0.475000 1 0 1.000000
g_nail
  0 -6.166675 -0.336806 27.588390 0.493124 -0.538285 -0.683431 0.450000 0.415000 1 0 1.000000
  0 -6.166675 0.344591 27.588390 0.493314 0.538285 -0.683294 0.465000 0.415000 1 0 1.000000
  0 -7.420953 0.344591 29.986275 0.672912 0.650612 0.351985 0.470000 0.475000 1 0 1.000000
g_nail
  0 -8.003424 -0.336806 29.488628 -0.518433 -0.692903 -0.501112 0.450000 0.355000 1 0 1.000000
  0 -8.003424 0.344591 29.488628 -0.518444 0.692888 -0.501121 0.465000 0.355000 1 0 1.000000
  0 -6.166675 0.344591 27.588390 0.493314 0.538285 -0.683294 0.465000 0.415000 1 0 1.000000
g_nail
  0 -8.003424 -0.336806 29.488628 -0.518433 -0.692903 -0.501112 0.450000 0.355000 1 0 1.000000
  0 -6.166675 0.344591 27.588390 0.493314 0.538285 -0.683294 0.465000 0.415000 1 0 1.000000
  0 -6.166675 -0.336806 27.588390 0.493124 -0.538285 -0.683431 0.450000 0.415000 1 0 1.000000
end
