version 1
nodes
0 "root" -1
end
skeleton
  time 0
  0 0.000000 0.000000 0.000000 0.000000 0.000000 0.000000
end
triangles
g_rock2
  0 -17.762089 -0.708627 25.057671 -0.810656 -0.546986 0.208911 0.355000 0.175000 1 0 1.000000
  0 -17.062506 -1.058417 24.008305 -0.508066 -0.733638 -0.451270 0.370000 0.155000 1 0 1.000000
  0 -16.362926 -0.358837 26.107038 -0.547100 -0.632473 0.548324 0.320000 0.160000 1 0 1.000000
g_rock2
  0 -15.498662 -1.058417 23.308722 -0.105989 -0.758402 -0.643112 0.370000 0.120000 1 0 1.000000
  0 -15.148869 -0.708627 25.407461 0.073266 -0.991507 0.107456 0.325000 0.130000 1 0 1.000000
  0 -17.062506 -1.058417 24.008305 -0.508066 -0.733638 -0.451270 0.370000 0.155000 1 0 1.000000
g_rock2
  0 -13.214821 -0.708627 22.958931 0.668683 -0.559421 -0.489808 0.360000 0.075000 1 0 1.000000
  0 -13.914398 -0.358837 24.707882 0.746613 -0.658727 0.092996 0.330000 0.100000 1 0 1.000000
  0 -15.498662 -1.058417 23.308722 -0.105989 -0.758402 -0.643112 0.370000 0.120000 1 0 1.000000
g_rock2
  0 -15.148869 -0.708627 25.407461 0.073266 -0.991507 0.107456 0.325000 0.130000 1 0 1.000000
  0 -15.498662 -1.058417 23.308722 -0.105989 -0.758402 -0.643112 0.370000 0.120000 1 0 1.000000
  0 -13.914398 -0.358837 24.707882 0.746613 -0.658727 0.092996 0.330000 0.100000 1 0 1.000000
g_rock2
  0 -17.062506 -1.058417 24.008305 -0.508066 -0.733638 -0.451270 0.370000 0.155000 1 0 1.000000
  0 -15.148869 -0.708627 25.407461 0.073266 -0.991507 0.107456 0.325000 0.130000 1 0 1.000000
  0 -16.362926 -0.358837 26.107038 -0.547100 -0.632473 0.548324 0.320000 0.160000 1 0 1.000000
g_rock2
  0 -16.362926 -0.358837 26.107038 -0.547100 -0.632473 0.548324 0.320000 0.160000 1 0 1.000000
  0 -15.148869 -0.708627 25.407461 0.073266 -0.991507 0.107456 0.325000 0.130000 1 0 1.000000
  0 -15.663349 -0.358837 27.506197 -0.790679 -0.606919 0.080480 0.290000 0.155000 1 0 1.000000
g_rock2
  0 -13.914398 -0.358837 24.707882 0.746613 -0.658727 0.092996 0.330000 0.100000 1 0 1.000000
  0 -13.157384 -0.358837 27.065763 0.673364 -0.608448 -0.419967 0.280000 0.105000 1 0 1.000000
  0 -15.148869 -0.708627 25.407461 0.073266 -0.991507 0.107456 0.325000 0.130000 1 0 1.000000
g_rock2
  0 -15.148869 -0.708627 25.407461 0.073266 -0.991507 0.107456 0.325000 0.130000 1 0 1.000000
  0 -13.157384 -0.358837 27.065763 0.673364 -0.608448 -0.419967 0.280000 0.105000 1 0 1.000000
  0 -14.500553 -0.708627 27.279812 -0.018280 -0.990189 -0.138534 0.285000 0.130000 1 0 1.000000
g_rock2
  0 -15.148869 -0.708627 25.407461 0.073266 -0.991507 0.107456 0.325000 0.130000 1 0 1.000000
  0 -14.500553 -0.708627 27.279812 -0.018280 -0.990189 -0.138534 0.285000 0.130000 1 0 1.000000
  0 -15.663349 -0.358837 27.506197 -0.790679 -0.606919 0.080480 0.290000 0.155000 1 0 1.000000
g_rock2
  0 -13.157384 -0.358837 27.065763 0.673364 -0.608448 -0.419967 0.280000 0.105000 1 0 1.000000
  0 -11.116075 -1.058417 29.849796 0.638082 -0.492727 -0.591668 0.215000 0.090000 1 0 1.000000
  0 -13.564609 -1.312687 29.849796 0.029831 -0.964818 -0.261222 0.230000 0.135000 1 0 1.000000
g_rock2
  0 -15.663349 -1.058417 29.849791 -0.703118 -0.694590 -0.152216 0.245000 0.170000 1 0 1.000000
  0 -15.663349 -0.358837 27.506197 -0.790679 -0.606919 0.080480 0.290000 0.155000 1 0 1.000000
  0 -14.500553 -0.708627 27.279812 -0.018280 -0.990189 -0.138534 0.285000 0.130000 1 0 1.000000
g_rock2
  0 -3.268388 -0.708627 25.057671 -0.810655 -0.546986 0.208912 0.025000 0.250000 1 0 1.000000
  0 -2.568809 -1.058417 24.008305 -0.508067 -0.733638 -0.451269 0.045000 0.230000 1 0 1.000000
  0 -1.869229 -0.358837 26.107038 -0.547100 -0.632472 0.548325 0.045000 0.280000 1 0 1.000000
g_rock2
  0 -17.762089 0.636719 25.057671 -0.810652 0.546982 0.208936 0.020000 0.415000 1 0 1.000000
  0 -16.362926 0.286929 26.107038 -0.547094 0.632477 0.548326 0.040000 0.445000 1 0 1.000000
  0 -17.062506 0.986509 24.008305 -0.508051 0.733662 -0.451249 0.040000 0.395000 1 0 1.000000
g_rock2
  0 -15.498662 0.986509 23.308722 -0.105996 0.758395 -0.643119 0.070000 0.395000 1 0 1.000000
  0 -17.062506 0.986509 24.008305 -0.508051 0.733662 -0.451249 0.040000 0.395000 1 0 1.000000
  0 -15.148869 0.636719 25.407461 0.073266 0.991507 0.107456 0.065000 0.435000 1 0 1.000000
g_rock2
  0 -13.214821 0.636719 22.958931 0.668672 0.559443 -0.489796 0.115000 0.400000 1 0 1.000000
  0 -15.498662 0.986509 23.308722 -0.105996 0.758395 -0.643119 0.070000 0.395000 1 0 1.000000
  0 -13.914398 0.286929 24.707882 0.746606 0.658734 0.092999 0.095000 0.430000 1 0 1.000000
g_rock2
  0 -15.148869 0.636719 25.407461 0.073266 0.991507 0.107456 0.065000 0.435000 1 0 1.000000
  0 -13.914398 0.286929 24.707882 0.746606 0.658734 0.092999 0.095000 0.430000 1 0 1.000000
  0 -15.498662 0.986509 23.308722 -0.105996 0.758395 -0.643119 0.070000 0.395000 1 0 1.000000
g_rock2
  0 -17.062506 0.986509 24.008305 -0.508051 0.733662 -0.451249 0.040000 0.395000 1 0 1.000000
  0 -16.362926 0.286929 26.107038 -0.547094 0.632477 0.548326 0.040000 0.445000 1 0 1.000000
  0 -15.148869 0.636719 25.407461 0.073266 0.991507 0.107456 0.065000 0.435000 1 0 1.000000
g_rock2
  0 -16.362926 0.286929 26.107038 -0.547094 0.632477 0.548326 0.040000 0.445000 1 0 1.000000
  0 -15.663349 0.286929 27.506197 -0.790682 0.606913 0.080486 0.045000 0.475000 1 0 1.000000
  0 -15.148869 0.636719 25.407461 0.073266 0.991507 0.107456 0.065000 0.435000 1 0 1.000000
g_rock2
  0 -13.914398 0.286929 24.707882 0.746606 0.658734 0.092999 0.095000 0.430000 1 0 1.000000
  0 -15.148869 0.636719 25.407461 0.073266 0.991507 0.107456 0.065000 0.435000 1 0 1.000000
  0 -13.157384 0.286929 27.065763 0.673370 0.608440 -0.419968 0.095000 0.480000 1 0 1.000000
g_rock2
  0 -15.148869 0.636719 25.407461 0.073266 0.991507 0.107456 0.065000 0.435000 1 0 1.000000
  0 -14.500553 0.636719 27.279812 -0.018280 0.990189 -0.138534 0.070000 0.475000 1 0 1.000000
  0 -13.157384 0.286929 27.065763 0.673370 0.608440 -0.419968 0.095000 0.480000 1 0 1.000000
g_rock2
  0 -15.148869 0.636719 25.407461 0.073266 0.991507 0.107456 0.065000 0.435000 1 0 1.000000
  0 -15.663349 0.286929 27.506197 -0.790682 0.606913 0.080486 0.045000 0.475000 1 0 1.000000
  0 -14.500553 0.636719 27.279812 -0.018280 0.990189 -0.138534 0.070000 0.475000 1 0 1.000000
g_rock2
  0 -13.157384 0.286929 27.065763 0.673370 0.608440 -0.419968 0.095000 0.480000 1 0 1.000000
  0 -13.564609 1.240780 29.849796 0.029831 0.964818 -0.261222 0.070000 0.530000 1 0 1.000000
  0 -11.116075 0.986509 29.849796 0.638071 0.492746 -0.591665 0.115000 0.545000 1 0 1.000000
g_rock2
  0 -15.663349 0.986509 29.849791 -0.703124 0.694584 -0.152214 0.035000 0.520000 1 0 1.000000
  0 -14.500553 0.636719 27.279812 -0.018280 0.990189 -0.138534 0.070000 0.475000 1 0 1.000000
  0 -15.663349 0.286929 27.506197 -0.790682 0.606913 0.080486 0.045000 0.475000 1 0 1.000000
g_rock2
  0 -13.157384 -0.358837 27.065763 0.673364 -0.608448 -0.419967 0.165000 0.170000 1 0 1.000000
  0 -13.914398 -0.358837 24.707882 0.746613 -0.658727 0.092996 0.165000 0.220000 1 0 1.000000
  0 -13.914398 0.286929 24.707882 0.746606 0.658734 0.092999 0.175000 0.220000 1 0 1.000000
g_rock2
  0 -13.214821 0.636719 22.958931 0.668672 0.559443 -0.489796 0.185000 0.260000 1 0 1.000000
  0 -13.914398 -0.358837 24.707882 0.746613 -0.658727 0.092996 0.165000 0.220000 1 0 1.000000
  0 -13.214821 -0.708627 22.958931 0.668683 -0.559421 -0.489808 0.155000 0.260000 1 0 1.000000
g_rock2
  0 -11.116075 0.986509 29.849796 0.638071 0.492746 -0.591665 0.190000 0.105000 1 0 1.000000
  0 -11.116075 -1.058417 29.849796 0.638082 -0.492727 -0.591668 0.150000 0.105000 1 0 1.000000
  0 -13.157384 -0.358837 27.065763 0.673364 -0.608448 -0.419967 0.165000 0.170000 1 0 1.000000
g_rock2
  0 -15.663349 0.286929 27.506197 -0.790682 0.606913 0.080486 0.175000 0.425000 1 0 1.000000
  0 -15.663349 -0.358837 27.506197 -0.790679 -0.606919 0.080480 0.165000 0.425000 1 0 1.000000
  0 -15.663349 -1.058417 29.849791 -0.703118 -0.694590 -0.152216 0.150000 0.475000 1 0 1.000000
g_rock2
  0 -16.362926 0.286929 26.107038 -0.547094 0.632477 0.548326 0.175000 0.395000 1 0 1.000000
  0 -16.362926 -0.358837 26.107038 -0.547100 -0.632473 0.548324 0.165000 0.395000 1 0 1.000000
  0 -15.663349 -0.358837 27.506197 -0.790679 -0.606919 0.080480 0.165000 0.425000 1 0 1.000000
g_rock2
  0 -16.362926 0.286929 26.107038 -0.547094 0.632477 0.548326 0.175000 0.395000 1 0 1.000000
  0 -17.762089 -0.708627 25.057671 -0.810656 -0.546986 0.208911 0.155000 0.360000 1 0 1.000000
  0 -16.362926 -0.358837 26.107038 -0.547100 -0.632473 0.548324 0.165000 0.395000 1 0 1.000000
g_rock2
  0 -17.762089 0.636719 25.057671 -0.810652 0.546982 0.208936 0.185000 0.360000 1 0 1.000000
  0 -17.062506 -1.058417 24.008305 -0.508066 -0.733638 -0.451270 0.150000 0.335000 1 0 1.000000
  0 -17.762089 -0.708627 25.057671 -0.810656 -0.546986 0.208911 0.155000 0.360000 1 0 1.000000
g_rock2
  0 -15.498662 0.986509 23.308722 -0.105996 0.758395 -0.643119 0.190000 0.305000 1 0 1.000000
  0 -15.498662 -1.058417 23.308722 -0.105989 -0.758402 -0.643112 0.150000 0.305000 1 0 1.000000
  0 -17.062506 -1.058417 24.008305 -0.508066 -0.733638 -0.451270 0.150000 0.335000 1 0 1.000000
g_rock2
  0 -15.498662 0.986509 23.308722 -0.105996 0.758395 -0.643119 0.190000 0.305000 1 0 1.000000
  0 -13.214821 -0.708627 22.958931 0.668683 -0.559421 -0.489808 0.155000 0.260000 1 0 1.000000
  0 -15.498662 -1.058417 23.308722 -0.105989 -0.758402 -0.643112 0.150000 0.305000 1 0 1.000000
g_rock2
  0 3.440680 -0.327636 27.044201 0.566983 -0.538574 -0.623272 0.045000 0.755000 1 0 1.000000
  0 2.141364 -0.327636 29.025242 0.656671 -0.619101 0.430693 0.045000 0.710000 1 0 1.000000
  0 1.691730 -0.327636 28.443359 -0.439354 -0.710882 -0.549195 0.030000 0.715000 1 0 1.000000
g_rock2
  0 3.440680 0.301986 27.044201 0.567157 0.538575 -0.623114 0.045000 0.660000 1 0 1.000000
  0 1.691730 0.301986 28.443359 -0.439365 0.710866 -0.549207 0.030000 0.700000 1 0 1.000000
  0 2.141364 0.301986 29.025242 0.656660 0.619117 0.430686 0.045000 0.705000 1 0 1.000000
g_rock2
  0 -1.004963 -1.058417 23.308722 -0.105989 -0.758402 -0.643112 0.080000 0.230000 1 0 1.000000
  0 -0.655171 -0.708627 25.407461 0.073266 -0.991507 0.107456 0.075000 0.270000 1 0 1.000000
  0 -2.568809 -1.058417 24.008305 -0.508067 -0.733638 -0.451269 0.045000 0.230000 1 0 1.000000
g_rock2
  0 1.691730 -0.327636 28.443359 -0.439354 -0.710882 -0.549195 0.330000 0.870000 1 0 1.000000
  0 3.440680 0.301986 27.044201 0.567157 0.538575 -0.623114 0.315000 0.915000 1 0 1.000000
  0 3.440680 -0.327636 27.044201 0.566983 -0.538574 -0.623272 0.330000 0.915000 1 0 1.000000
g_rock2
  0 3.440680 -0.327636 27.044201 0.566983 -0.538574 -0.623272 0.330000 0.915000 1 0 1.000000
  0 2.141364 0.301986 29.025242 0.656660 0.619117 0.430686 0.315000 0.960000 1 0 1.000000
  0 2.141364 -0.327636 29.025242 0.656671 -0.619101 0.430693 0.330000 0.960000 1 0 1.000000
g_rock2
  0 1.278879 -0.708627 22.958931 0.668683 -0.559421 -0.489808 0.125000 0.235000 1 0 1.000000
  0 0.579299 -0.358837 24.707882 0.746607 -0.658733 0.093000 0.100000 0.265000 1 0 1.000000
  0 -1.004963 -1.058417 23.308722 -0.105989 -0.758402 -0.643112 0.080000 0.230000 1 0 1.000000
g_rock2
  0 -0.655171 -0.708627 25.407461 0.073266 -0.991507 0.107456 0.075000 0.270000 1 0 1.000000
  0 -1.004963 -1.058417 23.308722 -0.105989 -0.758402 -0.643112 0.080000 0.230000 1 0 1.000000
  0 0.579299 -0.358837 24.707882 0.746607 -0.658733 0.093000 0.100000 0.265000 1 0 1.000000
g_rock2
  0 -2.568809 -1.058417 24.008305 -0.508067 -0.733638 -0.451269 0.045000 0.230000 1 0 1.000000
  0 -0.655171 -0.708627 25.407461 0.073266 -0.991507 0.107456 0.075000 0.270000 1 0 1.000000
  0 -1.869229 -0.358837 26.107038 -0.547100 -0.632472 0.548325 0.045000 0.280000 1 0 1.000000
g_rock2
  0 -1.869229 -0.358837 26.107038 -0.547100 -0.632472 0.548325 0.045000 0.280000 1 0 1.000000
  0 -0.655171 -0.708627 25.407461 0.073266 -0.991507 0.107456 0.075000 0.270000 1 0 1.000000
  0 -1.169650 -0.358837 27.506197 -0.790679 -0.606919 0.080480 0.050000 0.310000 1 0 1.000000
g_rock2
  0 0.579299 -0.358837 24.707882 0.746607 -0.658733 0.093000 0.100000 0.265000 1 0 1.000000
  0 1.336316 -0.358837 27.065763 0.673369 -0.608442 -0.419967 0.105000 0.315000 1 0 1.000000
  0 -0.655171 -0.708627 25.407461 0.073266 -0.991507 0.107456 0.075000 0.270000 1 0 1.000000
g_rock2
  0 -0.655171 -0.708627 25.407461 0.073266 -0.991507 0.107456 0.075000 0.270000 1 0 1.000000
  0 1.336316 -0.358837 27.065763 0.673369 -0.608442 -0.419967 0.105000 0.315000 1 0 1.000000
  0 -0.006854 -0.708627 27.279812 -0.018281 -0.990189 -0.138534 0.075000 0.310000 1 0 1.000000
g_rock2
  0 -0.655171 -0.708627 25.407461 0.073266 -0.991507 0.107456 0.075000 0.270000 1 0 1.000000
  0 -0.006854 -0.708627 27.279812 -0.018281 -0.990189 -0.138534 0.075000 0.310000 1 0 1.000000
  0 -1.169650 -0.358837 27.506197 -0.790679 -0.606919 0.080480 0.050000 0.310000 1 0 1.000000
g_rock2
  0 1.336316 -0.358837 27.065763 0.673369 -0.608442 -0.419967 0.105000 0.315000 1 0 1.000000
  0 3.377623 -1.058417 29.849796 0.638083 -0.492727 -0.591668 0.125000 0.380000 1 0 1.000000
  0 0.929091 -1.312687 29.849796 0.029831 -0.964818 -0.261222 0.080000 0.365000 1 0 1.000000
g_rock2
  0 -1.169650 -1.058417 29.849791 -0.703118 -0.694590 -0.152216 0.040000 0.355000 1 0 1.000000
  0 -1.169650 -0.358837 27.506197 -0.790679 -0.606919 0.080480 0.050000 0.310000 1 0 1.000000
  0 -0.006854 -0.708627 27.279812 -0.018281 -0.990189 -0.138534 0.075000 0.310000 1 0 1.000000
g_rock2
  0 -3.268388 0.636719 25.057671 -0.810651 0.546982 0.208937 0.025000 0.195000 1 0 1.000000
  0 -1.869229 0.286929 26.107038 -0.547094 0.632476 0.548326 0.045000 0.165000 1 0 1.000000
  0 -2.568809 0.986509 24.008305 -0.508051 0.733661 -0.451249 0.045000 0.210000 1 0 1.000000
g_rock2
  0 -1.004963 0.986509 23.308722 -0.105996 0.758395 -0.643119 0.080000 0.215000 1 0 1.000000
  0 -2.568809 0.986509 24.008305 -0.508051 0.733661 -0.451249 0.045000 0.210000 1 0 1.000000
  0 -0.655171 0.636719 25.407461 0.073266 0.991507 0.107456 0.075000 0.170000 1 0 1.000000
g_rock2
  0 1.278879 0.636719 22.958931 0.668673 0.559443 -0.489796 0.125000 0.210000 1 0 1.000000
  0 -1.004963 0.986509 23.308722 -0.105996 0.758395 -0.643119 0.080000 0.215000 1 0 1.000000
  0 0.579299 0.286929 24.707882 0.746611 0.658729 0.092995 0.105000 0.175000 1 0 1.000000
g_rock2
  0 -0.655171 0.636719 25.407461 0.073266 0.991507 0.107456 0.075000 0.170000 1 0 1.000000
  0 0.579299 0.286929 24.707882 0.746611 0.658729 0.092995 0.105000 0.175000 1 0 1.000000
  0 -1.004963 0.986509 23.308722 -0.105996 0.758395 -0.643119 0.080000 0.215000 1 0 1.000000
g_rock2
  0 -2.568809 0.986509 24.008305 -0.508051 0.733661 -0.451249 0.045000 0.210000 1 0 1.000000
  0 -1.869229 0.286929 26.107038 -0.547094 0.632476 0.548326 0.045000 0.165000 1 0 1.000000
  0 -0.655171 0.636719 25.407461 0.073266 0.991507 0.107456 0.075000 0.170000 1 0 1.000000
g_rock2
  0 -1.869229 0.286929 26.107038 -0.547094 0.632476 0.548326 0.045000 0.165000 1 0 1.000000
  0 -1.169650 0.286929 27.506197 -0.790682 0.606913 0.080486 0.050000 0.135000 1 0 1.000000
  0 -0.655171 0.636719 25.407461 0.073266 0.991507 0.107456 0.075000 0.170000 1 0 1.000000
g_rock2
  0 0.579299 0.286929 24.707882 0.746611 0.658729 0.092995 0.105000 0.175000 1 0 1.000000
  0 -0.655171 0.636719 25.407461 0.073266 0.991507 0.107456 0.075000 0.170000 1 0 1.000000
  0 1.336316 0.286929 27.065763 0.673365 0.608446 -0.419968 0.105000 0.130000 1 0 1.000000
g_rock2
  0 -0.655171 0.636719 25.407461 0.073266 0.991507 0.107456 0.075000 0.170000 1 0 1.000000
  0 -0.006854 0.636719 27.279812 -0.018281 0.990189 -0.138534 0.075000 0.130000 1 0 1.000000
  0 1.336316 0.286929 27.065763 0.673365 0.608446 -0.419968 0.105000 0.130000 1 0 1.000000
g_rock2
  0 -0.655171 0.636719 25.407461 0.073266 0.991507 0.107456 0.075000 0.170000 1 0 1.000000
  0 -1.169650 0.286929 27.506197 -0.790682 0.606913 0.080486 0.050000 0.135000 1 0 1.000000
  0 -0.006854 0.636719 27.279812 -0.018281 0.990189 -0.138534 0.075000 0.130000 1 0 1.000000
g_rock2
  0 1.336316 0.286929 27.065763 0.673365 0.608446 -0.419968 0.105000 0.130000 1 0 1.000000
  0 0.929091 1.240780 29.849796 0.029832 0.964818 -0.261222 0.080000 0.075000 1 0 1.000000
  0 3.377623 0.986509 29.849796 0.638071 0.492746 -0.591664 0.125000 0.065000 1 0 1.000000
g_rock2
  0 -1.169650 0.986509 29.849791 -0.703124 0.694584 -0.152214 0.040000 0.090000 1 0 1.000000
  0 -0.006854 0.636719 27.279812 -0.018281 0.990189 -0.138534 0.075000 0.130000 1 0 1.000000
  0 -1.169650 0.286929 27.506197 -0.790682 0.606913 0.080486 0.050000 0.135000 1 0 1.000000
g_rock2
  0 1.336316 0.286929 27.065763 0.673365 0.608446 -0.419968 0.090000 0.045000 1 0 1.000000
  0 1.336316 -0.358837 27.065763 0.673369 -0.608442 -0.419967 0.090000 0.035000 1 0 1.000000
  0 0.579299 -0.358837 24.707882 0.746607 -0.658733 0.093000 0.135000 0.035000 1 0 1.000000
g_rock2
  0 1.278879 0.636719 22.958931 0.668673 0.559443 -0.489796 0.175000 0.050000 1 0 1.000000
  0 0.579299 -0.358837 24.707882 0.746607 -0.658733 0.093000 0.135000 0.035000 1 0 1.000000
  0 1.278879 -0.708627 22.958931 0.668683 -0.559421 -0.489808 0.175000 0.025000 1 0 1.000000
g_rock2
  0 3.377623 0.986509 29.849796 0.638071 0.492746 -0.591664 0.020000 0.060000 1 0 1.000000
  0 3.377623 -1.058417 29.849796 0.638083 -0.492727 -0.591668 0.020000 0.020000 1 0 1.000000
  0 1.336316 -0.358837 27.065763 0.673369 -0.608442 -0.419967 0.090000 0.035000 1 0 1.000000
g_rock2
  0 -1.169650 0.286929 27.506197 -0.790682 0.606913 0.080486 0.345000 0.045000 1 0 1.000000
  0 -1.169650 -0.358837 27.506197 -0.790679 -0.606919 0.080480 0.345000 0.035000 1 0 1.000000
  0 -1.169650 -1.058417 29.849791 -0.703118 -0.694590 -0.152216 0.390000 0.020000 1 0 1.000000
g_rock2
  0 -1.869229 0.286929 26.107038 -0.547094 0.632476 0.548326 0.310000 0.045000 1 0 1.000000
  0 -1.869229 -0.358837 26.107038 -0.547100 -0.632472 0.548325 0.310000 0.035000 1 0 1.000000
  0 -1.169650 -0.358837 27.506197 -0.790679 -0.606919 0.080480 0.345000 0.035000 1 0 1.000000
g_rock2
  0 -1.869229 0.286929 26.107038 -0.547094 0.632476 0.548326 0.310000 0.045000 1 0 1.000000
  0 -3.268388 -0.708627 25.057671 -0.810655 -0.546986 0.208912 0.280000 0.025000 1 0 1.000000
  0 -1.869229 -0.358837 26.107038 -0.547100 -0.632472 0.548325 0.310000 0.035000 1 0 1.000000
g_rock2
  0 -3.268388 0.636719 25.057671 -0.810651 0.546982 0.208937 0.280000 0.050000 1 0 1.000000
  0 -2.568809 -1.058417 24.008305 -0.508067 -0.733638 -0.451269 0.255000 0.020000 1 0 1.000000
  0 -3.268388 -0.708627 25.057671 -0.810655 -0.546986 0.208912 0.280000 0.025000 1 0 1.000000
g_rock2
  0 -1.004963 0.986509 23.308722 -0.105996 0.758395 -0.643119 0.220000 0.060000 1 0 1.000000
  0 -1.004963 -1.058417 23.308722 -0.105989 -0.758402 -0.643112 0.220000 0.020000 1 0 1.000000
  0 -2.568809 -1.058417 24.008305 -0.508067 -0.733638 -0.451269 0.255000 0.020000 1 0 1.000000
g_rock2
  0 -1.004963 0.986509 23.308722 -0.105996 0.758395 -0.643119 0.220000 0.060000 1 0 1.000000
  0 1.278879 -0.708627 22.958931 0.668683 -0.559421 -0.489808 0.175000 0.025000 1 0 1.000000
  0 -1.004963 -1.058417 23.308722 -0.105989 -0.758402 -0.643112 0.220000 0.020000 1 0 1.000000
g_rock2
  0 -2.485764 -7.022202 32.543312 -0.686102 -0.198517 -0.699897 0.275000 0.765000 1 0 1.000000
  0 4.541343 -8.090730 32.957523 0.631460 -0.531523 -0.564572 0.135000 0.790000 1 0 1.000000
  0 -2.485764 -8.090730 32.957523 -0.631457 -0.531524 -0.564575 0.275000 0.790000 1 0 1.000000
g_rock2
  0 -2.485764 -8.090730 32.957523 -0.631457 -0.531524 -0.564575 0.275000 0.790000 1 0 1.000000
  0 4.541343 -8.450516 33.741810 0.658016 -0.738123 -0.148963 0.135000 0.805000 1 0 1.000000
  0 -2.485764 -8.450516 33.741810 -0.658008 -0.738131 -0.148959 0.275000 0.805000 1 0 1.000000
g_rock2
  0 -2.490695 -8.370415 36.100819 -0.570868 -0.517656 0.637293 0.275000 0.855000 1 0 1.000000
  0 4.541343 -8.450516 33.741810 0.658016 -0.738123 -0.148963 0.135000 0.805000 1 0 1.000000
  0 4.546277 -8.370415 36.100819 0.570847 -0.517665 0.637304 0.135000 0.855000 1 0 1.000000
g_rock2
  0 4.541343 -7.022202 32.543312 0.686100 -0.198518 -0.699898 0.135000 0.765000 1 0 1.000000
  0 -2.490695 -2.877082 31.779045 -0.724643 -0.125787 -0.677547 0.275000 0.665000 1 0 1.000000
  0 4.546277 -2.877082 31.779045 0.724641 -0.125787 -0.677549 0.135000 0.665000 1 0 1.000000
g_rock2
  0 4.546277 -8.370415 36.100819 0.570847 -0.517665 0.637304 0.135000 0.855000 1 0 1.000000
  0 -2.490695 -2.016196 34.990128 -0.686420 0.124758 0.716424 0.275000 0.980000 1 0 1.000000
  0 -2.490695 -8.370415 36.100819 -0.570868 -0.517656 0.637293 0.275000 0.855000 1 0 1.000000
g_rock2
  0 4.546277 -8.370415 36.100819 0.570847 -0.517665 0.637304 0.135000 0.855000 1 0 1.000000
  0 4.541343 -7.022202 32.543312 0.686100 -0.198518 -0.699898 0.110000 0.785000 1 0 1.000000
  0 4.546277 -2.016196 34.990128 0.686440 0.124755 0.716405 0.010000 0.835000 1 0 1.000000
g_rock2
  0 -2.485764 -7.022202 32.543312 -0.686102 -0.198517 -0.699897 0.305000 0.785000 1 0 1.000000
  0 -2.485764 -8.090730 32.957523 -0.631457 -0.531524 -0.564575 0.285000 0.790000 1 0 1.000000
  0 -2.485764 -8.450516 33.741810 -0.658008 -0.738131 -0.148959 0.275000 0.805000 1 0 1.000000
g_rock2
  0 -13.157384 -0.358837 27.065763 0.673364 -0.608448 -0.419967 0.280000 0.105000 1 0 1.000000
  0 -13.564609 -1.312687 29.849796 0.029831 -0.964818 -0.261222 0.230000 0.135000 1 0 1.000000
  0 -14.500553 -0.708627 27.279812 -0.018280 -0.990189 -0.138534 0.285000 0.130000 1 0 1.000000
g_rock2
  0 -15.663349 -1.058417 29.849791 -0.703118 -0.694590 -0.152216 0.245000 0.170000 1 0 1.000000
  0 -14.500553 -0.708627 27.279812 -0.018280 -0.990189 -0.138534 0.285000 0.130000 1 0 1.000000
  0 -13.564609 -1.312687 29.849796 0.029831 -0.964818 -0.261222 0.230000 0.135000 1 0 1.000000
g_rock2
  0 -13.157384 0.286929 27.065763 0.673370 0.608440 -0.419968 0.095000 0.480000 1 0 1.000000
  0 -14.500553 0.636719 27.279812 -0.018280 0.990189 -0.138534 0.070000 0.475000 1 0 1.000000
  0 -13.564609 1.240780 29.849796 0.029831 0.964818 -0.261222 0.070000 0.530000 1 0 1.000000
g_rock2
  0 -15.663349 0.986509 29.849791 -0.703124 0.694584 -0.152214 0.035000 0.520000 1 0 1.000000
  0 -13.564609 1.240780 29.849796 0.029831 0.964818 -0.261222 0.070000 0.530000 1 0 1.000000
  0 -14.500553 0.636719 27.279812 -0.018280 0.990189 -0.138534 0.070000 0.475000 1 0 1.000000
g_rock2
  0 -13.157384 -0.358837 27.065763 0.673364 -0.608448 -0.419967 0.165000 0.170000 1 0 1.000000
  0 -13.914398 0.286929 24.707882 0.746606 0.658734 0.092999 0.175000 0.220000 1 0 1.000000
  0 -13.157384 0.286929 27.065763 0.673370 0.608440 -0.419968 0.175000 0.170000 1 0 1.000000
g_rock2
  0 -13.214821 0.636719 22.958931 0.668672 0.559443 -0.489796 0.185000 0.260000 1 0 1.000000
  0 -13.914398 0.286929 24.707882 0.746606 0.658734 0.092999 0.175000 0.220000 1 0 1.000000
  0 -13.914398 -0.358837 24.707882 0.746613 -0.658727 0.092996 0.165000 0.220000 1 0 1.000000
g_rock2
  0 -11.116075 0.986509 29.849796 0.638071 0.492746 -0.591665 0.190000 0.105000 1 0 1.000000
  0 -13.157384 -0.358837 27.065763 0.673364 -0.608448 -0.419967 0.165000 0.170000 1 0 1.000000
  0 -13.157384 0.286929 27.065763 0.673370 0.608440 -0.419968 0.175000 0.170000 1 0 1.000000
g_rock2
  0 -15.663349 0.286929 27.506197 -0.790682 0.606913 0.080486 0.175000 0.425000 1 0 1.000000
  0 -15.663349 -1.058417 29.849791 -0.703118 -0.694590 -0.152216 0.150000 0.475000 1 0 1.000000
  0 -15.663349 0.986509 29.849791 -0.703124 0.694584 -0.152214 0.190000 0.475000 1 0 1.000000
g_rock2
  0 -16.362926 0.286929 26.107038 -0.547094 0.632477 0.548326 0.175000 0.395000 1 0 1.000000
  0 -15.663349 -0.358837 27.506197 -0.790679 -0.606919 0.080480 0.165000 0.425000 1 0 1.000000
  0 -15.663349 0.286929 27.506197 -0.790682 0.606913 0.080486 0.175000 0.425000 1 0 1.000000
g_rock2
  0 -16.362926 0.286929 26.107038 -0.547094 0.632477 0.548326 0.175000 0.395000 1 0 1.000000
  0 -17.762089 0.636719 25.057671 -0.810652 0.546982 0.208936 0.185000 0.360000 1 0 1.000000
  0 -17.762089 -0.708627 25.057671 -0.810656 -0.546986 0.208911 0.155000 0.360000 1 0 1.000000
g_rock2
  0 -17.762089 0.636719 25.057671 -0.810652 0.546982 0.208936 0.185000 0.360000 1 0 1.000000
  0 -17.062506 0.986509 24.008305 -0.508051 0.733662 -0.451249 0.190000 0.335000 1 0 1.000000
  0 -17.062506 -1.058417 24.008305 -0.508066 -0.733638 -0.451270 0.150000 0.335000 1 0 1.000000
g_rock2
  0 -15.498662 0.986509 23.308722 -0.105996 0.758395 -0.643119 0.190000 0.305000 1 0 1.000000
  0 -17.062506 -1.058417 24.008305 -0.508066 -0.733638 -0.451270 0.150000 0.335000 1 0 1.000000
  0 -17.062506 0.986509 24.008305 -0.508051 0.733662 -0.451249 0.190000 0.335000 1 0 1.000000
g_rock2
  0 -15.498662 0.986509 23.308722 -0.105996 0.758395 -0.643119 0.190000 0.305000 1 0 1.000000
  0 -13.214821 0.636719 22.958931 0.668672 0.559443 -0.489796 0.185000 0.260000 1 0 1.000000
  0 -13.214821 -0.708627 22.958931 0.668683 -0.559421 -0.489808 0.155000 0.260000 1 0 1.000000
g_rock2
  0 1.691730 -0.327636 28.443359 -0.439354 -0.710882 -0.549195 0.330000 0.870000 1 0 1.000000
  0 1.691730 0.301986 28.443359 -0.439365 0.710866 -0.549207 0.315000 0.870000 1 0 1.000000
  0 3.440680 0.301986 27.044201 0.567157 0.538575 -0.623114 0.315000 0.915000 1 0 1.000000
g_rock2
  0 3.440680 -0.327636 27.044201 0.566983 -0.538574 -0.623272 0.330000 0.915000 1 0 1.000000
  0 3.440680 0.301986 27.044201 0.567157 0.538575 -0.623114 0.315000 0.915000 1 0 1.000000
  0 2.141364 0.301986 29.025242 0.656660 0.619117 0.430686 0.315000 0.960000 1 0 1.000000
g_rock2
  0 1.336316 -0.358837 27.065763 0.673369 -0.608442 -0.419967 0.105000 0.315000 1 0 1.000000
  0 0.929091 -1.312687 29.849796 0.029831 -0.964818 -0.261222 0.080000 0.365000 1 0 1.000000
  0 -0.006854 -0.708627 27.279812 -0.018281 -0.990189 -0.138534 0.075000 0.310000 1 0 1.000000
g_rock2
  0 -1.169650 -1.058417 29.849791 -0.703118 -0.694590 -0.152216 0.040000 0.355000 1 0 1.000000
  0 -0.006854 -0.708627 27.279812 -0.018281 -0.990189 -0.138534 0.075000 0.310000 1 0 1.000000
  0 0.929091 -1.312687 29.849796 0.029831 -0.964818 -0.261222 0.080000 0.365000 1 0 1.000000
g_rock2
  0 1.336316 0.286929 27.065763 0.673365 0.608446 -0.419968 0.105000 0.130000 1 0 1.000000
  0 -0.006854 0.636719 27.279812 -0.018281 0.990189 -0.138534 0.075000 0.130000 1 0 1.000000
  0 0.929091 1.240780 29.849796 0.029832 0.964818 -0.261222 0.080000 0.075000 1 0 1.000000
g_rock2
  0 -1.169650 0.986509 29.849791 -0.703124 0.694584 -0.152214 0.040000 0.090000 1 0 1.000000
  0 0.929091 1.240780 29.849796 0.029832 0.964818 -0.261222 0.080000 0.075000 1 0 1.000000
  0 -0.006854 0.636719 27.279812 -0.018281 0.990189 -0.138534 0.075000 0.130000 1 0 1.000000
g_rock2
  0 1.336316 0.286929 27.065763 0.673365 0.608446 -0.419968 0.090000 0.045000 1 0 1.000000
  0 0.579299 -0.358837 24.707882 0.746607 -0.658733 0.093000 0.135000 0.035000 1 0 1.000000
  0 0.579299 0.286929 24.707882 0.746611 0.658729 0.092995 0.135000 0.045000 1 0 1.000000
g_rock2
  0 1.278879 0.636719 22.958931 0.668673 0.559443 -0.489796 0.175000 0.050000 1 0 1.000000
  0 0.579299 0.286929 24.707882 0.746611 0.658729 0.092995 0.135000 0.045000 1 0 1.000000
  0 0.579299 -0.358837 24.707882 0.746607 -0.658733 0.093000 0.135000 0.035000 1 0 1.000000
g_rock2
  0 3.377623 0.986509 29.849796 0.638071 0.492746 -0.591664 0.020000 0.060000 1 0 1.000000
  0 1.336316 -0.358837 27.065763 0.673369 -0.608442 -0.419967 0.090000 0.035000 1 0 1.000000
  0 1.336316 0.286929 27.065763 0.673365 0.608446 -0.419968 0.090000 0.045000 1 0 1.000000
g_rock2
  0 -1.169650 0.286929 27.506197 -0.790682 0.606913 0.080486 0.345000 0.045000 1 0 1.000000
  0 -1.169650 -1.058417 29.849791 -0.703118 -0.694590 -0.152216 0.390000 0.020000 1 0 1.000000
  0 -1.169650 0.986509 29.849791 -0.703124 0.694584 -0.152214 0.390000 0.060000 1 0 1.000000
g_rock2
  0 -1.869229 0.286929 26.107038 -0.547094 0.632476 0.548326 0.310000 0.045000 1 0 1.000000
  0 -1.169650 -0.358837 27.506197 -0.790679 -0.606919 0.080480 0.345000 0.035000 1 0 1.000000
  0 -1.169650 0.286929 27.506197 -0.790682 0.606913 0.080486 0.345000 0.045000 1 0 1.000000
g_rock2
  0 -1.869229 0.286929 26.107038 -0.547094 0.632476 0.548326 0.310000 0.045000 1 0 1.000000
  0 -3.268388 0.636719 25.057671 -0.810651 0.546982 0.208937 0.280000 0.050000 1 0 1.000000
  0 -3.268388 -0.708627 25.057671 -0.810655 -0.546986 0.208912 0.280000 0.025000 1 0 1.000000
g_rock2
  0 -3.268388 0.636719 25.057671 -0.810651 0.546982 0.208937 0.280000 0.050000 1 0 1.000000
  0 -2.568809 0.986509 24.008305 -0.508051 0.733661 -0.451249 0.255000 0.060000 1 0 1.000000
  0 -2.568809 -1.058417 24.008305 -0.508067 -0.733638 -0.451269 0.255000 0.020000 1 0 1.000000
g_rock2
  0 -1.004963 0.986509 23.308722 -0.105996 0.758395 -0.643119 0.220000 0.060000 1 0 1.000000
  0 -2.568809 -1.058417 24.008305 -0.508067 -0.733638 -0.451269 0.255000 0.020000 1 0 1.000000
  0 -2.568809 0.986509 24.008305 -0.508051 0.733661 -0.451249 0.255000 0.060000 1 0 1.000000
g_rock2
  0 -1.004963 0.986509 23.308722 -0.105996 0.758395 -0.643119 0.220000 0.060000 1 0 1.000000
  0 1.278879 0.636719 22.958931 0.668673 0.559443 -0.489796 0.175000 0.050000 1 0 1.000000
  0 1.278879 -0.708627 22.958931 0.668683 -0.559421 -0.489808 0.175000 0.025000 1 0 1.000000
g_rock2
  0 10.858280 5.339355 31.546848 -0.213641 0.976909 0.002502 0.600000 0.915000 1 0 1.000000
  0 20.474173 5.339355 31.546848 0.646385 0.763011 0.001134 0.410000 0.915000 1 0 1.000000
  0 10.344744 4.993752 30.432772 -0.188918 0.888703 -0.417752 0.610000 0.945000 1 0 1.000000
g_rock2
  0 -2.485764 -7.022202 32.543312 -0.686102 -0.198517 -0.699897 0.275000 0.765000 1 0 1.000000
  0 4.541343 -7.022202 32.543312 0.686100 -0.198518 -0.699898 0.135000 0.765000 1 0 1.000000
  0 4.541343 -8.090730 32.957523 0.631460 -0.531523 -0.564572 0.135000 0.790000 1 0 1.000000
g_rock2
  0 -2.485764 -8.090730 32.957523 -0.631457 -0.531524 -0.564575 0.275000 0.790000 1 0 1.000000
  0 4.541343 -8.090730 32.957523 0.631460 -0.531523 -0.564572 0.135000 0.790000 1 0 1.000000
  0 4.541343 -8.450516 33.741810 0.658016 -0.738123 -0.148963 0.135000 0.805000 1 0 1.000000
g_rock2
  0 -2.490695 -8.370415 36.100819 -0.570868 -0.517656 0.637293 0.275000 0.855000 1 0 1.000000
  0 -2.485764 -8.450516 33.741810 -0.658008 -0.738131 -0.148959 0.275000 0.805000 1 0 1.000000
  0 4.541343 -8.450516 33.741810 0.658016 -0.738123 -0.148963 0.135000 0.805000 1 0 1.000000
g_rock2
  0 4.541343 -7.022202 32.543312 0.686100 -0.198518 -0.699898 0.135000 0.765000 1 0 1.000000
  0 -2.485764 -7.022202 32.543312 -0.686102 -0.198517 -0.699897 0.275000 0.765000 1 0 1.000000
  0 -2.490695 -2.877082 31.779045 -0.724643 -0.125787 -0.677547 0.275000 0.665000 1 0 1.000000
g_rock2
  0 4.546277 -8.370415 36.100819 0.570847 -0.517665 0.637304 0.135000 0.855000 1 0 1.000000
  0 4.546277 -2.016196 34.990128 0.686440 0.124755 0.716405 0.135000 0.980000 1 0 1.000000
  0 -2.490695 -2.016196 34.990128 -0.686420 0.124758 0.716424 0.275000 0.980000 1 0 1.000000
g_rock2
  0 4.546277 -8.370415 36.100819 0.570847 -0.517665 0.637304 0.135000 0.855000 1 0 1.000000
  0 4.541343 -8.450516 33.741810 0.658016 -0.738123 -0.148963 0.135000 0.805000 1 0 1.000000
  0 4.541343 -7.022202 32.543312 0.686100 -0.198518 -0.699898 0.110000 0.785000 1 0 1.000000
g_rock2
  0 4.541343 -8.450516 33.741810 0.658016 -0.738123 -0.148963 0.135000 0.805000 1 0 1.000000
  0 4.541343 -8.090730 32.957523 0.631460 -0.531523 -0.564572 0.130000 0.790000 1 0 1.000000
  0 4.541343 -7.022202 32.543312 0.686100 -0.198518 -0.699898 0.110000 0.785000 1 0 1.000000
g_rock2
  0 4.541343 -7.022202 32.543312 0.686100 -0.198518 -0.699898 0.110000 0.785000 1 0 1.000000
  0 4.546277 -2.877082 31.779045 0.724641 -0.125787 -0.677549 0.010000 0.770000 1 0 1.000000
  0 4.546277 -2.016196 34.990128 0.686440 0.124755 0.716405 0.010000 0.835000 1 0 1.000000
g_rock2
  0 -2.485764 -8.450516 33.741810 -0.658008 -0.738131 -0.148959 0.275000 0.805000 1 0 1.000000
  0 -2.490695 -8.370415 36.100819 -0.570868 -0.517656 0.637293 0.275000 0.855000 1 0 1.000000
  0 -2.485764 -7.022202 32.543312 -0.686102 -0.198517 -0.699897 0.305000 0.785000 1 0 1.000000
g_rock2
  0 -2.490695 -8.370415 36.100819 -0.570868 -0.517656 0.637293 0.275000 0.855000 1 0 1.000000
  0 -2.490695 -2.016196 34.990128 -0.686420 0.124758 0.716424 0.400000 0.835000 1 0 1.000000
  0 -2.485764 -7.022202 32.543312 -0.686102 -0.198517 -0.699897 0.305000 0.785000 1 0 1.000000
g_rock2
  0 -2.490695 -2.016196 34.990128 -0.686420 0.124758 0.716424 0.400000 0.835000 1 0 1.000000
  0 -2.490695 -2.877082 31.779045 -0.724643 -0.125787 -0.677547 0.405000 0.770000 1 0 1.000000
  0 -2.485764 -7.022202 32.543312 -0.686102 -0.198517 -0.699897 0.305000 0.785000 1 0 1.000000
g_rock2
  0 6.366142 -1.624002 37.764816 -0.648688 -0.435749 0.623961 0.710000 0.435000 1 0 1.000000
  0 20.486141 -0.000001 38.308758 0.642174 -0.000000 0.766559 0.990000 0.400000 1 0 1.000000
  0 6.366140 -0.000002 38.308758 -0.642115 -0.000000 0.766608 0.710000 0.400000 1 0 1.000000
g_rock2
  0 10.858280 5.339355 31.546848 -0.213641 0.976909 0.002502 0.600000 0.915000 1 0 1.000000
  0 10.344744 4.993752 30.432772 -0.188918 0.888703 -0.417752 0.610000 0.945000 1 0 1.000000
  0 10.367558 4.993752 32.649319 -0.187400 0.893570 0.407940 0.610000 0.890000 1 0 1.000000
g_rock2
  0 10.344744 4.993752 30.432772 -0.188918 0.888703 -0.417752 0.610000 0.945000 1 0 1.000000
  0 20.474173 5.339355 31.546848 0.646385 0.763011 0.001134 0.410000 0.915000 1 0 1.000000
  0 20.474173 4.993752 30.432772 0.650062 0.633759 -0.419248 0.410000 0.945000 1 0 1.000000
g_rock2
  0 20.474173 -5.329113 31.536510 0.646386 -0.763009 -0.001133 0.745000 0.684746 1 0 1.000000
  0 20.470449 -3.225332 31.544788 0.999768 -0.021492 -0.001475 0.795000 0.684746 1 0 1.000000
  0 20.474173 -4.983513 32.650581 0.652612 -0.639017 0.407131 0.755000 0.659405 1 0 1.000000
g_rock2
  0 20.474173 5.339355 31.546848 0.646385 0.763011 0.001134 0.984019 0.684746 1 0 1.000000
  0 20.470449 3.231032 31.537033 0.999795 0.020193 -0.001452 0.934906 0.684721 1 0 1.000000
  0 20.474173 4.993752 30.432772 0.650062 0.633759 -0.419248 0.975968 0.710222 1 0 1.000000
g_rock2
  0 11.017986 -5.329113 31.536510 -0.153024 -0.988222 -0.001239 0.627500 0.710000 1 0 1.000000
  0 10.344744 -4.983513 32.650581 -0.186913 -0.897565 0.399301 0.641250 0.735000 1 0 1.000000
  0 10.344744 -4.983513 30.434038 -0.187153 -0.890634 -0.414421 0.641250 0.685000 1 0 1.000000
g_rock2
  0 20.474173 4.993752 32.649319 0.652725 0.637971 0.408588 0.410000 0.890000 1 0 1.000000
  0 10.858280 5.339355 31.546848 -0.213641 0.976909 0.002502 0.600000 0.915000 1 0 1.000000
  0 10.367558 4.993752 32.649319 -0.187400 0.893570 0.407940 0.610000 0.890000 1 0 1.000000
g_rock2
  0 6.362203 3.231032 28.936396 -0.764623 0.638980 -0.084001 0.690000 0.985000 1 0 1.000000
  0 10.344744 4.993752 30.432772 -0.188918 0.888703 -0.417752 0.610000 0.945000 1 0 1.000000
  0 20.470449 3.231032 28.936396 0.811945 0.530430 -0.243698 0.410000 0.985000 1 0 1.000000
g_rock2
  0 20.470449 3.231032 31.537033 0.999795 0.020193 -0.001452 0.934906 0.684721 1 0 1.000000
  0 20.470449 3.231032 28.936396 0.811945 0.530430 -0.243698 0.934906 0.745151 1 0 1.000000
  0 20.474173 4.993752 30.432772 0.650062 0.633759 -0.419248 0.975968 0.710222 1 0 1.000000
g_rock2
  0 10.344744 -4.983513 32.650581 -0.186913 -0.897565 0.399301 0.641250 0.735000 1 0 1.000000
  0 20.474173 -5.329113 31.536510 0.646386 -0.763009 -0.001133 0.435000 0.710000 1 0 1.000000
  0 20.474173 -4.983513 32.650581 0.652612 -0.639017 0.407131 0.435000 0.735000 1 0 1.000000
g_rock2
  0 20.474173 -4.983513 30.434038 0.650257 -0.632813 -0.420373 0.435000 0.685000 1 0 1.000000
  0 10.344744 -4.983513 30.434038 -0.187153 -0.890634 -0.414421 0.641250 0.685000 1 0 1.000000
  0 6.362203 -3.225332 28.944143 -0.764566 -0.639072 -0.083825 0.722500 0.640000 1 0 1.000000
g_rock2
  0 6.364172 -3.225332 34.242531 -0.742495 -0.651926 0.153929 0.722500 0.775000 1 0 1.000000
  0 10.344744 -4.983513 30.434038 -0.187153 -0.890634 -0.414421 0.641250 0.685000 1 0 1.000000
  0 10.344744 -4.983513 32.650581 -0.186913 -0.897565 0.399301 0.641250 0.735000 1 0 1.000000
g_rock2
  0 20.486141 -0.000001 38.308758 0.642174 -0.000000 0.766559 0.990000 0.400000 1 0 1.000000
  0 6.366140 1.623998 37.764816 -0.648693 0.435746 0.623958 0.710000 0.365000 1 0 1.000000
  0 6.366140 -0.000002 38.308758 -0.642115 -0.000000 0.766608 0.710000 0.400000 1 0 1.000000
g_rock2
  0 6.366140 2.812849 36.278759 -0.657830 0.681764 0.320088 0.710000 0.330000 1 0 1.000000
  0 20.478296 3.231032 34.239761 0.779026 0.547747 0.305109 0.990000 0.285000 1 0 1.000000
  0 6.364172 3.231032 34.239761 -0.742336 0.651878 0.154896 0.710000 0.285000 1 0 1.000000
g_rock2
  0 20.470449 -3.225332 31.544788 0.999768 -0.021492 -0.001475 0.795000 0.684746 1 0 1.000000
  0 20.478296 -3.225332 34.242531 0.778768 -0.548822 0.303834 0.795000 0.623381 1 0 1.000000
  0 20.474173 -4.983513 32.650581 0.652612 -0.639017 0.407131 0.755000 0.659405 1 0 1.000000
g_rock2
  0 6.366142 -2.812851 36.278759 -0.657593 -0.682339 0.319350 0.710000 0.470000 1 0 1.000000
  0 20.486141 -1.624001 37.764816 0.648779 -0.435716 0.623889 0.990000 0.435000 1 0 1.000000
  0 6.366142 -1.624002 37.764816 -0.648688 -0.435749 0.623961 0.710000 0.435000 1 0 1.000000
g_rock2
  0 20.474173 4.993752 32.649319 0.652725 0.637971 0.408588 0.410000 0.890000 1 0 1.000000
  0 10.367558 4.993752 32.649319 -0.187400 0.893570 0.407940 0.610000 0.890000 1 0 1.000000
  0 6.364172 3.231032 34.239761 -0.742336 0.651878 0.154896 0.690000 0.850000 1 0 1.000000
g_rock2
  0 6.362203 -3.225332 28.944143 -0.764566 -0.639072 -0.083825 0.710000 0.800000 1 0 1.000000
  0 20.470449 -3.225332 27.521101 0.575993 -0.578153 -0.577902 0.990000 0.830000 1 0 1.000000
  0 20.470449 -3.225332 28.944143 0.812017 -0.530242 -0.243870 0.990000 0.800000 1 0 1.000000
g_rock2
  0 10.344744 4.993752 30.432772 -0.188918 0.888703 -0.417752 0.610000 0.945000 1 0 1.000000
  0 6.362203 3.231032 28.936396 -0.764623 0.638980 -0.084001 0.690000 0.985000 1 0 1.000000
  0 6.364172 3.231032 34.239761 -0.742336 0.651878 0.154896 0.690000 0.850000 1 0 1.000000
g_rock2
  0 20.478296 -3.225332 34.242531 0.778768 -0.548822 0.303834 0.990000 0.510000 1 0 1.000000
  0 6.366142 -2.812851 36.278759 -0.657593 -0.682339 0.319350 0.710000 0.470000 1 0 1.000000
  0 6.364172 -3.225332 34.242531 -0.742495 -0.651926 0.153929 0.710000 0.510000 1 0 1.000000
g_rock2
  0 20.474173 -4.983513 32.650581 0.652612 -0.639017 0.407131 0.435000 0.735000 1 0 1.000000
  0 20.478296 -3.225332 34.242531 0.778768 -0.548822 0.303834 0.435000 0.775000 1 0 1.000000
  0 10.344744 -4.983513 32.650581 -0.186913 -0.897565 0.399301 0.641250 0.735000 1 0 1.000000
g_rock2
  0 10.367558 4.993752 32.649319 -0.187400 0.893570 0.407940 0.610000 0.890000 1 0 1.000000
  0 10.344744 4.993752 30.432772 -0.188918 0.888703 -0.417752 0.610000 0.945000 1 0 1.000000
  0 6.364172 3.231032 34.239761 -0.742336 0.651878 0.154896 0.690000 0.850000 1 0 1.000000
g_rock2
  0 20.474173 5.339355 31.546848 0.646385 0.763011 0.001134 0.984019 0.684746 1 0 1.000000
  0 20.474173 4.993752 32.649319 0.652725 0.637971 0.408588 0.975968 0.659405 1 0 1.000000
  0 20.470449 3.231032 31.537033 0.999795 0.020193 -0.001452 0.934906 0.684721 1 0 1.000000
g_rock2
  0 20.474173 4.993752 30.432772 0.650062 0.633759 -0.419248 0.410000 0.945000 1 0 1.000000
  0 20.470449 3.231032 28.936396 0.811945 0.530430 -0.243698 0.410000 0.985000 1 0 1.000000
  0 10.344744 4.993752 30.432772 -0.188918 0.888703 -0.417752 0.610000 0.945000 1 0 1.000000
g_rock2
  0 6.362203 -3.225332 28.944143 -0.764566 -0.639072 -0.083825 0.722500 0.640000 1 0 1.000000
  0 10.344744 -4.983513 30.434038 -0.187153 -0.890634 -0.414421 0.641250 0.685000 1 0 1.000000
  0 6.364172 -3.225332 34.242531 -0.742495 -0.651926 0.153929 0.722500 0.775000 1 0 1.000000
g_rock2
  0 20.478296 3.231032 34.239761 0.779026 0.547747 0.305109 0.934906 0.624190 1 0 1.000000
  0 20.470449 3.231032 31.537033 0.999795 0.020193 -0.001452 0.934906 0.684721 1 0 1.000000
  0 20.474173 4.993752 32.649319 0.652725 0.637971 0.408588 0.975968 0.659405 1 0 1.000000
g_rock2
  0 20.474173 -5.329113 31.536510 0.646386 -0.763009 -0.001133 0.745000 0.684746 1 0 1.000000
  0 20.474173 -4.983513 30.434038 0.650257 -0.632813 -0.420373 0.755000 0.710222 1 0 1.000000
  0 20.470449 -3.225332 31.544788 0.999768 -0.021492 -0.001475 0.795000 0.684746 1 0 1.000000
g_rock2
  0 20.474173 4.993752 32.649319 0.652725 0.637971 0.408588 0.410000 0.890000 1 0 1.000000
  0 6.364172 3.231032 34.239761 -0.742336 0.651878 0.154896 0.690000 0.850000 1 0 1.000000
  0 20.478296 3.231032 34.239761 0.779026 0.547747 0.305109 0.410000 0.850000 1 0 1.000000
g_rock2
  0 20.470449 3.231032 28.936396 0.811945 0.530430 -0.243698 0.990000 0.985000 1 0 1.000000
  0 6.362203 3.231032 27.515568 -0.577311 0.577137 -0.577602 0.710000 0.955000 1 0 1.000000
  0 6.362203 3.231032 28.936396 -0.764623 0.638980 -0.084001 0.710000 0.985000 1 0 1.000000
g_rock2
  0 11.017986 -5.329113 31.536510 -0.153024 -0.988222 -0.001239 0.627500 0.710000 1 0 1.000000
  0 20.474173 -5.329113 31.536510 0.646386 -0.763009 -0.001133 0.435000 0.710000 1 0 1.000000
  0 10.344744 -4.983513 32.650581 -0.186913 -0.897565 0.399301 0.641250 0.735000 1 0 1.000000
g_rock2
  0 20.470449 -3.225332 28.944143 0.812017 -0.530242 -0.243870 0.794603 0.745151 1 0 1.000000
  0 20.470449 -3.225332 31.544788 0.999768 -0.021492 -0.001475 0.795000 0.684746 1 0 1.000000
  0 20.474173 -4.983513 30.434038 0.650257 -0.632813 -0.420373 0.755000 0.710222 1 0 1.000000
g_rock2
  0 20.486141 1.623999 37.764816 0.648779 0.435715 0.623889 0.990000 0.365000 1 0 1.000000
  0 6.366140 2.812849 36.278759 -0.657830 0.681764 0.320088 0.710000 0.330000 1 0 1.000000
  0 6.366140 1.623998 37.764816 -0.648693 0.435746 0.623958 0.710000 0.365000 1 0 1.000000
g_rock2
  0 20.474173 -4.983513 30.434038 0.650257 -0.632813 -0.420373 0.435000 0.685000 1 0 1.000000
  0 6.362203 -3.225332 28.944143 -0.764566 -0.639072 -0.083825 0.722500 0.640000 1 0 1.000000
  0 20.470449 -3.225332 28.944143 0.812017 -0.530242 -0.243870 0.435000 0.640000 1 0 1.000000
g_rock2
  0 20.474173 -4.983513 30.434038 0.650257 -0.632813 -0.420373 0.435000 0.685000 1 0 1.000000
  0 11.017986 -5.329113 31.536510 -0.153024 -0.988222 -0.001239 0.627500 0.710000 1 0 1.000000
  0 10.344744 -4.983513 30.434038 -0.187153 -0.890634 -0.414421 0.641250 0.685000 1 0 1.000000
g_rock2
  0 6.364172 -3.225332 34.242531 -0.742495 -0.651926 0.153929 0.722500 0.775000 1 0 1.000000
  0 10.344744 -4.983513 32.650581 -0.186913 -0.897565 0.399301 0.641250 0.735000 1 0 1.000000
  0 20.478296 -3.225332 34.242531 0.778768 -0.548822 0.303834 0.435000 0.775000 1 0 1.000000
g_rock2
  0 -22.067255 2.115862 35.926891 -0.486422 0.342647 0.803733 0.340000 0.345000 1 0 1.000000
  0 -22.067255 3.670604 34.372162 -0.486404 0.803733 0.342673 0.370000 0.315000 1 0 1.000000
  0 -22.067255 3.670604 30.124517 -0.486423 0.803732 -0.342647 0.370000 0.235000 1 0 1.000000
g_rock2
  0 -22.067255 -2.131773 28.569763 -0.486399 -0.342669 -0.803737 0.255000 0.205000 1 0 1.000000
  0 -22.067255 -3.686516 30.124517 -0.486456 -0.803713 -0.342645 0.225000 0.235000 1 0 1.000000
  0 -22.067255 3.670604 30.124517 -0.486423 0.803732 -0.342647 0.370000 0.235000 1 0 1.000000
g_rock2
  0 -22.067255 3.670604 30.124517 -0.486423 0.803732 -0.342647 0.370000 0.235000 1 0 1.000000
  0 -22.067255 2.115862 28.569763 -0.486404 0.342673 -0.803733 0.340000 0.205000 1 0 1.000000
  0 -22.067255 -2.131773 28.569763 -0.486399 -0.342669 -0.803737 0.255000 0.205000 1 0 1.000000
g_rock2
  0 22.485779 1.994816 31.792854 0.791390 0.568627 -0.224421 0.100000 0.950000 1 0 1.000000
  0 22.485779 1.994816 34.105461 0.791388 0.568627 0.224432 0.100000 0.905000 1 0 1.000000
  0 22.485779 1.148345 34.951927 0.791390 0.224421 0.568627 0.085000 0.890000 1 0 1.000000
g_rock2
  0 -22.067255 2.115862 35.926891 -0.486422 0.342647 0.803733 0.250000 0.605000 1 0 1.000000
  0 -22.067255 -2.131773 35.926891 -0.486404 -0.342673 0.803733 0.310000 0.540000 1 0 1.000000
  0 -18.467255 -1.423834 34.700703 0.193252 -0.369315 0.908989 0.245000 0.500000 1 0 1.000000
g_rock2
  0 22.485779 -1.164256 30.946379 0.791388 -0.224431 -0.568626 0.040000 0.970000 1 0 1.000000
  0 22.485779 1.148345 30.946379 0.791386 0.224431 -0.568629 0.085000 0.970000 1 0 1.000000
  0 22.485779 1.994816 31.792854 0.791390 0.568627 -0.224421 0.100000 0.950000 1 0 1.000000
g_rock2
  0 22.485779 1.148345 34.951927 0.791390 0.224421 0.568627 0.085000 0.890000 1 0 1.000000
  0 22.485779 -1.164256 34.951927 0.791385 -0.224431 0.568630 0.040000 0.890000 1 0 1.000000
  0 22.485779 -2.010727 34.105453 0.791395 -0.568621 0.224420 0.025000 0.905000 1 0 1.000000
g_rock2
  0 -22.067255 -3.686516 34.372143 -0.486442 -0.803722 0.342644 0.225000 0.315000 1 0 1.000000
  0 -22.067255 -2.131773 35.926891 -0.486404 -0.342673 0.803733 0.255000 0.345000 1 0 1.000000
  0 -22.067255 2.115862 35.926891 -0.486422 0.342647 0.803733 0.340000 0.345000 1 0 1.000000
g_rock2
  0 -22.067255 -3.686516 30.124517 -0.486456 -0.803713 -0.342645 0.225000 0.235000 1 0 1.000000
  0 -22.067255 -3.686516 34.372143 -0.486442 -0.803722 0.342644 0.225000 0.315000 1 0 1.000000
  0 -22.067255 3.670604 30.124517 -0.486423 0.803732 -0.342647 0.370000 0.235000 1 0 1.000000
g_rock2
  0 20.485779 1.643903 30.088045 0.905735 0.167397 -0.389387 0.900000 0.715000 1 0 1.000000
  0 22.485779 1.148345 30.946379 0.791386 0.224431 -0.568629 0.880000 0.680000 1 0 1.000000
  0 22.485779 -1.164256 30.946379 0.791388 -0.224431 -0.568626 0.850000 0.680000 1 0 1.000000
g_rock2
  0 -18.467255 -1.423834 34.700703 0.193252 -0.369315 0.908989 0.245000 0.500000 1 0 1.000000
  0 -22.067255 -2.131773 35.926891 -0.486404 -0.342673 0.803733 0.310000 0.540000 1 0 1.000000
  0 -22.067255 -3.686516 34.372143 -0.486442 -0.803722 0.342644 0.330000 0.505000 1 0 1.000000
g_rock2
  0 20.485779 -2.869058 31.297298 0.898595 -0.406384 -0.165465 0.800000 0.690000 1 0 1.000000
  0 20.485779 -1.659814 30.088045 0.905726 -0.167431 -0.389393 0.830000 0.715000 1 0 1.000000
  0 22.485779 -1.164256 30.946379 0.791388 -0.224431 -0.568626 0.850000 0.680000 1 0 1.000000
g_rock2
  0 22.485779 -2.010727 34.105453 0.791395 -0.568621 0.224420 0.025000 0.905000 1 0 1.000000
  0 22.485779 -2.010727 31.792854 0.791397 -0.568619 -0.224418 0.025000 0.950000 1 0 1.000000
  0 22.485779 1.994816 31.792854 0.791390 0.568627 -0.224421 0.100000 0.950000 1 0 1.000000
g_rock2
  0 20.485779 -1.659814 35.810257 0.907401 -0.165516 0.386301 0.830000 0.590000 1 0 1.000000
  0 22.485779 -1.164256 34.951927 0.791385 -0.224431 0.568630 0.850000 0.625000 1 0 1.000000
  0 22.485779 1.148345 34.951927 0.791390 0.224421 0.568627 0.880000 0.625000 1 0 1.000000
g_rock2
  0 -22.067255 -3.686516 34.372143 -0.486442 -0.803722 0.342644 0.330000 0.505000 1 0 1.000000
  0 -22.067255 -3.686516 30.124517 -0.486456 -0.803713 -0.342645 0.345000 0.420000 1 0 1.000000
  0 -18.467255 -2.460329 30.832455 0.193250 -0.908990 -0.369313 0.270000 0.420000 1 0 1.000000
g_rock2
  0 -18.467255 1.407923 29.795952 0.193251 0.369317 -0.908988 0.100000 0.570000 1 0 1.000000
  0 -22.067255 2.115862 28.569763 -0.486404 0.342673 -0.803733 0.090000 0.645000 1 0 1.000000
  0 -22.067255 3.670604 30.124517 -0.486423 0.803732 -0.342647 0.135000 0.645000 1 0 1.000000
g_rock2
  0 22.485779 -2.010727 31.792854 0.791397 -0.568619 -0.224418 0.025000 0.950000 1 0 1.000000
  0 22.485779 -1.164256 30.946379 0.791388 -0.224431 -0.568626 0.040000 0.970000 1 0 1.000000
  0 22.485779 1.994816 31.792854 0.791390 0.568627 -0.224421 0.100000 0.950000 1 0 1.000000
g_rock2
  0 22.485779 1.994816 34.105461 0.791388 0.568627 0.224432 0.892500 0.635000 1 0 1.000000
  0 22.485779 1.994816 31.792854 0.791390 0.568627 -0.224421 0.892500 0.670000 1 0 1.000000
  0 20.485779 2.853147 31.297298 0.899106 0.405213 -0.165564 0.930000 0.690000 1 0 1.000000
g_rock2
  0 20.485779 1.643903 35.810257 0.907406 0.165514 0.386290 0.900000 0.590000 1 0 1.000000
  0 22.485779 1.148345 34.951927 0.791390 0.224421 0.568627 0.880000 0.625000 1 0 1.000000
  0 22.485779 1.994816 34.105461 0.791388 0.568627 0.224432 0.892500 0.635000 1 0 1.000000
g_rock2
  0 20.485779 -2.869058 31.297298 0.898595 -0.406384 -0.165465 0.800000 0.690000 1 0 1.000000
  0 22.485779 -2.010727 31.792854 0.791397 -0.568619 -0.224418 0.840000 0.670000 1 0 1.000000
  0 22.485779 -2.010727 34.105453 0.791395 -0.568621 0.224420 0.840000 0.635000 1 0 1.000000
g_rock2
  0 20.485779 -2.869058 34.601009 0.903027 -0.396624 0.165021 0.800000 0.615000 1 0 1.000000
  0 22.485779 -2.010727 34.105453 0.791395 -0.568621 0.224420 0.840000 0.635000 1 0 1.000000
  0 22.485779 -1.164256 34.951927 0.791385 -0.224431 0.568630 0.850000 0.625000 1 0 1.000000
g_rock2
  0 -22.067255 -3.686516 30.124517 -0.486456 -0.803713 -0.342645 0.345000 0.420000 1 0 1.000000
  0 -22.067255 -2.131773 28.569763 -0.486399 -0.342669 -0.803737 0.345000 0.380000 1 0 1.000000
  0 -18.467255 -1.423834 29.795952 0.193251 -0.369322 -0.908986 0.270000 0.390000 1 0 1.000000
g_rock2
  0 -18.467255 2.444418 33.664215 0.193253 0.908987 0.369318 0.180000 0.555000 1 0 1.000000
  0 -22.067255 3.670604 34.372162 -0.486404 0.803733 0.342673 0.215000 0.625000 1 0 1.000000
  0 -22.067255 2.115862 35.926891 -0.486422 0.342647 0.803733 0.250000 0.605000 1 0 1.000000
g_rock2
  0 -18.467255 2.444418 33.664215 0.193253 0.908987 0.369318 0.180000 0.555000 1 0 1.000000
  0 -18.467255 2.444418 30.832455 0.193249 0.908989 -0.369316 0.130000 0.570000 1 0 1.000000
  0 -22.067255 3.670604 30.124517 -0.486423 0.803732 -0.342647 0.135000 0.645000 1 0 1.000000
g_rock2
  0 -18.467255 -1.423834 34.700703 0.193252 -0.369315 0.908989 0.420000 0.490000 1 0 1.000000
  0 -18.467255 -2.460329 33.664207 0.193251 -0.908987 0.369319 0.420000 0.515000 1 0 1.000000
  0 -4.167254 -2.460329 33.664207 0.000000 -0.923879 0.382685 0.700000 0.515000 1 0 1.000000
g_rock2
  0 -18.467255 -2.460329 30.832455 0.193250 -0.908990 -0.369313 0.420000 0.570000 1 0 1.000000
  0 -18.467255 -1.423834 29.795952 0.193251 -0.369322 -0.908986 0.420000 0.600000 1 0 1.000000
  0 -4.167254 -1.423834 29.795952 0.000000 -0.382687 -0.923878 0.700000 0.600000 1 0 1.000000
g_rock2
  0 -4.473856 2.957016 32.548752 -0.693838 0.718831 0.043259 0.395000 0.140000 1 0 1.000000
  0 -4.473856 2.957016 29.248753 -0.577353 0.577336 -0.577362 0.395000 0.205000 1 0 1.000000
  0 -4.473855 -2.957016 32.548752 -0.669996 -0.731065 0.129033 0.510000 0.140000 1 0 1.000000
g_rock2
  0 7.326145 -1.845549 35.599365 0.000000 -0.735477 0.677550 0.860000 0.010000 1 0 1.000000
  0 7.326144 0.000000 36.448753 -0.000000 -0.000003 1.000000 0.820000 0.010000 1 0 1.000000
  0 -4.473855 -0.000001 36.448753 -0.623997 0.000002 0.781427 0.820000 0.240000 1 0 1.000000
g_rock2
  0 20.485779 2.853147 31.297298 0.899106 0.405213 -0.165564 0.930000 0.690000 1 0 1.000000
  0 22.485779 1.994816 31.792854 0.791390 0.568627 -0.224421 0.892500 0.670000 1 0 1.000000
  0 22.485779 1.148345 30.946379 0.791386 0.224431 -0.568629 0.880000 0.680000 1 0 1.000000
g_rock2
  0 -22.067255 -2.131773 28.569763 -0.486399 -0.342669 -0.803737 0.010000 0.620000 1 0 1.000000
  0 -22.067255 2.115862 28.569763 -0.486404 0.342673 -0.803733 0.090000 0.645000 1 0 1.000000
  0 -18.467255 1.407923 29.795952 0.193251 0.369317 -0.908988 0.100000 0.570000 1 0 1.000000
g_rock2
  0 6.364172 -3.225332 34.242531 -0.742495 -0.651926 0.153929 0.415000 0.615000 1 0 1.000000
  0 6.366142 -2.812851 36.278759 -0.657593 -0.682339 0.319350 0.405000 0.575000 1 0 1.000000
  0 6.366140 2.812849 36.278759 -0.657830 0.681764 0.320088 0.295000 0.575000 1 0 1.000000
g_rock2
  0 6.366140 2.812849 36.278759 -0.657830 0.681764 0.320088 0.710000 0.330000 1 0 1.000000
  0 20.486141 2.812850 36.278759 0.658150 0.681736 0.319491 0.990000 0.330000 1 0 1.000000
  0 20.478296 3.231032 34.239761 0.779026 0.547747 0.305109 0.990000 0.285000 1 0 1.000000
g_rock2
  0 -18.467255 1.407923 29.795952 0.193251 0.369317 -0.908988 0.420000 0.320000 1 0 1.000000
  0 -18.467255 2.444418 30.832455 0.193249 0.908989 -0.369316 0.420000 0.350000 1 0 1.000000
  0 -4.167254 2.444418 30.832455 0.000000 0.923878 -0.382688 0.700000 0.350000 1 0 1.000000
g_rock2
  0 6.366142 -2.812851 36.278759 -0.657593 -0.682339 0.319350 0.710000 0.470000 1 0 1.000000
  0 20.486143 -2.812850 36.278759 0.657921 -0.682300 0.318759 0.990000 0.470000 1 0 1.000000
  0 20.486141 -1.624001 37.764816 0.648779 -0.435716 0.623889 0.990000 0.435000 1 0 1.000000
g_rock2
  0 -18.467255 -2.460329 33.664207 0.193251 -0.908987 0.369319 0.420000 0.515000 1 0 1.000000
  0 -18.467255 -2.460329 30.832455 0.193250 -0.908990 -0.369313 0.420000 0.570000 1 0 1.000000
  0 -4.167254 -2.460329 30.832455 0.000000 -0.923878 -0.382686 0.700000 0.570000 1 0 1.000000
g_rock2
  0 6.364172 3.231032 34.239761 -0.742336 0.651878 0.154896 0.285000 0.615000 1 0 1.000000
  0 6.364172 -3.225332 34.242531 -0.742495 -0.651926 0.153929 0.415000 0.615000 1 0 1.000000
  0 6.366140 2.812849 36.278759 -0.657830 0.681764 0.320088 0.295000 0.575000 1 0 1.000000
g_rock2
  0 20.486141 1.623999 37.764816 0.648779 0.435715 0.623889 0.990000 0.365000 1 0 1.000000
  0 20.486141 2.812850 36.278759 0.658150 0.681736 0.319491 0.990000 0.330000 1 0 1.000000
  0 6.366140 2.812849 36.278759 -0.657830 0.681764 0.320088 0.710000 0.330000 1 0 1.000000
g_rock2
  0 20.478296 -3.225332 34.242531 0.778768 -0.548822 0.303834 0.990000 0.510000 1 0 1.000000
  0 20.486143 -2.812850 36.278759 0.657921 -0.682300 0.318759 0.990000 0.470000 1 0 1.000000
  0 6.366142 -2.812851 36.278759 -0.657593 -0.682339 0.319350 0.710000 0.470000 1 0 1.000000
g_rock2
  0 -4.473855 -2.957016 32.548752 -0.669996 -0.731065 0.129033 0.510000 0.140000 1 0 1.000000
  0 -4.473855 -1.845549 35.599365 -0.629889 -0.571228 0.526249 0.490000 0.080000 1 0 1.000000
  0 -4.473856 1.845548 35.599365 -0.652266 0.487321 0.580575 0.415000 0.080000 1 0 1.000000
g_rock2
  0 20.474173 4.993752 32.649319 0.652725 0.637971 0.408588 0.410000 0.890000 1 0 1.000000
  0 20.474173 5.339355 31.546848 0.646385 0.763011 0.001134 0.410000 0.915000 1 0 1.000000
  0 10.858280 5.339355 31.546848 -0.213641 0.976909 0.002502 0.600000 0.915000 1 0 1.000000
g_rock2
  0 6.362203 3.231032 27.515568 -0.577311 0.577137 -0.577602 0.710000 0.955000 1 0 1.000000
  0 20.470449 3.231032 27.515568 0.575907 0.577690 -0.578451 0.990000 0.955000 1 0 1.000000
  0 20.470449 -3.225332 27.521101 0.575993 -0.578153 -0.577902 0.990000 0.830000 1 0 1.000000
g_rock2
  0 -4.167254 2.444418 30.832455 0.000000 0.923878 -0.382688 0.700000 0.350000 1 0 1.000000
  0 -18.467255 2.444418 30.832455 0.193249 0.908989 -0.369316 0.420000 0.350000 1 0 1.000000
  0 -18.467255 2.444418 33.664215 0.193253 0.908987 0.369318 0.420000 0.405000 1 0 1.000000
g_rock2
  0 -18.467255 2.444418 33.664215 0.193253 0.908987 0.369318 0.420000 0.405000 1 0 1.000000
  0 -18.467255 1.407923 34.700703 0.193251 0.369318 0.908988 0.420000 0.430000 1 0 1.000000
  0 -4.167254 1.407923 34.700703 0.000000 0.382684 0.923879 0.700000 0.430000 1 0 1.000000
g_rock2
  0 6.362203 -3.225332 28.944143 -0.764566 -0.639072 -0.083825 0.415000 0.720000 1 0 1.000000
  0 6.362203 3.231032 28.936396 -0.764623 0.638980 -0.084001 0.285000 0.720000 1 0 1.000000
  0 6.362203 -3.225332 27.521101 -0.577384 -0.577581 -0.577086 0.415000 0.750000 1 0 1.000000
g_rock2
  0 -4.473856 2.957016 29.248753 -0.577353 0.577336 -0.577362 0.395000 0.205000 1 0 1.000000
  0 -4.473855 -2.957016 29.248753 -0.577356 -0.577356 -0.577338 0.510000 0.205000 1 0 1.000000
  0 -4.473855 -2.957016 32.548752 -0.669996 -0.731065 0.129033 0.510000 0.140000 1 0 1.000000
g_rock2
  0 6.362203 -3.225332 28.944143 -0.764566 -0.639072 -0.083825 0.710000 0.800000 1 0 1.000000
  0 6.362203 -3.225332 27.521101 -0.577384 -0.577581 -0.577086 0.710000 0.830000 1 0 1.000000
  0 20.470449 -3.225332 27.521101 0.575993 -0.578153 -0.577902 0.990000 0.830000 1 0 1.000000
g_rock2
  0 6.362203 -3.225332 28.944143 -0.764566 -0.639072 -0.083825 0.415000 0.720000 1 0 1.000000
  0 6.364172 -3.225332 34.242531 -0.742495 -0.651926 0.153929 0.415000 0.615000 1 0 1.000000
  0 6.364172 3.231032 34.239761 -0.742336 0.651878 0.154896 0.285000 0.615000 1 0 1.000000
g_rock2
  0 6.366142 -1.624002 37.764816 -0.648688 -0.435749 0.623961 0.380000 0.545000 1 0 1.000000
  0 6.366140 -0.000002 38.308758 -0.642115 -0.000000 0.766608 0.350000 0.535000 1 0 1.000000
  0 6.366140 1.623998 37.764816 -0.648693 0.435746 0.623958 0.315000 0.545000 1 0 1.000000
g_rock2
  0 6.364172 3.231032 34.239761 -0.742336 0.651878 0.154896 0.285000 0.615000 1 0 1.000000
  0 6.362203 3.231032 28.936396 -0.764623 0.638980 -0.084001 0.285000 0.720000 1 0 1.000000
  0 6.362203 -3.225332 28.944143 -0.764566 -0.639072 -0.083825 0.415000 0.720000 1 0 1.000000
g_rock2
  0 7.326144 2.957016 32.548752 -0.000000 0.998194 0.060072 0.715000 0.010000 1 0 1.000000
  0 7.326144 2.957016 29.248753 -0.000000 0.707118 -0.707096 0.650000 0.010000 1 0 1.000000
  0 -4.473856 2.957016 29.248753 -0.577353 0.577336 -0.577362 0.650000 0.240000 1 0 1.000000
g_rock2
  0 7.326144 0.000000 36.448753 -0.000000 -0.000003 1.000000 0.820000 0.010000 1 0 1.000000
  0 7.326144 1.845549 35.599365 -0.000000 0.642911 0.765941 0.780000 0.010000 1 0 1.000000
  0 -4.473856 1.845548 35.599365 -0.652266 0.487321 0.580575 0.780000 0.240000 1 0 1.000000
g_rock2
  0 6.366140 1.623998 37.764816 -0.648693 0.435746 0.623958 0.315000 0.545000 1 0 1.000000
  0 6.366140 2.812849 36.278759 -0.657830 0.681764 0.320088 0.295000 0.575000 1 0 1.000000
  0 6.366142 -2.812851 36.278759 -0.657593 -0.682339 0.319350 0.405000 0.575000 1 0 1.000000
g_rock2
  0 20.470449 3.231032 28.936396 0.811945 0.530430 -0.243698 0.990000 0.985000 1 0 1.000000
  0 20.470449 3.231032 27.515568 0.575907 0.577690 -0.578451 0.990000 0.955000 1 0 1.000000
  0 6.362203 3.231032 27.515568 -0.577311 0.577137 -0.577602 0.710000 0.955000 1 0 1.000000
g_rock2
  0 -4.473855 -2.957016 32.548752 -0.669996 -0.731065 0.129033 0.925000 0.240000 1 0 1.000000
  0 -4.473855 -2.957016 29.248753 -0.577356 -0.577356 -0.577338 0.990000 0.240000 1 0 1.000000
  0 7.326145 -2.957016 29.248753 0.000000 -0.707091 -0.707123 0.990000 0.010000 1 0 1.000000
g_rock2
  0 -18.467255 -1.423834 29.795952 0.193251 -0.369322 -0.908986 0.420000 0.265000 1 0 1.000000
  0 -18.467255 1.407923 29.795952 0.193251 0.369317 -0.908988 0.420000 0.320000 1 0 1.000000
  0 -4.167254 1.407923 29.795952 0.000000 0.382690 -0.923877 0.700000 0.320000 1 0 1.000000
g_rock2
  0 -4.473855 -2.957016 29.248753 -0.577356 -0.577356 -0.577338 0.535000 0.240000 1 0 1.000000
  0 -4.473856 2.957016 29.248753 -0.577353 0.577336 -0.577362 0.650000 0.240000 1 0 1.000000
  0 7.326144 2.957016 29.248753 -0.000000 0.707118 -0.707096 0.650000 0.010000 1 0 1.000000
g_rock2
  0 20.486141 -0.000001 38.308758 0.642174 -0.000000 0.766559 0.990000 0.400000 1 0 1.000000
  0 20.486141 1.623999 37.764816 0.648779 0.435715 0.623889 0.990000 0.365000 1 0 1.000000
  0 6.366140 1.623998 37.764816 -0.648693 0.435746 0.623958 0.710000 0.365000 1 0 1.000000
g_rock2
  0 6.366142 -1.624002 37.764816 -0.648688 -0.435749 0.623961 0.710000 0.435000 1 0 1.000000
  0 20.486141 -1.624001 37.764816 0.648779 -0.435716 0.623889 0.990000 0.435000 1 0 1.000000
  0 20.486141 -0.000001 38.308758 0.642174 -0.000000 0.766559 0.990000 0.400000 1 0 1.000000
g_rock2
  0 7.326145 -2.957016 32.548752 0.000000 -0.984780 0.173806 0.925000 0.010000 1 0 1.000000
  0 7.326145 -1.845549 35.599365 0.000000 -0.735477 0.677550 0.860000 0.010000 1 0 1.000000
  0 -4.473855 -1.845549 35.599365 -0.629889 -0.571228 0.526249 0.860000 0.240000 1 0 1.000000
g_rock2
  0 -18.467255 1.407923 34.700703 0.193251 0.369318 0.908988 0.420000 0.430000 1 0 1.000000
  0 -18.467255 -1.423834 34.700703 0.193252 -0.369315 0.908989 0.420000 0.490000 1 0 1.000000
  0 -4.167254 -1.423834 34.700703 0.000000 -0.382688 0.923878 0.700000 0.490000 1 0 1.000000
g_rock2
  0 20.474173 -4.983513 30.434038 0.650257 -0.632813 -0.420373 0.435000 0.685000 1 0 1.000000
  0 20.474173 -5.329113 31.536510 0.646386 -0.763009 -0.001133 0.435000 0.710000 1 0 1.000000
  0 11.017986 -5.329113 31.536510 -0.153024 -0.988222 -0.001239 0.627500 0.710000 1 0 1.000000
g_rock2
  0 6.366142 -2.812851 36.278759 -0.657593 -0.682339 0.319350 0.405000 0.575000 1 0 1.000000
  0 6.366142 -1.624002 37.764816 -0.648688 -0.435749 0.623961 0.380000 0.545000 1 0 1.000000
  0 6.366140 1.623998 37.764816 -0.648693 0.435746 0.623958 0.315000 0.545000 1 0 1.000000
g_rock2
  0 7.326144 2.957016 32.548752 -0.000000 0.998194 0.060072 0.715000 0.010000 1 0 1.000000
  0 -4.473856 2.957016 29.248753 -0.577353 0.577336 -0.577362 0.650000 0.240000 1 0 1.000000
  0 -4.473856 2.957016 32.548752 -0.693838 0.718831 0.043259 0.715000 0.240000 1 0 1.000000
g_rock2
  0 -4.473855 -2.957016 32.548752 -0.669996 -0.731065 0.129033 0.925000 0.240000 1 0 1.000000
  0 7.326145 -2.957016 29.248753 0.000000 -0.707091 -0.707123 0.990000 0.010000 1 0 1.000000
  0 7.326145 -2.957016 32.548752 0.000000 -0.984780 0.173806 0.925000 0.010000 1 0 1.000000
g_rock2
  0 7.326145 -2.957016 32.548752 0.000000 -0.984780 0.173806 0.925000 0.010000 1 0 1.000000
  0 -4.473855 -1.845549 35.599365 -0.629889 -0.571228 0.526249 0.860000 0.240000 1 0 1.000000
  0 -4.473855 -2.957016 32.548752 -0.669996 -0.731065 0.129033 0.925000 0.240000 1 0 1.000000
g_rock2
  0 7.326145 -1.845549 35.599365 0.000000 -0.735477 0.677550 0.860000 0.010000 1 0 1.000000
  0 -4.473855 -0.000001 36.448753 -0.623997 0.000002 0.781427 0.820000 0.240000 1 0 1.000000
  0 -4.473855 -1.845549 35.599365 -0.629889 -0.571228 0.526249 0.860000 0.240000 1 0 1.000000
g_rock2
  0 7.326144 0.000000 36.448753 -0.000000 -0.000003 1.000000 0.820000 0.010000 1 0 1.000000
  0 -4.473856 1.845548 35.599365 -0.652266 0.487321 0.580575 0.780000 0.240000 1 0 1.000000
  0 -4.473855 -0.000001 36.448753 -0.623997 0.000002 0.781427 0.820000 0.240000 1 0 1.000000
g_rock2
  0 6.362203 3.231032 28.936396 -0.764623 0.638980 -0.084001 0.285000 0.720000 1 0 1.000000
  0 6.362203 3.231032 27.515568 -0.577311 0.577137 -0.577602 0.285000 0.750000 1 0 1.000000
  0 6.362203 -3.225332 27.521101 -0.577384 -0.577581 -0.577086 0.415000 0.750000 1 0 1.000000
g_rock2
  0 -4.473855 -2.957016 29.248753 -0.577356 -0.577356 -0.577338 0.535000 0.240000 1 0 1.000000
  0 7.326144 2.957016 29.248753 -0.000000 0.707118 -0.707096 0.650000 0.010000 1 0 1.000000
  0 7.326145 -2.957016 29.248753 0.000000 -0.707091 -0.707123 0.535000 0.010000 1 0 1.000000
g_rock2
  0 -4.473855 -1.845549 35.599365 -0.629889 -0.571228 0.526249 0.490000 0.080000 1 0 1.000000
  0 -4.473855 -0.000001 36.448753 -0.623997 0.000002 0.781427 0.455000 0.065000 1 0 1.000000
  0 -4.473856 1.845548 35.599365 -0.652266 0.487321 0.580575 0.415000 0.080000 1 0 1.000000
g_rock2
  0 6.362203 3.231032 27.515568 -0.577311 0.577137 -0.577602 0.710000 0.955000 1 0 1.000000
  0 20.470449 -3.225332 27.521101 0.575993 -0.578153 -0.577902 0.990000 0.830000 1 0 1.000000
  0 6.362203 -3.225332 27.521101 -0.577384 -0.577581 -0.577086 0.710000 0.830000 1 0 1.000000
g_rock2
  0 -18.467255 1.407923 29.795952 0.193251 0.369317 -0.908988 0.420000 0.320000 1 0 1.000000
  0 -4.167254 2.444418 30.832455 0.000000 0.923878 -0.382688 0.700000 0.350000 1 0 1.000000
  0 -4.167254 1.407923 29.795952 0.000000 0.382690 -0.923877 0.700000 0.320000 1 0 1.000000
g_rock2
  0 -18.467255 -2.460329 33.664207 0.193251 -0.908987 0.369319 0.420000 0.515000 1 0 1.000000
  0 -4.167254 -2.460329 30.832455 0.000000 -0.923878 -0.382686 0.700000 0.570000 1 0 1.000000
  0 -4.167254 -2.460329 33.664207 0.000000 -0.923879 0.382685 0.700000 0.515000 1 0 1.000000
g_rock2
  0 -18.467255 1.407923 34.700703 0.193251 0.369318 0.908988 0.420000 0.430000 1 0 1.000000
  0 -4.167254 -1.423834 34.700703 0.000000 -0.382688 0.923878 0.700000 0.490000 1 0 1.000000
  0 -4.167254 1.407923 34.700703 0.000000 0.382684 0.923879 0.700000 0.430000 1 0 1.000000
g_rock2
  0 -18.467255 -1.423834 29.795952 0.193251 -0.369322 -0.908986 0.420000 0.265000 1 0 1.000000
  0 -4.167254 1.407923 29.795952 0.000000 0.382690 -0.923877 0.700000 0.320000 1 0 1.000000
  0 -4.167254 -1.423834 29.795952 0.000000 -0.382687 -0.923878 0.700000 0.265000 1 0 1.000000
g_rock2
  0 -4.167254 2.444418 30.832455 0.000000 0.923878 -0.382688 0.700000 0.350000 1 0 1.000000
  0 -18.467255 2.444418 33.664215 0.193253 0.908987 0.369318 0.420000 0.405000 1 0 1.000000
  0 -4.167254 2.444418 33.664215 0.000000 0.923879 0.382685 0.700000 0.405000 1 0 1.000000
g_rock2
  0 -18.467255 2.444418 33.664215 0.193253 0.908987 0.369318 0.420000 0.405000 1 0 1.000000
  0 -4.167254 1.407923 34.700703 0.000000 0.382684 0.923879 0.700000 0.430000 1 0 1.000000
  0 -4.167254 2.444418 33.664215 0.000000 0.923879 0.382685 0.700000 0.405000 1 0 1.000000
g_rock2
  0 -18.467255 -1.423834 34.700703 0.193252 -0.369315 0.908989 0.420000 0.490000 1 0 1.000000
  0 -4.167254 -2.460329 33.664207 0.000000 -0.923879 0.382685 0.700000 0.515000 1 0 1.000000
  0 -4.167254 -1.423834 34.700703 0.000000 -0.382688 0.923878 0.700000 0.490000 1 0 1.000000
g_rock2
  0 -18.467255 -2.460329 30.832455 0.193250 -0.908990 -0.369313 0.420000 0.570000 1 0 1.000000
  0 -4.167254 -1.423834 29.795952 0.000000 -0.382687 -0.923878 0.700000 0.600000 1 0 1.000000
  0 -4.167254 -2.460329 30.832455 0.000000 -0.923878 -0.382686 0.700000 0.570000 1 0 1.000000
g_rock2
  0 -22.067255 -3.686516 30.124517 -0.486456 -0.803713 -0.342645 0.345000 0.420000 1 0 1.000000
  0 -18.467255 -1.423834 29.795952 0.193251 -0.369322 -0.908986 0.270000 0.390000 1 0 1.000000
  0 -18.467255 -2.460329 30.832455 0.193250 -0.908990 -0.369313 0.270000 0.420000 1 0 1.000000
g_rock2
  0 -22.067255 -3.686516 34.372143 -0.486442 -0.803722 0.342644 0.330000 0.505000 1 0 1.000000
  0 -18.467255 -2.460329 30.832455 0.193250 -0.908990 -0.369313 0.270000 0.420000 1 0 1.000000
  0 -18.467255 -2.460329 33.664207 0.193251 -0.908987 0.369319 0.260000 0.475000 1 0 1.000000
g_rock2
  0 -18.467255 2.444418 33.664215 0.193253 0.908987 0.369318 0.180000 0.555000 1 0 1.000000
  0 -22.067255 2.115862 35.926891 -0.486422 0.342647 0.803733 0.250000 0.605000 1 0 1.000000
  0 -18.467255 1.407923 34.700703 0.193251 0.369318 0.908988 0.205000 0.540000 1 0 1.000000
g_rock2
  0 -18.467255 2.444418 33.664215 0.193253 0.908987 0.369318 0.180000 0.555000 1 0 1.000000
  0 -22.067255 3.670604 30.124517 -0.486423 0.803732 -0.342647 0.135000 0.645000 1 0 1.000000
  0 -22.067255 3.670604 34.372162 -0.486404 0.803733 0.342673 0.215000 0.625000 1 0 1.000000
g_rock2
  0 -22.067255 2.115862 35.926891 -0.486422 0.342647 0.803733 0.250000 0.605000 1 0 1.000000
  0 -18.467255 -1.423834 34.700703 0.193252 -0.369315 0.908989 0.245000 0.500000 1 0 1.000000
  0 -18.467255 1.407923 34.700703 0.193251 0.369318 0.908988 0.205000 0.540000 1 0 1.000000
g_rock2
  0 -18.467255 -1.423834 34.700703 0.193252 -0.369315 0.908989 0.245000 0.500000 1 0 1.000000
  0 -22.067255 -3.686516 34.372143 -0.486442 -0.803722 0.342644 0.330000 0.505000 1 0 1.000000
  0 -18.467255 -2.460329 33.664207 0.193251 -0.908987 0.369319 0.260000 0.475000 1 0 1.000000
g_rock2
  0 -22.067255 -2.131773 28.569763 -0.486399 -0.342669 -0.803737 0.010000 0.620000 1 0 1.000000
  0 -18.467255 1.407923 29.795952 0.193251 0.369317 -0.908988 0.100000 0.570000 1 0 1.000000
  0 -18.467255 -1.423834 29.795952 0.193251 -0.369322 -0.908986 0.045000 0.550000 1 0 1.000000
g_rock2
  0 -18.467255 1.407923 29.795952 0.193251 0.369317 -0.908988 0.100000 0.570000 1 0 1.000000
  0 -22.067255 3.670604 30.124517 -0.486423 0.803732 -0.342647 0.135000 0.645000 1 0 1.000000
  0 -18.467255 2.444418 30.832455 0.193249 0.908989 -0.369316 0.130000 0.570000 1 0 1.000000
g_rock2
  0 22.485779 1.994816 34.105461 0.791388 0.568627 0.224432 0.892500 0.635000 1 0 1.000000
  0 20.485779 2.853147 31.297298 0.899106 0.405213 -0.165564 0.930000 0.690000 1 0 1.000000
  0 20.485779 2.853147 34.601021 0.903336 0.395936 0.164978 0.930000 0.615000 1 0 1.000000
g_rock2
  0 20.485779 1.643903 35.810257 0.907406 0.165514 0.386290 0.900000 0.590000 1 0 1.000000
  0 22.485779 1.994816 34.105461 0.791388 0.568627 0.224432 0.892500 0.635000 1 0 1.000000
  0 20.485779 2.853147 34.601021 0.903336 0.395936 0.164978 0.930000 0.615000 1 0 1.000000
g_rock2
  0 20.485779 -2.869058 31.297298 0.898595 -0.406384 -0.165465 0.800000 0.690000 1 0 1.000000
  0 22.485779 -1.164256 30.946379 0.791388 -0.224431 -0.568626 0.850000 0.680000 1 0 1.000000
  0 22.485779 -2.010727 31.792854 0.791397 -0.568619 -0.224418 0.840000 0.670000 1 0 1.000000
g_rock2
  0 20.485779 1.643903 30.088045 0.905735 0.167397 -0.389387 0.900000 0.715000 1 0 1.000000
  0 22.485779 -1.164256 30.946379 0.791388 -0.224431 -0.568626 0.850000 0.680000 1 0 1.000000
  0 20.485779 -1.659814 30.088045 0.905726 -0.167431 -0.389393 0.830000 0.715000 1 0 1.000000
g_rock2
  0 20.485779 2.853147 31.297298 0.899106 0.405213 -0.165564 0.930000 0.690000 1 0 1.000000
  0 22.485779 1.148345 30.946379 0.791386 0.224431 -0.568629 0.880000 0.680000 1 0 1.000000
  0 20.485779 1.643903 30.088045 0.905735 0.167397 -0.389387 0.900000 0.715000 1 0 1.000000
g_rock2
  0 20.485779 -1.659814 35.810257 0.907401 -0.165516 0.386301 0.830000 0.590000 1 0 1.000000
  0 22.485779 1.148345 34.951927 0.791390 0.224421 0.568627 0.880000 0.625000 1 0 1.000000
  0 20.485779 1.643903 35.810257 0.907406 0.165514 0.386290 0.900000 0.590000 1 0 1.000000
g_rock2
  0 20.485779 -2.869058 34.601009 0.903027 -0.396624 0.165021 0.800000 0.615000 1 0 1.000000
  0 22.485779 -1.164256 34.951927 0.791385 -0.224431 0.568630 0.850000 0.625000 1 0 1.000000
  0 20.485779 -1.659814 35.810257 0.907401 -0.165516 0.386301 0.830000 0.590000 1 0 1.000000
g_rock2
  0 20.485779 -2.869058 31.297298 0.898595 -0.406384 -0.165465 0.800000 0.690000 1 0 1.000000
  0 22.485779 -2.010727 34.105453 0.791395 -0.568621 0.224420 0.840000 0.635000 1 0 1.000000
  0 20.485779 -2.869058 34.601009 0.903027 -0.396624 0.165021 0.800000 0.615000 1 0 1.000000
g_rock2
  0 22.485779 1.994816 31.792854 0.791390 0.568627 -0.224421 0.100000 0.950000 1 0 1.000000
  0 22.485779 1.148345 34.951927 0.791390 0.224421 0.568627 0.085000 0.890000 1 0 1.000000
  0 22.485779 -2.010727 34.105453 0.791395 -0.568621 0.224420 0.025000 0.905000 1 0 1.000000
g_rock2
  0 20.485779 -2.869058 34.601009 0.903027 -0.396624 0.165021 0.800000 0.615000 1 0 1.000000
  0 20.486143 -2.812850 36.278759 0.657921 -0.682300 0.318759 0.805000 0.575000 1 0 1.000000
  0 20.478296 -3.225332 34.242531 0.778768 -0.548822 0.303834 0.795000 0.623381 1 0 1.000000
g_rock2
  0 20.485779 -2.869058 34.601009 0.903027 -0.396624 0.165021 0.800000 0.615000 1 0 1.000000
  0 20.485779 -1.659814 35.810257 0.907401 -0.165516 0.386301 0.830000 0.590000 1 0 1.000000
  0 20.486143 -2.812850 36.278759 0.657921 -0.682300 0.318759 0.805000 0.575000 1 0 1.000000
g_rock2
  0 20.486143 -2.812850 36.278759 0.657921 -0.682300 0.318759 0.805000 0.575000 1 0 1.000000
  0 20.485779 -1.659814 35.810257 0.907401 -0.165516 0.386301 0.830000 0.590000 1 0 1.000000
  0 20.486141 -1.624001 37.764816 0.648779 -0.435716 0.623889 0.835000 0.545000 1 0 1.000000
g_rock2
  0 20.486141 -1.624001 37.764816 0.648779 -0.435716 0.623889 0.835000 0.545000 1 0 1.000000
  0 20.485779 -1.659814 35.810257 0.907401 -0.165516 0.386301 0.830000 0.590000 1 0 1.000000
  0 20.486141 -0.000001 38.308758 0.642174 -0.000000 0.766559 0.870000 0.535000 1 0 1.000000
g_rock2
  0 20.485779 1.643903 35.810257 0.907406 0.165514 0.386290 0.900000 0.590000 1 0 1.000000
  0 20.486141 1.623999 37.764816 0.648779 0.435715 0.623889 0.900000 0.545000 1 0 1.000000
  0 20.486141 -0.000001 38.308758 0.642174 -0.000000 0.766559 0.870000 0.535000 1 0 1.000000
g_rock2
  0 20.485779 -1.659814 35.810257 0.907401 -0.165516 0.386301 0.830000 0.590000 1 0 1.000000
  0 20.485779 1.643903 35.810257 0.907406 0.165514 0.386290 0.900000 0.590000 1 0 1.000000
  0 20.486141 -0.000001 38.308758 0.642174 -0.000000 0.766559 0.870000 0.535000 1 0 1.000000
g_rock2
  0 20.486141 1.623999 37.764816 0.648779 0.435715 0.623889 0.900000 0.545000 1 0 1.000000
  0 20.485779 1.643903 35.810257 0.907406 0.165514 0.386290 0.900000 0.590000 1 0 1.000000
  0 20.486141 2.812850 36.278759 0.658150 0.681736 0.319491 0.930000 0.580000 1 0 1.000000
g_rock2
  0 20.485779 1.643903 35.810257 0.907406 0.165514 0.386290 0.900000 0.590000 1 0 1.000000
  0 20.485779 2.853147 34.601021 0.903336 0.395936 0.164978 0.930000 0.615000 1 0 1.000000
  0 20.486141 2.812850 36.278759 0.658150 0.681736 0.319491 0.930000 0.580000 1 0 1.000000
g_rock2
  0 20.486141 2.812850 36.278759 0.658150 0.681736 0.319491 0.930000 0.580000 1 0 1.000000
  0 20.485779 2.853147 34.601021 0.903336 0.395936 0.164978 0.930000 0.615000 1 0 1.000000
  0 20.478296 3.231032 34.239761 0.779026 0.547747 0.305109 0.935000 0.624190 1 0 1.000000
g_rock2
  0 20.485779 -2.869058 34.601009 0.903027 -0.396624 0.165021 0.800000 0.615000 1 0 1.000000
  0 20.478296 -3.225332 34.242531 0.778768 -0.548822 0.303834 0.795000 0.623381 1 0 1.000000
  0 20.485779 -2.869058 31.297298 0.898595 -0.406384 -0.165465 0.800000 0.690000 1 0 1.000000
g_rock2
  0 20.478296 -3.225332 34.242531 0.778768 -0.548822 0.303834 0.795000 0.623381 1 0 1.000000
  0 20.470449 -3.225332 31.544788 0.999768 -0.021492 -0.001475 0.795000 0.684746 1 0 1.000000
  0 20.485779 -2.869058 31.297298 0.898595 -0.406384 -0.165465 0.800000 0.690000 1 0 1.000000
g_rock2
  0 20.470449 3.231032 31.537033 0.999795 0.020193 -0.001452 0.935039 0.684746 1 0 1.000000
  0 20.478296 3.231032 34.239761 0.779026 0.547747 0.305109 0.935000 0.624190 1 0 1.000000
  0 20.485779 2.853147 31.297298 0.899106 0.405213 -0.165564 0.930000 0.690000 1 0 1.000000
g_rock2
  0 20.485779 2.853147 34.601021 0.903336 0.395936 0.164978 0.930000 0.615000 1 0 1.000000
  0 20.485779 2.853147 31.297298 0.899106 0.405213 -0.165564 0.930000 0.690000 1 0 1.000000
  0 20.478296 3.231032 34.239761 0.779026 0.547747 0.305109 0.935000 0.624190 1 0 1.000000
g_rock2
  0 20.470449 -3.225332 28.944143 0.812017 -0.530242 -0.243870 0.794603 0.745151 1 0 1.000000
  0 20.485779 -2.869058 31.297298 0.898595 -0.406384 -0.165465 0.800000 0.690000 1 0 1.000000
  0 20.470449 -3.225332 31.544788 0.999768 -0.021492 -0.001475 0.795000 0.684746 1 0 1.000000
g_rock2
  0 20.485779 -2.869058 31.297298 0.898595 -0.406384 -0.165465 0.800000 0.690000 1 0 1.000000
  0 20.470449 -3.225332 28.944143 0.812017 -0.530242 -0.243870 0.794603 0.745151 1 0 1.000000
  0 20.485779 -1.659814 30.088045 0.905726 -0.167431 -0.389393 0.830000 0.715000 1 0 1.000000
g_rock2
  0 20.470449 3.231032 31.537033 0.999795 0.020193 -0.001452 0.935039 0.684746 1 0 1.000000
  0 20.485779 2.853147 31.297298 0.899106 0.405213 -0.165564 0.930000 0.690000 1 0 1.000000
  0 20.470449 3.231032 28.936396 0.811945 0.530430 -0.243698 0.935039 0.745000 1 0 1.000000
g_rock2
  0 20.485779 2.853147 31.297298 0.899106 0.405213 -0.165564 0.930000 0.690000 1 0 1.000000
  0 20.485779 1.643903 30.088045 0.905735 0.167397 -0.389387 0.900000 0.715000 1 0 1.000000
  0 20.470449 3.231032 28.936396 0.811945 0.530430 -0.243698 0.935039 0.745000 1 0 1.000000
g_rock2
  0 20.470449 -3.225332 28.944143 0.812017 -0.530242 -0.243870 0.794603 0.745151 1 0 1.000000
  0 20.470449 -3.225332 27.521101 0.575993 -0.578153 -0.577902 0.794603 0.775000 1 0 1.000000
  0 20.485779 -1.659814 30.088045 0.905726 -0.167431 -0.389393 0.830000 0.715000 1 0 1.000000
g_rock2
  0 20.470449 3.231032 28.936396 0.811945 0.530430 -0.243698 0.935039 0.745000 1 0 1.000000
  0 20.485779 1.643903 30.088045 0.905735 0.167397 -0.389387 0.900000 0.715000 1 0 1.000000
  0 20.470449 3.231032 27.515568 0.575907 0.577690 -0.578451 0.935039 0.775000 1 0 1.000000
g_rock2
  0 20.470449 3.231032 27.515568 0.575907 0.577690 -0.578451 0.935039 0.775000 1 0 1.000000
  0 20.485779 -1.659814 30.088045 0.905726 -0.167431 -0.389393 0.830000 0.715000 1 0 1.000000
  0 20.470449 -3.225332 27.521101 0.575993 -0.578153 -0.577902 0.794603 0.775000 1 0 1.000000
g_rock2
  0 20.485779 -1.659814 30.088045 0.905726 -0.167431 -0.389393 0.830000 0.715000 1 0 1.000000
  0 20.470449 3.231032 27.515568 0.575907 0.577690 -0.578451 0.935039 0.775000 1 0 1.000000
  0 20.485779 1.643903 30.088045 0.905735 0.167397 -0.389387 0.900000 0.715000 1 0 1.000000
g_rock2
  0 -22.067255 -3.686516 34.372143 -0.486442 -0.803722 0.342644 0.225000 0.315000 1 0 1.000000
  0 -22.067255 2.115862 35.926891 -0.486422 0.342647 0.803733 0.340000 0.345000 1 0 1.000000
  0 -22.067255 3.670604 30.124517 -0.486423 0.803732 -0.342647 0.370000 0.235000 1 0 1.000000
g_rock2
  0 7.326144 1.845549 35.599365 -0.000000 0.642911 0.765941 0.780000 0.010000 1 0 1.000000
  0 -4.473856 2.745548 34.299366 -0.656807 0.704953 0.267667 0.750000 0.240000 1 0 1.000000
  0 -4.473856 1.845548 35.599365 -0.652266 0.487321 0.580575 0.780000 0.240000 1 0 1.000000
g_rock2
  0 7.326144 2.957016 32.548752 -0.000000 0.998194 0.060072 0.715000 0.010000 1 0 1.000000
  0 -4.473856 2.957016 32.548752 -0.693838 0.718831 0.043259 0.715000 0.240000 1 0 1.000000
  0 -4.473856 2.745548 34.299366 -0.656807 0.704953 0.267667 0.750000 0.240000 1 0 1.000000
g_rock2
  0 -4.473856 2.745548 34.299366 -0.656807 0.704953 0.267667 0.750000 0.240000 1 0 1.000000
  0 7.326144 2.745549 34.299366 -0.000000 0.934879 0.354967 0.750000 0.010000 1 0 1.000000
  0 7.326144 2.957016 32.548752 -0.000000 0.998194 0.060072 0.715000 0.010000 1 0 1.000000
g_rock2
  0 -4.473856 1.845548 35.599365 -0.652266 0.487321 0.580575 0.415000 0.080000 1 0 1.000000
  0 -4.473856 2.745548 34.299366 -0.656807 0.704953 0.267667 0.400000 0.105000 1 0 1.000000
  0 -4.473855 -2.957016 32.548752 -0.669996 -0.731065 0.129033 0.510000 0.140000 1 0 1.000000
g_rock2
  0 -4.473856 2.957016 32.548752 -0.693838 0.718831 0.043259 0.395000 0.140000 1 0 1.000000
  0 -4.473855 -2.957016 32.548752 -0.669996 -0.731065 0.129033 0.510000 0.140000 1 0 1.000000
  0 -4.473856 2.745548 34.299366 -0.656807 0.704953 0.267667 0.400000 0.105000 1 0 1.000000
g_rock2
  0 7.326144 1.845549 35.599365 -0.000000 0.642911 0.765941 0.780000 0.010000 1 0 1.000000
  0 7.326144 2.745549 34.299366 -0.000000 0.934879 0.354967 0.750000 0.010000 1 0 1.000000
  0 -4.473856 2.745548 34.299366 -0.656807 0.704953 0.267667 0.750000 0.240000 1 0 1.000000
end
