version 1
nodes
0 "root" -1
end
skeleton
  time 0
  0 0.000000 0.000000 0.000000 0.000000 0.000000 0.000000
end
triangles
g_shot
  0 21.526516 -0.513318 32.649410 0.064023 0.161078 -0.984863 0.492465 0.932384 1 0 1.000000
  0 23.362001 -1.416079 32.484035 0.649180 -0.018881 -0.760400 0.514753 0.969121 1 0 1.000000
  0 1.551473 -1.772123 32.127998 0.021175 -0.367231 -0.929889 0.486218 0.513207 1 0 1.000000
g_shot
  0 1.551473 -1.772123 32.127998 0.021175 -0.367231 -0.929889 0.486218 0.513207 1 0 1.000000
  0 23.362001 -2.423122 32.901173 0.640683 -0.541376 -0.544461 0.537518 0.967494 1 0 1.000000
  0 1.551473 -3.030926 32.649410 0.027889 -0.708795 -0.704863 0.514675 0.511173 1 0 1.000000
g_shot
  0 1.551473 -3.030926 32.649410 0.027889 -0.708795 -0.704863 0.514675 0.511173 1 0 1.000000
  0 23.362001 -2.840253 33.908207 0.642464 -0.766316 -0.000002 0.560313 0.966353 1 0 1.000000
  0 1.551473 -3.552341 33.908207 0.032631 -0.999467 -0.000002 0.543168 0.509747 1 0 1.000000
g_shot
  0 23.362001 -2.840253 33.908207 0.642464 -0.766316 -0.000002 0.560313 0.966353 1 0 1.000000
  0 1.551473 -3.030927 35.167015 0.027889 -0.708798 0.704861 0.571689 0.509033 1 0 1.000000
  0 1.551473 -3.552341 33.908207 0.032631 -0.999467 -0.000002 0.543168 0.509747 1 0 1.000000
g_shot
  0 23.362001 -2.423122 34.915257 0.640668 -0.541385 0.544469 0.583129 0.965782 1 0 1.000000
  0 1.551473 -1.772123 35.688431 0.016386 -0.003952 0.999858 0.600218 0.508926 1 0 1.000000
  0 1.551473 -3.030927 35.167015 0.027889 -0.708798 0.704861 0.571689 0.509033 1 0 1.000000
g_shot
  0 23.362001 0.425227 34.915257 0.757123 -0.126897 0.640829 0.806855 0.901275 1 0 1.000000
  0 1.551473 0.529509 35.167015 0.010382 -0.195927 0.980563 0.809039 0.444558 1 0 1.000000
  0 23.362001 -0.409035 34.915257 0.757127 0.126895 0.640825 0.789387 0.901275 1 0 1.000000
g_shot
  0 23.362001 -1.416079 35.332390 0.636344 0.003086 0.771399 0.605952 0.965697 1 0 1.000000
  0 1.551473 -0.513319 35.167015 0.010382 0.195928 0.980563 0.628746 0.509177 1 0 1.000000
  0 1.551473 -1.772123 35.688431 0.016386 -0.003952 0.999858 0.600218 0.508926 1 0 1.000000
g_shot
  0 23.362001 2.856445 33.908207 0.642464 0.766316 -0.000002 0.917450 0.966424 1 0 1.000000
  0 1.551473 3.047118 32.649410 0.027889 0.708795 -0.704863 0.962442 0.511179 1 0 1.000000
  0 1.551473 3.568532 33.908207 0.032631 0.999467 -0.000002 0.933947 0.509793 1 0 1.000000
g_shot
  0 23.362001 2.439314 32.901173 0.640682 0.541376 -0.544461 0.940246 0.967532 1 0 1.000000
  0 1.551473 1.788314 32.127998 0.021175 0.367231 -0.929889 0.990902 0.513172 1 0 1.000000
  0 1.551473 3.047118 32.649410 0.027889 0.708795 -0.704863 0.962442 0.511179 1 0 1.000000
g_shot
  0 23.362001 1.432271 32.484035 0.649180 0.018881 -0.760401 0.963014 0.969127 1 0 1.000000
  0 21.526516 0.529510 32.649410 0.064022 -0.161078 -0.984863 0.985250 0.932358 1 0 1.000000
  0 1.551473 1.788314 32.127998 0.021175 0.367231 -0.929889 0.990902 0.513172 1 0 1.000000
g_shot
  0 23.362001 -2.423122 34.915257 0.640668 -0.541385 0.544469 0.470000 0.425000 1 0 1.000000
  0 23.362001 -0.409035 34.915257 0.757127 0.126895 0.640825 0.520000 0.425000 1 0 1.000000
  0 23.362001 -1.416079 35.332390 0.636344 0.003086 0.771399 0.495000 0.415000 1 0 1.000000
g_shot
  0 1.551473 0.529509 35.167015 0.010382 -0.195927 0.980563 0.848368 0.509344 1 0 1.000000
  0 23.362001 1.432270 35.332390 0.636344 -0.003086 0.771399 0.871809 0.965832 1 0 1.000000
  0 1.551473 1.788314 35.688431 0.016387 0.003952 0.999858 0.876895 0.509054 1 0 1.000000
g_shot
  0 1.551473 1.788314 35.688431 0.016387 0.003952 0.999858 0.876895 0.509054 1 0 1.000000
  0 23.362001 2.439314 34.915257 0.640668 0.541385 0.544469 0.894632 0.965884 1 0 1.000000
  0 1.551473 3.047118 35.167015 0.027889 0.708798 0.704860 0.905425 0.509120 1 0 1.000000
g_shot
  0 1.551473 3.047118 35.167015 0.027889 0.708798 0.704860 0.905425 0.509120 1 0 1.000000
  0 23.362001 2.856445 33.908207 0.642464 0.766316 -0.000002 0.917450 0.966424 1 0 1.000000
  0 1.551473 3.568532 33.908207 0.032631 0.999467 -0.000002 0.933947 0.509793 1 0 1.000000
g_shot
  0 1.551473 -0.513319 35.167015 0.010382 0.195928 0.980563 0.787203 0.444557 1 0 1.000000
  0 23.362001 -0.409035 34.915257 0.757127 0.126895 0.640825 0.789387 0.901275 1 0 1.000000
  0 1.551473 0.529509 35.167015 0.010382 -0.195927 0.980563 0.809039 0.444558 1 0 1.000000
g_shot
  0 23.362001 1.432270 35.332390 0.636344 -0.003086 0.771399 0.560000 0.415000 1 0 1.000000
  0 23.362001 0.425227 34.915257 0.757123 -0.126897 0.640829 0.535000 0.425000 1 0 1.000000
  0 23.362001 2.439314 34.915257 0.640668 0.541385 0.544469 0.585000 0.425000 1 0 1.000000
g_shot
  0 23.362001 2.856445 33.908207 0.642464 0.766316 -0.000002 0.590000 0.445000 1 0 1.000000
  0 23.362001 2.439314 34.915257 0.640668 0.541385 0.544469 0.585000 0.425000 1 0 1.000000
  0 23.362001 2.439314 32.901173 0.640682 0.541376 -0.544461 0.585000 0.470000 1 0 1.000000
g_shot
  0 23.362001 -2.840253 33.908207 0.642464 -0.766316 -0.000002 0.465000 0.445000 1 0 1.000000
  0 23.362001 -2.423122 32.901173 0.640683 -0.541376 -0.544461 0.470000 0.470000 1 0 1.000000
  0 23.362001 -2.423122 34.915257 0.640668 -0.541385 0.544469 0.470000 0.425000 1 0 1.000000
g_shot
  0 23.362001 -1.416079 32.484035 0.649180 -0.018881 -0.760400 0.495000 0.480000 1 0 1.000000
  0 23.362001 -0.409035 32.901173 0.792100 0.113140 -0.599814 0.520000 0.470000 1 0 1.000000
  0 23.362001 -2.423122 32.901173 0.640683 -0.541376 -0.544461 0.470000 0.470000 1 0 1.000000
g_shot
  0 23.362001 1.432271 32.484035 0.649180 0.018881 -0.760401 0.560000 0.480000 1 0 1.000000
  0 23.362001 2.439314 32.901173 0.640682 0.541376 -0.544461 0.585000 0.470000 1 0 1.000000
  0 23.362001 0.425227 32.901173 0.792106 -0.113139 -0.599806 0.535000 0.470000 1 0 1.000000
g_shot
  0 23.362001 -2.423122 34.915257 0.640668 -0.541385 0.544469 0.470000 0.425000 1 0 1.000000
  0 23.362001 -2.423122 32.901173 0.640683 -0.541376 -0.544461 0.470000 0.470000 1 0 1.000000
  0 23.362001 -0.409035 34.915257 0.757127 0.126895 0.640825 0.520000 0.425000 1 0 1.000000
g_shot
  0 23.362001 -2.423122 32.901173 0.640683 -0.541376 -0.544461 0.470000 0.470000 1 0 1.000000
  0 23.362001 -0.409035 32.901173 0.792100 0.113140 -0.599814 0.520000 0.470000 1 0 1.000000
  0 23.362001 -0.409035 34.915257 0.757127 0.126895 0.640825 0.520000 0.425000 1 0 1.000000
g_shot
  0 23.362001 0.425227 32.901173 0.792106 -0.113139 -0.599806 0.535000 0.470000 1 0 1.000000
  0 23.362001 2.439314 32.901173 0.640682 0.541376 -0.544461 0.585000 0.470000 1 0 1.000000
  0 23.362001 0.425227 34.915257 0.757123 -0.126897 0.640829 0.535000 0.425000 1 0 1.000000
g_shot
  0 23.362001 0.425227 34.915257 0.757123 -0.126897 0.640829 0.535000 0.425000 1 0 1.000000
  0 23.362001 2.439314 32.901173 0.640682 0.541376 -0.544461 0.585000 0.470000 1 0 1.000000
  0 23.362001 2.439314 34.915257 0.640668 0.541385 0.544469 0.585000 0.425000 1 0 1.000000
g_shot
  0 23.362001 0.425227 32.901173 0.792106 -0.113139 -0.599806 0.535000 0.470000 1 0 1.000000
  0 23.362001 0.425227 34.915257 0.757123 -0.126897 0.640829 0.535000 0.425000 1 0 1.000000
  0 23.362001 -0.409035 32.901173 0.792100 0.113140 -0.599814 0.520000 0.470000 1 0 1.000000
g_shot
  0 23.362001 -0.409035 34.915257 0.757127 0.126895 0.640825 0.520000 0.425000 1 0 1.000000
  0 23.362001 -0.409035 32.901173 0.792100 0.113140 -0.599814 0.520000 0.470000 1 0 1.000000
  0 23.362001 0.425227 34.915257 0.757123 -0.126897 0.640829 0.535000 0.425000 1 0 1.000000
g_shot
  0 5.497342 -1.574321 35.451015 0.714214 -0.699524 0.023770 0.411778 0.044327 1 0 1.000000
  0 5.450628 -1.574321 36.854595 0.566806 -0.579112 0.585969 0.382389 0.045305 1 0 1.000000
  0 2.680969 -1.574321 35.451015 -0.737422 -0.593811 0.321867 0.411778 0.103299 1 0 1.000000
g_shot
  0 3.293598 -1.574321 36.854595 -0.437270 -0.602152 0.667988 0.382389 0.090471 1 0 1.000000
  0 2.680969 -1.574321 35.451015 -0.737422 -0.593811 0.321867 0.411778 0.103299 1 0 1.000000
  0 5.450628 -1.574321 36.854595 0.566806 -0.579112 0.585969 0.382389 0.045305 1 0 1.000000
g_shot
  0 5.497342 -1.121024 35.451015 0.714232 0.699506 0.023771 0.343508 0.044327 1 0 1.000000
  0 2.680969 -1.121024 35.451015 -0.737409 0.593829 0.321861 0.343508 0.103299 1 0 1.000000
  0 5.450628 -1.121024 36.854595 0.566782 0.579117 0.585988 0.372897 0.045305 1 0 1.000000
g_shot
  0 3.293598 -1.121024 36.854595 -0.437288 0.602148 0.667980 0.372897 0.090471 1 0 1.000000
  0 5.450628 -1.121024 36.854595 0.566782 0.579117 0.585988 0.372897 0.045305 1 0 1.000000
  0 2.680969 -1.121024 35.451015 -0.737409 0.593829 0.321861 0.343508 0.103299 1 0 1.000000
g_shot
  0 5.450628 -1.574321 36.854595 0.566806 -0.579112 0.585969 0.382389 0.045305 1 0 1.000000
  0 3.293598 -1.121024 36.854595 -0.437288 0.602148 0.667980 0.372897 0.090471 1 0 1.000000
  0 3.293598 -1.574321 36.854595 -0.437270 -0.602152 0.667988 0.382389 0.090471 1 0 1.000000
g_shot
  0 5.497342 -1.574321 35.451015 0.714214 -0.699524 0.023770 0.382389 0.015900 1 0 1.000000
  0 5.450628 -1.121024 36.854595 0.566782 0.579117 0.585988 0.372897 0.045305 1 0 1.000000
  0 5.450628 -1.574321 36.854595 0.566806 -0.579112 0.585969 0.382389 0.045305 1 0 1.000000
g_shot
  0 3.293598 -1.574321 36.854595 -0.437270 -0.602152 0.667988 0.382389 0.090471 1 0 1.000000
  0 2.680969 -1.121024 35.451015 -0.737409 0.593829 0.321861 0.372897 0.122537 1 0 1.000000
  0 2.680969 -1.574321 35.451015 -0.737422 -0.593811 0.321867 0.382389 0.122537 1 0 1.000000
g_shot
  0 5.497342 1.104249 35.451015 0.714214 -0.699524 0.023770 0.155522 0.042920 1 0 1.000000
  0 5.450628 1.104249 36.854595 0.566806 -0.579112 0.585969 0.126133 0.043898 1 0 1.000000
  0 2.680969 1.104249 35.451015 -0.737421 -0.593811 0.321868 0.155522 0.101891 1 0 1.000000
g_shot
  0 3.293598 1.104249 36.854595 -0.437270 -0.602152 0.667988 0.126133 0.089063 1 0 1.000000
  0 2.680969 1.104249 35.451015 -0.737421 -0.593811 0.321868 0.155522 0.101891 1 0 1.000000
  0 5.450628 1.104249 36.854595 0.566806 -0.579112 0.585969 0.126133 0.043898 1 0 1.000000
g_shot
  0 5.497342 1.557545 35.451015 0.714232 0.699506 0.023771 0.087253 0.042920 1 0 1.000000
  0 2.680969 1.557545 35.451015 -0.737408 0.593829 0.321862 0.087252 0.101891 1 0 1.000000
  0 5.450628 1.557545 36.854595 0.566782 0.579117 0.585988 0.116642 0.043898 1 0 1.000000
g_shot
  0 3.293598 1.557545 36.854595 -0.437288 0.602148 0.667980 0.116642 0.089063 1 0 1.000000
  0 5.450628 1.557545 36.854595 0.566782 0.579117 0.585988 0.116642 0.043898 1 0 1.000000
  0 2.680969 1.557545 35.451015 -0.737408 0.593829 0.321862 0.087252 0.101891 1 0 1.000000
g_shot
  0 5.450628 1.104249 36.854595 0.566806 -0.579112 0.585969 0.126133 0.043898 1 0 1.000000
  0 3.293598 1.557545 36.854595 -0.437288 0.602148 0.667980 0.116642 0.089063 1 0 1.000000
  0 3.293598 1.104249 36.854595 -0.437270 -0.602152 0.667988 0.126133 0.089063 1 0 1.000000
g_shot
  0 5.497342 1.104249 35.451015 0.714214 -0.699524 0.023770 0.126133 0.014493 1 0 1.000000
  0 5.450628 1.557545 36.854595 0.566782 0.579117 0.585988 0.116642 0.043898 1 0 1.000000
  0 5.450628 1.104249 36.854595 0.566806 -0.579112 0.585969 0.126133 0.043898 1 0 1.000000
g_shot
  0 3.293598 1.104249 36.854595 -0.437270 -0.602152 0.667988 0.126133 0.089063 1 0 1.000000
  0 2.680969 1.557545 35.451015 -0.737408 0.593829 0.321862 0.116641 0.121130 1 0 1.000000
  0 2.680969 1.104249 35.451015 -0.737421 -0.593811 0.321868 0.126133 0.121130 1 0 1.000000
g_shot
  0 1.859562 3.719631 30.776350 0.602036 0.742360 -0.294031 0.422699 0.281992 1 0 1.000000
  0 -4.722848 1.817557 29.201363 -0.633133 0.336646 -0.697002 0.443154 0.136213 1 0 1.000000
  0 -4.722848 3.142176 31.109743 -0.681945 0.698937 -0.215496 0.395538 0.146149 1 0 1.000000
g_shot
  0 -4.722848 -3.125986 31.109735 -0.681950 -0.698932 -0.215496 0.091768 0.144304 1 0 1.000000
  0 -4.722848 -1.801367 29.201363 -0.633136 -0.336649 -0.696998 0.044277 0.133791 1 0 1.000000
  0 1.859568 -3.703437 30.776342 0.602018 -0.742372 -0.294038 0.062960 0.279808 1 0 1.000000
g_shot
  0 1.859562 3.719630 35.062061 0.592328 0.743407 0.310634 0.320238 0.331443 1 0 1.000000
  0 1.859568 -3.703439 35.062054 0.592331 -0.743410 0.310622 0.164812 0.330500 1 0 1.000000
  0 1.859568 -3.703437 30.776342 0.602018 -0.742372 -0.294038 0.164267 0.420235 1 0 1.000000
g_shot
  0 1.859562 2.150949 36.630737 0.592325 0.310618 0.743417 0.287592 0.298398 1 0 1.000000
  0 1.859568 -3.703439 35.062054 0.592331 -0.743410 0.310622 0.164812 0.330500 1 0 1.000000
  0 1.859562 3.719630 35.062061 0.592328 0.743407 0.310634 0.320238 0.331443 1 0 1.000000
g_shot
  0 1.859568 -3.703439 35.062054 0.592331 -0.743410 0.310622 0.151564 0.294022 1 0 1.000000
  0 -4.722848 -1.801368 36.053280 -0.667443 -0.282679 0.688922 0.205678 0.159542 1 0 1.000000
  0 -4.722848 -3.125986 34.728661 -0.667435 -0.688926 0.282685 0.166587 0.156307 1 0 1.000000
g_shot
  0 -4.722848 -1.801368 36.053280 -0.667443 -0.282679 0.688922 0.205678 0.159542 1 0 1.000000
  0 -4.722848 1.817555 36.053284 -0.667435 0.282680 0.688928 0.281452 0.160002 1 0 1.000000
  0 -4.722848 -3.125986 34.728661 -0.667435 -0.688926 0.282685 0.178111 0.131638 1 0 1.000000
g_shot
  0 1.859562 3.719631 30.776350 0.602036 0.742360 -0.294031 0.422699 0.281992 1 0 1.000000
  0 -4.722848 3.142176 31.109743 -0.681945 0.698937 -0.215496 0.395538 0.146149 1 0 1.000000
  0 1.859562 3.719630 35.062061 0.592328 0.743407 0.310634 0.333929 0.295130 1 0 1.000000
g_shot
  0 1.859562 2.150949 36.630737 0.592325 0.310618 0.743417 0.287592 0.298398 1 0 1.000000
  0 -4.722848 3.142174 34.728668 -0.667455 0.688911 0.282674 0.320579 0.157242 1 0 1.000000
  0 -4.722848 1.817555 36.053284 -0.667435 0.282680 0.688928 0.281452 0.160002 1 0 1.000000
g_shot
  0 -4.722848 1.817555 36.053284 -0.667435 0.282680 0.688928 0.281452 0.160002 1 0 1.000000
  0 -4.722848 3.142174 34.728668 -0.667455 0.688911 0.282674 0.309356 0.132435 1 0 1.000000
  0 -4.722848 -3.125986 34.728661 -0.667435 -0.688926 0.282685 0.178111 0.131638 1 0 1.000000
g_shot
  0 21.365049 3.716885 32.174698 0.602079 0.797530 0.038034 0.159216 0.941274 1 0 1.000000
  0 19.716698 0.008097 29.839808 0.465432 -0.000000 -0.885084 0.234666 0.880790 1 0 1.000000
  0 19.942122 1.553989 29.867012 0.477822 0.254541 -0.840770 0.202220 0.884735 1 0 1.000000
g_shot
  0 19.942122 -1.537796 29.867012 0.477822 -0.254541 -0.840770 0.267112 0.884735 1 0 1.000000
  0 19.716698 0.008097 29.839808 0.465432 -0.000000 -0.885084 0.234666 0.880790 1 0 1.000000
  0 21.365049 -3.700691 32.174698 0.602079 -0.797530 0.038034 0.310116 0.941273 1 0 1.000000
g_shot
  0 19.716698 0.008097 29.839808 0.465432 -0.000000 -0.885084 0.234666 0.880790 1 0 1.000000
  0 21.365049 3.716885 32.174698 0.602079 0.797530 0.038034 0.159216 0.941274 1 0 1.000000
  0 22.683727 0.008097 34.152718 0.831675 -0.000000 0.555263 0.234666 0.988815 1 0 1.000000
g_shot
  0 19.716698 0.008097 29.839808 0.465432 -0.000000 -0.885084 0.234666 0.880790 1 0 1.000000
  0 22.683727 0.008097 34.152718 0.831675 -0.000000 0.555263 0.234666 0.988815 1 0 1.000000
  0 21.365049 -3.700691 32.174698 0.602079 -0.797530 0.038034 0.310116 0.941273 1 0 1.000000
g_shot
  0 22.683727 0.008097 34.152718 0.831675 -0.000000 0.555263 0.418375 0.950511 1 0 1.000000
  0 1.859562 0.008097 34.152718 -0.266958 0.000000 0.963708 0.451040 0.515205 1 0 1.000000
  0 21.365049 -3.700691 32.174698 0.602079 -0.797530 0.038034 0.332579 0.916353 1 0 1.000000
g_shot
  0 22.683727 0.008097 34.152718 0.831675 -0.000000 0.555263 0.050956 0.950512 1 0 1.000000
  0 21.365049 3.716885 32.174698 0.602079 0.797530 0.038034 0.136753 0.916353 1 0 1.000000
  0 1.859562 0.008097 34.152718 -0.266958 0.000000 0.963708 0.018289 0.515206 1 0 1.000000
g_shot
  0 -14.088494 -0.357846 27.090618 0.369861 -0.794163 0.482191 0.587747 0.321015 1 0 1.000000
  0 -13.257950 0.374754 26.833750 0.007022 0.777167 0.629255 0.568699 0.338395 1 0 1.000000
  0 -14.088494 0.374754 27.090618 0.369869 0.794163 0.482185 0.588901 0.337515 1 0 1.000000
g_shot
  0 -13.257950 -0.357846 26.833750 0.007016 -0.777172 0.629249 0.568456 0.322430 1 0 1.000000
  0 -13.257950 0.374754 26.833750 0.007022 0.777167 0.629255 0.568699 0.338395 1 0 1.000000
  0 -14.088494 -0.357846 27.090618 0.369861 -0.794163 0.482191 0.587747 0.321015 1 0 1.000000
g_shot
  0 -15.362471 -0.357846 29.113344 0.621802 -0.678224 0.391631 0.643807 0.314645 1 0 1.000000
  0 -14.088494 -0.357846 27.090618 0.369861 -0.794163 0.482191 0.587747 0.321015 1 0 1.000000
  0 -15.362471 0.374754 29.113344 0.621788 0.678242 0.391622 0.645760 0.331826 1 0 1.000000
g_shot
  0 -14.088494 0.374754 27.090618 0.369869 0.794163 0.482185 0.588901 0.337515 1 0 1.000000
  0 -15.362471 0.374754 29.113344 0.621788 0.678242 0.391622 0.645760 0.331826 1 0 1.000000
  0 -14.088494 -0.357846 27.090618 0.369861 -0.794163 0.482191 0.587747 0.321015 1 0 1.000000
g_shot
  0 -8.232279 -0.255586 31.311533 -0.773019 0.624182 -0.113303 0.039100 0.477822 1 0 1.000000
  0 -8.232279 0.272494 31.311533 -0.773011 -0.624193 -0.113302 0.050157 0.477842 1 0 1.000000
  0 -7.865977 -0.251044 28.837433 -0.260224 0.537852 0.801872 0.039288 0.425454 1 0 1.000000
g_shot
  0 -7.865977 -0.251044 28.837433 -0.260224 0.537852 0.801872 0.039288 0.425454 1 0 1.000000
  0 -8.232279 0.272494 31.311533 -0.773011 -0.624193 -0.113302 0.050157 0.477842 1 0 1.000000
  0 -7.865977 0.267953 28.837433 -0.260217 -0.537842 0.801881 0.050155 0.425473 1 0 1.000000
g_shot
  0 -8.964877 0.272494 30.945234 0.629395 -0.703699 0.329650 0.066455 0.472501 1 0 1.000000
  0 -7.865977 0.267953 28.837433 -0.260217 -0.537842 0.801881 0.050155 0.425473 1 0 1.000000
  0 -8.232279 0.272494 31.311533 -0.773011 -0.624193 -0.113302 0.050157 0.477842 1 0 1.000000
g_shot
  0 -4.714290 1.151261 30.963491 -0.024777 0.592508 -0.805184 0.740886 0.031302 1 0 1.000000
  0 -8.544693 -0.943976 30.918970 0.114424 -0.610183 -0.783954 0.705066 0.115565 1 0 1.000000
  0 -8.544693 0.960784 30.918970 0.114426 0.610183 -0.783954 0.746834 0.115205 1 0 1.000000
g_shot
  0 -8.544693 -0.943976 30.918970 0.114424 -0.610183 -0.783954 0.705066 0.115565 1 0 1.000000
  0 -4.714290 1.151261 30.963491 -0.024777 0.592508 -0.805184 0.740886 0.031302 1 0 1.000000
  0 -4.714290 -1.134452 30.963491 -0.024776 -0.592492 -0.805195 0.693187 0.036018 1 0 1.000000
g_shot
  0 -8.544693 -0.943976 30.918970 0.114424 -0.610183 -0.783954 0.705066 0.115565 1 0 1.000000
  0 -18.847311 0.960784 27.622274 0.120199 0.556214 -0.822301 0.715181 0.340060 1 0 1.000000
  0 -8.544693 0.960784 30.918970 0.114426 0.610183 -0.783954 0.746834 0.115205 1 0 1.000000
g_shot
  0 -18.847311 0.960784 27.622274 0.120199 0.556214 -0.822301 0.715181 0.340060 1 0 1.000000
  0 -8.544693 -0.943976 30.918970 0.114424 -0.610183 -0.783954 0.705066 0.115565 1 0 1.000000
  0 -18.847311 -0.943976 27.622274 0.120200 -0.556213 -0.822301 0.676448 0.339125 1 0 1.000000
g_shot
  0 -7.865977 -0.251044 28.837433 -0.260224 0.537852 0.801872 0.039288 0.425454 1 0 1.000000
  0 -8.964877 -0.255586 30.945234 0.629405 0.703688 0.329655 0.022821 0.472423 1 0 1.000000
  0 -8.232279 -0.255586 31.311533 -0.773019 0.624182 -0.113303 0.039100 0.477822 1 0 1.000000
g_shot
  0 -8.461131 -0.469966 36.299377 -0.523516 -0.586531 0.617991 0.592576 0.056604 1 0 1.000000
  0 -8.827434 -0.469966 34.101574 -0.802254 -0.581816 0.133709 0.546536 0.049060 1 0 1.000000
  0 -1.240886 -0.469966 36.299377 0.000000 -0.176662 0.984272 0.592988 0.207786 1 0 1.000000
g_shot
  0 -18.847311 0.960784 27.622274 0.120199 0.556214 -0.822301 0.715181 0.340060 1 0 1.000000
  0 -18.847311 -0.943976 27.622274 0.120200 -0.556213 -0.822301 0.676448 0.339125 1 0 1.000000
  0 -22.144009 0.960784 27.622274 -0.637922 0.522294 -0.565919 0.718943 0.405875 1 0 1.000000
g_shot
  0 -22.144009 -0.943976 27.622274 -0.637903 -0.522300 -0.565934 0.679393 0.407576 1 0 1.000000
  0 -22.144009 0.960784 27.622274 -0.637922 0.522294 -0.565919 0.718943 0.405875 1 0 1.000000
  0 -18.847311 -0.943976 27.622274 0.120200 -0.556213 -0.822301 0.676448 0.339125 1 0 1.000000
g_shot
  0 -22.144009 0.960784 27.622274 -0.637922 0.522294 -0.565919 0.718943 0.405875 1 0 1.000000
  0 -22.144009 -0.943976 27.622274 -0.637903 -0.522300 -0.565934 0.679393 0.407576 1 0 1.000000
  0 -21.411407 0.960784 34.215668 -0.433626 0.513089 0.740749 0.724869 0.543619 1 0 1.000000
g_shot
  0 -21.411407 -0.943976 34.215668 -0.433659 -0.513085 0.740732 0.685320 0.545321 1 0 1.000000
  0 -21.411407 0.960784 34.215668 -0.433626 0.513089 0.740749 0.724869 0.543619 1 0 1.000000
  0 -22.144009 -0.943976 27.622274 -0.637903 -0.522300 -0.565934 0.679393 0.407576 1 0 1.000000
g_shot
  0 -18.114710 0.960784 32.750469 0.198263 0.566699 0.799715 0.728093 0.618526 1 0 1.000000
  0 -21.411407 0.960784 34.215668 -0.433626 0.513089 0.740749 0.724869 0.543619 1 0 1.000000
  0 -21.411407 -0.943976 34.215668 -0.433659 -0.513085 0.740732 0.685320 0.545321 1 0 1.000000
g_shot
  0 -21.411407 -0.943976 34.215668 -0.433659 -0.513085 0.740732 0.685320 0.545321 1 0 1.000000
  0 -18.114710 -0.943976 32.750469 0.198266 -0.566700 0.799713 0.688543 0.620228 1 0 1.000000
  0 -18.114710 0.960784 32.750469 0.198263 0.566699 0.799715 0.728093 0.618526 1 0 1.000000
g_shot
  0 -8.461131 0.488797 36.299377 -0.523500 0.586540 0.617996 0.612651 0.056549 1 0 1.000000
  0 -1.240886 0.488797 36.299377 0.000000 0.176661 0.984272 0.613063 0.207731 1 0 1.000000
  0 -8.827434 0.488797 34.101574 -0.802267 0.581798 0.133711 0.658649 0.048754 1 0 1.000000
g_shot
  0 -1.240886 0.488797 36.299377 0.000000 0.176661 0.984272 0.613063 0.207731 1 0 1.000000
  0 -8.461131 -0.469966 36.299377 -0.523516 -0.586531 0.617991 0.592576 0.056604 1 0 1.000000
  0 -1.240886 -0.469966 36.299377 0.000000 -0.176662 0.984272 0.592988 0.207786 1 0 1.000000
g_shot
  0 -8.461131 0.488797 36.299377 -0.523500 0.586540 0.617996 0.612651 0.056549 1 0 1.000000
  0 -8.827434 -0.469966 34.101574 -0.802254 -0.581816 0.133709 0.592449 0.009950 1 0 1.000000
  0 -8.461131 -0.469966 36.299377 -0.523516 -0.586531 0.617991 0.592576 0.056604 1 0 1.000000
g_shot
  0 -4.714290 -1.134452 30.963491 -0.024776 -0.592492 -0.805195 0.877882 0.482844 1 0 1.000000
  0 -4.714287 -2.163023 33.849369 -0.173463 -0.979526 0.102169 0.939743 0.494069 1 0 1.000000
  0 -8.910990 -1.534452 32.750469 -0.043371 -0.998950 -0.014755 0.930649 0.401707 1 0 1.000000
g_shot
  0 -4.714290 -1.134452 30.963491 -0.024776 -0.592492 -0.805195 0.877882 0.482844 1 0 1.000000
  0 -8.910990 -1.534452 32.750469 -0.043371 -0.998950 -0.014755 0.930649 0.401707 1 0 1.000000
  0 -8.544693 -0.943976 30.918970 0.114424 -0.610183 -0.783954 0.888979 0.403902 1 0 1.000000
g_shot
  0 -8.910990 -1.534452 32.750469 -0.043371 -0.998950 -0.014755 0.930649 0.401707 1 0 1.000000
  0 -17.748407 -1.896356 30.552671 0.001536 -0.999988 0.004633 0.906364 0.211633 1 0 1.000000
  0 -8.544693 -0.943976 30.918970 0.114424 -0.610183 -0.783954 0.888979 0.403902 1 0 1.000000
g_shot
  0 -8.544693 -0.943976 30.918970 0.114424 -0.610183 -0.783954 0.888979 0.403902 1 0 1.000000
  0 -17.748407 -1.896356 30.552671 0.001536 -0.999988 0.004633 0.906364 0.211633 1 0 1.000000
  0 -18.847311 -0.943976 27.622274 0.120200 -0.556213 -0.822301 0.844962 0.182221 1 0 1.000000
g_shot
  0 -18.847311 -0.943976 27.622274 0.120200 -0.556213 -0.822301 0.844962 0.182221 1 0 1.000000
  0 -17.748407 -1.896356 30.552671 0.001536 -0.999988 0.004633 0.906364 0.211633 1 0 1.000000
  0 -22.144009 -0.943976 27.622274 -0.637903 -0.522300 -0.565934 0.852845 0.113277 1 0 1.000000
g_shot
  0 -22.144009 -0.943976 27.622274 -0.637903 -0.522300 -0.565934 0.852845 0.113277 1 0 1.000000
  0 -17.748407 -1.896356 30.552671 0.001536 -0.999988 0.004633 0.906364 0.211633 1 0 1.000000
  0 -21.411407 -0.943976 34.215668 -0.433659 -0.513085 0.740732 0.989522 0.140586 1 0 1.000000
g_shot
  0 -21.411407 -0.943976 34.215668 -0.433659 -0.513085 0.740732 0.989522 0.140586 1 0 1.000000
  0 -17.748407 -1.896356 30.552671 0.001536 -0.999988 0.004633 0.906364 0.211633 1 0 1.000000
  0 -18.114710 -0.943976 32.750469 0.198266 -0.566700 0.799713 0.956110 0.208433 1 0 1.000000
g_shot
  0 -18.114710 -0.943976 32.750469 0.198266 -0.566700 0.799713 0.956110 0.208433 1 0 1.000000
  0 -17.748407 -1.896356 30.552671 0.001536 -0.999988 0.004633 0.906364 0.211633 1 0 1.000000
  0 -15.550607 -0.943976 32.662968 -0.112858 -0.551659 0.826399 0.949131 0.261350 1 0 1.000000
g_shot
  0 -17.748407 -1.896356 30.552671 0.001536 -0.999988 0.004633 0.906364 0.211633 1 0 1.000000
  0 -8.910990 -1.534452 32.750469 -0.043371 -0.998950 -0.014755 0.930649 0.401707 1 0 1.000000
  0 -15.550607 -0.943976 32.662968 -0.112858 -0.551659 0.826399 0.949131 0.261350 1 0 1.000000
g_shot
  0 -4.714287 -2.163023 33.849369 -0.173463 -0.979526 0.102169 0.939743 0.494069 1 0 1.000000
  0 -4.714287 -1.134452 36.047169 -0.300628 -0.495374 0.815002 0.989522 0.498062 1 0 1.000000
  0 -8.910990 -1.534452 32.750469 -0.043371 -0.998950 -0.014755 0.930649 0.401707 1 0 1.000000
g_shot
  0 -15.550607 -0.943976 32.662968 -0.112858 -0.551659 0.826399 0.949131 0.261350 1 0 1.000000
  0 -8.910990 -1.534452 32.750469 -0.043371 -0.998950 -0.014755 0.930649 0.401707 1 0 1.000000
  0 -4.714287 -1.134452 36.047169 -0.300628 -0.495374 0.815002 0.989522 0.498062 1 0 1.000000
g_shot
  0 -15.362471 -0.357846 29.113344 0.621802 -0.678224 0.391631 0.645109 0.385763 1 0 1.000000
  0 -15.876902 -0.357846 28.694756 -0.570836 -0.727546 -0.380557 0.644868 0.368357 1 0 1.000000
  0 -14.411701 -0.357846 26.496952 -0.465965 -0.640843 -0.610079 0.587464 0.364433 1 0 1.000000
g_shot
  0 -15.362471 -0.357846 29.113344 0.621802 -0.678224 0.391631 0.645109 0.385763 1 0 1.000000
  0 -14.411701 -0.357846 26.496952 -0.465965 -0.640843 -0.610079 0.587464 0.364433 1 0 1.000000
  0 -14.088494 -0.357846 27.090618 0.369861 -0.794163 0.482191 0.588773 0.378215 1 0 1.000000
g_shot
  0 -13.257950 -0.357846 26.833750 0.007016 -0.777172 0.629249 0.568846 0.377589 1 0 1.000000
  0 -14.088494 -0.357846 27.090618 0.369861 -0.794163 0.482191 0.588773 0.378215 1 0 1.000000
  0 -13.312802 -0.357846 26.130657 -0.013081 -0.645416 -0.763719 0.568735 0.364513 1 0 1.000000
g_shot
  0 -14.411701 -0.357846 26.496952 -0.465965 -0.640843 -0.610079 0.587464 0.364433 1 0 1.000000
  0 -13.312802 -0.357846 26.130657 -0.013081 -0.645416 -0.763719 0.568735 0.364513 1 0 1.000000
  0 -14.088494 -0.357846 27.090618 0.369861 -0.794163 0.482191 0.588773 0.378215 1 0 1.000000
g_shot
  0 -13.257950 -0.357846 26.833750 0.007016 -0.777172 0.629249 0.568846 0.377589 1 0 1.000000
  0 -13.312802 -0.357846 26.130657 -0.013081 -0.645416 -0.763719 0.568735 0.364513 1 0 1.000000
  0 -4.310153 -0.357846 29.383905 -0.135648 -0.868948 0.475951 0.379809 0.379328 1 0 1.000000
g_shot
  0 -13.312802 -0.357846 26.130657 -0.013081 -0.645416 -0.763719 0.568735 0.364513 1 0 1.000000
  0 -2.839455 -0.357846 29.227484 0.275055 -0.242953 -0.930225 0.349321 0.367083 1 0 1.000000
  0 -4.310153 -0.357846 29.383905 -0.135648 -0.868948 0.475951 0.379809 0.379328 1 0 1.000000
g_shot
  0 -18.114710 -0.943976 32.750469 0.198266 -0.566700 0.799713 0.688543 0.620228 1 0 1.000000
  0 -15.550607 -0.943976 32.662968 -0.112858 -0.551659 0.826399 0.690835 0.673499 1 0 1.000000
  0 -18.114710 0.960784 32.750469 0.198263 0.566699 0.799715 0.728093 0.618526 1 0 1.000000
g_shot
  0 -4.714290 1.151261 30.963491 -0.024777 0.592508 -0.805184 0.740886 0.031302 1 0 1.000000
  0 -8.910990 1.551260 32.750469 -0.043371 0.998950 -0.014755 0.791308 0.118528 1 0 1.000000
  0 -4.714287 2.179831 33.849369 -0.173464 0.979526 0.102169 0.802432 0.022497 1 0 1.000000
g_shot
  0 -4.714290 1.151261 30.963491 -0.024777 0.592508 -0.805184 0.740886 0.031302 1 0 1.000000
  0 -8.544693 0.960784 30.918970 0.114426 0.610183 -0.783954 0.746834 0.115205 1 0 1.000000
  0 -8.910990 1.551260 32.750469 -0.043371 0.998950 -0.014755 0.791308 0.118528 1 0 1.000000
g_shot
  0 -8.910990 1.551260 32.750469 -0.043371 0.998950 -0.014755 0.791308 0.118528 1 0 1.000000
  0 -8.544693 0.960784 30.918970 0.114426 0.610183 -0.783954 0.746834 0.115205 1 0 1.000000
  0 -17.748407 1.913164 30.552671 0.001536 0.999988 0.004633 0.771960 0.313313 1 0 1.000000
g_shot
  0 -8.544693 0.960784 30.918970 0.114426 0.610183 -0.783954 0.746834 0.115205 1 0 1.000000
  0 -18.847311 0.960784 27.622274 0.120199 0.556214 -0.822301 0.715181 0.340060 1 0 1.000000
  0 -17.748407 1.913164 30.552671 0.001536 0.999988 0.004633 0.771960 0.313313 1 0 1.000000
g_shot
  0 -18.847311 0.960784 27.622274 0.120199 0.556214 -0.822301 0.715181 0.340060 1 0 1.000000
  0 -22.144009 0.960784 27.622274 -0.637922 0.522294 -0.565919 0.718943 0.405875 1 0 1.000000
  0 -17.748407 1.913164 30.552671 0.001536 0.999988 0.004633 0.771960 0.313313 1 0 1.000000
g_shot
  0 -22.144009 0.960784 27.622274 -0.637922 0.522294 -0.565919 0.718943 0.405875 1 0 1.000000
  0 -21.411407 0.960784 34.215668 -0.433626 0.513089 0.740749 0.852271 0.382311 1 0 1.000000
  0 -17.748407 1.913164 30.552671 0.001536 0.999988 0.004633 0.771960 0.313313 1 0 1.000000
g_shot
  0 -21.411407 0.960784 34.215668 -0.433626 0.513089 0.740749 0.852271 0.382311 1 0 1.000000
  0 -18.114710 0.960784 32.750469 0.198263 0.566699 0.799715 0.820335 0.316351 1 0 1.000000
  0 -17.748407 1.913164 30.552671 0.001536 0.999988 0.004633 0.771960 0.313313 1 0 1.000000
g_shot
  0 -18.114710 0.960784 32.750469 0.198263 0.566699 0.799715 0.820335 0.316351 1 0 1.000000
  0 -15.550607 0.960784 32.662968 -0.112858 0.551664 0.826396 0.813207 0.263742 1 0 1.000000
  0 -17.748407 1.913164 30.552671 0.001536 0.999988 0.004633 0.771960 0.313313 1 0 1.000000
g_shot
  0 -17.748407 1.913164 30.552671 0.001536 0.999988 0.004633 0.771960 0.313313 1 0 1.000000
  0 -15.550607 0.960784 32.662968 -0.112858 0.551664 0.826396 0.813207 0.263742 1 0 1.000000
  0 -8.910990 1.551260 32.750469 -0.043371 0.998950 -0.014755 0.791308 0.118528 1 0 1.000000
g_shot
  0 -4.714287 2.179831 33.849369 -0.173464 0.979526 0.102169 0.802432 0.022497 1 0 1.000000
  0 -8.910990 1.551260 32.750469 -0.043371 0.998950 -0.014755 0.791308 0.118528 1 0 1.000000
  0 -4.714287 1.151261 36.047169 -0.300628 0.495366 0.815006 0.852271 0.018704 1 0 1.000000
g_shot
  0 -15.550607 0.960784 32.662968 -0.112858 0.551664 0.826396 0.813207 0.263742 1 0 1.000000
  0 -4.714287 1.151261 36.047169 -0.300628 0.495366 0.815006 0.852271 0.018704 1 0 1.000000
  0 -8.910990 1.551260 32.750469 -0.043371 0.998950 -0.014755 0.791308 0.118528 1 0 1.000000
g_shot
  0 -15.362471 0.374754 29.113344 0.621788 0.678242 0.391622 0.645760 0.331826 1 0 1.000000
  0 -14.411701 0.374754 26.496952 -0.465975 0.640834 -0.610082 0.587021 0.351526 1 0 1.000000
  0 -15.876902 0.374754 28.694756 -0.570822 0.727561 -0.380548 0.645199 0.349292 1 0 1.000000
g_shot
  0 -15.362471 0.374754 29.113344 0.621788 0.678242 0.391622 0.645760 0.331826 1 0 1.000000
  0 -14.088494 0.374754 27.090618 0.369869 0.794163 0.482185 0.588901 0.337515 1 0 1.000000
  0 -14.411701 0.374754 26.496952 -0.465975 0.640834 -0.610082 0.587021 0.351526 1 0 1.000000
g_shot
  0 -13.257950 0.374754 26.833750 0.007022 0.777167 0.629255 0.568699 0.338395 1 0 1.000000
  0 -13.312802 0.374754 26.130657 -0.013079 0.645414 -0.763721 0.568471 0.351115 1 0 1.000000
  0 -14.088494 0.374754 27.090618 0.369869 0.794163 0.482185 0.588901 0.337515 1 0 1.000000
g_shot
  0 -14.411701 0.374754 26.496952 -0.465975 0.640834 -0.610082 0.587021 0.351526 1 0 1.000000
  0 -14.088494 0.374754 27.090618 0.369869 0.794163 0.482185 0.588901 0.337515 1 0 1.000000
  0 -13.312802 0.374754 26.130657 -0.013079 0.645414 -0.763721 0.568471 0.351115 1 0 1.000000
g_shot
  0 -13.257950 0.374754 26.833750 0.007022 0.777167 0.629255 0.568699 0.338395 1 0 1.000000
  0 -4.310153 0.374754 29.383905 -0.135649 0.868944 0.475957 0.379239 0.338056 1 0 1.000000
  0 -13.312802 0.374754 26.130657 -0.013079 0.645414 -0.763721 0.568471 0.351115 1 0 1.000000
g_shot
  0 -13.312802 0.374754 26.130657 -0.013079 0.645414 -0.763721 0.568471 0.351115 1 0 1.000000
  0 -4.310153 0.374754 29.383905 -0.135649 0.868944 0.475957 0.379239 0.338056 1 0 1.000000
  0 -2.839455 0.374754 29.227484 0.275055 0.242957 -0.930224 0.349213 0.350529 1 0 1.000000
g_shot
  0 -4.714287 1.151261 36.047169 -0.300628 0.495366 0.815006 0.744482 0.907344 1 0 1.000000
  0 -15.550607 0.960784 32.662968 -0.112858 0.551664 0.826396 0.730385 0.671797 1 0 1.000000
  0 -4.714287 -1.134452 36.047169 -0.300628 -0.495374 0.815002 0.697023 0.909386 1 0 1.000000
g_shot
  0 -4.714287 -1.134452 36.047169 -0.300628 -0.495374 0.815002 0.697023 0.909386 1 0 1.000000
  0 -15.550607 0.960784 32.662968 -0.112858 0.551664 0.826396 0.730385 0.671797 1 0 1.000000
  0 -15.550607 -0.943976 32.662968 -0.112858 -0.551659 0.826399 0.690835 0.673499 1 0 1.000000
g_shot
  0 -15.550607 0.960784 32.662968 -0.112858 0.551664 0.826396 0.730385 0.671797 1 0 1.000000
  0 -18.114710 0.960784 32.750469 0.198263 0.566699 0.799715 0.728093 0.618526 1 0 1.000000
  0 -15.550607 -0.943976 32.662968 -0.112858 -0.551659 0.826399 0.690835 0.673499 1 0 1.000000
g_shot
  0 -4.310153 0.374754 29.383905 -0.135649 0.868944 0.475957 0.379239 0.338056 1 0 1.000000
  0 -13.257950 0.374754 26.833750 0.007022 0.777167 0.629255 0.568699 0.338395 1 0 1.000000
  0 -13.257950 -0.357846 26.833750 0.007016 -0.777172 0.629249 0.568456 0.322430 1 0 1.000000
g_shot
  0 -4.310153 0.374754 29.383905 -0.135649 0.868944 0.475957 0.379239 0.338056 1 0 1.000000
  0 -13.257950 -0.357846 26.833750 0.007016 -0.777172 0.629249 0.568456 0.322430 1 0 1.000000
  0 -4.310153 -0.357846 29.383905 -0.135648 -0.868948 0.475951 0.379182 0.323153 1 0 1.000000
g_shot
  0 -15.876902 -0.357846 28.694756 -0.570836 -0.727546 -0.380557 0.644868 0.368357 1 0 1.000000
  0 -15.876902 0.374754 28.694756 -0.570822 0.727561 -0.380548 0.645199 0.349292 1 0 1.000000
  0 -14.411701 -0.357846 26.496952 -0.465965 -0.640843 -0.610079 0.587464 0.364433 1 0 1.000000
g_shot
  0 -14.411701 0.374754 26.496952 -0.465975 0.640834 -0.610082 0.587021 0.351526 1 0 1.000000
  0 -14.411701 -0.357846 26.496952 -0.465965 -0.640843 -0.610079 0.587464 0.364433 1 0 1.000000
  0 -15.876902 0.374754 28.694756 -0.570822 0.727561 -0.380548 0.645199 0.349292 1 0 1.000000
g_shot
  0 -13.312802 -0.357846 26.130657 -0.013081 -0.645416 -0.763719 0.568735 0.364513 1 0 1.000000
  0 -14.411701 0.374754 26.496952 -0.465975 0.640834 -0.610082 0.587021 0.351526 1 0 1.000000
  0 -13.312802 0.374754 26.130657 -0.013079 0.645414 -0.763721 0.568471 0.351115 1 0 1.000000
g_shot
  0 -13.312802 -0.357846 26.130657 -0.013081 -0.645416 -0.763719 0.568735 0.364513 1 0 1.000000
  0 -14.411701 -0.357846 26.496952 -0.465965 -0.640843 -0.610079 0.587464 0.364433 1 0 1.000000
  0 -14.411701 0.374754 26.496952 -0.465975 0.640834 -0.610082 0.587021 0.351526 1 0 1.000000
g_shot
  0 -2.839455 0.374754 29.227484 0.275055 0.242957 -0.930224 0.349213 0.350529 1 0 1.000000
  0 -2.839455 -0.357846 29.227484 0.275055 -0.242953 -0.930225 0.349321 0.367083 1 0 1.000000
  0 -13.312802 0.374754 26.130657 -0.013079 0.645414 -0.763721 0.568471 0.351115 1 0 1.000000
g_shot
  0 -2.839455 -0.357846 29.227484 0.275055 -0.242953 -0.930225 0.349321 0.367083 1 0 1.000000
  0 -13.312802 -0.357846 26.130657 -0.013081 -0.645416 -0.763719 0.568735 0.364513 1 0 1.000000
  0 -13.312802 0.374754 26.130657 -0.013079 0.645414 -0.763721 0.568471 0.351115 1 0 1.000000
g_shot
  0 21.526516 -0.513318 32.649410 0.064023 0.161078 -0.984863 0.492465 0.932384 1 0 1.000000
  0 23.362001 -0.409035 32.901173 0.792100 0.113140 -0.599814 0.492028 0.971236 1 0 1.000000
  0 23.362001 -1.416079 32.484035 0.649180 -0.018881 -0.760400 0.514753 0.969121 1 0 1.000000
g_shot
  0 1.551473 -1.772123 32.127998 0.021175 -0.367231 -0.929889 0.486218 0.513207 1 0 1.000000
  0 23.362001 -1.416079 32.484035 0.649180 -0.018881 -0.760400 0.514753 0.969121 1 0 1.000000
  0 23.362001 -2.423122 32.901173 0.640683 -0.541376 -0.544461 0.537518 0.967494 1 0 1.000000
g_shot
  0 1.551473 -3.030926 32.649410 0.027889 -0.708795 -0.704863 0.514675 0.511173 1 0 1.000000
  0 23.362001 -2.423122 32.901173 0.640683 -0.541376 -0.544461 0.537518 0.967494 1 0 1.000000
  0 23.362001 -2.840253 33.908207 0.642464 -0.766316 -0.000002 0.560313 0.966353 1 0 1.000000
g_shot
  0 23.362001 -2.840253 33.908207 0.642464 -0.766316 -0.000002 0.560313 0.966353 1 0 1.000000
  0 23.362001 -2.423122 34.915257 0.640668 -0.541385 0.544469 0.583129 0.965782 1 0 1.000000
  0 1.551473 -3.030927 35.167015 0.027889 -0.708798 0.704861 0.571689 0.509033 1 0 1.000000
g_shot
  0 23.362001 -2.423122 34.915257 0.640668 -0.541385 0.544469 0.583129 0.965782 1 0 1.000000
  0 23.362001 -1.416079 35.332390 0.636344 0.003086 0.771399 0.605952 0.965697 1 0 1.000000
  0 1.551473 -1.772123 35.688431 0.016386 -0.003952 0.999858 0.600218 0.508926 1 0 1.000000
g_shot
  0 23.362001 -1.416079 35.332390 0.636344 0.003086 0.771399 0.605952 0.965697 1 0 1.000000
  0 23.362001 -0.409035 34.915257 0.757127 0.126895 0.640825 0.628775 0.965897 1 0 1.000000
  0 1.551473 -0.513319 35.167015 0.010382 0.195928 0.980563 0.628746 0.509177 1 0 1.000000
g_shot
  0 23.362001 2.856445 33.908207 0.642464 0.766316 -0.000002 0.917450 0.966424 1 0 1.000000
  0 23.362001 2.439314 32.901173 0.640682 0.541376 -0.544461 0.940246 0.967532 1 0 1.000000
  0 1.551473 3.047118 32.649410 0.027889 0.708795 -0.704863 0.962442 0.511179 1 0 1.000000
g_shot
  0 23.362001 2.439314 32.901173 0.640682 0.541376 -0.544461 0.940246 0.967532 1 0 1.000000
  0 23.362001 1.432271 32.484035 0.649180 0.018881 -0.760401 0.963014 0.969127 1 0 1.000000
  0 1.551473 1.788314 32.127998 0.021175 0.367231 -0.929889 0.990902 0.513172 1 0 1.000000
g_shot
  0 23.362001 1.432271 32.484035 0.649180 0.018881 -0.760401 0.963014 0.969127 1 0 1.000000
  0 23.362001 0.425227 32.901173 0.792106 -0.113139 -0.599806 0.985743 0.971209 1 0 1.000000
  0 21.526516 0.529510 32.649410 0.064022 -0.161078 -0.984863 0.985250 0.932358 1 0 1.000000
g_shot
  0 1.551473 0.529509 35.167015 0.010382 -0.195927 0.980563 0.848368 0.509344 1 0 1.000000
  0 23.362001 0.425227 34.915257 0.757123 -0.126897 0.640829 0.848987 0.966064 1 0 1.000000
  0 23.362001 1.432270 35.332390 0.636344 -0.003086 0.771399 0.871809 0.965832 1 0 1.000000
g_shot
  0 1.551473 1.788314 35.688431 0.016387 0.003952 0.999858 0.876895 0.509054 1 0 1.000000
  0 23.362001 1.432270 35.332390 0.636344 -0.003086 0.771399 0.871809 0.965832 1 0 1.000000
  0 23.362001 2.439314 34.915257 0.640668 0.541385 0.544469 0.894632 0.965884 1 0 1.000000
g_shot
  0 1.551473 3.047118 35.167015 0.027889 0.708798 0.704860 0.905425 0.509120 1 0 1.000000
  0 23.362001 2.439314 34.915257 0.640668 0.541385 0.544469 0.894632 0.965884 1 0 1.000000
  0 23.362001 2.856445 33.908207 0.642464 0.766316 -0.000002 0.917450 0.966424 1 0 1.000000
g_shot
  0 5.450628 -1.574321 36.854595 0.566806 -0.579112 0.585969 0.382389 0.045305 1 0 1.000000
  0 5.450628 -1.121024 36.854595 0.566782 0.579117 0.585988 0.372897 0.045305 1 0 1.000000
  0 3.293598 -1.121024 36.854595 -0.437288 0.602148 0.667980 0.372897 0.090471 1 0 1.000000
g_shot
  0 5.497342 -1.574321 35.451015 0.714214 -0.699524 0.023770 0.382389 0.015900 1 0 1.000000
  0 5.497342 -1.121024 35.451015 0.714232 0.699506 0.023771 0.372897 0.015900 1 0 1.000000
  0 5.450628 -1.121024 36.854595 0.566782 0.579117 0.585988 0.372897 0.045305 1 0 1.000000
g_shot
  0 3.293598 -1.574321 36.854595 -0.437270 -0.602152 0.667988 0.382389 0.090471 1 0 1.000000
  0 3.293598 -1.121024 36.854595 -0.437288 0.602148 0.667980 0.372897 0.090471 1 0 1.000000
  0 2.680969 -1.121024 35.451015 -0.737409 0.593829 0.321861 0.372897 0.122537 1 0 1.000000
g_shot
  0 5.450628 1.104249 36.854595 0.566806 -0.579112 0.585969 0.126133 0.043898 1 0 1.000000
  0 5.450628 1.557545 36.854595 0.566782 0.579117 0.585988 0.116642 0.043898 1 0 1.000000
  0 3.293598 1.557545 36.854595 -0.437288 0.602148 0.667980 0.116642 0.089063 1 0 1.000000
g_shot
  0 5.497342 1.104249 35.451015 0.714214 -0.699524 0.023770 0.126133 0.014493 1 0 1.000000
  0 5.497342 1.557545 35.451015 0.714232 0.699506 0.023771 0.116642 0.014493 1 0 1.000000
  0 5.450628 1.557545 36.854595 0.566782 0.579117 0.585988 0.116642 0.043898 1 0 1.000000
g_shot
  0 3.293598 1.104249 36.854595 -0.437270 -0.602152 0.667988 0.126133 0.089063 1 0 1.000000
  0 3.293598 1.557545 36.854595 -0.437288 0.602148 0.667980 0.116642 0.089063 1 0 1.000000
  0 2.680969 1.557545 35.451015 -0.737408 0.593829 0.321862 0.116641 0.121130 1 0 1.000000
g_shot
  0 1.859562 3.719631 30.776350 0.602036 0.742360 -0.294031 0.422699 0.281992 1 0 1.000000
  0 1.859568 2.150952 29.207668 0.623087 0.307531 -0.719158 0.468052 0.271952 1 0 1.000000
  0 -4.722848 1.817557 29.201363 -0.633133 0.336646 -0.697002 0.443154 0.136213 1 0 1.000000
g_shot
  0 -4.722848 1.817557 29.201363 -0.633133 0.336646 -0.697002 0.443154 0.136213 1 0 1.000000
  0 1.859568 2.150952 29.207668 0.623087 0.307531 -0.719158 0.468052 0.271952 1 0 1.000000
  0 1.859568 -2.134759 29.207668 0.623091 -0.307534 -0.719153 0.555385 0.251318 1 0 1.000000
g_shot
  0 1.859568 -2.134759 29.207668 0.623091 -0.307534 -0.719153 0.017732 0.269217 1 0 1.000000
  0 1.859568 -3.703437 30.776342 0.602018 -0.742372 -0.294038 0.062960 0.279808 1 0 1.000000
  0 -4.722848 -1.801367 29.201363 -0.633136 -0.336649 -0.696998 0.044277 0.133791 1 0 1.000000
g_shot
  0 1.859568 -3.703437 30.776342 0.602018 -0.742372 -0.294038 0.164267 0.420235 1 0 1.000000
  0 1.859562 3.719631 30.776350 0.602036 0.742360 -0.294031 0.319694 0.421179 1 0 1.000000
  0 1.859562 3.719630 35.062061 0.592328 0.743407 0.310634 0.320238 0.331443 1 0 1.000000
g_shot
  0 1.859568 -3.703439 35.062054 0.592331 -0.743410 0.310622 0.151564 0.294022 1 0 1.000000
  0 -4.722848 -3.125986 34.728661 -0.667435 -0.688926 0.282685 0.166587 0.156307 1 0 1.000000
  0 -4.722848 -3.125986 31.109735 -0.681950 -0.698932 -0.215496 0.091768 0.144304 1 0 1.000000
g_shot
  0 1.859568 -3.703439 35.062054 0.592331 -0.743410 0.310622 0.151564 0.294022 1 0 1.000000
  0 1.859568 -2.134761 36.630737 0.592315 -0.310638 0.743416 0.197857 0.297854 1 0 1.000000
  0 -4.722848 -1.801368 36.053280 -0.667443 -0.282679 0.688922 0.205678 0.159542 1 0 1.000000
g_shot
  0 -4.722848 -1.801368 36.053280 -0.667443 -0.282679 0.688922 0.205678 0.159542 1 0 1.000000
  0 1.859568 -2.134761 36.630737 0.592315 -0.310638 0.743416 0.197857 0.297854 1 0 1.000000
  0 -4.722848 1.817555 36.053284 -0.667435 0.282680 0.688928 0.281452 0.160002 1 0 1.000000
g_shot
  0 1.859562 2.150949 36.630737 0.592325 0.310618 0.743417 0.287592 0.298398 1 0 1.000000
  0 -4.722848 1.817555 36.053284 -0.667435 0.282680 0.688928 0.281452 0.160002 1 0 1.000000
  0 1.859568 -2.134761 36.630737 0.592315 -0.310638 0.743416 0.197857 0.297854 1 0 1.000000
g_shot
  0 -4.722848 -3.125986 31.109735 -0.681950 -0.698932 -0.215496 0.091768 0.144304 1 0 1.000000
  0 1.859568 -3.703437 30.776342 0.602018 -0.742372 -0.294038 0.062960 0.279808 1 0 1.000000
  0 1.859568 -3.703439 35.062054 0.592331 -0.743410 0.310622 0.151564 0.294022 1 0 1.000000
g_shot
  0 -4.722848 1.817557 29.201363 -0.633133 0.336646 -0.697002 0.282323 0.016535 1 0 1.000000
  0 -4.722848 -1.801367 29.201363 -0.633136 -0.336649 -0.696998 0.206549 0.016074 1 0 1.000000
  0 -4.722848 3.142176 31.109743 -0.681945 0.698937 -0.215496 0.309816 0.056661 1 0 1.000000
g_shot
  0 -4.722848 -1.801367 29.201363 -0.633136 -0.336649 -0.696998 0.516899 0.118789 1 0 1.000000
  0 -4.722848 1.817557 29.201363 -0.633133 0.336646 -0.697002 0.443154 0.136213 1 0 1.000000
  0 1.859568 -2.134759 29.207668 0.623091 -0.307534 -0.719153 0.555385 0.251318 1 0 1.000000
g_shot
  0 1.859568 -3.703437 30.776342 0.602018 -0.742372 -0.294038 0.164267 0.420235 1 0 1.000000
  0 1.859568 -2.134759 29.207668 0.623091 -0.307534 -0.719153 0.196913 0.453280 1 0 1.000000
  0 1.859568 2.150952 29.207668 0.623087 0.307531 -0.719158 0.286649 0.453825 1 0 1.000000
g_shot
  0 1.859562 3.719630 35.062061 0.592328 0.743407 0.310634 0.333929 0.295130 1 0 1.000000
  0 -4.722848 3.142176 31.109743 -0.681945 0.698937 -0.215496 0.395538 0.146149 1 0 1.000000
  0 -4.722848 3.142174 34.728668 -0.667455 0.688911 0.282674 0.320579 0.157242 1 0 1.000000
g_shot
  0 1.859562 2.150949 36.630737 0.592325 0.310618 0.743417 0.287592 0.298398 1 0 1.000000
  0 1.859562 3.719630 35.062061 0.592328 0.743407 0.310634 0.333929 0.295130 1 0 1.000000
  0 -4.722848 3.142174 34.728668 -0.667455 0.688911 0.282674 0.320579 0.157242 1 0 1.000000
g_shot
  0 -4.722848 -3.125986 31.109735 -0.681950 -0.698932 -0.215496 0.178571 0.055864 1 0 1.000000
  0 -4.722848 -3.125986 34.728661 -0.667435 -0.688926 0.282685 0.178111 0.131638 1 0 1.000000
  0 -4.722848 3.142176 31.109743 -0.681945 0.698937 -0.215496 0.309816 0.056661 1 0 1.000000
g_shot
  0 1.859562 3.719631 30.776350 0.602036 0.742360 -0.294031 0.319694 0.421179 1 0 1.000000
  0 1.859568 -3.703437 30.776342 0.602018 -0.742372 -0.294038 0.164267 0.420235 1 0 1.000000
  0 1.859568 2.150952 29.207668 0.623087 0.307531 -0.719158 0.286649 0.453825 1 0 1.000000
g_shot
  0 1.859568 -3.703439 35.062054 0.592331 -0.743410 0.310622 0.164812 0.330500 1 0 1.000000
  0 1.859562 2.150949 36.630737 0.592325 0.310618 0.743417 0.287592 0.298398 1 0 1.000000
  0 1.859568 -2.134761 36.630737 0.592315 -0.310638 0.743416 0.197857 0.297854 1 0 1.000000
g_shot
  0 -4.722848 3.142174 34.728668 -0.667455 0.688911 0.282674 0.309356 0.132435 1 0 1.000000
  0 -4.722848 3.142176 31.109743 -0.681945 0.698937 -0.215496 0.309816 0.056661 1 0 1.000000
  0 -4.722848 -3.125986 34.728661 -0.667435 -0.688926 0.282685 0.178111 0.131638 1 0 1.000000
g_shot
  0 -4.722848 -1.801367 29.201363 -0.633136 -0.336649 -0.696998 0.206549 0.016074 1 0 1.000000
  0 -4.722848 -3.125986 31.109735 -0.681950 -0.698932 -0.215496 0.178571 0.055864 1 0 1.000000
  0 -4.722848 3.142176 31.109743 -0.681945 0.698937 -0.215496 0.309816 0.056661 1 0 1.000000
g_shot
  0 -1.240886 0.488797 36.299377 0.000000 0.176661 0.984272 0.613063 0.207731 1 0 1.000000
  0 -8.461131 0.488797 36.299377 -0.523500 0.586540 0.617996 0.612651 0.056549 1 0 1.000000
  0 -8.461131 -0.469966 36.299377 -0.523516 -0.586531 0.617991 0.592576 0.056604 1 0 1.000000
g_shot
  0 -8.461131 0.488797 36.299377 -0.523500 0.586540 0.617996 0.612651 0.056549 1 0 1.000000
  0 -8.827434 0.488797 34.101574 -0.802267 0.581798 0.133711 0.612524 0.009896 1 0 1.000000
  0 -8.827434 -0.469966 34.101574 -0.802254 -0.581816 0.133709 0.592449 0.009950 1 0 1.000000
g_shot
  0 -7.865977 0.267953 28.837433 -0.260217 -0.537842 0.801881 0.050155 0.425473 1 0 1.000000
  0 -8.964877 0.272494 30.945234 0.629395 -0.703699 0.329650 0.050339 0.375701 1 0 1.000000
  0 -7.865977 -0.251044 28.837433 -0.260224 0.537852 0.801872 0.039288 0.425454 1 0 1.000000
g_shot
  0 -8.964877 -0.255586 30.945234 0.629405 0.703688 0.329655 0.039281 0.375681 1 0 1.000000
  0 -7.865977 -0.251044 28.837433 -0.260224 0.537852 0.801872 0.039288 0.425454 1 0 1.000000
  0 -8.964877 0.272494 30.945234 0.629395 -0.703699 0.329650 0.050339 0.375701 1 0 1.000000
g_shot
  0 21.526516 -0.513318 32.649410 0.064023 0.161078 -0.984863 0.480133 0.097088 1 0 1.000000
  0 21.526516 0.529510 32.649410 0.064022 -0.161078 -0.984863 0.480133 0.075252 1 0 1.000000
  0 23.362001 0.425227 32.901173 0.792106 -0.113139 -0.599806 0.441340 0.077436 1 0 1.000000
g_shot
  0 21.526516 -0.513318 32.649410 0.064023 0.161078 -0.984863 0.480133 0.097088 1 0 1.000000
  0 23.362001 0.425227 32.901173 0.792106 -0.113139 -0.599806 0.441340 0.077436 1 0 1.000000
  0 23.362001 -0.409035 32.901173 0.792100 0.113140 -0.599814 0.441340 0.094904 1 0 1.000000
g_shot
  0 1.859569 -4.081151 32.690708 -0.565244 -0.747870 0.348124 0.360276 0.508183 1 0 1.000000
  0 21.365049 -3.700691 32.174698 0.602079 -0.797530 0.038034 0.332579 0.916353 1 0 1.000000
  0 1.859562 0.008097 34.152718 -0.266958 0.000000 0.963708 0.451040 0.515205 1 0 1.000000
g_shot
  0 1.859568 -3.332284 30.762136 -0.331761 -0.785821 -0.521939 0.316935 0.506620 1 0 1.000000
  0 21.365049 -3.700691 32.174698 0.602079 -0.797530 0.038034 0.332579 0.916353 1 0 1.000000
  0 1.859569 -4.081151 32.690708 -0.565244 -0.747870 0.348124 0.360276 0.508183 1 0 1.000000
g_shot
  0 21.365049 -3.700691 32.174698 0.602079 -0.797530 0.038034 0.332579 0.916353 1 0 1.000000
  0 1.859568 -3.332284 30.762136 -0.331761 -0.785821 -0.521939 0.316935 0.506620 1 0 1.000000
  0 19.942122 -1.537796 29.867012 0.477822 -0.254541 -0.840770 0.267112 0.884735 1 0 1.000000
g_shot
  0 1.859568 -3.332284 30.762136 -0.331761 -0.785821 -0.521939 0.316935 0.506620 1 0 1.000000
  0 1.859568 -1.920473 29.350328 0.034444 -0.378923 -0.924787 0.275096 0.505520 1 0 1.000000
  0 19.942122 -1.537796 29.867012 0.477822 -0.254541 -0.840770 0.267112 0.884735 1 0 1.000000
g_shot
  0 1.859568 0.008097 29.373371 0.028190 -0.000000 -0.999603 0.234664 0.505538 1 0 1.000000
  0 19.942122 -1.537796 29.867012 0.477822 -0.254541 -0.840770 0.267112 0.884735 1 0 1.000000
  0 1.859568 -1.920473 29.350328 0.034444 -0.378923 -0.924787 0.275096 0.505520 1 0 1.000000
g_shot
  0 19.942122 -1.537796 29.867012 0.477822 -0.254541 -0.840770 0.267112 0.884735 1 0 1.000000
  0 1.859568 0.008097 29.373371 0.028190 -0.000000 -0.999603 0.234664 0.505538 1 0 1.000000
  0 19.716698 0.008097 29.839808 0.465432 -0.000000 -0.885084 0.234666 0.880790 1 0 1.000000
g_shot
  0 19.716698 0.008097 29.839808 0.465432 -0.000000 -0.885084 0.234666 0.880790 1 0 1.000000
  0 1.859568 0.008097 29.373371 0.028190 -0.000000 -0.999603 0.234664 0.505538 1 0 1.000000
  0 19.942122 1.553989 29.867012 0.477822 0.254541 -0.840770 0.202220 0.884735 1 0 1.000000
g_shot
  0 1.859568 0.008097 29.373371 0.028190 -0.000000 -0.999603 0.234664 0.505538 1 0 1.000000
  0 1.859568 1.936667 29.350328 0.034444 0.378924 -0.924787 0.194234 0.505520 1 0 1.000000
  0 19.942122 1.553989 29.867012 0.477822 0.254541 -0.840770 0.202220 0.884735 1 0 1.000000
g_shot
  0 1.859562 3.348478 30.762144 -0.331762 0.785821 -0.521938 0.152394 0.506621 1 0 1.000000
  0 19.942122 1.553989 29.867012 0.477822 0.254541 -0.840770 0.202220 0.884735 1 0 1.000000
  0 1.859568 1.936667 29.350328 0.034444 0.378924 -0.924787 0.194234 0.505520 1 0 1.000000
g_shot
  0 19.942122 1.553989 29.867012 0.477822 0.254541 -0.840770 0.202220 0.884735 1 0 1.000000
  0 1.859562 3.348478 30.762144 -0.331762 0.785821 -0.521938 0.152394 0.506621 1 0 1.000000
  0 21.365049 3.716885 32.174698 0.602079 0.797530 0.038034 0.136753 0.916353 1 0 1.000000
g_shot
  0 1.859562 3.348478 30.762144 -0.331762 0.785821 -0.521938 0.152394 0.506621 1 0 1.000000
  0 1.859562 4.097344 32.690708 -0.565245 0.747869 0.348123 0.109053 0.508184 1 0 1.000000
  0 21.365049 3.716885 32.174698 0.602079 0.797530 0.038034 0.136753 0.916353 1 0 1.000000
g_shot
  0 21.365049 3.716885 32.174698 0.602079 0.797530 0.038034 0.136753 0.916353 1 0 1.000000
  0 1.859562 4.097344 32.690708 -0.565245 0.747869 0.348123 0.109053 0.508184 1 0 1.000000
  0 1.859562 0.008097 34.152718 -0.266958 0.000000 0.963708 0.018289 0.515206 1 0 1.000000
g_shot
  0 1.859569 -4.081151 32.690708 -0.565244 -0.747870 0.348124 0.360276 0.508183 1 0 1.000000
  0 1.859562 0.008097 34.152718 -0.266958 0.000000 0.963708 0.361098 0.417152 1 0 1.000000
  0 1.859568 -3.332284 30.762136 -0.331761 -0.785821 -0.521939 0.316935 0.506620 1 0 1.000000
g_shot
  0 1.859562 4.097344 32.690708 -0.565245 0.747869 0.348123 0.109053 0.508184 1 0 1.000000
  0 1.859562 3.348478 30.762144 -0.331762 0.785821 -0.521938 0.152394 0.506621 1 0 1.000000
  0 1.859562 0.008097 34.152718 -0.266958 0.000000 0.963708 0.108231 0.417152 1 0 1.000000
end
