version 1
nodes
0 "root" -1
end
skeleton
  time 0
  0 0.000000 0.000000 0.000000 0.000000 0.000000 0.000000
end
triangles
quaddama
  0 -3.043688 -0.879291 24.300179 -0.863427 -0.342772 0.370136 0.232728 0.372232 1 0 1.000000
  0 -3.043688 0.948524 24.300179 -0.863346 0.342791 0.370308 0.212728 0.372232 1 0 1.000000
  0 -3.043688 -0.879291 22.068787 -0.874767 -0.371849 -0.310663 0.232728 0.392232 1 0 1.000000
quaddama
  0 -3.043688 0.948524 24.300179 -0.863346 0.342791 0.370308 0.212728 0.372232 1 0 1.000000
  0 -3.043688 0.948524 22.068787 -0.874719 0.371875 -0.310766 0.212728 0.392232 1 0 1.000000
  0 -3.043688 -0.879291 22.068787 -0.874767 -0.371849 -0.310663 0.232728 0.392232 1 0 1.000000
quaddama
  0 -3.043688 -0.879291 22.068787 -0.874767 -0.371849 -0.310663 0.232728 0.392232 1 0 1.000000
  0 0.001433 -12.574028 23.182793 0.000000 -1.000000 -0.000143 0.402728 0.382232 1 0 1.000000
  0 -3.043688 -0.879291 24.300179 -0.863427 -0.342772 0.370136 0.232728 0.372232 1 0 1.000000
quaddama
  0 -3.043688 -0.879291 24.300179 -0.863427 -0.342772 0.370136 0.232728 0.372232 1 0 1.000000
  0 0.001433 0.030730 33.672832 0.000000 -0.000409 1.000000 0.222728 0.232232 1 0 1.000000
  0 -3.043688 0.948524 24.300179 -0.863346 0.342791 0.370308 0.212728 0.372232 1 0 1.000000
quaddama
  0 -3.043688 0.948524 22.068787 -0.874719 0.371875 -0.310766 0.212728 0.392232 1 0 1.000000
  0 -3.043688 0.948524 24.300179 -0.863346 0.342791 0.370308 0.212728 0.372232 1 0 1.000000
  0 0.001433 12.641610 23.182793 0.000000 1.000000 -0.000142 0.042728 0.382232 1 0 1.000000
quaddama
  0 0.001433 0.030730 1.831201 0.000000 -0.000195 -1.000000 0.222728 0.682232 1 0 1.000000
  0 -3.043688 -0.879291 22.068787 -0.874767 -0.371849 -0.310663 0.232728 0.392232 1 0 1.000000
  0 -3.043688 0.948524 22.068787 -0.874719 0.371875 -0.310766 0.212728 0.392232 1 0 1.000000
quaddama
  0 -1.354764 -6.250824 46.696602 -0.695206 -0.601017 0.394293 0.922728 0.227232 1 0 1.000000
  0 -1.220705 -2.860149 47.749142 -0.740649 0.356688 -0.569397 0.873478 0.217982 1 0 1.000000
  0 -1.220704 -5.177034 45.325073 -0.718260 0.582247 -0.380908 0.904978 0.249482 1 0 1.000000
quaddama
  0 -1.354765 6.217933 27.172562 -0.687151 0.607464 -0.398512 0.747728 0.497232 1 0 1.000000
  0 -1.220704 2.605772 27.086536 -0.749718 -0.350596 0.561253 0.792478 0.505982 1 0 1.000000
  0 -1.220705 4.922662 29.510601 -0.727451 -0.574324 0.375457 0.760978 0.469982 1 0 1.000000
quaddama
  0 -1.354764 -8.162057 42.217751 -0.706368 -0.683269 0.184899 0.947728 0.287232 1 0 1.000000
  0 -1.220704 -5.177034 45.325073 -0.718260 0.582247 -0.380908 0.904978 0.249482 1 0 1.000000
  0 -1.220704 -6.725133 41.697208 -0.706346 0.683321 -0.184790 0.927478 0.303482 1 0 1.000000
quaddama
  0 -1.354765 8.129163 31.651421 -0.699302 0.690341 -0.185489 0.717728 0.432232 1 0 1.000000
  0 -1.220705 4.922662 29.510601 -0.727451 -0.574324 0.375457 0.760978 0.469982 1 0 1.000000
  0 -1.220705 6.470755 33.138477 -0.713645 -0.676682 0.181138 0.742978 0.420482 1 0 1.000000
quaddama
  0 -1.354764 -8.833191 36.934578 -0.708061 -0.706150 0.001296 0.957728 0.362232 1 0 1.000000
  0 -1.220704 -6.725133 41.697208 -0.706346 0.683321 -0.184790 0.927478 0.303482 1 0 1.000000
  0 -1.220704 -7.268752 37.417835 -0.704178 0.710021 -0.001649 0.936478 0.361982 1 0 1.000000
quaddama
  0 -1.354765 8.800299 36.934578 -0.704664 0.709541 0.000995 0.712728 0.357232 1 0 1.000000
  0 -1.220705 6.470755 41.697208 -0.710520 -0.679200 -0.183984 0.742978 0.298982 1 0 1.000000
  0 -1.354765 8.129163 42.217751 -0.702878 0.686553 0.186030 0.722728 0.287232 1 0 1.000000
quaddama
  0 -1.354765 8.800299 36.934578 -0.704664 0.709541 0.000995 0.712728 0.357232 1 0 1.000000
  0 -1.220705 6.470755 33.138477 -0.713645 -0.676682 0.181138 0.742978 0.420482 1 0 1.000000
  0 -1.220705 7.014374 37.417835 -0.708326 -0.705884 -0.001282 0.733978 0.357482 1 0 1.000000
quaddama
  0 -1.354764 -8.833191 36.934578 -0.708061 -0.706150 0.001296 0.957728 0.362232 1 0 1.000000
  0 -1.220704 -6.725133 33.138466 -0.710215 0.680215 0.181392 0.927478 0.420482 1 0 1.000000
  0 -1.354763 -8.162057 31.651409 -0.701741 -0.688157 -0.184389 0.947728 0.437232 1 0 1.000000
quaddama
  0 -1.354765 8.129163 42.217751 -0.702878 0.686553 0.186030 0.722728 0.287232 1 0 1.000000
  0 -1.220705 4.922662 45.325073 -0.721700 -0.578758 -0.379722 0.765478 0.249482 1 0 1.000000
  0 -1.354765 6.217933 46.696602 -0.692736 0.602659 0.396130 0.747728 0.222232 1 0 1.000000
quaddama
  0 -1.354763 -8.162057 31.651409 -0.701741 -0.688157 -0.184389 0.947728 0.437232 1 0 1.000000
  0 -1.220704 -5.177042 29.510601 -0.725215 0.576701 0.376138 0.904978 0.469982 1 0 1.000000
  0 -1.354763 -6.250834 27.172562 -0.688483 -0.606652 -0.397447 0.917728 0.497232 1 0 1.000000
quaddama
  0 -1.354765 6.217933 46.696602 -0.692736 0.602659 0.396130 0.747728 0.222232 1 0 1.000000
  0 -1.220705 2.605772 47.749142 -0.742526 -0.354544 -0.568290 0.796978 0.213482 1 0 1.000000
  0 -1.354765 3.357577 49.689274 -0.675709 0.389322 0.625975 0.787728 0.182232 1 0 1.000000
quaddama
  0 -1.354763 -6.250834 27.172562 -0.688483 -0.606652 -0.397447 0.917728 0.497232 1 0 1.000000
  0 -1.220704 -2.860149 27.086536 -0.748705 0.351779 0.561865 0.868978 0.505982 1 0 1.000000
  0 -1.354764 -3.390471 24.179893 -0.670216 -0.392381 -0.629958 0.877728 0.537232 1 0 1.000000
quaddama
  0 -1.354765 3.357577 49.689274 -0.675709 0.389322 0.625975 0.787728 0.182232 1 0 1.000000
  0 -1.220705 -0.127188 48.600361 -0.756114 0.000639 -0.654440 0.837478 0.204482 1 0 1.000000
  0 -1.354765 -0.016447 50.740162 -0.665568 -0.000324 0.746338 0.837728 0.167232 1 0 1.000000
quaddama
  0 -1.354764 -3.390471 24.179893 -0.670216 -0.392381 -0.629958 0.877728 0.537232 1 0 1.000000
  0 -1.220704 -0.127188 26.235310 -0.763834 0.000309 0.645413 0.832978 0.514982 1 0 1.000000
  0 -1.354764 -0.016447 23.128998 -0.659503 -0.000146 -0.751702 0.832728 0.552232 1 0 1.000000
quaddama
  0 -1.354765 -3.390471 49.689274 -0.676814 -0.389368 0.624752 0.882728 0.182232 1 0 1.000000
  0 -1.220705 -0.127188 48.600361 -0.756114 0.000639 -0.654440 0.837478 0.204482 1 0 1.000000
  0 -1.220705 -2.860149 47.749142 -0.740649 0.356688 -0.569397 0.873478 0.217982 1 0 1.000000
quaddama
  0 -1.354764 3.357577 24.179893 -0.669701 0.392336 -0.630534 0.782728 0.537232 1 0 1.000000
  0 -1.220704 -0.127188 26.235310 -0.763834 0.000309 0.645413 0.832978 0.514982 1 0 1.000000
  0 -1.220704 2.605772 27.086536 -0.749718 -0.350596 0.561253 0.792478 0.505982 1 0 1.000000
quaddama
  0 -0.678599 6.736426 29.785723 -0.707110 0.000000 0.707104 0.702728 0.172232 1 0 1.000000
  0 -0.678599 0.095514 29.031782 -0.707110 0.000000 -0.707104 0.607728 0.162232 1 0 1.000000
  0 -0.678599 0.095514 29.785723 -0.707115 0.000000 0.707098 0.607728 0.172232 1 0 1.000000
quaddama
  0 1.349898 -8.162057 42.217751 0.706855 -0.682802 0.184765 0.647728 0.697232 1 0 1.000000
  0 1.213491 -5.177034 45.325073 0.717705 0.582750 -0.381186 0.690478 0.659482 1 0 1.000000
  0 1.349897 -6.250824 46.696602 0.695656 -0.600670 0.394028 0.672728 0.632232 1 0 1.000000
quaddama
  0 -0.692014 -0.604599 42.823383 -0.688850 0.376535 -0.619441 0.052728 0.277232 1 0 1.000000
  0 -0.631159 -0.086885 44.372875 -0.744008 -0.569691 0.349148 0.062728 0.252232 1 0 1.000000
  0 -0.692014 0.645819 43.990116 -0.672807 0.635509 -0.378761 0.052728 0.252232 1 0 1.000000
quaddama
  0 1.349897 6.217933 27.172562 0.687459 0.607238 -0.398324 0.847728 0.907232 1 0 1.000000
  0 1.213491 2.605772 27.086536 0.749381 -0.350828 0.561559 0.798478 0.915982 1 0 1.000000
  0 1.349897 3.357577 24.179893 0.669953 0.392230 -0.630332 0.807728 0.947232 1 0 1.000000
quaddama
  0 -0.692014 0.645819 47.305950 -0.671671 0.636674 0.378819 0.082728 0.217232 1 0 1.000000
  0 -0.631159 0.264019 45.606503 -0.745407 -0.666610 0.000599 0.067728 0.237232 1 0 1.000000
  0 -0.631159 -0.086885 46.840141 -0.745507 -0.568814 -0.347375 0.087728 0.227232 1 0 1.000000
quaddama
  0 -0.692014 0.645819 43.990116 -0.672807 0.635509 -0.378761 0.052728 0.252232 1 0 1.000000
  0 -0.631159 0.264019 45.606503 -0.745407 -0.666610 0.000599 0.067728 0.237232 1 0 1.000000
  0 -0.692014 1.077407 45.648026 -0.678374 0.734717 -0.000333 0.062728 0.232232 1 0 1.000000
quaddama
  0 -0.692013 -5.572958 45.668648 -0.785346 -0.613012 -0.086302 0.132728 0.297232 1 0 1.000000
  0 -0.631159 -4.529480 44.362457 -0.763093 0.585529 0.273577 0.112728 0.302232 1 0 1.000000
  0 -0.692013 -5.347579 44.038994 -0.666213 -0.672285 -0.322789 0.112728 0.307232 1 0 1.000000
quaddama
  0 -0.692014 -0.604599 48.472683 -0.678412 0.354739 0.643364 0.107728 0.217232 1 0 1.000000
  0 -0.631159 -0.086885 46.840141 -0.745507 -0.568814 -0.347375 0.087728 0.227232 1 0 1.000000
  0 -0.631159 -1.017306 47.708286 -0.741907 -0.318587 -0.589980 0.107728 0.227232 1 0 1.000000
quaddama
  0 -0.692013 -4.200261 42.823383 -0.681144 -0.399818 -0.613342 0.092728 0.312232 1 0 1.000000
  0 -0.631159 -4.529480 44.362457 -0.763093 0.585529 0.273577 0.112728 0.302232 1 0 1.000000
  0 -0.631159 -3.692786 43.504719 -0.734073 0.365696 0.572192 0.092728 0.302232 1 0 1.000000
quaddama
  0 1.349897 -6.250824 46.696602 0.695656 -0.600670 0.394028 0.672728 0.632232 1 0 1.000000
  0 1.213491 -2.860149 47.749142 0.740163 0.357020 -0.569821 0.721978 0.627982 1 0 1.000000
  0 1.349897 -3.390471 49.689274 0.677187 -0.389209 0.624447 0.712728 0.592232 1 0 1.000000
quaddama
  0 1.349897 8.129163 31.651421 0.699677 0.689995 -0.185361 0.872728 0.847232 1 0 1.000000
  0 1.213491 4.922662 29.510601 0.727061 -0.574695 0.375643 0.829978 0.879982 1 0 1.000000
  0 1.349897 6.217933 27.172562 0.687459 0.607238 -0.398324 0.847728 0.907232 1 0 1.000000
quaddama
  0 -0.692014 -2.448826 48.957119 -0.646177 0.194410 0.738011 0.132728 0.232232 1 0 1.000000
  0 -0.631159 -1.017306 47.708286 -0.741907 -0.318587 -0.589980 0.107728 0.227232 1 0 1.000000
  0 -0.631159 -2.397225 48.043232 -0.738156 -0.159130 -0.655594 0.127728 0.237232 1 0 1.000000
quaddama
  0 -0.692013 -4.200261 42.823383 -0.681144 -0.399818 -0.613342 0.092728 0.312232 1 0 1.000000
  0 -0.631159 -2.355046 43.029179 -0.762435 -0.000958 0.647064 0.072728 0.292232 1 0 1.000000
  0 -0.692014 -2.402428 42.184299 -0.661176 0.000434 -0.750230 0.067728 0.297232 1 0 1.000000
quaddama
  0 -0.692014 -0.604599 42.823383 -0.688850 0.376535 -0.619441 0.052728 0.277232 1 0 1.000000
  0 -0.631159 -2.355046 43.029179 -0.762435 -0.000958 0.647064 0.072728 0.292232 1 0 1.000000
  0 -0.631159 -1.017306 43.504719 -0.726582 -0.356891 0.587118 0.062728 0.272232 1 0 1.000000
quaddama
  0 1.349898 -8.833191 36.934578 0.708543 -0.705666 0.001316 0.637728 0.772232 1 0 1.000000
  0 1.213492 -6.725133 41.697208 0.705756 0.683891 -0.184936 0.667978 0.708982 1 0 1.000000
  0 1.349898 -8.162057 42.217751 0.706855 -0.682802 0.184765 0.647728 0.697232 1 0 1.000000
quaddama
  0 1.213490 6.470755 41.697208 0.710000 -0.679706 -0.184117 0.852478 0.708982 1 0 1.000000
  0 1.349896 8.800299 36.934578 0.705090 0.709118 0.001016 0.882728 0.772232 1 0 1.000000
  0 1.349896 8.129163 42.217751 0.703318 0.686133 0.185916 0.872728 0.697232 1 0 1.000000
quaddama
  0 1.349896 8.800299 36.934578 0.705090 0.709118 0.001016 0.882728 0.772232 1 0 1.000000
  0 1.213491 6.470755 33.138477 0.713187 -0.677143 0.181224 0.852478 0.830482 1 0 1.000000
  0 1.349897 8.129163 31.651421 0.699677 0.689995 -0.185361 0.872728 0.847232 1 0 1.000000
quaddama
  0 1.213492 -6.725133 33.138466 0.709689 0.680739 0.181482 0.667978 0.830482 1 0 1.000000
  0 1.349898 -8.833191 36.934578 0.708543 -0.705666 0.001316 0.637728 0.772232 1 0 1.000000
  0 1.349898 -8.162057 31.651409 0.702162 -0.687766 -0.184245 0.647728 0.842232 1 0 1.000000
quaddama
  0 1.213490 4.922662 45.325073 0.721197 -0.579209 -0.379988 0.829978 0.659482 1 0 1.000000
  0 1.349896 8.129163 42.217751 0.703318 0.686133 0.185916 0.872728 0.697232 1 0 1.000000
  0 1.349896 6.217933 46.696602 0.693149 0.602338 0.395895 0.847728 0.632232 1 0 1.000000
quaddama
  0 1.213492 -5.177042 29.510601 0.724775 0.577118 0.376344 0.690478 0.879982 1 0 1.000000
  0 1.349898 -8.162057 31.651409 0.702162 -0.687766 -0.184245 0.647728 0.842232 1 0 1.000000
  0 1.349898 -6.250834 27.172562 0.688824 -0.606404 -0.397236 0.672728 0.907232 1 0 1.000000
quaddama
  0 1.213490 2.605772 47.749142 0.742068 -0.354834 -0.568708 0.798478 0.627982 1 0 1.000000
  0 1.349896 6.217933 46.696602 0.693149 0.602338 0.395895 0.847728 0.632232 1 0 1.000000
  0 1.349896 3.357577 49.689274 0.676073 0.389166 0.625679 0.807728 0.592232 1 0 1.000000
quaddama
  0 1.213492 -2.860149 27.086536 0.748358 0.352023 0.562175 0.721978 0.915982 1 0 1.000000
  0 1.349898 -6.250834 27.172562 0.688824 -0.606404 -0.397236 0.672728 0.907232 1 0 1.000000
  0 1.349898 -3.390471 24.179893 0.670487 -0.392279 -0.629733 0.712728 0.947232 1 0 1.000000
quaddama
  0 1.213491 -0.127188 48.600361 0.755677 0.000659 -0.654944 0.762478 0.614482 1 0 1.000000
  0 1.349896 3.357577 49.689274 0.676073 0.389166 0.625679 0.807728 0.592232 1 0 1.000000
  0 1.349897 -0.016447 50.740162 0.665907 -0.000321 0.746035 0.762728 0.577232 1 0 1.000000
quaddama
  0 1.213492 -0.127188 26.235310 0.763552 0.000314 0.645747 0.757978 0.924982 1 0 1.000000
  0 1.349898 -3.390471 24.179893 0.670487 -0.392279 -0.629733 0.712728 0.947232 1 0 1.000000
  0 1.349898 -0.016447 23.128998 0.659739 -0.000158 -0.751494 0.757728 0.962232 1 0 1.000000
quaddama
  0 1.349897 -3.390471 49.689274 0.677187 -0.389209 0.624447 0.712728 0.592232 1 0 1.000000
  0 1.213491 -0.127188 48.600361 0.755677 0.000659 -0.654944 0.762478 0.614482 1 0 1.000000
  0 1.349897 -0.016447 50.740162 0.665907 -0.000321 0.746035 0.762728 0.577232 1 0 1.000000
quaddama
  0 1.349897 3.357577 24.179893 0.669953 0.392230 -0.630332 0.807728 0.947232 1 0 1.000000
  0 1.213492 -0.127188 26.235310 0.763552 0.000314 0.645747 0.757978 0.924982 1 0 1.000000
  0 1.349898 -0.016447 23.128998 0.659739 -0.000158 -0.751494 0.757728 0.962232 1 0 1.000000
quaddama
  0 1.213492 -6.725133 33.138466 0.709689 0.680739 0.181482 0.817728 0.062232 1 0 1.000000
  0 -1.220704 -5.177042 29.510601 -0.725215 0.576701 0.376138 0.877728 0.027232 1 0 1.000000
  0 -1.220704 -6.725133 33.138466 -0.710215 0.680215 0.181392 0.817728 0.027232 1 0 1.000000
quaddama
  0 1.349897 3.357577 24.179893 0.669953 0.392230 -0.630332 0.067728 0.082232 1 0 1.000000
  0 -1.354764 -0.016447 23.128998 -0.659503 -0.000146 -0.751702 0.022728 0.122232 1 0 1.000000
  0 -1.354764 3.357577 24.179893 -0.669701 0.392336 -0.630534 0.067728 0.122232 1 0 1.000000
quaddama
  0 1.213492 -5.177042 29.510601 0.724775 0.577118 0.376344 0.877728 0.062232 1 0 1.000000
  0 -1.220704 -2.860149 27.086536 -0.748705 0.351779 0.561865 0.932728 0.027232 1 0 1.000000
  0 -1.220704 -5.177042 29.510601 -0.725215 0.576701 0.376138 0.877728 0.027232 1 0 1.000000
quaddama
  0 1.349897 6.217933 27.172562 0.687459 0.607238 -0.398324 0.127728 0.082232 1 0 1.000000
  0 -1.354764 3.357577 24.179893 -0.669701 0.392336 -0.630534 0.067728 0.122232 1 0 1.000000
  0 -1.354765 6.217933 27.172562 -0.687151 0.607464 -0.398512 0.127728 0.122232 1 0 1.000000
quaddama
  0 1.349896 8.129163 42.217751 0.703318 0.686133 0.185916 0.332728 0.082232 1 0 1.000000
  0 -1.354765 8.800299 36.934578 -0.704664 0.709541 0.000995 0.262728 0.122232 1 0 1.000000
  0 -1.354765 8.129163 42.217751 -0.702878 0.686553 0.186030 0.332728 0.122232 1 0 1.000000
quaddama
  0 1.213492 -2.860149 27.086536 0.748358 0.352023 0.562175 0.932728 0.062232 1 0 1.000000
  0 -1.220704 -0.127188 26.235310 -0.763834 0.000309 0.645413 0.972728 0.027232 1 0 1.000000
  0 -1.220704 -2.860149 27.086536 -0.748705 0.351779 0.561865 0.932728 0.027232 1 0 1.000000
quaddama
  0 1.349897 8.129163 31.651421 0.699677 0.689995 -0.185361 0.187728 0.082232 1 0 1.000000
  0 -1.354765 6.217933 27.172562 -0.687151 0.607464 -0.398512 0.127728 0.122232 1 0 1.000000
  0 -1.354765 8.129163 31.651421 -0.699302 0.690341 -0.185489 0.187728 0.122232 1 0 1.000000
quaddama
  0 1.349896 6.217933 46.696602 0.693149 0.602338 0.395895 0.402728 0.082232 1 0 1.000000
  0 -1.354765 8.129163 42.217751 -0.702878 0.686553 0.186030 0.332728 0.122232 1 0 1.000000
  0 -1.354765 6.217933 46.696602 -0.692736 0.602659 0.396130 0.402728 0.122232 1 0 1.000000
quaddama
  0 -1.220704 -0.127188 26.235310 -0.763834 0.000309 0.645413 0.077728 0.027232 1 0 1.000000
  0 1.213491 2.605772 27.086536 0.749381 -0.350828 0.561559 0.117728 0.062232 1 0 1.000000
  0 -1.220704 2.605772 27.086536 -0.749718 -0.350596 0.561253 0.117728 0.027232 1 0 1.000000
quaddama
  0 1.349896 8.800299 36.934578 0.705090 0.709118 0.001016 0.262728 0.082232 1 0 1.000000
  0 -1.354765 8.129163 31.651421 -0.699302 0.690341 -0.185489 0.187728 0.122232 1 0 1.000000
  0 -1.354765 8.800299 36.934578 -0.704664 0.709541 0.000995 0.262728 0.122232 1 0 1.000000
quaddama
  0 1.349896 3.357577 49.689274 0.676073 0.389166 0.625679 0.452728 0.082232 1 0 1.000000
  0 -1.354765 6.217933 46.696602 -0.692736 0.602659 0.396130 0.402728 0.122232 1 0 1.000000
  0 -1.354765 3.357577 49.689274 -0.675709 0.389322 0.625975 0.452728 0.122232 1 0 1.000000
quaddama
  0 1.213491 2.605772 27.086536 0.749381 -0.350828 0.561559 0.117728 0.062232 1 0 1.000000
  0 -1.220705 4.922662 29.510601 -0.727451 -0.574324 0.375457 0.172728 0.027232 1 0 1.000000
  0 -1.220704 2.605772 27.086536 -0.749718 -0.350596 0.561253 0.117728 0.027232 1 0 1.000000
quaddama
  0 1.213490 7.014374 37.417835 0.707823 -0.706389 -0.001302 0.302728 0.062232 1 0 1.000000
  0 -1.220705 6.470755 41.697208 -0.710520 -0.679200 -0.183984 0.367728 0.027232 1 0 1.000000
  0 -1.220705 7.014374 37.417835 -0.708326 -0.705884 -0.001282 0.302728 0.027232 1 0 1.000000
quaddama
  0 1.349897 -0.016447 50.740162 0.665907 -0.000321 0.746035 0.502728 0.082232 1 0 1.000000
  0 -1.354765 3.357577 49.689274 -0.675709 0.389322 0.625975 0.452728 0.122232 1 0 1.000000
  0 -1.354765 -0.016447 50.740162 -0.665568 -0.000324 0.746338 0.502728 0.122232 1 0 1.000000
quaddama
  0 1.213491 4.922662 29.510601 0.727061 -0.574695 0.375643 0.172728 0.062232 1 0 1.000000
  0 -1.220705 6.470755 33.138477 -0.713645 -0.676682 0.181138 0.232728 0.027232 1 0 1.000000
  0 -1.220705 4.922662 29.510601 -0.727451 -0.574324 0.375457 0.172728 0.027232 1 0 1.000000
quaddama
  0 1.213490 6.470755 41.697208 0.710000 -0.679706 -0.184117 0.367728 0.062232 1 0 1.000000
  0 -1.220705 4.922662 45.325073 -0.721700 -0.578758 -0.379722 0.427728 0.027232 1 0 1.000000
  0 -1.220705 6.470755 41.697208 -0.710520 -0.679200 -0.183984 0.367728 0.027232 1 0 1.000000
quaddama
  0 1.349897 -3.390471 49.689274 0.677187 -0.389209 0.624447 0.552728 0.082232 1 0 1.000000
  0 -1.354765 -0.016447 50.740162 -0.665568 -0.000324 0.746338 0.502728 0.122232 1 0 1.000000
  0 -1.354765 -3.390471 49.689274 -0.676814 -0.389368 0.624752 0.552728 0.122232 1 0 1.000000
quaddama
  0 1.213491 6.470755 33.138477 0.713187 -0.677143 0.181224 0.232728 0.062232 1 0 1.000000
  0 -1.220705 7.014374 37.417835 -0.708326 -0.705884 -0.001282 0.302728 0.027232 1 0 1.000000
  0 -1.220705 6.470755 33.138477 -0.713645 -0.676682 0.181138 0.232728 0.027232 1 0 1.000000
quaddama
  0 1.213490 4.922662 45.325073 0.721197 -0.579209 -0.379988 0.427728 0.062232 1 0 1.000000
  0 -1.220705 2.605772 47.749142 -0.742526 -0.354544 -0.568290 0.482728 0.027232 1 0 1.000000
  0 -1.220705 4.922662 45.325073 -0.721700 -0.578758 -0.379722 0.427728 0.027232 1 0 1.000000
quaddama
  0 1.349897 -6.250824 46.696602 0.695656 -0.600670 0.394028 0.602728 0.082232 1 0 1.000000
  0 -1.354765 -3.390471 49.689274 -0.676814 -0.389368 0.624752 0.552728 0.122232 1 0 1.000000
  0 -1.354764 -6.250824 46.696602 -0.695206 -0.601017 0.394293 0.602728 0.122232 1 0 1.000000
quaddama
  0 1.213490 2.605772 47.749142 0.742068 -0.354834 -0.568708 0.482728 0.062232 1 0 1.000000
  0 -1.220705 -0.127188 48.600361 -0.756114 0.000639 -0.654440 0.522728 0.027232 1 0 1.000000
  0 -1.220705 2.605772 47.749142 -0.742526 -0.354544 -0.568290 0.482728 0.027232 1 0 1.000000
quaddama
  0 -1.354764 -8.162057 42.217751 -0.706368 -0.683269 0.184899 0.672728 0.122232 1 0 1.000000
  0 1.349897 -6.250824 46.696602 0.695656 -0.600670 0.394028 0.602728 0.082232 1 0 1.000000
  0 -1.354764 -6.250824 46.696602 -0.695206 -0.601017 0.394293 0.602728 0.122232 1 0 1.000000
quaddama
  0 1.213491 -0.127188 48.600361 0.755677 0.000659 -0.654944 0.522728 0.062232 1 0 1.000000
  0 -1.220705 -2.860149 47.749142 -0.740649 0.356688 -0.569397 0.567728 0.027232 1 0 1.000000
  0 -1.220705 -0.127188 48.600361 -0.756114 0.000639 -0.654440 0.522728 0.027232 1 0 1.000000
quaddama
  0 1.349898 -8.833191 36.934578 0.708543 -0.705666 0.001316 0.742728 0.082232 1 0 1.000000
  0 -1.354764 -8.162057 42.217751 -0.706368 -0.683269 0.184899 0.672728 0.122232 1 0 1.000000
  0 -1.354764 -8.833191 36.934578 -0.708061 -0.706150 0.001296 0.742728 0.122232 1 0 1.000000
quaddama
  0 1.213491 -2.860149 47.749142 0.740163 0.357020 -0.569821 0.567728 0.062232 1 0 1.000000
  0 -1.220704 -5.177034 45.325073 -0.718260 0.582247 -0.380908 0.622728 0.027232 1 0 1.000000
  0 -1.220705 -2.860149 47.749142 -0.740649 0.356688 -0.569397 0.567728 0.027232 1 0 1.000000
quaddama
  0 1.349898 -8.162057 31.651409 0.702162 -0.687766 -0.184245 0.817728 0.082232 1 0 1.000000
  0 -1.354764 -8.833191 36.934578 -0.708061 -0.706150 0.001296 0.742728 0.122232 1 0 1.000000
  0 -1.354763 -8.162057 31.651409 -0.701741 -0.688157 -0.184389 0.817728 0.122232 1 0 1.000000
quaddama
  0 1.213491 -5.177034 45.325073 0.717705 0.582750 -0.381186 0.622728 0.062232 1 0 1.000000
  0 -1.220704 -6.725133 41.697208 -0.706346 0.683321 -0.184790 0.682728 0.027232 1 0 1.000000
  0 -1.220704 -5.177034 45.325073 -0.718260 0.582247 -0.380908 0.622728 0.027232 1 0 1.000000
quaddama
  0 1.349898 -6.250834 27.172562 0.688824 -0.606404 -0.397236 0.877728 0.082232 1 0 1.000000
  0 -1.354763 -8.162057 31.651409 -0.701741 -0.688157 -0.184389 0.817728 0.122232 1 0 1.000000
  0 -1.354763 -6.250834 27.172562 -0.688483 -0.606652 -0.397447 0.877728 0.122232 1 0 1.000000
quaddama
  0 1.213492 -6.725133 41.697208 0.705756 0.683891 -0.184936 0.682728 0.062232 1 0 1.000000
  0 -1.220704 -7.268752 37.417835 -0.704178 0.710021 -0.001649 0.747728 0.027232 1 0 1.000000
  0 -1.220704 -6.725133 41.697208 -0.706346 0.683321 -0.184790 0.682728 0.027232 1 0 1.000000
quaddama
  0 1.349898 -3.390471 24.179893 0.670487 -0.392279 -0.629733 0.937728 0.082232 1 0 1.000000
  0 -1.354763 -6.250834 27.172562 -0.688483 -0.606652 -0.397447 0.877728 0.122232 1 0 1.000000
  0 -1.354764 -3.390471 24.179893 -0.670216 -0.392381 -0.629958 0.937728 0.122232 1 0 1.000000
quaddama
  0 1.213492 -7.268752 37.417835 0.703600 0.710595 -0.001678 0.747728 0.062232 1 0 1.000000
  0 -1.220704 -6.725133 33.138466 -0.710215 0.680215 0.181392 0.817728 0.027232 1 0 1.000000
  0 -1.220704 -7.268752 37.417835 -0.704178 0.710021 -0.001649 0.747728 0.027232 1 0 1.000000
quaddama
  0 1.349898 -0.016447 23.128998 0.659739 -0.000158 -0.751494 0.982728 0.082232 1 0 1.000000
  0 -1.354764 -3.390471 24.179893 -0.670216 -0.392381 -0.629958 0.937728 0.122232 1 0 1.000000
  0 -1.354764 -0.016447 23.128998 -0.659503 -0.000146 -0.751702 0.982728 0.122232 1 0 1.000000
quaddama
  0 0.585939 -0.086885 44.372875 0.744008 -0.569695 0.349140 0.292728 0.307232 1 0 1.000000
  0 0.646794 -0.604599 42.823383 0.688862 0.376528 -0.619431 0.287728 0.282232 1 0 1.000000
  0 0.646794 0.645819 43.990116 0.672807 0.635504 -0.378769 0.282728 0.307232 1 0 1.000000
quaddama
  0 0.646794 0.645819 47.305950 0.671671 0.636679 0.378811 0.317728 0.342232 1 0 1.000000
  0 0.585939 0.264019 45.606503 0.745424 -0.666591 0.000599 0.302728 0.322232 1 0 1.000000
  0 0.646794 1.077407 45.648026 0.678374 0.734717 -0.000341 0.297728 0.327232 1 0 1.000000
quaddama
  0 0.585939 0.264019 45.606503 0.745424 -0.666591 0.000599 0.302728 0.322232 1 0 1.000000
  0 0.646794 0.645819 43.990116 0.672807 0.635504 -0.378769 0.282728 0.307232 1 0 1.000000
  0 0.646794 1.077407 45.648026 0.678374 0.734717 -0.000341 0.297728 0.327232 1 0 1.000000
quaddama
  0 0.585939 -4.529480 44.362457 0.763089 0.585530 0.273587 0.342728 0.257232 1 0 1.000000
  0 0.646794 -5.572958 45.668648 0.785360 -0.612994 -0.086299 0.362728 0.262232 1 0 1.000000
  0 0.646794 -5.347579 44.038994 0.666213 -0.672290 -0.322780 0.347728 0.252232 1 0 1.000000
quaddama
  0 0.646794 -0.604599 48.472683 0.678400 0.354746 0.643373 0.342728 0.342232 1 0 1.000000
  0 0.585939 -0.086885 46.840141 0.745490 -0.568830 -0.347385 0.317728 0.332232 1 0 1.000000
  0 0.646794 0.645819 47.305950 0.671671 0.636679 0.378811 0.317728 0.342232 1 0 1.000000
quaddama
  0 0.646794 -4.200261 42.823383 0.681140 -0.399825 -0.613341 0.322728 0.247232 1 0 1.000000
  0 0.585939 -4.529480 44.362457 0.763089 0.585530 0.273587 0.342728 0.257232 1 0 1.000000
  0 0.646794 -5.347579 44.038994 0.666213 -0.672290 -0.322780 0.347728 0.252232 1 0 1.000000
quaddama
  0 0.646794 -2.448826 48.957119 0.646186 0.194408 0.738004 0.362728 0.327232 1 0 1.000000
  0 0.585939 -1.017306 47.708286 0.741908 -0.318579 -0.589983 0.337728 0.332232 1 0 1.000000
  0 0.646794 -0.604599 48.472683 0.678400 0.354746 0.643373 0.342728 0.342232 1 0 1.000000
quaddama
  0 0.585939 -2.355046 43.029179 0.762420 -0.000958 0.647081 0.302728 0.267232 1 0 1.000000
  0 0.646794 -4.200261 42.823383 0.681140 -0.399825 -0.613341 0.322728 0.247232 1 0 1.000000
  0 0.646794 -2.402428 42.184299 0.661167 0.000434 -0.750238 0.297728 0.262232 1 0 1.000000
quaddama
  0 0.646794 -0.604599 42.823383 0.688862 0.376528 -0.619431 0.287728 0.282232 1 0 1.000000
  0 0.585939 -2.355046 43.029179 0.762420 -0.000958 0.647081 0.302728 0.267232 1 0 1.000000
  0 0.646794 -2.402428 42.184299 0.661167 0.000434 -0.750238 0.297728 0.262232 1 0 1.000000
quaddama
  0 0.646794 1.077407 45.648026 0.678374 0.734717 -0.000341 0.212728 0.167232 1 0 1.000000
  0 -0.692014 0.645819 43.990116 -0.672807 0.635509 -0.378761 0.192728 0.187232 1 0 1.000000
  0 -0.692014 1.077407 45.648026 -0.678374 0.734717 -0.000333 0.212728 0.187232 1 0 1.000000
quaddama
  0 0.646794 -5.347579 44.038994 0.666213 -0.672290 -0.322780 0.087728 0.167232 1 0 1.000000
  0 -0.692013 -5.572958 45.668648 -0.785346 -0.613012 -0.086302 0.067728 0.187232 1 0 1.000000
  0 -0.692013 -5.347579 44.038994 -0.666213 -0.672285 -0.322789 0.087728 0.187232 1 0 1.000000
quaddama
  0 -0.631159 0.264019 45.606503 -0.745407 -0.666610 0.000599 0.477728 0.152232 1 0 1.000000
  0 0.585939 -0.086885 46.840141 0.745490 -0.568830 -0.347385 0.497728 0.172232 1 0 1.000000
  0 -0.631159 -0.086885 46.840141 -0.745507 -0.568814 -0.347375 0.497728 0.152232 1 0 1.000000
quaddama
  0 0.646794 -4.200261 42.823383 0.681140 -0.399825 -0.613341 0.112728 0.167232 1 0 1.000000
  0 -0.692013 -5.347579 44.038994 -0.666213 -0.672285 -0.322789 0.087728 0.187232 1 0 1.000000
  0 -0.692013 -4.200261 42.823383 -0.681144 -0.399818 -0.613342 0.112728 0.187232 1 0 1.000000
quaddama
  0 0.585939 -2.355046 43.029179 0.762420 -0.000958 0.647081 0.412728 0.172232 1 0 1.000000
  0 -0.631159 -1.017306 43.504719 -0.726582 -0.356891 0.587118 0.437728 0.152232 1 0 1.000000
  0 -0.631159 -2.355046 43.029179 -0.762435 -0.000958 0.647064 0.412728 0.152232 1 0 1.000000
quaddama
  0 -0.631159 -3.692786 43.504719 -0.734073 0.365696 0.572192 0.392728 0.152232 1 0 1.000000
  0 0.585939 -2.355046 43.029179 0.762420 -0.000958 0.647081 0.412728 0.172232 1 0 1.000000
  0 -0.631159 -2.355046 43.029179 -0.762435 -0.000958 0.647064 0.412728 0.152232 1 0 1.000000
quaddama
  0 0.585939 -0.086885 46.840141 0.745490 -0.568830 -0.347385 0.497728 0.172232 1 0 1.000000
  0 -0.631159 -1.017306 47.708286 -0.741907 -0.318587 -0.589980 0.517728 0.152232 1 0 1.000000
  0 -0.631159 -0.086885 46.840141 -0.745507 -0.568814 -0.347375 0.497728 0.152232 1 0 1.000000
quaddama
  0 0.585939 -0.086885 44.372875 0.744008 -0.569695 0.349140 0.457728 0.172232 1 0 1.000000
  0 -0.631159 0.264019 45.606503 -0.745407 -0.666610 0.000599 0.477728 0.152232 1 0 1.000000
  0 -0.631159 -0.086885 44.372875 -0.744008 -0.569691 0.349148 0.457728 0.152232 1 0 1.000000
quaddama
  0 0.646794 0.645819 43.990116 0.672807 0.635504 -0.378769 0.192728 0.167232 1 0 1.000000
  0 -0.692014 -0.604599 42.823383 -0.688850 0.376535 -0.619441 0.167728 0.187232 1 0 1.000000
  0 -0.692014 0.645819 43.990116 -0.672807 0.635509 -0.378761 0.192728 0.187232 1 0 1.000000
quaddama
  0 0.646794 0.645819 47.305950 0.671671 0.636679 0.378811 0.237728 0.167232 1 0 1.000000
  0 -0.692014 1.077407 45.648026 -0.678374 0.734717 -0.000333 0.212728 0.187232 1 0 1.000000
  0 -0.692014 0.645819 47.305950 -0.671671 0.636674 0.378819 0.237728 0.187232 1 0 1.000000
quaddama
  0 0.646794 -2.402428 42.184299 0.661167 0.000434 -0.750238 0.137728 0.167232 1 0 1.000000
  0 -0.692013 -4.200261 42.823383 -0.681144 -0.399818 -0.613342 0.112728 0.187232 1 0 1.000000
  0 -0.692014 -2.402428 42.184299 -0.661176 0.000434 -0.750230 0.137728 0.187232 1 0 1.000000
quaddama
  0 0.646794 -0.604599 48.472683 0.678400 0.354746 0.643373 0.262728 0.167232 1 0 1.000000
  0 -0.692014 0.645819 47.305950 -0.671671 0.636674 0.378819 0.237728 0.187232 1 0 1.000000
  0 -0.692014 -0.604599 48.472683 -0.678412 0.354739 0.643364 0.262728 0.187232 1 0 1.000000
quaddama
  0 -0.692014 -0.604599 42.823383 -0.688850 0.376535 -0.619441 0.167728 0.187232 1 0 1.000000
  0 0.646794 -2.402428 42.184299 0.661167 0.000434 -0.750238 0.137728 0.167232 1 0 1.000000
  0 -0.692014 -2.402428 42.184299 -0.661176 0.000434 -0.750230 0.137728 0.187232 1 0 1.000000
quaddama
  0 0.585939 -1.017306 47.708286 0.741908 -0.318579 -0.589983 0.517728 0.172232 1 0 1.000000
  0 -0.631159 -2.397225 48.043232 -0.738156 -0.159130 -0.655594 0.537728 0.152232 1 0 1.000000
  0 -0.631159 -1.017306 47.708286 -0.741907 -0.318587 -0.589980 0.517728 0.152232 1 0 1.000000
quaddama
  0 -0.692014 -2.448826 48.957119 -0.646177 0.194410 0.738011 0.287728 0.187232 1 0 1.000000
  0 0.646794 -0.604599 48.472683 0.678400 0.354746 0.643373 0.262728 0.167232 1 0 1.000000
  0 -0.692014 -0.604599 48.472683 -0.678412 0.354739 0.643364 0.262728 0.187232 1 0 1.000000
quaddama
  0 0.585939 -4.692925 46.047031 0.605569 0.792074 0.076851 0.347728 0.172232 1 0 1.000000
  0 -0.631159 -4.529480 44.362457 -0.763093 0.585529 0.273577 0.372728 0.152232 1 0 1.000000
  0 -0.631159 -4.692925 46.047031 -0.605578 0.792066 0.076850 0.347728 0.152232 1 0 1.000000
quaddama
  0 0.585939 -1.017306 43.504719 0.726580 -0.356898 0.587116 0.437728 0.172232 1 0 1.000000
  0 -0.631159 -0.086885 44.372875 -0.744008 -0.569691 0.349148 0.457728 0.152232 1 0 1.000000
  0 -0.631159 -1.017306 43.504719 -0.726582 -0.356891 0.587118 0.437728 0.152232 1 0 1.000000
quaddama
  0 0.585939 -4.529480 44.362457 0.763089 0.585530 0.273587 0.372728 0.172232 1 0 1.000000
  0 -0.631159 -3.692786 43.504719 -0.734073 0.365696 0.572192 0.392728 0.152232 1 0 1.000000
  0 -0.631159 -4.529480 44.362457 -0.763093 0.585529 0.273577 0.372728 0.152232 1 0 1.000000
quaddama
  0 0.673732 0.095514 29.031782 0.707118 0.000000 -0.707095 0.607728 0.202232 1 0 1.000000
  0 0.673732 6.736426 29.785723 0.707118 0.000000 0.707095 0.702728 0.192232 1 0 1.000000
  0 0.673732 0.095514 29.785723 0.707107 0.000000 0.707107 0.607728 0.192232 1 0 1.000000
quaddama
  0 -0.678599 6.736426 29.031782 -0.707115 0.000000 -0.707098 0.702728 0.222232 1 0 1.000000
  0 0.673732 0.095514 29.031782 0.707118 0.000000 -0.707095 0.607728 0.202232 1 0 1.000000
  0 -0.678599 0.095514 29.031782 -0.707110 0.000000 -0.707104 0.607728 0.222232 1 0 1.000000
quaddama
  0 -0.678599 0.095514 29.785723 -0.707115 0.000000 0.707098 0.607728 0.172232 1 0 1.000000
  0 0.673732 6.736426 29.785723 0.707118 0.000000 0.707095 0.702728 0.192232 1 0 1.000000
  0 -0.678599 6.736426 29.785723 -0.707110 0.000000 0.707104 0.702728 0.172232 1 0 1.000000
quaddama
  0 3.046554 -0.879291 24.300179 0.863427 -0.342772 0.370136 0.567728 0.542232 1 0 1.000000
  0 3.046554 -0.879291 22.068787 0.874767 -0.371849 -0.310663 0.567728 0.562232 1 0 1.000000
  0 3.046554 0.948524 24.300179 0.863346 0.342791 0.370308 0.587728 0.542232 1 0 1.000000
quaddama
  0 3.046554 0.948524 24.300179 0.863346 0.342791 0.370308 0.587728 0.542232 1 0 1.000000
  0 3.046554 -0.879291 22.068787 0.874767 -0.371849 -0.310663 0.567728 0.562232 1 0 1.000000
  0 3.046554 0.948524 22.068787 0.874719 0.371875 -0.310766 0.587728 0.562232 1 0 1.000000
quaddama
  0 3.046554 -0.879291 22.068787 0.874767 -0.371849 -0.310663 0.567728 0.562232 1 0 1.000000
  0 3.046554 -0.879291 24.300179 0.863427 -0.342772 0.370136 0.567728 0.542232 1 0 1.000000
  0 0.001433 -12.574028 23.182793 0.000000 -1.000000 -0.000143 0.397728 0.552232 1 0 1.000000
quaddama
  0 3.046554 -0.879291 24.300179 0.863427 -0.342772 0.370136 0.567728 0.542232 1 0 1.000000
  0 3.046554 0.948524 24.300179 0.863346 0.342791 0.370308 0.587728 0.542232 1 0 1.000000
  0 0.001433 0.030730 33.672832 0.000000 -0.000409 1.000000 0.577728 0.402232 1 0 1.000000
quaddama
  0 3.046554 0.948524 22.068787 0.874719 0.371875 -0.310766 0.587728 0.562232 1 0 1.000000
  0 0.001433 12.641610 23.182793 0.000000 1.000000 -0.000142 0.757728 0.552232 1 0 1.000000
  0 3.046554 0.948524 24.300179 0.863346 0.342791 0.370308 0.587728 0.542232 1 0 1.000000
quaddama
  0 0.001433 0.030730 1.831201 0.000000 -0.000195 -1.000000 0.577728 0.852232 1 0 1.000000
  0 3.046554 0.948524 22.068787 0.874719 0.371875 -0.310766 0.587728 0.562232 1 0 1.000000
  0 3.046554 -0.879291 22.068787 0.874767 -0.371849 -0.310663 0.567728 0.562232 1 0 1.000000
quaddama
  0 -3.043688 -0.879291 22.068787 -0.874767 -0.371849 -0.310663 0.107728 0.592232 1 0 1.000000
  0 0.001433 0.030730 1.831201 0.000000 -0.000195 -1.000000 0.162728 0.877232 1 0 1.000000
  0 3.046554 -0.879291 22.068787 0.874767 -0.371849 -0.310663 0.162728 0.587232 1 0 1.000000
quaddama
  0 0.001433 -12.574028 23.182793 0.000000 -1.000000 -0.000143 0.117728 0.422232 1 0 1.000000
  0 -3.043688 -0.879291 22.068787 -0.874767 -0.371849 -0.310663 0.107728 0.592232 1 0 1.000000
  0 3.046554 -0.879291 22.068787 0.874767 -0.371849 -0.310663 0.162728 0.587232 1 0 1.000000
quaddama
  0 0.001433 0.030730 1.831201 0.000000 -0.000195 -1.000000 0.347728 0.937232 1 0 1.000000
  0 -3.043688 0.948524 22.068787 -0.874719 0.371875 -0.310766 0.347728 0.652232 1 0 1.000000
  0 3.046554 0.948524 22.068787 0.874719 0.371875 -0.310766 0.287728 0.657232 1 0 1.000000
quaddama
  0 -3.043688 0.948524 22.068787 -0.874719 0.371875 -0.310766 0.347728 0.652232 1 0 1.000000
  0 0.001433 12.641610 23.182793 0.000000 1.000000 -0.000142 0.302728 0.487232 1 0 1.000000
  0 3.046554 0.948524 22.068787 0.874719 0.371875 -0.310766 0.287728 0.657232 1 0 1.000000
quaddama
  0 0.001433 12.641610 23.182793 0.000000 1.000000 -0.000142 0.967728 0.852232 1 0 1.000000
  0 -3.043688 0.948524 24.300179 -0.863346 0.342791 0.370308 0.967728 0.682232 1 0 1.000000
  0 3.046554 0.948524 24.300179 0.863346 0.342791 0.370308 0.907728 0.692232 1 0 1.000000
quaddama
  0 0.001433 -12.574028 23.182793 0.000000 -1.000000 -0.000143 0.507728 0.517232 1 0 1.000000
  0 3.046554 -0.879291 24.300179 0.863427 -0.342772 0.370136 0.507728 0.347232 1 0 1.000000
  0 -3.043688 -0.879291 24.300179 -0.863427 -0.342772 0.370136 0.452728 0.357232 1 0 1.000000
quaddama
  0 0.001433 0.030730 33.672832 0.000000 -0.000409 1.000000 0.457728 0.217232 1 0 1.000000
  0 -3.043688 -0.879291 24.300179 -0.863427 -0.342772 0.370136 0.452728 0.357232 1 0 1.000000
  0 3.046554 -0.879291 24.300179 0.863427 -0.342772 0.370136 0.507728 0.347232 1 0 1.000000
quaddama
  0 -3.043688 0.948524 24.300179 -0.863346 0.342791 0.370308 0.967728 0.682232 1 0 1.000000
  0 0.001433 0.030730 33.672832 0.000000 -0.000409 1.000000 0.917728 0.552232 1 0 1.000000
  0 3.046554 0.948524 24.300179 0.863346 0.342791 0.370308 0.907728 0.692232 1 0 1.000000
quaddama
  0 -1.354764 -6.250824 46.696602 -0.695206 -0.601017 0.394293 0.922728 0.227232 1 0 1.000000
  0 -1.354765 -3.390471 49.689274 -0.676814 -0.389368 0.624752 0.882728 0.182232 1 0 1.000000
  0 -1.220705 -2.860149 47.749142 -0.740649 0.356688 -0.569397 0.873478 0.217982 1 0 1.000000
quaddama
  0 -1.354765 6.217933 27.172562 -0.687151 0.607464 -0.398512 0.747728 0.497232 1 0 1.000000
  0 -1.354764 3.357577 24.179893 -0.669701 0.392336 -0.630534 0.782728 0.537232 1 0 1.000000
  0 -1.220704 2.605772 27.086536 -0.749718 -0.350596 0.561253 0.792478 0.505982 1 0 1.000000
quaddama
  0 -1.354764 -8.162057 42.217751 -0.706368 -0.683269 0.184899 0.947728 0.287232 1 0 1.000000
  0 -1.354764 -6.250824 46.696602 -0.695206 -0.601017 0.394293 0.922728 0.227232 1 0 1.000000
  0 -1.220704 -5.177034 45.325073 -0.718260 0.582247 -0.380908 0.904978 0.249482 1 0 1.000000
quaddama
  0 -1.354765 8.129163 31.651421 -0.699302 0.690341 -0.185489 0.717728 0.432232 1 0 1.000000
  0 -1.354765 6.217933 27.172562 -0.687151 0.607464 -0.398512 0.747728 0.497232 1 0 1.000000
  0 -1.220705 4.922662 29.510601 -0.727451 -0.574324 0.375457 0.760978 0.469982 1 0 1.000000
quaddama
  0 -1.354764 -8.833191 36.934578 -0.708061 -0.706150 0.001296 0.957728 0.362232 1 0 1.000000
  0 -1.354764 -8.162057 42.217751 -0.706368 -0.683269 0.184899 0.947728 0.287232 1 0 1.000000
  0 -1.220704 -6.725133 41.697208 -0.706346 0.683321 -0.184790 0.927478 0.303482 1 0 1.000000
quaddama
  0 -1.354765 8.800299 36.934578 -0.704664 0.709541 0.000995 0.712728 0.357232 1 0 1.000000
  0 -1.220705 7.014374 37.417835 -0.708326 -0.705884 -0.001282 0.733978 0.357482 1 0 1.000000
  0 -1.220705 6.470755 41.697208 -0.710520 -0.679200 -0.183984 0.742978 0.298982 1 0 1.000000
quaddama
  0 -1.354765 8.800299 36.934578 -0.704664 0.709541 0.000995 0.712728 0.357232 1 0 1.000000
  0 -1.354765 8.129163 31.651421 -0.699302 0.690341 -0.185489 0.717728 0.432232 1 0 1.000000
  0 -1.220705 6.470755 33.138477 -0.713645 -0.676682 0.181138 0.742978 0.420482 1 0 1.000000
quaddama
  0 -1.354764 -8.833191 36.934578 -0.708061 -0.706150 0.001296 0.957728 0.362232 1 0 1.000000
  0 -1.220704 -7.268752 37.417835 -0.704178 0.710021 -0.001649 0.936478 0.361982 1 0 1.000000
  0 -1.220704 -6.725133 33.138466 -0.710215 0.680215 0.181392 0.927478 0.420482 1 0 1.000000
quaddama
  0 -1.354765 8.129163 42.217751 -0.702878 0.686553 0.186030 0.722728 0.287232 1 0 1.000000
  0 -1.220705 6.470755 41.697208 -0.710520 -0.679200 -0.183984 0.742978 0.298982 1 0 1.000000
  0 -1.220705 4.922662 45.325073 -0.721700 -0.578758 -0.379722 0.765478 0.249482 1 0 1.000000
quaddama
  0 -1.354763 -8.162057 31.651409 -0.701741 -0.688157 -0.184389 0.947728 0.437232 1 0 1.000000
  0 -1.220704 -6.725133 33.138466 -0.710215 0.680215 0.181392 0.927478 0.420482 1 0 1.000000
  0 -1.220704 -5.177042 29.510601 -0.725215 0.576701 0.376138 0.904978 0.469982 1 0 1.000000
quaddama
  0 -1.354765 6.217933 46.696602 -0.692736 0.602659 0.396130 0.747728 0.222232 1 0 1.000000
  0 -1.220705 4.922662 45.325073 -0.721700 -0.578758 -0.379722 0.765478 0.249482 1 0 1.000000
  0 -1.220705 2.605772 47.749142 -0.742526 -0.354544 -0.568290 0.796978 0.213482 1 0 1.000000
quaddama
  0 -1.354763 -6.250834 27.172562 -0.688483 -0.606652 -0.397447 0.917728 0.497232 1 0 1.000000
  0 -1.220704 -5.177042 29.510601 -0.725215 0.576701 0.376138 0.904978 0.469982 1 0 1.000000
  0 -1.220704 -2.860149 27.086536 -0.748705 0.351779 0.561865 0.868978 0.505982 1 0 1.000000
quaddama
  0 -1.354765 3.357577 49.689274 -0.675709 0.389322 0.625975 0.787728 0.182232 1 0 1.000000
  0 -1.220705 2.605772 47.749142 -0.742526 -0.354544 -0.568290 0.796978 0.213482 1 0 1.000000
  0 -1.220705 -0.127188 48.600361 -0.756114 0.000639 -0.654440 0.837478 0.204482 1 0 1.000000
quaddama
  0 -1.354764 -3.390471 24.179893 -0.670216 -0.392381 -0.629958 0.877728 0.537232 1 0 1.000000
  0 -1.220704 -2.860149 27.086536 -0.748705 0.351779 0.561865 0.868978 0.505982 1 0 1.000000
  0 -1.220704 -0.127188 26.235310 -0.763834 0.000309 0.645413 0.832978 0.514982 1 0 1.000000
quaddama
  0 -1.354765 -3.390471 49.689274 -0.676814 -0.389368 0.624752 0.882728 0.182232 1 0 1.000000
  0 -1.354765 -0.016447 50.740162 -0.665568 -0.000324 0.746338 0.837728 0.167232 1 0 1.000000
  0 -1.220705 -0.127188 48.600361 -0.756114 0.000639 -0.654440 0.837478 0.204482 1 0 1.000000
quaddama
  0 -1.354764 3.357577 24.179893 -0.669701 0.392336 -0.630534 0.782728 0.537232 1 0 1.000000
  0 -1.354764 -0.016447 23.128998 -0.659503 -0.000146 -0.751702 0.832728 0.552232 1 0 1.000000
  0 -1.220704 -0.127188 26.235310 -0.763834 0.000309 0.645413 0.832978 0.514982 1 0 1.000000
quaddama
  0 -0.678599 6.736426 29.785723 -0.707110 0.000000 0.707104 0.702728 0.172232 1 0 1.000000
  0 -0.678599 6.736426 29.031782 -0.707115 0.000000 -0.707098 0.702728 0.162232 1 0 1.000000
  0 -0.678599 0.095514 29.031782 -0.707110 0.000000 -0.707104 0.607728 0.162232 1 0 1.000000
quaddama
  0 1.349898 -8.162057 42.217751 0.706855 -0.682802 0.184765 0.647728 0.697232 1 0 1.000000
  0 1.213492 -6.725133 41.697208 0.705756 0.683891 -0.184936 0.667978 0.708982 1 0 1.000000
  0 1.213491 -5.177034 45.325073 0.717705 0.582750 -0.381186 0.690478 0.659482 1 0 1.000000
quaddama
  0 -0.692014 -0.604599 42.823383 -0.688850 0.376535 -0.619441 0.052728 0.277232 1 0 1.000000
  0 -0.631159 -1.017306 43.504719 -0.726582 -0.356891 0.587118 0.062728 0.272232 1 0 1.000000
  0 -0.631159 -0.086885 44.372875 -0.744008 -0.569691 0.349148 0.062728 0.252232 1 0 1.000000
quaddama
  0 1.349897 6.217933 27.172562 0.687459 0.607238 -0.398324 0.847728 0.907232 1 0 1.000000
  0 1.213491 4.922662 29.510601 0.727061 -0.574695 0.375643 0.829978 0.879982 1 0 1.000000
  0 1.213491 2.605772 27.086536 0.749381 -0.350828 0.561559 0.798478 0.915982 1 0 1.000000
quaddama
  0 -0.692014 0.645819 47.305950 -0.671671 0.636674 0.378819 0.082728 0.217232 1 0 1.000000
  0 -0.692014 1.077407 45.648026 -0.678374 0.734717 -0.000333 0.062728 0.232232 1 0 1.000000
  0 -0.631159 0.264019 45.606503 -0.745407 -0.666610 0.000599 0.067728 0.237232 1 0 1.000000
quaddama
  0 -0.692014 0.645819 43.990116 -0.672807 0.635509 -0.378761 0.052728 0.252232 1 0 1.000000
  0 -0.631159 -0.086885 44.372875 -0.744008 -0.569691 0.349148 0.062728 0.252232 1 0 1.000000
  0 -0.631159 0.264019 45.606503 -0.745407 -0.666610 0.000599 0.067728 0.237232 1 0 1.000000
quaddama
  0 -0.692013 -5.572958 45.668648 -0.785346 -0.613012 -0.086302 0.132728 0.297232 1 0 1.000000
  0 -0.631159 -4.692925 46.047031 -0.605578 0.792066 0.076850 0.132728 0.282232 1 0 1.000000
  0 -0.631159 -4.529480 44.362457 -0.763093 0.585529 0.273577 0.112728 0.302232 1 0 1.000000
quaddama
  0 -0.692014 -0.604599 48.472683 -0.678412 0.354739 0.643364 0.107728 0.217232 1 0 1.000000
  0 -0.692014 0.645819 47.305950 -0.671671 0.636674 0.378819 0.082728 0.217232 1 0 1.000000
  0 -0.631159 -0.086885 46.840141 -0.745507 -0.568814 -0.347375 0.087728 0.227232 1 0 1.000000
quaddama
  0 -0.692013 -4.200261 42.823383 -0.681144 -0.399818 -0.613342 0.092728 0.312232 1 0 1.000000
  0 -0.692013 -5.347579 44.038994 -0.666213 -0.672285 -0.322789 0.112728 0.307232 1 0 1.000000
  0 -0.631159 -4.529480 44.362457 -0.763093 0.585529 0.273577 0.112728 0.302232 1 0 1.000000
quaddama
  0 1.349897 -6.250824 46.696602 0.695656 -0.600670 0.394028 0.672728 0.632232 1 0 1.000000
  0 1.213491 -5.177034 45.325073 0.717705 0.582750 -0.381186 0.690478 0.659482 1 0 1.000000
  0 1.213491 -2.860149 47.749142 0.740163 0.357020 -0.569821 0.721978 0.627982 1 0 1.000000
quaddama
  0 1.349897 8.129163 31.651421 0.699677 0.689995 -0.185361 0.872728 0.847232 1 0 1.000000
  0 1.213491 6.470755 33.138477 0.713187 -0.677143 0.181224 0.852478 0.830482 1 0 1.000000
  0 1.213491 4.922662 29.510601 0.727061 -0.574695 0.375643 0.829978 0.879982 1 0 1.000000
quaddama
  0 -0.692014 -2.448826 48.957119 -0.646177 0.194410 0.738011 0.132728 0.232232 1 0 1.000000
  0 -0.692014 -0.604599 48.472683 -0.678412 0.354739 0.643364 0.107728 0.217232 1 0 1.000000
  0 -0.631159 -1.017306 47.708286 -0.741907 -0.318587 -0.589980 0.107728 0.227232 1 0 1.000000
quaddama
  0 -0.692013 -4.200261 42.823383 -0.681144 -0.399818 -0.613342 0.092728 0.312232 1 0 1.000000
  0 -0.631159 -3.692786 43.504719 -0.734073 0.365696 0.572192 0.092728 0.302232 1 0 1.000000
  0 -0.631159 -2.355046 43.029179 -0.762435 -0.000958 0.647064 0.072728 0.292232 1 0 1.000000
quaddama
  0 -0.692014 -0.604599 42.823383 -0.688850 0.376535 -0.619441 0.052728 0.277232 1 0 1.000000
  0 -0.692014 -2.402428 42.184299 -0.661176 0.000434 -0.750230 0.067728 0.297232 1 0 1.000000
  0 -0.631159 -2.355046 43.029179 -0.762435 -0.000958 0.647064 0.072728 0.292232 1 0 1.000000
quaddama
  0 1.349898 -8.833191 36.934578 0.708543 -0.705666 0.001316 0.637728 0.772232 1 0 1.000000
  0 1.213492 -7.268752 37.417835 0.703600 0.710595 -0.001678 0.658978 0.771982 1 0 1.000000
  0 1.213492 -6.725133 41.697208 0.705756 0.683891 -0.184936 0.667978 0.708982 1 0 1.000000
quaddama
  0 1.213490 6.470755 41.697208 0.710000 -0.679706 -0.184117 0.852478 0.708982 1 0 1.000000
  0 1.213490 7.014374 37.417835 0.707823 -0.706389 -0.001302 0.861478 0.771982 1 0 1.000000
  0 1.349896 8.800299 36.934578 0.705090 0.709118 0.001016 0.882728 0.772232 1 0 1.000000
quaddama
  0 1.349896 8.800299 36.934578 0.705090 0.709118 0.001016 0.882728 0.772232 1 0 1.000000
  0 1.213490 7.014374 37.417835 0.707823 -0.706389 -0.001302 0.861478 0.771982 1 0 1.000000
  0 1.213491 6.470755 33.138477 0.713187 -0.677143 0.181224 0.852478 0.830482 1 0 1.000000
quaddama
  0 1.213492 -6.725133 33.138466 0.709689 0.680739 0.181482 0.667978 0.830482 1 0 1.000000
  0 1.213492 -7.268752 37.417835 0.703600 0.710595 -0.001678 0.658978 0.771982 1 0 1.000000
  0 1.349898 -8.833191 36.934578 0.708543 -0.705666 0.001316 0.637728 0.772232 1 0 1.000000
quaddama
  0 1.213490 4.922662 45.325073 0.721197 -0.579209 -0.379988 0.829978 0.659482 1 0 1.000000
  0 1.213490 6.470755 41.697208 0.710000 -0.679706 -0.184117 0.852478 0.708982 1 0 1.000000
  0 1.349896 8.129163 42.217751 0.703318 0.686133 0.185916 0.872728 0.697232 1 0 1.000000
quaddama
  0 1.213492 -5.177042 29.510601 0.724775 0.577118 0.376344 0.690478 0.879982 1 0 1.000000
  0 1.213492 -6.725133 33.138466 0.709689 0.680739 0.181482 0.667978 0.830482 1 0 1.000000
  0 1.349898 -8.162057 31.651409 0.702162 -0.687766 -0.184245 0.647728 0.842232 1 0 1.000000
quaddama
  0 1.213490 2.605772 47.749142 0.742068 -0.354834 -0.568708 0.798478 0.627982 1 0 1.000000
  0 1.213490 4.922662 45.325073 0.721197 -0.579209 -0.379988 0.829978 0.659482 1 0 1.000000
  0 1.349896 6.217933 46.696602 0.693149 0.602338 0.395895 0.847728 0.632232 1 0 1.000000
quaddama
  0 1.213492 -2.860149 27.086536 0.748358 0.352023 0.562175 0.721978 0.915982 1 0 1.000000
  0 1.213492 -5.177042 29.510601 0.724775 0.577118 0.376344 0.690478 0.879982 1 0 1.000000
  0 1.349898 -6.250834 27.172562 0.688824 -0.606404 -0.397236 0.672728 0.907232 1 0 1.000000
quaddama
  0 1.213491 -0.127188 48.600361 0.755677 0.000659 -0.654944 0.762478 0.614482 1 0 1.000000
  0 1.213490 2.605772 47.749142 0.742068 -0.354834 -0.568708 0.798478 0.627982 1 0 1.000000
  0 1.349896 3.357577 49.689274 0.676073 0.389166 0.625679 0.807728 0.592232 1 0 1.000000
quaddama
  0 1.213492 -0.127188 26.235310 0.763552 0.000314 0.645747 0.757978 0.924982 1 0 1.000000
  0 1.213492 -2.860149 27.086536 0.748358 0.352023 0.562175 0.721978 0.915982 1 0 1.000000
  0 1.349898 -3.390471 24.179893 0.670487 -0.392279 -0.629733 0.712728 0.947232 1 0 1.000000
quaddama
  0 1.349897 -3.390471 49.689274 0.677187 -0.389209 0.624447 0.712728 0.592232 1 0 1.000000
  0 1.213491 -2.860149 47.749142 0.740163 0.357020 -0.569821 0.721978 0.627982 1 0 1.000000
  0 1.213491 -0.127188 48.600361 0.755677 0.000659 -0.654944 0.762478 0.614482 1 0 1.000000
quaddama
  0 1.349897 3.357577 24.179893 0.669953 0.392230 -0.630332 0.807728 0.947232 1 0 1.000000
  0 1.213491 2.605772 27.086536 0.749381 -0.350828 0.561559 0.798478 0.915982 1 0 1.000000
  0 1.213492 -0.127188 26.235310 0.763552 0.000314 0.645747 0.757978 0.924982 1 0 1.000000
quaddama
  0 1.213492 -6.725133 33.138466 0.709689 0.680739 0.181482 0.817728 0.062232 1 0 1.000000
  0 1.213492 -5.177042 29.510601 0.724775 0.577118 0.376344 0.877728 0.062232 1 0 1.000000
  0 -1.220704 -5.177042 29.510601 -0.725215 0.576701 0.376138 0.877728 0.027232 1 0 1.000000
quaddama
  0 1.349897 3.357577 24.179893 0.669953 0.392230 -0.630332 0.067728 0.082232 1 0 1.000000
  0 1.349898 -0.016447 23.128998 0.659739 -0.000158 -0.751494 0.022728 0.082232 1 0 1.000000
  0 -1.354764 -0.016447 23.128998 -0.659503 -0.000146 -0.751702 0.022728 0.122232 1 0 1.000000
quaddama
  0 1.213492 -5.177042 29.510601 0.724775 0.577118 0.376344 0.877728 0.062232 1 0 1.000000
  0 1.213492 -2.860149 27.086536 0.748358 0.352023 0.562175 0.932728 0.062232 1 0 1.000000
  0 -1.220704 -2.860149 27.086536 -0.748705 0.351779 0.561865 0.932728 0.027232 1 0 1.000000
quaddama
  0 1.349897 6.217933 27.172562 0.687459 0.607238 -0.398324 0.127728 0.082232 1 0 1.000000
  0 1.349897 3.357577 24.179893 0.669953 0.392230 -0.630332 0.067728 0.082232 1 0 1.000000
  0 -1.354764 3.357577 24.179893 -0.669701 0.392336 -0.630534 0.067728 0.122232 1 0 1.000000
quaddama
  0 1.349896 8.129163 42.217751 0.703318 0.686133 0.185916 0.332728 0.082232 1 0 1.000000
  0 1.349896 8.800299 36.934578 0.705090 0.709118 0.001016 0.262728 0.082232 1 0 1.000000
  0 -1.354765 8.800299 36.934578 -0.704664 0.709541 0.000995 0.262728 0.122232 1 0 1.000000
quaddama
  0 1.213492 -2.860149 27.086536 0.748358 0.352023 0.562175 0.932728 0.062232 1 0 1.000000
  0 1.213492 -0.127188 26.235310 0.763552 0.000314 0.645747 0.972728 0.062232 1 0 1.000000
  0 -1.220704 -0.127188 26.235310 -0.763834 0.000309 0.645413 0.972728 0.027232 1 0 1.000000
quaddama
  0 1.349897 8.129163 31.651421 0.699677 0.689995 -0.185361 0.187728 0.082232 1 0 1.000000
  0 1.349897 6.217933 27.172562 0.687459 0.607238 -0.398324 0.127728 0.082232 1 0 1.000000
  0 -1.354765 6.217933 27.172562 -0.687151 0.607464 -0.398512 0.127728 0.122232 1 0 1.000000
quaddama
  0 1.349896 6.217933 46.696602 0.693149 0.602338 0.395895 0.402728 0.082232 1 0 1.000000
  0 1.349896 8.129163 42.217751 0.703318 0.686133 0.185916 0.332728 0.082232 1 0 1.000000
  0 -1.354765 8.129163 42.217751 -0.702878 0.686553 0.186030 0.332728 0.122232 1 0 1.000000
quaddama
  0 -1.220704 -0.127188 26.235310 -0.763834 0.000309 0.645413 0.077728 0.027232 1 0 1.000000
  0 1.213492 -0.127188 26.235310 0.763552 0.000314 0.645747 0.077728 0.062232 1 0 1.000000
  0 1.213491 2.605772 27.086536 0.749381 -0.350828 0.561559 0.117728 0.062232 1 0 1.000000
quaddama
  0 1.349896 8.800299 36.934578 0.705090 0.709118 0.001016 0.262728 0.082232 1 0 1.000000
  0 1.349897 8.129163 31.651421 0.699677 0.689995 -0.185361 0.187728 0.082232 1 0 1.000000
  0 -1.354765 8.129163 31.651421 -0.699302 0.690341 -0.185489 0.187728 0.122232 1 0 1.000000
quaddama
  0 1.349896 3.357577 49.689274 0.676073 0.389166 0.625679 0.452728 0.082232 1 0 1.000000
  0 1.349896 6.217933 46.696602 0.693149 0.602338 0.395895 0.402728 0.082232 1 0 1.000000
  0 -1.354765 6.217933 46.696602 -0.692736 0.602659 0.396130 0.402728 0.122232 1 0 1.000000
quaddama
  0 1.213491 2.605772 27.086536 0.749381 -0.350828 0.561559 0.117728 0.062232 1 0 1.000000
  0 1.213491 4.922662 29.510601 0.727061 -0.574695 0.375643 0.172728 0.062232 1 0 1.000000
  0 -1.220705 4.922662 29.510601 -0.727451 -0.574324 0.375457 0.172728 0.027232 1 0 1.000000
quaddama
  0 1.213490 7.014374 37.417835 0.707823 -0.706389 -0.001302 0.302728 0.062232 1 0 1.000000
  0 1.213490 6.470755 41.697208 0.710000 -0.679706 -0.184117 0.367728 0.062232 1 0 1.000000
  0 -1.220705 6.470755 41.697208 -0.710520 -0.679200 -0.183984 0.367728 0.027232 1 0 1.000000
quaddama
  0 1.349897 -0.016447 50.740162 0.665907 -0.000321 0.746035 0.502728 0.082232 1 0 1.000000
  0 1.349896 3.357577 49.689274 0.676073 0.389166 0.625679 0.452728 0.082232 1 0 1.000000
  0 -1.354765 3.357577 49.689274 -0.675709 0.389322 0.625975 0.452728 0.122232 1 0 1.000000
quaddama
  0 1.213491 4.922662 29.510601 0.727061 -0.574695 0.375643 0.172728 0.062232 1 0 1.000000
  0 1.213491 6.470755 33.138477 0.713187 -0.677143 0.181224 0.232728 0.062232 1 0 1.000000
  0 -1.220705 6.470755 33.138477 -0.713645 -0.676682 0.181138 0.232728 0.027232 1 0 1.000000
quaddama
  0 1.213490 6.470755 41.697208 0.710000 -0.679706 -0.184117 0.367728 0.062232 1 0 1.000000
  0 1.213490 4.922662 45.325073 0.721197 -0.579209 -0.379988 0.427728 0.062232 1 0 1.000000
  0 -1.220705 4.922662 45.325073 -0.721700 -0.578758 -0.379722 0.427728 0.027232 1 0 1.000000
quaddama
  0 1.349897 -3.390471 49.689274 0.677187 -0.389209 0.624447 0.552728 0.082232 1 0 1.000000
  0 1.349897 -0.016447 50.740162 0.665907 -0.000321 0.746035 0.502728 0.082232 1 0 1.000000
  0 -1.354765 -0.016447 50.740162 -0.665568 -0.000324 0.746338 0.502728 0.122232 1 0 1.000000
quaddama
  0 1.213491 6.470755 33.138477 0.713187 -0.677143 0.181224 0.232728 0.062232 1 0 1.000000
  0 1.213490 7.014374 37.417835 0.707823 -0.706389 -0.001302 0.302728 0.062232 1 0 1.000000
  0 -1.220705 7.014374 37.417835 -0.708326 -0.705884 -0.001282 0.302728 0.027232 1 0 1.000000
quaddama
  0 1.213490 4.922662 45.325073 0.721197 -0.579209 -0.379988 0.427728 0.062232 1 0 1.000000
  0 1.213490 2.605772 47.749142 0.742068 -0.354834 -0.568708 0.482728 0.062232 1 0 1.000000
  0 -1.220705 2.605772 47.749142 -0.742526 -0.354544 -0.568290 0.482728 0.027232 1 0 1.000000
quaddama
  0 1.349897 -6.250824 46.696602 0.695656 -0.600670 0.394028 0.602728 0.082232 1 0 1.000000
  0 1.349897 -3.390471 49.689274 0.677187 -0.389209 0.624447 0.552728 0.082232 1 0 1.000000
  0 -1.354765 -3.390471 49.689274 -0.676814 -0.389368 0.624752 0.552728 0.122232 1 0 1.000000
quaddama
  0 1.213490 2.605772 47.749142 0.742068 -0.354834 -0.568708 0.482728 0.062232 1 0 1.000000
  0 1.213491 -0.127188 48.600361 0.755677 0.000659 -0.654944 0.522728 0.062232 1 0 1.000000
  0 -1.220705 -0.127188 48.600361 -0.756114 0.000639 -0.654440 0.522728 0.027232 1 0 1.000000
quaddama
  0 -1.354764 -8.162057 42.217751 -0.706368 -0.683269 0.184899 0.672728 0.122232 1 0 1.000000
  0 1.349898 -8.162057 42.217751 0.706855 -0.682802 0.184765 0.672728 0.082232 1 0 1.000000
  0 1.349897 -6.250824 46.696602 0.695656 -0.600670 0.394028 0.602728 0.082232 1 0 1.000000
quaddama
  0 1.213491 -0.127188 48.600361 0.755677 0.000659 -0.654944 0.522728 0.062232 1 0 1.000000
  0 1.213491 -2.860149 47.749142 0.740163 0.357020 -0.569821 0.567728 0.062232 1 0 1.000000
  0 -1.220705 -2.860149 47.749142 -0.740649 0.356688 -0.569397 0.567728 0.027232 1 0 1.000000
quaddama
  0 1.349898 -8.833191 36.934578 0.708543 -0.705666 0.001316 0.742728 0.082232 1 0 1.000000
  0 1.349898 -8.162057 42.217751 0.706855 -0.682802 0.184765 0.672728 0.082232 1 0 1.000000
  0 -1.354764 -8.162057 42.217751 -0.706368 -0.683269 0.184899 0.672728 0.122232 1 0 1.000000
quaddama
  0 1.213491 -2.860149 47.749142 0.740163 0.357020 -0.569821 0.567728 0.062232 1 0 1.000000
  0 1.213491 -5.177034 45.325073 0.717705 0.582750 -0.381186 0.622728 0.062232 1 0 1.000000
  0 -1.220704 -5.177034 45.325073 -0.718260 0.582247 -0.380908 0.622728 0.027232 1 0 1.000000
quaddama
  0 1.349898 -8.162057 31.651409 0.702162 -0.687766 -0.184245 0.817728 0.082232 1 0 1.000000
  0 1.349898 -8.833191 36.934578 0.708543 -0.705666 0.001316 0.742728 0.082232 1 0 1.000000
  0 -1.354764 -8.833191 36.934578 -0.708061 -0.706150 0.001296 0.742728 0.122232 1 0 1.000000
quaddama
  0 1.213491 -5.177034 45.325073 0.717705 0.582750 -0.381186 0.622728 0.062232 1 0 1.000000
  0 1.213492 -6.725133 41.697208 0.705756 0.683891 -0.184936 0.682728 0.062232 1 0 1.000000
  0 -1.220704 -6.725133 41.697208 -0.706346 0.683321 -0.184790 0.682728 0.027232 1 0 1.000000
quaddama
  0 1.349898 -6.250834 27.172562 0.688824 -0.606404 -0.397236 0.877728 0.082232 1 0 1.000000
  0 1.349898 -8.162057 31.651409 0.702162 -0.687766 -0.184245 0.817728 0.082232 1 0 1.000000
  0 -1.354763 -8.162057 31.651409 -0.701741 -0.688157 -0.184389 0.817728 0.122232 1 0 1.000000
quaddama
  0 1.213492 -6.725133 41.697208 0.705756 0.683891 -0.184936 0.682728 0.062232 1 0 1.000000
  0 1.213492 -7.268752 37.417835 0.703600 0.710595 -0.001678 0.747728 0.062232 1 0 1.000000
  0 -1.220704 -7.268752 37.417835 -0.704178 0.710021 -0.001649 0.747728 0.027232 1 0 1.000000
quaddama
  0 1.349898 -3.390471 24.179893 0.670487 -0.392279 -0.629733 0.937728 0.082232 1 0 1.000000
  0 1.349898 -6.250834 27.172562 0.688824 -0.606404 -0.397236 0.877728 0.082232 1 0 1.000000
  0 -1.354763 -6.250834 27.172562 -0.688483 -0.606652 -0.397447 0.877728 0.122232 1 0 1.000000
quaddama
  0 1.213492 -7.268752 37.417835 0.703600 0.710595 -0.001678 0.747728 0.062232 1 0 1.000000
  0 1.213492 -6.725133 33.138466 0.709689 0.680739 0.181482 0.817728 0.062232 1 0 1.000000
  0 -1.220704 -6.725133 33.138466 -0.710215 0.680215 0.181392 0.817728 0.027232 1 0 1.000000
quaddama
  0 1.349898 -0.016447 23.128998 0.659739 -0.000158 -0.751494 0.982728 0.082232 1 0 1.000000
  0 1.349898 -3.390471 24.179893 0.670487 -0.392279 -0.629733 0.937728 0.082232 1 0 1.000000
  0 -1.354764 -3.390471 24.179893 -0.670216 -0.392381 -0.629958 0.937728 0.122232 1 0 1.000000
quaddama
  0 0.585939 -0.086885 44.372875 0.744008 -0.569695 0.349140 0.292728 0.307232 1 0 1.000000
  0 0.585939 -1.017306 43.504719 0.726580 -0.356898 0.587116 0.292728 0.287232 1 0 1.000000
  0 0.646794 -0.604599 42.823383 0.688862 0.376528 -0.619431 0.287728 0.282232 1 0 1.000000
quaddama
  0 0.646794 0.645819 47.305950 0.671671 0.636679 0.378811 0.317728 0.342232 1 0 1.000000
  0 0.585939 -0.086885 46.840141 0.745490 -0.568830 -0.347385 0.317728 0.332232 1 0 1.000000
  0 0.585939 0.264019 45.606503 0.745424 -0.666591 0.000599 0.302728 0.322232 1 0 1.000000
quaddama
  0 0.585939 0.264019 45.606503 0.745424 -0.666591 0.000599 0.302728 0.322232 1 0 1.000000
  0 0.585939 -0.086885 44.372875 0.744008 -0.569695 0.349140 0.292728 0.307232 1 0 1.000000
  0 0.646794 0.645819 43.990116 0.672807 0.635504 -0.378769 0.282728 0.307232 1 0 1.000000
quaddama
  0 0.585939 -4.529480 44.362457 0.763089 0.585530 0.273587 0.342728 0.257232 1 0 1.000000
  0 0.585939 -4.692925 46.047031 0.605569 0.792074 0.076851 0.362728 0.277232 1 0 1.000000
  0 0.646794 -5.572958 45.668648 0.785360 -0.612994 -0.086299 0.362728 0.262232 1 0 1.000000
quaddama
  0 0.646794 -0.604599 48.472683 0.678400 0.354746 0.643373 0.342728 0.342232 1 0 1.000000
  0 0.585939 -1.017306 47.708286 0.741908 -0.318579 -0.589983 0.337728 0.332232 1 0 1.000000
  0 0.585939 -0.086885 46.840141 0.745490 -0.568830 -0.347385 0.317728 0.332232 1 0 1.000000
quaddama
  0 0.646794 -4.200261 42.823383 0.681140 -0.399825 -0.613341 0.322728 0.247232 1 0 1.000000
  0 0.585939 -3.692786 43.504719 0.734089 0.365686 0.572177 0.322728 0.257232 1 0 1.000000
  0 0.585939 -4.529480 44.362457 0.763089 0.585530 0.273587 0.342728 0.257232 1 0 1.000000
quaddama
  0 0.646794 -2.448826 48.957119 0.646186 0.194408 0.738004 0.362728 0.327232 1 0 1.000000
  0 0.585939 -2.397225 48.043232 0.738172 -0.159126 -0.655577 0.357728 0.322232 1 0 1.000000
  0 0.585939 -1.017306 47.708286 0.741908 -0.318579 -0.589983 0.337728 0.332232 1 0 1.000000
quaddama
  0 0.585939 -2.355046 43.029179 0.762420 -0.000958 0.647081 0.302728 0.267232 1 0 1.000000
  0 0.585939 -3.692786 43.504719 0.734089 0.365686 0.572177 0.322728 0.257232 1 0 1.000000
  0 0.646794 -4.200261 42.823383 0.681140 -0.399825 -0.613341 0.322728 0.247232 1 0 1.000000
quaddama
  0 0.646794 -0.604599 42.823383 0.688862 0.376528 -0.619431 0.287728 0.282232 1 0 1.000000
  0 0.585939 -1.017306 43.504719 0.726580 -0.356898 0.587116 0.292728 0.287232 1 0 1.000000
  0 0.585939 -2.355046 43.029179 0.762420 -0.000958 0.647081 0.302728 0.267232 1 0 1.000000
quaddama
  0 0.646794 1.077407 45.648026 0.678374 0.734717 -0.000341 0.212728 0.167232 1 0 1.000000
  0 0.646794 0.645819 43.990116 0.672807 0.635504 -0.378769 0.192728 0.167232 1 0 1.000000
  0 -0.692014 0.645819 43.990116 -0.672807 0.635509 -0.378761 0.192728 0.187232 1 0 1.000000
quaddama
  0 0.646794 -5.347579 44.038994 0.666213 -0.672290 -0.322780 0.087728 0.167232 1 0 1.000000
  0 0.646794 -5.572958 45.668648 0.785360 -0.612994 -0.086299 0.067728 0.167232 1 0 1.000000
  0 -0.692013 -5.572958 45.668648 -0.785346 -0.613012 -0.086302 0.067728 0.187232 1 0 1.000000
quaddama
  0 -0.631159 0.264019 45.606503 -0.745407 -0.666610 0.000599 0.477728 0.152232 1 0 1.000000
  0 0.585939 0.264019 45.606503 0.745424 -0.666591 0.000599 0.477728 0.172232 1 0 1.000000
  0 0.585939 -0.086885 46.840141 0.745490 -0.568830 -0.347385 0.497728 0.172232 1 0 1.000000
quaddama
  0 0.646794 -4.200261 42.823383 0.681140 -0.399825 -0.613341 0.112728 0.167232 1 0 1.000000
  0 0.646794 -5.347579 44.038994 0.666213 -0.672290 -0.322780 0.087728 0.167232 1 0 1.000000
  0 -0.692013 -5.347579 44.038994 -0.666213 -0.672285 -0.322789 0.087728 0.187232 1 0 1.000000
quaddama
  0 0.585939 -2.355046 43.029179 0.762420 -0.000958 0.647081 0.412728 0.172232 1 0 1.000000
  0 0.585939 -1.017306 43.504719 0.726580 -0.356898 0.587116 0.437728 0.172232 1 0 1.000000
  0 -0.631159 -1.017306 43.504719 -0.726582 -0.356891 0.587118 0.437728 0.152232 1 0 1.000000
quaddama
  0 -0.631159 -3.692786 43.504719 -0.734073 0.365696 0.572192 0.392728 0.152232 1 0 1.000000
  0 0.585939 -3.692786 43.504719 0.734089 0.365686 0.572177 0.392728 0.172232 1 0 1.000000
  0 0.585939 -2.355046 43.029179 0.762420 -0.000958 0.647081 0.412728 0.172232 1 0 1.000000
quaddama
  0 0.585939 -0.086885 46.840141 0.745490 -0.568830 -0.347385 0.497728 0.172232 1 0 1.000000
  0 0.585939 -1.017306 47.708286 0.741908 -0.318579 -0.589983 0.517728 0.172232 1 0 1.000000
  0 -0.631159 -1.017306 47.708286 -0.741907 -0.318587 -0.589980 0.517728 0.152232 1 0 1.000000
quaddama
  0 0.585939 -0.086885 44.372875 0.744008 -0.569695 0.349140 0.457728 0.172232 1 0 1.000000
  0 0.585939 0.264019 45.606503 0.745424 -0.666591 0.000599 0.477728 0.172232 1 0 1.000000
  0 -0.631159 0.264019 45.606503 -0.745407 -0.666610 0.000599 0.477728 0.152232 1 0 1.000000
quaddama
  0 0.646794 0.645819 43.990116 0.672807 0.635504 -0.378769 0.192728 0.167232 1 0 1.000000
  0 0.646794 -0.604599 42.823383 0.688862 0.376528 -0.619431 0.167728 0.167232 1 0 1.000000
  0 -0.692014 -0.604599 42.823383 -0.688850 0.376535 -0.619441 0.167728 0.187232 1 0 1.000000
quaddama
  0 0.646794 0.645819 47.305950 0.671671 0.636679 0.378811 0.237728 0.167232 1 0 1.000000
  0 0.646794 1.077407 45.648026 0.678374 0.734717 -0.000341 0.212728 0.167232 1 0 1.000000
  0 -0.692014 1.077407 45.648026 -0.678374 0.734717 -0.000333 0.212728 0.187232 1 0 1.000000
quaddama
  0 0.646794 -2.402428 42.184299 0.661167 0.000434 -0.750238 0.137728 0.167232 1 0 1.000000
  0 0.646794 -4.200261 42.823383 0.681140 -0.399825 -0.613341 0.112728 0.167232 1 0 1.000000
  0 -0.692013 -4.200261 42.823383 -0.681144 -0.399818 -0.613342 0.112728 0.187232 1 0 1.000000
quaddama
  0 0.646794 -0.604599 48.472683 0.678400 0.354746 0.643373 0.262728 0.167232 1 0 1.000000
  0 0.646794 0.645819 47.305950 0.671671 0.636679 0.378811 0.237728 0.167232 1 0 1.000000
  0 -0.692014 0.645819 47.305950 -0.671671 0.636674 0.378819 0.237728 0.187232 1 0 1.000000
quaddama
  0 -0.692014 -0.604599 42.823383 -0.688850 0.376535 -0.619441 0.167728 0.187232 1 0 1.000000
  0 0.646794 -0.604599 42.823383 0.688862 0.376528 -0.619431 0.167728 0.167232 1 0 1.000000
  0 0.646794 -2.402428 42.184299 0.661167 0.000434 -0.750238 0.137728 0.167232 1 0 1.000000
quaddama
  0 0.585939 -1.017306 47.708286 0.741908 -0.318579 -0.589983 0.517728 0.172232 1 0 1.000000
  0 0.585939 -2.397225 48.043232 0.738172 -0.159126 -0.655577 0.537728 0.172232 1 0 1.000000
  0 -0.631159 -2.397225 48.043232 -0.738156 -0.159130 -0.655594 0.537728 0.152232 1 0 1.000000
quaddama
  0 -0.692014 -2.448826 48.957119 -0.646177 0.194410 0.738011 0.287728 0.187232 1 0 1.000000
  0 0.646794 -2.448826 48.957119 0.646186 0.194408 0.738004 0.287728 0.167232 1 0 1.000000
  0 0.646794 -0.604599 48.472683 0.678400 0.354746 0.643373 0.262728 0.167232 1 0 1.000000
quaddama
  0 0.585939 -4.692925 46.047031 0.605569 0.792074 0.076851 0.347728 0.172232 1 0 1.000000
  0 0.585939 -4.529480 44.362457 0.763089 0.585530 0.273587 0.372728 0.172232 1 0 1.000000
  0 -0.631159 -4.529480 44.362457 -0.763093 0.585529 0.273577 0.372728 0.152232 1 0 1.000000
quaddama
  0 0.585939 -1.017306 43.504719 0.726580 -0.356898 0.587116 0.437728 0.172232 1 0 1.000000
  0 0.585939 -0.086885 44.372875 0.744008 -0.569695 0.349140 0.457728 0.172232 1 0 1.000000
  0 -0.631159 -0.086885 44.372875 -0.744008 -0.569691 0.349148 0.457728 0.152232 1 0 1.000000
quaddama
  0 0.585939 -4.529480 44.362457 0.763089 0.585530 0.273587 0.372728 0.172232 1 0 1.000000
  0 0.585939 -3.692786 43.504719 0.734089 0.365686 0.572177 0.392728 0.172232 1 0 1.000000
  0 -0.631159 -3.692786 43.504719 -0.734073 0.365696 0.572192 0.392728 0.152232 1 0 1.000000
quaddama
  0 0.673732 0.095514 29.031782 0.707118 0.000000 -0.707095 0.607728 0.202232 1 0 1.000000
  0 0.673732 6.736426 29.031782 0.707107 0.000000 -0.707107 0.702728 0.202232 1 0 1.000000
  0 0.673732 6.736426 29.785723 0.707118 0.000000 0.707095 0.702728 0.192232 1 0 1.000000
quaddama
  0 -0.678599 6.736426 29.031782 -0.707115 0.000000 -0.707098 0.702728 0.222232 1 0 1.000000
  0 0.673732 6.736426 29.031782 0.707107 0.000000 -0.707107 0.702728 0.202232 1 0 1.000000
  0 0.673732 0.095514 29.031782 0.707118 0.000000 -0.707095 0.607728 0.202232 1 0 1.000000
quaddama
  0 -0.678599 0.095514 29.785723 -0.707115 0.000000 0.707098 0.607728 0.172232 1 0 1.000000
  0 0.673732 0.095514 29.785723 0.707107 0.000000 0.707107 0.607728 0.192232 1 0 1.000000
  0 0.673732 6.736426 29.785723 0.707118 0.000000 0.707095 0.702728 0.192232 1 0 1.000000
end
