version 1
nodes
0 "root" -1
end
skeleton
  time 0
  0 0.000000 0.000000 0.000000 0.000000 0.000000 0.000000
end
triangles
w_s_key
  0 1.184052 -1.168449 10.032110 0.000000 -0.999472 -0.032491 0.636719 0.332031 1 0 1.000000
  0 -1.137619 -1.168449 -2.071221 0.000000 -1.000000 0.000000 0.582031 0.628906 1 0 1.000000
  0 1.184052 -1.168449 -2.071221 0.000000 -1.000000 0.000000 0.636719 0.628906 1 0 1.000000
w_s_key
  0 -1.137619 1.108216 -2.071221 -1.000000 -0.000000 0.000000 0.972656 0.097656 1 0 1.000000
  0 -1.137619 -1.168449 -2.071221 -1.000000 -0.000000 0.000000 0.925781 0.097656 1 0 1.000000
  0 -1.137619 -1.168449 10.032110 -0.999422 -0.000000 -0.033982 0.925781 0.394531 1 0 1.000000
w_s_key
  0 1.184052 1.108216 -2.071221 -0.000000 1.000000 0.000000 0.746094 0.097656 1 0 1.000000
  0 -1.137619 1.108216 -2.071221 -0.000000 1.000000 0.000000 0.699219 0.097656 1 0 1.000000
  0 -1.137619 1.108216 10.032110 -0.000000 0.999282 -0.037885 0.699219 0.394531 1 0 1.000000
w_s_key
  0 1.184052 -1.168449 -2.071221 1.000000 0.000000 0.000000 0.863281 0.097656 1 0 1.000000
  0 1.184052 1.108216 -2.071221 1.000000 0.000000 0.000000 0.808594 0.097656 1 0 1.000000
  0 1.184052 1.108216 10.032110 0.999419 0.000000 -0.034089 0.808594 0.394531 1 0 1.000000
w_s_key
  0 1.184052 -1.168449 -2.071221 0.000000 0.000000 -1.000000 0.753906 0.667969 1 0 1.000000
  0 -1.137619 -1.168449 -2.071221 0.000000 0.000000 -1.000000 0.699219 0.667969 1 0 1.000000
  0 -1.137619 1.108216 -2.071221 0.000000 0.000000 -1.000000 0.699219 0.722656 1 0 1.000000
w_s_key
  0 1.509086 1.470413 14.901266 -0.000000 0.991895 -0.127060 0.753906 0.511719 1 0 1.000000
  0 1.184052 1.108216 10.032110 -0.000000 0.999282 -0.037885 0.746094 0.394531 1 0 1.000000
  0 -1.137619 1.108216 10.032110 -0.000000 0.999282 -0.037885 0.699219 0.394531 1 0 1.000000
w_s_key
  0 -1.044752 -2.824205 -0.262677 -0.000000 1.000000 0.000000 0.917969 0.996094 1 0 1.000000
  0 -0.719718 -2.824205 0.711154 -0.000000 1.000000 0.000000 0.910156 0.972656 1 0 1.000000
  0 0.766152 -2.824205 0.711154 -0.000000 1.000000 0.000000 0.878906 0.972656 1 0 1.000000
w_s_key
  0 -0.719718 -2.824205 0.711154 -1.000000 -0.000000 0.000000 0.371094 0.183594 1 0 1.000000
  0 -0.719718 -2.824205 5.580311 -1.000000 -0.000000 0.000000 0.371094 0.058594 1 0 1.000000
  0 -0.719718 -0.806252 5.580311 -1.000000 -0.000000 0.000000 0.324219 0.058594 1 0 1.000000
w_s_key
  0 -0.719718 -0.806252 0.711154 -0.000000 1.000000 0.000000 0.269531 0.058594 1 0 1.000000
  0 -0.719718 -0.806252 5.580311 -0.000000 1.000000 0.000000 0.269531 0.183594 1 0 1.000000
  0 0.766151 -0.806252 5.580311 -0.000000 1.000000 0.000000 0.308594 0.183594 1 0 1.000000
w_s_key
  0 0.766151 -0.806252 0.711154 1.000000 0.000000 0.000000 0.871094 0.691406 1 0 1.000000
  0 0.766151 -0.806252 5.580311 1.000000 0.000000 0.000000 0.871094 0.816406 1 0 1.000000
  0 0.766152 -2.824205 5.580311 1.000000 0.000000 0.000000 0.910156 0.816406 1 0 1.000000
w_s_key
  0 -0.719718 -0.806252 5.580311 0.000000 0.000000 1.000000 0.175781 0.113281 1 0 1.000000
  0 -0.719718 -2.824205 5.580311 0.000000 0.000000 1.000000 0.175781 0.160156 1 0 1.000000
  0 0.766152 -2.824205 5.580311 0.000000 0.000000 1.000000 0.214844 0.160156 1 0 1.000000
w_s_key
  0 -0.719718 -2.824205 0.711154 0.000000 0.000000 -1.000000 0.816406 0.675781 1 0 1.000000
  0 -0.719718 -0.806252 0.711154 0.000000 0.000000 -1.000000 0.816406 0.722656 1 0 1.000000
  0 0.766151 -0.806252 0.711154 0.000000 0.000000 -1.000000 0.855469 0.722656 1 0 1.000000
w_s_key
  0 0.766152 -2.824205 5.580311 -0.000000 1.000000 0.000000 0.878906 0.855469 1 0 1.000000
  0 -0.719718 -2.824205 5.580311 -0.000000 1.000000 0.000000 0.910156 0.855469 1 0 1.000000
  0 -1.044752 -2.824205 6.554142 -0.000000 1.000000 0.000000 0.917969 0.824219 1 0 1.000000
w_s_key
  0 -0.719718 -2.824205 5.580311 -0.000000 1.000000 0.000000 0.910156 0.855469 1 0 1.000000
  0 -0.719718 -2.824205 0.711154 -0.000000 1.000000 0.000000 0.910156 0.972656 1 0 1.000000
  0 -1.044752 -2.824205 -0.262677 -0.000000 1.000000 0.000000 0.917969 0.996094 1 0 1.000000
w_s_key
  0 1.091185 -2.824205 -0.262677 -0.000000 1.000000 0.000000 0.871094 0.996094 1 0 1.000000
  0 0.766152 -2.824205 0.711154 -0.000000 1.000000 0.000000 0.878906 0.972656 1 0 1.000000
  0 0.766152 -2.824205 5.580311 -0.000000 1.000000 0.000000 0.878906 0.855469 1 0 1.000000
w_s_key
  0 -1.044752 -2.824205 -0.262677 0.000000 0.000000 -1.000000 0.378906 0.183594 1 0 1.000000
  0 1.091185 -2.824205 -0.262677 0.000000 0.000000 -1.000000 0.417969 0.183594 1 0 1.000000
  0 1.091185 -7.274052 -0.262677 0.000000 0.000000 -1.000000 0.417969 0.074219 1 0 1.000000
w_s_key
  0 1.091185 -2.824205 6.554142 0.000000 0.000000 1.000000 0.222656 0.183594 1 0 1.000000
  0 -1.044752 -2.824205 6.554142 0.000000 0.000000 1.000000 0.269531 0.183594 1 0 1.000000
  0 -1.044751 -7.274052 6.554142 0.000000 0.000000 1.000000 0.269531 0.074219 1 0 1.000000
w_s_key
  0 1.091185 -7.274052 4.606480 0.000000 -1.000000 0.000000 0.175781 0.105469 1 0 1.000000
  0 1.091185 -7.274052 6.554142 0.000000 -1.000000 0.000000 0.128906 0.105469 1 0 1.000000
  0 -1.044751 -7.274052 6.554142 0.000000 -1.000000 0.000000 0.128906 0.160156 1 0 1.000000
w_s_key
  0 1.091185 -4.842159 4.606480 0.000000 0.000000 -1.000000 0.074219 0.160156 1 0 1.000000
  0 1.091185 -7.274052 4.606480 0.000000 0.000000 -1.000000 0.074219 0.097656 1 0 1.000000
  0 -1.044751 -7.274052 4.606480 0.000000 0.000000 -1.000000 0.035156 0.097656 1 0 1.000000
w_s_key
  0 -1.044751 -4.842159 4.606480 0.000000 -1.000000 0.000000 0.683594 0.761719 1 0 1.000000
  0 -1.044751 -4.842159 1.684985 0.000000 -1.000000 0.000000 0.683594 0.691406 1 0 1.000000
  0 1.091185 -4.842159 1.684985 0.000000 -1.000000 0.000000 0.636719 0.691406 1 0 1.000000
w_s_key
  0 -1.044751 -4.842159 1.684985 0.000000 0.000000 1.000000 0.128906 0.160156 1 0 1.000000
  0 -1.044751 -7.274052 1.684985 0.000000 0.000000 1.000000 0.128906 0.097656 1 0 1.000000
  0 1.091185 -7.274052 1.684985 0.000000 0.000000 1.000000 0.082031 0.097656 1 0 1.000000
w_s_key
  0 1.091185 -7.274052 1.684985 0.000000 -1.000000 0.000000 0.496094 0.097656 1 0 1.000000
  0 -1.044751 -7.274052 1.684985 0.000000 -1.000000 0.000000 0.496094 0.144531 1 0 1.000000
  0 -1.044751 -7.274052 -0.262677 0.000000 -1.000000 0.000000 0.542969 0.144531 1 0 1.000000
w_s_key
  0 1.091185 -4.842159 1.684985 1.000000 0.000000 0.000000 0.050781 0.222656 1 0 1.000000
  0 1.091185 -2.824205 -0.262677 1.000000 0.000000 0.000000 0.011719 0.167969 1 0 1.000000
  0 1.091185 -2.824205 6.554142 1.000000 0.000000 0.000000 0.011719 0.339844 1 0 1.000000
w_s_key
  0 -1.044752 -2.824205 -0.262677 -1.000000 -0.000000 0.000000 0.214844 0.167969 1 0 1.000000
  0 -1.044751 -4.842159 4.606480 -1.000000 -0.000000 -0.000000 0.167969 0.292969 1 0 1.000000
  0 -1.044752 -2.824205 6.554142 -1.000000 -0.000000 -0.000000 0.214844 0.339844 1 0 1.000000
w_s_key
  0 1.509086 -1.478903 14.901266 0.992217 0.000000 -0.124518 0.871094 0.511719 1 0 1.000000
  0 1.184052 -1.168449 10.032110 0.999422 0.000000 -0.033981 0.863281 0.394531 1 0 1.000000
  0 1.184052 1.108216 10.032110 0.999419 0.000000 -0.034089 0.808594 0.394531 1 0 1.000000
w_s_key
  0 -1.462652 1.470413 14.901266 -0.992214 -0.000000 -0.124546 0.980469 0.511719 1 0 1.000000
  0 -1.137619 1.108216 10.032110 -0.999419 -0.000000 -0.034088 0.972656 0.394531 1 0 1.000000
  0 -1.137619 -1.168449 10.032110 -0.999422 -0.000000 -0.033982 0.925781 0.394531 1 0 1.000000
w_s_key
  0 1.184052 -1.168449 10.032110 0.000000 -0.999472 -0.032491 0.636719 0.332031 1 0 1.000000
  0 -1.462652 -1.478903 14.901266 0.000000 -0.991795 -0.127839 0.582031 0.214844 1 0 1.000000
  0 -1.137619 -1.168449 10.032110 0.000000 -0.999472 -0.032491 0.582031 0.332031 1 0 1.000000
w_s_key
  0 -2.298453 -2.358524 19.631304 0.000000 -0.983144 -0.182830 0.558594 0.097656 1 0 1.000000
  0 -1.462652 -1.478903 14.901266 0.000000 -0.991795 -0.127839 0.582031 0.214844 1 0 1.000000
  0 1.509086 -1.478903 14.901266 0.000000 -0.991795 -0.127838 0.644531 0.214844 1 0 1.000000
w_s_key
  0 -2.298453 2.298292 19.631304 -0.984745 -0.000000 -0.174005 0.996094 0.628906 1 0 1.000000
  0 -1.462652 1.470413 14.901266 -0.992214 -0.000000 -0.124546 0.980469 0.511719 1 0 1.000000
  0 -1.462652 -1.478903 14.901266 -0.992217 -0.000000 -0.124518 0.917969 0.511719 1 0 1.000000
w_s_key
  0 2.344887 -2.358524 19.631304 0.984745 0.000000 -0.174005 0.886719 0.628906 1 0 1.000000
  0 1.509086 -1.478903 14.901266 0.992217 0.000000 -0.124518 0.871094 0.511719 1 0 1.000000
  0 1.509086 1.470413 14.901266 0.992214 0.000000 -0.124546 0.800781 0.511719 1 0 1.000000
w_s_key
  0 2.344887 2.298292 19.631304 -0.000000 0.985026 -0.172405 0.777344 0.628906 1 0 1.000000
  0 1.509086 1.470413 14.901266 -0.000000 0.991895 -0.127060 0.753906 0.511719 1 0 1.000000
  0 -1.462652 1.470413 14.901266 -0.000000 0.991895 -0.127060 0.691406 0.511719 1 0 1.000000
w_s_key
  0 2.994955 -5.152614 19.909542 0.046473 -0.088271 -0.995012 0.511719 0.394531 1 0 1.000000
  0 2.344887 -2.358524 19.631304 0.055806 -0.055692 -0.996887 0.480469 0.457031 1 0 1.000000
  0 5.130892 -2.979432 19.909542 0.089038 -0.046339 -0.994950 0.542969 0.464844 1 0 1.000000
w_s_key
  0 2.344887 -2.358524 19.631304 0.055806 -0.055692 -0.996887 0.480469 0.457031 1 0 1.000000
  0 2.994955 -5.152614 19.909542 0.046473 -0.088271 -0.995012 0.511719 0.394531 1 0 1.000000
  0 0.023217 -5.928749 19.909542 0.000000 -0.086577 -0.996245 0.449219 0.363281 1 0 1.000000
w_s_key
  0 0.023217 -5.928749 19.909542 0.000000 -0.086577 -0.996245 0.449219 0.363281 1 0 1.000000
  0 -2.298453 -2.358524 19.631304 -0.055523 -0.055893 -0.996892 0.378906 0.433594 1 0 1.000000
  0 2.344887 -2.358524 19.631304 0.055806 -0.055692 -0.996887 0.480469 0.457031 1 0 1.000000
w_s_key
  0 -2.948521 -5.152614 19.909542 -0.046473 -0.088272 -0.995012 0.386719 0.363281 1 0 1.000000
  0 -2.298453 -2.358524 19.631304 -0.055523 -0.055893 -0.996892 0.378906 0.433594 1 0 1.000000
  0 0.023217 -5.928749 19.909542 0.000000 -0.086577 -0.996245 0.449219 0.363281 1 0 1.000000
w_s_key
  0 -2.298453 -2.358524 19.631304 -0.055523 -0.055893 -0.996892 0.378906 0.433594 1 0 1.000000
  0 -2.948521 -5.152614 19.909542 -0.046473 -0.088272 -0.995012 0.386719 0.363281 1 0 1.000000
  0 -5.084458 -2.979433 19.909542 -0.088872 -0.047077 -0.994930 0.324219 0.394531 1 0 1.000000
w_s_key
  0 -2.298453 -2.358524 19.631304 -0.055523 -0.055893 -0.996892 0.378906 0.433594 1 0 1.000000
  0 -5.084458 -2.979433 19.909542 -0.088872 -0.047077 -0.994930 0.324219 0.394531 1 0 1.000000
  0 -5.920259 -0.030116 19.909542 -0.086080 -0.000000 -0.996288 0.292969 0.464844 1 0 1.000000
w_s_key
  0 -5.920259 -0.030116 19.909542 -0.086080 -0.000000 -0.996288 0.292969 0.464844 1 0 1.000000
  0 -2.298453 2.298292 19.631304 -0.055747 0.055575 -0.996897 0.355469 0.542969 1 0 1.000000
  0 -2.298453 -2.358524 19.631304 -0.055523 -0.055893 -0.996892 0.378906 0.433594 1 0 1.000000
w_s_key
  0 -5.084458 2.919201 19.909542 -0.088872 0.047077 -0.994930 0.292969 0.535156 1 0 1.000000
  0 -2.298453 2.298292 19.631304 -0.055747 0.055575 -0.996897 0.355469 0.542969 1 0 1.000000
  0 -5.920259 -0.030116 19.909542 -0.086080 -0.000000 -0.996288 0.292969 0.464844 1 0 1.000000
w_s_key
  0 -2.298453 2.298292 19.631304 -0.055747 0.055575 -0.996897 0.355469 0.542969 1 0 1.000000
  0 -5.084458 2.919201 19.909542 -0.088872 0.047077 -0.994930 0.292969 0.535156 1 0 1.000000
  0 -2.948522 5.092381 19.909542 -0.047276 0.088083 -0.994991 0.324219 0.605469 1 0 1.000000
w_s_key
  0 -2.298453 2.298292 19.631304 -0.055747 0.055575 -0.996897 0.355469 0.542969 1 0 1.000000
  0 -2.948522 5.092381 19.909542 -0.047276 0.088083 -0.994991 0.324219 0.605469 1 0 1.000000
  0 0.023216 5.920259 19.909542 -0.000000 0.085890 -0.996305 0.386719 0.636719 1 0 1.000000
w_s_key
  0 0.023216 5.920259 19.909542 -0.000000 0.085890 -0.996305 0.386719 0.636719 1 0 1.000000
  0 2.344887 2.298292 19.631304 0.056030 0.055374 -0.996892 0.449219 0.566406 1 0 1.000000
  0 -2.298453 2.298292 19.631304 -0.055747 0.055575 -0.996897 0.355469 0.542969 1 0 1.000000
w_s_key
  0 2.994955 5.092381 19.909542 0.047276 0.088082 -0.994991 0.449219 0.636719 1 0 1.000000
  0 2.344887 2.298292 19.631304 0.056030 0.055374 -0.996892 0.449219 0.566406 1 0 1.000000
  0 0.023216 5.920259 19.909542 -0.000000 0.085890 -0.996305 0.386719 0.636719 1 0 1.000000
w_s_key
  0 2.344887 2.298292 19.631304 0.056030 0.055374 -0.996892 0.449219 0.566406 1 0 1.000000
  0 2.994955 5.092381 19.909542 0.047276 0.088082 -0.994991 0.449219 0.636719 1 0 1.000000
  0 5.130892 2.919201 19.909542 0.089038 0.046340 -0.994950 0.511719 0.605469 1 0 1.000000
w_s_key
  0 2.344887 2.298292 19.631304 0.056030 0.055374 -0.996892 0.449219 0.566406 1 0 1.000000
  0 5.130892 2.919201 19.909542 0.089038 0.046340 -0.994950 0.511719 0.605469 1 0 1.000000
  0 5.920259 -0.030116 19.909542 0.086694 0.000000 -0.996235 0.542969 0.535156 1 0 1.000000
w_s_key
  0 5.920259 -0.030116 19.909542 0.086694 0.000000 -0.996235 0.542969 0.535156 1 0 1.000000
  0 2.344887 -2.358524 19.631304 0.055806 -0.055692 -0.996887 0.480469 0.457031 1 0 1.000000
  0 2.344887 2.298292 19.631304 0.056030 0.055374 -0.996892 0.449219 0.566406 1 0 1.000000
w_s_key
  0 5.130892 -2.979432 19.909542 0.089038 -0.046339 -0.994950 0.542969 0.464844 1 0 1.000000
  0 2.344887 -2.358524 19.631304 0.055806 -0.055692 -0.996887 0.480469 0.457031 1 0 1.000000
  0 5.920259 -0.030116 19.909542 0.086694 0.000000 -0.996235 0.542969 0.535156 1 0 1.000000
w_s_key
  0 -5.084458 -2.979433 20.883373 -0.864599 -0.502463 0.000000 0.972656 0.792969 1 0 1.000000
  0 -5.084458 -2.979433 19.909542 -0.864592 -0.502474 0.000000 0.996094 0.792969 1 0 1.000000
  0 -2.948521 -5.152614 19.909542 -0.713192 -0.700969 0.000000 0.996094 0.738281 1 0 1.000000
w_s_key
  0 2.994955 5.092381 20.883373 0.268364 0.963318 0.000000 0.542969 0.339844 1 0 1.000000
  0 2.994955 5.092381 19.909542 0.268364 0.963318 0.000000 0.566406 0.339844 1 0 1.000000
  0 0.023216 5.920259 19.909542 -0.000008 1.000000 0.000000 0.566406 0.269531 1 0 1.000000
w_s_key
  0 5.130892 -2.979432 19.909542 0.868245 -0.496135 0.000000 0.941406 0.792969 1 0 1.000000
  0 5.920259 -0.030116 19.909542 1.000000 0.000000 0.000000 0.941406 0.863281 1 0 1.000000
  0 5.920259 -0.030116 20.883373 1.000000 -0.000000 0.000000 0.964844 0.863281 1 0 1.000000
w_s_key
  0 -2.948521 -5.152614 20.883373 -0.252696 -0.967546 0.000000 0.003906 0.152344 1 0 1.000000
  0 -2.948521 -5.152614 19.909542 -0.252696 -0.967546 0.000000 0.027344 0.152344 1 0 1.000000
  0 0.023217 -5.928749 19.909542 -0.000000 -1.000000 0.000000 0.027344 0.082031 1 0 1.000000
w_s_key
  0 0.023216 5.920259 20.883373 0.000007 1.000000 0.000000 0.542969 0.269531 1 0 1.000000
  0 0.023216 5.920259 19.909542 -0.000008 1.000000 0.000000 0.566406 0.269531 1 0 1.000000
  0 -2.948522 5.092381 19.909542 -0.268364 0.963317 0.000000 0.566406 0.199219 1 0 1.000000
w_s_key
  0 5.920259 -0.030116 20.883373 1.000000 -0.000000 0.000000 0.964844 0.863281 1 0 1.000000
  0 5.920259 -0.030116 19.909542 1.000000 0.000000 0.000000 0.941406 0.863281 1 0 1.000000
  0 5.130892 2.919201 19.909542 0.868245 0.496135 0.000000 0.941406 0.941406 1 0 1.000000
w_s_key
  0 0.023217 -5.928749 19.909542 -0.000000 -1.000000 0.000000 0.027344 0.082031 1 0 1.000000
  0 2.994955 -5.152614 19.909542 0.252696 -0.967546 0.000000 0.027344 0.011719 1 0 1.000000
  0 2.994955 -5.152614 20.883373 0.252696 -0.967546 0.000000 0.003906 0.011719 1 0 1.000000
w_s_key
  0 -2.948522 5.092381 20.883373 -0.713192 0.700969 0.000000 0.972656 0.988281 1 0 1.000000
  0 -2.948522 5.092381 19.909542 -0.713192 0.700969 0.000000 0.996094 0.988281 1 0 1.000000
  0 -5.084458 2.919201 19.909542 -0.864599 0.502463 0.000000 0.996094 0.941406 1 0 1.000000
w_s_key
  0 -5.920259 -0.030116 20.883373 -1.000000 0.000007 0.000000 0.972656 0.863281 1 0 1.000000
  0 -5.920259 -0.030116 19.909542 -1.000000 -0.000007 0.000000 0.996094 0.863281 1 0 1.000000
  0 -5.084458 -2.979433 19.909542 -0.864592 -0.502474 0.000000 0.996094 0.792969 1 0 1.000000
w_s_key
  0 5.130892 2.919201 20.883373 0.868252 0.496123 0.000000 0.964844 0.941406 1 0 1.000000
  0 5.130892 2.919201 19.909542 0.868245 0.496135 0.000000 0.941406 0.941406 1 0 1.000000
  0 2.994955 5.092381 19.909542 0.713192 0.700969 0.000000 0.941406 0.988281 1 0 1.000000
w_s_key
  0 2.994955 -5.152614 19.909542 0.713192 -0.700969 0.000000 0.941406 0.738281 1 0 1.000000
  0 5.130892 -2.979432 19.909542 0.868245 -0.496135 0.000000 0.941406 0.792969 1 0 1.000000
  0 5.130892 -2.979432 20.883373 0.868252 -0.496123 0.000000 0.964844 0.792969 1 0 1.000000
w_s_key
  0 -5.084458 2.919201 20.883373 -0.864592 0.502474 0.000000 0.972656 0.941406 1 0 1.000000
  0 -5.084458 2.919201 19.909542 -0.864599 0.502463 0.000000 0.996094 0.941406 1 0 1.000000
  0 -5.920259 -0.030116 19.909542 -1.000000 -0.000007 0.000000 0.996094 0.863281 1 0 1.000000
w_s_key
  0 2.994955 5.092381 20.883373 -0.000000 0.000000 1.000000 0.230469 0.394531 1 0 1.000000
  0 -5.920259 -0.030116 20.883373 -0.000000 0.000000 1.000000 0.019531 0.464844 1 0 1.000000
  0 2.994955 -5.152614 20.883373 0.000000 -0.000000 1.000000 0.175781 0.636719 1 0 1.000000
w_s_key
  0 -0.998318 -3.755569 20.187778 0.000000 -0.989544 -0.144232 0.816406 0.988281 1 0 1.000000
  0 1.044752 -3.755569 20.187778 0.000000 -0.989544 -0.144232 0.855469 0.988281 1 0 1.000000
  0 1.044752 -5.256098 30.482567 0.000000 -0.989544 -0.144232 0.855469 0.738281 1 0 1.000000
w_s_key
  0 -0.998318 5.195866 30.482567 -1.000000 -0.000000 0.000000 0.496094 0.917969 1 0 1.000000
  0 -0.998318 3.695336 20.187778 -1.000000 -0.000000 0.000000 0.464844 0.667969 1 0 1.000000
  0 -0.998318 -5.256098 30.482567 -1.000000 -0.000000 0.000000 0.269531 0.917969 1 0 1.000000
w_s_key
  0 1.044752 3.695336 20.187778 -0.000000 0.989544 -0.144232 0.433594 0.332031 1 0 1.000000
  0 -0.998318 3.695336 20.187778 -0.000000 0.989544 -0.144232 0.480469 0.332031 1 0 1.000000
  0 -0.998318 5.195866 30.482567 -0.000000 0.989544 -0.144232 0.480469 0.082031 1 0 1.000000
w_s_key
  0 1.044752 -5.256098 30.482567 1.000000 0.000000 0.000000 0.246094 0.917969 1 0 1.000000
  0 1.044752 -3.755569 20.187778 1.000000 0.000000 0.000000 0.214844 0.667969 1 0 1.000000
  0 1.044751 5.195866 30.482567 1.000000 0.000000 0.000000 0.011719 0.917969 1 0 1.000000
w_s_key
  0 1.044752 -3.755569 20.187778 0.000000 0.000000 -1.000000 0.542969 0.160156 1 0 1.000000
  0 -0.998318 -3.755569 20.187778 0.000000 0.000000 -1.000000 0.496094 0.160156 1 0 1.000000
  0 -0.998318 3.695336 20.187778 0.000000 0.000000 -1.000000 0.496094 0.339844 1 0 1.000000
w_s_key
  0 1.044752 -0.030116 33.404060 -0.000000 0.000015 1.000000 0.746094 0.863281 1 0 1.000000
  0 -0.998318 -0.030116 33.404060 0.000000 -0.000015 1.000000 0.699219 0.863281 1 0 1.000000
  0 -0.998318 -5.256098 30.482567 0.000000 -0.487960 0.872866 0.699219 0.988281 1 0 1.000000
w_s_key
  0 1.044751 5.195866 30.482567 -0.000000 0.487960 0.872866 0.746094 0.738281 1 0 1.000000
  0 -0.998318 5.195866 30.482567 -0.000000 0.487961 0.872866 0.699219 0.738281 1 0 1.000000
  0 -0.998318 -0.030116 33.404060 0.000000 -0.000015 1.000000 0.699219 0.863281 1 0 1.000000
w_s_key
  0 -2.159154 -0.030116 29.926090 -0.912117 -0.000000 0.409930 0.644531 0.800781 1 0 1.000000
  0 -2.159154 -1.323676 28.813141 -0.955334 -0.192744 0.224022 0.675781 0.832031 1 0 1.000000
  0 -1.276919 -2.048069 29.508736 -0.744875 -0.430993 0.509320 0.691406 0.808594 1 0 1.000000
w_s_key
  0 -2.159154 -0.030116 29.926090 -0.912117 -0.000000 0.409930 0.644531 0.800781 1 0 1.000000
  0 -1.276919 -0.030116 31.178162 -0.817454 -0.000000 0.575994 0.644531 0.769531 1 0 1.000000
  0 -1.276919 1.987838 29.508736 -0.744875 0.430992 0.509320 0.597656 0.808594 1 0 1.000000
w_s_key
  0 2.205587 -0.030116 23.109272 0.912119 0.000000 -0.409926 0.550781 0.964844 1 0 1.000000
  0 2.205587 -1.323676 24.222223 0.955334 -0.192744 -0.224024 0.519531 0.933594 1 0 1.000000
  0 1.323352 -2.048069 23.526628 0.744875 -0.430992 -0.509320 0.503906 0.949219 1 0 1.000000
w_s_key
  0 -2.159154 -1.323676 28.813141 -0.634583 -0.772855 0.000000 0.324219 0.214844 1 0 1.000000
  0 -2.159154 -1.323676 24.222223 -0.634583 -0.772855 0.000000 0.324219 0.324219 1 0 1.000000
  0 -1.276919 -2.048069 29.508736 -0.265159 -0.964205 0.000000 0.347656 0.191406 1 0 1.000000
w_s_key
  0 1.323352 -0.030116 31.178162 -0.000000 0.637431 0.770507 0.503906 0.660156 1 0 1.000000
  0 1.323352 1.987838 29.508736 -0.000000 0.637432 0.770507 0.503906 0.714844 1 0 1.000000
  0 -1.276919 1.987838 29.508736 -0.000000 0.637431 0.770507 0.550781 0.714844 1 0 1.000000
w_s_key
  0 -2.159154 -1.323676 24.222223 -0.955334 -0.192744 -0.224024 0.675781 0.933594 1 0 1.000000
  0 -2.159154 -0.030116 23.109272 -0.912119 -0.000000 -0.409926 0.644531 0.964844 1 0 1.000000
  0 -1.276919 -2.048069 23.526628 -0.744875 -0.430992 -0.509321 0.691406 0.949219 1 0 1.000000
w_s_key
  0 2.205587 -1.323676 28.813141 0.955334 -0.192744 0.224022 0.519531 0.832031 1 0 1.000000
  0 2.205587 -0.030116 23.109272 0.912119 0.000000 -0.409926 0.550781 0.964844 1 0 1.000000
  0 2.205587 1.263444 28.813141 0.955335 0.192744 0.224022 0.582031 0.832031 1 0 1.000000
w_s_key
  0 2.205587 -1.323676 28.813141 0.634583 -0.772855 0.000000 0.425781 0.214844 1 0 1.000000
  0 1.323352 -2.048069 29.508736 0.265165 -0.964203 0.000000 0.402344 0.191406 1 0 1.000000
  0 1.323352 -2.048069 23.526628 0.265160 -0.964205 0.000000 0.402344 0.347656 1 0 1.000000
w_s_key
  0 2.205587 -0.030116 23.109272 0.912119 0.000000 -0.409926 0.550781 0.964844 1 0 1.000000
  0 1.323352 -0.030116 21.857204 0.817453 0.000000 -0.575996 0.550781 0.988281 1 0 1.000000
  0 1.323352 1.987838 23.526628 0.744875 0.430992 -0.509320 0.597656 0.949219 1 0 1.000000
w_s_key
  0 2.205587 -0.030116 29.926090 0.912117 0.000000 0.409930 0.550781 0.800781 1 0 1.000000
  0 2.205587 1.263444 28.813141 0.955335 0.192744 0.224022 0.582031 0.832031 1 0 1.000000
  0 1.323352 1.987838 29.508736 0.744875 0.430992 0.509320 0.597656 0.808594 1 0 1.000000
w_s_key
  0 2.205587 -0.030116 29.926090 0.912117 0.000000 0.409930 0.550781 0.800781 1 0 1.000000
  0 1.323352 -0.030116 31.178162 0.817454 0.000000 0.575994 0.550781 0.769531 1 0 1.000000
  0 1.323352 -2.048069 29.508736 0.744875 -0.430992 0.509320 0.503906 0.808594 1 0 1.000000
w_s_key
  0 2.205587 1.263444 24.222223 0.634583 0.772855 0.000000 0.222656 0.324219 1 0 1.000000
  0 1.323352 1.987838 23.526628 0.265158 0.964205 0.000000 0.246094 0.347656 1 0 1.000000
  0 1.323352 1.987838 29.508736 0.265167 0.964202 0.000000 0.246094 0.191406 1 0 1.000000
w_s_key
  0 -2.159154 -1.323676 24.222223 -0.955334 -0.192744 -0.224024 0.675781 0.933594 1 0 1.000000
  0 -2.159154 -1.323676 28.813141 -0.955334 -0.192744 0.224022 0.675781 0.832031 1 0 1.000000
  0 -2.159154 -0.030116 23.109272 -0.912119 -0.000000 -0.409926 0.644531 0.964844 1 0 1.000000
w_s_key
  0 -2.159154 1.263444 28.813141 -0.955335 0.192744 0.224022 0.613281 0.832031 1 0 1.000000
  0 -2.159154 -0.030116 23.109272 -0.912119 -0.000000 -0.409926 0.644531 0.964844 1 0 1.000000
  0 -2.159154 -1.323676 28.813141 -0.955334 -0.192744 0.224022 0.675781 0.832031 1 0 1.000000
w_s_key
  0 1.323352 -0.030116 31.178162 0.000000 -0.637431 0.770507 0.628906 0.660156 1 0 1.000000
  0 -1.276919 -0.030116 31.178162 0.000000 -0.637430 0.770508 0.582031 0.660156 1 0 1.000000
  0 -1.276919 -2.048069 29.508736 0.000000 -0.637431 0.770507 0.582031 0.714844 1 0 1.000000
w_s_key
  0 1.323352 -2.048069 29.508736 0.265165 -0.964203 0.000000 0.402344 0.191406 1 0 1.000000
  0 -1.276919 -2.048069 29.508736 -0.265159 -0.964205 0.000000 0.347656 0.191406 1 0 1.000000
  0 -1.276919 -2.048069 23.526628 -0.265165 -0.964203 0.000000 0.347656 0.347656 1 0 1.000000
w_s_key
  0 -1.276919 -0.030116 31.178162 -0.817454 -0.000000 0.575994 0.644531 0.769531 1 0 1.000000
  0 -2.159154 -0.030116 29.926090 -0.912117 -0.000000 0.409930 0.644531 0.800781 1 0 1.000000
  0 -1.276919 -2.048069 29.508736 -0.744875 -0.430993 0.509320 0.691406 0.808594 1 0 1.000000
w_s_key
  0 -2.159154 1.263444 28.813141 -0.634583 0.772855 0.000000 0.324219 0.214844 1 0 1.000000
  0 -1.276919 1.987838 29.508736 -0.265158 0.964205 0.000000 0.308594 0.191406 1 0 1.000000
  0 -1.276919 1.987838 23.526628 -0.265167 0.964202 0.000000 0.308594 0.347656 1 0 1.000000
w_s_key
  0 1.323352 -2.048069 23.526628 0.000000 -0.637430 -0.770508 0.628906 0.722656 1 0 1.000000
  0 -1.276919 -2.048069 23.526628 0.000000 -0.637430 -0.770509 0.582031 0.722656 1 0 1.000000
  0 -1.276919 -0.030116 21.857204 0.000000 -0.637430 -0.770508 0.582031 0.769531 1 0 1.000000
w_s_key
  0 1.323352 1.987838 29.508736 0.265167 0.964202 0.000000 0.246094 0.191406 1 0 1.000000
  0 1.323352 1.987838 23.526628 0.265158 0.964205 0.000000 0.246094 0.347656 1 0 1.000000
  0 -1.276919 1.987838 23.526628 -0.265167 0.964202 0.000000 0.308594 0.347656 1 0 1.000000
w_s_key
  0 1.323352 -0.030116 21.857204 0.817453 0.000000 -0.575996 0.550781 0.988281 1 0 1.000000
  0 2.205587 -0.030116 23.109272 0.912119 0.000000 -0.409926 0.550781 0.964844 1 0 1.000000
  0 1.323352 -2.048069 23.526628 0.744875 -0.430992 -0.509320 0.503906 0.949219 1 0 1.000000
w_s_key
  0 -2.159154 -0.030116 23.109272 -0.912119 -0.000000 -0.409926 0.644531 0.964844 1 0 1.000000
  0 -2.159154 1.263444 24.222223 -0.955334 0.192744 -0.224024 0.613281 0.933594 1 0 1.000000
  0 -1.276919 1.987838 23.526628 -0.744875 0.430992 -0.509320 0.597656 0.949219 1 0 1.000000
w_s_key
  0 -2.159154 1.263444 28.813141 -0.955335 0.192744 0.224022 0.613281 0.832031 1 0 1.000000
  0 -2.159154 -0.030116 29.926090 -0.912117 -0.000000 0.409930 0.644531 0.800781 1 0 1.000000
  0 -1.276919 1.987838 29.508736 -0.744875 0.430992 0.509320 0.597656 0.808594 1 0 1.000000
w_s_key
  0 -2.159154 1.263444 24.222223 -0.634583 0.772855 0.000000 0.324219 0.324219 1 0 1.000000
  0 -2.159154 1.263444 28.813141 -0.634583 0.772855 0.000000 0.324219 0.214844 1 0 1.000000
  0 -1.276919 1.987838 23.526628 -0.265167 0.964202 0.000000 0.308594 0.347656 1 0 1.000000
w_s_key
  0 2.205587 1.263444 24.222223 0.955334 0.192744 -0.224023 0.582031 0.933594 1 0 1.000000
  0 2.205587 1.263444 28.813141 0.955335 0.192744 0.224022 0.582031 0.832031 1 0 1.000000
  0 2.205587 -0.030116 23.109272 0.912119 0.000000 -0.409926 0.550781 0.964844 1 0 1.000000
w_s_key
  0 2.205587 -0.030116 29.926090 0.912117 0.000000 0.409930 0.550781 0.800781 1 0 1.000000
  0 2.205587 -1.323676 28.813141 0.955334 -0.192744 0.224022 0.519531 0.832031 1 0 1.000000
  0 2.205587 1.263444 28.813141 0.955335 0.192744 0.224022 0.582031 0.832031 1 0 1.000000
w_s_key
  0 2.205587 -1.323676 24.222223 0.955334 -0.192744 -0.224024 0.519531 0.933594 1 0 1.000000
  0 2.205587 -0.030116 23.109272 0.912119 0.000000 -0.409926 0.550781 0.964844 1 0 1.000000
  0 2.205587 -1.323676 28.813141 0.955334 -0.192744 0.224022 0.519531 0.832031 1 0 1.000000
w_s_key
  0 2.205587 -1.323676 24.222223 0.634583 -0.772855 0.000000 0.425781 0.324219 1 0 1.000000
  0 2.205587 -1.323676 28.813141 0.634583 -0.772855 0.000000 0.425781 0.214844 1 0 1.000000
  0 1.323352 -2.048069 23.526628 0.265160 -0.964205 0.000000 0.402344 0.347656 1 0 1.000000
w_s_key
  0 2.205587 1.263444 24.222223 0.955334 0.192744 -0.224023 0.582031 0.933594 1 0 1.000000
  0 2.205587 -0.030116 23.109272 0.912119 0.000000 -0.409926 0.550781 0.964844 1 0 1.000000
  0 1.323352 1.987838 23.526628 0.744875 0.430992 -0.509320 0.597656 0.949219 1 0 1.000000
w_s_key
  0 1.323352 -0.030116 31.178162 0.817454 0.000000 0.575994 0.550781 0.769531 1 0 1.000000
  0 2.205587 -0.030116 29.926090 0.912117 0.000000 0.409930 0.550781 0.800781 1 0 1.000000
  0 1.323352 1.987838 29.508736 0.744875 0.430992 0.509320 0.597656 0.808594 1 0 1.000000
w_s_key
  0 2.205587 -1.323676 28.813141 0.955334 -0.192744 0.224022 0.519531 0.832031 1 0 1.000000
  0 2.205587 -0.030116 29.926090 0.912117 0.000000 0.409930 0.550781 0.800781 1 0 1.000000
  0 1.323352 -2.048069 29.508736 0.744875 -0.430992 0.509320 0.503906 0.808594 1 0 1.000000
w_s_key
  0 2.205587 1.263444 28.813141 0.634583 0.772855 0.000000 0.222656 0.214844 1 0 1.000000
  0 2.205587 1.263444 24.222223 0.634583 0.772855 0.000000 0.222656 0.324219 1 0 1.000000
  0 1.323352 1.987838 29.508736 0.265167 0.964202 0.000000 0.246094 0.191406 1 0 1.000000
w_s_key
  0 -2.159154 -1.323676 24.222223 -0.634583 -0.772855 0.000000 0.324219 0.324219 1 0 1.000000
  0 -1.276919 -2.048069 23.526628 -0.265165 -0.964203 0.000000 0.347656 0.347656 1 0 1.000000
  0 -1.276919 -2.048069 29.508736 -0.265159 -0.964205 0.000000 0.347656 0.191406 1 0 1.000000
w_s_key
  0 -2.159154 -0.030116 29.926090 -0.912117 -0.000000 0.409930 0.644531 0.800781 1 0 1.000000
  0 -2.159154 1.263444 28.813141 -0.955335 0.192744 0.224022 0.613281 0.832031 1 0 1.000000
  0 -2.159154 -1.323676 28.813141 -0.955334 -0.192744 0.224022 0.675781 0.832031 1 0 1.000000
w_s_key
  0 -2.159154 1.263444 24.222223 -0.955334 0.192744 -0.224024 0.613281 0.933594 1 0 1.000000
  0 -2.159154 -0.030116 23.109272 -0.912119 -0.000000 -0.409926 0.644531 0.964844 1 0 1.000000
  0 -2.159154 1.263444 28.813141 -0.955335 0.192744 0.224022 0.613281 0.832031 1 0 1.000000
w_s_key
  0 -2.159154 -0.030116 23.109272 -0.912119 -0.000000 -0.409926 0.644531 0.964844 1 0 1.000000
  0 -1.276919 -0.030116 21.857204 -0.817453 -0.000000 -0.575996 0.644531 0.988281 1 0 1.000000
  0 -1.276919 -2.048069 23.526628 -0.744875 -0.430992 -0.509321 0.691406 0.949219 1 0 1.000000
w_s_key
  0 1.323352 -0.030116 21.857204 -0.000000 0.637430 -0.770508 0.511719 0.769531 1 0 1.000000
  0 -1.276919 -0.030116 21.857204 -0.000000 0.637430 -0.770508 0.550781 0.769531 1 0 1.000000
  0 -1.276919 1.987838 23.526628 -0.000000 0.637430 -0.770508 0.550781 0.722656 1 0 1.000000
w_s_key
  0 -1.276919 -0.030116 21.857204 -0.817453 -0.000000 -0.575996 0.644531 0.988281 1 0 1.000000
  0 -2.159154 -0.030116 23.109272 -0.912119 -0.000000 -0.409926 0.644531 0.964844 1 0 1.000000
  0 -1.276919 1.987838 23.526628 -0.744875 0.430992 -0.509320 0.597656 0.949219 1 0 1.000000
w_s_key
  0 -1.276919 -0.030116 31.178162 -0.000000 0.637430 0.770508 0.550781 0.660156 1 0 1.000000
  0 1.323352 -0.030116 31.178162 -0.000000 0.637431 0.770507 0.503906 0.660156 1 0 1.000000
  0 -1.276919 1.987838 29.508736 -0.000000 0.637431 0.770507 0.550781 0.714844 1 0 1.000000
w_s_key
  0 1.323352 -2.048069 29.508736 0.000000 -0.637432 0.770507 0.628906 0.714844 1 0 1.000000
  0 1.323352 -0.030116 31.178162 0.000000 -0.637431 0.770507 0.628906 0.660156 1 0 1.000000
  0 -1.276919 -2.048069 29.508736 0.000000 -0.637431 0.770507 0.582031 0.714844 1 0 1.000000
w_s_key
  0 1.323352 -2.048069 23.526628 0.265160 -0.964205 0.000000 0.402344 0.347656 1 0 1.000000
  0 1.323352 -2.048069 29.508736 0.265165 -0.964203 0.000000 0.402344 0.191406 1 0 1.000000
  0 -1.276919 -2.048069 23.526628 -0.265165 -0.964203 0.000000 0.347656 0.347656 1 0 1.000000
w_s_key
  0 1.323352 -0.030116 21.857204 0.000000 -0.637430 -0.770508 0.628906 0.769531 1 0 1.000000
  0 1.323352 -2.048069 23.526628 0.000000 -0.637430 -0.770508 0.628906 0.722656 1 0 1.000000
  0 -1.276919 -0.030116 21.857204 0.000000 -0.637430 -0.770508 0.582031 0.769531 1 0 1.000000
w_s_key
  0 -1.276919 1.987838 29.508736 -0.265158 0.964205 0.000000 0.308594 0.191406 1 0 1.000000
  0 1.323352 1.987838 29.508736 0.265167 0.964202 0.000000 0.246094 0.191406 1 0 1.000000
  0 -1.276919 1.987838 23.526628 -0.265167 0.964202 0.000000 0.308594 0.347656 1 0 1.000000
w_s_key
  0 1.323352 1.987838 23.526628 -0.000000 0.637430 -0.770509 0.511719 0.722656 1 0 1.000000
  0 1.323352 -0.030116 21.857204 -0.000000 0.637430 -0.770508 0.511719 0.769531 1 0 1.000000
  0 -1.276919 1.987838 23.526628 -0.000000 0.637430 -0.770508 0.550781 0.722656 1 0 1.000000
w_s_key
  0 1.184052 -1.168449 10.032110 0.000000 -0.999472 -0.032491 0.636719 0.332031 1 0 1.000000
  0 -1.137619 -1.168449 10.032110 0.000000 -0.999472 -0.032491 0.582031 0.332031 1 0 1.000000
  0 -1.137619 -1.168449 -2.071221 0.000000 -1.000000 0.000000 0.582031 0.628906 1 0 1.000000
w_s_key
  0 -1.137619 1.108216 10.032110 -0.999419 -0.000000 -0.034088 0.972656 0.394531 1 0 1.000000
  0 -1.137619 1.108216 -2.071221 -1.000000 -0.000000 0.000000 0.972656 0.097656 1 0 1.000000
  0 -1.137619 -1.168449 10.032110 -0.999422 -0.000000 -0.033982 0.925781 0.394531 1 0 1.000000
w_s_key
  0 1.184052 1.108216 10.032110 -0.000000 0.999282 -0.037885 0.746094 0.394531 1 0 1.000000
  0 1.184052 1.108216 -2.071221 -0.000000 1.000000 0.000000 0.746094 0.097656 1 0 1.000000
  0 -1.137619 1.108216 10.032110 -0.000000 0.999282 -0.037885 0.699219 0.394531 1 0 1.000000
w_s_key
  0 1.184052 -1.168449 10.032110 0.999422 0.000000 -0.033981 0.863281 0.394531 1 0 1.000000
  0 1.184052 -1.168449 -2.071221 1.000000 0.000000 0.000000 0.863281 0.097656 1 0 1.000000
  0 1.184052 1.108216 10.032110 0.999419 0.000000 -0.034089 0.808594 0.394531 1 0 1.000000
w_s_key
  0 1.184052 1.108216 -2.071221 0.000000 0.000000 -1.000000 0.753906 0.722656 1 0 1.000000
  0 1.184052 -1.168449 -2.071221 0.000000 0.000000 -1.000000 0.753906 0.667969 1 0 1.000000
  0 -1.137619 1.108216 -2.071221 0.000000 0.000000 -1.000000 0.699219 0.722656 1 0 1.000000
w_s_key
  0 -1.462652 1.470413 14.901266 -0.000000 0.991895 -0.127060 0.691406 0.511719 1 0 1.000000
  0 1.509086 1.470413 14.901266 -0.000000 0.991895 -0.127060 0.753906 0.511719 1 0 1.000000
  0 -1.137619 1.108216 10.032110 -0.000000 0.999282 -0.037885 0.699219 0.394531 1 0 1.000000
w_s_key
  0 1.091185 -2.824205 -0.262677 -0.000000 1.000000 0.000000 0.871094 0.996094 1 0 1.000000
  0 -1.044752 -2.824205 -0.262677 -0.000000 1.000000 0.000000 0.917969 0.996094 1 0 1.000000
  0 0.766152 -2.824205 0.711154 -0.000000 1.000000 0.000000 0.878906 0.972656 1 0 1.000000
w_s_key
  0 -0.719718 -0.806252 0.711154 -1.000000 -0.000000 0.000000 0.324219 0.183594 1 0 1.000000
  0 -0.719718 -2.824205 0.711154 -1.000000 -0.000000 0.000000 0.371094 0.183594 1 0 1.000000
  0 -0.719718 -0.806252 5.580311 -1.000000 -0.000000 0.000000 0.324219 0.058594 1 0 1.000000
w_s_key
  0 0.766151 -0.806252 0.711154 -0.000000 1.000000 0.000000 0.308594 0.058594 1 0 1.000000
  0 -0.719718 -0.806252 0.711154 -0.000000 1.000000 0.000000 0.269531 0.058594 1 0 1.000000
  0 0.766151 -0.806252 5.580311 -0.000000 1.000000 0.000000 0.308594 0.183594 1 0 1.000000
w_s_key
  0 0.766152 -2.824205 0.711154 1.000000 0.000000 0.000000 0.910156 0.691406 1 0 1.000000
  0 0.766151 -0.806252 0.711154 1.000000 0.000000 0.000000 0.871094 0.691406 1 0 1.000000
  0 0.766152 -2.824205 5.580311 1.000000 0.000000 0.000000 0.910156 0.816406 1 0 1.000000
w_s_key
  0 0.766151 -0.806252 5.580311 0.000000 0.000000 1.000000 0.214844 0.113281 1 0 1.000000
  0 -0.719718 -0.806252 5.580311 0.000000 0.000000 1.000000 0.175781 0.113281 1 0 1.000000
  0 0.766152 -2.824205 5.580311 0.000000 0.000000 1.000000 0.214844 0.160156 1 0 1.000000
w_s_key
  0 0.766152 -2.824205 0.711154 0.000000 0.000000 -1.000000 0.855469 0.675781 1 0 1.000000
  0 -0.719718 -2.824205 0.711154 0.000000 0.000000 -1.000000 0.816406 0.675781 1 0 1.000000
  0 0.766151 -0.806252 0.711154 0.000000 0.000000 -1.000000 0.855469 0.722656 1 0 1.000000
w_s_key
  0 1.091185 -2.824205 6.554142 -0.000000 1.000000 0.000000 0.871094 0.824219 1 0 1.000000
  0 0.766152 -2.824205 5.580311 -0.000000 1.000000 0.000000 0.878906 0.855469 1 0 1.000000
  0 -1.044752 -2.824205 6.554142 -0.000000 1.000000 0.000000 0.917969 0.824219 1 0 1.000000
w_s_key
  0 -1.044752 -2.824205 6.554142 -0.000000 1.000000 0.000000 0.917969 0.824219 1 0 1.000000
  0 -0.719718 -2.824205 5.580311 -0.000000 1.000000 0.000000 0.910156 0.855469 1 0 1.000000
  0 -1.044752 -2.824205 -0.262677 -0.000000 1.000000 0.000000 0.917969 0.996094 1 0 1.000000
w_s_key
  0 1.091185 -2.824205 6.554142 -0.000000 1.000000 0.000000 0.871094 0.824219 1 0 1.000000
  0 1.091185 -2.824205 -0.262677 -0.000000 1.000000 0.000000 0.871094 0.996094 1 0 1.000000
  0 0.766152 -2.824205 5.580311 -0.000000 1.000000 0.000000 0.878906 0.855469 1 0 1.000000
w_s_key
  0 -1.044751 -7.274052 -0.262677 0.000000 0.000000 -1.000000 0.378906 0.074219 1 0 1.000000
  0 -1.044752 -2.824205 -0.262677 0.000000 0.000000 -1.000000 0.378906 0.183594 1 0 1.000000
  0 1.091185 -7.274052 -0.262677 0.000000 0.000000 -1.000000 0.417969 0.074219 1 0 1.000000
w_s_key
  0 1.091185 -7.274052 6.554142 0.000000 0.000000 1.000000 0.222656 0.074219 1 0 1.000000
  0 1.091185 -2.824205 6.554142 0.000000 0.000000 1.000000 0.222656 0.183594 1 0 1.000000
  0 -1.044751 -7.274052 6.554142 0.000000 0.000000 1.000000 0.269531 0.074219 1 0 1.000000
w_s_key
  0 -1.044751 -7.274052 4.606480 0.000000 -1.000000 0.000000 0.175781 0.160156 1 0 1.000000
  0 1.091185 -7.274052 4.606480 0.000000 -1.000000 0.000000 0.175781 0.105469 1 0 1.000000
  0 -1.044751 -7.274052 6.554142 0.000000 -1.000000 0.000000 0.128906 0.160156 1 0 1.000000
w_s_key
  0 -1.044751 -4.842159 4.606480 0.000000 0.000000 -1.000000 0.035156 0.160156 1 0 1.000000
  0 1.091185 -4.842159 4.606480 0.000000 0.000000 -1.000000 0.074219 0.160156 1 0 1.000000
  0 -1.044751 -7.274052 4.606480 0.000000 0.000000 -1.000000 0.035156 0.097656 1 0 1.000000
w_s_key
  0 1.091185 -4.842159 4.606480 0.000000 -1.000000 0.000000 0.636719 0.761719 1 0 1.000000
  0 -1.044751 -4.842159 4.606480 0.000000 -1.000000 0.000000 0.683594 0.761719 1 0 1.000000
  0 1.091185 -4.842159 1.684985 0.000000 -1.000000 0.000000 0.636719 0.691406 1 0 1.000000
w_s_key
  0 1.091185 -4.842159 1.684985 0.000000 0.000000 1.000000 0.082031 0.160156 1 0 1.000000
  0 -1.044751 -4.842159 1.684985 0.000000 0.000000 1.000000 0.128906 0.160156 1 0 1.000000
  0 1.091185 -7.274052 1.684985 0.000000 0.000000 1.000000 0.082031 0.097656 1 0 1.000000
w_s_key
  0 1.091185 -7.274052 -0.262677 0.000000 -1.000000 0.000000 0.542969 0.097656 1 0 1.000000
  0 1.091185 -7.274052 1.684985 0.000000 -1.000000 0.000000 0.496094 0.097656 1 0 1.000000
  0 -1.044751 -7.274052 -0.262677 0.000000 -1.000000 0.000000 0.542969 0.144531 1 0 1.000000
w_s_key
  0 1.091185 -7.274052 6.554142 1.000000 0.000000 0.000000 0.105469 0.339844 1 0 1.000000
  0 1.091185 -7.274052 4.606480 1.000000 0.000000 0.000000 0.105469 0.292969 1 0 1.000000
  0 1.091185 -2.824205 6.554142 1.000000 0.000000 0.000000 0.011719 0.339844 1 0 1.000000
w_s_key
  0 1.091185 -7.274052 4.606480 1.000000 0.000000 0.000000 0.105469 0.292969 1 0 1.000000
  0 1.091185 -4.842159 4.606480 1.000000 0.000000 0.000000 0.050781 0.292969 1 0 1.000000
  0 1.091185 -2.824205 6.554142 1.000000 0.000000 0.000000 0.011719 0.339844 1 0 1.000000
w_s_key
  0 1.091185 -7.274052 -0.262677 1.000000 0.000000 0.000000 0.105469 0.167969 1 0 1.000000
  0 1.091185 -2.824205 -0.262677 1.000000 0.000000 0.000000 0.011719 0.167969 1 0 1.000000
  0 1.091185 -7.274052 1.684985 1.000000 0.000000 0.000000 0.105469 0.222656 1 0 1.000000
w_s_key
  0 1.091185 -4.842159 4.606480 1.000000 0.000000 0.000000 0.050781 0.292969 1 0 1.000000
  0 1.091185 -4.842159 1.684985 1.000000 0.000000 0.000000 0.050781 0.222656 1 0 1.000000
  0 1.091185 -2.824205 6.554142 1.000000 0.000000 0.000000 0.011719 0.339844 1 0 1.000000
w_s_key
  0 1.091185 -7.274052 1.684985 1.000000 0.000000 0.000000 0.105469 0.222656 1 0 1.000000
  0 1.091185 -2.824205 -0.262677 1.000000 0.000000 0.000000 0.011719 0.167969 1 0 1.000000
  0 1.091185 -4.842159 1.684985 1.000000 0.000000 0.000000 0.050781 0.222656 1 0 1.000000
w_s_key
  0 -1.044751 -7.274052 -0.262677 -1.000000 -0.000000 0.000000 0.113281 0.167969 1 0 1.000000
  0 -1.044751 -7.274052 1.684985 -1.000000 -0.000000 0.000000 0.113281 0.222656 1 0 1.000000
  0 -1.044752 -2.824205 -0.262677 -1.000000 -0.000000 0.000000 0.214844 0.167969 1 0 1.000000
w_s_key
  0 -1.044751 -7.274052 1.684985 -1.000000 -0.000000 0.000000 0.113281 0.222656 1 0 1.000000
  0 -1.044751 -4.842159 1.684985 -1.000000 -0.000000 0.000000 0.167969 0.222656 1 0 1.000000
  0 -1.044752 -2.824205 -0.262677 -1.000000 -0.000000 0.000000 0.214844 0.167969 1 0 1.000000
w_s_key
  0 -1.044751 -7.274052 6.554142 -1.000000 -0.000000 0.000000 0.113281 0.339844 1 0 1.000000
  0 -1.044752 -2.824205 6.554142 -1.000000 -0.000000 -0.000000 0.214844 0.339844 1 0 1.000000
  0 -1.044751 -7.274052 4.606480 -1.000000 -0.000000 -0.000000 0.113281 0.292969 1 0 1.000000
w_s_key
  0 -1.044751 -4.842159 1.684985 -1.000000 -0.000000 0.000000 0.167969 0.222656 1 0 1.000000
  0 -1.044751 -4.842159 4.606480 -1.000000 -0.000000 -0.000000 0.167969 0.292969 1 0 1.000000
  0 -1.044752 -2.824205 -0.262677 -1.000000 -0.000000 0.000000 0.214844 0.167969 1 0 1.000000
w_s_key
  0 -1.044751 -7.274052 4.606480 -1.000000 -0.000000 -0.000000 0.113281 0.292969 1 0 1.000000
  0 -1.044752 -2.824205 6.554142 -1.000000 -0.000000 -0.000000 0.214844 0.339844 1 0 1.000000
  0 -1.044751 -4.842159 4.606480 -1.000000 -0.000000 -0.000000 0.167969 0.292969 1 0 1.000000
w_s_key
  0 1.509086 1.470413 14.901266 0.992214 0.000000 -0.124546 0.800781 0.511719 1 0 1.000000
  0 1.509086 -1.478903 14.901266 0.992217 0.000000 -0.124518 0.871094 0.511719 1 0 1.000000
  0 1.184052 1.108216 10.032110 0.999419 0.000000 -0.034089 0.808594 0.394531 1 0 1.000000
w_s_key
  0 -1.462652 -1.478903 14.901266 -0.992217 -0.000000 -0.124518 0.917969 0.511719 1 0 1.000000
  0 -1.462652 1.470413 14.901266 -0.992214 -0.000000 -0.124546 0.980469 0.511719 1 0 1.000000
  0 -1.137619 -1.168449 10.032110 -0.999422 -0.000000 -0.033982 0.925781 0.394531 1 0 1.000000
w_s_key
  0 1.184052 -1.168449 10.032110 0.000000 -0.999472 -0.032491 0.636719 0.332031 1 0 1.000000
  0 1.509086 -1.478903 14.901266 0.000000 -0.991795 -0.127838 0.644531 0.214844 1 0 1.000000
  0 -1.462652 -1.478903 14.901266 0.000000 -0.991795 -0.127839 0.582031 0.214844 1 0 1.000000
w_s_key
  0 2.344887 -2.358524 19.631304 0.000000 -0.983145 -0.182830 0.660156 0.097656 1 0 1.000000
  0 -2.298453 -2.358524 19.631304 0.000000 -0.983144 -0.182830 0.558594 0.097656 1 0 1.000000
  0 1.509086 -1.478903 14.901266 0.000000 -0.991795 -0.127838 0.644531 0.214844 1 0 1.000000
w_s_key
  0 -2.298453 -2.358524 19.631304 -0.984745 -0.000000 -0.174005 0.894531 0.628906 1 0 1.000000
  0 -2.298453 2.298292 19.631304 -0.984745 -0.000000 -0.174005 0.996094 0.628906 1 0 1.000000
  0 -1.462652 -1.478903 14.901266 -0.992217 -0.000000 -0.124518 0.917969 0.511719 1 0 1.000000
w_s_key
  0 2.344887 2.298292 19.631304 0.984745 0.000000 -0.174005 0.785156 0.628906 1 0 1.000000
  0 2.344887 -2.358524 19.631304 0.984745 0.000000 -0.174005 0.886719 0.628906 1 0 1.000000
  0 1.509086 1.470413 14.901266 0.992214 0.000000 -0.124546 0.800781 0.511719 1 0 1.000000
w_s_key
  0 -2.298453 2.298292 19.631304 -0.000000 0.985026 -0.172405 0.675781 0.628906 1 0 1.000000
  0 2.344887 2.298292 19.631304 -0.000000 0.985026 -0.172405 0.777344 0.628906 1 0 1.000000
  0 -1.462652 1.470413 14.901266 -0.000000 0.991895 -0.127060 0.691406 0.511719 1 0 1.000000
w_s_key
  0 -2.948521 -5.152614 20.883373 -0.713192 -0.700969 0.000000 0.972656 0.738281 1 0 1.000000
  0 -5.084458 -2.979433 20.883373 -0.864599 -0.502463 0.000000 0.972656 0.792969 1 0 1.000000
  0 -2.948521 -5.152614 19.909542 -0.713192 -0.700969 0.000000 0.996094 0.738281 1 0 1.000000
w_s_key
  0 0.023216 5.920259 20.883373 0.000007 1.000000 0.000000 0.542969 0.269531 1 0 1.000000
  0 2.994955 5.092381 20.883373 0.268364 0.963318 0.000000 0.542969 0.339844 1 0 1.000000
  0 0.023216 5.920259 19.909542 -0.000008 1.000000 0.000000 0.566406 0.269531 1 0 1.000000
w_s_key
  0 5.130892 -2.979432 20.883373 0.868252 -0.496123 0.000000 0.964844 0.792969 1 0 1.000000
  0 5.130892 -2.979432 19.909542 0.868245 -0.496135 0.000000 0.941406 0.792969 1 0 1.000000
  0 5.920259 -0.030116 20.883373 1.000000 -0.000000 0.000000 0.964844 0.863281 1 0 1.000000
w_s_key
  0 0.023217 -5.928749 20.883373 0.000000 -1.000000 0.000000 0.003906 0.082031 1 0 1.000000
  0 -2.948521 -5.152614 20.883373 -0.252696 -0.967546 0.000000 0.003906 0.152344 1 0 1.000000
  0 0.023217 -5.928749 19.909542 -0.000000 -1.000000 0.000000 0.027344 0.082031 1 0 1.000000
w_s_key
  0 -2.948522 5.092381 20.883373 -0.268364 0.963318 0.000000 0.542969 0.199219 1 0 1.000000
  0 0.023216 5.920259 20.883373 0.000007 1.000000 0.000000 0.542969 0.269531 1 0 1.000000
  0 -2.948522 5.092381 19.909542 -0.268364 0.963317 0.000000 0.566406 0.199219 1 0 1.000000
w_s_key
  0 5.130892 2.919201 20.883373 0.868252 0.496123 0.000000 0.964844 0.941406 1 0 1.000000
  0 5.920259 -0.030116 20.883373 1.000000 -0.000000 0.000000 0.964844 0.863281 1 0 1.000000
  0 5.130892 2.919201 19.909542 0.868245 0.496135 0.000000 0.941406 0.941406 1 0 1.000000
w_s_key
  0 0.023217 -5.928749 20.883373 0.000000 -1.000000 0.000000 0.003906 0.082031 1 0 1.000000
  0 0.023217 -5.928749 19.909542 -0.000000 -1.000000 0.000000 0.027344 0.082031 1 0 1.000000
  0 2.994955 -5.152614 20.883373 0.252696 -0.967546 0.000000 0.003906 0.011719 1 0 1.000000
w_s_key
  0 -5.084458 2.919201 20.883373 -0.864592 0.502474 0.000000 0.972656 0.941406 1 0 1.000000
  0 -2.948522 5.092381 20.883373 -0.713192 0.700969 0.000000 0.972656 0.988281 1 0 1.000000
  0 -5.084458 2.919201 19.909542 -0.864599 0.502463 0.000000 0.996094 0.941406 1 0 1.000000
w_s_key
  0 -5.084458 -2.979433 20.883373 -0.864599 -0.502463 0.000000 0.972656 0.792969 1 0 1.000000
  0 -5.920259 -0.030116 20.883373 -1.000000 0.000007 0.000000 0.972656 0.863281 1 0 1.000000
  0 -5.084458 -2.979433 19.909542 -0.864592 -0.502474 0.000000 0.996094 0.792969 1 0 1.000000
w_s_key
  0 2.994955 5.092381 20.883373 0.713192 0.700969 0.000000 0.964844 0.988281 1 0 1.000000
  0 5.130892 2.919201 20.883373 0.868252 0.496123 0.000000 0.964844 0.941406 1 0 1.000000
  0 2.994955 5.092381 19.909542 0.713192 0.700969 0.000000 0.941406 0.988281 1 0 1.000000
w_s_key
  0 2.994955 -5.152614 20.883373 0.713192 -0.700968 0.000000 0.964844 0.738281 1 0 1.000000
  0 2.994955 -5.152614 19.909542 0.713192 -0.700969 0.000000 0.941406 0.738281 1 0 1.000000
  0 5.130892 -2.979432 20.883373 0.868252 -0.496123 0.000000 0.964844 0.792969 1 0 1.000000
w_s_key
  0 -5.920259 -0.030116 20.883373 -1.000000 0.000007 0.000000 0.972656 0.863281 1 0 1.000000
  0 -5.084458 2.919201 20.883373 -0.864592 0.502474 0.000000 0.972656 0.941406 1 0 1.000000
  0 -5.920259 -0.030116 19.909542 -1.000000 -0.000007 0.000000 0.996094 0.863281 1 0 1.000000
w_s_key
  0 -5.084458 -2.979433 20.883373 -0.000000 0.000002 1.000000 0.019531 0.535156 1 0 1.000000
  0 -2.948521 -5.152614 20.883373 -0.000000 0.000000 1.000000 0.050781 0.605469 1 0 1.000000
  0 -5.920259 -0.030116 20.883373 -0.000000 0.000000 1.000000 0.019531 0.464844 1 0 1.000000
w_s_key
  0 0.023217 -5.928749 20.883373 0.000000 0.000000 1.000000 0.105469 0.636719 1 0 1.000000
  0 2.994955 -5.152614 20.883373 0.000000 -0.000000 1.000000 0.175781 0.636719 1 0 1.000000
  0 -2.948521 -5.152614 20.883373 -0.000000 0.000000 1.000000 0.050781 0.605469 1 0 1.000000
w_s_key
  0 5.130892 -2.979432 20.883373 0.000000 -0.000002 1.000000 0.230469 0.605469 1 0 1.000000
  0 5.920259 -0.030116 20.883373 0.000000 -0.000000 1.000000 0.269531 0.535156 1 0 1.000000
  0 2.994955 -5.152614 20.883373 0.000000 -0.000000 1.000000 0.175781 0.636719 1 0 1.000000
w_s_key
  0 5.130892 2.919201 20.883373 -0.000000 0.000002 1.000000 0.269531 0.464844 1 0 1.000000
  0 2.994955 5.092381 20.883373 -0.000000 0.000000 1.000000 0.230469 0.394531 1 0 1.000000
  0 5.920259 -0.030116 20.883373 0.000000 -0.000000 1.000000 0.269531 0.535156 1 0 1.000000
w_s_key
  0 0.023216 5.920259 20.883373 0.000000 0.000000 1.000000 0.175781 0.363281 1 0 1.000000
  0 -2.948522 5.092381 20.883373 0.000000 -0.000000 1.000000 0.105469 0.363281 1 0 1.000000
  0 2.994955 5.092381 20.883373 -0.000000 0.000000 1.000000 0.230469 0.394531 1 0 1.000000
w_s_key
  0 -5.084458 2.919201 20.883373 0.000000 -0.000002 1.000000 0.050781 0.394531 1 0 1.000000
  0 -5.920259 -0.030116 20.883373 -0.000000 0.000000 1.000000 0.019531 0.464844 1 0 1.000000
  0 -2.948522 5.092381 20.883373 0.000000 -0.000000 1.000000 0.105469 0.363281 1 0 1.000000
w_s_key
  0 -2.948521 -5.152614 20.883373 -0.000000 0.000000 1.000000 0.050781 0.605469 1 0 1.000000
  0 2.994955 -5.152614 20.883373 0.000000 -0.000000 1.000000 0.175781 0.636719 1 0 1.000000
  0 -5.920259 -0.030116 20.883373 -0.000000 0.000000 1.000000 0.019531 0.464844 1 0 1.000000
w_s_key
  0 5.920259 -0.030116 20.883373 0.000000 -0.000000 1.000000 0.269531 0.535156 1 0 1.000000
  0 2.994955 5.092381 20.883373 -0.000000 0.000000 1.000000 0.230469 0.394531 1 0 1.000000
  0 2.994955 -5.152614 20.883373 0.000000 -0.000000 1.000000 0.175781 0.636719 1 0 1.000000
w_s_key
  0 -2.948522 5.092381 20.883373 0.000000 -0.000000 1.000000 0.105469 0.363281 1 0 1.000000
  0 -5.920259 -0.030116 20.883373 -0.000000 0.000000 1.000000 0.019531 0.464844 1 0 1.000000
  0 2.994955 5.092381 20.883373 -0.000000 0.000000 1.000000 0.230469 0.394531 1 0 1.000000
w_s_key
  0 -0.998318 -5.256098 30.482567 0.000000 -0.989544 -0.144232 0.816406 0.738281 1 0 1.000000
  0 -0.998318 -3.755569 20.187778 0.000000 -0.989544 -0.144232 0.816406 0.988281 1 0 1.000000
  0 1.044752 -5.256098 30.482567 0.000000 -0.989544 -0.144232 0.855469 0.738281 1 0 1.000000
w_s_key
  0 -0.998318 -3.755569 20.187778 -1.000000 -0.000000 0.000000 0.300781 0.667969 1 0 1.000000
  0 -0.998318 -5.256098 30.482567 -1.000000 -0.000000 0.000000 0.269531 0.917969 1 0 1.000000
  0 -0.998318 3.695336 20.187778 -1.000000 -0.000000 0.000000 0.464844 0.667969 1 0 1.000000
w_s_key
  0 -0.998318 -0.030116 33.404060 -1.000000 -0.000000 0.000000 0.378906 0.988281 1 0 1.000000
  0 -0.998318 5.195866 30.482567 -1.000000 -0.000000 0.000000 0.496094 0.917969 1 0 1.000000
  0 -0.998318 -5.256098 30.482567 -1.000000 -0.000000 0.000000 0.269531 0.917969 1 0 1.000000
w_s_key
  0 1.044751 5.195866 30.482567 -0.000000 0.989544 -0.144232 0.433594 0.082031 1 0 1.000000
  0 1.044752 3.695336 20.187778 -0.000000 0.989544 -0.144232 0.433594 0.332031 1 0 1.000000
  0 -0.998318 5.195866 30.482567 -0.000000 0.989544 -0.144232 0.480469 0.082031 1 0 1.000000
w_s_key
  0 1.044752 3.695336 20.187778 1.000000 0.000000 0.000000 0.050781 0.667969 1 0 1.000000
  0 1.044751 5.195866 30.482567 1.000000 0.000000 0.000000 0.011719 0.917969 1 0 1.000000
  0 1.044752 -3.755569 20.187778 1.000000 0.000000 0.000000 0.214844 0.667969 1 0 1.000000
w_s_key
  0 1.044752 -0.030116 33.404060 1.000000 0.000000 0.000000 0.128906 0.988281 1 0 1.000000
  0 1.044752 -5.256098 30.482567 1.000000 0.000000 0.000000 0.246094 0.917969 1 0 1.000000
  0 1.044751 5.195866 30.482567 1.000000 0.000000 0.000000 0.011719 0.917969 1 0 1.000000
w_s_key
  0 1.044752 3.695336 20.187778 0.000000 0.000000 -1.000000 0.542969 0.339844 1 0 1.000000
  0 1.044752 -3.755569 20.187778 0.000000 0.000000 -1.000000 0.542969 0.160156 1 0 1.000000
  0 -0.998318 3.695336 20.187778 0.000000 0.000000 -1.000000 0.496094 0.339844 1 0 1.000000
w_s_key
  0 1.044752 -5.256098 30.482567 0.000000 -0.487961 0.872866 0.746094 0.988281 1 0 1.000000
  0 1.044752 -0.030116 33.404060 -0.000000 0.000015 1.000000 0.746094 0.863281 1 0 1.000000
  0 -0.998318 -5.256098 30.482567 0.000000 -0.487960 0.872866 0.699219 0.988281 1 0 1.000000
w_s_key
  0 1.044752 -0.030116 33.404060 -0.000000 0.000015 1.000000 0.746094 0.863281 1 0 1.000000
  0 1.044751 5.195866 30.482567 -0.000000 0.487960 0.872866 0.746094 0.738281 1 0 1.000000
  0 -0.998318 -0.030116 33.404060 0.000000 -0.000015 1.000000 0.699219 0.863281 1 0 1.000000
end
