version 1
nodes
0 "Bone.016" -1
1 "Bone" 0
2 "Bone.001" 1
3 "Bone.003" 2
4 "Arm.L.001" 2
5 "Arm.L.003" 4
6 "Arm.L.004" 5
7 "Arm.L.005" 6
8 "Arm.L.007" 4
9 "Arm.L.008" 8
10 "Arm.L.009" 9
11 "Arm.L.011" 4
12 "Arm.L.012" 11
13 "Arm.L.013" 12
14 "Bone.004" 2
15 "Bone.006" 14
16 "Bone.007" 15
17 "Bone.008" 16
18 "Bone.010" 14
19 "Bone.011" 18
20 "Bone.012" 19
21 "Bone.013" 20
22 "Bone.014" 0
23 "Tent.002" 22
24 "Tent.003" 23
25 "Tent.004" 24
26 "Bone.015" 22
27 "Leg.L.001" 26
28 "Leg.L.003" 27
29 "Leg.L.004" 28
30 "Leg.L.005" 29
31 "Leg.L.006" 30
32 "Leg.L.009" 27
33 "Leg.R.001" 26
34 "Leg.R.003" 33
35 "Leg.R.004" 34
36 "Leg.R.005" 35
37 "Leg.R.006" 36
38 "Leg.R.009" 33
39 "Spine.L.001" 22
40 "Spine.L.005" 39
41 "Spine.L.004" 39
42 "Spine.R.001" 22
43 "Spine.R.005" 42
44 "Spine.R.004" 42
end
skeleton
  time 0
  0 -0.001140 1.445637 32.118774 1.570796 -0.000000 1.570796
  1 -1.445640 -28.466515 0.001142 -0.060124 -0.019315 -0.324990
  2 0.000000 8.262691 0.000000 -0.057277 0.043249 0.182913
  3 0.000001 5.965773 -0.000000 0.002614 0.006149 -0.549599
  4 0.000001 5.965773 -0.000000 -1.617970 -0.063362 0.070677
  5 0.000001 7.629250 -1.118938 0.053255 0.088803 -0.391917
  6 0.000001 13.154880 0.000003 0.284189 0.299556 -1.374844
  7 0.000000 14.721385 0.000002 0.194738 -0.064694 -0.879841
  8 -1.861428 7.666950 0.620428 0.427489 0.039117 -0.147782
  9 0.000001 2.444921 -0.000001 0.133164 -0.248905 -0.698571
  10 -0.000000 2.432505 -0.000001 0.090885 -0.022663 -0.340593
  11 -3.472168 5.539384 -3.197415 1.039449 -0.515047 0.241994
  12 -0.000000 7.047306 0.000001 -0.125396 -0.303790 -1.238176
  13 -0.000001 8.630062 0.000001 -0.422009 -0.301187 -0.364618
  14 0.000001 5.965773 -0.000000 1.570387 0.063362 -3.070916
  15 0.000000 7.674962 -1.560057 0.481592 -0.431703 -0.186546
  16 0.000000 13.236122 0.000002 0.441820 -0.357000 0.988329
  17 -0.000000 14.645543 -0.000001 0.303444 -0.176769 0.534096
  18 2.026716 7.454577 0.321389 0.187290 0.505200 -0.337722
  19 0.000001 2.313500 -0.000001 0.496314 -0.154185 0.612578
  20 0.000001 11.242271 0.000003 -0.027650 0.207746 1.813061
  21 0.000002 12.545881 0.000000 -0.172271 -0.070848 0.555478
  22 -1.445637 -28.466518 0.001142 -3.116867 -0.011810 0.189455
  23 -1.684165 2.626005 -5.070527 -1.155583 0.143286 2.825562
  24 0.000004 8.320004 0.000006 0.183817 0.297104 1.292933
  25 0.000001 8.623930 0.000005 0.061810 0.106849 0.748383
  26 -0.000001 11.070593 0.000010 0.011636 3.139081 -0.259453
  27 0.000002 4.509338 -0.000004 0.852214 3.017742 -0.016440
  28 1.125616 8.218363 2.253410 1.259585 -0.298607 -0.046692
  29 0.000002 3.803346 -0.000006 -0.446293 -0.192224 -1.010854
  30 -0.000008 12.384512 0.000012 -0.513900 -1.114058 -0.302022
  31 0.000015 15.308054 0.000001 -0.812182 -0.350103 0.055541
  32 3.320577 8.398379 1.366536 -0.388718 0.792699 -1.294060
  33 -0.017633 4.512974 -0.014522 -0.761988 2.947792 -0.053844
  34 0.991718 8.218365 -2.315456 -0.906564 0.608312 0.661154
  35 0.000003 3.803347 0.000004 0.099733 0.638718 -1.186351
  36 -0.000003 12.384514 -0.000013 0.559180 0.323596 -0.824683
  37 0.000012 15.308056 -0.000010 -0.122576 1.321145 -0.843804
  38 3.234848 8.398381 -1.558641 0.357338 -0.871948 -1.290176
  39 -0.000001 11.070593 0.000010 0.899181 0.567890 -0.519091
  40 2.449931 10.983633 -2.573148 -0.085072 0.444308 -1.094778
  41 4.402829 9.302388 2.445698 -0.284113 0.444308 -1.094778
  42 0.016270 11.066986 -0.052109 -0.947900 -0.602958 -0.431019
  43 2.704788 11.105513 2.309134 0.001526 -1.166283 -1.161895
  44 4.133243 9.179072 -2.801279 0.233522 -0.591616 -1.203751
  time 1
  0 -0.001140 1.445637 35.264400 1.570796 -0.000000 1.570796
  1 -1.445640 -28.466515 0.001142 -0.152891 0.004494 -0.121762
  2 0.000001 8.262689 -0.000001 -0.057277 0.043248 0.182913
  3 0.000000 5.965776 0.000000 0.017777 -0.099702 0.126151
  4 0.000000 5.965776 0.000000 -1.616909 -0.099907 0.071023
  5 0.000001 7.629251 -1.118935 0.075898 0.083762 -0.339884
  6 -0.000001 13.154881 0.000000 0.294628 0.321044 -1.265292
  7 0.000002 14.721386 0.000000 0.179792 -0.055176 -0.841395
  8 -1.861430 7.666951 0.620427 0.373718 0.089070 -0.099648
  9 -0.000000 2.444921 -0.000000 0.144177 -0.264801 -0.648917
  10 0.000000 2.432505 -0.000001 0.090885 -0.022663 -0.340593
  11 -3.472170 5.539384 -3.197415 0.950317 -0.807162 0.263775
  12 0.000002 7.047307 -0.000000 -0.166763 -0.433719 -0.834055
  13 -0.000001 8.630060 0.000001 -0.422009 -0.301187 -0.364618
  14 0.000000 5.965776 0.000000 1.564074 0.029738 -3.068975
  15 0.000000 7.674963 -1.560057 0.496022 -0.397914 -0.325663
  16 0.000000 13.236124 -0.000002 0.287430 -0.309817 0.786884
  17 -0.000001 14.645546 0.000001 0.303445 -0.176769 0.534096
  18 2.026716 7.454578 0.321390 0.075517 0.480029 -0.436303
  19 0.000001 2.313501 -0.000001 0.384708 0.173420 0.051397
  20 0.000000 11.242270 -0.000000 -0.110330 -0.410229 1.436597
  21 0.000001 12.545881 -0.000001 -0.172271 -0.070847 0.555478
  22 -1.445637 -28.466518 0.001142 -3.127947 -0.003258 -0.233034
  23 -1.684164 2.625995 -5.070538 -1.097479 -0.730265 2.810779
  24 -0.000009 8.319989 -0.000004 0.009224 0.131906 0.711996
  25 -0.000002 8.623935 -0.000004 0.061810 0.106849 0.748383
  26 -0.000004 11.070607 -0.000002 0.011636 3.139080 -0.269199
  27 -0.000001 4.509340 -0.000003 0.852216 3.017743 -0.016440
  28 1.125610 8.218375 2.253398 1.124701 -0.307762 -0.000818
  29 0.000003 3.803346 -0.000004 -0.296874 0.000609 -0.944894
  30 -0.000011 12.384513 0.000004 -0.293687 -1.283422 -0.441840
  31 0.000009 15.308051 0.000008 -0.812183 -0.350102 0.055542
  32 3.320571 8.398393 1.366524 -0.388718 0.792697 -1.294060
  33 -0.017636 4.512977 -0.014521 -0.761989 2.947792 -0.053844
  34 0.991716 8.218367 -2.315450 -0.773603 0.594268 0.715421
  35 0.000004 3.803345 0.000002 -0.108716 0.583011 -0.969875
  36 -0.000006 12.384519 -0.000013 0.481939 0.242606 -0.932072
  37 -0.000002 15.308056 -0.000012 -0.621011 1.248800 -1.291135
  38 3.234845 8.398384 -1.558633 0.357338 -0.871947 -1.290176
  39 -0.000004 11.070607 -0.000002 0.847075 0.355972 -0.538224
  40 2.500071 10.935961 -2.604378 -0.012028 0.447985 -0.919859
  41 4.353961 9.348147 2.480850 -0.211039 0.448384 -0.919856
  42 0.016267 11.066998 -0.052122 -0.931102 -0.332788 -0.408026
  43 2.880957 10.726501 2.434319 -0.120894 -1.020378 -0.865045
  44 3.957454 9.557106 -2.916878 0.157613 -0.458742 -0.966127
  time 2
  0 -0.001140 1.445637 36.499908 1.570796 -0.000000 1.570796
  1 -1.445640 -28.466515 0.001142 -0.232506 0.072019 0.295020
  2 -0.000001 8.262690 -0.000000 -0.057277 0.043248 0.182913
  3 0.000000 5.965774 0.000000 -0.053286 -0.144439 0.807624
  4 0.000000 5.965774 0.000000 -1.614179 -0.195033 0.071747
  5 -0.000002 7.629252 -1.118940 0.125965 0.070741 -0.233305
  6 0.000000 13.154880 0.000001 0.332906 0.367231 -1.013374
  7 0.000001 14.721380 -0.000002 0.143855 -0.028703 -0.745191
  8 -1.861431 7.666951 0.620426 0.340850 0.118768 0.002255
  9 0.000000 2.444921 0.000001 0.165345 -0.293515 -0.516070
  10 -0.000000 2.432505 -0.000000 0.090885 -0.022663 -0.340593
  11 -3.472171 5.539384 -3.197415 0.801535 -1.095406 0.352694
  12 0.000002 7.047307 0.000000 -0.258921 -0.428280 -0.419035
  13 0.000001 8.630060 -0.000002 -0.422009 -0.301187 -0.364618
  14 0.000000 5.965774 0.000000 1.548806 -0.057621 -3.063251
  15 -0.000003 7.674962 -1.560059 0.855789 -0.449231 -0.173276
  16 0.000002 13.236127 0.000001 0.350981 -0.272381 0.809847
  17 -0.000001 14.645548 0.000000 0.303445 -0.176769 0.534096
  18 2.026714 7.454576 0.321385 -0.028388 0.404827 -0.528695
  19 0.000000 2.313501 -0.000001 0.192751 0.384494 -0.158651
  20 -0.000001 11.242270 -0.000003 0.307393 -0.972920 0.584880
  21 -0.000000 12.545883 0.000001 -0.172270 -0.070848 0.555478
  22 -1.445637 -28.466518 0.001142 3.141592 0.000000 -0.655551
  23 -1.684155 2.626000 -5.070532 -0.766218 -1.311833 2.536321
  24 -0.000005 8.319987 0.000006 -0.038568 -0.003974 0.435202
  25 -0.000010 8.623926 0.000007 0.061810 0.106849 0.748383
  26 0.000010 11.070598 0.000007 0.011635 3.139080 -0.294350
  27 -0.000001 4.509344 0.000000 0.852214 3.017743 -0.016441
  28 1.125613 8.218371 2.253402 0.888085 -0.296221 0.094900
  29 0.000002 3.803347 0.000000 0.039993 0.329236 -0.732230
  30 -0.000005 12.384512 -0.000008 1.133549 -1.419389 -1.701295
  31 0.000002 15.308059 0.000018 -0.812182 -0.350103 0.055541
  32 3.320574 8.398392 1.366526 -0.388718 0.792697 -1.294060
  33 -0.017635 4.512981 -0.014518 -0.761990 2.947792 -0.053844
  34 0.991711 8.218376 -2.315443 -0.533642 0.543568 0.810881
  35 0.000004 3.803346 -0.000001 -0.378506 0.585003 -0.791628
  36 0.000003 12.384519 -0.000009 0.322090 0.140606 -1.050838
  37 -0.000013 15.308053 -0.000008 -0.845766 1.169060 -1.478627
  38 3.234841 8.398395 -1.558625 0.357339 -0.871947 -1.290174
  39 0.000010 11.070598 0.000007 0.841095 0.144655 -0.550902
  40 2.562918 10.903835 -2.637417 0.134510 0.422131 -0.594506
  41 4.290477 9.381245 2.511913 -0.064474 0.422324 -0.594473
  42 0.016282 11.066990 -0.052112 -0.923575 -0.062930 -0.384452
  43 3.054142 10.351836 2.544968 -0.076496 -0.879348 -0.759894
  44 3.783405 9.933416 -3.035596 0.161664 -0.307546 -0.838299
  time 3
  0 -0.001140 1.445637 34.981438 1.570796 -0.000000 1.570796
  1 -1.445640 -28.466515 0.001142 -0.178854 0.098488 0.701697
  2 -0.000000 8.262690 -0.000000 -0.057277 0.043249 0.182913
  3 -0.000000 5.965775 -0.000000 -0.016295 -0.129149 0.278443
  4 -0.000000 5.965775 -0.000000 -1.610406 -0.326534 0.072330
  5 0.000001 7.629251 -1.118939 0.178105 0.052986 -0.127883
  6 0.000002 13.154878 -0.000002 0.398715 0.407690 -0.749920
  7 0.000000 14.721386 -0.000001 0.100903 0.010968 -0.620646
  8 -1.861430 7.666951 0.620425 0.324805 0.133186 0.137834
  9 -0.000000 2.444921 0.000001 0.187515 -0.333510 -0.328262
  10 -0.000000 2.432504 -0.000001 0.090885 -0.022663 -0.340593
  11 -3.472166 5.539382 -3.197413 0.892188 -0.945680 0.292629
  12 -0.000000 7.047307 0.000001 -0.296660 -0.536728 -0.538289
  13 -0.000000 8.630062 -0.000002 -0.422009 -0.301187 -0.364618
  14 -0.000000 5.965775 -0.000000 -1.614563 -2.963551 0.088453
  15 -0.000001 7.674963 -1.560058 1.217552 -0.589520 0.008568
  16 0.000003 13.236126 -0.000001 0.516969 -0.182748 0.879170
  17 0.000001 14.645546 0.000005 0.303445 -0.176769 0.534096
  18 2.026716 7.454577 0.321387 -0.004592 0.301854 -0.457792
  19 -0.000001 2.313501 0.000001 0.375818 0.276302 0.774944
  20 -0.000002 11.242269 0.000000 0.414509 -0.841561 0.253817
  21 0.000002 12.545880 0.000002 -0.172270 -0.070847 0.555478
  22 -1.445637 -28.466518 0.001142 -3.141592 0.000000 -0.147830
  23 -1.684164 2.625995 -5.070538 2.223267 -1.956177 -0.519805
  24 -0.000004 8.319984 -0.000001 0.047993 0.197490 0.652173
  25 -0.000008 8.623928 -0.000005 0.061809 0.106849 0.748383
  26 -0.000007 11.070608 -0.000004 0.011635 3.139081 -0.328765
  27 0.000000 4.509339 0.000004 0.852214 3.017742 -0.016441
  28 1.125610 8.218378 2.253396 0.755871 -0.252447 0.170172
  29 0.000002 3.803347 -0.000004 0.260084 0.463928 -0.566383
  30 -0.000003 12.384519 0.000001 -1.204400 -1.837185 0.714710
  31 0.000013 15.308073 0.000007 -0.812182 -0.350102 0.055541
  32 3.320571 8.398396 1.366522 -0.388718 0.792696 -1.294060
  33 -0.017635 4.512976 -0.014514 -0.761990 2.947790 -0.053845
  34 0.991717 8.218365 -2.315453 -0.413169 0.480062 0.863377
  35 0.000004 3.803347 0.000003 -0.546329 0.581977 -0.757533
  36 0.000009 12.384511 0.000019 0.237888 0.085473 -1.101367
  37 -0.000011 15.308075 -0.000017 -0.911138 1.135321 -1.529580
  38 3.234845 8.398383 -1.558636 0.357338 -0.871948 -1.290176
  39 -0.000007 11.070608 -0.000004 0.847695 0.207546 -0.549789
  40 2.593794 10.892052 -2.652750 0.206875 0.391186 -0.426355
  41 4.258969 9.393974 2.525300 0.007834 0.391186 -0.426354
  42 0.016265 11.066998 -0.052123 -0.945989 -0.142864 -0.382055
  43 3.027478 10.423265 2.525478 -0.082080 -0.905352 -0.784327
  44 3.809964 9.862058 -3.015906 0.159629 -0.332983 -0.866593
  time 4
  0 -0.001140 1.445637 29.495518 1.570796 -0.000000 1.570796
  1 -1.445640 -28.466515 0.001142 -0.094401 0.075814 1.049574
  2 -0.000000 8.262690 0.000000 -0.057277 0.043248 0.182913
  3 0.000001 5.965774 0.000000 0.008982 -0.094406 -0.291407
  4 0.000001 5.965774 0.000000 -1.606126 -0.470490 0.072370
  5 -0.000001 7.629251 -1.118939 0.209017 0.043601 -0.080059
  6 0.000004 13.154877 -0.000002 0.468321 0.428763 -0.619821
  7 -0.000002 14.721378 -0.000000 0.063125 0.055677 -0.497633
  8 -1.861431 7.666950 0.620427 0.319814 0.135724 0.283779
  9 0.000000 2.444921 0.000001 0.202442 -0.379282 -0.118882
  10 -0.000001 2.432504 0.000000 0.090885 -0.022663 -0.340593
  11 -3.472169 5.539383 -3.197415 1.012112 -0.614581 0.245305
  12 0.000000 7.047308 0.000000 -0.292453 -0.694622 -0.795807
  13 -0.000002 8.630061 -0.000001 -0.422009 -0.301187 -0.364618
  14 0.000001 5.965774 0.000000 -1.640415 -2.832108 0.102945
  15 0.000000 7.674963 -1.560058 1.195509 -0.711484 0.069658
  16 0.000002 13.236122 -0.000001 0.746236 -0.082519 0.992654
  17 -0.000002 14.645544 -0.000004 0.303444 -0.176769 0.534096
  18 2.026716 7.454579 0.321388 0.028228 0.160268 -0.309152
  19 0.000001 2.313501 0.000001 0.445338 0.116880 1.354670
  20 0.000001 11.242268 -0.000001 0.354548 -0.687707 0.142048
  21 0.000002 12.545878 0.000003 -0.172271 -0.070848 0.555478
  22 -1.445637 -28.466518 0.001142 -3.141592 0.000000 0.780410
  23 -1.684164 2.625993 -5.070536 -1.120009 -0.854894 2.643337
  24 0.000001 8.319996 -0.000007 0.183607 0.373875 0.899155
  25 0.000005 8.623923 -0.000012 0.061809 0.106849 0.748383
  26 -0.000006 11.070586 -0.000008 0.011636 3.139080 -0.366275
  27 0.000001 4.509336 0.000001 0.852214 3.017741 -0.016440
  28 1.125624 8.218364 2.253403 0.760213 -0.057698 0.008580
  29 0.000000 3.803350 -0.000000 0.260084 0.463929 -0.566383
  30 -0.000007 12.384521 0.000007 -1.141251 -1.917775 0.556483
  31 -0.000008 15.308084 -0.000005 -0.812183 -0.350103 0.055543
  32 3.320585 8.398378 1.366528 -0.388719 0.792698 -1.294062
  33 -0.017634 4.512972 -0.014517 -0.761989 2.947792 -0.053845
  34 0.991727 8.218363 -2.315453 -0.555712 0.322298 0.641147
  35 0.000001 3.803351 0.000002 -0.590613 0.548158 -0.860735
  36 0.000000 12.384516 0.000010 0.237886 0.085473 -1.101368
  37 -0.000002 15.308074 0.000006 -0.911136 1.135321 -1.529582
  38 3.234857 8.398380 -1.558637 0.357338 -0.871947 -1.290176
  39 -0.000006 11.070586 -0.000008 0.864924 0.360135 -0.544967
  40 2.552768 10.945042 -2.617101 0.159162 0.429446 -0.550017
  41 4.300022 9.340985 2.489635 -0.039880 0.429446 -0.550017
  42 0.016265 11.066978 -0.052127 -1.004247 -0.339639 -0.368053
  43 2.963912 10.593600 2.479045 -0.091728 -0.967925 -0.845502
  44 3.873299 9.691917 -2.968917 0.157846 -0.394038 -0.935268
  time 5
  0 -0.001140 1.445637 19.775314 1.570796 -0.000000 1.570796
  1 -1.445640 -28.466515 0.001142 -0.026300 0.027255 1.303029
  2 0.000001 8.262689 0.000000 -0.057277 0.043248 0.182913
  3 -0.000001 5.965773 -0.000000 0.012088 -0.054643 -0.818155
  4 -0.000001 5.965773 -0.000000 -1.601889 -0.601999 0.071759
  5 0.000000 7.629250 -1.118938 0.203233 0.136040 -0.368549
  6 0.000000 13.154880 0.000001 0.505687 0.479680 -0.742623
  7 -0.000000 14.721381 0.000000 0.038055 0.092751 -0.404567
  8 -1.861428 7.666951 0.620427 0.320226 0.130495 0.415565
  9 0.000000 2.444921 0.000000 0.206988 -0.421576 0.074347
  10 0.000001 2.432504 -0.000000 0.090885 -0.022663 -0.340593
  11 -3.472169 5.539383 -3.197414 1.092594 -0.304331 0.244778
  12 0.000000 7.047304 -0.000001 -0.263763 -0.771757 -0.950899
  13 -0.000002 8.630062 -0.000002 -0.422009 -0.301187 -0.364618
  14 -0.000001 5.965773 -0.000000 -1.666940 -2.712331 0.120064
  15 -0.000000 7.674962 -1.560059 1.144501 -0.864482 0.059431
  16 -0.000002 13.236120 0.000000 0.984321 -0.011071 1.125429
  17 -0.000000 14.645546 -0.000001 0.303444 -0.176769 0.534096
  18 2.026715 7.454577 0.321388 0.043266 -0.005098 -0.167438
  19 0.000001 2.313501 -0.000001 0.482936 0.027756 1.546085
  20 -0.000001 11.242268 -0.000000 0.246985 -0.542482 0.117917
  21 0.000002 12.545877 0.000005 -0.172271 -0.070848 0.555478
  22 -1.445637 -28.466518 0.001142 3.141592 0.000000 1.429915
  23 -1.684162 2.625993 -5.070535 -1.299864 -0.447494 2.563109
  24 -0.000010 8.320004 0.000011 0.089943 0.375159 0.826494
  25 0.000007 8.623932 -0.000009 0.061809 0.106849 0.748383
  26 0.000004 11.070582 0.000004 0.011634 3.139080 -0.400690
  27 -0.000004 4.509338 0.000004 0.852213 3.017744 -0.016440
  28 1.125611 8.218367 2.253412 0.659113 0.330624 -0.469128
  29 -0.000003 3.803350 -0.000003 0.260085 0.463928 -0.566381
  30 0.000009 12.384501 -0.000012 -1.266537 -2.016118 0.493437
  31 -0.000009 15.308043 -0.000031 -0.812183 -0.350103 0.055541
  32 3.320576 8.398388 1.366537 -0.388717 0.792698 -1.294058
  33 -0.017639 4.512975 -0.014514 -0.761989 2.947791 -0.053845
  34 0.991714 8.218367 -2.315456 -0.747541 -0.079254 0.170944
  35 -0.000003 3.803353 -0.000000 -0.597910 0.522537 -1.006151
  36 -0.000012 12.384508 0.000008 0.237887 0.085472 -1.101367
  37 0.000005 15.308060 0.000014 -0.911137 1.135321 -1.529579
  38 3.234846 8.398388 -1.558640 0.357337 -0.871948 -1.290173
  39 0.000004 11.070582 0.000004 0.888638 0.543352 -0.534575
  40 2.462482 11.061637 -2.538667 0.032126 0.493254 -0.842080
  41 4.390311 9.224401 2.411187 -0.166915 0.493254 -0.842080
  42 0.016276 11.066975 -0.052115 -1.087082 -0.575648 -0.331216
  43 2.888032 10.796914 2.423634 -0.094608 -1.043097 -0.925593
  44 3.948876 9.488847 -2.912827 0.161812 -0.467025 -1.019866
  time 6
  0 -0.001140 1.445637 10.790562 1.570796 -0.000000 1.570796
  1 -1.445640 -28.466515 0.001142 -0.000000 0.000000 1.416905
  2 -0.000001 8.262691 0.000000 -0.057277 0.043248 0.182913
  3 0.000000 5.965775 0.000000 0.012935 -0.073295 -0.570192
  4 0.000000 5.965775 0.000000 -1.598487 -0.697136 0.070825
  5 -0.000000 7.629252 -1.118938 0.103654 0.286077 -0.949131
  6 -0.000002 13.154879 0.000001 0.498852 0.547529 -1.001857
  7 0.000000 14.721380 0.000003 0.029058 0.108084 -0.367795
  8 -1.861432 7.666951 0.620427 0.322015 0.122889 0.510040
  9 0.000000 2.444922 0.000001 0.204769 -0.451410 0.214483
  10 0.000001 2.432505 0.000001 0.090885 -0.022663 -0.340593
  11 -3.472169 5.539385 -3.197415 1.122563 -0.181445 0.251579
  12 0.000000 7.047308 0.000001 -0.295290 -0.533232 -0.567680
  13 -0.000002 8.630060 -0.000001 -0.422009 -0.301187 -0.364618
  14 0.000000 5.965775 0.000000 -1.688600 -2.625859 0.135382
  15 0.000000 7.674962 -1.560059 1.097791 -0.995205 0.021492
  16 0.000003 13.236126 -0.000001 1.166469 0.020326 1.233165
  17 0.000002 14.645547 0.000001 0.303445 -0.176769 0.534095
  18 2.026716 7.454578 0.321389 0.043267 -0.172120 -0.108390
  19 0.000000 2.313500 -0.000001 0.616861 0.224381 0.790716
  20 -0.000001 11.242269 -0.000000 0.152897 -0.428916 0.123522
  21 0.000001 12.545878 0.000001 -0.172271 -0.070847 0.555478
  22 -1.445637 -28.466518 0.001142 -0.000001 3.141593 -1.444497
  23 -1.684160 2.625996 -5.070533 -1.451338 -0.133487 2.454264
  24 -0.000004 8.320004 0.000007 -0.083613 0.360719 0.692247
  25 0.000007 8.623928 -0.000004 0.061810 0.106849 0.748383
  26 0.000009 11.070591 0.000009 0.011634 3.139080 -0.425840
  27 -0.000004 4.509342 0.000004 0.852213 3.017743 -0.016440
  28 1.125615 8.218368 2.253410 0.348467 0.600412 -1.084596
  29 -0.000002 3.803347 -0.000003 0.260085 0.463928 -0.566382
  30 0.000008 12.384498 -0.000007 -1.407996 -2.093899 0.453157
  31 0.000002 15.308068 -0.000021 -0.812182 -0.350104 0.055542
  32 3.320577 8.398389 1.366534 -0.388717 0.792699 -1.294059
  33 -0.017639 4.512978 -0.014513 -0.761989 2.947791 -0.053845
  34 0.991719 8.218369 -2.315457 -0.746460 -0.509300 -0.280598
  35 -0.000002 3.803349 0.000004 -0.587378 0.508274 -1.136672
  36 -0.000004 12.384495 0.000007 0.237886 0.085472 -1.101367
  37 0.000009 15.308079 0.000016 -0.911138 1.135321 -1.529582
  38 3.234851 8.398391 -1.558638 0.357337 -0.871948 -1.290174
  39 0.000009 11.070591 0.000009 0.912730 0.695356 -0.520550
  40 2.372172 11.178241 -2.460233 -0.113724 0.520661 -1.148416
  41 4.480585 9.107831 2.332750 -0.312765 0.520661 -1.148416
  42 0.016281 11.066983 -0.052111 -1.176900 -0.767320 -0.275103
  43 2.824437 10.967264 2.377200 -0.087046 -1.105840 -1.001212
  44 4.012190 9.318714 -2.865849 0.170710 -0.527602 -1.093421
  time 7
  0 -0.001140 1.445637 7.836502 1.570796 -0.000000 1.570796
  1 -1.445640 -28.466515 0.001142 -0.000000 0.000000 1.426242
  2 -0.000001 8.262691 0.000000 -0.057277 0.043248 0.182913
  3 0.000000 5.965774 0.000000 0.009180 -0.091527 -0.322659
  4 0.000000 5.965774 0.000000 -1.597073 -0.733686 0.070330
  5 -0.000001 7.629252 -1.118938 0.019180 0.333689 -1.262415
  6 0.000000 13.154880 0.000000 0.502433 0.544764 -1.150353
  7 0.000001 14.721383 0.000001 0.101524 -0.077434 -0.629229
  8 -1.861431 7.666951 0.620427 0.322968 0.118975 0.546113
  9 0.000000 2.444921 0.000000 0.202715 -0.462512 0.268268
  10 0.000002 2.432504 0.000000 0.090885 -0.022663 -0.340593
  11 -3.472169 5.539384 -3.197415 1.026931 -0.571111 0.635865
  12 0.000000 7.047307 0.000001 -0.229218 -0.301089 -0.230701
  13 0.000000 8.630063 0.000001 -0.422009 -0.301187 -0.364618
  14 0.000000 5.965774 0.000000 -1.697624 -2.592681 0.142059
  15 0.000001 7.674961 -1.560059 1.079358 -1.050245 -0.001843
  16 0.000004 13.236123 -0.000001 1.237630 0.027101 1.276065
  17 0.000001 14.645551 0.000001 0.303445 -0.176769 0.534096
  18 2.026716 7.454576 0.321389 0.298978 -0.178921 -0.769839
  19 0.000001 2.313502 -0.000000 0.525968 0.468502 -0.068069
  20 -0.000001 11.242272 0.000001 0.113249 -0.381910 0.130596
  21 -0.000001 12.545883 -0.000001 -0.172271 -0.070847 0.555478
  22 -1.445637 -28.466518 0.001142 3.141593 0.000000 1.298767
  23 -1.684163 2.625993 -5.070535 -1.518152 -0.016113 2.400140
  24 0.000002 8.320004 -0.000006 -0.174818 0.344177 0.622368
  25 0.000008 8.623932 -0.000006 0.061810 0.106849 0.748383
  26 0.000002 11.070583 0.000002 0.011636 3.139080 -0.435587
  27 -0.000004 4.509338 -0.000004 0.852215 3.017743 -0.016440
  28 1.125611 8.218366 2.253411 0.164765 0.646670 -1.384728
  29 -0.000002 3.803349 -0.000004 0.260085 0.463928 -0.566382
  30 0.000014 12.384505 -0.000009 -1.471249 -2.124498 0.436681
  31 -0.000005 15.308082 -0.000021 -0.812182 -0.350104 0.055542
  32 3.320576 8.398388 1.366536 -0.388718 0.792698 -1.294059
  33 -0.017640 4.512975 -0.014521 -0.761989 2.947792 -0.053845
  34 0.991728 8.218369 -2.315442 -0.677481 -0.672816 -0.500806
  35 0.000001 3.803349 0.000002 -0.579556 0.504447 -1.193329
  36 -0.000010 12.384503 0.000011 0.237886 0.085472 -1.101367
  37 0.000006 15.308084 0.000021 -0.911138 1.135321 -1.529582
  38 3.234863 8.398386 -1.558625 0.357338 -0.871946 -1.290176
  39 0.000002 11.070583 0.000002 0.924531 0.758178 -0.512704
  40 2.331147 11.231223 -2.424571 -0.180707 0.520033 -1.286353
  41 4.521642 9.054823 2.297096 -0.379749 0.520033 -1.286353
  42 0.016274 11.066975 -0.052118 -1.223580 -0.844404 -0.241422
  43 2.797784 11.038689 2.357717 -0.080293 -1.131921 -1.036076
  44 4.038757 9.247356 -2.846148 0.176066 -0.552694 -1.125112
end
