version 1
nodes
0 "Bone.016" -1
1 "Bone" 0
2 "Bone.001" 1
3 "Bone.003" 2
4 "Arm.L.001" 2
5 "Arm.L.003" 4
6 "Arm.L.004" 5
7 "Arm.L.005" 6
8 "Arm.L.007" 4
9 "Arm.L.008" 8
10 "Arm.L.009" 9
11 "Arm.L.011" 4
12 "Arm.L.012" 11
13 "Arm.L.013" 12
14 "Bone.004" 2
15 "Bone.006" 14
16 "Bone.007" 15
17 "Bone.008" 16
18 "Bone.010" 14
19 "Bone.011" 18
20 "Bone.012" 19
21 "Bone.013" 20
22 "Bone.014" 0
23 "Tent.002" 22
24 "Tent.003" 23
25 "Tent.004" 24
26 "Bone.015" 22
27 "Leg.L.001" 26
28 "Leg.L.003" 27
29 "Leg.L.004" 28
30 "Leg.L.005" 29
31 "Leg.L.006" 30
32 "Leg.L.009" 27
33 "Leg.R.001" 26
34 "Leg.R.003" 33
35 "Leg.R.004" 34
36 "Leg.R.005" 35
37 "Leg.R.006" 36
38 "Leg.R.009" 33
39 "Spine.L.001" 22
40 "Spine.L.005" 39
41 "Spine.L.004" 39
42 "Spine.R.001" 22
43 "Spine.R.005" 42
44 "Spine.R.004" 42
end
skeleton
  time 0
  0 -0.001140 1.445637 38.750145 1.570796 -0.000000 1.570796
  1 -1.445641 -34.837849 0.001142 -0.000000 0.000000 -0.029364
  2 0.000001 8.262688 0.000000 -0.027968 0.094441 0.014479
  3 0.000000 5.965775 0.000000 -0.021722 -0.131027 0.371846
  4 0.000000 5.965775 0.000000 -1.515826 -0.267793 0.058154
  5 0.000000 7.629252 -1.118938 -0.149609 0.106271 1.098557
  6 -0.000001 13.154881 -0.000001 0.331831 -0.230951 -0.413340
  7 0.000001 14.721381 0.000000 0.238137 -0.066639 -0.874260
  8 -1.861430 7.666951 0.620427 0.087979 0.105145 0.841611
  9 0.000000 2.444921 0.000002 0.305069 -0.279960 -0.656587
  10 0.000000 2.432505 0.000001 0.090885 -0.022663 -0.340593
  11 -3.472169 5.539384 -3.197413 0.747667 -1.110171 0.429125
  12 -0.000002 7.047305 -0.000001 -0.033610 -0.955739 -0.063484
  13 0.000001 8.630061 -0.000000 -0.422009 -0.301187 -0.364618
  14 0.000000 5.965775 0.000000 1.575770 0.051332 -3.071813
  15 0.000001 7.674963 -1.560058 0.033601 -0.235765 -0.779186
  16 0.000000 13.236125 0.000001 0.058608 -0.205104 -0.145402
  17 0.000001 14.645544 0.000000 0.167283 -0.276638 0.280970
  18 2.026716 7.454578 0.321387 0.187289 0.505200 -0.337722
  19 -0.000000 2.313501 0.000000 0.332628 0.909791 -0.045696
  20 -0.000001 11.242270 -0.000001 0.544386 0.138737 0.578136
  21 -0.000003 12.545877 -0.000000 -0.172271 -0.070848 0.555478
  22 -1.445640 -34.837849 0.001142 -3.141592 0.000000 -0.028921
  23 -1.684168 2.625993 -5.070540 0.599889 -1.945697 1.036945
  24 -0.000005 8.319983 -0.000002 -0.004433 0.923379 0.047029
  25 -0.000000 8.623917 -0.000008 -0.248362 0.359909 0.574931
  26 -0.000012 11.070609 -0.000007 0.011635 3.139081 -0.259453
  27 0.000001 4.509339 0.000004 0.797123 -3.049027 -0.018759
  28 1.125611 8.218364 2.253409 0.692468 -0.451306 -0.485036
  29 -0.000001 3.803350 0.000005 0.065737 0.391283 -1.009544
  30 -0.000007 12.384514 0.000013 0.120330 -1.477294 -1.765365
  31 0.000008 15.308082 -0.000015 -0.812184 -0.350103 0.055542
  32 3.320570 8.398383 1.366533 -0.388718 0.792699 -1.294060
  33 -0.017634 4.512975 -0.014514 -0.761990 2.947790 -0.053845
  34 0.991718 8.218366 -2.315453 -0.841794 0.367581 -0.884896
  35 0.000001 3.803347 -0.000003 0.263781 0.575959 -1.070371
  36 0.000018 12.384512 -0.000005 0.559182 0.323597 -0.824684
  37 0.000000 15.308080 -0.000011 1.250201 1.101233 0.369885
  38 3.234847 8.398382 -1.558637 0.357338 -0.871948 -1.290176
  39 -0.000012 11.070609 -0.000007 0.987826 0.413407 -0.477175
  40 2.579944 11.195485 -2.540246 -0.170932 0.432462 -1.455066
  41 4.272811 9.090539 2.412798 -0.369974 0.432462 -1.455066
  42 0.016260 11.067002 -0.052126 -1.031040 -0.422050 -0.390064
  43 2.688994 11.024460 2.334245 0.404623 -0.988004 -2.025904
  44 4.147524 9.261564 -2.822701 0.451731 -0.425849 -1.819346
  time 1
  0 -0.001140 1.445637 38.013329 1.570796 -0.000000 1.570796
  1 -1.445641 -34.837849 0.001142 -0.000000 0.000000 -0.211705
  2 0.000000 8.262691 0.000000 -0.028774 0.092726 0.019871
  3 0.000000 5.965774 -0.000000 -0.048784 -0.104025 0.693776
  4 0.000000 5.965774 -0.000000 -1.518614 -0.254116 0.058787
  5 0.000000 7.629251 -1.118937 0.011109 -0.023755 0.627943
  6 -0.000001 13.154879 0.000001 0.153856 -0.147812 -0.420416
  7 -0.000001 14.721380 0.000002 0.200163 -0.140697 -0.619538
  8 -1.861430 7.666951 0.620427 0.240864 0.036513 0.491743
  9 -0.000000 2.444921 0.000002 0.190283 -0.298816 -0.513142
  10 0.000000 2.432505 0.000001 0.090885 -0.022663 -0.340593
  11 -3.472169 5.539384 -3.197413 0.962663 -0.773305 0.279610
  12 -0.000000 7.047305 0.000000 0.041390 -0.785081 -0.245969
  13 -0.000001 8.630060 -0.000001 -0.422009 -0.301187 -0.364618
  14 0.000000 5.965774 -0.000000 1.575763 0.053333 -3.071807
  15 -0.000000 7.674962 -1.560056 0.206910 -0.257164 -0.521132
  16 -0.000001 13.236125 -0.000002 0.198451 -0.191424 0.041921
  17 -0.000001 14.645547 0.000000 0.167283 -0.276637 0.280970
  18 2.026715 7.454578 0.321389 0.318006 0.126644 -0.293554
  19 -0.000000 2.313502 -0.000000 0.545143 0.632924 0.247494
  20 0.000001 11.242269 -0.000003 0.491256 0.340699 0.805686
  21 -0.000001 12.545878 -0.000001 -0.172271 -0.070848 0.555478
  22 -1.445640 -34.837849 0.001142 3.141592 0.000001 0.028634
  23 -1.684162 2.626003 -5.070528 1.053155 -2.033619 0.780530
  24 -0.000005 8.319986 0.000001 0.418755 0.915282 0.764252
  25 -0.000005 8.623925 -0.000012 -0.248364 0.359908 0.574932
  26 0.000001 11.070595 0.000008 0.011634 3.139083 -0.259453
  27 0.000001 4.509339 0.000004 0.799409 -3.058000 -0.018900
  28 1.125612 8.218364 2.253409 0.692468 -0.451306 -0.485036
  29 -0.000000 3.803349 0.000004 0.014222 0.255281 -0.813577
  30 -0.000005 12.384512 0.000011 -0.498208 -1.022091 -1.061272
  31 0.000015 15.308071 -0.000004 -0.629104 -0.489363 -0.123108
  32 3.320572 8.398381 1.366534 -0.393763 0.821711 -1.240630
  33 -0.017634 4.512975 -0.014513 -0.761990 2.947790 -0.053845
  34 0.991719 8.218365 -2.315454 -0.736594 0.532897 -0.729118
  35 0.000001 3.803348 -0.000003 0.274003 0.737382 -0.833030
  36 0.000018 12.384510 0.000004 0.619273 0.063425 -0.661423
  37 0.000012 15.308083 -0.000007 0.870336 1.162847 0.071948
  38 3.234848 8.398381 -1.558638 0.394476 -0.916274 -1.233092
  39 0.000001 11.070595 0.000008 1.053107 0.334699 -0.453296
  40 2.491442 11.218722 -2.485418 -0.152331 0.484524 -1.356149
  41 4.361319 9.067308 2.357970 -0.356295 0.499205 -1.362594
  42 0.016273 11.066985 -0.052111 -1.096806 -0.326588 -0.365983
  43 2.683027 11.089353 2.303967 0.352244 -1.064262 -1.855536
  44 4.153493 9.196678 -2.792424 0.406368 -0.496836 -1.674072
  time 2
  0 -0.001140 1.445637 35.802872 1.570796 -0.000000 1.570796
  1 -1.445641 -34.837849 0.001142 -0.000000 0.000000 -0.393994
  2 0.000002 8.262689 0.000000 -0.030045 0.090068 0.028253
  3 0.000000 5.965775 0.000000 -0.031080 -0.099521 0.495172
  4 0.000000 5.965775 0.000000 -1.522891 -0.239524 0.059684
  5 -0.000000 7.629251 -1.118937 0.441358 0.089894 -0.481498
  6 0.000001 13.154881 -0.000000 0.052685 0.050697 -0.472855
  7 0.000000 14.721384 0.000001 0.119460 -0.187171 -0.410778
  8 -1.861430 7.666952 0.620429 0.565896 0.074869 -0.256493
  9 -0.000000 2.444921 0.000002 -0.011231 -0.288634 -0.365170
  10 0.000000 2.432504 0.000001 0.090885 -0.022663 -0.340593
  11 -3.472170 5.539384 -3.197413 1.166874 -0.085931 0.244407
  12 0.000002 7.047307 -0.000000 0.075892 -0.497070 -0.512538
  13 0.000001 8.630063 0.000000 -0.422009 -0.301187 -0.364618
  14 0.000000 5.965775 0.000000 1.575745 0.055099 -3.071800
  15 0.000000 7.674963 -1.560057 0.512090 -0.416512 -0.022501
  16 0.000002 13.236126 0.000002 0.461913 -0.241209 0.423716
  17 0.000002 14.645547 -0.000002 0.167283 -0.276637 0.280970
  18 2.026716 7.454578 0.321389 0.435062 -0.254166 -0.298395
  19 -0.000000 2.313500 0.000000 0.669190 0.023959 0.579148
  20 0.000002 11.242271 0.000000 0.415066 0.437350 1.050734
  21 0.000001 12.545881 0.000000 -0.172271 -0.070847 0.555478
  22 -1.445640 -34.837849 0.001142 3.141592 0.000002 0.135238
  23 -1.684164 2.626003 -5.070527 1.539487 -2.284318 0.553782
  24 -0.000008 8.319993 0.000002 0.817418 0.502726 1.847108
  25 0.000007 8.623930 0.000009 -0.248362 0.359908 0.574931
  26 0.000000 11.070594 0.000009 0.011634 3.139083 -0.259453
  27 0.000001 4.509338 0.000005 0.802915 -3.071786 -0.019076
  28 1.125612 8.218364 2.253410 0.692468 -0.451306 -0.485036
  29 -0.000001 3.803348 0.000003 -0.152118 0.045485 -0.469746
  30 0.000003 12.384511 0.000010 -0.415754 -0.144694 -0.836895
  31 0.000012 15.308063 0.000014 -0.171526 -0.645689 -0.572997
  32 3.320573 8.398381 1.366535 -0.396805 0.886317 -1.116572
  33 -0.017634 4.512974 -0.014513 -0.761990 2.947791 -0.053845
  34 0.991718 8.218363 -2.315455 -0.675191 0.680013 -0.437455
  35 0.000001 3.803349 -0.000004 0.203370 1.019167 -0.506094
  36 0.000007 12.384514 -0.000017 0.677616 -0.394391 -0.511348
  37 0.000021 15.308073 -0.000002 0.076345 1.125025 -0.568452
  38 3.234848 8.398380 -1.558639 0.469177 -1.019583 -1.102457
  39 0.000000 11.070594 0.000009 1.166264 0.184791 -0.424123
  40 2.296732 11.269841 -2.364798 -0.086745 0.593097 -1.119032
  41 4.556032 9.016196 2.237352 -0.288515 0.606734 -1.123751
  42 0.016272 11.066986 -0.052111 -1.209641 -0.145280 -0.339472
  43 2.669899 11.232112 2.237352 0.071863 -1.206312 -1.313988
  44 4.166624 9.053925 -2.725813 0.251458 -0.625909 -1.305003
  time 3
  0 -0.001140 1.445637 32.118774 1.570796 -0.000000 1.570796
  1 -1.445641 -34.837849 0.001142 -0.000000 0.000000 -0.393994
  2 0.000001 8.262691 0.000000 -0.031726 0.086636 0.039130
  3 -0.000000 5.965775 -0.000000 -0.001721 -0.097320 0.120171
  4 -0.000000 5.965775 -0.000000 -1.528426 -0.224235 0.060763
  5 -0.000000 7.629252 -1.118939 0.543477 0.274301 -0.958251
  6 -0.000001 13.154879 0.000001 0.016374 0.159400 -0.507786
  7 0.000002 14.721382 -0.000000 0.074402 -0.200159 -0.321409
  8 -1.861430 7.666952 0.620427 0.690778 0.172718 -0.605737
  9 -0.000000 2.444921 0.000001 -0.115041 -0.272128 -0.300586
  10 0.000000 2.432505 0.000000 0.090885 -0.022663 -0.340593
  11 -3.472170 5.539384 -3.197415 1.262289 0.259731 0.279865
  12 -0.000001 7.047308 -0.000001 0.059711 -0.343950 -0.640409
  13 -0.000000 8.630062 0.000000 -0.422009 -0.301187 -0.364618
  14 -0.000000 5.965775 -0.000000 1.575710 0.056644 -3.071791
  15 0.000000 7.674963 -1.560056 0.633427 -0.545201 0.222683
  16 0.000001 13.236124 -0.000003 0.586688 -0.325081 0.701030
  17 0.000000 14.645544 0.000001 0.167283 -0.276638 0.280970
  18 2.026714 7.454577 0.321387 0.435062 -0.254166 -0.298395
  19 -0.000001 2.313500 -0.000001 0.655004 -0.290780 0.724387
  20 0.000000 11.242270 0.000000 0.392027 0.405964 1.033209
  21 -0.000001 12.545880 0.000000 -0.172271 -0.070847 0.555478
  22 -1.445640 -34.837849 0.001142 3.141592 0.000002 0.192510
  23 -1.684164 2.626004 -5.070526 1.709222 -2.432977 0.519345
  24 -0.000009 8.319993 0.000001 0.793151 0.254917 2.226269
  25 -0.000000 8.623920 0.000008 -0.248363 0.359908 0.574931
  26 0.000001 11.070590 0.000011 0.011634 3.139083 -0.259454
  27 0.000002 4.509339 0.000005 0.807393 -3.089424 -0.019232
  28 1.125616 8.218362 2.253411 0.692468 -0.451306 -0.485036
  29 -0.000000 3.803347 0.000002 -0.268670 -0.039243 -0.275242
  30 0.000007 12.384509 0.000011 -0.304505 0.253651 -0.703678
  31 0.000003 15.308064 0.000015 0.101351 -0.649858 -0.841993
  32 3.320577 8.398379 1.366536 -0.386342 0.950642 -0.981901
  33 -0.017633 4.512975 -0.014513 -0.761990 2.947791 -0.053845
  34 0.991720 8.218362 -2.315457 -0.642246 0.741212 -0.273079
  35 0.000000 3.803352 -0.000001 0.204830 1.168306 -0.309938
  36 0.000010 12.384516 -0.000013 0.688693 -0.628098 -0.446773
  37 0.000020 15.308070 0.000001 -0.236305 1.035238 -0.798138
  38 3.234849 8.398380 -1.558639 0.527907 -1.127651 -0.961899
  39 0.000001 11.070590 0.000011 1.224004 0.103420 -0.415822
  40 2.102021 11.320958 -2.244178 0.014675 0.684324 -0.855132
  41 4.750742 8.965083 2.116733 -0.184435 0.689508 -0.856153
  42 0.016272 11.066983 -0.052109 -1.267126 -0.047381 -0.333935
  43 2.656769 11.374871 2.170741 -0.465465 -1.245091 -0.520461
  44 4.179755 8.911170 -2.659204 0.035382 -0.694024 -0.885693
  time 4
  0 -0.001140 1.445637 32.696178 1.570796 -0.000000 1.570796
  1 -1.445641 -34.837849 0.001142 -0.000000 0.000000 -0.393994
  2 0.000001 8.262691 0.000000 -0.033764 0.082598 0.052006
  3 -0.000001 5.965776 0.000000 0.013021 -0.093289 -0.077929
  4 -0.000001 5.965776 0.000000 -1.534996 -0.208471 0.061950
  5 0.000001 7.629251 -1.118939 0.490974 0.167889 -0.680436
  6 -0.000001 13.154881 0.000000 0.055471 0.098115 -0.485561
  7 -0.000000 14.721380 0.000001 0.104555 -0.185699 -0.409204
  8 -1.861429 7.666950 0.620429 0.618127 0.108353 -0.399055
  9 0.000000 2.444921 -0.000000 -0.050536 -0.282772 -0.355050
  10 0.000001 2.432504 -0.000000 0.090885 -0.022663 -0.340593
  11 -3.472168 5.539384 -3.197412 1.204146 0.055832 0.254807
  12 0.000001 7.047307 0.000000 0.073096 -0.438904 -0.568384
  13 -0.000001 8.630062 0.000000 -0.422009 -0.301187 -0.364618
  14 -0.000001 5.965776 0.000000 1.575654 0.057983 -3.071779
  15 0.000000 7.674962 -1.560056 0.633427 -0.545201 0.222683
  16 0.000002 13.236126 -0.000000 0.536660 -0.328154 0.773533
  17 0.000001 14.645546 0.000001 0.167283 -0.276638 0.280970
  18 2.026714 7.454578 0.321386 0.435063 -0.254166 -0.298395
  19 0.000001 2.313502 0.000002 0.669029 -0.104692 0.637237
  20 0.000003 11.242270 0.000002 0.415066 0.437350 1.050734
  21 -0.000001 12.545882 -0.000001 -0.172271 -0.070847 0.555478
  22 -1.445640 -34.837849 0.001142 3.141592 0.000002 0.157952
  23 -1.684165 2.626005 -5.070527 1.603526 -2.345679 0.527112
  24 -0.000010 8.319992 0.000002 0.818398 0.400298 2.009745
  25 0.000004 8.623925 0.000010 -0.248362 0.359908 0.574931
  26 -0.000001 11.070591 0.000010 0.011634 3.139082 -0.259453
  27 0.000002 4.509340 0.000004 0.812598 -3.109952 -0.019313
  28 1.125616 8.218362 2.253411 0.692468 -0.451306 -0.485036
  29 0.000000 3.803348 0.000003 -0.198259 0.002958 -0.394107
  30 0.000003 12.384510 0.000011 -0.361649 0.017053 -0.760040
  31 0.000008 15.308062 0.000013 -0.062141 -0.654402 -0.680819
  32 3.320576 8.398378 1.366535 -0.376224 0.979290 -0.916509
  33 -0.017634 4.512974 -0.014514 -0.761990 2.947791 -0.053845
  34 0.991720 8.218365 -2.315454 -0.695554 0.691435 -0.385075
  35 0.000003 3.803348 -0.000003 0.155260 1.077912 -0.474210
  36 0.000009 12.384514 -0.000017 0.692298 -0.481203 -0.504888
  37 0.000021 15.308070 -0.000001 -0.060418 1.093210 -0.672249
  38 3.234850 8.398382 -1.558638 0.546176 -1.177151 -0.892548
  39 -0.000001 11.070591 0.000010 1.189420 0.152451 -0.420236
  40 2.013515 11.344192 -2.189350 0.071815 0.717241 -0.727516
  41 4.839249 8.941848 2.061908 -0.127226 0.717240 -0.727516
  42 0.016271 11.066983 -0.052110 -1.232678 -0.106316 -0.336581
  43 2.650802 11.439761 2.140463 -0.692796 -1.216291 -0.180494
  44 4.185723 8.846283 -2.628927 -0.069805 -0.699724 -0.692587
  time 5
  0 -0.001140 1.445637 33.966461 1.570796 -0.000000 1.570796
  1 -1.445641 -34.837849 0.001142 -0.000000 0.000000 -0.299647
  2 0.000000 8.262691 0.000000 -0.036099 0.078121 0.066386
  3 -0.000000 5.965774 0.000000 0.005750 -0.104476 0.038019
  4 -0.000000 5.965774 0.000000 -1.542377 -0.192456 0.063177
  5 0.000002 7.629250 -1.118936 0.239501 -0.007666 0.069737
  6 -0.000001 13.154882 0.000000 0.144127 -0.039342 -0.444988
  7 0.000000 14.721384 -0.000002 0.166033 -0.144664 -0.601896
  8 -1.861428 7.666950 0.620427 0.401811 0.024325 0.113830
  9 -0.000001 2.444921 0.000002 0.094529 -0.294098 -0.478054
  10 -0.000000 2.432505 0.000000 0.090885 -0.022663 -0.340593
  11 -3.472167 5.539384 -3.197414 1.076263 -0.430326 0.241096
  12 0.000001 7.047306 -0.000001 0.074857 -0.654170 -0.395173
  13 -0.000000 8.630061 -0.000000 -0.422009 -0.301187 -0.364618
  14 -0.000000 5.965774 0.000000 1.575569 0.059132 -3.071763
  15 -0.000001 7.674963 -1.560061 0.511286 -0.415873 -0.022393
  16 -0.000000 13.236125 0.000000 0.364725 -0.242719 0.547555
  17 0.000002 14.645550 -0.000001 0.167283 -0.276637 0.280970
  18 2.026716 7.454579 0.321390 0.374376 -0.058655 -0.290299
  19 0.000000 2.313502 0.000001 0.637395 0.333049 0.432141
  20 0.000000 11.242270 -0.000000 0.433293 0.362555 0.892101
  21 0.000001 12.545879 0.000000 -0.172271 -0.070848 0.555478
  22 -1.445640 -34.837849 0.001142 3.141592 0.000001 0.081794
  23 -1.684164 2.626004 -5.070528 1.312294 -2.155004 0.608747
  24 -0.000008 8.319986 0.000001 0.708165 0.752037 1.383029
  25 0.000004 8.623937 0.000007 -0.248362 0.359908 0.574931
  26 -0.000000 11.070595 0.000008 0.011634 3.139083 -0.259453
  27 0.000001 4.509340 0.000005 0.818285 -3.132404 -0.019279
  28 1.125613 8.218362 2.253410 0.692468 -0.451306 -0.485036
  29 -0.000002 3.803350 0.000003 -0.060095 0.129998 -0.652873
  30 -0.000002 12.384515 0.000013 -0.459538 -0.573832 -0.867516
  31 0.000019 15.308065 0.000007 -0.416730 -0.589147 -0.331555
  32 3.320574 8.398379 1.366537 -0.391086 0.931503 -1.023511
  33 -0.017634 4.512977 -0.014513 -0.761990 2.947790 -0.053845
  34 0.991720 8.218366 -2.315454 -0.781994 0.566940 -0.608169
  35 -0.000000 3.803349 -0.000003 0.150578 0.866818 -0.751304
  36 -0.000001 12.384510 -0.000021 0.668045 -0.146376 -0.626754
  37 0.000018 15.308077 -0.000009 0.457066 1.170006 -0.264685
  38 3.234849 8.398384 -1.558637 0.512588 -1.095025 -1.005442
  39 -0.000000 11.070595 0.000008 1.110816 0.260143 -0.436369
  40 2.160368 11.305638 -2.280324 -0.019407 0.659452 -0.936860
  41 4.692394 8.980397 2.152878 -0.218540 0.660691 -0.937166
  42 0.016271 11.066988 -0.052112 -1.154458 -0.236296 -0.349950
  43 2.660702 11.332088 2.190704 -0.294138 -1.248812 -0.767543
  44 4.175819 8.953947 -2.679164 0.104034 -0.680748 -1.013836
  time 6
  0 -0.001140 1.445637 35.236744 1.570796 -0.000000 1.570796
  1 -1.445641 -34.837849 0.001142 -0.000000 0.000000 -0.123710
  2 0.000001 8.262691 0.000000 -0.038667 0.073371 0.081770
  3 0.000000 5.965776 -0.000000 -0.011138 -0.122825 0.255278
  4 0.000000 5.965776 -0.000000 -1.550352 -0.176415 0.064390
  5 -0.000001 7.629252 -1.118939 -0.058883 0.036114 0.824565
  6 -0.000001 13.154878 0.000002 0.245812 -0.176627 -0.417463
  7 0.000000 14.721381 0.000001 0.218163 -0.092877 -0.790655
  8 -1.861431 7.666951 0.620424 0.172515 0.058050 0.631640
  9 0.000000 2.444921 -0.000001 0.240062 -0.288210 -0.601572
  10 0.000000 2.432505 -0.000000 0.090885 -0.022663 -0.340593
  11 -3.472170 5.539384 -3.197412 0.896170 -0.913101 0.318434
  12 -0.000000 7.047306 -0.000002 0.020143 -0.865809 -0.183131
  13 0.000003 8.630061 -0.000001 -0.422009 -0.301187 -0.364618
  14 0.000000 5.965776 -0.000000 1.575452 0.060104 -3.071741
  15 -0.000001 7.674963 -1.560055 0.206127 -0.256523 -0.519615
  16 -0.000000 13.236127 0.000003 0.153411 -0.194231 0.086786
  17 -0.000001 14.645547 0.000001 0.167283 -0.276637 0.280970
  18 2.026714 7.454578 0.321388 0.258629 0.311447 -0.307846
  19 -0.000001 2.313501 0.000001 0.478616 0.750978 0.146882
  20 0.000000 11.242270 -0.000005 0.499185 0.212238 0.680956
  21 -0.000003 12.545877 0.000001 -0.172270 -0.070847 0.555478
  22 -1.445640 -34.837849 0.001142 3.141592 0.000001 0.005636
  23 -1.684162 2.626002 -5.070529 0.873357 -1.994294 0.849226
  24 -0.000005 8.319987 -0.000001 0.238148 0.942150 0.464031
  25 -0.000003 8.623921 -0.000010 -0.248362 0.359909 0.574931
  26 0.000001 11.070596 0.000006 0.011634 3.139082 -0.259453
  27 0.000001 4.509340 0.000004 0.824216 3.127376 -0.019108
  28 1.125615 8.218363 2.253408 0.692468 -0.451306 -0.485036
  29 -0.000002 3.803350 0.000003 0.041212 0.294908 -0.899961
  30 -0.000006 12.384516 0.000010 -0.492113 -1.191295 -1.014031
  31 0.000013 15.308069 -0.000006 -0.707442 -0.436961 -0.046504
  32 3.320576 8.398379 1.366535 -0.395910 0.840999 -1.204441
  33 -0.017634 4.512976 -0.014514 -0.761990 2.947791 -0.053845
  34 0.991719 8.218364 -2.315455 -0.830426 0.430696 -0.803501
  35 0.000001 3.803347 -0.000003 0.219583 0.661591 -0.976494
  36 0.000015 12.384514 -0.000000 0.603176 0.182965 -0.757418
  37 0.000004 15.308085 -0.000009 1.033426 1.144016 0.202397
  38 3.234848 8.398381 -1.558638 0.418037 -0.946490 -1.194725
  39 0.000001 11.070596 0.000006 1.027595 0.366209 -0.462057
  40 2.433092 11.234039 -2.449274 -0.136350 0.518219 -1.287929
  41 4.419665 9.051991 2.321825 -0.336093 0.520597 -1.288910
  42 0.016273 11.066989 -0.052113 -1.071189 -0.364794 -0.374666
  43 2.679093 11.132130 2.284006 0.296435 -1.112331 -1.721461
  44 4.157428 9.153898 -2.772464 0.367121 -0.538733 -1.569711
  time 7
  0 -0.001140 1.445637 35.814144 1.570796 -0.000000 1.570796
  1 -1.445641 -34.837849 0.001142 -0.000000 0.000000 -0.029364
  2 0.000001 8.262688 0.000000 -0.041394 0.068509 0.097661
  3 0.000000 5.965774 -0.000000 -0.021722 -0.131027 0.371846
  4 0.000000 5.965774 -0.000000 -1.558708 -0.160575 0.065542
  5 0.000002 7.629251 -1.118935 -0.149609 0.106271 1.098557
  6 -0.000002 13.154881 0.000001 0.331831 -0.230951 -0.413340
  7 0.000000 14.721381 0.000001 0.238137 -0.066639 -0.874260
  8 -1.861429 7.666950 0.620426 0.087979 0.105145 0.841611
  9 -0.000000 2.444920 -0.000001 0.305069 -0.279960 -0.656587
  10 0.000001 2.432505 0.000000 0.090885 -0.022663 -0.340593
  11 -3.472168 5.539384 -3.197415 0.747667 -1.110171 0.429125
  12 -0.000001 7.047306 -0.000002 -0.033610 -0.955740 -0.063483
  13 -0.000000 8.630060 -0.000001 -0.422009 -0.301187 -0.364618
  14 0.000000 5.965774 -0.000000 1.575296 0.060915 -3.071714
  15 -0.000000 7.674963 -1.560058 0.033601 -0.235765 -0.779186
  16 -0.000005 13.236124 0.000002 0.058608 -0.205104 -0.145402
  17 0.000001 14.645545 0.000001 0.167283 -0.276637 0.280970
  18 2.026715 7.454578 0.321389 0.187290 0.505200 -0.337722
  19 0.000001 2.313502 -0.000001 0.332628 0.909791 -0.045696
  20 -0.000003 11.242268 -0.000002 0.544386 0.138737 0.578137
  21 -0.000001 12.545880 0.000001 -0.172270 -0.070848 0.555478
  22 -1.445640 -34.837849 0.001142 -3.141592 0.000000 -0.028921
  23 -1.684168 2.625993 -5.070540 0.599889 -1.945697 1.036945
  24 -0.000005 8.319983 -0.000002 -0.004433 0.923379 0.047029
  25 -0.000000 8.623917 -0.000008 -0.248362 0.359909 0.574931
  26 -0.000012 11.070609 -0.000007 0.011635 3.139081 -0.259453
  27 0.000001 4.509339 0.000004 0.830150 3.103986 -0.018798
  28 1.125613 8.218364 2.253410 0.692468 -0.451306 -0.485036
  29 -0.000002 3.803349 0.000004 0.065737 0.391283 -1.009544
  30 -0.000010 12.384513 0.000012 0.120328 -1.477293 -1.765363
  31 0.000013 15.308074 -0.000014 -0.812184 -0.350103 0.055542
  32 3.320573 8.398383 1.366535 -0.388718 0.792699 -1.294060
  33 -0.017634 4.512975 -0.014514 -0.761990 2.947790 -0.053845
  34 0.991718 8.218366 -2.315453 -0.841794 0.367581 -0.884896
  35 0.000001 3.803347 -0.000003 0.263781 0.575959 -1.070371
  36 0.000019 12.384514 -0.000006 0.559182 0.323597 -0.824684
  37 0.000000 15.308079 -0.000010 1.250201 1.101233 0.369885
  38 3.234847 8.398382 -1.558637 0.357338 -0.871948 -1.290176
  39 -0.000012 11.070609 -0.000007 0.987826 0.413407 -0.477175
  40 2.579944 11.195486 -2.540246 -0.170932 0.432462 -1.455066
  41 4.272811 9.090539 2.412798 -0.369974 0.432462 -1.455066
  42 0.016260 11.067001 -0.052126 -1.031040 -0.422050 -0.390064
  43 2.688994 11.024460 2.334246 0.404623 -0.988004 -2.025904
  44 4.147523 9.261565 -2.822700 0.451731 -0.425849 -1.819346
  time 8
  0 -0.001140 1.445637 35.768524 1.570796 -0.000000 1.570796
  1 -1.445641 -34.837849 0.001142 -0.000000 -0.000000 -0.045587
  2 0.000001 8.262691 -0.000000 -0.044197 0.063692 0.113558
  3 -0.000000 5.965773 0.000000 -0.021722 -0.131027 0.371846
  4 -0.000000 5.965773 0.000000 -1.567234 -0.145163 0.066600
  5 0.000000 7.629251 -1.118939 -0.149609 0.106271 1.098557
  6 -0.000000 13.154883 -0.000001 0.390927 -0.206355 -0.423480
  7 0.000000 14.721385 0.000000 0.238137 -0.066639 -0.874260
  8 -1.861429 7.666951 0.620431 0.087979 0.105145 0.841611
  9 0.000000 2.444921 0.000001 0.305069 -0.279960 -0.656587
  10 -0.000000 2.432505 -0.000001 0.090885 -0.022663 -0.340593
  11 -3.472169 5.539383 -3.197413 0.747667 -1.110171 0.429125
  12 0.000001 7.047306 -0.000000 -0.033610 -0.955739 -0.063483
  13 0.000001 8.630060 -0.000001 -0.422009 -0.301187 -0.364618
  14 -0.000000 5.965773 0.000000 1.575095 0.061579 -3.071680
  15 -0.000001 7.674961 -1.560059 0.033601 -0.235765 -0.779186
  16 -0.000004 13.236122 0.000000 0.075609 -0.203180 -0.142504
  17 -0.000001 14.645545 -0.000001 0.180297 -0.264768 0.306845
  18 2.026714 7.454577 0.321386 0.187289 0.505200 -0.337722
  19 -0.000000 2.313501 0.000000 0.332628 0.909791 -0.045696
  20 0.000000 11.242268 -0.000000 0.549187 0.151947 0.587066
  21 -0.000002 12.545878 0.000000 -0.172270 -0.070847 0.555478
  22 -1.445640 -34.837849 0.001142 -3.141592 0.000000 -0.028921
  23 -1.684168 2.625993 -5.070540 0.599889 -1.945697 1.036945
  24 -0.000005 8.319983 -0.000002 -0.004433 0.923379 0.047029
  25 -0.000000 8.623917 -0.000008 -0.248362 0.359909 0.574931
  26 -0.000012 11.070609 -0.000007 0.011635 3.139081 -0.259453
  27 0.000001 4.509339 0.000004 0.835849 3.081580 -0.018370
  28 1.125614 8.218366 2.253409 0.694656 -0.478384 -0.450933
  29 0.000001 3.803350 -0.000002 0.055084 0.414453 -1.012431
  30 -0.000010 12.384514 0.000013 -2.152635 -1.679975 0.405140
  31 0.000013 15.308076 -0.000017 -0.812184 -0.350103 0.055542
  32 3.320574 8.398383 1.366535 -0.388718 0.792699 -1.294060
  33 -0.017634 4.512975 -0.014514 -0.761990 2.947790 -0.053845
  34 0.991718 8.218366 -2.315453 -0.841345 0.370043 -0.881388
  35 0.000002 3.803347 -0.000004 0.263781 0.575959 -1.070371
  36 0.000016 12.384512 -0.000005 0.559182 0.323597 -0.824684
  37 -0.000001 15.308075 -0.000009 1.250202 1.101232 0.369886
  38 3.234847 8.398382 -1.558637 0.357338 -0.871948 -1.290176
  39 -0.000012 11.070609 -0.000007 0.987826 0.413407 -0.477175
  40 2.574707 11.203208 -2.534711 -0.155889 0.444897 -1.418406
  41 4.278137 9.082752 2.407432 -0.354047 0.442411 -1.417305
  42 0.016260 11.067001 -0.052126 -1.031040 -0.422050 -0.390064
  43 2.683744 11.043582 2.325343 0.387046 -1.019955 -1.949756
  44 4.152773 9.242442 -2.813798 0.424384 -0.457986 -1.752010
  time 9
  0 -0.001140 1.445637 35.631657 1.570796 -0.000000 1.570796
  1 -1.445641 -34.837849 0.001142 -0.000000 0.000000 -0.084291
  2 0.000000 8.262691 0.000000 -0.046983 0.059070 0.128959
  3 0.000000 5.965772 -0.000001 -0.021722 -0.131027 0.371846
  4 0.000000 5.965772 -0.000001 -1.575724 -0.130408 0.067539
  5 0.000001 7.629252 -1.118940 -0.149609 0.106271 1.098557
  6 -0.000003 13.154882 0.000002 0.434268 -0.157862 -0.460662
  7 0.000000 14.721386 0.000001 0.238137 -0.066639 -0.874260
  8 -1.861428 7.666951 0.620430 0.087979 0.105145 0.841611
  9 -0.000000 2.444920 0.000001 0.305069 -0.279960 -0.656587
  10 0.000000 2.432505 0.000001 0.090885 -0.022663 -0.340593
  11 -3.472168 5.539384 -3.197413 0.747667 -1.110171 0.429125
  12 -0.000002 7.047306 -0.000001 -0.033610 -0.955739 -0.063483
  13 0.000000 8.630061 -0.000001 -0.422009 -0.301187 -0.364618
  14 0.000000 5.965772 -0.000001 1.574845 0.062110 -3.071639
  15 -0.000000 7.674963 -1.560057 0.033601 -0.235765 -0.779186
  16 -0.000001 13.236124 0.000002 0.121840 -0.198521 -0.114878
  17 0.000000 14.645545 -0.000000 0.212527 -0.237721 0.369072
  18 2.026716 7.454578 0.321387 0.187290 0.505200 -0.337722
  19 0.000001 2.313500 -0.000001 0.332628 0.909791 -0.045696
  20 -0.000000 11.242269 -0.000001 0.561449 0.178389 0.629992
  21 0.000000 12.545882 0.000000 -0.172271 -0.070848 0.555478
  22 -1.445640 -34.837849 0.001142 -3.141592 0.000000 -0.028921
  23 -1.684168 2.625993 -5.070540 0.599889 -1.945697 1.036945
  24 -0.000005 8.319983 -0.000002 -0.004433 0.923379 0.047029
  25 -0.000000 8.623917 -0.000008 -0.248362 0.359909 0.574931
  26 -0.000012 11.070609 -0.000007 0.011635 3.139081 -0.259453
  27 0.000001 4.509339 0.000004 0.841072 3.061120 -0.017867
  28 1.125607 8.218376 2.253397 0.695055 -0.541652 -0.365415
  29 0.000000 3.803350 -0.000002 0.046919 0.427589 -1.014197
  30 -0.000011 12.384517 0.000011 -1.875484 -1.718582 0.065349
  31 0.000012 15.308077 -0.000018 -0.812184 -0.350103 0.055542
  32 3.320569 8.398393 1.366525 -0.388718 0.792696 -1.294060
  33 -0.017634 4.512975 -0.014514 -0.761990 2.947790 -0.053845
  34 0.991718 8.218366 -2.315453 -0.842673 0.383101 -0.857242
  35 0.000001 3.803348 -0.000003 0.263781 0.575959 -1.070371
  36 0.000016 12.384514 -0.000003 0.559182 0.323597 -0.824684
  37 0.000000 15.308081 -0.000010 1.250202 1.101232 0.369886
  38 3.234847 8.398382 -1.558637 0.357338 -0.871948 -1.290176
  39 -0.000012 11.070609 -0.000007 0.987826 0.413407 -0.477175
  40 2.558074 11.219168 -2.521092 -0.119614 0.472160 -1.329551
  41 4.294951 9.066666 2.394148 -0.318275 0.470890 -1.329042
  42 0.016260 11.067001 -0.052126 -1.031040 -0.422050 -0.390064
  43 2.671227 11.089182 2.304113 0.318929 -1.093212 -1.742019
  44 4.165291 9.196842 -2.792568 0.350957 -0.527824 -1.580617
  time 10
  0 -0.001140 1.445637 35.403549 1.570796 -0.000000 1.570796
  1 -1.445641 -34.837849 0.001142 -0.000000 -0.000000 -0.130493
  2 0.000000 8.262689 -0.000000 -0.049650 0.054788 0.143363
  3 0.000000 5.965775 -0.000001 -0.021722 -0.131027 0.371846
  4 0.000000 5.965775 -0.000001 -1.583973 -0.116539 0.068348
  5 0.000001 7.629252 -1.118941 -0.149609 0.106271 1.098557
  6 0.000002 13.154879 -0.000000 0.462087 -0.078858 -0.554167
  7 0.000002 14.721387 0.000001 0.238137 -0.066638 -0.874259
  8 -1.861429 7.666950 0.620429 0.087979 0.105145 0.841611
  9 -0.000000 2.444921 0.000001 0.305069 -0.279960 -0.656587
  10 -0.000000 2.432505 -0.000002 0.090885 -0.022663 -0.340593
  11 -3.472169 5.539384 -3.197414 0.747667 -1.110171 0.429125
  12 0.000001 7.047307 -0.000000 -0.033610 -0.955739 -0.063483
  13 0.000001 8.630059 -0.000000 -0.422009 -0.301187 -0.364618
  14 0.000000 5.965775 -0.000001 1.574540 0.062523 -3.071589
  15 0.000000 7.674962 -1.560058 0.033601 -0.235765 -0.779186
  16 -0.000001 13.236124 -0.000001 0.190787 -0.195932 -0.033628
  17 0.000001 14.645543 0.000001 0.252988 -0.208014 0.444132
  18 2.026715 7.454577 0.321388 0.187290 0.505200 -0.337722
  19 -0.000001 2.313502 -0.000000 0.332628 0.909791 -0.045696
  20 0.000000 11.242267 -0.000001 0.578515 0.197761 0.731548
  21 -0.000001 12.545879 0.000002 -0.172271 -0.070848 0.555478
  22 -1.445640 -34.837849 0.001142 -3.141592 0.000000 -0.028921
  23 -1.684168 2.625993 -5.070540 0.599889 -1.945697 1.036945
  24 -0.000005 8.319983 -0.000002 -0.004433 0.923379 0.047029
  25 -0.000000 8.623917 -0.000008 -0.248362 0.359909 0.574931
  26 -0.000012 11.070609 -0.000007 0.011635 3.139081 -0.259453
  27 0.000001 4.509339 0.000004 0.845569 3.043559 -0.017349
  28 1.125609 8.218376 2.253397 0.685572 -0.612870 -0.253987
  29 0.000001 3.803350 -0.000002 0.038492 0.432606 -1.015847
  30 -0.000011 12.384517 0.000012 -1.792586 -1.741722 -0.049831
  31 0.000012 15.308069 -0.000017 -0.812184 -0.350103 0.055542
  32 3.320571 8.398393 1.366524 -0.388718 0.792696 -1.294060
  33 -0.017634 4.512975 -0.014514 -0.761990 2.947790 -0.053845
  34 0.991718 8.218366 -2.315453 -0.848465 0.415671 -0.791326
  35 0.000003 3.803347 -0.000005 0.263781 0.575959 -1.070371
  36 0.000017 12.384509 -0.000004 0.559182 0.323597 -0.824684
  37 0.000001 15.308081 -0.000008 1.250202 1.101232 0.369886
  38 3.234847 8.398382 -1.558637 0.357338 -0.871948 -1.290176
  39 -0.000012 11.070609 -0.000007 0.987826 0.413407 -0.477175
  40 2.528655 11.232551 -2.503865 -0.076595 0.500484 -1.220313
  41 4.324504 9.053187 2.377175 -0.275933 0.501779 -1.220764
  42 0.016260 11.067001 -0.052126 -1.031040 -0.422050 -0.390064
  43 2.656286 11.143607 2.278776 0.174496 -1.168250 -1.432574
  44 4.180232 9.142418 -2.767231 0.251082 -0.593954 -1.357583
  time 11
  0 -0.001140 1.445637 35.084198 1.570796 -0.000000 1.570796
  1 -1.445641 -34.837849 0.001142 -0.000000 0.000000 -0.169190
  2 0.000002 8.262690 -0.000000 -0.052091 0.050987 0.156270
  3 0.000000 5.965774 0.000000 -0.021722 -0.131027 0.371846
  4 0.000000 5.965774 0.000000 -1.591777 -0.103785 0.069022
  5 0.000000 7.629252 -1.118939 -0.149609 0.106271 1.098557
  6 0.000000 13.154879 -0.000000 0.464421 0.037303 -0.736377
  7 0.000001 14.721384 -0.000001 0.238137 -0.066639 -0.874260
  8 -1.861430 7.666951 0.620426 0.087979 0.105145 0.841611
  9 0.000000 2.444921 -0.000001 0.305069 -0.279960 -0.656587
  10 0.000000 2.432505 0.000001 0.090885 -0.022663 -0.340593
  11 -3.472169 5.539383 -3.197416 0.747667 -1.110171 0.429125
  12 0.000000 7.047306 -0.000001 -0.033610 -0.955739 -0.063483
  13 0.000000 8.630059 -0.000000 -0.422009 -0.301187 -0.364618
  14 0.000000 5.965774 0.000000 1.574173 0.062834 -3.071529
  15 0.000000 7.674963 -1.560057 0.033601 -0.235765 -0.779186
  16 -0.000003 13.236123 -0.000001 0.275368 -0.206205 0.130646
  17 -0.000003 14.645547 -0.000001 0.288308 -0.185513 0.507467
  18 2.026715 7.454578 0.321387 0.187290 0.505200 -0.337722
  19 0.000001 2.313501 -0.000001 0.332628 0.909791 -0.045696
  20 0.000001 11.242269 -0.000003 0.594122 0.189024 0.916430
  21 -0.000002 12.545881 -0.000000 -0.172271 -0.070847 0.555478
  22 -1.445640 -34.837849 0.001142 -3.141592 0.000000 -0.028921
  23 -1.684168 2.625993 -5.070540 0.599889 -1.945697 1.036945
  24 -0.000005 8.319983 -0.000002 -0.004433 0.923379 0.047029
  25 -0.000000 8.623917 -0.000008 -0.248362 0.359909 0.574931
  26 -0.000012 11.070609 -0.000007 0.011635 3.139081 -0.259453
  27 0.000001 4.509339 0.000004 0.849093 3.029846 -0.016889
  28 1.125609 8.218377 2.253397 0.667307 -0.662890 -0.147315
  29 0.000001 3.803348 -0.000005 0.026972 0.431391 -1.018490
  30 -0.000009 12.384518 0.000013 -1.767309 -1.750741 -0.086775
  31 0.000011 15.308072 -0.000020 -0.812184 -0.350103 0.055542
  32 3.320572 8.398395 1.366523 -0.388718 0.792696 -1.294060
  33 -0.017634 4.512975 -0.014514 -0.761990 2.947790 -0.053845
  34 0.991718 8.218366 -2.315453 -0.856682 0.477643 -0.660328
  35 -0.000000 3.803347 -0.000004 0.263780 0.575958 -1.070371
  36 0.000018 12.384513 -0.000005 0.559182 0.323597 -0.824684
  37 0.000003 15.308077 -0.000008 1.250202 1.101233 0.369886
  38 3.234847 8.398382 -1.558637 0.357338 -0.871948 -1.290176
  39 -0.000012 11.070609 -0.000007 0.987826 0.413407 -0.477175
  40 2.485068 11.232543 -2.487510 -0.046315 0.520682 -1.126649
  41 4.368048 9.053228 2.360734 -0.245802 0.523302 -1.127447
  42 0.016260 11.067001 -0.052126 -1.031040 -0.422050 -0.390064
  43 2.643768 11.189206 2.257546 -0.008211 -1.211824 -1.114464
  44 4.192750 9.096818 -2.746001 0.172255 -0.632269 -1.159822
  time 12
  0 -0.001140 1.445637 34.673599 1.570796 -0.000000 1.570796
  1 -1.445641 -34.837849 0.001142 -0.000000 0.000000 -0.185436
  2 0.000001 8.262690 0.000000 -0.054190 0.047801 0.167177
  3 0.000000 5.965775 -0.000000 -0.021722 -0.131027 0.371846
  4 0.000000 5.965775 -0.000000 -1.598935 -0.092372 0.069565
  5 0.000001 7.629252 -1.118936 -0.149609 0.106271 1.098557
  6 0.000000 13.154877 0.000000 0.413903 0.185783 -1.044355
  7 -0.000001 14.721381 0.000001 0.238137 -0.066638 -0.874260
  8 -1.861429 7.666952 0.620428 0.087979 0.105145 0.841611
  9 0.000000 2.444920 0.000001 0.305069 -0.279960 -0.656587
  10 0.000000 2.432505 -0.000001 0.090885 -0.022663 -0.340593
  11 -3.472169 5.539385 -3.197413 0.747667 -1.110171 0.429125
  12 0.000000 7.047306 0.000000 -0.033610 -0.955739 -0.063483
  13 -0.000000 8.630060 -0.000001 -0.422009 -0.301187 -0.364618
  14 0.000000 5.965775 -0.000000 1.573740 0.063057 -3.071458
  15 -0.000001 7.674962 -1.560058 0.033601 -0.235765 -0.779186
  16 -0.000003 13.236124 -0.000000 0.361608 -0.245288 0.404067
  17 -0.000004 14.645548 -0.000001 0.303445 -0.176769 0.534096
  18 2.026714 7.454577 0.321386 0.187290 0.505200 -0.337722
  19 -0.000000 2.313502 -0.000000 0.332628 0.909791 -0.045696
  20 0.000003 11.242267 -0.000003 0.589034 0.134196 1.205567
  21 -0.000000 12.545879 0.000002 -0.172270 -0.070847 0.555478
  22 -1.445640 -34.837849 0.001142 -3.141592 0.000000 -0.028921
  23 -1.684168 2.625993 -5.070540 0.599889 -1.945697 1.036945
  24 -0.000005 8.319983 -0.000002 -0.004433 0.923379 0.047029
  25 -0.000000 8.623917 -0.000008 -0.248362 0.359909 0.574931
  26 -0.000012 11.070609 -0.000007 0.011635 3.139081 -0.259453
  27 0.000001 4.509339 0.000004 0.851392 3.020926 -0.016562
  28 1.125609 8.218377 2.253397 0.653295 -0.664890 -0.083667
  29 0.000002 3.803348 -0.000004 0.009497 0.425761 -1.023237
  30 -0.000010 12.384516 0.000012 -1.759168 -1.752686 -0.095737
  31 0.000011 15.308068 -0.000021 -0.812184 -0.350103 0.055542
  32 3.320570 8.398395 1.366524 -0.388718 0.792696 -1.294060
  33 -0.017634 4.512975 -0.014514 -0.761990 2.947790 -0.053845
  34 0.991718 8.218366 -2.315453 -0.853523 0.577851 -0.436682
  35 -0.000001 3.803349 -0.000005 0.263780 0.575958 -1.070371
  36 0.000017 12.384508 -0.000006 0.559181 0.323597 -0.824684
  37 0.000014 15.308077 -0.000008 1.250203 1.101233 0.369886
  38 3.234847 8.398382 -1.558637 0.357338 -0.871948 -1.290176
  39 -0.000012 11.070609 -0.000007 0.987826 0.413407 -0.477175
  40 2.425923 11.208328 -2.476502 -0.051841 0.528373 -1.086973
  41 4.426833 9.077697 2.349054 -0.250882 0.528373 -1.086973
  42 0.016260 11.067001 -0.052126 -1.031040 -0.422050 -0.390064
  43 2.638519 11.208328 2.248644 -0.099073 -1.222848 -0.967892
  44 4.197999 9.077696 -2.737098 0.178192 -0.643886 -1.075488
end
