version 1
nodes
0 "v0" -1
1 "v1" -1
2 "v2" -1
3 "v3" -1
4 "v4" -1
5 "v5" -1
6 "v6" -1
7 "v7" -1
8 "v8" -1
9 "v9" -1
10 "v10" -1
11 "v11" -1
12 "v12" -1
13 "v13" -1
14 "v14" -1
15 "v15" -1
16 "v16" -1
17 "v17" -1
18 "v18" -1
19 "v19" -1
20 "v20" -1
21 "v21" -1
22 "v22" -1
23 "v23" -1
24 "v24" -1
25 "v25" -1
26 "v26" -1
27 "v27" -1
28 "v28" -1
29 "v29" -1
30 "v30" -1
31 "v31" -1
32 "v32" -1
33 "v33" -1
34 "v34" -1
35 "v35" -1
36 "v36" -1
37 "v37" -1
38 "v38" -1
39 "v39" -1
40 "v40" -1
41 "v41" -1
42 "v42" -1
43 "v43" -1
44 "v44" -1
45 "v45" -1
46 "v46" -1
47 "v47" -1
48 "v48" -1
49 "v49" -1
50 "v50" -1
51 "v51" -1
52 "v52" -1
53 "v53" -1
54 "v54" -1
55 "v55" -1
56 "v56" -1
end
skeleton
  time 0
  0 0.000000 1.089116 -0.000094 0.000000 -0.000000 0.000000
  1 0.009106 0.611199 17.599907 0.000000 -0.000000 0.000000
  2 0.871293 0.435646 -0.000094 0.000000 -0.000000 0.000000
  3 0.141106 0.531999 17.599907 0.000000 -0.000000 0.000000
  4 0.871293 -0.435646 -0.000094 0.000000 -0.000000 0.000000
  5 0.141106 0.373599 17.599907 0.000000 -0.000000 0.000000
  6 0.000000 -1.089116 -0.000094 0.000000 -0.000000 0.000000
  7 0.009106 0.294399 17.599907 0.000000 -0.000000 0.000000
  8 -0.871293 -0.435646 -0.000094 0.000000 -0.000000 0.000000
  9 -0.122894 0.373599 17.599907 0.000000 -0.000000 0.000000
  10 -0.871293 0.435646 -0.000094 0.000000 -0.000000 0.000000
  11 -0.122894 0.531999 17.599907 0.000000 -0.000000 0.000000
  12 0.017246 1.982674 1.759905 0.000000 -0.000000 0.000000
  13 1.827545 0.775808 1.759905 0.000000 -0.000000 0.000000
  14 1.827545 -1.034492 1.759905 0.000000 -0.000000 0.000000
  15 0.017246 -2.241358 1.759905 0.000000 -0.000000 0.000000
  16 -1.793054 -1.034492 1.759905 0.000000 -0.000000 0.000000
  17 -1.793054 0.775808 1.759905 0.000000 -0.000000 0.000000
  18 0.059601 2.879568 5.279905 0.000000 -0.000000 0.000000
  19 2.545563 1.459018 5.279905 0.000000 -0.000000 0.000000
  20 2.545563 -1.122546 5.279905 0.000000 -0.000000 0.000000
  21 0.059601 -2.543096 5.279905 0.000000 -0.000000 0.000000
  22 -2.426361 -1.122546 5.279905 0.000000 -0.000000 0.000000
  23 -2.426361 1.459018 5.279905 0.000000 -0.000000 0.000000
  24 0.010347 1.836040 9.679906 0.000000 -0.000000 0.000000
  25 1.712837 0.814547 9.679906 0.000000 -0.000000 0.000000
  26 1.712837 -1.228440 9.679906 0.000000 -0.000000 0.000000
  27 0.010347 -2.249934 9.679906 0.000000 -0.000000 0.000000
  28 -1.692142 -1.228440 9.679906 0.000000 -0.000000 0.000000
  29 -1.692142 0.814547 9.679906 0.000000 -0.000000 0.000000
  30 0.000000 0.130694 -0.000094 0.000000 -0.000000 0.000000
  31 0.108912 0.043565 -0.000094 0.000000 -0.000000 0.000000
  32 0.108912 -0.043565 -0.000094 0.000000 -0.000000 0.000000
  33 0.000000 -0.130694 -0.000094 0.000000 -0.000000 0.000000
  34 -0.108912 -0.043565 -0.000094 0.000000 -0.000000 0.000000
  35 -0.108912 0.043565 -0.000094 0.000000 -0.000000 0.000000
  36 0.009106 0.558399 17.599907 0.000000 -0.000000 0.000000
  37 0.097106 0.505599 17.599907 0.000000 -0.000000 0.000000
  38 0.097106 0.399999 17.599907 0.000000 -0.000000 0.000000
  39 0.009106 0.347199 17.599907 0.000000 -0.000000 0.000000
  40 -0.078894 0.399999 17.599907 0.000000 -0.000000 0.000000
  41 -0.078894 0.505599 17.599907 0.000000 -0.000000 0.000000
  42 1.820118 0.410681 2.103328 0.000000 -0.000000 0.000000
  43 2.179019 -0.247304 2.103328 0.000000 -0.000000 0.000000
  44 1.461217 -0.247304 2.103328 0.000000 -0.000000 0.000000
  45 1.820118 -0.008037 2.880947 0.000000 -0.000000 0.000000
  46 1.820118 -0.008037 1.325709 0.000000 -0.000000 0.000000
  47 0.137181 1.508129 2.305563 0.000000 -0.000000 0.000000
  48 0.496082 0.850144 2.305563 0.000000 -0.000000 0.000000
  49 -0.221720 0.850144 2.305563 0.000000 -0.000000 0.000000
  50 0.137181 1.089411 3.083182 0.000000 -0.000000 0.000000
  51 0.137181 1.089411 1.527944 0.000000 -0.000000 0.000000
  52 0.000000 -1.456596 16.065229 0.000000 -0.000000 0.000000
  53 0.651817 -2.651593 16.065229 0.000000 -0.000000 0.000000
  54 -0.651817 -2.651593 16.065229 0.000000 -0.000000 0.000000
  55 0.000000 -2.217049 17.477499 0.000000 -0.000000 0.000000
  56 0.000000 -2.217049 14.652959 0.000000 -0.000000 0.000000
  time 1
  0 0.253303 2.638359 1.502430 0.000000 -0.000000 0.000000
  1 -0.455697 0.399464 14.098248 0.000000 -0.000000 0.000000
  2 2.459351 0.983823 1.502430 0.000000 -0.000000 0.000000
  3 -0.367697 0.346664 14.098248 0.000000 -0.000000 0.000000
  4 2.459351 -1.222226 1.502430 0.000000 -0.000000 0.000000
  5 -0.367697 0.241064 14.098248 0.000000 -0.000000 0.000000
  6 0.253303 -2.876762 1.502430 0.000000 -0.000000 0.000000
  7 -0.455697 0.188264 14.098248 0.000000 -0.000000 0.000000
  8 -1.952745 -1.222226 1.502430 0.000000 -0.000000 0.000000
  9 -0.543697 0.241064 14.098248 0.000000 -0.000000 0.000000
  10 -1.952745 0.983823 1.502430 0.000000 -0.000000 0.000000
  11 -0.543697 0.346664 14.098248 0.000000 -0.000000 0.000000
  12 -0.300388 3.574700 4.713460 0.000000 -0.000000 0.000000
  13 2.779613 1.840387 4.713460 0.000000 -0.000000 0.000000
  14 2.779613 -1.239613 4.713460 0.000000 -0.000000 0.000000
  15 -0.300388 -3.307612 4.713460 0.000000 -0.000000 0.000000
  16 -2.787165 -1.239613 4.713460 0.000000 -0.000000 0.000000
  17 -2.824241 1.840387 4.713460 0.000000 -0.000000 0.000000
  18 0.331115 2.372756 8.624258 0.000000 -0.000000 0.000000
  19 2.466939 1.176694 8.624258 0.000000 -0.000000 0.000000
  20 2.466939 -1.300862 8.624258 0.000000 -0.000000 0.000000
  21 0.331115 -2.496924 8.624258 0.000000 -0.000000 0.000000
  22 -1.804709 -1.300862 8.624258 0.000000 -0.000000 0.000000
  23 -1.804709 1.176694 8.624258 0.000000 -0.000000 0.000000
  24 -0.455697 0.452264 14.098248 0.000000 -0.000000 0.000000
  25 -0.323697 0.373064 14.098248 0.000000 -0.000000 0.000000
  26 -0.323697 0.214664 14.098248 0.000000 -0.000000 0.000000
  27 -0.455697 0.135464 14.098248 0.000000 -0.000000 0.000000
  28 -0.587697 0.214664 14.098248 0.000000 -0.000000 0.000000
  29 -0.587697 0.373064 14.098248 0.000000 -0.000000 0.000000
  30 0.000000 1.445269 -0.000094 0.000000 -0.000000 0.000000
  31 1.204390 0.481756 -0.000094 0.000000 -0.000000 0.000000
  32 1.204390 -0.481756 -0.000094 0.000000 -0.000000 0.000000
  33 0.000000 -1.445269 -0.000094 0.000000 -0.000000 0.000000
  34 -1.204390 -0.481756 -0.000094 0.000000 -0.000000 0.000000
  35 -1.204390 0.481756 -0.000094 0.000000 -0.000000 0.000000
  36 0.000000 0.072263 -0.000093 0.000000 -0.000000 0.000000
  37 0.060220 0.036132 -0.000093 0.000000 -0.000000 0.000000
  38 0.060220 -0.036132 -0.000093 0.000000 -0.000000 0.000000
  39 0.000000 -0.072263 -0.000093 0.000000 -0.000000 0.000000
  40 -0.060220 -0.036132 -0.000093 0.000000 -0.000000 0.000000
  41 -0.060220 0.036132 -0.000093 0.000000 -0.000000 0.000000
  42 1.645520 1.466258 13.934329 0.000000 -0.000000 0.000000
  43 2.652906 -0.380616 13.934329 0.000000 -0.000000 0.000000
  44 0.638134 -0.380616 13.934329 0.000000 -0.000000 0.000000
  45 1.645520 0.290975 16.117001 0.000000 -0.000000 0.000000
  46 1.645520 0.290975 11.751659 0.000000 -0.000000 0.000000
  47 -1.695403 2.563707 5.944162 0.000000 -0.000000 0.000000
  48 -0.688017 0.716833 5.944162 0.000000 -0.000000 0.000000
  49 -2.702789 0.716833 5.944162 0.000000 -0.000000 0.000000
  50 -1.695403 1.388424 8.126832 0.000000 -0.000000 0.000000
  51 -1.695403 1.388424 3.761493 0.000000 -0.000000 0.000000
  52 -1.832584 -1.805525 21.646273 0.000000 -0.000000 0.000000
  53 -1.316654 -2.751396 21.646273 0.000000 -0.000000 0.000000
  54 -2.348514 -2.751396 21.646273 0.000000 -0.000000 0.000000
  55 -1.832584 -2.407443 22.764122 0.000000 -0.000000 0.000000
  56 -1.832584 -2.407443 20.528423 0.000000 -0.000000 0.000000
  time 2
  0 -0.260753 3.435802 4.378743 0.000000 -0.000000 0.000000
  1 0.000000 0.087691 -0.000093 0.000000 -0.000000 0.000000
  2 2.414611 1.225931 4.378743 0.000000 -0.000000 0.000000
  3 0.073076 0.043846 -0.000093 0.000000 -0.000000 0.000000
  4 2.414611 -1.449433 4.378743 0.000000 -0.000000 0.000000
  5 0.073076 -0.043846 -0.000093 0.000000 -0.000000 0.000000
  6 -0.260753 -3.214388 4.378743 0.000000 -0.000000 0.000000
  7 0.000000 -0.087691 -0.000093 0.000000 -0.000000 0.000000
  8 -2.936117 -1.449433 4.378743 0.000000 -0.000000 0.000000
  9 -0.073076 -0.043846 -0.000093 0.000000 -0.000000 0.000000
  10 -2.936117 1.225931 4.378743 0.000000 -0.000000 0.000000
  11 -0.073076 0.043846 -0.000093 0.000000 -0.000000 0.000000
  12 0.175905 2.395941 7.903329 0.000000 -0.000000 0.000000
  13 2.048522 1.122561 7.903329 0.000000 -0.000000 0.000000
  14 2.048522 -0.750057 7.903329 0.000000 -0.000000 0.000000
  15 0.175905 -2.023437 7.903329 0.000000 -0.000000 0.000000
  16 -1.696713 -0.750057 7.903329 0.000000 -0.000000 0.000000
  17 -1.696713 1.122561 7.903329 0.000000 -0.000000 0.000000
  18 -0.490878 -0.042447 13.197086 0.000000 -0.000000 0.000000
  19 -0.358878 -0.117247 13.197086 0.000000 -0.000000 0.000000
  20 -0.358878 -0.266847 13.197086 0.000000 -0.000000 0.000000
  21 -0.490878 -0.341647 13.197086 0.000000 -0.000000 0.000000
  22 -0.622878 -0.266847 13.197086 0.000000 -0.000000 0.000000
  23 -0.622878 -0.117247 13.197086 0.000000 -0.000000 0.000000
  24 -0.490878 -0.086447 13.197086 0.000000 -0.000000 0.000000
  25 -0.402878 -0.139247 13.197086 0.000000 -0.000000 0.000000
  26 -0.402878 -0.244847 13.197086 0.000000 -0.000000 0.000000
  27 -0.490878 -0.297647 13.197086 0.000000 -0.000000 0.000000
  28 -0.578878 -0.244847 13.197086 0.000000 -0.000000 0.000000
  29 -0.578878 -0.139247 13.197086 0.000000 -0.000000 0.000000
  30 0.155210 3.062566 1.219208 0.000000 -0.000000 0.000000
  31 2.578006 1.124329 1.219208 0.000000 -0.000000 0.000000
  32 2.578006 -0.813908 1.219208 0.000000 -0.000000 0.000000
  33 0.155210 -2.752145 1.219208 0.000000 -0.000000 0.000000
  34 -2.267586 -0.813908 1.219208 0.000000 -0.000000 0.000000
  35 -2.267586 1.124329 1.219208 0.000000 -0.000000 0.000000
  36 0.000000 1.753823 -0.000093 0.000000 -0.000000 0.000000
  37 1.461519 0.876911 -0.000093 0.000000 -0.000000 0.000000
  38 1.461519 -0.876911 -0.000093 0.000000 -0.000000 0.000000
  39 0.000000 -1.753823 -0.000093 0.000000 -0.000000 0.000000
  40 -1.461519 -0.876911 -0.000093 0.000000 -0.000000 0.000000
  41 -1.461519 0.876911 -0.000093 0.000000 -0.000000 0.000000
  42 1.820118 1.347304 18.052177 0.000000 -0.000000 0.000000
  43 2.959538 -0.741633 18.052177 0.000000 -0.000000 0.000000
  44 0.680698 -0.741633 18.052177 0.000000 -0.000000 0.000000
  45 1.820118 0.017981 20.520931 0.000000 -0.000000 0.000000
  46 1.820118 0.017981 15.583436 0.000000 -0.000000 0.000000
  47 -1.472041 2.444753 7.672560 0.000000 -0.000000 0.000000
  48 -0.332621 0.355816 7.672560 0.000000 -0.000000 0.000000
  49 -2.611461 0.355816 7.672560 0.000000 -0.000000 0.000000
  50 -1.472041 1.115430 10.141314 0.000000 -0.000000 0.000000
  51 -1.472041 1.115430 5.203818 0.000000 -0.000000 0.000000
  52 -1.609222 -2.075330 28.056049 0.000000 -0.000000 0.000000
  53 -1.493336 -2.287786 28.056049 0.000000 -0.000000 0.000000
  54 -1.725107 -2.287786 28.056049 0.000000 -0.000000 0.000000
  55 -1.609222 -2.210530 28.307133 0.000000 -0.000000 0.000000
  56 -1.609222 -2.210530 27.804964 0.000000 -0.000000 0.000000
  time 3
  0 0.155210 2.677940 7.439875 0.000000 -0.000000 0.000000
  1 0.000000 2.076002 -0.000093 0.000000 -0.000000 0.000000
  2 2.106224 1.234190 7.439875 0.000000 -0.000000 0.000000
  3 1.730002 1.038001 -0.000093 0.000000 -0.000000 0.000000
  4 2.106224 -0.716823 7.439875 0.000000 -0.000000 0.000000
  5 1.730002 -1.038001 -0.000093 0.000000 -0.000000 0.000000
  6 0.155210 -2.160574 7.439875 0.000000 -0.000000 0.000000
  7 0.000000 -2.076002 -0.000093 0.000000 -0.000000 0.000000
  8 -1.795803 -0.716823 7.439875 0.000000 -0.000000 0.000000
  9 -1.730002 -1.038001 -0.000093 0.000000 -0.000000 0.000000
  10 -1.795803 1.234190 7.439875 0.000000 -0.000000 0.000000
  11 -1.730002 1.038001 -0.000093 0.000000 -0.000000 0.000000
  12 -0.152727 -0.187615 11.875726 0.000000 -0.000000 0.000000
  13 -0.020727 -0.280015 11.875726 0.000000 -0.000000 0.000000
  14 -0.020727 -0.412015 11.875726 0.000000 -0.000000 0.000000
  15 -0.152727 -0.504415 11.875726 0.000000 -0.000000 0.000000
  16 -0.284727 -0.412015 11.875726 0.000000 -0.000000 0.000000
  17 -0.284727 -0.280015 11.875726 0.000000 -0.000000 0.000000
  18 -0.152727 -0.244815 11.875726 0.000000 -0.000000 0.000000
  19 -0.064727 -0.297615 11.875726 0.000000 -0.000000 0.000000
  20 -0.064727 -0.394415 11.875726 0.000000 -0.000000 0.000000
  21 -0.152727 -0.447215 11.875726 0.000000 -0.000000 0.000000
  22 -0.240726 -0.394415 11.875726 0.000000 -0.000000 0.000000
  23 -0.240726 -0.297615 11.875726 0.000000 -0.000000 0.000000
  24 0.000000 0.103800 -0.000094 0.000000 -0.000000 0.000000
  25 0.086500 0.051900 -0.000094 0.000000 -0.000000 0.000000
  26 0.086500 -0.051900 -0.000094 0.000000 -0.000000 0.000000
  27 0.000000 -0.103800 -0.000094 0.000000 -0.000000 0.000000
  28 -0.086500 -0.051900 -0.000094 0.000000 -0.000000 0.000000
  29 -0.086500 0.051900 -0.000094 0.000000 -0.000000 0.000000
  30 -0.103473 3.549413 3.992531 0.000000 -0.000000 0.000000
  31 2.976526 1.512533 3.939140 0.000000 -0.000000 0.000000
  32 2.976526 -1.378587 3.992531 0.000000 -0.000000 0.000000
  33 -0.103473 -3.138136 4.066684 0.000000 -0.000000 0.000000
  34 -3.035168 -1.378587 4.029607 0.000000 -0.000000 0.000000
  35 -3.035168 1.085413 4.029607 0.000000 -0.000000 0.000000
  36 0.093126 3.105879 1.270704 0.000000 -0.000000 0.000000
  37 2.500280 1.074296 1.270704 0.000000 -0.000000 0.000000
  38 2.500280 -1.226998 1.270704 0.000000 -0.000000 0.000000
  39 0.093126 -2.671291 1.270704 0.000000 -0.000000 0.000000
  40 -2.314028 -1.226998 1.270704 0.000000 -0.000000 0.000000
  41 -2.314028 1.661587 1.270704 0.000000 -0.000000 0.000000
  42 1.820118 0.856434 21.942249 0.000000 -0.000000 0.000000
  43 2.550479 -0.482562 21.942249 0.000000 -0.000000 0.000000
  44 1.089756 -0.482562 21.942249 0.000000 -0.000000 0.000000
  45 1.820118 0.004345 23.524696 0.000000 -0.000000 0.000000
  46 1.820118 0.004345 20.359802 0.000000 -0.000000 0.000000
  47 -1.472041 1.953883 12.342858 0.000000 -0.000000 0.000000
  48 -0.741679 0.614887 12.342858 0.000000 -0.000000 0.000000
  49 -2.202402 0.614887 12.342858 0.000000 -0.000000 0.000000
  50 -1.472041 1.101794 13.925305 0.000000 -0.000000 0.000000
  51 -1.472041 1.101794 10.760411 0.000000 -0.000000 0.000000
  52 -1.609222 0.468140 2.931346 0.000000 -0.000000 0.000000
  53 -1.080529 -0.501130 2.931346 0.000000 -0.000000 0.000000
  54 -2.137914 -0.501130 2.931346 0.000000 -0.000000 0.000000
  55 -1.609222 -0.148669 4.076845 0.000000 -0.000000 0.000000
  56 -1.609222 -0.148669 1.785847 0.000000 -0.000000 0.000000
  time 4
  0 0.287242 -0.156312 13.609045 0.000000 -0.000000 0.000000
  1 -0.198669 3.379086 1.322199 0.000000 -0.000000 0.000000
  2 0.419242 -0.253112 13.609045 0.000000 -0.000000 0.000000
  3 2.441331 1.314576 1.375587 0.000000 -0.000000 0.000000
  4 0.419242 -0.385112 13.609045 0.000000 -0.000000 0.000000
  5 2.441331 -1.372914 1.322199 0.000000 -0.000000 0.000000
  6 0.287242 -0.481912 13.609045 0.000000 -0.000000 0.000000
  7 -0.198669 -2.956914 1.322199 0.000000 -0.000000 0.000000
  8 0.155242 -0.385112 13.609045 0.000000 -0.000000 0.000000
  9 -2.838669 -1.372914 1.322199 0.000000 -0.000000 0.000000
  10 0.155242 -0.253112 13.609045 0.000000 -0.000000 0.000000
  11 -2.838669 1.795086 1.322199 0.000000 -0.000000 0.000000
  12 0.287242 -0.213512 13.609045 0.000000 -0.000000 0.000000
  13 0.375242 -0.275112 13.609045 0.000000 -0.000000 0.000000
  14 0.375242 -0.363112 13.609045 0.000000 -0.000000 0.000000
  15 0.287242 -0.424712 13.609045 0.000000 -0.000000 0.000000
  16 0.199242 -0.363112 13.609045 0.000000 -0.000000 0.000000
  17 0.199242 -0.275112 13.609045 0.000000 -0.000000 0.000000
  18 0.000000 0.076708 -0.000094 0.000000 -0.000000 0.000000
  19 0.066702 0.036686 -0.000094 0.000000 -0.000000 0.000000
  20 0.066702 -0.036686 -0.000094 0.000000 -0.000000 0.000000
  21 0.000000 -0.076708 -0.000094 0.000000 -0.000000 0.000000
  22 -0.066702 -0.036686 -0.000094 0.000000 -0.000000 0.000000
  23 -0.066702 0.036686 -0.000094 0.000000 -0.000000 0.000000
  24 0.000000 1.600855 -0.000094 0.000000 -0.000000 0.000000
  25 1.334046 0.800428 -0.000094 0.000000 -0.000000 0.000000
  26 1.334046 -0.800428 -0.000094 0.000000 -0.000000 0.000000
  27 0.000000 -1.600855 -0.000094 0.000000 -0.000000 0.000000
  28 -1.334046 -0.800428 -0.000094 0.000000 -0.000000 0.000000
  29 -1.334046 0.800428 -0.000094 0.000000 -0.000000 0.000000
  30 -0.237989 2.533558 8.366784 0.000000 -0.000000 0.000000
  31 1.752591 0.941095 8.366784 0.000000 -0.000000 0.000000
  32 1.752591 -0.651369 8.366784 0.000000 -0.000000 0.000000
  33 -0.237989 -2.243833 8.366784 0.000000 -0.000000 0.000000
  34 -2.228568 -0.651369 8.366784 0.000000 -0.000000 0.000000
  35 -2.228568 0.941095 8.366784 0.000000 -0.000000 0.000000
  36 0.175905 3.520096 4.069774 0.000000 -0.000000 0.000000
  37 3.218828 1.672095 4.106850 0.000000 -0.000000 0.000000
  38 3.218828 -1.616064 4.218079 0.000000 -0.000000 0.000000
  39 0.175905 -3.538218 4.106850 0.000000 -0.000000 0.000000
  40 -2.904095 -1.616064 4.181003 0.000000 -0.000000 0.000000
  41 -2.904095 1.672095 4.069774 0.000000 -0.000000 0.000000
  42 1.820118 0.399657 23.600235 0.000000 -0.000000 0.000000
  43 2.169832 -0.241485 23.600235 0.000000 -0.000000 0.000000
  44 1.470404 -0.241485 23.600235 0.000000 -0.000000 0.000000
  45 1.820118 -0.008343 24.357944 0.000000 -0.000000 0.000000
  46 1.820118 -0.008343 22.842522 0.000000 -0.000000 0.000000
  47 -1.813391 1.497105 16.146475 0.000000 -0.000000 0.000000
  48 -1.463677 0.855963 16.146475 0.000000 -0.000000 0.000000
  49 -2.163105 0.855963 16.146475 0.000000 -0.000000 0.000000
  50 -1.813391 1.089106 16.904186 0.000000 -0.000000 0.000000
  51 -1.813391 1.089106 15.388762 0.000000 -0.000000 0.000000
  52 -1.950572 -1.424235 6.245367 0.000000 -0.000000 0.000000
  53 -1.248219 -2.711882 6.245367 0.000000 -0.000000 0.000000
  54 -2.652925 -2.711882 6.245367 0.000000 -0.000000 0.000000
  55 -1.950572 -2.243647 7.767128 0.000000 -0.000000 0.000000
  56 -1.950572 -2.243647 4.723606 0.000000 -0.000000 0.000000
  time 5
  0 0.413893 0.058263 14.947912 0.000000 -0.000000 0.000000
  1 0.248336 3.478889 4.378743 0.000000 -0.000000 0.000000
  2 0.501893 -0.007737 14.947912 0.000000 -0.000000 0.000000
  3 3.147410 1.739445 4.378743 0.000000 -0.000000 0.000000
  4 0.501893 -0.095737 14.947912 0.000000 -0.000000 0.000000
  5 3.147410 -1.739445 4.378743 0.000000 -0.000000 0.000000
  6 0.413893 -0.161737 14.947912 0.000000 -0.000000 0.000000
  7 0.248336 -3.478889 4.378743 0.000000 -0.000000 0.000000
  8 0.325893 -0.095737 14.947912 0.000000 -0.000000 0.000000
  9 -2.650738 -1.739445 4.378743 0.000000 -0.000000 0.000000
  10 0.325893 -0.007737 14.947912 0.000000 -0.000000 0.000000
  11 -2.650738 1.739445 4.378743 0.000000 -0.000000 0.000000
  12 0.000000 0.073865 -0.000094 0.000000 -0.000000 0.000000
  13 0.061554 0.030777 -0.000094 0.000000 -0.000000 0.000000
  14 0.061554 -0.030777 -0.000094 0.000000 -0.000000 0.000000
  15 0.000000 -0.073865 -0.000094 0.000000 -0.000000 0.000000
  16 -0.061554 -0.030777 -0.000094 0.000000 -0.000000 0.000000
  17 -0.061554 0.030777 -0.000094 0.000000 -0.000000 0.000000
  18 0.000000 1.415753 -0.000094 0.000000 -0.000000 0.000000
  19 1.231090 0.677099 -0.000094 0.000000 -0.000000 0.000000
  20 1.231090 -0.677099 -0.000094 0.000000 -0.000000 0.000000
  21 0.000000 -1.415753 -0.000094 0.000000 -0.000000 0.000000
  22 -1.231090 -0.677099 -0.000094 0.000000 -0.000000 0.000000
  23 -1.231090 0.677099 -0.000094 0.000000 -0.000000 0.000000
  24 -0.165270 3.022639 1.301600 0.000000 -0.000000 0.000000
  25 2.299703 1.383485 1.301600 0.000000 -0.000000 0.000000
  26 2.299703 -1.414313 1.301600 0.000000 -0.000000 0.000000
  27 -0.165270 -2.893297 1.301600 0.000000 -0.000000 0.000000
  28 -2.630244 -1.414313 1.301600 0.000000 -0.000000 0.000000
  29 -2.630244 1.543655 1.301600 0.000000 -0.000000 0.000000
  30 0.413893 0.106663 14.947912 0.000000 -0.000000 0.000000
  31 0.545893 0.001063 14.947912 0.000000 -0.000000 0.000000
  32 0.545893 -0.104537 14.947912 0.000000 -0.000000 0.000000
  33 0.413893 -0.210137 14.947912 0.000000 -0.000000 0.000000
  34 0.281893 -0.104537 14.947912 0.000000 -0.000000 0.000000
  35 0.281893 0.001063 14.947912 0.000000 -0.000000 0.000000
  36 -0.149002 2.720634 8.778744 0.000000 -0.000000 0.000000
  37 2.107846 1.366526 8.778744 0.000000 -0.000000 0.000000
  38 2.107846 -1.341692 8.778744 0.000000 -0.000000 0.000000
  39 -0.149002 -2.695801 8.778744 0.000000 -0.000000 0.000000
  40 -2.405849 -1.341692 8.778744 0.000000 -0.000000 0.000000
  41 -2.405849 1.366526 8.778744 0.000000 -0.000000 0.000000
  42 1.820118 0.136518 26.818672 0.000000 -0.000000 0.000000
  43 1.950550 -0.102607 26.818672 0.000000 -0.000000 0.000000
  44 1.689686 -0.102607 26.818672 0.000000 -0.000000 0.000000
  45 1.820118 -0.015652 27.101276 0.000000 -0.000000 0.000000
  46 1.820118 -0.015652 26.536072 0.000000 -0.000000 0.000000
  47 -1.569570 1.233967 19.657499 0.000000 -0.000000 0.000000
  48 -1.439138 0.994842 19.657499 0.000000 -0.000000 0.000000
  49 -1.700002 0.994842 19.657499 0.000000 -0.000000 0.000000
  50 -1.569570 1.081796 19.940102 0.000000 -0.000000 0.000000
  51 -1.569570 1.081796 19.374897 0.000000 -0.000000 0.000000
  52 -1.706751 -2.180761 7.719994 0.000000 -0.000000 0.000000
  53 -1.576319 -2.419886 7.719994 0.000000 -0.000000 0.000000
  54 -1.837183 -2.419886 7.719994 0.000000 -0.000000 0.000000
  55 -1.706751 -2.332932 8.002596 0.000000 -0.000000 0.000000
  56 -1.706751 -2.332932 7.437391 0.000000 -0.000000 0.000000
  time 6
  0 0.000000 0.067550 -0.000094 0.000000 -0.000000 0.000000
  1 -0.186252 2.548410 9.050636 0.000000 -0.000000 0.000000
  2 0.054040 0.027020 -0.000094 0.000000 -0.000000 0.000000
  3 1.866442 0.946030 9.087713 0.000000 -0.000000 0.000000
  4 0.054040 -0.027020 -0.000094 0.000000 -0.000000 0.000000
  5 1.866442 -1.517203 9.087713 0.000000 -0.000000 0.000000
  6 0.000000 -0.067550 -0.000094 0.000000 -0.000000 0.000000
  7 -0.186252 -2.748819 9.087713 0.000000 -0.000000 0.000000
  8 -0.054040 -0.027020 -0.000094 0.000000 -0.000000 0.000000
  9 -2.238946 -1.517203 9.087713 0.000000 -0.000000 0.000000
  10 -0.054040 0.027020 -0.000094 0.000000 -0.000000 0.000000
  11 -2.238946 0.946030 9.087713 0.000000 -0.000000 0.000000
  12 0.000000 1.296961 -0.000094 0.000000 -0.000000 0.000000
  13 1.080801 0.540400 -0.000094 0.000000 -0.000000 0.000000
  14 1.080801 -0.540400 -0.000094 0.000000 -0.000000 0.000000
  15 0.000000 -1.296961 -0.000094 0.000000 -0.000000 0.000000
  16 -1.080801 -0.540400 -0.000094 0.000000 -0.000000 0.000000
  17 -1.080801 0.540400 -0.000094 0.000000 -0.000000 0.000000
  18 -0.086228 2.734203 1.476683 0.000000 -0.000000 0.000000
  19 2.553772 1.150203 1.476683 0.000000 -0.000000 0.000000
  20 2.553772 -1.753798 1.476683 0.000000 -0.000000 0.000000
  21 -0.086228 -3.337797 1.476683 0.000000 -0.000000 0.000000
  22 -2.726228 -1.753798 1.476683 0.000000 -0.000000 0.000000
  23 -2.726228 1.150203 1.476683 0.000000 -0.000000 0.000000
  24 0.144863 3.965031 4.790703 0.000000 -0.000000 0.000000
  25 3.224863 1.743301 4.844093 0.000000 -0.000000 0.000000
  26 3.224863 -1.578969 4.790703 0.000000 -0.000000 0.000000
  27 0.144863 -3.426969 4.790703 0.000000 -0.000000 0.000000
  28 -2.935137 -1.578969 4.790703 0.000000 -0.000000 0.000000
  29 -2.935137 2.117031 4.790703 0.000000 -0.000000 0.000000
  30 0.289725 0.488451 15.849074 0.000000 -0.000000 0.000000
  31 0.377725 0.418051 15.849074 0.000000 -0.000000 0.000000
  32 0.377725 0.347651 15.849074 0.000000 -0.000000 0.000000
  33 0.289725 0.277251 15.849074 0.000000 -0.000000 0.000000
  34 0.201725 0.347651 15.849074 0.000000 -0.000000 0.000000
  35 0.201725 0.418051 15.849074 0.000000 -0.000000 0.000000
  36 0.289725 0.541251 15.849074 0.000000 -0.000000 0.000000
  37 0.421725 0.462052 15.849074 0.000000 -0.000000 0.000000
  38 0.421725 0.303651 15.849074 0.000000 -0.000000 0.000000
  39 0.289725 0.224451 15.849074 0.000000 -0.000000 0.000000
  40 0.157725 0.303651 15.849074 0.000000 -0.000000 0.000000
  41 0.157725 0.462052 15.849074 0.000000 -0.000000 0.000000
  42 1.824518 0.415071 1.987195 0.000000 -0.000000 0.000000
  43 2.184772 -0.245394 1.987195 0.000000 -0.000000 0.000000
  44 1.464264 -0.245394 1.987195 0.000000 -0.000000 0.000000
  45 1.824518 -0.005225 2.767744 0.000000 -0.000000 0.000000
  46 1.824518 -0.005225 1.206645 0.000000 -0.000000 0.000000
  47 0.135239 1.516654 2.190192 0.000000 -0.000000 0.000000
  48 0.495493 0.856189 2.190192 0.000000 -0.000000 0.000000
  49 -0.225014 0.856189 2.190192 0.000000 -0.000000 0.000000
  50 0.135239 1.096358 2.970741 0.000000 -0.000000 0.000000
  51 0.135239 1.096358 1.409642 0.000000 -0.000000 0.000000
  52 -0.002458 -1.997144 10.155021 0.000000 -0.000000 0.000000
  53 1.108286 -4.033509 10.155021 0.000000 -0.000000 0.000000
  54 -1.113202 -4.033509 10.155021 0.000000 -0.000000 0.000000
  55 -0.002458 -3.293013 12.561637 0.000000 -0.000000 0.000000
  56 -0.002458 -3.293013 7.748412 0.000000 -0.000000 0.000000
  time 7
  0 0.000000 1.089116 -0.000094 0.000000 -0.000000 0.000000
  1 0.009106 0.611201 17.599903 0.000000 -0.000000 0.000000
  2 0.871292 0.435646 -0.000094 0.000000 -0.000000 0.000000
  3 0.141107 0.532000 17.599903 0.000000 -0.000000 0.000000
  4 0.871292 -0.435646 -0.000094 0.000000 -0.000000 0.000000
  5 0.141107 0.373598 17.599903 0.000000 -0.000000 0.000000
  6 0.000000 -1.089116 -0.000094 0.000000 -0.000000 0.000000
  7 0.009106 0.294398 17.599903 0.000000 -0.000000 0.000000
  8 -0.871292 -0.435646 -0.000094 0.000000 -0.000000 0.000000
  9 -0.122896 0.373598 17.599903 0.000000 -0.000000 0.000000
  10 -0.871292 0.435646 -0.000094 0.000000 -0.000000 0.000000
  11 -0.122896 0.532000 17.599903 0.000000 -0.000000 0.000000
  12 0.017246 1.982674 1.759904 0.000000 -0.000000 0.000000
  13 1.827545 0.775808 1.759904 0.000000 -0.000000 0.000000
  14 1.827545 -1.034491 1.759904 0.000000 -0.000000 0.000000
  15 0.017246 -2.241357 1.759904 0.000000 -0.000000 0.000000
  16 -1.793054 -1.034491 1.759904 0.000000 -0.000000 0.000000
  17 -1.793054 0.775808 1.759904 0.000000 -0.000000 0.000000
  18 0.059601 2.879568 5.279903 0.000000 -0.000000 0.000000
  19 2.545563 1.459018 5.279903 0.000000 -0.000000 0.000000
  20 2.545563 -1.122547 5.279903 0.000000 -0.000000 0.000000
  21 0.059601 -2.543097 5.279903 0.000000 -0.000000 0.000000
  22 -2.426361 -1.122547 5.279903 0.000000 -0.000000 0.000000
  23 -2.426361 1.459018 5.279903 0.000000 -0.000000 0.000000
  24 0.010347 1.836042 9.679903 0.000000 -0.000000 0.000000
  25 1.712837 0.814547 9.679903 0.000000 -0.000000 0.000000
  26 1.712837 -1.228441 9.679903 0.000000 -0.000000 0.000000
  27 0.010347 -2.249934 9.679903 0.000000 -0.000000 0.000000
  28 -1.692143 -1.228441 9.679903 0.000000 -0.000000 0.000000
  29 -1.692143 0.814547 9.679903 0.000000 -0.000000 0.000000
  30 0.000000 0.130694 -0.000085 0.000000 -0.000000 0.000000
  31 0.108912 0.043565 -0.000085 0.000000 -0.000000 0.000000
  32 0.108912 -0.043564 -0.000085 0.000000 -0.000000 0.000000
  33 0.000000 -0.130694 -0.000085 0.000000 -0.000000 0.000000
  34 -0.108911 -0.043564 -0.000085 0.000000 -0.000000 0.000000
  35 -0.108911 0.043565 -0.000085 0.000000 -0.000000 0.000000
  36 0.009106 0.558399 17.599907 0.000000 -0.000000 0.000000
  37 0.097106 0.505599 17.599907 0.000000 -0.000000 0.000000
  38 0.097106 0.399999 17.599907 0.000000 -0.000000 0.000000
  39 0.009106 0.347199 17.599907 0.000000 -0.000000 0.000000
  40 -0.078894 0.399999 17.599907 0.000000 -0.000000 0.000000
  41 -0.078894 0.505599 17.599907 0.000000 -0.000000 0.000000
  42 1.820118 0.410681 2.103328 0.000000 -0.000000 0.000000
  43 2.179019 -0.247304 2.103328 0.000000 -0.000000 0.000000
  44 1.461217 -0.247304 2.103328 0.000000 -0.000000 0.000000
  45 1.820118 -0.008037 2.880947 0.000000 -0.000000 0.000000
  46 1.820118 -0.008037 1.325708 0.000000 -0.000000 0.000000
  47 0.137181 1.508129 2.305563 0.000000 -0.000000 0.000000
  48 0.496082 0.850144 2.305563 0.000000 -0.000000 0.000000
  49 -0.221720 0.850144 2.305563 0.000000 -0.000000 0.000000
  50 0.137181 1.089411 3.083182 0.000000 -0.000000 0.000000
  51 0.137181 1.089411 1.527944 0.000000 -0.000000 0.000000
  52 -0.000000 -1.456596 16.065226 0.000000 -0.000000 0.000000
  53 0.651817 -2.651594 16.065226 0.000000 -0.000000 0.000000
  54 -0.651817 -2.651594 16.065226 0.000000 -0.000000 0.000000
  55 -0.000000 -2.217049 17.477497 0.000000 -0.000000 0.000000
  56 -0.000000 -2.217049 14.652955 0.000000 -0.000000 0.000000
  time 8
  0 0.000000 1.782190 -0.000095 0.000000 -0.000000 0.000000
  1 0.014900 1.000144 28.799896 0.000000 -0.000000 0.000000
  2 1.425752 0.712876 -0.000095 0.000000 -0.000000 0.000000
  3 0.230900 0.870544 28.799896 0.000000 -0.000000 0.000000
  4 1.425752 -0.712876 -0.000095 0.000000 -0.000000 0.000000
  5 0.230900 0.611344 28.799896 0.000000 -0.000000 0.000000
  6 0.000000 -1.782190 -0.000095 0.000000 -0.000000 0.000000
  7 0.014900 0.481744 28.799896 0.000000 -0.000000 0.000000
  8 -1.425752 -0.712876 -0.000095 0.000000 -0.000000 0.000000
  9 -0.201100 0.611344 28.799896 0.000000 -0.000000 0.000000
  10 -1.425752 0.712876 -0.000095 0.000000 -0.000000 0.000000
  11 -0.201100 0.870544 28.799896 0.000000 -0.000000 0.000000
  12 0.028220 3.244375 2.879904 0.000000 -0.000000 0.000000
  13 2.990528 1.269504 2.879904 0.000000 -0.000000 0.000000
  14 2.990528 -1.692804 2.879904 0.000000 -0.000000 0.000000
  15 0.028220 -3.667676 2.879904 0.000000 -0.000000 0.000000
  16 -2.934088 -1.692804 2.879904 0.000000 -0.000000 0.000000
  17 -2.934088 1.269504 2.879904 0.000000 -0.000000 0.000000
  18 0.097528 4.712019 8.639903 0.000000 -0.000000 0.000000
  19 4.165465 2.387484 8.639903 0.000000 -0.000000 0.000000
  20 4.165465 -1.836893 8.639903 0.000000 -0.000000 0.000000
  21 0.097528 -4.161429 8.639903 0.000000 -0.000000 0.000000
  22 -3.970408 -1.836893 8.639903 0.000000 -0.000000 0.000000
  23 -3.970408 2.387484 8.639903 0.000000 -0.000000 0.000000
  24 0.016932 3.004429 15.839901 0.000000 -0.000000 0.000000
  25 2.802823 1.332894 15.839901 0.000000 -0.000000 0.000000
  26 2.802823 -2.010175 15.839901 0.000000 -0.000000 0.000000
  27 0.016932 -3.681709 15.839901 0.000000 -0.000000 0.000000
  28 -2.768959 -2.010175 15.839901 0.000000 -0.000000 0.000000
  29 -2.768959 1.332894 15.839901 0.000000 -0.000000 0.000000
  30 0.000000 0.213863 -0.000095 0.000000 -0.000000 0.000000
  31 0.178219 0.071288 -0.000095 0.000000 -0.000000 0.000000
  32 0.178219 -0.071288 -0.000095 0.000000 -0.000000 0.000000
  33 0.000000 -0.213863 -0.000095 0.000000 -0.000000 0.000000
  34 -0.178219 -0.071288 -0.000095 0.000000 -0.000000 0.000000
  35 -0.178219 0.071288 -0.000095 0.000000 -0.000000 0.000000
  36 0.014900 0.913744 28.799896 0.000000 -0.000000 0.000000
  37 0.158900 0.827344 28.799896 0.000000 -0.000000 0.000000
  38 0.158900 0.654544 28.799896 0.000000 -0.000000 0.000000
  39 0.014900 0.568144 28.799896 0.000000 -0.000000 0.000000
  40 -0.129100 0.654544 28.799896 0.000000 -0.000000 0.000000
  41 -0.129100 0.827344 28.799896 0.000000 -0.000000 0.000000
  42 1.820118 0.677624 3.602004 0.000000 -0.000000 0.000000
  43 2.412305 -0.408052 3.602004 0.000000 -0.000000 0.000000
  44 1.227931 -0.408052 3.602004 0.000000 -0.000000 0.000000
  45 1.820118 -0.013260 4.885076 0.000000 -0.000000 0.000000
  46 1.820118 -0.013260 2.318933 0.000000 -0.000000 0.000000
  47 0.137181 1.775072 3.804239 0.000000 -0.000000 0.000000
  48 0.729368 0.689396 3.804239 0.000000 -0.000000 0.000000
  49 -0.455006 0.689396 3.804239 0.000000 -0.000000 0.000000
  50 0.137181 1.084187 5.087311 0.000000 -0.000000 0.000000
  51 0.137181 1.084187 2.521168 0.000000 -0.000000 0.000000
  52 0.000000 -2.817989 25.063000 0.000000 -0.000000 0.000000
  53 1.081048 -4.799910 25.063000 0.000000 -0.000000 0.000000
  54 -1.081048 -4.799910 25.063000 0.000000 -0.000000 0.000000
  55 0.000000 -4.079211 27.405270 0.000000 -0.000000 0.000000
  56 0.000000 -4.079211 22.720730 0.000000 -0.000000 0.000000
  time 9
  0 0.000000 2.475263 -0.000095 0.000000 -0.000000 0.000000
  1 0.020695 1.389089 39.999889 0.000000 -0.000000 0.000000
  2 1.980210 0.990105 -0.000095 0.000000 -0.000000 0.000000
  3 0.320695 1.209089 39.999889 0.000000 -0.000000 0.000000
  4 1.980210 -0.990105 -0.000095 0.000000 -0.000000 0.000000
  5 0.320695 0.849089 39.999889 0.000000 -0.000000 0.000000
  6 0.000000 -2.475263 -0.000095 0.000000 -0.000000 0.000000
  7 0.020695 0.669089 39.999889 0.000000 -0.000000 0.000000
  8 -1.980210 -0.990105 -0.000095 0.000000 -0.000000 0.000000
  9 -0.279305 0.849089 39.999889 0.000000 -0.000000 0.000000
  10 -1.980210 0.990105 -0.000095 0.000000 -0.000000 0.000000
  11 -0.279305 1.209089 39.999889 0.000000 -0.000000 0.000000
  12 0.039194 4.506076 3.999903 0.000000 -0.000000 0.000000
  13 4.153511 1.763200 3.999903 0.000000 -0.000000 0.000000
  14 4.153511 -2.351117 3.999903 0.000000 -0.000000 0.000000
  15 0.039194 -5.093994 3.999903 0.000000 -0.000000 0.000000
  16 -4.075121 -2.351117 3.999903 0.000000 -0.000000 0.000000
  17 -4.075121 1.763200 3.999903 0.000000 -0.000000 0.000000
  18 0.135456 6.544471 11.999901 0.000000 -0.000000 0.000000
  19 5.785367 3.315950 11.999901 0.000000 -0.000000 0.000000
  20 5.785367 -2.551241 11.999901 0.000000 -0.000000 0.000000
  21 0.135456 -5.779762 11.999901 0.000000 -0.000000 0.000000
  22 -5.514455 -2.551241 11.999901 0.000000 -0.000000 0.000000
  23 -5.514455 3.315950 11.999901 0.000000 -0.000000 0.000000
  24 0.023517 4.172817 21.999897 0.000000 -0.000000 0.000000
  25 3.892809 1.851242 21.999897 0.000000 -0.000000 0.000000
  26 3.892809 -2.791909 21.999897 0.000000 -0.000000 0.000000
  27 0.023517 -5.113484 21.999897 0.000000 -0.000000 0.000000
  28 -3.845776 -2.791909 21.999897 0.000000 -0.000000 0.000000
  29 -3.845776 1.851242 21.999897 0.000000 -0.000000 0.000000
  30 0.000000 0.297032 -0.000095 0.000000 -0.000000 0.000000
  31 0.247526 0.099011 -0.000095 0.000000 -0.000000 0.000000
  32 0.247526 -0.099011 -0.000095 0.000000 -0.000000 0.000000
  33 0.000000 -0.297032 -0.000095 0.000000 -0.000000 0.000000
  34 -0.247526 -0.099011 -0.000095 0.000000 -0.000000 0.000000
  35 -0.247526 0.099011 -0.000095 0.000000 -0.000000 0.000000
  36 0.020695 1.269089 39.999889 0.000000 -0.000000 0.000000
  37 0.220695 1.149089 39.999889 0.000000 -0.000000 0.000000
  38 0.220695 0.909089 39.999889 0.000000 -0.000000 0.000000
  39 0.020695 0.789089 39.999889 0.000000 -0.000000 0.000000
  40 -0.179305 0.909089 39.999889 0.000000 -0.000000 0.000000
  41 -0.179305 1.149089 39.999889 0.000000 -0.000000 0.000000
  42 1.820118 0.944567 5.100681 0.000000 -0.000000 0.000000
  43 2.645590 -0.568799 5.100681 0.000000 -0.000000 0.000000
  44 0.994645 -0.568799 5.100681 0.000000 -0.000000 0.000000
  45 1.820118 -0.018484 6.889205 0.000000 -0.000000 0.000000
  46 1.820118 -0.018484 3.312156 0.000000 -0.000000 0.000000
  47 0.137181 2.042015 5.302916 0.000000 -0.000000 0.000000
  48 0.962653 0.528648 5.302916 0.000000 -0.000000 0.000000
  49 -0.688291 0.528648 5.302916 0.000000 -0.000000 0.000000
  50 0.137181 1.078963 7.091440 0.000000 -0.000000 0.000000
  51 0.137181 1.078963 3.514392 0.000000 -0.000000 0.000000
  52 0.000000 -4.179382 34.060772 0.000000 -0.000000 0.000000
  53 1.510279 -6.948225 34.060772 0.000000 -0.000000 0.000000
  54 -1.510279 -6.948225 34.060772 0.000000 -0.000000 0.000000
  55 0.000000 -5.941373 37.333042 0.000000 -0.000000 0.000000
  56 0.000000 -5.941373 30.788502 0.000000 -0.000000 0.000000
  time 10
  0 0.575688 5.996266 3.414730 0.000000 -0.000000 0.000000
  1 -1.035673 0.907874 32.041595 0.000000 -0.000000 0.000000
  2 5.589431 2.235960 3.414730 0.000000 -0.000000 0.000000
  3 -0.835673 0.787874 32.041595 0.000000 -0.000000 0.000000
  4 5.589431 -2.777783 3.414730 0.000000 -0.000000 0.000000
  5 -0.835673 0.547874 32.041595 0.000000 -0.000000 0.000000
  6 0.575688 -6.538090 3.414730 0.000000 -0.000000 0.000000
  7 -1.035673 0.427874 32.041595 0.000000 -0.000000 0.000000
  8 -4.438055 -2.777783 3.414730 0.000000 -0.000000 0.000000
  9 -1.235673 0.547874 32.041595 0.000000 -0.000000 0.000000
  10 -4.438055 2.235960 3.414730 0.000000 -0.000000 0.000000
  11 -1.235673 0.787874 32.041595 0.000000 -0.000000 0.000000
  12 -0.682698 8.124314 10.712523 0.000000 -0.000000 0.000000
  13 6.317298 4.182696 10.712523 0.000000 -0.000000 0.000000
  14 6.317298 -2.817301 10.712523 0.000000 -0.000000 0.000000
  15 -0.682698 -7.517298 10.712523 0.000000 -0.000000 0.000000
  16 -6.334463 -2.817301 10.712523 0.000000 -0.000000 0.000000
  17 -6.418727 4.182696 10.712523 0.000000 -0.000000 0.000000
  18 0.752533 5.392630 19.600698 0.000000 -0.000000 0.000000
  19 5.606680 2.674306 19.600698 0.000000 -0.000000 0.000000
  20 5.606680 -2.956505 19.600698 0.000000 -0.000000 0.000000
  21 0.752533 -5.674828 19.600698 0.000000 -0.000000 0.000000
  22 -4.101614 -2.956505 19.600698 0.000000 -0.000000 0.000000
  23 -4.101614 2.674306 19.600698 0.000000 -0.000000 0.000000
  24 -1.035673 1.027877 32.041576 0.000000 -0.000000 0.000000
  25 -0.735669 0.847875 32.041576 0.000000 -0.000000 0.000000
  26 -0.735669 0.487870 32.041576 0.000000 -0.000000 0.000000
  27 -1.035673 0.307867 32.041576 0.000000 -0.000000 0.000000
  28 -1.335677 0.487870 32.041576 0.000000 -0.000000 0.000000
  29 -1.335677 0.847875 32.041576 0.000000 -0.000000 0.000000
  30 0.000000 3.284698 -0.000095 0.000000 -0.000000 0.000000
  31 2.737248 1.094899 -0.000095 0.000000 -0.000000 0.000000
  32 2.737248 -1.094899 -0.000095 0.000000 -0.000000 0.000000
  33 0.000000 -3.284698 -0.000095 0.000000 -0.000000 0.000000
  34 -2.737248 -1.094899 -0.000095 0.000000 -0.000000 0.000000
  35 -2.737248 1.094899 -0.000095 0.000000 -0.000000 0.000000
  36 0.000000 0.164236 -0.000048 0.000000 -0.000000 0.000000
  37 0.136863 0.082119 -0.000048 0.000000 -0.000000 0.000000
  38 0.136863 -0.082116 -0.000048 0.000000 -0.000000 0.000000
  39 0.000000 -0.164234 -0.000048 0.000000 -0.000000 0.000000
  40 -0.136863 -0.082116 -0.000048 0.000000 -0.000000 0.000000
  41 -0.136863 0.082119 -0.000048 0.000000 -0.000000 0.000000
  42 1.418544 3.372391 32.311951 0.000000 -0.000000 0.000000
  43 3.735529 -0.875415 32.311951 0.000000 -0.000000 0.000000
  44 -0.898442 -0.875415 32.311951 0.000000 -0.000000 0.000000
  45 1.418544 0.669242 37.332088 0.000000 -0.000000 0.000000
  46 1.418544 0.669242 27.291815 0.000000 -0.000000 0.000000
  47 -4.056301 4.469841 12.712006 0.000000 -0.000000 0.000000
  48 -1.739315 0.222035 12.712006 0.000000 -0.000000 0.000000
  49 -6.373287 0.222035 12.712006 0.000000 -0.000000 0.000000
  50 -4.056301 1.766692 17.732147 0.000000 -0.000000 0.000000
  51 -4.056301 1.766692 7.691870 0.000000 -0.000000 0.000000
  52 -4.193482 -4.477874 42.855743 0.000000 -0.000000 0.000000
  53 -3.266066 -6.178137 42.855743 0.000000 -0.000000 0.000000
  54 -5.120897 -6.178137 42.855743 0.000000 -0.000000 0.000000
  55 -4.193482 -5.559860 44.865147 0.000000 -0.000000 0.000000
  56 -4.193482 -5.559860 40.846340 0.000000 -0.000000 0.000000
  time 11
  0 -0.592619 7.808639 9.951801 0.000000 -0.000000 0.000000
  1 -0.000001 0.199299 -0.000057 0.000000 -0.000000 0.000000
  2 5.487752 2.786205 9.951801 0.000000 -0.000000 0.000000
  3 0.166081 0.099650 -0.000057 0.000000 -0.000000 0.000000
  4 5.487752 -3.294166 9.951801 0.000000 -0.000000 0.000000
  5 0.166081 -0.099648 -0.000057 0.000000 -0.000000 0.000000
  6 -0.592619 -7.305426 9.951801 0.000000 -0.000000 0.000000
  7 -0.000001 -0.199297 -0.000057 0.000000 -0.000000 0.000000
  8 -6.672990 -3.294166 9.951801 0.000000 -0.000000 0.000000
  9 -0.166083 -0.099648 -0.000057 0.000000 -0.000000 0.000000
  10 -6.672990 2.786205 9.951801 0.000000 -0.000000 0.000000
  11 -0.166083 0.099650 -0.000057 0.000000 -0.000000 0.000000
  12 0.399782 5.445323 17.962223 0.000000 -0.000000 0.000000
  13 4.655735 2.551277 17.962223 0.000000 -0.000000 0.000000
  14 4.655735 -1.704676 17.962223 0.000000 -0.000000 0.000000
  15 0.399782 -4.598723 17.962223 0.000000 -0.000000 0.000000
  16 -3.856168 -1.704676 17.962223 0.000000 -0.000000 0.000000
  17 -3.856168 2.551277 17.962223 0.000000 -0.000000 0.000000
  18 -1.115629 -0.096463 29.993483 0.000000 -0.000000 0.000000
  19 -0.815623 -0.266466 29.993483 0.000000 -0.000000 0.000000
  20 -0.815623 -0.606472 29.993483 0.000000 -0.000000 0.000000
  21 -1.115629 -0.776475 29.993483 0.000000 -0.000000 0.000000
  22 -1.415634 -0.606472 29.993483 0.000000 -0.000000 0.000000
  23 -1.415634 -0.266466 29.993483 0.000000 -0.000000 0.000000
  24 -1.115631 -0.196468 29.993496 0.000000 -0.000000 0.000000
  25 -0.915631 -0.316468 29.993496 0.000000 -0.000000 0.000000
  26 -0.915631 -0.556468 29.993496 0.000000 -0.000000 0.000000
  27 -1.115631 -0.676468 29.993496 0.000000 -0.000000 0.000000
  28 -1.315631 -0.556468 29.993496 0.000000 -0.000000 0.000000
  29 -1.315631 -0.316468 29.993496 0.000000 -0.000000 0.000000
  30 0.352750 6.960372 2.771044 0.000000 -0.000000 0.000000
  31 5.859101 2.555290 2.771044 0.000000 -0.000000 0.000000
  32 5.859101 -1.849791 2.771044 0.000000 -0.000000 0.000000
  33 0.352750 -6.254872 2.771044 0.000000 -0.000000 0.000000
  34 -5.153602 -1.849791 2.771044 0.000000 -0.000000 0.000000
  35 -5.153602 2.555290 2.771044 0.000000 -0.000000 0.000000
  36 0.000000 3.985956 -0.000095 0.000000 -0.000000 0.000000
  37 3.321630 1.992978 -0.000095 0.000000 -0.000000 0.000000
  38 3.321630 -1.992978 -0.000095 0.000000 -0.000000 0.000000
  39 0.000000 -3.985956 -0.000095 0.000000 -0.000000 0.000000
  40 -3.321630 -1.992978 -0.000095 0.000000 -0.000000 0.000000
  41 -3.321630 1.992978 -0.000095 0.000000 -0.000000 0.000000
  42 1.820117 3.098799 41.783024 0.000000 -0.000000 0.000000
  43 4.440783 -1.705754 41.783024 0.000000 -0.000000 0.000000
  44 -0.800548 -1.705754 41.783024 0.000000 -0.000000 0.000000
  45 1.820117 0.041356 47.461155 0.000000 -0.000000 0.000000
  46 1.820117 0.041356 36.104919 0.000000 -0.000000 0.000000
  47 -5.761347 4.196249 27.407463 0.000000 -0.000000 0.000000
  48 -3.140681 -0.608305 27.407463 0.000000 -0.000000 0.000000
  49 -8.382012 -0.608305 27.407463 0.000000 -0.000000 0.000000
  50 -5.761347 1.138806 33.085590 0.000000 -0.000000 0.000000
  51 -5.761347 1.138806 21.729355 0.000000 -0.000000 0.000000
  52 -5.898528 -4.713658 48.955086 0.000000 -0.000000 0.000000
  53 -5.248248 -5.905838 48.955086 0.000000 -0.000000 0.000000
  54 -6.548808 -5.905838 48.955086 0.000000 -0.000000 0.000000
  55 -5.898528 -5.472319 50.364029 0.000000 -0.000000 0.000000
  56 -5.898528 -5.472319 47.546146 0.000000 -0.000000 0.000000
  time 12
  0 0.352749 6.086230 16.908915 0.000000 -0.000000 0.000000
  1 0.000000 4.718181 -0.000095 0.000000 -0.000000 0.000000
  2 4.786873 2.804978 16.908915 0.000000 -0.000000 0.000000
  3 3.931818 2.359090 -0.000095 0.000000 -0.000000 0.000000
  4 4.786873 -1.629146 16.908915 0.000000 -0.000000 0.000000
  5 3.931818 -2.359090 -0.000095 0.000000 -0.000000 0.000000
  6 0.352749 -4.910398 16.908915 0.000000 -0.000000 0.000000
  7 0.000000 -4.718181 -0.000095 0.000000 -0.000000 0.000000
  8 -4.081375 -1.629146 16.908915 0.000000 -0.000000 0.000000
  9 -3.931818 -2.359090 -0.000095 0.000000 -0.000000 0.000000
  10 -4.081375 2.804978 16.908915 0.000000 -0.000000 0.000000
  11 -3.931818 2.359090 -0.000095 0.000000 -0.000000 0.000000
  12 -0.347105 -0.426390 26.990395 0.000000 -0.000000 0.000000
  13 -0.047100 -0.636394 26.990395 0.000000 -0.000000 0.000000
  14 -0.047100 -0.936398 26.990395 0.000000 -0.000000 0.000000
  15 -0.347105 -1.146402 26.990395 0.000000 -0.000000 0.000000
  16 -0.647110 -0.936398 26.990395 0.000000 -0.000000 0.000000
  17 -0.647110 -0.636394 26.990395 0.000000 -0.000000 0.000000
  18 -0.347107 -0.556397 26.990410 0.000000 -0.000000 0.000000
  19 -0.147107 -0.676397 26.990410 0.000000 -0.000000 0.000000
  20 -0.147107 -0.896397 26.990410 0.000000 -0.000000 0.000000
  21 -0.347107 -1.016397 26.990410 0.000000 -0.000000 0.000000
  22 -0.547107 -0.896397 26.990410 0.000000 -0.000000 0.000000
  23 -0.547107 -0.676397 26.990410 0.000000 -0.000000 0.000000
  24 -0.000001 0.235909 -0.000059 0.000000 -0.000000 0.000000
  25 0.196590 0.117954 -0.000059 0.000000 -0.000000 0.000000
  26 0.196590 -0.117955 -0.000059 0.000000 -0.000000 0.000000
  27 -0.000001 -0.235910 -0.000059 0.000000 -0.000000 0.000000
  28 -0.196592 -0.117955 -0.000059 0.000000 -0.000000 0.000000
  29 -0.196592 0.117954 -0.000059 0.000000 -0.000000 0.000000
  30 -0.235166 8.066847 9.074046 0.000000 -0.000000 0.000000
  31 6.764832 3.437574 8.952705 0.000000 -0.000000 0.000000
  32 6.764832 -3.133151 9.074046 0.000000 -0.000000 0.000000
  33 -0.235166 -7.132126 9.242575 0.000000 -0.000000 0.000000
  34 -6.898107 -3.133151 9.158311 0.000000 -0.000000 0.000000
  35 -6.898107 2.466847 9.158311 0.000000 -0.000000 0.000000
  36 0.211650 7.058812 2.888079 0.000000 -0.000000 0.000000
  37 5.682452 2.441582 2.888079 0.000000 -0.000000 0.000000
  38 5.682452 -2.788632 2.888079 0.000000 -0.000000 0.000000
  39 0.211650 -6.071113 2.888079 0.000000 -0.000000 0.000000
  40 -5.259151 -2.788632 2.888079 0.000000 -0.000000 0.000000
  41 -5.259151 3.776331 2.888079 0.000000 -0.000000 0.000000
  42 1.820118 1.969799 50.730183 0.000000 -0.000000 0.000000
  43 3.499950 -1.109894 50.730183 0.000000 -0.000000 0.000000
  44 0.140286 -1.109894 50.730183 0.000000 -0.000000 0.000000
  45 1.820118 0.009994 54.369812 0.000000 -0.000000 0.000000
  46 1.820118 0.009994 47.090546 0.000000 -0.000000 0.000000
  47 -4.328850 3.067248 36.101830 0.000000 -0.000000 0.000000
  48 -2.649018 -0.012444 36.101830 0.000000 -0.000000 0.000000
  49 -6.008683 -0.012444 36.101830 0.000000 -0.000000 0.000000
  50 -4.328850 1.107444 39.741463 0.000000 -0.000000 0.000000
  51 -4.328850 1.107444 32.462200 0.000000 -0.000000 0.000000
  52 -4.466032 -4.835935 53.165436 0.000000 -0.000000 0.000000
  53 -4.265006 -5.204481 53.165436 0.000000 -0.000000 0.000000
  54 -4.667056 -5.204481 53.165436 0.000000 -0.000000 0.000000
  55 -4.466032 -5.070464 53.600998 0.000000 -0.000000 0.000000
  56 -4.466032 -5.070464 52.729893 0.000000 -0.000000 0.000000
  time 13
  0 0.652822 -0.355239 30.929733 0.000000 -0.000000 0.000000
  1 -0.451519 7.679734 3.005108 0.000000 -0.000000 0.000000
  2 0.952832 -0.575246 30.929733 0.000000 -0.000000 0.000000
  3 5.548476 2.987670 3.126449 0.000000 -0.000000 0.000000
  4 0.952832 -0.875256 30.929733 0.000000 -0.000000 0.000000
  5 5.548476 -3.120258 3.005108 0.000000 -0.000000 0.000000
  6 0.652822 -1.095263 30.929733 0.000000 -0.000000 0.000000
  7 -0.451519 -6.720255 3.005108 0.000000 -0.000000 0.000000
  8 0.352812 -0.875256 30.929733 0.000000 -0.000000 0.000000
  9 -6.451515 -3.120258 3.005108 0.000000 -0.000000 0.000000
  10 0.352812 -0.575246 30.929733 0.000000 -0.000000 0.000000
  11 -6.451515 4.079737 3.005108 0.000000 -0.000000 0.000000
  12 0.652820 -0.485254 30.929758 0.000000 -0.000000 0.000000
  13 0.852821 -0.625254 30.929758 0.000000 -0.000000 0.000000
  14 0.852821 -0.825254 30.929758 0.000000 -0.000000 0.000000
  15 0.652820 -0.965255 30.929758 0.000000 -0.000000 0.000000
  16 0.452820 -0.825254 30.929758 0.000000 -0.000000 0.000000
  17 0.452820 -0.625254 30.929758 0.000000 -0.000000 0.000000
  18 -0.000001 0.174334 -0.000031 0.000000 -0.000000 0.000000
  19 0.151595 0.083376 -0.000031 0.000000 -0.000000 0.000000
  20 0.151595 -0.083380 -0.000031 0.000000 -0.000000 0.000000
  21 -0.000001 -0.174338 -0.000031 0.000000 -0.000000 0.000000
  22 -0.151597 -0.083380 -0.000031 0.000000 -0.000000 0.000000
  23 -0.151597 0.083376 -0.000031 0.000000 -0.000000 0.000000
  24 0.000000 3.638299 -0.000095 0.000000 -0.000000 0.000000
  25 3.031916 1.819149 -0.000095 0.000000 -0.000000 0.000000
  26 3.031916 -1.819149 -0.000095 0.000000 -0.000000 0.000000
  27 0.000000 -3.638299 -0.000095 0.000000 -0.000000 0.000000
  28 -3.031916 -1.819149 -0.000095 0.000000 -0.000000 0.000000
  29 -3.031916 1.819149 -0.000095 0.000000 -0.000000 0.000000
  30 -0.540883 5.758092 19.015512 0.000000 -0.000000 0.000000
  31 3.983168 2.138855 19.015512 0.000000 -0.000000 0.000000
  32 3.983168 -1.480388 19.015512 0.000000 -0.000000 0.000000
  33 -0.540883 -5.099625 19.015514 0.000000 -0.000000 0.000000
  34 -5.064932 -1.480388 19.015512 0.000000 -0.000000 0.000000
  35 -5.064932 2.138852 19.015512 0.000000 -0.000000 0.000000
  36 0.399783 8.000216 9.249590 0.000000 -0.000000 0.000000
  37 7.315515 3.800213 9.333854 0.000000 -0.000000 0.000000
  38 7.315515 -3.672872 9.586647 0.000000 -0.000000 0.000000
  39 0.399783 -8.041398 9.333854 0.000000 -0.000000 0.000000
  40 -6.600213 -3.672872 9.502382 0.000000 -0.000000 0.000000
  41 -6.600213 3.800217 9.249590 0.000000 -0.000000 0.000000
  42 1.820118 0.919213 54.543549 0.000000 -0.000000 0.000000
  43 2.624462 -0.555418 54.543549 0.000000 -0.000000 0.000000
  44 1.015774 -0.555418 54.543549 0.000000 -0.000000 0.000000
  45 1.820118 -0.019189 56.286289 0.000000 -0.000000 0.000000
  46 1.820118 -0.019189 52.800812 0.000000 -0.000000 0.000000
  47 -4.413114 2.016662 39.493874 0.000000 -0.000000 0.000000
  48 -3.608769 0.542032 39.493874 0.000000 -0.000000 0.000000
  49 -5.217457 0.542032 39.493874 0.000000 -0.000000 0.000000
  50 -4.413114 1.078261 41.236610 0.000000 -0.000000 0.000000
  51 -4.413114 1.078261 37.751133 0.000000 -0.000000 0.000000
  52 -4.550294 0.555176 4.547728 0.000000 -0.000000 0.000000
  53 -3.745954 -0.919448 4.547728 0.000000 -0.000000 0.000000
  54 -5.354634 -0.919448 4.547728 0.000000 -0.000000 0.000000
  55 -4.550294 -0.383221 6.290462 0.000000 -0.000000 0.000000
  56 -4.550294 -0.383221 2.805002 0.000000 -0.000000 0.000000
end
