version 1
nodes
0 "Base" -1
1 "R.hip" 0
2 "R.thigh" 1
3 "R.calve" 2
4 "R.heel" 3
5 "R.foot" 4
6 "R.thigh.001" 2
7 "Torso_bot" 0
8 "Torso_top" 7
9 "R.shoulder" 8
10 "R.bicep" 9
11 "R.forearm" 10
12 "R.hand" 11
13 "Neck" 8
14 "Head" 13
15 "L.shoulder" 8
16 "L.bicep" 15
17 "L.forearm" 16
18 "L.hand" 17
19 "Torso_bot.001" 7
20 "Torso_bot.002" 19
21 "Torso_bot.003" 19
22 "L.hip" 0
23 "L.thigh" 22
24 "L.calve" 23
25 "L.heel" 24
26 "L.foot" 25
27 "L.thigh.001" 23
28 "Base.001" 0
29 "R.armIK.000" -1
30 "L.armIK.000" -1
31 "L.LegIK.000" -1
32 "R.LegIK.000" -1
33 "UpperarmIK.L" -1
34 "UpperarmIK.R" -1
35 "KneeIK.L" -1
36 "KneeIK.R" -1
end
skeleton
  time 0
  0 -0.192479 0.552432 -26.802284 1.692985 -0.000000 1.756718
  1 0.000004 28.528528 -2.793937 -0.031887 -0.205759 -1.763296
  2 0.000001 3.833358 0.000001 -0.790406 0.351616 -1.519487
  3 0.000001 13.500029 -0.000003 0.784946 -0.055744 0.141407
  4 0.000003 11.928192 -0.000001 0.699411 -0.008281 -0.045790
  5 0.000000 3.538864 0.000001 -2.328044 0.043700 -0.041268
  6 0.000001 13.500030 -0.000001 1.635290 0.000001 0.000000
  7 0.000005 28.528528 -2.793937 -0.249407 -0.025383 -0.103100
  8 -0.000001 4.967567 0.000000 0.133937 -0.087048 0.129384
  9 0.000001 10.424905 0.000001 0.142313 0.009263 -1.681140
  10 0.000001 5.721372 -0.000000 -0.336787 -1.023682 -0.993451
  11 -0.000004 8.563437 -0.000000 -0.671330 0.031526 0.095212
  12 0.000001 7.483446 -0.000001 0.033562 -0.008824 -0.015087
  13 0.000001 10.424905 0.000001 -0.605840 -0.022267 -0.405166
  14 -0.000000 3.096222 0.000000 0.254531 -0.221849 0.208203
  15 0.000001 10.424905 0.000001 -0.140355 0.054435 1.893206
  16 0.000002 5.721373 0.000000 -0.118483 0.904483 0.734972
  17 0.000003 8.563448 -0.000001 -0.553470 -0.021140 -0.080423
  18 -0.000000 7.483447 0.000001 0.006607 -0.118649 0.012587
  19 0.119122 7.401339 -0.700706 -1.570796 0.000000 0.000000
  20 -0.182472 0.858614 -0.214676 0.000000 0.000000 0.000000
  21 0.644811 -0.364824 -0.425440 -3.141593 -1.570796 0.000000
  22 0.000004 28.528528 -2.793937 -0.054701 0.209358 1.697962
  23 0.000002 3.833357 -0.000000 -0.418616 -0.210338 1.434623
  24 -0.000001 13.500027 -0.000004 0.923701 0.076786 -0.159771
  25 -0.000000 11.928187 -0.000001 0.227951 0.139562 0.145362
  26 -0.000001 3.538862 0.000001 -2.328044 -0.043700 0.041269
  27 -0.000002 13.500026 -0.000004 1.635290 -0.000002 -0.000000
  28 0.000004 28.528528 -2.793937 -2.591697 0.188375 -0.036766
  29 -5.352585 5.879992 2.626987 0.000000 -0.000000 -1.570796
  30 -4.556690 -7.362524 0.574455 0.000000 -0.000000 -1.570796
  31 3.609758 -4.687068 -21.081402 -0.420710 0.164561 -1.570248
  32 -7.407562 4.321485 -21.226130 0.058080 0.000000 -1.570796
  33 9.525341 1.590997 11.180841 0.000000 -0.000000 -1.570796
  34 9.525342 0.216376 10.565630 0.000000 -0.000000 -1.570796
  35 -19.478918 -11.161369 -9.069633 0.000000 -0.000000 1.570796
  36 -19.479588 6.593526 -9.069633 0.000000 -0.000000 1.570796
  time 1
  0 -0.154336 0.530878 -26.512596 1.692985 -0.000000 1.756718
  1 0.000004 28.528530 -2.793938 -0.031887 -0.205759 -1.763296
  2 0.000001 3.833358 0.000000 -0.756136 0.342955 -1.508132
  3 0.000002 13.500026 -0.000003 0.726263 -0.047656 0.132810
  4 0.000005 11.928191 -0.000001 0.699411 -0.008281 -0.045790
  5 0.000000 3.538864 0.000001 -2.328044 0.043700 -0.041268
  6 0.000003 13.500030 -0.000003 1.635290 0.000001 0.000000
  7 0.000005 28.528530 -2.793938 -0.254715 -0.024022 -0.102581
  8 0.000000 4.967565 -0.000000 0.132587 -0.086343 0.129303
  9 0.000002 10.424910 0.000002 0.142313 0.009263 -1.681140
  10 -0.000001 5.721373 0.000000 -0.884778 -0.796875 -0.938933
  11 0.000000 8.563447 -0.000001 -0.005208 -0.001712 0.000796
  12 0.000000 7.483444 -0.000001 0.033562 -0.008824 -0.015087
  13 0.000002 10.424910 0.000002 -0.592973 -0.010497 -0.363404
  14 0.000000 3.096221 -0.000000 0.550953 -0.259032 0.133480
  15 0.000002 10.424910 0.000002 -0.145329 0.056246 1.892503
  16 0.000004 5.721374 -0.000000 -0.833123 0.887898 0.000461
  17 0.000001 8.563440 -0.000001 -0.005261 0.001711 -0.000804
  18 0.000001 7.483445 0.000000 -0.076388 -0.443705 0.025458
  19 0.119127 7.401339 -0.700705 -1.570796 -0.000000 0.000000
  20 -0.182471 0.858615 -0.214678 0.000000 -0.000000 -0.000000
  21 0.644811 -0.364824 -0.425435 -3.141593 -1.570796 0.000000
  22 0.000004 28.528530 -2.793938 -0.054701 0.209358 1.697962
  23 0.000002 3.833357 0.000000 -0.408649 -0.424635 1.431410
  24 -0.000003 13.500030 0.000001 0.862816 0.067237 -0.152068
  25 0.000002 11.928188 -0.000002 0.253530 0.110725 0.199430
  26 0.000000 3.538862 0.000000 -2.328044 -0.043700 0.041268
  27 -0.000003 13.500029 0.000000 1.635290 -0.000002 0.000000
  28 0.000004 28.528530 -2.793937 -2.593773 0.187812 -0.036179
  29 -8.858389 4.471485 3.508188 0.000000 -0.000000 -1.570796
  30 -9.017480 -11.703719 1.801445 0.000000 -0.000000 -1.570796
  31 3.609758 -4.687068 -21.151251 -0.391596 0.173893 -1.509191
  32 -7.407562 4.321485 -21.226130 0.058080 0.000000 -1.570796
  33 9.525342 -1.502707 11.180841 0.000000 -0.000000 -1.570796
  34 9.525342 -3.701787 9.027597 0.000000 -0.000000 -1.570796
  35 -19.474718 -16.858004 -9.069633 0.000000 -0.000000 1.570796
  36 -19.471741 6.361850 -9.069633 0.000000 -0.000000 1.570796
  time 2
  0 -0.138482 0.379998 -26.529909 1.692985 -0.000000 1.756718
  1 0.000001 28.528526 -2.793940 -0.031887 -0.205759 -1.763296
  2 -0.000001 3.833357 0.000000 -0.754438 0.334487 -1.497220
  3 0.000003 13.500028 -0.000003 0.728648 -0.047974 0.133168
  4 0.000005 11.928191 -0.000003 0.699411 -0.008280 -0.045790
  5 0.000001 3.538863 -0.000001 -2.328044 0.043700 -0.041268
  6 0.000002 13.500030 -0.000002 1.635290 0.000001 -0.000000
  7 0.000001 28.528526 -2.793940 -0.291915 -0.014406 -0.099144
  8 -0.000000 4.967567 -0.000000 0.112330 -0.075776 0.127963
  9 0.000001 10.424907 -0.000000 0.142313 0.009263 -1.681140
  10 -0.000000 5.721372 0.000001 -0.922092 -0.735694 -0.936924
  11 0.000001 8.563448 0.000000 -0.005200 -0.001711 0.000795
  12 0.000003 7.483445 -0.000002 0.033562 -0.008824 -0.015087
  13 0.000001 10.424907 -0.000000 -0.563637 0.021280 -0.250479
  14 -0.000001 3.096225 0.000001 0.970432 -0.284096 -0.020203
  15 0.000001 10.424907 -0.000000 -0.148389 0.057280 1.891141
  16 0.000001 5.721372 -0.000000 -1.279742 1.013148 -0.515207
  17 0.000003 8.563444 0.000002 -0.005232 0.001711 -0.000800
  18 -0.000001 7.483444 0.000000 -0.255485 -0.845724 0.118002
  19 0.119125 7.401338 -0.700706 -1.570796 -0.000000 0.000000
  20 -0.182472 0.858614 -0.214670 0.000000 0.000000 -0.000000
  21 0.644811 -0.364824 -0.425435 -3.141593 -1.570796 0.000000
  22 0.000001 28.528526 -2.793940 -0.054701 0.209358 1.697962
  23 -0.000000 3.833357 0.000000 -0.586276 -0.354510 1.260073
  24 -0.000002 13.500028 -0.000003 1.388864 0.161716 -0.197392
  25 -0.000001 11.928187 -0.000002 0.279885 0.229221 0.030327
  26 0.000000 3.538861 -0.000000 -2.328044 -0.043700 0.041268
  27 -0.000002 13.500028 -0.000003 1.635290 -0.000002 -0.000000
  28 0.000001 28.528526 -2.793939 -2.597204 0.186886 -0.035205
  29 -9.621148 4.165037 3.699911 0.000000 -0.000000 -1.570796
  30 -8.970543 -11.431731 1.972260 0.000000 -0.000000 -1.570796
  31 4.874438 -7.982858 -16.656237 -0.371848 0.167375 -1.716515
  32 -7.407562 4.321485 -21.226130 0.058080 0.000000 -1.570796
  33 9.525341 -5.524524 11.180841 0.000000 -0.000000 -1.570796
  34 9.525342 -6.078382 7.028151 0.000000 -0.000000 -1.570796
  35 -19.467457 -18.006117 -9.069633 0.000000 -0.000000 1.570796
  36 -19.463892 6.130174 -9.069633 0.000000 -0.000000 1.570796
  time 3
  0 -0.264377 -0.029533 -27.952524 1.692985 -0.000000 1.756718
  1 0.000001 28.528526 -2.793940 -0.031887 -0.205759 -1.763296
  2 -0.000003 3.833359 0.000000 -0.885777 0.317926 -1.493987
  3 -0.000001 13.500026 -0.000003 0.980341 -0.086078 0.166409
  4 0.000003 11.928191 -0.000002 0.670091 -0.037045 -0.067958
  5 -0.000000 3.538863 0.000000 -2.328044 0.043700 -0.041268
  6 -0.000001 13.500028 -0.000003 1.635290 0.000001 0.000000
  7 0.000001 28.528526 -2.793940 -0.393107 0.012371 -0.091619
  8 -0.000000 4.967566 0.000001 0.024214 -0.030232 0.119670
  9 0.000001 10.424909 0.000001 0.142314 0.009263 -1.681140
  10 0.000001 5.721373 0.000001 -0.283844 -0.706542 -0.989318
  11 -0.000000 8.563451 0.000000 -1.234268 0.101110 0.144767
  12 -0.000000 7.483442 0.000001 0.033562 -0.008824 -0.015087
  13 0.000001 10.424909 0.000001 -0.530192 0.068313 -0.085179
  14 0.000000 3.096219 -0.000003 1.361971 -0.296640 -0.207891
  15 0.000001 10.424909 0.000001 -0.150029 0.057687 1.888714
  16 -0.000002 5.721374 -0.000000 -1.100519 0.903698 -0.988266
  17 0.000000 8.563447 -0.000001 -1.346940 -0.117731 -0.149579
  18 -0.000001 7.483447 0.000001 -0.656019 -1.137679 0.427294
  19 0.119126 7.401334 -0.700705 -1.570796 0.000000 0.000000
  20 -0.182472 0.858613 -0.214669 0.000000 0.000000 -0.000000
  21 0.644811 -0.364824 -0.425436 -3.141593 -1.570796 0.000000
  22 0.000001 28.528526 -2.793940 -0.054701 0.209358 1.697962
  23 0.000002 3.833357 -0.000000 -0.361627 -0.336058 1.218138
  24 -0.000002 13.500025 -0.000002 0.949133 0.080911 -0.162816
  25 -0.000003 11.928189 0.000000 0.144680 0.275170 0.252523
  26 -0.000001 3.538862 -0.000000 -2.328044 -0.043700 0.041269
  27 -0.000003 13.500027 -0.000001 1.635290 -0.000002 0.000000
  28 0.000001 28.528526 -2.793939 -2.601948 0.185609 -0.033855
  29 -9.047365 4.395560 3.555691 0.000000 -0.000000 -1.570796
  30 -8.641985 -9.527813 3.167948 0.000000 -0.000000 -1.570796
  31 5.561424 -9.264555 -21.075403 -0.526145 0.335929 -1.570365
  32 -7.407562 4.321485 -21.226130 0.028267 -0.036308 -1.571339
  33 9.525341 -9.546341 11.180841 0.000000 -0.000000 -1.570796
  34 9.525342 -7.298796 5.028704 0.000000 -0.000000 -1.570796
  35 -19.454563 -16.802040 -9.069633 0.000000 -0.000000 1.570796
  36 -19.456045 5.898497 -9.069633 0.000000 -0.000000 1.570796
  time 4
  0 -0.192480 -0.827042 -28.140976 1.692985 -0.000000 1.756718
  1 0.000005 28.528526 -2.793938 -0.031887 -0.205759 -1.763296
  2 0.000001 3.833358 0.000000 -0.890212 0.318606 -1.455137
  3 0.000002 13.500033 -0.000001 0.999532 -0.089310 0.168538
  4 0.000002 11.928194 -0.000002 0.641372 -0.066441 -0.089305
  5 -0.000000 3.538863 -0.000001 -2.328044 0.043700 -0.041268
  6 0.000002 13.500033 -0.000002 1.635290 0.000001 -0.000000
  7 0.000005 28.528526 -2.793939 -0.589785 0.066012 -0.084872
  8 0.000000 4.967564 -0.000001 -0.215081 0.086612 0.077880
  9 -0.000001 10.424907 -0.000001 0.142313 0.009263 -1.681140
  10 0.000002 5.721374 -0.000002 0.230331 -0.537449 -1.059199
  11 -0.000005 8.563448 0.000004 -1.833948 0.191368 0.148115
  12 0.000002 7.483445 -0.000000 0.033562 -0.008824 -0.015087
  13 -0.000001 10.424907 -0.000001 -0.504813 0.129991 0.111282
  14 0.000001 3.096222 0.000000 1.563209 -0.376507 -0.394167
  15 -0.000001 10.424907 -0.000001 -0.150740 0.057617 1.884811
  16 0.000006 5.721371 0.000004 -1.362578 0.551799 -0.685883
  17 0.000000 8.563452 -0.000000 -2.294259 -0.251824 -0.114805
  18 -0.000001 7.483448 -0.000001 -1.103016 -1.173946 0.778128
  19 0.119127 7.401335 -0.700706 -1.570796 0.000000 0.000000
  20 -0.182472 0.858615 -0.214674 0.000000 0.000000 -0.000000
  21 0.644811 -0.364825 -0.425435 3.141593 -1.570796 0.000000
  22 0.000005 28.528526 -2.793938 -0.054701 0.209358 1.697962
  23 -0.000000 3.833357 0.000000 -0.382591 -0.238063 1.264221
  24 -0.000001 13.500025 -0.000001 1.010656 0.091202 -0.169745
  25 -0.000000 11.928183 -0.000004 0.141151 0.264668 0.244639
  26 0.000000 3.538861 0.000000 -2.328044 -0.043699 0.041268
  27 -0.000002 13.500029 -0.000001 1.635290 -0.000002 -0.000000
  28 0.000005 28.528526 -2.793938 -2.607947 0.184005 -0.032139
  29 -8.543549 4.597977 3.429052 0.000000 -0.000000 -1.570796
  30 -7.750188 -4.360034 6.413393 0.000000 -0.000000 -1.570796
  31 5.561424 -9.264555 -21.069946 -0.527379 0.322979 -1.569772
  32 -7.407562 4.321485 -21.226130 -0.001585 -0.072616 -1.570796
  33 9.525340 -12.640045 11.180841 0.000000 -0.000000 -1.570796
  34 9.525342 -7.748420 3.490671 0.000000 -0.000000 -1.570796
  35 -19.433474 -14.562704 -9.069633 0.000000 -0.000000 1.570796
  36 -19.378773 5.414618 -9.069633 0.000000 -0.000000 1.570796
  time 5
  0 -0.170182 -0.879093 -28.139534 1.692985 -0.000000 1.756718
  1 0.000005 28.528524 -2.793938 -0.031887 -0.205759 -1.763296
  2 0.000001 3.833358 0.000000 -0.890239 0.321539 -1.453771
  3 0.000000 13.500031 -0.000004 0.997701 -0.089000 0.168338
  4 0.000004 11.928191 0.000001 0.643817 -0.063893 -0.087503
  5 0.000001 3.538864 -0.000000 -2.328044 0.043700 -0.041269
  6 0.000000 13.500031 -0.000004 1.635290 0.000001 -0.000000
  7 0.000005 28.528524 -2.793938 -0.564443 -0.007796 -0.036935
  8 -0.000000 4.967567 0.000001 -0.170517 -0.016571 0.135488
  9 -0.000002 10.424910 0.000000 0.142313 0.009263 -1.681140
  10 0.000001 5.721372 -0.000001 0.127776 -0.644510 -0.970046
  11 -0.000002 8.563453 0.000003 -1.915221 0.203113 0.144360
  12 -0.000000 7.483447 -0.000001 0.033562 -0.008824 -0.015087
  13 -0.000002 10.424910 0.000000 -0.501693 0.216064 0.301920
  14 -0.000000 3.096221 -0.000003 0.961581 -0.746234 -0.483840
  15 -0.000002 10.424910 0.000000 -0.151013 0.057219 1.879018
  16 0.000001 5.721371 0.000000 -1.389709 0.656807 -0.377402
  17 -0.000002 8.563451 0.000004 -2.153691 -0.235156 -0.127947
  18 0.000000 7.483441 0.000001 -0.812649 -0.734801 0.523235
  19 0.119125 7.401337 -0.700705 -1.570796 0.000000 0.000000
  20 -0.182472 0.858615 -0.214673 0.000000 -0.000000 -0.000000
  21 0.644811 -0.364825 -0.425435 -3.141593 -1.570796 0.000000
  22 0.000005 28.528524 -2.793938 -0.054701 0.209358 1.697962
  23 0.000004 3.833357 0.000000 -0.381757 -0.189718 1.271572
  24 -0.000003 13.500026 -0.000003 1.014671 0.091888 -0.170175
  25 0.000000 11.928182 0.000000 0.136782 0.241466 0.227538
  26 0.000000 3.538860 0.000000 -2.328044 -0.043699 0.041268
  27 -0.000003 13.500025 -0.000003 1.635290 -0.000001 -0.000000
  28 0.000005 28.528524 -2.793938 -2.615125 0.182099 -0.030074
  29 -8.179208 4.771272 5.131998 0.000000 -0.000000 -1.570796
  30 -8.652981 -2.416822 7.025095 0.000000 -0.000000 -1.570796
  31 5.561424 -9.264555 -21.057941 -0.527045 0.294506 -1.568385
  32 -7.407562 4.321485 -21.226130 0.000983 -0.069498 -1.570886
  33 9.525340 -13.877526 11.180841 0.000000 -0.000000 -1.570796
  34 9.525342 -7.812651 2.875456 0.000000 -0.000000 -1.570796
  35 -19.401615 -13.347438 -9.069633 0.000000 -0.000000 1.570796
  36 -19.301500 5.421841 -9.069633 0.000000 -0.000000 1.570796
  time 6
  0 0.164292 -1.659862 -28.117914 1.692985 0.000000 1.756717
  1 -0.000001 28.528532 -2.793941 -0.031887 -0.205759 -1.763296
  2 0.000003 3.833359 0.000000 -0.885636 0.351711 -1.426958
  3 0.000000 13.500028 -0.000006 0.967220 -0.083892 0.164918
  4 0.000004 11.928192 -0.000003 0.650283 -0.057193 -0.082724
  5 0.000001 3.538862 0.000001 -2.328044 0.043700 -0.041269
  6 0.000000 13.500028 -0.000006 1.635290 0.000001 -0.000000
  7 -0.000002 28.528532 -2.793941 -0.479578 -0.084148 -0.058746
  8 0.000000 4.967565 -0.000000 -0.215081 0.086612 0.077880
  9 -0.000000 10.424909 -0.000000 0.142313 0.009263 -1.681140
  10 0.000009 5.721371 -0.000003 0.060215 -0.550227 -0.877735
  11 -0.000000 8.563448 0.000003 -1.668691 0.166667 0.152697
  12 -0.000000 7.483444 0.000003 0.033562 -0.008824 -0.015087
  13 -0.000000 10.424909 -0.000000 -0.566861 0.056840 0.478019
  14 -0.000000 3.096222 -0.000001 0.667518 -0.261955 -0.666426
  15 -0.000000 10.424909 -0.000000 -0.149828 0.045286 1.849328
  16 -0.000001 5.721372 -0.000001 -1.136331 0.737388 -0.009296
  17 0.000003 8.563443 -0.000000 -2.212605 -0.242371 -0.122731
  18 -0.000001 7.483442 -0.000002 -0.589900 -0.691138 0.909270
  19 -1.056899 10.452533 -3.727453 -1.570796 0.000000 -0.000000
  20 -0.441220 2.076141 -0.519082 0.000000 -0.000000 -0.000000
  21 1.559163 -0.882150 -1.028712 3.141593 -1.570796 0.000000
  22 -0.000001 28.528532 -2.793941 -0.054701 0.209358 1.697962
  23 -0.000002 3.833358 -0.000000 -0.406222 -0.166283 1.314311
  24 -0.000002 13.500026 -0.000000 1.047055 0.097484 -0.173544
  25 0.000001 11.928185 -0.000001 0.133354 0.218579 0.209692
  26 -0.000002 3.538860 -0.000001 -2.328044 -0.043699 0.041269
  27 -0.000002 13.500027 -0.000000 1.635290 -0.000002 -0.000000
  28 -0.000002 28.528532 -2.793941 -2.623394 0.179922 -0.027679
  29 -7.884767 5.968127 3.417269 0.000000 -0.000000 -1.570796
  30 -8.567301 -3.329047 7.845833 0.000000 -0.000000 -1.570796
  31 5.561424 -9.264555 -21.045937 -0.526301 0.265773 -1.568015
  32 -7.407562 4.321485 -21.226130 0.007751 -0.061276 -1.571083
  33 9.525341 -7.207218 11.533739 0.000000 -0.000000 -1.570796
  34 9.525342 -7.812651 2.875456 0.000000 -0.000000 -1.570796
  35 -19.358759 -13.334498 -9.069633 0.000000 -0.000000 1.570796
  36 -19.224228 5.429063 -9.069633 0.000000 -0.000000 1.570796
  time 7
  0 -0.405629 -1.617440 -28.108040 1.692985 0.000000 1.756717
  1 -0.000001 28.528532 -2.793941 -0.031887 -0.205759 -1.763296
  2 0.000001 3.833359 0.000000 -0.875344 0.354192 -1.429242
  3 0.000001 13.500031 -0.000003 0.995192 -0.088575 0.168062
  4 0.000004 11.928190 -0.000004 0.659477 -0.047772 -0.075894
  5 0.000000 3.538862 0.000001 -2.328044 0.043700 -0.041269
  6 0.000001 13.500031 -0.000004 1.635290 0.000001 -0.000000
  7 -0.000001 28.528532 -2.793941 -0.479717 -0.064823 -0.064812
  8 -0.000000 4.967566 -0.000000 -0.147642 0.086433 0.061074
  9 0.000000 10.424909 -0.000001 0.142313 0.009263 -1.681140
  10 -0.000004 5.721374 0.000001 0.279844 -0.520187 -0.942019
  11 0.000000 8.563448 0.000002 -1.634232 0.161427 0.153126
  12 0.000001 7.483447 -0.000000 0.033562 -0.008824 -0.015087
  13 0.000000 10.424909 -0.000001 -0.444670 0.008543 0.278021
  14 -0.000000 3.096222 0.000000 0.569164 -0.166913 -0.618293
  15 0.000000 10.424909 -0.000001 -0.134996 0.019791 1.801788
  16 0.000000 5.721373 0.000002 -0.290353 0.528486 0.622144
  17 -0.000003 8.563452 -0.000001 -2.032452 -0.219380 -0.137267
  18 -0.000001 7.483446 0.000001 -0.413610 -0.682834 0.786536
  19 -2.437914 9.236540 -6.723364 -1.570796 -0.000000 0.000000
  20 -0.441220 2.076142 -0.519082 0.000000 -0.000000 0.000000
  21 2.706801 -8.111655 3.036634 -3.141593 -1.570796 0.000000
  22 -0.000001 28.528532 -2.793941 -0.054701 0.209358 1.697962
  23 -0.000000 3.833358 0.000000 -0.371906 -0.174516 1.303637
  24 -0.000003 13.500023 -0.000003 1.027347 0.094065 -0.171515
  25 -0.000002 11.928185 -0.000003 0.131862 0.209131 0.199253
  26 -0.000001 3.538861 -0.000000 -2.328044 -0.043700 0.041269
  27 -0.000003 13.500027 -0.000004 1.635290 -0.000002 -0.000000
  28 -0.000001 28.528532 -2.793941 -2.632651 0.177508 -0.024979
  29 -6.927830 7.310777 3.676605 0.000000 -0.000000 -1.570796
  30 -9.574046 -7.585595 5.895990 0.000000 -0.000000 -1.570796
  31 5.561424 -9.264555 -21.040480 -0.526182 0.252057 -1.570376
  32 -7.407562 4.321485 -21.226130 0.017314 -0.049647 -1.571266
  33 9.525343 5.180500 12.189116 0.000000 -0.000000 -1.570796
  34 9.525342 -7.812651 2.875456 0.000000 -0.000000 -1.570796
  35 -19.313997 -13.327853 -9.069633 0.000000 -0.000000 1.570796
  36 -19.146954 5.436286 -9.069633 0.000000 -0.000000 1.570796
  time 8
  0 -0.261890 -0.981094 -28.058666 1.692985 -0.000000 1.756717
  1 0.000002 28.528530 -2.793942 -0.031887 -0.205759 -1.763296
  2 0.000001 3.833359 0.000001 -0.881319 0.329823 -1.451251
  3 -0.000001 13.500033 -0.000004 0.989120 -0.087551 0.167391
  4 0.000002 11.928192 -0.000002 0.670093 -0.037048 -0.067960
  5 -0.000000 3.538863 0.000000 -2.328044 0.043700 -0.041268
  6 -0.000001 13.500033 -0.000006 1.635290 0.000001 -0.000000
  7 0.000002 28.528530 -2.793942 -0.483982 0.070507 -0.107456
  8 -0.000000 4.967566 -0.000000 0.328590 0.116741 -0.052807
  9 0.000001 10.424907 0.000000 0.142313 0.009263 -1.681140
  10 -0.000002 5.721372 -0.000000 0.939072 -0.393843 -0.685475
  11 -0.000003 8.563447 0.000002 -1.081383 0.079605 0.135306
  12 0.000000 7.483448 0.000000 0.033562 -0.008824 -0.015087
  13 0.000001 10.424907 0.000000 -0.196929 -0.007068 -0.113008
  14 -0.000000 3.096222 -0.000000 0.479759 -0.155238 -0.580525
  15 0.000001 10.424907 0.000000 -0.091958 -0.004987 1.777389
  16 -0.000004 5.721372 0.000001 -0.967764 -0.188485 1.455079
  17 -0.000001 8.563453 0.000006 -1.478035 -0.137568 -0.152772
  18 -0.000000 7.483445 0.000001 -0.214100 -0.578737 0.568285
  19 -4.741506 17.968628 -5.711433 -1.570796 -0.000000 0.000000
  20 -1.865308 2.586620 3.039288 0.000000 -0.000000 -0.000000
  21 7.026944 -6.939775 -6.504600 -3.141593 -1.570796 0.000000
  22 0.000002 28.528530 -2.793942 -0.054701 0.209358 1.697962
  23 0.000002 3.833358 -0.000000 -0.367648 -0.189380 1.274885
  24 -0.000004 13.500026 -0.000002 0.992602 0.088138 -0.167777
  25 -0.000001 11.928187 -0.000001 0.179428 0.300859 0.243243
  26 -0.000000 3.538861 0.000001 -2.328044 -0.043700 0.041269
  27 -0.000004 13.500026 -0.000002 1.635290 -0.000002 -0.000000
  28 0.000002 28.528530 -2.793941 -2.642779 0.174896 -0.022000
  29 -0.229274 16.709320 5.491955 0.000000 -0.000000 -1.570796
  30 -10.580791 -10.690506 16.572599 0.000000 -0.000000 -1.570796
  31 5.561424 -9.264555 -21.127790 -0.496972 0.350456 -1.594767
  32 -7.407562 4.321485 -21.226130 0.028270 -0.036311 -1.571339
  33 9.525343 11.850808 12.542006 0.000000 -0.000000 -1.570796
  34 9.525342 -7.812651 2.875456 0.000000 -0.000000 -1.570796
  35 -19.278757 -13.325406 -9.069633 0.000000 -0.000000 1.570796
  36 -19.069681 5.443509 -9.069633 0.000000 -0.000000 1.570796
  time 9
  0 1.894195 1.776405 -27.318064 1.692985 -0.000000 1.756717
  1 0.000005 28.528528 -2.793939 -0.031887 -0.205759 -1.763296
  2 -0.000001 3.833358 0.000000 -0.896864 0.420863 -1.636862
  3 0.000003 13.500032 -0.000002 0.731723 -0.048386 0.133629
  4 0.000004 11.928192 -0.000002 0.680791 -0.026408 -0.059915
  5 -0.000000 3.538862 0.000001 -2.328044 0.043700 -0.041269
  6 0.000004 13.500031 -0.000004 1.635290 0.000001 -0.000000
  7 0.000005 28.528528 -2.793940 -0.482501 0.129837 -0.087378
  8 -0.000000 4.967566 -0.000000 0.325523 0.130208 -0.048408
  9 -0.000001 10.424910 0.000001 0.142313 0.009263 -1.681140
  10 0.000002 5.721373 0.000000 1.009895 -0.195592 -0.686308
  11 0.000003 8.563445 0.000003 -1.815055 0.188592 0.148848
  12 0.000001 7.483442 -0.000001 0.033562 -0.008824 -0.015087
  13 -0.000001 10.424910 0.000001 -0.072507 0.036561 -0.317036
  14 -0.000001 3.096222 0.000000 0.399779 -0.166861 -0.504906
  15 -0.000001 10.424910 0.000001 0.032259 -0.020793 1.800387
  16 -0.000002 5.721371 -0.000000 -1.471620 -0.661913 1.313554
  17 -0.000001 8.563446 0.000001 -1.368561 -0.120974 -0.150286
  18 -0.000000 7.483441 0.000001 -0.066147 -0.398441 0.349689
  19 -11.956188 24.544281 1.449097 -1.018137 0.249137 0.400180
  20 -0.441220 2.076142 -0.519084 0.000000 -0.000000 -0.000000
  21 5.109666 -3.779453 -10.320846 3.141593 -1.570796 0.000000
  22 0.000005 28.528528 -2.793939 -0.054701 0.209358 1.697962
  23 0.000002 3.833357 0.000000 -0.385995 -0.226910 1.180620
  24 -0.000003 13.500024 -0.000002 0.788210 0.056208 -0.141871
  25 -0.000000 11.928185 0.000000 0.320287 0.381031 0.313570
  26 -0.000001 3.538861 -0.000000 -2.328044 -0.043700 0.041269
  27 -0.000003 13.500027 -0.000002 1.635290 -0.000002 -0.000000
  28 0.000004 28.528528 -2.793939 -2.653652 0.172127 -0.018776
  29 -1.679042 15.326232 7.874865 0.000000 -0.000000 -1.570796
  30 -1.377982 -10.818880 23.477766 0.000000 -0.000000 -1.570796
  31 5.561424 -9.264555 -21.215099 -0.379522 0.454461 -1.594423
  32 -7.407562 4.321485 -21.226130 0.039220 -0.022975 -1.571265
  33 -0.756035 8.794491 8.033234 0.000000 -0.000000 -1.570796
  34 9.525342 -7.812651 2.875456 0.000000 -0.000000 -1.570796
  35 -19.264471 -13.325057 -9.069633 0.000000 -0.000000 1.570796
  36 -18.992407 8.886418 -9.069633 0.000000 -0.000000 1.570796
  time 10
  0 1.868433 1.736983 -27.311695 1.692985 -0.000000 1.756717
  1 0.000005 28.528528 -2.793939 -0.031887 -0.205759 -1.763296
  2 0.000001 3.833359 0.000000 -0.896378 0.422501 -1.635690
  3 0.000003 13.500029 -0.000004 0.732990 -0.048557 0.133819
  4 0.000004 11.928193 -0.000004 0.690188 -0.017198 -0.052806
  5 -0.000000 3.538863 -0.000000 -2.328044 0.043700 -0.041269
  6 0.000003 13.500031 -0.000004 1.635290 0.000002 -0.000000
  7 0.000005 28.528528 -2.793940 -0.472019 0.149866 -0.054096
  8 -0.000000 4.967566 -0.000000 0.285534 0.334527 0.014564
  9 0.000000 10.424907 0.000001 0.142313 0.009263 -1.681140
  10 -0.000005 5.721372 0.000001 1.219981 -0.048090 -0.769637
  11 -0.000001 8.563445 0.000001 -2.049312 0.221644 0.136089
  12 0.000002 7.483444 0.000000 0.033562 -0.008824 -0.015087
  13 0.000000 10.424907 0.000001 -0.124086 0.057559 -0.251955
  14 0.000000 3.096222 0.000000 0.341465 -0.136014 -0.353678
  15 0.000000 10.424907 0.000001 0.198642 -0.034272 1.841306
  16 0.000003 5.721373 -0.000001 -1.612018 -1.060852 1.241835
  17 0.000002 8.563450 0.000002 -1.104157 -0.082714 -0.136923
  18 0.000000 7.483447 0.000000 0.008653 -0.200879 0.175585
  19 -16.947878 22.506166 9.603170 -2.446511 -0.000051 -0.130890
  20 -0.441220 2.076144 -0.519084 0.000000 0.000000 -0.000000
  21 1.559162 -0.882152 -1.028712 -3.141593 -1.570796 0.000000
  22 0.000005 28.528528 -2.793939 -0.054701 0.209358 1.697962
  23 -0.000000 3.833358 -0.000000 -0.500667 -0.207565 1.188905
  24 -0.000003 13.500027 -0.000002 1.037525 0.095826 -0.172572
  25 -0.000000 11.928185 0.000001 0.501822 0.271442 0.289206
  26 -0.000001 3.538863 -0.000000 -2.328044 -0.043700 0.041268
  27 -0.000003 13.500030 -0.000002 1.635290 -0.000001 -0.000000
  28 0.000005 28.528528 -2.793939 -2.665134 0.169241 -0.015341
  29 -3.128809 12.936181 9.177694 0.000000 -0.000000 -1.570796
  30 7.824828 -10.947255 24.464216 0.000000 -0.000000 -1.570796
  31 5.504827 -9.068782 -19.738201 -0.168109 0.354954 -1.538489
  32 -7.407562 4.321485 -21.226130 0.048770 -0.011343 -1.571082
  33 -11.037412 5.738177 3.524460 0.000000 -0.000000 -1.570796
  34 9.525342 -7.812651 2.875456 0.000000 -0.000000 -1.570796
  35 -19.318558 -13.244920 -9.069633 0.000000 -0.000000 1.570796
  36 -18.992407 8.886418 -9.069633 0.000000 -0.000000 1.570796
  time 11
  0 1.482012 1.145667 -27.216181 1.692985 0.000000 1.756717
  1 -0.000001 28.528532 -2.793940 -0.031887 -0.205759 -1.763296
  2 0.000001 3.833359 0.000000 -0.887622 0.447395 -1.617563
  3 0.000001 13.500030 -0.000004 0.749440 -0.050789 0.136261
  4 0.000004 11.928189 -0.000001 0.696871 -0.010726 -0.047727
  5 -0.000000 3.538863 -0.000000 -2.328044 0.043700 -0.041268
  6 0.000002 13.500031 -0.000004 1.635290 0.000001 -0.000000
  7 -0.000001 28.528532 -2.793941 -0.454282 -0.060907 0.007667
  8 -0.000000 4.967566 -0.000000 0.257208 0.293952 -0.012010
  9 -0.000001 10.424911 0.000001 0.142313 0.009263 -1.681140
  10 -0.000006 5.721373 -0.000000 1.176399 -0.148478 -1.003334
  11 0.000003 8.563456 0.000001 -2.108046 0.229356 0.131684
  12 0.000001 7.483447 0.000002 0.033562 -0.008824 -0.015087
  13 -0.000001 10.424911 0.000001 -0.244349 0.084857 -0.101571
  14 -0.000000 3.096222 0.000000 0.307809 -0.046511 0.026844
  15 -0.000001 10.424911 0.000001 0.281878 -0.042024 1.862710
  16 0.000002 5.721373 -0.000000 -1.364027 -0.256221 0.466662
  17 -0.000002 8.563451 0.000000 -0.005198 0.001712 -0.000794
  18 -0.000001 7.483444 -0.000001 0.031518 -0.049757 0.059111
  19 -17.286446 16.024460 -5.984431 1.953496 0.293105 0.297770
  20 -3.784839 8.692600 -8.755841 0.000000 0.000000 0.000000
  21 1.559165 -0.882150 -1.028708 3.141593 -1.570796 0.000000
  22 -0.000001 28.528532 -2.793940 -0.054701 0.209358 1.697962
  23 -0.000000 3.833358 0.000000 -0.605693 -0.183678 1.274779
  24 -0.000003 13.500026 -0.000003 1.295320 0.143418 -0.193083
  25 -0.000001 11.928187 -0.000001 0.584305 0.095220 0.171658
  26 -0.000000 3.538861 0.000001 -2.328044 -0.043700 0.041269
  27 -0.000003 13.500028 -0.000003 1.635290 -0.000002 -0.000000
  28 -0.000001 28.528532 -2.793940 -2.677078 0.166282 -0.011735
  29 -0.681599 11.498096 8.838781 0.000000 -0.000000 -1.570796
  30 -5.351279 -16.040667 15.716070 0.000000 -0.000000 -1.570796
  31 5.108649 -7.698368 -18.261301 -0.060018 0.144899 -1.522117
  32 -7.407562 4.321485 -21.226130 0.055522 -0.003119 -1.570886
  33 -0.756058 7.111600 4.500322 0.000000 -0.000000 -1.570796
  34 9.525342 -7.812651 2.875456 0.000000 -0.000000 -1.570796
  35 -19.420301 -12.683965 -9.069633 0.000000 -0.000000 1.570796
  36 -18.992407 8.886418 -9.069633 0.000000 -0.000000 1.570796
  time 12
  0 -0.192479 -1.416702 -26.802284 1.692985 -0.000000 1.756718
  1 0.000005 28.528528 -2.793937 -0.031887 -0.205759 -1.763296
  2 0.000003 3.833358 0.000000 -0.774227 0.424106 -1.454618
  3 0.000001 13.500028 -0.000005 0.768760 -0.053462 0.139082
  4 0.000005 11.928193 0.000001 0.699411 -0.008280 -0.045790
  5 -0.000000 3.538863 0.000000 -2.328044 0.043700 -0.041268
  6 0.000000 13.500028 -0.000005 1.635290 0.000001 0.000000
  7 0.000004 28.528528 -2.793938 -0.455101 -0.273631 0.061537
  8 0.000001 4.967565 -0.000001 -0.052994 -0.387969 -0.283863
  9 0.000002 10.424909 0.000000 0.142313 0.009262 -1.681140
  10 0.000002 5.721374 -0.000002 0.294405 -0.714175 -0.575430
  11 0.000000 8.563453 -0.000001 -1.798823 0.186197 0.149435
  12 0.000000 7.483445 0.000001 0.033562 -0.008824 -0.015087
  13 0.000002 10.424909 0.000000 -0.391411 0.127086 0.053717
  14 0.000000 3.096222 0.000000 0.305765 0.006593 0.302488
  15 0.000002 10.424909 0.000000 -0.301414 0.012008 1.651958
  16 -0.000001 5.721373 -0.000001 -0.751833 -0.252624 0.978467
  17 -0.000003 8.563445 0.000005 -1.045323 -0.074760 -0.132604
  18 0.000002 7.483444 0.000000 0.033562 0.008824 0.015087
  19 -0.456773 16.894476 -21.699112 2.125851 0.181500 -0.339988
  20 -0.009896 0.046563 -0.011643 0.000000 0.000000 -0.000000
  21 0.034967 -0.019783 -0.023072 3.141593 -1.570796 0.000000
  22 0.000005 28.528528 -2.793937 -0.054701 0.209358 1.697962
  23 0.000002 3.833356 0.000000 -0.388837 -0.160215 1.515841
  24 -0.000003 13.500027 -0.000001 0.937704 0.079047 -0.161460
  25 0.000000 11.928188 0.000000 0.192416 0.020081 0.036833
  26 -0.000000 3.538862 -0.000000 -2.328044 -0.043700 0.041269
  27 -0.000003 13.500026 -0.000001 1.635290 -0.000002 -0.000000
  28 0.000004 28.528528 -2.793937 -2.689335 0.163290 -0.008001
  29 1.765622 10.251339 6.466358 0.000000 -0.000000 -1.570796
  30 -19.660261 1.678661 8.117395 0.000000 -0.000000 -1.570796
  31 4.120037 -4.687068 -20.983618 -0.448817 0.004098 -1.585033
  32 -7.407562 4.321485 -21.226130 0.058080 0.000000 -1.570796
  33 9.525342 8.485031 7.728045 0.000000 -0.000000 -1.570796
  34 9.525342 -7.812651 2.875456 0.000000 -0.000000 -1.570796
  35 -19.478918 -11.161369 -9.069633 0.000000 -0.000000 1.570796
  36 -19.479588 6.593526 -9.069633 0.000000 -0.000000 1.570796
end
