version 1
nodes
0 "Base" -1
1 "R.hip" 0
2 "R.thigh" 1
3 "R.calve" 2
4 "R.heel" 3
5 "R.foot" 4
6 "R.thigh.001" 2
7 "Torso_bot" 0
8 "Torso_top" 7
9 "R.shoulder" 8
10 "R.bicep" 9
11 "R.forearm" 10
12 "R.hand" 11
13 "Neck" 8
14 "Head" 13
15 "L.shoulder" 8
16 "L.bicep" 15
17 "L.forearm" 16
18 "L.hand" 17
19 "Torso_bot.001" 7
20 "Torso_bot.002" 19
21 "Torso_bot.003" 19
22 "L.hip" 0
23 "L.thigh" 22
24 "L.calve" 23
25 "L.heel" 24
26 "L.foot" 25
27 "L.thigh.001" 23
28 "Base.001" 0
29 "R.armIK.000" -1
30 "L.armIK.000" -1
31 "L.LegIK.000" -1
32 "R.LegIK.000" -1
33 "UpperarmIK.L" -1
34 "UpperarmIK.R" -1
35 "KneeIK.L" -1
36 "KneeIK.R" -1
end
skeleton
  time 0
  0 1.775700 0.552432 -25.485786 1.692985 -0.000000 1.756718
  1 0.000004 28.528530 -2.793938 -0.031887 -0.205759 -1.763296
  2 0.000001 3.833358 0.000000 -0.655660 0.379430 -1.501660
  3 0.000003 13.500027 -0.000003 0.375229 -0.011016 0.073144
  4 0.000007 11.928187 0.000001 0.985732 -0.008281 -0.045791
  5 0.000000 3.538865 -0.000001 -2.328044 0.043700 -0.041268
  6 0.000003 13.500029 -0.000003 1.635290 0.000001 0.000000
  7 0.000004 28.528530 -2.793938 -0.076134 0.000857 0.008619
  8 0.000000 4.967566 0.000001 0.147338 -0.112923 0.036722
  9 0.000002 10.424905 0.000001 0.142313 0.009263 -1.681140
  10 0.000002 5.721375 0.000000 0.030101 -1.907019 -0.810457
  11 0.000001 8.563445 0.000004 -0.998682 0.068642 0.128854
  12 -0.000001 7.483444 0.000001 -0.335271 0.381068 0.033500
  13 0.000002 10.424905 0.000001 0.054879 0.100089 0.120188
  14 0.000000 3.096225 -0.000001 -0.294784 -0.229777 -0.049874
  15 0.000002 10.424905 0.000001 -0.132973 0.051695 1.893650
  16 0.000000 5.721371 0.000001 -0.378383 0.564409 0.729270
  17 0.000002 8.563446 -0.000003 -0.103631 0.000893 -0.015811
  18 -0.000000 7.483450 -0.000001 0.033562 0.008824 0.015087
  19 0.119125 7.401337 -0.700705 -1.570796 -0.000000 -0.000000
  20 -0.182472 0.858614 -0.214672 0.000000 -0.000000 -0.000000
  21 0.644811 -0.364825 -0.425440 -3.141592 -1.570796 0.000000
  22 0.000004 28.528530 -2.793938 -0.054701 0.209358 1.697962
  23 0.000002 3.833358 -0.000000 0.000705 0.094494 1.420204
  24 -0.000003 13.500031 0.000001 0.446199 0.016682 -0.086157
  25 -0.000002 11.928185 0.000002 0.196888 -0.184472 0.383726
  26 -0.000000 3.538862 0.000000 -2.328044 -0.043700 0.041269
  27 -0.000004 13.500029 0.000001 1.635290 -0.000001 0.000000
  28 0.000004 28.528530 -2.793938 -2.489337 0.118361 0.056513
  29 3.641044 9.378573 4.207190 0.000000 -0.000000 -1.570796
  30 -4.556690 -8.386799 3.412701 0.000000 -0.000000 -1.570796
  31 9.997841 -4.320869 -21.035057 -0.406119 0.041866 -1.185521
  32 -7.407562 4.321485 -20.864038 0.344401 0.000000 -1.570796
  33 9.525341 2.828479 11.180841 0.000000 -0.000000 -1.570796
  34 9.525343 8.834909 11.180841 0.000000 -0.000000 -1.570796
  35 -19.481180 -3.775503 -9.069633 0.000000 -0.000000 1.570796
  36 -19.481180 6.820030 -9.069633 0.000000 -0.000000 1.570796
  time 1
  0 4.285873 1.746018 -28.091881 1.692985 -0.000000 0.985604
  1 0.000002 28.528534 -2.793941 -0.031887 -0.205759 -1.763296
  2 -0.000001 3.833359 -0.000000 -0.890116 -0.362585 -1.434239
  3 -0.000000 13.500029 -0.000006 0.654395 -0.038466 0.121673
  4 0.000003 11.928190 -0.000000 0.949616 -0.038289 -0.071295
  5 0.000001 3.538864 -0.000001 -2.328044 0.043700 -0.041268
  6 -0.000000 13.500031 -0.000005 1.635290 0.000001 0.000000
  7 0.000002 28.528534 -2.793941 -0.236647 -0.060669 0.020120
  8 -0.000000 4.967567 0.000001 -0.265364 -0.155294 0.066470
  9 0.000001 10.424911 0.000003 0.134390 0.004356 -1.680216
  10 0.000001 5.721372 -0.000000 -1.125843 -0.934606 0.255922
  11 -0.000006 8.563453 0.000002 -0.716874 0.035997 0.100587
  12 0.000000 7.483448 -0.000002 -0.335271 0.381068 0.033500
  13 0.000001 10.424911 0.000003 0.444466 0.329058 0.686507
  14 -0.000000 3.096222 0.000000 0.549969 -0.277585 -0.223717
  15 0.000001 10.424911 0.000003 -0.131809 0.051180 1.892839
  16 0.000001 5.721371 -0.000001 -0.424352 1.225920 -0.020807
  17 -0.000001 8.563450 0.000002 -1.746150 -0.178353 -0.151066
  18 -0.000000 7.483445 -0.000001 0.033562 0.008824 0.015087
  19 0.119126 7.401337 -0.700705 -1.570796 0.000000 -0.000000
  20 -0.182472 0.858614 -0.214671 0.000000 -0.000000 -0.000000
  21 0.644811 -0.364824 -0.425438 -3.141593 -1.570796 0.000000
  22 0.000002 28.528534 -2.793941 -0.054701 0.209358 1.697962
  23 -0.000000 3.833357 0.000001 -0.173301 -0.688573 1.447136
  24 -0.000003 13.500023 -0.000005 0.943394 0.079973 -0.162138
  25 -0.000001 11.928186 0.000000 0.122604 -0.208584 0.365133
  26 -0.000001 3.538863 -0.000000 -2.328044 -0.043700 0.041268
  27 -0.000003 13.500023 -0.000005 1.635290 -0.000002 -0.000000
  28 0.000002 28.528534 -2.793941 -2.442022 0.161663 -0.006121
  29 7.027606 14.009895 2.243330 0.000000 -0.000000 -1.570796
  30 -2.456821 1.143540 2.576843 0.000000 -0.000000 -1.570796
  31 9.997841 -4.320869 -21.035057 -0.484069 0.011663 -1.186813
  32 -5.324734 6.280743 -20.864038 0.307740 -0.039300 -1.573267
  33 6.291013 -9.768973 6.660604 0.000000 -0.000000 -1.570796
  34 9.525343 5.177690 11.040117 0.000000 -0.000000 -1.570796
  35 -19.481180 -3.129770 -9.069633 0.000000 -0.000000 1.570796
  36 -15.872588 8.775069 -9.069633 0.000000 -0.000000 1.570796
  time 2
  0 5.031201 1.129546 -28.533998 1.692985 -0.000000 0.985604
  1 0.000002 28.528534 -2.793941 -0.031887 -0.205759 -1.763296
  2 -0.000001 3.833358 0.000000 -0.967874 -0.124737 -1.377523
  3 0.000003 13.500032 -0.000005 0.896710 -0.072495 0.156427
  4 0.000005 11.928194 0.000001 0.879821 -0.096592 -0.115723
  5 -0.000000 3.538863 -0.000000 -2.328044 0.043700 -0.041268
  6 0.000002 13.500032 -0.000005 1.635290 0.000002 0.000000
  7 0.000002 28.528534 -2.793942 -0.398734 -0.119550 0.041434
  8 -0.000000 4.967566 0.000001 -0.681593 -0.182207 0.111152
  9 0.000000 10.424910 -0.000001 0.111993 -0.009456 -1.677399
  10 0.000000 5.721373 0.000001 -1.051398 -0.428629 0.011378
  11 0.000003 8.563452 0.000002 -0.005216 -0.001712 0.000797
  12 0.000001 7.483444 -0.000001 -0.335271 0.381068 0.033500
  13 0.000000 10.424910 -0.000001 0.089406 0.109397 0.029223
  14 -0.000001 3.096221 0.000000 0.528012 -0.272252 -0.222956
  15 0.000000 10.424910 -0.000001 -0.128497 0.049720 1.890525
  16 0.000001 5.721370 0.000002 -1.125133 0.713653 -0.285023
  17 -0.000001 8.563452 0.000000 -1.892551 -0.199871 -0.145505
  18 -0.000002 7.483442 -0.000001 0.033562 0.008824 0.015087
  19 0.119127 7.401340 -0.700704 -1.570796 -0.000000 0.000000
  20 -0.182472 0.858614 -0.214672 0.000000 -0.000000 0.000000
  21 0.644811 -0.364823 -0.425439 -3.141593 -1.570796 0.000000
  22 0.000002 28.528534 -2.793941 -0.054701 0.209358 1.697962
  23 -0.000002 3.833358 -0.000000 -0.284622 -0.611817 1.514010
  24 -0.000000 13.500029 0.000003 1.056163 0.099078 -0.174459
  25 -0.000003 11.928188 -0.000001 -0.008175 -0.194302 0.355450
  26 -0.000000 3.538860 0.000001 -2.328044 -0.043700 0.041268
  27 -0.000000 13.500028 0.000003 1.635290 -0.000001 -0.000000
  28 0.000002 28.528534 -2.793941 -2.337809 0.277546 -0.151098
  29 10.414166 18.641216 0.279470 0.000000 -0.000000 -1.570796
  30 -0.356954 7.188424 1.502171 0.000000 -0.000000 -1.570796
  31 9.997841 -4.320869 -21.035057 -0.617022 0.017970 -1.202758
  32 -1.456626 9.436504 -20.864038 0.234987 -0.112535 -1.573770
  33 6.303094 -9.721917 6.677490 0.000000 -0.000000 -1.570796
  34 9.525343 -1.614288 10.778769 0.000000 -0.000000 -1.570796
  35 -19.481180 -1.697213 -9.069633 0.000000 -0.000000 1.570796
  36 -9.170912 12.405853 -9.069633 0.000000 -0.000000 1.570796
  time 3
  0 5.776531 0.513075 -28.976118 1.692985 -0.000000 0.985604
  1 0.000002 28.528532 -2.793941 -0.031887 -0.205759 -1.763296
  2 -0.000001 3.833358 -0.000001 -1.001916 0.062414 -1.359146
  3 0.000001 13.500032 -0.000003 0.934351 -0.078504 0.161058
  4 0.000004 11.928194 -0.000000 0.829868 -0.129754 -0.137181
  5 -0.000000 3.538864 -0.000001 -2.328044 0.043700 -0.041268
  6 -0.000000 13.500031 -0.000003 1.635290 0.000001 0.000000
  7 0.000002 28.528532 -2.793942 -0.409225 -0.028346 0.048189
  8 0.000001 4.967565 -0.000001 -0.661591 -0.083516 0.160690
  9 -0.000001 10.424907 -0.000002 0.077093 -0.030790 -1.672407
  10 -0.000000 5.721372 0.000003 -1.002756 -0.580358 -0.330195
  11 0.000000 8.563449 0.000000 -0.281707 0.004313 0.042501
  12 0.000001 7.483444 -0.000002 -0.335271 0.381068 0.033499
  13 -0.000001 10.424907 -0.000002 0.089760 0.111109 0.032645
  14 -0.000000 3.096222 -0.000000 0.505769 -0.266825 -0.222309
  15 -0.000001 10.424907 -0.000002 -0.123296 0.047446 1.886890
  16 -0.000001 5.721373 0.000002 -1.175077 0.581225 -0.273882
  17 0.000001 8.563448 0.000004 -1.865299 -0.195938 -0.146782
  18 0.000001 7.483444 0.000000 0.033562 0.008824 0.015087
  19 0.119125 7.401337 -0.700705 -1.570796 -0.000000 -0.000000
  20 -0.182472 0.858614 -0.214672 0.000000 0.000000 -0.000000
  21 0.644811 -0.364824 -0.425438 -3.141593 -1.570796 0.000000
  22 0.000002 28.528532 -2.793941 -0.054701 0.209358 1.697962
  23 0.000002 3.833358 -0.000000 -0.381936 -0.533249 1.569382
  24 -0.000000 13.500029 0.000002 1.154948 0.116857 -0.183436
  25 -0.000001 11.928188 -0.000002 -0.080180 -0.188507 0.350040
  26 -0.000000 3.538861 -0.000000 -2.328044 -0.043699 0.041268
  27 -0.000001 13.500028 0.000002 1.635290 -0.000001 -0.000000
  28 0.000002 28.528532 -2.793941 -2.335765 0.276951 -0.151040
  29 6.932500 13.551209 -2.413601 0.000000 -0.000000 -1.570796
  30 -1.392064 6.437351 1.273581 0.000000 -0.000000 -1.570796
  31 9.997841 -4.320869 -21.035057 -0.690200 0.019682 -1.210431
  32 0.626201 11.088490 -20.864038 0.182219 -0.151849 -1.570797
  33 6.338161 -9.585338 6.726500 0.000000 -0.000000 -1.570796
  34 9.525342 -5.271507 10.638044 0.000000 -0.000000 -1.570796
  35 -19.481180 -0.234792 -9.069633 0.000000 -0.000000 1.570796
  36 -5.562319 14.360893 -9.069633 0.000000 -0.000000 1.570796
  time 4
  0 5.782298 0.513075 -28.978514 1.692817 -0.000111 0.985605
  1 0.000001 28.528526 -2.793938 -0.031887 -0.205759 -1.763296
  2 -0.000001 3.833357 -0.000000 -0.999059 0.037807 -1.343774
  3 0.000002 13.500030 -0.000004 0.934618 -0.078547 0.161091
  4 0.000005 11.928188 0.000000 0.807936 -0.128286 -0.134033
  5 0.000001 3.538863 -0.000002 -2.328044 0.043700 -0.041268
  6 0.000000 13.500031 -0.000003 1.635290 0.000001 0.000000
  7 0.000001 28.528526 -2.793938 -0.419129 0.063040 0.054004
  8 0.000000 4.967567 0.000001 -0.636527 0.015031 0.212549
  9 0.000001 10.424906 -0.000002 0.031588 -0.058194 -1.664814
  10 -0.000001 5.721375 0.000000 -1.302534 -0.719898 -0.490485
  11 0.000001 8.563452 0.000005 -0.005243 -0.001712 0.000802
  12 0.000004 7.483449 -0.000004 -0.335271 0.381069 0.033500
  13 0.000001 10.424906 -0.000002 0.092414 0.123094 0.056706
  14 -0.000000 3.096220 -0.000003 0.483241 -0.261307 -0.221782
  15 0.000001 10.424906 -0.000002 -0.116467 0.044493 1.882107
  16 0.000001 5.721373 0.000002 -1.110802 0.674466 -0.384993
  17 -0.000001 8.563447 0.000003 -1.709343 -0.172819 -0.151955
  18 0.000000 7.483443 -0.000000 0.033562 0.008824 0.015087
  19 0.119126 7.401336 -0.700705 -1.570796 0.000000 -0.000000
  20 -0.182472 0.858615 -0.214675 0.000000 -0.000000 0.000000
  21 0.644811 -0.364823 -0.425438 -3.141593 -1.570796 0.000000
  22 0.000001 28.528526 -2.793938 -0.054701 0.209358 1.697962
  23 0.000000 3.833359 -0.000001 -0.382183 -0.523236 1.571246
  24 -0.000000 13.500028 0.000003 1.155312 0.116924 -0.183466
  25 -0.000002 11.928185 0.000002 -0.079178 -0.211872 0.345326
  26 -0.000001 3.538861 0.000000 -2.328044 -0.043700 0.041268
  27 -0.000000 13.500031 0.000003 1.635290 -0.000001 -0.000000
  28 0.000001 28.528526 -2.793937 -2.329697 0.275184 -0.150876
  29 3.450835 8.461203 -5.106670 0.000000 -0.000000 -1.570796
  30 -1.861981 3.774514 -0.966200 0.000000 -0.000000 -1.570796
  31 9.997841 -4.320869 -21.035057 -0.690052 -0.002112 -1.200823
  32 0.626201 11.088490 -20.864038 0.160449 -0.148794 -1.569174
  33 6.394443 -9.366122 6.805159 0.000000 -0.000000 -1.570796
  34 9.525342 -5.271507 10.638044 0.000000 -0.000000 -1.570796
  35 -19.481180 0.022550 -9.069633 0.000000 -0.000000 1.570796
  36 -5.562319 13.943227 -9.069633 0.000000 -0.000000 1.570796
  time 5
  0 5.822669 0.513075 -28.995289 1.691640 -0.000891 0.985605
  1 0.000001 28.528530 -2.793939 -0.031887 -0.205759 -1.763296
  2 0.000000 3.833358 0.000000 -0.993771 -0.041285 -1.295330
  3 -0.000002 13.500030 -0.000002 0.936493 -0.078851 0.161315
  4 0.000005 11.928193 0.000001 0.789248 -0.122358 -0.128038
  5 -0.000000 3.538863 -0.000001 -2.328044 0.043700 -0.041268
  6 -0.000000 13.500031 -0.000003 1.635290 0.000001 0.000000
  7 0.000001 28.528530 -2.793939 -0.377278 -0.007791 0.039176
  8 0.000000 4.967564 -0.000001 -0.606091 0.112446 0.267395
  9 0.000001 10.424910 0.000000 -0.022616 -0.090115 -1.654210
  10 0.000005 5.721371 -0.000001 -1.185873 -0.643753 -0.569317
  11 0.000000 8.563457 0.000002 -0.005255 -0.001712 0.000803
  12 0.000001 7.483445 -0.000002 -0.335271 0.381069 0.033500
  13 0.000001 10.424910 0.000000 0.101189 0.155551 0.122972
  14 -0.000000 3.096220 -0.000002 0.559080 -0.284662 -0.260825
  15 0.000001 10.424910 0.000000 -0.108272 0.041000 1.876352
  16 -0.000000 5.721371 0.000001 -0.912286 0.764458 -0.392146
  17 -0.000001 8.563449 0.000004 -1.504477 -0.141604 -0.153097
  18 0.000000 7.483441 0.000002 0.033562 0.008824 0.015087
  19 0.119126 7.401337 -0.700707 -1.570796 -0.000000 -0.000000
  20 -0.182472 0.858614 -0.214674 0.000000 -0.000000 -0.000000
  21 0.644811 -0.364825 -0.425435 -3.141593 -1.570796 0.000000
  22 0.000001 28.528530 -2.793939 -0.054701 0.209358 1.697962
  23 -0.000000 3.833358 -0.000001 -0.384103 -0.493272 1.576697
  24 -0.000004 13.500031 0.000000 1.157866 0.117395 -0.183675
  25 -0.000000 11.928190 0.000002 -0.069820 -0.251078 0.336054
  26 0.000002 3.538863 -0.000001 -2.328044 -0.043700 0.041268
  27 -0.000004 13.500031 0.000000 1.635290 -0.000001 0.000000
  28 0.000001 28.528530 -2.793939 -2.319792 0.272296 -0.150632
  29 3.450835 9.500970 -5.106670 0.000000 -0.000000 -1.570796
  30 -2.331898 1.111675 -3.205978 0.000000 -0.000000 -1.570796
  31 9.997841 -4.320869 -21.035057 -0.683136 -0.039386 -1.185681
  32 0.626201 11.088490 -20.864038 0.142339 -0.140479 -1.567990
  33 6.470174 -9.071157 6.910995 0.000000 -0.000000 -1.570796
  34 9.525342 -5.271507 10.638044 0.000000 -0.000000 -1.570796
  35 -19.481180 0.794575 -9.069633 0.000000 -0.000000 1.570796
  36 -5.562319 12.690228 -9.069633 0.000000 -0.000000 1.570796
  time 6
  0 5.932249 0.513075 -29.040821 1.688445 -0.003008 0.985611
  1 0.000003 28.528532 -2.793941 -0.031887 -0.205759 -1.763296
  2 0.000001 3.833359 -0.000001 -0.996307 -0.188677 -1.205192
  3 0.000003 13.500031 -0.000003 0.941609 -0.079683 0.161926
  4 0.000006 11.928195 -0.000001 0.773609 -0.112787 -0.119894
  5 -0.000001 3.538863 -0.000001 -2.328044 0.043700 -0.041268
  6 0.000002 13.500032 -0.000001 1.635290 0.000001 0.000000
  7 0.000003 28.528532 -2.793941 -0.334147 -0.078099 0.021300
  8 -0.000001 4.967565 -0.000000 -0.569895 0.207696 0.325915
  9 0.000000 10.424910 -0.000000 -0.083544 -0.124896 -1.640341
  10 0.000001 5.721374 -0.000005 -1.085250 -0.563083 -0.628673
  11 0.000002 8.563444 0.000001 -0.005268 -0.001711 0.000805
  12 -0.000000 7.483443 0.000000 -0.335271 0.381068 0.033500
  13 0.000000 10.424910 -0.000000 0.125058 0.217639 0.255991
  14 0.000001 3.096224 0.000003 0.637273 -0.305305 -0.302382
  15 0.000000 10.424910 -0.000000 -0.098969 0.037102 1.869804
  16 -0.000003 5.721374 0.000001 -0.841139 0.816131 -0.359492
  17 -0.000002 8.563452 0.000003 -1.116874 -0.084466 -0.137794
  18 0.000001 7.483444 0.000000 0.033562 0.008824 0.015087
  19 0.119123 7.401337 -0.700704 -1.570796 0.000000 0.000000
  20 -0.182472 0.858614 -0.214671 0.000000 -0.000000 -0.000000
  21 0.644811 -0.364824 -0.425437 -3.141593 -1.570796 0.000000
  22 0.000003 28.528532 -2.793941 -0.054701 0.209358 1.697962
  23 -0.000005 3.833360 -0.000001 -0.389194 -0.443764 1.585234
  24 -0.000003 13.500034 0.000000 1.164811 0.118678 -0.184235
  25 0.000002 11.928198 0.000001 -0.057197 -0.300875 0.322958
  26 0.000002 3.538864 0.000000 -2.328044 -0.043700 0.041268
  27 -0.000003 13.500034 0.000001 1.635290 -0.000001 0.000000
  28 0.000003 28.528532 -2.793940 -2.306359 0.268371 -0.150349
  29 3.450835 10.540737 -5.106670 0.000000 -0.000000 -1.570796
  30 -2.801816 -1.551162 -5.445757 0.000000 -0.000000 -1.570796
  31 9.997841 -4.320869 -21.035057 -0.675254 -0.087318 -1.167175
  32 0.626201 11.088490 -20.864038 0.127562 -0.127967 -1.567294
  33 6.563585 -8.707327 7.041548 0.000000 -0.000000 -1.570796
  34 9.525342 -5.271507 10.638044 0.000000 -0.000000 -1.570796
  35 -19.481180 2.081284 -9.069633 0.000000 -0.000000 1.570796
  36 -5.562319 10.601896 -9.069633 0.000000 -0.000000 1.570796
  time 7
  0 6.145639 0.513075 -29.129488 1.682220 -0.007133 0.985643
  1 0.000000 28.528530 -2.793941 -0.031887 -0.205759 -1.763296
  2 0.000005 3.833359 -0.000000 -1.031569 -0.412984 -1.056260
  3 0.000005 13.500034 -0.000003 0.951875 -0.081361 0.163138
  4 -0.000002 11.928195 0.000006 0.760823 -0.100425 -0.110236
  5 0.000000 3.538864 -0.000001 -2.328044 0.043700 -0.041269
  6 0.000005 13.500033 -0.000002 1.635289 0.000001 -0.000000
  7 0.000000 28.528530 -2.793941 -0.289462 -0.147477 0.000262
  8 0.000000 4.967566 -0.000000 -0.548157 0.242522 0.341723
  9 0.000001 10.424910 -0.000000 -0.149094 -0.160827 -1.623221
  10 0.000002 5.721373 -0.000004 -1.091426 -0.496513 -0.654022
  11 -0.000001 8.563451 0.000003 -0.005308 -0.001711 0.000811
  12 -0.000001 7.483446 0.000002 -0.335270 0.381068 0.033500
  13 0.000001 10.424910 -0.000000 0.184190 0.312306 0.486035
  14 -0.000000 3.096221 -0.000000 0.717514 -0.322894 -0.346171
  15 0.000001 10.424910 -0.000000 -0.088824 0.032932 1.862642
  16 -0.000000 5.721373 -0.000003 -1.142784 0.817842 -0.294619
  17 -0.000002 8.563449 0.000000 -0.005203 0.001711 -0.000795
  18 -0.000003 7.483447 -0.000002 0.033562 0.008824 0.015087
  19 0.119124 7.401340 -0.700704 -1.570796 0.000000 0.000000
  20 -0.182471 0.858614 -0.214676 0.000000 0.000000 0.000000
  21 0.644811 -0.364824 -0.425436 3.141593 -1.570796 0.000000
  22 0.000000 28.528530 -2.793941 -0.054701 0.209358 1.697962
  23 0.000001 3.833359 -0.000000 -0.398616 -0.375746 1.595885
  24 -0.000001 13.500029 0.000002 1.178381 0.121196 -0.185305
  25 -0.000000 11.928185 0.000001 -0.046690 -0.355866 0.307315
  26 0.000001 3.538862 -0.000000 -2.328044 -0.043700 0.041268
  27 -0.000000 13.500029 0.000002 1.635290 -0.000001 -0.000000
  28 0.000000 28.528530 -2.793941 -2.289816 0.263526 -0.150075
  29 2.914460 10.722750 -6.485157 0.000000 -0.000000 -1.570796
  30 -3.271733 -4.214000 -7.685537 0.000000 -0.000000 -1.570796
  31 9.997840 -4.320869 -21.035057 -0.672083 -0.140644 -1.147056
  32 0.626201 11.088490 -20.864038 0.115776 -0.112315 -1.567060
  33 6.672909 -8.281520 7.194336 0.000000 -0.000000 -1.570796
  34 9.525342 -5.271507 10.638044 0.000000 -0.000000 -1.570796
  35 -19.481180 3.882676 -9.069633 0.000000 -0.000000 1.570796
  36 -5.562320 7.678231 -9.069633 0.000000 -0.000000 1.570796
  time 8
  0 6.497447 0.513075 -29.275669 1.671949 -0.013937 0.985751
  1 0.000002 28.528530 -2.793940 -0.031887 -0.205759 -1.763296
  2 0.000001 3.833359 0.000000 -1.057313 -0.430607 -1.041848
  3 0.000004 13.500028 -0.000002 0.968818 -0.084157 0.165101
  4 -0.000003 11.928190 0.000003 0.750678 -0.086146 -0.099655
  5 0.000000 3.538864 -0.000001 -2.328044 0.043700 -0.041269
  6 0.000005 13.500027 -0.000002 1.635290 0.000001 -0.000000
  7 0.000002 28.528530 -2.793940 -0.299999 -0.140203 0.002685
  8 0.000000 4.967565 -0.000000 -0.550334 0.112711 0.245331
  9 -0.000000 10.424908 -0.000002 -0.216994 -0.196228 -1.603222
  10 -0.000001 5.721375 0.000001 -1.134449 -0.427665 -0.615399
  11 -0.000001 8.563450 -0.000000 -0.005328 -0.001712 0.000814
  12 0.000001 7.483446 -0.000001 -0.335271 0.381068 0.033500
  13 -0.000000 10.424908 -0.000002 0.184176 0.312314 0.486036
  14 0.000000 3.096223 0.000001 0.748114 -0.319475 -0.306829
  15 -0.000000 10.424908 -0.000002 -0.078103 0.028617 1.855050
  16 -0.000001 5.721373 0.000001 -1.147472 0.823291 -0.165525
  17 -0.000002 8.563450 0.000001 -0.005222 0.001712 -0.000798
  18 0.000001 7.483447 -0.000002 0.033562 0.008824 0.015087
  19 0.119127 7.401338 -0.700706 -1.570796 0.000000 -0.000000
  20 -0.182472 0.858614 -0.214673 0.000000 0.000000 -0.000000
  21 0.644811 -0.364824 -0.425437 3.141593 -1.570796 0.000000
  22 0.000002 28.528530 -2.793940 -0.054701 0.209358 1.697962
  23 0.000002 3.833359 0.000001 -0.417578 -0.367921 1.595167
  24 -0.000002 13.500027 0.000000 1.200894 0.125404 -0.187005
  25 -0.000001 11.928187 0.000001 -0.044213 -0.410667 0.291294
  26 -0.000000 3.538862 -0.000001 -2.328044 -0.043700 0.041268
  27 -0.000001 13.500027 0.000000 1.635290 -0.000001 -0.000000
  28 0.000002 28.528530 -2.793940 -2.270676 0.257909 -0.149863
  29 2.378085 10.904761 -7.863646 0.000000 -0.000000 -1.570796
  30 -3.271732 -2.616093 -7.685537 0.000000 -0.000000 -1.570796
  31 9.997840 -4.320869 -21.035057 -0.679023 -0.193679 -1.126489
  32 0.626201 11.088490 -20.864038 0.106633 -0.094572 -1.567218
  33 6.796377 -7.800622 7.366894 0.000000 -0.000000 -1.570796
  34 9.525342 -5.271507 10.638044 0.000000 -0.000000 -1.570796
  35 -19.481180 4.054946 -9.069633 0.000000 -0.000000 1.570796
  36 -5.562320 7.398637 -9.069633 0.000000 -0.000000 1.570796
  time 9
  0 7.022274 0.513075 -29.493740 1.656604 -0.024097 0.986043
  1 0.000003 28.528528 -2.793942 -0.031887 -0.205759 -1.763296
  2 0.000005 3.833358 -0.000001 -1.077576 -0.358535 -1.094520
  3 0.000002 13.500032 -0.000003 0.994682 -0.088489 0.168007
  4 -0.000006 11.928190 0.000005 0.742935 -0.070850 -0.088709
  5 0.000002 3.538865 -0.000002 -2.328044 0.043700 -0.041268
  6 0.000002 13.500033 -0.000002 1.635290 0.000001 0.000000
  7 0.000003 28.528528 -2.793942 -0.310518 -0.132896 0.005031
  8 -0.000000 4.967567 0.000001 -0.549634 0.094575 0.232005
  9 0.000000 10.424907 -0.000001 -0.284780 -0.229561 -1.581111
  10 0.000001 5.721374 -0.000006 -1.138142 -0.357259 -0.606188
  11 -0.000001 8.563450 0.000003 -0.005348 -0.001712 0.000818
  12 0.000001 7.483445 -0.000004 -0.335271 0.381069 0.033500
  13 0.000000 10.424907 -0.000001 0.183740 0.312581 0.486071
  14 -0.000000 3.096223 0.000000 0.779334 -0.317171 -0.266751
  15 0.000000 10.424907 -0.000001 -0.067075 0.024276 1.847217
  16 -0.000001 5.721372 -0.000001 -1.136466 0.779684 -0.113562
  17 -0.000002 8.563443 -0.000000 -0.005274 0.001711 -0.000806
  18 -0.000001 7.483444 -0.000002 0.033562 0.008824 0.015087
  19 0.119124 7.401333 -0.700705 -1.570796 0.000000 0.000000
  20 -0.182472 0.858614 -0.214673 0.000000 0.000000 0.000000
  21 0.644811 -0.364825 -0.425434 -3.141593 -1.570796 0.000000
  22 0.000003 28.528528 -2.793942 -0.054701 0.209358 1.697962
  23 -0.000001 3.833357 -0.000000 -0.447329 -0.385556 1.589648
  24 -0.000001 13.500030 0.000002 1.234794 0.131807 -0.189383
  25 0.000001 11.928187 0.000001 -0.047998 -0.462033 0.276645
  26 0.000000 3.538861 0.000000 -2.328044 -0.043700 0.041269
  27 -0.000000 13.500031 0.000002 1.635290 -0.000001 0.000000
  28 0.000002 28.528528 -2.793942 -2.249535 0.251690 -0.149757
  29 1.841710 11.086774 -9.242131 0.000000 -0.000000 -1.570796
  30 -3.495502 -2.305503 -9.375302 0.000000 -0.000000 -1.570796
  31 9.997840 -4.320869 -21.035057 -0.693445 -0.242808 -1.105973
  32 0.626201 11.088490 -20.864038 0.099786 -0.075787 -1.567670
  33 6.932221 -7.271520 7.556744 0.000000 -0.000000 -1.570796
  34 9.525342 -5.271507 10.638044 0.000000 -0.000000 -1.570796
  35 -19.481180 3.516868 -9.069633 0.000000 -0.000000 1.570796
  36 -5.562320 8.271939 -9.069633 0.000000 -0.000000 1.570796
  time 10
  0 7.754725 0.513075 -29.798084 1.635145 -0.038286 0.986712
  1 0.000003 28.528528 -2.793940 -0.031887 -0.205759 -1.763296
  2 0.000002 3.833359 -0.000000 -1.123146 -0.348726 -1.101339
  3 0.000000 13.500031 -0.000003 1.031856 -0.094844 0.171986
  4 -0.000001 11.928190 0.000005 0.737321 -0.055440 -0.077941
  5 0.000000 3.538865 -0.000001 -2.328044 0.043700 -0.041268
  6 0.000001 13.500032 -0.000002 1.635290 0.000001 0.000000
  7 0.000003 28.528528 -2.793940 -0.321019 -0.125558 0.007300
  8 -0.000000 4.967567 0.000000 -0.550128 0.106691 0.240907
  9 0.000000 10.424907 -0.000001 -0.349808 -0.259536 -1.558030
  10 -0.000001 5.721373 0.000001 -1.135936 -0.285402 -0.596874
  11 0.000003 8.563454 0.000001 -0.005365 -0.001711 0.000820
  12 0.000002 7.483446 -0.000001 -0.335271 0.381068 0.033500
  13 0.000000 10.424907 -0.000001 0.180777 0.314400 0.486304
  14 0.000000 3.096222 0.000001 0.811100 -0.316050 -0.226011
  15 0.000000 10.424907 -0.000001 -0.056016 0.020022 1.839338
  16 -0.000001 5.721373 -0.000000 -1.139359 0.717326 -0.081145
  17 0.000000 8.563451 0.000000 -0.005307 0.001711 -0.000811
  18 0.000001 7.483444 -0.000003 0.033562 0.008824 0.015087
  19 0.119126 7.401337 -0.700705 -1.570796 0.000000 -0.000000
  20 -0.182472 0.858614 -0.214671 0.000000 0.000000 0.000000
  21 0.644811 -0.364825 -0.425436 -3.141593 -1.570796 0.000000
  22 0.000003 28.528528 -2.793940 -0.054701 0.209358 1.697962
  23 -0.000001 3.833359 0.000000 -0.487493 -0.383318 1.586117
  24 -0.000002 13.500031 0.000001 1.282847 0.141009 -0.192378
  25 -0.000002 11.928186 0.000002 -0.054905 -0.509102 0.265720
  26 -0.000001 3.538863 -0.000001 -2.328044 -0.043700 0.041268
  27 -0.000001 13.500032 0.000002 1.635290 -0.000001 -0.000000
  28 0.000003 28.528528 -2.793940 -2.227045 0.245064 -0.149794
  29 1.305335 11.268785 -10.620617 0.000000 -0.000000 -1.570796
  30 -3.719272 -1.994913 -11.065067 0.000000 -0.000000 -1.570796
  31 9.997840 -4.320869 -21.035057 -0.711093 -0.286110 -1.084397
  32 0.626201 11.088490 -20.864038 0.094894 -0.057011 -1.568305
  33 7.078673 -6.701100 7.761425 0.000000 -0.000000 -1.570796
  34 9.525342 -5.271507 10.638044 0.000000 -0.000000 -1.570796
  35 -19.481180 3.493473 -9.069633 0.000000 -0.000000 1.570796
  36 -5.562320 8.309910 -9.069633 0.000000 -0.000000 1.570796
  time 11
  0 8.729404 0.513075 -30.203077 1.606507 -0.057168 0.988079
  1 0.000001 28.528532 -2.793939 -0.031887 -0.205759 -1.763296
  2 0.000000 3.833358 -0.000001 -1.196507 -0.395538 -1.058539
  3 -0.000001 13.500029 -0.000004 1.082970 -0.103814 0.177068
  4 0.000003 11.928186 0.000003 0.733528 -0.040825 -0.067885
  5 -0.000000 3.538862 0.000001 -2.328044 0.043700 -0.041268
  6 0.000001 13.500030 -0.000003 1.635289 0.000001 0.000000
  7 0.000001 28.528532 -2.793939 -0.331503 -0.118191 0.009490
  8 0.000000 4.967566 0.000000 -0.531265 0.185811 0.302492
  9 -0.000001 10.424906 -0.000003 -0.409305 -0.285170 -1.535434
  10 0.000001 5.721372 0.000001 -1.112364 -0.218783 -0.602067
  11 -0.000002 8.563446 0.000005 -0.005380 -0.001711 0.000822
  12 -0.000001 7.483443 -0.000000 -0.335271 0.381069 0.033500
  13 -0.000001 10.424906 -0.000003 0.169788 0.321142 0.487117
  14 0.000000 3.096223 0.000002 0.810693 -0.315956 -0.225950
  15 -0.000001 10.424906 -0.000003 -0.045200 0.015958 1.831611
  16 0.000002 5.721370 0.000001 -1.173453 0.626157 -0.079981
  17 0.000001 8.563452 -0.000001 -0.005323 0.001711 -0.000813
  18 0.000002 7.483447 -0.000002 0.033562 0.008824 0.015087
  19 0.119126 7.401337 -0.700705 -1.570796 0.000000 -0.000000
  20 -0.182471 0.858613 -0.214670 0.000000 -0.000000 -0.000000
  21 0.644811 -0.364825 -0.425434 -3.141593 -1.570796 0.000000
  22 0.000001 28.528532 -2.793939 -0.054701 0.209358 1.697962
  23 -0.000003 3.833359 -0.000001 -0.538931 -0.360684 1.583194
  24 0.000000 13.500028 0.000002 1.347693 0.153618 -0.195709
  25 -0.000003 11.928185 -0.000001 -0.069682 -0.550304 0.262708
  26 0.000001 3.538862 -0.000002 -2.328044 -0.043700 0.041269
  27 0.000001 13.500031 0.000003 1.635290 -0.000001 -0.000000
  28 0.000001 28.528532 -2.793939 -2.203902 0.238236 -0.149992
  29 0.768960 11.450797 -11.999104 0.000000 -0.000000 -1.570796
  30 -3.943042 -1.684323 -12.754833 0.000000 -0.000000 -1.570796
  31 9.997840 -4.320869 -21.035057 -0.734660 -0.320242 -1.060061
  32 0.626201 11.088490 -20.864038 0.091620 -0.039291 -1.569015
  33 7.233965 -6.096248 7.978458 0.000000 -0.000000 -1.570796
  34 9.525342 -5.271507 10.638044 0.000000 -0.000000 -1.570796
  35 -19.481180 3.984762 -9.069633 0.000000 -0.000000 1.570796
  36 -5.562320 7.512547 -9.069633 0.000000 -0.000000 1.570796
  time 12
  0 9.980915 0.513075 -30.723097 1.569592 -0.081375 0.990634
  1 0.000001 28.528526 -2.793942 -0.031887 -0.205759 -1.763296
  2 0.000002 3.833358 0.000000 -1.294576 -0.437884 -1.005909
  3 0.000001 13.500028 -0.000002 1.151150 -0.116157 0.183124
  4 -0.000002 11.928186 0.000004 0.731219 -0.027910 -0.059081
  5 0.000000 3.538863 -0.000000 -2.328044 0.043700 -0.041269
  6 0.000003 13.500028 -0.000002 1.635289 0.000001 0.000000
  7 0.000001 28.528526 -2.793942 -0.341969 -0.110795 0.011602
  8 0.000001 4.967566 -0.000001 -0.606027 0.151242 0.286666
  9 -0.000002 10.424909 -0.000001 -0.460431 -0.305796 -1.514973
  10 -0.000001 5.721373 0.000002 -1.166856 -0.112647 -0.528834
  11 0.000001 8.563451 0.000004 -0.005362 -0.001711 0.000819
  12 -0.000000 7.483450 -0.000000 -0.335271 0.381068 0.033500
  13 -0.000002 10.424909 -0.000001 0.140054 0.339362 0.488929
  14 -0.000000 3.096221 -0.000001 0.798091 -0.312995 -0.224066
  15 -0.000002 10.424909 -0.000001 -0.034908 0.012179 1.824239
  16 0.000002 5.721373 0.000003 -1.156299 0.523524 -0.033160
  17 -0.000002 8.563449 0.000001 -0.005326 0.001711 -0.000814
  18 0.000000 7.483443 -0.000005 0.033561 0.008824 0.015087
  19 0.119125 7.401337 -0.700705 -1.570796 -0.000000 -0.000000
  20 -0.182472 0.858614 -0.214672 0.000000 0.000000 -0.000000
  21 0.644811 -0.364825 -0.425435 3.141593 -1.570796 0.000000
  22 0.000001 28.528526 -2.793942 -0.054701 0.209358 1.697962
  23 -0.000001 3.833359 0.000001 -0.603816 -0.334600 1.577622
  24 -0.000003 13.500031 -0.000002 1.432776 0.170411 -0.198815
  25 0.000002 11.928188 0.000001 -0.097596 -0.584003 0.272254
  26 -0.000000 3.538862 -0.000000 -2.328044 -0.043700 0.041269
  27 -0.000003 13.500032 -0.000002 1.635290 -0.000001 0.000000
  28 0.000001 28.528526 -2.793942 -2.203833 0.239717 -0.149725
  29 0.232586 11.632810 -13.377591 0.000000 -0.000000 -1.570796
  30 -4.166812 -1.373733 -14.444598 0.000000 -0.000000 -1.570796
  31 9.997840 -4.320869 -21.035057 -0.766783 -0.341737 -1.031325
  32 0.626201 11.088490 -20.864038 0.089634 -0.023679 -1.569700
  33 7.396331 -5.463850 8.205376 0.000000 -0.000000 -1.570796
  34 9.525342 -5.271507 10.638044 0.000000 -0.000000 -1.570796
  35 -19.481180 4.531348 -9.069633 0.000000 -0.000000 1.570796
  36 -5.562320 6.625437 -9.069633 0.000000 -0.000000 1.570796
  time 13
  0 10.194307 0.441051 -30.811764 1.563281 -0.085494 0.991160
  1 0.000002 28.528532 -2.793942 -0.031887 -0.205759 -1.763296
  2 0.000001 3.833359 -0.000000 -1.302308 -0.412773 -1.024093
  3 -0.000001 13.500029 -0.000003 1.159341 -0.117667 0.183794
  4 0.000000 11.928190 0.000004 0.730029 -0.017590 -0.052085
  5 -0.000001 3.538864 0.000001 -2.328044 0.043700 -0.041268
  6 -0.000001 13.500029 -0.000003 1.635289 0.000001 -0.000000
  7 0.000002 28.528532 -2.793942 -0.352419 -0.103374 0.013636
  8 0.000001 4.967567 0.000000 -0.680164 0.115471 0.273512
  9 0.000001 10.424907 -0.000005 -0.500348 -0.320986 -1.498376
  10 -0.000001 5.721372 0.000001 -1.210849 -0.010384 -0.481086
  11 0.000003 8.563450 0.000003 -0.005369 -0.001712 0.000821
  12 0.000002 7.483446 -0.000001 -0.335271 0.381068 0.033499
  13 0.000001 10.424907 -0.000005 0.073310 0.380013 0.490908
  14 0.000000 3.096222 0.000001 0.711937 -0.292068 -0.212239
  15 0.000001 10.424907 -0.000005 -0.025421 0.008772 1.817426
  16 0.000001 5.721374 -0.000002 -1.150359 0.436420 0.011374
  17 -0.000001 8.563449 0.000000 -0.005355 0.001711 -0.000818
  18 0.000002 7.483445 -0.000003 0.033562 0.008824 0.015087
  19 0.119126 7.401336 -0.700706 -1.570796 0.000000 -0.000000
  20 -0.182472 0.858614 -0.214672 0.000000 -0.000000 -0.000000
  21 0.644811 -0.364825 -0.425436 -3.141593 -1.570796 0.000000
  22 0.000002 28.528532 -2.793942 -0.054701 0.209358 1.697962
  23 -0.000003 3.833359 0.000000 -0.618276 -0.336729 1.579987
  24 0.000000 13.500031 0.000003 1.448269 0.173489 -0.199224
  25 0.000001 11.928190 0.000002 -0.144231 -0.607986 0.299241
  26 0.000000 3.538863 0.000001 -2.328044 -0.043700 0.041268
  27 0.000001 13.500032 0.000003 1.635290 -0.000001 -0.000000
  28 0.000002 28.528532 -2.793942 -2.203628 0.244087 -0.148934
  29 -0.303790 11.814821 -14.756077 0.000000 -0.000000 -1.570796
  30 -4.390582 -1.063143 -16.134363 0.000000 -0.000000 -1.570796
  31 9.997840 -4.320869 -21.035057 -0.809880 -0.346749 -0.996921
  32 0.626201 11.088490 -20.864038 0.088614 -0.011225 -1.570271
  33 7.564000 -4.810792 8.439707 0.000000 -0.000000 -1.570796
  34 9.525342 -5.271507 10.638044 0.000000 -0.000000 -1.570796
  35 -19.481180 4.367584 -9.069633 0.000000 -0.000000 1.570796
  36 -5.562320 6.891224 -9.069633 0.000000 -0.000000 1.570796
  time 14
  0 11.688046 -0.063114 -31.432432 1.518966 -0.114227 0.995579
  1 -0.000002 28.528536 -2.793940 -0.031887 -0.205759 -1.763296
  2 0.000000 3.833359 -0.000000 -1.399769 -0.382887 -0.999017
  3 0.000000 13.500025 -0.000001 1.217883 -0.128604 0.188224
  4 0.000001 11.928186 0.000001 0.729584 -0.010754 -0.047462
  5 0.000001 3.538862 -0.000000 -2.328044 0.043700 -0.041269
  6 0.000001 13.500027 -0.000002 1.635289 0.000001 -0.000000
  7 -0.000002 28.528536 -2.793940 -0.362851 -0.095927 0.015592
  8 -0.000000 4.967565 -0.000000 -0.753601 0.078816 0.263093
  9 0.000001 10.424909 0.000000 -0.526275 -0.330419 -1.487319
  10 -0.000000 5.721373 0.000001 -1.256005 0.107543 -0.383133
  11 0.000002 8.563446 0.000004 -0.005346 -0.001712 0.000817
  12 0.000001 7.483441 -0.000001 -0.335271 0.381068 0.033500
  13 0.000001 10.424909 0.000000 -0.060166 0.459196 0.486173
  14 -0.000000 3.096222 -0.000001 0.391136 -0.205832 -0.185575
  15 0.000001 10.424909 0.000000 -0.017024 0.005817 1.811383
  16 0.000001 5.721370 0.000000 -1.154911 0.299316 0.079039
  17 -0.000002 8.563448 0.000000 -0.005344 0.001711 -0.000817
  18 0.000001 7.483444 -0.000004 0.033562 0.008824 0.015087
  19 0.119123 7.401335 -0.700706 -1.570796 0.000000 0.000000
  20 -0.182472 0.858615 -0.214674 0.000000 0.000000 -0.000000
  21 0.644811 -0.364824 -0.425436 3.141593 -1.570796 0.000000
  22 -0.000002 28.528536 -2.793940 -0.054700 0.209358 1.697962
  23 -0.000002 3.833360 -0.000000 -0.711992 -0.295592 1.599369
  24 -0.000006 13.500029 -0.000001 1.556186 0.195014 -0.200727
  25 0.000002 11.928187 0.000000 -0.214967 -0.618713 0.348216
  26 0.000001 3.538862 0.000001 -2.328044 -0.043700 0.041268
  27 -0.000005 13.500031 -0.000002 1.635290 -0.000001 0.000000
  28 -0.000002 28.528536 -2.793940 -2.203290 0.251127 -0.147657
  29 -0.840165 11.996833 -16.134563 0.000000 -0.000000 -1.570796
  30 -4.614352 -0.752553 -17.824127 0.000000 -0.000000 -1.570796
  31 9.997840 -4.320869 -21.035057 -0.865895 -0.330731 -0.956378
  32 0.626201 11.088490 -20.864038 0.088237 -0.002982 -1.570656
  33 7.735205 -4.143964 8.678980 0.000000 -0.000000 -1.570796
  34 9.525342 -5.271507 10.638044 0.000000 -0.000000 -1.570796
  35 -19.481180 4.641940 -9.069633 0.000000 -0.000000 1.570796
  36 -5.562320 6.445944 -9.069633 0.000000 -0.000000 1.570796
  time 15
  0 15.742480 -1.431562 -33.117104 1.397376 -0.190689 1.014081
  1 0.000001 28.528532 -2.793941 -0.031887 -0.205759 -1.763296
  2 -0.000001 3.833358 0.000001 -1.655322 -0.214764 -1.032586
  3 -0.000001 13.500031 -0.000003 1.378356 -0.159644 0.196995
  4 0.000005 11.928192 0.000002 0.729514 -0.008280 -0.045790
  5 0.000000 3.538862 0.000000 -2.328044 0.043700 -0.041269
  6 0.000002 13.500031 -0.000002 1.635289 0.000001 0.000000
  7 0.000000 28.528532 -2.793941 -0.373268 -0.088456 0.017469
  8 0.000001 4.967566 0.000001 -0.826285 0.041606 0.255433
  9 0.000000 10.424909 -0.000001 -0.535505 -0.333694 -1.483333
  10 0.000000 5.721373 0.000001 -1.249581 0.281016 -0.149367
  11 0.000001 8.563448 -0.000001 -0.005246 -0.001711 0.000802
  12 0.000001 7.483446 -0.000001 -0.335271 0.381068 0.033500
  13 0.000000 10.424909 -0.000001 -0.310217 0.593565 0.447133
  14 0.000000 3.096222 -0.000000 -0.410371 0.011283 -0.245787
  15 0.000000 10.424909 -0.000001 -0.009999 0.003388 1.806319
  16 0.000000 5.721373 -0.000001 -1.216822 0.060688 0.209097
  17 0.000000 8.563447 0.000000 -0.005232 0.001711 -0.000800
  18 0.000001 7.483446 -0.000001 0.033562 0.008824 0.015087
  19 0.119127 7.401337 -0.700704 -1.570796 -0.000000 -0.000000
  20 -0.182472 0.858615 -0.214674 0.000000 0.000000 -0.000000
  21 0.644811 -0.364825 -0.425435 -3.141593 -1.570796 0.000000
  22 0.000001 28.528532 -2.793941 -0.054701 0.209358 1.697962
  23 -0.000000 3.833356 0.000000 -0.957197 -0.178537 1.650400
  24 0.000000 13.500029 -0.000001 1.856350 0.253756 -0.192516
  25 0.000001 11.928183 0.000000 -0.587559 -0.490990 0.548842
  26 -0.000001 3.538861 0.000000 -2.328044 -0.043700 0.041269
  27 0.000001 13.500029 -0.000002 1.635290 -0.000001 -0.000000
  28 0.000000 28.528532 -2.793941 -2.202826 0.260484 -0.145952
  29 -1.376539 12.178845 -17.513050 0.000000 -0.000000 -1.570796
  30 -4.838122 -0.441962 -19.513893 0.000000 -0.000000 -1.570796
  31 9.997840 -4.320869 -21.035057 -1.148236 -0.128931 -0.886905
  32 0.626201 11.088490 -20.864038 0.088183 0.000000 -1.570796
  33 7.908177 -3.470247 8.920725 0.000000 -0.000000 -1.570796
  34 9.525342 -5.271507 10.638044 0.000000 -0.000000 -1.570796
  35 -19.481180 4.665335 -9.069633 0.000000 -0.000000 1.570796
  36 -5.562320 6.407974 -9.069633 0.000000 -0.000000 1.570796
  time 16
  0 14.094411 -0.927397 -28.677296 1.476903 -0.150772 0.999194
  1 0.000001 28.528530 -2.793937 -0.031887 -0.205759 -1.763296
  2 -0.000001 3.833358 -0.000002 -1.284765 -0.287475 -1.092072
  3 0.000001 13.500027 -0.000000 1.222579 -0.129491 0.188552
  4 -0.000000 11.928185 0.000003 0.844255 -0.008281 -0.045790
  5 0.000000 3.538861 0.000001 -2.328044 0.043700 -0.041269
  6 0.000001 13.500029 -0.000001 1.635289 0.000001 0.000000
  7 0.000001 28.528530 -2.793937 -0.192157 -0.079900 -0.011316
  8 -0.000000 4.967566 0.000000 -0.464333 0.017162 0.214916
  9 0.000001 10.424907 -0.000000 -0.392499 -0.264639 -1.582780
  10 -0.000002 5.721372 0.000003 0.120155 -0.414698 -1.004271
  11 -0.000001 8.563446 0.000006 -0.005373 -0.001712 0.000821
  12 -0.000001 7.483444 -0.000000 -0.335270 0.381068 0.033500
  13 0.000001 10.424907 -0.000000 -0.372740 0.501923 0.250011
  14 -0.000000 3.096223 0.000001 -0.009831 0.073522 -0.172951
  15 0.000001 10.424907 -0.000000 -0.004632 0.001559 1.802444
  16 0.000002 5.721370 -0.000000 0.563787 0.074603 1.393865
  17 -0.000001 8.563449 -0.000002 -0.005414 0.001711 -0.000827
  18 -0.000001 7.483443 0.000001 0.033562 0.008824 0.015087
  19 0.119125 7.401337 -0.700705 -1.570796 0.000000 0.000000
  20 -0.182472 0.858614 -0.214673 0.000000 -0.000000 -0.000000
  21 0.644811 -0.364824 -0.425436 -3.141593 -1.570796 0.000000
  22 0.000001 28.528530 -2.793937 -0.054701 0.209358 1.697962
  23 0.000003 3.833359 -0.000000 -0.782309 -0.444798 1.606030
  24 -0.000005 13.500027 -0.000002 1.339574 0.152029 -0.195337
  25 -0.000001 11.928189 -0.000001 -0.272728 -0.297659 0.382816
  26 -0.000001 3.538861 0.000000 -2.328044 -0.043700 0.041269
  27 -0.000004 13.500027 -0.000001 1.635290 -0.000001 0.000000
  28 0.000001 28.528530 -2.793937 -2.202245 0.271687 -0.143898
  29 19.864893 11.041241 4.490700 0.000000 -0.000000 -1.570796
  30 15.837405 -14.340569 2.920780 0.000000 -0.000000 -1.570796
  31 9.997840 -4.320869 -21.035057 -0.876271 -0.051875 -1.122057
  32 4.468992 10.294112 -19.176733 0.202924 0.000000 -1.570796
  33 8.081151 -2.796531 9.162466 0.000000 -0.000000 -1.570796
  34 9.525342 -5.271507 10.638044 0.000000 -0.000000 -1.570796
  35 -16.800417 -0.563218 -9.069633 0.000000 -0.000000 1.570796
  36 -5.567544 7.989722 -9.069633 0.000000 -0.000000 1.570796
  time 17
  0 10.903067 0.008910 -24.047972 1.621813 -0.066200 0.982399
  1 0.000000 28.528532 -2.793938 -0.031887 -0.205759 -1.763296
  2 0.000001 3.833358 -0.000002 -0.613793 -0.241666 -1.179154
  3 0.000001 13.500029 -0.000005 0.946388 -0.080462 0.162492
  4 0.000002 11.928189 -0.000001 0.959073 -0.008281 -0.045790
  5 0.000000 3.538864 -0.000002 -2.328044 0.043700 -0.041269
  6 0.000001 13.500029 -0.000006 1.635290 0.000001 -0.000000
  7 0.000000 28.528532 -2.793938 -0.009887 -0.066179 -0.038291
  8 -0.000000 4.967569 -0.000000 -0.071028 0.008722 0.164344
  9 0.000001 10.424909 0.000000 -0.142639 -0.102324 -1.735983
  10 0.000003 5.721373 0.000001 0.262927 -0.121846 -0.843244
  11 -0.000008 8.563439 -0.000000 -0.005355 -0.001712 0.000819
  12 0.000004 7.483446 0.000000 -0.335270 0.381068 0.033500
  13 0.000001 10.424909 0.000000 -0.412003 0.401308 0.067402
  14 -0.000000 3.096220 -0.000001 0.426178 0.102845 -0.074015
  15 0.000001 10.424909 0.000000 -0.001205 0.000404 1.799967
  16 -0.000004 5.721374 -0.000000 1.279760 -0.546834 0.385398
  17 -0.000003 8.563446 0.000001 -0.005413 0.001711 -0.000827
  18 -0.000002 7.483449 -0.000001 0.033562 0.008824 0.015087
  19 0.119127 7.401336 -0.700706 -1.570796 -0.000000 -0.000000
  20 -0.182472 0.858614 -0.214674 0.000000 0.000000 -0.000000
  21 0.644811 -0.364824 -0.425436 -3.141593 -1.570796 0.000000
  22 0.000000 28.528532 -2.793938 -0.054701 0.209358 1.697962
  23 0.000001 3.833359 0.000001 -0.242462 -0.970581 1.525887
  24 -0.000005 13.500025 0.000002 0.340956 0.008615 -0.066727
  25 0.000001 11.928191 -0.000000 0.211596 0.006961 0.183793
  26 0.000000 3.538863 0.000001 -2.328044 -0.043700 0.041268
  27 -0.000004 13.500030 0.000001 1.635290 -0.000001 0.000000
  28 0.000000 28.528532 -2.793938 -2.201569 0.284174 -0.141593
  29 23.176878 11.037430 6.252117 0.000000 -0.000000 -1.570796
  30 21.305796 -15.284724 5.440084 0.000000 -0.000000 -1.570796
  31 9.997840 -4.320869 -21.035057 -0.426241 0.081394 -1.459226
  32 13.210447 8.575564 -17.489428 0.317742 0.000000 -1.570796
  33 8.252356 -2.129701 9.401739 0.000000 -0.000000 -1.570796
  34 9.525342 -5.271507 10.638044 0.000000 -0.000000 -1.570796
  35 -11.821860 -10.273387 -9.069633 0.000000 -0.000000 1.570796
  36 -5.604112 10.927254 -9.069633 0.000000 -0.000000 1.570796
  time 18
  0 9.036990 0.513075 -25.234341 1.692985 -0.000000 0.985604
  1 0.000002 28.528534 -2.793941 -0.031887 -0.205759 -1.763296
  2 0.000000 3.833359 -0.000003 0.136811 -0.164188 -1.098002
  3 0.000006 13.500031 -0.000002 0.005522 0.002874 0.001101
  4 0.000006 11.928189 0.000001 0.610095 -0.008281 -0.045790
  5 0.000002 3.538862 0.000001 -2.328044 0.043700 -0.041268
  6 0.000006 13.500031 -0.000002 1.635290 0.000001 0.000000
  7 0.000002 28.528534 -2.793941 0.170403 -0.047972 -0.062138
  8 0.000001 4.967565 0.000001 0.324415 0.020428 0.114134
  9 -0.000000 10.424910 -0.000000 -0.000000 -0.000000 -1.799097
  10 0.000004 5.721371 -0.000002 0.612473 -0.167552 -0.356290
  11 0.000003 8.563446 -0.000005 -0.549861 0.020850 0.079952
  12 -0.000001 7.483444 0.000000 -0.335271 0.381068 0.033500
  13 -0.000000 10.424910 -0.000000 -0.430034 0.297486 -0.101993
  14 0.000000 3.096222 -0.000000 0.854301 0.088466 0.026161
  15 -0.000000 10.424910 -0.000000 0.000000 -0.000000 1.799097
  16 0.000002 5.721373 -0.000000 1.713291 -0.058998 0.134153
  17 -0.000002 8.563444 -0.000004 -0.324989 -0.006291 -0.048819
  18 0.000001 7.483444 0.000001 0.033562 0.008824 0.015087
  19 0.119125 7.401336 -0.700705 -1.570796 0.000000 0.000000
  20 -0.182472 0.858614 -0.214673 0.000000 -0.000000 0.000000
  21 0.644811 -0.364824 -0.425436 3.141593 -1.570796 0.000000
  22 0.000002 28.528534 -2.793941 -0.054701 0.209358 1.697962
  23 -0.000002 3.833358 -0.000000 -0.317581 -1.249031 1.502918
  24 -0.000004 13.500023 0.000001 0.624534 0.034890 -0.116861
  25 -0.000003 11.928186 0.000001 0.436308 0.180642 0.124644
  26 -0.000000 3.538862 0.000001 -2.328044 -0.043700 0.041269
  27 -0.000004 13.500023 0.000001 1.635290 -0.000001 0.000000
  28 0.000002 28.528534 -2.793941 -2.200821 0.297317 -0.139148
  29 26.488861 11.033618 8.013535 0.000000 -0.000000 -1.570796
  30 22.086994 -15.419602 5.799988 0.000000 -0.000000 -1.570796
  31 9.997841 -4.320869 -21.035057 -0.216316 0.184862 -1.612040
  32 19.861698 7.355457 -21.282787 -0.031236 0.000000 -1.570796
  33 8.420024 -1.476646 9.636068 0.000000 -0.000000 -1.570796
  34 9.525342 -5.271507 10.638044 0.000000 -0.000000 -1.570796
  35 -9.141099 -15.501939 -9.069633 0.000000 -0.000000 1.570796
  36 -5.703372 12.509001 -9.069633 0.000000 -0.000000 1.570796
  time 19
  0 8.750949 0.513075 -26.486790 1.682017 0.010510 1.124828
  1 0.000001 28.528526 -2.793941 -0.031887 -0.205759 -1.763296
  2 -0.000002 3.833359 0.000001 0.000847 -0.029987 -1.147464
  3 0.000006 13.500032 -0.000003 0.474683 -0.019216 0.091265
  4 0.000001 11.928189 0.000000 0.362973 -0.008281 -0.045790
  5 0.000002 3.538861 -0.000001 -2.328044 0.043700 -0.041268
  6 0.000006 13.500034 -0.000003 1.635290 0.000001 0.000000
  7 0.000001 28.528526 -2.793941 0.147689 -0.012586 -0.055275
  8 -0.000000 4.967568 -0.000001 0.691925 0.047972 0.074750
  9 0.000000 10.424911 -0.000001 0.035171 0.004329 -1.796297
  10 0.000004 5.721371 -0.000001 1.226304 0.030074 -0.540584
  11 0.000001 8.563449 -0.000002 -1.576774 0.152657 0.153434
  12 0.000001 7.483445 0.000001 -0.335271 0.381068 0.033500
  13 0.000000 10.424911 -0.000001 -0.248750 0.448492 0.058051
  14 0.000000 3.096222 0.000000 0.662749 0.138952 0.255726
  15 0.000000 10.424911 -0.000001 -0.003146 0.001057 1.801371
  16 -0.000008 5.721374 0.000002 2.037655 0.118286 0.086172
  17 0.000001 8.563453 0.000001 -1.357930 -0.119378 -0.149947
  18 -0.000000 7.483446 -0.000001 0.033562 0.008824 0.015087
  19 0.119125 7.401339 -0.700706 -1.570796 -0.000000 0.000000
  20 -0.182472 0.858615 -0.214676 0.000000 0.000000 -0.000000
  21 0.644811 -0.364823 -0.425433 -3.141593 -1.570796 0.000000
  22 0.000001 28.528526 -2.793941 -0.054701 0.209358 1.697962
  23 -0.000001 3.833359 -0.000002 -0.404014 -1.058996 1.497000
  24 -0.000001 13.500031 0.000000 0.857710 0.066458 -0.151396
  25 -0.000001 11.928190 0.000001 0.339956 0.186015 0.101533
  26 0.000001 3.538863 0.000002 -2.328044 -0.043700 0.041268
  27 -0.000002 13.500033 -0.000000 1.635290 -0.000001 0.000000
  28 0.000001 28.528526 -2.793941 -2.197118 0.283999 -0.118870
  29 21.327869 9.876896 4.208441 0.000000 -0.000000 -1.570796
  30 21.541065 -13.667233 3.455582 0.000000 -0.000000 -1.570796
  31 10.569931 -4.320869 -21.034922 -0.312335 0.175334 -1.633709
  32 19.861698 7.355457 -21.282787 -0.278358 -0.000000 -1.570796
  33 8.582389 -0.844247 9.862989 0.000000 -0.000000 -1.570796
  34 9.525342 -5.271507 10.638044 0.000000 -0.000000 -1.570796
  35 -9.381926 -14.493213 -9.069633 0.000000 -0.000000 1.570796
  36 -6.140840 12.506787 -9.069633 0.000000 -0.000000 1.570796
  time 20
  0 8.615425 0.513075 -27.436550 1.662458 -0.005184 1.374002
  1 0.000004 28.528530 -2.793939 -0.031887 -0.205759 -1.763296
  2 -0.000000 3.833359 0.000001 0.092660 0.225319 -1.152130
  3 0.000005 13.500028 -0.000000 0.511172 -0.022673 0.097704
  4 0.000001 11.928185 0.000000 0.324078 -0.008281 -0.045790
  5 0.000002 3.538861 -0.000002 -2.328044 0.043700 -0.041269
  6 0.000004 13.500029 -0.000001 1.635290 0.000001 0.000000
  7 0.000003 28.528530 -2.793939 0.124854 0.023518 -0.049125
  8 0.000000 4.967566 -0.000000 0.664781 0.050645 0.076275
  9 0.000000 10.424910 -0.000000 0.063998 0.007631 -1.788658
  10 0.000003 5.721374 0.000003 1.302912 0.245677 -0.872456
  11 -0.000001 8.563440 -0.000001 -1.391083 0.124367 0.150946
  12 -0.000002 7.483442 0.000002 -0.335271 0.381068 0.033500
  13 0.000000 10.424910 -0.000000 -0.024754 0.567900 0.262343
  14 -0.000001 3.096220 0.000001 0.479720 0.234313 0.481562
  15 0.000000 10.424910 -0.000000 -0.011763 0.003994 1.807591
  16 -0.000003 5.721374 0.000002 1.634079 -0.250108 0.283325
  17 -0.000002 8.563448 -0.000003 -1.080834 -0.079530 -0.135267
  18 -0.000001 7.483446 -0.000002 0.033562 0.008824 0.015087
  19 0.119124 7.401337 -0.700705 -1.570796 -0.000000 0.000000
  20 -0.182472 0.858614 -0.214674 0.000000 0.000000 0.000000
  21 0.644811 -0.364825 -0.425437 -3.141593 -1.570796 0.000000
  22 0.000004 28.528530 -2.793939 -0.054701 0.209358 1.697962
  23 0.000001 3.833359 0.000001 -0.429126 -0.677098 1.481660
  24 -0.000001 13.500023 -0.000002 1.002953 0.089890 -0.168912
  25 0.000001 11.928187 -0.000002 0.161255 0.178908 0.075025
  26 0.000001 3.538862 0.000000 -2.328044 -0.043700 0.041268
  27 -0.000001 13.500027 -0.000001 1.635290 -0.000001 -0.000000
  28 0.000003 28.528530 -2.793939 -2.188158 0.245610 -0.061647
  29 16.166878 8.720174 0.403347 0.000000 -0.000000 -1.570796
  30 19.235226 -10.412836 -0.898312 0.000000 -0.000000 -1.570796
  31 11.632385 -4.320869 -21.033970 -0.488955 0.153879 -1.650359
  32 19.861698 7.355457 -21.282787 -0.317253 -0.000000 -1.570796
  33 8.737681 -0.239395 10.080023 0.000000 -0.000000 -1.570796
  34 9.525342 -5.271507 10.638044 0.000000 -0.000000 -1.570796
  35 -10.042265 -12.109607 -9.069633 0.000000 -0.000000 1.570796
  36 -7.092991 12.491296 -9.069633 0.000000 -0.000000 1.570796
  time 21
  0 8.427389 0.513075 -28.777128 1.630263 -0.015932 1.508031
  1 0.000004 28.528524 -2.793940 -0.031887 -0.205759 -1.763296
  2 -0.000000 3.833359 0.000002 -0.684619 0.283621 -1.350939
  3 -0.000000 13.500031 -0.000003 1.511566 -0.186105 0.200392
  4 0.000001 11.928187 0.000001 0.455150 -0.008281 -0.045790
  5 0.000001 3.538862 -0.000000 -2.328044 0.043700 -0.041269
  6 0.000000 13.500030 -0.000004 1.635290 0.000001 -0.000000
  7 0.000004 28.528524 -2.793940 0.101864 0.060304 -0.043718
  8 0.000000 4.967568 0.000000 0.636849 0.053438 0.077767
  9 0.000001 10.424908 -0.000000 0.087130 0.009891 -1.777301
  10 -0.000000 5.721372 -0.000000 0.837506 0.314964 -1.092286
  11 0.000002 8.563450 -0.000003 -0.638618 0.028468 0.091230
  12 0.000003 7.483445 -0.000001 -0.335271 0.381068 0.033500
  13 0.000001 10.424908 -0.000000 0.234314 0.639755 0.503084
  14 0.000001 3.096223 -0.000001 0.320566 0.363562 0.689243
  15 0.000001 10.424908 -0.000000 -0.024609 0.008483 1.816842
  16 0.000002 5.721373 -0.000001 1.188989 -0.434125 0.643151
  17 -0.000003 8.563453 -0.000004 -0.891295 -0.055269 -0.119171
  18 -0.000001 7.483447 0.000002 0.033562 0.008824 0.015087
  19 0.119126 7.401337 -0.700705 -1.570796 -0.000000 -0.000000
  20 -0.182472 0.858614 -0.214674 0.000000 0.000000 0.000000
  21 0.644811 -0.364824 -0.425439 3.141593 -1.570796 0.000000
  22 0.000004 28.528524 -2.793940 -0.054701 0.209358 1.697962
  23 0.000000 3.833358 -0.000001 -0.459544 -0.399610 1.483660
  24 -0.000004 13.500032 -0.000001 1.167868 0.119244 -0.184479
  25 0.000000 11.928189 0.000001 0.065240 0.162764 0.059689
  26 -0.000000 3.538861 -0.000001 -2.328044 -0.043700 0.041269
  27 -0.000005 13.500034 -0.000001 1.635290 -0.000002 0.000000
  28 0.000004 28.528524 -2.793940 -2.179079 0.187264 0.022634
  29 11.005887 7.563452 -3.401747 0.000000 -0.000000 -1.570796
  30 14.167402 -8.660467 -3.242716 0.000000 -0.000000 -1.570796
  31 12.204476 -4.320869 -21.031385 -0.582691 0.131883 -1.652663
  32 10.808887 6.695305 -18.481724 -0.186181 -0.000000 -1.570796
  33 8.884134 0.331024 10.284704 0.000000 -0.000000 -1.570796
  34 9.525342 -5.271507 10.638044 0.000000 -0.000000 -1.570796
  35 -11.028884 -9.314986 -9.069633 0.000000 -0.000000 1.570796
  36 -8.442602 10.603239 -9.069633 0.000000 -0.000000 1.570796
  time 22
  0 7.695986 0.513075 -29.986938 1.593287 -0.017771 1.509099
  1 -0.000000 28.528530 -2.793941 -0.031887 -0.205759 -1.763296
  2 -0.000005 3.833359 0.000000 -1.070897 0.201311 -1.479238
  3 0.000000 13.500025 -0.000003 1.406960 -0.165293 0.198025
  4 0.000003 11.928189 -0.000000 0.426939 -0.008281 -0.045790
  5 0.000000 3.538862 0.000001 -2.328044 0.043700 -0.041268
  6 0.000000 13.500027 -0.000003 1.635290 0.000001 0.000000
  7 -0.000000 28.528530 -2.793942 -0.084721 0.170285 0.047023
  8 -0.000000 4.967565 0.000000 0.406671 0.047579 0.016144
  9 0.000002 10.424906 0.000002 0.105202 0.011201 -1.763324
  10 -0.000000 5.721375 0.000001 0.847698 -0.106639 -1.286251
  11 -0.000003 8.563437 -0.000000 -1.107957 0.083236 0.137186
  12 0.000001 7.483440 0.000004 -0.335271 0.381068 0.033500
  13 0.000002 10.424906 0.000002 0.159052 0.428390 0.363047
  14 0.000001 3.096223 -0.000000 -0.054343 0.392347 0.241737
  15 0.000002 10.424906 0.000002 -0.040440 0.014199 1.828204
  16 0.000006 5.721369 0.000001 0.606590 0.199393 1.115100
  17 0.000001 8.563442 -0.000002 -1.065189 -0.077417 -0.134115
  18 0.000000 7.483446 0.000001 0.033562 0.008824 0.015087
  19 0.119125 7.401335 -0.700705 -1.570796 -0.000000 0.000000
  20 -0.182472 0.858614 -0.214673 0.000000 0.000000 -0.000000
  21 0.644811 -0.364824 -0.425438 -3.141593 -1.570796 0.000000
  22 -0.000000 28.528530 -2.793941 -0.054701 0.209358 1.697962
  23 0.000003 3.833358 -0.000000 -0.840345 -0.259697 1.541845
  24 -0.000002 13.500024 -0.000003 1.680759 0.219773 -0.199520
  25 -0.000005 11.928180 0.000003 0.352404 0.134832 0.087535
  26 0.000000 3.538860 -0.000000 -2.328044 -0.043700 0.041269
  27 -0.000002 13.500027 -0.000003 1.635290 -0.000002 -0.000000
  28 -0.000000 28.528530 -2.793941 -2.174871 0.117946 0.120171
  29 7.810801 8.386690 -0.606810 0.000000 -0.000000 -1.570796
  30 6.171974 -9.331668 -1.459288 0.000000 -0.000000 -1.570796
  31 7.530045 -4.320869 -18.414391 -0.294619 0.126216 -1.613526
  32 1.756078 6.035153 -20.703728 -0.214392 -0.000000 -1.570796
  33 9.019979 0.860128 10.474554 0.000000 -0.000000 -1.570796
  34 9.525342 -5.271507 10.638044 0.000000 -0.000000 -1.570796
  35 -12.248565 -7.073222 -9.069633 0.000000 -0.000000 1.570796
  36 -10.072450 8.728460 -9.069633 0.000000 -0.000000 1.570796
  time 23
  0 6.171247 0.513075 -30.374182 1.562337 -0.019906 1.509456
  1 -0.000004 28.528530 -2.793941 -0.031887 -0.205759 -1.763296
  2 0.000001 3.833358 0.000000 -1.020246 0.214492 -1.464050
  3 -0.000003 13.500027 -0.000007 1.497638 -0.183326 0.200205
  4 0.000002 11.928188 -0.000001 0.324656 -0.008281 -0.045790
  5 0.000001 3.538863 0.000000 -2.328044 0.043700 -0.041269
  6 -0.000003 13.500027 -0.000008 1.635290 0.000001 0.000000
  7 -0.000004 28.528530 -2.793941 -0.265672 0.294997 0.117528
  8 -0.000000 4.967565 -0.000000 0.169312 0.026916 -0.044471
  9 -0.000000 10.424905 0.000000 0.118835 0.011723 -1.747801
  10 -0.000001 5.721373 0.000000 1.021081 -0.568976 -1.381970
  11 -0.000006 8.563451 0.000000 -1.295528 0.110083 0.147617
  12 -0.000000 7.483449 0.000002 -0.335271 0.381069 0.033500
  13 -0.000000 10.424905 0.000000 0.119320 0.208956 0.248264
  14 -0.000000 3.096221 -0.000000 -0.409805 0.264767 -0.191113
  15 -0.000000 10.424905 0.000000 -0.058016 0.020784 1.840765
  16 -0.000005 5.721372 0.000001 0.197348 0.689543 0.588522
  17 0.000001 8.563444 -0.000001 -1.714851 -0.173649 -0.151835
  18 0.000000 7.483442 0.000001 0.033562 0.008824 0.015087
  19 0.119128 7.401338 -0.700705 -1.570796 0.000000 0.000000
  20 -0.182472 0.858615 -0.214674 0.000000 0.000000 -0.000000
  21 0.644811 -0.364824 -0.425437 -3.141593 -1.570796 0.000000
  22 -0.000004 28.528530 -2.793941 -0.054701 0.209358 1.697962
  23 -0.000001 3.833359 0.000000 -1.180989 -0.163545 1.550080
  24 -0.000001 13.500025 -0.000001 1.569719 0.197714 -0.200750
  25 0.000001 11.928185 -0.000004 0.555781 0.101600 0.096391
  26 -0.000001 3.538861 -0.000001 -2.328044 -0.043700 0.041269
  27 -0.000001 13.500028 -0.000002 1.635290 -0.000001 -0.000000
  28 -0.000004 28.528530 -2.793941 -2.174861 0.117950 0.120243
  29 4.615715 9.209928 2.188126 0.000000 -0.000000 -1.570796
  30 -1.570844 -10.578183 1.852793 0.000000 -0.000000 -1.570796
  31 -1.151043 -4.320868 -19.717428 -0.089147 0.104973 -1.586316
  32 1.756078 6.035153 -20.703728 -0.316675 0.000000 -1.570796
  33 9.143446 1.341026 10.647112 0.000000 -0.000000 -1.570796
  34 9.525342 -5.271507 10.638044 0.000000 -0.000000 -1.570796
  35 -13.608081 -5.689672 -9.069633 0.000000 -0.000000 1.570796
  36 -11.865307 8.844569 -9.069633 0.000000 -0.000000 1.570796
  time 24
  0 4.536057 0.513075 -27.824986 1.549194 -0.020969 1.509527
  1 0.000003 28.528526 -2.793942 -0.031887 -0.205759 -1.763296
  2 0.000001 3.833359 -0.000000 -0.788994 0.245404 -1.441704
  3 0.000001 13.500029 -0.000006 1.202483 -0.125702 0.187121
  4 0.000002 11.928190 -0.000004 0.257198 -0.008281 -0.045790
  5 0.000000 3.538862 -0.000000 -2.328044 0.043700 -0.041269
  6 0.000001 13.500029 -0.000006 1.635290 0.000001 0.000000
  7 0.000002 28.528524 -2.793943 -0.440719 0.426136 0.164768
  8 -0.000001 4.967566 0.000000 -0.067633 -0.007593 -0.098797
  9 0.000000 10.424905 -0.000001 0.128649 0.011653 -1.731792
  10 0.000003 5.721373 0.000001 0.662538 -0.491209 -1.236431
  11 0.000001 8.563450 -0.000001 -0.842991 0.049609 0.114362
  12 -0.000000 7.483446 0.000001 -0.335271 0.381068 0.033500
  13 0.000000 10.424905 -0.000001 0.105663 -0.008368 0.146897
  14 0.000000 3.096222 0.000001 -0.657095 0.039967 -0.520819
  15 0.000000 10.424905 -0.000001 -0.076113 0.027826 1.853638
  16 0.000001 5.721373 -0.000001 0.082200 0.666068 0.265152
  17 0.000000 8.563440 0.000004 -2.050338 -0.221780 -0.136016
  18 0.000001 7.483443 0.000001 0.033562 0.008824 0.015087
  19 0.119123 7.401335 -0.700707 -1.570796 0.000000 0.000000
  20 -0.182471 0.858614 -0.214673 0.000000 0.000000 -0.000000
  21 0.644812 -0.364826 -0.425432 -3.141593 -1.570796 0.000000
  22 0.000003 28.528526 -2.793942 -0.054701 0.209358 1.697962
  23 0.000000 3.833359 -0.000000 -1.014538 -0.144976 1.508508
  24 -0.000003 13.500028 0.000002 1.023405 0.093387 -0.171101
  25 -0.000003 11.928185 0.000001 0.586557 0.079020 0.086535
  26 0.000000 3.538860 0.000001 -2.328044 -0.043700 0.041268
  27 -0.000003 13.500027 0.000001 1.635290 -0.000001 0.000000
  28 0.000003 28.528526 -2.793942 -2.174829 0.117960 0.120452
  29 1.420628 10.033166 4.983063 0.000000 -0.000000 -1.570796
  30 -5.044377 -11.249383 3.636219 0.000000 -0.000000 -1.570796
  31 -5.825470 -4.320868 -21.020466 -0.056950 0.081024 -1.580581
  32 1.756078 6.035153 -20.703728 -0.384132 0.000000 -1.570796
  33 9.252769 1.766832 10.799902 0.000000 -0.000000 -1.570796
  34 13.645201 -15.611449 10.782251 0.000000 -0.000000 -1.570796
  35 -15.014209 -4.764864 -9.069633 0.000000 -0.000000 1.570796
  36 -13.703954 9.134841 -9.069633 0.000000 -0.000000 1.570796
  time 25
  0 3.268123 0.513425 -26.798248 1.571342 -0.018381 1.496203
  1 -0.000001 28.528532 -2.793944 -0.031887 -0.205759 -1.763296
  2 0.000000 3.833359 0.000000 -0.658806 0.239098 -1.421891
  3 0.000001 13.500028 -0.000004 1.037344 -0.095795 0.172553
  4 0.000001 11.928185 -0.000003 0.259724 -0.003342 -0.060988
  5 0.000001 3.538861 -0.000001 -2.328044 0.043700 -0.041269
  6 0.000001 13.500028 -0.000004 1.635290 0.000001 -0.000000
  7 -0.000001 28.528530 -2.793945 -0.374876 0.344301 0.139678
  8 -0.000000 4.967566 0.000000 -0.297114 -0.052632 -0.142635
  9 -0.000001 10.424909 -0.000000 0.135263 0.011200 -1.716348
  10 0.000002 5.721372 -0.000000 0.484201 -0.565169 -1.163729
  11 -0.000000 8.563450 0.000002 -0.861150 0.051709 0.116201
  12 0.000001 7.483448 -0.000000 -0.335271 0.381068 0.033500
  13 -0.000001 10.424909 -0.000000 -0.369612 -0.003609 0.007705
  14 0.000000 3.096223 0.000002 0.791706 0.299533 -0.202244
  15 -0.000001 10.424909 -0.000000 -0.093523 0.034853 1.865962
  16 -0.000007 5.721373 -0.000002 0.246840 0.683998 0.454082
  17 0.000000 8.563446 -0.000000 -1.823858 -0.189888 -0.148513
  18 -0.000000 7.483444 0.000000 0.033562 0.008824 0.015087
  19 0.119125 7.401340 -0.700705 -1.570796 -0.000000 0.000000
  20 -0.182472 0.858615 -0.214675 0.000000 -0.000000 0.000000
  21 0.644811 -0.364823 -0.425439 -3.141593 -1.570796 0.000000
  22 -0.000001 28.528532 -2.793944 -0.054701 0.209358 1.697962
  23 -0.000001 3.833358 -0.000000 -0.933628 -0.123887 1.488028
  24 0.000002 13.500033 0.000001 1.009307 0.090972 -0.169600
  25 -0.000002 11.928187 0.000003 0.583798 0.062282 0.077149
  26 -0.000000 3.538863 0.000002 -2.328044 -0.043700 0.041268
  27 0.000002 13.500035 0.000002 1.635290 -0.000001 -0.000000
  28 -0.000001 28.528532 -2.793944 -2.174779 0.117976 0.120785
  29 1.093130 10.144311 4.992403 0.000000 -0.000000 -1.570796
  30 -4.964720 -10.736910 3.136433 0.000000 -0.000000 -1.570796
  31 -5.569826 -4.320868 -20.273151 -0.058864 0.062015 -1.578029
  32 1.756078 6.035153 -20.771858 -0.381656 -0.005135 -1.585929
  33 9.346181 2.130663 10.930452 0.000000 -0.000000 -1.570796
  34 13.216737 -13.069035 10.900805 0.000000 -0.000000 -1.570796
  35 -16.373724 -4.205400 -9.069633 0.000000 -0.000000 1.570796
  36 -15.471163 9.512195 -9.069633 0.000000 -0.000000 1.570796
  time 26
  0 2.522468 0.515870 -26.259394 1.620624 -0.009498 1.467268
  1 0.000001 28.528534 -2.793942 -0.031887 -0.205759 -1.763296
  2 -0.000000 3.833358 0.000000 -0.584595 0.199777 -1.408014
  3 -0.000002 13.500025 -0.000004 0.921993 -0.076512 0.159563
  4 0.000002 11.928188 0.000001 0.276717 0.007943 -0.094298
  5 0.000001 3.538863 -0.000000 -2.328044 0.043700 -0.041269
  6 -0.000002 13.500026 -0.000004 1.635290 0.000001 -0.000000
  7 0.000000 28.528532 -2.793943 -0.308177 0.263695 0.109502
  8 0.000000 4.967567 0.000001 -0.513853 -0.103560 -0.173856
  9 -0.000001 10.424908 -0.000000 0.139303 0.010565 -1.702515
  10 0.000001 5.721373 0.000000 0.416622 -0.687038 -1.010147
  11 -0.000001 8.563449 -0.000003 -1.251919 0.103678 0.145645
  12 0.000001 7.483448 -0.000000 -0.335271 0.381068 0.033500
  13 -0.000001 10.424908 -0.000000 -0.278436 0.054009 0.017669
  14 0.000000 3.096221 -0.000001 0.574315 0.147705 -0.215886
  15 -0.000001 10.424908 -0.000000 -0.109066 0.041336 1.876911
  16 -0.000002 5.721375 -0.000001 0.125497 0.615428 0.539891
  17 0.000001 8.563453 -0.000000 -1.516260 -0.143405 -0.153207
  18 0.000000 7.483448 -0.000000 0.033562 0.008824 0.015087
  19 0.119127 7.401336 -0.700705 -1.570796 -0.000000 0.000000
  20 -0.182472 0.858615 -0.214675 0.000000 0.000000 -0.000000
  21 0.644811 -0.364824 -0.425436 -3.141593 -1.570796 0.000000
  22 0.000001 28.528534 -2.793942 -0.054701 0.209358 1.697962
  23 -0.000002 3.833359 0.000000 -0.851891 -0.139943 1.488792
  24 -0.000001 13.500031 0.000000 1.059200 0.099611 -0.174761
  25 0.000000 11.928187 0.000001 0.568497 0.037906 0.063563
  26 0.000000 3.538864 -0.000000 -2.328044 -0.043700 0.041268
  27 -0.000002 13.500031 0.000000 1.635290 -0.000001 0.000000
  28 0.000001 28.528534 -2.793942 -2.174714 0.117998 0.121220
  29 0.765632 10.255458 5.001747 0.000000 -0.000000 -1.570796
  30 -4.533651 -9.609475 2.036905 0.000000 -0.000000 -1.570796
  31 -3.780318 -4.320868 -19.525837 -0.073304 0.034368 -1.574290
  32 1.756078 6.035153 -20.921743 -0.364233 -0.016017 -1.619374
  33 9.421912 2.425627 11.036291 0.000000 -0.000000 -1.570796
  34 12.195012 -7.006335 10.937548 0.000000 -0.000000 -1.570796
  35 -17.593401 -3.917886 -9.069633 0.000000 -0.000000 1.570796
  36 -17.049711 9.889546 -9.069633 0.000000 -0.000000 1.570796
  time 27
  0 2.042203 0.522507 -26.035625 1.669735 0.005953 1.439201
  1 0.000003 28.528530 -2.793941 -0.031887 -0.205759 -1.763296
  2 -0.000002 3.833359 0.000000 -0.548028 0.156496 -1.399971
  3 -0.000001 13.500038 -0.000003 0.862753 -0.067227 0.152060
  4 0.000004 11.928197 -0.000002 0.322593 0.020989 -0.127030
  5 0.000001 3.538863 -0.000001 -2.328044 0.043700 -0.041269
  6 0.000001 13.500039 -0.000003 1.635290 0.000001 -0.000000
  7 0.000002 28.528530 -2.793941 -0.240270 0.185241 0.074492
  8 0.000000 4.967566 0.000000 -0.380884 -0.084371 -0.085189
  9 0.000000 10.424907 -0.000001 0.141401 0.009928 -1.691339
  10 -0.000002 5.721373 0.000002 0.149886 -0.971724 -0.774218
  11 -0.000002 8.563450 -0.000000 -1.322588 0.114096 0.148699
  12 0.000001 7.483443 0.000000 -0.335271 0.381069 0.033500
  13 0.000000 10.424907 -0.000001 -0.186913 0.110081 0.032787
  14 0.000000 3.096222 0.000000 0.364715 -0.001139 -0.196996
  15 0.000000 10.424907 -0.000001 -0.121584 0.046702 1.885692
  16 0.000004 5.721370 0.000001 -0.025424 0.626996 0.649198
  17 0.000001 8.563448 0.000003 -1.002375 -0.069120 -0.129162
  18 -0.000001 7.483448 0.000003 0.033562 0.008824 0.015087
  19 0.119126 7.401334 -0.700706 -1.570796 -0.000000 -0.000000
  20 -0.182472 0.858614 -0.214671 0.000000 -0.000000 -0.000000
  21 0.644811 -0.364824 -0.425436 -3.141593 -1.570796 0.000000
  22 0.000003 28.528530 -2.793941 -0.054701 0.209358 1.697962
  23 -0.000001 3.833359 0.000000 -0.509145 -0.199416 1.485076
  24 0.000001 13.500031 0.000001 0.841843 0.064060 -0.149284
  25 -0.000001 11.928187 0.000004 0.451319 0.011743 0.048826
  26 -0.000001 3.538862 0.000002 -2.328044 -0.043700 0.041269
  27 0.000001 13.500032 0.000001 1.635290 -0.000001 -0.000000
  28 0.000002 28.528530 -2.793941 -2.174638 0.118023 0.121725
  29 0.438134 10.366603 5.011087 0.000000 -0.000000 -1.570796
  30 -3.463027 -8.482041 0.937382 0.000000 -0.000000 -1.570796
  31 1.212500 -4.320868 -20.934847 -0.190042 0.004591 -1.570435
  32 1.756078 6.035153 -21.071629 -0.317183 -0.025112 -1.653420
  33 9.478194 2.644845 11.114950 0.000000 -0.000000 -1.570796
  34 10.975533 0.229797 10.954870 0.000000 -0.000000 -1.570796
  35 -18.580019 -3.808924 -9.069633 0.000000 -0.000000 1.570796
  36 -18.322380 10.179817 -9.069633 0.000000 -0.000000 1.570796
end
