version 1
nodes
0 "Base" -1
1 "R.hip" 0
2 "R.thigh" 1
3 "R.calve" 2
4 "R.heel" 3
5 "R.foot" 4
6 "R.thigh.001" 2
7 "Torso_bot" 0
8 "Torso_top" 7
9 "R.shoulder" 8
10 "R.bicep" 9
11 "R.forearm" 10
12 "R.hand" 11
13 "Neck" 8
14 "Head" 13
15 "L.shoulder" 8
16 "L.bicep" 15
17 "L.forearm" 16
18 "L.hand" 17
19 "Torso_bot.001" 7
20 "Torso_bot.002" 19
21 "Torso_bot.003" 19
22 "L.hip" 0
23 "L.thigh" 22
24 "L.calve" 23
25 "L.heel" 24
26 "L.foot" 25
27 "L.thigh.001" 23
28 "Base.001" 0
29 "R.armIK.000" -1
30 "L.armIK.000" -1
31 "L.LegIK.000" -1
32 "R.LegIK.000" -1
33 "UpperarmIK.L" -1
34 "UpperarmIK.R" -1
35 "KneeIK.L" -1
36 "KneeIK.R" -1
end
skeleton
  time 0
  0 1.570442 0.535431 -25.954151 1.691169 0.025414 1.428111
  1 0.000002 28.528526 -2.793941 -0.031887 -0.205759 -1.763296
  2 -0.000001 3.833358 -0.000000 -0.528289 0.129693 -1.397020
  3 -0.000001 13.500029 -0.000004 0.854573 -0.065981 0.150981
  4 0.000003 11.928192 -0.000002 0.412504 0.030702 -0.140397
  5 0.000000 3.538864 -0.000001 -2.328044 0.043700 -0.041269
  6 -0.000001 13.500031 -0.000004 1.635290 0.000001 0.000000
  7 0.000002 28.528526 -2.793941 -0.170911 0.109835 0.034903
  8 -0.000000 4.967566 0.000000 -0.248893 -0.077129 0.003789
  9 0.000001 10.424909 0.000000 0.142192 0.009449 -1.683864
  10 -0.000001 5.721373 0.000000 -0.775082 -1.244080 0.106352
  11 -0.000001 8.563447 -0.000002 -1.241758 0.102198 0.145146
  12 0.000000 7.483446 -0.000001 -0.335271 0.381068 0.033500
  13 0.000001 10.424909 0.000000 -0.095035 0.163848 0.052858
  14 0.000000 3.096225 0.000001 0.160501 -0.136284 -0.150196
  15 0.000001 10.424909 0.000000 -0.129933 0.050352 1.891529
  16 0.000008 5.721371 0.000001 0.008447 0.625226 0.828897
  17 -0.000000 8.563439 -0.000001 -0.501323 -0.017118 -0.073517
  18 -0.000000 7.483442 -0.000001 0.033562 0.008824 0.015087
  19 0.119125 7.401340 -0.700705 -1.570796 0.000000 0.000000
  20 -0.182472 0.858614 -0.214675 0.000000 -0.000000 -0.000000
  21 0.644811 -0.364825 -0.425435 3.141593 -1.570796 0.000000
  22 0.000002 28.528526 -2.793941 -0.054701 0.209358 1.697962
  23 0.000002 3.833360 -0.000000 -0.476596 -0.222401 1.480687
  24 -0.000002 13.500024 -0.000001 0.808518 0.059134 -0.144726
  25 -0.000002 11.928184 0.000004 0.451319 0.011743 0.048826
  26 -0.000001 3.538862 0.000001 -2.328044 -0.043699 0.041268
  27 -0.000002 13.500029 -0.000002 1.635290 -0.000001 0.000000
  28 0.000002 28.528526 -2.793941 -2.174556 0.118049 0.122268
  29 0.110636 10.477749 5.020428 0.000000 -0.000000 -1.570796
  30 -1.464692 -7.969568 0.437593 0.000000 -0.000000 -1.570796
  31 1.212500 -4.320868 -20.934847 -0.190042 0.004591 -1.570435
  32 1.756078 6.035153 -21.139759 -0.226510 -0.025292 -1.669944
  33 9.513260 2.781423 11.163958 0.000000 -0.000000 -1.570796
  34 9.953807 6.292494 11.015173 0.000000 -0.000000 -1.570796
  35 -19.240353 -3.785116 -9.069633 0.000000 -0.000000 1.570796
  36 -19.171942 10.295927 -9.069633 0.000000 -0.000000 1.570796
  time 1
  0 0.922058 0.552432 -27.021948 1.692985 -0.000000 1.756718
  1 0.000004 28.528530 -2.793938 -0.031887 -0.205759 -1.763296
  2 -0.000001 3.833357 0.000000 -0.865371 0.353006 -1.532634
  3 0.000004 13.500029 -0.000002 0.821183 -0.060988 0.146477
  4 0.000004 11.928192 -0.000002 0.759631 -0.008281 -0.045790
  5 -0.000000 3.538864 -0.000001 -2.328044 0.043700 -0.041268
  6 0.000004 13.500031 -0.000003 1.635290 0.000001 -0.000000
  7 0.000004 28.528530 -2.793938 -0.194535 0.050943 -0.022929
  8 0.000000 4.967567 -0.000000 -0.120491 -0.081349 0.090451
  9 0.000000 10.424909 0.000001 0.142313 0.009263 -1.681140
  10 -0.000002 5.721373 0.000001 0.353437 -1.707743 -1.146714
  11 -0.000001 8.563448 -0.000002 -1.065577 0.077469 0.134143
  12 -0.000000 7.483446 0.000000 -0.335271 0.381068 0.033500
  13 0.000000 10.424909 0.000001 -0.566373 0.253256 0.030730
  14 -0.000000 3.096222 -0.000000 0.780933 -0.199091 -0.093361
  15 0.000000 10.424909 0.000001 -0.132973 0.051695 1.893650
  16 0.000001 5.721372 -0.000000 0.433800 0.756689 0.960277
  17 0.000000 8.563444 0.000001 -0.907641 -0.057236 -0.120736
  18 -0.000001 7.483448 -0.000001 0.033562 0.008824 0.015087
  19 0.119127 7.401338 -0.700706 -1.570796 -0.000000 -0.000000
  20 -0.182472 0.858614 -0.214675 0.000000 0.000000 -0.000000
  21 0.644811 -0.364824 -0.425436 3.141593 -1.570796 0.000000
  22 0.000004 28.528530 -2.793938 -0.054701 0.209358 1.697962
  23 0.000002 3.833358 0.000000 -0.102052 0.091016 1.446808
  24 -0.000003 13.500026 -0.000005 0.787287 0.056077 -0.141740
  25 -0.000003 11.928187 0.000000 0.109856 0.008209 0.045962
  26 -0.000000 3.538862 0.000001 -2.328044 -0.043700 0.041269
  27 -0.000004 13.500024 -0.000005 1.635290 -0.000002 -0.000000
  28 0.000004 28.528530 -2.793937 -2.583783 0.136364 -0.095923
  29 1.094962 8.955638 3.607792 0.000000 -0.000000 -1.570796
  30 1.947187 -8.898289 0.574455 0.000000 -0.000000 -1.570796
  31 9.970563 -4.320869 -20.854012 -0.531476 0.000045 -1.570616
  32 -7.407562 4.321485 -20.864038 0.118301 0.000000 -1.570796
  33 9.525341 2.828479 11.180841 0.000000 -0.000000 -1.570796
  34 9.525343 8.834909 11.180841 0.000000 -0.000000 -1.570796
  35 -19.481180 -3.775503 -9.069633 0.000000 -0.000000 1.570796
  36 -19.481180 6.820030 -9.069633 0.000000 -0.000000 1.570796
  time 2
  0 0.922058 0.552432 -25.845490 1.692985 -0.000000 1.756718
  1 0.000004 28.528528 -2.793937 -0.031887 -0.205759 -1.763296
  2 -0.000003 3.833358 0.000000 -0.728625 0.372159 -1.514616
  3 0.000001 13.500029 -0.000003 0.578198 -0.029632 0.109194
  4 0.000005 11.928189 -0.000000 0.759632 -0.008281 -0.045791
  5 0.000000 3.538864 -0.000000 -2.328044 0.043700 -0.041268
  6 0.000001 13.500030 -0.000003 1.635290 0.000001 0.000000
  7 0.000004 28.528528 -2.793937 -0.111913 0.053259 -0.000359
  8 0.000000 4.967564 0.000000 0.189106 -0.123131 0.124659
  9 -0.000000 10.424911 0.000000 0.142313 0.009263 -1.681140
  10 0.000001 5.721373 0.000001 1.018708 -0.812752 -1.359765
  11 -0.000004 8.563440 0.000002 -1.115384 0.084260 0.137693
  12 0.000001 7.483446 -0.000001 -0.335271 0.381068 0.033500
  13 -0.000000 10.424911 0.000000 -0.185328 0.148471 0.214158
  14 -0.000000 3.096223 0.000000 0.174215 -0.172743 -0.041595
  15 -0.000000 10.424911 0.000000 -0.132973 0.051695 1.893650
  16 -0.000005 5.721375 0.000001 0.551423 0.593026 0.985293
  17 -0.000002 8.563443 -0.000002 -0.229358 -0.002290 -0.034755
  18 -0.000002 7.483443 -0.000000 0.033562 0.008824 0.015087
  19 0.119125 7.401337 -0.700706 -1.570796 -0.000000 0.000000
  20 -0.182472 0.858614 -0.214672 0.000000 0.000000 -0.000000
  21 0.644811 -0.364824 -0.425435 3.141593 -1.570796 0.000000
  22 0.000004 28.528528 -2.793937 -0.054701 0.209358 1.697962
  23 0.000004 3.833357 0.000000 -0.245438 0.131932 1.399596
  24 0.000001 13.500032 0.000001 1.190732 0.123500 -0.186249
  25 -0.000002 11.928185 0.000001 0.109856 0.008209 0.045962
  26 -0.000000 3.538861 0.000001 -2.328044 -0.043700 0.041269
  27 0.000001 13.500031 0.000001 1.635290 -0.000001 -0.000000
  28 0.000004 28.528528 -2.793937 -2.574041 0.158029 -0.092599
  29 5.368752 12.990916 6.700760 0.000000 -0.000000 -1.570796
  30 5.851391 -11.872113 1.116001 0.000000 -0.000000 -1.570796
  31 9.970563 -6.048719 -16.757761 -0.531476 0.000045 -1.570616
  32 -7.407562 4.321485 -20.864038 0.118301 0.000000 -1.570796
  33 9.525341 2.828479 11.180841 0.000000 -0.000000 -1.570796
  34 13.608675 -2.130227 11.712042 0.000000 -0.000000 -1.570796
  35 -19.481180 -3.775503 -9.069633 0.000000 -0.000000 1.570796
  36 -19.481180 6.820030 -9.069633 0.000000 -0.000000 1.570796
  time 3
  0 0.461029 0.200545 -26.845146 1.692985 -0.000000 1.663757
  1 0.000008 28.528526 -2.793939 -0.031887 -0.205759 -1.763296
  2 0.000001 3.833358 -0.000000 -0.831550 0.276623 -1.508487
  3 -0.000001 13.500028 -0.000005 0.796299 -0.057367 0.143015
  4 0.000005 11.928191 -0.000003 0.759631 -0.008281 -0.045790
  5 0.000000 3.538862 -0.000001 -2.328044 0.043700 -0.041269
  6 -0.000001 13.500029 -0.000005 1.635290 0.000001 0.000000
  7 0.000008 28.528526 -2.793938 -0.029125 0.053706 0.022362
  8 0.000001 4.967566 0.000001 0.499820 -0.173393 0.144568
  9 -0.000000 10.424911 0.000000 0.142314 0.009263 -1.681140
  10 0.000002 5.721373 0.000002 1.805936 -1.262797 -1.603529
  11 -0.000002 8.563447 0.000001 -1.053410 0.075838 0.133226
  12 0.000000 7.483444 -0.000003 -0.335271 0.381069 0.033500
  13 -0.000000 10.424911 0.000000 0.170790 -0.015429 0.345524
  14 -0.000002 3.096220 0.000003 0.451560 -0.280215 -0.089066
  15 -0.000000 10.424911 0.000000 -0.132973 0.051695 1.893650
  16 0.000001 5.721373 0.000000 1.399331 0.519416 1.035684
  17 -0.000005 8.563450 -0.000001 -0.755693 -0.039999 -0.105007
  18 -0.000002 7.483441 0.000000 0.033562 0.008824 0.015087
  19 0.119125 7.401337 -0.700704 -1.570796 0.000000 -0.000000
  20 -0.182472 0.858614 -0.214673 0.000000 0.000000 0.000000
  21 0.644811 -0.364825 -0.425439 -3.141593 -1.570796 0.000000
  22 0.000008 28.528526 -2.793939 -0.054701 0.209358 1.697962
  23 -0.000000 3.833359 0.000000 0.014664 0.060994 1.326218
  24 -0.000005 13.500029 0.000001 0.591864 0.031145 -0.111480
  25 -0.000000 11.928184 0.000002 0.109856 0.008209 0.045962
  26 -0.000001 3.538859 -0.000000 -2.328044 -0.043700 0.041269
  27 -0.000005 13.500029 0.000001 1.635290 -0.000001 0.000000
  28 0.000008 28.528526 -2.793939 -2.545586 0.219703 -0.081840
  29 9.642543 17.026194 9.793730 0.000000 -0.000000 -1.570796
  30 9.755595 -14.845936 1.657545 0.000000 -0.000000 -1.570796
  31 9.970563 -7.776569 -20.946806 -0.531476 0.000045 -1.570616
  32 -7.407562 4.321485 -20.864038 0.118301 0.000000 -1.570796
  33 9.525341 2.828479 11.180841 0.000000 -0.000000 -1.570796
  34 17.692005 -13.095363 12.243238 0.000000 -0.000000 -1.570796
  35 -19.481180 -3.775503 -9.069633 0.000000 -0.000000 1.570796
  36 -19.481180 6.820030 -9.069633 0.000000 -0.000000 1.570796
  time 4
  0 0.000000 -0.151341 -27.844801 1.692985 -0.000000 1.570796
  1 0.000004 28.528526 -2.793941 -0.031887 -0.205759 -1.763296
  2 -0.000001 3.833359 0.000000 -0.912351 0.184820 -1.497211
  3 0.000000 13.500028 -0.000004 0.966634 -0.083795 0.164851
  4 0.000004 11.928190 -0.000003 0.759631 -0.008281 -0.045790
  5 0.000001 3.538862 -0.000000 -2.328044 0.043700 -0.041269
  6 -0.000000 13.500029 -0.000003 1.635290 0.000001 0.000000
  7 0.000004 28.528526 -2.793940 -0.009084 0.055104 0.051705
  8 0.000000 4.967565 0.000001 0.385598 -0.147683 0.159667
  9 0.000000 10.424910 -0.000000 0.142314 0.009263 -1.681140
  10 0.000001 5.721373 0.000000 1.424717 -1.168862 -1.330223
  11 -0.000006 8.563444 0.000001 -1.080522 0.079488 0.135244
  12 -0.000002 7.483444 0.000002 -0.335270 0.381068 0.033500
  13 0.000000 10.424910 -0.000000 -0.185328 0.148471 0.214158
  14 0.000001 3.096225 -0.000001 0.745919 -0.371052 -0.168539
  15 0.000000 10.424910 -0.000000 -0.132973 0.051695 1.893650
  16 -0.000001 5.721372 -0.000001 1.278420 0.380205 1.089111
  17 -0.000001 8.563442 0.000002 -1.026623 -0.072286 -0.131135
  18 0.000001 7.483444 0.000001 0.033562 0.008824 0.015087
  19 0.119127 7.401335 -0.700704 -1.570796 -0.000000 0.000000
  20 -0.182472 0.858615 -0.214671 0.000000 0.000000 0.000000
  21 0.644811 -0.364824 -0.425435 -3.141593 -1.570796 0.000000
  22 0.000004 28.528526 -2.793941 -0.054701 0.209358 1.697962
  23 -0.000002 3.833358 0.000000 -0.000067 -0.026009 1.363770
  24 -0.000003 13.500026 -0.000001 0.745314 0.050225 -0.135652
  25 -0.000001 11.928185 0.000002 0.109856 0.008209 0.045962
  26 0.000000 3.538862 0.000001 -2.328044 -0.043700 0.041269
  27 -0.000003 13.500026 -0.000001 1.635290 -0.000001 0.000000
  28 0.000004 28.528526 -2.793941 -2.500682 0.311571 -0.061914
  29 9.642543 14.883026 8.626822 0.000000 -0.000000 -1.570796
  30 6.006394 -12.675427 -0.500376 0.000000 -0.000000 -1.570796
  31 9.970563 -7.776569 -20.946806 -0.531476 0.000045 -1.570616
  32 -7.407562 4.321485 -20.864038 0.118301 0.000000 -1.570796
  33 9.525341 2.828479 11.180841 0.000000 -0.000000 -1.570796
  34 14.612614 -12.819600 11.974173 0.000000 -0.000000 -1.570796
  35 -19.481180 -3.775503 -9.069633 0.000000 -0.000000 1.570796
  36 -19.481180 6.820030 -9.069633 0.000000 -0.000000 1.570796
  time 5
  0 0.000141 -0.151430 -27.845316 1.692985 -0.000000 1.570825
  1 0.000002 28.528524 -2.793940 -0.031887 -0.205759 -1.763296
  2 -0.000001 3.833358 0.000000 -0.912400 0.184844 -1.497216
  3 0.000002 13.500029 -0.000006 0.966709 -0.083807 0.164859
  4 0.000003 11.928190 -0.000002 0.759631 -0.008281 -0.045790
  5 0.000000 3.538864 -0.000000 -2.328044 0.043700 -0.041268
  6 0.000001 13.500031 -0.000005 1.635290 0.000002 0.000000
  7 0.000002 28.528524 -2.793940 0.011006 0.055913 0.081094
  8 0.000000 4.967566 -0.000000 0.272177 -0.120444 0.171664
  9 -0.000002 10.424910 0.000000 0.142313 0.009263 -1.681140
  10 -0.000004 5.721372 -0.000001 0.797368 -0.730485 -1.209957
  11 -0.000000 8.563452 -0.000002 -0.783393 0.042959 0.108065
  12 0.000000 7.483445 -0.000000 -0.335271 0.381068 0.033500
  13 -0.000002 10.424910 0.000000 -0.566373 0.253256 0.030731
  14 0.000000 3.096222 0.000000 0.752554 -0.362637 -0.160934
  15 -0.000002 10.424910 0.000000 -0.132972 0.051695 1.893650
  16 -0.000001 5.721378 -0.000000 0.722068 0.383068 1.065904
  17 -0.000004 8.563450 0.000001 -0.625252 -0.027257 -0.089575
  18 -0.000001 7.483444 0.000002 0.033562 0.008824 0.015087
  19 0.119128 7.401339 -0.700706 -1.570796 -0.000000 0.000000
  20 -0.182472 0.858614 -0.214674 0.000000 0.000000 0.000000
  21 0.644811 -0.364824 -0.425437 -3.141593 -1.570796 0.000000
  22 0.000002 28.528524 -2.793940 -0.054701 0.209358 1.697962
  23 -0.000000 3.833359 -0.000000 -0.000126 -0.025981 1.363778
  24 -0.000002 13.500022 0.000002 0.745434 0.050242 -0.135669
  25 -0.000001 11.928187 0.000001 0.109856 0.008209 0.045962
  26 -0.000000 3.538861 0.000002 -2.328044 -0.043700 0.041269
  27 -0.000003 13.500026 0.000002 1.635290 -0.000001 0.000000
  28 0.000002 28.528524 -2.793940 -2.443227 0.418382 -0.031809
  29 7.325560 12.453956 4.519579 0.000000 -0.000000 -1.570796
  30 2.257194 -10.504918 -2.658293 0.000000 -0.000000 -1.570796
  31 9.970563 -7.776569 -20.946806 -0.531476 0.000045 -1.570616
  32 -7.407562 4.321485 -20.864038 0.118301 0.000000 -1.570796
  33 9.525341 2.828479 11.180841 0.000000 -0.000000 -1.570796
  34 11.533221 -12.543840 11.705107 0.000000 -0.000000 -1.570796
  35 -19.481180 -3.775503 -9.069633 0.000000 -0.000000 1.570796
  36 -19.481180 6.820030 -9.069633 0.000000 -0.000000 1.570796
  time 6
  0 0.002250 -0.152769 -27.853052 1.692986 -0.000000 1.571249
  1 0.000007 28.528526 -2.793941 -0.031887 -0.205759 -1.763296
  2 -0.000001 3.833359 -0.000000 -0.913135 0.185201 -1.497287
  3 -0.000001 13.500031 -0.000003 0.967841 -0.083995 0.164989
  4 0.000004 11.928190 -0.000003 0.759631 -0.008281 -0.045790
  5 0.000000 3.538862 -0.000001 -2.328044 0.043700 -0.041269
  6 -0.000001 13.500033 -0.000003 1.635290 0.000001 -0.000000
  7 0.000006 28.528526 -2.793941 0.011920 0.055957 0.085900
  8 -0.000000 4.967565 0.000001 0.272253 -0.120465 0.171666
  9 0.000000 10.424911 0.000000 0.142314 0.009263 -1.681140
  10 -0.000002 5.721374 0.000002 0.295942 -0.390763 -1.354280
  11 0.000001 8.563447 -0.000004 -0.232720 0.002408 0.035255
  12 -0.000002 7.483446 -0.000002 -0.335271 0.381068 0.033500
  13 0.000000 10.424911 0.000000 -0.472746 0.215714 0.108797
  14 -0.000000 3.096221 0.000000 0.759232 -0.354273 -0.153299
  15 0.000000 10.424911 0.000000 -0.132973 0.051696 1.893650
  16 0.000002 5.721366 -0.000002 0.454528 0.397881 1.045805
  17 -0.000003 8.563449 -0.000001 -0.005198 0.001712 -0.000794
  18 -0.000001 7.483442 0.000001 0.033562 0.008824 0.015087
  19 0.119124 7.401338 -0.700705 -1.570796 -0.000000 0.000000
  20 -0.182472 0.858614 -0.214673 0.000000 0.000000 0.000000
  21 0.644811 -0.364825 -0.425437 -3.141593 -1.570796 0.000000
  22 0.000007 28.528526 -2.793941 -0.054701 0.209358 1.697962
  23 -0.000000 3.833359 0.000000 -0.001007 -0.025565 1.363895
  24 -0.000004 13.500028 0.000002 0.747219 0.050486 -0.135933
  25 -0.000002 11.928187 0.000001 0.109856 0.008209 0.045962
  26 0.000001 3.538859 0.000001 -2.328044 -0.043700 0.041268
  27 -0.000005 13.500030 0.000002 1.635290 -0.000001 0.000000
  28 0.000006 28.528526 -2.793941 -2.443026 0.414987 -0.032291
  29 3.537711 8.873630 1.139965 0.000000 -0.000000 -1.570796
  30 2.744603 -10.569639 -3.563122 0.000000 -0.000000 -1.570796
  31 9.970563 -7.776569 -20.946806 -0.531476 0.000045 -1.570616
  32 -7.407562 4.321485 -20.864038 0.118301 0.000000 -1.570796
  33 9.525341 2.828479 11.180841 0.000000 -0.000000 -1.570796
  34 8.453829 -12.268079 11.436041 0.000000 -0.000000 -1.570796
  35 -19.481180 -3.775503 -9.069633 0.000000 -0.000000 1.570796
  36 -19.481180 6.820030 -9.069633 0.000000 -0.000000 1.570796
  time 7
  0 0.011389 -0.158568 -27.886576 1.692986 -0.000000 1.573089
  1 0.000007 28.528524 -2.793942 -0.031887 -0.205759 -1.763296
  2 -0.000001 3.833357 0.000000 -0.916314 0.186748 -1.497594
  3 0.000002 13.500027 -0.000002 0.972730 -0.084808 0.165547
  4 0.000006 11.928196 -0.000003 0.759631 -0.008280 -0.045790
  5 -0.000000 3.538864 -0.000001 -2.328044 0.043700 -0.041268
  6 0.000002 13.500028 -0.000003 1.635290 0.000001 -0.000000
  7 0.000007 28.528524 -2.793941 0.014664 0.056060 0.100327
  8 -0.000000 4.967566 0.000000 0.273383 -0.120785 0.171696
  9 0.000001 10.424911 0.000000 0.142314 0.009263 -1.681140
  10 0.000006 5.721371 0.000001 0.135529 -0.171973 -1.400749
  11 -0.000002 8.563447 -0.000003 -0.005232 -0.001711 0.000800
  12 -0.000000 7.483445 -0.000003 -0.335271 0.381068 0.033500
  13 0.000001 10.424911 0.000000 -0.381312 0.170402 0.183809
  14 -0.000001 3.096221 0.000000 0.765954 -0.345963 -0.145631
  15 0.000001 10.424911 0.000000 -0.132973 0.051695 1.893650
  16 0.000001 5.721371 0.000001 0.487300 0.385623 1.056307
  17 -0.000003 8.563451 -0.000000 -0.005228 0.001712 -0.000799
  18 -0.000001 7.483441 0.000000 0.033562 0.008824 0.015087
  19 0.119125 7.401336 -0.700705 -1.570796 -0.000000 0.000000
  20 -0.182472 0.858614 -0.214674 0.000000 -0.000000 0.000000
  21 0.644811 -0.364824 -0.425436 -3.141593 -1.570796 0.000000
  22 0.000007 28.528524 -2.793942 -0.054701 0.209358 1.697962
  23 -0.000002 3.833359 -0.000000 -0.004802 -0.023763 1.364400
  24 -0.000005 13.500027 0.000000 0.754906 0.051540 -0.137064
  25 -0.000001 11.928187 0.000003 0.109856 0.008209 0.045962
  26 -0.000000 3.538861 0.000002 -2.328044 -0.043700 0.041269
  27 -0.000004 13.500029 0.000000 1.635290 -0.000001 0.000000
  28 0.000007 28.528524 -2.793942 -2.442420 0.404903 -0.033721
  29 2.285206 7.689744 0.022449 0.000000 -0.000000 -1.570796
  30 3.232014 -10.634361 -4.467953 0.000000 -0.000000 -1.570796
  31 9.970563 -7.776569 -20.946806 -0.531476 0.000045 -1.570616
  32 -7.407562 4.321485 -20.864038 0.118301 0.000000 -1.570796
  33 9.525341 2.828479 11.180841 0.000000 -0.000000 -1.570796
  34 5.374436 -11.992317 11.166979 0.000000 -0.000000 -1.570796
  35 -19.481180 -3.775503 -9.069633 0.000000 -0.000000 1.570796
  36 -19.481180 6.820030 -9.069633 0.000000 -0.000000 1.570796
  time 8
  0 0.035993 -0.174182 -27.976831 1.692986 0.000000 1.578042
  1 0.000001 28.528530 -2.793943 -0.031887 -0.205759 -1.763296
  2 0.000001 3.833359 -0.000000 -0.924828 0.190922 -1.498405
  3 -0.000002 13.500023 -0.000006 0.985773 -0.086989 0.167018
  4 0.000003 11.928186 0.000001 0.759632 -0.008281 -0.045790
  5 0.000000 3.538864 -0.000001 -2.328044 0.043700 -0.041268
  6 -0.000002 13.500025 -0.000005 1.635290 0.000002 -0.000000
  7 0.000001 28.528530 -2.793943 0.019246 0.056145 0.124399
  8 -0.000001 4.967564 0.000000 0.278283 -0.122171 0.171823
  9 -0.000000 10.424908 -0.000001 0.142313 0.009262 -1.681140
  10 -0.000003 5.721374 -0.000001 0.141722 -0.156518 -1.392249
  11 -0.000001 8.563448 -0.000001 -0.005231 -0.001712 0.000799
  12 -0.000000 7.483444 -0.000002 -0.335271 0.381068 0.033500
  13 -0.000000 10.424908 -0.000001 -0.293005 0.117945 0.254763
  14 -0.000000 3.096223 -0.000000 0.772718 -0.337708 -0.137932
  15 -0.000000 10.424908 -0.000001 -0.132972 0.051695 1.893650
  16 0.000006 5.721373 -0.000002 0.518089 0.370492 1.057155
  17 -0.000002 8.563450 -0.000003 -0.005251 0.001711 -0.000802
  18 -0.000002 7.483442 -0.000002 0.033562 0.008824 0.015087
  19 0.119124 7.401335 -0.700706 -1.570796 -0.000000 0.000000
  20 -0.182472 0.858614 -0.214673 0.000000 -0.000000 -0.000000
  21 0.644811 -0.364824 -0.425436 -3.141593 -1.570796 0.000000
  22 0.000001 28.528530 -2.793943 -0.054701 0.209358 1.697962
  23 0.000000 3.833359 -0.000000 -0.014834 -0.018898 1.365718
  24 -0.000005 13.500028 -0.000000 0.775238 0.054371 -0.140017
  25 -0.000001 11.928190 0.000001 0.109856 0.008209 0.045962
  26 0.000001 3.538861 0.000002 -2.328044 -0.043700 0.041268
  27 -0.000004 13.500031 -0.000000 1.635290 -0.000001 0.000000
  28 0.000001 28.528530 -2.793943 -2.441402 0.388427 -0.036059
  29 2.394387 7.792943 0.119864 0.000000 -0.000000 -1.570796
  30 3.719424 -10.699084 -5.372784 0.000000 -0.000000 -1.570796
  31 9.970563 -7.776569 -20.946806 -0.531476 0.000045 -1.570616
  32 -7.407562 4.321485 -20.864038 0.118301 0.000000 -1.570796
  33 9.525341 2.828479 11.180841 0.000000 -0.000000 -1.570796
  34 5.374436 -11.992317 11.166979 0.000000 -0.000000 -1.570796
  35 -19.481180 -3.775503 -9.069633 0.000000 -0.000000 1.570796
  36 -19.481180 6.820030 -9.069633 0.000000 -0.000000 1.570796
  time 9
  0 0.087874 -0.207106 -28.167141 1.692985 -0.000000 1.588489
  1 0.000006 28.528526 -2.793940 -0.031887 -0.205759 -1.763296
  2 0.000002 3.833360 -0.000000 -0.942561 0.199758 -1.500045
  3 -0.000002 13.500027 -0.000005 1.012737 -0.091557 0.169968
  4 0.000004 11.928186 -0.000002 0.759631 -0.008281 -0.045790
  5 0.000000 3.538861 0.000001 -2.328044 0.043700 -0.041268
  6 -0.000002 13.500027 -0.000005 1.635290 0.000001 0.000000
  7 0.000006 28.528526 -2.793939 0.025669 0.056079 0.158140
  8 -0.000000 4.967567 -0.000000 0.291487 -0.125909 0.172130
  9 -0.000001 10.424908 0.000000 0.142314 0.009263 -1.681140
  10 -0.000003 5.721374 -0.000002 0.155657 -0.127556 -1.364856
  11 0.000002 8.563449 -0.000003 -0.005224 -0.001712 0.000798
  12 -0.000000 7.483443 -0.000003 -0.335271 0.381068 0.033500
  13 -0.000001 10.424908 0.000000 -0.208494 0.059214 0.320912
  14 -0.000001 3.096221 0.000000 0.779525 -0.329508 -0.130203
  15 -0.000001 10.424908 0.000000 -0.132973 0.051695 1.893650
  16 -0.000002 5.721375 -0.000000 0.549414 0.352855 1.047675
  17 -0.000004 8.563450 -0.000004 -0.005263 0.001711 -0.000804
  18 -0.000004 7.483443 -0.000001 0.033562 0.008824 0.015087
  19 0.119125 7.401337 -0.700706 -1.570796 -0.000000 0.000000
  20 -0.182472 0.858615 -0.214672 0.000000 -0.000000 -0.000000
  21 0.644811 -0.364824 -0.425433 3.141593 -1.570796 0.000000
  22 0.000006 28.528526 -2.793940 -0.054701 0.209358 1.697962
  23 -0.000002 3.833358 -0.000000 -0.035172 -0.008590 1.368317
  24 -0.000005 13.500031 -0.000000 0.816494 0.060299 -0.145832
  25 -0.000003 11.928184 0.000000 0.109856 0.008209 0.045962
  26 -0.000000 3.538860 0.000001 -2.328044 -0.043700 0.041268
  27 -0.000005 13.500030 -0.000000 1.635290 -0.000001 0.000000
  28 0.000006 28.528526 -2.793940 -2.439964 0.366053 -0.039240
  29 2.691593 8.073868 0.385038 0.000000 -0.000000 -1.570796
  30 4.206834 -10.763805 -6.277613 0.000000 -0.000000 -1.570796
  31 9.970563 -7.776569 -20.946806 -0.531476 0.000045 -1.570616
  32 -7.407562 4.321485 -20.864038 0.118301 0.000000 -1.570796
  33 9.525341 2.828479 11.180841 0.000000 -0.000000 -1.570796
  34 5.374436 -11.992317 11.166979 0.000000 -0.000000 -1.570796
  35 -19.481180 -3.775503 -9.069633 0.000000 -0.000000 1.570796
  36 -19.481180 6.820030 -9.069633 0.000000 -0.000000 1.570796
  time 10
  0 0.182215 -0.266974 -28.513205 1.692985 -0.000000 1.607496
  1 0.000002 28.528530 -2.793941 -0.031887 -0.205759 -1.763296
  2 -0.000001 3.833360 0.000000 -0.974126 0.215947 -1.502795
  3 0.000001 13.500032 -0.000002 1.060040 -0.099758 0.174844
  4 0.000004 11.928192 -0.000003 0.759631 -0.008281 -0.045790
  5 -0.000000 3.538864 -0.000001 -2.328044 0.043700 -0.041268
  6 0.000001 13.500031 -0.000003 1.635290 0.000001 0.000000
  7 0.000001 28.528530 -2.793940 0.033926 0.055675 0.201564
  8 -0.000001 4.967564 0.000001 0.319386 -0.133812 0.172615
  9 -0.000001 10.424909 -0.000000 0.142313 0.009262 -1.681140
  10 -0.000001 5.721373 -0.000001 0.202033 -0.066844 -1.371196
  11 -0.000004 8.563445 -0.000003 -0.005218 -0.001712 0.000797
  12 -0.000002 7.483443 -0.000003 -0.335270 0.381068 0.033500
  13 -0.000001 10.424909 -0.000000 -0.128178 -0.004743 0.381768
  14 -0.000001 3.096221 -0.000000 0.786373 -0.321365 -0.122443
  15 -0.000001 10.424909 -0.000000 -0.132972 0.051695 1.893650
  16 -0.000001 5.721372 -0.000003 0.584025 0.332716 1.026536
  17 -0.000002 8.563449 0.000000 -0.005264 0.001711 -0.000804
  18 -0.000002 7.483443 0.000000 0.033562 0.008824 0.015087
  19 0.119124 7.401338 -0.700705 -1.570796 -0.000000 0.000000
  20 -0.182472 0.858614 -0.214676 0.000000 0.000000 -0.000000
  21 0.644811 -0.364825 -0.425437 -3.141593 -1.570796 0.000000
  22 0.000002 28.528530 -2.793941 -0.054701 0.209358 1.697962
  23 -0.000000 3.833358 0.000000 -0.069809 0.010299 1.372504
  24 -0.000005 13.500026 -0.000001 0.886894 0.070957 -0.155182
  25 0.000000 11.928183 0.000001 0.109856 0.008209 0.045962
  26 0.000000 3.538860 0.000001 -2.328044 -0.043700 0.041268
  27 -0.000004 13.500028 -0.000001 1.635290 -0.000001 0.000000
  28 0.000001 28.528530 -2.793941 -2.438101 0.338455 -0.043175
  29 3.219407 7.715524 0.131918 0.000000 -0.000000 -1.570796
  30 4.694244 -10.828528 -7.182442 0.000000 -0.000000 -1.570796
  31 9.970563 -7.776569 -20.946806 -0.531476 0.000045 -1.570616
  32 -7.407562 4.321485 -20.864038 0.118301 0.000000 -1.570796
  33 9.525341 2.828479 11.180841 0.000000 -0.000000 -1.570796
  34 5.374436 -11.992317 11.166979 0.000000 -0.000000 -1.570796
  35 -19.481180 -3.775503 -9.069633 0.000000 -0.000000 1.570796
  36 -19.481180 6.820030 -9.069633 0.000000 -0.000000 1.570796
  time 11
  0 0.337575 -0.365565 -29.083101 1.692985 -0.000000 1.638818
  1 0.000004 28.528528 -2.793940 -0.031887 -0.205759 -1.763296
  2 -0.000001 3.833359 0.000000 -1.024515 0.242922 -1.506723
  3 0.000002 13.500026 -0.000005 1.133787 -0.112976 0.181661
  4 0.000003 11.928188 -0.000002 0.759631 -0.008280 -0.045790
  5 0.000000 3.538862 -0.000000 -2.328044 0.043700 -0.041268
  6 0.000002 13.500029 -0.000005 1.635290 0.000001 -0.000000
  7 0.000004 28.528528 -2.793940 0.043983 0.054696 0.254638
  8 -0.000000 4.967566 0.000000 0.370288 -0.148233 0.172927
  9 -0.000001 10.424907 0.000000 0.142314 0.009263 -1.681140
  10 -0.000003 5.721374 0.000002 0.411109 0.039363 -1.399747
  11 -0.000005 8.563447 -0.000005 -0.177972 0.000701 0.027060
  12 -0.000002 7.483444 -0.000003 -0.335271 0.381068 0.033500
  13 -0.000001 10.424907 0.000000 -0.052209 -0.072779 0.437083
  14 0.000002 3.096223 -0.000001 0.793262 -0.313282 -0.114654
  15 -0.000001 10.424907 0.000000 -0.132973 0.051695 1.893650
  16 -0.000000 5.721374 0.000002 0.623642 0.309360 0.990469
  17 -0.000003 8.563442 -0.000001 -0.005248 0.001711 -0.000802
  18 -0.000003 7.483444 -0.000001 0.033562 0.008824 0.015087
  19 0.119125 7.401334 -0.700705 -1.570796 -0.000000 0.000000
  20 -0.182472 0.858614 -0.214675 0.000000 0.000000 0.000000
  21 0.644811 -0.364824 -0.425436 -3.141593 -1.570796 0.000000
  22 0.000004 28.528528 -2.793940 -0.054701 0.209358 1.697962
  23 -0.000000 3.833359 -0.000000 -0.121534 0.041692 1.378114
  24 -0.000003 13.500029 -0.000002 0.992444 0.088112 -0.167759
  25 0.000000 11.928187 0.000001 0.109856 0.008209 0.045962
  26 -0.000001 3.538861 -0.000000 -2.328044 -0.043700 0.041268
  27 -0.000003 13.500031 -0.000002 1.635290 -0.000001 -0.000000
  28 0.000004 28.528528 -2.793940 -2.435822 0.306478 -0.047759
  29 4.802849 6.640498 -0.627447 0.000000 -0.000000 -1.570796
  30 5.181654 -10.893250 -8.087273 0.000000 -0.000000 -1.570796
  31 9.970563 -7.776569 -20.946806 -0.531476 0.000045 -1.570616
  32 -7.407562 4.321485 -20.864038 0.118301 0.000000 -1.570796
  33 9.525341 2.828479 11.180841 0.000000 -0.000000 -1.570796
  34 5.374436 -11.992317 11.166979 0.000000 -0.000000 -1.570796
  35 -19.481180 -3.775503 -9.069633 0.000000 -0.000000 1.570796
  36 -19.481180 6.820030 -9.069633 0.000000 -0.000000 1.570796
  time 12
  0 0.575889 -0.516798 -29.957287 1.692985 -0.000000 1.686882
  1 0.000001 28.528532 -2.793941 -0.031887 -0.205759 -1.763296
  2 -0.000001 3.833360 -0.000000 -1.098584 0.285057 -1.511394
  3 0.000001 13.500034 -0.000005 1.238307 -0.132476 0.189617
  4 0.000003 11.928185 -0.000001 0.759631 -0.008281 -0.045790
  5 0.000001 3.538862 -0.000000 -2.328044 0.043700 -0.041268
  6 0.000001 13.500034 -0.000006 1.635290 0.000002 -0.000000
  7 0.000001 28.528532 -2.793941 0.055765 0.052857 0.317257
  8 0.000000 4.967566 0.000001 0.454483 -0.171992 0.171817
  9 -0.000001 10.424910 0.000003 0.142313 0.009263 -1.681140
  10 -0.000001 5.721373 -0.000003 0.893928 0.218585 -1.414729
  11 -0.000001 8.563451 -0.000007 -0.734102 0.037751 0.102567
  12 -0.000000 7.483445 -0.000002 -0.335271 0.381068 0.033500
  13 -0.000001 10.424910 0.000003 0.019462 -0.143725 0.486796
  14 0.000000 3.096223 0.000001 0.800192 -0.305258 -0.106835
  15 -0.000001 10.424910 0.000003 -0.132973 0.051695 1.893650
  16 0.000001 5.721371 -0.000002 0.665789 0.279555 0.931192
  17 -0.000002 8.563446 -0.000002 -0.005208 0.001712 -0.000796
  18 -0.000003 7.483443 -0.000001 0.033562 0.008824 0.015087
  19 0.119127 7.401336 -0.700705 -1.570796 -0.000000 -0.000000
  20 -0.182472 0.858614 -0.214674 0.000000 0.000000 -0.000000
  21 0.644811 -0.364824 -0.425435 -3.141593 -1.570796 0.000000
  22 0.000001 28.528532 -2.793941 -0.054701 0.209358 1.697962
  23 0.000000 3.833359 0.000000 -0.191658 0.090226 1.384239
  24 0.000003 13.500039 0.000004 1.136577 0.113486 -0.181901
  25 -0.000003 11.928190 0.000003 0.109856 0.008209 0.045962
  26 0.000000 3.538862 0.000000 -2.328044 -0.043700 0.041269
  27 0.000003 13.500037 0.000004 1.635290 -0.000001 -0.000000
  28 0.000001 28.528532 -2.793941 -2.433147 0.271111 -0.052868
  29 7.441918 4.848785 -1.893055 0.000000 -0.000000 -1.570796
  30 5.669065 -10.957972 -8.992102 0.000000 -0.000000 -1.570796
  31 9.970563 -7.776569 -20.946806 -0.531476 0.000045 -1.570616
  32 -7.407562 4.321485 -20.864038 0.118301 0.000000 -1.570796
  33 9.525341 2.828479 11.180841 0.000000 -0.000000 -1.570796
  34 5.374436 -11.992317 11.166979 0.000000 -0.000000 -1.570796
  35 -19.481180 -3.775503 -9.069633 0.000000 -0.000000 1.570796
  36 -19.481180 6.820030 -9.069633 0.000000 -0.000000 1.570796
  time 13
  0 0.922462 -0.736732 -31.228594 1.692985 -0.000000 1.756718
  1 0.000004 28.528530 -2.793938 -0.031887 -0.205759 -1.763296
  2 0.000001 3.833358 0.000000 -1.201399 0.347856 -1.515464
  3 0.000001 13.500029 -0.000001 1.376246 -0.159228 0.196912
  4 0.000002 11.928195 -0.000000 0.759632 -0.008280 -0.045790
  5 -0.000000 3.538862 0.000000 -2.328044 0.043700 -0.041268
  6 0.000001 13.500031 -0.000001 1.635290 0.000001 -0.000000
  7 0.000004 28.528530 -2.793937 0.069133 0.049839 0.389201
  8 -0.000000 4.967566 -0.000000 0.584070 -0.207932 0.166173
  9 0.000000 10.424910 -0.000002 0.142313 0.009263 -1.681140
  10 -0.000002 5.721374 0.000001 1.468131 0.409741 -1.327377
  11 -0.000001 8.563452 -0.000004 -1.143452 0.088162 0.139543
  12 0.000001 7.483446 -0.000001 -0.335271 0.381068 0.033500
  13 0.000000 10.424910 -0.000002 0.087038 -0.216445 0.530989
  14 0.000001 3.096223 0.000001 0.807162 -0.297297 -0.098987
  15 0.000000 10.424910 -0.000002 -0.132973 0.051695 1.893650
  16 0.000001 5.721374 0.000002 1.086479 0.185100 0.864858
  17 0.000000 8.563453 -0.000002 -0.827432 -0.047837 -0.112756
  18 -0.000001 7.483447 -0.000001 0.033562 0.008824 0.015087
  19 0.119125 7.401335 -0.700705 -1.570796 -0.000000 0.000000
  20 -0.182472 0.858614 -0.214673 0.000000 0.000000 0.000000
  21 0.644811 -0.364825 -0.425436 -3.141593 -1.570796 0.000000
  22 0.000004 28.528530 -2.793938 -0.054701 0.209358 1.697962
  23 -0.000002 3.833358 0.000000 -0.280314 0.160952 1.388824
  24 -0.000002 13.500031 0.000000 1.320842 0.148373 -0.194430
  25 -0.000000 11.928187 0.000002 0.109856 0.008209 0.045962
  26 0.000000 3.538861 -0.000000 -2.328044 -0.043700 0.041268
  27 -0.000002 13.500031 0.000000 1.635290 -0.000001 0.000000
  28 0.000004 28.528530 -2.793937 -2.430122 0.233459 -0.058365
  29 11.136615 2.340389 -3.664906 0.000000 -0.000000 -1.570796
  30 6.156474 -11.022694 -9.896932 0.000000 -0.000000 -1.570796
  31 9.970563 -7.776569 -20.946806 -0.531476 0.000045 -1.570616
  32 -7.407562 4.321485 -20.864038 0.118301 0.000000 -1.570796
  33 9.525341 2.828479 11.180841 0.000000 -0.000000 -1.570796
  34 5.374436 -11.992317 11.166979 0.000000 -0.000000 -1.570796
  35 -19.481180 -3.775503 -9.069633 0.000000 -0.000000 1.570796
  36 -19.481180 6.820030 -9.069633 0.000000 -0.000000 1.570796
  time 14
  0 0.922457 -0.732535 -31.161728 1.692985 -0.000000 1.756718
  1 0.000004 28.528530 -2.793938 -0.031887 -0.205759 -1.763296
  2 -0.000003 3.833358 0.000001 -1.196693 0.348434 -1.515484
  3 0.000004 13.500030 -0.000003 1.369072 -0.157815 0.196625
  4 0.000003 11.928195 -0.000002 0.759631 -0.008280 -0.045790
  5 0.000000 3.538864 -0.000001 -2.328044 0.043700 -0.041268
  6 0.000004 13.500032 -0.000002 1.635290 0.000001 -0.000000
  7 0.000004 28.528530 -2.793938 -0.175949 -0.266529 -0.030311
  8 -0.000000 4.967567 0.000001 0.190885 0.221735 0.033471
  9 -0.000001 10.424908 -0.000000 0.142313 0.009263 -1.681140
  10 0.000002 5.721375 0.000000 0.948853 -0.119140 -1.621115
  11 -0.000001 8.563447 0.000000 -1.255958 0.104267 0.145840
  12 0.000001 7.483445 0.000001 -0.335270 0.381068 0.033500
  13 -0.000001 10.424908 -0.000000 -0.023034 -0.100873 0.457638
  14 0.000001 3.096225 -0.000000 0.801793 -0.277594 -0.097630
  15 -0.000001 10.424908 -0.000000 -0.132972 0.051696 1.893650
  16 0.000001 5.721374 -0.000000 0.204317 0.788351 1.107016
  17 -0.000002 8.563451 -0.000002 -0.005263 0.001712 -0.000805
  18 -0.000003 7.483449 -0.000003 0.033562 0.008824 0.015087
  19 0.119127 7.401338 -0.700705 -1.570796 0.000000 0.000000
  20 -0.182472 0.858614 -0.214675 0.000000 -0.000000 0.000000
  21 0.644811 -0.364824 -0.425436 -3.141593 -1.570796 0.000000
  22 0.000004 28.528530 -2.793938 -0.054701 0.209358 1.697962
  23 -0.000002 3.833358 0.000000 -0.278282 0.161135 1.388588
  24 0.000000 13.500031 0.000002 1.313344 0.146914 -0.194047
  25 0.000000 11.928183 0.000002 0.109856 0.008209 0.045962
  26 -0.000001 3.538860 -0.000001 -2.328044 -0.043700 0.041268
  27 0.000000 13.500032 0.000002 1.635290 -0.000001 -0.000000
  28 0.000004 28.528530 -2.793938 -2.426811 0.194700 -0.064101
  29 5.488449 4.924582 -0.716972 0.000000 -0.000000 -1.570796
  30 2.949173 -11.022532 -5.371037 0.000000 -0.000000 -1.570796
  31 9.970563 -7.776569 -20.946806 -0.531476 0.000045 -1.570616
  32 -7.407562 4.321485 -20.864038 0.118301 0.000000 -1.570796
  33 9.525341 2.828479 11.180841 0.000000 -0.000000 -1.570796
  34 6.363605 -10.893970 11.071917 0.000000 -0.000000 -1.570796
  35 -19.481180 -3.775503 -9.069633 0.000000 -0.000000 1.570796
  36 -19.481180 6.820030 -9.069633 0.000000 -0.000000 1.570796
  time 15
  0 0.922382 -0.669576 -30.158733 1.692985 -0.000000 1.756718
  1 0.000004 28.528530 -2.793938 -0.031887 -0.205759 -1.763296
  2 -0.000003 3.833358 0.000000 -1.124454 0.357370 -1.514915
  3 0.000003 13.500031 -0.000002 1.256914 -0.136026 0.190817
  4 0.000004 11.928194 -0.000002 0.759631 -0.008280 -0.045790
  5 -0.000000 3.538864 -0.000001 -2.328044 0.043700 -0.041268
  6 0.000004 13.500032 -0.000002 1.635290 0.000001 -0.000000
  7 0.000004 28.528530 -2.793938 -0.277505 -0.183126 -0.102924
  8 -0.000000 4.967567 0.000000 -0.340636 0.555303 -0.307263
  9 -0.000002 10.424911 0.000000 0.142314 0.009263 -1.681140
  10 0.000002 5.721373 0.000000 1.148017 0.037895 -1.416931
  11 -0.000001 8.563447 0.000002 -1.895028 0.200227 0.145384
  12 0.000002 7.483448 -0.000001 -0.335271 0.381068 0.033500
  13 -0.000002 10.424911 0.000000 -0.143895 0.008413 0.370035
  14 -0.000000 3.096221 -0.000000 0.796490 -0.257918 -0.096393
  15 -0.000002 10.424911 0.000000 -0.132973 0.051695 1.893650
  16 -0.000002 5.721371 -0.000000 -1.285313 1.050784 -0.126307
  17 -0.000000 8.563450 -0.000000 -0.005205 0.001712 -0.000795
  18 -0.000001 7.483450 -0.000002 0.033562 0.008824 0.015087
  19 0.119128 7.401339 -0.700705 -1.570796 -0.000000 0.000000
  20 -0.182472 0.858614 -0.214671 0.000000 0.000000 -0.000000
  21 0.644811 -0.364824 -0.425436 3.141593 -1.570796 0.000000
  22 0.000004 28.528530 -2.793938 -0.054701 0.209358 1.697962
  23 0.000002 3.833357 0.000000 -0.247532 0.154352 1.426326
  24 -0.000001 13.500029 0.000002 1.215000 0.128059 -0.188021
  25 -0.000002 11.928186 0.000002 0.109856 0.008209 0.045962
  26 -0.000001 3.538861 -0.000001 -2.328044 -0.043700 0.041269
  27 -0.000001 13.500029 0.000002 1.635290 -0.000001 -0.000000
  28 0.000004 28.528530 -2.793937 -2.427415 0.195034 -0.061204
  29 -0.159716 7.508774 2.230957 0.000000 -0.000000 -1.570796
  30 -0.258128 -11.022370 -0.845140 0.000000 -0.000000 -1.570796
  31 9.970563 -6.912644 -20.923609 -0.531476 0.000045 -1.570616
  32 -7.407562 4.321485 -20.864038 0.118301 0.000000 -1.570796
  33 9.525341 2.828479 11.180841 0.000000 -0.000000 -1.570796
  34 7.352773 -9.795625 10.976854 0.000000 -0.000000 -1.570796
  35 -19.481180 -3.775503 -9.069633 0.000000 -0.000000 1.570796
  36 -19.481180 6.820030 -9.069633 0.000000 -0.000000 1.570796
  time 16
  0 0.922058 -0.396756 -25.812424 1.692985 -0.000000 1.756718
  1 0.000004 28.528530 -2.793937 -0.031887 -0.205759 -1.763296
  2 -0.000001 3.833357 0.000000 -0.717721 0.405241 -1.484372
  3 0.000002 13.500031 -0.000001 0.565036 -0.028204 0.106974
  4 0.000007 11.928190 0.000001 0.759632 -0.008281 -0.045791
  5 -0.000000 3.538864 -0.000000 -2.328044 0.043700 -0.041268
  6 0.000002 13.500030 -0.000001 1.635290 0.000001 -0.000000
  7 0.000005 28.528530 -2.793938 -0.382883 -0.108040 -0.182197
  8 -0.000001 4.967567 0.000000 -0.117470 -0.250638 0.157423
  9 0.000000 10.424907 -0.000001 0.142313 0.009263 -1.681140
  10 0.000000 5.721373 0.000001 -0.252080 -0.568033 -0.796013
  11 -0.000001 8.563446 0.000001 -1.242756 0.102343 0.145195
  12 -0.000001 7.483441 -0.000002 -0.335271 0.381068 0.033500
  13 0.000000 10.424907 -0.000001 -0.275783 0.106669 0.268397
  14 -0.000000 3.096221 -0.000000 0.791249 -0.238272 -0.095270
  15 0.000000 10.424907 -0.000001 -0.132973 0.051695 1.893650
  16 0.000003 5.721371 0.000001 0.439238 0.595410 0.673500
  17 -0.000000 8.563445 -0.000000 -1.226947 -0.100050 -0.144390
  18 -0.000001 7.483446 -0.000000 0.033562 0.008824 0.015087
  19 0.119126 7.401339 -0.700705 -1.570796 0.000000 0.000000
  20 -0.182472 0.858614 -0.214673 0.000000 -0.000000 0.000000
  21 0.644811 -0.364824 -0.425437 -3.141593 -1.570796 0.000000
  22 0.000004 28.528530 -2.793937 -0.054701 0.209358 1.697962
  23 -0.000000 3.833358 0.000000 0.017555 0.143236 1.403100
  24 -0.000004 13.500025 0.000001 0.490626 0.020697 -0.094093
  25 -0.000001 11.928185 0.000001 0.109856 0.008209 0.045962
  26 -0.000001 3.538861 0.000001 -2.328044 -0.043700 0.041269
  27 -0.000004 13.500025 0.000002 1.635290 -0.000001 0.000000
  28 0.000004 28.528530 -2.793937 -2.429132 0.195993 -0.052956
  29 -5.807881 10.092967 5.178888 0.000000 -0.000000 -1.570796
  30 -3.465429 -11.022210 3.680758 0.000000 -0.000000 -1.570796
  31 9.970563 -6.048719 -20.900410 -0.531476 0.000045 -1.570616
  32 -7.407562 4.321485 -20.864038 0.118301 0.000000 -1.570796
  33 9.525341 2.828479 11.180841 0.000000 -0.000000 -1.570796
  34 8.341941 -8.697278 10.881792 0.000000 -0.000000 -1.570796
  35 -19.481180 -3.775503 -9.069633 0.000000 -0.000000 1.570796
  36 -19.481180 6.820030 -9.069633 0.000000 -0.000000 1.570796
  time 17
  0 0.922058 0.077838 -26.502825 1.692985 -0.000000 1.756718
  1 0.000004 28.528530 -2.793938 -0.031887 -0.205759 -1.763296
  2 0.000001 3.833357 0.000000 -0.807819 0.377733 -1.510869
  3 0.000000 13.500025 -0.000006 0.723083 -0.047232 0.132331
  4 0.000006 11.928193 -0.000001 0.759631 -0.008280 -0.045790
  5 0.000000 3.538865 -0.000001 -2.328044 0.043700 -0.041268
  6 -0.000001 13.500029 -0.000005 1.635290 0.000001 -0.000000
  7 0.000004 28.528530 -2.793938 -0.293170 0.003711 -0.112127
  8 -0.000000 4.967566 0.000000 -0.117557 -0.165747 0.123677
  9 0.000001 10.424911 0.000000 0.142313 0.009263 -1.681140
  10 0.000001 5.721373 -0.000001 0.443110 -1.020064 -1.319639
  11 -0.000000 8.563448 0.000001 -0.971958 0.065218 0.126579
  12 -0.000001 7.483448 0.000002 -0.335271 0.381068 0.033500
  13 0.000001 10.424911 0.000000 -0.417557 0.189425 0.154240
  14 -0.000000 3.096222 -0.000000 0.786064 -0.218662 -0.094261
  15 0.000001 10.424911 0.000000 -0.132972 0.051695 1.893650
  16 -0.000003 5.721374 -0.000001 0.397349 0.709421 0.796211
  17 -0.000000 8.563445 -0.000000 -1.091688 -0.081007 -0.136046
  18 0.000002 7.483444 0.000000 0.033562 0.008824 0.015087
  19 0.119124 7.401334 -0.700706 -1.570796 -0.000000 0.000000
  20 -0.182472 0.858614 -0.214673 0.000000 0.000000 0.000000
  21 0.644811 -0.364825 -0.425435 -3.141593 -1.570796 0.000000
  22 0.000004 28.528530 -2.793938 -0.054701 0.209358 1.697962
  23 -0.000002 3.833357 -0.000000 -0.057613 0.116692 1.427895
  24 -0.000004 13.500026 0.000001 0.675010 0.041019 -0.124933
  25 -0.000002 11.928186 -0.000002 0.109856 0.008209 0.045962
  26 -0.000001 3.538860 0.000000 -2.328044 -0.043700 0.041269
  27 -0.000004 13.500027 0.000001 1.635290 -0.000001 0.000000
  28 0.000004 28.528530 -2.793937 -2.431686 0.197455 -0.040612
  29 1.700324 8.855897 3.470011 0.000000 -0.000000 -1.570796
  30 -0.759121 -10.092854 2.127607 0.000000 -0.000000 -1.570796
  31 9.970563 -5.184794 -20.877211 -0.531476 0.000045 -1.570616
  32 -7.407562 4.321485 -20.864038 0.118301 0.000000 -1.570796
  33 9.525341 2.828479 11.180841 0.000000 -0.000000 -1.570796
  34 9.215151 0.892575 11.031317 0.000000 -0.000000 -1.570796
  35 -19.481180 -3.775503 -9.069633 0.000000 -0.000000 1.570796
  36 -19.481180 6.820030 -9.069633 0.000000 -0.000000 1.570796
end
