version 1
nodes
0 "Base" -1
1 "R.hip" 0
2 "R.thigh" 1
3 "R.calve" 2
4 "R.heel" 3
5 "R.foot" 4
6 "R.thigh.001" 2
7 "Torso_bot" 0
8 "Torso_top" 7
9 "R.shoulder" 8
10 "R.bicep" 9
11 "R.forearm" 10
12 "R.hand" 11
13 "Neck" 8
14 "Head" 13
15 "L.shoulder" 8
16 "L.bicep" 15
17 "L.forearm" 16
18 "L.hand" 17
19 "Torso_bot.001" 7
20 "Torso_bot.002" 19
21 "Torso_bot.003" 19
22 "L.hip" 0
23 "L.thigh" 22
24 "L.calve" 23
25 "L.heel" 24
26 "L.foot" 25
27 "L.thigh.001" 23
28 "Base.001" 0
29 "R.armIK.000" -1
30 "L.armIK.000" -1
31 "L.LegIK.000" -1
32 "R.LegIK.000" -1
33 "UpperarmIK.L" -1
34 "UpperarmIK.R" -1
35 "KneeIK.L" -1
36 "KneeIK.R" -1
end
skeleton
  time 0
  0 -0.196332 2.504488 -26.802279 1.692985 -0.000000 1.917232
  1 0.000005 28.528524 -2.793937 -0.037466 -0.205628 -1.762859
  2 0.000003 3.833358 -0.000000 -0.899459 0.679338 -1.669265
  3 0.000001 13.500033 -0.000001 0.878735 -0.069688 0.154137
  4 0.000003 11.928192 0.000000 0.645884 0.079262 0.019726
  5 0.000000 3.538864 0.000001 -2.328044 0.043700 -0.041269
  6 0.000001 13.500033 -0.000001 1.635290 0.000001 0.000000
  7 0.000005 28.528524 -2.793937 -0.177968 0.051670 -0.018988
  8 0.000000 4.967566 0.000000 -0.170980 -0.109461 -0.010784
  9 -0.000001 10.424908 0.000000 -0.000000 0.000000 -1.799097
  10 0.000002 5.721373 0.000001 0.104742 -0.870163 -0.720267
  11 -0.000001 8.563454 0.000002 -1.060393 0.076773 0.133755
  12 -0.000001 7.483447 -0.000000 -0.335271 0.381068 0.033500
  13 -0.000001 10.424908 0.000000 -0.630074 0.175232 -0.239085
  14 -0.000001 3.096223 0.000001 0.539015 -0.213545 -0.383747
  15 -0.000001 10.424908 0.000000 0.000000 -0.000000 1.799097
  16 0.000000 5.721374 -0.000001 0.587794 0.362149 1.093867
  17 0.000003 8.563448 -0.000002 -0.785227 -0.043158 -0.108264
  18 0.000005 7.483446 -0.000003 -0.215477 -0.009342 -0.225731
  19 0.119127 7.401334 -0.700704 -1.570796 -0.000000 -0.000000
  20 -0.182472 0.858614 -0.214672 0.000000 0.000000 -0.000000
  21 0.644811 -0.364824 -0.425435 3.141593 -1.570796 0.000000
  22 0.000005 28.528524 -2.793937 -0.056600 0.209081 1.697988
  23 0.000000 3.833359 -0.000000 -0.060060 -0.093242 1.239378
  24 0.000001 13.500031 -0.000004 0.610118 0.033216 -0.114501
  25 -0.000001 11.928190 0.000001 0.196795 0.195532 0.236831
  26 -0.000000 3.538862 -0.000001 -2.328044 -0.043700 0.041268
  27 0.000002 13.500033 -0.000004 1.635290 -0.000001 -0.000000
  28 0.000005 28.528524 -2.793937 -2.701749 0.160308 -0.004186
  29 -5.877969 11.532902 2.623507 0.000000 -0.000000 -1.570796
  30 6.867829 -6.814968 3.365492 0.000000 -0.000000 -1.570796
  31 9.970563 -4.320869 -21.065231 -0.458920 0.263770 -1.531641
  32 -6.925605 5.680130 -21.016300 0.002225 0.109307 -1.570796
  33 6.056528 10.768565 5.952574 0.000000 -0.000000 -1.570796
  34 6.416165 8.741241 -1.640381 0.000000 -0.000000 -1.570796
  35 -19.437265 -11.178457 -9.069633 0.000000 -0.000000 1.570796
  36 -19.447834 11.266090 -9.069633 0.000000 -0.000000 1.570796
  time 1
  0 -0.254104 2.504488 -26.802279 1.692985 -0.000000 1.907798
  1 0.000001 28.528534 -2.793938 -0.041939 -0.204194 -1.761935
  2 0.000002 3.833359 0.000001 -0.894967 0.673962 -1.662941
  3 0.000004 13.500032 -0.000000 0.885441 -0.070730 0.154997
  4 0.000004 11.928205 -0.000001 0.644646 0.076565 0.017626
  5 0.000001 3.538866 -0.000001 -2.328044 0.043700 -0.041268
  6 0.000004 13.500035 -0.000001 1.635290 0.000001 -0.000000
  7 0.000001 28.528534 -2.793938 -0.163846 -0.186876 0.018845
  8 0.000000 4.967565 0.000000 -0.061636 -0.175589 -0.033967
  9 -0.000001 10.424907 0.000000 -0.067788 -0.019767 -1.798542
  10 -0.000004 5.721373 0.000000 0.481689 -0.737757 -0.367012
  11 -0.000000 8.563447 0.000001 -1.841569 0.192483 0.147805
  12 0.000001 7.483449 -0.000001 -0.335271 0.381068 0.033500
  13 -0.000001 10.424907 0.000000 -0.607951 0.291517 -0.187692
  14 -0.000000 3.096224 0.000002 0.351033 -0.258016 -0.402064
  15 -0.000001 10.424907 0.000000 -0.002658 0.000893 1.801018
  16 -0.000002 5.721374 0.000000 0.774143 0.260865 1.189864
  17 -0.000000 8.563447 -0.000001 -1.141830 -0.087935 -0.139440
  18 -0.000001 7.483444 -0.000002 -0.158308 -0.001805 -0.202166
  19 0.137117 7.996974 -0.702565 -1.570796 -0.000000 0.000000
  20 -0.332060 1.562497 -0.390663 0.000000 -0.000000 -0.000000
  21 1.173420 -0.663903 -0.774207 -3.141593 -1.570796 0.000000
  22 0.000001 28.528534 -2.793938 -0.057330 0.207487 1.698596
  23 0.000001 3.833358 -0.000001 -0.049973 -0.103301 1.237911
  24 0.000000 13.500034 -0.000003 0.604752 0.032601 -0.113617
  25 -0.000002 11.928190 -0.000004 0.210642 0.194129 0.245059
  26 -0.000000 3.538863 0.000000 -2.328044 -0.043700 0.041268
  27 -0.000000 13.500036 -0.000003 1.635290 -0.000001 -0.000000
  28 0.000001 28.528534 -2.793938 -2.701749 0.160308 -0.004186
  29 -3.741191 14.820936 8.918608 0.000000 -0.000000 -1.570796
  30 3.144569 -6.782822 3.965893 0.000000 -0.000000 -1.570796
  31 9.970563 -4.320869 -21.057409 -0.444692 0.267578 -1.524123
  32 -6.925154 5.738612 -20.985992 0.001144 0.105893 -1.570854
  33 6.056527 6.929323 5.952574 0.000000 -0.000000 -1.570796
  34 11.177250 8.741241 -2.315262 0.000000 -0.000000 -1.570796
  35 -19.437265 -11.178457 -9.069633 0.000000 -0.000000 1.570796
  36 -19.447834 11.266090 -9.069633 0.000000 -0.000000 1.570796
  time 2
  0 -0.504446 2.504488 -26.802277 1.692985 -0.000000 1.866888
  1 0.000005 28.528526 -2.793936 -0.045559 -0.200175 -1.759903
  2 0.000003 3.833359 0.000000 -0.901667 0.595390 -1.539896
  3 0.000002 13.500026 -0.000001 1.031589 -0.094798 0.171958
  4 0.000003 11.928185 -0.000002 0.609116 -0.008281 -0.045790
  5 0.000000 3.538862 -0.000000 -2.328044 0.043700 -0.041268
  6 0.000003 13.500027 -0.000002 1.635290 0.000002 0.000000
  7 0.000005 28.528526 -2.793935 -0.057903 -0.342011 0.044919
  8 0.000000 4.967565 0.000000 0.051476 -0.239165 -0.064969
  9 0.000000 10.424909 -0.000000 -0.195168 -0.036634 -1.795669
  10 -0.000003 5.721373 -0.000001 0.310679 -0.610000 0.384436
  11 -0.000002 8.563446 0.000000 -1.748516 0.178707 0.151001
  12 0.000001 7.483446 -0.000001 -0.335271 0.381068 0.033500
  13 0.000000 10.424909 -0.000000 -0.526607 0.405797 -0.082892
  14 0.000000 3.096220 -0.000000 0.157800 -0.305945 -0.411679
  15 0.000000 10.424909 -0.000000 -0.009999 0.003388 1.806319
  16 -0.000000 5.721374 0.000000 0.940462 0.324165 1.162579
  17 0.000000 8.563448 -0.000001 -1.600197 -0.156236 -0.153370
  18 -0.000000 7.483445 0.000002 -0.110678 0.003647 -0.176578
  19 0.263057 9.347305 -0.715581 -1.570796 0.000000 0.000000
  20 -0.408876 1.923950 -0.481035 0.000000 -0.000000 0.000000
  21 1.444868 -0.817485 -0.953301 3.141592 -1.570796 0.000000
  22 0.000005 28.528526 -2.793936 -0.057208 0.203228 1.700313
  23 -0.000001 3.833359 0.000000 -0.007426 -0.144456 1.231656
  24 -0.000003 13.500035 -0.000000 0.575032 0.029286 -0.108662
  25 0.000001 11.928194 -0.000000 0.238195 0.202376 0.265828
  26 0.000000 3.538863 0.000001 -2.328044 -0.043700 0.041269
  27 -0.000003 13.500037 -0.000000 1.635290 -0.000001 0.000000
  28 0.000005 28.528526 -2.793936 -2.701749 0.160308 -0.004186
  29 -1.604413 18.108969 15.213713 0.000000 -0.000000 -1.570796
  30 -0.578691 -6.638171 6.139307 0.000000 -0.000000 -1.570796
  31 9.970563 -4.320869 -21.042881 -0.418070 0.286531 -1.512573
  32 -6.911195 7.551553 -20.046471 -0.032215 -0.000000 -1.570796
  33 6.056527 3.090081 5.952574 0.000000 -0.000000 -1.570796
  34 13.173834 8.741241 -2.557693 0.000000 -0.000000 -1.570796
  35 -19.437265 -11.178457 -9.069633 0.000000 -0.000000 1.570796
  36 -19.447834 11.266090 -9.069633 0.000000 -0.000000 1.570796
  time 3
  0 -1.178446 2.504486 -26.802275 1.692985 -0.000000 1.756717
  1 0.000002 28.528530 -2.793941 -0.048561 -0.192286 -1.756147
  2 -0.000002 3.833358 0.000001 -0.764622 0.489279 -1.480585
  3 0.000000 13.500029 -0.000001 0.882889 -0.070333 0.154671
  4 0.000001 11.928187 0.000000 0.610462 -0.050481 -0.077337
  5 0.000000 3.538863 -0.000000 -2.328044 0.043700 -0.041268
  6 0.000001 13.500031 -0.000001 1.635290 0.000001 -0.000000
  7 0.000002 28.528530 -2.793941 0.093968 -0.320418 0.123209
  8 0.000000 4.967566 0.000001 0.306768 -0.069420 -0.041298
  9 -0.000001 10.424907 0.000002 -0.268045 -0.043672 -1.793373
  10 0.000008 5.721373 0.000001 -1.323669 -0.347446 0.672851
  11 -0.000002 8.563451 -0.000004 -2.387818 0.261808 0.104792
  12 0.000000 7.483443 -0.000000 -0.335271 0.381068 0.033500
  13 -0.000001 10.424907 0.000002 -0.355108 0.472484 0.065580
  14 0.000001 3.096227 -0.000001 -0.037902 -0.354687 -0.411467
  15 -0.000001 10.424907 0.000002 -0.021069 0.007233 1.814296
  16 0.000002 5.721372 -0.000002 0.670555 0.627738 1.028280
  17 0.000003 8.563445 -0.000004 -1.997760 -0.214660 -0.139568
  18 -0.000001 7.483445 0.000002 -0.071700 0.007298 -0.149875
  19 0.604900 10.797494 -0.750914 -1.570796 -0.000000 -0.000000
  20 -0.437177 2.057117 -0.514326 0.000000 -0.000000 0.000000
  21 1.544876 -0.874067 -1.019283 3.141593 -1.570796 0.000000
  22 0.000002 28.528530 -2.793941 -0.056564 0.194952 1.703658
  23 0.000003 3.833358 0.000000 0.120928 -0.254965 1.208226
  24 -0.000002 13.500028 -0.000003 0.463971 0.018246 -0.089353
  25 0.000000 11.928183 0.000000 0.259100 0.239311 0.293874
  26 -0.000001 3.538861 0.000000 -2.328044 -0.043700 0.041269
  27 -0.000002 13.500029 -0.000003 1.635290 -0.000001 0.000000
  28 0.000002 28.528530 -2.793941 -2.701749 0.160308 -0.004186
  29 0.532363 2.977236 14.916567 0.000000 -0.000000 -1.570796
  30 -2.271080 -5.147574 8.591871 0.000000 -0.000000 -1.570796
  31 9.970563 -4.320869 -21.035057 -0.403631 0.332487 -1.513624
  32 -6.900194 8.058845 -21.016056 -0.031795 -0.052679 -1.570797
  33 6.056526 1.344974 5.952574 0.000000 -0.000000 -1.570796
  34 5.553087 8.741241 13.245481 0.000000 -0.000000 -1.570796
  35 -19.437265 -11.178457 -9.069633 0.000000 -0.000000 1.570796
  36 -19.447834 11.266090 -9.069633 0.000000 -0.000000 1.570796
  time 4
  0 -1.145273 2.604239 -26.566185 1.692985 -0.000000 1.756717
  1 0.000002 28.528530 -2.793942 -0.051143 -0.179238 -1.750065
  2 -0.000002 3.833359 -0.000000 -0.726400 0.488621 -1.481150
  3 -0.000001 13.500029 -0.000003 0.837731 -0.063444 0.148730
  4 0.000005 11.928185 0.000001 0.639995 -0.074748 -0.098523
  5 0.000001 3.538863 -0.000000 -2.328044 0.043700 -0.041269
  6 -0.000000 13.500028 -0.000001 1.635290 0.000001 0.000000
  7 0.000002 28.528530 -2.793941 0.038992 -0.293550 0.162897
  8 0.000000 4.967566 0.000000 0.293660 -0.094977 -0.140464
  9 0.000000 10.424907 0.000001 -0.275311 -0.034908 -1.777291
  10 0.000001 5.721373 -0.000001 -1.501157 -0.114852 0.772502
  11 0.000001 8.563453 -0.000001 -2.351384 0.258032 0.108804
  12 0.000002 7.483450 -0.000002 -0.335270 0.381068 0.033499
  13 0.000000 10.424907 0.000001 -0.109694 0.431861 0.223084
  14 0.000000 3.096222 0.000000 0.182830 -0.105542 0.193988
  15 0.000000 10.424907 0.000001 -0.034908 0.012179 1.824239
  16 0.000000 5.721373 -0.000001 0.777842 0.599777 1.098034
  17 -0.000005 8.563449 -0.000003 -1.869954 -0.196613 -0.146572
  18 -0.000002 7.483449 0.000003 -0.040487 0.009485 -0.122889
  19 1.270593 11.692666 -0.819716 -1.570796 -0.000000 -0.000000
  20 -0.441219 2.076143 -0.519082 0.000000 0.000000 0.000000
  21 1.559162 -0.882151 -1.028713 -3.141593 -1.570796 0.000000
  22 0.000002 28.528530 -2.793942 -0.055765 0.181305 1.709144
  23 0.000003 3.833358 -0.000000 0.121463 -0.245000 1.188541
  24 -0.000002 13.500034 -0.000002 0.436899 0.015887 -0.084474
  25 -0.000001 11.928191 -0.000002 0.243368 0.393848 0.202419
  26 -0.000000 3.538862 0.000000 -2.328044 -0.043700 0.041268
  27 -0.000002 13.500037 -0.000002 1.635290 -0.000001 0.000000
  28 0.000002 28.528530 -2.793941 -2.701749 0.160308 -0.004186
  29 0.477785 2.546475 14.919432 0.000000 -0.000000 -1.570796
  30 -2.271080 -5.559393 7.882853 0.000000 -0.000000 -1.570796
  31 9.502441 -4.734107 -21.043625 -0.453967 0.398037 -1.690004
  32 -6.900194 8.058845 -21.016056 -0.003425 -0.084777 -1.573179
  33 6.061285 1.347009 6.131872 0.000000 -0.000000 -1.570796
  34 3.036001 9.581064 12.834120 0.000000 -0.000000 -1.570796
  35 -19.437265 -11.178457 -9.069633 0.000000 -0.000000 1.570796
  36 -19.447834 11.266090 -9.069633 0.000000 -0.000000 1.570796
  time 5
  0 -1.007424 2.054920 -25.681936 1.692985 -0.000000 1.756717
  1 0.000008 28.528524 -2.793936 -0.053440 -0.159736 -1.741065
  2 0.000000 3.833359 -0.000000 -0.595030 0.515178 -1.445876
  3 0.000002 13.500028 -0.000002 0.635155 -0.036145 0.118584
  4 0.000004 11.928187 -0.000001 0.697883 -0.087237 -0.114177
  5 0.000001 3.538863 0.000000 -2.328044 0.043700 -0.041268
  6 0.000002 13.500028 -0.000002 1.635290 0.000001 -0.000000
  7 0.000007 28.528524 -2.793936 0.077909 -0.306180 0.216695
  8 0.000000 4.967568 -0.000000 0.419640 0.123663 0.137180
  9 -0.000000 10.424906 0.000000 -0.280580 -0.011801 -1.736050
  10 0.000005 5.721373 0.000001 0.924374 -0.628776 -0.274420
  11 -0.000000 8.563451 -0.000003 -2.230874 0.244542 0.121027
  12 -0.000002 7.483447 0.000001 -0.335271 0.381068 0.033500
  13 -0.000000 10.424906 0.000000 0.095934 0.320329 0.322287
  14 -0.000000 3.096222 0.000001 0.039464 -0.136134 0.376240
  15 -0.000000 10.424906 0.000000 -0.050560 0.017960 1.835443
  16 0.000003 5.721370 -0.000002 0.575284 0.729887 1.167260
  17 -0.000002 8.563448 -0.000003 -1.732002 -0.176230 -0.151432
  18 -0.000003 7.483445 0.000003 -0.016166 0.010556 -0.096390
  19 6.950993 13.115602 -4.077471 -2.301319 -1.063463 0.806249
  20 -0.441220 2.076143 -0.519082 0.000000 0.000000 -0.000000
  21 0.440007 -11.139392 -1.435443 -3.141593 -1.570796 0.000000
  22 0.000008 28.528524 -2.793936 -0.055236 0.160930 1.717277
  23 0.000001 3.833359 -0.000000 0.264616 -0.207524 1.169882
  24 -0.000001 13.500027 -0.000001 0.110398 -0.001662 -0.021971
  25 -0.000003 11.928183 0.000003 0.165502 0.530433 0.042776
  26 -0.000001 3.538861 0.000000 -2.328044 -0.043700 0.041268
  27 -0.000001 13.500031 -0.000000 1.635290 -0.000001 0.000000
  28 0.000008 28.528524 -2.793936 -2.701749 0.160308 -0.004186
  29 2.226472 9.226960 19.121103 0.000000 -0.000000 -1.570796
  30 -2.271080 -4.664054 6.440704 0.000000 -0.000000 -1.570796
  31 9.034320 -5.367293 -21.052191 -0.544904 0.409435 -1.904492
  32 -6.900194 8.058845 -21.016056 0.053668 -0.104131 -1.578185
  33 6.094593 1.361254 6.612385 0.000000 -0.000000 -1.570796
  34 2.842379 11.140735 11.671736 0.000000 -0.000000 -1.570796
  35 -19.437265 -11.178457 -9.069633 0.000000 -0.000000 1.570796
  36 -19.447834 11.266090 -9.069633 0.000000 -0.000000 1.570796
  time 6
  0 -1.067250 -0.729252 -26.815928 1.692985 -0.000000 1.756717
  1 0.000005 28.528526 -2.793939 -0.055489 -0.132480 -1.728574
  2 -0.000001 3.833358 0.000000 -0.621156 0.589000 -1.343475
  3 0.000003 13.500029 -0.000003 0.772749 -0.054021 0.139658
  4 0.000001 11.928190 -0.000001 0.745891 -0.095225 -0.126891
  5 0.000001 3.538863 0.000000 -2.328044 0.043700 -0.041269
  6 0.000003 13.500028 -0.000004 1.635290 0.000001 -0.000000
  7 0.000004 28.528526 -2.793938 0.026476 -0.343894 0.206161
  8 -0.000000 4.967567 0.000000 0.307149 0.010743 0.111988
  9 -0.000000 10.424911 -0.000001 -0.282783 0.020080 -1.679634
  10 0.000002 5.721370 -0.000001 0.026255 -0.166971 0.101136
  11 -0.000001 8.563448 -0.000002 -0.005219 -0.001712 0.000798
  12 -0.000003 7.483447 -0.000002 -0.335271 0.381068 0.033500
  13 -0.000000 10.424911 -0.000001 0.177088 0.250725 0.350396
  14 -0.000002 3.096221 0.000001 -0.107584 -0.140156 0.561619
  15 -0.000000 10.424911 -0.000001 -0.067075 0.024276 1.847218
  16 -0.000004 5.721368 -0.000001 1.109875 0.221943 0.929727
  17 -0.000001 8.563441 0.000003 -1.695903 -0.170789 -0.152228
  18 -0.000001 7.483440 -0.000001 0.002134 0.010842 -0.071112
  19 20.703384 18.428787 -4.603398 -0.217668 -2.033805 -1.276849
  20 -0.441220 2.076142 -0.519083 0.000000 -0.000000 -0.000000
  21 0.960197 -15.951749 -5.341897 -3.141593 -1.570796 0.000000
  22 0.000005 28.528526 -2.793939 -0.055489 0.132480 1.728574
  23 -0.000001 3.833360 -0.000000 -0.144679 -0.125723 1.301419
  24 -0.000001 13.500026 -0.000004 1.216962 0.128429 -0.188159
  25 0.000001 11.928186 -0.000001 0.108280 0.489572 -0.012567
  26 0.000000 3.538862 0.000000 -2.328044 -0.043700 0.041268
  27 -0.000001 13.500030 -0.000004 1.635290 -0.000002 -0.000000
  28 0.000005 28.528526 -2.793939 -2.701749 0.160308 -0.004186
  29 3.975159 15.907445 23.322779 0.000000 -0.000000 -1.570796
  30 0.654890 -12.048050 2.920256 0.000000 -0.000000 -1.570796
  31 9.034320 -6.579057 -17.226692 -0.579347 0.347084 -1.915992
  32 -6.900194 8.058845 -21.016056 0.101112 -0.118124 -1.583540
  33 6.185001 1.399919 7.308052 0.000000 -0.000000 -1.570796
  34 0.325293 11.980556 9.865900 0.000000 -0.000000 -1.570796
  35 -19.437265 -11.178457 -9.069633 0.000000 -0.000000 1.570796
  36 -19.447834 11.266090 -9.069633 0.000000 -0.000000 1.570796
  time 7
  0 -1.067250 -1.206180 -26.815928 1.692985 -0.000000 1.756717
  1 0.000004 28.528526 -2.793939 -0.042633 -0.040913 -1.632166
  2 0.000001 3.833359 0.000000 -0.470371 0.563062 -1.368883
  3 -0.000001 13.500022 -0.000005 0.672860 -0.040749 0.124596
  4 0.000006 11.928186 0.000001 0.759181 -0.104820 -0.138208
  5 0.000001 3.538863 0.000001 -2.328044 0.043700 -0.041268
  6 -0.000001 13.500025 -0.000005 1.635290 0.000001 0.000000
  7 0.000004 28.528526 -2.793939 -0.084970 -0.366068 0.173130
  8 -0.000000 4.967567 0.000000 0.195103 -0.106192 0.099435
  9 -0.000001 10.424908 0.000001 -0.281521 0.054796 -1.618106
  10 0.000001 5.721371 0.000001 0.351032 0.459998 0.148929
  11 -0.000002 8.563443 -0.000001 -0.569261 0.022429 0.082473
  12 0.000002 7.483443 0.000002 -0.335271 0.381068 0.033500
  13 -0.000001 10.424908 0.000001 0.170575 0.241168 0.327783
  14 0.000002 3.096224 -0.000001 -0.090454 -0.202658 0.402577
  15 -0.000001 10.424908 0.000001 -0.083519 0.030785 1.858888
  16 0.000006 5.721371 -0.000001 1.359044 -0.000641 1.111964
  17 -0.000002 8.563445 -0.000001 -1.585816 -0.154039 -0.153420
  18 0.000001 7.483446 0.000002 0.015277 0.010637 -0.047771
  19 20.203075 19.598513 -1.912732 -0.744415 -2.365728 -0.048172
  20 -0.441220 2.076141 -0.519084 0.000000 -0.000000 -0.000000
  21 4.477492 -9.759286 -1.161226 3.141593 -1.570796 0.000000
  22 0.000004 28.528526 -2.793939 -0.096135 0.049348 1.822403
  23 0.000002 3.833359 -0.000000 0.188271 -0.080709 1.088105
  24 -0.000004 13.500024 0.000001 0.582700 0.030127 -0.109949
  25 -0.000001 11.928182 0.000006 0.207486 0.296992 -0.100130
  26 -0.000001 3.538861 0.000002 -2.328044 -0.043700 0.041268
  27 -0.000004 13.500029 0.000001 1.635290 -0.000001 0.000000
  28 0.000005 28.528526 -2.793939 -2.701749 0.160308 -0.004186
  29 5.056473 15.076345 23.322779 0.000000 -0.000000 -1.570796
  30 2.754397 -11.216690 3.410175 0.000000 -0.000000 -1.570796
  31 9.034321 -9.647812 -21.052191 -0.432588 0.145544 -1.859603
  32 -6.900194 8.058845 -21.016056 0.113679 -0.132561 -1.586793
  33 6.361059 1.475213 8.132814 0.000000 -0.000000 -1.570796
  34 -9.181519 11.980557 7.594475 0.000000 -0.000000 -1.570796
  35 -19.437265 -11.178457 -9.069633 0.000000 -0.000000 1.570796
  36 -19.447834 11.266090 -9.069633 0.000000 -0.000000 1.570796
  time 8
  0 -1.055988 -1.183259 -26.720627 1.692985 -0.000000 1.756717
  1 0.000004 28.528528 -2.793939 -0.042395 -0.066713 -1.652394
  2 0.000000 3.833359 0.000000 -0.497934 0.568611 -1.363537
  3 0.000002 13.500026 -0.000003 0.670349 -0.040435 0.124201
  4 0.000005 11.928191 -0.000001 0.772900 -0.111432 -0.149033
  5 0.000001 3.538862 -0.000000 -2.328044 0.043700 -0.041269
  6 0.000001 13.500029 -0.000003 1.635290 0.000001 0.000000
  7 0.000004 28.528528 -2.793939 -0.197713 -0.293437 0.109346
  8 0.000000 4.967565 -0.000000 0.081962 -0.224192 0.100119
  9 0.000000 10.424906 0.000001 -0.277668 0.086368 -1.561591
  10 0.000004 5.721374 -0.000000 0.860785 0.688267 0.446938
  11 -0.000002 8.563449 0.000001 -0.892380 0.055398 0.119275
  12 -0.000000 7.483442 -0.000002 -0.335271 0.381068 0.033500
  13 0.000000 10.424906 0.000001 0.152720 0.236975 0.264400
  14 -0.000000 3.096221 -0.000000 -0.062521 -0.262583 0.237455
  15 0.000000 10.424906 0.000001 -0.098969 0.037102 1.869804
  16 -0.000000 5.721373 -0.000001 1.313403 -0.073411 1.292906
  17 0.000002 8.563450 -0.000001 -1.473507 -0.136878 -0.152706
  18 0.000000 7.483444 0.000000 0.024121 0.010182 -0.027069
  19 19.311781 20.740034 3.813874 -0.388185 -2.696495 0.624584
  20 -0.441221 2.076143 -0.519084 0.000000 -0.000000 0.000000
  21 1.970589 -1.498694 -1.025612 3.141593 -1.570796 0.000000
  22 0.000004 28.528528 -2.793939 -0.088397 0.073966 1.802665
  23 -0.000001 3.833358 0.000000 0.153674 -0.086529 1.114913
  24 -0.000005 13.500025 0.000004 0.595457 0.031548 -0.112077
  25 -0.000003 11.928181 0.000004 0.211368 0.293494 -0.086993
  26 -0.000000 3.538861 0.000001 -2.328044 -0.043700 0.041268
  27 -0.000006 13.500029 0.000004 1.635290 -0.000001 0.000000
  28 0.000005 28.528528 -2.793939 -2.701749 0.160308 -0.004186
  29 6.137787 14.245245 23.322779 0.000000 -0.000000 -1.570796
  30 3.248136 -9.387695 4.603720 0.000000 -0.000000 -1.570796
  31 9.033932 -9.489272 -20.895107 -0.430715 0.150257 -1.847303
  32 -6.900194 8.058845 -21.016056 0.126873 -0.144318 -1.591454
  33 6.651316 1.599347 9.000605 0.000000 -0.000000 -1.570796
  34 -16.074430 11.980557 5.316568 0.000000 -0.000000 -1.570796
  35 -19.437265 -11.178457 -9.069633 0.000000 -0.000000 1.570796
  36 -19.447834 11.266090 -9.069633 0.000000 -0.000000 1.570796
  time 9
  0 -0.911643 -0.839448 -25.491325 1.692985 -0.000000 1.756717
  1 0.000004 28.528528 -2.793939 -0.040013 -0.123510 -1.697172
  2 0.000001 3.833359 0.000000 -0.416690 0.580681 -1.344628
  3 0.000001 13.500027 -0.000003 0.394741 -0.012481 0.076760
  4 0.000003 11.928189 -0.000001 0.875241 -0.103230 -0.163354
  5 0.000001 3.538864 0.000000 -2.328044 0.043700 -0.041269
  6 0.000002 13.500029 -0.000003 1.635290 0.000001 -0.000000
  7 0.000004 28.528528 -2.793939 -0.284316 -0.146520 0.027646
  8 0.000000 4.967566 -0.000000 -0.056432 0.089577 0.012568
  9 0.000001 10.424907 0.000000 -0.273355 0.109145 -1.520242
  10 0.000003 5.721374 0.000001 0.029928 0.121821 -0.026483
  11 -0.000003 8.563445 -0.000000 -0.005258 -0.001711 0.000803
  12 0.000003 7.483448 0.000000 -0.335271 0.381068 0.033500
  13 0.000001 10.424907 0.000000 0.118600 0.235858 0.165373
  14 0.000000 3.096223 0.000001 -0.024065 -0.317229 0.067517
  15 0.000001 10.424907 0.000000 -0.112524 0.042806 1.879340
  16 0.000003 5.721372 0.000001 1.066297 0.432309 1.402326
  17 -0.000003 8.563447 0.000000 -1.411292 -0.127422 -0.151474
  18 -0.000000 7.483449 0.000003 0.029521 0.009666 -0.009716
  19 23.319073 15.540433 -10.198719 1.198667 -2.568375 -0.492814
  20 -0.441221 2.076141 -0.519080 0.000000 -0.000000 0.000000
  21 14.761159 -7.500842 -3.179735 -3.141593 -1.570796 0.000000
  22 0.000004 28.528528 -2.793939 -0.073013 0.128714 1.759670
  23 0.000003 3.833358 0.000000 0.087434 -0.107395 1.190691
  24 -0.000000 13.500032 -0.000003 0.590294 0.030970 -0.111218
  25 0.000000 11.928187 -0.000000 0.237142 0.267589 0.004512
  26 -0.000001 3.538861 -0.000000 -2.328044 -0.043700 0.041269
  27 -0.000000 13.500033 -0.000003 1.635290 -0.000001 -0.000000
  28 0.000004 28.528528 -2.793939 -2.701749 0.160308 -0.004186
  29 -11.999915 20.374657 18.387854 0.000000 -0.000000 -1.570796
  30 3.572292 -7.558700 6.086563 0.000000 -0.000000 -1.570796
  31 9.031210 -8.379500 -19.795530 -0.415879 0.182674 -1.760361
  32 -6.900194 8.058845 -21.016056 0.230066 -0.146334 -1.607935
  33 7.084323 1.784531 9.825365 0.000000 -0.000000 -1.570796
  34 -8.708103 11.980557 3.561592 0.000000 -0.000000 -1.570796
  35 -19.437265 -11.178457 -9.069633 0.000000 -0.000000 1.570796
  36 -19.447834 11.266090 -9.069633 0.000000 -0.000000 1.570796
  time 10
  0 -0.990150 0.650401 -25.897253 1.692985 -0.000000 1.756717
  1 0.000002 28.528530 -2.793940 -0.035030 -0.180143 -1.742478
  2 -0.000002 3.833359 0.000000 -0.621127 0.542456 -1.406657
  3 0.000004 13.500032 -0.000002 0.641230 -0.036871 0.119564
  4 0.000004 11.928190 -0.000001 0.727287 -0.051645 -0.094102
  5 0.000001 3.538862 0.000002 -2.328044 0.043700 -0.041269
  6 0.000005 13.500032 -0.000002 1.635290 0.000001 -0.000000
  7 0.000002 28.528530 -2.793940 -0.321803 -0.016632 -0.026121
  8 0.000000 4.967564 -0.000000 -0.231311 0.382233 -0.124543
  9 -0.000000 10.424907 -0.000000 -0.271339 0.117882 -1.504209
  10 -0.000006 5.721372 0.000001 -0.674843 -0.230005 0.273068
  11 0.000000 8.563453 -0.000001 -0.521165 0.018606 0.076169
  12 0.000001 7.483443 0.000001 -0.335271 0.381068 0.033500
  13 -0.000000 10.424907 -0.000000 0.062838 0.233267 0.034717
  14 -0.000001 3.096226 0.000001 0.390647 -0.404267 -0.539617
  15 -0.000000 10.424907 -0.000000 -0.123296 0.047446 1.886890
  16 0.000007 5.721371 0.000001 1.014858 0.853009 1.266601
  17 0.000002 8.563445 -0.000001 -1.403202 -0.126198 -0.151271
  18 -0.000001 7.483438 -0.000002 0.032329 0.009221 0.003576
  19 5.801156 13.276161 -34.510578 1.479880 -2.244951 -0.605955
  20 -0.025925 0.122007 -0.030507 0.000000 -0.000000 -0.000000
  21 0.453096 -0.424369 -0.374371 -3.141593 -1.570796 0.000000
  22 0.000002 28.528530 -2.793940 -0.059902 0.184066 1.717161
  23 0.000000 3.833359 -0.000000 -0.182513 -0.183072 1.293934
  24 -0.000003 13.500029 -0.000004 1.154670 0.116805 -0.183414
  25 -0.000002 11.928192 -0.000000 0.293177 0.187082 0.246717
  26 -0.000000 3.538863 0.000001 -2.328044 -0.043700 0.041268
  27 -0.000004 13.500028 -0.000004 1.635290 -0.000002 -0.000000
  28 0.000002 28.528530 -2.793940 -2.701749 0.160308 -0.004186
  29 -24.399252 1.827997 12.019297 0.000000 -0.000000 -1.570796
  30 5.163053 -6.727339 7.444378 0.000000 -0.000000 -1.570796
  31 9.023824 -5.367260 -16.810963 -0.360954 0.262980 -1.518337
  32 -6.900194 8.058845 -21.016056 0.084913 -0.063640 -1.583527
  33 7.688631 2.042975 10.521032 0.000000 -0.000000 -1.570796
  34 3.081367 11.980556 2.858955 0.000000 -0.000000 -1.570796
  35 -19.437265 -11.178457 -9.069633 0.000000 -0.000000 1.570796
  36 -19.447834 11.266090 -9.069633 0.000000 -0.000000 1.570796
  time 11
  0 -1.178446 4.661532 -26.802258 1.692985 -0.000000 1.756716
  1 0.000002 28.528528 -2.793942 -0.031887 -0.205759 -1.763296
  2 -0.000003 3.833357 0.000000 -0.798732 0.394293 -1.557612
  3 -0.000003 13.500032 -0.000004 0.896098 -0.072399 0.156350
  4 0.000003 11.928195 0.000000 0.583420 0.009431 -0.033274
  5 0.000001 3.538863 0.000001 -2.328044 0.043700 -0.041268
  6 -0.000004 13.500031 -0.000004 1.635290 0.000001 0.000000
  7 0.000002 28.528528 -2.793942 -0.286812 0.039348 -0.035595
  8 -0.000001 4.967567 0.000000 -0.278505 0.689885 -0.083449
  9 -0.000001 10.424913 0.000001 -0.066122 0.054283 -1.587370
  10 0.000002 5.721373 0.000000 -1.129663 0.127993 -0.734192
  11 0.000003 8.563450 -0.000000 -1.298110 0.110465 0.147725
  12 0.000003 7.483447 0.000000 -0.335271 0.381068 0.033500
  13 -0.000001 10.424913 0.000001 -0.304181 0.218511 -0.143797
  14 0.000001 3.096220 -0.000001 0.460030 -0.743619 -0.512645
  15 -0.000001 10.424913 0.000001 -0.130405 0.050560 1.891858
  16 -0.000003 5.721373 -0.000001 0.414381 1.144001 0.295638
  17 0.000002 8.563447 -0.000003 -1.326149 -0.114627 -0.148833
  18 0.000002 7.483449 -0.000000 0.033394 0.008927 0.012087
  19 5.801149 13.276169 -34.510578 1.479880 -2.244951 -0.605955
  20 -0.025930 0.122007 -0.030504 0.000000 -0.000000 0.000000
  21 0.091627 -0.051841 -0.060452 -3.141593 -1.570796 0.000000
  22 0.000002 28.528528 -2.793942 -0.054701 0.209358 1.697962
  23 0.000002 3.833358 -0.000000 0.172232 -0.293794 1.104976
  24 -0.000000 13.500031 -0.000005 0.301257 0.006112 -0.059202
  25 -0.000003 11.928185 0.000001 0.386956 0.238083 0.329390
  26 -0.000001 3.538862 0.000001 -2.328044 -0.043700 0.041269
  27 -0.000001 13.500031 -0.000005 1.635290 -0.000001 -0.000000
  28 0.000002 28.528528 -2.793942 -2.701749 0.160308 -0.004186
  29 -16.897787 -3.945142 15.079523 0.000000 -0.000000 -1.570796
  30 7.415372 -6.730427 8.125944 0.000000 -0.000000 -1.570796
  31 9.970563 -4.320869 -21.065231 -0.274194 0.352731 -1.483924
  32 -6.900194 8.058845 -21.016056 -0.057924 0.021681 -1.571363
  33 8.492786 2.386887 11.001547 0.000000 -0.000000 -1.570796
  34 7.761298 11.587351 7.019897 0.000000 -0.000000 -1.570796
  35 -19.437265 -11.178457 -9.069633 0.000000 -0.000000 1.570796
  36 -19.447834 11.266090 -9.069633 0.000000 -0.000000 1.570796
end
