version 1
nodes
0 "Base" -1
1 "R.hip" 0
2 "R.thigh" 1
3 "R.calve" 2
4 "R.heel" 3
5 "R.foot" 4
6 "R.thigh.001" 2
7 "Torso_bot" 0
8 "Torso_top" 7
9 "R.shoulder" 8
10 "R.bicep" 9
11 "R.forearm" 10
12 "R.hand" 11
13 "Neck" 8
14 "Head" 13
15 "L.shoulder" 8
16 "L.bicep" 15
17 "L.forearm" 16
18 "L.hand" 17
19 "Torso_bot.001" 7
20 "Torso_bot.002" 19
21 "Torso_bot.003" 19
22 "L.hip" 0
23 "L.thigh" 22
24 "L.calve" 23
25 "L.heel" 24
26 "L.foot" 25
27 "L.thigh.001" 23
28 "Base.001" 0
29 "R.armIK.000" -1
30 "L.armIK.000" -1
31 "L.LegIK.000" -1
32 "R.LegIK.000" -1
33 "UpperarmIK.L" -1
34 "UpperarmIK.R" -1
35 "KneeIK.L" -1
36 "KneeIK.R" -1
end
skeleton
  time 0
  0 -0.192479 0.552432 -26.802284 1.692985 -0.000000 1.756718
  1 0.000004 28.528528 -2.793937 -0.031887 -0.205759 -1.763296
  2 0.000001 3.833358 0.000001 -0.796946 0.387362 -1.429815
  3 -0.000000 13.500026 -0.000003 0.830568 -0.062376 0.147760
  4 0.000005 11.928192 -0.000001 0.722683 0.102342 -0.115453
  5 0.000000 3.538863 -0.000001 -2.328044 0.043700 -0.041268
  6 -0.000000 13.500028 -0.000002 1.635290 0.000001 0.000000
  7 0.000004 28.528528 -2.793937 -0.135437 -0.007399 -0.062907
  8 -0.000000 4.967568 0.000000 -0.119236 0.000212 -0.075137
  9 0.000001 10.424911 0.000001 -0.000000 0.000000 -1.799097
  10 0.000001 5.721373 -0.000001 0.372560 -0.262323 -1.001852
  11 -0.000001 8.563444 0.000002 -0.841535 0.049442 0.114213
  12 0.000002 7.483444 0.000001 0.033562 -0.008824 -0.015087
  13 0.000001 10.424911 0.000001 -0.481842 -0.168659 -0.120667
  14 0.000000 3.096220 -0.000001 0.249976 -0.178367 0.271942
  15 0.000001 10.424911 0.000001 0.000000 -0.000000 1.799097
  16 -0.000006 5.721373 -0.000001 -0.433903 0.807843 0.901646
  17 0.000002 8.563445 -0.000001 -0.005209 0.001712 -0.000796
  18 0.000002 7.483443 -0.000002 0.033562 0.008824 0.015087
  19 0.119126 7.401339 -0.700705 -1.570796 -0.000000 -0.000000
  20 -0.182472 0.858614 -0.214675 0.000000 -0.000000 0.000000
  21 0.644811 -0.364824 -0.425438 -3.141593 -1.570796 0.000000
  22 0.000004 28.528528 -2.793937 -0.054701 0.209358 1.697962
  23 0.000002 3.833357 -0.000000 -0.348498 -0.056525 1.426516
  24 -0.000002 13.500026 -0.000003 0.927618 0.077416 -0.160247
  25 -0.000001 11.928189 0.000001 0.109856 0.008209 0.045962
  26 -0.000001 3.538861 0.000001 -2.328044 -0.043700 0.041269
  27 -0.000002 13.500026 -0.000002 1.635290 -0.000002 -0.000000
  28 0.000004 28.528528 -2.793937 -2.430570 0.079974 -0.007273
  29 -1.456767 11.248226 0.914814 0.000000 -0.000000 -1.570796
  30 -1.918080 -7.861698 0.953798 0.000000 -0.000000 -1.570796
  31 4.948629 -4.732633 -20.854012 -0.531476 0.000045 -1.570616
  32 -7.407561 6.550360 -20.864038 0.081761 0.047038 -1.692752
  33 9.525342 7.309030 11.180841 0.000000 -0.000000 -1.570796
  34 9.525341 -13.589853 11.180841 0.000000 -0.000000 -1.570796
  35 -7.313444 -5.708637 -10.484650 0.000000 -0.000000 1.570796
  36 -9.445749 6.414584 -10.051682 0.000000 -0.000000 1.570796
  time 1
  0 -1.189316 1.011646 -23.655291 1.692985 -0.000000 1.570796
  1 0.000004 28.528524 -2.793940 -0.031887 -0.205759 -1.763296
  2 -0.000001 3.833359 -0.000000 -0.812950 0.411527 -1.689659
  3 0.000000 13.500028 -0.000004 1.391862 -0.162308 0.197501
  4 0.000001 11.928190 -0.000002 0.877400 -0.008281 -0.045790
  5 -0.000000 3.538862 -0.000001 -2.328044 0.043700 -0.041268
  6 0.000001 13.500027 -0.000005 1.635290 0.000001 0.000000
  7 0.000004 28.528524 -2.793940 -0.169287 -0.000000 0.000000
  8 0.000000 4.967565 -0.000000 -0.205367 -0.015111 0.019975
  9 0.000000 10.424908 -0.000000 -0.000000 0.000000 -1.285425
  10 0.000003 5.721370 0.000000 1.390441 -1.273504 -1.121246
  11 -0.000005 8.563448 0.000002 -0.005222 -0.001712 0.000798
  12 0.000000 7.483445 -0.000000 0.033562 -0.008824 -0.015087
  13 0.000000 10.424908 -0.000000 -0.131605 -0.017718 0.159442
  14 -0.000000 3.096220 -0.000000 0.530673 -0.095191 0.706300
  15 0.000000 10.424908 -0.000000 -0.000000 -0.000000 1.265669
  16 -0.000006 5.721370 0.000001 0.873236 1.133939 0.532068
  17 0.000002 8.563446 -0.000002 -0.005212 0.001712 -0.000797
  18 0.000000 7.483448 0.000000 0.033562 0.008824 0.015087
  19 0.119125 7.401332 -0.700706 -1.570796 -0.000000 -0.000000
  20 -0.182472 0.858614 -0.214670 0.000000 0.000000 -0.000000
  21 0.644811 -0.364825 -0.425431 -3.141593 -1.570796 0.000000
  22 0.000004 28.528524 -2.793940 -0.054701 0.209358 1.697962
  23 0.000004 3.833357 0.000000 -0.680093 -0.746779 1.738662
  24 -0.000000 13.500022 -0.000000 1.020062 0.092812 -0.170749
  25 -0.000003 11.928184 0.000000 1.134544 -0.007138 0.053926
  26 -0.000001 3.538862 -0.000001 -2.328044 -0.043700 0.041268
  27 -0.000001 13.500025 -0.000000 1.635290 -0.000001 -0.000000
  28 0.000004 28.528524 -2.793940 -2.248486 0.119252 0.076811
  29 -0.884424 19.682631 31.172071 0.000000 -0.000000 -1.570796
  30 -1.054973 -17.716692 31.073484 0.000000 -0.000000 -1.570796
  31 -0.732701 -0.679178 -17.449732 0.493150 -0.007487 -1.555053
  32 -1.022884 2.088828 -14.797736 0.236069 -0.000000 -1.570796
  33 9.525342 7.309030 11.180841 0.000000 -0.000000 -1.570796
  34 9.525341 -13.589853 11.180841 0.000000 -0.000000 -1.570796
  35 -4.407471 -4.677855 -9.069633 0.000000 -0.000000 1.570796
  36 -8.869653 6.396861 -9.069633 0.000000 -0.000000 1.570796
  time 2
  0 -1.620660 1.011646 -23.655291 1.692985 -0.000000 1.570796
  1 0.000004 28.528524 -2.793940 -0.031887 -0.205759 -1.763296
  2 0.000001 3.833358 -0.000000 -0.867588 0.528625 -1.717319
  3 -0.000001 13.500029 -0.000003 1.505589 -0.184913 0.200317
  4 0.000001 11.928188 -0.000001 0.877400 -0.008281 -0.045790
  5 -0.000000 3.538862 0.000000 -2.328044 0.043700 -0.041268
  6 0.000000 13.500032 -0.000004 1.635290 0.000001 0.000000
  7 0.000004 28.528524 -2.793940 -0.169260 -0.002580 -0.021008
  8 -0.000000 4.967567 0.000000 -0.112395 0.037212 -0.009562
  9 0.000000 10.424907 -0.000001 -0.000000 -0.000000 -1.285425
  10 -0.000002 5.721374 0.000002 -1.134781 -1.875266 1.481084
  11 -0.000000 8.563446 -0.000001 -0.005199 -0.001711 0.000795
  12 -0.000000 7.483445 -0.000002 0.033562 -0.008824 -0.015087
  13 0.000000 10.424907 -0.000001 -0.132041 -0.013939 0.106750
  14 -0.000000 3.096219 -0.000000 0.546690 -0.066521 0.546848
  15 0.000000 10.424907 -0.000001 -0.000000 0.000000 1.265669
  16 -0.000002 5.721373 0.000001 0.431236 1.173757 0.176564
  17 -0.000001 8.563445 0.000000 -0.005215 0.001711 -0.000797
  18 -0.000001 7.483443 -0.000002 0.033562 0.008824 0.015087
  19 0.119127 7.401337 -0.700705 -1.570796 0.000000 0.000000
  20 -0.182472 0.858614 -0.214671 0.000000 0.000000 -0.000000
  21 0.644811 -0.364824 -0.425437 -3.141593 -1.570796 0.000000
  22 0.000004 28.528524 -2.793940 -0.054701 0.209358 1.697962
  23 -0.000000 3.833357 -0.000000 -0.711131 -0.930960 1.792863
  24 -0.000001 13.500025 0.000000 1.014493 0.091858 -0.170156
  25 -0.000002 11.928185 0.000001 1.134544 -0.007138 0.053926
  26 -0.000000 3.538861 -0.000001 -2.328044 -0.043700 0.041268
  27 -0.000002 13.500025 -0.000001 1.635290 -0.000001 -0.000000
  28 0.000004 28.528524 -2.793940 -2.248486 0.119252 0.076811
  29 -0.884424 19.682631 31.172071 0.000000 -0.000000 -1.570796
  30 -1.054973 -17.716692 31.073484 0.000000 -0.000000 -1.570796
  31 -0.732701 -0.370457 -17.449732 0.493150 -0.007487 -1.555053
  32 -1.022884 2.088828 -13.794718 0.236069 -0.000000 -1.570796
  33 9.525342 7.309030 11.180841 0.000000 -0.000000 -1.570796
  34 9.525341 -13.589853 11.180841 0.000000 -0.000000 -1.570796
  35 -4.407471 -5.725281 -9.069633 0.000000 -0.000000 1.570796
  36 -8.869652 7.473289 -9.069633 0.000000 -0.000000 1.570796
  time 3
  0 -1.553262 1.011646 -23.655291 1.692985 -0.000000 1.570796
  1 0.000004 28.528524 -2.793940 -0.031887 -0.205759 -1.763296
  2 -0.000001 3.833359 -0.000000 -0.869857 0.556255 -1.722327
  3 0.000000 13.500030 -0.000003 1.488364 -0.181476 0.200058
  4 0.000002 11.928189 -0.000003 0.877400 -0.008280 -0.045790
  5 -0.000000 3.538863 -0.000000 -2.328044 0.043700 -0.041268
  6 0.000000 13.500030 -0.000003 1.635290 0.000001 0.000000
  7 0.000004 28.528524 -2.793940 -0.169260 -0.002580 -0.021008
  8 -0.000000 4.967567 0.000000 -0.020681 0.092197 -0.034198
  9 0.000000 10.424910 -0.000000 -0.000000 -0.000000 -1.285425
  10 0.000002 5.721373 0.000000 -0.491349 -1.955901 1.059702
  11 -0.000001 8.563445 0.000000 -0.366641 0.008452 0.054816
  12 0.000001 7.483444 -0.000001 0.033562 -0.008824 -0.015087
  13 0.000000 10.424910 -0.000000 -0.093110 -0.022259 0.130735
  14 -0.000000 3.096220 -0.000000 0.552835 -0.051567 0.468650
  15 0.000000 10.424910 -0.000000 -0.000000 0.000000 1.265669
  16 -0.000003 5.721372 0.000001 -0.059341 1.146311 -0.248307
  17 0.000003 8.563446 -0.000003 -0.005218 0.001712 -0.000798
  18 -0.000003 7.483441 -0.000003 0.033562 0.008824 0.015087
  19 0.119127 7.401337 -0.700705 -1.570796 0.000000 0.000000
  20 -0.182472 0.858614 -0.214671 0.000000 0.000000 -0.000000
  21 0.644811 -0.364824 -0.425437 -3.141593 -1.570796 0.000000
  22 0.000004 28.528524 -2.793940 -0.054701 0.209358 1.697962
  23 0.000004 3.833357 0.000000 -0.673215 -0.807232 1.747280
  24 -0.000001 13.500021 0.000001 1.017205 0.092322 -0.170445
  25 -0.000003 11.928185 0.000002 1.134544 -0.007138 0.053926
  26 0.000000 3.538861 -0.000001 -2.328044 -0.043700 0.041268
  27 -0.000002 13.500024 0.000001 1.635290 -0.000001 -0.000000
  28 0.000004 28.528524 -2.793940 -2.248486 0.119252 0.076811
  29 -0.884424 19.682631 31.172071 0.000000 -0.000000 -1.570796
  30 -1.054973 -17.716692 31.073484 0.000000 -0.000000 -1.570796
  31 -0.732701 -0.524817 -17.449732 0.493150 -0.007487 -1.555053
  32 -1.022884 2.088828 -13.951440 0.236069 -0.000000 -1.570796
  33 9.525342 7.309030 11.180841 0.000000 -0.000000 -1.570796
  34 9.525341 -13.589853 11.180841 0.000000 -0.000000 -1.570796
  35 -4.407471 -4.845151 -9.069633 0.000000 -0.000000 1.570796
  36 -8.869652 7.802808 -9.069633 0.000000 -0.000000 1.570796
  time 4
  0 -1.404988 1.011646 -23.655291 1.692985 -0.000000 1.570796
  1 0.000004 28.528524 -2.793941 -0.031887 -0.205759 -1.763296
  2 -0.000001 3.833358 -0.000000 -0.845257 0.490924 -1.707751
  3 0.000001 13.500030 -0.000002 1.449826 -0.173799 0.199263
  4 0.000000 11.928188 -0.000002 0.877400 -0.008281 -0.045790
  5 -0.000000 3.538863 -0.000000 -2.328044 0.043700 -0.041269
  6 0.000001 13.500030 -0.000003 1.635290 0.000001 0.000000
  7 0.000004 28.528524 -2.793940 -0.169260 -0.002580 -0.021008
  8 -0.000000 4.967567 0.000000 -0.020591 0.092882 0.022236
  9 -0.000000 10.424906 -0.000000 -0.000000 0.000000 -1.285425
  10 0.000002 5.721374 0.000001 -0.801328 -1.852803 1.110238
  11 -0.000007 8.563451 -0.000002 -0.005200 -0.001712 0.000795
  12 0.000001 7.483448 -0.000001 0.033562 -0.008824 -0.015087
  13 -0.000000 10.424906 -0.000000 -0.054391 -0.031312 0.156069
  14 -0.000001 3.096220 -0.000000 0.543064 -0.074036 0.587258
  15 -0.000000 10.424906 -0.000000 -0.000000 -0.000000 1.265669
  16 0.000002 5.721374 0.000000 -0.082614 1.233149 -0.367308
  17 -0.000000 8.563449 0.000000 -0.005199 0.001711 -0.000795
  18 0.000002 7.483445 -0.000002 0.033562 0.008824 0.015087
  19 0.119127 7.401337 -0.700705 -1.570796 0.000000 0.000000
  20 -0.182472 0.858614 -0.214671 0.000000 0.000000 -0.000000
  21 0.644811 -0.364824 -0.425437 -3.141593 -1.570796 0.000000
  22 0.000004 28.528524 -2.793941 -0.054701 0.209358 1.697962
  23 -0.000000 3.833357 -0.000000 -0.676196 -0.781769 1.739435
  24 -0.000001 13.500021 0.000004 1.019870 0.092779 -0.170728
  25 -0.000003 11.928186 -0.000000 1.134544 -0.007138 0.053926
  26 -0.000000 3.538862 0.000000 -2.328044 -0.043700 0.041268
  27 -0.000002 13.500024 0.000002 1.635290 -0.000001 -0.000000
  28 0.000004 28.528524 -2.793940 -2.248486 0.119252 0.076811
  29 -0.884424 19.682631 31.172071 0.000000 -0.000000 -1.570796
  30 -1.054973 -17.716692 31.073484 0.000000 -0.000000 -1.570796
  31 -0.732701 -0.679178 -17.449732 0.493150 -0.007487 -1.555053
  32 -1.022884 2.088828 -14.296227 0.236069 -0.000000 -1.570796
  33 9.525342 7.309030 11.180841 0.000000 -0.000000 -1.570796
  34 9.525341 -13.589853 11.180841 0.000000 -0.000000 -1.570796
  35 -4.407471 -4.823330 -9.069633 0.000000 -0.000000 1.570796
  36 -8.869652 7.138278 -9.069633 0.000000 -0.000000 1.570796
  time 5
  0 -1.256714 1.011646 -23.655291 1.692985 -0.000000 1.570796
  1 0.000004 28.528524 -2.793940 -0.031887 -0.205759 -1.763296
  2 -0.000001 3.833358 0.000000 -0.825097 0.446633 -1.697220
  3 -0.000000 13.500031 -0.000001 1.410151 -0.165924 0.198130
  4 0.000001 11.928188 -0.000002 0.877400 -0.008281 -0.045790
  5 -0.000000 3.538862 0.000000 -2.328044 0.043700 -0.041268
  6 0.000000 13.500031 -0.000003 1.635290 0.000002 0.000000
  7 0.000004 28.528524 -2.793940 -0.169260 -0.002580 -0.021008
  8 -0.000000 4.967567 0.000000 -0.114997 0.038953 0.018568
  9 0.000000 10.424908 -0.000001 -0.000000 -0.000000 -1.285425
  10 0.000002 5.721369 -0.000000 -1.241200 -1.838827 1.547138
  11 -0.000002 8.563451 -0.000002 -0.005205 -0.001712 0.000795
  12 0.000000 7.483447 -0.000002 0.033562 -0.008824 -0.015087
  13 0.000000 10.424908 -0.000001 -0.074421 -0.027627 0.158537
  14 -0.000000 3.096223 0.000000 0.530672 -0.095191 0.706300
  15 0.000000 10.424908 -0.000001 -0.000000 0.000000 1.265669
  16 -0.000001 5.721374 0.000002 0.433969 1.210692 0.133996
  17 0.000002 8.563448 0.000002 -0.005205 0.001711 -0.000795
  18 -0.000001 7.483442 -0.000003 0.033562 0.008824 0.015087
  19 0.119127 7.401337 -0.700705 -1.570796 0.000000 0.000000
  20 -0.182472 0.858614 -0.214671 0.000000 0.000000 -0.000000
  21 0.644811 -0.364824 -0.425437 -3.141593 -1.570796 0.000000
  22 0.000004 28.528524 -2.793940 -0.054701 0.209358 1.697962
  23 -0.000000 3.833357 -0.000000 -0.676988 -0.750907 1.737079
  24 -0.000001 13.500019 0.000001 1.020037 0.092808 -0.170746
  25 -0.000003 11.928185 -0.000001 1.134544 -0.007138 0.053926
  26 -0.000000 3.538862 0.000000 -2.328045 -0.043700 0.041268
  27 -0.000002 13.500024 0.000000 1.635290 -0.000001 -0.000000
  28 0.000004 28.528524 -2.793940 -2.248486 0.119252 0.076811
  29 -0.884424 19.682631 31.172071 0.000000 -0.000000 -1.570796
  30 -1.054973 -17.716692 31.073484 0.000000 -0.000000 -1.570796
  31 -0.732701 -0.679178 -17.449732 0.493150 -0.007487 -1.555053
  32 -1.022884 2.088828 -14.641015 0.236069 -0.000000 -1.570796
  33 9.525342 7.309030 11.180841 0.000000 -0.000000 -1.570796
  34 9.525341 -13.589853 11.180841 0.000000 -0.000000 -1.570796
  35 -4.407471 -4.677855 -9.069633 0.000000 -0.000000 1.570796
  36 -8.869653 6.726380 -9.069633 0.000000 -0.000000 1.570796
end
