version 1
nodes
0 "Base" -1
1 "R.hip" 0
2 "R.thigh" 1
3 "R.calve" 2
4 "R.heel" 3
5 "R.foot" 4
6 "R.thigh.001" 2
7 "Torso_bot" 0
8 "Torso_top" 7
9 "R.shoulder" 8
10 "R.bicep" 9
11 "R.forearm" 10
12 "R.hand" 11
13 "Neck" 8
14 "Head" 13
15 "L.shoulder" 8
16 "L.bicep" 15
17 "L.forearm" 16
18 "L.hand" 17
19 "Torso_bot.001" 7
20 "Torso_bot.002" 19
21 "Torso_bot.003" 19
22 "L.hip" 0
23 "L.thigh" 22
24 "L.calve" 23
25 "L.heel" 24
26 "L.foot" 25
27 "L.thigh.001" 23
28 "Base.001" 0
29 "R.armIK.000" -1
30 "L.armIK.000" -1
31 "L.LegIK.000" -1
32 "R.LegIK.000" -1
33 "UpperarmIK.L" -1
34 "UpperarmIK.R" -1
35 "KneeIK.L" -1
36 "KneeIK.R" -1
end
skeleton
  time 0
  0 0.922058 0.552432 -27.193228 1.692985 -0.000000 1.756718
  1 0.000004 28.528530 -2.793938 -0.031887 -0.205759 -1.763296
  2 -0.000001 3.833358 0.000000 -0.882539 0.350402 -1.534675
  3 0.000003 13.500030 -0.000002 0.850988 -0.065438 0.150505
  4 0.000003 11.928191 -0.000001 0.759631 -0.008280 -0.045790
  5 0.000000 3.538864 -0.000002 -2.328044 0.043700 -0.041268
  6 0.000003 13.500031 -0.000002 1.635290 0.000001 0.000000
  7 0.000004 28.528530 -2.793938 -0.194535 0.050943 -0.022929
  8 0.000000 4.967567 -0.000000 -0.120491 -0.081349 0.090451
  9 0.000000 10.424909 0.000001 0.142313 0.009263 -1.681140
  10 -0.000006 5.721373 0.000001 0.343547 -1.708901 -1.115672
  11 0.000002 8.563450 0.000000 -1.104279 0.082731 0.136931
  12 0.000000 7.483451 0.000001 -0.335270 0.381068 0.033500
  13 0.000000 10.424909 0.000001 -0.566373 0.253256 0.030730
  14 -0.000000 3.096222 -0.000000 0.780933 -0.199091 -0.093361
  15 0.000000 10.424909 0.000001 -0.132973 0.051695 1.893650
  16 0.000001 5.721372 -0.000000 0.459622 0.758016 0.963125
  17 0.000001 8.563447 0.000000 -0.952330 -0.062742 -0.124850
  18 -0.000001 7.483450 0.000000 0.033562 0.008824 0.015087
  19 0.119127 7.401338 -0.700706 -1.570796 -0.000000 -0.000000
  20 -0.182472 0.858614 -0.214675 0.000000 0.000000 -0.000000
  21 0.644811 -0.364824 -0.425436 3.141593 -1.570796 0.000000
  22 0.000004 28.528530 -2.793938 -0.054701 0.209358 1.697962
  23 0.000002 3.833357 -0.000000 -0.113829 0.090888 1.449120
  24 0.000002 13.500029 0.000002 0.818204 0.060550 -0.146068
  25 -0.000002 11.928183 0.000001 0.109856 0.008209 0.045962
  26 -0.000001 3.538862 0.000001 -2.328044 -0.043700 0.041269
  27 0.000002 13.500029 0.000002 1.635290 -0.000001 -0.000000
  28 0.000004 28.528530 -2.793937 -2.434676 0.199218 -0.026052
  29 1.094962 8.955638 3.607792 0.000000 -0.000000 -1.570796
  30 1.947187 -8.898289 0.574455 0.000000 -0.000000 -1.570796
  31 9.970563 -4.320869 -20.854012 -0.531476 0.000045 -1.570616
  32 -7.407562 4.321485 -20.864038 0.118301 0.000000 -1.570796
  33 9.525341 2.828479 11.180841 0.000000 -0.000000 -1.570796
  34 9.525343 8.834909 11.180841 0.000000 -0.000000 -1.570796
  35 -19.481180 -3.775503 -9.069633 0.000000 -0.000000 1.570796
  36 -19.481180 6.820030 -9.069633 0.000000 -0.000000 1.570796
  time 1
  0 1.775700 0.552432 -25.485786 1.692985 -0.000000 1.756718
  1 0.000004 28.528530 -2.793938 -0.031887 -0.205759 -1.763296
  2 0.000001 3.833358 0.000000 -0.655660 0.379430 -1.501660
  3 0.000003 13.500027 -0.000003 0.375229 -0.011016 0.073144
  4 0.000007 11.928187 0.000001 0.985732 -0.008281 -0.045791
  5 0.000000 3.538865 -0.000001 -2.328044 0.043700 -0.041268
  6 0.000003 13.500029 -0.000003 1.635290 0.000001 0.000000
  7 0.000004 28.528530 -2.793938 -0.361569 -0.010770 -0.043647
  8 0.000000 4.967566 -0.000000 -0.189098 -0.105012 0.010131
  9 0.000000 10.424909 -0.000001 0.142313 0.009263 -1.681140
  10 0.000002 5.721374 -0.000000 -0.116710 -1.676378 -0.765537
  11 -0.000000 8.563449 0.000002 -0.807095 0.045558 0.110615
  12 -0.000001 7.483443 0.000002 -0.335271 0.381068 0.033500
  13 0.000000 10.424909 -0.000001 0.054879 0.100089 0.120188
  14 0.000000 3.096222 -0.000000 -0.294784 -0.229777 -0.049874
  15 0.000000 10.424909 -0.000001 -0.132972 0.051695 1.893650
  16 0.000001 5.721373 -0.000000 -0.040544 0.649636 0.504362
  17 -0.000001 8.563444 0.000005 -1.288433 -0.109035 -0.147316
  18 -0.000003 7.483448 0.000002 0.033562 0.008824 0.015087
  19 0.119125 7.401334 -0.700707 -1.570796 -0.000000 -0.000000
  20 -0.182472 0.858614 -0.214672 0.000000 -0.000000 0.000000
  21 0.644811 -0.364824 -0.425436 -3.141593 -1.570796 0.000000
  22 0.000004 28.528530 -2.793938 -0.054701 0.209358 1.697962
  23 0.000002 3.833358 -0.000000 -0.419405 0.114958 1.443918
  24 0.000000 13.500032 0.000000 0.718880 0.046675 -0.131696
  25 -0.000001 11.928187 0.000001 0.414741 -0.274838 0.279410
  26 -0.000000 3.538861 0.000001 -2.328044 -0.043700 0.041269
  27 -0.000000 13.500031 0.000000 1.635290 -0.000001 0.000000
  28 0.000004 28.528530 -2.793938 -2.508402 0.059878 0.071286
  29 3.641044 9.378573 4.207190 0.000000 -0.000000 -1.570796
  30 -4.556690 -8.386799 3.412701 0.000000 -0.000000 -1.570796
  31 2.791633 -4.320869 -21.035057 -0.211303 -0.090494 -1.216473
  32 -7.407562 4.321485 -20.864038 0.344401 0.000000 -1.570796
  33 9.525341 2.828479 11.180841 0.000000 -0.000000 -1.570796
  34 9.525343 8.834909 11.180841 0.000000 -0.000000 -1.570796
  35 -19.481180 -3.775503 -9.069633 0.000000 -0.000000 1.570796
  36 -19.481180 6.820030 -9.069633 0.000000 -0.000000 1.570796
  time 2
  0 4.285873 1.746018 -28.091881 1.692985 -0.000000 0.985604
  1 0.000002 28.528534 -2.793941 -0.031887 -0.205759 -1.763296
  2 -0.000001 3.833359 -0.000000 -1.020630 -0.385181 -1.502524
  3 -0.000001 13.500029 -0.000006 1.171432 -0.119905 0.184762
  4 0.000004 11.928195 -0.000000 0.971582 -0.005353 -0.031820
  5 0.000001 3.538863 -0.000000 -2.328044 0.043700 -0.041269
  6 -0.000000 13.500031 -0.000006 1.635290 0.000001 -0.000000
  7 0.000002 28.528534 -2.793942 -0.419585 -0.089758 0.002097
  8 -0.000000 4.967568 0.000001 -0.551515 -0.308696 0.039368
  9 -0.000001 10.424908 -0.000002 0.142314 0.009263 -1.681140
  10 -0.000001 5.721373 0.000001 -0.848039 -0.736338 0.311405
  11 0.000000 8.563448 -0.000001 -1.453779 0.133872 0.152379
  12 0.000001 7.483445 0.000001 -0.335271 0.381068 0.033500
  13 -0.000001 10.424908 -0.000002 0.444467 0.329058 0.686507
  14 0.000000 3.096221 -0.000001 0.549969 -0.277585 -0.223717
  15 -0.000001 10.424908 -0.000002 -0.132973 0.051695 1.893650
  16 -0.000001 5.721372 -0.000000 0.714257 1.124201 0.966543
  17 -0.000002 8.563449 0.000001 -1.919621 -0.203739 -0.144130
  18 0.000001 7.483445 0.000001 0.033562 0.008824 0.015087
  19 0.119125 7.401338 -0.700705 -1.570796 0.000000 0.000000
  20 -0.182472 0.858615 -0.214675 0.000000 -0.000000 -0.000000
  21 0.644811 -0.364824 -0.425435 -3.141593 -1.570796 0.000000
  22 0.000002 28.528534 -2.793941 -0.054701 0.209358 1.697962
  23 -0.000000 3.833357 0.000001 -0.591974 -0.641757 1.465512
  24 0.000000 13.500029 -0.000000 1.124918 0.111361 -0.180893
  25 -0.000001 11.928186 -0.000001 0.193575 -0.132849 0.337713
  26 -0.000001 3.538862 -0.000001 -2.328044 -0.043700 0.041269
  27 0.000000 13.500027 -0.000000 1.635290 -0.000001 -0.000000
  28 0.000002 28.528534 -2.793941 -2.504157 0.055725 0.071196
  29 7.027606 14.009895 2.243330 0.000000 -0.000000 -1.570796
  30 -2.456822 -0.215570 2.576843 0.000000 -0.000000 -1.570796
  31 2.791633 -4.320869 -21.104904 -0.420053 0.058259 -1.252390
  32 -2.305925 5.257325 -19.100012 0.330397 0.010704 -1.561353
  33 6.291013 -9.768973 6.660604 0.000000 -0.000000 -1.570796
  34 9.525343 5.177690 11.040117 0.000000 -0.000000 -1.570796
  35 -19.481180 -2.857540 -9.069633 0.000000 -0.000000 1.570796
  36 -15.872588 8.775069 -9.069633 0.000000 -0.000000 1.570796
  time 3
  0 5.031201 1.129546 -28.533998 1.692985 -0.000000 0.985604
  1 0.000002 28.528534 -2.793941 -0.031887 -0.205759 -1.763296
  2 -0.000001 3.833358 0.000000 -0.486259 -0.166173 -1.208015
  3 0.000000 13.500030 -0.000007 1.143929 -0.114831 0.182522
  4 0.000002 11.928189 0.000001 0.073931 -0.222655 -0.209455
  5 0.000001 3.538862 -0.000001 -2.328044 0.043700 -0.041268
  6 -0.000001 13.500029 -0.000006 1.635290 0.000001 0.000000
  7 0.000002 28.528534 -2.793942 -0.481776 -0.165862 0.052859
  8 0.000001 4.967566 -0.000000 -0.951079 -0.487301 0.150248
  9 0.000000 10.424910 -0.000001 0.142314 0.009263 -1.681140
  10 -0.000000 5.721373 -0.000001 -0.917364 -0.110355 0.178949
  11 -0.000002 8.563452 0.000006 -1.025267 0.072108 0.131026
  12 0.000000 7.483449 0.000004 -0.335270 0.381068 0.033500
  13 0.000000 10.424910 -0.000001 0.069670 0.423281 0.377263
  14 -0.000000 3.096222 0.000001 0.237717 -0.353294 -0.182484
  15 0.000000 10.424910 -0.000001 -0.132973 0.051695 1.893650
  16 0.000000 5.721374 0.000000 -0.654254 0.821162 -0.043659
  17 -0.000002 8.563450 -0.000001 -2.422339 -0.265247 -0.100863
  18 -0.000001 7.483445 -0.000003 0.033562 0.008824 0.015087
  19 0.119125 7.401339 -0.700703 -1.570796 -0.000000 -0.000000
  20 -0.182472 0.858613 -0.214671 0.000000 -0.000000 -0.000000
  21 0.644811 -0.364824 -0.425437 -3.141593 -1.570796 0.000000
  22 0.000002 28.528534 -2.793941 -0.054701 0.209358 1.697962
  23 -0.000002 3.833358 -0.000000 -0.668342 -0.543580 1.491222
  24 0.000000 13.500028 0.000000 1.198518 0.124958 -0.186830
  25 -0.000001 11.928186 -0.000001 0.196801 -0.154855 0.351810
  26 -0.000001 3.538862 -0.000000 -2.328044 -0.043700 0.041268
  27 0.000000 13.500027 0.000001 1.635290 -0.000001 -0.000000
  28 0.000002 28.528534 -2.793941 -2.492066 0.043897 0.070844
  29 10.414166 18.641216 0.279470 0.000000 -0.000000 -1.570796
  30 -0.356954 7.188424 1.502171 0.000000 -0.000000 -1.570796
  31 2.791633 -4.320869 -21.069981 -0.413524 0.048261 -1.228295
  32 12.270177 7.931152 -20.897480 -0.586406 -0.268851 -1.570796
  33 6.593130 -9.709222 6.995438 0.000000 -0.000000 -1.570796
  34 9.525343 -1.614288 10.778769 0.000000 -0.000000 -1.570796
  35 -19.481180 -1.152754 -9.069633 0.000000 -0.000000 1.570796
  36 -9.170912 12.405853 -9.069633 0.000000 -0.000000 1.570796
  time 4
  0 5.776531 0.513075 -28.976118 1.692985 -0.000000 0.985604
  1 0.000002 28.528532 -2.793941 -0.031887 -0.205759 -1.763296
  2 -0.000001 3.833358 -0.000001 -0.570074 0.009040 -1.191726
  3 0.000003 13.500030 -0.000004 1.190185 -0.123398 0.186208
  4 0.000001 11.928190 -0.000000 0.131748 -0.382161 -0.245211
  5 0.000001 3.538864 -0.000000 -2.328044 0.043700 -0.041269
  6 0.000003 13.500030 -0.000003 1.635290 0.000001 -0.000000
  7 0.000002 28.528532 -2.793942 -0.514258 -0.156817 0.056574
  8 0.000000 4.967566 -0.000001 -0.995338 -0.479511 0.172395
  9 -0.000000 10.424911 -0.000001 0.142313 0.009263 -1.681140
  10 -0.000000 5.721373 -0.000004 -1.290850 -0.133702 -0.009984
  11 -0.000006 8.563451 0.000000 -0.931314 0.060129 0.122946
  12 0.000001 7.483447 0.000001 -0.335271 0.381069 0.033500
  13 -0.000000 10.424911 -0.000001 -0.335397 0.399434 0.038102
  14 -0.000000 3.096222 0.000000 -0.092251 -0.413836 -0.115430
  15 -0.000000 10.424911 -0.000001 -0.132973 0.051695 1.893650
  16 0.000000 5.721372 0.000002 -0.381939 0.737056 0.121271
  17 -0.000003 8.563448 0.000001 -2.669663 -0.285678 -0.069536
  18 -0.000000 7.483446 -0.000003 0.033562 0.008824 0.015087
  19 0.119124 7.401335 -0.700707 -1.570796 -0.000000 -0.000000
  20 -0.182472 0.858615 -0.214674 0.000000 -0.000000 0.000000
  21 0.644811 -0.364824 -0.425437 -3.141593 -1.570796 0.000000
  22 0.000002 28.528532 -2.793941 -0.054701 0.209358 1.697962
  23 0.000002 3.833358 -0.000000 -0.744037 -0.482029 1.513341
  24 0.000000 13.500030 0.000000 1.263095 0.137210 -0.191201
  25 -0.000001 11.928186 0.000001 0.196888 -0.184473 0.383726
  26 -0.000001 3.538861 -0.000000 -2.328044 -0.043700 0.041269
  27 -0.000000 13.500028 0.000001 1.635290 -0.000001 -0.000000
  28 0.000002 28.528532 -2.793941 -2.473970 0.026203 0.070049
  29 7.514271 16.330179 -3.275803 0.000000 -0.000000 -1.570796
  30 -1.392064 6.437351 1.273581 0.000000 -0.000000 -1.570796
  31 2.791633 -4.320869 -21.035057 -0.406119 0.041866 -1.185521
  32 12.270177 7.931152 -21.016729 -0.565486 -0.414518 -1.492812
  33 7.348424 -9.290953 7.832520 0.000000 -0.000000 -1.570796
  34 9.525342 -5.271507 10.638044 0.000000 -0.000000 -1.570796
  35 -19.481180 -0.234792 -9.069633 0.000000 -0.000000 1.570796
  36 -5.562319 14.360893 -9.069633 0.000000 -0.000000 1.570796
  time 5
  0 5.464588 0.705723 -30.048599 1.692985 -0.000000 0.985604
  1 0.000002 28.528534 -2.793941 -0.031887 -0.205759 -1.763296
  2 -0.000001 3.833358 -0.000001 -0.608310 0.016667 -1.186764
  3 0.000001 13.500030 -0.000006 1.318583 -0.147933 0.194315
  4 0.000000 11.928190 0.000002 0.075648 -0.420612 -0.272002
  5 0.000001 3.538863 -0.000000 -2.328044 0.043700 -0.041269
  6 0.000000 13.500030 -0.000006 1.635290 0.000001 -0.000000
  7 0.000002 28.528534 -2.793942 -0.546678 -0.147653 0.059987
  8 0.000000 4.967565 -0.000001 -1.039240 -0.470858 0.194058
  9 -0.000000 10.424910 0.000001 0.142313 0.009263 -1.681140
  10 0.000001 5.721370 -0.000005 -1.677809 -0.216099 -0.007355
  11 0.000002 8.563452 0.000002 -0.640131 0.028607 0.091416
  12 0.000003 7.483449 0.000001 -0.335270 0.381069 0.033500
  13 -0.000000 10.424910 0.000001 -0.683209 0.269196 -0.243591
  14 -0.000000 3.096221 0.000001 -0.422740 -0.449803 -0.031699
  15 -0.000000 10.424910 0.000001 -0.132972 0.051695 1.893650
  16 -0.000003 5.721376 0.000000 0.113020 0.450910 0.262048
  17 -0.000004 8.563450 0.000001 -2.691370 -0.287097 -0.066558
  18 0.000001 7.483451 0.000000 0.033562 0.008824 0.015087
  19 0.119126 7.401334 -0.700707 -1.570796 -0.000000 -0.000000
  20 -0.182472 0.858614 -0.214674 0.000000 -0.000000 0.000000
  21 0.644811 -0.364824 -0.425437 -3.141593 -1.570796 0.000000
  22 0.000002 28.528534 -2.793941 -0.054701 0.209358 1.697962
  23 -0.000000 3.833358 0.000000 -0.787867 -0.482953 1.511148
  24 -0.000001 13.500031 0.000000 1.393804 0.162691 -0.197571
  25 -0.000001 11.928188 0.000000 0.109165 -0.154747 0.425039
  26 -0.000000 3.538861 0.000000 -2.328044 -0.043700 0.041269
  27 -0.000001 13.500029 0.000000 1.635290 -0.000001 0.000000
  28 0.000002 28.528534 -2.793941 -2.452615 0.005358 0.068701
  29 4.614375 14.019144 -6.831076 0.000000 -0.000000 -1.570796
  30 -3.316790 6.001547 -1.048241 0.000000 -0.000000 -1.570796
  31 2.791633 -4.320869 -21.035057 -0.485759 0.089373 -1.168611
  32 12.270177 7.931152 -21.017017 -0.634898 -0.459790 -1.486100
  33 8.330308 -8.155652 8.920725 0.000000 -0.000000 -1.570796
  34 9.525342 -5.271507 10.638044 0.000000 -0.000000 -1.570796
  35 -19.481180 -0.234792 -9.069633 0.000000 -0.000000 1.570796
  36 -5.562319 14.360893 -9.069633 0.000000 -0.000000 1.570796
  time 6
  0 4.773870 1.129547 -31.358173 1.692985 -0.000000 0.985604
  1 0.000002 28.528534 -2.793941 -0.031887 -0.205759 -1.763296
  2 0.000001 3.833358 -0.000001 -0.623487 0.032267 -1.176477
  3 0.000001 13.500031 -0.000007 1.455923 -0.175012 0.199409
  4 0.000000 11.928192 0.000000 -0.022581 -0.421718 -0.309149
  5 0.000000 3.538864 -0.000001 -2.328044 0.043700 -0.041268
  6 0.000000 13.500031 -0.000006 1.635290 0.000002 0.000000
  7 0.000002 28.528534 -2.793941 -0.579023 -0.138385 0.063093
  8 0.000000 4.967565 -0.000000 -1.082723 -0.461371 0.215177
  9 0.000000 10.424911 0.000000 0.142314 0.009263 -1.681140
  10 -0.000002 5.721374 0.000001 -1.661051 -0.204535 0.049368
  11 -0.000003 8.563450 -0.000000 -0.653702 0.029862 0.093078
  12 0.000002 7.483441 -0.000000 -0.335271 0.381068 0.033500
  13 0.000000 10.424911 0.000000 -0.817253 0.446306 -0.321526
  14 -0.000000 3.096223 -0.000001 -0.426729 -0.494953 0.013798
  15 0.000000 10.424911 0.000000 -0.132972 0.051695 1.893650
  16 -0.000000 5.721374 0.000001 0.328153 0.192846 0.158263
  17 -0.000003 8.563448 0.000002 -2.485085 -0.271145 -0.093420
  18 0.000001 7.483449 -0.000004 0.033562 0.008824 0.015087
  19 0.119126 7.401336 -0.700706 -1.570796 0.000000 -0.000000
  20 -0.182472 0.858614 -0.214673 0.000000 0.000000 -0.000000
  21 0.644811 -0.364825 -0.425436 -3.141593 -1.570796 0.000000
  22 0.000002 28.528534 -2.793941 -0.054701 0.209358 1.697962
  23 -0.000000 3.833358 0.000000 -0.808123 -0.493913 1.497221
  24 0.000002 13.500031 0.000003 1.538987 0.191580 -0.200646
  25 -0.000001 11.928185 0.000001 0.007181 -0.090959 0.447534
  26 -0.000002 3.538863 -0.000001 -2.328044 -0.043700 0.041269
  27 0.000002 13.500029 0.000003 1.635290 -0.000001 -0.000000
  28 0.000002 28.528534 -2.793941 -2.439930 0.004042 0.068417
  29 4.614375 14.019144 -8.665930 0.000000 -0.000000 -1.570796
  30 -5.334031 5.767416 -4.641766 0.000000 -0.000000 -1.570796
  31 2.791633 -4.320869 -21.035057 -0.587098 0.154721 -1.185971
  32 12.270177 7.931152 -21.017508 -0.735601 -0.482772 -1.514099
  33 9.312190 -5.944801 10.008928 0.000000 -0.000000 -1.570796
  34 9.525342 -5.271507 10.638044 0.000000 -0.000000 -1.570796
  35 -19.481180 -0.234792 -9.069633 0.000000 -0.000000 1.570796
  36 -5.562319 14.360893 -9.069633 0.000000 -0.000000 1.570796
  time 7
  0 3.840456 1.553370 -31.928928 1.692985 -0.000000 0.985604
  1 0.000002 28.528532 -2.793941 -0.031887 -0.205759 -1.763296
  2 0.000001 3.833358 0.000000 -0.583723 0.052420 -1.162212
  3 0.000003 13.500032 -0.000006 1.494366 -0.182673 0.200155
  4 0.000000 11.928195 0.000002 -0.062093 -0.408910 -0.368888
  5 0.000000 3.538865 0.000000 -2.328044 0.043700 -0.041269
  6 0.000001 13.500032 -0.000006 1.635290 0.000001 0.000000
  7 0.000002 28.528532 -2.793942 -0.611281 -0.129028 0.065891
  8 0.000001 4.967566 0.000000 -1.125729 -0.451085 0.235700
  9 0.000000 10.424909 -0.000001 0.142313 0.009263 -1.681140
  10 0.000001 5.721375 -0.000000 -1.884925 -0.162966 0.099445
  11 -0.000001 8.563449 0.000001 -0.144678 -0.000117 0.022037
  12 0.000000 7.483443 -0.000000 -0.335271 0.381069 0.033500
  13 0.000000 10.424909 -0.000001 -0.981643 0.610689 -0.435588
  14 -0.000000 3.096222 0.000002 -0.433211 -0.539890 0.060687
  15 0.000000 10.424909 -0.000001 -0.132973 0.051695 1.893650
  16 0.000001 5.721369 0.000002 0.492779 0.106728 0.200709
  17 -0.000003 8.563449 0.000003 -2.345246 -0.257382 -0.109466
  18 0.000001 7.483448 0.000000 0.033562 0.008824 0.015087
  19 0.119125 7.401334 -0.700705 -1.570796 -0.000000 -0.000000
  20 -0.182472 0.858614 -0.214673 0.000000 0.000000 0.000000
  21 0.644811 -0.364824 -0.425436 3.141593 -1.570796 0.000000
  22 0.000002 28.528532 -2.793941 -0.054701 0.209358 1.697962
  23 -0.000000 3.833358 -0.000000 -0.768903 -0.511348 1.480831
  24 0.000004 13.500031 0.000001 1.592904 0.202338 -0.200700
  25 -0.000001 11.928188 -0.000001 -0.058570 -0.037544 0.461104
  26 -0.000000 3.538862 -0.000000 -2.328044 -0.043700 0.041268
  27 0.000004 13.500028 0.000001 1.635290 -0.000001 -0.000000
  28 0.000002 28.528532 -2.793941 -2.401804 0.000112 0.067463
  29 4.614375 14.019144 -10.500783 0.000000 -0.000000 -1.570796
  30 -6.924894 4.810030 -6.506403 0.000000 -0.000000 -1.570796
  31 2.791633 -4.320869 -21.035057 -0.655404 0.206538 -1.205031
  32 12.270177 7.931151 -21.017971 -0.772305 -0.508780 -1.570665
  33 10.067486 -2.299886 10.846010 0.000000 -0.000000 -1.570796
  34 9.525342 -5.271507 10.638044 0.000000 -0.000000 -1.570796
  35 -19.481180 -0.234792 -9.069633 0.000000 -0.000000 1.570796
  36 -5.562319 14.360893 -9.069633 0.000000 -0.000000 1.570796
  time 8
  0 2.806313 1.746018 -31.281874 1.692985 -0.000000 0.985604
  1 0.000002 28.528534 -2.793941 -0.031887 -0.205759 -1.763296
  2 0.000000 3.833359 -0.000001 -0.493671 0.069867 -1.146049
  3 0.000002 13.500028 -0.000006 1.389260 -0.161794 0.197407
  4 0.000001 11.928191 0.000001 -0.064249 -0.400328 -0.402548
  5 -0.000000 3.538863 0.000000 -2.328044 0.043700 -0.041268
  6 0.000003 13.500028 -0.000006 1.635290 0.000002 0.000000
  7 0.000002 28.528534 -2.793942 -0.366811 -0.102551 0.041502
  8 0.000001 4.967565 -0.000001 -0.953370 -0.033041 -0.425268
  9 0.000002 10.424911 0.000002 0.142314 0.009263 -1.681140
  10 -0.000003 5.721373 -0.000000 -0.959132 -0.233081 -0.157237
  11 0.000003 8.563448 -0.000000 -0.610987 0.025989 0.087791
  12 0.000000 7.483449 0.000001 -0.335271 0.381068 0.033500
  13 0.000002 10.424911 0.000002 -0.354712 0.754910 0.177916
  14 0.000002 3.096222 0.000001 -0.283988 -0.464026 0.146914
  15 0.000002 10.424911 0.000002 -0.132973 0.051695 1.893650
  16 -0.000000 5.721373 -0.000005 -0.070129 0.400917 0.399538
  17 0.000002 8.563454 -0.000002 -2.371501 -0.260134 -0.106606
  18 -0.000000 7.483452 -0.000003 0.033562 0.008824 0.015087
  19 0.119127 7.401336 -0.700706 -1.570796 -0.000000 -0.000000
  20 -0.182472 0.858614 -0.214672 0.000000 0.000000 -0.000000
  21 0.644811 -0.364825 -0.425434 -3.141593 -1.570796 0.000000
  22 0.000002 28.528534 -2.793941 -0.054701 0.209358 1.697962
  23 -0.000002 3.833359 0.000000 -0.677821 -0.522708 1.478754
  24 0.000003 13.500031 0.000002 1.513131 0.186418 -0.200411
  25 0.000001 11.928186 -0.000001 -0.081857 -0.015388 0.465932
  26 -0.000001 3.538861 0.000000 -2.328044 -0.043700 0.041268
  27 0.000002 13.500028 0.000001 1.635290 -0.000001 -0.000000
  28 0.000002 28.528534 -2.793941 -2.338087 -0.006365 0.065536
  29 1.138163 14.019145 -11.340140 0.000000 -0.000000 -1.570796
  30 -7.570493 2.980561 0.889936 0.000000 -0.000000 -1.570796
  31 2.791633 -4.320869 -21.035057 -0.680433 0.227569 -1.213713
  32 12.270176 7.931151 -21.018177 -0.771232 -0.522401 -1.604088
  33 10.369604 3.137612 11.180841 0.000000 -0.000000 -1.570796
  34 9.525342 -5.271507 10.638044 0.000000 -0.000000 -1.570796
  35 -19.481180 -0.234792 -9.069633 0.000000 -0.000000 1.570796
  36 -5.562319 14.360893 -9.069633 0.000000 -0.000000 1.570796
  time 9
  0 2.230477 1.261303 -28.513084 1.692985 -0.000000 1.176575
  1 0.000001 28.528534 -2.793940 -0.031887 -0.205759 -1.763296
  2 -0.000001 3.833359 -0.000000 -1.019368 0.253312 -1.407316
  3 0.000000 13.500031 -0.000003 1.628288 -0.209380 0.200413
  4 0.000002 11.928191 -0.000000 0.921735 -0.251082 -0.180270
  5 -0.000000 3.538862 0.000000 -2.328044 0.043700 -0.041269
  6 0.000001 13.500032 -0.000004 1.635290 0.000001 -0.000000
  7 0.000001 28.528534 -2.793940 -0.248524 0.000880 0.081734
  8 -0.000000 4.967566 -0.000000 -0.753030 -0.297263 0.206150
  9 -0.000000 10.424909 -0.000003 0.142313 0.009262 -1.681140
  10 -0.000003 5.721372 0.000001 -1.082745 -0.490432 -0.976387
  11 -0.000007 8.563444 0.000002 -0.005403 -0.001712 0.000826
  12 0.000002 7.483448 0.000000 -0.335270 0.381068 0.033500
  13 -0.000000 10.424909 -0.000003 0.297623 0.561347 0.815515
  14 0.000000 3.096223 0.000002 -0.131120 -0.399625 0.242916
  15 -0.000000 10.424909 -0.000003 -0.132972 0.051695 1.893650
  16 0.000001 5.721372 0.000003 -0.118483 0.064217 1.064644
  17 0.000001 8.563451 0.000000 -2.026627 -0.218594 -0.137665
  18 -0.000003 7.483441 0.000001 0.033562 0.008824 0.015087
  19 0.119124 7.401338 -0.700706 -1.570796 -0.000000 -0.000000
  20 -0.182472 0.858614 -0.214673 0.000000 0.000000 0.000000
  21 0.644811 -0.364825 -0.425434 -3.141593 -1.570796 0.000000
  22 0.000001 28.528534 -2.793940 -0.054701 0.209358 1.697962
  23 0.000000 3.833358 -0.000000 -0.564977 -0.367057 1.492223
  24 0.000000 13.500023 0.000003 1.194567 0.124218 -0.186537
  25 -0.000003 11.928187 0.000001 0.087376 -0.126665 0.472050
  26 -0.000001 3.538861 0.000000 -2.328044 -0.043700 0.041268
  27 0.000000 13.500025 0.000003 1.635290 -0.000001 0.000000
  28 0.000001 28.528534 -2.793940 -2.248731 -0.015211 0.062148
  29 0.835839 13.546595 -7.337671 0.000000 -0.000000 -1.570796
  30 -7.523402 2.895247 0.860264 0.000000 -0.000000 -1.570796
  31 2.791633 -4.320869 -21.035057 -0.498313 0.138609 -1.145420
  32 2.684992 7.994999 -17.296970 0.257158 -0.273814 -1.529430
  33 4.320102 10.071187 4.976410 0.000000 -0.000000 -1.570796
  34 -2.352748 -8.855255 10.722857 0.000000 -0.000000 -1.570796
  35 -19.481180 -1.438697 -9.069633 0.000000 -0.000000 1.570796
  36 -7.009876 14.320184 -9.069633 0.000000 -0.000000 1.570796
  time 10
  0 1.654641 0.776588 -29.673639 1.692985 -0.000000 1.371161
  1 0.000004 28.528526 -2.793939 -0.031887 -0.205759 -1.763296
  2 -0.000001 3.833358 0.000000 -1.187568 0.475289 -1.704083
  3 0.000001 13.500030 -0.000000 1.040395 -0.096325 0.172866
  4 0.000004 11.928189 -0.000000 0.761638 0.047181 0.048065
  5 0.000001 3.538863 0.000001 -2.328044 0.043700 -0.041269
  6 0.000001 13.500031 -0.000001 1.635290 0.000002 0.000000
  7 0.000003 28.528526 -2.793939 -0.124400 0.099614 0.134675
  8 -0.000000 4.967566 0.000001 0.030191 -0.107018 0.298642
  9 -0.000001 10.424909 0.000000 0.142314 0.009263 -1.681140
  10 0.000004 5.721374 -0.000001 -0.496637 0.622743 -1.485669
  11 -0.000000 8.563454 0.000000 -0.005199 -0.001711 0.000795
  12 0.000001 7.483447 -0.000001 -0.335271 0.381068 0.033500
  13 -0.000001 10.424909 0.000000 0.657360 0.183403 1.159009
  14 0.000001 3.096223 -0.000000 0.022298 -0.349892 0.344824
  15 -0.000001 10.424909 0.000000 -0.132973 0.051695 1.893650
  16 0.000002 5.721374 -0.000000 -0.113031 0.315537 1.223564
  17 0.000000 8.563453 -0.000001 -0.970047 -0.064975 -0.126412
  18 -0.000000 7.483449 -0.000000 0.033562 0.008824 0.015087
  19 0.119125 7.401337 -0.700704 -1.570796 -0.000000 -0.000000
  20 -0.182472 0.858614 -0.214673 0.000000 -0.000000 -0.000000
  21 0.644811 -0.364824 -0.425436 -3.141593 -1.570796 0.000000
  22 0.000004 28.528526 -2.793939 -0.054701 0.209358 1.697962
  23 0.000002 3.833359 -0.000000 -0.652469 -0.281556 1.513652
  24 -0.000001 13.500027 0.000001 1.348503 0.153777 -0.195745
  25 -0.000002 11.928183 0.000001 0.035617 -0.095975 0.490326
  26 -0.000001 3.538859 0.000001 -2.328044 -0.043700 0.041269
  27 -0.000001 13.500028 0.000002 1.635290 -0.000001 0.000000
  28 0.000004 28.528526 -2.793939 -2.134091 -0.026050 0.056673
  29 -0.071132 12.128947 4.669733 0.000000 -0.000000 -1.570796
  30 -6.063592 0.250523 -0.059544 0.000000 -0.000000 -1.570796
  31 2.791633 -4.320869 -21.035057 -0.548326 0.174226 -1.147239
  32 -6.900194 8.058845 -21.016056 0.120599 0.100564 -1.528701
  33 -1.729401 13.778113 -1.228024 0.000000 -0.000000 -1.570796
  34 -14.230837 -12.439006 10.909445 0.000000 -0.000000 -1.570796
  35 -19.481180 -4.309556 -9.069633 0.000000 -0.000000 1.570796
  36 -10.461754 14.035213 -9.069633 0.000000 -0.000000 1.570796
  time 11
  0 0.502970 -0.192841 -28.647190 1.692985 -0.000000 1.756718
  1 0.000004 28.528528 -2.793937 -0.031887 -0.205759 -1.763296
  2 0.000001 3.833357 0.000000 -1.066876 0.765962 -1.567932
  3 0.000003 13.500028 -0.000003 1.030277 -0.094571 0.171821
  4 0.000002 11.928193 -0.000000 0.761638 0.047181 0.048065
  5 0.000001 3.538865 0.000000 -2.328044 0.043700 -0.041268
  6 0.000002 13.500029 -0.000004 1.635290 0.000002 0.000000
  7 0.000004 28.528528 -2.793937 -0.206198 0.067396 0.071927
  8 0.000000 4.967569 0.000000 0.099176 -0.116066 0.213948
  9 -0.000001 10.424909 -0.000001 0.142314 0.009263 -1.681140
  10 0.000002 5.721372 -0.000000 0.195712 0.996123 -0.769590
  11 -0.000002 8.563449 0.000001 -2.029586 0.218994 0.137464
  12 0.000000 7.483443 -0.000000 -0.335271 0.381068 0.033500
  13 -0.000001 10.424909 -0.000001 0.448244 0.216815 0.868340
  14 -0.000003 3.096221 -0.000000 0.114653 -0.479806 0.443381
  15 -0.000001 10.424909 -0.000001 -0.132973 0.051696 1.893650
  16 -0.000005 5.721374 0.000001 0.111430 0.482927 1.056018
  17 -0.000002 8.563447 -0.000003 -1.474766 -0.137070 -0.152724
  18 0.000000 7.483448 -0.000000 0.033562 0.008824 0.015087
  19 0.119128 7.401338 -0.700704 -1.570796 -0.000000 0.000000
  20 -0.182472 0.858614 -0.214674 0.000000 -0.000000 0.000000
  21 0.644811 -0.364824 -0.425434 -3.141593 -1.570796 0.000000
  22 0.000004 28.528528 -2.793937 -0.054701 0.209358 1.697962
  23 -0.000000 3.833357 0.000000 -0.559571 -0.028059 1.512693
  24 -0.000002 13.500026 -0.000001 1.508968 0.185586 -0.200361
  25 0.000001 11.928188 0.000001 0.276364 0.024387 0.059473
  26 -0.000000 3.538861 0.000000 -2.328044 -0.043700 0.041269
  27 -0.000002 13.500026 -0.000002 1.635290 -0.000002 -0.000000
  28 0.000004 28.528528 -2.793937 -2.190052 -0.001674 0.050286
  29 -0.474230 10.078852 16.861292 0.000000 -0.000000 -1.570796
  30 -5.310141 -5.352924 2.443031 0.000000 -0.000000 -1.570796
  31 5.771142 -4.320869 -18.233740 -0.365177 0.021091 -1.569472
  32 -6.900194 8.058845 -21.016056 0.120599 0.100564 -1.528701
  33 3.897970 8.303295 4.976410 0.000000 -0.000000 -1.570796
  34 -2.352748 -10.859867 11.096033 0.000000 -0.000000 -1.570796
  35 -19.481182 -7.736067 -9.069633 0.000000 -0.000000 1.570796
  36 -14.581743 13.261718 -9.069633 0.000000 -0.000000 1.570796
  time 12
  0 -0.192479 0.552432 -26.802284 1.692985 -0.000000 1.756718
  1 0.000004 28.528528 -2.793937 -0.031887 -0.205759 -1.763296
  2 0.000001 3.833358 0.000001 -0.792032 0.588571 -1.441852
  3 0.000001 13.500030 -0.000002 0.794659 -0.057131 0.142784
  4 0.000004 11.928190 0.000002 0.761638 0.047181 0.048064
  5 -0.000000 3.538865 -0.000001 -2.328044 0.043700 -0.041268
  6 0.000003 13.500031 -0.000003 1.635290 0.000001 0.000000
  7 0.000004 28.528528 -2.793937 -0.285403 0.030384 0.012331
  8 0.000000 4.967567 -0.000000 0.168921 -0.119263 0.128538
  9 -0.000000 10.424910 0.000000 0.142313 0.009263 -1.681140
  10 0.000005 5.721372 0.000000 0.662032 -0.495727 -0.917296
  11 -0.000005 8.563451 0.000004 -2.055425 0.222459 0.135652
  12 0.000004 7.483446 -0.000000 -0.335271 0.381068 0.033500
  13 -0.000000 10.424910 0.000000 0.232676 0.188269 0.569261
  14 -0.000001 3.096221 0.000001 0.199085 -0.617672 0.535589
  15 -0.000000 10.424910 0.000000 -0.132972 0.051695 1.893650
  16 -0.000005 5.721377 0.000000 0.323610 0.669438 0.459333
  17 0.000001 8.563447 0.000001 -1.532906 -0.145949 -0.153326
  18 0.000001 7.483447 0.000004 0.033562 0.008824 0.015087
  19 0.119125 7.401339 -0.700705 -1.570796 -0.000000 0.000000
  20 -0.182472 0.858615 -0.214677 0.000000 -0.000000 0.000000
  21 0.644811 -0.364824 -0.425437 -3.141593 -1.570796 0.000000
  22 0.000004 28.528528 -2.793937 -0.054701 0.209358 1.697962
  23 0.000002 3.833357 -0.000000 0.015698 -0.187445 1.345278
  24 -0.000001 13.500031 -0.000002 0.584242 0.030298 -0.110208
  25 -0.000003 11.928187 -0.000001 0.123166 0.186868 0.181471
  26 -0.000001 3.538861 0.000000 -2.328044 -0.043700 0.041269
  27 -0.000001 13.500031 -0.000002 1.635290 -0.000001 0.000000
  28 0.000004 28.528528 -2.793937 -2.345173 0.063159 0.025747
  29 -2.128078 9.517244 11.313162 0.000000 -0.000000 -1.570796
  30 -4.556690 -10.956371 4.945608 0.000000 -0.000000 -1.570796
  31 9.970563 -4.320869 -21.180899 -0.531435 0.223780 -1.570611
  32 -6.900194 8.058845 -21.016056 0.120599 0.100564 -1.528701
  33 9.525341 2.828479 11.180841 0.000000 -0.000000 -1.570796
  34 9.525342 -8.829545 11.180841 0.000000 -0.000000 -1.570796
  35 -19.481182 -10.606925 -9.069633 0.000000 -0.000000 1.570796
  36 -18.033621 11.755438 -9.069633 0.000000 -0.000000 1.570796
end
