version 1
nodes
0 "Base" -1
1 "R.hip" 0
2 "R.thigh" 1
3 "R.calve" 2
4 "R.heel" 3
5 "R.foot" 4
6 "R.thigh.001" 2
7 "Torso_bot" 0
8 "Torso_top" 7
9 "R.shoulder" 8
10 "R.bicep" 9
11 "R.forearm" 10
12 "R.hand" 11
13 "Neck" 8
14 "Head" 13
15 "L.shoulder" 8
16 "L.bicep" 15
17 "L.forearm" 16
18 "L.hand" 17
19 "Torso_bot.001" 7
20 "Torso_bot.002" 19
21 "Torso_bot.003" 19
22 "L.hip" 0
23 "L.thigh" 22
24 "L.calve" 23
25 "L.heel" 24
26 "L.foot" 25
27 "L.thigh.001" 23
28 "Base.001" 0
29 "R.armIK.000" -1
30 "L.armIK.000" -1
31 "L.LegIK.000" -1
32 "R.LegIK.000" -1
33 "UpperarmIK.L" -1
34 "UpperarmIK.R" -1
35 "KneeIK.L" -1
36 "KneeIK.R" -1
end
skeleton
  time 0
  0 -0.192479 0.552432 -26.802284 1.692985 -0.000000 1.756718
  1 0.000004 28.528528 -2.793937 -0.031887 -0.205759 -1.763296
  2 0.000001 3.833358 0.000001 -0.740375 0.420377 -1.362346
  3 0.000002 13.500029 -0.000002 0.794659 -0.057131 0.142784
  4 0.000005 11.928191 -0.000002 0.761638 0.047181 0.048064
  5 0.000000 3.538864 -0.000000 -2.328044 0.043700 -0.041268
  6 0.000003 13.500029 -0.000003 1.635290 0.000001 0.000000
  7 0.000004 28.528528 -2.793938 -0.361569 -0.010770 -0.043647
  8 0.000000 4.967568 0.000000 0.238502 -0.116552 0.043338
  9 0.000002 10.424906 0.000000 0.142314 0.009263 -1.681140
  10 -0.000006 5.721373 0.000000 0.354251 -0.652972 -1.121155
  11 0.000001 8.563450 -0.000001 -1.483196 0.138355 0.152844
  12 -0.000002 7.483443 -0.000000 -0.335271 0.381069 0.033500
  13 0.000002 10.424906 0.000000 0.041660 0.103242 0.293005
  14 -0.000000 3.096222 0.000000 -0.331257 -0.252354 0.185611
  15 0.000002 10.424906 0.000000 -0.132973 0.051695 1.893650
  16 0.000004 5.721374 0.000000 0.326235 0.824313 0.911459
  17 0.000003 8.563446 0.000000 -1.430511 -0.130335 -0.151918
  18 0.000001 7.483444 0.000001 0.033562 0.008824 0.015087
  19 0.119125 7.401336 -0.700706 -1.570796 -0.000000 -0.000000
  20 -0.182472 0.858614 -0.214672 0.000000 -0.000000 0.000000
  21 0.644811 -0.364825 -0.425432 -3.141593 -1.570796 0.000000
  22 0.000004 28.528528 -2.793937 -0.054701 0.209358 1.697962
  23 0.000002 3.833357 -0.000000 0.016059 -0.232320 1.331577
  24 0.000002 13.500031 -0.000003 0.584242 0.030298 -0.110208
  25 -0.000001 11.928185 0.000001 0.123166 0.186868 0.181470
  26 -0.000001 3.538862 -0.000001 -2.328044 -0.043700 0.041269
  27 0.000002 13.500031 -0.000003 1.635290 -0.000001 -0.000000
  28 0.000004 28.528528 -2.793937 -2.560786 0.143807 -0.023621
  29 -3.781926 8.955639 5.765032 0.000000 -0.000000 -1.570796
  30 -4.556690 -6.105816 3.695091 0.000000 -0.000000 -1.570796
  31 9.970563 -4.320869 -21.180899 -0.531435 0.223780 -1.570611
  32 -6.900194 8.058845 -21.016056 0.120599 0.100564 -1.528701
  33 9.525341 2.828479 11.180841 0.000000 -0.000000 -1.570796
  34 9.525342 -6.770415 11.180841 0.000000 -0.000000 -1.570796
  35 -19.481182 -11.810830 -9.069633 0.000000 -0.000000 1.570796
  36 -19.481178 9.272119 -9.069633 0.000000 -0.000000 1.570796
  time 1
  0 5.530813 0.552432 -26.226837 1.692985 -0.000000 1.756718
  1 0.000004 28.528528 -2.793937 -0.031887 -0.205759 -1.763296
  2 0.000001 3.833358 0.000000 -0.615978 0.378977 -1.485776
  3 0.000002 13.500026 -0.000003 0.005534 0.002874 0.001104
  4 0.000005 11.928186 0.000000 0.666590 -0.008281 -0.045790
  5 0.000001 3.538865 0.000000 -2.328044 0.043700 -0.041269
  6 0.000002 13.500029 -0.000003 1.635290 0.000001 -0.000000
  7 0.000004 28.528528 -2.793937 0.098826 0.054058 0.047659
  8 0.000001 4.967566 0.000000 0.280372 0.171764 0.037789
  9 0.000001 10.424907 0.000003 0.142313 0.009263 -1.681140
  10 0.000003 5.721374 0.000002 0.421617 -0.936309 -0.843774
  11 -0.000001 8.563449 0.000001 -1.297535 0.110380 0.147701
  12 -0.000001 7.483445 0.000002 -0.335271 0.381068 0.033500
  13 0.000001 10.424907 0.000003 -0.789071 0.114406 -0.334736
  14 -0.000001 3.096220 0.000000 0.528508 -0.834697 -0.029328
  15 0.000001 10.424907 0.000003 -0.132973 0.051695 1.893650
  16 -0.000005 5.721374 0.000002 -0.203071 0.103464 0.912675
  17 0.000000 8.563442 0.000001 -0.005243 0.001712 -0.000801
  18 0.000003 7.483440 -0.000002 0.033562 0.008824 0.015087
  19 0.119127 7.401335 -0.700705 -1.570796 0.000000 -0.000000
  20 -0.182472 0.858614 -0.214673 0.000000 -0.000000 0.000000
  21 0.644811 -0.364824 -0.425436 3.141593 -1.570796 0.000000
  22 0.000004 28.528528 -2.793937 -0.054701 0.209358 1.697962
  23 -0.000000 3.833358 -0.000000 -0.224246 0.101588 1.447871
  24 0.000002 13.500031 0.000001 0.763802 0.052771 -0.138363
  25 -0.000003 11.928187 0.000000 0.185004 0.008196 0.045956
  26 -0.000000 3.538860 0.000001 -2.328044 -0.043700 0.041269
  27 0.000002 13.500032 0.000001 1.635290 -0.000001 -0.000000
  28 0.000004 28.528528 -2.793937 -2.561464 0.144708 -0.014049
  29 1.873957 11.522999 8.054993 0.000000 -0.000000 -1.570796
  30 3.797708 -10.899882 1.706898 0.000000 -0.000000 -1.570796
  31 11.597114 -4.320869 -21.035057 -0.456329 0.000032 -1.570613
  32 -7.407562 4.321485 -21.111416 0.025259 0.000000 -1.570796
  33 9.525341 2.828479 11.180841 0.000000 -0.000000 -1.570796
  34 9.525343 8.834909 -4.117718 0.000000 -0.000000 -1.570796
  35 -19.481180 -3.775503 -9.069633 0.000000 -0.000000 1.570796
  36 -19.481180 6.820030 -9.069633 0.000000 -0.000000 1.570796
  time 2
  0 8.130298 0.448851 -26.675827 1.675463 0.001268 1.720108
  1 0.000000 28.528530 -2.793940 -0.031887 -0.205759 -1.763296
  2 -0.000001 3.833359 0.000001 -0.781240 0.259118 -1.513189
  3 0.000004 13.500031 0.000002 1.342327 -0.152568 0.195465
  4 -0.000003 11.928185 0.000004 0.652379 -0.008281 -0.045790
  5 0.000001 3.538863 0.000001 -2.328044 0.043700 -0.041269
  6 0.000003 13.500031 0.000002 1.635290 0.000001 0.000000
  7 0.000000 28.528530 -2.793940 0.048975 0.053842 0.040105
  8 -0.000000 4.967566 0.000001 0.138432 0.120507 0.025828
  9 0.000001 10.424911 0.000000 0.128121 0.008141 -1.680424
  10 0.000002 5.721373 0.000002 -0.158582 -0.784805 -0.212286
  11 -0.000001 8.563450 0.000001 -2.307559 0.253300 0.113440
  12 0.000002 7.483443 -0.000001 -0.335271 0.381068 0.033500
  13 0.000001 10.424911 0.000000 0.208011 0.206966 0.235263
  14 -0.000000 3.096222 0.000001 0.446866 -0.825109 0.090995
  15 0.000001 10.424911 0.000000 -0.119377 0.045747 1.884146
  16 -0.000006 5.721374 0.000001 1.313425 -0.034684 0.671107
  17 -0.000000 8.563443 -0.000002 -1.448363 -0.133049 -0.152280
  18 0.000003 7.483439 -0.000003 0.033562 0.008824 0.015087
  19 0.119124 7.401339 -0.700706 -1.570796 -0.000000 0.000000
  20 -0.182472 0.858614 -0.214674 0.000000 0.000000 -0.000000
  21 0.644811 -0.364825 -0.425435 -3.141593 -1.570796 0.000000
  22 0.000000 28.528530 -2.793940 -0.054701 0.209358 1.697962
  23 0.000002 3.833358 0.000001 -0.394263 0.062351 1.468600
  24 -0.000002 13.500029 0.000002 0.918287 0.075918 -0.159109
  25 -0.000001 11.928191 0.000000 0.226146 0.008189 0.045953
  26 0.000000 3.538863 0.000002 -2.328044 -0.043700 0.041269
  27 -0.000001 13.500031 0.000001 1.635290 -0.000001 0.000000
  28 0.000000 28.528530 -2.793940 -2.525871 0.146906 -0.001113
  29 5.020852 6.384143 13.946753 0.000000 -0.000000 -1.570796
  30 18.410782 -9.280423 5.440569 0.000000 -0.000000 -1.570796
  31 11.597114 -4.320869 -20.974709 -0.415186 0.000024 -1.570612
  32 7.016252 4.321484 -18.415581 0.011047 0.000000 -1.570796
  33 9.525341 2.828479 10.947668 0.000000 -0.000000 -1.570796
  34 10.799994 6.333698 -9.464435 0.000000 -0.000000 -1.570796
  35 -19.469402 -4.294885 -9.382648 0.000000 -0.000000 1.570796
  36 -19.472889 6.789024 -9.675838 0.000000 -0.000000 1.570796
  time 3
  0 10.729782 0.345270 -27.124817 1.657765 0.001897 1.683186
  1 0.000005 28.528524 -2.793940 -0.031887 -0.205759 -1.763296
  2 0.000001 3.833358 0.000002 -0.327315 0.255309 -1.465982
  3 0.000001 13.500032 -0.000006 1.090572 -0.105170 0.177785
  4 0.000001 11.928191 0.000002 0.164899 -0.008281 -0.045790
  5 -0.000000 3.538864 -0.000001 -2.328044 0.043700 -0.041268
  6 0.000001 13.500033 -0.000004 1.635290 0.000001 -0.000000
  7 0.000005 28.528524 -2.793940 -0.071130 0.051686 0.021993
  8 0.000001 4.967565 -0.000000 -0.004900 0.067078 0.021295
  9 0.000001 10.424908 0.000001 0.089987 0.005180 -1.678424
  10 0.000001 5.721374 -0.000000 -1.681497 -0.019560 -0.497907
  11 -0.000000 8.563446 0.000000 -2.419022 0.264922 0.101245
  12 0.000002 7.483441 -0.000003 -0.335270 0.381068 0.033500
  13 0.000001 10.424908 0.000001 0.141115 0.236925 0.138648
  14 0.000000 3.096220 0.000000 0.315347 -0.759706 0.266089
  15 0.000001 10.424908 0.000001 -0.086718 0.032077 1.861152
  16 -0.000008 5.721374 -0.000000 0.234446 -0.074929 0.817550
  17 0.000002 8.563449 0.000000 -2.081372 -0.225887 -0.133742
  18 -0.000000 7.483447 -0.000001 0.033562 0.008824 0.015087
  19 0.119127 7.401338 -0.700704 -1.570796 -0.000000 -0.000000
  20 -0.182472 0.858614 -0.214677 0.000000 0.000000 0.000000
  21 0.644811 -0.364825 -0.425437 -3.141593 -1.570796 0.000000
  22 0.000005 28.528524 -2.793940 -0.054701 0.209358 1.697962
  23 0.000001 3.833359 0.000000 -0.553072 -0.002145 1.488145
  24 -0.000001 13.500025 -0.000004 1.029145 0.094376 -0.171703
  25 -0.000002 11.928188 0.000000 0.267306 0.008183 0.045949
  26 -0.000001 3.538861 0.000001 -2.328044 -0.043700 0.041269
  27 -0.000001 13.500028 -0.000003 1.635290 -0.000002 -0.000000
  28 0.000005 28.528524 -2.793940 -2.428211 0.150579 0.034655
  29 8.167746 1.245287 19.838511 0.000000 -0.000000 -1.570796
  30 6.939880 -9.883845 10.013777 0.000000 -0.000000 -1.570796
  31 11.597114 -4.320869 -20.914360 -0.374026 0.000016 -1.570611
  32 16.482847 4.321483 -19.734470 -0.476432 0.000000 -1.570796
  33 9.525341 2.828479 10.294783 0.000000 -0.000000 -1.570796
  34 13.839557 0.369253 -12.707537 0.000000 -0.000000 -1.570796
  35 -19.437834 -5.686831 -10.221527 0.000000 -0.000000 1.570796
  36 -19.450665 6.764876 -11.300464 0.000000 -0.000000 1.570796
  time 4
  0 13.329267 0.241689 -26.026566 1.639926 0.001869 1.645991
  1 0.000002 28.528532 -2.793942 -0.031887 -0.205759 -1.763296
  2 0.000000 3.833359 0.000001 -0.238472 0.215420 -1.434312
  3 -0.000001 13.500020 -0.000005 0.738471 -0.049296 0.134637
  4 -0.000005 11.928179 0.000003 0.144815 -0.008281 -0.045790
  5 0.000001 3.538862 -0.000001 -2.328044 0.043700 -0.041269
  6 -0.000002 13.500022 -0.000004 1.635290 0.000001 0.000000
  7 0.000002 28.528532 -2.793942 -0.214900 0.046262 0.000830
  8 -0.000000 4.967566 0.000000 -0.148771 0.013144 0.024500
  9 -0.000001 10.424911 0.000001 0.034563 0.001018 -1.675318
  10 0.000001 5.721373 0.000000 -1.384060 -0.001337 -0.362184
  11 -0.000002 8.563440 0.000003 -2.539439 0.275871 0.086677
  12 0.000000 7.483442 -0.000001 -0.335270 0.381068 0.033499
  13 -0.000001 10.424911 0.000001 0.015140 0.279462 -0.043580
  14 -0.000000 3.096221 -0.000000 0.206992 -0.678970 0.420053
  15 -0.000001 10.424911 0.000001 -0.047330 0.016751 1.833135
  16 -0.000001 5.721372 -0.000002 -0.050782 0.111060 0.882232
  17 -0.000003 8.563444 0.000003 -1.952117 -0.208327 -0.142338
  18 -0.000000 7.483442 -0.000001 0.033562 0.008824 0.015087
  19 0.119126 7.401340 -0.700704 -1.570796 -0.000000 0.000000
  20 -0.182472 0.858615 -0.214674 0.000000 -0.000000 -0.000000
  21 0.644811 -0.364825 -0.425436 -3.141592 -1.570796 0.000000
  22 0.000002 28.528532 -2.793942 -0.054701 0.209358 1.697962
  23 0.000001 3.833359 -0.000000 -0.586438 -0.095055 1.499120
  24 -0.000001 13.500023 -0.000003 0.861713 0.067068 -0.151923
  25 -0.000000 11.928188 -0.000001 0.308448 0.008176 0.045945
  26 -0.000000 3.538862 0.000000 -2.328044 -0.043700 0.041269
  27 -0.000002 13.500026 -0.000003 1.635290 -0.000001 -0.000000
  28 0.000002 28.528532 -2.793942 -2.294774 0.149993 0.083735
  29 5.198358 1.859989 18.212103 0.000000 -0.000000 -1.570796
  30 4.509650 -8.533993 9.219278 0.000000 -0.000000 -1.570796
  31 11.597114 -4.320869 -20.854012 -0.332884 0.000009 -1.570611
  32 17.835218 4.321483 -21.053358 -0.496516 -0.000000 -1.570796
  33 9.525341 2.828479 9.292135 0.000000 -0.000000 -1.570796
  34 17.467424 -6.749607 -14.372910 0.000000 -0.000000 -1.570796
  35 -19.392134 -7.702036 -11.436024 0.000000 -0.000000 1.570796
  36 -19.418491 6.746730 -13.652534 0.000000 -0.000000 1.570796
  time 5
  0 18.528234 0.034527 -28.225002 1.603987 -0.000206 1.570944
  1 0.000002 28.528524 -2.793938 -0.031887 -0.205759 -1.763296
  2 0.000001 3.833360 0.000004 -0.676184 0.100362 -1.465179
  3 0.000005 13.500033 0.000001 1.207926 -0.126726 0.187516
  4 -0.000000 11.928182 0.000001 0.127558 -0.008281 -0.045790
  5 0.000001 3.538862 -0.000000 -2.328044 0.043700 -0.041269
  6 0.000005 13.500034 0.000002 1.635290 0.000001 -0.000000
  7 0.000001 28.528524 -2.793938 -0.334613 0.039468 -0.016064
  8 0.000000 4.967565 0.000001 -0.292317 -0.039557 0.035349
  9 -0.000001 10.424906 0.000001 -0.031370 -0.003698 -1.671333
  10 -0.000001 5.721373 -0.000004 -1.155361 0.033727 -0.442464
  11 0.000004 8.563448 0.000001 -2.562583 0.277773 0.083729
  12 -0.000004 7.483442 0.000001 -0.335271 0.381068 0.033500
  13 -0.000001 10.424906 0.000001 -0.055535 0.293368 -0.144239
  14 0.000001 3.096220 -0.000001 0.120949 -0.587040 0.553836
  15 -0.000001 10.424906 0.000001 -0.014033 0.004778 1.809228
  16 0.000004 5.721371 -0.000001 -0.522173 0.097885 1.036056
  17 -0.000002 8.563457 0.000003 -2.139872 -0.233419 -0.129107
  18 -0.000002 7.483447 -0.000000 0.033562 0.008824 0.015087
  19 0.119124 7.401337 -0.700705 -1.570796 -0.000000 -0.000000
  20 -0.182472 0.858615 -0.214673 0.000000 -0.000000 -0.000000
  21 0.644811 -0.364823 -0.425439 -3.141593 -1.570796 0.000000
  22 0.000002 28.528524 -2.793938 -0.054701 0.209358 1.697962
  23 0.000001 3.833358 0.000001 -0.778770 -0.176262 1.463560
  24 -0.000003 13.500027 -0.000003 1.369350 0.157870 -0.196636
  25 -0.000001 11.928187 0.000004 0.351977 0.008185 0.045922
  26 -0.000001 3.538862 0.000000 -2.328044 -0.043700 0.041269
  27 -0.000003 13.500029 -0.000004 1.635290 -0.000002 -0.000000
  28 0.000001 28.528524 -2.793938 -2.288943 0.142523 0.087033
  29 5.457933 3.304470 12.994947 0.000000 -0.000000 -1.570796
  30 4.251143 -6.027123 7.662067 0.000000 -0.000000 -1.570796
  31 17.291080 -5.935370 -19.443848 -0.289355 0.000002 -1.570634
  32 17.835218 4.321483 -21.053358 -0.513774 -0.000000 -1.570796
  33 9.525341 2.828479 8.009682 0.000000 -0.000000 -1.570796
  34 20.506987 -12.714052 -14.986473 0.000000 -0.000000 -1.570796
  35 -19.337948 -10.091195 -12.875890 0.000000 -0.000000 1.570796
  36 -19.380346 6.733728 -16.441071 0.000000 -0.000000 1.570796
  time 6
  0 16.330328 0.034527 -28.225002 1.603987 -0.000206 1.570944
  1 0.000002 28.528524 -2.793939 -0.031887 -0.205759 -1.763296
  2 0.000001 3.833359 0.000002 -0.555808 0.111736 -1.459351
  3 -0.000004 13.500023 -0.000009 1.174109 -0.120402 0.184972
  4 -0.000000 11.928187 0.000003 0.044007 -0.008280 -0.045790
  5 0.000001 3.538861 -0.000000 -2.328043 0.043700 -0.041269
  6 -0.000004 13.500026 -0.000008 1.635290 0.000001 -0.000000
  7 0.000001 28.528524 -2.793939 -0.384533 0.036074 -0.022847
  8 -0.000000 4.967566 -0.000000 -0.434633 -0.089384 0.053345
  9 0.000001 10.424906 -0.000001 -0.100859 -0.008372 -1.666807
  10 -0.000004 5.721373 0.000002 -1.499055 0.066208 -0.410215
  11 -0.000001 8.563452 0.000003 -2.527823 0.274891 0.088140
  12 0.000001 7.483443 -0.000001 -0.335270 0.381068 0.033500
  13 0.000001 10.424906 -0.000001 0.239081 0.249676 -0.038266
  14 0.000000 3.096220 -0.000001 0.054565 -0.487791 0.670183
  15 0.000001 10.424906 -0.000001 -0.000000 -0.000000 1.799097
  16 0.000003 5.721375 -0.000001 -0.560917 0.243805 0.796885
  17 0.000002 8.563453 0.000005 -2.327978 -0.255530 -0.111307
  18 0.000000 7.483446 -0.000001 0.033562 0.008824 0.015087
  19 0.119125 7.401339 -0.700705 -1.570796 -0.000000 0.000000
  20 -0.182472 0.858614 -0.214673 0.000000 -0.000000 -0.000000
  21 0.644811 -0.364824 -0.425436 -3.141593 -1.570796 0.000000
  22 0.000002 28.528524 -2.793939 -0.054701 0.209358 1.697962
  23 0.000003 3.833359 -0.000001 -0.189712 -0.264510 1.291195
  24 -0.000003 13.500022 -0.000001 0.892644 0.071856 -0.155913
  25 -0.000001 11.928186 0.000002 0.122183 0.008281 0.045790
  26 -0.000000 3.538860 -0.000000 -2.328044 -0.043700 0.041269
  27 -0.000003 13.500025 -0.000001 1.635290 -0.000002 -0.000000
  28 0.000001 28.528524 -2.793939 -2.273164 0.122015 0.095803
  29 1.999896 2.303464 12.033285 0.000000 -0.000000 -1.570796
  30 2.053502 -4.677270 6.581551 0.000000 -0.000000 -1.570796
  31 22.985043 -8.002073 -20.811897 -0.519149 -0.000000 -1.570796
  32 17.835218 4.321483 -21.053358 -0.597324 -0.000000 -1.570796
  33 9.525341 2.828479 6.517368 0.000000 -0.000000 -1.570796
  34 21.781637 -15.215264 -15.074121 0.000000 -0.000000 -1.570796
  35 -19.280937 -12.605009 -14.390882 0.000000 -0.000000 1.570796
  36 -19.340212 6.725012 -19.375095 0.000000 -0.000000 1.570796
  time 7
  0 19.583364 0.164010 -26.385784 1.246584 -0.000879 1.571702
  1 -0.000000 28.528532 -2.793944 -0.031887 -0.205759 -1.763296
  2 0.000001 3.833360 -0.000000 -0.499318 0.124991 -1.437051
  3 0.000007 13.500032 -0.000004 0.933946 -0.078439 0.161010
  4 0.000001 11.928186 0.000002 -0.149767 0.240766 -0.036789
  5 0.000001 3.538861 0.000001 -2.328044 0.043700 -0.041269
  6 0.000007 13.500032 -0.000006 1.635290 0.000001 0.000000
  7 -0.000000 28.528532 -2.793944 -0.193919 0.039102 -0.015453
  8 -0.000000 4.967567 -0.000000 -0.208506 -0.098004 0.041407
  9 -0.000000 10.424909 0.000001 -0.166861 -0.012509 -1.662218
  10 -0.000000 5.721373 -0.000000 -1.412632 -0.039558 -0.469853
  11 0.000000 8.563452 0.000003 -2.483465 0.270998 0.093616
  12 0.000001 7.483449 -0.000001 -0.335271 0.381068 0.033500
  13 -0.000000 10.424909 0.000001 0.523452 0.178746 0.048982
  14 -0.000000 3.096224 0.000001 0.063779 -0.492812 0.654847
  15 -0.000000 10.424909 0.000001 -0.023945 0.005255 1.815579
  16 -0.000000 5.721372 0.000002 -0.012205 0.234457 0.481345
  17 -0.000000 8.563447 0.000001 -2.301261 -0.252603 -0.114089
  18 0.000001 7.483444 0.000002 0.033562 0.008824 0.015087
  19 0.119126 7.401339 -0.700706 -1.570796 -0.000000 0.000000
  20 -0.182472 0.858614 -0.214673 0.000000 0.000000 0.000000
  21 0.644811 -0.364824 -0.425437 -3.141593 -1.570796 0.000000
  22 -0.000000 28.528532 -2.793944 -0.054701 0.209358 1.697962
  23 0.000001 3.833358 -0.000001 -0.091621 -0.424953 1.264592
  24 -0.000002 13.500035 0.000001 0.446198 0.016682 -0.086157
  25 -0.000000 11.928191 0.000001 0.291911 -0.005467 0.032681
  26 -0.000000 3.538862 0.000001 -2.328044 -0.043700 0.041268
  27 -0.000002 13.500036 -0.000001 1.635290 -0.000001 -0.000000
  28 -0.000000 28.528532 -2.793944 -2.251961 0.093787 0.107224
  29 -5.524489 2.167996 11.139845 0.000000 -0.000000 -1.570796
  30 -3.369518 -7.241240 4.720970 0.000000 -0.000000 -1.570796
  31 22.330866 -8.025347 -20.406757 -0.349380 -0.018858 -1.573077
  32 18.161129 4.626611 -21.133551 -0.806919 0.204148 -1.714726
  33 9.525341 2.828479 4.885151 0.000000 -0.000000 -1.570796
  34 21.781637 -15.215264 -15.074121 0.000000 -0.000000 -1.570796
  35 -19.226751 -14.994169 -15.830747 0.000000 -0.000000 1.570796
  36 -19.302069 6.719725 -22.163633 0.000000 -0.000000 1.570796
  time 8
  0 22.836401 0.293493 -24.546566 0.866935 -0.001255 1.572711
  1 0.000001 28.528526 -2.793939 -0.031887 -0.205759 -1.763296
  2 0.000004 3.833359 -0.000001 -0.544433 0.144285 -1.426032
  3 0.000004 13.500031 0.000005 0.904828 -0.073776 0.157444
  4 0.000003 11.928195 -0.000000 -0.412002 0.659714 -0.285904
  5 0.000001 3.538862 0.000000 -2.328044 0.043700 -0.041269
  6 0.000005 13.500034 0.000001 1.635290 0.000001 -0.000000
  7 0.000001 28.528526 -2.793939 -0.001554 0.040682 -0.007547
  8 0.000000 4.967566 0.000001 0.021250 -0.103800 0.027611
  9 -0.000001 10.424907 0.000000 -0.222394 -0.015748 -1.658154
  10 -0.000001 5.721373 -0.000001 -1.196598 -0.191386 -0.643242
  11 0.000001 8.563449 0.000002 -2.478179 0.270518 0.094257
  12 0.000001 7.483445 -0.000001 -0.335270 0.381068 0.033500
  13 -0.000001 10.424907 0.000000 0.523452 0.178747 0.048982
  14 -0.000000 3.096223 0.000001 0.132617 -0.524867 0.542827
  15 -0.000001 10.424907 0.000000 -0.091945 0.022443 1.861990
  16 0.000002 5.721370 0.000000 0.333494 0.632136 0.602967
  17 0.000002 8.563451 -0.000002 -1.545546 -0.147882 -0.153388
  18 -0.000000 7.483445 0.000001 0.033562 0.008824 0.015087
  19 0.119125 7.401336 -0.700705 -1.570796 -0.000000 -0.000000
  20 -0.182472 0.858613 -0.214672 0.000000 -0.000000 -0.000000
  21 0.644811 -0.364824 -0.425436 3.141593 -1.570796 0.000000
  22 0.000001 28.528526 -2.793939 -0.054701 0.209358 1.697962
  23 -0.000000 3.833359 -0.000001 0.012284 -0.659246 1.258687
  24 -0.000001 13.500026 0.000007 0.005521 -0.002874 -0.001101
  25 -0.000001 11.928181 -0.000002 0.286001 -0.194461 -0.111383
  26 0.000001 3.538862 0.000003 -2.328044 -0.043700 0.041269
  27 -0.000001 13.500027 0.000004 1.635290 -0.000001 -0.000000
  28 0.000001 28.528526 -2.793939 -2.318978 0.084569 0.090399
  29 -12.098974 2.532360 5.652887 0.000000 -0.000000 -1.570796
  30 -5.017783 -9.805210 -4.933105 0.000000 -0.000000 -1.570796
  31 22.223074 -8.063192 -20.767639 -0.369692 -0.255930 -1.573543
  32 18.787958 5.077544 -21.256292 -1.094832 0.393869 -2.170305
  33 9.525341 2.828479 3.182981 0.000000 -0.000000 -1.570796
  34 18.505478 -8.321630 -7.116217 0.000000 -0.000000 -1.570796
  35 -19.181047 -17.009373 -17.045242 0.000000 -0.000000 1.570796
  36 -19.269894 6.717010 -24.515701 0.000000 -0.000000 1.570796
  time 9
  0 26.089437 0.422976 -22.707348 0.490884 -0.001233 1.573776
  1 0.000002 28.528528 -2.793944 -0.031887 -0.205759 -1.763296
  2 0.000000 3.833359 -0.000001 -0.567843 0.212077 -1.418722
  3 0.000005 13.500030 0.000001 0.908071 -0.074290 0.157848
  4 0.000002 11.928186 0.000003 0.263482 1.051392 -0.348939
  5 -0.000000 3.538864 0.000000 -2.328044 0.043700 -0.041268
  6 0.000005 13.500031 -0.000003 1.635290 0.000001 -0.000000
  7 0.000002 28.528528 -2.793944 0.189027 0.040730 0.000441
  8 0.000000 4.967567 0.000000 0.248619 -0.106307 0.013009
  9 -0.000001 10.424910 -0.000001 -0.260631 -0.017845 -1.655255
  10 -0.000001 5.721373 -0.000002 -0.489834 -0.567674 -0.041195
  11 -0.000002 8.563448 0.000001 -2.085126 0.226379 0.133458
  12 0.000001 7.483445 -0.000003 -0.335271 0.381068 0.033500
  13 -0.000001 10.424910 -0.000001 0.523452 0.178746 0.048982
  14 0.000000 3.096221 0.000000 0.352102 -0.575650 0.203516
  15 -0.000001 10.424910 -0.000001 -0.192574 0.054060 1.929353
  16 -0.000001 5.721373 -0.000001 1.060572 0.429551 1.429843
  17 -0.000002 8.563449 -0.000001 -0.643265 -0.028895 -0.091801
  18 0.000000 7.483444 -0.000001 0.033562 0.008824 0.015087
  19 0.119125 7.401338 -0.700705 -1.570796 0.000000 0.000000
  20 -0.182472 0.858616 -0.214674 0.000000 0.000000 -0.000000
  21 0.644811 -0.364824 -0.425436 3.141593 -1.570796 0.000000
  22 0.000002 28.528528 -2.793944 -0.054701 0.209358 1.697962
  23 0.000000 3.833359 -0.000000 -0.529868 -1.019883 1.491627
  24 -0.000001 13.500031 0.000002 0.571194 0.028868 -0.108015
  25 0.000003 11.928187 0.000002 0.245618 -0.195814 -0.107339
  26 0.000002 3.538861 0.000001 -2.328044 -0.043700 0.041268
  27 -0.000001 13.500031 0.000002 1.635290 -0.000001 -0.000000
  28 0.000002 28.528528 -2.793944 -2.502679 0.053596 0.047668
  29 -14.801760 5.082904 -8.295907 0.000000 -0.000000 -1.570796
  30 3.398502 -9.405373 -7.660896 0.000000 -0.000000 -1.570796
  31 22.018993 -8.134845 -21.450895 -0.410326 -0.254584 -1.569441
  32 20.928616 5.612160 -21.442507 -0.544849 0.656175 -2.512019
  33 9.525341 2.828479 1.480812 0.000000 -0.000000 -1.570796
  34 10.596131 8.321078 12.095861 0.000000 -0.000000 -1.570796
  35 -19.149479 -18.401321 -17.884123 0.000000 -0.000000 1.570796
  36 -19.247669 6.716010 -26.140329 0.000000 -0.000000 1.570796
  time 10
  0 29.342474 0.552459 -20.868130 0.142901 -0.000865 1.574692
  1 -0.000001 28.528530 -2.793944 -0.031887 -0.205759 -1.763296
  2 0.000000 3.833359 -0.000001 -0.363601 0.562571 -1.392675
  3 0.000003 13.500028 0.000004 0.398107 -0.012740 0.077381
  4 0.000005 11.928179 0.000005 1.490647 -0.008280 -0.045790
  5 -0.000002 3.538863 -0.000003 -2.328044 0.043700 -0.041268
  6 0.000005 13.500026 0.000002 1.635290 0.000001 -0.000000
  7 -0.000001 28.528530 -2.793944 -0.213860 0.038511 -0.015721
  8 0.000000 4.967566 -0.000001 0.035817 -0.102185 0.026485
  9 -0.000001 10.424907 -0.000000 -0.274865 -0.018596 -1.654155
  10 -0.000001 5.721373 -0.000001 0.787037 -1.145042 -0.408012
  11 0.000004 8.563450 -0.000001 -2.507628 0.273149 0.090655
  12 0.000002 7.483447 -0.000003 -0.335271 0.381068 0.033500
  13 -0.000001 10.424907 -0.000000 0.031399 0.254036 -0.055218
  14 -0.000000 3.096221 -0.000000 0.966609 -1.151536 -0.997079
  15 -0.000001 10.424907 -0.000000 -0.308257 0.099587 2.004272
  16 0.000001 5.721372 -0.000000 0.543233 0.536534 0.955001
  17 -0.000005 8.563451 -0.000001 -0.458707 -0.014103 -0.067726
  18 0.000000 7.483443 -0.000002 0.033562 0.008824 0.015087
  19 0.119126 7.401337 -0.700706 -1.570796 -0.000000 -0.000000
  20 -0.182472 0.858614 -0.214673 0.000000 0.000000 0.000000
  21 0.644811 -0.364825 -0.425435 -3.141593 -1.570796 0.000000
  22 -0.000001 28.528530 -2.793944 -0.054701 0.209358 1.697962
  23 0.000000 3.833358 -0.000000 0.949180 -1.862329 -0.303503
  24 0.000001 13.500024 -0.000003 1.150043 0.115954 -0.183032
  25 0.000002 11.928183 -0.000002 0.147904 -0.198416 -0.097355
  26 -0.000002 3.538861 -0.000000 -2.328044 -0.043700 0.041269
  27 -0.000000 13.500026 -0.000004 1.635290 -0.000002 -0.000000
  28 -0.000001 28.528530 -2.793944 -2.750289 -0.000000 -0.000000
  29 -11.266292 9.285025 -23.277491 0.000000 -0.000000 -1.570796
  30 2.266008 -10.565976 -20.537172 0.000000 -0.000000 -1.570796
  31 21.526299 -8.307828 -23.100418 -0.508498 -0.250671 -1.559790
  32 26.096621 6.902841 -21.892069 0.849316 0.000000 -1.570796
  33 9.525341 2.828479 -0.151405 0.000000 -0.000000 -1.570796
  34 9.525344 22.058163 12.099585 0.000000 -0.000000 -1.570796
  35 -19.137699 -18.920704 -18.197136 0.000000 -0.000000 1.570796
  36 -19.239378 6.715867 -26.746531 0.000000 -0.000000 1.570796
  time 11
  0 29.342474 0.552459 -20.868130 0.142901 -0.000865 1.574692
  1 -0.000001 28.528530 -2.793944 -0.031887 -0.205759 -1.763296
  2 0.000000 3.833359 -0.000001 -0.363601 0.562571 -1.392675
  3 0.000003 13.500028 0.000004 0.398107 -0.012740 0.077381
  4 0.000005 11.928179 0.000005 1.490647 -0.008280 -0.045790
  5 -0.000002 3.538863 -0.000003 -2.328044 0.043700 -0.041268
  6 0.000005 13.500026 0.000002 1.635290 0.000001 -0.000000
  7 -0.000001 28.528530 -2.793944 -0.213860 0.038511 -0.015721
  8 0.000000 4.967566 -0.000001 0.104771 -0.103622 0.022134
  9 -0.000000 10.424908 -0.000000 -0.274865 -0.018596 -1.654155
  10 0.000001 5.721373 0.000001 0.525685 -1.526141 -0.987198
  11 0.000003 8.563448 -0.000003 -1.437023 0.131324 0.152055
  12 -0.000002 7.483442 0.000003 -0.335271 0.381068 0.033500
  13 -0.000000 10.424908 -0.000000 -0.402114 0.224538 -0.133160
  14 0.000001 3.096222 -0.000000 0.966609 -1.151537 -0.997079
  15 -0.000000 10.424908 -0.000000 -0.308257 0.099587 2.004272
  16 0.000002 5.721371 0.000001 0.330924 0.638321 0.818514
  17 -0.000002 8.563446 -0.000002 -0.371814 -0.008738 -0.055555
  18 -0.000001 7.483444 -0.000002 0.033562 0.008824 0.015087
  19 0.119126 7.401337 -0.700706 -1.570796 -0.000000 -0.000000
  20 -0.182472 0.858614 -0.214673 0.000000 0.000000 0.000000
  21 0.644811 -0.364825 -0.425435 -3.141593 -1.570796 0.000000
  22 -0.000001 28.528530 -2.793944 -0.054701 0.209358 1.697962
  23 0.000000 3.833358 -0.000000 0.956738 -1.857820 -0.289295
  24 0.000002 13.500024 -0.000003 1.110965 0.108833 -0.179656
  25 0.000000 11.928180 0.000001 0.147904 -0.198416 -0.097355
  26 -0.000000 3.538861 -0.000000 -2.328044 -0.043700 0.041269
  27 0.000001 13.500027 -0.000004 1.635290 -0.000001 -0.000000
  28 -0.000001 28.528530 -2.793944 -2.750289 -0.000000 -0.000000
  29 -3.402409 9.948395 -23.277491 0.000000 -0.000000 -1.570796
  30 2.266008 -10.565976 -23.521246 0.000000 -0.000000 -1.570796
  31 21.816772 -8.307828 -23.100418 -0.508498 -0.250671 -1.559790
  32 26.096621 6.902841 -21.892069 0.849316 0.000000 -1.570796
  33 9.525341 2.828479 -1.643719 0.000000 -0.000000 -1.570796
  34 9.525344 22.058163 12.099585 0.000000 -0.000000 -1.570796
  35 -19.137699 -18.920704 -18.197136 0.000000 -0.000000 1.570796
  36 -19.239378 6.715867 -26.746531 0.000000 -0.000000 1.570796
  time 12
  0 29.342474 0.552459 -20.868130 0.142901 -0.000865 1.574692
  1 -0.000001 28.528530 -2.793944 -0.031887 -0.205759 -1.763296
  2 0.000000 3.833359 -0.000001 -0.363601 0.562571 -1.392675
  3 0.000003 13.500028 0.000004 0.398107 -0.012740 0.077381
  4 0.000005 11.928179 0.000005 1.490647 -0.008280 -0.045790
  5 -0.000002 3.538863 -0.000003 -2.328044 0.043700 -0.041268
  6 0.000005 13.500026 0.000002 1.635290 0.000001 -0.000000
  7 -0.000001 28.528530 -2.793944 -0.213860 0.038511 -0.015721
  8 0.000000 4.967566 -0.000001 0.035817 -0.102185 0.026485
  9 -0.000001 10.424907 -0.000000 -0.274865 -0.018596 -1.654155
  10 -0.000001 5.721373 -0.000001 0.604153 -1.485097 -0.981461
  11 0.000001 8.563450 -0.000001 -1.580479 0.153223 0.153430
  12 0.000000 7.483442 -0.000001 -0.335271 0.381068 0.033500
  13 -0.000001 10.424907 -0.000000 -0.402114 0.224538 -0.133160
  14 0.000000 3.096222 0.000000 0.909765 -1.119443 -1.027368
  15 -0.000001 10.424907 -0.000000 -0.308257 0.099587 2.004272
  16 0.000001 5.721372 -0.000000 0.346151 0.586343 0.784121
  17 -0.000004 8.563449 -0.000002 -0.477050 -0.015371 -0.070234
  18 -0.000001 7.483443 -0.000002 0.033562 0.008824 0.015087
  19 0.119126 7.401337 -0.700706 -1.570796 -0.000000 -0.000000
  20 -0.182472 0.858614 -0.214673 0.000000 0.000000 0.000000
  21 0.644811 -0.364825 -0.425435 -3.141593 -1.570796 0.000000
  22 -0.000001 28.528530 -2.793944 -0.054701 0.209358 1.697962
  23 0.000000 3.833358 -0.000000 0.949180 -1.862329 -0.303503
  24 0.000001 13.500024 -0.000003 1.150043 0.115954 -0.183032
  25 0.000002 11.928183 -0.000002 0.147904 -0.198416 -0.097355
  26 -0.000002 3.538861 -0.000000 -2.328044 -0.043700 0.041269
  27 -0.000000 13.500026 -0.000004 1.635290 -0.000002 -0.000000
  28 -0.000001 28.528530 -2.793944 -2.750289 -0.000000 -0.000000
  29 -4.036448 9.894910 -23.277491 0.000000 -0.000000 -1.570796
  30 2.266008 -10.565976 -23.521246 0.000000 -0.000000 -1.570796
  31 21.526299 -8.307828 -23.100418 -0.508498 -0.250671 -1.559790
  32 26.096621 6.902841 -21.892069 0.849316 0.000000 -1.570796
  33 9.525341 2.828479 -2.926174 0.000000 -0.000000 -1.570796
  34 9.525344 22.058163 12.099585 0.000000 -0.000000 -1.570796
  35 -19.137699 -18.920704 -18.197136 0.000000 -0.000000 1.570796
  36 -19.239378 6.715867 -26.746531 0.000000 -0.000000 1.570796
  time 13
  0 29.342184 0.552464 -20.868156 0.142932 0.003593 1.574690
  1 0.000001 28.528532 -2.793942 -0.031887 -0.205759 -1.763296
  2 0.000000 3.833359 0.000000 -0.373078 0.610025 -1.404336
  3 0.000003 13.500029 0.000003 0.395548 -0.012542 0.076909
  4 -0.000001 11.928183 0.000004 1.490647 -0.008280 -0.045789
  5 -0.000000 3.538866 -0.000004 -2.328044 0.043700 -0.041268
  6 0.000004 13.500031 -0.000001 1.635290 0.000001 -0.000000
  7 0.000001 28.528532 -2.793942 -0.179050 0.040134 0.001372
  8 0.000000 4.967567 -0.000002 0.064546 -0.084580 0.031854
  9 -0.000000 10.424909 -0.000000 -0.255201 -0.021263 -1.646744
  10 -0.000001 5.721372 -0.000000 0.381208 -1.488091 -0.789617
  11 0.000001 8.563450 -0.000003 -1.526317 0.144943 0.153285
  12 0.000002 7.483446 0.000000 -0.335271 0.381068 0.033500
  13 -0.000000 10.424909 -0.000000 -0.566168 0.061534 -0.585813
  14 -0.000000 3.096222 0.000000 0.668073 -1.282736 -0.964367
  15 -0.000000 10.424909 -0.000000 -0.213898 0.026485 1.929467
  16 0.000002 5.721373 0.000001 1.466883 0.209211 0.779131
  17 -0.000002 8.563453 -0.000000 -1.810807 -0.187967 -0.149005
  18 0.000001 7.483445 -0.000001 0.054749 0.121607 -0.227325
  19 0.119126 7.401337 -0.700707 -1.570796 -0.000000 0.000000
  20 -0.182472 0.858613 -0.214673 0.000000 0.000000 0.000000
  21 0.644811 -0.364824 -0.425436 -3.141593 -1.570796 0.000000
  22 0.000001 28.528532 -2.793942 -0.054701 0.209358 1.697962
  23 0.000000 3.833359 -0.000002 0.811657 -1.876335 -0.221264
  24 0.000003 13.500030 -0.000001 1.253318 0.135338 -0.190590
  25 0.000000 11.928193 0.000002 0.153446 -0.193936 -0.096028
  26 -0.000001 3.538862 0.000001 -2.328044 -0.043700 0.041269
  27 -0.000001 13.500031 0.000001 1.635290 -0.000001 -0.000000
  28 0.000001 28.528532 -2.793942 -2.750289 -0.000000 0.000000
  29 -4.227176 9.894910 -23.277491 0.000000 -0.000000 -1.570796
  30 -5.701927 -11.316770 -17.431219 0.000000 -0.000000 -1.570796
  31 20.730282 -8.294187 -23.010796 -0.502265 -0.246327 -1.561545
  32 26.096621 6.902841 -21.988626 0.849316 0.000000 -1.570796
  33 9.525341 2.828479 -3.928822 0.000000 -0.000000 -1.570796
  34 9.525344 22.058163 12.099585 0.000000 -0.000000 -1.570796
  35 -18.773991 -18.569027 -17.453693 0.000000 -0.000000 1.570796
  36 -18.663282 6.698145 -25.764481 0.000000 -0.000000 1.570796
  time 14
  0 29.337826 0.552529 -20.868555 0.143389 0.070653 1.574670
  1 0.000002 28.528536 -2.793944 -0.031887 -0.205759 -1.763296
  2 0.000000 3.833358 0.000001 -0.385448 0.747565 -1.426542
  3 0.000003 13.500028 0.000002 0.401347 -0.012993 0.077978
  4 0.000003 11.928185 0.000000 1.490647 -0.008280 -0.045790
  5 -0.000000 3.538863 -0.000001 -2.328044 0.043700 -0.041268
  6 0.000004 13.500028 0.000001 1.635290 0.000001 -0.000000
  7 0.000002 28.528536 -2.793944 -0.074089 0.041417 0.053058
  8 -0.000000 4.967566 0.000001 0.151472 -0.032593 0.051015
  9 0.000000 10.424911 -0.000001 -0.235517 -0.024080 -1.639371
  10 -0.000001 5.721372 0.000001 0.792896 -1.452846 -1.309890
  11 0.000003 8.563447 -0.000002 -1.327576 0.114839 0.148887
  12 0.000001 7.483439 -0.000000 -0.335270 0.381068 0.033501
  13 0.000000 10.424911 -0.000001 -0.644655 -0.159080 -1.019004
  14 0.000000 3.096222 0.000001 0.037171 -1.431714 -0.516894
  15 0.000000 10.424911 -0.000001 -0.113386 -0.039599 1.847318
  16 -0.000000 5.721374 0.000001 0.596137 0.662813 -0.102733
  17 -0.000000 8.563454 0.000002 -2.116309 -0.230419 -0.131028
  18 0.000001 7.483444 0.000000 0.012394 0.340151 -0.716127
  19 0.119126 7.401336 -0.700705 -1.570796 -0.000000 0.000000
  20 -0.182472 0.858615 -0.214673 0.000000 -0.000000 -0.000000
  21 0.644811 -0.364824 -0.425436 -3.141593 -1.570796 0.000000
  22 0.000002 28.528536 -2.793944 -0.054701 0.209358 1.697962
  23 0.000000 3.833359 -0.000000 0.921756 -1.914512 -0.413461
  24 -0.000002 13.500031 0.000000 1.409808 0.165856 -0.198119
  25 -0.000000 11.928191 -0.000000 0.174681 -0.185508 -0.093831
  26 -0.000001 3.538866 -0.000002 -2.328044 -0.043700 0.041269
  27 -0.000002 13.500031 0.000001 1.635290 -0.000002 0.000000
  28 0.000002 28.528536 -2.793944 -2.750289 -0.000001 -0.000000
  29 -4.417904 9.894910 -23.277491 0.000000 -0.000000 -1.570796
  30 -10.598898 -12.818357 -20.762182 0.000000 -0.000000 -1.570796
  31 19.371609 -8.198688 -22.828159 -0.479770 -0.238329 -1.565072
  32 26.096621 6.902841 -22.085184 0.849316 0.000000 -1.570796
  33 9.525341 2.828479 -4.581709 0.000000 -0.000000 -1.570796
  34 9.525344 22.058163 12.099585 0.000000 -0.000000 -1.570796
  35 -18.410282 -18.217354 -16.710253 0.000000 -0.000000 1.570796
  36 -18.087187 6.680422 -24.782431 0.000000 -0.000000 1.570796
  time 15
  0 29.318916 0.552813 -20.870279 0.145460 0.362228 1.574960
  1 0.000004 28.528530 -2.793944 -0.031887 -0.205759 -1.763296
  2 0.000000 3.833358 0.000001 -0.524127 1.304518 -1.596535
  3 -0.000003 13.500029 0.000002 0.420665 -0.014537 0.081521
  4 0.000000 11.928189 0.000002 1.490647 -0.008280 -0.045790
  5 -0.000000 3.538863 -0.000004 -2.328044 0.043700 -0.041268
  6 -0.000002 13.500027 0.000000 1.635290 0.000001 0.000000
  7 0.000004 28.528530 -2.793944 0.100407 0.031556 0.138522
  8 -0.000001 4.967566 0.000001 0.298714 0.049735 0.092786
  9 -0.000001 10.424906 -0.000000 -0.215820 -0.027046 -1.632043
  10 0.000001 5.721374 0.000000 1.221296 -1.183319 -1.834480
  11 0.000001 8.563450 0.000001 -1.178502 0.093103 0.141699
  12 -0.000003 7.483443 0.000002 -0.335271 0.381068 0.033500
  13 -0.000001 10.424906 -0.000000 -0.250306 0.342767 -0.456887
  14 0.000001 3.096223 -0.000000 0.332634 -1.248063 -0.426616
  15 -0.000001 10.424906 -0.000000 -0.007522 -0.096782 1.758730
  16 0.000000 5.721371 -0.000002 -0.795796 0.667073 -0.372256
  17 -0.000001 8.563452 0.000002 -1.245124 -0.102688 -0.145313
  18 0.000002 7.483442 -0.000000 -0.074996 0.451086 -1.044692
  19 0.119124 7.401336 -0.700704 -1.570796 -0.000000 -0.000000
  20 -0.182472 0.858615 -0.214673 0.000000 -0.000000 0.000000
  21 0.644811 -0.364824 -0.425436 -3.141593 -1.570796 0.000000
  22 0.000004 28.528530 -2.793944 -0.054701 0.209358 1.697962
  23 0.000000 3.833359 0.000001 1.434039 -2.186063 -1.020351
  24 0.000002 13.500027 -0.000000 1.590092 0.201778 -0.200711
  25 0.000000 11.928188 0.000000 0.218723 -0.180620 -0.093486
  26 -0.000001 3.538862 -0.000000 -2.328044 -0.043700 0.041269
  27 0.000001 13.500031 0.000000 1.635290 -0.000001 -0.000000
  28 0.000004 28.528530 -2.793944 -2.750289 -0.000001 -0.000000
  29 -4.608632 9.894910 -23.277491 0.000000 -0.000000 -1.570796
  30 -10.598898 -12.818357 -20.762182 0.000000 -0.000000 -1.570796
  31 17.344521 -7.939477 -22.681849 -0.435014 -0.234244 -1.567854
  32 26.096621 6.902841 -22.181742 0.849316 0.000000 -1.570796
  33 9.525341 2.828479 -4.814882 0.000000 -0.000000 -1.570796
  34 9.525344 22.058163 12.099585 0.000000 -0.000000 -1.570796
  35 -18.046572 -17.865677 -15.966810 0.000000 -0.000000 1.570796
  36 -17.511089 6.662700 -23.800383 0.000000 -0.000000 1.570796
  time 16
  0 29.318918 0.552813 -20.869293 0.145460 0.362182 1.574960
  1 0.000003 28.528530 -2.793944 -0.031887 -0.205759 -1.763296
  2 -0.000000 3.833359 -0.000000 -0.904164 1.438668 -1.977094
  3 -0.000001 13.500031 0.000005 0.420918 -0.014558 0.081567
  4 -0.000001 11.928190 0.000010 1.490647 -0.008280 -0.045790
  5 -0.000002 3.538865 -0.000004 -2.328044 0.043700 -0.041268
  6 0.000001 13.500029 0.000003 1.635290 0.000001 0.000000
  7 0.000003 28.528530 -2.793944 0.099475 0.035825 0.113242
  8 -0.000000 4.967566 0.000000 0.164411 0.078895 0.070333
  9 0.000001 10.424907 -0.000000 -0.196114 -0.030161 -1.624763
  10 -0.000000 5.721371 -0.000000 1.220600 -1.121677 -1.684467
  11 0.000003 8.563448 0.000002 -1.449748 0.133259 0.152305
  12 -0.000001 7.483443 -0.000001 -0.436022 0.420265 0.004536
  13 0.000001 10.424907 -0.000000 0.417137 0.483543 0.335727
  14 0.000000 3.096222 0.000000 0.570853 -1.067723 -0.248293
  15 0.000001 10.424907 -0.000000 0.034276 -0.091448 1.697436
  16 -0.000001 5.721373 -0.000000 -0.775381 0.617360 -0.324167
  17 -0.000001 8.563448 0.000001 -1.314665 -0.112918 -0.148394
  18 -0.000001 7.483444 0.000002 -0.087755 0.458560 -1.078994
  19 0.119127 7.401337 -0.700706 -1.570796 -0.000000 0.000000
  20 -0.182472 0.858614 -0.214673 0.000000 0.000000 0.000000
  21 0.644811 -0.364824 -0.425436 -3.141592 -1.570796 0.000000
  22 0.000003 28.528530 -2.793944 -0.054701 0.209358 1.697962
  23 -0.000000 3.833359 0.000000 1.433030 -2.186519 -1.020262
  24 0.000000 13.500031 -0.000002 1.592090 0.202176 -0.200703
  25 0.000002 11.928187 0.000000 0.219212 -0.181599 -0.093046
  26 -0.000001 3.538865 -0.000002 -2.328044 -0.043700 0.041269
  27 -0.000002 13.500031 -0.000002 1.635290 -0.000001 0.000000
  28 0.000003 28.528530 -2.793944 -2.750289 -0.000001 -0.000000
  29 -5.433076 9.762093 -22.969667 0.000000 -0.000000 -1.570796
  30 -10.598898 -12.818357 -20.762182 0.000000 -0.000000 -1.570796
  31 17.325766 -7.934343 -22.681622 -0.434670 -0.234758 -1.566888
  32 26.095873 6.902841 -22.181742 0.849316 0.000000 -1.570796
  33 9.525341 3.148519 -3.672329 0.000000 -0.000000 -1.570796
  34 7.769145 20.356184 10.665854 0.000000 -0.000000 -1.570796
  35 -18.046638 -17.867899 -15.964774 0.000000 -0.000000 1.570796
  36 -16.934996 6.644977 -22.818333 0.000000 -0.000000 1.570796
  time 17
  0 29.319019 0.552812 -20.838707 0.145449 0.360742 1.574957
  1 0.000003 28.528530 -2.793942 -0.031887 -0.205759 -1.763296
  2 -0.000000 3.833358 0.000001 0.650893 1.687693 -0.418480
  3 0.000002 13.500026 0.000003 0.428691 -0.015198 0.082983
  4 -0.000001 11.928186 0.000004 1.490647 -0.008280 -0.045790
  5 -0.000000 3.538862 -0.000001 -2.328044 0.043700 -0.041268
  6 0.000003 13.500027 0.000001 1.635290 0.000001 -0.000000
  7 0.000003 28.528530 -2.793942 0.098434 0.040073 0.087932
  8 -0.000001 4.967566 0.000001 0.026481 0.105250 0.043551
  9 0.000001 10.424910 -0.000002 -0.176405 -0.033423 -1.617537
  10 0.000001 5.721373 -0.000001 1.233851 -1.014502 -1.569189
  11 0.000002 8.563447 0.000000 -1.686025 0.169294 0.152411
  12 0.000001 7.483446 -0.000002 -0.540900 0.456900 -0.029565
  13 0.000001 10.424910 -0.000002 0.450638 0.554517 0.363528
  14 -0.000000 3.096223 0.000000 0.791990 -0.915915 -0.055669
  15 0.000001 10.424910 -0.000002 0.075685 -0.083571 1.636394
  16 0.000003 5.721371 0.000001 -0.748076 0.573857 -0.266913
  17 0.000000 8.563444 0.000002 -1.383073 -0.123159 -0.150721
  18 0.000001 7.483443 0.000001 -0.101011 0.465724 -1.113977
  19 0.119127 7.401336 -0.700706 -1.570796 -0.000000 0.000000
  20 -0.182472 0.858614 -0.214673 -0.000000 0.000000 -0.000000
  21 0.644811 -0.364824 -0.425436 3.141593 -1.570796 0.000000
  22 0.000003 28.528530 -2.793942 -0.054701 0.209358 1.697962
  23 -0.000000 3.833359 -0.000001 1.416046 -2.193143 -1.016707
  24 -0.000001 13.500031 -0.000001 1.621567 0.208044 -0.200487
  25 0.000002 11.928186 -0.000000 0.226515 -0.196339 -0.086478
  26 -0.000002 3.538863 -0.000001 -2.328044 -0.043700 0.041269
  27 -0.000002 13.500033 -0.000001 1.635290 -0.000001 0.000000
  28 0.000003 28.528530 -2.793942 -2.732754 0.002533 -0.000444
  29 -6.257521 9.629275 -22.661844 0.000000 -0.000000 -1.570796
  30 -10.598898 -12.818357 -20.762182 0.000000 -0.000000 -1.570796
  31 17.044449 -7.857322 -22.678221 -0.429562 -0.242518 -1.552383
  32 26.072678 6.902841 -22.181742 0.849316 0.000000 -1.570796
  33 9.525341 3.468558 -2.529778 0.000000 -0.000000 -1.570796
  34 3.378643 16.101234 7.081535 0.000000 -0.000000 -1.570796
  35 -18.048641 -17.936741 -15.901651 0.000000 -0.000000 1.570796
  36 -16.358900 6.627254 -21.836281 0.000000 -0.000000 1.570796
  time 18
  0 29.319654 0.552802 -20.630510 0.145374 0.350936 1.574936
  1 0.000000 28.528534 -2.793944 -0.031887 -0.205759 -1.763296
  2 -0.000000 3.833359 -0.000001 0.258276 1.791512 -0.784396
  3 -0.000003 13.500028 0.000001 0.477777 -0.019500 0.091816
  4 -0.000000 11.928188 0.000009 1.490647 -0.008281 -0.045790
  5 0.000001 3.538863 -0.000002 -2.328044 0.043700 -0.041269
  6 -0.000001 13.500028 -0.000000 1.635290 0.000001 0.000000
  7 0.000000 28.528534 -2.793944 0.097284 0.044295 0.062602
  8 0.000000 4.967567 -0.000001 -0.113861 0.127871 0.012985
  9 0.000001 10.424911 -0.000002 -0.156698 -0.036830 -1.610368
  10 -0.000000 5.721371 0.000001 1.248612 -0.866928 -1.468780
  11 0.000003 8.563452 -0.000004 -1.886584 0.199013 0.145794
  12 -0.000002 7.483443 0.000001 -0.649601 0.490211 -0.068651
  13 0.000001 10.424911 -0.000002 0.488651 0.625422 0.395996
  14 0.000001 3.096223 -0.000000 0.890225 -0.887288 -0.021431
  15 0.000001 10.424911 -0.000002 0.116444 -0.073218 1.575868
  16 0.000001 5.721373 0.000000 -0.717299 0.534109 -0.191348
  17 0.000000 8.563449 0.000001 -1.442565 -0.132167 -0.152167
  18 -0.000004 7.483444 0.000001 -0.114761 0.472550 -1.149633
  19 0.119128 7.401337 -0.700707 -1.570796 0.000000 0.000000
  20 -0.182472 0.858614 -0.214673 0.000000 -0.000000 -0.000000
  21 0.644811 -0.364824 -0.425436 3.141593 -1.570796 0.000000
  22 0.000000 28.528534 -2.793944 -0.054701 0.209358 1.697962
  23 0.000000 3.833358 -0.000002 1.336634 -2.222781 -0.992147
  24 0.000001 13.500032 0.000001 1.743554 0.232095 -0.197721
  25 -0.000003 11.928192 0.000001 0.257566 -0.261292 -0.058809
  26 0.000001 3.538864 -0.000002 -2.328044 -0.043700 0.041269
  27 0.000000 13.500031 0.000000 1.635290 -0.000001 0.000000
  28 0.000000 28.528534 -2.793944 -2.680727 0.010091 -0.001496
  29 -7.081964 9.496459 -22.354021 0.000000 -0.000000 -1.570796
  30 -10.598898 -12.818357 -20.762182 0.000000 -0.000000 -1.570796
  31 15.825415 -7.523563 -22.663483 -0.408498 -0.277249 -1.489110
  32 25.914808 6.902841 -22.181742 0.849316 0.000000 -1.570796
  33 9.525342 3.788597 -1.387228 0.000000 -0.000000 -1.570796
  34 -2.329007 10.569798 2.421919 0.000000 -0.000000 -1.570796
  35 -18.062269 -18.405325 -15.472016 0.000000 -0.000000 1.570796
  36 -15.782803 6.609532 -20.854231 0.000000 -0.000000 1.570796
  time 19
  0 29.322018 0.552767 -19.859892 0.145103 0.314572 1.574867
  1 0.000004 28.528532 -2.793944 -0.031887 -0.205759 -1.763296
  2 -0.000000 3.833358 -0.000000 1.063135 1.729179 0.105423
  3 0.000002 13.500030 0.000006 0.621476 -0.034532 0.116362
  4 0.000002 11.928189 0.000007 1.490647 -0.008280 -0.045790
  5 -0.000002 3.538864 -0.000001 -2.328044 0.043700 -0.041268
  6 0.000003 13.500031 0.000005 1.635290 0.000001 -0.000000
  7 0.000004 28.528532 -2.793944 0.096028 0.048488 0.037257
  8 0.000000 4.967566 0.000000 -0.255181 0.146000 -0.020552
  9 -0.000000 10.424911 -0.000001 -0.136998 -0.040380 -1.603261
  10 -0.000000 5.721371 0.000001 1.211534 -0.722218 -1.310184
  11 0.000003 8.563448 -0.000003 -2.055974 0.222532 0.135613
  12 -0.000001 7.483443 0.000001 -0.761610 0.519489 -0.112344
  13 -0.000000 10.424911 -0.000001 0.532182 0.695793 0.434131
  14 -0.000000 3.096224 -0.000000 0.987755 -0.860589 0.016264
  15 -0.000000 10.424911 -0.000001 0.156308 -0.060493 1.516102
  16 0.000002 5.721371 0.000000 -0.693372 0.488213 -0.079761
  17 0.000000 8.563453 0.000001 -1.476480 -0.137331 -0.152749
  18 -0.000004 7.483445 0.000001 -0.128996 0.479008 -1.185951
  19 0.119125 7.401338 -0.700705 -1.570796 0.000000 -0.000000
  20 -0.182472 0.858613 -0.214672 0.000000 -0.000000 -0.000000
  21 0.644811 -0.364825 -0.425436 3.141593 -1.570796 0.000000
  22 0.000004 28.528532 -2.793944 -0.054701 0.209358 1.697962
  23 -0.000000 3.833358 0.000000 1.128213 -2.329679 -0.914104
  24 0.000000 13.500034 0.000000 2.036139 0.286422 -0.179158
  25 0.000001 11.928190 -0.000003 0.336609 -0.443169 0.009245
  26 0.000001 3.538862 -0.000002 -2.328044 -0.043700 0.041268
  27 -0.000001 13.500032 -0.000000 1.635290 -0.000001 0.000000
  28 0.000004 28.528532 -2.793944 -2.596104 0.022471 -0.002365
  29 -7.906409 9.363642 -22.046198 0.000000 -0.000000 -1.570796
  30 -10.598898 -12.818357 -20.762182 0.000000 -0.000000 -1.570796
  31 12.543397 -6.624985 -22.623802 -0.361913 -0.378284 -1.315640
  32 25.330467 6.902841 -22.181742 0.849316 0.000000 -1.570796
  33 9.525342 4.108636 -0.244673 0.000000 -0.000000 -1.570796
  34 -8.036659 5.038362 -2.237696 0.000000 -0.000000 -1.570796
  35 -18.112713 -20.139748 -13.881753 0.000000 -0.000000 1.570796
  36 -15.206706 6.591809 -19.872183 0.000000 -0.000000 1.570796
  time 20
  0 29.328386 0.552671 -17.786823 0.144397 0.216384 1.574735
  1 0.000001 28.528534 -2.793943 -0.031887 -0.205759 -1.763296
  2 -0.000000 3.833359 -0.000001 -0.896464 0.936803 -1.661393
  3 0.000001 13.500026 0.000002 0.867861 -0.068011 0.152728
  4 0.000002 11.928182 0.000004 1.490647 -0.008280 -0.045790
  5 -0.000001 3.538862 -0.000002 -2.328044 0.043701 -0.041268
  6 0.000002 13.500024 0.000002 1.635290 0.000001 0.000000
  7 0.000001 28.528534 -2.793943 0.108858 0.048849 0.015727
  8 -0.000000 4.967566 -0.000000 -0.334425 0.154641 -0.014999
  9 0.000000 10.424909 -0.000001 -0.117310 -0.044071 -1.596220
  10 -0.000001 5.721372 0.000001 0.837380 -0.628049 -0.884317
  11 0.000004 8.563450 -0.000001 -2.114637 0.230205 0.131161
  12 0.000001 7.483444 -0.000005 -0.876183 0.544125 -0.160017
  13 0.000000 10.424909 -0.000001 0.582506 0.765075 0.479203
  14 0.000000 3.096222 -0.000000 1.084138 -0.836305 0.056679
  15 0.000000 10.424909 -0.000001 0.195061 -0.045533 1.457319
  16 0.000000 5.721374 -0.000001 -0.759771 0.424359 0.065589
  17 -0.000005 8.563450 -0.000001 -1.377258 -0.122283 -0.150550
  18 -0.000003 7.483446 0.000000 -0.143705 0.485068 -1.222916
  19 0.119124 7.401337 -0.700705 -1.570796 -0.000000 0.000000
  20 -0.182472 0.858615 -0.214673 0.000000 0.000000 -0.000000
  21 0.644811 -0.364824 -0.425435 -3.141593 -1.570796 0.000000
  22 0.000001 28.528534 -2.793943 -0.054701 0.209358 1.697962
  23 0.000000 3.833359 0.000001 0.760244 -2.841616 -0.825825
  24 0.000001 13.500031 -0.000002 2.468683 0.350309 -0.124604
  25 0.000001 11.928193 0.000001 0.487038 -0.838662 0.120585
  26 0.000000 3.538863 -0.000000 -2.328044 -0.043700 0.041268
  27 0.000001 13.500031 -0.000002 1.635290 -0.000001 -0.000000
  28 0.000001 28.528534 -2.793943 -2.482492 0.039116 -0.001880
  29 -8.730854 9.230825 -21.738373 0.000000 -0.000000 -1.570796
  30 -10.598898 -12.818357 -20.762182 0.000000 -0.000000 -1.570796
  31 5.623029 -4.730267 -22.540131 -0.326895 -0.607097 -0.934150
  32 23.758505 6.902841 -22.181742 0.849316 0.000000 -1.570796
  33 9.525342 4.428675 0.897877 0.000000 -0.000000 -1.570796
  34 -12.427157 0.783411 -5.822016 0.000000 -0.000000 -1.570796
  35 -18.248417 -24.805593 -9.603723 0.000000 -0.000000 1.570796
  36 -14.630611 6.574087 -18.890133 0.000000 -0.000000 1.570796
  time 21
  0 29.342478 0.552459 -13.197651 0.142901 -0.000865 1.574692
  1 -0.000001 28.528530 -2.793944 -0.031887 -0.205759 -1.763296
  2 0.000000 3.833359 0.000000 -1.109961 0.306796 -1.504672
  3 0.000008 13.500030 0.000000 1.096308 -0.106196 0.178318
  4 0.000002 11.928183 0.000003 1.490647 -0.008280 -0.045790
  5 -0.000001 3.538861 -0.000001 -2.328044 0.043700 -0.041268
  6 0.000009 13.500030 -0.000001 1.635290 0.000001 -0.000000
  7 -0.000001 28.528530 -2.793944 0.121671 0.049487 -0.005788
  8 -0.000000 4.967566 0.000000 -0.412787 0.163580 -0.010203
  9 0.000001 10.424910 -0.000001 -0.097639 -0.047902 -1.589250
  10 0.000003 5.721372 -0.000001 -0.012818 0.147787 -0.845268
  11 0.000005 8.563448 0.000003 -1.799050 0.186230 0.149427
  12 -0.000003 7.483445 -0.000000 -0.992357 0.563663 -0.210810
  13 0.000001 10.424910 -0.000001 0.641231 0.832606 0.532814
  14 0.000001 3.096221 -0.000000 1.178884 -0.814823 0.099040
  15 0.000001 10.424910 -0.000001 0.232512 -0.028500 1.399710
  16 -0.000000 5.721372 -0.000001 -0.920800 0.297844 0.303710
  17 -0.000003 8.563445 -0.000001 -0.992000 -0.067780 -0.128293
  18 -0.000003 7.483445 0.000002 -0.158873 0.490700 -1.260509
  19 0.119126 7.401336 -0.700705 -1.570796 0.000000 -0.000000
  20 -0.182472 0.858615 -0.214674 0.000000 -0.000000 -0.000000
  21 0.644811 -0.364824 -0.425436 3.141593 -1.570796 0.000000
  22 -0.000001 28.528530 -2.793944 -0.054701 0.209358 1.697962
  23 0.000000 3.833358 0.000002 -2.269685 -0.125906 1.680713
  24 -0.000000 13.500027 0.000000 2.235421 0.318868 -0.157612
  25 -0.000002 11.928186 0.000002 0.263628 -0.900252 0.054064
  26 -0.000001 3.538861 0.000000 -2.328044 -0.043700 0.041268
  27 -0.000000 13.500028 -0.000000 1.635290 -0.000001 -0.000000
  28 -0.000001 28.528530 -2.793944 -2.345601 0.058918 0.001204
  29 -9.555299 9.098008 -21.430552 0.000000 -0.000000 -1.570796
  30 -10.598898 -12.818357 -20.762182 0.000000 -0.000000 -1.570796
  31 5.521569 -4.730267 -21.950087 -0.614387 -0.680049 -0.912120
  32 20.278637 6.902841 -22.181742 0.849316 0.000000 -1.570796
  33 9.525342 4.748715 2.040428 0.000000 -0.000000 -1.570796
  34 -14.183359 -0.918569 -7.255743 0.000000 -0.000000 -1.570796
  35 -21.843306 -10.862550 -17.559734 0.000000 -0.000000 1.570796
  36 -14.054515 6.556364 -17.908083 0.000000 -0.000000 1.570796
  time 22
  0 26.377323 0.768702 -15.111120 0.267260 -0.037718 1.599267
  1 0.000001 28.528528 -2.793942 -0.031887 -0.205759 -1.763296
  2 0.000000 3.833359 -0.000001 -1.325328 0.308869 -1.495862
  3 0.000002 13.500031 -0.000001 1.522452 -0.188279 0.200511
  4 0.000003 11.928188 0.000002 0.641425 0.009672 -0.008786
  5 0.000000 3.538860 -0.000001 -2.328044 0.043700 -0.041269
  6 0.000002 13.500029 -0.000001 1.635290 0.000001 -0.000000
  7 0.000001 28.528528 -2.793942 -0.106323 0.031341 -0.010998
  8 0.000000 4.967566 -0.000000 -0.530922 0.099820 0.070387
  9 -0.000000 10.424911 -0.000002 -0.077989 -0.051868 -1.582355
  10 -0.000001 5.721373 0.000000 0.089324 -0.089628 -0.436494
  11 0.000001 8.563447 0.000003 -1.930442 0.205274 0.143550
  12 -0.000002 7.483443 -0.000002 -0.616933 0.399865 -0.071272
  13 -0.000000 10.424911 -0.000002 0.273660 0.917602 0.162840
  14 -0.000001 3.096223 -0.000000 1.361509 -0.851154 0.058844
  15 -0.000000 10.424911 -0.000002 0.080353 -0.082593 1.420684
  16 0.000001 5.721372 0.000001 -0.391249 0.212974 0.400992
  17 -0.000000 8.563451 0.000000 -1.581065 -0.153312 -0.153429
  18 0.000002 7.483445 0.000003 -0.158872 0.490700 -1.260510
  19 0.119125 7.401338 -0.700706 -1.570796 0.000000 -0.000000
  20 -0.182472 0.858615 -0.214673 0.000000 0.000000 0.000000
  21 0.644811 -0.364824 -0.425435 3.141593 -1.570796 0.000000
  22 0.000001 28.528528 -2.793942 -0.054701 0.209358 1.697962
  23 -0.000000 3.833359 0.000001 -1.928010 -0.173848 1.678654
  24 -0.000000 13.500025 -0.000003 2.003885 0.280768 -0.181997
  25 0.000000 11.928185 0.000002 0.335045 -0.951617 -0.006900
  26 0.000000 3.538861 0.000001 -2.328044 -0.043700 0.041269
  27 -0.000000 13.500026 -0.000004 1.635290 -0.000001 -0.000000
  28 0.000001 28.528528 -2.793942 -2.193306 0.080180 0.007773
  29 -12.440032 9.362357 -19.797054 0.000000 -0.000000 -1.570796
  30 -11.301579 -12.680252 -20.910709 0.000000 -0.000000 -1.570796
  31 5.654114 -4.730267 -22.070366 -0.607245 -0.740494 -0.888310
  32 13.095938 7.354924 -20.795673 0.000413 0.036520 -1.551876
  33 9.525342 5.068755 3.182981 0.000000 -0.000000 -1.570796
  34 -14.183359 -0.918569 -7.255743 0.000000 -0.000000 -1.570796
  35 -21.843306 -10.862550 -17.559734 0.000000 -0.000000 1.570796
  36 -13.478420 6.538642 -16.926033 0.000000 -0.000000 1.570796
  time 23
  0 19.705704 1.284359 -20.249241 0.579567 -0.071804 1.607420
  1 0.000002 28.528534 -2.793942 -0.031887 -0.205759 -1.763296
  2 -0.000002 3.833358 0.000001 -1.237530 0.244418 -1.402091
  3 -0.000005 13.500024 -0.000004 1.628160 -0.209355 0.200415
  4 0.000004 11.928190 0.000001 -0.250137 0.051404 0.001819
  5 0.000001 3.538862 -0.000001 -2.328044 0.043700 -0.041268
  6 -0.000004 13.500024 -0.000006 1.635290 0.000001 0.000000
  7 0.000002 28.528534 -2.793942 -0.337173 0.012237 -0.011955
  8 -0.000000 4.967567 0.000000 -0.654139 0.045777 0.158198
  9 0.000001 10.424910 -0.000001 -0.058365 -0.055969 -1.575539
  10 0.000000 5.721372 -0.000001 -0.385960 0.074715 -0.676116
  11 0.000003 8.563454 0.000004 -1.491420 0.139611 0.152950
  12 -0.000002 7.483443 0.000001 -0.276225 0.196116 -0.007821
  13 0.000001 10.424910 -0.000001 -0.137357 0.905040 -0.250563
  14 0.000000 3.096222 0.000000 1.554458 -0.881932 0.007126
  15 0.000001 10.424910 -0.000001 -0.074801 -0.133176 1.450019
  16 0.000002 5.721370 -0.000001 -0.367697 0.165877 0.429665
  17 -0.000003 8.563446 0.000000 -1.214530 -0.098257 -0.143732
  18 0.000002 7.483445 0.000002 -0.158872 0.490700 -1.260510
  19 0.119127 7.401337 -0.700705 -1.570796 0.000000 0.000000
  20 -0.182472 0.858613 -0.214673 0.000000 0.000000 0.000000
  21 0.644811 -0.364826 -0.425436 -3.141593 -1.570796 0.000000
  22 0.000002 28.528534 -2.793942 -0.054701 0.209358 1.697962
  23 0.000001 3.833359 0.000001 -1.319351 -0.313775 1.630895
  24 -0.000001 13.500023 0.000001 1.517233 0.187237 -0.200458
  25 0.000002 11.928187 -0.000002 0.417667 -1.000072 -0.079224
  26 -0.000001 3.538861 0.000001 -2.328044 -0.043700 0.041269
  27 -0.000002 13.500027 -0.000001 1.635290 -0.000001 -0.000000
  28 0.000002 28.528534 -2.793942 -2.035069 0.100893 0.017927
  29 -15.324766 9.626704 -18.163559 0.000000 -0.000000 -1.570796
  30 -12.004262 -12.542148 -21.059235 0.000000 -0.000000 -1.570796
  31 5.786659 -4.730267 -22.190643 -0.601734 -0.801120 -0.863651
  32 5.913237 7.807006 -19.409603 -0.892403 0.076298 -1.568385
  33 9.525342 5.388794 4.325535 0.000000 -0.000000 -1.570796
  34 -14.183359 -0.918569 -7.255743 0.000000 -0.000000 -1.570796
  35 -21.843306 -10.862550 -17.559734 0.000000 -0.000000 1.570796
  36 -12.902324 6.520920 -15.943983 0.000000 -0.000000 1.570796
  time 24
  0 11.305891 1.899820 -27.541882 1.000634 -0.098627 1.597132
  1 0.000004 28.528528 -2.793938 -0.031887 -0.205759 -1.763296
  2 -0.000001 3.833358 0.000001 -1.301394 0.146768 -1.384749
  3 -0.000000 13.500026 -0.000001 2.034853 -0.286198 0.179274
  4 0.000003 11.928180 0.000002 0.756464 -0.035108 0.065593
  5 0.000002 3.538860 0.000002 -2.328044 0.043699 -0.041269
  6 -0.000000 13.500029 -0.000001 1.635289 0.000001 -0.000000
  7 0.000004 28.528530 -2.793940 -0.564946 -0.006338 -0.008588
  8 -0.000000 4.967566 -0.000001 -0.780581 0.003353 0.251215
  9 -0.000001 10.424909 -0.000000 -0.038773 -0.060201 -1.568806
  10 0.000002 5.721373 -0.000001 -0.810566 0.181082 -0.834880
  11 0.000000 8.563452 0.000003 -1.182075 0.093611 0.141909
  12 -0.000001 7.483442 0.000003 0.033562 -0.008824 -0.015087
  13 -0.000001 10.424909 -0.000000 0.133712 1.081486 -0.198831
  14 0.000001 3.096222 0.000001 0.512149 -0.852923 0.193525
  15 -0.000001 10.424909 -0.000000 -0.231518 -0.178320 1.486891
  16 0.000004 5.721375 -0.000001 -0.250950 0.083745 0.356693
  17 -0.000005 8.563448 0.000002 -0.908917 -0.057390 -0.120856
  18 0.000002 7.483445 0.000004 -0.158872 0.490700 -1.260509
  19 0.119126 7.401337 -0.700705 -1.570796 0.000000 -0.000000
  20 -0.182472 0.858616 -0.214673 0.000000 -0.000000 0.000000
  21 0.644811 -0.364823 -0.425436 -3.141593 -1.570796 0.000000
  22 0.000004 28.528528 -2.793938 -0.054701 0.209358 1.697962
  23 -0.000002 3.833358 -0.000000 -0.770156 -0.394394 1.498569
  24 -0.000006 13.500026 0.000003 1.270388 0.138610 -0.191644
  25 -0.000002 11.928187 0.000001 0.513442 -1.044683 -0.164851
  26 -0.000001 3.538862 0.000001 -2.328044 -0.043700 0.041268
  27 -0.000005 13.500026 0.000001 1.635290 -0.000002 0.000000
  28 0.000004 28.528528 -2.793938 -2.048487 0.100355 0.016947
  29 -18.209497 9.891052 -16.530064 0.000000 -0.000000 -1.570796
  30 -12.706944 -12.404043 -21.207762 0.000000 -0.000000 -1.570796
  31 5.919205 -4.730267 -22.310921 -0.598143 -0.861758 -0.837837
  32 -1.269465 6.635681 -16.923172 0.119923 0.044936 -1.465405
  33 9.525342 5.708833 5.468084 0.000000 -0.000000 -1.570796
  34 -14.183359 -0.918569 -7.255743 0.000000 -0.000000 -1.570796
  35 -21.843306 -10.862550 -17.559734 0.000000 -0.000000 1.570796
  36 -12.326228 6.503197 -14.961932 0.000000 -0.000000 1.570796
  time 25
  0 3.501823 2.415477 -35.248749 1.402219 -0.110582 1.579194
  1 0.000001 28.528536 -2.793940 -0.031887 -0.205759 -1.763296
  2 0.000001 3.833359 -0.000000 -1.630285 0.226719 -1.538828
  3 0.000001 13.500035 -0.000004 1.925267 -0.266591 0.188115
  4 0.000002 11.928200 -0.000006 0.124281 -0.204576 -0.324514
  5 -0.000000 3.538865 -0.000002 -2.328044 0.043700 -0.041269
  6 0.000002 13.500035 -0.000003 1.635290 0.000001 -0.000000
  7 0.000001 28.528536 -2.793940 -0.496185 0.000835 0.034876
  8 -0.000000 4.967566 -0.000000 -0.677574 -0.015158 0.218256
  9 -0.000001 10.424911 -0.000001 -0.029889 -0.048866 -1.615236
  10 0.000001 5.721372 -0.000000 -1.300845 -0.044644 -0.746557
  11 0.000001 8.563446 0.000002 -0.005228 -0.001712 0.000799
  12 0.000002 7.483449 -0.000001 0.033562 -0.008824 -0.015087
  13 -0.000001 10.424911 -0.000001 -0.180206 0.822348 -0.355892
  14 0.000000 3.096221 0.000000 0.234861 -0.683270 0.145549
  15 -0.000001 10.424911 -0.000001 -0.189818 -0.137409 1.545955
  16 0.000000 5.721375 -0.000001 -0.290169 0.373426 0.540305
  17 -0.000004 8.563448 -0.000000 -0.588143 -0.024013 -0.084898
  18 -0.000003 7.483445 0.000001 0.025032 0.274179 -0.577257
  19 0.119124 7.401335 -0.700706 -1.570796 0.000000 0.000000
  20 -0.182472 0.858614 -0.214672 0.000000 0.000000 -0.000000
  21 0.644811 -0.364823 -0.425437 3.141593 -1.570796 0.000000
  22 0.000001 28.528536 -2.793940 -0.054701 0.209358 1.697962
  23 -0.000000 3.833359 0.000000 -0.525112 -0.399598 1.383942
  24 -0.000002 13.500031 -0.000002 1.657873 0.215249 -0.199978
  25 0.000002 11.928189 0.000001 0.519015 -1.027572 -0.143318
  26 -0.000001 3.538862 -0.000000 -2.328044 -0.043700 0.041268
  27 -0.000001 13.500031 -0.000002 1.635290 -0.000001 -0.000000
  28 0.000001 28.528536 -2.793940 -2.087910 0.098700 0.014109
  29 -17.551233 9.393500 -15.395104 0.000000 -0.000000 -1.570796
  30 -11.442949 -11.871874 -18.611374 0.000000 -0.000000 -1.570796
  31 5.897636 -4.730319 -22.278545 -0.562349 -0.844181 -0.853359
  32 -8.578723 6.457573 -21.072609 -0.529921 -0.323304 -1.675389
  33 9.525342 6.028872 6.610636 0.000000 -0.000000 -1.570796
  34 -9.441617 -3.452826 -3.568424 0.000000 -0.000000 -1.570796
  35 -18.937334 -9.831766 -16.144718 0.000000 -0.000000 1.570796
  36 -11.750132 6.485474 -13.979882 0.000000 -0.000000 1.570796
  time 26
  0 0.000000 2.631719 -38.949020 1.579157 -0.112028 1.570797
  1 0.000001 28.528530 -2.793941 -0.031887 -0.205759 -1.763296
  2 -0.000001 3.833359 0.000000 -1.690560 0.229826 -1.500558
  3 -0.000001 13.500028 -0.000003 2.123465 -0.301197 0.170544
  4 0.000004 11.928191 -0.000003 0.217479 -0.141418 -0.280521
  5 0.000001 3.538862 -0.000000 -2.328044 0.043700 -0.041268
  6 -0.000002 13.500029 -0.000002 1.635290 0.000001 -0.000000
  7 0.000001 28.528530 -2.793941 -0.427024 0.005005 0.078828
  8 0.000000 4.967567 0.000001 -0.573476 -0.030235 0.183385
  9 -0.000002 10.424907 -0.000002 -0.021549 -0.037137 -1.661524
  10 -0.000001 5.721373 0.000000 -0.852876 -0.236289 -0.720233
  11 -0.000003 8.563447 0.000003 -0.770612 0.041583 0.106664
  12 0.000001 7.483443 0.000001 0.033562 -0.008824 -0.015087
  13 -0.000002 10.424907 -0.000002 -0.393289 0.533888 -0.384045
  14 -0.000000 3.096220 0.000001 -0.019746 -0.529724 0.051520
  15 -0.000002 10.424907 -0.000002 -0.145607 -0.098738 1.606885
  16 -0.000002 5.721374 0.000001 0.626952 0.554618 0.973450
  17 0.000001 8.563446 0.000002 -1.758856 -0.180253 -0.150711
  18 0.000000 7.483445 -0.000000 0.033562 0.008824 0.015087
  19 0.119126 7.401335 -0.700704 -1.570796 -0.000000 -0.000000
  20 -0.182472 0.858614 -0.214673 0.000000 0.000000 -0.000000
  21 0.644811 -0.364824 -0.425435 -3.141593 -1.570796 0.000000
  22 0.000001 28.528530 -2.793941 -0.054701 0.209358 1.697962
  23 -0.000001 3.833358 -0.000000 -0.425997 -0.412609 1.303435
  24 -0.000003 13.500027 -0.000003 1.980990 0.276695 -0.183897
  25 -0.000001 11.928186 -0.000001 0.573141 -0.906173 0.002611
  26 0.000001 3.538862 -0.000001 -2.328045 -0.043700 0.041269
  27 -0.000002 13.500029 -0.000003 1.635290 -0.000002 -0.000000
  28 0.000001 28.528530 -2.793940 -2.150819 0.095831 0.009722
  29 -15.752817 8.034164 -12.294341 0.000000 -0.000000 -1.570796
  30 -8.391397 -10.587106 -12.343138 0.000000 -0.000000 -1.570796
  31 5.746658 -4.730688 -22.051914 -0.332464 -0.708555 -0.932155
  32 -8.285933 6.480770 -21.020466 -0.428061 -0.246802 -1.679245
  33 9.525342 6.348912 7.753185 0.000000 -0.000000 -1.570796
  34 -4.699878 -5.987083 0.118891 0.000000 -0.000000 -1.570796
  35 -16.031363 -8.800984 -14.729701 0.000000 -0.000000 1.570796
  36 -11.174036 6.467752 -12.997833 0.000000 -0.000000 1.570796
  time 27
  0 0.000000 2.186690 -38.949020 1.579157 -0.112028 1.570797
  1 0.000001 28.528530 -2.793941 -0.031887 -0.205759 -1.763296
  2 -0.000001 3.833359 0.000000 -1.694395 0.309713 -1.513070
  3 -0.000000 13.500028 -0.000003 2.127300 -0.301827 0.170135
  4 0.000003 11.928190 -0.000002 0.314419 -0.081629 -0.230215
  5 0.000000 3.538863 -0.000001 -2.328044 0.043700 -0.041269
  6 -0.000000 13.500030 -0.000003 1.635290 0.000001 0.000000
  7 0.000001 28.528530 -2.793941 -0.357825 0.006124 0.122914
  8 -0.000000 4.967567 0.000000 -0.468998 -0.041586 0.147164
  9 -0.000000 10.424906 0.000001 -0.013776 -0.025055 -1.707624
  10 -0.000001 5.721373 -0.000000 -0.409955 -0.463153 -0.603728
  11 -0.000003 8.563448 0.000005 -1.473083 0.136813 0.152699
  12 0.000001 7.483442 -0.000000 0.033562 -0.008824 -0.015087
  13 -0.000000 10.424906 0.000001 -0.403738 0.287821 -0.294544
  14 -0.000000 3.096222 -0.000000 0.416691 -0.261501 0.321226
  15 -0.000000 10.424906 0.000001 -0.099065 -0.062709 1.669534
  16 0.000003 5.721372 0.000001 1.230119 0.532792 1.058838
  17 -0.000003 8.563452 0.000001 -1.987453 -0.213242 -0.140219
  18 0.000003 7.483445 0.000003 0.033562 0.008824 0.015087
  19 0.119127 7.401337 -0.700704 -1.570796 -0.000000 -0.000000
  20 -0.182472 0.858614 -0.214672 0.000000 0.000000 -0.000000
  21 0.644811 -0.364824 -0.425437 -3.141593 -1.570796 0.000000
  22 0.000001 28.528530 -2.793941 -0.054701 0.209358 1.697962
  23 -0.000001 3.833358 -0.000000 -0.452886 -0.388166 1.357853
  24 -0.000001 13.500029 -0.000003 2.050151 0.288846 -0.177866
  25 -0.000003 11.928185 -0.000001 0.807505 -0.599043 0.383957
  26 0.000000 3.538861 0.000001 -2.328045 -0.043700 0.041269
  27 -0.000001 13.500031 -0.000003 1.635290 -0.000001 -0.000000
  28 0.000001 28.528530 -2.793941 -2.232980 0.091678 0.004279
  29 -13.296136 6.177277 -8.058617 0.000000 -0.000000 -1.570796
  30 -6.233626 -13.448803 -7.910826 0.000000 -0.000000 -1.570796
  31 5.336860 -4.731686 -21.436775 0.173225 -0.297417 -0.944094
  32 -7.993143 6.503967 -20.968323 -0.326397 -0.168982 -1.674994
  33 9.525342 6.668951 8.895739 0.000000 -0.000000 -1.570796
  34 0.041863 -8.521338 3.806208 0.000000 -0.000000 -1.570796
  35 -13.125388 -7.770201 -13.314684 0.000000 -0.000000 1.570796
  36 -10.597940 6.450029 -12.015784 0.000000 -0.000000 1.570796
  time 28
  0 -0.096239 1.369561 -32.875652 1.633549 -0.053372 1.662303
  1 0.000003 28.528528 -2.793936 -0.031887 -0.205759 -1.763296
  2 0.000000 3.833358 0.000000 -1.285630 0.327067 -1.502380
  3 -0.000003 13.500030 -0.000004 1.585005 -0.200763 0.200729
  4 0.000003 11.928185 -0.000002 0.517569 0.017033 -0.181792
  5 -0.000000 3.538862 -0.000001 -2.328044 0.043700 -0.041268
  6 -0.000001 13.500029 -0.000003 1.635290 0.000001 -0.000000
  7 0.000003 28.528528 -2.793936 -0.246714 -0.005826 0.030186
  8 -0.000000 4.967566 0.000000 -0.380243 -0.038465 0.090058
  9 -0.000000 10.424911 0.000001 -0.006588 -0.012661 -1.753495
  10 0.000001 5.721373 -0.000001 -0.126420 -0.444173 -0.904784
  11 -0.000004 8.563450 0.000002 -0.970725 0.065061 0.126472
  12 -0.000000 7.483447 0.000002 0.033562 -0.008824 -0.015087
  13 -0.000000 10.424911 0.000001 -0.434263 0.050854 -0.208862
  14 0.000000 3.096222 0.000002 0.331203 -0.217799 0.297572
  15 -0.000000 10.424911 0.000001 -0.050429 -0.029690 1.733695
  16 0.000000 5.721372 -0.000000 0.472576 0.660028 0.893736
  17 0.000000 8.563448 0.000001 -1.529974 -0.145501 -0.153308
  18 0.000000 7.483445 0.000003 0.033562 0.008824 0.015087
  19 0.119125 7.401336 -0.700705 -1.570796 0.000000 0.000000
  20 -0.182472 0.858614 -0.214671 0.000000 0.000000 -0.000000
  21 0.644811 -0.364825 -0.425434 -3.141592 -1.570796 0.000000
  22 0.000003 28.528528 -2.793936 -0.054701 0.209358 1.697962
  23 0.000002 3.833359 -0.000000 -0.589565 -0.174994 1.433657
  24 -0.000002 13.500031 -0.000003 1.837625 0.250211 -0.193554
  25 0.000001 11.928186 0.000001 0.426336 -0.611080 0.009369
  26 0.000001 3.538861 0.000000 -2.328044 -0.043700 0.041269
  27 -0.000002 13.500032 -0.000003 1.635290 -0.000002 0.000000
  28 0.000003 28.528528 -2.793936 -2.328569 0.086303 -0.001598
  29 -7.376451 8.712751 -3.571903 0.000000 -0.000000 -1.570796
  30 -4.075853 -10.655251 -3.478514 0.000000 -0.000000 -1.570796
  31 5.142745 -4.732159 -18.767281 -0.324865 -0.504084 -1.192499
  32 -7.700353 6.527163 -20.916182 -0.119374 -0.060919 -1.695070
  33 9.525342 6.988990 10.038294 0.000000 -0.000000 -1.570796
  34 4.783602 -11.055596 7.493526 0.000000 -0.000000 -1.570796
  35 -10.219416 -6.739419 -11.899668 0.000000 -0.000000 1.570796
  36 -10.021845 6.432307 -11.033734 0.000000 -0.000000 1.570796
  time 29
  0 -0.192479 0.552432 -26.802284 1.692985 -0.000000 1.756718
  1 0.000004 28.528528 -2.793937 -0.031887 -0.205759 -1.763296
  2 0.000001 3.833358 0.000001 -0.796946 0.387362 -1.429815
  3 -0.000000 13.500026 -0.000003 0.830568 -0.062376 0.147760
  4 0.000005 11.928192 -0.000001 0.722683 0.102342 -0.115453
  5 0.000000 3.538863 -0.000001 -2.328044 0.043700 -0.041268
  6 -0.000000 13.500028 -0.000002 1.635290 0.000001 0.000000
  7 0.000004 28.528528 -2.793937 -0.135437 -0.007399 -0.062907
  8 -0.000000 4.967568 0.000000 -0.119236 0.000212 -0.075137
  9 0.000001 10.424911 0.000001 -0.000000 0.000000 -1.799097
  10 0.000001 5.721373 -0.000001 0.372560 -0.262323 -1.001852
  11 -0.000001 8.563444 0.000002 -0.841535 0.049442 0.114213
  12 0.000002 7.483444 0.000001 0.033562 -0.008824 -0.015087
  13 0.000001 10.424911 0.000001 -0.481842 -0.168659 -0.120667
  14 0.000000 3.096220 -0.000001 0.249976 -0.178367 0.271942
  15 0.000001 10.424911 0.000001 0.000000 -0.000000 1.799097
  16 -0.000006 5.721373 -0.000001 -0.433903 0.807843 0.901646
  17 0.000002 8.563445 -0.000001 -0.005209 0.001712 -0.000796
  18 0.000002 7.483443 -0.000002 0.033562 0.008824 0.015087
  19 0.119126 7.401339 -0.700705 -1.570796 -0.000000 -0.000000
  20 -0.182472 0.858614 -0.214675 0.000000 -0.000000 0.000000
  21 0.644811 -0.364824 -0.425438 -3.141593 -1.570796 0.000000
  22 0.000004 28.528528 -2.793937 -0.054701 0.209358 1.697962
  23 0.000002 3.833357 -0.000000 -0.348498 -0.056525 1.426516
  24 -0.000002 13.500026 -0.000003 0.927618 0.077416 -0.160247
  25 -0.000001 11.928189 0.000001 0.109856 0.008209 0.045962
  26 -0.000001 3.538861 0.000001 -2.328044 -0.043700 0.041269
  27 -0.000002 13.500026 -0.000002 1.635290 -0.000002 -0.000000
  28 0.000004 28.528528 -2.793937 -2.430570 0.079974 -0.007273
  29 -1.456767 11.248226 0.914814 0.000000 -0.000000 -1.570796
  30 -1.918080 -7.861698 0.953798 0.000000 -0.000000 -1.570796
  31 4.948629 -4.732633 -20.854012 -0.531476 0.000045 -1.570616
  32 -7.407561 6.550360 -20.864038 0.081761 0.047038 -1.692752
  33 9.525342 7.309030 11.180841 0.000000 -0.000000 -1.570796
  34 9.525341 -13.589853 11.180841 0.000000 -0.000000 -1.570796
  35 -7.313444 -5.708637 -10.484650 0.000000 -0.000000 1.570796
  36 -9.445749 6.414584 -10.051682 0.000000 -0.000000 1.570796
end
