version 1
nodes
0 "Base" -1
1 "R.hip" 0
2 "R.thigh" 1
3 "R.calve" 2
4 "R.heel" 3
5 "R.foot" 4
6 "R.thigh.001" 2
7 "Torso_bot" 0
8 "Torso_top" 7
9 "R.shoulder" 8
10 "R.bicep" 9
11 "R.forearm" 10
12 "R.hand" 11
13 "Neck" 8
14 "Head" 13
15 "L.shoulder" 8
16 "L.bicep" 15
17 "L.forearm" 16
18 "L.hand" 17
19 "Torso_bot.001" 7
20 "Torso_bot.002" 19
21 "Torso_bot.003" 19
22 "L.hip" 0
23 "L.thigh" 22
24 "L.calve" 23
25 "L.heel" 24
26 "L.foot" 25
27 "L.thigh.001" 23
28 "Base.001" 0
29 "R.armIK.000" -1
30 "L.armIK.000" -1
31 "L.LegIK.000" -1
32 "R.LegIK.000" -1
33 "UpperarmIK.L" -1
34 "UpperarmIK.R" -1
35 "KneeIK.L" -1
36 "KneeIK.R" -1
end
skeleton
  time 0
  0 -0.192479 0.000000 -26.802284 1.692985 -0.000000 1.570796
  1 0.000004 28.528524 -2.793940 -0.169506 -0.150341 -1.726536
  2 -0.000003 3.833359 0.000000 0.139919 0.195547 -1.444275
  3 0.000005 13.500036 -0.000005 0.584874 -0.030367 0.110313
  4 0.000000 11.928187 0.000003 0.097008 -0.008281 -0.045790
  5 0.000000 3.538862 -0.000000 -2.328044 0.043700 -0.041269
  6 0.000005 13.500034 -0.000005 1.635290 0.000001 0.000000
  7 0.000004 28.528524 -2.793940 -0.328634 -0.000000 -0.000000
  8 -0.000000 4.967567 0.000000 -0.332327 -0.047628 0.104065
  9 -0.000000 10.424907 -0.000000 0.271598 0.069979 -1.844060
  10 -0.000002 5.721374 0.000000 -1.116152 -0.655644 -0.657194
  11 0.000000 8.563442 0.000002 -1.721019 0.174579 0.151696
  12 0.000001 7.483441 0.000000 0.033562 -0.008824 -0.015087
  13 -0.000000 10.424907 -0.000000 -0.183728 0.070078 0.021206
  14 -0.000000 3.096221 -0.000001 -0.278277 0.127385 0.022459
  15 -0.000000 10.424907 -0.000000 -0.274891 0.055260 1.736922
  16 0.000000 5.721372 -0.000000 -0.459140 0.263998 0.885459
  17 -0.000001 8.563446 0.000002 -2.261658 -0.248129 -0.118064
  18 -0.000001 7.483444 0.000002 0.033562 0.008824 0.015087
  19 0.119125 7.401337 -0.700706 -1.570796 0.000000 0.000000
  20 -0.182472 0.858614 -0.214671 0.000000 0.000000 -0.000000
  21 0.644811 -0.364825 -0.425434 3.141593 -1.570796 0.000000
  22 0.000004 28.528524 -2.793940 0.058237 0.114506 1.728549
  23 -0.000001 3.833359 0.000000 -0.674024 0.086707 1.445438
  24 -0.000001 13.500030 0.000000 0.723086 0.047233 -0.132331
  25 -0.000001 11.928184 0.000000 0.802768 0.008280 0.045790
  26 -0.000000 3.538861 0.000001 -2.328044 -0.043700 0.041269
  27 -0.000000 13.500030 -0.000000 1.635290 -0.000001 -0.000000
  28 0.000004 28.528524 -2.793940 -2.481482 -0.059171 0.020839
  29 -11.846958 1.698669 10.024031 0.000000 -0.000000 -1.570796
  30 -11.495533 -3.244453 9.447950 0.000000 -0.000000 -1.570796
  31 -7.199004 -4.261562 -21.117443 0.161437 0.000000 -1.570796
  32 9.704033 4.303078 -20.932076 -0.544323 -0.000000 -1.570796
  33 9.525342 9.145164 11.180841 0.000000 -0.000000 -1.570796
  34 9.525340 -9.145165 11.180841 0.000000 -0.000000 -1.570796
  35 -19.481180 -3.775503 -9.069633 0.000000 -0.000000 1.570796
  36 -19.481180 3.775506 -9.069633 0.000000 -0.000000 1.570796
  time 1
  0 -0.192402 0.000253 -26.751801 1.692985 -0.000000 1.570796
  1 0.000004 28.528526 -2.793941 -0.163324 -0.149380 -1.726699
  2 -0.000002 3.833358 0.000000 0.005159 0.189946 -1.468143
  3 0.000005 13.500033 -0.000003 0.844575 -0.064470 0.149650
  4 0.000001 11.928185 0.000003 0.142034 -0.008281 -0.045790
  5 -0.000000 3.538861 0.000001 -2.328044 0.043700 -0.041268
  6 0.000005 13.500033 -0.000003 1.635290 0.000001 0.000000
  7 0.000004 28.528526 -2.793941 -0.328634 -0.000000 -0.000000
  8 -0.000000 4.967567 0.000000 -0.325646 -0.046418 0.099473
  9 0.000000 10.424908 -0.000001 0.253265 0.064876 -1.841625
  10 -0.000003 5.721372 0.000003 -1.098292 -0.646257 -0.669798
  11 -0.000003 8.563448 0.000003 -1.728413 0.175691 0.151520
  12 0.000001 7.483442 -0.000001 0.033562 -0.008824 -0.015087
  13 0.000000 10.424908 -0.000001 -0.183832 0.065248 0.019589
  14 0.000000 3.096224 0.000002 -0.296582 0.108529 0.017776
  15 0.000000 10.424908 -0.000001 -0.150599 0.032497 1.766813
  16 0.000005 5.721371 0.000003 -0.576141 0.339429 0.845151
  17 0.000001 8.563451 0.000004 -2.161687 -0.236153 -0.127265
  18 0.000001 7.483446 -0.000002 0.033562 0.008824 0.015087
  19 0.119125 7.401339 -0.700705 -1.570796 0.000000 0.000000
  20 -0.182472 0.858615 -0.214674 0.000000 0.000000 -0.000000
  21 0.644811 -0.364824 -0.425437 3.141593 -1.570796 0.000000
  22 0.000004 28.528526 -2.793941 0.057177 0.114673 1.728559
  23 -0.000001 3.833359 0.000000 -0.652094 0.085964 1.453778
  24 -0.000001 13.500028 -0.000002 0.798023 0.057615 -0.143258
  25 -0.000004 11.928183 0.000002 0.726650 0.008280 0.045790
  26 -0.000000 3.538860 0.000001 -2.328044 -0.043700 0.041268
  27 -0.000002 13.500030 -0.000000 1.635290 -0.000001 -0.000000
  28 0.000004 28.528526 -2.793941 -2.490633 -0.053618 0.024735
  29 -11.861519 1.715108 10.118292 0.000000 -0.000000 -1.570796
  30 -11.519748 -3.241683 9.576040 0.000000 -0.000000 -1.570796
  31 -5.824021 -4.262633 -21.119747 0.085319 0.000000 -1.570796
  32 9.046587 4.293416 -19.864185 -0.499297 -0.000000 -1.570796
  33 9.525342 9.145164 11.180841 0.000000 -0.000000 -1.570796
  34 9.525340 -9.145165 11.180841 0.000000 -0.000000 -1.570796
  35 -19.481180 -3.775503 -9.069633 0.000000 -0.000000 1.570796
  36 -19.481180 3.775506 -9.069633 0.000000 -0.000000 1.570796
  time 2
  0 -0.192206 0.000884 -26.614388 1.692985 -0.000000 1.570796
  1 0.000004 28.528526 -2.793941 -0.158425 -0.148619 -1.726824
  2 0.000003 3.833359 -0.000000 -0.153813 0.178651 -1.489552
  3 0.000005 13.500033 0.000003 1.074991 -0.102397 0.176305
  4 0.000001 11.928186 0.000002 0.225677 -0.008280 -0.045790
  5 -0.000000 3.538862 0.000002 -2.328044 0.043700 -0.041268
  6 0.000005 13.500032 0.000003 1.635291 0.000002 0.000000
  7 0.000004 28.528526 -2.793941 -0.328634 -0.000000 -0.000000
  8 -0.000000 4.967566 -0.000000 -0.308049 -0.043078 0.087401
  9 -0.000001 10.424907 -0.000001 0.203872 0.051368 -1.834611
  10 -0.000001 5.721372 0.000001 -1.051182 -0.619555 -0.702067
  11 -0.000002 8.563450 0.000003 -1.749359 0.178833 0.150978
  12 -0.000000 7.483446 0.000001 0.033562 -0.008824 -0.015087
  13 -0.000001 10.424907 -0.000001 -0.184068 0.052327 0.015420
  14 -0.000000 3.096221 0.000000 -0.336539 0.062424 0.007555
  15 -0.000001 10.424907 -0.000001 -0.095790 0.021265 1.779099
  16 0.000007 5.721372 0.000001 -0.634840 0.363412 0.828723
  17 0.000001 8.563446 0.000003 -2.104593 -0.228910 -0.131956
  18 0.000000 7.483443 -0.000000 0.033562 0.008824 0.015087
  19 0.119126 7.401339 -0.700705 -1.570796 0.000000 0.000000
  20 -0.182472 0.858614 -0.214671 0.000000 0.000000 -0.000000
  21 0.644811 -0.364824 -0.425437 3.141593 -1.570796 0.000000
  22 0.000004 28.528526 -2.793941 0.049757 0.115846 1.728622
  23 -0.000003 3.833358 0.000000 -0.565507 0.073353 1.467085
  24 -0.000004 13.500034 -0.000001 0.892651 0.071858 -0.155914
  25 -0.000001 11.928188 0.000003 0.556714 0.008280 0.045790
  26 0.000001 3.538862 0.000001 -2.328044 -0.043700 0.041269
  27 -0.000004 13.500031 0.000000 1.635290 -0.000001 -0.000000
  28 0.000004 28.528526 -2.793941 -2.514134 -0.038691 0.033802
  29 -11.901042 1.759724 10.374132 0.000000 -0.000000 -1.570796
  30 -11.585474 -3.234164 9.923708 0.000000 -0.000000 -1.570796
  31 -2.799059 -4.264988 -21.124815 -0.084617 0.000000 -1.570796
  32 7.525491 4.275470 -18.825283 -0.415654 -0.000000 -1.570796
  33 9.525342 9.145164 11.180841 0.000000 -0.000000 -1.570796
  34 9.525340 -9.145165 11.180841 0.000000 -0.000000 -1.570796
  35 -19.481180 -3.775503 -9.069633 0.000000 -0.000000 1.570796
  36 -19.481180 3.775506 -9.069633 0.000000 -0.000000 1.570796
  time 3
  0 -0.191944 0.001704 -26.411118 1.692985 -0.000000 1.570796
  1 0.000004 28.528526 -2.793941 -0.140738 -0.145863 -1.727244
  2 -0.000001 3.833358 0.000000 -0.281452 0.150132 -1.499954
  3 0.000005 13.500030 0.000001 1.189493 -0.123268 0.186156
  4 0.000001 11.928185 0.000004 0.270644 -0.008280 -0.045790
  5 0.000001 3.538862 0.000001 -2.328044 0.043700 -0.041268
  6 0.000005 13.500031 0.000002 1.635290 0.000001 0.000000
  7 0.000004 28.528526 -2.793941 -0.328634 -0.000000 -0.000000
  8 -0.000000 4.967566 -0.000000 -0.283227 -0.037992 0.070428
  9 0.000000 10.424907 -0.000001 0.131768 0.032341 -1.823222
  10 -0.000003 5.721373 0.000002 -0.984874 -0.577185 -0.744946
  11 -0.000002 8.563447 0.000002 -1.782185 0.183730 0.149995
  12 0.000001 7.483446 -0.000000 0.033562 -0.008824 -0.015087
  13 0.000000 10.424907 -0.000001 -0.184308 0.033669 0.009723
  14 0.000000 3.096224 0.000002 -0.375962 0.005147 -0.003472
  15 0.000000 10.424907 -0.000001 -0.073338 0.016463 1.783959
  16 -0.000002 5.721375 0.000002 -0.668461 0.363931 0.826115
  17 0.000001 8.563454 0.000001 -2.064936 -0.223721 -0.134962
  18 0.000001 7.483448 -0.000002 0.033562 0.008824 0.015087
  19 0.119125 7.401339 -0.700705 -1.570796 0.000000 0.000000
  20 -0.182472 0.858614 -0.214671 0.000000 0.000000 -0.000000
  21 0.644811 -0.364825 -0.425434 3.141593 -1.570796 0.000000
  22 0.000004 28.528526 -2.793941 0.029597 0.119034 1.728750
  23 0.000003 3.833358 0.000000 -0.434370 0.041968 1.472908
  24 0.000002 13.500035 0.000003 0.900995 0.073170 -0.156965
  25 -0.000003 11.928190 0.000001 0.387053 0.008281 0.045790
  26 -0.000000 3.538862 0.000001 -2.328044 -0.043700 0.041269
  27 0.000003 13.500036 0.000004 1.635290 -0.000001 -0.000000
  28 0.000004 28.528526 -2.793941 -2.546099 -0.017804 0.045468
  29 -11.959289 1.825477 10.751165 0.000000 -0.000000 -1.570796
  30 -11.682335 -3.223084 10.436068 0.000000 -0.000000 -1.570796
  31 0.225905 -4.267344 -21.129881 -0.254278 0.000000 -1.570796
  32 5.817607 4.265808 -18.358326 -0.370687 -0.000000 -1.570796
  33 9.525342 9.145164 11.180841 0.000000 -0.000000 -1.570796
  34 9.525340 -9.145165 11.180841 0.000000 -0.000000 -1.570796
  35 -19.481180 -3.775503 -9.069633 0.000000 -0.000000 1.570796
  36 -19.481180 3.775506 -9.069633 0.000000 -0.000000 1.570796
  time 4
  0 -0.191671 0.002525 -26.163050 1.692985 -0.000000 1.570796
  1 0.000004 28.528524 -2.793940 -0.100703 -0.139596 -1.728012
  2 0.000001 3.833359 0.000000 -0.289963 0.104900 -1.487755
  3 0.000004 13.500031 0.000001 1.037310 -0.095789 0.172549
  4 0.000003 11.928185 0.000000 0.267305 -0.008280 -0.045790
  5 0.000000 3.538860 0.000002 -2.328044 0.043700 -0.041269
  6 0.000004 13.500031 0.000002 1.635290 0.000001 0.000000
  7 0.000004 28.528524 -2.793940 -0.328634 -0.000000 -0.000000
  8 -0.000000 4.967567 0.000000 -0.254875 -0.031644 0.051126
  9 -0.000000 10.424908 -0.000000 0.045570 0.010802 -1.807903
  10 -0.000001 5.721373 -0.000002 -0.909129 -0.521565 -0.789937
  11 0.000001 8.563445 0.000001 -1.824559 0.189991 0.148486
  12 0.000001 7.483445 0.000001 0.033562 -0.008824 -0.015087
  13 -0.000000 10.424908 -0.000000 -0.184451 0.011638 0.003516
  14 -0.000000 3.096224 0.000001 -0.393416 -0.046537 -0.013824
  15 -0.000000 10.424908 -0.000000 -0.045666 0.010389 1.789806
  16 0.000008 5.721373 0.000002 -0.710434 0.365173 0.822420
  17 -0.000002 8.563448 0.000000 -2.016428 -0.217211 -0.138350
  18 0.000001 7.483449 -0.000002 0.033562 0.008824 0.015087
  19 0.119126 7.401339 -0.700705 -1.570796 0.000000 0.000000
  20 -0.182472 0.858615 -0.214674 0.000000 0.000000 -0.000000
  21 0.644811 -0.364824 -0.425437 3.141593 -1.570796 0.000000
  22 0.000004 28.528524 -2.793940 -0.010321 0.125347 1.728811
  23 0.000001 3.833358 -0.000000 -0.347504 -0.005572 1.470600
  24 -0.000001 13.500031 0.000000 0.851556 0.065524 -0.150581
  25 -0.000000 11.928191 0.000001 0.310786 0.008281 0.045790
  26 -0.000000 3.538863 -0.000000 -2.328044 -0.043700 0.041269
  27 -0.000001 13.500031 0.000001 1.635290 -0.000001 -0.000000
  28 0.000004 28.528524 -2.793940 -2.580706 0.005431 0.057388
  29 -12.030015 1.905319 11.208986 0.000000 -0.000000 -1.570796
  30 -11.799952 -3.209630 11.058214 0.000000 -0.000000 -1.570796
  31 1.600887 -4.268414 -21.132185 -0.330545 0.000000 -1.570796
  32 4.488772 4.267779 -19.584867 -0.374026 -0.000000 -1.570796
  33 9.525342 9.145164 11.180841 0.000000 -0.000000 -1.570796
  34 9.525340 -9.145165 11.180841 0.000000 -0.000000 -1.570796
  35 -19.481180 -3.775503 -9.069633 0.000000 -0.000000 1.570796
  36 -19.481180 3.775506 -9.069633 0.000000 -0.000000 1.570796
  time 5
  0 -0.191438 0.003156 -25.891256 1.692985 -0.000000 1.570796
  1 0.000004 28.528524 -2.793940 -0.055489 -0.132480 -1.728574
  2 -0.000002 3.833358 0.000000 -0.226874 0.060181 -1.467061
  3 0.000004 13.500029 0.000002 0.791510 -0.056680 0.142339
  4 -0.000001 11.928189 0.000005 0.263965 -0.008280 -0.045790
  5 -0.000001 3.538862 0.000001 -2.328044 0.043699 -0.041268
  6 0.000004 13.500031 0.000002 1.635290 0.000001 0.000000
  7 0.000004 28.528524 -2.793940 -0.328634 -0.000000 -0.000000
  8 -0.000000 4.967566 -0.000000 -0.226656 -0.024752 0.032017
  9 -0.000000 10.424908 0.000000 -0.045666 -0.010389 -1.789806
  10 0.000001 5.721371 0.000002 -0.832627 -0.456938 -0.830457
  11 0.000003 8.563449 0.000002 -1.873191 0.197081 0.146423
  12 0.000000 7.483446 -0.000002 0.033562 -0.008824 -0.015087
  13 -0.000000 10.424908 0.000000 -0.184458 -0.011429 -0.002360
  14 0.000000 3.096224 0.000001 -0.371237 -0.081721 -0.023982
  15 -0.000000 10.424908 0.000000 0.015052 -0.003521 1.802058
  16 0.000002 5.721373 -0.000000 -0.785682 0.385370 0.805469
  17 0.000000 8.563446 0.000003 -1.939065 -0.206492 -0.143076
  18 -0.000001 7.483443 -0.000000 0.033562 0.008824 0.015087
  19 0.119124 7.401335 -0.700706 -1.570796 0.000000 0.000000
  20 -0.182472 0.858614 -0.214671 0.000000 0.000000 -0.000000
  21 0.644811 -0.364825 -0.425434 3.141593 -1.570796 0.000000
  22 0.000004 28.528524 -2.793940 -0.055489 0.132480 1.728574
  23 0.000003 3.833359 -0.000000 -0.318462 -0.053348 1.466077
  24 -0.000001 13.500030 0.000002 0.798805 0.057728 -0.143368
  25 -0.000002 11.928185 0.000003 0.340616 0.008280 0.045790
  26 -0.000000 3.538862 0.000000 -2.328044 -0.043700 0.041268
  27 -0.000001 13.500033 0.000002 1.635290 -0.000001 -0.000000
  28 0.000004 28.528524 -2.793940 -2.612268 0.027108 0.067669
  29 -12.106982 1.992205 11.707209 0.000000 -0.000000 -1.570796
  30 -11.927946 -3.194988 11.735258 0.000000 -0.000000 -1.570796
  31 1.600887 -4.268414 -21.132185 -0.300715 0.000000 -1.570796
  32 3.660711 4.271831 -20.956726 -0.377366 -0.000000 -1.570796
  33 9.525342 9.145164 11.180841 0.000000 -0.000000 -1.570796
  34 9.525340 -9.145165 11.180841 0.000000 -0.000000 -1.570796
  35 -19.481180 -3.775503 -9.069633 0.000000 -0.000000 1.570796
  36 -19.481180 3.775506 -9.069633 0.000000 -0.000000 1.570796
  time 6
  0 -0.191299 0.003409 -25.616800 1.692985 -0.000000 1.570796
  1 0.000004 28.528524 -2.793940 -0.024489 -0.127586 -1.728772
  2 -0.000001 3.833359 -0.000000 -0.210808 0.028438 -1.459775
  3 0.000005 13.500029 0.000003 0.708546 -0.045315 0.130125
  4 0.000001 11.928188 0.000003 0.288989 -0.008280 -0.045790
  5 -0.000000 3.538862 0.000002 -2.328044 0.043700 -0.041268
  6 0.000005 13.500030 0.000003 1.635290 0.000002 0.000000
  7 0.000004 28.528524 -2.793940 -0.328634 -0.000000 -0.000000
  8 -0.000000 4.967567 0.000000 -0.202167 -0.018307 0.015522
  9 0.000001 10.424910 0.000000 -0.132565 -0.028880 -1.770920
  10 0.000001 5.721373 -0.000001 -0.763458 -0.389525 -0.862282
  11 -0.000001 8.563446 0.000000 -1.923155 0.204241 0.143942
  12 0.000000 7.483444 -0.000000 0.033562 -0.008824 -0.015087
  13 0.000001 10.424910 0.000000 -0.184342 -0.033315 -0.007753
  14 -0.000000 3.096220 -0.000002 -0.314729 -0.102768 -0.034308
  15 0.000001 10.424910 0.000000 0.097668 -0.023654 1.817377
  16 0.000000 5.721374 -0.000001 -0.884013 0.418017 0.776871
  17 0.000000 8.563442 0.000001 -1.844389 -0.192895 -0.147687
  18 -0.000000 7.483440 0.000000 0.033562 0.008824 0.015087
  19 0.119125 7.401339 -0.700705 -1.570796 0.000000 0.000000
  20 -0.182472 0.858614 -0.214671 0.000000 0.000000 -0.000000
  21 0.644811 -0.364824 -0.425437 3.141593 -1.570796 0.000000
  22 0.000004 28.528524 -2.793940 -0.086511 0.137366 1.728224
  23 0.000001 3.833358 0.000000 -0.289060 -0.086620 1.461103
  24 -0.000003 13.500030 0.000002 0.742532 0.049847 -0.135240
  25 -0.000003 11.928183 0.000002 0.396037 0.008280 0.045790
  26 -0.000000 3.538859 0.000002 -2.328044 -0.043700 0.041269
  27 -0.000003 13.500031 0.000003 1.635290 -0.000001 0.000000
  28 0.000004 28.528524 -2.793940 -2.635228 0.043101 0.074891
  29 -12.183949 2.079092 12.205427 0.000000 -0.000000 -1.570796
  30 -12.055939 -3.180346 12.412302 0.000000 -0.000000 -1.570796
  31 1.600887 -4.268414 -21.132185 -0.245294 0.000000 -1.570797
  32 3.256709 4.275757 -21.161247 -0.352342 -0.000000 -1.570796
  33 9.525342 9.145164 11.180841 0.000000 -0.000000 -1.570796
  34 9.525340 -9.145165 11.180841 0.000000 -0.000000 -1.570796
  35 -19.481180 -3.775503 -9.069633 0.000000 -0.000000 1.570796
  36 -19.481180 3.775506 -9.069633 0.000000 -0.000000 1.570796
  time 7
  0 -0.191299 0.003409 -25.240368 1.692985 -0.000000 1.570796
  1 0.000004 28.528526 -2.793941 -0.000662 -0.123820 -1.728820
  2 -0.000001 3.833359 -0.000000 -0.175875 0.005022 -1.451103
  3 0.000006 13.500031 0.000002 0.610611 -0.033272 0.114582
  4 0.000002 11.928186 0.000003 0.335548 -0.008280 -0.045790
  5 -0.000000 3.538862 0.000001 -2.328043 0.043699 -0.041268
  6 0.000006 13.500031 0.000003 1.635290 0.000002 0.000000
  7 0.000004 28.528526 -2.793941 -0.328634 -0.000000 -0.000000
  8 -0.000000 4.967567 0.000000 -0.184927 -0.013510 0.003963
  9 0.000001 10.424910 0.000000 -0.205758 -0.043075 -1.753879
  10 0.000004 5.721372 0.000001 -0.701310 -0.330861 -0.877061
  11 -0.000002 8.563442 0.000000 -1.962110 0.209725 0.141757
  12 0.000001 7.483440 0.000001 0.033562 -0.008824 -0.015087
  13 0.000001 10.424910 0.000000 -0.184142 -0.051835 -0.012682
  14 0.000000 3.096220 -0.000001 -0.237399 -0.112710 -0.044239
  15 0.000001 10.424910 0.000000 0.181344 -0.045332 1.831197
  16 -0.000004 5.721373 -0.000001 -0.982098 0.452916 0.733857
  17 0.000000 8.563444 0.000002 -1.746882 -0.178463 -0.151046
  18 -0.000003 7.483442 0.000002 0.033562 0.008824 0.015087
  19 0.119125 7.401335 -0.700706 -1.570796 0.000000 0.000000
  20 -0.182472 0.858614 -0.214671 0.000000 0.000000 -0.000000
  21 0.644811 -0.364825 -0.425434 3.141593 -1.570796 0.000000
  22 0.000004 28.528526 -2.793941 -0.110384 0.141115 1.727850
  23 0.000001 3.833359 -0.000000 -0.247389 -0.112983 1.453678
  24 -0.000001 13.500036 0.000003 0.658802 0.039006 -0.122374
  25 -0.000003 11.928188 0.000003 0.425867 0.008281 0.045790
  26 -0.000001 3.538863 -0.000000 -2.328044 -0.043700 0.041269
  27 -0.000000 13.500037 0.000003 1.635290 -0.000001 0.000000
  28 0.000004 28.528526 -2.793941 -2.644101 0.049200 0.077898
  29 -12.254675 2.158934 12.663252 0.000000 -0.000000 -1.570796
  30 -12.173555 -3.166892 13.034445 0.000000 -0.000000 -1.570796
  31 1.600887 -4.268414 -21.132185 -0.215464 -0.000000 -1.570796
  32 3.107866 4.279724 -21.236597 -0.305783 -0.000000 -1.570796
  33 9.525342 9.145164 11.180841 0.000000 -0.000000 -1.570796
  34 9.525340 -9.145165 11.180841 0.000000 -0.000000 -1.570796
  35 -19.481180 -3.775503 -9.069633 0.000000 -0.000000 1.570796
  36 -19.481180 3.775506 -9.069633 0.000000 -0.000000 1.570796
  time 8
  0 -0.191299 0.003409 -25.270720 1.692985 -0.000000 1.570796
  1 0.000004 28.528526 -2.793941 0.029598 -0.119034 -1.728750
  2 -0.000001 3.833359 -0.000000 -0.184254 -0.026133 -1.451618
  3 0.000006 13.500033 0.000001 0.619127 -0.034257 0.115979
  4 0.000001 11.928191 0.000002 0.360650 -0.008280 -0.045790
  5 -0.000001 3.538862 0.000002 -2.328043 0.043700 -0.041268
  6 0.000005 13.500031 0.000002 1.635290 0.000001 -0.000000
  7 0.000004 28.528526 -2.793941 -0.328634 -0.000000 -0.000000
  8 -0.000000 4.967567 0.000000 -0.178406 -0.011639 -0.000397
  9 -0.000000 10.424908 -0.000000 -0.256143 -0.052076 -1.741598
  10 0.000003 5.721374 0.000001 -0.684457 -0.275194 -0.900487
  11 -0.000001 8.563449 0.000003 -2.016978 0.217285 0.138313
  12 -0.000001 7.483447 -0.000002 0.033562 -0.008824 -0.015087
  13 -0.000000 10.424908 -0.000000 -0.183915 -0.064813 -0.017162
  14 0.000000 3.096220 -0.000001 -0.152992 -0.114950 -0.052475
  15 -0.000000 10.424908 -0.000000 0.245818 -0.062817 1.840609
  16 -0.000005 5.721375 -0.000001 -1.074614 0.470100 0.722657
  17 -0.000001 8.563445 0.000002 -1.699227 -0.171292 -0.152163
  18 -0.000003 7.483443 0.000000 0.033562 0.008824 0.015087
  19 0.119125 7.401337 -0.700706 -1.570796 0.000000 0.000000
  20 -0.182472 0.858614 -0.214671 0.000000 0.000000 -0.000000
  21 0.644811 -0.364825 -0.425434 3.141593 -1.570796 0.000000
  22 0.000004 28.528526 -2.793941 -0.140739 0.145863 1.727244
  23 0.000001 3.833359 0.000000 -0.246149 -0.144190 1.453618
  24 0.000004 13.500033 0.000003 0.663922 0.039637 -0.123186
  25 -0.000001 11.928186 0.000003 0.368326 0.008281 0.045790
  26 -0.000001 3.538862 0.000001 -2.328044 -0.043700 0.041269
  27 0.000005 13.500033 0.000003 1.635290 -0.000001 -0.000000
  28 0.000004 28.528526 -2.793941 -2.624510 0.021251 0.076725
  29 -12.312922 2.224687 13.040285 0.000000 -0.000000 -1.570796
  30 -12.270416 -3.155812 13.546804 0.000000 -0.000000 -1.570796
  31 1.600887 -4.268414 -21.132185 -0.273005 0.000000 -1.570796
  32 3.086602 4.284489 -21.247362 -0.280681 -0.000000 -1.570796
  33 9.525342 9.145164 11.180841 0.000000 -0.000000 -1.570796
  34 9.525340 -9.145165 11.180841 0.000000 -0.000000 -1.570796
  35 -19.481180 -3.775503 -9.069633 0.000000 -0.000000 1.570796
  36 -19.481180 3.775506 -9.069633 0.000000 -0.000000 1.570796
  time 9
  0 -0.191299 0.003409 -25.647152 1.692985 -0.000000 1.570796
  1 0.000004 28.528524 -2.793940 0.058237 -0.114506 -1.728550
  2 0.000001 3.833360 0.000000 -0.168291 -0.053117 -1.456962
  3 0.000005 13.500028 0.000001 0.678910 -0.041510 0.125544
  4 0.000003 11.928189 0.000001 0.359828 -0.008280 -0.045790
  5 0.000001 3.538863 0.000001 -2.328044 0.043700 -0.041269
  6 0.000005 13.500029 0.000001 1.635290 0.000001 0.000000
  7 0.000004 28.528524 -2.793940 -0.328634 -0.000000 -0.000000
  8 -0.000000 4.967567 0.000000 -0.178420 -0.011639 -0.000397
  9 -0.000001 10.424908 -0.000001 -0.274891 -0.055260 -1.736922
  10 -0.000003 5.721372 0.000000 -0.720346 -0.235724 -0.932472
  11 -0.000002 8.563445 0.000002 -2.064445 0.223656 0.134998
  12 0.000000 7.483445 0.000001 0.033562 -0.008824 -0.015087
  13 -0.000001 10.424908 -0.000001 -0.183728 -0.070078 -0.021206
  14 0.000000 3.096224 0.000002 -0.075240 -0.113328 -0.057932
  15 -0.000001 10.424908 -0.000001 0.271598 -0.069979 1.844060
  16 -0.000002 5.721374 -0.000001 -1.134166 0.469321 0.754786
  17 -0.000001 8.563446 0.000001 -1.702285 -0.171754 -0.152102
  18 -0.000001 7.483445 0.000002 0.033562 0.008824 0.015087
  19 0.119125 7.401337 -0.700706 -1.570796 0.000000 0.000000
  20 -0.182472 0.858614 -0.214671 0.000000 0.000000 -0.000000
  21 0.644811 -0.364825 -0.425434 3.141593 -1.570796 0.000000
  22 0.000004 28.528524 -2.793940 -0.169506 0.150341 1.726536
  23 0.000003 3.833358 -0.000000 -0.280216 -0.172304 1.459896
  24 -0.000001 13.500029 0.000000 0.744048 0.050053 -0.135464
  25 -0.000002 11.928185 0.000000 0.310786 0.008280 0.045790
  26 -0.000000 3.538860 0.000001 -2.328044 -0.043700 0.041269
  27 -0.000002 13.500031 0.000001 1.635290 -0.000001 -0.000000
  28 0.000004 28.528524 -2.793940 -2.577497 -0.045030 0.070995
  29 -12.352445 2.269304 13.296129 0.000000 -0.000000 -1.570796
  30 -12.336143 -3.148293 13.894476 0.000000 -0.000000 -1.570796
  31 1.600887 -4.268414 -21.132185 -0.330545 0.000000 -1.570796
  32 4.182810 4.290441 -21.243420 -0.281502 -0.000000 -1.570796
  33 9.525342 9.145164 11.180841 0.000000 -0.000000 -1.570796
  34 9.525340 -9.145165 11.180841 0.000000 -0.000000 -1.570796
  35 -19.481180 -3.775503 -9.069633 0.000000 -0.000000 1.570796
  36 -19.481180 3.775506 -9.069633 0.000000 -0.000000 1.570796
  time 10
  0 -0.191299 0.003409 -25.616800 1.692985 -0.000000 1.570796
  1 0.000004 28.528524 -2.793940 0.058237 -0.114506 -1.728550
  2 -0.000001 3.833359 0.000000 -0.014056 -0.046087 -1.446434
  3 0.000006 13.500031 0.000002 0.556874 -0.027333 0.105588
  4 0.000002 11.928187 0.000002 0.354082 -0.008280 -0.045790
  5 -0.000000 3.538863 0.000001 -2.328044 0.043699 -0.041268
  6 0.000007 13.500030 0.000002 1.635290 0.000002 -0.000000
  7 0.000004 28.528524 -2.793940 -0.328634 -0.000000 -0.000000
  8 -0.000000 4.967567 0.000000 -0.178869 -0.011639 -0.000391
  9 -0.000000 10.424906 -0.000001 -0.266673 -0.053876 -1.738979
  10 -0.000001 5.721371 0.000001 -0.732836 -0.237163 -0.930021
  11 -0.000002 8.563453 0.000002 -2.060543 0.223139 0.135282
  12 0.000001 7.483441 0.000000 0.033562 -0.008824 -0.015087
  13 -0.000000 10.424906 -0.000001 -0.156289 -0.070182 -0.025045
  14 0.000001 3.096223 0.000001 -0.074102 -0.111980 -0.057415
  15 -0.000000 10.424906 -0.000001 0.263564 -0.067737 1.843004
  16 -0.000000 5.721371 -0.000000 -1.134922 0.461668 0.761136
  17 -0.000002 8.563452 0.000000 -1.709883 -0.172900 -0.151944
  18 -0.000002 7.483444 0.000002 0.033562 0.008824 0.015087
  19 0.119125 7.401339 -0.700705 -1.570796 0.000000 0.000000
  20 -0.182472 0.858614 -0.214671 0.000000 0.000000 -0.000000
  21 0.644811 -0.364824 -0.425437 3.141593 -1.570796 0.000000
  22 0.000004 28.528524 -2.793940 -0.169506 0.150341 1.726536
  23 0.000003 3.833358 -0.000000 -0.371436 -0.165732 1.468398
  24 -0.000001 13.500032 0.000000 0.855490 0.066121 -0.151103
  25 -0.000002 11.928186 0.000002 0.415666 0.008280 0.045790
  26 0.000000 3.538861 0.000000 -2.328044 -0.043700 0.041268
  27 -0.000001 13.500032 0.000000 1.635290 -0.000001 -0.000000
  28 0.000004 28.528524 -2.793940 -2.520520 -0.123583 0.059855
  29 -12.367006 2.285742 13.390383 0.000000 -0.000000 -1.570796
  30 -12.360357 -3.145523 14.022562 0.000000 -0.000000 -1.570796
  31 0.685698 -4.267702 -20.576832 -0.225664 -0.000000 -1.570796
  32 6.594467 4.296492 -21.233511 -0.287249 -0.000000 -1.570796
  33 9.525342 9.145164 11.180841 0.000000 -0.000000 -1.570796
  34 9.525340 -9.145165 11.180841 0.000000 -0.000000 -1.570796
  35 -19.481180 -3.775503 -9.069633 0.000000 -0.000000 1.570796
  36 -19.481180 3.775506 -9.069633 0.000000 -0.000000 1.570796
  time 11
  0 -0.191346 0.003272 -25.681107 1.692985 -0.000000 1.570796
  1 0.000004 28.528524 -2.793940 0.057178 -0.114673 -1.728559
  2 0.000001 3.833360 -0.000000 0.178466 -0.042251 -1.427178
  3 0.000006 13.500031 -0.000003 0.345832 -0.008942 0.067645
  4 0.000000 11.928191 0.000004 0.338497 -0.008280 -0.045790
  5 -0.000000 3.538862 0.000001 -2.328044 0.043700 -0.041268
  6 0.000006 13.500031 -0.000003 1.635289 0.000001 -0.000000
  7 0.000004 28.528524 -2.793940 -0.328634 -0.000000 -0.000000
  8 -0.000000 4.967566 -0.000000 -0.181920 -0.011641 -0.000356
  9 0.000000 10.424910 0.000001 -0.241083 -0.049453 -1.745313
  10 -0.000000 5.721372 -0.000001 -0.758421 -0.254774 -0.925462
  11 -0.000001 8.563445 0.000002 -2.045705 0.221161 0.136344
  12 0.000001 7.483443 -0.000000 0.033562 -0.008824 -0.015087
  13 0.000000 10.424910 0.000001 -0.105478 -0.069108 -0.028203
  14 0.000000 3.096221 -0.000000 -0.066115 -0.102560 -0.053750
  15 0.000000 10.424910 0.000001 0.238521 -0.060806 1.839600
  16 -0.000001 5.721373 0.000001 -1.101963 0.450274 0.773711
  17 0.000000 8.563446 -0.000001 -1.745864 -0.178310 -0.151073
  18 -0.000003 7.483443 0.000001 0.033562 0.008824 0.015087
  19 0.119125 7.401341 -0.700705 -1.570796 0.000000 0.000000
  20 -0.182472 0.858614 -0.214671 0.000000 0.000000 -0.000000
  21 0.644811 -0.364824 -0.425437 3.141593 -1.570796 0.000000
  22 0.000004 28.528524 -2.793940 -0.168441 0.150176 1.726565
  23 0.000003 3.833358 -0.000000 -0.552658 -0.148026 1.478640
  24 0.000001 13.500035 0.000001 1.032929 0.095030 -0.172097
  25 -0.000002 11.928188 0.000003 0.613311 0.008280 0.045790
  26 -0.000001 3.538862 0.000001 -2.328044 -0.043700 0.041268
  27 0.000000 13.500033 0.000001 1.635290 -0.000001 -0.000000
  28 0.000004 28.528524 -2.793940 -2.471751 -0.188532 0.046926
  29 -12.365962 2.285742 13.369970 0.000000 -0.000000 -1.570796
  30 -12.280104 -3.171172 13.901655 0.000000 -0.000000 -1.570796
  31 -1.496675 -4.266003 -19.545465 -0.028020 0.000000 -1.570796
  32 9.006125 4.301189 -21.220501 -0.302834 -0.000000 -1.570796
  33 9.525342 9.145164 11.180841 0.000000 -0.000000 -1.570796
  34 9.525340 -9.145165 11.180841 0.000000 -0.000000 -1.570796
  35 -19.481180 -3.775503 -9.069633 0.000000 -0.000000 1.570796
  36 -19.481180 3.775506 -9.069633 0.000000 -0.000000 1.570796
  time 12
  0 -0.191488 0.002863 -25.874022 1.692985 -0.000000 1.570796
  1 0.000004 28.528526 -2.793940 0.049758 -0.115846 -1.728622
  2 0.000001 3.833359 0.000000 0.273142 -0.035532 -1.417429
  3 0.000001 13.500025 0.000001 0.238428 -0.002767 0.047112
  4 0.000001 11.928185 0.000004 0.308200 -0.008280 -0.045790
  5 -0.000001 3.538862 0.000001 -2.328044 0.043699 -0.041268
  6 0.000001 13.500027 0.000001 1.635290 0.000001 -0.000000
  7 0.000004 28.528526 -2.793941 -0.328634 -0.000000 -0.000000
  8 -0.000000 4.967566 -0.000000 -0.193218 -0.011644 -0.000224
  9 0.000001 10.424911 0.000001 -0.196672 -0.041384 -1.756047
  10 -0.000001 5.721371 0.000001 -0.803664 -0.285979 -0.918608
  11 0.000001 8.563445 0.000001 -2.026662 0.218598 0.137662
  12 0.000000 7.483444 -0.000003 0.033562 -0.008824 -0.015087
  13 0.000001 10.424911 0.000001 -0.078142 -0.067137 -0.029652
  14 0.000001 3.096221 -0.000000 -0.044270 -0.077111 -0.043426
  15 0.000001 10.424911 0.000001 0.194944 -0.048966 1.833274
  16 0.000003 5.721372 -0.000001 -1.035238 0.434173 0.791693
  17 -0.000001 8.563441 0.000002 -1.812071 -0.188153 -0.148959
  18 -0.000001 7.483440 0.000002 0.033562 0.008824 0.015087
  19 0.119125 7.401337 -0.700706 -1.570796 0.000000 0.000000
  20 -0.182472 0.858614 -0.214671 0.000000 0.000000 -0.000000
  21 0.644811 -0.364824 -0.425437 3.141593 -1.570796 0.000000
  22 0.000004 28.528526 -2.793940 -0.160985 0.149017 1.726759
  23 0.000001 3.833359 -0.000000 -0.704558 -0.124675 1.476245
  24 -0.000001 13.500031 0.000000 1.095927 0.106128 -0.178283
  25 -0.000003 11.928187 0.000002 0.720007 0.008280 0.045790
  26 -0.000000 3.538862 0.000001 -2.328044 -0.043700 0.041268
  27 -0.000000 13.500033 0.000000 1.635290 -0.000001 -0.000000
  28 0.000004 28.528526 -2.793940 -2.450951 -0.215438 0.040511
  29 -12.360409 2.285742 13.227072 0.000000 -0.000000 -1.570796
  30 -12.118722 -3.218804 13.449835 0.000000 -0.000000 -1.570796
  31 -4.101442 -4.263974 -18.990114 0.078676 0.000000 -1.570796
  32 10.102332 4.303078 -21.207264 -0.333131 -0.000000 -1.570796
  33 9.525342 9.145164 11.180841 0.000000 -0.000000 -1.570796
  34 9.525340 -9.145165 11.180841 0.000000 -0.000000 -1.570796
  35 -19.481180 -3.775503 -9.069633 0.000000 -0.000000 1.570796
  36 -19.481180 3.775506 -9.069633 0.000000 -0.000000 1.570796
  time 13
  0 -0.191724 0.002182 -26.195545 1.692985 -0.000000 1.570796
  1 0.000004 28.528524 -2.793940 0.029598 -0.119034 -1.728750
  2 -0.000001 3.833358 0.000000 0.215071 -0.011702 -1.429675
  3 0.000004 13.500034 -0.000002 0.378430 -0.011251 0.073739
  4 -0.000001 11.928190 0.000004 0.228393 -0.008280 -0.045790
  5 -0.000001 3.538864 -0.000000 -2.328044 0.043700 -0.041268
  6 0.000005 13.500033 -0.000002 1.635289 0.000001 -0.000000
  7 0.000004 28.528524 -2.793940 -0.328634 -0.000000 -0.000000
  8 -0.000000 4.967566 -0.000000 -0.223622 -0.011645 0.000130
  9 0.000000 10.424909 -0.000000 -0.131979 -0.028761 -1.771052
  10 0.000000 5.721373 -0.000001 -0.865878 -0.333889 -0.902387
  11 0.000001 8.563447 0.000002 -2.010839 0.216450 0.138720
  12 -0.000001 7.483446 -0.000001 0.033562 -0.008824 -0.015087
  13 0.000000 10.424909 -0.000000 -0.080897 -0.065590 -0.028944
  14 0.000000 3.096221 -0.000001 -0.000994 -0.028162 -0.021741
  15 0.000000 10.424909 -0.000000 0.131189 -0.032191 1.823125
  16 0.000001 5.721372 0.000001 -0.941689 0.413093 0.808610
  17 -0.000002 8.563447 0.000003 -1.894821 -0.200197 -0.145394
  18 -0.000002 7.483442 0.000000 0.033562 0.008824 0.015087
  19 0.119125 7.401337 -0.700706 -1.570796 0.000000 0.000000
  20 -0.182472 0.858614 -0.214671 0.000000 0.000000 -0.000000
  21 0.644811 -0.364824 -0.425437 3.141593 -1.570796 0.000000
  22 0.000004 28.528524 -2.793940 -0.140739 0.145863 1.727244
  23 -0.000001 3.833359 0.000000 -0.711955 -0.107071 1.459861
  24 0.000003 13.500032 0.000001 0.918873 0.076012 -0.159181
  25 -0.000003 11.928185 0.000003 0.701848 0.008280 0.045790
  26 -0.000000 3.538861 0.000000 -2.328044 -0.043700 0.041269
  27 0.000002 13.500031 0.000000 1.635290 -0.000001 -0.000000
  28 0.000004 28.528524 -2.793940 -2.451152 -0.214667 0.040428
  29 -12.346715 2.285742 12.839197 0.000000 -0.000000 -1.570796
  30 -11.995290 -3.244453 12.533422 0.000000 -0.000000 -1.570796
  31 -6.283814 -4.262274 -19.950584 0.060517 0.000000 -1.570796
  32 10.092190 4.303078 -21.194832 -0.412938 -0.000000 -1.570796
  33 9.525342 9.145164 11.180841 0.000000 -0.000000 -1.570796
  34 9.525340 -9.145165 11.180841 0.000000 -0.000000 -1.570796
  35 -19.481180 -3.775503 -9.069633 0.000000 -0.000000 1.570796
  36 -19.481180 3.775506 -9.069633 0.000000 -0.000000 1.570796
  time 14
  0 -0.192054 0.001227 -26.645679 1.692985 -0.000000 1.570796
  1 0.000004 28.528524 -2.793940 -0.010320 -0.125347 -1.728811
  2 -0.000001 3.833359 0.000000 0.165007 0.031657 -1.440889
  3 0.000005 13.500031 -0.000003 0.509142 -0.022475 0.097349
  4 0.000003 11.928186 0.000003 0.121048 -0.008280 -0.045790
  5 -0.000001 3.538863 0.000001 -2.328044 0.043700 -0.041268
  6 0.000005 13.500029 -0.000003 1.635289 0.000001 -0.000000
  7 0.000004 28.528524 -2.793940 -0.328553 -0.000000 -0.000000
  8 0.000001 4.967567 0.000000 -0.290924 -0.011610 0.000913
  9 0.000000 10.424907 -0.000001 -0.045666 -0.010389 -1.789806
  10 0.000000 5.721374 0.000000 -0.921692 -0.404528 -0.857050
  11 -0.000000 8.563442 0.000003 -1.996381 0.214471 0.139656
  12 0.000000 7.483444 0.000000 0.033562 -0.008824 -0.015087
  13 0.000000 10.424907 -0.000001 -0.100158 -0.054698 -0.024105
  14 0.000000 3.096222 -0.000000 0.072649 0.050246 0.018571
  15 0.000000 10.424907 -0.000001 0.045570 -0.010802 1.807903
  16 0.000005 5.721372 -0.000000 -0.855222 0.372759 0.830744
  17 -0.000000 8.563442 0.000004 -2.018065 -0.217433 -0.138241
  18 0.000000 7.483444 -0.000000 0.033562 0.008824 0.015087
  19 0.119126 7.401334 -0.700706 -1.570796 -0.000000 -0.000000
  20 -0.182472 0.858614 -0.214674 0.000000 0.000000 -0.000000
  21 0.644811 -0.364824 -0.425436 -3.141593 -1.570796 0.000000
  22 0.000004 28.528524 -2.793940 -0.100704 0.139596 1.728012
  23 0.000003 3.833357 -0.000000 -0.675526 -0.073301 1.448641
  24 -0.000002 13.500034 0.000003 0.766514 0.053149 -0.138757
  25 -0.000001 11.928187 0.000001 0.683970 0.008281 0.045790
  26 -0.000001 3.538863 0.000000 -2.328044 -0.043700 0.041269
  27 -0.000002 13.500032 0.000001 1.635290 -0.000001 0.000000
  28 0.000004 28.528524 -2.793940 -2.452246 -0.209499 0.039854
  29 -12.325126 2.285742 11.744562 0.000000 -0.000000 -1.570796
  30 -11.973701 -3.244453 11.438780 0.000000 -0.000000 -1.570796
  31 -7.199004 -4.261562 -20.943640 0.042639 0.000000 -1.570796
  32 10.070984 4.303078 -21.176880 -0.520283 -0.000000 -1.570796
  33 9.525342 9.145164 11.180841 0.000000 -0.000000 -1.570796
  34 9.525340 -9.145165 11.180841 0.000000 -0.000000 -1.570796
  35 -19.481180 -3.775503 -9.069633 0.000000 -0.000000 1.570796
  36 -19.481180 3.775506 -9.069633 0.000000 -0.000000 1.570796
  time 15
  0 -0.192479 0.000000 -27.224424 1.692985 -0.000000 1.570796
  1 0.000004 28.528526 -2.793941 -0.055489 -0.132480 -1.728575
  2 -0.000002 3.833357 0.000000 0.116750 0.080284 -1.451744
  3 0.000007 13.500031 -0.000004 0.641390 -0.036890 0.119590
  4 0.000000 11.928187 0.000004 0.067260 -0.008281 -0.045790
  5 -0.000000 3.538862 0.000001 -2.328044 0.043699 -0.041268
  6 0.000007 13.500031 -0.000004 1.635290 0.000001 -0.000000
  7 0.000004 28.528526 -2.793941 -0.327991 -0.000000 -0.000000
  8 -0.000001 4.967567 -0.000000 -0.332381 -0.018674 0.055668
  9 -0.000001 10.424908 -0.000002 -0.021238 -0.004887 -1.794833
  10 -0.000003 5.721372 0.000002 -0.885093 -0.412482 -0.868718
  11 0.000003 8.563439 0.000004 -2.009713 0.216296 0.138794
  12 -0.000000 7.483445 0.000000 0.033562 -0.008824 -0.015087
  13 -0.000001 10.424908 -0.000002 -0.152225 -0.024631 -0.012029
  14 -0.000000 3.096221 -0.000001 -0.075240 0.113328 0.057932
  15 -0.000001 10.424908 -0.000002 0.021217 -0.004976 1.803256
  16 -0.000000 5.721371 0.000002 -0.852711 0.391137 0.826242
  17 -0.000000 8.563442 0.000003 -2.056451 -0.222595 -0.135578
  18 -0.000003 7.483442 0.000000 0.033562 0.008824 0.015087
  19 0.119125 7.401339 -0.700706 -1.570796 0.000000 0.000000
  20 -0.182472 0.858614 -0.214675 0.000000 -0.000000 -0.000000
  21 0.644811 -0.364824 -0.425436 3.141593 -1.570796 0.000000
  22 0.000004 28.528526 -2.793941 -0.055489 0.132480 1.728574
  23 0.000003 3.833359 -0.000000 -0.728174 -0.021682 1.454120
  24 0.000000 13.500032 0.000004 0.852056 0.065600 -0.150647
  25 -0.000003 11.928186 0.000004 0.700631 0.008280 0.045790
  26 0.000000 3.538862 0.000001 -2.328044 -0.043700 0.041268
  27 -0.000000 13.500032 0.000004 1.635290 -0.000001 0.000000
  28 0.000004 28.528526 -2.793941 -2.454983 -0.195656 0.038279
  29 -12.303535 2.285742 10.649920 0.000000 -0.000000 -1.570796
  30 -11.952110 -3.244453 10.344141 0.000000 -0.000000 -1.570796
  31 -7.199004 -4.261562 -20.993879 0.059300 0.000000 -1.570796
  32 10.052545 4.303078 -21.145250 -0.574071 0.000000 -1.570796
  33 9.525342 9.145164 11.180841 0.000000 -0.000000 -1.570796
  34 9.525340 -9.145165 11.180841 0.000000 -0.000000 -1.570796
  35 -19.481180 -3.775503 -9.069633 0.000000 -0.000000 1.570796
  36 -19.481180 3.775506 -9.069633 0.000000 -0.000000 1.570796
  time 16
  0 -0.192479 0.000000 -27.114981 1.692985 -0.000000 1.570796
  1 0.000004 28.528526 -2.793941 -0.106496 -0.135428 -1.728333
  2 0.000003 3.833359 -0.000000 0.140440 0.131527 -1.447571
  3 0.000005 13.500029 -0.000004 0.610600 -0.033271 0.114581
  4 0.000000 11.928183 0.000005 0.068361 -0.008281 -0.045790
  5 0.000000 3.538861 0.000001 -2.328044 0.043699 -0.041269
  6 0.000005 13.500030 -0.000004 1.635290 0.000001 -0.000000
  7 0.000004 28.528526 -2.793941 -0.326466 -0.000000 0.000000
  8 0.000000 4.967566 0.000000 -0.354001 -0.031851 0.111582
  9 0.000000 10.424909 -0.000001 0.048187 0.011435 -1.808395
  10 0.000001 5.721371 0.000000 -0.865543 -0.469035 -0.808625
  11 0.000000 8.563449 0.000002 -1.886513 0.199003 0.145797
  12 -0.000000 7.483445 -0.000000 0.033562 -0.008824 -0.015087
  13 0.000000 10.424909 -0.000001 -0.252702 0.035578 0.006951
  14 -0.000000 3.096221 -0.000001 -0.214495 0.125675 0.042695
  15 0.000000 10.424909 -0.000001 -0.048294 0.010973 1.789258
  16 -0.000004 5.721374 0.000001 -0.744929 0.382794 0.804686
  17 0.000000 8.563448 0.000002 -2.058454 -0.222861 -0.135434
  18 -0.000002 7.483442 0.000001 0.033562 0.008824 0.015087
  19 0.119126 7.401338 -0.700706 -1.570796 -0.000000 -0.000000
  20 -0.182472 0.858615 -0.214674 0.000000 -0.000000 0.000000
  21 0.644811 -0.364824 -0.425438 -3.141593 -1.570796 0.000000
  22 0.000004 28.528526 -2.793941 -0.004483 0.124424 1.728818
  23 -0.000001 3.833359 -0.000000 -0.715642 0.028445 1.451818
  24 -0.000002 13.500033 0.000000 0.816533 0.060305 -0.145837
  25 -0.000003 11.928185 0.000005 0.737277 0.008281 0.045790
  26 -0.000000 3.538862 0.000001 -2.328044 -0.043700 0.041268
  27 -0.000003 13.500035 0.000001 1.635290 -0.000001 0.000000
  28 0.000004 28.528526 -2.793941 -2.460148 -0.168853 0.035123
  29 -12.281946 2.285742 9.555285 0.000000 -0.000000 -1.570796
  30 -11.930521 -3.244453 9.249502 0.000000 -0.000000 -1.570796
  31 -7.199004 -4.261562 -21.019678 0.095946 0.000000 -1.570796
  32 10.034104 4.303078 -21.093464 -0.572970 -0.000000 -1.570796
  33 9.525342 9.145164 11.180841 0.000000 -0.000000 -1.570796
  34 9.525340 -9.145165 11.180841 0.000000 -0.000000 -1.570796
  35 -19.481180 -3.775503 -9.069633 0.000000 -0.000000 1.570796
  36 -19.481180 3.775506 -9.069633 0.000000 -0.000000 1.570796
  time 17
  0 -0.192479 0.000000 -26.911728 1.692985 -0.000000 1.570796
  1 0.000004 28.528526 -2.793941 -0.150578 -0.138919 -1.727903
  2 0.000002 3.833358 0.000000 0.162649 0.175508 -1.442378
  3 0.000007 13.500033 -0.000003 0.570642 -0.028809 0.107922
  4 0.000000 11.928183 0.000005 0.076071 -0.008280 -0.045790
  5 -0.000001 3.538861 0.000000 -2.328043 0.043699 -0.041268
  6 0.000007 13.500031 -0.000004 1.635290 0.000001 -0.000000
  7 0.000004 28.528526 -2.793941 -0.323495 -0.000000 -0.000000
  8 -0.000001 4.967566 0.000000 -0.351480 -0.038076 0.107811
  9 -0.000001 10.424908 0.000000 0.151425 0.037442 -1.826459
  10 0.000002 5.721373 0.000001 -0.995487 -0.551874 -0.746457
  11 -0.000000 8.563454 0.000004 -1.796126 0.185797 0.149528
  12 0.000001 7.483446 -0.000001 0.033562 -0.008824 -0.015087
  13 -0.000001 10.424908 0.000000 -0.218199 0.044836 0.019468
  14 0.000000 3.096223 0.000002 -0.268949 0.127960 0.028509
  15 -0.000001 10.424908 0.000000 -0.152475 0.032870 1.766382
  16 0.000005 5.721370 -0.000001 -0.631278 0.317228 0.839930
  17 -0.000001 8.563450 0.000004 -2.138642 -0.233263 -0.129209
  18 0.000001 7.483444 0.000002 0.033562 0.008824 0.015087
  19 0.119125 7.401336 -0.700706 -1.570796 0.000000 0.000000
  20 -0.182472 0.858614 -0.214671 0.000000 0.000000 -0.000000
  21 0.644811 -0.364825 -0.425433 -3.141593 -1.570796 0.000000
  22 0.000004 28.528526 -2.793941 0.039523 0.117464 1.728695
  23 -0.000003 3.833359 0.000000 -0.694649 0.070349 1.448381
  24 -0.000002 13.500028 -0.000001 0.766552 0.053154 -0.138762
  25 -0.000003 11.928186 0.000001 0.773943 0.008280 0.045790
  26 -0.000000 3.538860 0.000001 -2.328044 -0.043700 0.041268
  27 -0.000002 13.500028 -0.000001 1.635290 -0.000001 -0.000000
  28 0.000004 28.528526 -2.793941 -2.468621 -0.124789 0.029650
  29 -12.225283 1.992206 9.887583 0.000000 -0.000000 -1.570796
  30 -11.876147 -3.244453 9.384104 0.000000 -0.000000 -1.570796
  31 -7.199004 -4.261562 -21.029182 0.132612 0.000000 -1.570796
  32 9.946515 4.303078 -21.021765 -0.565259 -0.000000 -1.570796
  33 9.525342 9.145164 11.180841 0.000000 -0.000000 -1.570796
  34 9.525340 -9.145165 11.180841 0.000000 -0.000000 -1.570796
  35 -19.481180 -3.775503 -9.069633 0.000000 -0.000000 1.570796
  36 -19.481180 3.775506 -9.069633 0.000000 -0.000000 1.570796
  time 18
  0 -0.192479 0.000000 -26.802284 1.692985 -0.000000 1.570796
  1 0.000004 28.528524 -2.793940 -0.169506 -0.150341 -1.726536
  2 -0.000003 3.833359 0.000000 0.139919 0.195547 -1.444275
  3 0.000005 13.500036 -0.000005 0.584874 -0.030367 0.110313
  4 0.000000 11.928187 0.000003 0.097008 -0.008281 -0.045790
  5 0.000000 3.538862 -0.000000 -2.328044 0.043700 -0.041269
  6 0.000005 13.500034 -0.000005 1.635290 0.000001 0.000000
  7 0.000004 28.528524 -2.793940 -0.318597 -0.000000 0.000000
  8 0.000000 4.967568 0.000000 -0.332327 -0.047628 0.104065
  9 -0.000000 10.424909 -0.000000 0.271598 0.069979 -1.844060
  10 0.000004 5.721373 0.000000 -1.120924 -0.651583 -0.667084
  11 -0.000001 8.563445 -0.000000 -1.716396 0.173882 0.151801
  12 0.000000 7.483448 0.000001 0.033562 -0.008824 -0.015087
  13 -0.000000 10.424909 -0.000000 -0.183728 0.070078 0.021206
  14 -0.000000 3.096221 -0.000000 -0.278277 0.127385 0.022459
  15 -0.000000 10.424909 -0.000000 -0.274891 0.055260 1.736922
  16 0.000001 5.721374 0.000000 -0.460981 0.257670 0.888980
  17 -0.000002 8.563443 0.000002 -2.250006 -0.246782 -0.119199
  18 0.000001 7.483444 0.000001 0.033562 0.008824 0.015087
  19 0.119126 7.401340 -0.700705 -1.570796 0.000000 -0.000000
  20 -0.182472 0.858615 -0.214676 0.000000 -0.000000 -0.000000
  21 0.644811 -0.364825 -0.425436 3.141593 -1.570796 0.000000
  22 0.000004 28.528524 -2.793940 0.058237 0.114506 1.728549
  23 -0.000001 3.833359 0.000000 -0.683199 0.087836 1.446510
  24 -0.000002 13.500030 -0.000001 0.740314 0.049546 -0.134911
  25 -0.000003 11.928185 -0.000000 0.790769 0.008280 0.045790
  26 -0.000000 3.538862 -0.000000 -2.328044 -0.043700 0.041269
  27 -0.000001 13.500031 -0.000000 1.635290 -0.000001 0.000000
  28 0.000004 28.528524 -2.793940 -2.481482 -0.059171 0.020839
  29 -11.846958 1.698669 10.219881 0.000000 -0.000000 -1.570796
  30 -11.495533 -3.244453 9.518702 0.000000 -0.000000 -1.570796
  31 -7.199004 -4.261562 -21.030540 0.149438 0.000000 -1.570796
  32 9.704033 4.303078 -20.932076 -0.544323 -0.000000 -1.570796
  33 9.525342 9.145164 11.180841 0.000000 -0.000000 -1.570796
  34 9.525340 -9.145165 11.180841 0.000000 -0.000000 -1.570796
  35 -19.481180 -3.775503 -9.069633 0.000000 -0.000000 1.570796
  36 -19.481180 3.775506 -9.069633 0.000000 -0.000000 1.570796
end
