version 1
nodes
0 "Base" -1
1 "R.hip" 0
2 "R.thigh" 1
3 "R.calve" 2
4 "R.heel" 3
5 "R.foot" 4
6 "R.thigh.001" 2
7 "Torso_bot" 0
8 "Torso_top" 7
9 "R.shoulder" 8
10 "R.bicep" 9
11 "R.forearm" 10
12 "R.hand" 11
13 "Neck" 8
14 "Head" 13
15 "L.shoulder" 8
16 "L.bicep" 15
17 "L.forearm" 16
18 "L.hand" 17
19 "Torso_bot.001" 7
20 "Torso_bot.002" 19
21 "Torso_bot.003" 19
22 "L.hip" 0
23 "L.thigh" 22
24 "L.calve" 23
25 "L.heel" 24
26 "L.foot" 25
27 "L.thigh.001" 23
28 "Base.001" 0
29 "R.armIK.000" -1
30 "L.armIK.000" -1
31 "L.LegIK.000" -1
32 "R.LegIK.000" -1
33 "UpperarmIK.L" -1
34 "UpperarmIK.R" -1
35 "KneeIK.L" -1
36 "KneeIK.R" -1
end
skeleton
  time 0
  0 -0.192479 0.552432 -26.802284 1.692985 -0.000000 1.756718
  1 0.000004 28.528528 -2.793937 -0.031887 -0.205759 -1.763296
  2 0.000001 3.833358 0.000001 -0.805682 0.363501 -1.527593
  3 0.000004 13.500027 -0.000005 0.806182 -0.058795 0.144401
  4 0.000004 11.928190 -0.000002 0.666590 -0.008281 -0.045790
  5 0.000001 3.538865 -0.000001 -2.328044 0.043700 -0.041269
  6 0.000004 13.500028 -0.000003 1.635290 0.000001 -0.000000
  7 0.000004 28.528528 -2.793937 -0.177968 0.051670 -0.018988
  8 -0.000000 4.967564 0.000000 0.089254 -0.111415 0.023992
  9 0.000001 10.424908 0.000000 0.142313 0.009263 -1.681140
  10 -0.000004 5.721372 -0.000000 -0.496333 -1.812625 -0.815851
  11 -0.000000 8.563448 0.000002 -0.005206 -0.001712 0.000796
  12 0.000000 7.483441 0.000001 -0.335270 0.381068 0.033500
  13 0.000001 10.424908 0.000000 -0.630075 0.175232 -0.239086
  14 0.000000 3.096221 -0.000000 0.539015 -0.213545 -0.383747
  15 0.000001 10.424908 0.000000 -0.132973 0.051695 1.893650
  16 0.000001 5.721372 0.000000 -0.202403 0.830973 0.853845
  17 0.000005 8.563445 0.000001 -0.445078 -0.013192 -0.065848
  18 0.000001 7.483442 -0.000003 0.033562 0.008824 0.015087
  19 0.119126 7.401337 -0.700705 -1.570796 -0.000000 0.000000
  20 -0.182472 0.858614 -0.214672 0.000000 0.000000 0.000000
  21 0.644811 -0.364824 -0.425435 -3.141593 -1.570796 0.000000
  22 0.000004 28.528528 -2.793937 -0.054701 0.209358 1.697962
  23 0.000002 3.833357 -0.000000 -0.002482 0.087907 1.435105
  24 0.000002 13.500031 -0.000003 0.658916 0.039020 -0.122393
  25 -0.000003 11.928185 0.000000 0.109856 0.008209 0.045962
  26 -0.000001 3.538860 0.000001 -2.328044 -0.043700 0.041269
  27 0.000002 13.500031 -0.000003 1.635290 -0.000001 -0.000000
  28 0.000004 28.528528 -2.793937 -2.670962 0.157443 0.005819
  29 2.054963 8.955638 0.702776 0.000000 -0.000000 -1.570796
  30 -4.556690 -6.105816 0.574455 0.000000 -0.000000 -1.570796
  31 9.970563 -4.320869 -20.854012 -0.531476 0.000045 -1.570616
  32 -7.407562 4.321485 -21.111416 0.025259 0.000000 -1.570796
  33 9.525341 2.828479 11.180841 0.000000 -0.000000 -1.570796
  34 9.525343 8.834909 11.180841 0.000000 -0.000000 -1.570796
  35 -19.481180 -3.775503 -9.069633 0.000000 -0.000000 1.570796
  36 -19.481180 6.820030 -9.069633 0.000000 -0.000000 1.570796
  time 1
  0 0.483886 -0.733562 -28.042757 1.692985 -0.000000 1.756718
  1 0.000001 28.528526 -2.793940 -0.034778 -0.212467 -1.730459
  2 -0.000001 3.833359 0.000000 -0.943001 0.440498 -1.570030
  3 -0.000001 13.500030 -0.000007 0.950115 -0.081072 0.162931
  4 0.000002 11.928185 -0.000001 0.654465 -0.008281 -0.045790
  5 0.000001 3.538862 -0.000002 -2.328044 0.043700 -0.041269
  6 -0.000001 13.500027 -0.000007 1.635290 0.000002 -0.000000
  7 0.000001 28.528526 -2.793939 -0.017029 0.032114 0.057276
  8 -0.000001 4.967567 0.000000 0.323326 -0.142487 0.169797
  9 -0.000001 10.424906 0.000000 0.142314 0.009263 -1.681140
  10 -0.000003 5.721373 -0.000001 -1.524835 -2.033994 1.149322
  11 -0.000002 8.563450 -0.000003 -0.822392 0.047268 0.112230
  12 0.000002 7.483447 -0.000001 -0.335271 0.381068 0.033500
  13 -0.000001 10.424906 0.000000 -0.298352 0.056256 0.011665
  14 0.000000 3.096221 -0.000000 0.577584 -0.041037 -0.189978
  15 -0.000001 10.424906 0.000000 -0.132973 0.051696 1.893650
  16 -0.000002 5.721370 -0.000000 1.688517 0.644873 1.111676
  17 -0.000000 8.563451 0.000004 -1.675160 -0.167648 -0.152596
  18 0.000000 7.483445 0.000002 0.033562 0.008824 0.015087
  19 0.119124 7.401338 -0.700706 -1.570796 0.000000 0.000000
  20 -0.182472 0.858615 -0.214672 0.000000 0.000000 -0.000000
  21 0.644811 -0.364824 -0.425434 3.141593 -1.570796 0.000000
  22 0.000001 28.528526 -2.793940 -0.030207 0.233508 1.853945
  23 0.000000 3.833359 -0.000000 -0.245919 0.145170 1.271995
  24 -0.000002 13.500028 0.000003 1.077613 0.102862 -0.176557
  25 -0.000001 11.928185 0.000003 -0.071614 0.014962 0.027788
  26 -0.000001 3.538862 -0.000000 -2.328044 -0.043700 0.041269
  27 -0.000001 13.500030 0.000002 1.635290 -0.000001 -0.000000
  28 0.000001 28.528526 -2.793939 -2.586928 0.148063 0.032673
  29 7.401312 13.338271 4.380342 0.000000 -0.000000 -1.570796
  30 7.581975 -13.306726 3.641565 0.000000 -0.000000 -1.570796
  31 8.978872 -6.706802 -20.689688 -0.712686 -0.005413 -1.589218
  32 -7.403856 4.207714 -21.113268 0.013134 0.000000 -1.570796
  33 12.354374 3.994977 11.180841 0.000000 -0.000000 -1.570796
  34 14.025090 1.270142 11.180841 0.000000 -0.000000 -1.570796
  35 -19.481180 -3.775503 -9.069633 0.000000 -0.000000 1.570796
  36 -19.481178 7.751666 -9.069633 0.000000 -0.000000 1.570796
  time 2
  0 0.564904 -1.404219 -29.007050 1.692985 -0.000000 1.756718
  1 0.000001 28.528528 -2.793940 -0.037896 -0.219078 -1.697555
  2 -0.000003 3.833358 -0.000000 -1.058582 0.535051 -1.650090
  3 0.000001 13.500026 -0.000003 1.061830 -0.100073 0.175021
  4 0.000003 11.928193 -0.000003 0.617559 -0.008281 -0.045790
  5 0.000000 3.538863 -0.000000 -2.328044 0.043700 -0.041268
  6 0.000001 13.500028 -0.000002 1.635290 0.000001 -0.000000
  7 0.000001 28.528528 -2.793939 0.068807 0.005172 0.115919
  8 0.000001 4.967567 0.000000 0.552439 -0.206005 0.305556
  9 0.000000 10.424908 -0.000001 0.142313 0.009262 -1.681140
  10 -0.000000 5.721372 -0.000000 -0.873085 -1.933217 0.397533
  11 0.000000 8.563450 -0.000004 -0.703086 0.034617 0.098981
  12 0.000001 7.483444 0.000001 -0.335271 0.381068 0.033500
  13 0.000000 10.424908 -0.000001 0.038315 -0.132633 0.313620
  14 -0.000000 3.096223 0.000001 0.649226 0.121047 0.012110
  15 0.000000 10.424908 -0.000001 -0.132972 0.051695 1.893650
  16 0.000000 5.721375 0.000002 1.853972 0.585433 1.102242
  17 0.000001 8.563446 -0.000002 -1.957906 -0.209138 -0.142003
  18 -0.000002 7.483441 -0.000002 0.033562 0.008824 0.015087
  19 0.119126 7.401336 -0.700705 -1.570796 -0.000000 -0.000000
  20 -0.182472 0.858614 -0.214675 0.000000 0.000000 -0.000000
  21 0.644811 -0.364825 -0.425436 -3.141593 -1.570796 0.000000
  22 0.000001 28.528528 -2.793940 -0.002004 0.253634 2.011351
  23 0.000001 3.833360 -0.000000 -0.379144 0.172672 1.032908
  24 -0.000003 13.500027 -0.000001 1.277362 0.139952 -0.192059
  25 -0.000000 11.928190 -0.000000 -0.147659 0.024383 0.026931
  26 -0.000000 3.538862 0.000001 -2.328044 -0.043700 0.041269
  27 -0.000002 13.500030 -0.000000 1.635290 -0.000001 0.000000
  28 0.000001 28.528528 -2.793940 -2.472869 0.131739 0.067801
  29 6.970253 12.984914 4.083832 0.000000 -0.000000 -1.570796
  30 7.038545 -13.042299 0.385244 0.000000 -0.000000 -1.570796
  31 7.987181 -9.092736 -20.655756 -0.788702 0.001625 -1.595539
  32 -7.400150 4.191461 -21.114365 -0.023772 -0.000000 -1.570796
  33 14.605271 4.914224 11.180841 0.000000 -0.000000 -1.570796
  34 17.017586 -3.935390 11.180841 0.000000 -0.000000 -1.570796
  35 -19.481180 -3.775503 -9.069633 0.000000 -0.000000 1.570796
  36 -19.481178 9.481847 -9.069633 0.000000 -0.000000 1.570796
  time 3
  0 0.645921 -2.074876 -29.971340 1.692985 -0.000000 1.756718
  1 0.000001 28.528528 -2.793940 -0.037896 -0.219078 -1.697555
  2 0.000001 3.833359 0.000000 -1.155935 0.587424 -1.666622
  3 0.000002 13.500031 -0.000002 1.174050 -0.120391 0.184968
  4 0.000004 11.928196 -0.000003 0.559861 -0.008281 -0.045790
  5 0.000001 3.538863 -0.000000 -2.328044 0.043700 -0.041269
  6 0.000002 13.500031 -0.000002 1.635290 0.000001 0.000000
  7 0.000001 28.528528 -2.793939 0.011355 0.010207 0.104710
  8 0.000001 4.967566 0.000000 0.419560 -0.153220 0.301356
  9 0.000000 10.424909 -0.000002 0.142314 0.009262 -1.681140
  10 0.000005 5.721373 0.000001 -1.381216 -2.078304 0.653732
  11 -0.000003 8.563446 -0.000002 -0.447283 0.013338 0.066152
  12 -0.000001 7.483446 0.000000 -0.335271 0.381068 0.033500
  13 0.000000 10.424909 -0.000002 0.105294 -0.087488 0.451128
  14 -0.000002 3.096221 0.000002 0.649225 0.121047 0.012111
  15 0.000000 10.424909 -0.000002 -0.132973 0.051696 1.893650
  16 -0.000001 5.721374 0.000001 1.165009 0.522777 1.168087
  17 -0.000002 8.563441 -0.000003 -0.914979 -0.058127 -0.121428
  18 -0.000000 7.483445 0.000002 0.033562 0.008824 0.015087
  19 0.119127 7.401339 -0.700704 -1.570796 0.000000 -0.000000
  20 -0.182472 0.858614 -0.214672 0.000000 -0.000000 -0.000000
  21 0.644811 -0.364824 -0.425439 -3.141593 -1.570796 0.000000
  22 0.000000 28.528528 -2.793940 -0.002004 0.253634 2.011351
  23 -0.000002 3.833360 -0.000000 -0.414672 0.191734 1.072706
  24 -0.000003 13.500028 0.000000 1.395927 0.163111 -0.197647
  25 0.000002 11.928190 -0.000001 -0.224890 0.235058 0.195400
  26 -0.000001 3.538861 0.000000 -2.328044 -0.043700 0.041269
  27 -0.000002 13.500031 0.000001 1.635290 -0.000001 -0.000000
  28 0.000001 28.528528 -2.793940 -2.473120 0.131537 0.067627
  29 8.354673 10.774455 1.249388 0.000000 -0.000000 -1.570796
  30 6.029317 -12.551222 -5.662209 0.000000 -0.000000 -1.570796
  31 7.987181 -9.092736 -20.742678 -0.887128 0.270232 -1.589906
  32 -7.400150 4.191461 -21.119431 -0.081470 -0.000000 -1.570796
  33 14.605271 4.914224 11.180841 0.000000 -0.000000 -1.570796
  34 17.017586 -3.935390 11.180841 0.000000 -0.000000 -1.570796
  35 -19.481180 -3.775503 -9.069633 0.000000 -0.000000 1.570796
  36 -19.481178 10.413482 -9.069633 0.000000 -0.000000 1.570796
  time 4
  0 0.226721 -2.074876 -30.687353 1.692985 -0.000000 1.756718
  1 0.000001 28.528528 -2.793940 -0.037896 -0.219078 -1.697555
  2 -0.000001 3.833358 0.000000 -1.200517 0.584616 -1.666265
  3 0.000001 13.500029 -0.000003 1.279793 -0.140420 0.192201
  4 0.000003 11.928192 -0.000001 0.504595 -0.008281 -0.045790
  5 -0.000000 3.538863 0.000000 -2.328044 0.043700 -0.041268
  6 0.000001 13.500030 -0.000002 1.635290 0.000001 -0.000000
  7 0.000001 28.528528 -2.793939 0.016796 0.009758 0.105783
  8 0.000001 4.967567 -0.000000 0.489831 -0.182668 0.315113
  9 0.000000 10.424910 -0.000000 0.142314 0.009263 -1.681140
  10 -0.000003 5.721373 0.000000 -1.314367 -2.271924 0.463793
  11 -0.000001 8.563452 -0.000002 -0.486587 0.016048 0.071529
  12 0.000004 7.483449 -0.000000 -0.335271 0.381068 0.033500
  13 0.000000 10.424910 -0.000000 0.154274 0.004580 0.504907
  14 -0.000001 3.096222 0.000001 0.649225 0.121047 0.012111
  15 0.000000 10.424910 -0.000000 -0.132972 0.051696 1.893650
  16 -0.000000 5.721370 0.000001 0.774127 0.535298 1.167871
  17 -0.000005 8.563442 -0.000004 -0.005212 0.001711 -0.000796
  18 -0.000003 7.483443 0.000002 0.033562 0.008824 0.015087
  19 0.119128 7.401339 -0.700705 -1.570796 -0.000000 -0.000000
  20 -0.182472 0.858615 -0.214670 0.000000 0.000000 -0.000000
  21 0.644811 -0.364824 -0.425437 3.141593 -1.570796 0.000000
  22 0.000000 28.528528 -2.793940 -0.002004 0.253634 2.011351
  23 -0.000000 3.833358 0.000000 -0.401920 0.186594 1.073660
  24 -0.000000 13.500032 0.000002 1.432748 0.170406 -0.198814
  25 -0.000000 11.928191 -0.000001 -0.331190 0.250804 0.174712
  26 -0.000001 3.538863 -0.000000 -2.328044 -0.043700 0.041269
  27 0.000001 13.500034 0.000002 1.635290 -0.000001 0.000000
  28 0.000001 28.528528 -2.793940 -2.473867 0.130938 0.067113
  29 9.739094 8.563996 -1.585052 0.000000 -0.000000 -1.570796
  30 5.485886 -12.286796 -8.918529 0.000000 -0.000000 -1.570796
  31 7.984427 -9.092715 -20.962502 -0.995520 0.270276 -1.616385
  32 -7.400150 4.191461 -21.125790 -0.136736 -0.000000 -1.570796
  33 14.605271 4.914224 11.180841 0.000000 -0.000000 -1.570796
  34 17.017586 -3.935390 11.180841 0.000000 -0.000000 -1.570796
  35 -19.481180 -3.775503 -9.069633 0.000000 -0.000000 1.570796
  36 -19.481178 10.413482 -9.069633 0.000000 -0.000000 1.570796
  time 5
  0 -0.192479 -2.074876 -31.403362 1.692985 -0.000000 1.756718
  1 0.000001 28.528526 -2.793940 -0.037896 -0.219078 -1.697555
  2 -0.000001 3.833358 0.000000 -1.240697 0.582846 -1.664802
  3 0.000004 13.500028 -0.000002 1.378775 -0.159726 0.197011
  4 0.000003 11.928191 -0.000005 0.479916 -0.008281 -0.045790
  5 -0.000000 3.538862 0.000001 -2.328044 0.043700 -0.041269
  6 0.000003 13.500031 -0.000003 1.635290 0.000001 -0.000000
  7 0.000001 28.528526 -2.793939 0.029930 0.008650 0.108364
  8 0.000000 4.967566 -0.000000 0.659966 -0.257192 0.339689
  9 -0.000000 10.424909 -0.000001 0.142313 0.009263 -1.681140
  10 0.000001 5.721372 -0.000000 -1.123946 -2.525511 0.235554
  11 -0.000001 8.563447 0.000001 -0.705514 0.034859 0.099265
  12 0.000001 7.483445 0.000003 -0.335270 0.381068 0.033500
  13 -0.000000 10.424909 -0.000001 0.179184 0.077334 0.515849
  14 -0.000001 3.096222 0.000001 0.649225 0.121047 0.012111
  15 -0.000000 10.424909 -0.000001 -0.132972 0.051695 1.893650
  16 0.000000 5.721369 0.000000 1.371801 0.431433 1.222139
  17 -0.000003 8.563448 0.000002 -0.881698 -0.054125 -0.118237
  18 0.000000 7.483448 0.000003 0.033562 0.008824 0.015087
  19 0.119127 7.401339 -0.700706 -1.570796 0.000000 0.000000
  20 -0.182472 0.858614 -0.214673 0.000000 0.000000 0.000000
  21 0.644811 -0.364825 -0.425436 3.141593 -1.570796 0.000000
  22 0.000000 28.528526 -2.793940 -0.002004 0.253634 2.011351
  23 0.000000 3.833359 -0.000000 -0.389654 0.181050 1.073923
  24 0.000001 13.500029 0.000001 1.476212 0.179053 -0.199840
  25 -0.000000 11.928190 -0.000001 -0.382111 0.255058 0.158162
  26 0.000000 3.538864 0.000001 -2.328044 -0.043700 0.041269
  27 0.000002 13.500032 0.000001 1.635290 -0.000001 -0.000000
  28 0.000001 28.528526 -2.793940 -2.475085 0.129958 0.066274
  29 11.123514 6.353539 -4.419495 0.000000 -0.000000 -1.570796
  30 5.485886 -12.286796 -8.918529 0.000000 -0.000000 -1.570796
  31 7.976434 -9.092665 -21.094843 -1.046469 0.263746 -1.632183
  32 -7.400150 4.191461 -21.128916 -0.161415 -0.000000 -1.570796
  33 14.605271 4.914224 11.180841 0.000000 -0.000000 -1.570796
  34 17.017586 -3.935390 11.180841 0.000000 -0.000000 -1.570796
  35 -19.481180 -3.775503 -9.069633 0.000000 -0.000000 1.570796
  36 -19.481178 10.413482 -9.069633 0.000000 -0.000000 1.570796
  time 6
  0 -0.192479 -2.074876 -28.475294 1.692985 -0.000000 1.756718
  1 0.000001 28.528526 -2.793940 -0.037539 -0.218351 -1.701203
  2 -0.000001 3.833359 0.000000 -1.014016 0.621265 -1.644286
  3 0.000003 13.500027 0.000001 1.015253 -0.091988 0.170237
  4 0.000004 11.928187 0.000002 0.627343 -0.008280 -0.045790
  5 -0.000000 3.538864 -0.000001 -2.328044 0.043700 -0.041268
  6 0.000002 13.500031 0.000002 1.635290 0.000001 -0.000000
  7 0.000001 28.528526 -2.793939 -0.001444 0.008076 0.023946
  8 0.000000 4.967567 0.000000 0.704946 -0.502677 -0.119291
  9 0.000000 10.424909 0.000002 0.142313 0.009263 -1.681140
  10 -0.000000 5.721372 -0.000001 -0.808618 -2.203580 0.514140
  11 0.000001 8.563448 -0.000001 -1.210842 0.097726 0.143533
  12 -0.000003 7.483444 0.000003 -0.335271 0.381068 0.033500
  13 0.000000 10.424909 0.000002 0.101374 0.095739 0.158924
  14 -0.000000 3.096220 0.000002 0.619315 -0.179947 0.225027
  15 0.000000 10.424909 0.000002 -0.132972 0.051695 1.893650
  16 -0.000000 5.721371 0.000000 0.812822 0.108163 1.482483
  17 0.000002 8.563450 -0.000004 -0.350278 -0.007573 -0.052471
  18 0.000000 7.483446 0.000001 0.033562 0.008824 0.015087
  19 0.119125 7.401337 -0.700705 -1.570796 -0.000000 0.000000
  20 -0.182472 0.858614 -0.214673 0.000000 -0.000000 -0.000000
  21 0.644811 -0.364824 -0.425435 -3.141593 -1.570796 0.000000
  22 0.000000 28.528526 -2.793940 -0.005281 0.251626 1.993904
  23 0.000001 3.833359 0.000000 -0.289178 0.196845 1.092207
  24 -0.000002 13.500031 0.000001 1.137869 0.113722 -0.182010
  25 0.000000 11.928184 0.000003 -0.115311 0.218259 0.217002
  26 -0.000001 3.538862 -0.000000 -2.328044 -0.043700 0.041269
  27 -0.000002 13.500031 0.000001 1.635290 -0.000001 -0.000000
  28 0.000001 28.528526 -2.793939 -2.476737 0.128626 0.065138
  29 10.543733 6.069330 -1.738781 0.000000 -0.000000 -1.570796
  30 2.789426 -9.110902 -3.069830 0.000000 -0.000000 -1.570796
  31 7.963167 -9.092604 -21.093666 -0.774949 0.269893 -1.561964
  32 -7.398088 4.190782 -21.128908 -0.013988 -0.000000 -1.570796
  33 14.590461 4.908143 11.180841 0.000000 -0.000000 -1.570796
  34 16.602564 -3.227998 11.180841 0.000000 -0.000000 -1.570796
  35 -19.481180 -3.775503 -9.069633 0.000000 -0.000000 1.570796
  36 -19.481178 10.413482 -9.069633 0.000000 -0.000000 1.570796
  time 7
  0 -0.192479 -1.613241 -29.049898 1.692985 -0.000000 1.756718
  1 0.000001 28.528528 -2.793940 -0.036632 -0.216469 -1.710609
  2 0.000001 3.833358 -0.000000 -1.066416 0.597745 -1.654783
  3 -0.000000 13.500025 -0.000004 1.107639 -0.108233 0.179356
  4 0.000005 11.928188 -0.000002 0.546997 -0.008281 -0.045790
  5 0.000001 3.538863 0.000001 -2.328044 0.043700 -0.041268
  6 0.000000 13.500028 -0.000004 1.635290 0.000001 -0.000000
  7 0.000001 28.528528 -2.793939 0.059028 0.015186 0.184071
  8 0.000000 4.967567 -0.000000 0.484760 0.308468 -0.094518
  9 0.000000 10.424909 0.000001 0.142313 0.009263 -1.681140
  10 0.000002 5.721372 -0.000003 1.763741 -0.340490 -1.894720
  11 -0.000003 8.563445 -0.000003 -1.270919 0.106458 0.146539
  12 0.000000 7.483447 -0.000003 -0.335271 0.381068 0.033500
  13 0.000000 10.424909 0.000001 -0.111786 -0.021683 0.069436
  14 0.000001 3.096222 0.000000 0.516394 -0.467279 0.470746
  15 0.000000 10.424909 0.000001 -0.132972 0.051695 1.893650
  16 -0.000001 5.721373 -0.000001 0.371834 0.812890 0.881198
  17 0.000001 8.563444 -0.000001 -1.220199 -0.099075 -0.144036
  18 -0.000001 7.483442 0.000001 0.033562 0.008824 0.015087
  19 0.119123 7.401334 -0.700706 -1.570796 -0.000000 0.000000
  20 -0.182472 0.858614 -0.214674 0.000000 -0.000000 0.000000
  21 0.644811 -0.364824 -0.425433 -3.141593 -1.570796 0.000000
  22 0.000001 28.528528 -2.793940 -0.013570 0.246187 1.948896
  23 -0.000001 3.833360 -0.000000 -0.304754 0.187084 1.113980
  24 -0.000004 13.500026 -0.000002 1.182403 0.121945 -0.185616
  25 -0.000000 11.928188 0.000000 -0.177180 0.224656 0.199009
  26 -0.000000 3.538862 -0.000000 -2.328044 -0.043700 0.041268
  27 -0.000003 13.500028 -0.000002 1.635290 -0.000001 0.000000
  28 0.000001 28.528528 -2.793940 -2.478772 0.126981 0.063741
  29 8.268525 9.502090 1.081398 0.000000 -0.000000 -1.570796
  30 0.989831 -11.958780 2.303471 0.000000 -0.000000 -1.570796
  31 7.944785 -9.092533 -21.090162 -0.837732 0.264183 -1.580407
  32 -7.391962 4.188761 -21.128851 -0.094333 -0.000000 -1.570796
  33 14.486787 4.865576 11.180841 0.000000 -0.000000 -1.570796
  34 15.532243 -1.403671 11.180841 0.000000 -0.000000 -1.570796
  35 -19.481180 -3.775503 -9.069633 0.000000 -0.000000 1.570796
  36 -19.481178 10.413482 -9.069633 0.000000 -0.000000 1.570796
  time 8
  0 -0.192479 -1.604781 -29.041119 1.692985 -0.000000 1.756718
  1 0.000001 28.528528 -2.793940 -0.035422 -0.213882 -1.723462
  2 0.000001 3.833359 0.000000 -1.065895 0.598911 -1.640671
  3 0.000002 13.500029 -0.000004 1.113249 -0.109245 0.179861
  4 0.000003 11.928189 -0.000003 0.547260 -0.008281 -0.045790
  5 -0.000000 3.538861 0.000000 -2.328044 0.043700 -0.041269
  6 0.000001 13.500030 -0.000002 1.635290 0.000001 -0.000000
  7 0.000001 28.528528 -2.793939 -0.015583 0.035105 0.132558
  8 -0.000000 4.967568 0.000000 0.505724 -0.285942 -0.280789
  9 0.000003 10.424908 0.000002 0.142313 0.009263 -1.681140
  10 0.000006 5.721374 -0.000001 0.567743 -1.382854 -1.050063
  11 -0.000001 8.563444 -0.000001 -1.442504 0.132158 0.152166
  12 0.000001 7.483446 0.000003 -0.335271 0.381068 0.033500
  13 0.000003 10.424908 0.000002 -0.053769 0.156679 0.365209
  14 0.000000 3.096223 -0.000000 0.937929 0.254344 -0.051018
  15 0.000003 10.424908 0.000002 -0.132972 0.051695 1.893650
  16 -0.000001 5.721374 0.000000 0.981217 0.703179 1.028623
  17 0.000003 8.563450 -0.000004 -1.209238 -0.097496 -0.143446
  18 0.000001 7.483444 0.000001 0.033562 0.008824 0.015087
  19 0.119124 7.401336 -0.700705 -1.570796 0.000000 0.000000
  20 -0.182472 0.858614 -0.214674 0.000000 -0.000000 0.000000
  21 0.644811 -0.364824 -0.425431 3.141593 -1.570796 0.000000
  22 0.000001 28.528528 -2.793940 -0.024484 0.238157 1.887393
  23 0.000001 3.833359 -0.000000 -0.292195 0.196773 1.178559
  24 0.000001 13.500031 0.000003 1.157730 0.117370 -0.183663
  25 -0.000001 11.928183 0.000003 -0.174593 0.223296 0.199198
  26 -0.000001 3.538861 0.000000 -2.328044 -0.043700 0.041268
  27 0.000000 13.500031 0.000003 1.635290 -0.000001 -0.000000
  28 0.000001 28.528528 -2.793940 -2.481125 0.125073 0.062127
  29 0.981552 7.274531 1.629253 0.000000 -0.000000 -1.570796
  30 0.732746 -14.806659 3.883278 0.000000 -0.000000 -1.570796
  31 7.925741 -9.092371 -21.083525 -0.834922 0.263221 -1.579392
  32 -7.384383 4.186262 -21.128695 -0.094070 -0.000000 -1.570796
  33 14.205392 4.750039 11.180841 0.000000 -0.000000 -1.570796
  34 14.068744 1.090820 11.180841 0.000000 -0.000000 -1.570796
  35 -19.481180 -3.775503 -9.069633 0.000000 -0.000000 1.570796
  36 -19.481178 10.413482 -9.069633 0.000000 -0.000000 1.570796
  time 9
  0 -0.192479 -1.477886 -28.909424 1.692985 -0.000000 1.756718
  1 0.000001 28.528528 -2.793940 -0.034143 -0.211047 -1.737454
  2 0.000004 3.833359 0.000000 -1.055990 0.597584 -1.628482
  3 0.000000 13.500023 -0.000001 1.104675 -0.107699 0.179087
  4 0.000003 11.928192 -0.000000 0.549103 -0.008281 -0.045790
  5 0.000000 3.538863 -0.000001 -2.328044 0.043700 -0.041268
  6 0.000000 13.500027 -0.000002 1.635290 0.000001 -0.000000
  7 0.000001 28.528528 -2.793939 -0.186205 0.054445 0.013700
  8 -0.000000 4.967567 0.000001 0.441392 -0.273436 -0.220659
  9 0.000002 10.424906 0.000001 0.142313 0.009263 -1.681140
  10 -0.000002 5.721373 -0.000000 -1.211406 -1.089892 0.745400
  11 0.000000 8.563452 -0.000003 -1.118278 0.084660 0.137889
  12 0.000001 7.483449 -0.000001 -0.335271 0.381068 0.033500
  13 0.000002 10.424906 0.000001 -0.202167 0.111874 0.172272
  14 0.000000 3.096223 0.000000 0.800893 -0.263153 0.038256
  15 0.000002 10.424906 0.000001 -0.132972 0.051695 1.893650
  16 0.000003 5.721374 0.000000 0.864273 0.771491 1.147894
  17 0.000004 8.563445 -0.000002 -0.838316 -0.049074 -0.113882
  18 0.000005 7.483442 0.000001 0.033562 0.008824 0.015087
  19 0.119124 7.401338 -0.700705 -1.570796 -0.000000 -0.000000
  20 -0.182472 0.858614 -0.214673 0.000000 -0.000000 -0.000000
  21 0.644811 -0.364824 -0.425435 -3.141593 -1.570796 0.000000
  22 0.000001 28.528528 -2.793940 -0.035761 0.228676 1.820563
  23 0.000001 3.833359 0.000000 -0.272366 0.203023 1.240754
  24 -0.000002 13.500031 0.000000 1.110402 0.108732 -0.179605
  25 0.000000 11.928185 0.000002 -0.155912 0.220120 0.201146
  26 0.000000 3.538862 0.000001 -2.328044 -0.043700 0.041269
  27 -0.000002 13.500033 0.000000 1.635290 -0.000001 0.000000
  28 0.000001 28.528528 -2.793940 -2.483725 0.122957 0.060347
  29 -4.504865 10.330017 3.757534 0.000000 -0.000000 -1.570796
  30 0.726543 -14.525899 2.493624 0.000000 -0.000000 -1.570796
  31 7.900387 -9.092177 -21.074942 -0.815743 0.261878 -1.575821
  32 -7.372091 4.182210 -21.128511 -0.092228 -0.000000 -1.570796
  33 13.657413 4.525047 11.180841 0.000000 -0.000000 -1.570796
  34 12.474185 3.808699 11.180841 0.000000 -0.000000 -1.570796
  35 -19.481180 -3.775503 -9.069633 0.000000 -0.000000 1.570796
  36 -19.481178 10.413482 -9.069633 0.000000 -0.000000 1.570796
  time 10
  0 -0.192479 -0.928008 -28.338739 1.692985 -0.000000 1.756718
  1 0.000004 28.528528 -2.793937 -0.033006 -0.208429 -1.750286
  2 0.000000 3.833359 -0.000000 -1.010980 0.587312 -1.628347
  3 0.000003 13.500028 -0.000003 1.038882 -0.096062 0.172711
  4 0.000003 11.928192 0.000001 0.554104 -0.008281 -0.045790
  5 0.000001 3.538865 -0.000001 -2.328044 0.043700 -0.041269
  6 0.000003 13.500030 -0.000002 1.635290 0.000001 -0.000000
  7 0.000004 28.528528 -2.793937 -0.357443 0.051242 -0.106057
  8 -0.000000 4.967569 0.000000 0.253301 -0.213359 -0.045714
  9 -0.000003 10.424908 0.000002 0.142313 0.009263 -1.681139
  10 -0.000006 5.721372 -0.000000 -0.925313 -1.169705 0.566908
  11 -0.000002 8.563446 -0.000000 -1.338108 0.116411 0.149270
  12 0.000001 7.483447 -0.000000 -0.335271 0.381068 0.033500
  13 -0.000003 10.424908 0.000002 -0.449044 -0.047515 -0.171723
  14 -0.000000 3.096224 0.000001 0.680090 -0.126328 0.073400
  15 -0.000003 10.424908 0.000002 -0.132972 0.051695 1.893650
  16 -0.000002 5.721370 0.000000 0.247391 0.859379 1.003251
  17 0.000002 8.563441 -0.000001 -0.005225 0.001711 -0.000799
  18 -0.000000 7.483444 -0.000002 0.033562 0.008824 0.015087
  19 0.119125 7.401335 -0.700707 -1.570796 -0.000000 0.000000
  20 -0.182472 0.858614 -0.214672 0.000000 -0.000000 -0.000000
  21 0.644811 -0.364825 -0.425434 -3.141593 -1.570796 0.000000
  22 0.000004 28.528528 -2.793937 -0.045488 0.219358 1.759516
  23 0.000000 3.833360 0.000000 -0.230006 0.196275 1.270573
  24 -0.000003 13.500032 0.000001 0.988271 0.087409 -0.167296
  25 -0.000002 11.928190 0.000002 -0.104919 0.214996 0.206450
  26 -0.000001 3.538862 0.000000 -2.328044 -0.043700 0.041269
  27 -0.000003 13.500032 0.000002 1.635290 -0.000001 0.000000
  28 0.000004 28.528528 -2.793937 -2.486490 0.120697 0.058456
  29 -5.269552 10.755885 4.054171 0.000000 -0.000000 -1.570796
  30 0.683121 -13.642917 -0.087162 0.000000 -0.000000 -1.570796
  31 7.860069 -9.092059 -21.066208 -0.763960 0.261001 -1.568335
  32 -7.350053 4.174944 -21.128399 -0.087227 -0.000000 -1.570796
  33 12.753984 4.154112 11.180841 0.000000 -0.000000 -1.570796
  34 11.010686 6.303190 11.180841 0.000000 -0.000000 -1.570796
  35 -19.481180 -3.775503 -9.069633 0.000000 -0.000000 1.570796
  36 -19.481178 10.413482 -9.069633 0.000000 -0.000000 1.570796
  time 11
  0 -0.192479 0.552432 -26.802284 1.692985 -0.000000 1.756718
  1 0.000004 28.528528 -2.793937 -0.032196 -0.206506 -1.759662
  2 -0.000001 3.833358 0.000000 -0.869141 0.561187 -1.647461
  3 0.000000 13.500029 -0.000005 0.805071 -0.058633 0.144246
  4 0.000005 11.928192 -0.000000 0.671500 -0.008281 -0.045790
  5 0.000001 3.538863 0.000001 -2.328044 0.043700 -0.041268
  6 0.000001 13.500031 -0.000005 1.635290 0.000002 0.000000
  7 0.000004 28.528528 -2.793937 -0.433641 0.042844 -0.159005
  8 -0.000000 4.967567 0.000001 -0.023477 -0.051044 0.207172
  9 0.000001 10.424910 0.000000 0.142313 0.009263 -1.681140
  10 0.000002 5.721372 0.000000 -0.309002 -1.310963 -0.371530
  11 -0.000000 8.563444 -0.000001 -1.109088 0.083392 0.137263
  12 0.000001 7.483443 0.000000 -0.335271 0.381068 0.033500
  13 0.000001 10.424910 0.000000 -0.553249 -0.160022 -0.334616
  14 0.000000 3.096221 0.000000 0.565682 0.012847 0.091533
  15 0.000001 10.424910 0.000000 -0.132973 0.051695 1.893650
  16 -0.000004 5.721375 -0.000001 -0.200658 0.930290 0.557676
  17 -0.000003 8.563446 -0.000001 -0.005249 0.001712 -0.000802
  18 -0.000002 7.483446 -0.000002 0.033562 0.008824 0.015087
  19 0.119125 7.401337 -0.700705 -1.570796 -0.000000 0.000000
  20 -0.182472 0.858614 -0.214671 0.000000 0.000000 0.000000
  21 0.644811 -0.364824 -0.425437 -3.141593 -1.570796 0.000000
  22 0.000004 28.528528 -2.793937 -0.052196 0.212203 1.715114
  23 0.000001 3.833359 0.000000 -0.097891 0.165713 1.226922
  24 -0.000003 13.500027 0.000002 0.627028 0.035183 -0.117267
  25 -0.000002 11.928184 0.000003 0.094397 0.181408 0.241031
  26 -0.000001 3.538861 0.000001 -2.328044 -0.043700 0.041268
  27 -0.000003 13.500028 0.000002 1.635290 -0.000001 -0.000000
  28 0.000004 28.528528 -2.793937 -2.489337 0.118361 0.056513
  29 -4.758640 10.471350 3.855978 0.000000 -0.000000 -1.570796
  30 0.565262 -12.096658 -1.476814 0.000000 -0.000000 -1.570796
  31 7.822343 -9.091866 -21.053905 -0.558954 0.255076 -1.519359
  32 -7.328530 4.167847 -21.128220 0.030169 -0.000000 -1.570797
  33 11.406247 3.600752 11.180841 0.000000 -0.000000 -1.570796
  34 9.940365 8.127518 11.180841 0.000000 -0.000000 -1.570796
  35 -19.481180 -3.775503 -9.069633 0.000000 -0.000000 1.570796
  36 -19.481178 10.413482 -9.069633 0.000000 -0.000000 1.570796
end
