version 1
nodes
0 "root" -1
end
skeleton
time 0
0 0.000000 0.000000 0.000000 0.000000 0.000000 0.000000
end
triangles
p0explob2_s1
0 28.000000 32.000000 0.000000 -0.000000 1.000000 0.000000 -0.875000 0.000000
0 4.000000 32.000000 0.000000 -0.000000 1.000000 0.000000 -0.125000 0.000000
0 4.000000 32.000000 64.000000 -0.000000 1.000000 0.000000 -0.125000 -1.000000
p0explob2_s1
0 28.000000 32.000000 0.000000 -0.000000 1.000000 0.000000 -0.875000 0.000000
0 4.000000 32.000000 64.000000 -0.000000 1.000000 0.000000 -0.125000 -1.000000
0 28.000000 32.000000 64.000000 -0.000000 1.000000 0.000000 -0.875000 -1.000000
p0explob2_s1
0 4.000000 32.000000 64.000000 -0.707107 0.707107 0.000000 -0.125000 -1.000000
0 4.000000 32.000000 0.000000 -0.707107 0.707107 0.000000 -0.125000 0.000000
0 0.000000 28.000000 0.000000 -0.707107 0.707107 0.000000 0.000000 0.000000
p0explob2_s1
0 4.000000 32.000000 64.000000 -0.707107 0.707107 0.000000 -0.125000 -1.000000
0 0.000000 28.000000 0.000000 -0.707107 0.707107 0.000000 0.000000 0.000000
0 0.000000 28.000000 64.000000 -0.707107 0.707107 0.000000 0.000000 -1.000000
p0explob2_s1
0 32.000000 28.000000 0.000000 0.707107 0.707107 0.000000 -1.000000 0.000000
0 28.000000 32.000000 0.000000 0.707107 0.707107 0.000000 -0.875000 0.000000
0 28.000000 32.000000 64.000000 0.707107 0.707107 0.000000 -0.875000 -1.000000
p0explob2_s1
0 32.000000 28.000000 0.000000 0.707107 0.707107 0.000000 -1.000000 0.000000
0 28.000000 32.000000 64.000000 0.707107 0.707107 0.000000 -0.875000 -1.000000
0 32.000000 28.000000 64.000000 0.707107 0.707107 0.000000 -1.000000 -1.000000
p0explob2_s1
0 0.000000 4.000000 64.000000 -1.000000 -0.000000 0.000000 0.875000 -1.000000
0 0.000000 28.000000 64.000000 -1.000000 -0.000000 0.000000 0.125000 -1.000000
0 0.000000 28.000000 0.000000 -1.000000 -0.000000 0.000000 0.125000 0.000000
p0explob2_s1
0 0.000000 4.000000 64.000000 -1.000000 -0.000000 0.000000 0.875000 -1.000000
0 0.000000 28.000000 0.000000 -1.000000 -0.000000 0.000000 0.125000 0.000000
0 0.000000 4.000000 0.000000 -1.000000 -0.000000 0.000000 0.875000 0.000000
ammo_fl2
0 28.000000 0.000000 0.000000 0.000000 0.000000 -1.000000 -1.000000 -0.875000
0 4.000000 0.000000 0.000000 0.000000 0.000000 -1.000000 -1.000000 -0.125000
0 0.000000 4.000000 0.000000 0.000000 0.000000 -1.000000 -0.875000 -0.000000
ammo_fl2
0 28.000000 0.000000 0.000000 0.000000 0.000000 -1.000000 -1.000000 -0.875000
0 0.000000 4.000000 0.000000 0.000000 0.000000 -1.000000 -0.875000 -0.000000
0 0.000000 28.000000 0.000000 0.000000 0.000000 -1.000000 -0.125000 -0.000000
ammo_fl2
0 28.000000 0.000000 0.000000 0.000000 0.000000 -1.000000 -1.000000 -0.875000
0 0.000000 28.000000 0.000000 0.000000 0.000000 -1.000000 -0.125000 -0.000000
0 4.000000 32.000000 0.000000 0.000000 0.000000 -1.000000 0.000000 -0.125000
ammo_fl2
0 28.000000 0.000000 0.000000 0.000000 0.000000 -1.000000 -1.000000 -0.875000
0 4.000000 32.000000 0.000000 0.000000 0.000000 -1.000000 0.000000 -0.125000
0 28.000000 32.000000 0.000000 0.000000 0.000000 -1.000000 0.000000 -0.875000
ammo_fl2
0 28.000000 0.000000 0.000000 0.000000 0.000000 -1.000000 -1.000000 -0.875000
0 28.000000 32.000000 0.000000 0.000000 0.000000 -1.000000 0.000000 -0.875000
0 32.000000 28.000000 0.000000 0.000000 0.000000 -1.000000 -0.125000 -1.000000
ammo_fl2
0 28.000000 0.000000 0.000000 0.000000 0.000000 -1.000000 -1.000000 -0.875000
0 32.000000 28.000000 0.000000 0.000000 0.000000 -1.000000 -0.125000 -1.000000
0 32.000000 4.000000 0.000000 0.000000 0.000000 -1.000000 -0.875000 -1.000000
explob_s2
0 32.000000 4.000000 64.000000 0.000000 0.000000 1.000000 0.875000 -1.000000
0 32.000000 28.000000 64.000000 0.000000 0.000000 1.000000 0.125000 -1.000000
0 28.000000 32.000000 64.000000 0.000000 0.000000 1.000000 0.000000 -0.875000
explob_s2
0 32.000000 4.000000 64.000000 0.000000 0.000000 1.000000 0.875000 -1.000000
0 28.000000 32.000000 64.000000 0.000000 0.000000 1.000000 0.000000 -0.875000
0 4.000000 32.000000 64.000000 0.000000 0.000000 1.000000 0.000000 -0.125000
explob_s2
0 32.000000 4.000000 64.000000 0.000000 0.000000 1.000000 0.875000 -1.000000
0 4.000000 32.000000 64.000000 0.000000 0.000000 1.000000 0.000000 -0.125000
0 0.000000 28.000000 64.000000 0.000000 0.000000 1.000000 0.125000 0.000000
explob_s2
0 32.000000 4.000000 64.000000 0.000000 0.000000 1.000000 0.875000 -1.000000
0 0.000000 28.000000 64.000000 0.000000 0.000000 1.000000 0.125000 0.000000
0 0.000000 4.000000 64.000000 0.000000 0.000000 1.000000 0.875000 0.000000
explob_s2
0 32.000000 4.000000 64.000000 0.000000 0.000000 1.000000 0.875000 -1.000000
0 0.000000 4.000000 64.000000 0.000000 0.000000 1.000000 0.875000 0.000000
0 4.000000 0.000000 64.000000 0.000000 0.000000 1.000000 1.000000 -0.125000
explob_s2
0 32.000000 4.000000 64.000000 0.000000 0.000000 1.000000 0.875000 -1.000000
0 4.000000 0.000000 64.000000 0.000000 0.000000 1.000000 1.000000 -0.125000
0 28.000000 0.000000 64.000000 0.000000 0.000000 1.000000 1.000000 -0.875000
p0explob2_s1
0 32.000000 4.000000 0.000000 1.000000 0.000000 0.000000 -0.875000 0.000000
0 32.000000 28.000000 0.000000 1.000000 0.000000 0.000000 -0.125000 0.000000
0 32.000000 28.000000 64.000000 1.000000 0.000000 0.000000 -0.125000 -1.000000
p0explob2_s1
0 32.000000 4.000000 0.000000 1.000000 0.000000 0.000000 -0.875000 0.000000
0 32.000000 28.000000 64.000000 1.000000 0.000000 0.000000 -0.125000 -1.000000
0 32.000000 4.000000 64.000000 1.000000 0.000000 0.000000 -0.875000 -1.000000
p0explob2_s1
0 4.000000 0.000000 64.000000 -0.707107 -0.707107 0.000000 0.125000 -1.000000
0 0.000000 4.000000 64.000000 -0.707107 -0.707107 0.000000 0.000000 -1.000000
0 0.000000 4.000000 0.000000 -0.707107 -0.707107 0.000000 0.000000 0.000000
p0explob2_s1
0 4.000000 0.000000 64.000000 -0.707107 -0.707107 0.000000 0.125000 -1.000000
0 0.000000 4.000000 0.000000 -0.707107 -0.707107 0.000000 0.000000 0.000000
0 4.000000 0.000000 0.000000 -0.707107 -0.707107 0.000000 0.125000 0.000000
p0explob2_s1
0 28.000000 0.000000 0.000000 0.707107 -0.707107 0.000000 0.875000 0.000000
0 32.000000 4.000000 0.000000 0.707107 -0.707107 0.000000 1.000000 0.000000
0 32.000000 4.000000 64.000000 0.707107 -0.707107 0.000000 1.000000 -1.000000
p0explob2_s1
0 28.000000 0.000000 0.000000 0.707107 -0.707107 0.000000 0.875000 0.000000
0 32.000000 4.000000 64.000000 0.707107 -0.707107 0.000000 1.000000 -1.000000
0 28.000000 0.000000 64.000000 0.707107 -0.707107 0.000000 0.875000 -1.000000
p0explob2_s1
0 4.000000 0.000000 64.000000 0.000000 -1.000000 0.000000 0.125000 -1.000000
0 4.000000 0.000000 0.000000 0.000000 -1.000000 0.000000 0.125000 0.000000
0 28.000000 0.000000 0.000000 0.000000 -1.000000 0.000000 0.875000 0.000000
p0explob2_s1
0 4.000000 0.000000 64.000000 0.000000 -1.000000 0.000000 0.125000 -1.000000
0 28.000000 0.000000 0.000000 0.000000 -1.000000 0.000000 0.875000 0.000000
0 28.000000 0.000000 64.000000 0.000000 -1.000000 0.000000 0.875000 -1.000000
end
