version 1
nodes
0 "v0" -1
1 "v1" -1
2 "v2" -1
3 "v3" -1
4 "v4" -1
5 "v5" -1
6 "v6" -1
7 "v7" -1
8 "v8" -1
9 "v9" -1
10 "v10" -1
11 "v11" -1
12 "v12" -1
13 "v13" -1
14 "v14" -1
15 "v15" -1
16 "v16" -1
17 "v17" -1
18 "v18" -1
19 "v19" -1
20 "v20" -1
21 "v21" -1
22 "v22" -1
23 "v23" -1
24 "v24" -1
25 "v25" -1
26 "v26" -1
27 "v27" -1
28 "v28" -1
29 "v29" -1
30 "v30" -1
31 "v31" -1
32 "v32" -1
33 "v33" -1
34 "v34" -1
35 "v35" -1
36 "v36" -1
37 "v37" -1
38 "v38" -1
39 "v39" -1
40 "v40" -1
41 "v41" -1
42 "v42" -1
43 "v43" -1
44 "v44" -1
45 "v45" -1
46 "v46" -1
47 "v47" -1
48 "v48" -1
49 "v49" -1
50 "v50" -1
51 "v51" -1
52 "v52" -1
53 "v53" -1
54 "v54" -1
55 "v55" -1
56 "v56" -1
end
skeleton
  time 0
  0 0.000000 1.089116 -0.000094 0.000000 -0.000000 0.000000
  1 0.009106 0.611199 17.599907 0.000000 -0.000000 0.000000
  2 0.871293 0.435646 -0.000094 0.000000 -0.000000 0.000000
  3 0.141106 0.531999 17.599907 0.000000 -0.000000 0.000000
  4 0.871293 -0.435646 -0.000094 0.000000 -0.000000 0.000000
  5 0.141106 0.373599 17.599907 0.000000 -0.000000 0.000000
  6 0.000000 -1.089116 -0.000094 0.000000 -0.000000 0.000000
  7 0.009106 0.294399 17.599907 0.000000 -0.000000 0.000000
  8 -0.871293 -0.435646 -0.000094 0.000000 -0.000000 0.000000
  9 -0.122894 0.373599 17.599907 0.000000 -0.000000 0.000000
  10 -0.871293 0.435646 -0.000094 0.000000 -0.000000 0.000000
  11 -0.122894 0.531999 17.599907 0.000000 -0.000000 0.000000
  12 0.017246 1.982674 1.759905 0.000000 -0.000000 0.000000
  13 1.827545 0.775808 1.759905 0.000000 -0.000000 0.000000
  14 1.827545 -1.034492 1.759905 0.000000 -0.000000 0.000000
  15 0.017246 -2.241358 1.759905 0.000000 -0.000000 0.000000
  16 -1.793054 -1.034492 1.759905 0.000000 -0.000000 0.000000
  17 -1.793054 0.775808 1.759905 0.000000 -0.000000 0.000000
  18 0.059601 2.879568 5.279905 0.000000 -0.000000 0.000000
  19 2.545563 1.459018 5.279905 0.000000 -0.000000 0.000000
  20 2.545563 -1.122546 5.279905 0.000000 -0.000000 0.000000
  21 0.059601 -2.543096 5.279905 0.000000 -0.000000 0.000000
  22 -2.426361 -1.122546 5.279905 0.000000 -0.000000 0.000000
  23 -2.426361 1.459018 5.279905 0.000000 -0.000000 0.000000
  24 0.010347 1.836040 9.679906 0.000000 -0.000000 0.000000
  25 1.712837 0.814547 9.679906 0.000000 -0.000000 0.000000
  26 1.712837 -1.228440 9.679906 0.000000 -0.000000 0.000000
  27 0.010347 -2.249934 9.679906 0.000000 -0.000000 0.000000
  28 -1.692142 -1.228440 9.679906 0.000000 -0.000000 0.000000
  29 -1.692142 0.814547 9.679906 0.000000 -0.000000 0.000000
  30 0.000000 0.130694 -0.000094 0.000000 -0.000000 0.000000
  31 0.108912 0.043565 -0.000094 0.000000 -0.000000 0.000000
  32 0.108912 -0.043565 -0.000094 0.000000 -0.000000 0.000000
  33 0.000000 -0.130694 -0.000094 0.000000 -0.000000 0.000000
  34 -0.108912 -0.043565 -0.000094 0.000000 -0.000000 0.000000
  35 -0.108912 0.043565 -0.000094 0.000000 -0.000000 0.000000
  36 0.009106 0.558399 17.599907 0.000000 -0.000000 0.000000
  37 0.097106 0.505599 17.599907 0.000000 -0.000000 0.000000
  38 0.097106 0.399999 17.599907 0.000000 -0.000000 0.000000
  39 0.009106 0.347199 17.599907 0.000000 -0.000000 0.000000
  40 -0.078894 0.399999 17.599907 0.000000 -0.000000 0.000000
  41 -0.078894 0.505599 17.599907 0.000000 -0.000000 0.000000
  42 1.820118 0.410681 2.103328 0.000000 -0.000000 0.000000
  43 2.179019 -0.247304 2.103328 0.000000 -0.000000 0.000000
  44 1.461217 -0.247304 2.103328 0.000000 -0.000000 0.000000
  45 1.820118 -0.008037 2.880947 0.000000 -0.000000 0.000000
  46 1.820118 -0.008037 1.325709 0.000000 -0.000000 0.000000
  47 0.137181 1.508129 2.305563 0.000000 -0.000000 0.000000
  48 0.496082 0.850144 2.305563 0.000000 -0.000000 0.000000
  49 -0.221720 0.850144 2.305563 0.000000 -0.000000 0.000000
  50 0.137181 1.089411 3.083182 0.000000 -0.000000 0.000000
  51 0.137181 1.089411 1.527944 0.000000 -0.000000 0.000000
  52 0.000000 -1.456596 16.065229 0.000000 -0.000000 0.000000
  53 0.651817 -2.651593 16.065229 0.000000 -0.000000 0.000000
  54 -0.651817 -2.651593 16.065229 0.000000 -0.000000 0.000000
  55 0.000000 -2.217049 17.477499 0.000000 -0.000000 0.000000
  56 0.000000 -2.217049 14.652959 0.000000 -0.000000 0.000000
end
triangles
flame2
  24 0.010347 1.836040 9.679906 -0.002008 0.980236 0.197821 0.570312 0.183594 1 24 1.000000
  1 0.009106 0.611199 17.599907 -0.000041 0.747180 0.664622 0.695312 0.183594 1 1 1.000000
  3 0.141106 0.531999 17.599907 0.629542 0.375359 0.680282 0.695312 0.011719 1 3 1.000000
flame2
  24 0.010347 1.836040 9.679906 -0.002008 0.980236 0.197821 0.570312 0.183594 1 24 1.000000
  3 0.141106 0.531999 17.599907 0.629542 0.375359 0.680282 0.695312 0.011719 1 3 1.000000
  25 1.712837 0.814547 9.679906 0.856519 0.471891 0.209033 0.570312 0.011719 1 25 1.000000
flame2
  25 1.712837 0.814547 9.679906 0.856519 0.471891 0.209033 0.570312 0.988281 1 25 1.000000
  3 0.141106 0.531999 17.599907 0.629542 0.375359 0.680282 0.695312 0.988281 1 3 1.000000
  5 0.141106 0.373599 17.599907 0.623487 -0.331191 0.708221 0.695312 0.839844 1 5 1.000000
flame2
  25 1.712837 0.814547 9.679906 0.856519 0.471891 0.209033 0.570312 0.988281 1 25 1.000000
  5 0.141106 0.373599 17.599907 0.623487 -0.331191 0.708221 0.695312 0.839844 1 5 1.000000
  26 1.712837 -1.228440 9.679906 0.835776 -0.511314 0.200090 0.570312 0.839844 1 26 1.000000
flame2
  26 1.712837 -1.228440 9.679906 0.835776 -0.511314 0.200090 0.570312 0.839844 1 26 1.000000
  5 0.141106 0.373599 17.599907 0.623487 -0.331191 0.708221 0.695312 0.839844 1 5 1.000000
  7 0.009106 0.294399 17.599907 -0.000037 -0.692349 0.721563 0.695312 0.667969 1 7 1.000000
flame2
  26 1.712837 -1.228440 9.679906 0.835776 -0.511314 0.200090 0.570312 0.839844 1 26 1.000000
  7 0.009106 0.294399 17.599907 -0.000037 -0.692349 0.721563 0.695312 0.667969 1 7 1.000000
  27 0.010347 -2.249934 9.679906 -0.001946 -0.983011 0.183539 0.570312 0.667969 1 27 1.000000
flame2
  27 0.010347 -2.249934 9.679906 -0.001946 -0.983011 0.183539 0.570312 0.667969 1 27 1.000000
  7 0.009106 0.294399 17.599907 -0.000037 -0.692349 0.721563 0.695312 0.667969 1 7 1.000000
  9 -0.122894 0.373599 17.599907 -0.623586 -0.331204 0.708127 0.695312 0.511719 1 9 1.000000
flame2
  27 0.010347 -2.249934 9.679906 -0.001946 -0.983011 0.183539 0.570312 0.667969 1 27 1.000000
  9 -0.122894 0.373599 17.599907 -0.623586 -0.331204 0.708127 0.695312 0.511719 1 9 1.000000
  28 -1.692142 -1.228440 9.679906 -0.838448 -0.510519 0.190721 0.570312 0.511719 1 28 1.000000
flame2
  28 -1.692142 -1.228440 9.679906 -0.838448 -0.510519 0.190721 0.570312 0.511719 1 28 1.000000
  9 -0.122894 0.373599 17.599907 -0.623586 -0.331204 0.708127 0.695312 0.511719 1 9 1.000000
  11 -0.122894 0.531999 17.599907 -0.629636 0.375369 0.680188 0.695312 0.339844 1 11 1.000000
flame2
  28 -1.692142 -1.228440 9.679906 -0.838448 -0.510519 0.190721 0.570312 0.511719 1 28 1.000000
  11 -0.122894 0.531999 17.599907 -0.629636 0.375369 0.680188 0.695312 0.339844 1 11 1.000000
  29 -1.692142 0.814547 9.679906 -0.859269 0.471186 0.199101 0.570312 0.339844 1 29 1.000000
flame2
  29 -1.692142 0.814547 9.679906 -0.859269 0.471186 0.199101 0.570312 0.339844 1 29 1.000000
  11 -0.122894 0.531999 17.599907 -0.629636 0.375369 0.680188 0.695312 0.339844 1 11 1.000000
  1 0.009106 0.611199 17.599907 -0.000041 0.747180 0.664622 0.695312 0.183594 1 1 1.000000
flame2
  29 -1.692142 0.814547 9.679906 -0.859269 0.471186 0.199101 0.570312 0.339844 1 29 1.000000
  1 0.009106 0.611199 17.599907 -0.000041 0.747180 0.664622 0.695312 0.183594 1 1 1.000000
  24 0.010347 1.836040 9.679906 -0.002008 0.980236 0.197821 0.570312 0.183594 1 24 1.000000
flame2
  10 -0.871293 0.435646 -0.000094 -0.530273 0.293545 -0.795388 0.148438 0.339844 1 10 1.000000
  17 -1.793054 0.775808 1.759905 -0.834267 0.430670 -0.344271 0.289062 0.339844 1 17 1.000000
  12 0.017246 1.982674 1.759905 -0.001435 0.932603 -0.360902 0.289062 0.183594 1 12 1.000000
flame2
  10 -0.871293 0.435646 -0.000094 -0.530273 0.293545 -0.795388 0.148438 0.339844 1 10 1.000000
  12 0.017246 1.982674 1.759905 -0.001435 0.932603 -0.360902 0.289062 0.183594 1 12 1.000000
  0 0.000000 1.089116 -0.000094 -0.002658 0.639079 -0.769136 0.148438 0.183594 1 0 1.000000
flame2
  8 -0.871293 -0.435646 -0.000094 -0.521865 -0.260416 -0.812306 0.148438 0.511719 1 8 1.000000
  16 -1.793054 -1.034492 1.759905 -0.821946 -0.467293 -0.325642 0.289062 0.511719 1 16 1.000000
  17 -1.793054 0.775808 1.759905 -0.834267 0.430670 -0.344271 0.289062 0.339844 1 17 1.000000
flame2
  8 -0.871293 -0.435646 -0.000094 -0.521865 -0.260416 -0.812306 0.148438 0.511719 1 8 1.000000
  17 -1.793054 0.775808 1.759905 -0.834267 0.430670 -0.344271 0.289062 0.339844 1 17 1.000000
  10 -0.871293 0.435646 -0.000094 -0.530273 0.293545 -0.795388 0.148438 0.339844 1 10 1.000000
flame2
  6 0.000000 -1.089116 -0.000094 -0.002475 -0.591968 -0.805958 0.148438 0.667969 1 6 1.000000
  15 0.017246 -2.241358 1.759905 -0.001507 -0.946858 -0.321649 0.289062 0.667969 1 15 1.000000
  16 -1.793054 -1.034492 1.759905 -0.821946 -0.467293 -0.325642 0.289062 0.511719 1 16 1.000000
flame2
  6 0.000000 -1.089116 -0.000094 -0.002475 -0.591968 -0.805958 0.148438 0.667969 1 6 1.000000
  16 -1.793054 -1.034492 1.759905 -0.821946 -0.467293 -0.325642 0.289062 0.511719 1 16 1.000000
  8 -0.871293 -0.435646 -0.000094 -0.521865 -0.260416 -0.812306 0.148438 0.511719 1 8 1.000000
flame2
  4 0.871293 -0.435646 -0.000094 0.516014 -0.259424 -0.816351 0.148438 0.839844 1 4 1.000000
  14 1.827545 -1.034492 1.759905 0.816651 -0.466092 -0.340352 0.289062 0.839844 1 14 1.000000
  15 0.017246 -2.241358 1.759905 -0.001507 -0.946858 -0.321649 0.289062 0.667969 1 15 1.000000
flame2
  4 0.871293 -0.435646 -0.000094 0.516014 -0.259424 -0.816351 0.148438 0.839844 1 4 1.000000
  15 0.017246 -2.241358 1.759905 -0.001507 -0.946858 -0.321649 0.289062 0.667969 1 15 1.000000
  6 0.000000 -1.089116 -0.000094 -0.002475 -0.591968 -0.805958 0.148438 0.667969 1 6 1.000000
flame2
  2 0.871293 0.435646 -0.000094 0.524572 0.292408 -0.799576 0.148438 0.988281 1 2 1.000000
  13 1.827545 0.775808 1.759905 0.828402 0.429257 -0.359846 0.289062 0.988281 1 13 1.000000
  14 1.827545 -1.034492 1.759905 0.816651 -0.466092 -0.340352 0.289062 0.839844 1 14 1.000000
flame2
  2 0.871293 0.435646 -0.000094 0.524572 0.292408 -0.799576 0.148438 0.988281 1 2 1.000000
  14 1.827545 -1.034492 1.759905 0.816651 -0.466092 -0.340352 0.289062 0.839844 1 14 1.000000
  4 0.871293 -0.435646 -0.000094 0.516014 -0.259424 -0.816351 0.148438 0.839844 1 4 1.000000
flame2
  0 0.000000 1.089116 -0.000094 -0.002658 0.639079 -0.769136 0.148438 0.183594 1 0 1.000000
  12 0.017246 1.982674 1.759905 -0.001435 0.932603 -0.360902 0.289062 0.183594 1 12 1.000000
  13 1.827545 0.775808 1.759905 0.828402 0.429257 -0.359846 0.289062 0.011719 1 13 1.000000
flame2
  0 0.000000 1.089116 -0.000094 -0.002658 0.639079 -0.769136 0.148438 0.183594 1 0 1.000000
  13 1.827545 0.775808 1.759905 0.828402 0.429257 -0.359846 0.289062 0.011719 1 13 1.000000
  2 0.871293 0.435646 -0.000094 0.524572 0.292408 -0.799576 0.148438 0.011719 1 2 1.000000
flame2
  17 -1.793054 0.775808 1.759905 -0.834267 0.430670 -0.344271 0.289062 0.339844 1 17 1.000000
  23 -2.426361 1.459018 5.279905 -0.860970 0.508535 -0.011093 0.429688 0.339844 1 23 1.000000
  18 0.059601 2.879568 5.279905 0.003289 0.999859 -0.016443 0.429688 0.183594 1 18 1.000000
flame2
  17 -1.793054 0.775808 1.759905 -0.834267 0.430670 -0.344271 0.289062 0.339844 1 17 1.000000
  18 0.059601 2.879568 5.279905 0.003289 0.999859 -0.016443 0.429688 0.183594 1 18 1.000000
  12 0.017246 1.982674 1.759905 -0.001435 0.932603 -0.360902 0.289062 0.183594 1 12 1.000000
flame2
  16 -1.793054 -1.034492 1.759905 -0.821946 -0.467293 -0.325642 0.289062 0.511719 1 16 1.000000
  22 -2.426361 -1.122546 5.279905 -0.881583 -0.471887 -0.011531 0.429688 0.511719 1 22 1.000000
  23 -2.426361 1.459018 5.279905 -0.860970 0.508535 -0.011093 0.429688 0.339844 1 23 1.000000
flame2
  16 -1.793054 -1.034492 1.759905 -0.821946 -0.467293 -0.325642 0.289062 0.511719 1 16 1.000000
  23 -2.426361 1.459018 5.279905 -0.860970 0.508535 -0.011093 0.429688 0.339844 1 23 1.000000
  17 -1.793054 0.775808 1.759905 -0.834267 0.430670 -0.344271 0.289062 0.339844 1 17 1.000000
flame2
  15 0.017246 -2.241358 1.759905 -0.001507 -0.946858 -0.321649 0.289062 0.667969 1 15 1.000000
  21 0.059601 -2.543096 5.279905 0.003630 -0.999805 -0.019434 0.429688 0.667969 1 21 1.000000
  22 -2.426361 -1.122546 5.279905 -0.881583 -0.471887 -0.011531 0.429688 0.511719 1 22 1.000000
flame2
  15 0.017246 -2.241358 1.759905 -0.001507 -0.946858 -0.321649 0.289062 0.667969 1 15 1.000000
  22 -2.426361 -1.122546 5.279905 -0.881583 -0.471887 -0.011531 0.429688 0.511719 1 22 1.000000
  16 -1.793054 -1.034492 1.759905 -0.821946 -0.467293 -0.325642 0.289062 0.511719 1 16 1.000000
flame2
  14 1.827545 -1.034492 1.759905 0.816651 -0.466092 -0.340352 0.289062 0.839844 1 14 1.000000
  20 2.545563 -1.122546 5.279905 0.882982 -0.469251 -0.012078 0.429688 0.839844 1 20 1.000000
  21 0.059601 -2.543096 5.279905 0.003630 -0.999805 -0.019434 0.429688 0.667969 1 21 1.000000
flame2
  14 1.827545 -1.034492 1.759905 0.816651 -0.466092 -0.340352 0.289062 0.839844 1 14 1.000000
  21 0.059601 -2.543096 5.279905 0.003630 -0.999805 -0.019434 0.429688 0.667969 1 21 1.000000
  15 0.017246 -2.241358 1.759905 -0.001507 -0.946858 -0.321649 0.289062 0.667969 1 15 1.000000
flame2
  13 1.827545 0.775808 1.759905 0.828402 0.429257 -0.359846 0.289062 0.988281 1 13 1.000000
  19 2.545563 1.459018 5.279905 0.862659 0.505653 -0.011574 0.429688 0.988281 1 19 1.000000
  20 2.545563 -1.122546 5.279905 0.882982 -0.469251 -0.012078 0.429688 0.839844 1 20 1.000000
flame2
  13 1.827545 0.775808 1.759905 0.828402 0.429257 -0.359846 0.289062 0.988281 1 13 1.000000
  20 2.545563 -1.122546 5.279905 0.882982 -0.469251 -0.012078 0.429688 0.839844 1 20 1.000000
  14 1.827545 -1.034492 1.759905 0.816651 -0.466092 -0.340352 0.289062 0.839844 1 14 1.000000
flame2
  12 0.017246 1.982674 1.759905 -0.001435 0.932603 -0.360902 0.289062 0.183594 1 12 1.000000
  18 0.059601 2.879568 5.279905 0.003289 0.999859 -0.016443 0.429688 0.183594 1 18 1.000000
  19 2.545563 1.459018 5.279905 0.862659 0.505653 -0.011574 0.429688 0.011719 1 19 1.000000
flame2
  12 0.017246 1.982674 1.759905 -0.001435 0.932603 -0.360902 0.289062 0.183594 1 12 1.000000
  19 2.545563 1.459018 5.279905 0.862659 0.505653 -0.011574 0.429688 0.011719 1 19 1.000000
  13 1.827545 0.775808 1.759905 0.828402 0.429257 -0.359846 0.289062 0.011719 1 13 1.000000
flame2
  23 -2.426361 1.459018 5.279905 -0.860970 0.508535 -0.011093 0.429688 0.339844 1 23 1.000000
  29 -1.692142 0.814547 9.679906 -0.859269 0.471186 0.199101 0.570312 0.339844 1 29 1.000000
  24 0.010347 1.836040 9.679906 -0.002008 0.980236 0.197821 0.570312 0.183594 1 24 1.000000
flame2
  23 -2.426361 1.459018 5.279905 -0.860970 0.508535 -0.011093 0.429688 0.339844 1 23 1.000000
  24 0.010347 1.836040 9.679906 -0.002008 0.980236 0.197821 0.570312 0.183594 1 24 1.000000
  18 0.059601 2.879568 5.279905 0.003289 0.999859 -0.016443 0.429688 0.183594 1 18 1.000000
flame2
  22 -2.426361 -1.122546 5.279905 -0.881583 -0.471887 -0.011531 0.429688 0.511719 1 22 1.000000
  28 -1.692142 -1.228440 9.679906 -0.838448 -0.510519 0.190721 0.570312 0.511719 1 28 1.000000
  29 -1.692142 0.814547 9.679906 -0.859269 0.471186 0.199101 0.570312 0.339844 1 29 1.000000
flame2
  22 -2.426361 -1.122546 5.279905 -0.881583 -0.471887 -0.011531 0.429688 0.511719 1 22 1.000000
  29 -1.692142 0.814547 9.679906 -0.859269 0.471186 0.199101 0.570312 0.339844 1 29 1.000000
  23 -2.426361 1.459018 5.279905 -0.860970 0.508535 -0.011093 0.429688 0.339844 1 23 1.000000
flame2
  21 0.059601 -2.543096 5.279905 0.003630 -0.999805 -0.019434 0.429688 0.667969 1 21 1.000000
  27 0.010347 -2.249934 9.679906 -0.001946 -0.983011 0.183539 0.570312 0.667969 1 27 1.000000
  28 -1.692142 -1.228440 9.679906 -0.838448 -0.510519 0.190721 0.570312 0.511719 1 28 1.000000
flame2
  21 0.059601 -2.543096 5.279905 0.003630 -0.999805 -0.019434 0.429688 0.667969 1 21 1.000000
  28 -1.692142 -1.228440 9.679906 -0.838448 -0.510519 0.190721 0.570312 0.511719 1 28 1.000000
  22 -2.426361 -1.122546 5.279905 -0.881583 -0.471887 -0.011531 0.429688 0.511719 1 22 1.000000
flame2
  20 2.545563 -1.122546 5.279905 0.882982 -0.469251 -0.012078 0.429688 0.839844 1 20 1.000000
  26 1.712837 -1.228440 9.679906 0.835776 -0.511314 0.200090 0.570312 0.839844 1 26 1.000000
  27 0.010347 -2.249934 9.679906 -0.001946 -0.983011 0.183539 0.570312 0.667969 1 27 1.000000
flame2
  20 2.545563 -1.122546 5.279905 0.882982 -0.469251 -0.012078 0.429688 0.839844 1 20 1.000000
  27 0.010347 -2.249934 9.679906 -0.001946 -0.983011 0.183539 0.570312 0.667969 1 27 1.000000
  21 0.059601 -2.543096 5.279905 0.003630 -0.999805 -0.019434 0.429688 0.667969 1 21 1.000000
flame2
  19 2.545563 1.459018 5.279905 0.862659 0.505653 -0.011574 0.429688 0.988281 1 19 1.000000
  25 1.712837 0.814547 9.679906 0.856519 0.471891 0.209033 0.570312 0.988281 1 25 1.000000
  26 1.712837 -1.228440 9.679906 0.835776 -0.511314 0.200090 0.570312 0.839844 1 26 1.000000
flame2
  19 2.545563 1.459018 5.279905 0.862659 0.505653 -0.011574 0.429688 0.988281 1 19 1.000000
  26 1.712837 -1.228440 9.679906 0.835776 -0.511314 0.200090 0.570312 0.839844 1 26 1.000000
  20 2.545563 -1.122546 5.279905 0.882982 -0.469251 -0.012078 0.429688 0.839844 1 20 1.000000
flame2
  18 0.059601 2.879568 5.279905 0.003289 0.999859 -0.016443 0.429688 0.183594 1 18 1.000000
  24 0.010347 1.836040 9.679906 -0.002008 0.980236 0.197821 0.570312 0.183594 1 24 1.000000
  25 1.712837 0.814547 9.679906 0.856519 0.471891 0.209033 0.570312 0.011719 1 25 1.000000
flame2
  18 0.059601 2.879568 5.279905 0.003289 0.999859 -0.016443 0.429688 0.183594 1 18 1.000000
  25 1.712837 0.814547 9.679906 0.856519 0.471891 0.209033 0.570312 0.011719 1 25 1.000000
  19 2.545563 1.459018 5.279905 0.862659 0.505653 -0.011574 0.429688 0.011719 1 19 1.000000
flame2
  8 -0.871293 -0.435646 -0.000094 -0.521865 -0.260416 -0.812306 0.148438 0.511719 1 8 1.000000
  10 -0.871293 0.435646 -0.000094 -0.530273 0.293545 -0.795388 0.148438 0.339844 1 10 1.000000
  35 -0.108912 0.043565 -0.000094 0.510547 -0.258853 -0.819962 0.007812 0.339844 1 35 1.000000
flame2
  8 -0.871293 -0.435646 -0.000094 -0.521865 -0.260416 -0.812306 0.148438 0.511719 1 8 1.000000
  35 -0.108912 0.043565 -0.000094 0.510547 -0.258853 -0.819962 0.007812 0.339844 1 35 1.000000
  34 -0.108912 -0.043565 -0.000094 0.499305 0.261819 -0.825921 0.007812 0.511719 1 34 1.000000
flame2
  0 0.000000 1.089116 -0.000094 -0.002658 0.639079 -0.769136 0.148438 0.183594 1 0 1.000000
  2 0.871293 0.435646 -0.000094 0.524572 0.292408 -0.799576 0.148438 0.011719 1 2 1.000000
  31 0.108912 0.043565 -0.000094 -0.510821 -0.259076 -0.819720 0.007812 0.011719 1 31 1.000000
flame2
  0 0.000000 1.089116 -0.000094 -0.002658 0.639079 -0.769136 0.148438 0.183594 1 0 1.000000
  31 0.108912 0.043565 -0.000094 -0.510821 -0.259076 -0.819720 0.007812 0.011719 1 31 1.000000
  30 0.000000 0.130694 -0.000094 0.000093 -0.504272 -0.863545 0.007812 0.183594 1 30 1.000000
flame2
  4 0.871293 -0.435646 -0.000094 0.516014 -0.259424 -0.816351 0.148438 0.839844 1 4 1.000000
  6 0.000000 -1.089116 -0.000094 -0.002475 -0.591968 -0.805958 0.148438 0.667969 1 6 1.000000
  33 0.000000 -0.130694 -0.000094 0.000087 0.485673 -0.874141 0.007812 0.667969 1 33 1.000000
flame2
  4 0.871293 -0.435646 -0.000094 0.516014 -0.259424 -0.816351 0.148438 0.839844 1 4 1.000000
  33 0.000000 -0.130694 -0.000094 0.000087 0.485673 -0.874141 0.007812 0.667969 1 33 1.000000
  32 0.108912 -0.043565 -0.000094 -0.499572 0.262044 -0.825688 0.007812 0.839844 1 32 1.000000
flame2
  10 -0.871293 0.435646 -0.000094 -0.530273 0.293545 -0.795388 0.148438 0.339844 1 10 1.000000
  0 0.000000 1.089116 -0.000094 -0.002658 0.639079 -0.769136 0.148438 0.183594 1 0 1.000000
  30 0.000000 0.130694 -0.000094 0.000093 -0.504272 -0.863545 0.007812 0.183594 1 30 1.000000
flame2
  10 -0.871293 0.435646 -0.000094 -0.530273 0.293545 -0.795388 0.148438 0.339844 1 10 1.000000
  30 0.000000 0.130694 -0.000094 0.000093 -0.504272 -0.863545 0.007812 0.183594 1 30 1.000000
  35 -0.108912 0.043565 -0.000094 0.510547 -0.258853 -0.819962 0.007812 0.339844 1 35 1.000000
flame2
  6 0.000000 -1.089116 -0.000094 -0.002475 -0.591968 -0.805958 0.148438 0.667969 1 6 1.000000
  8 -0.871293 -0.435646 -0.000094 -0.521865 -0.260416 -0.812306 0.148438 0.511719 1 8 1.000000
  34 -0.108912 -0.043565 -0.000094 0.499305 0.261819 -0.825921 0.007812 0.511719 1 34 1.000000
flame2
  6 0.000000 -1.089116 -0.000094 -0.002475 -0.591968 -0.805958 0.148438 0.667969 1 6 1.000000
  34 -0.108912 -0.043565 -0.000094 0.499305 0.261819 -0.825921 0.007812 0.511719 1 34 1.000000
  33 0.000000 -0.130694 -0.000094 0.000087 0.485673 -0.874141 0.007812 0.667969 1 33 1.000000
flame2
  2 0.871293 0.435646 -0.000094 0.524572 0.292408 -0.799576 0.148438 0.988281 1 2 1.000000
  4 0.871293 -0.435646 -0.000094 0.516014 -0.259424 -0.816351 0.148438 0.839844 1 4 1.000000
  32 0.108912 -0.043565 -0.000094 -0.499572 0.262044 -0.825688 0.007812 0.839844 1 32 1.000000
flame2
  2 0.871293 0.435646 -0.000094 0.524572 0.292408 -0.799576 0.148438 0.988281 1 2 1.000000
  32 0.108912 -0.043565 -0.000094 -0.499572 0.262044 -0.825688 0.007812 0.839844 1 32 1.000000
  31 0.108912 0.043565 -0.000094 -0.510821 -0.259076 -0.819720 0.007812 0.988281 1 31 1.000000
flame2
  3 0.141106 0.531999 17.599907 0.629542 0.375359 0.680282 0.695312 0.011719 1 3 1.000000
  1 0.009106 0.611199 17.599907 -0.000041 0.747180 0.664622 0.695312 0.183594 1 1 1.000000
  36 0.009106 0.558399 17.599907 -0.000101 -0.509857 0.860259 0.851562 0.183594 1 36 1.000000
flame2
  3 0.141106 0.531999 17.599907 0.629542 0.375359 0.680282 0.695312 0.011719 1 3 1.000000
  36 0.009106 0.558399 17.599907 -0.000101 -0.509857 0.860259 0.851562 0.183594 1 36 1.000000
  37 0.097106 0.505599 17.599907 -0.488572 -0.256273 0.834039 0.851562 0.011719 1 37 1.000000
flame2
  9 -0.122894 0.373599 17.599907 -0.623586 -0.331204 0.708127 0.695312 0.511719 1 9 1.000000
  7 0.009106 0.294399 17.599907 -0.000037 -0.692349 0.721563 0.695312 0.667969 1 7 1.000000
  39 0.009106 0.347199 17.599907 -0.000103 0.528071 0.849200 0.851562 0.667969 1 39 1.000000
flame2
  9 -0.122894 0.373599 17.599907 -0.623586 -0.331204 0.708127 0.695312 0.511719 1 9 1.000000
  39 0.009106 0.347199 17.599907 -0.000103 0.528071 0.849200 0.851562 0.667969 1 39 1.000000
  40 -0.078894 0.399999 17.599907 0.500210 0.254365 0.827701 0.851562 0.511719 1 40 1.000000
flame2
  5 0.141106 0.373599 17.599907 0.623487 -0.331191 0.708221 0.695312 0.839844 1 5 1.000000
  3 0.141106 0.531999 17.599907 0.629542 0.375359 0.680282 0.695312 0.988281 1 3 1.000000
  37 0.097106 0.505599 17.599907 -0.488572 -0.256273 0.834039 0.851562 0.988281 1 37 1.000000
flame2
  5 0.141106 0.373599 17.599907 0.623487 -0.331191 0.708221 0.695312 0.839844 1 5 1.000000
  37 0.097106 0.505599 17.599907 -0.488572 -0.256273 0.834039 0.851562 0.988281 1 37 1.000000
  38 0.097106 0.399999 17.599907 -0.499934 0.254137 0.827937 0.851562 0.839844 1 38 1.000000
flame2
  11 -0.122894 0.531999 17.599907 -0.629636 0.375369 0.680188 0.695312 0.339844 1 11 1.000000
  9 -0.122894 0.373599 17.599907 -0.623586 -0.331204 0.708127 0.695312 0.511719 1 9 1.000000
  40 -0.078894 0.399999 17.599907 0.500210 0.254365 0.827701 0.851562 0.511719 1 40 1.000000
flame2
  11 -0.122894 0.531999 17.599907 -0.629636 0.375369 0.680188 0.695312 0.339844 1 11 1.000000
  40 -0.078894 0.399999 17.599907 0.500210 0.254365 0.827701 0.851562 0.511719 1 40 1.000000
  41 -0.078894 0.505599 17.599907 0.488838 -0.256504 0.833813 0.851562 0.339844 1 41 1.000000
flame2
  7 0.009106 0.294399 17.599907 -0.000037 -0.692349 0.721563 0.695312 0.667969 1 7 1.000000
  5 0.141106 0.373599 17.599907 0.623487 -0.331191 0.708221 0.695312 0.839844 1 5 1.000000
  38 0.097106 0.399999 17.599907 -0.499934 0.254137 0.827937 0.851562 0.839844 1 38 1.000000
flame2
  7 0.009106 0.294399 17.599907 -0.000037 -0.692349 0.721563 0.695312 0.667969 1 7 1.000000
  38 0.097106 0.399999 17.599907 -0.499934 0.254137 0.827937 0.851562 0.839844 1 38 1.000000
  39 0.009106 0.347199 17.599907 -0.000103 0.528071 0.849200 0.851562 0.667969 1 39 1.000000
flame2
  1 0.009106 0.611199 17.599907 -0.000041 0.747180 0.664622 0.695312 0.183594 1 1 1.000000
  11 -0.122894 0.531999 17.599907 -0.629636 0.375369 0.680188 0.695312 0.339844 1 11 1.000000
  41 -0.078894 0.505599 17.599907 0.488838 -0.256504 0.833813 0.851562 0.339844 1 41 1.000000
flame2
  1 0.009106 0.611199 17.599907 -0.000041 0.747180 0.664622 0.695312 0.183594 1 1 1.000000
  41 -0.078894 0.505599 17.599907 0.488838 -0.256504 0.833813 0.851562 0.339844 1 41 1.000000
  36 0.009106 0.558399 17.599907 -0.000101 -0.509857 0.860259 0.851562 0.183594 1 36 1.000000
flame2
  30 0.000000 0.130694 -0.000094 0.000093 -0.504272 -0.863545 0.992188 0.183594 1 30 1.000000
  36 0.009106 0.558399 17.599907 -0.000101 -0.509857 0.860259 0.851562 0.183594 1 36 1.000000
  41 -0.078894 0.505599 17.599907 0.488838 -0.256504 0.833813 0.851562 0.339844 1 41 1.000000
flame2
  30 0.000000 0.130694 -0.000094 0.000093 -0.504272 -0.863545 0.992188 0.183594 1 30 1.000000
  41 -0.078894 0.505599 17.599907 0.488838 -0.256504 0.833813 0.851562 0.339844 1 41 1.000000
  35 -0.108912 0.043565 -0.000094 0.510547 -0.258853 -0.819962 0.992188 0.339844 1 35 1.000000
flame2
  31 0.108912 0.043565 -0.000094 -0.510821 -0.259076 -0.819720 0.992188 0.011719 1 31 1.000000
  37 0.097106 0.505599 17.599907 -0.488572 -0.256273 0.834039 0.851562 0.011719 1 37 1.000000
  36 0.009106 0.558399 17.599907 -0.000101 -0.509857 0.860259 0.851562 0.183594 1 36 1.000000
flame2
  31 0.108912 0.043565 -0.000094 -0.510821 -0.259076 -0.819720 0.992188 0.011719 1 31 1.000000
  36 0.009106 0.558399 17.599907 -0.000101 -0.509857 0.860259 0.851562 0.183594 1 36 1.000000
  30 0.000000 0.130694 -0.000094 0.000093 -0.504272 -0.863545 0.992188 0.183594 1 30 1.000000
flame2
  32 0.108912 -0.043565 -0.000094 -0.499572 0.262044 -0.825688 0.992188 0.839844 1 32 1.000000
  38 0.097106 0.399999 17.599907 -0.499934 0.254137 0.827937 0.851562 0.839844 1 38 1.000000
  37 0.097106 0.505599 17.599907 -0.488572 -0.256273 0.834039 0.851562 0.988281 1 37 1.000000
flame2
  32 0.108912 -0.043565 -0.000094 -0.499572 0.262044 -0.825688 0.992188 0.839844 1 32 1.000000
  37 0.097106 0.505599 17.599907 -0.488572 -0.256273 0.834039 0.851562 0.988281 1 37 1.000000
  31 0.108912 0.043565 -0.000094 -0.510821 -0.259076 -0.819720 0.992188 0.988281 1 31 1.000000
flame2
  33 0.000000 -0.130694 -0.000094 0.000087 0.485673 -0.874141 0.992188 0.667969 1 33 1.000000
  39 0.009106 0.347199 17.599907 -0.000103 0.528071 0.849200 0.851562 0.667969 1 39 1.000000
  38 0.097106 0.399999 17.599907 -0.499934 0.254137 0.827937 0.851562 0.839844 1 38 1.000000
flame2
  33 0.000000 -0.130694 -0.000094 0.000087 0.485673 -0.874141 0.992188 0.667969 1 33 1.000000
  38 0.097106 0.399999 17.599907 -0.499934 0.254137 0.827937 0.851562 0.839844 1 38 1.000000
  32 0.108912 -0.043565 -0.000094 -0.499572 0.262044 -0.825688 0.992188 0.839844 1 32 1.000000
flame2
  34 -0.108912 -0.043565 -0.000094 0.499305 0.261819 -0.825921 0.992188 0.511719 1 34 1.000000
  40 -0.078894 0.399999 17.599907 0.500210 0.254365 0.827701 0.851562 0.511719 1 40 1.000000
  39 0.009106 0.347199 17.599907 -0.000103 0.528071 0.849200 0.851562 0.667969 1 39 1.000000
flame2
  34 -0.108912 -0.043565 -0.000094 0.499305 0.261819 -0.825921 0.992188 0.511719 1 34 1.000000
  39 0.009106 0.347199 17.599907 -0.000103 0.528071 0.849200 0.851562 0.667969 1 39 1.000000
  33 0.000000 -0.130694 -0.000094 0.000087 0.485673 -0.874141 0.992188 0.667969 1 33 1.000000
flame2
  35 -0.108912 0.043565 -0.000094 0.510547 -0.258853 -0.819962 0.992188 0.339844 1 35 1.000000
  41 -0.078894 0.505599 17.599907 0.488838 -0.256504 0.833813 0.851562 0.339844 1 41 1.000000
  40 -0.078894 0.399999 17.599907 0.500210 0.254365 0.827701 0.851562 0.511719 1 40 1.000000
flame2
  35 -0.108912 0.043565 -0.000094 0.510547 -0.258853 -0.819962 0.992188 0.339844 1 35 1.000000
  40 -0.078894 0.399999 17.599907 0.500210 0.254365 0.827701 0.851562 0.511719 1 40 1.000000
  34 -0.108912 -0.043565 -0.000094 0.499305 0.261819 -0.825921 0.992188 0.511719 1 34 1.000000
flame2
  42 1.820118 0.410681 2.103328 -0.000000 1.000000 -0.000000 0.617188 0.675781 1 42 1.000000
  45 1.820118 -0.008037 2.880947 -0.000000 0.022929 0.999737 0.757812 0.660156 1 45 1.000000
  43 2.179019 -0.247304 2.103328 0.854740 -0.519056 -0.000000 0.617188 0.636719 1 43 1.000000
flame2
  43 2.179019 -0.247304 2.103328 0.854740 -0.519056 -0.000000 0.617188 0.714844 1 43 1.000000
  45 1.820118 -0.008037 2.880947 -0.000000 0.022929 0.999737 0.757812 0.699219 1 45 1.000000
  44 1.461217 -0.247304 2.103328 -0.854740 -0.519056 -0.000000 0.617188 0.675781 1 44 1.000000
flame2
  44 1.461217 -0.247304 2.103328 -0.854740 -0.519056 -0.000000 0.617188 0.667969 1 44 1.000000
  45 1.820118 -0.008037 2.880947 -0.000000 0.022929 0.999737 0.757812 0.691406 1 45 1.000000
  42 1.820118 0.410681 2.103328 -0.000000 1.000000 -0.000000 0.617188 0.707031 1 42 1.000000
flame2
  46 1.820118 -0.008037 1.325709 0.000000 0.022929 -0.999737 0.492188 0.699219 1 46 1.000000
  43 2.179019 -0.247304 2.103328 0.854740 -0.519056 -0.000000 0.617188 0.714844 1 43 1.000000
  44 1.461217 -0.247304 2.103328 -0.854740 -0.519056 -0.000000 0.617188 0.675781 1 44 1.000000
flame2
  42 1.820118 0.410681 2.103328 -0.000000 1.000000 -0.000000 0.617188 0.675781 1 42 1.000000
  43 2.179019 -0.247304 2.103328 0.854740 -0.519056 -0.000000 0.617188 0.636719 1 43 1.000000
  46 1.820118 -0.008037 1.325709 0.000000 0.022929 -0.999737 0.492188 0.660156 1 46 1.000000
flame2
  44 1.461217 -0.247304 2.103328 -0.854740 -0.519056 -0.000000 0.617188 0.667969 1 44 1.000000
  42 1.820118 0.410681 2.103328 -0.000000 1.000000 -0.000000 0.617188 0.707031 1 42 1.000000
  46 1.820118 -0.008037 1.325709 0.000000 0.022929 -0.999737 0.492188 0.691406 1 46 1.000000
flame2
  47 0.137181 1.508129 2.305563 0.000000 1.000000 -0.000000 0.210938 0.316406 1 47 1.000000
  50 0.137181 1.089411 3.083182 0.000000 0.022928 0.999737 0.101562 0.332031 1 50 1.000000
  48 0.496082 0.850144 2.305563 0.854740 -0.519056 -0.000000 0.210938 0.347656 1 48 1.000000
flame2
  48 0.496082 0.850144 2.305563 0.854740 -0.519056 -0.000000 0.210938 0.347656 1 48 1.000000
  50 0.137181 1.089411 3.083182 0.000000 0.022928 0.999737 0.085938 0.371094 1 50 1.000000
  49 -0.221720 0.850144 2.305563 -0.854740 -0.519056 -0.000000 0.210938 0.394531 1 49 1.000000
flame2
  49 -0.221720 0.850144 2.305563 -0.854740 -0.519056 -0.000000 0.210938 0.371094 1 49 1.000000
  50 0.137181 1.089411 3.083182 0.000000 0.022928 0.999737 0.085938 0.347656 1 50 1.000000
  47 0.137181 1.508129 2.305563 0.000000 1.000000 -0.000000 0.210938 0.332031 1 47 1.000000
flame2
  51 0.137181 1.089411 1.527944 0.000000 0.022929 -0.999737 0.351562 0.371094 1 51 1.000000
  48 0.496082 0.850144 2.305563 0.854740 -0.519056 -0.000000 0.210938 0.347656 1 48 1.000000
  49 -0.221720 0.850144 2.305563 -0.854740 -0.519056 -0.000000 0.210938 0.394531 1 49 1.000000
flame2
  47 0.137181 1.508129 2.305563 0.000000 1.000000 -0.000000 0.210938 0.316406 1 47 1.000000
  48 0.496082 0.850144 2.305563 0.854740 -0.519056 -0.000000 0.210938 0.347656 1 48 1.000000
  51 0.137181 1.089411 1.527944 0.000000 0.022929 -0.999737 0.351562 0.332031 1 51 1.000000
flame2
  49 -0.221720 0.850144 2.305563 -0.854740 -0.519056 -0.000000 0.210938 0.371094 1 49 1.000000
  47 0.137181 1.508129 2.305563 0.000000 1.000000 -0.000000 0.210938 0.332031 1 47 1.000000
  51 0.137181 1.089411 1.527944 0.000000 0.022929 -0.999737 0.351562 0.347656 1 51 1.000000
flame2
  52 0.000000 -1.456596 16.065229 0.000000 1.000000 0.000000 0.648438 0.667969 1 52 1.000000
  55 0.000000 -2.217049 17.477499 0.000000 0.022930 0.999737 0.835938 0.644531 1 55 1.000000
  53 0.651817 -2.651593 16.065229 0.854740 -0.519056 0.000000 0.648438 0.621094 1 53 1.000000
flame2
  53 0.651817 -2.651593 16.065229 0.854740 -0.519056 0.000000 0.648438 0.691406 1 53 1.000000
  55 0.000000 -2.217049 17.477499 0.000000 0.022930 0.999737 0.835938 0.667969 1 55 1.000000
  54 -0.651817 -2.651593 16.065229 -0.854740 -0.519056 0.000000 0.648438 0.644531 1 54 1.000000
flame2
  54 -0.651817 -2.651593 16.065229 -0.854740 -0.519056 0.000000 0.648438 0.667969 1 54 1.000000
  55 0.000000 -2.217049 17.477499 0.000000 0.022930 0.999737 0.835938 0.699219 1 55 1.000000
  52 0.000000 -1.456596 16.065229 0.000000 1.000000 0.000000 0.648438 0.722656 1 52 1.000000
flame2
  56 0.000000 -2.217049 14.652959 0.000000 0.022929 -0.999737 0.460938 0.667969 1 56 1.000000
  53 0.651817 -2.651593 16.065229 0.854740 -0.519056 0.000000 0.648438 0.691406 1 53 1.000000
  54 -0.651817 -2.651593 16.065229 -0.854740 -0.519056 0.000000 0.648438 0.644531 1 54 1.000000
flame2
  52 0.000000 -1.456596 16.065229 0.000000 1.000000 0.000000 0.648438 0.667969 1 52 1.000000
  53 0.651817 -2.651593 16.065229 0.854740 -0.519056 0.000000 0.648438 0.621094 1 53 1.000000
  56 0.000000 -2.217049 14.652959 0.000000 0.022929 -0.999737 0.460938 0.644531 1 56 1.000000
flame2
  54 -0.651817 -2.651593 16.065229 -0.854740 -0.519056 0.000000 0.648438 0.667969 1 54 1.000000
  52 0.000000 -1.456596 16.065229 0.000000 1.000000 0.000000 0.648438 0.722656 1 52 1.000000
  56 0.000000 -2.217049 14.652959 0.000000 0.022929 -0.999737 0.460938 0.699219 1 56 1.000000
end
