version 1
nodes
0 "v0" -1
1 "v1" -1
2 "v2" -1
3 "v3" -1
4 "v4" -1
5 "v5" -1
6 "v6" -1
7 "v7" -1
8 "v8" -1
9 "v9" -1
10 "v10" -1
11 "v11" -1
12 "v12" -1
13 "v13" -1
14 "v14" -1
15 "v15" -1
16 "v16" -1
17 "v17" -1
18 "v18" -1
19 "v19" -1
20 "v20" -1
21 "v21" -1
22 "v22" -1
23 "v23" -1
24 "v24" -1
25 "v25" -1
26 "v26" -1
27 "v27" -1
28 "v28" -1
29 "v29" -1
30 "v30" -1
31 "v31" -1
32 "v32" -1
33 "v33" -1
34 "v34" -1
35 "v35" -1
36 "v36" -1
37 "v37" -1
38 "v38" -1
39 "v39" -1
40 "v40" -1
41 "v41" -1
42 "v42" -1
43 "v43" -1
44 "v44" -1
45 "v45" -1
46 "v46" -1
47 "v47" -1
48 "v48" -1
49 "v49" -1
50 "v50" -1
51 "v51" -1
52 "v52" -1
53 "v53" -1
54 "v54" -1
55 "v55" -1
56 "v56" -1
57 "v57" -1
58 "v58" -1
59 "v59" -1
60 "v60" -1
61 "v61" -1
62 "v62" -1
63 "v63" -1
64 "v64" -1
65 "v65" -1
66 "v66" -1
67 "v67" -1
68 "v68" -1
end
skeleton
  time 0
  0 0.000000 0.636294 2.000000 0.000000 -0.000000 0.000000
  1 0.735276 -0.226376 2.000000 0.000000 -0.000000 0.000000
  2 0.000000 -1.089045 2.000000 0.000000 -0.000000 0.000000
  3 -0.735276 -0.226376 2.000000 0.000000 -0.000000 0.000000
  4 0.170032 3.299791 7.968146 0.000000 -0.000000 0.000000
  5 2.893054 0.104983 7.968146 0.000000 -0.000000 0.000000
  6 0.170032 -3.586458 9.187259 0.000000 -0.000000 0.000000
  7 -2.627689 0.104983 9.119530 0.000000 -0.000000 0.000000
  8 -0.176942 -0.628089 16.082914 0.000000 -0.000000 0.000000
  9 -0.213706 -0.584956 16.082914 0.000000 -0.000000 0.000000
  10 -0.176942 -0.541823 16.082914 0.000000 -0.000000 0.000000
  11 -0.140179 -0.584956 16.082914 0.000000 -0.000000 0.000000
  12 -1.470553 -0.226376 2.000000 0.000000 -0.000000 0.000000
  13 0.000000 1.498963 2.000000 0.000000 -0.000000 0.000000
  14 1.470553 -0.226376 2.000000 0.000000 -0.000000 0.000000
  15 0.000000 -1.951715 2.000000 0.000000 -0.000000 0.000000
  16 -3.417190 -0.550408 5.185248 0.000000 -0.000000 0.000000
  17 -0.156103 3.363332 4.000000 0.000000 -0.000000 0.000000
  18 -0.156103 -4.318080 4.914334 0.000000 -0.000000 0.000000
  19 3.179684 -0.550408 4.000000 0.000000 -0.000000 0.000000
  20 -0.176942 -0.498689 16.976931 0.000000 -0.000000 0.000000
  21 -0.103415 -0.584956 16.976931 0.000000 -0.000000 0.000000
  22 -0.176942 -0.671223 16.976931 0.000000 -0.000000 0.000000
  23 -0.250470 -0.584956 16.976931 0.000000 -0.000000 0.000000
  24 -2.915521 0.710515 11.502472 0.000000 -0.000000 0.000000
  25 -2.861005 0.093794 11.397922 0.000000 -0.000000 0.000000
  26 -2.970037 0.305283 11.978983 0.000000 -0.000000 0.000000
  27 -2.451413 0.397853 11.703358 0.000000 -0.000000 0.000000
  28 -2.994513 0.235459 4.778922 0.000000 -0.000000 0.000000
  29 -2.902882 -0.801129 4.603193 0.000000 -0.000000 0.000000
  30 -3.086143 -0.445657 5.579843 0.000000 -0.000000 0.000000
  31 -2.214438 -0.290065 5.116572 0.000000 -0.000000 0.000000
  32 -0.172663 -1.578168 6.559610 0.000000 -0.000000 0.000000
  33 -0.113322 -2.249470 6.445807 0.000000 -0.000000 0.000000
  34 -0.232004 -2.019264 7.078293 0.000000 -0.000000 0.000000
  35 0.332519 -1.918501 6.778275 0.000000 -0.000000 0.000000
  36 2.040665 -0.937388 11.535877 0.000000 -0.000000 0.000000
  37 2.125321 -1.895075 11.373524 0.000000 -0.000000 0.000000
  38 1.956009 -1.566660 12.275836 0.000000 -0.000000 0.000000
  39 2.761364 -1.422911 11.847827 0.000000 -0.000000 0.000000
  40 0.021328 -0.205622 -14.142980 0.000000 -0.000000 0.000000
  41 0.039353 1.905962 -0.557580 0.000000 -0.000000 0.000000
  42 0.039353 2.054666 2.024324 0.000000 -0.000000 0.000000
  43 1.858139 0.852981 -0.557580 0.000000 -0.000000 0.000000
  44 1.986565 0.927333 2.024324 0.000000 -0.000000 0.000000
  45 1.858139 -1.252981 -0.557580 0.000000 -0.000000 0.000000
  46 1.986565 -1.327333 2.024324 0.000000 -0.000000 0.000000
  47 0.039353 -2.305962 -0.557580 0.000000 -0.000000 0.000000
  48 0.039353 -2.454666 2.024324 0.000000 -0.000000 0.000000
  49 -1.779432 -1.252981 -0.557580 0.000000 -0.000000 0.000000
  50 -1.907858 -1.327333 2.024324 0.000000 -0.000000 0.000000
  51 -1.779432 0.852981 -0.557580 0.000000 -0.000000 0.000000
  52 -1.907858 0.927333 2.024324 0.000000 -0.000000 0.000000
  53 0.039353 2.331588 -3.257580 0.000000 -0.000000 0.000000
  54 2.225725 1.065794 -3.257580 0.000000 -0.000000 0.000000
  55 2.225725 -1.465794 -3.257580 0.000000 -0.000000 0.000000
  56 0.039353 -2.731588 -3.257580 0.000000 -0.000000 0.000000
  57 -2.147018 -1.465794 -3.257580 0.000000 -0.000000 0.000000
  58 -2.147018 1.065794 -3.257580 0.000000 -0.000000 0.000000
  59 0.039353 1.162195 -7.016099 0.000000 -0.000000 0.000000
  60 1.215795 0.481097 -7.016099 0.000000 -0.000000 0.000000
  61 1.215795 -0.881097 -7.016099 0.000000 -0.000000 0.000000
  62 0.039353 -1.562195 -7.016099 0.000000 -0.000000 0.000000
  63 -1.137088 -0.881097 -7.016099 0.000000 -0.000000 0.000000
  64 -1.137088 0.481097 -7.016099 0.000000 -0.000000 0.000000
  65 -0.789285 -0.998046 -7.017671 0.000000 -0.000000 0.000000
  66 -0.789285 0.603297 -7.017671 0.000000 -0.000000 0.000000
  67 0.812059 0.603297 -7.017671 0.000000 -0.000000 0.000000
  68 0.812059 -0.998046 -7.017671 0.000000 -0.000000 0.000000
end
triangles
flame
  22 -0.176942 -0.671223 16.976931 0.000431 -0.325510 0.945539 0.675781 0.460938 1 22 1.000000
  9 -0.213706 -0.584956 16.082914 0.999983 0.005365 0.002213 0.566406 0.351562 1 9 1.000000
  23 -0.250470 -0.584956 16.976931 -0.281311 -0.080422 0.956241 0.566406 0.460938 1 23 1.000000
flame
  11 -0.140179 -0.584956 16.082914 -0.999929 0.005469 -0.010580 0.777344 0.351562 1 11 1.000000
  2 0.000000 -1.089045 2.000000 -0.002236 0.376267 -0.926509 0.675781 0.242188 1 2 1.000000
  8 -0.176942 -0.628089 16.082914 0.003101 0.999964 0.007941 0.675781 0.351562 1 8 1.000000
flame
  10 -0.176942 -0.541823 16.082914 0.003249 -0.999830 -0.018172 0.878906 0.351562 1 10 1.000000
  1 0.735276 -0.226376 2.000000 -0.443782 -0.004487 -0.896123 0.777344 0.242188 1 1 1.000000
  11 -0.140179 -0.584956 16.082914 -0.999929 0.005469 -0.010580 0.777344 0.351562 1 11 1.000000
flame
  4 0.170032 3.299791 7.968146 0.044225 0.983859 0.173397 0.878906 0.582031 1 4 1.000000
  21 -0.103415 -0.584956 16.976931 0.270187 -0.096937 0.957916 0.777344 0.460938 1 21 1.000000
  5 2.893054 0.104983 7.968146 0.979309 0.101504 0.175074 0.777344 0.582031 1 5 1.000000
flame
  8 -0.176942 -0.628089 16.082914 0.003101 0.999964 0.007941 0.675781 0.351562 1 8 1.000000
  2 0.000000 -1.089045 2.000000 -0.002236 0.376267 -0.926509 0.675781 0.242188 1 2 1.000000
  3 -0.735276 -0.226376 2.000000 0.452224 -0.004643 -0.891892 0.566406 0.242188 1 3 1.000000
flame
  12 -1.470553 -0.226376 2.000000 -0.607871 -0.005860 -0.794015 0.988281 0.121094 1 12 1.000000
  17 -0.156103 3.363332 4.000000 -0.043536 0.947270 -0.317467 0.878906 0.011719 1 17 1.000000
  13 0.000000 1.498963 2.000000 0.029956 0.547189 -0.836473 0.878906 0.121094 1 13 1.000000
flame
  18 -0.156103 -4.318080 4.914334 -0.046812 -0.978459 -0.201064 0.675781 0.691406 1 18 1.000000
  7 -2.627689 0.104983 9.119530 -0.968002 0.095848 0.231917 0.566406 0.582031 1 7 1.000000
  16 -3.417190 -0.550408 5.185248 -0.990220 -0.059970 -0.125968 0.566406 0.691406 1 16 1.000000
flame
  15 0.000000 -1.951715 2.000000 0.014676 -0.582572 -0.812647 0.675781 0.121094 1 15 1.000000
  16 -3.417190 -0.550408 5.185248 -0.990220 -0.059970 -0.125968 0.566406 0.011719 1 16 1.000000
  12 -1.470553 -0.226376 2.000000 -0.607871 -0.005860 -0.794015 0.566406 0.121094 1 12 1.000000
flame
  5 2.893054 0.104983 7.968146 0.979309 0.101504 0.175074 0.777344 0.582031 1 5 1.000000
  22 -0.176942 -0.671223 16.976931 0.000431 -0.325510 0.945539 0.675781 0.460938 1 22 1.000000
  6 0.170032 -3.586458 9.187259 0.041724 -0.959325 0.279205 0.675781 0.582031 1 6 1.000000
flame
  23 -0.250470 -0.584956 16.976931 -0.281311 -0.080422 0.956241 0.988281 0.460938 1 23 1.000000
  10 -0.176942 -0.541823 16.082914 0.003249 -0.999830 -0.018172 0.878906 0.351562 1 10 1.000000
  20 -0.176942 -0.498689 16.976931 -0.013847 0.306002 0.951930 0.878906 0.460938 1 20 1.000000
flame
  2 0.000000 -1.089045 2.000000 -0.002236 0.376267 -0.926509 0.675781 0.242188 1 2 1.000000
  15 0.000000 -1.951715 2.000000 0.014676 -0.582572 -0.812647 0.675781 0.121094 1 15 1.000000
  12 -1.470553 -0.226376 2.000000 -0.607871 -0.005860 -0.794015 0.566406 0.121094 1 12 1.000000
flame
  1 0.735276 -0.226376 2.000000 -0.443782 -0.004487 -0.896123 0.777344 0.242188 1 1 1.000000
  15 0.000000 -1.951715 2.000000 0.014676 -0.582572 -0.812647 0.675781 0.121094 1 15 1.000000
  2 0.000000 -1.089045 2.000000 -0.002236 0.376267 -0.926509 0.675781 0.242188 1 2 1.000000
flame
  3 -0.735276 -0.226376 2.000000 0.452224 -0.004643 -0.891892 0.988281 0.242188 1 3 1.000000
  13 0.000000 1.498963 2.000000 0.029956 0.547189 -0.836473 0.878906 0.121094 1 13 1.000000
  0 0.000000 0.636294 2.000000 -0.002069 -0.361574 -0.932341 0.878906 0.242188 1 0 1.000000
flame
  4 0.170032 3.299791 7.968146 0.044225 0.983859 0.173397 0.878906 0.582031 1 4 1.000000
  17 -0.156103 3.363332 4.000000 -0.043536 0.947270 -0.317467 0.878906 0.691406 1 17 1.000000
  16 -3.417190 -0.550408 5.185248 -0.990220 -0.059970 -0.125968 0.988281 0.691406 1 16 1.000000
flame
  18 -0.156103 -4.318080 4.914334 -0.046812 -0.978459 -0.201064 0.675781 0.691406 1 18 1.000000
  6 0.170032 -3.586458 9.187259 0.041724 -0.959325 0.279205 0.675781 0.582031 1 6 1.000000
  7 -2.627689 0.104983 9.119530 -0.968002 0.095848 0.231917 0.566406 0.582031 1 7 1.000000
flame
  1 0.735276 -0.226376 2.000000 -0.443782 -0.004487 -0.896123 0.777344 0.242188 1 1 1.000000
  14 1.470553 -0.226376 2.000000 0.562586 0.008584 -0.826694 0.777344 0.121094 1 14 1.000000
  15 0.000000 -1.951715 2.000000 0.014676 -0.582572 -0.812647 0.675781 0.121094 1 15 1.000000
flame
  3 -0.735276 -0.226376 2.000000 0.452224 -0.004643 -0.891892 0.988281 0.242188 1 3 1.000000
  12 -1.470553 -0.226376 2.000000 -0.607871 -0.005860 -0.794015 0.988281 0.121094 1 12 1.000000
  13 0.000000 1.498963 2.000000 0.029956 0.547189 -0.836473 0.878906 0.121094 1 13 1.000000
flame
  19 3.179684 -0.550408 4.000000 0.949166 -0.062699 -0.308470 0.777344 0.691406 1 19 1.000000
  6 0.170032 -3.586458 9.187259 0.041724 -0.959325 0.279205 0.675781 0.582031 1 6 1.000000
  18 -0.156103 -4.318080 4.914334 -0.046812 -0.978459 -0.201064 0.675781 0.691406 1 18 1.000000
flame
  22 -0.176942 -0.671223 16.976931 0.000431 -0.325510 0.945539 0.675781 0.460938 1 22 1.000000
  8 -0.176942 -0.628089 16.082914 0.003101 0.999964 0.007941 0.675781 0.351562 1 8 1.000000
  9 -0.213706 -0.584956 16.082914 0.999983 0.005365 0.002213 0.566406 0.351562 1 9 1.000000
flame
  11 -0.140179 -0.584956 16.082914 -0.999929 0.005469 -0.010580 0.777344 0.351562 1 11 1.000000
  1 0.735276 -0.226376 2.000000 -0.443782 -0.004487 -0.896123 0.777344 0.242188 1 1 1.000000
  2 0.000000 -1.089045 2.000000 -0.002236 0.376267 -0.926509 0.675781 0.242188 1 2 1.000000
flame
  10 -0.176942 -0.541823 16.082914 0.003249 -0.999830 -0.018172 0.878906 0.351562 1 10 1.000000
  0 0.000000 0.636294 2.000000 -0.002069 -0.361574 -0.932341 0.878906 0.242188 1 0 1.000000
  1 0.735276 -0.226376 2.000000 -0.443782 -0.004487 -0.896123 0.777344 0.242188 1 1 1.000000
flame
  4 0.170032 3.299791 7.968146 0.044225 0.983859 0.173397 0.878906 0.582031 1 4 1.000000
  20 -0.176942 -0.498689 16.976931 -0.013847 0.306002 0.951930 0.878906 0.460938 1 20 1.000000
  21 -0.103415 -0.584956 16.976931 0.270187 -0.096937 0.957916 0.777344 0.460938 1 21 1.000000
flame
  12 -1.470553 -0.226376 2.000000 -0.607871 -0.005860 -0.794015 0.988281 0.121094 1 12 1.000000
  16 -3.417190 -0.550408 5.185248 -0.990220 -0.059970 -0.125968 0.988281 0.011719 1 16 1.000000
  17 -0.156103 3.363332 4.000000 -0.043536 0.947270 -0.317467 0.878906 0.011719 1 17 1.000000
flame
  15 0.000000 -1.951715 2.000000 0.014676 -0.582572 -0.812647 0.675781 0.121094 1 15 1.000000
  18 -0.156103 -4.318080 4.914334 -0.046812 -0.978459 -0.201064 0.675781 0.011719 1 18 1.000000
  16 -3.417190 -0.550408 5.185248 -0.990220 -0.059970 -0.125968 0.566406 0.011719 1 16 1.000000
flame
  5 2.893054 0.104983 7.968146 0.979309 0.101504 0.175074 0.777344 0.582031 1 5 1.000000
  21 -0.103415 -0.584956 16.976931 0.270187 -0.096937 0.957916 0.777344 0.460938 1 21 1.000000
  22 -0.176942 -0.671223 16.976931 0.000431 -0.325510 0.945539 0.675781 0.460938 1 22 1.000000
flame
  23 -0.250470 -0.584956 16.976931 -0.281311 -0.080422 0.956241 0.988281 0.460938 1 23 1.000000
  9 -0.213706 -0.584956 16.082914 0.999983 0.005365 0.002213 0.988281 0.351562 1 9 1.000000
  10 -0.176942 -0.541823 16.082914 0.003249 -0.999830 -0.018172 0.878906 0.351562 1 10 1.000000
flame
  21 -0.103415 -0.584956 16.976931 0.270187 -0.096937 0.957916 0.777344 0.460938 1 21 1.000000
  8 -0.176942 -0.628089 16.082914 0.003101 0.999964 0.007941 0.675781 0.351562 1 8 1.000000
  22 -0.176942 -0.671223 16.976931 0.000431 -0.325510 0.945539 0.675781 0.460938 1 22 1.000000
flame
  21 -0.103415 -0.584956 16.976931 0.270187 -0.096937 0.957916 0.777344 0.460938 1 21 1.000000
  11 -0.140179 -0.584956 16.082914 -0.999929 0.005469 -0.010580 0.777344 0.351562 1 11 1.000000
  8 -0.176942 -0.628089 16.082914 0.003101 0.999964 0.007941 0.675781 0.351562 1 8 1.000000
flame
  20 -0.176942 -0.498689 16.976931 -0.013847 0.306002 0.951930 0.878906 0.460938 1 20 1.000000
  11 -0.140179 -0.584956 16.082914 -0.999929 0.005469 -0.010580 0.777344 0.351562 1 11 1.000000
  21 -0.103415 -0.584956 16.976931 0.270187 -0.096937 0.957916 0.777344 0.460938 1 21 1.000000
flame
  20 -0.176942 -0.498689 16.976931 -0.013847 0.306002 0.951930 0.878906 0.460938 1 20 1.000000
  10 -0.176942 -0.541823 16.082914 0.003249 -0.999830 -0.018172 0.878906 0.351562 1 10 1.000000
  11 -0.140179 -0.584956 16.082914 -0.999929 0.005469 -0.010580 0.777344 0.351562 1 11 1.000000
flame
  20 -0.176942 -0.498689 16.976931 -0.013847 0.306002 0.951930 0.878906 0.460938 1 20 1.000000
  7 -2.627689 0.104983 9.119530 -0.968002 0.095848 0.231917 0.988281 0.582031 1 7 1.000000
  23 -0.250470 -0.584956 16.976931 -0.281311 -0.080422 0.956241 0.988281 0.460938 1 23 1.000000
flame
  20 -0.176942 -0.498689 16.976931 -0.013847 0.306002 0.951930 0.878906 0.460938 1 20 1.000000
  4 0.170032 3.299791 7.968146 0.044225 0.983859 0.173397 0.878906 0.582031 1 4 1.000000
  7 -2.627689 0.104983 9.119530 -0.968002 0.095848 0.231917 0.988281 0.582031 1 7 1.000000
flame
  6 0.170032 -3.586458 9.187259 0.041724 -0.959325 0.279205 0.675781 0.582031 1 6 1.000000
  23 -0.250470 -0.584956 16.976931 -0.281311 -0.080422 0.956241 0.566406 0.460938 1 23 1.000000
  7 -2.627689 0.104983 9.119530 -0.968002 0.095848 0.231917 0.566406 0.582031 1 7 1.000000
flame
  6 0.170032 -3.586458 9.187259 0.041724 -0.959325 0.279205 0.675781 0.582031 1 6 1.000000
  22 -0.176942 -0.671223 16.976931 0.000431 -0.325510 0.945539 0.675781 0.460938 1 22 1.000000
  23 -0.250470 -0.584956 16.976931 -0.281311 -0.080422 0.956241 0.566406 0.460938 1 23 1.000000
flame
  17 -0.156103 3.363332 4.000000 -0.043536 0.947270 -0.317467 0.878906 0.691406 1 17 1.000000
  5 2.893054 0.104983 7.968146 0.979309 0.101504 0.175074 0.777344 0.582031 1 5 1.000000
  19 3.179684 -0.550408 4.000000 0.949166 -0.062699 -0.308470 0.777344 0.691406 1 19 1.000000
flame
  17 -0.156103 3.363332 4.000000 -0.043536 0.947270 -0.317467 0.878906 0.691406 1 17 1.000000
  4 0.170032 3.299791 7.968146 0.044225 0.983859 0.173397 0.878906 0.582031 1 4 1.000000
  5 2.893054 0.104983 7.968146 0.979309 0.101504 0.175074 0.777344 0.582031 1 5 1.000000
flame
  4 0.170032 3.299791 7.968146 0.044225 0.983859 0.173397 0.878906 0.582031 1 4 1.000000
  16 -3.417190 -0.550408 5.185248 -0.990220 -0.059970 -0.125968 0.988281 0.691406 1 16 1.000000
  7 -2.627689 0.104983 9.119530 -0.968002 0.095848 0.231917 0.988281 0.582031 1 7 1.000000
flame
  19 3.179684 -0.550408 4.000000 0.949166 -0.062699 -0.308470 0.777344 0.691406 1 19 1.000000
  5 2.893054 0.104983 7.968146 0.979309 0.101504 0.175074 0.777344 0.582031 1 5 1.000000
  6 0.170032 -3.586458 9.187259 0.041724 -0.959325 0.279205 0.675781 0.582031 1 6 1.000000
flame
  13 0.000000 1.498963 2.000000 0.029956 0.547189 -0.836473 0.878906 0.121094 1 13 1.000000
  19 3.179684 -0.550408 4.000000 0.949166 -0.062699 -0.308470 0.777344 0.011719 1 19 1.000000
  14 1.470553 -0.226376 2.000000 0.562586 0.008584 -0.826694 0.777344 0.121094 1 14 1.000000
flame
  13 0.000000 1.498963 2.000000 0.029956 0.547189 -0.836473 0.878906 0.121094 1 13 1.000000
  17 -0.156103 3.363332 4.000000 -0.043536 0.947270 -0.317467 0.878906 0.011719 1 17 1.000000
  19 3.179684 -0.550408 4.000000 0.949166 -0.062699 -0.308470 0.777344 0.011719 1 19 1.000000
flame
  14 1.470553 -0.226376 2.000000 0.562586 0.008584 -0.826694 0.777344 0.121094 1 14 1.000000
  18 -0.156103 -4.318080 4.914334 -0.046812 -0.978459 -0.201064 0.675781 0.011719 1 18 1.000000
  15 0.000000 -1.951715 2.000000 0.014676 -0.582572 -0.812647 0.675781 0.121094 1 15 1.000000
flame
  14 1.470553 -0.226376 2.000000 0.562586 0.008584 -0.826694 0.777344 0.121094 1 14 1.000000
  19 3.179684 -0.550408 4.000000 0.949166 -0.062699 -0.308470 0.777344 0.011719 1 19 1.000000
  18 -0.156103 -4.318080 4.914334 -0.046812 -0.978459 -0.201064 0.675781 0.011719 1 18 1.000000
flame
  0 0.000000 0.636294 2.000000 -0.002069 -0.361574 -0.932341 0.878906 0.242188 1 0 1.000000
  14 1.470553 -0.226376 2.000000 0.562586 0.008584 -0.826694 0.777344 0.121094 1 14 1.000000
  1 0.735276 -0.226376 2.000000 -0.443782 -0.004487 -0.896123 0.777344 0.242188 1 1 1.000000
flame
  0 0.000000 0.636294 2.000000 -0.002069 -0.361574 -0.932341 0.878906 0.242188 1 0 1.000000
  13 0.000000 1.498963 2.000000 0.029956 0.547189 -0.836473 0.878906 0.121094 1 13 1.000000
  14 1.470553 -0.226376 2.000000 0.562586 0.008584 -0.826694 0.777344 0.121094 1 14 1.000000
flame
  2 0.000000 -1.089045 2.000000 -0.002236 0.376267 -0.926509 0.675781 0.242188 1 2 1.000000
  12 -1.470553 -0.226376 2.000000 -0.607871 -0.005860 -0.794015 0.566406 0.121094 1 12 1.000000
  3 -0.735276 -0.226376 2.000000 0.452224 -0.004643 -0.891892 0.566406 0.242188 1 3 1.000000
flame
  9 -0.213706 -0.584956 16.082914 0.999983 0.005365 0.002213 0.988281 0.351562 1 9 1.000000
  0 0.000000 0.636294 2.000000 -0.002069 -0.361574 -0.932341 0.878906 0.242188 1 0 1.000000
  10 -0.176942 -0.541823 16.082914 0.003249 -0.999830 -0.018172 0.878906 0.351562 1 10 1.000000
flame
  9 -0.213706 -0.584956 16.082914 0.999983 0.005365 0.002213 0.988281 0.351562 1 9 1.000000
  3 -0.735276 -0.226376 2.000000 0.452224 -0.004643 -0.891892 0.988281 0.242188 1 3 1.000000
  0 0.000000 0.636294 2.000000 -0.002069 -0.361574 -0.932341 0.878906 0.242188 1 0 1.000000
flame
  8 -0.176942 -0.628089 16.082914 0.003101 0.999964 0.007941 0.675781 0.351562 1 8 1.000000
  3 -0.735276 -0.226376 2.000000 0.452224 -0.004643 -0.891892 0.566406 0.242188 1 3 1.000000
  9 -0.213706 -0.584956 16.082914 0.999983 0.005365 0.002213 0.566406 0.351562 1 9 1.000000
flame
  24 -2.915521 0.710515 11.502472 -0.314233 0.871622 -0.376208 0.480469 0.933594 1 24 1.000000
  27 -2.451413 0.397853 11.703358 0.984808 0.059390 0.163175 0.550781 0.933594 1 27 1.000000
  25 -2.861005 0.093794 11.397922 -0.171712 -0.740687 -0.649536 0.515625 0.859375 1 25 1.000000
flame
  24 -2.915521 0.710515 11.502472 -0.314233 0.871622 -0.376208 0.515625 0.785156 1 24 1.000000
  25 -2.861005 0.093794 11.397922 -0.171712 -0.740687 -0.649536 0.480469 0.859375 1 25 1.000000
  26 -2.970037 0.305283 11.978983 -0.456757 -0.187787 0.869546 0.550781 0.859375 1 26 1.000000
flame
  25 -2.861005 0.093794 11.397922 -0.171712 -0.740687 -0.649536 0.550781 0.933594 1 25 1.000000
  27 -2.451413 0.397853 11.703358 0.984808 0.059390 0.163175 0.625000 0.933594 1 27 1.000000
  26 -2.970037 0.305283 11.978983 -0.456757 -0.187787 0.869546 0.585938 0.859375 1 26 1.000000
flame
  26 -2.970037 0.305283 11.978983 -0.456757 -0.187787 0.869546 0.625000 0.859375 1 26 1.000000
  27 -2.451413 0.397853 11.703358 0.984808 0.059390 0.163175 0.585938 0.785156 1 27 1.000000
  24 -2.915521 0.710515 11.502472 -0.314233 0.871622 -0.376208 0.550781 0.859375 1 24 1.000000
flame
  28 -2.994513 0.235459 4.778922 -0.314233 0.871622 -0.376207 0.769531 0.933594 1 28 1.000000
  31 -2.214438 -0.290065 5.116572 0.984808 0.059391 0.163176 0.847656 0.933594 1 31 1.000000
  29 -2.902882 -0.801129 4.603193 -0.171709 -0.740688 -0.649536 0.808594 0.859375 1 29 1.000000
flame
  28 -2.994513 0.235459 4.778922 -0.314233 0.871622 -0.376207 0.808594 0.785156 1 28 1.000000
  29 -2.902882 -0.801129 4.603193 -0.171709 -0.740688 -0.649536 0.769531 0.859375 1 29 1.000000
  30 -3.086143 -0.445657 5.579843 -0.456756 -0.187787 0.869546 0.847656 0.859375 1 30 1.000000
flame
  29 -2.902882 -0.801129 4.603193 -0.171709 -0.740688 -0.649536 0.847656 0.933594 1 29 1.000000
  31 -2.214438 -0.290065 5.116572 0.984808 0.059391 0.163176 0.917969 0.933594 1 31 1.000000
  30 -3.086143 -0.445657 5.579843 -0.456756 -0.187787 0.869546 0.878906 0.859375 1 30 1.000000
flame
  30 -3.086143 -0.445657 5.579843 -0.456756 -0.187787 0.869546 0.917969 0.859375 1 30 1.000000
  31 -2.214438 -0.290065 5.116572 0.984808 0.059391 0.163176 0.878906 0.785156 1 31 1.000000
  28 -2.994513 0.235459 4.778922 -0.314233 0.871622 -0.376207 0.847656 0.859375 1 28 1.000000
flame
  32 -0.172663 -1.578168 6.559610 -0.314233 0.871622 -0.376209 0.625000 0.933594 1 32 1.000000
  35 0.332519 -1.918501 6.778275 0.984808 0.059391 0.163176 0.699219 0.933594 1 35 1.000000
  33 -0.113322 -2.249470 6.445807 -0.171711 -0.740687 -0.649537 0.664062 0.859375 1 33 1.000000
flame
  32 -0.172663 -1.578168 6.559610 -0.314233 0.871622 -0.376209 0.664062 0.785156 1 32 1.000000
  33 -0.113322 -2.249470 6.445807 -0.171711 -0.740687 -0.649537 0.625000 0.859375 1 33 1.000000
  34 -0.232004 -2.019264 7.078293 -0.456756 -0.187786 0.869546 0.699219 0.859375 1 34 1.000000
flame
  33 -0.113322 -2.249470 6.445807 -0.171711 -0.740687 -0.649537 0.699219 0.933594 1 33 1.000000
  35 0.332519 -1.918501 6.778275 0.984808 0.059391 0.163176 0.769531 0.933594 1 35 1.000000
  34 -0.232004 -2.019264 7.078293 -0.456756 -0.187786 0.869546 0.734375 0.859375 1 34 1.000000
flame
  34 -0.232004 -2.019264 7.078293 -0.456756 -0.187786 0.869546 0.769531 0.859375 1 34 1.000000
  35 0.332519 -1.918501 6.778275 0.984808 0.059391 0.163176 0.734375 0.785156 1 35 1.000000
  32 -0.172663 -1.578168 6.559610 -0.314233 0.871622 -0.376209 0.699219 0.859375 1 32 1.000000
flame
  36 2.040665 -0.937388 11.535877 -0.314233 0.871622 -0.376208 0.332031 0.933594 1 36 1.000000
  39 2.761364 -1.422911 11.847827 0.984808 0.059391 0.163176 0.402344 0.933594 1 39 1.000000
  37 2.125321 -1.895075 11.373524 -0.171710 -0.740687 -0.649537 0.371094 0.859375 1 37 1.000000
flame
  36 2.040665 -0.937388 11.535877 -0.314233 0.871622 -0.376208 0.371094 0.785156 1 36 1.000000
  37 2.125321 -1.895075 11.373524 -0.171710 -0.740687 -0.649537 0.332031 0.859375 1 37 1.000000
  38 1.956009 -1.566660 12.275836 -0.456756 -0.187787 0.869546 0.402344 0.859375 1 38 1.000000
flame
  37 2.125321 -1.895075 11.373524 -0.171710 -0.740687 -0.649537 0.402344 0.933594 1 37 1.000000
  39 2.761364 -1.422911 11.847827 0.984808 0.059391 0.163176 0.480469 0.933594 1 39 1.000000
  38 1.956009 -1.566660 12.275836 -0.456756 -0.187787 0.869546 0.441406 0.859375 1 38 1.000000
flame
  38 1.956009 -1.566660 12.275836 -0.456756 -0.187787 0.869546 0.480469 0.859375 1 38 1.000000
  39 2.761364 -1.422911 11.847827 0.984808 0.059391 0.163176 0.441406 0.785156 1 39 1.000000
  36 2.040665 -0.937388 11.535877 -0.314233 0.871622 -0.376208 0.402344 0.859375 1 36 1.000000
flame
  41 0.039353 1.905962 -0.557580 -0.000002 0.998691 0.051158 0.105469 0.160156 1 41 1.000000
  44 1.986565 0.927333 2.024324 0.700450 0.403883 0.588428 0.011719 0.011719 1 44 1.000000
  43 1.858139 0.852981 -0.557580 0.865227 0.498776 0.051046 0.011719 0.160156 1 43 1.000000
flame
  47 0.039353 -2.305962 -0.557580 0.000002 -0.998691 0.051158 0.371094 0.160156 1 47 1.000000
  50 -1.907858 -1.327333 2.024324 -0.700450 -0.403883 0.588428 0.285156 0.011719 1 50 1.000000
  49 -1.779432 -1.252981 -0.557580 -0.865227 -0.498776 0.051046 0.285156 0.160156 1 49 1.000000
flame
  47 0.039353 -2.305962 -0.557580 0.000002 -0.998691 0.051158 0.371094 0.160156 1 47 1.000000
  55 2.225725 -1.465794 -3.257580 0.864272 -0.498444 -0.067726 0.464844 0.312500 1 55 1.000000
  45 1.858139 -1.252981 -0.557580 0.865228 -0.498773 0.051046 0.464844 0.160156 1 45 1.000000
flame
  49 -1.779432 -1.252981 -0.557580 -0.865227 -0.498776 0.051046 0.285156 0.160156 1 49 1.000000
  56 0.039353 -2.731588 -3.257580 -0.000012 -0.997697 -0.067830 0.371094 0.312500 1 56 1.000000
  47 0.039353 -2.305962 -0.557580 0.000002 -0.998691 0.051158 0.371094 0.160156 1 47 1.000000
flame
  41 0.039353 1.905962 -0.557580 -0.000002 0.998691 0.051158 0.105469 0.160156 1 41 1.000000
  58 -2.147018 1.065794 -3.257580 -0.864272 0.498444 -0.067726 0.199219 0.312500 1 58 1.000000
  51 -1.779432 0.852981 -0.557580 -0.865228 0.498773 0.051046 0.199219 0.160156 1 51 1.000000
flame
  53 0.039353 2.331588 -3.257580 0.000012 0.997697 -0.067830 0.105469 0.312500 1 53 1.000000
  64 -1.137088 0.481097 -7.016099 -0.602339 0.346523 -0.719104 0.199219 0.523438 1 64 1.000000
  58 -2.147018 1.065794 -3.257580 -0.864272 0.498444 -0.067726 0.199219 0.312500 1 58 1.000000
flame
  45 1.858139 -1.252981 -0.557580 0.865228 -0.498773 0.051046 0.464844 0.160156 1 45 1.000000
  54 2.225725 1.065794 -3.257580 0.864284 0.498423 -0.067726 0.554688 0.312500 1 54 1.000000
  43 1.858139 0.852981 -0.557580 0.865227 0.498776 0.051046 0.554688 0.160156 1 43 1.000000
flame
  51 -1.779432 0.852981 -0.557580 -0.865228 0.498773 0.051046 0.199219 0.160156 1 51 1.000000
  57 -2.147018 -1.465794 -3.257580 -0.864284 -0.498423 -0.067726 0.285156 0.312500 1 57 1.000000
  49 -1.779432 -1.252981 -0.557580 -0.865227 -0.498776 0.051046 0.285156 0.160156 1 49 1.000000
flame
  58 -2.147018 1.065794 -3.257580 -0.864272 0.498444 -0.067726 0.199219 0.312500 1 58 1.000000
  63 -1.137088 -0.881097 -7.016099 -0.602318 -0.346519 -0.719123 0.285156 0.523438 1 63 1.000000
  57 -2.147018 -1.465794 -3.257580 -0.864284 -0.498423 -0.067726 0.285156 0.312500 1 57 1.000000
flame
  49 -1.779432 -1.252981 -0.557580 -0.865227 -0.498776 0.051046 0.285156 0.160156 1 49 1.000000
  50 -1.907858 -1.327333 2.024324 -0.700450 -0.403883 0.588428 0.285156 0.011719 1 50 1.000000
  52 -1.907858 0.927333 2.024324 -0.700459 0.403874 0.588425 0.199219 0.011719 1 52 1.000000
flame
  55 2.225725 -1.465794 -3.257580 0.864272 -0.498444 -0.067726 0.464844 0.312500 1 55 1.000000
  60 1.215795 0.481097 -7.016099 0.602112 0.346503 -0.719303 0.554688 0.523438 1 60 1.000000
  54 2.225725 1.065794 -3.257580 0.864284 0.498423 -0.067726 0.554688 0.312500 1 54 1.000000
flame
  56 0.039353 -2.731588 -3.257580 -0.000012 -0.997697 -0.067830 0.371094 0.312500 1 56 1.000000
  61 1.215795 -0.881097 -7.016099 0.602092 -0.346506 -0.719319 0.464844 0.523438 1 61 1.000000
  55 2.225725 -1.465794 -3.257580 0.864272 -0.498444 -0.067726 0.464844 0.312500 1 55 1.000000
flame
  57 -2.147018 -1.465794 -3.257580 -0.864284 -0.498423 -0.067726 0.285156 0.312500 1 57 1.000000
  62 0.039353 -1.562195 -7.016099 0.000007 -0.694544 -0.719450 0.371094 0.523438 1 62 1.000000
  56 0.039353 -2.731588 -3.257580 -0.000012 -0.997697 -0.067830 0.371094 0.312500 1 56 1.000000
flame
  54 2.225725 1.065794 -3.257580 0.864284 0.498423 -0.067726 0.011719 0.312500 1 54 1.000000
  59 0.039353 1.162195 -7.016099 0.000011 0.694554 -0.719440 0.105469 0.523438 1 59 1.000000
  53 0.039353 2.331588 -3.257580 0.000012 0.997697 -0.067830 0.105469 0.312500 1 53 1.000000
flame
  65 -0.789285 -0.998046 -7.017671 -0.272307 -0.275310 -0.921984 0.082031 0.753906 1 65 1.000000
  66 -0.789285 0.603297 -7.017671 -0.272114 0.275773 -0.921902 0.015625 0.753906 1 66 1.000000
  40 0.021328 -0.205622 -14.142980 0.001373 -0.001137 -0.999998 0.144531 0.988281 1 40 1.000000
flame
  67 0.812059 0.603297 -7.017671 0.270697 0.273547 -0.922982 0.207031 0.753906 1 67 1.000000
  68 0.812059 -0.998046 -7.017671 0.271051 -0.273391 -0.922924 0.144531 0.753906 1 68 1.000000
  40 0.021328 -0.205622 -14.142980 0.001373 -0.001137 -0.999998 0.144531 0.988281 1 40 1.000000
flame
  65 -0.789285 -0.998046 -7.017671 -0.272307 -0.275310 -0.921984 0.082031 0.753906 1 65 1.000000
  40 0.021328 -0.205622 -14.142980 0.001373 -0.001137 -0.999998 0.144531 0.988281 1 40 1.000000
  68 0.812059 -0.998046 -7.017671 0.271051 -0.273391 -0.922924 0.144531 0.753906 1 68 1.000000
flame
  66 -0.789285 0.603297 -7.017671 -0.272114 0.275773 -0.921902 0.273438 0.753906 1 66 1.000000
  67 0.812059 0.603297 -7.017671 0.270697 0.273547 -0.922982 0.207031 0.753906 1 67 1.000000
  40 0.021328 -0.205622 -14.142980 0.001373 -0.001137 -0.999998 0.144531 0.988281 1 40 1.000000
flame
  65 -0.789285 -0.998046 -7.017671 -0.272307 -0.275310 -0.921984 0.187500 0.683594 1 65 1.000000
  68 0.812059 -0.998046 -7.017671 0.271051 -0.273391 -0.922924 0.101562 0.683594 1 68 1.000000
  62 0.039353 -1.562195 -7.016099 0.000007 -0.694544 -0.719450 0.144531 0.730469 1 62 1.000000
flame
  64 -1.137088 0.481097 -7.016099 -0.602339 0.346523 -0.719104 0.230469 0.597656 1 64 1.000000
  65 -0.789285 -0.998046 -7.017671 -0.272307 -0.275310 -0.921984 0.187500 0.683594 1 65 1.000000
  63 -1.137088 -0.881097 -7.016099 -0.602318 -0.346519 -0.719123 0.230469 0.683594 1 63 1.000000
flame
  67 0.812059 0.603297 -7.017671 0.270697 0.273547 -0.922982 0.101562 0.597656 1 67 1.000000
  66 -0.789285 0.603297 -7.017671 -0.272114 0.275773 -0.921902 0.187500 0.597656 1 66 1.000000
  59 0.039353 1.162195 -7.016099 0.000011 0.694554 -0.719440 0.144531 0.554688 1 59 1.000000
flame
  60 1.215795 0.481097 -7.016099 0.602112 0.346503 -0.719303 0.054688 0.597656 1 60 1.000000
  68 0.812059 -0.998046 -7.017671 0.271051 -0.273391 -0.922924 0.101562 0.683594 1 68 1.000000
  67 0.812059 0.603297 -7.017671 0.270697 0.273547 -0.922982 0.101562 0.597656 1 67 1.000000
flame
  62 0.039353 -1.562195 -7.016099 0.000007 -0.694544 -0.719450 0.144531 0.730469 1 62 1.000000
  68 0.812059 -0.998046 -7.017671 0.271051 -0.273391 -0.922924 0.101562 0.683594 1 68 1.000000
  61 1.215795 -0.881097 -7.016099 0.602092 -0.346506 -0.719319 0.054688 0.683594 1 61 1.000000
flame
  62 0.039353 -1.562195 -7.016099 0.000007 -0.694544 -0.719450 0.144531 0.730469 1 62 1.000000
  63 -1.137088 -0.881097 -7.016099 -0.602318 -0.346519 -0.719123 0.230469 0.683594 1 63 1.000000
  65 -0.789285 -0.998046 -7.017671 -0.272307 -0.275310 -0.921984 0.187500 0.683594 1 65 1.000000
flame
  59 0.039353 1.162195 -7.016099 0.000011 0.694554 -0.719440 0.144531 0.554688 1 59 1.000000
  66 -0.789285 0.603297 -7.017671 -0.272114 0.275773 -0.921902 0.187500 0.597656 1 66 1.000000
  64 -1.137088 0.481097 -7.016099 -0.602339 0.346523 -0.719104 0.230469 0.597656 1 64 1.000000
flame
  60 1.215795 0.481097 -7.016099 0.602112 0.346503 -0.719303 0.054688 0.597656 1 60 1.000000
  67 0.812059 0.603297 -7.017671 0.270697 0.273547 -0.922982 0.101562 0.597656 1 67 1.000000
  59 0.039353 1.162195 -7.016099 0.000011 0.694554 -0.719440 0.144531 0.554688 1 59 1.000000
flame
  48 0.039353 -2.454666 2.024324 0.000006 -0.808768 0.588128 0.410156 0.683594 1 48 1.000000
  46 1.986565 -1.327333 2.024324 0.700459 -0.403874 0.588425 0.410156 0.597656 1 46 1.000000
  50 -1.907858 -1.327333 2.024324 -0.700450 -0.403883 0.588428 0.328125 0.742188 1 50 1.000000
flame
  42 0.039353 2.054666 2.024324 -0.000006 0.808768 0.588128 0.246094 0.597656 1 42 1.000000
  52 -1.907858 0.927333 2.024324 -0.700459 0.403874 0.588425 0.246094 0.683594 1 52 1.000000
  44 1.986565 0.927333 2.024324 0.700450 0.403883 0.588428 0.328125 0.542969 1 44 1.000000
flame
  44 1.986565 0.927333 2.024324 0.700450 0.403883 0.588428 0.328125 0.542969 1 44 1.000000
  52 -1.907858 0.927333 2.024324 -0.700459 0.403874 0.588425 0.246094 0.683594 1 52 1.000000
  46 1.986565 -1.327333 2.024324 0.700459 -0.403874 0.588425 0.410156 0.597656 1 46 1.000000
flame
  52 -1.907858 0.927333 2.024324 -0.700459 0.403874 0.588425 0.246094 0.683594 1 52 1.000000
  50 -1.907858 -1.327333 2.024324 -0.700450 -0.403883 0.588428 0.328125 0.742188 1 50 1.000000
  46 1.986565 -1.327333 2.024324 0.700459 -0.403874 0.588425 0.410156 0.597656 1 46 1.000000
flame
  41 0.039353 1.905962 -0.557580 -0.000002 0.998691 0.051158 0.105469 0.160156 1 41 1.000000
  42 0.039353 2.054666 2.024324 -0.000006 0.808768 0.588128 0.105469 0.011719 1 42 1.000000
  44 1.986565 0.927333 2.024324 0.700450 0.403883 0.588428 0.011719 0.011719 1 44 1.000000
flame
  51 -1.779432 0.852981 -0.557580 -0.865228 0.498773 0.051046 0.199219 0.160156 1 51 1.000000
  42 0.039353 2.054666 2.024324 -0.000006 0.808768 0.588128 0.105469 0.011719 1 42 1.000000
  41 0.039353 1.905962 -0.557580 -0.000002 0.998691 0.051158 0.105469 0.160156 1 41 1.000000
flame
  43 1.858139 0.852981 -0.557580 0.865227 0.498776 0.051046 0.554688 0.160156 1 43 1.000000
  46 1.986565 -1.327333 2.024324 0.700459 -0.403874 0.588425 0.464844 0.011719 1 46 1.000000
  45 1.858139 -1.252981 -0.557580 0.865228 -0.498773 0.051046 0.464844 0.160156 1 45 1.000000
flame
  47 0.039353 -2.305962 -0.557580 0.000002 -0.998691 0.051158 0.371094 0.160156 1 47 1.000000
  48 0.039353 -2.454666 2.024324 0.000006 -0.808768 0.588128 0.371094 0.011719 1 48 1.000000
  50 -1.907858 -1.327333 2.024324 -0.700450 -0.403883 0.588428 0.285156 0.011719 1 50 1.000000
flame
  47 0.039353 -2.305962 -0.557580 0.000002 -0.998691 0.051158 0.371094 0.160156 1 47 1.000000
  56 0.039353 -2.731588 -3.257580 -0.000012 -0.997697 -0.067830 0.371094 0.312500 1 56 1.000000
  55 2.225725 -1.465794 -3.257580 0.864272 -0.498444 -0.067726 0.464844 0.312500 1 55 1.000000
flame
  49 -1.779432 -1.252981 -0.557580 -0.865227 -0.498776 0.051046 0.285156 0.160156 1 49 1.000000
  52 -1.907858 0.927333 2.024324 -0.700459 0.403874 0.588425 0.199219 0.011719 1 52 1.000000
  51 -1.779432 0.852981 -0.557580 -0.865228 0.498773 0.051046 0.199219 0.160156 1 51 1.000000
flame
  41 0.039353 1.905962 -0.557580 -0.000002 0.998691 0.051158 0.105469 0.160156 1 41 1.000000
  53 0.039353 2.331588 -3.257580 0.000012 0.997697 -0.067830 0.105469 0.312500 1 53 1.000000
  58 -2.147018 1.065794 -3.257580 -0.864272 0.498444 -0.067726 0.199219 0.312500 1 58 1.000000
flame
  45 1.858139 -1.252981 -0.557580 0.865228 -0.498773 0.051046 0.464844 0.160156 1 45 1.000000
  55 2.225725 -1.465794 -3.257580 0.864272 -0.498444 -0.067726 0.464844 0.312500 1 55 1.000000
  54 2.225725 1.065794 -3.257580 0.864284 0.498423 -0.067726 0.554688 0.312500 1 54 1.000000
flame
  51 -1.779432 0.852981 -0.557580 -0.865228 0.498773 0.051046 0.199219 0.160156 1 51 1.000000
  58 -2.147018 1.065794 -3.257580 -0.864272 0.498444 -0.067726 0.199219 0.312500 1 58 1.000000
  57 -2.147018 -1.465794 -3.257580 -0.864284 -0.498423 -0.067726 0.285156 0.312500 1 57 1.000000
flame
  58 -2.147018 1.065794 -3.257580 -0.864272 0.498444 -0.067726 0.199219 0.312500 1 58 1.000000
  64 -1.137088 0.481097 -7.016099 -0.602339 0.346523 -0.719104 0.199219 0.523438 1 64 1.000000
  63 -1.137088 -0.881097 -7.016099 -0.602318 -0.346519 -0.719123 0.285156 0.523438 1 63 1.000000
flame
  55 2.225725 -1.465794 -3.257580 0.864272 -0.498444 -0.067726 0.464844 0.312500 1 55 1.000000
  61 1.215795 -0.881097 -7.016099 0.602092 -0.346506 -0.719319 0.464844 0.523438 1 61 1.000000
  60 1.215795 0.481097 -7.016099 0.602112 0.346503 -0.719303 0.554688 0.523438 1 60 1.000000
flame
  57 -2.147018 -1.465794 -3.257580 -0.864284 -0.498423 -0.067726 0.285156 0.312500 1 57 1.000000
  63 -1.137088 -0.881097 -7.016099 -0.602318 -0.346519 -0.719123 0.285156 0.523438 1 63 1.000000
  62 0.039353 -1.562195 -7.016099 0.000007 -0.694544 -0.719450 0.371094 0.523438 1 62 1.000000
flame
  54 2.225725 1.065794 -3.257580 0.864284 0.498423 -0.067726 0.011719 0.312500 1 54 1.000000
  60 1.215795 0.481097 -7.016099 0.602112 0.346503 -0.719303 0.011719 0.523438 1 60 1.000000
  59 0.039353 1.162195 -7.016099 0.000011 0.694554 -0.719440 0.105469 0.523438 1 59 1.000000
flame
  64 -1.137088 0.481097 -7.016099 -0.602339 0.346523 -0.719104 0.230469 0.597656 1 64 1.000000
  66 -0.789285 0.603297 -7.017671 -0.272114 0.275773 -0.921902 0.187500 0.597656 1 66 1.000000
  65 -0.789285 -0.998046 -7.017671 -0.272307 -0.275310 -0.921984 0.187500 0.683594 1 65 1.000000
flame
  60 1.215795 0.481097 -7.016099 0.602112 0.346503 -0.719303 0.054688 0.597656 1 60 1.000000
  61 1.215795 -0.881097 -7.016099 0.602092 -0.346506 -0.719319 0.054688 0.683594 1 61 1.000000
  68 0.812059 -0.998046 -7.017671 0.271051 -0.273391 -0.922924 0.101562 0.683594 1 68 1.000000
flame
  45 1.858139 -1.252981 -0.557580 0.865228 -0.498773 0.051046 0.464844 0.160156 1 45 1.000000
  48 0.039353 -2.454666 2.024324 0.000006 -0.808768 0.588128 0.371094 0.011719 1 48 1.000000
  47 0.039353 -2.305962 -0.557580 0.000002 -0.998691 0.051158 0.371094 0.160156 1 47 1.000000
flame
  43 1.858139 0.852981 -0.557580 0.865227 0.498776 0.051046 0.011719 0.160156 1 43 1.000000
  53 0.039353 2.331588 -3.257580 0.000012 0.997697 -0.067830 0.105469 0.312500 1 53 1.000000
  41 0.039353 1.905962 -0.557580 -0.000002 0.998691 0.051158 0.105469 0.160156 1 41 1.000000
flame
  51 -1.779432 0.852981 -0.557580 -0.865228 0.498773 0.051046 0.199219 0.160156 1 51 1.000000
  52 -1.907858 0.927333 2.024324 -0.700459 0.403874 0.588425 0.199219 0.011719 1 52 1.000000
  42 0.039353 2.054666 2.024324 -0.000006 0.808768 0.588128 0.105469 0.011719 1 42 1.000000
flame
  43 1.858139 0.852981 -0.557580 0.865227 0.498776 0.051046 0.554688 0.160156 1 43 1.000000
  44 1.986565 0.927333 2.024324 0.700450 0.403883 0.588428 0.554688 0.011719 1 44 1.000000
  46 1.986565 -1.327333 2.024324 0.700459 -0.403874 0.588425 0.464844 0.011719 1 46 1.000000
flame
  45 1.858139 -1.252981 -0.557580 0.865228 -0.498773 0.051046 0.464844 0.160156 1 45 1.000000
  46 1.986565 -1.327333 2.024324 0.700459 -0.403874 0.588425 0.464844 0.011719 1 46 1.000000
  48 0.039353 -2.454666 2.024324 0.000006 -0.808768 0.588128 0.371094 0.011719 1 48 1.000000
flame
  49 -1.779432 -1.252981 -0.557580 -0.865227 -0.498776 0.051046 0.285156 0.160156 1 49 1.000000
  57 -2.147018 -1.465794 -3.257580 -0.864284 -0.498423 -0.067726 0.285156 0.312500 1 57 1.000000
  56 0.039353 -2.731588 -3.257580 -0.000012 -0.997697 -0.067830 0.371094 0.312500 1 56 1.000000
flame
  43 1.858139 0.852981 -0.557580 0.865227 0.498776 0.051046 0.011719 0.160156 1 43 1.000000
  54 2.225725 1.065794 -3.257580 0.864284 0.498423 -0.067726 0.011719 0.312500 1 54 1.000000
  53 0.039353 2.331588 -3.257580 0.000012 0.997697 -0.067830 0.105469 0.312500 1 53 1.000000
flame
  56 0.039353 -2.731588 -3.257580 -0.000012 -0.997697 -0.067830 0.371094 0.312500 1 56 1.000000
  62 0.039353 -1.562195 -7.016099 0.000007 -0.694544 -0.719450 0.371094 0.523438 1 62 1.000000
  61 1.215795 -0.881097 -7.016099 0.602092 -0.346506 -0.719319 0.464844 0.523438 1 61 1.000000
flame
  53 0.039353 2.331588 -3.257580 0.000012 0.997697 -0.067830 0.105469 0.312500 1 53 1.000000
  59 0.039353 1.162195 -7.016099 0.000011 0.694554 -0.719440 0.105469 0.523438 1 59 1.000000
  64 -1.137088 0.481097 -7.016099 -0.602339 0.346523 -0.719104 0.199219 0.523438 1 64 1.000000
end
