version 1
nodes
0 "Bone" -1
1 "Bone.002" 0
2 "Bone.003" 1
3 "Bone.006" 2
4 "Bone.007" 1
5 "Arm.L.002" 4
6 "Arm.L.005" 5
7 "Arm.L.006" 6
8 "Bone.004" 7
9 "Bone.005" 8
10 "Bone.008" 1
11 "Arm.R.002" 10
12 "Arm.R.005" 11
13 "Arm.R.006" 12
14 "ForearmIK.L" -1
15 "UpperarmIK.L" -1
16 "Bone.001" -1
17 "Leg.L.001" 16
18 "Leg.L.002" 17
19 "Leg.L.003" 18
20 "Leg.L.004" 19
21 "Leg.R.001" 16
22 "Leg.R.002" 21
23 "Leg.R.003" 22
24 "Leg.R.004" 23
25 "ShinIK.L" -1
26 "KneeIK.L" -1
27 "ForearmIK.R" -1
28 "UpperarmIK.R" -1
29 "ShinIK.R" -1
30 "KneeIK.R" -1
end
skeleton
  time 0
  0 -6.132843 -0.011674 -18.846853 -0.125232 2.993568 1.537901
  1 0.000001 7.391148 -0.000004 -0.170477 0.083873 -0.017328
  2 -0.000000 3.425921 0.000002 0.698987 0.008539 -0.029681
  3 0.000000 4.689445 0.000001 -0.198353 -0.192441 0.020826
  4 -0.000000 3.425921 0.000002 -1.261718 1.893573 0.042145
  5 0.000004 9.617205 -0.000001 -1.687732 0.093518 2.521029
  6 0.000001 9.265496 0.000006 0.005031 0.381438 0.000000
  7 -0.000004 7.076734 0.000000 1.427398 -1.784783 -1.399592
  8 0.951413 1.721433 -0.411209 0.383447 2.858993 1.159967
  9 -20.611401 12.665762 -0.038456 -0.000001 3.141593 1.287665
  10 -0.000000 3.425921 0.000002 -1.472631 -1.868680 0.001811
  11 -0.000001 9.680594 -0.000000 -0.749607 0.451828 0.043078
  12 0.000004 9.265487 0.000001 -1.508995 -0.381438 0.000001
  13 -0.000000 7.076728 -0.000001 -1.002034 1.051492 -0.387708
  14 -4.067505 14.861216 -22.304144 0.000000 -0.000000 1.570796
  15 -14.295469 -4.847698 11.487461 0.000000 -0.000000 1.570797
  16 -6.132845 -0.011675 -18.846853 -0.041518 0.567711 -1.669355
  17 0.000001 3.379474 -0.000002 0.000000 -1.310649 1.463738
  18 0.000001 4.934433 0.000001 -2.022457 -0.069020 -2.284526
  19 -0.000008 10.930445 -0.000002 1.155999 -0.063607 0.224403
  20 0.000003 15.790733 -0.000001 -1.267537 0.376986 0.268344
  21 0.013812 3.380049 0.000003 0.917253 1.029745 -0.430336
  22 0.000000 4.888664 0.000001 -1.464335 -0.471884 1.455926
  23 -0.000001 10.958048 0.000003 0.401305 -0.061238 -0.001987
  24 -0.000003 15.811123 0.000002 -0.888418 0.226726 0.336030
  25 19.335596 -1.839990 -20.811453 0.000000 -0.000000 1.570796
  26 8.056164 7.602955 -20.117994 0.000000 0.000000 -1.570796
  27 -7.479873 -13.191343 -21.991533 0.000000 -0.000000 1.570796
  28 -14.316620 -13.080976 -14.764286 0.000000 -0.000000 1.570796
  29 23.345934 -12.410225 -18.818518 0.000000 -0.000000 1.570796
  30 25.295422 -11.257744 -32.449387 0.000000 0.000000 -1.570796
  time 1
  0 -6.132845 -0.011673 4.311940 1.592262 0.108563 0.889397
  1 0.000000 7.391148 0.000000 0.277381 0.000000 0.000000
  2 -0.000000 3.425923 -0.000000 0.340412 -0.003251 -0.006818
  3 -0.000000 4.689447 -0.000001 -0.853303 0.526977 -0.387966
  4 -0.000000 3.425923 -0.000000 -1.467241 1.284281 -0.025780
  5 0.000001 9.617205 -0.000001 1.746119 -2.538641 -0.289823
  6 -0.000001 9.265501 0.000004 1.213587 0.381439 -0.000001
  7 -0.000001 7.076735 -0.000001 -0.437556 3.097820 0.007545
  8 1.176015 1.805897 0.905732 0.559581 2.810959 1.161768
  9 -20.611406 12.665762 -0.038462 -0.000001 3.141592 1.287665
  10 -0.000000 3.425923 -0.000000 -1.418417 -1.976210 0.051534
  11 0.000001 9.680597 0.000000 -2.270857 -0.025443 1.158686
  12 -0.000000 9.265488 0.000002 -1.021376 -0.381438 0.000001
  13 0.000002 7.076729 0.000001 0.149233 -3.065675 -0.005051
  14 -5.307477 -10.191478 7.096654 0.000000 -0.000000 1.570796
  15 -15.736041 2.462447 9.846846 0.000000 -0.000000 1.570797
  16 -6.132846 -0.011674 4.361635 -1.570796 -0.000000 1.570796
  17 0.000000 3.379475 -0.000000 0.000000 -1.310649 1.279100
  18 -0.000001 4.934428 -0.000000 -1.465368 0.448469 -1.801737
  19 -0.000001 10.930456 0.000005 0.840266 0.001991 0.182103
  20 -0.000000 15.790744 0.000004 -2.142156 -0.031411 -0.154798
  21 0.013764 3.378775 -0.000000 0.000000 1.308847 -1.480543
  22 -0.000000 4.888664 0.000001 -2.151658 -0.213966 1.527040
  23 -0.000004 10.958057 0.000000 0.864524 -0.059860 -0.003871
  24 0.000004 15.811137 0.000001 -1.468838 0.101556 0.127853
  25 -17.119486 -5.381955 -22.215284 0.000000 -0.000000 1.570796
  26 12.950616 -11.935229 -6.853060 0.000000 0.000000 -1.570796
  27 6.033616 -6.604185 5.624111 0.000000 -0.000000 1.570796
  28 -14.316620 -1.526653 11.487461 0.000000 -0.000000 1.570796
  29 1.803010 7.239778 -22.401857 0.000000 -0.000000 1.570796
  30 12.980513 5.567562 -6.853060 0.000000 0.000000 -1.570796
  time 2
  0 -6.308516 -0.011673 4.311940 1.573523 0.086843 0.958532
  1 0.000000 7.391150 -0.000001 0.277381 0.000000 -0.000000
  2 -0.000000 3.425922 0.000000 0.340412 -0.003251 -0.006818
  3 0.000000 4.689446 0.000000 -0.853303 0.526977 -0.387966
  4 -0.000000 3.425922 0.000000 -1.514317 1.441018 -0.098345
  5 -0.000001 9.617203 -0.000000 -1.499607 -0.515920 2.579128
  6 -0.000003 9.265495 0.000004 1.721702 0.381439 -0.000001
  7 0.000002 7.076730 -0.000003 -0.547540 2.932739 -0.116135
  8 1.176014 1.805896 0.905733 0.559581 2.810959 1.161768
  9 -20.611385 12.665756 -0.038458 -0.000000 3.141592 1.287665
  10 -0.000000 3.425922 0.000000 -1.420276 -1.962145 0.050887
  11 -0.000001 9.680597 -0.000000 -2.313838 -0.051216 1.117984
  12 -0.000001 9.265490 -0.000001 -1.139414 -0.381438 0.000001
  13 0.000002 7.076726 0.000001 0.149233 -3.065675 -0.005051
  14 -5.027399 -11.059249 9.520050 0.000000 -0.000000 1.570796
  15 -15.736041 2.462447 9.846846 0.000000 -0.000000 1.570797
  16 -6.340363 -0.011674 4.361635 -1.570796 -0.000000 1.570796
  17 0.000000 3.379475 -0.000000 0.000000 -1.310649 1.296993
  18 -0.000000 4.934431 0.000000 -1.547803 0.411127 -1.803142
  19 -0.000000 10.930454 0.000005 0.950678 -0.019338 0.199187
  20 -0.000001 15.790739 0.000005 -2.182751 -0.040482 -0.170979
  21 0.013763 3.378897 -0.000000 0.000000 1.308847 -1.462579
  22 0.000000 4.888662 0.000002 -2.138772 -0.236269 1.522785
  23 0.000001 10.958050 0.000003 0.989144 -0.059354 -0.004251
  24 0.000003 15.811122 0.000001 -1.535122 0.104536 0.124819
  25 -16.605555 -5.381956 -21.766893 0.000000 -0.000000 1.570796
  26 12.950616 -11.935229 -6.853060 0.000000 0.000000 -1.570796
  27 6.236724 -6.011144 7.284050 0.000000 -0.000000 1.570796
  28 -14.316620 -1.526653 11.487461 0.000000 -0.000000 1.570796
  29 -0.644633 7.239778 -22.401857 0.000000 -0.000000 1.570796
  30 12.980513 5.567562 -6.853060 0.000000 0.000000 -1.570796
  time 3
  0 -6.484187 -0.011673 4.311940 1.553231 0.066349 1.028364
  1 0.000000 7.391149 0.000000 0.277381 0.000000 -0.000000
  2 0.000000 3.425922 0.000000 0.340412 -0.003251 -0.006817
  3 0.000001 4.689447 -0.000001 -0.853303 0.526977 -0.387966
  4 0.000000 3.425922 0.000000 -1.713972 1.525328 -0.311781
  5 -0.000000 9.617205 -0.000001 -1.494285 -0.471274 2.421919
  6 -0.000003 9.265494 0.000006 1.882122 0.381439 -0.000001
  7 -0.000002 7.076732 -0.000003 -0.581073 2.884484 -0.193634
  8 1.176016 1.805897 0.905732 0.559581 2.810959 1.161768
  9 -20.611401 12.665756 -0.038453 -0.000001 -3.141593 1.287664
  10 0.000000 3.425922 0.000000 -1.421307 -1.954465 0.050553
  11 -0.000001 9.680595 -0.000001 -2.374410 -0.083203 1.097571
  12 -0.000000 9.265490 0.000002 -1.222201 -0.381438 0.000001
  13 -0.000001 7.076729 -0.000000 0.149233 -3.065675 -0.005051
  14 -4.327202 -11.378955 10.412880 0.000000 -0.000000 1.570796
  15 -15.736041 2.462447 9.846846 0.000000 -0.000000 1.570797
  16 -6.547878 -0.011674 4.361635 -1.570796 -0.000000 1.570796
  17 0.000000 3.379475 -0.000000 0.000000 -1.310649 1.336373
  18 -0.000001 4.934430 -0.000001 -1.707253 0.336026 -1.806118
  19 -0.000002 10.930452 0.000006 1.158383 -0.064151 0.224641
  20 0.000000 15.790736 0.000001 -2.197673 -0.043987 -0.176848
  21 0.013761 3.379168 -0.000000 0.000000 1.308847 -1.423218
  22 0.000001 4.888664 -0.000001 -2.154629 -0.277202 1.513960
  23 -0.000002 10.958045 0.000000 1.023921 -0.059204 -0.004345
  24 0.000003 15.811127 0.000001 -1.559497 0.105548 0.124782
  25 -15.364813 -5.381956 -20.684389 0.000000 -0.000000 1.570796
  26 12.950616 -11.935229 -6.853060 0.000000 0.000000 -1.570796
  27 6.439834 -5.418103 8.943988 0.000000 -0.000000 1.570796
  28 -14.316620 -1.526653 11.487461 0.000000 -0.000000 1.570796
  29 -0.994296 7.239778 -22.401857 0.000000 -0.000000 1.570796
  30 12.980513 5.567562 -6.853060 0.000000 0.000000 -1.570796
  time 4
  0 -6.659857 -0.011674 4.311940 1.531514 0.047265 1.098728
  1 0.000001 7.391149 -0.000002 0.277380 -0.000000 -0.000000
  2 0.000000 3.425922 0.000000 0.340412 -0.003251 -0.006818
  3 0.000000 4.689446 -0.000000 -0.853303 0.526977 -0.387966
  4 0.000000 3.425922 0.000000 0.782364 1.587970 2.179186
  5 0.000001 9.617206 -0.000001 -1.439873 -0.436406 2.335878
  6 0.000001 9.265495 0.000005 1.879027 0.381439 -0.000001
  7 -0.000002 7.076733 -0.000002 -0.580971 2.871260 -0.221008
  8 1.176015 1.805897 0.905733 0.559581 2.810959 1.161768
  9 -20.611404 12.665760 -0.038455 -0.000001 -3.141593 1.287664
  10 0.000000 3.425922 0.000000 -1.421714 -1.951464 0.050427
  11 -0.000000 9.680595 0.000000 -2.453036 -0.117268 1.097385
  12 -0.000001 9.265490 -0.000001 -1.268926 -0.381438 0.000001
  13 0.000001 7.076732 0.000002 0.149233 -3.065675 -0.005051
  14 -3.416946 -11.424626 10.540428 0.000000 -0.000000 1.570796
  15 -15.736041 2.462447 9.846846 0.000000 -0.000000 1.570797
  16 -6.755394 -0.011674 4.361635 -1.570796 -0.000000 1.570796
  17 0.000000 3.379475 -0.000000 0.000000 -1.310649 1.375747
  18 0.000000 4.934430 -0.000003 -1.757907 0.274133 -1.813585
  19 -0.000000 10.930449 0.000004 1.148978 -0.062011 0.223691
  20 -0.000001 15.790734 -0.000000 -2.199802 -0.044496 -0.177682
  21 0.013760 3.379438 -0.000000 0.000000 1.308847 -1.383866
  22 -0.000000 4.888664 -0.000001 -2.175965 -0.317877 1.505367
  23 -0.000002 10.958055 0.000001 1.044311 -0.059116 -0.004399
  24 0.000008 15.811124 0.000003 -1.562952 0.105676 0.125332
  25 -14.124070 -5.381956 -21.132776 0.000000 -0.000000 1.570796
  26 12.950616 -11.935229 -6.853060 0.000000 0.000000 -1.570796
  27 6.642942 -4.825061 10.603926 0.000000 -0.000000 1.570796
  28 -14.316620 -1.526653 11.487461 0.000000 -0.000000 1.570796
  29 -0.994296 7.239778 -22.401857 0.000000 -0.000000 1.570796
  30 12.980513 5.567562 -6.853060 0.000000 0.000000 -1.570796
  time 5
  0 -6.835528 -0.011674 4.311940 1.508524 0.029757 1.169440
  1 -0.000000 7.391149 0.000000 0.277381 0.000000 -0.000000
  2 0.000000 3.425922 0.000000 0.340412 -0.003251 -0.006818
  3 -0.000000 4.689447 -0.000000 -0.853303 0.526977 -0.387966
  4 0.000000 3.425922 0.000000 0.766391 1.587783 2.163163
  5 -0.000000 9.617206 -0.000001 -1.352597 -0.379797 2.323838
  6 -0.000002 9.265492 0.000006 1.840952 0.381440 -0.000001
  7 -0.000001 7.076729 -0.000002 -0.563913 2.834944 -0.214100
  8 1.176012 1.805897 0.905734 0.559581 2.810959 1.161768
  9 -20.611387 12.665753 -0.038457 -0.000001 -3.141593 1.287664
  10 0.000000 3.425922 0.000000 -1.421718 -1.951435 0.050426
  11 0.000000 9.680593 0.000001 -2.549994 -0.148997 1.116167
  12 -0.000001 9.265489 0.000002 -1.276642 -0.381438 0.000001
  13 0.000001 7.076727 0.000000 0.149233 -3.065675 -0.005051
  14 -2.506691 -10.711984 10.517904 0.000000 -0.000000 1.570796
  15 -15.736041 2.462447 9.846846 0.000000 -0.000000 1.570797
  16 -6.962910 -0.011674 4.361635 -1.570796 -0.000000 1.570796
  17 0.000000 3.379475 -0.000000 0.000000 -1.310649 1.393635
  18 -0.000001 4.934429 -0.000001 -1.871362 0.215868 -1.823947
  19 -0.000002 10.930454 0.000005 1.106538 -0.052471 0.219157
  20 -0.000004 15.790737 0.000003 -2.011076 -0.007162 -0.101251
  21 0.013759 3.379562 -0.000000 0.000000 1.308847 -1.365979
  22 -0.000000 4.888663 0.000001 -2.187376 -0.336252 1.501534
  23 -0.000004 10.958048 0.000003 1.048765 -0.059096 -0.004410
  24 0.000010 15.811126 0.000003 -1.543104 0.104845 0.126141
  25 -11.128653 -5.381956 -22.215284 0.000000 -0.000000 1.570796
  26 12.950616 -11.935229 -6.853060 0.000000 0.000000 -1.570796
  27 6.846051 -4.232022 12.263865 0.000000 -0.000000 1.570796
  28 -14.316620 -1.526653 11.487461 0.000000 -0.000000 1.570796
  29 -0.994296 7.239778 -22.401857 0.000000 -0.000000 1.570796
  30 12.980513 5.567562 -6.853060 0.000000 0.000000 -1.570796
  time 6
  0 -7.011199 -0.011674 4.311940 1.484436 0.013965 1.240298
  1 -0.000001 7.391150 0.000001 0.277381 0.000000 0.000000
  2 -0.000000 3.425922 -0.000000 0.340412 -0.003251 -0.006818
  3 0.000000 4.689446 0.000000 -0.778312 0.378890 -0.389274
  4 -0.000000 3.425922 -0.000000 -1.943028 1.543641 -0.544046
  5 -0.000000 9.617206 -0.000001 -1.265744 -0.305622 2.372920
  6 -0.000001 9.265495 0.000006 1.781837 0.381438 -0.000001
  7 -0.000002 7.076733 -0.000000 -0.532363 2.786899 -0.184529
  8 1.176013 1.805897 0.905733 0.559581 2.810959 1.161768
  9 -20.611401 12.665757 -0.038455 -0.000001 3.141593 1.287664
  10 -0.000000 3.425922 -0.000000 -1.421550 -1.952669 0.050477
  11 -0.000001 9.680595 -0.000001 -2.665175 -0.174459 1.151239
  12 -0.000000 9.265487 0.000003 -1.240311 -0.381438 0.000001
  13 0.000002 7.076728 0.000000 0.149233 -3.065675 -0.005052
  14 -1.806494 -9.388504 10.360241 0.000000 -0.000000 1.570796
  15 -15.736041 2.462447 9.846846 0.000000 -0.000000 1.570797
  16 -7.170426 -0.011674 4.361635 -1.570796 -0.000000 1.570796
  17 0.000000 3.379475 -0.000000 0.000000 -1.310649 1.390929
  18 -0.000000 4.934430 -0.000000 -1.884301 0.214371 -1.821010
  19 -0.000002 10.930455 0.000006 1.113534 -0.054030 0.219932
  20 0.000003 15.790737 0.000001 -2.015937 -0.007773 -0.103143
  21 0.013760 3.379545 -0.000000 0.000000 1.308847 -1.368685
  22 0.000001 4.888663 0.000003 -2.189617 -0.333058 1.502244
  23 -0.000002 10.958049 0.000002 1.038454 -0.059142 -0.004384
  24 0.000011 15.811127 0.000004 -1.523255 0.103997 0.126933
  25 -11.128653 -5.381956 -22.215284 0.000000 -0.000000 1.570796
  26 12.950616 -11.935229 -6.853060 0.000000 0.000000 -1.570796
  27 7.049160 -3.638980 13.923802 0.000000 -0.000000 1.570796
  28 -14.316620 -1.526653 11.487461 0.000000 -0.000000 1.570796
  29 -0.994296 7.239778 -22.401857 0.000000 -0.000000 1.570796
  30 12.980513 5.567562 -6.853060 0.000000 0.000000 -1.570796
  time 7
  0 -7.186869 -0.011674 4.311940 1.459445 -0.000000 1.311087
  1 0.000002 7.391148 -0.000000 0.277381 -0.000000 -0.000000
  2 -0.000000 3.425922 0.000000 0.340412 -0.003251 -0.006818
  3 -0.000000 4.689448 0.000000 -0.706615 0.231435 -0.401857
  4 -0.000000 3.425922 0.000000 -1.812623 1.535813 -0.412230
  5 -0.000000 9.617206 0.000000 -1.245656 -0.242157 2.387167
  6 -0.000001 9.265492 0.000002 1.720664 0.381438 -0.000001
  7 -0.000002 7.076732 -0.000002 -0.525707 2.758254 -0.140362
  8 1.176013 1.805896 0.905734 0.559581 2.810959 1.161768
  9 -20.611393 12.665754 -0.038456 -0.000000 3.141592 1.287665
  10 -0.000000 3.425922 0.000000 -1.421443 -1.953460 0.050510
  11 -0.000001 9.680595 0.000001 -2.798685 -0.191038 1.199040
  12 -0.000001 9.265490 0.000001 -1.152082 -0.381438 0.000001
  13 0.000002 7.076730 0.000002 0.149233 -3.065675 -0.005051
  14 -1.526415 -8.675861 9.932297 0.000000 -0.000000 1.570796
  15 -15.736041 2.462447 9.846846 0.000000 -0.000000 1.570797
  16 -7.186870 -0.011674 4.361635 -1.570796 -0.000000 1.570796
  17 0.000000 3.379475 -0.000000 0.000000 -1.310649 1.371986
  18 -0.000001 4.934430 -0.000002 -1.897483 0.231883 -1.817085
  19 -0.000002 10.930454 0.000005 1.126418 -0.056915 0.221331
  20 -0.000002 15.790742 0.000001 -2.028080 -0.009410 -0.107846
  21 0.013763 3.379414 -0.000000 0.000000 1.308847 -1.387630
  22 0.000001 4.888664 0.000002 -2.181502 -0.313225 1.506449
  23 -0.000003 10.958049 0.000003 1.024312 -0.059203 -0.004347
  24 0.000012 15.811127 0.000006 -1.503408 0.103134 0.127708
  25 -11.128653 -5.381956 -22.215284 0.000000 -0.000000 1.570796
  26 12.950616 -11.935229 -6.853060 0.000000 0.000000 -1.570796
  27 7.252270 -3.045939 15.583740 0.000000 -0.000000 1.570796
  28 -14.316620 -1.526653 11.487461 0.000000 -0.000000 1.570796
  29 -0.994296 7.239778 -22.401857 0.000000 -0.000000 1.570796
  30 12.980513 5.567562 -6.853060 0.000000 0.000000 -1.570796
  time 8
  0 -7.803014 -0.011674 4.311940 1.459445 -0.000000 1.172354
  1 0.000000 7.391148 -0.000000 0.277381 -0.000000 -0.000000
  2 0.000000 3.425921 0.000000 0.340412 -0.003251 -0.006818
  3 0.000000 4.689448 -0.000001 -0.635800 0.087339 -0.424275
  4 0.000000 3.425921 0.000000 -1.600846 1.251686 -0.251493
  5 0.000000 9.617204 -0.000001 -0.897244 -0.387569 2.578994
  6 -0.000002 9.265495 0.000003 1.005003 0.381438 -0.000001
  7 -0.000001 7.076735 0.000001 -0.734184 2.887400 -0.161306
  8 1.176013 1.805897 0.905734 0.559581 2.810959 1.161768
  9 -20.611403 12.665764 -0.038451 -0.000001 3.141592 1.287665
  10 0.000000 3.425921 0.000000 -1.311835 -1.972405 -0.151057
  11 -0.000001 9.680594 0.000000 -2.575314 -0.148442 1.057596
  12 -0.000000 9.265490 0.000000 -1.070906 -0.381438 0.000001
  13 0.000001 7.076734 0.000001 0.149233 -3.065675 -0.005051
  14 -2.199558 -8.675861 9.372400 0.000000 -0.000000 1.570796
  15 -15.736041 2.462447 9.846846 0.000000 -0.000000 1.570797
  16 -7.803016 -0.011674 4.361635 -1.570796 -0.000000 1.570796
  17 0.000000 3.379475 -0.000000 -0.035833 -1.305281 1.340488
  18 -0.000000 4.934429 -0.000003 -1.936543 0.294900 -1.805022
  19 -0.000003 10.930449 0.000004 1.170465 -0.066913 0.225833
  20 0.000001 15.790736 -0.000001 -2.043850 -0.011773 -0.113899
  21 0.013736 3.378960 0.000057 0.025401 1.300430 -1.429223
  22 -0.000001 4.888664 0.000001 -2.150290 -0.241359 1.512868
  23 -0.000001 10.958049 0.000004 0.945592 -0.059536 -0.004125
  24 0.000004 15.811121 0.000003 -1.483568 0.102256 0.128465
  25 -11.617103 -5.381956 -22.215284 0.000000 -0.000000 1.570796
  26 12.950616 -11.935229 -6.853060 0.000000 0.000000 -1.570796
  27 4.850318 -5.611939 12.519127 0.000000 -0.000000 1.570796
  28 -14.316620 -1.526653 11.487461 0.000000 -0.000000 1.570796
  29 -0.994296 7.239778 -22.401857 0.000000 -0.000000 1.570796
  30 12.980513 5.567562 -6.853060 0.000000 0.000000 -1.570796
  time 9
  0 -7.803014 -0.011674 4.311940 1.459445 -0.000000 1.172354
  1 0.000000 7.391148 -0.000000 0.277381 -0.000000 -0.000000
  2 0.000000 3.425921 0.000000 0.340412 -0.003251 -0.006818
  3 0.000000 4.689448 -0.000001 -0.634721 0.266179 -0.420789
  4 0.000000 3.425921 0.000000 -1.594713 1.212225 -0.252574
  5 -0.000000 9.617207 0.000001 -0.768779 -0.438092 2.561399
  6 -0.000002 9.265501 0.000003 0.847614 0.381437 -0.000001
  7 -0.000001 7.076739 -0.000001 -0.759928 2.821622 -0.139842
  8 1.176014 1.805899 0.905733 0.559581 2.810959 1.161768
  9 -20.611422 12.665755 -0.038458 -0.000000 3.141592 1.287665
  10 0.000000 3.425921 0.000000 -1.297829 -1.975689 -0.177902
  11 -0.000001 9.680594 0.000001 -2.509188 -0.151436 1.191200
  12 -0.000001 9.265489 0.000001 -1.243833 -0.381438 0.000001
  13 0.000001 7.076730 0.000001 0.149234 -3.065675 -0.005052
  14 -1.526415 -8.675861 9.932297 0.000000 -0.000000 1.570796
  15 -15.736041 2.462447 9.846846 0.000000 -0.000000 1.570797
  16 -7.044578 -0.011674 4.361635 -1.570796 -0.000000 1.570796
  17 0.000000 3.379475 -0.000000 0.000000 -1.310649 1.371986
  18 -0.000000 4.934430 -0.000002 -1.889873 0.234640 -1.818768
  19 -0.000002 10.930453 0.000005 1.122923 -0.056131 0.220955
  20 0.000001 15.790738 0.000002 -2.059591 -0.014504 -0.119855
  21 0.013763 3.379414 -0.000000 0.000000 1.308847 -1.387630
  22 -0.000000 4.888664 0.000000 -2.179248 -0.313466 1.506373
  23 -0.000002 10.958045 0.000005 1.030187 -0.059177 -0.004362
  24 0.000010 15.811124 0.000005 -1.515713 0.103752 0.127246
  25 -11.128653 -5.381956 -22.215284 0.000000 -0.000000 1.570796
  26 12.950616 -11.935229 -6.853060 0.000000 0.000000 -1.570796
  27 6.341866 -3.963049 12.879395 0.000000 -0.000000 1.570796
  28 -14.316620 -1.526653 11.487461 0.000000 -0.000000 1.570796
  29 -0.994296 7.239778 -22.401857 0.000000 -0.000000 1.570796
  30 12.980513 5.567562 -6.853060 0.000000 0.000000 -1.570796
  time 10
  0 -6.967930 -0.011674 4.311940 1.457878 -0.000436 1.071095
  1 -0.000000 7.391148 -0.000000 0.277381 -0.000000 0.000000
  2 -0.000000 3.425922 0.000000 0.340412 -0.003251 -0.006818
  3 -0.000000 4.689446 0.000000 -0.632843 0.447911 -0.416780
  4 -0.000000 3.425922 0.000000 -1.598745 1.238575 -0.251784
  5 0.000000 9.617206 -0.000000 -1.057182 -0.429049 2.646724
  6 -0.000004 9.265495 0.000004 1.179867 0.381438 -0.000001
  7 -0.000000 7.076735 0.000001 -0.728311 2.935237 0.080903
  8 1.176014 1.805898 0.905733 0.559581 2.810959 1.161768
  9 -20.611404 12.665763 -0.038468 -0.000000 3.141592 1.287665
  10 -0.000000 3.425922 0.000000 -1.307150 -1.973479 -0.160004
  11 -0.000001 9.680594 0.000000 -2.290243 -0.070192 1.124278
  12 -0.000002 9.265484 0.000003 -1.630195 -0.381438 0.000001
  13 0.000000 7.076727 0.000001 0.149233 -3.065675 -0.005051
  14 -3.416946 -9.433669 9.352341 0.000000 -0.000000 1.570796
  15 -15.736041 2.462447 9.846846 0.000000 -0.000000 1.570797
  16 -6.588712 -0.011674 4.361635 -1.570796 -0.000000 1.570796
  17 0.000000 3.379475 -0.000000 0.000000 -1.310649 1.341051
  18 -0.000000 4.934431 -0.000001 -1.885175 0.273152 -1.818602
  19 -0.000003 10.930450 0.000004 1.130994 -0.057944 0.221819
  20 0.000000 15.790735 -0.000000 -2.071660 -0.017160 -0.124296
  21 0.013769 3.379200 -0.000000 0.000000 1.308847 -1.418575
  22 -0.000001 4.888664 -0.000001 -2.157486 -0.281964 1.512955
  23 -0.000000 10.958047 0.000002 1.025768 -0.059196 -0.004351
  24 0.000003 15.811133 0.000000 -1.547873 0.105208 0.125979
  25 -11.128653 -5.381956 -22.215284 0.000000 -0.000000 1.570796
  26 12.950616 -11.935229 -6.853060 0.000000 0.000000 -1.570796
  27 5.446260 -3.501351 12.329136 0.000000 -0.000000 1.570796
  28 -14.316620 -1.526653 11.487461 0.000000 -0.000000 1.570796
  29 -0.994296 7.239778 -22.401857 0.000000 -0.000000 1.570796
  30 12.980513 5.567562 -6.853060 0.000000 0.000000 -1.570796
end
