version 1
nodes
0 "Bone" -1
1 "Bone.002" 0
2 "Bone.003" 1
3 "Bone.006" 2
4 "Bone.007" 1
5 "Arm.L.002" 4
6 "Arm.L.005" 5
7 "Arm.L.006" 6
8 "Bone.004" 7
9 "Bone.005" 8
10 "Bone.008" 1
11 "Arm.R.002" 10
12 "Arm.R.005" 11
13 "Arm.R.006" 12
14 "ForearmIK.L" -1
15 "UpperarmIK.L" -1
16 "Bone.001" -1
17 "Leg.L.001" 16
18 "Leg.L.002" 17
19 "Leg.L.003" 18
20 "Leg.L.004" 19
21 "Leg.R.001" 16
22 "Leg.R.002" 21
23 "Leg.R.003" 22
24 "Leg.R.004" 23
25 "ShinIK.L" -1
26 "KneeIK.L" -1
27 "ForearmIK.R" -1
28 "UpperarmIK.R" -1
29 "ShinIK.R" -1
30 "KneeIK.R" -1
end
skeleton
  time 0
  0 -6.132846 -0.011674 3.333318 2.117706 -0.000000 1.570796
  1 0.000000 7.391148 0.000000 0.355055 -0.058016 -0.095539
  2 0.000001 3.425923 0.000000 0.340412 -0.003251 -0.006818
  3 0.000000 4.689447 0.000001 -0.737043 0.005341 0.005341
  4 0.000001 3.425923 0.000000 -1.043440 1.698820 0.307216
  5 0.000001 9.617204 0.000000 1.752058 -2.294464 -0.320543
  6 0.000001 9.265493 0.000005 1.456973 0.381438 -0.000001
  7 -0.000002 7.076735 -0.000001 -0.025304 -3.060800 0.170691
  8 0.697896 1.397511 0.871046 -2.289343 0.264215 -1.886965
  9 -20.611399 12.665766 -0.038471 -0.000000 3.141593 1.287664
  10 0.000001 3.425923 0.000000 0.096206 -1.581925 -1.557999
  11 0.000000 9.680593 0.000001 -1.920145 -0.708976 0.695796
  12 0.000001 9.265484 0.000001 -1.477218 -0.381438 0.000000
  13 0.000001 7.076727 0.000000 -0.569312 3.088946 -0.332183
  14 5.459206 -4.702168 2.111794 0.000000 -0.000000 1.570796
  15 -14.295470 -10.260612 11.487461 0.000000 -0.000000 1.570797
  16 -6.132846 -0.011674 3.704027 -1.570796 -0.000000 1.570796
  17 0.000000 3.379475 -0.000000 0.000000 -1.310649 1.212960
  18 0.000001 4.934430 -0.000001 -1.729277 0.237749 -1.443159
  19 -0.000005 10.930448 0.000000 1.210627 -0.076196 0.229553
  20 -0.000001 15.790732 0.000001 -2.219003 -0.008932 -0.169664
  21 0.013618 3.378328 -0.000000 0.000000 1.308847 -1.546682
  22 -0.000001 4.888662 -0.000002 -2.313001 -0.148772 1.544840
  23 -0.000001 10.958050 -0.000004 1.599193 -0.056419 -0.005086
  24 -0.000001 15.811128 -0.000003 -1.641443 0.137696 0.195352
  25 -12.423109 -5.381955 -22.416792 0.000000 -0.000000 1.570796
  26 12.950615 -3.810265 -6.853060 0.000000 0.000000 -1.570796
  27 5.174633 5.958677 0.525040 0.000000 -0.000000 1.570796
  28 -14.316620 3.747513 11.487461 0.000000 -0.000000 1.570796
  29 -5.703285 6.396004 -18.709166 0.000000 -0.000000 1.570796
  30 12.980513 5.176490 -6.853060 0.000000 0.000000 -1.570796
  time 1
  0 -6.127154 -0.011674 4.090107 1.628554 0.003269 1.423688
  1 -0.000000 7.391149 -0.000000 0.277381 0.000000 -0.000000
  2 0.000000 3.425922 0.000000 0.340412 -0.003251 -0.006818
  3 -0.000000 4.689448 -0.000001 -0.737043 0.005341 0.005341
  4 0.000000 3.425922 0.000000 -1.213551 1.692469 0.145750
  5 0.000001 9.617206 0.000000 1.490279 -2.538255 -0.309316
  6 -0.000001 9.265493 0.000010 1.488168 0.381438 -0.000001
  7 -0.000003 7.076732 -0.000003 -0.177263 -2.988136 0.183553
  8 1.099471 1.686357 0.951150 -2.289342 0.264215 -1.886966
  9 -20.611387 12.665767 -0.038483 0.000000 -3.141593 1.287664
  10 0.000000 3.425922 0.000000 -1.453492 -1.570796 0.000000
  11 -0.000000 9.680595 0.000000 -1.714218 -0.801627 0.301764
  12 -0.000000 9.265488 0.000001 -1.440470 -0.381438 0.000001
  13 -0.000001 7.076728 0.000001 -0.049826 2.120855 0.003515
  14 2.385779 -8.078235 6.299465 -0.122349 0.000000 1.570796
  15 -14.975867 -7.969013 9.748038 -0.122349 0.000000 1.570796
  16 -6.132846 -0.011674 4.311940 -1.570796 -0.000000 1.570796
  17 0.000000 3.379474 -0.000000 0.000000 -1.310649 1.433142
  18 0.000000 4.934429 -0.000000 -2.103953 0.058832 -1.576514
  19 -0.000000 10.930449 -0.000001 1.122759 -0.056093 0.220938
  20 -0.000004 15.790732 0.000000 -1.746275 -0.001002 -0.113006
  21 0.013817 3.379838 -0.000000 0.000000 1.308847 -1.326501
  22 -0.000000 4.888663 0.000001 -2.291103 -0.362620 1.954364
  23 0.000002 10.958047 0.000004 1.147736 -0.058648 -0.004639
  24 0.000003 15.811118 0.000003 -1.774484 0.097614 -0.001797
  25 -3.743120 -5.381956 -22.215284 0.000000 -0.000000 1.570796
  26 12.950615 -6.309339 -6.853060 0.000000 0.000000 -1.570796
  27 4.566047 3.595062 7.583705 -0.122349 0.000000 1.570796
  28 -14.678076 10.633931 10.213203 -0.122349 -0.000000 1.570796
  29 -2.584532 6.393286 -22.545748 0.000000 -0.000000 1.570796
  30 12.980512 13.383118 -6.853060 0.000000 0.000000 -1.570796
  time 2
  0 -6.127154 -0.011674 4.090107 1.628554 0.003269 1.423688
  1 -0.000000 7.391149 -0.000000 0.277381 0.000000 -0.000000
  2 0.000000 3.425922 0.000000 0.338239 0.121696 -0.027915
  3 0.000000 4.689447 -0.000001 -0.675808 0.075255 -0.043289
  4 0.000000 3.425922 0.000000 -1.463866 1.249054 -0.015135
  5 0.000001 9.617206 0.000001 1.555571 -2.705183 -0.415614
  6 -0.000003 9.265495 0.000007 1.617378 0.381439 -0.000001
  7 -0.000003 7.076734 -0.000003 -0.327954 2.908760 0.054613
  8 1.154560 1.770478 0.936940 -2.362690 0.283546 -1.908452
  9 -20.611414 12.665756 -0.038456 -0.000001 3.141592 1.287665
  10 0.000000 3.425922 0.000000 -1.414535 -2.011415 0.055416
  11 0.000000 9.680593 0.000001 -1.769673 -0.489584 0.579666
  12 -0.000002 9.265487 -0.000001 -1.783426 -0.381437 0.000001
  13 0.000001 7.076732 0.000001 0.133116 2.669631 0.029380
  14 -2.710037 -9.927322 6.997005 -0.061175 0.000000 1.570796
  15 -15.573564 -1.528415 9.797442 -0.061175 0.000000 1.570796
  16 -6.132846 -0.011674 4.311940 -1.570796 -0.000000 1.570796
  17 0.000000 3.379474 -0.000000 0.000000 -1.310649 1.326950
  18 0.000000 4.934431 -0.000001 -2.124627 0.194863 -1.706871
  19 -0.000003 10.930446 0.000003 1.207370 -0.075438 0.229265
  20 0.000002 15.790724 0.000008 -1.854613 -0.053547 -0.165065
  21 0.013764 3.379107 -0.000000 0.000000 1.308847 -1.432693
  22 -0.000000 4.888663 0.000002 -2.169282 -0.257988 1.837329
  23 -0.000001 10.958048 0.000003 1.074705 -0.058981 -0.004474
  24 -0.000000 15.811126 0.000002 -1.773091 0.096396 0.000791
  25 -5.535213 -5.381956 -22.215284 0.000000 -0.000000 1.570796
  26 12.950615 -9.329994 -6.853060 0.000000 0.000000 -1.570796
  27 4.687064 0.895606 8.092851 -0.061175 0.000000 1.570796
  28 -14.662545 10.633931 10.267957 -0.117095 -0.000000 1.570796
  29 -2.584532 6.393286 -22.545664 0.000000 -0.000000 1.570796
  30 12.980513 10.880507 -6.853060 0.000000 0.000000 -1.570796
  time 3
  0 -6.130000 -0.011674 4.201023 1.542985 0.013142 1.150352
  1 -0.000000 7.391150 0.000001 0.277381 -0.000000 0.000000
  2 -0.000000 3.425922 -0.000000 0.333305 0.246568 -0.049789
  3 0.000000 4.689446 0.000000 -0.569205 0.212909 -0.123497
  4 -0.000000 3.425922 -0.000000 -1.467241 1.284281 -0.025780
  5 -0.000000 9.617203 0.000000 -1.509972 -0.359689 2.650325
  6 -0.000004 9.265497 0.000005 1.545751 0.381439 -0.000000
  7 0.000002 7.076736 -0.000004 -0.549265 2.546022 -0.156113
  8 1.173795 1.801471 0.916288 0.637817 2.825870 1.188321
  9 -20.611385 12.665767 -0.038467 -0.000001 3.141592 1.287665
  10 -0.000000 3.425922 -0.000000 -1.418417 -1.976210 0.051534
  11 -0.000001 9.680596 -0.000001 -1.856951 -0.386545 0.713722
  12 -0.000000 9.265489 -0.000000 -1.630560 -0.381438 0.000001
  13 0.000004 7.076730 0.000001 0.149233 -3.065675 -0.005051
  14 -5.307477 -10.191478 7.096654 0.000000 -0.000000 1.570796
  15 -15.736041 2.462447 9.846846 0.000000 -0.000000 1.570797
  16 -6.132846 -0.011674 4.311940 -1.570796 -0.000000 1.570796
  17 0.000000 3.379474 -0.000000 0.000000 -1.310649 1.220742
  18 0.000001 4.934430 -0.000001 -1.967826 0.379071 -1.775936
  19 -0.000002 10.930453 0.000005 1.217471 -0.077793 0.230150
  20 0.000000 15.790732 -0.000001 -2.056098 -0.118090 -0.256494
  21 0.013711 3.378377 -0.000000 0.000000 1.308847 -1.538900
  22 0.000000 4.888664 0.000001 -2.071045 -0.143098 1.721492
  23 -0.000003 10.958051 0.000005 0.995053 -0.059328 -0.004267
  24 0.000003 15.811127 0.000004 -1.766259 0.096669 0.006442
  25 -10.431304 -5.381956 -22.215284 0.000000 -0.000000 1.570796
  26 12.950616 -11.257710 -6.853060 0.000000 0.000000 -1.570796
  27 4.895964 -1.725005 8.165585 0.000000 -0.000000 1.570796
  28 -14.621598 10.633931 10.412306 -0.103239 -0.000000 1.570796
  29 -2.584532 6.393286 -22.545046 0.000000 -0.000000 1.570796
  30 12.980513 8.377898 -6.853060 0.000000 0.000000 -1.570796
  time 4
  0 -6.132845 -0.011673 4.311940 1.459445 -0.000000 0.882170
  1 0.000001 7.391150 -0.000000 0.277381 0.000000 -0.000000
  2 -0.000000 3.425920 0.000001 0.333305 0.246568 -0.049788
  3 0.000000 4.689448 -0.000000 -0.515395 0.289820 -0.161199
  4 -0.000000 3.425920 0.000001 -1.467241 1.284281 -0.025779
  5 0.000000 9.617204 0.000000 -1.266796 -0.551700 2.752273
  6 0.000000 9.265488 0.000011 1.129243 0.381438 -0.000001
  7 -0.000001 7.076737 0.000000 -0.599030 2.604703 -0.224096
  8 1.176015 1.805898 0.905733 0.559580 2.810959 1.161767
  9 -20.611404 12.665766 -0.038461 -0.000001 3.141592 1.287665
  10 -0.000000 3.425920 0.000001 -1.418417 -1.976210 0.051534
  11 -0.000000 9.680595 0.000001 -1.962241 -0.310777 0.892201
  12 -0.000002 9.265488 0.000002 -1.400956 -0.381438 0.000001
  13 0.000001 7.076728 0.000001 0.149233 -3.065675 -0.005051
  14 -5.307477 -10.191478 7.096654 0.000000 -0.000000 1.570796
  15 -15.736041 2.462447 9.846846 0.000000 -0.000000 1.570797
  16 -6.132846 -0.011674 4.311940 -1.570796 -0.000000 1.570796
  17 0.000000 3.379474 -0.000000 0.000000 -1.310649 1.240546
  18 0.000000 4.934429 -0.000001 -1.495825 0.487362 -1.798868
  19 -0.000001 10.930455 0.000005 0.876556 -0.004803 0.187970
  20 0.000005 15.790740 0.000005 -2.162469 -0.155146 -0.301005
  21 0.013719 3.378512 -0.000000 0.000000 1.308847 -1.519096
  22 0.000001 4.888662 0.000001 -2.084312 -0.162837 1.717297
  23 -0.000003 10.958050 0.000001 1.010711 -0.059261 -0.004310
  24 0.000003 15.811120 0.000005 -1.748160 0.096973 0.012705
  25 -17.119486 -5.381955 -22.215284 0.000000 -0.000000 1.570796
  26 12.950616 -11.935229 -6.853060 0.000000 0.000000 -1.570796
  27 5.009300 -4.926608 8.205123 0.000000 -0.000000 1.570796
  28 -14.563709 10.633931 10.616386 -0.083643 -0.000000 1.570796
  29 -2.584532 6.393286 -22.543379 0.000000 -0.000000 1.570796
  30 12.980513 8.377898 -6.853060 0.000000 0.000000 -1.570796
  time 5
  0 -6.132845 -0.011673 4.311940 1.459445 -0.000000 0.882170
  1 0.000001 7.391150 -0.000000 0.277381 0.000000 -0.000000
  2 -0.000000 3.425920 0.000001 0.333305 0.246568 -0.049788
  3 0.000000 4.689448 -0.000000 -0.527601 0.285192 -0.157472
  4 -0.000000 3.425920 0.000001 -1.467241 1.284281 -0.025779
  5 0.000000 9.617204 0.000000 -1.266796 -0.551700 2.752273
  6 0.000000 9.265488 0.000011 1.129243 0.381438 -0.000001
  7 -0.000001 7.076737 0.000000 -0.588888 2.647462 -0.249770
  8 1.176016 1.805898 0.905734 0.559581 2.810959 1.161767
  9 -20.611403 12.665766 -0.038458 -0.000001 3.141592 1.287664
  10 -0.000000 3.425920 0.000001 -1.418417 -1.976210 0.051534
  11 -0.000000 9.680595 0.000001 -2.163378 -0.343932 0.939211
  12 -0.000002 9.265489 0.000002 -1.164034 -0.381438 0.000001
  13 0.000002 7.076729 0.000002 0.149233 -3.065675 -0.005051
  14 -5.307477 -10.191478 7.096654 0.000000 -0.000000 1.570796
  15 -15.736041 2.462447 9.846846 0.000000 -0.000000 1.570797
  16 -6.132846 -0.011674 4.311940 -1.570796 -0.000000 1.570796
  17 0.000000 3.379474 -0.000000 0.000000 -1.310649 1.260346
  18 0.000001 4.934430 -0.000001 -1.482468 0.467198 -1.800453
  19 -0.000001 10.930454 0.000006 0.862244 -0.002097 0.185685
  20 0.000006 15.790740 0.000009 -2.162469 -0.155145 -0.301005
  21 0.013728 3.378648 -0.000000 0.000000 1.308847 -1.499297
  22 -0.000001 4.888664 0.000000 -2.097566 -0.182670 1.713209
  23 0.000001 10.958042 0.000001 1.026361 -0.059193 -0.004352
  24 0.000001 15.811118 0.000005 -1.712987 0.095831 0.017073
  25 -17.119486 -5.381955 -22.215284 0.000000 -0.000000 1.570796
  26 12.950616 -11.935229 -6.853060 0.000000 0.000000 -1.570796
  27 5.034753 -6.612800 8.481897 0.000000 -0.000000 1.570796
  28 -14.497348 10.633931 10.850332 -0.061175 -0.000000 1.570796
  29 -2.584532 6.393286 -22.540129 0.000000 -0.000000 1.570796
  30 12.980513 8.377898 -6.853060 0.000000 0.000000 -1.570796
  time 6
  0 -8.869090 -0.011673 4.311940 1.198384 -0.112301 0.865176
  1 -0.000000 7.391149 -0.000001 0.277380 -0.000000 -0.000000
  2 -0.000000 3.425923 0.000000 0.026947 0.267932 0.130821
  3 -0.000000 4.689448 0.000001 -0.548883 0.266024 -0.146448
  4 -0.000000 3.425923 0.000000 -1.467241 1.284281 -0.025779
  5 -0.000001 9.617206 -0.000000 -1.044660 -0.189482 2.463162
  6 0.000000 9.265492 0.000003 0.922588 0.381438 -0.000001
  7 -0.000002 7.076735 -0.000000 -0.805137 2.264707 -0.195524
  8 1.176013 1.805899 0.905737 0.559581 2.810958 1.161767
  9 -20.611399 12.665777 -0.038467 -0.000001 3.141592 1.287664
  10 -0.000000 3.425923 0.000000 -1.418417 -1.976210 0.051534
  11 -0.000000 9.680596 0.000000 -2.164725 -0.377609 0.904639
  12 -0.000000 9.265488 -0.000001 -0.786617 -0.381438 0.000001
  13 0.000002 7.076734 0.000001 0.149233 -3.065675 -0.005052
  14 -8.834080 -9.531091 6.683480 0.000000 -0.000000 1.570796
  15 -15.228961 -2.494584 10.424343 0.000000 -0.000000 1.570797
  16 -8.869091 -0.011674 4.311940 -1.570796 -0.000000 1.570796
  17 0.000000 3.379474 -0.000000 0.000000 -1.310649 1.260346
  18 0.000000 4.934430 -0.000001 -1.783600 0.487813 -1.968531
  19 -0.000002 10.930452 0.000003 1.041459 -0.038248 0.211439
  20 0.000000 15.790741 0.000009 -2.110381 -0.191770 -0.365261
  21 0.013728 3.378648 -0.000000 0.000000 1.308847 -1.499297
  22 0.000001 4.888663 0.000002 -2.150607 -0.160226 1.703833
  23 -0.000001 10.958045 0.000005 0.933684 -0.059584 -0.004090
  24 0.000002 15.811117 0.000005 -1.527787 0.085035 0.013909
  25 -17.119486 -5.381955 -22.215284 0.000000 -0.000000 1.570796
  26 12.950616 -17.278906 -6.853060 0.000000 0.000000 -1.570796
  27 1.404025 -6.441331 9.531113 0.000000 -0.000000 1.570796
  28 -14.430986 10.633931 11.084278 -0.038706 -0.000000 1.570796
  29 -2.584532 6.393286 -22.534769 0.000000 -0.000000 1.570796
  30 12.980513 8.377898 -6.853060 0.000000 0.000000 -1.570796
  time 7
  0 -8.159693 -0.011673 4.311940 1.211651 -0.104541 0.884227
  1 -0.000001 7.391149 0.000000 0.277381 0.000000 0.000000
  2 0.000000 3.425921 0.000001 0.103284 0.264751 0.084809
  3 -0.000000 4.689447 -0.000001 -0.556691 0.224014 -0.128595
  4 0.000000 3.425921 0.000001 -1.467241 1.284281 -0.025779
  5 0.000000 9.617202 0.000001 -1.137694 -0.276509 2.492631
  6 -0.000000 9.265493 -0.000002 1.066517 0.381438 -0.000001
  7 -0.000002 7.076732 -0.000001 -0.581984 2.175676 -0.038989
  8 1.176014 1.805898 0.905735 0.559581 2.810959 1.161768
  9 -20.611401 12.665767 -0.038453 -0.000001 3.141592 1.287664
  10 0.000000 3.425921 0.000001 -1.418418 -1.976210 0.051534
  11 -0.000001 9.680594 0.000001 -2.273557 -0.374417 0.924710
  12 -0.000001 9.265487 0.000001 -0.562296 -0.381438 0.000001
  13 0.000001 7.076731 0.000000 0.149233 -3.065675 -0.005052
  14 -8.606500 -10.072476 7.060017 0.000000 -0.000000 1.570796
  15 -15.360426 -1.209428 10.274621 0.000000 -0.000000 1.570797
  16 -8.159695 -0.011674 4.311940 -1.570796 -0.000000 1.570796
  17 0.000000 3.379474 -0.000000 0.000000 -1.310649 1.260346
  18 -0.000001 4.934430 -0.000001 -1.735946 0.507101 -1.972489
  19 -0.000002 10.930452 0.000004 1.001908 -0.029869 0.206309
  20 0.000002 15.790741 0.000005 -2.124654 -0.191474 -0.360305
  21 0.013728 3.378648 -0.000000 0.000000 1.308847 -1.499297
  22 0.000000 4.888663 0.000000 -2.141786 -0.165936 1.706259
  23 -0.000002 10.958044 0.000001 0.964869 -0.059455 -0.004182
  24 0.000003 15.811119 0.000005 -1.588246 0.089732 0.010566
  25 -17.119486 -5.381955 -22.215284 0.000000 -0.000000 1.570796
  26 12.950616 -17.080992 -6.853060 0.000000 0.000000 -1.570796
  27 2.184811 -6.744993 8.894625 0.000000 -0.000000 1.570796
  28 -14.373097 10.633931 11.288359 -0.019110 -0.000000 1.570796
  29 -2.584532 6.393286 -22.526781 0.000000 -0.000000 1.570796
  30 12.980513 8.377898 -6.853060 0.000000 0.000000 -1.570796
  time 8
  0 -6.842242 -0.011673 4.311940 1.279178 -0.067441 0.964726
  1 0.000001 7.391148 -0.000001 0.277381 0.000000 -0.000000
  2 0.000000 3.425922 -0.000000 0.248113 0.261602 -0.001514
  3 -0.000000 4.689447 -0.000001 -0.437868 0.147676 -0.095112
  4 0.000000 3.425922 -0.000000 -1.467242 1.284281 -0.025780
  5 -0.000001 9.617206 -0.000000 -1.250367 -0.411814 2.517049
  6 -0.000001 9.265495 0.000003 1.222785 0.381438 -0.000001
  7 -0.000002 7.076735 0.000001 -0.394657 2.149336 0.107040
  8 1.176014 1.805897 0.905733 0.559581 2.810959 1.161768
  9 -20.611404 12.665771 -0.038454 -0.000001 3.141592 1.287664
  10 0.000000 3.425922 -0.000000 -1.418417 -1.976210 0.051533
  11 -0.000000 9.680597 -0.000000 -2.342498 -0.381069 0.931194
  12 -0.000001 9.265483 -0.000001 -0.538994 -0.381438 0.000001
  13 0.000001 7.076731 0.000001 0.149233 -3.065675 -0.005052
  14 -7.013443 -11.077907 7.759299 0.000000 -0.000000 1.570796
  15 -15.604575 1.177290 9.996568 0.000000 -0.000000 1.570797
  16 -6.842243 -0.011674 4.311940 -1.570796 -0.000000 1.570796
  17 0.000000 3.379474 -0.000000 0.000000 -1.310649 1.260346
  18 0.000000 4.934431 -0.000001 -1.619095 0.526752 -1.940902
  19 -0.000001 10.930454 0.000004 0.916150 -0.012460 0.194093
  20 0.000002 15.790738 0.000008 -2.154368 -0.178794 -0.336427
  21 0.013728 3.378648 -0.000000 0.000000 1.308847 -1.499297
  22 0.000000 4.888663 0.000000 -2.117514 -0.176813 1.710781
  23 -0.000001 10.958046 0.000004 1.011432 -0.059258 -0.004312
  24 0.000000 15.811121 0.000005 -1.619175 0.091367 0.009672
  25 -17.119486 -5.381955 -22.215284 0.000000 -0.000000 1.570796
  26 12.950616 -15.695595 -6.853060 0.000000 0.000000 -1.570796
  27 4.001900 -6.499597 8.535227 0.000000 -0.000000 1.570796
  28 -14.332151 10.633931 11.432707 -0.005254 -0.000000 1.570796
  29 -2.584532 6.393286 -22.515627 0.000000 -0.000000 1.570796
  30 12.980513 8.377898 -6.853060 0.000000 0.000000 -1.570796
end
