version 1
nodes
0 "Bone" -1
1 "Bone.002" 0
2 "Bone.003" 1
3 "Bone.006" 2
4 "Bone.007" 1
5 "Arm.L.002" 4
6 "Arm.L.005" 5
7 "Arm.L.006" 6
8 "Bone.004" 7
9 "Bone.005" 8
10 "Bone.008" 1
11 "Arm.R.002" 10
12 "Arm.R.005" 11
13 "Arm.R.006" 12
14 "ForearmIK.L" -1
15 "UpperarmIK.L" -1
16 "Bone.001" -1
17 "Leg.L.001" 16
18 "Leg.L.002" 17
19 "Leg.L.003" 18
20 "Leg.L.004" 19
21 "Leg.R.001" 16
22 "Leg.R.002" 21
23 "Leg.R.003" 22
24 "Leg.R.004" 23
25 "ShinIK.L" -1
26 "KneeIK.L" -1
27 "ForearmIK.R" -1
28 "UpperarmIK.R" -1
29 "ShinIK.R" -1
30 "KneeIK.R" -1
end
skeleton
  time 0
  0 -6.132846 -0.011674 4.361635 1.739455 -0.000000 1.570796
  1 0.000000 7.391149 0.000000 0.275257 0.091736 -0.046266
  2 0.000000 3.425923 0.000000 0.340412 -0.003251 -0.006818
  3 -0.000001 4.689448 -0.000000 -0.989222 -0.097629 0.201349
  4 0.000000 3.425923 0.000000 -1.213551 1.692469 0.145750
  5 -0.000000 9.617203 -0.000000 1.541454 -2.522922 -0.478637
  6 -0.000000 9.265496 0.000007 1.226301 0.381438 -0.000001
  7 0.000002 7.076735 -0.000002 -0.136260 3.115070 -0.018961
  8 0.951413 1.721431 -0.411209 0.383447 2.858993 1.159967
  9 -20.611399 12.665779 -0.038465 -0.000000 3.141593 1.287664
  10 0.000000 3.425923 0.000000 -1.453492 -1.570796 0.000000
  11 0.000000 9.680595 0.000000 -1.429860 0.064930 0.894373
  12 -0.000002 9.265486 -0.000004 -1.035130 -0.381438 0.000001
  13 0.000001 7.076729 0.000002 0.149233 -3.065675 -0.005051
  14 5.459206 -7.963660 4.454102 0.000000 -0.000000 1.570796
  15 -14.295470 -8.628876 11.487461 0.000000 -0.000000 1.570797
  16 -6.132846 -0.011674 4.361635 -1.570796 -0.000000 1.570796
  17 0.000000 3.379475 -0.000000 0.000000 -1.310649 1.463738
  18 0.000000 4.934430 0.000001 -2.175324 0.041857 -1.591640
  19 -0.000001 10.930458 0.000006 0.805830 0.008231 0.176317
  20 -0.000003 15.790743 0.000007 -1.369304 0.002390 -0.042581
  21 0.013812 3.380049 -0.000000 0.000000 1.308847 -1.295905
  22 0.000000 4.888664 0.000002 -1.159485 -0.398011 1.457760
  23 0.000005 10.958054 0.000002 0.641353 -0.060633 -0.003044
  24 0.000001 15.811126 0.000001 -2.204016 0.120773 0.100318
  25 2.913327 -5.381955 -22.402643 0.000000 -0.000000 1.570796
  26 12.950615 -6.309339 -6.853060 0.000000 0.000000 -1.570796
  27 -6.358287 9.519603 1.445555 0.000000 -0.000000 1.570796
  28 -14.316620 -4.108881 11.487461 0.000000 -0.000000 1.570796
  29 -18.481302 7.239779 -22.455816 0.000000 -0.000000 1.570796
  30 12.980513 5.567562 -6.853060 0.000000 0.000000 -1.570796
  time 1
  0 -6.132845 -0.011674 4.361635 1.494211 0.000000 1.570796
  1 0.000000 7.391149 -0.000000 0.275257 0.091736 -0.046266
  2 -0.000000 3.425923 -0.000000 0.340412 -0.003251 -0.006818
  3 0.000000 4.689447 -0.000001 -0.989222 -0.097629 0.201348
  4 -0.000000 3.425923 -0.000000 -1.213551 1.692469 0.145750
  5 0.000000 9.617204 0.000001 1.051846 -2.458077 -0.130365
  6 -0.000001 9.265496 0.000005 0.359574 0.381438 -0.000000
  7 -0.000001 7.076732 0.000000 -0.136260 3.115070 -0.018960
  8 0.951415 1.721431 -0.411209 0.383447 2.858993 1.159967
  9 -20.611406 12.665767 -0.038445 -0.000001 -3.141592 1.287665
  10 -0.000000 3.425923 -0.000000 -1.453492 -1.570796 0.000000
  11 0.000000 9.680596 0.000001 -0.964685 -0.570097 -0.070527
  12 -0.000000 9.265488 0.000000 -0.936221 -0.381438 0.000000
  13 -0.000002 7.076726 -0.000001 0.149233 -3.065675 -0.005051
  14 5.459206 -16.731789 6.767889 0.000000 -0.000000 1.570796
  15 -14.295469 -11.620027 11.487461 0.000000 -0.000000 1.570797
  16 -6.132846 -0.011674 4.361635 -1.570796 -0.000000 1.570796
  17 0.000000 3.379475 -0.000000 0.000000 -1.310649 1.463738
  18 0.000000 4.934430 0.000001 -1.883493 0.042759 -1.597956
  19 -0.000005 10.930460 0.000004 1.050984 -0.040297 0.212626
  20 0.000002 15.790737 0.000006 -1.926883 -0.013618 -0.134833
  21 0.013812 3.380049 -0.000000 0.000000 1.308847 -1.295905
  22 0.000000 4.888664 0.000002 -1.957054 -0.420998 1.471886
  23 -0.000003 10.958054 0.000004 1.245002 -0.058189 -0.004820
  24 0.000000 15.811131 0.000003 -1.989915 0.139962 0.040424
  25 -7.731974 -5.381955 -22.590010 0.000000 -0.000000 1.570796
  26 12.950615 -6.309339 -6.853060 0.000000 0.000000 -1.570796
  27 0.353468 13.741879 3.448236 0.000000 -0.000000 1.570796
  28 -14.316620 10.633931 11.487461 0.000000 -0.000000 1.570796
  29 -7.991408 7.239778 -22.051115 0.000000 -0.000000 1.570796
  30 12.980513 5.567562 -6.853060 0.000000 0.000000 -1.570796
  time 2
  0 -6.132846 -0.011674 1.206730 1.656408 0.000000 1.570796
  1 -0.000000 7.391149 0.000001 0.307246 0.093387 -0.042247
  2 0.000000 3.425922 0.000000 0.340412 -0.003251 -0.006818
  3 0.000000 4.689447 0.000000 -1.006681 -0.095768 0.202272
  4 0.000000 3.425922 0.000000 -1.213552 1.692469 0.145750
  5 0.000000 9.617203 0.000000 1.440264 -2.102778 -0.933630
  6 -0.000002 9.265500 0.000003 0.005002 0.381438 -0.000000
  7 -0.000001 7.076734 -0.000001 -0.210144 3.098589 -0.063375
  8 0.951411 1.721433 -0.411208 0.383447 2.858993 1.159967
  9 -20.611408 12.665772 -0.038457 -0.000001 -3.141593 1.287664
  10 0.000000 3.425922 0.000000 -1.541969 -1.325011 -0.014916
  11 -0.000000 9.680595 0.000001 -0.946910 -1.077314 0.120001
  12 -0.000000 9.265489 -0.000001 -0.624967 -0.381438 0.000001
  13 0.000000 7.076733 -0.000001 0.060364 -2.958933 -0.075869
  14 5.451639 -21.605606 5.800549 0.000000 -0.000000 1.570796
  15 -14.295472 2.418707 11.487461 0.000000 -0.000000 1.570797
  16 -6.132846 -0.011674 1.205900 -1.570796 -0.000000 1.570796
  17 0.000000 3.379475 -0.000000 0.000000 -1.310649 1.463738
  18 -0.000000 4.934430 0.000001 -2.133457 0.009711 -1.583546
  19 -0.000003 10.930453 0.000002 1.449255 -0.133711 0.243757
  20 0.000002 15.790737 -0.000003 -2.079422 -0.024407 -0.162240
  21 0.013812 3.380049 -0.000000 0.000000 1.308847 -1.295905
  22 -0.000000 4.888664 0.000000 -2.040097 -0.471202 1.472254
  23 -0.000001 10.958054 0.000002 1.670837 -0.056056 -0.005062
  24 0.000001 15.811130 -0.000004 -2.095987 0.163439 0.068804
  25 -7.731974 -5.381955 -22.590010 0.000000 -0.000000 1.570796
  26 12.950615 -6.309339 -6.853060 0.000000 0.000000 -1.570796
  27 -0.616330 19.914223 3.062909 0.000000 -0.000000 1.570796
  28 -14.316620 10.633931 -0.008976 0.000000 -0.000000 1.570796
  29 -11.251342 7.239779 -20.905008 0.000000 -0.000000 1.570796
  30 12.980513 5.567562 -6.853060 0.000000 0.000000 -1.570796
  time 3
  0 -6.132846 -0.011674 -2.631628 1.895543 -0.000000 1.570796
  1 0.000000 7.391148 -0.000000 0.384422 0.096579 -0.033865
  2 0.000001 3.425923 0.000000 0.340412 -0.003251 -0.006818
  3 0.000000 4.689447 -0.000000 -1.553211 -0.032345 0.213595
  4 0.000001 3.425923 0.000000 -1.213551 1.692469 0.145751
  5 -0.000001 9.617204 -0.000000 1.000961 -2.084329 -1.060496
  6 -0.000000 9.265492 0.000002 0.837028 0.381438 -0.000001
  7 -0.000000 7.076731 0.000002 -0.379139 3.079028 -0.171240
  8 0.951412 1.721433 -0.411206 0.383447 2.858993 1.159967
  9 -20.611401 12.665763 -0.038448 -0.000001 3.141593 1.287664
  10 0.000001 3.425923 0.000000 -1.507004 -1.427988 -0.023838
  11 -0.000000 9.680595 0.000000 -1.732753 -1.135383 1.356653
  12 -0.000002 9.265484 -0.000002 -0.689350 -0.381438 0.000001
  13 0.000001 7.076732 0.000002 -0.148456 -2.656661 -0.223118
  14 5.444075 -22.301865 2.559101 0.000000 -0.000000 1.570796
  15 -14.295469 16.457439 11.487461 0.000000 -0.000000 1.570797
  16 -6.132846 -0.011674 -2.631628 -1.570796 -0.000000 1.570796
  17 0.000000 3.379475 -0.000000 0.000000 -1.310649 1.463738
  18 -0.000000 4.934430 -0.000001 -2.395729 -0.016689 -1.561338
  19 0.000000 10.930450 -0.000002 1.844248 -0.230083 0.236302
  20 0.000001 15.790728 -0.000002 -2.231674 -0.039230 -0.187699
  21 0.013812 3.380049 -0.000000 0.000000 1.308847 -1.295905
  22 0.000000 4.888663 0.000000 -1.696075 -0.573679 1.448398
  23 0.000001 10.958048 0.000002 1.825818 -0.055281 -0.004923
  24 -0.000001 15.811126 -0.000003 -2.202642 0.189968 0.094811
  25 -7.731974 -5.381955 -22.590010 0.000000 -0.000000 1.570796
  26 12.950615 -6.309339 -6.853060 0.000000 0.000000 -1.570796
  27 -1.586128 22.838373 0.365618 0.000000 -0.000000 1.570796
  28 -14.316620 10.633931 -11.505413 0.000000 -0.000000 1.570796
  29 -17.305504 7.239779 -19.646074 0.000000 -0.000000 1.570796
  30 12.980513 5.567562 -6.853060 0.000000 0.000000 -1.570796
  time 4
  0 -6.132846 -0.011674 -3.087265 2.036635 -0.000000 1.570796
  1 0.000000 7.391150 -0.000001 0.479404 0.099183 -0.026740
  2 0.000000 3.425922 0.000001 0.340412 -0.003251 -0.006818
  3 -0.000000 4.689448 0.000000 -0.601037 -0.124178 -0.076474
  4 0.000000 3.425922 0.000001 -1.213551 1.692469 0.145750
  5 0.000001 9.617199 0.000001 -1.385912 -0.914416 1.470223
  6 0.000002 9.265494 0.000002 0.713910 0.381438 -0.000001
  7 -0.000000 7.076729 -0.000000 -0.554683 3.091717 -0.293374
  8 0.951414 1.721432 -0.411208 0.383446 2.858993 1.159967
  9 -20.611385 12.665758 -0.038459 -0.000001 3.141592 1.287664
  10 0.000000 3.425922 0.000001 -1.608906 -1.663017 0.137481
  11 0.000001 9.680596 -0.000001 -1.400225 -0.993486 0.717957
  12 0.000002 9.265489 -0.000001 -0.514999 -0.381438 0.000000
  13 -0.000001 7.076732 -0.000002 -0.405401 -2.245897 -0.330580
  14 5.467507 -21.324238 -2.965120 0.000000 -0.000000 1.570796
  15 -12.735710 9.178097 4.017258 0.000000 -0.000000 1.570797
  16 -6.132846 -0.011674 -3.086157 -1.570796 -0.000000 1.570796
  17 0.000000 3.379475 -0.000000 0.000000 -1.310649 1.463738
  18 -0.000000 4.934431 -0.000001 -2.426081 -0.019026 -1.558427
  19 0.000001 10.930449 -0.000003 1.887912 -0.240239 0.233126
  20 0.000002 15.790728 -0.000001 -2.231668 -0.039230 -0.187699
  21 0.013812 3.380049 -0.000000 0.000000 1.308847 -1.295905
  22 0.000000 4.888664 0.000000 -1.395718 -0.607503 1.431047
  23 -0.000001 10.958051 0.000002 1.653480 -0.056144 -0.005070
  24 -0.000001 15.811128 -0.000004 -2.309277 0.219099 0.117948
  25 -7.731974 -5.381955 -22.590010 0.000000 -0.000000 1.570796
  26 12.950615 -6.309339 -6.853060 0.000000 0.000000 -1.570796
  27 0.707873 18.657892 -7.603958 0.000000 -0.000000 1.570796
  28 -14.316620 10.633931 -5.544296 0.000000 -0.000000 1.570796
  29 -20.565435 7.239778 -19.053316 0.000000 -0.000000 1.570796
  30 12.980513 5.567562 -6.853060 0.000000 0.000000 -1.570796
  time 5
  0 -6.132846 -0.011674 -3.307421 2.475711 -0.000000 1.570796
  1 0.000001 7.391147 0.000000 0.569938 -0.098724 -0.090133
  2 0.000000 3.425922 0.000001 0.340412 -0.003251 -0.006818
  3 0.000000 4.689446 -0.000001 -0.301122 -0.093144 -0.170393
  4 0.000000 3.425922 0.000001 -1.213551 1.692469 0.145752
  5 0.000001 9.617204 0.000000 -0.809023 -0.715877 1.263382
  6 0.000001 9.265494 0.000003 0.939195 0.381438 -0.000000
  7 -0.000001 7.076733 0.000000 -0.616646 -3.107018 -0.389064
  8 0.951414 1.721432 -0.411208 0.383446 2.858993 1.159967
  9 -20.611389 12.665753 -0.038457 -0.000001 3.141592 1.287664
  10 0.000000 3.425922 0.000001 -1.521316 -1.896183 0.109799
  11 0.000002 9.680595 0.000000 -1.133314 -1.309689 0.454844
  12 0.000003 9.265486 -0.000002 -0.753427 -0.381438 0.000001
  13 -0.000000 7.076732 0.000001 -0.711736 -1.914429 -0.275639
  14 5.631541 -19.181187 -8.778917 0.000000 -0.000000 1.570796
  15 -9.839027 -4.340684 -9.855976 0.000000 -0.000000 1.570797
  16 -6.132846 -0.011674 -3.306316 -1.570796 -0.000000 1.570796
  17 0.000000 3.379475 -0.000000 0.000000 -1.310649 1.463738
  18 -0.000000 4.934430 0.000001 -2.440793 -0.020097 -1.556998
  19 -0.000000 10.930449 -0.000004 1.908896 -0.245057 0.231439
  20 -0.000001 15.790727 0.000000 -2.231499 -0.039212 -0.187673
  21 0.013812 3.380049 -0.000000 0.000000 1.308847 -1.295905
  22 0.000001 4.888664 0.000000 -1.460943 -0.605396 1.438303
  23 -0.000001 10.958050 0.000002 1.693017 -0.055944 -0.005050
  24 0.000002 15.811130 -0.000002 -2.415338 0.250286 0.137813
  25 -7.731974 -5.381955 -22.590010 0.000000 -0.000000 1.570796
  26 12.950615 -6.309339 -6.853060 0.000000 0.000000 -1.570796
  27 4.968163 10.894142 -17.560484 0.000000 -0.000000 1.570796
  28 -14.316620 10.633931 5.526348 0.000000 -0.000000 1.570796
  29 -19.878876 7.239779 -19.523935 0.000000 -0.000000 1.570796
  30 12.980513 5.567562 -6.853060 0.000000 0.000000 -1.570796
  time 6
  0 -6.132847 -0.011674 -3.624706 2.779164 -0.000000 1.570796
  1 -0.000000 7.391150 0.000002 0.635277 -0.334835 -0.190219
  2 0.000000 3.425922 0.000000 0.340412 -0.003251 -0.006818
  3 -0.000001 4.689446 -0.000001 -0.326039 -0.096796 -0.162953
  4 0.000000 3.425922 0.000000 -1.213552 1.692469 0.145749
  5 0.000001 9.617205 0.000002 -0.320242 -0.798073 1.318163
  6 0.000000 9.265495 0.000002 0.883120 0.381438 -0.000001
  7 0.000002 7.076733 -0.000001 -0.670643 -3.017165 -0.479986
  8 0.951412 1.721430 -0.411207 0.383446 2.858992 1.159967
  9 -20.611393 12.665762 -0.038453 -0.000001 3.141592 1.287665
  10 0.000000 3.425922 0.000000 -1.502134 -1.999637 0.117867
  11 0.000001 9.680596 0.000001 1.558823 -1.391982 -1.724921
  12 0.000003 9.265485 0.000003 -1.152773 -0.381438 0.000001
  13 -0.000000 7.076734 0.000000 -0.964782 -1.794519 -0.114471
  14 6.076776 -17.057463 -12.388628 0.000000 -0.000000 1.570796
  15 -8.279277 -11.620027 -17.326174 0.000000 -0.000000 1.570797
  16 -6.132846 -0.011674 -3.623604 -1.570796 -0.000000 1.570796
  17 0.000000 3.379475 -0.000000 0.000000 -1.310649 1.463738
  18 -0.000000 4.934430 0.000001 -2.462047 -0.021572 -1.554912
  19 0.000001 10.930451 -0.000003 1.938989 -0.251892 0.228840
  20 0.000004 15.790725 0.000002 -2.230350 -0.039088 -0.187497
  21 0.013812 3.380049 -0.000000 0.000000 1.308847 -1.295905
  22 -0.000001 4.888664 -0.000001 -1.447546 -0.608425 1.443179
  23 0.000000 10.958048 -0.000000 1.669277 -0.056064 -0.005063
  24 -0.000001 15.811126 -0.000005 -2.445461 0.262581 0.152108
  25 -7.731974 -5.381955 -22.590010 0.000000 -0.000000 1.570796
  26 12.950615 -6.309339 -6.853060 0.000000 0.000000 -1.570796
  27 7.262165 6.713662 -22.447439 0.000000 -0.000000 1.570796
  28 -14.316620 10.633931 11.487461 0.000000 -0.000000 1.570796
  29 -20.039881 7.239779 -20.002245 0.000000 -0.000000 1.570796
  30 12.980513 5.567562 -6.853060 0.000000 0.000000 -1.570796
  time 7
  0 -6.132847 -0.011674 -3.786591 2.710206 -0.000000 1.570796
  1 0.000001 7.391150 -0.000001 0.638121 -0.392996 -0.223176
  2 0.000000 3.425923 -0.000000 0.340412 -0.003251 -0.006818
  3 0.000000 4.689447 0.000001 -0.395153 -0.105925 -0.141910
  4 0.000000 3.425923 -0.000000 -1.274065 1.827000 0.068335
  5 -0.000003 9.617204 0.000000 -0.186074 -0.975698 1.269741
  6 0.000003 9.265498 0.000002 0.713802 0.381438 -0.000000
  7 0.000002 7.076735 -0.000002 -0.602593 -2.915443 -0.601760
  8 0.951412 1.721431 -0.411210 0.383446 2.858993 1.159967
  9 -20.611391 12.665756 -0.038450 -0.000001 3.141592 1.287665
  10 0.000000 3.425923 -0.000000 -1.502134 -1.999637 0.117867
  11 -0.000002 9.680595 0.000000 0.715658 -1.424979 -0.815401
  12 0.000001 9.265483 -0.000000 -1.115194 -0.381438 0.000001
  13 0.000002 7.076729 0.000003 -0.862749 -1.831903 -0.187036
  14 7.067236 -15.860053 -13.568352 0.000000 -0.000000 1.570796
  15 -8.279277 -11.620027 -17.326174 0.000000 -0.000000 1.570797
  16 -6.132846 -0.011674 -3.785484 -1.570796 -0.000000 1.570796
  17 0.000000 3.379475 -0.000000 0.000000 -1.310649 1.463738
  18 -0.000000 4.934430 0.000001 -2.472923 -0.022293 -1.553836
  19 0.000002 10.930450 -0.000004 1.954280 -0.255329 0.227439
  20 0.000002 15.790730 -0.000002 -2.226096 -0.038632 -0.186846
  21 0.013812 3.380049 -0.000000 0.000000 1.308847 -1.295905
  22 0.000001 4.888663 0.000002 -1.415482 -0.610469 1.444893
  23 -0.000000 10.958048 -0.000000 1.634748 -0.056238 -0.005077
  24 -0.000000 15.811131 -0.000000 -2.475521 0.275293 0.166069
  25 -7.731974 -5.381955 -22.590010 0.000000 -0.000000 1.570796
  26 12.950615 -6.309339 -6.853060 0.000000 0.000000 -1.570796
  27 7.262165 6.713662 -22.447439 0.000000 -0.000000 1.570796
  28 -14.316620 10.633931 11.487461 0.000000 -0.000000 1.570796
  29 -20.394093 7.239778 -20.247862 0.000000 -0.000000 1.570796
  30 12.980513 5.567562 -6.853060 0.000000 0.000000 -1.570796
  time 8
  0 -6.132847 -0.011674 -3.786591 2.710206 -0.000000 1.570796
  1 0.000001 7.391150 -0.000001 0.617703 -0.417299 -0.233240
  2 -0.000000 3.425922 0.000000 0.340412 -0.003251 -0.006817
  3 -0.000001 4.689446 -0.000000 -1.011906 -0.093249 0.214096
  4 -0.000000 3.425922 0.000000 -1.287031 1.961890 0.038172
  5 0.000001 9.617205 0.000002 -0.233572 -1.023118 1.158456
  6 0.000001 9.265495 0.000006 0.883652 0.381438 -0.000001
  7 0.000002 7.076733 -0.000002 -0.443193 -2.890012 -0.608378
  8 0.951413 1.721433 -0.411208 0.383446 2.858993 1.159967
  9 -20.611383 12.665747 -0.038445 -0.000001 3.141592 1.287665
  10 -0.000000 3.425922 0.000000 -1.502135 -1.999637 0.117867
  11 -0.000001 9.680597 -0.000000 0.440756 -1.404805 -0.504992
  12 0.000001 9.265487 0.000004 -1.128187 -0.381438 0.000001
  13 0.000002 7.076731 -0.000002 -0.673841 -1.942101 -0.292930
  14 8.243834 -15.384934 -14.002987 0.000000 -0.000000 1.570796
  15 -8.279277 -11.620027 -17.326174 0.000000 -0.000000 1.570797
  16 -6.132846 -0.011674 -3.486336 -1.570796 -0.000000 1.570796
  17 0.000000 3.379475 -0.000000 0.000000 -1.310649 1.463738
  18 0.000001 4.934431 -0.000001 -2.452843 -0.020944 -1.555818
  19 -0.000002 10.930450 -0.000002 1.925991 -0.248951 0.229989
  20 -0.000005 15.790730 -0.000000 -2.214633 -0.037418 -0.185081
  21 0.013812 3.380049 -0.000000 0.000000 1.308847 -1.295905
  22 -0.000001 4.888663 0.000000 -1.379847 -0.594164 1.444053
  23 -0.000001 10.958045 0.000001 1.578198 -0.056525 -0.005087
  24 -0.000000 15.811130 -0.000004 -2.505500 0.288402 0.179675
  25 -7.731974 -5.381955 -22.590010 0.000000 -0.000000 1.570796
  26 12.950615 -6.309339 -6.853060 0.000000 0.000000 -1.570796
  27 7.262165 6.713662 -22.447439 0.000000 -0.000000 1.570796
  28 -14.316620 10.633931 11.487461 0.000000 -0.000000 1.570796
  29 -20.748304 7.239778 -20.338354 0.000000 -0.000000 1.570796
  30 12.980513 5.567562 -6.853060 0.000000 0.000000 -1.570796
  time 9
  0 -6.132847 -0.011674 -3.209108 2.693956 -0.000000 1.570796
  1 0.000001 7.391148 0.000002 0.581249 -0.425650 -0.229151
  2 0.000000 3.425922 0.000000 0.340412 -0.003251 -0.006818
  3 0.000001 4.689448 0.000002 -1.093378 -0.075035 0.259260
  4 0.000000 3.425922 0.000000 -1.286362 1.946980 0.040761
  5 -0.000001 9.617205 -0.000000 0.052543 -1.100154 1.079409
  6 0.000001 9.265500 0.000002 0.451234 0.381438 -0.000000
  7 0.000000 7.076735 -0.000003 -0.497672 -2.867272 -0.685586
  8 0.951413 1.721430 -0.411211 0.383446 2.858993 1.159967
  9 -20.611389 12.665747 -0.038448 -0.000001 3.141592 1.287665
  10 0.000000 3.425922 0.000000 -1.467940 -2.163327 0.101483
  11 0.000001 9.680601 0.000000 0.129673 -1.216060 0.044905
  12 -0.000000 9.265483 0.000005 -1.089706 -0.381438 0.000001
  13 0.000001 7.076728 0.000000 -0.499358 -2.117457 -0.336209
  14 8.812494 -15.150320 -14.065079 0.000000 -0.000000 1.570796
  15 -8.612535 -11.620027 -15.730085 0.000000 -0.000000 1.570797
  16 -6.132846 -0.011674 -2.930777 -1.570796 -0.000000 1.570796
  17 0.000000 3.379475 -0.000000 0.000000 -1.310649 1.463738
  18 -0.000001 4.934430 0.000001 -2.415702 -0.018246 -1.559429
  19 -0.000001 10.930452 -0.000002 1.873037 -0.236798 0.234259
  20 0.000000 15.790732 0.000000 -2.189165 -0.034794 -0.181112
  21 0.013812 3.380049 -0.000000 0.000000 1.308847 -1.295905
  22 0.000001 4.888664 0.000000 -1.359148 -0.569941 1.442772
  23 -0.000003 10.958055 0.000002 1.523789 -0.056802 -0.005082
  24 0.000001 15.811133 -0.000003 -2.481340 0.288247 0.189098
  25 -7.731974 -5.381955 -22.590010 0.000000 -0.000000 1.570796
  26 12.950615 -6.309339 -6.853060 0.000000 0.000000 -1.570796
  27 7.262165 6.713662 -22.447439 0.000000 -0.000000 1.570796
  28 -14.316620 10.633931 11.487461 0.000000 -0.000000 1.570796
  29 -20.909309 7.239778 -20.351282 0.000000 -0.000000 1.570796
  30 12.980513 5.567562 -6.853060 0.000000 0.000000 -1.570796
  time 10
  0 -6.132847 -0.011674 -2.631628 2.607464 -0.000000 1.570796
  1 0.000000 7.391149 0.000001 0.534249 -0.429189 -0.215897
  2 0.000000 3.425922 -0.000000 0.340412 -0.003251 -0.006818
  3 0.000001 4.689448 -0.000000 -1.039215 -0.087575 0.229348
  4 0.000000 3.425922 -0.000000 -1.283963 1.908473 0.048094
  5 -0.000002 9.617206 0.000001 0.213999 -1.228925 1.167273
  6 0.000002 9.265501 0.000002 0.005023 0.381438 -0.000000
  7 -0.000001 7.076738 -0.000001 -0.523465 -2.873151 -0.742160
  8 0.951414 1.721435 -0.411206 0.383445 2.858993 1.159967
  9 -20.611380 12.665750 -0.038458 -0.000001 3.141592 1.287664
  10 0.000000 3.425922 -0.000000 -1.469879 -2.141401 0.100596
  11 -0.000001 9.680595 0.000000 -0.424542 -1.220238 0.240656
  12 0.000004 9.265490 -0.000000 -0.525394 -0.381438 0.000000
  13 -0.000000 7.076729 -0.000002 -0.345635 -2.337287 -0.316410
  14 8.678821 -14.727718 -13.251535 0.000000 -0.000000 1.570796
  15 -9.471992 -11.620028 -11.613848 0.000000 -0.000000 1.570797
  16 -6.132846 -0.011674 -2.631628 -1.570796 -0.000000 1.570796
  17 0.000000 3.379475 -0.000000 0.000000 -1.310649 1.463738
  18 -0.000000 4.934430 -0.000001 -2.395729 -0.016689 -1.561338
  19 0.000000 10.930450 -0.000002 1.844248 -0.230083 0.236302
  20 0.000001 15.790728 -0.000002 -2.188668 -0.034745 -0.181030
  21 0.013812 3.380049 -0.000000 0.000000 1.308847 -1.295905
  22 0.000000 4.888663 0.000000 -1.363315 -0.558664 1.442422
  23 -0.000000 10.958050 0.000003 1.509931 -0.056872 -0.005078
  24 -0.000001 15.811130 -0.000001 -2.457163 0.287873 0.198521
  25 -7.731974 -5.381955 -22.590010 0.000000 -0.000000 1.570796
  26 12.950615 -6.309339 -6.853060 0.000000 0.000000 -1.570796
  27 7.262165 6.713662 -22.447439 0.000000 -0.000000 1.570796
  28 -14.316620 10.633931 11.487461 0.000000 -0.000000 1.570796
  29 -20.823736 7.239778 -20.336878 0.000000 -0.000000 1.570796
  30 12.980513 5.567562 -6.853060 0.000000 0.000000 -1.570796
  time 11
  0 -6.132846 -0.011674 -2.631628 2.445834 -0.000000 1.570796
  1 0.000001 7.391148 0.000000 0.478638 -0.417481 -0.192136
  2 0.000000 3.425922 0.000000 0.340412 -0.003251 -0.006818
  3 0.000000 4.689447 0.000000 -0.418942 -0.110219 -0.078783
  4 0.000000 3.425922 0.000000 -1.278542 1.855739 0.060223
  5 0.000001 9.617206 -0.000000 -0.332764 -1.366972 1.811983
  6 0.000000 9.265501 0.000003 0.005030 0.381438 -0.000000
  7 -0.000001 7.076740 -0.000001 -0.633479 -2.994348 -0.691061
  8 0.951413 1.721432 -0.411207 0.383445 2.858994 1.159967
  9 -20.611380 12.665745 -0.038456 -0.000001 3.141592 1.287665
  10 0.000000 3.425922 0.000000 -1.475303 -2.080172 0.097879
  11 -0.000002 9.680592 0.000002 -1.109920 -1.173201 0.518696
  12 0.000002 9.265492 -0.000000 -0.004999 -0.381438 -0.000000
  13 -0.000001 7.076733 -0.000002 -0.202910 -2.568940 -0.254739
  14 8.270890 -13.901809 -11.201168 0.000000 -0.000000 1.570796
  15 -10.647166 -11.620028 -5.985533 0.000000 -0.000000 1.570797
  16 -6.132846 -0.011674 -2.631628 -1.570796 -0.000000 1.570796
  17 0.000000 3.379475 -0.000000 0.000000 -1.310649 1.463738
  18 -0.000000 4.934430 -0.000001 -2.395729 -0.016689 -1.561338
  19 0.000000 10.930450 -0.000002 1.844248 -0.230083 0.236302
  20 0.000001 15.790728 -0.000002 -2.173259 -0.033232 -0.178460
  21 0.013812 3.380049 -0.000000 0.000000 1.308847 -1.295905
  22 0.000000 4.888663 0.000000 -1.418920 -0.560932 1.442947
  23 -0.000001 10.958050 0.000002 1.567206 -0.056581 -0.005088
  24 0.000000 15.811131 -0.000004 -2.432979 0.287280 0.207937
  25 -7.731974 -5.381955 -22.590010 0.000000 -0.000000 1.570796
  26 12.950615 -6.309339 -6.853060 0.000000 0.000000 -1.570796
  27 7.262165 6.627649 -20.440577 0.000000 -0.000000 1.570796
  28 -14.316620 10.633931 11.487461 0.000000 -0.000000 1.570796
  29 -20.224722 7.239779 -20.236071 0.000000 -0.000000 1.570796
  30 12.980513 5.567562 -6.853060 0.000000 0.000000 -1.570796
  time 12
  0 -6.132846 -0.011674 -1.786350 2.359230 -0.000000 1.570796
  1 -0.000000 7.391149 0.000000 0.418817 -0.375266 -0.159549
  2 0.000000 3.425922 0.000000 0.340412 -0.003251 -0.006818
  3 -0.000000 4.689446 -0.000000 -0.220170 -0.076858 -0.174526
  4 0.000000 3.425922 0.000000 -1.268003 1.798273 0.078020
  5 0.000000 9.617203 -0.000000 2.089893 -1.756753 -0.514933
  6 0.000001 9.265495 0.000002 0.005003 0.381438 -0.000000
  7 -0.000000 7.076731 -0.000001 -0.738353 -3.123095 -0.653365
  8 0.951411 1.721430 -0.411208 0.383445 2.858994 1.159967
  9 -20.611362 12.665728 -0.038450 -0.000001 3.141592 1.287665
  10 0.000000 3.425922 0.000000 -1.483746 -1.986307 0.093424
  11 -0.000000 9.680594 0.000000 -1.151850 -0.977116 0.740358
  12 -0.000000 9.265485 0.000001 -1.002410 -0.381438 0.000001
  13 0.000001 7.076728 -0.000001 -0.070819 -2.776572 -0.172428
  14 7.578335 -12.510561 -8.499363 0.000000 -0.000000 1.570796
  15 -11.927580 -11.620028 0.146814 0.000000 -0.000000 1.570797
  16 -6.132846 -0.011674 -1.783997 -1.570796 -0.000000 1.570796
  17 0.000000 3.379475 -0.000000 0.000000 -1.310649 1.463738
  18 0.000000 4.934430 0.000001 -2.339003 -0.011881 -1.566623
  19 0.000001 10.930450 -0.000002 1.761408 -0.210402 0.241068
  20 -0.000001 15.790733 -0.000001 -2.151541 -0.031093 -0.174838
  21 0.013812 3.380049 -0.000000 0.000000 1.308847 -1.295905
  22 0.000000 4.888663 0.000000 -1.703535 -0.572534 1.434879
  23 -0.000000 10.958050 0.000002 1.869353 -0.055069 -0.004863
  24 -0.000000 15.811127 -0.000006 -2.322052 0.239710 0.194795
  25 -7.731974 -5.381955 -22.590010 0.000000 -0.000000 1.570796
  26 12.950615 -6.309339 -6.853060 0.000000 0.000000 -1.570796
  27 7.262165 6.422538 -15.445421 0.000000 -0.000000 1.570796
  28 -14.316620 10.633931 11.487461 0.000000 -0.000000 1.570796
  29 -17.236921 7.239779 -18.258394 0.000000 -0.000000 1.570796
  30 12.980513 5.567562 -6.853060 0.000000 0.000000 -1.570796
  time 13
  0 -6.132846 -0.011674 0.205219 2.319675 -0.000000 1.570796
  1 -0.000000 7.391148 0.000001 0.360629 -0.287097 -0.121865
  2 -0.000000 3.425923 -0.000000 0.340412 -0.003251 -0.006818
  3 0.000001 4.689447 0.000000 -0.237019 -0.080445 -0.166626
  4 -0.000000 3.425923 -0.000000 -1.250175 1.745632 0.102460
  5 0.000001 9.617203 -0.000000 1.526224 -1.953422 -0.143624
  6 0.000002 9.265494 0.000004 0.726949 0.381438 -0.000001
  7 0.000000 7.076730 -0.000002 -0.538118 3.101480 -0.441890
  8 0.951412 1.721432 -0.411207 0.383446 2.858992 1.159967
  9 -20.611399 12.665756 -0.038444 -0.000001 3.141592 1.287665
  10 -0.000000 3.425923 -0.000000 -1.494881 -1.866197 0.087406
  11 0.000001 9.680594 -0.000001 -1.311140 -0.931330 0.741295
  12 -0.000001 9.265485 0.000003 -1.471235 -0.381438 0.000001
  13 0.000004 7.076727 -0.000000 0.041488 -2.934472 -0.090426
  14 6.656344 -10.563767 -5.479897 0.000000 -0.000000 1.570796
  15 -13.102754 -11.620028 5.775134 0.000000 -0.000000 1.570797
  16 -6.132846 -0.011674 0.211494 -1.570796 -0.000000 1.570796
  17 0.000000 3.379475 -0.000000 0.000000 -1.310649 1.463738
  18 0.000000 4.934430 0.000001 -2.203613 0.001668 -1.578213
  19 -0.000002 10.930450 0.000001 1.557601 -0.160497 0.245584
  20 -0.000002 15.790729 -0.000000 -2.089609 -0.025438 -0.164270
  21 0.013812 3.380049 -0.000000 0.000000 1.308847 -1.295905
  22 0.000000 4.888664 0.000002 -2.134047 -0.553171 1.442487
  23 -0.000001 10.958049 -0.000000 2.108200 -0.053962 -0.004371
  24 -0.000001 15.811121 -0.000003 -2.210962 0.193558 0.176376
  25 -7.731974 -5.381955 -22.590010 0.000000 -0.000000 1.570796
  26 12.950615 -6.309339 -6.853060 0.000000 0.000000 -1.570796
  27 7.262165 6.177730 -9.000132 0.000000 -0.000000 1.570796
  28 -14.316620 10.633931 11.487461 0.000000 -0.000000 1.570796
  29 -12.868131 7.239778 -16.367132 0.000000 -0.000000 1.570796
  30 12.980513 5.567562 -6.853060 0.000000 0.000000 -1.570796
end
