version 1
nodes
0 "Bone" -1
1 "Bone.002" 0
2 "Bone.003" 1
3 "Bone.006" 2
4 "Bone.007" 1
5 "Arm.L.002" 4
6 "Arm.L.005" 5
7 "Arm.L.006" 6
8 "Bone.004" 7
9 "Bone.005" 8
10 "Bone.008" 1
11 "Arm.R.002" 10
12 "Arm.R.005" 11
13 "Arm.R.006" 12
14 "ForearmIK.L" -1
15 "UpperarmIK.L" -1
16 "Bone.001" -1
17 "Leg.L.001" 16
18 "Leg.L.002" 17
19 "Leg.L.003" 18
20 "Leg.L.004" 19
21 "Leg.R.001" 16
22 "Leg.R.002" 21
23 "Leg.R.003" 22
24 "Leg.R.004" 23
25 "ShinIK.L" -1
26 "KneeIK.L" -1
27 "ForearmIK.R" -1
28 "UpperarmIK.R" -1
29 "ShinIK.R" -1
30 "KneeIK.R" -1
end
skeleton
  time 0
  0 -6.132845 -0.011673 4.311940 1.459445 -0.000000 0.882170
  1 0.000001 7.391150 -0.000000 0.277381 0.000000 -0.000000
  2 -0.000000 3.425920 0.000001 0.340412 -0.003251 -0.006818
  3 0.000000 4.689447 -0.000000 -0.629853 0.629574 -0.411891
  4 -0.000000 3.425920 0.000001 -1.467241 1.284281 -0.025779
  5 0.000000 9.617204 0.000000 -1.266796 -0.551700 2.752273
  6 0.000000 9.265488 0.000011 1.129243 0.381438 -0.000001
  7 -0.000001 7.076737 0.000000 -0.721189 2.943296 0.134525
  8 1.176013 1.805896 0.905735 0.559580 2.810959 1.161768
  9 -20.611408 12.665756 -0.038467 -0.000001 3.141592 1.287665
  10 -0.000000 3.425920 0.000001 -1.418417 -1.976210 0.051534
  11 -0.000000 9.680595 0.000001 -2.033611 0.061831 1.242220
  12 -0.000001 9.265488 0.000003 -1.546364 -0.381438 0.000001
  13 0.000000 7.076729 0.000001 0.149233 -3.065675 -0.005051
  14 -5.307477 -10.191478 7.096654 0.000000 -0.000000 1.570796
  15 -15.736041 2.462447 9.846846 0.000000 -0.000000 1.570797
  16 -6.132846 -0.011674 4.361635 -1.570796 -0.000000 1.570796
  17 0.000000 3.379475 -0.000000 0.000000 -1.310649 1.310113
  18 -0.000001 4.934430 -0.000000 -1.880015 0.312458 -1.819246
  19 -0.000002 10.930455 0.000004 1.137471 -0.059405 0.222502
  20 0.000003 15.790735 0.000005 -2.076427 -0.019244 -0.125835
  21 0.013774 3.378988 -0.000000 0.000000 1.308847 -1.449530
  22 -0.000000 4.888663 -0.000000 -2.134546 -0.250526 1.519512
  23 -0.000000 10.958050 0.000001 1.019582 -0.059223 -0.004334
  24 0.000005 15.811124 0.000003 -1.580032 0.106624 0.124665
  25 -11.128653 -5.381956 -22.215284 0.000000 -0.000000 1.570796
  26 12.950616 -11.935229 -6.853060 0.000000 0.000000 -1.570796
  27 6.178391 -3.991013 8.863547 0.000000 -0.000000 1.570796
  28 -14.316620 -1.526653 11.487461 0.000000 -0.000000 1.570796
  29 -0.994296 7.239778 -22.401857 0.000000 -0.000000 1.570796
  30 12.980513 5.567562 -6.853060 0.000000 0.000000 -1.570796
  time 1
  0 -6.132846 -0.011674 4.361635 2.036635 -0.000000 1.570796
  1 0.000000 7.391149 -0.000000 0.275257 0.091736 -0.046266
  2 0.000000 3.425923 -0.000000 0.340412 -0.003251 -0.006818
  3 0.000000 4.689446 -0.000000 -0.989222 -0.097630 0.201349
  4 0.000000 3.425923 -0.000000 -1.213551 1.692469 0.145750
  5 -0.000001 9.617201 0.000000 -1.699941 -0.543235 2.350878
  6 -0.000001 9.265491 0.000005 1.813428 0.381438 -0.000001
  7 0.000002 7.076730 -0.000002 -0.136259 3.115070 -0.018961
  8 0.951411 1.721431 -0.411207 0.383446 2.858993 1.159967
  9 -20.611395 12.665768 -0.038451 -0.000001 3.141592 1.287665
  10 0.000000 3.425923 -0.000000 -1.453492 -1.570796 0.000000
  11 0.000001 9.680593 0.000000 -2.462744 -0.620555 0.891345
  12 -0.000000 9.265492 -0.000000 -0.777401 -0.381438 0.000001
  13 0.000001 7.076729 0.000002 0.149233 -3.065675 -0.005051
  14 5.459206 -9.577449 4.454102 0.000000 -0.000000 1.570796
  15 -14.295469 -4.847698 11.487461 0.000000 -0.000000 1.570797
  16 -6.132846 -0.011674 4.361635 -1.570796 -0.000000 1.570796
  17 0.000000 3.379475 -0.000000 0.000000 -1.310649 1.463738
  18 0.000000 4.934430 0.000001 -2.175324 0.041857 -1.591640
  19 -0.000001 10.930459 0.000005 0.805830 0.008231 0.176318
  20 -0.000005 15.790743 0.000006 -1.369304 0.002390 -0.042581
  21 0.013812 3.380049 -0.000000 0.000000 1.308847 -1.295905
  22 0.000000 4.888664 0.000002 -1.165170 -0.398561 1.457415
  23 0.000005 10.958054 0.000003 0.652766 -0.060597 -0.003090
  24 0.000001 15.811129 0.000002 -2.167979 0.119682 0.099512
  25 2.913327 -5.381955 -22.402643 0.000000 -0.000000 1.570796
  26 12.950615 -6.309339 -6.853060 0.000000 0.000000 -1.570796
  27 7.262165 5.886607 2.088228 0.000000 -0.000000 1.570796
  28 -14.316620 -1.526653 11.487461 0.000000 -0.000000 1.570796
  29 -18.481302 7.239779 -22.401857 0.000000 -0.000000 1.570796
  30 12.980513 5.567562 -6.853060 0.000000 0.000000 -1.570796
  time 2
  0 -10.638143 -0.011674 2.400564 1.509570 0.000000 1.570796
  1 -0.000000 7.391148 -0.000001 0.171607 0.268216 -0.023935
  2 -0.000000 3.425923 0.000000 0.261347 -0.009530 -0.012320
  3 0.000000 4.689445 -0.000000 -0.989222 -0.097629 0.201348
  4 -0.000000 3.425923 0.000000 -1.213551 1.692469 0.145750
  5 0.000001 9.617203 -0.000001 -1.468689 -0.552902 2.270404
  6 -0.000002 9.265494 0.000004 0.736320 0.381437 -0.000001
  7 -0.000000 7.076732 -0.000001 -0.136260 3.115070 -0.018961
  8 0.951411 1.721434 -0.411206 0.383446 2.858993 1.159967
  9 -20.611401 12.665765 -0.038455 -0.000001 3.141592 1.287665
  10 -0.000000 3.425923 0.000000 -1.453492 -1.570796 0.000000
  11 0.000000 9.680593 -0.000000 -2.562980 -0.467994 1.173588
  12 -0.000003 9.265487 -0.000000 -0.005093 -0.381438 0.000000
  13 0.000001 7.076725 -0.000002 0.149233 -3.065675 -0.005051
  14 3.463160 -10.047348 4.454102 0.000000 -0.000000 1.570796
  15 -14.295469 -6.329920 11.487461 0.000000 -0.000000 1.570797
  16 -10.638144 -0.011674 2.400564 -1.570796 -0.000000 1.570796
  17 0.000000 3.379475 -0.000000 0.000000 -1.310649 1.552481
  18 0.000001 4.934430 -0.000001 -2.273048 -0.039451 -1.599804
  19 -0.000005 10.930455 0.000004 0.662455 0.031879 0.150110
  20 -0.000004 15.790755 0.000004 -1.112628 -0.003721 -0.002476
  21 0.013755 3.380659 -0.000000 0.000000 1.308847 -1.207162
  22 0.000001 4.888663 0.000003 -1.698505 -0.534812 1.435335
  23 0.000001 10.958050 -0.000001 1.319525 -0.057826 -0.004928
  24 -0.000001 15.811128 -0.000002 -2.345694 0.128379 0.102718
  25 2.913327 -5.381955 -22.402643 0.000000 -0.000000 1.570796
  26 12.950615 -6.309339 -6.853060 0.000000 0.000000 -1.570796
  27 2.698499 12.595865 2.088228 0.000000 -0.000000 1.570796
  28 -15.396384 3.526976 11.487461 0.000000 -0.000000 1.570796
  29 -18.481302 7.239779 -22.407465 0.000000 -0.000000 1.570796
  30 12.980513 5.567562 -6.853060 0.000000 0.000000 -1.570796
  time 3
  0 -11.099733 -0.011674 0.736786 1.440752 0.000000 1.570796
  1 0.000000 7.391150 -0.000000 -0.020892 0.368051 -0.038977
  2 -0.000000 3.425922 0.000001 0.114158 -0.022298 -0.021178
  3 -0.000000 4.689446 -0.000001 -0.989222 -0.097630 0.201349
  4 -0.000000 3.425922 0.000001 -1.213551 1.692469 0.145750
  5 0.000001 9.617206 -0.000000 -1.962949 -0.216907 2.326050
  6 -0.000003 9.265497 0.000005 1.265460 0.381438 -0.000001
  7 -0.000001 7.076734 0.000001 -0.136260 3.115070 -0.018961
  8 0.951410 1.721434 -0.411207 0.383446 2.858993 1.159967
  9 -20.611401 12.665771 -0.038452 -0.000001 3.141592 1.287664
  10 -0.000000 3.425922 0.000001 -1.453492 -1.570796 0.000000
  11 0.000000 9.680593 0.000000 -1.666316 -0.558228 0.693449
  12 0.000001 9.265492 -0.000001 -0.696211 -0.381438 0.000000
  13 0.000002 7.076732 -0.000000 0.149233 -3.065675 -0.005051
  14 -0.243783 -10.920018 4.454102 0.000000 -0.000000 1.570796
  15 -14.295469 -6.723162 11.487461 0.000000 -0.000000 1.570797
  16 -11.099793 -0.011674 0.737156 -1.570796 -0.000000 1.570796
  17 0.000000 3.379475 -0.000000 0.000000 -1.310649 1.565369
  18 -0.000002 4.934430 -0.000001 -2.455744 -0.066466 -1.583256
  19 -0.000002 10.930455 0.000003 0.874866 -0.004480 0.187703
  20 -0.000000 15.790730 -0.000001 -1.176703 -0.001232 -0.012324
  21 0.013747 3.380749 -0.000000 0.000000 1.308847 -1.194274
  22 0.000000 4.888664 0.000000 -1.825588 -0.574059 1.436074
  23 0.000001 10.958052 0.000002 1.527794 -0.056781 -0.005083
  24 -0.000000 15.811135 -0.000003 -2.370650 0.131635 0.108114
  25 2.913327 -5.381955 -22.402643 0.000000 -0.000000 1.570796
  26 12.950615 -6.309339 -6.853060 0.000000 0.000000 -1.570796
  27 -5.776881 15.067696 2.088228 0.000000 -0.000000 1.570796
  28 -16.476149 8.580606 11.487461 0.000000 -0.000000 1.570796
  29 -18.481302 7.239779 -22.420851 0.000000 -0.000000 1.570796
  30 12.980513 5.567562 -6.853060 0.000000 0.000000 -1.570796
  time 4
  0 -9.812022 -0.011674 1.676562 1.518057 0.000000 1.570796
  1 0.000000 7.391149 -0.000001 -0.115566 0.249529 -0.069304
  2 0.000000 3.425922 -0.000000 0.035161 -0.029650 -0.025133
  3 0.000000 4.689447 0.000000 -0.989222 -0.097629 0.201348
  4 0.000000 3.425922 -0.000000 -1.213550 1.692469 0.145751
  5 -0.000001 9.617206 -0.000000 -2.060463 0.015449 2.414741
  6 -0.000003 9.265499 0.000005 1.406297 0.381439 -0.000001
  7 -0.000001 7.076734 0.000000 -0.136260 3.115070 -0.018961
  8 0.951412 1.721432 -0.411208 0.383446 2.858993 1.159967
  9 -20.611401 12.665767 -0.038452 -0.000001 3.141592 1.287664
  10 0.000000 3.425922 -0.000000 -1.453492 -1.570796 0.000000
  11 -0.000000 9.680594 -0.000001 -0.908042 -0.217055 0.779154
  12 -0.000002 9.265488 0.000001 -1.397930 -0.381438 0.000001
  13 0.000002 7.076729 0.000001 0.149233 -3.065675 -0.005051
  14 -2.239830 -11.389917 4.454102 0.000000 -0.000000 1.570796
  15 -14.295469 -6.753412 11.487461 0.000000 -0.000000 1.570797
  16 -9.812066 -0.011674 1.676835 -1.570796 -0.000000 1.570796
  17 0.000000 3.379476 -0.000000 0.000000 -1.310649 1.539024
  18 -0.000001 4.934430 0.000001 -2.397261 -0.041159 -1.583274
  19 0.000002 10.930453 0.000002 0.881374 -0.005720 0.188731
  20 -0.000003 15.790731 0.000004 -1.240936 0.000623 -0.022332
  21 0.013764 3.380567 -0.000000 0.000000 1.308847 -1.220618
  22 0.000000 4.888663 -0.000000 -1.673609 -0.528639 1.438922
  23 -0.000003 10.958050 0.000003 1.352118 -0.057665 -0.004966
  24 -0.000001 15.811132 0.000002 -2.364487 0.131211 0.107859
  25 2.913327 -5.381955 -22.402643 0.000000 -0.000000 1.570796
  26 12.950615 -6.309339 -6.853060 0.000000 0.000000 -1.570796
  27 -10.340546 15.420815 2.088228 0.000000 -0.000000 1.570796
  28 -15.916270 5.290738 11.487461 0.000000 -0.000000 1.570796
  29 -18.481302 7.239779 -22.436823 0.000000 -0.000000 1.570796
  30 12.980513 5.567562 -6.853060 0.000000 0.000000 -1.570796
  time 5
  0 -7.420558 -0.011674 3.421861 1.662145 -0.000000 1.570796
  1 0.000002 7.391147 0.000002 0.082408 0.133100 -0.052936
  2 -0.000000 3.425923 -0.000000 0.187742 -0.015751 -0.016984
  3 0.000001 4.689446 -0.000000 -0.989222 -0.097630 0.201348
  4 -0.000000 3.425923 -0.000000 -1.213550 1.692469 0.145751
  5 0.000000 9.617204 -0.000001 -1.797695 -0.245409 2.599846
  6 -0.000000 9.265494 0.000005 1.328002 0.381438 -0.000001
  7 0.000000 7.076734 -0.000001 -0.136259 3.115070 -0.018961
  8 0.951413 1.721433 -0.411207 0.383446 2.858993 1.159967
  9 -20.611397 12.665769 -0.038450 -0.000001 3.141592 1.287665
  10 -0.000000 3.425923 -0.000000 -1.453492 -1.570796 0.000000
  11 0.000001 9.680594 -0.000000 -1.100534 0.004659 0.922281
  12 -0.000004 9.265491 -0.000006 -1.226255 -0.381438 0.000001
  13 0.000003 7.076735 0.000002 0.149233 -3.065675 -0.005052
  14 1.609688 -9.676788 4.454102 0.000000 -0.000000 1.570796
  15 -14.295469 -7.146655 11.487461 0.000000 -0.000000 1.570797
  16 -7.420573 -0.011674 3.421956 -1.570796 -0.000000 1.570796
  17 0.000000 3.379474 -0.000000 0.000000 -1.310649 1.490083
  18 -0.000001 4.934430 -0.000002 -2.262162 0.010698 -1.587528
  19 -0.000006 10.930454 0.000002 0.848965 0.000384 0.183532
  20 -0.000005 15.790742 0.000002 -1.305183 0.001833 -0.032439
  21 0.013795 3.380231 -0.000000 0.000000 1.308847 -1.269560
  22 0.000000 4.888662 0.000000 -1.368272 -0.444480 1.448863
  23 -0.000003 10.958049 0.000000 0.950062 -0.059517 -0.004138
  24 0.000002 15.811129 0.000005 -2.321307 0.128287 0.105997
  25 2.913327 -5.381955 -22.402643 0.000000 -0.000000 1.570796
  26 12.950615 -6.309339 -6.853060 0.000000 0.000000 -1.570796
  27 -8.349416 12.470210 1.766891 0.000000 -0.000000 1.570796
  28 -14.876497 -0.819014 11.487461 0.000000 -0.000000 1.570796
  29 -18.481302 7.239779 -22.450205 0.000000 -0.000000 1.570796
  30 12.980513 5.567562 -6.853060 0.000000 0.000000 -1.570796
end
