version 1
nodes
0 "Bone" -1
1 "Bone.002" 0
2 "Bone.003" 1
3 "Bone.006" 2
4 "Bone.007" 1
5 "Arm.L.002" 4
6 "Arm.L.005" 5
7 "Arm.L.006" 6
8 "Bone.004" 7
9 "Bone.005" 8
10 "Bone.008" 1
11 "Arm.R.002" 10
12 "Arm.R.005" 11
13 "Arm.R.006" 12
14 "ForearmIK.L" -1
15 "UpperarmIK.L" -1
16 "Bone.001" -1
17 "Leg.L.001" 16
18 "Leg.L.002" 17
19 "Leg.L.003" 18
20 "Leg.L.004" 19
21 "Leg.R.001" 16
22 "Leg.R.002" 21
23 "Leg.R.003" 22
24 "Leg.R.004" 23
25 "ShinIK.L" -1
26 "KneeIK.L" -1
27 "ForearmIK.R" -1
28 "UpperarmIK.R" -1
29 "ShinIK.R" -1
30 "KneeIK.R" -1
end
skeleton
  time 0
  0 -6.132845 -0.011674 4.311940 1.459445 -0.000000 1.158858
  1 0.000000 7.391149 0.000000 0.277381 0.000000 -0.000000
  2 -0.000000 3.425921 0.000000 0.333305 0.246568 -0.049788
  3 0.000000 4.689448 -0.000000 -0.320043 -0.014071 -0.057858
  4 -0.000000 3.425921 0.000000 -1.467241 1.284281 -0.025779
  5 -0.000000 9.617202 0.000000 -1.185299 -0.520923 2.483881
  6 -0.000002 9.265486 0.000009 1.195559 0.381439 -0.000001
  7 -0.000003 7.076731 0.000001 -0.394657 2.149336 0.107040
  8 1.176012 1.805897 0.905733 0.559581 2.810959 1.161768
  9 -20.611387 12.665760 -0.038454 -0.000001 3.141592 1.287664
  10 -0.000000 3.425921 0.000000 -1.418417 -1.976210 0.051534
  11 -0.000002 9.680595 0.000001 -2.303363 -0.479471 0.848248
  12 0.000001 9.265491 0.000002 -0.714947 -0.381438 0.000001
  13 0.000003 7.076730 0.000001 0.149233 -3.065675 -0.005052
  14 -2.689433 -11.619291 8.135836 0.000000 -0.000000 1.570796
  15 -15.736041 2.462447 9.846846 0.000000 -0.000000 1.570797
  16 -6.132846 -0.011674 4.311940 -1.570796 -0.000000 1.570796
  17 0.000000 3.379474 -0.000000 0.000000 -1.310649 1.260346
  18 0.000001 4.934430 -0.000001 -1.482468 0.467198 -1.800453
  19 -0.000001 10.930454 0.000006 0.862244 -0.002097 0.185685
  20 0.000006 15.790740 0.000009 -2.178653 -0.135404 -0.280622
  21 0.013728 3.378648 -0.000000 0.000000 1.308847 -1.499297
  22 -0.000001 4.888664 0.000000 -2.101629 -0.182915 1.713284
  23 -0.000002 10.958046 0.000002 1.032484 -0.059167 -0.004368
  24 -0.000000 15.811120 0.000003 -1.714853 0.093674 0.009324
  25 -17.119486 -5.381955 -22.215284 0.000000 -0.000000 1.570796
  26 12.950616 -11.935229 -6.853060 0.000000 0.000000 -1.570796
  27 6.067386 -4.781824 7.292413 0.000000 -0.000000 1.570796
  28 -14.316620 10.633931 11.487461 0.000000 -0.000000 1.570796
  29 -2.584532 6.393286 -22.500784 0.000000 -0.000000 1.570796
  30 12.980513 8.377898 -6.853060 0.000000 0.000000 -1.570796
  time 1
  0 -6.132846 -0.011674 4.361635 2.036635 -0.000000 1.570796
  1 0.000000 7.391149 -0.000000 0.275257 0.091736 -0.046266
  2 0.000000 3.425923 -0.000000 0.340412 -0.003251 -0.006818
  3 0.000000 4.689446 -0.000000 -0.989222 -0.097630 0.201349
  4 0.000000 3.425923 -0.000000 -1.213551 1.692469 0.145750
  5 -0.000001 9.617201 0.000000 1.233582 -2.432942 -0.338301
  6 -0.000000 9.265491 0.000005 1.811706 0.381438 -0.000001
  7 0.000000 7.076730 -0.000002 -0.136259 3.115070 -0.018961
  8 0.951410 1.721432 -0.411207 0.383447 2.858993 1.159967
  9 -20.611387 12.665768 -0.038469 -0.000000 3.141593 1.287664
  10 0.000000 3.425923 -0.000000 -1.453492 -1.570796 0.000000
  11 0.000001 9.680593 0.000000 -1.730943 -1.185702 0.120574
  12 -0.000000 9.265492 -0.000001 -0.777401 -0.381438 0.000001
  13 0.000001 7.076731 0.000001 0.149233 -3.065675 -0.005051
  14 5.459206 -7.963660 4.454102 0.000000 -0.000000 1.570796
  15 -14.295469 -11.620027 11.487461 0.000000 -0.000000 1.570797
  16 -6.132846 -0.011674 4.361635 -1.570796 -0.000000 1.570796
  17 0.000000 3.379475 -0.000000 0.000000 -1.310649 1.463738
  18 0.000000 4.934430 0.000001 -2.198047 0.039241 -1.589644
  19 -0.000002 10.930458 0.000005 0.838159 0.002379 0.181755
  20 -0.000003 15.790744 0.000006 -1.369304 0.002390 -0.042581
  21 0.013812 3.380049 -0.000000 0.000000 1.308847 -1.295905
  22 0.000000 4.888664 0.000002 -1.199543 -0.402036 1.455248
  23 0.000007 10.958052 0.000003 0.722597 -0.060373 -0.003365
  24 0.000003 15.811129 -0.000000 -2.235366 0.255825 0.239300
  25 2.913327 -5.381955 -22.215284 0.000000 -0.000000 1.570796
  26 12.950615 -6.309339 -6.853060 0.000000 0.000000 -1.570796
  27 7.262165 5.886607 2.088228 0.000000 -0.000000 1.570796
  28 -14.316620 10.633931 11.487461 0.000000 -0.000000 1.570796
  29 -18.481302 7.239779 -22.051115 0.000000 -0.000000 1.570796
  30 12.980513 5.567562 -6.853060 0.000000 0.000000 -1.570796
  time 2
  0 -6.132846 -0.011674 4.139840 2.036635 -0.000000 1.570796
  1 0.000000 7.391149 -0.000000 0.275531 0.086592 -0.043732
  2 -0.000000 3.425922 0.000000 0.340412 -0.003251 -0.006818
  3 0.000000 4.689447 -0.000001 -0.974050 -0.094848 0.192305
  4 -0.000000 3.425922 0.000000 -1.213550 1.692469 0.145750
  5 0.000001 9.617206 0.000001 1.245959 -2.429471 -0.327920
  6 -0.000001 9.265493 0.000007 1.753474 0.381438 -0.000000
  7 0.000002 7.076734 -0.000002 -0.136260 3.115070 -0.018961
  8 0.951413 1.721431 -0.411206 0.384581 2.882125 1.154743
  9 -20.611397 12.665775 -0.038474 -0.000000 -3.141593 1.287664
  10 -0.000000 3.425922 0.000000 -1.453492 -1.570796 0.000000
  11 -0.000001 9.680593 0.000001 -1.763414 -1.183993 0.127084
  12 -0.000001 9.265488 -0.000001 -0.688289 -0.381438 0.000001
  13 0.000002 7.076731 0.000001 0.149233 -3.065675 -0.005052
  14 5.459206 -7.963660 3.876494 0.000000 -0.000000 1.570796
  15 -14.295469 -11.620027 11.487461 0.000000 -0.000000 1.570797
  16 -6.132846 -0.011674 4.139840 -1.570796 -0.000000 1.570796
  17 0.000000 3.379474 -0.000000 0.000000 -1.310649 1.460754
  18 -0.000000 4.934431 -0.000001 -2.226132 0.037927 -1.584897
  19 -0.000003 10.930448 0.000001 0.903484 -0.009982 0.192167
  20 -0.000005 15.790738 0.000002 -1.392865 0.002685 -0.046674
  21 0.013812 3.380027 -0.000000 0.000000 1.308847 -1.298889
  22 0.000001 4.888663 0.000002 -1.218840 -0.401798 1.455824
  23 0.000007 10.958046 0.000002 0.761035 -0.060241 -0.003509
  24 0.000004 15.811133 0.000001 -2.235366 0.255825 0.239300
  25 2.498399 -5.381955 -22.215284 0.000000 -0.000000 1.570796
  26 12.950615 -6.309339 -6.853060 0.000000 0.000000 -1.570796
  27 7.262165 5.886607 1.510620 0.000000 -0.000000 1.570796
  28 -14.316620 10.633931 11.487461 0.000000 -0.000000 1.570796
  29 -18.481302 7.239779 -22.051115 0.000000 -0.000000 1.570796
  30 12.980513 5.567562 -6.853060 0.000000 0.000000 -1.570796
  time 3
  0 -6.132846 -0.011674 3.918045 2.036635 -0.000000 1.570796
  1 0.000000 7.391149 0.000000 0.276148 0.072001 -0.036561
  2 -0.000000 3.425922 0.000001 0.340412 -0.003251 -0.006818
  3 -0.000000 4.689447 0.000000 -0.936051 -0.086229 0.168047
  4 -0.000000 3.425922 0.000001 -1.213552 1.692469 0.145749
  5 0.000002 9.617205 -0.000000 1.249855 -2.412270 -0.317185
  6 0.000001 9.265491 0.000008 1.746744 0.381439 -0.000001
  7 0.000001 7.076735 -0.000003 -0.136259 3.115070 -0.018961
  8 0.951416 1.721431 -0.411209 0.403982 2.910679 1.152067
  9 -20.611397 12.665768 -0.038475 -0.000000 -3.141593 1.287664
  10 -0.000000 3.425922 0.000001 -1.453492 -1.570796 0.000000
  11 0.000001 9.680595 0.000000 -1.769034 -1.166910 0.157113
  12 -0.000001 9.265485 0.000001 -0.724356 -0.381438 0.000000
  13 -0.000001 7.076729 0.000001 0.149233 -3.065675 -0.005051
  14 5.459206 -7.963660 3.663692 0.000000 -0.000000 1.570796
  15 -14.295469 -11.620027 11.487461 0.000000 -0.000000 1.570797
  16 -6.132846 -0.011674 3.918045 -1.570796 -0.000000 1.570796
  17 0.000000 3.379475 -0.000000 0.000000 -1.310649 1.452513
  18 -0.000000 4.934430 0.000001 -2.248539 0.040353 -1.577330
  19 -0.000000 10.930451 0.000000 1.005915 -0.030708 0.206843
  20 0.000005 15.790729 0.000007 -1.456289 0.002639 -0.057763
  21 0.013811 3.379971 -0.000000 0.000000 1.308847 -1.307130
  22 0.000001 4.888663 0.000002 -1.235625 -0.395690 1.457989
  23 0.000008 10.958050 0.000004 0.793489 -0.060125 -0.003627
  24 -0.000002 15.811132 0.000005 -2.155286 0.236831 0.239323
  25 1.351247 -5.381955 -22.215284 0.000000 -0.000000 1.570796
  26 12.950615 -6.309339 -6.853060 0.000000 0.000000 -1.570796
  27 7.262165 5.886607 1.297817 0.000000 -0.000000 1.570796
  28 -14.316620 10.633931 11.487461 0.000000 -0.000000 1.570796
  29 -18.481302 7.239779 -22.051115 0.000000 -0.000000 1.570796
  30 12.980513 5.567562 -6.853060 0.000000 0.000000 -1.570796
  time 4
  0 -6.132846 -0.011674 4.037579 2.024735 -0.000000 1.570796
  1 0.000001 7.391148 0.000000 0.276861 0.049631 -0.025599
  2 0.000001 3.425922 0.000000 0.340412 -0.003251 -0.006818
  3 0.000000 4.689447 0.000000 -0.886687 -0.071210 0.133061
  4 0.000001 3.425922 0.000000 -1.213552 1.692469 0.145750
  5 -0.000001 9.617202 0.000001 1.262257 -2.388242 -0.291637
  6 0.000001 9.265492 0.000005 1.688098 0.381439 -0.000001
  7 -0.000001 7.076729 -0.000003 -0.136260 3.115070 -0.018961
  8 0.951410 1.721432 -0.411206 0.415649 2.924227 1.148390
  9 -20.611383 12.665764 -0.038470 -0.000000 3.141593 1.287664
  10 0.000001 3.425922 0.000000 -1.453492 -1.570796 0.000000
  11 0.000000 9.680594 -0.000000 -1.780349 -1.147663 0.173644
  12 -0.000000 9.265486 -0.000001 -0.688131 -0.381438 0.000001
  13 0.000001 7.076730 0.000000 0.149234 -3.065675 -0.005051
  14 5.459206 -7.963660 3.633291 0.000000 -0.000000 1.570796
  15 -14.295469 -11.620027 11.487461 0.000000 -0.000000 1.570797
  16 -6.132846 -0.011674 4.037579 -1.570796 -0.000000 1.570796
  17 0.000000 3.379475 -0.000000 0.000000 -1.310649 1.440063
  18 -0.000000 4.934429 -0.000000 -2.217574 0.050578 -1.573166
  19 -0.000005 10.930451 0.000000 1.071105 -0.044663 0.215068
  20 0.000003 15.790729 0.000006 -1.548752 0.001211 -0.073910
  21 0.013811 3.379885 -0.000000 0.000000 1.308847 -1.319579
  22 -0.000001 4.888663 -0.000001 -1.331037 -0.393653 1.453774
  23 -0.000006 10.958051 0.000002 0.995025 -0.059328 -0.004267
  24 -0.000001 15.811137 0.000003 -1.972299 0.196429 0.240580
  25 -0.381685 -5.381955 -22.215284 0.000000 -0.000000 1.570796
  26 12.950615 -6.309339 -6.853060 0.000000 0.000000 -1.570796
  27 7.262165 5.886607 1.267417 0.000000 -0.000000 1.570796
  28 -14.316620 10.633931 11.487461 0.000000 -0.000000 1.570796
  29 -18.449841 7.239779 -20.578588 0.000000 -0.000000 1.570796
  30 12.980513 5.567562 -6.853060 0.000000 0.000000 -1.570796
  time 5
  0 -6.132846 -0.011674 4.336413 1.994965 -0.000000 1.570796
  1 0.000001 7.391149 -0.000000 0.277399 0.021176 -0.011695
  2 0.000000 3.425923 -0.000000 0.340412 -0.003251 -0.006818
  3 0.000000 4.689447 0.000001 -0.837559 -0.049868 0.091802
  4 0.000000 3.425923 -0.000000 -1.213551 1.692469 0.145750
  5 -0.000000 9.617206 -0.000001 1.270782 -2.357776 -0.258706
  6 0.000002 9.265493 0.000005 1.634632 0.381438 -0.000001
  7 -0.000002 7.076730 -0.000003 -0.136259 3.115070 -0.018961
  8 0.951411 1.721432 -0.411207 0.407015 2.909406 1.134771
  9 -20.611391 12.665754 -0.038463 -0.000000 3.141593 1.287664
  10 0.000000 3.425923 -0.000000 -1.453492 -1.570796 0.000000
  11 0.000000 9.680597 -0.000000 -1.778266 -1.118729 0.190784
  12 -0.000001 9.265490 -0.000001 -0.680596 -0.381438 0.000001
  13 0.000001 7.076732 -0.000000 0.149233 -3.065675 -0.005052
  14 5.459206 -7.963660 4.053998 0.000000 -0.000000 1.570796
  15 -14.295469 -11.620027 11.487461 0.000000 -0.000000 1.570797
  16 -6.132846 -0.011674 4.336413 -1.570796 -0.000000 1.570796
  17 0.000000 3.379474 -0.000000 0.000000 -1.310649 1.424453
  18 0.000001 4.934430 -0.000003 -2.143488 0.067096 -1.572441
  19 -0.000005 10.930447 0.000001 1.103379 -0.051769 0.218804
  20 0.000009 15.790719 0.000006 -1.658751 -0.002471 -0.092908
  21 0.013810 3.379777 -0.000000 0.000000 1.308847 -1.335189
  22 0.000001 4.888662 0.000001 -1.486875 -0.400885 1.441186
  23 -0.000003 10.958056 0.000003 1.347707 -0.057687 -0.004961
  24 -0.000001 15.811128 0.000000 -1.766570 0.156336 0.250461
  25 -2.553952 -5.381955 -22.215284 0.000000 -0.000000 1.570796
  26 12.950615 -6.309339 -6.853060 0.000000 0.000000 -1.570796
  27 7.262165 5.886607 1.688124 0.000000 -0.000000 1.570796
  28 -14.316620 10.633931 11.487461 0.000000 -0.000000 1.570796
  29 -18.229589 7.239779 -17.339018 0.000000 -0.000000 1.570796
  30 12.980513 5.567562 -6.853060 0.000000 0.000000 -1.570796
  time 6
  0 -6.132846 -0.011674 4.724901 1.956240 -0.000000 1.570796
  1 0.000001 7.391148 0.000001 0.277519 -0.011639 0.004317
  2 0.000000 3.425923 -0.000000 0.340412 -0.003251 -0.006818
  3 -0.000000 4.689447 -0.000000 -0.800117 -0.023498 0.048218
  4 0.000000 3.425923 -0.000000 -1.213551 1.692469 0.145750
  5 -0.000000 9.617204 0.000000 1.266720 -2.317635 -0.228442
  6 -0.000000 9.265494 0.000006 1.637421 0.381439 -0.000001
  7 -0.000000 7.076732 -0.000004 -0.136259 3.115070 -0.018961
  8 0.951410 1.721432 -0.411207 0.386682 2.875336 1.108310
  9 -20.611391 12.665756 -0.038465 -0.000000 3.141593 1.287664
  10 0.000000 3.425923 -0.000000 -1.453492 -1.570796 0.000000
  11 0.000001 9.680595 -0.000001 -1.741217 -1.078419 0.216566
  12 -0.000001 9.265486 -0.000001 -0.789630 -0.381438 0.000000
  13 0.000000 7.076729 0.000001 0.149233 -3.065675 -0.005051
  14 5.459206 -7.963660 5.057220 0.000000 -0.000000 1.570796
  15 -14.295469 -11.620027 11.487461 0.000000 -0.000000 1.570797
  16 -6.132846 -0.011674 4.724901 -1.570796 -0.000000 1.570796
  17 0.000000 3.379475 -0.000000 0.000000 -1.310649 1.406734
  18 -0.000000 4.934430 -0.000001 -2.031048 0.089833 -1.574892
  19 -0.000005 10.930450 0.000004 1.096866 -0.050325 0.218069
  20 0.000003 15.790730 0.000003 -1.773828 -0.008567 -0.112320
  21 0.013810 3.379656 -0.000000 0.000000 1.308847 -1.352909
  22 -0.000000 4.888663 -0.000000 -1.619641 -0.406706 1.427190
  23 0.000000 10.958045 0.000002 1.642471 -0.056199 -0.005075
  24 0.000000 15.811127 -0.000005 -1.592170 0.124271 0.266165
  25 -5.019108 -5.381955 -22.215284 0.000000 -0.000000 1.570796
  26 12.950615 -6.309339 -6.853060 0.000000 0.000000 -1.570796
  27 7.262165 5.886607 2.691346 0.000000 -0.000000 1.570796
  28 -14.316620 10.633931 11.487461 0.000000 -0.000000 1.570796
  29 -17.631765 7.239779 -14.099453 0.000000 -0.000000 1.570796
  30 12.980513 5.567562 -6.853060 0.000000 0.000000 -1.570796
  time 7
  0 -6.132846 -0.011674 5.113387 1.917515 -0.000000 1.570796
  1 -0.000000 7.391148 0.000000 0.277052 -0.047057 0.021614
  2 -0.000000 3.425923 -0.000000 0.340412 -0.003251 -0.006818
  3 0.000000 4.689447 0.000001 -0.785402 0.005341 0.005341
  4 -0.000000 3.425923 -0.000000 -1.213551 1.692469 0.145750
  5 0.000000 9.617208 -0.000001 1.259899 -2.267303 -0.200521
  6 0.000001 9.265494 0.000006 1.661513 0.381439 -0.000001
  7 -0.000002 7.076735 -0.000003 -0.136259 3.115070 -0.018960
  8 0.951414 1.721431 -0.411209 0.361056 2.835377 1.075992
  9 -20.611403 12.665760 -0.038461 -0.000001 3.141593 1.287665
  10 -0.000000 3.425923 -0.000000 -1.453492 -1.570796 0.000000
  11 -0.000000 9.680595 -0.000001 -1.700360 -1.038213 0.250807
  12 0.000001 9.265487 -0.000000 -0.930195 -0.381438 0.000001
  13 0.000001 7.076731 0.000001 0.149233 -3.065675 -0.005052
  14 5.459206 -7.963660 6.254613 0.000000 -0.000000 1.570796
  15 -14.295469 -11.620027 11.487461 0.000000 -0.000000 1.570797
  16 -6.132846 -0.011674 5.113387 -1.570796 -0.000000 1.570796
  17 0.000000 3.379475 -0.000000 0.000000 -1.310649 1.387959
  18 -0.000000 4.934430 0.000003 -1.889290 0.118444 -1.578986
  19 -0.000003 10.930456 0.000006 1.050771 -0.040252 0.212599
  20 0.000006 15.790734 0.000006 -1.881046 -0.016252 -0.129809
  21 0.013809 3.379525 -0.000000 0.000000 1.308847 -1.371684
  22 -0.000000 4.888662 0.000000 -1.746740 -0.398868 1.425551
  23 0.000001 10.958046 0.000001 1.797721 -0.055420 -0.004957
  24 -0.000000 15.811120 -0.000001 -1.455301 0.098115 0.275243
  25 -7.630710 -5.381955 -22.215284 0.000000 -0.000000 1.570796
  26 12.950615 -6.309339 -6.853060 0.000000 0.000000 -1.570796
  27 7.262165 5.886607 3.888739 0.000000 -0.000000 1.570796
  28 -14.316620 10.633931 11.487461 0.000000 -0.000000 1.570796
  29 -16.467588 7.239779 -12.626926 0.000000 -0.000000 1.570796
  30 12.980513 5.567562 -6.853060 0.000000 0.000000 -1.570796
  time 8
  0 -6.132846 -0.011674 5.412222 1.887744 0.000000 1.570796
  1 -0.000000 7.391149 0.000001 0.275932 -0.083309 0.039383
  2 -0.000000 3.425923 -0.000000 0.340412 -0.003251 -0.006817
  3 0.000000 4.689447 0.000000 -0.801333 0.033356 -0.035120
  4 -0.000000 3.425923 -0.000000 -1.213551 1.692469 0.145751
  5 -0.000000 9.617204 -0.000000 1.256072 -2.212459 -0.172002
  6 -0.000001 9.265493 0.000006 1.676771 0.381438 -0.000001
  7 0.000001 7.076734 -0.000003 -0.136260 3.115070 -0.018961
  8 0.951413 1.721432 -0.411208 0.338022 2.802337 1.046145
  9 -20.611406 12.665779 -0.038465 -0.000000 3.141592 1.287664
  10 -0.000000 3.425923 -0.000000 -1.453492 -1.570796 0.000000
  11 -0.000000 9.680596 0.000001 -1.669227 -1.002299 0.288599
  12 -0.000001 9.265490 -0.000003 -1.051386 -0.381438 0.000001
  13 0.000002 7.076734 0.000002 0.149233 -3.065675 -0.005052
  14 5.459206 -7.963660 7.257836 0.000000 -0.000000 1.570796
  15 -14.295469 -11.620027 11.487461 0.000000 -0.000000 1.570797
  16 -6.132846 -0.011674 5.412222 -1.570796 -0.000000 1.570796
  17 0.000000 3.379475 -0.000000 0.000000 -1.310649 1.369183
  18 -0.000000 4.934429 0.000002 -1.730866 0.151485 -1.582568
  19 -0.000003 10.930455 0.000007 0.971392 -0.023551 0.202130
  20 0.000004 15.790733 0.000006 -1.970033 -0.024176 -0.143800
  21 0.013808 3.379395 -0.000000 0.000000 1.308847 -1.390460
  22 -0.000001 4.888664 -0.000000 -2.104617 -0.376840 1.455675
  23 0.000001 10.958046 0.000001 1.876724 -0.055033 -0.004851
  24 -0.000002 15.811121 -0.000008 -1.352853 0.078431 0.280402
  25 -10.242311 -5.381955 -22.215284 0.000000 -0.000000 1.570796
  26 12.950615 -6.309339 -6.853060 0.000000 0.000000 -1.570796
  27 7.262165 5.886607 4.891963 0.000000 -0.000000 1.570796
  28 -14.316620 10.633931 11.487461 0.000000 -0.000000 1.570796
  29 -11.885393 7.239779 -13.902397 0.000000 -0.000000 1.570796
  30 12.980513 5.567562 -6.853060 0.000000 0.000000 -1.570796
  time 9
  0 -6.132846 -0.011674 5.531756 1.875844 -0.000000 1.570796
  1 0.000001 7.391148 0.000001 0.274208 -0.118625 0.056810
  2 0.000000 3.425924 -0.000000 0.340412 -0.003251 -0.006818
  3 0.000000 4.689446 0.000000 -0.842206 0.058010 -0.073047
  4 0.000000 3.425924 -0.000000 -1.213551 1.692469 0.145749
  5 -0.000000 9.617203 -0.000000 1.253341 -2.166049 -0.136131
  6 0.000000 9.265492 0.000005 1.662570 0.381439 -0.000001
  7 -0.000001 7.076733 -0.000001 -0.136260 3.115070 -0.018960
  8 0.951412 1.721431 -0.411207 0.327130 2.788195 1.028629
  9 -20.611395 12.665762 -0.038461 -0.000001 3.141592 1.287664
  10 0.000000 3.425924 -0.000000 -1.453492 -1.570796 0.000000
  11 -0.000001 9.680596 -0.000000 -1.649847 -0.968794 0.321925
  12 -0.000001 9.265492 -0.000001 -1.125396 -0.381438 0.000001
  13 0.000000 7.076733 0.000002 0.149233 -3.065675 -0.005051
  14 5.459206 -7.963660 7.678542 0.000000 -0.000000 1.570796
  15 -14.295469 -11.620027 11.487461 0.000000 -0.000000 1.570797
  16 -6.132846 -0.011674 5.531756 -1.570796 -0.000000 1.570796
  17 0.000000 3.379475 -0.000000 0.000000 -1.310649 1.351462
  18 -0.000000 4.934429 0.000001 -1.571581 0.185993 -1.584013
  19 -0.000001 10.930454 0.000004 0.874256 -0.004366 0.187605
  20 0.000005 15.790732 0.000008 -2.040151 -0.031522 -0.154432
  21 0.013808 3.379274 -0.000000 0.000000 1.308847 -1.408181
  22 -0.000000 4.888663 0.000000 -2.427553 -0.333990 1.493916
  23 0.000003 10.958053 -0.000003 1.663185 -0.056095 -0.005066
  24 -0.000002 15.811131 -0.000002 -1.280652 0.064781 0.283466
  25 -12.707471 -5.381955 -22.215284 0.000000 -0.000000 1.570796
  26 12.950615 -6.309339 -6.853060 0.000000 0.000000 -1.570796
  27 7.262165 5.886607 5.312668 0.000000 -0.000000 1.570796
  28 -14.316620 10.633931 11.487461 0.000000 -0.000000 1.570796
  29 -4.246823 7.239779 -16.770941 0.000000 -0.000000 1.570796
  30 12.980513 5.567562 -6.853060 0.000000 0.000000 -1.570796
  time 10
  0 -6.132846 -0.011674 5.412222 1.887744 0.000000 1.570796
  1 -0.000000 7.391149 0.000001 0.272050 -0.151263 0.073058
  2 0.000000 3.425923 -0.000000 0.340412 -0.003251 -0.006818
  3 -0.000000 4.689447 -0.000000 -0.898196 0.077773 -0.107863
  4 0.000000 3.425923 -0.000000 -1.213551 1.692469 0.145750
  5 -0.000000 9.617203 0.000000 1.247985 -2.133184 -0.094907
  6 0.000001 9.265495 0.000003 1.632220 0.381439 -0.000001
  7 -0.000003 7.076731 -0.000001 -0.136260 3.115070 -0.018961
  8 0.951412 1.721431 -0.411209 0.326711 2.789165 1.021899
  9 -20.611395 12.665769 -0.038465 -0.000000 3.141593 1.287664
  10 0.000000 3.425923 -0.000000 -1.453492 -1.570796 0.000000
  11 0.000000 9.680594 -0.000001 -1.637668 -0.936874 0.350670
  12 -0.000000 9.265488 -0.000001 -1.168988 -0.381438 0.000001
  13 0.000001 7.076732 0.000002 0.149233 -3.065675 -0.005052
  14 5.459206 -7.963660 7.426049 0.000000 -0.000000 1.570796
  15 -14.295469 -11.620027 11.487461 0.000000 -0.000000 1.570797
  16 -6.132846 -0.011674 5.412222 -1.570796 -0.000000 1.570796
  17 0.000000 3.379475 -0.000000 0.000000 -1.310649 1.335850
  18 0.000000 4.934428 0.000000 -1.429390 0.217958 -1.583239
  19 -0.000003 10.930457 0.000007 0.782750 0.012294 0.172323
  20 0.000004 15.790735 0.000004 -2.093321 -0.037791 -0.162248
  21 0.013807 3.379167 -0.000000 0.000000 1.308847 -1.423792
  22 0.000000 4.888665 0.000001 -2.344335 -0.286748 1.506607
  23 -0.000002 10.958046 0.000002 1.140375 -0.058683 -0.004624
  24 0.000006 15.811131 0.000004 -1.234284 0.056291 0.285430
  25 -14.879736 -5.381955 -22.215284 0.000000 -0.000000 1.570796
  26 12.950615 -6.309339 -6.853060 0.000000 0.000000 -1.570796
  27 7.262165 5.886607 5.060175 0.000000 -0.000000 1.570796
  28 -14.316620 10.633931 11.487461 0.000000 -0.000000 1.570796
  29 1.816945 7.239779 -19.795752 0.000000 -0.000000 1.570796
  30 12.980513 5.567562 -6.853060 0.000000 0.000000 -1.570796
  time 11
  0 -6.132846 -0.011674 5.113387 1.917515 -0.000000 1.570796
  1 -0.000000 7.391148 0.000001 0.269733 -0.179513 0.087268
  2 -0.000001 3.425923 -0.000000 0.340412 -0.003251 -0.006817
  3 0.000000 4.689447 0.000000 -0.959250 0.092032 -0.138183
  4 -0.000001 3.425923 -0.000000 -1.213550 1.692469 0.145752
  5 0.000000 9.617204 -0.000000 1.241506 -2.108297 -0.058344
  6 0.000001 9.265497 0.000004 1.609164 0.381439 -0.000001
  7 -0.000001 7.076733 -0.000001 -0.136259 3.115070 -0.018961
  8 0.951412 1.721431 -0.411207 0.327906 2.792857 1.017262
  9 -20.611399 12.665769 -0.038465 -0.000000 3.141593 1.287664
  10 -0.000001 3.425923 -0.000000 -1.453492 -1.570796 0.000000
  11 0.000000 9.680593 0.000000 -1.627667 -0.909331 0.378251
  12 -0.000001 9.265490 -0.000002 -1.211410 -0.381438 0.000001
  13 0.000003 7.076728 0.000001 0.149233 -3.065675 -0.005051
  14 5.459206 -7.963660 6.794816 0.000000 -0.000000 1.570796
  15 -14.295469 -11.620027 11.487461 0.000000 -0.000000 1.570797
  16 -6.132846 -0.011674 5.113387 -1.570796 -0.000000 1.570796
  17 0.000000 3.379475 -0.000000 0.000000 -1.310649 1.323400
  18 -0.000000 4.934430 0.000000 -1.317932 0.243945 -1.581421
  19 0.000009 10.930446 0.000007 0.713465 0.023911 0.159806
  20 0.000004 15.790731 0.000007 -2.131503 -0.042723 -0.167736
  21 0.013807 3.379081 -0.000000 0.000000 1.308847 -1.436243
  22 0.000001 4.888663 0.000003 -2.145012 -0.253930 1.510589
  23 -0.000003 10.958052 0.000002 0.720414 -0.060380 -0.003357
  24 -0.000013 15.811133 0.000010 -1.209453 0.051956 0.286662
  25 -16.612667 -5.381955 -22.215284 0.000000 -0.000000 1.570796
  26 12.950615 -6.309339 -6.853060 0.000000 0.000000 -1.570796
  27 7.262165 5.886607 4.428943 0.000000 -0.000000 1.570796
  28 -14.316620 10.633931 11.487461 0.000000 -0.000000 1.570796
  29 3.994321 7.239778 -21.774252 0.000000 -0.000000 1.570796
  30 12.980513 5.567562 -6.853060 0.000000 0.000000 -1.570796
  time 12
  0 -6.132846 -0.011674 4.724901 1.956240 -0.000000 1.570796
  1 0.000001 7.391149 0.000001 0.267613 -0.201714 0.098549
  2 0.000000 3.425923 0.000000 0.340412 -0.003251 -0.006818
  3 0.000000 4.689447 -0.000000 -1.015200 0.101047 -0.162158
  4 0.000000 3.425923 0.000000 -1.213551 1.692469 0.145751
  5 0.000000 9.617207 -0.000000 1.236356 -2.090471 -0.030094
  6 0.000001 9.265496 0.000003 1.592475 0.381439 -0.000001
  7 -0.000001 7.076734 -0.000000 -0.136260 3.115070 -0.018961
  8 0.951414 1.721432 -0.411209 0.330038 2.797974 1.014323
  9 -20.611397 12.665768 -0.038465 -0.000000 3.141592 1.287664
  10 0.000000 3.425923 0.000000 -1.453492 -1.570796 0.000000
  11 0.000001 9.680594 -0.000000 -1.620874 -0.888558 0.402667
  12 -0.000001 9.265486 -0.000004 -1.247644 -0.381438 0.000001
  13 0.000002 7.076730 0.000001 0.149233 -3.065675 -0.005051
  14 5.459206 -7.963660 5.974213 0.000000 -0.000000 1.570796
  15 -14.295469 -11.620027 11.487461 0.000000 -0.000000 1.570797
  16 -6.132846 -0.011674 4.724901 -1.570796 -0.000000 1.570796
  17 0.000000 3.379475 -0.000000 0.000000 -1.310649 1.315161
  18 -0.000000 4.934429 -0.000001 -1.254070 0.260230 -1.580456
  19 0.000007 10.930446 0.000005 0.687178 0.028080 0.154858
  20 0.000006 15.790739 0.000005 -2.156598 -0.046211 -0.171302
  21 0.013807 3.379024 -0.000000 0.000000 1.308847 -1.444482
  22 0.000001 4.888663 0.000001 -2.093518 -0.241091 1.514776
  23 -0.000002 10.958046 0.000007 0.622908 -0.060688 -0.002968
  24 -0.000006 15.811123 0.000008 -1.202060 0.050744 0.287124
  25 -17.759815 -5.381955 -22.215284 0.000000 -0.000000 1.570796
  26 12.950615 -6.309339 -6.853060 0.000000 0.000000 -1.570796
  27 7.262165 5.886607 3.608339 0.000000 -0.000000 1.570796
  28 -14.316620 10.633931 11.487461 0.000000 -0.000000 1.570796
  29 4.305375 7.239778 -22.440744 0.000000 -0.000000 1.570796
  30 12.980513 5.567562 -6.853060 0.000000 0.000000 -1.570796
  time 13
  0 -6.132846 -0.011674 4.336413 1.994965 -0.000000 1.570796
  1 0.000001 7.391149 0.000000 0.266080 -0.216229 0.105986
  2 0.000001 3.425922 0.000000 0.340412 -0.003251 -0.006818
  3 -0.000000 4.689446 0.000000 -1.055979 0.105710 -0.177840
  4 0.000001 3.425922 0.000000 -1.213550 1.692469 0.145751
  5 0.000000 9.617205 -0.000000 1.234419 -2.079488 -0.013327
  6 0.000002 9.265492 0.000003 1.582205 0.381438 -0.000001
  7 -0.000002 7.076729 -0.000000 -0.136259 3.115070 -0.018961
  8 0.951413 1.721431 -0.411209 0.332413 2.803227 1.012686
  9 -20.611389 12.665765 -0.038460 -0.000000 3.141593 1.287664
  10 0.000001 3.425922 0.000000 -1.453492 -1.570796 0.000000
  11 0.000001 9.680596 -0.000001 -1.617941 -0.876275 0.421802
  12 -0.000001 9.265488 -0.000002 -1.274134 -0.381438 0.000001
  13 0.000001 7.076729 -0.000001 0.149233 -3.065675 -0.005051
  14 5.459206 -7.963660 5.153609 0.000000 -0.000000 1.570796
  15 -14.295469 -11.620027 11.487461 0.000000 -0.000000 1.570797
  16 -6.132846 -0.011674 4.336413 -1.570796 -0.000000 1.570796
  17 0.000000 3.379474 -0.000000 0.000000 -1.310649 1.312181
  18 0.000000 4.934429 -0.000003 -1.253658 0.263294 -1.581958
  19 0.000009 10.930446 0.000006 0.721425 0.022623 0.161283
  20 0.000002 15.790731 0.000008 -2.170410 -0.048255 -0.173266
  21 0.013807 3.379003 -0.000000 0.000000 1.308847 -1.447462
  22 -0.000000 4.888663 0.000000 -2.148812 -0.241780 1.518547
  23 -0.000003 10.958053 0.000004 0.703594 -0.060435 -0.003292
  24 -0.000015 15.811137 0.000009 -1.202060 0.050744 0.287124
  25 -18.174747 -5.381955 -22.215284 0.000000 -0.000000 1.570796
  26 12.950615 -6.309339 -6.853060 0.000000 0.000000 -1.570796
  27 7.262165 5.886607 2.787736 0.000000 -0.000000 1.570796
  28 -14.316620 10.633931 11.487461 0.000000 -0.000000 1.570796
  29 4.305375 7.239778 -22.440744 0.000000 -0.000000 1.570796
  30 12.980513 5.567562 -6.853060 0.000000 0.000000 -1.570796
  time 14
  0 -6.132846 -0.011674 4.037579 2.024735 -0.000000 1.570796
  1 0.000001 7.391148 0.000001 0.265502 -0.221433 0.108665
  2 0.000000 3.425923 -0.000000 0.340412 -0.003251 -0.006818
  3 0.000000 4.689447 0.000001 -1.071737 0.107083 -0.183431
  4 0.000000 3.425923 -0.000000 -1.213552 1.692469 0.145750
  5 -0.000000 9.617204 -0.000001 1.236377 -2.076272 -0.010349
  6 0.000002 9.265491 0.000006 1.579870 0.381439 -0.000001
  7 -0.000003 7.076730 0.000001 -0.136260 3.115070 -0.018960
  8 0.951415 1.721431 -0.411207 0.334341 2.807326 1.011975
  9 -20.611391 12.665763 -0.038454 -0.000000 3.141592 1.287664
  10 0.000000 3.425923 -0.000000 -1.453492 -1.570796 0.000000
  11 -0.000000 9.680596 -0.000001 -1.619034 -0.873353 0.432889
  12 -0.000001 9.265488 -0.000003 -1.287758 -0.381437 0.000001
  13 0.000000 7.076732 0.000002 0.149233 -3.065675 -0.005052
  14 5.459206 -7.963660 4.522376 0.000000 -0.000000 1.570796
  15 -14.295469 -11.620027 11.487461 0.000000 -0.000000 1.570797
  16 -6.132846 -0.011674 4.037579 -1.570796 -0.000000 1.570796
  17 0.000000 3.379475 -0.000000 0.000000 -1.310649 1.315708
  18 0.000000 4.934430 0.000001 -1.279726 0.256201 -1.584934
  19 0.000010 10.930444 0.000010 0.771955 0.014164 0.170425
  20 0.000003 15.790736 0.000013 -2.174648 -0.048916 -0.173876
  21 0.013807 3.379026 -0.000000 0.000000 1.308847 -1.443935
  22 -0.000000 4.888663 0.000002 -2.198579 -0.249467 1.520663
  23 -0.000001 10.958049 0.000002 0.807671 -0.060073 -0.003677
  24 -0.000006 15.811137 0.000006 -1.223990 0.055702 0.289188
  25 -18.174747 -5.381955 -22.215284 0.000000 -0.000000 1.570796
  26 12.950615 -6.309339 -6.853060 0.000000 0.000000 -1.570796
  27 7.262165 5.886607 2.156503 0.000000 -0.000000 1.570796
  28 -14.316620 10.633931 11.487461 0.000000 -0.000000 1.570796
  29 3.794024 7.239778 -22.440744 0.000000 -0.000000 1.570796
  30 12.980513 5.567562 -6.853060 0.000000 0.000000 -1.570796
  time 15
  0 -6.132846 -0.011674 3.918045 2.036635 -0.000000 1.570796
  1 0.000000 7.391149 0.000000 0.266426 -0.212990 0.104327
  2 -0.000000 3.425923 -0.000000 0.340412 -0.003251 -0.006818
  3 -0.000000 4.689447 -0.000000 -1.057844 0.105184 -0.177642
  4 -0.000000 3.425923 -0.000000 -1.213551 1.692469 0.145749
  5 0.000000 9.617205 -0.000000 1.242740 -2.085469 -0.026607
  6 -0.000000 9.265496 0.000006 1.590851 0.381439 -0.000001
  7 -0.000002 7.076735 -0.000003 -0.136259 3.115070 -0.018960
  8 0.951414 1.721433 -0.411207 0.335136 2.808981 1.011819
  9 -20.611404 12.665767 -0.038464 -0.000000 3.141592 1.287664
  10 -0.000000 3.425923 -0.000000 -1.453492 -1.570796 0.000000
  11 -0.000001 9.680594 -0.000000 -1.625160 -0.882681 0.430636
  12 -0.000000 9.265486 -0.000001 -1.282499 -0.381438 0.000001
  13 0.000002 7.076730 0.000002 0.149233 -3.065675 -0.005052
  14 5.459206 -7.963660 4.269882 0.000000 -0.000000 1.570796
  15 -14.295469 -11.620027 11.487461 0.000000 -0.000000 1.570797
  16 -6.132846 -0.011674 3.918045 -1.570796 -0.000000 1.570796
  17 0.000000 3.379475 -0.000000 0.000000 -1.310649 1.325380
  18 -0.000001 4.934428 0.000001 -1.285888 0.245211 -1.587734
  19 0.000008 10.930445 0.000007 0.784507 0.011990 0.172631
  20 0.000006 15.790739 0.000007 -2.174649 -0.048916 -0.173876
  21 0.013807 3.379093 -0.000000 0.000000 1.308847 -1.434263
  22 0.000000 4.888663 -0.000000 -2.224444 -0.263768 1.520176
  23 -0.000002 10.958050 0.000001 0.933461 -0.059586 -0.004089
  24 0.000009 15.811131 0.000004 -1.284722 0.069658 0.294335
  25 -18.174747 -5.381955 -22.215284 0.000000 -0.000000 1.570796
  26 12.950615 -6.309339 -6.853060 0.000000 0.000000 -1.570796
  27 7.262165 5.886607 1.904009 0.000000 -0.000000 1.570796
  28 -14.316620 10.633931 11.487461 0.000000 -0.000000 1.570796
  29 2.391932 7.239778 -22.440744 0.000000 -0.000000 1.570796
  30 12.980513 5.567562 -6.853060 0.000000 0.000000 -1.570796
  time 16
  0 -6.132846 -0.011674 4.037579 2.024735 -0.000000 1.570796
  1 0.000001 7.391148 0.000000 0.268740 -0.190024 0.092613
  2 -0.000000 3.425922 0.000000 0.340412 -0.003251 -0.006818
  3 -0.000000 4.689447 -0.000000 -1.022908 0.098735 -0.160657
  4 -0.000000 3.425922 0.000000 -1.213551 1.692469 0.145750
  5 0.000000 9.617203 0.000000 1.250487 -2.108883 -0.059400
  6 -0.000000 9.265493 0.000006 1.613495 0.381438 -0.000001
  7 0.000001 7.076732 -0.000003 -0.136260 3.115070 -0.018961
  8 0.951413 1.721431 -0.411207 0.335356 2.808849 1.016702
  9 -20.611391 12.665772 -0.038467 -0.000001 3.141593 1.287664
  10 -0.000000 3.425922 0.000000 -1.453492 -1.570796 0.000000
  11 -0.000001 9.680594 -0.000000 -1.635829 -0.904165 0.411765
  12 -0.000001 9.265486 0.000001 -1.252628 -0.381438 0.000001
  13 0.000001 7.076728 0.000001 0.149233 -3.065675 -0.005052
  14 5.459206 -7.963660 4.507895 0.000000 -0.000000 1.570796
  15 -14.295469 -11.620027 11.487461 0.000000 -0.000000 1.570797
  16 -6.132846 -0.011674 4.037579 -1.570796 -0.000000 1.570796
  17 0.000000 3.379475 -0.000000 0.000000 -1.310649 1.339837
  18 -0.000000 4.934429 -0.000002 -1.345854 0.220356 -1.593689
  19 -0.000004 10.930453 0.000006 0.900541 -0.009412 0.191714
  20 0.000004 15.790734 0.000006 -2.095737 -0.041727 -0.161932
  21 0.013807 3.379192 -0.000000 0.000000 1.308847 -1.419806
  22 0.000000 4.888664 0.000001 -2.200996 -0.281825 1.515857
  23 -0.000003 10.958046 0.000002 1.034268 -0.059159 -0.004373
  24 0.000003 15.811125 -0.000001 -1.376967 0.091385 0.300516
  25 -18.117022 -5.381955 -21.325220 0.000000 -0.000000 1.570796
  26 12.950615 -6.309339 -6.853060 0.000000 0.000000 -1.570796
  27 7.262165 5.886607 2.142022 0.000000 -0.000000 1.570796
  28 -14.316620 10.633931 11.487461 0.000000 -0.000000 1.570796
  29 0.297043 7.239778 -22.440744 0.000000 -0.000000 1.570796
  30 12.980513 5.567562 -6.853060 0.000000 0.000000 -1.570796
  time 17
  0 -6.132846 -0.011674 4.336413 1.994965 -0.000000 1.570796
  1 0.000001 7.391149 -0.000000 0.271642 -0.156064 0.075498
  2 0.000000 3.425921 0.000001 0.340412 -0.003251 -0.006818
  3 0.000000 4.689446 0.000000 -0.977197 0.086358 -0.133231
  4 0.000000 3.425921 0.000001 -1.213550 1.692469 0.145750
  5 -0.000000 9.617206 -0.000000 1.256160 -2.143469 -0.100775
  6 0.000001 9.265492 0.000004 1.641296 0.381439 -0.000001
  7 -0.000000 7.076730 -0.000002 -0.136259 3.115070 -0.018961
  8 0.951411 1.721431 -0.411208 0.336100 2.808674 1.030105
  9 -20.611387 12.665764 -0.038468 -0.000000 3.141593 1.287664
  10 0.000000 3.425921 0.000001 -1.453492 -1.570796 0.000000
  11 -0.000000 9.680595 -0.000001 -1.649273 -0.935126 0.378798
  12 -0.000001 9.265485 0.000001 -1.199884 -0.381438 0.000001
  13 0.000001 7.076730 0.000000 0.149233 -3.065675 -0.005051
  14 5.459206 -7.963660 5.102927 0.000000 -0.000000 1.570796
  15 -14.295469 -11.620027 11.487461 0.000000 -0.000000 1.570797
  16 -6.132846 -0.011674 4.336413 -1.570796 -0.000000 1.570796
  17 0.000000 3.379474 -0.000000 0.000000 -1.310649 1.357716
  18 -0.000000 4.934430 -0.000000 -1.485065 0.179266 -1.601227
  19 -0.000003 10.930460 0.000005 1.156338 -0.063685 0.224437
  20 -0.000004 15.790744 -0.000001 -1.913030 -0.027864 -0.133013
  21 0.013808 3.379317 -0.000000 0.000000 1.308847 -1.401927
  22 -0.000000 4.888662 0.000000 -2.122994 -0.301567 1.507842
  23 -0.000006 10.958054 0.000003 1.090389 -0.058910 -0.004512
  24 0.000003 15.811122 0.000002 -1.493102 0.119366 0.305407
  25 -17.712934 -5.381956 -19.202765 0.000000 -0.000000 1.570796
  26 12.950615 -6.309339 -6.853060 0.000000 0.000000 -1.570796
  27 7.262165 5.886607 2.737053 0.000000 -0.000000 1.570796
  28 -14.316620 10.633931 11.487461 0.000000 -0.000000 1.570796
  29 -2.292699 7.239778 -22.440744 0.000000 -0.000000 1.570796
  30 12.980513 5.567562 -6.853060 0.000000 0.000000 -1.570796
  time 18
  0 -6.132846 -0.011674 4.724901 1.956240 -0.000000 1.570796
  1 0.000001 7.391148 0.000001 0.274366 -0.114688 0.054914
  2 -0.000000 3.425923 -0.000001 0.340412 -0.003251 -0.006818
  3 -0.000000 4.689446 0.000000 -0.931205 0.066833 -0.096189
  4 -0.000000 3.425923 -0.000001 -1.213550 1.692469 0.145749
  5 0.000000 9.617207 -0.000001 1.258317 -2.185532 -0.145574
  6 0.000001 9.265495 0.000005 1.670526 0.381439 -0.000001
  7 -0.000001 7.076733 -0.000001 -0.136259 3.115070 -0.018960
  8 0.951413 1.721432 -0.411207 0.337481 2.808796 1.050159
  9 -20.611397 12.665768 -0.038460 -0.000000 3.141593 1.287664
  10 -0.000000 3.425923 -0.000001 -1.453492 -1.570796 0.000000
  11 0.000001 9.680595 -0.000001 -1.663594 -0.973293 0.335224
  12 0.000000 9.265488 0.000002 -1.129464 -0.381438 0.000000
  13 0.000004 7.076729 0.000001 0.149233 -3.065675 -0.005051
  14 5.459206 -7.963660 5.876470 0.000000 -0.000000 1.570796
  15 -14.295469 -11.620027 11.487461 0.000000 -0.000000 1.570797
  16 -6.132846 -0.011674 4.724901 -1.570796 -0.000000 1.570796
  17 0.000000 3.379475 -0.000000 0.000000 -1.310649 1.377650
  18 -0.000000 4.934429 -0.000002 -1.665141 0.130479 -1.603721
  19 -0.000002 10.930449 0.000003 1.440448 -0.131542 0.243479
  20 -0.000002 15.790731 -0.000003 -1.703858 -0.016257 -0.098689
  21 0.013809 3.379456 -0.000000 0.000000 1.308847 -1.381993
  22 -0.000000 4.888663 -0.000000 -1.994972 -0.321071 1.497156
  23 -0.000002 10.958047 0.000001 1.091895 -0.058903 -0.004515
  24 -0.000001 15.811129 -0.000001 -1.624606 0.151390 0.306968
  25 -16.616133 -5.381956 -16.669512 0.000000 -0.000000 1.570796
  26 12.950615 -6.309339 -6.853060 0.000000 0.000000 -1.570796
  27 7.262165 5.886607 3.510595 0.000000 -0.000000 1.570796
  28 -14.316620 10.633931 11.487461 0.000000 -0.000000 1.570796
  29 -5.179355 7.239778 -22.440744 0.000000 -0.000000 1.570796
  30 12.980513 5.567562 -6.853060 0.000000 0.000000 -1.570796
  time 19
  0 -6.132846 -0.011674 5.113387 1.917515 -0.000000 1.570796
  1 -0.000000 7.391148 0.000000 0.276349 -0.069556 0.032705
  2 0.000000 3.425923 0.000000 0.340412 -0.003251 -0.006818
  3 0.000000 4.689447 -0.000000 -0.895588 0.039628 -0.050078
  4 0.000000 3.425923 0.000000 -1.213551 1.692469 0.145750
  5 0.000000 9.617203 0.000001 1.256875 -2.231695 -0.190251
  6 -0.000001 9.265495 0.000006 1.698817 0.381439 -0.000001
  7 -0.000001 7.076735 -0.000003 -0.136260 3.115070 -0.018961
  8 0.951413 1.721433 -0.411206 0.339597 2.809564 1.074989
  9 -20.611401 12.665758 -0.038464 -0.000001 3.141593 1.287664
  10 0.000000 3.425923 0.000000 -1.453492 -1.570796 0.000000
  11 0.000000 9.680596 0.000000 -1.676847 -1.015877 0.284480
  12 0.000000 9.265487 -0.000002 -1.047749 -0.381438 0.000001
  13 0.000001 7.076730 -0.000001 0.149233 -3.065675 -0.005052
  14 5.459206 -7.963660 6.650011 0.000000 -0.000000 1.570796
  15 -14.295469 -11.620027 11.487461 0.000000 -0.000000 1.570797
  16 -6.132846 -0.011674 5.113387 -1.570796 -0.000000 1.570796
  17 0.000000 3.379475 -0.000000 0.000000 -1.310649 1.398269
  18 0.000000 4.934430 -0.000001 -1.900638 0.076800 -1.593882
  19 -0.000001 10.930448 -0.000001 1.704159 -0.196545 0.243380
  20 0.000001 15.790730 -0.000007 -1.522865 -0.009600 -0.068618
  21 0.013809 3.379597 -0.000000 0.000000 1.308847 -1.361373
  22 -0.000000 4.888664 -0.000002 -1.829012 -0.338791 1.485530
  23 0.000000 10.958047 0.000000 1.036958 -0.059148 -0.004380
  24 0.000003 15.811122 0.000003 -1.761972 0.184584 0.304059
  25 -14.480252 -5.381957 -14.547054 0.000000 -0.000000 1.570796
  26 12.950615 -6.309339 -6.853060 0.000000 0.000000 -1.570796
  27 7.262165 5.886607 4.284137 0.000000 -0.000000 1.570796
  28 -14.316620 10.633931 11.487461 0.000000 -0.000000 1.570796
  29 -8.164980 7.239778 -22.440744 0.000000 -0.000000 1.570796
  30 12.980513 5.567562 -6.853060 0.000000 0.000000 -1.570796
  time 20
  0 -6.132846 -0.011674 5.412222 1.887744 0.000000 1.570796
  1 -0.000000 7.391149 0.000001 0.277326 -0.024390 0.010632
  2 0.000000 3.425923 -0.000000 0.340412 -0.003251 -0.006818
  3 0.000000 4.689446 0.000001 -0.881093 0.005341 0.005341
  4 0.000000 3.425923 -0.000000 -1.213552 1.692469 0.145750
  5 -0.000000 9.617204 -0.000001 1.252424 -2.279136 -0.232219
  6 0.000001 9.265494 0.000006 1.725785 0.381439 -0.000001
  7 0.000002 7.076732 -0.000003 -0.136260 3.115070 -0.018961
  8 0.951411 1.721432 -0.411206 0.342521 2.811339 1.102713
  9 -20.611395 12.665766 -0.038472 -0.000000 3.141593 1.287664
  10 0.000000 3.425923 -0.000000 -1.453492 -1.570796 0.000000
  11 0.000000 9.680597 -0.000001 -1.687668 -1.059485 0.230692
  12 0.000000 9.265486 -0.000003 -0.962724 -0.381438 0.000001
  13 -0.000000 7.076730 0.000002 0.149233 -3.065675 -0.005051
  14 5.459206 -7.963660 7.245045 0.000000 -0.000000 1.570796
  15 -14.295469 -11.620027 11.487461 0.000000 -0.000000 1.570797
  16 -6.132846 -0.011674 5.412222 -1.570796 -0.000000 1.570796
  17 0.000000 3.379475 -0.000000 0.000000 -1.310649 1.418203
  18 0.000000 4.934429 0.000000 -2.213758 0.026821 -1.562229
  19 -0.000000 10.930452 -0.000003 1.885813 -0.239754 0.233289
  20 -0.000003 15.790732 -0.000006 -1.378374 -0.007198 -0.044476
  21 0.013810 3.379735 -0.000000 0.000000 1.308847 -1.341439
  22 0.000000 4.888663 0.000001 -1.643145 -0.354031 1.474960
  23 -0.000002 10.958048 0.000003 0.934287 -0.059583 -0.004092
  24 0.000008 15.811126 0.000005 -1.895114 0.215863 0.296875
  25 -10.958932 -5.381957 -13.656990 0.000000 -0.000000 1.570796
  26 12.950615 -6.309339 -6.853060 0.000000 0.000000 -1.570796
  27 7.262165 5.886607 4.879169 0.000000 -0.000000 1.570796
  28 -14.316620 10.633931 11.487461 0.000000 -0.000000 1.570796
  29 -11.051636 7.239778 -22.440744 0.000000 -0.000000 1.570796
  30 12.980513 5.567562 -6.853060 0.000000 0.000000 -1.570796
  time 21
  0 -6.132846 -0.011674 5.531756 1.875844 -0.000000 1.570796
  1 0.000001 7.391148 0.000001 0.277345 0.017074 -0.009584
  2 0.000000 3.425923 -0.000000 0.340412 -0.003251 -0.006818
  3 -0.000000 4.689447 0.000001 -0.897364 -0.032769 0.069332
  4 0.000000 3.425923 -0.000000 -1.213550 1.692469 0.145751
  5 0.000000 9.617205 0.000001 1.245782 -2.325401 -0.269265
  6 0.000001 9.265496 0.000007 1.752768 0.381439 -0.000001
  7 0.000001 7.076731 -0.000002 -0.136260 3.115070 -0.018960
  8 0.951414 1.721431 -0.411208 0.346304 2.814481 1.131446
  9 -20.611389 12.665767 -0.038465 -0.000001 3.141593 1.287664
  10 0.000000 3.425923 -0.000000 -1.453492 -1.570796 0.000000
  11 -0.000000 9.680594 0.000000 -1.695314 -1.100052 0.179929
  12 -0.000002 9.265485 -0.000000 -0.886621 -0.381438 0.000001
  13 -0.000002 7.076731 0.000000 0.149233 -3.065675 -0.005051
  14 5.459206 -7.963660 7.483056 0.000000 -0.000000 1.570796
  15 -14.295469 -11.620027 11.487461 0.000000 -0.000000 1.570797
  16 -6.132846 -0.011674 5.531756 -1.570796 -0.000000 1.570796
  17 0.000000 3.379475 -0.000000 0.000000 -1.310649 1.436082
  18 0.000000 4.934430 -0.000001 -2.478767 0.007958 -1.529997
  19 0.000002 10.930448 -0.000005 1.811269 -0.222308 0.238398
  20 0.000000 15.790729 0.000004 -1.269575 -0.006847 -0.026488
  21 0.013811 3.379859 -0.000000 0.000000 1.308847 -1.323561
  22 -0.000000 4.888663 -0.000000 -1.459931 -0.367071 1.466953
  23 -0.000004 10.958052 0.000003 0.806193 -0.060079 -0.003672
  24 0.000001 15.811133 0.000003 -2.014021 0.242566 0.286946
  25 -5.936532 -5.381956 -14.976744 0.000000 -0.000000 1.570796
  26 12.950615 -6.309339 -6.853060 0.000000 0.000000 -1.570796
  27 7.262165 5.886607 5.117182 0.000000 -0.000000 1.570796
  28 -14.316620 10.633931 11.487461 0.000000 -0.000000 1.570796
  29 -13.641380 7.239779 -22.440744 0.000000 -0.000000 1.570796
  30 12.980513 5.567562 -6.853060 0.000000 0.000000 -1.570796
  time 22
  0 -6.132846 -0.011674 5.284717 1.917515 -0.000000 1.570796
  1 -0.000000 7.391149 0.000001 0.276732 0.051148 -0.026221
  2 -0.000001 3.425922 0.000000 0.340412 -0.003251 -0.006818
  3 -0.000001 4.689448 -0.000001 -0.934367 -0.066565 0.132584
  4 -0.000001 3.425922 0.000000 -1.213550 1.692469 0.145751
  5 0.000000 9.617208 0.000000 1.237653 -2.371521 -0.300731
  6 0.000001 9.265496 0.000008 1.789268 0.381439 -0.000001
  7 -0.000000 7.076736 -0.000003 -0.136260 3.115070 -0.018960
  8 0.951413 1.721432 -0.411207 0.356982 2.825441 1.158807
  9 -20.611410 12.665777 -0.038470 -0.000000 3.141593 1.287664
  10 -0.000001 3.425922 0.000000 -1.453492 -1.570796 0.000000
  11 -0.000001 9.680595 0.000001 -1.700019 -1.134994 0.145496
  12 -0.000001 9.265490 -0.000001 -0.849740 -0.381438 0.000001
  13 -0.000000 7.076731 -0.000001 0.149233 -3.065675 -0.005052
  14 5.459206 -7.963660 6.807412 0.000000 -0.000000 1.570796
  15 -14.295469 -11.620027 11.487461 0.000000 -0.000000 1.570797
  16 -6.132846 -0.011674 5.284717 -1.570796 -0.000000 1.570796
  17 0.000000 3.379475 -0.000000 0.000000 -1.310649 1.450539
  18 0.000000 4.934430 -0.000001 -2.492468 0.014924 -1.543696
  19 -0.000001 10.930444 -0.000002 1.444162 -0.132456 0.243598
  20 -0.000001 15.790726 0.000002 -1.194505 -0.007114 -0.014283
  21 0.013811 3.379958 -0.000000 0.000000 1.308847 -1.309104
  22 -0.000000 4.888664 -0.000001 -1.320995 -0.380393 1.461802
  23 -0.000004 10.958057 0.000003 0.717180 -0.060391 -0.003344
  24 0.000007 15.811135 0.000006 -2.109323 0.262858 0.276705
  25 -0.515577 -5.381956 -17.880198 0.000000 -0.000000 1.570796
  26 12.950615 -6.309339 -6.853060 0.000000 0.000000 -1.570796
  27 7.262165 5.886607 4.441537 0.000000 -0.000000 1.570796
  28 -14.316620 10.633931 11.487461 0.000000 -0.000000 1.570796
  29 -15.736269 7.239779 -22.440744 0.000000 -0.000000 1.570796
  30 12.980513 5.567562 -6.853060 0.000000 0.000000 -1.570796
  time 23
  0 -6.132846 -0.011674 4.825929 1.994965 -0.000000 1.570796
  1 0.000001 7.391149 0.000000 0.275994 0.074214 -0.037517
  2 0.000000 3.425922 0.000001 0.340412 -0.003251 -0.006818
  3 -0.000001 4.689446 -0.000000 -0.972020 -0.089398 0.181612
  4 0.000000 3.425922 0.000001 -1.213551 1.692469 0.145750
  5 -0.000001 9.617205 0.000000 1.231702 -2.407058 -0.324625
  6 0.000001 9.265493 0.000007 1.824083 0.381438 -0.000001
  7 -0.000001 7.076731 -0.000002 -0.136260 3.115070 -0.018960
  8 0.951412 1.721430 -0.411209 0.372089 2.841858 1.179378
  9 -20.611387 12.665764 -0.038474 -0.000000 3.141593 1.287664
  10 0.000000 3.425922 0.000001 -1.453492 -1.570796 0.000000
  11 -0.000001 9.680595 0.000001 -1.706534 -1.163407 0.132777
  12 -0.000002 9.265487 -0.000002 -0.846124 -0.381438 0.000001
  13 0.000002 7.076731 0.000001 0.149233 -3.065675 -0.005052
  14 5.459206 -7.963660 5.552644 0.000000 -0.000000 1.570796
  15 -14.295469 -11.620027 11.487461 0.000000 -0.000000 1.570797
  16 -6.132846 -0.011674 4.825929 -1.570796 -0.000000 1.570796
  17 0.000000 3.379475 -0.000000 0.000000 -1.310649 1.460211
  18 -0.000001 4.934429 -0.000000 -2.307540 0.033229 -1.582181
  19 -0.000006 10.930451 0.000003 0.932720 -0.015737 0.196567
  20 -0.000003 15.790739 0.000003 -1.150944 -0.007302 -0.007323
  21 0.013812 3.380025 -0.000000 0.000000 1.308847 -1.299431
  22 0.000001 4.888663 0.000002 -1.244933 -0.392670 1.458662
  23 0.000005 10.958044 0.000003 0.690742 -0.060478 -0.003242
  24 0.000007 15.811119 0.000008 -2.172465 0.275661 0.268856
  25 3.823005 -5.381956 -20.783659 0.000000 -0.000000 1.570796
  26 12.950615 -6.309339 -6.853060 0.000000 0.000000 -1.570796
  27 7.262165 5.886607 3.186769 0.000000 -0.000000 1.570796
  28 -14.316620 10.633931 11.487461 0.000000 -0.000000 1.570796
  29 -17.138361 7.239779 -22.440744 0.000000 -0.000000 1.570796
  30 12.980513 5.567562 -6.853060 0.000000 0.000000 -1.570796
end
