version 1
nodes
0 "Bone" -1
1 "Bone.002" 0
2 "Bone.003" 1
3 "Bone.006" 2
4 "Bone.007" 1
5 "Arm.L.002" 4
6 "Arm.L.005" 5
7 "Arm.L.006" 6
8 "Bone.004" 7
9 "Bone.005" 8
10 "Bone.008" 1
11 "Arm.R.002" 10
12 "Arm.R.005" 11
13 "Arm.R.006" 12
14 "ForearmIK.L" -1
15 "UpperarmIK.L" -1
16 "Bone.001" -1
17 "Leg.L.001" 16
18 "Leg.L.002" 17
19 "Leg.L.003" 18
20 "Leg.L.004" 19
21 "Leg.R.001" 16
22 "Leg.R.002" 21
23 "Leg.R.003" 22
24 "Leg.R.004" 23
25 "ShinIK.L" -1
26 "KneeIK.L" -1
27 "ForearmIK.R" -1
28 "UpperarmIK.R" -1
29 "ShinIK.R" -1
30 "KneeIK.R" -1
end
skeleton
  time 0
  0 -6.132846 -0.011674 4.159645 2.036635 -0.000000 1.570796
  1 0.000000 7.391149 -0.000000 0.277381 -0.000000 0.000000
  2 0.000000 3.425923 -0.000000 0.340412 -0.003251 -0.006818
  3 0.000001 4.689446 0.000001 -0.737043 0.005341 0.005341
  4 0.000000 3.425923 -0.000000 -1.213551 1.692469 0.145750
  5 -0.000000 9.617206 0.000000 1.461184 -2.309796 -0.264229
  6 0.000002 9.265493 0.000006 1.710713 0.381438 -0.000001
  7 -0.000001 7.076733 -0.000001 0.126505 -3.090843 0.162339
  8 0.697898 1.397510 0.871045 -2.289343 0.264215 -1.886966
  9 -20.611393 12.665771 -0.038467 -0.000000 3.141593 1.287664
  10 0.000000 3.425923 -0.000000 -1.453492 -1.570796 0.000000
  11 0.000001 9.680594 0.000000 -1.536691 -0.938148 0.130962
  12 0.000000 9.265488 -0.000001 -1.217598 -0.381438 0.000000
  13 0.000001 7.076729 0.000001 -0.049826 2.120854 0.003514
  14 5.459206 -5.964996 4.452334 0.000000 -0.000000 1.570796
  15 -14.295469 -11.620026 11.487461 0.000000 -0.000000 1.570797
  16 -6.132846 -0.011674 4.159645 -1.570796 -0.000000 1.570796
  17 0.000000 3.379475 -0.000000 0.000000 -1.310649 1.339245
  18 -0.000000 4.934429 -0.000000 -2.158476 0.147225 -1.549924
  19 -0.000003 10.930449 -0.000002 1.203500 -0.074538 0.228920
  20 0.000001 15.790732 0.000004 -1.746275 -0.001002 -0.113006
  21 0.013834 3.379189 -0.000000 0.000000 1.308847 -1.420398
  22 0.000000 4.888664 -0.000001 -2.018961 -0.543992 1.787540
  23 -0.000004 10.958052 0.000005 1.079509 -0.058959 -0.004486
  24 -0.000000 15.811132 0.000005 -1.759387 0.164164 0.267693
  25 -3.743120 -5.381955 -22.215284 0.000000 -0.000000 1.570796
  26 12.950615 -6.309339 -6.853060 0.000000 0.000000 -1.570796
  27 5.174633 5.958677 2.121367 0.000000 -0.000000 1.570796
  28 -14.316620 10.633930 11.487461 0.000000 -0.000000 1.570796
  29 -7.607242 11.398505 -22.051115 0.000000 -0.000000 1.570796
  30 12.980512 13.383118 -6.853060 0.000000 0.000000 -1.570796
  time 1
  0 -6.132846 -0.011674 4.361635 2.036635 -0.000000 1.570796
  1 0.000000 7.391149 -0.000000 0.275257 0.091736 -0.046266
  2 0.000000 3.425923 -0.000000 0.340412 -0.003251 -0.006818
  3 0.000000 4.689446 -0.000000 -0.989222 -0.097630 0.201349
  4 0.000000 3.425923 -0.000000 -1.213551 1.692469 0.145750
  5 -0.000001 9.617201 0.000000 -1.699941 -0.543235 2.350878
  6 -0.000001 9.265491 0.000005 1.813428 0.381438 -0.000001
  7 0.000002 7.076730 -0.000002 -0.136259 3.115070 -0.018961
  8 0.951411 1.721431 -0.411207 0.383446 2.858993 1.159967
  9 -20.611395 12.665768 -0.038451 -0.000001 3.141592 1.287665
  10 0.000000 3.425923 -0.000000 -1.453492 -1.570796 0.000000
  11 0.000001 9.680593 0.000000 -2.320092 -0.684146 1.066427
  12 -0.000001 9.265492 0.000000 -0.937110 -0.381438 0.000001
  13 0.000003 7.076733 0.000002 0.149233 -3.065675 -0.005052
  14 5.459206 -9.577449 4.454102 0.000000 -0.000000 1.570796
  15 -14.295469 -4.847698 11.487461 0.000000 -0.000000 1.570797
  16 -6.132846 -0.011674 4.361635 -1.570796 -0.000000 1.570796
  17 0.000000 3.379475 -0.000000 0.000000 -1.310649 1.463738
  18 0.000000 4.934430 0.000001 -2.175324 0.041857 -1.591640
  19 -0.000001 10.930459 0.000005 0.805830 0.008231 0.176318
  20 -0.000005 15.790743 0.000006 -1.369304 0.002390 -0.042581
  21 0.013812 3.380049 -0.000000 0.000000 1.308847 -1.295905
  22 0.000000 4.888664 0.000002 -1.848814 -0.417410 1.469122
  23 -0.000002 10.958054 0.000002 1.174727 -0.058522 -0.004694
  24 -0.000003 15.811131 0.000002 -2.012247 0.114487 0.097801
  25 2.913327 -5.381955 -22.402643 0.000000 -0.000000 1.570796
  26 12.950615 -6.309339 -6.853060 0.000000 0.000000 -1.570796
  27 7.262165 9.700733 2.088228 0.000000 -0.000000 1.570796
  28 -14.316620 -1.526653 11.487461 0.000000 -0.000000 1.570796
  29 -9.434808 7.239778 -22.401857 0.000000 -0.000000 1.570796
  30 12.980513 5.567562 -6.853060 0.000000 0.000000 -1.570796
  time 2
  0 -6.132845 -0.011674 3.940437 1.596299 -0.000000 1.570796
  1 0.000000 7.391148 0.000001 0.166704 0.086488 -0.059180
  2 -0.000000 3.425924 -0.000000 0.340412 -0.003251 -0.006818
  3 0.000001 4.689446 -0.000000 -0.366975 -0.148342 0.150514
  4 -0.000000 3.425924 -0.000000 -1.213551 1.692469 0.145749
  5 0.000000 9.617203 0.000001 1.075525 -2.750000 -0.754767
  6 -0.000001 9.265498 0.000005 1.212274 0.381438 -0.000001
  7 -0.000001 7.076737 0.000001 -0.136260 3.115070 -0.018961
  8 0.951414 1.721431 -0.411207 0.383446 2.858993 1.159967
  9 -20.611397 12.665772 -0.038452 -0.000001 3.141592 1.287664
  10 -0.000000 3.425924 -0.000000 -1.494242 -1.609828 0.046918
  11 0.000000 9.680595 -0.000001 -2.252771 -0.404172 1.446733
  12 -0.000001 9.265490 -0.000001 -1.568452 -0.381438 0.000001
  13 -0.000001 7.076733 -0.000001 0.149233 -3.065675 -0.005051
  14 1.811582 -15.752027 6.470092 0.000000 -0.000000 1.570796
  15 -16.156221 -4.847697 8.942914 0.000000 -0.000000 1.570797
  16 -6.132846 -0.011674 3.940437 -2.139161 0.000000 1.570796
  17 0.000000 3.379474 -0.000000 0.000000 -1.310648 1.463738
  18 -0.000002 4.934430 0.000001 -1.798903 0.082261 -1.611692
  19 -0.000004 10.930456 0.000010 0.443851 0.059953 0.104602
  20 -0.000003 15.790751 0.000008 -1.142740 -0.005577 -0.005587
  21 0.013812 3.380047 -0.000001 0.000000 1.308847 -1.295905
  22 -0.000001 4.888665 -0.000001 -2.043894 -0.401031 1.403207
  23 -0.000002 10.958046 0.000006 1.240677 -0.058209 -0.004813
  24 0.000003 15.811131 -0.000004 -1.798576 0.118315 0.163928
  25 14.429998 -5.381955 -17.758860 0.000000 -0.000000 1.570796
  26 15.954792 -6.309339 2.914333 0.000000 0.000000 -1.570796
  27 5.139274 12.639716 11.406468 0.000000 -0.000000 1.570796
  28 -14.516348 -5.689096 9.634884 0.000000 -0.000000 1.570796
  29 8.684933 7.239779 -18.057486 0.000000 -0.000000 1.570796
  30 15.301485 5.567562 -5.276241 0.000000 0.000000 -1.570796
  time 3
  0 -6.132844 -0.011674 3.519239 1.097228 0.000000 1.570796
  1 0.000000 7.391149 -0.000001 0.059109 0.079713 -0.064845
  2 0.000000 3.425923 -0.000000 0.340412 -0.003251 -0.006818
  3 0.000000 4.689448 -0.000000 0.263793 -0.158391 0.077956
  4 0.000000 3.425923 -0.000000 -1.253194 1.801539 0.069255
  5 0.000000 9.617206 -0.000001 0.444854 -2.797788 -0.727967
  6 -0.000003 9.265494 0.000003 1.438875 0.381438 -0.000001
  7 -0.000001 7.076733 0.000001 -0.136260 3.115070 -0.018961
  8 0.951410 1.721432 -0.411208 0.383446 2.858993 1.159967
  9 -20.611397 12.665771 -0.038444 -0.000001 3.141592 1.287664
  10 0.000000 3.425923 -0.000000 -1.485425 -1.682334 0.055733
  11 0.000002 9.680595 0.000000 0.379334 -2.855776 -1.360020
  12 -0.000002 9.265490 -0.000000 -1.040298 -0.381438 0.000001
  13 -0.000000 7.076731 0.000000 0.149233 -3.065675 -0.005051
  14 -4.124900 -18.948942 13.308722 0.000000 -0.000000 1.570796
  15 -20.249872 -4.847698 2.488966 0.000000 -0.000000 1.570797
  16 -6.132845 -0.011674 3.519239 -2.794100 0.000000 1.570796
  17 0.000000 3.379474 -0.000000 0.000000 -1.310649 1.463738
  18 0.000001 4.934429 -0.000000 -1.662827 0.073866 -1.601331
  19 0.000000 10.930454 0.000006 0.704405 0.025364 0.158113
  20 -0.000004 15.790745 0.000006 -1.024631 -0.012951 0.012267
  21 0.013812 3.380048 -0.000000 0.000000 1.308847 -1.295905
  22 0.000002 4.888663 0.000001 -1.935387 -0.326672 1.164032
  23 -0.000000 10.958040 0.000005 1.174908 -0.058522 -0.004694
  24 -0.000000 15.811130 0.000001 -1.393383 0.089623 0.285443
  25 20.428991 -5.381955 -8.074766 0.000000 -0.000000 1.570796
  26 18.958969 -6.309339 12.681725 0.000000 0.000000 -1.570796
  27 0.912193 14.229350 20.724710 0.000000 -0.000000 1.570796
  28 -14.887268 -7.222629 4.750821 0.000000 -0.000000 1.570796
  29 19.541292 7.239781 -4.853943 0.000000 -0.000000 1.570796
  30 18.928303 5.567561 0.106768 0.000000 0.000000 -1.570796
  time 4
  0 -6.132844 -0.011674 3.396611 0.594161 0.000000 1.570796
  1 -0.000000 7.391149 -0.000001 0.218522 0.090272 -0.051708
  2 0.000000 3.425923 0.000000 0.340412 -0.003251 -0.006818
  3 -0.000000 4.689447 -0.000000 -0.164604 -0.156550 0.128464
  4 0.000000 3.425923 0.000000 -1.255392 1.910808 0.029737
  5 0.000001 9.617202 -0.000001 0.188266 -2.567529 -0.171333
  6 -0.000002 9.265490 0.000005 1.010420 0.381438 -0.000001
  7 0.000000 7.076729 0.000001 -0.136259 3.115070 -0.018960
  8 0.951412 1.721431 -0.411208 0.383447 2.858993 1.159967
  9 -20.611387 12.665771 -0.038448 -0.000001 3.141592 1.287664
  10 0.000000 3.425923 0.000000 -1.471514 -1.721444 0.069642
  11 0.000001 9.680595 -0.000000 -2.146670 -0.667114 1.589209
  12 -0.000004 9.265485 0.000004 -0.930181 -0.381438 0.000001
  13 -0.000001 7.076730 -0.000002 0.149233 -3.065675 -0.005052
  14 -6.903811 -18.918398 20.746531 0.000000 -0.000000 1.570796
  15 -24.343525 -4.847698 -6.104849 0.000000 -0.000000 1.570797
  16 -6.132844 -0.011674 3.396611 2.870291 0.000000 1.570796
  17 0.000000 3.379474 0.000001 0.000000 -1.310649 1.463738
  18 -0.000001 4.934429 0.000000 -1.376403 0.089903 -1.628274
  19 0.000001 10.930449 0.000008 0.985633 -0.026481 0.204104
  20 -0.000001 15.790739 0.000002 -0.977407 -0.016437 0.018757
  21 0.013812 3.380048 0.000001 0.000000 1.308847 -1.295905
  22 0.000001 4.888663 0.000000 -1.453694 -0.213794 1.234891
  23 0.000003 10.958038 0.000006 1.234084 -0.058241 -0.004802
  24 -0.000004 15.811138 0.000003 -1.181783 0.062428 0.343035
  25 20.320150 -5.381955 -1.797901 0.000000 -0.000000 1.570796
  26 18.812595 -6.309339 12.178665 0.000000 0.000000 -1.570796
  27 -2.715897 16.549650 16.157213 0.000000 -0.000000 1.570796
  28 -15.086994 -7.441704 -2.154234 0.000000 -0.000000 1.570796
  29 19.604698 7.239779 -0.691891 0.000000 -0.000000 1.570796
  30 20.053041 5.567561 5.979191 0.000000 0.000000 -1.570796
  time 5
  0 -6.132844 -0.011674 -8.863184 0.573782 0.002836 1.562712
  1 -0.000000 7.391149 0.000000 0.378196 0.098616 -0.037044
  2 -0.000000 3.425922 0.000000 0.340412 -0.003251 -0.006817
  3 0.000001 4.689448 -0.000000 -0.040920 -0.157545 0.112636
  4 -0.000000 3.425922 0.000000 -1.255392 1.910808 0.029736
  5 0.000002 9.617206 0.000002 -0.061116 -2.991793 0.304221
  6 0.000002 9.265500 0.000001 0.005010 0.381438 0.000000
  7 0.000001 7.076740 -0.000002 -0.136260 3.115070 -0.018961
  8 0.951414 1.721433 -0.411207 0.383446 2.858993 1.159967
  9 -20.611406 12.665775 -0.038450 -0.000001 3.141592 1.287664
  10 -0.000000 3.425922 0.000000 -1.509764 -1.635568 0.142639
  11 0.000000 9.680596 0.000001 0.953079 -1.987273 -1.553247
  12 -0.000004 9.265485 -0.000002 -0.864816 -0.381438 0.000000
  13 0.000001 7.076729 -0.000001 0.149233 -3.065675 -0.005051
  14 -8.511758 -19.265007 14.088117 0.000000 -0.000000 1.570796
  15 -26.204275 -4.847698 -15.069002 0.000000 -0.000000 1.570797
  16 -6.132844 -0.011674 -8.863184 2.835887 0.000000 1.570796
  17 0.000000 3.379475 0.000001 0.000000 -1.310649 1.463738
  18 0.000000 4.934430 0.000001 -1.846573 0.077739 -1.675361
  19 0.000004 10.930449 0.000008 0.560491 0.046234 0.129618
  20 -0.000001 15.790740 0.000008 -0.968665 -0.017094 0.019762
  21 0.013812 3.380049 0.000002 0.000000 1.308847 -1.295905
  22 0.000003 4.888663 0.000000 -1.930309 -0.352614 1.271201
  23 -0.000000 10.958044 0.000003 1.193591 -0.058434 -0.004730
  24 -0.000002 15.811134 0.000003 -1.184017 0.072548 0.344221
  25 20.211313 -5.381955 4.478965 0.000000 -0.000000 1.570796
  26 18.403467 -6.309339 10.782530 0.000000 0.000000 -1.570796
  27 -5.078640 18.850649 5.296326 0.000000 -0.000000 1.570796
  28 -8.794245 6.920242 -10.069780 0.000000 -0.000000 1.570796
  29 19.566957 7.239779 -1.010342 0.000000 -0.000000 1.570796
  30 20.009977 6.239820 5.901058 0.000000 0.000000 -1.570796
  time 6
  0 -6.132844 -0.011674 -21.122984 0.554583 0.005355 1.555051
  1 -0.000000 7.391149 -0.000003 0.378196 0.098616 -0.037043
  2 -0.000000 3.425923 0.000001 0.340412 -0.003251 -0.006818
  3 0.000000 4.689449 -0.000000 0.189583 -0.154581 0.083485
  4 -0.000000 3.425923 0.000001 -1.255392 1.910808 0.029736
  5 -0.000000 9.617205 0.000001 -0.204184 3.125978 0.087036
  6 -0.000003 9.265496 0.000004 0.588391 0.381438 -0.000000
  7 0.000002 7.076733 -0.000000 -0.136259 3.115070 -0.018961
  8 0.951414 1.721432 -0.411208 0.383446 2.858993 1.159967
  9 -20.611393 12.665770 -0.038454 -0.000001 3.141592 1.287664
  10 -0.000000 3.425923 0.000001 -1.331856 -1.474467 -0.004763
  11 0.000001 9.680597 0.000001 0.211387 -1.359953 -1.348008
  12 0.000004 9.265490 0.000000 -0.005040 -0.381438 -0.000000
  13 -0.000000 7.076732 0.000001 0.149233 -3.065675 -0.005051
  14 -9.720069 -20.027546 -0.560389 0.000000 -0.000000 1.570796
  15 -26.077332 -4.847698 -22.057875 0.000000 -0.000000 1.570797
  16 -6.132844 -0.011674 -21.122984 2.802651 0.000000 1.570796
  17 -0.000000 3.379475 0.000001 0.000000 -1.310649 1.463738
  18 -0.000003 4.934429 -0.000001 -1.802947 0.080097 -1.714645
  19 0.000002 10.930451 0.000009 0.007781 0.083510 0.001892
  20 -0.000001 15.790738 0.000001 -1.264983 0.001718 -0.018357
  21 0.013811 3.380049 0.000001 0.000000 1.308847 -1.295905
  22 -0.000001 4.888663 0.000002 -1.719694 -0.361415 1.557450
  23 0.000001 10.958049 0.000005 0.132530 -0.061598 -0.000672
  24 0.000008 15.811122 0.000006 -1.204556 0.081922 0.344045
  25 20.272762 -5.417077 4.081264 0.000000 -0.000000 1.570796
  26 17.776581 -6.309339 8.662888 0.000000 0.000000 -1.570796
  27 -5.669365 19.540518 -4.110344 0.000000 -0.000000 1.570796
  28 -2.501496 21.282187 -17.985331 0.000000 -0.000000 1.570796
  29 19.302765 7.239779 -3.239491 0.000000 -0.000000 1.570796
  30 19.919935 8.140176 5.737688 0.000000 0.000000 -1.570796
  time 7
  0 -6.132843 -0.011674 -20.758169 0.248416 0.000360 1.554170
  1 0.000000 7.391147 -0.000001 -0.268243 0.048222 -0.084220
  2 -0.000001 3.425923 0.000003 0.340412 -0.003251 -0.006817
  3 -0.000000 4.689446 -0.000001 0.314318 -0.151278 0.068657
  4 -0.000001 3.425923 0.000003 -1.131597 1.332838 0.165184
  5 -0.000004 9.617203 -0.000000 -2.128885 0.397274 -1.790099
  6 0.000001 9.265500 -0.000002 0.005003 0.381437 0.000000
  7 -0.000002 7.076739 -0.000001 -0.136260 3.115070 -0.018960
  8 0.951409 1.721432 -0.411208 0.383446 2.858993 1.159967
  9 -20.611414 12.665777 -0.038455 -0.000001 3.141592 1.287664
  10 -0.000001 3.425923 0.000003 -1.356234 -1.388416 0.032708
  11 -0.000003 9.680597 -0.000002 -0.960156 -0.444836 -0.465806
  12 -0.000003 9.265488 0.000003 -0.005042 -0.381438 -0.000000
  13 0.000000 7.076730 -0.000002 0.149234 -3.065675 -0.005051
  14 -10.480462 -20.790087 -15.208899 0.000000 -0.000000 1.570796
  15 -25.950390 -4.847698 -23.573633 0.000000 -0.000000 1.570797
  16 -6.132844 -0.011674 -20.758169 2.802651 0.000000 1.570796
  17 -0.000000 3.379475 0.000001 0.000000 -1.310649 1.463738
  18 -0.000003 4.934429 -0.000001 -1.718772 0.112106 -1.650895
  19 0.000005 10.930451 0.000009 0.007735 0.083510 0.001880
  20 0.000001 15.790736 0.000002 -1.561898 0.008569 -0.060321
  21 0.013811 3.380049 0.000001 0.000000 1.308847 -1.295905
  22 -0.000002 4.888664 0.000001 -2.189877 -0.438669 1.737311
  23 0.000001 10.958045 0.000008 1.137142 -0.058697 -0.004617
  24 0.000001 15.811134 0.000002 -1.260855 0.094605 0.341996
  25 20.702917 -5.662928 1.297360 0.000000 -0.000000 1.570796
  26 16.976931 -6.309339 5.989305 0.000000 0.000000 -1.570796
  27 -6.260089 20.230387 -13.517015 0.000000 -0.000000 1.570796
  28 -6.195911 19.594921 -24.890383 0.000000 -0.000000 1.570796
  29 18.585676 7.239779 -9.290039 0.000000 -0.000000 1.570796
  30 19.841640 11.094001 5.595628 0.000000 0.000000 -1.570796
  time 8
  0 -6.132843 -0.011674 -20.388559 0.151312 -0.000220 1.562618
  1 -0.000000 7.391149 0.000002 -0.176674 0.058255 -0.080197
  2 0.000000 3.425924 -0.000001 0.340412 -0.003251 -0.006818
  3 0.000000 4.689447 -0.000000 -0.643426 -0.127969 0.176175
  4 0.000000 3.425924 -0.000001 -1.131597 1.332838 0.165183
  5 0.000004 9.617205 -0.000000 0.796487 2.828405 0.453270
  6 -0.000001 9.265496 0.000004 0.563731 0.381438 -0.000000
  7 -0.000001 7.076732 0.000001 -0.135254 -3.136199 -0.065274
  8 0.951413 1.721432 -0.411208 0.383447 2.858993 1.159967
  9 -20.611406 12.665761 -0.038448 -0.000001 3.141593 1.287664
  10 0.000000 3.425924 -0.000001 -1.356233 -1.388416 0.032708
  11 0.000001 9.680595 -0.000002 -0.898810 0.138761 -0.324327
  12 -0.000007 9.265487 0.000001 -0.167836 -0.381438 0.000000
  13 -0.000000 7.076729 -0.000003 0.149234 -3.065675 -0.005051
  14 -10.744657 -21.136698 -21.867308 0.000000 -0.000000 1.570796
  15 -25.823446 -4.847698 -25.089384 0.000000 -0.000000 1.570797
  16 -6.132844 -0.011674 -20.388559 3.042032 0.000000 1.570796
  17 0.000000 3.379474 -0.000001 0.000000 -1.310649 1.463738
  18 0.000002 4.934431 -0.000000 -1.732994 0.153069 -1.550246
  19 -0.000002 10.930449 0.000003 0.007637 0.083510 0.001857
  20 -0.000002 15.790726 0.000002 -1.561898 0.008568 -0.060320
  21 0.013812 3.380048 -0.000001 0.000000 1.308847 -1.295905
  22 -0.000000 4.888664 0.000000 -2.174616 -0.502230 1.592893
  23 0.000002 10.958044 0.000000 1.614128 -0.056343 -0.005083
  24 0.000003 15.811125 -0.000002 -1.371218 0.114425 0.336393
  25 21.870480 -6.330238 -6.258949 0.000000 -0.000000 1.570796
  26 16.049515 -6.309339 2.931354 0.000000 0.000000 -1.570796
  27 -6.850814 20.920254 -22.923685 0.000000 -0.000000 1.570796
  28 -13.056968 16.461426 -29.774450 0.000000 -0.000000 1.570796
  29 17.189232 7.239779 -21.072683 0.000000 -0.000000 1.570796
  30 19.820469 11.396333 5.557219 0.000000 0.000000 -1.570796
  time 9
  0 -6.132844 -0.011674 -20.018953 0.057499 0.000000 1.570796
  1 0.000000 7.391150 0.000001 -0.176674 0.058255 -0.080197
  2 -0.000000 3.425924 0.000001 0.340412 -0.003251 -0.006818
  3 0.000000 4.689446 -0.000000 -0.643426 -0.127969 0.176175
  4 -0.000000 3.425924 0.000001 -1.131597 1.332838 0.165183
  5 -0.000002 9.617205 -0.000002 0.753987 2.776401 0.505059
  6 -0.000008 9.265492 0.000007 0.658596 0.381438 -0.000000
  7 0.000000 7.076731 0.000003 -0.138299 3.122184 -0.025366
  8 0.951410 1.721433 -0.411207 0.383447 2.858992 1.159967
  9 -20.611408 12.665771 -0.038437 -0.000001 -3.141593 1.287664
  10 -0.000000 3.425924 0.000001 -1.356234 -1.388416 0.032709
  11 0.000002 9.680593 -0.000001 -0.907123 0.230417 -0.465039
  12 -0.000008 9.265490 -0.000004 -0.059661 -0.381438 0.000001
  13 0.000000 7.076731 -0.000004 0.149233 -3.065675 -0.005051
  14 -10.744657 -21.136698 -21.867308 0.000000 -0.000000 1.570796
  15 -25.362328 -4.847698 -25.847849 0.000000 -0.000000 1.570797
  16 -6.132845 -0.011674 -20.018953 -3.005438 0.000000 1.570796
  17 -0.000000 3.379475 0.000003 0.000000 -1.310649 1.463738
  18 0.000004 4.934430 0.000001 -1.558645 0.180513 -1.511664
  19 -0.000000 10.930455 0.000002 0.228969 0.077187 0.055215
  20 -0.000005 15.790736 0.000007 -1.561898 0.008568 -0.060320
  21 0.013811 3.380049 0.000001 0.000000 1.308847 -1.295905
  22 0.000004 4.888664 0.000000 0.570094 -2.651951 -1.408318
  23 0.000002 10.958041 0.000004 1.740566 -0.055705 -0.005015
  24 0.000003 15.811118 -0.000001 -1.554886 0.144154 0.323066
  25 24.144156 -7.629737 -20.973867 0.000000 -0.000000 1.570796
  26 15.039326 -6.309339 -0.341402 0.000000 0.000000 -1.570796
  27 -7.441538 21.610121 -22.646280 0.000000 -0.000000 1.570796
  28 -16.751383 14.774158 -31.627024 0.000000 -0.000000 1.570796
  29 15.981501 7.239779 -21.430571 0.000000 -0.000000 1.570796
  30 19.672285 13.512655 5.288356 0.000000 0.000000 -1.570796
end
