version 1
nodes
0 "Bone" -1
1 "Bone.002" 0
2 "Bone.003" 1
3 "Bone.006" 2
4 "Bone.007" 1
5 "Arm.L.002" 4
6 "Arm.L.005" 5
7 "Arm.L.006" 6
8 "Bone.004" 7
9 "Bone.005" 8
10 "Bone.008" 1
11 "Arm.R.002" 10
12 "Arm.R.005" 11
13 "Arm.R.006" 12
14 "ForearmIK.L" -1
15 "UpperarmIK.L" -1
16 "Bone.001" -1
17 "Leg.L.001" 16
18 "Leg.L.002" 17
19 "Leg.L.003" 18
20 "Leg.L.004" 19
21 "Leg.R.001" 16
22 "Leg.R.002" 21
23 "Leg.R.003" 22
24 "Leg.R.004" 23
25 "ShinIK.L" -1
26 "KneeIK.L" -1
27 "ForearmIK.R" -1
28 "UpperarmIK.R" -1
29 "ShinIK.R" -1
30 "KneeIK.R" -1
end
skeleton
  time 0
  0 -6.132846 -0.011674 2.526678 2.241311 -0.000000 1.570796
  1 -0.000000 7.391150 -0.000000 0.310637 -0.136849 -0.083328
  2 0.000000 3.425923 -0.000000 0.340412 -0.003251 -0.006818
  3 0.000000 4.689447 0.000000 -0.283390 -0.089593 -0.144651
  4 0.000000 3.425923 -0.000000 -1.226900 1.707282 0.130543
  5 0.000000 9.617204 0.000000 1.410575 -2.170164 -0.180336
  6 0.000001 9.265497 0.000005 1.209926 0.381438 -0.000001
  7 -0.000001 7.076735 -0.000001 -0.331409 3.087084 -0.224420
  8 0.951414 1.721432 -0.411208 0.383447 2.858993 1.159967
  9 -20.611406 12.665763 -0.038461 -0.000000 3.141593 1.287664
  10 0.000000 3.425923 -0.000000 -1.508533 -1.725871 0.079978
  11 -0.000001 9.680593 -0.000000 -1.554834 -0.982466 0.577080
  12 -0.000000 9.265488 0.000001 -1.508666 -0.381438 0.000001
  13 0.000002 7.076725 0.000001 0.119862 -3.031937 -0.028836
  14 5.822316 -8.758503 -1.470152 0.000000 -0.000000 1.570796
  15 -13.962210 -11.620028 9.891370 0.000000 -0.000000 1.570797
  16 -6.132846 -0.011674 2.533740 -1.570796 -0.000000 1.570796
  17 0.000000 3.379474 -0.000000 0.000000 -1.310649 1.463738
  18 0.000001 4.934431 -0.000001 -2.034910 0.022005 -1.590136
  19 -0.000002 10.930450 0.000001 1.294338 -0.095984 0.236098
  20 0.000001 15.790733 0.000002 -1.996910 -0.018227 -0.147868
  21 0.013812 3.380048 -0.000000 0.000000 1.308847 -1.295905
  22 -0.000000 4.888664 0.000000 -2.131028 -0.468123 1.467139
  23 0.000001 10.958051 0.000003 1.718492 -0.055815 -0.005032
  24 -0.000001 15.811127 -0.000001 -2.100088 0.149756 0.153083
  25 -7.731974 -5.381955 -22.590010 0.000000 -0.000000 1.570796
  26 12.950615 -6.309339 -6.853060 0.000000 0.000000 -1.570796
  27 7.262165 5.972620 -2.642860 0.000000 -0.000000 1.570796
  28 -14.316620 10.633931 11.487461 0.000000 -0.000000 1.570796
  29 -10.093974 7.239778 -19.406977 0.000000 -0.000000 1.570796
  30 12.980513 5.567562 -6.853060 0.000000 0.000000 -1.570796
  time 1
  0 -6.132846 -0.011674 4.361635 2.036635 -0.000000 1.570796
  1 0.000000 7.391149 -0.000000 0.275257 0.091736 -0.046266
  2 0.000000 3.425923 -0.000000 0.340412 -0.003251 -0.006818
  3 0.000000 4.689446 -0.000000 -1.042196 -0.065314 0.086611
  4 0.000000 3.425923 -0.000000 -1.213551 1.692469 0.145750
  5 -0.000001 9.617201 0.000000 1.233582 -2.432942 -0.338301
  6 -0.000000 9.265491 0.000005 1.811706 0.381438 -0.000001
  7 0.000000 7.076730 -0.000002 -0.136259 3.115070 -0.018961
  8 0.951410 1.721432 -0.411207 0.383447 2.858993 1.159967
  9 -20.611387 12.665768 -0.038469 -0.000000 3.141593 1.287664
  10 0.000000 3.425923 -0.000000 -1.453492 -1.570796 0.000000
  11 0.000001 9.680593 0.000000 -1.730943 -1.185702 0.120574
  12 -0.000000 9.265492 -0.000001 -0.777401 -0.381438 0.000001
  13 0.000001 7.076731 0.000001 0.149233 -3.065675 -0.005051
  14 5.459206 -7.963660 4.454102 0.000000 -0.000000 1.570796
  15 -14.295469 -11.620027 11.487461 0.000000 -0.000000 1.570797
  16 -6.132846 -0.011674 4.361635 -1.570796 -0.000000 1.570796
  17 0.000000 3.379475 -0.000000 0.000000 -1.310649 1.463738
  18 0.000000 4.934430 0.000001 -1.883493 0.042759 -1.597956
  19 -0.000005 10.930460 0.000004 1.050984 -0.040297 0.212626
  20 0.000002 15.790737 0.000006 -1.888070 -0.011748 -0.127883
  21 0.013812 3.380049 -0.000000 0.000000 1.308847 -1.295905
  22 0.000000 4.888664 0.000002 -1.890819 -0.416892 1.471349
  23 -0.000003 10.958054 0.000003 1.176910 -0.058512 -0.004698
  24 0.000001 15.811131 0.000001 -1.989884 0.109140 0.125470
  25 -7.731974 -5.381955 -22.590010 0.000000 -0.000000 1.570796
  26 12.950615 -6.309339 -6.853060 0.000000 0.000000 -1.570796
  27 7.262165 5.886607 2.088228 0.000000 -0.000000 1.570796
  28 -14.316620 10.633931 11.487461 0.000000 -0.000000 1.570796
  29 -8.547504 7.239778 -22.500784 0.000000 -0.000000 1.570796
  30 12.980513 5.567562 -6.853060 0.000000 0.000000 -1.570796
  time 2
  0 -6.134528 -0.011674 5.024201 1.534253 0.000000 1.570796
  1 0.000000 7.391149 -0.000000 0.262167 0.393115 -0.038332
  2 -0.000000 3.425923 0.000000 0.340412 -0.003251 -0.006818
  3 0.000000 4.689447 0.000000 -1.162092 -0.112069 0.167324
  4 -0.000000 3.425923 0.000000 -1.213551 1.692469 0.145750
  5 0.000000 9.617206 0.000001 -1.748801 -0.260529 1.845810
  6 -0.000004 9.265497 0.000006 1.764422 0.381439 -0.000001
  7 -0.000002 7.076732 -0.000002 -0.136260 3.115070 -0.018960
  8 0.951413 1.721432 -0.411208 0.383446 2.858993 1.159967
  9 -20.611401 12.665764 -0.038454 -0.000001 3.141592 1.287665
  10 -0.000000 3.425923 0.000000 -1.517898 -1.461711 0.037363
  11 -0.000001 9.680594 -0.000001 -0.836557 -0.787915 -0.798602
  12 0.000001 9.265489 -0.000002 -0.693673 -0.381438 0.000000
  13 -0.000001 7.076731 -0.000002 0.149233 -3.065675 -0.005052
  14 5.459206 -9.807550 9.720289 0.000000 -0.000000 1.570796
  15 -14.295469 1.101524 11.487461 0.000000 -0.000000 1.570797
  16 -6.131164 -0.011674 5.013741 -1.882040 -0.000000 1.570796
  17 -0.000000 3.379474 0.000000 0.000000 -1.310648 1.463738
  18 -0.000000 4.934431 -0.000000 -1.447103 0.080903 -1.617171
  19 -0.000001 10.930453 0.000005 0.904621 -0.010205 0.192340
  20 0.000002 15.790739 0.000003 -1.867770 -0.013456 -0.123701
  21 0.013812 3.380048 -0.000000 -0.000000 1.308847 -1.295905
  22 -0.000001 4.888663 -0.000001 -1.573971 -0.555664 1.655680
  23 -0.000001 10.958044 0.000003 1.040765 -0.059131 -0.004390
  24 -0.000002 15.811130 0.000002 -1.934032 -0.144701 0.258442
  25 -7.447062 -5.381955 -22.603800 0.000000 -0.000000 1.570796
  26 12.950615 -6.309339 -6.853060 0.000000 0.000000 -1.570796
  27 -0.117558 11.512635 4.938476 0.000000 -0.000000 1.683180
  28 -14.316620 10.633931 11.487461 0.000000 -0.000000 1.570796
  29 -7.279131 7.239778 -22.536757 0.000000 -0.000000 1.570796
  30 12.980513 10.599792 -6.853060 0.000000 0.000000 -1.570796
  time 3
  0 -6.134460 -0.011674 4.880507 1.568070 -0.000000 1.570796
  1 -0.000000 7.391149 0.000000 0.262167 0.393114 -0.038332
  2 -0.000000 3.425923 -0.000000 0.340412 -0.003251 -0.006818
  3 -0.000000 4.689448 -0.000001 -0.528282 -0.013198 0.077275
  4 -0.000000 3.425923 -0.000000 -1.203183 1.699853 0.162317
  5 -0.000001 9.617204 0.000001 -1.600163 -0.030851 1.433139
  6 -0.000006 9.265495 0.000003 1.679978 0.381438 -0.000001
  7 0.000003 7.076734 -0.000004 -0.136259 3.115070 -0.018961
  8 0.951410 1.721431 -0.411206 0.361676 2.851010 1.191506
  9 -20.611393 12.665769 -0.038454 -0.000001 3.141592 1.287665
  10 -0.000000 3.425923 -0.000000 0.714752 -1.535167 -2.231558
  11 0.000001 9.680594 -0.000000 -0.695764 -0.799499 -0.573559
  12 0.000002 9.265486 -0.000001 -1.417058 -0.381438 0.000001
  13 0.000001 7.076727 0.000001 0.149233 -3.065675 -0.005051
  14 5.619926 -10.374601 8.626754 0.000000 -0.000000 1.570796
  15 -14.295469 15.408741 11.978420 0.000000 -0.000000 1.570797
  16 -6.131231 -0.011674 4.859476 -1.869635 -0.000000 1.570796
  17 -0.000000 3.379475 0.000000 0.000000 -1.310648 1.463738
  18 -0.000000 4.934430 -0.000000 -1.470724 0.077869 -1.617227
  19 -0.000003 10.930451 0.000006 0.930910 -0.015378 0.196299
  20 0.000003 15.790738 0.000003 -1.899511 -0.015240 -0.129245
  21 0.013811 3.380050 0.000000 0.000000 1.308847 -1.295905
  22 0.000000 4.888663 0.000001 -1.707506 -0.607157 1.780632
  23 -0.000000 10.958050 0.000002 1.083475 -0.058941 -0.004495
  24 -0.000004 15.811130 0.000002 -1.934350 -0.144492 0.258438
  25 -7.600311 -5.381955 -22.602743 0.000000 -0.000000 1.570796
  26 12.950615 -6.309339 -6.853060 0.000000 0.000000 -1.570796
  27 -0.207826 10.299680 6.545664 0.000000 -0.000000 1.655090
  28 -14.316620 10.633931 11.487461 0.000000 -0.000000 1.570796
  29 -6.568752 7.239778 -22.500784 0.000000 -0.000000 1.570796
  30 12.980512 12.849011 -6.853060 0.000000 0.000000 -1.570796
  time 4
  0 -6.134259 -0.011674 4.449421 1.670856 -0.000000 1.570796
  1 0.000002 7.391147 0.000001 0.262167 0.393115 -0.038332
  2 -0.000000 3.425924 -0.000000 0.340412 -0.003251 -0.006818
  3 -0.000000 4.689447 -0.000000 -0.188360 0.057800 0.059038
  4 -0.000000 3.425924 -0.000000 -1.182267 1.719424 0.199606
  5 0.000001 9.617205 -0.000000 -1.567076 0.004528 1.315612
  6 -0.000003 9.265500 0.000005 1.528859 0.381439 -0.000001
  7 0.000001 7.076737 -0.000001 -0.136259 3.115070 -0.018961
  8 0.951411 1.721433 -0.411206 0.314446 2.831105 1.260691
  9 -20.611410 12.665769 -0.038457 -0.000001 3.141592 1.287665
  10 -0.000000 3.425924 -0.000000 -1.998862 -1.662731 0.465450
  11 0.000000 9.680595 -0.000001 -1.174328 -1.116079 -0.269242
  12 0.000001 9.265490 0.000000 -2.121552 -0.381438 0.000000
  13 0.000002 7.076727 -0.000001 0.149233 -3.065675 -0.005051
  14 6.021722 -10.754711 5.892918 0.000000 -0.000000 1.570796
  15 -14.295469 24.333509 13.149171 0.000000 -0.000000 1.570797
  16 -6.131433 -0.011674 4.396682 -1.832356 -0.000000 1.570796
  17 -0.000000 3.379474 -0.000001 0.000000 -1.310649 1.463738
  18 0.000001 4.934430 -0.000000 -1.539296 0.069173 -1.616919
  19 -0.000002 10.930457 0.000009 1.005136 -0.030545 0.206739
  20 -0.000002 15.790745 0.000004 -1.975453 -0.020218 -0.142266
  21 0.013812 3.380048 -0.000000 -0.000000 1.308847 -1.295905
  22 -0.000000 4.888664 -0.000001 -1.756760 -0.600618 1.769298
  23 0.000002 10.958044 0.000003 1.151026 -0.058633 -0.004646
  24 -0.000003 15.811125 0.000001 -1.939109 -0.141362 0.258361
  25 -8.045056 -5.381955 -22.599676 0.000000 -0.000000 1.570796
  26 12.950615 -6.309339 -6.853060 0.000000 0.000000 -1.570796
  27 -0.478631 6.660813 11.367228 0.000000 -0.000000 1.570796
  28 -14.316620 10.633931 11.487461 0.000000 -0.000000 1.570796
  29 -7.235855 7.239778 -22.500784 0.000000 -0.000000 1.570796
  30 12.980512 12.538713 -6.853060 0.000000 0.000000 -1.570796
  time 5
  0 -6.133923 -0.011674 3.730947 1.845479 -0.000000 1.570796
  1 0.000000 7.391149 0.000001 0.262167 0.393114 -0.038332
  2 0.000000 3.425922 0.000000 0.340412 -0.003251 -0.006818
  3 -0.000000 4.689447 0.000000 -0.061748 0.085198 0.058539
  4 0.000000 3.425922 0.000000 -1.163731 1.747264 0.241357
  5 -0.000002 9.617204 -0.000000 -1.521071 -0.039509 1.265252
  6 -0.000003 9.265497 0.000003 1.425503 0.381439 -0.000001
  7 -0.000001 7.076734 0.000001 -0.136259 3.115070 -0.018961
  8 0.951414 1.721433 -0.411208 0.268447 2.808141 1.329301
  9 -20.611406 12.665768 -0.038445 -0.000000 3.141592 1.287664
  10 0.000000 3.425922 0.000000 -1.969479 -1.675737 0.432455
  11 0.000000 9.680595 -0.000000 -1.074619 -0.976393 -0.345334
  12 0.000001 9.265489 -0.000001 -1.994235 -0.381437 0.000001
  13 0.000000 7.076730 -0.000001 0.149233 -3.065675 -0.005051
  14 6.544059 -10.985270 2.338929 0.000000 -0.000000 1.570796
  15 -14.295468 29.141424 14.546518 0.000000 -0.000000 1.570797
  16 -6.131769 -0.011674 3.625359 -1.770074 -0.000000 1.570796
  17 -0.000000 3.379474 -0.000000 0.000000 -1.310648 1.463738
  18 0.000001 4.934432 -0.000000 -1.647564 0.055883 -1.615043
  19 -0.000002 10.930455 0.000009 1.116281 -0.054644 0.220234
  20 -0.000002 15.790743 0.000001 -2.066295 -0.027456 -0.157305
  21 0.013811 3.380048 -0.000000 0.000000 1.308847 -1.295905
  22 0.000000 4.888664 -0.000001 -1.815548 -0.586007 1.735874
  23 -0.000004 10.958049 0.000004 1.248300 -0.058173 -0.004825
  24 -0.000001 15.811135 0.000006 -1.959728 -0.127793 0.257855
  25 -8.737765 -5.381955 -22.594900 0.000000 -0.000000 1.570796
  26 12.950615 -6.309339 -6.853060 0.000000 0.000000 -1.570796
  27 0.364950 6.552781 7.857870 0.000000 -0.000000 1.570796
  28 -14.316620 10.633931 11.487461 0.000000 -0.000000 1.570796
  29 -8.474759 7.239778 -22.500784 0.000000 -0.000000 1.570796
  30 12.980512 11.723936 -6.853060 0.000000 0.000000 -1.570796
  time 6
  0 -6.133452 -0.011674 2.725083 2.092535 -0.000000 1.570796
  1 0.000001 7.391149 -0.000000 0.262167 0.393115 -0.038332
  2 0.000000 3.425923 0.000000 0.340412 -0.003251 -0.006818
  3 -0.000000 4.689448 0.000001 -0.060514 0.085464 0.058551
  4 0.000000 3.425923 0.000000 -1.152414 1.779314 0.279379
  5 0.000001 9.617204 0.000000 -1.488079 -0.129483 1.216980
  6 0.000000 9.265496 0.000002 1.543269 0.381439 -0.000000
  7 -0.000001 7.076730 0.000002 -0.136259 3.115070 -0.018960
  8 0.951412 1.721429 -0.411208 0.248042 2.796760 1.360206
  9 -20.611385 12.665754 -0.038452 0.000000 3.141592 1.287665
  10 0.000000 3.425923 0.000000 -1.990786 -1.665945 0.456479
  11 -0.000001 9.680596 -0.000000 -1.053583 -0.960603 -0.389487
  12 0.000001 9.265487 0.000001 -1.870816 -0.381438 0.000001
  13 0.000001 7.076727 -0.000000 0.149233 -3.065675 -0.005051
  14 7.066397 -11.103665 -1.215057 0.000000 -0.000000 1.570796
  15 -14.295468 31.098087 15.717271 0.000000 -0.000000 1.570797
  16 -6.132241 -0.011674 2.545505 -1.682763 0.000000 1.570796
  17 0.000000 3.379475 0.000000 0.000000 -1.310649 1.463738
  18 0.000000 4.934428 -0.000001 -1.790753 0.039378 -1.610110
  19 -0.000009 10.930450 0.000002 1.253071 -0.086161 0.233079
  20 0.000000 15.790737 0.000001 -2.142302 -0.034546 -0.169355
  21 0.013812 3.380049 0.000000 0.000000 1.308847 -1.295905
  22 0.000001 4.888663 0.000001 -1.952998 -0.558365 1.704721
  23 -0.000000 10.958042 0.000003 1.385926 -0.057497 -0.005001
  24 -0.000003 15.811131 0.000002 -2.015210 -0.091288 0.255098
  25 -9.610628 -5.381955 -22.588884 0.000000 -0.000000 1.570796
  26 12.950615 -6.309339 -6.853060 0.000000 0.000000 -1.570796
  27 1.208532 6.444749 4.348514 0.000000 -0.000000 1.570796
  28 -14.316620 10.633931 11.487461 0.000000 -0.000000 1.570796
  29 -9.141862 7.239778 -22.500784 0.000000 -0.000000 1.570796
  30 12.980513 10.578859 -6.853060 0.000000 0.000000 -1.570796
  time 7
  0 -6.132846 -0.011674 1.431829 2.403762 -0.000000 1.570796
  1 -0.000000 7.391149 0.000000 0.274881 0.234866 -0.159590
  2 0.000000 3.425922 0.000000 0.340412 -0.003251 -0.006818
  3 0.000000 4.689445 0.000000 -0.112043 0.074315 0.058321
  4 0.000000 3.425922 0.000000 -1.147699 1.811420 0.310890
  5 0.000001 9.617205 -0.000000 -1.316742 -0.128117 1.290236
  6 0.000000 9.265496 0.000003 1.768862 0.381439 -0.000001
  7 0.000002 7.076733 -0.000000 -0.136259 3.115070 -0.018961
  8 0.951414 1.721430 -0.411208 0.317585 2.832068 1.293379
  9 -20.611395 12.665772 -0.038445 -0.000001 3.141593 1.287664
  10 0.000000 3.425922 0.000000 -2.013719 -1.657391 0.481798
  11 0.000001 9.680596 -0.000000 -1.214339 -0.998338 -0.127002
  12 0.000003 9.265488 0.000001 -2.100249 -0.381436 0.000001
  13 0.000002 7.076729 -0.000001 0.149233 -3.065675 -0.005051
  14 7.468194 -11.147285 -3.948896 0.000000 -0.000000 1.570796
  15 -14.295468 31.469048 16.208233 0.000000 -0.000000 1.570797
  16 -6.132846 -0.011674 1.157124 -1.570796 -0.000000 1.570796
  17 0.000000 3.379475 -0.000000 0.000000 -1.310649 1.463738
  18 0.000000 4.934431 -0.000001 -1.966130 0.021273 -1.600642
  19 -0.000003 10.930453 0.000001 1.407181 -0.123365 0.242259
  20 -0.000003 15.790738 -0.000002 -2.174088 -0.037781 -0.174232
  21 0.013812 3.380049 -0.000000 0.000000 1.308847 -1.295905
  22 -0.000001 4.888664 0.000000 -2.199931 -0.522780 1.681787
  23 0.000001 10.958053 0.000005 1.566015 -0.056587 -0.005088
  24 0.000002 15.811129 -0.000000 -2.132139 -0.015183 0.242711
  25 -10.578204 -5.381955 -22.582216 0.000000 -0.000000 1.570796
  26 12.950615 -6.309339 -6.853060 0.000000 0.000000 -1.570796
  27 2.052113 6.336718 0.839155 0.000000 -0.000000 1.570796
  28 -14.316620 10.633931 11.487461 0.000000 -0.000000 1.570796
  29 -8.836293 7.239778 -22.471556 0.000000 -0.000000 1.570796
  30 12.980513 9.277659 -6.853060 0.000000 0.000000 -1.570796
  time 8
  0 -6.132846 -0.011673 3.157616 2.298795 -0.205846 1.570287
  1 -0.000000 7.391150 -0.000000 0.305497 0.079344 -0.278881
  2 0.000000 3.425923 -0.000000 0.340412 -0.003251 -0.006818
  3 0.000001 4.689445 0.000000 -0.145450 0.067081 0.058479
  4 0.000000 3.425923 -0.000000 -1.147151 1.839419 0.334879
  5 -0.000000 9.617205 -0.000000 -1.070359 -0.110863 1.371221
  6 0.000000 9.265500 0.000002 1.141540 0.381438 -0.000000
  7 0.000001 7.076730 0.000001 -0.136260 3.115070 -0.018961
  8 0.951413 1.721431 -0.411208 0.380729 2.851775 1.157608
  9 -20.611395 12.665770 -0.038452 -0.000001 3.141593 1.287664
  10 0.000000 3.425923 -0.000000 -0.568930 -1.559425 -0.885737
  11 0.000001 9.680595 0.000000 -1.026984 -1.100645 -0.257129
  12 0.000001 9.265486 -0.000002 -2.086076 -0.381437 0.000001
  13 0.000001 7.076727 0.000000 0.149233 -3.065675 -0.005051
  14 7.628913 -11.153516 -5.042431 0.000000 -0.000000 1.570796
  15 -14.295468 30.495991 16.208233 0.000000 -0.000000 1.570797
  16 -6.132846 -0.011674 2.353253 -1.570796 -0.000000 1.570796
  17 0.000000 3.379474 -0.000000 0.000000 -1.310649 1.463738
  18 0.000001 4.934431 -0.000001 -1.885411 0.032273 -1.603281
  19 -0.000005 10.930453 0.000002 1.267624 -0.089611 0.234190
  20 -0.000002 15.790741 -0.000001 -2.126964 -0.032521 -0.168318
  21 0.013812 3.380048 -0.000000 0.000000 1.308847 -1.295905
  22 -0.000000 4.888664 0.000003 -2.221613 -0.474523 1.619434
  23 -0.000001 10.958050 0.000004 1.475005 -0.057049 -0.005064
  24 -0.000000 15.811132 -0.000003 -2.086689 -0.011153 0.234577
  25 -10.578204 -5.381955 -22.582216 0.000000 -0.000000 1.570796
  26 12.950615 -6.309339 -6.853060 0.000000 0.000000 -1.570796
  27 3.088648 6.318247 3.989279 0.000000 -0.000000 1.570796
  28 -14.316620 10.633931 11.487461 0.000000 -0.000000 1.570796
  29 -6.697306 7.239778 -22.266954 0.000000 -0.000000 1.570796
  30 12.980513 7.994519 -6.853060 0.000000 0.000000 -1.570796
  time 9
  0 -6.132846 -0.011673 3.398153 2.283908 -0.234370 1.571969
  1 0.000000 7.391148 0.000001 0.252973 0.082524 -0.278096
  2 -0.000001 3.425923 -0.000001 0.340412 -0.003251 -0.006818
  3 -0.000000 4.689447 0.000001 -0.145450 0.067081 0.058479
  4 -0.000001 3.425923 -0.000001 -1.148217 1.859199 0.350425
  5 -0.000000 9.617207 -0.000001 -1.196127 -0.155865 1.386040
  6 -0.000003 9.265496 0.000004 1.214551 0.381439 -0.000000
  7 0.000001 7.076733 0.000000 -0.136260 3.115070 -0.018960
  8 0.951412 1.721432 -0.411207 0.290976 2.795258 1.041143
  9 -20.611401 12.665778 -0.038454 -0.000001 3.141592 1.287665
  10 -0.000001 3.425923 -0.000001 -1.693551 -1.477463 0.316389
  11 0.000001 9.680594 -0.000001 -1.048306 -1.079422 -0.323645
  12 0.000002 9.265487 -0.000003 -1.968341 -0.381437 0.000001
  13 0.000001 7.076726 0.000000 0.149233 -3.065675 -0.005051
  14 7.403264 -11.142747 -4.572493 0.000000 -0.000000 1.570796
  15 -14.295468 26.637024 16.208233 0.000000 -0.000000 1.570797
  16 -6.132846 -0.011674 3.006327 -1.570796 -0.000000 1.570796
  17 0.000000 3.379475 -0.000000 0.000000 -1.310649 1.383002
  18 0.000000 4.934428 0.000001 -1.869109 0.116501 -1.584396
  19 -0.000004 10.930452 0.000002 1.235521 -0.082023 0.231672
  20 -0.000003 15.790734 0.000005 -2.079912 -0.027555 -0.162177
  21 0.013790 3.379490 -0.000000 0.000000 1.308847 -1.376640
  22 0.000000 4.888662 0.000001 -2.545116 -0.337040 1.604949
  23 0.000000 10.958049 0.000002 1.374298 -0.057555 -0.004990
  24 0.000001 15.811124 0.000001 -1.394601 0.089372 0.142450
  25 -10.578204 -5.381955 -22.582216 0.000000 -0.000000 1.570796
  26 12.950615 -6.309339 -6.853060 0.000000 0.000000 -1.570796
  27 3.431393 6.312139 5.030910 0.000000 -0.000000 1.570796
  28 -14.316620 10.633931 11.487461 0.000000 -0.000000 1.570796
  29 1.628140 7.239779 -20.592459 0.000000 -0.000000 1.570796
  30 12.980513 6.903613 -6.853060 0.000000 0.000000 -1.570796
  time 10
  0 -6.132846 -0.011673 3.237442 2.293866 -0.215322 1.570796
  1 -0.000000 7.391148 0.000001 0.129114 0.090706 -0.274275
  2 0.000000 3.425923 -0.000000 0.340412 -0.003251 -0.006818
  3 -0.000000 4.689447 -0.000000 -0.145450 0.067081 0.058479
  4 0.000000 3.425923 -0.000000 -1.148880 1.866694 0.356072
  5 0.000001 9.617205 -0.000000 -1.463646 -0.195834 1.515324
  6 -0.000003 9.265499 0.000005 1.412214 0.381438 -0.000000
  7 0.000004 7.076737 -0.000001 -0.136260 3.115070 -0.018961
  8 0.951413 1.721434 -0.411206 0.133523 2.720936 0.954716
  9 -20.611399 12.665783 -0.038440 -0.000001 3.141592 1.287664
  10 0.000000 3.425923 -0.000000 -1.712050 -1.388822 0.412414
  11 0.000000 9.680594 -0.000000 -1.134717 -0.989958 -0.368595
  12 0.000000 9.265486 -0.000003 -1.775308 -0.381438 0.000001
  13 0.000002 7.076729 0.000001 0.149233 -3.065675 -0.005051
  14 6.865177 -11.067374 -3.305180 0.000000 -0.000000 1.570796
  15 -14.295469 18.482454 16.208233 0.000000 -0.000000 1.570797
  16 -6.132846 -0.011674 3.261533 -1.570796 -0.000000 1.570796
  17 0.000000 3.379474 -0.000000 0.000000 -1.310649 1.302267
  18 0.000001 4.934430 -0.000001 -1.729118 0.213813 -1.576052
  19 -0.000001 10.930450 0.000004 1.189057 -0.071192 0.227601
  20 -0.000001 15.790736 0.000003 -2.183935 -0.038499 -0.177322
  21 0.013768 3.378934 -0.000000 0.000000 1.308847 -1.457376
  22 0.000001 4.888664 0.000001 -2.250934 -0.222159 1.571811
  23 -0.000001 10.958048 0.000004 0.681527 -0.060507 -0.003205
  24 -0.000009 15.811125 0.000010 -1.137337 0.073831 0.154935
  25 -13.080695 -5.381956 -22.409540 0.000000 -0.000000 1.570796
  26 12.950615 -6.309339 -6.853060 0.000000 0.000000 -1.570796
  27 3.401515 6.312672 4.940111 0.000000 -0.000000 1.570796
  28 -14.316620 10.633931 11.487461 0.000000 -0.000000 1.570796
  29 6.688017 7.239778 -22.331263 0.000000 -0.000000 1.570796
  30 12.980513 6.179122 -6.853060 0.000000 0.000000 -1.570796
  time 11
  0 -6.132846 -0.011673 3.217939 2.301579 -0.186557 1.570075
  1 -0.000001 7.391150 0.000000 -0.018899 0.101365 -0.260993
  2 0.000001 3.425922 0.000000 0.340412 -0.003251 -0.006818
  3 -0.000000 4.689446 -0.000000 -0.174971 0.055525 0.054420
  4 0.000001 3.425922 0.000000 -1.163258 1.821613 0.333075
  5 0.000001 9.617208 0.000000 -1.760083 -0.249124 1.861259
  6 0.000002 9.265495 0.000003 1.587366 0.381439 -0.000001
  7 0.000001 7.076735 -0.000002 -0.136260 3.115070 -0.018961
  8 0.951413 1.721432 -0.411208 0.047379 2.686338 0.916852
  9 -20.611403 12.665777 -0.038454 -0.000001 3.141592 1.287664
  10 0.000001 3.425922 0.000000 -1.737754 -1.449374 0.386709
  11 0.000001 9.680596 -0.000001 -1.147424 -0.902167 -0.336824
  12 0.000002 9.265488 -0.000003 -1.761569 -0.381438 0.000000
  13 0.000001 7.076728 0.000002 0.149233 -3.065675 -0.005051
  14 6.222943 -10.862787 -1.454235 0.000000 -0.000000 1.570796
  15 -14.295469 5.890431 14.984328 0.000000 -0.000000 1.570797
  16 -6.132846 -0.011674 3.264065 -1.570796 -0.000000 1.570796
  17 0.000000 3.379475 -0.000000 0.000000 -1.310649 1.355083
  18 0.000000 4.934429 0.000003 -1.819245 0.139999 -1.588829
  19 -0.000001 10.930451 0.000006 1.480730 -0.141480 0.244589
  20 -0.000001 15.790734 -0.000005 -2.123312 -0.032328 -0.172330
  21 0.013775 3.379299 -0.000000 0.000000 1.308847 -1.404560
  22 0.000001 4.888662 0.000001 -2.317415 -0.295375 1.541835
  23 -0.000002 10.958047 0.000004 1.020301 -0.059220 -0.004336
  24 0.000002 15.811123 0.000003 -1.469813 0.092756 0.146905
  25 -14.204340 -5.381955 -19.107168 0.000000 -0.000000 1.570796
  26 12.950615 -6.309339 -6.853060 0.000000 0.000000 -1.570796
  27 3.320185 6.314121 4.692942 0.000000 -0.000000 1.570796
  28 -14.316620 10.633931 11.487461 0.000000 -0.000000 1.570796
  29 2.932603 7.239779 -22.450556 0.000000 -0.000000 1.570796
  30 12.980513 5.907136 -6.853060 0.000000 0.000000 -1.570796
  time 12
  0 -6.132846 -0.011674 3.164652 2.322440 -0.107747 1.569255
  1 0.000000 7.391150 0.000000 -0.141887 0.113376 -0.230517
  2 -0.000000 3.425923 -0.000000 0.340412 -0.003251 -0.006818
  3 -0.000000 4.689448 0.000001 -0.384908 -0.029924 0.035542
  4 -0.000000 3.425923 -0.000000 -1.202407 1.737926 0.252924
  5 -0.000000 9.617204 0.000000 1.108394 -2.842287 -0.698948
  6 -0.000000 9.265491 0.000007 1.742032 0.381439 -0.000001
  7 0.000001 7.076730 -0.000003 -0.136259 3.115070 -0.018961
  8 0.951412 1.721433 -0.411207 0.120560 2.726741 1.001817
  9 -20.611393 12.665764 -0.038457 -0.000001 3.141592 1.287664
  10 -0.000000 3.425923 -0.000000 -1.763407 -1.510109 0.361054
  11 0.000001 9.680595 0.000000 -1.315606 -0.841650 -0.177159
  12 -0.000000 9.265485 -0.000002 -1.862794 -0.381438 0.000001
  13 0.000001 7.076726 -0.000000 0.149233 -3.065675 -0.005051
  14 5.684856 -10.464381 0.766596 0.000000 -0.000000 1.570796
  15 -14.295469 -6.209517 12.711365 0.000000 -0.000000 1.570797
  16 -6.132846 -0.011674 3.159112 -1.570796 -0.000000 1.570796
  17 0.000000 3.379474 -0.000000 0.000000 -1.310649 1.453238
  18 0.000000 4.934429 -0.000000 -1.960156 0.031050 -1.595131
  19 -0.000005 10.930451 0.000001 1.395314 -0.120457 0.241758
  20 -0.000003 15.790739 -0.000004 -2.010580 -0.021098 -0.158940
  21 0.013787 3.379975 -0.000000 0.000000 1.308847 -1.306404
  22 0.000000 4.888661 0.000001 -2.209496 -0.417988 1.505636
  23 0.000001 10.958049 0.000000 1.333560 -0.057757 -0.004945
  24 0.000002 15.811124 0.000002 -1.809693 0.108285 0.132761
  25 -10.556620 -5.381955 -20.742167 0.000000 -0.000000 1.570796
  26 12.950615 -6.309339 -6.853060 0.000000 0.000000 -1.570796
  27 3.548872 5.782602 5.011573 0.000000 -0.000000 1.570796
  28 -14.316620 10.633931 11.487461 0.000000 -0.000000 1.570796
  29 -4.041738 7.239779 -22.494505 0.000000 -0.000000 1.570796
  30 12.980513 5.821397 -6.853060 0.000000 0.000000 -1.570796
end
