version 1
nodes
0 "Bone" -1
1 "Bone.002" 0
2 "Bone.003" 1
3 "Bone.006" 2
4 "Bone.007" 1
5 "Arm.L.002" 4
6 "Arm.L.005" 5
7 "Arm.L.006" 6
8 "Bone.004" 7
9 "Bone.005" 8
10 "Bone.008" 1
11 "Arm.R.002" 10
12 "Arm.R.005" 11
13 "Arm.R.006" 12
14 "ForearmIK.L" -1
15 "UpperarmIK.L" -1
16 "Bone.001" -1
17 "Leg.L.001" 16
18 "Leg.L.002" 17
19 "Leg.L.003" 18
20 "Leg.L.004" 19
21 "Leg.R.001" 16
22 "Leg.R.002" 21
23 "Leg.R.003" 22
24 "Leg.R.004" 23
25 "ShinIK.L" -1
26 "KneeIK.L" -1
27 "ForearmIK.R" -1
28 "UpperarmIK.R" -1
29 "ShinIK.R" -1
30 "KneeIK.R" -1
end
skeleton
  time 0
  0 -6.132844 -0.011674 -20.046755 0.057499 0.000000 1.570796
  1 0.000000 7.391150 0.000001 -0.176674 0.058255 -0.080197
  2 -0.000000 3.425924 0.000001 0.340412 -0.003251 -0.006818
  3 -0.000000 4.689447 0.000003 -0.643426 -0.127969 0.176175
  4 -0.000000 3.425924 0.000001 -1.131597 1.332838 0.165183
  5 0.000002 9.617205 -0.000002 0.730035 2.845937 0.392430
  6 -0.000007 9.265493 0.000005 0.658644 0.381438 -0.000000
  7 -0.000002 7.076735 0.000003 -0.135388 3.083205 0.036728
  8 0.951413 1.721431 -0.411207 0.383447 2.858993 1.159967
  9 -20.611408 12.665771 -0.038443 -0.000001 3.141593 1.287664
  10 -0.000000 3.425924 0.000001 -1.356234 -1.388416 0.032709
  11 0.000003 9.680594 -0.000001 -0.868336 0.200658 -0.449233
  12 -0.000002 9.265488 -0.000004 -0.005003 -0.381438 0.000000
  13 0.000000 7.076732 -0.000004 0.149234 -3.065675 -0.005051
  14 -10.744657 -21.136698 -21.867308 0.000000 -0.000000 1.570796
  15 -24.901207 -4.847698 -26.606310 0.000000 -0.000000 1.570797
  16 -6.132845 -0.011674 -20.046755 -3.020867 0.000000 1.570796
  17 0.000000 3.379474 -0.000001 0.000000 -1.310649 1.463738
  18 0.000004 4.934429 -0.000000 -1.763690 0.148122 -1.504818
  19 -0.000001 10.930449 0.000007 0.612193 0.039222 0.140185
  20 -0.000000 15.790732 0.000008 -1.624378 0.007075 -0.068550
  21 0.013812 3.380048 -0.000002 0.000000 1.308847 -1.295905
  22 0.000001 4.888664 0.000000 0.487903 -2.637829 -1.181395
  23 0.000000 10.958046 0.000003 1.741310 -0.055701 -0.005014
  24 0.000003 15.811123 -0.000001 -1.840965 0.146477 0.202530
  25 23.079443 -7.651384 -21.107595 0.000000 -0.000000 1.570796
  26 13.991360 -6.309339 -3.659397 0.000000 0.000000 -1.570796
  27 -8.032264 22.299990 -22.368872 0.000000 -0.000000 1.570796
  28 -16.751383 14.774158 -31.627024 0.000000 -0.000000 1.570796
  29 15.981501 7.239779 -21.430571 0.000000 -0.000000 1.570796
  30 19.270073 19.256960 4.558587 0.000000 0.000000 -1.570796
  time 1
  0 -6.132846 -0.011674 4.361635 2.036635 -0.000000 1.570796
  1 0.000000 7.391149 -0.000000 0.275257 0.091736 -0.046266
  2 0.000000 3.425923 -0.000000 0.340412 -0.003251 -0.006818
  3 0.000000 4.689446 -0.000000 -0.989222 -0.097630 0.201349
  4 0.000000 3.425923 -0.000000 -1.213551 1.692469 0.145750
  5 -0.000001 9.617201 0.000000 -1.699941 -0.543235 2.350878
  6 -0.000001 9.265491 0.000005 1.813428 0.381438 -0.000001
  7 0.000002 7.076730 -0.000002 -0.136259 3.115070 -0.018961
  8 0.951411 1.721431 -0.411207 0.383446 2.858993 1.159967
  9 -20.611395 12.665768 -0.038451 -0.000001 3.141592 1.287665
  10 0.000000 3.425923 -0.000000 -1.453492 -1.570796 0.000000
  11 0.000001 9.680593 0.000000 -2.320092 -0.684146 1.066427
  12 -0.000001 9.265492 0.000000 -0.937110 -0.381438 0.000001
  13 0.000003 7.076733 0.000002 0.149233 -3.065675 -0.005052
  14 5.459206 -9.577449 4.454102 0.000000 -0.000000 1.570796
  15 -14.295469 -4.847698 11.487461 0.000000 -0.000000 1.570797
  16 -6.132846 -0.011674 4.361635 -1.570796 -0.000000 1.570796
  17 0.000000 3.379475 -0.000000 0.000000 -1.310649 1.463738
  18 0.000000 4.934430 0.000001 -2.175324 0.041857 -1.591640
  19 -0.000001 10.930459 0.000005 0.805830 0.008231 0.176318
  20 -0.000005 15.790743 0.000006 -1.369304 0.002390 -0.042581
  21 0.013812 3.380049 -0.000000 0.000000 1.308847 -1.295905
  22 0.000000 4.888664 0.000002 -1.848814 -0.417410 1.469122
  23 -0.000002 10.958054 0.000002 1.174727 -0.058522 -0.004694
  24 -0.000003 15.811131 0.000002 -2.012247 0.114487 0.097801
  25 2.913327 -5.381955 -22.402643 0.000000 -0.000000 1.570796
  26 12.950615 -6.309339 -6.853060 0.000000 0.000000 -1.570796
  27 7.262165 9.700733 2.088228 0.000000 -0.000000 1.570796
  28 -14.316620 -1.526653 11.487461 0.000000 -0.000000 1.570796
  29 -9.434808 7.239778 -22.401857 0.000000 -0.000000 1.570796
  30 12.980513 5.567562 -6.853060 0.000000 0.000000 -1.570796
  time 2
  0 -6.132845 -0.011674 3.819510 1.648377 0.117358 2.030365
  1 -0.000001 7.391149 -0.000000 0.188872 0.071037 -0.096469
  2 -0.000000 3.425923 -0.000000 0.350406 -0.003037 -0.007506
  3 0.000000 4.689446 0.000000 -1.598188 -0.159846 0.023222
  4 -0.000000 3.425923 -0.000000 -1.203686 1.687278 0.151768
  5 -0.000001 9.617202 0.000002 -2.070418 -0.125781 2.244732
  6 -0.000002 9.265491 0.000006 2.034271 0.381439 -0.000001
  7 -0.000000 7.076731 -0.000001 -0.045757 -3.072649 -0.088784
  8 0.951414 1.721431 -0.411208 0.383446 2.858993 1.159967
  9 -20.611395 12.665770 -0.038446 -0.000001 3.141592 1.287665
  10 -0.000000 3.425923 -0.000000 -1.394012 -1.546673 -0.057526
  11 0.000000 9.680595 -0.000000 -2.342103 -0.037817 0.691758
  12 0.000000 9.265491 -0.000000 -1.304647 -0.381438 0.000001
  13 0.000002 7.076732 -0.000000 0.141490 -3.110245 0.016790
  14 4.191891 -7.043327 10.407476 0.000000 -0.000000 1.570796
  15 -14.295469 -4.847698 11.487461 0.000000 -0.000000 1.570797
  16 -6.132846 -0.011674 3.819510 -1.768380 0.158456 1.865778
  17 -0.000001 3.379474 0.000000 0.000000 -1.310649 1.463738
  18 0.000000 4.934429 -0.000002 -2.059912 0.044544 -1.859709
  19 -0.000006 10.930449 0.000002 0.956529 -0.020522 0.200027
  20 0.000010 15.790729 0.000008 -1.357876 0.008777 -0.002075
  21 0.013812 3.380049 0.000001 0.042042 1.306361 -1.252401
  22 0.000000 4.888663 0.000000 -1.999386 -0.565452 1.209698
  23 0.000002 10.958042 -0.000001 1.637411 -0.056225 -0.005076
  24 0.000000 15.811122 -0.000001 -1.986468 0.121721 0.102260
  25 4.626041 -6.007713 -21.333315 0.000000 -0.000000 1.570796
  26 11.957731 -5.711545 -9.777315 0.000000 0.000000 -1.570796
  27 1.141976 7.591010 8.115231 0.000000 -0.000000 1.570796
  28 -5.021044 2.541903 11.146189 0.000000 -0.000000 1.570796
  29 -7.147690 7.239778 -19.837111 0.000000 -0.000000 1.570796
  30 12.980513 10.214840 -14.142376 0.000000 0.000000 -1.570796
  time 3
  0 -6.132844 -0.011675 3.277385 1.304197 0.426910 2.478493
  1 0.000000 7.391150 -0.000001 0.022064 0.020465 -0.184647
  2 0.000001 3.425922 -0.000000 0.377573 -0.002420 -0.009365
  3 -0.000001 4.689447 -0.000000 -1.596084 -0.135839 0.009429
  4 0.000001 3.425922 -0.000000 -1.174681 1.673988 0.170808
  5 0.000000 9.617207 -0.000001 -2.177140 0.293375 2.085342
  6 -0.000000 9.265495 0.000007 1.440983 0.381439 -0.000001
  7 -0.000002 7.076735 -0.000003 0.124689 -2.926842 -0.171794
  8 0.951413 1.721433 -0.411209 0.383446 2.858994 1.159967
  9 -20.611420 12.665773 -0.038462 -0.000000 3.141592 1.287665
  10 0.000001 3.425922 -0.000000 -1.391478 -1.484236 -0.054997
  11 -0.000001 9.680593 0.000001 -1.850776 -0.438874 0.243704
  12 -0.000003 9.265492 -0.000002 -1.897434 -0.381437 0.000001
  13 0.000001 7.076734 -0.000002 0.124661 3.044667 0.077597
  14 1.690309 -6.452944 11.257959 0.000000 -0.000000 1.570796
  15 -14.295469 -4.847698 11.487461 0.000000 -0.000000 1.570797
  16 -6.132845 -0.011675 3.277385 -1.923727 0.375340 2.148730
  17 0.000000 3.379475 0.000000 0.000000 -1.310649 1.463738
  18 -0.000002 4.934429 -0.000000 -1.879394 0.075740 -1.780284
  19 -0.000005 10.930450 0.000003 0.976315 -0.024560 0.202817
  20 -0.000005 15.790738 0.000003 -1.347875 0.034869 0.038781
  21 0.013812 3.380049 0.000000 0.152123 1.297258 -1.138796
  22 -0.000001 4.888664 0.000002 -2.139171 -0.659951 0.881711
  23 -0.000001 10.958042 0.000001 1.976658 -0.054557 -0.004675
  24 -0.000003 15.811125 -0.000009 -1.906864 0.138764 0.114705
  25 8.546012 -7.169835 -19.347418 0.000000 -0.000000 1.570796
  26 11.035951 -4.135543 -12.385054 0.000000 0.000000 -1.570796
  27 -9.396802 7.289621 8.976231 0.000000 -0.000000 1.570796
  28 1.126730 6.610459 8.757279 0.000000 -0.000000 1.570796
  29 -4.860573 7.239778 -17.272364 0.000000 -0.000000 1.570796
  30 12.980512 14.862118 -15.395433 0.000000 0.000000 -1.570796
  time 4
  0 -6.132843 -0.011675 2.735260 -2.038055 2.343653 -0.298056
  1 0.000001 7.391149 -0.000000 -0.091663 -0.015456 -0.227822
  2 0.000000 3.425922 0.000000 0.417699 -0.001417 -0.012079
  3 0.000000 4.689446 0.000000 -1.589135 -0.109678 0.009883
  4 0.000000 3.425922 0.000000 -1.122993 1.655962 0.208869
  5 0.000000 9.617201 -0.000001 -2.286176 0.517051 1.599438
  6 -0.000001 9.265495 0.000005 1.056612 0.381438 -0.000000
  7 0.000001 7.076729 -0.000001 0.348478 -2.752178 -0.289080
  8 0.951413 1.721431 -0.411208 0.383447 2.858993 1.159967
  9 -20.611376 12.665762 -0.038443 -0.000001 -3.141593 1.287664
  10 0.000000 3.425922 0.000000 -1.387990 -1.398517 -0.051510
  11 0.000000 9.680595 0.000000 -1.358770 -0.512906 0.327866
  12 -0.000003 9.265488 -0.000000 -1.785127 -0.381438 0.000001
  13 -0.000000 7.076730 0.000001 0.113709 2.837428 0.174070
  14 -0.437448 -4.925151 9.815836 0.000000 -0.000000 1.570796
  15 -14.295469 -4.847698 11.487461 0.000000 -0.000000 1.570797
  16 -6.132845 -0.011675 2.735260 1.124529 2.527225 -0.726813
  17 -0.000001 3.379475 0.000000 0.000000 -1.310649 1.463738
  18 -0.000001 4.934429 -0.000000 -1.504061 -0.307100 -0.996179
  19 0.000002 10.930453 0.000009 0.644736 0.034525 0.146651
  20 -0.000003 15.790738 0.000007 -1.338055 0.075807 0.079193
  21 0.013812 3.380050 0.000001 0.300097 1.278115 -0.986531
  22 0.000002 4.888661 0.000002 -2.069201 -0.569580 1.245870
  23 0.000001 10.958046 -0.000000 2.035244 -0.054288 -0.004549
  24 0.000004 15.811126 -0.000007 -1.783526 0.161794 0.135776
  25 12.845974 -7.795592 -18.278090 0.000000 -0.000000 1.570796
  26 10.204162 -1.907403 -14.653654 0.000000 0.000000 -1.570796
  27 -15.059526 7.036451 0.888441 0.000000 -0.000000 1.570796
  28 -6.730405 -0.884684 -2.598431 0.000000 -0.000000 1.570796
  29 -2.342083 -1.404395 -17.432661 0.000000 -0.000000 1.570796
  30 5.729782 9.497908 -16.634935 0.000000 0.000000 -1.570796
  time 5
  0 -6.132843 -0.011675 -2.660267 -1.536522 2.167818 0.170978
  1 -0.000000 7.391148 0.000000 -0.130066 -0.017644 -0.197818
  2 0.000001 3.425923 0.000000 0.466529 -0.000051 -0.015324
  3 -0.000001 4.689445 -0.000000 -1.570560 -0.084491 0.019184
  4 0.000001 3.425923 0.000000 -1.038973 1.636636 0.278053
  5 -0.000001 9.617203 -0.000001 1.348739 2.521437 -0.274287
  6 0.000002 9.265493 0.000005 1.188006 0.381438 -0.000001
  7 0.000000 7.076735 -0.000001 0.590818 -2.573002 -0.447508
  8 0.951414 1.721432 -0.411209 0.383448 2.858993 1.159968
  9 -20.611406 12.665763 -0.038445 -0.000001 -3.141592 1.287664
  10 0.000001 3.425923 0.000000 -1.384156 -1.305007 -0.047676
  11 -0.000001 9.680593 -0.000003 -0.487130 -0.546118 -0.618411
  12 0.000003 9.265482 0.000002 -1.475516 -0.381438 0.000001
  13 -0.000000 7.076727 0.000003 0.133784 2.563117 0.313832
  14 -1.953087 -2.223412 6.013878 0.000000 -0.000000 1.570796
  15 -14.295469 -4.847698 11.487461 0.000000 -0.000000 1.570797
  16 -6.132845 -0.011675 -2.660267 1.539596 2.236836 -0.264666
  17 0.000001 3.379475 -0.000001 0.000000 -1.310649 1.463738
  18 -0.000000 4.934431 0.000000 -1.795117 -0.307711 -0.924001
  19 0.000003 10.930449 0.000005 0.812325 0.007070 0.177424
  20 0.000001 15.790730 -0.000001 -1.327629 0.126685 0.118341
  21 0.013813 3.380049 -0.000000 0.453551 1.247195 -0.829323
  22 0.000000 4.888664 -0.000000 0.836918 -2.260557 -1.366796
  23 0.000003 10.958047 -0.000002 2.134363 -0.053849 -0.004301
  24 -0.000002 15.811123 0.000000 -1.628259 0.186091 0.165552
  25 16.042969 -7.304516 -18.673925 0.000000 -0.000000 1.570796
  26 9.481252 0.646807 -16.560503 0.000000 0.000000 -1.570796
  27 -16.303658 5.264262 -11.233580 0.000000 -0.000000 1.570796
  28 -14.587539 -9.320056 -12.478060 0.000000 -0.000000 1.570796
  29 0.176406 -10.048567 -17.592962 0.000000 -0.000000 1.570796
  30 -1.520948 -2.303353 -17.900984 0.000000 0.000000 -1.570796
  time 6
  0 -6.132843 -0.011675 -8.055798 -0.835445 2.197689 0.837001
  1 0.000000 7.391149 -0.000001 -0.154395 -0.012846 -0.127025
  2 0.000000 3.425922 0.000000 0.519732 0.001616 -0.018779
  3 -0.000000 4.689446 -0.000000 -1.533573 -0.063550 0.032239
  4 0.000000 3.425922 0.000000 -0.909166 1.619505 0.394259
  5 0.000001 9.617204 -0.000002 1.570039 2.723359 0.321180
  6 0.000004 9.265499 0.000006 1.158159 0.381438 -0.000001
  7 -0.000002 7.076734 -0.000001 0.800724 -2.398002 -0.629403
  8 0.951414 1.721433 -0.411208 0.383447 2.858993 1.159967
  9 -20.611404 12.665762 -0.038442 -0.000001 -3.141592 1.287664
  10 0.000000 3.425922 0.000000 -1.380604 -1.219420 -0.044123
  11 -0.000001 9.680594 -0.000001 -0.547536 -0.566820 -0.768866
  12 -0.000000 9.265487 0.000000 -1.519520 -0.381438 0.000001
  13 0.000002 7.076724 0.000000 0.237248 2.256102 0.535011
  14 -2.960761 1.227652 0.638697 0.000000 -0.000000 1.570796
  15 -14.295469 -4.847698 11.487461 0.000000 -0.000000 1.570797
  16 -6.132845 -0.011675 -8.055798 -0.798882 0.956113 -2.553137
  17 0.000001 3.379475 -0.000001 0.000000 -1.310649 1.463738
  18 -0.000001 4.934428 0.000002 -1.931372 -0.233504 -1.290951
  19 -0.000000 10.930447 0.000004 0.911723 -0.011590 0.193423
  20 -0.000006 15.790733 0.000005 -1.316303 0.182618 0.155373
  21 0.013813 3.380049 0.000000 0.589395 1.206213 -0.691595
  22 -0.000001 4.888664 0.000001 -2.089464 -0.255807 1.300955
  23 0.000002 10.958043 -0.000001 1.761201 -0.055602 -0.004996
  24 0.000006 15.811128 -0.000006 -1.455711 0.206908 0.202212
  25 18.031223 -6.110347 -19.544771 0.000000 -0.000000 1.570796
  26 8.886107 3.201015 -18.082979 0.000000 0.000000 -1.570796
  27 -14.924943 0.671678 -17.453016 0.000000 -0.000000 1.570796
  28 -14.567472 -10.904518 -13.441240 0.000000 -0.000000 1.570796
  29 10.639497 -11.844871 -17.753256 0.000000 -0.000000 1.570796
  30 13.678642 -10.886087 -19.706450 0.000000 0.000000 -1.570796
  time 7
  0 -6.132843 -0.011674 -13.451324 -0.349342 2.443771 1.285209
  1 0.000000 7.391149 0.000000 -0.167326 -0.001912 -0.042543
  2 -0.000000 3.425923 0.000000 0.572930 0.003465 -0.022141
  3 -0.000001 4.689446 0.000000 -1.471033 -0.050220 0.043826
  4 -0.000000 3.425923 0.000000 -0.744087 1.607821 0.549400
  5 -0.000001 9.617203 -0.000001 1.488860 2.682928 0.180639
  6 0.000004 9.265498 0.000007 1.080355 0.381438 -0.000002
  7 0.000000 7.076737 0.000000 0.989107 -2.244147 -0.827260
  8 0.951414 1.721433 -0.411208 0.383447 2.858993 1.159967
  9 -20.611399 12.665765 -0.038444 -0.000001 -3.141592 1.287664
  10 -0.000000 3.425923 0.000000 -1.377986 -1.157157 -0.041506
  11 0.000001 9.680595 -0.000001 -0.684075 -0.352502 -0.732497
  12 0.000004 9.265480 -0.000002 -1.760696 -0.381437 0.000001
  13 0.000001 7.076726 0.000005 0.565640 1.987297 0.969199
  14 -3.564625 5.003424 -5.523098 0.000000 -0.000000 1.570796
  15 -14.295469 -4.847698 11.487461 0.000000 -0.000000 1.570797
  16 -6.132845 -0.011675 -13.451324 -0.237092 0.662873 -1.938198
  17 0.000000 3.379475 0.000000 -0.000000 -1.310649 1.463738
  18 -0.000002 4.934429 0.000001 -1.997279 -0.171440 -1.878272
  19 -0.000007 10.930449 0.000005 1.024024 -0.034527 0.209217
  20 -0.000007 15.790743 -0.000001 -1.304271 0.238826 0.189349
  21 0.013813 3.380049 0.000001 0.698715 1.159627 -0.583617
  22 0.000001 4.888666 -0.000001 0.947521 -2.615675 -0.362107
  23 0.000003 10.958047 0.000003 0.675284 -0.060528 -0.003181
  24 0.000004 15.811128 0.000009 -1.282765 0.220980 0.241719
  25 19.049259 -4.631668 -20.415617 0.000000 -0.000000 1.570796
  26 8.437620 5.429155 -19.198465 0.000000 0.000000 -1.570796
  27 -11.891766 -5.482560 -20.646788 0.000000 -0.000000 1.570796
  28 -14.517301 -11.966628 -14.086885 0.000000 -0.000000 1.570796
  29 21.102583 -13.641173 -17.913553 0.000000 -0.000000 1.570796
  30 28.878231 -19.468822 -21.511915 0.000000 0.000000 -1.570796
  time 8
  0 -6.132843 -0.011674 -18.846853 -0.092956 2.760990 1.500528
  1 -0.000001 7.391150 -0.000001 -0.171782 0.013167 0.027964
  2 0.000001 3.425923 0.000002 0.621744 0.005317 -0.025136
  3 -0.000001 4.689446 -0.000000 -1.374882 -0.047562 0.047820
  4 0.000001 3.425923 0.000002 -0.650483 1.603672 0.639147
  5 0.000003 9.617206 -0.000000 1.334120 2.605249 -0.092278
  6 0.000007 9.265498 0.000006 0.874855 0.381438 -0.000001
  7 0.000002 7.076737 0.000000 1.184871 -2.131362 -1.036961
  8 0.951412 1.721432 -0.411208 0.383447 2.858993 1.159967
  9 -20.611401 12.665757 -0.038441 -0.000001 -3.141592 1.287664
  10 0.000001 3.425923 0.000002 -1.376967 -1.133119 -0.040487
  11 -0.000004 9.680593 -0.000001 -0.748662 -0.007606 -0.610882
  12 0.000000 9.265482 -0.000002 -1.713248 -0.381437 0.000001
  13 0.000002 7.076725 0.000000 -1.840635 1.259916 -1.349326
  14 -3.868834 8.679285 -11.684887 0.000000 -0.000000 1.570796
  15 -14.295469 -4.847698 11.487461 0.000000 -0.000000 1.570797
  16 -6.132845 -0.011675 -18.846853 -0.012748 0.284504 -1.657343
  17 -0.000000 3.379474 0.000002 0.000001 -1.310649 1.463738
  18 -0.000003 4.934430 -0.000000 -1.988170 0.000667 -2.688638
  19 -0.000000 10.930447 -0.000006 1.102775 -0.051635 0.218737
  20 -0.000005 15.790737 -0.000001 -1.292190 0.290715 0.219142
  21 0.013813 3.380049 0.000003 0.782248 1.113082 -0.506035
  22 0.000005 4.888665 0.000000 -1.718313 -0.574303 1.467013
  23 -0.000001 10.958046 0.000004 0.687490 -0.060488 -0.003229
  24 -0.000002 15.811126 0.000005 -1.126316 0.227677 0.278898
  25 19.335596 -3.287067 -20.811453 0.000000 -0.000000 1.570796
  26 8.154675 7.005154 -19.884344 0.000000 0.000000 -1.570796
  27 -8.858588 -10.877287 -21.823439 0.000000 -0.000000 1.570796
  28 -14.452079 -12.610862 -14.478504 0.000000 -0.000000 1.570796
  29 22.345484 -13.025698 -18.366034 0.000000 -0.000000 1.570796
  30 27.086826 -15.363283 -26.980650 0.000000 0.000000 -1.570796
  time 9
  0 -6.132843 -0.011674 -18.846853 2.951537 0.145609 -1.613178
  1 0.000000 7.391148 -0.000005 -0.171813 0.030651 0.056609
  2 0.000000 3.425924 -0.000001 0.661851 0.006946 -0.027527
  3 0.000000 4.689445 0.000001 0.130729 -0.123178 -0.188378
  4 0.000000 3.425924 -0.000001 -1.120542 1.675190 0.168351
  5 0.000002 9.617201 -0.000001 1.183430 2.753764 -0.447495
  6 0.000007 9.265492 0.000009 0.862453 0.381438 -0.000001
  7 -0.000001 7.076733 0.000002 1.348573 -2.036953 -1.224151
  8 0.951414 1.721433 -0.411210 0.383446 2.858993 1.159967
  9 -20.611393 12.665757 -0.038449 -0.000000 -3.141592 1.287664
  10 0.000000 3.425924 -0.000001 -1.373206 -1.275038 -0.058198
  11 -0.000001 9.680593 -0.000001 -0.764990 0.088728 -1.041149
  12 0.000006 9.265488 -0.000003 -1.199896 -0.381438 0.000001
  13 -0.000002 7.076731 0.000002 -1.267115 1.183087 -0.709682
  14 -3.977540 11.830613 -17.060068 0.000000 -0.000000 1.570796
  15 -14.295469 -4.847698 11.487461 0.000000 -0.000000 1.570797
  16 -6.132845 -0.011675 -18.846853 -0.026202 0.426146 -1.662036
  17 -0.000001 3.379475 0.000001 0.000000 -1.310649 1.463738
  18 0.000005 4.934431 0.000001 -2.012492 -0.036314 -2.468205
  19 -0.000003 10.930444 -0.000007 1.137815 -0.059482 0.222539
  20 -0.000006 15.790737 -0.000004 -1.281125 0.333894 0.243369
  21 0.013814 3.380049 -0.000001 0.844175 1.072344 -0.456055
  22 0.000002 4.888663 0.000000 -1.458248 -0.488371 1.359262
  23 -0.000001 10.958051 0.000001 0.385989 -0.061268 -0.001915
  24 0.000000 15.811127 0.000000 -1.000954 0.228852 0.309069
  25 19.335596 -2.406105 -20.811453 0.000000 -0.000000 1.570796
  26 8.056164 7.602955 -20.117994 0.000000 0.000000 -1.570796
  27 -7.479873 -13.191343 -21.991533 0.000000 -0.000000 1.570796
  28 -14.386858 -12.941681 -14.679611 0.000000 -0.000000 1.570796
  29 23.588387 -12.410225 -18.818518 0.000000 -0.000000 1.570796
  30 25.295422 -11.257744 -32.449387 0.000000 0.000000 -1.570796
  time 10
  0 -6.132843 -0.011674 -18.846853 -0.125232 2.993568 1.537901
  1 0.000001 7.391148 -0.000004 -0.171156 0.061930 0.019086
  2 -0.000000 3.425923 -0.000001 0.689000 0.008103 -0.029107
  3 0.000000 4.689446 0.000000 -0.225484 -0.194967 0.038560
  4 -0.000000 3.425923 -0.000001 -1.235287 1.816780 0.056009
  5 -0.000003 9.617203 -0.000002 -1.658506 -0.006764 2.605301
  6 0.000008 9.265496 0.000004 0.005028 0.381438 -0.000000
  7 -0.000003 7.076735 0.000001 -1.692888 -1.210593 1.779220
  8 0.951416 1.721432 -0.411207 0.383446 2.858993 1.159967
  9 -20.611408 12.665751 -0.038447 -0.000001 3.141592 1.287664
  10 -0.000000 3.425923 -0.000001 -2.087173 -1.588026 0.630072
  11 -0.000000 9.680595 0.000001 -0.785105 0.222973 -0.347323
  12 0.000003 9.265486 -0.000002 -1.461157 -0.381437 0.000002
  13 0.000006 7.076728 -0.000000 -1.055206 1.088854 -0.455791
  14 -4.075395 15.126992 -22.764036 0.000000 -0.000000 1.570796
  15 -14.295469 -4.847698 11.487461 0.000000 -0.000000 1.570797
  16 -6.132845 -0.011675 -18.846853 -0.041518 0.567711 -1.669355
  17 0.000001 3.379474 -0.000002 0.000000 -1.310649 1.463738
  18 0.000001 4.934433 0.000001 -2.014702 -0.069508 -2.287402
  19 -0.000008 10.930445 0.000001 1.151783 -0.062648 0.223978
  20 -0.000000 15.790741 0.000002 -1.272429 0.364101 0.260380
  21 0.013812 3.380049 0.000003 0.888473 1.042873 -0.431084
  22 0.000004 4.888661 -0.000002 -1.463932 -0.502155 1.471139
  23 0.000003 10.958052 -0.000001 0.395162 -0.061251 -0.001959
  24 0.000001 15.811125 0.000003 -0.918299 0.227584 0.328904
  25 19.335596 -1.962262 -20.811453 0.000000 -0.000000 1.570796
  26 8.056164 7.602955 -20.117994 0.000000 0.000000 -1.570796
  27 -7.479873 -13.191343 -21.991533 0.000000 -0.000000 1.570796
  28 -14.336688 -13.063568 -14.753702 0.000000 -0.000000 1.570796
  29 23.467161 -12.410225 -18.818518 0.000000 -0.000000 1.570796
  30 25.295422 -11.257744 -32.449387 0.000000 0.000000 -1.570796
end
