version 1
nodes
0 "root" -1
end
skeleton
  time 0
  0 0.000000 0.000000 0.000000 0.000000 0.000000 0.000000
end
triangles
gib1
  0 -0.015186 7.014962 4.352275 0.588851 0.144830 0.795160 0.929688 0.804688 1 0 1.000000
  0 -0.015186 -6.373489 6.771316 0.586292 0.144038 0.797192 0.945312 0.289062 1 0 1.000000
  0 3.872320 -6.577374 3.949102 0.586787 0.144191 0.796800 0.773438 0.289062 1 0 1.000000
gib1
  0 -0.015186 7.014962 4.352275 0.588851 0.144830 0.795160 0.929688 0.804688 1 0 1.000000
  0 3.872320 -6.577374 3.949102 0.586787 0.144191 0.796800 0.773438 0.289062 1 0 1.000000
  0 2.596732 6.811077 2.451601 0.589549 0.145046 0.794603 0.804688 0.804688 1 0 1.000000
gib1
  0 3.872320 -6.577374 3.949102 0.947203 0.054912 -0.315899 0.414062 0.289062 1 0 1.000000
  0 2.384134 -6.917183 -0.572199 0.582398 0.033798 -0.812201 0.226562 0.289062 1 0 1.000000
  0 2.596732 6.811077 2.451601 0.946765 0.055196 -0.317160 0.382812 0.804688 1 0 1.000000
gib1
  0 2.384134 -6.917183 -0.572199 0.582398 0.033798 -0.812201 0.226562 0.289062 1 0 1.000000
  0 1.594485 6.607192 -0.572199 0.946647 0.055272 -0.317496 0.257812 0.804688 1 0 1.000000
  0 2.596732 6.811077 2.451601 0.946765 0.055196 -0.317160 0.382812 0.804688 1 0 1.000000
gib1
  0 2.384134 -6.917183 -0.572199 0.582398 0.033798 -0.812201 0.226562 0.289062 1 0 1.000000
  0 -2.505619 -6.917183 -0.543401 -0.006328 -0.000211 -0.999980 0.054688 0.289062 1 0 1.000000
  0 1.594485 6.607192 -0.572199 -0.008091 0.000324 -0.999967 0.195312 0.804688 1 0 1.000000
gib1
  0 -2.505619 -6.917183 -0.543401 -0.006328 -0.000211 -0.999980 0.054688 0.289062 1 0 1.000000
  0 -1.715969 6.607192 -0.543401 -0.008699 0.000508 -0.999962 0.070312 0.804688 1 0 1.000000
  0 1.594485 6.607192 -0.572199 -0.008091 0.000324 -0.999967 0.195312 0.804688 1 0 1.000000
gib1
  0 2.596732 6.811077 2.451601 0.502820 0.859621 0.090679 0.507812 0.976562 1 0 1.000000
  0 -0.015186 8.442159 1.472465 0.002360 0.996569 -0.082729 0.507812 0.882812 1 0 1.000000
  0 -0.015186 7.014962 4.352275 0.000000 0.896003 0.444048 0.398438 0.914062 1 0 1.000000
gib1
  0 -2.505619 -6.917183 -0.543401 -0.954042 0.055704 -0.294450 0.585938 0.289062 1 0 1.000000
  0 -3.872320 -6.577374 3.949102 -0.823278 -0.567594 -0.007125 0.414062 0.289062 1 0 1.000000
  0 -1.715969 6.607192 -0.543401 -0.954127 0.055820 -0.294151 0.554688 0.804688 1 0 1.000000
gib1
  0 -3.872320 -6.577374 3.949102 -0.823278 -0.567594 -0.007125 0.414062 0.289062 1 0 1.000000
  0 -2.627103 6.811077 2.451601 -0.815383 0.571265 -0.093844 0.445312 0.804688 1 0 1.000000
  0 -1.715969 6.607192 -0.543401 -0.954127 0.055820 -0.294151 0.554688 0.804688 1 0 1.000000
gib1
  0 -3.872320 -6.577374 3.949102 -0.589305 0.143733 0.795022 0.773438 0.289062 1 0 1.000000
  0 -0.015186 -6.373489 6.771316 -0.589350 0.143714 0.794992 0.585938 0.289062 1 0 1.000000
  0 -2.627103 6.811077 2.451601 -0.589538 0.143636 0.794867 0.742188 0.804688 1 0 1.000000
gib1
  0 -0.015186 -6.373489 6.771316 -0.589350 0.143714 0.794992 0.585938 0.289062 1 0 1.000000
  0 -0.015186 7.014962 4.352275 -0.589600 0.143610 0.794826 0.617188 0.804688 1 0 1.000000
  0 -2.627103 6.811077 2.451601 -0.589538 0.143636 0.794867 0.742188 0.804688 1 0 1.000000
gib1
  0 -0.015186 -6.373489 6.771316 -0.000699 -0.839670 0.543097 0.351562 0.117188 1 0 1.000000
  0 -0.015186 -8.888072 2.883572 0.000589 -0.997103 0.076064 0.507812 0.164062 1 0 1.000000
  0 3.872320 -6.577374 3.949102 0.456042 -0.864569 0.211060 0.507812 0.007812 1 0 1.000000
gib1
  0 -3.872320 -6.577374 3.949102 -0.823278 -0.567594 -0.007125 0.414062 0.289062 1 0 1.000000
  0 -0.015186 -8.888072 2.883572 0.000589 -0.997103 0.076064 0.507812 0.164062 1 0 1.000000
  0 -0.015186 -6.373489 6.771316 -0.000699 -0.839670 0.543097 0.351562 0.117188 1 0 1.000000
gib1
  0 -2.505619 -6.917183 -0.543401 -0.531212 -0.841558 -0.097950 0.585938 0.289062 1 0 1.000000
  0 -0.015186 -8.888072 2.883572 0.000589 -0.997103 0.076064 0.507812 0.164062 1 0 1.000000
  0 -3.872320 -6.577374 3.949102 -0.823278 -0.567594 -0.007125 0.414062 0.289062 1 0 1.000000
gib1
  0 2.384134 -6.917183 -0.572199 0.280346 -0.904550 -0.321239 0.648438 0.117188 1 0 1.000000
  0 -0.015186 -8.888072 2.883572 0.000589 -0.997103 0.076064 0.507812 0.164062 1 0 1.000000
  0 -2.505619 -6.917183 -0.543401 -0.002927 -0.867779 -0.496942 0.585938 0.289062 1 0 1.000000
gib1
  0 3.872320 -6.577374 3.949102 0.456042 -0.864569 0.211060 0.507812 0.007812 1 0 1.000000
  0 -0.015186 -8.888072 2.883572 0.000589 -0.997103 0.076064 0.507812 0.164062 1 0 1.000000
  0 2.384134 -6.917183 -0.572199 0.280346 -0.904550 -0.321239 0.648438 0.117188 1 0 1.000000
gib1
  0 1.594485 6.607192 -0.572199 0.311048 0.815919 -0.487366 0.601562 0.914062 1 0 1.000000
  0 -0.015186 8.442159 1.472465 0.002360 0.996569 -0.082729 0.507812 0.882812 1 0 1.000000
  0 2.596732 6.811077 2.451601 0.502820 0.859621 0.090679 0.507812 0.976562 1 0 1.000000
gib1
  0 -1.715969 6.607192 -0.543401 -0.005832 0.741941 -0.670440 0.554688 0.789062 1 0 1.000000
  0 -0.015186 8.442159 1.472465 0.002360 0.996569 -0.082729 0.507812 0.882812 1 0 1.000000
  0 1.594485 6.607192 -0.572199 0.311048 0.815919 -0.487366 0.601562 0.914062 1 0 1.000000
gib1
  0 -2.627103 6.811077 2.451601 -0.815383 0.571265 -0.093844 0.445312 0.804688 1 0 1.000000
  0 -0.015186 8.442159 1.472465 0.002360 0.996569 -0.082729 0.507812 0.882812 1 0 1.000000
  0 -1.715969 6.607192 -0.543401 -0.575871 0.784923 -0.228624 0.554688 0.789062 1 0 1.000000
gib1
  0 -0.015186 7.014962 4.352275 0.000000 0.896003 0.444048 0.398438 0.914062 1 0 1.000000
  0 -0.015186 8.442159 1.472465 0.002360 0.996569 -0.082729 0.507812 0.882812 1 0 1.000000
  0 -2.627103 6.811077 2.451601 -0.815383 0.571265 -0.093844 0.445312 0.804688 1 0 1.000000
end
