version 1
nodes
0 "root" -1
end
skeleton
  time 0
  0 0.000000 0.000000 0.000000 0.000000 0.000000 0.000000
end
triangles
gib2
  0 -12.501757 0.305785 -3.153289 -0.429352 0.063986 -0.900868 0.191406 0.449219 1 0 1.000000
  0 -10.308549 9.718767 -2.330567 -0.325688 0.213901 -0.920963 0.011719 0.488281 1 0 1.000000
  0 -5.702814 -1.232875 -6.502943 -0.182687 -0.033890 -0.982587 0.214844 0.582031 1 0 1.000000
gib2
  0 -0.658438 9.447239 -5.268860 -0.012831 0.248760 -0.968480 0.027344 0.675781 1 0 1.000000
  0 15.242313 8.632654 1.312916 0.348006 0.526698 -0.775552 0.011719 0.988281 1 0 1.000000
  0 12.391146 0.305785 -5.621455 0.201819 0.182018 -0.962361 0.199219 0.902344 1 0 1.000000
gib2
  0 -0.658438 9.447239 -5.268860 0.030830 0.999485 0.008889 0.425781 0.785156 1 0 1.000000
  0 -10.308549 9.718767 -2.330567 0.098450 0.993610 -0.055204 0.597656 0.722656 1 0 1.000000
  0 -1.316400 9.356730 7.189501 0.092589 0.994467 -0.049636 0.425781 0.558594 1 0 1.000000
gib2
  0 -10.308549 9.718767 -2.330567 0.098450 0.993610 -0.055204 0.597656 0.722656 1 0 1.000000
  0 -9.979568 10.623861 3.839848 0.200564 0.967716 -0.152641 0.582031 0.613281 1 0 1.000000
  0 -1.316400 9.356730 7.189501 0.092589 0.994467 -0.049636 0.425781 0.558594 1 0 1.000000
gib2
  0 -1.316400 9.356730 7.189501 0.047136 0.998841 0.009746 0.980469 0.011719 1 0 1.000000
  0 15.242313 8.632654 1.312916 0.047136 0.998841 0.009746 0.691406 0.136719 1 0 1.000000
  0 -0.658438 9.447239 -5.268860 0.047136 0.998841 0.009746 0.980469 0.238281 1 0 1.000000
gib2
  0 -12.501757 0.305785 -3.153289 -0.429352 0.063986 -0.900868 0.191406 0.449219 1 0 1.000000
  0 -5.702814 -1.232875 -6.502943 -0.182687 -0.033890 -0.982587 0.214844 0.582031 1 0 1.000000
  0 -8.882964 -12.094007 -3.682182 -0.130385 -0.213289 -0.968250 0.410156 0.511719 1 0 1.000000
gib2
  0 -12.501757 0.305785 -3.153289 -0.895890 -0.052168 0.441203 0.527344 0.988281 1 0 1.000000
  0 -8.882964 -12.094007 -3.682182 -0.977587 -0.147018 0.150696 0.761719 0.949219 1 0 1.000000
  0 -9.760247 -0.056252 2.370701 -0.990050 -0.099605 -0.099394 0.527344 0.871094 1 0 1.000000
gib2
  0 -12.721077 3.383106 5.837887 -0.763544 -0.006360 -0.645725 0.449219 0.800781 1 0 1.000000
  0 -9.979568 10.623861 3.839848 -0.984136 0.004188 -0.177364 0.324219 0.863281 1 0 1.000000
  0 -9.760247 -0.056252 2.370701 -0.990050 -0.099605 -0.099394 0.527344 0.871094 1 0 1.000000
gib2
  0 -9.979568 10.623861 3.839848 -0.984136 0.004188 -0.177364 0.324219 0.863281 1 0 1.000000
  0 -10.308549 9.718767 -2.330567 -0.981763 0.034817 0.186893 0.355469 0.964844 1 0 1.000000
  0 -9.760247 -0.056252 2.370701 -0.990050 -0.099605 -0.099394 0.527344 0.871094 1 0 1.000000
gib2
  0 -10.308549 9.718767 -2.330567 -0.981763 0.034817 0.186893 0.355469 0.964844 1 0 1.000000
  0 -12.501757 0.305785 -3.153289 -0.895890 -0.052168 0.441203 0.527344 0.988281 1 0 1.000000
  0 -9.760247 -0.056252 2.370701 -0.990050 -0.099605 -0.099394 0.527344 0.871094 1 0 1.000000
gib2
  0 -8.882964 -12.094007 -3.682182 -0.977587 -0.147018 0.150696 0.761719 0.949219 1 0 1.000000
  0 -8.553984 -12.456045 3.663549 -0.992935 -0.102777 -0.059303 0.753906 0.824219 1 0 1.000000
  0 -9.760247 -0.056252 2.370701 -0.990050 -0.099605 -0.099394 0.527344 0.871094 1 0 1.000000
gib2
  0 -8.553984 -12.456045 3.663549 -0.992935 -0.102777 -0.059303 0.753906 0.824219 1 0 1.000000
  0 -10.856851 -3.767139 5.720355 -0.874899 -0.155480 -0.458670 0.582031 0.800781 1 0 1.000000
  0 -9.760247 -0.056252 2.370701 -0.990050 -0.099605 -0.099394 0.527344 0.871094 1 0 1.000000
gib2
  0 -8.553984 -12.456045 3.663549 0.221074 -0.973538 -0.057882 0.550781 0.183594 1 0 1.000000
  0 -8.882964 -12.094007 -3.682182 0.221709 -0.973327 -0.058993 0.558594 0.058594 1 0 1.000000
  0 5.811523 -9.288215 5.250228 0.222423 -0.973087 -0.060243 0.285156 0.214844 1 0 1.000000
gib2
  0 -8.882964 -12.094007 -3.682182 0.221709 -0.973327 -0.058993 0.558594 0.058594 1 0 1.000000
  0 7.346769 -8.383121 -3.564650 0.222899 -0.972926 -0.061077 0.253906 0.058594 1 0 1.000000
  0 5.811523 -9.288215 5.250228 0.222423 -0.973087 -0.060243 0.285156 0.214844 1 0 1.000000
gib2
  0 12.391146 0.305785 -5.621455 0.887509 -0.447765 0.108783 0.191406 0.425781 1 0 1.000000
  0 10.417259 -0.237271 8.247287 0.886015 -0.450977 0.107693 0.238281 0.175781 1 0 1.000000
  0 7.346769 -8.383121 -3.564650 0.871336 -0.479501 0.104176 0.027344 0.339844 1 0 1.000000
gib2
  0 10.417259 -0.237271 8.247287 0.886015 -0.450977 0.107693 0.238281 0.175781 1 0 1.000000
  0 5.811523 -9.288215 5.250228 0.872337 -0.477963 0.102855 0.042969 0.175781 1 0 1.000000
  0 7.346769 -8.383121 -3.564650 0.871336 -0.479501 0.104176 0.027344 0.339844 1 0 1.000000
gib2
  0 12.391146 0.305785 -5.621455 0.887509 -0.447765 0.108783 0.191406 0.425781 1 0 1.000000
  0 15.242313 8.632654 1.312916 0.907279 -0.404987 0.113272 0.371094 0.347656 1 0 1.000000
  0 10.417259 -0.237271 8.247287 0.886015 -0.450977 0.107693 0.238281 0.175781 1 0 1.000000
gib2
  0 -10.856851 -3.767139 5.720355 -0.221155 -0.143248 0.964661 0.550781 0.214844 1 0 1.000000
  0 -3.180626 -6.120385 7.130735 -0.090053 -0.287818 0.953442 0.511719 0.355469 1 0 1.000000
  0 -12.721077 3.383106 5.837887 -0.267741 0.102873 0.957983 0.675781 0.175781 1 0 1.000000
gib2
  0 -3.180626 -6.120385 7.130735 -0.090053 -0.287818 0.953442 0.511719 0.355469 1 0 1.000000
  0 -2.961306 5.193295 8.482350 -0.129126 0.145490 0.980897 0.714844 0.355469 1 0 1.000000
  0 -12.721077 3.383106 5.837887 -0.267741 0.102873 0.957983 0.675781 0.175781 1 0 1.000000
gib2
  0 -3.180626 -6.120385 7.130735 -0.090053 -0.287818 0.953442 0.511719 0.355469 1 0 1.000000
  0 -10.856851 -3.767139 5.720355 -0.221155 -0.143248 0.964661 0.550781 0.214844 1 0 1.000000
  0 -8.553984 -12.456045 3.663549 -0.145002 -0.377524 0.914577 0.378906 0.261719 1 0 1.000000
gib2
  0 -12.721077 3.383106 5.837887 -0.267741 0.102873 0.957983 0.675781 0.175781 1 0 1.000000
  0 -2.961306 5.193295 8.482350 -0.129126 0.145490 0.980897 0.714844 0.355469 1 0 1.000000
  0 -9.979568 10.623861 3.839848 -0.299223 0.366456 0.881009 0.824219 0.214844 1 0 1.000000
gib2
  0 -2.961306 5.193295 8.482350 -0.129126 0.145490 0.980897 0.714844 0.355469 1 0 1.000000
  0 -3.180626 -6.120385 7.130735 -0.090053 -0.287818 0.953442 0.511719 0.355469 1 0 1.000000
  0 10.417259 -0.237271 8.247287 0.167574 0.131659 0.977029 0.621094 0.605469 1 0 1.000000
gib2
  0 10.417259 -0.237271 8.247287 0.167574 0.131659 0.977029 0.621094 0.605469 1 0 1.000000
  0 -3.180626 -6.120385 7.130735 -0.090053 -0.287818 0.953442 0.511719 0.355469 1 0 1.000000
  0 5.811523 -9.288215 5.250228 0.056169 -0.386932 0.920396 0.449219 0.519531 1 0 1.000000
gib2
  0 15.242313 8.632654 1.312916 0.312908 0.473471 0.823355 0.824219 0.699219 1 0 1.000000
  0 -1.316400 9.356730 7.189501 -0.009051 0.368944 0.929407 0.792969 0.386719 1 0 1.000000
  0 10.417259 -0.237271 8.247287 0.167574 0.131659 0.977029 0.621094 0.605469 1 0 1.000000
gib2
  0 -1.316400 9.356730 7.189501 -0.009051 0.368944 0.929407 0.792969 0.386719 1 0 1.000000
  0 -2.961306 5.193295 8.482350 -0.129126 0.145490 0.980897 0.714844 0.355469 1 0 1.000000
  0 10.417259 -0.237271 8.247287 0.167574 0.131659 0.977029 0.621094 0.605469 1 0 1.000000
gib2
  0 5.811523 -9.288215 5.250228 0.056169 -0.386932 0.920396 0.449219 0.519531 1 0 1.000000
  0 -3.180626 -6.120385 7.130735 -0.090053 -0.287818 0.953442 0.511719 0.355469 1 0 1.000000
  0 -8.553984 -12.456045 3.663549 -0.145002 -0.377524 0.914577 0.378906 0.261719 1 0 1.000000
gib2
  0 -1.316400 9.356730 7.189501 -0.009051 0.368944 0.929407 0.792969 0.386719 1 0 1.000000
  0 -9.979568 10.623861 3.839848 -0.299223 0.366456 0.881009 0.824219 0.214844 1 0 1.000000
  0 -2.961306 5.193295 8.482350 -0.129126 0.145490 0.980897 0.714844 0.355469 1 0 1.000000
gib2
  0 -10.856851 -3.767139 5.720355 -0.874899 -0.155480 -0.458670 0.582031 0.800781 1 0 1.000000
  0 -12.721077 3.383106 5.837887 -0.763544 -0.006360 -0.645725 0.449219 0.800781 1 0 1.000000
  0 -9.760247 -0.056252 2.370701 -0.990050 -0.099605 -0.099394 0.527344 0.871094 1 0 1.000000
gib2
  0 -0.658438 9.447239 -5.268860 -0.012831 0.248760 -0.968480 0.027344 0.675781 1 0 1.000000
  0 12.391146 0.305785 -5.621455 0.201819 0.182018 -0.962361 0.199219 0.902344 1 0 1.000000
  0 -5.702814 -1.232875 -6.502943 -0.182687 -0.033890 -0.982587 0.214844 0.582031 1 0 1.000000
gib2
  0 -5.702814 -1.232875 -6.502943 -0.182687 -0.033890 -0.982587 0.214844 0.582031 1 0 1.000000
  0 12.391146 0.305785 -5.621455 0.201819 0.182018 -0.962361 0.199219 0.902344 1 0 1.000000
  0 7.346769 -8.383121 -3.564650 0.069267 -0.268414 -0.960810 0.363281 0.808594 1 0 1.000000
gib2
  0 -5.702814 -1.232875 -6.502943 -0.182687 -0.033890 -0.982587 0.214844 0.582031 1 0 1.000000
  0 7.346769 -8.383121 -3.564650 0.069267 -0.268414 -0.960810 0.363281 0.808594 1 0 1.000000
  0 -8.882964 -12.094007 -3.682182 -0.130385 -0.213289 -0.968250 0.410156 0.511719 1 0 1.000000
gib2
  0 -10.308549 9.718767 -2.330567 -0.325688 0.213901 -0.920963 0.011719 0.488281 1 0 1.000000
  0 -0.658438 9.447239 -5.268860 -0.012831 0.248760 -0.968480 0.027344 0.675781 1 0 1.000000
  0 -5.702814 -1.232875 -6.502943 -0.182687 -0.033890 -0.982587 0.214844 0.582031 1 0 1.000000
end
