version 1
nodes
0 "root" -1
end
skeleton
  time 0
  0 0.000000 0.000000 0.000000 0.000000 0.000000 0.000000
end
triangles
gib3
  0 -1.021751 12.413409 0.414290 -0.106761 0.749690 0.653121 0.691406 0.769531 1 0 1.000000
  0 -7.512978 6.815774 5.778502 -0.252013 0.805794 0.535897 0.777344 0.910156 1 0 1.000000
  0 11.701052 12.606431 0.850405 -0.034837 0.712237 0.701074 0.753906 0.566406 1 0 1.000000
gib3
  0 12.350174 -12.003865 -1.155723 0.865706 -0.283508 0.412524 0.527344 0.253906 1 0 1.000000
  0 15.855434 0.349539 -0.021824 0.773895 0.038665 0.632132 0.316406 0.253906 1 0 1.000000
  0 10.402805 -6.020185 7.043234 0.838093 -0.129697 0.529886 0.433594 0.394531 1 0 1.000000
gib3
  0 -8.681398 -11.424799 -0.283493 -0.007947 -0.910705 0.412982 0.253906 0.167969 1 0 1.000000
  0 12.350174 -12.003865 -1.155723 0.053737 -0.826936 0.559722 0.597656 0.222656 1 0 1.000000
  0 -9.590170 -8.529470 6.083782 0.015545 -0.882251 0.470524 0.246094 0.050781 1 0 1.000000
gib3
  0 -12.965608 8.359950 -0.632385 -0.696112 0.282365 0.660074 0.535156 0.332031 1 0 1.000000
  0 -17.249817 -3.221367 -0.196270 -0.714931 -0.069255 0.695757 0.503906 0.542969 1 0 1.000000
  0 -7.512978 6.815774 5.778502 -0.654837 0.201673 0.728366 0.683594 0.347656 1 0 1.000000
gib3
  0 -9.590170 -8.529470 6.083782 -0.051273 0.026801 0.998325 0.980469 0.425781 1 0 1.000000
  0 10.402805 -6.020185 7.043234 0.066602 0.189482 0.979623 0.980469 0.082031 1 0 1.000000
  0 -7.512978 6.815774 5.778502 0.043782 0.158301 0.986420 0.730469 0.355469 1 0 1.000000
gib3
  0 10.402805 -6.020185 7.043234 0.066602 0.189482 0.979623 0.980469 0.082031 1 0 1.000000
  0 11.701052 12.606431 0.850405 0.150258 0.302464 0.941243 0.652344 0.019531 1 0 1.000000
  0 -7.512978 6.815774 5.778502 0.043782 0.158301 0.986420 0.730469 0.355469 1 0 1.000000
gib3
  0 -17.249817 -3.221367 -0.196270 -0.714931 -0.069255 0.695757 0.503906 0.542969 1 0 1.000000
  0 -8.681398 -11.424799 -0.283493 -0.672697 -0.705014 0.224573 0.613281 0.707031 1 0 1.000000
  0 -9.590170 -8.529470 6.083782 -0.729696 -0.382002 0.567115 0.683594 0.613281 1 0 1.000000
gib3
  0 4.430878 1.797203 -4.077692 0.071080 0.085518 -0.993798 0.261719 0.597656 1 0 1.000000
  0 -12.965608 8.359950 -0.632385 -0.140906 0.140935 -0.979940 0.410156 0.886719 1 0 1.000000
  0 -1.021751 12.413409 0.414290 -0.015872 0.382703 -0.923735 0.472656 0.667969 1 0 1.000000
gib3
  0 15.855434 0.349539 -0.021824 0.773895 0.038665 0.632132 0.316406 0.253906 1 0 1.000000
  0 11.701052 12.606431 0.850405 0.690691 0.184344 0.699259 0.105469 0.324219 1 0 1.000000
  0 10.402805 -6.020185 7.043234 0.838093 -0.129697 0.529886 0.433594 0.394531 1 0 1.000000
gib3
  0 -1.021751 12.413409 0.414290 -0.106761 0.749690 0.653121 0.691406 0.769531 1 0 1.000000
  0 -12.965608 8.359950 -0.632385 -0.320279 0.822247 0.470458 0.652344 0.988281 1 0 1.000000
  0 -7.512978 6.815774 5.778502 -0.252013 0.805794 0.535897 0.777344 0.910156 1 0 1.000000
gib3
  0 -7.512978 6.815774 5.778502 -0.654837 0.201673 0.728366 0.683594 0.347656 1 0 1.000000
  0 -17.249817 -3.221367 -0.196270 -0.714931 -0.069255 0.695757 0.503906 0.542969 1 0 1.000000
  0 -9.590170 -8.529470 6.083782 -0.729696 -0.382002 0.567115 0.683594 0.613281 1 0 1.000000
gib3
  0 4.430878 1.797203 -4.077692 0.071080 0.085518 -0.993798 0.261719 0.597656 1 0 1.000000
  0 -17.249817 -3.221367 -0.196270 -0.163666 -0.054754 -0.984995 0.214844 0.980469 1 0 1.000000
  0 -12.965608 8.359950 -0.632385 -0.140906 0.140935 -0.979940 0.410156 0.886719 1 0 1.000000
gib3
  0 4.430878 1.797203 -4.077692 0.071080 0.085518 -0.993798 0.261719 0.597656 1 0 1.000000
  0 -8.681398 -11.424799 -0.283493 -0.110443 -0.171406 -0.978990 0.058594 0.839844 1 0 1.000000
  0 -17.249817 -3.221367 -0.196270 -0.163666 -0.054754 -0.984995 0.214844 0.980469 1 0 1.000000
gib3
  0 4.430878 1.797203 -4.077692 0.071080 0.085518 -0.993798 0.261719 0.597656 1 0 1.000000
  0 12.350174 -12.003865 -1.155723 0.126034 -0.135736 -0.982696 0.019531 0.480469 1 0 1.000000
  0 -8.681398 -11.424799 -0.283493 -0.110443 -0.171406 -0.978990 0.058594 0.839844 1 0 1.000000
gib3
  0 4.430878 1.797203 -4.077692 0.071080 0.085518 -0.993798 0.261719 0.597656 1 0 1.000000
  0 15.855434 0.349539 -0.021824 0.342442 0.079659 -0.936156 0.230469 0.394531 1 0 1.000000
  0 12.350174 -12.003865 -1.155723 0.126034 -0.135736 -0.982696 0.019531 0.480469 1 0 1.000000
gib3
  0 12.350174 -12.003865 -1.155723 0.053737 -0.826936 0.559722 0.597656 0.222656 1 0 1.000000
  0 10.402805 -6.020185 7.043234 0.071354 -0.797555 0.599011 0.589844 0.050781 1 0 1.000000
  0 -9.590170 -8.529470 6.083782 0.015545 -0.882251 0.470524 0.246094 0.050781 1 0 1.000000
gib3
  0 4.430878 1.797203 -4.077692 0.071080 0.085518 -0.993798 0.261719 0.597656 1 0 1.000000
  0 11.701052 12.606431 0.850405 0.186438 0.300988 -0.935226 0.449219 0.449219 1 0 1.000000
  0 15.855434 0.349539 -0.021824 0.342442 0.079659 -0.936156 0.230469 0.394531 1 0 1.000000
gib3
  0 4.430878 1.797203 -4.077692 0.071080 0.085518 -0.993798 0.261719 0.597656 1 0 1.000000
  0 -1.021751 12.413409 0.414290 -0.015872 0.382703 -0.923735 0.472656 0.667969 1 0 1.000000
  0 11.701052 12.606431 0.850405 0.186438 0.300988 -0.935226 0.449219 0.449219 1 0 1.000000
end
