version 1
nodes
0 "root" -1
end
skeleton
  time 0
  0 0.000000 0.000000 0.000000 0.000000 0.000000 0.000000
end
triangles
head_soldier
  0 3.952981 -0.474977 3.377415 0.999590 -0.019535 -0.020956 0.742188 0.757812 1 0 1.000000
  0 2.306527 -2.988148 3.066055 0.739300 -0.661006 -0.128478 0.632812 0.742188 1 0 1.000000
  0 2.868730 -0.887588 -0.892654 0.398679 -0.166249 -0.901896 0.679688 0.929688 1 0 1.000000
head_soldier
  0 3.952981 -0.474977 3.377415 0.999590 -0.019535 -0.020956 0.742188 0.757812 1 0 1.000000
  0 3.390777 -1.337708 7.603003 0.946275 -0.070903 0.315494 0.742188 0.570312 1 0 1.000000
  0 2.266369 -3.775859 6.891325 0.722191 -0.683494 0.106191 0.632812 0.570312 1 0 1.000000
head_soldier
  0 0.218339 -4.938670 6.402047 0.400627 -0.914344 -0.058933 0.570312 0.585938 1 0 1.000000
  0 0.619914 -4.300999 3.199495 0.449644 -0.884462 -0.124689 0.570312 0.726562 1 0 1.000000
  0 2.306527 -2.988148 3.066055 0.739300 -0.661006 -0.128478 0.632812 0.742188 1 0 1.000000
head_soldier
  0 2.306527 -2.988148 3.066055 0.739300 -0.661006 -0.128478 0.632812 0.742188 1 0 1.000000
  0 0.619914 -4.300999 3.199495 0.449644 -0.884462 -0.124689 0.570312 0.726562 1 0 1.000000
  0 1.021489 -3.663329 0.041423 0.105001 -0.601650 -0.791828 0.570312 0.867188 1 0 1.000000
head_soldier
  0 1.021489 -3.663329 0.041423 0.105001 -0.601650 -0.791828 0.570312 0.867188 1 0 1.000000
  0 2.868730 -0.887588 -0.892654 0.398679 -0.166249 -0.901896 0.679688 0.929688 1 0 1.000000
  0 2.306527 -2.988148 3.066055 0.739300 -0.661006 -0.128478 0.632812 0.742188 1 0 1.000000
head_soldier
  0 2.306527 -2.988148 3.066055 0.739300 -0.661006 -0.128478 0.632812 0.742188 1 0 1.000000
  0 3.952981 -0.474977 3.377415 0.999590 -0.019535 -0.020956 0.742188 0.757812 1 0 1.000000
  0 2.266369 -3.775859 6.891325 0.722191 -0.683494 0.106191 0.632812 0.570312 1 0 1.000000
head_soldier
  0 0.619914 -4.300999 3.199495 0.449644 -0.884462 -0.124689 0.570312 0.726562 1 0 1.000000
  0 -1.910005 -5.538830 6.224127 -0.014312 -0.995927 -0.089020 0.554688 0.585938 1 0 1.000000
  0 -1.468273 -5.013690 3.644294 0.023184 -0.981524 -0.189929 0.554688 0.710938 1 0 1.000000
head_soldier
  0 -1.468273 -5.013690 3.644294 0.023184 -0.981524 -0.189929 0.554688 0.710938 1 0 1.000000
  0 -1.548587 -4.638589 1.687179 -0.347579 -0.658843 -0.667169 0.554688 0.789062 1 0 1.000000
  0 0.619914 -4.300999 3.199495 0.449644 -0.884462 -0.124689 0.570312 0.726562 1 0 1.000000
head_soldier
  0 -1.548587 -4.638589 1.687179 -0.347579 -0.658843 -0.667169 0.554688 0.789062 1 0 1.000000
  0 1.021489 -3.663329 0.041423 0.105001 -0.601650 -0.791828 0.570312 0.867188 1 0 1.000000
  0 0.619914 -4.300999 3.199495 0.449644 -0.884462 -0.124689 0.570312 0.726562 1 0 1.000000
head_soldier
  0 0.218339 -4.938670 6.402047 0.400627 -0.914344 -0.058933 0.570312 0.585938 1 0 1.000000
  0 2.306527 -2.988148 3.066055 0.739300 -0.661006 -0.128478 0.632812 0.742188 1 0 1.000000
  0 2.266369 -3.775859 6.891325 0.722191 -0.683494 0.106191 0.632812 0.570312 1 0 1.000000
head_soldier
  0 0.619914 -4.300999 3.199495 0.449644 -0.884462 -0.124689 0.570312 0.726562 1 0 1.000000
  0 0.218339 -4.938670 6.402047 0.400627 -0.914344 -0.058933 0.570312 0.585938 1 0 1.000000
  0 -1.910005 -5.538830 6.224127 -0.014312 -0.995927 -0.089020 0.554688 0.585938 1 0 1.000000
head_soldier
  0 2.868730 1.888154 -0.358895 0.394108 0.516854 -0.759961 0.804688 0.929688 1 0 1.000000
  0 3.952981 -0.474977 3.377415 0.999590 -0.019535 -0.020956 0.742188 0.757812 1 0 1.000000
  0 2.868730 -0.887588 -0.892654 0.398679 -0.166249 -0.901896 0.679688 0.929688 1 0 1.000000
head_soldier
  0 3.952981 -0.474977 3.377415 0.999590 -0.019535 -0.020956 0.742188 0.757812 1 0 1.000000
  0 2.868730 1.888154 -0.358895 0.394108 0.516854 -0.759961 0.804688 0.929688 1 0 1.000000
  0 2.306527 2.263254 4.133573 0.711431 0.683687 0.162600 0.867188 0.742188 1 0 1.000000
head_soldier
  0 3.952981 -0.474977 3.377415 0.999590 -0.019535 -0.020956 0.742188 0.757812 1 0 1.000000
  0 2.266369 1.175464 7.914362 0.743355 0.579335 0.334356 0.851562 0.570312 1 0 1.000000
  0 3.390777 -1.337708 7.603003 0.946275 -0.070903 0.315494 0.742188 0.570312 1 0 1.000000
head_soldier
  0 2.306527 2.263254 4.133573 0.711431 0.683687 0.162600 0.867188 0.742188 1 0 1.000000
  0 0.619914 3.088474 4.711811 0.393935 0.889395 0.231929 0.898438 0.726562 1 0 1.000000
  0 0.097867 2.413294 8.136762 0.408605 0.889741 0.203478 0.914062 0.570312 1 0 1.000000
head_soldier
  0 1.021489 3.763655 1.553739 0.057071 0.873773 -0.482973 0.914062 0.867188 1 0 1.000000
  0 0.619914 3.088474 4.711811 0.393935 0.889395 0.231929 0.898438 0.726562 1 0 1.000000
  0 2.306527 2.263254 4.133573 0.711431 0.683687 0.162600 0.867188 0.742188 1 0 1.000000
head_soldier
  0 2.306527 2.263254 4.133573 0.711431 0.683687 0.162600 0.867188 0.742188 1 0 1.000000
  0 2.868730 1.888154 -0.358895 0.394108 0.516854 -0.759961 0.804688 0.929688 1 0 1.000000
  0 1.021489 3.763655 1.553739 0.057071 0.873773 -0.482973 0.914062 0.867188 1 0 1.000000
head_soldier
  0 2.266369 1.175464 7.914362 0.743355 0.579335 0.334356 0.851562 0.570312 1 0 1.000000
  0 3.952981 -0.474977 3.377415 0.999590 -0.019535 -0.020956 0.742188 0.757812 1 0 1.000000
  0 2.306527 2.263254 4.133573 0.711431 0.683687 0.162600 0.867188 0.742188 1 0 1.000000
head_soldier
  0 -1.468273 3.613615 5.423489 0.038105 0.977824 0.205934 0.929688 0.695312 1 0 1.000000
  0 -1.910005 3.088474 8.003322 -0.018898 0.977591 0.209666 0.929688 0.585938 1 0 1.000000
  0 0.619914 3.088474 4.711811 0.393935 0.889395 0.231929 0.898438 0.726562 1 0 1.000000
head_soldier
  0 0.619914 3.088474 4.711811 0.393935 0.889395 0.231929 0.898438 0.726562 1 0 1.000000
  0 -1.548587 4.026225 3.421895 -0.317430 0.874409 -0.366943 0.929688 0.789062 1 0 1.000000
  0 -1.468273 3.613615 5.423489 0.038105 0.977824 0.205934 0.929688 0.695312 1 0 1.000000
head_soldier
  0 0.619914 3.088474 4.711811 0.393935 0.889395 0.231929 0.898438 0.726562 1 0 1.000000
  0 1.021489 3.763655 1.553739 0.057071 0.873773 -0.482973 0.914062 0.867188 1 0 1.000000
  0 -1.548587 4.026225 3.421895 -0.317430 0.874409 -0.366943 0.929688 0.789062 1 0 1.000000
head_soldier
  0 2.266369 1.175464 7.914362 0.743355 0.579335 0.334356 0.851562 0.570312 1 0 1.000000
  0 2.306527 2.263254 4.133573 0.711431 0.683687 0.162600 0.867188 0.742188 1 0 1.000000
  0 0.097867 2.413294 8.136762 0.408605 0.889741 0.203478 0.914062 0.570312 1 0 1.000000
head_soldier
  0 -1.910005 3.088474 8.003322 -0.018898 0.977591 0.209666 0.929688 0.585938 1 0 1.000000
  0 0.097867 2.413294 8.136762 0.408605 0.889741 0.203478 0.914062 0.570312 1 0 1.000000
  0 0.619914 3.088474 4.711811 0.393935 0.889395 0.231929 0.898438 0.726562 1 0 1.000000
head_soldier
  0 -5.042284 -3.738349 6.757885 -0.821406 -0.560509 -0.105457 0.148438 0.242188 1 0 1.000000
  0 -6.287165 -1.262688 7.291644 -0.996064 -0.021792 0.085916 0.257812 0.242188 1 0 1.000000
  0 -5.724961 -0.549997 3.644294 -0.822247 0.100933 -0.560109 0.257812 0.398438 1 0 1.000000
head_soldier
  0 -4.841497 -3.025659 3.243975 -0.640253 -0.388746 -0.662535 0.148438 0.398438 1 0 1.000000
  0 -3.516302 -4.376019 3.510854 -0.507645 -0.683313 -0.524766 0.085938 0.382812 1 0 1.000000
  0 -3.797404 -4.938670 6.446527 -0.513548 -0.850515 -0.113547 0.085938 0.242188 1 0 1.000000
head_soldier
  0 -5.042284 -3.738349 6.757885 -0.821406 -0.560509 -0.105457 0.148438 0.242188 1 0 1.000000
  0 -5.724961 -0.549997 3.644294 -0.822247 0.100933 -0.560109 0.257812 0.398438 1 0 1.000000
  0 -4.841497 -3.025659 3.243975 -0.640253 -0.388746 -0.662535 0.148438 0.398438 1 0 1.000000
head_soldier
  0 -5.644646 -1.562768 8.670520 -0.736112 -0.149877 0.660057 0.257812 0.179688 1 0 1.000000
  0 -2.110792 1.287993 10.405235 -0.095768 0.206305 0.973790 0.398438 0.132812 1 0 1.000000
  0 -4.921812 1.287993 8.981879 -0.730526 0.423407 0.535778 0.382812 0.195312 1 0 1.000000
head_soldier
  0 -3.958034 -4.863649 7.558524 -0.519935 -0.821069 0.235613 0.101562 0.195312 1 0 1.000000
  0 -4.921812 -3.963409 7.914362 -0.708965 -0.585852 0.392614 0.148438 0.195312 1 0 1.000000
  0 -3.797404 -4.938670 6.446527 -0.513548 -0.850515 -0.113547 0.085938 0.242188 1 0 1.000000
head_soldier
  0 -2.110792 -4.563569 9.248758 -0.095892 -0.538276 0.837296 0.132812 0.132812 1 0 1.000000
  0 -5.644646 -1.562768 8.670520 -0.736112 -0.149877 0.660057 0.257812 0.179688 1 0 1.000000
  0 -4.921812 -3.963409 7.914362 -0.708965 -0.585852 0.392614 0.148438 0.195312 1 0 1.000000
head_soldier
  0 -3.958034 -4.863649 7.558524 -0.519935 -0.821069 0.235613 0.101562 0.195312 1 0 1.000000
  0 -2.150949 -5.501320 7.603003 -0.077935 -0.994332 0.072320 0.085938 0.195312 1 0 1.000000
  0 -1.950162 -5.388790 8.581560 -0.016821 -0.852357 0.522690 0.085938 0.148438 1 0 1.000000
head_soldier
  0 -1.468273 -5.013690 3.644294 0.023184 -0.981524 -0.189929 0.070312 0.367188 1 0 1.000000
  0 -1.910005 -5.538830 6.224127 -0.014312 -0.995927 -0.089020 0.070312 0.257812 1 0 1.000000
  0 -3.516302 -4.376019 3.510854 -0.507645 -0.683313 -0.524766 0.085938 0.382812 1 0 1.000000
head_soldier
  0 -3.516302 -4.376019 3.510854 -0.507645 -0.683313 -0.524766 0.085938 0.382812 1 0 1.000000
  0 -1.548587 -4.638589 1.687179 -0.347579 -0.658843 -0.667169 0.070312 0.460938 1 0 1.000000
  0 -1.468273 -5.013690 3.644294 0.023184 -0.981524 -0.189929 0.070312 0.367188 1 0 1.000000
head_soldier
  0 -5.042284 -3.738349 6.757885 -0.821406 -0.560509 -0.105457 0.148438 0.242188 1 0 1.000000
  0 -4.841497 -3.025659 3.243975 -0.640253 -0.388746 -0.662535 0.148438 0.398438 1 0 1.000000
  0 -3.797404 -4.938670 6.446527 -0.513548 -0.850515 -0.113547 0.085938 0.242188 1 0 1.000000
head_soldier
  0 -1.910005 -5.538830 6.224127 -0.014312 -0.995927 -0.089020 0.070312 0.257812 1 0 1.000000
  0 -3.797404 -4.938670 6.446527 -0.513548 -0.850515 -0.113547 0.085938 0.242188 1 0 1.000000
  0 -3.516302 -4.376019 3.510854 -0.507645 -0.683313 -0.524766 0.085938 0.382812 1 0 1.000000
head_soldier
  0 -5.724961 -0.549997 3.644294 -0.822247 0.100933 -0.560109 0.257812 0.398438 1 0 1.000000
  0 -6.287165 -1.262688 7.291644 -0.996064 -0.021792 0.085916 0.257812 0.242188 1 0 1.000000
  0 -5.042284 1.212974 7.736443 -0.833255 0.549778 0.058578 0.367188 0.242188 1 0 1.000000
head_soldier
  0 -3.797404 2.450804 7.958842 -0.511805 0.846604 0.146001 0.429688 0.242188 1 0 1.000000
  0 -3.757246 3.050964 4.934210 -0.478421 0.849853 -0.221051 0.429688 0.382812 1 0 1.000000
  0 -4.841497 2.225744 4.311492 -0.639763 0.628193 -0.442806 0.382812 0.398438 1 0 1.000000
head_soldier
  0 -4.841497 2.225744 4.311492 -0.639763 0.628193 -0.442806 0.382812 0.398438 1 0 1.000000
  0 -5.724961 -0.549997 3.644294 -0.822247 0.100933 -0.560109 0.257812 0.398438 1 0 1.000000
  0 -5.042284 1.212974 7.736443 -0.833255 0.549778 0.058578 0.367188 0.242188 1 0 1.000000
head_soldier
  0 -2.110792 -4.563569 9.248758 -0.095892 -0.538276 0.837296 0.132812 0.132812 1 0 1.000000
  0 -2.070634 -1.900358 10.360755 -0.084767 -0.202540 0.975598 0.257812 0.101562 1 0 1.000000
  0 -5.644646 -1.562768 8.670520 -0.736112 -0.149877 0.660057 0.257812 0.179688 1 0 1.000000
head_soldier
  0 -5.644646 -1.562768 8.670520 -0.736112 -0.149877 0.660057 0.257812 0.179688 1 0 1.000000
  0 -2.070634 -1.900358 10.360755 -0.084767 -0.202540 0.975598 0.257812 0.101562 1 0 1.000000
  0 -2.110792 1.287993 10.405235 -0.095768 0.206305 0.973790 0.398438 0.132812 1 0 1.000000
head_soldier
  0 -4.921812 -3.963409 7.914362 -0.708965 -0.585852 0.392614 0.148438 0.195312 1 0 1.000000
  0 -5.042284 -3.738349 6.757885 -0.821406 -0.560509 -0.105457 0.148438 0.242188 1 0 1.000000
  0 -3.797404 -4.938670 6.446527 -0.513548 -0.850515 -0.113547 0.085938 0.242188 1 0 1.000000
head_soldier
  0 -2.150949 -5.501320 7.603003 -0.077935 -0.994332 0.072320 0.085938 0.195312 1 0 1.000000
  0 -3.797404 -4.938670 6.446527 -0.513548 -0.850515 -0.113547 0.085938 0.242188 1 0 1.000000
  0 -1.910005 -5.538830 6.224127 -0.014312 -0.995927 -0.089020 0.070312 0.257812 1 0 1.000000
head_soldier
  0 -3.757246 3.050964 4.934210 -0.478421 0.849853 -0.221051 0.429688 0.382812 1 0 1.000000
  0 -1.910005 3.088474 8.003322 -0.018898 0.977591 0.209666 0.445312 0.242188 1 0 1.000000
  0 -1.468273 3.613615 5.423489 0.038105 0.977824 0.205934 0.460938 0.367188 1 0 1.000000
head_soldier
  0 -1.468273 3.613615 5.423489 0.038105 0.977824 0.205934 0.460938 0.367188 1 0 1.000000
  0 -1.548587 4.026225 3.421895 -0.317430 0.874409 -0.366943 0.460938 0.460938 1 0 1.000000
  0 -3.757246 3.050964 4.934210 -0.478421 0.849853 -0.221051 0.429688 0.382812 1 0 1.000000
head_soldier
  0 -3.797404 2.450804 7.958842 -0.511805 0.846604 0.146001 0.429688 0.242188 1 0 1.000000
  0 -4.841497 2.225744 4.311492 -0.639763 0.628193 -0.442806 0.382812 0.398438 1 0 1.000000
  0 -5.042284 1.212974 7.736443 -0.833255 0.549778 0.058578 0.367188 0.242188 1 0 1.000000
head_soldier
  0 -3.757246 3.050964 4.934210 -0.478421 0.849853 -0.221051 0.429688 0.382812 1 0 1.000000
  0 -3.797404 2.450804 7.958842 -0.511805 0.846604 0.146001 0.429688 0.242188 1 0 1.000000
  0 -1.910005 3.088474 8.003322 -0.018898 0.977591 0.209666 0.445312 0.242188 1 0 1.000000
head_soldier
  0 0.218339 -4.938670 6.402047 0.400627 -0.914344 -0.058933 0.570312 0.585938 1 0 1.000000
  0 1.382905 -4.038429 8.225721 0.533182 -0.665923 0.521789 0.632812 0.507812 1 0 1.000000
  0 0.258497 -4.938670 7.825403 0.416888 -0.861046 0.291211 0.585938 0.523438 1 0 1.000000
head_soldier
  0 0.258497 2.188234 9.293239 0.447971 0.728020 0.518949 0.914062 0.523438 1 0 1.000000
  0 1.382905 1.212974 9.293239 0.562152 0.450653 0.693468 0.867188 0.507812 1 0 1.000000
  0 0.097867 2.413294 8.136762 0.408605 0.889741 0.203478 0.914062 0.570312 1 0 1.000000
head_soldier
  0 1.382905 -4.038429 8.225721 0.533182 -0.665923 0.521789 0.632812 0.507812 1 0 1.000000
  0 2.426999 -1.637788 9.159799 0.644091 -0.165979 0.746725 0.742188 0.492188 1 0 1.000000
  0 -2.110792 -4.563569 9.248758 -0.095892 -0.538276 0.837296 0.617188 0.460938 1 0 1.000000
head_soldier
  0 2.426999 -1.637788 9.159799 0.644091 -0.165979 0.746725 0.742188 0.492188 1 0 1.000000
  0 -2.070634 -1.900358 10.360755 -0.084767 -0.202540 0.975598 0.742188 0.445312 1 0 1.000000
  0 -2.110792 -4.563569 9.248758 -0.095892 -0.538276 0.837296 0.617188 0.460938 1 0 1.000000
head_soldier
  0 -2.110792 1.287993 10.405235 -0.095768 0.206305 0.973790 0.882812 0.460938 1 0 1.000000
  0 -2.070634 -1.900358 10.360755 -0.084767 -0.202540 0.975598 0.742188 0.445312 1 0 1.000000
  0 2.426999 -1.637788 9.159799 0.644091 -0.165979 0.746725 0.742188 0.492188 1 0 1.000000
head_soldier
  0 1.382905 1.212974 9.293239 0.562152 0.450653 0.693468 0.867188 0.507812 1 0 1.000000
  0 -2.110792 1.287993 10.405235 -0.095768 0.206305 0.973790 0.882812 0.460938 1 0 1.000000
  0 2.426999 -1.637788 9.159799 0.644091 -0.165979 0.746725 0.742188 0.492188 1 0 1.000000
head_soldier
  0 0.258497 -4.938670 7.825403 0.416888 -0.861046 0.291211 0.585938 0.523438 1 0 1.000000
  0 -2.110792 -4.563569 9.248758 -0.095892 -0.538276 0.837296 0.617188 0.460938 1 0 1.000000
  0 -1.950162 -5.388790 8.581560 -0.016821 -0.852357 0.522690 0.570312 0.492188 1 0 1.000000
head_soldier
  0 0.258497 -4.938670 7.825403 0.416888 -0.861046 0.291211 0.585938 0.523438 1 0 1.000000
  0 1.382905 -4.038429 8.225721 0.533182 -0.665923 0.521789 0.632812 0.507812 1 0 1.000000
  0 -2.110792 -4.563569 9.248758 -0.095892 -0.538276 0.837296 0.617188 0.460938 1 0 1.000000
head_soldier
  0 1.382905 1.212974 9.293239 0.562152 0.450653 0.693468 0.867188 0.507812 1 0 1.000000
  0 2.266369 1.175464 7.914362 0.743355 0.579335 0.334356 0.851562 0.570312 1 0 1.000000
  0 0.097867 2.413294 8.136762 0.408605 0.889741 0.203478 0.914062 0.570312 1 0 1.000000
head_soldier
  0 -1.950162 -5.388790 8.581560 -0.016821 -0.852357 0.522690 0.570312 0.492188 1 0 1.000000
  0 -2.150949 -5.501320 7.603003 -0.077935 -0.994332 0.072320 0.554688 0.523438 1 0 1.000000
  0 0.258497 -4.938670 7.825403 0.416888 -0.861046 0.291211 0.585938 0.523438 1 0 1.000000
head_soldier
  0 0.097867 2.413294 8.136762 0.408605 0.889741 0.203478 0.914062 0.570312 1 0 1.000000
  0 -1.910005 3.088474 8.003322 -0.018898 0.977591 0.209666 0.929688 0.585938 1 0 1.000000
  0 -1.910005 2.788394 9.382198 -0.026638 0.872511 0.487868 0.929688 0.523438 1 0 1.000000
head_soldier
  0 3.390777 -1.337708 7.603003 0.946275 -0.070903 0.315494 0.742188 0.570312 1 0 1.000000
  0 2.266369 1.175464 7.914362 0.743355 0.579335 0.334356 0.851562 0.570312 1 0 1.000000
  0 1.382905 1.212974 9.293239 0.562152 0.450653 0.693468 0.867188 0.507812 1 0 1.000000
head_soldier
  0 1.382905 1.212974 9.293239 0.562152 0.450653 0.693468 0.867188 0.507812 1 0 1.000000
  0 2.426999 -1.637788 9.159799 0.644091 -0.165979 0.746725 0.742188 0.492188 1 0 1.000000
  0 3.390777 -1.337708 7.603003 0.946275 -0.070903 0.315494 0.742188 0.570312 1 0 1.000000
head_soldier
  0 3.390777 -1.337708 7.603003 0.946275 -0.070903 0.315494 0.742188 0.570312 1 0 1.000000
  0 2.426999 -1.637788 9.159799 0.644091 -0.165979 0.746725 0.742188 0.492188 1 0 1.000000
  0 1.382905 -4.038429 8.225721 0.533182 -0.665923 0.521789 0.632812 0.507812 1 0 1.000000
head_soldier
  0 1.382905 -4.038429 8.225721 0.533182 -0.665923 0.521789 0.632812 0.507812 1 0 1.000000
  0 2.266369 -3.775859 6.891325 0.722191 -0.683494 0.106191 0.632812 0.570312 1 0 1.000000
  0 3.390777 -1.337708 7.603003 0.946275 -0.070903 0.315494 0.742188 0.570312 1 0 1.000000
head_soldier
  0 0.218339 -4.938670 6.402047 0.400627 -0.914344 -0.058933 0.570312 0.585938 1 0 1.000000
  0 2.266369 -3.775859 6.891325 0.722191 -0.683494 0.106191 0.632812 0.570312 1 0 1.000000
  0 1.382905 -4.038429 8.225721 0.533182 -0.665923 0.521789 0.632812 0.507812 1 0 1.000000
head_soldier
  0 0.258497 -4.938670 7.825403 0.416888 -0.861046 0.291211 0.585938 0.523438 1 0 1.000000
  0 -2.150949 -5.501320 7.603003 -0.077935 -0.994332 0.072320 0.554688 0.523438 1 0 1.000000
  0 0.218339 -4.938670 6.402047 0.400627 -0.914344 -0.058933 0.570312 0.585938 1 0 1.000000
head_soldier
  0 -2.150949 -5.501320 7.603003 -0.077935 -0.994332 0.072320 0.554688 0.523438 1 0 1.000000
  0 -1.910005 -5.538830 6.224127 -0.014312 -0.995927 -0.089020 0.554688 0.585938 1 0 1.000000
  0 0.218339 -4.938670 6.402047 0.400627 -0.914344 -0.058933 0.570312 0.585938 1 0 1.000000
head_soldier
  0 -1.910005 2.788394 9.382198 -0.026638 0.872511 0.487868 0.929688 0.523438 1 0 1.000000
  0 0.258497 2.188234 9.293239 0.447971 0.728020 0.518949 0.914062 0.523438 1 0 1.000000
  0 0.097867 2.413294 8.136762 0.408605 0.889741 0.203478 0.914062 0.570312 1 0 1.000000
head_soldier
  0 0.258497 2.188234 9.293239 0.447971 0.728020 0.518949 0.914062 0.523438 1 0 1.000000
  0 -1.910005 2.788394 9.382198 -0.026638 0.872511 0.487868 0.929688 0.523438 1 0 1.000000
  0 -1.950162 2.000684 10.093876 -0.033287 0.519760 0.853664 0.898438 0.492188 1 0 1.000000
head_soldier
  0 0.258497 2.188234 9.293239 0.447971 0.728020 0.518949 0.914062 0.523438 1 0 1.000000
  0 -1.950162 2.000684 10.093876 -0.033287 0.519760 0.853664 0.898438 0.492188 1 0 1.000000
  0 -2.110792 1.287993 10.405235 -0.095768 0.206305 0.973790 0.882812 0.460938 1 0 1.000000
head_soldier
  0 -2.110792 1.287993 10.405235 -0.095768 0.206305 0.973790 0.882812 0.460938 1 0 1.000000
  0 1.382905 1.212974 9.293239 0.562152 0.450653 0.693468 0.867188 0.507812 1 0 1.000000
  0 0.258497 2.188234 9.293239 0.447971 0.728020 0.518949 0.914062 0.523438 1 0 1.000000
head_soldier
  0 -3.958034 -4.863649 7.558524 -0.519935 -0.821069 0.235613 0.101562 0.195312 1 0 1.000000
  0 -3.797404 -4.938670 6.446527 -0.513548 -0.850515 -0.113547 0.085938 0.242188 1 0 1.000000
  0 -2.150949 -5.501320 7.603003 -0.077935 -0.994332 0.072320 0.085938 0.195312 1 0 1.000000
head_soldier
  0 -6.287165 -1.262688 7.291644 -0.996064 -0.021792 0.085916 0.257812 0.242188 1 0 1.000000
  0 -5.042284 -3.738349 6.757885 -0.821406 -0.560509 -0.105457 0.148438 0.242188 1 0 1.000000
  0 -4.921812 -3.963409 7.914362 -0.708965 -0.585852 0.392614 0.148438 0.195312 1 0 1.000000
head_soldier
  0 -4.921812 -3.963409 7.914362 -0.708965 -0.585852 0.392614 0.148438 0.195312 1 0 1.000000
  0 -5.644646 -1.562768 8.670520 -0.736112 -0.149877 0.660057 0.257812 0.179688 1 0 1.000000
  0 -6.287165 -1.262688 7.291644 -0.996064 -0.021792 0.085916 0.257812 0.242188 1 0 1.000000
head_soldier
  0 -6.287165 -1.262688 7.291644 -0.996064 -0.021792 0.085916 0.257812 0.242188 1 0 1.000000
  0 -5.644646 -1.562768 8.670520 -0.736112 -0.149877 0.660057 0.257812 0.179688 1 0 1.000000
  0 -4.921812 1.287993 8.981879 -0.730526 0.423407 0.535778 0.382812 0.195312 1 0 1.000000
head_soldier
  0 -4.921812 1.287993 8.981879 -0.730526 0.423407 0.535778 0.382812 0.195312 1 0 1.000000
  0 -5.042284 1.212974 7.736443 -0.833255 0.549778 0.058578 0.367188 0.242188 1 0 1.000000
  0 -6.287165 -1.262688 7.291644 -0.996064 -0.021792 0.085916 0.257812 0.242188 1 0 1.000000
head_soldier
  0 -2.110792 -4.563569 9.248758 -0.095892 -0.538276 0.837296 0.132812 0.132812 1 0 1.000000
  0 -4.921812 -3.963409 7.914362 -0.708965 -0.585852 0.392614 0.148438 0.195312 1 0 1.000000
  0 -3.958034 -4.863649 7.558524 -0.519935 -0.821069 0.235613 0.101562 0.195312 1 0 1.000000
head_soldier
  0 -3.958034 -4.863649 7.558524 -0.519935 -0.821069 0.235613 0.101562 0.195312 1 0 1.000000
  0 -1.950162 -5.388790 8.581560 -0.016821 -0.852357 0.522690 0.085938 0.148438 1 0 1.000000
  0 -2.110792 -4.563569 9.248758 -0.095892 -0.538276 0.837296 0.132812 0.132812 1 0 1.000000
head_soldier
  0 -3.797404 2.450804 7.958842 -0.511805 0.846604 0.146001 0.429688 0.242188 1 0 1.000000
  0 -3.958034 2.225744 8.981879 -0.511862 0.736189 0.442744 0.429688 0.195312 1 0 1.000000
  0 -1.910005 2.788394 9.382198 -0.026638 0.872511 0.487868 0.445312 0.179688 1 0 1.000000
head_soldier
  0 -3.797404 2.450804 7.958842 -0.511805 0.846604 0.146001 0.429688 0.242188 1 0 1.000000
  0 -1.910005 2.788394 9.382198 -0.026638 0.872511 0.487868 0.445312 0.179688 1 0 1.000000
  0 -1.910005 3.088474 8.003322 -0.018898 0.977591 0.209666 0.445312 0.242188 1 0 1.000000
head_soldier
  0 -3.958034 2.225744 8.981879 -0.511862 0.736189 0.442744 0.429688 0.195312 1 0 1.000000
  0 -1.950162 2.000684 10.093876 -0.033287 0.519760 0.853664 0.429688 0.148438 1 0 1.000000
  0 -1.910005 2.788394 9.382198 -0.026638 0.872511 0.487868 0.445312 0.179688 1 0 1.000000
head_soldier
  0 -3.958034 2.225744 8.981879 -0.511862 0.736189 0.442744 0.429688 0.195312 1 0 1.000000
  0 -2.110792 1.287993 10.405235 -0.095768 0.206305 0.973790 0.398438 0.132812 1 0 1.000000
  0 -1.950162 2.000684 10.093876 -0.033287 0.519760 0.853664 0.429688 0.148438 1 0 1.000000
head_soldier
  0 -3.958034 2.225744 8.981879 -0.511862 0.736189 0.442744 0.429688 0.195312 1 0 1.000000
  0 -3.797404 2.450804 7.958842 -0.511805 0.846604 0.146001 0.429688 0.242188 1 0 1.000000
  0 -5.042284 1.212974 7.736443 -0.833255 0.549778 0.058578 0.367188 0.242188 1 0 1.000000
head_soldier
  0 -5.042284 1.212974 7.736443 -0.833255 0.549778 0.058578 0.367188 0.242188 1 0 1.000000
  0 -4.921812 1.287993 8.981879 -0.730526 0.423407 0.535778 0.382812 0.195312 1 0 1.000000
  0 -3.958034 2.225744 8.981879 -0.511862 0.736189 0.442744 0.429688 0.195312 1 0 1.000000
head_soldier
  0 -3.958034 2.225744 8.981879 -0.511862 0.736189 0.442744 0.429688 0.195312 1 0 1.000000
  0 -4.921812 1.287993 8.981879 -0.730526 0.423407 0.535778 0.382812 0.195312 1 0 1.000000
  0 -2.110792 1.287993 10.405235 -0.095768 0.206305 0.973790 0.398438 0.132812 1 0 1.000000
head_soldier
  0 -4.841497 2.225744 4.311492 -0.639763 0.628193 -0.442806 0.164062 0.523438 1 0 1.000000
  0 -1.267486 -0.174897 2.043018 -0.499228 0.166531 -0.850317 0.304688 0.710938 1 0 1.000000
  0 -5.724961 -0.549997 3.644294 -0.822247 0.100933 -0.560109 0.289062 0.492188 1 0 1.000000
head_soldier
  0 -3.757246 3.050964 4.934210 -0.478421 0.849853 -0.221051 0.117188 0.570312 1 0 1.000000
  0 -1.267486 -0.174897 2.043018 -0.499228 0.166531 -0.850317 0.304688 0.710938 1 0 1.000000
  0 -4.841497 2.225744 4.311492 -0.639763 0.628193 -0.442806 0.164062 0.523438 1 0 1.000000
head_soldier
  0 -1.548587 4.026225 3.421895 -0.317430 0.874409 -0.366943 0.085938 0.695312 1 0 1.000000
  0 -1.267486 -0.174897 2.043018 -0.499228 0.166531 -0.850317 0.304688 0.710938 1 0 1.000000
  0 -3.757246 3.050964 4.934210 -0.478421 0.849853 -0.221051 0.117188 0.570312 1 0 1.000000
head_soldier
  0 1.021489 3.763655 1.553739 0.057071 0.873773 -0.482973 0.117188 0.851562 1 0 1.000000
  0 -1.267486 -0.174897 2.043018 -0.499228 0.166531 -0.850317 0.304688 0.710938 1 0 1.000000
  0 -1.548587 4.026225 3.421895 -0.317430 0.874409 -0.366943 0.085938 0.695312 1 0 1.000000
head_soldier
  0 2.868730 1.888154 -0.358895 0.394108 0.516854 -0.759961 0.226562 0.960938 1 0 1.000000
  0 -1.267486 -0.174897 2.043018 -0.499228 0.166531 -0.850317 0.304688 0.710938 1 0 1.000000
  0 1.021489 3.763655 1.553739 0.057071 0.873773 -0.482973 0.117188 0.851562 1 0 1.000000
head_soldier
  0 2.868730 -0.887588 -0.892654 0.398679 -0.166249 -0.901896 0.351562 0.945312 1 0 1.000000
  0 -1.267486 -0.174897 2.043018 -0.499228 0.166531 -0.850317 0.304688 0.710938 1 0 1.000000
  0 2.868730 1.888154 -0.358895 0.394108 0.516854 -0.759961 0.226562 0.960938 1 0 1.000000
head_soldier
  0 1.021489 -3.663329 0.041423 0.105001 -0.601650 -0.791828 0.476562 0.835938 1 0 1.000000
  0 -1.267486 -0.174897 2.043018 -0.499228 0.166531 -0.850317 0.304688 0.710938 1 0 1.000000
  0 2.868730 -0.887588 -0.892654 0.398679 -0.166249 -0.901896 0.351562 0.945312 1 0 1.000000
head_soldier
  0 -1.548587 -4.638589 1.687179 -0.347579 -0.658843 -0.667169 0.507812 0.695312 1 0 1.000000
  0 -1.267486 -0.174897 2.043018 -0.499228 0.166531 -0.850317 0.304688 0.710938 1 0 1.000000
  0 1.021489 -3.663329 0.041423 0.105001 -0.601650 -0.791828 0.476562 0.835938 1 0 1.000000
head_soldier
  0 -3.516302 -4.376019 3.510854 -0.507645 -0.683313 -0.524766 0.492188 0.570312 1 0 1.000000
  0 -1.267486 -0.174897 2.043018 -0.499228 0.166531 -0.850317 0.304688 0.710938 1 0 1.000000
  0 -1.548587 -4.638589 1.687179 -0.347579 -0.658843 -0.667169 0.507812 0.695312 1 0 1.000000
head_soldier
  0 -4.841497 -3.025659 3.243975 -0.640253 -0.388746 -0.662535 0.414062 0.523438 1 0 1.000000
  0 -1.267486 -0.174897 2.043018 -0.499228 0.166531 -0.850317 0.304688 0.710938 1 0 1.000000
  0 -3.516302 -4.376019 3.510854 -0.507645 -0.683313 -0.524766 0.492188 0.570312 1 0 1.000000
head_soldier
  0 -5.724961 -0.549997 3.644294 -0.822247 0.100933 -0.560109 0.289062 0.492188 1 0 1.000000
  0 -1.267486 -0.174897 2.043018 -0.499228 0.166531 -0.850317 0.304688 0.710938 1 0 1.000000
  0 -4.841497 -3.025659 3.243975 -0.640253 -0.388746 -0.662535 0.414062 0.523438 1 0 1.000000
end
