version 1
nodes
0 "root" -1
end
skeleton
  time 0
  0 0.000000 0.000000 0.000000 0.000000 0.000000 0.000000
end
triangles
head_wizard
  0 8.072239 -2.698848 9.067091 0.559296 -0.312127 0.767962 0.597656 0.613281 1 0 1.000000
  0 -10.705191 0.402563 16.438576 0.225437 -0.137315 0.964532 0.558594 0.917969 1 0 1.000000
  0 -1.798809 -7.809478 12.655508 0.320130 -0.517814 0.793338 0.667969 0.777344 1 0 1.000000
head_wizard
  0 8.072239 -2.698848 9.067091 0.559296 -0.312127 0.767962 0.597656 0.613281 1 0 1.000000
  0 -1.798809 -7.809478 12.655508 0.320130 -0.517814 0.793338 0.667969 0.777344 1 0 1.000000
  0 -2.690607 -10.519473 9.416528 0.264308 -0.750852 0.605279 0.730469 0.777344 1 0 1.000000
head_wizard
  0 -1.798809 -7.809478 12.655508 0.320130 -0.517814 0.793338 0.667969 0.777344 1 0 1.000000
  0 -11.758479 -6.167432 14.358871 0.064394 -0.562151 0.824524 0.667969 0.917969 1 0 1.000000
  0 -2.690607 -10.519473 9.416528 0.264308 -0.750852 0.605279 0.730469 0.777344 1 0 1.000000
head_wizard
  0 -2.690607 -10.519473 9.416528 -0.153613 -0.801727 -0.577614 0.042969 0.269531 1 0 1.000000
  0 -6.285590 -2.978351 0.286899 -0.164344 -0.419898 -0.892567 0.207031 0.324219 1 0 1.000000
  0 7.878342 -2.277574 0.039395 0.342784 -0.325567 -0.881195 0.253906 0.136719 1 0 1.000000
head_wizard
  0 -2.690607 -10.519473 9.416528 -0.153613 -0.801727 -0.577614 0.042969 0.269531 1 0 1.000000
  0 -13.616649 -7.701355 12.873768 -0.016661 -0.932897 -0.359758 0.097656 0.386719 1 0 1.000000
  0 -6.285590 -2.978351 0.286899 -0.164344 -0.419898 -0.892567 0.207031 0.324219 1 0 1.000000
head_wizard
  0 -15.424070 -2.048298 3.396460 -0.332614 -0.161991 -0.929046 0.230469 0.464844 1 0 1.000000
  0 -6.285590 -2.978351 0.286899 -0.164344 -0.419898 -0.892567 0.207031 0.324219 1 0 1.000000
  0 -15.090492 -7.488097 6.317911 -0.327429 -0.462561 -0.823910 0.152344 0.464844 1 0 1.000000
head_wizard
  0 -2.690607 -10.519473 9.416528 0.264308 -0.750852 0.605279 0.730469 0.777344 1 0 1.000000
  0 -11.758479 -6.167432 14.358871 0.064394 -0.562151 0.824524 0.667969 0.917969 1 0 1.000000
  0 -13.616649 -7.701355 12.873768 0.035386 -0.716941 0.696235 0.730469 0.933594 1 0 1.000000
head_wizard
  0 -2.690607 -10.519473 9.416528 -0.153613 -0.801727 -0.577614 0.042969 0.269531 1 0 1.000000
  0 7.878342 -2.277574 0.039395 0.342784 -0.325567 -0.881195 0.253906 0.136719 1 0 1.000000
  0 11.312001 -5.004392 4.793946 0.503250 -0.541093 -0.673764 0.222656 0.050781 1 0 1.000000
head_wizard
  0 -1.798809 -7.809478 12.655508 0.320130 -0.517814 0.793338 0.667969 0.777344 1 0 1.000000
  0 -10.705191 0.402563 16.438576 0.225437 -0.137315 0.964532 0.558594 0.917969 1 0 1.000000
  0 -11.758479 -6.167432 14.358871 0.064394 -0.562151 0.824524 0.667969 0.917969 1 0 1.000000
head_wizard
  0 8.072239 -2.698848 9.067091 0.559296 -0.312127 0.767962 0.597656 0.613281 1 0 1.000000
  0 -2.690607 -10.519473 9.416528 0.264308 -0.750852 0.605279 0.730469 0.777344 1 0 1.000000
  0 11.312001 -5.004392 4.793946 0.654497 -0.335803 0.677399 0.628906 0.527344 1 0 1.000000
head_wizard
  0 -14.362427 6.972642 4.523668 -0.382110 0.431365 -0.817261 0.355469 0.464844 1 0 1.000000
  0 -6.285590 -2.978351 0.286899 -0.164344 -0.419898 -0.892567 0.207031 0.324219 1 0 1.000000
  0 -15.424070 -2.048298 3.396460 -0.332614 -0.161991 -0.929046 0.230469 0.464844 1 0 1.000000
head_wizard
  0 -5.481891 7.186991 0.014448 -0.087409 0.551370 -0.829669 0.378906 0.324219 1 0 1.000000
  0 -6.285590 -2.978351 0.286899 -0.164344 -0.419898 -0.892567 0.207031 0.324219 1 0 1.000000
  0 -14.362427 6.972642 4.523668 -0.382110 0.431365 -0.817261 0.355469 0.464844 1 0 1.000000
head_wizard
  0 8.432158 2.683944 0.669728 0.421508 0.393820 -0.816846 0.332031 0.136719 1 0 1.000000
  0 -6.285590 -2.978351 0.286899 -0.164344 -0.419898 -0.892567 0.207031 0.324219 1 0 1.000000
  0 -5.481891 7.186991 0.014448 -0.087409 0.551370 -0.829669 0.378906 0.324219 1 0 1.000000
head_wizard
  0 7.878342 -2.277574 0.039395 0.342784 -0.325567 -0.881195 0.253906 0.136719 1 0 1.000000
  0 -6.285590 -2.978351 0.286899 -0.164344 -0.419898 -0.892567 0.207031 0.324219 1 0 1.000000
  0 8.432158 2.683944 0.669728 0.421508 0.393820 -0.816846 0.332031 0.136719 1 0 1.000000
head_wizard
  0 12.221677 4.137702 5.154597 0.561517 0.533114 -0.632841 0.363281 0.050781 1 0 1.000000
  0 7.878342 -2.277574 0.039395 0.342784 -0.325567 -0.881195 0.253906 0.136719 1 0 1.000000
  0 8.432158 2.683944 0.669728 0.421508 0.393820 -0.816846 0.332031 0.136719 1 0 1.000000
head_wizard
  0 11.312001 -5.004392 4.793946 0.503250 -0.541093 -0.673764 0.222656 0.050781 1 0 1.000000
  0 7.878342 -2.277574 0.039395 0.342784 -0.325567 -0.881195 0.253906 0.136719 1 0 1.000000
  0 12.221677 4.137702 5.154597 0.561517 0.533114 -0.632841 0.363281 0.050781 1 0 1.000000
head_wizard
  0 8.072239 -2.698848 9.067091 0.559296 -0.312127 0.767962 0.597656 0.613281 1 0 1.000000
  0 12.221677 4.137702 5.154597 0.755195 0.088034 0.649562 0.488281 0.527344 1 0 1.000000
  0 8.645460 2.253349 9.753731 0.630830 0.027802 0.775423 0.519531 0.613281 1 0 1.000000
head_wizard
  0 8.072239 -2.698848 9.067091 0.559296 -0.312127 0.767962 0.597656 0.613281 1 0 1.000000
  0 11.312001 -5.004392 4.793946 0.654497 -0.335803 0.677399 0.628906 0.527344 1 0 1.000000
  0 12.221677 4.137702 5.154597 0.755195 0.088034 0.649562 0.488281 0.527344 1 0 1.000000
head_wizard
  0 -10.705191 0.402563 16.438576 0.225437 -0.137315 0.964532 0.558594 0.917969 1 0 1.000000
  0 8.072239 -2.698848 9.067091 0.559296 -0.312127 0.767962 0.597656 0.613281 1 0 1.000000
  0 8.645460 2.253349 9.753731 0.630830 0.027802 0.775423 0.519531 0.613281 1 0 1.000000
head_wizard
  0 8.645460 2.253349 9.753731 0.630830 0.027802 0.775423 0.519531 0.613281 1 0 1.000000
  0 -0.408372 8.033084 14.411241 0.360960 0.121104 0.924685 0.449219 0.777344 1 0 1.000000
  0 -10.705191 0.402563 16.438576 0.225437 -0.137315 0.964532 0.558594 0.917969 1 0 1.000000
head_wizard
  0 -1.061735 12.409370 13.166465 0.335228 0.318881 0.886531 0.386719 0.777344 1 0 1.000000
  0 -0.408372 8.033084 14.411241 0.360960 0.121104 0.924685 0.449219 0.777344 1 0 1.000000
  0 8.645460 2.253349 9.753731 0.630830 0.027802 0.775423 0.519531 0.613281 1 0 1.000000
head_wizard
  0 -1.061735 12.409370 13.166465 0.335228 0.318881 0.886531 0.386719 0.777344 1 0 1.000000
  0 -10.092314 6.452564 15.937973 0.121342 0.182991 0.975598 0.449219 0.917969 1 0 1.000000
  0 -0.408372 8.033084 14.411241 0.360960 0.121104 0.924685 0.449219 0.777344 1 0 1.000000
head_wizard
  0 8.432158 2.683944 0.669728 0.421508 0.393820 -0.816846 0.332031 0.136719 1 0 1.000000
  0 -5.481891 7.186991 0.014448 -0.087409 0.551370 -0.829669 0.378906 0.324219 1 0 1.000000
  0 -1.061735 12.409370 13.166465 -0.024643 0.929157 -0.368863 0.550781 0.269531 1 0 1.000000
head_wizard
  0 -5.481891 7.186991 0.014448 -0.087409 0.551370 -0.829669 0.378906 0.324219 1 0 1.000000
  0 -11.715931 9.519320 15.133502 0.109510 0.988179 -0.107286 0.496094 0.386719 1 0 1.000000
  0 -1.061735 12.409370 13.166465 -0.024643 0.929157 -0.368863 0.550781 0.269531 1 0 1.000000
head_wizard
  0 -13.970453 11.751479 9.568048 -0.338318 0.696133 -0.633198 0.441406 0.464844 1 0 1.000000
  0 -5.481891 7.186991 0.014448 -0.087409 0.551370 -0.829669 0.378906 0.324219 1 0 1.000000
  0 -14.362427 6.972642 4.523668 -0.382110 0.431365 -0.817261 0.355469 0.464844 1 0 1.000000
head_wizard
  0 -11.715931 9.519320 15.133502 0.094219 0.298980 0.949597 0.386719 0.933594 1 0 1.000000
  0 -10.092314 6.452564 15.937973 0.121342 0.182991 0.975598 0.449219 0.917969 1 0 1.000000
  0 -1.061735 12.409370 13.166465 0.335228 0.318881 0.886531 0.386719 0.777344 1 0 1.000000
head_wizard
  0 12.221677 4.137702 5.154597 0.561517 0.533114 -0.632841 0.363281 0.050781 1 0 1.000000
  0 8.432158 2.683944 0.669728 0.421508 0.393820 -0.816846 0.332031 0.136719 1 0 1.000000
  0 -1.061735 12.409370 13.166465 -0.024643 0.929157 -0.368863 0.550781 0.269531 1 0 1.000000
head_wizard
  0 -10.092314 6.452564 15.937973 0.121342 0.182991 0.975598 0.449219 0.917969 1 0 1.000000
  0 -10.705191 0.402563 16.438576 0.225437 -0.137315 0.964532 0.558594 0.917969 1 0 1.000000
  0 -0.408372 8.033084 14.411241 0.360960 0.121104 0.924685 0.449219 0.777344 1 0 1.000000
head_wizard
  0 12.221677 4.137702 5.154597 0.755195 0.088034 0.649562 0.488281 0.527344 1 0 1.000000
  0 -1.061735 12.409370 13.166465 0.335228 0.318881 0.886531 0.386719 0.777344 1 0 1.000000
  0 8.645460 2.253349 9.753731 0.630830 0.027802 0.775423 0.519531 0.613281 1 0 1.000000
head_wizard
  0 -15.090492 -7.488097 6.317911 0.388092 -0.914166 -0.116986 0.152344 0.402344 1 0 1.000000
  0 -6.285590 -2.978351 0.286899 -0.164344 -0.419898 -0.892567 0.207031 0.324219 1 0 1.000000
  0 -13.616649 -7.701355 12.873768 -0.016661 -0.932897 -0.359758 0.097656 0.386719 1 0 1.000000
head_wizard
  0 -11.715931 9.519320 15.133502 0.109510 0.988179 -0.107286 0.496094 0.386719 1 0 1.000000
  0 -5.481891 7.186991 0.014448 -0.087409 0.551370 -0.829669 0.378906 0.324219 1 0 1.000000
  0 -13.970453 11.751479 9.568048 0.558937 0.822719 0.103551 0.441406 0.402344 1 0 1.000000
head_wizard
  0 -10.705191 0.402563 16.438576 -0.937278 0.080824 0.339083 0.855469 0.199219 1 0 1.000000
  0 -15.424070 -2.048298 3.396460 -0.942514 0.100882 0.318575 0.777344 0.386719 1 0 1.000000
  0 -11.758479 -6.167432 14.358871 -0.892550 0.233094 0.386034 0.917969 0.277344 1 0 1.000000
head_wizard
  0 -10.092314 6.452564 15.937973 -0.934402 -0.086200 0.345634 0.785156 0.160156 1 0 1.000000
  0 -14.362427 6.972642 4.523668 -0.944491 -0.037791 0.326358 0.683594 0.300781 1 0 1.000000
  0 -10.705191 0.402563 16.438576 -0.937278 0.080824 0.339083 0.855469 0.199219 1 0 1.000000
head_wizard
  0 -11.715931 9.519320 15.133502 -0.889620 -0.341033 0.303763 0.738281 0.152344 1 0 1.000000
  0 -14.362427 6.972642 4.523668 -0.944491 -0.037791 0.326358 0.683594 0.300781 1 0 1.000000
  0 -10.092314 6.452564 15.937973 -0.934402 -0.086200 0.345634 0.785156 0.160156 1 0 1.000000
head_wizard
  0 -13.970453 11.751479 9.568048 -0.931034 -0.226047 0.286493 0.660156 0.199219 1 0 1.000000
  0 -14.362427 6.972642 4.523668 -0.944491 -0.037791 0.326358 0.683594 0.300781 1 0 1.000000
  0 -11.715931 9.519320 15.133502 -0.889620 -0.341033 0.303763 0.738281 0.152344 1 0 1.000000
head_wizard
  0 -15.424070 -2.048298 3.396460 -0.942514 0.100882 0.318575 0.777344 0.386719 1 0 1.000000
  0 -10.705191 0.402563 16.438576 -0.937278 0.080824 0.339083 0.855469 0.199219 1 0 1.000000
  0 -14.362427 6.972642 4.523668 -0.944491 -0.037791 0.326358 0.683594 0.300781 1 0 1.000000
head_wizard
  0 -15.090492 -7.488097 6.317911 -0.973545 0.058871 0.220781 0.863281 0.394531 1 0 1.000000
  0 -13.616649 -7.701355 12.873768 -0.820185 0.408777 0.400247 0.917969 0.316406 1 0 1.000000
  0 -15.424070 -2.048298 3.396460 -0.942514 0.100882 0.318575 0.777344 0.386719 1 0 1.000000
head_wizard
  0 -15.424070 -2.048298 3.396460 -0.942514 0.100882 0.318575 0.777344 0.386719 1 0 1.000000
  0 -13.616649 -7.701355 12.873768 -0.820185 0.408777 0.400247 0.917969 0.316406 1 0 1.000000
  0 -11.758479 -6.167432 14.358871 -0.892550 0.233094 0.386034 0.917969 0.277344 1 0 1.000000
end
