version 1
nodes
0 "root" -1
end
skeleton
  time 0
  0 0.000000 0.000000 0.000000 0.000000 0.000000 0.000000
end
triangles
head_demon
  0 16.296289 -3.336556 4.544541 0.665001 0.093058 0.741022 0.121094 0.082031 1 0 1.000000
  0 13.894911 3.689990 5.005581 0.607045 0.156340 0.779137 0.097656 0.175781 1 0 1.000000
  0 14.318682 -3.535421 6.125250 0.498376 -0.104139 0.860684 0.152344 0.097656 1 0 1.000000
head_demon
  0 16.296289 0.640733 2.041750 0.772569 0.338161 0.537386 0.074219 0.113281 1 0 1.000000
  0 16.296289 -3.336556 4.544541 0.665001 0.093058 0.741022 0.121094 0.082031 1 0 1.000000
  0 17.426348 -4.662320 3.754186 0.615017 0.055316 0.786571 0.121094 0.058594 1 0 1.000000
head_demon
  0 17.426348 -4.662320 3.754186 0.615017 0.055316 0.786571 0.121094 0.058594 1 0 1.000000
  0 16.296289 -3.336556 4.544541 0.665001 0.093058 0.741022 0.121094 0.082031 1 0 1.000000
  0 14.601198 -7.114982 4.939718 0.398279 -0.282359 0.872724 0.175781 0.058594 1 0 1.000000
head_demon
  0 16.296289 -3.336556 4.544541 0.665001 0.093058 0.741022 0.121094 0.082031 1 0 1.000000
  0 14.318682 -3.535421 6.125250 0.498376 -0.104139 0.860684 0.152344 0.097656 1 0 1.000000
  0 14.601198 -7.114982 4.939718 0.398279 -0.282359 0.872724 0.175781 0.058594 1 0 1.000000
head_demon
  0 14.318682 -3.535421 6.125250 0.498376 -0.104139 0.860684 0.152344 0.097656 1 0 1.000000
  0 3.583105 2.297938 9.220807 0.522928 0.270999 0.808149 0.222656 0.246094 1 0 1.000000
  0 4.854424 -2.077081 9.681848 0.310118 -0.229623 0.922551 0.253906 0.191406 1 0 1.000000
head_demon
  0 14.601198 -7.114982 4.939718 0.398279 -0.282359 0.872724 0.175781 0.058594 1 0 1.000000
  0 4.854424 -2.077081 9.681848 0.310118 -0.229623 0.922551 0.253906 0.191406 1 0 1.000000
  0 0.899212 -5.126337 7.903549 0.210364 -0.607653 0.765836 0.324219 0.175781 1 0 1.000000
head_demon
  0 5.136940 6.010075 6.718017 0.518455 0.588451 0.620427 0.089844 0.324219 1 0 1.000000
  0 6.832029 2.231650 6.256976 0.708445 0.236695 0.664892 0.058594 0.253906 1 0 1.000000
  0 6.408258 6.275228 5.269032 0.636641 0.435836 0.636189 0.050781 0.316406 1 0 1.000000
head_demon
  0 6.408258 6.275228 5.269032 -0.491394 -0.425203 0.760089 0.480469 0.128906 1 0 1.000000
  0 5.701969 5.678634 4.478678 -0.491394 -0.425203 0.760089 0.511719 0.128906 1 0 1.000000
  0 8.244606 3.093396 4.676267 -0.491394 -0.425203 0.760089 0.496094 0.066406 1 0 1.000000
head_demon
  0 6.408258 6.275228 5.269032 0.636641 0.435836 0.636189 0.050781 0.316406 1 0 1.000000
  0 8.244606 3.093396 4.676267 0.763752 0.338378 0.549712 0.035156 0.261719 1 0 1.000000
  0 7.397060 6.076363 4.017637 0.758667 0.361420 0.542033 0.027344 0.324219 1 0 1.000000
head_demon
  0 7.397060 6.076363 4.017637 -0.194986 -0.263969 -0.944617 0.464844 0.128906 1 0 1.000000
  0 8.244606 3.093396 4.676267 -0.194986 -0.263969 -0.944617 0.449219 0.066406 1 0 1.000000
  0 5.701969 5.678634 4.478678 -0.194986 -0.263969 -0.944617 0.433594 0.128906 1 0 1.000000
head_demon
  0 5.701969 5.678634 4.478678 0.770672 -0.073875 -0.632936 0.339844 0.128906 1 0 1.000000
  0 6.408258 6.275228 5.269032 0.770672 -0.073875 -0.632936 0.371094 0.128906 1 0 1.000000
  0 6.832029 2.231650 6.256976 0.770672 -0.073875 -0.632936 0.355469 0.058594 1 0 1.000000
head_demon
  0 6.832029 2.231650 6.256976 -0.906504 -0.385736 -0.171637 0.402344 0.058594 1 0 1.000000
  0 5.136940 6.010075 6.718017 -0.906504 -0.385736 -0.171637 0.386719 0.128906 1 0 1.000000
  0 5.701969 5.678634 4.478678 -0.906504 -0.385736 -0.171637 0.417969 0.128906 1 0 1.000000
head_demon
  0 7.397060 6.076363 4.017637 0.758667 0.361420 0.542033 0.027344 0.324219 1 0 1.000000
  0 5.560713 9.191908 4.281089 0.286512 0.381012 0.879057 0.050781 0.378906 1 0 1.000000
  0 6.408258 6.275228 5.269032 0.636641 0.435836 0.636189 0.050781 0.316406 1 0 1.000000
head_demon
  0 -8.847562 -5.258913 13.567760 0.326533 -0.483208 0.812334 0.417969 0.261719 1 0 1.000000
  0 -9.695107 -7.048694 11.921186 0.220044 -0.714848 0.663757 0.441406 0.230469 1 0 1.000000
  0 0.899212 -5.126337 7.903549 0.210364 -0.607653 0.765836 0.324219 0.175781 1 0 1.000000
head_demon
  0 -8.847562 -5.258913 13.567760 0.326533 -0.483208 0.812334 0.417969 0.261719 1 0 1.000000
  0 -15.345410 -2.077081 16.795042 0.274322 -0.348757 0.896167 0.464844 0.347656 1 0 1.000000
  0 -9.695107 -7.048694 11.921186 0.220044 -0.714848 0.663757 0.441406 0.230469 1 0 1.000000
head_demon
  0 -15.345410 -2.077081 16.795042 0.274322 -0.348757 0.896167 0.464844 0.347656 1 0 1.000000
  0 -8.847562 -5.258913 13.567760 0.326533 -0.483208 0.812334 0.417969 0.261719 1 0 1.000000
  0 -10.825168 -0.486166 15.411921 0.288868 -0.052765 0.955914 0.410156 0.332031 1 0 1.000000
head_demon
  0 0.899212 -5.126337 7.903549 0.210364 -0.607653 0.765836 0.324219 0.175781 1 0 1.000000
  0 4.854424 -2.077081 9.681848 0.310118 -0.229623 0.922551 0.253906 0.191406 1 0 1.000000
  0 -10.825168 -0.486166 15.411921 0.288868 -0.052765 0.955914 0.410156 0.332031 1 0 1.000000
head_demon
  0 -11.813971 4.087718 13.304308 0.011264 0.340454 0.940194 0.394531 0.363281 1 0 1.000000
  0 -10.825168 -0.486166 15.411921 0.288868 -0.052765 0.955914 0.410156 0.332031 1 0 1.000000
  0 -2.773485 3.424837 13.436033 0.345422 0.101020 0.932994 0.300781 0.316406 1 0 1.000000
head_demon
  0 1.322985 6.010075 9.089082 0.614759 0.372913 0.694987 0.191406 0.308594 1 0 1.000000
  0 5.136940 6.010075 6.718017 0.518455 0.588451 0.620427 0.089844 0.324219 1 0 1.000000
  0 4.571909 7.866144 4.742129 0.273251 0.534938 0.799484 0.074219 0.363281 1 0 1.000000
head_demon
  0 -3.479774 8.462738 12.711541 -0.079306 0.985347 0.151004 0.183594 0.660156 1 0 1.000000
  0 4.571909 7.866144 4.742129 -0.369568 0.914068 -0.167028 0.269531 0.824219 1 0 1.000000
  0 -3.903546 7.998720 2.897968 0.074927 0.936025 -0.343866 0.285156 0.707031 1 0 1.000000
head_demon
  0 -2.773485 3.424837 13.436033 0.345422 0.101020 0.932994 0.300781 0.316406 1 0 1.000000
  0 -10.825168 -0.486166 15.411921 0.288868 -0.052765 0.955914 0.410156 0.332031 1 0 1.000000
  0 4.854424 -2.077081 9.681848 0.310118 -0.229623 0.922551 0.253906 0.191406 1 0 1.000000
head_demon
  0 4.854424 -2.077081 9.681848 0.310118 -0.229623 0.922551 0.253906 0.191406 1 0 1.000000
  0 3.583105 2.297938 9.220807 0.522928 0.270999 0.808149 0.222656 0.246094 1 0 1.000000
  0 -2.773485 3.424837 13.436033 0.345422 0.101020 0.932994 0.300781 0.316406 1 0 1.000000
head_demon
  0 6.408258 6.275228 5.269032 0.636641 0.435836 0.636189 0.050781 0.316406 1 0 1.000000
  0 5.560713 9.191908 4.281089 0.286512 0.381012 0.879057 0.050781 0.378906 1 0 1.000000
  0 4.571909 7.866144 4.742129 0.273251 0.534938 0.799484 0.074219 0.363281 1 0 1.000000
head_demon
  0 -9.695107 -7.048694 11.921186 -0.455425 -0.790401 -0.409700 0.699219 0.433594 1 0 1.000000
  0 -15.345410 -2.077081 16.795042 -0.666085 -0.745788 -0.011452 0.652344 0.332031 1 0 1.000000
  0 -14.074093 -3.137692 11.921186 -0.661744 -0.740927 -0.114552 0.707031 0.363281 1 0 1.000000
head_demon
  0 -13.791576 0.243004 12.382227 -0.810848 0.059960 0.582177 0.230469 0.910156 1 0 1.000000
  0 -14.074093 -3.137692 11.921186 -0.923813 0.293538 0.245775 0.253906 0.871094 1 0 1.000000
  0 -10.825168 -0.486166 15.411921 -0.754247 0.508413 0.415486 0.144531 0.871094 1 0 1.000000
head_demon
  0 -10.825168 -0.486166 15.411921 -0.754247 0.508413 0.415486 0.144531 0.871094 1 0 1.000000
  0 -14.074093 -3.137692 11.921186 -0.923813 0.293538 0.245775 0.253906 0.871094 1 0 1.000000
  0 -15.345410 -2.077081 16.795042 -0.395897 0.870405 -0.292678 0.199219 0.808594 1 0 1.000000
head_demon
  0 -11.813971 4.087718 13.304308 -0.680868 0.179949 0.709955 0.121094 0.910156 1 0 1.000000
  0 -13.791576 0.243004 12.382227 -0.810848 0.059960 0.582177 0.230469 0.910156 1 0 1.000000
  0 -10.825168 -0.486166 15.411921 -0.754247 0.508413 0.415486 0.144531 0.871094 1 0 1.000000
head_demon
  0 -9.695107 -7.048694 11.921186 -0.455425 -0.790401 -0.409700 0.699219 0.433594 1 0 1.000000
  0 -8.706304 -5.855507 9.286670 -0.071281 -0.984637 0.159399 0.730469 0.449219 1 0 1.000000
  0 0.899212 -5.126337 7.903549 -0.021922 -0.995663 0.090413 0.707031 0.589844 1 0 1.000000
head_demon
  0 -14.074093 -3.137692 11.921186 -0.661744 -0.740927 -0.114552 0.707031 0.363281 1 0 1.000000
  0 -8.706304 -5.855507 9.286670 -0.071281 -0.984637 0.159399 0.730469 0.449219 1 0 1.000000
  0 -9.695107 -7.048694 11.921186 -0.455425 -0.790401 -0.409700 0.699219 0.433594 1 0 1.000000
head_demon
  0 -2.773485 3.424837 13.436033 0.345422 0.101020 0.932994 0.300781 0.316406 1 0 1.000000
  0 1.322985 6.010075 9.089082 0.614759 0.372913 0.694987 0.191406 0.308594 1 0 1.000000
  0 -3.479774 8.462738 12.711541 0.389657 0.206674 0.897471 0.261719 0.363281 1 0 1.000000
head_demon
  0 1.322985 6.010075 9.089082 0.614759 0.372913 0.694987 0.191406 0.308594 1 0 1.000000
  0 -2.773485 3.424837 13.436033 0.345422 0.101020 0.932994 0.300781 0.316406 1 0 1.000000
  0 3.583105 2.297938 9.220807 0.522928 0.270999 0.808149 0.222656 0.246094 1 0 1.000000
head_demon
  0 -3.479774 8.462738 12.711541 -0.079306 0.985347 0.151004 0.183594 0.660156 1 0 1.000000
  0 -8.000016 8.529026 10.077025 -0.175394 0.929543 0.324326 0.207031 0.644531 1 0 1.000000
  0 -11.813971 4.087718 13.304308 -0.338413 0.725804 0.598903 0.160156 0.527344 1 0 1.000000
head_demon
  0 -3.903546 7.998720 2.897968 0.074927 0.936025 -0.343866 0.285156 0.707031 1 0 1.000000
  0 -8.000016 8.529026 10.077025 -0.175394 0.929543 0.324326 0.207031 0.644531 1 0 1.000000
  0 -3.479774 8.462738 12.711541 -0.079306 0.985347 0.151004 0.183594 0.660156 1 0 1.000000
head_demon
  0 -3.903546 7.998720 2.897968 0.074927 0.936025 -0.343866 0.285156 0.707031 1 0 1.000000
  0 4.571909 7.866144 4.742129 -0.369568 0.914068 -0.167028 0.269531 0.824219 1 0 1.000000
  0 4.148136 7.136974 2.832105 -0.349207 0.904144 -0.246125 0.292969 0.824219 1 0 1.000000
head_demon
  0 5.278196 9.258196 2.173476 0.856256 0.503613 -0.114891 0.941406 0.816406 1 0 1.000000
  0 5.560713 9.191908 4.281089 0.853654 0.511472 -0.098342 0.910156 0.816406 1 0 1.000000
  0 7.397060 6.076363 4.017637 0.922715 -0.382217 -0.050068 0.917969 0.753906 1 0 1.000000
head_demon
  0 5.278196 9.258196 2.173476 0.856256 0.503613 -0.114891 0.941406 0.816406 1 0 1.000000
  0 7.397060 6.076363 4.017637 0.922715 -0.382217 -0.050068 0.917969 0.753906 1 0 1.000000
  0 7.255802 5.943787 3.029694 0.945797 -0.311008 -0.093496 0.933594 0.753906 1 0 1.000000
head_demon
  0 1.322985 6.010075 9.089082 0.086246 -0.865130 -0.494077 0.488281 0.378906 1 0 1.000000
  0 3.583105 2.297938 9.220807 -0.033387 0.407354 -0.912660 0.519531 0.324219 1 0 1.000000
  0 -3.056001 1.900209 9.418396 -0.033383 0.065094 -0.997321 0.574219 0.363281 1 0 1.000000
head_demon
  0 17.426348 -4.662320 3.754186 0.906825 -0.402458 -0.125279 0.714844 0.808594 1 0 1.000000
  0 14.601198 -7.114982 4.939718 0.295960 -0.951045 0.089003 0.707031 0.769531 1 0 1.000000
  0 14.036165 -7.512711 2.568653 0.288102 -0.953186 0.091838 0.753906 0.769531 1 0 1.000000
head_demon
  0 17.426348 -4.662320 3.754186 0.906825 -0.402458 -0.125279 0.714844 0.808594 1 0 1.000000
  0 14.036165 -7.512711 2.568653 0.288102 -0.953186 0.091838 0.753906 0.769531 1 0 1.000000
  0 17.002577 -4.993761 1.778298 0.908121 -0.398700 -0.127887 0.746094 0.808594 1 0 1.000000
head_demon
  0 16.296289 0.640733 1.712436 -0.385791 0.882355 0.269470 0.738281 0.878906 1 0 1.000000
  0 15.166227 -3.866862 0.922081 -0.768073 0.614214 0.181121 0.746094 0.933594 1 0 1.000000
  0 16.296289 -3.336556 4.544541 -0.791240 0.592547 0.151087 0.714844 0.933594 1 0 1.000000
head_demon
  0 16.296289 0.640733 1.712436 -0.385791 0.882355 0.269470 0.738281 0.878906 1 0 1.000000
  0 16.296289 -3.336556 4.544541 -0.791240 0.592547 0.151087 0.714844 0.933594 1 0 1.000000
  0 16.296289 0.640733 2.041750 -0.604649 0.796492 0.000000 0.722656 0.878906 1 0 1.000000
head_demon
  0 16.296289 -3.336556 4.544541 0.143221 0.113456 -0.983166 0.105469 0.285156 1 0 1.000000
  0 14.318682 -4.264591 4.149363 0.143221 0.113456 -0.983166 0.136719 0.285156 1 0 1.000000
  0 13.894911 3.689990 5.005581 0.143221 0.113456 -0.983166 0.121094 0.183594 1 0 1.000000
head_demon
  0 13.894911 3.689990 5.005581 -0.998256 -0.055381 0.020437 0.167969 0.183594 1 0 1.000000
  0 14.318682 -4.264591 4.149363 -0.998256 -0.055381 0.020437 0.152344 0.285156 1 0 1.000000
  0 14.318682 -3.535421 6.125250 -0.998256 -0.055381 0.020437 0.183594 0.285156 1 0 1.000000
head_demon
  0 3.583105 2.297938 9.220807 -0.033387 0.407354 -0.912660 0.519531 0.324219 1 0 1.000000
  0 14.318682 -3.535421 6.125250 0.379301 0.868051 -0.320340 0.449219 0.175781 1 0 1.000000
  0 14.318682 -4.264591 4.149363 0.314497 0.846479 -0.429610 0.472656 0.167969 1 0 1.000000
head_demon
  0 1.322985 6.010075 9.089082 0.086246 -0.865130 -0.494077 0.488281 0.378906 1 0 1.000000
  0 5.701969 5.678634 4.478678 0.113840 -0.977353 0.178387 0.355469 0.417969 1 0 1.000000
  0 5.136940 6.010075 6.718017 0.106874 -0.979298 0.171910 0.386719 0.394531 1 0 1.000000
head_demon
  0 0.899212 -5.126337 7.903549 -0.021922 -0.995663 0.090413 0.707031 0.589844 1 0 1.000000
  0 0.051666 -5.391490 5.664210 0.011184 -0.987785 0.155424 0.753906 0.589844 1 0 1.000000
  0 14.036165 -7.512711 2.568653 0.288102 -0.953186 0.091838 0.753906 0.769531 1 0 1.000000
head_demon
  0 0.899212 -5.126337 7.903549 -0.021922 -0.995663 0.090413 0.707031 0.589844 1 0 1.000000
  0 14.036165 -7.512711 2.568653 0.288102 -0.953186 0.091838 0.753906 0.769531 1 0 1.000000
  0 14.601198 -7.114982 4.939718 0.295960 -0.951045 0.089003 0.707031 0.769531 1 0 1.000000
head_demon
  0 4.148136 7.136974 2.832105 -0.349207 0.904144 -0.246125 0.292969 0.824219 1 0 1.000000
  0 4.571909 7.866144 4.742129 -0.369568 0.914068 -0.167028 0.269531 0.824219 1 0 1.000000
  0 5.560713 9.191908 4.281089 -0.839954 0.540070 0.052927 0.269531 0.855469 1 0 1.000000
head_demon
  0 4.148136 7.136974 2.832105 -0.349207 0.904144 -0.246125 0.292969 0.824219 1 0 1.000000
  0 5.560713 9.191908 4.281089 -0.839954 0.540070 0.052927 0.269531 0.855469 1 0 1.000000
  0 5.278196 9.258196 2.173476 -0.857613 0.497436 0.130604 0.292969 0.855469 1 0 1.000000
head_demon
  0 -8.706304 -5.855507 9.286670 -0.071281 -0.984637 0.159399 0.730469 0.449219 1 0 1.000000
  0 -14.074093 -3.137692 11.921186 -0.340292 -0.908220 0.243596 0.753906 0.363281 1 0 1.000000
  0 -14.780380 -3.667997 8.957355 -0.340292 -0.908220 0.243596 0.707031 0.363281 1 0 1.000000
head_demon
  0 14.318682 -4.264591 4.149363 0.314497 0.846479 -0.429610 0.472656 0.167969 1 0 1.000000
  0 -3.056001 1.900209 9.418396 -0.033383 0.065094 -0.997321 0.574219 0.363281 1 0 1.000000
  0 3.583105 2.297938 9.220807 -0.033387 0.407354 -0.912660 0.519531 0.324219 1 0 1.000000
head_demon
  0 17.426348 -4.662320 3.754186 0.906825 -0.402458 -0.125279 0.714844 0.808594 1 0 1.000000
  0 17.002577 -4.993761 1.778298 0.908121 -0.398700 -0.127887 0.746094 0.808594 1 0 1.000000
  0 16.296289 0.640733 1.712436 -0.385791 0.882355 0.269470 0.738281 0.878906 1 0 1.000000
head_demon
  0 17.426348 -4.662320 3.754186 0.906825 -0.402458 -0.125279 0.714844 0.808594 1 0 1.000000
  0 16.296289 0.640733 1.712436 -0.385791 0.882355 0.269470 0.738281 0.878906 1 0 1.000000
  0 16.296289 0.640733 2.041750 -0.604649 0.796492 0.000000 0.722656 0.878906 1 0 1.000000
head_demon
  0 1.322985 6.010075 9.089082 0.086246 -0.865130 -0.494077 0.488281 0.378906 1 0 1.000000
  0 -4.751092 5.280905 9.286670 0.014393 -0.371457 -0.928338 0.574219 0.410156 1 0 1.000000
  0 5.701969 5.678634 4.478678 0.113840 -0.977353 0.178387 0.355469 0.417969 1 0 1.000000
head_demon
  0 -3.479774 8.462738 12.711541 0.389657 0.206674 0.897471 0.261719 0.363281 1 0 1.000000
  0 1.322985 6.010075 9.089082 0.614759 0.372913 0.694987 0.191406 0.308594 1 0 1.000000
  0 4.571909 7.866144 4.742129 0.273251 0.534938 0.799484 0.074219 0.363281 1 0 1.000000
head_demon
  0 5.136940 6.010075 6.718017 0.518455 0.588451 0.620427 0.089844 0.324219 1 0 1.000000
  0 6.408258 6.275228 5.269032 0.636641 0.435836 0.636189 0.050781 0.316406 1 0 1.000000
  0 4.571909 7.866144 4.742129 0.273251 0.534938 0.799484 0.074219 0.363281 1 0 1.000000
head_demon
  0 -8.847562 -5.258913 13.567760 0.326533 -0.483208 0.812334 0.417969 0.261719 1 0 1.000000
  0 0.899212 -5.126337 7.903549 0.210364 -0.607653 0.765836 0.324219 0.175781 1 0 1.000000
  0 -10.825168 -0.486166 15.411921 0.288868 -0.052765 0.955914 0.410156 0.332031 1 0 1.000000
head_demon
  0 -11.813971 4.087718 13.304308 0.011264 0.340454 0.940194 0.394531 0.363281 1 0 1.000000
  0 -2.773485 3.424837 13.436033 0.345422 0.101020 0.932994 0.300781 0.316406 1 0 1.000000
  0 -3.479774 8.462738 12.711541 0.389657 0.206674 0.897471 0.261719 0.363281 1 0 1.000000
head_demon
  0 14.601198 -7.114982 4.939718 0.398279 -0.282359 0.872724 0.175781 0.058594 1 0 1.000000
  0 14.318682 -3.535421 6.125250 0.498376 -0.104139 0.860684 0.152344 0.097656 1 0 1.000000
  0 4.854424 -2.077081 9.681848 0.310118 -0.229623 0.922551 0.253906 0.191406 1 0 1.000000
head_demon
  0 -4.751092 5.280905 9.286670 0.886669 -0.407304 -0.218911 0.886719 0.527344 1 0 1.000000
  0 -3.056001 1.900209 9.418396 0.627079 0.751577 -0.204706 0.886719 0.480469 1 0 1.000000
  0 -4.327319 1.568768 4.412815 0.614983 0.754558 -0.228993 0.964844 0.480469 1 0 1.000000
head_demon
  0 -4.751092 5.280905 9.286670 0.886669 -0.407304 -0.218911 0.886719 0.527344 1 0 1.000000
  0 -4.327319 1.568768 4.412815 0.614983 0.754558 -0.228993 0.964844 0.480469 1 0 1.000000
  0 -6.304925 4.949464 4.676267 0.881304 -0.388444 -0.269099 0.964844 0.527344 1 0 1.000000
head_demon
  0 -4.751092 5.280905 9.286670 0.014393 -0.371457 -0.928338 0.574219 0.410156 1 0 1.000000
  0 1.322985 6.010075 9.089082 0.086246 -0.865130 -0.494077 0.488281 0.378906 1 0 1.000000
  0 -3.056001 1.900209 9.418396 -0.033383 0.065094 -0.997321 0.574219 0.363281 1 0 1.000000
head_demon
  0 7.397060 6.076363 4.017637 0.922715 -0.382217 -0.050068 0.917969 0.753906 1 0 1.000000
  0 5.701969 5.678634 4.478678 0.183910 -0.972462 0.143157 0.917969 0.722656 1 0 1.000000
  0 5.419455 5.479769 3.490734 0.173368 -0.976759 0.126038 0.933594 0.722656 1 0 1.000000
head_demon
  0 7.397060 6.076363 4.017637 0.922715 -0.382217 -0.050068 0.917969 0.753906 1 0 1.000000
  0 5.419455 5.479769 3.490734 0.173368 -0.976759 0.126038 0.933594 0.722656 1 0 1.000000
  0 7.255802 5.943787 3.029694 0.945797 -0.311008 -0.093496 0.933594 0.753906 1 0 1.000000
head_demon
  0 5.419455 5.479769 3.490734 0.173368 -0.976759 0.126038 0.933594 0.722656 1 0 1.000000
  0 5.701969 5.678634 4.478678 0.183910 -0.972462 0.143157 0.917969 0.722656 1 0 1.000000
  0 -4.751092 5.280905 9.286670 0.886669 -0.407304 -0.218911 0.886719 0.527344 1 0 1.000000
head_demon
  0 5.419455 5.479769 3.490734 0.173368 -0.976759 0.126038 0.933594 0.722656 1 0 1.000000
  0 -4.751092 5.280905 9.286670 0.886669 -0.407304 -0.218911 0.886719 0.527344 1 0 1.000000
  0 -6.304925 4.949464 4.676267 0.881304 -0.388444 -0.269099 0.964844 0.527344 1 0 1.000000
head_demon
  0 -3.056001 1.900209 9.418396 0.627079 0.751577 -0.204706 0.886719 0.480469 1 0 1.000000
  0 14.318682 -4.264591 4.149363 0.329705 0.943927 -0.017194 0.910156 0.230469 1 0 1.000000
  0 14.036165 -4.198302 2.371065 0.322429 0.945888 -0.036538 0.933594 0.230469 1 0 1.000000
head_demon
  0 -3.056001 1.900209 9.418396 0.627079 0.751577 -0.204706 0.886719 0.480469 1 0 1.000000
  0 14.036165 -4.198302 2.371065 0.322429 0.945888 -0.036538 0.933594 0.230469 1 0 1.000000
  0 -4.327319 1.568768 4.412815 0.614983 0.754558 -0.228993 0.964844 0.480469 1 0 1.000000
head_demon
  0 15.166227 -3.866862 0.922081 -0.768073 0.614214 0.181121 0.746094 0.933594 1 0 1.000000
  0 14.036165 -4.198302 2.371065 -0.199373 0.977553 0.068114 0.738281 0.957031 1 0 1.000000
  0 14.318682 -4.264591 4.149363 -0.376547 0.926272 0.015265 0.722656 0.957031 1 0 1.000000
head_demon
  0 15.166227 -3.866862 0.922081 -0.768073 0.614214 0.181121 0.746094 0.933594 1 0 1.000000
  0 14.318682 -4.264591 4.149363 -0.376547 0.926272 0.015265 0.722656 0.957031 1 0 1.000000
  0 16.296289 -3.336556 4.544541 -0.791240 0.592547 0.151087 0.714844 0.933594 1 0 1.000000
head_demon
  0 -8.706304 -5.855507 9.286670 -0.071281 -0.984637 0.159399 0.730469 0.449219 1 0 1.000000
  0 0.051666 -5.391490 5.664210 0.011184 -0.987785 0.155424 0.753906 0.589844 1 0 1.000000
  0 0.899212 -5.126337 7.903549 -0.021922 -0.995663 0.090413 0.707031 0.589844 1 0 1.000000
head_demon
  0 -14.780380 -3.667997 8.957355 -0.950469 0.271485 0.151342 0.308594 0.871094 1 0 1.000000
  0 -14.074093 -3.137692 11.921186 -0.923813 0.293538 0.245775 0.253906 0.871094 1 0 1.000000
  0 -13.791576 0.243004 12.382227 -0.810848 0.059960 0.582177 0.230469 0.910156 1 0 1.000000
head_demon
  0 -14.780380 -3.667997 8.957355 -0.950469 0.271485 0.151342 0.308594 0.871094 1 0 1.000000
  0 -13.791576 0.243004 12.382227 -0.810848 0.059960 0.582177 0.230469 0.910156 1 0 1.000000
  0 -14.921638 -0.950182 7.771823 -0.994963 -0.059559 -0.080633 0.332031 0.910156 1 0 1.000000
head_demon
  0 12.199818 2.828243 0.197589 0.200803 -0.017022 -0.979484 0.097656 0.175781 1 0 1.000000
  0 15.166227 -3.866862 0.922081 0.277495 -0.202940 -0.939048 0.121094 0.082031 1 0 1.000000
  0 12.906107 -3.999438 0.461040 0.050734 -0.342350 -0.938202 0.152344 0.097656 1 0 1.000000
head_demon
  0 16.296289 0.640733 1.712436 0.444853 0.045307 -0.894457 0.074219 0.113281 1 0 1.000000
  0 17.002577 -4.993761 1.778298 0.276803 -0.253236 -0.926958 0.121094 0.058594 1 0 1.000000
  0 15.166227 -3.866862 0.922081 0.277495 -0.202940 -0.939048 0.121094 0.082031 1 0 1.000000
head_demon
  0 17.002577 -4.993761 1.778298 0.276803 -0.253236 -0.926958 0.121094 0.058594 1 0 1.000000
  0 14.036165 -7.512711 2.568653 -0.018656 -0.543556 -0.839166 0.175781 0.058594 1 0 1.000000
  0 15.166227 -3.866862 0.922081 0.277495 -0.202940 -0.939048 0.121094 0.082031 1 0 1.000000
head_demon
  0 15.166227 -3.866862 0.922081 0.277495 -0.202940 -0.939048 0.121094 0.082031 1 0 1.000000
  0 14.036165 -7.512711 2.568653 -0.018656 -0.543556 -0.839166 0.175781 0.058594 1 0 1.000000
  0 12.906107 -3.999438 0.461040 0.050734 -0.342350 -0.938202 0.152344 0.097656 1 0 1.000000
head_demon
  0 12.906107 -3.999438 0.461040 0.050734 -0.342350 -0.938202 0.152344 0.097656 1 0 1.000000
  0 2.876818 -2.938828 1.646573 -0.150810 -0.485866 -0.860924 0.253906 0.191406 1 0 1.000000
  0 1.746758 1.369903 1.185532 0.036539 -0.046362 -0.998256 0.222656 0.246094 1 0 1.000000
head_demon
  0 14.036165 -7.512711 2.568653 -0.018656 -0.543556 -0.839166 0.175781 0.058594 1 0 1.000000
  0 0.051666 -5.391490 5.664210 -0.140436 -0.756268 -0.639012 0.316406 0.175781 1 0 1.000000
  0 2.876818 -2.938828 1.646573 -0.150810 -0.485866 -0.860924 0.253906 0.191406 1 0 1.000000
head_demon
  0 3.724363 5.347193 2.173476 0.062632 0.236598 -0.969587 0.089844 0.324219 1 0 1.000000
  0 5.701969 5.811210 2.305202 0.160787 0.084299 -0.983383 0.050781 0.316406 1 0 1.000000
  0 5.843227 1.502480 2.305202 0.065956 0.002162 -0.997820 0.058594 0.253906 1 0 1.000000
head_demon
  0 5.701969 5.811210 2.305202 -0.770014 -0.542844 -0.335259 0.480469 0.128906 1 0 1.000000
  0 7.679575 2.761955 2.700379 -0.770014 -0.542844 -0.335259 0.496094 0.066406 1 0 1.000000
  0 5.419455 5.479769 3.490734 -0.770014 -0.542844 -0.335259 0.511719 0.128906 1 0 1.000000
head_demon
  0 5.701969 5.811210 2.305202 0.160787 0.084299 -0.983383 0.050781 0.316406 1 0 1.000000
  0 7.255802 5.943787 3.029694 0.414019 0.094856 -0.905312 0.027344 0.324219 1 0 1.000000
  0 7.679575 2.761955 2.700379 0.407589 0.147554 -0.901165 0.035156 0.261719 1 0 1.000000
head_demon
  0 7.255802 5.943787 3.029694 0.258483 -0.065326 0.963804 0.464844 0.128906 1 0 1.000000
  0 5.419455 5.479769 3.490734 0.258483 -0.065326 0.963804 0.433594 0.128906 1 0 1.000000
  0 7.679575 2.761955 2.700379 0.258483 -0.065326 0.963804 0.449219 0.066406 1 0 1.000000
head_demon
  0 5.419455 5.479769 3.490734 0.970227 0.031808 0.240100 0.339844 0.128906 1 0 1.000000
  0 5.843227 1.502480 2.305202 0.970227 0.031808 0.240100 0.355469 0.058594 1 0 1.000000
  0 5.701969 5.811210 2.305202 0.970227 0.031808 0.240100 0.371094 0.128906 1 0 1.000000
head_demon
  0 5.843227 1.502480 2.305202 -0.573095 -0.289573 0.766622 0.402344 0.058594 1 0 1.000000
  0 5.419455 5.479769 3.490734 -0.573095 -0.289573 0.766622 0.417969 0.128906 1 0 1.000000
  0 3.724363 5.347193 2.173476 -0.573095 -0.289573 0.766622 0.386719 0.128906 1 0 1.000000
head_demon
  0 7.255802 5.943787 3.029694 0.414019 0.094856 -0.905312 0.027344 0.324219 1 0 1.000000
  0 5.701969 5.811210 2.305202 0.160787 0.084299 -0.983383 0.050781 0.316406 1 0 1.000000
  0 5.278196 9.258196 2.173476 -0.057076 -0.045131 -0.997349 0.050781 0.378906 1 0 1.000000
head_demon
  0 -10.542652 -5.855507 5.466621 -0.014955 -0.612456 -0.790363 0.417969 0.261719 1 0 1.000000
  0 0.051666 -5.391490 5.664210 -0.140436 -0.756268 -0.639012 0.316406 0.175781 1 0 1.000000
  0 -10.825168 -7.578999 7.969412 -0.044154 -0.820469 -0.569983 0.441406 0.230469 1 0 1.000000
head_demon
  0 -10.542652 -5.855507 5.466621 -0.014955 -0.612456 -0.790363 0.417969 0.261719 1 0 1.000000
  0 -10.825168 -7.578999 7.969412 -0.044154 -0.820469 -0.569983 0.441406 0.230469 1 0 1.000000
  0 -18.453077 -4.065726 4.873855 -0.049820 -0.505482 -0.861398 0.464844 0.347656 1 0 1.000000
head_demon
  0 -18.453077 -4.065726 4.873855 -0.049820 -0.505482 -0.861398 0.464844 0.347656 1 0 1.000000
  0 -13.932835 -1.944505 4.149363 -0.124634 -0.334458 -0.934133 0.410156 0.332031 1 0 1.000000
  0 -10.542652 -5.855507 5.466621 -0.014955 -0.612456 -0.790363 0.417969 0.261719 1 0 1.000000
head_demon
  0 0.051666 -5.391490 5.664210 -0.140436 -0.756268 -0.639012 0.316406 0.175781 1 0 1.000000
  0 -13.932835 -1.944505 4.149363 -0.124634 -0.334458 -0.934133 0.410156 0.332031 1 0 1.000000
  0 2.876818 -2.938828 1.646573 -0.150810 -0.485866 -0.860924 0.253906 0.191406 1 0 1.000000
head_demon
  0 -14.074093 3.756278 3.424871 -0.369211 -0.121733 -0.921338 0.394531 0.363281 1 0 1.000000
  0 -6.022409 1.767632 0.461040 -0.112562 -0.212194 -0.970723 0.292969 0.316406 1 0 1.000000
  0 -13.932835 -1.944505 4.149363 -0.124634 -0.334458 -0.934133 0.410156 0.332031 1 0 1.000000
head_demon
  0 -1.502167 4.750599 1.383121 0.178713 0.084581 -0.980259 0.191406 0.308594 1 0 1.000000
  0 4.148136 7.136974 2.832105 -0.129897 0.139274 -0.981697 0.074219 0.363281 1 0 1.000000
  0 3.724363 5.347193 2.173476 0.062632 0.236598 -0.969587 0.089844 0.324219 1 0 1.000000
head_demon
  0 -6.869955 6.739245 0.197589 -0.135679 0.776468 -0.615377 0.378906 0.660156 1 0 1.000000
  0 -3.903546 7.998720 2.897968 0.074927 0.936025 -0.343866 0.285156 0.707031 1 0 1.000000
  0 4.148136 7.136974 2.832105 -0.349207 0.904144 -0.246125 0.292969 0.824219 1 0 1.000000
head_demon
  0 -6.022409 1.767632 0.461040 -0.112562 -0.212194 -0.970723 0.292969 0.316406 1 0 1.000000
  0 2.876818 -2.938828 1.646573 -0.150810 -0.485866 -0.860924 0.253906 0.191406 1 0 1.000000
  0 -13.932835 -1.944505 4.149363 -0.124634 -0.334458 -0.934133 0.410156 0.332031 1 0 1.000000
head_demon
  0 2.876818 -2.938828 1.646573 -0.150810 -0.485866 -0.860924 0.253906 0.191406 1 0 1.000000
  0 -6.022409 1.767632 0.461040 -0.112562 -0.212194 -0.970723 0.292969 0.316406 1 0 1.000000
  0 1.746758 1.369903 1.185532 0.036539 -0.046362 -0.998256 0.222656 0.246094 1 0 1.000000
head_demon
  0 5.701969 5.811210 2.305202 0.160787 0.084299 -0.983383 0.050781 0.316406 1 0 1.000000
  0 4.148136 7.136974 2.832105 -0.129897 0.139274 -0.981697 0.074219 0.363281 1 0 1.000000
  0 5.278196 9.258196 2.173476 -0.057076 -0.045131 -0.997349 0.050781 0.378906 1 0 1.000000
head_demon
  0 -10.825168 -7.578999 7.969412 -0.151131 -0.609381 0.778341 0.769531 0.433594 1 0 1.000000
  0 -14.780380 -3.667997 8.957355 -0.466918 -0.629166 0.621400 0.753906 0.363281 1 0 1.000000
  0 -18.453077 -4.065726 4.873855 -0.522786 -0.663802 0.534847 0.816406 0.332031 1 0 1.000000
head_demon
  0 -14.921638 -0.950182 7.771823 -0.994963 -0.059559 -0.080633 0.332031 0.910156 1 0 1.000000
  0 -13.932835 -1.944505 4.149363 -0.939989 0.331823 -0.079461 0.417969 0.871094 1 0 1.000000
  0 -14.780380 -3.667997 8.957355 -0.950469 0.271485 0.151342 0.308594 0.871094 1 0 1.000000
head_demon
  0 -13.932835 -1.944505 4.149363 -0.939989 0.331823 -0.079461 0.417969 0.871094 1 0 1.000000
  0 -18.453077 -4.065726 4.873855 -0.377526 0.890829 0.252780 0.363281 0.808594 1 0 1.000000
  0 -14.780380 -3.667997 8.957355 -0.950469 0.271485 0.151342 0.308594 0.871094 1 0 1.000000
head_demon
  0 -14.074093 3.756278 3.424871 -0.966985 -0.055567 -0.248700 0.441406 0.910156 1 0 1.000000
  0 -13.932835 -1.944505 4.149363 -0.939989 0.331823 -0.079461 0.417969 0.871094 1 0 1.000000
  0 -14.921638 -0.950182 7.771823 -0.994963 -0.059559 -0.080633 0.332031 0.910156 1 0 1.000000
head_demon
  0 -10.825168 -7.578999 7.969412 -0.151131 -0.609381 0.778341 0.769531 0.433594 1 0 1.000000
  0 0.051666 -5.391490 5.664210 0.011184 -0.987785 0.155424 0.753906 0.589844 1 0 1.000000
  0 -8.706304 -5.855507 9.286670 -0.071281 -0.984637 0.159399 0.730469 0.449219 1 0 1.000000
head_demon
  0 -14.780380 -3.667997 8.957355 -0.466918 -0.629166 0.621400 0.753906 0.363281 1 0 1.000000
  0 -10.825168 -7.578999 7.969412 -0.151131 -0.609381 0.778341 0.769531 0.433594 1 0 1.000000
  0 -8.706304 -5.855507 9.286670 -0.071281 -0.984637 0.159399 0.730469 0.449219 1 0 1.000000
head_demon
  0 -6.022409 1.767632 0.461040 -0.112562 -0.212194 -0.970723 0.292969 0.316406 1 0 1.000000
  0 -6.869955 6.739245 0.197589 -0.070094 -0.056666 -0.995930 0.261719 0.363281 1 0 1.000000
  0 -1.502167 4.750599 1.383121 0.178713 0.084581 -0.980259 0.191406 0.308594 1 0 1.000000
head_demon
  0 -1.502167 4.750599 1.383121 0.178713 0.084581 -0.980259 0.191406 0.308594 1 0 1.000000
  0 1.746758 1.369903 1.185532 0.036539 -0.046362 -0.998256 0.222656 0.246094 1 0 1.000000
  0 -6.022409 1.767632 0.461040 -0.112562 -0.212194 -0.970723 0.292969 0.316406 1 0 1.000000
head_demon
  0 -6.869955 6.739245 0.197589 -0.135679 0.776468 -0.615377 0.378906 0.660156 1 0 1.000000
  0 -14.074093 3.756278 3.424871 -0.519476 0.526185 -0.673256 0.402344 0.527344 1 0 1.000000
  0 -8.282532 8.462738 2.634516 -0.279150 0.700251 -0.657057 0.355469 0.644531 1 0 1.000000
head_demon
  0 -3.903546 7.998720 2.897968 0.074927 0.936025 -0.343866 0.285156 0.707031 1 0 1.000000
  0 -6.869955 6.739245 0.197589 -0.135679 0.776468 -0.615377 0.378906 0.660156 1 0 1.000000
  0 -8.282532 8.462738 2.634516 -0.279150 0.700251 -0.657057 0.355469 0.644531 1 0 1.000000
head_demon
  0 -14.074093 3.756278 3.424871 -0.782866 0.609833 0.123389 0.824219 0.191406 1 0 1.000000
  0 -14.921638 -0.950182 7.771823 -0.912427 0.369386 0.176158 0.777344 0.074219 1 0 1.000000
  0 -11.813971 4.087718 13.304308 -0.818651 0.554352 0.150012 0.621094 0.128906 1 0 1.000000
head_demon
  0 -14.074093 3.756278 3.424871 -0.782866 0.609833 0.123389 0.824219 0.191406 1 0 1.000000
  0 -8.000016 8.529026 10.077025 -0.673749 0.733598 0.088862 0.660156 0.253906 1 0 1.000000
  0 -8.282532 8.462738 2.634516 -0.629173 0.777080 0.016962 0.777344 0.277344 1 0 1.000000
head_demon
  0 -8.000016 8.529026 10.077025 0.106133 0.994268 -0.012884 0.902344 0.222656 1 0 1.000000
  0 -3.903546 7.998720 2.897968 0.106133 0.994269 -0.012884 0.933594 0.308594 1 0 1.000000
  0 -8.282532 8.462738 2.634516 0.106133 0.994269 -0.012884 0.964844 0.253906 1 0 1.000000
head_demon
  0 -1.502167 4.750599 1.383121 0.419751 -0.541437 0.728460 0.488281 0.378906 1 0 1.000000
  0 -4.327319 1.568768 4.412815 0.491186 0.402762 0.772346 0.574219 0.363281 1 0 1.000000
  0 1.746758 1.369903 1.185532 0.359751 0.720256 0.593136 0.519531 0.324219 1 0 1.000000
head_demon
  0 15.166227 -3.866862 0.922081 0.688585 0.372424 0.622215 0.105469 0.285156 1 0 1.000000
  0 12.199818 2.828243 0.197589 0.688585 0.372424 0.622215 0.121094 0.183594 1 0 1.000000
  0 14.036165 -4.198302 2.371065 0.688585 0.372424 0.622215 0.136719 0.285156 1 0 1.000000
head_demon
  0 12.199818 2.828243 0.197589 -0.861718 -0.069748 0.502570 0.167969 0.183594 1 0 1.000000
  0 12.906107 -3.999438 0.461040 -0.861718 -0.069748 0.502570 0.183594 0.285156 1 0 1.000000
  0 14.036165 -4.198302 2.371065 -0.861718 -0.069748 0.502570 0.152344 0.285156 1 0 1.000000
head_demon
  0 1.746758 1.369903 1.185532 0.359751 0.720256 0.593136 0.519531 0.324219 1 0 1.000000
  0 14.036165 -4.198302 2.371065 0.414589 0.909659 -0.025211 0.472656 0.167969 1 0 1.000000
  0 12.906107 -3.999438 0.461040 0.420090 0.894068 -0.155458 0.449219 0.175781 1 0 1.000000
head_demon
  0 -1.502167 4.750599 1.383121 0.419751 -0.541437 0.728460 0.488281 0.378906 1 0 1.000000
  0 3.724363 5.347193 2.173476 0.121716 -0.990933 -0.056895 0.386719 0.394531 1 0 1.000000
  0 5.419455 5.479769 3.490734 0.089743 -0.994738 0.049423 0.355469 0.417969 1 0 1.000000
head_demon
  0 14.036165 -4.198302 2.371065 0.414589 0.909659 -0.025211 0.472656 0.167969 1 0 1.000000
  0 1.746758 1.369903 1.185532 0.359751 0.720256 0.593136 0.519531 0.324219 1 0 1.000000
  0 -4.327319 1.568768 4.412815 0.491186 0.402762 0.772346 0.574219 0.363281 1 0 1.000000
head_demon
  0 -1.502167 4.750599 1.383121 0.419751 -0.541437 0.728460 0.488281 0.378906 1 0 1.000000
  0 5.419455 5.479769 3.490734 0.089743 -0.994738 0.049423 0.355469 0.417969 1 0 1.000000
  0 -6.304925 4.949464 4.676267 0.549127 -0.195146 0.812636 0.574219 0.410156 1 0 1.000000
head_demon
  0 -6.869955 6.739245 0.197589 -0.070094 -0.056666 -0.995930 0.261719 0.363281 1 0 1.000000
  0 4.148136 7.136974 2.832105 -0.129897 0.139274 -0.981697 0.074219 0.363281 1 0 1.000000
  0 -1.502167 4.750599 1.383121 0.178713 0.084581 -0.980259 0.191406 0.308594 1 0 1.000000
head_demon
  0 3.724363 5.347193 2.173476 0.062632 0.236598 -0.969587 0.089844 0.324219 1 0 1.000000
  0 4.148136 7.136974 2.832105 -0.129897 0.139274 -0.981697 0.074219 0.363281 1 0 1.000000
  0 5.701969 5.811210 2.305202 0.160787 0.084299 -0.983383 0.050781 0.316406 1 0 1.000000
head_demon
  0 -10.542652 -5.855507 5.466621 -0.014955 -0.612456 -0.790363 0.417969 0.261719 1 0 1.000000
  0 -13.932835 -1.944505 4.149363 -0.124634 -0.334458 -0.934133 0.410156 0.332031 1 0 1.000000
  0 0.051666 -5.391490 5.664210 -0.140436 -0.756268 -0.639012 0.316406 0.175781 1 0 1.000000
head_demon
  0 -14.074093 3.756278 3.424871 -0.369211 -0.121733 -0.921338 0.394531 0.363281 1 0 1.000000
  0 -6.869955 6.739245 0.197589 -0.070094 -0.056666 -0.995930 0.261719 0.363281 1 0 1.000000
  0 -6.022409 1.767632 0.461040 -0.112562 -0.212194 -0.970723 0.292969 0.316406 1 0 1.000000
head_demon
  0 14.036165 -7.512711 2.568653 -0.018656 -0.543556 -0.839166 0.175781 0.058594 1 0 1.000000
  0 2.876818 -2.938828 1.646573 -0.150810 -0.485866 -0.860924 0.253906 0.191406 1 0 1.000000
  0 12.906107 -3.999438 0.461040 0.050734 -0.342350 -0.938202 0.152344 0.097656 1 0 1.000000
head_demon
  0 -14.074093 3.756278 3.424871 -0.782866 0.609833 0.123389 0.824219 0.191406 1 0 1.000000
  0 -11.813971 4.087718 13.304308 -0.818651 0.554352 0.150012 0.621094 0.128906 1 0 1.000000
  0 -8.000016 8.529026 10.077025 -0.673749 0.733598 0.088862 0.660156 0.253906 1 0 1.000000
head_demon
  0 -13.791576 0.243004 12.382227 -0.894358 0.434420 0.106788 0.683594 0.058594 1 0 1.000000
  0 -11.813971 4.087718 13.304308 -0.818651 0.554352 0.150012 0.621094 0.128906 1 0 1.000000
  0 -14.921638 -0.950182 7.771823 -0.912427 0.369386 0.176158 0.777344 0.074219 1 0 1.000000
head_demon
  0 -6.304925 4.949464 4.676267 0.549127 -0.195146 0.812636 0.574219 0.410156 1 0 1.000000
  0 -4.327319 1.568768 4.412815 0.491186 0.402762 0.772346 0.574219 0.363281 1 0 1.000000
  0 -1.502167 4.750599 1.383121 0.419751 -0.541437 0.728460 0.488281 0.378906 1 0 1.000000
end
