version 1
nodes
0 "root" -1
end
skeleton
  time 0
  0 0.000000 0.000000 0.000000 0.000000 0.000000 0.000000
end
triangles
head_dog
  0 -8.423126 -0.317762 2.513417 -0.777907 0.537655 -0.325250 0.128906 0.222656 1 0 1.000000
  0 -6.739048 3.512609 4.817383 -0.579859 0.814186 0.029409 0.222656 0.238281 1 0 1.000000
  0 -3.791911 3.512609 1.832700 -0.142872 0.954991 -0.259960 0.207031 0.316406 1 0 1.000000
head_dog
  0 -8.423126 -0.317762 2.513417 -0.845643 -0.273586 -0.458299 0.667969 0.667969 1 0 1.000000
  0 -3.791911 3.512609 1.832700 -0.239743 0.787706 -0.567488 0.558594 0.628906 1 0 1.000000
  0 -7.581087 1.114464 0.104726 -0.557345 0.826929 0.074527 0.511719 0.730469 1 0 1.000000
head_dog
  0 3.225080 2.613305 0.104726 0.289969 0.607405 -0.739579 0.363281 0.394531 1 0 1.000000
  0 2.944401 -1.183759 0.314177 0.154226 -0.016894 -0.987891 0.347656 0.472656 1 0 1.000000
  0 -1.125454 -0.584223 0.261814 -0.064923 0.039348 -0.997114 0.253906 0.457031 1 0 1.000000
head_dog
  0 4.067120 1.747308 11.310377 0.646945 -0.235308 -0.725322 0.707031 0.253906 1 0 1.000000
  0 4.488139 2.047076 11.415103 0.538469 -0.526397 -0.657995 0.722656 0.253906 1 0 1.000000
  0 4.909159 1.747308 12.148184 0.692316 -0.223600 -0.686077 0.691406 0.238281 1 0 1.000000
head_dog
  0 -2.599022 3.212841 8.901686 -0.149936 0.882920 0.444940 0.347656 0.238281 1 0 1.000000
  0 0.137605 3.779070 6.754809 -0.038574 0.983621 0.176075 0.363281 0.285156 1 0 1.000000
  0 -3.791911 3.512609 1.832700 -0.142872 0.954991 -0.259960 0.207031 0.316406 1 0 1.000000
head_dog
  0 -2.599022 3.212841 8.901686 -0.149936 0.882920 0.444940 0.347656 0.238281 1 0 1.000000
  0 -6.739048 3.512609 4.817383 -0.579859 0.814186 0.029409 0.222656 0.238281 1 0 1.000000
  0 -4.774290 2.047076 8.954049 -0.556034 0.581872 0.593507 0.316406 0.191406 1 0 1.000000
head_dog
  0 0.137605 3.779070 6.754809 -0.038574 0.983621 0.176075 0.363281 0.285156 1 0 1.000000
  0 1.611173 3.779070 3.194134 0.171422 0.970910 -0.167175 0.347656 0.347656 1 0 1.000000
  0 -3.791911 3.512609 1.832700 -0.142872 0.954991 -0.259960 0.207031 0.316406 1 0 1.000000
head_dog
  0 2.663721 2.346844 9.687129 -0.048327 0.949954 0.308629 0.464844 0.253906 1 0 1.000000
  0 1.400662 2.613305 9.163501 0.040143 0.929890 0.365640 0.433594 0.269531 1 0 1.000000
  0 -0.423755 1.447539 11.572192 -0.199108 0.678786 0.706828 0.433594 0.207031 1 0 1.000000
head_dog
  0 5.330178 1.747308 2.199240 0.316558 0.946778 -0.058333 0.433594 0.378906 1 0 1.000000
  0 6.031878 1.447539 1.309072 0.453757 0.648567 -0.611118 0.449219 0.410156 1 0 1.000000
  0 2.874231 2.613305 3.455949 0.492026 0.865897 0.090181 0.394531 0.363281 1 0 1.000000
head_dog
  0 6.031878 1.447539 1.309072 0.453757 0.648567 -0.611118 0.449219 0.410156 1 0 1.000000
  0 6.593237 -1.483528 1.047257 0.313802 0.117639 -0.942173 0.464844 0.472656 1 0 1.000000
  0 2.944401 -1.183759 0.314177 0.154226 -0.016894 -0.987891 0.347656 0.472656 1 0 1.000000
head_dog
  0 -4.844460 -0.017994 10.367846 -0.550573 0.466739 0.692116 0.332031 0.128906 1 0 1.000000
  0 -0.353585 -0.017994 12.252909 -0.330725 0.384483 0.861855 0.449219 0.175781 1 0 1.000000
  0 -0.423755 1.447539 11.572192 -0.199108 0.678786 0.706828 0.433594 0.207031 1 0 1.000000
head_dog
  0 -8.773975 -0.317762 4.607932 -0.876939 0.456395 0.150603 0.175781 0.175781 1 0 1.000000
  0 -4.774290 2.047076 8.954049 -0.556034 0.581872 0.593507 0.316406 0.191406 1 0 1.000000
  0 -6.739048 3.512609 4.817383 -0.579859 0.814186 0.029409 0.222656 0.238281 1 0 1.000000
head_dog
  0 -4.774290 2.047076 8.954049 -0.556034 0.581872 0.593507 0.316406 0.191406 1 0 1.000000
  0 -8.773975 -0.317762 4.607932 -0.876939 0.456395 0.150603 0.175781 0.175781 1 0 1.000000
  0 -4.844460 -0.017994 10.367846 -0.550573 0.466739 0.692116 0.332031 0.128906 1 0 1.000000
head_dog
  0 -0.423755 1.447539 11.572192 -0.199108 0.678786 0.706828 0.433594 0.207031 1 0 1.000000
  0 -2.599022 3.212841 8.901686 -0.149936 0.882920 0.444940 0.347656 0.238281 1 0 1.000000
  0 -4.774290 2.047076 8.954049 -0.556034 0.581872 0.593507 0.316406 0.191406 1 0 1.000000
head_dog
  0 8.487825 -0.017994 3.037046 -0.213354 0.226291 0.950406 0.691406 0.628906 1 0 1.000000
  0 7.575615 0.881310 2.618143 -0.010932 0.331111 0.943529 0.707031 0.597656 1 0 1.000000
  0 8.417654 -1.183759 3.298860 -0.094608 0.243138 0.965367 0.667969 0.628906 1 0 1.000000
head_dog
  0 9.119354 -0.584223 2.251603 0.951275 0.174485 -0.254225 0.511719 0.441406 1 0 1.000000
  0 8.838675 -1.483528 2.199240 0.857687 -0.241252 -0.454061 0.511719 0.457031 1 0 1.000000
  0 6.593237 -1.483528 1.047257 0.313802 0.117639 -0.942173 0.464844 0.472656 1 0 1.000000
head_dog
  0 7.575615 0.881310 2.618143 0.581983 0.767095 -0.269930 0.496094 0.410156 1 0 1.000000
  0 8.487825 -0.017994 3.037046 0.806925 0.525257 0.270142 0.511719 0.425781 1 0 1.000000
  0 9.119354 -0.584223 2.251603 0.951275 0.174485 -0.254225 0.511719 0.441406 1 0 1.000000
head_dog
  0 2.733891 -0.017994 13.352530 -0.138154 0.306222 0.941882 0.511719 0.175781 1 0 1.000000
  0 2.804061 0.881310 13.090714 -0.051267 0.551664 0.832489 0.511719 0.207031 1 0 1.000000
  0 -0.423755 1.447539 11.572192 -0.199108 0.678786 0.706828 0.433594 0.207031 1 0 1.000000
head_dog
  0 4.909159 1.747308 12.148184 -0.048460 0.822473 0.566736 0.542969 0.238281 1 0 1.000000
  0 3.505760 2.346844 10.734386 -0.335875 0.846344 0.413389 0.496094 0.253906 1 0 1.000000
  0 2.804061 0.881310 13.090714 -0.051267 0.551664 0.832489 0.511719 0.207031 1 0 1.000000
head_dog
  0 8.417654 -1.183759 3.298860 0.849670 -0.085563 0.520327 0.527344 0.441406 1 0 1.000000
  0 8.838675 -1.483528 2.199240 0.857687 -0.241252 -0.454061 0.511719 0.457031 1 0 1.000000
  0 9.119354 -0.584223 2.251603 0.951275 0.174485 -0.254225 0.511719 0.441406 1 0 1.000000
head_dog
  0 2.874231 2.613305 3.455949 0.492026 0.865897 0.090181 0.394531 0.363281 1 0 1.000000
  0 3.154911 2.346844 4.346117 0.394957 0.906874 0.146927 0.433594 0.347656 1 0 1.000000
  0 5.330178 1.747308 2.199240 0.316558 0.946778 -0.058333 0.433594 0.378906 1 0 1.000000
head_dog
  0 7.575615 -0.317762 2.618143 -0.509885 -0.602216 0.614291 0.324219 0.675781 1 0 1.000000
  0 7.856295 -0.017994 2.722869 0.463399 -0.346456 0.815616 0.292969 0.722656 1 0 1.000000
  0 7.435276 0.281774 3.089409 -0.619609 0.289005 0.729767 0.324219 0.722656 1 0 1.000000
head_dog
  0 7.575615 -0.317762 2.618143 -0.509885 -0.602216 0.614291 0.324219 0.675781 1 0 1.000000
  0 7.435276 0.281774 3.089409 -0.619609 0.289005 0.729767 0.324219 0.722656 1 0 1.000000
  0 7.856295 0.581542 2.722869 0.015433 0.765237 0.643564 0.355469 0.722656 1 0 1.000000
head_dog
  0 7.856295 0.581542 2.722869 0.015433 0.765237 0.643564 0.355469 0.722656 1 0 1.000000
  0 7.435276 0.281774 3.089409 -0.619609 0.289005 0.729767 0.324219 0.722656 1 0 1.000000
  0 7.856295 -0.017994 2.722869 0.463399 -0.346456 0.815616 0.292969 0.722656 1 0 1.000000
head_dog
  0 3.996950 1.147771 11.781643 0.293701 0.952415 -0.081523 0.402344 0.644531 1 0 1.000000
  0 4.137290 0.581542 12.409998 0.723069 -0.683118 0.102572 0.339844 0.566406 1 0 1.000000
  0 4.628479 0.881310 10.943837 0.652146 0.056271 -0.756002 0.339844 0.613281 1 0 1.000000
head_dog
  0 3.996950 1.147771 11.781643 0.293701 0.952415 -0.081523 0.402344 0.644531 1 0 1.000000
  0 4.628479 0.881310 10.943837 0.652146 0.056271 -0.756002 0.339844 0.613281 1 0 1.000000
  0 3.295251 0.581542 11.519829 -0.154319 -0.683863 -0.713104 0.277344 0.644531 1 0 1.000000
head_dog
  0 3.295251 0.581542 11.519829 -0.154319 -0.683863 -0.713104 0.277344 0.644531 1 0 1.000000
  0 4.628479 0.881310 10.943837 0.652146 0.056271 -0.756002 0.339844 0.613281 1 0 1.000000
  0 4.137290 0.581542 12.409998 0.723069 -0.683118 0.102572 0.339844 0.566406 1 0 1.000000
head_dog
  0 4.909159 1.747308 12.148184 -0.048460 0.822473 0.566736 0.542969 0.238281 1 0 1.000000
  0 4.488139 2.047076 11.415103 0.033732 0.931716 0.361619 0.542969 0.253906 1 0 1.000000
  0 3.505760 2.346844 10.734386 -0.335875 0.846344 0.413389 0.496094 0.253906 1 0 1.000000
head_dog
  0 7.575615 -0.317762 2.618143 0.348866 0.898290 -0.267146 0.621094 0.871094 1 0 1.000000
  0 7.084426 -0.017994 2.984683 0.358298 0.529392 0.769004 0.589844 0.839844 1 0 1.000000
  0 7.856295 -0.317762 2.984683 0.235897 0.607408 0.758557 0.589844 0.871094 1 0 1.000000
head_dog
  0 7.505445 -1.183759 3.089409 0.421533 0.255877 0.869964 0.511719 0.871094 1 0 1.000000
  0 7.084426 -0.017994 2.984683 0.358298 0.529392 0.769004 0.589844 0.839844 1 0 1.000000
  0 6.944086 -1.783296 3.665400 0.499474 -0.033901 0.865665 0.449219 0.839844 1 0 1.000000
head_dog
  0 2.312872 2.346844 8.901686 0.249090 0.962068 -0.111266 0.449219 0.285156 1 0 1.000000
  0 1.400662 2.613305 9.163501 0.040143 0.929890 0.365640 0.433594 0.269531 1 0 1.000000
  0 2.663721 2.346844 9.687129 -0.048327 0.949954 0.308629 0.464844 0.253906 1 0 1.000000
head_dog
  0 2.804061 0.881310 13.090714 -0.051267 0.551664 0.832489 0.511719 0.207031 1 0 1.000000
  0 2.733891 -0.017994 13.352530 -0.138154 0.306222 0.941882 0.511719 0.175781 1 0 1.000000
  0 4.909159 1.747308 12.148184 -0.048460 0.822473 0.566736 0.542969 0.238281 1 0 1.000000
head_dog
  0 4.488139 2.047076 11.415103 0.538469 -0.526397 -0.657995 0.722656 0.253906 1 0 1.000000
  0 4.067120 1.747308 11.310377 0.646945 -0.235308 -0.725322 0.707031 0.253906 1 0 1.000000
  0 3.505760 2.346844 10.734386 0.743971 0.056965 -0.665779 0.722656 0.269531 1 0 1.000000
head_dog
  0 2.312872 2.346844 8.901686 0.546859 -0.244142 -0.800837 0.722656 0.316406 1 0 1.000000
  0 2.663721 2.346844 9.687129 0.800487 -0.134691 -0.584020 0.707031 0.300781 1 0 1.000000
  0 2.102362 2.047076 8.849323 0.219574 -0.067730 -0.973242 0.707031 0.316406 1 0 1.000000
head_dog
  0 2.102362 2.047076 8.849323 0.219574 -0.067730 -0.973242 0.707031 0.316406 1 0 1.000000
  0 1.400662 2.613305 9.163501 0.531429 0.037256 -0.846283 0.722656 0.347656 1 0 1.000000
  0 2.312872 2.346844 8.901686 0.546859 -0.244142 -0.800837 0.722656 0.316406 1 0 1.000000
head_dog
  0 4.067120 1.747308 11.310377 0.646945 -0.235308 -0.725322 0.707031 0.253906 1 0 1.000000
  0 2.663721 2.346844 9.687129 0.800487 -0.134691 -0.584020 0.707031 0.300781 1 0 1.000000
  0 3.505760 2.346844 10.734386 0.743971 0.056965 -0.665779 0.722656 0.269531 1 0 1.000000
head_dog
  0 1.681342 -2.649293 9.530041 0.459631 -0.196509 -0.866096 0.605469 0.347656 1 0 1.000000
  0 1.400662 2.613305 9.163501 0.531429 0.037256 -0.846283 0.722656 0.347656 1 0 1.000000
  0 1.751513 -2.049756 9.268226 -0.252043 -0.022272 -0.967460 0.621094 0.316406 1 0 1.000000
head_dog
  0 4.067120 1.747308 11.310377 0.646945 -0.235308 -0.725322 0.707031 0.253906 1 0 1.000000
  0 3.996950 -1.483528 11.781643 0.635228 0.162700 -0.754993 0.621094 0.253906 1 0 1.000000
  0 2.663721 2.346844 9.687129 0.800487 -0.134691 -0.584020 0.707031 0.300781 1 0 1.000000
head_dog
  0 3.154911 2.346844 4.346117 -0.514904 -0.838183 0.179788 0.738281 0.519531 1 0 1.000000
  0 3.856610 1.747308 3.560674 0.417346 -0.080705 0.905157 0.722656 0.519531 1 0 1.000000
  0 5.330178 1.747308 2.199240 0.336259 0.266846 0.903174 0.707031 0.550781 1 0 1.000000
head_dog
  0 2.874231 2.613305 3.455949 -0.263630 -0.117395 0.957454 0.738281 0.488281 1 0 1.000000
  0 3.856610 1.747308 3.560674 0.417346 -0.080705 0.905157 0.722656 0.519531 1 0 1.000000
  0 3.154911 2.346844 4.346117 -0.514904 -0.838183 0.179788 0.738281 0.519531 1 0 1.000000
head_dog
  0 4.628479 -3.248829 4.398480 0.134461 0.448332 0.883696 0.621094 0.550781 1 0 1.000000
  0 7.575615 0.881310 2.618143 -0.010932 0.331111 0.943529 0.707031 0.597656 1 0 1.000000
  0 5.330178 1.747308 2.199240 0.336259 0.266846 0.903174 0.707031 0.550781 1 0 1.000000
head_dog
  0 -8.423126 -0.317762 2.513417 -0.777907 0.537655 -0.325250 0.128906 0.222656 1 0 1.000000
  0 -8.773975 -0.317762 4.607932 -0.876939 0.456395 0.150603 0.175781 0.175781 1 0 1.000000
  0 -6.739048 3.512609 4.817383 -0.579859 0.814186 0.029409 0.222656 0.238281 1 0 1.000000
head_dog
  0 -3.791911 3.512609 1.832700 -0.239743 0.787706 -0.567488 0.558594 0.628906 1 0 1.000000
  0 -1.967494 2.613305 0.680717 -0.002336 0.366324 -0.930484 0.511719 0.597656 1 0 1.000000
  0 -7.581087 1.114464 0.104726 -0.557345 0.826929 0.074527 0.511719 0.730469 1 0 1.000000
head_dog
  0 -1.967494 2.613305 0.680717 -0.002336 0.366324 -0.930484 0.511719 0.597656 1 0 1.000000
  0 -1.125454 -0.584223 0.261814 0.062385 0.145779 -0.987348 0.464844 0.550781 1 0 1.000000
  0 -7.581087 1.114464 0.104726 0.062385 0.145779 -0.987348 0.464844 0.699219 1 0 1.000000
head_dog
  0 -1.967494 2.613305 0.680717 -0.003369 0.686842 -0.726799 0.222656 0.378906 1 0 1.000000
  0 3.225080 2.613305 0.104726 0.289969 0.607405 -0.739579 0.363281 0.394531 1 0 1.000000
  0 -1.125454 -0.584223 0.261814 -0.064923 0.039348 -0.997114 0.253906 0.457031 1 0 1.000000
head_dog
  0 -6.739048 3.512609 4.817383 -0.579859 0.814186 0.029409 0.222656 0.238281 1 0 1.000000
  0 -2.599022 3.212841 8.901686 -0.149936 0.882920 0.444940 0.347656 0.238281 1 0 1.000000
  0 -3.791911 3.512609 1.832700 -0.142872 0.954991 -0.259960 0.207031 0.316406 1 0 1.000000
head_dog
  0 -1.967494 2.613305 0.680717 -0.003369 0.686842 -0.726799 0.222656 0.378906 1 0 1.000000
  0 1.611173 3.779070 3.194134 0.171422 0.970910 -0.167175 0.347656 0.347656 1 0 1.000000
  0 3.225080 2.613305 0.104726 0.289969 0.607405 -0.739579 0.363281 0.394531 1 0 1.000000
head_dog
  0 -3.791911 3.512609 1.832700 -0.142872 0.954991 -0.259960 0.207031 0.316406 1 0 1.000000
  0 1.611173 3.779070 3.194134 0.171422 0.970910 -0.167175 0.347656 0.347656 1 0 1.000000
  0 -1.967494 2.613305 0.680717 -0.003369 0.686842 -0.726799 0.222656 0.378906 1 0 1.000000
head_dog
  0 0.137605 3.779070 6.754809 -0.038574 0.983621 0.176075 0.363281 0.285156 1 0 1.000000
  0 -0.423755 1.447539 11.572192 -0.199108 0.678786 0.706828 0.433594 0.207031 1 0 1.000000
  0 1.400662 2.613305 9.163501 0.040143 0.929890 0.365640 0.433594 0.269531 1 0 1.000000
head_dog
  0 -2.599022 3.212841 8.901686 -0.149936 0.882920 0.444940 0.347656 0.238281 1 0 1.000000
  0 -0.423755 1.447539 11.572192 -0.199108 0.678786 0.706828 0.433594 0.207031 1 0 1.000000
  0 0.137605 3.779070 6.754809 -0.038574 0.983621 0.176075 0.363281 0.285156 1 0 1.000000
head_dog
  0 3.225080 2.613305 0.104726 0.289969 0.607405 -0.739579 0.363281 0.394531 1 0 1.000000
  0 2.874231 2.613305 3.455949 0.492026 0.865897 0.090181 0.394531 0.363281 1 0 1.000000
  0 6.031878 1.447539 1.309072 0.453757 0.648567 -0.611118 0.449219 0.410156 1 0 1.000000
head_dog
  0 1.611173 3.779070 3.194134 0.171422 0.970910 -0.167175 0.347656 0.347656 1 0 1.000000
  0 2.874231 2.613305 3.455949 0.492026 0.865897 0.090181 0.394531 0.363281 1 0 1.000000
  0 3.225080 2.613305 0.104726 0.289969 0.607405 -0.739579 0.363281 0.394531 1 0 1.000000
head_dog
  0 3.225080 2.613305 0.104726 0.289969 0.607405 -0.739579 0.363281 0.394531 1 0 1.000000
  0 6.031878 1.447539 1.309072 0.453757 0.648567 -0.611118 0.449219 0.410156 1 0 1.000000
  0 2.944401 -1.183759 0.314177 0.154226 -0.016894 -0.987891 0.347656 0.472656 1 0 1.000000
head_dog
  0 -4.774290 2.047076 8.954049 -0.556034 0.581872 0.593507 0.316406 0.191406 1 0 1.000000
  0 -4.844460 -0.017994 10.367846 -0.550573 0.466739 0.692116 0.332031 0.128906 1 0 1.000000
  0 -0.423755 1.447539 11.572192 -0.199108 0.678786 0.706828 0.433594 0.207031 1 0 1.000000
head_dog
  0 7.575615 0.881310 2.618143 -0.010932 0.331111 0.943529 0.707031 0.597656 1 0 1.000000
  0 4.628479 -3.248829 4.398480 0.134461 0.448332 0.883696 0.621094 0.550781 1 0 1.000000
  0 7.365107 -2.949061 3.665400 0.145799 0.224224 0.963570 0.621094 0.597656 1 0 1.000000
head_dog
  0 3.716270 -2.949061 4.346117 -0.359705 0.634142 0.684453 0.605469 0.519531 1 0 1.000000
  0 5.330178 1.747308 2.199240 0.336259 0.266846 0.903174 0.707031 0.550781 1 0 1.000000
  0 3.856610 1.747308 3.560674 0.417346 -0.080705 0.905157 0.722656 0.519531 1 0 1.000000
head_dog
  0 6.031878 1.447539 1.309072 0.453757 0.648567 -0.611118 0.449219 0.410156 1 0 1.000000
  0 9.119354 -0.584223 2.251603 0.951275 0.174485 -0.254225 0.511719 0.441406 1 0 1.000000
  0 6.593237 -1.483528 1.047257 0.313802 0.117639 -0.942173 0.464844 0.472656 1 0 1.000000
head_dog
  0 6.031878 1.447539 1.309072 0.453757 0.648567 -0.611118 0.449219 0.410156 1 0 1.000000
  0 7.575615 0.881310 2.618143 0.581983 0.767095 -0.269930 0.496094 0.410156 1 0 1.000000
  0 9.119354 -0.584223 2.251603 0.951275 0.174485 -0.254225 0.511719 0.441406 1 0 1.000000
head_dog
  0 5.330178 1.747308 2.199240 0.316558 0.946778 -0.058333 0.433594 0.378906 1 0 1.000000
  0 7.575615 0.881310 2.618143 0.581983 0.767095 -0.269930 0.496094 0.410156 1 0 1.000000
  0 6.031878 1.447539 1.309072 0.453757 0.648567 -0.611118 0.449219 0.410156 1 0 1.000000
head_dog
  0 -0.353585 -0.017994 12.252909 -0.330725 0.384483 0.861855 0.449219 0.175781 1 0 1.000000
  0 2.733891 -0.017994 13.352530 -0.138154 0.306222 0.941882 0.511719 0.175781 1 0 1.000000
  0 -0.423755 1.447539 11.572192 -0.199108 0.678786 0.706828 0.433594 0.207031 1 0 1.000000
head_dog
  0 2.663721 2.346844 9.687129 -0.048327 0.949954 0.308629 0.464844 0.253906 1 0 1.000000
  0 2.804061 0.881310 13.090714 -0.051267 0.551664 0.832489 0.511719 0.207031 1 0 1.000000
  0 3.505760 2.346844 10.734386 -0.335875 0.846344 0.413389 0.496094 0.253906 1 0 1.000000
head_dog
  0 -0.423755 1.447539 11.572192 -0.199108 0.678786 0.706828 0.433594 0.207031 1 0 1.000000
  0 2.804061 0.881310 13.090714 -0.051267 0.551664 0.832489 0.511719 0.207031 1 0 1.000000
  0 2.663721 2.346844 9.687129 -0.048327 0.949954 0.308629 0.464844 0.253906 1 0 1.000000
head_dog
  0 8.487825 -0.017994 3.037046 0.806925 0.525257 0.270142 0.511719 0.425781 1 0 1.000000
  0 8.417654 -1.183759 3.298860 0.849670 -0.085563 0.520327 0.527344 0.441406 1 0 1.000000
  0 9.119354 -0.584223 2.251603 0.951275 0.174485 -0.254225 0.511719 0.441406 1 0 1.000000
head_dog
  0 7.856295 -0.317762 2.984683 0.235897 0.607408 0.758557 0.589844 0.871094 1 0 1.000000
  0 7.084426 -0.017994 2.984683 0.358298 0.529392 0.769004 0.589844 0.839844 1 0 1.000000
  0 7.505445 -1.183759 3.089409 0.421533 0.255877 0.869964 0.511719 0.871094 1 0 1.000000
head_dog
  0 -3.932251 -3.515290 2.618143 -0.133093 -0.959363 -0.248816 0.207031 0.316406 1 0 1.000000
  0 -6.809217 -3.815058 5.131560 -0.543068 -0.838018 0.052933 0.222656 0.238281 1 0 1.000000
  0 -8.423126 -0.317762 2.513417 -0.722211 -0.596018 -0.350961 0.128906 0.222656 1 0 1.000000
head_dog
  0 -3.932251 -3.515290 2.618143 -0.338916 -0.640981 -0.688679 0.769531 0.628906 1 0 1.000000
  0 -8.423126 -0.317762 2.513417 -0.845643 -0.273586 -0.458299 0.667969 0.667969 1 0 1.000000
  0 -7.581087 1.114464 0.104726 -0.433357 -0.669227 -0.603603 0.816406 0.730469 1 0 1.000000
head_dog
  0 2.944401 -1.183759 0.314177 0.079551 -0.489467 -0.868386 0.347656 0.472656 1 0 1.000000
  0 2.523381 -4.681055 2.042151 0.105050 -0.910315 -0.400365 0.363281 0.394531 1 0 1.000000
  0 -1.125454 -0.584223 0.261814 -0.056942 -0.440138 -0.896123 0.253906 0.457031 1 0 1.000000
head_dog
  0 4.417970 -1.783296 11.676918 0.388705 0.738431 -0.551024 0.605469 0.253906 1 0 1.000000
  0 3.996950 -1.483528 11.781643 0.635228 0.162700 -0.754993 0.621094 0.253906 1 0 1.000000
  0 4.768819 -1.783296 12.671812 0.770953 0.140310 -0.621245 0.636719 0.238281 1 0 1.000000
head_dog
  0 0.348114 -3.815058 7.592615 -0.070952 -0.961962 0.263807 0.363281 0.285156 1 0 1.000000
  0 -2.669192 -3.248829 9.372952 -0.208578 -0.821446 0.530775 0.347656 0.238281 1 0 1.000000
  0 -3.932251 -3.515290 2.618143 -0.133093 -0.959363 -0.248816 0.207031 0.316406 1 0 1.000000
head_dog
  0 -6.809217 -3.815058 5.131560 -0.543068 -0.838018 0.052933 0.222656 0.238281 1 0 1.000000
  0 -2.669192 -3.248829 9.372952 -0.208578 -0.821446 0.530775 0.347656 0.238281 1 0 1.000000
  0 -4.774290 -2.049756 8.954049 -0.577024 -0.516925 0.632324 0.316406 0.191406 1 0 1.000000
head_dog
  0 1.400662 -4.414595 4.398480 -0.113999 -0.992226 0.049917 0.347656 0.347656 1 0 1.000000
  0 0.348114 -3.815058 7.592615 -0.070952 -0.961962 0.263807 0.363281 0.285156 1 0 1.000000
  0 -3.932251 -3.515290 2.618143 -0.133093 -0.959363 -0.248816 0.207031 0.316406 1 0 1.000000
head_dog
  0 1.681342 -2.649293 9.530041 0.047919 -0.927924 0.369676 0.433594 0.269531 1 0 1.000000
  0 2.523381 -2.349524 10.420209 -0.090620 -0.904502 0.416732 0.464844 0.253906 1 0 1.000000
  0 -0.423755 -1.483528 11.572192 -0.198653 -0.645743 0.737261 0.433594 0.207031 1 0 1.000000
head_dog
  0 5.751198 -3.815058 2.775232 0.296807 -0.933701 -0.200270 0.449219 0.410156 1 0 1.000000
  0 4.628479 -3.248829 4.398480 0.157688 -0.902735 0.400254 0.433594 0.378906 1 0 1.000000
  0 3.225080 -3.815058 3.560674 0.221522 -0.898470 0.379052 0.394531 0.363281 1 0 1.000000
head_dog
  0 6.593237 -1.483528 1.047257 0.233729 -0.631134 -0.739621 0.464844 0.472656 1 0 1.000000
  0 5.751198 -3.815058 2.775232 0.296807 -0.933701 -0.200270 0.449219 0.410156 1 0 1.000000
  0 2.944401 -1.183759 0.314177 0.079551 -0.489467 -0.868386 0.347656 0.472656 1 0 1.000000
head_dog
  0 -0.353585 -0.017994 12.252909 -0.330725 -0.384483 0.861855 0.449219 0.175781 1 0 1.000000
  0 -4.844460 -0.017994 10.367846 -0.530670 -0.477836 0.700045 0.332031 0.128906 1 0 1.000000
  0 -0.423755 -1.483528 11.572192 -0.198653 -0.645743 0.737261 0.433594 0.207031 1 0 1.000000
head_dog
  0 -4.774290 -2.049756 8.954049 -0.577024 -0.516925 0.632324 0.316406 0.191406 1 0 1.000000
  0 -8.773975 -0.317762 4.607932 -0.867070 -0.469554 0.166461 0.175781 0.175781 1 0 1.000000
  0 -6.809217 -3.815058 5.131560 -0.543068 -0.838018 0.052933 0.222656 0.238281 1 0 1.000000
head_dog
  0 -8.773975 -0.317762 4.607932 -0.867070 -0.469554 0.166461 0.175781 0.175781 1 0 1.000000
  0 -4.774290 -2.049756 8.954049 -0.577024 -0.516925 0.632324 0.316406 0.191406 1 0 1.000000
  0 -4.844460 -0.017994 10.367846 -0.530670 -0.477836 0.700045 0.332031 0.128906 1 0 1.000000
head_dog
  0 -2.669192 -3.248829 9.372952 -0.208578 -0.821446 0.530775 0.347656 0.238281 1 0 1.000000
  0 -0.423755 -1.483528 11.572192 -0.198653 -0.645743 0.737261 0.433594 0.207031 1 0 1.000000
  0 -4.774290 -2.049756 8.954049 -0.577024 -0.516925 0.632324 0.316406 0.191406 1 0 1.000000
head_dog
  0 7.365107 -2.949061 3.665400 0.145799 0.224224 0.963570 0.621094 0.597656 1 0 1.000000
  0 8.347485 -2.649293 3.508312 0.116132 0.135072 0.984007 0.636719 0.628906 1 0 1.000000
  0 8.417654 -1.183759 3.298860 -0.094608 0.243138 0.965367 0.667969 0.628906 1 0 1.000000
head_dog
  0 8.838675 -1.483528 2.199240 0.794323 -0.482860 -0.368644 0.511719 0.457031 1 0 1.000000
  0 8.628164 -2.349524 2.879957 0.839140 -0.527136 -0.134060 0.511719 0.441406 1 0 1.000000
  0 6.593237 -1.483528 1.047257 0.233729 -0.631134 -0.739621 0.464844 0.472656 1 0 1.000000
head_dog
  0 8.347485 -2.649293 3.508312 0.572699 -0.809345 -0.130295 0.511719 0.425781 1 0 1.000000
  0 7.365107 -2.949061 3.665400 0.382384 -0.918219 0.103230 0.496094 0.410156 1 0 1.000000
  0 8.628164 -2.349524 2.879957 0.839140 -0.527136 -0.134060 0.511719 0.441406 1 0 1.000000
head_dog
  0 2.804061 -0.584223 13.090714 -0.191295 -0.565402 0.802326 0.511719 0.207031 1 0 1.000000
  0 2.733891 -0.017994 13.352530 -0.220819 -0.423902 0.878377 0.511719 0.175781 1 0 1.000000
  0 -0.423755 -1.483528 11.572192 -0.198653 -0.645743 0.737261 0.433594 0.207031 1 0 1.000000
head_dog
  0 3.365420 -2.349524 11.310377 -0.363249 -0.787717 0.497547 0.496094 0.253906 1 0 1.000000
  0 4.768819 -1.783296 12.671812 -0.073773 -0.860679 0.503775 0.542969 0.238281 1 0 1.000000
  0 2.804061 -0.584223 13.090714 -0.191295 -0.565402 0.802326 0.511719 0.207031 1 0 1.000000
head_dog
  0 8.838675 -1.483528 2.199240 0.794323 -0.482860 -0.368644 0.511719 0.457031 1 0 1.000000
  0 8.417654 -1.183759 3.298860 0.927947 0.034201 0.371140 0.527344 0.441406 1 0 1.000000
  0 8.628164 -2.349524 2.879957 0.839140 -0.527136 -0.134060 0.511719 0.441406 1 0 1.000000
head_dog
  0 3.014571 -3.248829 5.131560 0.160648 -0.921470 0.353674 0.433594 0.347656 1 0 1.000000
  0 3.225080 -3.815058 3.560674 0.221522 -0.898470 0.379052 0.394531 0.363281 1 0 1.000000
  0 4.628479 -3.248829 4.398480 0.157688 -0.902735 0.400254 0.433594 0.378906 1 0 1.000000
head_dog
  0 7.435276 -2.349524 3.403586 0.940075 0.332089 0.077299 0.152344 0.722656 1 0 1.000000
  0 7.154596 -2.049756 3.298860 -0.128730 0.991079 0.034501 0.214844 0.722656 1 0 1.000000
  0 7.294935 -2.049756 3.822489 -0.032928 0.603036 0.797034 0.183594 0.722656 1 0 1.000000
head_dog
  0 7.294935 -2.049756 3.822489 -0.032928 0.603036 0.797034 0.183594 0.722656 1 0 1.000000
  0 7.154596 -2.049756 3.298860 -0.128730 0.991079 0.034501 0.214844 0.722656 1 0 1.000000
  0 7.365107 -2.649293 3.665400 0.360749 -0.196656 0.911694 0.183594 0.675781 1 0 1.000000
head_dog
  0 7.294935 -2.049756 3.822489 -0.032928 0.603036 0.797034 0.183594 0.722656 1 0 1.000000
  0 7.365107 -2.649293 3.665400 0.360749 -0.196656 0.911694 0.183594 0.675781 1 0 1.000000
  0 7.435276 -2.349524 3.403586 0.940075 0.332089 0.077299 0.152344 0.722656 1 0 1.000000
head_dog
  0 4.137290 -0.317762 12.409998 0.773891 0.633147 0.014746 0.183594 0.566406 1 0 1.000000
  0 3.996950 -1.183759 11.781643 0.309320 -0.945142 -0.105011 0.121094 0.644531 1 0 1.000000
  0 4.628479 -0.883991 10.943837 0.643209 -0.160497 -0.748681 0.183594 0.613281 1 0 1.000000
head_dog
  0 4.628479 -0.883991 10.943837 0.643209 -0.160497 -0.748681 0.183594 0.613281 1 0 1.000000
  0 3.996950 -1.183759 11.781643 0.309320 -0.945142 -0.105011 0.121094 0.644531 1 0 1.000000
  0 3.295251 -0.317762 11.519829 -0.051977 0.649382 -0.758684 0.246094 0.644531 1 0 1.000000
head_dog
  0 4.628479 -0.883991 10.943837 0.643209 -0.160497 -0.748681 0.183594 0.613281 1 0 1.000000
  0 3.295251 -0.317762 11.519829 -0.051977 0.649382 -0.758684 0.246094 0.644531 1 0 1.000000
  0 4.137290 -0.317762 12.409998 0.773891 0.633147 0.014746 0.183594 0.566406 1 0 1.000000
head_dog
  0 4.417970 -1.783296 11.676918 0.514127 -0.838332 -0.181307 0.542969 0.253906 1 0 1.000000
  0 4.768819 -1.783296 12.671812 -0.073773 -0.860679 0.503775 0.542969 0.238281 1 0 1.000000
  0 3.365420 -2.349524 11.310377 -0.363249 -0.787717 0.497547 0.496094 0.253906 1 0 1.000000
head_dog
  0 6.944086 -1.783296 3.665400 0.499474 -0.033901 0.865665 0.449219 0.839844 1 0 1.000000
  0 7.154596 -2.049756 3.298860 0.359758 -0.644225 0.674943 0.417969 0.871094 1 0 1.000000
  0 7.435276 -1.783296 3.403586 0.470335 0.012722 0.882396 0.449219 0.871094 1 0 1.000000
head_dog
  0 1.681342 -2.649293 9.530041 0.047919 -0.927924 0.369676 0.433594 0.269531 1 0 1.000000
  0 2.593552 -2.349524 9.268226 0.317134 -0.948184 0.019318 0.449219 0.285156 1 0 1.000000
  0 2.523381 -2.349524 10.420209 -0.090620 -0.904502 0.416732 0.464844 0.253906 1 0 1.000000
head_dog
  0 2.733891 -0.017994 13.352530 -0.220819 -0.423902 0.878377 0.511719 0.175781 1 0 1.000000
  0 2.804061 -0.584223 13.090714 -0.191295 -0.565402 0.802326 0.511719 0.207031 1 0 1.000000
  0 4.768819 -1.783296 12.671812 -0.073773 -0.860679 0.503775 0.542969 0.238281 1 0 1.000000
head_dog
  0 3.996950 -1.483528 11.781643 0.635228 0.162700 -0.754993 0.621094 0.253906 1 0 1.000000
  0 4.417970 -1.783296 11.676918 0.388705 0.738431 -0.551024 0.605469 0.253906 1 0 1.000000
  0 3.365420 -2.349524 11.310377 0.652253 -0.064663 -0.755239 0.605469 0.269531 1 0 1.000000
head_dog
  0 2.523381 -2.349524 10.420209 0.795351 0.085355 -0.600110 0.621094 0.300781 1 0 1.000000
  0 2.593552 -2.349524 9.268226 0.300124 0.843039 -0.446331 0.605469 0.316406 1 0 1.000000
  0 1.751513 -2.049756 9.268226 -0.252043 -0.022272 -0.967460 0.621094 0.316406 1 0 1.000000
head_dog
  0 1.681342 -2.649293 9.530041 0.459631 -0.196509 -0.866096 0.605469 0.347656 1 0 1.000000
  0 1.751513 -2.049756 9.268226 -0.252043 -0.022272 -0.967460 0.621094 0.316406 1 0 1.000000
  0 2.593552 -2.349524 9.268226 0.300124 0.843039 -0.446331 0.605469 0.316406 1 0 1.000000
head_dog
  0 2.523381 -2.349524 10.420209 0.795351 0.085355 -0.600110 0.621094 0.300781 1 0 1.000000
  0 2.663721 2.346844 9.687129 0.800487 -0.134691 -0.584020 0.707031 0.300781 1 0 1.000000
  0 3.996950 -1.483528 11.781643 0.635228 0.162700 -0.754993 0.621094 0.253906 1 0 1.000000
head_dog
  0 2.523381 -2.349524 10.420209 0.795351 0.085355 -0.600110 0.621094 0.300781 1 0 1.000000
  0 3.996950 -1.483528 11.781643 0.635228 0.162700 -0.754993 0.621094 0.253906 1 0 1.000000
  0 3.365420 -2.349524 11.310377 0.652253 -0.064663 -0.755239 0.605469 0.269531 1 0 1.000000
head_dog
  0 2.663721 2.346844 9.687129 0.800487 -0.134691 -0.584020 0.707031 0.300781 1 0 1.000000
  0 2.523381 -2.349524 10.420209 0.795351 0.085355 -0.600110 0.621094 0.300781 1 0 1.000000
  0 2.102362 2.047076 8.849323 0.219574 -0.067730 -0.973242 0.707031 0.316406 1 0 1.000000
head_dog
  0 2.102362 2.047076 8.849323 0.219574 -0.067730 -0.973242 0.707031 0.316406 1 0 1.000000
  0 1.751513 -2.049756 9.268226 -0.252043 -0.022272 -0.967460 0.621094 0.316406 1 0 1.000000
  0 1.400662 2.613305 9.163501 0.531429 0.037256 -0.846283 0.722656 0.347656 1 0 1.000000
head_dog
  0 2.102362 2.047076 8.849323 0.219574 -0.067730 -0.973242 0.707031 0.316406 1 0 1.000000
  0 2.523381 -2.349524 10.420209 0.795351 0.085355 -0.600110 0.621094 0.300781 1 0 1.000000
  0 1.751513 -2.049756 9.268226 -0.252043 -0.022272 -0.967460 0.621094 0.316406 1 0 1.000000
head_dog
  0 3.716270 -2.949061 4.346117 -0.359705 0.634142 0.684453 0.605469 0.519531 1 0 1.000000
  0 3.014571 -3.248829 5.131560 -0.413096 0.910432 -0.021581 0.589844 0.519531 1 0 1.000000
  0 4.628479 -3.248829 4.398480 0.134461 0.448332 0.883696 0.621094 0.550781 1 0 1.000000
head_dog
  0 3.716270 -2.949061 4.346117 -0.359705 0.634142 0.684453 0.605469 0.519531 1 0 1.000000
  0 3.225080 -3.815058 3.560674 -0.218577 0.254206 0.942127 0.589844 0.488281 1 0 1.000000
  0 3.014571 -3.248829 5.131560 -0.413096 0.910432 -0.021581 0.589844 0.519531 1 0 1.000000
head_dog
  0 2.874231 2.613305 3.455949 -0.263630 -0.117395 0.957454 0.738281 0.488281 1 0 1.000000
  0 3.225080 -3.815058 3.560674 -0.218577 0.254206 0.942127 0.589844 0.488281 1 0 1.000000
  0 3.716270 -2.949061 4.346117 -0.359705 0.634142 0.684453 0.605469 0.519531 1 0 1.000000
head_dog
  0 -6.809217 -3.815058 5.131560 -0.543068 -0.838018 0.052933 0.222656 0.238281 1 0 1.000000
  0 -8.773975 -0.317762 4.607932 -0.867070 -0.469554 0.166461 0.175781 0.175781 1 0 1.000000
  0 -8.423126 -0.317762 2.513417 -0.722211 -0.596018 -0.350961 0.128906 0.222656 1 0 1.000000
head_dog
  0 -2.458683 -2.949061 1.518523 -0.194371 -0.531801 -0.824262 0.816406 0.597656 1 0 1.000000
  0 -3.932251 -3.515290 2.618143 -0.338916 -0.640981 -0.688679 0.769531 0.628906 1 0 1.000000
  0 -7.581087 1.114464 0.104726 -0.433357 -0.669227 -0.603603 0.816406 0.730469 1 0 1.000000
head_dog
  0 -1.125454 -0.584223 0.261814 -0.090488 -0.427085 -0.899673 0.863281 0.550781 1 0 1.000000
  0 -2.458683 -2.949061 1.518523 -0.194371 -0.531801 -0.824262 0.816406 0.597656 1 0 1.000000
  0 -7.581087 1.114464 0.104726 -0.090488 -0.427085 -0.899673 0.863281 0.699219 1 0 1.000000
head_dog
  0 2.523381 -4.681055 2.042151 0.105050 -0.910315 -0.400365 0.363281 0.394531 1 0 1.000000
  0 -2.458683 -2.949061 1.518523 -0.072502 -0.782227 -0.618760 0.222656 0.378906 1 0 1.000000
  0 -1.125454 -0.584223 0.261814 -0.056942 -0.440138 -0.896123 0.253906 0.457031 1 0 1.000000
head_dog
  0 -2.669192 -3.248829 9.372952 -0.208578 -0.821446 0.530775 0.347656 0.238281 1 0 1.000000
  0 -6.809217 -3.815058 5.131560 -0.543068 -0.838018 0.052933 0.222656 0.238281 1 0 1.000000
  0 -3.932251 -3.515290 2.618143 -0.133093 -0.959363 -0.248816 0.207031 0.316406 1 0 1.000000
head_dog
  0 1.400662 -4.414595 4.398480 -0.113999 -0.992226 0.049917 0.347656 0.347656 1 0 1.000000
  0 -2.458683 -2.949061 1.518523 -0.072502 -0.782227 -0.618760 0.222656 0.378906 1 0 1.000000
  0 2.523381 -4.681055 2.042151 0.105050 -0.910315 -0.400365 0.363281 0.394531 1 0 1.000000
head_dog
  0 1.400662 -4.414595 4.398480 -0.113999 -0.992226 0.049917 0.347656 0.347656 1 0 1.000000
  0 -3.932251 -3.515290 2.618143 -0.133093 -0.959363 -0.248816 0.207031 0.316406 1 0 1.000000
  0 -2.458683 -2.949061 1.518523 -0.072502 -0.782227 -0.618760 0.222656 0.378906 1 0 1.000000
head_dog
  0 -0.423755 -1.483528 11.572192 -0.198653 -0.645743 0.737261 0.433594 0.207031 1 0 1.000000
  0 0.348114 -3.815058 7.592615 -0.070952 -0.961962 0.263807 0.363281 0.285156 1 0 1.000000
  0 1.681342 -2.649293 9.530041 0.047919 -0.927924 0.369676 0.433594 0.269531 1 0 1.000000
head_dog
  0 -0.423755 -1.483528 11.572192 -0.198653 -0.645743 0.737261 0.433594 0.207031 1 0 1.000000
  0 -2.669192 -3.248829 9.372952 -0.208578 -0.821446 0.530775 0.347656 0.238281 1 0 1.000000
  0 0.348114 -3.815058 7.592615 -0.070952 -0.961962 0.263807 0.363281 0.285156 1 0 1.000000
head_dog
  0 3.225080 -3.815058 3.560674 0.221522 -0.898470 0.379052 0.394531 0.363281 1 0 1.000000
  0 2.523381 -4.681055 2.042151 0.105050 -0.910315 -0.400365 0.363281 0.394531 1 0 1.000000
  0 5.751198 -3.815058 2.775232 0.296807 -0.933701 -0.200270 0.449219 0.410156 1 0 1.000000
head_dog
  0 3.225080 -3.815058 3.560674 0.221522 -0.898470 0.379052 0.394531 0.363281 1 0 1.000000
  0 1.400662 -4.414595 4.398480 -0.113999 -0.992226 0.049917 0.347656 0.347656 1 0 1.000000
  0 2.523381 -4.681055 2.042151 0.105050 -0.910315 -0.400365 0.363281 0.394531 1 0 1.000000
head_dog
  0 5.751198 -3.815058 2.775232 0.296807 -0.933701 -0.200270 0.449219 0.410156 1 0 1.000000
  0 2.523381 -4.681055 2.042151 0.105050 -0.910315 -0.400365 0.363281 0.394531 1 0 1.000000
  0 2.944401 -1.183759 0.314177 0.079551 -0.489467 -0.868386 0.347656 0.472656 1 0 1.000000
head_dog
  0 -4.844460 -0.017994 10.367846 -0.530670 -0.477836 0.700045 0.332031 0.128906 1 0 1.000000
  0 -4.774290 -2.049756 8.954049 -0.577024 -0.516925 0.632324 0.316406 0.191406 1 0 1.000000
  0 -0.423755 -1.483528 11.572192 -0.198653 -0.645743 0.737261 0.433594 0.207031 1 0 1.000000
head_dog
  0 3.716270 -2.949061 4.346117 -0.359705 0.634142 0.684453 0.605469 0.519531 1 0 1.000000
  0 3.856610 1.747308 3.560674 0.417346 -0.080705 0.905157 0.722656 0.519531 1 0 1.000000
  0 2.874231 2.613305 3.455949 -0.263630 -0.117395 0.957454 0.738281 0.488281 1 0 1.000000
head_dog
  0 5.330178 1.747308 2.199240 0.336259 0.266846 0.903174 0.707031 0.550781 1 0 1.000000
  0 3.716270 -2.949061 4.346117 -0.359705 0.634142 0.684453 0.605469 0.519531 1 0 1.000000
  0 4.628479 -3.248829 4.398480 0.134461 0.448332 0.883696 0.621094 0.550781 1 0 1.000000
head_dog
  0 8.628164 -2.349524 2.879957 0.839140 -0.527136 -0.134060 0.511719 0.441406 1 0 1.000000
  0 5.751198 -3.815058 2.775232 0.296807 -0.933701 -0.200270 0.449219 0.410156 1 0 1.000000
  0 6.593237 -1.483528 1.047257 0.233729 -0.631134 -0.739621 0.464844 0.472656 1 0 1.000000
head_dog
  0 7.365107 -2.949061 3.665400 0.382384 -0.918219 0.103230 0.496094 0.410156 1 0 1.000000
  0 5.751198 -3.815058 2.775232 0.296807 -0.933701 -0.200270 0.449219 0.410156 1 0 1.000000
  0 8.628164 -2.349524 2.879957 0.839140 -0.527136 -0.134060 0.511719 0.441406 1 0 1.000000
head_dog
  0 7.365107 -2.949061 3.665400 0.382384 -0.918219 0.103230 0.496094 0.410156 1 0 1.000000
  0 4.628479 -3.248829 4.398480 0.157688 -0.902735 0.400254 0.433594 0.378906 1 0 1.000000
  0 5.751198 -3.815058 2.775232 0.296807 -0.933701 -0.200270 0.449219 0.410156 1 0 1.000000
head_dog
  0 2.733891 -0.017994 13.352530 -0.220819 -0.423902 0.878377 0.511719 0.175781 1 0 1.000000
  0 -0.353585 -0.017994 12.252909 -0.330725 -0.384483 0.861855 0.449219 0.175781 1 0 1.000000
  0 -0.423755 -1.483528 11.572192 -0.198653 -0.645743 0.737261 0.433594 0.207031 1 0 1.000000
head_dog
  0 2.804061 -0.584223 13.090714 -0.191295 -0.565402 0.802326 0.511719 0.207031 1 0 1.000000
  0 2.523381 -2.349524 10.420209 -0.090620 -0.904502 0.416732 0.464844 0.253906 1 0 1.000000
  0 3.365420 -2.349524 11.310377 -0.363249 -0.787717 0.497547 0.496094 0.253906 1 0 1.000000
head_dog
  0 2.804061 -0.584223 13.090714 -0.191295 -0.565402 0.802326 0.511719 0.207031 1 0 1.000000
  0 -0.423755 -1.483528 11.572192 -0.198653 -0.645743 0.737261 0.433594 0.207031 1 0 1.000000
  0 2.523381 -2.349524 10.420209 -0.090620 -0.904502 0.416732 0.464844 0.253906 1 0 1.000000
head_dog
  0 8.417654 -1.183759 3.298860 0.927947 0.034201 0.371140 0.527344 0.441406 1 0 1.000000
  0 8.347485 -2.649293 3.508312 0.572699 -0.809345 -0.130295 0.511719 0.425781 1 0 1.000000
  0 8.628164 -2.349524 2.879957 0.839140 -0.527136 -0.134060 0.511719 0.441406 1 0 1.000000
head_dog
  0 6.944086 -1.783296 3.665400 0.499474 -0.033901 0.865665 0.449219 0.839844 1 0 1.000000
  0 7.435276 -1.783296 3.403586 0.470335 0.012722 0.882396 0.449219 0.871094 1 0 1.000000
  0 7.505445 -1.183759 3.089409 0.421533 0.255877 0.869964 0.511719 0.871094 1 0 1.000000
head_dog
  0 0.137605 3.779070 6.754809 0.999074 0.025411 0.034727 0.769531 0.394531 1 0 1.000000
  0 1.400662 -4.414595 4.398480 0.751923 0.058278 0.656670 0.558594 0.457031 1 0 1.000000
  0 1.611173 3.779070 3.194134 0.672516 0.090683 0.734506 0.769531 0.457031 1 0 1.000000
head_dog
  0 1.400662 -4.414595 4.398480 0.751923 0.058278 0.656670 0.558594 0.457031 1 0 1.000000
  0 0.137605 3.779070 6.754809 0.999074 0.025411 0.034727 0.769531 0.394531 1 0 1.000000
  0 0.348114 -3.815058 7.592615 0.997602 0.020355 -0.066159 0.558594 0.394531 1 0 1.000000
head_dog
  0 1.400662 -4.414595 4.398480 0.751923 0.058278 0.656670 0.558594 0.457031 1 0 1.000000
  0 2.874231 2.613305 3.455949 -0.263630 -0.117395 0.957454 0.738281 0.488281 1 0 1.000000
  0 1.611173 3.779070 3.194134 0.672516 0.090683 0.734506 0.769531 0.457031 1 0 1.000000
head_dog
  0 3.225080 -3.815058 3.560674 -0.218577 0.254206 0.942127 0.589844 0.488281 1 0 1.000000
  0 2.874231 2.613305 3.455949 -0.263630 -0.117395 0.957454 0.738281 0.488281 1 0 1.000000
  0 1.400662 -4.414595 4.398480 0.751923 0.058278 0.656670 0.558594 0.457031 1 0 1.000000
head_dog
  0 0.137605 3.779070 6.754809 0.999074 0.025411 0.034727 0.769531 0.394531 1 0 1.000000
  0 1.681342 -2.649293 9.530041 0.459631 -0.196509 -0.866096 0.605469 0.347656 1 0 1.000000
  0 0.348114 -3.815058 7.592615 0.997602 0.020355 -0.066159 0.558594 0.394531 1 0 1.000000
head_dog
  0 1.681342 -2.649293 9.530041 0.459631 -0.196509 -0.866096 0.605469 0.347656 1 0 1.000000
  0 0.137605 3.779070 6.754809 0.999074 0.025411 0.034727 0.769531 0.394531 1 0 1.000000
  0 1.400662 2.613305 9.163501 0.531429 0.037256 -0.846283 0.722656 0.347656 1 0 1.000000
head_dog
  0 7.365107 -2.949061 3.665400 0.145799 0.224224 0.963570 0.621094 0.597656 1 0 1.000000
  0 8.417654 -1.183759 3.298860 -0.094608 0.243138 0.965367 0.667969 0.628906 1 0 1.000000
  0 7.575615 0.881310 2.618143 -0.010932 0.331111 0.943529 0.707031 0.597656 1 0 1.000000
head_dog
  0 4.768819 -1.783296 12.671812 0.405778 0.118283 0.906285 0.621094 0.207031 1 0 1.000000
  0 4.909159 1.747308 12.148184 0.405778 0.118283 0.906285 0.707031 0.207031 1 0 1.000000
  0 2.733891 -0.017994 13.352530 0.405778 0.118283 0.906285 0.667969 0.128906 1 0 1.000000
head_dog
  0 3.996950 -1.483528 11.781643 0.635228 0.162700 -0.754993 0.621094 0.253906 1 0 1.000000
  0 4.909159 1.747308 12.148184 0.692316 -0.223600 -0.686077 0.691406 0.238281 1 0 1.000000
  0 4.768819 -1.783296 12.671812 0.770953 0.140310 -0.621245 0.636719 0.238281 1 0 1.000000
head_dog
  0 3.996950 -1.483528 11.781643 0.635228 0.162700 -0.754993 0.621094 0.253906 1 0 1.000000
  0 4.067120 1.747308 11.310377 0.646945 -0.235308 -0.725322 0.707031 0.253906 1 0 1.000000
  0 4.909159 1.747308 12.148184 0.692316 -0.223600 -0.686077 0.691406 0.238281 1 0 1.000000
end
