version 1
nodes
0 "root" -1
end
skeleton
  time 0
  0 0.000000 0.000000 0.000000 0.000000 0.000000 0.000000
end
triangles
head_mega
  0 -6.070900 -2.143118 5.601279 -0.811082 -0.063677 0.581456 0.792969 0.535156 1 0 1.000000
  0 -3.164936 1.844596 10.091560 -0.446806 -0.520139 0.727887 0.699219 0.621094 1 0 1.000000
  0 -6.303378 2.652234 5.647570 -0.892989 -0.121925 0.433249 0.792969 0.628906 1 0 1.000000
head_mega
  0 -3.281175 -2.849801 9.258312 -0.359016 -0.114179 0.926321 0.691406 0.550781 1 0 1.000000
  0 3.576902 -5.070807 8.887980 0.310192 -0.586210 0.748424 0.589844 0.496094 1 0 1.000000
  0 5.146122 0.784571 8.841688 0.583728 -0.370764 0.722354 0.589844 0.613281 1 0 1.000000
head_mega
  0 4.448691 2.197938 10.554476 0.416074 -0.188828 0.889509 0.605469 0.636719 1 0 1.000000
  0 -2.874340 2.601757 11.804348 0.108624 -0.184487 0.976814 0.699219 0.636719 1 0 1.000000
  0 5.146122 0.784571 8.841688 0.583728 -0.370764 0.722354 0.589844 0.613281 1 0 1.000000
head_mega
  0 -3.281175 -2.849801 9.258312 -0.371899 -0.774392 0.511868 0.589844 0.402344 1 0 1.000000
  0 -6.070900 -2.143118 5.601279 -0.770105 -0.376966 0.514621 0.589844 0.355469 1 0 1.000000
  0 -4.792276 -4.818419 5.554987 -0.602222 -0.791175 0.106630 0.503906 0.355469 1 0 1.000000
head_mega
  0 2.123919 -6.686083 4.351407 -0.064114 -0.997435 -0.031832 0.503906 0.464844 1 0 1.000000
  0 5.901673 -5.777490 4.119949 0.728459 -0.675039 -0.116916 0.503906 0.519531 1 0 1.000000
  0 3.576902 -5.070807 8.887980 0.310192 -0.586210 0.748424 0.589844 0.496094 1 0 1.000000
head_mega
  0 2.123919 -6.686083 4.351407 -0.064114 -0.997435 -0.031832 0.503906 0.464844 1 0 1.000000
  0 3.576902 -5.070807 8.887980 0.310192 -0.586210 0.748424 0.589844 0.496094 1 0 1.000000
  0 -3.281175 -2.849801 9.258312 -0.371899 -0.774392 0.511868 0.589844 0.402344 1 0 1.000000
head_mega
  0 -6.303378 2.652234 5.647570 -0.892989 -0.121925 0.433249 0.792969 0.628906 1 0 1.000000
  0 -3.164936 1.844596 10.091560 -0.446806 -0.520139 0.727887 0.699219 0.621094 1 0 1.000000
  0 -4.966634 5.125627 11.063683 -0.652632 -0.099163 0.751158 0.699219 0.691406 1 0 1.000000
head_mega
  0 4.390572 6.084697 5.045780 0.317161 0.947996 0.026701 0.503906 0.761719 1 0 1.000000
  0 3.170066 4.873240 9.767519 0.302874 0.901358 0.309550 0.597656 0.769531 1 0 1.000000
  0 8.284565 4.267510 6.527110 0.841609 0.411736 0.349525 0.550781 0.691406 1 0 1.000000
head_mega
  0 8.284565 4.267510 6.527110 0.841609 0.411736 0.349525 0.550781 0.691406 1 0 1.000000
  0 8.458921 1.036958 4.027366 0.959484 -0.253639 -0.122708 0.503906 0.628906 1 0 1.000000
  0 7.296536 4.469420 1.110997 0.641181 0.432410 -0.633963 0.464844 0.691406 1 0 1.000000
head_mega
  0 8.458921 1.036958 4.027366 0.959484 -0.253639 -0.122708 0.503906 0.628906 1 0 1.000000
  0 5.146122 0.784571 8.841688 0.583728 -0.370764 0.722354 0.589844 0.613281 1 0 1.000000
  0 5.901673 -5.777490 4.119949 0.728459 -0.675039 -0.116916 0.503906 0.519531 1 0 1.000000
head_mega
  0 8.284565 4.267510 6.527110 0.841609 0.411736 0.349525 0.550781 0.691406 1 0 1.000000
  0 5.146122 0.784571 8.841688 0.583728 -0.370764 0.722354 0.589844 0.613281 1 0 1.000000
  0 8.458921 1.036958 4.027366 0.959484 -0.253639 -0.122708 0.503906 0.628906 1 0 1.000000
head_mega
  0 8.284565 4.267510 6.527110 0.841609 0.411736 0.349525 0.550781 0.691406 1 0 1.000000
  0 4.448691 2.197938 10.554476 0.416074 -0.188828 0.889509 0.605469 0.636719 1 0 1.000000
  0 5.146122 0.784571 8.841688 0.583728 -0.370764 0.722354 0.589844 0.613281 1 0 1.000000
head_mega
  0 5.146122 0.784571 8.841688 0.583728 -0.370764 0.722354 0.589844 0.613281 1 0 1.000000
  0 3.576902 -5.070807 8.887980 0.310192 -0.586210 0.748424 0.589844 0.496094 1 0 1.000000
  0 5.901673 -5.777490 4.119949 0.728459 -0.675039 -0.116916 0.503906 0.519531 1 0 1.000000
head_mega
  0 -6.070900 -2.143118 5.601279 -0.942805 0.003625 -0.333325 0.214844 0.527344 1 0 1.000000
  0 -6.303378 2.652234 5.647570 -0.958872 -0.084023 -0.271117 0.214844 0.628906 1 0 1.000000
  0 -4.385441 2.046506 0.879540 -0.555886 -0.200630 -0.806684 0.316406 0.628906 1 0 1.000000
head_mega
  0 3.170066 -0.376409 0.046292 0.265092 -0.113823 -0.957481 0.425781 0.597656 1 0 1.000000
  0 2.356396 -4.868897 0.092583 0.143002 -0.536600 -0.831631 0.425781 0.496094 1 0 1.000000
  0 -4.792276 -2.546937 1.342455 -0.627163 -0.001961 -0.778886 0.324219 0.550781 1 0 1.000000
head_mega
  0 -4.385441 2.046506 0.879540 -0.555886 -0.200630 -0.806684 0.316406 0.628906 1 0 1.000000
  0 -5.547827 5.125627 0.092583 -0.659719 -0.306446 -0.686194 0.277344 0.691406 1 0 1.000000
  0 2.298277 4.974195 0.092583 0.038447 -0.022732 -0.999002 0.402344 0.691406 1 0 1.000000
head_mega
  0 -4.792276 -2.546937 1.342455 -0.513267 -0.764007 -0.390960 0.425781 0.402344 1 0 1.000000
  0 -4.792276 -4.818419 5.554987 -0.602222 -0.791175 0.106630 0.503906 0.355469 1 0 1.000000
  0 -6.070900 -2.143118 5.601279 -0.880651 -0.417004 -0.224857 0.425781 0.355469 1 0 1.000000
head_mega
  0 2.123919 -6.686083 4.351407 -0.064114 -0.997435 -0.031832 0.503906 0.464844 1 0 1.000000
  0 2.356396 -4.868897 0.092583 0.143002 -0.536600 -0.831631 0.425781 0.496094 1 0 1.000000
  0 5.901673 -5.777490 4.119949 0.728459 -0.675039 -0.116916 0.503906 0.519531 1 0 1.000000
head_mega
  0 -4.792276 -2.546937 1.342455 -0.513267 -0.764007 -0.390960 0.425781 0.402344 1 0 1.000000
  0 2.356396 -4.868897 0.092583 0.143002 -0.536600 -0.831631 0.425781 0.496094 1 0 1.000000
  0 2.123919 -6.686083 4.351407 -0.064114 -0.997435 -0.031832 0.503906 0.464844 1 0 1.000000
head_mega
  0 -6.303378 2.652234 5.647570 -0.958872 -0.084023 -0.271117 0.214844 0.628906 1 0 1.000000
  0 -6.187139 6.185652 5.601279 -0.992152 0.031052 -0.121120 0.214844 0.691406 1 0 1.000000
  0 -5.547827 5.125627 0.092583 -0.659719 -0.306446 -0.686194 0.277344 0.691406 1 0 1.000000
head_mega
  0 4.390572 6.084697 5.045780 0.317161 0.947996 0.026701 0.503906 0.761719 1 0 1.000000
  0 7.296536 4.469420 1.110997 0.641181 0.432410 -0.633963 0.464844 0.691406 1 0 1.000000
  0 2.298277 4.974195 0.092583 0.152255 0.948725 -0.277018 0.417969 0.769531 1 0 1.000000
head_mega
  0 8.284565 4.267510 6.527110 0.841609 0.411736 0.349525 0.550781 0.691406 1 0 1.000000
  0 7.296536 4.469420 1.110997 0.641181 0.432410 -0.633963 0.464844 0.691406 1 0 1.000000
  0 4.390572 6.084697 5.045780 0.317161 0.947996 0.026701 0.503906 0.761719 1 0 1.000000
head_mega
  0 8.458921 1.036958 4.027366 0.959484 -0.253639 -0.122708 0.503906 0.628906 1 0 1.000000
  0 5.901673 -5.777490 4.119949 0.728459 -0.675039 -0.116916 0.503906 0.519531 1 0 1.000000
  0 3.170066 -0.376409 0.046292 0.265092 -0.113823 -0.957481 0.425781 0.597656 1 0 1.000000
head_mega
  0 7.296536 4.469420 1.110997 0.641181 0.432410 -0.633963 0.464844 0.691406 1 0 1.000000
  0 8.458921 1.036958 4.027366 0.959484 -0.253639 -0.122708 0.503906 0.628906 1 0 1.000000
  0 3.170066 -0.376409 0.046292 0.265092 -0.113823 -0.957481 0.425781 0.597656 1 0 1.000000
head_mega
  0 2.298277 4.974195 0.092583 0.038447 -0.022732 -0.999002 0.402344 0.691406 1 0 1.000000
  0 7.296536 4.469420 1.110997 0.641181 0.432410 -0.633963 0.464844 0.691406 1 0 1.000000
  0 3.170066 -0.376409 0.046292 0.265092 -0.113823 -0.957481 0.425781 0.597656 1 0 1.000000
head_mega
  0 3.170066 -0.376409 0.046292 0.265092 -0.113823 -0.957481 0.425781 0.597656 1 0 1.000000
  0 5.901673 -5.777490 4.119949 0.728459 -0.675039 -0.116916 0.503906 0.519531 1 0 1.000000
  0 2.356396 -4.868897 0.092583 0.143002 -0.536600 -0.831631 0.425781 0.496094 1 0 1.000000
head_mega
  0 3.170066 4.873240 9.767519 0.311443 0.408218 0.858115 0.605469 0.691406 1 0 1.000000
  0 -4.966634 5.125627 11.063683 -0.652632 -0.099163 0.751158 0.699219 0.691406 1 0 1.000000
  0 -2.874340 2.601757 11.804348 0.108624 -0.184487 0.976814 0.699219 0.636719 1 0 1.000000
head_mega
  0 8.284565 4.267510 6.527110 0.841609 0.411736 0.349525 0.550781 0.691406 1 0 1.000000
  0 3.170066 4.873240 9.767519 0.311443 0.408218 0.858115 0.605469 0.691406 1 0 1.000000
  0 4.448691 2.197938 10.554476 0.416074 -0.188828 0.889509 0.605469 0.636719 1 0 1.000000
head_mega
  0 -3.164936 1.844596 10.091560 -0.446806 -0.520139 0.727887 0.699219 0.621094 1 0 1.000000
  0 5.146122 0.784571 8.841688 0.583728 -0.370764 0.722354 0.589844 0.613281 1 0 1.000000
  0 -2.874340 2.601757 11.804348 0.108624 -0.184487 0.976814 0.699219 0.636719 1 0 1.000000
head_mega
  0 2.298277 4.974195 0.092583 0.004148 0.977974 -0.208684 0.378906 0.089844 1 0 1.000000
  0 -5.547827 5.125627 0.092583 0.018957 0.982214 -0.186805 0.230469 0.082031 1 0 1.000000
  0 -6.187139 6.185652 5.601279 0.015344 0.999863 -0.006236 0.214844 0.191406 1 0 1.000000
head_mega
  0 -4.966634 5.125627 11.063683 0.033053 0.977737 0.207216 0.230469 0.292969 1 0 1.000000
  0 4.390572 6.084697 5.045780 0.025219 0.999612 0.011844 0.410156 0.191406 1 0 1.000000
  0 -6.187139 6.185652 5.601279 0.015344 0.999863 -0.006236 0.214844 0.191406 1 0 1.000000
head_mega
  0 -3.164936 1.844596 10.091560 -0.446806 -0.520139 0.727887 0.699219 0.621094 1 0 1.000000
  0 -6.070900 -2.143118 5.601279 -0.811082 -0.063677 0.581456 0.792969 0.535156 1 0 1.000000
  0 -3.281175 -2.849801 9.258312 -0.359016 -0.114179 0.926321 0.691406 0.550781 1 0 1.000000
head_mega
  0 -3.281175 -2.849801 9.258312 -0.359016 -0.114179 0.926321 0.691406 0.550781 1 0 1.000000
  0 5.146122 0.784571 8.841688 0.583728 -0.370764 0.722354 0.589844 0.613281 1 0 1.000000
  0 -3.164936 1.844596 10.091560 -0.446806 -0.520139 0.727887 0.699219 0.621094 1 0 1.000000
head_mega
  0 2.123919 -6.686083 4.351407 -0.064114 -0.997435 -0.031832 0.503906 0.464844 1 0 1.000000
  0 -3.281175 -2.849801 9.258312 -0.371899 -0.774392 0.511868 0.589844 0.402344 1 0 1.000000
  0 -4.792276 -4.818419 5.554987 -0.602222 -0.791175 0.106630 0.503906 0.355469 1 0 1.000000
head_mega
  0 -6.303378 2.652234 5.647570 -0.892989 -0.121925 0.433249 0.792969 0.628906 1 0 1.000000
  0 -4.966634 5.125627 11.063683 -0.652632 -0.099163 0.751158 0.699219 0.691406 1 0 1.000000
  0 -6.187139 6.185652 5.601279 -0.973872 0.034977 0.224387 0.792969 0.691406 1 0 1.000000
head_mega
  0 -6.070900 -2.143118 5.601279 -0.942805 0.003625 -0.333325 0.214844 0.527344 1 0 1.000000
  0 -4.385441 2.046506 0.879540 -0.555886 -0.200630 -0.806684 0.316406 0.628906 1 0 1.000000
  0 -4.792276 -2.546937 1.342455 -0.627163 -0.001961 -0.778886 0.324219 0.550781 1 0 1.000000
head_mega
  0 3.170066 -0.376409 0.046292 0.265092 -0.113823 -0.957481 0.425781 0.597656 1 0 1.000000
  0 -4.792276 -2.546937 1.342455 -0.627163 -0.001961 -0.778886 0.324219 0.550781 1 0 1.000000
  0 -4.385441 2.046506 0.879540 -0.555886 -0.200630 -0.806684 0.316406 0.628906 1 0 1.000000
head_mega
  0 -4.385441 2.046506 0.879540 -0.555886 -0.200630 -0.806684 0.316406 0.628906 1 0 1.000000
  0 2.298277 4.974195 0.092583 0.038447 -0.022732 -0.999002 0.402344 0.691406 1 0 1.000000
  0 3.170066 -0.376409 0.046292 0.265092 -0.113823 -0.957481 0.425781 0.597656 1 0 1.000000
head_mega
  0 -4.792276 -2.546937 1.342455 -0.513267 -0.764007 -0.390960 0.425781 0.402344 1 0 1.000000
  0 2.123919 -6.686083 4.351407 -0.064114 -0.997435 -0.031832 0.503906 0.464844 1 0 1.000000
  0 -4.792276 -4.818419 5.554987 -0.602222 -0.791175 0.106630 0.503906 0.355469 1 0 1.000000
head_mega
  0 -6.303378 2.652234 5.647570 -0.958872 -0.084023 -0.271117 0.214844 0.628906 1 0 1.000000
  0 -5.547827 5.125627 0.092583 -0.659719 -0.306446 -0.686194 0.277344 0.691406 1 0 1.000000
  0 -4.385441 2.046506 0.879540 -0.555886 -0.200630 -0.806684 0.316406 0.628906 1 0 1.000000
head_mega
  0 3.170066 4.873240 9.767519 0.311443 0.408218 0.858115 0.605469 0.691406 1 0 1.000000
  0 -2.874340 2.601757 11.804348 0.108624 -0.184487 0.976814 0.699219 0.636719 1 0 1.000000
  0 4.448691 2.197938 10.554476 0.416074 -0.188828 0.889509 0.605469 0.636719 1 0 1.000000
head_mega
  0 -6.187139 6.185652 5.601279 0.015344 0.999863 -0.006236 0.214844 0.191406 1 0 1.000000
  0 4.390572 6.084697 5.045780 0.025219 0.999612 0.011844 0.410156 0.191406 1 0 1.000000
  0 2.298277 4.974195 0.092583 0.004148 0.977974 -0.208684 0.378906 0.089844 1 0 1.000000
head_mega
  0 -4.966634 5.125627 11.063683 -0.766751 -0.528854 0.363876 0.621094 0.253906 1 0 1.000000
  0 -3.164936 1.844596 10.091560 -0.766751 -0.528854 0.363876 0.613281 0.136719 1 0 1.000000
  0 -2.874340 2.601757 11.804348 -0.766751 -0.528854 0.363876 0.566406 0.160156 1 0 1.000000
head_mega
  0 4.390572 6.084697 5.045780 0.025219 0.999612 0.011844 0.410156 0.191406 1 0 1.000000
  0 -4.966634 5.125627 11.063683 0.033053 0.977737 0.207216 0.230469 0.292969 1 0 1.000000
  0 3.170066 4.873240 9.767519 0.072087 0.961463 0.265317 0.386719 0.277344 1 0 1.000000
end
