version 1
nodes
0 "root" -1
end
skeleton
  time 0
  0 0.000000 0.000000 0.000000 0.000000 0.000000 0.000000
end
triangles
head_knight
  0 -2.830139 0.916812 3.858487 0.620943 0.751517 0.222827 0.417969 0.738281 1 0 1.000000
  0 0.581831 -2.873997 7.135558 0.939101 0.023840 0.342812 0.394531 0.832031 1 0 1.000000
  0 -1.346674 0.427675 1.374256 0.557265 0.787074 0.264519 0.464844 0.738281 1 0 1.000000
head_knight
  0 1.546082 -1.936485 3.752775 0.906149 0.253791 0.338356 0.464844 0.832031 1 0 1.000000
  0 -1.346674 0.427675 1.374256 0.557265 0.787074 0.264519 0.464844 0.738281 1 0 1.000000
  0 0.581831 -2.873997 7.135558 0.939101 0.023840 0.342812 0.394531 0.832031 1 0 1.000000
head_knight
  0 -5.648722 -2.873997 2.008527 -0.656854 -0.016753 -0.753832 0.144531 0.699219 1 0 1.000000
  0 -1.346674 0.427675 1.374256 -0.565530 0.636020 -0.525027 0.089844 0.613281 1 0 1.000000
  0 -3.423524 -2.873997 0.105712 -0.630625 -0.181509 -0.754564 0.097656 0.699219 1 0 1.000000
head_knight
  0 -2.830139 0.916812 3.858487 -0.578547 0.662416 -0.475908 0.136719 0.613281 1 0 1.000000
  0 -1.346674 0.427675 1.374256 -0.565530 0.636020 -0.525027 0.089844 0.613281 1 0 1.000000
  0 -5.648722 -2.873997 2.008527 -0.656854 -0.016753 -0.753832 0.144531 0.699219 1 0 1.000000
head_knight
  0 -4.832816 2.343461 4.017055 0.249946 0.495302 -0.831987 0.917969 0.933594 1 0 1.000000
  0 -5.648722 -2.873997 2.008527 -0.084301 0.013958 -0.996343 0.808594 0.949219 1 0 1.000000
  0 -7.058013 -2.873997 2.219951 -0.148313 0.025397 -0.988614 0.808594 0.964844 1 0 1.000000
head_knight
  0 -2.830139 0.916812 3.858487 0.445248 0.460103 -0.768153 0.894531 0.894531 1 0 1.000000
  0 -4.832816 2.343461 4.017055 0.249946 0.495302 -0.831987 0.917969 0.933594 1 0 1.000000
  0 -0.604941 2.343461 7.082702 0.396097 0.210392 -0.893780 0.941406 0.839844 1 0 1.000000
head_knight
  0 1.249390 1.365188 6.289862 0.533307 0.548456 0.644034 0.527344 0.449219 1 0 1.000000
  0 4.809706 -1.936485 6.501286 0.714047 -0.424649 0.556606 0.550781 0.535156 1 0 1.000000
  0 9.779313 -0.998973 0.422848 0.765987 0.077354 0.638186 0.691406 0.535156 1 0 1.000000
head_knight
  0 2.436162 -2.873997 8.668382 0.806653 0.011204 0.590919 0.488281 0.535156 1 0 1.000000
  0 4.809706 -1.936485 6.501286 0.714047 -0.424649 0.556606 0.550781 0.535156 1 0 1.000000
  0 1.249390 1.365188 6.289862 0.533307 0.548456 0.644034 0.527344 0.449219 1 0 1.000000
head_knight
  0 9.779313 -0.998973 0.422848 0.765987 0.077354 0.638186 0.691406 0.535156 1 0 1.000000
  0 4.809706 -1.936485 6.501286 0.714047 -0.424649 0.556606 0.550781 0.535156 1 0 1.000000
  0 2.361988 -1.936485 5.814158 0.121601 -0.958420 -0.258157 0.535156 0.582031 1 0 1.000000
head_knight
  0 1.249390 1.365188 6.289862 -0.504524 -0.094124 -0.858252 0.941406 0.792969 1 0 1.000000
  0 9.779313 -0.998973 0.422848 -0.579630 -0.078461 -0.811094 0.933594 0.597656 1 0 1.000000
  0 2.361988 -1.936485 5.814158 -0.574645 -0.076241 -0.814844 0.878906 0.753906 1 0 1.000000
head_knight
  0 0.581831 -2.873997 7.135558 -0.089780 0.006879 -0.995938 0.855469 0.785156 1 0 1.000000
  0 -2.830139 0.916812 3.858487 0.445248 0.460103 -0.768153 0.894531 0.894531 1 0 1.000000
  0 -0.604941 2.343461 7.082702 0.396097 0.210392 -0.893780 0.941406 0.839844 1 0 1.000000
head_knight
  0 4.809706 -1.936485 6.501286 0.714047 -0.424649 0.556606 0.550781 0.535156 1 0 1.000000
  0 2.436162 -2.873997 8.668382 0.806653 0.011204 0.590919 0.488281 0.535156 1 0 1.000000
  0 2.361988 -1.936485 5.814158 0.121601 -0.958420 -0.258157 0.535156 0.582031 1 0 1.000000
head_knight
  0 -6.316281 -0.020700 8.826949 -0.134004 0.949988 0.282074 0.863281 0.339844 1 0 1.000000
  0 -7.651399 -0.020700 8.192677 -0.134004 0.949988 0.282074 0.832031 0.347656 1 0 1.000000
  0 -8.689825 -0.998973 10.994044 -0.134004 0.949988 0.282074 0.863281 0.394531 1 0 1.000000
head_knight
  0 -8.689825 -0.998973 10.994044 0.671629 -0.563202 0.481371 0.808594 0.394531 1 0 1.000000
  0 -7.058013 -1.447348 8.192677 0.671629 -0.563202 0.481371 0.824219 0.339844 1 0 1.000000
  0 -6.316281 -0.020700 8.826949 0.671629 -0.563202 0.481371 0.792969 0.339844 1 0 1.000000
head_knight
  0 -8.689825 -0.998973 10.994044 -0.833570 -0.346706 -0.430066 0.300781 0.660156 1 0 1.000000
  0 -7.651399 -0.020700 8.192677 -0.833569 -0.346706 -0.430066 0.269531 0.714844 1 0 1.000000
  0 -7.058013 -1.447348 8.192677 -0.833570 -0.346706 -0.430066 0.300781 0.722656 1 0 1.000000
head_knight
  0 -4.610296 -3.363133 13.478275 0.352965 0.785019 0.509078 0.285156 0.597656 1 0 1.000000
  0 -1.865886 -3.363133 11.575460 0.352965 0.785019 0.509078 0.300781 0.542969 1 0 1.000000
  0 -3.126832 -2.384860 10.941189 0.352965 0.785019 0.509078 0.269531 0.542969 1 0 1.000000
head_knight
  0 -7.058013 -2.873997 2.219951 -0.148313 0.025397 -0.988614 0.808594 0.964844 1 0 1.000000
  0 -5.648722 -2.873997 2.008527 -0.084301 0.013958 -0.996343 0.808594 0.949219 1 0 1.000000
  0 -4.610296 -8.050693 3.752775 0.211940 -0.453844 -0.865510 0.707031 0.933594 1 0 1.000000
head_knight
  0 -2.607619 -6.664805 3.594207 0.420954 -0.414485 -0.806846 0.730469 0.894531 1 0 1.000000
  0 -4.610296 -8.050693 3.752775 0.211940 -0.453844 -0.865510 0.707031 0.933594 1 0 1.000000
  0 -5.648722 -2.873997 2.008527 -0.084301 0.013958 -0.996343 0.808594 0.949219 1 0 1.000000
head_knight
  0 -2.904312 -8.050693 10.676908 0.376117 -0.881128 0.286618 0.332031 0.261719 1 0 1.000000
  0 -4.610296 -8.050693 3.752775 -0.516885 -0.836083 -0.183835 0.238281 0.167969 1 0 1.000000
  0 -0.159902 -8.050693 6.554142 0.437745 -0.814975 0.379730 0.238281 0.261719 1 0 1.000000
head_knight
  0 -6.687147 -7.602317 8.509813 -0.515511 -0.844445 -0.145471 0.332031 0.167969 1 0 1.000000
  0 -4.610296 -8.050693 3.752775 -0.516885 -0.836083 -0.183835 0.238281 0.167969 1 0 1.000000
  0 -2.904312 -8.050693 10.676908 0.376117 -0.881128 0.286618 0.332031 0.261719 1 0 1.000000
head_knight
  0 -9.060691 -2.873997 6.976990 -0.807704 -0.492579 -0.324007 0.332031 0.058594 1 0 1.000000
  0 -4.610296 -8.050693 3.752775 -0.516885 -0.836083 -0.183835 0.238281 0.167969 1 0 1.000000
  0 -6.687147 -7.602317 8.509813 -0.515511 -0.844445 -0.145471 0.332031 0.167969 1 0 1.000000
head_knight
  0 -7.058013 -2.873997 2.219951 -0.807337 -0.482376 -0.339883 0.238281 0.058594 1 0 1.000000
  0 -4.610296 -8.050693 3.752775 -0.516885 -0.836083 -0.183835 0.238281 0.167969 1 0 1.000000
  0 -9.060691 -2.873997 6.976990 -0.807704 -0.492579 -0.324007 0.332031 0.058594 1 0 1.000000
head_knight
  0 -5.722895 -3.363133 11.099756 -0.537137 -0.042330 0.842432 0.683594 0.113281 1 0 1.000000
  0 -6.687147 -7.602317 8.509813 -0.634560 -0.292683 0.715311 0.769531 0.058594 1 0 1.000000
  0 -2.904312 -8.050693 10.676908 -0.385565 -0.310223 0.868966 0.699219 0.011719 1 0 1.000000
head_knight
  0 -9.060691 -2.873997 6.976990 -0.778531 -0.027939 0.626984 0.769531 0.167969 1 0 1.000000
  0 -6.687147 -7.602317 8.509813 -0.634560 -0.292683 0.715311 0.769531 0.058594 1 0 1.000000
  0 -5.722895 -3.363133 11.099756 -0.537137 -0.042330 0.842432 0.683594 0.113281 1 0 1.000000
head_knight
  0 -8.467305 -5.727293 10.729765 -0.099010 -0.987724 0.120820 0.285156 0.535156 1 0 1.000000
  0 -7.799746 -6.175669 7.611261 -0.099010 -0.987724 0.120820 0.300781 0.488281 1 0 1.000000
  0 -6.316281 -6.175669 8.826949 -0.099010 -0.987724 0.120820 0.269531 0.488281 1 0 1.000000
head_knight
  0 -7.058013 -4.300645 8.192677 -0.872303 0.421777 -0.247371 0.300781 0.730469 1 0 1.000000
  0 -7.799746 -6.175669 7.611261 -0.872303 0.421776 -0.247371 0.269531 0.738281 1 0 1.000000
  0 -8.467305 -5.727293 10.729765 -0.872303 0.421776 -0.247371 0.300781 0.785156 1 0 1.000000
head_knight
  0 -3.126832 -4.300645 10.941189 -0.863261 0.000000 -0.504759 0.683594 0.378906 1 0 1.000000
  0 -4.610296 -3.363133 13.478275 -0.863260 0.000000 -0.504759 0.683594 0.324219 1 0 1.000000
  0 -3.126832 -2.384860 10.941189 -0.863261 0.000000 -0.504759 0.652344 0.371094 1 0 1.000000
head_knight
  0 -0.679114 -6.175669 1.955671 0.735374 -0.633367 0.240981 0.464844 0.917969 1 0 1.000000
  0 0.285137 -5.156634 0.105712 0.844844 -0.510854 0.158957 0.496094 0.917969 1 0 1.000000
  0 1.546082 -1.936485 3.752775 0.906149 0.253791 0.338356 0.464844 0.832031 1 0 1.000000
head_knight
  0 -3.423524 -2.873997 0.105712 -0.630625 -0.181509 -0.754564 0.097656 0.699219 1 0 1.000000
  0 0.285137 -5.156634 0.105712 -0.420877 -0.683809 -0.596043 0.066406 0.785156 1 0 1.000000
  0 -0.679114 -6.175669 1.955671 -0.428132 -0.660726 -0.616559 0.089844 0.785156 1 0 1.000000
head_knight
  0 -3.423524 -2.873997 0.105712 0.518186 0.327197 -0.790206 0.886719 0.316406 1 0 1.000000
  0 -1.346674 0.427675 1.374256 0.598752 -0.070084 -0.797863 0.964844 0.191406 1 0 1.000000
  0 1.546082 -1.936485 3.752775 0.523937 0.309567 -0.793510 0.839844 0.097656 1 0 1.000000
head_knight
  0 0.581831 -2.873997 7.135558 0.939101 0.023840 0.342812 0.394531 0.832031 1 0 1.000000
  0 -0.679114 -6.175669 1.955671 0.735374 -0.633367 0.240981 0.464844 0.917969 1 0 1.000000
  0 1.546082 -1.936485 3.752775 0.906149 0.253791 0.338356 0.464844 0.832031 1 0 1.000000
head_knight
  0 -2.607619 -6.664805 3.594207 0.511156 -0.775753 0.370036 0.417969 0.917969 1 0 1.000000
  0 -0.679114 -6.175669 1.955671 0.735374 -0.633367 0.240981 0.464844 0.917969 1 0 1.000000
  0 0.581831 -2.873997 7.135558 0.939101 0.023840 0.342812 0.394531 0.832031 1 0 1.000000
head_knight
  0 -5.648722 -2.873997 2.008527 -0.656854 -0.016753 -0.753832 0.144531 0.699219 1 0 1.000000
  0 -0.679114 -6.175669 1.955671 -0.428132 -0.660726 -0.616559 0.089844 0.785156 1 0 1.000000
  0 -2.607619 -6.664805 3.594207 -0.414942 -0.613811 -0.671609 0.136719 0.785156 1 0 1.000000
head_knight
  0 -3.423524 -2.873997 0.105712 -0.630625 -0.181509 -0.754564 0.097656 0.699219 1 0 1.000000
  0 -0.679114 -6.175669 1.955671 -0.428132 -0.660726 -0.616559 0.089844 0.785156 1 0 1.000000
  0 -5.648722 -2.873997 2.008527 -0.656854 -0.016753 -0.753832 0.144531 0.699219 1 0 1.000000
head_knight
  0 0.581831 -2.873997 7.135558 0.141171 0.975143 -0.170782 0.238281 0.417969 1 0 1.000000
  0 2.436162 -2.873997 8.668382 0.804518 0.033527 0.592981 0.238281 0.378906 1 0 1.000000
  0 2.361988 -3.363133 5.814158 0.174122 0.982164 -0.070964 0.199219 0.417969 1 0 1.000000
head_knight
  0 -0.753287 -3.363133 12.474012 0.693705 -0.529209 0.488581 0.332031 0.378906 1 0 1.000000
  0 -0.159902 -8.050693 6.554142 0.437745 -0.814975 0.379730 0.238281 0.261719 1 0 1.000000
  0 2.436162 -2.873997 8.668382 0.804518 0.033527 0.592981 0.238281 0.378906 1 0 1.000000
head_knight
  0 -2.904312 -8.050693 10.676908 0.376117 -0.881128 0.286618 0.332031 0.261719 1 0 1.000000
  0 -0.159902 -8.050693 6.554142 0.437745 -0.814975 0.379730 0.238281 0.261719 1 0 1.000000
  0 -0.753287 -3.363133 12.474012 0.693705 -0.529209 0.488581 0.332031 0.378906 1 0 1.000000
head_knight
  0 1.471910 -7.113181 6.025582 0.525563 -0.569404 0.632110 0.207031 0.285156 1 0 1.000000
  0 2.436162 -2.873997 8.668382 0.804518 0.033527 0.592981 0.238281 0.378906 1 0 1.000000
  0 -0.159902 -8.050693 6.554142 0.437745 -0.814975 0.379730 0.238281 0.261719 1 0 1.000000
head_knight
  0 9.779313 -3.363133 0.422848 0.774989 -0.056312 0.629461 0.035156 0.378906 1 0 1.000000
  0 4.809706 -3.811509 6.501286 0.720554 0.259590 0.642974 0.183594 0.378906 1 0 1.000000
  0 1.471910 -7.113181 6.025582 0.525563 -0.569404 0.632110 0.207031 0.285156 1 0 1.000000
head_knight
  0 1.471910 -7.113181 6.025582 0.525563 -0.569404 0.632110 0.207031 0.285156 1 0 1.000000
  0 4.809706 -3.811509 6.501286 0.720554 0.259590 0.642974 0.183594 0.378906 1 0 1.000000
  0 2.436162 -2.873997 8.668382 0.804518 0.033527 0.592981 0.238281 0.378906 1 0 1.000000
head_knight
  0 2.361988 -3.363133 5.814158 0.174122 0.982164 -0.070964 0.199219 0.417969 1 0 1.000000
  0 4.809706 -3.811509 6.501286 0.720554 0.259590 0.642974 0.183594 0.378906 1 0 1.000000
  0 9.779313 -3.363133 0.422848 0.774989 -0.056312 0.629461 0.035156 0.378906 1 0 1.000000
head_knight
  0 2.361988 -3.363133 5.814158 -0.581592 0.092476 -0.808207 0.738281 0.753906 1 0 1.000000
  0 9.779313 -3.363133 0.422848 -0.585372 0.093534 -0.805351 0.683594 0.597656 1 0 1.000000
  0 1.471910 -7.113181 6.025582 -0.478870 0.128515 -0.868428 0.683594 0.792969 1 0 1.000000
head_knight
  0 0.581831 -2.873997 7.135558 -0.116506 0.076269 -0.990257 0.769531 0.785156 1 0 1.000000
  0 2.361988 -3.363133 5.814158 -0.581592 0.092476 -0.808207 0.738281 0.753906 1 0 1.000000
  0 1.471910 -7.113181 6.025582 -0.478870 0.128515 -0.868428 0.683594 0.792969 1 0 1.000000
head_knight
  0 0.581831 -2.873997 7.135558 -0.116506 0.076269 -0.990257 0.769531 0.785156 1 0 1.000000
  0 1.471910 -7.113181 6.025582 -0.478870 0.128515 -0.868428 0.683594 0.792969 1 0 1.000000
  0 -0.159902 -8.050693 6.554142 0.385519 -0.088870 -0.918410 0.675781 0.839844 1 0 1.000000
head_knight
  0 -0.159902 -8.050693 6.554142 0.385519 -0.088870 -0.918410 0.675781 0.839844 1 0 1.000000
  0 -2.607619 -6.664805 3.594207 0.420954 -0.414485 -0.806846 0.730469 0.894531 1 0 1.000000
  0 0.581831 -2.873997 7.135558 -0.116506 0.076269 -0.990257 0.769531 0.785156 1 0 1.000000
head_knight
  0 2.361988 -3.363133 5.814158 0.174122 0.982164 -0.070964 0.199219 0.417969 1 0 1.000000
  0 2.436162 -2.873997 8.668382 0.804518 0.033527 0.592981 0.238281 0.378906 1 0 1.000000
  0 4.809706 -3.811509 6.501286 0.720554 0.259590 0.642974 0.183594 0.378906 1 0 1.000000
head_knight
  0 -5.722895 -3.363133 11.099756 -0.537137 -0.042330 0.842432 0.683594 0.113281 1 0 1.000000
  0 -2.904312 -8.050693 10.676908 -0.385565 -0.310223 0.868966 0.699219 0.011719 1 0 1.000000
  0 -0.753287 -3.363133 12.474012 -0.266363 -0.035276 0.963227 0.605469 0.066406 1 0 1.000000
head_knight
  0 -6.316281 -6.175669 8.826949 0.639916 0.461091 0.614737 0.644531 0.332031 1 0 1.000000
  0 -7.058013 -4.300645 8.192677 0.639916 0.461091 0.614737 0.613281 0.332031 1 0 1.000000
  0 -8.467305 -5.727293 10.729765 0.639916 0.461091 0.614737 0.628906 0.386719 1 0 1.000000
head_knight
  0 -3.126832 -4.300645 10.941189 0.343682 -0.797606 0.495689 0.300781 0.605469 1 0 1.000000
  0 -1.865886 -3.363133 11.575460 0.343682 -0.797606 0.495688 0.269531 0.605469 1 0 1.000000
  0 -4.610296 -3.363133 13.478275 0.343682 -0.797606 0.495688 0.292969 0.660156 1 0 1.000000
head_knight
  0 -3.423524 -2.873997 0.105712 0.518186 0.327197 -0.790206 0.886719 0.316406 1 0 1.000000
  0 1.546082 -1.936485 3.752775 0.523937 0.309567 -0.793510 0.839844 0.097656 1 0 1.000000
  0 0.285137 -5.156634 0.105712 0.383225 0.622636 -0.682249 0.761719 0.230469 1 0 1.000000
head_knight
  0 2.361988 -1.936485 5.814158 0.121601 -0.958420 -0.258157 0.535156 0.582031 1 0 1.000000
  0 2.436162 -2.873997 8.668382 0.806653 0.011204 0.590919 0.488281 0.535156 1 0 1.000000
  0 0.581831 -2.873997 7.135558 0.254397 -0.916825 -0.307756 0.488281 0.582031 1 0 1.000000
head_knight
  0 -3.126832 1.365188 10.941189 0.329504 0.844591 0.422011 0.394531 0.417969 1 0 1.000000
  0 -4.832816 2.343461 4.017055 -0.554409 0.827191 -0.091569 0.496094 0.324219 1 0 1.000000
  0 -6.909667 1.365188 8.774094 -0.503785 0.862782 -0.042516 0.394531 0.324219 1 0 1.000000
head_knight
  0 -0.604941 2.343461 7.082702 0.344606 0.808211 0.477537 0.496094 0.417969 1 0 1.000000
  0 -4.832816 2.343461 4.017055 -0.554409 0.827191 -0.091569 0.496094 0.324219 1 0 1.000000
  0 -3.126832 1.365188 10.941189 0.329504 0.844591 0.422011 0.394531 0.417969 1 0 1.000000
head_knight
  0 -9.060691 -2.873997 6.976990 -0.817239 0.491823 -0.300384 0.394531 0.214844 1 0 1.000000
  0 -4.832816 2.343461 4.017055 -0.554409 0.827191 -0.091569 0.496094 0.324219 1 0 1.000000
  0 -7.058013 -2.873997 2.219951 -0.815452 0.466029 -0.343299 0.496094 0.214844 1 0 1.000000
head_knight
  0 -6.909667 1.365188 8.774094 -0.503785 0.862782 -0.042516 0.394531 0.324219 1 0 1.000000
  0 -4.832816 2.343461 4.017055 -0.554409 0.827191 -0.091569 0.496094 0.324219 1 0 1.000000
  0 -9.060691 -2.873997 6.976990 -0.817239 0.491823 -0.300384 0.394531 0.214844 1 0 1.000000
head_knight
  0 -0.753287 -3.363133 12.474012 0.630383 0.524385 0.572396 0.394531 0.535156 1 0 1.000000
  0 -0.604941 2.343461 7.082702 0.344606 0.808211 0.477537 0.496094 0.417969 1 0 1.000000
  0 -3.126832 1.365188 10.941189 0.329504 0.844591 0.422011 0.394531 0.417969 1 0 1.000000
head_knight
  0 2.436162 -2.873997 8.668382 0.806653 0.011204 0.590919 0.488281 0.535156 1 0 1.000000
  0 -0.604941 2.343461 7.082702 0.344606 0.808211 0.477537 0.496094 0.417969 1 0 1.000000
  0 -0.753287 -3.363133 12.474012 0.630383 0.524385 0.572396 0.394531 0.535156 1 0 1.000000
head_knight
  0 -0.604941 2.343461 7.082702 0.344606 0.808211 0.477537 0.496094 0.417969 1 0 1.000000
  0 2.436162 -2.873997 8.668382 0.806653 0.011204 0.590919 0.488281 0.535156 1 0 1.000000
  0 1.249390 1.365188 6.289862 0.533307 0.548456 0.644034 0.527344 0.449219 1 0 1.000000
head_knight
  0 1.249390 1.365188 6.289862 -0.504524 -0.094124 -0.858252 0.941406 0.792969 1 0 1.000000
  0 2.361988 -1.936485 5.814158 -0.574645 -0.076241 -0.814844 0.878906 0.753906 1 0 1.000000
  0 0.581831 -2.873997 7.135558 -0.089780 0.006879 -0.995938 0.855469 0.785156 1 0 1.000000
head_knight
  0 -0.604941 2.343461 7.082702 0.396097 0.210392 -0.893780 0.941406 0.839844 1 0 1.000000
  0 1.249390 1.365188 6.289862 -0.504524 -0.094124 -0.858252 0.941406 0.792969 1 0 1.000000
  0 0.581831 -2.873997 7.135558 -0.089780 0.006879 -0.995938 0.855469 0.785156 1 0 1.000000
head_knight
  0 -3.126832 1.365188 10.941189 -0.381098 0.239189 0.893058 0.605469 0.167969 1 0 1.000000
  0 -6.909667 1.365188 8.774094 -0.626347 0.211794 0.750222 0.675781 0.214844 1 0 1.000000
  0 -5.722895 -3.363133 11.099756 -0.537137 -0.042330 0.842432 0.683594 0.113281 1 0 1.000000
head_knight
  0 -5.722895 -3.363133 11.099756 -0.537137 -0.042330 0.842432 0.683594 0.113281 1 0 1.000000
  0 -6.909667 1.365188 8.774094 -0.626347 0.211794 0.750222 0.675781 0.214844 1 0 1.000000
  0 -9.060691 -2.873997 6.976990 -0.778531 -0.027939 0.626984 0.769531 0.167969 1 0 1.000000
head_knight
  0 -0.753287 -3.363133 12.474012 -0.266363 -0.035276 0.963227 0.605469 0.066406 1 0 1.000000
  0 -3.126832 1.365188 10.941189 -0.381098 0.239189 0.893058 0.605469 0.167969 1 0 1.000000
  0 -5.722895 -3.363133 11.099756 -0.537137 -0.042330 0.842432 0.683594 0.113281 1 0 1.000000
head_knight
  0 -2.830139 0.916812 3.858487 0.445248 0.460103 -0.768153 0.894531 0.894531 1 0 1.000000
  0 -5.648722 -2.873997 2.008527 -0.084301 0.013958 -0.996343 0.808594 0.949219 1 0 1.000000
  0 -4.832816 2.343461 4.017055 0.249946 0.495302 -0.831987 0.917969 0.933594 1 0 1.000000
head_knight
  0 -2.607619 -6.664805 3.594207 0.420954 -0.414485 -0.806846 0.730469 0.894531 1 0 1.000000
  0 -0.159902 -8.050693 6.554142 0.385519 -0.088870 -0.918410 0.675781 0.839844 1 0 1.000000
  0 -4.610296 -8.050693 3.752775 0.211940 -0.453844 -0.865510 0.707031 0.933594 1 0 1.000000
end
