version 1
nodes
0 "root" -1
end
skeleton
  time 0
  0 0.000000 0.000000 0.000000 0.000000 0.000000 0.000000
end
triangles
zom_gib
  0 -2.900116 3.159118 0.532673 -0.559085 0.826539 0.065239 0.757812 0.476562 1 0 1.000000
  0 3.825718 1.168305 -0.453918 0.910618 0.351590 -0.217160 0.507812 0.570312 1 0 1.000000
  0 -0.921930 1.687647 -2.708982 -0.283776 0.796081 -0.534533 0.679688 0.742188 1 0 1.000000
zom_gib
  0 -3.352273 -1.125459 2.811228 0.072593 -0.871983 0.484123 0.164062 0.335938 1 0 1.000000
  0 2.667065 -2.358898 -0.312976 0.608344 -0.779609 -0.148751 0.351562 0.554688 1 0 1.000000
  0 1.254075 1.168305 3.257544 0.389396 0.275829 0.878800 0.585938 0.273438 1 0 1.000000
zom_gib
  0 -3.126194 -2.099226 -1.299567 0.018635 -0.934530 -0.355396 0.179688 0.617188 1 0 1.000000
  0 -0.921930 1.687647 -2.708982 0.237963 -0.329864 -0.913544 0.382812 0.742188 1 0 1.000000
  0 2.667065 -2.358898 -0.312976 0.608344 -0.779609 -0.148751 0.351562 0.554688 1 0 1.000000
zom_gib
  0 -3.352273 -1.125459 2.811228 0.072593 -0.871983 0.484123 0.164062 0.335938 1 0 1.000000
  0 -3.126194 -2.099226 -1.299567 0.018635 -0.934530 -0.355396 0.179688 0.617188 1 0 1.000000
  0 2.667065 -2.358898 -0.312976 0.608344 -0.779609 -0.148751 0.351562 0.554688 1 0 1.000000
zom_gib
  0 -2.900116 3.159118 0.532673 -0.559085 0.826539 0.065239 0.757812 0.476562 1 0 1.000000
  0 -3.126194 -2.099226 -1.299567 -0.938823 0.148619 -0.310682 0.882812 0.585938 1 0 1.000000
  0 -3.352273 -1.125459 2.811228 -0.847841 0.315941 0.425848 0.867188 0.382812 1 0 1.000000
zom_gib
  0 -2.900116 3.159118 0.532673 -0.559085 0.826539 0.065239 0.757812 0.476562 1 0 1.000000
  0 -3.352273 -1.125459 2.811228 -0.847841 0.315941 0.425848 0.867188 0.382812 1 0 1.000000
  0 1.254075 1.168305 3.257544 0.389396 0.275829 0.878800 0.585938 0.273438 1 0 1.000000
zom_gib
  0 -2.900116 3.159118 0.532673 -0.559085 0.826539 0.065239 0.757812 0.476562 1 0 1.000000
  0 1.254075 1.168305 3.257544 0.389396 0.275829 0.878800 0.585938 0.273438 1 0 1.000000
  0 3.825718 1.168305 -0.453918 0.910618 0.351590 -0.217160 0.507812 0.570312 1 0 1.000000
zom_gib
  0 3.825718 1.168305 -0.453918 0.910618 0.351590 -0.217160 0.507812 0.570312 1 0 1.000000
  0 2.667065 -2.358898 -0.312976 0.608344 -0.779609 -0.148751 0.351562 0.554688 1 0 1.000000
  0 -0.921930 1.687647 -2.708982 0.237963 -0.329864 -0.913544 0.382812 0.742188 1 0 1.000000
zom_gib
  0 1.254075 1.168305 3.257544 0.389396 0.275829 0.878800 0.585938 0.273438 1 0 1.000000
  0 2.667065 -2.358898 -0.312976 0.608344 -0.779609 -0.148751 0.351562 0.554688 1 0 1.000000
  0 3.825718 1.168305 -0.453918 0.910618 0.351590 -0.217160 0.507812 0.570312 1 0 1.000000
zom_gib
  0 -3.126194 -2.099226 -1.299567 -0.938823 0.148619 -0.310682 0.882812 0.585938 1 0 1.000000
  0 -2.900116 3.159118 0.532673 -0.559085 0.826539 0.065239 0.757812 0.476562 1 0 1.000000
  0 -0.921930 1.687647 -2.708982 -0.283776 0.796081 -0.534533 0.679688 0.742188 1 0 1.000000
end
