version 1
nodes
0 "Spine.001" -1
1 "Spine.002" 0
2 "Spine.003" 1
3 "Spine.004" 2
4 "Spine.005" 3
5 "Spine.006" 4
6 "Spine.007" 5
7 "Arm.R.001" 2
8 "Arm.R.002" 7
9 "Arm.R.003" 8
10 "Arm.R.004" 9
11 "Arm.L.001" 2
12 "Arm.L.002" 11
13 "Arm.L.003" 12
14 "Arm.L.004" 13
15 "ForearmIK.R" -1
16 "ForearmIK.L" -1
17 "Spine.008" -1
18 "Leg.R.001" 17
19 "Leg.R.002" 18
20 "Leg.R.003" 19
21 "Leg.R.004" 20
22 "Leg.R.005" 21
23 "Leg.L.001" 17
24 "Leg.L.002" 23
25 "Leg.L.003" 24
26 "Leg.L.004" 25
27 "Leg.L.005" 26
28 "UpperarmIK.R" -1
29 "UpperarmIK.L" -1
30 "ShinIK.R" -1
31 "ShinIK.L" -1
32 "KneeIK.R" -1
33 "KneeIK.L" -1
end
skeleton
  time 0
  0 0.062474 -0.176185 4.945735 1.570803 0.063658 1.456359
  1 0.000000 5.135229 0.000000 -0.051449 0.154636 -0.009212
  2 0.000001 4.930599 0.000000 -0.037539 -0.013734 0.110101
  3 -0.000000 2.720947 0.000000 0.062180 -0.099316 -0.124026
  4 -0.000000 1.764670 0.000000 -0.097353 0.111276 -0.163392
  5 -0.000000 1.155205 0.000000 -0.035432 -0.009858 0.569457
  6 0.000000 1.786737 0.000000 0.000057 0.000515 0.133626
  7 -0.000000 2.720947 0.000000 -1.569225 2.953401 -0.026657
  8 -0.000001 4.613523 -0.000002 -0.653276 -0.275421 -0.646030
  9 -0.000001 12.046064 0.000001 -0.452285 0.449150 1.561908
  10 -0.000004 14.285700 0.000001 -0.122265 -0.197090 0.319615
  11 -0.000000 2.720946 -0.016560 -1.675447 0.069211 -0.303180
  12 -0.000000 4.613522 0.000003 0.731286 2.614705 1.269119
  13 0.000001 12.046071 -0.000001 0.645787 -0.077349 0.367834
  14 0.000001 14.285706 0.000002 0.199825 -0.252929 0.220201
  15 14.992751 3.538886 5.574225 0.000000 -0.000000 3.141593
  16 -18.484911 -12.133698 0.493963 0.000000 -0.000000 2.926284
  17 0.062474 -0.176185 4.908478 -1.619942 -0.000000 1.570796
  18 0.000001 3.041575 -2.524300 0.017999 0.098782 -0.351958
  19 -0.000001 12.303573 -0.000001 -0.019226 0.031859 0.533862
  20 0.000001 11.084806 -0.000001 0.160603 1.570778 0.000000
  21 0.000000 2.979605 0.000000 1.444800 -0.004762 -0.000600
  22 -0.000000 2.441538 -0.000002 0.094890 0.007089 0.006249
  23 -0.000000 3.041575 2.540861 0.100347 -0.068567 -0.344106
  24 0.000001 12.303570 -0.000002 0.028893 -0.036754 0.762156
  25 0.000003 11.084804 0.000001 -0.265747 -1.528273 0.159548
  26 -0.000000 2.979606 -0.000001 -1.587086 0.001863 -3.077685
  27 -0.000000 2.441538 0.000000 0.228589 0.404211 0.068019
  28 7.352109 -17.910280 0.375319 0.000000 -0.000000 3.141593
  29 12.843514 -15.847958 -0.272514 0.000000 -0.000000 3.141593
  30 3.100051 2.096293 -20.446436 -0.138472 -0.000000 3.141593
  31 -3.084082 -0.714647 -19.942678 -0.083907 0.041850 -3.133906
  32 4.825252 22.437963 -9.228452 0.000000 0.000000 -0.000000
  33 -5.038689 22.639812 -9.228452 0.000000 0.000000 -0.000000
  time 1
  0 0.062474 -0.176185 4.242124 1.563144 0.142132 1.455430
  1 0.000000 5.135229 -0.000000 -0.044079 0.169675 -0.103903
  2 -0.000000 4.930600 0.000001 -0.037539 -0.013733 0.110101
  3 0.000000 2.720946 0.000000 0.064984 -0.103509 -0.124304
  4 0.000001 1.764667 -0.000000 -0.090957 0.116416 -0.163091
  5 -0.000000 1.155204 0.000000 -0.035406 -0.009845 0.568417
  6 0.000000 1.786738 0.000000 0.000057 0.000515 0.133627
  7 0.000000 2.720946 0.000000 -1.614318 3.022667 -0.025089
  8 -0.000000 4.613522 -0.000001 -0.742071 -0.316850 -0.636223
  9 0.000002 12.046064 0.000001 -0.444643 0.374402 1.392832
  10 -0.000006 14.285693 -0.000004 -0.115503 -0.198182 0.318259
  11 0.000000 2.720946 -0.016560 -1.672264 0.053607 -0.306245
  12 0.000000 4.613521 -0.000001 -2.373693 0.439353 -1.839456
  13 -0.000004 12.046071 -0.000000 0.922929 -0.204828 0.496595
  14 -0.000003 14.285714 -0.000001 0.201538 -0.252065 0.220298
  15 14.071055 2.513275 0.863587 0.000000 -0.000000 3.141593
  16 -17.020325 -8.851191 0.520471 0.000000 -0.000000 2.926284
  17 0.062474 -0.176185 4.201838 -1.619942 -0.000000 1.570796
  18 0.000001 3.041575 -2.524300 0.012140 0.098079 -0.426587
  19 0.000002 12.303571 0.000000 -0.025590 0.036584 0.744025
  20 0.000001 11.084809 -0.000002 0.160603 1.570778 0.000000
  21 0.000000 2.979607 -0.000000 1.456353 -0.004525 0.000679
  22 0.000000 2.441537 0.000001 0.305458 0.028908 0.013220
  23 -0.000000 3.041575 2.540861 0.103402 -0.061719 -0.409329
  24 -0.000001 12.303573 -0.000003 0.033096 -0.041414 0.912290
  25 0.000005 11.084803 0.000001 -0.265746 -1.528273 0.159545
  26 -0.000000 2.979606 -0.000000 -1.600568 0.002767 -3.078697
  27 0.000000 2.441538 -0.000001 0.362917 0.380439 0.110631
  28 7.352109 -17.910280 0.375319 0.000000 -0.000000 3.141593
  29 10.664785 -15.847958 -0.272514 0.000000 -0.000000 3.141593
  30 3.100051 1.476479 -20.433393 -0.138472 -0.000000 3.141593
  31 -3.084082 -0.805143 -19.931770 -0.083907 0.041850 -3.133906
  32 4.825252 22.437963 -9.228452 0.000000 0.000000 -0.000000
  33 -5.038689 22.639812 -9.228452 0.000000 0.000000 -0.000000
  time 2
  0 0.062474 -0.176185 2.557701 1.548915 0.257458 1.452745
  1 -0.000001 5.135229 0.000000 -0.034319 0.205020 -0.315175
  2 -0.000000 4.930600 -0.000000 -0.037539 -0.013734 0.110101
  3 -0.000001 2.720946 -0.000000 0.068249 -0.108386 -0.124643
  4 0.000000 1.764669 -0.000000 -0.085717 0.120624 -0.162822
  5 -0.000001 1.155205 -0.000000 -0.035338 -0.009809 0.565618
  6 -0.000000 1.786738 0.000000 0.000057 0.000515 0.133627
  7 -0.000001 2.720946 -0.000000 1.461482 -0.008322 3.126991
  8 -0.000000 4.613522 -0.000002 -0.996925 -0.117428 -0.456158
  9 0.000000 12.046065 0.000001 -0.341811 0.161716 0.874095
  10 -0.000004 14.285704 -0.000003 -0.107634 -0.199440 0.316673
  11 -0.000000 2.720947 -0.016561 -1.667364 0.030023 -0.310972
  12 0.000001 4.613522 -0.000001 0.781783 2.749905 1.078830
  13 0.000002 12.046071 0.000002 1.510109 -0.564284 0.639014
  14 0.000002 14.285697 0.000001 0.203531 -0.251060 0.220411
  15 12.286667 0.137946 -7.881838 0.000000 -0.000000 3.141593
  16 -12.626561 0.996332 0.599995 0.000000 -0.000000 2.926284
  17 0.062474 -0.176185 2.514385 -1.619942 -0.000000 1.570796
  18 0.000001 3.041574 -2.524300 0.002807 0.094912 -0.531697
  19 0.000001 12.303574 -0.000001 -0.033647 0.047181 1.098271
  20 0.000000 11.084808 -0.000001 0.160603 1.570778 0.000000
  21 0.000000 2.979606 -0.000001 1.487777 -0.003956 0.004169
  22 0.000000 2.441538 -0.000000 0.518914 0.049013 0.024772
  23 -0.000000 3.041575 2.540861 0.109185 -0.048140 -0.527815
  24 -0.000002 12.303576 -0.000003 0.039031 -0.051919 1.201733
  25 0.000001 11.084804 0.000001 -0.265746 -1.528273 0.159548
  26 -0.000000 2.979605 0.000000 -1.615870 0.003777 -3.079859
  27 -0.000000 2.441537 -0.000000 0.565115 0.333296 0.164067
  28 7.352109 -17.910280 0.375319 0.000000 -0.000000 3.141593
  29 5.871586 -15.847958 -0.272514 0.000000 -0.000000 3.141593
  30 3.100051 0.112889 -20.342083 -0.138472 -0.000000 3.141593
  31 -3.084082 -1.062855 -19.900700 -0.083907 0.041850 -3.133906
  32 4.825252 22.437963 -9.228452 0.000000 0.000000 -0.000000
  33 -5.038689 22.639812 -9.228452 0.000000 0.000000 -0.000000
  time 3
  0 0.062474 -0.176185 0.532081 1.532820 0.375971 1.447974
  1 0.000000 5.135229 -0.000000 -0.032577 0.241518 -0.527717
  2 -0.000000 4.930601 -0.000000 -0.037539 -0.013734 0.110101
  3 0.000000 2.720946 -0.000000 0.071826 -0.113721 -0.125031
  4 0.000000 1.764670 -0.000000 -0.081518 0.123993 -0.162590
  5 -0.000000 1.155205 -0.000000 -0.035153 -0.009710 0.558074
  6 0.000000 1.786737 -0.000000 0.000057 0.000515 0.133626
  7 0.000000 2.720946 -0.000000 1.389922 -0.150979 -3.134178
  8 0.000000 4.613521 0.000001 -1.035159 0.096300 -0.497514
  9 0.000004 12.046064 0.000001 -0.272181 0.094940 0.662543
  10 0.000002 14.285695 0.000005 -0.099025 -0.200802 0.314926
  11 0.000001 2.720946 -0.016561 -1.661057 0.000452 -0.317066
  12 -0.000001 4.613521 0.000000 -1.283084 1.220415 -2.025139
  13 -0.000001 12.046079 -0.000001 1.627909 -0.636613 0.639172
  14 -0.000003 14.285700 -0.000000 0.205709 -0.249961 0.220538
  15 11.070027 -2.534848 -12.590628 0.000000 -0.000000 3.141593
  16 -5.303623 17.408871 0.732536 0.000000 -0.000000 2.926284
  17 0.062474 -0.176185 0.494823 -1.619942 -0.000000 1.570796
  18 0.000001 3.041576 -2.524300 -0.005735 0.090739 -0.606699
  19 0.000001 12.303573 -0.000000 -0.037378 0.058810 1.423146
  20 -0.000001 11.084808 0.000000 0.160603 1.570778 0.000000
  21 -0.000000 2.979607 -0.000001 1.534237 -0.003317 0.009357
  22 -0.000000 2.441536 0.000002 0.616237 0.057462 0.032470
  23 -0.000000 3.041575 2.540861 0.115533 -0.034696 -0.628256
  24 0.000001 12.303572 -0.000002 0.041688 -0.063310 1.482437
  25 0.000001 11.084805 -0.000001 -0.265751 -1.528273 0.159552
  26 -0.000000 2.979606 0.000000 1.509513 3.136766 0.060487
  27 0.000000 2.441537 0.000000 0.762387 0.276804 0.205973
  28 7.352109 -17.910280 0.375319 0.000000 -0.000000 3.141593
  29 1.078386 -15.847958 -0.272514 0.000000 -0.000000 3.141593
  30 3.100051 -1.250701 -20.094244 -0.138472 -0.000000 3.141593
  31 -3.084082 -1.448547 -19.854198 -0.083907 0.041850 -3.133906
  32 4.825252 22.437963 -9.228452 0.000000 0.000000 -0.000000
  33 -5.038689 22.639812 -9.228452 0.000000 0.000000 -0.000000
  time 4
  0 0.062474 -0.176185 -1.285281 1.519258 0.470485 1.442513
  1 -0.000000 5.135230 0.000000 -0.034441 0.257813 -0.623595
  2 -0.000000 4.930600 -0.000000 -0.037539 -0.013734 0.110101
  3 0.000000 2.720946 0.000000 0.075559 -0.119282 -0.125457
  4 -0.000000 1.764669 0.000000 -0.078247 0.126617 -0.162401
  5 -0.000000 1.155205 -0.000000 -0.034658 -0.009436 0.537718
  6 0.000001 1.786736 0.000000 0.000057 0.000515 0.133626
  7 0.000000 2.720946 0.000000 1.329709 -0.265401 -3.107404
  8 -0.000000 4.613521 0.000001 -0.889847 0.024850 -0.778666
  9 0.000000 12.046064 0.000005 -0.383318 0.218797 1.027020
  10 -0.000003 14.285696 0.000008 -0.090045 -0.202206 0.313091
  11 0.000000 2.720945 -0.016560 -1.653669 -0.033097 -0.324221
  12 -0.000000 4.613522 0.000000 -0.967557 1.257040 -1.614623
  13 0.000003 12.046067 0.000001 1.831491 -0.750560 0.615436
  14 0.000000 14.285693 -0.000000 0.207981 -0.248817 0.220673
  15 11.023751 -2.936558 -12.590628 0.000000 -0.000000 3.141593
  16 -4.753853 16.940243 -0.775115 0.000000 -0.000000 2.926284
  17 0.062474 -0.176185 -1.301617 -1.619942 -0.000000 1.570796
  18 0.000001 3.041576 -2.524300 -0.014192 0.087212 -0.679900
  19 0.000001 12.303573 0.000002 -0.037503 0.068996 1.693979
  20 -0.000002 11.084808 0.000001 0.160603 1.570778 0.000000
  21 -0.000000 2.979607 0.000000 1.590824 -0.002864 0.015707
  22 -0.000000 2.441538 0.000001 0.712501 0.065036 0.040852
  23 -0.000000 3.041575 2.540861 0.122415 -0.024620 -0.686540
  24 0.000002 12.303574 -0.000002 0.041510 -0.072317 1.698482
  25 -0.000004 11.084806 -0.000002 -0.265755 -1.528273 0.159557
  26 -0.000000 2.979606 0.000001 1.493305 3.135736 0.059225
  27 0.000000 2.441539 0.000000 0.951704 0.214503 0.234851
  28 7.352109 -17.910280 0.375319 0.000000 -0.000000 3.141593
  29 -1.100342 -15.847957 -0.272514 0.000000 -0.000000 3.141593
  30 3.100051 -1.870515 -19.611607 -0.138472 -0.000000 3.141593
  31 -3.084082 -1.903501 -19.799347 -0.083907 0.041850 -3.133906
  32 4.825252 22.437963 -9.228452 0.000000 0.000000 -0.000000
  33 -5.038689 22.639812 -9.228452 0.000000 0.000000 -0.000000
  time 5
  0 0.062474 -0.176185 -2.705557 1.509341 0.536913 1.437694
  1 -0.000000 5.135229 -0.000000 -0.034006 0.249322 -0.601052
  2 -0.000000 4.930600 -0.000000 -0.037539 -0.013734 0.110101
  3 0.000000 2.720947 -0.000000 0.079298 -0.124842 -0.125905
  4 -0.000000 1.764670 -0.000000 -0.075788 0.128588 -0.162254
  5 0.000000 1.155204 0.000000 -0.033347 -0.008644 0.482597
  6 -0.000000 1.786737 -0.000000 0.000057 0.000515 0.133626
  7 0.000000 2.720947 -0.000000 1.303621 -0.311500 -3.092000
  8 0.000000 4.613523 0.000001 -0.830979 -0.054978 -0.888675
  9 0.000003 12.046065 0.000001 -0.401841 0.251523 1.108240
  10 -0.000001 14.285704 0.000002 -0.081065 -0.203593 0.311245
  11 0.000000 2.720947 -0.016560 -1.645561 -0.068602 -0.332090
  12 -0.000000 4.613522 -0.000001 1.652876 1.912770 0.944733
  13 -0.000001 12.046069 -0.000000 1.796998 -0.732457 0.621534
  14 -0.000002 14.285697 0.000001 0.210250 -0.247672 0.220811
  15 10.891967 -4.080532 -12.590628 0.000000 -0.000000 3.141593
  16 -3.251858 15.659931 -4.894094 0.000000 -0.000000 2.926284
  17 0.062474 -0.176185 -2.693585 -1.619942 -0.000000 1.570796
  18 0.000001 3.041575 -2.524300 -0.050799 0.092215 -1.385001
  19 -0.000000 12.303571 -0.000001 -0.033528 0.081753 2.050217
  20 -0.000002 11.084810 -0.000001 0.160603 1.570778 0.000000
  21 -0.000000 2.979608 0.000000 1.652518 -0.002781 0.022647
  22 0.000000 2.441537 0.000002 0.324562 0.027969 0.012377
  23 -0.000000 3.041575 2.540861 0.136998 -0.032385 -0.570750
  24 -0.000001 12.303577 -0.000002 0.040905 -0.075826 1.783757
  25 -0.000004 11.084803 -0.000002 -0.265754 -1.528273 0.159555
  26 -0.000000 2.979607 0.000000 1.478007 3.134784 0.058021
  27 0.000000 2.441538 0.000000 1.140805 0.139524 0.240187
  28 7.352109 -17.910280 0.375319 0.000000 -0.000000 3.141593
  29 -1.100342 -15.847957 -0.272514 0.000000 -0.000000 3.141593
  30 3.100051 5.021369 -16.592733 -0.138472 -0.000000 3.141593
  31 -3.084082 -4.042557 -20.007784 -0.083907 0.041850 -3.133906
  32 4.825252 22.437963 -9.228452 0.000000 0.000000 -0.000000
  33 -5.038689 22.639812 -9.228452 0.000000 0.000000 -0.000000
  time 6
  0 0.062474 -0.176185 -3.630081 1.503327 0.576324 1.434425
  1 0.000001 5.135228 0.000000 -0.034622 0.226480 -0.547853
  2 -0.000001 4.930600 -0.000000 -0.031298 0.000068 -0.283486
  3 0.000000 2.720947 -0.000000 0.082889 -0.130172 -0.126354
  4 -0.000000 1.764669 -0.000000 -0.074025 0.130001 -0.162146
  5 0.000000 1.155205 0.000000 -0.030016 -0.006135 0.332388
  6 -0.000000 1.786736 -0.000000 0.000057 0.000515 0.133626
  7 0.000000 2.720947 -0.000000 -1.820772 -2.836833 0.049444
  8 0.000000 4.613522 -0.000001 -1.000655 0.141165 -0.836961
  9 -0.000001 12.046070 -0.000000 -0.404295 0.256358 1.119955
  10 0.000001 14.285697 0.000002 -0.072452 -0.204907 0.309463
  11 0.000000 2.720947 -0.016560 -1.637147 -0.104042 -0.340273
  12 0.000000 4.613522 -0.000001 -0.984521 1.437186 -1.915563
  13 0.000001 12.046066 -0.000001 1.581140 -0.608331 0.640346
  14 0.000001 14.285704 -0.000000 0.212426 -0.246575 0.220945
  15 10.694738 -5.792609 -12.590628 0.000000 -0.000000 3.141593
  16 -1.200093 13.910992 -10.520721 0.000000 -0.000000 2.926284
  17 0.062474 -0.176185 -3.593209 -1.619942 -0.000000 1.570796
  18 0.000001 3.041576 -2.524300 -0.044181 0.116534 -1.288554
  19 -0.000001 12.303574 -0.000001 -0.037786 0.063815 1.556311
  20 -0.000000 11.084810 -0.000000 0.160603 1.570778 0.000000
  21 0.000000 2.979607 -0.000001 1.714210 -0.003126 0.029579
  22 -0.000000 2.441537 -0.000001 -0.066711 -0.017651 -0.000002
  23 -0.000000 3.041576 2.540861 0.159309 -0.085730 -0.171580
  24 -0.000001 12.303571 -0.000001 0.041850 -0.067321 1.578526
  25 -0.000002 11.084804 -0.000000 -0.265750 -1.528273 0.159552
  26 0.000000 2.979605 0.000000 1.464526 3.133959 0.056951
  27 0.000000 2.441540 0.000000 1.331252 0.063628 0.231005
  28 7.352109 -17.910280 0.375319 0.000000 -0.000000 3.141593
  29 -1.100342 -15.847957 -0.272514 0.000000 -0.000000 3.141593
  30 3.100052 8.644011 -20.634068 -0.138472 -0.000000 3.141593
  31 -3.084083 -9.206696 -20.510996 -0.083907 0.041850 -3.133906
  32 4.825252 22.437963 -9.228452 0.000000 0.000000 -0.000000
  33 -5.038689 22.639812 -9.228452 0.000000 0.000000 -0.000000
  time 7
  0 0.062474 -0.176185 -3.960180 1.501346 0.589356 1.433281
  1 -0.000000 5.135229 -0.000000 -0.039116 0.193573 -0.485968
  2 0.000000 4.930599 0.000000 -0.031301 0.000054 -0.283104
  3 -0.000000 2.720946 -0.000000 0.086175 -0.135043 -0.126781
  4 0.000000 1.764670 0.000000 -0.072844 0.130948 -0.162073
  5 0.000000 1.155204 0.000000 -0.023259 0.002814 -0.073881
  6 -0.000000 1.786737 -0.000000 0.000057 0.000515 0.133626
  7 -0.000000 2.720946 -0.000000 -1.779241 -2.852130 0.044528
  8 0.000001 4.613522 0.000000 -1.057512 0.094130 -0.720066
  9 0.000004 12.046061 0.000001 -0.355583 0.178746 0.921618
  10 0.000001 14.285686 0.000005 -0.064577 -0.206095 0.307824
  11 0.000000 2.720947 -0.016560 -1.628909 -0.137407 -0.348299
  12 0.000000 4.613521 -0.000001 1.580737 1.801282 0.816417
  13 0.000000 12.046066 -0.000002 1.525012 -0.573616 0.639601
  14 0.000002 14.285706 0.000000 0.214415 -0.245572 0.221070
  15 10.462090 -7.812142 -12.590628 0.000000 -0.000000 3.141593
  16 -2.606038 11.982683 -12.383385 0.000000 -0.000000 2.926284
  17 0.062474 -0.176185 -3.912615 -1.619942 -0.000000 1.570796
  18 0.000001 3.041575 -2.524300 -0.037246 0.097764 -1.184149
  19 0.000001 12.303573 -0.000001 -0.036483 0.074189 1.834416
  20 -0.000002 11.084807 -0.000001 0.160603 1.570778 0.000000
  21 -0.000000 2.979609 -0.000000 1.770796 -0.003817 0.035908
  22 -0.000000 2.441537 0.000001 0.190731 0.014395 0.004990
  23 -0.000000 3.041574 2.540861 0.164480 -0.095078 -0.119496
  24 -0.000001 12.303575 -0.000002 0.041850 -0.066695 1.563542
  25 0.000000 11.084805 -0.000000 -0.265750 -1.528273 0.159551
  26 0.000000 2.979606 0.000002 1.453768 3.133311 0.056094
  27 0.000000 2.441538 -0.000000 1.373616 0.047123 0.227760
  28 7.352109 -17.910280 0.375319 0.000000 -0.000000 3.141593
  29 -1.100342 -15.847957 -0.272514 0.000000 -0.000000 3.141593
  30 3.100051 4.460541 -20.273878 -0.138472 -0.000000 3.141593
  31 -3.084083 -9.911501 -20.494356 -0.083907 0.041850 -3.133906
  32 4.825252 22.437963 -9.228452 0.000000 0.000000 -0.000000
  33 -5.038689 22.639812 -9.228452 0.000000 0.000000 -0.000000
  time 8
  0 0.062474 -0.176185 -3.762175 1.503520 0.576836 1.434864
  1 0.000000 5.135229 0.000000 -0.048805 0.155478 -0.437878
  2 0.000000 4.930599 0.000000 -0.031408 -0.000392 -0.271260
  3 0.000000 2.720947 0.000000 0.089003 -0.139228 -0.127162
  4 0.000000 1.764670 0.000000 -0.072128 0.131523 -0.162029
  5 -0.000000 1.155204 0.000000 -0.023170 0.002793 -0.072983
  6 -0.000000 1.786737 0.000000 0.000057 0.000515 0.133626
  7 0.000000 2.720947 0.000000 -1.730026 -2.870441 0.038556
  8 0.000001 4.613521 -0.000003 -0.966542 -0.224806 -1.114363
  9 0.000000 12.046065 -0.000002 -0.418438 0.287366 1.193706
  10 -0.000002 14.285702 0.000000 -0.057810 -0.207106 0.306408
  11 0.000000 2.720946 -0.016560 -1.621399 -0.166717 -0.355628
  12 0.000000 4.613521 -0.000001 1.372909 2.003834 1.048849
  13 0.000001 12.046069 0.000003 1.892406 -0.781198 0.602700
  14 -0.000001 14.285696 0.000003 0.216123 -0.244711 0.221179
  15 11.467378 -8.126537 -6.115155 0.000000 -0.000000 3.141593
  16 -4.665546 10.899672 -7.834795 0.000000 -0.000000 2.926284
  17 0.062474 -0.176185 -3.727028 -1.619942 -0.000000 1.570796
  18 0.000001 3.041576 -2.524300 -0.027490 0.087359 -0.928222
  19 -0.000001 12.303576 -0.000001 -0.035313 0.077785 1.934732
  20 0.000000 11.084810 -0.000000 0.160602 1.570778 0.000000
  21 -0.000000 2.979607 -0.000000 1.817252 -0.004652 0.041068
  22 -0.000000 2.441538 -0.000000 0.447432 0.043989 0.017915
  23 -0.000000 3.041576 2.540861 0.125011 -0.002080 -0.872265
  24 0.000001 12.303573 -0.000002 0.038507 -0.083351 1.973210
  25 -0.000005 11.084805 -0.000002 -0.265755 -1.528273 0.159558
  26 0.000000 2.979606 0.000001 1.446636 3.132886 0.055527
  27 0.000000 2.441538 0.000001 1.178513 0.124158 0.231074
  28 7.352109 -17.910280 0.375319 0.000000 -0.000000 3.141593
  29 -1.100342 -15.847957 -0.272514 0.000000 -0.000000 3.141593
  30 3.100051 0.277071 -19.913689 -0.138472 -0.000000 3.141593
  31 -3.084082 -0.736266 -19.765928 -0.083907 0.041850 -3.133906
  32 4.825252 22.437963 -9.228452 0.000000 0.000000 -0.000000
  33 -5.038689 22.639812 -9.228452 0.000000 0.000000 -0.000000
  time 9
  0 0.062474 -0.176185 -2.441756 1.515401 0.501208 1.441349
  1 0.000000 5.135229 0.000000 -0.059817 0.120026 -0.396721
  2 -0.000000 4.930599 -0.000001 -0.032276 -0.003404 -0.190338
  3 0.000000 2.720945 0.000000 0.091216 -0.142499 -0.127468
  4 0.000000 1.764669 0.000000 -0.071760 0.131819 -0.162007
  5 -0.000000 1.155204 -0.000000 -0.022668 0.002675 -0.067906
  6 0.000001 1.786738 -0.000000 0.000057 0.000515 0.133626
  7 0.000000 2.720945 0.000000 -1.689225 -2.885913 0.034237
  8 0.000000 4.613522 0.000000 -0.723273 -0.436955 -0.955008
  9 0.000005 12.046068 0.000006 -0.440154 0.353825 1.346352
  10 -0.000007 14.285691 0.000008 -0.052519 -0.207889 0.305296
  11 0.000001 2.720946 -0.016560 -1.615232 -0.190027 -0.361654
  12 -0.000000 4.613522 -0.000001 1.091246 2.215755 1.232903
  13 -0.000006 12.046067 -0.000001 2.097566 -0.871196 0.542763
  14 -0.000001 14.285703 0.000002 0.217458 -0.244038 0.221265
  15 11.761821 -6.173550 -4.218534 0.000000 -0.000000 3.141593
  16 -6.725052 9.816659 -3.286204 0.000000 -0.000000 2.926284
  17 0.062474 -0.176185 -2.437879 -1.619942 -0.000000 1.570796
  18 0.000001 3.041576 -2.524300 -0.021905 0.090680 -0.868502
  19 -0.000002 12.303574 -0.000000 -0.036966 0.072192 1.779917
  20 -0.000000 11.084812 0.000001 0.160603 1.570778 0.000000
  21 -0.000000 2.979607 -0.000001 1.848674 -0.005352 0.044534
  22 0.000000 2.441537 0.000002 0.276643 0.026453 0.008062
  23 -0.000000 3.041575 2.540861 0.120768 -0.013818 -0.806829
  24 0.000000 12.303573 -0.000003 0.040728 -0.076608 1.802965
  25 -0.000003 11.084805 -0.000002 -0.265754 -1.528273 0.159555
  26 0.000000 2.979608 0.000000 1.444035 3.132731 0.055332
  27 0.000000 2.441539 0.000001 0.969161 0.204867 0.217925
  28 11.970684 -17.910280 0.375319 0.000000 -0.000000 3.141593
  29 -1.100342 -15.847957 -0.272514 0.000000 -0.000000 3.141593
  30 3.100051 0.426312 -20.063196 -0.138472 -0.000000 3.141593
  31 -3.084082 -0.711798 -20.085537 -0.083907 0.041850 -3.133906
  32 4.825252 22.437963 -9.228452 0.000000 0.000000 -0.000000
  33 -5.038689 22.639812 -9.228452 0.000000 0.000000 -0.000000
  time 10
  0 0.062474 -0.176185 1.090679 1.542265 0.302867 1.451121
  1 0.000000 5.135229 -0.000000 -0.057561 0.105706 -0.238941
  2 -0.000000 4.930600 -0.000000 -0.037539 -0.013734 0.110101
  3 -0.000000 2.720946 0.000000 0.092658 -0.144628 -0.127671
  4 0.000001 1.764670 0.000000 -0.071625 0.131929 -0.162000
  5 -0.000001 1.155205 -0.000000 -0.019839 0.001958 -0.039195
  6 0.000000 1.786736 0.000000 0.000057 0.000515 0.133626
  7 -0.000000 2.720946 0.000000 -1.672318 -2.892491 0.033278
  8 -0.000001 4.613522 -0.000000 -0.207814 -0.669822 -1.122667
  9 0.000001 12.046068 0.000000 -0.451238 0.481730 1.637007
  10 -0.000001 14.285705 -0.000006 -0.049074 -0.208395 0.304570
  11 -0.000000 2.720947 -0.016560 -1.611060 -0.205417 -0.365734
  12 0.000000 4.613522 -0.000002 0.660092 2.491845 1.015123
  13 0.000002 12.046070 0.000001 1.873402 -0.771828 0.606939
  14 0.000002 14.285704 0.000001 0.218328 -0.243600 0.221322
  15 12.472666 -1.458622 0.360316 0.000000 -0.000000 3.141593
  16 -8.784558 8.733647 1.262387 0.000000 -0.000000 2.926284
  17 0.062474 -0.176185 1.053421 -1.619942 -0.000000 1.570796
  18 0.000001 3.041575 -2.524300 -0.005491 0.095820 -0.659611
  19 0.000000 12.303574 -0.000002 -0.036581 0.054895 1.317246
  20 -0.000001 11.084811 0.000001 0.160603 1.570778 0.000000
  21 0.000000 2.979607 0.000000 1.860226 -0.005637 0.045803
  22 -0.000000 2.441538 -0.000001 0.106129 0.007503 0.001337
  23 -0.000000 3.041576 2.540861 0.110951 -0.044654 -0.583721
  24 -0.000001 12.303572 -0.000003 0.040070 -0.054940 1.278138
  25 0.000001 11.084803 0.000001 -0.265747 -1.528273 0.159547
  26 -0.000000 2.979606 -0.000000 -1.175773 -0.036114 -3.038831
  27 0.000000 2.441539 -0.000002 0.163636 0.410497 0.037959
  28 16.589258 -17.910280 0.375319 0.000000 -0.000000 3.141593
  29 -1.100342 -15.847957 -0.272514 0.000000 -0.000000 3.141593
  30 3.100051 0.575553 -20.336550 -0.138472 -0.000000 3.141593
  31 -3.084082 -0.652726 -20.857140 -0.083907 0.041850 -3.133906
  32 4.825252 22.437963 -9.228452 0.000000 0.000000 -0.000000
  33 -5.038689 22.639812 -9.228452 0.000000 0.000000 -0.000000
end
