version 1
nodes
0 "Spine.001" -1
1 "Spine.002" 0
2 "Spine.003" 1
3 "Spine.004" 2
4 "Spine.005" 3
5 "Spine.006" 4
6 "Spine.007" 5
7 "Arm.R.001" 2
8 "Arm.R.002" 7
9 "Arm.R.003" 8
10 "Arm.R.004" 9
11 "Arm.L.001" 2
12 "Arm.L.002" 11
13 "Arm.L.003" 12
14 "Arm.L.004" 13
15 "ForearmIK.R" -1
16 "ForearmIK.L" -1
17 "Spine.008" -1
18 "Leg.R.001" 17
19 "Leg.R.002" 18
20 "Leg.R.003" 19
21 "Leg.R.004" 20
22 "Leg.R.005" 21
23 "Leg.L.001" 17
24 "Leg.L.002" 23
25 "Leg.L.003" 24
26 "Leg.L.004" 25
27 "Leg.L.005" 26
28 "UpperarmIK.R" -1
29 "UpperarmIK.L" -1
30 "ShinIK.R" -1
31 "ShinIK.L" -1
32 "KneeIK.R" -1
33 "KneeIK.L" -1
end
skeleton
  time 0
  0 0.062474 -0.329300 4.756622 1.570796 0.293090 1.570796
  1 0.000000 5.135229 0.000000 -0.053072 0.158217 0.083886
  2 0.000000 4.930599 -0.000000 -0.000400 -0.000979 -0.130135
  3 0.000000 2.720945 -0.000000 0.058055 -0.093140 -0.123639
  4 -0.000001 1.764671 -0.000000 0.029741 -0.042738 -0.156190
  5 -0.000000 1.155205 0.000000 0.000855 0.003533 0.187655
  6 0.000000 1.786736 -0.000000 0.000057 0.000515 0.133627
  7 0.000000 2.720945 -0.000000 -1.521550 -2.999260 -0.002785
  8 -0.000000 4.613522 0.000001 -0.728529 0.104546 0.032884
  9 -0.000001 12.046068 0.000005 -0.408689 0.625024 1.999949
  10 0.000001 14.285713 -0.000002 -0.132219 -0.195466 0.321597
  11 -0.000000 2.720947 -0.016561 -1.987994 0.230302 -0.336527
  12 0.000000 4.613521 0.000001 0.727717 2.498909 0.848799
  13 -0.000002 12.046077 -0.000002 1.354679 -0.465177 0.623162
  14 -0.000002 14.285707 0.000001 0.197301 -0.254201 0.220062
  15 0.655534 12.698704 9.045492 0.000000 -0.000000 3.141593
  16 -12.414711 -2.406056 0.493963 0.000000 -0.000000 2.926284
  17 0.062474 -0.329300 4.637829 -1.570796 -0.000000 1.570796
  18 0.000001 3.041575 -2.524301 -0.065671 0.091106 0.404310
  19 -0.000001 12.303572 -0.000000 -0.035209 0.050654 1.199144
  20 -0.000001 11.084805 0.000001 0.305234 1.570778 0.000000
  21 -0.000000 2.979604 0.000001 1.605902 -0.003505 0.016005
  22 0.000000 2.441536 -0.000003 0.445684 0.051477 0.006747
  23 -0.000002 3.041576 2.540861 0.067793 -0.091421 -0.998074
  24 0.000000 12.303569 0.000001 0.038646 -0.050958 1.176968
  25 0.000000 11.084804 -0.000001 -0.265573 -1.528273 -0.120117
  26 -0.000000 2.979605 -0.000000 1.436365 3.132282 0.054708
  27 0.000000 2.441538 0.000001 0.105853 0.427896 0.024694
  28 19.652239 -4.031944 0.375319 0.000000 -0.000000 3.141593
  29 12.843514 -15.847958 -0.272514 0.000000 -0.000000 3.141593
  30 3.100049 -16.298504 -9.242165 -0.283104 0.000000 3.141593
  31 -3.084081 7.908606 -16.012693 -0.363651 0.042346 3.137429
  32 4.825252 22.437963 -9.228452 0.000000 0.000000 -0.000000
  33 -5.038689 22.639812 -9.228452 0.000000 0.000000 -0.000000
  time 1
  0 0.062474 0.308686 3.854851 1.570796 0.172412 1.570796
  1 -0.000000 5.135229 0.000000 -0.110801 0.310982 0.007537
  2 -0.000000 4.930601 0.000000 -0.000400 -0.000980 -0.130135
  3 -0.000001 2.720947 0.000000 0.058055 -0.093140 -0.123639
  4 0.000001 1.764668 0.000000 0.094660 -0.111271 -0.235531
  5 -0.000000 1.155205 0.000000 0.003924 0.008939 0.135904
  6 0.000000 1.786737 0.000000 0.000057 0.000515 0.133627
  7 -0.000001 2.720947 0.000000 -1.468998 -2.800805 -0.175091
  8 -0.000002 4.613521 -0.000003 -0.589928 0.491563 0.064006
  9 -0.000001 12.046067 -0.000001 -0.349133 0.701532 2.242553
  10 -0.000000 14.285703 0.000000 -0.160145 -0.306999 0.352870
  11 -0.000000 2.720946 -0.016561 -1.987994 0.230303 -0.336526
  12 0.000001 4.613522 -0.000000 0.536673 2.440916 0.776391
  13 0.000000 12.046072 -0.000002 1.433707 -0.515852 0.633412
  14 0.000004 14.285711 -0.000001 0.191255 -0.224819 0.215701
  15 -3.901747 11.074740 12.945185 0.000000 -0.000000 3.141593
  16 -12.411133 -4.133434 0.840350 0.000000 -0.000000 2.926284
  17 0.062474 0.308685 3.743513 -1.570796 -0.000000 1.570796
  18 0.000001 3.041575 -2.524302 -0.096764 0.085882 0.273839
  19 -0.000001 12.303571 -0.000000 -0.037475 0.069215 1.699832
  20 0.000001 11.084806 0.000000 0.305234 1.570778 0.000000
  21 0.000000 2.979606 -0.000000 1.551394 -0.003743 0.009053
  22 0.000000 2.441538 -0.000000 0.445684 0.051477 0.006747
  23 -0.000002 3.041576 2.540861 0.049774 -0.101322 -0.630607
  24 -0.000000 12.303569 0.000000 0.026819 -0.034903 0.695705
  25 0.000000 11.084804 -0.000001 -0.265770 -1.528272 0.190536
  26 -0.000000 2.979604 0.000001 1.436365 3.132282 0.054708
  27 -0.000000 2.441537 0.000001 0.105853 0.427896 0.024694
  28 23.763628 4.155838 0.375319 0.000000 -0.000000 3.141593
  29 12.199196 -15.847958 -1.917668 0.000000 -0.000000 3.141593
  30 3.100049 -13.254106 -6.663416 -0.283104 0.000000 3.141593
  31 -3.084081 6.728667 -20.316269 -0.052920 0.041592 -3.132613
  32 4.825252 22.437963 -9.228452 0.000000 0.000000 -0.000000
  33 -5.038689 22.639812 -9.228452 0.000000 0.000000 -0.000000
  time 2
  0 0.062474 1.830037 2.953079 1.570796 0.051672 1.570796
  1 -0.000001 5.135229 -0.000000 -0.169818 0.459634 -0.079973
  2 0.000000 4.930599 0.000000 -0.000400 -0.000979 -0.130135
  3 -0.000000 2.720947 -0.000000 0.058055 -0.093140 -0.123639
  4 0.000000 1.764668 -0.000000 0.159119 -0.166857 -0.318667
  5 -0.000001 1.155205 0.000000 0.009139 0.014857 0.116867
  6 0.000000 1.786736 -0.000000 0.000057 0.000515 0.133626
  7 -0.000000 2.720947 -0.000000 -1.373307 -2.615133 -0.375165
  8 -0.000001 4.613522 -0.000002 -0.976653 0.789575 0.006402
  9 -0.000004 12.046061 0.000000 -0.353828 0.696937 2.226177
  10 -0.000005 14.285694 -0.000001 -0.223023 -0.513458 0.424273
  11 0.000000 2.720946 -0.016561 -1.987994 0.230303 -0.336527
  12 -0.000000 4.613521 0.000000 0.430763 2.319199 0.985047
  13 -0.000001 12.046074 0.000004 1.413388 -0.502854 0.631204
  14 0.000003 14.285708 -0.000005 0.175645 -0.151162 0.204064
  15 -7.904539 9.450778 14.021519 0.000000 -0.000000 3.141593
  16 -12.400397 -9.315567 1.879513 0.000000 -0.000000 2.926284
  17 0.062474 1.830036 2.922354 -1.570796 -0.000000 1.570796
  18 0.000001 3.041575 -2.524301 -0.070755 0.069861 -0.088146
  19 0.000001 12.303572 0.000000 -0.037789 0.064127 1.564591
  20 0.000000 11.084809 0.000001 0.305234 1.570778 0.000000
  21 0.000000 2.979606 0.000000 1.480813 -0.004614 0.000084
  22 0.000000 2.441536 0.000001 0.445684 0.051477 0.006747
  23 -0.000002 3.041575 2.540861 0.050042 -0.098310 0.053444
  24 0.000000 12.303566 -0.000000 0.027851 -0.035793 0.728272
  25 0.000001 11.084803 -0.000001 -0.265381 -1.528271 -0.426192
  26 -0.000000 2.979606 -0.000000 1.436365 3.132282 0.054708
  27 0.000000 2.441537 -0.000000 0.105853 0.427896 0.024694
  28 24.314716 3.340394 0.375319 0.000000 -0.000000 3.141593
  29 10.330763 -15.847958 -5.840729 0.000000 -0.000000 3.141593
  30 3.100050 -8.184107 -13.336355 -0.283104 0.000000 3.141593
  31 -3.084082 -6.734310 -20.214823 -0.669773 0.039126 3.124864
  32 4.825252 22.437963 -9.228452 0.000000 0.000000 -0.000000
  33 -5.038689 22.639812 -9.228452 0.000000 0.000000 -0.000000
  time 3
  0 0.062475 3.645841 4.814789 1.570796 0.114232 1.570796
  1 -0.000001 5.135229 0.000000 -0.141139 0.409556 -0.069631
  2 0.000000 4.930599 -0.000000 -0.000400 -0.000979 -0.130135
  3 -0.000000 2.720947 0.000000 0.058055 -0.093140 -0.123639
  4 0.000000 1.764669 -0.000000 0.052066 -0.101516 -0.190792
  5 -0.000001 1.155205 0.000000 0.011922 0.017631 0.114177
  6 0.000001 1.786736 -0.000000 0.000057 0.000515 0.133627
  7 -0.000000 2.720947 0.000000 -1.373307 -2.615133 -0.375165
  8 0.000001 4.613521 -0.000000 -0.818060 0.956298 0.239529
  9 0.000000 12.046064 0.000003 -0.446923 0.387231 1.421749
  10 -0.000004 14.285694 0.000001 -0.255756 -0.624909 0.469537
  11 0.000000 2.720946 -0.016560 -1.987994 0.230302 -0.336526
  12 -0.000000 4.613523 -0.000001 -1.866455 1.030270 -1.523024
  13 0.000002 12.046078 -0.000000 0.527618 -0.036002 0.305563
  14 0.000004 14.285707 0.000004 0.154154 -0.055311 0.187273
  15 -12.940062 17.894442 9.496329 0.000000 -0.000000 3.141593
  16 -12.382503 -17.952452 3.611450 0.000000 -0.000000 2.926284
  17 0.062475 3.645842 4.833814 -1.570796 -0.000000 1.570796
  18 0.000001 3.041575 -2.524302 -0.063308 0.068081 -0.689091
  19 0.000001 12.303574 -0.000000 -0.037578 0.060373 1.464897
  20 0.000000 11.084806 0.000000 0.305234 1.570778 0.000000
  21 0.000000 2.979605 -0.000001 1.410423 -0.006111 -0.008781
  22 0.000000 2.441536 0.000001 0.445684 0.051477 0.006747
  23 -0.000001 3.041575 2.540861 0.023392 -0.117725 0.587805
  24 0.000000 12.303572 -0.000001 0.000211 -0.025183 0.005047
  25 0.000000 11.084805 -0.000001 -0.265760 -1.528273 0.176133
  26 -0.000000 2.979604 0.000001 1.237959 3.128476 0.032629
  27 -0.000000 2.441538 -0.000001 0.550556 0.345715 0.167480
  28 24.729462 2.524954 0.375319 0.000000 -0.000000 3.141593
  29 7.334994 -15.847958 -10.523091 0.000000 -0.000000 3.141593
  30 3.100051 3.613589 -15.589315 -0.283104 0.000000 3.141593
  31 -3.084083 -11.040975 -20.000856 -0.067322 0.041717 -3.133213
  32 4.825252 22.437963 -9.228452 0.000000 0.000000 -0.000000
  33 -5.038689 22.639812 -9.228452 0.000000 0.000000 -0.000000
  time 4
  0 0.062475 5.167192 6.676499 1.570796 0.230578 1.570796
  1 -0.000001 5.135230 0.000000 -0.078486 0.280463 -0.051130
  2 0.000000 4.930598 -0.000000 -0.000400 -0.000980 -0.130135
  3 0.000001 2.720946 -0.000000 0.058055 -0.093140 -0.123639
  4 -0.000000 1.764670 -0.000000 -0.088869 0.029366 -0.072543
  5 0.000000 1.155204 -0.000000 0.010795 0.015992 0.118094
  6 -0.000000 1.786737 -0.000000 0.000057 0.000515 0.133626
  7 0.000001 2.720946 -0.000000 -1.373307 -2.615133 -0.375165
  8 0.000001 4.613521 0.000001 0.303005 1.080345 0.919654
  9 0.000001 12.046067 0.000001 -0.003213 0.000827 0.007351
  10 -0.000002 14.285702 0.000002 -0.158167 -0.598441 0.336804
  11 0.000000 2.720946 -0.016560 -1.987994 0.230302 -0.336527
  12 -0.000001 4.613522 -0.000000 -1.352108 1.067774 -1.440373
  13 -0.000003 12.046074 -0.000003 0.006478 0.047191 0.003870
  14 -0.000002 14.285706 -0.000006 0.131073 0.040145 0.168440
  15 4.755261 36.596973 6.657808 0.000000 -0.000000 3.141593
  16 -15.742354 -13.478191 3.232297 0.000000 -0.000000 2.926284
  17 0.062475 5.167193 6.745274 -1.570796 -0.000000 1.570796
  18 0.000001 3.041575 -2.524302 -0.071988 0.104917 -0.805914
  19 -0.000001 12.303573 -0.000001 -0.034614 0.049219 1.158002
  20 -0.000000 11.084807 0.000001 0.305234 1.570778 0.000000
  21 -0.000000 2.979605 -0.000001 1.356475 -0.007679 -0.015494
  22 0.000000 2.441538 -0.000002 0.445684 0.051477 0.006747
  23 -0.000001 3.041575 2.540861 0.083436 -0.086043 0.176812
  24 0.000002 12.303571 0.000000 0.041703 -0.063488 1.486683
  25 -0.000000 11.084801 0.000000 -0.265758 -1.528273 0.176132
  26 0.000000 2.979605 0.000000 1.436365 3.132282 0.054708
  27 0.000001 2.441539 0.000001 0.333290 0.407153 0.111785
  28 19.508791 7.102408 3.423520 0.000000 -0.000000 3.141593
  29 3.308676 -15.847958 -14.446146 0.000000 -0.000000 3.141593
  30 3.100051 10.078090 -15.237579 -0.283104 0.000000 3.141593
  31 -3.084083 -8.098163 -7.253904 -0.067322 0.041717 -3.133213
  32 4.825252 22.437963 -9.228452 0.000000 0.000000 -0.000000
  33 -5.038689 22.639812 -9.228452 0.000000 0.000000 -0.000000
  time 5
  0 0.062475 5.805178 2.953079 1.570796 0.293090 1.570796
  1 -0.000000 5.135229 0.000000 -0.013819 0.106584 -0.040558
  2 0.000000 4.930599 -0.000000 -0.000400 -0.000980 -0.130135
  3 0.000000 2.720947 0.000000 0.058055 -0.093140 -0.123639
  4 -0.000000 1.764671 0.000000 -0.127092 0.069202 -0.261951
  5 0.000001 1.155204 -0.000000 0.008821 0.012878 0.145634
  6 0.000001 1.786735 -0.000000 0.000057 0.000515 0.133626
  7 0.000000 2.720947 0.000000 -1.542466 -2.822468 -0.250973
  8 0.000001 4.613521 -0.000001 0.283842 0.645417 0.735143
  9 0.000001 12.046069 0.000005 -0.003221 0.000827 0.007369
  10 0.000000 14.285703 0.000005 0.015326 -0.372459 0.041461
  11 0.000001 2.720947 -0.016560 -1.739136 -0.020113 -0.308350
  12 -0.000002 4.613520 0.000001 -1.499090 1.123621 -1.551155
  13 -0.000001 12.046078 -0.000002 0.147277 0.040728 0.087793
  14 -0.000003 14.285709 0.000001 0.112061 0.112953 0.152428
  15 19.102638 34.282860 4.981769 0.000000 -0.000000 3.141593
  16 -25.821909 -0.055404 2.094838 0.000000 -0.000000 2.926284
  17 0.062475 5.805178 2.834285 -1.570796 -0.000000 1.570796
  18 0.000001 3.041576 -2.524302 -0.063328 0.099514 -0.557529
  19 -0.000000 12.303573 -0.000000 -0.033024 0.046015 1.063250
  20 -0.000001 11.084805 0.000001 0.139997 1.570778 0.000000
  21 0.000001 2.979604 -0.000001 1.334963 -0.008405 -0.018146
  22 -0.000000 2.441538 -0.000001 0.445684 0.051477 0.006747
  23 -0.000001 3.041576 2.540861 0.144623 -0.140388 0.467570
  24 0.000001 12.303567 -0.000000 0.041830 -0.068316 1.602358
  25 0.000001 11.084803 -0.000000 -0.265759 -1.528273 0.176133
  26 0.000000 2.979606 -0.000000 -1.469157 -0.007345 -3.060384
  27 0.000000 2.441537 0.000001 0.223327 0.419490 0.070231
  28 16.919868 -17.504324 13.534389 0.000000 -0.000000 3.141593
  29 -1.651419 -15.847957 -16.091305 0.000000 -0.000000 3.141593
  30 3.100051 6.817881 -20.333435 -0.117867 0.000000 3.141593
  31 -3.084083 -9.535749 -5.602267 -0.067322 0.041717 -3.133213
  32 4.825252 22.437963 -9.228452 0.000000 0.000000 -0.000000
  33 -5.038689 22.639812 -9.228452 0.000000 0.000000 -0.000000
  time 6
  0 0.062475 5.805178 3.360194 1.570796 0.293090 1.570796
  1 -0.000000 5.135228 0.000000 0.027248 -0.072548 -0.040927
  2 0.000001 4.930600 -0.000000 -0.000400 -0.000980 -0.130135
  3 -0.000001 2.720947 0.000000 0.058055 -0.093140 -0.123639
  4 -0.000000 1.764670 0.000000 -0.133697 0.072356 -0.166622
  5 0.000001 1.155203 -0.000000 0.008061 0.010993 0.220600
  6 -0.000000 1.786739 0.000000 0.000057 0.000515 0.133626
  7 -0.000001 2.720947 0.000000 1.356086 0.100169 3.007716
  8 -0.000000 4.613522 0.000001 -0.049920 0.477670 0.235127
  9 -0.000002 12.046064 -0.000000 -0.355235 0.178296 0.920386
  10 0.000003 14.285707 -0.000002 0.072874 -0.195490 -0.102571
  11 -0.000001 2.720945 -0.016560 -1.364915 -0.374480 -0.384022
  12 -0.000001 4.613521 -0.000000 0.863929 1.348765 0.277180
  13 0.000001 12.046078 0.000003 0.595253 -0.058669 0.341638
  14 -0.000001 14.285711 0.000003 0.104116 0.141863 0.145623
  15 22.397116 18.084057 3.463002 0.000000 -0.000000 3.141593
  16 -6.699229 35.542610 6.891514 0.000000 -0.000000 2.926284
  17 0.062475 5.805178 3.241400 -1.570796 -0.000000 1.570796
  18 0.000001 3.041575 -2.524302 -0.037894 0.109729 0.279481
  19 0.000001 12.303571 -0.000002 -0.015604 0.029976 0.425753
  20 -0.000000 11.084805 0.000001 0.140317 1.570778 0.000000
  21 0.000000 2.979605 -0.000001 1.628671 -0.003520 0.018899
  22 -0.000000 2.441537 -0.000000 0.445684 0.051477 0.006747
  23 -0.000001 3.041575 2.540861 0.092061 -0.096851 0.032367
  24 0.000001 12.303568 -0.000000 0.041676 -0.063184 1.479382
  25 0.000001 11.084803 -0.000000 -0.265759 -1.528273 0.176131
  26 0.000000 2.979607 0.000001 -1.307940 -0.028938 -3.044328
  27 0.000000 2.441538 -0.000000 0.156086 0.424906 0.044277
  28 15.014621 -21.410244 12.165846 0.000000 -0.000000 3.141593
  29 -7.448502 -15.847957 -0.272514 0.000000 -0.000000 3.141593
  30 3.100050 -4.851911 -20.017477 -0.118187 -0.000000 3.141593
  31 -3.084082 -5.757647 -12.619255 -0.067322 0.041717 -3.133213
  32 4.825252 22.437963 -9.228452 0.000000 0.000000 -0.000000
  33 -5.038689 22.639812 -9.228452 0.000000 0.000000 -0.000000
  time 7
  0 0.062475 5.805178 3.767308 1.570796 0.293090 1.570796
  1 -0.000000 5.135228 0.000000 0.060901 -0.209422 -0.223624
  2 0.000001 4.930600 0.000000 -0.000400 -0.000979 -0.130135
  3 0.000000 2.720946 0.000000 0.058055 -0.093140 -0.123639
  4 -0.000000 1.764668 0.000001 -0.158778 0.053105 -0.234635
  5 -0.000001 1.155204 0.000000 0.023021 0.012078 0.362265
  6 0.000001 1.786736 -0.000000 0.000057 0.000515 0.133626
  7 0.000000 2.720946 0.000000 1.186451 0.398667 3.006798
  8 0.000000 4.613522 -0.000000 -0.263921 -0.355951 -0.200118
  9 0.000001 12.046057 0.000002 -0.381937 0.216580 1.021379
  10 0.000003 14.285688 0.000004 0.041384 -0.201082 -0.037003
  11 -0.000000 2.720946 -0.016560 -1.204689 -0.493293 -0.452269
  12 -0.000002 4.613522 -0.000001 -0.541536 1.274846 -0.577076
  13 0.000003 12.046070 0.000000 1.364500 -0.471484 0.624677
  14 -0.000002 14.285702 -0.000001 0.120643 0.080730 0.159706
  15 13.392347 -7.442965 2.580651 0.000000 -0.000000 3.141593
  16 -0.421556 30.847851 7.454334 0.000000 -0.000000 2.926284
  17 0.062475 5.805178 3.648514 -1.570796 -0.000000 1.570796
  18 0.000001 3.041575 -2.524302 -0.021996 0.116695 0.588912
  19 0.000000 12.303573 -0.000001 -0.000188 0.026604 0.004979
  20 0.000001 11.084801 -0.000001 0.141255 1.570778 0.000000
  21 0.000000 2.979606 0.000000 1.628315 -0.003518 0.018858
  22 -0.000000 2.441538 0.000000 0.445684 0.051477 0.006747
  23 -0.000001 3.041575 2.540861 0.090295 -0.088904 -0.855660
  24 -0.000001 12.303568 -0.000000 0.041835 -0.065841 1.543114
  25 0.000000 11.084804 -0.000000 -0.265570 -1.528273 -0.120121
  26 -0.000000 2.979605 -0.000000 -1.215465 -0.046646 -3.036620
  27 -0.000000 2.441537 -0.000000 0.121486 0.427062 0.030803
  28 12.528041 -22.849266 8.902397 0.000000 -0.000000 3.141593
  29 -13.363281 -16.124674 -0.155491 0.000000 -0.000000 3.141593
  30 3.100050 -7.453177 -19.031326 -0.119124 -0.000000 3.141593
  31 -3.084081 7.908606 -16.012693 -0.363651 0.042346 3.137429
  32 4.825252 22.437963 -9.228452 0.000000 0.000000 -0.000000
  33 -5.038689 22.639812 -9.228452 0.000000 0.000000 -0.000000
  time 8
  0 0.062475 5.123569 0.637523 1.570796 0.293090 1.570796
  1 0.000000 5.135228 0.000000 0.092919 -0.256622 -0.404297
  2 0.000000 4.930600 0.000000 -0.000400 -0.000979 -0.130135
  3 0.000000 2.720946 0.000000 0.058055 -0.093140 -0.123639
  4 -0.000000 1.764669 0.000001 -0.173609 0.036286 -0.302229
  5 -0.000000 1.155205 -0.000000 0.050334 0.011378 0.513948
  6 -0.000000 1.786737 0.000000 0.000057 0.000515 0.133626
  7 0.000000 2.720946 0.000000 1.117033 0.505150 2.996562
  8 -0.000001 4.613523 0.000001 -0.175719 -0.243726 -0.361683
  9 -0.000002 12.046067 0.000002 -0.443561 0.368984 1.380611
  10 0.000002 14.285691 0.000003 -0.029472 -0.206183 0.109099
  11 0.000000 2.720947 -0.016561 -1.167877 -0.519170 -0.469327
  12 -0.000000 4.613521 -0.000000 0.533431 1.296636 -1.104712
  13 -0.000001 12.046074 0.000000 1.126827 -0.321517 0.569936
  14 0.000006 14.285713 0.000001 0.154153 -0.055311 0.187273
  15 11.148862 -6.449155 2.570795 0.000000 -0.000000 3.141593
  16 18.411463 16.763578 9.142796 0.000000 -0.000000 2.926284
  17 0.062475 5.123569 0.518728 -1.570796 -0.000000 1.570796
  18 0.000002 3.041575 -2.524302 -0.127833 0.100972 0.149908
  19 -0.000000 12.303574 -0.000000 -0.036499 0.074130 1.832806
  20 -0.000001 11.084805 0.000000 0.305234 1.570778 0.000000
  21 -0.000000 2.979607 -0.000000 1.671804 -0.003485 0.023939
  22 -0.000000 2.441538 -0.000000 0.445684 0.051477 0.006747
  23 -0.000001 3.041576 2.540861 0.083866 -0.094154 -0.755067
  24 -0.000002 12.303568 -0.000000 0.041250 -0.059942 1.401135
  25 0.000001 11.084804 0.000000 -0.265765 -1.528273 0.190529
  26 -0.000000 2.979605 -0.000001 -1.185769 -0.053812 -3.034475
  27 -0.000000 2.441538 -0.000001 0.108734 0.427749 0.025821
  28 10.037310 -23.054840 5.007313 0.000000 -0.000000 3.141593
  29 -16.186399 0.237145 -0.138773 0.000000 -0.000000 3.141593
  30 3.100050 -6.937645 -10.082835 -0.283104 0.000000 3.141593
  31 -3.084081 6.728667 -20.316269 -0.052920 0.041592 -3.132613
  32 4.825252 22.437963 -9.228452 0.000000 0.000000 -0.000000
  33 -5.038689 22.639812 -9.228452 0.000000 0.000000 -0.000000
  time 9
  0 0.062475 3.760351 1.090740 1.570796 0.293090 1.570796
  1 0.000000 5.135228 0.000000 0.046908 -0.156714 -0.304232
  2 -0.000000 4.930600 0.000000 -0.000400 -0.000979 -0.130135
  3 0.000000 2.720946 -0.000000 0.058055 -0.093140 -0.123639
  4 -0.000001 1.764670 -0.000000 -0.159077 0.055804 -0.233578
  5 0.000000 1.155204 -0.000000 0.064854 0.009660 0.584487
  6 0.000000 1.786737 0.000000 0.000057 0.000515 0.133626
  7 0.000000 2.720946 -0.000000 1.145897 0.503823 3.027380
  8 -0.000001 4.613520 0.000001 -0.241998 -0.234299 -0.582351
  9 -0.000001 12.046058 -0.000002 -0.447353 0.514265 1.713764
  10 -0.000005 14.285689 0.000003 -0.100522 -0.201096 0.255596
  11 0.000000 2.720946 -0.016561 -1.482705 -0.271829 -0.346703
  12 -0.000001 4.613521 0.000000 2.085074 1.856331 0.452298
  13 -0.000005 12.046070 0.000002 1.426901 -0.511501 0.632706
  14 -0.000002 14.285704 -0.000007 0.184419 -0.192161 0.210669
  15 10.322313 -2.935896 2.567164 0.000000 -0.000000 3.141593
  16 12.328473 16.378204 8.228757 0.000000 -0.000000 2.926284
  17 0.062475 3.760352 0.971946 -1.570796 -0.000000 1.570796
  18 0.000001 3.041575 -2.524301 -0.091256 0.090573 0.066737
  19 0.000001 12.303570 -0.000001 -0.037786 0.064868 1.584233
  20 0.000000 11.084807 0.000001 0.305234 1.570778 0.000000
  21 -0.000000 2.979607 -0.000000 1.767747 -0.004192 0.035124
  22 -0.000000 2.441538 0.000000 0.445685 0.051477 0.006747
  23 -0.000001 3.041575 2.540861 0.064651 -0.111663 0.084536
  24 -0.000001 12.303569 -0.000001 0.033213 -0.041565 0.916863
  25 0.000001 11.084802 0.000000 -0.265380 -1.528271 -0.426197
  26 -0.000000 2.979606 0.000001 -1.445367 -0.018828 -3.056580
  27 -0.000000 2.441537 0.000000 0.106912 0.427842 0.025108
  28 8.119605 -20.482563 1.743863 0.000000 -0.000000 3.141593
  29 -1.671443 -7.805407 -0.205644 0.000000 -0.000000 3.141593
  30 3.100050 -8.184107 -13.336355 -0.283104 0.000000 3.141593
  31 -3.084082 -6.734310 -20.214823 -0.669773 0.039126 3.124864
  32 4.825252 22.437963 -9.228452 0.000000 0.000000 -0.000000
  33 -5.038689 22.639812 -9.228452 0.000000 0.000000 -0.000000
  time 10
  0 0.062474 -0.329300 1.700360 1.570796 0.293090 1.570796
  1 0.000000 5.135228 0.000000 0.005196 -0.008967 -0.039674
  2 0.000000 4.930600 -0.000000 -0.000400 -0.000979 -0.130135
  3 -0.000000 2.720946 -0.000000 0.058055 -0.093140 -0.123639
  4 -0.000000 1.764670 -0.000000 -0.136738 0.079515 -0.164521
  5 0.000001 1.155204 -0.000000 0.000752 0.001577 0.384581
  6 -0.000001 1.786737 0.000000 0.000057 0.000515 0.133626
  7 -0.000000 2.720946 -0.000000 -1.838018 2.685917 -0.054051
  8 -0.000001 4.613521 -0.000001 -0.519788 -0.111849 -0.296468
  9 0.000000 12.046068 0.000006 -0.421760 0.599251 1.928548
  10 0.000000 14.285704 -0.000006 -0.132219 -0.195466 0.321597
  11 -0.000000 2.720946 -0.016560 -1.748729 -0.008999 -0.309385
  12 -0.000001 4.613520 0.000000 -1.268298 0.806323 -1.922562
  13 -0.000001 12.046073 -0.000001 1.666701 -0.659548 0.636965
  14 0.000004 14.285707 0.000001 0.197301 -0.254202 0.220062
  15 10.204236 3.894553 2.566645 0.000000 -0.000000 3.141593
  16 -5.920488 15.222081 5.486639 0.000000 -0.000000 2.926284
  17 0.062474 -0.329300 1.581565 -1.570796 -0.000000 1.570796
  18 0.000001 3.041575 -2.524301 -0.061159 0.046147 -1.104783
  19 0.000000 12.303570 -0.000000 -0.036922 0.072396 1.785450
  20 0.000000 11.084806 0.000001 0.305234 1.570778 0.000000
  21 -0.000000 2.979609 0.000000 1.863681 -0.005967 0.046190
  22 0.000000 2.441537 0.000002 0.445684 0.051477 0.006747
  23 -0.000002 3.041575 2.540861 0.060683 -0.092238 0.062991
  24 -0.000000 12.303571 -0.000002 0.035874 -0.045472 1.029907
  25 -0.000001 11.084803 0.000000 -0.265758 -1.528273 0.176131
  26 -0.000000 2.979607 -0.000001 0.800360 3.115805 -0.025775
  27 -0.000000 2.441538 0.000000 1.535099 0.000389 0.257413
  28 7.352109 -17.910280 0.375319 0.000000 -0.000000 3.141593
  29 12.843514 -15.847958 -0.272514 0.000000 -0.000000 3.141593
  30 3.100051 3.613589 -15.589315 -0.283104 0.000000 3.141593
  31 -3.084083 -11.040975 -18.754065 -0.067322 0.041717 -3.133213
  32 4.825252 22.437963 -9.228452 0.000000 0.000000 -0.000000
  33 -5.038689 22.639812 -9.228452 0.000000 0.000000 -0.000000
end
