version 1
nodes
0 "Spine.001" -1
1 "Spine.002" 0
2 "Spine.003" 1
3 "Spine.004" 2
4 "Spine.005" 3
5 "Spine.006" 4
6 "Spine.007" 5
7 "Arm.R.001" 2
8 "Arm.R.002" 7
9 "Arm.R.003" 8
10 "Arm.R.004" 9
11 "Arm.L.001" 2
12 "Arm.L.002" 11
13 "Arm.L.003" 12
14 "Arm.L.004" 13
15 "ForearmIK.R" -1
16 "ForearmIK.L" -1
17 "Spine.008" -1
18 "Leg.R.001" 17
19 "Leg.R.002" 18
20 "Leg.R.003" 19
21 "Leg.R.004" 20
22 "Leg.R.005" 21
23 "Leg.L.001" 17
24 "Leg.L.002" 23
25 "Leg.L.003" 24
26 "Leg.L.004" 25
27 "Leg.L.005" 26
28 "UpperarmIK.R" -1
29 "UpperarmIK.L" -1
30 "ShinIK.R" -1
31 "ShinIK.L" -1
32 "KneeIK.R" -1
33 "KneeIK.L" -1
end
skeleton
  time 0
  0 0.062474 -0.176185 2.099070 1.570796 0.293090 1.570796
  1 0.000000 5.135229 0.000000 -0.032673 0.109378 -0.015567
  2 0.000000 4.930599 -0.000000 -0.000403 -0.000999 -0.138236
  3 -0.000000 2.720946 -0.000000 0.093173 -0.145389 -0.127744
  4 -0.000000 1.764670 0.000000 -0.000086 -0.000219 -0.155079
  5 -0.000001 1.155206 0.000000 0.000752 0.001577 0.384581
  6 0.000001 1.786736 -0.000000 0.000057 0.000515 0.133626
  7 -0.000000 2.720946 -0.000000 -1.467109 -2.925747 -0.012567
  8 0.000001 4.613520 -0.000000 -1.269089 0.492574 -0.569111
  9 0.000003 12.046064 -0.000004 -0.449162 0.502021 1.684626
  10 -0.000003 14.285703 0.000000 -0.047844 -0.208576 0.304311
  11 -0.000001 2.720947 -0.016560 -2.084613 0.294122 -0.361697
  12 0.000000 4.613522 -0.000000 0.532033 2.720728 0.657650
  13 0.000000 12.046073 -0.000001 1.176129 -0.351820 0.584248
  14 0.000003 14.285708 0.000000 0.218638 -0.243443 0.221342
  15 5.260406 18.876221 6.197750 0.000000 -0.000000 3.141593
  16 -9.193696 -8.884633 -2.998030 0.000000 -0.000000 2.926284
  17 0.062474 -0.176185 1.974705 -1.620669 0.000000 1.570796
  18 0.000001 3.041576 -2.524301 -0.029910 0.082172 0.451305
  19 0.000001 12.303573 -0.000001 -0.037001 0.056693 1.366174
  20 -0.000000 11.084811 -0.000000 0.305234 1.570778 0.000000
  21 0.000000 2.979605 0.000000 1.334963 -0.008405 -0.018146
  22 0.000000 2.441537 -0.000000 0.039577 0.000036 -0.001647
  23 -0.000001 3.041575 2.540862 0.100666 -0.022070 -1.220895
  24 0.000001 12.303571 0.000001 0.041809 -0.065130 1.526062
  25 0.000000 11.084805 -0.000001 -0.265571 -1.528273 -0.120120
  26 -0.000000 2.979604 0.000000 1.436365 3.132282 0.054708
  27 -0.000000 2.441538 -0.000002 0.105853 0.427895 0.024694
  28 7.352109 -17.910280 0.375319 0.000000 -0.000000 3.141593
  29 2.043508 -15.847958 -0.272514 0.000000 -0.000000 3.141593
  30 3.100049 -16.298504 -9.242165 -0.283104 0.000000 3.141593
  31 -3.084081 7.908606 -16.012693 -0.363651 0.042346 3.137429
  32 4.825252 22.437963 -9.228452 0.000000 0.000000 -0.000000
  33 -5.038689 22.639812 -9.228452 0.000000 0.000000 -0.000000
  time 1
  0 0.062474 -0.176185 2.079681 1.570796 0.293090 1.570796
  1 0.000000 5.135228 0.000000 0.002349 -0.000728 -0.156584
  2 -0.000000 4.930600 -0.000000 -0.000403 -0.000998 -0.137777
  3 0.000000 2.720946 0.000000 0.048726 -0.076495 -0.122920
  4 -0.000000 1.764670 0.000000 0.007152 0.000460 -0.155193
  5 0.000000 1.155204 0.000000 0.000752 0.001577 0.384581
  6 0.000001 1.786736 -0.000000 0.000057 0.000515 0.133626
  7 0.000000 2.720946 0.000000 -1.534863 -3.016317 -0.000931
  8 0.000001 4.613522 -0.000000 -1.068452 0.326920 -0.535221
  9 -0.000000 12.046067 -0.000001 -0.402415 0.635664 2.030624
  10 -0.000002 14.285701 -0.000003 -0.053068 -0.208180 0.308470
  11 0.000000 2.720946 -0.016560 -2.003455 0.230009 -0.354084
  12 -0.000001 4.613521 0.000001 0.953980 2.553715 0.817531
  13 0.000002 12.046074 -0.000001 1.532772 -0.578461 0.639847
  14 -0.000005 14.285707 0.000001 0.218751 -0.243469 0.220571
  15 7.057128 14.263206 6.119177 0.000000 -0.000000 3.141593
  16 -9.010492 2.380188 -1.569631 0.000000 -0.000000 2.926284
  17 0.062474 -0.176185 1.998047 -1.570796 -0.000000 1.570796
  18 0.000001 3.041576 -2.524301 -0.125744 0.099180 0.304226
  19 -0.000000 12.303573 -0.000001 -0.036499 0.074132 1.832849
  20 0.000001 11.084808 -0.000001 0.305234 1.570778 0.000000
  21 -0.000000 2.979606 -0.000001 1.334963 -0.008405 -0.018146
  22 0.000001 2.441538 -0.000001 0.040844 0.000206 -0.001272
  23 -0.000002 3.041576 2.540861 0.058653 -0.090435 -0.824755
  24 -0.000001 12.303572 0.000000 0.035376 -0.044665 1.007210
  25 0.000000 11.084804 0.000000 -0.265766 -1.528273 0.190528
  26 -0.000000 2.979605 0.000000 1.436365 3.132282 0.054708
  27 -0.000000 2.441538 -0.000002 0.234919 0.410317 0.067801
  28 7.352109 -17.910280 0.375319 0.000000 -0.000000 3.141593
  29 12.843514 -15.847958 -0.272514 0.000000 -0.000000 3.141593
  30 3.100049 -13.254106 -6.663416 -0.283104 0.000000 3.141593
  31 -3.084081 6.728667 -20.316269 -0.052920 0.041592 -3.132613
  32 4.825252 22.437963 -9.228452 0.000000 0.000000 -0.000000
  33 -5.038689 22.639812 -9.228452 0.000000 0.000000 -0.000000
  time 2
  0 0.062474 -0.176185 3.915695 1.570796 0.293090 1.570796
  1 0.000000 5.135228 0.000000 0.027805 -0.065554 -0.120463
  2 0.000000 4.930599 -0.000000 -0.000402 -0.000996 -0.136617
  3 -0.000000 2.720946 0.000000 0.018412 -0.016737 -0.121120
  4 -0.000000 1.764670 -0.000000 0.010930 0.000236 -0.155253
  5 0.000000 1.155204 0.000000 -0.056412 0.085821 0.371971
  6 -0.000001 1.786738 -0.000000 0.000057 0.000515 0.133626
  7 -0.000000 2.720946 0.000000 1.458769 0.079208 -3.138820
  8 0.000001 4.613521 -0.000000 -0.591478 -0.403717 -0.637057
  9 0.000001 12.046061 0.000000 -0.373536 0.675533 2.153528
  10 0.000000 14.285704 0.000001 -0.065362 -0.206470 0.312243
  11 -0.000001 2.720946 -0.016561 -1.826607 0.085972 -0.356240
  12 -0.000000 4.613522 -0.000000 -1.518842 0.816595 -2.160284
  13 0.000001 12.046072 -0.000001 1.188488 -0.359509 0.587605
  14 -0.000000 14.285704 0.000001 0.218798 -0.243805 0.218867
  15 7.979768 4.114579 5.569170 0.000000 -0.000000 3.141593
  16 -8.705153 11.600305 -2.475267 0.000000 -0.000000 2.926284
  17 0.062474 -0.176185 3.774734 -1.570796 -0.000000 1.570796
  18 0.000001 3.041575 -2.524301 -0.061700 0.057006 -0.239113
  19 0.000002 12.303570 -0.000001 -0.037758 0.065908 1.611813
  20 0.000001 11.084808 -0.000000 0.305234 1.570778 0.000000
  21 0.000000 2.979607 -0.000000 1.334963 -0.008405 -0.018146
  22 0.000000 2.441537 0.000000 0.049709 0.001340 -0.001062
  23 -0.000002 3.041576 2.540861 0.045287 -0.087772 -0.033105
  24 -0.000001 12.303570 -0.000000 0.027034 -0.035084 0.702427
  25 0.000000 11.084805 -0.000001 -0.265382 -1.528271 -0.426190
  26 -0.000000 2.979605 0.000000 1.436365 3.132282 0.054708
  27 -0.000000 2.441537 0.000000 -0.048961 0.436370 -0.041985
  28 7.352109 -17.910280 0.375319 0.000000 -0.000000 3.141593
  29 12.843514 -15.847958 -0.272514 0.000000 -0.000000 3.141593
  30 3.100050 -8.184107 -13.336355 -0.283104 0.000000 3.141593
  31 -3.084082 -6.734310 -20.214823 -0.669773 0.039126 3.124864
  32 4.825252 22.437963 -9.228452 0.000000 0.000000 -0.000000
  33 -5.038689 22.639812 -9.228452 0.000000 0.000000 -0.000000
  time 3
  0 0.062474 -0.176185 2.989259 1.570796 0.293090 1.570796
  1 0.000000 5.135228 0.000000 0.034290 -0.093616 -0.052271
  2 -0.000000 4.930600 -0.000001 -0.000402 -0.000991 -0.135035
  3 0.000000 2.720946 -0.000000 0.002891 0.013965 -0.120749
  4 0.000000 1.764670 0.000000 0.012476 -0.001296 -0.155288
  5 -0.000000 1.155205 -0.000000 -0.046789 0.078443 0.364990
  6 0.000001 1.786735 0.000000 0.000057 0.000515 0.133626
  7 0.000000 2.720946 -0.000000 1.305953 0.281952 3.116997
  8 -0.000001 4.613521 0.000000 -0.155967 -0.557225 -1.018599
  9 -0.000001 12.046068 0.000004 -0.434449 0.566764 1.843319
  10 -0.000008 14.285698 0.000000 -0.081846 -0.203912 0.315496
  11 -0.000000 2.720946 -0.016561 -1.649803 -0.055480 -0.383661
  12 0.000001 4.613521 0.000000 -1.480264 0.624418 -1.910490
  13 -0.000003 12.046064 -0.000003 1.385704 -0.485103 0.627720
  14 -0.000003 14.285695 0.000003 0.218360 -0.244846 0.217157
  15 8.319690 -6.034048 4.076292 0.000000 -0.000000 3.141593
  16 -8.094477 12.745580 -0.498281 0.000000 -0.000000 2.926284
  17 0.062474 -0.176185 2.874719 -1.523200 -0.000000 1.570796
  18 0.000000 3.041575 -2.524301 -0.091627 0.005281 -1.021636
  19 0.000003 12.303571 -0.000002 -0.037638 0.067742 1.660531
  20 -0.000004 11.084808 0.000001 0.305234 1.570778 0.000000
  21 -0.000000 2.979608 -0.000000 1.334963 -0.008405 -0.018146
  22 0.000000 2.441538 0.000001 0.073786 0.004407 -0.000947
  23 -0.000002 3.041576 2.540862 -0.005338 -0.082807 0.158744
  24 -0.000000 12.303570 -0.000001 0.029346 -0.037192 0.777223
  25 0.000001 11.084802 0.000001 -0.265757 -1.528273 0.176130
  26 -0.000000 2.979607 0.000000 -1.545672 -0.000173 -3.070738
  27 -0.000000 2.441537 0.000000 0.540489 0.348209 0.164764
  28 7.352109 -17.910280 0.375319 0.000000 -0.000000 3.141593
  29 12.843514 -15.847958 -0.272514 0.000000 -0.000000 3.141593
  30 3.100051 3.613589 -15.589315 -0.283104 0.000000 3.141593
  31 -3.084083 -11.040975 -18.754065 -0.067322 0.041717 -3.133213
  32 4.825252 22.437963 -9.228452 0.000000 0.000000 -0.000000
  33 -5.038689 22.639812 -9.228452 0.000000 0.000000 -0.000000
  time 4
  0 0.062474 -0.176185 2.062824 1.570796 0.293090 1.570796
  1 0.000000 5.135229 0.000000 0.033766 -0.099569 -0.015239
  2 0.000000 4.930599 -0.000000 -0.000401 -0.000987 -0.133314
  3 0.000001 2.720945 -0.000000 -0.002822 0.025273 -0.120609
  4 -0.000001 1.764670 -0.000000 0.013018 -0.004539 -0.155318
  5 0.000000 1.155205 -0.000000 -0.028850 0.058388 0.333607
  6 -0.000000 1.786736 -0.000000 0.000057 0.000515 0.133626
  7 0.000001 2.720945 -0.000000 1.232670 0.370516 3.093600
  8 -0.000000 4.613521 0.000000 -0.169377 -0.557230 -0.821743
  9 0.000001 12.046068 -0.000000 -0.450483 0.414918 1.484191
  10 -0.000007 14.285690 0.000004 -0.099632 -0.201009 0.318119
  11 0.000000 2.720945 -0.016561 -1.568824 -0.116758 -0.404075
  12 -0.000001 4.613521 0.000000 -1.165807 0.617690 -1.637484
  13 0.000000 12.046071 0.000002 1.650867 -0.650250 0.638002
  14 -0.000002 14.285704 0.000001 0.217018 -0.246990 0.216369
  15 8.368248 -10.647061 1.169109 0.000000 -0.000000 3.141593
  16 -6.262447 16.181406 5.432679 0.000000 -0.000000 2.926284
  17 0.062474 -0.176185 1.974705 -1.475603 -0.000000 1.570796
  18 0.000000 3.041575 -2.524302 -0.110332 -0.022799 -1.331395
  19 -0.000001 12.303573 -0.000000 -0.037607 0.060666 1.472696
  20 -0.000003 11.084806 -0.000002 0.305234 1.570778 0.000000
  21 -0.000000 2.979606 -0.000000 1.334963 -0.008405 -0.018146
  22 0.000000 2.441537 -0.000000 0.120706 0.010374 -0.000698
  23 -0.000002 3.041576 2.540862 0.006207 -0.076847 0.586778
  24 -0.000001 12.303570 0.000001 0.040655 -0.057081 1.331230
  25 0.000003 11.084805 0.000001 -0.265758 -1.528273 0.176130
  26 0.000000 2.979605 -0.000001 1.329549 3.115360 0.026448
  27 0.000000 2.441537 -0.000000 0.333290 0.407153 0.111785
  28 7.352109 -17.910280 0.375319 0.000000 -0.000000 3.141593
  29 12.843514 -15.847958 -0.272514 0.000000 -0.000000 3.141593
  30 3.100051 10.078090 -15.237579 -0.283104 0.000000 3.141593
  31 -3.084083 -17.399889 -7.253904 -0.067322 0.041717 -3.133213
  32 4.825252 22.437963 -9.228452 0.000000 0.000000 -0.000000
  33 -5.038689 22.639812 -9.228452 0.000000 0.000000 -0.000000
  time 5
  0 0.062474 -0.176185 2.328012 1.570796 0.293090 1.570796
  1 0.000000 5.135228 0.000000 0.002349 -0.000728 -0.113907
  2 0.000000 4.930600 0.000000 -0.000400 -0.000984 -0.131736
  3 0.000000 2.720945 -0.000000 -0.003637 0.026889 -0.120532
  4 -0.000000 1.764670 -0.000000 0.013785 -0.009901 -0.155369
  5 0.000001 1.155204 0.000000 -0.015347 0.030997 0.228751
  6 -0.000001 1.786737 -0.000000 0.000057 0.000515 0.133626
  7 0.000000 2.720945 -0.000000 1.338632 0.240600 3.125332
  8 -0.000000 4.613522 -0.000000 -0.733956 -0.489608 -0.248701
  9 0.000002 12.046061 0.000002 -0.431313 0.322485 1.275031
  10 -0.000002 14.285697 0.000001 -0.115852 -0.198280 0.320036
  11 -0.000000 2.720945 -0.016561 -1.679271 -0.030353 -0.372726
  12 -0.000001 4.613522 0.000001 -0.966612 0.878029 -1.778885
  13 -0.000003 12.046074 -0.000001 1.371612 -0.476053 0.625733
  14 0.000001 14.285712 0.000000 0.211052 -0.250122 0.217309
  15 8.368249 -5.009398 -3.960575 0.000000 -0.000000 3.141593
  16 -6.588141 17.997854 2.587559 0.000000 -0.000000 2.926284
  17 0.062474 -0.176185 2.193540 -1.570796 -0.000000 1.570796
  18 0.000001 3.041575 -2.524301 -0.049903 0.082661 -0.805032
  19 -0.000002 12.303572 -0.000002 -0.031093 0.042910 0.966397
  20 -0.000003 11.084806 -0.000000 0.139997 1.570778 0.000000
  21 0.000000 2.979603 0.000000 1.334963 -0.008405 -0.018146
  22 0.000000 2.441537 0.000000 0.198042 0.020166 0.000257
  23 -0.000002 3.041575 2.540861 0.175893 -0.130056 0.398949
  24 -0.000002 12.303570 -0.000001 0.039853 -0.079745 1.880986
  25 0.000000 11.084802 -0.000000 -0.265760 -1.528273 0.176133
  26 -0.000000 2.979606 0.000000 1.346267 3.117803 0.030980
  27 -0.000000 2.441539 -0.000001 0.202272 0.421360 0.062141
  28 7.352109 -17.910280 0.375319 0.000000 -0.000000 3.141593
  29 12.843514 -15.847958 -0.272514 0.000000 -0.000000 3.141593
  30 3.100051 6.817881 -20.333435 -0.117867 0.000000 3.141593
  31 -3.084083 -13.408652 -4.683280 -0.067322 0.041717 -3.133213
  32 4.825252 22.437963 -9.228452 0.000000 0.000000 -0.000000
  33 -5.038689 22.639812 -9.228452 0.000000 0.000000 -0.000000
  time 6
  0 0.062474 -0.176185 3.927015 1.570796 0.293090 1.570796
  1 0.000000 5.135229 0.000000 -0.038724 0.112024 -0.106999
  2 0.000001 4.930599 0.000000 -0.000400 -0.000981 -0.130582
  3 0.000000 2.720946 0.000000 0.027132 -0.033150 -0.121157
  4 0.000001 1.764669 -0.000000 0.016006 -0.017786 -0.155478
  5 -0.000000 1.155205 -0.000000 -0.003514 0.010160 0.306788
  6 -0.000001 1.786737 -0.000000 0.000057 0.000515 0.133626
  7 0.000000 2.720946 0.000000 1.523071 -0.009160 -3.136780
  8 0.000000 4.613522 -0.000002 -1.015890 -0.310307 -0.442616
  9 0.000000 12.046066 -0.000000 -0.448249 0.395977 1.441459
  10 0.000003 14.285704 -0.000003 -0.127657 -0.196256 0.321202
  11 0.000000 2.720945 -0.016561 -1.880534 0.138520 -0.339989
  12 -0.000000 4.613522 -0.000000 1.227919 2.355955 0.616671
  13 0.000001 12.046072 -0.000003 1.464037 -0.535176 0.636149
  14 0.000001 14.285712 0.000002 0.201988 -0.252966 0.219092
  15 8.222162 3.710594 -2.254070 0.000000 -0.000000 3.141593
  16 -7.239530 9.402437 0.463945 0.000000 -0.000000 2.926284
  17 0.062474 -0.176185 3.790736 -1.570796 -0.000000 1.570796
  18 0.000001 3.041576 -2.524301 -0.041747 0.073795 -0.184873
  19 -0.000001 12.303573 0.000000 -0.028457 0.039525 0.852774
  20 -0.000005 11.084805 0.000001 0.140317 1.570778 0.000000
  21 -0.000000 2.979607 0.000000 1.628671 -0.003520 0.018899
  22 0.000000 2.441537 0.000001 0.369765 0.043120 0.003506
  23 -0.000002 3.041576 2.540861 0.072569 -0.050643 -0.446759
  24 -0.000003 12.303571 -0.000001 0.040711 -0.076676 1.804626
  25 -0.000000 11.084801 0.000000 -0.265759 -1.528273 0.176132
  26 -0.000000 2.979605 -0.000001 1.383021 3.123443 0.040805
  27 0.000000 2.441538 -0.000000 0.134448 0.426304 0.035859
  28 7.352109 -17.910280 0.375319 0.000000 -0.000000 3.141593
  29 12.843514 -15.847958 -0.272514 0.000000 -0.000000 3.141593
  30 3.100050 -4.851911 -20.017477 -0.118187 -0.000000 3.141593
  31 -3.084082 -5.757647 -12.619255 -0.067322 0.041717 -3.133213
  32 4.825252 22.437963 -9.228452 0.000000 0.000000 -0.000000
  33 -5.038689 22.639812 -9.228452 0.000000 0.000000 -0.000000
  time 7
  0 0.062474 -0.176185 2.459240 1.570796 0.293090 1.570796
  1 0.000000 5.135228 0.000000 -0.053072 0.158217 -0.044034
  2 -0.000000 4.930600 -0.000000 -0.000400 -0.000980 -0.130135
  3 -0.000000 2.720945 -0.000000 0.058055 -0.093140 -0.123639
  4 0.000001 1.764669 -0.000000 0.020913 -0.028598 -0.155713
  5 0.000000 1.155204 0.000000 0.000752 0.001577 0.384581
  6 0.000000 1.786737 0.000000 0.000057 0.000515 0.133626
  7 -0.000000 2.720945 -0.000000 -1.521550 -2.999260 -0.002785
  8 -0.000001 4.613522 -0.000001 -1.010838 -0.211988 -0.685230
  9 0.000003 12.046062 -0.000001 -0.426657 0.587870 1.898150
  10 -0.000004 14.285698 -0.000005 -0.132219 -0.195466 0.321597
  11 -0.000001 2.720947 -0.016561 -1.987994 0.230303 -0.336526
  12 -0.000000 4.613523 -0.000000 0.690126 2.665944 0.824189
  13 0.000002 12.046074 -0.000001 1.519355 -0.570079 0.639399
  14 -0.000002 14.285705 -0.000001 0.197301 -0.254201 0.220062
  15 7.199558 10.417011 2.566645 0.000000 -0.000000 3.141593
  16 -9.193695 -2.318745 -0.730251 0.000000 -0.000000 2.926284
  17 0.062474 -0.176185 2.304666 -1.570796 -0.000000 1.570796
  18 0.000001 3.041576 -2.524301 -0.048398 0.078844 0.016892
  19 -0.000001 12.303570 0.000001 -0.031314 0.043233 0.976767
  20 -0.000001 11.084805 0.000002 0.141255 1.570778 0.000000
  21 0.000000 2.979605 -0.000001 1.628315 -0.003519 0.018858
  22 -0.000000 2.441537 0.000001 0.445684 0.051477 0.006747
  23 -0.000002 3.041576 2.540861 0.070211 -0.065040 -1.074895
  24 0.000001 12.303568 -0.000000 0.041850 -0.066687 1.563346
  25 0.000000 11.084801 0.000000 -0.265758 -1.528273 0.176131
  26 -0.000000 2.979605 0.000000 1.419714 3.129441 0.050416
  27 0.000000 2.441538 -0.000001 0.109428 0.427713 0.026092
  28 7.352109 -17.910280 0.375319 0.000000 -0.000000 3.141593
  29 12.843514 -15.847958 -0.272514 0.000000 -0.000000 3.141593
  30 3.100050 -9.745264 -19.031326 -0.119124 -0.000000 3.141593
  31 -3.084082 5.335479 -16.380747 -0.067322 0.041717 -3.133213
  32 4.825252 22.437963 -9.228452 0.000000 0.000000 -0.000000
  33 -5.038689 22.639812 -9.228452 0.000000 0.000000 -0.000000
end
