version 1
nodes
0 "Spine.001" -1
1 "Spine.002" 0
2 "Spine.003" 1
3 "Spine.004" 2
4 "Spine.005" 3
5 "Spine.006" 4
6 "Spine.007" 5
7 "Arm.R.001" 2
8 "Arm.R.002" 7
9 "Arm.R.003" 8
10 "Arm.R.004" 9
11 "Arm.L.001" 2
12 "Arm.L.002" 11
13 "Arm.L.003" 12
14 "Arm.L.004" 13
15 "ForearmIK.R" -1
16 "ForearmIK.L" -1
17 "Spine.008" -1
18 "Leg.R.001" 17
19 "Leg.R.002" 18
20 "Leg.R.003" 19
21 "Leg.R.004" 20
22 "Leg.R.005" 21
23 "Leg.L.001" 17
24 "Leg.L.002" 23
25 "Leg.L.003" 24
26 "Leg.L.004" 25
27 "Leg.L.005" 26
28 "UpperarmIK.R" -1
29 "UpperarmIK.L" -1
30 "ShinIK.R" -1
31 "ShinIK.L" -1
32 "KneeIK.R" -1
33 "KneeIK.L" -1
end
skeleton
  time 0
  0 0.062474 -0.176185 5.222050 1.570796 -0.234625 1.800698
  1 0.000001 5.135230 -0.000000 0.039100 0.190495 0.171866
  2 -0.000000 4.930601 0.000000 0.157471 0.161537 -0.099927
  3 0.000000 2.720946 -0.000000 0.026227 0.019682 -0.300313
  4 -0.000000 1.764669 -0.000000 -0.036271 -0.196870 -0.061678
  5 0.000000 1.155204 -0.000000 0.019703 -0.458113 0.074954
  6 0.000000 1.786737 0.000000 -0.003226 -0.018526 -0.246521
  7 0.000000 2.720946 -0.000000 -1.608837 2.706870 0.111992
  8 -0.000001 4.613521 0.000000 -1.107805 -0.237453 1.001659
  9 -0.000000 12.046063 0.000003 -0.407752 0.263411 1.136929
  10 0.000001 14.285693 0.000004 -0.072925 -0.261189 0.084867
  11 0.000000 2.720946 -0.016561 -1.880218 -0.319135 -0.341840
  12 0.000002 4.613521 -0.000000 0.856925 2.166224 -0.674848
  13 -0.000001 12.046071 0.000002 1.680028 -0.667306 0.635949
  14 -0.000004 14.285704 -0.000001 0.041916 -0.243007 -0.016860
  15 -6.256070 7.416467 2.032535 0.000000 -0.000000 3.141593
  16 6.380988 5.337740 17.417976 0.000000 -0.000000 2.926284
  17 0.062474 -0.176185 5.222051 -1.570796 -0.000000 1.570796
  18 0.000001 3.041576 -2.524301 -0.165395 0.325591 -0.350092
  19 0.000000 12.303573 -0.000001 -0.019534 0.032044 0.543342
  20 -0.000002 11.084805 0.000000 0.274003 1.570778 0.000000
  21 0.000000 2.979605 -0.000001 1.350092 -0.050162 -0.099682
  22 0.000000 2.441538 -0.000001 0.080797 0.017108 -0.002139
  23 -0.000002 3.041576 2.540861 0.108572 -0.347051 0.096984
  24 0.000001 12.303570 -0.000001 0.008034 -0.025961 0.193221
  25 0.000000 11.084805 -0.000001 -0.348052 -1.307553 0.053265
  26 -0.000000 2.979605 0.000000 1.436365 3.132282 0.054708
  27 -0.000000 2.441537 -0.000000 0.105853 0.427896 0.024694
  28 15.255857 -5.679421 14.646289 0.000000 -0.000000 3.141593
  29 -12.206786 -18.526073 2.247040 0.000000 -0.000000 3.141593
  30 4.352865 0.935486 -20.252497 -0.251873 0.000000 3.141593
  31 -4.199039 -5.281296 -20.466749 -0.269977 0.262505 -3.121297
  32 11.859106 22.437963 -9.228452 0.000000 0.000000 -0.000000
  33 -8.945847 13.337276 -9.228452 0.000000 0.000000 -0.000000
  time 1
  0 0.062474 -0.176185 5.184295 1.569510 -0.239962 1.801000
  1 -0.000000 5.135228 -0.000000 0.039100 0.190495 0.171866
  2 -0.000000 4.930601 -0.000000 0.157471 0.161537 -0.099927
  3 -0.000001 2.720945 0.000000 0.026227 0.019682 -0.300313
  4 -0.000000 1.764670 -0.000000 -0.036271 -0.196870 -0.061678
  5 0.000000 1.155204 -0.000000 0.019703 -0.458113 0.074954
  6 0.000000 1.786737 0.000000 -0.112056 0.150950 -0.274280
  7 -0.000001 2.720945 0.000000 -1.608837 2.706870 0.111992
  8 -0.000001 4.613520 0.000002 -1.105154 -0.238969 1.008467
  9 -0.000001 12.046068 -0.000000 -0.407880 0.263679 1.137574
  10 0.000001 14.285702 0.000000 -0.072925 -0.261189 0.084867
  11 -0.000000 2.720947 -0.016561 -1.880218 -0.319135 -0.341840
  12 0.000000 4.613522 -0.000002 0.854601 2.163536 -0.676677
  13 -0.000003 12.046072 0.000001 1.675875 -0.664895 0.636280
  14 -0.000004 14.285705 -0.000002 0.041916 -0.243007 -0.016860
  15 -6.256070 7.416467 2.032535 0.000000 -0.000000 3.141593
  16 6.380988 5.337740 17.417976 0.000000 -0.000000 2.926284
  17 0.062474 -0.176185 5.157598 -1.570796 -0.000000 1.570796
  18 0.000001 3.041575 -2.524301 -0.168426 0.323999 -0.360174
  19 -0.000000 12.303572 -0.000001 -0.020178 0.032442 0.563400
  20 -0.000002 11.084804 -0.000001 0.279122 1.570778 0.000000
  21 -0.000000 2.979607 -0.000000 1.351535 -0.060703 -0.115942
  22 0.000000 2.441538 0.000001 0.080797 0.017108 -0.002139
  23 -0.000002 3.041575 2.540861 0.116204 -0.344805 0.072891
  24 -0.000001 12.303573 -0.000001 0.010039 -0.026404 0.242311
  25 -0.000001 11.084804 -0.000000 -0.348051 -1.307553 0.053265
  26 -0.000000 2.979607 -0.000000 1.436365 3.132282 0.054708
  27 -0.000000 2.441538 -0.000001 0.105853 0.427896 0.024694
  28 15.255857 -5.679421 14.646289 0.000000 -0.000000 3.141593
  29 -12.206786 -18.526073 2.247040 0.000000 -0.000000 3.141593
  30 4.352865 0.935486 -20.252497 -0.256992 -0.000000 3.141593
  31 -4.199039 -5.281296 -20.466749 -0.269977 0.262505 -3.121297
  32 11.859106 22.437963 -9.228452 0.000000 0.000000 -0.000000
  33 -8.945847 13.337276 -9.228452 0.000000 0.000000 -0.000000
  time 2
  0 0.062474 -0.176185 5.093147 1.566392 -0.252845 1.801761
  1 0.000000 5.135228 -0.000000 0.039100 0.190494 0.171866
  2 -0.000000 4.930600 -0.000000 0.157471 0.161537 -0.099927
  3 -0.000000 2.720945 0.000001 0.026227 0.019682 -0.300313
  4 0.000000 1.764669 0.000000 -0.036271 -0.196870 -0.061678
  5 0.000000 1.155204 -0.000000 0.019703 -0.458113 0.074954
  6 0.000000 1.786738 -0.000000 -0.230190 0.316218 -0.322274
  7 -0.000000 2.720945 0.000001 -1.608837 2.706870 0.111992
  8 -0.000001 4.613522 -0.000001 -1.098528 -0.242709 1.025371
  9 -0.000001 12.046062 0.000004 -0.408186 0.264319 1.139108
  10 -0.000001 14.285699 0.000001 -0.072925 -0.261189 0.084867
  11 0.000000 2.720946 -0.016560 -1.880218 -0.319135 -0.341840
  12 0.000001 4.613521 0.000001 0.848142 2.157063 -0.681940
  13 -0.000001 12.046071 0.000002 1.665766 -0.659000 0.637030
  14 -0.000003 14.285705 -0.000001 0.041916 -0.243008 -0.016859
  15 -6.256070 7.416467 2.032535 0.000000 -0.000000 3.141593
  16 6.380988 5.337740 17.417976 0.000000 -0.000000 2.926284
  17 0.062474 -0.176185 5.093147 -1.570796 -0.000000 1.570796
  18 0.000001 3.041575 -2.524301 -0.171347 0.322432 -0.369915
  19 -0.000001 12.303571 -0.000001 -0.020794 0.032839 0.582789
  20 -0.000001 11.084805 -0.000000 0.284242 1.570778 0.000000
  21 -0.000000 2.979607 -0.000000 1.353555 -0.070695 -0.130117
  22 0.000000 2.441538 -0.000001 0.080797 0.017108 -0.002139
  23 -0.000002 3.041575 2.540861 0.122576 -0.342853 0.052900
  24 -0.000000 12.303570 -0.000002 0.011695 -0.026849 0.283288
  25 -0.000001 11.084801 -0.000000 -0.348051 -1.307553 0.053264
  26 -0.000000 2.979605 0.000000 1.436365 3.132282 0.054708
  27 -0.000000 2.441537 -0.000001 0.105853 0.427896 0.024694
  28 15.255857 -5.679421 14.646289 0.000000 -0.000000 3.141593
  29 -12.206786 -18.526073 2.247040 0.000000 -0.000000 3.141593
  30 4.352865 0.935486 -20.252497 -0.262111 -0.000000 3.141593
  31 -4.199039 -5.281296 -20.466749 -0.269977 0.262505 -3.121297
  32 11.859106 22.437963 -9.228452 0.000000 0.000000 -0.000000
  33 -8.945847 13.337276 -9.228452 0.000000 0.000000 -0.000000
  time 3
  0 0.062474 -0.176185 5.222050 1.570796 -0.234625 1.800698
  1 0.000001 5.135230 -0.000000 0.039100 0.190495 0.171866
  2 -0.000000 4.930601 0.000000 0.157471 0.161537 -0.099927
  3 0.000000 2.720946 -0.000000 0.026227 0.019682 -0.300313
  4 -0.000000 1.764669 -0.000000 -0.036271 -0.196870 -0.061678
  5 0.000000 1.155204 -0.000000 0.019703 -0.458113 0.074954
  6 0.000000 1.786737 0.000000 -0.146233 0.089721 -0.265133
  7 0.000000 2.720946 -0.000000 -1.608837 2.706870 0.111992
  8 -0.000001 4.613521 0.000000 -1.107805 -0.237453 1.001659
  9 -0.000000 12.046063 0.000003 -0.407752 0.263411 1.136929
  10 0.000001 14.285693 0.000004 -0.072925 -0.261189 0.084867
  11 0.000000 2.720946 -0.016561 -1.880218 -0.319135 -0.341840
  12 0.000002 4.613521 -0.000000 0.856925 2.166224 -0.674848
  13 -0.000001 12.046071 0.000002 1.680028 -0.667306 0.635949
  14 -0.000004 14.285704 -0.000001 0.041916 -0.243007 -0.016860
  15 -6.256070 7.416467 2.032535 0.000000 -0.000000 3.141593
  16 6.380988 5.337740 17.417976 0.000000 -0.000000 2.926284
  17 0.062474 -0.176185 5.222051 -1.570796 -0.000000 1.570796
  18 0.000001 3.041576 -2.524301 -0.165395 0.325591 -0.350092
  19 0.000000 12.303573 -0.000001 -0.019534 0.032044 0.543342
  20 -0.000002 11.084805 0.000000 0.274003 1.570778 0.000000
  21 0.000000 2.979605 -0.000001 1.356823 -0.074913 -0.136151
  22 0.000000 2.441539 -0.000002 0.080797 0.017108 -0.002139
  23 -0.000002 3.041576 2.540861 0.108572 -0.347051 0.096984
  24 0.000001 12.303570 -0.000001 0.008034 -0.025961 0.193221
  25 0.000000 11.084805 -0.000001 -0.348052 -1.307553 0.053265
  26 -0.000000 2.979605 0.000000 1.436365 3.132282 0.054708
  27 -0.000000 2.441537 -0.000000 0.105853 0.427896 0.024694
  28 15.255857 -5.679421 14.646289 0.000000 -0.000000 3.141593
  29 -12.206786 -18.526073 2.247040 0.000000 -0.000000 3.141593
  30 4.352865 0.935486 -20.252497 -0.251873 0.000000 3.141593
  31 -4.199039 -5.281296 -20.466749 -0.269977 0.262505 -3.121297
  32 11.859106 22.437963 -9.228452 0.000000 0.000000 -0.000000
  33 -8.945847 13.337276 -9.228452 0.000000 0.000000 -0.000000
end
