version 1
nodes
0 "Spine.001" -1
1 "Spine.002" 0
2 "Spine.003" 1
3 "Spine.004" 2
4 "Spine.005" 3
5 "Spine.006" 4
6 "Spine.007" 5
7 "Arm.R.001" 2
8 "Arm.R.002" 7
9 "Arm.R.003" 8
10 "Arm.R.004" 9
11 "Arm.L.001" 2
12 "Arm.L.002" 11
13 "Arm.L.003" 12
14 "Arm.L.004" 13
15 "ForearmIK.R" -1
16 "ForearmIK.L" -1
17 "Spine.008" -1
18 "Leg.R.001" 17
19 "Leg.R.002" 18
20 "Leg.R.003" 19
21 "Leg.R.004" 20
22 "Leg.R.005" 21
23 "Leg.L.001" 17
24 "Leg.L.002" 23
25 "Leg.L.003" 24
26 "Leg.L.004" 25
27 "Leg.L.005" 26
28 "UpperarmIK.R" -1
29 "UpperarmIK.L" -1
30 "ShinIK.R" -1
31 "ShinIK.L" -1
32 "KneeIK.R" -1
33 "KneeIK.L" -1
end
skeleton
  time 0
  0 0.062474 -0.176185 5.222050 1.570796 -0.234625 1.800698
  1 0.000001 5.135230 -0.000000 0.039100 0.190495 0.171866
  2 -0.000000 4.930601 0.000000 0.157471 0.161537 -0.099927
  3 0.000000 2.720946 -0.000000 0.026227 0.019682 -0.300313
  4 -0.000000 1.764669 -0.000000 -0.036271 -0.196870 -0.061678
  5 0.000000 1.155204 -0.000000 0.019703 -0.458113 0.074954
  6 0.000000 1.786737 0.000000 -0.003226 -0.018526 -0.246521
  7 0.000000 2.720946 -0.000000 -1.608837 2.706870 0.111992
  8 -0.000001 4.613521 0.000000 -1.107805 -0.237453 1.001659
  9 -0.000000 12.046063 0.000003 -0.407752 0.263411 1.136929
  10 0.000001 14.285693 0.000004 -0.072925 -0.261189 0.084867
  11 0.000000 2.720946 -0.016561 -1.880218 -0.319135 -0.341840
  12 0.000002 4.613521 -0.000000 0.856925 2.166224 -0.674848
  13 -0.000001 12.046071 0.000002 1.680028 -0.667306 0.635949
  14 -0.000004 14.285704 -0.000001 0.041916 -0.243007 -0.016860
  15 -6.256070 7.416467 2.032535 0.000000 -0.000000 3.141593
  16 6.380988 5.337740 17.417976 0.000000 -0.000000 2.926284
  17 0.062474 -0.176185 5.222051 -1.570796 -0.000000 1.570796
  18 0.000001 3.041576 -2.524301 -0.165395 0.325591 -0.350092
  19 0.000000 12.303573 -0.000001 -0.019534 0.032044 0.543342
  20 -0.000002 11.084805 0.000000 0.274003 1.570778 0.000000
  21 0.000000 2.979605 -0.000001 1.334963 -0.008405 -0.018146
  22 0.000000 2.441538 -0.000001 0.080797 0.017108 -0.002139
  23 -0.000002 3.041576 2.540861 0.108572 -0.347051 0.096984
  24 0.000001 12.303570 -0.000001 0.008034 -0.025961 0.193221
  25 0.000000 11.084805 -0.000001 -0.348052 -1.307553 0.053265
  26 -0.000000 2.979605 0.000000 1.436365 3.132282 0.054708
  27 -0.000000 2.441537 -0.000000 0.105853 0.427896 0.024694
  28 15.255857 -5.679421 14.646289 0.000000 -0.000000 3.141593
  29 -12.206786 -18.526073 2.247040 0.000000 -0.000000 3.141593
  30 4.352865 0.935486 -20.252497 -0.251873 0.000000 3.141593
  31 -4.199039 -5.281296 -20.466749 -0.269977 0.262505 -3.121297
  32 11.859106 22.437963 -9.228452 0.000000 0.000000 -0.000000
  33 -8.945847 13.337276 -9.228452 0.000000 0.000000 -0.000000
  time 1
  0 0.062474 -0.176185 5.212238 1.570462 -0.236012 1.800776
  1 0.000000 5.135229 0.000000 0.039100 0.190495 0.171866
  2 0.000000 4.930600 0.000000 0.160796 0.160841 -0.106863
  3 -0.000000 2.720948 -0.000000 0.026227 0.019682 -0.300313
  4 0.000000 1.764670 0.000000 -0.036271 -0.196870 -0.061678
  5 0.000000 1.155205 0.000000 0.019703 -0.458113 0.074954
  6 0.000000 1.786736 0.000000 -0.003226 -0.018526 -0.246521
  7 -0.000000 2.720948 -0.000000 -1.608837 2.706870 0.111992
  8 -0.000001 4.613522 -0.000001 -1.102467 -0.234491 1.003823
  9 -0.000000 12.046065 0.000000 -0.407237 0.262341 1.134363
  10 -0.000001 14.285704 -0.000003 -0.072926 -0.261189 0.084867
  11 -0.000001 2.720946 -0.016561 -1.880218 -0.319135 -0.341840
  12 0.000000 4.613521 0.000001 0.848207 2.163407 -0.682932
  13 0.000002 12.046074 0.000000 1.680182 -0.667395 0.635937
  14 -0.000003 14.285706 -0.000001 0.041915 -0.243008 -0.016859
  15 -6.256070 7.416467 1.983925 0.000000 -0.000000 3.141593
  16 6.380988 5.337740 17.361256 0.000000 -0.000000 2.926284
  17 0.062474 -0.176185 5.220037 -1.570796 -0.000000 1.570796
  18 0.000001 3.041575 -2.524301 -0.165491 0.325541 -0.350413
  19 0.000000 12.303570 -0.000000 -0.019554 0.032056 0.543979
  20 -0.000002 11.084803 0.000001 0.274163 1.570778 0.000000
  21 -0.000000 2.979605 -0.000000 1.334963 -0.008406 -0.018146
  22 0.000001 2.441538 -0.000001 0.080797 0.017108 -0.002139
  23 -0.000002 3.041576 2.540861 0.108840 -0.346974 0.096134
  24 -0.000000 12.303572 -0.000001 0.008105 -0.025974 0.194947
  25 0.000000 11.084804 -0.000000 -0.348051 -1.307553 0.050389
  26 0.000000 2.979604 -0.000000 1.436365 3.132282 0.054708
  27 0.000000 2.441538 0.000000 0.105853 0.427896 0.024694
  28 15.255857 -5.679421 14.646289 0.000000 -0.000000 3.141593
  29 -12.206786 -18.526073 2.247040 0.000000 -0.000000 3.141593
  30 4.352865 0.935486 -20.252497 -0.252033 -0.000000 3.141593
  31 -4.199039 -5.281296 -20.466749 -0.272953 0.262562 -3.122069
  32 11.859106 22.437963 -9.228452 0.000000 0.000000 -0.000000
  33 -8.945847 13.337276 -9.228452 0.000000 0.000000 -0.000000
  time 2
  0 0.062474 -0.176185 5.184295 1.569510 -0.239962 1.801000
  1 -0.000000 5.135228 -0.000000 0.039100 0.190495 0.171866
  2 -0.000000 4.930601 -0.000000 0.168743 0.159274 -0.123410
  3 -0.000000 2.720946 -0.000000 0.026227 0.019682 -0.300313
  4 0.000000 1.764670 0.000000 -0.036272 -0.196870 -0.061678
  5 -0.000000 1.155205 -0.000000 0.019703 -0.458113 0.074954
  6 0.000001 1.786736 0.000000 -0.003226 -0.018526 -0.246521
  7 -0.000000 2.720946 -0.000000 -1.608837 2.706870 0.111992
  8 -0.000002 4.613521 0.000000 -1.089383 -0.227693 1.009895
  9 0.000000 12.046062 0.000003 -0.406013 0.259826 1.128319
  10 -0.000000 14.285696 0.000003 -0.072925 -0.261189 0.084867
  11 0.000000 2.720947 -0.016561 -1.880218 -0.319135 -0.341840
  12 0.000000 4.613523 -0.000001 0.827060 2.156516 -0.702524
  13 0.000001 12.046072 0.000002 1.680004 -0.667295 0.635953
  14 -0.000003 14.285703 -0.000002 0.041915 -0.243008 -0.016859
  15 -6.256070 7.416467 1.868011 0.000000 -0.000000 3.141593
  16 6.380988 5.337740 17.225994 0.000000 -0.000000 2.926284
  17 0.062474 -0.176185 5.205937 -1.570796 -0.000000 1.570796
  18 0.000001 3.041575 -2.524301 -0.166164 0.325191 -0.352646
  19 -0.000000 12.303571 0.000000 -0.019698 0.032143 0.548423
  20 -0.000001 11.084805 0.000001 0.275283 1.570778 0.000000
  21 -0.000000 2.979604 -0.000000 1.334963 -0.008405 -0.018146
  22 0.000000 2.441537 -0.000000 0.080797 0.017108 -0.002139
  23 -0.000002 3.041575 2.540861 0.110656 -0.346447 0.090389
  24 -0.000000 12.303572 -0.000001 0.008584 -0.026072 0.206627
  25 0.000000 11.084802 -0.000000 -0.348050 -1.307553 0.041762
  26 -0.000000 2.979606 0.000000 1.436365 3.132282 0.054708
  27 0.000000 2.441540 -0.000001 0.105853 0.427896 0.024694
  28 15.255857 -5.679421 14.646289 0.000000 -0.000000 3.141593
  29 -12.206786 -18.526073 2.247040 0.000000 -0.000000 3.141593
  30 4.352865 0.935486 -20.252497 -0.253153 0.000000 3.141593
  31 -4.199039 -5.281296 -20.466749 -0.281884 0.262720 -3.124388
  32 11.859106 22.437963 -9.228452 0.000000 0.000000 -0.000000
  33 -8.945847 13.337276 -9.228452 0.000000 0.000000 -0.000000
  time 3
  0 0.062474 -0.176185 5.142476 1.568082 -0.245873 1.801344
  1 -0.000000 5.135228 -0.000000 0.039100 0.190495 0.171866
  2 0.000001 4.930600 0.000000 0.178260 0.157574 -0.143173
  3 -0.000000 2.720947 -0.000000 0.026227 0.019682 -0.300313
  4 0.000001 1.764669 0.000000 -0.036271 -0.196870 -0.061678
  5 0.000000 1.155204 0.000000 0.019703 -0.458113 0.074954
  6 0.000000 1.786736 0.000000 -0.003226 -0.018526 -0.246521
  7 -0.000000 2.720947 -0.000000 -1.608837 2.706870 0.111992
  8 -0.000001 4.613521 -0.000000 -1.073081 -0.220154 1.018846
  9 0.000000 12.046063 -0.000000 -0.404565 0.256898 1.121260
  10 -0.000004 14.285700 -0.000002 -0.072925 -0.261189 0.084867
  11 -0.000001 2.720947 -0.016561 -1.880218 -0.319135 -0.341840
  12 0.000001 4.613521 0.000000 0.801143 2.147973 -0.726524
  13 0.000002 12.046073 0.000003 1.678804 -0.666596 0.636048
  14 0.000000 14.285707 -0.000000 0.041916 -0.243008 -0.016860
  15 -6.256070 7.416467 1.729661 0.000000 -0.000000 3.141593
  16 6.380988 5.337740 17.064556 0.000000 -0.000000 2.926284
  17 0.062474 -0.176185 5.167669 -1.570796 -0.000000 1.570796
  18 0.000001 3.041575 -2.524301 -0.167960 0.324247 -0.358622
  19 -0.000001 12.303571 -0.000000 -0.020080 0.032379 0.560312
  20 -0.000001 11.084803 -0.000000 0.278323 1.570778 0.000000
  21 0.000000 2.979605 0.000000 1.334963 -0.008406 -0.018146
  22 -0.000000 2.441538 0.000000 0.080797 0.017108 -0.002139
  23 -0.000002 3.041575 2.540861 0.115117 -0.345131 0.076314
  24 -0.000000 12.303570 -0.000001 0.009755 -0.026335 0.235318
  25 0.000001 11.084800 -0.000000 -0.348049 -1.307553 0.027383
  26 -0.000001 2.979607 0.000001 1.436365 3.132282 0.054708
  27 -0.000000 2.441538 0.000001 0.105853 0.427895 0.024694
  28 15.255857 -5.679421 14.646289 0.000000 -0.000000 3.141593
  29 -12.206786 -18.526073 2.247040 0.000000 -0.000000 3.141593
  30 4.352865 0.935486 -20.252497 -0.256192 0.000000 3.141593
  31 -4.199039 -5.281296 -20.466749 -0.296771 0.262940 -3.128256
  32 11.859106 22.437963 -9.228452 0.000000 0.000000 -0.000000
  33 -8.945847 13.337276 -9.228452 0.000000 0.000000 -0.000000
  time 4
  0 0.062474 -0.176185 5.093147 1.566392 -0.252845 1.801761
  1 0.000000 5.135228 -0.000000 0.039100 0.190494 0.171866
  2 -0.000000 4.930600 -0.000000 0.186255 0.156294 -0.159737
  3 0.000000 2.720947 0.000000 0.026227 0.019682 -0.300313
  4 -0.000000 1.764670 -0.000000 -0.036272 -0.196870 -0.061678
  5 -0.000000 1.155205 -0.000000 0.019703 -0.458113 0.074954
  6 0.000000 1.786736 -0.000000 -0.003226 -0.018526 -0.246521
  7 0.000000 2.720947 0.000000 -1.608837 2.706870 0.111992
  8 -0.000000 4.613522 -0.000002 -1.058298 -0.214780 1.029105
  9 0.000001 12.046062 0.000005 -0.403396 0.254571 1.115633
  10 0.000003 14.285695 0.000006 -0.072925 -0.261189 0.084867
  11 -0.000000 2.720945 -0.016560 -1.880218 -0.319135 -0.341840
  12 0.000000 4.613521 0.000001 0.778377 2.140079 -0.747581
  13 -0.000004 12.046069 0.000001 1.676218 -0.665094 0.636253
  14 -0.000002 14.285707 -0.000001 0.041916 -0.243007 -0.016860
  15 -6.256070 7.416467 1.613747 0.000000 -0.000000 3.141593
  16 6.380988 5.337740 16.929298 0.000000 -0.000000 2.926284
  17 0.062474 -0.176185 5.093147 -1.570796 -0.000000 1.570796
  18 0.000001 3.041575 -2.524301 -0.171347 0.322432 -0.369915
  19 -0.000001 12.303571 -0.000001 -0.020794 0.032839 0.582789
  20 -0.000001 11.084805 -0.000000 0.284242 1.570778 0.000000
  21 -0.000000 2.979607 -0.000000 1.334963 -0.008405 -0.018146
  22 0.000000 2.441538 -0.000000 0.080797 0.017108 -0.002139
  23 -0.000002 3.041575 2.540861 0.122576 -0.342853 0.052900
  24 -0.000000 12.303570 -0.000002 0.011695 -0.026849 0.283288
  25 -0.000001 11.084801 -0.000000 -0.348046 -1.307554 0.007250
  26 -0.000000 2.979607 -0.000001 1.436365 3.132282 0.054708
  27 -0.000001 2.441537 -0.000001 0.105853 0.427896 0.024694
  28 15.255857 -5.679421 14.646289 0.000000 -0.000000 3.141593
  29 -12.206786 -18.526073 2.247040 0.000000 -0.000000 3.141593
  30 4.352865 0.935486 -20.252497 -0.262111 -0.000000 3.141593
  31 -4.199039 -5.281296 -20.466749 -0.317618 0.263154 -3.133677
  32 11.859106 22.437963 -9.228452 0.000000 0.000000 -0.000000
  33 -8.945847 13.337276 -9.228452 0.000000 0.000000 -0.000000
  time 5
  0 0.062474 -0.176185 5.125156 1.562865 -0.267308 1.802668
  1 0.000000 5.135230 0.000000 0.039100 0.190495 0.171866
  2 -0.000001 4.930600 0.000000 0.189613 0.155795 -0.166684
  3 0.000001 2.720946 0.000001 0.026227 0.019682 -0.300313
  4 -0.000000 1.764669 -0.000000 -0.036271 -0.196870 -0.061678
  5 0.000000 1.155203 0.000000 0.019703 -0.458113 0.074954
  6 -0.000000 1.786737 -0.000000 -0.003226 -0.018526 -0.246521
  7 0.000001 2.720946 0.000001 -1.608838 2.706870 0.111992
  8 -0.000001 4.613523 -0.000001 -1.054080 -0.214836 1.045414
  9 0.000002 12.046063 0.000003 -0.401075 0.250042 1.104640
  10 -0.000002 14.285698 -0.000001 -0.072925 -0.261189 0.084867
  11 0.000001 2.720947 -0.016560 -1.880218 -0.319135 -0.341840
  12 0.000001 4.613522 -0.000004 0.753959 2.139879 -0.766715
  13 0.000001 12.046071 0.000002 1.667086 -0.659772 0.636937
  14 -0.000003 14.285706 -0.000002 0.041916 -0.243008 -0.016859
  15 -6.256070 7.416467 1.565137 0.000000 -0.000000 3.141593
  16 6.380988 5.337740 16.872578 0.000000 -0.000000 2.926284
  17 0.062474 -0.176185 5.016394 -1.570796 -0.000000 1.570796
  18 0.000001 3.041576 -2.524301 -0.174680 0.320601 -0.381061
  19 0.000001 12.303572 0.000001 -0.021489 0.033308 0.604989
  20 -0.000001 11.084804 -0.000000 0.299930 1.570778 0.000000
  21 0.000000 2.979607 -0.000000 1.334963 -0.008405 -0.018146
  22 -0.000000 2.441538 0.000001 0.080797 0.017108 -0.002139
  23 -0.000002 3.041576 2.540861 0.129121 -0.340778 0.032499
  24 -0.000000 12.303571 0.000001 0.013374 -0.027377 0.325351
  25 -0.000001 11.084805 -0.000000 -0.348043 -1.307553 -0.018631
  26 -0.000000 2.979604 0.000000 1.436365 3.132282 0.054708
  27 -0.000001 2.441537 -0.000001 0.105853 0.427895 0.024694
  28 15.255857 -5.679421 14.646289 0.000000 -0.000000 3.141593
  29 -12.206786 -18.526073 2.247040 0.000000 -0.000000 3.141593
  30 4.352865 0.935486 -20.252497 -0.277800 -0.000000 3.141593
  31 -4.199039 -5.281296 -20.466749 -0.344419 0.263269 -3.140650
  32 11.859106 22.437963 -9.228452 0.000000 0.000000 -0.000000
  33 -8.945847 13.337276 -9.228452 0.000000 0.000000 -0.000000
  time 6
  0 0.062474 -0.176185 5.138137 1.563663 -0.264046 1.802458
  1 -0.000001 5.135230 -0.000001 0.039100 0.190495 0.171866
  2 -0.000000 4.930599 0.000000 0.189552 0.157525 -0.148736
  3 0.000000 2.720944 0.000001 0.026227 0.019682 -0.300313
  4 -0.000000 1.764671 -0.000000 -0.036272 -0.196870 -0.061678
  5 0.000000 1.155204 0.000000 0.019703 -0.458113 0.074954
  6 0.000000 1.786737 -0.000000 -0.003226 -0.018526 -0.246521
  7 0.000000 2.720944 0.000001 -1.608838 2.706870 0.111992
  8 -0.000002 4.613521 0.000001 -1.064356 -0.226228 1.039380
  9 0.000001 12.046066 0.000002 -0.401601 0.251057 1.107108
  10 -0.000001 14.285700 -0.000001 -0.072925 -0.261189 0.084867
  11 0.000000 2.720945 -0.016561 -1.880218 -0.319135 -0.341840
  12 0.000000 4.613522 0.000001 0.781547 2.137514 -0.744586
  13 -0.000002 12.046071 0.000002 1.667128 -0.659800 0.636936
  14 -0.000003 14.285707 -0.000001 0.041916 -0.243008 -0.016860
  15 -6.256070 7.416467 1.582448 0.000000 -0.000000 3.141593
  16 6.380988 5.337740 17.067446 0.000000 -0.000000 2.926284
  17 0.062474 -0.176185 5.069712 -1.570796 -0.000000 1.570796
  18 0.000001 3.041575 -2.524301 -0.172382 0.321868 -0.373373
  19 0.000000 12.303569 -0.000001 -0.021011 0.032982 0.589676
  20 -0.000002 11.084806 0.000001 0.293209 1.570778 0.000000
  21 0.000000 2.979608 -0.000001 1.334963 -0.008405 -0.018146
  22 0.000000 2.441538 0.000001 0.080797 0.017108 -0.002139
  23 -0.000002 3.041575 2.540861 0.124659 -0.342201 0.046395
  24 -0.000000 12.303572 -0.000002 0.012232 -0.027010 0.296676
  25 0.000001 11.084803 -0.000001 -0.348045 -1.307553 -0.006546
  26 -0.000001 2.979606 -0.000000 1.436365 3.132282 0.054708
  27 -0.000000 2.441537 -0.000001 0.105853 0.427896 0.024694
  28 15.255857 -5.679421 14.646289 0.000000 -0.000000 3.141593
  29 -12.206786 -18.526073 2.247040 0.000000 -0.000000 3.141593
  30 4.352865 0.935486 -20.252497 -0.271078 -0.000000 3.141593
  31 -4.199039 -5.281296 -20.466749 -0.331905 0.263238 -3.137394
  32 11.859106 22.437963 -9.228452 0.000000 0.000000 -0.000000
  33 -8.945847 13.337276 -9.228452 0.000000 0.000000 -0.000000
  time 7
  0 0.062474 -0.176185 5.173603 1.565836 -0.255132 1.801901
  1 0.000001 5.135230 0.000000 0.039100 0.190495 0.171866
  2 -0.000000 4.930599 0.000001 0.182392 0.160478 -0.115922
  3 0.000000 2.720947 0.000000 0.026227 0.019682 -0.300313
  4 -0.000000 1.764670 -0.000000 -0.036272 -0.196870 -0.061678
  5 0.000000 1.155204 0.000000 0.019703 -0.458113 0.074954
  6 0.000000 1.786736 -0.000000 -0.003226 -0.018526 -0.246521
  7 0.000000 2.720947 0.000000 -1.608837 2.706870 0.111992
  8 -0.000000 4.613520 -0.000002 -1.086381 -0.243023 1.025472
  9 0.000002 12.046062 0.000007 -0.403490 0.254756 1.116082
  10 0.000003 14.285696 -0.000000 -0.072925 -0.261189 0.084867
  11 -0.000000 2.720945 -0.016561 -1.880218 -0.319135 -0.341840
  12 -0.000001 4.613523 -0.000000 0.833843 2.138315 -0.700868
  13 0.000002 12.046069 0.000002 1.668279 -0.660471 0.636853
  14 -0.000003 14.285700 -0.000002 0.041916 -0.243008 -0.016860
  15 -6.256070 7.416467 1.703626 0.000000 -0.000000 3.141593
  16 6.380988 5.337740 17.429348 0.000000 -0.000000 2.926284
  17 0.062474 -0.176185 5.168732 -1.570796 -0.000000 1.570796
  18 0.000001 3.041575 -2.524301 -0.167910 0.324273 -0.358458
  19 0.000001 12.303572 -0.000001 -0.020069 0.032373 0.559985
  20 -0.000001 11.084807 0.000001 0.280725 1.570778 0.000000
  21 0.000000 2.979606 -0.000000 1.334963 -0.008405 -0.018146
  22 0.000001 2.441538 0.000002 0.080797 0.017108 -0.002139
  23 -0.000002 3.041575 2.540861 0.115000 -0.345166 0.076681
  24 -0.000000 12.303570 -0.000000 0.009725 -0.026328 0.234568
  25 -0.000001 11.084801 -0.000001 -0.348049 -1.307553 0.029718
  26 -0.000001 2.979605 -0.000000 1.436365 3.132282 0.054708
  27 -0.000000 2.441538 0.000002 0.105853 0.427896 0.024694
  28 15.255857 -5.679421 14.646289 0.000000 -0.000000 3.141593
  29 -12.206786 -18.526073 2.247040 0.000000 -0.000000 3.141593
  30 4.352865 0.935486 -20.252497 -0.258595 0.000000 3.141593
  31 -4.199039 -5.281296 -20.466749 -0.294354 0.262908 -3.127628
  32 11.859106 22.437963 -9.228452 0.000000 0.000000 -0.000000
  33 -8.945847 13.337276 -9.228452 0.000000 0.000000 -0.000000
  time 8
  0 0.062474 -0.176185 5.222050 1.568788 -0.242954 1.801173
  1 0.000001 5.135228 -0.000000 0.039100 0.190495 0.171866
  2 -0.000001 4.930599 -0.000000 0.157471 0.161537 -0.099927
  3 0.000000 2.720947 0.000000 0.026227 0.019682 -0.300313
  4 0.000000 1.764667 0.000001 -0.036271 -0.196870 -0.061678
  5 -0.000000 1.155205 -0.000000 0.019703 -0.458113 0.074954
  6 -0.000001 1.786738 0.000000 -0.003226 -0.018527 -0.246521
  7 0.000000 2.720947 0.000000 -1.608837 2.706870 0.111992
  8 -0.000001 4.613522 0.000000 -1.107051 -0.239089 1.011019
  9 -0.000000 12.046065 0.000005 -0.407072 0.262000 1.133543
  10 0.000001 14.285701 0.000002 -0.072925 -0.261189 0.084867
  11 0.000000 2.720947 -0.016561 -1.880218 -0.319135 -0.341840
  12 0.000000 4.613522 -0.000002 0.862341 2.152527 -0.672869
  13 0.000001 12.046067 0.000005 1.672311 -0.662821 0.636552
  14 -0.000008 14.285697 -0.000004 0.041916 -0.243007 -0.016859
  15 -6.256070 7.416467 2.032535 0.000000 -0.000000 3.141593
  16 6.380988 5.337740 17.624218 0.000000 -0.000000 2.926284
  17 0.062474 -0.176185 5.222051 -1.570796 -0.000000 1.570796
  18 0.000001 3.041576 -2.524301 -0.165395 0.325591 -0.350092
  19 0.000000 12.303573 -0.000001 -0.019534 0.032044 0.543342
  20 -0.000002 11.084805 0.000000 0.274003 1.570778 0.000000
  21 0.000000 2.979605 -0.000001 1.334963 -0.008405 -0.018146
  22 0.000000 2.441538 -0.000001 0.080797 0.017108 -0.002139
  23 -0.000002 3.041576 2.540861 0.108572 -0.347051 0.096984
  24 0.000001 12.303570 -0.000001 0.008034 -0.025961 0.193221
  25 0.000000 11.084805 -0.000001 -0.348052 -1.307553 0.053265
  26 -0.000000 2.979605 0.000000 1.436365 3.132282 0.054708
  27 -0.000000 2.441537 -0.000000 0.105853 0.427896 0.024694
  28 15.255857 -5.679421 14.646289 0.000000 -0.000000 3.141593
  29 -12.206786 -18.526073 2.247040 0.000000 -0.000000 3.141593
  30 4.352865 0.935486 -20.252497 -0.251873 0.000000 3.141593
  31 -4.199039 -5.281296 -20.466749 -0.269977 0.262505 -3.121297
  32 11.859106 22.437963 -9.228452 0.000000 0.000000 -0.000000
  33 -8.945847 13.337276 -9.228452 0.000000 0.000000 -0.000000
end
