version 1
nodes
0 "Spine.001" -1
1 "Spine.002" 0
2 "Spine.003" 1
3 "Spine.004" 2
4 "Spine.005" 3
5 "Spine.006" 4
6 "Spine.007" 5
7 "Arm.R.001" 2
8 "Arm.R.002" 7
9 "Arm.R.003" 8
10 "Arm.R.004" 9
11 "Arm.L.001" 2
12 "Arm.L.002" 11
13 "Arm.L.003" 12
14 "Arm.L.004" 13
15 "ForearmIK.R" -1
16 "ForearmIK.L" -1
17 "Spine.008" -1
18 "Leg.R.001" 17
19 "Leg.R.002" 18
20 "Leg.R.003" 19
21 "Leg.R.004" 20
22 "Leg.R.005" 21
23 "Leg.L.001" 17
24 "Leg.L.002" 23
25 "Leg.L.003" 24
26 "Leg.L.004" 25
27 "Leg.L.005" 26
28 "UpperarmIK.R" -1
29 "UpperarmIK.L" -1
30 "ShinIK.R" -1
31 "ShinIK.L" -1
32 "KneeIK.R" -1
33 "KneeIK.L" -1
end
skeleton
  time 0
  0 0.062475 -0.176184 5.473557 1.570796 -0.003099 1.570796
  1 -0.000000 5.135228 -0.000000 0.012457 -0.000268 0.134683
  2 -0.000000 4.930600 0.000000 -0.000187 -0.002679 -0.177535
  3 -0.000000 2.720946 0.000000 -0.015930 0.034398 -0.125323
  4 0.000000 1.764669 0.000000 -0.000086 -0.000219 -0.155079
  5 -0.000001 1.155206 0.000000 0.007227 0.004689 -0.028521
  6 0.000000 1.786736 -0.000000 0.012776 0.001571 -0.176451
  7 -0.000000 2.720946 0.000000 1.476803 0.053421 -3.137652
  8 0.000000 4.613522 0.000002 -0.857045 0.023322 0.924037
  9 0.000000 12.046066 0.000002 -0.451464 0.427191 1.511957
  10 -0.000001 14.285703 -0.000001 -0.297821 -0.184530 0.353829
  11 -0.000000 2.720946 -0.016561 -1.909840 -0.018231 -0.363428
  12 0.000001 4.613521 -0.000001 1.019544 2.676208 0.226650
  13 0.000001 12.046072 0.000001 0.358842 0.008729 0.211409
  14 0.000006 14.285705 -0.000003 -0.104343 -0.402891 0.227398
  15 -4.959695 9.039680 7.250684 0.000000 -0.000000 3.141593
  16 -8.580562 -0.174127 -8.561613 0.000000 -0.000000 2.926284
  17 0.062474 -0.176185 5.473558 -1.570796 -0.000000 1.570796
  18 0.000001 3.041575 -2.524301 -0.041591 0.081909 -0.557090
  19 -0.000001 12.303572 -0.000002 -0.025662 0.036651 0.746609
  20 -0.000002 11.084806 0.000001 0.305234 1.570778 0.000000
  21 0.000000 2.979607 0.000000 1.421832 -0.005204 -0.005020
  22 -0.000000 2.441538 -0.000001 0.080797 0.017108 -0.002139
  23 -0.000002 3.041576 2.540861 0.034878 -0.091317 -0.029245
  24 -0.000000 12.303569 -0.000001 0.014001 -0.027594 0.341211
  25 0.000001 11.084805 -0.000001 -0.265571 -1.528273 -0.120122
  26 -0.000000 2.979607 -0.000000 1.436365 3.132282 0.054708
  27 0.000000 2.441537 -0.000000 0.105853 0.427895 0.024694
  28 18.030388 -6.247496 8.439036 0.000000 -0.000000 3.141593
  29 -1.271162 -17.570770 1.831609 0.000000 -0.000000 3.141593
  30 3.100051 4.158250 -18.902300 -0.283104 0.000000 3.141593
  31 -3.084082 -3.293902 -20.396284 -0.363651 0.042346 3.137429
  32 4.825252 22.437963 -9.228452 0.000000 0.000000 -0.000000
  33 -5.038689 22.639812 -9.228452 0.000000 0.000000 -0.000000
  time 1
  0 0.062475 -0.176184 5.093649 1.589504 -0.009692 1.566650
  1 -0.000001 5.135229 -0.000000 0.015449 -0.000275 0.118392
  2 0.000000 4.930600 -0.000000 -0.000187 -0.002680 -0.177535
  3 0.000000 2.720946 0.000000 -0.015930 0.034398 -0.125323
  4 -0.000000 1.764670 0.000000 -0.029491 -0.013369 -0.193749
  5 0.000001 1.155203 0.000000 0.007227 0.004689 -0.028521
  6 -0.000000 1.786737 -0.000000 0.012778 0.001564 -0.175534
  7 0.000000 2.720946 0.000000 1.476803 0.053421 -3.137652
  8 -0.000000 4.613522 -0.000000 -0.839930 0.004050 0.928874
  9 -0.000002 12.046062 0.000009 -0.451121 0.422348 1.500990
  10 0.000001 14.285701 0.000003 -0.355316 -0.166931 0.382585
  11 0.000000 2.720946 -0.016561 -1.970080 0.101055 -0.366277
  12 0.000000 4.613521 -0.000001 0.950006 2.684607 0.053449
  13 0.000000 12.046068 -0.000001 0.387892 0.002241 0.227968
  14 0.000004 14.285700 -0.000003 -0.104343 -0.402891 0.227398
  15 -4.654240 9.039680 6.508920 0.000000 -0.000000 3.141593
  16 -8.247236 0.295873 -8.712388 0.000000 -0.000000 2.926284
  17 0.062474 -0.176185 5.093649 -1.570796 -0.000000 1.570796
  18 0.000001 3.041575 -2.524301 -0.042060 0.089641 -0.631139
  19 -0.000001 12.303573 -0.000001 -0.023761 0.035006 0.680076
  20 -0.000001 11.084804 -0.000000 0.294009 1.570778 0.000000
  21 -0.000000 2.979606 -0.000000 1.418565 -0.005270 -0.005394
  22 0.000000 2.441538 0.000001 0.080797 0.017108 -0.002139
  23 -0.000002 3.041575 2.540861 0.042119 -0.087446 0.039824
  24 -0.000000 12.303570 -0.000001 0.023991 -0.032740 0.610593
  25 -0.000001 11.084802 -0.000000 0.321984 -1.538839 -0.770934
  26 -0.000000 2.979608 0.000001 1.089112 -3.140593 0.014255
  27 -0.000000 2.441538 -0.000000 0.590441 0.308127 0.201222
  28 18.030388 -6.247496 8.439036 0.000000 -0.000000 3.141593
  29 -1.271162 -17.570770 1.831609 0.000000 -0.000000 3.141593
  30 3.100051 6.454935 -18.968803 -0.271879 -0.000000 3.141593
  31 -3.084083 -7.459257 -19.022188 -0.427077 0.023434 3.119832
  32 4.825252 22.437963 -9.228452 0.000000 0.000000 -0.000000
  33 -5.038689 22.639812 -9.228452 0.000000 0.000000 -0.000000
  time 2
  0 0.062474 -0.176185 4.713741 1.608215 -0.016258 1.565856
  1 0.000000 5.135229 0.000000 0.016558 -0.000093 0.088171
  2 0.000000 4.930600 0.000000 -0.000187 -0.002680 -0.177535
  3 -0.000000 2.720944 0.000000 -0.015930 0.034398 -0.125323
  4 -0.000000 1.764670 -0.000000 -0.059523 -0.019689 -0.232246
  5 -0.000000 1.155205 -0.000000 0.007227 0.004689 -0.028521
  6 -0.000000 1.786737 0.000000 0.012781 0.001537 -0.172981
  7 -0.000000 2.720944 0.000000 1.476803 0.053421 -3.137652
  8 0.000000 4.613523 0.000001 -0.797484 -0.012657 0.906739
  9 -0.000001 12.046066 0.000003 -0.452002 0.437588 1.535559
  10 -0.000000 14.285698 0.000002 -0.383454 -0.152738 0.396095
  11 0.000000 2.720944 -0.016560 -1.979946 0.140470 -0.368065
  12 -0.000001 4.613523 -0.000000 0.941418 2.675527 -0.033172
  13 0.000003 12.046076 0.000001 0.427609 -0.007444 0.250391
  14 -0.000007 14.285703 0.000008 -0.104343 -0.402891 0.227398
  15 -4.086965 9.039680 6.235639 0.000000 -0.000000 3.141593
  16 -7.628203 1.168732 -8.767936 0.000000 -0.000000 2.926284
  17 0.062474 -0.176185 4.713741 -1.570796 -0.000000 1.570796
  18 0.000001 3.041575 -2.524301 -0.035614 0.103518 -0.592966
  19 -0.000000 12.303571 -0.000000 -0.014693 0.029577 0.399415
  20 -0.000002 11.084805 -0.000000 0.216473 1.570778 0.000000
  21 0.000000 2.979607 -0.000000 1.414318 -0.005358 -0.005879
  22 -0.000000 2.441539 0.000001 0.080797 0.017108 -0.002139
  23 -0.000002 3.041575 2.540861 0.042523 -0.094263 0.264127
  24 0.000001 12.303571 -0.000001 0.022342 -0.031644 0.563271
  25 -0.000000 11.084803 -0.000000 0.991171 -1.532525 -1.503378
  26 -0.000000 2.979606 0.000001 0.534261 3.132833 0.033702
  27 0.000000 2.441538 -0.000000 1.177515 0.164299 0.348928
  28 18.030388 -6.247496 8.439036 0.000000 -0.000000 3.141593
  29 -1.271162 -17.570770 1.831609 0.000000 -0.000000 3.141593
  30 3.100051 8.751619 -19.434322 -0.194342 -0.000000 3.141593
  31 -3.084083 -11.624612 -17.648092 -0.490145 0.003449 3.103474
  32 4.825252 22.437963 -9.228452 0.000000 0.000000 -0.000000
  33 -5.038689 22.639812 -9.228452 0.000000 0.000000 -0.000000
  time 3
  0 0.062474 -0.176185 4.992371 1.589558 -0.047753 1.568029
  1 -0.000000 5.135228 -0.000000 0.016716 -0.000031 0.071895
  2 0.000000 4.930600 0.000000 -0.000187 -0.002679 -0.177535
  3 0.000000 2.720944 0.000000 -0.015930 0.034398 -0.125323
  4 -0.000001 1.764672 -0.000000 -0.059165 -0.016879 -0.208458
  5 0.000001 1.155203 0.000000 0.007227 0.004690 -0.028521
  6 -0.000001 1.786738 -0.000000 0.012781 0.001483 -0.169086
  7 0.000000 2.720944 0.000000 1.476803 0.053421 -3.137651
  8 0.000000 4.613521 0.000001 -0.790107 -0.029541 0.893204
  9 -0.000000 12.046062 0.000003 -0.451784 0.432783 1.524644
  10 0.000003 14.285695 -0.000001 -0.392845 -0.143680 0.400283
  11 0.000000 2.720945 -0.016561 -1.972422 0.124121 -0.367050
  12 -0.000001 4.613521 0.000002 0.974458 2.652207 -0.038954
  13 -0.000000 12.046072 0.000000 0.374261 0.005348 0.220214
  14 0.000006 14.285704 -0.000006 -0.104343 -0.402891 0.227398
  15 -3.781509 9.039680 6.196599 0.000000 -0.000000 3.141593
  16 -7.294878 1.638732 -8.775871 0.000000 -0.000000 2.926284
  17 0.062474 -0.176185 4.992371 -1.570796 -0.000000 1.570796
  18 0.000001 3.041575 -2.524301 -0.032505 0.092925 -0.431832
  19 -0.000001 12.303572 -0.000001 -0.013539 0.029112 0.366507
  20 -0.000002 11.084805 0.000001 0.044076 1.570778 0.000000
  21 0.000000 2.979606 -0.000000 1.410072 -0.005448 -0.006364
  22 -0.000000 2.441537 0.000000 0.080797 0.017108 -0.002139
  23 -0.000002 3.041575 2.540861 0.052401 -0.085124 0.101163
  24 -0.000001 12.303568 0.000001 0.033382 -0.041787 0.923512
  25 -0.000000 11.084801 -0.000000 0.220114 -1.542731 -0.648735
  26 -0.000000 2.979606 -0.000001 0.588945 -3.136912 0.028515
  27 0.000000 2.441536 -0.000000 1.137254 0.162000 0.338890
  28 18.030388 -6.247496 8.439036 0.000000 -0.000000 3.141593
  29 -1.271162 -17.570770 1.831609 0.000000 -0.000000 3.141593
  30 3.100051 5.626302 -20.295582 -0.021946 -0.000000 3.141593
  31 -3.084083 -10.972145 -15.976143 -0.406677 0.022760 3.125132
  32 4.825252 22.437963 -9.228452 0.000000 0.000000 -0.000000
  33 -5.038689 22.639812 -9.228452 0.000000 0.000000 -0.000000
  time 4
  0 0.062474 -0.176185 5.596700 1.570796 -0.069277 1.570796
  1 0.000000 5.135228 -0.000000 0.015268 -0.000195 0.077429
  2 -0.000001 4.930601 -0.000000 -0.000187 -0.002679 -0.177535
  3 -0.000000 2.720946 -0.000000 -0.015930 0.034398 -0.125323
  4 -0.000000 1.764670 -0.000000 -0.053836 -0.011547 -0.184773
  5 -0.000000 1.155205 0.000000 0.007227 0.004689 -0.028521
  6 0.000001 1.786735 -0.000000 0.012773 0.001393 -0.164142
  7 -0.000000 2.720946 -0.000000 1.476803 0.053421 -3.137651
  8 -0.000000 4.613521 -0.000001 -0.806261 -0.040341 0.885253
  9 0.000001 12.046063 -0.000001 -0.451949 0.436271 1.532561
  10 -0.000002 14.285701 -0.000005 -0.393735 -0.140538 0.400540
  11 0.000000 2.720946 -0.016561 -1.952649 0.080836 -0.364969
  12 -0.000000 4.613522 -0.000002 1.018191 2.662655 0.036360
  13 -0.000001 12.046070 -0.000001 0.309980 0.018500 0.183287
  14 -0.000001 14.285700 0.000001 -0.104343 -0.402891 0.227398
  15 -3.808210 8.798588 6.889010 0.000000 -0.000000 3.141593
  16 -7.415795 0.829422 -8.609724 0.000000 -0.000000 2.926284
  17 0.062474 -0.176185 5.596700 -1.570796 -0.000000 1.570796
  18 0.000001 3.041575 -2.524301 -0.029055 0.089149 -0.285618
  19 -0.000001 12.303573 -0.000001 -0.010049 0.027964 0.269213
  20 -0.000001 11.084804 -0.000001 0.146187 1.570778 0.000000
  21 -0.000000 2.979606 0.000000 1.406807 -0.005518 -0.006737
  22 -0.000000 2.441538 0.000002 0.080797 0.017108 -0.002139
  23 -0.000002 3.041575 2.540861 0.057198 -0.077192 -0.000472
  24 0.000000 12.303572 -0.000001 0.038031 -0.049554 1.140333
  25 0.000002 11.084805 0.000000 -0.489197 -1.530069 0.144169
  26 -0.000000 2.979606 -0.000000 0.885096 -3.128521 0.030576
  27 0.000000 2.441540 -0.000001 0.943747 0.195978 0.324404
  28 18.030388 -6.247496 8.439036 0.000000 -0.000000 3.141593
  29 -1.271162 -17.570770 1.831609 0.000000 -0.000000 3.141593
  30 3.100051 3.410089 -20.336361 -0.124057 0.000000 3.141593
  31 -3.084083 -10.319677 -14.304195 -0.322762 0.040193 -3.134848
  32 4.825252 22.437963 -9.228452 0.000000 0.000000 -0.000000
  33 -5.038689 22.639812 -9.228452 0.000000 0.000000 -0.000000
  time 5
  0 0.062474 -0.176185 6.027358 1.570796 -0.060269 1.570796
  1 -0.000001 5.135230 0.000000 0.010626 -0.000442 0.087709
  2 -0.000001 4.930602 -0.000000 -0.000187 -0.002679 -0.177535
  3 -0.000000 2.720945 -0.000000 -0.015930 0.034398 -0.125323
  4 -0.000000 1.764671 0.000000 -0.031620 -0.005601 -0.189525
  5 0.000000 1.155203 0.000000 0.007227 0.004689 -0.028521
  6 -0.000000 1.786738 -0.000000 0.012752 0.001260 -0.158443
  7 -0.000000 2.720945 -0.000000 1.476803 0.053421 -3.137652
  8 -0.000000 4.613522 -0.000001 -0.812404 -0.038636 0.871168
  9 -0.000001 12.046064 0.000003 -0.452086 0.466124 1.600852
  10 -0.000002 14.285704 0.000000 -0.382258 -0.146081 0.395260
  11 -0.000000 2.720946 -0.016561 -1.924772 0.019291 -0.363492
  12 0.000000 4.613522 -0.000001 1.042172 2.707793 0.171245
  13 0.000003 12.046068 -0.000001 0.317160 0.017154 0.187439
  14 -0.000010 14.285693 0.000008 -0.104343 -0.402891 0.227398
  15 -3.949855 8.350846 8.174917 0.000000 -0.000000 3.141593
  16 -7.701688 -0.962934 -8.301166 0.000000 -0.000000 2.926284
  17 0.062474 -0.176185 6.027358 -1.570796 -0.000000 1.570796
  18 0.000001 3.041575 -2.524301 -0.022135 0.088497 -0.062892
  19 -0.000001 12.303572 0.000000 -0.000188 0.026605 0.004975
  20 -0.000001 11.084805 0.000000 -0.026716 1.570778 0.000000
  21 0.000000 2.979603 0.000001 1.405501 -0.005547 -0.006886
  22 -0.000000 2.441537 0.000001 0.080797 0.017108 -0.002139
  23 -0.000002 3.041575 2.540861 0.051181 -0.075152 -0.153168
  24 -0.000002 12.303571 -0.000001 0.035680 -0.045154 1.020983
  25 -0.000001 11.084805 -0.000000 0.063469 -1.493783 -0.589016
  26 -0.000000 2.979607 -0.000000 1.192135 -3.119584 0.030033
  27 0.000000 2.441537 0.000000 0.364070 0.326756 0.205275
  28 18.030388 -6.247496 8.439036 0.000000 -0.000000 3.141593
  29 -1.271162 -17.570770 1.831609 0.000000 -0.000000 3.141593
  30 3.100051 1.193875 -20.377140 0.048846 -0.000000 3.141593
  31 -3.084083 -6.839853 -16.288786 -0.504766 0.064976 3.100177
  32 4.825252 22.437963 -9.228452 0.000000 0.000000 -0.000000
  33 -5.038689 22.639812 -9.228452 0.000000 0.000000 -0.000000
  time 6
  0 0.062474 -0.176185 5.775100 1.561891 -0.068354 1.572949
  1 -0.000000 5.135229 -0.000000 0.002349 -0.000728 0.093246
  2 0.000000 4.930599 0.000000 -0.000187 -0.002679 -0.177535
  3 -0.000000 2.720946 -0.000000 -0.015930 0.034398 -0.125323
  4 0.000000 1.764669 -0.000000 0.007127 0.001664 -0.200415
  5 0.000000 1.155204 -0.000000 0.007227 0.004689 -0.028521
  6 -0.000001 1.786739 -0.000000 0.012714 0.001076 -0.152284
  7 -0.000000 2.720946 -0.000000 1.476803 0.053421 -3.137652
  8 -0.000000 4.613522 -0.000000 -0.813031 -0.011928 0.876158
  9 -0.000003 12.046061 0.000004 -0.450966 0.485165 1.645015
  10 -0.000000 14.285706 -0.000001 -0.354720 -0.159060 0.382384
  11 -0.000000 2.720946 -0.016561 -1.892757 -0.051532 -0.363915
  12 -0.000000 4.613521 0.000001 0.990950 2.791289 0.344460
  13 -0.000001 12.046071 0.000002 0.453719 -0.014326 0.264984
  14 0.000002 14.285698 -0.000003 -0.104343 -0.402891 0.227398
  15 -4.298764 8.109755 8.867330 0.000000 -0.000000 3.141593
  16 -8.037267 -2.784968 -8.135017 0.000000 -0.000000 2.926284
  17 0.062474 -0.176185 5.775100 -1.570796 -0.000000 1.570796
  18 0.000001 3.041575 -2.524301 -0.029235 0.081919 -0.093865
  19 0.000001 12.303573 0.000000 -0.011710 0.028464 0.315129
  20 0.000000 11.084804 -0.000001 0.096987 1.570778 0.000000
  21 0.000000 2.979606 -0.000000 1.568488 0.001407 0.010862
  22 -0.000000 2.441538 0.000001 0.080797 0.017108 -0.002139
  23 -0.000002 3.041575 2.540861 0.039953 -0.087707 -0.186430
  24 -0.000003 12.303571 -0.000001 0.021483 -0.031117 0.539197
  25 0.000000 11.084805 0.000000 -0.096377 -1.498616 -0.364631
  26 0.000000 2.979606 0.000000 1.496112 -3.111308 0.026858
  27 0.000000 2.441538 0.000001 -0.085824 0.374726 0.052731
  28 18.030388 -6.247496 8.439036 0.000000 -0.000000 3.141593
  29 -1.271162 -17.570770 1.831609 0.000000 -0.000000 3.141593
  30 3.100050 -1.513863 -20.320047 -0.074857 0.000000 3.141593
  31 -3.084082 -1.810418 -19.741426 -0.439703 0.068008 3.117313
  32 4.825252 22.437963 -9.228452 0.000000 0.000000 -0.000000
  33 -5.038689 22.639812 -9.228452 0.000000 0.000000 -0.000000
  time 7
  0 0.062474 -0.176185 5.220132 1.542214 -0.086075 1.577945
  1 -0.000000 5.135230 0.000000 -0.009377 -0.001134 0.088250
  2 0.000000 4.930599 -0.000000 -0.000187 -0.002679 -0.177535
  3 -0.000000 2.720947 0.000000 -0.015930 0.034398 -0.125323
  4 -0.000000 1.764670 0.000000 0.049980 0.009383 -0.213091
  5 -0.000001 1.155206 -0.000000 0.007227 0.004689 -0.028521
  6 0.000000 1.786735 0.000000 0.012653 0.000834 -0.145965
  7 -0.000000 2.720947 0.000000 1.476803 0.053421 -3.137652
  8 0.000000 4.613521 -0.000002 -0.825330 0.028839 0.905090
  9 -0.000001 12.046062 -0.000001 -0.451838 0.472077 1.614601
  10 0.000000 14.285698 0.000001 -0.321546 -0.174087 0.366509
  11 0.000000 2.720947 -0.016561 -1.860461 -0.122351 -0.366628
  12 0.000001 4.613522 -0.000001 0.947516 2.842563 0.492708
  13 0.000001 12.046074 0.000003 0.551893 -0.043828 0.318637
  14 0.000003 14.285705 0.000001 -0.104343 -0.402891 0.227398
  15 -4.896836 8.255056 8.450640 0.000000 -0.000000 3.141593
  16 -8.337256 -3.888580 -8.297403 0.000000 -0.000000 2.926284
  17 0.062474 -0.176185 5.220132 -1.570796 -0.000000 1.570796
  18 0.000001 3.041575 -2.524301 -0.032084 0.079448 -0.035526
  19 0.000001 12.303570 0.000000 -0.016292 0.030296 0.445819
  20 -0.000001 11.084802 0.000000 0.220690 1.570778 0.000000
  21 0.000000 2.979608 -0.000000 1.670030 0.004558 0.022767
  22 -0.000000 2.441538 -0.000002 0.080797 0.017108 -0.002139
  23 -0.000002 3.041575 2.540861 0.047574 -0.088673 -0.505665
  24 0.000000 12.303569 0.000000 0.028750 -0.036618 0.757439
  25 0.000000 11.084804 -0.000001 -0.175389 -1.477760 -0.285882
  26 0.000000 2.979607 0.000000 1.487367 -3.116952 0.031048
  27 -0.000000 2.441538 0.000000 -0.078606 0.385475 0.040129
  28 18.030388 -6.247496 8.439036 0.000000 -0.000000 3.141593
  29 -1.271162 -17.570770 1.831609 0.000000 -0.000000 3.141593
  30 3.100050 -4.221602 -20.262957 -0.198560 0.000000 3.141593
  31 -3.084082 2.919971 -19.320042 -0.440235 0.089837 3.117271
  32 4.825252 22.437963 -9.228452 0.000000 0.000000 -0.000000
  33 -5.038689 22.639812 -9.228452 0.000000 0.000000 -0.000000
  time 8
  0 0.062474 -0.176185 4.665164 1.522415 -0.103694 1.583300
  1 -0.000000 5.135229 -0.000000 -0.021857 -0.001704 0.077258
  2 0.000000 4.930599 0.000001 -0.000187 -0.002679 -0.177535
  3 0.000000 2.720947 0.000000 -0.015930 0.034398 -0.125323
  4 -0.000000 1.764670 0.000000 0.084566 0.016126 -0.223459
  5 -0.000000 1.155204 -0.000000 0.007227 0.004689 -0.028521
  6 0.000000 1.786736 0.000000 0.012565 0.000525 -0.139783
  7 0.000000 2.720947 0.000000 1.476803 0.053421 -3.137652
  8 -0.000001 4.613523 -0.000000 -0.844891 0.072017 0.945417
  9 -0.000001 12.046064 0.000002 -0.452158 0.442333 1.546359
  10 0.000003 14.285697 0.000005 -0.293506 -0.186266 0.352793
  11 0.000000 2.720945 -0.016561 -1.831872 -0.183865 -0.370906
  12 -0.000001 4.613521 0.000002 0.929756 2.858899 0.600568
  13 -0.000000 12.046070 -0.000003 0.594761 -0.058495 0.341380
  14 -0.000004 14.285707 0.000001 -0.104344 -0.402891 0.227398
  15 -5.584287 8.574718 7.533922 0.000000 -0.000000 3.141593
  16 -8.636442 -4.346721 -8.703368 0.000000 -0.000000 2.926284
  17 0.062474 -0.176185 4.665165 -1.570796 -0.000000 1.570796
  18 0.000001 3.041575 -2.524301 -0.034554 0.079374 0.059579
  19 -0.000000 12.303570 -0.000003 -0.019416 0.031972 0.539685
  20 -0.000002 11.084804 0.000001 0.233872 1.570778 0.000000
  21 0.000001 2.979606 -0.000002 1.707535 0.005414 0.027247
  22 -0.000001 2.441539 -0.000000 0.080797 0.017108 -0.002139
  23 -0.000002 3.041575 2.540861 0.050872 -0.104072 -0.700194
  24 0.000000 12.303569 0.000001 0.026921 -0.034989 0.698891
  25 0.000001 11.084804 -0.000001 -0.225337 -1.456539 -0.236200
  26 0.000000 2.979606 0.000000 1.478693 -3.122602 0.035167
  27 0.000000 2.441538 0.000001 -0.052585 0.396052 0.031505
  28 18.030388 -6.247496 8.439036 0.000000 -0.000000 3.141593
  29 -1.271162 -17.570770 1.831609 0.000000 -0.000000 3.141593
  30 3.100050 -7.222952 -19.781763 -0.211741 -0.000000 3.141593
  31 -3.084081 7.650359 -18.898659 -0.440769 0.111666 3.117218
  32 4.825252 22.437963 -9.228452 0.000000 0.000000 -0.000000
  33 -5.038689 22.639812 -9.228452 0.000000 0.000000 -0.000000
  time 9
  0 0.062474 -0.176185 4.412906 1.513374 -0.111665 1.585852
  1 -0.000001 5.135229 0.000000 -0.031770 -0.002295 0.066269
  2 0.000000 4.930600 0.000000 -0.000187 -0.002680 -0.177535
  3 -0.000001 2.720945 0.000000 -0.015930 0.034398 -0.125323
  4 0.000001 1.764670 -0.000000 0.098638 0.019978 -0.227692
  5 -0.000000 1.155205 0.000000 0.007227 0.004690 -0.028521
  6 -0.000000 1.786738 0.000000 0.012444 0.000142 -0.134042
  7 -0.000001 2.720945 0.000000 1.476803 0.053421 -3.137651
  8 0.000001 4.613521 -0.000002 -0.870825 0.105886 0.983283
  9 -0.000001 12.046064 0.000001 -0.449751 0.407859 1.468257
  10 0.000004 14.285701 0.000005 -0.281684 -0.191257 0.346933
  11 -0.000000 2.720945 -0.016561 -1.811299 -0.227056 -0.375039
  12 -0.000001 4.613521 -0.000000 0.962920 2.836722 0.656184
  13 -0.000001 12.046069 -0.000000 0.543799 -0.041180 0.314292
  14 -0.000006 14.285701 0.000001 -0.104343 -0.402891 0.227398
  15 -6.150905 8.894379 6.617206 0.000000 -0.000000 3.141593
  16 -8.999623 -4.437609 -9.231122 0.000000 -0.000000 2.926284
  17 0.062474 -0.176185 4.412907 -1.570796 -0.000000 1.570796
  18 0.000001 3.041576 -2.524301 -0.031154 0.084951 0.274723
  19 0.000000 12.303571 -0.000001 -0.013639 0.029151 0.369330
  20 -0.000001 11.084806 0.000000 0.247053 1.570778 0.000000
  21 0.000001 2.979604 -0.000001 1.712978 0.005525 0.027905
  22 -0.000000 2.441537 -0.000000 0.080797 0.017108 -0.002139
  23 -0.000002 3.041575 2.540861 0.046665 -0.106888 -0.637980
  24 0.000001 12.303571 -0.000001 0.022866 -0.031980 0.578153
  25 0.000000 11.084805 -0.000001 -0.574666 -1.492132 0.297061
  26 0.000000 2.979606 -0.000000 1.470090 -3.128257 0.039215
  27 -0.000000 2.441538 0.000001 -0.015002 0.406031 0.026376
  28 18.030388 -6.247496 8.439036 0.000000 -0.000000 3.141593
  29 -1.271162 -17.570770 1.831609 0.000000 -0.000000 3.141593
  30 3.100050 -10.224302 -19.300568 -0.224923 -0.000000 3.141593
  31 -3.084082 7.704731 -19.605497 -0.254549 0.074711 -3.116862
  32 4.825252 22.437963 -9.228452 0.000000 0.000000 -0.000000
  33 -5.038689 22.639812 -9.228452 0.000000 0.000000 -0.000000
  time 10
  0 0.062474 -0.176185 4.433720 1.520684 -0.104365 1.583536
  1 0.000000 5.135229 -0.000000 -0.035808 -0.002578 0.061275
  2 -0.000000 4.930600 0.000000 -0.000187 -0.002680 -0.177535
  3 0.000000 2.720945 -0.000000 -0.015930 0.034398 -0.125323
  4 -0.000000 1.764668 -0.000000 0.097502 0.020604 -0.208402
  5 -0.000000 1.155205 -0.000000 0.007227 0.004689 -0.028521
  6 -0.000000 1.786737 0.000000 0.012286 -0.000322 -0.129046
  7 0.000000 2.720945 -0.000000 1.476803 0.053421 -3.137652
  8 0.000000 4.613522 -0.000001 -0.887396 0.120374 1.002102
  9 -0.000001 12.046063 0.000003 -0.447295 0.389555 1.426983
  10 0.000000 14.285705 0.000001 -0.284210 -0.190213 0.348019
  11 0.000000 2.720945 -0.016561 -1.803328 -0.243229 -0.376856
  12 -0.000000 4.613521 0.000001 1.040895 2.768892 0.643257
  13 -0.000000 12.046070 -0.000003 0.408672 -0.002708 0.239733
  14 -0.000001 14.285699 -0.000004 -0.104343 -0.402891 0.227398
  15 -6.386492 9.039680 6.200515 0.000000 -0.000000 3.141593
  16 -9.424603 -3.824077 -9.733503 0.000000 -0.000000 2.926284
  17 0.062474 -0.176185 4.433720 -1.570796 -0.000000 1.570796
  18 0.000001 3.041575 -2.524301 -0.040175 0.076760 0.034781
  19 0.000001 12.303572 -0.000001 -0.026119 0.037081 0.763242
  20 -0.000003 11.084804 0.000000 0.329638 1.570778 0.000000
  21 0.000000 2.979607 0.000000 1.634504 0.002867 0.019035
  22 -0.000000 2.441538 0.000000 0.080797 0.017108 -0.002139
  23 -0.000002 3.041575 2.540861 0.045744 -0.093525 -0.503403
  24 0.000002 12.303569 -0.000000 0.025663 -0.033973 0.660249
  25 0.000001 11.084803 0.000000 -1.532089 -1.518288 1.354693
  26 -0.000000 2.979607 0.000000 1.461556 -3.133915 0.043192
  27 -0.000000 2.441537 -0.000000 0.026916 0.414811 0.024071
  28 18.030388 -6.247496 8.439036 0.000000 -0.000000 3.141593
  29 -1.271162 -17.570770 1.831609 0.000000 -0.000000 3.141593
  30 3.100050 -8.606183 -18.601673 -0.307508 0.000000 3.141593
  31 -3.084082 3.925857 -20.339525 -0.155004 0.010144 -3.090068
  32 4.825252 22.437963 -9.228452 0.000000 0.000000 -0.000000
  33 -5.038689 22.639812 -9.228452 0.000000 0.000000 -0.000000
  time 11
  0 0.062474 -0.176185 4.579413 1.536817 -0.086140 1.578498
  1 0.000000 5.135229 -0.000001 -0.034806 -0.002494 0.062860
  2 0.000000 4.930600 0.000001 -0.000187 -0.002680 -0.177535
  3 -0.000001 2.720945 -0.000000 -0.015930 0.034398 -0.125322
  4 -0.000000 1.764671 0.000000 0.089795 0.019136 -0.180230
  5 0.000000 1.155203 -0.000000 0.007227 0.004689 -0.028521
  6 -0.000000 1.786737 -0.000000 0.012087 -0.000876 -0.125100
  7 -0.000001 2.720945 -0.000000 1.476803 0.053421 -3.137651
  8 -0.000001 4.613523 -0.000001 -0.874305 0.103974 0.985143
  9 -0.000002 12.046063 0.000005 -0.449000 0.401570 1.454064
  10 0.000006 14.285698 0.000004 -0.289761 -0.187908 0.350396
  11 -0.000001 2.720946 -0.016561 -1.827756 -0.193699 -0.371717
  12 0.000000 4.613522 0.000000 1.097121 2.687944 0.537831
  13 -0.000004 12.046066 -0.000004 0.263564 0.026457 0.156299
  14 -0.000009 14.285697 -0.000007 -0.104344 -0.402891 0.227398
  15 -6.016582 9.039680 6.427732 0.000000 -0.000000 3.141593
  16 -9.641194 -2.927372 -9.961860 0.000000 -0.000000 2.926284
  17 0.062474 -0.176185 4.579413 -1.570796 -0.000000 1.570796
  18 0.000001 3.041575 -2.524301 -0.044465 0.070468 -0.131408
  19 0.000000 12.303570 -0.000002 -0.031490 0.043497 0.985177
  20 -0.000001 11.084805 0.000000 0.412365 1.570778 0.000000
  21 -0.000000 2.979608 -0.000000 1.495667 -0.004992 0.005203
  22 -0.000000 2.441538 0.000000 0.080797 0.017108 -0.002139
  23 -0.000002 3.041575 2.540861 0.045043 -0.090846 -0.444397
  24 -0.000001 12.303569 -0.000001 0.025833 -0.034105 0.665388
  25 0.000002 11.084803 -0.000000 -1.351312 -1.514806 1.195294
  26 -0.000000 2.979607 -0.000000 1.453091 -3.139577 0.047099
  27 -0.000000 2.441538 0.000001 0.065898 0.421753 0.023714
  28 18.030388 -6.247496 8.439036 0.000000 -0.000000 3.141593
  29 -1.271162 -17.570770 1.831609 0.000000 -0.000000 3.141593
  30 3.100050 -6.988063 -17.902779 -0.390234 0.000000 3.141593
  31 -3.084082 2.584674 -20.384836 -0.133378 0.019395 -3.089056
  32 4.825252 22.437963 -9.228452 0.000000 0.000000 -0.000000
  33 -5.038689 22.639812 -9.228452 0.000000 0.000000 -0.000000
  time 12
  0 0.062474 -0.176185 4.974868 1.553132 -0.062571 1.573467
  1 0.000001 5.135229 0.000000 -0.027783 -0.001953 0.073953
  2 -0.000000 4.930601 0.000001 -0.000187 -0.002679 -0.177535
  3 0.000000 2.720946 -0.000000 -0.015930 0.034398 -0.125323
  4 0.000000 1.764669 -0.000000 0.058015 0.014039 -0.172695
  5 -0.000001 1.155205 -0.000000 0.007227 0.004689 -0.028521
  6 -0.000000 1.786737 0.000000 0.011842 -0.001527 -0.122510
  7 0.000000 2.720946 -0.000000 1.476803 0.053421 -3.137652
  8 0.000000 4.613522 -0.000000 -0.854611 0.067954 0.950340
  9 -0.000002 12.046068 -0.000001 -0.450849 0.418997 1.493412
  10 0.000004 14.285699 0.000001 -0.295304 -0.185589 0.352760
  11 -0.000000 2.720947 -0.016561 -1.872200 -0.101550 -0.365486
  12 0.000001 4.613522 -0.000002 1.171357 2.611137 0.371313
  13 -0.000000 12.046069 -0.000003 0.037197 0.046790 0.022222
  14 0.000001 14.285698 -0.000004 -0.104343 -0.402891 0.227398
  15 -5.329606 9.039680 6.849708 0.000000 -0.000000 3.141593
  16 -9.508615 -2.476394 -9.786828 0.000000 -0.000000 2.926284
  17 0.062474 -0.176185 4.974868 -1.570796 -0.000000 1.570796
  18 0.000001 3.041575 -2.524301 -0.046302 0.065636 -0.264572
  19 -0.000002 12.303574 0.000000 -0.033954 0.047796 1.116459
  20 -0.000002 11.084805 0.000001 0.494950 1.570778 0.000000
  21 -0.000000 2.979606 0.000000 1.526896 -0.004354 0.008503
  22 -0.000000 2.441537 0.000000 0.080797 0.017108 -0.002139
  23 -0.000002 3.041575 2.540861 0.042011 -0.090672 -0.341072
  24 -0.000000 12.303568 -0.000000 0.022865 -0.031980 0.578135
  25 -0.000001 11.084803 -0.000000 -1.194071 -1.509919 1.059435
  26 -0.000000 2.979605 -0.000000 1.444694 3.137945 0.050938
  27 -0.000000 2.441538 -0.000001 0.094646 0.426282 0.024279
  28 18.030388 -6.247496 8.439036 0.000000 -0.000000 3.141593
  29 -1.271162 -17.570770 1.831609 0.000000 -0.000000 3.141593
  30 3.100050 -5.369944 -17.203884 -0.472819 -0.000000 3.141593
  31 -3.084082 1.243491 -20.430145 -0.111734 0.028623 -3.087842
  32 4.825252 22.437963 -9.228452 0.000000 0.000000 -0.000000
  33 -5.038689 22.639812 -9.228452 0.000000 0.000000 -0.000000
  time 13
  0 0.062474 -0.176185 5.792932 1.570796 -0.046404 1.570796
  1 0.000000 5.135229 -0.000000 -0.008694 -0.000875 0.104083
  2 -0.000000 4.930601 -0.000000 -0.000187 -0.002679 -0.177535
  3 0.000000 2.720945 -0.000000 -0.015930 0.034398 -0.125323
  4 -0.000000 1.764671 -0.000000 -0.000086 -0.000219 -0.155079
  5 -0.000000 1.155205 -0.000000 0.007227 0.004690 -0.028521
  6 0.000000 1.786736 0.000000 0.011550 -0.002282 -0.121582
  7 0.000000 2.720945 -0.000000 1.476803 0.053421 -3.137652
  8 -0.000000 4.613522 -0.000000 -0.869094 0.027085 0.937634
  9 -0.000000 12.046063 0.000003 -0.449812 0.408394 1.469459
  10 0.000003 14.285695 0.000001 -0.297821 -0.184531 0.353829
  11 0.000000 2.720945 -0.016561 -1.895741 -0.051919 -0.363851
  12 -0.000001 4.613520 -0.000000 1.056564 2.661722 0.272590
  13 0.000001 12.046068 -0.000002 0.297010 0.020853 0.175771
  14 -0.000000 14.285707 0.000002 -0.104343 -0.402891 0.227398
  15 -4.959695 9.039680 7.076924 0.000000 -0.000000 3.141593
  16 -8.580562 -0.452228 -8.561613 0.000000 -0.000000 2.926284
  17 0.062474 -0.176185 5.792932 -1.570796 -0.000000 1.570796
  18 0.000001 3.041575 -2.524301 -0.041295 0.073135 -0.424552
  19 0.000000 12.303571 -0.000001 -0.028321 0.039371 0.847347
  20 -0.000003 11.084805 0.000001 0.537583 1.570778 0.000000
  21 0.000000 2.979607 -0.000000 1.343404 -0.013825 -0.009685
  22 -0.000000 2.441538 0.000001 0.080797 0.017108 -0.002139
  23 -0.000002 3.041575 2.540861 0.032190 -0.095038 -0.115043
  24 -0.000001 12.303572 -0.000000 0.009499 -0.026275 0.229019
  25 -0.000001 11.084805 -0.000001 -1.060789 -1.503939 0.947538
  26 -0.000000 2.979607 0.000000 1.436365 3.132282 0.054708
  27 0.000000 2.441538 0.000000 0.105853 0.427896 0.024694
  28 18.030388 -6.247496 8.439036 0.000000 -0.000000 3.141593
  29 -1.271162 -17.570770 1.831609 0.000000 -0.000000 3.141593
  30 3.100050 0.267372 -18.556755 -0.515453 0.000000 3.141593
  31 -3.084082 -0.097692 -20.475456 -0.090076 0.037821 -3.086430
  32 4.825252 22.437963 -9.228452 0.000000 0.000000 -0.000000
  33 -5.038689 22.639812 -9.228452 0.000000 0.000000 -0.000000
end
