version 1
nodes
0 "Spine.001" -1
1 "Spine.002" 0
2 "Spine.003" 1
3 "Spine.004" 2
4 "Spine.005" 3
5 "Spine.006" 4
6 "Spine.007" 5
7 "Arm.R.001" 2
8 "Arm.R.002" 7
9 "Arm.R.003" 8
10 "Arm.R.004" 9
11 "Arm.L.001" 2
12 "Arm.L.002" 11
13 "Arm.L.003" 12
14 "Arm.L.004" 13
15 "ForearmIK.R" -1
16 "ForearmIK.L" -1
17 "Spine.008" -1
18 "Leg.R.001" 17
19 "Leg.R.002" 18
20 "Leg.R.003" 19
21 "Leg.R.004" 20
22 "Leg.R.005" 21
23 "Leg.L.001" 17
24 "Leg.L.002" 23
25 "Leg.L.003" 24
26 "Leg.L.004" 25
27 "Leg.L.005" 26
28 "UpperarmIK.R" -1
29 "UpperarmIK.L" -1
30 "ShinIK.R" -1
31 "ShinIK.L" -1
32 "KneeIK.R" -1
33 "KneeIK.L" -1
end
skeleton
  time 0
  0 0.062474 -0.176185 2.953079 1.570796 0.111229 1.570796
  1 -0.000000 5.135229 0.000000 0.028999 0.049583 0.219246
  2 -0.000000 4.930598 -0.000000 -0.000400 -0.000980 -0.130135
  3 -0.000000 2.720946 0.000000 0.058055 -0.093140 -0.123639
  4 -0.000000 1.764671 -0.000000 -0.124599 0.089320 -0.164306
  5 -0.000000 1.155204 -0.000000 0.000752 0.001577 0.384581
  6 0.000000 1.786735 -0.000000 0.000057 0.000515 0.133626
  7 -0.000000 2.720946 0.000000 -1.521550 -2.999260 -0.002785
  8 -0.000000 4.613522 -0.000001 -0.845426 -0.066140 -0.611643
  9 0.000003 12.046064 0.000000 -0.447370 0.390055 1.428116
  10 -0.000008 14.285693 -0.000004 -0.132219 -0.195466 0.321597
  11 -0.000000 2.720946 -0.016560 -1.583894 -0.175559 -0.324383
  12 0.000000 4.613522 0.000000 -2.119284 0.563894 -1.854288
  13 -0.000000 12.046069 -0.000001 1.123619 -0.319568 0.568956
  14 -0.000002 14.285707 0.000002 0.197301 -0.254201 0.220062
  15 13.192950 10.417011 2.566645 0.000000 -0.000000 3.141593
  16 -17.905281 4.179766 0.493963 0.000000 -0.000000 2.926284
  17 0.062474 -0.176185 2.751147 -1.570796 -0.000000 1.570796
  18 0.000001 3.041576 -2.524301 -0.047467 0.068753 -0.386842
  19 -0.000001 12.303575 0.000000 -0.033648 0.047183 1.098323
  20 -0.000001 11.084807 0.000000 0.141255 1.570778 0.000000
  21 0.000000 2.979607 -0.000000 1.907160 -0.007119 0.051140
  22 0.000000 2.441538 0.000000 0.073930 0.007085 -0.003677
  23 -0.000002 3.041576 2.540861 0.055573 -0.088509 -0.727594
  24 -0.000000 12.303569 -0.000000 0.034289 -0.043032 0.960336
  25 -0.000001 11.084804 -0.000001 -0.265760 -1.528273 0.176134
  26 -0.000000 2.979607 0.000000 -1.566637 0.000465 -3.076172
  27 -0.000000 2.441538 -0.000001 0.062923 0.424307 0.009349
  28 7.352109 -17.910280 0.375319 0.000000 -0.000000 3.141593
  29 12.843514 -15.847958 -0.272514 0.000000 -0.000000 3.141593
  30 3.100051 -2.849912 -20.051485 -0.119124 -0.000000 3.141593
  31 -3.084082 5.335479 -20.276073 -0.067322 0.041717 -3.133213
  32 4.825252 22.437963 -9.228452 0.000000 0.000000 -0.000000
  33 -5.038689 22.639812 -9.228452 0.000000 0.000000 -0.000000
  time 1
  0 0.062474 -0.176185 4.035563 1.570824 0.051292 1.570587
  1 0.000000 5.135229 -0.000000 -0.051825 0.155546 -0.009093
  2 -0.000000 4.930602 0.000000 -0.018958 -0.008600 -0.007595
  3 -0.000000 2.720944 0.000000 0.058564 -0.093902 -0.123685
  4 -0.000001 1.764671 0.000000 -0.114062 0.097821 -0.164022
  5 0.000000 1.155204 -0.000000 -0.036066 -0.009840 0.578358
  6 -0.000000 1.786737 -0.000000 0.000057 0.000515 0.133627
  7 -0.000000 2.720944 0.000000 -1.531422 3.114067 -0.017666
  8 0.000001 4.613522 0.000000 -0.732801 -0.276481 -0.856344
  9 0.000004 12.046065 0.000002 -0.451821 0.433458 1.526170
  10 -0.000003 14.285700 -0.000005 -0.130991 -0.195668 0.321353
  11 -0.000000 2.720946 -0.016561 -1.631087 -0.050610 -0.310288
  12 0.000000 4.613522 0.000000 0.858909 2.557616 1.160789
  13 -0.000002 12.046074 0.000002 1.132075 -0.324712 0.571528
  14 -0.000003 14.285711 -0.000002 0.197613 -0.254044 0.220080
  15 14.771724 4.730206 4.070897 0.000000 -0.000000 3.141593
  16 -18.066433 -0.643183 0.493963 0.000000 -0.000000 2.926284
  17 0.062474 -0.176185 3.869170 -1.583537 -0.000000 1.570796
  18 0.000001 3.041575 -2.524301 -0.021216 0.078800 0.087421
  19 -0.000000 12.303570 -0.000002 -0.020615 0.032721 0.577123
  20 0.000001 11.084805 -0.000002 0.142658 1.570778 0.000000
  21 -0.000000 2.979608 -0.000000 1.904653 -0.007031 0.050856
  22 -0.000000 2.441537 -0.000002 0.075226 0.007176 -0.003676
  23 -0.000001 3.041575 2.540862 0.062574 -0.084072 -0.602341
  24 0.000000 12.303573 -0.000001 0.029913 -0.037761 0.796420
  25 0.000002 11.084807 -0.000001 -0.265758 -1.528273 0.173913
  26 -0.000000 2.979607 -0.000001 -1.569211 0.000643 -3.076361
  27 -0.000000 2.441538 -0.000000 0.062923 0.424307 0.009348
  28 7.352109 -17.910280 0.375319 0.000000 -0.000000 3.141593
  29 12.843514 -15.847958 -0.272514 0.000000 -0.000000 3.141593
  30 3.100050 -8.124989 -20.098715 -0.120527 -0.000000 3.141593
  31 -3.084082 4.524916 -20.231407 -0.069542 0.041736 -3.133305
  32 4.825252 22.437963 -9.228452 0.000000 0.000000 -0.000000
  33 -5.038689 22.639812 -9.228452 0.000000 0.000000 -0.000000
  time 2
  0 0.062474 -0.176185 4.699930 1.571023 0.042730 1.569124
  1 0.000001 5.135228 -0.000000 -0.051825 0.155546 -0.009093
  2 0.000000 4.930600 0.000000 -0.038310 -0.013893 0.115076
  3 -0.000000 2.720945 -0.000000 0.059989 -0.096037 -0.123817
  4 -0.000000 1.764671 0.000000 -0.105018 0.105108 -0.163708
  5 0.000000 1.155205 0.000000 -0.036066 -0.009840 0.578358
  6 -0.000000 1.786736 -0.000000 0.000057 0.000515 0.133626
  7 -0.000000 2.720945 -0.000000 -1.550764 2.944383 -0.025772
  8 -0.000001 4.613522 0.000001 -0.450270 -0.420541 -1.063190
  9 0.000001 12.046063 -0.000000 -0.451897 0.470855 1.611773
  10 -0.000008 14.285699 -0.000000 -0.127550 -0.196231 0.320669
  11 -0.000000 2.720945 -0.016561 -1.676586 0.074853 -0.302083
  12 0.000000 4.613522 -0.000000 0.724802 2.547357 1.137609
  13 -0.000000 12.046073 -0.000002 0.441978 -0.011181 0.258438
  14 -0.000002 14.285708 -0.000001 0.198485 -0.253604 0.220127
  15 14.997264 -0.956598 5.575149 0.000000 -0.000000 3.141593
  16 -18.549885 -15.112028 0.493963 0.000000 -0.000000 2.926284
  17 0.062474 -0.176185 4.628528 -1.607201 0.000000 1.570796
  18 0.000001 3.041575 -2.524300 0.016452 0.069741 0.396857
  19 -0.000000 12.303575 -0.000000 -0.000188 0.026604 0.004978
  20 -0.000000 11.084809 -0.000001 0.150330 1.570778 0.000000
  21 -0.000000 2.979605 0.000000 1.887075 -0.006429 0.048859
  22 -0.000000 2.441539 -0.000000 0.094663 0.008529 -0.003646
  23 -0.000001 3.041575 2.540862 0.085187 -0.071657 -0.476878
  24 -0.000002 12.303576 -0.000001 0.028527 -0.036409 0.750136
  25 -0.000000 11.084809 -0.000001 -0.265756 -1.528273 0.167848
  26 0.000000 2.979605 0.000000 -1.576331 0.001131 -3.076886
  27 0.000000 2.441538 0.000001 0.062923 0.424307 0.009348
  28 7.352109 -17.910280 0.375319 0.000000 -0.000000 3.141593
  29 12.843514 -15.847958 -0.272514 0.000000 -0.000000 3.141593
  30 3.100050 -9.355157 -20.145945 -0.128200 0.000000 3.141593
  31 -3.084082 2.310416 -20.109375 -0.075612 0.041785 -3.133559
  32 4.825252 22.437963 -9.228452 0.000000 0.000000 -0.000000
  33 -5.038689 22.639812 -9.228452 0.000000 0.000000 -0.000000
end
