version 1
nodes
0 "Spine.001" -1
1 "Spine.002" 0
2 "Spine.003" 1
3 "Spine.004" 2
4 "Spine.005" 3
5 "Spine.006" 4
6 "Spine.007" 5
7 "Arm.R.001" 2
8 "Arm.R.002" 7
9 "Arm.R.003" 8
10 "Arm.R.004" 9
11 "Arm.L.001" 2
12 "Arm.L.002" 11
13 "Arm.L.003" 12
14 "Arm.L.004" 13
15 "ForearmIK.R" -1
16 "ForearmIK.L" -1
17 "Spine.008" -1
18 "Leg.R.001" 17
19 "Leg.R.002" 18
20 "Leg.R.003" 19
21 "Leg.R.004" 20
22 "Leg.R.005" 21
23 "Leg.L.001" 17
24 "Leg.L.002" 23
25 "Leg.L.003" 24
26 "Leg.L.004" 25
27 "Leg.L.005" 26
28 "UpperarmIK.R" -1
29 "UpperarmIK.L" -1
30 "ShinIK.R" -1
31 "ShinIK.L" -1
32 "KneeIK.R" -1
33 "KneeIK.L" -1
end
skeleton
  time 0
  0 0.062474 -0.176185 5.222050 1.570796 -0.234625 1.800698
  1 0.000001 5.135230 -0.000000 0.039100 0.190495 0.171866
  2 -0.000000 4.930601 0.000000 0.157471 0.161537 -0.099927
  3 0.000000 2.720946 -0.000000 0.026227 0.019682 -0.300313
  4 -0.000000 1.764669 -0.000000 -0.036271 -0.196870 -0.061678
  5 0.000000 1.155204 -0.000000 0.019703 -0.458113 0.074954
  6 0.000000 1.786737 0.000000 -0.003226 -0.018526 -0.246521
  7 0.000000 2.720946 -0.000000 -1.608837 2.706870 0.111992
  8 -0.000001 4.613521 0.000000 -1.107805 -0.237453 1.001659
  9 -0.000000 12.046063 0.000003 -0.407752 0.263411 1.136929
  10 0.000001 14.285693 0.000004 -0.072925 -0.261189 0.084867
  11 0.000000 2.720946 -0.016561 -1.880218 -0.319135 -0.341840
  12 0.000002 4.613521 -0.000000 0.856925 2.166224 -0.674848
  13 -0.000001 12.046071 0.000002 1.680028 -0.667306 0.635949
  14 -0.000004 14.285704 -0.000001 0.041916 -0.243007 -0.016860
  15 -6.256070 7.416467 2.032535 0.000000 -0.000000 3.141593
  16 6.380988 5.337740 17.417976 0.000000 -0.000000 2.926284
  17 0.062474 -0.176185 5.222051 -1.570796 -0.000000 1.570796
  18 0.000001 3.041576 -2.524301 -0.165395 0.325591 -0.350092
  19 0.000000 12.303573 -0.000001 -0.019534 0.032044 0.543342
  20 -0.000002 11.084805 0.000000 0.274003 1.570778 0.000000
  21 0.000000 2.979605 -0.000001 1.342936 -0.024989 -0.032349
  22 0.000000 2.441538 -0.000001 0.080797 0.017108 -0.002139
  23 -0.000002 3.041576 2.540861 0.108572 -0.347051 0.096984
  24 0.000001 12.303570 -0.000001 0.008034 -0.025961 0.193221
  25 0.000000 11.084805 -0.000001 -0.348052 -1.307553 0.053265
  26 -0.000000 2.979605 0.000000 1.436365 3.132282 0.054708
  27 -0.000000 2.441537 -0.000000 0.105853 0.427896 0.024694
  28 15.255857 -5.679421 14.646289 0.000000 -0.000000 3.141593
  29 -12.206786 -18.526073 2.247040 0.000000 -0.000000 3.141593
  30 4.352865 0.935486 -20.252497 -0.251873 0.000000 3.141593
  31 -4.199039 -5.281296 -20.466749 -0.269977 0.262505 -3.121297
  32 11.859106 22.437963 -9.228452 0.000000 0.000000 -0.000000
  33 -8.945847 13.337276 -9.228452 0.000000 0.000000 -0.000000
  time 1
  0 0.062474 -0.176185 4.035631 1.574729 -0.109045 1.666630
  1 0.000000 5.135230 -0.000000 0.022530 0.195496 0.116934
  2 0.000000 4.930600 -0.000000 0.157471 0.161536 -0.099927
  3 -0.000000 2.720946 -0.000000 0.026227 0.019682 -0.300313
  4 0.000000 1.764668 0.000000 -0.036271 -0.196870 -0.061678
  5 -0.000000 1.155205 0.000000 0.019703 -0.458113 0.074954
  6 -0.000000 1.786736 0.000000 -0.003226 -0.018526 -0.246521
  7 -0.000000 2.720946 -0.000000 -1.608837 2.706870 0.111992
  8 -0.000002 4.613522 -0.000003 -1.058158 -0.214892 1.077387
  9 0.000001 12.046066 0.000001 -0.409958 0.268075 1.148089
  10 0.000000 14.285707 0.000000 -0.072925 -0.261189 0.084867
  11 -0.000000 2.720945 -0.016561 -1.880218 -0.319135 -0.341840
  12 -0.000001 4.613523 0.000000 -0.213866 2.434897 -0.435150
  13 0.000005 12.046071 0.000004 2.090049 -0.868261 0.545383
  14 -0.000004 14.285700 0.000002 0.041917 -0.243008 -0.016860
  15 -5.428274 7.597677 -0.091893 0.000000 -0.000000 3.141593
  16 -3.175685 4.973068 10.857690 0.000000 -0.000000 2.926284
  17 0.062474 -0.176185 4.035631 -1.570796 -0.000000 1.570796
  18 0.000001 3.041576 -2.524301 -0.209172 0.307761 -0.551548
  19 0.000004 12.303571 0.000001 -0.027567 0.038542 0.817682
  20 -0.000004 11.084804 -0.000000 0.274003 1.570778 0.000000
  21 0.000000 2.979606 -0.000000 1.343623 -0.031719 -0.049484
  22 0.000000 2.441538 0.000000 0.080797 0.017108 -0.002139
  23 -0.000002 3.041576 2.540861 0.183473 -0.320285 -0.131157
  24 -0.000000 12.303570 -0.000002 0.026099 -0.034316 0.673510
  25 -0.000001 11.084803 -0.000000 -0.348051 -1.307553 0.053265
  26 -0.000000 2.979605 -0.000001 1.436365 3.132282 0.054708
  27 -0.000000 2.441539 -0.000002 0.216005 0.407020 0.049448
  28 15.255857 -5.679421 14.646289 0.000000 -0.000000 3.141593
  29 -12.206786 -18.526073 2.247040 0.000000 -0.000000 3.141593
  30 4.352865 2.267218 -20.252497 -0.251873 0.000000 3.141593
  31 -4.199039 -5.281296 -20.411303 -0.269977 0.262505 -3.121297
  32 11.859106 22.437963 -9.228452 0.000000 0.000000 -0.000000
  33 -8.945847 13.337276 -9.228452 0.000000 0.000000 -0.000000
  time 2
  0 0.062474 -0.176185 2.849211 1.561490 0.018088 1.531516
  1 0.000000 5.135229 -0.000000 -0.014967 0.197584 -0.005305
  2 0.000000 4.930601 0.000000 0.157471 0.161536 -0.099927
  3 -0.000000 2.720946 -0.000000 0.026227 0.019682 -0.300313
  4 -0.000000 1.764670 -0.000000 -0.036271 -0.196870 -0.061678
  5 -0.000000 1.155205 -0.000000 0.019703 -0.458114 0.074954
  6 -0.000000 1.786737 0.000000 -0.003226 -0.018526 -0.246521
  7 -0.000000 2.720946 -0.000000 -1.608837 2.706870 0.111992
  8 -0.000001 4.613522 0.000000 -0.901179 -0.211810 1.064119
  9 -0.000000 12.046069 0.000003 -0.433460 0.329358 1.290756
  10 0.000002 14.285699 0.000000 -0.072926 -0.261189 0.084867
  11 -0.000000 2.720947 -0.016561 -1.880218 -0.319135 -0.341840
  12 0.000001 4.613522 -0.000001 -0.001473 2.660053 0.017120
  13 0.000000 12.046072 -0.000001 1.303625 -0.432420 0.614202
  14 -0.000002 14.285710 -0.000003 0.041916 -0.243008 -0.016860
  15 -3.607114 7.996340 -1.182817 0.000000 -0.000000 3.141593
  16 -13.456351 4.608397 -0.916984 0.000000 -0.000000 2.926284
  17 0.062474 -0.176185 2.849211 -1.570796 -0.000000 1.570796
  18 0.000001 3.041575 -2.524301 -0.239287 0.304724 -0.746146
  19 -0.000000 12.303572 -0.000000 -0.031194 0.043056 0.971118
  20 -0.000001 11.084804 -0.000000 0.274003 1.570778 0.000000
  21 0.000001 2.979607 -0.000000 1.345008 -0.035768 -0.062891
  22 -0.000000 2.441537 0.000000 0.080797 0.017108 -0.002139
  23 -0.000002 3.041575 2.540861 0.228039 -0.298858 -0.255630
  24 -0.000000 12.303570 -0.000000 0.034186 -0.042886 0.956062
  25 0.000001 11.084804 -0.000002 -0.348051 -1.307553 0.053264
  26 -0.000000 2.979604 -0.000000 1.436365 3.132282 0.054708
  27 -0.000000 2.441538 -0.000001 0.456548 0.352315 0.094245
  28 15.255857 -5.679421 14.646289 0.000000 -0.000000 3.141593
  29 -12.206786 -18.526073 2.247040 0.000000 -0.000000 3.141593
  30 4.352866 4.542702 -20.252497 -0.251873 0.000000 3.141593
  31 -4.199039 -5.281296 -20.244961 -0.269977 0.262505 -3.121297
  32 11.859106 22.437963 -9.228452 0.000000 0.000000 -0.000000
  33 -8.945847 13.337276 -9.228452 0.000000 0.000000 -0.000000
  time 3
  0 0.062474 -0.176185 1.662791 1.530983 0.142242 1.393352
  1 -0.000000 5.135228 0.000000 -0.052273 0.194080 -0.127274
  2 0.000000 4.930600 0.000000 0.157471 0.161537 -0.099927
  3 -0.000000 2.720947 -0.000000 0.026227 0.019682 -0.300313
  4 0.000000 1.764670 0.000000 -0.036271 -0.196870 -0.061678
  5 -0.000000 1.155205 -0.000000 0.019703 -0.458113 0.074954
  6 0.000000 1.786737 -0.000000 -0.003226 -0.018527 -0.246521
  7 -0.000000 2.720947 -0.000000 -1.608837 2.706870 0.111992
  8 -0.000000 4.613521 -0.000000 -0.720398 -0.189895 1.017565
  9 0.000001 12.046068 0.000001 -0.450350 0.413525 1.481040
  10 -0.000003 14.285709 -0.000003 -0.072925 -0.261190 0.084867
  11 0.000000 2.720947 -0.016561 -1.880218 -0.319135 -0.341840
  12 -0.000001 4.613523 -0.000000 0.335601 2.540819 -0.053030
  13 0.000004 12.046074 0.000003 0.813866 -0.149834 0.449322
  14 0.000001 14.285700 -0.000002 0.041916 -0.243007 -0.016861
  15 -1.785951 8.395002 -1.584736 0.000000 -0.000000 3.141593
  16 -14.301009 4.973069 -8.261760 0.000000 -0.000000 2.926284
  17 0.062474 -0.176185 1.662791 -1.570796 -0.000000 1.570796
  18 0.000001 3.041575 -2.524301 -0.263232 0.309631 -0.912910
  19 -0.000001 12.303571 -0.000001 -0.033011 0.045992 1.062572
  20 -0.000003 11.084805 -0.000001 0.274003 1.570778 0.000000
  21 -0.000000 2.979607 -0.000001 1.346732 -0.038958 -0.074442
  22 0.000000 2.441539 -0.000000 0.080797 0.017108 -0.002139
  23 -0.000002 3.041575 2.540861 0.265894 -0.277272 -0.351681
  24 -0.000000 12.303570 -0.000001 0.038878 -0.051529 1.191694
  25 0.000001 11.084803 -0.000001 -0.348051 -1.307553 0.053264
  26 -0.000000 2.979607 0.000000 1.436365 3.132282 0.054708
  27 0.000000 2.441538 0.000001 0.689663 0.289379 0.123342
  28 15.255857 -5.679421 14.646289 0.000000 -0.000000 3.141593
  29 -12.206786 -18.526073 2.247040 0.000000 -0.000000 3.141593
  30 4.352866 6.692352 -20.252497 -0.251873 0.000000 3.141593
  31 -4.199039 -5.281296 -19.967726 -0.269977 0.262505 -3.121297
  32 11.859106 22.437963 -9.228452 0.000000 0.000000 -0.000000
  33 -8.945847 13.337276 -9.228452 0.000000 0.000000 -0.000000
  time 4
  0 0.062474 -0.176185 0.476372 1.483347 0.258899 1.250449
  1 -0.000000 5.135229 0.000001 -0.068883 0.190845 -0.182238
  2 -0.000001 4.930601 -0.000000 0.157471 0.161537 -0.099927
  3 0.000001 2.720945 0.000000 0.026227 0.019682 -0.300313
  4 -0.000000 1.764670 -0.000000 -0.036271 -0.196870 -0.061678
  5 0.000000 1.155205 -0.000000 0.019703 -0.458113 0.074954
  6 -0.000000 1.786736 0.000000 -0.003226 -0.018527 -0.246521
  7 0.000001 2.720945 0.000000 -1.608837 2.706870 0.111992
  8 -0.000001 4.613522 -0.000000 -0.612941 -0.153809 1.016852
  9 -0.000003 12.046062 0.000003 -0.450720 0.487966 1.651562
  10 -0.000001 14.285705 0.000002 -0.072925 -0.261190 0.084867
  11 0.000001 2.720945 -0.016561 -1.880218 -0.319135 -0.341840
  12 0.000001 4.613521 0.000000 0.429916 2.408972 0.075037
  13 0.000001 12.046069 0.000001 0.776911 -0.132573 0.432232
  14 0.000007 14.285699 0.000005 0.041916 -0.243008 -0.016860
  15 -0.958154 8.576213 -1.642153 0.000000 -0.000000 3.141593
  16 -14.421675 5.337741 -10.392146 0.000000 -0.000000 2.926284
  17 0.062474 -0.176185 0.476371 -1.570796 -0.000000 1.570796
  18 0.000001 3.041576 -2.524301 -0.285797 0.299795 -1.039259
  19 -0.000001 12.303570 -0.000001 -0.034965 0.050047 1.181806
  20 0.000000 11.084805 0.000001 0.274003 1.570778 0.000000
  21 0.000001 2.979606 -0.000001 1.348503 -0.043137 -0.086057
  22 0.000000 2.441538 0.000001 0.080797 0.017108 -0.002139
  23 -0.000002 3.041576 2.540861 0.301354 -0.254635 -0.430419
  24 0.000001 12.303569 -0.000000 0.041277 -0.060100 1.404980
  25 0.000001 11.084804 0.000000 -0.348051 -1.307553 0.053264
  26 -0.000001 2.979606 -0.000000 1.436365 3.132282 0.054708
  27 -0.000000 2.441538 -0.000000 0.791887 0.259519 0.131127
  28 15.255857 -5.679421 14.646289 0.000000 -0.000000 3.141593
  29 -12.206786 -18.526073 2.247040 0.000000 -0.000000 3.141593
  30 4.352866 7.646585 -20.252497 -0.251873 0.000000 3.141593
  31 -4.199039 -5.281296 -19.579597 -0.269977 0.262505 -3.121297
  32 11.859106 22.437963 -9.228452 0.000000 0.000000 -0.000000
  33 -8.945847 13.337276 -9.228452 0.000000 0.000000 -0.000000
end
