version 1
nodes
0 "AllBody.000" -1
1 "Torso.012" 0
2 "Torso.000" 1
3 "Torso.001" 2
4 "Torso.002" 3
5 "Torso.003" 4
6 "Torso.010" 5
7 "Torso.011" 6
8 "HeadTail.000" 7
9 "HeadTail.001" 8
10 "HeadTail.002" 9
11 "HeadTail.003" 10
12 "HeadTail.004" 11
13 "HeadTail.005" 12
14 "HeadTail.006" 13
15 "HeadTail.007" 14
16 "HeadTail.008" 15
17 "Arm.L.000" 5
18 "Arm.L.001" 17
19 "Arm.L.002" 18
20 "Hand.L.000" 19
21 "Hand.L.001" 20
22 "Hand.L.002" 21
23 "Hand.L.003" 20
24 "Hand.L.004" 23
25 "Hand.L.005" 20
26 "Hand.L.006" 25
27 "Arm.R.000" 5
28 "Arm.R.001" 27
29 "Arm.R.002" 28
30 "Hand.R.000" 29
31 "Hand.R.001" 30
32 "Hand.R.002" 31
33 "Hand.R.003" 30
34 "Hand.R.004" 33
35 "Hand.R.005" 30
36 "Hand.R.006" 35
37 "Torso.004" 1
38 "Torso.005" 37
39 "Torso.006" 38
40 "Torso.007" 39
41 "Torso.008" 40
42 "Torso.009" 41
43 "TailSpline.003" 1
44 "HandIK.L.000" 0
45 "HandIK.R.000" 0
46 "ElbowIK.L.000" 0
47 "ElbowIK.R.000" 0
48 "TailSpline.000" 0
49 "TailSpline.002" 0
50 "TailSpline.001" 0
end
skeleton
  time 0
  0 -0.138733 0.408998 52.017868 1.576254 0.000000 -0.000001
  1 -18.429264 -48.081654 0.665837 -0.000114 1.576254 1.570682
  2 0.000001 -21.134916 0.000000 1.933438 0.000000 0.000000
  3 -0.000000 6.799596 0.000001 -0.367118 -0.000000 -0.000000
  4 -0.000001 6.325095 -0.000000 -0.068609 3.141593 -0.000000
  5 0.000000 4.305281 -0.000001 -0.002670 -3.141592 -0.000000
  6 0.000000 2.333663 0.000000 0.323714 0.000000 0.000000
  7 -0.000000 3.386917 -0.000000 -0.146263 -0.000000 -0.000000
  8 -0.000000 5.951354 3.445946 1.355510 -0.000000 3.141590
  9 -0.000000 6.018992 -0.000001 -0.469718 0.000003 -0.000000
  10 -0.000000 5.184168 -0.000001 -0.458334 -0.000000 -0.000000
  11 -0.000000 7.215685 -0.000001 -0.187456 -0.000000 0.000000
  12 -0.000001 5.262501 0.000001 -0.076631 -0.000001 0.000000
  13 -0.000000 4.119096 -0.000001 -0.345268 0.000001 -0.000000
  14 -0.000000 2.884166 -0.000001 0.297005 -3.141591 0.000001
  15 -0.000001 2.392370 -0.000000 0.463018 -0.000002 0.000000
  16 -0.000000 2.854576 -0.000001 -0.231490 -0.000000 -0.000000
  17 0.000000 2.333663 0.000000 -0.492460 1.810435 1.188845
  18 0.000000 6.907821 0.000001 -1.388699 -0.718371 0.171253
  19 0.000000 16.025208 -0.000005 -0.135729 -0.129377 -1.187726
  20 -0.000000 8.302364 0.000001 -0.110467 -0.018213 0.273129
  21 -0.999587 3.677692 0.004099 0.197234 0.002279 0.124597
  22 -0.000000 2.205518 0.000000 -0.257587 0.023264 0.045062
  23 -0.030756 3.687302 0.123969 0.142570 -0.004977 -0.031970
  24 0.000002 2.174215 0.000000 -0.298930 0.023518 0.060027
  25 0.880921 3.855732 0.123969 0.120987 0.037674 -0.322678
  26 -0.000001 2.236421 -0.000000 -0.293554 -0.027381 0.184103
  27 0.000000 2.333663 0.000000 -0.492462 -1.810435 -1.188843
  28 0.000000 6.907819 0.000001 -1.415704 0.820704 -0.154895
  29 -0.000001 16.025209 0.000003 -0.122556 0.104254 0.993563
  30 0.000001 8.302370 -0.000001 -0.110468 0.018213 -0.273129
  31 0.999586 3.677693 0.004100 0.194217 0.000210 -0.115391
  32 0.000002 2.205519 0.000001 -0.257587 -0.023264 -0.045063
  33 0.030755 3.687303 0.123972 0.139978 0.007906 0.041157
  34 -0.000001 2.174216 -0.000002 -0.298930 -0.023518 -0.060027
  35 -0.880922 3.855734 0.123971 0.119342 -0.034125 0.331941
  36 0.000000 2.236421 0.000000 -0.293554 0.027381 -0.184103
  37 0.000001 -21.134916 0.000000 -0.779133 -0.000000 -0.000000
  38 -0.000002 9.953532 0.000000 -0.781207 0.010408 0.025277
  39 0.000000 10.932057 0.000000 -0.368796 0.002793 0.014972
  40 0.000000 8.799004 0.000001 -1.086120 0.070409 0.116566
  41 0.000001 10.021086 0.000002 -0.156773 0.001474 0.018770
  42 0.000000 10.184028 -0.000002 0.315038 0.008552 -0.040766
  43 0.000007 -63.972919 -0.895576 0.076522 0.000000 0.000000
  44 -9.056428 -41.766964 13.264789 0.000096 -1.576254 -1.570892
  45 -10.644014 -41.768841 -11.940358 0.000096 -1.576254 -1.570892
  46 -27.256569 -10.206290 18.163826 -0.000114 1.576254 1.570682
  47 -27.256594 -10.399630 -17.262791 -0.000114 1.576254 1.570682
  48 72.693199 -74.417854 4.864148 -0.130448 1.576254 1.570661
  49 33.759148 -71.510750 0.793665 0.321305 1.576254 1.570669
  50 41.020031 -74.306908 1.331394 -0.003262 1.576254 1.570666
  time 1
  0 -0.138733 0.408998 52.017868 1.576254 0.000000 -0.000001
  1 -14.563884 -52.734142 0.691225 -0.000114 1.576254 1.570682
  2 0.000001 -21.134916 0.000000 2.062012 0.000000 -0.000000
  3 0.000000 6.799596 -0.000000 -0.178608 0.099194 0.253831
  4 0.000000 6.325096 0.000001 -0.142624 3.131522 0.000280
  5 -0.000000 4.305281 -0.000000 -0.002671 -3.141592 -0.000000
  6 -0.000000 2.333663 -0.000000 0.375502 0.064397 -0.017722
  7 0.000000 3.386916 -0.000001 -0.148337 0.009657 0.008189
  8 0.000001 5.951355 3.445945 1.535604 0.019237 3.113295
  9 0.000001 6.018993 -0.000001 -0.297639 0.108293 0.055790
  10 0.000001 5.184165 -0.000000 -0.442064 0.008277 0.005817
  11 0.000001 7.215683 -0.000000 -0.071484 0.006056 0.020958
  12 0.000002 5.262503 -0.000001 -0.075149 0.000894 0.001224
  13 -0.000001 4.119095 0.000002 -0.343787 0.000001 -0.000000
  14 -0.000001 2.884165 -0.000001 0.295523 -3.141591 0.000001
  15 -0.000000 2.392373 0.000000 0.461537 -0.000002 0.000000
  16 -0.000000 2.854578 0.000000 -0.231490 0.000000 0.000000
  17 -0.000000 2.333663 -0.000000 -0.492461 1.810435 1.188844
  18 -0.000000 6.907821 0.000001 -0.882915 -0.593222 -0.237008
  19 0.000000 16.025204 -0.000004 -0.155171 -0.215645 -1.350757
  20 -0.000005 8.302365 0.000005 -0.110468 -0.018214 0.273129
  21 -0.999590 3.677694 0.004100 0.197234 0.002279 0.124597
  22 -0.000002 2.205520 0.000002 -0.257587 0.023264 0.045063
  23 -0.030754 3.687304 0.123970 0.142571 -0.004978 -0.031970
  24 0.000000 2.174215 -0.000000 -0.298930 0.023519 0.060027
  25 0.880920 3.855734 0.123971 0.120987 0.037674 -0.322678
  26 -0.000001 2.236421 0.000001 -0.293554 -0.027381 0.184103
  27 -0.000000 2.333663 -0.000000 -0.492462 -1.810435 -1.188843
  28 -0.000000 6.907820 0.000003 -1.129995 0.474551 0.227034
  29 0.000003 16.025208 -0.000001 -0.158267 0.234472 1.472833
  30 0.000002 8.302366 -0.000001 -0.110468 0.018213 -0.273129
  31 0.999589 3.677692 0.004100 0.194217 0.000210 -0.115391
  32 0.000001 2.205518 -0.000001 -0.257587 -0.023264 -0.045062
  33 0.030756 3.687302 0.123969 0.139978 0.007906 0.041157
  34 0.000000 2.174214 0.000000 -0.298930 -0.023518 -0.060027
  35 -0.880919 3.855732 0.123970 0.119342 -0.034125 0.331941
  36 0.000001 2.236421 0.000000 -0.293553 0.027381 -0.184103
  37 0.000001 -21.134916 0.000000 -0.243116 0.000000 0.000000
  38 -0.000001 9.953528 -0.000001 -1.197250 0.017124 0.025103
  39 0.000001 10.932066 0.000000 -0.488168 0.005137 0.020627
  40 0.000000 8.799003 0.000001 -1.080676 0.075474 0.125707
  41 -0.000000 10.021087 0.000000 -0.160269 0.001678 0.020899
  42 -0.000000 10.184031 0.000001 0.313799 0.009018 -0.043926
  43 0.000007 -63.972916 -0.895574 0.076522 0.000000 0.000000
  44 -3.176779 -43.801746 15.190023 0.000096 -1.576254 -1.570892
  45 -1.728301 -40.014317 -7.834152 0.000096 -1.576254 -1.570892
  46 -27.256569 -10.206290 18.163826 -0.000114 1.576254 1.570682
  47 -27.256577 -10.283463 4.022751 -0.000114 1.576254 1.570682
  48 72.693199 -74.417854 4.864148 -0.130448 1.576254 1.570661
  49 33.759148 -71.510750 0.793665 0.321305 1.576254 1.570669
  50 41.020031 -74.306908 1.331394 -0.003262 1.576254 1.570666
  time 2
  0 -0.138733 0.408998 52.017868 1.576254 0.000000 -0.000001
  1 -14.993370 -52.217197 0.688404 -0.000114 1.576254 1.570682
  2 0.000001 -21.134916 0.000000 2.059625 -0.001194 -0.000093
  3 -0.000000 6.799598 -0.000002 -0.231711 0.071011 0.138617
  4 -0.000000 6.325093 0.000000 -0.216648 3.121458 -0.000186
  5 0.000000 4.305282 0.000001 -0.002670 -3.141592 -0.000000
  6 0.000000 2.333662 -0.000000 0.392947 0.184823 -0.049246
  7 0.000000 3.386915 -0.000000 -0.150333 0.019332 0.016360
  8 -0.000001 5.951356 3.445945 1.475648 0.012264 3.122334
  9 0.000001 6.018992 -0.000001 -0.299806 0.107020 0.054987
  10 0.000002 5.184166 -0.000001 -0.190441 0.119865 0.109127
  11 0.000002 7.215681 -0.000000 -0.027961 0.025482 0.060419
  12 0.000002 5.262502 -0.000001 -0.052770 0.014105 0.019757
  13 0.000001 4.119094 -0.000000 -0.321535 0.000001 -0.000000
  14 -0.000000 2.884165 -0.000002 0.273271 -3.141591 0.000001
  15 0.000000 2.392370 0.000001 0.439285 -0.000001 -0.000000
  16 -0.000003 2.854579 -0.000001 -0.231490 -0.000000 0.000000
  17 0.000000 2.333662 -0.000000 -0.492460 1.810435 1.188845
  18 -0.000002 6.907819 0.000002 -0.837628 -0.238161 0.102612
  19 -0.000005 16.025209 -0.000001 -0.177079 -0.364558 -1.657043
  20 -0.000003 8.302368 0.000003 -0.110467 -0.018214 0.273129
  21 -0.999588 3.677694 0.004101 0.197234 0.002279 0.124598
  22 0.000000 2.205520 0.000000 -0.257587 0.023264 0.045062
  23 -0.030752 3.687305 0.123972 0.142570 -0.004977 -0.031970
  24 -0.000001 2.174216 0.000001 -0.298930 0.023518 0.060028
  25 0.880920 3.855736 0.123972 0.120986 0.037674 -0.322678
  26 -0.000001 2.236423 0.000001 -0.293553 -0.027381 0.184104
  27 0.000000 2.333662 -0.000000 -0.492462 -1.810435 -1.188843
  28 0.000003 6.907819 -0.000000 -0.997385 0.336979 0.665644
  29 -0.000001 16.025202 -0.000000 -0.130927 0.461036 2.310937
  30 -0.000000 8.302364 -0.000000 -0.110468 0.018214 -0.273129
  31 0.999587 3.677691 0.004100 0.194217 0.000210 -0.115391
  32 -0.000000 2.205518 0.000001 -0.257587 -0.023264 -0.045063
  33 0.030755 3.687301 0.123969 0.139978 0.007906 0.041157
  34 0.000000 2.174213 -0.000000 -0.298930 -0.023518 -0.060027
  35 -0.880920 3.855731 0.123968 0.119342 -0.034125 0.331941
  36 -0.000000 2.236421 0.000001 -0.293554 0.027381 -0.184103
  37 0.000001 -21.134916 0.000000 -0.297949 0.000000 0.000000
  38 0.000001 9.953527 -0.000000 -1.170616 0.016779 0.025316
  39 -0.000000 10.932063 0.000000 -0.460233 0.004588 0.019585
  40 0.000000 8.799005 -0.000002 -1.085121 0.075365 0.124897
  41 0.000000 10.021095 0.000002 -0.155832 0.001570 0.020113
  42 -0.000000 10.184034 0.000003 0.314750 0.009002 -0.043651
  43 0.000007 -63.972916 -0.895574 0.076522 0.000000 0.000000
  44 2.702871 -45.836529 17.115257 0.000096 -1.576254 -1.570892
  45 3.490227 -38.259792 -3.727948 0.000096 -1.576254 -1.570892
  46 -27.256569 -10.206290 18.163826 -0.000114 1.576254 1.570682
  47 -27.256563 -10.167299 25.308296 -0.000114 1.576254 1.570682
  48 72.693199 -74.417854 4.864148 -0.130448 1.576254 1.570661
  49 33.759148 -71.510750 0.793665 0.321305 1.576254 1.570669
  50 41.020031 -74.306908 1.331394 -0.003262 1.576254 1.570666
  time 3
  0 -0.138733 0.408998 52.017868 1.576254 0.000000 -0.000001
  1 -16.281832 -50.666367 0.679942 -0.000114 1.576254 1.570682
  2 0.000001 -21.134916 0.000000 2.035543 -0.013253 -0.000870
  3 -0.000000 6.799598 -0.000000 -0.320773 0.002984 -0.071937
  4 -0.000001 6.325093 0.000000 -0.142643 3.123975 0.000490
  5 0.000000 4.305281 0.000001 -0.002670 -3.141592 -0.000000
  6 -0.000000 2.333665 -0.000001 0.393295 0.249659 -0.066620
  7 0.000000 3.386915 0.000002 -0.148337 0.009657 0.008189
  8 -0.000001 5.951354 3.445942 1.415580 0.005840 3.131782
  9 -0.000000 6.018992 -0.000001 -0.332188 0.087709 0.043274
  10 0.000002 5.184168 0.000001 -0.195524 0.108736 0.101485
  11 0.000002 7.215685 -0.000004 -0.019822 0.063982 0.082425
  12 0.000001 5.262503 -0.000001 0.047119 0.066387 0.103501
  13 0.000003 4.119097 -0.000003 -0.224285 0.000001 0.000000
  14 0.000001 2.884166 -0.000000 0.176021 -3.141591 0.000001
  15 0.000001 2.392369 -0.000000 0.342035 -0.000002 -0.000000
  16 -0.000000 2.854578 -0.000001 -0.231490 -0.000000 0.000000
  17 -0.000000 2.333665 -0.000001 -0.492460 1.810435 1.188845
  18 -0.000003 6.907820 -0.000002 -0.899496 -0.039923 0.469636
  19 -0.000001 16.025206 -0.000001 -0.189020 -0.414708 -1.227637
  20 0.000000 8.302362 0.000004 -0.110467 -0.018214 0.273129
  21 -0.999589 3.677692 0.004100 0.197234 0.002279 0.124597
  22 0.000001 2.205518 0.000001 -0.257587 0.023264 0.045063
  23 -0.030755 3.687300 0.123969 0.142570 -0.004977 -0.031970
  24 -0.000000 2.174213 0.000001 -0.298930 0.023519 0.060027
  25 0.880920 3.855731 0.123968 0.120986 0.037674 -0.322678
  26 -0.000001 2.236422 0.000003 -0.293553 -0.027381 0.184103
  27 -0.000000 2.333665 -0.000001 -0.492462 -1.810435 -1.188842
  28 -0.000001 6.907820 -0.000000 -0.991962 0.450706 0.671450
  29 -0.000003 16.025208 0.000000 -0.175375 0.562049 2.077307
  30 -0.000004 8.302363 -0.000000 -0.110467 0.018214 -0.273129
  31 0.999587 3.677690 0.004100 0.194217 0.000210 -0.115391
  32 -0.000000 2.205517 -0.000000 -0.257587 -0.023264 -0.045063
  33 0.030752 3.687301 0.123970 0.139978 0.007906 0.041157
  34 -0.000001 2.174214 0.000000 -0.298930 -0.023518 -0.060027
  35 -0.880924 3.855732 0.123970 0.119342 -0.034125 0.331941
  36 0.000000 2.236419 -0.000001 -0.293553 0.027381 -0.184103
  37 0.000001 -21.134916 0.000000 -0.472191 0.000000 0.000000
  38 0.000002 9.953529 -0.000001 -1.059675 0.015116 0.025807
  39 -0.000000 10.932057 0.000002 -0.397569 0.003421 0.016980
  40 0.000000 8.799005 0.000003 -1.095536 0.074642 0.122262
  41 -0.000001 10.021087 -0.000003 -0.145602 0.001329 0.018218
  42 0.000001 10.184027 0.000003 0.316922 0.008920 -0.042746
  43 0.000007 -63.972916 -0.895576 0.076522 0.000000 0.000000
  44 8.582520 -47.871311 19.040491 0.000096 -1.576254 -1.570892
  45 -0.913110 -38.262051 -4.142048 0.000096 -1.576254 -1.570892
  46 -27.256569 -10.206290 18.163826 -0.000114 1.576254 1.570682
  47 -27.256571 -10.225379 14.665524 -0.000114 1.576254 1.570682
  48 72.693199 -74.417854 4.864148 -0.130448 1.576254 1.570661
  49 33.759148 -71.510750 0.793665 0.321305 1.576254 1.570669
  50 41.020031 -74.306908 1.331394 -0.003262 1.576254 1.570666
  time 4
  0 -0.138733 0.408998 52.017868 1.576254 0.000000 -0.000001
  1 -18.429264 -48.081654 0.665837 -0.000114 1.576254 1.570682
  2 0.000001 -21.134916 0.000000 1.791105 -0.134820 0.007653
  3 0.000000 6.799596 0.000001 -0.362004 -0.040541 -0.181862
  4 -0.000002 6.325095 -0.000000 -0.068609 3.141593 0.000000
  5 -0.000000 4.305279 0.000000 -0.002670 -3.141592 -0.000000
  6 0.000000 2.333662 -0.000000 0.086077 0.115568 0.000774
  7 0.000000 3.386917 -0.000000 -0.146263 -0.000000 -0.000000
  8 0.000000 5.951354 3.445945 1.355510 -0.000001 3.141590
  9 0.000001 6.018992 -0.000001 -0.469718 0.000002 -0.000000
  10 -0.000001 5.184165 -0.000002 -0.261526 -0.062598 -0.006473
  11 0.000001 7.215682 -0.000001 -0.270057 0.111106 0.067615
  12 0.000001 5.262505 -0.000003 -0.341840 0.174672 0.052380
  13 0.000000 4.119095 0.000000 -0.622994 0.000001 -0.000000
  14 0.000001 2.884166 0.000000 0.574730 -3.141591 0.000001
  15 -0.000000 2.392368 -0.000001 0.740744 -0.000002 0.000000
  16 0.000000 2.854576 0.000001 -0.231490 -0.000000 0.000000
  17 0.000000 2.333662 -0.000000 -0.492460 1.810435 1.188845
  18 -0.000001 6.907820 0.000002 -1.174040 -0.456682 0.421676
  19 -0.000000 16.025200 0.000001 -0.190574 -0.514367 -0.997935
  20 -0.000000 8.302366 -0.000001 -0.110467 -0.018213 0.273129
  21 -0.999591 3.677692 0.004098 0.197234 0.002279 0.124597
  22 0.000000 2.205518 -0.000001 -0.257587 0.023264 0.045063
  23 -0.030758 3.687302 0.123968 0.142569 -0.004978 -0.031970
  24 -0.000001 2.174215 0.000001 -0.298929 0.023519 0.060027
  25 0.880919 3.855732 0.123969 0.120986 0.037673 -0.322679
  26 -0.000002 2.236422 0.000001 -0.293553 -0.027381 0.184104
  27 0.000000 2.333662 -0.000000 -0.492462 -1.810435 -1.188843
  28 0.000001 6.907821 0.000000 -1.548766 0.589535 -0.198796
  29 -0.000002 16.025198 0.000001 -0.189081 0.719547 2.155549
  30 -0.000003 8.302360 -0.000001 -0.110468 0.018214 -0.273129
  31 0.999586 3.677689 0.004100 0.194217 0.000210 -0.115391
  32 -0.000002 2.205516 0.000000 -0.257587 -0.023264 -0.045063
  33 0.030755 3.687298 0.123971 0.139978 0.007906 0.041157
  34 -0.000000 2.174212 -0.000000 -0.298930 -0.023519 -0.060027
  35 -0.880922 3.855730 0.123970 0.119342 -0.034125 0.331941
  36 -0.000000 2.236418 0.000001 -0.293554 0.027381 -0.184103
  37 0.000001 -21.134916 0.000000 -0.779133 0.000000 0.000000
  38 -0.000000 9.953529 -0.000001 -0.781207 0.010409 0.025277
  39 0.000000 10.932057 -0.000000 -0.368796 0.002792 0.014972
  40 -0.000000 8.799008 -0.000002 -1.086120 0.070410 0.116566
  41 0.000002 10.021087 0.000004 -0.156772 0.001474 0.018770
  42 0.000001 10.184028 -0.000001 0.315037 0.008552 -0.040765
  43 0.000007 -63.972919 -0.895576 0.076522 0.000000 0.000000
  44 -1.311050 -45.477509 19.724709 0.000096 -1.576254 -1.570892
  45 -5.316449 -38.277874 -7.040775 0.000096 -1.576254 -1.570892
  46 -27.256569 -10.206290 18.163826 -0.000114 1.576254 1.570682
  47 -27.256594 -10.399630 -17.262791 -0.000114 1.576254 1.570682
  48 72.693199 -74.417854 4.864148 -0.130448 1.576254 1.570661
  49 33.759148 -71.510750 0.793665 0.321305 1.576254 1.570669
  50 41.020031 -74.306908 1.331394 -0.003262 1.576254 1.570666
end
