version 1
nodes
0 "AllBody.000" -1
1 "Torso.012" 0
2 "Torso.000" 1
3 "Torso.001" 2
4 "Torso.002" 3
5 "Torso.003" 4
6 "Torso.010" 5
7 "Torso.011" 6
8 "HeadTail.000" 7
9 "HeadTail.001" 8
10 "HeadTail.002" 9
11 "HeadTail.003" 10
12 "HeadTail.004" 11
13 "HeadTail.005" 12
14 "HeadTail.006" 13
15 "HeadTail.007" 14
16 "HeadTail.008" 15
17 "Arm.L.000" 5
18 "Arm.L.001" 17
19 "Arm.L.002" 18
20 "Hand.L.000" 19
21 "Hand.L.001" 20
22 "Hand.L.002" 21
23 "Hand.L.003" 20
24 "Hand.L.004" 23
25 "Hand.L.005" 20
26 "Hand.L.006" 25
27 "Arm.R.000" 5
28 "Arm.R.001" 27
29 "Arm.R.002" 28
30 "Hand.R.000" 29
31 "Hand.R.001" 30
32 "Hand.R.002" 31
33 "Hand.R.003" 30
34 "Hand.R.004" 33
35 "Hand.R.005" 30
36 "Hand.R.006" 35
37 "Torso.004" 1
38 "Torso.005" 37
39 "Torso.006" 38
40 "Torso.007" 39
41 "Torso.008" 40
42 "Torso.009" 41
43 "TailSpline.003" 1
44 "HandIK.L.000" 0
45 "HandIK.R.000" 0
46 "ElbowIK.L.000" 0
47 "ElbowIK.R.000" 0
48 "TailSpline.000" 0
49 "TailSpline.002" 0
50 "TailSpline.001" 0
end
skeleton
  time 0
  0 -0.138733 0.408998 52.017868 1.576254 0.000000 -0.000001
  1 -12.803205 -37.681454 -5.925837 -1.608206 1.424357 -0.037010
  2 0.000001 -21.134914 0.000000 1.823775 -0.081600 0.097847
  3 -0.000000 6.799597 -0.000001 -0.205051 0.017632 -0.187343
  4 0.000001 6.325092 0.000001 -0.164303 -3.095804 -0.019899
  5 0.000000 4.305282 0.000000 -0.002671 -3.141592 -0.000000
  6 0.000000 2.333663 -0.000000 0.141808 0.096352 -0.017195
  7 0.000000 3.386915 0.000001 -0.146263 -0.000000 -0.000000
  8 -0.000001 5.951356 3.445946 1.383903 -0.069867 -3.095901
  9 0.000000 6.018994 -0.000002 -0.160487 -0.063088 -0.034502
  10 0.000000 5.184167 -0.000002 -0.155744 -0.072668 -0.036716
  11 0.000000 7.215683 -0.000000 -0.263433 0.100296 0.072201
  12 0.000001 5.262502 -0.000002 -0.044729 0.155853 -0.013218
  13 0.000001 4.119094 -0.000005 -0.317936 0.000001 0.000000
  14 0.000001 2.884166 0.000002 0.269673 -3.141591 0.000001
  15 0.000000 2.392372 0.000002 0.435686 -0.000002 0.000000
  16 -0.000001 2.854576 -0.000001 -0.231490 0.000000 -0.000000
  17 0.000000 2.333663 -0.000000 -0.591590 1.824386 1.224486
  18 -0.000002 6.907820 -0.000002 -0.819405 -0.596761 -0.182258
  19 -0.000001 16.025206 0.000002 -0.102020 -0.585357 -0.412377
  20 -0.000000 8.302369 0.000000 -0.110467 -0.018213 0.273129
  21 -0.999590 3.677693 0.004097 0.197234 0.002279 0.124597
  22 -0.000001 2.205519 -0.000002 -0.257587 0.023264 0.045063
  23 -0.030755 3.687302 0.123966 0.142570 -0.004977 -0.031970
  24 -0.000003 2.174215 -0.000002 -0.298930 0.023518 0.060027
  25 0.880918 3.855733 0.123966 0.120986 0.037673 -0.322678
  26 0.000001 2.236423 0.000002 -0.293553 -0.027381 0.184103
  27 0.000000 2.333663 -0.000000 -0.578295 -1.814938 -1.204792
  28 0.000000 6.907822 -0.000001 -0.604819 0.356757 0.198811
  29 -0.000000 16.025206 0.000003 -0.173156 0.623616 0.745085
  30 0.000005 8.302362 0.000004 -0.110467 0.018214 -0.273130
  31 0.999589 3.677691 0.004099 0.194217 0.000210 -0.115391
  32 0.000000 2.205517 -0.000000 -0.257587 -0.023264 -0.045063
  33 0.030756 3.687301 0.123970 0.139978 0.007906 0.041157
  34 0.000001 2.174214 0.000001 -0.298930 -0.023518 -0.060028
  35 -0.880919 3.855732 0.123971 0.119343 -0.034124 0.331940
  36 0.000001 2.236421 -0.000002 -0.293554 0.027381 -0.184103
  37 0.000001 -21.134914 0.000000 -1.041764 0.165201 0.044842
  38 0.000001 9.953523 0.000001 0.151392 -0.003747 0.049390
  39 0.000001 10.932060 -0.000001 -0.475369 -0.032399 -0.133549
  40 0.000002 8.798999 0.000001 -0.562380 -0.008890 -0.030776
  41 -0.000000 10.021091 -0.000001 -0.834572 -0.026565 -0.059908
  42 0.000000 10.184031 -0.000002 -0.445318 -0.003267 -0.001369
  43 0.000006 -63.972904 -0.895574 0.076522 0.000000 0.000000
  44 -1.065525 -33.563267 16.236525 0.000096 -1.576254 -1.570892
  45 -1.305930 -35.428604 -20.955067 0.000096 -1.576254 -1.570892
  46 -36.723015 -11.557973 19.910469 -0.000114 1.576254 1.570682
  47 -36.723042 -22.797358 -20.238829 -0.000114 1.576254 1.570682
  48 72.693199 -74.417854 4.864148 -0.130448 1.576254 1.570661
  49 33.630634 -71.569321 1.042076 0.321305 1.576254 1.570669
  50 40.653736 -75.258125 2.319479 -0.003262 1.576254 1.570666
  time 1
  0 -0.138733 0.408998 52.017868 1.576254 0.000000 -0.000001
  1 -9.127519 -34.401691 -5.943738 -1.608206 1.424357 -0.037010
  2 0.000001 -21.134914 0.000000 1.955613 0.050901 0.194505
  3 0.000001 6.799596 0.000000 0.091987 0.125426 -0.155580
  4 -0.000000 6.325093 -0.000000 -0.341532 -3.038015 -0.047299
  5 -0.000000 4.305282 -0.000000 -0.002671 -3.141592 0.000000
  6 -0.000000 2.333664 -0.000000 0.244896 0.100028 -0.061944
  7 0.000001 3.386915 0.000001 -0.146263 -0.000000 0.000000
  8 0.000001 5.951353 3.445944 1.416761 -0.133428 3.107164
  9 0.000001 6.018992 -0.000000 -0.165354 -0.063203 -0.034477
  10 -0.000002 5.184166 -0.000005 -0.157145 -0.072797 -0.037158
  11 -0.000000 7.215683 -0.000000 -0.296225 0.064751 0.076309
  12 -0.000000 5.262500 0.000001 -0.078440 0.097829 -0.096172
  13 0.000000 4.119094 -0.000000 -0.341311 0.000001 -0.000000
  14 -0.000002 2.884165 -0.000003 0.293047 -3.141591 0.000001
  15 -0.000001 2.392370 0.000000 0.459061 -0.000002 0.000000
  16 -0.000000 2.854574 0.000000 -0.231490 0.000000 0.000000
  17 -0.000000 2.333664 -0.000000 -0.472290 1.815588 1.320103
  18 -0.000001 6.907820 -0.000001 -0.654958 -0.245864 -1.111259
  19 0.000002 16.025202 0.000000 -0.000982 -0.719458 -0.003432
  20 0.000001 8.302362 -0.000002 -0.165396 0.005471 0.245735
  21 -0.999590 3.677692 0.004100 0.197234 0.002279 0.124597
  22 -0.000000 2.205518 -0.000000 -0.257587 0.023264 0.045063
  23 -0.030756 3.687302 0.123969 0.142570 -0.004977 -0.031970
  24 -0.000001 2.174214 0.000000 -0.298930 0.023518 0.060027
  25 0.880920 3.855732 0.123969 0.120986 0.037674 -0.322678
  26 -0.000001 2.236420 -0.000002 -0.293553 -0.027381 0.184103
  27 -0.000000 2.333664 -0.000000 -1.381485 -1.835813 -0.333226
  28 0.000001 6.907821 -0.000002 -0.345076 -0.739027 0.437753
  29 0.000005 16.025200 -0.000004 -0.000985 0.719457 0.003442
  30 0.000000 8.302365 -0.000003 -0.110468 0.018214 -0.273129
  31 0.999587 3.677689 0.004099 0.194217 0.000210 -0.115391
  32 0.000001 2.205516 -0.000000 -0.257587 -0.023264 -0.045063
  33 0.030754 3.687300 0.123969 0.139978 0.007906 0.041157
  34 0.000001 2.174215 -0.000001 -0.298930 -0.023518 -0.060027
  35 -0.880921 3.855730 0.123968 0.119342 -0.034125 0.331941
  36 0.000001 2.236422 0.000001 -0.293553 0.027381 -0.184103
  37 0.000001 -21.134914 0.000000 -1.021185 0.168518 0.047615
  38 -0.000001 9.953527 0.000000 0.165753 -0.004882 0.058754
  39 0.000000 10.932058 -0.000001 -0.103363 -0.002776 -0.053644
  40 0.000000 8.799010 -0.000002 -0.696849 -0.006925 -0.019065
  41 -0.000001 10.021079 0.000001 -0.205051 -0.002484 -0.024147
  42 -0.000000 10.184036 -0.000000 -1.312136 -0.074869 -0.084162
  43 0.000006 -63.972904 -0.895576 0.076522 0.000000 0.000000
  44 0.653155 -19.838408 11.158538 0.000096 -1.576254 -1.570892
  45 6.250740 -32.565784 -32.384735 0.000096 -1.576254 -1.570892
  46 -46.189453 -14.267964 21.664530 -0.000114 1.576254 1.570682
  47 -46.189484 -35.180847 -20.606056 -0.000114 1.576254 1.570682
  48 72.693199 -74.417854 4.864148 -0.130448 1.576254 1.570661
  49 33.344585 -71.985168 1.697806 0.321305 1.576254 1.570669
  50 39.778862 -77.528938 4.883179 -0.003262 1.576254 1.570666
  time 2
  0 -0.138733 0.408998 52.017868 1.576254 0.000000 -0.000001
  1 -9.111917 -34.731876 -5.950943 -1.607911 1.423185 -0.036712
  2 -0.000001 -21.134914 0.000000 2.206242 0.216967 0.258322
  3 0.000000 6.799598 -0.000001 0.257644 0.171294 -0.075043
  4 -0.000000 6.325093 0.000002 -0.436906 -3.007984 -0.058182
  5 -0.000001 4.305283 -0.000001 0.083127 3.076939 0.058711
  6 -0.000000 2.333662 -0.000000 0.299566 0.088931 -0.122837
  7 0.000001 3.386916 -0.000000 -0.148678 0.000952 -0.003920
  8 -0.000002 5.951356 3.445944 1.455282 -0.194475 3.023621
  9 -0.000001 6.018993 0.000001 -0.214586 -0.064359 -0.034198
  10 -0.000001 5.184165 -0.000003 -0.165070 -0.073539 -0.039655
  11 0.000000 7.215682 -0.000002 -0.373826 0.014441 0.081453
  12 -0.000001 5.262503 -0.000001 -0.141829 0.017522 -0.158850
  13 0.000002 4.119093 -0.000002 -0.402661 0.000001 -0.000000
  14 -0.000001 2.884166 -0.000000 0.354398 -3.141591 0.000001
  15 -0.000001 2.392370 -0.000000 0.520412 -0.000002 -0.000000
  16 0.000000 2.854577 0.000000 -0.231490 -0.000000 -0.000000
  17 -0.000000 2.333662 -0.000000 -0.171533 1.802352 1.563202
  18 0.000001 6.907820 -0.000001 -0.705415 0.397396 -1.134633
  19 -0.000002 16.025200 0.000000 -0.268729 -0.955155 -0.963945
  20 -0.000001 8.302366 0.000006 -0.308617 0.058718 0.170166
  21 -0.999591 3.677693 0.004099 0.197234 0.002279 0.124597
  22 -0.000001 2.205518 0.000001 -0.257587 0.023264 0.045063
  23 -0.030757 3.687303 0.123969 0.142570 -0.004977 -0.031970
  24 0.000000 2.174213 0.000001 -0.298930 0.023518 0.060027
  25 0.880920 3.855732 0.123971 0.120987 0.037674 -0.322678
  26 -0.000001 2.236420 -0.000001 -0.293554 -0.027381 0.184103
  27 -0.000000 2.333662 -0.000000 -1.808560 -1.977650 0.162682
  28 0.000001 6.907820 0.000004 1.379194 -1.260534 -0.994286
  29 -0.000000 16.025204 0.000002 -0.270814 0.956907 0.974934
  30 0.000003 8.302364 -0.000001 -0.110468 0.018214 -0.273129
  31 0.999589 3.677692 0.004100 0.194217 0.000210 -0.115391
  32 -0.000001 2.205518 -0.000001 -0.257586 -0.023264 -0.045063
  33 0.030754 3.687301 0.123972 0.139978 0.007906 0.041157
  34 -0.000001 2.174213 -0.000001 -0.298930 -0.023518 -0.060027
  35 -0.880920 3.855731 0.123970 0.119342 -0.034125 0.331941
  36 0.000000 2.236421 0.000002 -0.293554 0.027381 -0.184103
  37 -0.000001 -21.134914 0.000000 -0.999231 0.205385 0.060542
  38 0.000000 9.953529 0.000000 0.182806 -0.011713 0.127623
  39 0.000001 10.932058 -0.000000 -0.145875 -0.006836 -0.093487
  40 0.000000 8.799003 -0.000000 -0.671439 0.014072 0.040323
  41 0.000000 10.021089 -0.000000 -0.152473 0.001013 0.013260
  42 0.000001 10.184031 0.000000 -1.354184 -0.260712 -0.310265
  43 -0.000001 -63.972908 -0.895574 0.007597 -0.159970 -0.030587
  44 11.453324 -16.137142 5.879847 0.000096 -1.576254 -1.570892
  45 11.876040 -33.377045 -30.827337 0.000096 -1.576254 -1.570892
  46 -0.416661 -16.909107 -18.755814 -0.000114 1.576254 1.570682
  47 -27.192326 -32.661263 -20.619820 -0.000114 1.576254 1.570682
  48 74.696678 -74.450798 -1.171540 -0.130448 1.576254 1.570661
  49 33.050240 -73.118546 2.626602 0.321305 1.576254 1.570669
  50 38.731441 -80.245056 8.421666 -0.003262 1.576254 1.570666
  time 3
  0 -0.138733 0.408998 52.017868 1.576254 0.000000 -0.000001
  1 -9.002695 -37.043198 -6.001380 -1.605971 1.414981 -0.034749
  2 -0.000003 -21.134914 0.000000 2.545079 0.370625 0.381141
  3 -0.000001 6.799598 0.000001 0.099513 0.050289 0.020107
  4 0.000001 6.325093 -0.000003 -0.252250 3.108584 -0.097488
  5 0.000001 4.305281 -0.000001 0.291704 2.952416 0.211538
  6 0.000001 2.333662 -0.000001 0.225746 0.016047 -0.195390
  7 0.000000 3.386919 0.000000 -0.154452 0.003183 -0.013279
  8 -0.000000 5.951352 3.445945 -1.663846 -2.868742 -0.015297
  9 0.000002 6.018990 0.000000 -0.716098 -0.074810 -0.028306
  10 0.000000 5.184167 -0.000000 -0.209972 -0.078118 -0.053696
  11 0.000001 7.215683 -0.000003 -0.466716 -0.037209 0.090166
  12 -0.000000 5.262504 0.000000 -0.201440 -0.064826 -0.198706
  13 0.000001 4.119096 0.000000 -0.469517 0.000001 0.000000
  14 -0.000000 2.884166 0.000002 0.421253 -3.141591 0.000001
  15 -0.000000 2.392370 0.000001 0.587267 -0.000002 -0.000000
  16 -0.000001 2.854575 0.000001 -0.231490 -0.000000 0.000000
  17 0.000001 2.333662 -0.000001 0.197076 1.808929 1.862761
  18 -0.000001 6.907820 0.000003 -0.872160 -0.360541 0.156519
  19 -0.000002 16.025213 0.000002 -0.372113 -1.157487 -1.416203
  20 -0.000001 8.302364 0.000002 -0.504940 0.111398 0.059147
  21 -0.999589 3.677692 0.004097 0.197234 0.002279 0.124597
  22 0.000000 2.205518 0.000001 -0.257587 0.023264 0.045063
  23 -0.030758 3.687302 0.123969 0.142570 -0.004977 -0.031970
  24 0.000001 2.174215 0.000001 -0.298930 0.023518 0.060027
  25 0.880920 3.855732 0.123969 0.120986 0.037674 -0.322678
  26 0.000000 2.236421 -0.000001 -0.293554 -0.027381 0.184103
  27 0.000001 2.333662 -0.000001 -1.832904 -1.966877 0.101729
  28 0.000000 6.907818 -0.000002 0.335350 -0.579955 0.260206
  29 -0.000000 16.025211 0.000000 -0.355241 1.129343 1.238282
  30 0.000001 8.302366 0.000000 -0.110467 0.018214 -0.273129
  31 0.999587 3.677692 0.004099 0.194217 0.000210 -0.115391
  32 0.000001 2.205518 -0.000001 -0.257587 -0.023264 -0.045063
  33 0.030756 3.687302 0.123969 0.139978 0.007906 0.041157
  34 -0.000000 2.174215 0.000000 -0.298930 -0.023518 -0.060028
  35 -0.880920 3.855733 0.123970 0.119342 -0.034125 0.331941
  36 0.000001 2.236419 -0.000001 -0.293554 0.027381 -0.184103
  37 -0.000003 -21.134914 0.000000 -0.864927 0.358516 0.133297
  38 0.000000 9.953529 0.000001 0.171910 -0.019371 0.223878
  39 0.000000 10.932059 -0.000000 -0.261501 -0.029976 -0.226987
  40 -0.000001 8.799003 0.000002 -0.666331 0.031706 0.091562
  41 0.000001 10.021087 -0.000001 -0.099695 -0.001253 -0.025121
  42 0.000001 10.184029 -0.000001 -1.473940 -0.400091 -0.426543
  43 -0.000007 -63.972908 -0.895574 -0.148572 -0.535076 -0.060784
  44 22.253492 -12.435877 0.601156 0.000096 -1.576254 -1.570892
  45 15.031704 -39.096561 -27.379589 0.000096 -1.576254 -1.570892
  46 57.679104 -19.149002 -59.178356 -0.000114 1.576254 1.570682
  47 15.508444 -27.982031 -20.645388 -0.000114 1.576254 1.570682
  48 76.700165 -74.483734 -7.207226 -0.130448 1.576254 1.570661
  49 32.896824 -75.329704 3.694208 0.321305 1.576254 1.570669
  50 37.799149 -82.658524 12.323382 -0.003262 1.576254 1.570666
  time 4
  0 -0.138733 0.408998 52.017868 1.576254 0.000000 -0.000001
  1 -8.706237 -43.316784 -6.138277 -1.601609 1.392712 -0.030326
  2 -0.000002 -21.134912 0.000000 2.898595 0.479320 0.547785
  3 -0.000000 6.799597 0.000000 -0.224318 -0.139779 0.152967
  4 -0.000001 6.325096 0.000001 0.103058 2.782296 -0.084152
  5 0.000001 4.305282 -0.000001 0.522636 2.863949 0.391511
  6 -0.000000 2.333663 -0.000001 0.073513 -0.093156 -0.274954
  7 0.000001 3.386918 -0.000001 -0.161370 0.005776 -0.024465
  8 0.000001 5.951354 3.445944 -1.649439 -2.788292 0.088468
  9 -0.000001 6.018991 -0.000001 -0.715207 -0.074257 -0.027785
  10 0.000000 5.184167 -0.000003 -0.463693 -0.115543 -0.128533
  11 -0.000002 7.215688 -0.000004 -0.544775 -0.076905 0.100120
  12 0.000001 5.262500 0.000001 -0.225006 -0.124604 -0.220012
  13 -0.000001 4.119097 -0.000000 -0.502908 0.000001 0.000001
  14 0.000000 2.884166 0.000001 0.454645 -3.141591 0.000001
  15 -0.000002 2.392370 0.000001 0.620658 -0.000002 0.000000
  16 0.000000 2.854575 0.000001 -0.231490 0.000000 0.000000
  17 -0.000000 2.333663 -0.000001 0.470787 1.832088 2.078712
  18 0.000000 6.907822 0.000003 -1.131429 -1.123348 -0.909940
  19 -0.000001 16.025200 -0.000001 -0.294709 -1.364495 -2.386662
  20 0.000006 8.302374 -0.000009 -0.706936 0.141133 -0.060666
  21 -0.999588 3.677695 0.004098 0.197234 0.002279 0.124597
  22 -0.000001 2.205519 -0.000000 -0.257587 0.023264 0.045063
  23 -0.030754 3.687305 0.123969 0.142570 -0.004977 -0.031970
  24 -0.000000 2.174216 0.000001 -0.298930 0.023518 0.060028
  25 0.880921 3.855737 0.123970 0.120986 0.037674 -0.322678
  26 0.000001 2.236424 0.000001 -0.293554 -0.027381 0.184104
  27 -0.000000 2.333663 -0.000001 -1.906306 -1.850034 0.006660
  28 0.000000 6.907821 -0.000001 -0.616048 0.529755 0.985673
  29 -0.000003 16.025208 0.000001 -0.333393 1.187660 0.882022
  30 0.000001 8.302363 0.000004 -0.110468 0.018214 -0.273129
  31 0.999591 3.677691 0.004102 0.194217 0.000210 -0.115391
  32 0.000001 2.205518 -0.000001 -0.257587 -0.023264 -0.045063
  33 0.030756 3.687300 0.123971 0.139978 0.007906 0.041157
  34 0.000003 2.174214 0.000001 -0.298930 -0.023518 -0.060027
  35 -0.880920 3.855730 0.123971 0.119342 -0.034125 0.331941
  36 0.000000 2.236423 0.000001 -0.293554 0.027381 -0.184103
  37 -0.000002 -21.134912 0.000000 -0.773160 0.535110 0.230016
  38 -0.000001 9.953533 0.000000 0.112801 -0.011987 0.211510
  39 0.000001 10.932060 -0.000001 -0.079656 -0.004496 -0.112699
  40 -0.000002 8.799003 0.000001 -0.670114 -0.019674 -0.056492
  41 0.000001 10.021090 0.000001 -0.298526 0.016646 0.110585
  42 0.000002 10.184036 -0.000002 -1.470595 -0.150542 -0.153305
  43 -0.000006 -63.972893 -0.895576 -0.349553 -0.909359 -0.009746
  44 23.890764 -34.736996 -17.776789 0.000096 -1.576254 -1.570892
  45 15.137246 -41.314068 -27.056892 0.000096 -1.576254 -1.570892
  46 72.055931 -20.588711 -8.476036 -0.000114 1.576254 1.570682
  47 60.476788 -25.462446 -20.659172 -0.000114 1.576254 1.570682
  48 76.160225 -83.866241 5.808949 -0.130448 1.576254 1.570661
  49 32.873466 -83.302933 4.773164 0.321305 1.576254 1.570669
  50 37.076302 -84.526604 15.933877 -0.003262 1.576254 1.570666
  time 5
  0 -0.138733 0.408998 52.017868 1.576254 0.000000 -0.000001
  1 -8.128926 -55.533756 -6.404866 -1.595648 1.349367 -0.024245
  2 0.000002 -21.134914 0.000000 -3.117321 0.551984 0.706762
  3 0.000000 6.799599 0.000003 -0.407466 -0.221267 0.238598
  4 -0.000002 6.325095 -0.000003 0.310913 2.620459 -0.024510
  5 0.000001 4.305281 -0.000001 0.631504 2.838405 0.478651
  6 0.000000 2.333664 0.000001 -0.056892 -0.164527 -0.375279
  7 0.000001 3.386916 -0.000001 -0.167188 0.007888 -0.033851
  8 0.000001 5.951357 3.445948 -1.643805 -2.707348 0.193847
  9 0.000001 6.018994 -0.000001 -0.687413 -0.057310 -0.011407
  10 0.000000 5.184168 -0.000002 -0.460968 -0.110805 -0.114116
  11 -0.000002 7.215683 0.000000 -0.577544 -0.092655 0.104976
  12 -0.000001 5.262507 0.000001 0.023550 -0.121356 -0.241333
  13 -0.000000 4.119098 0.000001 -0.252908 0.000001 -0.000000
  14 0.000000 2.884163 0.000001 0.204644 -3.141591 0.000001
  15 -0.000001 2.392370 0.000001 0.370658 -0.000002 0.000000
  16 0.000001 2.854577 -0.000001 -0.231490 0.000000 0.000000
  17 0.000000 2.333664 0.000001 0.570704 1.845572 2.154473
  18 -0.000001 6.907820 0.000000 0.036512 -0.383969 -1.782405
  19 0.000003 16.025204 0.000001 -0.514213 -1.364228 -1.593279
  20 0.000001 8.302365 -0.000000 -0.861153 0.147301 -0.153847
  21 -0.999587 3.677693 0.004099 0.197234 0.002279 0.124597
  22 0.000001 2.205518 0.000001 -0.257587 0.023264 0.045063
  23 -0.030754 3.687304 0.123968 0.142570 -0.004977 -0.031970
  24 0.000003 2.174214 -0.000001 -0.298930 0.023518 0.060027
  25 0.880919 3.855734 0.123970 0.120987 0.037674 -0.322678
  26 0.000003 2.236422 -0.000003 -0.293553 -0.027381 0.184103
  27 0.000000 2.333664 0.000001 -1.524859 -1.499517 -0.494830
  28 0.000001 6.907820 0.000001 -0.789272 1.212274 -0.019908
  29 -0.000003 16.025209 -0.000002 -0.256137 1.238880 0.540955
  30 0.000002 8.302362 -0.000000 -0.110468 0.018214 -0.273129
  31 0.999587 3.677693 0.004103 0.194217 0.000210 -0.115391
  32 0.000000 2.205518 -0.000000 -0.257587 -0.023264 -0.045063
  33 0.030753 3.687301 0.123970 0.139978 0.007906 0.041157
  34 0.000000 2.174214 0.000000 -0.298930 -0.023518 -0.060027
  35 -0.880919 3.855733 0.123970 0.119342 -0.034125 0.331941
  36 -0.000003 2.236423 0.000002 -0.293554 0.027381 -0.184103
  37 0.000002 -21.134914 0.000000 -0.698397 0.628835 0.300895
  38 -0.000000 9.953526 -0.000000 0.079074 -0.006908 0.174189
  39 -0.000000 10.932055 0.000000 -0.052615 -0.002121 -0.080552
  40 0.000003 8.798998 -0.000000 -0.480523 0.083595 0.338152
  41 -0.000001 10.021089 0.000001 -0.973974 0.085463 0.161144
  42 -0.000001 10.184041 0.000004 -0.662340 0.064587 0.200422
  43 0.000010 -63.972908 -0.895576 -0.487439 -1.066326 0.069664
  44 25.528055 -57.270916 -20.504110 0.000096 -1.576254 -1.570892
  45 16.720366 -74.576675 -22.216450 0.000096 -1.576254 -1.570892
  46 74.109810 -21.071362 42.221073 -0.000114 1.576254 1.570682
  47 83.253174 -101.661636 -63.128517 -0.000114 1.576254 1.570682
  48 75.721512 -91.456718 22.395491 -0.130448 1.576254 1.570661
  49 32.864861 -95.103577 5.632668 0.321305 1.576254 1.570669
  50 36.608879 -85.732826 18.587976 -0.003262 1.576254 1.570666
  time 6
  0 -0.138733 0.408998 52.017868 1.576254 0.000000 -0.000001
  1 -7.177142 -75.675247 -6.844378 -1.589710 1.278069 -0.018109
  2 0.000003 -21.134914 0.000000 -3.008757 0.614417 0.776565
  3 0.000000 6.799596 -0.000001 -0.407466 -0.221267 0.238598
  4 0.000000 6.325094 -0.000000 0.310913 2.620459 -0.024510
  5 -0.000001 4.305280 0.000001 0.631504 2.838405 0.478651
  6 -0.000001 2.333664 0.000000 -0.100392 -0.148785 -0.473487
  7 0.000002 3.386918 -0.000001 -0.169634 0.008758 -0.037791
  8 0.000006 5.951357 3.445944 -1.647601 -2.627524 0.301511
  9 0.000004 6.018992 -0.000001 -0.490677 0.045108 0.112159
  10 -0.000001 5.184166 -0.000000 -0.412089 -0.044709 0.104238
  11 -0.000000 7.215685 -0.000004 -0.157436 -0.089866 0.130694
  12 0.000003 5.262501 -0.000001 0.265233 -0.109658 -0.228402
  13 0.000002 4.119095 -0.000002 -0.009351 0.000001 -0.000000
  14 0.000000 2.884166 -0.000001 -0.038913 -3.141591 0.000001
  15 -0.000001 2.392369 -0.000000 0.127101 -0.000002 0.000000
  16 -0.000002 2.854577 0.000002 -0.231490 0.000000 -0.000000
  17 -0.000001 2.333664 0.000000 0.570705 1.845572 2.154474
  18 0.000001 6.907810 0.000002 -0.121019 -0.902057 -1.575849
  19 0.000002 16.025202 -0.000001 -0.560677 -1.374961 -1.248790
  20 0.000001 8.302369 -0.000000 -0.921612 0.145830 -0.190430
  21 -0.999588 3.677694 0.004102 0.197234 0.002279 0.124597
  22 -0.000001 2.205519 -0.000001 -0.257587 0.023264 0.045063
  23 -0.030754 3.687305 0.123972 0.142570 -0.004977 -0.031970
  24 0.000001 2.174214 -0.000000 -0.298930 0.023518 0.060027
  25 0.880924 3.855734 0.123970 0.120986 0.037674 -0.322678
  26 0.000002 2.236422 -0.000000 -0.293554 -0.027381 0.184103
  27 -0.000001 2.333664 0.000000 -1.819979 -1.050507 -0.078695
  28 0.000001 6.907821 0.000003 -1.344822 0.624445 -0.223723
  29 -0.000002 16.025200 0.000008 -0.581968 1.389960 1.373242
  30 0.000006 8.302367 0.000002 -0.110467 0.018213 -0.273129
  31 0.999588 3.677692 0.004103 0.194217 0.000210 -0.115391
  32 0.000002 2.205517 -0.000001 -0.257587 -0.023264 -0.045063
  33 0.030755 3.687302 0.123971 0.139978 0.007906 0.041157
  34 0.000002 2.174216 0.000000 -0.298930 -0.023518 -0.060027
  35 -0.880920 3.855731 0.123972 0.119342 -0.034125 0.331941
  36 0.000004 2.236422 -0.000001 -0.293554 0.027381 -0.184103
  37 0.000003 -21.134914 0.000000 0.043372 0.768670 0.799302
  38 0.000001 9.953529 -0.000001 -0.029550 0.000935 0.063291
  39 0.000000 10.932056 -0.000000 -0.227307 -0.032763 -0.285109
  40 0.000000 8.799002 -0.000001 -0.301092 0.186591 1.105388
  41 0.000001 10.021082 0.000002 -1.094206 0.115091 0.188592
  42 -0.000004 10.184044 -0.000002 -0.165153 0.033025 0.406945
  43 0.000011 -63.972912 -0.895576 -0.487439 -1.066326 0.069664
  44 27.165342 -79.804825 -23.231432 0.000096 -1.576254 -1.570892
  45 16.720366 -79.918839 -22.187294 0.000096 -1.576254 -1.570892
  46 74.109810 -21.071362 42.221073 -0.000114 1.576254 1.570682
  47 83.253174 -94.451920 -63.167866 -0.000114 1.576254 1.570682
  48 75.620285 -93.190430 29.511158 -0.130448 1.576254 1.570661
  49 32.863628 -101.163399 5.983451 0.321305 1.576254 1.570669
  50 36.442856 -86.160789 19.620489 -0.003262 1.576254 1.570666
end
