version 1
nodes
0 "AllBody.000" -1
1 "Torso.012" 0
2 "Torso.000" 1
3 "Torso.001" 2
4 "Torso.002" 3
5 "Torso.003" 4
6 "Torso.010" 5
7 "Torso.011" 6
8 "HeadTail.000" 7
9 "HeadTail.001" 8
10 "HeadTail.002" 9
11 "HeadTail.003" 10
12 "HeadTail.004" 11
13 "HeadTail.005" 12
14 "HeadTail.006" 13
15 "HeadTail.007" 14
16 "HeadTail.008" 15
17 "Arm.L.000" 5
18 "Arm.L.001" 17
19 "Arm.L.002" 18
20 "Hand.L.000" 19
21 "Hand.L.001" 20
22 "Hand.L.002" 21
23 "Hand.L.003" 20
24 "Hand.L.004" 23
25 "Hand.L.005" 20
26 "Hand.L.006" 25
27 "Arm.R.000" 5
28 "Arm.R.001" 27
29 "Arm.R.002" 28
30 "Hand.R.000" 29
31 "Hand.R.001" 30
32 "Hand.R.002" 31
33 "Hand.R.003" 30
34 "Hand.R.004" 33
35 "Hand.R.005" 30
36 "Hand.R.006" 35
37 "Torso.004" 1
38 "Torso.005" 37
39 "Torso.006" 38
40 "Torso.007" 39
41 "Torso.008" 40
42 "Torso.009" 41
43 "TailSpline.003" 1
44 "HandIK.L.000" 0
45 "HandIK.R.000" 0
46 "ElbowIK.L.000" 0
47 "ElbowIK.R.000" 0
48 "TailSpline.000" 0
49 "TailSpline.002" 0
50 "TailSpline.001" 0
end
skeleton
  time 0
  0 -0.138733 0.408998 52.017868 1.576254 0.000000 -0.000001
  1 -19.195574 -38.998947 0.616268 -0.000114 1.576254 1.570682
  2 0.000001 -21.134916 0.000000 1.803004 -0.000000 0.000000
  3 0.000001 6.799597 0.000000 0.000000 -0.000000 0.000000
  4 0.000000 6.325096 0.000000 0.191920 3.141592 -0.000000
  5 0.000000 4.305280 0.000000 -0.002671 -3.141592 -0.000000
  6 -0.000000 2.333665 -0.000000 -0.065988 0.000000 -0.000000
  7 -0.000000 3.386914 -0.000000 -0.146263 -0.000000 0.000000
  8 -0.000000 5.951355 3.445946 1.375657 -0.000000 3.141591
  9 0.000000 6.018993 -0.000002 -0.577893 0.000002 -0.000000
  10 -0.000000 5.184165 -0.000000 -0.585597 -0.000000 0.000000
  11 -0.000000 7.215687 0.000000 -0.187455 -0.000000 0.000000
  12 0.000000 5.262503 0.000001 -0.141870 -0.000000 0.000000
  13 -0.000000 4.119097 -0.000001 -0.410508 0.000000 0.000000
  14 0.000000 2.884166 0.000001 0.362244 -3.141591 0.000001
  15 -0.000000 2.392369 -0.000001 0.528258 -0.000002 0.000000
  16 0.000000 2.854577 -0.000000 -0.231490 0.000000 -0.000000
  17 -0.000000 2.333665 -0.000000 -0.492460 1.810435 1.188845
  18 -0.000000 6.907821 -0.000002 -1.351083 -0.456196 0.472121
  19 0.000000 16.025208 -0.000002 -0.316061 -1.318187 -0.551360
  20 -0.000000 8.302363 0.000001 -0.110467 -0.018214 0.273129
  21 -0.999589 3.677692 0.004101 0.197234 0.002279 0.124597
  22 0.000001 2.205519 0.000002 -0.257587 0.023264 0.045063
  23 -0.030756 3.687302 0.123971 0.142570 -0.004977 -0.031970
  24 0.000002 2.174214 0.000000 -0.298930 0.023518 0.060027
  25 0.880920 3.855732 0.123970 0.120986 0.037674 -0.322678
  26 -0.000000 2.236421 0.000001 -0.293554 -0.027381 0.184103
  27 -0.000000 2.333665 -0.000000 -0.492462 -1.810435 -1.188843
  28 0.000001 6.907819 -0.000001 -1.350301 0.457038 -0.471829
  29 0.000001 16.025200 -0.000001 -0.315469 1.318096 0.550246
  30 0.000003 8.302365 0.000002 -0.110467 0.018214 -0.273129
  31 0.999588 3.677693 0.004100 0.194217 0.000210 -0.115391
  32 0.000001 2.205519 0.000001 -0.257587 -0.023264 -0.045063
  33 0.030754 3.687303 0.123969 0.139978 0.007906 0.041157
  34 0.000001 2.174214 0.000000 -0.298930 -0.023518 -0.060027
  35 -0.880921 3.855733 0.123970 0.119342 -0.034125 0.331941
  36 0.000000 2.236422 0.000001 -0.293554 0.027381 -0.184103
  37 0.000001 -21.134916 0.000000 -1.301468 0.000000 0.000000
  38 0.000002 9.953529 -0.000000 0.088375 -0.000037 0.000842
  39 0.000000 10.932053 0.000001 -0.304657 0.005976 0.038925
  40 -0.000000 8.799009 0.000001 -0.739706 -0.006509 -0.016788
  41 -0.000001 10.021096 0.000001 -0.894011 0.000359 0.000749
  42 0.000002 10.184030 -0.000001 -0.021262 -0.000133 0.000577
  43 0.000007 -63.972916 -0.895574 0.076522 0.000000 0.000000
  44 -1.310708 -39.154789 16.788593 0.000096 -1.576254 -1.570892
  45 -1.310735 -39.331387 -15.571710 0.000096 -1.576254 -1.570892
  46 -27.560364 -34.879997 34.520451 -0.000114 1.576254 1.570682
  47 -27.560410 -35.250393 -33.349129 -0.000114 1.576254 1.570682
  48 78.102623 -74.439980 0.809623 -0.130448 1.576254 1.570661
  49 35.373173 -71.510750 0.793664 0.321305 1.576254 1.570669
  50 38.356640 -74.306908 1.331396 -0.003262 1.576254 1.570666
  time 1
  0 -0.138733 0.408998 52.017868 1.576254 0.000000 -0.000001
  1 -24.071646 -42.362175 0.634627 -0.000114 1.576254 1.570682
  2 0.000001 -21.134916 0.000000 1.798234 0.000000 0.000000
  3 -0.000001 6.799598 0.000000 0.072256 0.000000 -0.000000
  4 -0.000001 6.325094 -0.000001 0.190331 3.141592 0.000000
  5 0.000000 4.305280 -0.000001 -0.002670 -3.141592 -0.000000
  6 -0.000000 2.333663 0.000000 -0.065988 0.000000 -0.000000
  7 -0.000001 3.386917 -0.000000 -0.146263 -0.000000 0.000000
  8 0.000000 5.951352 3.445945 1.488143 -0.000000 3.141590
  9 0.000000 6.018992 -0.000003 -0.544379 0.000002 -0.000000
  10 0.000000 5.184165 -0.000000 -0.584987 -0.000000 -0.000000
  11 -0.000000 7.215682 0.000001 -0.187045 -0.000000 -0.000000
  12 -0.000001 5.262503 -0.000002 -0.106614 -0.000001 0.000000
  13 0.000001 4.119095 0.000001 -0.375252 0.000001 -0.000000
  14 0.000000 2.884167 0.000000 0.326988 -3.141590 0.000001
  15 -0.000001 2.392370 -0.000000 0.493002 -0.000002 0.000000
  16 -0.000000 2.854575 -0.000001 -0.231490 0.000000 -0.000000
  17 -0.000000 2.333663 0.000000 -0.492461 1.810435 1.188845
  18 -0.000000 6.907820 0.000001 -1.080021 -0.262452 0.146962
  19 -0.000001 16.025206 0.000000 -0.385046 -1.330174 -0.685445
  20 -0.000001 8.302366 0.000003 -0.110467 -0.018213 0.273129
  21 -0.999586 3.677692 0.004098 0.197234 0.002279 0.124597
  22 -0.000000 2.205519 -0.000000 -0.257587 0.023265 0.045063
  23 -0.030755 3.687302 0.123968 0.142570 -0.004977 -0.031970
  24 0.000001 2.174216 0.000002 -0.298929 0.023519 0.060027
  25 0.880920 3.855732 0.123968 0.120986 0.037674 -0.322678
  26 -0.000000 2.236421 0.000001 -0.293554 -0.027382 0.184103
  27 -0.000000 2.333663 0.000000 -0.492462 -1.810435 -1.188843
  28 0.000001 6.907820 0.000001 -1.104669 0.280760 -0.185849
  29 0.000001 16.025208 0.000001 -0.384557 1.330078 0.684455
  30 0.000002 8.302362 0.000000 -0.110467 0.018214 -0.273129
  31 0.999587 3.677691 0.004101 0.194217 0.000210 -0.115390
  32 0.000001 2.205518 -0.000000 -0.257587 -0.023264 -0.045063
  33 0.030751 3.687302 0.123972 0.139978 0.007906 0.041157
  34 0.000001 2.174214 0.000001 -0.298929 -0.023518 -0.060027
  35 -0.880924 3.855733 0.123971 0.119342 -0.034125 0.331941
  36 -0.000000 2.236421 0.000001 -0.293553 0.027381 -0.184103
  37 0.000001 -21.134916 0.000000 -1.385943 0.000000 0.000000
  38 -0.000000 9.953527 0.000000 0.052905 -0.000289 0.010901
  39 0.000000 10.932054 0.000000 -0.347098 0.005822 0.033206
  40 0.000000 8.799006 0.000001 -1.061092 -0.013375 -0.022797
  41 0.000002 10.021091 0.000000 -0.424640 0.001738 0.008064
  42 0.000000 10.184029 -0.000001 0.002298 0.000015 0.000048
  43 0.000007 -63.736702 -0.895574 0.076522 0.000000 0.000000
  44 -5.565161 -41.438316 16.801060 0.000096 -1.576254 -1.570892
  45 -5.565188 -41.614922 -15.559244 0.000096 -1.576254 -1.570892
  46 -41.511444 -32.159069 24.498268 -0.000114 1.576254 1.570682
  47 -41.511475 -19.393265 -20.378536 -0.000114 1.576254 1.570682
  48 78.102623 -74.439980 0.809623 -0.130448 1.576254 1.570661
  49 32.818348 -71.510750 0.793666 0.321305 1.576254 1.570669
  50 36.417038 -74.306908 1.331398 -0.003262 1.576254 1.570666
  time 2
  0 -0.138733 0.408998 52.017868 1.576254 0.000000 -0.000001
  1 -24.910530 -46.965115 0.659748 -0.000114 1.576254 1.570682
  2 0.000001 -21.134916 0.000000 1.764745 0.000000 0.000000
  3 0.000000 6.799599 -0.000001 0.144813 -0.000000 -0.000000
  4 -0.000001 6.325093 0.000000 0.179192 3.141592 0.000000
  5 0.000000 4.305283 -0.000000 -0.002670 -3.141592 0.000000
  6 -0.000000 2.333662 0.000000 -0.065988 0.000000 0.000000
  7 0.000000 3.386917 0.000000 -0.146263 -0.000000 -0.000000
  8 -0.000000 5.951351 3.445944 -1.540606 3.141593 -0.000002
  9 0.000000 6.018992 0.000002 -0.470527 0.000002 -0.000000
  10 0.000000 5.184167 -0.000001 -0.575834 -0.000000 -0.000000
  11 0.000000 7.215684 -0.000002 -0.180879 -0.000000 0.000000
  12 -0.000001 5.262505 -0.000000 -0.017961 -0.000001 0.000000
  13 0.000001 4.119096 -0.000001 -0.286599 0.000001 -0.000000
  14 0.000000 2.884165 0.000002 0.238335 -3.141591 0.000001
  15 -0.000001 2.392371 -0.000001 0.404349 -0.000002 0.000000
  16 -0.000000 2.854577 0.000001 -0.231490 -0.000000 -0.000000
  17 -0.000000 2.333662 0.000000 -0.492460 1.810435 1.188845
  18 -0.000000 6.907819 -0.000000 -1.016361 -0.215051 0.027521
  19 -0.000001 16.025202 -0.000001 -0.367153 -1.326789 -0.649725
  20 0.000001 8.302363 0.000003 -0.110467 -0.018214 0.273129
  21 -0.999587 3.677692 0.004099 0.197234 0.002279 0.124597
  22 -0.000001 2.205517 -0.000002 -0.257587 0.023264 0.045063
  23 -0.030755 3.687302 0.123971 0.142570 -0.004977 -0.031970
  24 -0.000001 2.174214 -0.000001 -0.298930 0.023518 0.060027
  25 0.880921 3.855730 0.123968 0.120986 0.037674 -0.322678
  26 0.000001 2.236421 0.000001 -0.293553 -0.027381 0.184103
  27 -0.000000 2.333662 0.000000 -0.492462 -1.810435 -1.188843
  28 0.000001 6.907820 -0.000000 -1.043509 0.240347 -0.073409
  29 0.000002 16.025202 0.000002 -0.366640 1.326695 0.648712
  30 0.000001 8.302361 -0.000000 -0.110467 0.018214 -0.273129
  31 0.999589 3.677691 0.004101 0.194217 0.000210 -0.115391
  32 -0.000001 2.205518 -0.000000 -0.257587 -0.023264 -0.045063
  33 0.030756 3.687300 0.123970 0.139978 0.007906 0.041157
  34 0.000001 2.174214 0.000001 -0.298930 -0.023518 -0.060028
  35 -0.880921 3.855731 0.123971 0.119342 -0.034125 0.331941
  36 0.000002 2.236419 -0.000000 -0.293553 0.027381 -0.184103
  37 0.000001 -21.134916 0.000000 -1.146391 0.000000 0.000000
  38 0.000000 9.953526 0.000001 -0.359404 0.005407 0.029760
  39 0.000001 10.932053 0.000000 -0.496052 -0.001260 -0.004975
  40 0.000000 8.799006 0.000000 -1.093211 -0.003069 -0.005045
  41 -0.000001 10.021091 -0.000007 -0.078856 0.000067 0.001697
  42 -0.000000 10.184019 0.000002 0.021128 0.000142 -0.000342
  43 0.000006 -63.146156 -0.895574 0.076522 0.000000 0.000000
  44 -7.058906 -46.065338 16.826313 0.000096 -1.576254 -1.570892
  45 -7.058934 -46.241936 -15.533990 0.000096 -1.576254 -1.570892
  46 -50.863266 -25.263334 16.562000 -0.000114 1.576254 1.570682
  47 -50.863289 -8.763762 -11.683964 -0.000114 1.576254 1.570682
  48 78.102623 -74.439980 0.809623 -0.130448 1.576254 1.570661
  49 30.263519 -71.510750 0.793667 0.321305 1.576254 1.570669
  50 34.477436 -74.306908 1.331399 -0.003262 1.576254 1.570666
  time 3
  0 -0.138733 0.408998 52.017868 1.576254 0.000000 -0.000001
  1 -25.856604 -48.757084 0.669529 -0.000114 1.576254 1.570682
  2 0.000001 -21.134916 0.000000 1.673084 -0.000000 -0.000000
  3 -0.000000 6.799598 -0.000000 0.217481 0.000000 -0.000000
  4 0.000000 6.325094 -0.000000 0.148877 3.141593 -0.000000
  5 0.000000 4.305279 -0.000000 -0.002671 -3.141592 -0.000000
  6 0.000000 2.333663 -0.000000 -0.065988 -0.000000 -0.000000
  7 0.000000 3.386916 0.000000 -0.146263 -0.000000 0.000000
  8 0.000001 5.951352 3.445944 -1.428120 3.141592 -0.000002
  9 0.000000 6.018991 -0.000000 -0.396675 0.000002 -0.000000
  10 0.000000 5.184166 -0.000000 -0.536143 -0.000000 -0.000000
  11 -0.000000 7.215682 0.000000 -0.154137 -0.000001 0.000000
  12 0.000002 5.262502 -0.000002 0.097919 -0.000000 -0.000000
  13 0.000000 4.119096 0.000000 -0.170718 0.000001 -0.000000
  14 0.000000 2.884163 -0.000001 0.122454 -3.141591 0.000001
  15 0.000000 2.392372 -0.000001 0.288468 -0.000002 -0.000000
  16 -0.000000 2.854577 0.000001 -0.231490 -0.000000 0.000000
  17 0.000000 2.333663 -0.000000 -0.492460 1.810435 1.188845
  18 -0.000000 6.907822 -0.000000 -1.033266 -0.186229 -0.004904
  19 -0.000001 16.025204 0.000002 -0.273882 -1.312188 -0.473311
  20 -0.000003 8.302365 0.000001 -0.110467 -0.018213 0.273130
  21 -0.999587 3.677692 0.004101 0.197234 0.002279 0.124597
  22 -0.000001 2.205519 -0.000001 -0.257587 0.023264 0.045063
  23 -0.030753 3.687303 0.123972 0.142570 -0.004977 -0.031970
  24 -0.000000 2.174214 0.000000 -0.298930 0.023518 0.060027
  25 0.880922 3.855733 0.123972 0.120986 0.037673 -0.322678
  26 -0.000001 2.236423 0.000001 -0.293553 -0.027381 0.184103
  27 0.000000 2.333663 -0.000000 -0.492462 -1.810435 -1.188843
  28 0.000001 6.907821 -0.000001 -1.048226 0.204644 -0.027798
  29 0.000001 16.025200 0.000005 -0.273202 1.312099 0.472070
  30 -0.000004 8.302364 0.000003 -0.110467 0.018214 -0.273129
  31 0.999589 3.677693 0.004100 0.194217 0.000210 -0.115391
  32 -0.000001 2.205517 0.000001 -0.257587 -0.023264 -0.045063
  33 0.030754 3.687300 0.123970 0.139978 0.007906 0.041157
  34 -0.000001 2.174214 -0.000001 -0.298930 -0.023518 -0.060028
  35 -0.880920 3.855732 0.123970 0.119342 -0.034125 0.331941
  36 -0.000000 2.236421 -0.000000 -0.293554 0.027381 -0.184103
  37 0.000001 -21.134916 0.000000 -1.149895 0.000022 0.000005
  38 -0.000000 9.953526 0.000001 -0.422398 0.007753 0.036160
  39 0.000001 10.932055 -0.000001 -0.773468 -0.006699 -0.016449
  40 -0.000001 8.799004 0.000003 -0.782851 0.001247 0.003021
  41 0.000002 10.021092 0.000000 -0.041793 0.000019 0.000920
  42 0.000001 10.184031 -0.000002 0.040845 0.000282 -0.000739
  43 0.000006 -62.378456 -0.895574 0.076522 0.000000 0.000000
  44 -7.522298 -49.700478 16.846151 0.000096 -1.576254 -1.570892
  45 -7.522326 -49.877079 -15.514153 0.000096 -1.576254 -1.570892
  46 -56.535686 -16.275135 10.594054 -0.000114 1.576254 1.570682
  47 -56.535694 -2.316360 -6.410206 -0.000114 1.576254 1.570682
  48 78.102623 -74.439980 0.809623 -0.130448 1.576254 1.570661
  49 29.130945 -71.864426 0.795599 0.321305 1.576254 1.570669
  50 33.054302 -74.058968 1.302050 -0.003262 1.576254 1.570666
  time 4
  0 -0.138733 0.408998 52.017868 1.576254 0.000000 -0.000001
  1 -27.498552 -49.539768 0.673801 -0.000114 1.576254 1.570682
  2 0.000001 -21.134916 0.000000 1.492581 -0.000000 0.000000
  3 0.000000 6.799595 -0.000001 0.290069 -0.000000 -0.000000
  4 -0.000001 6.325095 0.000000 0.089547 3.141592 0.000000
  5 0.000000 4.305282 0.000000 -0.002670 -3.141592 0.000000
  6 -0.000000 2.333663 -0.000000 -0.065988 -0.000000 -0.000000
  7 -0.000001 3.386917 -0.000000 -0.146263 -0.000000 0.000000
  8 -0.000001 5.951352 3.445945 1.534491 -0.000000 3.141591
  9 0.000001 6.018992 -0.000000 -0.363161 0.000002 -0.000000
  10 -0.000000 5.184165 -0.000000 -0.429257 -0.000000 -0.000000
  11 -0.000001 7.215683 -0.000001 -0.081995 -0.000001 0.000000
  12 0.000000 5.262504 -0.000003 0.213800 -0.000001 -0.000000
  13 0.000000 4.119096 -0.000000 -0.054837 0.000001 -0.000000
  14 0.000000 2.884164 0.000001 0.006573 -3.141592 0.000001
  15 -0.000001 2.392371 0.000001 0.172587 -0.000002 -0.000000
  16 -0.000001 2.854578 0.000000 -0.231490 -0.000000 0.000000
  17 -0.000000 2.333663 -0.000000 -0.492460 1.810435 1.188845
  18 -0.000001 6.907820 -0.000001 -1.037296 -0.153749 0.040461
  19 -0.000001 16.025209 -0.000001 -0.301137 -1.315954 -0.523464
  20 -0.000000 8.302372 0.000002 -0.110467 -0.018213 0.273129
  21 -0.999587 3.677693 0.004099 0.197234 0.002279 0.124598
  22 0.000001 2.205519 0.000000 -0.257587 0.023264 0.045063
  23 -0.030754 3.687305 0.123972 0.142570 -0.004977 -0.031970
  24 0.000001 2.174214 -0.000001 -0.298930 0.023518 0.060027
  25 0.880922 3.855735 0.123969 0.120987 0.037674 -0.322678
  26 -0.000001 2.236423 0.000002 -0.293554 -0.027381 0.184103
  27 -0.000000 2.333663 -0.000000 -0.492462 -1.810435 -1.188843
  28 0.000001 6.907819 -0.000001 -1.046242 0.165382 -0.060760
  29 0.000001 16.025206 -0.000000 -0.300516 1.315864 0.522309
  30 0.000002 8.302364 0.000002 -0.110467 0.018214 -0.273129
  31 0.999588 3.677691 0.004098 0.194217 0.000210 -0.115391
  32 0.000001 2.205517 0.000000 -0.257587 -0.023264 -0.045063
  33 0.030754 3.687301 0.123970 0.139978 0.007906 0.041157
  34 -0.000001 2.174212 -0.000003 -0.298930 -0.023518 -0.060028
  35 -0.880920 3.855733 0.123969 0.119342 -0.034125 0.331941
  36 0.000001 2.236421 0.000002 -0.293554 0.027381 -0.184103
  37 0.000001 -21.134916 0.000000 -1.261520 0.000523 0.000082
  38 0.000000 9.953532 0.000000 -0.330004 0.006253 0.037547
  39 0.000000 10.932058 0.000001 -0.945110 -0.010305 -0.020159
  40 -0.000001 8.799005 -0.000003 -0.598338 0.001840 0.005966
  41 -0.000002 10.021092 0.000001 -0.030179 0.000010 0.000645
  42 -0.000001 10.184030 0.000001 0.042582 0.000294 -0.000747
  43 0.000006 -61.610748 -0.895576 0.076522 0.000000 0.000000
  44 -9.706548 -50.376278 16.849840 0.000096 -1.576254 -1.570892
  45 -9.706574 -50.552883 -15.510463 0.000096 -1.576254 -1.570892
  46 -59.448547 -7.276842 6.476830 -0.000114 1.576254 1.570682
  47 -59.448551 0.994474 -3.702060 -0.000114 1.576254 1.570682
  48 78.102623 -74.439980 0.809623 -0.130448 1.576254 1.570661
  49 27.998371 -72.218086 0.797529 0.321305 1.576254 1.570669
  50 31.631174 -73.811035 1.272702 -0.003262 1.576254 1.570666
  time 5
  0 -0.138733 0.408998 52.017868 1.576254 0.000000 -0.000001
  1 -29.536131 -49.861603 0.675559 -0.000114 1.576254 1.570682
  2 0.000001 -21.134916 0.000000 1.195920 -0.000000 0.000000
  3 0.000001 6.799596 -0.000001 0.362387 0.000000 0.000000
  4 0.000001 6.325094 -0.000001 -0.008892 3.141592 -0.000000
  5 -0.000001 4.305281 -0.000000 -0.002670 -3.141592 0.000000
  6 0.000000 2.333664 -0.000000 -0.065988 -0.000000 0.000000
  7 -0.000000 3.386916 0.000000 -0.146263 -0.000000 0.000000
  8 0.000001 5.951353 3.445944 1.355510 -0.000000 3.141590
  9 -0.000001 6.018992 -0.000002 -0.379184 0.000002 0.000000
  10 0.000000 5.184165 -0.000002 -0.440165 -0.000000 0.000000
  11 0.000000 7.215683 -0.000000 0.070092 -0.000001 0.000000
  12 0.000001 5.262502 -0.000000 0.302454 -0.000000 -0.000000
  13 -0.000000 4.119094 -0.000000 0.033816 0.000001 0.000000
  14 0.000000 2.884165 -0.000000 -0.082080 -3.141592 0.000001
  15 -0.000000 2.392370 0.000001 0.083934 -0.000002 0.000000
  16 -0.000000 2.854577 0.000001 -0.231490 0.000000 0.000000
  17 0.000000 2.333664 -0.000000 -0.492460 1.810435 1.188845
  18 0.000001 6.907820 0.000000 -1.061063 -0.114450 0.167470
  19 -0.000001 16.025200 -0.000000 -0.338180 -1.321724 -0.593355
  20 -0.000000 8.302361 0.000003 -0.110467 -0.018213 0.273129
  21 -0.999591 3.677693 0.004101 0.197234 0.002279 0.124597
  22 -0.000001 2.205516 -0.000001 -0.257587 0.023264 0.045063
  23 -0.030756 3.687300 0.123969 0.142570 -0.004977 -0.031970
  24 -0.000002 2.174214 0.000001 -0.298930 0.023518 0.060027
  25 0.880919 3.855730 0.123969 0.120986 0.037673 -0.322678
  26 -0.000001 2.236422 0.000003 -0.293553 -0.027381 0.184103
  27 0.000000 2.333664 -0.000000 -0.492462 -1.810435 -1.188843
  28 0.000002 6.907821 -0.000000 -1.064419 0.119505 -0.175997
  29 0.000000 16.025204 0.000001 -0.337623 1.321632 0.592290
  30 0.000004 8.302364 0.000003 -0.110467 0.018213 -0.273129
  31 0.999590 3.677692 0.004101 0.194217 0.000210 -0.115391
  32 0.000001 2.205517 -0.000001 -0.257587 -0.023264 -0.045063
  33 0.030755 3.687299 0.123969 0.139978 0.007906 0.041157
  34 0.000003 2.174215 0.000001 -0.298930 -0.023519 -0.060027
  35 -0.880920 3.855730 0.123971 0.119342 -0.034125 0.331941
  36 0.000000 2.236421 -0.000000 -0.293553 0.027381 -0.184103
  37 0.000001 -21.134916 0.000000 -1.406303 0.000672 0.000055
  38 0.000000 9.953532 0.000001 -0.178083 0.003292 0.036865
  39 -0.000000 10.932060 0.000001 -1.065706 -0.012312 -0.020875
  40 -0.000000 8.799001 -0.000000 -0.481561 0.001469 0.005983
  41 0.000001 10.021090 0.000001 -0.027722 0.000008 0.000542
  42 -0.000000 10.184036 -0.000004 0.037127 0.000254 -0.000594
  43 0.000006 -61.020203 -0.895576 0.076522 0.000000 0.000000
  44 -11.890799 -51.052078 16.853531 0.000096 -1.576254 -1.570892
  45 -11.890825 -51.228683 -15.506773 0.000096 -1.576254 -1.570892
  46 -60.521713 -0.350800 4.092740 -0.000114 1.576254 1.570682
  47 -60.521713 2.214255 -2.704325 -0.000114 1.576254 1.570682
  48 78.102623 -74.439980 0.809623 -0.130448 1.576254 1.570661
  49 26.865801 -72.571754 0.799460 0.321305 1.576254 1.570669
  50 30.208042 -73.563103 1.243353 -0.003262 1.576254 1.570666
  time 6
  0 -0.138733 0.408998 52.017868 1.576254 0.000000 -0.000001
  1 -31.669096 -50.271015 0.677795 -0.000114 1.576254 1.570682
  2 0.000001 -21.134916 0.000000 1.195920 -0.000000 0.000000
  3 0.000001 6.799598 -0.000001 0.175598 -0.000000 -0.000000
  4 -0.000001 6.325095 -0.000001 -0.156278 3.141592 0.000000
  5 -0.000001 4.305279 0.000000 -0.002670 -3.141592 0.000000
  6 0.000000 2.333663 0.000001 -0.065988 -0.000000 0.000000
  7 0.000000 3.386917 -0.000000 -0.146263 -0.000000 -0.000000
  8 -0.000000 5.951353 3.445946 1.304231 -0.000001 3.141591
  9 0.000000 6.018994 -0.000002 -0.418641 0.000002 -0.000000
  10 -0.000000 5.184167 -0.000001 -0.472911 -0.000000 0.000000
  11 0.000000 7.215683 -0.000000 -0.011073 -0.000000 -0.000000
  12 -0.000000 5.262502 -0.000000 0.337709 -0.000001 -0.000000
  13 -0.000000 4.119094 -0.000001 0.069072 0.000001 -0.000000
  14 -0.000000 2.884165 -0.000001 -0.117336 -3.141592 0.000001
  15 -0.000001 2.392370 0.000000 0.048678 -0.000002 -0.000000
  16 -0.000000 2.854575 0.000003 -0.231490 0.000000 0.000000
  17 0.000000 2.333663 0.000001 -0.492460 1.810435 1.188845
  18 -0.000002 6.907820 -0.000000 -1.079244 -0.117872 0.219294
  19 0.000002 16.025206 0.000005 -0.331685 -1.320656 -0.580939
  20 0.000001 8.302365 0.000001 -0.110467 -0.018214 0.273129
  21 -0.999589 3.677695 0.004100 0.197234 0.002279 0.124597
  22 0.000001 2.205517 -0.000001 -0.257587 0.023264 0.045063
  23 -0.030754 3.687303 0.123967 0.142570 -0.004977 -0.031970
  24 -0.000001 2.174216 0.000002 -0.298929 0.023518 0.060027
  25 0.880921 3.855733 0.123969 0.120986 0.037674 -0.322678
  26 0.000000 2.236423 0.000001 -0.293554 -0.027381 0.184103
  27 0.000000 2.333663 0.000001 -0.492462 -1.810435 -1.188843
  28 0.000002 6.907820 -0.000001 -1.078904 0.118902 -0.219877
  29 0.000001 16.025206 -0.000001 -0.331120 1.320565 0.579861
  30 0.000003 8.302368 0.000002 -0.110467 0.018214 -0.273129
  31 0.999590 3.677694 0.004101 0.194217 0.000210 -0.115391
  32 -0.000001 2.205517 -0.000001 -0.257587 -0.023264 -0.045063
  33 0.030754 3.687304 0.123970 0.139978 0.007906 0.041157
  34 0.000001 2.174214 -0.000001 -0.298930 -0.023518 -0.060027
  35 -0.880920 3.855733 0.123967 0.119342 -0.034125 0.331941
  36 0.000002 2.236422 0.000001 -0.293553 0.027381 -0.184103
  37 0.000001 -21.134916 0.000000 -1.525081 0.000731 0.000017
  38 0.000000 9.953526 0.000001 -0.044418 0.000788 0.035494
  39 -0.000001 10.932062 -0.000001 -1.173432 -0.013437 -0.020211
  40 0.000000 8.799001 -0.000002 -0.384089 0.001086 0.005586
  41 0.000001 10.021089 0.000002 -0.026651 0.000006 0.000485
  42 -0.000001 10.184031 -0.000007 0.029863 0.000202 -0.000444
  43 0.000006 -60.783981 -0.895576 0.076522 0.000000 0.000000
  44 -14.075048 -51.727886 16.857222 0.000096 -1.576254 -1.570892
  45 -14.075075 -51.904491 -15.503082 0.000096 -1.576254 -1.570892
  46 -60.675018 2.420624 3.324170 -0.000114 1.576254 1.570682
  47 -60.675022 2.388505 -2.561788 -0.000114 1.576254 1.570682
  48 78.102623 -74.439980 0.809623 -0.130448 1.576254 1.570661
  49 25.733229 -72.925423 0.801391 0.321305 1.576254 1.570669
  50 28.784910 -73.315178 1.214004 -0.003262 1.576254 1.570666
  time 7
  0 -0.138733 0.408998 52.017868 1.576254 0.000000 -0.000001
  1 -33.021999 -50.801018 0.680689 -0.000114 1.576254 1.570682
  2 0.000001 -21.134912 0.000000 1.258538 -0.000000 0.000000
  3 0.000002 6.799596 -0.000001 0.089907 -0.000000 -0.000000
  4 -0.000000 6.325094 0.000000 -0.360327 3.141592 -0.000000
  5 0.000000 4.305282 0.000000 -0.002671 -3.141592 -0.000000
  6 0.000000 2.333663 -0.000000 -0.065988 0.000000 -0.000000
  7 0.000000 3.386915 0.000001 -0.146263 -0.000000 -0.000000
  8 0.000000 5.951353 3.445945 1.252952 -0.000001 3.141590
  9 -0.000001 6.018993 -0.000001 -0.468585 0.000003 0.000000
  10 -0.000000 5.184167 -0.000001 -0.527532 -0.000000 0.000000
  11 0.000000 7.215683 0.000001 -0.193025 -0.000000 -0.000000
  12 -0.000001 5.262501 0.000001 0.027148 -0.000001 0.000000
  13 0.000000 4.119097 0.000000 -0.241489 0.000000 -0.000000
  14 0.000000 2.884167 0.000001 0.193226 -3.141590 0.000002
  15 -0.000001 2.392370 -0.000000 0.359239 -0.000002 0.000000
  16 -0.000001 2.854577 -0.000001 -0.231490 0.000000 -0.000000
  17 0.000000 2.333663 -0.000000 -0.492460 1.810435 1.188845
  18 -0.000003 6.907821 -0.000002 -1.063033 -0.091106 0.184918
  19 -0.000001 16.025209 -0.000000 -0.321841 -1.319085 -0.562257
  20 -0.000002 8.302368 0.000003 -0.110467 -0.018213 0.273130
  21 -0.999587 3.677691 0.004099 0.197234 0.002279 0.124597
  22 -0.000001 2.205521 0.000001 -0.257587 0.023264 0.045063
  23 -0.030753 3.687300 0.123970 0.142570 -0.004977 -0.031971
  24 0.000001 2.174215 0.000001 -0.298929 0.023519 0.060028
  25 0.880922 3.855731 0.123969 0.120986 0.037674 -0.322678
  26 -0.000002 2.236423 0.000004 -0.293554 -0.027381 0.184104
  27 0.000000 2.333663 -0.000000 -0.492462 -1.810435 -1.188843
  28 0.000001 6.907820 -0.000000 -1.062606 0.092059 -0.185340
  29 0.000000 16.025209 -0.000000 -0.321258 1.318993 0.561156
  30 0.000006 8.302366 0.000002 -0.110467 0.018213 -0.273129
  31 0.999587 3.677692 0.004099 0.194217 0.000210 -0.115391
  32 0.000001 2.205517 0.000000 -0.257587 -0.023264 -0.045063
  33 0.030755 3.687301 0.123968 0.139978 0.007906 0.041157
  34 0.000001 2.174217 -0.000000 -0.298930 -0.023519 -0.060028
  35 -0.880920 3.855735 0.123970 0.119342 -0.034125 0.331941
  36 0.000001 2.236418 -0.000000 -0.293554 0.027381 -0.184103
  37 0.000001 -21.134912 0.000000 -1.714304 0.001579 -0.000113
  38 -0.000000 9.953530 -0.000001 0.131147 -0.002306 0.035120
  39 -0.000000 10.932055 0.000001 -1.201551 -0.015882 -0.023176
  40 0.000002 8.799005 0.000003 -0.345942 0.000752 0.004302
  41 0.000002 10.021090 -0.000003 -0.025657 0.000005 0.000402
  42 -0.000000 10.184033 0.000001 0.038803 0.000263 -0.000474
  43 0.000006 -61.115631 -0.895576 0.076522 0.000000 0.000000
  44 -17.363281 -52.164661 16.859610 0.000096 -1.576254 -1.570892
  45 -17.363308 -52.341263 -15.500694 0.000096 -1.576254 -1.570892
  46 -57.231098 -1.458643 6.568585 -0.000114 1.576254 1.570682
  47 -57.231102 -1.525947 -5.763676 -0.000114 1.576254 1.570682
  48 78.102623 -74.439980 0.809623 -0.130448 1.576254 1.570661
  49 26.735783 -72.778297 0.800588 0.321305 1.576254 1.570669
  50 29.780373 -73.418304 1.226213 -0.003262 1.576254 1.570666
  time 8
  0 -0.138733 0.408998 52.017868 1.576254 0.000000 -0.000001
  1 -31.584057 -49.573601 0.673989 -0.000114 1.576254 1.570682
  2 0.000001 -21.134916 0.000000 1.409398 0.000000 -0.000000
  3 -0.000001 6.799596 -0.000000 0.037907 0.000000 0.000000
  4 0.000001 6.325095 0.000001 -0.261251 3.141592 -0.000000
  5 0.000000 4.305280 -0.000001 -0.002670 -3.141592 0.000000
  6 -0.000000 2.333662 0.000000 -0.065988 -0.000000 0.000000
  7 0.000000 3.386917 -0.000001 -0.146263 -0.000000 0.000000
  8 0.000000 5.951354 3.445945 1.240099 -0.000001 3.141590
  9 0.000001 6.018994 -0.000001 -0.516049 0.000003 -0.000000
  10 -0.000000 5.184168 -0.000001 -0.603956 -0.000000 0.000000
  11 -0.000000 7.215682 0.000001 -0.379633 -0.000000 0.000000
  12 0.000000 5.262503 0.000001 -0.577673 -0.000000 0.000001
  13 0.000000 4.119094 -0.000001 -0.846311 0.000001 0.000000
  14 -0.000000 2.884164 0.000000 0.798047 -3.141591 0.000001
  15 -0.000001 2.392371 0.000000 0.964061 -0.000002 0.000000
  16 0.000000 2.854576 0.000000 -0.231490 0.000001 -0.000000
  17 -0.000000 2.333662 0.000000 -0.492460 1.810435 1.188845
  18 -0.000001 6.907820 0.000001 -1.080300 -0.092442 0.299736
  19 -0.000002 16.025202 -0.000001 -0.385426 -1.330248 -0.686210
  20 -0.000002 8.302364 0.000000 -0.110467 -0.018214 0.273129
  21 -0.999588 3.677691 0.004099 0.197234 0.002279 0.124597
  22 -0.000001 2.205520 0.000001 -0.257587 0.023264 0.045063
  23 -0.030755 3.687303 0.123969 0.142570 -0.004977 -0.031970
  24 -0.000000 2.174214 -0.000002 -0.298930 0.023518 0.060027
  25 0.880921 3.855731 0.123969 0.120986 0.037674 -0.322678
  26 -0.000002 2.236421 -0.000000 -0.293554 -0.027382 0.184103
  27 -0.000000 2.333662 0.000000 -0.492462 -1.810435 -1.188843
  28 0.000001 6.907820 0.000001 -1.079856 0.093337 -0.300100
  29 -0.000001 16.025206 0.000001 -0.384936 1.330152 0.685224
  30 0.000002 8.302365 0.000003 -0.110467 0.018214 -0.273129
  31 0.999590 3.677691 0.004099 0.194217 0.000209 -0.115391
  32 0.000001 2.205517 -0.000000 -0.257587 -0.023264 -0.045063
  33 0.030758 3.687303 0.123969 0.139978 0.007906 0.041157
  34 0.000002 2.174214 0.000001 -0.298930 -0.023518 -0.060027
  35 -0.880918 3.855734 0.123968 0.119342 -0.034125 0.331941
  36 0.000001 2.236422 0.000002 -0.293553 0.027381 -0.184104
  37 0.000001 -21.134916 0.000000 -1.757040 0.000580 -0.000054
  38 -0.000000 9.953530 -0.000001 0.207143 -0.003873 0.037257
  39 0.000000 10.932056 0.000001 -1.046034 -0.015723 -0.027269
  40 -0.000000 8.799002 -0.000002 -0.539007 0.000551 0.001994
  41 0.000001 10.021095 -0.000003 -0.027510 0.000005 0.000336
  42 -0.000001 10.184029 -0.000000 0.050530 0.000341 -0.000427
  43 0.000006 -61.906490 -0.895576 0.076522 0.000000 0.000000
  44 -14.152764 -49.562683 16.845404 0.000096 -1.576254 -1.570892
  45 -14.152791 -49.739288 -15.514897 0.000096 -1.576254 -1.570892
  46 -49.018658 -10.709202 14.305264 -0.000114 1.576254 1.570682
  47 -49.018673 -10.860395 -13.398939 -0.000114 1.576254 1.570682
  48 78.102623 -74.439980 0.809623 -0.130448 1.576254 1.570661
  49 29.126492 -72.427460 0.798671 0.321305 1.576254 1.570669
  50 32.154163 -73.664261 1.255326 -0.003262 1.576254 1.570666
  time 9
  0 -0.138733 0.408998 52.017868 1.576254 0.000000 -0.000001
  1 -28.155102 -46.646687 0.658013 -0.000114 1.576254 1.570682
  2 0.000001 -21.134916 0.000000 1.590364 -0.000000 0.000000
  3 0.000000 6.799595 0.000000 0.011226 0.000000 -0.000000
  4 -0.000000 6.325094 0.000001 -0.040101 3.141592 0.000000
  5 0.000000 4.305283 0.000000 -0.002670 -3.141592 0.000000
  6 -0.000000 2.333663 0.000000 -0.065988 0.000000 0.000000
  7 0.000000 3.386916 -0.000000 -0.146263 -0.000000 0.000000
  8 0.000000 5.951352 3.445944 1.227246 -0.000001 3.141590
  9 0.000000 6.018993 -0.000001 -0.550431 0.000003 -0.000000
  10 0.000000 5.184168 -0.000000 -0.600740 -0.000000 0.000000
  11 0.000001 7.215683 0.000001 -0.496330 -0.000000 0.000000
  12 -0.000000 5.262501 -0.000000 -0.888235 -0.000000 0.000001
  13 -0.000000 4.119097 0.000002 -1.156872 0.000001 -0.000000
  14 -0.000000 2.884167 -0.000002 1.108608 -3.141591 0.000001
  15 -0.000000 2.392370 -0.000000 1.274622 -0.000002 0.000000
  16 0.000000 2.854576 -0.000001 -0.231490 -0.000000 -0.000000
  17 -0.000000 2.333663 0.000000 -0.492460 1.810435 1.188845
  18 -0.000000 6.907820 0.000000 -1.207206 -0.311582 0.347173
  19 -0.000000 16.025211 0.000002 -0.325071 -1.319594 -0.568370
  20 -0.000002 8.302370 -0.000001 -0.110467 -0.018213 0.273129
  21 -0.999588 3.677694 0.004099 0.197234 0.002279 0.124597
  22 -0.000000 2.205521 0.000001 -0.257587 0.023264 0.045063
  23 -0.030754 3.687304 0.123968 0.142570 -0.004977 -0.031970
  24 -0.000002 2.174215 -0.000001 -0.298930 0.023518 0.060027
  25 0.880921 3.855734 0.123968 0.120986 0.037674 -0.322678
  26 -0.000001 2.236422 -0.000000 -0.293554 -0.027381 0.184103
  27 -0.000000 2.333663 0.000000 -0.492462 -1.810435 -1.188842
  28 0.000000 6.907820 -0.000000 -1.206701 0.312455 -0.347309
  29 0.000001 16.025206 0.000003 -0.324495 1.319502 0.567277
  30 0.000000 8.302365 0.000001 -0.110467 0.018213 -0.273129
  31 0.999590 3.677692 0.004099 0.194217 0.000210 -0.115391
  32 0.000001 2.205518 -0.000001 -0.257587 -0.023264 -0.045062
  33 0.030756 3.687301 0.123967 0.139978 0.007906 0.041157
  34 -0.000001 2.174214 0.000000 -0.298930 -0.023518 -0.060027
  35 -0.880919 3.855733 0.123969 0.119342 -0.034125 0.331941
  36 -0.000001 2.236420 -0.000001 -0.293554 0.027381 -0.184103
  37 0.000001 -21.134916 0.000000 -1.672429 -0.000000 0.000000
  38 0.000000 9.953531 -0.000001 0.216942 -0.003242 0.029771
  39 0.000001 10.932056 0.000000 -0.677678 -0.004520 -0.012826
  40 0.000000 8.799003 -0.000001 -0.980431 -0.004609 -0.008637
  41 -0.000000 10.021097 0.000005 -0.054897 0.000019 0.000693
  42 0.000001 10.184027 0.000002 0.042600 0.000286 -0.000371
  43 0.000006 -62.850414 -0.895576 0.076522 0.000000 0.000000
  44 -10.942250 -46.960709 16.831202 0.000096 -1.576254 -1.570892
  45 -10.942277 -47.137314 -15.529100 0.000096 -1.576254 -1.570892
  46 -39.216721 -21.750183 23.539364 -0.000114 1.576254 1.570682
  47 -39.216755 -22.001509 -22.511993 -0.000114 1.576254 1.570682
  48 78.102623 -74.439980 0.809623 -0.130448 1.576254 1.570661
  49 31.979914 -72.008713 0.796384 0.321305 1.576254 1.570669
  50 34.987396 -73.957817 1.290074 -0.003262 1.576254 1.570666
  time 10
  0 -0.138733 0.408998 52.017868 1.576254 0.000000 -0.000001
  1 -24.062477 -43.153271 0.638944 -0.000114 1.576254 1.570682
  2 0.000001 -21.134916 0.000000 1.740725 -0.000000 -0.000000
  3 0.000000 6.799597 0.000000 0.001403 0.000000 -0.000000
  4 -0.000000 6.325093 0.000000 0.181050 3.141592 0.000000
  5 -0.000001 4.305282 0.000000 -0.002671 -3.141592 -0.000000
  6 0.000000 2.333662 -0.000000 -0.065988 -0.000000 -0.000000
  7 -0.000000 3.386916 -0.000000 -0.146263 -0.000000 0.000000
  8 0.000001 5.951352 3.445944 1.214392 -0.000001 3.141590
  9 -0.000001 6.018993 -0.000001 -0.570387 0.000003 -0.000000
  10 -0.000000 5.184167 -0.000001 -0.552425 -0.000000 0.000000
  11 -0.000000 7.215682 0.000001 -0.550056 -0.000001 -0.000000
  12 -0.000000 5.262503 0.000000 -0.590235 -0.000000 0.000001
  13 -0.000001 4.119094 -0.000001 -0.858872 0.000001 0.000000
  14 0.000000 2.884163 -0.000000 0.810608 -3.141591 0.000001
  15 -0.000001 2.392369 -0.000001 0.976622 -0.000002 0.000000
  16 -0.000000 2.854578 -0.000001 -0.231490 0.000000 0.000000
  17 0.000000 2.333662 -0.000000 -0.492460 1.810435 1.188845
  18 -0.000001 6.907821 0.000001 -1.419639 -0.593525 0.483720
  19 -0.000001 16.025196 0.000001 -0.197548 -1.303675 -0.337124
  20 0.000000 8.302364 -0.000000 -0.110467 -0.018213 0.273129
  21 -0.999587 3.677691 0.004100 0.197234 0.002279 0.124597
  22 -0.000001 2.205519 0.000001 -0.257587 0.023264 0.045063
  23 -0.030755 3.687303 0.123971 0.142570 -0.004977 -0.031970
  24 0.000001 2.174212 -0.000000 -0.298930 0.023518 0.060027
  25 0.880920 3.855732 0.123971 0.120986 0.037674 -0.322678
  26 0.000002 2.236419 -0.000001 -0.293553 -0.027381 0.184103
  27 0.000000 2.333662 -0.000000 -0.492462 -1.810435 -1.188843
  28 0.000000 6.907819 -0.000000 -1.419036 0.594710 -0.483594
  29 0.000000 16.025206 0.000000 -0.196614 1.303589 0.335490
  30 0.000000 8.302368 0.000001 -0.110468 0.018213 -0.273129
  31 0.999588 3.677691 0.004100 0.194217 0.000210 -0.115391
  32 -0.000000 2.205519 -0.000001 -0.257587 -0.023264 -0.045063
  33 0.030754 3.687302 0.123971 0.139978 0.007906 0.041157
  34 0.000001 2.174215 0.000000 -0.298930 -0.023518 -0.060027
  35 -0.880921 3.855732 0.123970 0.119342 -0.034125 0.331941
  36 0.000002 2.236421 0.000001 -0.293554 0.027381 -0.184103
  37 0.000001 -21.134916 0.000000 -1.496660 0.000000 0.000000
  38 0.000002 9.953530 0.000000 0.128650 -0.000929 0.014421
  39 0.000000 10.932054 -0.000000 -0.270752 0.003469 0.025468
  40 0.000001 8.799005 0.000000 -1.221071 -0.013510 -0.019308
  41 -0.000001 10.021095 -0.000002 -0.308036 0.000986 0.006348
  42 -0.000001 10.184025 -0.000000 0.011158 0.000074 -0.000138
  43 0.000006 -63.641270 -0.895576 0.076522 0.000000 0.000000
  44 -7.731737 -44.358734 16.816998 0.000096 -1.576254 -1.570892
  45 -7.731764 -44.535336 -15.543303 0.000096 -1.576254 -1.570892
  46 -31.004284 -31.000736 31.276041 -0.000114 1.576254 1.570682
  47 -31.004328 -31.335955 -30.147249 -0.000114 1.576254 1.570682
  48 78.102623 -74.439980 0.809623 -0.130448 1.576254 1.570661
  49 34.370621 -71.657883 0.794467 0.321305 1.576254 1.570669
  50 37.361183 -74.203758 1.319188 -0.003262 1.576254 1.570666
  time 11
  0 -0.138733 0.408998 52.017868 1.576254 0.000000 -0.000001
  1 -20.633522 -40.226360 0.622968 -0.000114 1.576254 1.570682
  2 0.000001 -21.134916 0.000000 1.803004 -0.000000 0.000000
  3 0.000001 6.799597 0.000000 0.000000 -0.000000 0.000000
  4 0.000000 6.325094 -0.000000 0.280125 3.141592 0.000000
  5 0.000000 4.305281 0.000000 -0.002671 -3.141592 -0.000000
  6 -0.000000 2.333665 0.000000 -0.065988 0.000000 -0.000000
  7 -0.000000 3.386914 -0.000000 -0.146263 -0.000000 -0.000000
  8 -0.000000 5.951354 3.445946 1.201540 -0.000001 3.141591
  9 -0.000000 6.018992 0.000000 -0.576839 0.000002 0.000000
  10 0.000000 5.184168 -0.000002 -0.342716 -0.000000 0.000000
  11 0.000000 7.215684 0.000001 -0.563253 -0.000000 0.000000
  12 -0.000000 5.262502 0.000000 -0.292235 -0.000001 0.000000
  13 0.000000 4.119094 0.000000 -0.560873 0.000001 0.000000
  14 -0.000000 2.884165 0.000001 0.512609 -3.141591 0.000001
  15 0.000000 2.392370 0.000001 0.678622 -0.000002 -0.000000
  16 -0.000000 2.854576 -0.000000 -0.231490 -0.000000 0.000000
  17 -0.000000 2.333665 0.000000 -0.492461 1.810435 1.188845
  18 -0.000000 6.907820 0.000000 -1.527665 -0.708703 0.567746
  19 -0.000003 16.025204 0.000001 -0.131512 -1.298615 -0.222848
  20 -0.000002 8.302366 0.000001 -0.110468 -0.018214 0.273129
  21 -0.999590 3.677692 0.004101 0.197234 0.002279 0.124597
  22 -0.000001 2.205518 0.000000 -0.257587 0.023264 0.045063
  23 -0.030756 3.687301 0.123970 0.142570 -0.004977 -0.031970
  24 -0.000002 2.174215 0.000001 -0.298930 0.023518 0.060027
  25 0.880919 3.855732 0.123970 0.120987 0.037674 -0.322678
  26 -0.000002 2.236420 0.000000 -0.293554 -0.027381 0.184103
  27 -0.000000 2.333665 0.000000 -0.492462 -1.810435 -1.188843
  28 0.000001 6.907819 -0.000000 -1.527021 0.710335 -0.567496
  29 -0.000000 16.025204 0.000004 -0.130116 1.298530 0.220453
  30 -0.000000 8.302363 0.000000 -0.110467 0.018213 -0.273129
  31 0.999586 3.677692 0.004099 0.194217 0.000210 -0.115391
  32 0.000001 2.205517 -0.000000 -0.257587 -0.023264 -0.045063
  33 0.030755 3.687301 0.123969 0.139978 0.007906 0.041157
  34 -0.000002 2.174213 -0.000000 -0.298930 -0.023518 -0.060027
  35 -0.880920 3.855730 0.123968 0.119342 -0.034125 0.331941
  36 -0.000002 2.236421 -0.000000 -0.293553 0.027381 -0.184103
  37 0.000001 -21.134916 0.000000 -1.355503 -0.000000 -0.000000
  38 -0.000001 9.953528 -0.000000 0.087481 -0.000150 0.003419
  39 -0.000000 10.932055 0.000001 -0.306984 0.006400 0.041363
  40 -0.000000 8.799004 0.000000 -0.896439 -0.011133 -0.023152
  41 0.000000 10.021096 0.000001 -0.690288 0.001943 0.005404
  42 0.000001 10.184026 -0.000002 -0.003687 -0.000024 0.000194
  43 0.000007 -63.972916 -0.895576 0.076522 0.000000 0.000000
  44 -4.521222 -41.756763 16.802797 0.000096 -1.576254 -1.570892
  45 -4.521249 -41.933369 -15.557507 0.000096 -1.576254 -1.570892
  46 -27.560364 -34.879997 34.520451 -0.000114 1.576254 1.570682
  47 -27.560410 -35.250393 -33.349129 -0.000114 1.576254 1.570682
  48 78.102623 -74.439980 0.809623 -0.130448 1.576254 1.570661
  49 35.373173 -71.510750 0.793664 0.321305 1.576254 1.570669
  50 38.356640 -74.306908 1.331396 -0.003262 1.576254 1.570666
end
